<?xml version="1.0" encoding="UTF-8" standalone="no"?>
<svg xmlns:ffdec="https://www.free-decompiler.com/flash" xmlns:xlink="http://www.w3.org/1999/xlink" ffdec:objectType="morphshape" height="436.25px" width="455.4px" xmlns="http://www.w3.org/2000/svg">
  <g transform="matrix(1.0, 0.0, 0.0, 1.0, -70.0, -275.0)">
    <path d="M70.0 581.15 Q70.0 635.15 136.7 673.55 203.4 711.25 297.7 711.25 392.05 711.25 458.7 673.55 525.4 635.15 525.4 581.15 525.4 527.15 458.7 489.4 392.05 451.0 297.7 451.0 203.4 451.0 136.7 489.4 70.0 527.15 70.0 581.15" fill="#000000" fill-opacity="0.30980393" fill-rule="evenodd" stroke="none">
      <animate attributeName="fill" dur="2s" repeatCount="indefinite" values="#000000;#000001"/>
      <animate attributeName="fill-opacity" dur="2s" repeatCount="indefinite" values="0.30980393;0.30980393"/>
      <animate attributeName="d" dur="2s" repeatCount="indefinite" values="M70.0 581.15 Q70.0 635.15 136.7 673.55 203.4 711.25 297.7 711.25 392.05 711.25 458.7 673.55 525.4 635.15 525.4 581.15 525.4 527.15 458.7 489.4 392.05 451.0 297.7 451.0 203.4 451.0 136.7 489.4 70.0 527.15 70.0 581.15;M258.0 285.0 Q258.0 289.15 270.8 292.1 283.6 295.0 301.7 295.0 319.8 295.0 332.6 292.1 345.4 289.15 345.4 285.0 345.4 280.85 332.6 277.95 319.8 275.0 301.7 275.0 283.6 275.0 270.8 277.95 258.0 280.85 258.0 285.0"/>
    </path>
    <path d="M70.0 581.15 Q70.0 527.15 136.7 489.4 203.4 451.0 297.7 451.0 392.05 451.0 458.7 489.4 525.4 527.15 525.4 581.15 525.4 635.15 458.7 673.55 392.05 711.25 297.7 711.25 203.4 711.25 136.7 673.55 70.0 635.15 70.0 581.15 Z" fill="none" stroke="#000000" stroke-linecap="round" stroke-linejoin="round" stroke-opacity="0.0" stroke-width="0.0">
      <animate attributeName="stroke" dur="2s" repeatCount="indefinite" values="#000000;#000001"/>
      <animate attributeName="stroke-width" dur="2s" repeatCount="indefinite" values="0.0;0.0"/>
      <animate attributeName="fill-opacity" dur="2s" repeatCount="indefinite" values="0.0;0.0"/>
      <animate attributeName="d" dur="2s" repeatCount="indefinite" values="M70.0 581.15 Q70.0 527.15 136.7 489.4 203.4 451.0 297.7 451.0 392.05 451.0 458.7 489.4 525.4 527.15 525.4 581.15 525.4 635.15 458.7 673.55 392.05 711.25 297.7 711.25 203.4 711.25 136.7 673.55 70.0 635.15 70.0 581.15 Z;M258.0 285.0 Q258.0 280.85 270.8 277.95 283.6 275.0 301.7 275.0 319.8 275.0 332.6 277.95 345.4 280.85 345.4 285.0 345.4 289.15 332.6 292.1 319.8 295.0 301.7 295.0 283.6 295.0 270.8 292.1 258.0 289.15 258.0 285.0 Z"/>
    </path>
  </g>
</svg>
