<?xml version="1.0" encoding="UTF-8" standalone="no"?>
<svg xmlns:ffdec="https://www.free-decompiler.com/flash" xmlns:xlink="http://www.w3.org/1999/xlink" ffdec:objectType="morphshape" height="30.0px" width="109.25px" xmlns="http://www.w3.org/2000/svg">
  <g transform="matrix(1.0, 0.0, 0.0, 1.0, -247.0, -275.0)">
    <path d="M258.0 285.0 Q258.0 289.15 270.8 292.1 283.6 295.0 301.7 295.0 319.8 295.0 332.6 292.1 345.4 289.15 345.4 285.0 345.4 280.85 332.6 277.95 319.8 275.0 301.7 275.0 283.6 275.0 270.8 277.95 258.0 280.85 258.0 285.0" fill="#000000" fill-opacity="0.30980393" fill-rule="evenodd" stroke="none">
      <animate attributeName="fill" dur="2s" repeatCount="indefinite" values="#000000;#000001"/>
      <animate attributeName="fill-opacity" dur="2s" repeatCount="indefinite" values="0.30980393;0.30980393"/>
      <animate attributeName="d" dur="2s" repeatCount="indefinite" values="M258.0 285.0 Q258.0 289.15 270.8 292.1 283.6 295.0 301.7 295.0 319.8 295.0 332.6 292.1 345.4 289.15 345.4 285.0 345.4 280.85 332.6 277.95 319.8 275.0 301.7 275.0 283.6 275.0 270.8 277.95 258.0 280.85 258.0 285.0;M247.0 292.5 Q247.0 297.7 262.95 301.35 278.95 305.0 301.6 305.0 324.25 305.0 340.25 301.35 356.25 297.7 356.25 292.5 356.25 287.3 340.25 283.7 324.25 280.0 301.6 280.0 278.95 280.0 262.95 283.7 247.0 287.3 247.0 292.5"/>
    </path>
    <path d="M258.0 285.0 Q258.0 280.85 270.8 277.95 283.6 275.0 301.7 275.0 319.8 275.0 332.6 277.95 345.4 280.85 345.4 285.0 345.4 289.15 332.6 292.1 319.8 295.0 301.7 295.0 283.6 295.0 270.8 292.1 258.0 289.15 258.0 285.0 Z" fill="none" stroke="#000000" stroke-linecap="round" stroke-linejoin="round" stroke-opacity="0.0" stroke-width="0.0">
      <animate attributeName="stroke" dur="2s" repeatCount="indefinite" values="#000000;#000001"/>
      <animate attributeName="stroke-width" dur="2s" repeatCount="indefinite" values="0.0;0.0"/>
      <animate attributeName="fill-opacity" dur="2s" repeatCount="indefinite" values="0.0;0.0"/>
      <animate attributeName="d" dur="2s" repeatCount="indefinite" values="M258.0 285.0 Q258.0 280.85 270.8 277.95 283.6 275.0 301.7 275.0 319.8 275.0 332.6 277.95 345.4 280.85 345.4 285.0 345.4 289.15 332.6 292.1 319.8 295.0 301.7 295.0 283.6 295.0 270.8 292.1 258.0 289.15 258.0 285.0 Z;M247.0 292.5 Q247.0 287.3 262.95 283.7 278.95 280.0 301.6 280.0 324.25 280.0 340.25 283.7 356.25 287.3 356.25 292.5 356.25 297.7 340.25 301.35 324.25 305.0 301.6 305.0 278.95 305.0 262.95 301.35 247.0 297.7 247.0 292.5 Z"/>
    </path>
  </g>
</svg>
