<?xml version="1.0" encoding="UTF-8" standalone="no"?>
<svg xmlns:ffdec="https://www.free-decompiler.com/flash" xmlns:xlink="http://www.w3.org/1999/xlink" ffdec:objectType="shape" height="55.0px" width="55.0px" xmlns="http://www.w3.org/2000/svg">
  <g transform="matrix(1.0, 0.0, 0.0, 1.0, 0.0, 0.0)">
    <path d="M44.95 44.95 Q52.2 37.75 52.25 27.5 52.2 17.2 44.95 9.95 37.75 2.75 27.5 2.75 17.2 2.75 9.95 9.95 2.75 17.2 2.75 27.5 2.75 37.75 9.95 44.95 17.2 52.2 27.5 52.25 37.75 52.2 44.95 44.95 M46.9 46.9 Q38.9 54.95 27.5 55.0 16.05 54.95 8.0 46.9 0.0 38.9 0.0 27.5 0.0 16.05 8.0 8.0 16.05 0.0 27.5 0.0 38.9 0.0 46.9 8.0 54.95 16.05 55.0 27.5 54.95 38.9 46.9 46.9" fill="#268000" fill-rule="evenodd" stroke="none"/>
    <path d="M44.95 44.95 Q37.75 52.2 27.5 52.25 17.2 52.2 9.95 44.95 2.75 37.75 2.75 27.5 2.75 17.2 9.95 9.95 17.2 2.75 27.5 2.75 37.75 2.75 44.95 9.95 52.2 17.2 52.25 27.5 52.2 37.75 44.95 44.95" fill="#3ac400" fill-rule="evenodd" stroke="none"/>
    <path d="M46.9 46.9 Q38.9 54.95 27.5 55.0 16.05 54.95 8.0 46.9 0.0 38.9 0.0 27.5 0.0 16.05 8.0 8.0 16.05 0.0 27.5 0.0 38.9 0.0 46.9 8.0 54.95 16.05 55.0 27.5 54.95 38.9 46.9 46.9 Z" fill="none" stroke="#000000" stroke-linecap="round" stroke-linejoin="round" stroke-width="0.05"/>
  </g>
</svg>
