<?xml version="1.0" encoding="UTF-8" standalone="no"?>
<svg xmlns:ffdec="https://www.free-decompiler.com/flash" xmlns:xlink="http://www.w3.org/1999/xlink" ffdec:objectType="shape" height="14.3px" width="10.6px" xmlns="http://www.w3.org/2000/svg">
  <g transform="matrix(1.0, 0.0, 0.0, 1.0, -1.7, -5.95)">
    <path d="M7.7 15.9 L7.85 16.25 7.85 19.25 7.7 19.6 7.35 19.75 3.75 19.75 3.4 19.6 3.25 19.25 3.25 16.25 Q3.25 16.05 3.4 15.9 3.55 15.75 3.75 15.75 L7.35 15.75 7.7 15.9 M11.8 10.4 L11.8 10.45 Q11.75 11.95 11.1 12.75 10.45 13.65 9.4 14.0 L7.7 14.3 7.7 14.9 7.55 15.25 7.2 15.4 3.85 15.4 3.5 15.25 3.35 14.9 3.35 11.75 3.5 11.4 Q3.65 11.25 3.85 11.25 L6.0 11.25 6.6 11.2 6.7 11.15 6.85 11.1 6.85 11.05 6.95 10.6 6.85 10.1 6.85 10.05 6.7 9.95 6.0 9.9 2.7 9.9 2.35 9.75 2.2 9.4 2.2 6.95 Q2.2 6.75 2.35 6.6 2.5 6.45 2.7 6.45 L6.15 6.45 9.0 6.8 Q10.3 7.1 11.05 8.0 11.75 8.85 11.8 10.4" fill="#000000" fill-rule="evenodd" stroke="none"/>
    <path d="M11.8 10.4 Q11.75 8.85 11.05 8.0 10.3 7.1 9.0 6.8 L6.15 6.45 2.7 6.45 Q2.5 6.45 2.35 6.6 2.2 6.75 2.2 6.95 L2.2 9.4 2.35 9.75 2.7 9.9 6.0 9.9 6.7 9.95 6.85 10.05 6.85 10.1 6.95 10.6 6.85 11.05 6.85 11.1 6.7 11.15 6.6 11.2 6.0 11.25 3.85 11.25 Q3.65 11.25 3.5 11.4 L3.35 11.75 3.35 14.9 3.5 15.25 3.85 15.4 7.2 15.4 7.55 15.25 7.7 14.9 7.7 14.3 9.4 14.0 Q10.45 13.65 11.1 12.75 11.75 11.95 11.8 10.45 L11.8 10.4 M7.7 15.9 L7.35 15.75 3.75 15.75 Q3.55 15.75 3.4 15.9 3.25 16.05 3.25 16.25 L3.25 19.25 3.4 19.6 3.75 19.75 7.35 19.75 7.7 19.6 7.85 19.25 7.85 16.25 7.7 15.9 Z" fill="none" stroke="#a79581" stroke-linecap="round" stroke-linejoin="round" stroke-width="1.0"/>
  </g>
</svg>
