<?xml version="1.0" encoding="UTF-8" standalone="no"?>
<svg xmlns:ffdec="https://www.free-decompiler.com/flash" xmlns:xlink="http://www.w3.org/1999/xlink" ffdec:objectType="shape" height="15.65px" width="13.85px" xmlns="http://www.w3.org/2000/svg">
  <g transform="matrix(1.0, 0.0, 0.0, 1.0, 0.0, -0.5)">
    <path d="M9.6 2.95 L9.75 2.8 10.0 2.8 10.15 2.95 Q12.25 8.0 10.2 13.7 L10.0 13.9 9.8 13.9 9.6 13.75 9.6 13.5 Q11.6 8.05 9.6 3.15 L9.6 2.95 M7.8 5.5 L7.95 5.35 8.15 5.35 8.35 5.5 Q9.65 8.35 8.35 11.15 L8.15 11.35 7.95 11.35 7.8 11.15 7.8 10.95 Q9.0 8.35 7.8 5.75 L7.8 5.5 M11.7 0.7 L11.9 0.55 12.1 0.55 12.25 0.7 Q15.5 8.3 12.25 15.95 L12.1 16.15 11.9 16.1 11.7 15.95 11.75 15.75 Q14.9 8.3 11.75 0.95 L11.7 0.7 M6.8 2.45 L6.8 13.8 3.0 10.45 0.0 10.45 0.0 6.25 3.0 6.25 6.8 2.45" fill="#2f2b24" fill-rule="evenodd" stroke="none"/>
  </g>
</svg>
