<?xml version="1.0" encoding="UTF-8" standalone="no"?>
<svg xmlns:ffdec="https://www.free-decompiler.com/flash" xmlns:xlink="http://www.w3.org/1999/xlink" ffdec:objectType="shape" height="174.55px" width="79.1px" xmlns="http://www.w3.org/2000/svg">
  <g transform="matrix(1.0, 0.0, 0.0, 1.0, 26.25, 131.3)">
    <path d="M28.8 -131.3 L34.3 -130.55 34.25 -130.55 Q44.15 -128.4 47.65 -118.7 51.0 -109.45 51.7 -99.55 L52.65 -80.3 Q52.9 -72.25 52.75 -64.15 L52.75 -64.1 52.2 -49.15 50.95 -32.35 Q50.2 -22.8 49.85 -13.2 49.6 -6.0 51.85 0.85 L51.8 1.4 51.7 1.55 52.85 1.8 52.8 2.1 52.5 3.3 52.35 3.55 52.0 4.05 51.7 4.55 51.05 5.15 50.7 5.3 50.6 5.5 50.7 5.65 49.8 5.45 49.6 5.8 48.8 7.5 47.35 10.65 Q45.55 15.2 43.25 19.35 L43.25 19.3 Q40.75 24.0 37.55 27.85 L33.25 32.35 33.25 32.4 28.75 36.4 Q25.1 39.15 21.05 40.7 16.8 42.35 12.4 42.9 7.5 43.45 2.65 43.15 L2.6 43.15 -3.9 42.05 Q-6.9 41.4 -9.75 40.3 -12.5 39.2 -14.9 37.6 L-19.35 34.2 Q-23.4 30.55 -25.0 25.1 -26.5 19.95 -26.2 14.6 -25.95 9.55 -24.95 4.6 L-23.95 -0.8 -25.2 -1.95 -25.45 -2.4 -25.35 -2.95 -24.95 -3.7 -24.8 -3.65 -24.7 -3.9 Q-21.35 -9.2 -20.9 -15.5 -20.3 -24.95 -17.65 -34.15 L-12.65 -51.15 -7.15 -68.1 -1.6 -83.2 Q1.55 -91.4 5.0 -99.45 7.85 -106.1 11.1 -112.55 L15.55 -121.45 15.55 -121.4 Q17.55 -125.5 21.0 -128.4 24.4 -131.25 28.8 -131.3 M37.05 -128.15 L33.95 -129.1 33.9 -129.1 28.8 -129.8 Q24.9 -129.75 21.95 -127.25 18.75 -124.6 16.9 -120.75 L12.45 -111.9 Q9.25 -105.5 6.4 -98.85 L-0.2 -82.65 -5.75 -67.6 -11.2 -50.7 -16.2 -33.75 Q-18.8 -24.65 -19.4 -15.4 -19.65 -11.85 -20.75 -8.6 L-22.2 -5.3 -23.3 -3.3 -22.55 -3.15 -22.5 -2.75 -21.0 -0.4 -20.9 -0.25 Q-17.75 2.55 -14.15 5.0 L-13.0 5.75 -10.85 6.85 -10.8 6.9 -7.25 8.6 Q-4.1 9.65 -0.8 10.3 L4.05 11.15 7.35 11.75 9.15 11.85 10.65 11.95 10.7 11.95 11.25 11.95 14.65 12.05 16.5 12.2 15.55 12.0 Q19.4 12.3 23.25 12.05 L23.5 12.05 29.7 11.45 31.05 11.3 31.85 11.15 Q35.7 10.55 39.35 9.35 L40.35 9.0 40.6 8.95 42.85 8.05 47.75 5.45 47.75 5.5 Q48.65 4.9 49.5 4.35 L49.8 4.2 50.05 3.9 50.35 3.65 50.3 3.55 51.15 2.1 50.9 1.8 50.75 1.75 50.4 1.3 Q48.1 -5.8 48.35 -13.25 48.7 -22.9 49.45 -32.45 L50.7 -49.25 51.25 -64.15 Q51.4 -72.25 51.15 -80.25 50.85 -89.85 50.2 -99.45 49.5 -109.15 46.25 -118.2 44.35 -123.5 40.4 -126.35 L37.05 -128.15 M-7.25 8.6 L-7.2 8.65 -7.25 8.6 M-15.0 6.35 L-15.65 5.9 -20.4 2.25 -20.35 2.7 -20.1 3.9 Q-16.85 6.05 -13.05 7.55 L-15.0 6.35 M2.1 12.3 L1.95 12.25 Q-4.9 10.6 -11.85 8.0 L-12.15 7.9 -14.0 14.95 -14.2 15.3 -14.2 15.65 -14.25 16.0 -14.3 16.25 -14.15 17.5 -14.15 17.55 Q-14.05 17.95 -13.55 18.1 L-13.45 18.15 -12.2 18.7 -12.1 18.75 Q-5.55 21.5 1.7 22.05 L1.8 22.05 3.65 12.8 3.7 12.75 2.5 12.4 2.3 12.35 2.1 12.3 M-12.65 17.0 L-12.5 16.15 -11.65 12.85 -11.25 11.95 -10.7 11.4 -10.4 11.05 -9.8 10.95 1.05 13.8 1.15 13.85 1.25 13.9 1.45 14.0 2.15 14.6 2.3 15.25 1.85 17.5 1.85 17.4 1.4 19.55 1.35 19.2 1.35 19.55 1.0 20.1 0.85 20.2 0.45 20.2 0.15 20.15 -8.95 18.6 -9.35 18.5 -9.45 18.45 -11.55 18.1 -11.5 18.15 -11.9 18.05 -12.45 17.7 -12.5 17.6 -12.65 17.35 -12.7 17.5 -12.65 17.0 M-15.0 12.5 L-14.0 8.6 -14.1 8.55 Q-16.7 7.45 -18.75 5.95 L-20.45 4.7 -20.75 5.55 -20.7 5.55 Q-21.25 7.15 -21.3 8.75 L-21.35 8.75 -21.35 10.25 -21.3 10.75 -21.3 10.95 -15.5 14.3 -15.0 12.5 M0.35 16.9 L0.65 15.35 0.6 15.35 -9.8 12.6 -9.85 12.75 -10.15 13.45 -10.65 15.3 -10.85 16.4 -10.85 16.55 -10.85 16.6 0.0 18.5 0.35 16.9 M-16.05 15.8 L-16.1 15.8 -21.1 12.9 -21.15 12.9 -21.85 12.5 -21.85 14.3 -22.4 14.2 -22.75 13.7 -22.75 13.65 -22.9 11.05 Q-23.15 7.75 -22.25 5.05 L-21.65 3.1 -21.6 2.9 -21.95 2.65 -22.3 0.6 -22.55 0.4 -23.35 4.9 -23.4 4.95 Q-24.35 9.75 -24.6 14.7 -24.85 19.8 -23.45 24.65 -22.55 27.65 -20.9 30.05 L-18.25 33.05 Q-16.3 34.8 -14.0 36.3 -11.7 37.75 -9.15 38.75 L-7.15 39.55 -3.55 40.5 0.7 41.25 2.75 41.55 2.8 41.55 12.2 41.3 Q16.4 40.75 20.45 39.2 24.3 37.75 27.75 35.15 L32.15 31.25 32.15 31.2 35.2 28.1 36.3 26.85 Q39.4 23.1 41.85 18.55 L41.85 18.5 41.95 18.4 40.35 19.9 40.3 19.95 Q37.75 21.9 34.45 21.8 L32.85 25.85 32.55 25.8 32.45 25.8 Q34.35 20.3 34.9 13.95 L34.9 13.85 34.95 13.55 Q35.0 13.25 35.3 13.1 L35.9 13.0 36.4 13.35 36.5 13.6 43.55 11.65 44.05 11.7 44.45 12.0 44.55 12.5 44.45 13.35 45.85 10.05 46.65 7.8 46.85 7.15 45.85 8.3 45.35 8.65 45.0 8.85 Q42.45 10.05 39.85 10.9 35.65 12.25 31.2 12.9 L31.2 12.85 23.4 13.65 23.35 13.65 21.55 13.75 17.45 13.85 16.35 13.8 15.4 13.8 13.6 13.65 13.6 13.6 13.7 13.6 13.6 13.6 12.9 13.6 7.5 13.4 5.25 12.95 5.2 13.15 4.95 14.3 12.0 14.05 13.5 14.25 12.0 22.8 12.0 22.9 11.9 23.35 11.75 24.2 11.65 24.2 Q11.35 24.15 11.15 23.9 L11.05 23.4 11.05 23.25 11.2 22.35 3.5 22.35 3.35 22.35 3.2 23.05 2.0 23.6 2.0 23.55 1.6 23.65 Q-5.75 23.1 -12.5 20.3 L-14.0 19.65 -14.15 19.6 -14.05 19.6 -14.2 19.55 -14.8 19.3 -15.05 19.1 Q-15.6 18.6 -15.7 17.9 L-15.85 16.7 -15.85 15.9 -16.05 15.8 M16.25 14.5 L23.4 14.85 24.45 14.2 25.3 14.15 28.2 14.0 28.25 14.0 31.85 13.8 32.0 13.7 33.55 13.65 33.55 13.75 33.3 14.65 33.25 14.7 33.25 14.8 33.25 14.9 Q32.3 20.7 29.4 24.95 L29.1 24.65 Q28.9 24.35 29.0 24.0 L29.65 21.8 29.6 21.8 25.45 22.05 16.0 22.65 16.0 22.85 15.95 22.85 15.9 23.3 15.9 23.35 15.9 23.4 15.6 25.2 15.25 25.7 14.65 25.85 14.4 25.75 16.25 14.5 M50.35 3.15 L50.75 2.7 50.3 3.5 50.35 3.15 M49.65 5.4 L49.65 5.55 49.75 5.45 49.65 5.4 M41.2 16.75 L41.25 16.75 41.45 16.4 Q42.35 15.05 42.75 13.55 L36.2 15.35 36.15 15.4 35.55 17.55 35.3 18.55 35.2 18.85 34.85 20.2 Q37.35 20.15 39.3 18.7 L39.35 18.65 41.2 16.75 M16.7 18.65 L16.3 21.0 29.5 20.2 30.05 20.4 Q30.9 19.6 31.3 18.6 31.75 17.2 31.4 15.45 L17.25 16.2 17.1 16.2 16.7 18.65 M11.95 18.5 L12.5 15.7 4.85 15.9 4.65 15.9 4.1 18.55 3.7 20.75 11.5 20.75 11.95 18.5" fill="#3e0000" fill-rule="evenodd" stroke="none"/>
    <path d="M-20.75 -8.6 Q-19.65 -11.85 -19.4 -15.4 -18.8 -24.65 -16.2 -33.75 L-11.2 -50.7 -5.75 -67.6 -0.2 -82.65 6.4 -98.85 Q9.25 -105.5 12.45 -111.9 L16.9 -120.75 Q18.75 -124.6 21.95 -127.25 24.9 -129.75 28.8 -129.8 L33.9 -129.1 33.95 -129.1 37.05 -128.15 Q39.3 -123.35 40.8 -112.55 42.4 -101.0 42.4 -91.4 L41.35 -36.6 Q41.65 -29.55 41.4 -28.1 L38.0 -16.9 Q37.1 -13.9 32.3 -8.15 31.95 -7.75 25.25 -5.45 19.25 -3.4 19.25 -1.5 19.25 -0.7 19.55 -0.55 L20.65 -0.5 38.1 -2.4 Q36.2 0.8 27.55 4.15 19.2 7.4 13.85 7.4 -1.05 7.4 -18.35 -6.6 L-20.75 -8.6 M-12.6 -13.5 L-13.25 -13.5 -13.4 -13.25 Q-10.95 -8.3 -8.4 -7.1 L-8.05 -7.4 Q-11.75 -13.5 -12.6 -13.5 M-11.9 -26.5 L-12.5 -26.35 Q-11.7 -24.95 -10.25 -21.1 -8.9 -17.3 -7.55 -15.1 -3.1 -7.8 8.0 -3.8 0.15 -8.55 -6.65 -18.0 -10.0 -22.7 -11.9 -26.5 M25.05 -2.8 L24.6 -2.85 25.1 -2.85 25.05 -2.8" fill="#cc0000" fill-rule="evenodd" stroke="none"/>
    <path d="M37.05 -128.15 L40.4 -126.35 Q44.35 -123.5 46.25 -118.2 49.5 -109.15 50.2 -99.45 50.85 -89.85 51.15 -80.25 51.4 -72.25 51.25 -64.15 L50.7 -49.25 49.45 -32.45 Q48.7 -22.9 48.35 -13.25 48.1 -5.8 50.4 1.3 L50.75 1.75 50.9 1.8 51.15 2.1 50.3 3.55 50.35 3.65 50.05 3.9 49.8 4.2 49.5 4.35 Q48.65 4.9 47.75 5.5 L47.75 5.45 42.85 8.05 40.6 8.95 40.35 9.0 39.35 9.35 Q35.7 10.55 31.85 11.15 L31.05 11.3 29.7 11.45 23.5 12.05 23.25 12.05 Q19.4 12.3 15.55 12.0 L16.5 12.2 14.65 12.05 11.25 11.95 10.7 11.95 10.65 11.95 9.15 11.85 7.35 11.75 4.05 11.15 -0.8 10.3 Q-4.1 9.65 -7.25 8.6 L-10.8 6.9 -10.85 6.85 -13.0 5.75 -14.15 5.0 Q-17.75 2.55 -20.9 -0.25 L-21.0 -0.4 -22.5 -2.75 -22.55 -3.15 -23.3 -3.3 -22.2 -5.3 -20.75 -8.6 -18.35 -6.6 Q-1.05 7.4 13.85 7.4 19.2 7.4 27.55 4.15 36.2 0.8 38.1 -2.4 L20.65 -0.5 19.55 -0.55 Q19.25 -0.7 19.25 -1.5 19.25 -3.4 25.25 -5.45 31.95 -7.75 32.3 -8.15 37.1 -13.9 38.0 -16.9 L41.4 -28.1 Q41.65 -29.55 41.35 -36.6 L42.4 -91.4 Q42.4 -101.0 40.8 -112.55 39.3 -123.35 37.05 -128.15 M25.05 -2.8 L25.1 -2.85 24.6 -2.85 25.05 -2.8 M-11.9 -26.5 Q-10.0 -22.7 -6.65 -18.0 0.15 -8.55 8.0 -3.8 -3.1 -7.8 -7.55 -15.1 -8.9 -17.3 -10.25 -21.1 -11.7 -24.95 -12.5 -26.35 L-11.9 -26.5 M-12.6 -13.5 Q-11.75 -13.5 -8.05 -7.4 L-8.4 -7.1 Q-10.95 -8.3 -13.4 -13.25 L-13.25 -13.5 -12.6 -13.5 M50.35 3.15 L50.3 3.5 50.75 2.7 50.35 3.15" fill="#aa0000" fill-rule="evenodd" stroke="none"/>
    <path d="M-15.0 6.35 L-13.05 7.55 Q-16.85 6.05 -20.1 3.9 L-20.35 2.7 -20.4 2.25 -15.65 5.9 -15.0 6.35 M-21.15 12.9 L-21.1 12.9 -16.1 15.8 -16.05 15.8 -15.9 15.9 -15.85 15.9 -15.85 16.7 -21.6 13.2 -21.25 12.9 -21.15 12.9 M-14.0 19.65 L-13.65 19.85 Q-13.0 20.4 -12.5 20.45 L-12.5 20.3 Q-5.75 23.1 1.6 23.65 L2.0 23.55 2.0 23.6 3.2 23.05 3.35 22.35 3.5 22.35 11.2 22.35 11.05 23.25 11.05 23.4 4.05 23.2 Q3.9 24.1 3.3 24.35 L-1.95 24.7 Q-5.15 24.7 -9.95 22.75 -14.8 20.75 -15.05 19.1 L-14.8 19.3 -14.2 19.55 -14.05 19.6 -14.15 19.6 -14.0 19.65 M-10.3 21.9 L-9.5 22.2 Q-9.9 21.65 -10.45 21.8 L-10.3 21.9 M-20.9 30.05 L-21.6 28.95 -18.15 31.2 Q-9.35 36.5 1.1 36.4 19.95 32.85 23.85 26.1 24.85 24.35 25.45 22.05 L29.6 21.8 29.65 21.8 29.0 24.0 Q28.9 24.35 29.1 24.65 L29.4 24.95 Q32.3 20.7 33.25 14.9 L33.25 14.8 33.25 14.7 33.3 14.65 33.55 13.75 33.55 13.65 32.0 13.7 31.85 13.8 28.25 14.0 28.2 14.0 25.3 14.15 24.65 14.1 24.45 14.2 23.4 14.85 16.25 14.5 13.5 14.25 12.0 14.05 7.5 13.4 12.9 13.6 13.6 13.6 13.7 13.6 13.6 13.6 13.6 13.65 15.4 13.8 16.35 13.8 17.45 13.85 21.55 13.75 23.35 13.65 23.4 13.65 31.2 12.85 31.2 12.9 Q35.65 12.25 39.85 10.9 42.45 10.05 45.0 8.85 L45.35 8.65 45.85 8.3 46.85 7.15 46.65 7.8 45.85 10.05 44.45 13.35 44.55 12.5 44.45 12.0 44.05 11.7 43.55 11.65 36.5 13.6 36.4 13.35 35.9 13.0 35.3 13.1 Q35.0 13.25 34.95 13.55 L34.9 13.85 34.9 13.95 Q34.35 20.3 32.45 25.8 L32.55 25.8 32.85 25.85 34.45 21.8 Q37.75 21.9 40.3 19.95 L40.35 19.9 41.95 18.4 41.85 18.5 41.85 18.55 Q39.4 23.1 36.3 26.85 L35.2 28.1 32.15 31.2 32.15 31.25 27.75 35.15 Q24.3 37.75 20.45 39.2 16.4 40.75 12.2 41.3 L2.8 41.55 2.75 41.55 0.7 41.25 -3.55 40.5 -3.5 40.15 -7.15 39.55 -9.15 38.75 Q-11.7 37.75 -14.0 36.3 -16.3 34.8 -18.25 33.05 L-20.9 30.05 M16.0 22.85 L17.85 22.65 20.65 22.35 25.1 22.1 25.4 22.1 25.15 22.95 16.65 23.7 Q16.05 23.7 15.9 23.4 L15.9 23.35 15.9 23.3 15.95 22.85 16.0 22.85 M12.0 22.8 L12.3 23.0 11.9 23.35 12.0 22.9 12.0 22.8" fill="#23458b" fill-rule="evenodd" stroke="none"/>
    <path d="M-15.0 12.5 L-15.5 14.3 -21.3 10.95 -21.3 10.75 -21.35 10.25 -21.35 8.75 -21.3 8.75 Q-19.95 9.3 -17.95 10.55 L-15.0 12.5 M0.35 16.9 L0.0 18.5 -10.85 16.6 -10.85 16.55 -10.85 16.4 -10.65 15.3 Q-6.85 15.35 0.35 16.9 M41.2 16.75 L39.35 18.65 39.3 18.7 Q37.35 20.15 34.85 20.2 L35.2 18.85 36.05 18.55 36.2 18.5 35.3 18.55 35.55 17.55 41.25 16.2 41.45 16.4 41.25 16.75 41.2 16.75 41.0 16.8 41.2 16.75 M31.3 18.6 Q30.9 19.6 30.05 20.4 L29.5 20.2 16.3 21.0 16.7 18.65 24.7 18.25 31.3 18.6 M4.1 18.55 Q5.65 18.4 9.25 18.5 L8.75 18.5 11.95 18.5 11.5 20.75 3.7 20.75 4.1 18.55 M17.2 19.7 L17.1 19.75 17.75 19.6 17.7 19.6 17.2 19.7" fill="#530000" fill-rule="evenodd" stroke="none"/>
    <path d="M-21.3 8.75 Q-21.25 7.15 -20.7 5.55 L-20.75 5.55 -20.45 4.7 -18.75 5.95 Q-16.7 7.45 -14.1 8.55 L-14.0 8.6 -15.0 12.5 -17.95 10.55 Q-19.95 9.3 -21.3 8.75 M-10.65 15.3 L-10.15 13.45 -9.85 12.75 -9.8 12.6 0.6 15.35 0.65 15.35 0.35 16.9 Q-6.85 15.35 -10.65 15.3 M41.25 16.75 L41.2 16.75 41.0 16.8 41.2 16.75 41.25 16.75 M35.2 18.85 L35.3 18.55 36.2 18.5 36.05 18.55 35.2 18.85 M35.55 17.55 L36.15 15.4 36.2 15.35 42.75 13.55 Q42.35 15.05 41.45 16.4 L41.25 16.2 35.55 17.55 M16.7 18.65 L17.1 16.2 17.25 16.2 31.4 15.45 Q31.75 17.2 31.3 18.6 L24.7 18.25 16.7 18.65 M11.95 18.5 L8.75 18.5 9.25 18.5 Q5.65 18.4 4.1 18.55 L4.65 15.9 4.85 15.9 12.5 15.7 11.95 18.5 M17.2 19.7 L17.7 19.6 17.75 19.6 17.1 19.75 17.2 19.7" fill="#660000" fill-rule="evenodd" stroke="none"/>
    <path d="M-21.15 12.9 L-21.25 12.9 -21.6 13.2 -15.85 16.7 -15.7 17.9 Q-15.6 18.6 -15.05 19.1 -14.8 20.75 -9.95 22.75 -5.15 24.7 -1.95 24.7 L3.3 24.35 Q3.9 24.1 4.05 23.2 L11.05 23.4 11.15 23.9 Q11.35 24.15 11.65 24.2 L11.75 24.2 11.9 23.35 12.3 23.0 12.0 22.8 13.5 14.25 16.25 14.5 14.4 25.75 14.65 25.85 15.25 25.7 15.6 25.2 15.9 23.4 Q16.05 23.7 16.65 23.7 L25.15 22.95 25.4 22.1 25.1 22.1 20.65 22.35 17.85 22.65 16.0 22.85 16.0 22.65 25.45 22.05 Q24.85 24.35 23.85 26.1 19.95 32.85 1.1 36.4 -9.35 36.5 -18.15 31.2 L-21.6 28.95 -20.9 30.05 Q-22.55 27.65 -23.45 24.65 -24.85 19.8 -24.6 14.7 -24.35 9.75 -23.4 4.95 L-23.35 4.9 -22.55 0.4 -22.3 0.6 -21.95 2.65 -21.6 2.9 -21.65 3.1 -22.25 5.05 Q-23.15 7.75 -22.9 11.05 L-22.75 13.65 -22.75 13.7 -22.4 14.2 -21.85 14.3 -21.85 12.5 -21.15 12.9 M-15.85 15.9 L-15.9 15.9 -16.05 15.8 -15.85 15.9 M-12.5 20.3 L-12.5 20.45 Q-13.0 20.4 -13.65 19.85 L-14.0 19.65 -12.5 20.3 M-10.3 21.9 L-10.45 21.8 Q-9.9 21.65 -9.5 22.2 L-10.3 21.9 M-7.15 39.55 L-3.5 40.15 -3.55 40.5 -7.15 39.55 M7.5 13.4 L12.0 14.05 4.95 14.3 5.2 13.15 5.25 12.95 7.5 13.4 M24.45 14.2 L24.65 14.1 25.3 14.15 24.45 14.2" fill="#2c57b1" fill-rule="evenodd" stroke="none"/>
    <path d="M-14.25 16.0 L-14.2 15.65 -14.2 15.3 -14.0 14.95 -12.15 7.9 -11.85 8.0 Q-4.9 10.6 1.95 12.25 L2.1 12.3 2.2 13.45 2.15 14.6 1.45 14.0 1.25 13.9 1.15 13.85 1.05 13.8 -9.8 10.95 -10.4 11.05 -10.7 11.4 -11.25 11.95 -11.65 12.85 -12.5 16.15 -12.65 17.0 -14.25 16.0 M-8.95 18.6 L-8.95 18.65 -9.35 18.5 -8.95 18.6 M1.35 19.55 L1.35 19.2 1.4 19.55 1.35 19.55" fill="#cc9900" fill-rule="evenodd" stroke="none"/>
    <path d="M2.1 12.3 L2.3 12.35 2.5 12.4 3.7 12.75 3.65 12.8 1.8 22.05 1.7 22.05 Q-5.55 21.5 -12.1 18.75 L-12.2 18.7 -13.45 18.15 -13.55 18.1 Q-14.05 17.95 -14.15 17.55 L-14.15 17.5 -14.3 16.25 -14.25 16.0 -12.65 17.0 -12.7 17.5 -12.65 17.35 -12.5 17.6 -12.45 17.7 -11.9 18.05 -11.5 18.15 -11.55 18.1 -9.45 18.45 -9.35 18.5 -8.95 18.65 -8.95 18.6 0.15 20.15 0.45 20.2 0.85 20.2 1.0 20.1 1.35 19.55 1.4 19.55 1.85 17.4 1.85 17.5 2.3 15.25 2.15 14.6 2.2 13.45 2.1 12.3" fill="#996600" fill-rule="evenodd" stroke="none"/>
    <path d="M29.55 -125.6 L30.0 -127.05 30.0 -127.1 30.85 -126.7 Q28.35 -110.5 27.45 -107.65 L26.3 -108.0 27.8 -116.9 29.3 -124.55 29.45 -125.25 29.55 -125.6 M27.0 -125.1 Q27.45 -124.8 27.2 -123.15 L27.05 -122.25 Q26.15 -118.45 22.55 -109.5 L22.45 -109.3 22.4 -109.2 21.75 -109.4 Q23.05 -114.25 26.5 -125.1 L27.0 -125.1 M25.7 -107.1 L21.3 -107.65 21.7 -109.25 22.25 -109.1 22.5 -108.9 22.55 -108.95 Q23.15 -109.6 25.85 -107.95 L25.95 -107.9 25.7 -107.1" fill="#930000" fill-rule="evenodd" stroke="none"/>
    <path d="M29.55 -125.6 L29.45 -125.25 29.3 -124.55 27.8 -116.9 26.3 -108.0 26.15 -107.95 26.0 -107.95 25.85 -107.95 Q23.15 -109.6 22.55 -108.95 L22.4 -109.2 Q22.15 -109.2 22.25 -109.1 L21.7 -109.25 21.75 -109.35 21.75 -109.4 22.4 -109.2 22.45 -109.3 22.55 -109.5 Q23.65 -110.7 25.9 -109.95 L27.45 -117.6 Q28.75 -124.3 29.25 -125.2 L29.55 -125.6 M30.85 -126.7 L30.0 -127.1 30.15 -127.4 30.35 -127.8 30.6 -128.25 31.05 -128.15 31.1 -128.05 30.85 -126.7 M27.0 -125.1 L26.5 -125.1 26.95 -125.15 27.0 -125.1" fill="#aa0000" fill-rule="evenodd" stroke="none"/>
    <path d="M30.0 -127.1 L30.0 -127.05 29.55 -125.6 29.25 -125.2 Q28.75 -124.3 27.45 -117.6 L25.9 -109.95 Q23.65 -110.7 22.55 -109.5 26.15 -118.45 27.05 -122.25 L27.2 -123.15 Q27.45 -124.8 27.0 -125.1 28.65 -127.8 30.35 -127.8 L30.15 -127.4 30.0 -127.1 M25.85 -107.95 L26.0 -107.95 26.15 -107.95 25.95 -107.9 25.85 -107.95" fill="#cc0000" fill-rule="evenodd" stroke="none"/>
    <path d="M26.3 -108.0 L27.45 -107.65 27.45 -107.6 27.4 -107.5 27.25 -107.2 Q26.9 -106.6 26.05 -106.95 L25.95 -107.0 25.9 -107.05 25.7 -107.1 25.95 -107.9 26.15 -107.95 26.3 -108.0" fill="#9b0000" fill-rule="evenodd" stroke="none"/>
    <path d="M27.2 -120.6 Q29.25 -119.5 28.0 -117.3 27.4 -116.25 26.1 -116.95 24.25 -117.95 25.55 -119.25 26.45 -121.0 27.2 -120.6 M27.2 -119.75 L26.85 -119.95 Q26.6 -120.05 26.1 -119.1 25.45 -117.9 25.9 -117.65 L26.3 -117.5 27.2 -117.25 27.45 -117.6 Q28.15 -119.0 27.2 -119.75 M23.35 -111.8 L23.35 -111.75 23.5 -111.55 23.6 -111.5 Q25.6 -110.45 26.1 -111.3 L25.9 -112.5 25.35 -113.65 25.15 -113.8 Q24.55 -114.1 23.65 -113.15 23.15 -112.25 23.35 -111.8 M24.35 -114.15 L25.7 -114.35 Q26.9 -113.7 26.55 -111.0 25.85 -109.65 23.35 -110.95 22.65 -111.35 23.25 -113.4 23.45 -113.8 24.35 -114.15" fill="#930000" fill-rule="evenodd" stroke="none"/>
    <path d="M26.3 -117.5 L26.85 -118.0 26.5 -119.15 27.2 -119.75 Q28.15 -119.0 27.45 -117.6 L27.2 -117.25 26.3 -117.5 M25.35 -113.65 L25.9 -112.5 26.1 -111.3 Q25.6 -110.45 23.6 -111.5 L23.5 -111.55 23.35 -111.75 23.35 -111.8 24.1 -112.15 Q24.8 -112.4 25.4 -112.15 24.85 -113.05 25.1 -113.55 L25.35 -113.65" fill="#aa0000" fill-rule="evenodd" stroke="none"/>
  </g>
</svg>
