<?xml version="1.0" encoding="UTF-8" standalone="no"?>
<svg xmlns:ffdec="https://www.free-decompiler.com/flash" xmlns:xlink="http://www.w3.org/1999/xlink" ffdec:objectType="shape" height="168.15px" width="95.65px" xmlns="http://www.w3.org/2000/svg">
  <g transform="matrix(1.0, 0.0, 0.0, 1.0, 26.25, 124.9)">
    <path d="M10.35 -99.55 L17.4 -105.8 22.65 -109.75 Q26.1 -112.3 29.65 -114.5 L40.1 -120.4 46.4 -123.75 46.5 -123.75 47.8 -124.35 48.25 -124.35 Q48.45 -124.6 48.75 -124.65 L59.0 -124.35 Q62.3 -123.75 65.2 -122.05 L65.25 -122.05 Q67.3 -120.75 68.25 -118.55 L68.25 -118.5 Q69.4 -115.9 69.4 -112.95 L69.4 -112.9 Q69.25 -107.65 67.25 -102.85 L63.8 -94.05 60.55 -85.8 57.2 -77.05 54.55 -69.45 Q52.95 -64.7 51.7 -59.95 50.4 -55.05 50.05 -49.85 L49.75 -45.25 49.5 -40.2 49.4 -31.5 49.4 -31.45 49.75 -21.65 50.1 -14.45 50.5 -3.95 50.65 -0.9 51.0 -0.65 52.65 1.35 52.85 1.7 52.8 2.1 52.5 3.3 52.35 3.55 52.0 4.05 51.7 4.55 51.05 5.15 50.7 5.3 50.6 5.5 50.7 5.65 49.8 5.45 49.6 5.8 48.8 7.5 47.35 10.65 Q45.55 15.2 43.25 19.35 L43.25 19.3 Q40.75 24.0 37.55 27.85 L33.25 32.35 33.25 32.4 28.75 36.4 Q25.1 39.15 21.05 40.7 16.8 42.35 12.4 42.9 7.5 43.45 2.65 43.15 L2.6 43.15 -3.9 42.05 Q-6.9 41.4 -9.75 40.3 -12.5 39.2 -14.9 37.6 L-19.35 34.2 Q-23.4 30.55 -25.0 25.1 -26.5 19.95 -26.2 14.6 -25.95 9.55 -24.95 4.6 L-23.95 -0.8 -25.2 -1.95 -25.45 -2.4 -25.35 -2.95 Q-24.2 -5.05 -23.7 -7.2 -23.05 -10.7 -22.95 -14.25 L-22.55 -21.85 -21.6 -29.65 -20.2 -37.75 -18.15 -46.7 -15.7 -55.25 -12.9 -63.15 -9.8 -70.65 -9.75 -70.65 -6.3 -77.55 -2.55 -84.0 1.55 -89.85 Q5.4 -95.1 10.35 -99.55 M63.2 -121.3 Q61.05 -122.35 58.75 -122.75 L58.7 -122.8 55.95 -123.2 55.35 -123.2 54.0 -123.3 52.8 -123.3 52.45 -123.3 48.95 -123.05 48.75 -123.05 48.4 -122.85 47.15 -122.35 40.85 -118.95 30.5 -113.1 Q27.0 -110.95 23.6 -108.45 L18.4 -104.55 11.4 -98.4 11.4 -98.35 Q6.6 -94.0 2.85 -88.9 0.7 -86.1 -1.35 -82.65 -3.4 -79.25 -5.65 -74.4 L-8.65 -67.8 -10.7 -62.0 -14.5 -51.0 Q-16.85 -43.95 -17.05 -41.75 -17.3 -39.6 -18.5 -34.2 -19.7 -28.8 -20.9 -16.9 L-21.45 -12.4 Q-21.65 -9.6 -22.15 -6.9 L-22.4 -5.35 -22.5 -4.6 -22.55 -3.4 -22.5 -2.75 -21.0 -0.4 -20.9 -0.25 Q-17.75 2.55 -14.15 5.0 L-13.0 5.75 -10.85 6.85 -10.8 6.9 -7.25 8.6 -7.2 8.65 -7.25 8.6 Q-4.1 9.65 -0.8 10.3 L4.05 11.15 7.35 11.75 9.15 11.85 10.65 11.95 10.7 11.95 11.25 11.95 14.65 12.05 16.5 12.2 15.55 12.0 Q19.4 12.3 23.25 12.05 L23.5 12.05 29.7 11.45 31.05 11.3 31.85 11.15 Q35.7 10.55 39.35 9.35 L40.35 9.0 40.6 8.95 42.85 8.05 47.75 5.45 47.75 5.5 Q48.65 4.9 49.5 4.35 L49.8 4.2 50.05 3.9 50.35 3.65 50.3 3.55 51.15 2.1 49.75 0.4 49.55 0.0 49.2 -0.8 48.35 -2.95 48.3 -3.05 48.3 -3.1 48.25 -3.2 47.5 -5.3 47.85 -5.2 47.9 -5.15 47.1 -6.7 46.85 -7.15 47.15 -6.7 47.25 -6.55 47.3 -6.5 47.55 -6.2 Q48.15 -5.55 48.15 -7.0 L48.2 -13.8 48.1 -21.55 47.85 -31.45 47.85 -40.25 48.15 -45.4 48.4 -49.95 Q48.8 -55.35 50.15 -60.4 51.4 -65.2 53.05 -70.0 L55.65 -77.6 59.0 -86.4 62.25 -94.65 65.75 -103.45 65.8 -103.45 Q67.65 -108.05 67.8 -113.0 L67.8 -112.95 Q67.85 -115.55 66.8 -117.9 L66.75 -117.9 Q66.0 -119.65 64.4 -120.65 L64.45 -120.65 64.4 -120.7 63.75 -121.0 63.2 -121.3 M50.35 3.15 L50.75 2.7 50.3 3.5 50.35 3.15 M49.75 5.45 L49.65 5.4 49.65 5.55 49.75 5.45 M-3.55 40.5 L0.7 41.25 2.75 41.55 2.8 41.55 12.2 41.3 Q16.4 40.75 20.45 39.2 24.3 37.75 27.75 35.15 L32.15 31.25 32.15 31.2 35.2 28.1 36.3 26.85 Q39.4 23.1 41.85 18.55 L41.85 18.5 41.95 18.4 40.35 19.9 40.3 19.95 Q37.75 21.9 34.45 21.8 L32.85 25.85 32.55 25.8 32.45 25.8 Q34.35 20.3 34.9 13.95 L34.9 13.85 34.95 13.55 Q35.0 13.25 35.3 13.1 L35.9 13.0 36.4 13.35 36.5 13.6 43.55 11.65 44.05 11.7 44.45 12.0 44.55 12.5 44.45 13.35 45.85 10.05 46.65 7.8 46.85 7.15 45.85 8.3 45.35 8.65 45.0 8.85 Q42.45 10.05 39.85 10.9 35.65 12.25 31.2 12.9 L31.2 12.85 23.4 13.65 23.35 13.65 21.55 13.75 17.45 13.85 16.35 13.8 15.4 13.8 13.6 13.65 13.6 13.6 13.7 13.6 13.6 13.6 12.9 13.6 7.5 13.4 5.25 12.95 5.2 13.15 4.95 14.3 12.0 14.05 13.5 14.25 12.0 22.8 12.0 22.9 11.9 23.35 11.75 24.2 11.65 24.2 Q11.35 24.15 11.15 23.9 L11.05 23.4 11.05 23.25 11.2 22.35 3.5 22.35 3.35 22.35 3.2 23.05 2.0 23.6 2.0 23.55 1.6 23.65 Q-5.75 23.1 -12.5 20.3 L-14.0 19.65 -14.15 19.6 -14.05 19.6 -14.2 19.55 -14.8 19.3 -15.05 19.1 Q-15.6 18.6 -15.7 17.9 L-15.85 16.7 -15.85 15.9 -16.05 15.8 -16.1 15.8 -21.1 12.9 -21.15 12.9 -21.85 12.5 -21.85 14.3 -22.4 14.2 -22.75 13.7 -22.75 13.65 -22.9 11.05 Q-23.15 7.75 -22.25 5.05 L-21.65 3.1 -21.6 2.9 -21.95 2.65 -22.3 0.6 -22.55 0.4 -23.35 4.9 -23.4 4.95 Q-24.35 9.75 -24.6 14.7 -24.85 19.8 -23.45 24.65 -22.55 27.65 -20.9 30.05 L-18.25 33.05 Q-16.3 34.8 -14.0 36.3 -11.7 37.75 -9.15 38.75 L-7.15 39.55 -3.55 40.5 M16.25 14.5 L23.4 14.85 24.45 14.2 25.3 14.15 28.2 14.0 28.25 14.0 31.85 13.8 32.0 13.7 33.55 13.65 33.55 13.75 33.3 14.65 33.25 14.7 33.25 14.8 33.25 14.9 Q32.3 20.7 29.4 24.95 L29.1 24.65 Q28.9 24.35 29.0 24.0 L29.65 21.8 29.6 21.8 25.45 22.05 16.0 22.65 16.0 22.85 15.95 22.85 15.9 23.3 15.9 23.35 15.9 23.4 15.6 25.2 15.25 25.7 14.65 25.85 14.4 25.75 16.25 14.5 M41.2 16.75 L41.25 16.75 41.45 16.4 Q42.35 15.05 42.75 13.55 L36.2 15.35 36.15 15.4 35.55 17.55 35.3 18.55 35.2 18.85 34.85 20.2 Q37.35 20.15 39.3 18.7 L39.35 18.65 41.2 16.75 M16.7 18.65 L16.3 21.0 29.5 20.2 30.05 20.4 Q30.9 19.6 31.3 18.6 31.75 17.2 31.4 15.45 L17.25 16.2 17.1 16.2 16.7 18.65 M-14.25 16.0 L-14.3 16.25 -14.15 17.5 -14.15 17.55 Q-14.05 17.95 -13.55 18.1 L-13.45 18.15 -12.2 18.7 -12.1 18.75 Q-5.55 21.5 1.7 22.05 L1.8 22.05 3.65 12.8 3.7 12.75 2.5 12.4 2.3 12.35 2.1 12.3 1.95 12.25 Q-4.9 10.6 -11.85 8.0 L-12.15 7.9 -14.0 14.95 -14.2 15.3 -14.2 15.65 -14.25 16.0 M2.15 14.6 L2.3 15.25 1.85 17.5 1.85 17.4 1.4 19.55 1.35 19.2 1.35 19.55 1.0 20.1 0.85 20.2 0.45 20.2 0.15 20.15 -8.95 18.6 -9.35 18.5 -9.45 18.45 -11.55 18.1 -11.5 18.15 -11.9 18.05 -12.45 17.7 -12.5 17.6 -12.65 17.35 -12.7 17.5 -12.65 17.0 -12.5 16.15 -11.65 12.85 -11.25 11.95 -10.7 11.4 -10.4 11.05 -9.8 10.95 1.05 13.8 1.15 13.85 1.25 13.9 1.45 14.0 2.15 14.6 M11.95 18.5 L12.5 15.7 4.85 15.9 4.65 15.9 4.1 18.55 3.7 20.75 11.5 20.75 11.95 18.5 M0.35 16.9 L0.65 15.35 0.6 15.35 -9.8 12.6 -9.85 12.75 -10.15 13.45 -10.65 15.3 -10.85 16.4 -10.85 16.55 -10.85 16.6 0.0 18.5 0.35 16.9 M-15.0 12.5 L-14.0 8.6 -14.1 8.55 Q-16.7 7.45 -18.75 5.95 L-20.45 4.7 -20.75 5.55 -20.7 5.55 Q-21.25 7.15 -21.3 8.75 L-21.35 8.75 -21.35 10.25 -21.3 10.75 -21.3 10.95 -15.5 14.3 -15.0 12.5 M-15.0 6.35 L-15.65 5.9 -20.4 2.25 -20.35 2.7 -20.1 3.9 Q-16.85 6.05 -13.05 7.55 L-15.0 6.35" fill="#3e0000" fill-rule="evenodd" stroke="none"/>
    <path d="M-22.4 -5.35 Q-19.3 -3.15 -15.8 -1.0 0.75 9.25 12.5 9.25 22.7 9.25 28.3 7.5 32.85 6.05 32.85 4.25 32.85 0.7 25.65 -0.3 18.85 2.1 14.45 1.2 L13.4 0.55 13.65 0.25 Q17.05 -0.05 23.65 -2.1 L26.95 -4.95 Q31.25 -9.15 31.25 -13.2 31.25 -15.45 29.8 -23.7 L28.75 -34.0 Q28.75 -43.4 32.1 -54.45 35.8 -66.55 41.75 -73.9 44.3 -77.2 53.25 -92.15 64.0 -110.05 64.0 -113.75 64.0 -115.55 63.1 -121.35 L63.2 -121.3 63.75 -121.0 64.4 -120.7 64.45 -120.65 64.4 -120.65 Q66.0 -119.65 66.75 -117.9 L66.8 -117.9 Q67.85 -115.55 67.8 -112.95 L67.8 -113.0 Q67.65 -108.05 65.8 -103.45 L65.75 -103.45 62.25 -94.65 59.0 -86.4 55.65 -77.6 53.05 -70.0 Q51.4 -65.2 50.15 -60.4 48.8 -55.35 48.4 -49.95 L48.15 -45.4 47.85 -40.25 47.85 -31.45 48.1 -21.55 48.2 -13.8 48.15 -7.0 Q48.15 -5.55 47.55 -6.2 L47.3 -6.5 47.25 -6.55 47.15 -6.7 46.85 -7.15 47.1 -6.7 47.9 -5.15 47.85 -5.2 47.5 -5.3 48.25 -3.2 48.3 -3.1 48.3 -3.05 48.35 -2.95 49.2 -0.8 49.55 0.0 49.75 0.4 51.15 2.1 50.3 3.55 50.35 3.65 50.05 3.9 49.8 4.2 49.5 4.35 Q48.65 4.9 47.75 5.5 L47.75 5.45 42.85 8.05 40.6 8.95 40.35 9.0 39.35 9.35 Q35.7 10.55 31.85 11.15 L31.05 11.3 29.7 11.45 23.5 12.05 23.25 12.05 Q19.4 12.3 15.55 12.0 L16.5 12.2 14.65 12.05 11.25 11.95 10.7 11.95 10.65 11.95 9.15 11.85 7.35 11.75 4.05 11.15 -0.8 10.3 Q-4.1 9.65 -7.25 8.6 L-7.2 8.65 -7.25 8.6 -10.8 6.9 -10.85 6.85 -13.0 5.75 -14.15 5.0 Q-17.75 2.55 -20.9 -0.25 L-21.0 -0.4 -22.5 -2.75 -22.55 -3.4 -22.5 -4.6 -22.4 -5.35 M1.8 -3.15 Q2.05 -3.0 1.4 -3.0 -1.5 -3.0 -6.55 -7.3 -11.35 -11.45 -13.4 -15.25 -16.05 -20.05 -17.75 -28.0 L-17.25 -28.0 Q-13.35 -17.45 -12.25 -15.6 -7.8 -8.25 1.9 -3.75 L1.8 -3.15 M50.35 3.15 L50.3 3.5 50.75 2.7 50.35 3.15 M-20.55 -12.5 Q-18.75 -8.05 -18.05 -7.1 -18.25 -6.95 -18.5 -6.85 L-19.6 -8.4 Q-20.5 -9.55 -21.05 -9.25 -21.4 -9.4 -21.4 -10.15 L-21.25 -12.4 -20.55 -12.5" fill="#aa0000" fill-rule="evenodd" stroke="none"/>
    <path d="M-22.4 -5.35 L-22.15 -6.9 Q-21.65 -9.6 -21.45 -12.4 L-20.9 -16.9 Q-19.7 -28.8 -18.5 -34.2 -17.3 -39.6 -17.05 -41.75 -16.85 -43.95 -14.5 -51.0 L-10.7 -62.0 -8.65 -67.8 -5.65 -74.4 Q-3.4 -79.25 -1.35 -82.65 0.7 -86.1 2.85 -88.9 6.6 -94.0 11.4 -98.35 L11.4 -98.4 18.4 -104.55 23.6 -108.45 Q27.0 -110.95 30.5 -113.1 L40.85 -118.95 47.15 -122.35 48.4 -122.85 48.75 -123.05 48.95 -123.05 52.45 -123.3 52.8 -123.3 54.0 -123.3 55.35 -123.2 55.95 -123.2 58.7 -122.8 58.75 -122.75 Q61.05 -122.35 63.2 -121.3 L63.1 -121.35 Q64.0 -115.55 64.0 -113.75 64.0 -110.05 53.25 -92.15 44.3 -77.2 41.75 -73.9 35.8 -66.55 32.1 -54.45 28.75 -43.4 28.75 -34.0 L29.8 -23.7 Q31.25 -15.45 31.25 -13.2 31.25 -9.15 26.95 -4.95 L23.65 -2.1 Q17.05 -0.05 13.65 0.25 L13.4 0.55 14.45 1.2 Q18.85 2.1 25.65 -0.3 32.85 0.7 32.85 4.25 32.85 6.05 28.3 7.5 22.7 9.25 12.5 9.25 0.75 9.25 -15.8 -1.0 -19.3 -3.15 -22.4 -5.35 M1.8 -3.15 L1.9 -3.75 Q-7.8 -8.25 -12.25 -15.6 -13.35 -17.45 -17.25 -28.0 L-17.75 -28.0 Q-16.05 -20.05 -13.4 -15.25 -11.35 -11.45 -6.55 -7.3 -1.5 -3.0 1.4 -3.0 2.05 -3.0 1.8 -3.15 M-20.55 -12.5 L-21.25 -12.4 -21.4 -10.15 Q-21.4 -9.4 -21.05 -9.25 -20.5 -9.55 -19.6 -8.4 L-18.5 -6.85 Q-18.25 -6.95 -18.05 -7.1 -18.75 -8.05 -20.55 -12.5" fill="#cc0000" fill-rule="evenodd" stroke="none"/>
    <path d="M7.5 13.4 L12.0 14.05 4.95 14.3 5.2 13.15 5.25 12.95 7.5 13.4 M13.5 14.25 L16.25 14.5 14.4 25.75 14.65 25.85 15.25 25.7 15.6 25.2 15.9 23.4 Q16.05 23.7 16.65 23.7 L25.15 22.95 25.4 22.1 25.1 22.1 20.65 22.35 17.85 22.65 16.0 22.85 16.0 22.65 25.45 22.05 Q24.85 24.35 23.85 26.1 19.95 32.85 1.1 36.4 -9.35 36.5 -18.15 31.2 L-21.6 28.95 -20.9 30.05 Q-22.55 27.65 -23.45 24.65 -24.85 19.8 -24.6 14.7 -24.35 9.75 -23.4 4.95 L-23.35 4.9 -22.55 0.4 -22.3 0.6 -21.95 2.65 -21.6 2.9 -21.65 3.1 -22.25 5.05 Q-23.15 7.75 -22.9 11.05 L-22.75 13.65 -22.75 13.7 -22.4 14.2 -21.85 14.3 -21.85 12.5 -21.15 12.9 -21.25 12.9 -21.6 13.2 -15.85 16.7 -15.7 17.9 Q-15.6 18.6 -15.05 19.1 -14.8 20.75 -9.95 22.75 -5.15 24.7 -1.95 24.7 L3.3 24.35 Q3.9 24.1 4.05 23.2 L11.05 23.4 11.15 23.9 Q11.35 24.15 11.65 24.2 L11.75 24.2 11.9 23.35 12.3 23.0 12.0 22.8 13.5 14.25 M24.45 14.2 L24.65 14.1 25.3 14.15 24.45 14.2 M-7.15 39.55 L-3.5 40.15 -3.55 40.5 -7.15 39.55 M-12.5 20.3 L-12.5 20.45 Q-13.0 20.4 -13.65 19.85 L-14.0 19.65 -12.5 20.3 M-15.85 15.9 L-15.9 15.9 -16.05 15.8 -15.85 15.9 M-10.3 21.9 L-10.45 21.8 Q-9.9 21.65 -9.5 22.2 L-10.3 21.9" fill="#2c57b1" fill-rule="evenodd" stroke="none"/>
    <path d="M7.5 13.4 L12.9 13.6 13.6 13.6 13.7 13.6 13.6 13.6 13.6 13.65 15.4 13.8 16.35 13.8 17.45 13.85 21.55 13.75 23.35 13.65 23.4 13.65 31.2 12.85 31.2 12.9 Q35.65 12.25 39.85 10.9 42.45 10.05 45.0 8.85 L45.35 8.65 45.85 8.3 46.85 7.15 46.65 7.8 45.85 10.05 44.45 13.35 44.55 12.5 44.45 12.0 44.05 11.7 43.55 11.65 36.5 13.6 36.4 13.35 35.9 13.0 35.3 13.1 Q35.0 13.25 34.95 13.55 L34.9 13.85 34.9 13.95 Q34.35 20.3 32.45 25.8 L32.55 25.8 32.85 25.85 34.45 21.8 Q37.75 21.9 40.3 19.95 L40.35 19.9 41.95 18.4 41.85 18.5 41.85 18.55 Q39.4 23.1 36.3 26.85 L35.2 28.1 32.15 31.2 32.15 31.25 27.75 35.15 Q24.3 37.75 20.45 39.2 16.4 40.75 12.2 41.3 L2.8 41.55 2.75 41.55 0.7 41.25 -3.55 40.5 -3.5 40.15 -7.15 39.55 -9.15 38.75 Q-11.7 37.75 -14.0 36.3 -16.3 34.8 -18.25 33.05 L-20.9 30.05 -21.6 28.95 -18.15 31.2 Q-9.35 36.5 1.1 36.4 19.95 32.85 23.85 26.1 24.85 24.35 25.45 22.05 L29.6 21.8 29.65 21.8 29.0 24.0 Q28.9 24.35 29.1 24.65 L29.4 24.95 Q32.3 20.7 33.25 14.9 L33.25 14.8 33.25 14.7 33.3 14.65 33.55 13.75 33.55 13.65 32.0 13.7 31.85 13.8 28.25 14.0 28.2 14.0 25.3 14.15 24.65 14.1 24.45 14.2 23.4 14.85 16.25 14.5 13.5 14.25 12.0 14.05 7.5 13.4 M16.0 22.85 L17.85 22.65 20.65 22.35 25.1 22.1 25.4 22.1 25.15 22.95 16.65 23.7 Q16.05 23.7 15.9 23.4 L15.9 23.35 15.9 23.3 15.95 22.85 16.0 22.85 M-12.5 20.3 Q-5.75 23.1 1.6 23.65 L2.0 23.55 2.0 23.6 3.2 23.05 3.35 22.35 3.5 22.35 11.2 22.35 11.05 23.25 11.05 23.4 4.05 23.2 Q3.9 24.1 3.3 24.35 L-1.95 24.7 Q-5.15 24.7 -9.95 22.75 -14.8 20.75 -15.05 19.1 L-14.8 19.3 -14.2 19.55 -14.05 19.6 -14.15 19.6 -14.0 19.65 -13.65 19.85 Q-13.0 20.4 -12.5 20.45 L-12.5 20.3 M11.9 23.35 L12.0 22.9 12.0 22.8 12.3 23.0 11.9 23.35 M-21.15 12.9 L-21.1 12.9 -16.1 15.8 -16.05 15.8 -15.9 15.9 -15.85 15.9 -15.85 16.7 -21.6 13.2 -21.25 12.9 -21.15 12.9 M-15.0 6.35 L-13.05 7.55 Q-16.85 6.05 -20.1 3.9 L-20.35 2.7 -20.4 2.25 -15.65 5.9 -15.0 6.35 M-10.3 21.9 L-9.5 22.2 Q-9.9 21.65 -10.45 21.8 L-10.3 21.9" fill="#23458b" fill-rule="evenodd" stroke="none"/>
    <path d="M-14.25 16.0 L-14.2 15.65 -14.2 15.3 -14.0 14.95 -12.15 7.9 -11.85 8.0 Q-4.9 10.6 1.95 12.25 L2.1 12.3 2.2 13.45 2.15 14.6 1.45 14.0 1.25 13.9 1.15 13.85 1.05 13.8 -9.8 10.95 -10.4 11.05 -10.7 11.4 -11.25 11.95 -11.65 12.85 -12.5 16.15 -12.65 17.0 -14.25 16.0 M1.4 19.55 L1.35 19.55 1.35 19.2 1.4 19.55 M-8.95 18.6 L-8.95 18.65 -9.35 18.5 -8.95 18.6" fill="#cc9900" fill-rule="evenodd" stroke="none"/>
    <path d="M41.25 16.75 L41.2 16.75 41.0 16.8 41.2 16.75 41.25 16.75 M35.2 18.85 L35.3 18.55 36.2 18.5 36.05 18.55 35.2 18.85 M35.55 17.55 L36.15 15.4 36.2 15.35 42.75 13.55 Q42.35 15.05 41.45 16.4 L41.25 16.2 35.55 17.55 M16.7 18.65 L17.1 16.2 17.25 16.2 31.4 15.45 Q31.75 17.2 31.3 18.6 L24.7 18.25 16.7 18.65 M11.95 18.5 L8.75 18.5 9.25 18.5 Q5.65 18.4 4.1 18.55 L4.65 15.9 4.85 15.9 12.5 15.7 11.95 18.5 M-10.65 15.3 L-10.15 13.45 -9.85 12.75 -9.8 12.6 0.6 15.35 0.65 15.35 0.35 16.9 Q-6.85 15.35 -10.65 15.3 M17.1 19.75 L17.2 19.7 17.7 19.6 17.75 19.6 17.1 19.75 M-21.3 8.75 Q-21.25 7.15 -20.7 5.55 L-20.75 5.55 -20.45 4.7 -18.75 5.95 Q-16.7 7.45 -14.1 8.55 L-14.0 8.6 -15.0 12.5 -17.95 10.55 Q-19.95 9.3 -21.3 8.75" fill="#660000" fill-rule="evenodd" stroke="none"/>
    <path d="M2.1 12.3 L2.3 12.35 2.5 12.4 3.7 12.75 3.65 12.8 1.8 22.05 1.7 22.05 Q-5.55 21.5 -12.1 18.75 L-12.2 18.7 -13.45 18.15 -13.55 18.1 Q-14.05 17.95 -14.15 17.55 L-14.15 17.5 -14.3 16.25 -14.25 16.0 -12.65 17.0 -12.7 17.5 -12.65 17.35 -12.5 17.6 -12.45 17.7 -11.9 18.05 -11.5 18.15 -11.55 18.1 -9.45 18.45 -9.35 18.5 -8.95 18.65 -8.95 18.6 0.15 20.15 0.45 20.2 0.85 20.2 1.0 20.1 1.35 19.55 1.4 19.55 1.85 17.4 1.85 17.5 2.3 15.25 2.15 14.6 2.2 13.45 2.1 12.3" fill="#996600" fill-rule="evenodd" stroke="none"/>
    <path d="M41.2 16.75 L39.35 18.65 39.3 18.7 Q37.35 20.15 34.85 20.2 L35.2 18.85 36.05 18.55 36.2 18.5 35.3 18.55 35.55 17.55 41.25 16.2 41.45 16.4 41.25 16.75 41.2 16.75 41.0 16.8 41.2 16.75 M31.3 18.6 Q30.9 19.6 30.05 20.4 L29.5 20.2 16.3 21.0 16.7 18.65 24.7 18.25 31.3 18.6 M4.1 18.55 Q5.65 18.4 9.25 18.5 L8.75 18.5 11.95 18.5 11.5 20.75 3.7 20.75 4.1 18.55 M0.35 16.9 L0.0 18.5 -10.85 16.6 -10.85 16.55 -10.85 16.4 -10.65 15.3 Q-6.85 15.35 0.35 16.9 M17.1 19.75 L17.75 19.6 17.7 19.6 17.2 19.7 17.1 19.75 M-15.0 12.5 L-15.5 14.3 -21.3 10.95 -21.3 10.75 -21.35 10.25 -21.35 8.75 -21.3 8.75 Q-19.95 9.3 -17.95 10.55 L-15.0 12.5" fill="#530000" fill-rule="evenodd" stroke="none"/>
    <path d="M43.85 -105.7 L43.8 -105.7 43.75 -105.6 43.7 -105.6 43.5 -105.35 Q42.9 -104.95 42.3 -105.65 L42.2 -105.7 42.15 -105.75 42.0 -105.9 42.55 -106.55 42.75 -106.5 42.9 -106.5 43.85 -105.7" fill="#9b0000" fill-rule="evenodd" stroke="none"/>
    <path d="M50.25 -122.0 Q52.85 -123.8 54.45 -123.15 L54.05 -122.85 53.85 -122.65 53.8 -122.6 52.8 -121.45 52.4 -121.2 Q51.55 -120.55 47.75 -114.9 L43.35 -108.45 Q41.55 -110.0 40.05 -109.35 46.9 -116.15 49.2 -119.35 L49.7 -120.1 Q50.6 -121.55 50.25 -122.0 M42.55 -106.55 L42.5 -106.6 42.65 -106.55 42.75 -106.5 42.55 -106.55" fill="#cc0000" fill-rule="evenodd" stroke="none"/>
    <path d="M42.0 -105.9 Q40.65 -107.15 38.15 -108.15 L39.15 -109.45 39.2 -109.45 39.6 -109.1 39.75 -108.8 39.85 -108.8 Q40.65 -109.2 42.45 -106.6 L42.5 -106.6 42.55 -106.55 42.0 -105.9 M39.25 -109.55 L49.8 -122.2 50.25 -122.0 Q50.6 -121.55 49.7 -120.1 L49.2 -119.35 Q46.9 -116.15 40.05 -109.35 L39.85 -109.2 39.8 -109.15 39.25 -109.55 M54.45 -121.95 Q45.75 -108.0 43.85 -105.7 L42.9 -106.5 47.8 -114.1 Q50.5 -118.35 52.15 -120.6 L52.6 -121.15 52.8 -121.45 53.8 -122.6 53.85 -122.65 54.45 -121.95" fill="#930000" fill-rule="evenodd" stroke="none"/>
    <path d="M39.2 -109.45 L39.25 -109.55 39.8 -109.15 39.6 -109.1 39.2 -109.45 M49.8 -122.2 L50.25 -122.05 50.25 -122.0 49.8 -122.2 M54.45 -123.15 L54.85 -123.5 55.2 -123.2 55.2 -123.1 54.45 -121.95 53.85 -122.65 54.05 -122.85 54.45 -123.15 M42.5 -106.6 L42.45 -106.6 Q40.65 -109.2 39.85 -108.8 L39.8 -109.15 39.85 -109.2 40.05 -109.35 Q41.55 -110.0 43.35 -108.45 L47.75 -114.9 Q51.55 -120.55 52.4 -121.2 L52.8 -121.45 52.6 -121.15 52.15 -120.6 Q50.5 -118.35 47.8 -114.1 L42.9 -106.5 42.75 -106.5 42.65 -106.55 42.5 -106.6" fill="#aa0000" fill-rule="evenodd" stroke="none"/>
    <path d="M43.55 -112.9 Q44.6 -112.9 44.85 -112.55 45.7 -111.55 44.35 -109.15 43.15 -108.2 41.35 -110.4 40.85 -111.0 42.2 -112.65 L43.55 -112.9 M44.25 -112.1 L44.1 -112.3 Q43.7 -112.8 42.5 -112.3 41.7 -111.65 41.7 -111.15 L41.65 -111.1 41.75 -110.85 41.8 -110.8 Q43.2 -109.0 44.0 -109.65 44.25 -109.85 44.35 -110.8 L44.25 -112.1 M46.65 -117.2 Q48.15 -118.45 48.7 -117.75 50.15 -115.95 48.1 -114.4 47.15 -113.7 46.25 -114.85 44.9 -116.45 46.65 -117.2 M46.65 -115.25 L47.4 -114.65 47.75 -114.9 Q48.95 -115.9 48.35 -116.95 L48.1 -117.3 Q47.9 -117.5 47.1 -116.8 46.0 -115.95 46.35 -115.55 L46.65 -115.25" fill="#930000" fill-rule="evenodd" stroke="none"/>
    <path d="M41.7 -111.15 L42.5 -111.2 Q43.25 -111.1 43.7 -110.65 43.55 -111.7 44.0 -112.05 L44.25 -112.1 44.35 -110.8 Q44.25 -109.85 44.0 -109.65 43.2 -109.0 41.8 -110.8 L41.75 -110.85 41.65 -111.1 41.7 -111.15 M48.35 -116.95 Q48.95 -115.9 47.75 -114.9 L47.4 -114.65 46.65 -115.25 47.35 -115.5 47.5 -116.7 48.35 -116.95" fill="#aa0000" fill-rule="evenodd" stroke="none"/>
  </g>
</svg>
