<?xml version="1.0" encoding="UTF-8" standalone="no"?>
<svg xmlns:ffdec="https://www.free-decompiler.com/flash" xmlns:xlink="http://www.w3.org/1999/xlink" ffdec:objectType="shape" height="12.75px" width="30.1px" xmlns="http://www.w3.org/2000/svg">
  <g transform="matrix(1.0, 0.0, 0.0, 1.0, 12.7, 6.3)">
    <path d="M12.0 -4.1 L12.0 -4.05 12.0 -4.1" fill="#ff0000" fill-rule="evenodd" stroke="none"/>
    <path d="M11.3 -6.15 L17.35 -5.6 Q17.6 -4.5 15.65 -4.35 12.45 -4.1 11.9 -4.4 L11.9 -4.35 9.7 -1.3 Q7.75 1.3 2.75 3.55 -1.0 5.2 -6.3 6.3 L-12.4 6.45 -12.7 6.0 Q-11.15 5.8 -7.5 4.8 L-7.5 4.85 Q1.05 2.7 4.0 0.45 8.6 -3.15 9.6 -4.4 10.5 -5.7 11.3 -6.15" fill="#463624" fill-rule="evenodd" stroke="none"/>
  </g>
</svg>
