<?xml version="1.0" encoding="UTF-8" standalone="no"?>
<svg xmlns:ffdec="https://www.free-decompiler.com/flash" xmlns:xlink="http://www.w3.org/1999/xlink" ffdec:objectType="shape" height="83.05px" width="127.3px" xmlns="http://www.w3.org/2000/svg">
  <g transform="matrix(1.0, 0.0, 0.0, 1.0, 8.0, 3.0)">
    <path d="M47.35 -2.95 L47.55 -2.9 48.4 -2.55 55.4 2.6 62.35 -2.55 63.15 -2.95 64.25 -2.85 65.0 -2.3 64.95 -2.3 69.6 3.75 78.5 -0.05 79.4 -0.25 79.6 -0.2 80.4 0.15 Q80.8 0.35 81.05 0.9 L81.05 1.0 83.05 7.15 92.8 5.05 Q93.35 4.75 94.05 5.05 L94.1 5.05 94.85 5.65 94.95 5.8 95.15 6.7 95.15 6.8 94.55 12.75 104.85 12.25 104.9 12.25 Q105.5 12.25 106.0 12.6 106.45 12.9 106.65 13.55 L106.7 13.6 106.6 14.65 106.55 14.7 103.75 20.2 113.25 21.3 Q113.9 21.4 114.35 21.85 L114.45 21.9 Q114.8 22.35 114.8 23.0 114.8 23.65 114.35 24.1 L109.55 28.9 117.9 31.55 117.95 31.55 Q118.55 31.75 118.9 32.3 119.25 32.85 119.15 33.5 L119.1 33.6 118.25 34.6 118.3 34.6 111.7 38.35 118.4 42.15 119.2 43.15 119.25 43.25 119.15 44.3 119.1 44.45 Q118.7 44.95 118.0 45.2 L118.05 45.2 109.7 47.9 114.65 52.6 Q115.15 53.05 115.2 53.75 L114.9 54.75 114.75 54.9 Q114.3 55.3 113.65 55.45 L113.6 55.45 104.0 56.65 106.85 62.1 Q107.1 62.5 107.0 63.15 L106.95 63.35 106.3 64.15 105.2 64.5 95.05 64.05 95.65 70.1 95.65 70.15 95.45 70.95 95.45 71.0 94.5 71.75 93.4 71.85 83.5 69.75 81.6 75.9 81.55 76.05 81.05 76.7 80.2 77.1 80.0 77.15 79.25 77.05 79.1 77.0 70.2 73.25 65.55 79.3 65.45 79.35 64.8 79.8 64.6 79.85 63.9 79.95 Q63.3 79.95 62.85 79.55 L62.9 79.6 55.95 74.6 49.05 79.7 48.85 79.75 48.2 80.0 47.1 79.85 Q46.6 79.65 46.35 79.3 L46.4 79.3 41.8 73.35 33.0 77.25 32.95 77.25 31.85 77.35 31.05 77.05 30.85 76.85 30.45 76.1 30.45 76.15 28.45 69.85 18.55 72.1 18.5 72.1 17.45 72.0 17.35 71.95 16.55 71.4 16.45 71.25 16.25 70.35 16.25 70.3 16.8 64.35 6.5 64.75 Q5.8 64.75 5.35 64.4 4.8 64.05 4.7 63.45 4.5 62.8 4.85 62.4 L4.9 62.3 4.9 62.25 7.65 57.0 -1.9 55.85 -1.95 55.85 Q-2.7 55.7 -3.05 55.25 L-3.5 54.15 Q-3.5 53.5 -3.0 53.05 L1.85 48.25 -6.6 45.5 -6.55 45.5 Q-7.3 45.3 -7.55 44.75 L-7.6 44.7 -7.6 44.65 Q-7.95 44.1 -7.7 43.5 L-7.75 43.6 Q-7.6 42.85 -6.9 42.5 L-6.95 42.5 -0.25 38.75 -7.05 35.0 Q-7.8 34.6 -7.95 33.9 L-7.85 34.0 Q-8.15 33.35 -7.8 32.8 L-7.75 32.75 -7.75 32.7 Q-7.5 32.15 -6.75 31.95 L1.65 29.3 -3.25 24.65 -3.25 24.6 Q-3.75 24.05 -3.75 23.5 -3.75 22.85 -3.35 22.45 -2.95 21.85 -2.15 21.75 L7.4 20.5 4.45 15.1 Q4.1 14.55 4.3 14.0 4.45 13.3 5.0 13.0 5.45 12.65 6.15 12.65 L16.35 13.1 15.7 7.0 15.7 6.95 15.9 6.05 15.95 6.0 Q16.25 5.5 16.75 5.3 L16.8 5.25 Q17.45 5.0 18.1 5.25 L27.95 7.3 29.75 1.15 Q29.85 0.65 30.2 0.35 30.55 0.0 31.15 -0.1 L32.35 0.1 41.2 3.85 45.75 -2.15 Q46.0 -2.6 46.5 -2.75 L47.35 -2.95 M79.3 1.45 L69.75 5.55 69.1 5.6 68.6 5.3 63.5 -1.3 62.9 -0.85 62.75 -0.7 55.95 4.35 55.4 4.55 55.0 4.45 48.05 -0.65 47.8 -0.8 47.25 -1.2 47.3 -1.2 47.25 -1.2 42.25 5.35 41.75 5.7 41.15 5.6 31.55 1.6 31.5 1.6 31.3 2.3 31.2 2.5 29.5 8.5 29.1 9.0 28.4 9.1 18.75 7.1 18.5 7.05 17.55 6.85 17.5 6.85 17.5 6.9 17.65 7.95 17.65 8.0 18.3 13.85 18.2 14.3 17.85 14.7 17.65 14.75 6.1 14.35 6.1 14.4 9.6 20.8 9.6 20.9 9.65 21.3 9.4 21.75 8.95 22.0 -1.85 23.45 -1.9 23.45 3.95 29.05 4.2 29.55 4.05 30.1 3.8 30.35 -4.35 32.95 -6.15 33.5 -4.7 34.3 -4.5 34.45 1.95 38.0 2.35 38.45 2.35 39.0 2.0 39.45 -5.95 43.9 -5.95 43.95 -4.45 44.45 -4.15 44.55 3.75 47.1 4.2 47.45 4.35 47.95 4.3 48.25 -1.65 54.15 -1.6 54.2 -1.6 54.15 0.1 54.4 9.1 55.5 Q9.4 55.55 9.65 55.75 L9.9 56.2 9.85 56.65 7.15 61.8 7.15 61.95 6.45 63.1 7.9 63.0 8.0 63.0 17.85 62.65 18.3 62.75 18.65 63.1 18.75 63.35 18.05 70.4 18.1 70.4 18.15 70.45 19.25 70.15 19.3 70.15 29.1 68.0 29.55 68.1 29.95 68.5 29.95 68.6 32.25 75.65 32.25 75.7 32.3 75.7 41.9 71.45 42.3 71.45 42.5 71.55 47.3 77.65 47.35 77.7 47.8 78.35 47.9 78.3 47.95 78.25 48.45 77.9 48.6 77.8 55.5 72.75 55.95 72.65 56.5 72.85 64.05 78.25 64.1 78.25 64.15 78.25 69.15 71.7 69.2 71.7 Q69.35 71.45 69.65 71.4 L70.0 71.4 78.8 75.1 79.1 75.2 79.75 75.45 79.8 75.5 79.8 75.45 79.85 75.4 81.95 68.5 82.4 68.0 82.9 67.9 92.55 69.95 92.65 69.95 93.8 70.25 93.85 70.25 93.85 70.2 93.8 70.25 93.8 70.15 93.15 63.2 93.25 62.75 Q93.35 62.5 93.6 62.4 L94.1 62.3 103.7 62.75 103.85 62.75 105.2 62.8 104.6 61.7 104.55 61.55 101.8 56.3 101.75 55.8 Q101.8 55.5 102.0 55.35 102.15 55.2 102.35 55.15 L111.6 54.0 111.7 53.95 113.35 53.75 112.25 52.7 112.1 52.55 111.6 52.1 111.45 51.95 107.4 48.15 107.15 47.65 107.3 47.1 107.75 46.75 115.6 44.25 115.8 44.15 117.45 43.6 109.45 39.05 109.35 39.0 109.1 38.6 Q108.95 38.35 109.1 38.05 109.15 37.8 109.35 37.7 L115.75 34.05 115.95 33.9 117.3 33.15 115.65 32.6 115.55 32.55 107.4 30.0 107.2 29.75 107.0 29.25 107.25 28.75 111.85 24.2 112.0 24.0 113.0 23.0 102.3 21.75 102.1 21.7 101.75 21.5 101.5 21.05 Q101.45 20.75 101.55 20.55 L104.9 14.05 104.9 14.0 104.9 13.95 93.65 14.5 93.1 14.4 92.75 14.05 92.65 13.6 93.35 6.65 92.15 6.9 92.1 6.9 82.65 9.0 81.95 8.9 81.55 8.4 79.3 1.55 79.35 1.55 79.3 1.45" fill="#006600" fill-rule="evenodd" stroke="none"/>
    <path d="M6.1 14.35 L17.65 14.75 17.85 14.7 18.2 14.3 18.3 13.85 17.65 8.0 17.65 7.95 17.5 6.9 17.5 6.85 17.55 6.85 18.5 7.05 18.75 7.1 28.4 9.1 29.1 9.0 29.5 8.5 31.2 2.5 31.3 2.3 31.5 1.6 31.55 1.6 41.15 5.6 41.75 5.7 42.25 5.35 47.25 -1.2 47.3 -1.2 47.25 -1.2 47.8 -0.8 48.05 -0.65 55.0 4.45 55.4 4.55 55.95 4.35 62.75 -0.7 62.9 -0.85 63.5 -1.3 68.6 5.3 69.1 5.6 69.75 5.55 79.3 1.45 79.3 1.55 81.55 8.4 81.95 8.9 82.65 9.0 92.1 6.9 92.15 6.9 93.35 6.65 92.65 13.6 92.75 14.05 93.1 14.4 93.65 14.5 104.9 13.95 104.9 14.05 101.55 20.55 Q101.45 20.75 101.5 21.05 L101.75 21.5 102.1 21.7 102.3 21.75 113.0 23.0 112.0 24.0 111.85 24.2 107.25 28.75 107.0 29.25 107.2 29.75 107.4 30.0 115.55 32.55 115.65 32.6 117.3 33.15 115.95 33.9 115.75 34.05 109.35 37.7 Q109.15 37.8 109.1 38.05 108.95 38.35 109.1 38.6 L109.35 39.0 109.45 39.05 117.45 43.6 115.8 44.15 115.6 44.25 107.75 46.75 107.3 47.1 107.15 47.65 107.4 48.15 111.45 51.95 111.6 52.1 112.1 52.55 112.25 52.7 113.35 53.75 111.7 53.95 111.6 54.0 102.35 55.15 Q102.15 55.2 102.0 55.35 101.8 55.5 101.75 55.8 L101.8 56.3 104.55 61.55 104.6 61.7 105.2 62.8 103.85 62.75 103.7 62.75 94.1 62.3 93.6 62.4 Q93.35 62.5 93.25 62.75 L93.15 63.2 93.8 70.15 93.8 70.25 92.65 69.95 92.55 69.95 82.9 67.9 82.4 68.0 81.95 68.5 79.85 75.4 79.8 75.45 79.8 75.5 79.75 75.45 79.1 75.2 78.8 75.1 70.0 71.4 69.65 71.4 Q69.35 71.45 69.2 71.7 L69.15 71.7 64.15 78.25 64.05 78.25 56.5 72.85 55.95 72.65 55.5 72.75 48.6 77.8 48.45 77.9 47.95 78.25 47.9 78.3 47.8 78.35 47.35 77.7 47.3 77.65 42.5 71.55 42.3 71.45 41.9 71.45 32.3 75.7 32.25 75.65 29.95 68.6 29.95 68.5 29.55 68.1 29.1 68.0 19.3 70.15 19.25 70.15 18.15 70.45 18.1 70.4 18.05 70.4 18.75 63.35 18.65 63.1 18.3 62.75 17.85 62.65 8.0 63.0 7.9 63.0 6.45 63.1 7.15 61.95 7.15 61.8 9.85 56.65 9.9 56.2 9.65 55.75 Q9.4 55.55 9.1 55.5 L0.1 54.4 -1.6 54.15 -1.65 54.15 4.3 48.25 4.35 47.95 4.2 47.45 3.75 47.1 -4.15 44.55 -4.45 44.45 -5.95 43.95 -5.95 43.9 2.0 39.45 2.35 39.0 2.35 38.45 1.95 38.0 -4.5 34.45 -4.7 34.3 -6.15 33.5 -4.35 32.95 3.8 30.35 4.05 30.1 4.2 29.55 3.95 29.05 -1.9 23.45 -1.85 23.45 8.95 22.0 9.4 21.75 9.65 21.3 9.6 20.9 9.6 20.8 6.1 14.4 6.1 14.35 M82.7 66.15 L91.75 68.05 91.2 62.45 91.2 62.35 91.4 61.5 92.1 60.8 93.1 60.55 102.25 60.95 99.65 56.05 Q99.25 55.45 99.45 54.95 99.55 54.45 100.0 54.1 100.35 53.75 100.95 53.65 L101.0 53.6 109.55 52.55 105.1 48.35 Q104.55 47.85 104.6 47.25 L104.85 46.35 104.9 46.25 104.95 46.2 Q105.2 45.8 105.8 45.6 L113.15 43.25 107.2 39.8 107.15 39.75 Q106.7 39.45 106.5 38.95 106.2 38.35 106.5 37.75 106.75 37.15 107.3 36.9 L113.15 33.6 105.7 31.2 105.65 31.2 Q105.05 30.95 104.75 30.55 104.45 30.1 104.45 29.6 104.45 29.0 104.95 28.55 L109.3 24.25 100.75 23.25 100.7 23.25 Q100.15 23.15 99.85 22.85 99.2 22.45 99.25 21.75 99.15 21.25 99.4 20.9 L101.95 15.8 92.6 16.25 91.6 16.0 90.9 15.3 90.7 14.5 90.7 14.45 91.25 8.8 82.2 10.85 82.15 10.85 80.95 10.65 80.85 10.65 Q80.1 10.25 80.0 9.65 L78.15 3.8 69.85 7.4 69.75 7.45 68.6 7.55 68.45 7.5 67.55 6.9 67.55 6.85 63.15 1.15 56.6 6.05 56.45 6.15 55.4 6.45 54.3 6.1 54.25 6.05 47.7 1.2 43.35 6.9 43.25 7.0 42.4 7.55 42.25 7.6 41.1 7.5 41.05 7.45 32.7 3.9 31.05 9.75 30.2 10.75 28.95 11.0 28.9 10.95 19.6 9.0 20.25 14.65 20.25 14.75 20.15 15.4 20.0 15.7 19.45 16.2 19.3 16.3 18.45 16.45 9.1 16.15 11.75 21.15 Q12.0 21.6 11.9 22.2 L11.5 23.0 11.3 23.15 10.4 23.5 10.35 23.55 1.95 24.65 6.25 28.85 Q6.75 29.2 6.75 29.95 L6.55 30.8 6.45 30.95 5.55 31.55 -1.9 33.95 4.2 37.3 4.3 37.35 Q4.75 37.6 5.0 38.15 5.25 38.75 5.0 39.35 L4.3 40.15 4.2 40.2 -1.75 43.55 5.65 45.9 5.7 45.9 6.55 46.55 6.65 46.65 6.85 47.6 Q6.9 48.1 6.4 48.6 L2.1 52.9 10.6 53.95 10.65 53.95 11.55 54.35 11.75 54.5 12.15 55.3 12.05 56.3 12.0 56.35 9.45 61.3 18.8 60.9 19.7 61.1 19.8 61.15 20.4 61.65 20.55 62.0 20.65 62.7 20.65 62.75 20.15 68.25 29.2 66.25 30.6 66.35 30.65 66.4 Q31.2 66.7 31.45 67.35 L31.5 67.4 33.4 73.35 41.45 69.8 41.55 69.7 42.75 69.6 43.75 70.25 43.85 70.35 48.2 75.95 54.8 71.1 Q55.3 70.7 55.95 70.7 L57.0 71.0 57.15 71.05 63.65 75.8 68.05 70.25 Q68.4 69.7 68.95 69.6 L70.3 69.65 70.35 69.7 78.6 73.15 80.4 67.35 Q80.55 66.6 81.3 66.25 L81.35 66.25 82.65 66.15 82.7 66.15" fill="#dfeedd" fill-rule="evenodd" stroke="none"/>
    <path d="M80.0 9.65 Q80.1 10.25 80.85 10.65 L80.95 10.65 82.15 10.85 82.2 10.85 91.25 8.8 90.7 14.45 90.7 14.5 90.9 15.3 91.6 16.0 92.6 16.25 101.95 15.8 99.4 20.9 Q99.15 21.25 99.25 21.75 99.2 22.45 99.85 22.85 100.15 23.15 100.7 23.25 L100.75 23.25 109.3 24.25 104.95 28.55 Q104.45 29.0 104.45 29.6 104.45 30.1 104.75 30.55 105.05 30.95 105.65 31.2 L105.7 31.2 113.15 33.6 107.3 36.9 Q106.75 37.15 106.5 37.75 106.2 38.35 106.5 38.95 106.7 39.45 107.15 39.75 L107.2 39.8 113.15 43.25 105.8 45.6 Q105.2 45.8 104.95 46.2 L104.9 46.25 104.85 46.35 104.6 47.25 Q104.55 47.85 105.1 48.35 L109.55 52.55 101.0 53.6 100.95 53.65 Q100.35 53.75 100.0 54.1 99.55 54.45 99.45 54.95 99.25 55.45 99.65 56.05 L102.25 60.95 93.1 60.55 92.1 60.8 91.4 61.5 91.2 62.35 91.2 62.45 91.75 68.05 82.7 66.15 82.65 66.15 81.35 66.25 81.3 66.25 Q80.55 66.6 80.4 67.35 L78.6 73.15 70.35 69.7 70.3 69.65 68.95 69.6 Q68.4 69.7 68.05 70.25 L63.65 75.8 57.15 71.05 57.0 71.0 55.95 70.7 Q55.3 70.7 54.8 71.1 L48.2 75.95 43.85 70.35 43.75 70.25 42.75 69.6 41.55 69.7 41.45 69.8 33.4 73.35 31.5 67.4 31.45 67.35 Q31.2 66.7 30.65 66.4 L30.6 66.35 29.2 66.25 20.15 68.25 20.65 62.75 20.65 62.7 20.55 62.0 20.4 61.65 19.8 61.15 19.7 61.1 18.8 60.9 9.45 61.3 12.0 56.35 12.05 56.3 12.15 55.3 11.75 54.5 11.55 54.35 10.65 53.95 10.6 53.95 2.1 52.9 6.4 48.6 Q6.9 48.1 6.85 47.6 L6.65 46.65 6.55 46.55 5.7 45.9 5.65 45.9 -1.75 43.55 4.2 40.2 4.3 40.15 5.0 39.35 Q5.25 38.75 5.0 38.15 4.75 37.6 4.3 37.35 L4.2 37.3 -1.9 33.95 5.55 31.55 6.45 30.95 6.55 30.8 6.75 29.95 Q6.75 29.2 6.25 28.85 L1.95 24.65 10.35 23.55 10.4 23.5 11.3 23.15 11.5 23.0 11.9 22.2 Q12.0 21.6 11.75 21.15 L9.1 16.15 18.45 16.45 19.3 16.3 19.45 16.2 20.0 15.7 20.15 15.4 20.25 14.75 20.25 14.65 19.6 9.0 28.9 10.95 28.95 11.0 30.2 10.75 31.05 9.75 32.7 3.9 41.05 7.45 41.1 7.5 42.25 7.6 42.4 7.55 43.25 7.0 43.35 6.9 47.7 1.2 54.25 6.05 54.3 6.1 55.4 6.45 56.45 6.15 56.6 6.05 63.15 1.15 67.55 6.85 67.55 6.9 68.45 7.5 68.6 7.55 69.75 7.45 69.85 7.4 78.15 3.8 80.0 9.65 80.0 9.7 80.0 9.65" fill="#00cc00" fill-rule="evenodd" stroke="none"/>
    <path d="M79.3 1.45 L79.35 1.55 79.3 1.55 79.3 1.45 M104.9 13.95 L104.9 14.0 104.9 14.05 104.9 13.95 M93.8 70.15 L93.8 70.25 93.85 70.2 93.85 70.25 93.8 70.25 93.8 70.15 M64.15 78.25 L64.1 78.25 64.05 78.25 64.15 78.25 M32.3 75.7 L32.25 75.7 32.25 75.65 32.3 75.7 M-1.6 54.15 L-1.6 54.2 -1.65 54.15 -1.6 54.15 M82.7 66.15 L82.65 66.15 82.7 66.15 M80.0 9.65 L80.0 9.7 80.0 9.65" fill="#ffffff" fill-rule="evenodd" stroke="none"/>
  </g>
</svg>
