<?xml version="1.0" encoding="UTF-8" standalone="no"?>
<svg xmlns:ffdec="https://www.free-decompiler.com/flash" xmlns:xlink="http://www.w3.org/1999/xlink" ffdec:objectType="shape" height="36.55px" width="36.55px" xmlns="http://www.w3.org/2000/svg">
  <g transform="matrix(1.0, 0.0, 0.0, 1.0, -103.8, -81.6)">
    <path d="M122.05 81.65 L121.85 82.6 121.75 81.65 122.05 81.65" fill="#cccccc" fill-rule="evenodd" stroke="none"/>
    <path d="M121.85 87.05 L121.85 82.6 121.85 87.05 M133.8 87.15 L130.85 90.15 133.8 87.15 M110.2 87.45 L113.5 90.75 110.2 87.45 M121.75 81.65 L121.85 82.6 122.05 81.65 Q129.2 81.6 134.35 86.45 L134.9 86.95 Q140.05 92.1 140.3 99.3 L140.3 99.9 Q140.25 107.45 134.9 112.8 129.55 118.15 122.05 118.15 114.45 118.15 109.1 112.8 103.75 107.45 103.8 99.9 103.75 92.3 109.1 86.95 114.35 81.7 121.75 81.65 M109.45 111.2 L112.75 107.9 109.45 111.2 M109.8 99.4 L105.05 99.4 109.8 99.4 M134.45 111.7 L131.5 108.7 134.45 111.7 M121.85 116.85 L121.85 112.4 121.85 116.85 M139.35 99.4 L135.2 99.4 139.35 99.4" fill="#ffffff" fill-rule="evenodd" stroke="none"/>
    <path d="M113.5 90.75 L110.2 87.45 M130.85 90.15 L133.8 87.15 M121.85 82.6 L121.85 87.05 M135.2 99.4 L139.35 99.4 M121.85 112.4 L121.85 116.85 M131.5 108.7 L134.45 111.7 M105.05 99.4 L109.8 99.4 M112.75 107.9 L109.45 111.2" fill="none" stroke="#666666" stroke-linecap="round" stroke-linejoin="round" stroke-width="2.0"/>
  </g>
</svg>
