<?xml version="1.0" encoding="UTF-8" standalone="no"?>
<svg xmlns:ffdec="https://www.free-decompiler.com/flash" xmlns:xlink="http://www.w3.org/1999/xlink" ffdec:objectType="shape" height="34.25px" width="9.7px" xmlns="http://www.w3.org/2000/svg">
  <g transform="matrix(1.0, 0.0, 0.0, 1.0, 4.5, 3.5)">
    <path d="M5.2 1.35 L5.0 2.7 1.1 30.75 -4.5 2.45 -4.5 1.35 Q-4.5 -0.65 -3.05 -2.05 -1.65 -3.5 0.35 -3.5 2.35 -3.5 3.75 -2.05 5.2 -0.65 5.2 1.35 M1.75 2.85 Q2.4 2.25 2.4 1.35 2.4 0.45 1.75 -0.2 1.15 -0.8 0.25 -0.8 -0.65 -0.8 -1.3 -0.2 -1.9 0.45 -1.9 1.35 -1.9 2.25 -1.3 2.85 -0.65 3.5 0.25 3.5 1.15 3.5 1.75 2.85" fill="#000000" fill-rule="evenodd" stroke="none"/>
    <path d="M1.75 2.85 Q1.15 3.5 0.25 3.5 -0.65 3.5 -1.3 2.85 -1.9 2.25 -1.9 1.35 -1.9 0.45 -1.3 -0.2 -0.65 -0.8 0.25 -0.8 1.15 -0.8 1.75 -0.2 2.4 0.45 2.4 1.35 2.4 2.25 1.75 2.85" fill="#cccccc" fill-rule="evenodd" stroke="none"/>
  </g>
</svg>
