<?xml version="1.0" encoding="UTF-8" standalone="no"?>
<svg xmlns:ffdec="https://www.free-decompiler.com/flash" xmlns:xlink="http://www.w3.org/1999/xlink" ffdec:objectType="shape" height="266.0px" width="256.5px" xmlns="http://www.w3.org/2000/svg">
  <g transform="matrix(1.0, 0.0, 0.0, 1.0, -113.15, -92.1)">
    <path d="M177.95 194.25 L177.95 208.2 172.8 208.2 172.8 194.25 177.95 194.25 M197.4 194.25 L197.4 208.2 192.25 208.2 192.25 194.25 197.4 194.25 M191.25 194.25 L191.25 198.45 187.5 198.45 187.5 208.2 182.6 208.2 182.6 198.45 178.8 198.45 178.8 194.25 191.25 194.25 M220.7 194.1 L225.3 194.1 225.3 199.0 220.7 199.0 Q219.75 199.0 219.1 199.65 218.45 200.3 218.45 201.25 218.45 202.2 219.1 202.8 219.75 203.45 220.7 203.45 221.8 203.45 222.4 203.0 L219.8 203.0 219.8 199.45 227.8 199.45 227.8 201.25 Q227.8 204.2 225.75 206.25 223.65 208.35 220.7 208.35 217.7 208.35 215.65 206.3 213.55 204.2 213.55 201.25 213.55 198.3 215.65 196.2 217.7 194.1 220.7 194.1 M212.55 194.25 L212.55 208.2 207.75 208.2 203.15 201.8 203.15 208.2 198.25 208.2 198.25 194.25 203.05 194.25 207.65 200.65 207.65 194.25 212.55 194.25 M135.45 194.25 L138.1 201.35 139.8 194.25 144.35 194.25 146.05 201.35 148.65 194.25 154.25 194.25 148.7 208.2 143.25 208.2 142.05 202.95 140.9 208.2 135.4 208.2 129.9 194.25 135.45 194.25 M155.45 208.2 L160.75 194.25 166.45 194.25 171.75 208.2 165.95 208.2 165.45 206.85 161.75 206.85 161.25 208.2 155.45 208.2 M155.55 246.2 Q157.6 248.3 157.6 251.25 157.6 254.2 155.55 256.25 153.45 258.35 150.5 258.35 147.5 258.35 145.45 256.3 143.35 254.2 143.35 251.25 143.35 248.3 145.45 246.2 147.5 244.1 150.5 244.1 153.45 244.1 155.55 246.2 M142.35 244.25 L142.35 248.45 138.6 248.45 138.6 258.2 133.7 258.2 133.7 248.45 129.9 248.45 129.9 244.25 142.35 244.25 M152.05 249.65 Q151.4 249.0 150.5 249.0 149.55 249.0 148.9 249.65 148.25 250.3 148.25 251.25 148.25 252.2 148.9 252.8 149.55 253.45 150.5 253.45 151.4 253.45 152.05 252.8 152.75 252.15 152.75 251.25 152.75 250.3 152.05 249.65 M137.75 293.25 Q139.35 293.25 140.5 294.45 141.6 295.6 141.6 297.2 141.6 299.2 140.1 300.25 141.6 301.2 141.6 303.25 141.6 304.85 140.45 306.05 139.3 307.2 137.65 307.2 L129.9 307.2 129.9 293.25 137.75 293.25 M153.6 293.25 L158.9 307.2 153.1 307.2 152.6 305.85 148.9 305.85 148.4 307.2 142.6 307.2 147.9 293.25 153.6 293.25 M158.65 244.25 L166.45 244.25 Q168.4 244.25 169.75 245.75 171.1 247.25 171.1 249.4 171.1 251.5 169.75 253.0 168.4 254.5 166.45 254.5 L163.55 254.5 163.55 258.2 158.65 258.2 158.65 244.25 M150.75 300.7 L150.15 302.3 151.3 302.3 150.75 300.7 M136.3 303.05 Q136.8 303.05 136.8 302.5 136.8 302.0 136.3 302.0 L134.8 302.0 134.8 303.05 136.3 303.05 M134.8 297.45 L134.8 298.45 136.3 298.45 Q136.8 298.45 136.8 297.95 136.8 297.45 136.3 297.45 L134.8 297.45 M137.05 343.1 L139.25 343.45 139.25 348.95 Q138.15 348.0 137.05 348.0 136.1 348.0 135.45 348.65 134.8 349.3 134.8 350.25 134.8 351.2 135.45 351.8 136.1 352.45 137.05 352.45 138.15 352.45 139.25 351.55 L139.25 357.0 137.05 357.35 Q134.05 357.35 132.0 355.3 129.9 353.2 129.9 350.25 129.9 347.3 132.0 345.2 134.05 343.1 137.05 343.1 M152.65 343.25 L152.65 352.4 Q152.65 354.5 150.8 355.9 148.95 357.35 146.4 357.35 143.8 357.35 142.0 355.9 140.15 354.5 140.15 352.4 L140.15 343.25 145.05 343.25 145.05 352.0 145.45 352.75 146.4 353.05 147.35 352.75 Q147.75 352.45 147.75 352.0 L147.75 343.25 152.65 343.25 M157.45 347.45 L153.65 347.45 153.65 343.25 166.1 343.25 166.1 347.45 162.35 347.45 162.35 357.2 157.45 357.2 157.45 347.45 M159.95 293.25 L164.85 293.25 164.85 296.55 167.0 293.25 172.7 293.25 168.1 299.65 172.45 307.2 166.65 307.2 164.8 303.85 164.85 304.0 164.85 307.2 159.95 307.2 159.95 293.25 M214.0 244.1 L218.6 244.1 218.6 249.0 214.0 249.0 Q213.05 249.0 212.4 249.65 211.75 250.3 211.75 251.25 211.75 252.2 212.4 252.8 213.05 253.45 214.0 253.45 L215.7 253.0 213.1 253.0 213.1 249.45 221.1 249.45 221.1 251.25 Q221.1 254.2 219.05 256.25 216.95 258.35 214.0 258.35 211.0 258.35 208.95 256.3 206.85 254.2 206.85 251.25 206.85 248.3 208.95 246.2 211.0 244.1 214.0 244.1 M164.15 203.3 L163.6 201.7 163.0 203.3 164.15 203.3 M179.9 244.25 Q181.85 244.25 183.2 245.75 184.55 247.25 184.55 249.4 184.55 251.5 183.2 253.0 181.85 254.5 179.9 254.5 L177.0 254.5 177.0 258.2 172.1 258.2 172.1 244.25 179.9 244.25 M196.35 244.25 L200.95 250.65 200.95 244.25 205.85 244.25 205.85 258.2 201.05 258.2 196.45 251.8 196.45 258.2 191.55 258.2 191.55 244.25 196.35 244.25 M190.7 244.25 L190.7 258.2 185.55 258.2 185.55 244.25 190.7 244.25 M179.4 250.15 L179.7 249.45 179.4 248.75 Q179.15 248.45 178.8 248.45 L177.0 248.45 177.0 250.45 178.8 250.45 179.4 250.15 M166.25 249.45 L165.95 248.75 Q165.7 248.45 165.35 248.45 L163.55 248.45 163.55 250.45 165.35 250.45 Q165.7 250.45 165.95 250.15 L166.25 249.45 M178.9 293.25 L178.9 307.2 173.75 307.2 173.75 293.25 178.9 293.25 M202.2 293.1 L206.8 293.1 206.8 298.0 202.2 298.0 Q201.25 298.0 200.6 298.65 199.95 299.3 199.95 300.25 199.95 301.2 200.6 301.8 201.25 302.45 202.2 302.45 203.3 302.45 203.9 302.0 L201.3 302.0 201.3 298.45 209.3 298.45 209.3 300.25 Q209.3 303.2 207.25 305.25 205.15 307.35 202.2 307.35 199.2 307.35 197.15 305.3 195.05 303.2 195.05 300.25 195.05 297.3 197.15 295.2 199.2 293.1 202.2 293.1 M194.05 293.25 L194.05 307.2 189.25 307.2 184.65 300.8 184.65 307.2 179.75 307.2 179.75 293.25 184.55 293.25 189.15 299.65 189.15 293.25 194.05 293.25 M209.0 343.1 L213.6 343.1 213.6 348.0 209.0 348.0 Q208.05 348.0 207.4 348.65 206.75 349.3 206.75 350.25 206.75 351.2 207.4 351.8 208.05 352.45 209.0 352.45 210.1 352.45 210.7 352.0 L208.1 352.0 208.1 348.45 216.1 348.45 216.1 350.25 Q216.1 353.2 214.05 355.25 211.95 357.35 209.0 357.35 206.0 357.35 203.95 355.3 201.85 353.2 201.85 350.25 201.85 347.3 203.95 345.2 206.0 343.1 209.0 343.1 M179.55 343.25 L179.55 347.45 175.8 347.45 175.8 357.2 170.9 357.2 170.9 347.45 167.1 347.45 167.1 343.25 179.55 343.25 M191.35 343.25 L195.95 349.65 195.95 343.25 200.85 343.25 200.85 357.2 196.05 357.2 191.45 350.8 191.45 357.2 186.55 357.2 186.55 343.25 191.35 343.25 M185.7 343.25 L185.7 357.2 180.55 357.2 180.55 343.25 185.7 343.25" fill="#000000" fill-rule="evenodd" stroke="none"/>
    <path d="M358.3 93.05 L360.7 98.6 363.2 93.05 368.9 93.05 363.8 104.8 363.8 110.45 357.65 110.45 357.65 104.95 352.5 93.05 358.3 93.05 M347.55 93.05 L354.15 110.45 346.95 110.45 346.3 108.8 341.7 108.8 341.0 110.45 333.8 110.45 340.4 93.05 347.55 93.05 M331.0 95.6 Q333.55 98.15 333.55 101.75 333.55 105.35 331.0 107.9 328.45 110.45 324.85 110.45 L315.7 110.45 315.7 93.05 324.85 93.05 Q328.45 93.05 331.0 95.6 M343.25 104.35 L344.7 104.35 344.0 102.3 343.25 104.35 M326.4 99.25 Q325.4 98.25 323.95 98.25 L321.85 98.25 321.85 105.2 323.95 105.2 Q325.4 105.2 326.4 104.2 327.4 103.2 327.4 101.75 327.4 100.3 326.4 99.25 M335.75 143.05 L330.65 154.8 330.65 160.45 324.5 160.45 324.5 154.95 319.35 143.05 325.15 143.05 327.55 148.6 330.05 143.05 335.75 143.05 M261.75 92.85 Q265.75 92.85 267.15 93.9 L266.35 99.35 Q263.25 97.8 261.85 97.8 261.1 97.8 260.95 98.25 L260.9 98.45 Q260.9 98.85 262.5 99.2 265.0 99.8 266.0 100.45 267.95 101.75 267.95 104.35 267.95 107.6 265.5 109.1 263.25 110.65 260.3 110.65 257.25 110.65 254.2 109.3 L255.45 104.45 257.3 105.2 259.65 105.6 Q261.15 105.6 261.15 104.9 261.15 104.45 259.6 104.1 257.1 103.55 256.6 103.05 254.2 101.85 254.2 99.3 254.2 96.55 256.4 94.7 258.55 92.85 261.75 92.85 M251.3 94.9 Q253.0 96.8 253.0 99.4 253.0 101.25 252.1 102.8 251.25 104.35 249.9 105.0 L253.05 110.45 245.8 110.45 243.55 105.85 243.55 110.45 237.4 110.45 237.4 93.05 247.15 93.05 Q249.55 93.05 251.3 94.9 M245.75 98.25 L243.55 98.25 243.55 100.75 245.75 100.75 Q246.25 100.75 246.55 100.4 L246.9 99.5 Q246.9 99.0 246.55 98.65 246.2 98.25 245.75 98.25 M279.8 93.05 L295.4 93.05 295.4 98.25 290.65 98.25 290.65 110.45 284.55 110.45 284.55 98.25 279.8 98.25 279.8 93.05 M305.55 92.85 Q309.2 92.85 311.8 95.45 314.45 98.05 314.45 101.75 314.45 105.45 311.8 108.05 309.25 110.65 305.55 110.65 301.8 110.65 299.2 108.05 296.6 105.45 296.6 101.75 296.6 98.05 299.2 95.45 301.8 92.85 305.55 92.85 M174.1 98.25 L169.35 98.25 169.35 110.45 163.25 110.45 163.25 98.25 158.5 98.25 158.5 93.05 174.1 93.05 174.1 98.25 M190.5 95.45 Q193.15 98.05 193.15 101.75 193.15 105.45 190.5 108.05 187.95 110.65 184.25 110.65 180.5 110.65 177.9 108.05 175.3 105.45 175.3 101.75 175.3 98.05 177.9 95.45 180.5 92.85 184.25 92.85 187.9 92.85 190.5 95.45 M202.0 93.05 L206.15 102.55 208.4 93.05 215.25 93.05 222.15 110.45 215.2 110.45 211.9 101.6 209.85 110.45 204.15 110.45 200.55 101.65 200.55 110.45 194.4 110.45 194.4 93.05 202.0 93.05 M229.75 98.25 L229.75 99.15 236.25 99.15 236.25 104.4 229.75 104.4 229.75 105.2 236.25 105.2 236.25 110.45 223.6 110.45 223.6 93.05 236.25 93.05 236.25 98.25 229.75 98.25 M213.65 148.25 L207.15 148.25 207.15 149.15 213.65 149.15 213.65 154.4 207.15 154.4 207.15 155.2 213.65 155.2 213.65 160.45 201.0 160.45 201.0 143.05 213.65 143.05 213.65 148.25 M234.4 142.85 Q238.05 142.85 240.65 145.45 243.3 148.05 243.3 151.75 243.3 155.4 240.8 157.8 L243.3 162.3 236.65 162.3 235.65 160.55 234.35 160.65 Q230.65 160.65 228.05 158.05 225.45 155.45 225.45 151.75 225.45 148.05 228.05 145.45 230.65 142.85 234.4 142.85 M187.0 101.75 Q187.0 100.6 186.2 99.75 185.35 98.95 184.25 98.95 183.05 98.95 182.25 99.75 181.4 100.55 181.4 101.75 181.4 102.9 182.25 103.75 183.05 104.55 184.25 104.55 185.4 104.55 186.2 103.75 187.0 102.9 187.0 101.75 M179.45 143.05 L172.6 160.45 166.3 160.45 159.45 143.05 166.05 143.05 169.45 151.9 172.8 143.05 179.45 143.05 M197.1 142.85 L199.85 143.25 199.85 150.1 Q198.5 148.95 197.15 148.95 195.95 148.95 195.15 149.75 194.3 150.55 194.3 151.75 194.3 152.9 195.15 153.75 195.95 154.55 197.15 154.55 198.5 154.55 199.85 153.35 L199.85 160.25 197.1 160.65 Q193.4 160.65 190.8 158.05 188.2 155.45 188.2 151.75 188.2 148.05 190.8 145.45 193.4 142.85 197.1 142.85 M187.2 143.05 L187.2 160.45 180.75 160.45 180.75 143.05 187.2 143.05 M236.85 149.25 Q235.8 148.25 234.4 148.25 232.9 148.25 231.9 149.25 230.9 150.3 230.9 151.75 230.9 153.2 231.9 154.2 232.9 155.25 234.4 155.25 235.8 155.25 236.85 154.2 237.85 153.2 237.85 151.75 237.85 150.3 236.85 149.25 M307.5 99.75 Q306.65 98.95 305.55 98.95 304.35 98.95 303.55 99.75 302.7 100.55 302.7 101.75 302.7 102.9 303.55 103.75 304.35 104.55 305.55 104.55 306.7 104.55 307.5 103.75 308.3 102.9 308.3 101.75 308.3 100.6 307.5 99.75 M302.55 143.05 L318.15 143.05 318.15 148.25 313.4 148.25 313.4 160.45 307.3 160.45 307.3 148.25 302.55 148.25 302.55 143.05 M301.55 143.05 L301.55 160.45 295.1 160.45 295.1 143.05 301.55 143.05 M250.7 143.05 L250.7 154.0 Q250.7 154.5 251.15 154.85 251.65 155.25 252.35 155.25 253.1 155.25 253.55 154.85 254.05 154.5 254.05 154.0 L254.05 143.05 260.15 143.05 260.15 154.45 Q260.15 157.05 257.85 158.85 255.55 160.65 252.35 160.65 249.15 160.65 246.85 158.85 244.55 157.05 244.55 154.45 L244.55 143.05 250.7 143.05 M275.15 143.05 L281.75 160.45 274.55 160.45 273.9 158.8 269.3 158.8 268.6 160.45 261.4 160.45 268.0 143.05 275.15 143.05 M271.6 152.3 L270.85 154.35 272.3 154.35 271.6 152.3 M293.95 155.2 L293.95 160.45 283.1 160.45 283.1 143.05 289.25 143.05 289.25 155.2 293.95 155.2 M132.85 93.05 L132.85 104.0 Q132.85 104.5 133.3 104.85 133.8 105.25 134.5 105.25 135.25 105.25 135.7 104.85 L136.2 104.0 136.2 93.05 142.3 93.05 142.3 104.45 Q142.3 107.05 140.0 108.85 137.7 110.65 134.5 110.65 131.3 110.65 129.0 108.85 126.7 107.05 126.7 104.45 L126.7 93.05 132.85 93.05 M125.55 93.25 L125.55 100.1 Q124.2 98.95 122.85 98.95 121.65 98.95 120.85 99.75 120.0 100.55 120.0 101.75 120.0 102.9 120.85 103.75 121.65 104.55 122.85 104.55 124.2 104.55 125.55 103.35 L125.55 110.25 122.8 110.65 Q119.1 110.65 116.5 108.05 113.9 105.45 113.9 101.75 113.9 98.05 116.5 95.45 119.1 92.85 122.8 92.85 L125.55 93.25 M150.25 98.45 Q150.25 98.85 151.85 99.2 154.35 99.8 155.35 100.45 157.3 101.75 157.3 104.35 157.3 107.6 154.85 109.1 152.6 110.65 149.65 110.65 146.6 110.65 143.55 109.3 L144.8 104.45 146.65 105.2 149.0 105.6 Q150.5 105.6 150.5 104.9 150.5 104.45 148.95 104.1 146.45 103.55 145.95 103.05 143.55 101.85 143.55 99.3 143.55 96.55 145.75 94.7 147.9 92.85 151.1 92.85 155.1 92.85 156.5 93.9 L155.7 99.35 Q152.6 97.8 151.2 97.8 150.45 97.8 150.3 98.25 L150.25 98.45 M141.5 143.05 L141.5 148.25 135.0 148.25 135.0 149.15 141.5 149.15 141.5 154.4 135.0 154.4 135.0 155.2 141.5 155.2 141.5 160.45 128.85 160.45 128.85 143.05 141.5 143.05 M152.4 143.05 Q154.8 143.05 156.55 144.9 158.25 146.8 158.25 149.4 158.25 151.25 157.35 152.8 156.5 154.35 155.15 155.0 L158.3 160.45 151.05 160.45 148.8 155.85 148.8 160.45 142.65 160.45 142.65 143.05 152.4 143.05 M148.8 148.25 L148.8 150.75 151.0 150.75 Q151.5 150.75 151.8 150.4 L152.15 149.5 Q152.15 149.0 151.8 148.65 151.45 148.25 151.0 148.25 L148.8 148.25 M121.45 142.85 Q125.45 142.85 126.85 143.9 L126.05 149.35 Q122.95 147.8 121.55 147.8 120.8 147.8 120.65 148.25 L120.6 148.45 Q120.6 148.85 122.2 149.2 124.7 149.8 125.7 150.45 127.65 151.75 127.65 154.35 127.65 157.6 125.2 159.1 122.95 160.65 120.0 160.65 116.95 160.65 113.9 159.3 L115.15 154.45 Q115.75 154.85 117.0 155.2 L119.35 155.6 Q120.85 155.6 120.85 154.9 120.85 154.45 119.3 154.1 116.8 153.55 116.3 153.05 113.9 151.85 113.9 149.3 113.9 146.55 116.1 144.7 118.25 142.85 121.45 142.85" fill="#ffffff" fill-rule="evenodd" stroke="none"/>
    <path d="M331.0 95.6 Q333.55 98.15 333.55 101.75 333.55 105.35 331.0 107.9 328.45 110.45 324.85 110.45 L315.7 110.45 315.7 93.05 324.85 93.05 Q328.45 93.05 331.0 95.6 M326.4 99.25 Q325.4 98.25 323.95 98.25 L321.85 98.25 321.85 105.2 323.95 105.2 Q325.4 105.2 326.4 104.2 327.4 103.2 327.4 101.75 327.4 100.3 326.4 99.25 M335.75 143.05 L330.65 154.8 330.65 160.45 324.5 160.45 324.5 154.95 319.35 143.05 325.15 143.05 327.55 148.6 330.05 143.05 335.75 143.05 M261.75 92.85 Q265.75 92.85 267.15 93.9 L266.35 99.35 Q263.25 97.8 261.85 97.8 261.1 97.8 260.95 98.25 L260.9 98.45 Q260.9 98.85 262.5 99.2 265.0 99.8 266.0 100.45 267.95 101.75 267.95 104.35 267.95 107.6 265.5 109.1 263.25 110.65 260.3 110.65 257.25 110.65 254.2 109.3 L255.45 104.45 257.3 105.2 259.65 105.6 Q261.15 105.6 261.15 104.9 261.15 104.45 259.6 104.1 257.1 103.55 256.6 103.05 254.2 101.85 254.2 99.3 254.2 96.55 256.4 94.7 258.55 92.85 261.75 92.85 M251.3 94.9 Q253.0 96.8 253.0 99.4 253.0 101.25 252.1 102.8 251.25 104.35 249.9 105.0 L253.05 110.45 245.8 110.45 243.55 105.85 243.55 110.45 237.4 110.45 237.4 93.05 247.15 93.05 Q249.55 93.05 251.3 94.9 M245.75 98.25 L243.55 98.25 243.55 100.75 245.75 100.75 Q246.25 100.75 246.55 100.4 L246.9 99.5 Q246.9 99.0 246.55 98.65 246.2 98.25 245.75 98.25 M279.8 93.05 L295.4 93.05 295.4 98.25 290.65 98.25 290.65 110.45 284.55 110.45 284.55 98.25 279.8 98.25 279.8 93.05 M305.55 92.85 Q309.2 92.85 311.8 95.45 314.45 98.05 314.45 101.75 314.45 105.45 311.8 108.05 309.25 110.65 305.55 110.65 301.8 110.65 299.2 108.05 296.6 105.45 296.6 101.75 296.6 98.05 299.2 95.45 301.8 92.85 305.55 92.85 M174.1 98.25 L169.35 98.25 169.35 110.45 163.25 110.45 163.25 98.25 158.5 98.25 158.5 93.05 174.1 93.05 174.1 98.25 M190.5 95.45 Q193.15 98.05 193.15 101.75 193.15 105.45 190.5 108.05 187.95 110.65 184.25 110.65 180.5 110.65 177.9 108.05 175.3 105.45 175.3 101.75 175.3 98.05 177.9 95.45 180.5 92.85 184.25 92.85 187.9 92.85 190.5 95.45 M202.0 93.05 L206.15 102.55 208.4 93.05 215.25 93.05 222.15 110.45 215.2 110.45 211.9 101.6 209.85 110.45 204.15 110.45 200.55 101.65 200.55 110.45 194.4 110.45 194.4 93.05 202.0 93.05 M229.75 98.25 L229.75 99.15 236.25 99.15 236.25 104.4 229.75 104.4 229.75 105.2 236.25 105.2 236.25 110.45 223.6 110.45 223.6 93.05 236.25 93.05 236.25 98.25 229.75 98.25 M213.65 148.25 L207.15 148.25 207.15 149.15 213.65 149.15 213.65 154.4 207.15 154.4 207.15 155.2 213.65 155.2 213.65 160.45 201.0 160.45 201.0 143.05 213.65 143.05 213.65 148.25 M234.4 142.85 Q238.05 142.85 240.65 145.45 243.3 148.05 243.3 151.75 243.3 155.4 240.8 157.8 L243.3 162.3 236.65 162.3 235.65 160.55 234.35 160.65 Q230.65 160.65 228.05 158.05 225.45 155.45 225.45 151.75 225.45 148.05 228.05 145.45 230.65 142.85 234.4 142.85 M187.0 101.75 Q187.0 100.6 186.2 99.75 185.35 98.95 184.25 98.95 183.05 98.95 182.25 99.75 181.4 100.55 181.4 101.75 181.4 102.9 182.25 103.75 183.05 104.55 184.25 104.55 185.4 104.55 186.2 103.75 187.0 102.9 187.0 101.75 M179.45 143.05 L172.6 160.45 166.3 160.45 159.45 143.05 166.05 143.05 169.45 151.9 172.8 143.05 179.45 143.05 M197.1 142.85 L199.85 143.25 199.85 150.1 Q198.5 148.95 197.15 148.95 195.95 148.95 195.15 149.75 194.3 150.55 194.3 151.75 194.3 152.9 195.15 153.75 195.95 154.55 197.15 154.55 198.5 154.55 199.85 153.35 L199.85 160.25 197.1 160.65 Q193.4 160.65 190.8 158.05 188.2 155.45 188.2 151.75 188.2 148.05 190.8 145.45 193.4 142.85 197.1 142.85 M187.2 143.05 L187.2 160.45 180.75 160.45 180.75 143.05 187.2 143.05 M236.85 149.25 Q235.8 148.25 234.4 148.25 232.9 148.25 231.9 149.25 230.9 150.3 230.9 151.75 230.9 153.2 231.9 154.2 232.9 155.25 234.4 155.25 235.8 155.25 236.85 154.2 237.85 153.2 237.85 151.75 237.85 150.3 236.85 149.25 M307.5 99.75 Q306.65 98.95 305.55 98.95 304.35 98.95 303.55 99.75 302.7 100.55 302.7 101.75 302.7 102.9 303.55 103.75 304.35 104.55 305.55 104.55 306.7 104.55 307.5 103.75 308.3 102.9 308.3 101.75 308.3 100.6 307.5 99.75 M302.55 143.05 L318.15 143.05 318.15 148.25 313.4 148.25 313.4 160.45 307.3 160.45 307.3 148.25 302.55 148.25 302.55 143.05 M301.55 143.05 L301.55 160.45 295.1 160.45 295.1 143.05 301.55 143.05 M250.7 143.05 L250.7 154.0 Q250.7 154.5 251.15 154.85 251.65 155.25 252.35 155.25 253.1 155.25 253.55 154.85 254.05 154.5 254.05 154.0 L254.05 143.05 260.15 143.05 260.15 154.45 Q260.15 157.05 257.85 158.85 255.55 160.65 252.35 160.65 249.15 160.65 246.85 158.85 244.55 157.05 244.55 154.45 L244.55 143.05 250.7 143.05 M275.15 143.05 L281.75 160.45 274.55 160.45 273.9 158.8 269.3 158.8 268.6 160.45 261.4 160.45 268.0 143.05 275.15 143.05 M271.6 152.3 L270.85 154.35 272.3 154.35 271.6 152.3 M293.95 155.2 L293.95 160.45 283.1 160.45 283.1 143.05 289.25 143.05 289.25 155.2 293.95 155.2 M132.85 93.05 L132.85 104.0 Q132.85 104.5 133.3 104.85 133.8 105.25 134.5 105.25 135.25 105.25 135.7 104.85 L136.2 104.0 136.2 93.05 142.3 93.05 142.3 104.45 Q142.3 107.05 140.0 108.85 137.7 110.65 134.5 110.65 131.3 110.65 129.0 108.85 126.7 107.05 126.7 104.45 L126.7 93.05 132.85 93.05 M150.25 98.45 Q150.25 98.85 151.85 99.2 154.35 99.8 155.35 100.45 157.3 101.75 157.3 104.35 157.3 107.6 154.85 109.1 152.6 110.65 149.65 110.65 146.6 110.65 143.55 109.3 L144.8 104.45 146.65 105.2 149.0 105.6 Q150.5 105.6 150.5 104.9 150.5 104.45 148.95 104.1 146.45 103.55 145.95 103.05 143.55 101.85 143.55 99.3 143.55 96.55 145.75 94.7 147.9 92.85 151.1 92.85 155.1 92.85 156.5 93.9 L155.7 99.35 Q152.6 97.8 151.2 97.8 150.45 97.8 150.3 98.25 L150.25 98.45 M141.5 143.05 L141.5 148.25 135.0 148.25 135.0 149.15 141.5 149.15 141.5 154.4 135.0 154.4 135.0 155.2 141.5 155.2 141.5 160.45 128.85 160.45 128.85 143.05 141.5 143.05 M152.4 143.05 Q154.8 143.05 156.55 144.9 158.25 146.8 158.25 149.4 158.25 151.25 157.35 152.8 156.5 154.35 155.15 155.0 L158.3 160.45 151.05 160.45 148.8 155.85 148.8 160.45 142.65 160.45 142.65 143.05 152.4 143.05 M148.8 148.25 L148.8 150.75 151.0 150.75 Q151.5 150.75 151.8 150.4 L152.15 149.5 Q152.15 149.0 151.8 148.65 151.45 148.25 151.0 148.25 L148.8 148.25 M121.45 142.85 Q125.45 142.85 126.85 143.9 L126.05 149.35 Q122.95 147.8 121.55 147.8 120.8 147.8 120.65 148.25 L120.6 148.45 Q120.6 148.85 122.2 149.2 124.7 149.8 125.7 150.45 127.65 151.75 127.65 154.35 127.65 157.6 125.2 159.1 122.95 160.65 120.0 160.65 116.95 160.65 113.9 159.3 L115.15 154.45 Q115.75 154.85 117.0 155.2 L119.35 155.6 Q120.85 155.6 120.85 154.9 120.85 154.45 119.3 154.1 116.8 153.55 116.3 153.05 113.9 151.85 113.9 149.3 113.9 146.55 116.1 144.7 118.25 142.85 121.45 142.85" fill="none" stroke="#4a3c00" stroke-linecap="round" stroke-linejoin="round" stroke-width="1.5"/>
    <path d="M358.3 93.05 L360.7 98.6 363.2 93.05 368.9 93.05 363.8 104.8 363.8 110.45 357.65 110.45 357.65 104.95 352.5 93.05 358.3 93.05 M347.55 93.05 L354.15 110.45 346.95 110.45 346.3 108.8 341.7 108.8 341.0 110.45 333.8 110.45 340.4 93.05 347.55 93.05 M343.25 104.35 L344.7 104.35 344.0 102.3 343.25 104.35 M125.55 93.25 L125.55 100.1 Q124.2 98.95 122.85 98.95 121.65 98.95 120.85 99.75 120.0 100.55 120.0 101.75 120.0 102.9 120.85 103.75 121.65 104.55 122.85 104.55 124.2 104.55 125.55 103.35 L125.55 110.25 122.8 110.65 Q119.1 110.65 116.5 108.05 113.9 105.45 113.9 101.75 113.9 98.05 116.5 95.45 119.1 92.85 122.8 92.85 L125.55 93.25" fill="none" stroke="#4a3c00" stroke-linecap="round" stroke-linejoin="round" stroke-width="1.5"/>
    <path d="M177.95 194.25 L177.95 208.2 172.8 208.2 172.8 194.25 177.95 194.25 M197.4 194.25 L197.4 208.2 192.25 208.2 192.25 194.25 197.4 194.25 M191.25 194.25 L191.25 198.45 187.5 198.45 187.5 208.2 182.6 208.2 182.6 198.45 178.8 198.45 178.8 194.25 191.25 194.25 M220.7 194.1 L225.3 194.1 225.3 199.0 220.7 199.0 Q219.75 199.0 219.1 199.65 218.45 200.3 218.45 201.25 218.45 202.2 219.1 202.8 219.75 203.45 220.7 203.45 221.8 203.45 222.4 203.0 L219.8 203.0 219.8 199.45 227.8 199.45 227.8 201.25 Q227.8 204.2 225.75 206.25 223.65 208.35 220.7 208.35 217.7 208.35 215.65 206.3 213.55 204.2 213.55 201.25 213.55 198.3 215.65 196.2 217.7 194.1 220.7 194.1 M212.55 194.25 L212.55 208.2 207.75 208.2 203.15 201.8 203.15 208.2 198.25 208.2 198.25 194.25 203.05 194.25 207.65 200.65 207.65 194.25 212.55 194.25 M135.45 194.25 L138.1 201.35 139.8 194.25 144.35 194.25 146.05 201.35 148.65 194.25 154.25 194.25 148.7 208.2 143.25 208.2 142.05 202.95 140.9 208.2 135.4 208.2 129.9 194.25 135.45 194.25 M155.45 208.2 L160.75 194.25 166.45 194.25 171.75 208.2 165.95 208.2 165.45 206.85 161.75 206.85 161.25 208.2 155.45 208.2 M137.75 293.25 Q139.35 293.25 140.5 294.45 141.6 295.6 141.6 297.2 141.6 299.2 140.1 300.25 141.6 301.2 141.6 303.25 141.6 304.85 140.45 306.05 139.3 307.2 137.65 307.2 L129.9 307.2 129.9 293.25 137.75 293.25 M153.6 293.25 L158.9 307.2 153.1 307.2 152.6 305.85 148.9 305.85 148.4 307.2 142.6 307.2 147.9 293.25 153.6 293.25 M150.75 300.7 L150.15 302.3 151.3 302.3 150.75 300.7 M136.3 303.05 Q136.8 303.05 136.8 302.5 136.8 302.0 136.3 302.0 L134.8 302.0 134.8 303.05 136.3 303.05 M134.8 297.45 L134.8 298.45 136.3 298.45 Q136.8 298.45 136.8 297.95 136.8 297.45 136.3 297.45 L134.8 297.45 M159.95 293.25 L164.85 293.25 164.85 296.55 167.0 293.25 172.7 293.25 168.1 299.65 172.45 307.2 166.65 307.2 164.8 303.85 164.85 304.0 164.85 307.2 159.95 307.2 159.95 293.25 M164.15 203.3 L163.6 201.7 163.0 203.3 164.15 203.3 M178.9 293.25 L178.9 307.2 173.75 307.2 173.75 293.25 178.9 293.25 M202.2 293.1 L206.8 293.1 206.8 298.0 202.2 298.0 Q201.25 298.0 200.6 298.65 199.95 299.3 199.95 300.25 199.95 301.2 200.6 301.8 201.25 302.45 202.2 302.45 203.3 302.45 203.9 302.0 L201.3 302.0 201.3 298.45 209.3 298.45 209.3 300.25 Q209.3 303.2 207.25 305.25 205.15 307.35 202.2 307.35 199.2 307.35 197.15 305.3 195.05 303.2 195.05 300.25 195.05 297.3 197.15 295.2 199.2 293.1 202.2 293.1 M194.05 293.25 L194.05 307.2 189.25 307.2 184.65 300.8 184.65 307.2 179.75 307.2 179.75 293.25 184.55 293.25 189.15 299.65 189.15 293.25 194.05 293.25" fill="none" stroke="#ffec00" stroke-linecap="round" stroke-linejoin="round" stroke-width="1.5"/>
    <path d="M155.55 246.2 Q157.6 248.3 157.6 251.25 157.6 254.2 155.55 256.25 153.45 258.35 150.5 258.35 147.5 258.35 145.45 256.3 143.35 254.2 143.35 251.25 143.35 248.3 145.45 246.2 147.5 244.1 150.5 244.1 153.45 244.1 155.55 246.2 M142.35 244.25 L142.35 248.45 138.6 248.45 138.6 258.2 133.7 258.2 133.7 248.45 129.9 248.45 129.9 244.25 142.35 244.25 M152.05 249.65 Q151.4 249.0 150.5 249.0 149.55 249.0 148.9 249.65 148.25 250.3 148.25 251.25 148.25 252.2 148.9 252.8 149.55 253.45 150.5 253.45 151.4 253.45 152.05 252.8 152.75 252.15 152.75 251.25 152.75 250.3 152.05 249.65 M158.65 244.25 L166.45 244.25 Q168.4 244.25 169.75 245.75 171.1 247.25 171.1 249.4 171.1 251.5 169.75 253.0 168.4 254.5 166.45 254.5 L163.55 254.5 163.55 258.2 158.65 258.2 158.65 244.25 M137.05 343.1 L139.25 343.45 139.25 348.95 Q138.15 348.0 137.05 348.0 136.1 348.0 135.45 348.65 134.8 349.3 134.8 350.25 134.8 351.2 135.45 351.8 136.1 352.45 137.05 352.45 138.15 352.45 139.25 351.55 L139.25 357.0 137.05 357.35 Q134.05 357.35 132.0 355.3 129.9 353.2 129.9 350.25 129.9 347.3 132.0 345.2 134.05 343.1 137.05 343.1 M152.65 343.25 L152.65 352.4 Q152.65 354.5 150.8 355.9 148.95 357.35 146.4 357.35 143.8 357.35 142.0 355.9 140.15 354.5 140.15 352.4 L140.15 343.25 145.05 343.25 145.05 352.0 145.45 352.75 146.4 353.05 147.35 352.75 Q147.75 352.45 147.75 352.0 L147.75 343.25 152.65 343.25 M157.45 347.45 L153.65 347.45 153.65 343.25 166.1 343.25 166.1 347.45 162.35 347.45 162.35 357.2 157.45 357.2 157.45 347.45 M214.0 244.1 L218.6 244.1 218.6 249.0 214.0 249.0 Q213.05 249.0 212.4 249.65 211.75 250.3 211.75 251.25 211.75 252.2 212.4 252.8 213.05 253.45 214.0 253.45 L215.7 253.0 213.1 253.0 213.1 249.45 221.1 249.45 221.1 251.25 Q221.1 254.2 219.05 256.25 216.95 258.35 214.0 258.35 211.0 258.35 208.95 256.3 206.85 254.2 206.85 251.25 206.85 248.3 208.95 246.2 211.0 244.1 214.0 244.1 M179.9 244.25 Q181.85 244.25 183.2 245.75 184.55 247.25 184.55 249.4 184.55 251.5 183.2 253.0 181.85 254.5 179.9 254.5 L177.0 254.5 177.0 258.2 172.1 258.2 172.1 244.25 179.9 244.25 M196.35 244.25 L200.95 250.65 200.95 244.25 205.85 244.25 205.85 258.2 201.05 258.2 196.45 251.8 196.45 258.2 191.55 258.2 191.55 244.25 196.35 244.25 M190.7 244.25 L190.7 258.2 185.55 258.2 185.55 244.25 190.7 244.25 M179.4 250.15 L179.7 249.45 179.4 248.75 Q179.15 248.45 178.8 248.45 L177.0 248.45 177.0 250.45 178.8 250.45 179.4 250.15 M166.25 249.45 L165.95 248.75 Q165.7 248.45 165.35 248.45 L163.55 248.45 163.55 250.45 165.35 250.45 Q165.7 250.45 165.95 250.15 L166.25 249.45 M209.0 343.1 L213.6 343.1 213.6 348.0 209.0 348.0 Q208.05 348.0 207.4 348.65 206.75 349.3 206.75 350.25 206.75 351.2 207.4 351.8 208.05 352.45 209.0 352.45 210.1 352.45 210.7 352.0 L208.1 352.0 208.1 348.45 216.1 348.45 216.1 350.25 Q216.1 353.2 214.05 355.25 211.95 357.35 209.0 357.35 206.0 357.35 203.95 355.3 201.85 353.2 201.85 350.25 201.85 347.3 203.95 345.2 206.0 343.1 209.0 343.1 M179.55 343.25 L179.55 347.45 175.8 347.45 175.8 357.2 170.9 357.2 170.9 347.45 167.1 347.45 167.1 343.25 179.55 343.25 M191.35 343.25 L195.95 349.65 195.95 343.25 200.85 343.25 200.85 357.2 196.05 357.2 191.45 350.8 191.45 357.2 186.55 357.2 186.55 343.25 191.35 343.25 M185.7 343.25 L185.7 357.2 180.55 357.2 180.55 343.25 185.7 343.25 Z" fill="none" stroke="#ffcc00" stroke-linecap="round" stroke-linejoin="round" stroke-width="1.5"/>
  </g>
</svg>
