<?xml version="1.0" encoding="UTF-8" standalone="no"?>
<svg xmlns:ffdec="https://www.free-decompiler.com/flash" xmlns:xlink="http://www.w3.org/1999/xlink" ffdec:objectType="shape" height="48.0px" width="221.95px" xmlns="http://www.w3.org/2000/svg">
  <g transform="matrix(1.0, 0.0, 0.0, 1.0, 1.0, 1.0)">
    <path d="M2.95 15.5 Q3.0 12.8 3.7 10.35 4.45 7.75 5.9 5.5 L210.0 5.5 210.0 9.5 217.0 9.5 217.0 36.2 215.5 37.6 212.5 39.65 211.7 40.05 209.55 40.95 Q206.45 42.0 202.9 42.0 L22.95 42.0 Q14.65 42.0 8.8 36.15 2.95 30.3 2.95 22.0 L2.95 15.5" fill="#1ebb41" fill-rule="evenodd" stroke="none"/>
    <path d="M2.95 15.5 L2.95 22.0 Q2.95 30.3 8.8 36.15 14.65 42.0 22.95 42.0 L202.9 42.0 Q206.45 42.0 209.55 40.95 L211.7 40.05 212.5 39.65 215.5 37.6 216.7 37.05 214.1 40.15 212.5 41.6 Q207.15 46.0 199.95 46.0 L20.0 46.0 Q11.7 46.0 5.85 40.15 0.0 34.3 0.0 26.0 L0.0 20.0 Q0.0 13.4 3.7 8.35 2.95 11.0 2.95 14.0 L2.95 15.5" fill="#006600" fill-rule="evenodd" stroke="none"/>
    <path d="M208.05 12.85 Q202.2 7.0 193.9 7.0 L13.95 7.0 Q7.2 7.0 2.1 10.85 L3.25 8.95 Q4.35 7.3 5.8 5.85 11.65 0.0 19.95 0.0 L199.9 0.0 Q208.2 0.0 214.05 5.85 219.9 11.7 219.9 20.0 L219.9 26.0 Q219.9 34.3 214.05 40.15 L212.5 41.6 211.75 42.2 Q213.9 38.05 213.9 33.0 L213.9 27.0 Q213.9 18.7 208.05 12.85" fill="#88ff88" fill-rule="evenodd" stroke="none"/>
    <path d="M213.4 39.45 Q218.95 33.9 218.95 26.0 L218.95 20.0 Q218.95 12.1 213.4 6.55 207.85 1.0 199.95 1.0 L20.0 1.0 Q12.1 1.0 6.55 6.55 1.0 12.1 1.0 20.0 L1.0 26.0 Q1.0 33.9 6.55 39.45 12.1 45.0 20.0 45.0 L199.95 45.0 Q207.85 45.0 213.4 39.45 M20.0 -1.0 L199.95 -1.0 Q208.65 -1.0 214.8 5.15 220.95 11.3 220.95 20.0 L220.95 26.0 Q220.95 34.7 214.8 40.85 208.65 47.0 199.95 47.0 L20.0 47.0 Q11.3 47.0 5.15 40.85 -1.0 34.7 -1.0 26.0 L-1.0 20.0 Q-1.0 11.3 5.15 5.15 11.3 -1.0 20.0 -1.0" fill="#003300" fill-rule="evenodd" stroke="none"/>
  </g>
</svg>
