<?xml version="1.0" encoding="UTF-8" standalone="no"?>
<svg xmlns:ffdec="https://www.free-decompiler.com/flash" xmlns:xlink="http://www.w3.org/1999/xlink" ffdec:objectType="shape" height="48.0px" width="221.95px" xmlns="http://www.w3.org/2000/svg">
  <g transform="matrix(1.0, 0.0, 0.0, 1.0, 1.0, 1.0)">
    <path d="M210.0 9.5 L217.0 9.5 217.0 36.2 215.5 37.6 216.7 37.05 214.1 40.15 212.5 41.6 Q207.15 46.0 199.95 46.0 L20.0 46.0 Q11.7 46.0 5.85 40.15 0.0 34.3 0.0 26.0 L0.0 20.0 Q0.0 13.4 3.7 8.35 2.95 11.0 2.95 14.0 L2.95 15.5 Q3.0 12.8 3.7 10.35 4.45 7.75 5.9 5.5 L210.0 5.5 210.0 9.5" fill="#1ebb41" fill-rule="evenodd" stroke="none"/>
    <path d="M219.9 26.0 Q219.9 34.3 214.05 40.15 L212.5 41.6 211.75 42.2 Q213.9 38.05 213.9 33.0 L213.9 27.0 Q213.9 18.7 208.05 12.85 202.2 7.0 193.9 7.0 L13.95 7.0 Q7.2 7.0 2.1 10.85 L3.25 8.95 Q4.35 7.3 5.8 5.85 11.65 0.0 19.95 0.0 L199.9 0.0 Q208.2 0.0 214.05 5.85 219.9 11.7 219.9 20.0 L219.9 26.0" fill="#016b04" fill-rule="evenodd" stroke="none"/>
    <path d="M219.95 20.0 Q219.95 11.7 214.1 5.85 208.25 0.0 199.95 0.0 L20.0 0.0 Q11.7 0.0 5.85 5.85 0.0 11.7 0.0 20.0 L0.0 26.0 Q0.0 34.3 5.85 40.15 11.7 46.0 20.0 46.0 L199.95 46.0 Q208.25 46.0 214.1 40.15 219.95 34.3 219.95 26.0 L219.95 20.0 Z" fill="none" stroke="#003300" stroke-linecap="round" stroke-linejoin="round" stroke-width="2.0"/>
  </g>
</svg>
