<?xml version="1.0" encoding="UTF-8" standalone="no"?>
<svg xmlns:ffdec="https://www.free-decompiler.com/flash" xmlns:xlink="http://www.w3.org/1999/xlink" ffdec:objectType="shape" height="167.3px" width="83.1px" xmlns="http://www.w3.org/2000/svg">
  <g transform="matrix(1.0, 0.0, 0.0, 1.0, 41.55, 133.65)">
    <path d="M2.55 -124.45 L2.85 -125.45 Q0.6 -128.75 -2.55 -128.25 L-2.7 -128.25 Q-8.3 -128.2 -10.75 -123.45 L-10.75 -123.5 Q-11.0 -122.95 -10.75 -122.3 L-10.35 -121.95 -10.35 -121.9 Q-4.1 -119.95 -1.0 -121.4 2.1 -122.8 2.55 -124.45 M-8.3 -128.9 L-7.8 -129.15 Q-5.65 -130.2 -2.85 -130.25 1.95 -131.0 4.45 -127.65 L4.6 -127.4 Q5.75 -124.55 4.1 -121.95 L3.7 -121.4 3.7 -121.45 3.35 -121.1 Q2.25 -120.15 -1.15 -119.05 -5.25 -117.8 -11.25 -120.15 L-11.2 -120.15 Q-12.25 -120.6 -12.6 -121.55 L-12.65 -121.6 Q-13.2 -123.15 -12.55 -124.4 L-12.5 -124.4 Q-10.95 -127.45 -8.3 -128.9 M0.6 -116.3 L0.75 -116.3 0.95 -116.35 2.75 -116.95 3.3 -117.15 3.3 -117.2 Q6.4 -118.65 6.8 -121.35 7.25 -125.0 7.0 -126.1 1.5 -133.4 -7.45 -131.1 L-10.15 -130.2 -11.15 -129.8 -13.45 -128.65 Q-14.85 -129.0 -15.9 -123.7 -16.25 -118.8 -10.5 -116.85 -5.1 -115.05 0.15 -116.2 L0.6 -116.3 M8.15 -128.2 L8.9 -127.35 8.75 -127.15 9.0 -125.9 8.8 -127.05 9.5 -126.0 9.6 -125.85 9.8 -124.35 Q9.8 -123.4 8.85 -121.3 L8.8 -121.15 8.1 -119.75 Q6.55 -116.65 5.35 -115.6 L5.05 -115.4 5.15 -115.25 Q3.7 -114.25 1.75 -113.45 -3.7 -111.3 -9.15 -112.95 -13.5 -114.3 -15.7 -117.25 -16.55 -118.4 -17.05 -119.75 L-17.1 -119.65 Q-17.65 -121.4 -18.0 -123.85 L-17.85 -124.25 Q-17.5 -125.65 -17.7 -125.95 -17.9 -126.3 -17.1 -127.9 -16.3 -129.5 -13.9 -130.8 -11.55 -132.1 -8.0 -133.05 0.35 -135.2 6.55 -129.75 L6.55 -129.65 7.55 -128.65 8.15 -128.2" fill="#430e06" fill-rule="evenodd" stroke="none"/>
    <path d="M3.35 -121.1 L3.7 -121.45 3.7 -121.4 4.1 -121.95 Q5.75 -124.55 4.6 -127.4 L4.45 -127.65 Q1.95 -131.0 -2.85 -130.25 -5.65 -130.2 -7.8 -129.15 L-8.3 -128.9 -11.15 -129.8 -10.15 -130.2 -7.45 -131.1 Q1.5 -133.4 7.0 -126.1 7.25 -125.0 6.8 -121.35 6.4 -118.65 3.3 -117.2 L3.3 -117.15 2.75 -116.95 0.95 -116.35 0.75 -116.3 0.6 -116.3 0.45 -116.4 1.7 -117.5 Q3.55 -119.1 3.55 -120.5 L3.35 -121.1" fill="#b42b12" fill-rule="evenodd" stroke="none"/>
    <path d="M2.55 -124.45 Q2.1 -122.8 -1.0 -121.4 -4.1 -119.95 -10.35 -121.9 L-10.35 -121.95 -10.75 -122.3 Q-11.0 -122.95 -10.75 -123.5 L-10.75 -123.45 Q-8.3 -128.2 -2.7 -128.25 L-2.55 -128.25 Q0.6 -128.75 2.85 -125.45 L2.55 -124.45" fill="#f1ba87" fill-rule="evenodd" stroke="none"/>
    <path d="M6.55 -129.75 L7.6 -128.75 8.15 -128.2 7.55 -128.65 6.55 -129.65 6.55 -129.75 M-18.5 -122.1 L-18.5 -122.15 -18.4 -122.35 -18.5 -122.1 M8.8 -121.15 L8.9 -121.1 8.65 -120.15 Q7.9 -117.3 5.55 -115.55 L5.15 -115.25 5.05 -115.4 5.35 -115.6 Q6.55 -116.65 8.1 -119.75 L8.8 -121.15 M20.95 2.55 Q22.0 2.35 20.5 2.75 L20.95 2.55" fill="#666666" fill-rule="evenodd" stroke="none"/>
    <path d="M8.9 -127.35 L9.45 -126.7 8.85 -127.1 8.75 -127.15 8.9 -127.35 M38.05 -4.75 Q37.4 2.25 34.95 8.7 31.35 18.1 23.6 24.25 15.9 30.25 6.3 32.3 -3.3 34.15 -13.0 33.45 L-13.05 33.45 Q-23.55 33.15 -30.85 25.95 -34.25 22.5 -35.9 18.0 -39.15 9.0 -39.35 -0.65 L-41.1 -1.8 -41.45 -2.2 -41.55 -2.55 -41.45 -2.3 Q-38.1 -0.7 -33.2 0.95 L-29.85 2.05 Q-23.25 5.45 -7.35 6.35 L9.5 5.45 15.2 4.1 15.75 4.0 15.8 4.0 Q18.35 3.65 20.5 2.75 22.0 2.35 20.95 2.55 L21.25 2.4 21.95 2.05 Q30.5 -0.35 38.05 -4.75 M-15.8 4.75 L-16.2 4.75 -18.65 4.35 -15.8 4.75 M31.65 -0.25 L31.75 -0.3 32.35 -0.3 31.7 -0.3 31.65 -0.25 M-9.6 5.45 L-10.0 5.45 -10.2 5.45 -9.6 5.45 M-17.25 6.75 L-17.85 6.65 -17.75 6.7 -17.45 6.8 -17.25 6.75 M6.1 29.95 Q11.1 28.45 17.5 25.25 27.75 16.35 30.75 9.8 34.15 2.35 33.2 0.4 L32.95 -0.05 Q31.65 0.75 28.45 2.0 L24.65 3.55 Q20.1 5.25 17.15 5.85 15.65 6.75 11.9 6.9 6.9 8.1 0.05 8.1 L-13.4 7.55 -13.7 7.55 Q-16.35 7.4 -20.95 5.95 L-24.15 5.2 Q-30.95 3.4 -37.3 0.45 L-37.25 0.9 -37.25 1.4 Q-36.8 9.6 -34.0 17.3 -32.5 21.4 -29.4 24.55 L-29.45 24.55 -29.4 24.6 Q-24.8 29.1 -18.85 30.65 L-12.95 31.45 -12.9 31.45 -5.15 31.75 -4.25 31.7 -4.2 31.7 -1.3 31.45 -0.35 31.35 2.8 30.8 3.05 30.75 4.65 30.4 6.1 29.95 M27.85 1.2 L27.8 1.15 27.65 1.25 27.85 1.2 M15.55 3.5 L15.65 3.55 15.45 3.55 15.55 3.5 M17.5 4.85 L17.45 4.85 17.55 4.85 17.5 4.85 M14.75 6.1 L14.65 6.15 15.05 6.1 14.75 6.1" fill="#000000" fill-rule="evenodd" stroke="none"/>
    <path d="M9.6 -125.85 Q13.1 -120.55 15.45 -114.55 17.75 -108.7 19.3 -102.45 L23.45 -85.3 27.8 -66.25 30.0 -56.55 32.2 -46.4 34.35 -36.2 38.95 -13.0 Q39.45 -10.3 41.35 -8.05 L41.55 -7.45 41.45 -6.9 41.0 -6.5 38.05 -5.15 38.05 -4.75 Q30.5 -0.35 21.95 2.05 L21.25 2.4 20.95 2.55 20.5 2.75 Q18.35 3.65 15.8 4.0 L15.75 4.0 15.2 4.1 9.5 5.45 -7.35 6.35 Q-23.25 5.45 -29.85 2.05 L-33.2 0.95 Q-38.1 -0.7 -41.45 -2.3 L-41.55 -2.55 -41.55 -2.75 -41.35 -3.2 -41.35 -3.25 -39.95 -5.3 -39.95 -5.35 Q-37.85 -8.6 -36.45 -12.1 L-36.6 -13.2 Q-36.6 -17.35 -34.4 -19.5 L-34.1 -21.65 Q-33.0 -31.3 -31.1 -40.95 L-28.05 -57.2 -25.25 -74.05 -22.85 -90.7 Q-21.9 -97.8 -21.45 -104.85 -20.8 -114.7 -19.3 -119.5 L-18.5 -122.1 -18.4 -122.35 -18.0 -123.85 Q-17.65 -121.4 -17.1 -119.65 L-17.2 -119.25 -18.0 -115.7 Q-19.1 -110.3 -19.45 -104.7 -19.9 -97.6 -20.85 -90.45 L-23.3 -73.75 -26.1 -56.85 -29.15 -40.55 Q-31.0 -31.0 -32.1 -21.4 -32.25 -20.0 -32.55 -18.55 -35.6 -16.95 -35.6 -13.95 L-35.6 -12.85 Q-35.45 -11.95 -34.8 -11.8 L-34.95 -11.55 -34.95 -11.4 -28.2 -8.9 -26.9 -8.45 -26.85 -8.4 -26.1 -7.95 Q-26.05 -7.85 -26.3 -7.85 L-27.15 -8.1 -27.25 -8.1 -31.95 -9.35 -34.7 -10.35 -35.25 -10.75 -35.3 -10.75 -35.65 -10.05 -36.0 -9.4 -36.15 -9.15 -36.5 -8.5 Q-38.0 -5.9 -39.95 -3.3 L-40.1 -3.15 -37.85 -2.05 -33.2 0.05 -33.1 0.05 -32.0 0.55 -23.85 3.2 -23.65 3.25 -22.7 3.5 -18.65 4.35 -16.2 4.75 -15.8 4.75 -15.15 4.85 -13.55 5.0 -11.55 5.05 -10.2 5.05 -0.4 4.35 Q21.1 2.5 40.25 -7.75 L39.55 -8.55 Q35.5 -15.65 34.3 -24.15 27.2 -74.35 8.9 -121.1 L8.8 -121.15 8.85 -121.3 Q9.8 -123.4 9.8 -124.35 L9.6 -125.85 M-17.6 -28.8 L-18.4 -29.6 -18.85 -30.05 -19.3 -30.55 -19.35 -30.7 Q-24.5 -38.2 -24.8 -45.35 L-24.65 -45.35 Q-24.3 -37.4 -17.6 -28.8 M-9.6 5.45 L-10.2 5.45 -10.0 5.45 -9.6 5.45 M15.55 3.5 L15.45 3.55 15.65 3.55 15.55 3.5" fill="#615050" fill-rule="evenodd" stroke="none"/>
    <path d="M8.9 -121.1 Q27.2 -74.35 34.3 -24.15 35.5 -15.65 39.55 -8.55 L40.25 -7.75 Q21.1 2.5 -0.4 4.35 L-10.2 5.05 -11.55 5.05 -13.55 5.0 -11.45 5.0 -15.15 4.85 -15.8 4.75 -18.65 4.35 -22.7 3.5 -15.3 4.2 -15.2 4.2 -12.95 4.05 -2.7 3.4 -1.9 3.3 -1.7 3.25 Q9.35 1.2 19.15 -5.15 L19.3 -5.3 Q25.85 -11.1 25.25 -23.1 22.85 -69.6 6.6 -112.85 L5.55 -115.55 Q7.9 -117.3 8.65 -120.15 L8.9 -121.1" fill="#dddddd" fill-rule="evenodd" stroke="none"/>
    <path d="M-8.3 -128.9 Q-10.95 -127.45 -12.5 -124.4 L-12.55 -124.4 Q-13.2 -123.15 -12.65 -121.6 L-12.6 -121.55 Q-12.25 -120.6 -11.2 -120.15 L-11.25 -120.15 Q-5.25 -117.8 -1.15 -119.05 2.25 -120.15 3.35 -121.1 L3.55 -120.5 Q3.55 -119.1 1.7 -117.5 L0.45 -116.4 0.15 -116.2 Q-5.1 -115.05 -10.5 -116.85 -16.25 -118.8 -15.9 -123.7 -14.85 -129.0 -13.45 -128.65 L-11.15 -129.8 -8.3 -128.9" fill="#e53516" fill-rule="evenodd" stroke="none"/>
    <path d="M0.45 -116.4 L0.6 -116.3 0.15 -116.2 0.45 -116.4" fill="#cd3014" fill-rule="evenodd" stroke="none"/>
    <path d="M-36.5 -8.5 L-36.15 -9.15 -33.35 -9.05 -33.1 -9.05 -36.0 -9.4 -35.65 -10.05 -35.3 -10.75 -35.25 -10.75 -34.7 -10.35 -31.95 -9.35 -27.25 -8.1 -27.15 -8.1 -26.1 -7.7 Q-25.95 -7.55 -26.2 -7.55 L-28.3 -8.0 -36.5 -8.5 M-26.85 -8.4 L-26.9 -8.45 -28.2 -8.9 -34.95 -11.4 -34.95 -11.55 -34.8 -11.8 Q-35.45 -11.95 -35.6 -12.85 L-35.6 -13.95 Q-35.6 -16.95 -32.55 -18.55 L-31.65 -17.4 -31.9 -20.65 -31.4 -20.65 Q-28.5 -11.6 -18.45 -6.9 L-18.45 -6.6 Q-17.7 -5.9 -18.95 -5.9 -19.85 -5.9 -26.85 -8.4 M-18.0 -115.7 L-17.2 -119.25 -17.1 -119.65 -17.05 -119.75 Q-16.55 -118.4 -15.7 -117.25 -13.5 -114.3 -9.15 -112.95 -3.7 -111.3 1.75 -113.45 3.7 -114.25 5.15 -115.25 L5.55 -115.55 6.6 -112.85 Q22.85 -69.6 25.25 -23.1 25.85 -11.1 19.3 -5.3 L19.15 -5.15 Q9.35 1.2 -1.7 3.25 L-1.9 3.3 -2.7 3.4 -12.95 4.05 Q3.45 2.6 9.8 -4.35 16.35 -11.55 16.35 -31.75 16.35 -55.1 13.8 -71.9 10.8 -91.5 3.4 -111.15 0.35 -109.85 -2.45 -109.85 -11.15 -109.85 -18.0 -115.7 M-19.35 -30.7 Q-21.6 -33.4 -23.15 -37.5 -24.9 -42.15 -24.9 -45.9 L-24.4 -46.15 Q-19.15 -26.5 6.05 -13.4 6.15 -13.1 4.9 -13.1 -1.95 -13.1 -17.6 -28.8 -24.3 -37.4 -24.65 -45.35 L-24.8 -45.35 Q-24.5 -38.2 -19.35 -30.7 M-34.5 -12.45 L-34.2 -13.2 -34.7 -12.1 -33.9 -12.1 -34.5 -12.45" fill="#eeeeee" fill-rule="evenodd" stroke="none"/>
    <path d="M-13.55 5.0 L-15.15 4.85 -11.45 5.0 -13.55 5.0 M-22.7 3.5 L-23.65 3.25 -23.85 3.2 -32.0 0.55 -33.1 0.05 -33.2 0.05 -37.85 -2.05 -40.1 -3.15 -39.95 -3.3 Q-38.0 -5.9 -36.5 -8.5 L-28.3 -8.0 -26.2 -7.55 Q-25.95 -7.55 -26.1 -7.7 L-27.15 -8.1 -26.3 -7.85 Q-26.05 -7.85 -26.1 -7.95 L-26.85 -8.4 Q-19.85 -5.9 -18.95 -5.9 -17.7 -5.9 -18.45 -6.6 L-18.45 -6.9 Q-28.5 -11.6 -31.4 -20.65 L-31.9 -20.65 -31.65 -17.4 -32.55 -18.55 Q-32.25 -20.0 -32.1 -21.4 -31.0 -31.0 -29.15 -40.55 L-26.1 -56.85 -23.3 -73.75 -20.85 -90.45 Q-19.9 -97.6 -19.45 -104.7 -19.1 -110.3 -18.0 -115.7 -11.15 -109.85 -2.45 -109.85 0.35 -109.85 3.4 -111.15 10.8 -91.5 13.8 -71.9 16.35 -55.1 16.35 -31.75 16.35 -11.55 9.8 -4.35 3.45 2.6 -12.95 4.05 L-15.2 4.2 -15.3 4.2 -22.7 3.5 M-36.15 -9.15 L-36.0 -9.4 -33.1 -9.05 -33.35 -9.05 -36.15 -9.15 M-35.65 -10.05 L-35.3 -10.75 -35.65 -10.05 M-17.6 -28.8 Q-1.95 -13.1 4.9 -13.1 6.15 -13.1 6.05 -13.4 -19.15 -26.5 -24.4 -46.15 L-24.9 -45.9 Q-24.9 -42.15 -23.15 -37.5 -21.6 -33.4 -19.35 -30.7 L-19.3 -30.55 -18.85 -30.05 -18.4 -29.6 -17.6 -28.8 M-34.5 -12.45 L-33.9 -12.1 -34.7 -12.1 -34.2 -13.2 -34.5 -12.45" fill="#ffffff" fill-rule="evenodd" stroke="none"/>
    <path d="M31.65 -0.25 L31.7 -0.3 32.35 -0.3 31.75 -0.3 31.65 -0.25 M-37.25 1.4 L-37.25 0.9 -37.3 0.45 Q-30.95 3.4 -24.15 5.2 L-20.95 5.95 Q-16.35 7.4 -13.7 7.55 L-13.4 7.55 0.05 8.1 Q6.9 8.1 11.9 6.9 15.65 6.75 17.15 5.85 20.1 5.25 24.65 3.55 L28.45 2.0 Q31.65 0.75 32.95 -0.05 L33.2 0.4 Q34.15 2.35 30.75 9.8 27.75 16.35 17.5 25.25 11.1 28.45 6.1 29.95 L6.05 29.7 4.65 30.4 3.05 30.75 2.8 30.8 -0.35 31.35 -0.4 31.2 -1.3 31.45 -4.2 31.7 -4.25 31.7 -5.2 31.6 -6.6 31.7 -5.15 31.75 -12.9 31.45 -12.95 31.45 -18.85 30.65 -11.2 31.25 Q0.9 31.25 7.8 25.2 13.55 20.15 17.8 8.6 L17.9 8.45 Q15.6 8.45 11.65 9.3 L7.05 10.1 Q-18.1 10.1 -37.25 1.4 M-17.25 6.75 L-17.45 6.8 -17.75 6.7 -17.85 6.65 -17.25 6.75 M27.85 1.2 L27.65 1.25 27.8 1.15 27.85 1.2 M14.75 6.1 L15.05 6.1 14.65 6.15 14.75 6.1" fill="#21457c" fill-rule="evenodd" stroke="none"/>
    <path d="M17.5 4.85 L17.55 4.85 17.45 4.85 17.5 4.85" fill="#0066cc" fill-rule="evenodd" stroke="none"/>
    <path d="M-37.25 1.4 Q-18.1 10.1 7.05 10.1 L11.65 9.3 Q15.6 8.45 17.9 8.45 L17.8 8.6 Q13.55 20.15 7.8 25.2 0.9 31.25 -11.2 31.25 L-18.85 30.65 Q-24.8 29.1 -29.4 24.6 L-29.4 24.55 Q-32.5 21.4 -34.0 17.3 -36.8 9.6 -37.25 1.4 M-5.15 31.75 L-6.6 31.7 -5.2 31.6 -4.25 31.7 -5.15 31.75 M-1.3 31.45 L-0.4 31.2 -0.35 31.35 -1.3 31.45 M4.65 30.4 L6.05 29.7 6.1 29.95 4.65 30.4" fill="#2b5aa2" fill-rule="evenodd" stroke="none"/>
  </g>
</svg>
