<?xml version="1.0" encoding="UTF-8" standalone="no"?>
<svg xmlns:ffdec="https://www.free-decompiler.com/flash" xmlns:xlink="http://www.w3.org/1999/xlink" ffdec:objectType="shape" height="83.05px" width="83.05px" xmlns="http://www.w3.org/2000/svg">
  <g transform="matrix(1.0, 0.0, 0.0, 1.0, 35.0, 65.0)">
    <path d="M-22.1 -52.15 Q-10.25 -64.0 6.55 -64.0 23.3 -64.0 35.2 -52.15 47.05 -40.25 47.05 -23.45 47.05 -6.7 35.2 5.15 23.3 17.05 6.55 17.05 -0.05 17.05 -5.9 15.2 L1.9 15.95 Q17.65 15.95 28.75 4.8 39.9 -6.3 39.9 -22.05 39.9 -37.75 28.75 -48.9 17.65 -60.0 1.9 -60.0 -10.55 -60.0 -20.15 -53.0 L-22.05 -52.0 -22.1 -52.15" fill="#db9c64" fill-rule="evenodd" stroke="none"/>
    <path d="M-5.9 15.2 Q-9.1 14.2 -12.1 12.65 L-4.3 13.4 Q10.45 13.4 20.9 3.15 31.35 -7.05 31.35 -21.55 31.35 -36.05 20.9 -46.35 10.45 -56.55 -4.3 -56.55 -12.95 -56.55 -20.15 -53.0 -10.55 -60.0 1.9 -60.0 17.65 -60.0 28.75 -48.9 39.9 -37.75 39.9 -22.05 39.9 -6.3 28.75 4.8 17.65 15.95 1.9 15.95 L-5.9 15.2" fill="#f1ba87" fill-rule="evenodd" stroke="none"/>
    <path d="M-12.1 12.65 Q-17.45 9.8 -22.1 5.15 -34.0 -6.7 -34.0 -23.45 -34.0 -37.6 -25.55 -48.25 L-22.55 -51.7 -22.05 -52.0 -20.15 -53.0 Q-12.95 -56.55 -4.3 -56.55 10.45 -56.55 20.9 -46.35 31.35 -36.05 31.35 -21.55 31.35 -7.05 20.9 3.15 10.45 13.4 -4.3 13.4 L-12.1 12.65" fill="#ffcc99" fill-rule="evenodd" stroke="none"/>
    <path d="M-22.55 -51.7 L-22.1 -52.15 -22.05 -52.0 -22.55 -51.7" fill="#edcda3" fill-rule="evenodd" stroke="none"/>
    <path d="M-22.1 -52.15 Q-10.25 -64.0 6.55 -64.0 23.3 -64.0 35.2 -52.15 47.05 -40.25 47.05 -23.45 47.05 -6.7 35.2 5.15 23.3 17.05 6.55 17.05 -0.05 17.05 -5.9 15.2 -9.1 14.2 -12.1 12.65 -17.45 9.8 -22.1 5.15 -34.0 -6.7 -34.0 -23.45 -34.0 -37.6 -25.55 -48.25 L-22.55 -51.7 -22.1 -52.15" fill="none" stroke="#5c4730" stroke-linecap="round" stroke-linejoin="round" stroke-width="2.0"/>
    <path d="M-22.55 -51.7 L-22.05 -52.0" fill="none" stroke="#5c4730" stroke-linecap="round" stroke-linejoin="round" stroke-width="2.0"/>
  </g>
</svg>
