<?xml version="1.0" encoding="UTF-8" standalone="no"?>
<svg xmlns:ffdec="https://www.free-decompiler.com/flash" xmlns:xlink="http://www.w3.org/1999/xlink" ffdec:objectType="shape" height="30.85px" width="41.2px" xmlns="http://www.w3.org/2000/svg">
  <g transform="matrix(1.0, 0.0, 0.0, 1.0, 20.55, 17.1)">
    <path d="M-12.95 0.7 Q-12.1 1.35 -11.1 2.55 L-10.9 2.55 Q-8.95 3.4 -4.05 3.4 0.5 3.4 6.1 1.75 9.5 0.7 12.25 -1.1 13.5 -1.95 16.35 -4.7 17.65 -5.55 18.6 -6.95 L18.2 -12.45 18.1 -13.25 Q11.1 -1.85 -2.5 0.5 L-2.55 0.5 Q-7.85 1.35 -12.95 0.65 L-14.3 0.45 -18.1 -0.4 Q-16.75 1.15 -15.7 2.95 L-15.65 2.95 Q-11.45 10.2 -4.3 11.45 L-4.3 11.4 Q4.45 12.7 11.0 8.85 L12.0 8.25 11.75 8.4 11.7 8.1 11.7 6.85 Q11.55 -0.45 18.05 -0.45 L18.5 -0.4 18.65 -5.25 Q17.2 -3.15 13.7 -0.7 6.25 4.55 -4.4 4.55 -8.4 4.55 -10.5 3.7 L-11.0 3.85 -16.1 0.1 -14.3 0.5 -12.95 0.7 M17.6 -16.45 Q17.8 -16.8 18.2 -16.95 L18.55 -17.0 18.6 -17.0 18.75 -17.1 20.2 -10.35 Q21.05 -5.15 20.25 2.35 L20.0 2.95 19.8 3.35 Q10.75 15.65 -4.6 13.4 -12.65 12.1 -17.4 3.95 -19.45 -0.7 -20.55 -2.55 L-20.15 -2.9 -19.4 -2.95 Q-11.4 -0.15 -2.85 -1.45 11.1 -3.85 17.6 -16.45 M18.35 1.2 L18.4 0.7 Q15.1 0.55 14.1 1.85 L13.3 4.4 Q12.9 5.25 12.65 7.8 15.7 5.55 18.2 2.15 L18.25 2.1 18.35 1.2" fill="#463624" fill-rule="evenodd" stroke="none"/>
    <path d="M-12.95 0.7 L-14.3 0.5 -16.1 0.1 -11.0 3.85 -10.5 3.7 Q-8.4 4.55 -4.4 4.55 6.25 4.55 13.7 -0.7 17.2 -3.15 18.65 -5.25 L18.5 -0.4 18.05 -0.45 Q11.55 -0.45 11.7 6.85 L11.7 8.1 11.75 8.4 12.0 8.25 11.0 8.85 Q4.45 12.7 -4.3 11.4 L-4.3 11.45 Q-11.45 10.2 -15.65 2.95 L-15.7 2.95 Q-16.75 1.15 -18.1 -0.4 L-14.3 0.45 -12.95 0.65 -12.95 0.7" fill="#57352d" fill-rule="evenodd" stroke="none"/>
    <path d="M-12.95 0.65 Q-7.85 1.35 -2.55 0.5 L-2.5 0.5 Q11.1 -1.85 18.1 -13.25 L18.2 -12.45 18.6 -6.95 Q17.65 -5.55 16.35 -4.7 13.5 -1.95 12.25 -1.1 9.5 0.7 6.1 1.75 0.5 3.4 -4.05 3.4 -8.95 3.4 -10.9 2.55 L-11.1 2.55 Q-12.1 1.35 -12.95 0.7 L-12.95 0.65" fill="#e5e5e5" fill-rule="evenodd" stroke="none"/>
    <path d="M18.35 1.2 L18.25 2.1 18.2 2.15 Q15.7 5.55 12.65 7.8 12.9 5.25 13.3 4.4 L14.1 1.85 Q15.1 0.55 18.4 0.7 L18.35 1.2" fill="#b45f50" fill-rule="evenodd" stroke="none"/>
  </g>
</svg>
