<?xml version="1.0" encoding="UTF-8" standalone="no"?>
<svg xmlns:ffdec="https://www.free-decompiler.com/flash" xmlns:xlink="http://www.w3.org/1999/xlink" ffdec:objectType="shape" height="30.85px" width="41.2px" xmlns="http://www.w3.org/2000/svg">
  <g transform="matrix(1.0, 0.0, 0.0, 1.0, 20.55, 17.1)">
    <path d="M-20.55 -2.55 L-20.15 -2.9 -19.4 -2.95 Q-11.4 -0.15 -2.85 -1.45 11.1 -3.85 17.6 -16.45 17.8 -16.8 18.2 -16.95 L18.55 -17.0 18.6 -17.0 18.75 -17.1 20.2 -10.35 Q21.05 -5.15 20.25 2.35 L20.0 2.95 19.8 3.35 Q10.75 15.65 -4.6 13.4 -12.65 12.1 -17.4 3.95 -19.45 -0.7 -20.55 -2.55 M18.6 -7.05 L18.2 -12.45 18.1 -13.25 Q11.1 -1.85 -2.5 0.5 L-2.55 0.5 Q-7.8 1.35 -12.85 0.65 L-13.6 0.5 -13.9 0.55 -14.3 0.45 -18.1 -0.4 -16.95 1.0 -16.4 1.85 -15.7 2.95 -15.65 2.95 -15.6 3.05 -14.9 4.2 -14.9 4.15 -14.7 4.1 -10.65 6.8 -7.9 6.1 -7.5 6.0 -5.4 5.55 -5.25 5.5 -4.35 5.5 -4.25 5.75 -4.3 6.0 -4.35 6.0 Q-6.05 6.35 -9.3 7.55 L-9.8 9.05 -9.8 9.15 -9.85 9.3 -7.7 10.45 Q-6.1 11.1 -4.3 11.45 L-4.3 11.4 Q4.45 12.7 11.0 8.85 L11.45 8.6 11.75 8.4 15.55 5.2 16.15 4.6 18.2 2.15 18.25 2.1 18.25 2.05 18.5 2.05 18.55 1.25 Q17.6 0.45 17.05 0.45 14.8 0.45 13.05 1.25 L13.0 1.3 12.95 1.3 12.4 1.65 11.35 2.2 11.3 2.2 11.2 2.2 10.7 2.2 10.6 2.0 Q10.6 1.6 12.0 0.95 L12.45 0.75 12.5 0.75 13.0 0.55 13.95 0.2 14.05 0.15 14.2 0.1 Q17.15 -0.9 17.35 -1.15 18.1 -2.25 18.65 -3.9 L18.65 -3.15 18.7 -3.95 18.7 -4.0 18.65 -6.15 18.55 -6.85 18.6 -6.95 18.6 -7.05 M11.45 8.6 L10.75 9.15 11.45 8.6 M-10.0 9.2 L-10.85 8.6 -10.9 8.15 Q-10.9 7.9 -12.7 6.7 L-13.3 6.3 -13.15 6.5 -11.45 8.1 -10.0 9.2" fill="#463624" fill-rule="evenodd" stroke="none"/>
    <path d="M-14.9 4.2 L-15.6 3.05 -15.65 2.95 -15.7 2.95 -16.4 1.85 -16.95 1.0 -18.1 -0.4 -14.3 0.45 -13.9 0.55 -13.6 0.5 -12.85 0.65 Q-7.8 1.35 -2.55 0.5 L-2.5 0.5 Q11.1 -1.85 18.1 -13.25 L18.2 -12.45 18.6 -7.05 18.55 -7.0 18.45 -6.85 18.55 -6.85 18.65 -6.15 18.7 -4.0 18.7 -3.95 18.65 -3.9 Q18.1 -2.25 17.35 -1.15 17.15 -0.9 14.2 0.1 L14.05 0.15 13.95 0.2 13.0 0.55 12.5 0.75 12.45 0.75 12.25 0.75 12.0 0.95 Q10.6 1.6 10.6 2.0 L10.7 2.2 11.2 2.2 11.3 2.2 11.35 2.2 12.4 1.65 12.95 1.3 13.0 1.3 13.05 1.3 13.05 1.25 Q14.8 0.45 17.05 0.45 17.6 0.45 18.55 1.25 L18.5 2.05 18.25 2.05 18.25 2.1 18.2 2.15 16.15 4.6 15.55 5.2 Q15.35 1.95 12.75 1.95 L10.3 2.65 10.05 2.6 9.95 2.3 Q9.95 1.6 14.0 -1.45 L14.95 -3.05 11.75 -1.2 Q7.0 0.85 5.2 1.3 -1.15 2.8 -4.9 2.8 L-13.4 2.05 -16.15 1.25 Q-12.6 5.55 -7.3 5.55 L-3.0 5.3 -0.45 5.4 Q-0.35 5.45 -0.4 5.65 -1.55 6.4 -5.2 7.95 -6.6 8.85 -7.1 10.65 L-7.7 10.45 -9.85 9.3 -9.8 9.15 -9.8 9.1 -9.8 9.05 -9.3 7.55 Q-6.05 6.35 -4.35 6.0 L-4.3 6.0 -4.25 5.75 -4.35 5.5 -5.25 5.5 -5.4 5.55 -7.5 6.0 -7.9 6.1 -10.65 6.8 -14.7 4.1 -14.9 4.15 -14.9 4.2" fill="#e5e5e5" fill-rule="evenodd" stroke="none"/>
    <path d="M-9.8 9.15 L-9.8 9.05 -9.8 9.1 -9.8 9.15 M-10.0 9.2 L-11.45 8.1 -13.15 6.5 -13.3 6.3 -12.7 6.7 Q-10.9 7.9 -10.9 8.15 L-10.85 8.6 -10.0 9.2" fill="#57352d" fill-rule="evenodd" stroke="none"/>
    <path d="M18.6 -7.05 L18.6 -6.95 18.55 -6.85 18.45 -6.85 18.55 -7.0 18.6 -7.05 M12.45 0.75 L12.0 0.95 12.25 0.75 12.45 0.75 M13.0 1.3 L13.05 1.25 13.05 1.3 13.0 1.3 M15.55 5.2 L11.75 8.4 11.45 8.6 11.0 8.85 Q4.45 12.7 -4.3 11.4 L-4.3 11.45 Q-6.1 11.1 -7.7 10.45 L-7.1 10.65 Q-6.6 8.85 -5.2 7.95 -1.55 6.4 -0.4 5.65 -0.35 5.45 -0.45 5.4 L-3.0 5.3 -7.3 5.55 Q-12.6 5.55 -16.15 1.25 L-13.4 2.05 -4.9 2.8 Q-1.15 2.8 5.2 1.3 7.0 0.85 11.75 -1.2 L14.95 -3.05 14.0 -1.45 Q9.95 1.6 9.95 2.3 L10.05 2.6 10.3 2.65 12.75 1.95 Q15.35 1.95 15.55 5.2" fill="#f9f9f9" fill-rule="evenodd" stroke="none"/>
  </g>
</svg>
