<?xml version="1.0" encoding="UTF-8" standalone="no"?>
<svg xmlns:ffdec="https://www.free-decompiler.com/flash" xmlns:xlink="http://www.w3.org/1999/xlink" ffdec:objectType="shape" height="14.65px" width="27.85px" xmlns="http://www.w3.org/2000/svg">
  <g transform="matrix(1.0, 0.0, 0.0, 1.0, 8.6, 5.5)">
    <path d="M18.5 -2.8 Q19.25 -1.7 19.25 0.75 19.25 3.2 15.85 5.75 11.35 9.1 3.75 9.1 L-0.85 9.0 -0.9 9.0 -2.1 9.15 Q-9.0 9.15 -8.55 3.55 L-8.45 2.75 Q-7.8 -0.2 -1.65 -2.8 4.65 -5.5 11.0 -5.5 16.75 -5.5 18.5 -2.8 M-5.25 7.2 L-5.05 7.3 -4.1 7.7 Q7.65 8.85 13.0 5.7 17.35 3.15 17.35 0.4 17.35 -3.75 9.75 -3.75 1.95 -3.75 -3.3 -0.45 -5.4 0.85 -7.05 2.35 L-6.35 3.3 -5.75 4.05 Q-3.95 2.35 1.75 2.1 L3.0 2.35 3.1 2.5 -1.25 3.85 -4.0 5.45 -4.0 5.5 -4.1 5.7 -5.15 7.0 -5.5 7.1 -5.25 7.2" fill="#463624" fill-rule="evenodd" stroke="none"/>
    <path d="M-5.15 7.0 L-4.1 5.7 -4.0 5.5 -4.0 5.45 -1.25 3.85 3.1 2.5 3.0 2.35 1.75 2.1 Q-3.95 2.35 -5.75 4.05 L-6.35 3.3 -7.05 2.35 Q-5.4 0.85 -3.3 -0.45 1.95 -3.75 9.75 -3.75 17.35 -3.75 17.35 0.4 17.35 3.15 13.0 5.7 7.65 8.85 -4.1 7.7 L-5.05 7.3 -5.25 7.2 -5.15 7.0" fill="#e5e5e5" fill-rule="evenodd" stroke="none"/>
  </g>
</svg>
