<?xml version="1.0" encoding="UTF-8" standalone="no"?>
<svg xmlns:ffdec="https://www.free-decompiler.com/flash" xmlns:xlink="http://www.w3.org/1999/xlink" ffdec:objectType="shape" height="79.0px" width="353.95px" xmlns="http://www.w3.org/2000/svg">
  <g transform="matrix(1.0, 0.0, 0.0, 1.0, -118.0, -218.0)">
    <path d="M460.95 219.0 Q470.95 219.0 470.95 229.0 L470.95 286.0 Q470.95 296.0 460.95 296.0 L129.0 296.0 Q119.0 296.0 119.0 286.0 L119.0 229.0 Q119.0 219.0 129.0 219.0 L460.95 219.0" fill="#ffffff" fill-rule="evenodd" stroke="none"/>
    <path d="M460.95 219.0 L129.0 219.0 Q119.0 219.0 119.0 229.0 L119.0 286.0 Q119.0 296.0 129.0 296.0 L460.95 296.0 Q470.95 296.0 470.95 286.0 L470.95 229.0 Q470.95 219.0 460.95 219.0 Z" fill="none" stroke="#655952" stroke-linecap="round" stroke-linejoin="round" stroke-width="2.0"/>
  </g>
</svg>
