<?xml version="1.0" encoding="UTF-8" standalone="no"?>
<svg xmlns:ffdec="https://www.free-decompiler.com/flash" xmlns:xlink="http://www.w3.org/1999/xlink" ffdec:objectType="shape" height="21.1px" width="32.35px" xmlns="http://www.w3.org/2000/svg">
  <g transform="matrix(1.0, 0.0, 0.0, 1.0, 35.4, -10.65)">
    <path d="M-4.55 12.75 Q-4.25 13.15 -4.25 13.75 -4.25 18.75 -6.75 23.25 -11.45 31.75 -23.1 31.75 -27.25 31.75 -28.8 31.0 -30.9 30.0 -31.75 26.75 -32.25 24.9 -34.25 21.4 L-34.25 21.0 -34.1 20.95 -33.9 21.3 -32.5 21.95 Q-31.75 23.1 -30.75 25.5 L-29.55 28.0 Q-29.25 28.65 -29.5 29.35 L-23.45 29.75 -19.95 29.6 Q-18.2 22.75 -11.5 22.75 -9.6 22.75 -8.1 23.45 L-8.5 24.0 -7.2 21.7 Q-6.3 19.55 -5.75 15.85 L-5.55 14.65 Q-4.85 13.75 -4.65 13.05 L-4.6 12.9 -4.55 12.75 M-18.85 29.45 Q-12.15 28.5 -8.9 24.55 -10.9 23.85 -11.45 23.85 -16.2 23.85 -17.9 26.75 -18.5 27.8 -18.85 29.45" fill="#463623" fill-rule="evenodd" stroke="none"/>
    <path d="M-32.5 21.95 Q-29.45 23.05 -23.55 22.9 -16.1 22.65 -10.65 18.95 -7.0 16.45 -5.55 14.65 L-5.75 15.85 Q-6.3 19.55 -7.2 21.7 L-8.5 24.0 -8.1 23.45 Q-9.6 22.75 -11.5 22.75 -18.2 22.75 -19.95 29.6 L-23.45 29.75 -29.5 29.35 Q-29.25 28.65 -29.55 28.0 L-30.75 25.5 Q-31.75 23.1 -32.5 21.95" fill="#57352d" fill-rule="evenodd" stroke="none"/>
    <path d="M-34.1 20.95 L-35.4 18.7 Q-25.7 22.0 -15.95 18.7 -9.2 16.25 -4.35 10.85 L-3.55 10.75 Q-2.65 10.85 -3.35 10.85 -4.0 10.85 -4.55 12.75 L-4.6 12.9 -4.65 13.05 Q-4.85 13.75 -5.55 14.65 -7.0 16.45 -10.65 18.95 -16.1 22.65 -23.55 22.9 -29.45 23.05 -32.5 21.95 L-33.9 21.3 -34.1 20.95" fill="#463624" fill-rule="evenodd" stroke="none"/>
    <path d="M-18.85 29.45 Q-18.5 27.8 -17.9 26.75 -16.2 23.85 -11.45 23.85 -10.9 23.85 -8.9 24.55 -12.15 28.5 -18.85 29.45" fill="#b45f50" fill-rule="evenodd" stroke="none"/>
  </g>
</svg>
