<?xml version="1.0" encoding="UTF-8" standalone="no"?>
<svg xmlns:ffdec="https://www.free-decompiler.com/flash" xmlns:xlink="http://www.w3.org/1999/xlink" ffdec:objectType="shape" height="20.1px" width="32.35px" xmlns="http://www.w3.org/2000/svg">
  <g transform="matrix(1.0, 0.0, 0.0, 1.0, 14.65, 7.45)">
    <path d="M16.6 -6.45 L16.75 -5.3 Q16.75 -3.5 15.25 3.8 14.15 9.55 -1.0 12.65 -9.15 12.65 -9.15 9.65 -9.15 8.75 -10.95 6.0 L-12.55 3.55 -13.15 3.2 -14.65 0.6 Q-4.95 3.9 4.8 0.6 11.55 -1.85 16.4 -7.25 L17.2 -7.35 Q18.1 -7.25 17.4 -7.25 17.0 -7.25 16.6 -6.45 M9.85 7.95 Q15.25 5.2 14.75 1.95 14.25 -1.25 15.35 -3.75 12.6 -0.85 8.2 1.25 3.8 3.3 -2.15 4.0 -8.2 4.7 -12.5 2.85 -9.9 5.3 -8.75 7.25 -8.45 7.75 -8.3 8.35 L-6.85 8.15 -2.5 8.4 Q-2.1 8.4 -2.0 8.7 L-2.45 8.8 -7.8 10.1 -2.05 10.65 Q4.45 10.65 9.85 7.95" fill="#463624" fill-rule="evenodd" stroke="none"/>
    <path d="M9.85 7.95 Q4.45 10.65 -2.05 10.65 L-7.8 10.1 -2.45 8.8 -2.0 8.7 Q-2.1 8.4 -2.5 8.4 L-6.85 8.15 -8.3 8.35 Q-8.45 7.75 -8.75 7.25 -9.9 5.3 -12.5 2.85 -8.2 4.7 -2.15 4.0 3.8 3.3 8.2 1.25 12.6 -0.85 15.35 -3.75 14.25 -1.25 14.75 1.95 15.25 5.2 9.85 7.95" fill="#e5e5e5" fill-rule="evenodd" stroke="none"/>
  </g>
</svg>
