<?xml version="1.0" encoding="UTF-8" standalone="no"?>
<svg xmlns:ffdec="https://www.free-decompiler.com/flash" xmlns:xlink="http://www.w3.org/1999/xlink" ffdec:objectType="shape" height="16.6px" width="36.9px" xmlns="http://www.w3.org/2000/svg">
  <g transform="matrix(1.0, 0.0, 0.0, 1.0, 19.35, -1.05)">
    <path d="M12.5 1.15 Q13.4 1.25 12.7 1.25 12.45 1.25 12.25 1.5 17.0 1.55 17.55 8.75 14.5 17.85 9.5 17.65 4.45 17.4 -1.5 16.15 -7.2 14.95 -10.7 13.3 -15.6 13.1 -17.85 11.7 L-19.35 9.1 Q-9.65 12.4 0.1 9.1 6.85 6.65 11.7 1.25 L12.5 1.15 M15.55 8.5 Q15.55 5.55 10.9 4.55 9.55 6.5 5.4 9.35 1.45 12.0 -3.55 12.9 L0.3 13.8 6.55 15.1 7.7 15.55 Q7.6 15.4 7.85 13.95 8.05 12.5 9.2 10.2 10.35 7.85 12.05 7.9 13.75 7.9 15.05 8.4 L15.55 8.6 15.55 8.5 M15.1 10.0 L11.55 9.75 Q10.3 9.75 9.45 12.4 8.75 14.45 9.1 15.75 9.4 15.4 10.85 15.4 12.2 15.4 13.95 12.25 L15.15 10.0 15.3 9.6 15.1 10.0" fill="#463624" fill-rule="evenodd" stroke="none"/>
    <path d="M15.1 10.0 L15.15 10.0 13.95 12.25 Q12.2 15.4 10.85 15.4 9.4 15.4 9.1 15.75 8.75 14.45 9.45 12.4 10.3 9.75 11.55 9.75 L15.1 10.0" fill="#b45f50" fill-rule="evenodd" stroke="none"/>
    <path d="M15.55 8.6 L15.05 8.4 Q13.75 7.9 12.05 7.9 10.35 7.85 9.2 10.2 8.05 12.5 7.85 13.95 7.6 15.4 7.7 15.55 L6.55 15.1 0.3 13.8 -3.55 12.9 Q1.45 12.0 5.4 9.35 9.55 6.5 10.9 4.55 15.55 5.55 15.55 8.5 L15.55 8.6" fill="#57352d" fill-rule="evenodd" stroke="none"/>
  </g>
</svg>
