<?xml version="1.0" encoding="UTF-8" standalone="no"?>
<svg xmlns:ffdec="https://www.free-decompiler.com/flash" xmlns:xlink="http://www.w3.org/1999/xlink" ffdec:objectType="shape" height="9.0px" width="18.3px" xmlns="http://www.w3.org/2000/svg">
  <g transform="matrix(1.0, 0.0, 0.0, 1.0, 14.05, -2.15)">
    <path d="M1.1 5.6 L0.5 5.0 Q-13.0 2.7 -13.0 7.8 -13.0 10.05 -11.5 10.05 -2.25 10.05 2.15 7.0 1.8 6.0 1.1 5.6 M3.1 7.85 L2.9 8.05 2.75 8.15 Q1.75 8.85 -0.5 9.65 -4.9 11.15 -9.75 11.15 -14.8 11.15 -13.9 7.8 -13.9 4.6 -7.5 3.55 L-6.7 3.4 -6.4 3.4 Q-5.85 2.15 -2.1 2.15 4.65 2.15 4.25 6.15 4.15 7.5 3.5 8.15 L3.3 7.65 3.1 7.85" fill="#463624" fill-rule="evenodd" stroke="none"/>
    <path d="M1.1 5.6 Q1.8 6.0 2.15 7.0 -2.25 10.05 -11.5 10.05 -13.0 10.05 -13.0 7.8 -13.0 2.7 0.5 5.0 L1.1 5.6" fill="#b45f50" fill-rule="evenodd" stroke="none"/>
  </g>
</svg>
