<?xml version="1.0" encoding="UTF-8" standalone="no"?>
<svg xmlns:ffdec="https://www.free-decompiler.com/flash" xmlns:xlink="http://www.w3.org/1999/xlink" ffdec:objectType="shape" height="9.0px" width="17.25px" xmlns="http://www.w3.org/2000/svg">
  <g transform="matrix(1.0, 0.0, 0.0, 1.0, 13.5, -1.9)">
    <path d="M2.5 6.15 Q2.5 7.9 1.75 8.0 L-10.0 9.3 -10.15 9.05 Q-10.75 5.9 -12.15 4.4 -10.95 3.0 -7.0 3.0 2.5 3.0 2.5 6.15" fill="#57352d" fill-rule="evenodd" stroke="none"/>
    <path d="M2.6 9.05 Q1.3 10.45 -1.75 10.15 L-6.75 9.9 -10.5 10.9 -13.5 4.3 Q-13.5 2.9 -6.75 2.0 L-4.75 1.9 Q-0.05 1.9 2.2 3.6 3.75 4.75 3.75 6.15 L3.25 7.7 2.6 9.05 M2.5 6.15 Q2.5 3.0 -7.0 3.0 -10.95 3.0 -12.15 4.4 -10.75 5.9 -10.15 9.05 L-10.0 9.3 1.75 8.0 Q2.5 7.9 2.5 6.15" fill="#463624" fill-rule="evenodd" stroke="none"/>
  </g>
</svg>
