<?xml version="1.0" encoding="UTF-8" standalone="no"?>
<svg xmlns:ffdec="https://www.free-decompiler.com/flash" xmlns:xlink="http://www.w3.org/1999/xlink" ffdec:objectType="shape" height="7.5px" width="18.35px" xmlns="http://www.w3.org/2000/svg">
  <g transform="matrix(1.0, 0.0, 0.0, 1.0, 16.75, -3.15)">
    <path d="M0.25 4.05 L-15.5 5.15 Q-14.35 7.65 -14.15 8.75 -14.55 8.9 -13.9 8.9 -12.05 7.05 -7.25 7.05 -4.0 7.05 -1.8 7.9 -0.65 8.3 0.25 8.9 L0.5 6.55 0.25 4.05 M1.5 6.45 L1.25 10.25 0.75 10.4 Q-2.7 8.3 -7.2 8.3 -10.55 8.3 -12.45 9.35 L-14.25 10.65 -15.6 8.0 -16.75 5.05 Q-16.75 3.15 -3.35 3.15 0.35 3.15 1.3 4.8 1.75 5.65 1.5 6.45" fill="#463624" fill-rule="evenodd" stroke="none"/>
    <path d="M0.25 4.05 L0.5 6.55 0.25 8.9 Q-0.65 8.3 -1.8 7.9 -4.0 7.05 -7.25 7.05 -12.05 7.05 -13.9 8.9 -14.55 8.9 -14.15 8.75 -14.35 7.65 -15.5 5.15 L0.25 4.05" fill="#e5e5e5" fill-rule="evenodd" stroke="none"/>
  </g>
</svg>
