<?xml version="1.0" encoding="UTF-8" standalone="no"?>
<svg xmlns:ffdec="https://www.free-decompiler.com/flash" xmlns:xlink="http://www.w3.org/1999/xlink" ffdec:objectType="shape" height="68.05px" width="112.6px" xmlns="http://www.w3.org/2000/svg">
  <g transform="matrix(1.0, 0.0, 0.0, 1.0, 54.05, 33.45)">
    <path d="M-24.9 11.25 Q-29.65 12.3 -33.3 16.4 -36.65 20.2 -38.85 24.65 -39.95 26.9 -42.05 27.0 L-42.2 27.6 Q-42.45 23.85 -40.35 18.25 -38.3 12.85 -35.3 8.1 L-33.45 5.15 Q-34.1 2.65 -39.15 5.4 -44.25 8.1 -47.9 10.75 -51.6 13.35 -54.05 14.55 -53.35 5.15 -46.55 -2.1 -43.6 -5.25 -40.0 -7.4 -32.2 -12.05 -23.1 -13.3 -24.35 -18.8 -29.0 -22.4 -31.95 -24.75 -35.25 -26.9 -38.05 -28.75 -41.35 -28.65 -35.85 -31.3 -29.9 -31.15 -23.0 -30.35 -16.3 -28.4 L4.65 -22.15 -2.2 -32.55 Q2.15 -34.4 7.15 -32.35 11.9 -30.45 16.0 -27.15 22.05 -22.4 26.65 -16.0 30.25 -15.2 33.7 -17.0 36.6 -18.65 39.35 -20.8 L44.9 -25.5 43.45 -13.2 Q48.75 -14.3 51.8 -18.85 52.75 -20.3 54.25 -20.3 56.25 -15.95 55.2 -10.35 54.1 -4.6 52.0 0.85 L50.9 3.55 58.05 0.95 52.8 15.65 58.55 16.2 51.5 32.35 Q50.65 32.25 50.75 34.6 L50.55 32.15 50.55 32.55 50.5 32.85 50.45 33.15 50.4 33.35 50.35 33.4 Q49.35 32.8 48.8 31.65 L46.9 27.8 Q44.1 22.05 38.2 19.8 L36.45 18.8 36.3 18.5 38.5 13.95 27.05 10.3 Q25.65 10.55 26.3 8.9 28.7 5.6 33.05 5.15 L37.35 4.4 30.45 3.55 Q32.8 3.75 30.15 3.45 L30.45 3.55 29.25 3.5 Q24.35 2.7 19.45 3.5 14.35 4.4 9.9 7.0 5.45 9.5 2.0 13.2 L-3.3 21.05 -7.3 16.25 -8.8 10.1 -13.7 15.55 -17.9 25.15 -22.0 17.9 -22.5 12.1 -24.9 11.25 M10.9 -28.4 L0.75 -31.25 12.25 -16.25 Q10.0 -16.65 8.0 -17.5 L3.1 -19.65 Q-13.8 -26.9 -32.15 -28.7 L-35.55 -28.8 Q-27.6 -25.85 -21.85 -18.8 -20.55 -17.15 -20.35 -15.1 L-14.65 -13.25 Q-18.3 -13.15 -20.9 -11.7 L-21.9 -11.4 Q-30.85 -10.45 -38.8 -5.7 -48.85 0.35 -52.45 11.95 L-41.35 3.7 -25.55 -1.45 -26.6 0.55 Q-36.7 8.8 -40.0 21.55 L-38.2 18.85 Q-31.95 9.85 -21.25 9.0 L-18.45 21.7 Q-15.75 11.7 -6.75 6.4 L-3.9 18.25 -2.2 15.65 Q0.4 11.85 3.9 9.05 7.45 6.1 11.75 4.45 15.6 3.1 19.6 2.15 L27.05 0.8 Q31.45 0.5 35.55 1.65 39.7 2.65 39.1 5.15 L34.25 7.55 28.1 9.85 Q33.4 8.45 38.5 10.9 40.85 12.0 42.0 13.5 L39.25 17.25 39.1 17.45 Q44.45 18.8 48.1 22.95 L51.4 26.7 52.35 24.45 52.75 23.65 53.85 21.65 53.95 21.45 54.75 20.25 55.0 19.85 50.95 16.45 55.5 3.65 46.65 7.05 Q49.3 3.8 50.5 -0.15 L52.05 -6.55 Q53.0 -11.55 53.2 -16.7 L50.5 -13.55 Q46.85 -9.25 41.55 -10.3 L41.4 -10.5 43.3 -21.65 Q38.8 -17.05 31.8 -14.1 L31.5 -13.95 18.65 -8.8 21.95 -10.65 22.7 -11.05 Q23.75 -11.05 24.5 -11.75 25.2 -12.45 25.2 -13.4 L21.05 -20.0 10.9 -28.4 M39.1 17.45 L39.05 17.45 39.1 17.45 M40.5 1.1 L45.55 0.7 Q45.5 3.9 42.0 4.7 L41.2 4.75 43.65 2.15 40.5 1.1 M45.1 15.35 L47.8 13.65 45.9 10.95 48.7 12.2 Q49.05 12.4 49.0 12.55 48.0 16.1 45.1 15.35" fill="#3e170b" fill-rule="evenodd" stroke="none"/>
    <path d="M-41.35 3.7 L-52.45 11.95 Q-48.85 0.35 -38.8 -5.7 -30.85 -10.45 -21.9 -11.4 L-20.9 -11.7 Q-18.3 -13.15 -14.65 -13.25 L-20.35 -15.1 Q-20.55 -17.15 -21.85 -18.8 -27.6 -25.85 -35.55 -28.8 L-32.15 -28.7 Q-13.8 -26.9 3.1 -19.65 L8.0 -17.5 Q10.0 -16.65 12.25 -16.25 L0.75 -31.25 10.9 -28.4 21.95 -10.65 18.65 -8.8 31.5 -13.95 33.8 -14.35 31.8 -14.1 Q38.8 -17.05 43.3 -21.65 L41.4 -10.5 41.55 -10.3 Q46.85 -9.25 50.5 -13.55 50.45 -8.2 49.05 -3.1 47.7 1.9 44.1 5.35 42.9 6.45 42.65 7.5 43.15 5.2 40.85 6.0 L40.35 6.15 Q40.6 4.95 39.6 5.2 L39.1 5.15 Q39.7 2.65 35.55 1.65 31.45 0.5 27.05 0.8 L19.6 2.15 Q15.6 3.1 11.75 4.45 7.45 6.1 3.9 9.05 0.4 11.85 -2.2 15.65 L-3.9 18.25 -6.75 6.4 Q-15.75 11.7 -18.45 21.7 L-21.25 9.0 Q-31.95 9.85 -38.2 18.85 L-40.0 21.55 Q-36.7 8.8 -26.6 0.55 L-24.0 -0.45 Q-26.9 -4.7 -33.55 -0.7 L-36.75 1.0 -33.2 0.2 -41.35 3.7 M25.2 -13.4 Q25.2 -12.45 24.5 -11.75 23.75 -11.05 22.7 -11.05 L25.2 -13.4 M55.0 19.85 L54.75 20.25 54.65 19.85 55.0 19.85 M53.95 21.45 L53.85 21.65 53.75 21.4 53.95 21.45 M52.75 23.65 L52.35 24.45 50.95 22.2 52.75 23.65 M39.1 17.45 L39.05 17.45 39.1 17.45 M39.25 17.25 L42.0 13.5 Q40.85 12.0 38.5 10.9 33.4 8.45 28.1 9.85 L34.25 7.55 Q37.75 11.75 42.3 9.0 L43.9 9.45 44.25 10.7 45.55 10.45 Q48.3 9.55 48.7 12.2 L45.9 10.95 47.8 13.65 45.1 15.35 41.5 16.4 Q43.6 17.8 42.2 17.0 L39.25 17.25 M16.05 -8.05 Q10.95 -9.05 6.1 -7.9 1.35 -7.05 -3.15 -5.0 L-8.95 -2.05 -1.45 -0.7 -4.9 12.4 Q0.3 7.4 3.35 0.05 4.05 -1.7 5.6 -2.9 10.15 -6.65 16.05 -8.05 M13.25 -11.25 L9.4 -13.45 -18.7 -23.55 -14.1 -21.5 -15.65 -20.95 Q-11.4 -20.05 -8.0 -18.65 L-8.65 -18.6 -1.55 -16.35 -3.8 -16.0 3.5 -13.05 -0.45 -12.55 3.75 -11.35 -1.05 -11.3 -0.15 -11.1 Q0.9 -10.75 -1.05 -10.5 L-1.4 -10.45 13.25 -11.25 M8.8 -7.35 Q5.95 -6.85 9.05 -7.45 L8.8 -7.35 M35.9 -6.2 L32.15 -1.55 47.1 -7.85 42.5 -8.45 Q42.4 -8.65 42.25 -8.0 L40.1 -9.65 40.1 -9.95 37.6 -8.2 40.0 -15.35 27.0 -7.15 34.55 -8.55 33.45 -6.8 35.9 -6.2 M41.05 -2.05 L44.1 -2.55 48.8 -7.85 41.05 -2.05 M41.65 8.0 L41.55 8.15 41.4 7.95 41.65 8.0 M40.9 7.35 L40.25 6.8 Q41.55 6.4 41.15 7.05 L40.9 7.35 M40.5 1.1 L43.65 2.15 41.2 4.75 42.0 4.7 Q45.5 3.9 45.55 0.7 L40.5 1.1 M-11.55 -5.35 Q-14.75 -4.8 -17.55 -2.9 -19.95 -1.3 -21.2 1.35 L-16.85 -0.3 -17.35 12.6 -11.55 -5.35 M-17.85 -0.85 Q-19.05 -0.8 -17.5 -1.1 L-17.85 -0.85 M-4.6 -18.1 Q-8.45 -18.6 -5.65 -18.35 L-4.6 -18.1 M-33.6 -6.95 Q-36.6 -5.55 -36.95 -4.15 L-22.05 -7.75 -28.45 -4.8 -14.6 -9.4 -19.4 -9.7 -16.55 -10.4 -25.3 -10.05 Q-29.55 -8.8 -33.6 -6.95 M-15.25 1.15 L-15.25 -0.35 Q-14.6 0.0 -15.25 1.15" fill="#764928" fill-rule="evenodd" stroke="none"/>
    <path d="M8.8 -7.35 L9.05 -7.45 Q5.95 -6.85 8.8 -7.35 M13.25 -11.25 L-1.4 -10.45 -1.05 -10.5 Q0.9 -10.75 -0.15 -11.1 L-1.05 -11.3 3.75 -11.35 -0.45 -12.55 3.5 -13.05 -3.8 -16.0 -1.55 -16.35 -8.65 -18.6 -8.0 -18.65 Q-11.4 -20.05 -15.65 -20.95 L-14.1 -21.5 -18.7 -23.55 9.4 -13.45 13.25 -11.25 M16.05 -8.05 Q10.15 -6.65 5.6 -2.9 4.05 -1.7 3.35 0.05 0.3 7.4 -4.9 12.4 L-1.45 -0.7 -8.95 -2.05 -3.15 -5.0 Q1.35 -7.05 6.1 -7.9 10.95 -9.05 16.05 -8.05 M37.6 -8.2 L37.15 -6.55 35.9 -6.2 33.45 -6.8 34.55 -8.55 27.0 -7.15 40.0 -15.35 37.6 -8.2 M41.05 -2.05 L48.8 -7.85 44.1 -2.55 41.05 -2.05 M42.65 7.5 L44.05 8.2 41.65 8.0 41.4 7.95 40.6 7.9 40.9 7.35 41.15 7.05 Q41.55 6.4 40.25 6.8 L39.95 6.6 40.35 6.15 40.85 6.0 Q43.15 5.2 42.65 7.5 M-33.6 -6.95 Q-29.55 -8.8 -25.3 -10.05 L-16.55 -10.4 -19.4 -9.7 -14.6 -9.4 -28.45 -4.8 -22.05 -7.75 -36.95 -4.15 Q-36.6 -5.55 -33.6 -6.95 M-4.6 -18.1 L-5.65 -18.35 Q-8.45 -18.6 -4.6 -18.1 M-17.85 -0.85 L-17.5 -1.1 Q-19.05 -0.8 -17.85 -0.85 M-11.55 -5.35 L-17.35 12.6 -16.85 -0.3 -21.2 1.35 Q-19.95 -1.3 -17.55 -2.9 -14.75 -4.8 -11.55 -5.35 M-15.25 1.15 Q-14.6 0.0 -15.25 -0.35 L-15.25 1.15" fill="#915931" fill-rule="evenodd" stroke="none"/>
    <path d="M10.9 -28.4 L21.05 -20.0 25.2 -13.4 22.7 -11.05 21.95 -10.65 10.9 -28.4 M31.5 -13.95 L31.8 -14.1 33.8 -14.35 31.5 -13.95 M50.5 -13.55 L53.2 -16.7 Q53.0 -11.55 52.05 -6.55 L50.5 -0.15 Q49.3 3.8 46.65 7.05 L55.5 3.65 50.95 16.45 55.0 19.85 54.65 19.85 54.75 20.25 53.95 21.45 53.75 21.4 53.85 21.65 52.75 23.65 50.95 22.2 52.35 24.45 51.4 26.7 48.1 22.95 Q44.45 18.8 39.1 17.45 L39.25 17.25 42.2 17.0 Q43.6 17.8 41.5 16.4 L45.1 15.35 Q48.0 16.1 49.0 12.55 49.05 12.4 48.7 12.2 48.3 9.55 45.55 10.45 L44.25 10.7 43.9 9.45 42.3 9.0 Q37.75 11.75 34.25 7.55 L39.1 5.15 39.6 5.2 Q40.6 4.95 40.35 6.15 L39.95 6.6 40.25 6.8 40.9 7.35 40.6 7.9 41.4 7.95 41.55 8.15 41.65 8.0 44.05 8.2 42.65 7.5 Q42.9 6.45 44.1 5.35 47.7 1.9 49.05 -3.1 50.45 -8.2 50.5 -13.55 M-26.6 0.55 L-25.55 -1.45 -41.35 3.7 -33.2 0.2 -36.75 1.0 -33.55 -0.7 Q-26.9 -4.7 -24.0 -0.45 L-26.6 0.55 M37.6 -8.2 L40.1 -9.95 40.1 -9.65 42.25 -8.0 Q42.4 -8.65 42.5 -8.45 L47.1 -7.85 32.15 -1.55 35.9 -6.2 37.15 -6.55 37.6 -8.2" fill="#653f23" fill-rule="evenodd" stroke="none"/>
    <path d="M-24.9 11.25 L-22.5 12.1 -22.0 17.9 -27.15 23.1 -24.9 11.25 M-13.7 15.55 L-8.8 10.1 -7.3 16.25 -7.55 23.45 -13.7 15.55 M2.0 13.2 Q5.45 9.5 9.9 7.0 14.35 4.4 19.45 3.5 24.35 2.7 29.25 3.5 26.2 3.45 23.35 4.6 18.4 6.65 14.35 10.05 10.25 13.4 7.4 17.7 L5.55 20.65 2.0 13.2" fill="#f1ba87" fill-rule="evenodd" stroke="none"/>
  </g>
</svg>
