<?xml version="1.0" encoding="UTF-8" standalone="no"?>
<svg xmlns:ffdec="https://www.free-decompiler.com/flash" xmlns:xlink="http://www.w3.org/1999/xlink" ffdec:objectType="shape" height="170.0px" width="87.0px" xmlns="http://www.w3.org/2000/svg">
  <g transform="matrix(1.0, 0.0, 0.0, 1.0, 42.65, 136.35)">
    <path d="M1.6 -116.45 Q0.9 -112.85 -0.75 -109.8 -5.5 -101.15 -7.45 -91.45 L-7.75 -106.7 1.6 -116.45 M-9.9 -95.45 L-11.45 -111.7 -9.75 -109.6 -9.9 -95.45" fill="#b42b12" fill-rule="evenodd" stroke="none"/>
    <path d="M2.05 -120.9 L1.6 -116.45 -7.75 -106.7 -7.45 -91.45 -8.9 -85.1 -9.9 -95.45 -9.75 -109.6 -11.45 -111.7 -12.05 -118.95 Q-11.55 -114.4 -8.1 -111.05 L-7.7 -110.8 Q-3.3 -114.05 0.85 -118.45 1.85 -119.5 2.05 -120.9 M-11.8 -120.5 Q-10.8 -127.0 -5.35 -129.75 L-4.0 -130.35 Q0.25 -130.35 1.5 -125.9 -0.6 -130.1 -4.8 -129.4 -5.65 -129.5 -6.35 -129.0 -10.45 -125.8 -11.8 -120.5" fill="#430e06" fill-rule="evenodd" stroke="none"/>
    <path d="M39.15 -1.65 Q37.95 8.2 32.1 16.25 26.5 24.0 18.25 28.7 9.5 33.6 -0.55 33.65 -10.5 33.65 -19.3 28.65 -27.7 23.95 -33.35 15.9 -39.35 7.35 -40.45 -3.05 L-38.05 -0.6 Q-36.55 8.15 -30.95 15.7 -25.85 22.65 -18.4 26.9 -10.05 31.6 -0.55 31.65 9.65 31.75 17.95 25.9 21.65 23.35 24.45 20.0 30.65 12.4 32.6 2.65 L32.8 -5.8 33.8 -6.2 33.3 5.55 Q36.3 3.8 36.55 0.4 L37.0 -7.55 38.0 -8.0 37.75 -0.4 39.15 -1.65 M18.45 -1.65 L19.5 -1.9 19.6 4.45 19.35 6.9 18.95 9.25 Q17.45 11.15 14.9 11.15 13.85 10.9 13.25 10.45 L13.65 7.8 13.9 5.9 14.0 -0.7 15.0 -0.9 14.3 9.9 18.0 8.9 18.45 -1.65 M-30.2 3.7 L-29.9 7.15 Q-32.3 7.85 -33.95 5.75 L-35.2 4.05 -35.3 1.3 -35.3 -1.15 -35.3 -4.85 -34.3 -4.3 -34.3 3.55 -30.9 6.35 -31.4 -2.65 -30.45 -2.1 -30.4 1.4 -30.2 3.7" fill="#0e1e3a" fill-rule="evenodd" stroke="none"/>
    <path d="M13.65 7.8 L13.25 10.45 Q13.85 10.9 14.9 11.15 17.45 11.15 18.95 9.25 L19.35 6.9 32.6 2.65 Q30.65 12.4 24.45 20.0 21.65 23.35 17.95 25.9 9.65 31.75 -0.55 31.65 -10.05 31.6 -18.4 26.9 -25.85 22.65 -30.95 15.7 -36.55 8.15 -38.05 -0.6 L-35.3 1.3 -35.2 4.05 -33.95 5.75 Q-32.3 7.85 -29.9 7.15 L-30.2 3.7 -22.3 6.25 -21.85 9.55 -21.6 9.7 Q-10.25 13.75 1.45 12.2 L1.7 8.65 13.65 7.8 M12.75 12.4 L7.5 10.45 Q-1.95 15.75 -12.65 14.15 -19.05 13.05 -24.8 9.8 L-24.05 8.75 -26.3 7.4 -28.1 10.6 -34.9 7.2 Q-30.2 19.8 -17.85 25.3 -10.1 28.65 -1.65 27.55 6.5 26.3 12.85 20.7 16.1 17.95 18.5 14.55 L17.85 12.25 15.55 13.2 13.6 13.45 12.55 13.05 12.75 12.4 M-34.3 -4.3 L-31.4 -2.65 -30.9 6.35 -34.3 3.55 -34.3 -4.3 M-35.3 4.85 L-35.8 4.15 -35.4 5.05 -35.3 4.85" fill="#447aa6" fill-rule="evenodd" stroke="none"/>
    <path d="M12.75 12.4 L12.55 13.05 13.6 13.45 15.55 13.2 17.85 12.25 18.5 14.55 Q16.1 17.95 12.85 20.7 6.5 26.3 -1.65 27.55 -10.1 28.65 -17.85 25.3 -30.2 19.8 -34.9 7.2 L-28.1 10.6 -26.3 7.4 -24.05 8.75 -24.8 9.8 Q-19.05 13.05 -12.65 14.15 -1.95 15.75 7.5 10.45 L12.75 12.4 M-35.3 4.85 L-35.4 5.05 -35.8 4.15 -35.3 4.85" fill="#568dba" fill-rule="evenodd" stroke="none"/>
    <path d="M41.6 -9.8 L41.6 -9.45 Q42.4 -4.9 39.15 -1.65 L37.75 -0.4 38.0 -8.0 41.6 -9.8 M-40.45 -3.05 L-40.95 -4.2 Q-42.25 -7.2 -41.9 -10.4 L-39.9 -8.05 Q-39.65 -4.3 -36.65 -2.1 L-35.3 -1.15 -35.3 1.3 -38.05 -0.6 -40.45 -3.05 M-41.9 -17.95 Q-41.9 -18.55 -41.5 -18.95 -41.1 -19.35 -40.55 -19.35 L-41.2 -19.0 -41.9 -17.95 M13.9 5.9 L13.65 7.8 1.7 8.65 1.7 6.55 13.9 5.9 M19.35 6.9 L19.6 4.45 Q25.75 2.95 30.35 -1.1 32.35 -2.9 32.6 -5.7 L32.8 -5.8 32.6 2.65 19.35 6.9 M-22.3 4.1 L-22.3 6.25 -30.2 3.7 -30.4 1.4 -22.3 4.1" fill="#291e0e" fill-rule="evenodd" stroke="none"/>
    <path d="M14.0 -0.7 L13.9 5.9 1.7 6.55 1.7 1.4 14.0 -0.7 M19.6 4.45 L19.5 -1.9 32.6 -5.7 Q32.35 -2.9 30.35 -1.1 25.75 2.95 19.6 4.45 M-22.3 1.05 L-22.3 4.1 -30.4 1.4 -30.45 -2.1 -22.3 1.05 M-35.3 -4.85 L-35.3 -1.15 -36.65 -2.1 Q-39.65 -4.3 -39.9 -8.05 L-35.3 -4.85 M-3.8 2.05 L-4.0 6.2 -6.75 6.2 Q-12.0 6.25 -17.0 5.15 L-16.9 2.15 -3.8 2.05" fill="#4e433d" fill-rule="evenodd" stroke="none"/>
    <path d="M1.7 8.65 L1.45 12.2 Q-10.25 13.75 -21.6 9.7 L-21.85 9.55 -22.3 6.25 -22.3 4.1 -22.3 1.05 -20.3 1.55 -20.3 7.95 Q-13.6 11.05 -6.3 11.1 L-0.3 10.5 -0.3 1.65 1.7 1.4 1.7 6.55 1.7 8.65 M-16.9 2.15 L-17.0 5.15 Q-12.0 6.25 -6.75 6.2 L-4.0 6.2 -3.8 2.05 -1.8 1.85 -2.35 7.9 Q-10.45 9.05 -18.55 6.7 L-18.85 6.6 -18.85 1.85 -16.9 2.15" fill="#543c1b" fill-rule="evenodd" stroke="none"/>
    <path d="M18.45 -1.65 L18.0 8.9 14.3 9.9 15.0 -0.9 18.45 -1.65 M33.8 -6.2 L37.0 -7.55 36.55 0.4 Q36.3 3.8 33.3 5.55 L33.8 -6.2" fill="#376488" fill-rule="evenodd" stroke="none"/>
    <path d="M-0.3 1.65 L-0.3 10.5 -6.3 11.1 Q-13.6 11.05 -20.3 7.95 L-20.3 1.55 -18.85 1.85 -18.85 6.6 -18.55 6.7 Q-10.45 9.05 -2.35 7.9 L-1.8 1.85 -0.3 1.65" fill="#ffcc33" fill-rule="evenodd" stroke="none"/>
    <path d="M5.45 -6.9 Q14.35 -8.6 23.35 -10.95 26.5 -11.7 29.55 -12.95 33.3 -14.5 34.2 -18.55 34.95 -22.0 34.3 -25.4 32.45 -35.35 30.2 -45.45 L26.35 -62.3 22.9 -76.4 Q20.7 -85.05 19.55 -93.7 18.3 -103.35 16.1 -112.65 14.95 -117.55 11.7 -121.2 L9.1 -123.85 Q7.05 -125.9 5.45 -128.35 1.9 -133.6 -3.95 -133.85 L-7.1 -132.75 Q-10.0 -131.35 -11.65 -128.45 -16.2 -120.45 -18.2 -111.45 -18.8 -108.8 -18.95 -105.7 -19.45 -96.9 -19.35 -88.1 -19.3 -84.45 -19.6 -80.75 -20.4 -71.95 -23.15 -63.5 L-24.2 -59.95 -27.8 -49.6 -28.75 -47.1 -29.45 -45.45 Q-33.65 -36.6 -36.2 -27.2 -37.65 -21.95 -37.95 -16.4 -37.75 -15.45 -37.0 -14.9 -35.2 -13.5 -33.4 -12.35 L-26.75 -8.5 -22.35 -6.45 Q-13.2 -2.95 -3.7 -4.95 L5.45 -6.9 M-9.8 -74.25 L-9.8 -74.45 -9.75 -74.25 -9.8 -75.75 -9.8 -75.1 Q-10.45 -87.2 -11.65 -99.75 -12.55 -109.6 -13.95 -119.05 L-13.9 -120.5 Q-13.15 -124.25 -11.3 -127.45 -9.7 -130.25 -7.0 -131.45 -0.8 -134.45 2.6 -128.35 L3.25 -126.7 Q5.2 -119.2 2.35 -112.05 L-1.85 -102.3 Q-2.85 -100.3 -3.5 -98.05 -6.1 -89.2 -7.9 -79.9 L-7.95 -79.55 -7.95 -79.5 -8.05 -79.0 -9.5 -69.45 -9.8 -73.8 -9.7 -73.15 -9.8 -74.25 M-40.55 -19.35 Q-38.9 -28.85 -34.75 -37.65 L-32.3 -42.8 -27.85 -53.35 Q-24.65 -61.75 -22.75 -70.5 -20.8 -79.4 -20.85 -88.4 L-21.05 -99.4 Q-21.3 -109.35 -18.15 -118.8 -16.15 -124.95 -13.05 -130.45 -9.25 -137.4 -2.0 -136.15 -0.5 -135.95 0.9 -135.2 7.75 -131.45 12.55 -124.8 18.2 -117.0 19.45 -107.4 20.8 -97.1 22.75 -87.1 24.5 -78.3 26.7 -69.95 L30.3 -56.25 33.9 -42.65 37.6 -29.3 Q39.3 -23.25 41.15 -18.05 L41.95 -17.95 Q43.6 -17.0 44.15 -15.2 44.65 -13.65 43.85 -12.2 43.15 -10.8 41.85 -9.9 L41.6 -9.8 38.0 -8.0 37.0 -7.55 33.8 -6.2 32.8 -5.8 32.6 -5.7 19.5 -1.9 18.45 -1.65 15.0 -0.9 14.0 -0.7 1.7 1.4 -0.3 1.65 -1.8 1.85 -3.8 2.05 -16.9 2.15 -18.85 1.85 -20.3 1.55 -22.3 1.05 -30.45 -2.1 -31.4 -2.65 -34.3 -4.3 -35.3 -4.85 -39.9 -8.05 -41.9 -10.4 Q-43.05 -13.2 -42.4 -16.3 L-41.9 -17.95 -41.2 -19.0 -40.55 -19.35 M1.6 -116.45 L2.05 -120.9 1.5 -125.9 Q0.25 -130.35 -4.0 -130.35 L-5.35 -129.75 Q-10.8 -127.0 -11.8 -120.5 L-12.05 -119.05 -12.05 -118.95 -11.45 -111.7 -9.9 -95.45 -8.9 -85.1 -7.45 -91.45 Q-5.5 -101.15 -0.75 -109.8 0.9 -112.85 1.6 -116.45 M14.7 -2.85 L19.2 -3.95 Q28.9 -6.05 37.8 -10.5 39.75 -11.45 41.35 -12.8 L42.35 -14.2 41.3 -15.8 Q32.9 -11.45 23.7 -8.95 11.25 -5.75 -1.75 -4.35 -9.2 -3.3 -16.6 -4.0 -23.6 -4.85 -30.1 -8.0 L-33.6 -9.8 Q-37.6 -12.25 -40.55 -15.65 -41.25 -10.75 -36.95 -8.1 L-28.75 -3.3 Q-23.3 0.05 -16.85 0.85 L-8.85 1.3 Q-3.5 1.15 1.7 -0.1 L14.7 -2.85 M-9.75 -74.25 L-9.7 -73.15 -9.65 -72.8 -9.75 -74.25" fill="#432e05" fill-rule="evenodd" stroke="none"/>
    <path d="M-18.95 -105.7 Q-18.8 -108.8 -18.2 -111.45 -16.2 -120.45 -11.65 -128.45 -10.0 -131.35 -7.1 -132.75 L-3.95 -133.85 Q1.9 -133.6 5.45 -128.35 7.05 -125.9 9.1 -123.85 L11.7 -121.2 Q14.95 -117.55 16.1 -112.65 18.3 -103.35 19.55 -93.7 20.7 -85.05 22.9 -76.4 L26.35 -62.3 30.2 -45.45 Q32.45 -35.35 34.3 -25.4 34.95 -22.0 34.2 -18.55 33.3 -14.5 29.55 -12.95 26.5 -11.7 23.35 -10.95 14.35 -8.6 5.45 -6.9 L9.6 -11.05 Q15.9 -17.45 19.8 -25.55 24.45 -35.3 23.1 -46.2 21.9 -55.75 20.1 -65.0 17.3 -79.65 8.85 -91.6 L6.85 -93.55 Q4.75 -95.15 2.35 -93.55 -4.15 -89.55 -5.65 -81.95 L-6.25 -82.1 -8.05 -79.0 -7.95 -79.5 -7.95 -79.55 -7.9 -79.9 Q-6.1 -89.2 -3.5 -98.05 -2.85 -100.3 -1.85 -102.3 L2.35 -112.05 Q5.2 -119.2 3.25 -126.7 L2.6 -128.35 Q-0.8 -134.45 -7.0 -131.45 -9.7 -130.25 -11.3 -127.45 -13.15 -124.25 -13.9 -120.5 L-13.95 -119.05 Q-12.55 -109.6 -11.65 -99.75 -10.45 -87.2 -9.8 -75.1 L-9.8 -75.75 -9.75 -74.25 -9.8 -74.45 -9.8 -74.25 -9.85 -74.25 -10.75 -76.85 -11.35 -79.45 -11.3 -80.8 -11.05 -81.0 Q-11.2 -83.55 -12.15 -87.15 -14.75 -96.65 -18.95 -105.7 M-22.35 -6.45 L-26.75 -8.5 -33.4 -12.35 Q-35.2 -13.5 -37.0 -14.9 -37.75 -15.45 -37.95 -16.4 -37.65 -21.95 -36.2 -27.2 -33.65 -36.6 -29.45 -45.45 L-28.6 -45.7 -28.6 -45.5 Q-31.15 -35.4 -30.2 -24.95 -29.3 -14.45 -22.35 -6.45" fill="#93410b" fill-rule="evenodd" stroke="none"/>
    <path d="M-18.95 -105.7 Q-14.75 -96.65 -12.15 -87.15 -11.2 -83.55 -11.05 -81.0 L-11.3 -80.8 -11.35 -79.45 -10.75 -76.85 -9.85 -74.25 -9.8 -74.25 -9.7 -73.15 -9.8 -73.8 -9.5 -69.45 -8.05 -79.0 -6.25 -82.1 -5.65 -81.95 Q-4.15 -89.55 2.35 -93.55 4.75 -95.15 6.85 -93.55 L8.85 -91.6 Q17.3 -79.65 20.1 -65.0 21.9 -55.75 23.1 -46.2 24.45 -35.3 19.8 -25.55 15.9 -17.45 9.6 -11.05 L5.45 -6.9 -3.7 -4.95 Q-13.2 -2.95 -22.35 -6.45 -29.3 -14.45 -30.2 -24.95 -31.15 -35.4 -28.6 -45.5 L-28.6 -45.7 -29.45 -45.45 -28.75 -47.1 -23.8 -37.65 -18.55 -45.85 -9.55 -28.7 -0.55 -42.45 4.85 -32.4 13.15 -44.95 4.85 -60.3 -0.55 -52.05 -9.55 -68.95 -18.55 -54.85 -23.15 -63.5 Q-20.4 -71.95 -19.6 -80.75 -19.3 -84.45 -19.35 -88.1 -19.45 -96.9 -18.95 -105.7 M-9.75 -74.25 L-9.65 -72.8 -9.7 -73.15 -9.75 -74.25" fill="#a7490c" fill-rule="evenodd" stroke="none"/>
    <path d="M-28.75 -47.1 L-27.8 -49.6 -24.1 -42.6 -19.05 -50.55 -24.2 -59.95 -23.15 -63.5 -18.55 -54.85 -9.55 -68.95 -0.55 -52.05 4.85 -60.3 13.15 -44.95 4.85 -32.4 -0.55 -42.45 -9.55 -28.7 -18.55 -45.85 -23.8 -37.65 -28.75 -47.1 M11.15 -45.2 L5.4 -55.95 -0.35 -47.2 5.4 -36.45 11.15 -45.2 M14.7 -2.85 L1.7 -0.1 Q-3.5 1.15 -8.85 1.3 L-16.85 0.85 Q-23.3 0.05 -28.75 -3.3 L-36.95 -8.1 Q-41.25 -10.75 -40.55 -15.65 -37.6 -12.25 -33.6 -9.8 L-30.1 -8.0 Q-23.6 -4.85 -16.6 -4.0 -9.2 -3.3 -1.75 -4.35 11.25 -5.75 23.7 -8.95 32.9 -11.45 41.3 -15.8 L42.35 -14.2 41.35 -12.8 Q39.75 -11.45 37.8 -10.5 28.9 -6.05 19.2 -3.95 L14.7 -2.85 M-17.4 -50.2 L-9.55 -35.2 -1.55 -47.5 -9.55 -62.4 -17.4 -50.2" fill="#873c0a" fill-rule="evenodd" stroke="none"/>
    <path d="M-27.8 -49.6 L-24.2 -59.95 -19.05 -50.55 -24.1 -42.6 -27.8 -49.6 M11.15 -45.2 L5.4 -36.45 -0.35 -47.2 5.4 -55.95 11.15 -45.2 M-17.4 -50.2 L-9.55 -62.4 -1.55 -47.5 -9.55 -35.2 -17.4 -50.2" fill="#c5570e" fill-rule="evenodd" stroke="none"/>
    <path d="M-12.05 -118.95 L-12.05 -119.05 -11.8 -120.5 Q-10.45 -125.8 -6.35 -129.0 -5.65 -129.5 -4.8 -129.4 -0.6 -130.1 1.5 -125.9 L2.05 -120.9 Q1.85 -119.5 0.85 -118.45 -3.3 -114.05 -7.7 -110.8 L-8.1 -111.05 Q-11.55 -114.4 -12.05 -118.95" fill="#f2c199" fill-rule="evenodd" stroke="none"/>
  </g>
</svg>
