<?xml version="1.0" encoding="UTF-8" standalone="no"?>
<svg xmlns:ffdec="https://www.free-decompiler.com/flash" xmlns:xlink="http://www.w3.org/1999/xlink" ffdec:objectType="shape" height="40.1px" width="122.55px" xmlns="http://www.w3.org/2000/svg">
  <g transform="matrix(1.0, 0.0, 0.0, 1.0, 55.3, -5.55)">
    <path d="M54.85 24.65 L54.4 24.15 Q53.0 22.6 54.05 24.9 L56.25 29.8 Q57.5 32.4 55.9 39.35 54.5 34.35 53.6 33.15 L52.2 31.65 Q51.7 31.3 51.35 30.0 51.45 31.05 51.2 31.45 L51.1 31.7 Q48.95 25.6 44.3 21.2 L43.95 21.3 Q44.25 22.65 44.7 23.65 43.6 23.15 43.3 23.25 L43.3 23.55 Q43.45 23.95 44.7 25.2 L45.0 24.4 Q47.35 27.1 48.15 27.45 L47.4 26.15 47.5 26.15 51.05 31.75 Q50.65 32.65 50.2 35.25 49.6 38.3 46.15 42.95 L42.2 33.85 41.7 32.35 41.25 31.25 Q41.05 31.15 40.0 34.25 38.9 37.35 36.35 38.3 L34.1 37.95 Q34.8 35.25 30.6 29.75 L29.6 28.45 31.05 27.3 32.05 28.6 34.5 28.8 Q35.05 28.8 38.9 25.9 38.9 25.4 42.1 21.8 45.6 17.85 47.4 17.35 L45.8 16.2 47.8 16.15 Q49.35 16.15 52.05 19.6 54.5 22.75 54.85 24.65 M44.05 12.75 Q45.5 12.6 46.4 11.25 L46.5 10.95 42.9 13.2 44.05 13.6 Q42.55 14.35 42.55 13.3 42.55 12.95 44.5 11.75 L46.95 10.4 Q46.75 11.65 46.1 12.1 47.1 12.0 49.2 13.4 L49.3 13.95 49.25 14.5 Q49.05 14.3 48.9 14.35 47.5 12.05 45.35 12.95 44.05 13.75 44.05 12.75 M48.25 15.75 L47.9 15.7 48.45 14.9 Q48.45 15.65 48.25 15.75 M52.55 13.4 Q56.85 19.5 57.55 21.0 54.75 19.45 52.3 13.5 L52.55 13.4 M45.15 31.5 L45.15 31.4 45.8 34.5 Q45.15 33.25 45.15 31.5 M51.8 27.3 L51.55 27.4 54.55 32.7 54.9 32.65 Q53.45 28.35 51.8 27.3 M41.05 25.6 Q41.75 25.8 43.15 27.25 44.5 28.6 44.5 28.9 44.5 34.3 47.25 37.7 L47.5 37.5 Q46.65 33.3 45.9 31.15 44.65 27.35 41.25 25.3 L41.05 25.6 M37.2 29.15 L36.9 29.15 37.1 30.1 36.55 29.9 37.3 33.0 Q35.8 32.55 35.4 32.65 36.6 33.4 37.5 33.55 L37.3 31.4 37.4 31.4 Q38.7 34.0 39.45 34.2 39.35 33.05 37.2 29.15 M41.25 20.9 Q41.4 21.45 40.55 21.75 L41.25 21.0 41.25 20.9" fill="#cccccc" fill-rule="evenodd" stroke="none"/>
    <path d="M51.1 31.7 L51.2 31.45 Q51.45 31.05 51.35 30.0 51.7 31.3 52.2 31.65 L53.6 33.15 Q54.5 34.35 55.9 39.35 57.5 32.4 56.25 29.8 L54.05 24.9 Q53.0 22.6 54.4 24.15 L54.85 24.65 54.9 24.85 55.05 24.8 Q55.9 25.65 56.25 25.55 59.6 24.7 63.15 25.4 57.55 12.35 51.9 9.5 46.25 6.65 39.4 10.4 38.95 20.85 31.05 27.3 L29.6 28.45 30.6 29.75 Q34.8 35.25 34.1 37.95 L36.35 38.3 Q38.9 37.35 40.0 34.25 41.05 31.15 41.25 31.25 L41.7 32.35 42.2 33.85 46.15 42.95 Q49.6 38.3 50.2 35.25 50.65 32.65 51.05 31.75 L51.15 31.9 51.1 31.7 M67.15 27.15 Q67.4 27.7 67.15 28.3 L66.35 29.1 Q65.8 29.3 65.25 29.1 61.85 27.8 58.7 28.15 61.0 34.75 57.25 40.65 56.95 41.1 56.45 41.3 L55.4 41.25 54.65 40.6 51.6 35.5 Q50.0 40.35 46.9 45.0 L46.1 45.6 45.05 45.55 44.3 44.85 40.8 37.8 Q39.3 40.15 37.75 40.9 34.9 42.55 32.2 39.55 L31.9 39.0 31.8 38.4 Q32.05 35.75 29.1 28.65 28.9 28.2 29.0 27.75 29.1 27.25 29.45 26.95 36.2 20.7 36.4 9.5 L36.6 8.75 Q36.8 8.4 37.15 8.2 46.3 2.95 54.0 8.05 61.3 12.75 67.15 27.15 M-35.65 12.2 Q-43.2 11.95 -50.3 17.5 -47.05 18.95 -44.8 21.6 -44.5 21.9 -44.45 22.4 L-44.6 23.25 -45.2 23.85 Q-49.8 26.45 -52.85 32.0 -48.5 29.75 -47.05 29.3 -45.75 28.85 -45.1 28.9 -44.2 28.85 -43.8 29.3 -42.95 29.8 -43.15 31.0 L-43.25 31.25 -47.15 42.15 -40.4 37.9 -39.95 40.8 -46.25 44.2 -47.25 44.35 -48.1 43.8 -48.45 42.8 Q-48.3 37.25 -46.8 32.4 L-52.2 34.75 -53.2 34.85 -54.05 34.3 -54.35 33.35 Q-54.05 26.3 -48.3 22.3 -50.7 20.2 -54.15 19.3 L-55.05 18.65 Q-55.4 18.1 -55.25 17.5 -55.1 16.9 -54.6 16.6 -41.9 8.45 -33.35 8.6 L-35.65 12.2" fill="#5d5d5d" fill-rule="evenodd" stroke="none"/>
    <path d="M51.1 31.7 L51.15 31.9 51.05 31.75 47.5 26.15 47.4 26.15 48.15 27.45 Q47.35 27.1 45.0 24.4 L44.7 25.2 Q43.45 23.95 43.3 23.55 L43.3 23.25 Q43.6 23.15 44.7 23.65 44.25 22.65 43.95 21.3 L44.3 21.2 Q48.95 25.6 51.1 31.7 M31.05 27.3 Q38.95 20.85 39.4 10.4 46.25 6.65 51.9 9.5 57.55 12.35 63.15 25.4 59.6 24.7 56.25 25.55 55.9 25.65 55.05 24.8 L54.9 24.85 54.85 24.65 Q54.5 22.75 52.05 19.6 49.35 16.15 47.8 16.15 L45.8 16.2 47.4 17.35 Q45.6 17.85 42.1 21.8 38.9 25.4 38.9 25.9 35.05 28.8 34.5 28.8 L32.05 28.6 31.05 27.3 M44.05 12.75 Q44.05 13.75 45.35 12.95 47.5 12.05 48.9 14.35 49.05 14.3 49.25 14.5 L49.3 13.95 49.2 13.4 Q47.1 12.0 46.1 12.1 46.75 11.65 46.95 10.4 L44.5 11.75 Q42.55 12.95 42.55 13.3 42.55 14.35 44.05 13.6 L42.9 13.2 46.5 10.95 46.4 11.25 Q45.5 12.6 44.05 12.75 M48.25 15.75 Q48.45 15.65 48.45 14.9 L47.9 15.7 48.25 15.75 M52.55 13.4 L52.3 13.5 Q54.75 19.45 57.55 21.0 56.85 19.5 52.55 13.4 M41.25 20.9 L41.25 21.0 40.55 21.75 Q41.4 21.45 41.25 20.9 M37.2 29.15 Q39.35 33.05 39.45 34.2 38.7 34.0 37.4 31.4 L37.3 31.4 37.5 33.55 Q36.6 33.4 35.4 32.65 35.8 32.55 37.3 33.0 L36.55 29.9 37.1 30.1 36.9 29.15 37.2 29.15 M41.05 25.6 L41.25 25.3 Q44.65 27.35 45.9 31.15 46.65 33.3 47.5 37.5 L47.25 37.7 Q44.5 34.3 44.5 28.9 44.5 28.6 43.15 27.25 41.75 25.8 41.05 25.6 M51.8 27.3 Q53.45 28.35 54.9 32.65 L54.55 32.7 51.55 27.4 51.8 27.3 M45.15 31.5 Q45.15 33.25 45.8 34.5 L45.15 31.4 45.15 31.5" fill="#b2b2b2" fill-rule="evenodd" stroke="none"/>
    <path d="M-40.4 37.9 L-47.15 42.15 -43.25 31.25 -43.15 31.0 Q-42.95 29.8 -43.8 29.3 -44.2 28.85 -45.1 28.9 -45.75 28.85 -47.05 29.3 -48.5 29.75 -52.85 32.0 -49.8 26.45 -45.2 23.85 L-44.6 23.25 -44.45 22.4 Q-44.5 21.9 -44.8 21.6 -47.05 18.95 -50.3 17.5 -43.2 11.95 -35.65 12.2 -40.8 21.1 -40.8 32.15 -40.8 35.1 -40.4 37.9" fill="#b0b0b0" fill-rule="evenodd" stroke="none"/>
  </g>
</svg>
