<?xml version="1.0" encoding="UTF-8" standalone="no"?>
<svg xmlns:ffdec="https://www.free-decompiler.com/flash" xmlns:xlink="http://www.w3.org/1999/xlink" ffdec:objectType="shape" height="88.65px" width="88.6px" xmlns="http://www.w3.org/2000/svg">
  <g transform="matrix(1.0, 0.0, 0.0, 1.0, 44.75, 62.8)">
    <path d="M-31.05 -49.0 L-31.55 -48.7 -31.1 -49.1 -31.05 -49.0" fill="#edcda3" fill-rule="evenodd" stroke="none"/>
    <path d="M-28.95 -50.05 Q-21.3 -53.85 -12.05 -53.8 3.75 -53.8 14.9 -42.9 26.05 -31.95 26.1 -16.45 26.05 -0.95 14.9 10.0 3.75 20.95 -12.05 20.95 L-20.35 20.1 Q-26.15 17.1 -31.1 12.1 -43.8 -0.55 -43.75 -18.45 -43.8 -33.6 -34.8 -45.0 L-31.55 -48.7 -31.05 -49.0 -28.95 -50.05" fill="#f9dfc8" fill-rule="evenodd" stroke="none"/>
    <path d="M-20.35 20.1 L-12.05 20.95 Q3.75 20.95 14.9 10.0 26.05 -0.95 26.1 -16.45 26.05 -31.95 14.9 -42.9 3.75 -53.8 -12.05 -53.8 -21.3 -53.85 -28.95 -50.05 -18.75 -57.55 -5.4 -57.5 11.4 -57.5 23.3 -45.65 35.2 -33.75 35.2 -16.9 35.2 -0.1 23.3 11.75 11.4 23.65 -5.4 23.65 L-13.75 22.85 Q-17.2 21.75 -20.35 20.1" fill="#f7d3b5" fill-rule="evenodd" stroke="none"/>
    <path d="M-13.75 22.85 L-5.4 23.65 Q11.4 23.65 23.3 11.75 35.2 -0.1 35.2 -16.9 35.2 -33.75 23.3 -45.65 11.4 -57.5 -5.4 -57.5 -18.75 -57.55 -28.95 -50.05 L-31.05 -49.0 -31.1 -49.1 Q-18.4 -61.8 -0.45 -61.8 17.45 -61.8 30.15 -49.1 42.85 -36.4 42.85 -18.45 42.85 -0.55 30.15 12.1 17.45 24.8 -0.45 24.85 -7.55 24.8 -13.75 22.85" fill="#f2c199" fill-rule="evenodd" stroke="none"/>
    <path d="M-20.35 20.1 Q-17.2 21.75 -13.75 22.85 -7.55 24.8 -0.45 24.85 17.45 24.8 30.15 12.1 42.85 -0.55 42.85 -18.45 42.85 -36.4 30.15 -49.1 17.45 -61.8 -0.45 -61.8 -18.4 -61.8 -31.1 -49.1 L-31.55 -48.7 -34.8 -45.0 Q-43.8 -33.6 -43.75 -18.45 -43.8 -0.55 -31.1 12.1 -26.15 17.1 -20.35 20.1 M-31.05 -49.0 L-31.55 -48.7" fill="none" stroke="#5c4730" stroke-linecap="round" stroke-linejoin="round" stroke-width="2.0"/>
    <path d="M4.65 -53.05 Q5.45 -53.8 6.55 -53.8 7.65 -53.8 8.4 -53.05 9.2 -52.25 9.2 -51.15 9.2 -50.05 8.4 -49.3 7.65 -48.5 6.55 -48.5 5.45 -48.5 4.65 -49.3 3.9 -50.05 3.9 -51.15 3.9 -52.25 4.65 -53.05 M19.05 -44.15 Q18.65 -43.75 18.05 -43.75 17.45 -43.75 17.05 -44.15 16.65 -44.55 16.65 -45.15 16.65 -45.75 17.05 -46.15 17.45 -46.55 18.05 -46.55 18.65 -46.55 19.05 -46.15 19.45 -45.75 19.45 -45.15 19.45 -44.55 19.05 -44.15 M-1.2 -56.35 Q-1.75 -55.75 -2.6 -55.75 -3.45 -55.75 -4.05 -56.35 -4.6 -56.9 -4.6 -57.75 -4.6 -58.6 -4.05 -59.2 -3.45 -59.75 -2.6 -59.75 -1.75 -59.75 -1.2 -59.2 -0.6 -58.6 -0.6 -57.75 -0.6 -56.9 -1.2 -56.35 M-1.4 -43.85 Q-1.7 -43.5 -2.2 -43.5 -2.7 -43.5 -3.05 -43.85 L-3.35 -44.65 -3.05 -45.5 -2.2 -45.8 -1.4 -45.5 Q-1.05 -45.15 -1.05 -44.65 -1.05 -44.15 -1.4 -43.85 M-14.1 -48.15 Q-14.1 -47.35 -14.75 -46.8 -15.4 -46.25 -16.35 -46.25 -17.3 -46.25 -17.95 -46.8 -18.6 -47.35 -18.6 -48.15 -18.6 -48.95 -17.95 -49.5 -17.3 -50.05 -16.35 -50.05 -15.4 -50.05 -14.75 -49.5 -14.1 -48.95 -14.1 -48.15" fill="#f2c199" fill-rule="evenodd" stroke="none"/>
    <path d="M-11.6 -44.75 L-10.9 -44.45 Q-10.6 -44.15 -10.6 -43.75 -10.6 -43.35 -10.9 -43.05 -11.2 -42.75 -11.6 -42.75 -12.0 -42.75 -12.3 -43.05 L-12.6 -43.75 -12.3 -44.45 -11.6 -44.75 M-17.55 -37.9 Q-17.55 -37.55 -17.85 -37.3 -18.1 -37.0 -18.45 -37.0 -18.8 -37.0 -19.1 -37.3 L-19.35 -37.9 -19.1 -38.55 -18.45 -38.8 -17.85 -38.55 -17.55 -37.9 M-26.45 -43.9 Q-26.05 -43.5 -26.05 -42.9 -26.05 -42.3 -26.45 -41.9 -26.85 -41.5 -27.45 -41.5 -28.05 -41.5 -28.45 -41.9 -28.85 -42.3 -28.85 -42.9 -28.85 -43.5 -28.45 -43.9 -28.05 -44.3 -27.45 -44.3 -26.85 -44.3 -26.45 -43.9" fill="#f7d3b5" fill-rule="evenodd" stroke="none"/>
  </g>
</svg>
