<?xml version="1.0" encoding="UTF-8" standalone="no"?>
<svg xmlns:ffdec="https://www.free-decompiler.com/flash" xmlns:xlink="http://www.w3.org/1999/xlink" ffdec:objectType="shape" height="12.75px" width="30.1px" xmlns="http://www.w3.org/2000/svg">
  <g transform="matrix(1.0, 0.0, 0.0, 1.0, 14.2, 4.7)">
    <path d="M2.5 2.05 Q7.1 -1.55 8.1 -2.8 9.0 -4.1 9.8 -4.55 L15.85 -4.0 Q16.1 -2.9 14.15 -2.75 10.95 -2.5 10.4 -2.8 L10.4 -2.75 8.2 0.3 Q6.25 2.9 1.25 5.15 -2.5 6.8 -7.8 7.9 L-13.9 8.05 -14.2 7.6 Q-12.65 7.4 -9.0 6.4 L-9.0 6.45 Q-0.45 4.3 2.5 2.05" fill="#463624" fill-rule="evenodd" stroke="none"/>
    <path d="M10.5 -2.45 L10.5 -2.5 10.5 -2.45" fill="#ff0000" fill-rule="evenodd" stroke="none"/>
  </g>
</svg>
