<?xml version="1.0" encoding="UTF-8" standalone="no"?>
<svg xmlns:ffdec="https://www.free-decompiler.com/flash" xmlns:xlink="http://www.w3.org/1999/xlink" ffdec:objectType="shape" height="30.85px" width="41.2px" xmlns="http://www.w3.org/2000/svg">
  <g transform="matrix(1.0, 0.0, 0.0, 1.0, 20.55, 14.1)">
    <path d="M-12.95 3.7 Q-12.1 4.35 -11.1 5.55 L-10.9 5.55 Q-8.95 6.4 -4.05 6.4 0.5 6.4 6.1 4.75 9.5 3.7 12.25 1.9 13.5 1.05 16.35 -1.7 17.65 -2.55 18.6 -3.95 L18.2 -9.45 18.1 -10.25 Q11.1 1.15 -2.5 3.5 L-2.55 3.5 Q-7.85 4.35 -12.95 3.65 L-14.3 3.45 -18.1 2.6 Q-16.75 4.15 -15.7 5.95 L-15.65 5.95 Q-11.45 13.2 -4.3 14.45 L-4.3 14.4 Q4.45 15.7 11.0 11.85 L12.0 11.25 11.75 11.4 11.7 11.1 11.7 9.85 Q11.55 2.55 18.05 2.55 L18.5 2.6 18.65 -2.25 Q17.2 -0.15 13.7 2.3 6.25 7.55 -4.4 7.55 -8.4 7.55 -10.5 6.7 L-11.0 6.85 -16.1 3.1 -14.3 3.5 -12.95 3.7 M17.6 -13.45 Q17.8 -13.8 18.2 -13.95 L18.55 -14.0 18.6 -14.0 18.75 -14.1 20.2 -7.35 Q21.05 -2.15 20.25 5.35 L20.0 5.95 19.8 6.35 Q10.75 18.65 -4.6 16.4 -12.65 15.1 -17.4 6.95 -19.45 2.3 -20.55 0.45 L-20.15 0.1 -19.4 0.05 Q-11.4 2.85 -2.85 1.55 11.1 -0.85 17.6 -13.45 M18.35 4.2 L18.4 3.7 Q15.1 3.55 14.1 4.85 L13.3 7.4 Q12.9 8.25 12.65 10.8 15.7 8.55 18.2 5.15 L18.25 5.1 18.35 4.2" fill="#463624" fill-rule="evenodd" stroke="none"/>
    <path d="M-12.95 3.65 Q-7.85 4.35 -2.55 3.5 L-2.5 3.5 Q11.1 1.15 18.1 -10.25 L18.2 -9.45 18.6 -3.95 Q17.65 -2.55 16.35 -1.7 13.5 1.05 12.25 1.9 9.5 3.7 6.1 4.75 0.5 6.4 -4.05 6.4 -8.95 6.4 -10.9 5.55 L-11.1 5.55 Q-12.1 4.35 -12.95 3.7 L-12.95 3.65" fill="#e5e5e5" fill-rule="evenodd" stroke="none"/>
    <path d="M-12.95 3.7 L-14.3 3.5 -16.1 3.1 -11.0 6.85 -10.5 6.7 Q-8.4 7.55 -4.4 7.55 6.25 7.55 13.7 2.3 17.2 -0.15 18.65 -2.25 L18.5 2.6 18.05 2.55 Q11.55 2.55 11.7 9.85 L11.7 11.1 11.75 11.4 12.0 11.25 11.0 11.85 Q4.45 15.7 -4.3 14.4 L-4.3 14.45 Q-11.45 13.2 -15.65 5.95 L-15.7 5.95 Q-16.75 4.15 -18.1 2.6 L-14.3 3.45 -12.95 3.65 -12.95 3.7" fill="#57352d" fill-rule="evenodd" stroke="none"/>
    <path d="M18.35 4.2 L18.25 5.1 18.2 5.15 Q15.7 8.55 12.65 10.8 12.9 8.25 13.3 7.4 L14.1 4.85 Q15.1 3.55 18.4 3.7 L18.35 4.2" fill="#b45f50" fill-rule="evenodd" stroke="none"/>
  </g>
</svg>
