<?xml version="1.0" encoding="UTF-8" standalone="no"?>
<svg xmlns:ffdec="https://www.free-decompiler.com/flash" xmlns:xlink="http://www.w3.org/1999/xlink" ffdec:objectType="shape" height="30.85px" width="41.2px" xmlns="http://www.w3.org/2000/svg">
  <g transform="matrix(1.0, 0.0, 0.0, 1.0, 20.55, 14.1)">
    <path d="M-20.55 0.45 L-20.15 0.1 -19.4 0.05 Q-11.4 2.85 -2.85 1.55 11.1 -0.85 17.6 -13.45 17.8 -13.8 18.2 -13.95 L18.55 -14.0 18.6 -14.0 18.75 -14.1 20.2 -7.35 Q21.05 -2.15 20.25 5.35 L20.0 5.95 19.8 6.35 Q10.75 18.65 -4.6 16.4 -12.65 15.1 -17.4 6.95 -19.45 2.3 -20.55 0.45 M18.6 -4.05 L18.2 -9.45 18.1 -10.25 Q11.1 1.15 -2.5 3.5 L-2.55 3.5 Q-7.8 4.35 -12.85 3.65 L-13.6 3.5 -13.9 3.55 -14.3 3.45 -18.1 2.6 -16.95 4.0 -16.4 4.85 -15.7 5.95 -15.65 5.95 -15.6 6.05 -14.9 7.2 -14.9 7.15 -14.7 7.1 -10.65 9.8 -7.9 9.1 -7.5 9.0 -5.4 8.55 -5.25 8.5 -4.35 8.5 -4.25 8.75 -4.3 9.0 -4.35 9.0 Q-6.05 9.35 -9.3 10.55 L-9.8 12.05 -9.8 12.15 -9.85 12.3 -7.7 13.45 Q-6.1 14.1 -4.3 14.45 L-4.3 14.4 Q4.45 15.7 11.0 11.85 L11.45 11.6 11.75 11.4 15.55 8.2 16.15 7.6 18.2 5.15 18.25 5.1 18.25 5.05 18.5 5.05 18.55 4.25 Q17.6 3.45 17.05 3.45 14.8 3.45 13.05 4.25 L13.0 4.3 12.95 4.3 12.4 4.65 11.35 5.2 11.3 5.2 11.2 5.2 10.7 5.2 10.6 5.0 Q10.6 4.6 12.0 3.95 L12.45 3.75 12.5 3.75 13.0 3.55 13.95 3.2 14.05 3.15 14.2 3.1 17.35 1.85 Q18.1 0.75 18.65 -0.9 L18.65 -0.15 18.7 -0.95 18.7 -1.0 18.65 -3.15 18.55 -3.85 18.6 -3.95 18.6 -4.05 M11.45 11.6 L10.75 12.15 11.45 11.6 M-10.0 12.2 L-10.85 11.6 -10.9 11.15 Q-10.9 10.9 -12.7 9.7 L-13.3 9.3 -13.15 9.5 -11.45 11.1 -10.0 12.2" fill="#463624" fill-rule="evenodd" stroke="none"/>
    <path d="M-14.9 7.2 L-15.6 6.05 -15.65 5.95 -15.7 5.95 -16.4 4.85 -16.95 4.0 -18.1 2.6 -14.3 3.45 -13.9 3.55 -13.6 3.5 -12.85 3.65 Q-7.8 4.35 -2.55 3.5 L-2.5 3.5 Q11.1 1.15 18.1 -10.25 L18.2 -9.45 18.6 -4.05 18.55 -4.0 18.45 -3.85 18.55 -3.85 18.65 -3.15 18.7 -1.0 18.7 -0.95 18.65 -0.9 Q18.1 0.75 17.35 1.85 L14.2 3.1 14.05 3.15 13.95 3.2 13.0 3.55 12.5 3.75 12.45 3.75 12.25 3.75 12.0 3.95 Q10.6 4.6 10.6 5.0 L10.7 5.2 11.2 5.2 11.3 5.2 11.35 5.2 12.4 4.65 12.95 4.3 13.0 4.3 13.05 4.3 13.05 4.25 Q14.8 3.45 17.05 3.45 17.6 3.45 18.55 4.25 L18.5 5.05 18.25 5.05 18.25 5.1 18.2 5.15 16.15 7.6 15.55 8.2 Q15.35 4.95 12.75 4.95 L10.3 5.65 10.05 5.6 9.95 5.3 Q9.95 4.6 14.0 1.55 L14.95 -0.05 11.75 1.8 Q7.0 3.85 5.2 4.3 -1.15 5.8 -4.9 5.8 L-13.4 5.05 -16.15 4.25 Q-12.6 8.55 -7.3 8.55 L-3.0 8.3 -0.45 8.4 Q-0.35 8.45 -0.4 8.65 -1.55 9.4 -5.2 10.95 -6.6 11.85 -7.1 13.65 L-7.7 13.45 -9.85 12.3 -9.8 12.15 -9.8 12.1 -9.8 12.05 -9.3 10.55 Q-6.05 9.35 -4.35 9.0 L-4.3 9.0 -4.25 8.75 -4.35 8.5 -5.25 8.5 -5.4 8.55 -7.5 9.0 -7.9 9.1 -10.65 9.8 -14.7 7.1 -14.9 7.15 -14.9 7.2" fill="#e5e5e5" fill-rule="evenodd" stroke="none"/>
    <path d="M18.6 -4.05 L18.6 -3.95 18.55 -3.85 18.45 -3.85 18.55 -4.0 18.6 -4.05 M12.45 3.75 L12.0 3.95 12.25 3.75 12.45 3.75 M13.0 4.3 L13.05 4.25 13.05 4.3 13.0 4.3 M15.55 8.2 L11.75 11.4 11.45 11.6 11.0 11.85 Q4.45 15.7 -4.3 14.4 L-4.3 14.45 Q-6.1 14.1 -7.7 13.45 L-7.1 13.65 Q-6.6 11.85 -5.2 10.95 -1.55 9.4 -0.4 8.65 -0.35 8.45 -0.45 8.4 L-3.0 8.3 -7.3 8.55 Q-12.6 8.55 -16.15 4.25 L-13.4 5.05 -4.9 5.8 Q-1.15 5.8 5.2 4.3 7.0 3.85 11.75 1.8 L14.95 -0.05 14.0 1.55 Q9.95 4.6 9.95 5.3 L10.05 5.6 10.3 5.65 12.75 4.95 Q15.35 4.95 15.55 8.2" fill="#f9f9f9" fill-rule="evenodd" stroke="none"/>
    <path d="M-9.8 12.15 L-9.8 12.05 -9.8 12.1 -9.8 12.15 M-10.0 12.2 L-11.45 11.1 -13.15 9.5 -13.3 9.3 -12.7 9.7 Q-10.9 10.9 -10.9 11.15 L-10.85 11.6 -10.0 12.2" fill="#57352d" fill-rule="evenodd" stroke="none"/>
  </g>
</svg>
