<?xml version="1.0" encoding="UTF-8" standalone="no"?>
<svg xmlns:ffdec="https://www.free-decompiler.com/flash" xmlns:xlink="http://www.w3.org/1999/xlink" ffdec:objectType="shape" height="14.65px" width="27.85px" xmlns="http://www.w3.org/2000/svg">
  <g transform="matrix(1.0, 0.0, 0.0, 1.0, 8.6, 2.5)">
    <path d="M18.5 0.2 Q19.25 1.3 19.25 3.75 19.25 6.2 15.85 8.75 11.35 12.1 3.75 12.1 L-0.85 12.0 -0.9 12.0 -2.1 12.15 Q-9.0 12.15 -8.55 6.55 L-8.45 5.75 Q-7.8 2.8 -1.65 0.2 4.65 -2.5 11.0 -2.5 16.75 -2.5 18.5 0.2 M-5.25 10.2 L-5.05 10.3 -4.1 10.7 Q7.65 11.85 13.0 8.7 17.35 6.15 17.35 3.4 17.35 -0.75 9.75 -0.75 1.95 -0.75 -3.3 2.55 -5.4 3.85 -7.05 5.35 L-6.35 6.3 -5.75 7.05 Q-3.95 5.35 1.75 5.1 L3.0 5.35 3.1 5.5 -1.25 6.85 -4.0 8.45 -4.0 8.5 -4.1 8.7 -5.15 10.0 -5.5 10.1 -5.25 10.2" fill="#463624" fill-rule="evenodd" stroke="none"/>
    <path d="M-5.15 10.0 L-4.1 8.7 -4.0 8.5 -4.0 8.45 -1.25 6.85 3.1 5.5 3.0 5.35 1.75 5.1 Q-3.95 5.35 -5.75 7.05 L-6.35 6.3 -7.05 5.35 Q-5.4 3.85 -3.3 2.55 1.95 -0.75 9.75 -0.75 17.35 -0.75 17.35 3.4 17.35 6.15 13.0 8.7 7.65 11.85 -4.1 10.7 L-5.05 10.3 -5.25 10.2 -5.15 10.0" fill="#e5e5e5" fill-rule="evenodd" stroke="none"/>
  </g>
</svg>
