<?xml version="1.0" encoding="UTF-8" standalone="no"?>
<svg xmlns:ffdec="https://www.free-decompiler.com/flash" xmlns:xlink="http://www.w3.org/1999/xlink" ffdec:objectType="shape" height="25.9px" width="35.65px" xmlns="http://www.w3.org/2000/svg">
  <g transform="matrix(1.0, 0.0, 0.0, 1.0, 13.8, 9.8)">
    <path d="M-6.05 -0.05 L-2.3 -2.65 Q5.55 -7.75 11.0 -7.75 16.3 -7.75 18.9 -3.45 L19.95 -1.35 Q19.65 -1.45 19.45 -1.65 18.85 -2.3 16.25 -2.3 L14.75 -2.25 Q-0.25 3.35 -1.75 3.35 -2.25 3.35 -4.15 1.55 L-6.05 -0.05" fill="#e5e5e5" fill-rule="evenodd" stroke="none"/>
    <path d="M-6.05 -0.05 L-4.15 1.55 Q-2.25 3.35 -1.75 3.35 -0.25 3.35 14.75 -2.25 L16.25 -2.3 Q18.85 -2.3 19.45 -1.65 19.65 -1.45 19.95 -1.35 L18.9 -3.45 Q16.3 -7.75 11.0 -7.75 5.55 -7.75 -2.3 -2.65 L-6.05 -0.05 -6.55 0.3 -6.05 -0.05 M20.45 0.2 L20.35 0.2 Q19.05 0.2 18.65 -0.4 18.3 -1.0 16.05 -1.0 12.4 -1.0 5.8 1.75 -0.75 4.5 -1.6 4.5 -3.45 4.5 -6.9 0.6 L-7.55 1.15 -10.4 3.75 Q-7.95 5.55 -7.6 8.85 -7.45 10.75 -7.55 14.5 L-1.0 14.75 Q5.45 14.75 10.0 13.65 L10.05 13.65 10.85 13.4 9.95 13.65 9.9 13.4 Q9.9 12.95 10.65 12.55 11.4 12.2 11.4 11.85 L10.0 11.1 Q7.25 13.6 4.75 13.6 0.9 13.6 0.9 10.65 0.9 8.85 2.5 6.6 5.0 3.15 9.75 3.15 14.3 3.15 17.0 5.5 18.8 7.05 19.0 8.4 21.25 5.3 20.6 1.75 L20.45 0.25 20.35 -0.25 20.45 0.2 M21.85 1.6 Q21.85 6.75 19.75 9.5 14.65 16.1 -1.1 16.1 L-8.95 16.05 Q-9.2 16.0 -9.1 15.8 -8.9 15.4 -9.05 15.1 L-8.9 13.75 -8.8 11.25 Q-8.8 4.75 -11.7 4.75 -12.25 4.75 -13.25 5.6 -13.8 5.4 -13.8 4.8 2.9 -9.8 12.6 -9.8 17.7 -9.8 20.3 -4.25 21.6 -1.45 21.85 1.6 M15.7 11.35 L18.15 9.4 Q17.8 9.2 17.6 8.7 L16.75 6.95 Q15.0 4.4 9.75 4.4 3.9 4.4 2.35 9.15 L2.0 10.4 Q2.0 12.25 4.15 12.25 7.2 12.25 9.45 10.15 11.0 8.7 11.6 7.0 L12.0 6.85 12.35 7.2 12.05 8.65 11.3 9.85 11.2 9.95 11.35 9.9 11.7 9.9 12.0 9.95 13.65 10.75 13.75 10.9 13.9 11.2 13.9 11.3 14.0 12.0 13.9 12.3 14.1 12.2 15.7 11.35 M12.6 6.55 L12.6 7.9 12.25 8.65 12.25 8.3 12.35 7.25 12.55 7.2 12.6 6.55" fill="#463624" fill-rule="evenodd" stroke="none"/>
    <path d="M10.0 13.65 Q5.45 14.75 -1.0 14.75 L-7.55 14.5 Q-7.45 10.75 -7.6 8.85 -7.95 5.55 -10.4 3.75 L-7.55 1.15 -6.9 0.6 Q-3.45 4.5 -1.6 4.5 -0.75 4.5 5.8 1.75 12.4 -1.0 16.05 -1.0 18.3 -1.0 18.65 -0.4 19.05 0.2 20.35 0.2 L20.45 0.2 20.45 0.25 20.6 1.75 Q21.25 5.3 19.0 8.4 18.8 7.05 17.0 5.5 14.3 3.15 9.75 3.15 5.0 3.15 2.5 6.6 0.9 8.85 0.9 10.65 0.9 13.6 4.75 13.6 7.25 13.6 10.0 11.1 L11.4 11.85 Q11.4 12.2 10.65 12.55 9.9 12.95 9.9 13.4 L9.95 13.65 10.0 13.65" fill="#57352d" fill-rule="evenodd" stroke="none"/>
    <path d="M2.35 9.15 Q3.9 4.4 9.75 4.4 15.0 4.4 16.75 6.95 L17.6 8.7 Q17.8 9.2 18.15 9.4 L15.7 11.35 15.75 10.75 Q15.25 6.15 12.1 6.15 L10.4 8.35 Q8.7 10.5 5.75 10.5 3.45 10.5 2.35 9.15 M11.7 9.9 L11.35 9.9 11.3 9.85 12.05 8.65 11.7 9.9" fill="#b45f50" fill-rule="evenodd" stroke="none"/>
    <path d="M2.35 9.15 Q3.45 10.5 5.75 10.5 8.7 10.5 10.4 8.35 L12.1 6.15 Q15.25 6.15 15.75 10.75 L15.7 11.35 14.1 12.2 14.0 12.0 13.9 11.3 13.9 11.2 13.75 10.9 13.65 10.75 12.0 9.95 11.7 9.9 12.05 8.65 12.35 7.2 12.0 6.85 11.6 7.0 Q11.0 8.7 9.45 10.15 7.2 12.25 4.15 12.25 2.0 12.25 2.0 10.4 L2.35 9.15 M12.6 6.55 L12.55 7.2 12.35 7.25 12.25 8.3 12.25 8.65 12.6 7.9 12.6 6.55" fill="#a05345" fill-rule="evenodd" stroke="none"/>
  </g>
</svg>
