<?xml version="1.0" encoding="UTF-8" standalone="no"?>
<svg xmlns:ffdec="https://www.free-decompiler.com/flash" xmlns:xlink="http://www.w3.org/1999/xlink" ffdec:objectType="shape" height="7.85px" width="23.45px" xmlns="http://www.w3.org/2000/svg">
  <g transform="matrix(1.0, 0.0, 0.0, 1.0, 11.05, -3.15)">
    <path d="M10.35 10.25 L5.2 9.65 -1.1 9.0 Q-4.25 9.0 -6.85 10.0 -9.45 11.0 -10.1 11.0 L-10.55 10.9 -10.75 10.4 Q-10.75 9.75 -6.95 8.85 L-6.55 8.75 Q-7.5 7.85 -7.5 5.7 L-10.9 7.0 Q-11.05 7.4 -11.05 6.75 -11.05 6.0 -6.85 5.0 L-7.3 5.1 Q-6.8 4.55 -5.05 4.3 L-0.65 3.85 2.4 3.55 5.25 3.25 7.0 3.15 9.75 3.45 Q12.5 4.15 12.4 7.5 12.4 10.25 10.35 10.25 M11.5 7.55 Q11.5 6.35 11.05 5.6 10.35 6.2 8.8 6.2 6.85 6.15 6.25 6.6 5.2 7.3 5.15 8.0 5.1 8.35 4.3 8.35 L4.25 8.4 5.0 8.55 10.9 9.15 Q11.5 9.15 11.5 7.55 M10.3 4.85 L10.65 5.1 10.35 4.85 9.9 4.6 9.6 4.65 7.05 4.4 Q-3.45 4.4 -6.3 5.75 -5.75 6.85 -5.75 7.65 L-5.75 8.6 -0.6 7.9 2.9 8.2 Q3.0 7.05 4.75 5.9 6.7 4.65 9.25 4.65 L10.3 4.85" fill="#463624" fill-rule="evenodd" stroke="none"/>
    <path d="M11.5 7.55 Q11.5 9.15 10.9 9.15 L5.0 8.55 4.25 8.4 4.3 8.35 Q5.1 8.35 5.15 8.0 5.2 7.3 6.25 6.6 6.85 6.15 8.8 6.2 10.35 6.2 11.05 5.6 11.5 6.35 11.5 7.55" fill="#b45f50" fill-rule="evenodd" stroke="none"/>
    <path d="M10.35 4.85 L10.3 4.85 9.25 4.65 Q6.7 4.65 4.75 5.9 3.0 7.05 2.9 8.2 L-0.6 7.9 -5.75 8.6 -5.75 7.65 Q-5.75 6.85 -6.3 5.75 -3.45 4.4 7.05 4.4 L9.6 4.65 9.9 4.6 10.35 4.85" fill="#57352d" fill-rule="evenodd" stroke="none"/>
  </g>
</svg>
