<?xml version="1.0" encoding="UTF-8" standalone="no"?>
<svg xmlns:ffdec="https://www.free-decompiler.com/flash" xmlns:xlink="http://www.w3.org/1999/xlink" ffdec:objectType="shape" height="31.85px" width="71.1px" xmlns="http://www.w3.org/2000/svg">
  <g transform="matrix(1.0, 0.0, 0.0, 1.0, 36.45, 11.5)">
    <path d="M9.1 -11.4 L9.15 -11.4 Q16.2 -12.15 21.75 -7.85 25.25 -5.15 26.8 -1.45 27.75 0.75 28.0 3.35 28.4 10.15 23.45 15.15 L23.4 15.2 Q18.5 19.95 11.5 20.3 4.5 20.4 -0.5 16.05 -5.6 11.8 -6.0 5.45 -6.35 1.35 -4.65 -2.1 -3.75 -4.05 -2.2 -5.75 2.1 -10.8 9.1 -11.4 M20.05 -5.65 Q15.35 -9.25 9.45 -8.6 L9.4 -8.6 Q3.5 -8.1 -0.1 -3.95 L-0.1 -3.9 Q-3.65 0.05 -3.15 5.25 -2.85 10.4 1.3 13.9 5.55 17.55 11.4 17.45 17.3 17.15 21.5 13.15 L21.55 13.15 Q25.5 9.05 25.15 3.55 24.7 -2.1 20.05 -5.65 M-31.05 -2.0 Q-34.05 1.6 -33.6 6.45 -33.2 11.15 -29.7 14.3 L-29.65 14.35 Q-26.1 17.6 -21.2 17.5 -16.35 17.3 -12.95 13.7 L-12.9 13.65 Q-9.65 9.9 -10.05 4.9 -10.45 -0.3 -14.4 -3.5 -18.3 -6.65 -23.2 -6.1 L-23.25 -6.1 Q-28.05 -5.7 -31.05 -2.0 M-23.5 -8.9 L-23.45 -8.9 Q-17.4 -9.6 -12.55 -5.65 -10.45 -3.95 -9.15 -1.75 -7.5 1.05 -7.2 4.65 -6.75 10.9 -10.85 15.55 -15.05 20.1 -21.1 20.35 -27.15 20.45 -31.55 16.45 L-31.6 16.4 Q-35.9 12.5 -36.4 6.7 -36.95 0.7 -33.25 -3.8 L-33.25 -3.75 Q-29.5 -8.35 -23.5 -8.9" fill="#7c5f3f" fill-rule="evenodd" stroke="none"/>
    <path d="M20.05 -5.65 Q24.7 -2.1 25.15 3.55 25.5 9.05 21.55 13.15 L21.5 13.15 Q17.3 17.15 11.4 17.45 5.55 17.55 1.3 13.9 -2.85 10.4 -3.15 5.25 -3.65 0.05 -0.1 -3.9 L-0.1 -3.95 Q3.5 -8.1 9.4 -8.6 L9.45 -8.6 Q15.35 -9.25 20.05 -5.65" fill="url(#gradient0)" fill-rule="evenodd" stroke="none"/>
    <path d="M-31.05 -2.0 Q-28.05 -5.7 -23.25 -6.1 L-23.2 -6.1 Q-18.3 -6.65 -14.4 -3.5 -10.45 -0.3 -10.05 4.9 -9.65 9.9 -12.9 13.65 L-12.95 13.7 Q-16.35 17.3 -21.2 17.5 -26.1 17.6 -29.65 14.35 L-29.7 14.3 Q-33.2 11.15 -33.6 6.45 -34.05 1.6 -31.05 -2.0" fill="url(#gradient1)" fill-rule="evenodd" stroke="none"/>
    <path d="M26.8 -1.45 L33.15 -3.5 M-4.65 -2.1 L-9.15 -1.75" fill="none" stroke="#7c5f3f" stroke-linecap="round" stroke-linejoin="round" stroke-width="3.0"/>
  </g>
  <defs>
    <linearGradient gradientTransform="matrix(0.0, -0.0185, 0.018, 0.0, 12.15, 4.45)" gradientUnits="userSpaceOnUse" id="gradient0" spreadMethod="pad" x1="-819.2" x2="819.2">
      <stop offset="0.0" stop-color="#ffffff" stop-opacity="0.8"/>
      <stop offset="1.0" stop-color="#ffffff" stop-opacity="0.18039216"/>
    </linearGradient>
    <linearGradient gradientTransform="matrix(0.0, -0.0185, 0.0181, 0.0, -21.2, 6.0)" gradientUnits="userSpaceOnUse" id="gradient1" spreadMethod="pad" x1="-819.2" x2="819.2">
      <stop offset="0.0" stop-color="#ffffff" stop-opacity="0.8"/>
      <stop offset="1.0" stop-color="#ffffff" stop-opacity="0.18039216"/>
    </linearGradient>
  </defs>
</svg>
