<?xml version="1.0" encoding="UTF-8" standalone="no"?>
<svg xmlns:ffdec="https://www.free-decompiler.com/flash" xmlns:xlink="http://www.w3.org/1999/xlink" ffdec:objectType="shape" height="25.05px" width="19.15px" xmlns="http://www.w3.org/2000/svg">
  <g transform="matrix(1.0, 0.0, 0.0, 1.0, 1.0, 1.0)">
    <path d="M9.35 -0.2 Q12.4 -1.4 14.95 -0.75 15.85 -0.65 17.75 0.75 L18.15 1.35 18.05 2.05 17.5 2.5 16.8 2.5 Q15.75 2.15 13.9 2.95 L13.85 2.95 Q13.05 3.2 12.45 3.9 10.2 6.3 9.3 12.95 L8.3 19.5 8.3 19.45 Q7.5 23.15 5.8 23.7 L5.75 23.7 Q3.35 24.6 1.7 23.2 0.15 22.0 -0.65 18.8 -1.95 13.85 1.7 7.4 5.15 1.25 9.35 -0.2 M11.0 2.5 L11.0 2.55 Q11.95 1.5 13.2 1.05 L13.25 1.05 Q11.75 1.0 10.05 1.65 6.45 3.05 3.45 8.4 0.25 14.05 1.3 18.3 1.9 20.7 2.95 21.65 3.8 22.3 5.05 21.85 5.8 21.35 6.35 19.05 L6.35 19.0 7.3 12.65 Q8.3 5.2 11.0 2.5" fill="#cccccc" fill-rule="evenodd" stroke="none"/>
    <path d="M11.0 2.5 Q8.3 5.2 7.3 12.65 L6.35 19.0 6.35 19.05 Q5.8 21.35 5.05 21.85 3.8 22.3 2.95 21.65 1.9 20.7 1.3 18.3 0.25 14.05 3.45 8.4 6.45 3.05 10.05 1.65 11.75 1.0 13.25 1.05 L13.2 1.05 Q11.95 1.5 11.0 2.55 L11.0 2.5" fill="#5d5d5d" fill-rule="evenodd" stroke="none"/>
  </g>
</svg>
