<?xml version="1.0" encoding="UTF-8" standalone="no"?>
<svg xmlns:ffdec="https://www.free-decompiler.com/flash" xmlns:xlink="http://www.w3.org/1999/xlink" ffdec:objectType="shape" height="19.75px" width="35.5px" xmlns="http://www.w3.org/2000/svg">
  <g transform="matrix(1.0, 0.0, 0.0, 1.0, 19.35, 3.05)">
    <path d="M9.0 -1.3 Q11.25 -1.3 12.8 1.1 14.4 3.45 14.4 6.8 14.4 10.15 12.8 12.5 11.25 14.85 9.0 14.9 6.8 14.85 5.2 12.5 3.65 10.15 3.65 6.8 3.6 4.95 4.1 3.4 4.5 2.1 5.2 1.1 5.7 0.3 6.35 -0.25 7.55 -1.3 9.0 -1.3 M-8.2 7.95 Q-8.25 10.85 -9.65 12.85 -11.0 14.9 -12.9 14.95 -14.85 14.9 -16.25 12.85 -17.6 10.85 -17.6 7.95 -17.6 6.3 -17.15 4.95 L-16.25 2.95 -15.25 1.8 Q-14.2 0.9 -12.9 0.9 -11.0 0.9 -9.65 2.95 -8.25 5.0 -8.2 7.95 Z" fill="none" stroke="#000000" stroke-linecap="round" stroke-linejoin="round" stroke-width="3.5"/>
  </g>
</svg>
