<?xml version="1.0" encoding="UTF-8" standalone="no"?>
<svg xmlns:ffdec="https://www.free-decompiler.com/flash" xmlns:xlink="http://www.w3.org/1999/xlink" ffdec:objectType="shape" height="16.7px" width="32.35px" xmlns="http://www.w3.org/2000/svg">
  <g transform="matrix(1.0, 0.0, 0.0, 1.0, 17.55, 0.05)">
    <path d="M11.7 6.6 L10.85 5.5 Q8.7 3.1 6.0 1.75 L5.75 1.7 5.75 2.35 Q3.75 5.55 4.15 9.35 4.45 11.85 6.25 13.75 7.65 15.25 9.7 14.8 11.2 14.4 12.1 13.15 13.6 11.05 12.75 8.6 L11.7 6.6 M-7.9 4.2 Q-7.95 3.4 -8.15 2.65 L-8.35 2.3 -8.8 2.25 -15.25 7.3 Q-16.2 8.7 -15.5 11.2 -15.05 12.9 -13.95 13.9 -12.3 15.6 -10.35 14.3 L-9.05 13.1 Q-7.95 11.8 -7.85 10.15 -7.65 7.05 -7.9 4.2 Z" fill="none" stroke="#000000" stroke-linecap="round" stroke-linejoin="round" stroke-width="3.5"/>
  </g>
</svg>
