<?xml version="1.0" encoding="UTF-8" standalone="no"?>
<svg xmlns:ffdec="https://www.free-decompiler.com/flash" xmlns:xlink="http://www.w3.org/1999/xlink" ffdec:objectType="shape" height="14.85px" width="32.8px" xmlns="http://www.w3.org/2000/svg">
  <g transform="matrix(1.0, 0.0, 0.0, 1.0, 17.6, -1.85)">
    <path d="M3.05 9.55 L4.15 8.9 12.4 3.6 Q13.45 5.4 13.45 7.9 13.45 10.8 12.05 12.85 10.7 14.9 8.75 14.9 6.85 14.9 5.45 12.85 4.3 11.15 4.15 8.9 M-7.2 8.55 L-7.75 8.4 -7.7 8.9 Q-7.75 11.4 -8.95 13.15 -10.1 14.95 -11.75 14.95 -13.45 14.95 -14.65 13.15 -15.85 11.4 -15.85 8.9 -15.85 7.45 -15.45 6.3 L-15.3 5.85 -7.75 8.4" fill="none" stroke="#000000" stroke-linecap="round" stroke-linejoin="round" stroke-width="3.5"/>
  </g>
</svg>
