<?xml version="1.0" encoding="UTF-8" standalone="no"?>
<svg xmlns:ffdec="https://www.free-decompiler.com/flash" xmlns:xlink="http://www.w3.org/1999/xlink" ffdec:objectType="shape" height="17.3px" width="35.2px" xmlns="http://www.w3.org/2000/svg">
  <g transform="matrix(1.0, 0.0, 0.0, 1.0, 27.15, -11.45)">
    <path d="M-3.4 17.45 L-3.4 17.5 Q-3.75 18.6 -3.75 19.95 -3.75 22.05 -2.9 23.6 -0.15 21.85 2.15 21.4 L2.25 20.0 2.4 19.45 Q2.3 19.6 0.55 17.3 -1.25 15.0 -1.65 15.1 L-2.05 15.2 -2.65 15.95 -2.7 16.05 -3.4 17.45 M-4.3 12.55 Q-3.25 11.3 -1.75 11.45 -0.35 11.6 5.4 17.75 L5.6 19.95 5.65 21.1 Q6.25 21.1 8.05 22.7 L6.7 23.0 Q3.35 23.85 -6.8 27.8 L-6.95 27.55 Q-7.25 27.0 -7.05 26.4 -6.9 25.8 -6.35 25.55 L-5.95 25.35 Q-7.25 23.05 -7.25 19.95 -7.25 18.1 -6.75 16.5 L-6.8 16.55 Q-6.4 15.2 -5.6 14.05 L-5.55 14.0 -4.25 12.5 -4.3 12.55" fill="#000000" fill-rule="evenodd" stroke="none"/>
    <path d="M-20.0 17.6 Q-20.5 16.9 -21.05 16.7 -22.05 17.3 -23.35 20.9 L-23.65 21.7 Q-23.5 23.1 -22.8 24.2 L-22.8 24.25 Q-22.2 25.15 -21.35 25.25 -20.6 25.15 -20.0 24.25 L-20.0 24.2 Q-19.1 22.85 -19.05 20.95 -19.1 19.0 -20.0 17.65 L-20.0 17.6 M-19.75 12.65 Q-18.5 13.5 -17.1 15.65 -15.6 17.8 -15.55 20.95 L-15.55 21.0 Q-15.6 24.05 -17.1 26.2 L-17.05 26.15 Q-18.8 28.85 -21.35 28.75 -23.9 28.85 -25.7 26.2 -27.0 24.35 -27.15 21.8 L-21.9 11.95 -19.75 12.65" fill="#000000" fill-rule="evenodd" stroke="none"/>
  </g>
</svg>
