<?xml version="1.0" encoding="UTF-8" standalone="no"?>
<svg xmlns:ffdec="https://www.free-decompiler.com/flash" xmlns:xlink="http://www.w3.org/1999/xlink" ffdec:objectType="shape" height="17.55px" width="35.65px" xmlns="http://www.w3.org/2000/svg">
  <g transform="matrix(1.0, 0.0, 0.0, 1.0, 25.05, 3.8)">
    <path d="M-18.85 4.9 L-18.95 5.95 Q-18.95 7.85 -18.05 9.2 L-18.05 9.25 Q-17.45 10.15 -16.6 10.25 -15.85 10.15 -15.25 9.25 L-15.25 9.2 Q-14.55 8.15 -14.35 6.75 L-18.85 4.9 M-24.1 -0.15 L-22.95 -0.1 -20.3 1.05 -19.3 1.2 Q-18.95 1.4 -18.7 1.75 L-10.9 5.25 -10.8 5.85 -10.8 6.0 Q-10.85 9.05 -12.35 11.2 L-12.3 11.15 Q-14.05 13.85 -16.6 13.75 -19.15 13.85 -20.95 11.2 -22.45 9.05 -22.45 5.95 L-22.15 3.5 -24.9 1.9 -24.95 1.8 Q-25.2 1.2 -24.9 0.65 L-24.1 -0.15" fill="#000000" fill-rule="evenodd" stroke="none"/>
    <path d="M4.15 -2.05 Q6.1 -2.05 7.45 0.0 8.85 2.05 8.85 4.95 8.85 7.85 7.45 9.9 6.1 11.95 4.15 11.95 2.25 11.95 0.85 9.9 -0.5 7.85 -0.5 4.95 -0.5 3.35 -0.1 2.0 0.2 0.9 0.85 0.0 L1.85 -1.15 Q2.9 -2.05 4.15 -2.05 Z" fill="none" stroke="#000000" stroke-linecap="round" stroke-linejoin="round" stroke-width="3.5"/>
  </g>
</svg>
