<?xml version="1.0" encoding="UTF-8" standalone="no"?>
<svg xmlns:ffdec="https://www.free-decompiler.com/flash" xmlns:xlink="http://www.w3.org/1999/xlink" ffdec:objectType="shape" height="19.75px" width="30.5px" xmlns="http://www.w3.org/2000/svg">
  <g transform="matrix(1.0, 0.0, 0.0, 1.0, 14.95, 29.65)">
    <path d="M12.2 -25.5 Q13.8 -23.15 13.8 -19.8 13.8 -16.45 12.2 -14.1 10.65 -11.75 8.4 -11.7 6.2 -11.75 4.6 -14.1 3.05 -16.45 3.05 -19.8 3.0 -21.65 3.5 -23.2 3.9 -24.5 4.6 -25.5 L5.75 -26.85 Q6.95 -27.9 8.4 -27.9 10.65 -27.9 12.2 -25.5 M-8.5 -25.7 Q-6.6 -25.7 -5.25 -23.65 -3.85 -21.6 -3.8 -18.65 -3.85 -15.75 -5.25 -13.75 -6.6 -11.7 -8.5 -11.65 -10.45 -11.7 -11.85 -13.75 -13.2 -15.75 -13.2 -18.65 -13.2 -20.3 -12.75 -21.65 L-11.85 -23.65 -10.85 -24.8 Q-9.8 -25.7 -8.5 -25.7 Z" fill="none" stroke="#000000" stroke-linecap="round" stroke-linejoin="round" stroke-width="3.5"/>
  </g>
</svg>
