<?xml version="1.0" encoding="UTF-8" standalone="no"?>
<svg xmlns:ffdec="https://www.free-decompiler.com/flash" xmlns:xlink="http://www.w3.org/1999/xlink" ffdec:objectType="shape" height="16.7px" width="27.35px" xmlns="http://www.w3.org/2000/svg">
  <g transform="matrix(1.0, 0.0, 0.0, 1.0, 13.15, 26.65)">
    <path d="M5.15 -24.9 L5.15 -24.25 Q3.15 -21.05 3.55 -17.25 3.85 -14.75 5.65 -12.85 7.05 -11.35 9.1 -11.8 10.6 -12.2 11.5 -13.45 13.0 -15.55 12.15 -18.0 L11.1 -20.0 10.25 -21.1 Q8.1 -23.5 5.4 -24.85 L5.15 -24.9 M-3.45 -16.45 Q-3.25 -19.55 -3.5 -22.4 L-3.75 -23.95 -3.95 -24.3 -4.4 -24.35 -10.85 -19.3 Q-11.8 -17.9 -11.1 -15.4 -10.65 -13.7 -9.55 -12.7 -7.9 -11.0 -5.95 -12.3 L-4.65 -13.5 Q-3.55 -14.8 -3.45 -16.45 Z" fill="none" stroke="#000000" stroke-linecap="round" stroke-linejoin="round" stroke-width="3.5"/>
  </g>
</svg>
