<?xml version="1.0" encoding="UTF-8" standalone="no"?>
<svg xmlns:ffdec="https://www.free-decompiler.com/flash" xmlns:xlink="http://www.w3.org/1999/xlink" ffdec:objectType="shape" height="14.85px" width="27.8px" xmlns="http://www.w3.org/2000/svg">
  <g transform="matrix(1.0, 0.0, 0.0, 1.0, 13.2, 24.75)">
    <path d="M2.45 -17.05 L3.55 -17.7 11.8 -23.0 Q12.85 -21.2 12.85 -18.7 12.85 -15.8 11.45 -13.75 10.1 -11.7 8.15 -11.7 6.25 -11.7 4.85 -13.75 3.7 -15.45 3.55 -17.7 M-2.8 -18.05 L-3.35 -18.2 -3.3 -17.7 Q-3.35 -15.2 -4.55 -13.45 -5.7 -11.65 -7.35 -11.65 -9.05 -11.65 -10.25 -13.45 -11.45 -15.2 -11.45 -17.7 -11.45 -19.15 -11.05 -20.3 L-10.9 -20.75 -3.35 -18.2" fill="none" stroke="#000000" stroke-linecap="round" stroke-linejoin="round" stroke-width="3.5"/>
  </g>
</svg>
