<?xml version="1.0" encoding="UTF-8" standalone="no"?>
<svg xmlns:ffdec="https://www.free-decompiler.com/flash" xmlns:xlink="http://www.w3.org/1999/xlink" ffdec:objectType="shape" height="17.3px" width="30.2px" xmlns="http://www.w3.org/2000/svg">
  <g transform="matrix(1.0, 0.0, 0.0, 1.0, 13.15, 27.2)">
    <path d="M-6.0 -21.0 L-6.0 -21.05 -7.05 -21.95 Q-8.05 -21.35 -9.35 -17.75 L-9.65 -16.95 Q-9.5 -15.55 -8.8 -14.45 L-8.8 -14.4 Q-8.2 -13.5 -7.35 -13.4 -6.6 -13.5 -6.0 -14.4 L-6.0 -14.45 Q-5.1 -15.8 -5.05 -17.7 -5.1 -19.65 -6.0 -21.0 M-7.9 -26.7 L-5.75 -26.0 Q-4.5 -25.15 -3.1 -23.0 -1.6 -20.85 -1.55 -17.7 L-1.55 -17.65 Q-1.6 -14.6 -3.1 -12.45 L-3.05 -12.5 Q-4.8 -9.8 -7.35 -9.9 -9.9 -9.8 -11.7 -12.45 -13.0 -14.3 -13.15 -16.85 L-7.9 -26.7 M11.25 -18.65 L11.4 -19.2 Q11.3 -19.05 9.55 -21.35 7.75 -23.65 7.35 -23.55 L6.95 -23.45 6.35 -22.7 6.3 -22.6 Q5.8 -22.0 5.6 -21.2 L5.6 -21.15 Q5.25 -20.05 5.25 -18.7 5.25 -16.6 6.1 -15.05 8.85 -16.8 11.15 -17.25 L11.25 -18.65 M4.7 -26.1 Q5.75 -27.35 7.25 -27.2 8.65 -27.05 14.4 -20.9 L14.6 -18.7 14.65 -17.55 Q15.25 -17.55 17.05 -15.95 L15.7 -15.65 Q12.35 -14.8 2.2 -10.85 L2.05 -11.1 Q1.75 -11.65 1.95 -12.25 2.1 -12.85 2.65 -13.1 L3.05 -13.3 Q1.75 -15.6 1.75 -18.7 1.75 -20.55 2.25 -22.15 L2.2 -22.1 Q2.6 -23.45 3.4 -24.6 L3.45 -24.65 4.75 -26.15 4.7 -26.1" fill="#000000" fill-rule="evenodd" stroke="none"/>
  </g>
</svg>
