<?xml version="1.0" encoding="UTF-8" standalone="no"?>
<svg xmlns:ffdec="https://www.free-decompiler.com/flash" xmlns:xlink="http://www.w3.org/1999/xlink" ffdec:objectType="shape" height="17.55px" width="30.4px" xmlns="http://www.w3.org/2000/svg">
  <g transform="matrix(1.0, 0.0, 0.0, 1.0, 24.8, 18.8)">
    <path d="M-18.6 -10.1 L-18.7 -9.05 Q-18.7 -7.15 -17.8 -5.8 L-17.8 -5.75 Q-17.2 -4.85 -16.35 -4.75 -15.6 -4.85 -15.0 -5.75 L-15.0 -5.8 Q-14.3 -6.85 -14.1 -8.25 L-18.6 -10.1 M-21.9 -11.5 L-24.65 -13.1 -24.7 -13.2 Q-24.95 -13.8 -24.65 -14.35 L-23.85 -15.15 -22.7 -15.1 -20.05 -13.95 -19.05 -13.8 -18.45 -13.25 -10.65 -9.75 -10.55 -9.15 -10.55 -9.0 Q-10.6 -5.95 -12.1 -3.8 L-12.05 -3.85 Q-13.8 -1.15 -16.35 -1.25 -18.9 -1.15 -20.7 -3.8 -22.2 -5.95 -22.2 -9.05 L-21.9 -11.5" fill="#000000" fill-rule="evenodd" stroke="none"/>
    <path d="M2.45 -5.1 Q1.1 -3.05 -0.85 -3.05 -2.75 -3.05 -4.15 -5.1 -5.5 -7.15 -5.5 -10.05 -5.5 -11.65 -5.1 -13.0 L-4.15 -15.0 -3.15 -16.15 Q-2.1 -17.05 -0.85 -17.05 1.1 -17.05 2.45 -15.0 3.85 -12.95 3.85 -10.05 3.85 -7.15 2.45 -5.1 Z" fill="none" stroke="#000000" stroke-linecap="round" stroke-linejoin="round" stroke-width="3.5"/>
  </g>
</svg>
