<?xml version="1.0" encoding="UTF-8" standalone="no"?>
<svg xmlns:ffdec="https://www.free-decompiler.com/flash" xmlns:xlink="http://www.w3.org/1999/xlink" ffdec:objectType="shape" height="168.05px" width="69.5px" xmlns="http://www.w3.org/2000/svg">
  <g transform="matrix(1.0, 0.0, 0.0, 1.0, 29.4, 135.95)">
    <path d="M-23.9 -14.6 Q-16.15 -6.9 -5.25 -4.5 14.3 -0.3 35.85 -8.05 L36.9 -5.45 Q42.0 8.15 35.35 19.15 28.95 29.75 19.7 30.9 32.25 14.7 28.65 0.35 32.75 -0.8 36.6 -2.45 L37.15 -3.0 37.15 -3.8 36.6 -4.3 Q36.2 -4.5 35.8 -4.3 31.6 -2.5 27.15 -1.3 13.2 2.25 -3.9 -0.65 L-3.95 -0.7 Q-15.3 -2.05 -21.75 -10.95 -22.0 -11.3 -22.4 -11.35 L-23.1 -11.2 -23.5 -10.55 Q-23.6 -10.15 -23.35 -9.8 -20.75 -6.15 -17.35 -3.7 L-17.6 -3.6 Q-19.45 -2.95 -16.75 5.85 -14.0 14.65 -7.65 19.1 -1.35 23.5 6.1 23.55 13.55 23.55 18.9 17.9 24.2 12.25 22.7 6.05 22.0 3.3 19.5 2.15 23.2 1.7 26.7 0.85 30.05 14.5 17.9 30.0 17.6 30.3 17.65 30.75 L17.75 31.05 Q8.55 31.5 -3.0 27.75 -15.35 23.75 -21.15 12.5 -25.7 3.65 -25.25 -6.5 -25.05 -10.8 -23.9 -14.6 M-4.85 1.25 L-4.2 1.3 -4.25 1.3 4.1 2.35 Q-0.85 2.5 -4.85 1.25" fill="#456972" fill-rule="evenodd" stroke="none"/>
    <path d="M19.5 2.15 Q22.0 3.3 22.7 6.05 24.2 12.25 18.9 17.9 13.55 23.55 6.1 23.55 -1.35 23.5 -7.65 19.1 -14.0 14.65 -16.75 5.85 -19.45 -2.95 -17.6 -3.6 L-17.35 -3.7 Q-12.05 0.2 -4.85 1.25 -0.85 2.5 4.1 2.35 12.15 3.0 19.5 2.15" fill="#4d7580" fill-rule="evenodd" stroke="none"/>
    <path d="M19.7 30.9 L19.45 31.25 Q19.2 31.55 18.8 31.6 L18.05 31.4 17.75 31.05 19.05 30.95 19.7 30.9 19.05 30.95 17.75 31.05 17.65 30.75 Q17.6 30.3 17.9 30.0 30.05 14.5 26.7 0.85 23.2 1.7 19.5 2.15 12.15 3.0 4.1 2.35 L-4.25 1.3 -4.2 1.3 -4.85 1.25 Q-12.05 0.2 -17.35 -3.7 -20.75 -6.15 -23.35 -9.8 -23.6 -10.15 -23.5 -10.55 L-23.1 -11.2 -22.4 -11.35 Q-22.0 -11.3 -21.75 -10.95 -15.3 -2.05 -3.95 -0.7 L-3.9 -0.65 Q13.2 2.25 27.15 -1.3 31.6 -2.5 35.8 -4.3 36.2 -4.5 36.6 -4.3 L37.15 -3.8 37.15 -3.0 36.6 -2.45 Q32.75 -0.8 28.65 0.35 32.25 14.7 19.7 30.9 M-3.05 -99.6 Q-4.1 -98.4 -5.4 -97.9 -6.75 -97.4 -7.25 -99.1 -7.8 -100.8 -6.9 -101.65 L-5.5 -103.1 Q-4.9 -103.65 -4.05 -103.65 -3.2 -103.65 -2.65 -103.1 -2.05 -102.5 -2.05 -101.65 -2.05 -100.8 -3.05 -99.6" fill="#3a5961" fill-rule="evenodd" stroke="none"/>
    <path d="M15.1 -10.95 L8.8 -10.95 Q13.6 -11.35 18.4 -14.45 20.4 -19.8 21.2 -27.25 24.0 -53.1 12.95 -104.5 9.3 -112.5 1.9 -110.55 -9.5 -107.45 -20.8 -98.25 L-20.8 -107.35 -15.05 -118.45 Q-17.45 -111.75 -19.7 -101.25 -10.55 -109.65 -6.25 -112.65 -0.9 -116.5 3.15 -124.05 L3.15 -124.1 Q4.7 -127.15 4.45 -129.0 6.75 -127.15 9.45 -124.2 18.05 -114.9 22.6 -70.45 26.25 -34.35 33.6 -15.85 33.5 -15.3 32.7 -14.75 29.5 -12.65 15.1 -10.95 M-14.65 -75.25 Q-4.7 -73.4 3.2 -79.0 -7.0 -60.1 -11.65 -30.45 L-13.25 -18.55 Q-11.95 -15.55 -4.9 -12.6 -11.85 -13.4 -15.9 -16.15 -19.95 -18.85 -21.25 -20.7 -22.0 -21.7 -21.9 -22.45 -12.0 -38.75 -13.35 -53.2 -14.95 -70.25 -14.45 -75.05 L-14.65 -75.25" fill="#4aa420" fill-rule="evenodd" stroke="none"/>
    <path d="M-20.8 -107.35 L-20.8 -98.25 Q-9.5 -107.45 1.9 -110.55 9.3 -112.5 12.95 -104.5 24.0 -53.1 21.2 -27.25 20.4 -19.8 18.4 -14.45 13.6 -11.35 8.8 -10.95 L15.1 -10.95 Q28.35 -10.7 33.8 -12.7 L33.85 -12.7 Q35.05 -11.85 34.8 -10.55 L34.45 -9.65 Q13.85 -2.5 -4.8 -6.45 -15.55 -8.85 -23.1 -16.65 L-23.15 -16.8 Q-24.0 -19.05 -23.1 -20.4 -23.05 -19.95 -22.05 -19.25 -20.35 -18.05 -15.9 -16.15 -11.85 -13.4 -4.9 -12.6 -11.95 -15.55 -13.25 -18.55 L-11.65 -30.45 Q-7.0 -60.1 3.2 -79.0 -4.7 -73.4 -14.65 -75.25 L-14.95 -75.6 -22.85 -81.55 Q-30.45 -86.95 -24.75 -99.1 L-20.8 -107.35 M-3.05 -99.6 Q-2.05 -100.8 -2.05 -101.65 -2.05 -102.5 -2.65 -103.1 -3.2 -103.65 -4.05 -103.65 -4.9 -103.65 -5.5 -103.1 L-6.9 -101.65 Q-7.8 -100.8 -7.25 -99.1 -6.75 -97.4 -5.4 -97.9 -4.1 -98.4 -3.05 -99.6" fill="#58be25" fill-rule="evenodd" stroke="none"/>
    <path d="M15.1 -10.95 Q29.5 -12.65 32.7 -14.75 33.5 -15.3 33.6 -15.85 26.25 -34.35 22.6 -70.45 18.05 -114.9 9.45 -124.2 6.75 -127.15 4.45 -129.0 4.7 -127.15 3.15 -124.1 L3.15 -124.05 Q-0.9 -116.5 -6.25 -112.65 -10.55 -109.65 -19.7 -101.25 -17.45 -111.75 -15.05 -118.45 L-20.8 -107.35 -24.75 -99.1 Q-30.45 -86.95 -22.85 -81.55 L-14.95 -75.6 -14.65 -75.25 -14.45 -75.05 Q-14.95 -70.25 -13.35 -53.2 -12.0 -38.75 -21.9 -22.45 -22.0 -21.7 -21.25 -20.7 -19.95 -18.85 -15.9 -16.15 -20.35 -18.05 -22.05 -19.25 -23.05 -19.95 -23.1 -20.4 -24.0 -19.05 -23.15 -16.8 L-23.1 -16.65 Q-15.55 -8.85 -4.8 -6.45 13.85 -2.5 34.45 -9.65 L34.8 -10.55 Q35.05 -11.85 33.85 -12.7 L33.8 -12.7 Q28.35 -10.7 15.1 -10.95 M-23.9 -14.6 L-25.0 -15.75 -25.35 -16.3 -25.4 -17.5 -25.25 -20.75 Q-15.0 -36.5 -16.55 -53.0 -18.1 -69.5 -20.65 -76.35 -33.8 -86.15 -27.15 -99.45 L-14.25 -125.75 Q-10.75 -133.0 -6.2 -135.05 -1.6 -137.25 4.1 -134.1 L4.3 -133.95 Q21.55 -116.8 26.6 -70.9 30.95 -31.35 36.35 -13.9 36.9 -11.4 36.85 -10.15 L36.55 -8.6 36.0 -8.1 35.85 -8.05 Q14.3 -0.3 -5.25 -4.5 -16.15 -6.9 -23.9 -14.6 M1.4 -125.0 Q2.95 -128.0 2.2 -129.3 1.2 -130.5 -2.3 -130.15 L-2.35 -130.15 Q-4.35 -129.9 -5.7 -128.45 -12.85 -121.0 -15.85 -106.85 -11.5 -111.45 -7.4 -114.3 -2.4 -117.9 1.4 -125.0" fill="#18350b" fill-rule="evenodd" stroke="none"/>
    <path d="M1.4 -125.0 Q-2.4 -117.9 -7.4 -114.3 -11.5 -111.45 -15.85 -106.85 -12.85 -121.0 -5.7 -128.45 -4.35 -129.9 -2.35 -130.15 L-2.3 -130.15 Q1.2 -130.5 2.2 -129.3 2.95 -128.0 1.4 -125.0" fill="#c18753" fill-rule="evenodd" stroke="none"/>
    <path d="M35.85 -8.05 L36.9 -5.45 Q42.0 8.15 35.35 19.15 28.95 29.75 19.7 30.9 L19.05 30.95 17.75 31.05 Q8.55 31.5 -3.0 27.75 -15.35 23.75 -21.15 12.5 -25.7 3.65 -25.25 -6.5 -25.05 -10.8 -23.9 -14.6" fill="none" stroke="#25383d" stroke-linecap="round" stroke-linejoin="round" stroke-width="2.0"/>
  </g>
</svg>
