<?xml version="1.0" encoding="UTF-8" standalone="no"?>
<svg xmlns:ffdec="https://www.free-decompiler.com/flash" xmlns:xlink="http://www.w3.org/1999/xlink" ffdec:objectType="shape" height="20.55px" width="33.75px" xmlns="http://www.w3.org/2000/svg">
  <g transform="matrix(1.0, 0.0, 0.0, 1.0, 15.55, 10.95)">
    <path d="M0.45 -0.55 Q0.45 3.65 -1.9 6.6 -4.25 9.6 -7.55 9.6 -10.85 9.6 -13.2 6.6 -15.55 3.65 -15.55 -0.55 L-15.55 -0.65 Q-15.5 -4.8 -13.2 -7.75 -10.85 -10.7 -7.55 -10.7 -4.25 -10.7 -1.9 -7.75 0.4 -4.8 0.45 -0.65 L0.45 -0.55 M18.2 -0.8 Q18.2 3.4 15.85 6.35 13.5 9.35 10.2 9.35 6.9 9.35 4.55 6.35 2.2 3.4 2.2 -0.8 L2.2 -0.9 Q2.25 -5.05 4.55 -8.0 6.9 -10.95 10.2 -10.95 13.5 -10.95 15.85 -8.0 18.15 -5.05 18.2 -0.9 L18.2 -0.8" fill="#b6ad51" fill-rule="evenodd" stroke="none"/>
    <path d="M9.15 -7.05 Q11.1 -7.05 12.45 -5.0 13.85 -2.95 13.85 -0.05 13.85 2.85 12.45 4.9 11.1 6.95 9.15 6.95 7.25 6.95 5.85 4.9 4.5 2.85 4.5 -0.05 4.5 -1.65 4.9 -3.0 5.2 -4.1 5.85 -5.0 L6.85 -6.15 Q7.9 -7.05 9.15 -7.05 M-6.35 -5.15 Q-4.7 -5.15 -3.55 -3.35 -2.35 -1.6 -2.3 0.95 -2.35 3.45 -3.55 5.2 -4.7 7.0 -6.35 7.0 -8.05 7.0 -9.25 5.2 -10.45 3.45 -10.45 0.95 -10.45 -0.5 -10.05 -1.65 L-9.25 -3.35 -8.4 -4.35 Q-7.5 -5.15 -6.35 -5.15" fill="#ce9255" fill-rule="evenodd" stroke="none"/>
    <path d="M9.15 -7.05 Q11.1 -7.05 12.45 -5.0 13.85 -2.95 13.85 -0.05 13.85 2.85 12.45 4.9 11.1 6.95 9.15 6.95 7.25 6.95 5.85 4.9 4.5 2.85 4.5 -0.05 4.5 -1.65 4.9 -3.0 5.2 -4.1 5.85 -5.0 L6.85 -6.15 Q7.9 -7.05 9.15 -7.05 M-6.35 -5.15 Q-4.7 -5.15 -3.55 -3.35 -2.35 -1.6 -2.3 0.95 -2.35 3.45 -3.55 5.2 -4.7 7.0 -6.35 7.0 -8.05 7.0 -9.25 5.2 -10.45 3.45 -10.45 0.95 -10.45 -0.5 -10.05 -1.65 L-9.25 -3.35 -8.4 -4.35 Q-7.5 -5.15 -6.35 -5.15 Z" fill="none" stroke="#000000" stroke-linecap="round" stroke-linejoin="round" stroke-width="3.5"/>
  </g>
</svg>
