<?xml version="1.0" encoding="UTF-8" standalone="no"?>
<svg xmlns:ffdec="https://www.free-decompiler.com/flash" xmlns:xlink="http://www.w3.org/1999/xlink" ffdec:objectType="shape" height="15.6px" width="31.2px" xmlns="http://www.w3.org/2000/svg">
  <g transform="matrix(1.0, 0.0, 0.0, 1.0, 14.25, 7.75)">
    <path d="M4.35 -5.45 Q6.5 -7.75 9.55 -7.75 12.6 -7.75 14.8 -5.45 16.9 -3.2 16.95 0.0 L16.95 0.05 Q16.95 3.3 14.8 5.55 12.6 7.85 9.55 7.85 6.5 7.85 4.35 5.55 2.2 3.3 2.2 0.05 L2.2 0.0 Q2.2 -3.2 4.35 -5.45 M0.5 0.0 Q0.45 3.15 -1.7 5.35 -3.85 7.55 -6.9 7.55 -9.95 7.55 -12.1 5.35 -14.3 3.15 -14.25 0.0 L-14.25 -0.05 Q-14.25 -3.1 -12.1 -5.3 -9.95 -7.5 -6.9 -7.5 -3.85 -7.5 -1.7 -5.3 0.45 -3.1 0.5 -0.05 L0.5 0.0" fill="#b6ad51" fill-rule="evenodd" stroke="none"/>
    <path d="M9.15 -3.35 Q11.1 -3.35 12.45 -2.05 13.85 -0.8 13.85 1.05 13.85 2.85 12.45 4.15 11.1 5.4 9.15 5.4 7.25 5.4 5.85 4.15 4.5 2.85 4.5 1.05 4.5 0.0 4.9 -0.8 5.2 -1.5 5.85 -2.05 L6.85 -2.8 Q7.9 -3.35 9.15 -3.35 M-6.35 -2.15 Q-4.7 -2.15 -3.55 -1.05 -2.35 0.05 -2.3 1.65 -2.35 3.2 -3.55 4.35 -4.7 5.45 -6.35 5.45 -8.05 5.45 -9.25 4.35 -10.45 3.2 -10.45 1.65 -10.45 0.8 -10.05 0.05 L-9.25 -1.05 -8.4 -1.65 -6.35 -2.15" fill="#ce9255" fill-rule="evenodd" stroke="none"/>
    <path d="M9.15 -3.35 Q11.1 -3.35 12.45 -2.05 13.85 -0.8 13.85 1.05 13.85 2.85 12.45 4.15 11.1 5.4 9.15 5.4 7.25 5.4 5.85 4.15 4.5 2.85 4.5 1.05 4.5 0.0 4.9 -0.8 5.2 -1.5 5.85 -2.05 L6.85 -2.8 Q7.9 -3.35 9.15 -3.35 M-6.35 -2.15 Q-4.7 -2.15 -3.55 -1.05 -2.35 0.05 -2.3 1.65 -2.35 3.2 -3.55 4.35 -4.7 5.45 -6.35 5.45 -8.05 5.45 -9.25 4.35 -10.45 3.2 -10.45 1.65 -10.45 0.8 -10.05 0.05 L-9.25 -1.05 -8.4 -1.65 -6.35 -2.15 Z" fill="none" stroke="#000000" stroke-linecap="round" stroke-linejoin="round" stroke-width="3.5"/>
  </g>
</svg>
