<?xml version="1.0" encoding="UTF-8" standalone="no"?>
<svg xmlns:ffdec="https://www.free-decompiler.com/flash" xmlns:xlink="http://www.w3.org/1999/xlink" ffdec:objectType="shape" height="12.05px" width="31.2px" xmlns="http://www.w3.org/2000/svg">
  <g transform="matrix(1.0, 0.0, 0.0, 1.0, 14.25, 7.7)">
    <path d="M0.5 -1.6 Q0.45 0.85 -1.7 2.6 -3.85 4.3 -6.9 4.35 -9.95 4.3 -12.1 2.6 -14.3 0.85 -14.25 -1.6 L-14.25 -1.65 Q-14.25 -4.05 -12.1 -5.75 -9.95 -7.5 -6.9 -7.5 -3.85 -7.5 -1.7 -5.75 0.45 -4.05 0.5 -1.65 L0.5 -1.6 M16.95 -1.8 Q16.95 0.65 14.8 2.4 12.6 4.1 9.55 4.15 6.5 4.1 4.35 2.4 2.2 0.65 2.2 -1.8 L2.2 -1.85 Q2.2 -4.3 4.35 -6.0 6.5 -7.7 9.55 -7.7 12.6 -7.7 14.8 -6.0 16.9 -4.3 16.95 -1.85 L16.95 -1.8" fill="#b6ad51" fill-rule="evenodd" stroke="none"/>
    <path d="M14.95 0.35 L4.2 1.1" fill="none" stroke="#333333" stroke-linecap="round" stroke-linejoin="round" stroke-width="2.0"/>
    <path d="M-2.3 1.35 L-10.55 1.6" fill="none" stroke="#333333" stroke-linecap="round" stroke-linejoin="round" stroke-width="2.0"/>
  </g>
</svg>
