<?xml version="1.0" encoding="UTF-8" standalone="no"?>
<svg xmlns:ffdec="https://www.free-decompiler.com/flash" xmlns:xlink="http://www.w3.org/1999/xlink" ffdec:objectType="shape" height="20.55px" width="32.9px" xmlns="http://www.w3.org/2000/svg">
  <g transform="matrix(1.0, 0.0, 0.0, 1.0, 15.55, 10.95)">
    <path d="M0.45 -0.55 Q0.45 3.65 -1.9 6.6 -4.25 9.6 -7.55 9.6 -10.85 9.6 -13.2 6.6 -15.55 3.65 -15.55 -0.55 L-14.8 -2.3 Q-14.1 -4.05 -11.15 -6.75 -8.3 -9.4 -6.25 -10.05 -4.25 -10.7 -1.9 -7.75 0.4 -4.8 0.45 -0.65 L0.45 -0.55 M16.25 -2.6 Q17.7 -0.2 17.2 2.05 16.7 4.25 15.1 6.8 13.5 9.35 10.2 9.35 6.9 9.35 4.55 6.35 2.2 3.4 2.2 -0.8 L2.2 -0.9 Q2.25 -5.05 4.55 -8.0 6.9 -10.95 9.95 -10.95 12.95 -10.95 13.85 -8.0 14.75 -5.05 16.25 -2.6" fill="#b6ad51" fill-rule="evenodd" stroke="none"/>
    <path d="M-9.85 -0.65 L-3.4 -5.7 -2.95 -5.65 -2.75 -5.3 -2.5 -3.75 Q-2.25 -0.9 -2.45 2.2 -2.55 3.85 -3.65 5.15 L-4.95 6.35 Q-6.9 7.65 -8.55 5.95 -9.65 4.95 -10.1 3.25 -10.8 0.75 -9.85 -0.65 M6.15 -6.25 L6.4 -6.2 Q9.1 -4.85 11.25 -2.45 L12.1 -1.35 13.15 0.65 Q14.0 3.1 12.5 5.2 11.6 6.45 10.1 6.85 8.05 7.3 6.65 5.8 4.85 3.9 4.55 1.4 4.15 -2.4 6.15 -5.6 L6.15 -6.25" fill="#ce9255" fill-rule="evenodd" stroke="none"/>
    <path d="M6.15 -6.25 L6.15 -5.6 Q4.15 -2.4 4.55 1.4 4.85 3.9 6.65 5.8 8.05 7.3 10.1 6.85 11.6 6.45 12.5 5.2 14.0 3.1 13.15 0.65 L12.1 -1.35 11.25 -2.45 Q9.1 -4.85 6.4 -6.2 L6.15 -6.25 M-9.85 -0.65 Q-10.8 0.75 -10.1 3.25 -9.65 4.95 -8.55 5.95 -6.9 7.65 -4.95 6.35 L-3.65 5.15 Q-2.55 3.85 -2.45 2.2 -2.25 -0.9 -2.5 -3.75 L-2.75 -5.3 -2.95 -5.65 -3.4 -5.7 -9.85 -0.65 Z" fill="none" stroke="#000000" stroke-linecap="round" stroke-linejoin="round" stroke-width="3.5"/>
  </g>
</svg>
