<?xml version="1.0" encoding="UTF-8" standalone="no"?>
<svg xmlns:ffdec="https://www.free-decompiler.com/flash" xmlns:xlink="http://www.w3.org/1999/xlink" ffdec:objectType="shape" height="19.9px" width="33.75px" xmlns="http://www.w3.org/2000/svg">
  <g transform="matrix(1.0, 0.0, 0.0, 1.0, 15.55, 10.3)">
    <path d="M0.45 -0.55 Q0.45 3.65 -1.9 6.6 -4.25 9.6 -7.55 9.6 -10.85 9.6 -13.2 6.6 -15.55 3.65 -15.55 -0.55 L-15.55 -0.65 Q-15.5 -4.8 -13.2 -7.75 -10.85 -10.7 -7.95 -8.5 -5.05 -6.35 -2.4 -5.0 0.2 -3.6 0.35 -2.1 L0.45 -0.55 M3.0 -1.5 Q3.8 -2.2 5.85 -5.75 7.8 -9.3 10.65 -10.1 13.5 -10.95 15.85 -8.0 18.15 -5.05 18.2 -0.9 L18.2 -0.8 Q18.2 3.4 15.85 6.35 13.5 9.35 10.2 9.35 6.9 9.35 4.55 6.35 2.2 3.4 2.2 -0.8 L3.0 -1.5" fill="#b6ad51" fill-rule="evenodd" stroke="none"/>
    <path d="M12.8 -4.35 Q13.85 -2.55 13.85 -0.05 13.85 2.85 12.45 4.9 11.1 6.95 9.15 6.95 7.25 6.95 5.85 4.9 4.7 3.2 4.55 0.95 L12.8 -4.35 M-2.35 0.45 L-2.3 0.95 Q-2.35 3.45 -3.55 5.2 -4.7 7.0 -6.35 7.0 -8.05 7.0 -9.25 5.2 -10.45 3.45 -10.45 0.95 -10.45 -0.5 -10.05 -1.65 L-9.9 -2.1 -2.35 0.45" fill="#ce9255" fill-rule="evenodd" stroke="none"/>
    <path d="M12.8 -4.35 Q13.85 -2.55 13.85 -0.05 13.85 2.85 12.45 4.9 11.1 6.95 9.15 6.95 7.25 6.95 5.85 4.9 4.7 3.2 4.55 0.95 M-2.35 0.45 L-2.3 0.95 Q-2.35 3.45 -3.55 5.2 -4.7 7.0 -6.35 7.0 -8.05 7.0 -9.25 5.2 -10.45 3.45 -10.45 0.95 -10.45 -0.5 -10.05 -1.65 L-9.9 -2.1" fill="none" stroke="#000000" stroke-linecap="round" stroke-linejoin="round" stroke-width="3.5"/>
    <path d="M4.55 0.95 L3.45 1.6 M4.55 0.95 L12.8 -4.35 M-9.9 -2.1 L-2.35 0.45 -1.8 0.6" fill="none" stroke="#000000" stroke-linecap="round" stroke-linejoin="round" stroke-width="3.5"/>
  </g>
</svg>
