<?xml version="1.0" encoding="UTF-8" standalone="no"?>
<svg xmlns:ffdec="https://www.free-decompiler.com/flash" xmlns:xlink="http://www.w3.org/1999/xlink" ffdec:objectType="shape" height="15.4px" width="33.75px" xmlns="http://www.w3.org/2000/svg">
  <g transform="matrix(1.0, 0.0, 0.0, 1.0, 15.55, 5.8)">
    <path d="M0.45 -0.55 Q0.45 3.65 -1.9 6.6 -4.25 9.6 -7.55 9.6 -10.85 9.6 -13.2 6.6 -15.55 3.65 -15.55 -0.55 L-15.55 -0.65 Q-15.55 -2.65 -14.95 -4.4 -7.55 -7.2 -0.1 -4.4 0.45 -2.65 0.45 -0.65 L0.45 -0.55 M2.7 -4.4 Q10.2 -6.3 17.7 -4.4 18.2 -2.75 18.2 -0.9 L18.2 -0.8 Q18.2 3.4 15.85 6.35 13.5 9.35 10.2 9.35 6.9 9.35 4.55 6.35 2.2 3.4 2.2 -0.8 L2.2 -0.9 Q2.2 -2.75 2.7 -4.4" fill="#b6ad51" fill-rule="evenodd" stroke="none"/>
    <path d="M4.5 0.1 L13.85 0.1 Q13.8 2.9 12.45 4.9 11.1 6.95 9.15 6.95 7.25 6.95 5.85 4.9 4.5 2.9 4.5 0.1 M-10.4 0.1 L-2.35 0.1 -2.3 0.95 Q-2.35 3.45 -3.55 5.2 -4.7 7.0 -6.35 7.0 -8.05 7.0 -9.25 5.2 -10.45 3.45 -10.45 0.95 L-10.4 0.1" fill="#ce9255" fill-rule="evenodd" stroke="none"/>
    <path d="M13.85 0.1 Q13.8 2.9 12.45 4.9 11.1 6.95 9.15 6.95 7.25 6.95 5.85 4.9 4.5 2.9 4.5 0.1 M-2.35 0.1 L-2.3 0.95 Q-2.35 3.45 -3.55 5.2 -4.7 7.0 -6.35 7.0 -8.05 7.0 -9.25 5.2 -10.45 3.45 -10.45 0.95 L-10.4 0.1" fill="none" stroke="#000000" stroke-linecap="round" stroke-linejoin="round" stroke-width="3.5"/>
    <path d="M4.5 0.1 L13.85 0.1 M-10.4 0.1 L-2.35 0.1" fill="none" stroke="#000000" stroke-linecap="round" stroke-linejoin="round" stroke-width="3.5"/>
  </g>
</svg>
