<?xml version="1.0" encoding="UTF-8" standalone="no"?>
<svg xmlns:ffdec="https://www.free-decompiler.com/flash" xmlns:xlink="http://www.w3.org/1999/xlink" ffdec:objectType="shape" height="16.2px" width="33.75px" xmlns="http://www.w3.org/2000/svg">
  <g transform="matrix(1.0, 0.0, 0.0, 1.0, 15.55, 10.95)">
    <path d="M2.2 -0.9 Q2.25 -5.05 4.55 -8.0 6.9 -10.95 10.2 -10.95 13.5 -10.95 15.85 -8.0 18.15 -5.05 18.2 -0.9 L18.2 -0.8 Q18.2 3.4 16.55 4.0 14.9 4.6 11.95 3.35 9.0 2.1 5.6 2.75 2.2 3.4 2.2 -0.8 L2.2 -0.9 M0.45 1.7 Q0.45 3.95 -3.9 3.55 -8.25 3.1 -10.75 4.5 -13.3 5.85 -14.45 4.75 -15.6 3.6 -15.55 1.5 L-15.55 -0.65 Q-15.5 -4.8 -13.2 -7.75 -10.85 -10.7 -7.55 -10.7 -4.25 -10.7 -1.9 -7.75 0.4 -4.8 0.45 -0.65 L0.45 1.7" fill="#b6ad51" fill-rule="evenodd" stroke="none"/>
    <path d="M14.95 0.35 Q8.3 -10.6 4.2 1.1" fill="none" stroke="#333333" stroke-linecap="round" stroke-linejoin="round" stroke-width="2.0"/>
    <path d="M-2.3 1.35 Q-6.9 -6.45 -10.55 1.6" fill="none" stroke="#333333" stroke-linecap="round" stroke-linejoin="round" stroke-width="2.0"/>
  </g>
</svg>
