<?xml version="1.0" encoding="UTF-8" standalone="no"?>
<svg xmlns:ffdec="https://www.free-decompiler.com/flash" xmlns:xlink="http://www.w3.org/1999/xlink" ffdec:objectType="shape" height="20.35px" width="32.95px" xmlns="http://www.w3.org/2000/svg">
  <g transform="matrix(1.0, 0.0, 0.0, 1.0, 14.75, 10.75)">
    <path d="M0.45 -0.55 Q0.45 3.65 -1.9 6.6 -4.25 9.6 -7.55 9.6 -10.85 9.6 -13.2 6.6 -15.55 3.65 -14.35 0.8 L-12.35 -3.65 -10.15 -8.0 Q-8.7 -10.8 -6.45 -10.75 -4.25 -10.7 -1.9 -7.75 0.4 -4.8 0.45 -0.65 L0.45 -0.55 M9.35 -10.5 Q11.75 -10.1 13.85 -7.0 L17.05 -2.35 18.2 -0.8 Q18.2 3.4 14.8 3.7 11.4 3.95 7.3 6.1 3.2 8.25 2.35 5.85 1.5 3.4 1.85 1.3 L2.2 -0.9 Q2.25 -5.05 4.55 -8.0 6.9 -10.95 9.35 -10.5" fill="#b6ad51" fill-rule="evenodd" stroke="none"/>
    <path d="M5.7 -7.45 Q6.75 -8.7 8.25 -8.55 9.65 -8.4 15.4 -2.25 L15.6 -0.05 15.65 1.1 Q16.25 1.1 18.05 2.7 L16.7 3.0 Q13.35 3.85 3.2 7.8 L3.05 7.55 Q2.75 7.0 2.95 6.4 3.1 5.8 3.65 5.55 L4.05 5.35 Q2.75 3.05 2.75 -0.05 2.75 -1.9 3.25 -3.5 L3.2 -3.45 Q3.6 -4.8 4.4 -5.95 L4.45 -6.0 5.75 -7.5 5.7 -7.45 M-5.0 -2.35 L-5.0 -2.4 Q-5.5 -3.1 -6.05 -3.3 -7.05 -2.7 -8.35 0.9 L-8.65 1.7 Q-8.5 3.1 -7.8 4.2 L-7.8 4.25 Q-7.2 5.15 -6.35 5.25 -5.6 5.15 -5.0 4.25 L-5.0 4.2 Q-4.1 2.85 -4.05 0.95 -4.1 -1.0 -5.0 -2.35 M8.35 -4.9 L7.95 -4.8 7.35 -4.05 7.3 -3.95 Q6.8 -3.35 6.6 -2.55 L6.6 -2.5 Q6.25 -1.4 6.25 -0.05 6.25 2.05 7.1 3.6 9.85 1.85 12.15 1.4 L12.25 0.0 12.4 -0.55 Q12.3 -0.4 10.55 -2.7 8.75 -5.0 8.35 -4.9 M-6.9 -8.05 L-4.75 -7.35 Q-3.5 -6.5 -2.1 -4.35 -0.6 -2.2 -0.55 0.95 L-0.55 1.0 Q-0.6 4.05 -2.1 6.2 L-2.05 6.15 Q-3.8 8.85 -6.35 8.75 -8.9 8.85 -10.7 6.2 -12.0 4.35 -12.15 1.8 L-6.9 -8.05" fill="#000000" fill-rule="evenodd" stroke="none"/>
    <path d="M8.35 -4.9 Q8.75 -5.0 10.55 -2.7 12.3 -0.4 12.4 -0.55 L12.25 0.0 12.15 1.4 Q9.85 1.85 7.1 3.6 6.25 2.05 6.25 -0.05 6.25 -1.4 6.6 -2.5 L6.6 -2.55 Q6.8 -3.35 7.3 -3.95 L7.35 -4.05 7.95 -4.8 8.35 -4.9 M-5.0 -2.35 Q-4.1 -1.0 -4.05 0.95 -4.1 2.85 -5.0 4.2 L-5.0 4.25 Q-5.6 5.15 -6.35 5.25 -7.2 5.15 -7.8 4.25 L-7.8 4.2 Q-8.5 3.1 -8.65 1.7 L-8.35 0.9 Q-7.05 -2.7 -6.05 -3.3 -5.5 -3.1 -5.0 -2.4 L-5.0 -2.35" fill="#ce9255" fill-rule="evenodd" stroke="none"/>
  </g>
</svg>
