<?xml version="1.0" encoding="UTF-8" standalone="no"?>
<svg xmlns:ffdec="https://www.free-decompiler.com/flash" xmlns:xlink="http://www.w3.org/1999/xlink" ffdec:objectType="shape" height="20.55px" width="33.75px" xmlns="http://www.w3.org/2000/svg">
  <g transform="matrix(1.0, 0.0, 0.0, 1.0, 15.55, 10.95)">
    <path d="M4.55 -8.0 Q6.9 -10.95 10.2 -10.95 13.5 -10.95 15.85 -8.0 18.15 -5.05 18.2 -0.9 L18.2 -0.8 Q18.2 3.4 15.85 6.35 13.5 9.35 10.2 9.35 6.9 9.35 4.55 6.35 2.2 3.4 2.2 -0.8 L2.2 -0.9 Q2.25 -5.05 4.55 -8.0 M0.45 -0.55 Q0.45 3.65 -1.9 6.6 -4.25 9.6 -7.55 9.6 -10.85 9.6 -13.2 6.6 -15.55 3.65 -15.55 -0.55 L-15.55 -0.65 Q-15.5 -4.8 -13.25 -7.6 -10.95 -10.4 -8.65 -7.85 -6.35 -5.3 -3.35 -3.9 -0.35 -2.5 0.05 -1.55 L0.45 -0.55" fill="#b6ad51" fill-rule="evenodd" stroke="none"/>
    <path d="M-14.65 -3.1 L-14.7 -3.2 Q-14.95 -3.8 -14.65 -4.35 L-13.85 -5.15 -12.7 -5.1 -10.05 -3.95 -9.05 -3.8 -8.45 -3.25 -0.65 0.25 -0.55 0.85 -0.55 1.0 Q-0.6 4.05 -2.1 6.2 L-2.05 6.15 Q-3.8 8.85 -6.35 8.75 -8.9 8.85 -10.7 6.2 -12.2 4.05 -12.2 0.95 L-11.9 -1.5 -14.65 -3.1 M-5.0 4.25 L-5.0 4.2 Q-4.3 3.15 -4.1 1.75 L-8.6 -0.1 -8.7 0.95 Q-8.7 2.85 -7.8 4.2 L-7.8 4.25 Q-7.2 5.15 -6.35 5.25 -5.6 5.15 -5.0 4.25" fill="#000000" fill-rule="evenodd" stroke="none"/>
    <path d="M9.15 -7.05 Q11.1 -7.05 12.45 -5.0 13.85 -2.95 13.85 -0.05 13.85 2.85 12.45 4.9 11.1 6.95 9.15 6.95 7.25 6.95 5.85 4.9 4.5 2.85 4.5 -0.05 4.5 -1.65 4.9 -3.0 5.2 -4.1 5.85 -5.0 L6.85 -6.15 Q7.9 -7.05 9.15 -7.05 M-5.0 4.25 Q-5.6 5.15 -6.35 5.25 -7.2 5.15 -7.8 4.25 L-7.8 4.2 Q-8.7 2.85 -8.7 0.95 L-8.6 -0.1 -4.1 1.75 Q-4.3 3.15 -5.0 4.2 L-5.0 4.25" fill="#ce9255" fill-rule="evenodd" stroke="none"/>
    <path d="M9.15 -7.05 Q11.1 -7.05 12.45 -5.0 13.85 -2.95 13.85 -0.05 13.85 2.85 12.45 4.9 11.1 6.95 9.15 6.95 7.25 6.95 5.85 4.9 4.5 2.85 4.5 -0.05 4.5 -1.65 4.9 -3.0 5.2 -4.1 5.85 -5.0 L6.85 -6.15 Q7.9 -7.05 9.15 -7.05 Z" fill="none" stroke="#000000" stroke-linecap="round" stroke-linejoin="round" stroke-width="3.5"/>
  </g>
</svg>
