<?xml version="1.0" encoding="UTF-8" standalone="no"?>
<svg xmlns:ffdec="https://www.free-decompiler.com/flash" xmlns:xlink="http://www.w3.org/1999/xlink" ffdec:objectType="shape" height="43.25px" width="43.25px" xmlns="http://www.w3.org/2000/svg">
  <g transform="matrix(1.0, 0.0, 0.0, 1.0, -2.25, -0.05)">
    <path d="M40.65 4.85 Q43.25 7.35 43.25 12.45 L43.25 30.9 Q43.2 41.05 33.05 41.05 L14.7 41.05 Q4.5 41.05 4.5 30.85 L4.5 12.45 Q4.5 7.35 7.1 4.85 9.6 2.25 14.7 2.3 L33.05 2.3 Q38.15 2.25 40.65 4.85 M41.25 30.9 L41.25 12.45 Q41.25 8.35 39.25 6.3 37.15 4.3 33.05 4.3 L14.7 4.3 Q10.6 4.3 8.5 6.3 6.5 8.35 6.5 12.45 L6.5 30.85 Q6.5 39.05 14.7 39.05 L33.05 39.05 Q41.2 39.05 41.25 30.9" fill="#3773fd" fill-rule="evenodd" stroke="none"/>
    <path d="M40.65 4.85 Q38.15 2.25 33.05 2.3 L14.7 2.3 Q9.6 2.25 7.1 4.85 4.5 7.35 4.5 12.45 L4.5 30.85 Q4.5 41.05 14.7 41.05 L33.05 41.05 Q43.2 41.05 43.25 30.9 L43.25 12.45 Q43.25 7.35 40.65 4.85 M44.4 27.4 L44.35 27.4 44.35 28.45 44.4 30.9 Q44.4 42.2 33.05 42.2 L14.7 42.2 Q3.3 42.2 3.35 30.85 L3.2 10.8 Q3.1 9.3 3.5 9.85 4.7 1.1 14.7 1.1 L33.05 1.1 Q44.4 1.1 44.4 12.45 L44.4 27.4" fill="#1041c2" fill-rule="evenodd" stroke="none"/>
    <path d="M44.4 30.9 L44.35 28.45 44.35 27.4 44.4 27.4 44.4 30.9" fill="#85a9fe" fill-rule="evenodd" stroke="none"/>
    <path d="M44.4 30.9 L44.4 27.4 44.4 12.45 Q44.4 1.1 33.05 1.1 L14.7 1.1 Q4.7 1.1 3.5 9.85 3.1 9.3 3.2 10.8 L3.35 30.85 Q3.3 42.2 14.7 42.2 L33.05 42.2 Q44.4 42.2 44.4 30.9 M45.5 12.45 L45.5 30.85 Q45.5 43.3 33.05 43.3 L14.7 43.3 Q2.25 43.3 2.25 30.85 L2.25 12.45 Q2.25 0.0 14.7 0.05 L33.05 0.05 Q45.5 0.0 45.5 12.45" fill="#000000" fill-rule="evenodd" stroke="none"/>
    <path d="M41.25 30.9 Q41.2 39.05 33.05 39.05 L14.7 39.05 Q6.5 39.05 6.5 30.85 L6.5 12.45 Q6.5 8.35 8.5 6.3 10.6 4.3 14.7 4.3 L33.05 4.3 Q37.15 4.3 39.25 6.3 41.25 8.35 41.25 12.45 L41.25 30.9" fill="#1f64fc" fill-rule="evenodd" stroke="none"/>
  </g>
</svg>
