<?xml version="1.0" encoding="UTF-8" standalone="no"?>
<svg xmlns:ffdec="https://www.free-decompiler.com/flash" xmlns:xlink="http://www.w3.org/1999/xlink" ffdec:objectType="shape" height="128.35px" width="122.7px" xmlns="http://www.w3.org/2000/svg">
  <g transform="matrix(1.0, 0.0, 0.0, 1.0, 55.55, 13.8)">
    <path d="M-0.8 -0.05 L-0.95 -0.15 -0.75 -0.15 -0.8 -0.05 M-8.55 5.85 L-8.7 5.75 -8.5 5.75 -8.55 5.85 M0.85 2.05 L1.1 2.05 1.0 2.15 0.85 2.05" fill="#442f20" fill-rule="evenodd" stroke="none"/>
    <path d="M-0.8 -0.05 L-0.75 -0.15 -0.95 -0.15 -0.8 -0.05 M-8.55 5.85 L-8.5 5.75 -8.7 5.75 -8.55 5.85 M-1.15 11.65 L-3.7 14.3 Q-6.8 16.55 -10.55 18.15 -15.7 20.3 -22.05 21.1 -28.0 21.8 -34.95 21.3 L-22.05 11.65 -16.95 7.65 -15.6 6.6 Q-5.85 -1.25 -15.9 4.4 L-21.85 7.65 -22.05 7.75 Q-26.15 9.95 -26.4 9.85 -26.9 9.6 -27.35 9.55 L-28.2 9.75 Q-35.8 13.9 -44.3 14.35 -5.45 -13.8 16.55 -8.3 38.5 -2.8 35.45 3.3 32.4 9.4 32.95 9.6 33.6 10.0 26.2 17.65 18.8 25.25 -6.0 25.05 -0.1 19.75 0.15 15.85 0.4 11.95 0.7 10.65 0.95 9.3 -1.15 11.65 M41.7 8.55 Q46.6 14.2 49.45 29.35 52.25 44.45 60.3 54.2 L54.3 51.05 53.35 50.85 52.5 51.3 Q52.15 51.65 52.1 52.15 52.05 52.65 52.3 53.1 55.55 59.0 55.8 70.05 55.85 80.8 42.3 90.0 34.15 95.55 30.45 99.55 L31.15 97.4 Q33.25 92.65 37.9 89.9 L37.95 89.9 Q54.35 79.7 51.2 68.05 48.0 56.35 42.6 46.95 37.25 37.55 36.05 26.65 34.8 15.7 34.85 18.9 34.9 22.05 34.75 16.9 34.6 11.65 35.7 7.3 36.8 2.9 41.7 8.55 M0.85 2.05 L1.0 2.15 1.1 2.05 0.85 2.05" fill="#3a281b" fill-rule="evenodd" stroke="none"/>
    <path d="M-1.15 11.65 Q0.95 9.3 0.7 10.65 0.4 11.95 0.15 15.85 -0.1 19.75 -6.0 25.05 18.8 25.25 26.2 17.65 33.6 10.0 32.95 9.6 32.4 9.4 35.45 3.3 38.5 -2.8 16.55 -8.3 -5.45 -13.8 -44.3 14.35 -35.8 13.9 -28.2 9.75 L-27.35 9.55 Q-26.9 9.6 -26.4 9.85 -26.15 9.95 -22.05 7.75 L-21.85 7.65 -15.9 4.4 Q-5.85 -1.25 -15.6 6.6 L-16.95 7.65 -22.05 11.65 -34.95 21.3 Q-28.0 21.8 -22.05 21.1 -15.7 20.3 -10.55 18.15 -6.8 16.55 -3.7 14.3 L-1.15 11.65 M-10.55 21.35 Q-15.75 23.35 -22.05 24.1 -29.75 24.95 -39.05 23.95 -39.5 23.85 -39.85 23.55 L-40.3 22.8 -40.3 22.0 -39.75 21.3 Q-34.6 17.5 -31.8 14.65 -39.3 17.75 -44.2 17.9 L-53.35 17.5 Q-57.6 17.0 -53.6 16.1 -49.55 15.15 -21.95 -3.65 -5.45 -14.9 7.45 -13.3 31.65 -17.2 46.75 9.05 51.1 14.9 53.0 28.25 55.5 46.0 66.3 56.35 66.75 56.75 66.75 57.4 L66.75 57.7 67.05 58.25 Q67.25 58.8 66.95 59.35 L66.1 60.1 64.95 59.95 56.65 55.6 Q58.55 61.35 58.75 70.0 59.1 82.15 44.5 92.6 29.85 103.0 29.75 108.5 L29.35 111.85 Q29.1 117.0 28.05 112.3 27.0 107.55 26.7 104.25 26.35 100.95 28.65 95.8 30.9 90.65 36.45 87.4 L36.4 87.4 Q50.9 78.3 45.95 60.7 45.15 57.7 43.45 55.25 32.75 40.1 31.65 16.35 21.0 28.8 -10.2 28.0 L-10.55 27.95 -11.05 27.7 -11.55 26.95 -11.55 26.0 -11.0 25.3 -10.55 24.95 Q-5.75 21.4 -4.6 18.45 -7.35 20.1 -10.55 21.35 M41.7 8.55 Q36.8 2.9 35.7 7.3 34.6 11.65 34.75 16.9 34.9 22.05 34.85 18.9 34.8 15.7 36.05 26.65 37.25 37.55 42.6 46.95 48.0 56.35 51.2 68.05 54.35 79.7 37.95 89.9 L37.9 89.9 Q33.25 92.65 31.15 97.4 L30.45 99.55 Q34.15 95.55 42.3 90.0 55.85 80.8 55.8 70.05 55.55 59.0 52.3 53.1 52.05 52.65 52.1 52.15 52.15 51.65 52.5 51.3 L53.35 50.85 54.3 51.05 60.3 54.2 Q52.25 44.45 49.45 29.35 46.6 14.2 41.7 8.55" fill="#312217" fill-rule="evenodd" stroke="none"/>
    <path d="M4.2 -6.1 Q12.85 -6.15 15.5 -5.8 L25.25 -3.75 Q32.4 -2.05 32.2 2.55 32.1 4.3 31.35 6.15 30.1 9.15 27.05 12.4 21.85 18.0 9.85 21.1 -2.2 24.2 0.2 21.95 2.55 19.65 2.85 18.8 L4.25 15.2 Q5.35 12.45 3.9 6.6 3.9 7.3 -5.9 12.4 -15.1 17.15 -25.3 18.35 L-27.5 18.55 -25.3 16.75 -12.6 6.15 -7.35 1.45 Q-4.05 -1.65 -18.2 0.1 -4.5 -6.1 4.2 -6.1 M46.7 44.15 L52.95 62.15 Q38.6 37.9 37.95 22.65 L38.7 10.05 45.6 31.8 Q48.6 41.6 53.45 45.95 58.3 50.3 46.7 44.15" fill="#442f20" fill-rule="evenodd" stroke="none"/>
  </g>
</svg>
