<?xml version="1.0" encoding="UTF-8" standalone="no"?>
<svg xmlns:ffdec="https://www.free-decompiler.com/flash" xmlns:xlink="http://www.w3.org/1999/xlink" ffdec:objectType="shape" height="83.05px" width="83.05px" xmlns="http://www.w3.org/2000/svg">
  <g transform="matrix(1.0, 0.0, 0.0, 1.0, 35.0, 65.0)">
    <path d="M-22.55 -51.75 L-22.15 -52.15 -22.05 -52.0 -22.55 -51.75" fill="#edcda3" fill-rule="evenodd" stroke="none"/>
    <path d="M-12.05 12.65 Q-17.5 9.8 -22.15 5.15 -33.35 -6.0 -33.95 -21.55 -26.3 -21.2 -18.6 -23.0 -18.35 -20.1 -23.35 -17.0 2.95 -13.55 26.15 -25.0 25.85 -16.45 28.6 -7.7 L28.0 -6.45 Q25.45 -1.25 20.95 3.15 10.5 13.4 -4.3 13.4 L-12.05 12.65" fill="#ce9255" fill-rule="evenodd" stroke="none"/>
    <path d="M-22.15 -52.15 Q-10.25 -64.0 6.55 -64.0 23.3 -64.0 35.15 -52.15 47.05 -40.25 47.05 -23.45 47.05 -9.45 38.7 1.2 L35.15 5.15 34.5 5.85 Q22.8 17.05 6.55 17.05 -0.1 17.05 -5.9 15.2 L1.9 15.95 Q17.65 15.95 28.75 4.8 L32.05 1.15 Q34.15 -1.55 35.7 -4.45 32.85 -10.1 30.95 -15.7 28.4 -23.0 27.45 -30.2 5.75 -18.0 -17.8 -19.1 -14.65 -24.9 -17.95 -26.4 L-33.95 -25.4 Q-33.4 -38.35 -25.6 -48.25 L-22.55 -51.75 -22.05 -52.0 -22.15 -52.15" fill="#a76d4b" fill-rule="evenodd" stroke="none"/>
    <path d="M-5.9 15.2 Q-9.1 14.2 -12.05 12.65 L-4.3 13.4 Q10.5 13.4 20.95 3.15 25.45 -1.25 28.0 -6.45 L28.6 -7.7 Q25.85 -16.45 26.15 -25.0 2.95 -13.55 -23.35 -17.0 -18.35 -20.1 -18.6 -23.0 -26.3 -21.2 -33.95 -21.55 L-34.0 -23.45 -33.95 -25.4 -17.95 -26.4 Q-14.65 -24.9 -17.8 -19.1 5.75 -18.0 27.45 -30.2 28.4 -23.0 30.95 -15.7 32.85 -10.1 35.7 -4.45 34.15 -1.55 32.05 1.15 L28.75 4.8 Q17.65 15.95 1.9 15.95 L-5.9 15.2" fill="#c18753" fill-rule="evenodd" stroke="none"/>
    <path d="M-22.15 -52.15 Q-10.25 -64.0 6.55 -64.0 23.3 -64.0 35.15 -52.15 47.05 -40.25 47.05 -23.45 47.05 -9.45 38.7 1.2 L35.15 5.15 34.5 5.85 Q22.8 17.05 6.55 17.05 -0.1 17.05 -5.9 15.2 -9.1 14.2 -12.05 12.65 -17.5 9.8 -22.15 5.15 -33.35 -6.0 -33.95 -21.55 L-34.0 -23.45 -33.95 -25.4 Q-33.4 -38.35 -25.6 -48.25 L-22.55 -51.75 -22.15 -52.15" fill="none" stroke="#5c4730" stroke-linecap="round" stroke-linejoin="round" stroke-width="2.0"/>
    <path d="M-22.05 -52.0 L-22.55 -51.75" fill="none" stroke="#5c4730" stroke-linecap="round" stroke-linejoin="round" stroke-width="2.0"/>
    <path d="M10.3 -5.4 Q9.9 -5.0 9.3 -5.0 8.7 -5.0 8.3 -5.4 7.9 -5.8 7.9 -6.4 7.9 -7.0 8.3 -7.4 8.7 -7.8 9.3 -7.8 9.9 -7.8 10.3 -7.4 10.7 -7.0 10.7 -6.4 10.7 -5.8 10.3 -5.4" fill="#a76d4b" fill-rule="evenodd" stroke="none"/>
  </g>
</svg>
