<?xml version="1.0" encoding="UTF-8" standalone="no"?>
<svg xmlns:ffdec="https://www.free-decompiler.com/flash" xmlns:xlink="http://www.w3.org/1999/xlink" ffdec:objectType="shape" height="46.9px" width="37.7px" xmlns="http://www.w3.org/2000/svg">
  <g transform="matrix(1.0, 0.0, 0.0, 1.0, 17.1, 25.8)">
    <path d="M10.7 -0.2 L10.6 -1.7 10.45 -3.1 13.65 -1.05 16.05 0.75 17.75 2.55 Q18.35 3.3 18.4 4.15 18.55 6.05 18.3 7.95 17.85 11.6 16.35 15.05 L15.8 16.0 14.9 17.35 13.9 18.3 12.75 18.75 11.5 19.05 5.2 10.35 7.3 8.4 9.0 6.15 Q9.75 4.8 10.1 3.3 L10.7 -0.2" fill="#4d7580" fill-rule="evenodd" stroke="none"/>
    <path d="M-8.85 5.65 L-9.3 9.5 -9.7 9.8 -15.1 15.65 -14.75 13.95 -14.2 12.25 -12.7 8.9 -10.75 5.6 -8.25 2.2 -8.85 5.65" fill="#456972" fill-rule="evenodd" stroke="none"/>
    <path d="M-7.3 13.0 L-7.15 14.3 -9.05 17.8 -9.1 12.7 -15.55 19.15 -16.05 19.45 -16.65 19.4 -17.1 19.05 -17.05 16.0 Q-16.95 14.2 -16.35 12.3 L-15.5 9.9 -14.3 7.45 -12.9 5.05 -11.2 2.7 Q-9.6 0.45 -7.6 -1.1 -6.3 -2.05 -5.3 -3.45 -4.5 -4.6 -3.2 -5.35 L-1.0 -6.35 Q1.3 -7.3 3.85 -7.35 5.8 -7.45 7.6 -6.7 L9.25 -5.95 11.9 -4.55 14.2 -3.2 16.9 -1.2 Q18.3 0.0 19.4 1.45 20.2 2.55 20.45 3.85 20.7 5.05 20.5 6.3 L19.9 10.1 19.1 13.3 17.65 17.0 Q16.75 18.65 15.45 19.75 13.4 21.45 10.85 21.0 L10.5 20.85 5.6 14.25 3.8 11.75 -4.85 20.15 -6.05 19.0 -1.8 14.45 1.85 10.85 4.6 8.3 Q8.25 5.8 8.55 1.4 L8.55 -1.1 8.15 -3.15 7.6 -4.2 7.2 -4.5 6.1 -5.1 5.7 -5.25 1.25 -5.05 -0.35 -4.55 -2.1 -3.7 -2.55 -3.45 -2.85 -3.1 -3.75 -2.2 -5.15 -0.05 Q-6.95 3.55 -7.2 7.55 L-7.3 9.4 -7.3 13.0 M10.7 -0.2 L10.1 3.3 Q9.75 4.8 9.0 6.15 L7.3 8.4 5.2 10.35 11.5 19.05 12.75 18.75 13.9 18.3 14.9 17.35 15.8 16.0 16.35 15.05 Q17.85 11.6 18.3 7.95 18.55 6.05 18.4 4.15 18.35 3.3 17.75 2.55 L16.05 0.75 13.65 -1.05 10.45 -3.1 10.6 -1.7 10.7 -0.2 M-8.85 5.65 L-8.25 2.2 -10.75 5.6 -12.7 8.9 -14.2 12.25 -14.75 13.95 -15.1 15.65 -9.7 9.8 -9.3 9.5 -8.85 5.65" fill="#25383d" fill-rule="evenodd" stroke="none"/>
    <path d="M5.6 14.25 L2.9 16.7 Q2.05 17.35 -4.85 20.15 L3.8 11.75 5.6 14.25" fill="#418e1c" fill-rule="evenodd" stroke="none"/>
    <path d="M5.7 -5.25 L6.0 -5.0 Q-3.7 0.75 -7.3 13.0 L-7.3 9.4 -7.2 7.55 Q-6.95 3.55 -5.15 -0.05 L-3.75 -2.2 -2.85 -3.1 -2.55 -3.45 -2.1 -3.7 -0.35 -4.55 1.25 -5.05 5.7 -5.25" fill="#273d43" fill-rule="evenodd" stroke="none"/>
    <path d="M-1.95 5.15 L-2.6 4.75 -3.4 4.35 -2.9 3.35 Q-4.0 -6.65 -9.0 -15.6 L-12.45 -21.65 -12.55 -22.2 -12.35 -22.8 -11.9 -23.1 -3.45 -25.5 Q0.45 -26.55 3.0 -23.65 L4.5 -21.6 4.55 -20.9 4.15 -19.3 4.15 -19.25 4.2 -16.65 Q4.5 -7.35 8.0 1.05 L8.65 1.65 8.35 1.95 8.3 2.5 7.75 3.05 Q7.45 3.15 7.4 3.5 L7.4 3.75 Q7.45 4.15 7.05 2.8 L7.05 2.75 7.0 2.7 7.0 2.65 7.0 2.8 6.95 3.0 7.0 3.0 7.1 3.0 7.2 3.4 7.1 3.45 7.4 4.8 7.05 3.5 6.8 3.7 6.7 3.75 6.3 3.35 6.25 3.3 5.95 3.45 Q4.4 -1.6 2.45 -13.05 L2.2 -16.55 2.2 -19.35 2.25 -19.7 2.55 -20.95 1.55 -22.35 Q-0.25 -24.3 -2.95 -23.6 L-10.1 -21.55 -5.2 -12.65 -5.05 -12.35 -4.9 -12.05 -4.7 -11.65 Q-2.2 -2.9 -2.05 2.6 L-1.95 5.15 M-2.85 3.85 L-2.85 3.9 -2.85 3.85" fill="#5c4730" fill-rule="evenodd" stroke="none"/>
    <path d="M7.2 3.4 L7.1 3.0 7.2 3.4 M6.05 4.1 L6.15 4.05 6.2 4.3 6.1 4.05 6.05 4.1" fill="#f1ba87" fill-rule="evenodd" stroke="none"/>
    <path d="M7.1 3.0 L7.0 3.0 6.95 3.0 7.0 2.8 7.0 2.75 7.0 2.7 7.05 2.75 7.05 2.8 7.1 3.0 M-1.15 5.7 L-1.3 5.8 -1.3 5.5 -1.15 5.7" fill="#ffcc99" fill-rule="evenodd" stroke="none"/>
    <path d="M-1.95 5.15 L-2.05 2.6 Q-2.2 -2.9 -4.7 -11.65 -0.85 -11.7 1.25 -12.65 L2.45 -13.05 Q4.4 -1.6 5.95 3.45 L6.25 3.3 6.3 3.35 6.7 3.75 6.15 4.05 6.05 4.1 Q1.1 6.35 -0.8 5.5 L-1.0 5.0 -1.05 5.35 -0.9 5.5 -0.95 5.45 -1.1 5.4 -1.1 5.55 -1.15 5.7 -1.3 5.5 -1.45 5.4 -1.95 5.15" fill="#c18753" fill-rule="evenodd" stroke="none"/>
    <path d="M-4.7 -11.65 L-4.9 -12.05 -5.05 -12.35 -5.2 -12.65 -10.1 -21.55 -2.95 -23.6 Q-0.25 -24.3 1.55 -22.35 L2.55 -20.95 2.25 -19.7 2.2 -19.35 2.2 -16.55 2.45 -13.05 1.25 -12.65 Q-0.85 -11.7 -4.7 -11.65" fill="#a76d4b" fill-rule="evenodd" stroke="none"/>
  </g>
</svg>
