<?xml version="1.0" encoding="UTF-8" standalone="no"?>
<svg xmlns:ffdec="https://www.free-decompiler.com/flash" xmlns:xlink="http://www.w3.org/1999/xlink" ffdec:objectType="shape" height="30.85px" width="41.2px" xmlns="http://www.w3.org/2000/svg">
  <g transform="matrix(1.0, 0.0, 0.0, 1.0, 17.45, 25.55)">
    <path d="M-14.3 -4.5 Q-16.35 -9.15 -17.45 -11.0 L-17.05 -11.35 -16.3 -11.4 Q-8.3 -8.6 0.25 -9.9 14.2 -12.3 20.7 -24.9 L21.3 -25.4 21.65 -25.45 21.7 -25.45 21.85 -25.55 23.3 -18.8 Q24.15 -13.6 23.35 -6.1 L23.1 -5.5 22.9 -5.1 Q13.85 7.2 -1.5 4.95 -9.55 3.65 -14.3 -4.45 L-14.3 -4.5 M-9.85 -7.75 L-8.0 -5.9 -7.8 -5.9 Q-5.85 -5.05 -0.95 -5.05 3.6 -5.05 9.2 -6.7 12.6 -7.75 15.35 -9.55 L19.45 -13.15 Q20.75 -14.0 21.7 -15.4 L21.3 -20.9 21.2 -21.7 Q14.2 -10.3 0.6 -7.95 L0.55 -7.95 Q-4.75 -7.1 -9.85 -7.8 L-11.2 -8.0 -15.0 -8.85 Q-13.65 -7.3 -12.6 -5.5 L-12.55 -5.5 Q-8.35 1.75 -1.2 3.0 L-1.2 2.95 Q7.55 4.25 14.1 0.4 L15.1 -0.2 14.85 -0.05 14.8 -0.35 14.8 -1.6 Q14.65 -8.9 21.15 -8.9 L21.6 -8.85 21.75 -13.7 Q20.3 -11.6 16.8 -9.15 9.35 -3.9 -1.3 -3.9 -5.3 -3.9 -7.4 -4.75 L-7.9 -4.6 Q-8.4 -4.6 -13.0 -8.35 L-11.2 -7.95 -9.85 -7.75 M16.4 -4.05 Q16.0 -3.2 15.75 -0.65 18.8 -2.9 21.3 -6.3 L21.35 -6.35 21.45 -7.25 21.5 -7.75 Q18.2 -7.9 17.2 -6.6 L16.4 -4.05" fill="#682424" fill-rule="evenodd" stroke="none"/>
    <path d="M-9.85 -7.75 L-11.2 -7.95 -13.0 -8.35 Q-8.4 -4.6 -7.9 -4.6 L-7.4 -4.75 Q-5.3 -3.9 -1.3 -3.9 9.35 -3.9 16.8 -9.15 20.3 -11.6 21.75 -13.7 L21.6 -8.85 21.15 -8.9 Q14.65 -8.9 14.8 -1.6 L14.8 -0.35 14.85 -0.05 15.1 -0.2 14.1 0.4 Q7.55 4.25 -1.2 2.95 L-1.2 3.0 Q-8.35 1.75 -12.55 -5.5 L-12.6 -5.5 Q-13.65 -7.3 -15.0 -8.85 L-11.2 -8.0 -9.85 -7.8 -9.85 -7.75" fill="#57352d" fill-rule="evenodd" stroke="none"/>
    <path d="M-14.3 -4.5 L-14.3 -4.45 -14.3 -4.5" fill="#463624" fill-rule="evenodd" stroke="none"/>
    <path d="M-9.85 -7.8 Q-4.75 -7.1 0.55 -7.95 L0.6 -7.95 Q14.2 -10.3 21.2 -21.7 L21.3 -20.9 21.7 -15.4 Q20.75 -14.0 19.45 -13.15 L15.35 -9.55 Q12.6 -7.75 9.2 -6.7 3.6 -5.05 -0.95 -5.05 -5.85 -5.05 -7.8 -5.9 L-8.0 -5.9 -9.85 -7.75 -9.85 -7.8" fill="#e5e5e5" fill-rule="evenodd" stroke="none"/>
    <path d="M16.4 -4.05 L17.2 -6.6 Q18.2 -7.9 21.5 -7.75 L21.45 -7.25 21.35 -6.35 21.3 -6.3 Q18.8 -2.9 15.75 -0.65 16.0 -3.2 16.4 -4.05" fill="#b45f50" fill-rule="evenodd" stroke="none"/>
  </g>
</svg>
