<?xml version="1.0" encoding="UTF-8" standalone="no"?>
<svg xmlns:ffdec="https://www.free-decompiler.com/flash" xmlns:xlink="http://www.w3.org/1999/xlink" ffdec:objectType="shape" height="30.85px" width="41.2px" xmlns="http://www.w3.org/2000/svg">
  <g transform="matrix(1.0, 0.0, 0.0, 1.0, 24.55, 17.1)">
    <path d="M-21.4 3.95 L-21.4 4.0 -21.4 3.95 M8.95 1.3 L9.05 1.25 9.0 1.3 8.95 1.3 M7.05 8.9 L7.0 8.85 7.45 8.6 7.05 8.9 M-19.6 3.05 L-19.7 2.95 -19.65 2.95 -19.6 3.05" fill="#463624" fill-rule="evenodd" stroke="none"/>
    <path d="M-19.7 2.95 L-20.4 1.85 -20.95 1.0 -22.1 -0.4 -18.3 0.45 -17.9 0.55 -17.6 0.5 -16.85 0.65 Q-11.8 1.35 -6.55 0.5 L-6.5 0.5 Q7.1 -1.85 14.1 -13.25 L14.2 -12.45 14.6 -7.05 14.55 -7.0 14.45 -6.85 14.55 -6.85 14.65 -6.15 14.7 -4.0 14.7 -3.95 14.65 -3.9 Q14.1 -2.25 13.35 -1.15 13.15 -0.9 10.2 0.1 L10.05 0.15 9.95 0.2 9.0 0.55 8.5 0.75 8.45 0.75 8.25 0.75 8.0 0.95 Q6.6 1.6 6.6 2.0 L6.7 2.2 7.2 2.2 7.3 2.2 7.35 2.2 8.4 1.65 8.95 1.3 9.0 1.3 9.05 1.3 9.05 1.25 Q10.8 0.45 13.05 0.45 13.6 0.45 14.55 1.25 L14.5 2.05 14.25 2.05 14.25 2.1 14.2 2.15 12.15 4.6 11.55 5.2 Q11.35 1.95 8.75 1.95 L6.3 2.65 6.05 2.6 5.95 2.3 Q5.95 1.6 10.0 -1.45 L10.95 -3.05 Q9.55 -2.0 7.75 -1.2 3.0 0.85 1.2 1.3 -5.15 2.8 -8.9 2.8 L-17.4 2.05 -20.15 1.25 Q-16.6 5.55 -11.3 5.55 L-7.0 5.3 -4.45 5.4 Q-4.35 5.45 -4.4 5.65 -5.55 6.4 -9.2 7.95 -10.6 8.85 -11.1 10.65 L-11.7 10.45 -13.85 9.3 -13.85 9.25 -13.8 9.15 -13.8 9.1 -13.8 9.05 -13.3 7.55 Q-10.05 6.35 -8.35 6.0 L-8.3 6.0 -8.25 5.75 -8.35 5.5 -9.25 5.5 -9.4 5.55 -11.5 6.0 -11.9 6.1 -14.65 6.8 -18.7 4.1 -18.9 4.15 -18.9 4.2 -19.6 3.05 -19.65 2.95 -19.7 2.95" fill="#e5e5e5" fill-rule="evenodd" stroke="none"/>
    <path d="M-13.8 9.15 L-13.8 9.05 -13.8 9.1 -13.8 9.15 M-16.7 6.7 L-14.9 8.15 -14.85 8.6 -14.0 9.2 -15.45 8.1 -17.15 6.5 -17.3 6.3 Q-17.05 6.45 -16.7 6.7" fill="#57352d" fill-rule="evenodd" stroke="none"/>
    <path d="M14.6 -7.05 L14.6 -6.95 14.55 -6.85 14.45 -6.85 14.55 -7.0 14.6 -7.05 M8.45 0.75 L8.0 0.95 8.25 0.75 8.45 0.75 M11.55 5.2 L7.75 8.4 7.45 8.6 7.0 8.85 Q0.45 12.7 -8.3 11.4 L-8.3 11.45 -11.7 10.45 -11.1 10.65 Q-10.6 8.85 -9.2 7.95 -5.55 6.4 -4.4 5.65 -4.35 5.45 -4.45 5.4 L-7.0 5.3 -11.3 5.55 Q-16.6 5.55 -20.15 1.25 L-17.4 2.05 -8.9 2.8 Q-5.15 2.8 1.2 1.3 3.0 0.85 7.75 -1.2 9.55 -2.0 10.95 -3.05 L10.0 -1.45 Q5.95 1.6 5.95 2.3 L6.05 2.6 6.3 2.65 8.75 1.95 Q11.35 1.95 11.55 5.2 M9.0 1.3 L9.05 1.25 9.05 1.3 9.0 1.3" fill="#f9f9f9" fill-rule="evenodd" stroke="none"/>
    <path d="M-21.4 3.95 Q-23.45 -0.7 -24.55 -2.55 L-24.15 -2.9 -23.4 -2.95 Q-15.4 -0.15 -6.85 -1.45 7.1 -3.85 13.6 -16.45 13.8 -16.8 14.2 -16.95 L14.55 -17.0 14.6 -17.0 14.75 -17.1 16.2 -10.35 Q17.05 -5.15 16.25 2.35 L16.0 2.95 15.8 3.35 Q6.75 15.65 -8.6 13.4 -16.65 12.1 -21.4 4.0 L-21.4 3.95 M14.6 -7.05 L14.2 -12.45 14.1 -13.25 Q7.1 -1.85 -6.5 0.5 L-6.55 0.5 Q-11.8 1.35 -16.85 0.65 L-17.6 0.5 -17.9 0.55 -18.3 0.45 -22.1 -0.4 -20.95 1.0 -20.4 1.85 -19.7 2.95 -19.6 3.05 -18.9 4.2 -18.9 4.15 -18.7 4.1 -14.65 6.8 -11.9 6.1 -11.5 6.0 -9.4 5.55 -9.25 5.5 -8.35 5.5 -8.25 5.75 -8.3 6.0 -8.35 6.0 Q-10.05 6.35 -13.3 7.55 L-13.8 9.05 -13.8 9.15 -13.85 9.25 -13.85 9.3 -11.7 10.45 -8.3 11.45 -8.3 11.4 Q0.45 12.7 7.0 8.85 L7.05 8.9 6.75 9.15 7.45 8.6 7.75 8.4 11.55 5.2 12.15 4.6 14.2 2.15 14.25 2.1 14.25 2.05 14.5 2.05 14.55 1.25 Q13.6 0.45 13.05 0.45 10.8 0.45 9.05 1.25 L8.95 1.3 8.4 1.65 7.35 2.2 7.3 2.2 7.2 2.2 6.7 2.2 6.6 2.0 Q6.6 1.6 8.0 0.95 L8.45 0.75 8.5 0.75 9.0 0.55 9.95 0.2 10.05 0.15 10.2 0.1 Q13.15 -0.9 13.35 -1.15 14.1 -2.25 14.65 -3.9 L14.65 -3.15 14.7 -3.95 14.7 -4.0 14.65 -6.15 14.55 -6.85 14.6 -6.95 14.6 -7.05 M-16.7 6.7 Q-17.05 6.45 -17.3 6.3 L-17.15 6.5 -15.45 8.1 -14.0 9.2 -14.85 8.6 -14.9 8.15 -16.7 6.7" fill="#682424" fill-rule="evenodd" stroke="none"/>
  </g>
</svg>
