<?xml version="1.0" encoding="UTF-8" standalone="no"?>
<svg xmlns:ffdec="https://www.free-decompiler.com/flash" xmlns:xlink="http://www.w3.org/1999/xlink" ffdec:objectType="shape" height="20.1px" width="32.35px" xmlns="http://www.w3.org/2000/svg">
  <g transform="matrix(1.0, 0.0, 0.0, 1.0, 13.05, 17.3)">
    <path d="M18.9 -17.05 Q18.5 -17.0 18.2 -16.3 L18.35 -15.15 Q18.35 -13.35 16.85 -6.05 15.75 -0.3 0.6 2.8 -7.55 2.8 -7.55 -0.2 -7.55 -1.1 -9.35 -3.85 L-10.95 -6.3 -11.55 -6.65 -13.05 -9.25 Q-3.35 -5.95 6.4 -9.25 13.15 -11.7 18.0 -17.1 L18.8 -17.2 18.9 -17.05 M11.45 -1.9 Q16.85 -4.65 16.35 -7.9 15.85 -11.1 16.95 -13.6 14.2 -10.7 9.8 -8.6 5.4 -6.55 -0.55 -5.85 -6.6 -5.15 -10.9 -7.0 -8.3 -4.55 -7.15 -2.6 L-6.7 -1.5 -5.25 -1.7 -0.9 -1.45 Q-0.5 -1.45 -0.4 -1.15 L-0.85 -1.05 -6.2 0.25 -0.45 0.8 Q6.05 0.8 11.45 -1.9" fill="#682424" fill-rule="evenodd" stroke="none"/>
    <path d="M11.45 -1.9 Q6.05 0.8 -0.45 0.8 L-6.2 0.25 -0.85 -1.05 -0.4 -1.15 Q-0.5 -1.45 -0.9 -1.45 L-5.25 -1.7 -6.7 -1.5 -7.15 -2.6 Q-8.3 -4.55 -10.9 -7.0 -6.6 -5.15 -0.55 -5.85 5.4 -6.55 9.8 -8.6 14.2 -10.7 16.95 -13.6 15.85 -11.1 16.35 -7.9 16.85 -4.65 11.45 -1.9" fill="#e5e5e5" fill-rule="evenodd" stroke="none"/>
    <path d="M18.8 -17.2 Q19.7 -17.1 19.0 -17.1 L18.9 -17.05 18.8 -17.2" fill="#463624" fill-rule="evenodd" stroke="none"/>
  </g>
</svg>
