<?xml version="1.0" encoding="UTF-8" standalone="no"?>
<svg xmlns:ffdec="https://www.free-decompiler.com/flash" xmlns:xlink="http://www.w3.org/1999/xlink" ffdec:objectType="shape" height="16.6px" width="36.9px" xmlns="http://www.w3.org/2000/svg">
  <g transform="matrix(1.0, 0.0, 0.0, 1.0, 22.15, 11.6)">
    <path d="M9.7 -11.5 Q10.6 -11.4 9.9 -11.4 L9.8 -11.35 9.7 -11.5" fill="#463624" fill-rule="evenodd" stroke="none"/>
    <path d="M12.35 -2.65 L11.15 -0.4 Q9.4 2.75 8.05 2.75 6.6 2.75 6.3 3.1 5.95 1.8 6.65 -0.25 7.5 -2.9 8.75 -2.9 L12.3 -2.65 12.35 -2.65" fill="#b45f50" fill-rule="evenodd" stroke="none"/>
    <path d="M12.75 -4.05 L12.25 -4.25 9.25 -4.75 Q7.55 -4.8 6.4 -2.45 5.25 -0.15 5.05 1.3 4.8 2.75 4.9 2.9 L3.75 2.45 -2.5 1.15 -6.35 0.25 Q-1.35 -0.65 2.6 -3.3 6.75 -6.15 8.1 -8.1 12.75 -7.1 12.75 -4.15 L12.75 -4.05" fill="#57352d" fill-rule="evenodd" stroke="none"/>
    <path d="M12.3 -2.65 L8.75 -2.9 Q7.5 -2.9 6.65 -0.25 5.95 1.8 6.3 3.1 6.6 2.75 8.05 2.75 9.4 2.75 11.15 -0.4 L12.35 -2.65 12.5 -3.05 12.3 -2.65 M12.75 -4.15 Q12.75 -7.1 8.1 -8.1 6.75 -6.15 2.6 -3.3 -1.35 -0.65 -6.35 0.25 L-2.5 1.15 3.75 2.45 4.9 2.9 Q4.8 2.75 5.05 1.3 5.25 -0.15 6.4 -2.45 7.55 -4.8 9.25 -4.75 L12.25 -4.25 12.75 -4.05 12.75 -4.15 M9.8 -11.35 Q9.6 -11.35 9.45 -11.15 14.2 -11.1 14.75 -3.9 11.7 5.2 6.7 5.0 1.65 4.75 -4.3 3.5 -10.0 2.3 -13.5 0.65 -18.4 0.45 -20.65 -0.95 L-22.15 -3.55 Q-12.45 -0.25 -2.7 -3.55 4.05 -6.0 8.9 -11.4 L9.7 -11.5 9.8 -11.35" fill="#682424" fill-rule="evenodd" stroke="none"/>
  </g>
</svg>
