<?xml version="1.0" encoding="UTF-8" standalone="no"?>
<svg xmlns:ffdec="https://www.free-decompiler.com/flash" xmlns:xlink="http://www.w3.org/1999/xlink" ffdec:objectType="shape" height="9.0px" width="18.3px" xmlns="http://www.w3.org/2000/svg">
  <g transform="matrix(1.0, 0.0, 0.0, 1.0, 12.45, 7.7)">
    <path d="M1.1 -0.2 Q-3.3 1.3 -8.15 1.3 -13.2 1.3 -12.3 -2.05 -12.3 -5.25 -5.9 -6.3 L-5.1 -6.45 -4.8 -6.45 Q-4.25 -7.7 -0.5 -7.7 6.25 -7.7 5.85 -3.7 5.75 -2.35 5.1 -1.7 L4.9 -2.2 4.7 -2.0 4.5 -1.8 4.35 -1.7 Q3.35 -1.0 1.1 -0.2 M2.1 -4.85 Q-11.4 -7.15 -11.4 -2.05 -11.4 0.2 -9.9 0.2 -0.65 0.2 3.75 -2.85 3.4 -3.85 2.7 -4.25 2.1 -4.6 2.1 -4.85" fill="#682424" fill-rule="evenodd" stroke="none"/>
    <path d="M2.1 -4.85 Q2.1 -4.6 2.7 -4.25 3.4 -3.85 3.75 -2.85 -0.65 0.2 -9.9 0.2 -11.4 0.2 -11.4 -2.05 -11.4 -7.15 2.1 -4.85" fill="#b45f50" fill-rule="evenodd" stroke="none"/>
  </g>
</svg>
