<?xml version="1.0" encoding="UTF-8" standalone="no"?>
<svg xmlns:ffdec="https://www.free-decompiler.com/flash" xmlns:xlink="http://www.w3.org/1999/xlink" ffdec:objectType="shape" height="9.0px" width="17.25px" xmlns="http://www.w3.org/2000/svg">
  <g transform="matrix(1.0, 0.0, 0.0, 1.0, 11.9, 7.95)">
    <path d="M4.1 -3.7 Q4.1 -6.85 -5.4 -6.85 -9.35 -6.85 -10.55 -5.45 -9.15 -3.95 -8.55 -0.8 L-8.4 -0.55 3.35 -1.85 Q4.1 -1.95 4.1 -3.7 M4.85 -2.15 L4.2 -0.8 Q2.9 0.6 -0.15 0.3 L-5.15 0.05 -8.9 1.05 -11.9 -5.55 Q-11.9 -6.95 -5.15 -7.85 L-3.15 -7.95 Q1.55 -7.95 3.8 -6.25 5.35 -5.1 5.35 -3.7 L4.85 -2.15" fill="#682424" fill-rule="evenodd" stroke="none"/>
    <path d="M4.1 -3.7 Q4.1 -1.95 3.35 -1.85 L-8.4 -0.55 -8.55 -0.8 Q-9.15 -3.95 -10.55 -5.45 -9.35 -6.85 -5.4 -6.85 4.1 -6.85 4.1 -3.7" fill="#57352d" fill-rule="evenodd" stroke="none"/>
  </g>
</svg>
