<?xml version="1.0" encoding="UTF-8" standalone="no"?>
<svg xmlns:ffdec="https://www.free-decompiler.com/flash" xmlns:xlink="http://www.w3.org/1999/xlink" ffdec:objectType="shape" height="7.5px" width="18.35px" xmlns="http://www.w3.org/2000/svg">
  <g transform="matrix(1.0, 0.0, 0.0, 1.0, 9.15, 6.7)">
    <path d="M5.8 -1.95 L7.85 -0.95 8.1 -3.3 7.85 -5.8 -7.9 -4.7 Q-6.75 -2.2 -6.55 -1.1 -6.95 -0.95 -6.3 -0.95 -4.45 -2.8 0.35 -2.8 3.6 -2.8 5.8 -1.95 M8.9 -5.05 Q9.35 -4.2 9.1 -3.4 L8.85 0.4 8.35 0.55 Q4.9 -1.55 0.4 -1.55 -2.95 -1.55 -4.85 -0.5 -5.85 0.05 -6.65 0.8 L-8.0 -1.85 Q-9.15 -4.35 -9.15 -4.8 -9.15 -6.7 4.25 -6.7 6.7 -6.7 8.0 -5.95 L8.9 -5.05" fill="#682424" fill-rule="evenodd" stroke="none"/>
    <path d="M5.8 -1.95 Q3.6 -2.8 0.35 -2.8 -4.45 -2.8 -6.3 -0.95 -6.95 -0.95 -6.55 -1.1 -6.75 -2.2 -7.9 -4.7 L7.85 -5.8 8.1 -3.3 7.85 -0.95 5.8 -1.95" fill="#e5e5e5" fill-rule="evenodd" stroke="none"/>
  </g>
</svg>
