<?xml version="1.0" encoding="UTF-8" standalone="no"?>
<svg xmlns:ffdec="https://www.free-decompiler.com/flash" xmlns:xlink="http://www.w3.org/1999/xlink" ffdec:objectType="shape" height="169.0px" width="78.3px" xmlns="http://www.w3.org/2000/svg">
  <g transform="matrix(1.0, 0.0, 0.0, 1.0, 34.65, 137.0)">
    <path d="M1.35 -5.7 L1.25 -2.15 1.05 -0.15 0.95 0.45 Q-8.0 0.65 -17.0 -1.1 L-17.0 -1.25 -17.25 -3.25 -17.4 -6.95 Q-8.75 -4.9 1.35 -5.7" fill="#9e9689" fill-rule="evenodd" stroke="none"/>
    <path d="M-0.1 -10.05 L0.95 -9.85 1.15 -8.4 1.35 -5.75 1.35 -5.7 Q-8.75 -4.9 -17.4 -6.95 L-17.4 -7.15 -17.25 -9.5 -17.05 -11.15 -14.7 -10.95 -5.6 -10.4 -0.1 -10.05" fill="#888071" fill-rule="evenodd" stroke="none"/>
    <path d="M37.15 -15.65 L37.15 -15.55 37.15 -15.35 37.15 -7.4 Q37.25 -6.2 35.95 -5.2 L34.05 -4.1 32.95 -3.65 33.1 -5.75 33.75 -6.05 Q35.05 -6.7 35.15 -7.4 L35.15 -12.9 33.95 -12.3 33.1 -11.95 32.95 -13.7 35.0 -14.45 Q36.1 -14.9 37.15 -15.65 M-31.1 -4.75 Q-32.3 -5.55 -32.6 -6.4 L-32.7 -6.6 -32.65 -14.75 -32.7 -15.0 -32.65 -15.3 -32.6 -15.4 -31.7 -14.9 -28.5 -13.7 -28.6 -11.85 -29.15 -12.05 -30.7 -12.75 -30.7 -7.05 -28.9 -5.85 -28.55 -5.75 -28.45 -3.55 -29.2 -3.8 Q-30.35 -4.25 -31.1 -4.75 M9.25 -8.5 L3.15 -8.4 3.35 -5.85 3.35 -5.8 3.25 -2.15 9.55 -2.3 9.6 -2.3 13.7 -2.5 13.45 -0.5 9.65 -0.3 Q6.45 -0.15 3.05 -0.15 L2.8 1.6 2.65 2.4 1.85 2.4 Q-8.1 2.75 -18.05 0.75 L-18.7 0.6 -18.8 -0.05 -19.05 -1.5 -22.05 -2.0 -23.75 -2.35 -23.95 -4.4 -21.7 -3.95 -19.3 -3.55 -19.4 -7.2 -19.25 -9.8 -22.05 -10.25 -23.65 -10.55 -24.05 -10.65 -23.95 -12.65 -23.5 -12.55 -23.25 -12.5 -22.7 -12.4 Q-20.25 -11.55 -17.05 -11.15 L-17.25 -9.5 -17.4 -7.15 -17.4 -6.95 -17.25 -3.25 -17.0 -1.25 -17.0 -1.1 Q-8.0 0.65 0.95 0.45 L1.05 -0.15 1.25 -2.15 1.35 -5.7 1.35 -5.75 1.15 -8.4 0.95 -9.85 -0.1 -10.05 2.2 -9.95 9.95 -10.3 13.1 -10.7 13.55 -10.7 13.75 -8.75 9.25 -8.5 M27.6 -12.55 L29.25 -12.8 29.35 -10.85 27.9 -10.55 26.35 -10.25 18.35 -9.15 18.2 -11.1 26.0 -12.2 27.5 -12.5 27.6 -12.55 M18.15 -0.85 L18.35 -2.9 21.7 -3.3 22.75 -3.45 26.0 -3.95 29.3 -4.65 29.1 -2.55 26.35 -2.0 23.6 -1.55 22.55 -1.4 18.15 -0.85" fill="#303030" fill-rule="evenodd" stroke="none"/>
    <path d="M-17.0 -83.45 L-13.8 -117.75 -13.55 -120.7 Q-12.6 -127.0 -7.25 -131.35 L-5.55 -132.65 Q-3.3 -134.2 -1.75 -134.25 0.75 -134.5 1.55 -131.5 L1.65 -131.2 Q2.2 -128.7 1.5 -121.1 L1.35 -119.8 0.15 -110.15 -0.5 -106.05 -0.85 -103.75 -1.65 -79.25 -2.55 -52.6 -2.5 -50.0 Q-2.05 -38.45 3.0 -36.55 3.75 -36.3 4.65 -36.2 L4.9 -36.0 3.2 -36.3 0.2 -36.8 0.25 -36.45 0.25 -36.25 1.1 -29.6 Q24.05 -28.65 33.85 -31.55 L35.9 -32.25 Q38.95 -33.45 40.25 -35.2 L40.25 -39.65 Q38.1 -38.45 35.9 -37.6 L34.8 -37.35 32.8 -36.9 29.1 -36.4 26.65 -36.15 26.1 -36.2 Q29.5 -36.5 32.7 -37.5 L34.6 -38.15 Q37.6 -39.4 40.45 -41.25 42.15 -43.6 41.4 -46.9 L38.2 -54.4 Q23.75 -89.0 17.5 -117.4 11.65 -130.2 7.0 -132.55 0.75 -135.65 -3.95 -134.75 -5.3 -134.5 -6.45 -133.95 -8.9 -132.75 -10.8 -130.2 -13.2 -127.1 -14.8 -122.0 L-14.9 -121.15 -16.9 -108.75 -18.75 -98.4 -20.45 -89.7 -20.65 -88.75 -21.9 -83.9 -24.9 -74.05 Q-27.5 -65.8 -30.25 -54.4 L-32.1 -46.55 -32.15 -46.4 Q-33.3 -44.25 -31.5 -42.0 L-31.2 -41.65 -31.35 -40.85 -32.25 -36.15 Q-31.25 -34.95 -29.8 -34.2 -29.0 -33.75 -28.1 -33.45 -25.3 -32.55 -21.3 -32.8 -20.35 -36.2 -23.0 -37.75 -22.45 -37.65 -23.05 -37.85 L-20.4 -39.15 -17.0 -83.45 M-30.3 -32.1 Q-32.65 -33.25 -34.1 -35.3 L-34.35 -35.65 -33.35 -41.1 Q-35.6 -44.2 -34.0 -47.2 L-31.6 -54.4 Q-27.65 -67.0 -24.25 -81.75 L-21.35 -95.85 -20.65 -99.5 Q-19.35 -107.55 -19.15 -115.0 L-17.25 -123.45 Q-15.5 -127.9 -13.15 -130.85 -10.6 -134.2 -7.35 -135.75 -1.15 -138.85 7.9 -134.35 13.05 -131.95 19.35 -118.15 L19.4 -118.05 43.3 -47.55 43.35 -47.5 43.35 -47.45 Q44.3 -43.3 42.25 -40.3 L42.25 -34.45 42.05 -34.25 Q40.5 -32.1 36.2 -30.65 L34.0 -30.0 Q23.4 -27.25 0.2 -27.65 L-0.65 -27.65 -1.75 -36.3 -1.9 -36.65 Q-5.15 -44.55 -3.75 -50.0 L-3.75 -50.15 -3.5 -63.75 -3.25 -78.95 -3.05 -92.5 -2.85 -104.05 -2.55 -105.95 -2.2 -108.25 Q-1.2 -114.85 -0.7 -119.6 L-0.3 -123.7 Q0.1 -128.85 -0.3 -130.75 -0.65 -132.2 -1.65 -132.25 -3.25 -132.1 -6.0 -129.8 -10.8 -125.9 -11.6 -120.25 L-11.8 -117.65 -11.8 -117.55 -12.75 -107.1 -14.0 -93.6 -15.25 -80.5 -16.55 -66.3 -17.8 -52.9 -19.15 -38.4 -19.3 -37.05 -19.3 -30.95 -20.2 -30.9 Q-25.2 -30.4 -28.65 -31.45 L-30.3 -32.1 M35.95 -5.2 Q36.3 -2.8 36.3 -0.25 36.3 13.1 26.35 22.55 L22.0 26.1 Q13.5 32.0 2.45 32.0 -8.6 32.0 -17.1 26.1 -19.4 24.5 -21.5 22.55 -31.4 13.1 -31.4 -0.25 L-31.1 -4.75 Q-30.35 -4.25 -29.2 -3.8 L-29.4 -0.25 Q-29.4 12.25 -20.1 21.1 -16.95 24.1 -13.3 26.1 -6.25 30.0 2.45 30.0 11.15 30.0 18.2 26.1 21.8 24.1 24.95 21.1 34.3 12.25 34.3 -0.25 L34.05 -4.1 35.95 -5.2 M13.75 -8.75 L13.55 -10.7 13.55 -10.75 14.55 -10.85 14.55 -10.8 14.75 -8.8 Q14.95 -5.7 14.7 -2.55 L14.5 -0.55 14.3 0.8 Q15.75 1.4 17.0 0.6 L17.15 -0.75 17.3 -2.8 Q17.5 -5.9 17.35 -9.05 L17.2 -11.0 17.2 -11.1 18.2 -11.2 18.2 -11.1 18.35 -9.15 18.35 -2.9 18.15 -0.85 17.95 0.95 17.95 1.15 17.75 1.25 Q15.8 2.75 13.5 1.55 L13.15 1.4 13.2 1.05 13.45 -0.5 13.7 -2.5 Q13.95 -5.6 13.75 -8.75 M-23.95 -12.65 L-24.05 -10.65 Q-24.2 -7.6 -23.95 -4.4 L-23.75 -2.35 -23.55 -0.7 -23.5 -0.25 -23.9 -0.15 Q-26.0 0.45 -28.15 -1.5 L-28.25 -1.65 -28.3 -1.85 -28.45 -3.55 -28.55 -5.75 -28.6 -11.85 -28.5 -13.7 -27.5 -13.4 -27.6 -11.5 -27.55 -5.35 -27.4 -3.2 -27.3 -2.15 Q-25.95 -0.95 -24.6 -1.05 L-24.8 -2.55 -25.0 -4.65 -25.05 -10.85 -24.95 -12.8 -23.95 -12.65 M29.25 -12.8 L30.25 -13.0 30.4 -11.1 30.3 -4.9 30.1 -2.8 29.8 -0.3 Q30.9 -0.3 31.7 -1.55 L31.9 -3.3 32.1 -5.4 32.1 -11.6 31.95 -13.4 32.95 -13.7 33.1 -11.95 33.1 -5.75 32.95 -3.65 32.7 -1.3 32.7 -1.2 32.65 -1.15 Q31.2 1.15 29.1 0.6 L28.65 0.5 28.7 0.05 29.1 -2.55 29.3 -4.65 Q29.5 -7.75 29.35 -10.85 L29.25 -12.8" fill="#16424b" fill-rule="evenodd" stroke="none"/>
    <path d="M7.75 -124.15 L7.4 -124.15 7.1 -123.9 7.1 -123.5 Q29.65 -65.4 27.1 -37.05 L27.25 -36.65 Q27.35 -36.5 27.55 -36.5 L27.95 -36.6 28.1 -36.95 Q30.75 -65.5 8.05 -123.85 L7.75 -124.15 M-1.65 -79.25 L-0.85 -103.75 -0.5 -106.05 0.15 -110.15 1.35 -119.8 1.5 -121.1 Q2.2 -128.7 1.65 -131.2 L1.55 -131.5 Q0.75 -134.5 -1.75 -134.25 -3.3 -134.2 -5.55 -132.65 L-7.25 -131.35 Q-12.6 -127.0 -13.55 -120.7 L-13.8 -117.75 -17.0 -83.45 -20.65 -88.75 -20.45 -89.7 -18.75 -98.4 -16.9 -108.75 -14.9 -121.15 -14.8 -122.0 Q-13.2 -127.1 -10.8 -130.2 -8.9 -132.75 -6.45 -133.95 -5.3 -134.5 -3.95 -134.75 0.75 -135.65 7.0 -132.55 11.65 -130.2 17.5 -117.4 23.75 -89.0 38.2 -54.4 L41.4 -46.9 Q42.15 -43.6 40.45 -41.25 37.6 -39.4 34.6 -38.15 L32.7 -37.5 Q29.5 -36.5 26.1 -36.2 L26.65 -36.15 24.6 -36.05 25.65 -38.6 Q27.0 -43.6 25.7 -52.2 L25.3 -54.4 25.2 -54.9 24.25 -54.4 Q15.3 -49.8 10.65 -51.8 L13.5 -54.4 Q21.9 -62.2 22.6 -64.75 L22.6 -65.45 Q15.15 -75.75 6.85 -77.8 L5.6 -78.1 -1.4 -79.25 -1.65 -79.25 M35.9 -37.6 Q38.1 -38.45 40.25 -39.65 38.75 -38.45 35.9 -37.6 M4.55 -96.05 Q4.5 -97.2 3.7 -98.0 2.9 -98.8 1.75 -98.8 0.6 -98.75 -0.2 -97.95 -1.0 -97.15 -1.0 -96.0 L-1.0 -95.95 Q-0.95 -94.85 -0.15 -94.05 0.65 -93.25 1.8 -93.3 2.95 -93.3 3.75 -94.1 4.55 -94.9 4.55 -96.05 M-23.75 -2.35 L-22.05 -2.0 -19.05 -1.5 -18.8 -0.05 -18.7 0.6 -18.05 0.75 Q-8.1 2.75 1.85 2.4 L2.65 2.4 2.8 1.6 3.05 -0.15 Q6.45 -0.15 9.65 -0.3 L13.45 -0.5 13.2 1.05 13.15 1.4 13.5 1.55 Q15.8 2.75 17.75 1.25 L17.95 1.15 17.95 0.95 18.15 -0.85 22.55 -1.4 Q28.55 12.8 18.6 23.8 18.45 23.9 18.45 24.15 L18.65 24.5 19.0 24.6 19.35 24.45 Q29.65 13.1 23.6 -1.55 L26.35 -2.0 29.1 -2.55 28.7 0.05 28.65 0.5 29.1 0.6 Q31.2 1.15 32.65 -1.15 L32.7 -1.2 32.7 -1.3 32.95 -3.65 34.05 -4.1 34.3 -0.25 Q34.3 12.25 24.95 21.1 21.8 24.1 18.2 26.1 11.15 30.0 2.45 30.0 -6.25 30.0 -13.3 26.1 -16.95 24.1 -20.1 21.1 -29.4 12.25 -29.4 -0.25 L-29.2 -3.8 -28.45 -3.55 -28.3 -1.85 -28.25 -1.65 -28.15 -1.5 Q-26.0 0.45 -23.9 -0.15 L-23.5 -0.25 -23.55 -0.7 -23.75 -2.35 M7.25 23.05 Q13.25 21.2 19.1 15.1 24.9 8.95 19.9 7.5 14.9 6.05 -0.85 4.8 -16.65 3.5 -21.35 4.3 -26.05 5.05 -24.3 10.6 -22.55 16.1 -16.9 19.1 -11.2 22.1 -5.0 23.5 1.2 24.85 7.25 23.05" fill="#779d8c" fill-rule="evenodd" stroke="none"/>
    <path d="M-17.0 -83.45 L-20.4 -39.15 -23.05 -37.85 Q-22.45 -37.65 -23.0 -37.75 L-23.3 -37.85 -26.7 -38.85 -28.55 -39.55 -31.35 -40.85 -31.2 -41.65 -31.5 -42.0 Q-33.3 -44.25 -32.15 -46.4 L-32.1 -46.55 -30.25 -54.4 Q-27.5 -65.8 -24.9 -74.05 L-21.9 -83.9 -20.65 -88.75 -17.0 -83.45 M0.25 -36.45 L0.2 -36.8 3.2 -36.3 1.55 -36.4 0.25 -36.45 M4.65 -36.2 Q3.75 -36.3 3.0 -36.55 -2.05 -38.45 -2.5 -50.0 L-2.55 -52.6 -1.65 -79.25 -1.4 -79.25 5.6 -78.1 6.85 -77.8 Q15.15 -75.75 22.6 -65.45 L22.6 -64.75 Q21.9 -62.2 13.5 -54.4 L10.65 -51.8 Q15.3 -49.8 24.25 -54.4 L25.2 -54.9 25.3 -54.4 25.7 -52.2 Q27.0 -43.6 25.65 -38.6 L24.6 -36.05 Q16.5 -35.6 4.65 -36.2 M3.65 -72.0 Q2.85 -72.8 1.7 -72.8 0.55 -72.75 -0.25 -71.95 -1.0 -71.15 -1.0 -70.0 -1.0 -68.85 -0.2 -68.05 L-0.2 -68.0 Q0.65 -67.25 1.8 -67.3 L1.85 -67.3 Q3.0 -67.3 3.75 -68.1 L3.7 -68.1 Q4.5 -68.9 4.5 -70.05 4.5 -71.2 3.65 -72.0 M1.85 -45.1 Q0.65 -45.05 -0.2 -44.2 -1.0 -43.35 -1.0 -42.15 L-1.0 -42.1 Q-0.95 -40.95 -0.1 -40.1 0.75 -39.25 1.95 -39.3 L2.0 -39.3 Q3.2 -39.3 4.05 -40.2 L4.0 -40.2 Q4.85 -41.05 4.8 -42.25 4.8 -43.5 3.9 -44.3 3.05 -45.1 1.85 -45.1 M7.25 23.05 Q1.2 24.85 -5.0 23.5 -11.2 22.1 -16.9 19.1 -22.55 16.1 -24.3 10.6 -26.05 5.05 -21.35 4.3 -16.65 3.5 -0.85 4.8 14.9 6.05 19.9 7.5 24.9 8.95 19.1 15.1 13.25 21.2 7.25 23.05 M-19.35 -75.4 L-21.35 -75.35 -22.05 -75.05 -22.35 -74.35 -22.05 -73.65 Q-21.75 -73.35 -21.35 -73.35 L-19.35 -73.4 Q-18.95 -73.4 -18.65 -73.7 -18.35 -74.0 -18.35 -74.4 -18.35 -74.8 -18.65 -75.1 L-19.35 -75.4 M-23.9 -51.05 L-24.6 -50.75 -24.9 -50.05 -24.6 -49.35 -24.3 -49.15 -23.9 -49.05 -21.4 -49.1 Q-21.0 -49.1 -20.7 -49.4 -20.4 -49.7 -20.4 -50.1 -20.4 -50.5 -20.7 -50.8 L-21.4 -51.1 -23.9 -51.05" fill="#8eaea0" fill-rule="evenodd" stroke="none"/>
    <path d="M7.75 -124.15 L8.05 -123.85 Q30.75 -65.5 28.1 -36.95 L27.95 -36.6 27.55 -36.5 Q27.35 -36.5 27.25 -36.65 L27.1 -37.05 Q29.65 -65.4 7.1 -123.5 L7.1 -123.9 7.4 -124.15 7.75 -124.15 M-23.0 -37.75 Q-20.35 -36.2 -21.3 -32.8 -25.3 -32.55 -28.1 -33.45 -29.0 -33.75 -29.8 -34.2 -31.25 -34.95 -32.25 -36.15 L-31.35 -40.85 -28.55 -39.55 -26.7 -38.85 -23.3 -37.85 -23.0 -37.75 M26.65 -36.15 L29.1 -36.4 32.8 -36.9 34.8 -37.35 35.9 -37.6 Q38.75 -38.45 40.25 -39.65 L40.25 -35.2 Q38.95 -33.45 35.9 -32.25 L33.85 -31.55 Q24.05 -28.65 1.1 -29.6 L0.25 -36.25 1.55 -36.4 3.2 -36.3 4.9 -36.0 4.65 -36.2 Q16.5 -35.6 24.6 -36.05 L26.65 -36.15 M30.25 -13.0 L31.95 -13.4 32.1 -11.6 32.1 -5.4 31.9 -3.3 31.7 -1.55 Q30.9 -0.3 29.8 -0.3 L30.1 -2.8 30.3 -4.9 30.4 -11.1 30.25 -13.0 M17.2 -11.1 L17.2 -11.0 17.35 -9.05 Q17.5 -5.9 17.3 -2.8 L17.15 -0.75 17.0 0.6 Q15.75 1.4 14.3 0.8 L14.5 -0.55 14.7 -2.55 Q14.95 -5.7 14.75 -8.8 L14.55 -10.8 14.55 -10.85 17.2 -11.1 M22.55 -1.4 L23.6 -1.55 Q29.65 13.1 19.35 24.45 L19.0 24.6 18.65 24.5 18.45 24.15 Q18.45 23.9 18.6 23.8 28.55 12.8 22.55 -1.4 M-19.35 -75.4 L-18.65 -75.1 Q-18.35 -74.8 -18.35 -74.4 -18.35 -74.0 -18.65 -73.7 -18.95 -73.4 -19.35 -73.4 L-21.35 -73.35 Q-21.75 -73.35 -22.05 -73.65 L-22.35 -74.35 -22.05 -75.05 -21.35 -75.35 -19.35 -75.4 M-23.9 -51.05 L-21.4 -51.1 -20.7 -50.8 Q-20.4 -50.5 -20.4 -50.1 -20.4 -49.7 -20.7 -49.4 -21.0 -49.1 -21.4 -49.1 L-23.9 -49.05 -24.3 -49.15 -24.6 -49.35 -24.9 -50.05 -24.6 -50.75 -23.9 -51.05 M-27.5 -13.4 L-24.95 -12.8 -25.05 -10.85 -25.0 -4.65 -24.8 -2.55 -24.6 -1.05 Q-25.95 -0.95 -27.3 -2.15 L-27.4 -3.2 -27.55 -5.35 -27.6 -11.5 -27.5 -13.4" fill="#628877" fill-rule="evenodd" stroke="none"/>
    <path d="M13.55 -10.7 L13.1 -10.7 13.55 -10.75 13.55 -10.7 M-22.7 -12.4 L-23.25 -12.5 -23.5 -12.55 -22.95 -12.5 -22.7 -12.4 M18.2 -11.2 L18.9 -11.3 27.25 -12.5 27.6 -12.55 27.5 -12.5 26.0 -12.2 18.2 -11.1 18.2 -11.2" fill="#404040" fill-rule="evenodd" stroke="none"/>
    <path d="M9.55 -2.3 L3.25 -2.15 3.35 -5.8 3.35 -5.85 3.15 -8.4 9.25 -8.5 9.55 -2.3 M-24.05 -10.65 L-23.65 -10.55 -22.05 -10.25 -19.25 -9.8 -19.4 -7.2 -19.3 -3.55 -21.7 -3.95 -23.95 -4.4 Q-24.2 -7.6 -24.05 -10.65" fill="#707070" fill-rule="evenodd" stroke="none"/>
    <path d="M9.25 -8.5 L13.75 -8.75 Q13.95 -5.6 13.7 -2.5 L9.6 -2.3 9.55 -2.3 9.25 -8.5 M18.35 -9.15 L26.35 -10.25 27.9 -10.55 29.35 -10.85 Q29.5 -7.75 29.3 -4.65 L26.0 -3.95 22.75 -3.45 21.7 -3.3 18.35 -2.9 18.35 -9.15 M33.1 -11.95 L33.95 -12.3 35.15 -12.9 35.15 -7.4 Q35.05 -6.7 33.75 -6.05 L33.1 -5.75 33.1 -11.95 M-28.6 -11.85 L-28.55 -5.75 -28.9 -5.85 -30.7 -7.05 -30.7 -12.75 -29.15 -12.05 -28.6 -11.85" fill="#606060" fill-rule="evenodd" stroke="none"/>
    <path d="M-30.3 -32.1 L-28.65 -31.45 -29.55 -28.45 -29.8 -27.65 Q-30.95 -24.25 -31.3 -21.2 L-31.85 -17.45 -31.3 -17.1 -29.35 -16.1 -28.3 -15.7 -27.25 -15.4 -26.1 -15.15 -24.7 -14.85 -23.7 -14.65 -15.4 -13.4 -11.25 -13.1 Q-4.45 -11.8 1.8 -11.7 L7.8 -11.9 13.3 -12.45 14.35 -12.55 15.2 -12.65 18.0 -12.95 22.15 -13.6 29.05 -14.8 30.05 -15.0 30.75 -15.15 31.0 -15.2 32.7 -15.65 33.8 -16.0 34.7 -16.4 35.45 -16.8 36.45 -17.4 36.6 -17.55 35.4 -17.95 Q31.7 -16.85 32.3 -19.6 L32.4 -20.05 33.7 -24.55 34.05 -27.8 34.05 -28.65 34.0 -30.0 36.2 -30.65 36.95 -27.05 38.35 -19.75 Q38.65 -18.1 38.0 -16.6 L37.4 -15.85 37.15 -15.65 Q36.1 -14.9 35.0 -14.45 L32.95 -13.7 31.95 -13.4 30.25 -13.0 29.25 -12.8 27.6 -12.55 27.25 -12.5 18.9 -11.3 18.2 -11.2 17.2 -11.1 14.55 -10.85 13.55 -10.75 13.1 -10.7 9.95 -10.3 2.2 -9.95 -0.1 -10.05 -5.6 -10.4 -14.7 -10.95 -17.05 -11.15 Q-20.25 -11.55 -22.7 -12.4 L-22.95 -12.5 -23.5 -12.55 -23.95 -12.65 -24.95 -12.8 -27.5 -13.4 -28.5 -13.7 -31.7 -14.9 -32.6 -15.4 Q-33.6 -16.1 -33.9 -17.35 -34.25 -18.7 -33.6 -19.8 -33.05 -20.8 -32.8 -21.9 L-30.5 -31.35 -30.3 -32.1" fill="#491818" fill-rule="evenodd" stroke="none"/>
    <path d="M-19.15 -38.4 L-17.8 -52.9 -17.0 -52.65 -13.7 -51.75 -13.85 -49.7 -14.75 -37.65 -19.15 -38.4 M-16.55 -66.3 L-15.25 -80.5 -15.15 -80.5 -12.0 -79.75 -12.15 -77.05 -12.8 -66.15 -12.85 -65.25 Q-14.75 -65.7 -16.45 -66.25 L-16.55 -66.3 M-14.0 -93.6 L-12.75 -107.1 -10.8 -106.65 -10.9 -104.25 -11.15 -98.8 -11.35 -93.4 -11.35 -93.05 -14.0 -93.6 M-11.6 -120.25 Q-10.8 -125.9 -6.0 -129.8 -3.25 -132.1 -1.65 -132.25 -0.65 -132.2 -0.3 -130.75 0.1 -128.85 -0.3 -123.7 L-1.75 -125.15 -2.8 -126.0 -3.9 -126.35 -5.05 -126.3 -6.05 -125.8 -7.1 -125.0 -8.15 -123.95 -8.9 -122.4 -9.5 -119.85 -11.6 -120.25 M-2.55 -105.95 L-2.85 -104.05 -3.05 -92.5 -5.75 -92.55 -5.7 -92.8 -4.65 -98.0 -3.5 -103.1 -2.75 -105.95 -2.55 -105.95 M-3.25 -78.95 L-3.5 -63.75 -8.15 -64.35 -8.05 -71.95 -7.7 -77.2 -7.5 -79.15 -3.25 -78.95 M-3.75 -50.15 L-3.75 -50.0 Q-5.15 -44.55 -1.9 -36.65 L-6.1 -36.8 Q-7.2 -43.6 -7.7 -50.6 L-3.75 -50.15 M1.75 -23.0 L2.7 -23.0 Q13.5 -23.0 21.8 -24.35 L24.45 -24.8 26.2 -25.15 Q31.65 -26.35 34.05 -27.8 L33.7 -24.55 32.4 -20.05 32.3 -19.6 Q31.7 -16.85 35.4 -17.95 L36.6 -17.55 36.45 -17.4 35.45 -16.8 34.7 -16.4 33.8 -16.0 32.7 -15.65 31.0 -15.2 30.75 -15.15 30.05 -15.0 29.05 -14.8 22.15 -13.6 18.0 -12.95 15.2 -12.65 14.35 -12.55 13.3 -12.45 7.8 -11.9 1.8 -11.7 Q-4.45 -11.8 -11.25 -13.1 L-15.4 -13.4 -23.7 -14.65 -24.7 -14.85 -26.1 -15.15 -27.25 -15.4 -28.3 -15.7 -29.35 -16.1 -31.3 -17.1 -31.85 -17.45 -31.3 -21.2 Q-30.95 -24.25 -29.8 -27.65 L-29.55 -28.45 Q-27.95 -27.05 -23.75 -25.9 L-23.95 -25.45 Q-24.5 -23.9 -24.65 -22.25 L-24.6 -20.5 -24.55 -20.25 -24.3 -19.25 -23.25 -18.8 -19.4 -17.15 Q-15.5 -15.75 -11.3 -15.0 L-5.3 -14.35 1.2 -14.4 4.55 -14.45 8.1 -14.85 11.7 -15.4 15.5 -16.05 19.35 -16.9 23.4 -17.85 27.1 -18.9 27.45 -19.0 23.4 -23.1 17.65 -22.45 16.2 -22.35 Q11.95 -22.2 7.8 -22.5 L3.15 -22.9 1.75 -23.0" fill="#782727" fill-rule="evenodd" stroke="none"/>
    <path d="M-0.3 -123.7 L-0.7 -119.6 -1.9 -119.55 -9.5 -119.85 -8.9 -122.4 -8.15 -123.95 -7.1 -125.0 -6.05 -125.8 -5.05 -126.3 -3.9 -126.35 -2.8 -126.0 -1.75 -125.15 -0.3 -123.7 M1.75 -23.0 L3.15 -22.9 7.8 -22.5 Q11.95 -22.2 16.2 -22.35 L17.65 -22.45 23.4 -23.1 27.45 -19.0 27.1 -18.9 23.4 -17.85 19.35 -16.9 15.5 -16.05 11.7 -15.4 8.1 -14.85 4.55 -14.45 1.2 -14.4 -5.3 -14.35 -11.3 -15.0 Q-15.5 -15.75 -19.4 -17.15 L-23.25 -18.8 -24.3 -19.25 -24.55 -20.25 -24.6 -20.5 -24.65 -22.25 Q-24.5 -23.9 -23.95 -25.45 L-23.75 -25.9 -20.8 -25.15 -19.5 -24.9 -16.85 -24.4 Q-8.75 -23.05 1.75 -23.0 M-11.35 -93.05 L-11.35 -93.4 -11.15 -98.8 -10.9 -104.25 -10.8 -106.65 -2.75 -105.95 -3.5 -103.1 -4.65 -98.0 -5.7 -92.8 -5.75 -92.55 -11.35 -93.05 M-12.0 -79.75 L-7.5 -79.15 -7.7 -77.2 -8.05 -71.95 -8.15 -64.35 -12.85 -65.25 -12.8 -66.15 -12.15 -77.05 -12.0 -79.75 M-14.75 -37.65 L-13.85 -49.7 -13.7 -51.75 -7.7 -50.6 Q-7.2 -43.6 -6.1 -36.8 L-14.75 -37.65" fill="#993333" fill-rule="evenodd" stroke="none"/>
    <path d="M-28.65 -31.45 Q-25.2 -30.4 -20.2 -30.9 L-19.3 -30.95 -19.3 -37.05 -19.15 -38.4 -14.75 -37.65 -15.7 -27.7 -22.95 -27.6 -23.75 -25.9 Q-27.95 -27.05 -29.55 -28.45 L-28.65 -31.45 M-17.8 -52.9 L-16.55 -66.3 -16.45 -66.25 Q-14.75 -65.7 -12.85 -65.25 L-13.7 -51.75 -17.0 -52.65 -17.8 -52.9 M-15.25 -80.5 L-14.0 -93.6 -11.35 -93.05 -11.6 -87.9 -11.85 -82.5 -12.0 -79.75 -15.15 -80.5 -15.25 -80.5 M-12.75 -107.1 L-11.8 -117.55 -11.8 -117.65 -11.6 -120.25 -9.5 -119.85 -10.35 -115.05 -10.75 -109.65 -10.8 -106.65 -12.75 -107.1 M-2.2 -108.25 L-2.55 -105.95 -2.75 -105.95 -2.2 -108.25 M-3.05 -92.5 L-3.25 -78.95 -7.5 -79.15 -7.2 -82.4 -6.55 -87.65 -5.75 -92.55 -3.05 -92.5 M-3.5 -63.75 L-3.75 -50.15 -7.7 -50.6 -7.7 -50.7 -8.15 -61.4 -8.15 -64.35 -3.5 -63.75 M-1.9 -36.65 L-1.75 -36.3 -0.65 -27.65 0.2 -27.65 Q23.4 -27.25 34.0 -30.0 L34.05 -28.65 34.05 -27.8 Q31.65 -26.35 26.2 -25.15 L24.45 -24.8 21.8 -24.35 Q13.5 -23.0 2.7 -23.0 L1.75 -23.0 0.35 -23.1 -3.65 -23.7 -4.8 -29.8 -5.2 -31.75 -5.7 -34.6 -6.1 -36.8 -1.9 -36.65" fill="#ead3b9" fill-rule="evenodd" stroke="none"/>
    <path d="M-0.7 -119.6 Q-1.2 -114.85 -2.2 -108.25 L-2.75 -105.95 -10.8 -106.65 -10.75 -109.65 -10.35 -115.05 -9.5 -119.85 -1.9 -119.55 -0.7 -119.6 M-6.1 -36.8 L-5.7 -34.6 -5.2 -31.75 -4.8 -29.8 -3.65 -23.7 0.35 -23.1 1.75 -23.0 Q-8.75 -23.05 -16.85 -24.4 L-19.5 -24.9 -20.8 -25.15 -23.75 -25.9 -22.95 -27.6 -15.7 -27.7 -14.75 -37.65 -6.1 -36.8 M-11.35 -93.05 L-5.75 -92.55 -6.55 -87.65 -7.2 -82.4 -7.5 -79.15 -12.0 -79.75 -11.85 -82.5 -11.6 -87.9 -11.35 -93.05 M-12.85 -65.25 L-8.15 -64.35 -8.15 -61.4 -7.7 -50.7 -7.7 -50.6 -13.7 -51.75 -12.85 -65.25" fill="#faf5ef" fill-rule="evenodd" stroke="none"/>
    <path d="M0.25 -36.25 L0.25 -36.45 1.55 -36.4 0.25 -36.25" fill="#558a5f" fill-rule="evenodd" stroke="none"/>
    <path d="M3.55 -96.0 L3.55 -96.05 Q3.5 -96.8 3.0 -97.3 2.5 -97.8 1.8 -97.8 L1.75 -97.8 Q1.0 -97.75 0.5 -97.25 0.0 -96.75 0.0 -96.0 0.05 -95.25 0.55 -94.75 1.05 -94.25 1.8 -94.3 2.55 -94.3 3.05 -94.8 3.55 -95.3 3.55 -96.0 M4.55 -96.05 Q4.55 -94.9 3.75 -94.1 2.95 -93.3 1.8 -93.3 0.65 -93.25 -0.15 -94.05 -0.95 -94.85 -1.0 -95.95 L-1.0 -96.0 Q-1.0 -97.15 -0.2 -97.95 0.6 -98.75 1.75 -98.8 2.9 -98.8 3.7 -98.0 4.5 -97.2 4.55 -96.05 M2.95 -71.25 L2.95 -71.3 Q2.45 -71.8 1.75 -71.8 L1.7 -71.8 Q0.95 -71.75 0.45 -71.25 L0.5 -71.25 Q0.0 -70.75 0.0 -70.0 0.0 -69.25 0.5 -68.75 1.05 -68.25 1.8 -68.3 2.5 -68.3 3.0 -68.8 3.5 -69.3 3.5 -70.05 3.5 -70.8 2.95 -71.25 M3.65 -72.0 Q4.5 -71.2 4.5 -70.05 4.5 -68.9 3.7 -68.1 L3.75 -68.1 Q3.0 -67.3 1.85 -67.3 L1.8 -67.3 Q0.65 -67.25 -0.2 -68.0 L-0.2 -68.05 Q-1.0 -68.85 -1.0 -70.0 -1.0 -71.15 -0.25 -71.95 0.55 -72.75 1.7 -72.8 2.85 -72.8 3.65 -72.0 M0.5 -43.5 L0.55 -43.5 Q0.0 -42.95 0.0 -42.15 0.05 -41.35 0.6 -40.8 1.15 -40.25 1.95 -40.3 2.75 -40.3 3.3 -40.9 3.85 -41.45 3.8 -42.2 L3.8 -42.25 Q3.8 -43.05 3.2 -43.55 2.65 -44.1 1.85 -44.1 1.05 -44.05 0.5 -43.5 M1.85 -45.1 Q3.05 -45.1 3.9 -44.3 4.8 -43.5 4.8 -42.25 4.85 -41.05 4.0 -40.2 L4.05 -40.2 Q3.2 -39.3 2.0 -39.3 L1.95 -39.3 Q0.75 -39.25 -0.1 -40.1 -0.95 -40.95 -1.0 -42.1 L-1.0 -42.15 Q-1.0 -43.35 -0.2 -44.2 0.65 -45.05 1.85 -45.1" fill="#65432c" fill-rule="evenodd" stroke="none"/>
    <path d="M3.55 -96.0 Q3.55 -95.3 3.05 -94.8 2.55 -94.3 1.8 -94.3 1.05 -94.25 0.55 -94.75 0.05 -95.25 0.0 -96.0 0.0 -96.75 0.5 -97.25 1.0 -97.75 1.75 -97.8 L1.8 -97.8 Q2.5 -97.8 3.0 -97.3 3.5 -96.8 3.55 -96.05 L3.55 -96.0 M2.95 -71.25 Q3.5 -70.8 3.5 -70.05 3.5 -69.3 3.0 -68.8 2.5 -68.3 1.8 -68.3 1.05 -68.25 0.5 -68.75 0.0 -69.25 0.0 -70.0 0.0 -70.75 0.5 -71.25 L0.45 -71.25 Q0.95 -71.75 1.7 -71.8 L1.75 -71.8 Q2.45 -71.8 2.95 -71.3 L2.95 -71.25 M0.5 -43.5 Q1.05 -44.05 1.85 -44.1 2.65 -44.1 3.2 -43.55 3.8 -43.05 3.8 -42.25 L3.8 -42.2 Q3.85 -41.45 3.3 -40.9 2.75 -40.3 1.95 -40.3 1.15 -40.25 0.6 -40.8 0.05 -41.35 0.0 -42.15 0.0 -42.95 0.55 -43.5 L0.5 -43.5" fill="#86582b" fill-rule="evenodd" stroke="none"/>
    <path d="M6.4 -123.5 Q6.0 -123.55 5.75 -123.9 5.35 -124.5 5.95 -124.9 6.5 -125.3 7.15 -124.6 L7.4 -124.3 Q7.6 -123.85 7.0 -123.6 L6.4 -123.5 M7.6 -124.45 Q7.45 -124.95 7.9 -125.25 8.4 -125.65 8.75 -125.0 9.05 -124.35 8.5 -124.05 7.9 -123.8 7.65 -124.35 L7.6 -124.45 M11.3 -125.55 Q11.1 -125.95 11.35 -126.25 L11.55 -126.45 Q12.1 -126.85 12.75 -126.15 13.2 -125.65 12.95 -125.35 L12.6 -125.15 11.75 -125.1 11.35 -125.45 11.3 -125.55 M13.55 -125.2 L13.6 -125.2 Q14.2 -125.7 14.6 -124.9 L14.7 -124.7 14.75 -124.5 14.85 -124.6 14.95 -124.7 Q15.85 -125.35 16.5 -124.4 16.85 -123.85 16.65 -123.4 L16.2 -122.9 Q15.25 -122.3 14.65 -123.15 L14.4 -123.8 14.3 -123.75 Q13.55 -123.4 13.25 -124.05 12.95 -124.75 13.55 -125.2 M16.95 -123.1 L17.2 -123.35 Q17.85 -123.8 18.4 -123.1 18.95 -122.45 18.2 -122.1 L18.05 -122.0 Q17.4 -121.8 17.0 -122.3 16.7 -122.75 16.95 -123.1 M18.5 -121.5 Q19.0 -121.8 19.6 -121.15 20.15 -120.55 19.45 -120.25 L19.4 -120.2 Q18.6 -119.95 18.25 -120.5 17.9 -121.1 18.45 -121.45 L18.5 -121.5 M19.8 -119.7 Q20.5 -120.25 20.9 -119.35 21.25 -118.6 20.75 -118.2 L20.55 -118.1 Q19.75 -117.75 19.45 -118.45 19.1 -119.2 19.8 -119.7 M21.2 -117.4 Q21.8 -117.8 22.2 -117.15 22.65 -116.45 22.0 -116.0 L21.9 -115.95 Q21.3 -115.65 20.85 -116.25 20.4 -116.9 21.1 -117.35 L21.2 -117.4 M22.15 -115.45 Q22.5 -115.4 22.85 -115.0 23.4 -114.35 22.8 -113.95 L22.65 -113.85 Q21.8 -113.5 21.35 -114.15 20.85 -114.8 21.55 -115.25 L22.15 -115.45 M22.85 -113.75 L23.65 -113.3 Q24.3 -112.6 23.45 -112.25 L23.4 -112.25 Q22.55 -112.0 22.2 -112.6 21.8 -113.2 22.4 -113.6 L22.85 -113.75 M23.65 -111.4 L23.7 -111.4 Q24.5 -112.0 24.95 -111.0 25.4 -110.05 24.55 -109.6 L24.2 -109.45 Q23.6 -109.35 23.3 -110.0 22.9 -110.8 23.65 -111.4 M24.25 -109.15 L24.3 -109.15 Q24.85 -109.6 25.25 -109.0 25.65 -108.4 25.1 -108.0 L24.55 -107.85 24.1 -108.2 Q23.7 -108.75 24.25 -109.15 M24.7 -107.15 Q25.15 -107.2 25.55 -106.7 26.1 -106.0 25.3 -105.65 L24.95 -105.55 Q24.4 -105.45 24.1 -105.9 23.6 -106.5 24.3 -106.95 L24.7 -107.15 M25.05 -104.95 Q25.45 -105.05 25.9 -104.55 26.55 -103.85 25.75 -103.55 L25.25 -103.45 Q24.75 -103.45 24.5 -103.85 24.1 -104.45 24.7 -104.85 L25.05 -104.95 M25.35 -102.4 L25.9 -101.85 Q26.3 -100.95 25.5 -100.5 L25.45 -100.5 Q24.7 -100.15 24.35 -100.9 24.0 -101.65 24.75 -102.2 L25.35 -102.4 M25.5 -100.15 Q25.9 -100.25 26.25 -99.75 26.75 -99.0 26.05 -98.5 L25.5 -98.35 Q25.1 -98.3 24.8 -98.75 24.3 -99.45 25.05 -99.95 L25.5 -100.15 M25.5 -98.1 Q26.0 -98.3 26.5 -97.7 27.05 -97.0 26.25 -96.65 L25.45 -96.55 25.05 -96.9 Q24.55 -97.5 25.25 -97.95 L25.5 -98.1 M25.45 -96.3 L26.05 -95.85 Q26.7 -95.15 25.85 -94.8 L25.35 -94.7 Q24.85 -94.75 24.6 -95.15 24.2 -95.75 24.8 -96.15 L25.45 -96.3 M25.15 -93.35 L25.35 -93.1 Q25.7 -92.25 25.0 -91.9 L24.9 -91.85 Q24.2 -91.6 23.9 -92.25 23.55 -92.95 24.25 -93.45 L25.15 -93.35 M24.8 -91.2 L25.1 -90.85 Q25.65 -90.0 24.8 -89.45 L24.95 -89.3 Q25.8 -88.25 24.6 -87.7 L23.85 -87.5 24.25 -87.15 Q25.2 -86.15 24.0 -85.7 L22.95 -85.6 22.25 -86.15 Q21.65 -87.0 22.5 -87.55 L23.0 -87.75 22.7 -88.1 Q22.0 -89.0 23.05 -89.7 L23.25 -89.85 Q22.85 -90.6 23.65 -91.15 L24.8 -91.2 M22.8 -85.25 L23.1 -84.8 Q23.55 -83.85 22.75 -83.45 22.15 -83.15 21.8 -83.45 L21.5 -83.8 Q21.15 -84.65 21.9 -85.2 L22.8 -85.25 M21.65 -83.25 L21.85 -83.0 Q22.45 -82.1 21.6 -81.5 L20.3 -81.55 20.15 -81.7 20.3 -81.5 Q20.6 -80.95 19.9 -80.65 L19.15 -80.55 18.7 -80.9 Q18.2 -81.5 18.9 -81.95 19.55 -82.45 20.15 -81.7 L20.1 -81.8 Q19.45 -82.65 20.4 -83.25 21.1 -83.8 21.65 -83.25 M18.25 -80.0 Q18.65 -79.35 17.8 -79.05 16.8 -78.7 16.3 -79.35 L16.25 -79.4 Q15.75 -80.2 16.5 -80.7 17.2 -81.2 18.05 -80.3 L18.25 -80.0 M15.85 -79.3 Q16.1 -78.6 15.5 -78.3 14.75 -77.95 14.45 -78.6 L14.4 -79.25 14.8 -79.75 Q15.4 -80.25 15.8 -79.45 L15.85 -79.3 M14.05 -79.3 L13.7 -78.95 Q13.1 -78.55 12.65 -79.1 12.4 -79.45 12.55 -79.7 L12.9 -80.15 Q13.5 -80.6 13.9 -79.95 L14.05 -79.3 M11.75 -80.1 L11.3 -79.7 Q10.45 -79.35 10.0 -80.0 9.5 -80.6 10.2 -81.1 10.9 -81.6 11.5 -80.85 L11.75 -80.1 M9.4 -81.75 Q9.5 -81.45 9.1 -81.25 8.45 -81.05 8.15 -81.5 7.85 -81.95 8.3 -82.25 L8.8 -82.35 9.2 -82.05 9.4 -81.75 M8.25 -82.95 L8.0 -82.8 Q7.2 -82.45 6.9 -83.15 6.55 -83.85 7.15 -84.35 L7.25 -84.4 Q7.95 -84.95 8.35 -84.05 8.7 -83.35 8.25 -82.95 M6.7 -84.95 L6.6 -84.9 5.95 -85.0 Q5.65 -85.4 6.1 -85.7 L6.2 -85.75 Q6.5 -85.95 6.75 -85.55 6.95 -85.2 6.7 -84.95 M5.6 -86.75 Q5.1 -86.6 4.8 -87.0 4.4 -87.5 4.95 -87.9 5.45 -88.25 5.95 -87.7 6.4 -87.1 5.8 -86.8 L5.6 -86.75 M4.65 -88.5 Q3.9 -88.35 3.55 -88.9 3.15 -89.5 3.75 -89.9 L3.95 -90.05 Q4.45 -90.2 5.0 -89.6 5.65 -88.9 4.8 -88.55 L4.65 -88.5 M3.85 -90.35 L3.65 -90.25 Q2.9 -89.9 2.55 -90.6 2.2 -91.3 2.9 -91.8 L3.2 -91.95 Q3.65 -92.1 4.0 -91.45 4.3 -90.75 3.85 -90.35 M2.9 -92.95 Q2.25 -92.6 1.8 -93.2 1.3 -93.9 2.0 -94.4 L2.4 -94.6 Q2.85 -94.7 3.2 -94.15 3.65 -93.45 2.95 -93.0 L2.9 -92.95 M2.25 -95.15 Q1.55 -95.05 1.15 -95.6 0.55 -96.4 1.4 -96.95 L1.8 -97.15 Q2.4 -97.3 2.95 -96.65 3.65 -95.75 2.7 -95.3 L2.25 -95.15 M1.75 -97.4 Q1.4 -97.35 1.25 -97.65 1.0 -98.0 1.35 -98.2 L1.6 -98.3 2.05 -98.05 Q2.4 -97.65 1.95 -97.45 L1.75 -97.4 M1.35 -100.1 Q0.9 -100.0 0.7 -100.45 0.45 -100.95 0.9 -101.3 0.4 -101.25 0.05 -101.75 -0.55 -102.5 0.3 -103.05 L1.0 -103.3 1.65 -102.85 Q2.15 -102.05 1.35 -101.5 L1.8 -101.1 Q2.1 -100.45 1.55 -100.15 L1.35 -100.1 M0.95 -104.0 L0.4 -104.4 Q-0.1 -105.1 0.65 -105.6 L0.9 -105.75 Q1.45 -105.95 2.0 -105.3 2.6 -104.55 1.75 -104.15 L0.95 -104.0 M0.9 -106.65 Q0.45 -106.5 0.25 -106.85 0.0 -107.2 0.35 -107.4 0.6 -107.65 0.95 -107.4 L1.05 -107.25 Q1.4 -106.85 0.95 -106.65 L0.9 -106.65 M1.0 -108.5 Q0.4 -108.4 0.15 -109.0 -0.2 -109.75 0.55 -110.3 0.85 -110.6 1.15 -110.5 L1.7 -109.95 Q2.1 -109.05 1.3 -108.6 L1.0 -108.5 M1.25 -111.2 Q0.9 -111.05 0.65 -111.4 0.35 -111.8 0.8 -112.1 L1.4 -112.15 1.55 -112.0 Q1.8 -111.55 1.4 -111.25 L1.25 -111.2 M1.55 -113.0 L1.2 -113.35 Q0.7 -114.0 1.4 -114.45 L1.9 -114.65 Q2.3 -114.7 2.7 -114.2 3.3 -113.45 2.5 -113.05 L1.55 -113.0 M2.05 -115.2 L1.5 -115.6 Q1.05 -116.3 1.75 -116.75 L2.55 -116.8 3.1 -116.4 Q3.8 -115.6 2.9 -115.25 L2.05 -115.2 M2.7 -117.35 L2.35 -117.75 Q2.0 -118.5 2.7 -119.0 3.1 -119.35 3.45 -119.15 L3.8 -118.65 Q4.2 -117.8 3.45 -117.4 L2.7 -117.35 M3.65 -119.55 L3.4 -119.8 Q3.0 -120.35 3.6 -120.75 L4.35 -120.85 4.55 -120.6 Q4.95 -120.0 4.4 -119.6 L3.65 -119.55 M4.7 -121.4 L3.85 -121.9 Q3.25 -122.7 4.1 -123.3 4.95 -123.9 5.75 -122.95 L5.8 -122.9 Q6.45 -122.05 5.45 -121.6 L4.7 -121.4 M18.85 -117.1 Q22.45 -111.7 23.4 -103.55 24.3 -95.4 22.0 -89.35 19.65 -83.25 15.45 -82.75 11.2 -82.3 7.6 -87.7 3.95 -93.1 3.05 -101.2 2.1 -109.35 4.45 -115.45 6.75 -121.55 11.0 -122.0 15.2 -122.5 18.85 -117.1" fill="#355b5b" fill-rule="evenodd" stroke="none"/>
    <path d="M7.4 -124.3 L7.6 -124.45 7.65 -124.35 Q7.9 -123.8 8.5 -124.05 9.05 -124.35 8.75 -125.0 L10.6 -125.5 11.3 -125.55 11.35 -125.45 11.75 -125.1 12.6 -125.15 12.95 -125.35 13.55 -125.2 Q12.95 -124.75 13.25 -124.05 13.55 -123.4 14.3 -123.75 L14.4 -123.8 14.65 -123.15 Q15.25 -122.3 16.2 -122.9 L16.65 -123.4 16.95 -123.1 Q16.7 -122.75 17.0 -122.3 17.4 -121.8 18.05 -122.0 L18.5 -121.5 18.45 -121.45 Q17.9 -121.1 18.25 -120.5 18.6 -119.95 19.4 -120.2 L19.45 -120.25 19.8 -119.7 Q19.1 -119.2 19.45 -118.45 19.75 -117.75 20.55 -118.1 L20.75 -118.2 21.2 -117.4 21.1 -117.35 Q20.4 -116.9 20.85 -116.25 21.3 -115.65 21.9 -115.95 L22.15 -115.45 21.55 -115.25 Q20.85 -114.8 21.35 -114.15 21.8 -113.5 22.65 -113.85 L22.8 -113.95 22.85 -113.75 22.4 -113.6 Q21.8 -113.2 22.2 -112.6 22.55 -112.0 23.4 -112.25 L23.65 -111.4 Q22.9 -110.8 23.3 -110.0 23.6 -109.35 24.2 -109.45 L24.25 -109.15 Q23.7 -108.75 24.1 -108.2 L24.55 -107.85 24.7 -107.15 24.3 -106.95 Q23.6 -106.5 24.1 -105.9 24.4 -105.45 24.95 -105.55 L25.05 -104.95 24.7 -104.85 Q24.1 -104.45 24.5 -103.85 24.75 -103.45 25.25 -103.45 L25.35 -102.4 24.75 -102.2 Q24.0 -101.65 24.35 -100.9 24.7 -100.15 25.45 -100.5 L25.5 -100.15 25.05 -99.95 Q24.3 -99.45 24.8 -98.75 25.1 -98.3 25.5 -98.35 L25.5 -98.1 25.25 -97.95 Q24.55 -97.5 25.05 -96.9 L25.45 -96.55 25.45 -96.3 24.8 -96.15 Q24.2 -95.75 24.6 -95.15 24.85 -94.75 25.35 -94.7 L25.15 -93.35 24.25 -93.45 Q23.55 -92.95 23.9 -92.25 24.2 -91.6 24.9 -91.85 L24.8 -91.2 23.65 -91.15 Q22.85 -90.6 23.25 -89.85 L23.05 -89.7 Q22.0 -89.0 22.7 -88.1 L23.0 -87.75 22.5 -87.55 Q21.65 -87.0 22.25 -86.15 L22.95 -85.6 22.8 -85.25 21.9 -85.2 Q21.15 -84.65 21.5 -83.8 L21.8 -83.45 21.65 -83.25 Q21.1 -83.8 20.4 -83.25 19.45 -82.65 20.1 -81.8 L20.15 -81.7 Q19.55 -82.45 18.9 -81.95 18.2 -81.5 18.7 -80.9 L19.15 -80.55 18.25 -80.0 18.05 -80.3 Q17.2 -81.2 16.5 -80.7 15.75 -80.2 16.25 -79.4 L16.3 -79.35 15.85 -79.3 15.8 -79.45 Q15.4 -80.25 14.8 -79.75 L14.4 -79.25 14.05 -79.3 13.9 -79.95 Q13.5 -80.6 12.9 -80.15 L12.55 -79.7 11.75 -80.1 11.5 -80.85 Q10.9 -81.6 10.2 -81.1 L9.4 -81.75 9.2 -82.05 8.8 -82.35 8.25 -82.95 Q8.7 -83.35 8.35 -84.05 7.95 -84.95 7.25 -84.4 L7.15 -84.35 6.7 -84.95 Q6.95 -85.2 6.75 -85.55 6.5 -85.95 6.2 -85.75 L5.6 -86.75 5.8 -86.8 Q6.4 -87.1 5.95 -87.7 5.45 -88.25 4.95 -87.9 L4.65 -88.5 4.8 -88.55 Q5.65 -88.9 5.0 -89.6 4.45 -90.2 3.95 -90.05 L3.85 -90.35 Q4.3 -90.75 4.0 -91.45 3.65 -92.1 3.2 -91.95 L2.9 -92.95 2.95 -93.0 Q3.65 -93.45 3.2 -94.15 2.85 -94.7 2.4 -94.6 L2.25 -95.15 2.7 -95.3 Q3.65 -95.75 2.95 -96.65 2.4 -97.3 1.8 -97.15 L1.75 -97.4 1.95 -97.45 Q2.4 -97.65 2.05 -98.05 L1.6 -98.3 1.35 -100.1 1.55 -100.15 Q2.1 -100.45 1.8 -101.1 L1.35 -101.5 Q2.15 -102.05 1.65 -102.85 L1.0 -103.3 0.95 -104.0 1.75 -104.15 Q2.6 -104.55 2.0 -105.3 1.45 -105.95 0.9 -105.75 L0.9 -106.65 0.95 -106.65 Q1.4 -106.85 1.05 -107.25 L0.95 -107.4 1.0 -108.5 1.3 -108.6 Q2.1 -109.05 1.7 -109.95 L1.15 -110.5 1.25 -111.2 1.4 -111.25 Q1.8 -111.55 1.55 -112.0 L1.4 -112.15 1.55 -113.0 2.5 -113.05 Q3.3 -113.45 2.7 -114.2 2.3 -114.7 1.9 -114.65 L2.05 -115.2 2.9 -115.25 Q3.8 -115.6 3.1 -116.4 L2.55 -116.8 2.7 -117.35 3.45 -117.4 Q4.2 -117.8 3.8 -118.65 L3.45 -119.15 3.65 -119.55 4.4 -119.6 Q4.95 -120.0 4.55 -120.6 L4.35 -120.85 4.7 -121.4 5.45 -121.6 Q6.45 -122.05 5.8 -122.9 L6.4 -123.5 7.0 -123.6 Q7.6 -123.85 7.4 -124.3 M14.7 -124.7 L14.85 -124.6 14.75 -124.5 14.7 -124.7 M20.3 -81.55 L20.3 -81.5 20.15 -81.7 20.3 -81.55 M18.85 -117.1 Q15.2 -122.5 11.0 -122.0 6.75 -121.55 4.45 -115.45 2.1 -109.35 3.05 -101.2 3.95 -93.1 7.6 -87.7 11.2 -82.3 15.45 -82.75 19.65 -83.25 22.0 -89.35 24.3 -95.4 23.4 -103.55 22.45 -111.7 18.85 -117.1" fill="#bed6d5" fill-rule="evenodd" stroke="none"/>
  </g>
</svg>
