<?xml version="1.0" encoding="UTF-8" standalone="no"?>
<svg xmlns:ffdec="https://www.free-decompiler.com/flash" xmlns:xlink="http://www.w3.org/1999/xlink" ffdec:objectType="shape" height="19.75px" width="35.5px" xmlns="http://www.w3.org/2000/svg">
  <g transform="matrix(1.0, 0.0, 0.0, 1.0, 28.95, -9.0)">
    <path d="M-4.4 13.15 L-3.25 11.8 Q-2.05 10.75 -0.6 10.75 1.65 10.75 3.2 13.15 4.8 15.5 4.8 18.85 4.8 22.2 3.2 24.55 1.65 26.9 -0.6 26.95 -2.8 26.9 -4.4 24.55 -5.95 22.2 -5.95 18.85 -6.0 17.0 -5.5 15.45 -5.1 14.15 -4.4 13.15 Z" fill="none" stroke="#000000" stroke-linecap="round" stroke-linejoin="round" stroke-width="3.5"/>
    <path d="M-26.75 17.0 L-25.85 15.0 -24.85 13.85 Q-23.8 12.95 -22.5 12.95 -20.6 12.95 -19.25 15.0 -17.85 17.05 -17.8 20.0 -17.85 22.9 -19.25 24.9 -20.6 26.95 -22.5 27.0 -24.45 26.95 -25.85 24.9 -27.2 22.9 -27.2 20.0 -27.2 18.35 -26.75 17.0 Z" fill="none" stroke="#000000" stroke-linecap="round" stroke-linejoin="round" stroke-width="3.5"/>
  </g>
</svg>
