<?xml version="1.0" encoding="UTF-8" standalone="no"?>
<svg xmlns:ffdec="https://www.free-decompiler.com/flash" xmlns:xlink="http://www.w3.org/1999/xlink" ffdec:objectType="shape" height="17.3px" width="35.2px" xmlns="http://www.w3.org/2000/svg">
  <g transform="matrix(1.0, 0.0, 0.0, 1.0, 17.55, 0.6)">
    <path d="M-11.45 4.65 Q-12.45 5.25 -13.75 8.85 L-14.05 9.65 Q-13.9 11.05 -13.2 12.15 L-13.2 12.2 Q-12.6 13.1 -11.75 13.2 -11.0 13.1 -10.4 12.2 L-10.4 12.15 Q-9.5 10.8 -9.45 8.9 -9.5 6.95 -10.4 5.6 L-10.4 5.55 Q-10.9 4.85 -11.45 4.65 M-7.5 3.6 Q-6.0 5.75 -5.95 8.9 L-5.95 8.95 Q-6.0 12.0 -7.5 14.15 L-7.45 14.1 Q-9.2 16.8 -11.75 16.7 -14.3 16.8 -16.1 14.15 -17.4 12.3 -17.55 9.75 L-12.3 -0.1 -10.15 0.6 Q-8.9 1.45 -7.5 3.6 M11.85 7.95 L12.0 7.4 10.15 5.25 Q8.35 2.95 7.95 3.05 L7.55 3.15 6.95 3.9 6.9 4.0 Q6.4 4.6 6.2 5.4 L6.2 5.45 Q5.85 6.55 5.85 7.9 5.85 10.0 6.7 11.55 9.45 9.8 11.75 9.35 L11.85 7.95 M15.2 7.9 L15.25 9.05 Q15.85 9.05 17.65 10.65 L16.3 10.95 Q12.95 11.8 2.8 15.75 L2.65 15.5 Q2.35 14.95 2.55 14.35 2.7 13.75 3.25 13.5 L3.65 13.3 Q2.35 11.0 2.35 7.9 2.35 6.05 2.85 4.45 L2.8 4.5 Q3.2 3.15 4.0 2.0 L4.05 1.95 Q4.6 1.05 5.35 0.45 L5.3 0.5 Q6.35 -0.75 7.85 -0.6 9.25 -0.45 15.0 5.7 L15.2 7.9" fill="#000000" fill-rule="evenodd" stroke="none"/>
  </g>
</svg>
