<?xml version="1.0" encoding="UTF-8" standalone="no"?>
<svg xmlns:ffdec="https://www.free-decompiler.com/flash" xmlns:xlink="http://www.w3.org/1999/xlink" ffdec:objectType="shape" height="17.55px" width="35.4px" xmlns="http://www.w3.org/2000/svg">
  <g transform="matrix(1.0, 0.0, 0.0, 1.0, 20.2, 0.85)">
    <path d="M-10.4 12.2 L-10.4 12.15 Q-9.7 11.1 -9.5 9.7 L-14.0 7.85 -14.1 8.9 Q-14.1 10.8 -13.2 12.15 L-13.2 12.2 Q-12.6 13.1 -11.75 13.2 -11.0 13.1 -10.4 12.2 M-5.95 8.8 L-5.95 8.95 Q-6.0 12.0 -7.5 14.15 L-7.45 14.1 Q-9.2 16.8 -11.75 16.7 -14.3 16.8 -16.1 14.15 -17.6 12.0 -17.6 8.9 L-17.3 6.45 -20.05 4.85 -20.1 4.75 Q-20.35 4.15 -20.05 3.6 L-19.25 2.8 -18.1 2.85 -15.45 4.0 -14.45 4.15 -13.85 4.7 -6.05 8.2 -5.95 8.8" fill="#000000" fill-rule="evenodd" stroke="none"/>
    <path d="M13.45 7.9 Q13.45 10.8 12.05 12.85 10.7 14.9 8.75 14.9 6.85 14.9 5.45 12.85 4.1 10.8 4.1 7.9 4.1 6.3 4.5 4.95 4.8 3.85 5.45 2.95 L6.45 1.8 Q7.5 0.9 8.75 0.9 10.7 0.9 12.05 2.95 13.45 5.0 13.45 7.9 Z" fill="none" stroke="#000000" stroke-linecap="round" stroke-linejoin="round" stroke-width="3.5"/>
  </g>
</svg>
