<?xml version="1.0" encoding="UTF-8" standalone="no"?>
<svg xmlns:ffdec="https://www.free-decompiler.com/flash" xmlns:xlink="http://www.w3.org/1999/xlink" ffdec:objectType="shape" height="96.5px" width="119.4px" xmlns="http://www.w3.org/2000/svg">
  <g transform="matrix(1.0, 0.0, 0.0, 1.0, 39.3, 49.25)">
    <path d="M61.15 14.2 L60.5 14.9 59.75 14.15 Q63.9 7.05 69.1 0.75 62.1 3.45 55.35 0.3 54.75 0.9 53.9 1.05 52.2 0.85 50.7 0.0 49.65 -0.55 48.85 -1.65 46.55 -0.9 45.05 -2.65 L42.65 -5.75 41.7 -5.5 41.1 -5.6 40.0 -6.2 39.75 -7.5 45.2 -18.2 Q39.65 -17.45 36.25 -13.0 L35.15 -14.0 34.55 -13.4 33.9 -12.9 Q33.05 -12.5 31.85 -12.4 23.9 -19.1 24.25 -29.5 22.75 -25.4 22.6 -21.2 22.2 -10.95 14.8 -8.95 L13.9 -12.0 Q3.1 -19.1 -2.5 -31.25 L-1.9 -16.55 Q-1.1 -1.45 -14.0 -2.55 -18.8 -0.95 -23.05 -3.7 L-23.9 -3.1 -24.25 -3.65 Q-30.65 -14.3 -35.7 -25.9 -24.0 -18.1 -10.3 -14.95 -10.5 -31.05 -4.5 -45.7 3.2 -31.35 14.35 -19.8 16.4 -34.95 28.8 -43.75 28.95 -30.45 32.7 -18.05 L33.2 -18.0 52.05 -33.25 Q58.05 -18.05 45.7 -8.05 63.55 -0.15 78.0 -10.5 77.9 -7.35 77.4 -4.3 74.85 11.0 61.15 14.2 M1.65 -19.25 L2.1 -19.25 4.75 -11.6 4.1 -10.5 5.25 -3.55 5.8 -4.85 6.65 -4.9 7.75 -1.25 9.25 -2.9 10.3 -2.45 10.75 -1.0 14.75 -6.75 15.15 -6.35 9.75 0.9 9.35 -1.5 8.15 1.1 6.4 -1.45 5.5 1.25 2.25 -15.5 2.75 -9.15 2.8 -9.9 2.85 0.0 1.65 -19.25 M-10.0 3.15 L-10.1 3.95 -10.5 4.45 -10.2 5.3 -11.1 5.5 -15.8 3.6 -14.25 2.95 -14.05 2.5 -12.25 3.0 -12.5 2.25 -11.4 2.5 -12.05 1.4 -11.1 1.7 -10.0 3.15 M-7.1 1.1 Q-6.85 1.35 -6.85 1.7 -6.85 2.05 -7.1 2.3 L-7.75 2.55 -8.35 2.3 -8.65 1.7 -8.35 1.1 Q-8.1 0.85 -7.75 0.85 -7.4 0.85 -7.1 1.1 M57.2 20.1 L63.75 21.95 68.0 24.75 57.2 20.1 M61.25 28.65 L61.5 26.25 59.75 24.3 61.5 22.25 67.8 25.05 64.25 24.4 65.4 25.85 65.0 26.0 61.85 25.1 62.85 27.4 61.65 27.25 61.25 28.65 M59.9 39.05 L60.1 39.55 59.9 40.05 59.35 40.25 Q59.05 40.25 58.85 40.05 L58.6 39.55 58.85 39.05 59.35 38.85 59.9 39.05 M50.0 4.5 L40.95 4.45 41.0 3.65 38.0 2.85 46.35 1.9 50.9 3.35 50.0 4.5 M53.5 11.2 L58.45 9.0 52.65 14.6 49.35 14.5 53.5 11.2 M35.6 -9.4 L36.1 -8.25 30.75 -5.0 35.6 -9.4 M24.15 -1.1 L23.85 -1.85 25.6 -14.25 25.6 -5.05 27.5 -7.0 27.5 -3.75 29.25 -5.4 29.55 -5.05 28.6 -2.5 26.5 -1.9 26.65 -4.8 24.15 -1.1" fill="#fbee95" fill-rule="evenodd" stroke="none"/>
    <path d="M24.05 -41.85 L29.1 -46.85 Q29.4 -47.15 29.85 -47.15 L30.55 -46.85 30.8 -46.15 Q30.7 -36.65 32.5 -27.55 32.95 -25.1 33.55 -22.6 38.95 -24.75 43.5 -28.25 48.05 -31.75 51.75 -35.9 52.0 -36.2 52.35 -36.25 L53.05 -36.1 53.45 -35.55 Q56.45 -26.45 54.3 -17.2 53.25 -12.85 50.6 -9.2 57.75 -6.5 65.35 -7.35 72.6 -8.25 78.1 -13.25 L78.75 -13.5 79.4 -13.25 79.75 -12.65 Q80.8 -6.2 78.6 0.05 74.95 10.7 65.2 15.7 66.65 18.0 68.55 20.1 69.7 21.4 71.3 22.4 L71.35 22.45 Q73.3 23.9 75.7 24.45 76.05 24.5 76.3 24.85 L76.45 25.5 76.15 26.15 71.5 29.8 66.4 32.55 66.45 32.5 63.7 33.7 Q63.5 39.45 67.4 44.35 L67.4 45.05 66.9 45.55 Q63.35 47.2 59.4 47.25 L53.45 47.15 54.3 39.75 Q55.55 27.2 50.45 23.25 48.2 22.15 49.15 21.25 46.0 20.15 46.4 18.4 L39.8 17.9 38.5 16.25 Q37.4 14.8 37.55 14.0 L37.8 12.9 38.05 12.35 40.7 9.35 37.15 10.55 36.65 10.6 Q33.55 10.05 32.25 8.7 30.7 7.2 31.15 4.8 L31.15 4.65 31.85 2.4 29.75 4.1 29.2 4.3 Q19.65 5.05 19.1 3.65 L19.0 3.5 17.7 -0.1 15.05 3.85 14.75 4.15 Q8.75 7.8 2.0 5.45 L1.6 5.2 -1.55 2.05 -1.55 5.2 -1.85 6.8 Q-2.2 7.95 -8.15 10.15 -14.15 12.3 -17.85 8.25 L-21.4 4.35 -21.45 4.35 Q-22.65 8.05 -24.95 11.1 -27.6 8.8 -29.5 5.95 -31.05 3.55 -31.2 0.6 L-29.85 0.6 -27.1 1.1 -25.0 1.5 -25.05 0.7 Q-25.1 -0.1 -24.65 -0.55 -30.95 -10.5 -35.8 -21.15 L-35.8 -21.2 -39.2 -28.95 -39.25 -29.6 -38.85 -30.15 -38.25 -30.35 -37.6 -30.1 Q-32.9 -25.8 -27.0 -23.1 -20.65 -20.2 -13.65 -19.85 -11.95 -32.85 -6.95 -45.0 L-5.4 -48.65 -4.85 -49.15 Q-4.45 -49.35 -4.1 -49.15 L-3.55 -48.6 Q1.15 -36.55 10.2 -27.4 L11.95 -25.75 Q17.0 -34.55 24.05 -41.85 M61.15 14.2 Q74.85 11.0 77.4 -4.3 77.9 -7.35 78.0 -10.5 63.55 -0.15 45.7 -8.05 58.05 -18.05 52.05 -33.25 L33.2 -18.0 32.7 -18.05 Q28.95 -30.45 28.8 -43.75 16.4 -34.95 14.35 -19.8 3.2 -31.35 -4.5 -45.7 -10.5 -31.05 -10.3 -14.95 -24.0 -18.1 -35.7 -25.9 -30.65 -14.3 -24.25 -3.65 L-22.6 -1.0 -21.75 0.35 -20.75 1.85 -20.3 2.55 -20.15 2.7 Q-10.45 16.8 -3.55 4.3 -1.55 0.95 -2.85 -3.05 -1.15 0.55 2.85 3.65 8.85 8.0 13.5 2.6 19.85 -2.05 20.85 -8.5 L20.85 2.7 Q21.6 6.15 28.75 2.35 L34.65 -0.65 34.6 -0.65 34.65 -0.65 33.05 5.25 Q32.75 6.6 33.0 8.3 33.25 10.0 36.7 8.6 L46.25 8.6 46.35 8.7 50.1 8.7 40.0 13.15 Q59.55 20.25 54.65 45.2 L59.35 45.25 Q62.4 45.2 65.2 44.1 L59.25 31.75 Q61.35 33.1 61.55 32.75 L62.1 32.25 65.6 30.7 Q68.05 29.6 70.45 28.1 L70.4 28.15 73.45 25.85 Q71.7 25.15 70.2 24.05 L70.2 24.1 Q68.4 22.9 67.05 21.45 64.7 18.8 62.9 15.75 L61.5 14.5 61.15 14.2 M-23.7 0.95 L-24.05 2.65 -27.7 2.75 Q-29.2 2.5 -30.25 1.65 L-30.35 1.7 Q-28.3 6.35 -25.05 10.45 L-24.25 8.15 -23.5 6.25 Q-22.8 4.7 -21.7 4.0 L-21.75 3.9 -23.7 0.95" fill="#c28127" fill-rule="evenodd" stroke="none"/>
    <path d="M1.65 -19.25 L2.85 0.0 2.8 -9.9 2.75 -9.15 2.25 -15.5 5.5 1.25 6.4 -1.45 8.15 1.1 9.35 -1.5 9.75 0.9 15.15 -6.35 14.75 -6.75 10.75 -1.0 10.3 -2.45 9.25 -2.9 7.75 -1.25 6.65 -4.9 5.8 -4.85 5.25 -3.55 4.1 -10.5 4.75 -11.6 2.1 -19.25 1.65 -19.25 M-24.25 -3.65 L-23.9 -3.1 -23.05 -3.7 Q-18.8 -0.95 -14.0 -2.55 -1.1 -1.45 -1.9 -16.55 L-2.5 -31.25 Q3.1 -19.1 13.9 -12.0 L14.8 -8.95 Q22.2 -10.95 22.6 -21.2 22.75 -25.4 24.25 -29.5 23.9 -19.1 31.85 -12.4 33.05 -12.5 33.9 -12.9 L34.55 -13.4 35.15 -14.0 36.25 -13.0 Q39.65 -17.45 45.2 -18.2 L39.75 -7.5 40.0 -6.2 41.1 -5.6 41.7 -5.5 42.65 -5.75 45.05 -2.65 Q46.55 -0.9 48.85 -1.65 49.65 -0.55 50.7 0.0 52.2 0.85 53.9 1.05 54.75 0.9 55.35 0.3 62.1 3.45 69.1 0.75 63.9 7.05 59.75 14.15 L60.5 14.9 61.15 14.2 61.5 14.5 62.9 15.75 Q64.7 18.8 67.05 21.45 68.4 22.9 70.2 24.1 L70.2 24.05 Q71.7 25.15 73.45 25.85 L70.4 28.15 70.45 28.1 Q68.05 29.6 65.6 30.7 L62.1 32.25 61.55 32.75 Q61.35 33.1 59.25 31.75 L65.2 44.1 Q62.4 45.2 59.35 45.25 L54.65 45.2 Q59.55 20.25 40.0 13.15 L50.1 8.7 46.35 8.7 46.25 8.6 36.7 8.6 Q33.25 10.0 33.0 8.3 32.75 6.6 33.05 5.25 L34.65 -0.65 34.6 -0.65 34.65 -0.65 28.75 2.35 Q21.6 6.15 20.85 2.7 L20.85 -8.5 Q19.85 -2.05 13.5 2.6 8.85 8.0 2.85 3.65 -1.15 0.55 -2.85 -3.05 -1.55 0.95 -3.55 4.3 -10.45 16.8 -20.15 2.7 L-20.3 2.55 -20.75 1.85 -21.75 0.35 -22.6 -1.0 -24.25 -3.65 M24.15 -1.1 L26.65 -4.8 26.5 -1.9 28.6 -2.5 29.55 -5.05 29.25 -5.4 27.5 -3.75 27.5 -7.0 25.6 -5.05 25.6 -14.25 23.85 -1.85 24.15 -1.1 M35.6 -9.4 L30.75 -5.0 36.1 -8.25 35.6 -9.4 M53.5 11.2 L49.35 14.5 52.65 14.6 58.45 9.0 53.5 11.2 M50.0 4.5 L50.9 3.35 46.35 1.9 38.0 2.85 41.0 3.65 40.95 4.45 50.0 4.5 M59.9 39.05 L59.35 38.85 58.85 39.05 58.6 39.55 58.85 40.05 Q59.05 40.25 59.35 40.25 L59.9 40.05 60.1 39.55 59.9 39.05 M61.25 28.65 L61.65 27.25 62.85 27.4 61.85 25.1 65.0 26.0 65.4 25.85 64.25 24.4 67.8 25.05 61.5 22.25 59.75 24.3 61.5 26.25 61.25 28.65 M57.2 20.1 L68.0 24.75 63.75 21.95 57.2 20.1 M-7.1 1.1 Q-7.4 0.85 -7.75 0.85 -8.1 0.85 -8.35 1.1 L-8.65 1.7 -8.35 2.3 -7.75 2.55 -7.1 2.3 Q-6.85 2.05 -6.85 1.7 -6.85 1.35 -7.1 1.1 M-10.0 3.15 L-11.1 1.7 -12.05 1.4 -11.4 2.5 -12.5 2.25 -12.25 3.0 -14.05 2.5 -14.25 2.95 -15.8 3.6 -11.1 5.5 -10.2 5.3 -10.5 4.45 -10.1 3.95 -10.0 3.15 M-23.7 0.95 L-21.75 3.9 -21.7 4.0 Q-22.8 4.7 -23.5 6.25 L-24.25 8.15 -25.05 10.45 Q-28.3 6.35 -30.35 1.7 L-30.25 1.65 Q-29.2 2.5 -27.7 2.75 L-24.05 2.65 -23.7 0.95" fill="#f4d371" fill-rule="evenodd" stroke="none"/>
  </g>
</svg>
