<?xml version="1.0" encoding="UTF-8" standalone="no"?>
<svg xmlns:ffdec="https://www.free-decompiler.com/flash" xmlns:xlink="http://www.w3.org/1999/xlink" ffdec:objectType="shape" height="86.95px" width="86.95px" xmlns="http://www.w3.org/2000/svg">
  <g transform="matrix(1.0, 0.0, 0.0, 1.0, 30.9, 68.9)">
    <path d="M-0.5 15.1 L7.7 15.9 Q24.2 15.85 35.85 4.2 47.5 -7.45 47.5 -23.9 47.5 -40.4 35.85 -52.1 24.2 -63.75 7.7 -63.75 -5.35 -63.75 -15.4 -56.4 L-17.45 -55.35 -17.5 -55.5 Q-5.05 -67.9 12.55 -67.9 30.15 -67.9 42.55 -55.5 55.0 -43.05 55.05 -25.45 55.0 -7.85 42.55 4.55 30.15 17.0 12.55 17.05 5.65 17.0 -0.5 15.1" fill="#db9c64" fill-rule="evenodd" stroke="none"/>
    <path d="M-15.4 -56.4 Q-5.35 -63.75 7.7 -63.75 24.2 -63.75 35.85 -52.1 47.5 -40.4 47.5 -23.9 47.5 -7.45 35.85 4.2 24.2 15.85 7.7 15.9 L-0.5 15.1 Q-3.85 14.0 -6.95 12.4 L1.2 13.2 Q16.7 13.2 27.65 2.45 38.6 -8.25 38.6 -23.45 38.6 -38.65 27.65 -49.4 16.7 -60.1 1.2 -60.1 -7.9 -60.1 -15.4 -56.4" fill="#f1ba87" fill-rule="evenodd" stroke="none"/>
    <path d="M-17.45 -55.35 L-15.4 -56.4 Q-7.9 -60.1 1.2 -60.1 16.7 -60.1 27.65 -49.4 38.6 -38.65 38.6 -23.45 38.6 -8.25 27.65 2.45 16.7 13.2 1.2 13.2 L-6.95 12.4 Q-12.65 9.4 -17.5 4.55 -29.95 -7.85 -29.9 -25.45 -29.95 -40.25 -21.1 -51.45 L-17.9 -55.1 -17.45 -55.35" fill="#ffcc99" fill-rule="evenodd" stroke="none"/>
    <path d="M-17.5 -55.5 L-17.45 -55.35 -17.9 -55.1 -17.5 -55.5" fill="#edcda3" fill-rule="evenodd" stroke="none"/>
    <path d="M-0.5 15.1 Q5.65 17.0 12.55 17.05 30.15 17.0 42.55 4.55 55.0 -7.85 55.05 -25.45 55.0 -43.05 42.55 -55.5 30.15 -67.9 12.55 -67.9 -5.05 -67.9 -17.5 -55.5 L-17.9 -55.1 -21.1 -51.45 Q-29.95 -40.25 -29.9 -25.45 -29.95 -7.85 -17.5 4.55 -12.65 9.4 -6.95 12.4 -3.85 14.0 -0.5 15.1" fill="none" stroke="#5c4730" stroke-linecap="round" stroke-linejoin="round" stroke-width="2.0"/>
    <path d="M-17.9 -55.1 L-17.45 -55.35" fill="none" stroke="#5c4730" stroke-linecap="round" stroke-linejoin="round" stroke-width="2.0"/>
  </g>
</svg>
