<?xml version="1.0" encoding="UTF-8" standalone="no"?>
<svg xmlns:ffdec="https://www.free-decompiler.com/flash" xmlns:xlink="http://www.w3.org/1999/xlink" ffdec:objectType="shape" height="53.0px" width="39.5px" xmlns="http://www.w3.org/2000/svg">
  <g transform="matrix(1.0, 0.0, 0.0, 1.0, 19.2, 25.8)">
    <path d="M4.2 -16.95 L4.45 -17.05 5.05 -17.2 Q9.05 -18.15 13.0 -14.5 L13.0 -14.55 14.0 -13.2 14.05 -13.05 20.2 -1.8 20.3 -1.25 20.3 -1.1 Q20.45 8.85 11.9 12.6 L11.3 12.65 8.05 11.95 7.1 25.4 5.5 25.4 4.25 4.85 4.0 0.65 4.4 0.65 4.45 0.6 4.55 0.45 5.0 -0.15 6.7 -2.45 Q4.7 -8.4 4.3 -14.75 L4.4 -14.75 5.35 -14.9 5.4 -14.9 Q8.25 -15.1 11.05 -12.5 12.1 -11.6 12.15 -9.9 L12.15 -9.85 12.1 -9.15 12.1 -9.2 11.85 -7.85 11.65 -7.3 11.65 -7.25 Q10.75 -4.7 8.15 -1.05 L7.5 -0.15 7.35 0.05 8.0 0.05 8.5 -0.75 Q10.65 -4.25 11.7 -6.85 L11.75 -7.0 11.75 -7.05 11.8 -7.15 11.8 -7.2 11.85 -7.3 12.05 -7.85 12.05 -7.9 12.1 -8.0 12.45 -9.5 12.45 -9.55 12.5 -9.95 Q12.6 -11.25 12.25 -12.2 L12.2 -12.3 11.65 -13.05 Q8.5 -15.9 5.4 -15.2 L5.25 -15.2 5.2 -15.2 4.5 -14.95 4.4 -14.9 4.3 -14.9 4.2 -16.65 4.2 -16.95 M-3.15 1.3 Q-4.25 5.5 -5.5 17.6 L-6.5 26.05 -6.55 26.4 Q-6.85 29.8 -7.25 18.7 -7.7 7.6 -7.95 7.3 L-10.2 4.7 -14.3 13.25 -19.2 13.25 -12.8 -1.5 -12.45 -2.4 -12.45 -2.35 Q-11.05 -5.9 -7.5 -9.2 L-7.5 -9.25 -6.7 -9.95 -6.45 -10.15 -6.4 -10.15 -6.45 -10.05 -6.4 -10.15 -6.35 -10.2 Q-4.4 -5.4 -3.45 -0.35 L-3.15 1.3 M14.25 -8.55 L14.1 -7.85 14.0 -7.35 13.95 -7.2 13.7 -6.6 13.75 -6.8 13.7 -6.7 13.7 -6.6 13.7 -6.5 13.65 -6.35 Q12.4 -3.15 9.6 1.25 L12.15 10.25 Q18.45 6.9 18.3 -1.05 L18.3 -1.1 14.25 -8.55 M6.6 2.05 L8.85 10.05 10.1 10.35 7.75 2.05 6.6 2.05 M-10.4 -2.1 L-10.15 -2.1 -8.6 -5.1 -10.4 -2.1 M-9.95 -0.1 L-11.2 -0.1 -16.15 11.25 -15.55 11.25 -10.7 1.1 -6.1 6.25 -6.15 6.0 -9.95 -0.1 M-6.05 6.65 Q-6.3 6.65 -6.15 7.15 L-6.0 7.8 -5.85 8.65 -6.05 6.65" fill="#16424b" fill-rule="evenodd" stroke="none"/>
    <path d="M14.25 -8.55 L18.3 -1.1 18.3 -1.05 Q18.45 6.9 12.15 10.25 L9.6 1.25 Q12.4 -3.15 13.65 -6.35 L13.7 -6.5 13.7 -6.6 13.7 -6.7 13.75 -6.8 13.7 -6.6 13.95 -7.2 14.0 -7.35 14.1 -7.85 14.25 -8.55" fill="#8eaea0" fill-rule="evenodd" stroke="none"/>
    <path d="M11.8 -7.2 L11.8 -7.15 11.75 -7.05 11.75 -7.0 11.7 -6.85 Q10.65 -4.25 8.5 -0.75 L8.0 0.05 7.35 0.05 7.5 -0.15 8.15 -1.05 Q10.75 -4.7 11.65 -7.25 L11.8 -7.2 M6.6 2.05 L7.75 2.05 10.1 10.35 8.85 10.05 6.6 2.05 M-9.95 -0.1 L-6.15 6.0 -6.1 6.25 -10.7 1.1 -15.55 11.25 -16.15 11.25 -11.2 -0.1 -9.95 -0.1 M-6.05 6.65 L-5.85 8.65 -6.0 7.8 -6.15 7.15 Q-6.3 6.65 -6.05 6.65" fill="#aec6bb" fill-rule="evenodd" stroke="none"/>
    <path d="M4.3 -14.9 L4.4 -14.9 4.5 -14.95 5.2 -15.2 5.25 -15.2 5.4 -15.2 Q8.5 -15.9 11.65 -13.05 L12.2 -12.3 12.25 -12.2 Q12.6 -11.25 12.5 -9.95 L12.45 -9.55 12.45 -9.5 12.1 -8.0 12.05 -7.9 12.05 -7.85 11.85 -7.3 11.8 -7.2 11.65 -7.25 11.65 -7.3 11.85 -7.85 12.1 -9.2 12.1 -9.15 12.15 -9.85 12.15 -9.9 Q12.1 -11.6 11.05 -12.5 8.25 -15.1 5.4 -14.9 L5.35 -14.9 4.4 -14.75 4.3 -14.75 4.3 -14.9 M-10.4 -2.1 L-8.6 -5.1 -10.15 -2.1 -10.4 -2.1" fill="#739b89" fill-rule="evenodd" stroke="none"/>
    <path d="M-4.7 -11.65 L-4.9 -12.05 -5.05 -12.35 -5.2 -12.65 -10.1 -21.55 -2.95 -23.6 Q-0.25 -24.3 1.55 -22.35 L2.55 -20.95 2.25 -19.7 2.2 -19.35 2.2 -16.55 2.25 -16.15 2.45 -13.05 1.25 -12.65 Q-0.85 -11.75 -4.6 -11.65 L-4.7 -11.65" fill="#db9c64" fill-rule="evenodd" stroke="none"/>
    <path d="M4.2 -16.95 L4.2 -16.65 4.3 -14.9 4.3 -14.75 Q4.7 -8.4 6.7 -2.45 L5.0 -0.15 4.15 -4.1 2.45 -13.05 2.25 -16.15 2.2 -16.55 2.2 -19.35 2.25 -19.7 2.55 -20.95 1.55 -22.35 Q-0.25 -24.3 -2.95 -23.6 L-10.1 -21.55 -5.2 -12.65 -5.05 -12.35 -4.9 -12.05 -4.7 -11.65 -4.7 -11.6 Q-3.05 -5.8 -2.45 -1.4 L-2.3 -0.35 -2.2 0.55 -2.05 2.6 -1.95 5.15 -2.2 5.0 -2.6 4.75 -3.4 4.35 -2.9 3.35 -3.15 1.3 -3.45 -0.35 Q-4.4 -5.4 -6.35 -10.2 -7.5 -12.95 -9.0 -15.6 L-12.45 -21.65 -12.55 -22.2 -12.35 -22.8 -11.9 -23.1 -3.45 -25.5 Q0.45 -26.55 3.0 -23.65 L4.5 -21.6 4.55 -20.9 4.15 -19.3 4.15 -19.25 4.2 -16.95 M-2.85 3.9 L-2.85 3.85 -2.85 3.9" fill="#5c4730" fill-rule="evenodd" stroke="none"/>
    <path d="M5.0 -0.15 L4.55 0.45 4.45 0.6 4.4 0.65 4.0 0.65 4.25 4.85 Q0.75 6.2 -0.8 5.5 L-1.0 5.0 -1.05 5.35 -0.9 5.5 -0.95 5.45 -1.1 5.4 -1.1 5.55 -1.15 5.7 -1.3 5.5 -1.45 5.4 -1.95 5.15 -2.05 2.6 -2.2 0.55 -2.3 -0.35 -2.45 -1.4 Q-3.05 -5.8 -4.7 -11.6 L-4.7 -11.65 -4.6 -11.65 Q-0.85 -11.75 1.25 -12.65 L2.45 -13.05 4.15 -4.1 5.0 -0.15" fill="#f1ba87" fill-rule="evenodd" stroke="none"/>
    <path d="M-1.15 5.7 L-1.3 5.8 -1.3 5.5 -1.15 5.7" fill="#ffcc99" fill-rule="evenodd" stroke="none"/>
  </g>
</svg>
