<?xml version="1.0" encoding="UTF-8" standalone="no"?>
<svg xmlns:ffdec="https://www.free-decompiler.com/flash" xmlns:xlink="http://www.w3.org/1999/xlink" ffdec:objectType="shape" height="12.75px" width="30.1px" xmlns="http://www.w3.org/2000/svg">
  <g transform="matrix(1.0, 0.0, 0.0, 1.0, 14.2, 10.7)">
    <path d="M2.5 -3.95 Q7.1 -7.55 8.1 -8.8 9.0 -10.1 9.8 -10.55 L15.85 -10.0 Q16.1 -8.9 14.15 -8.75 10.95 -8.5 10.4 -8.8 L10.4 -8.75 8.2 -5.7 Q6.25 -3.1 1.25 -0.85 -2.5 0.8 -7.8 1.9 L-13.9 2.05 -14.2 1.6 Q-12.65 1.4 -9.0 0.4 L-9.0 0.45 Q-0.45 -1.7 2.5 -3.95" fill="#463624" fill-rule="evenodd" stroke="none"/>
    <path d="M10.5 -8.45 L10.5 -8.5 10.5 -8.45" fill="#ff0000" fill-rule="evenodd" stroke="none"/>
  </g>
</svg>
