<?xml version="1.0" encoding="UTF-8" standalone="no"?>
<svg xmlns:ffdec="https://www.free-decompiler.com/flash" xmlns:xlink="http://www.w3.org/1999/xlink" ffdec:objectType="shape" height="30.85px" width="41.2px" xmlns="http://www.w3.org/2000/svg">
  <g transform="matrix(1.0, 0.0, 0.0, 1.0, 20.55, 20.1)">
    <path d="M-12.95 -2.3 L-11.1 -0.45 -10.9 -0.45 Q-8.95 0.4 -4.05 0.4 0.5 0.4 6.1 -1.25 9.5 -2.3 12.25 -4.1 13.5 -4.95 16.35 -7.7 17.65 -8.55 18.6 -9.95 L18.2 -15.45 18.1 -16.25 Q11.1 -4.85 -2.5 -2.5 L-2.55 -2.5 Q-7.85 -1.65 -12.95 -2.35 L-14.3 -2.55 -18.1 -3.4 Q-16.75 -1.85 -15.7 -0.05 L-15.65 -0.05 Q-11.45 7.2 -4.3 8.45 L-4.3 8.4 Q4.45 9.7 11.0 5.85 L12.0 5.25 11.75 5.4 11.7 5.1 11.7 3.85 Q11.55 -3.45 18.05 -3.45 L18.5 -3.4 18.65 -8.25 Q17.2 -6.15 13.7 -3.7 6.25 1.55 -4.4 1.55 -8.4 1.55 -10.5 0.7 L-11.0 0.85 Q-11.5 0.85 -16.1 -2.9 L-14.3 -2.5 -12.95 -2.3 M17.6 -19.45 Q17.8 -19.8 18.2 -19.95 L18.55 -20.0 18.6 -20.0 18.75 -20.1 20.2 -13.35 Q21.05 -8.15 20.25 -0.65 L20.0 -0.05 19.8 0.35 Q10.75 12.65 -4.6 10.4 -12.65 9.1 -17.4 0.95 -19.45 -3.7 -20.55 -5.55 L-20.15 -5.9 -19.4 -5.95 Q-11.4 -3.15 -2.85 -4.45 11.1 -6.85 17.6 -19.45 M18.35 -1.8 L18.4 -2.3 Q15.1 -2.45 14.1 -1.15 L13.3 1.4 Q12.9 2.25 12.65 4.8 15.7 2.55 18.2 -0.85 L18.25 -0.9 18.35 -1.8" fill="#463624" fill-rule="evenodd" stroke="none"/>
    <path d="M-12.95 -2.35 Q-7.85 -1.65 -2.55 -2.5 L-2.5 -2.5 Q11.1 -4.85 18.1 -16.25 L18.2 -15.45 18.6 -9.95 Q17.65 -8.55 16.35 -7.7 13.5 -4.95 12.25 -4.1 9.5 -2.3 6.1 -1.25 0.5 0.4 -4.05 0.4 -8.95 0.4 -10.9 -0.45 L-11.1 -0.45 -12.95 -2.3 -12.95 -2.35" fill="#e5e5e5" fill-rule="evenodd" stroke="none"/>
    <path d="M-12.95 -2.3 L-14.3 -2.5 -16.1 -2.9 Q-11.5 0.85 -11.0 0.85 L-10.5 0.7 Q-8.4 1.55 -4.4 1.55 6.25 1.55 13.7 -3.7 17.2 -6.15 18.65 -8.25 L18.5 -3.4 18.05 -3.45 Q11.55 -3.45 11.7 3.85 L11.7 5.1 11.75 5.4 12.0 5.25 11.0 5.85 Q4.45 9.7 -4.3 8.4 L-4.3 8.45 Q-11.45 7.2 -15.65 -0.05 L-15.7 -0.05 Q-16.75 -1.85 -18.1 -3.4 L-14.3 -2.55 -12.95 -2.35 -12.95 -2.3" fill="#57352d" fill-rule="evenodd" stroke="none"/>
    <path d="M18.35 -1.8 L18.25 -0.9 18.2 -0.85 Q15.7 2.55 12.65 4.8 12.9 2.25 13.3 1.4 L14.1 -1.15 Q15.1 -2.45 18.4 -2.3 L18.35 -1.8" fill="#b45f50" fill-rule="evenodd" stroke="none"/>
  </g>
</svg>
