<?xml version="1.0" encoding="UTF-8" standalone="no"?>
<svg xmlns:ffdec="https://www.free-decompiler.com/flash" xmlns:xlink="http://www.w3.org/1999/xlink" ffdec:objectType="shape" height="30.85px" width="41.2px" xmlns="http://www.w3.org/2000/svg">
  <g transform="matrix(1.0, 0.0, 0.0, 1.0, 20.55, 20.1)">
    <path d="M-20.55 -5.55 L-20.15 -5.9 -19.4 -5.95 Q-11.4 -3.15 -2.85 -4.45 11.1 -6.85 17.6 -19.45 17.8 -19.8 18.2 -19.95 L18.55 -20.0 18.6 -20.0 18.75 -20.1 20.2 -13.35 Q21.05 -8.15 20.25 -0.65 L20.0 -0.05 19.8 0.35 Q10.75 12.65 -4.6 10.4 -12.65 9.1 -17.4 0.95 -19.45 -3.7 -20.55 -5.55 M18.6 -10.05 L18.2 -15.45 18.1 -16.25 Q11.1 -4.85 -2.5 -2.5 L-2.55 -2.5 Q-7.8 -1.65 -12.85 -2.35 L-13.6 -2.5 -13.9 -2.45 -14.3 -2.55 -18.1 -3.4 -16.95 -2.0 -16.4 -1.15 -15.7 -0.05 -15.65 -0.05 -15.6 0.05 -14.9 1.2 -14.9 1.15 -14.7 1.1 -10.65 3.8 -7.9 3.1 -7.5 3.0 -5.4 2.55 -5.25 2.5 -4.35 2.5 -4.25 2.75 -4.3 3.0 -4.35 3.0 Q-6.05 3.35 -9.3 4.55 L-9.8 6.05 -9.8 6.15 -9.85 6.3 -7.7 7.45 Q-6.1 8.1 -4.3 8.45 L-4.3 8.4 Q4.45 9.7 11.0 5.85 L11.45 5.6 11.75 5.4 15.55 2.2 16.15 1.6 18.2 -0.85 18.25 -0.9 18.25 -0.95 18.5 -0.95 18.55 -1.75 Q17.6 -2.55 17.05 -2.55 14.8 -2.55 13.05 -1.75 L13.0 -1.7 12.95 -1.7 12.4 -1.35 11.35 -0.8 11.3 -0.8 11.2 -0.8 10.7 -0.8 Q10.6 -0.75 10.6 -1.0 10.6 -1.4 12.0 -2.05 L12.45 -2.25 12.5 -2.25 13.0 -2.45 13.95 -2.8 14.05 -2.85 14.2 -2.9 Q17.15 -3.9 17.35 -4.15 18.1 -5.25 18.65 -6.9 L18.65 -6.15 18.7 -6.95 18.7 -7.0 18.65 -9.15 18.55 -9.85 18.6 -9.95 18.6 -10.05 M11.45 5.6 L10.75 6.15 11.45 5.6 M-10.0 6.2 L-10.85 5.6 -10.9 5.15 Q-10.9 4.9 -12.7 3.7 L-13.3 3.3 -13.15 3.5 -11.45 5.1 -10.0 6.2" fill="#463624" fill-rule="evenodd" stroke="none"/>
    <path d="M-14.9 1.2 L-15.6 0.05 -15.65 -0.05 -15.7 -0.05 -16.4 -1.15 -16.95 -2.0 -18.1 -3.4 -14.3 -2.55 -13.9 -2.45 -13.6 -2.5 -12.85 -2.35 Q-7.8 -1.65 -2.55 -2.5 L-2.5 -2.5 Q11.1 -4.85 18.1 -16.25 L18.2 -15.45 18.6 -10.05 18.55 -10.0 18.45 -9.85 18.55 -9.85 18.65 -9.15 18.7 -7.0 18.7 -6.95 18.65 -6.9 Q18.1 -5.25 17.35 -4.15 17.15 -3.9 14.2 -2.9 L14.05 -2.85 13.95 -2.8 13.0 -2.45 12.5 -2.25 12.45 -2.25 12.25 -2.25 12.0 -2.05 Q10.6 -1.4 10.6 -1.0 10.6 -0.75 10.7 -0.8 L11.2 -0.8 11.3 -0.8 11.35 -0.8 12.4 -1.35 12.95 -1.7 13.0 -1.7 13.05 -1.7 13.05 -1.75 Q14.8 -2.55 17.05 -2.55 17.6 -2.55 18.55 -1.75 L18.5 -0.95 18.25 -0.95 18.25 -0.9 18.2 -0.85 16.15 1.6 15.55 2.2 Q15.35 -1.05 12.75 -1.05 L10.3 -0.35 10.05 -0.4 9.95 -0.7 Q9.95 -1.4 14.0 -4.45 L14.95 -6.05 11.75 -4.2 Q7.0 -2.15 5.2 -1.7 -1.15 -0.2 -4.9 -0.2 L-13.4 -0.95 -16.15 -1.75 Q-12.6 2.55 -7.3 2.55 L-3.0 2.3 -0.45 2.4 Q-0.35 2.45 -0.4 2.65 -1.55 3.4 -5.2 4.95 -6.6 5.85 -7.1 7.65 L-7.7 7.45 -9.85 6.3 -9.8 6.15 -9.8 6.1 -9.8 6.05 -9.3 4.55 Q-6.05 3.35 -4.35 3.0 L-4.3 3.0 -4.25 2.75 -4.35 2.5 -5.25 2.5 -5.4 2.55 -7.5 3.0 -7.9 3.1 -10.65 3.8 -14.7 1.1 -14.9 1.15 -14.9 1.2" fill="#e5e5e5" fill-rule="evenodd" stroke="none"/>
    <path d="M18.6 -10.05 L18.6 -9.95 18.55 -9.85 18.45 -9.85 18.55 -10.0 18.6 -10.05 M12.45 -2.25 L12.0 -2.05 12.25 -2.25 12.45 -2.25 M13.0 -1.7 L13.05 -1.75 13.05 -1.7 13.0 -1.7 M15.55 2.2 L11.75 5.4 11.45 5.6 11.0 5.85 Q4.45 9.7 -4.3 8.4 L-4.3 8.45 Q-6.1 8.1 -7.7 7.45 L-7.1 7.65 Q-6.6 5.85 -5.2 4.95 -1.55 3.4 -0.4 2.65 -0.35 2.45 -0.45 2.4 L-3.0 2.3 -7.3 2.55 Q-12.6 2.55 -16.15 -1.75 L-13.4 -0.95 -4.9 -0.2 Q-1.15 -0.2 5.2 -1.7 7.0 -2.15 11.75 -4.2 L14.95 -6.05 14.0 -4.45 Q9.95 -1.4 9.95 -0.7 L10.05 -0.4 10.3 -0.35 12.75 -1.05 Q15.35 -1.05 15.55 2.2" fill="#f9f9f9" fill-rule="evenodd" stroke="none"/>
    <path d="M-9.8 6.15 L-9.8 6.05 -9.8 6.1 -9.8 6.15 M-10.0 6.2 L-11.45 5.1 -13.15 3.5 -13.3 3.3 -12.7 3.7 Q-10.9 4.9 -10.9 5.15 L-10.85 5.6 -10.0 6.2" fill="#57352d" fill-rule="evenodd" stroke="none"/>
  </g>
</svg>
