<?xml version="1.0" encoding="UTF-8" standalone="no"?>
<svg xmlns:ffdec="https://www.free-decompiler.com/flash" xmlns:xlink="http://www.w3.org/1999/xlink" ffdec:objectType="shape" height="14.65px" width="27.85px" xmlns="http://www.w3.org/2000/svg">
  <g transform="matrix(1.0, 0.0, 0.0, 1.0, 8.6, 8.5)">
    <path d="M18.5 -5.8 Q19.25 -4.7 19.25 -2.25 19.25 0.2 15.85 2.75 11.35 6.1 3.75 6.1 L-0.85 6.0 -0.9 6.0 -2.1 6.15 Q-9.0 6.15 -8.55 0.55 L-8.45 -0.25 Q-7.8 -3.2 -1.65 -5.8 4.65 -8.5 11.0 -8.5 16.75 -8.5 18.5 -5.8 M-5.25 4.2 L-5.05 4.3 -4.1 4.7 Q7.65 5.85 13.0 2.7 17.35 0.15 17.35 -2.6 17.35 -6.75 9.75 -6.75 1.95 -6.75 -3.3 -3.45 -5.4 -2.15 -7.05 -0.65 L-6.35 0.3 -5.75 1.05 Q-3.95 -0.65 1.75 -0.9 L3.0 -0.65 3.1 -0.5 -1.25 0.85 -4.0 2.45 -4.0 2.5 -4.1 2.7 -5.15 4.0 -5.5 4.1 -5.25 4.2" fill="#463624" fill-rule="evenodd" stroke="none"/>
    <path d="M-5.15 4.0 L-4.1 2.7 -4.0 2.5 -4.0 2.45 -1.25 0.85 3.1 -0.5 3.0 -0.65 1.75 -0.9 Q-3.95 -0.65 -5.75 1.05 L-6.35 0.3 -7.05 -0.65 Q-5.4 -2.15 -3.3 -3.45 1.95 -6.75 9.75 -6.75 17.35 -6.75 17.35 -2.6 17.35 0.15 13.0 2.7 7.65 5.85 -4.1 4.7 L-5.05 4.3 -5.25 4.2 -5.15 4.0" fill="#e5e5e5" fill-rule="evenodd" stroke="none"/>
  </g>
</svg>
