<?xml version="1.0" encoding="UTF-8" standalone="no"?>
<svg xmlns:ffdec="https://www.free-decompiler.com/flash" xmlns:xlink="http://www.w3.org/1999/xlink" ffdec:objectType="shape" height="25.9px" width="35.65px" xmlns="http://www.w3.org/2000/svg">
  <g transform="matrix(1.0, 0.0, 0.0, 1.0, 13.8, 15.8)">
    <path d="M-6.05 -6.05 L-2.3 -8.65 Q5.55 -13.75 11.0 -13.75 16.3 -13.75 18.9 -9.45 L19.95 -7.35 Q19.65 -7.45 19.45 -7.65 18.85 -8.3 16.25 -8.3 L14.75 -8.25 Q-0.25 -2.65 -1.75 -2.65 -2.25 -2.65 -4.15 -4.45 L-6.05 -6.05" fill="#e5e5e5" fill-rule="evenodd" stroke="none"/>
    <path d="M-6.05 -6.05 L-4.15 -4.45 Q-2.25 -2.65 -1.75 -2.65 -0.25 -2.65 14.75 -8.25 L16.25 -8.3 Q18.85 -8.3 19.45 -7.65 19.65 -7.45 19.95 -7.35 L18.9 -9.45 Q16.3 -13.75 11.0 -13.75 5.55 -13.75 -2.3 -8.65 L-6.05 -6.05 -6.55 -5.7 -6.05 -6.05 M20.45 -5.8 L20.35 -5.8 Q19.05 -5.8 18.65 -6.4 18.3 -7.0 16.05 -7.0 12.4 -7.0 5.8 -4.25 -0.75 -1.5 -1.6 -1.5 -3.45 -1.5 -6.9 -5.4 L-7.55 -4.85 -10.4 -2.25 Q-7.95 -0.45 -7.6 2.85 -7.45 4.75 -7.55 8.5 L-1.0 8.75 Q5.45 8.75 10.0 7.65 L10.05 7.65 10.85 7.4 9.95 7.65 9.9 7.4 Q9.9 6.95 10.65 6.55 11.4 6.2 11.4 5.85 L10.0 5.1 Q7.25 7.6 4.75 7.6 0.9 7.6 0.9 4.65 0.9 2.85 2.5 0.6 5.0 -2.85 9.75 -2.85 14.3 -2.85 17.0 -0.5 18.8 1.05 19.0 2.4 21.25 -0.7 20.6 -4.25 L20.45 -5.75 20.35 -6.25 20.45 -5.8 M21.85 -4.4 Q21.85 0.75 19.75 3.5 14.65 10.1 -1.1 10.1 L-8.95 10.05 Q-9.2 10.0 -9.1 9.8 -8.9 9.4 -9.05 9.1 L-8.9 7.75 -8.8 5.25 Q-8.8 -1.25 -11.7 -1.25 L-13.25 -0.4 Q-13.8 -0.6 -13.8 -1.2 2.9 -15.8 12.6 -15.8 17.7 -15.8 20.3 -10.25 21.6 -7.45 21.85 -4.4 M15.7 5.35 L18.15 3.4 Q17.8 3.2 17.6 2.7 L16.75 0.95 Q15.0 -1.6 9.75 -1.6 3.9 -1.6 2.35 3.15 L2.0 4.4 Q2.0 6.25 4.15 6.25 7.2 6.25 9.45 4.15 11.0 2.7 11.6 1.0 L12.0 0.85 12.35 1.2 12.05 2.65 11.3 3.85 11.2 3.95 11.35 3.9 11.7 3.9 12.0 3.95 13.65 4.75 13.75 4.9 13.9 5.2 13.9 5.3 14.0 6.0 13.9 6.3 14.1 6.2 15.7 5.35 M12.6 0.55 L12.6 1.9 12.25 2.65 12.25 2.3 12.35 1.25 12.55 1.2 12.6 0.55" fill="#463624" fill-rule="evenodd" stroke="none"/>
    <path d="M10.0 7.65 Q5.45 8.75 -1.0 8.75 L-7.55 8.5 Q-7.45 4.75 -7.6 2.85 -7.95 -0.45 -10.4 -2.25 L-7.55 -4.85 -6.9 -5.4 Q-3.45 -1.5 -1.6 -1.5 -0.75 -1.5 5.8 -4.25 12.4 -7.0 16.05 -7.0 18.3 -7.0 18.65 -6.4 19.05 -5.8 20.35 -5.8 L20.45 -5.8 20.45 -5.75 20.6 -4.25 Q21.25 -0.7 19.0 2.4 18.8 1.05 17.0 -0.5 14.3 -2.85 9.75 -2.85 5.0 -2.85 2.5 0.6 0.9 2.85 0.9 4.65 0.9 7.6 4.75 7.6 7.25 7.6 10.0 5.1 L11.4 5.85 Q11.4 6.2 10.65 6.55 9.9 6.95 9.9 7.4 L9.95 7.65 10.0 7.65" fill="#57352d" fill-rule="evenodd" stroke="none"/>
    <path d="M2.35 3.15 Q3.9 -1.6 9.75 -1.6 15.0 -1.6 16.75 0.95 L17.6 2.7 Q17.8 3.2 18.15 3.4 L15.7 5.35 15.75 4.75 Q15.25 0.15 12.1 0.15 L10.4 2.35 Q8.7 4.5 5.75 4.5 3.45 4.5 2.35 3.15 M11.7 3.9 L11.35 3.9 11.3 3.85 12.05 2.65 11.7 3.9" fill="#b45f50" fill-rule="evenodd" stroke="none"/>
    <path d="M2.35 3.15 Q3.45 4.5 5.75 4.5 8.7 4.5 10.4 2.35 L12.1 0.15 Q15.25 0.15 15.75 4.75 L15.7 5.35 14.1 6.2 14.0 6.0 13.9 5.3 13.9 5.2 13.75 4.9 13.65 4.75 12.0 3.95 11.7 3.9 12.05 2.65 12.35 1.2 12.0 0.85 11.6 1.0 Q11.0 2.7 9.45 4.15 7.2 6.25 4.15 6.25 2.0 6.25 2.0 4.4 L2.35 3.15 M12.6 0.55 L12.55 1.2 12.35 1.25 12.25 2.3 12.25 2.65 12.6 1.9 12.6 0.55" fill="#a05345" fill-rule="evenodd" stroke="none"/>
  </g>
</svg>
