<?xml version="1.0" encoding="UTF-8" standalone="no"?>
<svg xmlns:ffdec="https://www.free-decompiler.com/flash" xmlns:xlink="http://www.w3.org/1999/xlink" ffdec:objectType="shape" height="7.85px" width="23.45px" xmlns="http://www.w3.org/2000/svg">
  <g transform="matrix(1.0, 0.0, 0.0, 1.0, 11.05, 2.85)">
    <path d="M10.35 4.25 L5.2 3.65 -1.1 3.0 Q-4.25 3.0 -6.85 4.0 -9.45 5.0 -10.1 5.0 L-10.55 4.9 -10.75 4.4 Q-10.75 3.75 -6.95 2.85 L-6.55 2.75 Q-7.5 1.85 -7.5 -0.3 L-10.9 1.0 Q-11.05 1.4 -11.05 0.75 -11.05 0.0 -6.85 -1.0 L-7.3 -0.9 Q-6.8 -1.45 -5.05 -1.7 L-0.65 -2.15 2.4 -2.45 5.25 -2.75 7.0 -2.85 9.75 -2.55 Q12.5 -1.85 12.4 1.5 12.4 4.25 10.35 4.25 M11.5 1.55 Q11.5 0.35 11.05 -0.4 10.35 0.2 8.8 0.2 6.85 0.15 6.25 0.6 5.2 1.3 5.15 2.0 5.1 2.35 4.3 2.35 L4.25 2.4 5.0 2.55 10.9 3.15 Q11.5 3.15 11.5 1.55 M10.3 -1.15 L10.65 -0.9 10.35 -1.15 9.9 -1.4 9.6 -1.35 7.05 -1.6 Q-3.45 -1.6 -6.3 -0.25 -5.75 0.85 -5.75 1.65 L-5.75 2.6 -0.6 1.9 2.9 2.2 Q3.0 1.05 4.75 -0.1 6.7 -1.35 9.25 -1.35 L10.3 -1.15" fill="#463624" fill-rule="evenodd" stroke="none"/>
    <path d="M11.5 1.55 Q11.5 3.15 10.9 3.15 L5.0 2.55 4.25 2.4 4.3 2.35 Q5.1 2.35 5.15 2.0 5.2 1.3 6.25 0.6 6.85 0.15 8.8 0.2 10.35 0.2 11.05 -0.4 11.5 0.35 11.5 1.55" fill="#b45f50" fill-rule="evenodd" stroke="none"/>
    <path d="M10.35 -1.15 L10.3 -1.15 9.25 -1.35 Q6.7 -1.35 4.75 -0.1 3.0 1.05 2.9 2.2 L-0.6 1.9 -5.75 2.6 -5.75 1.65 Q-5.75 0.85 -6.3 -0.25 -3.45 -1.6 7.05 -1.6 L9.6 -1.35 9.9 -1.4 10.35 -1.15" fill="#57352d" fill-rule="evenodd" stroke="none"/>
  </g>
</svg>
