<?xml version="1.0" encoding="UTF-8" standalone="no"?>
<svg xmlns:ffdec="https://www.free-decompiler.com/flash" xmlns:xlink="http://www.w3.org/1999/xlink" ffdec:objectType="shape" height="172.55px" width="88.9px" xmlns="http://www.w3.org/2000/svg">
  <g transform="matrix(1.0, 0.0, 0.0, 1.0, 43.6, 133.9)">
    <path d="M-2.3 15.1 Q14.25 17.15 29.35 10.8 L27.7 14.1 Q16.0 21.05 1.0 19.85 L0.5 19.8 Q15.15 21.8 25.75 17.25 L22.8 20.6 Q14.7 25.5 5.25 24.35 L4.8 24.3 Q13.2 26.05 18.5 24.45 11.55 30.75 -0.35 30.75 -13.85 30.75 -23.35 20.75 -31.95 11.65 -32.8 -0.8 -28.25 0.75 -23.15 1.7 -23.95 10.15 -18.35 19.4 -22.3 10.3 -20.7 2.1 L-6.8 3.1 Q-6.25 8.85 -2.3 15.1" fill="#2e4f63" fill-rule="evenodd" stroke="none"/>
    <path d="M-2.4 0.05 L1.25 9.25 1.45 9.55 1.45 9.6 2.05 9.85 2.25 9.85 Q22.8 10.2 33.7 5.2 L31.45 12.9 31.65 13.25 31.25 13.5 31.2 13.55 Q28.65 20.1 24.55 25.9 15.4 36.65 -0.35 36.65 -16.1 36.65 -26.45 24.9 -34.75 15.45 -36.6 2.85 L-36.45 2.8 -35.85 2.3 Q-34.35 -0.65 -32.95 -3.85 L-26.55 -2.55 -26.55 -2.15 -26.45 -1.9 -26.2 -1.7 Q-21.05 0.15 -14.85 -0.25 L-14.6 -0.35 -14.4 -0.6 -14.35 -0.85 -10.25 -0.55 -10.5 1.25 -9.5 1.35 -8.15 -9.25 -5.65 -8.95 -7.05 1.7 -6.05 1.8 -5.8 -0.15 -2.4 0.05 M-2.3 15.1 Q-6.25 8.85 -6.8 3.1 L-20.7 2.1 Q-22.3 10.3 -18.35 19.4 -23.95 10.15 -23.15 1.7 -28.25 0.75 -32.8 -0.8 -31.95 11.65 -23.35 20.75 -13.85 30.75 -0.35 30.75 11.55 30.75 18.5 24.45 13.2 26.05 4.8 24.3 L5.25 24.35 Q14.7 25.5 22.8 20.6 L25.75 17.25 Q15.15 21.8 0.5 19.8 L1.0 19.85 Q16.0 21.05 27.7 14.1 L29.35 10.8 Q14.25 17.15 -2.3 15.1" fill="#254152" fill-rule="evenodd" stroke="none"/>
    <path d="M-5.65 -9.95 L-4.85 -7.25 -5.55 -1.95 -5.8 -0.15 -6.05 1.8 -7.05 1.7 -5.65 -8.95 -8.15 -9.25 -9.5 1.35 -10.5 1.25 -10.25 -0.55 -10.05 -2.15 -9.4 -7.55 -9.3 -8.35 -9.1 -9.9 -8.9 -10.25 -8.7 -10.35 -8.5 -10.35 -8.4 -10.3 -5.65 -9.95 M33.7 5.2 Q37.0 3.65 39.45 1.65 37.9 15.8 28.0 26.3 16.25 38.65 -0.35 38.65 -17.0 38.65 -28.65 26.3 -39.15 15.2 -40.25 0.1 L-37.45 2.55 -37.2 2.75 -36.6 2.85 Q-34.75 15.45 -26.45 24.9 -16.1 36.65 -0.35 36.65 15.4 36.65 24.55 25.9 28.65 20.1 31.2 13.55 L31.25 13.5 31.65 13.25 31.45 12.9 33.7 5.2" fill="#203846" fill-rule="evenodd" stroke="none"/>
    <path d="M-20.5 -11.6 L-20.45 -14.0 -20.45 -14.1 Q-20.2 -25.5 -19.15 -38.7 L-18.95 -41.15 -16.95 -61.75 Q-14.9 -81.15 -11.45 -103.7 -11.45 -102.9 -10.8 -102.25 L-10.8 -102.3 -10.75 -102.25 -12.05 -94.35 -12.75 -90.0 Q-13.4 -89.4 -13.4 -88.45 -13.45 -87.85 -13.15 -87.35 L-15.2 -71.55 -15.25 -71.5 Q-15.9 -70.9 -15.9 -69.95 -15.95 -69.3 -15.55 -68.7 L-16.75 -58.45 -17.55 -50.7 Q-18.15 -50.15 -18.15 -49.2 -18.2 -48.5 -17.8 -47.95 L-18.35 -41.45 -18.5 -39.1 -19.05 -29.4 Q-19.4 -28.9 -19.4 -28.2 L-19.15 -27.15 -19.45 -14.1 -19.45 -14.05 -19.5 -11.45 -20.5 -11.6 M-11.0 -106.55 L-10.85 -106.8 -10.45 -106.9 -10.15 -106.7 -10.2 -105.85 -10.8 -105.4 -11.3 -104.65 -11.05 -106.45 -11.0 -106.55" fill="#5c2907" fill-rule="evenodd" stroke="none"/>
    <path d="M-29.4 -13.05 Q-27.95 -17.4 -26.6 -22.1 L-26.5 -22.35 -25.85 -24.85 -19.0 -68.35 -17.05 -92.15 -16.75 -96.05 -16.75 -96.2 -16.65 -97.25 -15.0 -116.65 -15.0 -116.85 -14.3 -119.8 Q-13.5 -121.8 -11.9 -123.45 -9.3 -126.15 -5.6 -126.1 -2.3 -126.15 -1.2 -123.95 L-1.2 -123.85 -1.15 -123.85 Q0.0 -121.1 0.1 -117.1 L0.1 -117.05 Q0.1 -112.95 -4.9 -98.6 L-4.9 -98.65 -5.05 -98.1 -6.2 -94.4 Q-10.25 -79.8 -11.1 -52.7 -11.3 -46.9 -10.95 -41.1 L-10.95 -40.7 -7.85 -18.55 -7.55 -17.3 -7.55 -17.2 -7.5 -17.1 -5.75 -10.25 -8.4 -10.3 -8.5 -10.35 -8.7 -10.35 -9.8 -10.4 -13.15 -10.65 -13.3 -10.9 -13.65 -11.05 -19.5 -11.45 -19.45 -14.05 -19.45 -14.1 -19.15 -27.15 -18.75 -26.6 -18.75 -26.65 Q-18.15 -26.0 -17.2 -25.95 L-16.55 -26.05 -17.05 -14.4 Q-14.0 -11.55 -10.1 -13.15 -12.55 -27.5 -12.9 -41.7 L-12.95 -43.8 Q-13.15 -56.45 -11.7 -68.95 -11.45 -69.4 -11.45 -69.95 L-11.5 -70.4 Q-9.1 -89.6 -2.8 -108.5 -5.3 -107.35 -8.05 -106.4 L-8.15 -105.75 -9.25 -106.05 -10.2 -105.85 -10.15 -106.7 -10.45 -106.9 -10.85 -106.8 -11.0 -106.55 Q-12.85 -107.15 -14.3 -107.9 -16.3 -82.3 -18.55 -61.85 -19.85 -49.95 -21.35 -39.65 L-21.75 -36.95 Q-23.55 -24.9 -25.6 -15.2 -23.75 -13.5 -20.45 -14.0 L-20.5 -11.6 -24.65 -12.45 -25.05 -12.4 -25.25 -12.15 -27.15 -12.55 -27.9 -12.7 -27.85 -12.7 -29.4 -13.05 M-10.75 -102.25 Q-10.2 -101.65 -9.25 -101.6 L-8.75 -101.65 -10.35 -90.5 -11.2 -90.65 Q-12.15 -90.65 -12.75 -90.0 L-12.05 -94.35 -10.75 -102.25 M-10.9 -86.25 L-12.65 -71.9 -13.7 -72.15 Q-14.65 -72.15 -15.2 -71.55 L-13.15 -87.35 -12.75 -86.85 -12.75 -86.9 Q-12.15 -86.25 -11.2 -86.2 L-10.9 -86.25 M-13.15 -67.8 L-14.8 -51.1 Q-15.3 -51.45 -15.95 -51.4 -16.9 -51.4 -17.5 -50.75 L-17.55 -50.7 -16.75 -58.45 -15.55 -68.7 -15.25 -68.35 -15.25 -68.4 Q-14.65 -67.75 -13.7 -67.7 L-13.15 -67.8 M-15.15 -47.1 L-15.45 -42.85 -15.65 -40.6 -16.35 -30.25 -17.2 -30.4 Q-18.15 -30.4 -18.75 -29.75 L-19.05 -29.4 -18.5 -39.1 -18.35 -41.45 -17.8 -47.95 -17.5 -47.6 -17.5 -47.65 Q-16.9 -47.0 -15.95 -46.95 L-15.15 -47.1" fill="#a4490d" fill-rule="evenodd" stroke="none"/>
    <path d="M-20.45 -14.0 Q-23.75 -13.5 -25.6 -15.2 -23.55 -24.9 -21.75 -36.95 L-21.35 -39.65 Q-19.85 -49.95 -18.55 -61.85 -16.3 -82.3 -14.3 -107.9 -12.85 -107.15 -11.0 -106.55 L-11.05 -106.45 -11.3 -104.65 -11.45 -103.85 -11.45 -103.7 Q-14.9 -81.15 -16.95 -61.75 L-18.95 -41.15 -19.15 -38.7 Q-20.2 -25.5 -20.45 -14.1 L-20.45 -14.0 M-8.15 -105.75 L-8.05 -106.4 Q-5.3 -107.35 -2.8 -108.5 -9.1 -89.6 -11.5 -70.4 -11.65 -71.05 -12.15 -71.5 L-12.1 -71.5 -12.65 -71.9 -10.9 -86.25 Q-10.2 -86.3 -9.6 -86.85 -8.95 -87.55 -8.95 -88.45 -9.0 -89.4 -9.65 -90.0 L-9.6 -90.0 -10.35 -90.5 -8.75 -101.65 Q-8.15 -101.8 -7.65 -102.25 -7.0 -102.95 -7.0 -103.85 -7.05 -104.8 -7.7 -105.4 L-7.65 -105.4 -8.15 -105.75 M-11.7 -68.95 Q-13.15 -56.45 -12.95 -43.8 L-12.9 -41.7 Q-12.55 -27.5 -10.1 -13.15 -14.0 -11.55 -17.05 -14.4 L-16.55 -26.05 Q-16.05 -26.2 -15.6 -26.6 -14.95 -27.3 -14.95 -28.2 -15.0 -29.15 -15.65 -29.75 L-15.6 -29.75 -16.35 -30.25 -15.65 -40.6 -15.45 -42.85 -15.15 -47.1 -14.35 -47.6 Q-13.7 -48.3 -13.7 -49.2 -13.75 -50.15 -14.4 -50.75 L-14.35 -50.75 -14.8 -51.1 -13.15 -67.8 Q-12.6 -67.95 -12.1 -68.35 L-11.7 -68.95" fill="#ca590f" fill-rule="evenodd" stroke="none"/>
    <path d="M-25.25 -12.15 L-25.05 -12.4 -24.65 -12.45 -20.5 -11.6 -19.5 -11.45 -13.65 -11.05 -13.3 -10.9 -13.15 -10.65 -13.15 -10.55 -13.1 -8.6 Q-13.15 -5.55 -13.9 -2.45 L-14.35 -0.85 -14.4 -0.6 -14.6 -0.35 -14.85 -0.25 Q-21.05 0.15 -26.2 -1.7 L-26.45 -1.9 -26.55 -2.15 -26.55 -2.55 -26.55 -4.2 Q-26.5 -7.3 -25.8 -10.25 L-25.25 -12.15 M-10.2 -105.85 L-9.25 -106.05 -8.15 -105.75 -7.65 -105.4 -7.7 -105.4 Q-7.05 -104.8 -7.0 -103.85 -7.0 -102.95 -7.65 -102.25 -8.15 -101.8 -8.75 -101.65 L-9.25 -101.6 Q-10.2 -101.65 -10.75 -102.25 L-10.8 -102.3 -10.8 -102.25 Q-11.45 -102.9 -11.45 -103.7 L-11.45 -103.85 -11.3 -104.65 -10.8 -105.4 -10.2 -105.85 M-11.5 -70.4 L-11.45 -69.95 Q-11.45 -69.4 -11.7 -68.95 L-12.1 -68.35 Q-12.6 -67.95 -13.15 -67.8 L-13.7 -67.7 Q-14.65 -67.75 -15.25 -68.4 L-15.25 -68.35 -15.55 -68.7 Q-15.95 -69.3 -15.9 -69.95 -15.9 -70.9 -15.25 -71.5 L-15.2 -71.55 Q-14.65 -72.15 -13.7 -72.15 L-12.65 -71.9 -12.1 -71.5 -12.15 -71.5 Q-11.65 -71.05 -11.5 -70.4 M-16.55 -26.05 L-17.2 -25.95 Q-18.15 -26.0 -18.75 -26.65 L-18.75 -26.6 -19.15 -27.15 -19.4 -28.2 Q-19.4 -28.9 -19.05 -29.4 L-18.75 -29.75 Q-18.15 -30.4 -17.2 -30.4 L-16.35 -30.25 -15.6 -29.75 -15.65 -29.75 Q-15.0 -29.15 -14.95 -28.2 -14.95 -27.3 -15.6 -26.6 -16.05 -26.2 -16.55 -26.05 M9.2 -102.15 L9.2 -102.55 Q6.7 -115.85 0.65 -124.75 -0.85 -128.15 -5.6 -128.1 -10.2 -128.15 -13.35 -124.85 L-14.25 -123.85 -14.45 -123.6 -15.15 -122.55 -14.8 -123.1 -15.1 -122.7 -18.0 -118.7 -17.55 -121.2 -17.0 -123.45 Q-15.1 -129.3 -9.85 -131.1 -8.3 -131.65 -6.35 -131.85 L-6.3 -131.85 -3.75 -131.85 Q9.1 -131.65 14.85 -123.85 21.15 -115.15 17.0 -86.35 16.15 -80.45 16.65 -73.75 17.1 -68.0 18.55 -61.55 22.8 -42.8 35.75 -18.75 L39.6 -11.8 41.15 -9.05 Q40.75 -6.65 39.7 -4.6 37.95 -1.15 34.4 1.35 24.8 7.95 2.1 7.35 L-0.7 0.1 -1.4 -1.9 -3.35 -8.15 -3.95 -10.2 -5.65 -17.1 -5.6 -17.4 -5.6 -17.45 Q-3.2 -51.0 3.95 -84.45 L3.95 -84.85 3.75 -85.25 -0.5 -90.5 9.0 -101.75 9.2 -102.15 M10.1 -97.9 L2.45 -90.4 6.7 -84.9 -3.6 -31.35 Q-2.05 -25.1 0.1 -18.75 L1.1 -18.9 Q2.4 -18.9 3.3 -17.95 4.25 -17.0 6.75 -16.4 L3.3 -13.35 2.25 -12.6 3.2 -10.15 3.95 -8.25 4.85 -8.4 5.95 -8.2 Q6.65 -7.95 7.25 -7.3 8.25 -6.2 9.25 -5.65 8.25 -3.1 7.25 -2.0 L6.75 -1.5 7.4 0.0 8.6 2.65 Q14.95 2.75 20.6 1.3 25.35 0.05 27.55 -2.0 28.65 -3.1 29.1 -4.35 29.85 -6.55 28.7 -9.4 L28.65 -10.3 Q22.1 -5.75 16.25 -5.15 19.4 -6.05 22.2 -9.4 L23.85 -11.65 25.85 -15.2 19.3 -28.35 Q16.75 -33.45 15.8 -36.0 10.25 -31.35 7.9 -23.75 L7.95 -24.2 Q9.3 -31.95 14.7 -38.65 L14.9 -38.9 Q14.5 -40.2 14.75 -40.35 L1.7 -28.7 Q9.1 -36.75 13.75 -42.3 L13.95 -42.6 13.9 -42.85 Q9.25 -39.55 0.0 -37.9 8.95 -40.55 13.5 -45.55 L13.7 -45.45 Q13.5 -45.6 13.45 -46.9 13.4 -50.1 11.95 -68.6 11.85 -70.0 11.75 -69.6 L11.7 -68.95 3.0 -51.5 11.3 -74.45 11.55 -77.4 Q11.4 -76.4 11.35 -77.8 L12.0 -82.45 12.15 -83.6 Q12.6 -87.65 12.2 -92.4 11.7 -97.85 10.1 -97.9 M4.6 -7.2 Q3.5 -7.2 2.7 -6.45 1.95 -5.65 1.95 -4.55 1.95 -3.45 2.7 -2.7 3.35 -2.05 4.2 -1.9 L4.6 -1.9 5.1 -1.95 Q5.85 -2.1 6.45 -2.7 7.25 -3.45 7.25 -4.55 7.25 -5.65 6.45 -6.45 5.7 -7.2 4.6 -7.2 M0.95 -13.15 Q2.0 -13.15 2.7 -13.9 3.45 -14.6 3.45 -15.65 3.45 -16.7 2.7 -17.45 2.0 -18.15 0.95 -18.15 -0.1 -18.15 -0.85 -17.45 -1.55 -16.7 -1.55 -15.65 -1.55 -14.6 -0.85 -13.9 -0.1 -13.15 0.95 -13.15 M-15.35 -122.2 L-16.4 -119.85 -16.4 -119.8 -15.2 -122.5 -15.15 -122.55 -15.35 -122.2 M-10.35 -104.8 L-10.7 -103.85 -10.6 -103.3 -10.25 -102.8 Q-9.9 -102.35 -9.25 -102.35 L-8.65 -102.5 -8.2 -102.8 Q-7.8 -103.25 -7.75 -103.85 -7.75 -104.5 -8.2 -104.85 L-8.25 -104.9 Q-8.7 -105.3 -9.25 -105.3 -9.9 -105.35 -10.25 -104.9 L-10.3 -104.85 -10.35 -104.8 M-10.35 -90.5 L-9.6 -90.0 -9.65 -90.0 Q-9.0 -89.4 -8.95 -88.45 -8.95 -87.55 -9.6 -86.85 -10.2 -86.3 -10.9 -86.25 L-11.2 -86.2 Q-12.15 -86.25 -12.75 -86.9 L-12.75 -86.85 -13.15 -87.35 Q-13.45 -87.85 -13.4 -88.45 -13.4 -89.4 -12.75 -90.0 -12.15 -90.65 -11.2 -90.65 L-10.35 -90.5 M-12.2 -87.4 Q-11.85 -86.95 -11.2 -86.95 L-10.8 -87.0 -10.15 -87.4 Q-9.75 -87.85 -9.7 -88.45 -9.7 -89.1 -10.15 -89.45 L-10.45 -89.7 -11.2 -89.9 Q-11.85 -89.95 -12.2 -89.5 L-12.25 -89.45 Q-12.7 -89.1 -12.65 -88.45 -12.65 -87.85 -12.2 -87.4 M-28.1 -55.85 Q-27.35 -39.45 -28.5 -22.95 -29.85 -18.1 -31.35 -13.55 L-32.05 -11.7 -34.15 -6.2 -34.95 -4.3 -36.95 0.0 -37.1 0.35 Q-39.55 -1.25 -40.4 -3.5 -41.6 -6.7 -39.8 -11.2 L-39.65 -11.5 -38.9 -13.15 Q-37.9 -15.2 -36.25 -21.55 L-33.75 -32.45 Q-31.45 -43.25 -28.35 -59.9 L-28.1 -55.85 M-14.75 -70.95 Q-15.2 -70.6 -15.15 -69.95 -15.15 -69.35 -14.7 -68.9 -14.35 -68.45 -13.7 -68.45 L-13.05 -68.6 -12.65 -68.9 Q-12.25 -69.35 -12.2 -69.95 -12.2 -70.6 -12.65 -70.95 L-12.75 -71.05 Q-13.2 -71.4 -13.7 -71.4 -14.35 -71.45 -14.7 -71.0 L-14.75 -70.95 M-14.8 -51.1 L-14.35 -50.75 -14.4 -50.75 Q-13.75 -50.15 -13.7 -49.2 -13.7 -48.3 -14.35 -47.6 L-15.15 -47.1 -15.95 -46.95 Q-16.9 -47.0 -17.5 -47.65 L-17.5 -47.6 -17.8 -47.95 Q-18.2 -48.5 -18.15 -49.2 -18.15 -50.15 -17.55 -50.7 L-17.5 -50.75 Q-16.9 -51.4 -15.95 -51.4 -15.3 -51.45 -14.8 -51.1 M-15.95 -50.65 Q-16.6 -50.7 -16.95 -50.25 L-17.0 -50.2 Q-17.45 -49.85 -17.4 -49.2 -17.4 -48.6 -16.95 -48.15 -16.6 -47.7 -15.95 -47.7 -15.45 -47.75 -15.05 -48.05 L-14.9 -48.15 Q-14.5 -48.6 -14.45 -49.2 -14.45 -49.8 -14.85 -50.2 L-14.9 -50.2 Q-15.35 -50.65 -15.95 -50.65 M-15.7 -28.2 Q-15.7 -28.85 -16.15 -29.2 L-16.4 -29.4 -17.2 -29.65 Q-17.85 -29.7 -18.2 -29.25 L-18.25 -29.2 Q-18.7 -28.85 -18.65 -28.2 -18.65 -27.6 -18.2 -27.15 -17.85 -26.7 -17.2 -26.7 L-16.5 -26.9 -16.15 -27.15 Q-15.75 -27.6 -15.7 -28.2 M-24.45 -11.4 L-24.8 -10.05 Q-25.5 -7.15 -25.55 -4.0 L-25.55 -2.55 -23.6 -2.0 -17.65 -1.15 -15.25 -1.2 -14.9 -2.55 Q-14.15 -5.65 -14.1 -8.7 L-14.1 -10.05 Q-19.45 -10.15 -24.45 -11.4 M-23.65 -9.95 L-23.25 -10.05 -15.55 -9.05 -15.25 -8.85 -15.2 -8.8 -15.15 -8.45 -15.85 -3.1 -16.05 -2.8 -16.4 -2.7 -21.85 -3.35 -21.9 -3.35 -22.4 -3.45 -24.05 -3.7 -24.25 -3.75 -24.4 -3.9 -24.5 -4.25 -23.85 -9.6 -23.7 -9.9 -23.65 -9.95 M-21.7 -8.8 L-22.9 -8.95 -23.45 -4.6 -22.3 -4.45 -16.75 -3.75 -16.2 -8.1 -21.7 -8.8" fill="#333333" fill-rule="evenodd" stroke="none"/>
    <path d="M-10.35 -104.8 L-10.3 -104.85 -10.25 -104.9 Q-9.9 -105.35 -9.25 -105.3 -8.7 -105.3 -8.25 -104.9 L-8.2 -104.85 Q-7.75 -104.5 -7.75 -103.85 -7.8 -103.25 -8.2 -102.8 L-8.65 -102.5 -9.25 -102.35 Q-9.9 -102.35 -10.25 -102.8 L-10.6 -103.3 -10.7 -103.85 -10.35 -104.8 M-12.2 -87.4 Q-12.65 -87.85 -12.65 -88.45 -12.7 -89.1 -12.25 -89.45 L-12.2 -89.5 Q-11.85 -89.95 -11.2 -89.9 L-10.45 -89.7 -10.15 -89.45 Q-9.7 -89.1 -9.7 -88.45 -9.75 -87.85 -10.15 -87.4 L-10.8 -87.0 -11.2 -86.95 Q-11.85 -86.95 -12.2 -87.4 M-14.75 -70.95 L-14.7 -71.0 Q-14.35 -71.45 -13.7 -71.4 -13.2 -71.4 -12.75 -71.05 L-12.65 -70.95 Q-12.2 -70.6 -12.2 -69.95 -12.25 -69.35 -12.65 -68.9 L-13.05 -68.6 -13.7 -68.45 Q-14.35 -68.45 -14.7 -68.9 -15.15 -69.35 -15.15 -69.95 -15.2 -70.6 -14.75 -70.95 M-15.95 -50.65 Q-15.35 -50.65 -14.9 -50.2 L-14.85 -50.2 Q-14.45 -49.8 -14.45 -49.2 -14.5 -48.6 -14.9 -48.15 L-15.05 -48.05 Q-15.45 -47.75 -15.95 -47.7 -16.6 -47.7 -16.95 -48.15 -17.4 -48.6 -17.4 -49.2 -17.45 -49.85 -17.0 -50.2 L-16.95 -50.25 Q-16.6 -50.7 -15.95 -50.65 M-15.7 -28.2 Q-15.75 -27.6 -16.15 -27.15 L-16.5 -26.9 -17.2 -26.7 Q-17.85 -26.7 -18.2 -27.15 -18.65 -27.6 -18.65 -28.2 -18.7 -28.85 -18.25 -29.2 L-18.2 -29.25 Q-17.85 -29.7 -17.2 -29.65 L-16.4 -29.4 -16.15 -29.2 Q-15.7 -28.85 -15.7 -28.2 M-23.65 -9.95 L-23.7 -9.9 -23.85 -9.6 -24.5 -4.25 -24.4 -3.9 -24.25 -3.75 -24.05 -3.7 -22.4 -3.45 -21.9 -3.35 -21.85 -3.35 -16.4 -2.7 -16.05 -2.8 -15.85 -3.1 -15.15 -8.45 -15.2 -8.8 -15.25 -8.85 -15.55 -9.05 -23.25 -10.05 -23.65 -9.95 M-24.45 -11.4 Q-19.45 -10.15 -14.1 -10.05 L-14.1 -8.7 Q-14.15 -5.65 -14.9 -2.55 L-15.25 -1.2 -17.65 -1.15 -23.6 -2.0 -25.55 -2.55 -25.55 -4.0 Q-25.5 -7.15 -24.8 -10.05 L-24.45 -11.4" fill="#999999" fill-rule="evenodd" stroke="none"/>
    <path d="M-4.85 -7.25 L-3.1 -1.9 -5.55 -1.95 -4.85 -7.25 M-32.25 -5.55 L-30.05 -11.15 -28.3 -10.75 -28.25 -10.75 -27.8 -10.65 -29.5 -4.85 -29.55 -4.85 -32.25 -5.55 M-22.3 -4.45 L-23.45 -4.6 -22.9 -8.95 -21.7 -8.8 -22.3 -4.45 M-9.6 -8.35 L-9.3 -8.35 -9.4 -7.55 -9.6 -8.35" fill="#4f2f17" fill-rule="evenodd" stroke="none"/>
    <path d="M-5.75 -10.25 L-5.65 -9.95 -8.4 -10.3 -5.75 -10.25 M-3.1 -1.9 L-2.4 0.05 -5.8 -0.15 -5.55 -1.95 -3.1 -1.9 M-32.95 -3.85 L-32.25 -5.55 -29.55 -4.85 -29.5 -4.85 -27.85 -4.45 -26.55 -4.2 -26.55 -2.55 -32.95 -3.85 M-30.05 -11.15 L-29.4 -13.05 -27.85 -12.7 -27.9 -12.7 -27.15 -12.55 -25.25 -12.15 -25.8 -10.25 -27.7 -10.6 -27.8 -10.65 -28.25 -10.75 -28.3 -10.75 -30.05 -11.15 M-13.15 -10.65 L-9.8 -10.4 -8.7 -10.35 -8.9 -10.25 -9.1 -9.9 -9.3 -8.35 -9.6 -8.35 -9.9 -8.4 -13.1 -8.6 -13.15 -10.55 -13.15 -10.65 M-14.35 -0.85 L-13.9 -2.45 -10.05 -2.15 -10.25 -0.55 -14.35 -0.85" fill="#302110" fill-rule="evenodd" stroke="none"/>
    <path d="M-25.8 -10.25 Q-26.5 -7.3 -26.55 -4.2 L-27.85 -4.45 -29.5 -4.85 -27.8 -10.65 -27.7 -10.6 -25.8 -10.25 M-13.9 -2.45 Q-13.15 -5.55 -13.1 -8.6 L-9.9 -8.4 -9.6 -8.35 -9.4 -7.55 -10.05 -2.15 -13.9 -2.45 M-21.7 -8.8 L-16.2 -8.1 -16.75 -3.75 -22.3 -4.45 -21.7 -8.8" fill="#5c361b" fill-rule="evenodd" stroke="none"/>
    <path d="M-5.75 -10.25 L-7.5 -17.1 -7.55 -17.2 -7.55 -17.3 -7.85 -18.55 -10.95 -40.7 -10.95 -41.1 Q-11.3 -46.9 -11.1 -52.7 -10.25 -79.8 -6.2 -94.4 L-5.05 -98.1 -4.9 -98.65 -4.9 -98.6 Q0.1 -112.95 0.1 -117.05 L0.1 -117.1 Q0.0 -121.1 -1.15 -123.85 L-1.2 -123.85 -1.2 -123.95 Q-2.3 -126.15 -5.6 -126.1 -9.3 -126.15 -11.9 -123.45 -13.5 -121.8 -14.3 -119.8 L-15.0 -116.85 -15.0 -116.65 -16.65 -97.25 -16.75 -96.2 -16.75 -96.05 -17.05 -92.15 -19.0 -68.35 -25.85 -24.85 -26.5 -22.35 -26.6 -22.1 Q-27.95 -17.4 -29.4 -13.05 L-30.05 -11.15 -32.25 -5.55 -32.95 -3.85 Q-34.35 -0.65 -35.85 2.3 L-36.45 2.8 -36.6 2.85 -37.2 2.75 -37.45 2.55 -40.25 0.1 Q-46.05 -6.2 -41.8 -15.3 -38.5 -22.4 -29.15 -70.15 -29.8 -76.6 -30.75 -83.0 L-30.7 -83.4 -30.5 -83.8 -25.45 -89.65 -25.0 -92.05 -27.3 -100.95 Q-27.85 -103.95 -24.65 -108.95 L-20.75 -114.75 -19.5 -121.55 -19.5 -121.6 Q-17.35 -132.9 -6.5 -133.85 L-6.45 -133.85 Q9.65 -134.5 16.5 -125.05 23.3 -115.85 20.85 -96.8 16.15 -60.05 45.15 -8.2 L45.25 -7.4 Q43.8 -2.05 39.45 1.65 37.0 3.65 33.7 5.2 22.8 10.2 2.25 9.85 L2.05 9.85 1.45 9.6 1.45 9.55 1.25 9.25 -2.4 0.05 -3.1 -1.9 -4.85 -7.25 -5.65 -9.95 -5.75 -10.25 M3.7 -114.75 L2.05 -118.3 2.1 -117.1 2.1 -116.95 2.05 -116.0 1.95 -114.9 1.7 -113.7 -2.0 -100.9 -2.1 -100.6 -2.2 -100.3 -2.25 -100.15 -2.3 -99.95 -2.45 -99.55 -2.55 -99.25 -2.65 -99.0 -2.75 -98.65 -3.0 -97.95 -4.1 -94.4 -1.85 -92.05 -1.4 -92.3 Q2.1 -94.85 7.4 -103.7 5.95 -109.5 3.7 -114.75 M9.2 -102.15 L9.0 -101.75 -0.5 -90.5 3.75 -85.25 3.95 -84.85 3.95 -84.45 Q-3.2 -51.0 -5.6 -17.45 L-5.6 -17.4 -5.65 -17.1 -3.95 -10.2 -3.35 -8.15 -1.4 -1.9 -0.7 0.1 2.1 7.35 Q24.8 7.95 34.4 1.35 37.95 -1.15 39.7 -4.6 40.75 -6.65 41.15 -9.05 L39.6 -11.8 35.75 -18.75 Q22.8 -42.8 18.55 -61.55 17.1 -68.0 16.65 -73.75 16.15 -80.45 17.0 -86.35 21.15 -115.15 14.85 -123.85 9.1 -131.65 -3.75 -131.85 L-6.3 -131.85 -6.35 -131.85 Q-8.3 -131.65 -9.85 -131.1 -15.1 -129.3 -17.0 -123.45 L-17.55 -121.2 -18.0 -118.7 -15.1 -122.7 -14.8 -123.1 -15.15 -122.55 -14.45 -123.6 -14.25 -123.85 -13.35 -124.85 Q-10.2 -128.15 -5.6 -128.1 -0.85 -128.15 0.65 -124.75 6.7 -115.85 9.2 -102.55 L9.2 -102.15 M-17.45 -117.35 L-18.45 -115.95 -20.3 -113.3 -21.3 -111.7 -26.0 -104.0 -24.15 -96.45 -23.05 -92.45 -23.0 -92.3 -18.7 -96.65 -18.6 -97.7 -17.0 -116.85 -17.0 -117.05 -16.15 -119.1 -16.8 -118.2 -17.05 -117.85 -17.45 -117.35 M-15.35 -122.2 L-15.15 -122.55 -15.2 -122.5 -16.4 -119.8 -16.4 -119.85 -15.35 -122.2 M-7.45 -25.15 L-7.45 -25.1 -7.45 -24.9 -6.55 -18.4 -6.4 -20.6 -6.1 -25.1 Q-3.8 -57.35 2.65 -84.65 L-2.2 -91.0 -4.2 -93.65 Q-7.5 -81.0 -8.65 -62.15 L-8.75 -60.7 -8.95 -56.4 -9.05 -53.7 -9.1 -53.05 -9.1 -52.65 -9.1 -51.8 -8.15 -31.45 -7.45 -25.15 M-19.65 -84.25 L-18.45 -96.0 -22.75 -89.7 -22.85 -89.6 -29.4 -83.1 -28.2 -75.2 -27.35 -68.8 -27.1 -66.5 -26.7 -62.2 Q-25.45 -47.75 -25.95 -33.4 L-25.95 -33.35 -25.7 -34.4 -21.0 -68.5 -20.8 -70.65 -19.65 -84.25 M-28.1 -55.85 L-28.35 -59.9 Q-31.45 -43.25 -33.75 -32.45 L-36.25 -21.55 Q-37.9 -15.2 -38.9 -13.15 L-39.65 -11.5 -39.8 -11.2 Q-41.6 -6.7 -40.4 -3.5 -39.55 -1.25 -37.1 0.35 L-36.95 0.0 -34.95 -4.3 -34.15 -6.2 -32.05 -11.7 -31.35 -13.55 Q-29.85 -18.1 -28.5 -22.95 -27.35 -39.45 -28.1 -55.85" fill="#1e1e1e" fill-rule="evenodd" stroke="none"/>
    <path d="M3.7 -114.75 L3.45 -114.65 Q2.9 -104.95 -2.45 -93.65 L-4.1 -94.4 -3.0 -97.95 -2.75 -98.65 -2.65 -99.0 -2.55 -99.25 -2.45 -99.55 -2.3 -99.95 -2.25 -100.15 -2.2 -100.3 -2.1 -100.6 -2.0 -100.9 1.7 -113.7 1.95 -114.9 2.05 -116.0 2.1 -116.95 2.1 -117.1 2.05 -118.3 3.7 -114.75 M0.95 -13.15 Q-0.1 -13.15 -0.85 -13.9 -1.55 -14.6 -1.55 -15.65 -1.55 -16.7 -0.85 -17.45 -0.1 -18.15 0.95 -18.15 2.0 -18.15 2.7 -17.45 3.45 -16.7 3.45 -15.65 3.45 -14.6 2.7 -13.9 2.0 -13.15 0.95 -13.15 M4.6 -7.2 Q5.7 -7.2 6.45 -6.45 7.25 -5.65 7.25 -4.55 7.25 -3.45 6.45 -2.7 5.85 -2.1 5.1 -1.95 L4.6 -1.9 4.2 -1.9 Q3.35 -2.05 2.7 -2.7 1.95 -3.45 1.95 -4.55 1.95 -5.65 2.7 -6.45 3.5 -7.2 4.6 -7.2 M-17.0 -117.05 L-17.0 -116.85 -18.6 -97.7 -18.7 -96.65 -23.0 -92.3 -23.05 -92.45 -24.15 -96.45 -26.0 -104.0 -21.3 -111.7 -20.3 -113.3 -18.45 -115.95 -17.45 -117.35 -17.0 -117.05 M-22.1 -107.55 Q-23.25 -105.95 -24.65 -104.5 L-24.75 -104.25 -24.75 -104.0 -22.75 -95.75 -22.6 -95.5 -22.55 -95.45 -22.15 -95.4 -21.95 -95.55 -21.85 -95.65 Q-21.75 -95.85 -21.8 -96.0 L-23.75 -104.0 -22.5 -105.4 -21.25 -107.0 -19.5 -109.75 -18.6 -111.45 -17.8 -113.2 -17.85 -113.6 -18.1 -113.85 -18.5 -113.85 -18.75 -113.55 -18.9 -113.25 Q-19.75 -111.15 -20.95 -109.2 L-22.1 -107.55 M-2.2 -91.0 L-3.05 -90.4 Q-5.8 -78.35 -6.75 -62.0 L-7.15 -53.6 Q-7.6 -40.6 -7.05 -25.15 L-7.45 -25.15 -8.15 -31.45 -9.1 -51.8 -9.1 -52.65 -9.1 -53.05 -9.05 -53.7 -8.95 -56.4 -8.75 -60.7 -8.65 -62.15 Q-7.5 -81.0 -4.2 -93.65 L-2.2 -91.0 M-20.2 -91.15 L-21.5 -89.35 -23.4 -87.25 -24.0 -86.65 -26.4 -84.5 -28.45 -82.9 -28.6 -82.65 -28.6 -82.35 -27.55 -78.35 -26.5 -72.95 -26.25 -71.15 -25.75 -66.7 Q-24.85 -57.05 -25.3 -44.9 L-25.15 -44.55 -24.8 -44.4 -24.45 -44.5 -24.3 -44.85 Q-23.75 -59.05 -25.1 -69.9 L-25.7 -74.2 -26.0 -75.7 -27.1 -80.75 -27.55 -82.3 -26.7 -83.0 -24.25 -85.05 -23.7 -85.6 -21.8 -87.45 -19.35 -90.65 Q-19.25 -90.85 -19.3 -91.0 L-19.55 -91.3 -19.9 -91.35 -20.2 -91.15 M-19.65 -84.25 L-20.8 -70.65 -21.0 -68.5 -25.7 -34.4 -25.95 -33.35 -25.95 -33.4 Q-25.45 -47.75 -26.7 -62.2 L-27.1 -66.5 -27.35 -68.8 -28.2 -75.2 -29.4 -83.1 -22.85 -89.6 -22.75 -89.7 -18.45 -96.0 -19.65 -84.25" fill="#3c3c3c" fill-rule="evenodd" stroke="none"/>
    <path d="M-4.1 -94.4 L-2.45 -93.65 Q2.9 -104.95 3.45 -114.65 L3.7 -114.75 Q5.95 -109.5 7.4 -103.7 2.1 -94.85 -1.4 -92.3 L-1.85 -92.05 -4.1 -94.4 M3.75 -110.6 L3.75 -110.25 5.4 -104.45 -1.45 -94.65 -1.55 -94.3 -1.3 -94.0 -0.95 -93.9 -0.65 -94.1 6.35 -104.1 6.45 -104.3 6.45 -104.55 4.7 -110.55 4.45 -110.85 4.05 -110.85 3.75 -110.6 M10.1 -97.9 Q11.7 -97.85 12.2 -92.4 12.6 -87.65 12.15 -83.6 L12.0 -82.45 11.35 -77.8 Q11.4 -76.4 11.55 -77.4 L11.3 -74.45 3.0 -51.5 11.7 -68.95 11.75 -69.6 Q11.85 -70.0 11.95 -68.6 13.4 -50.1 13.45 -46.9 13.5 -45.6 13.7 -45.45 L13.5 -45.55 Q8.95 -40.55 0.0 -37.9 9.25 -39.55 13.9 -42.85 L13.95 -42.6 13.75 -42.3 Q9.1 -36.75 1.7 -28.7 L14.75 -40.35 Q14.5 -40.2 14.9 -38.9 L14.7 -38.65 Q9.3 -31.95 7.95 -24.2 L7.9 -23.75 Q10.25 -31.35 15.8 -36.0 16.75 -33.45 19.3 -28.35 L25.85 -15.2 23.85 -11.65 22.2 -9.4 Q19.4 -6.05 16.25 -5.15 22.1 -5.75 28.65 -10.3 L28.7 -9.4 Q29.85 -6.55 29.1 -4.35 28.65 -3.1 27.55 -2.0 25.35 0.05 20.6 1.3 14.95 2.75 8.6 2.65 L7.4 0.0 6.75 -1.5 7.25 -2.0 Q8.25 -3.1 9.25 -5.65 8.25 -6.2 7.25 -7.3 6.65 -7.95 5.95 -8.2 L4.85 -8.4 3.95 -8.25 3.2 -10.15 2.25 -12.6 3.3 -13.35 6.75 -16.4 Q4.25 -17.0 3.3 -17.95 2.4 -18.9 1.1 -18.9 L0.1 -18.75 Q-2.05 -25.1 -3.6 -31.35 L6.7 -84.9 2.45 -90.4 10.1 -97.9 M1.35 -84.7 L-1.9 -89.2 -2.2 -89.4 -2.6 -89.3 -2.8 -88.95 -2.7 -88.6 0.4 -84.3 Q-4.8 -67.15 -7.05 -36.9 L-6.9 -36.55 Q-6.8 -36.4 -6.55 -36.4 L-6.2 -36.5 -6.05 -36.85 Q-3.8 -67.15 1.45 -84.25 L1.45 -84.45 1.35 -84.7 M-17.45 -117.35 L-17.05 -117.85 -16.8 -118.2 -16.15 -119.1 -17.0 -117.05 -17.45 -117.35 M-7.45 -25.15 L-7.05 -25.15 Q-7.6 -40.6 -7.15 -53.6 L-6.75 -62.0 Q-5.8 -78.35 -3.05 -90.4 L-2.2 -91.0 2.65 -84.65 Q-3.8 -57.35 -6.1 -25.1 L-6.4 -20.6 -6.55 -18.4 -7.45 -24.9 -7.45 -25.1 -7.45 -25.15" fill="#414141" fill-rule="evenodd" stroke="none"/>
    <path d="M3.75 -110.6 L4.05 -110.85 4.45 -110.85 4.7 -110.55 6.45 -104.55 6.45 -104.3 6.35 -104.1 -0.65 -94.1 -0.95 -93.9 -1.3 -94.0 -1.55 -94.3 -1.45 -94.65 5.4 -104.45 3.75 -110.25 3.75 -110.6 M1.35 -84.7 L1.45 -84.45 1.45 -84.25 Q-3.8 -67.15 -6.05 -36.85 L-6.2 -36.5 -6.55 -36.4 Q-6.8 -36.4 -6.9 -36.55 L-7.05 -36.9 Q-4.8 -67.15 0.4 -84.3 L-2.7 -88.6 -2.8 -88.95 -2.6 -89.3 -2.2 -89.4 -1.9 -89.2 1.35 -84.7 M-22.1 -107.55 L-20.95 -109.2 Q-19.75 -111.15 -18.9 -113.25 L-18.75 -113.55 -18.5 -113.85 -18.1 -113.85 -17.85 -113.6 -17.8 -113.2 -18.6 -111.45 -19.5 -109.75 -21.25 -107.0 -22.5 -105.4 -23.75 -104.0 -21.8 -96.0 Q-21.75 -95.85 -21.85 -95.65 L-21.95 -95.55 -22.15 -95.4 -22.55 -95.45 -22.6 -95.5 -22.75 -95.75 -24.75 -104.0 -24.75 -104.25 -24.65 -104.5 Q-23.25 -105.95 -22.1 -107.55 M-20.2 -91.15 L-19.9 -91.35 -19.55 -91.3 -19.3 -91.0 Q-19.25 -90.85 -19.35 -90.65 L-21.8 -87.45 -23.7 -85.6 -24.25 -85.05 -26.7 -83.0 -27.55 -82.3 -27.1 -80.75 -26.0 -75.7 -25.7 -74.2 -25.1 -69.9 Q-23.75 -59.05 -24.3 -44.85 L-24.45 -44.5 -24.8 -44.4 -25.15 -44.55 -25.3 -44.9 Q-24.85 -57.05 -25.75 -66.7 L-26.25 -71.15 -26.5 -72.95 -27.55 -78.35 -28.6 -82.35 -28.6 -82.65 -28.45 -82.9 -26.4 -84.5 -24.0 -86.65 -23.4 -87.25 -21.5 -89.35 -20.2 -91.15" fill="#4e4e4e" fill-rule="evenodd" stroke="none"/>
  </g>
</svg>
