<?xml version="1.0" encoding="UTF-8" standalone="no"?>
<svg xmlns:ffdec="https://www.free-decompiler.com/flash" xmlns:xlink="http://www.w3.org/1999/xlink" ffdec:objectType="shape" height="16.2px" width="28.05px" xmlns="http://www.w3.org/2000/svg">
  <g transform="matrix(1.0, 0.0, 0.0, 1.0, 22.2, -7.55)">
    <path d="M4.1 15.6 Q3.85 17.85 2.45 19.9 1.1 21.95 -0.85 21.95 -2.75 21.95 -4.15 19.9 -5.5 17.85 -5.5 14.95 -5.5 13.35 -5.1 12.0 L-4.15 10.0 Q-3.7 9.3 -3.05 9.3 L-0.5 9.6 Q1.4 9.9 2.85 11.6 4.3 13.3 4.1 15.6 M-18.1 11.55 Q-17.1 11.0 -15.85 10.6 -14.6 10.2 -13.45 11.8 -12.35 13.4 -12.3 15.95 -12.35 18.45 -13.55 20.2 -14.7 22.0 -16.35 22.0 -18.05 22.0 -19.25 20.2 -20.45 18.45 -20.45 15.95 L-20.25 14.0 -19.55 12.75 -18.1 11.55 Z" fill="none" stroke="#000000" stroke-linecap="round" stroke-linejoin="round" stroke-width="3.5"/>
  </g>
</svg>
