<?xml version="1.0" encoding="UTF-8" standalone="no"?>
<svg xmlns:ffdec="https://www.free-decompiler.com/flash" xmlns:xlink="http://www.w3.org/1999/xlink" ffdec:objectType="shape" height="63.1px" width="22.45px" xmlns="http://www.w3.org/2000/svg">
  <g transform="matrix(1.0, 0.0, 0.0, 1.0, 7.9, 1.55)">
    <path d="M1.15 -1.5 L1.15 -1.4 Q1.15 1.5 5.15 31.45 L6.9 47.95 Q6.85 51.9 8.5 58.5 L7.15 59.4 Q5.2 59.9 2.45 58.15 L2.45 58.2 Q1.5 57.55 1.25 56.4 L1.25 56.3 1.15 55.3 0.8 54.65 Q-2.0 17.05 -5.75 0.95 L-5.95 0.15 Q-4.5 -1.55 -2.35 -1.55 L1.15 -1.5" fill="#ffcc99" fill-rule="evenodd" stroke="none"/>
    <path d="M8.5 58.5 Q6.85 51.9 6.9 47.95 L5.15 31.45 Q1.15 1.5 1.15 -1.4 L1.15 -1.5 1.5 -1.45 1.85 -1.45 3.65 -1.25 4.4 -0.7 4.4 -0.45 9.95 56.0 9.65 56.65 8.5 58.5" fill="#f1ba87" fill-rule="evenodd" stroke="none"/>
    <path d="M8.5 58.5 L9.65 56.65 9.95 56.0 4.4 -0.45 4.4 -0.7 4.65 -1.15 Q4.9 -1.5 5.3 -1.55 L6.05 -1.3 6.4 -0.65 Q10.85 33.2 11.95 56.0 L11.95 56.1 11.95 56.4 11.65 57.1 11.2 57.4 11.65 57.15 Q10.2 60.6 7.75 61.3 5.15 62.25 1.4 59.85 L1.35 59.85 -0.2 58.2 -0.5 58.0 -0.85 57.55 -0.9 57.4 -0.9 57.35 Q-2.45 32.75 -7.9 0.4 L-7.45 0.2 Q-7.05 0.15 -6.75 0.4 -6.4 0.65 -6.1 -0.4 L-5.95 0.15 -5.75 0.95 Q-2.0 17.05 0.8 54.65 L1.15 55.3 1.25 56.3 1.25 56.4 Q1.5 57.55 2.45 58.2 L2.45 58.15 Q5.2 59.9 7.15 59.4 L8.5 58.5" fill="#5c4730" fill-rule="evenodd" stroke="none"/>
    <path d="M0.1 44.0 L1.6 44.4 Q4.15 44.9 6.75 44.35 L8.45 43.85 8.4 43.85 10.2 43.15 10.25 43.1 11.05 42.65 11.6 42.55 11.8 42.25 Q12.1 41.95 12.5 41.95 12.9 41.95 13.2 42.25 L13.5 42.95 13.5 48.2 13.5 48.45 13.4 48.65 13.05 49.05 13.0 49.05 13.0 49.1 11.1 50.15 9.1 51.0 9.05 51.0 7.2 51.55 7.15 51.55 Q4.15 52.15 1.25 51.6 L1.2 51.6 -0.5 51.15 -2.45 50.4 -2.5 50.35 -2.55 50.35 -2.6 50.3 -2.65 50.25 -2.8 50.15 -3.05 49.8 -3.1 49.35 -3.1 44.2 -2.8 43.5 Q-2.5 43.2 -2.1 43.2 -1.7 43.2 -1.4 43.5 L-1.25 43.65 -0.75 43.7 0.15 44.0 0.1 44.0 M1.25 46.35 L1.2 46.35 -0.5 45.9 -1.1 45.7 -1.1 48.8 Q-1.8 48.95 0.05 49.95 1.9 50.9 4.95 50.65 7.95 50.4 9.7 49.45 11.4 48.45 11.5 47.65 L11.5 44.7 11.15 44.9 11.1 44.9 9.1 45.75 9.05 45.75 7.2 46.3 7.15 46.3 Q4.15 46.9 1.25 46.35" fill="#5c2907" fill-rule="evenodd" stroke="none"/>
    <path d="M1.25 46.35 Q4.15 46.9 7.15 46.3 L7.2 46.3 9.05 45.75 9.1 45.75 11.1 44.9 11.15 44.9 11.5 44.7 11.5 47.65 Q11.4 48.45 9.7 49.45 7.95 50.4 4.95 50.65 1.9 50.9 0.05 49.95 -1.8 48.95 -1.1 48.8 L-1.1 45.7 -0.5 45.9 1.2 46.35 1.25 46.35" fill="#95420b" fill-rule="evenodd" stroke="none"/>
    <path d="M4.4 -0.7 L4.4 -0.45 5.65 12.4 5.8 12.35 9.85 29.95 Q11.15 36.5 12.1 39.45 L10.9 40.0 10.65 40.1 8.45 40.9 8.25 40.95 6.3 41.4 Q6.4 37.5 4.25 19.5 2.1 1.5 1.65 0.05 L1.15 -1.5 1.5 -1.45 1.85 -1.45 3.65 -1.25 4.4 -0.7 M-0.3 41.35 L-1.9 40.95 -1.85 40.95 -2.25 40.85 -3.15 40.55 -2.85 35.45 Q-2.5 25.2 -3.7 13.35 L-3.45 13.3 Q-1.8 24.65 -0.3 41.35 M8.9 42.85 L11.35 42.0 11.4 42.0 12.4 41.55 12.55 44.4 11.0 45.1 8.75 45.85 8.8 45.85 5.65 47.0 Q3.55 47.65 0.35 46.4 L0.35 46.35 -1.45 46.0 -1.4 46.0 -2.95 45.5 -3.1 42.65 -2.4 42.85 -2.4 42.9 -0.4 43.35 6.35 43.35 8.8 42.9 8.9 42.85" fill="#333333" fill-rule="evenodd" stroke="none"/>
    <path d="M6.3 41.4 L8.25 40.95 8.45 40.9 10.65 40.1 10.9 40.0 12.1 39.45 Q11.15 36.5 9.85 29.95 L5.8 12.35 5.65 12.4 4.4 -0.45 4.4 -0.7 4.65 -1.15 Q4.9 -1.5 5.3 -1.55 L6.05 -1.3 6.4 -0.65 8.0 12.1 7.8 12.05 8.6 17.0 Q10.55 28.25 14.2 39.5 L14.25 39.65 14.3 39.8 14.3 39.9 14.55 44.9 14.3 45.65 13.9 45.9 11.75 46.95 9.35 47.75 9.35 47.8 7.1 48.3 Q3.55 48.9 0.05 48.35 L-1.95 47.95 -4.2 47.2 -4.6 46.95 -4.85 46.6 -4.95 46.25 -5.2 41.2 -5.2 41.15 -5.2 41.1 Q-4.2 29.3 -5.5 15.35 L-5.7 13.55 -5.75 13.6 -7.9 0.4 -7.45 0.2 Q-7.05 0.15 -6.75 0.4 -6.4 0.65 -6.1 -0.4 L-5.95 0.15 -5.75 0.95 Q-4.6 6.05 -3.45 13.3 L-3.7 13.35 Q-2.5 25.2 -2.85 35.45 L-3.15 40.55 -2.25 40.85 -1.85 40.95 -1.9 40.95 -0.3 41.35 0.0 41.4 Q3.05 41.9 6.25 41.4 L6.3 41.4 M8.9 42.85 L8.8 42.9 6.35 43.35 -0.4 43.35 -2.4 42.9 -2.4 42.85 -3.1 42.65 -2.95 45.5 -1.4 46.0 -1.45 46.0 0.35 46.35 0.35 46.4 Q3.55 47.65 5.65 47.0 L8.8 45.85 8.75 45.85 11.0 45.1 12.55 44.4 12.4 41.55 11.4 42.0 11.35 42.0 8.9 42.85" fill="#1e1e1e" fill-rule="evenodd" stroke="none"/>
    <path d="M-5.75 13.6 L-5.7 13.55 -5.5 15.35 -5.75 13.6 M8.6 17.0 L7.8 12.05 8.0 12.1 8.6 17.0" fill="#5c4730" fill-rule="evenodd" stroke="none"/>
    <path d="M6.3 41.4 L6.25 41.4 Q3.05 41.9 0.0 41.4 L-0.3 41.35 Q-1.8 24.65 -3.45 13.3 -4.6 6.05 -5.75 0.95 L-5.95 0.15 Q-4.5 -1.55 -2.35 -1.55 L1.15 -1.5 1.65 0.05 Q2.1 1.5 4.25 19.5 6.4 37.5 6.3 41.4" fill="#454545" fill-rule="evenodd" stroke="none"/>
  </g>
</svg>
