<?xml version="1.0" encoding="UTF-8" standalone="no"?>
<svg xmlns:ffdec="https://www.free-decompiler.com/flash" xmlns:xlink="http://www.w3.org/1999/xlink" ffdec:objectType="shape" height="53.0px" width="96.25px" xmlns="http://www.w3.org/2000/svg">
  <g transform="matrix(1.0, 0.0, 0.0, 1.0, 49.75, 7.75)">
    <path d="M12.65 -5.1 L16.75 -3.4 Q22.45 -5.3 29.95 -5.35 L30.5 -5.15 30.9 -4.7 30.95 -4.1 30.65 -3.6 Q26.95 -0.35 27.25 4.15 L27.5 4.4 Q30.3 2.3 35.15 3.2 35.5 3.25 35.75 3.6 L35.95 4.3 35.6 4.95 Q33.95 6.35 34.1 9.85 42.9 13.8 45.65 22.2 L46.45 24.4 46.45 25.15 45.95 25.65 45.25 25.7 41.75 24.65 Q44.95 31.8 41.4 39.25 L41.35 39.3 40.6 40.6 39.95 41.8 39.9 41.85 Q38.1 44.7 34.65 45.25 L34.15 45.2 33.7 44.85 33.5 44.35 Q33.15 41.05 31.4 38.3 L29.5 40.2 28.95 40.5 28.35 40.45 27.9 40.05 26.7 38.15 26.05 38.6 25.45 38.75 24.85 38.5 24.55 37.95 24.1 35.55 24.0 35.55 Q20.75 37.5 17.1 37.05 L16.45 36.7 16.2 36.0 Q16.2 35.6 16.5 35.35 L17.2 34.75 17.2 34.7 Q21.1 31.0 19.8 25.75 L19.35 24.55 16.85 24.75 16.45 24.7 16.05 24.5 Q11.8 20.35 12.5 16.2 L12.5 13.2 12.15 12.05 -2.4 20.7 Q-9.4 24.6 -21.5 27.5 L-22.15 27.4 -22.65 26.95 -22.7 26.3 -22.35 25.75 Q-16.25 20.9 -14.5 18.55 L-14.5 18.5 -13.6 17.15 Q-23.2 22.45 -33.95 25.5 L-34.7 25.4 -35.2 24.85 -35.15 24.1 -33.1 19.7 Q-36.7 20.0 -40.2 18.3 L-40.25 18.3 Q-43.7 16.6 -49.3 12.6 L-49.7 12.05 -49.65 11.4 -49.25 10.9 -48.65 10.75 -38.55 10.3 Q-42.65 6.85 -44.65 3.15 L-44.75 2.4 -44.3 1.8 -43.6 1.7 Q-33.8 3.7 -21.75 0.6 L-20.15 -0.55 Q-22.8 -3.15 -22.75 -6.0 L-22.5 -6.65 -21.9 -7.0 -21.2 -6.85 Q-17.55 -4.65 -11.15 -5.5 L-10.3 -5.85 -10.35 -5.85 Q-0.8 -9.95 12.65 -5.1 M16.3 -1.35 L11.95 -3.2 8.25 -4.35 Q2.6 -5.95 -2.25 -5.65 -6.15 -5.45 -9.55 -4.0 L-10.65 -3.55 -15.95 -0.85 -16.55 -0.2 -18.8 1.85 Q-21.5 4.15 -26.05 7.55 -29.4 10.05 -34.1 11.2 L-36.75 11.75 Q-41.95 12.55 -48.5 11.95 L-39.35 16.5 Q-35.55 18.35 -31.6 17.45 L-30.9 17.55 Q-30.55 17.7 -30.45 18.1 L-30.5 18.85 -32.4 22.9 Q-21.6 19.6 -12.0 13.9 L-9.3 12.25 Q-6.85 10.8 -8.35 12.25 -9.9 13.65 -10.15 14.2 L-10.55 15.05 Q-11.35 17.6 -12.85 19.7 L-12.9 19.7 Q-14.15 21.45 -17.6 24.4 -10.3 23.9 -3.35 18.95 L-3.4 18.95 11.2 10.3 Q11.7 9.95 12.25 9.65 L14.1 8.45 14.15 8.4 Q15.75 7.35 14.9 8.5 14.0 9.6 13.75 10.25 L14.5 12.75 14.5 13.0 14.5 16.25 14.5 16.45 Q14.0 19.55 16.65 23.75 L19.9 22.5 20.55 22.65 Q20.85 22.85 21.95 21.45 L21.7 25.2 21.75 25.25 Q23.1 30.9 19.6 35.05 21.35 34.8 23.0 33.85 L22.95 33.9 24.1 32.95 25.25 32.0 Q25.9 31.55 25.8 32.4 L25.75 33.6 26.2 36.1 26.45 35.95 26.95 35.75 27.45 35.9 27.85 36.25 28.7 39.15 30.8 36.05 31.3 34.85 31.85 32.8 Q32.15 31.8 33.4 35.55 34.65 39.25 35.35 43.05 37.15 42.45 38.2 40.85 L38.2 40.8 38.9 39.55 38.95 39.45 39.55 38.45 39.55 38.4 Q43.25 30.8 38.9 23.55 L37.55 22.35 Q36.3 21.45 37.45 21.65 L39.15 21.95 40.05 22.05 43.9 23.25 43.75 22.8 43.75 22.85 Q40.6 13.5 34.65 12.05 L34.2 11.95 Q31.1 11.25 28.7 11.95 26.65 12.5 25.1 14.0 21.6 17.45 24.65 12.6 L25.3 11.45 26.2 9.6 26.65 7.65 Q26.7 6.6 26.2 5.95 L25.4 5.05 Q23.3 2.75 20.4 0.9 L16.3 -1.35 M-18.4 -1.7 L-16.9 -2.6 -16.95 -2.6 -15.75 -3.25 Q-18.3 -3.4 -20.3 -4.15 -19.75 -2.95 -18.4 -1.7 M21.5 -0.8 L21.5 -0.75 25.5 2.35 Q26.15 -1.15 29.3 -4.5 23.4 -3.35 19.3 -2.1 L21.5 -0.8 M-27.75 5.25 L-25.55 3.5 -41.7 4.05 Q-39.6 6.9 -36.15 9.7 -31.5 8.25 -27.75 5.25 M-38.1 22.25 L-37.65 22.75 -37.55 23.4 -39.55 31.4 -39.9 31.95 -40.5 32.15 Q-44.25 32.45 -47.35 28.25 L-47.55 27.55 -47.2 26.95 Q-46.95 26.65 -46.55 26.65 -42.2 26.55 -39.35 22.6 L-38.8 22.2 -38.1 22.25 M32.05 9.05 Q32.05 6.5 32.95 4.95 30.4 4.85 28.75 6.0 L30.2 8.45 32.05 9.05 M-46.05 27.95 Q-43.0 29.9 -41.3 30.15 L-40.45 26.6 Q-42.3 28.0 -46.05 27.95" fill="#38291d" fill-rule="evenodd" stroke="none"/>
    <path d="M16.3 -1.35 L20.4 0.9 Q23.3 2.75 25.4 5.05 L26.2 5.95 Q26.7 6.6 26.65 7.65 L26.2 9.6 25.3 11.45 24.65 12.6 Q21.6 17.45 25.1 14.0 26.65 12.5 28.7 11.95 31.1 11.25 34.2 11.95 L34.65 12.05 Q40.6 13.5 43.75 22.85 L43.75 22.8 43.9 23.25 40.05 22.05 39.15 21.95 37.45 21.65 Q36.3 21.45 37.55 22.35 L38.9 23.55 Q43.25 30.8 39.55 38.4 L39.55 38.45 38.95 39.45 38.9 39.55 38.2 40.8 38.2 40.85 Q37.15 42.45 35.35 43.05 34.65 39.25 33.4 35.55 32.15 31.8 31.85 32.8 L31.3 34.85 30.8 36.05 28.7 39.15 27.85 36.25 27.45 35.9 26.95 35.75 26.45 35.95 26.2 36.1 25.75 33.6 25.8 32.4 Q25.9 31.55 25.25 32.0 L24.1 32.95 22.95 33.9 23.0 33.85 Q21.35 34.8 19.6 35.05 23.1 30.9 21.75 25.25 L21.7 25.2 21.95 21.45 Q20.85 22.85 20.55 22.65 L19.9 22.5 16.65 23.75 Q14.0 19.55 14.5 16.45 L14.5 16.25 14.5 13.0 14.5 12.75 13.75 10.25 Q14.0 9.6 14.9 8.5 15.75 7.35 14.15 8.4 L14.1 8.45 12.25 9.65 Q11.7 9.95 11.2 10.3 L-3.4 18.95 -3.35 18.95 Q-10.3 23.9 -17.6 24.4 -14.15 21.45 -12.9 19.7 L-12.85 19.7 Q-11.35 17.6 -10.55 15.05 L-10.15 14.2 Q-9.9 13.65 -8.35 12.25 -6.85 10.8 -9.3 12.25 L-12.0 13.9 Q-21.6 19.6 -32.4 22.9 L-30.5 18.85 -30.45 18.1 Q-30.55 17.7 -30.9 17.55 L-31.6 17.45 Q-35.55 18.35 -39.35 16.5 L-48.5 11.95 Q-41.95 12.55 -36.75 11.75 L-34.1 11.2 Q-29.4 10.05 -26.05 7.55 -21.5 4.15 -18.8 1.85 L-16.55 -0.2 -15.95 -0.85 -10.65 -3.55 -9.55 -4.0 Q-6.15 -5.45 -2.25 -5.65 2.6 -5.95 8.25 -4.35 L11.95 -3.2 16.3 -1.35 M-3.7 7.7 Q-0.95 5.55 2.65 5.25 L2.75 6.25 -7.5 15.65 -6.5 16.0 Q4.3 10.9 11.75 1.65 L11.25 1.15 Q9.5 2.15 7.5 1.75 L7.2 1.05 Q0.85 2.3 -4.0 6.9 L-3.7 7.7 M-0.75 0.25 L-1.25 -0.25 Q-14.4 5.25 -25.25 14.4 -13.45 9.8 -3.3 2.15 L-0.75 0.25 M-28.65 12.15 L-36.3 14.1 -33.85 14.55 Q-30.3 15.25 -28.15 12.35 L-28.65 12.15 M20.5 7.45 L19.4 9.6 20.0 10.1 18.55 19.3 19.0 19.5 20.9 18.65 21.0 18.0 20.35 16.95 20.9 9.6 20.5 7.45 M37.65 16.65 Q33.95 14.0 29.55 14.9 22.65 20.4 23.4 29.4 L24.15 29.65 Q26.15 28.65 27.1 26.55 26.65 29.05 27.9 31.35 L28.9 31.5 29.75 20.5 Q35.05 28.3 35.15 37.75 L36.55 37.85 Q38.8 27.2 31.5 19.15 33.7 16.3 37.05 17.35 L37.65 16.65" fill="#483524" fill-rule="evenodd" stroke="none"/>
    <path d="M21.5 -0.8 L19.3 -2.1 Q23.4 -3.35 29.3 -4.5 26.15 -1.15 25.5 2.35 L21.5 -0.75 21.5 -0.8 M-18.4 -1.7 Q-19.75 -2.95 -20.3 -4.15 -18.3 -3.4 -15.75 -3.25 L-16.95 -2.6 -16.9 -2.6 -18.4 -1.7 M-27.75 5.25 Q-31.5 8.25 -36.15 9.7 -39.6 6.9 -41.7 4.05 L-25.55 3.5 -27.75 5.25 M-46.05 27.95 Q-42.3 28.0 -40.45 26.6 L-41.3 30.15 Q-43.0 29.9 -46.05 27.95 M32.05 9.05 L30.2 8.45 28.75 6.0 Q30.4 4.85 32.95 4.95 32.05 6.5 32.05 9.05" fill="#3d2d1f" fill-rule="evenodd" stroke="none"/>
    <path d="M-28.65 12.15 L-28.15 12.35 Q-30.3 15.25 -33.85 14.55 L-36.3 14.1 -28.65 12.15 M-0.75 0.25 L-3.3 2.15 Q-13.45 9.8 -25.25 14.4 -14.4 5.25 -1.25 -0.25 L-0.75 0.25 M-3.7 7.7 L-4.0 6.9 Q0.85 2.3 7.2 1.05 L7.5 1.75 Q9.5 2.15 11.25 1.15 L11.75 1.65 Q4.3 10.9 -6.5 16.0 L-7.5 15.65 2.75 6.25 2.65 5.25 Q-0.95 5.55 -3.7 7.7 M37.65 16.65 L37.05 17.35 Q33.7 16.3 31.5 19.15 38.8 27.2 36.55 37.85 L35.15 37.75 Q35.05 28.3 29.75 20.5 L28.9 31.5 27.9 31.35 Q26.65 29.05 27.1 26.55 26.15 28.65 24.15 29.65 L23.4 29.4 Q22.65 20.4 29.55 14.9 33.95 14.0 37.65 16.65 M20.5 7.45 L20.9 9.6 20.35 16.95 21.0 18.0 20.9 18.65 19.0 19.5 18.55 19.3 20.0 10.1 19.4 9.6 20.5 7.45" fill="#583825" fill-rule="evenodd" stroke="none"/>
  </g>
</svg>
