<?xml version="1.0" encoding="UTF-8" standalone="no"?>
<svg xmlns:ffdec="https://www.free-decompiler.com/flash" xmlns:xlink="http://www.w3.org/1999/xlink" ffdec:objectType="shape" height="83.05px" width="83.05px" xmlns="http://www.w3.org/2000/svg">
  <g transform="matrix(1.0, 0.0, 0.0, 1.0, 45.0, 55.0)">
    <path d="M7.65 -32.75 Q7.4 -29.45 10.25 -26.15 11.75 -19.7 9.5 -12.65 15.6 -8.7 19.6 -13.15 L19.9 -11.4 20.2 -10.85 Q20.45 -10.6 20.8 -10.6 L21.4 -10.7 Q21.05 3.25 10.95 13.15 0.5 23.4 -14.3 23.4 L-22.05 22.65 Q-27.5 19.8 -32.15 15.15 -44.0 3.3 -44.0 -13.45 -44.0 -22.35 -40.65 -29.9 L-38.85 -29.85 -38.95 -28.85 -40.55 -25.45 -40.6 -24.7 -40.1 -24.15 -39.35 -24.05 -38.6 -24.25 -39.75 -21.9 -39.15 -20.0 -38.75 -19.8 Q-35.05 -20.05 -31.85 -22.25 L-30.75 -21.65 -29.95 -22.0 -28.0 -22.9 -27.9 -22.55 Q-27.75 -22.25 -27.4 -22.1 L-26.75 -22.0 -20.7 -23.6 Q-23.8 -20.15 -28.35 -18.55 -7.45 -19.25 6.6 -34.4 L7.65 -32.75" fill="#fad8b6" fill-rule="evenodd" stroke="none"/>
    <path d="M7.65 -32.75 L7.7 -33.45 7.7 -36.45 7.35 -37.65 -7.35 -28.9 -7.4 -28.9 Q-12.65 -25.95 -20.7 -23.6 L-26.75 -22.0 -27.4 -22.1 Q-27.75 -22.25 -27.9 -22.55 L-28.0 -22.9 -27.95 -23.2 -27.6 -23.8 Q-21.4 -28.7 -19.65 -31.05 L-19.65 -31.1 -18.7 -32.5 Q-28.1 -27.3 -38.6 -24.25 L-39.35 -24.05 -40.1 -24.15 -40.6 -24.7 -40.55 -25.45 -38.95 -28.85 -38.45 -29.9 -38.85 -29.85 -40.65 -29.9 -40.0 -31.35 Q-38.2 -34.95 -35.6 -38.25 L-32.55 -41.75 -32.05 -42.0 -30.1 -43.0 -30.6 -43.6 Q-19.2 -54.0 -3.45 -54.0 13.3 -54.0 25.15 -42.15 37.05 -30.25 37.05 -13.45 L36.95 -10.05 Q35.8 4.55 25.15 15.15 13.3 27.05 -3.45 27.05 L-8.2 26.8 -8.1 25.95 Q7.65 25.95 18.75 14.8 27.1 6.5 29.2 -4.45 L29.0 -4.9 Q28.6 -8.25 26.85 -11.05 L24.9 -9.1 Q24.7 -8.9 24.4 -8.85 L23.8 -8.9 23.3 -9.3 22.1 -11.2 21.45 -10.75 21.4 -10.7 20.8 -10.6 Q20.45 -10.6 20.2 -10.85 L19.9 -11.4 19.6 -13.15 19.45 -13.85 19.35 -13.85 Q16.05 -11.9 12.35 -12.3 11.95 -12.35 11.75 -12.65 11.45 -13.0 11.45 -13.35 L11.8 -14.05 12.45 -14.65 12.5 -14.7 Q16.4 -18.45 15.1 -23.75 L14.65 -24.95 12.15 -24.75 11.7 -24.8 11.3 -25.05 10.25 -26.15 Q7.4 -29.45 7.65 -32.75" fill="#f7b879" fill-rule="evenodd" stroke="none"/>
    <path d="M-20.7 -23.6 Q-12.65 -25.95 -7.4 -28.9 L-7.35 -28.9 7.35 -37.65 7.7 -36.45 7.7 -33.45 7.65 -32.75 6.6 -34.4 Q-7.45 -19.25 -28.35 -18.55 -23.8 -20.15 -20.7 -23.6 M10.25 -26.15 L11.3 -25.05 11.7 -24.8 12.15 -24.75 14.65 -24.95 15.1 -23.75 Q16.4 -18.45 12.5 -14.7 L12.45 -14.65 11.8 -14.05 11.45 -13.35 Q11.45 -13.0 11.75 -12.65 11.95 -12.35 12.35 -12.3 16.05 -11.9 19.35 -13.85 L19.45 -13.85 19.6 -13.15 Q15.6 -8.7 9.5 -12.65 11.75 -19.7 10.25 -26.15 M21.4 -10.7 L21.45 -10.75 22.1 -11.2 23.3 -9.3 23.8 -8.9 24.4 -8.85 Q24.7 -8.9 24.9 -9.1 L26.85 -11.05 Q28.6 -8.25 29.0 -4.9 L29.2 -4.45 Q27.1 6.5 18.75 14.8 7.65 25.95 -8.1 25.95 L-15.9 25.2 Q-19.1 24.2 -22.05 22.65 L-14.3 23.4 Q0.5 23.4 10.95 13.15 21.05 3.25 21.4 -10.7 M-38.6 -24.25 Q-28.1 -27.3 -18.7 -32.5 L-19.65 -31.1 -19.65 -31.05 Q-21.4 -28.7 -27.6 -23.8 L-27.95 -23.2 -28.0 -22.9 -29.95 -22.0 -30.75 -21.65 -31.85 -22.25 Q-35.05 -20.05 -38.75 -19.8 L-39.15 -20.0 -39.75 -21.9 -38.6 -24.25" fill="#f9ca9b" fill-rule="evenodd" stroke="none"/>
    <path d="M-8.2 26.8 L-3.45 27.05 Q13.3 27.05 25.15 15.15 35.8 4.55 36.95 -10.05 L37.05 -13.45 Q37.05 -30.25 25.15 -42.15 13.3 -54.0 -3.45 -54.0 -19.2 -54.0 -30.6 -43.6 L-32.15 -42.15 -32.55 -41.75 -35.6 -38.25 Q-38.2 -34.95 -40.0 -31.35 L-40.65 -29.9 Q-44.0 -22.35 -44.0 -13.45 -44.0 3.3 -32.15 15.15 -27.5 19.8 -22.05 22.65 -19.1 24.2 -15.9 25.2 -12.2 26.35 -8.2 26.8" fill="none" stroke="#5c4730" stroke-linecap="round" stroke-linejoin="round" stroke-width="2.0"/>
    <path d="M-32.05 -42.0 L-32.55 -41.75" fill="none" stroke="#5c4730" stroke-linecap="round" stroke-linejoin="round" stroke-width="2.0"/>
  </g>
</svg>
