<?xml version="1.0" encoding="UTF-8" standalone="no"?>
<svg xmlns:ffdec="https://www.free-decompiler.com/flash" xmlns:xlink="http://www.w3.org/1999/xlink" ffdec:objectType="shape" height="61.35px" width="42.9px" xmlns="http://www.w3.org/2000/svg">
  <g transform="matrix(1.0, 0.0, 0.0, 1.0, 13.2, 10.4)">
    <path d="M-6.55 9.25 L-10.2 3.15 -10.15 3.15 Q-11.75 0.4 -10.85 -2.65 L-10.8 -2.7 Q-10.05 -5.9 -7.1 -7.4 L-6.65 -7.65 Q-4.0 -8.95 -0.95 -8.1 L-1.0 -8.1 Q2.05 -7.15 3.6 -4.3 L3.55 -4.35 19.75 26.95 Q22.45 31.05 24.5 35.45 26.3 39.25 27.5 43.3 28.2 45.6 26.5 47.15 L26.15 47.4 Q26.45 42.85 2.35 7.85 -2.55 4.05 -6.55 9.25" fill="#333333" fill-rule="evenodd" stroke="none"/>
    <path d="M-12.75 -3.2 Q-11.75 -7.2 -8.05 -9.15 L-7.65 -9.35 Q-4.25 -11.1 -0.4 -10.0 3.45 -8.85 5.35 -5.25 L24.65 31.5 25.35 33.15 25.85 34.2 26.1 34.7 26.65 35.55 Q28.55 38.85 29.5 42.85 30.5 47.25 26.5 49.65 L26.45 49.7 Q22.65 52.0 18.65 50.15 15.8 48.85 14.4 46.15 L13.5 45.5 Q14.15 45.95 13.0 44.45 L12.85 44.7 12.45 44.25 12.6 44.2 11.0 42.15 10.4 41.65 -11.9 4.15 Q-13.95 0.7 -12.75 -3.2 M26.15 47.4 L26.5 47.15 Q28.2 45.6 27.5 43.3 26.3 39.25 24.5 35.45 22.45 31.05 19.75 26.95 L3.55 -4.35 3.6 -4.3 Q2.05 -7.15 -1.0 -8.1 L-0.95 -8.1 Q-4.0 -8.95 -6.65 -7.65 L-7.1 -7.4 Q-10.05 -5.9 -10.8 -2.7 L-10.85 -2.65 Q-11.75 0.4 -10.15 3.15 L-10.2 3.15 -6.55 9.25 9.0 35.45 8.95 35.6 Q9.55 37.4 10.4 38.6 L12.15 40.8 13.2 41.8 15.95 45.15 Q17.2 46.95 19.0 47.95 22.25 49.95 25.35 48.0 L25.4 47.95 26.05 47.35 26.1 47.45 26.15 47.4" fill="#1e1e1e" fill-rule="evenodd" stroke="none"/>
    <path d="M26.15 47.4 L26.1 47.45 26.05 47.35 25.4 47.95 25.35 48.0 Q22.25 49.95 19.0 47.95 17.2 46.95 15.95 45.15 L13.2 41.8 12.15 40.8 10.4 38.6 Q9.55 37.4 8.95 35.6 L9.0 35.45 -6.55 9.25 Q-2.55 4.05 2.35 7.85 26.45 42.85 26.15 47.4" fill="#454545" fill-rule="evenodd" stroke="none"/>
  </g>
</svg>
