<?xml version="1.0" encoding="UTF-8" standalone="no"?>
<svg xmlns:ffdec="https://www.free-decompiler.com/flash" xmlns:xlink="http://www.w3.org/1999/xlink" ffdec:objectType="shape" height="55.95px" width="37.7px" xmlns="http://www.w3.org/2000/svg">
  <g transform="matrix(1.0, 0.0, 0.0, 1.0, 17.1, 26.8)">
    <path d="M8.4 0.9 L8.65 0.65 8.0 0.05 7.25 -1.75 8.6 -1.2 8.55 -2.1 8.15 -4.15 8.0 -4.5 7.6 -5.2 7.55 -5.25 7.2 -5.5 5.85 -6.15 5.35 -8.3 7.6 -7.7 9.25 -6.95 11.9 -5.55 14.2 -4.2 16.9 -2.2 19.4 0.45 Q20.2 1.55 20.45 2.85 20.7 4.05 20.5 5.3 L19.9 9.1 19.1 12.3 18.25 14.85 17.65 16.0 16.05 18.2 15.45 18.75 Q13.4 20.45 10.85 20.0 L10.5 19.85 8.25 16.8 5.6 13.25 4.0 11.05 3.9 10.9 3.8 10.75 -3.9 23.65 -8.35 10.3 -15.55 18.15 -16.05 18.45 -16.65 18.4 -17.1 18.05 -17.05 15.0 Q-16.95 13.2 -16.35 11.3 L-15.5 8.9 -14.3 6.45 -12.9 4.05 -11.2 1.7 Q-9.6 -0.55 -7.6 -2.1 -6.3 -3.05 -5.3 -4.45 L-4.4 -5.45 -3.8 -3.1 -5.15 -1.05 Q-6.25 1.2 -6.75 3.6 -5.25 1.0 -3.35 -0.5 L-3.3 -0.55 -2.95 1.85 -3.1 2.0 Q-4.85 3.8 -6.25 6.85 L-6.4 7.25 -6.95 8.65 -7.0 8.75 -7.05 8.8 Q-5.2 11.95 -3.9 23.65 L-0.15 14.85 0.3 13.8 0.4 13.65 1.1 12.2 1.2 12.0 1.7 11.05 3.15 8.7 3.2 8.6 4.6 7.3 Q5.7 6.55 6.45 5.65 L7.65 3.9 8.3 2.15 8.45 1.45 8.5 0.95 8.4 0.9 M10.6 -0.2 L10.2 1.9 10.1 2.3 Q9.75 3.8 9.0 5.15 8.45 6.25 7.55 7.15 L7.3 7.4 7.0 7.75 6.8 8.0 5.2 9.35 11.75 19.05 Q12.55 18.35 13.05 18.35 L14.0 17.6 14.9 16.35 15.8 15.0 16.2 14.35 16.35 14.05 17.45 11.1 18.3 6.95 Q18.55 5.05 18.4 3.15 18.35 2.3 17.75 1.55 L16.05 -0.25 13.65 -2.05 Q12.05 -3.15 12.2 -1.6 L10.65 -2.85 10.6 -2.7 10.7 -1.85 10.7 -1.2 10.6 -0.2 M-8.25 1.2 L-10.75 4.6 -12.7 7.9 -14.2 11.25 -14.75 12.95 -15.1 14.65 -9.7 8.8 -9.3 8.5 -8.85 4.65 -8.25 1.2 M-3.7 15.65 L-3.95 15.7 -4.0 15.65 -3.7 15.65" fill="#5c2907" fill-rule="evenodd" stroke="none"/>
    <path d="M10.6 -0.2 L10.7 -1.2 10.7 -1.85 10.6 -2.7 10.65 -2.85 12.2 -1.6 Q12.05 -3.15 13.65 -2.05 L16.05 -0.25 17.75 1.55 Q18.35 2.3 18.4 3.15 18.55 5.05 18.3 6.95 L17.45 11.1 16.35 14.05 16.2 14.35 15.8 15.0 14.9 16.35 14.0 17.6 13.05 18.35 Q12.55 18.35 11.75 19.05 L5.2 9.35 6.8 8.0 7.0 7.75 7.3 7.4 7.55 7.15 Q8.45 6.25 9.0 5.15 9.75 3.8 10.1 2.3 L10.2 1.9 10.6 -0.2 M-8.25 1.2 L-8.85 4.65 -9.3 8.5 -9.7 8.8 -15.1 14.65 -14.75 12.95 -14.2 11.25 -12.7 7.9 -10.75 4.6 -8.25 1.2" fill="#ca590f" fill-rule="evenodd" stroke="none"/>
    <path d="M6.7 2.75 L6.8 2.7 7.05 2.5 7.4 3.8 7.1 2.45 7.2 2.4 7.1 2.0 7.05 1.8 Q7.45 3.15 7.4 2.75 L7.4 2.5 Q7.45 2.15 7.75 2.05 L8.1 1.75 8.3 2.15 7.65 3.9 6.45 5.65 Q5.7 6.55 4.6 7.3 L3.2 8.6 3.15 8.7 1.7 11.05 1.2 12.0 Q-1.05 12.35 -2.6 11.35 -3.85 10.5 -4.35 9.15 L-4.35 9.05 Q-4.7 6.6 -3.35 4.25 L-2.95 3.55 -2.6 3.75 -1.95 4.15 -1.45 4.4 -1.3 4.5 -1.3 4.8 -1.15 4.7 -1.1 4.55 -1.1 4.4 -0.95 4.45 -0.9 4.5 -1.05 4.35 -1.0 4.0 -0.8 4.5 Q1.1 5.35 6.05 3.1 L6.1 3.05 6.2 3.3 6.15 3.05 6.7 2.75 M7.0 1.8 L7.0 1.65 7.0 1.7 7.0 1.75 7.0 1.8 M-3.9 23.65 Q-5.2 11.95 -7.05 8.8 L-7.0 8.75 -6.95 8.65 -6.4 7.25 -6.3 8.95 -6.05 9.9 -6.05 9.95 Q-5.55 12.55 -3.55 13.95 -2.05 14.8 -0.15 14.85 L-3.9 23.65 M-3.7 15.65 L-4.0 15.65 -3.95 15.7 -3.7 15.65" fill="#f7b879" fill-rule="evenodd" stroke="none"/>
    <path d="M12.6 27.4 L8.05 22.15 Q8.45 19.75 8.25 16.8 L10.5 19.85 10.85 20.0 Q13.4 20.45 15.45 18.75 L16.05 18.2 Q15.65 22.65 14.2 25.5 L12.6 27.4" fill="#414141" fill-rule="evenodd" stroke="none"/>
    <path d="M18.25 14.85 Q18.2 22.35 15.9 26.55 L15.75 26.7 14.05 28.8 13.35 29.15 12.65 28.95 Q12.3 28.65 12.25 28.25 12.2 27.85 12.5 27.55 L12.6 27.4 14.2 25.5 Q15.65 22.65 16.05 18.2 L17.65 16.0 18.25 14.85" fill="#1e1e1e" fill-rule="evenodd" stroke="none"/>
    <path d="M8.1 1.75 L8.2 1.65 8.3 2.15 8.1 1.75 M7.25 -1.75 L5.85 -6.15 7.2 -5.5 7.55 -5.25 7.6 -5.2 8.0 -4.5 8.15 -4.15 8.55 -2.1 8.6 -1.2 7.25 -1.75 M-3.8 -3.1 L-3.3 -0.55 -3.35 -0.5 Q-5.25 1.0 -6.75 3.6 -6.25 1.2 -5.15 -1.05 L-3.8 -3.1 M-2.95 2.1 L-2.9 2.35 -3.4 3.35 -2.95 3.55 -3.35 4.25 Q-4.7 6.6 -4.35 9.05 L-4.35 9.15 -4.6 8.05 Q-4.95 5.6 -3.6 3.25 L-2.95 2.1 M5.6 13.25 L2.9 15.7 -3.9 23.65 3.8 10.75 3.9 10.9 4.0 11.05 5.6 13.25 M-2.85 2.85 L-2.85 2.9 -2.85 2.85 M-6.05 9.9 Q-5.45 11.85 -3.8 12.95 -2.0 13.95 0.3 13.8 L-0.15 14.85 Q-2.05 14.8 -3.55 13.95 -5.55 12.55 -6.05 9.95 L-6.05 9.9" fill="#95420b" fill-rule="evenodd" stroke="none"/>
    <path d="M8.2 1.65 L8.3 1.5 8.35 1.1 8.45 1.45 8.3 2.15 8.2 1.65 M-2.95 1.85 L-2.95 2.1 -3.6 3.25 Q-4.95 5.6 -4.6 8.05 L-4.35 9.15 Q-3.85 10.5 -2.6 11.35 -1.05 12.35 1.2 12.0 L1.1 12.2 Q-1.15 12.6 -2.75 11.6 L-4.05 10.3 Q-4.65 9.35 -4.85 8.15 -5.2 5.65 -3.75 3.15 L-3.1 2.0 -2.95 1.85 M-6.25 6.85 L-6.15 8.7 -6.15 8.85 Q-5.65 11.35 -3.65 12.8 -1.85 13.85 0.4 13.65 L0.3 13.8 Q-2.0 13.95 -3.8 12.95 -5.45 11.85 -6.05 9.9 L-6.3 8.95 -6.4 7.25 -6.25 6.85" fill="#8f3d05" fill-rule="evenodd" stroke="none"/>
    <path d="M8.35 1.1 L8.35 0.95 8.4 0.9 8.5 0.95 8.45 1.45 8.35 1.1 M-3.1 2.0 L-3.75 3.15 Q-5.2 5.65 -4.85 8.15 -4.65 9.35 -4.05 10.3 L-2.75 11.6 Q-1.15 12.6 1.1 12.2 L0.4 13.65 Q-1.85 13.85 -3.65 12.8 -5.65 11.35 -6.15 8.85 L-6.15 8.7 -6.25 6.85 Q-4.85 3.8 -3.1 2.0" fill="#ffd942" fill-rule="evenodd" stroke="none"/>
    <path d="M-4.7 -12.65 L-4.9 -13.05 -5.05 -13.35 -5.2 -13.65 -10.1 -22.55 -2.95 -24.6 Q-0.25 -25.3 1.55 -23.35 L2.55 -21.95 2.25 -20.7 2.2 -20.35 2.2 -17.55 2.45 -14.05 1.25 -13.65 Q-0.85 -12.7 -4.7 -12.65" fill="#db9c64" fill-rule="evenodd" stroke="none"/>
    <path d="M2.45 -14.05 L2.2 -17.55 2.2 -20.35 2.25 -20.7 2.55 -21.95 1.55 -23.35 Q-0.25 -25.3 -2.95 -24.6 L-10.1 -22.55 -5.2 -13.65 -5.05 -13.35 -4.9 -13.05 -4.7 -12.65 Q-3.75 -9.3 -3.15 -6.35 L-2.7 -4.2 -2.3 -1.25 -2.1 1.1 -2.05 1.6 -2.05 2.25 -1.95 4.15 -2.6 3.75 -2.95 3.55 -3.4 3.35 -2.9 2.35 -2.95 2.1 -2.95 1.85 -3.3 -0.55 -3.8 -3.1 -4.4 -5.45 Q-6.0 -11.25 -9.0 -16.6 L-12.45 -22.65 -12.55 -23.2 -12.35 -23.8 -11.9 -24.1 -3.45 -26.5 Q0.45 -27.55 3.0 -24.65 L4.5 -22.6 4.55 -21.9 4.15 -20.3 4.15 -20.25 4.2 -17.65 Q4.35 -12.85 5.35 -8.3 L5.85 -6.15 7.25 -1.75 8.0 0.05 8.65 0.65 8.4 0.9 8.35 0.95 8.35 1.1 8.3 1.5 8.2 1.65 8.1 1.75 7.75 2.05 Q7.45 2.15 7.4 2.5 L7.4 2.75 Q7.45 3.15 7.05 1.8 L7.05 1.75 7.0 1.7 7.0 1.65 7.0 1.8 6.95 2.0 7.0 2.0 7.1 2.0 7.2 2.4 7.1 2.45 7.4 3.8 7.05 2.5 6.8 2.7 6.7 2.75 6.3 2.35 6.25 2.3 5.95 2.45 5.2 -0.2 4.7 -2.45 3.85 -6.3 3.45 -8.3 2.45 -14.05 M-2.85 2.85 L-2.85 2.9 -2.85 2.85" fill="#5c4730" fill-rule="evenodd" stroke="none"/>
    <path d="M-4.7 -12.65 Q-0.85 -12.7 1.25 -13.65 L2.45 -14.05 3.45 -8.3 3.85 -6.3 4.7 -2.45 5.2 -0.2 5.95 2.45 6.25 2.3 6.3 2.35 6.7 2.75 6.15 3.05 6.2 3.3 6.1 3.05 6.05 3.1 Q1.1 5.35 -0.8 4.5 L-1.0 4.0 -1.05 4.35 -0.9 4.5 -0.95 4.45 -1.1 4.4 -1.1 4.55 -1.15 4.7 -1.3 4.5 -1.45 4.4 -1.95 4.15 -2.05 2.25 -2.05 1.6 -2.1 1.1 -2.3 -1.25 -2.7 -4.2 -3.15 -6.35 Q-3.75 -9.3 -4.7 -12.65 M7.2 2.4 L7.1 2.0 7.2 2.4" fill="#f1ba87" fill-rule="evenodd" stroke="none"/>
    <path d="M7.1 2.0 L7.0 2.0 6.95 2.0 7.0 1.8 7.0 1.75 7.0 1.7 7.05 1.75 7.05 1.8 7.1 2.0 M-1.3 4.5 L-1.15 4.7 -1.3 4.8 -1.3 4.5" fill="#ffcc99" fill-rule="evenodd" stroke="none"/>
  </g>
</svg>
