<?xml version="1.0" encoding="UTF-8" standalone="no"?>
<svg xmlns:ffdec="https://www.free-decompiler.com/flash" xmlns:xlink="http://www.w3.org/1999/xlink" ffdec:objectType="shape" height="30.85px" width="41.2px" xmlns="http://www.w3.org/2000/svg">
  <g transform="matrix(1.0, 0.0, 0.0, 1.0, 25.55, 7.1)">
    <path d="M-25.55 7.45 Q-25.45 7.2 -25.15 7.1 L-24.4 7.05 Q-16.4 9.85 -7.85 8.55 6.1 6.15 12.6 -6.45 12.8 -6.8 13.2 -6.95 L13.55 -7.0 13.6 -7.0 13.75 -7.1 15.2 -0.35 Q16.05 4.85 15.25 12.35 L15.0 12.95 14.8 13.35 Q5.75 25.65 -9.6 23.4 -17.65 22.1 -22.4 13.95 -24.45 9.3 -25.55 7.45 M-17.95 10.7 Q-17.1 11.35 -16.1 12.55 L-15.9 12.55 Q-13.95 13.4 -9.05 13.4 -4.5 13.4 1.1 11.75 4.5 10.7 7.25 8.9 L11.35 5.3 Q12.65 4.45 13.6 3.05 L13.2 -2.45 13.1 -3.25 Q6.1 8.15 -7.5 10.5 L-7.55 10.5 Q-12.85 11.35 -17.95 10.65 L-19.3 10.45 -23.1 9.6 Q-21.75 11.15 -20.7 12.95 L-20.65 12.95 Q-16.45 20.2 -9.3 21.45 L-9.3 21.4 Q-0.55 22.7 6.0 18.85 L7.0 18.25 6.75 18.4 6.7 18.1 6.7 16.85 Q6.55 9.55 13.05 9.55 L13.5 9.6 13.65 4.75 Q12.2 6.85 8.7 9.3 1.25 14.55 -9.4 14.55 -13.4 14.55 -15.5 13.7 L-16.0 13.85 Q-16.5 13.85 -21.1 10.1 L-19.3 10.5 -17.95 10.7 M13.35 11.2 L13.4 10.7 Q10.1 10.55 9.1 11.85 L8.3 14.4 Q7.9 15.25 7.65 17.8 10.7 15.55 13.2 12.15 L13.25 12.1 13.35 11.2" fill="#463624" fill-rule="evenodd" stroke="none"/>
    <path d="M-17.95 10.65 Q-12.85 11.35 -7.55 10.5 L-7.5 10.5 Q6.1 8.15 13.1 -3.25 L13.2 -2.45 13.6 3.05 Q12.65 4.45 11.35 5.3 L7.25 8.9 Q4.5 10.7 1.1 11.75 -4.5 13.4 -9.05 13.4 -13.95 13.4 -15.9 12.55 L-16.1 12.55 Q-17.1 11.35 -17.95 10.7 L-17.95 10.65" fill="#e5e5e5" fill-rule="evenodd" stroke="none"/>
    <path d="M-17.95 10.7 L-19.3 10.5 -21.1 10.1 Q-16.5 13.85 -16.0 13.85 L-15.5 13.7 Q-13.4 14.55 -9.4 14.55 1.25 14.55 8.7 9.3 12.2 6.85 13.65 4.75 L13.5 9.6 13.05 9.55 Q6.55 9.55 6.7 16.85 L6.7 18.1 6.75 18.4 7.0 18.25 6.0 18.85 Q-0.55 22.7 -9.3 21.4 L-9.3 21.45 Q-16.45 20.2 -20.65 12.95 L-20.7 12.95 Q-21.75 11.15 -23.1 9.6 L-19.3 10.45 -17.95 10.65 -17.95 10.7" fill="#57352d" fill-rule="evenodd" stroke="none"/>
    <path d="M13.35 11.2 L13.25 12.1 13.2 12.15 Q10.7 15.55 7.65 17.8 7.9 15.25 8.3 14.4 L9.1 11.85 Q10.1 10.55 13.4 10.7 L13.35 11.2" fill="#b45f50" fill-rule="evenodd" stroke="none"/>
  </g>
</svg>
