<?xml version="1.0" encoding="UTF-8" standalone="no"?>
<svg xmlns:ffdec="https://www.free-decompiler.com/flash" xmlns:xlink="http://www.w3.org/1999/xlink" ffdec:objectType="shape" height="30.85px" width="41.2px" xmlns="http://www.w3.org/2000/svg">
  <g transform="matrix(1.0, 0.0, 0.0, 1.0, 25.55, 7.1)">
    <path d="M-25.55 7.45 Q-25.45 7.2 -25.15 7.1 L-24.4 7.05 Q-16.4 9.85 -7.85 8.55 6.1 6.15 12.6 -6.45 12.8 -6.8 13.2 -6.95 L13.55 -7.0 13.6 -7.0 13.75 -7.1 15.2 -0.35 Q16.05 4.85 15.25 12.35 L15.0 12.95 14.8 13.35 Q5.75 25.65 -9.6 23.4 -17.65 22.1 -22.4 13.95 -24.45 9.3 -25.55 7.45 M13.6 2.95 L13.2 -2.45 13.1 -3.25 Q6.1 8.15 -7.5 10.5 L-7.55 10.5 Q-12.8 11.35 -17.85 10.65 L-18.6 10.5 -18.9 10.55 -19.3 10.45 -23.1 9.6 -21.95 11.0 -21.4 11.85 -20.7 12.95 -20.65 12.95 -20.6 13.05 -19.9 14.2 -19.9 14.15 -19.7 14.1 -15.65 16.8 -12.9 16.1 -12.5 16.0 -10.4 15.55 -10.25 15.5 -9.35 15.5 -9.25 15.75 -9.3 16.0 -9.35 16.0 -14.3 17.55 -14.8 19.05 -14.8 19.15 -14.85 19.3 -12.7 20.45 -9.3 21.45 -9.3 21.4 Q-0.55 22.7 6.0 18.85 L6.45 18.6 6.75 18.4 10.55 15.2 11.15 14.6 13.2 12.15 13.25 12.1 13.25 12.05 13.5 12.05 13.55 11.25 Q12.6 10.45 12.05 10.45 9.8 10.45 8.05 11.25 L8.0 11.3 7.95 11.3 7.4 11.65 6.35 12.2 6.3 12.2 6.2 12.2 5.7 12.2 5.6 12.0 Q5.6 11.6 7.0 10.95 L7.45 10.75 7.5 10.75 8.0 10.55 8.95 10.2 9.05 10.15 9.2 10.1 12.35 8.85 Q13.1 7.75 13.65 6.1 L13.65 6.85 13.7 6.05 13.7 6.0 13.65 3.85 13.55 3.15 13.6 3.05 13.6 2.95 M6.45 18.6 L5.75 19.15 6.45 18.6 M-15.0 19.2 L-15.85 18.6 -15.9 18.15 -17.7 16.7 -18.3 16.3 -18.15 16.5 -16.45 18.1 -15.0 19.2" fill="#463624" fill-rule="evenodd" stroke="none"/>
    <path d="M-19.9 14.2 L-20.6 13.05 -20.65 12.95 -20.7 12.95 -21.4 11.85 -21.95 11.0 -23.1 9.6 -19.3 10.45 -18.9 10.55 -18.6 10.5 -17.85 10.65 Q-12.8 11.35 -7.55 10.5 L-7.5 10.5 Q6.1 8.15 13.1 -3.25 L13.2 -2.45 13.6 2.95 13.55 3.0 13.45 3.15 13.55 3.15 13.65 3.85 13.7 6.0 13.7 6.05 13.65 6.1 Q13.1 7.75 12.35 8.85 L9.2 10.1 9.05 10.15 8.95 10.2 8.0 10.55 7.5 10.75 7.45 10.75 7.25 10.75 7.0 10.95 Q5.6 11.6 5.6 12.0 L5.7 12.2 6.2 12.2 6.3 12.2 6.35 12.2 7.4 11.65 7.95 11.3 8.0 11.3 8.05 11.3 8.05 11.25 Q9.8 10.45 12.05 10.45 12.6 10.45 13.55 11.25 L13.5 12.05 13.25 12.05 13.25 12.1 13.2 12.15 11.15 14.6 10.55 15.2 Q10.35 11.95 7.75 11.95 L5.3 12.65 5.05 12.6 4.95 12.3 Q4.95 11.6 9.0 8.55 9.5 8.15 9.95 6.95 L6.75 8.8 Q2.0 10.85 0.2 11.3 -6.15 12.8 -9.9 12.8 L-18.4 12.05 -21.15 11.25 Q-17.6 15.55 -12.3 15.55 L-8.0 15.3 -5.45 15.4 Q-5.35 15.45 -5.4 15.65 -6.55 16.4 -10.2 17.95 -11.6 18.85 -12.1 20.65 L-12.7 20.45 -14.85 19.3 -14.8 19.15 -14.8 19.1 -14.8 19.05 -14.3 17.55 -9.35 16.0 -9.3 16.0 -9.25 15.75 -9.35 15.5 -10.25 15.5 -10.4 15.55 -12.5 16.0 -12.9 16.1 -15.65 16.8 -19.7 14.1 -19.9 14.15 -19.9 14.2" fill="#e5e5e5" fill-rule="evenodd" stroke="none"/>
    <path d="M13.6 2.95 L13.6 3.05 13.55 3.15 13.45 3.15 13.55 3.0 13.6 2.95 M7.45 10.75 L7.0 10.95 7.25 10.75 7.45 10.75 M8.0 11.3 L8.05 11.25 8.05 11.3 8.0 11.3 M10.55 15.2 L6.75 18.4 6.45 18.6 6.0 18.85 Q-0.55 22.7 -9.3 21.4 L-9.3 21.45 -12.7 20.45 -12.1 20.65 Q-11.6 18.85 -10.2 17.95 -6.55 16.4 -5.4 15.65 -5.35 15.45 -5.45 15.4 L-8.0 15.3 -12.3 15.55 Q-17.6 15.55 -21.15 11.25 L-18.4 12.05 -9.9 12.8 Q-6.15 12.8 0.2 11.3 2.0 10.85 6.75 8.8 L9.95 6.95 Q9.5 8.15 9.0 8.55 4.95 11.6 4.95 12.3 L5.05 12.6 5.3 12.65 7.75 11.95 Q10.35 11.95 10.55 15.2" fill="#f9f9f9" fill-rule="evenodd" stroke="none"/>
    <path d="M-14.8 19.15 L-14.8 19.05 -14.8 19.1 -14.8 19.15 M-15.0 19.2 L-16.45 18.1 -18.15 16.5 -18.3 16.3 -17.7 16.7 -15.9 18.15 -15.85 18.6 -15.0 19.2" fill="#57352d" fill-rule="evenodd" stroke="none"/>
  </g>
</svg>
