<?xml version="1.0" encoding="UTF-8" standalone="no"?>
<svg xmlns:ffdec="https://www.free-decompiler.com/flash" xmlns:xlink="http://www.w3.org/1999/xlink" ffdec:objectType="shape" height="14.65px" width="27.85px" xmlns="http://www.w3.org/2000/svg">
  <g transform="matrix(1.0, 0.0, 0.0, 1.0, 13.6, -4.5)">
    <path d="M13.5 7.2 Q14.25 8.3 14.25 10.75 14.25 13.2 10.85 15.75 6.35 19.1 -1.25 19.1 L-5.85 19.0 -5.9 19.0 -7.1 19.15 Q-14.0 19.15 -13.55 13.55 L-13.45 12.75 Q-12.8 9.8 -6.65 7.2 -0.35 4.5 6.0 4.5 11.75 4.5 13.5 7.2 M-10.25 17.2 L-10.05 17.3 -9.1 17.7 Q2.65 18.85 8.0 15.7 12.35 13.15 12.35 10.4 12.35 6.25 4.75 6.25 -3.05 6.25 -8.3 9.55 -10.4 10.85 -12.05 12.35 L-11.35 13.3 -10.75 14.05 Q-8.95 12.35 -3.25 12.1 L-2.0 12.35 -1.9 12.5 -6.25 13.85 Q-7.15 14.15 -9.0 15.45 L-9.0 15.5 -9.1 15.7 -10.15 17.0 -10.5 17.1 -10.25 17.2" fill="#463624" fill-rule="evenodd" stroke="none"/>
    <path d="M-10.15 17.0 L-9.1 15.7 -9.0 15.5 -9.0 15.45 Q-7.15 14.15 -6.25 13.85 L-1.9 12.5 -2.0 12.35 -3.25 12.1 Q-8.95 12.35 -10.75 14.05 L-11.35 13.3 -12.05 12.35 Q-10.4 10.85 -8.3 9.55 -3.05 6.25 4.75 6.25 12.35 6.25 12.35 10.4 12.35 13.15 8.0 15.7 2.65 18.85 -9.1 17.7 L-10.05 17.3 -10.25 17.2 -10.15 17.0" fill="#e5e5e5" fill-rule="evenodd" stroke="none"/>
  </g>
</svg>
