<?xml version="1.0" encoding="UTF-8" standalone="no"?>
<svg xmlns:ffdec="https://www.free-decompiler.com/flash" xmlns:xlink="http://www.w3.org/1999/xlink" ffdec:objectType="shape" height="25.9px" width="35.65px" xmlns="http://www.w3.org/2000/svg">
  <g transform="matrix(1.0, 0.0, 0.0, 1.0, 18.8, 2.8)">
    <path d="M-11.05 6.95 Q-9.4 5.7 -7.3 4.35 0.55 -0.75 6.0 -0.75 11.3 -0.75 13.9 3.55 L14.95 5.65 14.45 5.35 Q13.85 4.7 11.25 4.7 L9.75 4.75 Q-5.25 10.35 -6.75 10.35 -7.25 10.35 -9.15 8.55 L-11.05 6.95" fill="#e5e5e5" fill-rule="evenodd" stroke="none"/>
    <path d="M-11.05 6.95 L-9.15 8.55 Q-7.25 10.35 -6.75 10.35 -5.25 10.35 9.75 4.75 L11.25 4.7 Q13.85 4.7 14.45 5.35 L14.95 5.65 13.9 3.55 Q11.3 -0.75 6.0 -0.75 0.55 -0.75 -7.3 4.35 -9.4 5.7 -11.05 6.95 L-11.55 7.3 -11.05 6.95 M15.45 7.2 L15.35 7.2 Q14.05 7.2 13.65 6.6 13.3 6.0 11.05 6.0 7.4 6.0 0.8 8.75 -5.75 11.5 -6.6 11.5 -8.45 11.5 -11.9 7.6 L-12.55 8.15 -15.4 10.75 Q-12.95 12.55 -12.6 15.85 -12.45 17.75 -12.55 21.5 L-6.0 21.75 Q0.45 21.75 5.0 20.65 L5.05 20.65 5.85 20.4 4.95 20.65 4.9 20.4 Q4.9 19.95 5.65 19.55 6.4 19.2 6.4 18.85 5.65 18.65 5.0 18.1 2.25 20.6 -0.25 20.6 -4.1 20.6 -4.1 17.65 -4.1 15.85 -2.5 13.6 0.0 10.15 4.75 10.15 9.3 10.15 12.0 12.5 13.8 14.05 14.0 15.4 16.25 12.3 15.6 8.75 L15.45 7.25 15.35 6.75 15.45 7.2 M16.85 8.6 Q16.85 13.75 14.75 16.5 9.65 23.1 -6.1 23.1 L-13.95 23.05 -14.1 22.8 Q-13.9 22.4 -14.05 22.1 L-13.9 20.75 -13.8 18.25 Q-13.8 11.75 -16.7 11.75 -17.25 11.75 -18.25 12.6 -18.8 12.4 -18.8 11.8 -2.1 -2.8 7.6 -2.8 12.7 -2.8 15.3 2.75 16.6 5.55 16.85 8.6 M10.7 18.35 Q12.1 17.5 13.15 16.4 L12.6 15.7 11.75 13.95 Q10.0 11.4 4.75 11.4 -1.1 11.4 -2.65 16.15 L-3.0 17.4 Q-3.0 19.25 -0.85 19.25 2.2 19.25 4.45 17.15 6.0 15.7 6.6 14.0 L7.0 13.85 7.35 14.2 7.05 15.65 6.3 16.85 6.2 16.95 6.35 16.9 6.7 16.9 7.0 16.95 8.65 17.75 8.75 17.9 8.9 18.2 8.9 18.3 9.0 19.0 8.9 19.3 9.1 19.2 10.7 18.35 M7.6 13.55 L7.6 14.9 7.25 15.65 7.25 15.3 7.35 14.25 7.55 14.2 7.6 13.55" fill="#463624" fill-rule="evenodd" stroke="none"/>
    <path d="M5.0 20.65 Q0.45 21.75 -6.0 21.75 L-12.55 21.5 Q-12.45 17.75 -12.6 15.85 -12.95 12.55 -15.4 10.75 L-12.55 8.15 -11.9 7.6 Q-8.45 11.5 -6.6 11.5 -5.75 11.5 0.8 8.75 7.4 6.0 11.05 6.0 13.3 6.0 13.65 6.6 14.05 7.2 15.35 7.2 L15.45 7.2 15.45 7.25 15.6 8.75 Q16.25 12.3 14.0 15.4 13.8 14.05 12.0 12.5 9.3 10.15 4.75 10.15 0.0 10.15 -2.5 13.6 -4.1 15.85 -4.1 17.65 -4.1 20.6 -0.25 20.6 2.25 20.6 5.0 18.1 5.65 18.65 6.4 18.85 6.4 19.2 5.65 19.55 4.9 19.95 4.9 20.4 L4.95 20.65 5.0 20.65" fill="#57352d" fill-rule="evenodd" stroke="none"/>
    <path d="M-2.65 16.15 Q-1.1 11.4 4.75 11.4 10.0 11.4 11.75 13.95 L12.6 15.7 13.15 16.4 Q12.1 17.5 10.7 18.35 L10.75 17.75 Q10.25 13.15 7.1 13.15 L5.4 15.35 Q3.7 17.5 0.75 17.5 -1.55 17.5 -2.65 16.15 M6.7 16.9 L6.35 16.9 6.3 16.85 7.05 15.65 6.7 16.9" fill="#b45f50" fill-rule="evenodd" stroke="none"/>
    <path d="M-2.65 16.15 Q-1.55 17.5 0.75 17.5 3.7 17.5 5.4 15.35 L7.1 13.15 Q10.25 13.15 10.75 17.75 L10.7 18.35 9.1 19.2 9.0 19.0 8.9 18.3 8.9 18.2 8.75 17.9 8.65 17.75 7.0 16.95 6.7 16.9 7.05 15.65 7.35 14.2 7.0 13.85 6.6 14.0 Q6.0 15.7 4.45 17.15 2.2 19.25 -0.85 19.25 -3.0 19.25 -3.0 17.4 L-2.65 16.15 M7.6 13.55 L7.55 14.2 7.35 14.25 7.25 15.3 7.25 15.65 7.6 14.9 7.6 13.55" fill="#a05345" fill-rule="evenodd" stroke="none"/>
  </g>
</svg>
