<?xml version="1.0" encoding="UTF-8" standalone="no"?>
<svg xmlns:ffdec="https://www.free-decompiler.com/flash" xmlns:xlink="http://www.w3.org/1999/xlink" ffdec:objectType="shape" height="16.6px" width="36.9px" xmlns="http://www.w3.org/2000/svg">
  <g transform="matrix(1.0, 0.0, 0.0, 1.0, 23.15, 1.6)">
    <path d="M8.9 -1.4 L8.45 -1.15 Q13.2 -1.1 13.75 6.1 10.7 15.2 5.7 15.0 0.65 14.75 -5.3 13.5 -11.0 12.3 -14.5 10.65 -19.4 10.45 -21.65 9.05 L-23.15 6.45 Q-13.45 9.75 -3.7 6.45 3.05 4.0 7.9 -1.4 L8.7 -1.5 Q9.6 -1.4 8.9 -1.4 M11.3 7.35 L7.75 7.1 Q6.5 7.1 5.65 9.75 4.95 11.8 5.3 13.1 5.6 12.75 7.05 12.75 8.4 12.75 10.15 9.6 L11.35 7.35 11.5 6.95 11.3 7.35 M11.75 5.85 Q11.75 2.9 7.1 1.9 5.75 3.85 1.6 6.7 -2.35 9.35 -7.35 10.25 L-3.5 11.15 2.75 12.45 3.9 12.9 Q3.8 12.75 4.05 11.3 4.25 9.85 5.4 7.55 6.55 5.2 8.25 5.25 L11.25 5.75 11.75 5.95 11.75 5.85" fill="#463624" fill-rule="evenodd" stroke="none"/>
    <path d="M11.35 7.35 L10.15 9.6 Q8.4 12.75 7.05 12.75 5.6 12.75 5.3 13.1 4.95 11.8 5.65 9.75 6.5 7.1 7.75 7.1 L11.3 7.35 11.35 7.35" fill="#b45f50" fill-rule="evenodd" stroke="none"/>
    <path d="M11.75 5.95 L11.25 5.75 8.25 5.25 Q6.55 5.2 5.4 7.55 4.25 9.85 4.05 11.3 3.8 12.75 3.9 12.9 L2.75 12.45 -3.5 11.15 -7.35 10.25 Q-2.35 9.35 1.6 6.7 5.75 3.85 7.1 1.9 11.75 2.9 11.75 5.85 L11.75 5.95" fill="#57352d" fill-rule="evenodd" stroke="none"/>
  </g>
</svg>
