<?xml version="1.0" encoding="UTF-8" standalone="no"?>
<svg xmlns:ffdec="https://www.free-decompiler.com/flash" xmlns:xlink="http://www.w3.org/1999/xlink" ffdec:objectType="shape" height="7.85px" width="23.45px" xmlns="http://www.w3.org/2000/svg">
  <g transform="matrix(1.0, 0.0, 0.0, 1.0, 16.05, -10.15)">
    <path d="M5.3 11.85 L5.65 12.1 5.35 11.85 4.9 11.6 4.6 11.65 2.05 11.4 Q-8.45 11.4 -11.3 12.75 -10.75 13.85 -10.75 14.65 L-10.75 15.6 -5.6 14.9 -2.1 15.2 Q-2.0 14.05 -0.25 12.9 1.7 11.65 4.25 11.65 L5.3 11.85 M6.5 14.55 Q6.5 13.35 6.05 12.6 5.35 13.2 3.8 13.2 1.85 13.15 1.25 13.6 0.2 14.3 0.15 15.0 0.1 15.35 -0.7 15.35 L-0.75 15.4 0.0 15.55 5.9 16.15 Q6.5 16.15 6.5 14.55 M5.35 17.25 L0.2 16.65 -6.1 16.0 Q-9.25 16.0 -11.85 17.0 -14.45 18.0 -15.1 18.0 L-15.55 17.9 -15.75 17.4 Q-15.75 16.75 -11.95 15.85 L-11.55 15.75 Q-12.5 14.85 -12.5 12.7 L-15.9 14.0 Q-16.05 14.4 -16.05 13.75 -16.05 13.0 -11.85 12.0 L-12.3 12.1 Q-11.8 11.55 -10.05 11.3 L-5.65 10.85 -2.6 10.55 0.25 10.25 2.0 10.15 4.75 10.45 Q7.5 11.15 7.4 14.5 7.4 17.25 5.35 17.25" fill="#463624" fill-rule="evenodd" stroke="none"/>
    <path d="M6.5 14.55 Q6.5 16.15 5.9 16.15 L0.0 15.55 -0.75 15.4 -0.7 15.35 Q0.1 15.35 0.15 15.0 0.2 14.3 1.25 13.6 1.85 13.15 3.8 13.2 5.35 13.2 6.05 12.6 6.5 13.35 6.5 14.55" fill="#b45f50" fill-rule="evenodd" stroke="none"/>
    <path d="M5.35 11.85 L5.3 11.85 4.25 11.65 Q1.7 11.65 -0.25 12.9 -2.0 14.05 -2.1 15.2 L-5.6 14.9 -10.75 15.6 -10.75 14.65 Q-10.75 13.85 -11.3 12.75 -8.45 11.4 2.05 11.4 L4.6 11.65 4.9 11.6 5.35 11.85" fill="#57352d" fill-rule="evenodd" stroke="none"/>
  </g>
</svg>
