<?xml version="1.0" encoding="UTF-8" standalone="no"?>
<svg xmlns:ffdec="https://www.free-decompiler.com/flash" xmlns:xlink="http://www.w3.org/1999/xlink" ffdec:objectType="shape" height="184.2px" width="170.65px" xmlns="http://www.w3.org/2000/svg">
  <g transform="matrix(1.0, 0.0, 0.0, 1.0, 111.1, 145.1)">
    <path d="M-6.75 -128.5 L-6.45 -128.55 -6.2 -128.6 -6.25 -128.6 -5.3 -128.75 Q5.85 -130.8 15.85 -126.8 L16.85 -126.4 18.55 -125.6 Q16.6 -127.2 14.5 -128.4 4.55 -134.25 -8.35 -131.75 L-8.6 -131.7 -9.6 -131.5 -10.9 -131.15 -11.75 -130.9 -11.8 -130.9 Q-19.65 -128.9 -25.85 -125.0 -37.45 -117.85 -43.65 -104.35 -51.2 -87.95 -55.75 -71.0 L-57.75 -71.25 Q-53.15 -88.55 -45.45 -105.2 -39.9 -117.4 -30.05 -124.6 -22.45 -130.2 -12.3 -132.85 L-11.75 -133.0 -10.45 -133.35 -9.0 -133.65 Q0.3 -135.5 8.2 -133.3 12.15 -132.2 15.7 -130.05 20.9 -126.95 25.4 -121.7 L25.6 -120.95 25.6 -120.85 29.5 -116.55 29.75 -116.25 30.35 -115.6 31.9 -113.85 31.95 -113.9 32.55 -113.1 33.25 -112.2 35.25 -109.15 35.75 -108.3 34.4 -107.5 34.0 -107.25 33.5 -108.15 31.45 -111.2 30.95 -111.85 30.55 -112.4 30.4 -112.55 28.45 -114.75 Q23.9 -119.4 17.75 -122.05 7.9 -126.45 -2.95 -125.15 L-4.05 -125.0 -4.55 -124.95 Q-15.55 -123.45 -22.35 -114.6 -24.65 -111.65 -26.55 -108.4 -30.55 -101.85 -32.95 -94.3 -36.65 -82.7 -39.5 -70.65 L-44.35 -49.7 Q-46.7 -39.15 -48.35 -28.5 L-49.3 -21.8 -49.65 -18.7 -50.15 -14.15 -50.35 -12.15 -50.5 -10.45 -50.55 -9.45 -50.6 -8.8 -52.6 -9.3 -52.55 -9.75 -52.45 -10.75 -52.3 -12.5 -52.15 -14.45 -51.65 -19.0 -51.25 -22.15 -50.35 -28.8 Q-48.7 -39.55 -46.3 -50.15 L-44.15 -59.75 -43.95 -59.45 -43.5 -59.05 -42.95 -58.95 Q-42.65 -59.0 -42.4 -59.2 L-42.1 -59.7 -41.0 -64.5 -41.1 -65.15 -42.3 -67.6 -41.45 -71.1 Q-38.55 -83.2 -34.85 -94.9 -31.8 -104.5 -26.25 -112.65 L-23.95 -115.8 Q-16.75 -125.2 -5.15 -126.9 L-4.85 -126.95 -4.8 -126.95 -4.0 -127.05 Q7.8 -128.7 18.55 -123.9 L20.5 -123.0 22.5 -121.9 22.05 -122.4 19.45 -124.0 15.5 -125.85 Q6.05 -129.65 -4.55 -127.9 L-4.6 -127.9 -5.7 -127.65 -6.05 -127.6 -6.1 -127.6 -6.8 -127.45 -6.85 -127.45 Q-18.05 -125.95 -25.0 -116.9 L-25.65 -116.05 Q-32.25 -107.2 -35.65 -96.45 -39.35 -84.8 -42.25 -72.75 L-43.15 -69.1 -43.2 -69.2 -43.65 -69.4 -44.05 -69.45 -43.2 -73.0 Q-40.35 -85.1 -36.6 -96.75 -33.0 -108.2 -25.8 -117.5 L-25.05 -118.4 Q-18.05 -126.95 -7.0 -128.45 L-7.05 -128.4 -6.75 -128.5 M-107.5 -24.2 Q-109.3 -25.3 -110.7 -26.95 L-110.9 -27.35 -110.9 -27.8 -109.85 -32.5 -109.0 -36.25 -107.55 -41.95 -106.5 -45.95 -105.05 -51.15 -102.6 -58.85 -102.05 -60.55 -99.95 -66.6 -99.9 -66.65 -98.15 -71.25 -98.0 -71.25 -96.15 -71.0 -98.05 -65.95 -100.15 -59.9 -103.15 -50.6 -104.5 -45.75 -106.8 -36.95 -107.8 -32.6 -108.75 -28.35 -108.85 -27.85 -108.5 -27.5 Q-107.25 -26.3 -105.65 -25.45 L-104.95 -25.1 -104.9 -25.1 -102.95 -24.45 -101.65 -24.3 -100.7 -24.3 -100.6 -24.4 -100.55 -24.8 -100.35 -25.85 -99.85 -28.35 -99.45 -30.5 -99.4 -30.55 -98.4 -35.6 -98.1 -37.2 -97.1 -41.5 -96.6 -43.5 -95.05 -49.45 -93.6 -54.75 -91.95 -59.95 -90.15 -65.1 -88.3 -70.05 -87.6 -69.95 -87.4 -69.6 -89.2 -64.75 -91.0 -59.6 -91.0 -59.65 -92.65 -54.45 -94.1 -49.2 -95.65 -43.25 -96.15 -41.25 -97.1 -37.0 -97.5 -35.1 -98.45 -30.3 -98.5 -29.9 -98.95 -27.75 -99.0 -27.55 -99.35 -27.2 -99.5 -26.45 -99.3 -26.0 -99.35 -25.55 -99.1 -25.8 -97.35 -24.7 -97.75 -24.35 -98.5 -23.65 -99.3 -22.9 -99.6 -22.6 -100.15 -22.35 -101.95 -22.3 -103.0 -22.4 Q-104.45 -22.65 -105.75 -23.3 L-105.75 -23.25 -105.9 -23.35 -107.5 -24.2 M-69.6 -117.9 L-66.6 -121.25 -66.6 -121.2 -65.35 -122.5 -65.3 -122.5 -62.7 -124.95 -58.75 -128.05 -56.65 -129.6 Q-55.65 -130.35 -54.5 -130.9 L-54.55 -130.9 -51.05 -132.75 -50.3 -133.15 -50.25 -133.15 -48.05 -134.05 -45.95 -134.85 -45.85 -134.9 -43.6 -135.5 -42.0 -135.85 -41.25 -136.0 -41.3 -135.95 -36.8 -136.7 -36.65 -136.7 Q-35.7 -136.65 -35.0 -136.15 -34.4 -135.75 -33.95 -135.0 L-33.95 -134.95 -33.4 -133.95 -33.3 -133.55 -33.35 -133.15 -33.45 -132.9 -34.4 -130.45 -34.8 -129.45 -35.0 -129.1 -35.35 -128.85 -35.7 -128.7 -36.2 -128.55 -36.9 -128.5 -39.3 -128.25 Q-42.7 -127.7 -45.75 -126.05 -48.9 -124.4 -51.55 -122.1 L-51.55 -122.05 -52.3 -121.4 Q-58.0 -116.45 -62.4 -110.6 L-67.15 -104.1 -68.9 -101.5 -68.9 -101.45 -71.9 -96.7 -77.35 -86.55 -81.8 -77.2 -83.85 -72.35 -83.9 -72.45 -85.05 -74.75 -83.65 -78.0 -79.15 -87.45 Q-76.6 -92.7 -73.65 -97.7 L-70.55 -102.6 -64.0 -111.8 -60.65 -115.95 Q-57.1 -120.0 -52.85 -123.6 -50.0 -126.0 -46.7 -127.8 -41.9 -130.4 -36.5 -130.55 L-36.3 -131.15 -37.0 -130.95 -37.05 -130.95 Q-39.95 -130.85 -42.9 -130.0 -47.1 -128.65 -50.5 -125.8 L-56.4 -120.6 -58.9 -118.25 -58.85 -118.25 -60.15 -116.85 -61.6 -115.25 -63.65 -112.8 -63.65 -112.85 -66.95 -108.5 -70.15 -103.75 -73.2 -98.9 -76.15 -93.95 -78.9 -88.9 -81.2 -84.3 -83.35 -79.55 -85.2 -75.05 -85.5 -75.4 -85.95 -75.6 -86.1 -75.6 -84.25 -79.95 -82.1 -84.7 -79.8 -89.35 -77.0 -94.45 -74.05 -99.4 -71.0 -104.3 -67.75 -109.05 -67.75 -109.1 -65.2 -112.5 -64.45 -113.45 -60.9 -117.55 -59.7 -118.85 -59.6 -118.95 -57.05 -121.35 -57.1 -121.35 -51.15 -126.55 Q-47.6 -129.55 -43.2 -130.95 L-43.15 -130.95 Q-40.1 -131.85 -37.2 -131.95 -36.35 -132.1 -35.7 -132.6 L-35.4 -133.4 -35.7 -134.0 Q-36.05 -134.6 -36.6 -134.7 L-36.65 -134.7 -40.95 -134.0 -41.0 -134.0 -43.05 -133.55 -43.1 -133.55 -43.7 -133.4 -45.3 -132.95 -45.25 -133.0 -47.35 -132.2 -47.3 -132.2 -49.4 -131.35 -49.45 -131.3 -50.15 -130.95 -53.55 -129.15 -55.5 -127.95 -55.55 -127.95 -57.45 -126.5 -57.5 -126.45 -61.4 -123.45 -63.75 -121.25 -63.95 -121.1 -63.95 -121.05 -65.15 -119.85 -68.25 -116.45 -68.85 -115.65 -68.9 -115.65 -76.2 -106.7 Q-79.7 -102.15 -82.8 -97.4 -85.85 -92.65 -88.5 -87.6 -91.15 -82.65 -93.4 -77.45 L-93.45 -77.4 -93.8 -76.65 -95.85 -76.9 -95.25 -78.25 Q-92.95 -83.55 -90.25 -88.55 L-84.5 -98.45 -84.45 -98.5 Q-81.3 -103.35 -77.8 -107.9 L-70.4 -116.9 -70.4 -116.95 -69.6 -117.9 M-69.8 -6.9 L-69.85 -7.0 -69.95 -7.6 -69.05 -13.05 -68.9 -14.05 -68.6 -15.85 -68.3 -17.8 -67.45 -22.7 -66.8 -26.45 Q-63.9 -43.4 -60.7 -58.75 L-59.55 -64.05 -57.6 -63.8 -58.75 -58.35 Q-61.95 -42.85 -64.9 -25.7 L-65.5 -22.15 -66.3 -17.3 -66.65 -15.35 -66.95 -13.6 -67.1 -12.6 -67.85 -8.0 Q-66.4 -7.25 -64.95 -6.7 L-62.65 -6.05 -57.75 -5.6 -55.4 -5.8 -55.35 -5.85 -54.85 -10.15 -54.7 -11.15 -54.5 -12.85 -54.3 -14.8 -53.7 -19.4 -53.25 -22.55 -52.1 -30.7 Q-50.45 -41.45 -48.1 -52.05 L-45.75 -62.3 -45.65 -62.3 -45.0 -61.15 -47.1 -51.85 Q-49.45 -41.25 -51.1 -30.55 L-52.3 -22.35 -52.7 -19.2 -53.3 -14.65 -53.5 -12.7 -53.7 -10.95 -53.85 -10.0 -54.0 -8.7 -54.0 -8.65 -54.05 -8.3 -54.2 -6.8 -53.4 -7.45 -53.3 -7.4 -50.75 -6.75 -50.75 -6.6 -51.3 -6.6 -54.3 -4.1 -54.6 -3.95 -54.75 -3.9 -56.6 -3.65 Q-60.45 -3.35 -64.15 -4.35 L-66.1 -5.0 -69.0 -6.3 -69.45 -6.55 -69.8 -6.9 M-98.4 -27.6 L-98.05 -29.55 -97.8 -30.85 -97.05 -34.85 -96.8 -36.15 -95.7 -41.3 -95.65 -41.55 -94.3 -47.25 -92.85 -52.5 -92.85 -52.55 -91.2 -57.8 -89.5 -63.0 -87.6 -68.15 -87.65 -68.15 -87.2 -69.3 -86.45 -68.0 Q-86.25 -67.65 -85.8 -67.55 L-85.7 -67.55 -85.75 -67.45 -87.6 -62.35 -89.3 -57.2 -90.95 -51.95 -92.35 -46.75 -93.7 -41.1 -94.85 -35.75 -95.25 -33.95 -95.85 -30.5 -96.25 -28.4 -96.55 -26.55 -98.0 -27.45 -98.4 -27.6" fill="#002142" fill-rule="evenodd" stroke="none"/>
    <path d="M-10.9 -131.15 L-9.6 -131.5 -8.6 -131.7 -8.35 -131.75 Q4.55 -134.25 14.5 -128.4 16.6 -127.2 18.55 -125.6 L16.85 -126.4 15.85 -126.8 Q5.85 -130.8 -5.3 -128.75 L-6.25 -128.6 -6.2 -128.6 -6.45 -128.55 -6.75 -128.5 -10.9 -131.15 M-43.15 -69.1 L-42.25 -72.75 Q-39.35 -84.8 -35.65 -96.45 -32.25 -107.2 -25.65 -116.05 L-25.0 -116.9 Q-18.05 -125.95 -6.85 -127.45 L-6.8 -127.45 -6.1 -127.6 -6.05 -127.6 -5.7 -127.65 -4.6 -127.9 -4.55 -127.9 Q6.05 -129.65 15.5 -125.85 L19.45 -124.0 22.05 -122.4 22.5 -121.9 20.5 -123.0 18.55 -123.9 Q7.8 -128.7 -4.0 -127.05 L-4.8 -126.95 -4.85 -126.95 -5.15 -126.9 Q-16.75 -125.2 -23.95 -115.8 L-26.25 -112.65 Q-31.8 -104.5 -34.85 -94.9 -38.55 -83.2 -41.45 -71.1 L-42.3 -67.6 -42.9 -68.8 -43.15 -69.1 M-44.15 -59.75 L-46.3 -50.15 Q-48.7 -39.55 -50.35 -28.8 L-51.25 -22.15 -51.65 -19.0 -52.15 -14.45 -52.3 -12.5 -52.45 -10.75 -52.55 -9.75 -52.6 -9.3 -52.8 -9.35 -53.55 -9.25 -54.0 -8.7 -53.85 -10.0 -53.7 -10.95 -53.5 -12.7 -53.3 -14.65 -52.7 -19.2 -52.3 -22.35 -51.1 -30.55 Q-49.45 -41.25 -47.1 -51.85 L-45.0 -61.15 -44.15 -59.75 M-63.75 -121.25 L-61.4 -123.45 -57.5 -126.45 -57.45 -126.5 -55.55 -127.95 -55.5 -127.95 -53.55 -129.15 -50.15 -130.95 -49.45 -131.3 -49.4 -131.35 -47.3 -132.2 -47.35 -132.2 -45.25 -133.0 -45.3 -132.95 -43.7 -133.4 -43.1 -133.55 -43.05 -133.55 -41.0 -134.0 -40.95 -134.0 -36.65 -134.7 -36.6 -134.7 Q-36.05 -134.6 -35.7 -134.0 L-35.4 -133.4 -35.7 -132.6 Q-36.35 -132.1 -37.2 -131.95 -40.1 -131.85 -43.15 -130.95 L-43.2 -130.95 Q-47.6 -129.55 -51.15 -126.55 L-57.1 -121.35 -57.05 -121.35 -59.6 -118.95 -59.7 -118.85 -63.75 -121.25 M-85.2 -75.05 L-83.35 -79.55 -81.2 -84.3 -78.9 -88.9 -76.15 -93.95 -73.2 -98.9 -70.15 -103.75 -66.95 -108.5 -63.65 -112.85 -63.65 -112.8 -61.6 -115.25 -60.15 -116.85 -58.85 -118.25 -58.9 -118.25 -56.4 -120.6 -50.5 -125.8 Q-47.1 -128.65 -42.9 -130.0 -39.95 -130.85 -37.05 -130.95 L-37.0 -130.95 -36.3 -131.15 -36.5 -130.55 Q-41.9 -130.4 -46.7 -127.8 -50.0 -126.0 -52.85 -123.6 -57.1 -120.0 -60.65 -115.95 L-64.0 -111.8 -70.55 -102.6 -73.65 -97.7 Q-76.6 -92.7 -79.15 -87.45 L-83.65 -78.0 -85.05 -74.75 -85.2 -75.05 M-87.2 -69.3 L-87.65 -68.15 -87.6 -68.15 -89.5 -63.0 -91.2 -57.8 -92.85 -52.55 -92.85 -52.5 -94.3 -47.25 -95.65 -41.55 -95.7 -41.3 -96.8 -36.15 -97.05 -34.85 -97.8 -30.85 -98.05 -29.55 -98.4 -27.6 -98.75 -27.6 -99.0 -27.55 -98.95 -27.75 -98.5 -29.9 -98.45 -30.3 -97.5 -35.1 -97.1 -37.0 -96.15 -41.25 -95.65 -43.25 -94.1 -49.2 -92.65 -54.45 -91.0 -59.65 -91.0 -59.6 -89.2 -64.75 -87.4 -69.6 -87.2 -69.3 M-99.3 -26.0 L-99.1 -25.8 -99.35 -25.55 -99.3 -26.0 M-53.4 -7.45 L-54.2 -6.8 -54.05 -8.3 -53.9 -7.9 -53.4 -7.45" fill="#0a3e78" fill-rule="evenodd" stroke="none"/>
    <path d="M-50.35 -12.15 L-50.15 -14.15 Q-39.45 -12.45 -27.3 -11.6 -10.0 -10.4 4.8 -11.15 L5.95 -11.25 Q18.75 -12.05 29.65 -14.35 46.4 -18.0 51.0 -28.35 54.15 -36.9 52.75 -55.35 51.3 -73.85 49.55 -79.05 44.55 -94.1 34.4 -107.5 L35.75 -108.3 35.25 -109.15 33.25 -112.2 Q45.7 -97.0 51.45 -79.7 53.2 -74.35 54.35 -68.85 56.5 -58.35 56.35 -47.1 L56.35 -47.05 55.85 -34.65 55.7 -31.7 55.55 -29.2 55.6 -29.2 55.5 -28.25 55.5 -28.2 Q55.3 -25.15 53.1 -22.5 L53.05 -22.5 Q47.7 -16.2 30.05 -12.4 20.7 -10.4 10.0 -9.55 -7.0 -8.15 -27.45 -9.6 -39.6 -10.5 -50.35 -12.15 M28.45 -114.75 L30.4 -112.55 30.55 -112.4 30.95 -111.85 31.45 -111.2 28.45 -114.75 M30.35 -115.6 L29.75 -116.25 29.5 -116.55 30.35 -115.6 M15.7 -130.05 Q12.15 -132.2 8.2 -133.3 -7.7 -144.5 -21.5 -142.85 -31.35 -141.6 -42.0 -135.85 L-43.6 -135.5 -45.85 -134.9 -45.95 -134.85 -48.05 -134.05 -50.25 -133.15 -50.3 -133.15 -51.05 -132.75 Q-35.55 -143.1 -21.75 -144.85 -4.5 -147.1 15.7 -130.05 M-106.5 -45.95 L-106.5 -46.1 -105.4 -54.6 Q-104.15 -62.45 -102.0 -68.95 -100.25 -74.5 -97.8 -79.8 -88.85 -99.6 -71.65 -115.95 L-69.6 -117.9 -70.4 -116.95 -70.4 -116.9 -77.8 -107.9 Q-81.3 -103.35 -84.45 -98.5 L-84.5 -98.45 Q-91.35 -89.2 -96.0 -78.95 L-96.85 -77.05 -97.45 -76.85 -97.85 -76.3 -98.85 -72.5 -98.85 -71.95 -100.1 -68.35 -100.1 -68.3 Q-101.6 -63.9 -102.6 -58.85 L-105.05 -51.15 -106.5 -45.95 M-96.55 -26.55 L-96.25 -28.4 Q-93.45 -26.75 -89.75 -25.1 L-88.8 -24.65 -83.35 -22.5 -83.35 -22.45 Q-76.3 -19.85 -68.3 -17.8 L-68.6 -15.85 Q-76.85 -17.95 -84.05 -20.6 -89.9 -22.8 -94.3 -25.05 L-94.35 -25.1 -94.5 -25.2 -94.55 -25.25 -96.55 -26.55" fill="#2c525f" fill-rule="evenodd" stroke="none"/>
    <path d="M-6.75 -128.5 L-7.05 -128.4 -7.0 -128.45 Q-18.05 -126.95 -25.05 -118.4 L-25.8 -117.5 Q-33.0 -108.2 -36.6 -96.75 -40.35 -85.1 -43.2 -73.0 L-44.05 -69.45 -55.75 -71.0 Q-51.2 -87.95 -43.65 -104.35 -37.45 -117.85 -25.85 -125.0 -19.65 -128.9 -11.8 -130.9 L-11.75 -130.9 -10.9 -131.15 -6.75 -128.5 M-93.8 -76.65 L-93.45 -77.4 -93.4 -77.45 Q-91.15 -82.65 -88.5 -87.6 -85.85 -92.65 -82.8 -97.4 -79.7 -102.15 -76.2 -106.7 L-68.9 -115.65 -68.85 -115.65 -68.25 -116.45 -65.15 -119.85 -63.95 -121.05 -63.95 -121.1 -63.75 -121.25 -59.7 -118.85 -60.9 -117.55 -64.45 -113.45 -65.2 -112.5 -67.75 -109.1 -67.75 -109.05 -71.0 -104.3 -74.05 -99.4 -77.0 -94.45 -79.8 -89.35 -82.1 -84.7 -84.25 -79.95 -86.1 -75.6 -93.8 -76.65 M-88.3 -70.05 L-90.15 -65.1 -91.95 -59.95 -93.6 -54.75 -95.05 -49.45 -96.6 -43.5 -97.1 -41.5 -98.1 -37.2 -98.4 -35.6 -99.4 -30.55 -99.45 -30.5 -99.85 -28.35 -100.35 -25.85 -100.55 -24.8 -100.6 -24.4 -100.7 -24.3 -101.65 -24.3 -102.95 -24.45 -104.9 -25.1 -104.95 -25.1 -105.65 -25.45 Q-107.25 -26.3 -108.5 -27.5 L-108.85 -27.85 -108.75 -28.35 -107.8 -32.6 -106.8 -36.95 -104.5 -45.75 -103.15 -50.6 -100.15 -59.9 -98.05 -65.95 -96.15 -71.0 -88.3 -70.05 M-57.6 -63.8 L-45.75 -62.3 -48.1 -52.05 Q-50.45 -41.45 -52.1 -30.7 L-53.25 -22.55 -53.7 -19.4 -54.3 -14.8 -54.5 -12.85 -54.7 -11.15 -54.85 -10.15 -55.35 -5.85 -55.4 -5.8 -57.75 -5.6 -62.65 -6.05 -64.95 -6.7 Q-66.4 -7.25 -67.85 -8.0 L-67.1 -12.6 -66.95 -13.6 -66.65 -15.35 -66.3 -17.3 -65.5 -22.15 -64.9 -25.7 Q-61.95 -42.85 -58.75 -58.35 L-57.6 -63.8" fill="#0d519b" fill-rule="evenodd" stroke="none"/>
    <path d="M-49.65 -18.7 L-49.3 -21.8 Q-43.15 -20.75 -36.8 -20.4 -23.85 -19.15 -11.0 -21.3 -8.4 -21.85 -7.0 -23.85 L-6.6 -24.4 Q-15.4 -23.8 -33.0 -28.35 L-16.55 -27.35 Q-11.0 -27.05 -2.1 -28.7 L9.5 -31.35 -3.2 -30.4 Q-1.55 -33.95 -0.6 -37.7 -20.65 -34.75 -38.1 -41.7 -20.1 -36.6 -0.15 -39.8 L-0.1 -40.2 Q5.65 -41.15 11.15 -43.0 10.95 -27.75 7.15 -16.85 L-0.15 -16.45 -0.4 -16.45 Q-7.95 -16.1 -15.5 -16.05 -30.05 -15.95 -44.45 -18.0 L-49.65 -18.7 M-26.55 -108.4 Q-24.65 -111.65 -22.35 -114.6 -15.55 -123.45 -4.55 -124.95 L-4.05 -125.0 -3.35 -123.4 Q-3.55 -119.05 -7.6 -112.5 -14.6 -101.2 -1.75 -91.65 1.85 -89.0 5.9 -87.65 11.3 -62.2 11.15 -43.35 5.7 -42.05 0.15 -41.45 0.85 -46.25 0.55 -51.4 -12.6 -48.85 -25.45 -56.75 -14.0 -53.85 -3.6 -58.5 L0.0 -59.8 Q3.1 -61.1 6.2 -63.0 2.4 -62.05 -1.25 -61.9 -3.65 -70.25 -9.15 -77.4 L-13.4 -80.65 Q-25.3 -76.7 -34.6 -76.55 -25.65 -78.15 -17.25 -83.3 L-17.45 -83.5 Q-11.9 -86.5 -7.75 -89.9 -13.05 -86.8 -19.2 -85.1 -21.4 -87.35 -22.65 -90.05 -26.8 -99.15 -26.55 -108.4 M-11.75 -133.0 L-12.3 -132.85 Q-22.45 -130.2 -30.05 -124.6 L-32.6 -123.85 -37.5 -119.45 Q-37.65 -120.3 -38.3 -120.95 -39.05 -121.7 -40.15 -121.7 -41.25 -121.7 -42.05 -120.95 -42.8 -120.15 -42.8 -119.05 -42.8 -117.95 -42.05 -117.2 L-40.7 -116.45 Q-47.2 -110.3 -52.8 -103.45 L-53.15 -103.85 Q-53.9 -104.6 -55.0 -104.6 -56.1 -104.6 -56.9 -103.85 -57.65 -103.05 -57.65 -101.95 -57.65 -100.85 -56.9 -100.1 L-55.95 -99.45 -58.15 -96.45 -64.7 -86.5 -64.9 -86.75 Q-65.65 -87.5 -66.75 -87.5 -67.85 -87.5 -68.65 -86.75 -69.4 -85.95 -69.4 -84.85 -69.4 -83.75 -68.65 -83.0 -68.05 -82.4 -67.2 -82.2 L-72.4 -72.4 -73.4 -70.25 -73.45 -70.25 -74.25 -70.4 Q-75.35 -70.4 -76.15 -69.65 -76.9 -68.85 -76.9 -67.75 -76.9 -66.65 -76.15 -65.9 L-75.4 -65.35 -75.35 -65.3 Q-77.5 -59.3 -78.4 -52.95 -79.0 -53.3 -79.75 -53.3 -80.85 -53.3 -81.65 -52.55 -82.4 -51.75 -82.4 -50.65 -82.4 -49.55 -81.65 -48.8 -80.85 -48.0 -79.75 -48.0 L-78.95 -48.1 -79.0 -47.75 Q-80.05 -32.1 -66.8 -26.45 L-67.45 -22.7 -71.7 -24.05 Q-80.1 -26.9 -88.15 -30.55 -78.9 -102.95 -21.95 -137.7 L-21.2 -137.65 Q-15.65 -135.55 -11.75 -133.0 M44.2 -57.35 L42.4 -56.9 Q34.25 -54.1 25.15 -54.3 35.9 -52.5 44.85 -53.8 L45.25 -49.3 45.3 -48.05 Q47.9 -48.65 50.65 -49.65 48.45 -48.4 46.4 -47.4 L45.25 -46.85 41.85 -45.55 Q35.85 -42.55 27.6 -42.4 38.15 -40.65 44.95 -43.25 L44.75 -42.15 44.3 -40.1 44.0 -39.05 48.0 -41.95 44.4 -38.2 43.4 -37.3 Q36.2 -30.65 28.4 -28.15 L27.45 -27.85 27.35 -28.1 21.45 -27.15 Q30.55 -26.5 37.8 -28.3 L37.45 -27.95 Q27.85 -18.15 13.7 -17.35 L11.05 -17.15 Q19.3 -41.45 9.9 -86.7 L11.8 -86.5 Q25.9 -85.65 35.35 -74.7 41.65 -67.4 43.95 -58.5 L47.3 -58.9 47.5 -58.9 50.85 -59.55 47.7 -58.45 44.2 -57.35 M-83.85 -72.35 L-81.8 -77.2 -77.35 -86.55 -71.9 -96.7 -68.9 -101.45 -68.9 -101.5 -67.15 -104.1 Q-59.7 -113.9 -49.8 -122.9 L-52.3 -121.4 -51.55 -122.05 -51.55 -122.1 Q-48.9 -124.4 -45.75 -126.05 -42.7 -127.7 -39.3 -128.25 -82.35 -92.45 -92.35 -32.5 L-95.25 -33.95 -94.85 -35.75 -93.7 -41.1 -92.35 -46.75 -90.95 -51.95 -89.3 -57.2 -87.6 -62.35 -85.75 -67.45 -85.7 -67.55 -85.05 -67.7 -84.6 -68.3 -83.8 -71.75 Q-83.75 -72.1 -83.85 -72.35 M-33.45 -132.9 L-33.35 -133.15 -33.3 -133.55 -33.4 -133.95 -33.95 -134.95 -33.95 -135.0 Q-34.4 -135.75 -35.0 -136.15 L-31.3 -137.05 -26.75 -137.7 Q-30.2 -135.4 -33.45 -132.9 M-84.5 -98.45 L-90.25 -88.55 Q-92.95 -83.55 -95.25 -78.25 L-95.85 -76.9 -96.75 -77.05 -96.85 -77.05 -96.0 -78.95 Q-91.35 -89.2 -84.5 -98.45 M-98.15 -71.25 L-99.9 -66.65 -99.95 -66.6 -102.05 -60.55 -102.6 -58.85 Q-101.6 -63.9 -100.1 -68.3 L-100.1 -68.35 -98.85 -71.95 -98.5 -71.45 -98.15 -71.25 M-83.0 -36.15 Q-84.1 -36.15 -84.9 -35.4 -85.65 -34.6 -85.65 -33.5 -85.65 -32.4 -84.9 -31.65 -84.1 -30.85 -83.0 -30.85 -81.9 -30.85 -81.15 -31.6 L-81.1 -31.65 Q-80.35 -32.4 -80.35 -33.5 -80.35 -34.6 -81.15 -35.4 -81.9 -36.15 -83.0 -36.15" fill="#aacfe8" fill-rule="evenodd" stroke="none"/>
    <path d="M-4.05 -125.0 L-2.95 -125.15 Q-2.15 -123.4 -1.8 -121.45 2.95 -105.6 6.1 -91.6 L7.05 -87.35 Q12.3 -62.3 12.15 -43.6 L12.15 -43.35 Q12.05 -28.0 8.25 -16.95 L5.95 -11.25 4.8 -11.15 7.15 -16.85 Q10.95 -27.75 11.15 -43.0 L11.15 -43.35 Q11.3 -62.2 5.9 -87.65 L5.1 -91.4 Q1.95 -105.4 -2.75 -121.25 L-2.8 -121.3 Q-3.0 -122.4 -3.35 -123.4 L-4.05 -125.0 M-10.45 -133.35 L-11.75 -133.0 Q-15.65 -135.55 -21.2 -137.65 L-21.75 -137.85 -21.95 -137.7 Q-78.9 -102.95 -88.15 -30.55 L-88.8 -24.65 -89.75 -25.1 -89.1 -31.0 Q-80.95 -93.9 -36.9 -128.5 L-36.2 -128.55 -35.7 -128.7 -35.35 -128.85 -35.0 -129.1 -34.8 -129.45 -34.4 -130.45 Q-29.3 -134.3 -23.65 -137.8 L-23.0 -138.2 -22.05 -138.8 -21.85 -138.9 -21.6 -138.85 Q-14.9 -136.4 -10.45 -133.35" fill="#65a9d6" fill-rule="evenodd" stroke="none"/>
    <path d="M-50.15 -14.15 L-49.65 -18.7 -44.45 -18.0 Q-30.05 -15.95 -15.5 -16.05 -7.95 -16.1 -0.4 -16.45 L-0.15 -16.45 7.15 -16.85 4.8 -11.15 Q-10.0 -10.4 -27.3 -11.6 -39.45 -12.45 -50.15 -14.15 M-2.95 -125.15 Q7.9 -126.45 17.75 -122.05 23.9 -119.4 28.45 -114.75 L31.45 -111.2 33.5 -108.15 34.0 -107.25 34.4 -107.5 Q44.55 -94.1 49.55 -79.05 51.3 -73.85 52.75 -55.35 54.15 -36.9 51.0 -28.35 46.4 -18.0 29.65 -14.35 18.75 -12.05 5.95 -11.25 L8.25 -16.95 Q12.05 -28.0 12.15 -43.35 L14.35 -44.2 12.15 -43.6 Q12.3 -62.3 7.05 -87.35 L6.1 -91.6 Q2.95 -105.6 -1.8 -121.45 -2.15 -123.4 -2.95 -125.15 M8.2 -133.3 Q0.3 -135.5 -9.0 -133.65 L-10.45 -133.35 Q-14.9 -136.4 -21.6 -138.85 L-21.85 -138.9 -22.05 -138.8 -23.0 -138.2 -23.65 -137.8 Q-29.3 -134.3 -34.4 -130.45 L-33.45 -132.9 Q-30.2 -135.4 -26.75 -137.7 L-31.3 -137.05 -35.0 -136.15 Q-35.7 -136.65 -36.65 -136.7 L-36.8 -136.7 -41.3 -135.95 -41.25 -136.0 -42.0 -135.85 Q-31.35 -141.6 -21.5 -142.85 -7.7 -144.5 8.2 -133.3 M-3.35 -123.4 Q-3.0 -122.4 -2.8 -121.3 L-2.75 -121.25 Q1.95 -105.4 5.1 -91.4 L5.9 -87.65 Q1.85 -89.0 -1.75 -91.65 -14.6 -101.2 -7.6 -112.5 -3.55 -119.05 -3.35 -123.4 M44.2 -57.35 L47.7 -58.45 50.85 -59.55 47.5 -58.9 47.3 -58.9 43.95 -58.5 Q41.65 -67.4 35.35 -74.7 25.9 -85.65 11.8 -86.5 L9.9 -86.7 Q19.3 -41.45 11.05 -17.15 L13.7 -17.35 Q27.85 -18.15 37.45 -27.95 L37.8 -28.3 Q30.55 -26.5 21.45 -27.15 L27.35 -28.1 27.45 -27.85 28.4 -28.15 Q36.2 -30.65 43.4 -37.3 L44.4 -38.2 48.0 -41.95 44.0 -39.05 44.3 -40.1 44.75 -42.15 44.95 -43.25 Q38.15 -40.65 27.6 -42.4 35.85 -42.55 41.85 -45.55 L45.25 -46.85 46.4 -47.4 Q48.45 -48.4 50.65 -49.65 47.9 -48.65 45.3 -48.05 L45.25 -49.3 44.85 -53.8 Q35.9 -52.5 25.15 -54.3 34.25 -54.1 42.4 -56.9 L44.2 -57.35 M-39.3 -128.25 L-36.9 -128.5 Q-80.95 -93.9 -89.1 -31.0 L-89.75 -25.1 Q-93.45 -26.75 -96.25 -28.4 L-95.85 -30.5 -95.25 -33.95 -92.35 -32.5 Q-82.35 -92.45 -39.3 -128.25 M-21.95 -137.7 L-21.75 -137.85 -21.2 -137.65 -21.95 -137.7 M-37.5 -119.45 L-37.5 -119.05 -37.5 -119.0 Q-37.5 -117.95 -38.25 -117.2 L-38.3 -117.15 Q-39.05 -116.4 -40.15 -116.4 L-40.25 -116.4 -40.7 -116.45 -42.05 -117.2 Q-42.8 -117.95 -42.8 -119.05 -42.8 -120.15 -42.05 -120.95 -41.25 -121.7 -40.15 -121.7 -39.05 -121.7 -38.3 -120.95 -37.65 -120.3 -37.5 -119.45 M-52.8 -103.45 L-52.7 -103.3 Q-52.35 -102.7 -52.35 -101.95 -52.35 -100.85 -53.1 -100.1 L-53.15 -100.05 Q-53.9 -99.3 -55.0 -99.3 L-55.7 -99.35 -55.75 -99.35 -55.95 -99.45 -56.9 -100.1 Q-57.65 -100.85 -57.65 -101.95 -57.65 -103.05 -56.9 -103.85 -56.1 -104.6 -55.0 -104.6 -53.9 -104.6 -53.15 -103.85 L-52.8 -103.45 M-64.7 -86.5 L-64.55 -86.35 -64.55 -86.3 Q-64.1 -85.7 -64.1 -84.85 -64.1 -83.75 -64.85 -83.0 L-64.9 -82.95 Q-65.65 -82.2 -66.75 -82.2 L-66.95 -82.2 -67.0 -82.2 -67.2 -82.2 Q-68.05 -82.4 -68.65 -83.0 -69.4 -83.75 -69.4 -84.85 -69.4 -85.95 -68.65 -86.75 -67.85 -87.5 -66.75 -87.5 -65.65 -87.5 -64.9 -86.75 L-64.7 -86.5 M-73.4 -70.25 Q-72.8 -70.05 -72.4 -69.65 -71.6 -68.85 -71.6 -67.75 -71.6 -66.65 -72.35 -65.9 L-72.4 -65.85 Q-73.15 -65.1 -74.25 -65.1 L-75.35 -65.3 -75.4 -65.35 -76.15 -65.9 Q-76.9 -66.65 -76.9 -67.75 -76.9 -68.85 -76.15 -69.65 -75.35 -70.4 -74.25 -70.4 L-73.45 -70.25 -73.4 -70.25 M-78.4 -52.95 L-78.2 -52.8 -77.9 -52.55 Q-77.1 -51.75 -77.1 -50.65 -77.1 -49.55 -77.9 -48.75 L-77.85 -48.8 Q-78.25 -48.4 -78.7 -48.2 L-78.7 -48.15 -78.95 -48.1 -79.75 -48.0 Q-80.85 -48.0 -81.65 -48.8 -82.4 -49.55 -82.4 -50.65 -82.4 -51.75 -81.65 -52.55 -80.85 -53.3 -79.75 -53.3 -79.0 -53.3 -78.4 -52.95 M-41.8 -119.05 Q-41.8 -118.35 -41.35 -117.9 -40.9 -117.45 -40.2 -117.4 L-40.15 -117.4 Q-39.45 -117.4 -39.0 -117.9 -38.5 -118.35 -38.5 -119.0 L-38.5 -119.05 Q-38.5 -119.75 -39.0 -120.25 -39.45 -120.7 -40.15 -120.7 -40.85 -120.7 -41.3 -120.25 L-41.35 -120.2 Q-41.8 -119.75 -41.8 -119.05 M-56.15 -103.15 L-56.2 -103.1 Q-56.65 -102.65 -56.65 -101.95 -56.65 -101.25 -56.2 -100.8 L-55.5 -100.35 -55.0 -100.3 Q-54.3 -100.3 -53.85 -100.8 -53.35 -101.25 -53.35 -101.95 L-53.55 -102.8 -53.85 -103.15 Q-54.3 -103.6 -55.0 -103.6 -55.7 -103.6 -56.15 -103.15 M-65.1 -84.85 Q-65.1 -85.4 -65.35 -85.75 L-65.6 -86.05 -66.75 -86.5 Q-67.45 -86.5 -67.9 -86.05 L-67.95 -86.0 Q-68.4 -85.55 -68.4 -84.85 -68.4 -84.15 -67.95 -83.7 -67.5 -83.25 -66.9 -83.2 L-66.75 -83.2 Q-66.05 -83.2 -65.6 -83.7 -65.1 -84.15 -65.1 -84.85 M-80.95 -51.8 Q-81.4 -51.35 -81.4 -50.65 -81.4 -49.95 -80.95 -49.5 -80.45 -49.0 -79.75 -49.0 L-79.05 -49.1 -79.1 -49.1 -78.6 -49.45 -78.6 -49.5 Q-78.1 -49.95 -78.1 -50.65 -78.1 -51.35 -78.6 -51.85 L-78.75 -51.95 -78.8 -52.0 Q-79.2 -52.3 -79.75 -52.3 -80.45 -52.3 -80.9 -51.85 L-80.95 -51.8 M-73.75 -69.3 L-74.25 -69.4 -75.4 -68.95 -75.45 -68.9 Q-75.9 -68.45 -75.9 -67.75 -75.9 -67.05 -75.45 -66.6 -75.2 -66.35 -74.95 -66.25 L-75.0 -66.25 -74.25 -66.1 Q-73.55 -66.1 -73.1 -66.6 -72.6 -67.05 -72.6 -67.75 -72.6 -68.45 -73.1 -68.95 L-73.75 -69.3 M-68.3 -17.8 Q-76.3 -19.85 -83.35 -22.45 L-83.35 -22.5 -88.8 -24.65 -88.15 -30.55 Q-80.1 -26.9 -71.7 -24.05 L-67.45 -22.7 -68.3 -17.8 M-83.0 -36.15 Q-81.9 -36.15 -81.15 -35.4 -80.35 -34.6 -80.35 -33.5 -80.35 -32.4 -81.1 -31.65 L-81.15 -31.6 Q-81.9 -30.85 -83.0 -30.85 -84.1 -30.85 -84.9 -31.65 -85.65 -32.4 -85.65 -33.5 -85.65 -34.6 -84.9 -35.4 -84.1 -36.15 -83.0 -36.15 M-81.85 -34.7 Q-82.3 -35.15 -83.0 -35.15 L-84.15 -34.7 -84.2 -34.65 -84.65 -33.5 Q-84.65 -32.8 -84.2 -32.35 -83.7 -31.85 -83.0 -31.85 -82.3 -31.85 -81.85 -32.35 -81.35 -32.8 -81.35 -33.5 -81.35 -34.2 -81.85 -34.7" fill="#8bbfde" fill-rule="evenodd" stroke="none"/>
    <path d="M-49.3 -21.8 L-48.35 -28.5 Q-46.7 -39.15 -44.35 -49.7 L-39.5 -70.65 Q-36.65 -82.7 -32.95 -94.3 -30.55 -101.85 -26.55 -108.4 -26.8 -99.15 -22.65 -90.05 -21.4 -87.35 -19.2 -85.1 -13.05 -86.8 -7.75 -89.9 -11.9 -86.5 -17.45 -83.5 L-17.25 -83.3 Q-25.65 -78.15 -34.6 -76.55 -25.3 -76.7 -13.4 -80.65 L-9.15 -77.4 Q-3.65 -70.25 -1.25 -61.9 2.4 -62.05 6.2 -63.0 3.1 -61.1 0.0 -59.8 L-3.6 -58.5 Q-14.0 -53.85 -25.45 -56.75 -12.6 -48.85 0.55 -51.4 0.85 -46.25 0.15 -41.45 5.7 -42.05 11.15 -43.35 L11.15 -43.0 Q5.65 -41.15 -0.1 -40.2 L-0.15 -39.8 Q-20.1 -36.6 -38.1 -41.7 -20.65 -34.75 -0.6 -37.7 -1.55 -33.95 -3.2 -30.4 L9.5 -31.35 -2.1 -28.7 Q-11.0 -27.05 -16.55 -27.35 L-33.0 -28.35 Q-15.4 -23.8 -6.6 -24.4 L-7.0 -23.85 Q-8.4 -21.85 -11.0 -21.3 -23.85 -19.15 -36.8 -20.4 -43.15 -20.75 -49.3 -21.8 M-30.05 -124.6 Q-39.9 -117.4 -45.45 -105.2 -53.15 -88.55 -57.75 -71.25 L-58.7 -71.4 -59.4 -71.2 -59.8 -70.65 -61.15 -65.4 -61.15 -64.85 -60.85 -64.35 -60.3 -64.15 -59.55 -64.05 -60.7 -58.75 Q-63.9 -43.4 -66.8 -26.45 -80.05 -32.1 -79.0 -47.75 L-78.95 -48.1 -78.7 -48.15 -78.7 -48.2 Q-78.25 -48.4 -77.85 -48.8 L-77.9 -48.75 Q-77.1 -49.55 -77.1 -50.65 -77.1 -51.75 -77.9 -52.55 L-78.2 -52.8 -78.4 -52.95 Q-77.5 -59.3 -75.35 -65.3 L-74.25 -65.1 Q-73.15 -65.1 -72.4 -65.85 L-72.35 -65.9 Q-71.6 -66.65 -71.6 -67.75 -71.6 -68.85 -72.4 -69.65 -72.8 -70.05 -73.4 -70.25 L-72.4 -72.4 -67.2 -82.2 -67.0 -82.2 -66.95 -82.2 -66.75 -82.2 Q-65.65 -82.2 -64.9 -82.95 L-64.85 -83.0 Q-64.1 -83.75 -64.1 -84.85 -64.1 -85.7 -64.55 -86.3 L-64.55 -86.35 -64.7 -86.5 -58.15 -96.45 -55.95 -99.45 -55.75 -99.35 -55.7 -99.35 -55.0 -99.3 Q-53.9 -99.3 -53.15 -100.05 L-53.1 -100.1 Q-52.35 -100.85 -52.35 -101.95 -52.35 -102.7 -52.7 -103.3 L-52.8 -103.45 Q-47.2 -110.3 -40.7 -116.45 L-40.25 -116.4 -40.15 -116.4 Q-39.05 -116.4 -38.3 -117.15 L-38.25 -117.2 Q-37.5 -117.95 -37.5 -119.0 L-37.5 -119.05 -37.5 -119.45 -32.6 -123.85 -30.05 -124.6 M12.15 -43.35 L12.15 -43.6 14.35 -44.2 12.15 -43.35 M-67.15 -104.1 L-62.4 -110.6 Q-58.0 -116.45 -52.3 -121.4 L-49.8 -122.9 Q-59.7 -113.9 -67.15 -104.1" fill="#c1dcee" fill-rule="evenodd" stroke="none"/>
    <path d="M-50.5 -10.45 L-50.35 -12.15 Q-39.6 -10.5 -27.45 -9.6 -7.0 -8.15 10.0 -9.55 L12.4 -7.95 Q-5.65 -6.4 -27.45 -7.95 L-50.5 -10.45 M-97.35 -24.7 L-96.05 -23.85 -96.05 -23.45 -97.75 -24.35 -97.35 -24.7 M-94.3 -25.05 Q-89.9 -22.8 -84.05 -20.6 -76.85 -17.95 -68.6 -15.85 L-68.9 -14.05 Q-78.3 -16.35 -86.4 -19.35 L-94.05 -22.5 -94.05 -24.4 -94.05 -24.6 -94.3 -25.05" fill="#4b3603" fill-rule="evenodd" stroke="none"/>
    <path d="M12.4 -7.95 L10.0 -9.55 Q20.7 -10.4 30.05 -12.4 47.7 -16.2 53.05 -22.5 L53.1 -22.5 Q55.3 -25.15 55.5 -28.2 L55.5 -28.25 55.6 -29.2 55.55 -29.2 55.7 -31.7 Q57.65 -28.9 57.5 -26.05 57.4 -24.6 56.75 -23.3 L56.65 -23.1 55.9 -21.9 55.8 -21.7 55.15 -20.25 Q53.15 -18.25 49.9 -16.55 44.8 -13.9 36.7 -11.8 L32.55 -10.9 Q23.4 -8.9 13.05 -8.0 L12.4 -7.95 M-107.55 -41.95 L-109.0 -36.25 -109.05 -37.95 -109.05 -38.0 Q-108.9 -40.1 -107.55 -41.95" fill="#3e2c02" fill-rule="evenodd" stroke="none"/>
    <path d="M-50.55 -9.45 L-50.5 -10.45 -27.45 -7.95 Q-5.65 -6.4 12.4 -7.95 L13.05 -8.0 Q23.4 -8.9 32.55 -10.9 L36.7 -11.8 Q44.8 -13.9 49.9 -16.55 53.15 -18.25 55.15 -20.25 L55.8 -21.7 55.9 -21.9 56.65 -23.1 56.75 -23.3 Q57.4 -24.6 57.5 -26.05 57.65 -28.9 55.7 -31.7 L55.85 -34.65 Q59.85 -30.4 59.5 -25.95 L59.5 -25.9 Q59.4 -24.1 58.6 -22.45 L58.55 -22.4 58.1 -21.5 58.05 -21.5 57.6 -20.8 Q46.3 5.15 24.5 23.3 19.05 27.7 12.95 30.95 L12.9 30.95 Q-6.05 40.8 -32.3 38.75 -67.2 35.95 -85.2 15.3 -96.45 2.45 -103.35 -13.3 L-101.9 -13.2 Q-96.0 -0.1 -83.7 14.0 -66.1 34.05 -32.15 36.75 -6.55 38.8 12.0 29.2 L14.8 27.6 Q19.2 25.0 23.25 21.75 L23.2 21.75 Q43.1 5.2 46.6 -8.0 46.8 -10.15 45.95 -11.45 45.05 -12.8 36.95 -10.85 L36.9 -10.85 32.75 -9.9 Q23.6 -7.9 13.15 -7.0 -5.25 -5.35 -27.5 -6.95 L-50.55 -9.45 M-106.85 -22.25 L-107.5 -24.2 -105.9 -23.35 -106.85 -22.25 M-109.85 -32.5 L-110.05 -33.2 -110.05 -33.25 -110.6 -34.5 -110.65 -34.45 -110.8 -35.2 -110.9 -35.6 -111.05 -38.1 Q-110.8 -42.45 -106.5 -45.95 L-107.55 -41.95 Q-108.9 -40.1 -109.05 -38.0 L-109.05 -37.95 -109.0 -36.25 -109.85 -32.5 M-69.05 -13.05 Q-78.55 -15.4 -86.75 -18.4 -90.8 -19.9 -94.1 -21.45 L-94.05 -21.85 -94.05 -22.5 -86.4 -19.35 Q-78.3 -16.35 -68.9 -14.05 L-69.05 -13.05 M-96.05 -23.45 L-96.05 -22.35 -98.5 -23.65 -97.75 -24.35 -96.05 -23.45" fill="#28130f" fill-rule="evenodd" stroke="none"/>
    <path d="M-50.6 -8.8 L-50.55 -9.45 -27.5 -6.95 Q-5.25 -5.35 13.15 -7.0 23.6 -7.9 32.75 -9.9 L36.9 -10.85 Q38.85 2.3 14.8 27.6 L12.0 29.2 Q-6.55 38.8 -32.15 36.75 -66.1 34.05 -83.7 14.0 -96.0 -0.1 -101.9 -13.2 L-101.1 -13.35 Q-99.05 -13.95 -98.05 -15.95 -97.6 -16.9 -97.45 -17.9 L-94.3 -21.15 -94.1 -21.45 Q-90.8 -19.9 -86.75 -18.4 -78.55 -15.4 -69.05 -13.05 L-69.95 -7.6 -69.85 -7.0 -69.8 -6.9 -75.4 -8.8 Q-93.95 -15.8 -96.05 -14.75 -98.15 -13.7 -88.3 1.65 -78.45 17.0 -66.65 22.75 -54.9 28.5 -35.55 30.5 -16.3 32.5 3.25 23.45 5.45 22.45 7.25 21.45 -9.35 25.95 -28.85 22.25 -6.65 23.15 15.1 15.45 18.2 11.2 14.05 7.35 -15.8 11.15 -53.7 5.1 -19.9 8.85 7.5 3.45 -3.55 -1.05 -26.5 -1.35 L-50.1 -2.9 -48.9 -3.7 -48.6 -4.05 -48.45 -4.45 -48.2 -7.25 -48.2 -7.4 -48.25 -7.65 -48.45 -8.05 -48.95 -8.35 -50.6 -8.8 M-96.05 -22.35 L-96.05 -22.25 -97.75 -20.45 Q-98.25 -21.95 -99.3 -22.9 L-98.5 -23.65 -96.05 -22.35 M-54.6 -3.95 L-54.3 -4.1 -51.3 -6.6 -50.75 -6.6 -50.75 -6.75 -50.25 -6.65 -50.4 -5.15 -53.2 -3.3 -54.5 -3.5 -54.6 -3.95" fill="#573f04" fill-rule="evenodd" stroke="none"/>
    <path d="M36.9 -10.85 L36.95 -10.85 Q45.05 -12.8 45.95 -11.45 46.8 -10.15 46.6 -8.0 43.1 5.2 23.2 21.75 L23.25 21.75 Q19.2 25.0 14.8 27.6 38.85 2.3 36.9 -10.85" fill="#523a03" fill-rule="evenodd" stroke="none"/>
    <path d="M-41.8 -119.05 Q-41.8 -119.75 -41.35 -120.2 L-41.3 -120.25 Q-40.85 -120.7 -40.15 -120.7 -39.45 -120.7 -39.0 -120.25 -38.5 -119.75 -38.5 -119.05 L-38.5 -119.0 Q-38.5 -118.35 -39.0 -117.9 -39.45 -117.4 -40.15 -117.4 L-40.2 -117.4 Q-40.9 -117.45 -41.35 -117.9 -41.8 -118.35 -41.8 -119.05 M-56.15 -103.15 Q-55.7 -103.6 -55.0 -103.6 -54.3 -103.6 -53.85 -103.15 L-53.55 -102.8 -53.35 -101.95 Q-53.35 -101.25 -53.85 -100.8 -54.3 -100.3 -55.0 -100.3 L-55.5 -100.35 -56.2 -100.8 Q-56.65 -101.25 -56.65 -101.95 -56.65 -102.65 -56.2 -103.1 L-56.15 -103.15 M-65.1 -84.85 Q-65.1 -84.15 -65.6 -83.7 -66.05 -83.2 -66.75 -83.2 L-66.9 -83.2 Q-67.5 -83.25 -67.95 -83.7 -68.4 -84.15 -68.4 -84.85 -68.4 -85.55 -67.95 -86.0 L-67.9 -86.05 Q-67.45 -86.5 -66.75 -86.5 L-65.6 -86.05 -65.35 -85.75 Q-65.1 -85.4 -65.1 -84.85 M-80.95 -51.8 L-80.9 -51.85 Q-80.45 -52.3 -79.75 -52.3 -79.2 -52.3 -78.8 -52.0 L-78.75 -51.95 -78.6 -51.85 Q-78.1 -51.35 -78.1 -50.65 -78.1 -49.95 -78.6 -49.5 L-78.6 -49.45 -79.1 -49.1 -79.05 -49.1 -79.75 -49.0 Q-80.45 -49.0 -80.95 -49.5 -81.4 -49.95 -81.4 -50.65 -81.4 -51.35 -80.95 -51.8 M-73.75 -69.3 L-73.1 -68.95 Q-72.6 -68.45 -72.6 -67.75 -72.6 -67.05 -73.1 -66.6 -73.55 -66.1 -74.25 -66.1 L-75.0 -66.25 -74.95 -66.25 Q-75.2 -66.35 -75.45 -66.6 -75.9 -67.05 -75.9 -67.75 -75.9 -68.45 -75.45 -68.9 L-75.4 -68.95 -74.25 -69.4 -73.75 -69.3 M-81.85 -34.7 Q-81.35 -34.2 -81.35 -33.5 -81.35 -32.8 -81.85 -32.35 -82.3 -31.85 -83.0 -31.85 -83.7 -31.85 -84.2 -32.35 -84.65 -32.8 -84.65 -33.5 L-84.2 -34.65 -84.15 -34.7 -83.0 -35.15 Q-82.3 -35.15 -81.85 -34.7" fill="#ffffff" fill-rule="evenodd" stroke="none"/>
    <path d="M-44.05 -69.45 L-43.65 -69.4 -43.2 -69.2 -43.15 -69.1 -42.9 -68.8 -42.3 -67.6 -41.1 -65.15 -41.0 -64.5 -42.1 -59.7 -42.4 -59.2 Q-42.65 -59.0 -42.95 -58.95 L-43.5 -59.05 -43.95 -59.45 -44.15 -59.75 -45.0 -61.15 -45.65 -62.3 -45.75 -62.3 -57.6 -63.8 -59.55 -64.05 -60.3 -64.15 -60.85 -64.35 -61.15 -64.85 -61.15 -65.4 -59.8 -70.65 -59.4 -71.2 -58.7 -71.4 -57.75 -71.25 -55.75 -71.0 -44.05 -69.45 M-103.35 -13.3 Q-104.25 -13.5 -105.15 -14.05 -106.95 -15.25 -107.55 -17.5 -108.15 -19.8 -107.2 -21.7 L-107.15 -21.7 -106.85 -22.25 -105.9 -23.35 -105.75 -23.25 -105.75 -23.3 Q-104.45 -22.65 -103.0 -22.4 L-103.5 -22.3 Q-104.4 -22.1 -104.95 -21.4 L-105.4 -20.75 -105.4 -20.8 Q-105.75 -20.1 -105.75 -19.25 L-105.6 -18.0 Q-105.3 -16.85 -104.55 -16.1 L-104.05 -15.7 -104.05 -15.75 Q-103.4 -15.35 -102.75 -15.25 L-101.65 -15.3 -100.9 -15.65 Q-100.25 -16.05 -99.85 -16.85 L-99.85 -16.8 Q-99.4 -17.75 -99.45 -18.7 L-99.55 -19.65 -99.55 -19.6 Q-100.0 -21.1 -101.2 -21.9 L-101.95 -22.3 -100.15 -22.35 -99.6 -22.6 -99.3 -22.9 Q-98.25 -21.95 -97.75 -20.45 L-97.65 -20.15 -97.6 -20.1 Q-97.35 -19.0 -97.45 -17.9 -97.6 -16.9 -98.05 -15.95 -99.05 -13.95 -101.1 -13.35 L-101.9 -13.2 -103.35 -13.3 M-86.1 -75.6 L-85.95 -75.6 -85.5 -75.4 -85.2 -75.05 -85.05 -74.75 -83.9 -72.45 -83.85 -72.35 Q-83.75 -72.1 -83.8 -71.75 L-84.6 -68.3 -85.05 -67.7 -85.7 -67.55 -85.8 -67.55 Q-86.25 -67.65 -86.45 -68.0 L-87.2 -69.3 -87.4 -69.6 -87.6 -69.95 -88.3 -70.05 -96.15 -71.0 -98.0 -71.25 -98.15 -71.25 -98.5 -71.45 -98.85 -71.95 -98.85 -72.5 -97.85 -76.3 -97.45 -76.85 -96.85 -77.05 -96.75 -77.05 -95.85 -76.9 -93.8 -76.65 -86.1 -75.6 M-43.5 -62.6 L-43.05 -64.6 -43.8 -66.2 -44.35 -63.95 -44.15 -63.75 -43.5 -62.6 M-44.5 -67.45 L-44.55 -67.45 -58.1 -69.25 -58.95 -66.0 -45.3 -64.3 -44.5 -67.45 M-86.0 -71.2 L-85.85 -71.85 -86.05 -72.3 -86.1 -72.4 -86.3 -71.65 -86.15 -71.4 -86.0 -71.2 M-86.8 -73.65 L-86.9 -73.65 -96.15 -74.9 -96.6 -73.1 -87.25 -71.95 -86.8 -73.65 M-66.1 -5.0 L-64.15 -4.35 Q-64.55 -3.55 -64.55 -2.6 L-64.45 -1.75 -64.3 -1.1 -63.4 0.25 Q-62.2 1.45 -60.5 1.45 -59.1 1.45 -58.0 0.6 L-57.65 0.25 Q-57.05 -0.35 -56.75 -1.05 -56.45 -1.75 -56.45 -2.6 L-56.6 -3.65 -54.75 -3.9 -54.6 -3.95 -54.5 -3.5 -54.45 -2.6 -54.45 -2.5 Q-54.45 -0.9 -55.2 0.4 L-56.2 1.65 -56.25 1.7 Q-58.0 3.45 -60.5 3.45 -63.0 3.45 -64.8 1.65 -65.95 0.5 -66.35 -1.0 L-66.55 -2.6 Q-66.55 -3.9 -66.1 -4.95 L-66.1 -5.0" fill="#333333" fill-rule="evenodd" stroke="none"/>
    <path d="M-101.95 -22.3 L-101.2 -21.9 Q-100.0 -21.1 -99.55 -19.6 L-99.55 -19.65 -99.45 -18.7 Q-99.4 -17.75 -99.85 -16.8 L-99.85 -16.85 Q-100.25 -16.05 -100.9 -15.65 L-101.65 -15.3 -102.75 -15.25 Q-103.4 -15.35 -104.05 -15.75 L-104.05 -15.7 -104.55 -16.1 Q-105.3 -16.85 -105.6 -18.0 L-105.75 -19.25 Q-105.75 -20.1 -105.4 -20.8 L-105.4 -20.75 -104.95 -21.4 Q-104.4 -22.1 -103.5 -22.3 L-103.0 -22.4 -101.95 -22.3 M-64.15 -4.35 Q-60.45 -3.35 -56.6 -3.65 L-56.45 -2.6 Q-56.45 -1.75 -56.75 -1.05 -57.05 -0.35 -57.65 0.25 L-58.0 0.6 Q-59.1 1.45 -60.5 1.45 -62.2 1.45 -63.4 0.25 L-64.3 -1.1 -64.45 -1.75 -64.55 -2.6 Q-64.55 -3.55 -64.15 -4.35" fill="#999999" fill-rule="evenodd" stroke="none"/>
    <path d="M-52.6 -9.3 L-50.6 -8.8 -48.95 -8.35 -48.45 -8.05 -48.25 -7.65 -48.2 -7.4 -48.2 -7.25 -48.45 -4.45 -48.6 -4.05 -48.9 -3.7 -50.1 -2.9 -55.2 0.4 Q-54.45 -0.9 -54.45 -2.5 L-53.2 -3.3 -50.4 -5.15 -50.25 -6.65 -50.75 -6.75 -53.3 -7.4 -53.4 -7.45 -53.9 -7.9 -54.05 -8.3 -54.0 -8.65 -54.0 -8.7 -53.55 -9.25 -52.8 -9.35 -52.6 -9.3 M-94.1 -21.45 L-94.3 -21.15 -97.45 -17.9 Q-97.35 -19.0 -97.6 -20.1 L-97.65 -20.15 -97.75 -20.45 -96.05 -22.25 -96.05 -22.35 -96.05 -23.45 -96.05 -23.85 -97.35 -24.7 -99.1 -25.8 -99.3 -26.0 -99.5 -26.45 -99.35 -27.2 -99.0 -27.55 -98.75 -27.6 -98.4 -27.6 -98.0 -27.45 -96.55 -26.55 -94.55 -25.25 -94.5 -25.2 -94.35 -25.1 -94.3 -25.05 -94.05 -24.6 -94.05 -24.4 -94.05 -22.5 -94.05 -21.85 -94.1 -21.45 M-44.5 -67.45 L-45.3 -64.3 -58.95 -66.0 -58.1 -69.25 -44.55 -67.45 -44.5 -67.45 M-43.5 -62.6 L-44.15 -63.75 -44.35 -63.95 -43.8 -66.2 -43.05 -64.6 -43.5 -62.6 M-86.8 -73.65 L-87.25 -71.95 -96.6 -73.1 -96.15 -74.9 -86.9 -73.65 -86.8 -73.65 M-86.0 -71.2 L-86.15 -71.4 -86.3 -71.65 -86.1 -72.4 -86.05 -72.3 -85.85 -71.85 -86.0 -71.2 M-69.0 -6.3 L-66.1 -5.0 -66.1 -4.95 Q-66.55 -3.9 -66.55 -2.6 L-66.35 -1.0 -68.95 -6.2 -69.0 -6.3" fill="#666666" fill-rule="evenodd" stroke="none"/>
    <path d="M-50.1 -2.9 L-26.5 -1.35 Q-3.55 -1.05 7.5 3.45 -19.9 8.85 -53.7 5.1 -15.8 11.15 14.05 7.35 18.2 11.2 15.1 15.45 -6.65 23.15 -28.85 22.25 -9.35 25.95 7.25 21.45 5.45 22.45 3.25 23.45 -16.3 32.5 -35.55 30.5 -54.9 28.5 -66.65 22.75 -78.45 17.0 -88.3 1.65 -98.15 -13.7 -96.05 -14.75 -93.95 -15.8 -75.4 -8.8 L-69.8 -6.9 -69.45 -6.55 -69.0 -6.3 -68.95 -6.2 -66.35 -1.0 Q-65.95 0.5 -64.8 1.65 -63.0 3.45 -60.5 3.45 -58.0 3.45 -56.25 1.7 L-56.2 1.65 -55.2 0.4 -50.1 -2.9 M-66.1 -4.95 L-66.1 -5.0 -66.1 -4.95 M-54.5 -3.5 L-53.2 -3.3 -54.45 -2.5 -54.45 -2.6 -54.5 -3.5" fill="#614505" fill-rule="evenodd" stroke="none"/>
  </g>
</svg>
