<?xml version="1.0" encoding="UTF-8" standalone="no"?>
<svg xmlns:ffdec="https://www.free-decompiler.com/flash" xmlns:xlink="http://www.w3.org/1999/xlink" ffdec:objectType="shape" height="53.95px" width="69.7px" xmlns="http://www.w3.org/2000/svg">
  <g transform="matrix(1.0, 0.0, 0.0, 1.0, 73.55, 14.7)">
    <path d="M-43.6 -9.9 L-43.65 -9.9 Q-34.75 -10.4 -25.8 -8.4 -15.7 -6.4 -10.1 1.95 -9.0 3.6 -8.2 5.4 -6.6 9.15 -6.35 13.2 L-4.8 13.3 -4.3 13.5 -3.95 13.9 -3.85 14.45 -4.75 21.9 -5.05 22.45 -7.45 24.8 Q-14.3 31.25 -22.8 35.1 -30.95 38.7 -39.6 39.15 -49.35 39.8 -58.75 37.0 -65.8 34.95 -73.5 29.4 L-73.5 28.9 -72.75 22.45 -72.35 21.8 Q-72.05 21.5 -71.65 21.55 L-70.6 21.7 Q-73.4 12.4 -68.95 3.5 -66.55 -1.45 -61.75 -4.4 -53.5 -9.75 -43.6 -9.9 M-31.25 -7.35 L-43.55 -7.9 -43.6 -7.9 Q-52.9 -7.75 -60.7 -2.7 -65.0 -0.05 -67.15 4.35 -71.0 12.05 -68.95 20.1 L-68.5 21.6 -68.45 21.85 -68.4 21.95 Q-67.15 24.65 -64.55 26.25 L-64.6 26.25 Q-56.65 30.85 -47.45 31.45 L-47.4 31.45 Q-38.9 32.3 -30.75 29.45 L-30.7 29.45 Q-26.1 27.85 -21.65 25.85 -13.7 22.05 -8.15 14.65 L-8.3 14.4 -8.3 14.25 -8.3 14.15 Q-8.4 10.0 -10.05 6.2 L-11.75 3.05 -11.75 3.0 Q-16.85 -4.55 -26.05 -6.4 L-26.1 -6.4 -26.2 -6.4 -26.25 -6.4 -31.2 -7.35 -31.25 -7.35 M-6.2 15.55 L-6.2 15.5 -7.35 17.25 -6.95 16.85 Q-13.55 24.2 -20.8 27.65 -25.35 29.7 -30.1 31.35 L-30.05 31.35 Q-38.6 34.35 -47.55 33.45 L-47.6 33.45 Q-57.25 32.8 -65.6 28.0 L-65.6 27.95 Q-68.3 26.25 -69.8 23.55 L-69.8 23.5 -70.15 23.05 Q-70.9 22.95 -70.95 23.3 L-70.9 23.7 -71.45 28.6 -71.4 28.65 Q-65.45 33.0 -57.7 35.35 -50.0 37.7 -39.75 37.15 -31.4 36.75 -23.6 33.3 L-23.65 33.3 Q-15.45 29.55 -8.8 23.3 L-6.7 21.3 -5.7 16.35 -5.65 16.2 -5.55 15.25 -5.85 15.15 -6.0 15.2 -6.05 15.25 -6.25 15.2 -6.25 15.25 -6.2 15.45 -6.2 15.55" fill="#342112" fill-rule="evenodd" stroke="none"/>
    <path d="M-68.95 20.1 Q-71.0 12.05 -67.15 4.35 -65.0 -0.05 -60.7 -2.7 -52.9 -7.75 -43.6 -7.9 L-43.55 -7.9 -31.25 -7.35 -31.4 -7.0 -31.35 -6.65 Q-23.5 -3.1 -20.75 0.65 -18.85 3.35 -19.25 7.05 -20.0 13.2 -26.85 19.2 -36.75 27.65 -52.75 25.8 -62.3 24.65 -68.0 20.8 L-68.95 20.1" fill="#663300" fill-rule="evenodd" stroke="none"/>
    <path d="M-31.25 -7.35 L-31.2 -7.35 -31.35 -6.65 -31.4 -7.0 -31.25 -7.35" fill="#c3c3c3" fill-rule="evenodd" stroke="none"/>
    <path d="M-31.2 -7.35 L-26.25 -6.4 -26.2 -6.4 -26.1 -6.4 -26.05 -6.4 Q-16.85 -4.55 -11.75 3.0 L-11.75 3.05 -10.05 6.2 Q-8.4 10.0 -8.3 14.15 L-8.3 14.25 -8.3 14.4 -8.15 14.65 Q-13.7 22.05 -21.65 25.85 -26.1 27.85 -30.7 29.45 L-30.75 29.45 Q-38.9 32.3 -47.4 31.45 L-47.45 31.45 Q-56.65 30.85 -64.6 26.25 L-64.55 26.25 Q-67.15 24.65 -68.4 21.95 L-68.45 21.85 -68.5 21.6 -68.95 20.1 -68.0 20.8 Q-62.3 24.65 -52.75 25.8 -36.75 27.65 -26.85 19.2 -20.0 13.2 -19.25 7.05 -18.85 3.35 -20.75 0.65 -23.5 -3.1 -31.35 -6.65 L-31.2 -7.35" fill="#4c2c02" fill-rule="evenodd" stroke="none"/>
    <path d="M-6.2 15.45 L-6.25 15.25 -6.25 15.2 -6.05 15.25 -6.0 15.2 -5.85 15.15 -5.55 15.25 -5.65 16.2 -5.7 16.35 -6.7 21.3 -8.8 23.3 Q-15.45 29.55 -23.65 33.3 L-23.6 33.3 Q-31.4 36.75 -39.75 37.15 -50.0 37.7 -57.7 35.35 -65.45 33.0 -71.4 28.65 L-71.45 28.6 -70.9 23.7 -70.95 23.3 Q-70.9 22.95 -70.15 23.05 L-69.8 23.5 -69.8 23.55 Q-68.3 26.25 -65.6 27.95 L-65.6 28.0 Q-57.25 32.8 -47.6 33.45 L-47.55 33.45 Q-38.6 34.35 -30.05 31.35 L-30.1 31.35 Q-25.35 29.7 -20.8 27.65 -13.55 24.2 -6.95 16.85 L-7.35 17.25 -6.2 15.5 -6.2 15.55 -6.1 15.6 -6.2 15.5 -6.2 15.45 M-6.95 18.0 L-7.1 18.05 -6.7 17.95 -6.95 18.0" fill="#934900" fill-rule="evenodd" stroke="none"/>
    <path d="M-11.75 3.0 L-11.75 3.05 -11.75 3.0 M-6.2 15.55 L-6.2 15.45 -6.2 15.5 -6.1 15.6 -6.2 15.55" fill="#cccccc" fill-rule="evenodd" stroke="none"/>
    <path d="M-6.95 18.0 L-6.7 17.95 -7.1 18.05 -6.95 18.0" fill="#333333" fill-rule="evenodd" stroke="none"/>
    <path d="M-15.75 -0.2 L-20.65 -2.75 Q-26.05 -5.25 -31.7 -5.65 -34.7 -5.9 -34.35 -11.2 -34.15 -13.0 -32.3 -13.65 -30.7 -14.3 -25.85 -14.7 L-24.35 -14.6 Q-13.55 -13.35 -10.6 -5.4 -15.15 -0.15 -15.75 -0.2 M-32.95 -11.25 L-33.15 -10.85 -33.15 -10.5 -33.15 -10.1 -32.95 -8.3 Q-32.8 -6.35 -28.6 -5.9 L-23.95 -5.7 -15.9 -1.75 Q-14.8 -1.6 -11.85 -5.55 -11.7 -7.0 -14.8 -9.4 L-16.55 -10.6 -19.0 -11.75 Q-22.05 -13.0 -26.05 -13.5 -28.7 -13.8 -31.1 -12.5 -32.5 -11.8 -32.95 -11.25" fill="#342112" fill-rule="evenodd" stroke="none"/>
    <path d="M-32.95 -11.25 Q-30.45 -10.55 -27.8 -9.35 -21.85 -6.85 -19.3 -6.55 -17.55 -6.35 -17.35 -7.75 -17.2 -9.25 -19.0 -11.75 L-16.55 -10.6 -14.8 -9.4 Q-11.7 -7.0 -11.85 -5.55 -14.8 -1.6 -15.9 -1.75 L-23.95 -5.7 -28.6 -5.9 Q-32.8 -6.35 -32.95 -8.3 L-33.15 -10.1 -33.15 -10.05 -33.15 -10.5 -33.15 -10.85 -32.95 -11.25" fill="#4c2c02" fill-rule="evenodd" stroke="none"/>
    <path d="M-19.0 -11.75 Q-17.2 -9.25 -17.35 -7.75 -17.55 -6.35 -19.3 -6.55 -21.85 -6.85 -27.8 -9.35 -30.45 -10.55 -32.95 -11.25 -32.5 -11.8 -31.1 -12.5 -28.7 -13.8 -26.05 -13.5 -22.05 -13.0 -19.0 -11.75" fill="#663300" fill-rule="evenodd" stroke="none"/>
    <path d="M-33.15 -10.5 L-33.15 -10.05 -33.15 -10.1 -33.15 -10.5" fill="#cccccc" fill-rule="evenodd" stroke="none"/>
    <path d="M-47.4 -7.45 L-44.2 -7.45 Q-36.3 -6.55 -31.45 -1.85 -27.7 1.75 -27.95 4.15 -28.05 4.55 -28.55 4.45 L-29.1 4.25 Q-32.75 0.0 -35.45 -2.0 -40.5 -5.85 -47.4 -7.45 M-35.8 -7.75 Q-29.75 -6.55 -25.9 -3.05 -22.7 -0.15 -22.95 2.25 L-24.15 3.1 -28.25 -2.45 Q-31.25 -5.9 -35.8 -7.75" fill="#482f1a" fill-rule="evenodd" stroke="none"/>
    <path d="M-47.4 -7.45 Q-40.5 -5.85 -35.45 -2.0 -32.75 0.0 -29.1 4.25 L-28.55 4.45 Q-28.05 4.55 -27.95 4.15 -27.7 1.75 -31.45 -1.85 -36.3 -6.55 -44.2 -7.45 L-47.4 -7.45 M-42.3 -8.25 Q-31.45 -7.0 -26.7 4.05 -26.9 5.5 -28.7 5.3 -29.55 5.2 -36.2 -1.6 -38.05 -3.55 -43.4 -5.2 -49.25 -7.05 -49.55 -7.25 -49.25 -8.55 -44.2 -8.35 L-42.3 -8.25 M-35.8 -7.75 Q-31.25 -5.9 -28.25 -2.45 L-24.15 3.1 -22.95 2.25 Q-22.7 -0.15 -25.9 -3.05 -29.75 -6.55 -35.8 -7.75 M-25.0 -3.25 Q-21.85 0.45 -22.05 2.35 -22.3 4.3 -24.15 4.1 L-29.1 -2.25 Q-31.0 -4.45 -35.8 -7.65 L-36.8 -8.3 Q-36.75 -8.85 -34.6 -8.6 -28.95 -7.95 -25.0 -3.25" fill="#342112" fill-rule="evenodd" stroke="none"/>
    <path d="M-32.4 -8.7 L-31.65 -8.1 Q-37.15 -8.45 -40.1 -8.15 -42.6 -8.45 -42.25 -11.55 -42.05 -13.35 -38.6 -13.5 -34.0 -13.15 -30.5 -10.95 -27.45 -9.1 -27.6 -7.8 L-27.7 -7.55 -29.4 -9.35 Q-31.45 -11.0 -35.8 -11.5 -38.2 -11.8 -38.35 -10.15 -38.2 -8.9 -36.25 -8.65 L-32.4 -8.7 M-22.2 6.45 Q-22.7 2.55 -23.8 0.85 -22.0 2.35 -21.0 8.0 -20.2 12.7 -20.5 15.45 -20.5 22.2 -24.2 22.6 L-24.05 21.35 Q-22.5 16.5 -22.0 12.4 -21.7 9.95 -22.2 6.45 M-25.8 -4.8 L-22.9 -0.6 Q-20.5 2.75 -17.65 3.1 -16.75 3.2 -16.6 2.1 -16.4 0.2 -19.55 -2.65 -23.0 -5.75 -27.25 -6.85 -19.1 -5.35 -15.7 -1.8 -13.35 0.65 -13.65 3.3 -14.2 6.0 -17.2 5.65 -18.55 5.5 -21.8 1.45 -25.05 -2.5 -25.8 -4.8" fill="#482f1a" fill-rule="evenodd" stroke="none"/>
    <path d="M-32.4 -8.7 L-36.25 -8.65 Q-38.2 -8.9 -38.35 -10.15 -38.2 -11.8 -35.8 -11.5 -31.45 -11.0 -29.4 -9.35 L-27.7 -7.55 -27.6 -7.8 Q-27.45 -9.1 -30.5 -10.95 -34.0 -13.15 -38.6 -13.5 -42.05 -13.35 -42.25 -11.55 -42.6 -8.45 -40.1 -8.15 -37.15 -8.45 -31.65 -8.1 L-32.4 -8.7 M-31.2 -8.8 L-29.55 -8.1 Q-30.45 -9.25 -33.2 -10.4 -36.5 -11.8 -37.25 -10.05 L-33.25 -9.7 Q-32.35 -9.6 -31.2 -8.8 M-39.55 -7.4 Q-43.6 -7.9 -42.8 -11.7 -42.5 -14.7 -36.85 -14.0 -33.85 -13.65 -30.55 -11.55 -28.15 -10.05 -27.55 -9.2 -26.2 -7.2 -23.2 -6.25 L-19.65 -5.35 Q-12.2 -1.2 -12.75 3.45 -12.85 4.35 -13.8 5.5 -15.05 6.9 -16.55 6.75 L-19.8 5.35 Q-19.85 4.9 -19.95 5.55 L-19.65 9.3 Q-19.35 12.3 -19.7 15.5 -19.95 21.4 -22.15 23.05 L-22.9 23.4 -24.55 23.55 -25.2 23.35 -24.9 20.95 Q-23.35 15.95 -22.9 12.25 -22.3 6.95 -24.1 2.6 -27.4 -5.2 -28.45 -6.15 -29.3 -6.9 -35.1 -7.55 L-39.55 -7.4 M-21.8 -0.85 Q-20.75 0.8 -17.9 2.05 L-17.75 2.25 Q-17.55 2.35 -17.5 1.95 -17.35 0.75 -19.85 -1.65 -22.2 -3.85 -23.8 -4.4 L-21.8 -0.85 M-25.8 -4.8 Q-25.05 -2.5 -21.8 1.45 -18.55 5.5 -17.2 5.65 -14.2 6.0 -13.65 3.3 -13.35 0.65 -15.7 -1.8 -19.1 -5.35 -27.25 -6.85 -23.0 -5.75 -19.55 -2.65 -16.4 0.2 -16.6 2.1 -16.75 3.2 -17.65 3.1 -20.5 2.75 -22.9 -0.6 L-25.8 -4.8 M-22.2 6.45 Q-21.7 9.95 -22.0 12.4 -22.5 16.5 -24.05 21.35 L-24.2 22.6 Q-20.5 22.2 -20.5 15.45 -20.2 12.7 -21.0 8.0 -22.0 2.35 -23.8 0.85 -22.7 2.55 -22.2 6.45" fill="#342112" fill-rule="evenodd" stroke="none"/>
  </g>
</svg>
