<?xml version="1.0" encoding="UTF-8" standalone="no"?>
<svg xmlns:ffdec="https://www.free-decompiler.com/flash" xmlns:xlink="http://www.w3.org/1999/xlink" ffdec:objectType="shape" height="63.1px" width="30.35px" xmlns="http://www.w3.org/2000/svg">
  <g transform="matrix(1.0, 0.0, 0.0, 1.0, 10.65, 1.55)">
    <path d="M0.7 -1.5 L0.7 5.7 3.45 9.25 Q4.15 13.1 -0.05 12.0 -0.85 15.05 4.85 15.9 L6.25 18.3 5.05 19.45 Q3.0 21.35 2.35 22.7 5.8 22.65 8.4 19.95 L8.75 22.7 Q6.2 24.1 2.35 22.7 0.8 25.75 6.4 25.8 L6.3 27.2 6.2 27.25 Q1.6 28.55 -2.15 28.4 L-3.4 28.3 -3.55 27.25 4.15 26.05 Q-2.3 26.4 -3.8 25.15 L-3.9 23.75 Q-3.7 23.4 -3.85 23.0 L-3.95 22.75 -3.95 22.6 -3.95 21.75 Q-1.2 21.05 5.95 18.3 -1.55 20.35 -4.0 19.5 L-4.3 11.2 -4.45 9.45 Q-2.4 10.3 0.75 9.15 -2.65 9.6 -4.55 8.25 L-4.8 6.45 -5.65 1.5 -5.75 0.95 -5.95 0.15 Q-4.5 -1.55 -2.35 -1.55 L0.7 -1.5 M7.25 13.15 L1.1 13.1 Q5.6 12.35 6.4 11.1 L6.65 10.65 6.8 10.7 7.25 13.15 M17.6 21.85 L17.65 22.1 17.65 22.15 17.65 22.3 17.7 22.45 17.65 22.5 17.45 23.5 17.4 23.7 17.0 24.4 16.8 24.6 15.1 26.35 12.85 27.85 12.0 28.3 11.8 28.35 11.5 28.5 9.25 29.45 6.05 30.5 5.95 30.5 Q1.15 31.7 -2.75 31.3 L-3.5 31.2 -3.65 31.2 -4.1 31.15 -4.25 31.15 Q-5.75 30.85 -6.75 30.35 L-7.35 29.95 -7.85 29.55 -7.9 29.55 -7.95 29.5 -8.0 29.45 -8.45 28.7 -8.55 28.45 Q-8.9 26.7 -6.95 24.85 -7.85 26.15 -7.25 27.3 -6.45 29.15 -2.2 29.4 1.7 29.55 6.5 28.2 11.25 26.75 14.1 24.6 17.15 22.2 16.3 20.35 17.25 20.95 17.6 21.9 L17.6 21.85" fill="#c1dcee" fill-rule="evenodd" stroke="none"/>
    <path d="M11.2 19.1 Q14.65 19.25 15.35 20.6 15.85 21.95 13.5 23.8 L11.3 25.2 10.35 19.8 10.15 18.95 10.4 18.95 11.2 19.1 M-6.35 26.9 Q-6.75 25.85 -5.35 24.45 L-4.9 28.0 Q-6.0 27.6 -6.35 26.9" fill="#8fc0e0" fill-rule="evenodd" stroke="none"/>
    <path d="M6.8 10.7 L4.4 -0.45 4.4 -0.7 4.65 -1.15 Q4.9 -1.5 5.3 -1.55 L6.05 -1.3 Q6.35 -1.05 7.25 4.65 7.95 9.45 9.7 16.95 L11.1 17.0 13.4 17.25 Q18.75 18.15 19.5 21.35 L19.55 21.35 19.6 21.65 19.65 21.75 19.65 21.9 Q19.9 23.15 19.3 24.45 L16.55 36.45 16.25 36.95 Q13.7 39.2 11.1 40.6 L10.95 40.7 8.55 41.65 Q4.3 42.9 -0.25 41.65 L-2.25 41.0 -2.65 40.85 -2.7 40.85 -6.45 38.8 -6.9 38.3 -9.5 30.85 Q-10.15 30.1 -10.4 29.15 L-10.45 29.05 Q-11.5 25.85 -7.3 22.5 L-7.15 22.4 -5.65 21.3 -5.7 20.65 Q-6.35 10.8 -7.9 0.4 L-7.45 0.2 Q-7.05 0.15 -6.75 0.4 -6.4 0.65 -6.1 -0.4 L-5.95 0.15 -5.75 0.95 -5.65 1.5 -4.8 6.45 -4.6 8.25 -4.45 9.45 -4.3 11.2 -4.0 19.5 -4.0 19.9 -3.95 21.75 -3.95 22.6 -3.95 22.75 -3.85 23.0 Q-3.7 23.4 -3.9 23.75 L-3.8 25.15 -3.55 27.25 -3.4 28.3 -2.15 28.4 Q1.6 28.55 6.2 27.25 L6.3 27.2 9.1 26.2 8.75 22.7 8.4 19.95 8.1 18.1 7.95 17.2 7.95 17.0 7.25 13.15 6.8 10.7 M11.2 19.1 L10.4 18.95 10.15 18.95 10.35 19.8 11.3 25.2 13.5 23.8 Q15.85 21.95 15.35 20.6 14.65 19.25 11.2 19.1 M17.6 21.85 L17.6 21.9 Q17.25 20.95 16.3 20.35 17.15 22.2 14.1 24.6 11.25 26.75 6.5 28.2 1.7 29.55 -2.2 29.4 -6.45 29.15 -7.25 27.3 -7.85 26.15 -6.95 24.85 -8.9 26.7 -8.55 28.45 L-8.45 28.7 -8.0 29.45 -7.95 29.5 -7.9 29.55 -7.85 29.55 -7.35 29.95 -6.75 30.35 Q-5.75 30.85 -4.25 31.15 L-4.1 31.15 -3.65 31.2 -3.5 31.2 -2.75 31.3 Q1.15 31.7 5.95 30.5 L6.05 30.5 9.25 29.45 11.5 28.5 11.8 28.35 12.0 28.3 12.85 27.85 15.1 26.35 16.8 24.6 17.0 24.4 17.4 23.7 17.45 23.5 17.65 22.5 17.7 22.45 17.65 22.3 17.65 22.15 17.65 22.1 17.6 21.85 M10.85 38.5 L14.65 35.7 16.5 27.75 16.35 27.9 Q14.8 29.1 12.85 30.1 L12.65 30.2 12.1 30.45 9.2 31.65 6.55 32.45 5.75 32.65 -2.05 33.4 -3.45 33.25 -3.7 33.2 -3.8 33.2 -3.95 33.2 -4.15 33.15 -4.3 33.15 -6.25 32.7 -6.8 32.5 -5.1 37.3 -2.5 38.7 -1.9 39.0 -0.45 39.5 Q4.1 40.95 8.35 39.6 L10.2 38.8 10.2 38.85 10.8 38.5 10.85 38.5 M-6.35 26.9 Q-6.0 27.6 -4.9 28.0 L-5.35 24.45 Q-6.75 25.85 -6.35 26.9" fill="#2c525f" fill-rule="evenodd" stroke="none"/>
    <path d="M4.4 -0.7 L4.4 -0.45 6.8 10.7 6.65 10.65 6.4 11.1 Q5.6 12.35 1.1 13.1 L7.25 13.15 7.95 17.0 7.95 17.2 8.1 18.1 8.4 19.95 Q5.8 22.65 2.35 22.7 3.0 21.35 5.05 19.45 L6.25 18.3 4.85 15.9 Q-0.85 15.05 -0.05 12.0 4.15 13.1 3.45 9.25 L0.7 5.7 0.7 -1.5 1.15 -1.5 1.5 -1.45 1.85 -1.45 3.65 -1.25 4.4 -0.7 M2.35 22.7 Q6.2 24.1 8.75 22.7 L9.1 26.2 6.3 27.2 6.4 25.8 Q0.8 25.75 2.35 22.7 M-3.55 27.25 L-3.8 25.15 Q-2.3 26.4 4.15 26.05 L-3.55 27.25 M-3.95 21.75 L-4.0 19.9 -4.0 19.5 Q-1.55 20.35 5.95 18.3 -1.2 21.05 -3.95 21.75 M-4.45 9.45 L-4.6 8.25 -4.55 8.25 Q-2.65 9.6 0.75 9.15 -2.4 10.3 -4.45 9.45" fill="#8bbfde" fill-rule="evenodd" stroke="none"/>
    <path d="M10.95 40.7 L11.45 46.95 11.95 56.0 11.95 56.1 11.95 56.4 11.65 57.1 11.2 57.4 11.65 57.15 Q10.2 60.6 7.75 61.3 5.15 62.25 1.4 59.85 L1.35 59.85 -0.2 58.2 -0.5 58.0 -0.85 57.55 -0.9 57.4 -0.9 57.35 -1.7 46.95 -2.25 41.0 -0.25 41.65 0.2 46.95 0.8 54.65 1.15 55.3 1.25 56.3 1.25 56.4 Q1.5 57.55 2.45 58.2 L2.45 58.15 Q5.2 59.9 7.15 59.4 L8.5 58.5 9.65 56.65 9.95 56.0 8.55 41.65 10.95 40.7" fill="#5c4730" fill-rule="evenodd" stroke="none"/>
    <path d="M8.55 41.65 L9.95 56.0 9.65 56.65 8.5 58.5 7.15 59.4 Q5.2 59.9 2.45 58.15 L2.45 58.2 Q1.5 57.55 1.25 56.4 L1.25 56.3 1.15 55.3 0.8 54.65 0.2 46.95 -0.25 41.65 Q4.3 42.9 8.55 41.65" fill="#ffcc99" fill-rule="evenodd" stroke="none"/>
    <path d="M12.1 30.45 L12.65 30.2 12.85 30.1 Q14.8 29.1 16.35 27.9 L16.5 27.75 14.65 35.7 10.85 38.5 12.1 30.5 12.1 30.45 M-2.5 38.7 L-5.1 37.3 -6.8 32.5 -6.25 32.7 -4.3 33.15 -4.15 33.15 -3.95 33.2 -3.8 33.2 -3.7 33.2 -3.45 33.25 -2.5 38.7" fill="#6dadd8" fill-rule="evenodd" stroke="none"/>
    <path d="M10.85 38.5 L10.8 38.5 10.2 38.85 10.2 38.8 8.35 39.6 Q4.1 40.95 -0.45 39.5 L-1.9 39.0 -2.5 38.7 -3.45 33.25 -2.05 33.4 5.75 32.65 6.55 32.45 9.2 31.65 12.1 30.45 12.1 30.5 10.85 38.5" fill="#a4cbe6" fill-rule="evenodd" stroke="none"/>
  </g>
</svg>
