<?xml version="1.0" encoding="UTF-8" standalone="no"?>
<svg xmlns:ffdec="https://www.free-decompiler.com/flash" xmlns:xlink="http://www.w3.org/1999/xlink" ffdec:objectType="shape" height="67.4px" width="105.85px" xmlns="http://www.w3.org/2000/svg">
  <g transform="matrix(1.0, 0.0, 0.0, 1.0, 44.4, 9.9)">
    <path d="M33.65 41.45 L32.65 37.45 32.65 37.5 31.8 35.7 31.8 35.65 Q30.4 33.3 27.6 30.85 L22.25 26.85 20.2 25.5 Q13.7 21.45 13.75 16.5 17.15 15.35 26.1 13.7 L28.7 13.25 35.75 12.7 Q45.4 12.7 50.4 17.65 L59.3 26.25 61.45 28.15 61.45 28.2 58.6 28.0 51.6 28.35 Q57.9 34.75 56.45 40.3 L56.1 41.9 54.8 40.8 Q51.2 37.7 45.9 36.4 48.35 41.2 47.9 47.2 47.5 51.45 45.65 55.0 L44.35 57.5 43.6 57.3 43.75 54.45 Q43.95 51.25 43.15 48.15 L43.15 48.2 Q42.5 45.95 41.3 44.2 L41.1 45.55 Q40.65 47.35 39.9 48.8 38.5 51.55 36.2 53.3 L34.65 54.55 34.6 52.55 Q34.5 46.1 33.65 41.45 M48.85 27.5 L49.3 27.2 Q51.0 25.85 57.75 26.4 53.55 23.55 49.0 19.05 L49.0 19.1 Q44.5 14.7 35.75 14.7 L30.5 15.0 26.45 15.65 Q18.8 17.05 17.45 19.2 16.7 20.95 21.25 23.8 L21.2 23.8 23.4 25.2 23.35 25.2 Q26.55 27.3 28.9 29.35 31.0 31.2 32.35 33.0 L33.5 34.65 33.85 35.2 34.55 36.85 Q36.25 41.95 36.05 52.5 L38.1 47.9 39.15 45.1 Q39.55 43.2 39.3 41.4 L39.0 38.55 38.05 35.7 41.1 40.65 42.45 42.45 42.45 42.4 Q44.2 44.6 45.05 47.65 L45.1 47.65 45.5 53.15 45.9 47.05 Q46.4 40.55 43.1 35.55 L41.6 32.15 44.05 34.05 Q50.3 35.05 55.65 39.9 54.55 33.8 49.2 28.75 L48.3 27.9 48.85 27.5" fill="#3e170b" fill-rule="evenodd" stroke="none"/>
    <path d="M32.35 33.0 Q31.0 31.2 28.9 29.35 26.55 27.3 23.35 25.2 L23.4 25.2 21.2 23.8 21.25 23.8 Q16.7 20.95 17.45 19.2 18.8 17.05 26.45 15.65 L30.5 15.0 35.75 14.7 Q44.5 14.7 49.0 19.1 L49.0 19.05 Q53.55 23.55 57.75 26.4 51.0 25.85 49.3 27.2 L48.85 27.5 48.7 27.4 Q44.05 19.45 35.7 17.9 38.5 21.5 38.95 25.9 35.7 24.45 32.5 23.65 28.7 22.7 24.95 22.65 L26.65 24.1 Q28.6 25.9 30.0 27.9 31.8 30.5 32.35 33.0" fill="#4b2e10" fill-rule="evenodd" stroke="none"/>
    <path d="M48.85 27.5 L48.3 27.9 49.2 28.75 Q54.55 33.8 55.65 39.9 50.3 35.05 44.05 34.05 L41.6 32.15 43.1 35.55 Q46.4 40.55 45.9 47.05 L45.5 53.15 45.1 47.65 45.05 47.65 Q44.2 44.6 42.45 42.4 L42.45 42.45 41.1 40.65 38.05 35.7 39.0 38.55 39.3 41.4 Q39.55 43.2 39.15 45.1 L38.1 47.9 36.05 52.5 Q36.25 41.95 34.55 36.85 L33.85 35.2 33.5 34.65 32.35 33.0 Q31.8 30.5 30.0 27.9 28.6 25.9 26.65 24.1 L24.95 22.65 Q28.7 22.7 32.5 23.65 35.7 24.45 38.95 25.9 38.5 21.5 35.7 17.9 44.05 19.45 48.7 27.4 L48.85 27.5" fill="#5c3814" fill-rule="evenodd" stroke="none"/>
    <path d="M33.65 41.45 Q33.05 47.8 30.7 52.65 29.95 42.0 23.7 34.15 23.2 38.75 20.7 41.4 15.4 34.45 6.15 27.95 -12.35 14.85 -26.1 17.7 -39.85 20.5 -36.05 12.15 -5.3 -17.75 28.7 13.25 L26.1 13.7 Q17.15 15.35 13.75 16.5 13.7 21.45 20.2 25.5 L22.25 26.85 27.6 30.85 Q30.4 33.3 31.8 35.65 L31.8 35.7 32.65 37.5 32.65 37.45 33.65 41.45" fill="#f1ba87" fill-rule="evenodd" stroke="none"/>
    <path d="M8.65 -7.35 L8.55 -7.35 -7.65 -7.4 Q-14.45 -7.55 -21.2 -5.9 -25.05 -5.05 -28.9 -3.5 L-29.1 -3.45 -30.15 -3.0 -31.1 -2.55 Q-38.95 1.05 -41.8 7.2 -43.7 12.2 -41.9 13.05 L-32.6 13.45 -21.0 12.85 Q-6.85 12.6 1.2 17.0 9.1 21.25 17.25 29.5 L17.25 29.55 17.6 30.0 18.1 30.45 Q17.75 26.45 14.55 21.8 13.55 20.25 12.35 18.85 L10.55 17.1 9.9 16.5 9.85 16.45 8.25 14.9 27.95 18.3 Q29.15 17.0 21.9 12.55 L23.95 12.4 32.9 12.15 32.95 12.15 Q36.85 11.95 43.45 13.3 L48.85 14.5 47.25 12.9 45.15 11.35 41.65 8.95 41.25 8.7 Q39.1 7.25 29.25 5.3 37.8 1.5 46.65 0.2 32.85 -3.05 19.65 -2.45 L18.3 -2.5 18.55 -3.45 Q18.5 -3.65 18.6 -3.75 L19.25 -4.8 Q19.7 -5.45 20.65 -6.1 L20.65 -6.15 Q17.8 -7.55 10.7 -7.4 L8.65 -7.35 M-0.45 -9.85 Q4.75 -10.05 12.5 -9.6 L25.25 -9.25 28.55 -9.35 28.65 -9.15 25.9 -7.65 Q24.1 -6.65 22.35 -5.0 L22.3 -5.0 21.5 -4.3 Q36.75 -4.7 52.8 -0.2 L56.5 0.75 56.35 1.4 52.45 1.65 Q42.2 2.2 36.75 5.35 40.1 6.15 43.95 8.3 L44.0 8.35 45.05 8.95 45.1 9.0 Q51.15 12.6 52.8 15.95 L53.9 17.75 51.2 17.1 42.95 15.15 Q36.75 13.9 33.05 13.95 29.0 13.85 26.35 14.0 L32.05 19.55 34.25 21.75 34.15 21.9 30.8 20.95 Q22.2 18.45 14.95 19.0 21.3 27.0 20.2 33.15 L19.85 35.2 18.2 33.35 Q9.2 23.25 1.0 19.4 -7.3 15.4 -21.05 14.4 L-33.05 14.85 -42.3 14.45 -42.35 14.45 Q-44.4 13.65 -44.4 10.85 L-43.95 7.85 -43.9 7.7 Q-39.75 -0.9 -28.5 -5.3 -18.55 -9.35 -0.45 -9.85" fill="#3e170b" fill-rule="evenodd" stroke="none"/>
    <path d="M-31.1 -2.55 L-30.15 -3.0 -29.1 -3.45 -28.9 -3.5 Q-25.05 -5.05 -21.2 -5.9 -14.45 -7.55 -7.65 -7.4 L8.55 -7.35 8.65 -7.35 20.65 -6.1 Q19.7 -5.45 19.25 -4.8 L18.6 -3.75 Q18.5 -3.65 18.55 -3.45 L18.3 -2.5 19.65 -2.45 Q32.85 -3.05 46.65 0.2 37.8 1.5 29.25 5.3 39.1 7.25 41.25 8.7 L41.65 8.95 45.15 11.35 47.25 12.9 48.85 14.5 43.45 13.3 Q36.85 11.95 32.95 12.15 L32.9 12.15 23.95 12.4 21.9 12.55 Q29.15 17.0 27.95 18.3 L8.25 14.9 9.85 16.45 9.9 16.5 10.15 16.75 11.8 18.5 13.5 20.45 14.55 21.8 Q17.75 26.45 18.1 30.45 12.85 21.95 4.35 12.85 L21.4 15.0 17.55 11.85 17.75 11.5 Q29.45 10.7 42.0 12.2 14.7 7.65 -0.3 0.65 14.65 1.1 13.3 -1.4 L-8.65 -2.45 -22.1 -2.55 -20.9 -3.85 -21.6 -3.5 -23.05 -2.55 -31.1 -2.55" fill="#723703" fill-rule="evenodd" stroke="none"/>
    <path d="M8.65 -7.35 L10.7 -7.4 Q17.8 -7.55 20.65 -6.15 L20.65 -6.1 8.65 -7.35 M10.55 17.1 L12.35 18.85 Q13.55 20.25 14.55 21.8 L13.5 20.45 11.8 18.5 10.15 16.75 10.55 17.1 M18.1 30.45 L17.6 30.0 17.25 29.55 17.25 29.5 Q9.1 21.25 1.2 17.0 -6.85 12.6 -21.0 12.85 L-32.6 13.45 -41.9 13.05 Q-43.7 12.2 -41.8 7.2 -38.95 1.05 -31.1 -2.55 L-23.05 -2.55 -26.05 -0.55 -26.05 -0.5 Q-26.9 0.5 -26.6 1.3 -26.45 2.15 -25.15 2.65 -23.3 3.4 -16.4 4.05 L-3.6 5.7 Q2.25 6.7 16.3 11.1 2.35 3.9 -0.55 3.4 L-0.6 3.4 Q-8.35 1.95 -18.4 1.95 L-24.5 1.35 -25.05 0.95 -24.8 0.4 -24.75 0.4 -22.1 -2.55 -8.65 -2.45 13.3 -1.4 Q14.65 1.1 -0.3 0.65 14.7 7.65 42.0 12.2 29.45 10.7 17.75 11.5 L17.55 11.85 21.4 15.0 4.35 12.85 Q12.85 21.95 18.1 30.45 M-35.6 3.5 Q-33.65 0.75 -32.15 -0.4 -34.7 0.9 -37.35 4.1 -41.35 8.6 -40.85 9.65 -40.6 10.9 -32.6 10.65 L-15.0 10.0 Q-5.45 9.65 7.25 17.65 -5.15 7.65 -20.3 8.25 L-36.9 8.7 Q-39.6 8.8 -35.6 3.5" fill="#793d04" fill-rule="evenodd" stroke="none"/>
    <path d="M-23.05 -2.55 L-21.6 -3.5 -20.9 -3.85 -22.1 -2.55 -24.75 0.4 -24.8 0.4 -25.05 0.95 -24.5 1.35 -18.4 1.95 Q-8.35 1.95 -0.6 3.4 L-0.55 3.4 Q2.35 3.9 16.3 11.1 2.25 6.7 -3.6 5.7 L-16.4 4.05 Q-23.3 3.4 -25.15 2.65 -26.45 2.15 -26.6 1.3 -26.9 0.5 -26.05 -0.5 L-26.05 -0.55 -23.05 -2.55 M-35.6 3.5 Q-39.6 8.8 -36.9 8.7 L-20.3 8.25 Q-5.15 7.65 7.25 17.65 -5.45 9.65 -15.0 10.0 L-32.6 10.65 Q-40.6 10.9 -40.85 9.65 -41.35 8.6 -37.35 4.1 -34.7 0.9 -32.15 -0.4 -33.65 0.75 -35.6 3.5" fill="#994b04" fill-rule="evenodd" stroke="none"/>
  </g>
</svg>
