<?xml version="1.0" encoding="UTF-8" standalone="no"?>
<svg xmlns:ffdec="https://www.free-decompiler.com/flash" xmlns:xlink="http://www.w3.org/1999/xlink" ffdec:objectType="shape" height="108.0px" width="93.05px" xmlns="http://www.w3.org/2000/svg">
  <g transform="matrix(1.0, 0.0, 0.0, 1.0, 50.0, 60.0)">
    <path d="M-33.15 22.35 L-36.35 19.4 Q-50.0 5.75 -50.0 -13.45 -50.0 -29.7 -40.35 -41.9 L-40.3 -41.9 Q-38.75 -44.05 -36.8 -45.9 L-36.4 -46.35 -36.15 -46.5 Q-22.6 -60.0 -3.45 -60.0 15.75 -60.0 29.4 -46.35 43.05 -32.7 43.05 -13.45 43.05 5.75 29.45 19.4 L28.35 19.25 27.95 18.85 27.5 19.25 26.9 19.3 26.9 19.85 Q24.9 21.65 21.75 23.3 25.0 21.0 28.0 18.0 41.05 4.95 41.05 -13.45 41.05 -31.9 28.0 -44.95 14.95 -58.0 -3.45 -58.0 -19.95 -58.0 -32.1 -47.55 L-32.8 -46.95 -34.95 -44.95 -35.15 -44.8 -35.3 -44.55 -35.4 -44.45 -38.75 -40.7 -38.75 -40.65 Q-48.0 -29.0 -48.0 -13.45 -48.0 4.95 -34.95 18.0 L-32.0 20.75 Q-28.15 24.0 -23.85 26.25 L-20.9 27.65 -19.25 28.35 Q-20.35 28.75 -21.25 29.65 L-24.8 28.0 Q-28.35 26.1 -31.6 23.6 L-33.15 22.35" fill="#5c4730" fill-rule="evenodd" stroke="none"/>
    <path d="M-20.9 27.65 L-23.85 26.25 Q-28.15 24.0 -32.0 20.75 L-34.95 18.0 Q-48.0 4.95 -48.0 -13.45 -48.0 -29.0 -38.75 -40.65 L-38.75 -40.7 -35.4 -44.45 -35.3 -44.55 -35.15 -44.8 -34.95 -44.95 -32.8 -46.95 Q-25.0 -50.65 -15.6 -50.6 0.95 -50.6 12.7 -39.1 24.45 -27.6 24.45 -11.3 24.45 4.95 12.7 16.45 8.45 20.6 3.6 23.3 L3.55 23.15 3.2 22.75 2.7 22.6 Q-5.2 22.15 -12.4 27.85 L-15.6 27.95 -16.25 27.95 -17.05 27.9 -17.45 27.95 -19.35 27.8 -20.9 27.65" fill="#ffcc99" fill-rule="evenodd" stroke="none"/>
    <path d="M-19.25 28.35 L-20.9 27.65 -19.35 27.8 -17.45 27.95 -19.25 28.35 M-32.8 -46.95 L-32.1 -47.55 Q-21.85 -54.5 -8.65 -54.5 9.0 -54.5 21.5 -42.0 34.0 -29.5 34.0 -11.85 34.0 5.85 21.5 18.3 14.5 25.35 5.85 28.4 5.05 25.95 3.6 23.3 8.45 20.6 12.7 16.45 24.45 4.95 24.45 -11.3 24.45 -27.6 12.7 -39.1 0.95 -50.6 -15.6 -50.6 -25.0 -50.65 -32.8 -46.95 M-12.4 27.85 L-13.7 28.95 Q-14.85 28.1 -16.25 27.95 L-15.6 27.95 -12.4 27.85" fill="#f1ba87" fill-rule="evenodd" stroke="none"/>
    <path d="M-32.1 -47.55 Q-19.95 -58.0 -3.45 -58.0 14.95 -58.0 28.0 -44.95 41.05 -31.9 41.05 -13.45 41.05 4.95 28.0 18.0 25.0 21.0 21.75 23.3 15.9 26.35 6.0 28.9 L5.85 28.4 Q14.5 25.35 21.5 18.3 34.0 5.85 34.0 -11.85 34.0 -29.5 21.5 -42.0 9.0 -54.5 -8.65 -54.5 -21.85 -54.5 -32.1 -47.55" fill="#db9c64" fill-rule="evenodd" stroke="none"/>
    <path d="M21.75 23.3 Q24.9 21.65 26.9 19.85 L26.9 19.3 27.5 19.25 27.95 18.85 28.35 19.25 29.45 19.4 30.45 19.8 Q31.5 20.5 31.5 22.0 31.5 24.0 28.55 28.05 23.15 35.5 6.05 39.4 L6.6 37.55 6.65 37.2 Q21.9 33.55 26.95 26.85 29.4 23.55 29.5 21.95 L29.3 21.5 28.35 21.25 Q26.15 23.3 22.6 25.15 16.55 28.25 6.55 30.85 L6.0 28.9 Q15.9 26.35 21.75 23.3" fill="#2c525f" fill-rule="evenodd" stroke="none"/>
    <path d="M6.55 30.85 Q16.55 28.25 22.6 25.15 26.15 23.3 28.35 21.25 L29.3 21.5 29.5 21.95 Q29.4 23.55 26.95 26.85 21.9 33.55 6.65 37.2 7.25 34.25 6.55 30.85" fill="#8dbfe0" fill-rule="evenodd" stroke="none"/>
    <path d="M-33.15 22.35 L-31.6 23.6 Q-35.85 30.55 -31.9 40.05 -26.7 40.6 -21.85 37.45 -23.05 35.85 -23.05 33.85 -23.05 31.4 -21.25 29.65 -20.35 28.75 -19.25 28.35 L-17.45 27.95 -17.05 27.9 -16.25 27.95 Q-14.85 28.1 -13.7 28.95 L-12.4 27.85 Q-5.2 22.15 2.7 22.6 L3.2 22.75 3.55 23.15 3.6 23.3 Q5.05 25.95 5.85 28.4 L6.0 28.9 6.55 30.85 Q7.25 34.25 6.65 37.2 L6.6 37.55 6.05 39.4 Q4.1 44.45 -2.15 47.9 L-2.55 48.0 -2.95 47.95 Q-12.3 44.85 -15.35 39.65 L-17.05 39.85 Q-18.95 39.85 -20.4 38.8 -26.35 42.95 -32.75 41.95 L-33.2 41.75 -33.5 41.35 Q-38.35 30.35 -33.15 22.35 M-21.05 33.85 L-20.85 35.1 -19.85 36.7 -19.35 37.15 Q-18.35 37.85 -17.05 37.85 L-16.3 37.8 Q-18.0 33.8 -15.15 30.4 -16.05 29.9 -17.05 29.9 -18.2 29.9 -19.15 30.5 L-19.75 30.95 -19.85 31.05 -19.85 31.1 Q-21.05 32.2 -21.05 33.85 M2.05 24.6 L0.95 24.6 Q-3.7 24.8 -8.05 27.35 -10.2 28.55 -12.2 30.3 L-12.25 30.35 -13.25 31.25 -13.3 31.3 -13.7 31.75 Q-15.6 34.1 -14.5 36.9 L-14.0 37.9 -14.0 37.95 -13.55 38.75 Q-10.75 43.15 -2.75 45.9 2.3 43.0 4.05 38.9 L4.65 37.1 4.7 36.9 Q5.2 34.3 4.6 31.3 L4.1 29.4 4.0 29.05 2.05 24.6" fill="#6a0000" fill-rule="evenodd" stroke="none"/>
    <path d="M-21.05 33.85 Q-21.05 32.2 -19.85 31.1 L-19.85 31.05 -19.75 30.95 -19.15 30.5 Q-18.2 29.9 -17.05 29.9 -16.05 29.9 -15.15 30.4 -18.0 33.8 -16.3 37.8 L-17.05 37.85 Q-18.35 37.85 -19.35 37.15 L-19.85 36.7 -20.85 35.1 -21.05 33.85 M2.05 24.6 L4.0 29.05 4.1 29.4 4.6 31.3 Q5.2 34.3 4.7 36.9 L4.65 37.1 4.05 38.9 Q2.3 43.0 -2.75 45.9 -10.75 43.15 -13.55 38.75 L-14.0 37.95 -14.0 37.9 -14.5 36.9 Q-15.6 34.1 -13.7 31.75 L-13.3 31.3 -13.25 31.25 -12.25 30.35 -12.2 30.3 Q-10.2 28.55 -8.05 27.35 -3.7 24.8 0.95 24.6 L2.05 24.6 M-2.35 42.5 Q-5.15 39.4 -4.7 37.75 L1.5 37.25 Q-2.15 35.2 -2.85 33.25 -1.65 29.65 1.15 28.5 -5.45 28.05 -11.1 33.5 -12.95 35.4 -11.35 37.25 -8.8 41.8 -2.35 42.5" fill="#b10000" fill-rule="evenodd" stroke="none"/>
    <path d="M-2.35 42.5 Q-8.8 41.8 -11.35 37.25 -12.95 35.4 -11.1 33.5 -5.45 28.05 1.15 28.5 -1.65 29.65 -2.85 33.25 -2.15 35.2 1.5 37.25 L-4.7 37.75 Q-5.15 39.4 -2.35 42.5" fill="#d50000" fill-rule="evenodd" stroke="none"/>
    <path d="M-31.6 23.6 Q-28.35 26.1 -24.8 28.0 L-21.25 29.65 Q-23.05 31.4 -23.05 33.85 -23.05 35.85 -21.85 37.45 -26.7 40.6 -31.9 40.05 -35.85 30.55 -31.6 23.6" fill="#970000" fill-rule="evenodd" stroke="none"/>
  </g>
</svg>
