<?xml version="1.0" encoding="UTF-8" standalone="no"?>
<svg xmlns:ffdec="https://www.free-decompiler.com/flash" xmlns:xlink="http://www.w3.org/1999/xlink" ffdec:objectType="shape" height="62.5px" width="46.0px" xmlns="http://www.w3.org/2000/svg">
  <g transform="matrix(1.0, 0.0, 0.0, 1.0, 16.5, 11.55)">
    <path d="M-2.95 -11.15 Q1.45 -12.15 5.85 -10.6 L5.9 -10.65 Q11.75 -8.6 13.65 -2.9 L25.3 32.45 25.55 33.45 Q25.45 33.5 25.5 33.7 L25.6 33.85 25.8 34.25 26.1 34.75 26.6 35.6 Q28.45 38.95 29.35 42.95 29.7 44.55 29.35 45.95 28.95 47.5 27.65 48.65 L26.4 49.6 26.25 49.65 26.2 49.7 Q24.05 50.95 21.85 50.95 20.15 50.85 18.45 50.05 15.7 48.75 14.3 46.2 L14.25 46.05 13.4 45.35 Q14.05 45.8 12.9 44.3 L12.75 44.55 12.35 44.1 12.5 44.05 10.9 41.95 10.45 41.65 10.4 41.7 10.35 41.55 -13.9 11.7 Q-17.6 7.1 -16.05 1.15 L-15.95 0.95 Q-15.0 -3.55 -11.65 -6.6 -13.3 -4.85 -14.6 -0.9 -16.3 4.25 -11.15 10.15 L-11.25 10.15 -5.7 17.35 9.85 37.85 9.8 37.95 10.75 39.7 12.1 40.7 12.2 40.75 13.1 41.7 14.35 43.05 14.4 43.1 15.8 45.05 Q17.0 46.85 18.8 47.85 20.45 48.9 22.05 48.9 23.6 48.95 25.15 48.0 L25.2 47.95 25.85 47.4 25.9 47.45 25.95 47.4 26.3 47.15 Q27.15 46.4 27.45 45.45 27.65 44.5 27.35 43.35 26.3 39.75 24.8 36.3 L24.45 35.45 24.1 34.6 24.0 34.45 Q23.3 32.15 22.0 29.9 L10.85 -1.5 Q10.5 -6.55 6.0 -9.1 1.45 -11.65 -2.95 -11.15" fill="#2c525f" fill-rule="evenodd" stroke="none"/>
    <path d="M25.95 47.4 L25.9 47.45 25.85 47.4 25.2 47.95 25.15 48.0 Q23.6 48.95 22.05 48.9 20.45 48.9 18.8 47.85 17.0 46.85 15.8 45.05 L14.4 43.1 14.35 43.05 13.1 41.7 12.2 40.75 12.1 40.7 10.75 39.7 9.8 37.95 9.85 37.85 -5.7 17.35 Q-9.05 12.05 -11.25 1.5 -3.0 -19.5 9.5 5.55 21.95 30.6 25.85 47.4 26.1 45.3 25.95 47.4" fill="#c1dcee" fill-rule="evenodd" stroke="none"/>
    <path d="M-2.95 -11.15 Q1.45 -11.65 6.0 -9.1 10.5 -6.55 10.85 -1.5 L22.0 29.9 Q23.3 32.15 24.0 34.45 L24.1 34.6 24.45 35.45 24.8 36.3 Q26.3 39.75 27.35 43.35 27.65 44.5 27.45 45.45 27.15 46.4 26.3 47.15 L25.95 47.4 Q26.1 45.3 25.85 47.4 21.95 30.6 9.5 5.55 -3.0 -19.5 -11.25 1.5 -9.05 12.05 -5.7 17.35 L-11.25 10.15 -11.15 10.15 Q-16.3 4.25 -14.6 -0.9 -13.3 -4.85 -11.65 -6.6 L-10.55 -7.5 -7.6 -9.4 -6.85 -9.75 -6.05 -10.15 -2.95 -11.15" fill="#8bbfde" fill-rule="evenodd" stroke="none"/>
  </g>
</svg>
