<?xml version="1.0" encoding="UTF-8" standalone="no"?>
<svg xmlns:ffdec="https://www.free-decompiler.com/flash" xmlns:xlink="http://www.w3.org/1999/xlink" ffdec:objectType="shape" height="30.85px" width="41.2px" xmlns="http://www.w3.org/2000/svg">
  <g transform="matrix(1.0, 0.0, 0.0, 1.0, 35.55, 7.1)">
    <path d="M-35.55 7.45 L-35.15 7.1 -34.4 7.05 Q-26.4 9.85 -17.85 8.55 -3.9 6.15 2.6 -6.45 2.8 -6.8 3.2 -6.95 L3.55 -7.0 3.6 -7.0 3.75 -7.1 5.2 -0.35 Q6.05 4.85 5.25 12.35 L5.0 12.95 4.8 13.35 Q-4.25 25.65 -19.6 23.4 -27.65 22.1 -32.4 13.95 -34.45 9.3 -35.55 7.45 M-27.95 10.7 Q-27.1 11.35 -26.1 12.55 L-25.9 12.55 Q-23.95 13.4 -19.05 13.4 -14.5 13.4 -8.9 11.75 -5.5 10.7 -2.75 8.9 L1.35 5.3 Q2.65 4.45 3.6 3.05 L3.2 -2.45 3.1 -3.25 Q-3.9 8.15 -17.5 10.5 L-17.55 10.5 Q-22.85 11.35 -27.95 10.65 L-29.3 10.45 -33.1 9.6 Q-31.75 11.15 -30.7 12.95 L-30.65 12.95 Q-26.45 20.2 -19.3 21.45 L-19.3 21.4 Q-10.55 22.7 -4.0 18.85 L-3.0 18.25 -3.25 18.4 -3.3 18.1 -3.3 16.85 Q-3.45 9.55 3.05 9.55 L3.5 9.6 3.65 4.75 Q2.2 6.85 -1.3 9.3 -8.75 14.55 -19.4 14.55 -23.4 14.55 -25.5 13.7 L-26.0 13.85 Q-26.5 13.85 -31.1 10.1 L-29.3 10.5 -27.95 10.7 M3.35 11.2 L3.4 10.7 Q0.1 10.55 -0.9 11.85 L-1.7 14.4 Q-2.1 15.25 -2.35 17.8 0.7 15.55 3.2 12.15 L3.25 12.1 3.35 11.2" fill="#463624" fill-rule="evenodd" stroke="none"/>
    <path d="M-27.95 10.65 Q-22.85 11.35 -17.55 10.5 L-17.5 10.5 Q-3.9 8.15 3.1 -3.25 L3.2 -2.45 3.6 3.05 Q2.65 4.45 1.35 5.3 L-2.75 8.9 Q-5.5 10.7 -8.9 11.75 -14.5 13.4 -19.05 13.4 -23.95 13.4 -25.9 12.55 L-26.1 12.55 Q-27.1 11.35 -27.95 10.7 L-27.95 10.65" fill="#e5e5e5" fill-rule="evenodd" stroke="none"/>
    <path d="M-27.95 10.7 L-29.3 10.5 -31.1 10.1 Q-26.5 13.85 -26.0 13.85 L-25.5 13.7 Q-23.4 14.55 -19.4 14.55 -8.75 14.55 -1.3 9.3 2.2 6.85 3.65 4.75 L3.5 9.6 3.05 9.55 Q-3.45 9.55 -3.3 16.85 L-3.3 18.1 -3.25 18.4 -3.0 18.25 -4.0 18.85 Q-10.55 22.7 -19.3 21.4 L-19.3 21.45 Q-26.45 20.2 -30.65 12.95 L-30.7 12.95 Q-31.75 11.15 -33.1 9.6 L-29.3 10.45 -27.95 10.65 -27.95 10.7" fill="#57352d" fill-rule="evenodd" stroke="none"/>
    <path d="M3.35 11.2 L3.25 12.1 3.2 12.15 Q0.7 15.55 -2.35 17.8 -2.1 15.25 -1.7 14.4 L-0.9 11.85 Q0.1 10.55 3.4 10.7 L3.35 11.2" fill="#b45f50" fill-rule="evenodd" stroke="none"/>
  </g>
</svg>
