<?xml version="1.0" encoding="UTF-8" standalone="no"?>
<svg xmlns:ffdec="https://www.free-decompiler.com/flash" xmlns:xlink="http://www.w3.org/1999/xlink" ffdec:objectType="shape" height="30.85px" width="41.2px" xmlns="http://www.w3.org/2000/svg">
  <g transform="matrix(1.0, 0.0, 0.0, 1.0, 35.55, 7.1)">
    <path d="M3.6 2.95 L3.2 -2.45 3.1 -3.25 Q-3.9 8.15 -17.5 10.5 L-17.55 10.5 Q-22.8 11.35 -27.85 10.65 L-28.6 10.5 -28.9 10.55 -29.3 10.45 -33.1 9.6 -31.95 11.0 -31.4 11.85 -30.7 12.95 -30.65 12.95 -30.6 13.05 -29.9 14.2 -29.9 14.15 -29.7 14.1 -25.65 16.8 -22.9 16.1 -22.5 16.0 -20.4 15.55 -20.25 15.5 -19.35 15.5 -19.25 15.75 -19.3 16.0 -19.35 16.0 Q-21.05 16.35 -24.3 17.55 L-24.8 19.05 -24.8 19.15 -24.85 19.3 -22.7 20.45 -19.3 21.45 -19.3 21.4 Q-10.55 22.7 -4.0 18.85 L-3.55 18.6 -3.25 18.4 0.55 15.2 1.15 14.6 3.2 12.15 3.25 12.1 3.25 12.05 3.5 12.05 3.55 11.25 Q2.6 10.45 2.05 10.45 -0.2 10.45 -1.95 11.25 L-2.0 11.3 -2.05 11.3 -2.6 11.65 -3.65 12.2 -3.7 12.2 -3.8 12.2 -4.3 12.2 -4.4 12.0 Q-4.4 11.6 -3.0 10.95 L-2.55 10.75 -2.5 10.75 -2.0 10.55 -1.05 10.2 -0.95 10.15 -0.8 10.1 2.35 8.85 Q3.1 7.75 3.65 6.1 L3.65 6.85 3.7 6.05 3.7 6.0 3.65 3.85 3.55 3.15 3.6 3.05 3.6 2.95 M-3.55 18.6 L-4.25 19.15 -3.55 18.6 M2.6 -6.45 Q2.8 -6.8 3.2 -6.95 L3.55 -7.0 3.6 -7.0 3.75 -7.1 5.2 -0.35 Q6.05 4.85 5.25 12.35 L5.0 12.95 4.8 13.35 Q-4.25 25.65 -19.6 23.4 -27.65 22.1 -32.4 13.95 -34.45 9.3 -35.55 7.45 L-35.15 7.1 -34.4 7.05 Q-26.4 9.85 -17.85 8.55 -3.9 6.15 2.6 -6.45 M-25.0 19.2 L-25.85 18.6 -25.9 18.15 -27.7 16.7 -28.3 16.3 -28.15 16.5 -26.45 18.1 -25.0 19.2" fill="#463624" fill-rule="evenodd" stroke="none"/>
    <path d="M-29.9 14.2 L-30.6 13.05 -30.65 12.95 -30.7 12.95 -31.4 11.85 -31.95 11.0 -33.1 9.6 -29.3 10.45 -28.9 10.55 -28.6 10.5 -27.85 10.65 Q-22.8 11.35 -17.55 10.5 L-17.5 10.5 Q-3.9 8.15 3.1 -3.25 L3.2 -2.45 3.6 2.95 3.55 3.0 3.45 3.15 3.55 3.15 3.65 3.85 3.7 6.0 3.7 6.05 3.65 6.1 Q3.1 7.75 2.35 8.85 L-0.8 10.1 -0.95 10.15 -1.05 10.2 -2.0 10.55 -2.5 10.75 -2.55 10.75 -2.75 10.75 -3.0 10.95 Q-4.4 11.6 -4.4 12.0 L-4.3 12.2 -3.8 12.2 -3.7 12.2 -3.65 12.2 -2.6 11.65 -2.05 11.3 -2.0 11.3 -1.95 11.3 -1.95 11.25 Q-0.2 10.45 2.05 10.45 2.6 10.45 3.55 11.25 L3.5 12.05 3.25 12.05 3.25 12.1 3.2 12.15 1.15 14.6 0.55 15.2 Q0.35 11.95 -2.25 11.95 L-4.7 12.65 -4.95 12.6 -5.05 12.3 Q-5.05 11.6 -1.0 8.55 -0.5 8.15 -0.05 6.95 L-3.25 8.8 Q-8.0 10.85 -9.8 11.3 -16.15 12.8 -19.9 12.8 L-28.4 12.05 -31.15 11.25 Q-27.6 15.55 -22.3 15.55 L-18.0 15.3 -15.45 15.4 Q-15.35 15.45 -15.4 15.65 -16.55 16.4 -20.2 17.95 -21.6 18.85 -22.1 20.65 L-22.7 20.45 -24.85 19.3 -24.8 19.15 -24.8 19.1 -24.8 19.05 -24.3 17.55 Q-21.05 16.35 -19.35 16.0 L-19.3 16.0 -19.25 15.75 -19.35 15.5 -20.25 15.5 -20.4 15.55 -22.5 16.0 -22.9 16.1 -25.65 16.8 -29.7 14.1 -29.9 14.15 -29.9 14.2" fill="#e5e5e5" fill-rule="evenodd" stroke="none"/>
    <path d="M3.6 2.95 L3.6 3.05 3.55 3.15 3.45 3.15 3.55 3.0 3.6 2.95 M-2.55 10.75 L-3.0 10.95 -2.75 10.75 -2.55 10.75 M-2.0 11.3 L-1.95 11.25 -1.95 11.3 -2.0 11.3 M0.55 15.2 L-3.25 18.4 -3.55 18.6 -4.0 18.85 Q-10.55 22.7 -19.3 21.4 L-19.3 21.45 -22.7 20.45 -22.1 20.65 Q-21.6 18.85 -20.2 17.95 -16.55 16.4 -15.4 15.65 -15.35 15.45 -15.45 15.4 L-18.0 15.3 -22.3 15.55 Q-27.6 15.55 -31.15 11.25 L-28.4 12.05 -19.9 12.8 Q-16.15 12.8 -9.8 11.3 -8.0 10.85 -3.25 8.8 L-0.05 6.95 Q-0.5 8.15 -1.0 8.55 -5.05 11.6 -5.05 12.3 L-4.95 12.6 -4.7 12.65 -2.25 11.95 Q0.35 11.95 0.55 15.2" fill="#f9f9f9" fill-rule="evenodd" stroke="none"/>
    <path d="M-24.8 19.15 L-24.8 19.05 -24.8 19.1 -24.8 19.15 M-25.0 19.2 L-26.45 18.1 -28.15 16.5 -28.3 16.3 -27.7 16.7 -25.9 18.15 -25.85 18.6 -25.0 19.2" fill="#57352d" fill-rule="evenodd" stroke="none"/>
  </g>
</svg>
