<?xml version="1.0" encoding="UTF-8" standalone="no"?>
<svg xmlns:ffdec="https://www.free-decompiler.com/flash" xmlns:xlink="http://www.w3.org/1999/xlink" ffdec:objectType="shape" height="14.65px" width="27.85px" xmlns="http://www.w3.org/2000/svg">
  <g transform="matrix(1.0, 0.0, 0.0, 1.0, 23.6, -4.5)">
    <path d="M3.5 7.2 Q4.25 8.3 4.25 10.75 4.25 13.2 0.85 15.75 -3.65 19.1 -11.25 19.1 L-15.85 19.0 -15.9 19.0 -17.1 19.15 Q-24.0 19.15 -23.55 13.55 L-23.45 12.75 Q-22.8 9.8 -16.65 7.2 -10.35 4.5 -4.0 4.5 1.75 4.5 3.5 7.2 M-20.25 17.2 L-20.05 17.3 -19.1 17.7 Q-7.35 18.85 -2.0 15.7 2.35 13.15 2.35 10.4 2.35 6.25 -5.25 6.25 -13.05 6.25 -18.3 9.55 L-22.05 12.35 -21.35 13.3 -20.75 14.05 Q-18.95 12.35 -13.25 12.1 L-12.0 12.35 -11.9 12.5 -16.25 13.85 -19.0 15.45 -19.0 15.5 -19.1 15.7 -20.15 17.0 -20.5 17.1 -20.25 17.2" fill="#463624" fill-rule="evenodd" stroke="none"/>
    <path d="M-20.15 17.0 L-19.1 15.7 -19.0 15.5 -19.0 15.45 -16.25 13.85 -11.9 12.5 -12.0 12.35 -13.25 12.1 Q-18.95 12.35 -20.75 14.05 L-21.35 13.3 -22.05 12.35 -18.3 9.55 Q-13.05 6.25 -5.25 6.25 2.35 6.25 2.35 10.4 2.35 13.15 -2.0 15.7 -7.35 18.85 -19.1 17.7 L-20.05 17.3 -20.25 17.2 -20.15 17.0" fill="#e5e5e5" fill-rule="evenodd" stroke="none"/>
  </g>
</svg>
