<?xml version="1.0" encoding="UTF-8" standalone="no"?>
<svg xmlns:ffdec="https://www.free-decompiler.com/flash" xmlns:xlink="http://www.w3.org/1999/xlink" ffdec:objectType="shape" height="25.9px" width="35.65px" xmlns="http://www.w3.org/2000/svg">
  <g transform="matrix(1.0, 0.0, 0.0, 1.0, 28.8, 2.8)">
    <path d="M-21.05 6.95 L-17.3 4.35 Q-9.45 -0.75 -4.0 -0.75 1.3 -0.75 3.9 3.55 L4.95 5.65 4.45 5.35 Q3.85 4.7 1.25 4.7 L-0.25 4.75 Q-15.25 10.35 -16.75 10.35 -17.25 10.35 -19.15 8.55 L-21.05 6.95" fill="#e5e5e5" fill-rule="evenodd" stroke="none"/>
    <path d="M-21.05 6.95 L-19.15 8.55 Q-17.25 10.35 -16.75 10.35 -15.25 10.35 -0.25 4.75 L1.25 4.7 Q3.85 4.7 4.45 5.35 L4.95 5.65 3.9 3.55 Q1.3 -0.75 -4.0 -0.75 -9.45 -0.75 -17.3 4.35 L-21.05 6.95 -21.55 7.3 -21.05 6.95 M5.45 7.2 L5.35 7.2 Q4.05 7.2 3.65 6.6 3.3 6.0 1.05 6.0 -2.6 6.0 -9.2 8.75 -15.75 11.5 -16.6 11.5 -18.45 11.5 -21.9 7.6 L-22.55 8.15 -25.4 10.75 Q-22.95 12.55 -22.6 15.85 -22.45 17.75 -22.55 21.5 L-16.0 21.75 Q-9.55 21.75 -5.0 20.65 L-4.95 20.65 -4.15 20.4 -5.05 20.65 -5.1 20.4 Q-5.1 19.95 -4.35 19.55 -3.6 19.2 -3.6 18.85 L-5.0 18.1 Q-7.75 20.6 -10.25 20.6 -14.1 20.6 -14.1 17.65 -14.1 15.85 -12.5 13.6 -10.0 10.15 -5.25 10.15 -0.7 10.15 2.0 12.5 3.8 14.05 4.0 15.4 6.25 12.3 5.6 8.75 L5.45 7.25 5.35 6.75 5.45 7.2 M6.85 8.6 Q6.85 13.75 4.75 16.5 -0.35 23.1 -16.1 23.1 L-23.95 23.05 Q-24.2 23.0 -24.1 22.8 -23.9 22.4 -24.05 22.1 L-23.9 20.75 -23.8 18.25 Q-23.8 11.75 -26.7 11.75 L-28.25 12.6 Q-28.8 12.4 -28.8 11.8 -12.1 -2.8 -2.4 -2.8 2.7 -2.8 5.3 2.75 6.6 5.55 6.85 8.6 M0.7 18.35 L3.15 16.4 2.6 15.7 1.75 13.95 Q0.0 11.4 -5.25 11.4 -11.1 11.4 -12.65 16.15 L-13.0 17.4 Q-13.0 19.25 -10.85 19.25 -7.8 19.25 -5.55 17.15 -4.0 15.7 -3.4 14.0 L-3.0 13.85 -2.65 14.2 -2.95 15.65 -3.7 16.85 -3.8 16.95 -3.65 16.9 -3.3 16.9 -3.0 16.95 -1.35 17.75 -1.25 17.9 -1.1 18.2 -1.1 18.3 -1.0 19.0 -1.1 19.3 -0.9 19.2 0.7 18.35 M-2.4 13.55 L-2.4 14.9 -2.75 15.65 -2.75 15.3 -2.65 14.25 -2.45 14.2 -2.4 13.55" fill="#463624" fill-rule="evenodd" stroke="none"/>
    <path d="M-5.0 20.65 Q-9.55 21.75 -16.0 21.75 L-22.55 21.5 Q-22.45 17.75 -22.6 15.85 -22.95 12.55 -25.4 10.75 L-22.55 8.15 -21.9 7.6 Q-18.45 11.5 -16.6 11.5 -15.75 11.5 -9.2 8.75 -2.6 6.0 1.05 6.0 3.3 6.0 3.65 6.6 4.05 7.2 5.35 7.2 L5.45 7.2 5.45 7.25 5.6 8.75 Q6.25 12.3 4.0 15.4 3.8 14.05 2.0 12.5 -0.7 10.15 -5.25 10.15 -10.0 10.15 -12.5 13.6 -14.1 15.85 -14.1 17.65 -14.1 20.6 -10.25 20.6 -7.75 20.6 -5.0 18.1 L-3.6 18.85 Q-3.6 19.2 -4.35 19.55 -5.1 19.95 -5.1 20.4 L-5.05 20.65 -5.0 20.65" fill="#57352d" fill-rule="evenodd" stroke="none"/>
    <path d="M-12.65 16.15 Q-11.1 11.4 -5.25 11.4 0.0 11.4 1.75 13.95 L2.6 15.7 3.15 16.4 0.7 18.35 0.75 17.75 Q0.25 13.15 -2.9 13.15 L-4.6 15.35 Q-6.3 17.5 -9.25 17.5 -11.55 17.5 -12.65 16.15 M-3.3 16.9 L-3.65 16.9 -3.7 16.85 -2.95 15.65 -3.3 16.9" fill="#b45f50" fill-rule="evenodd" stroke="none"/>
    <path d="M-12.65 16.15 Q-11.55 17.5 -9.25 17.5 -6.3 17.5 -4.6 15.35 L-2.9 13.15 Q0.25 13.15 0.75 17.75 L0.7 18.35 -0.9 19.2 -1.0 19.0 -1.1 18.3 -1.1 18.2 -1.25 17.9 -1.35 17.75 -3.0 16.95 -3.3 16.9 -2.95 15.65 -2.65 14.2 -3.0 13.85 -3.4 14.0 Q-4.0 15.7 -5.55 17.15 -7.8 19.25 -10.85 19.25 -13.0 19.25 -13.0 17.4 L-12.65 16.15 M-2.4 13.55 L-2.45 14.2 -2.65 14.25 -2.75 15.3 -2.75 15.65 -2.4 14.9 -2.4 13.55" fill="#a05345" fill-rule="evenodd" stroke="none"/>
  </g>
</svg>
