<?xml version="1.0" encoding="UTF-8" standalone="no"?>
<svg xmlns:ffdec="https://www.free-decompiler.com/flash" xmlns:xlink="http://www.w3.org/1999/xlink" ffdec:objectType="shape" height="7.85px" width="23.45px" xmlns="http://www.w3.org/2000/svg">
  <g transform="matrix(1.0, 0.0, 0.0, 1.0, 26.05, -10.15)">
    <path d="M-4.7 11.85 L-4.35 12.1 -4.65 11.85 -5.1 11.6 -5.4 11.65 -7.95 11.4 Q-18.45 11.4 -21.3 12.75 -20.75 13.85 -20.75 14.65 L-20.75 15.6 Q-17.75 14.9 -15.6 14.9 L-12.1 15.2 Q-12.0 14.05 -10.25 12.9 -8.3 11.65 -5.75 11.65 L-4.7 11.85 M-3.5 14.55 Q-3.5 13.35 -3.95 12.6 -4.65 13.2 -6.2 13.2 -8.15 13.15 -8.75 13.6 -9.8 14.3 -9.85 15.0 -9.9 15.35 -10.7 15.35 L-10.75 15.4 -10.0 15.55 -4.1 16.15 Q-3.5 16.15 -3.5 14.55 M-4.65 17.25 L-9.8 16.65 -16.1 16.0 Q-19.25 16.0 -21.85 17.0 -24.45 18.0 -25.1 18.0 L-25.55 17.9 -25.75 17.4 Q-25.75 16.75 -21.95 15.85 L-21.55 15.75 Q-22.5 14.85 -22.5 12.7 L-25.9 14.0 Q-26.05 14.4 -26.05 13.75 -26.05 13.0 -21.85 12.0 L-22.3 12.1 Q-21.8 11.55 -20.05 11.3 L-15.65 10.85 -12.6 10.55 -9.75 10.25 -8.0 10.15 -5.25 10.45 Q-2.5 11.15 -2.6 14.5 -2.6 17.25 -4.65 17.25" fill="#463624" fill-rule="evenodd" stroke="none"/>
    <path d="M-3.5 14.55 Q-3.5 16.15 -4.1 16.15 L-10.0 15.55 -10.75 15.4 -10.7 15.35 Q-9.9 15.35 -9.85 15.0 -9.8 14.3 -8.75 13.6 -8.15 13.15 -6.2 13.2 -4.65 13.2 -3.95 12.6 -3.5 13.35 -3.5 14.55" fill="#b45f50" fill-rule="evenodd" stroke="none"/>
    <path d="M-4.65 11.85 L-4.7 11.85 -5.75 11.65 Q-8.3 11.65 -10.25 12.9 -12.0 14.05 -12.1 15.2 L-15.6 14.9 Q-17.75 14.9 -20.75 15.6 L-20.75 14.65 Q-20.75 13.85 -21.3 12.75 -18.45 11.4 -7.95 11.4 L-5.4 11.65 -5.1 11.6 -4.65 11.85" fill="#57352d" fill-rule="evenodd" stroke="none"/>
  </g>
</svg>
