<?xml version="1.0" encoding="UTF-8" standalone="no"?>
<svg xmlns:ffdec="https://www.free-decompiler.com/flash" xmlns:xlink="http://www.w3.org/1999/xlink" ffdec:objectType="shape" height="102.5px" width="109.05px" xmlns="http://www.w3.org/2000/svg">
  <g transform="matrix(1.0, 0.0, 0.0, 1.0, -14.65, 44.0)">
    <path d="M75.6 -24.8 L75.6 -24.85 Q77.45 -29.9 80.3 -33.75 89.4 -46.5 104.45 -43.4 120.7 -40.15 123.15 -27.15 125.55 -14.15 117.5 0.1 109.4 14.3 110.3 23.35 111.15 31.75 120.5 35.35 102.15 37.1 99.45 20.05 97.9 10.7 98.05 1.15 98.0 -2.05 94.4 -2.95 92.25 -2.65 90.5 -1.65 88.0 -0.3 86.95 2.4 L86.05 4.45 74.4 -19.9 74.35 -20.0 74.25 -20.4 74.3 -20.75 74.35 -20.85 75.6 -24.8 M76.35 -20.5 L86.05 -0.2 Q87.35 -2.2 89.55 -3.4 91.65 -4.6 94.25 -5.0 L94.45 -5.0 94.65 -4.95 Q100.15 -3.7 100.05 1.15 L100.05 1.2 Q99.4 14.95 101.4 23.4 103.4 31.8 116.85 34.25 108.85 30.55 108.3 24.25 107.25 14.75 117.4 -3.35 123.45 -14.15 121.45 -25.15 118.9 -38.45 104.05 -41.45 90.3 -44.3 76.35 -20.5" fill="#c28127" fill-rule="evenodd" stroke="none"/>
    <path d="M76.35 -20.5 Q90.3 -44.3 104.05 -41.45 118.9 -38.45 121.45 -25.15 123.45 -14.15 117.4 -3.35 107.25 14.75 108.3 24.25 108.85 30.55 116.85 34.25 103.4 31.8 101.4 23.4 99.4 14.95 100.05 1.2 L100.05 1.15 Q100.15 -3.7 94.65 -4.95 L94.45 -5.0 94.25 -5.0 Q91.65 -4.6 89.55 -3.4 87.35 -2.2 86.05 -0.2 L76.35 -20.5" fill="#f4d371" fill-rule="evenodd" stroke="none"/>
    <path d="M116.6 -24.85 Q119.85 -16.15 111.25 2.55 102.65 21.2 108.6 29.15 102.85 27.15 104.65 13.0 106.45 -1.15 106.35 -13.3 106.2 -25.45 95.8 -33.35 L101.05 -33.45 Q113.3 -33.55 116.6 -24.85" fill="#fbee95" fill-rule="evenodd" stroke="none"/>
    <path d="M14.65 -13.35 L19.45 -8.85 21.85 -5.9 Q22.75 -4.6 23.15 -3.0 L23.4 -0.35 22.75 2.85 21.5 5.8 Q19.45 9.8 20.45 13.4 21.4 16.95 23.25 20.5 L27.0 27.3 Q28.95 30.6 30.0 33.2 30.5 34.5 30.05 36.05 29.6 37.55 28.6 38.7 L24.35 43.9 Q22.8 45.7 23.85 47.7 L24.05 48.1 Q24.8 49.3 25.85 50.15 L31.95 55.35 29.15 52.05 28.0 50.4 27.1 48.55 27.0 48.25 Q26.65 47.15 26.8 46.1 26.95 44.95 27.4 43.9 28.25 42.0 30.25 40.85 32.3 39.7 32.85 36.75 33.4 33.85 32.1 31.05 L29.75 26.15 26.5 19.9 25.75 18.3 Q25.2 16.55 25.05 14.8 24.9 13.85 25.1 12.95 26.0 7.85 29.4 3.7 30.6 2.25 31.35 0.45 32.1 -1.65 31.9 -3.9 L31.45 -6.25 Q31.05 -7.3 30.9 -8.35 30.3 -11.6 31.15 -14.7 33.5 -22.85 38.5 -30.05 L34.75 -21.45 Q32.85 -17.05 32.35 -12.05 32.1 -9.65 33.05 -7.25 L33.1 -7.1 33.3 -6.8 33.25 -6.75 Q34.55 -2.35 32.9 1.7 31.15 5.95 28.45 9.75 27.7 10.65 27.3 11.85 26.25 14.65 27.65 17.35 L31.55 25.35 Q33.45 29.25 34.4 33.7 34.85 35.95 34.35 38.25 33.85 40.25 32.15 41.7 L29.65 44.25 28.85 45.55 Q28.6 46.25 28.75 47.0 28.9 48.15 30.1 50.55 L31.65 53.75 31.7 53.9 33.95 58.5 27.45 53.55 25.35 52.0 Q22.55 49.95 22.25 46.45 22.1 44.55 23.05 42.9 23.5 42.05 24.1 41.4 L26.85 38.3 Q28.55 36.35 28.6 34.9 28.6 33.45 26.3 28.8 L26.0 28.15 19.2 15.35 Q18.7 14.45 18.55 13.45 18.3 11.75 18.35 10.15 18.4 7.75 19.5 5.7 20.9 2.9 21.45 -0.1 21.65 -1.3 21.5 -2.45 L20.65 -4.85 17.75 -9.35 14.65 -13.35" fill="#c28127" fill-rule="evenodd" stroke="none"/>
    <path d="M19.45 -8.85 L14.65 -13.35 21.25 -11.9 20.3 -18.5 25.7 -14.05 27.1 -26.3 30.05 -18.6 38.5 -30.05 Q33.5 -22.85 31.15 -14.7 30.3 -11.6 30.9 -8.35 31.05 -7.3 31.45 -6.25 L31.9 -3.9 Q32.1 -1.65 31.35 0.45 30.6 2.25 29.4 3.7 26.0 7.85 25.1 12.95 24.9 13.85 25.05 14.8 25.2 16.55 25.75 18.3 L26.5 19.9 29.75 26.15 32.1 31.05 Q33.4 33.85 32.85 36.75 32.3 39.7 30.25 40.85 28.25 42.0 27.4 43.9 26.95 44.95 26.8 46.1 26.65 47.15 27.0 48.25 L27.1 48.55 26.6 47.5 Q26.2 46.45 26.25 45.35 26.25 44.2 26.65 43.15 27.35 41.15 29.25 39.85 31.2 38.55 31.55 35.6 31.85 32.65 30.35 30.0 L27.6 25.25 23.85 19.3 22.95 17.75 Q22.3 16.05 22.0 14.3 21.8 13.35 21.9 12.5 22.4 7.3 25.45 2.95 26.55 1.35 27.15 -0.5 27.75 -2.6 27.35 -4.85 L26.7 -7.2 26.0 -9.25 25.95 -9.55 Q25.5 -11.3 24.75 -7.45 L19.45 -8.85 M29.15 52.05 L31.95 55.35 25.85 50.15 Q24.8 49.3 24.05 48.1 L25.6 49.5 29.15 52.05" fill="#fbee95" fill-rule="evenodd" stroke="none"/>
    <path d="M31.7 53.9 L31.65 53.75 32.1 54.15 31.7 53.9 M27.1 48.55 L28.0 50.4 29.15 52.05 25.6 49.5 24.05 48.1 23.85 47.7 Q22.8 45.7 24.35 43.9 L28.6 38.7 Q29.6 37.55 30.05 36.05 30.5 34.5 30.0 33.2 28.95 30.6 27.0 27.3 L23.25 20.5 Q21.4 16.95 20.45 13.4 19.45 9.8 21.5 5.8 L22.75 2.85 23.4 -0.35 23.15 -3.0 Q22.75 -4.6 21.85 -5.9 L19.45 -8.85 24.75 -7.45 Q25.5 -11.3 25.95 -9.55 L26.0 -9.25 26.7 -7.2 27.35 -4.85 Q27.75 -2.6 27.15 -0.5 26.55 1.35 25.45 2.95 22.4 7.3 21.9 12.5 21.8 13.35 22.0 14.3 22.3 16.05 22.95 17.75 L23.85 19.3 27.6 25.25 30.35 30.0 Q31.85 32.65 31.55 35.6 31.2 38.55 29.25 39.85 27.35 41.15 26.65 43.15 26.25 44.2 26.25 45.35 26.2 46.45 26.6 47.5 L27.1 48.55" fill="#f4d371" fill-rule="evenodd" stroke="none"/>
  </g>
</svg>
