<?xml version="1.0" encoding="UTF-8" standalone="no"?>
<svg xmlns:ffdec="https://www.free-decompiler.com/flash" xmlns:xlink="http://www.w3.org/1999/xlink" ffdec:objectType="shape" height="168.85px" width="78.3px" xmlns="http://www.w3.org/2000/svg">
  <g transform="matrix(1.0, 0.0, 0.0, 1.0, 30.8, 136.75)">
    <path d="M34.9 -7.7 L34.95 -8.45 35.5 -8.95 Q35.85 -9.15 36.25 -8.95 L36.8 -8.4 37.85 -5.8 Q43.1 8.3 36.2 19.7 29.5 30.75 19.85 31.9 L19.7 31.9 19.25 31.95 19.15 31.95 17.85 32.05 17.8 32.05 Q8.45 32.5 -3.3 28.7 -16.05 24.55 -22.05 12.95 -26.7 3.85 -26.25 -6.55 -26.05 -11.0 -24.85 -14.9 L-24.35 -15.45 -23.6 -15.55 -23.0 -15.05 -22.95 -14.3 -23.05 -13.85 Q-24.05 -10.35 -24.25 -6.45 -24.7 3.45 -20.25 12.05 -14.65 22.95 -2.7 26.8 8.65 30.5 17.7 30.05 L19.0 29.95 18.9 30.0 19.6 29.9 Q28.4 28.75 34.5 18.65 40.9 8.0 36.0 -5.1 L36.0 -5.05 34.95 -7.65 34.9 -7.7" fill="#4b2969" fill-rule="evenodd" stroke="none"/>
    <path d="M34.9 -7.7 L34.95 -7.65 36.0 -5.05 36.0 -5.1 Q40.9 8.0 34.5 18.65 28.4 28.75 19.6 29.9 L18.9 30.0 19.0 29.95 17.7 30.05 Q8.65 30.5 -2.7 26.8 -14.65 22.95 -20.25 12.05 -24.7 3.45 -24.25 -6.45 -24.05 -10.35 -23.05 -13.85 -15.55 -7.35 -5.05 -15.5 13.85 -0.65 34.9 -7.7 M-17.35 -3.7 L-17.45 -3.8 -17.6 -3.6 Q-19.45 -2.95 -16.75 5.85 -14.0 14.65 -7.65 19.1 -1.35 23.5 6.1 23.55 13.55 23.55 18.9 17.9 24.2 12.25 22.7 6.05 22.0 3.3 19.5 2.15 12.15 3.0 4.1 2.35 L-4.2 1.3 -4.85 1.25 Q-12.05 0.2 -17.35 -3.7 M-4.2 1.3 L-4.25 1.3 -4.2 1.3" fill="#63358c" fill-rule="evenodd" stroke="none"/>
    <path d="M-17.6 -3.6 L-17.35 -3.7 Q-12.05 0.2 -4.85 1.25 L-4.2 1.3 4.1 2.35 Q12.15 3.0 19.5 2.15 22.0 3.3 22.7 6.05 24.2 12.25 18.9 17.9 13.55 23.55 6.1 23.55 -1.35 23.5 -7.65 19.1 -14.0 14.65 -16.75 5.85 -19.45 -2.95 -17.6 -3.6" fill="#6b3a98" fill-rule="evenodd" stroke="none"/>
    <path d="M-17.6 -3.6 L-17.45 -3.8 -17.35 -3.7 -17.6 -3.6" fill="#8246b7" fill-rule="evenodd" stroke="none"/>
    <path d="M-4.2 1.3 L-4.25 1.3 -4.2 1.3" fill="#8e5abf" fill-rule="evenodd" stroke="none"/>
    <path d="M-19.6 -26.45 L-16.6 -35.55 -16.45 -35.35 Q-15.65 -34.4 -14.2 -33.4 -8.2 -29.2 3.0 -29.65 14.55 -30.15 22.3 -32.4 L24.55 -33.1 31.1 -27.55 Q4.55 -15.0 -19.6 -26.45 M44.85 -0.6 L45.0 -0.25 45.0 -0.2 45.2 0.3 45.25 0.35 45.5 1.85 Q45.3 6.8 35.0 10.45 23.95 14.35 7.9 15.05 -8.2 15.75 -18.45 11.35 -28.7 6.9 -28.75 4.2 L-28.7 1.05 -28.25 -0.25 -28.1 -0.5 Q-25.6 2.6 -19.75 5.75 -12.95 9.4 3.35 9.35 19.65 9.3 31.45 5.7 41.75 2.55 44.85 -0.6" fill="#8246b7" fill-rule="evenodd" stroke="none"/>
    <path d="M31.1 -27.55 L44.85 -0.6 Q41.75 2.55 31.45 5.7 19.65 9.3 3.35 9.35 -12.95 9.4 -19.75 5.75 -25.6 2.6 -28.1 -0.5 L-28.1 -0.6 -28.1 -0.65 -28.05 -0.7 -19.6 -26.45 Q4.55 -15.0 31.1 -27.55" fill="#8e5abf" fill-rule="evenodd" stroke="none"/>
    <path d="M31.15 -31.15 L42.0 -8.85 27.8 -23.95 35.9 -9.25 23.05 -21.55 31.05 3.7 16.4 -20.8 19.55 -9.35 11.1 -19.95 14.9 5.3 4.4 -19.95 0.7 -0.4 -1.65 -20.8 -12.5 7.45 -8.55 -21.85 -18.7 -5.55 -13.9 -24.1 -26.4 -6.55 -19.45 -27.75 -12.0 -26.75 -12.25 -26.4 -5.7 -26.4 -7.75 -23.15 -0.75 -23.15 5.4 -25.05 4.85 -22.15 10.3 -25.35 10.85 -21.75 14.7 -27.15 15.75 -23.2 21.15 -27.45 21.3 -27.1 23.85 -31.05 26.95 -25.4 31.15 -31.15" fill="#8246b7" fill-rule="evenodd" stroke="none"/>
    <path d="M17.5 -31.1 L30.2 -36.15 33.4 -28.95 Q25.65 -23.15 -0.35 -25.55 14.2 -25.95 17.5 -31.1" fill="#6b3a98" fill-rule="evenodd" stroke="none"/>
    <path d="M-17.65 -33.8 L-17.0 -33.0 Q-16.85 -28.7 -2.35 -25.55 -12.55 -24.05 -19.2 -28.3 L-17.65 -33.8" fill="#8e5abf" fill-rule="evenodd" stroke="none"/>
    <path d="M24.55 -33.1 L22.3 -32.4 Q14.55 -30.15 3.0 -29.65 -8.2 -29.2 -14.2 -33.4 -15.65 -34.4 -16.45 -35.35 L-16.6 -35.55 -28.05 -0.7 -28.1 -0.65 -28.1 -0.6 -28.1 -0.5 -28.25 -0.25 -28.7 1.05 -28.75 4.2 Q-28.7 6.9 -18.45 11.35 -8.2 15.75 7.9 15.05 23.95 14.35 35.0 10.45 45.3 6.8 45.5 1.85 L45.25 0.35 45.2 0.3 45.0 -0.2 45.0 -0.25 44.85 -0.6 31.1 -27.55 Q31.35 -32.1 24.55 -33.1 M30.15 -37.15 L30.3 -37.15 30.75 -36.95 31.15 -36.55 46.8 -1.1 46.85 -1.05 47.1 -0.35 47.1 -0.4 Q47.5 0.65 47.5 1.85 47.7 8.1 35.65 12.35 24.35 16.35 8.35 16.35 -7.65 16.35 -18.95 12.35 -31.0 8.1 -30.8 1.85 L-30.65 0.7 Q-30.5 -0.3 -29.95 -1.25 -22.4 -19.8 -17.8 -38.3 L-17.6 -38.75 -17.25 -39.05 -16.95 -39.15 -16.75 -39.15 Q-16.45 -39.15 -16.2 -38.95 L-15.9 -38.6 -15.8 -38.3 Q-15.65 -37.5 -14.95 -36.65 L-13.05 -35.05 Q-7.5 -31.2 2.9 -31.65 14.15 -32.15 21.75 -34.3 28.75 -36.35 29.45 -36.8 L29.5 -36.8 Q29.6 -37.0 29.8 -37.05 L30.15 -37.15" fill="#4b2969" fill-rule="evenodd" stroke="none"/>
    <path d="M28.1 -41.3 L28.0 -41.95 Q27.9 -42.35 28.15 -42.7 28.35 -43.05 28.75 -43.1 L29.5 -42.95 29.95 -42.35 31.2 -36.35 31.2 -35.85 30.95 -35.45 Q30.4 -34.75 22.3 -32.4 L18.55 -31.45 Q11.9 -30.05 3.0 -29.65 -8.2 -29.2 -14.2 -33.4 -15.65 -34.4 -16.45 -35.35 -17.65 -36.7 -17.8 -38.0 L-17.75 -38.45 -16.35 -42.9 -15.85 -43.45 -15.1 -43.55 -14.5 -43.05 -14.45 -42.3 -14.6 -41.7 -15.75 -38.1 Q-15.6 -37.4 -14.95 -36.65 L-10.95 -33.25 Q-7.65 -30.65 3.1 -30.9 12.0 -31.15 18.25 -32.8 L20.75 -33.6 29.1 -36.6 28.1 -41.3" fill="#a55301" fill-rule="evenodd" stroke="none"/>
    <path d="M17.85 -37.45 L22.7 -38.65 Q26.25 -39.65 28.1 -41.3 L29.1 -36.6 20.75 -33.6 18.25 -32.8 17.45 -36.85 17.95 -36.95 17.85 -37.45" fill="#e09301" fill-rule="evenodd" stroke="none"/>
    <path d="M16.85 -37.25 L16.4 -39.8 17.35 -39.95 17.85 -37.45 17.95 -36.95 17.45 -36.85 16.95 -36.75 16.85 -37.25" fill="#ff0000" fill-rule="evenodd" stroke="none"/>
    <path d="M-14.6 -41.7 Q-10.45 -37.1 -3.65 -36.0 L0.9 -35.7 Q9.25 -35.75 16.85 -37.25 L16.95 -36.75 17.45 -36.85 18.25 -32.8 Q12.0 -31.15 3.1 -30.9 -7.65 -30.65 -10.95 -33.25 L-14.95 -36.65 Q-15.6 -37.4 -15.75 -38.1 L-14.6 -41.7" fill="#ffcc00" fill-rule="evenodd" stroke="none"/>
    <path d="M-21.65 -98.7 L-21.55 -98.65 -20.95 -98.2 Q-20.75 -97.85 -20.85 -97.4 L-21.1 -96.4 -21.2 -96.15 -21.5 -95.75 -22.25 -95.6 -22.9 -96.0 Q-23.15 -96.35 -23.05 -96.75 L-22.8 -97.95 -22.45 -98.5 -22.35 -98.55 -21.65 -98.7 M-26.75 -89.0 Q-27.0 -83.45 -24.8 -79.9 -22.6 -76.35 -20.3 -74.6 -18.05 -72.85 -17.4 -66.05 -16.75 -59.3 -17.15 -50.7 -17.3 -47.2 -16.9 -45.85 -16.55 -44.55 -14.3 -41.7 -12.05 -38.85 -3.5 -36.95 L-3.5 -37.0 0.9 -36.7 Q12.4 -36.8 22.45 -39.6 26.5 -40.75 28.2 -42.75 L22.9 -41.0 Q29.95 -45.3 26.8 -51.4 23.6 -57.5 22.65 -67.6 21.7 -77.7 21.1 -89.85 20.45 -101.8 17.65 -110.7 14.8 -119.6 12.05 -124.25 9.3 -128.9 5.55 -131.3 0.85 -134.8 -2.7 -134.75 -6.15 -134.6 -8.55 -131.1 -14.0 -123.3 -17.65 -114.85 -20.5 -108.55 -23.4 -100.8 L-23.65 -100.15 -25.5 -95.05 Q-26.2 -93.25 -26.5 -91.45 L-26.75 -89.0 M6.85 -132.8 Q10.85 -128.75 13.75 -124.0 16.6 -119.4 18.4 -114.1 22.45 -102.2 23.1 -89.95 23.7 -77.9 25.1 -67.95 L25.1 -67.9 Q26.4 -58.1 30.05 -50.05 32.45 -44.9 29.75 -41.5 27.8 -39.05 23.0 -37.65 12.7 -34.8 0.9 -34.7 L-3.8 -35.0 Q-11.65 -36.3 -16.15 -41.95 L-16.2 -42.0 -17.05 -43.25 Q-19.3 -46.6 -19.15 -50.8 -18.75 -59.2 -19.95 -67.25 -20.45 -70.55 -22.65 -73.2 -24.25 -75.1 -25.45 -77.05 -29.8 -84.2 -28.45 -91.8 L-27.4 -95.75 -27.4 -95.7 -25.25 -101.5 -19.5 -115.65 Q-15.8 -124.3 -10.2 -132.25 -7.15 -136.7 -2.8 -136.75 1.4 -136.9 6.75 -132.9 L6.85 -132.8" fill="#666666" fill-rule="evenodd" stroke="none"/>
    <path d="M3.6 -125.5 L5.8 -127.4 Q-3.1 -139.05 -11.25 -124.6 -18.8 -111.3 -21.65 -98.7 L-22.35 -98.55 -22.45 -98.5 -23.65 -100.15 -23.4 -100.8 Q-20.5 -108.55 -17.65 -114.85 -14.0 -123.3 -8.55 -131.1 -6.15 -134.6 -2.7 -134.75 0.85 -134.8 5.55 -131.3 9.3 -128.9 12.05 -124.25 14.8 -119.6 17.65 -110.7 20.45 -101.8 21.1 -89.85 21.7 -77.7 22.65 -67.6 23.6 -57.5 26.8 -51.4 29.95 -45.3 22.9 -41.0 L28.2 -42.75 Q26.5 -40.75 22.45 -39.6 12.4 -36.8 0.9 -36.7 L-3.5 -37.0 -3.5 -36.95 Q-12.05 -38.85 -14.3 -41.7 -16.55 -44.55 -16.9 -45.85 -17.3 -47.2 -17.15 -50.7 -16.75 -59.3 -17.4 -66.05 -18.05 -72.85 -20.3 -74.6 -22.6 -76.35 -24.8 -79.9 -27.0 -83.45 -26.75 -89.0 L-26.65 -88.65 Q-24.05 -80.9 -17.8 -80.9 -7.8 -80.9 1.95 -85.4 -4.05 -76.4 -10.55 -73.65 -15.35 -71.65 -15.25 -65.7 -15.25 -63.2 -14.05 -61.5 -12.9 -59.85 -13.45 -56.7 -14.0 -53.6 -3.05 -55.65 -17.6 -52.65 -13.85 -46.4 -10.1 -40.15 -0.8 -41.15 8.5 -42.15 13.25 -47.5 18.0 -52.9 18.15 -69.2 18.25 -85.55 16.35 -88.65 14.45 -91.8 12.3 -94.35 L6.65 -101.05 Q3.2 -105.2 3.15 -105.85 L2.65 -108.2 Q2.15 -109.95 2.4 -115.55 2.65 -121.2 3.85 -122.65 5.0 -124.15 3.6 -125.5" fill="#dbd1c8" fill-rule="evenodd" stroke="none"/>
    <path d="M-21.2 -96.15 Q-16.6 -94.4 -8.8 -96.6 -5.65 -111.25 -1.8 -118.0 0.9 -122.75 3.6 -125.5 5.0 -124.15 3.85 -122.65 2.65 -121.2 2.4 -115.55 2.15 -109.95 2.65 -108.2 L3.15 -105.85 Q3.2 -105.2 6.65 -101.05 L12.3 -94.35 Q14.45 -91.8 16.35 -88.65 18.25 -85.55 18.15 -69.2 18.0 -52.9 13.25 -47.5 8.5 -42.15 -0.8 -41.15 -10.1 -40.15 -13.85 -46.4 -17.6 -52.65 -3.05 -55.65 -14.0 -53.6 -13.45 -56.7 -12.9 -59.85 -14.05 -61.5 -15.25 -63.2 -15.25 -65.7 -15.35 -71.65 -10.55 -73.65 -4.05 -76.4 1.95 -85.4 -7.8 -80.9 -17.8 -80.9 -24.05 -80.9 -26.65 -88.65 L-26.75 -89.0 -26.5 -91.45 Q-26.2 -93.25 -25.5 -95.05 L-23.65 -100.15 -22.45 -98.5 -22.8 -97.95 -23.05 -96.75 Q-23.15 -96.35 -22.9 -96.0 L-22.25 -95.6 -21.5 -95.75 -21.2 -96.15 M-18.05 -83.7 L-18.1 -84.65 -18.05 -83.7" fill="#fbfaee" fill-rule="evenodd" stroke="none"/>
    <path d="M13.75 -96.1 L13.7 -95.6 Q11.7 -71.0 17.95 -47.0 L18.05 -46.5 17.1 -46.3 16.95 -46.8 Q11.8 -70.25 12.7 -95.65 L12.75 -96.15 13.75 -96.1 M8.35 -124.5 L6.2 -122.65 Q3.55 -119.95 0.9 -115.25 -2.95 -108.55 -6.05 -94.0 L-6.15 -93.75 -6.4 -93.6 Q-15.2 -91.15 -23.7 -94.15 L-24.15 -94.3 -24.05 -94.7 -24.0 -94.8 -24.0 -94.9 -21.05 -103.75 -20.9 -104.2 -19.95 -103.9 -20.1 -103.45 -22.9 -94.95 Q-15.05 -92.3 -7.0 -94.5 -3.85 -109.0 0.05 -115.75 2.75 -120.55 5.5 -123.35 L7.75 -125.3 8.15 -125.4 8.45 -125.2 8.55 -124.8 8.35 -124.5" fill="#dbd1c8" fill-rule="evenodd" stroke="none"/>
    <path d="M-2.7 -118.45 L-2.6 -118.55 -2.65 -118.5 Q0.1 -123.4 2.9 -126.2 L4.4 -127.55 Q0.7 -132.0 -2.75 -131.55 -6.6 -130.8 -8.95 -126.8 L-15.3 -116.15 Q-19.3 -109.5 -20.1 -103.4 L-21.0 -97.15 Q-17.2 -94.25 -9.65 -97.4 L-9.4 -98.5 -9.3 -98.8 Q-6.5 -111.45 -3.0 -117.8 L-3.05 -117.75 -2.7 -118.45 M4.3 -124.8 L4.35 -124.8 Q1.7 -122.1 -0.9 -117.5 L-0.95 -117.45 -1.2 -117.1 -3.15 -114.0 Q-5.0 -111.05 -7.35 -98.3 L-7.8 -96.4 -8.05 -95.9 Q-8.25 -95.7 -8.5 -95.65 -17.6 -93.05 -22.55 -95.7 L-23.05 -96.3 -22.95 -97.05 -22.75 -97.3 -22.8 -97.9 Q-20.35 -109.8 -15.9 -118.0 L-12.1 -125.1 Q-7.75 -132.85 -3.05 -133.5 1.7 -134.4 6.6 -128.0 L6.8 -127.25 6.6 -126.75 6.55 -126.7 6.4 -126.6 6.35 -126.55 4.3 -124.8" fill="#666666" fill-rule="evenodd" stroke="none"/>
    <path d="M-9.4 -98.5 L-9.65 -97.4 Q-17.2 -94.25 -21.0 -97.15 L-20.1 -103.4 Q-19.3 -109.5 -15.3 -116.15 L-8.95 -126.8 Q-6.6 -130.8 -2.75 -131.55 0.7 -132.0 4.4 -127.55 L2.9 -126.2 Q0.1 -123.4 -2.65 -118.5 L-2.6 -118.55 -2.7 -118.45 Q-5.2 -123.25 -9.7 -120.0 -17.4 -111.9 -19.55 -97.9 -14.15 -96.9 -9.4 -98.5" fill="#db9c64" fill-rule="evenodd" stroke="none"/>
    <path d="M-2.7 -118.45 L-3.05 -117.75 -3.0 -117.8 Q-6.5 -111.45 -9.3 -98.8 L-9.4 -98.5 Q-14.15 -96.9 -19.55 -97.9 -17.4 -111.9 -9.7 -120.0 -5.2 -123.25 -2.7 -118.45" fill="#f1ba87" fill-rule="evenodd" stroke="none"/>
  </g>
</svg>
