<?xml version="1.0" encoding="UTF-8" standalone="no"?>
<svg xmlns:ffdec="https://www.free-decompiler.com/flash" xmlns:xlink="http://www.w3.org/1999/xlink" ffdec:objectType="shape" height="20.55px" width="33.75px" xmlns="http://www.w3.org/2000/svg">
  <g transform="matrix(1.0, 0.0, 0.0, 1.0, 15.55, 5.95)">
    <path d="M0.45 4.45 Q0.45 8.65 -1.9 11.6 -4.25 14.6 -7.55 14.6 -10.85 14.6 -13.2 11.6 -15.55 8.65 -15.55 4.45 L-15.55 4.35 Q-15.5 0.2 -13.2 -2.75 -10.85 -5.7 -7.55 -5.7 -4.25 -5.7 -1.9 -2.75 0.4 0.2 0.45 4.35 L0.45 4.45 M18.2 4.2 Q18.2 8.4 15.85 11.35 13.5 14.35 10.2 14.35 6.9 14.35 4.55 11.35 2.2 8.4 2.2 4.2 L2.2 4.1 Q2.25 -0.05 4.55 -3.0 6.9 -5.95 10.2 -5.95 13.5 -5.95 15.85 -3.0 18.15 -0.05 18.2 4.1 L18.2 4.2" fill="#ffead5" fill-rule="evenodd" stroke="none"/>
    <path d="M12.45 0.0 Q13.85 2.05 13.85 4.95 13.85 7.85 12.45 9.9 11.1 11.95 9.15 11.95 7.25 11.95 5.85 9.9 4.5 7.85 4.5 4.95 4.5 3.35 4.9 2.0 5.2 0.9 5.85 0.0 L6.85 -1.15 Q7.9 -2.05 9.15 -2.05 11.1 -2.05 12.45 0.0 M-3.55 1.65 Q-2.35 3.4 -2.3 5.95 -2.35 8.45 -3.55 10.2 -4.7 12.0 -6.35 12.0 -8.05 12.0 -9.25 10.2 -10.45 8.45 -10.45 5.95 -10.45 4.5 -10.05 3.35 L-9.25 1.65 -8.4 0.65 Q-7.5 -0.15 -6.35 -0.15 -4.7 -0.15 -3.55 1.65" fill="#ffcc99" fill-rule="evenodd" stroke="none"/>
    <path d="M12.45 0.0 Q13.85 2.05 13.85 4.95 13.85 7.85 12.45 9.9 11.1 11.95 9.15 11.95 7.25 11.95 5.85 9.9 4.5 7.85 4.5 4.95 4.5 3.35 4.9 2.0 5.2 0.9 5.85 0.0 L6.85 -1.15 Q7.9 -2.05 9.15 -2.05 11.1 -2.05 12.45 0.0 M-3.55 1.65 Q-2.35 3.4 -2.3 5.95 -2.35 8.45 -3.55 10.2 -4.7 12.0 -6.35 12.0 -8.05 12.0 -9.25 10.2 -10.45 8.45 -10.45 5.95 -10.45 4.5 -10.05 3.35 L-9.25 1.65 -8.4 0.65 Q-7.5 -0.15 -6.35 -0.15 -4.7 -0.15 -3.55 1.65 Z" fill="none" stroke="#000000" stroke-linecap="round" stroke-linejoin="round" stroke-width="3.5"/>
  </g>
</svg>
