<?xml version="1.0" encoding="UTF-8" standalone="no"?>
<svg xmlns:ffdec="https://www.free-decompiler.com/flash" xmlns:xlink="http://www.w3.org/1999/xlink" ffdec:objectType="shape" height="15.6px" width="31.2px" xmlns="http://www.w3.org/2000/svg">
  <g transform="matrix(1.0, 0.0, 0.0, 1.0, 14.25, 2.75)">
    <path d="M9.55 -2.75 Q12.6 -2.75 14.8 -0.45 16.9 1.8 16.95 5.0 L16.95 5.05 Q16.95 8.3 14.8 10.55 12.6 12.85 9.55 12.85 6.5 12.85 4.35 10.55 2.2 8.3 2.2 5.05 L2.2 5.0 Q2.2 1.8 4.35 -0.45 6.5 -2.75 9.55 -2.75 M0.5 5.0 Q0.45 8.15 -1.7 10.35 -3.85 12.55 -6.9 12.55 -9.95 12.55 -12.1 10.35 -14.3 8.15 -14.25 5.0 L-14.25 4.95 Q-14.25 1.9 -12.1 -0.3 -9.95 -2.5 -6.9 -2.5 -3.85 -2.5 -1.7 -0.3 0.45 1.9 0.5 4.95 L0.5 5.0" fill="#ffead5" fill-rule="evenodd" stroke="none"/>
    <path d="M12.45 2.95 Q13.85 4.2 13.85 6.05 13.85 7.85 12.45 9.15 11.1 10.4 9.15 10.4 7.25 10.4 5.85 9.15 4.5 7.85 4.5 6.05 4.5 5.0 4.9 4.2 5.2 3.5 5.85 2.95 L6.85 2.2 Q7.9 1.65 9.15 1.65 11.1 1.65 12.45 2.95 M-3.55 3.95 Q-2.35 5.05 -2.3 6.65 -2.35 8.2 -3.55 9.35 -4.7 10.45 -6.35 10.45 -8.05 10.45 -9.25 9.35 -10.45 8.2 -10.45 6.65 -10.45 5.8 -10.05 5.05 L-9.25 3.95 -8.4 3.35 Q-7.5 2.85 -6.35 2.85 -4.7 2.85 -3.55 3.95" fill="#ffcc99" fill-rule="evenodd" stroke="none"/>
    <path d="M12.45 2.95 Q13.85 4.2 13.85 6.05 13.85 7.85 12.45 9.15 11.1 10.4 9.15 10.4 7.25 10.4 5.85 9.15 4.5 7.85 4.5 6.05 4.5 5.0 4.9 4.2 5.2 3.5 5.85 2.95 L6.85 2.2 Q7.9 1.65 9.15 1.65 11.1 1.65 12.45 2.95 M-3.55 3.95 Q-2.35 5.05 -2.3 6.65 -2.35 8.2 -3.55 9.35 -4.7 10.45 -6.35 10.45 -8.05 10.45 -9.25 9.35 -10.45 8.2 -10.45 6.65 -10.45 5.8 -10.05 5.05 L-9.25 3.95 -8.4 3.35 Q-7.5 2.85 -6.35 2.85 -4.7 2.85 -3.55 3.95 Z" fill="none" stroke="#000000" stroke-linecap="round" stroke-linejoin="round" stroke-width="3.5"/>
  </g>
</svg>
