<?xml version="1.0" encoding="UTF-8" standalone="no"?>
<svg xmlns:ffdec="https://www.free-decompiler.com/flash" xmlns:xlink="http://www.w3.org/1999/xlink" ffdec:objectType="shape" height="12.05px" width="31.2px" xmlns="http://www.w3.org/2000/svg">
  <g transform="matrix(1.0, 0.0, 0.0, 1.0, 14.25, 2.7)">
    <path d="M2.2 3.15 Q2.2 0.7 4.35 -1.0 6.5 -2.7 9.55 -2.7 12.6 -2.7 14.8 -1.0 16.9 0.7 16.95 3.15 L16.95 3.2 Q16.95 5.65 14.8 7.4 12.6 9.1 9.55 9.15 6.5 9.1 4.35 7.4 2.2 5.65 2.2 3.2 L2.2 3.15 M0.5 3.4 Q0.45 5.85 -1.7 7.6 -3.85 9.3 -6.9 9.35 -9.95 9.3 -12.1 7.6 -14.3 5.85 -14.25 3.4 L-14.25 3.35 Q-14.25 0.95 -12.1 -0.75 -9.95 -2.5 -6.9 -2.5 -3.85 -2.5 -1.7 -0.75 0.45 0.95 0.5 3.35 L0.5 3.4" fill="#ffead5" fill-rule="evenodd" stroke="none"/>
    <path d="M14.95 5.35 L4.2 6.1" fill="none" stroke="#333333" stroke-linecap="round" stroke-linejoin="round" stroke-width="2.0"/>
    <path d="M-2.3 6.35 L-10.55 6.6" fill="none" stroke="#333333" stroke-linecap="round" stroke-linejoin="round" stroke-width="2.0"/>
  </g>
</svg>
