<?xml version="1.0" encoding="UTF-8" standalone="no"?>
<svg xmlns:ffdec="https://www.free-decompiler.com/flash" xmlns:xlink="http://www.w3.org/1999/xlink" ffdec:objectType="shape" height="22.55px" width="34.75px" xmlns="http://www.w3.org/2000/svg">
  <g transform="matrix(1.0, 0.0, 0.0, 1.0, 16.0, 7.95)">
    <path d="M0.5 3.45 Q0.45 8.05 -1.95 11.3 -4.35 14.6 -7.75 14.6 -11.2 14.6 -13.6 11.3 -16.0 8.05 -16.0 3.45 L-16.0 3.35 Q-16.0 -1.2 -13.6 -4.45 -11.2 -7.7 -7.75 -7.7 -4.35 -7.7 -1.95 -4.45 0.45 -1.2 0.5 3.35 L0.5 3.45 M4.65 -4.7 Q7.05 -7.95 10.5 -7.95 13.9 -7.95 16.3 -4.7 18.7 -1.45 18.75 3.1 L18.75 3.2 Q18.7 7.8 16.3 11.05 13.9 14.3 10.5 14.3 7.05 14.3 4.65 11.05 2.25 7.8 2.25 3.2 L2.25 3.1 Q2.25 -1.45 4.65 -4.7" fill="#ffead5" fill-rule="evenodd" stroke="none"/>
    <path d="M5.6 -1.85 L6.75 -3.2 Q7.95 -4.25 9.4 -4.25 11.65 -4.25 13.2 -1.85 14.8 0.5 14.8 3.85 14.8 7.2 13.2 9.55 11.65 11.9 9.4 11.95 7.2 11.9 5.6 9.55 4.05 7.2 4.05 3.85 4.0 2.0 4.5 0.45 4.9 -0.85 5.6 -1.85 M-11.75 2.0 L-10.85 0.0 -9.85 -1.15 Q-8.8 -2.05 -7.5 -2.05 -5.6 -2.05 -4.25 0.0 -2.85 2.05 -2.8 5.0 -2.85 7.9 -4.25 9.9 -5.6 11.95 -7.5 12.0 -9.45 11.95 -10.85 9.9 -12.2 7.9 -12.2 5.0 -12.2 3.35 -11.75 2.0" fill="#ffcc99" fill-rule="evenodd" stroke="none"/>
    <path d="M5.6 -1.85 L6.75 -3.2 Q7.95 -4.25 9.4 -4.25 11.65 -4.25 13.2 -1.85 14.8 0.5 14.8 3.85 14.8 7.2 13.2 9.55 11.65 11.9 9.4 11.95 7.2 11.9 5.6 9.55 4.05 7.2 4.05 3.85 4.0 2.0 4.5 0.45 4.9 -0.85 5.6 -1.85 M-11.75 2.0 L-10.85 0.0 -9.85 -1.15 Q-8.8 -2.05 -7.5 -2.05 -5.6 -2.05 -4.25 0.0 -2.85 2.05 -2.8 5.0 -2.85 7.9 -4.25 9.9 -5.6 11.95 -7.5 12.0 -9.45 11.95 -10.85 9.9 -12.2 7.9 -12.2 5.0 -12.2 3.35 -11.75 2.0 Z" fill="none" stroke="#000000" stroke-linecap="round" stroke-linejoin="round" stroke-width="3.5"/>
  </g>
</svg>
