<?xml version="1.0" encoding="UTF-8" standalone="no"?>
<svg xmlns:ffdec="https://www.free-decompiler.com/flash" xmlns:xlink="http://www.w3.org/1999/xlink" ffdec:objectType="shape" height="20.55px" width="32.9px" xmlns="http://www.w3.org/2000/svg">
  <g transform="matrix(1.0, 0.0, 0.0, 1.0, 15.55, 5.95)">
    <path d="M2.2 4.1 Q2.25 -0.05 4.55 -3.0 6.9 -5.95 9.95 -5.95 12.95 -5.95 13.85 -3.0 14.75 -0.05 16.25 2.4 17.7 4.8 17.2 7.05 16.7 9.25 15.1 11.8 13.5 14.35 10.2 14.35 6.9 14.35 4.55 11.35 2.2 8.4 2.2 4.2 L2.2 4.1 M0.45 4.45 Q0.45 8.65 -1.9 11.6 -4.25 14.6 -7.55 14.6 -10.85 14.6 -13.2 11.6 -15.55 8.65 -15.55 4.45 L-14.8 2.7 Q-14.1 0.95 -11.15 -1.75 -8.3 -4.4 -6.25 -5.05 -4.25 -5.7 -1.9 -2.75 0.4 0.2 0.45 4.35 L0.45 4.45" fill="#ffead5" fill-rule="evenodd" stroke="none"/>
    <path d="M-2.75 -0.3 Q-2.55 0.45 -2.5 1.25 -2.25 4.1 -2.45 7.2 -2.55 8.85 -3.65 10.15 L-4.95 11.35 Q-6.9 12.65 -8.55 10.95 -9.65 9.95 -10.1 8.25 -10.8 5.75 -9.85 4.35 L-3.4 -0.7 -2.95 -0.65 -2.75 -0.3 M6.15 -0.6 L6.15 -1.25 6.4 -1.2 Q9.1 0.15 11.25 2.55 L12.1 3.65 13.15 5.65 Q14.0 8.1 12.5 10.2 11.6 11.45 10.1 11.85 8.05 12.3 6.65 10.8 4.85 8.9 4.55 6.4 4.15 2.6 6.15 -0.6" fill="#ffcc99" fill-rule="evenodd" stroke="none"/>
    <path d="M6.15 -0.6 Q4.15 2.6 4.55 6.4 4.85 8.9 6.65 10.8 8.05 12.3 10.1 11.85 11.6 11.45 12.5 10.2 14.0 8.1 13.15 5.65 L12.1 3.65 11.25 2.55 Q9.1 0.15 6.4 -1.2 L6.15 -1.25 6.15 -0.6 M-2.75 -0.3 L-2.95 -0.65 -3.4 -0.7 -9.85 4.35 Q-10.8 5.75 -10.1 8.25 -9.65 9.95 -8.55 10.95 -6.9 12.65 -4.95 11.35 L-3.65 10.15 Q-2.55 8.85 -2.45 7.2 -2.25 4.1 -2.5 1.25 -2.55 0.45 -2.75 -0.3 Z" fill="none" stroke="#000000" stroke-linecap="round" stroke-linejoin="round" stroke-width="3.5"/>
  </g>
</svg>
