<?xml version="1.0" encoding="UTF-8" standalone="no"?>
<svg xmlns:ffdec="https://www.free-decompiler.com/flash" xmlns:xlink="http://www.w3.org/1999/xlink" ffdec:objectType="shape" height="19.9px" width="33.75px" xmlns="http://www.w3.org/2000/svg">
  <g transform="matrix(1.0, 0.0, 0.0, 1.0, 15.55, 5.3)">
    <path d="M5.85 -0.75 Q7.8 -4.3 10.65 -5.1 13.5 -5.95 15.85 -3.0 18.15 -0.05 18.2 4.1 L18.2 4.2 Q18.2 8.4 15.85 11.35 13.5 14.35 10.2 14.35 6.9 14.35 4.55 11.35 2.2 8.4 2.2 4.2 L3.0 3.5 Q3.8 2.8 5.85 -0.75 M0.45 4.45 Q0.45 8.65 -1.9 11.6 -4.25 14.6 -7.55 14.6 -10.85 14.6 -13.2 11.6 -15.55 8.65 -15.55 4.45 L-15.55 4.35 Q-15.5 0.2 -13.2 -2.75 -10.85 -5.7 -7.95 -3.5 -5.05 -1.35 -2.4 0.0 0.2 1.4 0.35 2.9 L0.45 4.45" fill="#ffead5" fill-rule="evenodd" stroke="none"/>
    <path d="M12.8 0.65 Q13.85 2.45 13.85 4.95 13.85 7.85 12.45 9.9 11.1 11.95 9.15 11.95 7.25 11.95 5.85 9.9 4.7 8.2 4.55 5.95 L12.8 0.65 M-2.35 5.45 L-2.3 5.95 Q-2.35 8.45 -3.55 10.2 -4.7 12.0 -6.35 12.0 -8.05 12.0 -9.25 10.2 -10.45 8.45 -10.45 5.95 -10.45 4.5 -10.05 3.35 L-9.9 2.9 -2.35 5.45" fill="#ffcc99" fill-rule="evenodd" stroke="none"/>
    <path d="M12.8 0.65 Q13.85 2.45 13.85 4.95 13.85 7.85 12.45 9.9 11.1 11.95 9.15 11.95 7.25 11.95 5.85 9.9 4.7 8.2 4.55 5.95 M-2.35 5.45 L-2.3 5.95 Q-2.35 8.45 -3.55 10.2 -4.7 12.0 -6.35 12.0 -8.05 12.0 -9.25 10.2 -10.45 8.45 -10.45 5.95 -10.45 4.5 -10.05 3.35 L-9.9 2.9" fill="none" stroke="#000000" stroke-linecap="round" stroke-linejoin="round" stroke-width="3.5"/>
    <path d="M4.55 5.95 L3.45 6.6 M4.55 5.95 L12.8 0.65 M-9.9 2.9 L-2.35 5.45 -1.8 5.6" fill="none" stroke="#000000" stroke-linecap="round" stroke-linejoin="round" stroke-width="3.5"/>
  </g>
</svg>
