<?xml version="1.0" encoding="UTF-8" standalone="no"?>
<svg xmlns:ffdec="https://www.free-decompiler.com/flash" xmlns:xlink="http://www.w3.org/1999/xlink" ffdec:objectType="shape" height="15.4px" width="33.75px" xmlns="http://www.w3.org/2000/svg">
  <g transform="matrix(1.0, 0.0, 0.0, 1.0, 15.55, 0.8)">
    <path d="M17.7 0.6 Q18.2 2.25 18.2 4.1 L18.2 4.2 Q18.2 8.4 15.85 11.35 13.5 14.35 10.2 14.35 6.9 14.35 4.55 11.35 2.2 8.4 2.2 4.2 L2.2 4.1 Q2.2 2.25 2.7 0.6 10.2 -1.3 17.7 0.6 M0.45 4.45 Q0.45 8.65 -1.9 11.6 -4.25 14.6 -7.55 14.6 -10.85 14.6 -13.2 11.6 -15.55 8.65 -15.55 4.45 L-15.55 4.35 Q-15.55 2.35 -14.95 0.6 -7.55 -2.2 -0.1 0.6 0.45 2.35 0.45 4.35 L0.45 4.45" fill="#ffead5" fill-rule="evenodd" stroke="none"/>
    <path d="M13.85 5.1 Q13.8 7.9 12.45 9.9 11.1 11.95 9.15 11.95 7.25 11.95 5.85 9.9 4.5 7.9 4.5 5.1 L13.85 5.1 M-2.35 5.1 L-2.3 5.95 Q-2.35 8.45 -3.55 10.2 -4.7 12.0 -6.35 12.0 -8.05 12.0 -9.25 10.2 -10.45 8.45 -10.45 5.95 L-10.4 5.1 -2.35 5.1" fill="#ffcc99" fill-rule="evenodd" stroke="none"/>
    <path d="M13.85 5.1 Q13.8 7.9 12.45 9.9 11.1 11.95 9.15 11.95 7.25 11.95 5.85 9.9 4.5 7.9 4.5 5.1 M-2.35 5.1 L-2.3 5.95 Q-2.35 8.45 -3.55 10.2 -4.7 12.0 -6.35 12.0 -8.05 12.0 -9.25 10.2 -10.45 8.45 -10.45 5.95 L-10.4 5.1" fill="none" stroke="#000000" stroke-linecap="round" stroke-linejoin="round" stroke-width="3.5"/>
    <path d="M4.5 5.1 L13.85 5.1 M-10.4 5.1 L-2.35 5.1" fill="none" stroke="#000000" stroke-linecap="round" stroke-linejoin="round" stroke-width="3.5"/>
  </g>
</svg>
