<?xml version="1.0" encoding="UTF-8" standalone="no"?>
<svg xmlns:ffdec="https://www.free-decompiler.com/flash" xmlns:xlink="http://www.w3.org/1999/xlink" ffdec:objectType="shape" height="16.2px" width="33.75px" xmlns="http://www.w3.org/2000/svg">
  <g transform="matrix(1.0, 0.0, 0.0, 1.0, 15.55, 5.95)">
    <path d="M4.55 -3.0 Q6.9 -5.95 10.2 -5.95 13.5 -5.95 15.85 -3.0 18.15 -0.05 18.2 4.1 L18.2 4.2 Q18.2 8.4 16.55 9.0 14.9 9.6 11.95 8.35 9.0 7.1 5.6 7.75 2.2 8.4 2.2 4.2 L2.2 4.1 Q2.25 -0.05 4.55 -3.0 M0.45 6.7 Q0.45 8.95 -3.9 8.55 -8.25 8.1 -10.75 9.5 -13.3 10.85 -14.45 9.75 -15.6 8.6 -15.55 6.5 L-15.55 4.35 Q-15.5 0.2 -13.2 -2.75 -10.85 -5.7 -7.55 -5.7 -4.25 -5.7 -1.9 -2.75 0.4 0.2 0.45 4.35 L0.45 6.7" fill="#ffead5" fill-rule="evenodd" stroke="none"/>
    <path d="M14.95 5.35 Q8.3 -5.6 4.2 6.1" fill="none" stroke="#333333" stroke-linecap="round" stroke-linejoin="round" stroke-width="2.0"/>
    <path d="M-2.3 6.35 Q-6.9 -1.45 -10.55 6.6" fill="none" stroke="#333333" stroke-linecap="round" stroke-linejoin="round" stroke-width="2.0"/>
  </g>
</svg>
