<?xml version="1.0" encoding="UTF-8" standalone="no"?>
<svg xmlns:ffdec="https://www.free-decompiler.com/flash" xmlns:xlink="http://www.w3.org/1999/xlink" ffdec:objectType="shape" height="20.35px" width="32.95px" xmlns="http://www.w3.org/2000/svg">
  <g transform="matrix(1.0, 0.0, 0.0, 1.0, 14.75, 5.75)">
    <path d="M13.85 -2.0 L17.05 2.65 18.2 4.2 Q18.2 8.4 14.8 8.7 11.4 8.95 7.3 11.1 3.2 13.25 2.35 10.85 1.5 8.4 1.85 6.3 L2.2 4.1 Q2.25 -0.05 4.55 -3.0 6.9 -5.95 9.35 -5.5 11.75 -5.1 13.85 -2.0 M0.45 4.45 Q0.45 8.65 -1.9 11.6 -4.25 14.6 -7.55 14.6 -10.85 14.6 -13.2 11.6 -15.55 8.65 -14.35 5.8 L-12.35 1.35 -10.15 -3.0 Q-8.7 -5.8 -6.45 -5.75 -4.25 -5.7 -1.9 -2.75 0.4 0.2 0.45 4.35 L0.45 4.45" fill="#ffead5" fill-rule="evenodd" stroke="none"/>
    <path d="M5.7 -2.45 Q6.75 -3.7 8.25 -3.55 9.65 -3.4 15.4 2.75 L15.6 4.95 15.65 6.1 Q16.25 6.1 18.05 7.7 L16.7 8.0 Q13.35 8.85 3.2 12.8 L3.05 12.55 Q2.75 12.0 2.95 11.4 3.1 10.8 3.65 10.55 L4.05 10.35 Q2.75 8.05 2.75 4.95 2.75 3.1 3.25 1.5 L3.2 1.55 Q3.6 0.2 4.4 -0.95 L4.45 -1.0 5.75 -2.5 5.7 -2.45 M6.6 2.45 L6.6 2.5 Q6.25 3.6 6.25 4.95 6.25 7.05 7.1 8.6 9.85 6.85 12.15 6.4 L12.25 5.0 12.4 4.45 10.55 2.3 Q8.75 0.0 8.35 0.1 L7.95 0.2 Q7.6 0.5 7.35 0.95 L7.3 1.05 Q6.8 1.65 6.6 2.45 M-4.75 -2.35 Q-3.5 -1.5 -2.1 0.65 -0.6 2.8 -0.55 5.95 L-0.55 6.0 Q-0.6 9.05 -2.1 11.2 L-2.05 11.15 Q-3.8 13.85 -6.35 13.75 -8.9 13.85 -10.7 11.2 -12.0 9.35 -12.15 6.8 L-6.9 -3.05 -4.75 -2.35 M-5.0 2.6 Q-5.5 1.9 -6.05 1.7 -7.05 2.3 -8.35 5.9 L-8.65 6.7 Q-8.5 8.1 -7.8 9.2 L-7.8 9.25 Q-7.2 10.15 -6.35 10.25 -5.6 10.15 -5.0 9.25 L-5.0 9.2 Q-4.1 7.85 -4.05 5.95 -4.1 4.0 -5.0 2.65 L-5.0 2.6" fill="#000000" fill-rule="evenodd" stroke="none"/>
    <path d="M6.6 2.45 Q6.8 1.65 7.3 1.05 L7.35 0.95 Q7.6 0.5 7.95 0.2 L8.35 0.1 Q8.75 0.0 10.55 2.3 L12.4 4.45 12.25 5.0 12.15 6.4 Q9.85 6.85 7.1 8.6 6.25 7.05 6.25 4.95 6.25 3.6 6.6 2.5 L6.6 2.45 M-5.0 2.6 L-5.0 2.65 Q-4.1 4.0 -4.05 5.95 -4.1 7.85 -5.0 9.2 L-5.0 9.25 Q-5.6 10.15 -6.35 10.25 -7.2 10.15 -7.8 9.25 L-7.8 9.2 Q-8.5 8.1 -8.65 6.7 L-8.35 5.9 Q-7.05 2.3 -6.05 1.7 -5.5 1.9 -5.0 2.6" fill="#ffcc99" fill-rule="evenodd" stroke="none"/>
  </g>
</svg>
