<?xml version="1.0" encoding="UTF-8" standalone="no"?>
<svg xmlns:ffdec="https://www.free-decompiler.com/flash" xmlns:xlink="http://www.w3.org/1999/xlink" ffdec:objectType="shape" height="20.55px" width="33.75px" xmlns="http://www.w3.org/2000/svg">
  <g transform="matrix(1.0, 0.0, 0.0, 1.0, 15.55, 5.95)">
    <path d="M15.85 -3.0 Q18.15 -0.05 18.2 4.1 L18.2 4.2 Q18.2 8.4 15.85 11.35 13.5 14.35 10.2 14.35 6.9 14.35 4.55 11.35 2.2 8.4 2.2 4.2 L2.2 4.1 Q2.25 -0.05 4.55 -3.0 6.9 -5.95 10.2 -5.95 13.5 -5.95 15.85 -3.0 M0.45 4.45 Q0.45 8.65 -1.9 11.6 -4.25 14.6 -7.55 14.6 -10.85 14.6 -13.2 11.6 -15.55 8.65 -15.55 4.45 L-15.55 4.35 Q-15.5 0.2 -13.25 -2.6 -10.95 -5.4 -8.65 -2.85 -6.35 -0.3 -3.35 1.1 -0.35 2.5 0.05 3.45 L0.45 4.45" fill="#ffead5" fill-rule="evenodd" stroke="none"/>
    <path d="M-13.85 -0.15 L-12.7 -0.1 -10.05 1.05 -9.05 1.2 -8.45 1.75 -0.65 5.25 -0.55 5.85 -0.55 6.0 Q-0.6 9.05 -2.1 11.2 L-2.05 11.15 Q-3.8 13.85 -6.35 13.75 -8.9 13.85 -10.7 11.2 -12.2 9.05 -12.2 5.95 L-11.9 3.5 -14.65 1.9 -14.7 1.8 Q-14.95 1.2 -14.65 0.65 L-13.85 -0.15 M-8.6 4.9 L-8.7 5.95 Q-8.7 7.85 -7.8 9.2 L-7.8 9.25 Q-7.2 10.15 -6.35 10.25 -5.6 10.15 -5.0 9.25 L-5.0 9.2 Q-4.3 8.15 -4.1 6.75 L-8.6 4.9" fill="#000000" fill-rule="evenodd" stroke="none"/>
    <path d="M9.15 -2.05 Q11.1 -2.05 12.45 0.0 13.85 2.05 13.85 4.95 13.85 7.85 12.45 9.9 11.1 11.95 9.15 11.95 7.25 11.95 5.85 9.9 4.5 7.85 4.5 4.95 4.5 3.35 4.9 2.0 5.2 0.9 5.85 0.0 L6.85 -1.15 Q7.9 -2.05 9.15 -2.05 M-8.6 4.9 L-4.1 6.75 Q-4.3 8.15 -5.0 9.2 L-5.0 9.25 Q-5.6 10.15 -6.35 10.25 -7.2 10.15 -7.8 9.25 L-7.8 9.2 Q-8.7 7.85 -8.7 5.95 L-8.6 4.9" fill="#ffcc99" fill-rule="evenodd" stroke="none"/>
    <path d="M9.15 -2.05 Q11.1 -2.05 12.45 0.0 13.85 2.05 13.85 4.95 13.85 7.85 12.45 9.9 11.1 11.95 9.15 11.95 7.25 11.95 5.85 9.9 4.5 7.85 4.5 4.95 4.5 3.35 4.9 2.0 5.2 0.9 5.85 0.0 L6.85 -1.15 Q7.9 -2.05 9.15 -2.05 Z" fill="none" stroke="#000000" stroke-linecap="round" stroke-linejoin="round" stroke-width="3.5"/>
  </g>
</svg>
