<?xml version="1.0" encoding="UTF-8" standalone="no"?>
<svg xmlns:ffdec="https://www.free-decompiler.com/flash" xmlns:xlink="http://www.w3.org/1999/xlink" ffdec:objectType="shape" height="106.95px" width="98.0px" xmlns="http://www.w3.org/2000/svg">
  <g transform="matrix(1.0, 0.0, 0.0, 1.0, 44.5, 19.05)">
    <path d="M14.7 -15.5 Q21.2 -14.85 27.95 -10.7 34.65 -6.6 41.55 0.1 48.45 6.8 48.95 12.7 L49.05 19.3 Q46.1 14.9 38.65 6.85 31.15 -1.2 25.45 -1.75 19.7 -2.3 13.65 -6.5 7.55 -10.7 7.9 -13.4 8.2 -16.15 14.7 -15.5 M11.4 -4.9 L16.4 1.3 Q17.7 3.0 18.8 3.65 L19.2 3.85 Q19.75 4.1 20.6 5.45 L26.35 11.1 28.05 3.0 31.35 14.9 36.0 9.65 36.1 16.35 42.4 13.9 Q40.0 16.55 38.35 19.05 L33.35 21.3 33.05 20.5 Q31.95 17.85 31.85 19.4 L31.8 19.65 31.8 19.75 31.7 20.75 31.45 21.85 Q31.15 22.9 31.15 24.25 31.1 26.55 32.05 28.55 32.9 30.3 34.3 31.65 37.95 35.5 39.3 40.55 L39.5 42.35 Q39.45 44.15 39.05 45.95 L38.45 47.6 35.65 54.05 33.7 59.15 Q32.6 62.05 33.4 64.9 34.2 67.75 36.3 68.75 38.4 69.75 39.4 71.6 39.95 72.55 40.15 73.7 40.35 74.75 40.15 75.85 L39.8 77.0 39.85 76.65 39.7 74.5 38.8 72.45 Q37.65 70.7 35.5 69.9 33.3 69.05 32.3 66.25 31.25 63.45 32.1 60.5 L33.65 55.25 Q34.7 51.9 35.9 48.6 L36.4 46.9 Q36.65 45.1 36.55 43.3 L36.2 41.5 Q34.5 36.6 30.5 33.05 29.05 31.8 28.05 30.1 26.95 28.2 26.8 25.9 26.7 24.55 26.9 23.5 L27.1 21.35 Q27.2 18.05 25.85 15.15 L24.9 13.25 22.65 9.35 Q19.9 4.95 16.2 1.1 L21.25 9.0 22.45 11.1 22.95 13.05 23.05 15.95 22.6 19.35 Q21.25 16.35 17.0 12.5 13.15 20.65 13.2 17.8 13.25 15.45 5.5 3.85 L2.75 -0.25 1.45 -2.1 1.35 -1.15 1.15 0.9 Q-0.4 12.7 -5.3 21.15 -5.9 15.0 -10.05 10.65 -12.85 17.4 -17.3 21.65 -17.7 12.15 -24.05 3.15 -36.05 20.9 -34.8 17.65 -34.0 15.6 -35.7 6.95 L-36.75 1.85 Q-36.3 -5.95 -28.4 -8.7 -23.6 -10.35 -18.6 -11.25 L-12.05 -12.1 -12.0 -12.1 Q-8.15 -12.6 -4.45 -12.1 4.0 -11.05 11.4 -4.9 M42.75 76.05 Q42.2 77.35 41.3 78.35 L36.1 84.45 38.35 80.75 41.45 77.7 42.75 76.05 M18.6 17.75 L19.0 19.9 19.25 17.85 19.6 23.85 18.6 17.75 M12.05 20.75 L12.5 20.8 12.85 25.65 12.35 24.75 Q10.7 21.7 10.7 18.25 L11.0 19.25 11.35 18.5 12.05 20.75 M1.4 8.75 L1.85 8.75 Q2.65 15.6 0.9 22.25 L0.2 24.35 -0.55 26.5 1.4 8.75 M-14.15 26.0 L-14.1 25.0 Q-14.0 22.75 -12.9 20.85 L-13.65 25.75 -14.15 26.0 M-33.9 24.4 L-34.5 24.1 -28.75 14.4 Q-29.25 20.45 -33.9 24.4 M-37.4 23.05 L-35.65 21.15 -36.75 23.35 -37.4 23.05 M-6.55 23.65 L-7.15 23.9 -7.8 22.1 -7.25 22.95 -7.0 22.5 -6.55 23.65 M-19.45 19.4 Q-18.6 21.35 -19.2 23.35 L-19.75 26.5 Q-21.0 22.2 -19.95 18.1 L-19.45 19.4" fill="#fbee95" fill-rule="evenodd" stroke="none"/>
    <path d="M14.7 -15.5 Q8.2 -16.15 7.9 -13.4 7.55 -10.7 13.65 -6.5 19.7 -2.3 25.45 -1.75 31.15 -1.2 38.65 6.85 46.1 14.9 49.05 19.3 L48.95 12.7 Q48.45 6.8 41.55 0.1 34.65 -6.6 27.95 -10.7 21.2 -14.85 14.7 -15.5 M11.4 -4.9 Q6.8 -10.0 1.3 -12.35 2.75 -15.3 4.65 -15.85 15.2 -18.65 25.4 -14.3 29.45 -12.6 36.9 -8.75 44.3 -4.9 47.15 -0.05 49.95 4.75 52.05 12.85 54.1 20.95 50.55 38.75 48.55 28.1 44.15 23.8 42.4 22.0 40.15 22.25 L38.2 22.2 39.95 18.3 42.4 13.9 36.1 16.35 36.0 9.65 31.35 14.9 28.05 3.0 26.35 11.1 20.6 5.45 Q19.75 4.1 19.2 3.85 L18.8 3.65 Q17.7 3.0 16.4 1.3 L11.4 -4.9 M38.35 19.05 Q37.35 20.5 36.7 21.95 L36.45 22.35 36.2 23.0 Q35.7 24.15 35.6 25.45 35.45 26.8 35.8 28.1 36.2 29.7 36.95 31.15 L38.6 33.85 Q41.25 37.5 40.85 41.2 40.45 44.9 39.25 48.65 L36.6 56.0 Q35.15 59.55 34.55 62.25 34.25 63.65 34.95 65.1 35.6 66.5 36.8 67.5 L41.8 71.95 Q43.6 73.5 42.9 75.65 L42.75 76.05 41.45 77.7 38.35 80.75 39.2 78.95 39.8 77.0 40.15 75.85 Q40.35 74.75 40.15 73.7 39.95 72.55 39.4 71.6 38.4 69.75 36.3 68.75 34.2 67.75 33.4 64.9 32.6 62.05 33.7 59.15 L35.65 54.05 38.45 47.6 39.05 45.95 Q39.45 44.15 39.5 42.35 L39.3 40.55 Q37.95 35.5 34.3 31.65 32.9 30.3 32.05 28.55 31.1 26.55 31.15 24.25 31.15 22.9 31.45 21.85 L31.7 20.75 31.8 19.75 31.8 19.65 31.85 19.4 Q31.95 17.85 33.05 20.5 L33.35 21.3 38.35 19.05 M22.6 19.35 Q21.95 22.45 20.6 26.3 18.95 22.3 16.2 20.7 L15.0 19.95 14.75 21.4 Q15.3 27.05 11.25 33.0 10.55 18.05 3.05 3.55 4.85 18.8 0.4 33.25 L-3.9 25.2 -5.2 33.6 -9.75 20.55 -10.1 20.6 -10.55 23.45 Q-11.05 27.6 -15.55 34.3 -15.05 29.4 -17.4 26.05 L-22.6 33.5 Q-20.25 20.3 -24.65 8.45 -25.95 20.6 -34.1 30.75 -34.45 27.1 -35.95 25.0 L-36.65 24.0 -42.45 31.7 -40.6 27.8 Q-36.3 16.15 -36.8 3.65 L-36.75 1.85 -35.7 6.95 Q-34.0 15.6 -34.8 17.65 -36.05 20.9 -24.05 3.15 -17.7 12.15 -17.3 21.65 -12.85 17.4 -10.05 10.65 -5.9 15.0 -5.3 21.15 -0.4 12.7 1.15 0.9 L1.35 -1.15 1.45 -2.1 2.75 -0.25 5.5 3.85 Q13.25 15.45 13.2 17.8 13.15 20.65 17.0 12.5 21.25 16.35 22.6 19.35 M36.1 83.0 L35.75 83.35 36.15 82.85 36.1 83.0 M-19.45 19.4 L-19.95 18.1 Q-21.0 22.2 -19.75 26.5 L-19.2 23.35 Q-18.6 21.35 -19.45 19.4 M-6.55 23.65 L-7.0 22.5 -7.25 22.95 -7.8 22.1 -7.15 23.9 -6.55 23.65 M-37.4 23.05 L-36.75 23.35 -35.65 21.15 -37.4 23.05 M-33.9 24.4 Q-29.25 20.45 -28.75 14.4 L-34.5 24.1 -33.9 24.4 M-14.15 26.0 L-13.65 25.75 -12.9 20.85 Q-14.0 22.75 -14.1 25.0 L-14.15 26.0 M1.4 8.75 L-0.55 26.5 0.2 24.35 0.9 22.25 Q2.65 15.6 1.85 8.75 L1.4 8.75 M12.05 20.75 L11.35 18.5 11.0 19.25 10.7 18.25 Q10.7 21.7 12.35 24.75 L12.85 25.65 12.5 20.8 12.05 20.75 M18.6 17.75 L19.6 23.85 19.25 17.85 19.0 19.9 18.6 17.75" fill="#f4d371" fill-rule="evenodd" stroke="none"/>
    <path d="M42.4 13.9 L39.95 18.3 38.2 22.2 40.15 22.25 Q42.4 22.0 44.15 23.8 48.55 28.1 50.55 38.75 54.1 20.95 52.05 12.85 49.95 4.75 47.15 -0.05 44.3 -4.9 36.9 -8.75 29.45 -12.6 25.4 -14.3 15.2 -18.65 4.65 -15.85 2.75 -15.3 1.3 -12.35 6.8 -10.0 11.4 -4.9 4.0 -11.05 -4.45 -12.1 -8.15 -12.6 -12.0 -12.1 L-12.05 -12.1 -18.6 -11.25 Q-23.6 -10.35 -28.4 -8.7 -36.3 -5.95 -36.75 1.85 L-36.8 3.65 Q-36.3 16.15 -40.6 27.8 L-42.45 31.7 -36.65 24.0 -35.95 25.0 Q-34.45 27.1 -34.1 30.75 -25.95 20.6 -24.65 8.45 -20.25 20.3 -22.6 33.5 L-17.4 26.05 Q-15.05 29.4 -15.55 34.3 -11.05 27.6 -10.55 23.45 L-10.1 20.6 -9.75 20.55 -5.2 33.6 -3.9 25.2 0.4 33.25 Q4.85 18.8 3.05 3.55 10.55 18.05 11.25 33.0 15.3 27.05 14.75 21.4 L15.0 19.95 16.2 20.7 Q18.95 22.3 20.6 26.3 21.95 22.45 22.6 19.35 L23.05 15.95 22.95 13.05 22.45 11.1 21.25 9.0 16.2 1.1 Q19.9 4.95 22.65 9.35 L24.9 13.25 25.85 15.15 Q27.2 18.05 27.1 21.35 L26.9 23.5 Q26.7 24.55 26.8 25.9 26.95 28.2 28.05 30.1 29.05 31.8 30.5 33.05 34.5 36.6 36.2 41.5 L36.55 43.3 Q36.65 45.1 36.4 46.9 L35.9 48.6 Q34.7 51.9 33.65 55.25 L32.1 60.5 Q31.25 63.45 32.3 66.25 33.3 69.05 35.5 69.9 37.65 70.7 38.8 72.45 L39.7 74.5 39.85 76.65 39.8 77.0 39.2 78.95 38.35 80.75 36.1 84.45 41.3 78.35 Q42.2 77.35 42.75 76.05 L42.9 75.65 Q43.6 73.5 41.8 71.95 L36.8 67.5 Q35.6 66.5 34.95 65.1 34.25 63.65 34.55 62.25 35.15 59.55 36.6 56.0 L39.25 48.65 Q40.45 44.9 40.85 41.2 41.25 37.5 38.6 33.85 L36.95 31.15 Q36.2 29.7 35.8 28.1 35.45 26.8 35.6 25.45 35.7 24.15 36.2 23.0 L36.45 22.35 36.7 21.95 Q37.35 20.5 38.35 19.05 40.0 16.55 42.4 13.9 M36.15 82.85 L37.2 79.45 Q37.95 76.9 37.95 75.7 37.95 74.95 37.6 74.3 L36.6 73.15 33.75 71.0 Q31.85 69.85 31.05 67.95 30.15 65.75 30.25 63.45 30.5 58.95 31.75 54.75 L34.35 46.25 Q35.3 43.35 33.85 40.75 L32.4 38.85 Q29.1 35.55 26.7 31.6 24.45 27.9 25.05 23.3 L25.0 23.3 25.15 22.95 25.15 22.8 Q25.75 20.3 25.1 17.95 L24.75 16.75 Q24.45 19.1 23.55 22.0 22.45 25.65 20.4 30.15 18.35 25.2 15.85 21.55 16.45 30.0 11.7 33.5 L10.1 35.3 9.95 32.85 Q9.4 22.1 4.65 11.3 4.7 22.45 1.15 33.6 L0.55 35.65 -3.2 29.9 -5.1 36.55 -9.25 26.8 Q-10.7 30.9 -14.85 35.0 L-16.8 37.05 -16.95 36.95 -16.5 34.15 Q-16.1 31.6 -17.95 29.75 L-23.6 36.15 -23.85 36.05 -23.5 33.2 Q-21.9 22.95 -25.0 15.8 -27.2 22.45 -33.65 32.9 L-36.95 27.2 -44.05 34.55 -44.5 34.3 Q-37.7 17.65 -38.5 5.4 -39.35 -6.85 -30.05 -10.15 -20.8 -13.45 -12.25 -14.1 L-9.25 -14.3 Q1.3 -17.4 12.3 -19.05 26.85 -17.8 38.85 -9.55 50.6 -1.35 52.75 12.6 55.05 27.35 50.25 41.8 L49.5 41.75 Q49.2 30.75 40.3 25.25 39.0 24.4 37.65 23.7 L37.35 25.7 Q37.35 26.9 37.75 28.05 38.75 30.9 40.6 33.45 42.0 35.3 42.4 37.65 L42.75 40.95 42.4 42.95 37.7 56.65 37.5 57.35 Q35.95 62.3 36.2 63.75 36.45 65.2 38.45 66.8 L41.65 69.45 42.9 70.75 Q44.1 72.25 44.25 74.15 44.5 77.65 42.1 80.1 L40.25 82.0 34.6 87.9 36.1 83.0 36.15 82.85" fill="#c28127" fill-rule="evenodd" stroke="none"/>
  </g>
</svg>
