<?xml version="1.0" encoding="UTF-8" standalone="no"?>
<svg xmlns:ffdec="https://www.free-decompiler.com/flash" xmlns:xlink="http://www.w3.org/1999/xlink" ffdec:objectType="shape" height="85.0px" width="84.95px" xmlns="http://www.w3.org/2000/svg">
  <g transform="matrix(1.0, 0.0, 0.0, 1.0, 35.95, 66.5)">
    <path d="M-22.85 -53.4 L-22.8 -53.25 -23.25 -53.0 -22.85 -53.4" fill="#edcda3" fill-rule="evenodd" stroke="none"/>
    <path d="M-22.8 -53.25 L-20.8 -54.3 Q-13.45 -57.9 -4.55 -57.9 10.55 -57.9 21.25 -47.4 31.95 -36.95 31.95 -22.1 31.95 -7.25 21.25 3.25 10.55 13.75 -4.55 13.75 L-12.55 12.95 Q-18.1 10.05 -22.85 5.3 -35.0 -6.85 -34.95 -24.0 -35.0 -38.5 -26.4 -49.4 L-23.25 -53.0 -22.8 -53.25" fill="#ffcc99" fill-rule="evenodd" stroke="none"/>
    <path d="M-20.8 -54.3 L-22.8 -53.25 -22.85 -53.4 Q-10.7 -65.55 6.5 -65.5 23.7 -65.55 35.85 -53.4 48.0 -41.2 48.0 -24.0 48.0 -6.85 35.85 5.3 23.7 17.5 6.5 17.5 -0.25 17.5 -6.25 15.6 L1.8 16.4 Q17.9 16.35 29.25 4.95 40.65 -6.4 40.65 -22.5 40.65 -38.65 29.25 -50.05 17.9 -61.45 1.8 -61.45 -11.0 -61.45 -20.8 -54.3" fill="#db9c64" fill-rule="evenodd" stroke="none"/>
    <path d="M-20.8 -54.3 Q-11.0 -61.45 1.8 -61.45 17.9 -61.45 29.25 -50.05 40.65 -38.65 40.65 -22.5 40.65 -6.4 29.25 4.95 17.9 16.35 1.8 16.4 L-6.25 15.6 Q-9.5 14.55 -12.55 12.95 L-4.55 13.75 Q10.55 13.75 21.25 3.25 31.95 -7.25 31.95 -22.1 31.95 -36.95 21.25 -47.4 10.55 -57.9 -4.55 -57.9 -13.45 -57.9 -20.8 -54.3" fill="#f1ba87" fill-rule="evenodd" stroke="none"/>
    <path d="M-22.8 -53.25 L-23.25 -53.0" fill="none" stroke="#5c4730" stroke-linecap="round" stroke-linejoin="round" stroke-width="2.0"/>
    <path d="M-6.25 15.6 Q-0.25 17.5 6.5 17.5 23.7 17.5 35.85 5.3 48.0 -6.85 48.0 -24.0 48.0 -41.2 35.85 -53.4 23.7 -65.55 6.5 -65.5 -10.7 -65.55 -22.85 -53.4 L-23.25 -53.0 -26.4 -49.4 Q-35.0 -38.5 -34.95 -24.0 -35.0 -6.85 -22.85 5.3 -18.1 10.05 -12.55 12.95 -9.5 14.55 -6.25 15.6 Z" fill="none" stroke="#5c4730" stroke-linecap="round" stroke-linejoin="round" stroke-width="2.0"/>
  </g>
</svg>
