<?xml version="1.0" encoding="UTF-8" standalone="no"?>
<svg xmlns:ffdec="https://www.free-decompiler.com/flash" xmlns:xlink="http://www.w3.org/1999/xlink" ffdec:objectType="shape" height="62.4px" width="39.9px" xmlns="http://www.w3.org/2000/svg">
  <g transform="matrix(1.0, 0.0, 0.0, 1.0, 9.7, 10.75)">
    <path d="M-1.75 26.35 L-0.2 25.6 Q0.9 27.4 3.05 28.55 5.2 29.65 7.6 28.8 L7.8 28.7 7.45 29.25 7.45 30.2 Q2.9 31.2 -0.75 27.6 L-1.75 26.35" fill="#fbfaee" fill-rule="evenodd" stroke="none"/>
    <path d="M18.3 16.45 L19.65 15.8 Q20.45 18.0 19.7 21.1 19.3 22.75 17.2 24.85 15.05 26.95 11.85 28.5 8.6 30.05 7.45 30.2 L7.45 29.25 7.8 28.7 7.85 28.7 Q10.85 27.75 13.5 26.2 L15.4 25.0 16.75 23.95 17.65 23.0 Q18.55 21.85 18.85 20.55 19.2 18.8 18.45 16.75 L18.3 16.45" fill="#cdc9b6" fill-rule="evenodd" stroke="none"/>
    <path d="M0.65 25.15 Q-1.35 22.9 0.0 19.75 2.15 16.85 6.25 15.25 L6.25 15.2 9.65 14.1 12.75 13.75 12.75 13.8 Q15.3 14.35 17.05 17.05 L17.15 17.2 Q18.9 20.05 16.55 22.7 14.15 25.3 10.4 27.3 6.65 29.3 2.2 26.4 L0.65 25.15" fill="#837d6d" fill-rule="evenodd" stroke="none"/>
    <path d="M19.65 15.8 L20.75 15.25 20.85 15.4 21.6 16.9 Q22.85 20.3 19.85 24.45 18.15 26.7 15.65 28.35 14.0 29.4 12.05 30.25 L12.0 30.25 Q6.95 32.15 2.7 31.35 L2.65 31.35 Q-1.95 30.3 -3.3 27.1 L-1.75 26.35 -0.75 27.6 Q2.9 31.2 7.45 30.2 8.6 30.05 11.85 28.5 15.05 26.95 17.2 24.85 19.3 22.75 19.7 21.1 20.45 18.0 19.65 15.8 M-0.2 25.6 L0.65 25.15 2.2 26.4 Q6.65 29.3 10.4 27.3 14.15 25.3 16.55 22.7 18.9 20.05 17.15 17.2 L17.05 17.05 18.3 16.45 18.45 16.75 Q19.2 18.8 18.85 20.55 L17.95 22.5 17.65 23.0 16.75 23.95 13.5 26.2 Q10.85 27.75 7.85 28.7 L7.8 28.65 7.6 28.8 Q5.2 29.65 3.05 28.55 0.9 27.4 -0.2 25.6" fill="#666666" fill-rule="evenodd" stroke="none"/>
    <path d="M26.6 48.75 L25.45 46.15 Q23.05 40.9 20.25 35.7 13.0 22.25 8.85 22.25 4.85 22.25 4.05 24.0 L4.0 26.25 3.5 26.5 3.15 26.15 2.9 26.3 Q-2.7 17.05 -5.55 11.05 -4.5 -4.7 6.4 6.1 17.3 16.85 29.2 44.45 28.35 46.55 27.3 47.9 L27.2 48.0 26.6 48.75" fill="#db9c64" fill-rule="evenodd" stroke="none"/>
    <path d="M2.9 26.3 L3.15 26.15 3.5 26.5 4.0 26.25 4.05 24.0 Q4.85 22.25 8.85 22.25 13.0 22.25 20.25 35.7 23.05 40.9 25.45 46.15 L26.6 48.75 Q23.1 52.3 17.75 49.25 8.8 36.0 2.9 26.3" fill="#f1ba87" fill-rule="evenodd" stroke="none"/>
    <path d="M2.9 26.3 Q8.8 36.0 17.75 49.25 23.1 52.3 26.6 48.75 L27.2 48.0 M27.3 47.9 Q28.35 46.55 29.2 44.45 17.3 16.85 6.4 6.1 -4.5 -4.7 -5.55 11.05 -2.7 17.05 2.9 26.3" fill="none" stroke="#5c4730" stroke-linecap="round" stroke-linejoin="round" stroke-width="2.0"/>
    <path d="M-0.2 25.6 L-1.75 26.35 -2.55 24.3 Q-3.1 21.85 -3.3 19.4 L-5.05 12.9 Q-6.65 6.9 -7.45 0.7 -5.0 -4.25 -0.15 -2.7 2.25 -1.85 4.85 3.9 L7.3 8.9 Q7.6 9.9 7.2 10.55 6.65 11.45 4.8 13.0 L-0.25 16.25 -1.6 17.75 -2.15 19.3 Q-2.55 20.7 -2.25 22.1 L-1.9 22.45 -1.5 21.2 Q-1.35 23.75 -0.2 25.6" fill="#fbfaee" fill-rule="evenodd" stroke="none"/>
    <path d="M19.65 15.8 L18.3 16.45 Q17.75 15.25 16.7 14.4 13.2 11.4 8.65 12.75 3.85 14.05 0.25 17.6 -1.2 19.05 -1.5 21.2 L-1.9 22.45 -2.25 22.1 Q-2.55 20.7 -2.15 19.3 L-1.6 17.75 -0.25 16.25 4.8 13.0 Q6.65 11.45 7.2 10.55 7.6 9.9 7.3 8.9 L4.85 3.9 Q2.25 -1.85 -0.15 -2.7 -5.0 -4.25 -7.45 0.7 L-7.95 -3.4 Q-8.15 -5.65 -7.0 -10.0 -4.9 -11.7 -1.45 -9.45 0.45 -7.55 2.6 -4.65 L9.05 4.2 15.35 11.7 Q18.65 13.1 19.65 15.8" fill="#cdc9b6" fill-rule="evenodd" stroke="none"/>
    <path d="M-1.45 -9.45 Q-2.9 -10.9 -1.7 -10.35 1.8 -8.85 4.1 -5.75 L10.55 3.0 20.45 14.65 20.6 15.0 20.75 15.25 19.65 15.8 Q18.65 13.1 15.35 11.7 L9.05 4.2 2.6 -4.65 Q0.45 -7.55 -1.45 -9.45 M18.3 16.45 L17.05 17.05 Q15.3 14.35 12.75 13.8 L12.75 13.75 9.65 14.1 6.25 15.2 6.25 15.25 Q2.15 16.85 0.0 19.75 -1.35 22.9 0.65 25.15 L-0.2 25.6 Q-1.35 23.75 -1.5 21.2 -1.2 19.05 0.25 17.6 3.85 14.05 8.65 12.75 13.2 11.4 16.7 14.4 17.75 15.25 18.3 16.45 M-1.75 26.35 L-3.3 27.1 -3.35 27.0 -3.7 26.15 -3.8 25.75 -3.8 25.65 -3.85 25.55 -3.85 25.5 -3.85 25.45 -6.7 13.4 -9.05 3.9 -9.4 2.1 Q-10.15 -2.65 -9.0 -7.3 -8.75 -8.35 -8.05 -9.1 L-7.0 -10.0 Q-8.15 -5.65 -7.95 -3.4 L-7.45 0.7 Q-6.65 6.9 -5.05 12.9 L-3.3 19.4 Q-3.1 21.85 -2.55 24.3 L-1.75 26.35" fill="#666666" fill-rule="evenodd" stroke="none"/>
  </g>
</svg>
