<?xml version="1.0" encoding="UTF-8" standalone="no"?>
<svg xmlns:ffdec="https://www.free-decompiler.com/flash" xmlns:xlink="http://www.w3.org/1999/xlink" ffdec:objectType="shape" height="31.65px" width="21.2px" xmlns="http://www.w3.org/2000/svg">
  <g transform="matrix(1.0, 0.0, 0.0, 1.0, 12.55, 25.8)">
    <path d="M-1.95 5.15 L-2.6 4.75 -3.4 4.35 -2.9 3.35 Q-4.0 -6.65 -9.0 -15.6 L-12.45 -21.65 -12.55 -22.2 -12.35 -22.8 -11.9 -23.1 -3.45 -25.5 Q0.45 -26.55 3.0 -23.65 L4.5 -21.6 4.55 -20.9 4.15 -19.3 4.15 -19.25 4.2 -16.65 Q4.5 -7.35 8.0 1.05 L8.65 1.65 8.35 1.95 8.3 2.5 7.75 3.05 Q7.45 3.15 7.4 3.5 L7.4 3.75 Q7.45 4.15 7.05 2.8 L7.05 2.75 7.0 2.7 7.0 2.65 7.0 2.8 6.95 3.0 7.0 3.0 7.1 3.0 7.2 3.4 7.1 3.45 7.4 4.8 7.05 3.5 6.8 3.7 6.7 3.75 6.3 3.35 6.25 3.3 5.95 3.45 Q4.45 -1.6 2.45 -12.85 L2.45 -13.05 2.2 -16.55 2.2 -19.35 2.25 -19.7 2.55 -20.95 1.55 -22.35 Q-0.25 -24.3 -2.95 -23.6 L-10.1 -21.55 -5.2 -12.65 -5.05 -12.35 -4.9 -12.05 -4.7 -11.65 Q-2.2 -2.9 -2.05 2.6 L-1.95 5.15 M-2.85 3.85 L-2.85 3.9 -2.85 3.85" fill="#5c4730" fill-rule="evenodd" stroke="none"/>
    <path d="M7.2 3.4 L7.1 3.0 7.2 3.4 M6.05 4.1 L6.15 4.05 6.2 4.3 6.1 4.05 6.05 4.1" fill="#f1ba87" fill-rule="evenodd" stroke="none"/>
    <path d="M7.1 3.0 L7.0 3.0 6.95 3.0 7.0 2.8 7.0 2.75 7.0 2.7 7.05 2.75 7.05 2.8 7.1 3.0 M-1.3 5.5 L-1.15 5.7 -1.3 5.8 -1.3 5.5" fill="#ffcc99" fill-rule="evenodd" stroke="none"/>
    <path d="M2.45 -13.05 L2.45 -12.85 1.25 -12.65 2.45 -13.05 M5.95 3.45 L6.25 3.3 6.3 3.35 6.7 3.75 6.15 4.05 6.05 4.1 5.95 3.45" fill="#c18753" fill-rule="evenodd" stroke="none"/>
    <path d="M-1.95 5.15 L-2.05 2.6 Q-2.2 -2.9 -4.7 -11.65 -0.85 -11.7 1.25 -12.65 L2.45 -12.85 Q4.45 -1.6 5.95 3.45 L6.05 4.1 Q1.1 6.35 -0.8 5.5 L-1.0 5.0 -1.05 5.35 -0.9 5.5 -0.95 5.45 -1.1 5.4 -1.1 5.55 -1.15 5.7 -1.3 5.5 -1.45 5.4 -1.95 5.15" fill="#db9c64" fill-rule="evenodd" stroke="none"/>
    <path d="M-4.7 -11.65 L-4.9 -12.05 -5.05 -12.35 -5.2 -12.65 -10.1 -21.55 -2.95 -23.6 Q-0.25 -24.3 1.55 -22.35 L2.55 -20.95 2.25 -19.7 2.2 -19.35 2.2 -16.55 2.45 -13.05 1.25 -12.65 Q-0.85 -11.7 -4.7 -11.65" fill="#d18b58" fill-rule="evenodd" stroke="none"/>
  </g>
</svg>
