<?xml version="1.0" encoding="UTF-8" standalone="no"?>
<svg xmlns:ffdec="https://www.free-decompiler.com/flash" xmlns:xlink="http://www.w3.org/1999/xlink" ffdec:objectType="shape" height="25.9px" width="35.65px" xmlns="http://www.w3.org/2000/svg">
  <g transform="matrix(1.0, 0.0, 0.0, 1.0, 17.8, 12.8)">
    <path d="M16.45 -2.8 L16.35 -2.8 16.45 -2.8 M8.6 3.55 L8.6 4.9 8.25 5.65 8.25 5.3 8.35 4.25 8.55 4.2 8.6 3.55" fill="#463624" fill-rule="evenodd" stroke="none"/>
    <path d="M6.0 10.65 Q1.45 11.75 -5.0 11.75 L-11.55 11.5 Q-11.45 7.75 -11.6 5.85 -11.95 2.55 -14.4 0.75 L-11.55 -1.85 -10.9 -2.4 Q-7.45 1.5 -5.6 1.5 -4.75 1.5 1.8 -1.25 8.4 -4.0 12.05 -4.0 14.3 -4.0 14.65 -3.4 15.05 -2.8 16.35 -2.8 L16.45 -2.8 16.45 -2.75 16.6 -1.25 Q17.25 2.3 15.0 5.4 14.8 4.05 13.0 2.5 10.3 0.15 5.75 0.15 1.0 0.15 -1.5 3.6 -3.1 5.85 -3.1 7.65 -3.1 10.6 0.75 10.6 3.25 10.6 6.0 8.1 6.65 8.65 7.4 8.85 7.4 9.2 6.65 9.55 5.9 9.95 5.9 10.4 L5.95 10.65 6.0 10.65" fill="#57352d" fill-rule="evenodd" stroke="none"/>
    <path d="M8.05 5.65 L7.7 6.9 7.35 6.9 7.3 6.85 8.05 5.65 M11.7 8.35 L11.75 7.75 Q11.25 3.15 8.1 3.15 L6.4 5.35 Q4.7 7.5 1.75 7.5 -0.55 7.5 -1.65 6.15 -0.1 1.4 5.75 1.4 11.0 1.4 12.75 3.95 L13.6 5.7 14.15 6.4 Q13.1 7.5 11.7 8.35" fill="#b45f50" fill-rule="evenodd" stroke="none"/>
    <path d="M-10.05 -3.05 L-6.3 -5.65 Q1.55 -10.75 7.0 -10.75 12.3 -10.75 14.9 -6.45 L15.95 -4.35 15.45 -4.65 Q14.85 -5.3 12.25 -5.3 L10.75 -5.25 Q-4.25 0.35 -5.75 0.35 -6.25 0.35 -8.15 -1.45 L-10.05 -3.05" fill="#e5e5e5" fill-rule="evenodd" stroke="none"/>
    <path d="M8.05 5.65 L8.35 4.2 8.0 3.85 7.6 4.0 Q7.0 5.7 5.45 7.15 3.2 9.25 0.15 9.25 -2.0 9.25 -2.0 7.4 L-1.65 6.15 Q-0.55 7.5 1.75 7.5 4.7 7.5 6.4 5.35 L8.1 3.15 Q11.25 3.15 11.75 7.75 L11.7 8.35 10.1 9.2 10.0 9.0 9.9 8.3 9.9 8.2 9.75 7.9 9.65 7.75 8.0 6.95 7.7 6.9 8.05 5.65 M8.6 3.55 L8.55 4.2 8.35 4.25 8.25 5.3 8.25 5.65 8.6 4.9 8.6 3.55" fill="#a05345" fill-rule="evenodd" stroke="none"/>
    <path d="M-10.05 -3.05 L-8.15 -1.45 Q-6.25 0.35 -5.75 0.35 -4.25 0.35 10.75 -5.25 L12.25 -5.3 Q14.85 -5.3 15.45 -4.65 L15.95 -4.35 14.9 -6.45 Q12.3 -10.75 7.0 -10.75 1.55 -10.75 -6.3 -5.65 L-10.05 -3.05 -10.55 -2.7 -10.05 -3.05 M16.35 -2.8 Q15.05 -2.8 14.65 -3.4 14.3 -4.0 12.05 -4.0 8.4 -4.0 1.8 -1.25 -4.75 1.5 -5.6 1.5 -7.45 1.5 -10.9 -2.4 L-11.55 -1.85 -14.4 0.75 Q-11.95 2.55 -11.6 5.85 -11.45 7.75 -11.55 11.5 L-5.0 11.75 Q1.45 11.75 6.0 10.65 L6.05 10.65 6.85 10.4 5.95 10.65 5.9 10.4 Q5.9 9.95 6.65 9.55 7.4 9.2 7.4 8.85 6.65 8.65 6.0 8.1 3.25 10.6 0.75 10.6 -3.1 10.6 -3.1 7.65 -3.1 5.85 -1.5 3.6 1.0 0.15 5.75 0.15 10.3 0.15 13.0 2.5 14.8 4.05 15.0 5.4 17.25 2.3 16.6 -1.25 L16.45 -2.75 16.35 -3.25 16.45 -2.8 16.35 -2.8 M17.85 -1.4 Q17.85 3.75 15.75 6.5 10.65 13.1 -5.1 13.1 L-12.95 13.05 -13.1 12.8 Q-12.9 12.4 -13.05 12.1 L-12.9 10.75 -12.8 8.25 Q-12.8 1.75 -15.7 1.75 -16.25 1.75 -17.25 2.6 -17.8 2.4 -17.8 1.8 -1.1 -12.8 8.6 -12.8 13.7 -12.8 16.3 -7.25 17.6 -4.45 17.85 -1.4 M-1.65 6.15 L-2.0 7.4 Q-2.0 9.25 0.15 9.25 3.2 9.25 5.45 7.15 7.0 5.7 7.6 4.0 L8.0 3.85 8.35 4.2 8.05 5.65 7.3 6.85 7.2 6.95 7.35 6.9 7.7 6.9 8.0 6.95 9.65 7.75 9.75 7.9 9.9 8.2 9.9 8.3 10.0 9.0 9.9 9.3 10.1 9.2 11.7 8.35 Q13.1 7.5 14.15 6.4 L13.6 5.7 12.75 3.95 Q11.0 1.4 5.75 1.4 -0.1 1.4 -1.65 6.15" fill="#682424" fill-rule="evenodd" stroke="none"/>
  </g>
</svg>
