<?xml version="1.0" encoding="UTF-8" standalone="no"?>
<svg xmlns:ffdec="https://www.free-decompiler.com/flash" xmlns:xlink="http://www.w3.org/1999/xlink" ffdec:objectType="shape" height="21.1px" width="32.35px" xmlns="http://www.w3.org/2000/svg">
  <g transform="matrix(1.0, 0.0, 0.0, 1.0, 19.4, 9.35)">
    <path d="M12.6 -9.15 L12.45 -9.25 Q13.35 -9.15 12.65 -9.15 L12.6 -9.15" fill="#463624" fill-rule="evenodd" stroke="none"/>
    <path d="M11.6 -7.05 L11.35 -6.95 11.4 -7.1 11.45 -7.25 11.6 -7.05" fill="#463623" fill-rule="evenodd" stroke="none"/>
    <path d="M4.55 3.85 Q5.1 3.85 7.1 4.55 3.85 8.5 -2.85 9.45 L-1.9 6.75 Q-0.2 3.85 4.55 3.85" fill="#b45f50" fill-rule="evenodd" stroke="none"/>
    <path d="M10.45 -5.35 L10.25 -4.15 Q9.7 -0.45 8.8 1.7 L7.5 4.0 7.9 3.45 Q6.4 2.75 4.5 2.75 -2.2 2.75 -3.95 9.6 L-7.45 9.75 -13.5 9.35 Q-13.25 8.65 -13.55 8.0 L-14.75 5.5 Q-15.75 3.1 -16.5 1.95 -13.45 3.05 -7.55 2.9 -0.1 2.65 5.35 -1.05 9.0 -3.55 10.45 -5.35" fill="#57352d" fill-rule="evenodd" stroke="none"/>
    <path d="M12.45 -9.25 L12.6 -9.15 Q12.0 -9.05 11.45 -7.25 L11.4 -7.1 11.35 -6.95 11.6 -7.05 11.75 -6.25 Q11.75 -1.25 9.25 3.25 4.55 11.75 -7.1 11.75 -11.25 11.75 -12.8 11.0 -14.9 10.0 -15.75 6.75 -16.25 4.9 -18.25 1.4 L-18.25 1.0 -18.1 0.95 -19.4 -1.3 Q-9.7 2.0 0.05 -1.3 6.8 -3.75 11.65 -9.15 L12.45 -9.25 M10.45 -5.35 Q9.0 -3.55 5.35 -1.05 -0.1 2.65 -7.55 2.9 -13.45 3.05 -16.5 1.95 -15.75 3.1 -14.75 5.5 L-13.55 8.0 Q-13.25 8.65 -13.5 9.35 L-7.45 9.75 -3.95 9.6 Q-2.2 2.75 4.5 2.75 6.4 2.75 7.9 3.45 L7.5 4.0 8.8 1.7 Q9.7 -0.45 10.25 -4.15 L10.45 -5.35 M4.55 3.85 Q-0.2 3.85 -1.9 6.75 L-2.85 9.45 Q3.85 8.5 7.1 4.55 5.1 3.85 4.55 3.85" fill="#682424" fill-rule="evenodd" stroke="none"/>
  </g>
</svg>
