<?xml version="1.0" encoding="UTF-8" standalone="no"?>
<svg xmlns:ffdec="https://www.free-decompiler.com/flash" xmlns:xlink="http://www.w3.org/1999/xlink" ffdec:objectType="shape" height="7.85px" width="23.45px" xmlns="http://www.w3.org/2000/svg">
  <g transform="matrix(1.0, 0.0, 0.0, 1.0, 15.05, -0.15)">
    <path d="M6.3 1.85 L5.25 1.65 Q2.7 1.65 0.75 2.9 -1.0 4.05 -1.1 5.2 L-4.6 4.9 -9.75 5.6 -9.75 4.65 Q-9.75 3.85 -10.3 2.75 -7.45 1.4 3.05 1.4 L5.6 1.65 5.9 1.6 6.35 1.85 6.3 1.85" fill="#57352d" fill-rule="evenodd" stroke="none"/>
    <path d="M7.5 4.55 Q7.5 6.15 6.9 6.15 L1.0 5.55 0.25 5.4 0.3 5.35 Q1.1 5.35 1.15 5.0 1.2 4.3 2.25 3.6 2.85 3.15 4.8 3.2 6.35 3.2 7.05 2.6 7.5 3.35 7.5 4.55" fill="#b45f50" fill-rule="evenodd" stroke="none"/>
    <path d="M6.35 1.85 L5.9 1.6 5.6 1.65 3.05 1.4 Q-7.45 1.4 -10.3 2.75 -9.75 3.85 -9.75 4.65 L-9.75 5.6 -4.6 4.9 -1.1 5.2 Q-1.0 4.05 0.75 2.9 2.7 1.65 5.25 1.65 L6.3 1.85 6.65 2.1 6.35 1.85 M7.5 4.55 Q7.5 3.35 7.05 2.6 6.35 3.2 4.8 3.2 2.85 3.15 2.25 3.6 1.2 4.3 1.15 5.0 1.1 5.35 0.3 5.35 L0.25 5.4 1.0 5.55 6.9 6.15 Q7.5 6.15 7.5 4.55 M8.4 4.5 Q8.4 7.25 6.35 7.25 L1.2 6.65 -5.1 6.0 Q-8.25 6.0 -10.85 7.0 -13.45 8.0 -14.1 8.0 L-14.55 7.9 -14.75 7.4 Q-14.75 6.75 -10.95 5.85 L-10.55 5.75 Q-11.5 4.85 -11.5 2.7 L-14.9 4.0 Q-15.05 4.4 -15.05 3.75 -15.05 3.0 -10.85 2.0 L-11.3 2.1 Q-10.8 1.55 -9.05 1.3 L-4.65 0.85 -1.6 0.55 1.25 0.25 3.0 0.15 5.75 0.45 Q8.5 1.15 8.4 4.5" fill="#682424" fill-rule="evenodd" stroke="none"/>
  </g>
</svg>
