<?xml version="1.0" encoding="UTF-8" standalone="no"?>
<svg xmlns:ffdec="https://www.free-decompiler.com/flash" xmlns:xlink="http://www.w3.org/1999/xlink" ffdec:objectType="shape" height="92.75px" width="85.5px" xmlns="http://www.w3.org/2000/svg">
  <g transform="matrix(1.0, 0.0, 0.0, 1.0, -25.75, 11.75)">
    <path d="M61.6 -9.35 Q67.35 -7.3 74.3 5.15 88.1 29.9 106.65 36.1 L103.45 37.6 103.5 37.6 Q98.15 39.4 92.75 38.05 L90.85 37.6 91.6 39.4 Q95.85 50.1 105.15 56.6 L101.9 57.6 Q94.1 59.45 86.3 57.3 L84.85 56.9 86.65 70.85 85.25 71.0 Q76.8 71.35 69.35 67.25 L68.7 66.9 68.2 67.35 Q65.75 69.5 64.25 72.1 63.25 73.75 62.55 75.65 59.8 69.85 58.4 63.65 L57.85 61.45 56.6 63.3 Q53.5 67.85 48.9 70.75 43.8 73.8 33.05 74.55 41.2 69.65 42.9 63.95 47.45 49.0 41.0 34.85 42.0 13.9 51.8 -3.2 56.25 -11.05 61.6 -9.35" fill="#57210f" fill-rule="evenodd" stroke="none"/>
    <path d="M50.05 -4.2 Q55.45 -13.75 62.25 -11.25 68.6 -9.15 76.05 4.2 90.15 29.45 109.3 34.8 L111.25 35.4 109.6 36.55 Q106.95 38.45 104.15 39.5 99.2 41.2 94.2 40.4 98.6 50.15 107.8 55.9 L109.3 56.9 107.7 57.65 Q105.2 58.85 102.35 59.55 94.75 61.35 87.2 59.6 L88.9 72.65 87.85 72.75 85.5 73.0 85.4 73.0 Q76.75 73.4 69.0 69.35 67.15 71.05 65.95 73.1 64.5 75.6 63.75 78.5 L63.05 81.0 61.9 78.75 Q58.7 72.65 56.95 66.15 54.0 69.9 49.95 72.45 43.6 76.4 28.8 76.75 L25.95 76.85 25.75 76.15 28.3 74.85 Q38.95 69.6 41.0 63.35 45.4 49.0 39.1 35.45 L39.0 35.2 39.0 34.95 Q39.95 13.4 50.05 -4.2 M61.6 -9.35 Q56.25 -11.05 51.8 -3.2 42.0 13.9 41.0 34.85 47.45 49.0 42.9 63.95 41.2 69.65 33.05 74.55 43.8 73.8 48.9 70.75 53.5 67.85 56.6 63.3 L57.85 61.45 58.4 63.65 Q59.8 69.85 62.55 75.65 63.25 73.75 64.25 72.1 65.75 69.5 68.2 67.35 L68.7 66.9 69.35 67.25 Q76.8 71.35 85.25 71.0 L86.65 70.85 84.85 56.9 86.3 57.3 Q94.1 59.45 101.9 57.6 L105.15 56.6 Q95.85 50.1 91.6 39.4 L90.85 37.6 92.75 38.05 Q98.15 39.4 103.5 37.6 L103.45 37.6 106.65 36.1 Q88.1 29.9 74.3 5.15 67.35 -7.3 61.6 -9.35" fill="#3e2615" fill-rule="evenodd" stroke="none"/>
  </g>
</svg>
