<?xml version="1.0" encoding="UTF-8" standalone="no"?>
<svg xmlns:ffdec="https://www.free-decompiler.com/flash" xmlns:xlink="http://www.w3.org/1999/xlink" ffdec:objectType="shape" height="162.0px" width="85.4px" xmlns="http://www.w3.org/2000/svg">
  <g transform="matrix(1.0, 0.0, 0.0, 1.0, 39.85, 123.45)">
    <path d="M3.5 -110.4 L2.05 -109.6 Q-3.5 -106.2 -7.0 -98.1 L-7.15 -97.7 -11.1 -98.25 -10.9 -98.5 Q-5.15 -106.7 1.65 -110.25 L2.55 -110.7 3.5 -110.4 M-20.8 -74.8 L-21.1 -75.2 -21.95 -76.25 -23.75 -78.75 -24.35 -79.7 -26.35 -83.35 -26.4 -83.45 Q-28.75 -88.7 -28.1 -93.45 L-27.45 -93.15 -24.3 -92.1 Q-25.05 -83.3 -18.9 -74.5 L-19.3 -74.55 -20.8 -74.8 M-23.35 -91.85 L-21.95 -91.5 -16.3 -90.6 Q-18.15 -86.6 -16.55 -80.2 L-16.55 -82.8 Q-17.15 -86.55 -15.35 -90.25 L-14.6 -90.35 -14.65 -90.4 -14.55 -90.35 -14.6 -90.35 Q-14.55 -86.8 -12.55 -78.9 -13.3 -85.7 -12.2 -90.15 L-10.1 -89.95 Q-8.2 -87.6 -7.4 -81.5 L-8.3 -89.85 -3.45 -89.65 11.95 -90.15 Q12.25 -84.2 10.2 -80.0 0.65 -73.95 -12.85 -74.05 L-16.8 -74.25 Q-25.2 -82.75 -23.35 -91.85 M-25.2 -55.35 Q-22.55 -57.95 -19.55 -60.0 L-22.05 -42.75 Q-19.3 -49.7 -17.05 -53.15 -16.0 -54.8 -15.0 -55.65 L-13.85 -56.45 Q-11.55 -52.5 -12.55 -42.5 -7.85 -60.4 -1.2 -59.95 5.45 -59.5 5.55 -50.0 11.45 -69.45 16.85 -57.65 L21.55 -46.55 23.75 -40.55 24.75 -37.6 25.85 -34.1 25.95 -33.8 Q29.5 -22.45 31.95 -11.0 L31.85 -10.95 27.95 -10.05 18.65 -8.25 18.65 -9.1 18.4 -10.9 19.25 -10.0 Q20.35 -9.0 22.0 -9.0 24.0 -9.05 25.05 -10.7 L25.2 -11.0 25.25 -11.1 25.25 -11.2 25.0 -12.75 Q24.5 -14.1 22.8 -14.7 L22.75 -14.7 21.15 -14.9 19.35 -14.65 20.25 -15.5 Q21.25 -16.6 21.25 -18.25 21.2 -20.45 19.25 -21.45 L19.15 -21.5 19.05 -21.45 Q16.45 -21.6 15.55 -19.0 15.3 -18.25 15.35 -17.4 L15.6 -15.6 14.75 -16.45 14.75 -16.5 Q13.65 -17.5 12.0 -17.45 9.8 -17.45 8.8 -15.5 L8.75 -15.4 8.8 -15.25 8.8 -14.6 Q8.95 -13.35 9.85 -12.55 10.4 -12.1 11.25 -11.8 L11.25 -11.75 12.85 -11.6 14.65 -11.85 13.8 -11.0 13.75 -10.95 Q12.75 -9.9 12.8 -8.25 L12.9 -7.4 1.8 -6.35 1.5 -8.2 0.95 -12.65 0.75 -14.65 Q-0.2 -24.2 -0.35 -35.5 L-0.95 -14.6 -0.95 -12.6 -1.0 -8.9 -1.0 -6.7 -1.0 -6.25 Q-14.3 -5.75 -27.65 -7.5 L-29.0 -7.65 -29.1 -9.15 Q-29.45 -14.65 -28.8 -20.4 L-27.9 -26.3 Q-26.8 -32.0 -24.85 -37.9 -27.65 -30.7 -29.25 -23.95 L-30.7 -16.85 Q-30.95 -17.95 -31.75 -18.5 -32.35 -18.95 -33.3 -19.0 L-33.35 -19.0 -34.6 -18.85 -35.95 -18.25 -35.45 -19.1 Q-34.9 -20.15 -35.25 -21.4 -35.5 -22.35 -36.1 -22.85 L-35.15 -30.2 Q-34.3 -36.6 -29.75 -45.9 L-25.2 -55.35 M-37.55 -9.95 L-37.5 -9.95 -37.4 -9.95 -37.3 -9.95 Q-35.35 -10.4 -35.15 -12.55 L-35.15 -12.6 -35.35 -13.85 -35.9 -15.2 -35.05 -14.7 Q-34.15 -14.2 -33.0 -14.45 L-32.75 -14.5 Q-31.3 -14.9 -30.8 -16.3 L-31.2 -13.3 -31.6 -8.05 -32.05 -8.1 -34.05 -8.45 -37.65 -9.1 -37.55 -9.95 M-20.5 -106.85 L-20.4 -106.95 -20.45 -106.8 -20.5 -106.85 M-7.0 -16.95 Q-8.55 -18.55 -10.7 -17.5 L-10.7 -17.45 Q-11.35 -17.15 -11.85 -16.55 L-12.75 -15.25 -12.75 -16.35 Q-12.85 -17.7 -13.9 -18.65 -15.3 -20.0 -17.15 -19.35 L-17.25 -19.3 -17.3 -19.25 Q-18.9 -17.7 -17.85 -15.5 L-16.95 -14.4 -15.65 -13.45 -16.7 -13.45 -16.75 -13.45 Q-17.95 -13.4 -18.85 -12.5 L-19.05 -12.3 Q-19.95 -11.4 -19.9 -10.2 L-19.7 -9.05 -19.7 -9.0 -19.6 -8.9 Q-18.05 -7.3 -15.9 -8.35 L-15.85 -8.35 -14.75 -9.25 -13.85 -10.6 -13.85 -9.5 Q-13.75 -8.2 -12.65 -7.2 -11.3 -5.9 -9.45 -6.5 L-9.35 -6.55 -9.3 -6.6 Q-7.7 -8.2 -8.75 -10.3 L-8.75 -10.35 -9.65 -11.45 -10.3 -11.95 -10.95 -12.4 -9.85 -12.4 Q-8.55 -12.45 -7.55 -13.55 L-7.05 -14.25 Q-6.45 -15.4 -6.9 -16.75 L-6.9 -16.85 -7.0 -16.95" fill="#ffffff" fill-rule="evenodd" stroke="none"/>
    <path d="M3.5 -110.4 L4.75 -110.95 6.6 -111.6 Q13.55 -113.7 18.35 -109.6 14.2 -114.5 6.3 -112.15 L4.95 -111.7 Q3.7 -111.3 2.55 -110.7 L1.65 -110.25 Q-5.15 -106.7 -10.9 -98.5 L-11.1 -98.25 -12.1 -96.75 -7.75 -96.25 -7.15 -97.7 -7.0 -98.1 Q-3.5 -106.2 2.05 -109.6 L3.5 -110.4 M1.0 -111.1 L1.15 -111.15 Q2.8 -112.05 4.6 -112.65 L5.75 -113.05 Q12.65 -115.2 16.95 -112.2 18.5 -111.15 19.75 -109.3 L19.8 -109.3 Q23.05 -104.55 23.45 -98.7 L23.35 -95.0 23.35 -94.2 24.0 -80.05 24.1 -79.75 24.1 -79.65 24.0 -78.6 24.0 -72.4 Q25.65 -61.9 29.05 -51.8 31.6 -44.4 34.55 -37.3 39.1 -26.35 44.8 -15.35 45.9 -13.15 45.4 -11.0 44.95 -9.0 43.15 -8.0 L41.5 -7.15 Q34.7 -3.65 27.15 -2.05 23.2 -1.2 19.05 -0.9 L3.0 0.05 -13.95 -0.65 Q-21.9 -1.45 -29.85 -2.95 L-31.3 -3.25 -34.35 -3.7 Q-37.15 -4.45 -39.45 -6.2 L-39.75 -6.6 -39.85 -7.05 Q-37.1 -39.15 -21.35 -67.45 L-21.3 -68.4 -21.3 -71.95 Q-30.05 -84.55 -30.25 -95.75 L-30.25 -95.9 -30.25 -96.05 -30.2 -96.45 -30.0 -100.75 -27.7 -100.75 Q-24.95 -104.6 -21.15 -107.65 L-20.25 -108.35 -12.6 -114.35 -12.6 -114.3 -12.55 -114.35 -11.95 -113.6 -11.95 -113.55 -12.15 -113.4 -12.3 -113.25 -18.1 -107.6 Q-23.3 -102.25 -24.2 -99.3 L-21.65 -98.55 -13.25 -96.9 -12.25 -98.4 -12.05 -98.65 Q-6.05 -107.35 1.0 -111.1 M7.05 -110.7 L5.1 -110.0 2.45 -108.8 1.8 -108.55 Q-1.4 -107.1 -3.95 -101.7 L-5.75 -98.0 -6.65 -96.15 -3.6 -95.9 0.5 -95.65 14.55 -96.05 Q18.8 -96.55 20.6 -97.3 L21.45 -97.95 22.05 -98.45 22.2 -98.5 22.25 -98.5 22.2 -98.85 Q21.65 -105.25 17.95 -108.6 13.5 -112.55 7.05 -110.7 M11.75 -92.15 L14.7 -92.55 14.7 -92.5 Q19.55 -93.3 21.05 -94.25 L21.35 -94.5 21.35 -95.45 Q19.35 -94.55 14.75 -94.05 L11.55 -93.75 Q4.85 -93.35 -3.75 -93.9 L-12.5 -94.75 -13.0 -94.85 -13.6 -94.9 -20.9 -96.3 -21.25 -96.4 -22.15 -96.6 -25.3 -97.55 -26.45 -97.95 Q-27.4 -98.35 -28.1 -98.7 L-28.2 -96.2 -28.3 -95.35 Q-28.4 -95.05 -27.4 -94.55 L-27.15 -94.4 -26.75 -94.25 -26.3 -94.05 -25.85 -93.9 -24.25 -93.35 -24.15 -93.3 -24.05 -93.3 -23.95 -93.25 -23.85 -93.25 -23.65 -93.15 Q-18.85 -91.7 -11.8 -91.85 L-5.3 -91.25 11.75 -92.15 M-20.8 -74.8 L-19.45 -72.85 -17.9 -72.05 -17.6 -71.95 -17.45 -71.9 -14.3 -71.35 0.85 -72.1 Q10.2 -73.35 16.55 -75.7 L16.75 -75.8 17.6 -76.15 18.4 -76.5 18.65 -76.6 18.9 -76.75 19.4 -76.95 19.45 -77.0 19.45 -77.05 20.3 -77.65 20.45 -77.85 21.35 -79.8 21.65 -81.65 21.65 -81.85 21.65 -82.0 21.65 -82.1 Q21.7 -85.45 20.85 -88.05 L20.45 -89.0 20.4 -89.2 19.7 -89.95 Q19.0 -90.5 17.95 -90.65 L15.2 -90.6 15.1 -90.6 15.0 -90.55 14.6 -90.5 11.95 -90.15 -3.45 -89.65 -8.3 -89.85 -10.1 -89.95 -12.2 -90.15 -14.5 -90.35 -14.65 -90.4 -16.3 -90.6 -21.95 -91.5 -23.35 -91.85 -24.3 -92.1 -27.45 -93.15 -28.1 -93.45 Q-28.75 -88.7 -26.4 -83.45 L-26.35 -83.35 -24.3 -79.55 -23.75 -78.75 -21.95 -76.25 -21.1 -75.2 -20.8 -74.8 M4.65 -66.85 Q9.05 -67.6 12.45 -69.35 L16.65 -69.85 17.0 -69.95 18.65 -70.65 Q19.75 -71.15 20.55 -71.6 L22.0 -72.65 22.0 -76.2 20.35 -75.25 18.45 -74.35 17.3 -73.85 17.25 -73.85 Q11.65 -71.8 3.75 -70.5 L1.1 -70.1 -14.45 -69.35 -14.5 -69.35 -16.85 -69.7 -18.0 -70.0 -18.0 -69.95 -19.3 -70.4 -19.3 -68.3 -19.35 -67.95 -19.35 -67.75 -19.3 -67.6 -19.25 -67.4 -18.05 -66.55 -16.55 -66.2 -15.9 -66.1 -15.55 -66.1 -14.45 -66.1 -14.3 -66.1 -13.8 -65.6 Q-10.05 -64.6 -7.0 -66.75 L-2.4 -66.65 4.65 -66.85 M37.5 -22.75 L37.05 -23.75 36.9 -24.2 Q34.95 -28.85 32.95 -34.6 L27.15 -51.15 22.8 -63.85 Q21.95 -65.9 21.05 -67.0 20.0 -68.2 18.9 -68.3 L17.7 -68.1 Q11.15 -65.7 1.55 -64.35 L-13.95 -63.6 -14.0 -63.6 -15.5 -63.75 -17.6 -64.2 Q-19.25 -64.7 -20.15 -65.45 L-20.55 -64.75 -24.65 -56.55 -25.2 -55.35 -29.75 -45.9 Q-34.3 -36.6 -35.15 -30.2 L-36.1 -22.85 -36.2 -21.7 -36.25 -21.0 -36.4 -19.0 -36.45 -18.4 -36.45 -18.2 -36.5 -18.0 -36.55 -17.65 -36.6 -17.3 -36.65 -16.95 -36.7 -16.6 -36.75 -16.25 -36.8 -15.9 -36.9 -15.25 -37.1 -13.5 -37.15 -13.1 -37.3 -11.85 -37.35 -11.45 -37.4 -11.05 -37.4 -10.95 -37.45 -10.8 -37.45 -10.65 -37.5 -10.2 -37.55 -9.95 -37.65 -9.1 -37.8 -7.45 Q-36.2 -6.35 -34.25 -5.8 L-31.65 -5.3 -31.15 -5.25 -31.05 -5.2 -30.1 -5.05 -29.5 -4.9 -28.7 -4.75 -13.75 -2.65 3.0 -1.95 18.8 -2.9 18.85 -2.9 26.55 -3.95 Q32.8 -5.25 38.55 -7.9 L39.4 -8.3 41.3 -9.25 42.2 -9.75 Q43.15 -10.3 43.45 -11.45 L43.45 -11.5 Q42.8 -12.15 41.9 -13.65 L41.35 -14.55 39.15 -18.95 39.05 -19.25 38.4 -20.65 37.5 -22.75 M-20.45 -106.8 L-20.4 -106.95 -20.5 -106.85 Q-24.15 -103.95 -26.75 -100.3 L-25.15 -99.6 -24.85 -100.45 Q-23.75 -103.05 -20.7 -106.2 L-20.45 -106.8" fill="#464646" fill-rule="evenodd" stroke="none"/>
    <path d="M11.75 -92.15 L-5.3 -91.25 -11.8 -91.85 Q-18.85 -91.7 -23.65 -93.15 L-23.85 -93.25 -23.95 -93.25 -24.05 -93.3 -24.15 -93.3 -24.25 -93.35 -25.85 -93.9 -26.3 -94.05 -26.75 -94.25 -27.15 -94.4 -27.4 -94.55 Q-28.4 -95.05 -28.3 -95.35 L-28.2 -96.2 -28.1 -98.7 Q-27.4 -98.35 -26.45 -97.95 L-25.3 -97.55 -22.15 -96.6 -21.25 -96.4 -20.9 -96.3 -13.6 -94.9 -13.05 -94.85 -12.5 -94.75 -3.75 -93.9 Q4.85 -93.35 11.55 -93.75 L11.75 -92.15 M4.65 -66.85 L-2.4 -66.65 -7.0 -66.75 Q-10.05 -64.6 -13.8 -65.6 L-14.3 -66.1 -14.45 -66.1 -15.55 -66.1 -15.9 -66.1 -16.55 -66.2 -18.05 -66.55 -19.25 -67.4 -19.3 -67.6 -19.35 -67.75 -19.35 -67.95 -19.3 -68.3 -19.3 -70.4 -18.0 -69.95 -18.0 -70.0 -16.85 -69.7 -14.5 -69.35 -14.45 -69.35 1.1 -70.1 3.75 -70.5 4.65 -66.85 M-36.2 -21.7 L-36.0 -21.2 Q-35.75 -20.25 -36.15 -19.45 L-36.1 -19.5 -36.4 -19.0 -36.25 -21.0 -36.2 -21.7 M-35.75 -17.5 L-34.35 -18.1 -33.4 -18.2 Q-32.55 -18.15 -32.05 -17.65 L-31.5 -16.75 Q-31.75 -15.7 -32.75 -15.3 L-32.95 -15.25 -34.7 -15.4 -34.65 -15.4 -35.75 -16.05 -35.6 -16.8 Q-35.6 -17.15 -35.75 -17.5 M-36.85 -15.25 L-36.1 -13.6 Q-35.95 -13.15 -35.95 -12.65 -36.1 -11.15 -37.4 -10.75 L-37.45 -10.8 -37.4 -10.95 -37.4 -11.05 -37.35 -11.45 -37.3 -11.85 -37.15 -13.1 -37.1 -13.5 -36.9 -15.25 -36.85 -15.25 M41.35 -14.55 Q40.95 -14.2 40.4 -14.05 L40.35 -14.0 Q38.85 -14.35 38.45 -15.8 38.1 -17.05 38.6 -18.0 L39.0 -18.65 39.15 -18.95 41.35 -14.55 M38.4 -20.65 L38.2 -20.55 Q37.3 -20.1 36.4 -19.8 L36.35 -19.75 35.15 -19.6 Q33.25 -19.8 32.8 -21.4 33.1 -22.9 34.6 -23.3 L34.65 -23.35 36.8 -23.15 36.75 -23.15 37.1 -22.95 37.5 -22.75 38.4 -20.65 M16.75 -15.1 L16.35 -17.45 16.5 -18.65 16.5 -18.7 Q17.15 -20.45 18.85 -20.5 20.2 -19.8 20.25 -18.25 20.25 -17.0 19.55 -16.2 L19.5 -16.15 18.25 -15.0 17.95 -15.1 Q17.3 -15.3 16.75 -15.1 M19.35 -13.6 L19.6 -13.65 21.25 -13.9 22.45 -13.75 23.65 -13.0 Q24.25 -12.4 24.25 -11.35 L24.0 -10.95 Q23.25 -10.05 22.0 -10.0 20.75 -10.0 19.95 -10.7 L19.95 -10.75 18.95 -11.75 18.85 -11.9 19.3 -12.7 19.35 -13.6 M17.3 -11.3 L17.65 -9.0 17.6 -8.05 17.55 -7.8 17.5 -7.8 Q16.85 -6.05 15.15 -6.0 14.15 -6.55 13.9 -7.5 L13.8 -8.25 Q13.75 -9.5 14.5 -10.3 L16.15 -11.8 Q16.45 -11.5 16.9 -11.35 L17.3 -11.3 M15.45 -13.1 L15.15 -13.0 12.75 -12.6 11.6 -12.7 11.55 -12.75 Q10.05 -13.3 9.8 -14.55 L9.75 -15.1 Q10.45 -16.45 12.0 -16.45 13.25 -16.5 14.05 -15.75 L14.1 -15.75 15.55 -14.15 15.65 -14.0 15.55 -13.75 15.45 -13.1 M-12.1 -14.65 L-11.15 -16.05 -10.35 -16.7 Q-8.85 -17.45 -7.7 -16.4 -7.3 -15.15 -8.15 -14.15 L-8.2 -14.15 Q-8.95 -13.35 -9.9 -13.25 L-11.35 -13.3 -11.45 -13.8 -11.55 -14.05 -12.1 -14.65 M-11.85 -11.9 L-11.6 -11.75 -10.2 -10.75 -9.55 -9.95 Q-8.8 -8.45 -9.8 -7.35 -11.1 -6.9 -12.05 -7.8 -12.9 -8.6 -12.95 -9.55 L-12.95 -9.5 -12.9 -11.45 -12.2 -11.7 -12.15 -11.7 -11.85 -11.9 M-14.15 -11.85 L-14.25 -11.6 -14.35 -11.35 -15.45 -9.85 -16.25 -9.15 -16.3 -9.15 Q-17.8 -8.45 -18.9 -9.45 L-19.0 -10.45 Q-18.95 -11.15 -18.4 -11.7 -17.65 -12.5 -16.65 -12.55 L-16.7 -12.6 -14.65 -12.55 -14.5 -12.3 -14.15 -11.85 M-14.65 -13.85 L-16.4 -15.1 -17.05 -15.9 Q-17.8 -17.4 -16.8 -18.5 -15.5 -18.95 -14.5 -18.0 -13.75 -17.3 -13.65 -16.3 L-13.65 -14.8 -13.95 -14.65 -14.65 -13.85" fill="#9c7cb6" fill-rule="evenodd" stroke="none"/>
    <path d="M2.55 -110.7 Q3.7 -111.3 4.95 -111.7 L6.3 -112.15 Q14.2 -114.5 18.35 -109.6 13.55 -113.7 6.6 -111.6 L4.75 -110.95 3.5 -110.4 2.55 -110.7 M-7.15 -97.7 L-7.75 -96.25 -12.1 -96.75 -11.1 -98.25 -7.15 -97.7 M11.95 -90.15 L14.6 -90.5 15.0 -90.55 15.1 -90.6 15.2 -90.6 17.95 -90.65 Q19.0 -90.5 19.7 -89.95 L20.4 -89.2 20.45 -89.0 20.85 -88.05 Q21.7 -85.45 21.65 -82.1 L21.65 -82.0 21.65 -81.85 21.65 -81.65 21.35 -79.8 20.45 -77.85 20.3 -77.65 19.45 -77.05 19.45 -77.0 19.4 -76.95 18.9 -76.75 18.65 -76.6 18.4 -76.5 17.6 -76.15 16.75 -75.8 16.55 -75.7 Q10.2 -73.35 0.85 -72.1 L-14.3 -71.35 -17.45 -71.9 -17.6 -71.95 -17.9 -72.05 -19.45 -72.85 -20.8 -74.8 -19.3 -74.55 -18.9 -74.5 Q-25.05 -83.3 -24.3 -92.1 L-23.35 -91.85 Q-25.2 -82.75 -16.8 -74.25 L-12.85 -74.05 Q0.65 -73.95 10.2 -80.0 12.25 -84.2 11.95 -90.15 M-16.3 -90.6 L-14.65 -90.4 -14.6 -90.35 -15.35 -90.25 Q-17.15 -86.55 -16.55 -82.8 L-16.55 -80.2 Q-18.15 -86.6 -16.3 -90.6 M-14.5 -90.35 L-12.2 -90.15 Q-13.3 -85.7 -12.55 -78.9 -14.55 -86.8 -14.6 -90.35 L-14.55 -90.35 -14.5 -90.35 M-10.1 -89.95 L-8.3 -89.85 -7.4 -81.5 Q-8.2 -87.6 -10.1 -89.95 M-25.2 -55.35 L-24.65 -56.55 -20.55 -64.75 -20.15 -65.45 Q-19.25 -64.7 -17.6 -64.2 L-15.5 -63.75 -14.0 -63.6 -13.95 -63.6 1.55 -64.35 Q11.15 -65.7 17.7 -68.1 L18.9 -68.3 Q20.0 -68.2 21.05 -67.0 21.95 -65.9 22.8 -63.85 L27.15 -51.15 32.95 -34.6 Q34.95 -28.85 36.9 -24.2 L37.05 -23.75 37.5 -22.75 37.1 -22.95 36.75 -23.15 36.8 -23.15 34.65 -23.35 34.6 -23.3 Q33.1 -22.9 32.8 -21.4 33.25 -19.8 35.15 -19.6 L36.35 -19.75 36.4 -19.8 Q37.3 -20.1 38.2 -20.55 L38.4 -20.65 39.05 -19.25 39.15 -18.95 39.0 -18.65 38.6 -18.0 Q38.1 -17.05 38.45 -15.8 38.85 -14.35 40.35 -14.0 L40.4 -14.05 Q40.95 -14.2 41.35 -14.55 L41.9 -13.65 Q42.8 -12.15 43.45 -11.5 L43.45 -11.45 Q43.15 -10.3 42.2 -9.75 L41.3 -9.25 39.4 -8.3 38.55 -7.9 Q32.8 -5.25 26.55 -3.95 L18.85 -2.9 18.8 -2.9 3.0 -1.95 -13.75 -2.65 -28.7 -4.75 -29.5 -4.9 -30.1 -5.05 -31.05 -5.2 -31.15 -5.25 -31.65 -5.3 -34.25 -5.8 Q-36.2 -6.35 -37.8 -7.45 L-37.65 -9.1 -34.05 -8.45 -32.05 -8.1 -31.6 -8.05 -31.2 -13.3 -30.8 -16.3 Q-31.3 -14.9 -32.75 -14.5 L-33.0 -14.45 Q-34.15 -14.2 -35.05 -14.7 L-35.9 -15.2 -35.35 -13.85 -35.15 -12.6 -35.15 -12.55 Q-35.35 -10.4 -37.3 -9.95 L-37.4 -9.95 -37.5 -9.95 -37.55 -9.95 -37.5 -10.2 -37.45 -10.65 -37.45 -10.8 -37.4 -10.75 Q-36.1 -11.15 -35.95 -12.65 -35.95 -13.15 -36.1 -13.6 L-36.85 -15.25 Q-36.4 -15.35 -36.05 -15.7 L-35.75 -16.05 -34.65 -15.4 -34.7 -15.4 -32.95 -15.25 -32.75 -15.3 Q-31.75 -15.7 -31.5 -16.75 L-32.05 -17.65 Q-32.55 -18.15 -33.4 -18.2 L-34.35 -18.1 -35.75 -17.5 -36.05 -17.9 -36.45 -18.2 -36.45 -18.4 -36.4 -19.0 -36.1 -19.5 -36.15 -19.45 Q-35.75 -20.25 -36.0 -21.2 L-36.2 -21.7 -36.1 -22.85 Q-35.5 -22.35 -35.25 -21.4 -34.9 -20.15 -35.45 -19.1 L-35.95 -18.25 -34.6 -18.85 -33.35 -19.0 -33.3 -19.0 Q-32.35 -18.95 -31.75 -18.5 -30.95 -17.95 -30.7 -16.85 L-29.25 -23.95 Q-27.65 -30.7 -24.85 -37.9 -26.8 -32.0 -27.9 -26.3 L-28.8 -20.4 Q-29.45 -14.65 -29.1 -9.15 L-29.0 -7.65 -27.65 -7.5 Q-14.3 -5.75 -1.0 -6.25 L-1.0 -6.7 -1.0 -8.9 -0.95 -12.6 -0.95 -14.6 -0.35 -35.5 Q-0.2 -24.2 0.75 -14.65 L0.95 -12.65 1.5 -8.2 1.8 -6.35 12.9 -7.4 12.8 -8.25 Q12.75 -9.9 13.75 -10.95 L13.8 -11.0 14.65 -11.85 12.85 -11.6 11.25 -11.75 11.25 -11.8 Q10.4 -12.1 9.85 -12.55 8.95 -13.35 8.8 -14.6 L8.8 -15.25 8.75 -15.4 8.8 -15.5 Q9.8 -17.45 12.0 -17.45 13.65 -17.5 14.75 -16.5 L14.75 -16.45 15.6 -15.6 15.35 -17.4 Q15.3 -18.25 15.55 -19.0 16.45 -21.6 19.05 -21.45 L19.15 -21.5 19.25 -21.45 Q21.2 -20.45 21.25 -18.25 21.25 -16.6 20.25 -15.5 L19.35 -14.65 21.15 -14.9 22.75 -14.7 22.8 -14.7 Q24.5 -14.1 25.0 -12.75 L25.25 -11.2 25.25 -11.1 25.2 -11.0 25.05 -10.7 Q24.0 -9.05 22.0 -9.0 20.35 -9.0 19.25 -10.0 L18.4 -10.9 18.65 -9.1 18.65 -8.25 27.95 -10.05 31.85 -10.95 31.95 -11.0 Q29.5 -22.45 25.95 -33.8 L25.85 -34.1 24.75 -37.6 23.75 -40.55 21.55 -46.55 16.85 -57.65 Q11.45 -69.45 5.55 -50.0 5.45 -59.5 -1.2 -59.95 -7.85 -60.4 -12.55 -42.5 -11.55 -52.5 -13.85 -56.45 L-15.0 -55.65 Q-16.0 -54.8 -17.05 -53.15 -19.3 -49.7 -22.05 -42.75 L-19.55 -60.0 Q-22.55 -57.95 -25.2 -55.35 M18.25 -15.0 L19.5 -16.15 19.55 -16.2 Q20.25 -17.0 20.25 -18.25 20.2 -19.8 18.85 -20.5 17.15 -20.45 16.5 -18.7 L16.5 -18.65 16.35 -17.45 16.75 -15.1 16.45 -14.95 15.7 -14.15 15.65 -14.0 15.55 -14.15 14.1 -15.75 14.05 -15.75 Q13.25 -16.5 12.0 -16.45 10.45 -16.45 9.75 -15.1 L9.8 -14.55 Q10.05 -13.3 11.55 -12.75 L11.6 -12.7 12.75 -12.6 15.15 -13.0 15.45 -13.1 15.7 -12.3 15.8 -12.1 16.15 -11.8 14.5 -10.3 Q13.75 -9.5 13.8 -8.25 L13.9 -7.5 Q14.15 -6.55 15.15 -6.0 16.85 -6.05 17.5 -7.8 L17.55 -7.8 17.6 -8.05 17.65 -9.0 17.3 -11.3 Q17.85 -11.25 18.4 -11.6 L18.75 -11.8 18.85 -11.9 18.95 -11.75 19.95 -10.75 19.95 -10.7 Q20.75 -10.0 22.0 -10.0 23.25 -10.05 24.0 -10.95 L24.25 -11.35 Q24.25 -12.4 23.65 -13.0 L22.45 -13.75 21.25 -13.9 19.6 -13.65 19.35 -13.6 19.3 -13.7 19.1 -14.25 18.25 -15.0 M-20.5 -106.85 L-20.45 -106.8 -20.7 -106.2 Q-23.75 -103.05 -24.85 -100.45 L-25.15 -99.6 -26.75 -100.3 Q-24.15 -103.95 -20.5 -106.85 M-7.0 -16.95 L-6.9 -16.85 -6.9 -16.75 Q-6.45 -15.4 -7.05 -14.25 L-7.55 -13.55 Q-8.55 -12.45 -9.85 -12.4 L-10.95 -12.4 -10.3 -11.95 -9.65 -11.45 -8.75 -10.35 -8.75 -10.3 Q-7.7 -8.2 -9.3 -6.6 L-9.35 -6.55 -9.45 -6.5 Q-11.3 -5.9 -12.65 -7.2 -13.75 -8.2 -13.85 -9.5 L-13.85 -10.6 -14.75 -9.25 -15.85 -8.35 -15.9 -8.35 Q-18.05 -7.3 -19.6 -8.9 L-19.7 -9.0 -19.7 -9.05 -19.9 -10.2 Q-19.95 -11.4 -19.05 -12.3 L-18.85 -12.5 Q-17.95 -13.4 -16.75 -13.45 L-16.7 -13.45 -15.65 -13.45 -16.95 -14.4 -17.85 -15.5 Q-18.9 -17.7 -17.3 -19.25 L-17.25 -19.3 -17.15 -19.35 Q-15.3 -20.0 -13.9 -18.65 -12.85 -17.7 -12.75 -16.35 L-12.75 -15.25 -11.85 -16.55 Q-11.35 -17.15 -10.7 -17.45 L-10.7 -17.5 Q-8.55 -18.55 -7.0 -16.95 M-11.35 -13.3 L-9.9 -13.25 Q-8.95 -13.35 -8.2 -14.15 L-8.15 -14.15 Q-7.3 -15.15 -7.7 -16.4 -8.85 -17.45 -10.35 -16.7 L-11.15 -16.05 -12.1 -14.65 -12.65 -14.85 -13.65 -14.8 -13.65 -16.3 Q-13.75 -17.3 -14.5 -18.0 -15.5 -18.95 -16.8 -18.5 -17.8 -17.4 -17.05 -15.9 L-16.4 -15.1 -14.65 -13.85 -14.75 -13.6 -14.8 -13.3 -14.65 -12.55 -16.7 -12.6 -16.65 -12.55 Q-17.65 -12.5 -18.4 -11.7 -18.95 -11.15 -19.0 -10.45 L-18.9 -9.45 Q-17.8 -8.45 -16.3 -9.15 L-16.25 -9.15 -15.45 -9.85 -14.35 -11.35 -14.25 -11.6 -14.15 -11.85 Q-13.85 -11.6 -13.45 -11.5 L-13.4 -11.5 -12.9 -11.45 -12.95 -9.5 -12.95 -9.55 Q-12.9 -8.6 -12.05 -7.8 -11.1 -6.9 -9.8 -7.35 -8.8 -8.45 -9.55 -9.95 L-10.2 -10.75 -11.6 -11.75 -11.85 -11.9 Q-11.5 -12.25 -11.4 -12.75 L-11.35 -13.3" fill="#c7c5af" fill-rule="evenodd" stroke="none"/>
    <path d="M11.55 -93.75 L14.75 -94.05 Q19.35 -94.55 21.35 -95.45 L21.35 -94.5 21.05 -94.25 Q19.55 -93.3 14.7 -92.5 L14.7 -92.55 11.75 -92.15 11.55 -93.75 M3.75 -70.5 Q11.65 -71.8 17.25 -73.85 L17.3 -73.85 18.45 -74.35 20.35 -75.25 22.0 -76.2 22.0 -72.65 20.55 -71.6 Q19.75 -71.15 18.65 -70.65 L17.0 -69.95 16.65 -69.85 12.45 -69.35 Q9.05 -67.6 4.65 -66.85 L3.75 -70.5 M-36.45 -18.2 L-36.05 -17.9 -35.75 -17.5 Q-35.6 -17.15 -35.6 -16.8 L-35.75 -16.05 -36.05 -15.7 Q-36.4 -15.35 -36.85 -15.25 L-36.9 -15.25 -36.8 -15.9 -36.75 -16.25 -36.7 -16.6 -36.65 -16.95 -36.6 -17.3 -36.55 -17.65 -36.5 -18.0 -36.45 -18.2 M18.25 -15.0 L19.1 -14.25 19.3 -13.7 19.35 -13.6 19.3 -12.7 18.85 -11.9 18.75 -11.8 18.4 -11.6 Q17.85 -11.25 17.3 -11.3 L16.9 -11.35 Q16.45 -11.5 16.15 -11.8 L15.8 -12.1 15.7 -12.3 15.45 -13.1 15.55 -13.75 15.65 -14.0 15.7 -14.15 16.45 -14.95 16.75 -15.1 Q17.3 -15.3 17.95 -15.1 L18.25 -15.0 M1.65 4.8 Q14.95 3.9 17.15 12.0 19.2 19.5 9.15 23.6 -0.9 27.65 -6.0 27.85 -11.1 28.0 -18.1 22.55 -25.15 17.05 -26.1 11.9 L-27.55 3.3 Q-23.2 4.45 -17.45 5.1 -11.7 5.7 1.65 4.8 M-11.35 -13.3 L-11.4 -12.75 Q-11.5 -12.25 -11.85 -11.9 L-12.15 -11.7 -12.2 -11.7 -12.9 -11.45 -13.4 -11.5 -13.45 -11.5 Q-13.85 -11.6 -14.15 -11.85 L-14.5 -12.3 -14.65 -12.55 -14.8 -13.3 -14.75 -13.6 -14.65 -13.85 -13.95 -14.65 -13.65 -14.8 -12.65 -14.85 -12.1 -14.65 -11.55 -14.05 -11.45 -13.8 -11.35 -13.3" fill="#694983" fill-rule="evenodd" stroke="none"/>
    <path d="M-29.85 -2.95 Q-21.9 -1.45 -13.95 -0.65 L3.0 0.05 19.05 -0.9 Q23.2 -1.2 27.15 -2.05 39.05 14.05 29.05 25.0 18.55 36.55 3.65 36.55 -11.25 36.55 -21.8 25.0 -32.3 13.5 -29.85 -2.95 M1.65 4.8 Q-11.7 5.7 -17.45 5.1 -23.2 4.45 -27.55 3.3 L-26.1 11.9 Q-25.15 17.05 -18.1 22.55 -11.1 28.0 -6.0 27.85 -0.9 27.65 9.15 23.6 19.2 19.5 17.15 12.0 14.95 3.9 1.65 4.8" fill="#543a69" fill-rule="evenodd" stroke="none"/>
    <path d="M-34.35 -3.7 L-31.3 -3.25 -29.85 -2.95 Q-32.3 13.5 -21.8 25.0 -11.25 36.55 3.65 36.55 18.55 36.55 29.05 25.0 39.05 14.05 27.15 -2.05 34.7 -3.65 41.5 -7.15 L41.65 -3.25 41.65 -3.05 41.65 -2.85 Q41.6 14.25 30.55 26.35 19.45 38.55 3.65 38.55 -12.15 38.55 -23.3 26.35 -34.3 14.3 -34.35 -2.8 L-34.35 -3.05 -34.35 -3.25 -34.35 -3.7" fill="#442f55" fill-rule="evenodd" stroke="none"/>
    <path d="M5.75 -113.05 L4.6 -112.65 Q2.8 -112.05 1.15 -111.15 L1.0 -111.1 Q-0.7 -113.1 -3.3 -113.7 -6.8 -114.5 -10.05 -112.9 -12.85 -111.5 -17.0 -107.5 -21.55 -103.2 -21.3 -101.4 -21.1 -99.75 -17.95 -99.2 L-14.9 -99.0 -12.05 -98.65 -12.25 -98.4 -13.25 -96.9 -21.65 -98.55 -24.2 -99.3 Q-23.3 -102.25 -18.1 -107.6 L-12.0 -112.85 -9.05 -115.25 -6.25 -117.2 -3.35 -117.6 Q2.45 -117.9 5.75 -113.05 M2.45 -108.8 L5.1 -110.0 7.05 -110.7 Q10.65 -103.05 9.95 -99.75 9.25 -96.55 3.95 -95.9 L0.5 -95.65 -3.6 -95.9 -6.65 -96.15 -5.75 -98.0 -1.05 -97.75 Q6.3 -97.75 2.95 -107.5 L2.45 -108.8 M-26.3 -94.05 L-26.75 -94.25 -26.3 -94.05 M-13.6 -94.9 L-13.0 -94.85 -13.05 -94.85 -13.6 -94.9" fill="#f1ba87" fill-rule="evenodd" stroke="none"/>
    <path d="M1.0 -111.1 Q-6.05 -107.35 -12.05 -98.65 L-14.9 -99.0 -17.95 -99.2 Q-21.1 -99.75 -21.3 -101.4 -21.55 -103.2 -17.0 -107.5 -12.85 -111.5 -10.05 -112.9 -6.8 -114.5 -3.3 -113.7 -0.7 -113.1 1.0 -111.1 M-5.75 -98.0 L-3.95 -101.7 Q-1.4 -107.1 1.8 -108.55 L2.45 -108.8 2.95 -107.5 Q6.3 -97.75 -1.05 -97.75 L-5.75 -98.0" fill="#ffcc99" fill-rule="evenodd" stroke="none"/>
    <path d="M16.95 -112.2 Q12.65 -115.2 5.75 -113.05 2.45 -117.9 -3.35 -117.6 L-6.25 -117.2 Q0.7 -122.45 6.55 -120.75 11.7 -119.25 16.95 -112.2 M7.05 -110.7 Q13.5 -112.55 17.95 -108.6 21.65 -105.25 22.2 -98.85 L22.2 -98.5 22.05 -98.45 21.45 -97.95 20.6 -97.3 Q18.8 -96.55 14.55 -96.05 L0.5 -95.65 3.95 -95.9 Q9.25 -96.55 9.95 -99.75 10.65 -103.05 7.05 -110.7 M-25.85 -93.9 L-26.3 -94.05 -25.85 -93.9 M-13.0 -94.85 L-12.5 -94.75 -13.05 -94.85 -13.0 -94.85 M-14.65 -90.4 L-14.5 -90.35 -14.55 -90.35 -14.65 -90.4" fill="#db9c64" fill-rule="evenodd" stroke="none"/>
    <path d="M-18.1 -107.6 L-12.3 -113.25 -12.15 -113.4 -11.95 -113.55 -11.95 -113.6 -12.55 -114.35 -12.6 -114.3 -12.6 -114.35 -20.25 -108.35 -13.25 -114.4 -13.3 -114.4 -10.25 -116.85 Q0.85 -125.1 6.85 -123.0 13.55 -120.85 19.5 -112.4 24.45 -105.35 23.45 -98.7 23.05 -104.55 19.8 -109.3 L19.75 -109.3 Q18.5 -111.15 16.95 -112.2 11.7 -119.25 6.55 -120.75 0.7 -122.45 -6.25 -117.2 L-9.05 -115.25 -12.0 -112.85 -18.1 -107.6 M22.2 -98.85 L22.25 -98.5 22.2 -98.5 22.2 -98.85 M-23.75 -78.75 L-24.3 -79.55 -24.35 -79.7 -23.75 -78.75" fill="#5c4730" fill-rule="evenodd" stroke="none"/>
  </g>
</svg>
