<?xml version="1.0" encoding="UTF-8" standalone="no"?>
<svg xmlns:ffdec="https://www.free-decompiler.com/flash" xmlns:xlink="http://www.w3.org/1999/xlink" ffdec:objectType="shape" height="20.55px" width="33.75px" xmlns="http://www.w3.org/2000/svg">
  <g transform="matrix(1.0, 0.0, 0.0, 1.0, 30.55, -4.05)">
    <path d="M3.2 14.1 L3.2 14.2 Q3.2 18.4 0.85 21.35 -1.5 24.35 -4.8 24.35 -8.1 24.35 -10.45 21.35 -12.8 18.4 -12.8 14.2 L-12.8 14.1 Q-12.75 9.95 -10.45 7.0 -8.1 4.05 -4.8 4.05 -1.5 4.05 0.85 7.0 3.15 9.95 3.2 14.1 M-14.55 14.45 Q-14.55 18.65 -16.9 21.6 -19.25 24.6 -22.55 24.6 -25.85 24.6 -28.2 21.6 -30.55 18.65 -30.55 14.45 L-30.55 14.35 Q-30.5 10.2 -28.2 7.25 -25.85 4.3 -22.55 4.3 -19.25 4.3 -16.9 7.25 -14.6 10.2 -14.55 14.35 L-14.55 14.45" fill="#ebb6ad" fill-rule="evenodd" stroke="none"/>
    <path d="M-2.55 19.9 Q-3.9 21.95 -5.85 21.95 -7.75 21.95 -9.15 19.9 -10.5 17.85 -10.5 14.95 -10.5 13.35 -10.1 12.0 -9.8 10.9 -9.15 10.0 L-8.15 8.85 Q-7.1 7.95 -5.85 7.95 -3.9 7.95 -2.55 10.0 -1.15 12.05 -1.15 14.95 -1.15 17.85 -2.55 19.9 M-21.35 9.85 Q-19.7 9.85 -18.55 11.65 -17.35 13.4 -17.3 15.95 -17.35 18.45 -18.55 20.2 -19.7 22.0 -21.35 22.0 -23.05 22.0 -24.25 20.2 -25.45 18.45 -25.45 15.95 -25.45 14.5 -25.05 13.35 L-24.25 11.65 -23.4 10.65 Q-22.5 9.85 -21.35 9.85" fill="#ffcc99" fill-rule="evenodd" stroke="none"/>
    <path d="M-2.55 19.9 Q-3.9 21.95 -5.85 21.95 -7.75 21.95 -9.15 19.9 -10.5 17.85 -10.5 14.95 -10.5 13.35 -10.1 12.0 -9.8 10.9 -9.15 10.0 L-8.15 8.85 Q-7.1 7.95 -5.85 7.95 -3.9 7.95 -2.55 10.0 -1.15 12.05 -1.15 14.95 -1.15 17.85 -2.55 19.9 M-21.35 9.85 Q-19.7 9.85 -18.55 11.65 -17.35 13.4 -17.3 15.95 -17.35 18.45 -18.55 20.2 -19.7 22.0 -21.35 22.0 -23.05 22.0 -24.25 20.2 -25.45 18.45 -25.45 15.95 -25.45 14.5 -25.05 13.35 L-24.25 11.65 -23.4 10.65 Q-22.5 9.85 -21.35 9.85 Z" fill="none" stroke="#000000" stroke-linecap="round" stroke-linejoin="round" stroke-width="3.5"/>
  </g>
</svg>
