<?xml version="1.0" encoding="UTF-8" standalone="no"?>
<svg xmlns:ffdec="https://www.free-decompiler.com/flash" xmlns:xlink="http://www.w3.org/1999/xlink" ffdec:objectType="shape" height="15.6px" width="31.2px" xmlns="http://www.w3.org/2000/svg">
  <g transform="matrix(1.0, 0.0, 0.0, 1.0, 29.25, -7.25)">
    <path d="M1.95 15.05 Q1.95 18.3 -0.2 20.55 -2.4 22.85 -5.45 22.85 -8.5 22.85 -10.65 20.55 -12.8 18.3 -12.8 15.05 L-12.8 15.0 Q-12.8 11.8 -10.65 9.55 -8.5 7.25 -5.45 7.25 -2.4 7.25 -0.2 9.55 1.9 11.8 1.95 15.0 L1.95 15.05 M-14.5 15.0 Q-14.55 18.15 -16.7 20.35 -18.85 22.55 -21.9 22.55 -24.95 22.55 -27.1 20.35 -29.3 18.15 -29.25 15.0 L-29.25 14.95 Q-29.25 11.9 -27.1 9.7 -24.95 7.5 -21.9 7.5 -18.85 7.5 -16.7 9.7 -14.55 11.9 -14.5 14.95 L-14.5 15.0" fill="#ebb6ad" fill-rule="evenodd" stroke="none"/>
    <path d="M-2.55 19.15 Q-3.9 20.4 -5.85 20.4 -7.75 20.4 -9.15 19.15 -10.5 17.85 -10.5 16.05 -10.5 15.0 -10.1 14.2 -9.8 13.5 -9.15 12.95 -8.7 12.5 -8.15 12.2 -7.1 11.65 -5.85 11.65 -3.9 11.65 -2.55 12.95 -1.15 14.2 -1.15 16.05 -1.15 17.85 -2.55 19.15 M-18.55 13.95 Q-17.35 15.05 -17.3 16.65 -17.35 18.2 -18.55 19.35 -19.7 20.45 -21.35 20.45 -23.05 20.45 -24.25 19.35 -25.45 18.2 -25.45 16.65 -25.45 15.8 -25.05 15.05 L-24.25 13.95 -23.4 13.35 Q-22.5 12.85 -21.35 12.85 -19.7 12.85 -18.55 13.95" fill="#ffcc99" fill-rule="evenodd" stroke="none"/>
    <path d="M-2.55 19.15 Q-3.9 20.4 -5.85 20.4 -7.75 20.4 -9.15 19.15 -10.5 17.85 -10.5 16.05 -10.5 15.0 -10.1 14.2 -9.8 13.5 -9.15 12.95 -8.7 12.5 -8.15 12.2 -7.1 11.65 -5.85 11.65 -3.9 11.65 -2.55 12.95 -1.15 14.2 -1.15 16.05 -1.15 17.85 -2.55 19.15 M-18.55 13.95 Q-17.35 15.05 -17.3 16.65 -17.35 18.2 -18.55 19.35 -19.7 20.45 -21.35 20.45 -23.05 20.45 -24.25 19.35 -25.45 18.2 -25.45 16.65 -25.45 15.8 -25.05 15.05 L-24.25 13.95 -23.4 13.35 Q-22.5 12.85 -21.35 12.85 -19.7 12.85 -18.55 13.95 Z" fill="none" stroke="#000000" stroke-linecap="round" stroke-linejoin="round" stroke-width="3.5"/>
  </g>
</svg>
