<?xml version="1.0" encoding="UTF-8" standalone="no"?>
<svg xmlns:ffdec="https://www.free-decompiler.com/flash" xmlns:xlink="http://www.w3.org/1999/xlink" ffdec:objectType="shape" height="22.55px" width="34.75px" xmlns="http://www.w3.org/2000/svg">
  <g transform="matrix(1.0, 0.0, 0.0, 1.0, 31.0, -2.05)">
    <path d="M3.75 13.1 L3.75 13.2 Q3.7 17.8 1.3 21.05 -1.1 24.3 -4.5 24.3 -7.95 24.3 -10.35 21.05 -12.75 17.8 -12.75 13.2 L-12.75 13.1 Q-12.75 8.55 -10.35 5.3 -7.95 2.05 -4.5 2.05 -1.1 2.05 1.3 5.3 3.7 8.55 3.75 13.1 M-14.5 13.45 Q-14.55 18.05 -16.95 21.3 -19.35 24.6 -22.75 24.6 -26.2 24.6 -28.6 21.3 -31.0 18.05 -31.0 13.45 L-31.0 13.35 Q-31.0 8.8 -28.6 5.55 -26.2 2.3 -22.75 2.3 -19.35 2.3 -16.95 5.55 -14.55 8.8 -14.5 13.35 L-14.5 13.45" fill="#ebb6ad" fill-rule="evenodd" stroke="none"/>
    <path d="M-1.8 8.15 Q-0.2 10.5 -0.2 13.85 -0.2 17.2 -1.8 19.55 -3.35 21.9 -5.6 21.95 -7.8 21.9 -9.4 19.55 -10.95 17.2 -10.95 13.85 -11.0 12.0 -10.5 10.45 L-9.4 8.15 -8.25 6.8 Q-7.05 5.75 -5.6 5.75 -3.35 5.75 -1.8 8.15 M-22.5 7.95 Q-20.6 7.95 -19.25 10.0 -17.85 12.05 -17.8 15.0 -17.85 17.9 -19.25 19.9 -20.6 21.95 -22.5 22.0 -24.45 21.95 -25.85 19.9 -27.2 17.9 -27.2 15.0 -27.2 13.35 -26.75 12.0 L-25.85 10.0 -24.85 8.85 Q-23.8 7.95 -22.5 7.95" fill="#ffcc99" fill-rule="evenodd" stroke="none"/>
    <path d="M-1.8 8.15 Q-0.2 10.5 -0.2 13.85 -0.2 17.2 -1.8 19.55 -3.35 21.9 -5.6 21.95 -7.8 21.9 -9.4 19.55 -10.95 17.2 -10.95 13.85 -11.0 12.0 -10.5 10.45 L-9.4 8.15 -8.25 6.8 Q-7.05 5.75 -5.6 5.75 -3.35 5.75 -1.8 8.15 M-22.5 7.95 Q-20.6 7.95 -19.25 10.0 -17.85 12.05 -17.8 15.0 -17.85 17.9 -19.25 19.9 -20.6 21.95 -22.5 22.0 -24.45 21.95 -25.85 19.9 -27.2 17.9 -27.2 15.0 -27.2 13.35 -26.75 12.0 L-25.85 10.0 -24.85 8.85 Q-23.8 7.95 -22.5 7.95 Z" fill="none" stroke="#000000" stroke-linecap="round" stroke-linejoin="round" stroke-width="3.5"/>
  </g>
</svg>
