<?xml version="1.0" encoding="UTF-8" standalone="no"?>
<svg xmlns:ffdec="https://www.free-decompiler.com/flash" xmlns:xlink="http://www.w3.org/1999/xlink" ffdec:objectType="shape" height="19.9px" width="33.75px" xmlns="http://www.w3.org/2000/svg">
  <g transform="matrix(1.0, 0.0, 0.0, 1.0, 30.55, -4.7)">
    <path d="M3.2 14.1 L3.2 14.2 Q3.2 18.4 0.85 21.35 -1.5 24.35 -4.8 24.35 -8.1 24.35 -10.45 21.35 -12.8 18.4 -12.8 14.2 L-12.0 13.5 Q-11.2 12.8 -9.15 9.25 -7.2 5.7 -4.35 4.9 -1.5 4.05 0.85 7.0 3.15 9.95 3.2 14.1 M-14.55 14.45 Q-14.55 18.65 -16.9 21.6 -19.25 24.6 -22.55 24.6 -25.85 24.6 -28.2 21.6 -30.55 18.65 -30.55 14.45 L-30.55 14.35 Q-30.5 10.2 -28.2 7.25 -25.85 4.3 -22.95 6.5 -20.05 8.65 -17.4 10.0 -14.8 11.4 -14.65 12.9 L-14.55 14.45" fill="#ebb6ad" fill-rule="evenodd" stroke="none"/>
    <path d="M-2.2 10.65 Q-1.15 12.45 -1.15 14.95 -1.15 17.85 -2.55 19.9 -3.9 21.95 -5.85 21.95 -7.75 21.95 -9.15 19.9 -10.3 18.2 -10.45 15.95 L-2.2 10.65 M-17.35 15.45 L-17.3 15.95 Q-17.35 18.45 -18.55 20.2 -19.7 22.0 -21.35 22.0 -23.05 22.0 -24.25 20.2 -25.45 18.45 -25.45 15.95 -25.45 14.5 -25.05 13.35 L-24.9 12.9 -17.35 15.45" fill="#ffcc99" fill-rule="evenodd" stroke="none"/>
    <path d="M-2.2 10.65 Q-1.15 12.45 -1.15 14.95 -1.15 17.85 -2.55 19.9 -3.9 21.95 -5.85 21.95 -7.75 21.95 -9.15 19.9 -10.3 18.2 -10.45 15.95 M-17.35 15.45 L-17.3 15.95 Q-17.35 18.45 -18.55 20.2 -19.7 22.0 -21.35 22.0 -23.05 22.0 -24.25 20.2 -25.45 18.45 -25.45 15.95 -25.45 14.5 -25.05 13.35 L-24.9 12.9" fill="none" stroke="#000000" stroke-linecap="round" stroke-linejoin="round" stroke-width="3.5"/>
    <path d="M-10.45 15.95 L-11.55 16.6 M-24.9 12.9 L-17.35 15.45 -16.8 15.6 M-10.45 15.95 L-2.2 10.65" fill="none" stroke="#000000" stroke-linecap="round" stroke-linejoin="round" stroke-width="3.5"/>
  </g>
</svg>
