<?xml version="1.0" encoding="UTF-8" standalone="no"?>
<svg xmlns:ffdec="https://www.free-decompiler.com/flash" xmlns:xlink="http://www.w3.org/1999/xlink" ffdec:objectType="shape" height="14.0px" width="14.0px" xmlns="http://www.w3.org/2000/svg">
  <g transform="matrix(1.0, 0.0, 0.0, 1.0, -6.5, -3.25)">
    <path d="M8.9 5.65 Q10.8 3.75 13.5 3.75 16.2 3.75 18.1 5.65 20.0 7.55 20.0 10.25 20.0 12.95 18.1 14.85 16.2 16.75 13.5 16.75 10.8 16.75 8.9 14.85 7.0 12.95 7.0 10.25 7.0 7.55 8.9 5.65 M15.4 6.95 Q15.75 6.95 16.0 7.4 L16.3 8.45 16.0 9.5 Q15.75 9.95 15.4 9.95 L14.75 9.5 14.5 8.45 Q14.5 7.85 14.75 7.4 L15.4 6.95 M12.5 9.55 L11.9 10.0 11.25 9.55 Q11.0 9.1 11.0 8.5 11.0 7.9 11.25 7.45 11.55 7.0 11.9 7.0 L12.5 7.45 12.8 8.5 12.5 9.55 M17.8 11.8 L16.85 13.1 Q15.55 14.4 13.7 14.4 11.85 14.4 10.55 13.1 L9.65 11.8" fill="none" stroke="#000000" stroke-linecap="round" stroke-linejoin="round" stroke-width="1.0"/>
  </g>
</svg>
