<?xml version="1.0" encoding="UTF-8" standalone="no"?>
<svg xmlns:ffdec="https://www.free-decompiler.com/flash" xmlns:xlink="http://www.w3.org/1999/xlink" ffdec:objectType="shape" height="15.4px" width="33.75px" xmlns="http://www.w3.org/2000/svg">
  <g transform="matrix(1.0, 0.0, 0.0, 1.0, 30.55, -9.2)">
    <path d="M3.2 14.1 L3.2 14.2 Q3.2 18.4 0.85 21.35 -1.5 24.35 -4.8 24.35 -8.1 24.35 -10.45 21.35 -12.8 18.4 -12.8 14.2 L-12.8 14.1 Q-12.8 12.25 -12.3 10.6 -4.8 8.7 2.7 10.6 3.2 12.25 3.2 14.1 M-14.55 14.45 Q-14.55 18.65 -16.9 21.6 -19.25 24.6 -22.55 24.6 -25.85 24.6 -28.2 21.6 -30.55 18.65 -30.55 14.45 L-30.55 14.35 Q-30.55 12.35 -29.95 10.6 -22.55 7.8 -15.1 10.6 -14.55 12.35 -14.55 14.35 L-14.55 14.45" fill="#ebb6ad" fill-rule="evenodd" stroke="none"/>
    <path d="M-2.55 19.9 Q-3.9 21.95 -5.85 21.95 -7.75 21.95 -9.15 19.9 -10.5 17.9 -10.5 15.1 L-1.15 15.1 Q-1.2 17.9 -2.55 19.9 M-24.25 20.2 Q-25.45 18.45 -25.45 15.95 L-25.4 15.1 -17.35 15.1 -17.3 15.95 Q-17.35 18.45 -18.55 20.2 -19.7 22.0 -21.35 22.0 -23.05 22.0 -24.25 20.2" fill="#ffcc99" fill-rule="evenodd" stroke="none"/>
    <path d="M-2.55 19.9 Q-3.9 21.95 -5.85 21.95 -7.75 21.95 -9.15 19.9 -10.5 17.9 -10.5 15.1 L-1.15 15.1 Q-1.2 17.9 -2.55 19.9 M-24.25 20.2 Q-25.45 18.45 -25.45 15.95 L-25.4 15.1 -17.35 15.1 -17.3 15.95 Q-17.35 18.45 -18.55 20.2 -19.7 22.0 -21.35 22.0 -23.05 22.0 -24.25 20.2 Z" fill="none" stroke="#000000" stroke-linecap="round" stroke-linejoin="round" stroke-width="3.5"/>
  </g>
</svg>
