<?xml version="1.0" encoding="UTF-8" standalone="no"?>
<svg xmlns:ffdec="https://www.free-decompiler.com/flash" xmlns:xlink="http://www.w3.org/1999/xlink" ffdec:objectType="shape" height="16.2px" width="33.75px" xmlns="http://www.w3.org/2000/svg">
  <g transform="matrix(1.0, 0.0, 0.0, 1.0, 30.55, -4.05)">
    <path d="M3.2 14.1 L3.2 14.2 Q3.2 18.4 1.55 19.0 -0.1 19.6 -3.05 18.35 -6.0 17.1 -9.4 17.75 -12.8 18.4 -12.8 14.2 L-12.8 14.1 Q-12.75 9.95 -10.45 7.0 -8.1 4.05 -4.8 4.05 -1.5 4.05 0.85 7.0 3.15 9.95 3.2 14.1 M-14.55 16.7 Q-14.55 18.95 -18.9 18.55 -23.25 18.1 -25.75 19.5 -28.3 20.85 -29.45 19.75 -30.6 18.6 -30.55 16.5 L-30.55 14.35 Q-30.5 10.2 -28.2 7.25 -25.85 4.3 -22.55 4.3 -19.25 4.3 -16.9 7.25 -14.6 10.2 -14.55 14.35 L-14.55 16.7" fill="#ebb6ad" fill-rule="evenodd" stroke="none"/>
    <path d="M-17.3 16.35 Q-21.9 8.55 -25.55 16.6" fill="none" stroke="#333333" stroke-linecap="round" stroke-linejoin="round" stroke-width="2.0"/>
    <path d="M-0.05 15.35 Q-6.7 4.4 -10.8 16.1" fill="none" stroke="#333333" stroke-linecap="round" stroke-linejoin="round" stroke-width="2.0"/>
  </g>
</svg>
