<?xml version="1.0" encoding="UTF-8" standalone="no"?>
<svg xmlns:ffdec="https://www.free-decompiler.com/flash" xmlns:xlink="http://www.w3.org/1999/xlink" ffdec:objectType="shape" height="20.35px" width="32.95px" xmlns="http://www.w3.org/2000/svg">
  <g transform="matrix(1.0, 0.0, 0.0, 1.0, 29.75, -4.25)">
    <path d="M3.2 14.2 Q3.2 18.4 -0.2 18.7 -3.6 18.95 -7.7 21.1 -11.8 23.25 -12.65 20.85 -13.5 18.4 -13.15 16.3 L-12.8 14.1 Q-12.75 9.95 -10.45 7.0 -8.1 4.05 -5.65 4.5 -3.25 4.9 -1.15 8.0 L2.05 12.65 3.2 14.2 M-16.9 21.6 Q-19.25 24.6 -22.55 24.6 -25.85 24.6 -28.2 21.6 -30.55 18.65 -29.35 15.8 L-27.35 11.35 -25.15 7.0 Q-23.7 4.2 -21.45 4.25 -19.25 4.3 -16.9 7.25 -14.6 10.2 -14.55 14.35 L-14.55 14.45 Q-14.55 18.65 -16.9 21.6" fill="#ebb6ad" fill-rule="evenodd" stroke="none"/>
    <path d="M-2.85 16.4 L-2.75 15.0 -2.6 14.45 -4.45 12.3 Q-6.25 10.0 -6.65 10.1 L-7.05 10.2 -7.65 10.95 -7.7 11.05 -8.4 12.45 -8.4 12.5 Q-8.75 13.6 -8.75 14.95 -8.75 17.05 -7.9 18.6 -5.15 16.85 -2.85 16.4 M-21.9 6.95 L-19.75 7.65 Q-18.5 8.5 -17.1 10.65 -15.6 12.8 -15.55 15.95 L-15.55 16.0 Q-15.6 19.05 -17.1 21.2 L-17.05 21.15 Q-18.8 23.85 -21.35 23.75 -23.9 23.85 -25.7 21.2 -27.0 19.35 -27.15 16.8 L-21.9 6.95 M0.4 12.75 L0.6 14.95 0.65 16.1 Q1.25 16.1 3.05 17.7 L1.7 18.0 Q-1.65 18.85 -11.8 22.8 L-11.95 22.55 Q-12.25 22.0 -12.05 21.4 -11.9 20.8 -11.35 20.55 L-10.95 20.35 Q-12.25 18.05 -12.25 14.95 -12.25 13.1 -11.75 11.5 L-11.8 11.55 Q-11.4 10.2 -10.6 9.05 L-10.55 9.0 Q-10.0 8.1 -9.25 7.5 L-9.3 7.55 Q-8.25 6.3 -6.75 6.45 -5.35 6.6 0.4 12.75 M-20.0 12.65 L-20.0 12.6 Q-20.5 11.9 -21.05 11.7 -22.05 12.3 -23.35 15.9 L-23.65 16.7 Q-23.5 18.1 -22.8 19.2 L-22.8 19.25 Q-22.2 20.15 -21.35 20.25 -20.6 20.15 -20.0 19.25 L-20.0 19.2 Q-19.1 17.85 -19.05 15.95 -19.1 14.0 -20.0 12.65" fill="#000000" fill-rule="evenodd" stroke="none"/>
    <path d="M-2.85 16.4 Q-5.15 16.85 -7.9 18.6 -8.75 17.05 -8.75 14.95 -8.75 13.6 -8.4 12.5 L-8.4 12.45 -7.7 11.05 -7.65 10.95 -7.05 10.2 -6.65 10.1 Q-6.25 10.0 -4.45 12.3 L-2.6 14.45 -2.75 15.0 -2.85 16.4 M-20.0 12.65 Q-19.1 14.0 -19.05 15.95 -19.1 17.85 -20.0 19.2 L-20.0 19.25 Q-20.6 20.15 -21.35 20.25 -22.2 20.15 -22.8 19.25 L-22.8 19.2 Q-23.5 18.1 -23.65 16.7 L-23.35 15.9 Q-22.05 12.3 -21.05 11.7 -20.5 11.9 -20.0 12.6 L-20.0 12.65" fill="#ffcc99" fill-rule="evenodd" stroke="none"/>
  </g>
</svg>
