<?xml version="1.0" encoding="UTF-8" standalone="no"?>
<svg xmlns:ffdec="https://www.free-decompiler.com/flash" xmlns:xlink="http://www.w3.org/1999/xlink" ffdec:objectType="shape" height="20.55px" width="33.75px" xmlns="http://www.w3.org/2000/svg">
  <g transform="matrix(1.0, 0.0, 0.0, 1.0, 30.55, -4.05)">
    <path d="M3.2 14.1 L3.2 14.2 Q3.2 18.4 0.85 21.35 -1.5 24.35 -4.8 24.35 -8.1 24.35 -10.45 21.35 -12.8 18.4 -12.8 14.2 L-12.8 14.1 Q-12.75 9.95 -10.45 7.0 -8.1 4.05 -4.8 4.05 -1.5 4.05 0.85 7.0 3.15 9.95 3.2 14.1 M-14.55 14.45 Q-14.55 18.65 -16.9 21.6 -19.25 24.6 -22.55 24.6 -25.85 24.6 -28.2 21.6 -30.55 18.65 -30.55 14.45 L-30.55 14.35 Q-30.5 10.2 -28.25 7.4 -25.95 4.6 -23.65 7.15 -21.35 9.7 -18.35 11.1 -15.35 12.5 -14.95 13.45 L-14.55 14.45" fill="#ebb6ad" fill-rule="evenodd" stroke="none"/>
    <path d="M-1.15 14.95 Q-1.15 17.85 -2.55 19.9 -3.9 21.95 -5.85 21.95 -7.75 21.95 -9.15 19.9 -10.5 17.85 -10.5 14.95 -10.5 13.35 -10.1 12.0 -9.8 10.9 -9.15 10.0 L-8.15 8.85 Q-7.1 7.95 -5.85 7.95 -3.9 7.95 -2.55 10.0 -1.15 12.05 -1.15 14.95 M-23.6 14.9 L-19.1 16.75 Q-19.3 18.15 -20.0 19.2 L-20.0 19.25 Q-20.6 20.15 -21.35 20.25 -22.2 20.15 -22.8 19.25 L-22.8 19.2 Q-23.7 17.85 -23.7 15.95 L-23.6 14.9" fill="#ffcc99" fill-rule="evenodd" stroke="none"/>
    <path d="M-24.05 11.2 L-23.45 11.75 -15.65 15.25 -15.55 15.85 -15.55 16.0 Q-15.6 19.05 -17.1 21.2 L-17.05 21.15 Q-18.8 23.85 -21.35 23.75 -23.9 23.85 -25.7 21.2 -27.2 19.05 -27.2 15.95 L-26.9 13.5 -29.65 11.9 -29.7 11.8 Q-29.95 11.2 -29.65 10.65 L-28.85 9.85 -27.7 9.9 -25.05 11.05 -24.05 11.2 M-23.6 14.9 L-23.7 15.95 Q-23.7 17.85 -22.8 19.2 L-22.8 19.25 Q-22.2 20.15 -21.35 20.25 -20.6 20.15 -20.0 19.25 L-20.0 19.2 Q-19.3 18.15 -19.1 16.75 L-23.6 14.9" fill="#000000" fill-rule="evenodd" stroke="none"/>
    <path d="M-1.15 14.95 Q-1.15 17.85 -2.55 19.9 -3.9 21.95 -5.85 21.95 -7.75 21.95 -9.15 19.9 -10.5 17.85 -10.5 14.95 -10.5 13.35 -10.1 12.0 -9.8 10.9 -9.15 10.0 L-8.15 8.85 Q-7.1 7.95 -5.85 7.95 -3.9 7.95 -2.55 10.0 -1.15 12.05 -1.15 14.95 Z" fill="none" stroke="#000000" stroke-linecap="round" stroke-linejoin="round" stroke-width="3.5"/>
  </g>
</svg>
