<?xml version="1.0" encoding="UTF-8" standalone="no"?>
<svg xmlns:ffdec="https://www.free-decompiler.com/flash" xmlns:xlink="http://www.w3.org/1999/xlink" ffdec:objectType="shape" height="102.0px" width="118.5px" xmlns="http://www.w3.org/2000/svg">
  <g transform="matrix(1.0, 0.0, 0.0, 1.0, 45.0, -0.55)">
    <path d="M30.4 64.0 L30.55 64.1 30.5 64.2 30.4 64.0" fill="#764928" fill-rule="evenodd" stroke="none"/>
    <path d="M15.2 15.6 L15.35 16.5 14.15 15.25 14.1 15.2 Q12.55 13.7 10.15 13.8 8.35 13.8 7.1 14.75 5.8 14.05 4.4 13.5 -2.15 10.7 -9.6 10.3 L-12.8 10.2 Q-14.15 10.0 -15.9 10.2 -21.75 10.7 -31.55 15.2 -44.35 21.0 -44.0 38.25 L-37.05 36.05 -36.65 36.55 -33.15 40.65 Q-26.65 37.9 -20.4 36.05 L-20.2 36.0 -20.0 36.0 Q-15.35 36.7 -10.65 40.5 -5.35 38.95 0.05 35.9 L0.35 35.75 0.7 35.75 Q5.15 36.3 9.6 39.8 14.35 36.2 19.2 35.15 L19.55 33.8 19.9 30.5 19.65 27.7 19.8 25.9 19.4 23.25 20.6 24.55 20.65 24.6 Q21.3 25.2 22.15 25.55 22.65 29.1 21.7 33.55 L22.8 35.95 22.85 35.95 23.15 36.75 23.2 36.9 23.55 37.8 23.5 37.85 24.65 41.65 Q27.85 55.95 19.4 67.65 L19.35 67.7 19.45 67.7 Q24.1 67.6 28.6 64.85 L28.5 64.6 29.35 64.35 30.05 63.9 30.15 64.1 30.4 64.0 30.6 64.55 30.7 64.85 31.15 65.55 30.95 65.7 Q35.25 80.55 25.85 93.05 L23.2 96.15 Q20.65 98.65 17.5 100.45 L18.6 100.5 29.5 98.95 30.2 98.7 30.25 98.65 30.25 98.7 31.0 98.4 36.05 95.8 Q44.8 90.3 46.0 79.9 L46.4 77.05 47.2 77.0 48.0 79.75 Q48.5 81.85 49.35 83.65 L50.05 85.1 50.35 85.6 50.5 85.85 Q53.5 90.6 59.15 92.3 L59.2 92.3 59.15 92.3 61.95 92.9 65.15 93.25 Q58.45 85.85 56.05 75.75 L55.65 74.15 55.6 74.1 57.3 74.55 Q62.6 76.15 67.45 75.15 61.45 72.35 57.7 66.65 49.7 54.5 46.95 39.8 44.45 26.75 35.95 16.5 26.6 5.3 11.9 3.0 -0.95 0.95 -11.6 7.7 -0.85 8.15 9.1 12.25 12.0 13.4 15.2 15.6 M12.2 1.05 L12.2 1.0 Q27.7 3.4 37.5 15.2 46.35 25.85 48.9 39.45 51.6 53.7 59.35 65.55 63.55 71.9 70.85 74.3 L73.5 75.25 70.85 76.2 Q65.0 78.4 58.4 76.9 61.15 86.6 68.2 93.55 L69.85 95.2 67.55 95.25 Q63.05 95.4 58.65 94.25 L58.65 94.2 Q50.6 91.9 47.3 84.0 44.95 92.55 37.1 97.5 26.35 104.15 13.85 102.0 L11.05 101.6 11.0 101.2 13.65 100.1 Q20.1 97.45 24.25 91.85 32.85 80.4 29.15 66.8 23.4 70.25 17.3 69.6 L15.5 69.45 16.65 68.0 Q25.9 56.45 22.7 42.1 L21.45 37.9 21.35 37.65 20.9 36.55 20.8 36.85 20.2 37.0 Q15.1 38.0 10.1 41.05 9.8 41.2 9.55 41.4 L9.0 41.05 Q4.85 38.4 0.75 37.8 -5.05 41.0 -10.8 41.5 L-11.1 41.55 -11.4 41.35 Q-15.8 38.7 -20.1 38.05 L-33.0 41.7 -33.3 41.75 -33.6 41.65 Q-35.8 40.8 -37.8 38.3 L-45.0 40.05 -45.0 38.75 Q-45.05 19.8 -31.85 13.5 -20.15 7.8 -15.0 7.65 -2.85 -1.4 12.2 1.05" fill="#3e2615" fill-rule="evenodd" stroke="none"/>
    <path d="M30.25 98.65 L30.9 98.25 31.0 98.4 30.25 98.65" fill="#5a381f" fill-rule="evenodd" stroke="none"/>
    <path d="M23.45 12.05 Q23.15 9.35 20.65 8.0 L20.5 7.95 20.3 8.0 Q17.85 7.85 16.45 9.45 10.85 7.95 5.0 8.45 7.85 8.85 15.2 11.8 14.85 12.8 14.95 13.9 L15.2 15.6 Q12.0 13.4 9.1 12.25 -0.85 8.15 -11.6 7.7 -0.95 0.95 11.9 3.0 26.6 5.3 35.95 16.5 44.45 26.75 46.95 39.8 49.7 54.5 57.7 66.65 61.45 72.35 67.45 75.15 62.6 76.15 57.3 74.55 L55.6 74.1 Q48.8 65.95 46.0 55.8 43.95 48.4 42.75 40.65 41.4 31.75 36.5 24.0 31.45 16.0 23.45 12.05 M7.1 14.75 Q6.15 15.4 5.5 16.65 L5.45 16.75 5.45 16.95 5.6 18.55 5.05 17.9 3.9 16.75 Q1.2 14.25 -2.75 13.2 L-9.6 12.4 Q-15.5 12.4 -23.2 14.45 -43.8 19.85 -42.3 35.15 -41.3 29.9 -30.55 21.4 -42.55 34.65 -33.05 37.9 -31.95 28.3 -18.1 17.5 -28.55 33.65 -22.55 34.9 -20.65 34.55 -16.65 27.35 -21.1 36.95 -9.8 38.1 -9.95 27.8 -3.55 15.9 -10.35 42.25 1.2 31.9 2.45 32.4 5.3 34.7 8.1 37.0 10.45 31.9 12.25 27.9 8.0 21.65 L7.85 21.45 9.05 22.0 11.4 22.3 14.0 21.9 12.75 23.15 12.65 23.15 Q11.2 24.7 11.3 27.1 11.3 30.25 14.15 31.75 L14.25 31.85 14.45 31.8 Q18.15 31.95 19.5 28.25 L19.5 28.2 19.65 27.7 19.9 30.5 19.55 33.8 19.2 35.15 Q14.35 36.2 9.6 39.8 5.15 36.3 0.7 35.75 L0.35 35.75 0.05 35.9 Q-5.35 38.95 -10.65 40.5 -15.35 36.7 -20.0 36.0 L-20.2 36.0 -20.4 36.05 Q-26.65 37.9 -33.15 40.65 L-36.65 36.55 -37.05 36.05 -44.0 38.25 Q-44.35 21.0 -31.55 15.2 -21.75 10.7 -15.9 10.2 -14.15 10.0 -12.8 10.2 L-9.6 10.3 Q-2.15 10.7 4.4 13.5 5.8 14.05 7.1 14.75 M22.15 25.55 L24.6 26.0 25.95 25.85 27.45 30.65 Q31.7 46.25 26.9 57.8 24.4 63.7 19.45 67.7 L19.4 67.65 Q27.85 55.95 24.65 41.65 L23.5 37.85 23.55 37.8 23.2 36.9 23.15 36.75 22.85 35.95 22.8 35.95 21.7 33.55 Q22.65 29.1 22.15 25.55 M22.0 17.65 L20.75 17.9 21.6 17.1 22.0 17.65 M30.55 64.1 L32.6 60.3 Q36.65 51.65 34.95 42.9 34.45 40.3 34.8 40.8 L35.85 44.1 Q37.75 52.2 38.0 61.4 38.6 85.4 23.2 96.15 L25.85 93.05 Q35.25 80.55 30.95 65.7 L31.15 65.55 30.7 64.85 30.6 64.55 30.5 64.2 30.55 64.1 M30.9 98.25 Q33.6 96.35 35.95 93.9 46.65 82.5 44.75 66.9 45.95 71.95 47.95 76.4 53.1 88.1 61.95 92.9 L59.15 92.3 Q53.5 90.6 50.5 85.85 L50.35 85.6 50.05 85.1 49.35 83.65 Q48.5 81.85 48.0 79.75 L47.2 77.0 46.4 77.05 46.0 79.9 Q44.8 90.3 36.05 95.8 L31.0 98.4 30.9 98.25" fill="#672712" fill-rule="evenodd" stroke="none"/>
    <path d="M16.45 9.45 Q15.7 10.25 15.25 11.5 L15.25 11.55 15.2 11.8 Q7.85 8.85 5.0 8.45 10.85 7.95 16.45 9.45 M5.6 18.55 Q6.05 20.4 7.85 21.45 L8.0 21.65 Q12.25 27.9 10.45 31.9 8.1 37.0 5.3 34.7 2.45 32.4 1.2 31.9 -10.35 42.25 -3.55 15.9 -9.95 27.8 -9.8 38.1 -21.1 36.95 -16.65 27.35 -20.65 34.55 -22.55 34.9 -28.55 33.65 -18.1 17.5 -31.95 28.3 -33.05 37.9 -42.55 34.65 -30.55 21.4 -41.3 29.9 -42.3 35.15 -43.8 19.85 -23.2 14.45 -15.5 12.4 -9.6 12.4 L-2.75 13.2 Q1.2 14.25 3.9 16.75 L5.05 17.9 5.6 18.55 M25.95 25.85 Q28.1 25.3 29.25 23.15 L29.3 23.0 29.3 22.8 Q29.45 19.1 25.75 17.8 L25.7 17.8 23.4 17.5 22.0 17.65 21.6 17.1 22.05 16.65 22.05 16.6 Q23.5 15.05 23.45 12.65 L23.45 12.05 Q31.45 16.0 36.5 24.0 41.4 31.75 42.75 40.65 43.95 48.4 46.0 55.8 48.8 65.95 55.6 74.1 L55.65 74.15 56.05 75.75 Q58.45 85.85 65.15 93.25 L61.95 92.9 Q53.1 88.1 47.95 76.4 45.95 71.95 44.75 66.9 46.65 82.5 35.95 93.9 33.6 96.35 30.9 98.25 L30.25 98.65 30.2 98.7 29.5 98.95 18.6 100.5 17.5 100.45 Q20.65 98.65 23.2 96.15 38.6 85.4 38.0 61.4 37.75 52.2 35.85 44.1 L34.8 40.8 Q34.45 40.3 34.95 42.9 36.65 51.65 32.6 60.3 L30.55 64.1 30.4 64.0 30.15 64.1 30.05 63.9 29.35 64.35 28.5 64.6 28.6 64.85 Q24.1 67.6 19.45 67.7 24.4 63.7 26.9 57.8 31.7 46.25 27.45 30.65 L25.95 25.85" fill="#823a1c" fill-rule="evenodd" stroke="none"/>
    <path d="M16.45 9.45 Q17.85 7.85 20.3 8.0 L20.5 7.95 20.65 8.0 Q23.15 9.35 23.45 12.05 L23.45 12.65 Q23.5 15.05 22.05 16.6 L22.05 16.65 21.6 17.1 20.75 17.9 22.0 17.65 23.4 17.5 25.7 17.8 25.75 17.8 Q29.45 19.1 29.3 22.8 L29.3 23.0 29.25 23.15 Q28.1 25.3 25.95 25.85 L24.6 26.0 22.15 25.55 Q21.3 25.2 20.65 24.6 L20.6 24.55 19.4 23.25 19.8 25.9 19.65 27.7 19.5 28.2 19.5 28.25 Q18.15 31.95 14.45 31.8 L14.25 31.85 14.15 31.75 Q11.3 30.25 11.3 27.1 11.2 24.7 12.65 23.15 L12.75 23.15 14.0 21.9 11.4 22.3 9.05 22.0 7.85 21.45 Q6.05 20.4 5.6 18.55 L5.45 16.95 5.45 16.75 5.5 16.65 Q6.15 15.4 7.1 14.75 8.35 13.8 10.15 13.8 12.55 13.7 14.1 15.2 L14.15 15.25 15.35 16.5 15.2 15.6 14.95 13.9 Q14.85 12.8 15.2 11.8 L15.25 11.55 15.25 11.5 Q15.7 10.25 16.45 9.45 M19.2 17.35 L20.75 15.95 21.05 15.65 21.0 15.65 Q22.05 14.45 22.05 12.65 L21.8 11.25 Q21.35 10.05 20.05 9.4 18.95 9.4 18.2 9.95 17.15 10.55 16.65 12.0 L16.65 12.05 16.55 12.4 Q16.35 13.05 16.45 13.75 L16.9 16.85 17.0 17.2 16.55 17.4 Q15.75 17.9 15.4 18.75 L13.15 16.3 13.1 16.25 Q11.9 15.2 10.1 15.2 L8.6 15.5 Q7.5 16.0 6.9 17.2 6.95 19.65 9.5 20.6 L9.55 20.6 11.25 20.8 14.7 20.25 15.0 20.15 15.15 20.1 15.15 20.35 15.5 21.25 16.05 22.0 13.75 24.15 Q12.65 25.35 12.7 27.15 12.7 29.35 14.7 30.35 17.15 30.3 18.1 27.75 L18.3 26.05 18.0 23.7 17.8 22.75 19.35 22.3 20.0 21.85 21.65 23.55 21.6 23.5 21.75 23.6 Q22.9 24.55 24.6 24.55 L25.45 24.5 Q27.0 24.15 27.85 22.6 27.8 20.1 25.2 19.15 L23.5 18.95 22.85 19.0 20.75 19.35 20.4 18.45 19.2 17.35" fill="#4e3661" fill-rule="evenodd" stroke="none"/>
    <path d="M17.0 17.2 L16.9 16.85 16.45 13.75 Q16.35 13.05 16.55 12.4 L16.65 12.05 16.65 12.0 Q17.15 10.55 18.2 9.95 18.95 9.4 20.05 9.4 21.35 10.05 21.8 11.25 L22.05 12.65 Q22.05 14.45 21.0 15.65 L21.05 15.65 20.75 15.95 19.2 17.35 18.7 17.2 17.3 17.15 17.0 17.2 M20.75 19.35 L22.85 19.0 23.5 18.95 25.2 19.15 Q27.8 20.1 27.85 22.6 27.0 24.15 25.45 24.5 L24.6 24.55 Q22.9 24.55 21.75 23.6 L21.6 23.5 21.65 23.55 20.0 21.85 20.6 20.95 20.7 20.65 20.75 19.35 M17.8 22.75 L18.0 23.7 18.3 26.05 18.1 27.75 Q17.15 30.3 14.7 30.35 12.7 29.35 12.7 27.15 12.65 25.35 13.75 24.15 L16.05 22.0 Q16.55 22.45 17.25 22.65 L17.3 22.65 17.8 22.75 M15.15 20.1 L15.0 20.15 14.7 20.25 11.25 20.8 9.55 20.6 9.5 20.6 Q6.95 19.65 6.9 17.2 7.5 16.0 8.6 15.5 L10.1 15.2 Q11.9 15.2 13.1 16.25 L13.15 16.3 15.4 18.75 15.25 19.15 15.15 20.1" fill="#9c7cb6" fill-rule="evenodd" stroke="none"/>
    <path d="M19.2 17.35 L20.4 18.45 20.75 19.35 20.7 20.65 20.6 20.95 20.0 21.85 19.35 22.3 17.8 22.75 17.3 22.65 17.25 22.65 Q16.55 22.45 16.05 22.0 L15.5 21.25 15.15 20.35 15.15 20.1 15.25 19.15 15.4 18.75 Q15.75 17.9 16.55 17.4 L17.0 17.2 17.3 17.15 18.7 17.2 19.2 17.35" fill="#694983" fill-rule="evenodd" stroke="none"/>
  </g>
</svg>
