<?xml version="1.0" encoding="UTF-8" standalone="no"?>
<svg xmlns:ffdec="https://www.free-decompiler.com/flash" xmlns:xlink="http://www.w3.org/1999/xlink" ffdec:objectType="shape" height="15.25px" width="23.8px" xmlns="http://www.w3.org/2000/svg">
  <g transform="matrix(1.0, 0.0, 0.0, 1.0, 10.9, 9.3)">
    <path d="M10.85 -4.1 L10.55 -2.9 Q1.05 -7.05 -8.5 -2.9 L-8.85 -3.5 -8.35 -4.35 Q1.55 -11.7 10.85 -4.1" fill="#8a65a9" fill-rule="evenodd" stroke="none"/>
    <path d="M10.85 -4.1 Q1.55 -11.7 -8.35 -4.35 L-8.85 -3.5 -8.5 -2.9 Q1.05 -7.05 10.55 -2.9 L10.85 -4.1 M1.0 -9.3 Q5.75 -9.3 9.1 -7.85 12.5 -6.55 12.85 -4.5 L12.9 -3.8 12.85 -3.2 12.85 -0.1 12.9 0.45 12.85 1.1 12.85 1.15 12.85 1.2 Q12.4 3.2 9.1 4.6 5.7 5.95 1.0 5.95 -3.7 5.95 -7.05 4.6 -10.4 3.2 -10.8 1.2 L-10.85 1.05 -10.9 0.45 -10.85 -0.1 -10.85 -3.2 -10.9 -3.8 -10.8 -4.45 Q-10.5 -6.55 -7.05 -7.85 L-7.1 -7.85 Q-3.75 -9.3 1.0 -9.3" fill="#3e2c4e" fill-rule="evenodd" stroke="none"/>
  </g>
</svg>
