<?xml version="1.0" encoding="UTF-8" standalone="no"?>
<svg xmlns:ffdec="https://www.free-decompiler.com/flash" xmlns:xlink="http://www.w3.org/1999/xlink" ffdec:objectType="shape" height="30.85px" width="41.2px" xmlns="http://www.w3.org/2000/svg">
  <g transform="matrix(1.0, 0.0, 0.0, 1.0, 34.55, 7.1)">
    <path d="M-31.4 13.95 Q-33.45 9.3 -34.55 7.45 L-34.15 7.1 -33.4 7.05 Q-25.4 9.85 -16.85 8.55 -2.9 6.15 3.6 -6.45 3.8 -6.8 4.2 -6.95 L4.55 -7.0 4.6 -7.0 4.75 -7.1 6.2 -0.35 Q7.05 4.85 6.25 12.35 L6.0 12.95 5.8 13.35 Q-3.25 25.65 -18.6 23.4 -26.65 22.1 -31.4 14.0 L-31.4 13.95 M4.6 2.95 L4.2 -2.45 4.1 -3.25 Q-2.9 8.15 -16.5 10.5 L-16.55 10.5 Q-21.8 11.35 -26.85 10.65 L-27.6 10.5 -27.9 10.55 -28.3 10.45 -32.1 9.6 -30.95 11.0 -30.4 11.85 -29.7 12.95 -29.6 13.05 -28.9 14.2 -28.9 14.15 -28.7 14.1 -24.65 16.8 -21.9 16.1 -21.5 16.0 -19.4 15.55 -19.25 15.5 -18.35 15.5 -18.25 15.75 -18.3 16.0 -18.35 16.0 -23.3 17.55 -23.8 19.05 -23.8 19.15 -23.85 19.25 -23.85 19.3 -21.7 20.45 -18.3 21.45 -18.3 21.4 Q-9.55 22.7 -3.0 18.85 L-2.95 18.9 -3.25 19.15 -2.55 18.6 -2.25 18.4 1.55 15.2 2.15 14.6 4.2 12.15 4.25 12.1 4.25 12.05 4.5 12.05 4.55 11.25 Q3.6 10.45 3.05 10.45 0.8 10.45 -0.95 11.25 L-1.05 11.3 -1.6 11.65 -2.65 12.2 -2.7 12.2 -2.8 12.2 -3.3 12.2 -3.4 12.0 Q-3.4 11.6 -2.0 10.95 L-1.55 10.75 -1.5 10.75 -1.0 10.55 -0.05 10.2 0.05 10.15 0.2 10.1 3.35 8.85 Q4.1 7.75 4.65 6.1 L4.65 6.85 4.7 6.05 4.7 6.0 4.65 3.85 4.55 3.15 4.6 3.05 4.6 2.95 M-27.15 16.5 L-25.45 18.1 -24.0 19.2 -24.85 18.6 -24.9 18.15 Q-24.9 17.9 -26.7 16.7 L-27.3 16.3 -27.15 16.5" fill="#682424" fill-rule="evenodd" stroke="none"/>
    <path d="M-29.7 12.95 L-30.4 11.85 -30.95 11.0 -32.1 9.6 -28.3 10.45 -27.9 10.55 -27.6 10.5 -26.85 10.65 Q-21.8 11.35 -16.55 10.5 L-16.5 10.5 Q-2.9 8.15 4.1 -3.25 L4.2 -2.45 4.6 2.95 4.55 3.0 4.45 3.15 4.55 3.15 4.65 3.85 4.7 6.0 4.7 6.05 4.65 6.1 Q4.1 7.75 3.35 8.85 L0.2 10.1 0.05 10.15 -0.05 10.2 -1.0 10.55 -1.5 10.75 -1.55 10.75 -1.75 10.75 -2.0 10.95 Q-3.4 11.6 -3.4 12.0 L-3.3 12.2 -2.8 12.2 -2.7 12.2 -2.65 12.2 -1.6 11.65 -1.05 11.3 -1.0 11.3 -0.95 11.3 -0.95 11.25 Q0.8 10.45 3.05 10.45 3.6 10.45 4.55 11.25 L4.5 12.05 4.25 12.05 4.25 12.1 4.2 12.15 2.15 14.6 1.55 15.2 Q1.35 11.95 -1.25 11.95 L-3.7 12.65 -3.95 12.6 -4.05 12.3 Q-4.05 11.6 0.0 8.55 0.5 8.15 0.95 6.95 -0.45 8.0 -2.25 8.8 -7.0 10.85 -8.8 11.3 -15.15 12.8 -18.9 12.8 L-27.4 12.05 -30.15 11.25 Q-26.6 15.55 -21.3 15.55 L-17.0 15.3 -14.45 15.4 Q-14.35 15.45 -14.4 15.65 -15.55 16.4 -19.2 17.95 -20.6 18.85 -21.1 20.65 L-21.7 20.45 -23.85 19.3 -23.85 19.25 -23.8 19.15 -23.8 19.1 -23.8 19.05 -23.3 17.55 -18.35 16.0 -18.3 16.0 -18.25 15.75 -18.35 15.5 -19.25 15.5 -19.4 15.55 -21.5 16.0 -21.9 16.1 -24.65 16.8 -28.7 14.1 -28.9 14.15 -28.9 14.2 -29.6 13.05 -29.65 12.95 -29.7 12.95" fill="#e5e5e5" fill-rule="evenodd" stroke="none"/>
    <path d="M4.6 2.95 L4.6 3.05 4.55 3.15 4.45 3.15 4.55 3.0 4.6 2.95 M-1.55 10.75 L-2.0 10.95 -1.75 10.75 -1.55 10.75 M1.55 15.2 L-2.25 18.4 -2.55 18.6 -3.0 18.85 Q-9.55 22.7 -18.3 21.4 L-18.3 21.45 -21.7 20.45 -21.1 20.65 Q-20.6 18.85 -19.2 17.95 -15.55 16.4 -14.4 15.65 -14.35 15.45 -14.45 15.4 L-17.0 15.3 -21.3 15.55 Q-26.6 15.55 -30.15 11.25 L-27.4 12.05 -18.9 12.8 Q-15.15 12.8 -8.8 11.3 -7.0 10.85 -2.25 8.8 -0.45 8.0 0.95 6.95 0.5 8.15 0.0 8.55 -4.05 11.6 -4.05 12.3 L-3.95 12.6 -3.7 12.65 -1.25 11.95 Q1.35 11.95 1.55 15.2 M-1.0 11.3 L-0.95 11.25 -0.95 11.3 -1.0 11.3" fill="#f9f9f9" fill-rule="evenodd" stroke="none"/>
    <path d="M-31.4 13.95 L-31.4 14.0 -31.4 13.95 M-1.05 11.3 L-0.95 11.25 -1.0 11.3 -1.05 11.3 M-2.95 18.9 L-3.0 18.85 -2.55 18.6 -2.95 18.9 M-29.6 13.05 L-29.7 12.95 -29.65 12.95 -29.6 13.05" fill="#463624" fill-rule="evenodd" stroke="none"/>
    <path d="M-23.8 19.15 L-23.8 19.05 -23.8 19.1 -23.8 19.15 M-27.15 16.5 L-27.3 16.3 -26.7 16.7 Q-24.9 17.9 -24.9 18.15 L-24.85 18.6 -24.0 19.2 -25.45 18.1 -27.15 16.5" fill="#57352d" fill-rule="evenodd" stroke="none"/>
  </g>
</svg>
