<?xml version="1.0" encoding="UTF-8" standalone="no"?>
<svg xmlns:ffdec="https://www.free-decompiler.com/flash" xmlns:xlink="http://www.w3.org/1999/xlink" ffdec:objectType="shape" height="14.65px" width="27.85px" xmlns="http://www.w3.org/2000/svg">
  <g transform="matrix(1.0, 0.0, 0.0, 1.0, 22.6, -4.5)">
    <path d="M4.5 7.2 Q5.25 8.3 5.25 10.75 5.25 13.2 1.85 15.75 -2.65 19.1 -10.25 19.1 L-14.85 19.0 -14.9 19.0 -16.1 19.15 Q-23.0 19.15 -22.55 13.55 L-22.45 12.75 Q-21.8 9.8 -15.65 7.2 -9.35 4.5 -3.0 4.5 2.75 4.5 4.5 7.2 M-19.25 17.2 L-19.05 17.3 -18.1 17.7 Q-6.35 18.85 -1.0 15.7 3.35 13.15 3.35 10.4 3.35 6.25 -4.25 6.25 -12.05 6.25 -17.3 9.55 -19.4 10.85 -21.05 12.35 L-20.35 13.3 -19.75 14.05 Q-17.95 12.35 -12.25 12.1 L-11.0 12.35 -10.95 12.55 -15.25 13.85 Q-16.15 14.15 -18.0 15.45 L-18.1 15.7 -19.15 17.0 -19.5 17.1 -19.25 17.2" fill="#682424" fill-rule="evenodd" stroke="none"/>
    <path d="M-11.0 12.35 L-12.25 12.1 Q-17.95 12.35 -19.75 14.05 L-20.35 13.3 -21.05 12.35 Q-19.4 10.85 -17.3 9.55 -12.05 6.25 -4.25 6.25 3.35 6.25 3.35 10.4 3.35 13.15 -1.0 15.7 -6.35 18.85 -18.1 17.7 L-19.05 17.3 -19.25 17.2 -19.15 17.0 -18.1 15.7 -18.0 15.5 -18.0 15.45 Q-16.15 14.15 -15.25 13.85 L-10.95 12.55 -10.9 12.5 -11.0 12.35" fill="#e5e5e5" fill-rule="evenodd" stroke="none"/>
    <path d="M-11.0 12.35 L-10.9 12.5 -10.95 12.55 -11.0 12.35 M-18.0 15.45 L-18.0 15.5 -18.1 15.7 -18.0 15.45" fill="#463624" fill-rule="evenodd" stroke="none"/>
  </g>
</svg>
