<?xml version="1.0" encoding="UTF-8" standalone="no"?>
<svg xmlns:ffdec="https://www.free-decompiler.com/flash" xmlns:xlink="http://www.w3.org/1999/xlink" ffdec:objectType="shape" height="107.9px" width="93.15px" xmlns="http://www.w3.org/2000/svg">
  <g transform="matrix(1.0, 0.0, 0.0, 1.0, -29.6, 35.1)">
    <path d="M54.15 -31.95 Q53.4 -27.2 50.5 -23.3 41.75 -11.7 44.7 3.4 L44.75 3.65 44.7 4.05 44.05 8.1 Q42.6 16.45 42.85 25.05 L43.0 25.9 43.0 34.35 Q43.45 38.95 48.35 46.5 53.25 54.1 54.3 64.95 66.0 61.45 62.55 46.0 L61.95 43.1 63.15 42.7 64.4 45.35 Q75.5 69.65 95.2 70.7 92.5 64.1 95.15 62.25 L95.6 61.8 96.25 62.15 Q108.85 68.85 118.7 62.05 101.15 54.75 101.6 28.3 102.05 1.55 94.45 -18.25 86.95 -37.25 54.15 -31.95 M52.25 -32.9 L52.35 -33.65 53.1 -33.75 Q88.45 -39.75 96.3 -18.95 104.05 1.15 103.6 28.35 103.15 54.4 121.1 60.8 L122.75 61.5 121.4 62.55 Q110.35 71.5 96.05 64.3 95.25 66.1 97.65 71.35 L98.35 72.8 96.75 72.75 Q77.1 72.8 65.35 51.6 65.9 64.45 53.65 67.2 L52.5 67.5 52.4 66.3 Q51.55 55.2 46.65 47.6 42.5 41.15 41.4 36.7 39.85 40.05 43.45 48.65 L44.15 50.35 42.35 50.0 Q30.0 48.5 30.0 18.5 L30.0 18.45 29.6 18.1 30.0 17.65 30.0 17.5 30.1 17.5 42.7 3.4 Q39.75 -12.35 48.9 -24.5 51.7 -28.3 52.25 -32.9 M42.1 7.05 L32.0 18.4 32.0 18.5 Q32.0 43.8 40.85 47.5 36.85 36.95 41.0 33.9 L41.0 26.15 40.9 25.45 40.85 25.35 40.85 25.25 Q40.6 16.35 42.1 7.75 L42.2 7.15 42.2 6.95 42.1 7.05" fill="#c28127" fill-rule="evenodd" stroke="none"/>
    <path d="M54.15 -31.95 Q86.95 -37.25 94.45 -18.25 102.05 1.55 101.6 28.3 101.15 54.75 118.7 62.05 108.85 68.85 96.25 62.15 L95.6 61.8 95.15 62.25 Q92.5 64.1 95.2 70.7 75.5 69.65 64.4 45.35 L63.15 42.7 61.95 43.1 62.55 46.0 Q66.0 61.45 54.3 64.95 53.25 54.1 48.35 46.5 43.45 38.95 43.0 34.35 L43.0 25.9 42.85 25.05 Q42.6 16.45 44.05 8.1 L44.7 4.05 44.75 3.65 44.7 3.4 Q41.75 -11.7 50.5 -23.3 53.4 -27.2 54.15 -31.95 M42.1 7.05 L42.2 7.15 42.1 7.75 Q40.6 16.35 40.85 25.25 L40.85 25.35 40.9 25.45 41.0 26.15 41.0 33.9 Q36.85 36.95 40.85 47.5 32.0 43.8 32.0 18.5 L32.0 18.4 42.1 7.05" fill="#f2cd5e" fill-rule="evenodd" stroke="none"/>
  </g>
</svg>
