<?xml version="1.0" encoding="UTF-8" standalone="no"?>
<svg xmlns:ffdec="https://www.free-decompiler.com/flash" xmlns:xlink="http://www.w3.org/1999/xlink" ffdec:objectType="shape" height="169.2px" width="66.4px" xmlns="http://www.w3.org/2000/svg">
  <g transform="matrix(1.0, 0.0, 0.0, 1.0, 30.2, 133.85)">
    <path d="M14.0 -19.5 L6.6 -19.15 Q-7.95 -19.0 -14.5 -22.0 -19.05 -24.15 -19.3 -28.0 L-18.5 -27.1 Q-12.9 -21.75 6.6 -21.9 L13.95 -22.3 14.0 -19.5" fill="#ffffff" fill-rule="evenodd" stroke="none"/>
    <path d="M-16.75 -20.95 L-15.3 -20.2 -15.05 -20.1 -17.2 -9.25 -19.05 -10.1 -16.75 -20.95 M13.4 -17.45 L15.15 -17.65 16.2 -6.65 14.45 -6.5 13.4 -17.45 M27.05 -21.1 L28.6 -22.2 31.45 -10.15 29.75 -9.75 27.05 -21.1 M14.35 -3.7 Q18.3 -2.25 20.55 0.0 L20.5 0.0 Q18.2 3.55 7.2 4.55 16.85 6.15 22.7 3.3 23.5 5.05 24.0 7.5 L23.95 7.45 Q22.9 10.95 15.7 12.95 20.2 14.55 24.65 12.95 24.65 15.4 23.8 17.6 20.05 21.55 12.95 22.35 17.05 23.45 19.95 22.95 L19.25 23.55 Q13.3 28.5 5.45 28.1 -2.4 27.65 -9.05 22.05 -15.75 16.45 -17.75 6.35 -19.8 -3.75 -18.5 -5.7 -17.75 -6.95 -13.0 -6.3 -8.7 -2.1 -3.45 -1.2 L3.6 -3.2 14.35 -3.7" fill="#244773" fill-rule="evenodd" stroke="none"/>
    <path d="M0.05 -6.5 Q5.5 -6.15 12.5 -6.2 L12.55 -5.3 14.55 -5.5 14.5 -6.2 16.25 -6.25 16.3 -5.65 18.3 -5.85 18.25 -6.3 26.2 -6.65 31.7 -1.6 Q36.0 14.3 27.2 24.3 18.4 34.1 6.5 33.25 -5.5 32.3 -13.8 20.25 -22.3 8.0 -21.6 -8.25 L-21.2 -13.3 -20.5 -12.95 -21.2 -9.75 -19.2 -9.35 -19.05 -10.1 -17.2 -9.25 -17.45 -8.0 -15.5 -7.6 -15.15 -9.4 Q-12.75 -8.35 -9.15 -7.65 -6.85 -5.75 -3.65 -5.75 -1.6 -5.75 0.05 -6.5 M14.35 -3.7 L3.6 -3.2 -3.45 -1.2 Q-8.7 -2.1 -13.0 -6.3 -17.75 -6.95 -18.5 -5.7 -19.8 -3.75 -17.75 6.35 -15.75 16.45 -9.05 22.05 -2.4 27.65 5.45 28.1 13.3 28.5 19.25 23.55 L19.95 22.95 Q17.05 23.45 12.95 22.35 20.05 21.55 23.8 17.6 24.65 15.4 24.65 12.95 20.2 14.55 15.7 12.95 22.9 10.95 23.95 7.45 L24.0 7.5 Q23.5 5.05 22.7 3.3 16.85 6.15 7.2 4.55 18.2 3.55 20.5 0.0 L20.55 0.0 Q18.3 -2.25 14.35 -3.7" fill="#1c3759" fill-rule="evenodd" stroke="none"/>
    <path d="M-20.85 -25.35 Q-19.8 -22.75 -16.75 -20.95 L-19.05 -10.1 -19.2 -9.35 -21.2 -9.75 -20.5 -12.95 -20.05 -15.0 -19.2 -18.95 -18.8 -21.0 -19.75 -21.6 -20.2 -21.95 Q-21.1 -22.7 -21.3 -23.5 L-21.4 -23.85 -21.4 -23.9 -21.4 -24.0 -20.85 -25.35 M-15.05 -20.1 Q-12.6 -19.0 -9.0 -18.25 -9.2 -18.15 -9.35 -18.0 L-9.35 -17.95 -13.3 -18.9 -13.65 -16.9 -14.5 -12.8 -14.85 -10.85 -11.1 -9.95 Q-10.5 -8.75 -9.35 -7.8 L-9.15 -7.65 Q-12.75 -8.35 -15.15 -9.4 L-15.5 -7.6 -17.45 -8.0 -17.2 -9.25 -15.05 -20.1 M-1.3 -17.35 L6.6 -17.15 13.4 -17.45 14.45 -6.5 16.2 -6.65 15.15 -17.65 Q22.55 -18.5 26.65 -20.9 L27.05 -21.1 29.75 -9.75 31.45 -10.15 28.6 -22.2 Q30.4 -23.65 31.3 -25.55 31.9 -24.85 32.0 -24.05 L32.0 -24.0 32.0 -23.9 Q31.9 -23.0 31.05 -22.15 L31.0 -22.15 30.7 -21.9 31.2 -19.75 32.2 -15.55 32.7 -13.45 34.5 -14.85 35.7 -6.35 Q38.1 15.15 28.7 25.65 19.2 36.2 6.35 35.25 -6.6 34.3 -15.45 21.4 -24.3 8.6 -23.6 -8.35 L-23.05 -14.7 -21.2 -13.3 -21.6 -8.25 Q-22.3 8.0 -13.8 20.25 -5.5 32.3 6.5 33.25 18.4 34.1 27.2 24.3 36.0 14.3 31.7 -1.6 L26.2 -6.65 18.25 -6.3 18.3 -5.85 16.3 -5.65 16.25 -6.25 14.5 -6.2 14.55 -5.5 12.55 -5.3 12.5 -6.2 Q5.5 -6.15 0.05 -6.5 L2.05 -7.8 2.8 -8.5 5.65 -8.45 6.0 -8.45 9.0 -8.5 12.25 -8.65 12.05 -10.65 11.65 -14.9 11.45 -16.9 9.95 -16.8 9.9 -16.8 8.9 -16.75 5.7 -16.7 5.3 -16.7 3.25 -16.7 0.3 -16.85 -1.2 -16.95 -1.3 -16.95 -1.3 -17.35 M25.85 -17.4 L25.4 -19.35 24.6 -19.1 Q21.2 -18.1 17.2 -17.5 L17.4 -15.5 17.8 -11.2 18.0 -9.2 Q22.55 -9.85 26.45 -10.95 L27.35 -11.2 26.9 -13.15 25.85 -17.4" fill="#152c46" fill-rule="evenodd" stroke="none"/>
    <path d="M-21.35 -27.7 Q-21.3 -26.45 -20.85 -25.35 L-21.4 -24.0 -21.4 -23.9 -21.4 -23.85 -21.3 -23.5 Q-21.1 -22.7 -20.2 -21.95 L-19.75 -21.6 -18.8 -21.0 -19.2 -18.95 -20.2 -19.5 -21.5 -20.45 -21.5 -20.4 -21.85 -20.75 -22.2 -18.55 -22.2 -18.6 -22.3 -17.6 -22.3 -17.2 -22.05 -16.75 -21.9 -16.5 -20.9 -15.55 -20.15 -15.05 -20.05 -15.0 -20.5 -12.95 -21.2 -13.3 -23.05 -14.7 -23.4 -15.15 -23.9 -15.15 -23.9 -15.85 -24.25 -16.45 -24.15 -16.5 -24.35 -17.35 -24.35 -17.85 -24.15 -18.95 -23.4 -24.15 Q-23.45 -26.1 -21.35 -27.7 M-9.0 -18.25 L-5.75 -17.75 -6.5 -17.45 -8.05 -16.5 -8.7 -15.8 Q-9.8 -14.55 -9.8 -12.9 L-9.65 -11.7 Q-9.3 -10.45 -8.2 -9.4 L-8.05 -9.3 Q-6.2 -7.75 -3.65 -7.75 -1.7 -7.75 -0.2 -8.6 L-1.35 -8.7 -2.35 -8.75 -2.35 -9.15 -3.6 -9.0 -3.65 -9.0 Q-5.45 -9.05 -6.7 -10.1 -7.4 -10.7 -7.7 -11.35 -8.05 -12.05 -8.05 -12.85 -8.05 -14.4 -6.85 -15.5 L-6.7 -15.6 Q-5.45 -16.75 -3.65 -16.75 L-2.25 -16.55 -2.2 -17.0 -1.3 -16.95 -1.2 -16.95 0.3 -16.85 3.25 -16.7 5.3 -16.7 5.7 -16.7 8.9 -16.75 9.9 -16.8 9.95 -16.8 11.45 -16.9 11.65 -14.9 11.0 -14.85 10.0 -14.8 9.95 -14.8 5.3 -14.7 4.25 -14.7 2.1 -14.75 0.15 -14.85 -1.25 -14.95 -1.3 -14.95 -1.35 -14.95 -1.4 -14.95 -1.85 -15.0 -2.3 -15.0 -2.35 -15.0 -5.45 -15.3 -6.05 -14.85 Q-7.05 -14.05 -7.05 -12.85 -7.05 -11.9 -6.35 -11.15 L-2.3 -10.75 -2.2 -10.75 -1.85 -10.75 -1.4 -10.7 -1.3 -10.75 -1.3 -10.7 -1.2 -10.7 -0.05 -10.6 1.85 -10.5 4.85 -10.45 8.85 -10.5 9.9 -10.55 9.95 -10.55 10.9 -10.6 10.9 -10.55 12.05 -10.65 12.25 -8.65 9.0 -8.5 6.0 -8.45 5.65 -8.45 2.8 -8.5 2.05 -7.8 0.05 -6.5 Q-1.6 -5.75 -3.65 -5.75 -6.85 -5.75 -9.15 -7.65 L-9.35 -7.8 Q-10.5 -8.75 -11.1 -9.95 L-14.85 -10.85 -14.5 -12.8 -11.75 -12.1 -11.8 -12.9 Q-11.8 -14.75 -10.85 -16.2 L-13.65 -16.9 -13.3 -18.9 -9.35 -17.95 -9.35 -18.0 Q-9.2 -18.15 -9.0 -18.25 M31.3 -25.55 L32.0 -27.65 Q34.05 -26.05 34.0 -24.15 L35.2 -19.7 35.2 -19.6 Q35.7 -18.7 35.7 -17.75 L35.7 -17.65 35.7 -17.6 Q35.7 -16.15 34.5 -14.85 L32.7 -13.45 32.2 -15.55 Q33.5 -16.55 33.7 -17.55 L32.75 -21.05 32.4 -20.7 31.2 -19.75 30.7 -21.9 31.0 -22.15 31.05 -22.15 Q31.9 -23.0 32.0 -23.9 L32.0 -24.0 32.0 -24.05 Q31.9 -24.85 31.3 -25.55 M17.4 -15.5 L17.2 -17.5 Q21.2 -18.1 24.6 -19.1 L25.4 -19.35 25.85 -17.4 25.15 -17.2 Q21.55 -16.15 17.4 -15.5 M26.9 -13.15 L27.35 -11.2 26.45 -10.95 Q22.55 -9.85 18.0 -9.2 L17.8 -11.2 Q22.15 -11.8 25.9 -12.85 L26.9 -13.15" fill="#1d1d1d" fill-rule="evenodd" stroke="none"/>
    <path d="M25.85 -17.4 L26.9 -13.15 25.9 -12.85 Q22.15 -11.8 17.8 -11.2 L17.4 -15.5 Q21.55 -16.15 25.15 -17.2 L25.85 -17.4 M12.05 -10.65 L10.9 -10.55 10.9 -10.6 9.95 -10.55 9.9 -10.55 8.85 -10.5 4.85 -10.45 1.85 -10.5 -0.05 -10.6 -1.2 -10.7 -1.3 -10.7 -1.3 -10.75 -1.4 -10.7 -1.85 -10.75 -2.2 -10.75 -2.3 -10.75 -6.35 -11.15 Q-7.05 -11.9 -7.05 -12.85 -7.05 -14.05 -6.05 -14.85 L-5.45 -15.3 -2.35 -15.0 -2.3 -15.0 -1.85 -15.0 -1.4 -14.95 -1.35 -14.95 -1.3 -14.95 -1.25 -14.95 0.15 -14.85 2.1 -14.75 4.25 -14.7 5.3 -14.7 9.95 -14.8 10.0 -14.8 11.0 -14.85 11.65 -14.9 12.05 -10.65 M31.2 -19.75 L32.4 -20.7 32.75 -21.05 33.7 -17.55 Q33.5 -16.55 32.2 -15.55 L31.2 -19.75 M-20.05 -15.0 L-20.15 -15.05 -20.9 -15.55 -21.9 -16.5 -22.05 -16.75 -22.3 -17.2 -22.3 -17.6 -22.2 -18.6 -22.2 -18.55 -21.85 -20.75 -21.5 -20.4 -21.5 -20.45 -20.2 -19.5 -19.2 -18.95 -20.05 -15.0 M-13.65 -16.9 L-10.85 -16.2 Q-11.8 -14.75 -11.8 -12.9 L-11.75 -12.1 -14.5 -12.8 -13.65 -16.9" fill="#333333" fill-rule="evenodd" stroke="none"/>
    <path d="M-5.75 -17.75 L-1.3 -17.35 -1.3 -16.95 -2.2 -17.0 -2.25 -16.55 -3.65 -16.75 Q-5.45 -16.75 -6.7 -15.6 L-6.85 -15.5 Q-8.05 -14.4 -8.05 -12.85 -8.05 -12.05 -7.7 -11.35 -7.4 -10.7 -6.7 -10.1 -5.45 -9.05 -3.65 -9.0 L-3.6 -9.0 -2.35 -9.15 -2.35 -8.75 -1.35 -8.7 -0.2 -8.6 Q-1.7 -7.75 -3.65 -7.75 -6.2 -7.75 -8.05 -9.3 L-8.2 -9.4 Q-9.3 -10.45 -9.65 -11.7 L-9.8 -12.9 Q-9.8 -14.55 -8.7 -15.8 L-8.05 -16.5 -6.5 -17.45 -5.75 -17.75" fill="#666666" fill-rule="evenodd" stroke="none"/>
    <path d="M1.4 -127.95 Q2.7 -127.4 3.35 -126.25 3.75 -125.7 3.6 -124.85 L3.1 -123.4 Q1.0 -119.85 -2.55 -116.75 -6.1 -113.8 -8.7 -110.15 -11.4 -106.55 -12.95 -103.8 -14.6 -101.1 -16.6 -98.8 L-17.4 -96.8 -17.45 -96.8 Q-18.1 -95.15 -18.8 -91.15 L-18.9 -90.65 -19.85 -90.85 -19.8 -91.3 Q-19.1 -95.45 -18.35 -97.2 L-18.35 -97.15 -17.55 -99.15 Q-20.3 -110.25 -15.25 -120.2 L-15.2 -120.25 -15.2 -120.3 Q-12.2 -124.2 -8.45 -127.15 -5.8 -129.1 -2.75 -129.05 L-2.65 -129.05 Q-0.55 -128.6 1.35 -127.95 L1.4 -127.95 M-4.3 -115.9 L-2.9 -117.15 Q0.6 -120.15 2.65 -123.65 L3.1 -124.95 Q3.2 -125.55 2.9 -126.0 2.35 -127.0 1.2 -127.5 L-2.75 -128.55 Q-5.65 -128.6 -8.15 -126.75 -11.4 -124.2 -14.1 -120.9 L-14.8 -120.0 Q-19.8 -110.1 -17.05 -99.1 -15.0 -101.35 -13.4 -104.05 L-9.1 -110.45 Q-7.0 -113.4 -4.3 -115.9 M13.2 -116.9 Q12.15 -117.6 10.9 -117.55 8.1 -117.35 5.7 -114.0 3.2 -110.5 3.2 -105.5 3.2 -100.5 5.8 -96.95 8.35 -93.5 11.95 -93.5 15.55 -93.5 18.1 -96.95 19.0 -98.15 19.35 -99.55 18.25 -105.35 16.35 -109.8 L13.2 -116.9 M20.05 -95.45 L19.7 -97.6 18.9 -96.35 Q16.05 -92.5 11.95 -92.5 7.85 -92.5 5.0 -96.35 2.2 -100.1 2.2 -105.5 2.2 -110.9 4.9 -114.6 7.6 -118.45 10.85 -118.55 L12.5 -118.4 11.55 -120.25 11.1 -121.2 8.8 -125.15 0.35 -112.95 0.4 -113.0 Q-4.65 -104.75 -11.45 -99.15 L-11.45 -99.1 Q-16.05 -94.45 -16.3 -86.7 L-16.3 -86.25 -20.85 -86.25 -20.9 -86.25 -21.0 -86.6 -21.1 -86.95 Q-23.05 -95.6 -22.45 -105.3 L-22.35 -107.05 Q-22.05 -111.05 -21.35 -115.2 L-24.4 -109.05 Q-31.95 -92.15 -23.15 -77.65 -14.35 -63.25 -14.9 -53.75 -15.5 -44.3 -18.2 -34.05 L-18.2 -34.0 -19.05 -30.5 -19.05 -30.45 -19.05 -30.3 -19.2 -29.75 -18.85 -29.2 -17.5 -27.6 Q-12.0 -22.75 6.6 -22.9 L13.9 -23.3 Q23.65 -24.25 27.75 -27.75 L29.2 -29.3 30.15 -31.05 30.05 -31.9 29.5 -33.95 29.2 -34.85 29.25 -34.85 Q20.1 -51.8 20.9 -74.55 21.25 -85.45 20.25 -93.95 L20.05 -95.45 M-21.35 -27.7 Q-21.4 -29.1 -21.05 -30.65 L-21.05 -30.75 -21.0 -30.9 -20.15 -34.45 Q-17.9 -45.3 -17.9 -55.8 -17.95 -67.85 -25.85 -79.45 -34.35 -91.75 -26.25 -109.85 -23.8 -115.45 -20.85 -119.75 -14.55 -129.3 -6.2 -132.7 L-6.25 -132.7 Q2.7 -136.6 9.9 -127.05 12.7 -123.4 15.3 -117.5 L17.95 -110.85 19.85 -105.8 20.6 -102.3 Q24.1 -89.2 24.4 -74.75 24.85 -52.2 31.1 -35.55 L31.1 -35.5 31.4 -34.5 31.4 -34.55 32.0 -32.25 Q32.45 -29.75 32.0 -27.65 L31.3 -25.55 Q30.4 -23.65 28.6 -22.2 L27.05 -21.1 26.65 -20.9 Q22.55 -18.5 15.15 -17.65 L13.4 -17.45 6.6 -17.15 -1.3 -17.35 -5.75 -17.75 -9.0 -18.25 Q-12.6 -19.0 -15.05 -20.1 L-15.3 -20.2 -16.75 -20.95 Q-19.8 -22.75 -20.85 -25.35 -21.3 -26.45 -21.35 -27.7 M14.0 -19.5 Q21.55 -20.3 25.65 -22.6 29.65 -24.95 30.15 -28.85 L28.8 -27.3 Q24.5 -23.35 14.0 -22.3 L13.95 -22.3 6.6 -21.9 Q-12.9 -21.75 -18.5 -27.1 L-19.3 -28.0 Q-19.05 -24.15 -14.5 -22.0 -7.95 -19.0 6.6 -19.15 L14.0 -19.5 M-5.45 -130.85 Q-13.25 -127.6 -19.2 -118.65 L-19.85 -117.7 Q-20.95 -112.15 -21.35 -106.95 -22.2 -96.5 -20.1 -87.25 L-17.25 -87.25 Q-16.9 -95.1 -12.15 -99.85 L-12.1 -99.85 Q-5.45 -105.4 -0.45 -113.5 L8.2 -126.0 Q2.05 -134.0 -5.45 -130.85" fill="#771315" fill-rule="evenodd" stroke="none"/>
    <path d="M1.4 -127.95 L1.35 -127.95 Q-0.55 -128.6 -2.65 -129.05 L-2.75 -129.05 Q-5.8 -129.1 -8.45 -127.15 -12.2 -124.2 -15.2 -120.3 L-15.2 -120.25 -15.25 -120.2 Q-20.3 -110.25 -17.55 -99.15 L-18.35 -97.15 -18.35 -97.2 Q-19.1 -95.45 -19.8 -91.3 L-19.85 -90.85 -18.9 -90.65 -18.8 -91.15 Q-18.1 -95.15 -17.45 -96.8 L-17.4 -96.8 -16.6 -98.8 Q-14.6 -101.1 -12.95 -103.8 -11.4 -106.55 -8.7 -110.15 -6.1 -113.8 -2.55 -116.75 1.0 -119.85 3.1 -123.4 L3.6 -124.85 Q3.75 -125.7 3.35 -126.25 2.7 -127.4 1.4 -127.95 M-5.45 -130.85 Q2.05 -134.0 8.2 -126.0 L-0.45 -113.5 Q-5.45 -105.4 -12.1 -99.85 L-12.15 -99.85 Q-16.9 -95.1 -17.25 -87.25 L-20.1 -87.25 Q-22.2 -96.5 -21.35 -106.95 -20.95 -112.15 -19.85 -117.7 L-19.2 -118.65 Q-13.25 -127.6 -5.45 -130.85" fill="#8e171b" fill-rule="evenodd" stroke="none"/>
    <path d="M11.55 -120.25 L12.5 -118.4 10.85 -118.55 Q7.6 -118.45 4.9 -114.6 2.2 -110.9 2.2 -105.5 2.2 -100.1 5.0 -96.35 7.85 -92.5 11.95 -92.5 16.05 -92.5 18.9 -96.35 L19.7 -97.6 20.05 -95.45 Q17.5 -91.6 14.6 -90.75 11.4 -89.85 7.65 -92.6 -0.05 -98.35 1.25 -108.4 L1.25 -108.45 Q2.45 -118.0 11.55 -120.25 M20.25 -93.95 Q21.25 -85.45 20.9 -74.55 20.1 -51.8 29.25 -34.85 L29.2 -34.85 29.5 -33.95 30.05 -31.9 30.15 -31.05 29.2 -29.3 27.75 -27.75 Q23.65 -24.25 13.9 -23.3 L6.6 -22.9 Q-12.0 -22.75 -17.5 -27.6 L-18.85 -29.2 -19.2 -29.75 -19.05 -30.3 -19.05 -30.45 -19.05 -30.5 -18.2 -34.0 -18.2 -34.05 Q-15.5 -44.3 -14.9 -53.75 -14.35 -63.25 -23.15 -77.65 -31.95 -92.15 -24.4 -109.05 L-21.35 -115.2 Q-22.05 -111.05 -22.35 -107.05 L-22.45 -105.3 Q-26.65 -93.15 -24.45 -84.65 -22.1 -75.65 -14.55 -75.1 -7.0 -74.6 5.15 -80.65 6.35 -80.3 5.55 -79.0 4.45 -77.65 3.0 -76.95 0.3 -75.8 0.25 -74.1 0.2 -72.3 2.6 -72.3 8.0 -72.25 6.95 -70.7 3.7 -67.1 -2.15 -67.65 -8.0 -68.25 -8.5 -61.5 -8.9 -55.75 -11.95 -43.85 L-13.05 -39.6 -13.5 -37.65 Q-14.2 -33.9 -13.25 -31.15 L-12.4 -29.35 Q-9.3 -24.3 1.1 -24.1 16.6 -23.75 19.85 -30.05 L20.55 -31.95 20.6 -32.4 Q21.9 -41.15 18.8 -43.1 15.7 -45.05 10.0 -44.0 7.8 -43.6 7.1 -44.35 L6.9 -44.8 Q6.75 -45.4 7.3 -46.3 8.0 -47.4 9.05 -48.2 10.95 -49.65 14.0 -50.0 16.85 -50.35 16.8 -51.05 16.75 -51.55 15.4 -52.25 12.05 -53.9 6.0 -54.0 -0.15 -54.05 -0.35 -56.15 -0.6 -58.2 6.0 -58.0 11.6 -57.85 11.85 -63.9 12.0 -66.95 11.0 -70.0 8.45 -77.75 16.0 -82.0 16.7 -83.3 16.25 -83.75 L14.15 -84.4 Q9.15 -85.65 5.0 -90.0 L0.3 -95.3 Q-1.85 -97.8 -3.05 -98.55 -6.0 -100.3 -11.0 -95.0 -15.05 -90.7 -14.65 -86.45 -14.5 -84.7 -14.7 -84.3 -15.05 -83.4 -17.0 -83.0 -20.6 -82.25 -21.0 -84.45 L-20.85 -86.25 -16.3 -86.25 -16.3 -86.7 Q-16.05 -94.45 -11.45 -99.1 L-11.45 -99.15 Q-4.65 -104.75 0.4 -113.0 L0.35 -112.95 8.8 -125.15 11.1 -121.2 Q1.5 -118.7 0.25 -108.55 -1.15 -97.85 7.05 -91.8 11.25 -88.7 14.9 -89.75 17.75 -90.6 20.25 -93.95" fill="#b81f23" fill-rule="evenodd" stroke="none"/>
    <path d="M-22.45 -105.3 Q-23.05 -95.6 -21.1 -86.95 L-21.0 -86.6 -20.9 -86.25 -20.85 -86.25 -21.0 -84.45 Q-20.6 -82.25 -17.0 -83.0 -15.05 -83.4 -14.7 -84.3 -14.5 -84.7 -14.65 -86.45 -15.05 -90.7 -11.0 -95.0 -6.0 -100.3 -3.05 -98.55 -1.85 -97.8 0.3 -95.3 L5.0 -90.0 Q9.15 -85.65 14.15 -84.4 L16.25 -83.75 Q16.7 -83.3 16.0 -82.0 8.45 -77.75 11.0 -70.0 12.0 -66.95 11.85 -63.9 11.6 -57.85 6.0 -58.0 -0.6 -58.2 -0.35 -56.15 -0.15 -54.05 6.0 -54.0 12.05 -53.9 15.4 -52.25 16.75 -51.55 16.8 -51.05 16.85 -50.35 14.0 -50.0 10.95 -49.65 9.05 -48.2 8.0 -47.4 7.3 -46.3 6.75 -45.4 6.9 -44.8 L7.1 -44.35 Q7.8 -43.6 10.0 -44.0 15.7 -45.05 18.8 -43.1 21.9 -41.15 20.6 -32.4 L20.55 -31.95 19.85 -30.05 Q16.6 -23.75 1.1 -24.1 -9.3 -24.3 -12.4 -29.35 L-13.25 -31.15 Q-14.2 -33.9 -13.5 -37.65 L-13.05 -39.6 -11.95 -43.85 Q-8.9 -55.75 -8.5 -61.5 -8.0 -68.25 -2.15 -67.65 3.7 -67.1 6.95 -70.7 8.0 -72.25 2.6 -72.3 0.2 -72.3 0.25 -74.1 0.3 -75.8 3.0 -76.95 4.45 -77.65 5.55 -79.0 6.35 -80.3 5.15 -80.65 -7.0 -74.6 -14.55 -75.1 -22.1 -75.65 -24.45 -84.65 -26.65 -93.15 -22.45 -105.3" fill="#d12227" fill-rule="evenodd" stroke="none"/>
    <path d="M13.2 -116.9 L16.35 -109.8 Q18.25 -105.35 19.35 -99.55 19.0 -98.15 18.1 -96.95 15.55 -93.5 11.95 -93.5 8.35 -93.5 5.8 -96.95 3.2 -100.5 3.2 -105.5 3.2 -110.5 5.7 -114.0 8.1 -117.35 10.9 -117.55 12.15 -117.6 13.2 -116.9 M20.05 -95.45 L20.25 -93.95 Q17.75 -90.6 14.9 -89.75 11.25 -88.7 7.05 -91.8 -1.15 -97.85 0.25 -108.55 1.5 -118.7 11.1 -121.2 L11.55 -120.25 Q2.45 -118.0 1.25 -108.45 L1.25 -108.4 Q-0.05 -98.35 7.65 -92.6 11.4 -89.85 14.6 -90.75 17.5 -91.6 20.05 -95.45 M13.95 -22.3 L14.0 -22.3 Q24.5 -23.35 28.8 -27.3 L30.15 -28.85 Q29.65 -24.95 25.65 -22.6 21.55 -20.3 14.0 -19.5 L13.95 -22.3" fill="#cdc9b6" fill-rule="evenodd" stroke="none"/>
    <path d="M-14.1 -120.9 Q-11.4 -124.2 -8.15 -126.75 -5.65 -128.6 -2.75 -128.55 L1.2 -127.5 Q2.35 -127.0 2.9 -126.0 3.2 -125.55 3.1 -124.95 L2.65 -123.65 Q0.6 -120.15 -2.9 -117.15 L-4.3 -115.9 Q-13.2 -116.2 -14.1 -120.9" fill="#dea572" fill-rule="evenodd" stroke="none"/>
    <path d="M-4.3 -115.9 Q-7.0 -113.4 -9.1 -110.45 L-13.4 -104.05 Q-15.0 -101.35 -17.05 -99.1 -19.8 -110.1 -14.8 -120.0 L-14.1 -120.9 Q-13.2 -116.2 -4.3 -115.9" fill="#f1ba87" fill-rule="evenodd" stroke="none"/>
  </g>
</svg>
