<?xml version="1.0" encoding="UTF-8" standalone="no"?>
<svg xmlns:ffdec="https://www.free-decompiler.com/flash" xmlns:xlink="http://www.w3.org/1999/xlink" ffdec:objectType="shape" height="9.9px" width="28.55px" xmlns="http://www.w3.org/2000/svg">
  <g transform="matrix(1.0, 0.0, 0.0, 1.0, 15.35, 1.5)">
    <path d="M11.45 0.25 Q11.4 2.85 10.15 4.7 8.9 6.6 7.1 6.6 5.3 6.6 4.0 4.7 2.8 2.85 2.75 0.25 L11.45 0.25 M-6.05 0.25 L-6.05 1.0 Q-6.05 3.35 -7.2 5.0 -8.3 6.65 -9.8 6.65 -11.35 6.65 -12.5 5.0 -13.6 3.35 -13.6 1.0 L-13.55 0.25 -6.05 0.25" fill="#ffcc99" fill-rule="evenodd" stroke="none"/>
    <path d="M11.45 0.25 Q11.4 2.85 10.15 4.7 8.9 6.6 7.1 6.6 5.3 6.6 4.0 4.7 2.8 2.85 2.75 0.25 L11.45 0.25 M-6.05 0.25 L-6.05 1.0 Q-6.05 3.35 -7.2 5.0 -8.3 6.65 -9.8 6.65 -11.35 6.65 -12.5 5.0 -13.6 3.35 -13.6 1.0 L-13.55 0.25 -6.05 0.25 Z" fill="none" stroke="#000000" stroke-linecap="round" stroke-linejoin="round" stroke-width="3.5"/>
  </g>
</svg>
