<?xml version="1.0" encoding="UTF-8" standalone="no"?>
<svg xmlns:ffdec="https://www.free-decompiler.com/flash" xmlns:xlink="http://www.w3.org/1999/xlink" ffdec:objectType="shape" height="7.9px" width="28.55px" xmlns="http://www.w3.org/2000/svg">
  <g transform="matrix(1.0, 0.0, 0.0, 1.0, 15.35, 1.45)">
    <path d="M11.45 0.3 Q11.4 2.05 10.15 3.35 8.9 4.65 7.1 4.65 5.3 4.65 4.0 3.35 2.8 2.05 2.75 0.3 L11.45 0.3 M-6.05 0.3 L-6.05 0.8 Q-6.05 2.4 -7.2 3.5 -8.3 4.65 -9.8 4.7 -11.35 4.65 -12.5 3.5 -13.6 2.4 -13.6 0.8 L-13.55 0.3 -6.05 0.3" fill="#ffcc99" fill-rule="evenodd" stroke="none"/>
    <path d="M11.45 0.3 Q11.4 2.05 10.15 3.35 8.9 4.65 7.1 4.65 5.3 4.65 4.0 3.35 2.8 2.05 2.75 0.3 L11.45 0.3 M-6.05 0.3 L-6.05 0.8 Q-6.05 2.4 -7.2 3.5 -8.3 4.65 -9.8 4.7 -11.35 4.65 -12.5 3.5 -13.6 2.4 -13.6 0.8 L-13.55 0.3 -6.05 0.3 Z" fill="none" stroke="#000000" stroke-linecap="round" stroke-linejoin="round" stroke-width="3.5"/>
  </g>
</svg>
