<?xml version="1.0" encoding="UTF-8" standalone="no"?>
<svg xmlns:ffdec="https://www.free-decompiler.com/flash" xmlns:xlink="http://www.w3.org/1999/xlink" ffdec:objectType="shape" height="23.75px" width="35.25px" xmlns="http://www.w3.org/2000/svg">
  <g transform="matrix(1.0, 0.0, 0.0, 1.0, 18.05, 15.05)">
    <path d="M11.3 -0.25 Q11.3 2.7 9.85 4.8 8.45 6.9 6.5 6.95 4.5 6.9 3.1 4.8 1.7 2.7 1.7 -0.25 1.65 -1.9 2.1 -3.3 2.45 -4.4 3.1 -5.35 L4.1 -6.5 Q5.15 -7.45 6.5 -7.45 8.45 -7.45 9.85 -5.35 11.3 -3.25 11.3 -0.25 M-13.15 -4.7 Q-12.2 -5.5 -11.05 -5.5 -9.35 -5.5 -8.15 -3.7 -6.9 -1.9 -6.9 0.75 -6.9 3.3 -8.15 5.15 -9.35 6.95 -11.05 6.95 -12.8 6.95 -14.05 5.15 -15.25 3.3 -15.25 0.75 -15.25 -0.7 -14.85 -1.9 L-14.05 -3.7 -13.15 -4.7" fill="#ffcc99" fill-rule="evenodd" stroke="none"/>
    <path d="M11.3 -0.25 Q11.3 2.7 9.85 4.8 8.45 6.9 6.5 6.95 4.5 6.9 3.1 4.8 1.7 2.7 1.7 -0.25 1.65 -1.9 2.1 -3.3 2.45 -4.4 3.1 -5.35 L4.1 -6.5 Q5.15 -7.45 6.5 -7.45 8.45 -7.45 9.85 -5.35 11.3 -3.25 11.3 -0.25 M-13.15 -4.7 Q-12.2 -5.5 -11.05 -5.5 -9.35 -5.5 -8.15 -3.7 -6.9 -1.9 -6.9 0.75 -6.9 3.3 -8.15 5.15 -9.35 6.95 -11.05 6.95 -12.8 6.95 -14.05 5.15 -15.25 3.3 -15.25 0.75 -15.25 -0.7 -14.85 -1.9 L-14.05 -3.7 -13.15 -4.7 Z" fill="none" stroke="#000000" stroke-linecap="round" stroke-linejoin="round" stroke-width="3.5"/>
    <path d="M0.45 -11.5 Q8.35 -16.55 16.2 -11.5 M-5.55 -11.5 Q-11.35 -15.65 -17.05 -11.5" fill="none" stroke="#c28127" stroke-linecap="round" stroke-linejoin="round" stroke-width="2.0"/>
  </g>
</svg>
