<?xml version="1.0" encoding="UTF-8" standalone="no"?>
<svg xmlns:ffdec="https://www.free-decompiler.com/flash" xmlns:xlink="http://www.w3.org/1999/xlink" ffdec:objectType="shape" height="21.8px" width="35.25px" xmlns="http://www.w3.org/2000/svg">
  <g transform="matrix(1.0, 0.0, 0.0, 1.0, 18.05, 13.0)">
    <path d="M4.25 -5.65 Q6.85 -4.35 8.9 -2.05 L9.7 -0.95 10.75 0.95 Q11.55 3.3 10.1 5.35 9.25 6.55 7.8 6.95 5.8 7.35 4.45 5.9 2.7 4.1 2.45 1.7 2.05 -2.0 4.0 -5.05 L4.0 -5.7 4.25 -5.65" fill="#ffcc99" fill-rule="evenodd" stroke="none"/>
    <path d="M4.25 -5.65 L4.0 -5.7 4.0 -5.05 Q2.05 -2.0 2.45 1.7 2.7 4.1 4.45 5.9 5.8 7.35 7.8 6.95 9.25 6.55 10.1 5.35 11.55 3.3 10.75 0.95 L9.7 -0.95 8.9 -2.05 Q6.85 -4.35 4.25 -5.65 Z" fill="none" stroke="#000000" stroke-linecap="round" stroke-linejoin="round" stroke-width="3.5"/>
    <path d="M-7.7 -5.15 L-7.3 -5.1 -7.1 -4.8 -6.85 -3.3 Q-6.6 -0.55 -6.8 2.45 -6.9 4.0 -7.95 5.3 L-9.2 6.45 Q-11.1 7.7 -12.65 6.05 -13.75 5.1 -14.15 3.45 -14.85 1.05 -13.95 -0.3 L-7.7 -5.15" fill="#ffcc99" fill-rule="evenodd" stroke="none"/>
    <path d="M-7.7 -5.15 L-13.95 -0.3 Q-14.85 1.05 -14.15 3.45 -13.75 5.1 -12.65 6.05 -11.1 7.7 -9.2 6.45 L-7.95 5.3 Q-6.9 4.0 -6.8 2.45 -6.6 -0.55 -6.85 -3.3 L-7.1 -4.8 -7.3 -5.1 -7.7 -5.15 Z" fill="none" stroke="#000000" stroke-linecap="round" stroke-linejoin="round" stroke-width="3.5"/>
    <path d="M1.2 -12.0 Q8.35 -7.7 16.2 -5.25" fill="none" stroke="#c28127" stroke-linecap="round" stroke-linejoin="round" stroke-width="2.0"/>
    <path d="M-6.3 -11.5 Q-11.8 -6.7 -17.05 -5.25" fill="none" stroke="#c28127" stroke-linecap="round" stroke-linejoin="round" stroke-width="2.0"/>
  </g>
</svg>
