<?xml version="1.0" encoding="UTF-8" standalone="no"?>
<svg xmlns:ffdec="https://www.free-decompiler.com/flash" xmlns:xlink="http://www.w3.org/1999/xlink" ffdec:objectType="shape" height="18.75px" width="33.5px" xmlns="http://www.w3.org/2000/svg">
  <g transform="matrix(1.0, 0.0, 0.0, 1.0, 18.05, 10.0)">
    <path d="M9.9 -3.4 Q10.85 -1.75 10.85 0.55 10.85 3.2 9.55 5.1 8.3 6.95 6.55 7.0 4.8 6.95 3.5 5.1 2.45 3.5 2.3 1.45 L9.9 -3.4" fill="#ffcc99" fill-rule="evenodd" stroke="none"/>
    <path d="M9.9 -3.4 Q10.85 -1.75 10.85 0.55 10.85 3.2 9.55 5.1 8.3 6.95 6.55 7.0 4.8 6.95 3.5 5.1 2.45 3.5 2.3 1.45" fill="none" stroke="#000000" stroke-linecap="round" stroke-linejoin="round" stroke-width="3.5"/>
    <path d="M2.3 1.45 L1.35 2.05 M2.3 1.45 L9.9 -3.4" fill="none" stroke="#000000" stroke-linecap="round" stroke-linejoin="round" stroke-width="3.5"/>
    <path d="M-6.5 1.0 L-6.45 1.45 Q-6.5 3.75 -7.6 5.35 -8.65 7.0 -10.2 7.0 -11.75 7.0 -12.85 5.35 -13.95 3.75 -13.95 1.45 -13.95 0.15 -13.6 -0.9 L-13.45 -1.35 -6.5 1.0" fill="#ffcc99" fill-rule="evenodd" stroke="none"/>
    <path d="M-6.5 1.0 L-6.45 1.45 Q-6.5 3.75 -7.6 5.35 -8.65 7.0 -10.2 7.0 -11.75 7.0 -12.85 5.35 -13.95 3.75 -13.95 1.45 -13.95 0.15 -13.6 -0.9 L-13.45 -1.35" fill="none" stroke="#000000" stroke-linecap="round" stroke-linejoin="round" stroke-width="3.5"/>
    <path d="M-13.45 -1.35 L-6.5 1.0 -6.0 1.15" fill="none" stroke="#000000" stroke-linecap="round" stroke-linejoin="round" stroke-width="3.5"/>
    <path d="M0.2 -2.0 Q7.35 -11.65 14.45 -8.0 M-5.55 -3.25 Q-11.8 -6.7 -17.05 -5.25" fill="none" stroke="#c28127" stroke-linecap="round" stroke-linejoin="round" stroke-width="2.0"/>
  </g>
</svg>
