<?xml version="1.0" encoding="UTF-8" standalone="no"?>
<svg xmlns:ffdec="https://www.free-decompiler.com/flash" xmlns:xlink="http://www.w3.org/1999/xlink" ffdec:objectType="shape" height="16.4px" width="35.25px" xmlns="http://www.w3.org/2000/svg">
  <g transform="matrix(1.0, 0.0, 0.0, 1.0, 18.05, 7.5)">
    <path d="M11.45 0.75 Q11.4 3.35 10.15 5.2 8.9 7.1 7.1 7.1 5.3 7.1 4.0 5.2 2.8 3.35 2.75 0.75 L11.45 0.75" fill="#ffcc99" fill-rule="evenodd" stroke="none"/>
    <path d="M11.45 0.75 Q11.4 3.35 10.15 5.2 8.9 7.1 7.1 7.1 5.3 7.1 4.0 5.2 2.8 3.35 2.75 0.75 L11.45 0.75 Z" fill="none" stroke="#000000" stroke-linecap="round" stroke-linejoin="round" stroke-width="3.5"/>
    <path d="M-13.55 0.75 L-6.05 0.75 -6.05 1.5 Q-6.05 3.85 -7.2 5.5 -8.3 7.15 -9.8 7.15 -11.35 7.15 -12.5 5.5 -13.6 3.85 -13.6 1.5 L-13.55 0.75" fill="#ffcc99" fill-rule="evenodd" stroke="none"/>
    <path d="M-13.55 0.75 L-6.05 0.75 -6.05 1.5 Q-6.05 3.85 -7.2 5.5 -8.3 7.15 -9.8 7.15 -11.35 7.15 -12.5 5.5 -13.6 3.85 -13.6 1.5 L-13.55 0.75 Z" fill="none" stroke="#000000" stroke-linecap="round" stroke-linejoin="round" stroke-width="3.5"/>
    <path d="M0.45 -5.25 Q8.35 -7.7 16.2 -5.25 M-5.55 -5.25 Q-11.8 -6.7 -17.05 -5.25" fill="none" stroke="#c28127" stroke-linecap="round" stroke-linejoin="round" stroke-width="2.0"/>
  </g>
</svg>
