<?xml version="1.0" encoding="UTF-8" standalone="no"?>
<svg xmlns:ffdec="https://www.free-decompiler.com/flash" xmlns:xlink="http://www.w3.org/1999/xlink" ffdec:objectType="shape" height="23.05px" width="35.25px" xmlns="http://www.w3.org/2000/svg">
  <g transform="matrix(1.0, 0.0, 0.0, 1.0, 18.05, 14.25)">
    <path d="M3.1 -5.7 L3.05 -5.7 Q4.0 -6.8 5.3 -6.65 6.55 -6.55 11.7 -1.05 L11.9 0.95 11.95 1.95 Q12.45 1.95 14.05 3.4 L12.85 3.65 Q9.85 4.4 0.8 7.95 L0.65 7.7 Q0.4 7.2 0.55 6.7 0.7 6.15 1.2 5.9 L1.6 5.75 Q0.4 3.7 0.4 0.95 0.4 -0.75 0.85 -2.15 L0.8 -2.1 Q1.15 -3.35 1.85 -4.35 L1.9 -4.4 3.1 -5.7 M4.5 -2.65 L4.45 -2.55 3.85 -1.3 3.85 -1.25 Q3.55 -0.25 3.55 0.95 3.55 2.75 4.3 4.15 6.75 2.6 8.8 2.2 L8.9 0.95 9.0 0.45 7.35 -1.45 Q5.75 -3.5 5.4 -3.4 L5.05 -3.3 4.5 -2.65" fill="#000000" fill-rule="evenodd" stroke="none"/>
    <path d="M4.5 -2.65 L5.05 -3.3 5.4 -3.4 Q5.75 -3.5 7.35 -1.45 L9.0 0.45 8.9 0.95 8.8 2.2 Q6.75 2.6 4.3 4.15 3.55 2.75 3.55 0.95 3.55 -0.25 3.85 -1.25 L3.85 -1.3 4.45 -2.55 4.5 -2.65" fill="#ffcc99" fill-rule="evenodd" stroke="none"/>
    <path d="M-9.0 -1.1 L-9.0 -1.15 -9.95 -2.0 Q-10.85 -1.45 -12.0 1.8 L-12.3 2.45 Q-12.15 3.75 -11.5 4.7 L-11.5 4.75 Q-10.95 5.55 -10.2 5.65 -9.55 5.55 -9.0 4.75 L-9.0 4.7 Q-8.2 3.5 -8.15 1.8 -8.2 0.05 -9.0 -1.1 M-10.7 -6.2 L-8.8 -5.6 Q-7.65 -4.85 -6.4 -2.9 -5.1 -1.0 -5.05 1.8 L-5.05 1.85 Q-5.1 4.6 -6.4 6.5 L-6.4 6.45 Q-7.95 8.85 -10.2 8.8 -12.5 8.85 -14.1 6.5 -15.25 4.85 -15.4 2.55 L-10.7 -6.2" fill="#000000" fill-rule="evenodd" stroke="none"/>
    <path d="M-9.0 -1.1 Q-8.2 0.05 -8.15 1.8 -8.2 3.5 -9.0 4.7 L-9.0 4.75 Q-9.55 5.55 -10.2 5.65 -10.95 5.55 -11.5 4.75 L-11.5 4.7 Q-12.15 3.75 -12.3 2.45 L-12.0 1.8 Q-10.85 -1.45 -9.95 -2.0 L-9.0 -1.15 -9.0 -1.1" fill="#ffcc99" fill-rule="evenodd" stroke="none"/>
    <path d="M3.7 -10.25 Q8.35 -7.7 16.2 -5.25 M-7.55 -13.25 Q-11.8 -6.7 -17.05 -5.25" fill="none" stroke="#c28127" stroke-linecap="round" stroke-linejoin="round" stroke-width="2.0"/>
  </g>
</svg>
