<?xml version="1.0" encoding="UTF-8" standalone="no"?>
<svg xmlns:ffdec="https://www.free-decompiler.com/flash" xmlns:xlink="http://www.w3.org/1999/xlink" ffdec:objectType="shape" height="21.2px" width="31.75px" xmlns="http://www.w3.org/2000/svg">
  <g transform="matrix(1.0, 0.0, 0.0, 1.0, 18.3, 12.25)">
    <path d="M-17.45 -3.3 Q-16.95 -3.5 -16.45 -3.3 L-14.15 -2.3 -13.3 -2.15 -12.75 -1.7 -5.95 1.35 -5.85 1.9 -5.85 2.0 Q-5.95 4.7 -7.2 6.55 L-7.2 6.5 Q-8.7 8.85 -10.9 8.8 -13.15 8.85 -14.7 6.55 -16.0 4.65 -16.0 2.0 L-15.75 -0.15 -18.15 -1.55 -18.2 -1.6 Q-18.4 -2.15 -18.15 -2.6 L-17.45 -3.3 M-9.75 4.85 L-9.75 4.8 Q-9.15 3.9 -8.95 2.65 L-12.9 1.05 -12.95 2.0 Q-13.0 3.65 -12.2 4.8 L-12.2 4.85 Q-11.65 5.65 -10.9 5.75 -10.25 5.65 -9.75 4.85" fill="#000000" fill-rule="evenodd" stroke="none"/>
    <path d="M3.05 -4.2 Q3.95 -5.0 5.1 -4.95 6.75 -5.0 7.95 -3.2 9.15 -1.45 9.15 1.1 9.15 3.65 7.95 5.45 6.75 7.2 5.1 7.2 3.4 7.2 2.2 5.45 1.0 3.65 1.0 1.1 1.0 -0.3 1.4 -1.45 1.65 -2.4 2.2 -3.2 L3.05 -4.2 M-9.75 4.85 Q-10.25 5.65 -10.9 5.75 -11.65 5.65 -12.2 4.85 L-12.2 4.8 Q-13.0 3.65 -12.95 2.0 L-12.9 1.05 -8.95 2.65 Q-9.15 3.9 -9.75 4.8 L-9.75 4.85" fill="#ffcc99" fill-rule="evenodd" stroke="none"/>
    <path d="M3.05 -4.2 Q3.95 -5.0 5.1 -4.95 6.75 -5.0 7.95 -3.2 9.15 -1.45 9.15 1.1 9.15 3.65 7.95 5.45 6.75 7.2 5.1 7.2 3.4 7.2 2.2 5.45 1.0 3.65 1.0 1.1 1.0 -0.3 1.4 -1.45 1.65 -2.4 2.2 -3.2 L3.05 -4.2 Z" fill="none" stroke="#000000" stroke-linecap="round" stroke-linejoin="round" stroke-width="3.5"/>
    <path d="M-5.55 -1.5 Q-11.8 -6.7 -17.05 -5.25 M-1.05 -5.25 Q4.0 -14.5 12.45 -9.5" fill="none" stroke="#c28127" stroke-linecap="round" stroke-linejoin="round" stroke-width="2.0"/>
  </g>
</svg>
