<?xml version="1.0" encoding="UTF-8" standalone="no"?>
<svg xmlns:ffdec="https://www.free-decompiler.com/flash" xmlns:xlink="http://www.w3.org/1999/xlink" ffdec:objectType="shape" height="120.35px" width="108.95px" xmlns="http://www.w3.org/2000/svg">
  <g transform="matrix(1.0, 0.0, 0.0, 1.0, 26.35, 16.15)">
    <path d="M-15.0 6.3 L-13.85 5.45 Q-9.45 2.15 -0.75 7.25 8.45 10.7 14.1 19.15 18.1 25.2 20.85 32.75 16.55 25.05 12.4 20.35 7.95 15.3 -3.25 12.75 -14.45 10.15 -18.25 15.8 -18.65 16.4 -18.9 17.9 -18.1 11.15 -15.0 6.3" fill="#f1ba87" fill-rule="evenodd" stroke="none"/>
    <path d="M16.75 -2.3 L17.75 -2.15 17.75 -2.1 Q26.2 -0.15 31.9 8.8 34.1 12.25 35.6 16.7 38.0 24.05 38.4 34.15 L38.4 34.2 Q38.65 41.25 42.4 45.0 46.3 48.9 54.2 49.0 L54.65 49.0 57.0 49.1 55.4 50.7 54.45 51.7 50.2 55.55 49.4 61.65 Q49.5 80.4 56.9 89.4 64.25 98.35 75.35 98.9 L74.6 98.45 Q68.4 94.55 63.9 87.65 59.4 80.7 60.7 45.2 61.95 9.65 54.45 2.25 L47.05 -5.15 47.15 -5.15 43.4 -8.1 43.35 -8.15 43.3 -8.15 43.25 -8.15 38.8 -9.75 38.8 -9.7 32.2 -10.7 32.1 -10.7 Q23.95 -10.0 25.25 -8.15 21.35 -9.5 15.05 -6.2 L12.95 -5.2 Q9.15 -3.25 -0.6 2.4 7.25 -2.4 9.95 -5.25 12.9 -8.4 9.65 -9.2 26.0 -8.8 15.9 -11.5 L28.5 -12.25 Q33.7 -12.9 32.85 -13.0 28.35 -14.6 21.5 -14.05 L21.45 -14.05 Q8.05 -13.45 -4.4 -8.15 L-4.35 -8.2 -7.55 -6.75 Q-5.5 -5.8 -3.7 -2.8 L-2.5 -0.4 -4.65 -2.4 Q-7.95 -5.2 -10.6 -5.55 L-10.65 -5.55 Q-16.25 -6.3 -20.75 -2.75 -29.25 2.2 -21.45 13.7 L-21.35 13.35 Q-20.15 9.35 -17.4 6.0 L-17.35 6.0 -17.0 5.55 -17.15 5.35 -16.3 4.8 -15.75 4.2 -15.6 4.3 -15.05 3.85 Q-13.15 2.4 -11.35 1.95 -7.7 0.95 -4.55 4.1 L-3.8 4.8 0.7 3.85 0.9 3.95 Q8.2 -3.45 15.75 -2.45 L15.75 -2.5 16.75 -2.3 M54.95 50.25 L54.3 50.25 Q46.6 50.0 42.35 47.2 39.5 45.25 38.25 42.15 37.2 39.5 37.25 36.0 L37.25 34.25 Q37.15 21.25 31.15 10.3 L30.7 9.5 Q24.45 -1.45 16.0 -0.45 L11.8 -0.35 Q7.8 0.4 3.95 3.6 3.4 4.0 2.9 4.5 L1.25 6.1 1.2 6.1 1.1 6.7 Q9.8 9.1 15.45 16.95 20.9 24.55 24.05 38.55 L24.2 39.35 Q27.35 53.95 35.25 57.6 L36.0 58.0 38.0 58.5 41.05 58.25 Q46.4 57.1 54.35 50.75 L54.95 50.25 M-15.0 6.3 L-15.15 6.45 -15.8 7.2 -15.8 7.25 Q-19.25 11.4 -20.0 16.65 L-20.45 19.45 -21.85 17.05 Q-30.75 2.25 -22.0 -4.35 L-22.0 -4.3 Q-16.95 -8.3 -10.65 -7.55 L-5.2 -10.0 Q7.55 -15.45 21.35 -16.05 33.8 -17.0 44.2 -9.95 L44.6 -9.8 Q45.65 -9.45 48.6 -6.55 65.75 7.6 62.8 42.5 59.95 76.25 65.6 86.0 71.3 95.55 79.9 98.9 L82.6 100.0 82.4 100.8 79.55 100.8 79.45 100.8 Q64.45 101.85 56.4 91.95 49.55 83.6 47.85 67.3 45.65 76.8 48.05 85.2 L48.1 85.2 Q51.35 96.85 58.55 102.0 L59.35 102.6 58.2 104.2 57.95 104.05 57.9 104.15 49.4 97.5 49.25 97.4 Q46.35 94.1 43.15 89.2 36.8 79.75 36.05 60.25 L34.2 59.3 Q26.6 54.55 23.35 41.15 22.25 36.7 20.85 32.75 18.1 25.2 14.1 19.15 8.45 10.7 -0.75 7.25 -9.45 2.15 -13.85 5.45 L-15.0 6.3 M46.3 90.3 Q48.15 92.95 49.9 95.0 47.65 91.0 46.15 85.75 42.9 74.5 47.45 61.4 L49.6 56.0 Q44.7 59.85 40.7 60.55 L38.1 60.7 Q38.85 79.1 44.8 88.1 L46.3 90.3" fill="#c28127" fill-rule="evenodd" stroke="none"/>
    <path d="M16.75 -2.3 L15.75 -2.5 15.75 -2.45 Q8.2 -3.45 0.9 3.95 L0.7 3.85 -3.8 4.8 -4.55 4.1 Q-7.7 0.95 -11.35 1.95 -13.15 2.4 -15.05 3.85 L-15.6 4.3 -15.75 4.2 -16.3 4.8 -17.15 5.35 -17.0 5.55 -17.35 6.0 -17.4 6.0 Q-20.15 9.35 -21.35 13.35 -22.15 2.1 -15.05 1.0 L-9.7 0.6 Q-5.8 0.6 -3.7 2.1 L-2.5 -0.4 -3.7 -2.8 Q-5.5 -5.8 -7.55 -6.75 L-4.35 -8.2 -4.4 -8.15 Q8.05 -13.45 21.45 -14.05 L21.5 -14.05 Q28.35 -14.6 32.85 -13.0 33.7 -12.9 28.5 -12.25 L15.9 -11.5 Q26.0 -8.8 9.65 -9.2 12.9 -8.4 9.95 -5.25 7.25 -2.4 -0.6 2.4 9.15 -3.25 12.95 -5.2 L15.05 -6.2 Q21.35 -9.5 25.25 -8.15 23.95 -10.0 32.1 -10.7 L32.2 -10.7 38.8 -9.7 38.8 -9.75 43.25 -8.15 43.3 -8.15 43.35 -8.15 43.4 -8.1 47.15 -5.15 47.05 -5.15 54.45 2.25 Q61.95 9.65 60.7 45.2 59.4 80.7 63.9 87.65 68.4 94.55 74.6 98.45 67.05 95.45 62.95 87.7 56.05 74.75 54.5 52.4 L54.45 51.7 55.4 50.7 57.0 49.1 54.65 49.0 54.2 49.0 Q51.9 28.3 39.55 7.05 56.05 25.85 57.4 36.0 56.0 15.65 47.8 3.55 39.5 -8.65 25.8 -5.1 L21.1 -3.8 16.75 -2.3 M42.4 45.0 Q38.65 41.25 38.4 34.2 L38.4 34.15 Q38.0 24.05 35.6 16.7 39.25 23.65 41.05 32.65 L41.75 36.6 42.4 45.0 M1.2 6.1 L1.25 6.1 2.9 4.5 Q3.4 4.0 3.95 3.6 7.8 0.4 11.8 -0.35 L16.0 -0.45 Q24.45 -1.45 30.7 9.5 L31.15 10.3 Q37.15 21.25 37.25 34.25 L37.25 36.0 Q37.2 39.5 38.25 42.15 39.5 45.25 42.35 47.2 46.6 50.0 54.3 50.25 L54.95 50.25 54.35 50.5 Q46.85 53.2 42.1 51.6 40.05 50.9 38.5 49.45 L38.05 49.0 36.15 46.55 Q34.15 43.35 32.95 38.55 31.8 33.9 31.45 27.75 L31.25 25.1 30.6 20.8 Q28.75 10.7 23.1 6.7 L22.7 6.45 Q16.65 2.5 5.0 5.15 L1.3 6.1 1.2 6.1 M46.3 90.3 L44.8 88.1 Q38.85 79.1 38.1 60.7 L40.7 60.55 Q39.5 71.2 44.1 84.7 45.1 87.75 46.3 90.3" fill="#f4d371" fill-rule="evenodd" stroke="none"/>
    <path d="M35.6 16.7 Q34.1 12.25 31.9 8.8 26.2 -0.15 17.75 -2.1 L17.75 -2.15 16.75 -2.3 21.1 -3.8 25.8 -5.1 Q39.5 -8.65 47.8 3.55 56.0 15.65 57.4 36.0 56.05 25.85 39.55 7.05 51.9 28.3 54.2 49.0 46.3 48.9 42.4 45.0 L41.75 36.6 41.05 32.65 Q39.25 23.65 35.6 16.7 M-21.35 13.35 L-21.45 13.7 Q-29.25 2.2 -20.75 -2.75 -16.25 -6.3 -10.65 -5.55 L-10.6 -5.55 Q-7.95 -5.2 -4.65 -2.4 L-2.5 -0.4 -3.7 2.1 Q-5.8 0.6 -9.7 0.6 L-15.05 1.0 Q-22.15 2.1 -21.35 13.35 M74.6 98.45 L75.35 98.9 Q64.25 98.35 56.9 89.4 49.5 80.4 49.4 61.65 L50.2 55.55 54.45 51.7 54.5 52.4 Q56.05 74.75 62.95 87.7 67.05 95.45 74.6 98.45 M54.95 50.25 L54.35 50.75 Q46.4 57.1 41.05 58.25 L38.0 58.5 36.0 58.0 35.25 57.6 Q27.35 53.95 24.2 39.35 L24.05 38.55 Q20.9 24.55 15.45 16.95 9.8 9.1 1.1 6.7 L1.2 6.1 1.3 6.1 5.0 5.15 Q16.65 2.5 22.7 6.45 L23.1 6.7 Q28.75 10.7 30.6 20.8 L31.25 25.1 31.45 27.75 Q31.8 33.9 32.95 38.55 34.15 43.35 36.15 46.55 L38.05 49.0 38.5 49.45 Q40.05 50.9 42.1 51.6 46.85 53.2 54.35 50.5 L54.95 50.25 M40.7 60.55 Q44.7 59.85 49.6 56.0 L47.45 61.4 Q42.9 74.5 46.15 85.75 47.65 91.0 49.9 95.0 48.15 92.95 46.3 90.3 45.1 87.75 44.1 84.7 39.5 71.2 40.7 60.55" fill="#fbee95" fill-rule="evenodd" stroke="none"/>
  </g>
</svg>
