<?xml version="1.0" encoding="UTF-8" standalone="no"?>
<svg xmlns:ffdec="https://www.free-decompiler.com/flash" xmlns:xlink="http://www.w3.org/1999/xlink" ffdec:objectType="shape" height="56.85px" width="39.9px" xmlns="http://www.w3.org/2000/svg">
  <g transform="matrix(1.0, 0.0, 0.0, 1.0, 9.7, 5.2)">
    <path d="M19.65 15.8 L20.75 15.25 20.85 15.4 21.6 16.9 Q22.85 20.3 19.85 24.45 18.15 26.7 15.65 28.35 14.0 29.4 12.05 30.25 L12.0 30.25 Q6.95 32.15 2.7 31.35 L2.65 31.35 Q-1.95 30.3 -4.5 26.35 L-1.75 26.35 -0.75 27.6 Q2.9 31.2 7.45 30.2 8.6 30.05 11.85 28.5 15.05 26.95 17.2 24.85 19.3 22.75 19.7 21.1 20.45 18.0 19.65 15.8 M-0.2 25.6 L0.65 25.15 2.2 26.4 Q6.65 29.3 10.4 27.3 14.15 25.3 16.55 22.7 18.9 20.05 17.15 17.2 L17.05 17.05 18.3 16.45 18.45 16.75 Q19.2 18.8 18.85 20.55 L17.95 22.5 17.65 23.0 16.75 23.95 13.5 26.2 Q10.85 27.75 7.85 28.7 L7.8 28.65 7.6 28.8 Q5.2 29.65 3.05 28.55 0.9 27.4 -0.2 25.6" fill="#666666" fill-rule="evenodd" stroke="none"/>
    <path d="M0.65 25.15 Q-4.3 22.4 0.0 19.75 2.15 16.85 6.25 15.25 L6.25 15.2 9.65 14.1 12.75 13.75 12.75 13.8 Q15.3 14.35 17.05 17.05 L17.15 17.2 Q18.9 20.05 16.55 22.7 14.15 25.3 10.4 27.3 6.65 29.3 2.2 26.4 L0.65 25.15" fill="#837d6d" fill-rule="evenodd" stroke="none"/>
    <path d="M18.3 16.45 L19.65 15.8 Q20.45 18.0 19.7 21.1 19.3 22.75 17.2 24.85 15.05 26.95 11.85 28.5 8.6 30.05 7.45 30.2 L7.45 29.25 7.8 28.7 7.85 28.7 Q10.85 27.75 13.5 26.2 L15.4 25.0 16.75 23.95 17.65 23.0 Q18.55 21.85 18.85 20.55 19.2 18.8 18.45 16.75 L18.3 16.45" fill="#cdc9b6" fill-rule="evenodd" stroke="none"/>
    <path d="M-1.75 26.35 L-0.2 25.6 Q0.9 27.4 3.05 28.55 5.2 29.65 7.6 28.8 L7.8 28.7 7.45 29.25 7.45 30.2 Q2.9 31.2 -0.75 27.6 L-1.75 26.35" fill="#fbfaee" fill-rule="evenodd" stroke="none"/>
    <path d="M2.9 26.3 L3.15 26.15 3.5 26.5 4.0 26.25 4.05 24.0 Q4.85 22.25 8.85 22.25 13.0 22.25 20.25 35.7 23.05 40.9 25.45 46.15 L26.6 48.75 Q23.1 52.3 17.75 49.25 8.8 36.0 2.9 26.3" fill="#f1ba87" fill-rule="evenodd" stroke="none"/>
    <path d="M26.6 48.75 L25.45 46.15 Q23.05 40.9 20.25 35.7 13.0 22.25 8.85 22.25 4.85 22.25 4.05 24.0 L4.0 26.25 3.5 26.5 3.15 26.15 2.9 26.3 Q-2.7 17.05 -5.55 11.05 -4.5 -4.7 6.4 6.1 17.3 16.85 29.2 44.45 28.35 46.55 27.3 47.9 L27.2 48.0 26.6 48.75" fill="#db9c64" fill-rule="evenodd" stroke="none"/>
    <path d="M2.9 26.3 Q8.8 36.0 17.75 49.25 23.1 52.3 26.6 48.75 L27.2 48.0 M27.3 47.9 Q28.35 46.55 29.2 44.45 17.3 16.85 6.4 6.1 -4.5 -4.7 -5.55 11.05 -2.7 17.05 2.9 26.3" fill="none" stroke="#5c4730" stroke-linecap="round" stroke-linejoin="round" stroke-width="2.0"/>
    <path d="M-5.65 22.05 L-7.2 15.65 -7.25 15.65 -9.15 8.0 -9.5 6.55 -9.7 3.5 Q-9.7 1.15 -9.1 -1.25 -8.95 -2.2 -8.35 -2.9 L-7.45 -3.85 Q-8.5 -0.05 -8.25 1.85 L-7.85 5.15 Q-7.2 10.15 -5.8 15.1 L-5.75 15.1 -5.05 17.7 Q-5.65 19.45 -5.65 21.45 L-5.65 22.05 M-2.55 -4.45 L-3.3 -5.15 -3.25 -5.2 -2.85 -5.15 Q0.4 -4.6 2.65 -2.25 L9.1 4.65 9.15 4.65 20.75 15.25 20.0 15.65 Q19.05 14.1 17.6 12.75 14.9 10.35 11.45 9.55 L7.6 5.95 1.15 -1.0 -2.55 -4.45" fill="#771315" fill-rule="evenodd" stroke="none"/>
    <path d="M-7.45 -3.85 L-5.2 -4.75 Q-3.7 -5.2 -2.55 -4.45 L1.15 -1.0 7.6 5.95 11.45 9.55 7.95 9.2 5.15 9.45 3.4 6.25 Q0.8 1.45 -1.4 1.2 -5.8 0.65 -7.85 5.15 L-8.25 1.85 Q-8.5 -0.05 -7.45 -3.85" fill="#9e1b1e" fill-rule="evenodd" stroke="none"/>
    <path d="M-5.05 17.7 L-5.75 15.1 -5.8 15.1 Q-7.2 10.15 -7.85 5.15 -5.8 0.65 -1.4 1.2 0.8 1.45 3.4 6.25 L5.15 9.45 Q1.3 10.1 -1.65 12.75 -4.1 14.95 -5.05 17.7" fill="#d12227" fill-rule="evenodd" stroke="none"/>
    <path d="M-0.2 25.6 L-1.75 26.35 Q-3.4 25.65 -3.6 24.7 L-4.25 20.55 -5.05 17.7 Q-4.1 14.95 -1.65 12.75 1.3 10.1 5.15 9.45 L5.75 10.45 Q6.0 11.3 5.7 12.05 L3.3 14.45 -1.5 17.65 -2.7 19.05 -3.25 20.35 Q-3.6 21.5 -3.3 22.8 L-3.0 23.1 -2.6 22.0 Q-2.6 24.15 -0.2 25.6" fill="#fbfaee" fill-rule="evenodd" stroke="none"/>
    <path d="M20.75 15.25 L20.65 15.1 20.75 15.2 20.75 15.25 M20.0 15.65 L19.65 15.8 Q18.1 13.25 14.35 12.25 L11.45 9.55 Q14.9 10.35 17.6 12.75 19.05 14.1 20.0 15.65 M18.3 16.45 L17.05 17.05 Q14.35 14.75 11.55 14.5 L11.5 14.4 8.2 15.0 Q6.4 15.45 4.75 16.35 L4.7 16.35 Q0.75 18.05 -1.3 20.7 -2.6 23.45 0.65 25.15 L-0.2 25.6 Q-2.6 24.15 -2.6 22.0 -2.4 20.1 -1.05 18.8 2.35 15.45 7.2 13.9 12.0 12.2 15.95 14.75 17.15 15.45 18.3 16.45 M-1.75 26.35 L-4.5 26.35 -4.75 25.95 -4.75 25.85 -4.75 25.75 -4.8 25.65 -5.65 22.05 -5.65 21.45 Q-5.65 19.45 -5.05 17.7 L-4.25 20.55 -3.6 24.7 Q-3.4 25.65 -1.75 26.35" fill="#666666" fill-rule="evenodd" stroke="none"/>
    <path d="M19.65 15.8 L18.3 16.45 Q17.15 15.45 15.95 14.75 12.0 12.2 7.2 13.9 2.35 15.45 -1.05 18.8 -2.4 20.1 -2.6 22.0 L-3.0 23.1 -3.3 22.8 Q-3.6 21.5 -3.25 20.35 L-2.7 19.05 -1.5 17.65 3.3 14.45 5.7 12.05 Q6.0 11.3 5.75 10.45 L5.15 9.45 7.95 9.2 11.45 9.55 14.35 12.25 Q18.1 13.25 19.65 15.8" fill="#cdc9b6" fill-rule="evenodd" stroke="none"/>
  </g>
</svg>
