<?xml version="1.0" encoding="UTF-8" standalone="no"?>
<svg xmlns:ffdec="https://www.free-decompiler.com/flash" xmlns:xlink="http://www.w3.org/1999/xlink" ffdec:objectType="shape" height="48.15px" width="46.25px" xmlns="http://www.w3.org/2000/svg">
  <g transform="matrix(1.0, 0.0, 0.0, 1.0, 23.1, 26.2)">
    <path d="M-0.75 -7.75 L2.7 -8.45 8.55 -9.2 9.6 -9.15 Q15.1 -6.1 14.8 -2.2 17.8 -3.3 20.85 -0.15 21.25 7.9 17.45 10.05 L17.4 10.0 16.9 9.4 16.9 9.35 Q14.1 6.4 10.1 6.05 L9.8 6.05 7.75 9.1 5.85 9.25 5.8 9.25 3.25 9.45 6.1 7.4 8.65 5.05 8.7 5.05 9.05 4.65 9.05 4.6 Q9.95 3.5 10.35 2.2 10.65 0.85 10.3 -0.25 L10.2 -0.45 10.0 -0.55 9.9 -0.6 Q11.0 -6.5 4.95 -7.15 L-0.75 -7.75" fill="#d12227" fill-rule="evenodd" stroke="none"/>
    <path d="M8.5 -10.2 L8.55 -10.2 Q13.1 -10.1 17.0 -7.85 18.95 -6.75 20.55 -5.0 L20.55 -5.05 Q21.9 -3.55 22.5 -1.75 23.0 -0.15 23.1 1.65 L23.15 2.0 23.15 2.1 Q23.35 6.45 21.25 10.55 20.3 12.35 18.95 13.9 L18.3 14.6 18.1 13.7 Q17.65 12.0 16.65 10.65 L16.6 10.6 16.15 10.05 Q13.7 7.5 10.3 7.1 L8.35 10.05 6.2 10.25 Q3.8 15.05 -2.1 20.9 L-3.1 21.95 -3.4 21.75 0.9 9.9 1.0 9.75 1.0 9.7 1.1 9.65 5.5 6.6 7.95 4.4 7.95 4.35 8.25 4.0 8.3 4.0 Q9.05 3.05 9.4 1.95 9.6 1.05 9.4 0.25 5.35 -1.4 1.45 0.1 -2.85 1.85 -5.95 5.05 L-5.9 5.05 Q-8.85 8.15 -10.1 12.3 -11.0 15.15 -11.2 18.25 L-11.2 18.3 -10.6 21.45 -11.6 21.65 -12.2 18.45 -12.2 18.4 Q-12.6 15.65 -13.3 13.0 L-14.25 10.15 Q-17.4 14.6 -22.4 12.5 L-23.1 12.25 -22.5 11.7 Q-17.65 7.25 -17.1 4.05 L-17.2 3.75 -17.2 3.8 Q-17.65 2.65 -17.2 1.55 -16.8 0.25 -15.8 -0.75 L-13.05 -3.2 Q-9.65 -5.95 -5.25 -7.45 L-2.3 -8.35 -2.35 -8.35 2.55 -9.45 8.5 -10.2 M-0.75 -7.75 L-2.05 -7.4 -4.9 -6.5 Q-9.15 -5.05 -12.4 -2.4 L-12.45 -2.4 -15.1 -0.05 Q-15.9 0.75 -16.25 1.85 L-16.25 1.9 Q-16.55 2.65 -16.25 3.45 L-16.25 3.5 -16.15 3.75 -16.15 3.8 -16.1 3.85 -14.6 7.0 -13.7 8.85 -13.65 8.9 -13.55 9.2 -13.5 9.25 Q-12.85 10.95 -12.35 12.75 L-11.8 15.0 -11.05 12.0 Q-9.75 7.65 -6.65 4.35 -3.45 0.95 1.05 -0.85 L1.1 -0.85 9.9 -0.6 10.0 -0.55 10.2 -0.45 10.3 -0.25 Q10.65 0.85 10.35 2.2 9.95 3.5 9.05 4.6 L9.05 4.65 8.7 5.05 8.65 5.05 6.1 7.4 3.25 9.45 5.8 9.25 5.85 9.25 7.75 9.1 9.8 6.05 10.1 6.05 Q14.1 6.4 16.9 9.35 L16.9 9.4 17.4 10.0 17.45 10.05 Q18.3 11.2 18.75 12.55 L20.35 10.1 Q22.3 6.3 22.15 2.2 L22.1 1.7 22.1 1.65 Q22.0 0.05 21.55 -1.45 21.0 -3.05 19.8 -4.35 18.35 -5.95 16.5 -7.0 13.3 -8.85 9.6 -9.15 L8.55 -9.2 2.7 -8.45 -0.75 -7.75" fill="#771315" fill-rule="evenodd" stroke="none"/>
    <path d="M9.9 -0.6 L1.1 -0.85 1.05 -0.85 Q-3.45 0.95 -6.65 4.35 -9.75 7.65 -11.05 12.0 L-11.8 15.0 -12.35 12.75 Q-12.85 10.95 -13.5 9.25 L-13.55 9.2 -13.65 8.9 -13.7 8.85 -14.6 7.0 -16.1 3.85 -16.15 3.8 -16.15 3.75 -16.25 3.5 -16.25 3.45 Q-16.55 2.65 -16.25 1.9 L-16.25 1.85 Q-15.9 0.75 -15.1 -0.05 L-12.45 -2.4 -12.4 -2.4 Q-9.15 -5.05 -4.9 -6.5 L-2.05 -7.4 -0.75 -7.75 4.95 -7.15 Q11.0 -6.5 9.9 -0.6 M9.6 -9.15 Q13.3 -8.85 16.5 -7.0 18.35 -5.95 19.8 -4.35 21.0 -3.05 21.55 -1.45 22.0 0.05 22.1 1.65 L22.1 1.7 22.15 2.2 Q22.3 6.3 20.35 10.1 L18.75 12.55 Q18.3 11.2 17.45 10.05 21.25 7.9 20.85 -0.15 17.8 -3.3 14.8 -2.2 15.1 -6.1 9.6 -9.15" fill="#aa1c1f" fill-rule="evenodd" stroke="none"/>
    <path d="M-1.85 3.7 L-2.4 3.1 -2.95 2.5 -2.15 1.7 Q0.25 -8.1 -1.4 -18.2 L-2.55 -25.05 -2.45 -25.6 -2.1 -26.05 -1.55 -26.2 7.2 -25.55 Q11.2 -25.2 12.65 -21.6 L13.3 -19.15 13.15 -18.5 12.2 -17.15 12.2 -17.1 11.35 -14.65 11.35 -14.6 Q8.45 -5.8 8.85 3.3 L9.25 4.05 8.85 4.25 8.65 4.7 7.9 5.05 Q7.6 5.05 7.45 5.35 L7.35 5.6 7.35 4.55 7.35 4.5 7.35 4.45 7.3 4.6 7.2 4.75 7.35 4.8 7.3 5.2 7.2 5.25 7.0 6.55 7.15 5.25 6.85 5.35 6.7 5.35 6.45 4.85 6.45 4.8 6.1 4.8 Q6.4 -0.4 8.4 -11.7 L8.45 -11.85 9.45 -15.25 10.4 -17.85 10.55 -18.2 11.25 -19.25 10.8 -20.9 Q9.8 -23.35 7.0 -23.6 L-0.35 -24.15 1.15 -14.1 1.2 -13.8 1.25 -13.4 1.3 -13.0 Q0.6 -3.9 -1.1 1.25 L-1.85 3.7 M-2.3 2.15 L-2.3 2.2 -2.3 2.15" fill="#5c4730" fill-rule="evenodd" stroke="none"/>
    <path d="M7.35 4.8 L7.3 5.2 7.35 4.8 M6.1 5.45 L6.05 5.7 6.05 5.45 5.95 5.45 6.1 5.45" fill="#f1ba87" fill-rule="evenodd" stroke="none"/>
    <path d="M7.35 4.55 L7.35 4.8 7.2 4.75 7.3 4.6 7.35 4.5 7.35 4.55 M-1.35 4.5 L-1.5 4.55 -1.4 4.25 -1.35 4.5" fill="#ffcc99" fill-rule="evenodd" stroke="none"/>
    <path d="M6.7 5.35 L6.1 5.45 5.95 5.45 6.1 4.8 6.45 4.8 6.45 4.85 6.7 5.35 M8.45 -11.85 L8.4 -11.7 7.2 -11.9 8.45 -11.85" fill="#c18753" fill-rule="evenodd" stroke="none"/>
    <path d="M5.95 5.45 Q0.6 5.9 -0.95 4.45 L-0.95 3.9 -1.1 4.2 -1.05 4.4 -1.05 4.35 -1.15 4.25 -1.25 4.35 -1.35 4.5 -1.4 4.25 -1.5 4.15 -1.85 3.7 -1.1 1.25 Q0.6 -3.9 1.3 -13.0 4.9 -11.75 7.2 -11.9 L8.4 -11.7 Q6.4 -0.4 6.1 4.8 L5.95 5.45" fill="#db9c64" fill-rule="evenodd" stroke="none"/>
    <path d="M1.3 -13.0 L1.25 -13.4 1.2 -13.8 1.15 -14.1 -0.35 -24.15 7.0 -23.6 Q9.8 -23.35 10.8 -20.9 L11.25 -19.25 10.55 -18.2 10.4 -17.85 9.45 -15.25 8.45 -11.85 7.2 -11.9 Q4.9 -11.75 1.3 -13.0" fill="#d18b58" fill-rule="evenodd" stroke="none"/>
  </g>
</svg>
