<?xml version="1.0" encoding="UTF-8" standalone="no"?>
<svg xmlns:ffdec="https://www.free-decompiler.com/flash" xmlns:xlink="http://www.w3.org/1999/xlink" ffdec:objectType="shape" height="14.65px" width="27.85px" xmlns="http://www.w3.org/2000/svg">
  <g transform="matrix(1.0, 0.0, 0.0, 1.0, 9.1, 0.5)">
    <path d="M18.0 2.2 Q18.75 3.3 18.75 5.75 18.75 8.2 15.35 10.75 10.85 14.1 3.25 14.1 L-1.35 14.0 -1.4 14.0 -2.6 14.15 Q-9.5 14.15 -9.05 8.55 L-8.95 7.75 Q-8.3 4.8 -2.15 2.2 4.15 -0.5 10.5 -0.5 16.25 -0.5 18.0 2.2 M-5.75 12.2 L-5.55 12.3 -4.6 12.7 Q7.15 13.85 12.5 10.7 16.85 8.15 16.85 5.4 16.85 1.25 9.25 1.25 1.45 1.25 -3.8 4.55 L-7.55 7.35 -6.85 8.3 -6.25 9.05 Q-4.45 7.35 1.25 7.1 L2.5 7.35 2.55 7.55 -1.75 8.85 Q-2.65 9.15 -4.5 10.45 L-4.6 10.7 -5.65 12.0 -6.0 12.1 -5.75 12.2" fill="#682424" fill-rule="evenodd" stroke="none"/>
    <path d="M2.5 7.35 L1.25 7.1 Q-4.45 7.35 -6.25 9.05 L-6.85 8.3 -7.55 7.35 -3.8 4.55 Q1.45 1.25 9.25 1.25 16.85 1.25 16.85 5.4 16.85 8.15 12.5 10.7 7.15 13.85 -4.6 12.7 L-5.55 12.3 -5.75 12.2 -5.65 12.0 -4.6 10.7 -4.5 10.5 -4.5 10.45 Q-2.65 9.15 -1.75 8.85 L2.55 7.55 2.6 7.5 2.5 7.35" fill="#e5e5e5" fill-rule="evenodd" stroke="none"/>
    <path d="M2.5 7.35 L2.6 7.5 2.55 7.55 2.5 7.35 M-4.5 10.45 L-4.5 10.5 -4.6 10.7 -4.5 10.45" fill="#463624" fill-rule="evenodd" stroke="none"/>
  </g>
</svg>
