<?xml version="1.0" encoding="UTF-8" standalone="no"?>
<svg xmlns:ffdec="https://www.free-decompiler.com/flash" xmlns:xlink="http://www.w3.org/1999/xlink" ffdec:objectType="shape" height="21.1px" width="32.35px" xmlns="http://www.w3.org/2000/svg">
  <g transform="matrix(1.0, 0.0, 0.0, 1.0, 15.9, 6.35)">
    <path d="M16.1 -6.15 Q15.5 -6.05 14.95 -4.25 L14.9 -4.1 14.85 -3.95 15.1 -4.05 15.25 -3.25 Q15.25 1.75 12.75 6.25 8.05 14.75 -3.6 14.75 -7.75 14.75 -9.3 14.0 -11.4 13.0 -12.25 9.75 -12.75 7.9 -14.75 4.4 L-14.75 4.0 -14.6 3.95 -15.9 1.7 Q-6.2 5.0 3.55 1.7 10.3 -0.75 15.15 -6.15 L15.95 -6.25 16.1 -6.15 M13.95 -2.35 Q12.5 -0.55 8.85 1.95 3.4 5.65 -4.05 5.9 -9.95 6.05 -13.0 4.95 -12.25 6.1 -11.25 8.5 L-10.05 11.0 Q-9.75 11.65 -10.0 12.35 L-3.95 12.75 -0.45 12.6 Q1.3 5.75 8.0 5.75 9.9 5.75 11.4 6.45 L11.0 7.0 12.3 4.7 Q13.2 2.55 13.75 -1.15 L13.95 -2.35 M8.05 6.85 Q3.3 6.85 1.6 9.75 1.0 10.8 0.65 12.45 7.35 11.5 10.6 7.55 8.6 6.85 8.05 6.85" fill="#682424" fill-rule="evenodd" stroke="none"/>
    <path d="M14.95 -4.25 L15.1 -4.05 14.85 -3.95 14.9 -4.1 14.95 -4.25" fill="#463623" fill-rule="evenodd" stroke="none"/>
    <path d="M15.95 -6.25 Q16.85 -6.15 16.15 -6.15 L16.1 -6.15 15.95 -6.25" fill="#463624" fill-rule="evenodd" stroke="none"/>
    <path d="M13.95 -2.35 L13.75 -1.15 Q13.2 2.55 12.3 4.7 L11.0 7.0 11.4 6.45 Q9.9 5.75 8.0 5.75 1.3 5.75 -0.45 12.6 L-3.95 12.75 -10.0 12.35 Q-9.75 11.65 -10.05 11.0 L-11.25 8.5 Q-12.25 6.1 -13.0 4.95 -9.95 6.05 -4.05 5.9 3.4 5.65 8.85 1.95 12.5 -0.55 13.95 -2.35" fill="#57352d" fill-rule="evenodd" stroke="none"/>
    <path d="M8.05 6.85 Q8.6 6.85 10.6 7.55 7.35 11.5 0.65 12.45 1.0 10.8 1.6 9.75 3.3 6.85 8.05 6.85" fill="#b45f50" fill-rule="evenodd" stroke="none"/>
  </g>
</svg>
