<?xml version="1.0" encoding="UTF-8" standalone="no"?>
<svg xmlns:ffdec="https://www.free-decompiler.com/flash" xmlns:xlink="http://www.w3.org/1999/xlink" ffdec:objectType="shape" height="16.6px" width="36.9px" xmlns="http://www.w3.org/2000/svg">
  <g transform="matrix(1.0, 0.0, 0.0, 1.0, 19.65, 6.6)">
    <path d="M14.85 2.35 L13.65 4.6 Q11.9 7.75 10.55 7.75 9.1 7.75 8.8 8.1 8.45 6.8 9.15 4.75 10.0 2.1 11.25 2.1 L14.8 2.35 14.85 2.35" fill="#b45f50" fill-rule="evenodd" stroke="none"/>
    <path d="M14.8 2.35 L11.25 2.1 Q10.0 2.1 9.15 4.75 8.45 6.8 8.8 8.1 9.1 7.75 10.55 7.75 11.9 7.75 13.65 4.6 L14.85 2.35 15.0 1.95 14.8 2.35 M15.25 0.85 Q15.25 -2.1 10.6 -3.1 9.25 -1.15 5.1 1.7 1.15 4.35 -3.85 5.25 L0.0 6.15 6.25 7.45 7.4 7.9 Q7.3 7.75 7.55 6.3 7.75 4.85 8.9 2.55 10.05 0.2 11.75 0.25 13.45 0.25 14.75 0.75 L15.25 0.95 15.25 0.85 M12.3 -6.35 Q12.1 -6.35 11.95 -6.15 16.7 -6.1 17.25 1.1 14.2 10.2 9.2 10.0 4.15 9.75 -1.8 8.5 -7.5 7.3 -11.0 5.65 -15.9 5.45 -18.15 4.05 L-19.65 1.45 Q-9.95 4.75 -0.2 1.45 6.55 -1.0 11.4 -6.4 L12.2 -6.5 12.3 -6.35" fill="#682424" fill-rule="evenodd" stroke="none"/>
    <path d="M15.25 0.95 L14.75 0.75 Q13.45 0.25 11.75 0.25 10.05 0.2 8.9 2.55 7.75 4.85 7.55 6.3 7.3 7.75 7.4 7.9 L6.25 7.45 0.0 6.15 -3.85 5.25 Q1.15 4.35 5.1 1.7 9.25 -1.15 10.6 -3.1 15.25 -2.1 15.25 0.85 L15.25 0.95" fill="#57352d" fill-rule="evenodd" stroke="none"/>
    <path d="M12.2 -6.5 Q13.1 -6.4 12.4 -6.4 L12.3 -6.35 12.2 -6.5" fill="#463624" fill-rule="evenodd" stroke="none"/>
  </g>
</svg>
