<?xml version="1.0" encoding="UTF-8" standalone="no"?>
<svg xmlns:ffdec="https://www.free-decompiler.com/flash" xmlns:xlink="http://www.w3.org/1999/xlink" ffdec:objectType="shape" height="168.2px" width="84.0px" xmlns="http://www.w3.org/2000/svg">
  <g transform="matrix(1.0, 0.0, 0.0, 1.0, 34.9, 131.6)">
    <path d="M19.65 8.9 L16.85 9.2 16.5 8.4 Q15.75 6.05 16.0 3.65 L25.75 2.6 25.7 5.5 19.65 8.9 M2.7 9.4 L-7.0 7.65 Q-4.85 -1.0 -3.4 -9.7 -1.6 -20.85 -1.05 -32.35 L-0.85 -40.2 -0.85 -42.2 Q-0.85 -48.35 -1.25 -54.5 -1.9 -65.55 -3.2 -76.6 L-3.6 -79.85 Q-0.75 -89.5 1.05 -99.35 3.1 -110.55 8.55 -119.8 10.0 -109.55 6.9 -99.45 L6.25 -96.75 6.15 -96.7 6.25 -96.7 Q3.85 -84.45 4.35 -71.95 4.8 -61.0 7.05 -50.35 8.1 -45.35 8.75 -40.3 L9.0 -38.15 Q9.5 -33.2 9.6 -28.2 9.75 -17.15 7.6 -6.25 L2.2 -5.9 7.55 -5.95 5.3 2.5 2.45 3.6 4.85 3.85 2.7 9.4 M18.1 -103.15 L19.25 -104.2 17.95 -101.3 18.1 -103.15 M16.9 -95.55 L19.85 -99.9 Q19.4 -92.3 15.75 -85.9 14.6 -83.85 12.9 -82.0 L16.9 -95.55 M12.85 -81.9 Q16.9 -84.6 19.6 -88.7 L20.75 -90.45 20.85 -88.2 19.75 -83.35 Q18.5 -78.0 18.1 -72.45 12.3 -61.8 13.95 -49.95 15.25 -40.85 23.25 -35.75 L24.3 -25.4 17.8 -22.85 Q17.6 -29.15 16.55 -35.25 L16.15 -37.65 14.25 -45.5 Q11.2 -56.15 11.1 -67.3 11.05 -74.65 12.85 -81.9 M16.8 -7.4 L17.7 -16.45 24.95 -17.15 25.4 -9.7 16.8 -7.4 M17.7 -16.85 L17.85 -21.75 24.5 -23.05 24.85 -18.5 17.7 -16.85 M16.1 0.0 L16.7 -6.5 25.5 -8.1 25.65 -4.5 24.8 -3.55 Q21.2 0.05 16.1 0.0" fill="#89a0b2" fill-rule="evenodd" stroke="none"/>
    <path d="M11.4 -128.1 L10.75 -128.5 9.7 -129.05 Q7.4 -129.95 5.05 -130.25 0.85 -130.35 -3.1 -129.2 -10.1 -127.35 -13.15 -120.65 -8.9 -125.45 -3.0 -127.8 0.65 -129.3 1.25 -125.5 3.0 -114.4 -0.35 -103.75 -4.0 -92.2 -3.6 -79.85 L-3.2 -76.6 Q-1.9 -65.55 -1.25 -54.5 -0.85 -48.35 -0.85 -42.2 L-0.85 -40.2 -1.05 -32.35 Q-1.6 -20.85 -3.4 -9.7 -4.85 -1.0 -7.0 7.65 L2.7 9.4 7.25 9.7 16.85 9.2 19.65 8.9 25.65 7.75 26.2 7.65 30.1 6.6 Q34.7 5.2 39.0 3.25 L43.2 1.1 44.1 0.6 Q46.6 -0.8 47.05 -3.1 46.75 -4.25 45.8 -4.7 L42.9 -6.1 Q40.6 -7.5 39.0 -9.5 37.6 -11.25 36.8 -13.45 35.45 -17.0 34.4 -20.6 L32.9 -26.1 Q31.7 -30.95 31.0 -35.95 29.45 -46.9 28.3 -58.05 L25.7 -81.3 23.65 -97.85 18.1 -122.85 11.4 -128.1 M0.25 -118.25 L0.25 -121.3 Q0.35 -124.2 -1.4 -126.6 L-2.65 -126.25 Q-5.35 -125.25 -7.6 -123.35 L-11.35 -119.7 Q-18.6 -110.45 -20.4 -98.6 -22.1 -87.65 -22.45 -76.65 L-23.55 -72.25 -23.75 -72.4 Q-24.5 -75.75 -24.35 -79.15 -23.35 -98.6 -17.0 -117.1 -14.6 -124.05 -8.5 -127.9 3.9 -135.8 15.95 -126.9 18.1 -125.3 19.4 -122.9 22.9 -116.6 24.25 -109.45 26.35 -98.05 28.05 -86.3 L31.25 -62.7 Q33.4 -45.8 36.5 -29.0 38.0 -20.95 41.9 -13.6 44.05 -9.5 47.55 -6.15 50.7 -3.05 47.5 -0.55 L43.1 2.6 38.6 5.1 Q35.2 6.7 31.55 7.8 22.9 10.45 13.75 11.6 1.5 12.65 -10.25 10.4 L-10.25 9.55 Q-7.6 -0.7 -5.3 -11.3 L-4.95 -13.25 Q-3.9 -20.9 -3.3 -28.75 -2.85 -34.55 -2.75 -40.4 L-2.75 -42.4 -2.95 -50.65 Q-3.4 -61.4 -4.55 -72.3 -5.7 -83.4 -3.55 -94.45 -1.45 -105.25 0.2 -116.1 L0.25 -118.25" fill="#224a60" fill-rule="evenodd" stroke="none"/>
    <path d="M16.85 9.2 L7.25 9.7 2.7 9.4 4.85 3.85 7.0 4.05 16.0 3.65 Q15.75 6.05 16.5 8.4 L16.85 9.2 M17.2 -115.5 L17.6 -113.15 18.15 -106.0 16.55 -104.35 Q11.9 -100.1 6.25 -96.75 L6.9 -99.45 Q10.0 -109.55 8.55 -119.8 L9.7 -120.2 Q15.8 -120.85 17.2 -115.5 M12.9 -82.0 L12.8 -81.9 12.85 -81.9 Q11.05 -74.65 11.1 -67.3 11.2 -56.15 14.25 -45.5 L16.15 -37.65 16.55 -35.25 Q17.6 -29.15 17.8 -22.85 L11.9 -21.8 9.65 -21.65 17.85 -21.75 17.7 -16.85 14.2 -16.4 17.7 -16.45 16.8 -7.4 7.6 -6.25 Q9.75 -17.15 9.6 -28.2 9.5 -33.2 9.0 -38.15 L8.75 -40.3 Q8.1 -45.35 7.05 -50.35 4.8 -61.0 4.35 -71.95 3.85 -84.45 6.25 -96.7 L8.3 -97.3 Q13.8 -99.2 18.1 -103.15 L17.95 -101.3 Q13.9 -93.0 8.2 -85.8 L16.9 -95.55 12.9 -82.0 M7.55 -5.95 L16.7 -6.5 16.1 0.0 5.3 2.5 7.55 -5.95" fill="#aac99f" fill-rule="evenodd" stroke="none"/>
    <path d="M20.85 -88.2 L20.85 -86.3 Q20.65 -79.2 18.1 -72.45 18.5 -78.0 19.75 -83.35 L20.85 -88.2 M23.25 -35.75 L27.9 -27.95 27.8 -27.85 24.3 -25.4 23.25 -35.75 M24.5 -23.05 L28.9 -24.8 29.5 -20.45 24.85 -18.5 24.5 -23.05 M24.95 -17.15 L29.55 -18.15 29.3 -14.7 28.75 -11.3 25.4 -9.7 24.95 -17.15 M25.5 -8.1 L28.2 -9.1 25.65 -4.5 25.5 -8.1 M25.75 2.6 L32.15 2.15 25.7 5.5 25.75 2.6" fill="#8a948c" fill-rule="evenodd" stroke="none"/>
    <path d="M11.4 -128.1 L18.1 -122.85 23.65 -97.85 20.85 -88.2 20.75 -90.45 19.6 -88.7 Q16.9 -84.6 12.85 -81.9 L12.8 -81.9 12.9 -82.0 Q14.6 -83.85 15.75 -85.9 19.4 -92.3 19.85 -99.9 L16.9 -95.55 17.95 -101.3 19.25 -104.2 18.1 -103.15 18.15 -106.0 17.6 -113.15 17.2 -115.5 17.1 -116.25 Q16.05 -123.5 10.8 -128.45 L11.4 -128.1 M25.7 -81.3 L28.3 -58.05 Q29.45 -46.9 31.0 -35.95 31.7 -30.95 32.9 -26.1 L34.4 -20.6 Q35.45 -17.0 36.8 -13.45 37.6 -11.25 39.0 -9.5 40.6 -7.5 42.9 -6.1 L45.8 -4.7 Q46.75 -4.25 47.05 -3.1 46.6 -0.8 44.1 0.6 L43.2 1.1 39.0 3.25 Q34.7 5.2 30.1 6.6 L26.2 7.65 36.4 4.1 Q31.6 -2.35 31.3 -10.85 31.05 -18.35 30.1 -25.7 L29.6 -29.15 29.1 -32.25 24.75 -56.85 Q22.55 -69.15 25.7 -81.3 M25.65 7.75 L19.65 8.9 25.7 5.5 25.65 7.75 M-3.6 -79.85 Q-4.0 -92.2 -0.35 -103.75 3.0 -114.4 1.25 -125.5 0.65 -129.3 -3.0 -127.8 -8.9 -125.45 -13.15 -120.65 -10.1 -127.35 -3.1 -129.2 0.85 -130.35 5.05 -130.25 L6.05 -128.2 Q8.0 -124.1 8.55 -119.8 3.1 -110.55 1.05 -99.35 -0.75 -89.5 -3.6 -79.85 M-22.45 -76.65 Q-22.1 -87.65 -20.4 -98.6 -18.6 -110.45 -11.35 -119.7 -15.1 -109.45 -17.35 -98.95 L-22.45 -76.65 M18.1 -72.45 Q18.05 -65.1 19.65 -57.75 22.0 -46.9 23.25 -35.75 15.25 -40.85 13.95 -49.95 12.3 -61.8 18.1 -72.45 M24.3 -25.4 L24.5 -23.05 17.85 -21.75 17.8 -22.85 24.3 -25.4 M24.85 -18.5 L24.95 -17.15 17.7 -16.45 17.7 -16.85 24.85 -18.5 M25.4 -9.7 L25.5 -8.1 16.7 -6.5 16.8 -7.4 25.4 -9.7 M25.65 -4.5 L25.75 2.6 16.0 3.65 16.1 0.0 Q21.2 0.05 24.8 -3.55 L25.65 -4.5 M7.6 -6.25 L7.55 -5.95 2.2 -5.9 7.6 -6.25 M4.85 3.85 L2.45 3.6 5.3 2.5 4.85 3.85" fill="#5e788e" fill-rule="evenodd" stroke="none"/>
    <path d="M23.65 -97.85 L25.7 -81.3 Q22.55 -69.15 24.75 -56.85 L29.1 -32.25 29.6 -29.15 30.1 -25.7 Q31.05 -18.35 31.3 -10.85 31.6 -2.35 36.4 4.1 L26.2 7.65 25.65 7.75 25.7 5.5 32.15 2.15 25.75 2.6 25.65 -4.5 28.2 -9.1 25.5 -8.1 25.4 -9.7 28.75 -11.3 29.3 -14.7 29.55 -18.15 24.95 -17.15 24.85 -18.5 29.5 -20.45 28.9 -24.8 24.5 -23.05 24.3 -25.4 27.8 -27.85 27.9 -27.95 23.25 -35.75 Q22.0 -46.9 19.65 -57.75 18.05 -65.1 18.1 -72.45 20.65 -79.2 20.85 -86.3 L20.85 -88.2 23.65 -97.85" fill="#707a72" fill-rule="evenodd" stroke="none"/>
    <path d="M5.05 -130.25 Q7.4 -129.95 9.7 -129.05 L10.75 -128.5 10.8 -128.45 Q16.05 -123.5 17.1 -116.25 L17.2 -115.5 Q15.8 -120.85 9.7 -120.2 L8.55 -119.8 Q8.0 -124.1 6.05 -128.2 L5.05 -130.25 M18.15 -106.0 L18.1 -103.15 Q13.8 -99.2 8.3 -97.3 L6.25 -96.7 6.15 -96.7 6.25 -96.75 Q11.9 -100.1 16.55 -104.35 L18.15 -106.0 M17.95 -101.3 L16.9 -95.55 8.2 -85.8 Q13.9 -93.0 17.95 -101.3 M7.6 -6.25 L16.8 -7.4 16.7 -6.5 7.55 -5.95 7.6 -6.25 M17.7 -16.45 L14.2 -16.4 17.7 -16.85 17.7 -16.45 M17.85 -21.75 L9.65 -21.65 11.9 -21.8 17.8 -22.85 17.85 -21.75 M5.3 2.5 L16.1 0.0 16.0 3.65 7.0 4.05 4.85 3.85 5.3 2.5" fill="#7bab6b" fill-rule="evenodd" stroke="none"/>
    <path d="M-5.3 -11.3 Q-7.6 -0.7 -10.25 9.55 L-10.25 10.4 Q1.5 12.65 13.75 11.6 22.9 10.45 31.55 7.8 35.2 6.7 38.6 5.1 36.3 15.4 28.45 23.2 18.2 33.3 2.85 33.85 -12.55 34.4 -23.7 23.4 -34.9 12.3 -32.05 -9.15 L-30.95 -15.9 Q-27.55 -13.7 -23.15 -12.9 -14.25 -11.55 -5.3 -11.3 M15.65 24.35 Q19.85 21.25 21.95 16.0 4.1 17.8 -14.3 14.6 -9.4 3.05 -9.5 -7.85 L-11.35 -8.05 Q-27.65 -9.6 -29.15 -3.85 -30.65 1.8 -28.7 10.0 -26.8 18.2 -19.2 23.4 -11.55 28.6 -0.8 28.6 9.95 28.6 15.65 24.35" fill="#00394a" fill-rule="evenodd" stroke="none"/>
    <path d="M38.6 5.1 L43.1 2.6 Q41.9 15.9 31.55 25.65 19.85 36.6 3.35 36.6 -13.15 36.6 -24.5 26.0 -36.05 15.4 -33.6 -7.85 -33.1 -12.7 -32.25 -16.8 L-30.95 -15.9 -32.05 -9.15 Q-34.9 12.3 -23.7 23.4 -12.55 34.4 2.85 33.85 18.2 33.3 28.45 23.2 36.3 15.4 38.6 5.1" fill="#003333" fill-rule="evenodd" stroke="none"/>
    <path d="M15.65 24.35 Q9.95 28.6 -0.8 28.6 -11.55 28.6 -19.2 23.4 -26.8 18.2 -28.7 10.0 -30.65 1.8 -29.15 -3.85 -27.65 -9.6 -11.35 -8.05 L-9.5 -7.85 Q-9.4 3.05 -14.3 14.6 4.1 17.8 21.95 16.0 19.85 21.25 15.65 24.35" fill="#00475b" fill-rule="evenodd" stroke="none"/>
    <path d="M-7.6 -123.35 Q-5.35 -125.25 -2.65 -126.25 L-1.4 -126.6 Q0.35 -124.2 0.25 -121.3 L0.25 -118.25 Q-5.25 -116.45 -7.3 -122.2 L-7.6 -123.35" fill="#83563a" fill-rule="evenodd" stroke="none"/>
    <path d="M-7.6 -123.35 L-7.3 -122.2 Q-5.25 -116.45 0.25 -118.25 L0.2 -116.1 -1.35 -115.95 Q-4.9 -115.9 -7.4 -118.55 L-7.6 -118.8 -7.95 -118.95 -8.75 -119.1 -9.75 -117.85 Q-12.8 -111.1 -14.35 -103.7 L-19.0 -82.65 -24.6 -59.45 -29.95 -36.9 Q-31.1 -31.85 -32.8 -26.95 -34.6 -21.65 -31.8 -18.95 L-30.5 -17.95 -28.85 -17.2 Q-17.35 -13.1 -4.95 -13.25 L-5.3 -11.3 Q-14.25 -11.55 -23.15 -12.9 -27.55 -13.7 -30.95 -15.9 L-32.25 -16.8 -34.9 -19.25 -33.85 -27.05 Q-31.95 -38.85 -29.0 -50.5 -26.2 -61.4 -23.55 -72.25 L-22.45 -76.65 -17.35 -98.95 Q-15.1 -109.45 -11.35 -119.7 L-7.6 -123.35" fill="#64231c" fill-rule="evenodd" stroke="none"/>
    <path d="M0.2 -116.1 Q-1.45 -105.25 -3.55 -94.45 -5.7 -83.4 -4.55 -72.3 -3.4 -61.4 -2.95 -50.65 L-2.75 -42.4 -2.75 -40.4 Q-2.85 -34.55 -3.3 -28.75 -3.9 -20.9 -4.95 -13.25 -17.35 -13.1 -28.85 -17.2 L-30.5 -17.95 -31.8 -18.95 Q-34.6 -21.65 -32.8 -26.95 -31.1 -31.85 -29.95 -36.9 L-24.6 -59.45 -19.0 -82.65 -14.35 -103.7 Q-12.8 -111.1 -9.75 -117.85 L-8.75 -119.1 -7.95 -118.95 -7.6 -118.8 -7.4 -118.55 Q-4.9 -115.9 -1.35 -115.95 L0.2 -116.1 M-8.05 -113.7 Q-12.15 -98.5 -15.35 -82.9 -17.55 -72.0 -20.75 -61.1 -23.35 -52.3 -26.35 -43.55 -28.75 -36.5 -28.35 -29.4 L-28.05 -26.15 -27.55 -23.4 Q-27.3 -22.15 -26.15 -21.6 -16.45 -16.75 -7.5 -20.25 -7.25 -20.4 -7.15 -20.85 -16.25 -19.5 -24.65 -23.25 -18.2 -20.9 -11.4 -22.0 L-6.9 -22.75 Q-5.0 -25.35 -5.2 -28.6 -5.3 -30.45 -5.7 -32.25 L-6.2 -34.05 Q-12.05 -33.6 -17.3 -36.3 -12.55 -34.75 -7.5 -35.4 L-6.15 -35.7 Q-5.1 -36.65 -5.1 -38.0 L-5.15 -38.9 -5.4 -40.55 -5.45 -40.75 -5.95 -42.5 -5.95 -42.55 Q-12.1 -42.95 -17.85 -45.75 -14.15 -44.5 -10.15 -44.65 -7.9 -44.8 -5.9 -45.45 -7.15 -68.45 -6.65 -91.45 L-5.9 -111.3 Q-5.85 -112.5 -6.65 -113.35 L-8.05 -113.7" fill="#aa0f0f" fill-rule="evenodd" stroke="none"/>
    <path d="M-8.05 -113.7 L-6.65 -113.35 Q-5.85 -112.5 -5.9 -111.3 L-6.65 -91.45 Q-7.15 -68.45 -5.9 -45.45 -7.9 -44.8 -10.15 -44.65 -14.15 -44.5 -17.85 -45.75 -12.1 -42.95 -5.95 -42.55 L-5.95 -42.5 -5.45 -40.75 -5.4 -40.55 -5.15 -38.9 -5.1 -38.0 Q-5.1 -36.65 -6.15 -35.7 L-7.5 -35.4 Q-12.55 -34.75 -17.3 -36.3 -12.05 -33.6 -6.2 -34.05 L-5.7 -32.25 Q-5.3 -30.45 -5.2 -28.6 -5.0 -25.35 -6.9 -22.75 L-11.4 -22.0 Q-18.2 -20.9 -24.65 -23.25 -16.25 -19.5 -7.15 -20.85 -7.25 -20.4 -7.5 -20.25 -16.45 -16.75 -26.15 -21.6 -27.3 -22.15 -27.55 -23.4 L-28.05 -26.15 -28.35 -29.4 Q-28.75 -36.5 -26.35 -43.55 -23.35 -52.3 -20.75 -61.1 -17.55 -72.0 -15.35 -82.9 -12.15 -98.5 -8.05 -113.7" fill="#ec2d2d" fill-rule="evenodd" stroke="none"/>
  </g>
</svg>
