<?xml version="1.0" encoding="UTF-8" standalone="no"?>
<svg xmlns:ffdec="https://www.free-decompiler.com/flash" xmlns:xlink="http://www.w3.org/1999/xlink" ffdec:objectType="shape" height="14.85px" width="32.8px" xmlns="http://www.w3.org/2000/svg">
  <g transform="matrix(1.0, 0.0, 0.0, 1.0, 27.2, -13.9)">
    <path d="M2.8 15.65 Q3.85 17.45 3.85 19.95 3.85 22.85 2.45 24.9 1.1 26.95 -0.85 26.95 -2.75 26.95 -4.15 24.9 -5.3 23.2 -5.45 20.95" fill="none" stroke="#000000" stroke-linecap="round" stroke-linejoin="round" stroke-width="3.5"/>
    <path d="M-5.45 20.95 L-6.55 21.6 M-5.45 20.95 L2.8 15.65" fill="none" stroke="#000000" stroke-linecap="round" stroke-linejoin="round" stroke-width="3.5"/>
    <path d="M-17.35 20.45 L-17.3 20.95 Q-17.35 23.45 -18.55 25.2 -19.7 27.0 -21.35 27.0 -23.05 27.0 -24.25 25.2 -25.45 23.45 -25.45 20.95 -25.45 19.5 -25.05 18.35 L-24.9 17.9" fill="none" stroke="#000000" stroke-linecap="round" stroke-linejoin="round" stroke-width="3.5"/>
    <path d="M-24.9 17.9 L-17.35 20.45 -16.8 20.6" fill="none" stroke="#000000" stroke-linecap="round" stroke-linejoin="round" stroke-width="3.5"/>
  </g>
</svg>
