<?xml version="1.0" encoding="UTF-8" standalone="no"?>
<svg xmlns:ffdec="https://www.free-decompiler.com/flash" xmlns:xlink="http://www.w3.org/1999/xlink" ffdec:objectType="shape" height="76.95px" width="126.6px" xmlns="http://www.w3.org/2000/svg">
  <g transform="matrix(1.0, 0.0, 0.0, 1.0, 40.05, 38.65)">
    <path d="M35.1 -24.65 L35.0 -25.5 Q34.9 -27.2 35.65 -28.75 36.45 -30.4 37.7 -31.65 L39.0 -29.45 Q42.5 -23.2 40.75 -16.6 L39.85 -14.0 Q38.7 -7.65 34.25 -3.05 L33.3 -2.0 35.6 0.45 34.2 1.15 33.05 -1.75 32.1 -0.45 Q31.05 0.85 29.9 1.65 26.35 4.05 21.6 2.15 L22.05 1.75 23.05 0.9 Q32.45 -7.05 34.5 -18.55 35.05 -21.5 35.1 -24.65 M44.3 -22.7 L44.4 -23.4 47.55 -27.0 48.45 -26.15 Q50.1 -24.45 50.25 -22.1 L50.05 -18.2 41.6 -11.0 42.7 -13.15 43.65 -15.2 Q44.9 -18.75 44.3 -22.7 M59.3 -5.9 L60.6 -6.55 66.0 -6.4 Q66.35 -4.4 65.55 -2.5 64.55 0.0 62.15 1.55 L66.65 0.05 Q67.7 0.05 68.45 0.8 69.2 1.5 69.2 2.5 L69.2 3.15 67.1 4.9 Q64.8 6.7 62.35 8.05 56.75 11.1 50.25 11.9 L46.45 12.0 45.3 8.25 44.65 8.8 Q43.5 9.55 42.4 9.95 38.3 11.35 34.75 7.65 L57.9 -4.3 59.3 -5.9 M64.55 10.8 L69.6 10.6 63.35 11.3 64.55 10.8 M74.4 10.75 L76.05 10.7 Q82.5 11.0 86.55 16.05 L84.5 16.9 Q77.25 19.85 70.0 16.55 74.6 16.3 74.5 11.9 L74.4 10.75 M66.35 18.3 Q72.85 20.15 76.5 26.5 L74.9 27.7 54.8 22.2 52.55 22.4 Q50.65 22.3 49.0 21.65 47.0 20.85 45.3 19.3 L61.4 17.5 63.6 17.7 66.35 18.3 M77.85 33.2 L78.2 35.05 76.45 36.7 64.45 30.25 54.7 24.6 54.75 22.3 Q59.05 26.1 63.95 28.7 69.15 31.45 75.05 32.75 L77.85 33.2 M-14.75 6.4 L-25.25 3.85 Q-17.6 4.35 -10.1 5.95 L-6.45 6.7 -7.25 7.3 -10.35 7.45 -14.75 6.4 M-36.45 1.1 L-40.05 -2.05 -36.95 -2.6 -24.55 -2.2 Q-29.65 -1.7 -34.15 0.15 L-36.45 1.1 M-18.65 -1.95 L-22.25 -5.05 -10.5 -0.65 -18.65 -1.95 M-31.15 -11.1 Q-34.2 -12.85 -33.8 -16.2 L-33.55 -18.1 -20.8 -11.35 Q-24.85 -12.25 -29.05 -11.55 L-31.15 -11.1 M-18.35 -10.0 L-17.55 -13.9 -14.55 -12.6 Q-11.85 -11.4 -9.4 -9.9 -1.15 -4.9 4.2 3.65 4.2 4.3 3.55 4.8 L2.0 5.25 0.55 3.6 Q-0.5 2.7 -1.8 2.1 L-3.0 1.5 -3.9 0.55 -18.35 -10.0 M-7.9 -17.9 L-7.15 -20.8 -1.4 -14.6 -7.9 -17.9 M-1.15 -23.35 L3.5 -24.25 5.1 -22.5 9.0 -17.5 Q12.2 -12.75 14.15 -7.2 L14.0 -6.8 15.55 0.5 Q14.45 1.6 13.9 3.1 L13.55 4.1 13.35 5.2 12.9 5.35 10.25 3.9 10.1 3.45 9.25 0.85 Q6.45 -7.5 2.7 -15.55 L-1.15 -23.35 M4.5 -26.5 L3.0 -28.9 Q0.45 -33.55 1.0 -38.65 8.45 -35.6 10.45 -27.9 L11.15 -28.2 13.0 -27.35 Q15.75 -25.9 18.0 -23.95 L19.9 -19.3 Q22.1 -11.45 17.8 -3.7 L17.6 -5.45 Q16.7 -12.8 12.9 -18.35 9.7 -23.05 4.5 -26.5 M46.35 -7.15 L43.8 -3.8 40.3 -2.0 46.35 -7.15" fill="#2d251e" fill-rule="evenodd" stroke="none"/>
    <path d="M18.0 -23.95 Q17.05 -29.05 19.5 -33.75 25.2 -27.15 26.25 -19.45 L29.5 -19.3 Q29.8 -22.9 29.05 -26.75 L29.3 -27.1 Q33.1 -26.95 33.85 -23.4 L35.1 -24.65 Q35.05 -21.5 34.5 -18.55 32.45 -7.05 23.05 0.9 L22.05 1.75 21.6 2.15 21.25 2.85 Q18.55 8.25 13.35 5.2 L13.55 4.1 13.9 3.1 Q14.45 1.6 15.55 0.5 L14.0 -6.8 14.15 -7.2 Q12.2 -12.75 9.0 -17.5 L5.1 -22.5 3.5 -24.25 4.5 -26.5 Q9.7 -23.05 12.9 -18.35 16.7 -12.8 17.6 -5.45 L17.8 -3.7 Q22.1 -11.45 19.9 -19.3 L18.0 -23.95 M40.75 -16.6 L41.5 -16.3 Q43.4 -19.25 44.3 -22.7 44.9 -18.75 43.65 -15.2 L42.7 -13.15 41.6 -11.0 50.05 -18.2 59.55 -23.9 60.95 -22.3 Q58.35 -16.8 54.1 -12.7 L57.05 -15.25 Q61.1 -12.85 58.35 -9.35 L58.75 -8.85 Q59.9 -7.55 59.3 -5.9 L57.9 -4.3 34.75 7.65 32.15 9.85 31.65 8.9 Q29.85 5.1 32.65 2.35 L29.9 1.65 Q31.05 0.85 32.1 -0.45 L33.05 -1.75 34.2 1.15 35.6 0.45 33.3 -2.0 34.25 -3.05 Q38.7 -7.65 39.85 -14.0 L40.75 -16.6 M44.4 -23.4 L46.65 -30.1 47.45 -29.65 Q51.65 -26.9 50.25 -22.1 50.1 -24.45 48.45 -26.15 L47.55 -27.0 44.4 -23.4 M66.0 -6.4 L68.8 -7.95 Q73.8 -10.1 78.8 -7.8 L77.65 -6.2 Q73.45 -0.7 66.65 0.05 L62.15 1.55 Q64.55 0.0 65.55 -2.5 66.35 -4.4 66.0 -6.4 M69.2 2.5 Q71.9 0.85 75.1 0.55 78.75 0.5 82.0 2.4 L80.05 3.9 Q73.1 9.4 64.55 10.8 L63.35 11.3 69.6 10.6 74.4 10.75 74.5 11.9 Q74.6 16.3 70.0 16.55 L66.0 17.0 66.35 18.3 63.6 17.7 61.4 17.5 45.3 19.3 Q44.0 19.95 42.7 19.9 41.45 19.8 40.5 19.05 39.05 17.9 38.3 16.2 41.5 14.7 44.85 13.8 L42.4 9.95 Q43.5 9.55 44.65 8.8 L45.3 8.25 46.45 12.0 50.25 11.9 Q56.75 11.1 62.35 8.05 64.8 6.7 67.1 4.9 L69.2 3.15 69.2 2.5 M76.5 26.5 L77.6 27.45 Q79.6 29.2 79.75 32.0 L77.85 33.2 75.05 32.75 Q69.15 31.45 63.95 28.7 59.05 26.1 54.75 22.3 L54.7 24.6 64.45 30.25 65.75 31.85 Q67.85 34.8 66.8 38.3 56.15 36.9 51.2 28.65 49.85 26.45 48.95 23.8 L49.4 23.1 49.9 23.1 49.0 21.65 Q50.65 22.3 52.55 22.4 L54.8 22.2 74.9 27.7 76.5 26.5 M-18.05 14.1 Q-22.15 15.35 -26.6 15.05 L-29.2 12.35 -25.8 10.35 Q-20.55 7.55 -14.75 6.4 L-10.35 7.45 -9.95 10.0 -13.3 12.05 Q-15.6 13.35 -18.05 14.1 M-25.25 3.85 L-26.65 4.2 Q-32.45 5.9 -36.45 1.1 L-34.15 0.15 Q-29.65 -1.7 -24.55 -2.2 L-18.65 -1.95 -10.5 -0.65 -22.25 -5.05 -23.5 -5.15 Q-28.7 -6.25 -31.15 -11.1 L-29.05 -11.55 Q-24.85 -12.25 -20.8 -11.35 L-18.35 -10.0 -3.9 0.55 -3.0 1.5 -1.8 2.1 Q-0.5 2.7 0.55 3.6 L2.0 5.25 1.2 6.15 Q-2.25 9.65 -6.45 6.7 L-10.1 5.95 Q-17.6 4.35 -25.25 3.85 M-17.55 -13.9 L-22.4 -16.2 -19.55 -17.25 Q-13.8 -19.2 -7.9 -17.9 L-1.4 -14.6 -7.15 -20.8 -10.25 -25.55 -8.25 -26.1 Q-3.95 -26.6 -1.15 -23.35 L2.7 -15.55 Q6.45 -7.5 9.25 0.85 L10.1 3.45 10.25 3.9 Q10.45 6.3 8.2 7.1 L7.1 7.6 4.2 3.65 Q-1.15 -4.9 -9.4 -9.9 -11.85 -11.4 -14.55 -12.6 L-17.55 -13.9 M46.35 -7.15 L40.3 -2.0 43.8 -3.8 46.35 -7.15" fill="#000000" fill-rule="evenodd" stroke="none"/>
    <path d="M51.2 28.65 L45.45 28.65 Q24.1 -1.9 -18.05 17.15 L-18.05 14.1 Q-15.6 13.35 -13.3 12.05 L-9.95 10.0 -10.35 7.45 -7.25 7.3 -6.45 6.7 Q-2.25 9.65 1.2 6.15 L2.0 5.25 3.55 4.8 Q4.2 4.3 4.2 3.65 L7.1 7.6 8.2 7.1 Q10.45 6.3 10.25 3.9 L12.9 5.35 13.35 5.2 Q18.55 8.25 21.25 2.85 L21.6 2.15 Q26.35 4.05 29.9 1.65 L32.65 2.35 Q29.85 5.1 31.65 8.9 L32.15 9.85 34.75 7.65 Q38.3 11.35 42.4 9.95 L44.85 13.8 Q41.5 14.7 38.3 16.2 39.05 17.9 40.5 19.05 41.45 19.8 42.7 19.9 44.0 19.95 45.3 19.3 47.0 20.85 49.0 21.65 L49.9 23.1 49.4 23.1 48.95 23.8 Q49.85 26.45 51.2 28.65" fill="#83563a" fill-rule="evenodd" stroke="none"/>
  </g>
</svg>
