<?xml version="1.0" encoding="UTF-8" standalone="no"?>
<svg xmlns:ffdec="https://www.free-decompiler.com/flash" xmlns:xlink="http://www.w3.org/1999/xlink" ffdec:objectType="shape" height="83.05px" width="83.05px" xmlns="http://www.w3.org/2000/svg">
  <g transform="matrix(1.0, 0.0, 0.0, 1.0, 25.0, 65.0)">
    <path d="M-10.6 -53.6 Q0.8 -64.0 16.55 -64.0 33.3 -64.0 45.15 -52.15 57.05 -40.25 57.05 -23.45 57.05 -6.7 45.15 5.15 33.3 17.05 16.55 17.05 L11.8 16.8 11.9 15.95 Q27.65 15.95 38.75 4.8 49.9 -6.3 49.9 -22.0 49.9 -37.75 38.75 -48.9 27.65 -60.0 11.9 -60.0 -0.55 -60.0 -10.1 -53.0 L-10.6 -53.6" fill="#724931" fill-rule="evenodd" stroke="none"/>
    <path d="M4.1 15.2 Q0.9 14.2 -2.05 12.65 L5.7 13.4 Q20.5 13.4 30.95 3.15 41.35 -7.05 41.4 -21.55 41.35 -36.05 30.95 -46.3 20.5 -56.55 5.7 -56.55 -2.95 -56.55 -10.1 -53.0 -0.55 -60.0 11.9 -60.0 27.65 -60.0 38.75 -48.9 49.9 -37.75 49.9 -22.0 49.9 -6.3 38.75 4.8 27.65 15.95 11.9 15.95 L4.1 15.2" fill="#83563a" fill-rule="evenodd" stroke="none"/>
    <path d="M-2.05 12.65 Q-7.5 9.8 -12.15 5.15 -24.0 -6.7 -24.0 -23.45 -24.0 -37.6 -15.6 -48.25 L-12.55 -51.75 -12.05 -52.0 -10.1 -53.0 Q-2.95 -56.55 5.7 -56.55 20.5 -56.55 30.95 -46.3 41.35 -36.05 41.4 -21.55 41.35 -7.05 30.95 3.15 20.5 13.4 5.7 13.4 L-2.05 12.65" fill="#926041" fill-rule="evenodd" stroke="none"/>
    <path d="M11.8 16.8 Q7.8 16.35 4.1 15.2 L11.9 15.95 11.8 16.8 M-12.15 -52.15 L-10.6 -53.6 -10.1 -53.0 -12.05 -52.0 -12.15 -52.15" fill="#db9c64" fill-rule="evenodd" stroke="none"/>
    <path d="M-12.55 -51.75 L-12.15 -52.15 -12.05 -52.0 -12.55 -51.75" fill="#edcda3" fill-rule="evenodd" stroke="none"/>
    <path d="M-10.6 -53.6 Q0.8 -64.0 16.55 -64.0 33.3 -64.0 45.15 -52.15 57.05 -40.25 57.05 -23.45 57.05 -6.7 45.15 5.15 33.3 17.05 16.55 17.05 L11.8 16.8 Q7.8 16.35 4.1 15.2 0.9 14.2 -2.05 12.65 -7.5 9.8 -12.15 5.15 -24.0 -6.7 -24.0 -23.45 -24.0 -37.6 -15.6 -48.25 L-12.55 -51.75 -12.15 -52.15 -10.6 -53.6" fill="none" stroke="#4b3121" stroke-linecap="round" stroke-linejoin="round" stroke-width="2.0"/>
    <path d="M-12.55 -51.75 L-12.05 -52.0" fill="none" stroke="#4b3121" stroke-linecap="round" stroke-linejoin="round" stroke-width="2.0"/>
  </g>
</svg>
