<?xml version="1.0" encoding="UTF-8" standalone="no"?>
<svg xmlns:ffdec="https://www.free-decompiler.com/flash" xmlns:xlink="http://www.w3.org/1999/xlink" ffdec:objectType="shape" height="61.9px" width="39.4px" xmlns="http://www.w3.org/2000/svg">
  <g transform="matrix(1.0, 0.0, 0.0, 1.0, 9.7, 10.95)">
    <path d="M-5.45 -8.85 L-5.5 -8.75 -5.65 -8.75 -5.45 -8.85" fill="#e53516" fill-rule="evenodd" stroke="none"/>
    <path d="M-5.65 -8.75 L-6.4 -8.2 Q-7.5 -7.0 -7.8 -5.5 -8.05 -4.5 -7.95 -3.4 -7.05 6.1 -4.45 15.15 -2.0 23.55 0.8 31.8 L4.7 42.65 5.85 45.0 6.45 45.65 13.55 45.4 13.6 45.5 14.4 46.15 Q9.8 49.5 5.15 46.75 4.35 46.3 3.95 45.55 L2.0 40.95 Q-1.2 32.55 -3.8 23.8 -6.8 13.85 -9.05 3.9 -10.35 -1.8 -9.0 -7.3 -8.75 -8.35 -8.05 -9.1 -5.45 -12.05 -1.7 -10.35 1.8 -8.85 4.1 -5.75 L15.0 9.0 24.15 21.8 Q26.8 24.25 28.2 27.65 28.6 28.6 28.5 29.65 28.35 31.9 27.35 33.95 L26.65 35.55 26.1 34.7 26.3 28.15 Q26.3 27.55 25.85 27.1 25.2 26.3 24.9 25.2 23.35 24.25 22.35 22.8 L19.45 18.65 2.6 -4.65 Q-0.05 -8.2 -4.5 -8.8 L-5.45 -8.85 -5.65 -8.75 M12.55 29.15 Q15.9 26.65 20.5 26.05 L23.0 25.95 25.1 26.35 Q26.6 28.55 25.1 30.9 L24.65 31.5 23.6 29.55 Q24.1 28.55 23.4 27.4 L23.15 27.0 22.0 27.05 19.65 27.55 19.3 27.6 Q15.85 28.5 13.3 30.45 10.55 32.5 8.8 35.8 L8.85 35.9 7.9 39.45 8.25 44.55 8.55 44.75 12.45 44.25 12.85 44.7 Q10.4 46.3 7.8 45.15 6.55 44.55 5.9 43.0 L6.25 43.3 Q5.4 42.3 5.55 39.3 6.3 36.95 7.55 34.75 L8.35 33.5 Q10.15 30.85 12.55 29.15" fill="#224a60" fill-rule="evenodd" stroke="none"/>
    <path d="M22.0 27.05 L23.15 27.0 23.4 27.4 Q24.1 28.55 23.6 29.55 L22.0 27.05 M12.45 44.25 L8.55 44.75 8.25 44.55 7.9 39.45 Q9.3 40.15 10.65 41.75 L12.6 44.2 12.45 44.25" fill="#26536a" fill-rule="evenodd" stroke="none"/>
    <path d="M-6.4 -8.2 Q2.6 -2.25 7.35 6.35 L14.0 18.8 Q15.9 22.6 15.55 23.6 15.05 25.1 13.85 26.15 L11.85 27.95 Q1.6 9.85 -6.4 -8.2 M4.7 42.65 L0.8 31.8 Q-2.0 23.55 -4.45 15.15 -7.05 6.1 -7.95 -3.4 -8.05 -4.5 -7.8 -5.5 -1.85 14.7 6.95 33.45 3.95 37.6 4.7 42.65" fill="#89a0b2" fill-rule="evenodd" stroke="none"/>
    <path d="M-5.65 -8.75 L-5.5 -8.75 -5.45 -8.85 -4.5 -8.8 Q-0.05 -8.2 2.6 -4.65 L19.45 18.65 22.35 22.8 Q23.35 24.25 24.9 25.2 25.2 26.3 25.85 27.1 26.3 27.55 26.3 28.15 L26.1 34.7 25.85 34.2 25.35 33.15 24.65 31.5 25.1 30.9 Q26.6 28.55 25.1 26.35 L23.0 25.95 20.5 26.05 Q15.9 26.65 12.55 29.15 L11.85 27.95 13.85 26.15 Q15.05 25.1 15.55 23.6 15.9 22.6 14.0 18.8 L7.35 6.35 Q2.6 -2.25 -6.4 -8.2 L-5.65 -8.75 M13.6 45.5 L13.55 45.4 6.45 45.65 5.85 45.0 4.7 42.65 Q3.95 37.6 6.95 33.45 L7.55 34.75 Q6.3 36.95 5.55 39.3 5.4 42.3 6.25 43.3 L5.9 43.0 Q6.55 44.55 7.8 45.15 10.4 46.3 12.85 44.7 L13.0 44.45 Q14.15 45.95 13.6 45.5" fill="#5e788e" fill-rule="evenodd" stroke="none"/>
    <path d="M-7.8 -5.5 Q-7.5 -7.0 -6.4 -8.2 1.6 9.85 11.85 27.95 9.2 30.45 7.05 33.3 L6.95 33.45 Q-1.85 14.7 -7.8 -5.5" fill="#aac99f" fill-rule="evenodd" stroke="none"/>
    <path d="M11.85 27.95 L12.55 29.15 Q10.15 30.85 8.35 33.5 L7.55 34.75 6.95 33.45 7.05 33.3 Q9.2 30.45 11.85 27.95" fill="#7bab6b" fill-rule="evenodd" stroke="none"/>
    <path d="M8.85 35.9 L8.8 35.8 Q10.55 32.5 13.3 30.45 15.85 28.5 19.3 27.6 L19.65 27.55 Q24.9 34.7 27.5 43.3 28.2 45.6 26.5 47.15 L26.1 47.45 25.55 47.85 25.35 48.0 25.4 47.35 Q23.9 33.6 18.0 33.6 13.95 33.6 11.75 36.55 11.05 37.45 10.45 38.6 L10.4 38.6 8.85 35.9" fill="#724931" fill-rule="evenodd" stroke="none"/>
    <path d="M10.4 38.6 L10.45 38.6 Q11.05 37.45 11.75 36.55 13.95 33.6 18.0 33.6 23.9 33.6 25.4 47.35 L25.35 48.0 Q22.25 49.95 19.0 47.95 17.2 46.95 15.95 45.15 L13.2 41.8 Q11.6 40.35 10.4 38.6" fill="#83563a" fill-rule="evenodd" stroke="none"/>
    <path d="M24.65 31.5 L25.35 33.15 25.85 34.2 26.1 34.7 26.65 35.55 Q28.55 38.85 29.5 42.85 30.5 47.25 26.5 49.65 22.7 52.0 18.65 50.15 15.8 48.85 14.4 46.15 L13.6 45.5 Q14.15 45.95 13.0 44.45 L12.85 44.7 12.45 44.25 12.6 44.2 10.65 41.75 Q9.3 40.15 7.9 39.45 L8.85 35.9 10.4 38.6 Q11.6 40.35 13.2 41.8 L15.95 45.15 Q17.2 46.95 19.0 47.95 22.25 49.95 25.35 48.0 L25.55 47.85 26.1 47.45 26.5 47.15 Q28.2 45.6 27.5 43.3 24.9 34.7 19.65 27.55 L22.0 27.05 23.6 29.55 24.65 31.5" fill="#4b3121" fill-rule="evenodd" stroke="none"/>
  </g>
</svg>
