<?xml version="1.0" encoding="UTF-8" standalone="no"?>
<svg xmlns:ffdec="https://www.free-decompiler.com/flash" xmlns:xlink="http://www.w3.org/1999/xlink" ffdec:objectType="shape" height="46.5px" width="46.3px" xmlns="http://www.w3.org/2000/svg">
  <g transform="matrix(1.0, 0.0, 0.0, 1.0, 20.1, 25.35)">
    <path d="M15.35 -3.2 Q19.6 -0.25 18.05 1.85 L13.6 8.15 Q12.5 9.7 8.7 13.1 9.05 9.4 6.3 4.4 1.85 -3.6 -3.65 9.45 -9.15 22.45 -8.7 12.5 -8.3 2.6 -4.5 -1.75 -0.75 -6.1 5.2 -6.1 11.15 -6.1 15.35 -3.2" fill="#224a60" fill-rule="evenodd" stroke="none"/>
    <path d="M11.5 -14.7 L11.55 -14.7 Q16.1 -14.6 20.0 -12.35 21.95 -11.25 23.55 -9.5 L23.55 -9.55 Q24.9 -8.05 25.5 -6.25 26.0 -4.65 26.1 -2.85 L26.15 -2.5 26.15 -2.4 26.2 -1.35 Q26.1 2.45 24.25 6.05 23.3 7.85 21.95 9.4 L21.3 10.1 21.1 9.2 Q20.65 7.45 19.1 5.5 L19.15 5.55 Q16.7 3.0 13.3 2.6 L11.35 5.55 9.35 5.7 8.1 20.5 8.15 20.95 8.05 20.95 8.0 21.1 7.6 21.05 7.2 21.15 7.15 21.05 7.0 21.0 7.05 20.55 3.85 5.65 3.95 5.3 4.1 5.15 4.1 5.1 8.5 2.1 10.95 -0.1 10.95 -0.15 11.25 -0.5 11.3 -0.5 11.85 -1.35 12.4 -2.55 Q12.6 -3.45 12.4 -4.25 8.35 -5.9 4.45 -4.4 0.15 -2.65 -2.95 0.55 L-2.9 0.55 Q-5.85 3.65 -7.1 7.8 -8.0 10.65 -8.2 13.75 L-8.2 13.8 -7.6 16.95 -8.6 17.15 -9.2 13.95 Q-9.6 11.15 -10.3 8.5 L-11.25 5.65 Q-14.4 10.1 -19.4 8.0 L-20.1 7.75 -19.5 7.2 Q-14.65 2.75 -14.1 -0.45 L-14.2 -0.75 -14.2 -0.7 Q-14.65 -1.85 -14.2 -2.95 -13.8 -4.25 -12.8 -5.25 L-10.05 -7.7 Q-6.65 -10.45 -2.25 -11.95 L0.7 -12.85 0.65 -12.85 5.55 -13.95 11.5 -14.7 M12.6 -13.65 L11.55 -13.7 5.7 -12.95 2.25 -12.25 0.95 -11.9 -1.9 -11.0 Q-6.15 -9.55 -9.4 -6.9 L-9.45 -6.9 -12.1 -4.55 Q-12.9 -3.75 -13.25 -2.65 L-13.25 -2.6 Q-13.55 -1.85 -13.25 -1.05 L-13.25 -1.0 -13.15 -0.7 -13.1 -0.65 -11.6 2.5 -10.7 4.35 -10.65 4.4 -10.55 4.7 -10.5 4.75 Q-9.85 6.45 -9.35 8.25 L-8.8 10.5 -8.05 7.5 Q-6.75 3.15 -3.65 -0.15 -0.45 -3.55 4.05 -5.35 L4.1 -5.35 12.9 -5.1 13.05 -5.05 13.3 -4.75 Q13.65 -3.6 13.35 -2.3 L13.0 -1.35 12.05 0.1 12.05 0.15 11.7 0.55 11.65 0.55 9.1 2.9 6.3 4.9 10.75 4.6 12.8 1.55 13.1 1.55 Q17.1 1.9 19.9 4.85 L19.9 4.9 20.0 5.05 Q21.2 6.6 21.75 8.05 L23.35 5.6 Q25.1 2.2 25.15 -1.35 L25.15 -2.3 25.1 -2.8 25.1 -2.85 Q25.0 -4.45 24.55 -5.95 24.0 -7.55 22.8 -8.85 21.35 -10.45 19.5 -11.5 16.3 -13.35 12.6 -13.65 M-12.45 3.0 L-13.45 1.05 Q-14.55 3.85 -18.25 7.4 -14.25 8.6 -11.7 4.55 L-12.45 3.0 M8.3 5.8 L5.0 6.0 7.35 17.15 8.3 5.8" fill="#224a60" fill-rule="evenodd" stroke="none"/>
    <path d="M2.25 -12.25 L5.7 -12.95 11.55 -13.7 12.6 -13.65 Q18.1 -10.6 17.8 -6.7 20.8 -7.8 23.85 -4.65 L23.8 -1.35 Q23.3 3.75 20.0 5.05 L19.9 4.9 19.9 4.85 Q17.1 1.9 13.1 1.55 L12.8 1.55 10.75 4.6 6.3 4.9 9.1 2.9 11.65 0.55 11.7 0.55 12.05 0.15 12.05 0.1 13.0 -1.35 13.35 -2.3 Q13.65 -3.6 13.3 -4.75 L13.05 -5.05 12.9 -5.1 Q14.0 -11.0 7.95 -11.65 L2.25 -12.25" fill="#89a0b2" fill-rule="evenodd" stroke="none"/>
    <path d="M12.6 -13.65 Q16.3 -13.35 19.5 -11.5 21.35 -10.45 22.8 -8.85 24.0 -7.55 24.55 -5.95 25.0 -4.45 25.1 -2.85 L25.1 -2.8 25.15 -2.3 25.15 -1.35 Q25.1 2.2 23.35 5.6 L21.75 8.05 Q21.2 6.6 20.0 5.05 23.3 3.75 23.8 -1.35 L23.85 -4.65 Q20.8 -7.8 17.8 -6.7 18.1 -10.6 12.6 -13.65 M12.9 -5.1 L4.1 -5.35 4.05 -5.35 Q-0.45 -3.55 -3.65 -0.15 -6.75 3.15 -8.05 7.5 L-8.8 10.5 -9.35 8.25 Q-9.85 6.45 -10.5 4.75 L-10.55 4.7 -10.65 4.4 -10.7 4.35 -11.6 2.5 -13.1 -0.65 -13.15 -0.7 -13.25 -1.0 -13.25 -1.05 Q-13.55 -1.85 -13.25 -2.6 L-13.25 -2.65 Q-12.9 -3.75 -12.1 -4.55 L-9.45 -6.9 -9.4 -6.9 Q-6.15 -9.55 -1.9 -11.0 L0.95 -11.9 2.25 -12.25 7.95 -11.65 Q14.0 -11.0 12.9 -5.1" fill="#5e788e" fill-rule="evenodd" stroke="none"/>
    <path d="M8.3 5.8 L7.35 17.15 5.0 6.0 8.3 5.8 M-12.45 3.0 L-11.7 4.55 Q-14.25 8.6 -18.25 7.4 -14.55 3.85 -13.45 1.05 L-12.45 3.0" fill="#3d4d5a" fill-rule="evenodd" stroke="none"/>
    <path d="M10.05 -11.8 L10.75 -15.25 11.5 -17.95 11.6 -18.3 12.2 -19.45 11.65 -21.0 Q10.4 -23.4 7.6 -23.4 L0.15 -23.3 2.55 -13.4 2.65 -13.1 2.75 -12.75 2.8 -12.3 Q2.95 -3.2 1.65 2.15 L-0.55 7.25 Q2.2 -7.3 -0.3 -17.25 L-2.05 -24.0 -2.05 -24.55 -1.7 -25.05 -1.15 -25.25 7.6 -25.35 Q11.65 -25.35 13.35 -21.9 L14.25 -19.55 14.15 -18.85 13.35 -17.4 13.35 -17.35 12.7 -14.85 12.7 -14.8 Q10.65 -5.95 11.75 2.85 L8.3 5.8 10.05 -11.8" fill="#4b3121" fill-rule="evenodd" stroke="none"/>
    <path d="M2.8 -12.3 L2.75 -12.75 2.65 -13.1 2.55 -13.4 0.15 -23.3 7.6 -23.4 Q10.4 -23.4 11.65 -21.0 L12.2 -19.45 11.6 -18.3 11.5 -17.95 10.75 -15.25 10.05 -11.8 8.8 -11.75 Q6.55 -11.4 2.8 -12.3" fill="#724931" fill-rule="evenodd" stroke="none"/>
    <path d="M2.8 -12.3 Q6.55 -11.4 8.8 -11.75 L10.05 -11.8 8.3 5.8 Q4.2 7.55 -0.55 7.25 L1.65 2.15 Q2.95 -3.2 2.8 -12.3" fill="#83563a" fill-rule="evenodd" stroke="none"/>
    <path d="M25.15 -1.35 L26.2 -1.35 Q26.1 2.45 24.25 6.05 23.3 7.85 21.95 9.4 L21.3 10.1 21.1 9.2 Q20.65 7.45 19.1 5.5 L19.15 5.55 Q16.7 3.0 13.3 2.6 L11.35 5.55 9.35 5.7 8.1 20.5 8.15 20.95 8.05 20.95 8.0 21.1 7.6 21.05 7.2 21.15 7.15 21.05 7.0 21.0 7.05 20.55 3.85 5.65 3.95 5.3 4.1 5.15 4.1 5.1 8.5 2.1 10.95 -0.1 10.95 -0.15 11.25 -0.5 11.3 -0.5 11.85 -1.35 13.0 -1.35 12.05 0.1 12.05 0.15 11.7 0.55 11.65 0.55 9.1 2.9 6.3 4.9 10.75 4.6 12.8 1.55 13.1 1.55 Q17.1 1.9 19.9 4.85 L19.9 4.9 20.0 5.05 Q21.2 6.6 21.75 8.05 L23.35 5.6 Q25.1 2.2 25.15 -1.35 M8.3 5.8 L5.0 6.0 7.35 17.15 8.3 5.8" fill="#224a60" fill-rule="evenodd" stroke="none"/>
    <path d="M25.15 -1.35 Q25.1 2.2 23.35 5.6 L21.75 8.05 Q21.2 6.6 20.0 5.05 23.3 3.75 23.8 -1.35 L25.15 -1.35" fill="#5e788e" fill-rule="evenodd" stroke="none"/>
    <path d="M20.0 5.05 L19.9 4.9 19.9 4.85 Q17.1 1.9 13.1 1.55 L12.8 1.55 10.75 4.6 6.3 4.9 9.1 2.9 11.65 0.55 11.7 0.55 12.05 0.15 12.05 0.1 13.0 -1.35 23.8 -1.35 Q23.3 3.75 20.0 5.05" fill="#89a0b2" fill-rule="evenodd" stroke="none"/>
    <path d="M8.3 5.8 L7.35 17.15 5.0 6.0 8.3 5.8" fill="#3d4d5a" fill-rule="evenodd" stroke="none"/>
  </g>
</svg>
