<?xml version="1.0" encoding="UTF-8" standalone="no"?>
<svg xmlns:ffdec="https://www.free-decompiler.com/flash" xmlns:xlink="http://www.w3.org/1999/xlink" ffdec:objectType="shape" height="14.65px" width="27.85px" xmlns="http://www.w3.org/2000/svg">
  <g transform="matrix(1.0, 0.0, 0.0, 1.0, -1.4, 5.5)">
    <path d="M28.5 -2.8 Q29.25 -1.7 29.25 0.75 29.25 3.2 25.85 5.75 21.35 9.1 13.75 9.1 L9.15 9.0 9.1 9.0 7.9 9.15 Q1.0 9.15 1.45 3.55 1.35 3.0 1.55 2.75 2.2 -0.2 8.35 -2.8 14.65 -5.5 21.0 -5.5 26.75 -5.5 28.5 -2.8 M4.75 7.2 L4.95 7.3 5.9 7.7 Q17.65 8.85 23.0 5.7 27.35 3.15 27.35 0.4 27.35 -3.75 19.75 -3.75 11.95 -3.75 6.7 -0.45 L2.95 2.35 3.65 3.3 4.25 4.05 Q6.05 2.35 11.75 2.1 L13.0 2.35 13.1 2.5 8.75 3.85 Q7.85 4.15 6.0 5.45 L6.0 5.5 5.9 5.7 4.85 7.0 4.5 7.1 4.75 7.2" fill="#463624" fill-rule="evenodd" stroke="none"/>
    <path d="M4.85 7.0 L5.9 5.7 6.0 5.5 6.0 5.45 Q7.85 4.15 8.75 3.85 L13.1 2.5 13.0 2.35 11.75 2.1 Q6.05 2.35 4.25 4.05 L3.65 3.3 2.95 2.35 6.7 -0.45 Q11.95 -3.75 19.75 -3.75 27.35 -3.75 27.35 0.4 27.35 3.15 23.0 5.7 17.65 8.85 5.9 7.7 L4.95 7.3 4.75 7.2 4.85 7.0" fill="#e5e5e5" fill-rule="evenodd" stroke="none"/>
  </g>
</svg>
