<?xml version="1.0" encoding="UTF-8" standalone="no"?>
<svg xmlns:ffdec="https://www.free-decompiler.com/flash" xmlns:xlink="http://www.w3.org/1999/xlink" ffdec:objectType="shape" height="25.9px" width="35.65px" xmlns="http://www.w3.org/2000/svg">
  <g transform="matrix(1.0, 0.0, 0.0, 1.0, 3.8, 12.8)">
    <path d="M3.95 -3.05 L7.7 -5.65 Q15.55 -10.75 21.0 -10.75 26.3 -10.75 28.9 -6.45 L29.95 -4.35 29.45 -4.65 Q28.85 -5.3 26.25 -5.3 L24.75 -5.25 Q9.75 0.35 8.25 0.35 7.75 0.35 5.85 -1.45 L3.95 -3.05" fill="#e5e5e5" fill-rule="evenodd" stroke="none"/>
    <path d="M3.95 -3.05 L5.85 -1.45 Q7.75 0.35 8.25 0.35 9.75 0.35 24.75 -5.25 L26.25 -5.3 Q28.85 -5.3 29.45 -4.65 L29.95 -4.35 28.9 -6.45 Q26.3 -10.75 21.0 -10.75 15.55 -10.75 7.7 -5.65 L3.95 -3.05 3.45 -2.7 3.95 -3.05 M30.45 -2.8 L30.35 -2.8 Q29.05 -2.8 28.65 -3.4 28.3 -4.0 26.05 -4.0 22.4 -4.0 15.8 -1.25 9.25 1.5 8.4 1.5 6.55 1.5 3.1 -2.4 L2.45 -1.85 -0.4 0.75 Q2.05 2.55 2.4 5.85 L2.45 11.5 9.0 11.75 Q15.45 11.75 20.0 10.65 L20.05 10.65 20.85 10.4 19.95 10.65 19.9 10.4 Q19.9 9.95 20.65 9.55 21.4 9.2 21.4 8.85 20.65 8.65 20.0 8.1 17.25 10.6 14.75 10.6 10.9 10.6 10.9 7.65 10.9 5.85 12.5 3.6 15.0 0.15 19.75 0.15 24.3 0.15 27.0 2.5 28.8 4.05 29.0 5.4 31.25 2.3 30.6 -1.25 L30.45 -2.75 30.35 -3.25 30.45 -2.8 M31.85 -1.4 Q31.85 3.75 29.75 6.5 24.65 13.1 8.9 13.1 L1.05 13.05 Q0.8 13.0 0.9 12.8 L0.95 12.1 Q0.95 11.35 1.1 10.75 L1.2 8.25 Q1.2 1.75 -1.7 1.75 -2.25 1.75 -3.25 2.6 -3.8 2.4 -3.8 1.8 12.9 -12.8 22.6 -12.8 27.7 -12.8 30.3 -7.25 31.6 -4.45 31.85 -1.4 M25.7 8.35 L28.15 6.4 Q27.8 6.2 27.6 5.7 L26.75 3.95 Q25.0 1.4 19.75 1.4 13.9 1.4 12.35 6.15 L12.0 7.4 Q12.0 9.25 14.15 9.25 17.2 9.25 19.45 7.15 21.0 5.7 21.6 4.0 L22.0 3.85 22.35 4.2 22.05 5.65 21.3 6.85 21.2 6.95 21.35 6.9 21.7 6.9 22.0 6.95 23.65 7.75 23.75 7.9 23.9 8.2 23.9 8.3 24.0 9.0 23.9 9.3 24.1 9.2 25.7 8.35 M22.6 3.55 L22.6 4.9 22.25 5.65 22.25 5.3 22.35 4.25 22.55 4.2 22.6 3.55" fill="#463624" fill-rule="evenodd" stroke="none"/>
    <path d="M20.0 10.65 Q15.45 11.75 9.0 11.75 L2.45 11.5 2.4 5.85 Q2.05 2.55 -0.4 0.75 L2.45 -1.85 3.1 -2.4 Q6.55 1.5 8.4 1.5 9.25 1.5 15.8 -1.25 22.4 -4.0 26.05 -4.0 28.3 -4.0 28.65 -3.4 29.05 -2.8 30.35 -2.8 L30.45 -2.8 30.45 -2.75 30.6 -1.25 Q31.25 2.3 29.0 5.4 28.8 4.05 27.0 2.5 24.3 0.15 19.75 0.15 15.0 0.15 12.5 3.6 10.9 5.85 10.9 7.65 10.9 10.6 14.75 10.6 17.25 10.6 20.0 8.1 20.65 8.65 21.4 8.85 21.4 9.2 20.65 9.55 19.9 9.95 19.9 10.4 L19.95 10.65 20.0 10.65" fill="#57352d" fill-rule="evenodd" stroke="none"/>
    <path d="M12.35 6.15 Q13.9 1.4 19.75 1.4 25.0 1.4 26.75 3.95 L27.6 5.7 Q27.8 6.2 28.15 6.4 L25.7 8.35 25.75 7.75 Q25.25 3.15 22.1 3.15 L20.4 5.35 Q18.7 7.5 15.75 7.5 13.45 7.5 12.35 6.15 M21.7 6.9 L21.35 6.9 21.3 6.85 22.05 5.65 21.7 6.9" fill="#b45f50" fill-rule="evenodd" stroke="none"/>
    <path d="M12.35 6.15 Q13.45 7.5 15.75 7.5 18.7 7.5 20.4 5.35 L22.1 3.15 Q25.25 3.15 25.75 7.75 L25.7 8.35 24.1 9.2 24.0 9.0 23.9 8.3 23.9 8.2 23.75 7.9 23.65 7.75 22.0 6.95 21.7 6.9 22.05 5.65 22.35 4.2 22.0 3.85 21.6 4.0 Q21.0 5.7 19.45 7.15 17.2 9.25 14.15 9.25 12.0 9.25 12.0 7.4 L12.35 6.15 M22.6 3.55 L22.55 4.2 22.35 4.25 22.25 5.3 22.25 5.65 22.6 4.9 22.6 3.55" fill="#a05345" fill-rule="evenodd" stroke="none"/>
  </g>
</svg>
