<?xml version="1.0" encoding="UTF-8" standalone="no"?>
<svg xmlns:ffdec="https://www.free-decompiler.com/flash" xmlns:xlink="http://www.w3.org/1999/xlink" ffdec:objectType="shape" height="16.6px" width="36.9px" xmlns="http://www.w3.org/2000/svg">
  <g transform="matrix(1.0, 0.0, 0.0, 1.0, 8.15, 11.6)">
    <path d="M22.9 -11.4 L23.7 -11.5 Q24.6 -11.4 23.9 -11.4 L23.45 -11.15 Q28.2 -11.1 28.75 -3.9 25.7 5.2 20.7 5.0 15.65 4.75 9.7 3.5 4.0 2.3 0.5 0.65 -4.4 0.45 -6.65 -0.95 L-8.15 -3.55 Q1.55 -0.25 11.3 -3.55 18.05 -6.0 22.9 -11.4 M26.75 -4.15 Q26.75 -7.1 22.1 -8.1 20.75 -6.15 16.6 -3.3 12.65 -0.65 7.65 0.25 L11.5 1.15 17.75 2.45 18.9 2.9 Q18.8 2.75 19.05 1.3 19.25 -0.15 20.4 -2.45 21.55 -4.8 23.25 -4.75 L26.25 -4.25 26.75 -4.05 26.75 -4.15 M26.3 -2.65 L22.75 -2.9 Q21.5 -2.9 20.65 -0.25 19.95 1.8 20.3 3.1 20.6 2.75 22.05 2.75 23.4 2.75 25.15 -0.4 L26.35 -2.65 26.5 -3.05 26.3 -2.65" fill="#463624" fill-rule="evenodd" stroke="none"/>
    <path d="M26.35 -2.65 L25.15 -0.4 Q23.4 2.75 22.05 2.75 20.6 2.75 20.3 3.1 19.95 1.8 20.65 -0.25 21.5 -2.9 22.75 -2.9 L26.3 -2.65 26.35 -2.65" fill="#b45f50" fill-rule="evenodd" stroke="none"/>
    <path d="M26.75 -4.05 L26.25 -4.25 23.25 -4.75 Q21.55 -4.8 20.4 -2.45 19.25 -0.15 19.05 1.3 18.8 2.75 18.9 2.9 L17.75 2.45 11.5 1.15 7.65 0.25 Q12.65 -0.65 16.6 -3.3 20.75 -6.15 22.1 -8.1 26.75 -7.1 26.75 -4.15 L26.75 -4.05" fill="#57352d" fill-rule="evenodd" stroke="none"/>
  </g>
</svg>
