<?xml version="1.0" encoding="UTF-8" standalone="no"?>
<svg xmlns:ffdec="https://www.free-decompiler.com/flash" xmlns:xlink="http://www.w3.org/1999/xlink" ffdec:objectType="shape" height="175.8px" width="64.85px" xmlns="http://www.w3.org/2000/svg">
  <g transform="matrix(1.0, 0.0, 0.0, 1.0, 27.8, 143.1)">
    <path d="M-21.1 -34.05 L-15.3 -32.8 -9.85 -32.1 -10.5 -28.95 -15.05 -29.55 -15.1 -29.55 Q-18.1 -29.9 -21.65 -32.15 L-21.1 -34.05 M-8.85 -32.0 L-2.85 -31.6 -3.65 -27.95 -3.65 -27.9 -4.95 -18.2 -3.95 -18.1 -1.9 -31.3 31.1 -30.1 28.85 -29.7 29.2 -29.55 29.35 -29.2 29.4 -28.75 28.95 -28.7 28.4 -28.6 28.3 -26.55 26.2 -24.4 12.7 -24.4 12.7 -15.4 9.8 -14.45 9.0 -14.3 Q8.75 -14.3 9.2 -14.05 L8.2 -13.9 8.2 -9.35 8.75 -9.4 Q10.15 -9.5 14.65 -11.05 21.9 -13.65 28.4 -20.85 30.0 4.0 20.25 26.4 10.85 31.85 -3.65 30.4 -20.05 28.65 -24.5 7.8 -28.05 -8.55 -21.95 -31.1 -18.3 -28.9 -15.2 -28.55 L-10.7 -27.95 Q-12.4 -18.55 -12.3 -9.15 L-12.3 -8.8 -11.95 -8.65 Q-8.35 -7.35 -4.95 -7.9 L-4.45 -8.0 -4.65 -8.95 -5.1 -8.9 Q-8.1 -8.4 -11.3 -9.5 -11.35 -18.9 -9.6 -28.3 L-8.85 -32.0 M-1.85 -31.55 L-1.4 -31.5 -1.85 -31.4 -1.85 -31.55 M28.3 -25.05 L28.3 -26.4 28.3 -26.55 28.45 -26.7 28.8 -26.85 29.15 -26.7 29.3 -26.35 29.4 -28.75 31.5 -29.15 Q32.8 -21.9 33.4 -3.75 34.05 15.65 22.95 24.6 L21.7 25.5 Q31.2 2.9 29.3 -22.15 L29.15 -22.45 28.75 -22.6 28.45 -22.4 28.3 -22.1 28.3 -22.25 Q21.7 -14.65 14.3 -12.0 10.75 -10.75 9.2 -10.45 L9.2 -13.3 10.05 -13.5 13.4 -14.55 Q19.9 -16.9 26.75 -23.5 L26.75 -23.55 28.3 -25.05 M13.7 -23.4 L25.15 -23.4 Q19.3 -17.95 13.7 -15.75 L13.7 -23.4 M8.1 -24.2 L0.05 -24.2 -2.85 -6.0 Q-12.65 -4.6 -13.4 -10.95 -14.15 -17.35 -13.2 -26.25 -17.55 -26.6 -20.0 -27.8 -22.0 -22.95 -22.75 -19.75 -24.45 -12.7 -23.45 -1.55 -22.55 9.55 -16.4 16.0 -10.3 22.4 0.9 21.9 12.1 21.35 16.0 14.05 19.85 6.75 22.2 0.15 24.55 -6.45 24.65 -13.2 L16.2 -8.75 Q10.6 -5.75 7.8 -5.8 4.65 -9.8 8.1 -24.2" fill="#2b3e4d" fill-rule="evenodd" stroke="none"/>
    <path d="M-23.0 -34.75 L-22.15 -34.4 -21.1 -34.05 -21.65 -32.15 Q-18.1 -29.9 -15.1 -29.55 L-15.05 -29.55 -10.5 -28.95 -9.85 -32.1 -8.85 -32.0 -9.6 -28.3 Q-11.35 -18.9 -11.3 -9.5 -8.1 -8.4 -5.1 -8.9 L-4.65 -8.95 -4.45 -8.0 -4.95 -7.9 Q-8.35 -7.35 -11.95 -8.65 L-12.3 -8.8 -12.3 -9.15 Q-12.4 -18.55 -10.7 -27.95 L-15.2 -28.55 Q-18.3 -28.9 -21.95 -31.1 -28.05 -8.55 -24.5 7.8 -20.05 28.65 -3.65 30.4 10.85 31.85 20.25 26.4 30.0 4.0 28.4 -20.85 21.9 -13.65 14.65 -11.05 10.15 -9.5 8.75 -9.4 L8.2 -9.35 8.2 -13.9 9.2 -14.05 Q8.75 -14.3 9.0 -14.3 L9.8 -14.45 12.7 -15.4 12.7 -24.4 26.2 -24.4 28.3 -26.55 28.4 -28.6 28.95 -28.7 29.4 -28.75 29.35 -29.2 29.2 -29.55 28.85 -29.7 31.1 -30.1 -1.9 -31.3 -3.95 -18.1 -4.95 -18.2 -3.65 -27.9 -3.65 -27.95 -2.85 -31.6 -1.85 -31.55 -1.85 -31.4 -1.4 -31.5 6.1 -31.4 18.9 -31.8 19.5 -31.85 21.3 -36.45 23.45 -32.2 24.15 -32.3 27.45 -32.8 Q31.3 -33.4 33.5 -34.15 L33.6 -34.15 34.3 -34.55 34.6 -31.3 Q39.2 17.4 26.3 25.75 13.6 34.15 -3.85 32.4 -21.65 30.65 -26.45 8.2 -30.3 -9.4 -23.2 -34.05 L-23.2 -34.25 -23.05 -34.6 -23.0 -34.75 M28.3 -25.05 L26.75 -23.55 26.75 -23.5 Q19.9 -16.9 13.4 -14.55 L10.05 -13.5 9.2 -13.3 9.2 -10.45 Q10.75 -10.75 14.3 -12.0 21.7 -14.65 28.3 -22.25 L28.3 -22.1 28.45 -22.4 28.75 -22.6 29.15 -22.45 29.3 -22.15 Q31.2 2.9 21.7 25.5 L22.95 24.6 Q34.05 15.65 33.4 -3.75 32.8 -21.9 31.5 -29.15 L29.4 -28.75 29.3 -26.35 29.15 -26.7 28.8 -26.85 28.45 -26.7 28.3 -26.55 28.3 -26.4 28.3 -25.05 M13.7 -23.4 L13.7 -15.75 Q19.3 -17.95 25.15 -23.4 L13.7 -23.4" fill="#23333f" fill-rule="evenodd" stroke="none"/>
    <path d="M8.1 -24.2 Q4.65 -9.8 7.8 -5.8 10.6 -5.75 16.2 -8.75 L24.65 -13.2 Q24.55 -6.45 22.2 0.15 19.85 6.75 16.0 14.05 12.1 21.35 0.9 21.9 -10.3 22.4 -16.4 16.0 -22.55 9.55 -23.45 -1.55 -24.45 -12.7 -22.75 -19.75 -22.0 -22.95 -20.0 -27.8 -17.55 -26.6 -13.2 -26.25 -14.15 -17.35 -13.4 -10.95 -12.65 -4.6 -2.85 -6.0 L0.05 -24.2 8.1 -24.2" fill="#2f4455" fill-rule="evenodd" stroke="none"/>
    <path d="M17.65 -122.1 Q14.05 -134.5 3.5 -140.45 1.5 -141.9 -5.85 -137.0 -13.45 -131.9 -12.5 -118.4 L-11.3 -102.05 -11.3 -125.85 -6.4 -126.45 -6.3 -126.55 -5.9 -126.6 -5.75 -126.55 -0.7 -127.2 -0.9 -126.45 Q-4.7 -114.2 -4.3 -101.15 L-4.3 -100.55 -7.7 -101.0 -7.75 -101.0 -8.0 -101.05 -11.25 -101.45 -10.25 -89.4 Q-9.0 -74.4 -11.95 -61.15 -14.7 -49.0 -21.45 -39.0 -19.35 -38.2 -15.05 -37.55 -6.3 -36.15 6.1 -36.15 L16.25 -36.5 20.7 -45.45 26.25 -37.35 27.55 -37.55 33.0 -38.8 32.1 -38.55 Q34.85 -40.45 31.4 -58.4 L24.7 -93.15 Q21.8 -107.9 17.65 -122.1 M-23.0 -34.75 Q-25.15 -35.85 -24.95 -37.15 -25.0 -38.1 -24.0 -38.85 L-23.5 -39.55 Q-16.65 -49.45 -13.9 -61.6 -11.0 -74.6 -12.25 -89.25 L-14.5 -118.25 Q-15.55 -133.1 -6.95 -138.65 1.9 -144.5 4.55 -142.65 15.75 -135.8 19.55 -122.65 23.7 -108.4 26.65 -93.55 L32.35 -64.65 Q34.8 -52.15 36.55 -39.7 L36.55 -39.65 36.95 -36.65 37.05 -36.0 34.3 -34.55 33.6 -34.15 33.5 -34.15 Q31.3 -33.4 27.45 -32.8 L24.15 -32.3 23.45 -32.2 21.3 -36.45 19.5 -31.85 18.9 -31.8 6.1 -31.4 -1.4 -31.5 -1.85 -31.55 -2.85 -31.6 -8.85 -32.0 -9.85 -32.1 -15.3 -32.8 -21.1 -34.05 -22.15 -34.4 -23.0 -34.75 M33.4 -37.85 L33.35 -37.85 28.9 -36.8 26.95 -36.45 26.15 -36.3 25.85 -36.25 20.85 -43.5 16.9 -35.55 16.6 -35.55 6.1 -35.15 Q-6.4 -35.15 -15.2 -36.55 -19.8 -37.25 -21.95 -38.1 L-22.05 -38.15 -22.45 -37.6 -22.55 -37.4 -22.7 -37.3 -22.95 -37.15 -21.4 -36.25 Q-19.35 -35.45 -15.0 -34.8 L-15.0 -34.75 Q-6.25 -33.4 6.1 -33.4 10.25 -33.4 14.0 -33.55 L16.85 -33.65 17.3 -33.7 18.1 -33.75 21.1 -41.35 24.6 -34.4 26.05 -34.6 27.15 -34.8 27.15 -34.75 28.0 -34.9 31.15 -35.55 32.85 -36.0 32.9 -36.05 34.85 -37.1 34.7 -38.5 33.45 -37.9 33.4 -37.85 M-2.1 -126.0 L-4.7 -125.5 Q-8.5 -113.75 -7.35 -101.95 L-5.3 -101.7 Q-5.6 -114.2 -2.1 -126.0 M-7.45 -125.15 L-10.3 -124.95 -10.3 -102.35 -8.35 -102.1 Q-9.5 -113.75 -7.45 -125.15" fill="#2d4316" fill-rule="evenodd" stroke="none"/>
    <path d="M-0.7 -115.55 L-1.6 -114.85 -2.2 -115.7 -2.5 -114.75 -1.8 -114.15 -2.5 -112.4 -1.8 -111.45 Q-2.35 -107.9 -2.15 -105.1 -1.95 -102.2 -2.45 -98.95 L-8.3 -98.5 -7.45 -91.3 Q-6.3 -77.05 -8.05 -66.4 -9.6 -57.2 -12.75 -47.65 -7.5 -44.8 5.95 -45.6 -8.15 -43.75 -13.6 -44.5 L-13.7 -44.9 -13.8 -44.65 Q-15.6 -39.6 -8.85 -39.0 L11.7 -39.4 Q18.4 -39.5 19.65 -48.3 23.85 -41.1 24.4 -43.0 24.75 -44.35 24.15 -48.1 L23.8 -50.25 Q18.35 -49.5 4.3 -51.35 18.2 -50.5 23.4 -53.6 L23.4 -53.65 Q13.75 -53.7 4.2 -56.05 13.65 -54.7 23.05 -57.55 21.95 -63.6 13.75 -64.3 L7.0 -64.85 Q3.65 -65.4 2.95 -67.4 2.2 -69.5 3.75 -70.85 4.85 -71.75 8.0 -72.8 15.7 -75.4 17.2 -78.4 19.65 -83.3 17.4 -95.95 16.4 -101.65 14.85 -106.9 L14.8 -106.85 Q9.7 -95.75 5.6 -86.05 L13.2 -111.75 Q6.1 -98.85 0.0 -91.15 L11.2 -116.55 0.0 -107.85 Q3.95 -111.5 9.05 -120.75 L9.1 -120.7 Q5.25 -127.3 2.25 -121.75 0.3 -118.3 -0.7 -115.55 M17.65 -122.1 Q21.8 -107.9 24.7 -93.15 L31.4 -58.4 Q34.85 -40.45 32.1 -38.55 L33.0 -38.8 27.55 -37.55 26.25 -37.35 20.7 -45.45 16.25 -36.5 6.1 -36.15 Q-6.3 -36.15 -15.05 -37.55 -19.35 -38.2 -21.45 -39.0 -14.7 -49.0 -11.95 -61.15 -9.0 -74.4 -10.25 -89.4 L-11.25 -101.45 -8.0 -101.05 -7.75 -101.0 -7.7 -101.0 -4.3 -100.55 -4.3 -101.15 Q-4.7 -114.2 -0.9 -126.45 L-0.7 -127.2 -5.75 -126.55 -5.9 -126.6 -6.3 -126.55 -6.4 -126.45 -11.3 -125.85 -11.3 -102.05 -12.5 -118.4 Q-13.45 -131.9 -5.85 -137.0 1.5 -141.9 3.5 -140.45 14.05 -134.5 17.65 -122.1 M33.4 -37.85 L33.45 -37.9 34.7 -38.5 34.85 -37.1 32.9 -36.05 32.85 -36.0 31.15 -35.55 28.0 -34.9 27.15 -34.75 27.15 -34.8 26.05 -34.6 24.6 -34.4 21.1 -41.35 18.1 -33.75 17.3 -33.7 16.85 -33.65 14.0 -33.55 Q10.25 -33.4 6.1 -33.4 -6.25 -33.4 -15.0 -34.75 L-15.0 -34.8 Q-19.35 -35.45 -21.4 -36.25 L-22.95 -37.15 -22.7 -37.3 -22.55 -37.4 -22.45 -37.6 -22.05 -38.15 -21.95 -38.1 Q-19.8 -37.25 -15.2 -36.55 -6.4 -35.15 6.1 -35.15 L16.6 -35.55 16.9 -35.55 20.85 -43.5 25.85 -36.25 26.15 -36.3 26.95 -36.45 28.9 -36.8 33.35 -37.85 33.4 -37.85" fill="#697c29" fill-rule="evenodd" stroke="none"/>
    <path d="M-1.8 -111.45 L-1.5 -111.05 -1.25 -111.9 2.5 -113.5 0.45 -113.75 1.5 -114.35 1.1 -115.1 0.25 -114.8 0.25 -115.3 0.75 -115.75 -0.15 -116.0 -0.7 -115.55 Q0.3 -118.3 2.25 -121.75 5.25 -127.3 9.1 -120.7 L9.05 -120.75 Q3.95 -111.5 0.0 -107.85 L11.2 -116.55 0.0 -91.15 Q6.1 -98.85 13.2 -111.75 L5.6 -86.05 Q9.7 -95.75 14.8 -106.85 L14.85 -106.9 Q16.4 -101.65 17.4 -95.95 19.65 -83.3 17.2 -78.4 15.7 -75.4 8.0 -72.8 4.85 -71.75 3.75 -70.85 2.2 -69.5 2.95 -67.4 3.65 -65.4 7.0 -64.85 L13.75 -64.3 Q21.95 -63.6 23.05 -57.55 13.65 -54.7 4.2 -56.05 13.75 -53.7 23.4 -53.65 L23.4 -53.6 Q18.2 -50.5 4.3 -51.35 18.35 -49.5 23.8 -50.25 L24.15 -48.1 Q24.75 -44.35 24.4 -43.0 23.85 -41.1 19.65 -48.3 18.4 -39.5 11.7 -39.4 L-8.85 -39.0 Q-15.6 -39.6 -13.8 -44.65 L-13.7 -44.9 -13.6 -44.5 Q-8.15 -43.75 5.95 -45.6 -7.5 -44.8 -12.75 -47.65 -9.6 -57.2 -8.05 -66.4 -6.3 -77.05 -7.45 -91.3 L-8.3 -98.5 -2.45 -98.95 Q-1.95 -102.2 -2.15 -105.1 -2.35 -107.9 -1.8 -111.45" fill="#7d9432" fill-rule="evenodd" stroke="none"/>
    <path d="M-7.45 -125.15 Q-9.5 -113.75 -8.35 -102.1 L-10.3 -102.35 -10.3 -124.95 -7.45 -125.15 M-2.1 -126.0 Q-5.6 -114.2 -5.3 -101.7 L-7.35 -101.95 Q-8.5 -113.75 -4.7 -125.5 L-2.1 -126.0" fill="#596923" fill-rule="evenodd" stroke="none"/>
    <path d="M-0.7 -115.55 L-0.15 -116.0 0.75 -115.75 0.25 -115.3 0.25 -114.8 1.1 -115.1 1.5 -114.35 0.45 -113.75 2.5 -113.5 -1.25 -111.9 -1.5 -111.05 -1.8 -111.45 -2.5 -112.4 -1.8 -114.15 -2.5 -114.75 -2.2 -115.7 -1.6 -114.85 -0.7 -115.55" fill="#ffffff" fill-rule="evenodd" stroke="none"/>
  </g>
</svg>
