<?xml version="1.0" encoding="UTF-8" standalone="no"?>
<svg xmlns:ffdec="https://www.free-decompiler.com/flash" xmlns:xlink="http://www.w3.org/1999/xlink" ffdec:objectType="shape" height="17.55px" width="32.8px" xmlns="http://www.w3.org/2000/svg">
  <g transform="matrix(1.0, 0.0, 0.0, 1.0, 17.6, 0.85)">
    <path d="M13.45 7.9 Q13.45 10.8 12.05 12.85 10.7 14.9 8.75 14.9 6.85 14.9 5.45 12.85 4.1 10.8 4.1 7.9 4.1 6.3 4.5 4.95 4.8 3.85 5.45 2.95 L6.45 1.8 Q7.5 0.9 8.75 0.9 10.7 0.9 12.05 2.95 13.45 5.0 13.45 7.9 M-7.7 8.9 Q-7.75 11.4 -8.95 13.15 -10.1 14.95 -11.75 14.95 -13.45 14.95 -14.65 13.15 -15.85 11.4 -15.85 8.9 -15.85 7.45 -15.45 6.3 L-14.65 4.6 -13.8 3.6 Q-12.9 2.8 -11.75 2.8 -10.1 2.8 -8.95 4.6 -7.75 6.35 -7.7 8.9 Z" fill="none" stroke="#000000" stroke-linecap="round" stroke-linejoin="round" stroke-width="3.5"/>
  </g>
</svg>
