<?xml version="1.0" encoding="UTF-8" standalone="no"?>
<svg xmlns:ffdec="https://www.free-decompiler.com/flash" xmlns:xlink="http://www.w3.org/1999/xlink" ffdec:objectType="shape" height="62.8px" width="97.55px" xmlns="http://www.w3.org/2000/svg">
  <g transform="matrix(1.0, 0.0, 0.0, 1.0, 55.2, 42.0)">
    <path d="M-35.55 -1.1 L-32.1 -5.4 19.2 -18.2 24.2 0.2 Q-27.7 10.3 -35.55 -1.1" fill="#fec281" fill-rule="evenodd" stroke="none"/>
    <path d="M18.95 -7.2 L19.3 -7.3 19.65 -7.15 Q22.15 -6.15 23.95 -4.1 L25.65 -1.55 Q26.75 0.75 26.85 3.25 26.9 4.5 24.95 5.75 L31.0 7.45 30.25 13.6 37.1 13.1 Q39.15 8.65 35.7 1.5 32.25 -5.65 29.1 -9.5 25.95 -13.3 16.95 -19.9 7.9 -26.5 -13.05 -31.65 -8.45 -28.5 -7.65 -26.4 L-4.95 -20.3 Q-18.8 -20.6 -26.35 -26.95 -32.45 -32.15 -34.45 -39.45 -39.55 -24.5 -28.15 -18.25 -38.05 -16.5 -53.75 -33.75 -43.1 -7.75 -27.9 -3.85 -12.8 0.05 -4.15 -1.2 4.45 -2.45 18.95 -7.2 M23.85 -0.7 Q23.35 -1.8 22.45 -2.75 21.05 -4.35 19.2 -5.15 4.75 -0.5 -4.0 1.0 -13.0 2.5 -29.75 -0.95 -46.85 -4.4 -54.45 -33.25 L-55.2 -35.95 -54.8 -36.2 -52.8 -34.2 Q-42.85 -24.35 -36.6 -22.75 -39.85 -32.7 -35.1 -40.05 L-33.9 -42.0 -33.25 -39.7 Q-32.0 -34.4 -25.05 -28.5 -18.3 -22.85 -9.0 -23.9 L-8.9 -23.9 -8.9 -24.05 -9.5 -25.65 -9.5 -25.7 Q-10.7 -28.7 -13.15 -30.7 L-15.3 -32.55 -15.2 -32.8 -12.4 -32.5 Q8.15 -30.4 21.15 -21.85 28.0 -17.4 33.05 -11.2 35.9 -7.75 38.15 -3.7 L38.2 -3.65 Q42.85 6.85 42.3 16.0 L42.0 19.6 41.9 20.8 35.1 18.75 35.1 15.1 29.0 15.1 29.0 8.8 23.1 6.25 24.15 5.2 Q24.9 4.45 24.85 3.4 L24.85 3.35 Q24.75 1.25 23.85 -0.7" fill="#000000" fill-rule="evenodd" stroke="none"/>
    <path d="M18.95 -7.2 Q4.45 -2.45 -4.15 -1.2 -12.8 0.05 -27.9 -3.85 -43.1 -7.75 -53.75 -33.75 -38.05 -16.5 -28.15 -18.25 -39.55 -24.5 -34.45 -39.45 -32.45 -32.15 -26.35 -26.95 -18.8 -20.6 -4.95 -20.3 L-7.65 -26.4 Q-8.45 -28.5 -13.05 -31.65 7.9 -26.5 16.95 -19.9 25.95 -13.3 29.1 -9.5 32.25 -5.65 35.7 1.5 39.15 8.65 37.1 13.1 L30.25 13.6 31.0 7.45 24.95 5.75 Q26.9 4.5 26.85 3.25 26.75 0.75 25.65 -1.55 L23.95 -4.1 Q22.15 -6.15 19.65 -7.15 L19.3 -7.3 18.95 -7.2" fill="#362d2c" fill-rule="evenodd" stroke="none"/>
  </g>
</svg>
