<?xml version="1.0" encoding="UTF-8" standalone="no"?>
<svg xmlns:ffdec="https://www.free-decompiler.com/flash" xmlns:xlink="http://www.w3.org/1999/xlink" ffdec:objectType="shape" height="83.05px" width="83.05px" xmlns="http://www.w3.org/2000/svg">
  <g transform="matrix(1.0, 0.0, 0.0, 1.0, 45.0, 75.0)">
    <path d="M-8.2 6.8 Q-12.2 6.35 -15.9 5.2 L-8.1 5.95 -8.2 6.8 M-32.15 -62.15 L-30.6 -63.6 -30.1 -63.0 -32.05 -62.0 -32.15 -62.15" fill="#db9c64" fill-rule="evenodd" stroke="none"/>
    <path d="M-32.55 -61.75 L-32.15 -62.15 -32.05 -62.0 -32.55 -61.75" fill="#edcda3" fill-rule="evenodd" stroke="none"/>
    <path d="M-22.05 2.65 Q-27.5 -0.2 -32.15 -4.85 -44.0 -16.7 -44.0 -33.45 -44.0 -47.6 -35.6 -58.25 L-32.55 -61.75 -32.05 -62.0 -30.1 -63.0 Q-22.95 -66.55 -14.3 -66.55 0.5 -66.55 10.95 -56.3 21.35 -46.05 21.4 -31.55 21.35 -17.05 10.95 -6.85 0.5 3.4 -14.3 3.4 L-22.05 2.65" fill="#fecd99" fill-rule="evenodd" stroke="none"/>
    <path d="M-15.9 5.2 Q-19.1 4.2 -22.05 2.65 L-14.3 3.4 Q0.5 3.4 10.95 -6.85 21.35 -17.05 21.4 -31.55 21.35 -46.05 10.95 -56.3 0.5 -66.55 -14.3 -66.55 -22.95 -66.55 -30.1 -63.0 -20.55 -70.0 -8.1 -70.0 7.65 -70.0 18.75 -58.9 29.9 -47.75 29.9 -32.0 29.9 -16.3 18.75 -5.2 7.65 5.95 -8.1 5.95 L-15.9 5.2" fill="#fec281" fill-rule="evenodd" stroke="none"/>
    <path d="M-30.6 -63.6 Q-19.2 -74.0 -3.45 -74.0 13.3 -74.0 25.15 -62.15 37.05 -50.25 37.05 -33.45 37.05 -16.7 25.15 -4.85 13.3 7.05 -3.45 7.05 L-8.2 6.8 -8.1 5.95 Q7.65 5.95 18.75 -5.2 29.9 -16.3 29.9 -32.0 29.9 -47.75 18.75 -58.9 7.65 -70.0 -8.1 -70.0 -20.55 -70.0 -30.1 -63.0 L-30.6 -63.6" fill="#feb86b" fill-rule="evenodd" stroke="none"/>
    <path d="M-30.6 -63.6 Q-19.2 -74.0 -3.45 -74.0 13.3 -74.0 25.15 -62.15 37.05 -50.25 37.05 -33.45 37.05 -16.7 25.15 -4.85 13.3 7.05 -3.45 7.05 L-8.2 6.8 Q-12.2 6.35 -15.9 5.2 -19.1 4.2 -22.05 2.65 -27.5 -0.2 -32.15 -4.85 -44.0 -16.7 -44.0 -33.45 -44.0 -47.6 -35.6 -58.25 L-32.55 -61.75 -32.15 -62.15 -30.6 -63.6" fill="none" stroke="#684e35" stroke-linecap="round" stroke-linejoin="round" stroke-width="2.0"/>
    <path d="M-32.55 -61.75 L-32.05 -62.0" fill="none" stroke="#684e35" stroke-linecap="round" stroke-linejoin="round" stroke-width="2.0"/>
  </g>
</svg>
