<?xml version="1.0" encoding="UTF-8" standalone="no"?>
<svg xmlns:ffdec="https://www.free-decompiler.com/flash" xmlns:xlink="http://www.w3.org/1999/xlink" ffdec:objectType="shape" height="54.1px" width="44.0px" xmlns="http://www.w3.org/2000/svg">
  <g transform="matrix(1.0, 0.0, 0.0, 1.0, 17.9, 43.2)">
    <path d="M11.85 9.85 L12.3 9.65 12.05 9.85 11.85 9.85" fill="#224a60" fill-rule="evenodd" stroke="none"/>
    <path d="M10.1 -26.1 Q14.0 -26.5 17.75 -25.25 19.9 -24.5 21.75 -23.1 L21.75 -23.15 Q23.35 -21.95 24.25 -20.25 L25.5 -17.05 25.6 -16.7 25.65 -16.6 25.85 -15.55 Q26.5 -11.8 25.35 -7.95 24.75 -6.05 23.7 -4.25 L23.2 -3.45 22.8 -4.3 Q22.05 -5.9 20.2 -7.55 L20.2 -7.5 Q18.9 -8.45 17.5 -8.9 L15.25 -3.95 Q14.5 -2.2 11.4 1.85 L5.2 6.95 Q15.15 -4.1 11.9 -4.4 L6.4 -4.4 5.1 7.05 -0.5 10.9 5.8 -3.25 5.25 -4.55 5.25 -4.95 5.35 -5.1 5.4 -5.15 9.15 -8.9 9.35 -9.1 11.4 -12.0 10.55 -17.05 12.15 -16.8 12.25 -16.75 Q12.45 -16.75 12.55 -16.55 L12.55 -16.5 12.75 -16.15 Q13.15 -15.25 13.05 -14.15 L12.9 -13.1 12.25 -11.5 11.95 -11.05 11.95 -11.0 11.85 -10.8 9.9 -8.25 9.45 -7.75 7.5 -5.75 11.8 -6.9 13.25 -10.25 13.55 -10.3 Q15.85 -10.5 17.9 -9.8 19.4 -9.3 20.8 -8.3 L20.85 -8.25 21.0 -8.15 23.25 -5.5 24.35 -8.25 Q25.45 -11.85 24.85 -15.4 L24.7 -16.3 24.55 -16.8 24.55 -16.85 23.4 -19.8 Q22.55 -21.25 21.15 -22.3 L21.1 -22.35 Q19.4 -23.65 17.4 -24.3 13.9 -25.55 10.25 -25.15 L10.1 -25.1 10.1 -26.1 M1.1 -6.7 Q-0.3 -4.45 -1.1 1.45 -1.95 7.35 -0.5 10.9 -6.95 3.3 -8.15 0.85 L-9.6 -1.8 Q-11.85 3.2 -17.15 2.05 L-17.9 1.95 -17.4 1.3 Q-13.5 -4.0 -13.55 -7.2 L-13.7 -7.5 -13.7 -7.45 Q-14.3 -8.5 -14.1 -9.65 -13.9 -11.0 -13.15 -12.15 L-10.9 -15.1 Q-8.1 -18.4 -4.05 -20.7 L-3.05 -21.25 -2.25 -20.55 -3.5 -19.85 Q-7.4 -17.65 -10.1 -14.4 L-10.15 -14.4 -12.3 -11.6 Q-12.95 -10.7 -13.1 -9.55 L-13.1 -9.5 Q-13.25 -8.7 -12.8 -8.0 L-12.8 -7.95 -12.65 -7.65 -12.6 -7.6 -10.55 -4.8 -9.3 -3.15 -9.25 -3.1 -9.1 -2.85 -9.05 -2.8 -7.25 0.45 -6.3 2.55 -6.25 0.75 -6.1 -0.55 Q-5.65 -5.1 -3.2 -8.85 -1.65 -11.3 0.5 -13.2 L1.1 -6.7 M-10.25 -2.75 L-11.3 -4.15 -12.6 -5.85 Q-13.15 -2.95 -16.15 1.25 -11.95 1.7 -10.25 -2.75" fill="#2d4316" fill-rule="evenodd" stroke="none"/>
    <path d="M10.25 -25.15 Q13.9 -25.55 17.4 -24.3 19.4 -23.65 21.1 -22.35 L21.15 -22.3 Q22.55 -21.25 23.4 -19.8 L24.55 -16.85 24.55 -16.8 24.7 -16.3 24.85 -15.4 Q25.45 -11.85 24.35 -8.25 L23.25 -5.5 21.0 -8.15 Q23.95 -10.05 23.55 -15.15 L22.95 -18.4 Q19.4 -20.95 16.65 -19.25 16.2 -23.15 10.25 -25.15 M12.15 -16.8 L10.55 -17.05 10.15 -21.5 Q12.1 -20.2 12.15 -16.8 M0.5 -13.2 Q-1.65 -11.3 -3.2 -8.85 -5.65 -5.1 -6.1 -0.55 L-6.25 0.75 -6.3 2.55 -7.25 0.45 -9.05 -2.8 -9.1 -2.85 -9.25 -3.1 -9.3 -3.15 -10.55 -4.8 -12.6 -7.6 -12.65 -7.65 -12.8 -7.95 -12.8 -8.0 Q-13.25 -8.7 -13.1 -9.5 L-13.1 -9.55 Q-12.95 -10.7 -12.3 -11.6 L-10.15 -14.4 -10.1 -14.4 Q-7.4 -17.65 -3.5 -19.85 L-2.25 -20.55 -1.35 -19.9 -0.75 -19.2 0.5 -13.2" fill="#657728" fill-rule="evenodd" stroke="none"/>
    <path d="M10.1 -25.1 L10.25 -25.15 Q16.2 -23.15 16.65 -19.25 19.4 -20.95 22.95 -18.4 L23.55 -15.15 Q23.95 -10.05 21.0 -8.15 L20.85 -8.25 20.8 -8.3 Q19.4 -9.3 17.9 -9.8 15.85 -10.5 13.55 -10.3 L13.25 -10.25 11.8 -6.9 7.5 -5.75 9.45 -7.75 9.9 -8.25 11.85 -10.8 11.95 -11.0 11.95 -11.05 12.25 -11.5 12.9 -13.1 13.05 -14.15 Q13.15 -15.25 12.75 -16.15 L12.55 -16.5 12.55 -16.55 Q12.45 -16.75 12.25 -16.75 L12.15 -16.8 Q12.1 -20.2 10.15 -21.5 L10.1 -25.1" fill="#7d9432" fill-rule="evenodd" stroke="none"/>
    <path d="M5.1 7.05 L6.4 -4.4 11.9 -4.4 Q15.15 -4.1 5.2 6.95 L5.05 7.3 5.1 7.05 M-10.25 -2.75 Q-11.95 1.7 -16.15 1.25 -13.15 -2.95 -12.6 -5.85 L-11.3 -4.15 -10.25 -2.75" fill="#3f4918" fill-rule="evenodd" stroke="none"/>
    <path d="M5.8 -3.25 L-0.5 10.9 Q-1.95 7.35 -1.1 1.45 -0.3 -4.45 1.1 -6.7 L1.2 -2.15 Q3.6 -2.45 5.8 -3.25 M2.55 -40.2 Q6.0 -36.45 7.05 -31.35 8.1 -26.25 8.1 -22.85 L6.85 -22.6 5.9 -22.3 1.75 -21.95 1.25 -22.0 1.35 -20.25 1.35 -19.55 Q0.7 -20.95 -0.2 -21.55 L-0.25 -21.55 -1.65 -22.65 -3.0 -24.05 Q-3.45 -24.75 -3.4 -27.0 -3.45 -28.85 -3.1 -31.7 L-3.0 -32.6 -3.0 -32.85 Q-2.95 -33.3 -3.2 -33.6 -3.45 -33.95 -3.85 -34.0 L-4.55 -33.8 -5.4 -34.9 2.55 -40.2" fill="#feb86b" fill-rule="evenodd" stroke="none"/>
    <path d="M9.35 -9.1 L9.15 -8.9 5.4 -5.15 5.35 -5.1 5.25 -4.95 5.25 -4.55 5.8 -3.25 Q3.6 -2.45 1.2 -2.15 3.6 -6.95 2.85 -12.25 L2.25 -16.1 1.8 -18.35 1.35 -20.25 1.25 -22.0 1.75 -21.95 5.9 -22.3 6.85 -22.6 8.1 -22.85 9.35 -9.1" fill="#fec281" fill-rule="evenodd" stroke="none"/>
    <path d="M10.1 -26.1 L10.1 -25.1 10.15 -21.5 10.55 -17.05 11.4 -12.0 9.35 -9.1 8.1 -22.85 Q8.1 -26.25 7.05 -31.35 6.0 -36.45 2.55 -40.2 L6.2 -43.2 Q7.65 -39.8 8.7 -36.4 10.25 -31.35 10.1 -26.1 M-5.4 -34.9 L-4.55 -33.8 -3.85 -34.0 Q-3.45 -33.95 -3.2 -33.6 -2.95 -33.3 -3.0 -32.85 L-3.0 -32.6 -3.1 -31.7 Q-3.45 -28.85 -3.4 -27.0 -3.45 -24.75 -3.0 -24.05 L-1.65 -22.65 -0.25 -21.55 -0.2 -21.55 Q0.7 -20.95 1.35 -19.55 L1.35 -20.25 1.8 -18.35 2.25 -16.1 2.85 -12.25 Q3.6 -6.95 1.2 -2.15 L1.1 -6.7 0.5 -13.2 -0.75 -19.2 -1.35 -19.9 -2.25 -20.55 -3.05 -21.25 -4.55 -22.8 -4.6 -22.85 Q-5.75 -24.15 -5.3 -30.0 L-6.4 -31.4 -7.95 -33.2 -5.4 -34.9" fill="#684e35" fill-rule="evenodd" stroke="none"/>
  </g>
</svg>
