<?xml version="1.0" encoding="UTF-8" standalone="no"?>
<svg xmlns:ffdec="https://www.free-decompiler.com/flash" xmlns:xlink="http://www.w3.org/1999/xlink" ffdec:objectType="shape" height="30.85px" width="41.2px" xmlns="http://www.w3.org/2000/svg">
  <g transform="matrix(1.0, 0.0, 0.0, 1.0, 30.55, 27.1)">
    <path d="M-30.55 -12.55 L-30.15 -12.9 -29.4 -12.95 Q-21.4 -10.15 -12.85 -11.45 1.1 -13.85 7.6 -26.45 7.8 -26.8 8.2 -26.95 L8.55 -27.0 8.6 -27.0 8.75 -27.1 10.2 -20.35 Q11.05 -15.15 10.25 -7.65 L10.0 -7.05 9.8 -6.65 Q0.75 5.65 -14.6 3.4 -22.65 2.1 -27.4 -6.05 -29.45 -10.7 -30.55 -12.55 M-22.95 -9.3 L-21.1 -7.45 -20.9 -7.45 Q-18.95 -6.6 -14.05 -6.6 -9.5 -6.6 -3.9 -8.25 -0.5 -9.3 2.25 -11.1 L6.35 -14.7 Q7.65 -15.55 8.6 -16.95 L8.2 -22.45 8.1 -23.25 Q1.1 -11.85 -12.5 -9.5 L-12.55 -9.5 Q-17.85 -8.65 -22.95 -9.35 L-24.3 -9.55 -28.1 -10.4 -25.7 -7.05 -25.65 -7.05 Q-21.45 0.2 -14.3 1.45 L-14.3 1.4 Q-5.55 2.7 1.0 -1.15 L2.0 -1.75 1.75 -1.6 1.7 -1.9 1.7 -3.15 Q1.55 -10.45 8.05 -10.45 L8.5 -10.4 8.65 -15.25 Q7.2 -13.15 3.7 -10.7 -3.75 -5.45 -14.4 -5.45 -18.4 -5.45 -20.5 -6.3 L-21.0 -6.15 Q-21.5 -6.15 -26.1 -9.9 L-24.3 -9.5 -22.95 -9.3 M8.35 -8.8 L8.4 -9.3 Q5.1 -9.45 4.1 -8.15 L3.3 -5.6 Q2.9 -4.75 2.65 -2.2 5.7 -4.45 8.2 -7.85 L8.25 -7.9 8.35 -8.8" fill="#463624" fill-rule="evenodd" stroke="none"/>
    <path d="M-22.95 -9.35 Q-17.85 -8.65 -12.55 -9.5 L-12.5 -9.5 Q1.1 -11.85 8.1 -23.25 L8.2 -22.45 8.6 -16.95 Q7.65 -15.55 6.35 -14.7 L2.25 -11.1 Q-0.5 -9.3 -3.9 -8.25 -9.5 -6.6 -14.05 -6.6 -18.95 -6.6 -20.9 -7.45 L-21.1 -7.45 -22.95 -9.3 -22.95 -9.35" fill="#e5e5e5" fill-rule="evenodd" stroke="none"/>
    <path d="M-22.95 -9.3 L-24.3 -9.5 -26.1 -9.9 Q-21.5 -6.15 -21.0 -6.15 L-20.5 -6.3 Q-18.4 -5.45 -14.4 -5.45 -3.75 -5.45 3.7 -10.7 7.2 -13.15 8.65 -15.25 L8.5 -10.4 8.05 -10.45 Q1.55 -10.45 1.7 -3.15 L1.7 -1.9 1.75 -1.6 2.0 -1.75 1.0 -1.15 Q-5.55 2.7 -14.3 1.4 L-14.3 1.45 Q-21.45 0.2 -25.65 -7.05 L-25.7 -7.05 -28.1 -10.4 -24.3 -9.55 -22.95 -9.35 -22.95 -9.3" fill="#57352d" fill-rule="evenodd" stroke="none"/>
    <path d="M8.35 -8.8 L8.25 -7.9 8.2 -7.85 Q5.7 -4.45 2.65 -2.2 2.9 -4.75 3.3 -5.6 L4.1 -8.15 Q5.1 -9.45 8.4 -9.3 L8.35 -8.8" fill="#b45f50" fill-rule="evenodd" stroke="none"/>
  </g>
</svg>
