<?xml version="1.0" encoding="UTF-8" standalone="no"?>
<svg xmlns:ffdec="https://www.free-decompiler.com/flash" xmlns:xlink="http://www.w3.org/1999/xlink" ffdec:objectType="shape" height="30.85px" width="41.2px" xmlns="http://www.w3.org/2000/svg">
  <g transform="matrix(1.0, 0.0, 0.0, 1.0, 30.55, 27.1)">
    <path d="M8.6 -17.05 L8.2 -22.45 8.1 -23.25 Q1.1 -11.85 -12.5 -9.5 L-12.55 -9.5 Q-17.8 -8.65 -22.85 -9.35 L-23.6 -9.5 -23.9 -9.45 -24.3 -9.55 -28.1 -10.4 -26.95 -9.0 -26.4 -8.15 -25.7 -7.05 -25.65 -7.05 -25.6 -6.95 -24.9 -5.8 -24.9 -5.85 -24.7 -5.9 -20.65 -3.2 -17.9 -3.9 -17.5 -4.0 -15.4 -4.45 -15.25 -4.5 -14.35 -4.5 -14.25 -4.25 -14.3 -4.0 -14.35 -4.0 -19.3 -2.45 -19.8 -0.95 -19.8 -0.85 -19.85 -0.7 Q-18.85 -0.05 -17.7 0.45 L-14.3 1.45 -14.3 1.4 Q-5.55 2.7 1.0 -1.15 L1.45 -1.4 1.75 -1.6 5.55 -4.8 6.15 -5.4 8.2 -7.85 8.25 -7.9 8.25 -7.95 8.5 -7.95 8.55 -8.75 Q7.6 -9.55 7.05 -9.55 4.8 -9.55 3.05 -8.75 L3.0 -8.7 2.95 -8.7 2.4 -8.35 1.35 -7.8 1.3 -7.8 1.2 -7.8 0.7 -7.8 Q0.6 -7.75 0.6 -8.0 0.6 -8.4 2.0 -9.05 L2.45 -9.25 2.5 -9.25 3.0 -9.45 3.95 -9.8 4.05 -9.85 4.2 -9.9 Q7.15 -10.9 7.35 -11.15 8.1 -12.25 8.65 -13.9 L8.65 -13.15 8.7 -13.95 8.7 -14.0 8.65 -16.15 8.55 -16.85 8.6 -16.95 8.6 -17.05 M1.45 -1.4 L0.75 -0.85 1.45 -1.4 M7.6 -26.45 Q7.8 -26.8 8.2 -26.95 L8.55 -27.0 8.6 -27.0 8.75 -27.1 10.2 -20.35 Q11.05 -15.15 10.25 -7.65 L10.0 -7.05 9.8 -6.65 Q0.75 5.65 -14.6 3.4 -22.65 2.1 -27.4 -6.05 -29.45 -10.7 -30.55 -12.55 L-30.15 -12.9 -29.4 -12.95 Q-21.4 -10.15 -12.85 -11.45 1.1 -13.85 7.6 -26.45 M-20.0 -0.8 L-20.85 -1.4 -20.9 -1.85 -22.7 -3.3 -23.3 -3.7 -23.15 -3.5 -21.45 -1.9 -20.0 -0.8" fill="#463624" fill-rule="evenodd" stroke="none"/>
    <path d="M-24.9 -5.8 L-25.6 -6.95 -25.65 -7.05 -25.7 -7.05 -26.4 -8.15 -26.95 -9.0 -28.1 -10.4 -24.3 -9.55 -23.9 -9.45 -23.6 -9.5 -22.85 -9.35 Q-17.8 -8.65 -12.55 -9.5 L-12.5 -9.5 Q1.1 -11.85 8.1 -23.25 L8.2 -22.45 8.6 -17.05 8.55 -17.0 8.45 -16.85 8.55 -16.85 8.65 -16.15 8.7 -14.0 8.7 -13.95 8.65 -13.9 Q8.1 -12.25 7.35 -11.15 7.15 -10.9 4.2 -9.9 L4.05 -9.85 3.95 -9.8 3.0 -9.45 2.5 -9.25 2.45 -9.25 2.25 -9.25 2.0 -9.05 Q0.6 -8.4 0.6 -8.0 0.6 -7.75 0.7 -7.8 L1.2 -7.8 1.3 -7.8 1.35 -7.8 2.4 -8.35 2.95 -8.7 3.0 -8.7 3.05 -8.7 3.05 -8.75 Q4.8 -9.55 7.05 -9.55 7.6 -9.55 8.55 -8.75 L8.5 -7.95 8.25 -7.95 8.25 -7.9 8.2 -7.85 6.15 -5.4 5.55 -4.8 Q5.35 -8.05 2.75 -8.05 L0.3 -7.35 0.05 -7.4 -0.05 -7.7 Q-0.05 -8.4 4.0 -11.45 L4.95 -13.05 1.75 -11.2 Q-3.0 -9.15 -4.8 -8.7 -11.15 -7.2 -14.9 -7.2 L-23.4 -7.95 -26.15 -8.75 Q-22.6 -4.45 -17.3 -4.45 L-13.0 -4.7 -10.45 -4.6 -10.4 -4.35 Q-11.55 -3.6 -15.2 -2.05 -16.6 -1.15 -17.1 0.65 L-17.7 0.45 Q-18.85 -0.05 -19.85 -0.7 L-19.8 -0.85 -19.8 -0.9 -19.8 -0.95 -19.3 -2.45 -14.35 -4.0 -14.3 -4.0 -14.25 -4.25 -14.35 -4.5 -15.25 -4.5 -15.4 -4.45 -17.5 -4.0 -17.9 -3.9 -20.65 -3.2 -24.7 -5.9 -24.9 -5.85 -24.9 -5.8" fill="#e5e5e5" fill-rule="evenodd" stroke="none"/>
    <path d="M8.6 -17.05 L8.6 -16.95 8.55 -16.85 8.45 -16.85 8.55 -17.0 8.6 -17.05 M2.45 -9.25 L2.0 -9.05 2.25 -9.25 2.45 -9.25 M3.0 -8.7 L3.05 -8.75 3.05 -8.7 3.0 -8.7 M5.55 -4.8 L1.75 -1.6 1.45 -1.4 1.0 -1.15 Q-5.55 2.7 -14.3 1.4 L-14.3 1.45 -17.7 0.45 -17.1 0.65 Q-16.6 -1.15 -15.2 -2.05 -11.55 -3.6 -10.4 -4.35 L-10.45 -4.6 -13.0 -4.7 -17.3 -4.45 Q-22.6 -4.45 -26.15 -8.75 L-23.4 -7.95 -14.9 -7.2 Q-11.15 -7.2 -4.8 -8.7 -3.0 -9.15 1.75 -11.2 L4.95 -13.05 4.0 -11.45 Q-0.05 -8.4 -0.05 -7.7 L0.05 -7.4 0.3 -7.35 2.75 -8.05 Q5.35 -8.05 5.55 -4.8" fill="#f9f9f9" fill-rule="evenodd" stroke="none"/>
    <path d="M-19.8 -0.85 L-19.8 -0.95 -19.8 -0.9 -19.8 -0.85 M-20.0 -0.8 L-21.45 -1.9 -23.15 -3.5 -23.3 -3.7 -22.7 -3.3 -20.9 -1.85 -20.85 -1.4 -20.0 -0.8" fill="#57352d" fill-rule="evenodd" stroke="none"/>
  </g>
</svg>
