<?xml version="1.0" encoding="UTF-8" standalone="no"?>
<svg xmlns:ffdec="https://www.free-decompiler.com/flash" xmlns:xlink="http://www.w3.org/1999/xlink" ffdec:objectType="shape" height="14.65px" width="27.85px" xmlns="http://www.w3.org/2000/svg">
  <g transform="matrix(1.0, 0.0, 0.0, 1.0, 18.6, 15.5)">
    <path d="M8.5 -12.8 Q9.25 -11.7 9.25 -9.25 9.25 -6.8 5.85 -4.25 1.35 -0.9 -6.25 -0.9 L-10.85 -1.0 -10.9 -1.0 -12.1 -0.85 Q-19.0 -0.85 -18.55 -6.45 L-18.45 -7.25 Q-17.8 -10.2 -11.65 -12.8 -5.35 -15.5 1.0 -15.5 6.75 -15.5 8.5 -12.8 M-15.25 -2.8 L-15.05 -2.7 -14.1 -2.3 Q-2.35 -1.15 3.0 -4.3 7.35 -6.85 7.35 -9.6 7.35 -13.75 -0.25 -13.75 -8.05 -13.75 -13.3 -10.45 L-17.05 -7.65 -16.35 -6.7 -15.75 -5.95 Q-13.95 -7.65 -8.25 -7.9 L-7.0 -7.65 -6.9 -7.5 -11.25 -6.15 Q-12.15 -5.85 -14.0 -4.55 L-14.0 -4.5 -14.1 -4.3 -15.15 -3.0 -15.5 -2.9 -15.25 -2.8" fill="#463624" fill-rule="evenodd" stroke="none"/>
    <path d="M-15.15 -3.0 L-14.1 -4.3 -14.0 -4.5 -14.0 -4.55 Q-12.15 -5.85 -11.25 -6.15 L-6.9 -7.5 -7.0 -7.65 -8.25 -7.9 Q-13.95 -7.65 -15.75 -5.95 L-16.35 -6.7 -17.05 -7.65 -13.3 -10.45 Q-8.05 -13.75 -0.25 -13.75 7.35 -13.75 7.35 -9.6 7.35 -6.85 3.0 -4.3 -2.35 -1.15 -14.1 -2.3 L-15.05 -2.7 -15.25 -2.8 -15.15 -3.0" fill="#e5e5e5" fill-rule="evenodd" stroke="none"/>
  </g>
</svg>
