<?xml version="1.0" encoding="UTF-8" standalone="no"?>
<svg xmlns:ffdec="https://www.free-decompiler.com/flash" xmlns:xlink="http://www.w3.org/1999/xlink" ffdec:objectType="shape" height="25.9px" width="35.65px" xmlns="http://www.w3.org/2000/svg">
  <g transform="matrix(1.0, 0.0, 0.0, 1.0, 23.8, 22.8)">
    <path d="M-16.05 -13.05 L-12.3 -15.65 Q-4.45 -20.75 1.0 -20.75 6.3 -20.75 8.9 -16.45 L9.95 -14.35 9.45 -14.65 Q8.85 -15.3 6.25 -15.3 L4.75 -15.25 Q-10.25 -9.65 -11.75 -9.65 -12.25 -9.65 -14.15 -11.45 L-16.05 -13.05" fill="#e5e5e5" fill-rule="evenodd" stroke="none"/>
    <path d="M-16.05 -13.05 L-14.15 -11.45 Q-12.25 -9.65 -11.75 -9.65 -10.25 -9.65 4.75 -15.25 L6.25 -15.3 Q8.85 -15.3 9.45 -14.65 L9.95 -14.35 8.9 -16.45 Q6.3 -20.75 1.0 -20.75 -4.45 -20.75 -12.3 -15.65 L-16.05 -13.05 -16.55 -12.7 -16.05 -13.05 M10.45 -12.8 L10.35 -12.8 Q9.05 -12.8 8.65 -13.4 8.3 -14.0 6.05 -14.0 2.4 -14.0 -4.2 -11.25 -10.75 -8.5 -11.6 -8.5 -13.45 -8.5 -16.9 -12.4 L-17.55 -11.85 -20.4 -9.25 Q-17.95 -7.45 -17.6 -4.15 -17.45 -2.25 -17.55 1.5 L-11.0 1.75 Q-4.55 1.75 0.0 0.65 L0.05 0.65 0.85 0.4 -0.05 0.65 -0.1 0.4 Q-0.1 -0.05 0.65 -0.45 1.4 -0.8 1.4 -1.15 0.65 -1.35 0.0 -1.9 -2.75 0.6 -5.25 0.6 -9.1 0.6 -9.1 -2.35 -9.1 -4.15 -7.5 -6.4 -5.0 -9.85 -0.25 -9.85 4.3 -9.85 7.0 -7.5 8.8 -5.95 9.0 -4.6 11.25 -7.7 10.6 -11.25 L10.45 -12.75 10.35 -13.25 10.45 -12.8 M11.85 -11.4 Q11.85 -6.25 9.75 -3.5 4.65 3.1 -11.1 3.1 L-18.95 3.05 -19.1 2.8 Q-18.9 2.4 -19.05 2.1 L-18.9 0.75 -18.8 -1.75 Q-18.8 -8.25 -21.7 -8.25 -22.25 -8.25 -23.25 -7.4 -23.8 -7.6 -23.8 -8.2 -7.1 -22.8 2.6 -22.8 7.7 -22.8 10.3 -17.25 11.6 -14.45 11.85 -11.4 M5.7 -1.65 L8.15 -3.6 Q7.8 -3.8 7.6 -4.3 L6.75 -6.05 Q5.0 -8.6 -0.25 -8.6 -6.1 -8.6 -7.65 -3.85 L-8.0 -2.6 Q-8.0 -0.75 -5.85 -0.75 -2.8 -0.75 -0.55 -2.85 1.0 -4.3 1.6 -6.0 L2.0 -6.15 2.35 -5.8 2.05 -4.35 1.3 -3.15 1.2 -3.05 1.35 -3.1 1.7 -3.1 2.0 -3.05 3.65 -2.25 3.75 -2.1 3.9 -1.8 3.9 -1.7 4.0 -1.0 3.9 -0.7 4.1 -0.8 5.7 -1.65 M2.6 -6.45 L2.6 -5.1 2.25 -4.35 2.25 -4.7 2.35 -5.75 2.55 -5.8 2.6 -6.45" fill="#463624" fill-rule="evenodd" stroke="none"/>
    <path d="M0.0 0.65 Q-4.55 1.75 -11.0 1.75 L-17.55 1.5 Q-17.45 -2.25 -17.6 -4.15 -17.95 -7.45 -20.4 -9.25 L-17.55 -11.85 -16.9 -12.4 Q-13.45 -8.5 -11.6 -8.5 -10.75 -8.5 -4.2 -11.25 2.4 -14.0 6.05 -14.0 8.3 -14.0 8.65 -13.4 9.05 -12.8 10.35 -12.8 L10.45 -12.8 10.45 -12.75 10.6 -11.25 Q11.25 -7.7 9.0 -4.6 8.8 -5.95 7.0 -7.5 4.3 -9.85 -0.25 -9.85 -5.0 -9.85 -7.5 -6.4 -9.1 -4.15 -9.1 -2.35 -9.1 0.6 -5.25 0.6 -2.75 0.6 0.0 -1.9 0.65 -1.35 1.4 -1.15 1.4 -0.8 0.65 -0.45 -0.1 -0.05 -0.1 0.4 L-0.05 0.65 0.0 0.65" fill="#57352d" fill-rule="evenodd" stroke="none"/>
    <path d="M-7.65 -3.85 Q-6.1 -8.6 -0.25 -8.6 5.0 -8.6 6.75 -6.05 L7.6 -4.3 Q7.8 -3.8 8.15 -3.6 L5.7 -1.65 5.75 -2.25 Q5.25 -6.85 2.1 -6.85 L0.4 -4.65 Q-1.3 -2.5 -4.25 -2.5 -6.55 -2.5 -7.65 -3.85 M1.7 -3.1 L1.35 -3.1 1.3 -3.15 2.05 -4.35 1.7 -3.1" fill="#b45f50" fill-rule="evenodd" stroke="none"/>
    <path d="M-7.65 -3.85 Q-6.55 -2.5 -4.25 -2.5 -1.3 -2.5 0.4 -4.65 L2.1 -6.85 Q5.25 -6.85 5.75 -2.25 L5.7 -1.65 4.1 -0.8 4.0 -1.0 3.9 -1.7 3.9 -1.8 3.75 -2.1 3.65 -2.25 2.0 -3.05 1.7 -3.1 2.05 -4.35 2.35 -5.8 2.0 -6.15 1.6 -6.0 Q1.0 -4.3 -0.55 -2.85 -2.8 -0.75 -5.85 -0.75 -8.0 -0.75 -8.0 -2.6 L-7.65 -3.85 M2.6 -6.45 L2.55 -5.8 2.35 -5.75 2.25 -4.7 2.25 -4.35 2.6 -5.1 2.6 -6.45" fill="#a05345" fill-rule="evenodd" stroke="none"/>
  </g>
</svg>
