<?xml version="1.0" encoding="UTF-8" standalone="no"?>
<svg xmlns:ffdec="https://www.free-decompiler.com/flash" xmlns:xlink="http://www.w3.org/1999/xlink" ffdec:objectType="shape" height="16.6px" width="36.9px" xmlns="http://www.w3.org/2000/svg">
  <g transform="matrix(1.0, 0.0, 0.0, 1.0, 28.15, 21.6)">
    <path d="M3.7 -21.5 Q4.6 -21.4 3.9 -21.4 L3.45 -21.15 Q8.2 -21.1 8.75 -13.9 5.7 -4.8 0.7 -5.0 -4.35 -5.25 -10.3 -6.5 -16.0 -7.7 -19.5 -9.35 -24.4 -9.55 -26.65 -10.95 L-28.15 -13.55 Q-18.45 -10.25 -8.7 -13.55 -1.95 -16.0 2.9 -21.4 L3.7 -21.5 M6.3 -12.65 L2.75 -12.9 Q1.5 -12.9 0.65 -10.25 -0.05 -8.2 0.3 -6.9 0.6 -7.25 2.05 -7.25 3.4 -7.25 5.15 -10.4 L6.35 -12.65 6.5 -13.05 6.3 -12.65 M6.75 -14.15 Q6.75 -17.1 2.1 -18.1 0.75 -16.15 -3.4 -13.3 -7.35 -10.65 -12.35 -9.75 L-8.5 -8.85 Q-5.2 -7.95 -2.25 -7.55 L-1.1 -7.1 -0.95 -8.7 Q-0.75 -10.15 0.4 -12.45 1.55 -14.8 3.25 -14.75 L6.25 -14.25 6.75 -14.05 6.75 -14.15" fill="#463624" fill-rule="evenodd" stroke="none"/>
    <path d="M6.35 -12.65 L5.15 -10.4 Q3.4 -7.25 2.05 -7.25 0.6 -7.25 0.3 -6.9 -0.05 -8.2 0.65 -10.25 1.5 -12.9 2.75 -12.9 L6.3 -12.65 6.35 -12.65" fill="#b45f50" fill-rule="evenodd" stroke="none"/>
    <path d="M6.75 -14.05 L6.25 -14.25 3.25 -14.75 Q1.55 -14.8 0.4 -12.45 -0.75 -10.15 -0.95 -8.7 L-1.1 -7.1 -2.25 -7.55 Q-5.2 -7.95 -8.5 -8.85 L-12.35 -9.75 Q-7.35 -10.65 -3.4 -13.3 0.75 -16.15 2.1 -18.1 6.75 -17.1 6.75 -14.15 L6.75 -14.05" fill="#57352d" fill-rule="evenodd" stroke="none"/>
  </g>
</svg>
