<?xml version="1.0" encoding="UTF-8" standalone="no"?>
<svg xmlns:ffdec="https://www.free-decompiler.com/flash" xmlns:xlink="http://www.w3.org/1999/xlink" ffdec:objectType="shape" height="7.85px" width="23.45px" xmlns="http://www.w3.org/2000/svg">
  <g transform="matrix(1.0, 0.0, 0.0, 1.0, 21.05, 9.85)">
    <path d="M0.3 -8.15 L0.65 -7.9 0.35 -8.15 -0.1 -8.4 -0.4 -8.35 -2.95 -8.6 Q-13.45 -8.6 -16.3 -7.25 -15.75 -6.15 -15.75 -5.35 L-15.75 -4.4 -10.6 -5.1 -7.1 -4.8 Q-7.0 -5.95 -5.25 -7.1 -3.3 -8.35 -0.75 -8.35 L0.3 -8.15 M1.5 -5.45 Q1.5 -6.65 1.05 -7.4 0.35 -6.8 -1.2 -6.8 L-3.75 -6.4 Q-4.8 -5.7 -4.85 -5.0 -4.9 -4.65 -5.7 -4.65 L-5.75 -4.6 -5.0 -4.45 0.9 -3.85 Q1.5 -3.85 1.5 -5.45 M0.35 -2.75 L-4.8 -3.35 -11.1 -4.0 Q-14.25 -4.0 -16.85 -3.0 -19.45 -2.0 -20.1 -2.0 L-20.55 -2.1 -20.75 -2.6 Q-20.75 -3.25 -16.95 -4.15 L-16.55 -4.25 Q-17.5 -5.15 -17.5 -7.3 L-20.9 -6.0 Q-21.05 -5.6 -21.05 -6.25 -21.05 -7.0 -16.85 -8.0 L-17.3 -7.9 Q-16.8 -8.45 -15.05 -8.7 L-10.65 -9.15 -7.6 -9.45 -4.75 -9.75 -3.0 -9.85 -0.25 -9.55 Q2.5 -8.85 2.4 -5.5 2.4 -2.75 0.35 -2.75" fill="#463624" fill-rule="evenodd" stroke="none"/>
    <path d="M1.5 -5.45 Q1.5 -3.85 0.9 -3.85 L-5.0 -4.45 -5.75 -4.6 -5.7 -4.65 Q-4.9 -4.65 -4.85 -5.0 -4.8 -5.7 -3.75 -6.4 L-1.2 -6.8 Q0.35 -6.8 1.05 -7.4 1.5 -6.65 1.5 -5.45" fill="#b45f50" fill-rule="evenodd" stroke="none"/>
    <path d="M0.35 -8.15 L0.3 -8.15 -0.75 -8.35 Q-3.3 -8.35 -5.25 -7.1 -7.0 -5.95 -7.1 -4.8 L-10.6 -5.1 -15.75 -4.4 -15.75 -5.35 Q-15.75 -6.15 -16.3 -7.25 -13.45 -8.6 -2.95 -8.6 L-0.4 -8.35 -0.1 -8.4 0.35 -8.15" fill="#57352d" fill-rule="evenodd" stroke="none"/>
  </g>
</svg>
