<?xml version="1.0" encoding="UTF-8" standalone="no"?>
<svg xmlns:ffdec="https://www.free-decompiler.com/flash" xmlns:xlink="http://www.w3.org/1999/xlink" ffdec:objectType="shape" height="166.3px" width="73.9px" xmlns="http://www.w3.org/2000/svg">
  <g transform="matrix(1.0, 0.0, 0.0, 1.0, 30.8, 132.95)">
    <path d="M-10.0 -87.4 Q-5.65 -104.35 5.3 -129.05 4.25 -130.6 0.35 -130.9 -4.9 -131.2 -8.4 -127.45 -13.3 -122.35 -15.05 -109.5 -15.85 -94.05 -11.65 -79.8 L-10.0 -87.4 M-29.9 -18.5 Q-30.85 -19.9 -30.8 -21.4 L-30.55 -22.85 -30.45 -23.15 -28.15 -31.65 Q-25.9 -40.7 -24.45 -49.95 L-22.0 -66.05 -19.9 -81.65 Q-19.0 -89.15 -18.4 -96.6 L-17.05 -109.65 Q-12.95 -134.1 0.5 -132.9 5.35 -132.55 9.7 -129.45 18.95 -122.95 25.5 -103.5 34.5 -76.8 42.35 -23.4 L42.4 -23.15 42.45 -23.05 42.45 -22.95 42.75 -22.2 42.65 -22.2 42.7 -21.4 Q42.7 -20.4 42.35 -19.45 41.9 -18.4 40.9 -17.4 L40.55 -17.05 39.15 -16.05 37.25 -15.0 35.8 -14.35 33.85 -13.55 Q31.75 -12.8 29.15 -12.0 24.35 -10.6 17.95 -9.9 L15.95 -9.75 12.95 -9.55 10.95 -9.45 6.45 -9.4 -8.55 -10.0 -10.55 -10.25 -12.25 -10.65 -17.0 -11.9 -17.05 -11.9 -19.65 -12.7 -21.8 -13.4 -23.8 -14.15 Q-26.15 -15.2 -27.7 -16.3 L-28.0 -16.5 Q-29.25 -17.5 -29.9 -18.5 M17.55 -115.9 L17.15 -116.75 15.9 -119.1 14.9 -120.75 Q12.25 -124.9 9.45 -127.15 3.55 -116.2 -0.6 -106.75 L-2.55 -102.15 Q-5.35 -95.45 -7.15 -89.55 L-9.25 -81.5 -10.3 -75.3 -10.2 -72.35 Q-11.2 -72.25 -11.9 -71.6 L-12.3 -75.2 Q-15.5 -84.4 -16.6 -89.85 -17.15 -87.75 -17.9 -81.4 -18.6 -75.5 -19.45 -69.65 L-20.0 -65.75 -20.6 -61.35 -21.25 -53.4 -21.3 -51.5 Q-21.4 -46.0 -23.65 -38.3 L-24.3 -36.25 -24.5 -35.65 -26.5 -29.4 -28.35 -23.15 -28.3 -23.15 -28.45 -22.7 -28.5 -22.5 -28.6 -22.25 -28.6 -21.55 -28.8 -21.55 -28.8 -21.4 -28.7 -20.85 Q-28.5 -19.8 -27.55 -18.8 L-26.5 -17.9 Q-25.4 -17.1 -23.8 -16.35 -22.9 -15.95 -21.8 -15.5 L-19.05 -14.6 -17.55 -14.15 -17.45 -14.45 -16.9 -16.35 -16.6 -17.35 -16.6 -17.45 -15.0 -23.65 -14.85 -24.35 Q-14.0 -23.6 -12.85 -23.6 L-12.8 -23.6 -14.0 -15.6 -14.3 -13.65 -14.55 -12.35 -14.3 -12.3 -10.55 -11.95 -8.55 -11.8 4.25 -11.4 5.95 -11.4 10.95 -11.5 12.95 -11.6 15.95 -11.8 17.95 -12.0 21.3 -12.45 24.1 -12.9 Q27.7 -13.6 30.9 -14.6 L33.7 -15.55 35.65 -16.35 36.15 -16.6 37.05 -17.05 38.95 -18.35 39.2 -18.55 40.0 -19.45 Q40.65 -20.4 40.7 -21.4 L40.65 -22.05 40.55 -22.35 40.55 -22.4 40.5 -22.5 40.4 -22.8 40.35 -22.95 40.2 -23.45 40.3 -23.45 Q31.1 -71.7 25.1 -94.3 L23.95 -98.45 21.05 -107.5 Q19.35 -112.2 17.55 -115.9 M-10.15 -63.9 L-10.2 -58.45 -10.5 -49.55 -10.85 -49.6 -11.4 -49.55 Q-11.2 -54.3 -11.25 -59.05 L-11.35 -62.75 -11.55 -66.95 Q-10.95 -66.5 -10.15 -66.4 L-10.15 -63.9 M-12.1 -40.7 L-11.8 -43.75 -10.85 -43.6 -11.1 -40.35 -11.15 -39.6 -11.35 -37.15 -11.95 -31.0 -12.0 -30.5 -12.1 -29.5 -12.85 -29.6 -13.8 -29.45 -12.7 -36.25 -12.35 -38.85 -12.1 -40.7" fill="#9a2701" fill-rule="evenodd" stroke="none"/>
    <path d="M12.95 -9.55 L15.95 -9.75 15.95 -1.4 17.95 -1.4 17.95 -4.4 Q25.55 -5.05 31.95 -6.65 L32.3 -6.3 Q32.6 -6.05 33.05 -6.1 L33.65 -6.5 33.85 -7.15 34.3 -7.3 34.55 -4.05 36.55 -4.2 35.8 -14.35 37.25 -15.0 38.05 -5.55 40.05 -5.75 39.7 -9.8 40.45 -10.4 40.7 -5.4 Q40.7 9.85 30.6 20.65 L27.05 23.95 26.65 23.55 25.9 23.45 Q25.5 23.55 25.3 23.9 L23.9 26.3 Q16.0 31.35 6.2 31.35 -8.05 31.35 -18.15 20.65 -28.3 9.85 -28.3 -5.4 -28.3 -8.85 -27.75 -12.1 -26.3 -10.65 -23.8 -9.4 L-23.8 -7.8 -8.55 -3.9 -8.55 -4.9 6.2 -3.9 10.95 -3.95 10.95 -1.4 12.95 -1.4 12.95 -9.55 M33.85 -4.85 L33.1 -5.1 32.45 -4.7 Q32.15 -4.4 32.2 -4.0 L32.35 -1.1 Q32.35 -0.7 32.65 -0.4 32.95 -0.1 33.35 -0.1 33.75 -0.1 34.05 -0.4 L34.35 -1.1 34.2 -4.2 33.85 -4.85 M-22.7 7.8 Q-18.8 14.65 -12.95 18.5 -7.1 22.35 1.2 22.35 9.5 22.35 15.35 18.5 18.9 16.15 20.2 12.65 14.0 16.9 7.85 16.15 14.8 15.05 20.85 9.75 L20.95 7.55 20.9 6.75 Q10.6 10.65 0.3 8.6 12.15 7.85 19.65 3.5 17.55 1.0 12.15 2.05 3.6 3.7 -8.15 0.15 -19.85 -3.45 -23.2 -1.25 -26.6 0.95 -22.7 7.8 M34.05 1.2 L33.4 0.85 Q32.95 0.8 32.65 1.1 32.35 1.35 32.3 1.8 L32.0 4.75 Q31.95 5.15 32.2 5.45 L32.9 5.85 33.6 5.65 34.0 5.0 34.3 1.95 Q34.35 1.5 34.05 1.2 M33.35 7.3 Q33.1 6.95 32.7 6.9 32.3 6.8 31.95 7.05 31.6 7.25 31.55 7.65 L30.85 10.5 Q30.7 10.9 30.95 11.25 L31.55 11.75 32.3 11.65 32.8 11.05 33.5 8.05 33.35 7.3 M28.5 18.2 L27.95 18.7 26.65 21.35 Q26.45 21.7 26.6 22.1 L27.1 22.7 27.85 22.75 28.45 22.25 29.8 19.5 29.8 18.75 29.25 18.2 Q28.9 18.0 28.5 18.2 M29.1 16.05 Q28.9 16.4 29.1 16.8 L29.65 17.35 30.4 17.35 30.95 16.8 31.95 13.9 Q32.1 13.5 31.9 13.15 31.7 12.8 31.3 12.65 L30.55 12.7 30.05 13.3 29.1 16.05" fill="#385a92" fill-rule="evenodd" stroke="none"/>
    <path d="M10.95 -9.45 L12.95 -9.55 12.95 -1.4 10.95 -1.4 10.95 -3.95 10.95 -5.95 10.95 -9.45 M15.95 -9.75 L17.95 -9.9 17.95 -6.4 17.95 -4.4 17.95 -1.4 15.95 -1.4 15.95 -9.75 M33.85 -13.55 L35.8 -14.35 36.55 -4.2 34.55 -4.05 34.3 -7.3 34.15 -9.35 33.85 -13.55 M37.25 -15.0 L39.15 -16.05 39.45 -12.35 39.7 -9.8 40.05 -5.75 38.05 -5.55 37.25 -15.0 M42.15 -12.35 Q42.7 -9.0 42.7 -5.4 42.7 10.65 32.05 22.0 28.85 25.35 25.3 27.7 L25.0 27.95 Q16.65 33.35 6.2 33.35 -8.95 33.35 -19.6 22.0 -30.3 10.65 -30.3 -5.4 -30.3 -10.0 -29.4 -14.25 -28.85 -13.1 -27.75 -12.1 -28.3 -8.85 -28.3 -5.4 -28.3 9.85 -18.15 20.65 -8.05 31.35 6.2 31.35 16.0 31.35 23.9 26.3 L25.3 23.9 Q25.5 23.55 25.9 23.45 L26.65 23.55 27.05 23.95 30.6 20.65 Q40.7 9.85 40.7 -5.4 L40.45 -10.4 Q41.5 -11.3 42.15 -12.35 M31.95 -6.65 L32.25 -6.7 33.85 -7.15 33.65 -6.5 33.05 -6.1 Q32.6 -6.05 32.3 -6.3 L31.95 -6.65 M33.85 -4.85 L34.2 -4.2 34.35 -1.1 34.05 -0.4 Q33.75 -0.1 33.35 -0.1 32.95 -0.1 32.65 -0.4 32.35 -0.7 32.35 -1.1 L32.2 -4.0 Q32.15 -4.4 32.45 -4.7 L33.1 -5.1 33.85 -4.85 M29.1 16.05 L30.05 13.3 30.55 12.7 31.3 12.65 Q31.7 12.8 31.9 13.15 32.1 13.5 31.95 13.9 L30.95 16.8 30.4 17.35 29.65 17.35 29.1 16.8 Q28.9 16.4 29.1 16.05 M28.5 18.2 Q28.9 18.0 29.25 18.2 L29.8 18.75 29.8 19.5 28.45 22.25 27.85 22.75 27.1 22.7 26.6 22.1 Q26.45 21.7 26.65 21.35 L27.95 18.7 28.5 18.2 M33.35 7.3 L33.5 8.05 32.8 11.05 32.3 11.65 31.55 11.75 30.95 11.25 Q30.7 10.9 30.85 10.5 L31.55 7.65 Q31.6 7.25 31.95 7.05 32.3 6.8 32.7 6.9 33.1 6.95 33.35 7.3 M34.05 1.2 Q34.35 1.5 34.3 1.95 L34.0 5.0 33.6 5.65 32.9 5.85 32.2 5.45 Q31.95 5.15 32.0 4.75 L32.3 1.8 Q32.35 1.35 32.65 1.1 32.95 0.8 33.4 0.85 L34.05 1.2" fill="#1f3252" fill-rule="evenodd" stroke="none"/>
    <path d="M-22.7 7.8 Q-26.6 0.95 -23.2 -1.25 -19.85 -3.45 -8.15 0.15 3.6 3.7 12.15 2.05 17.55 1.0 19.65 3.5 12.15 7.85 0.3 8.6 10.6 10.65 20.9 6.75 L20.95 7.55 20.85 9.75 Q14.8 15.05 7.85 16.15 14.0 16.9 20.2 12.65 18.9 16.15 15.35 18.5 9.5 22.35 1.2 22.35 -7.1 22.35 -12.95 18.5 -18.8 14.65 -22.7 7.8" fill="#4789ad" fill-rule="evenodd" stroke="none"/>
    <path d="M-29.9 -18.5 Q-29.25 -17.5 -28.0 -16.5 L-27.25 -14.7 Q-26.25 -13.1 -23.8 -11.65 L-23.8 -9.4 Q-26.3 -10.65 -27.75 -12.1 -28.85 -13.1 -29.4 -14.25 -30.15 -15.65 -30.05 -17.15 L-29.9 -18.5 M40.9 -17.4 Q41.9 -18.4 42.35 -19.45 L42.95 -17.3 Q43.5 -14.55 42.15 -12.35 41.5 -11.3 40.45 -10.4 L39.7 -9.8 39.45 -12.35 40.05 -13.05 Q41.3 -14.8 41.0 -16.95 L40.9 -17.4 M17.95 -6.4 Q25.3 -7.05 31.55 -8.6 L31.75 -8.65 33.5 -9.15 34.15 -9.35 34.3 -7.3 33.85 -7.15 32.25 -6.7 31.95 -6.65 Q25.55 -5.05 17.95 -4.4 L17.95 -6.4 M10.95 -3.95 L6.2 -3.9 -8.55 -4.9 -8.55 -6.95 6.2 -5.9 10.95 -5.95 10.95 -3.95" fill="#574020" fill-rule="evenodd" stroke="none"/>
    <path d="M-28.0 -16.5 L-27.7 -16.3 Q-26.15 -15.2 -23.8 -14.15 L-23.8 -11.65 Q-26.25 -13.1 -27.25 -14.7 L-28.0 -16.5 M-8.55 -10.0 L6.45 -9.4 10.95 -9.45 10.95 -5.95 6.2 -5.9 -8.55 -6.95 -8.55 -10.0 M17.95 -9.9 Q24.35 -10.6 29.15 -12.0 31.75 -12.8 33.85 -13.55 L34.15 -9.35 33.5 -9.15 31.75 -8.65 31.55 -8.6 Q25.3 -7.05 17.95 -6.4 L17.95 -9.9 M39.15 -16.05 L40.55 -17.05 40.9 -17.4 41.0 -16.95 Q41.3 -14.8 40.05 -13.05 L39.45 -12.35 39.15 -16.05" fill="#8d6632" fill-rule="evenodd" stroke="none"/>
    <path d="M-23.8 -14.15 L-21.8 -13.4 -21.8 -9.35 -10.55 -6.5 -10.55 -10.25 -8.55 -10.0 -8.55 -6.95 -8.55 -4.9 -8.55 -3.9 -23.8 -7.8 -23.8 -9.4 -23.8 -11.65 -23.8 -14.15" fill="#333333" fill-rule="evenodd" stroke="none"/>
    <path d="M-21.8 -13.4 L-19.65 -12.7 -17.05 -11.9 -17.0 -11.9 -12.25 -10.65 -10.55 -10.25 -10.55 -6.5 -21.8 -9.35 -21.8 -13.4 M-14.55 -12.35 L-14.3 -12.3 -14.55 -12.35" fill="#666666" fill-rule="evenodd" stroke="none"/>
    <path d="M-8.4 -127.45 Q-4.9 -131.2 0.35 -130.9 4.25 -130.6 5.3 -129.05 -5.65 -104.35 -10.0 -87.4 -14.5 -99.25 -8.4 -127.45" fill="#eaa76a" fill-rule="evenodd" stroke="none"/>
    <path d="M17.15 -116.75 L16.15 -115.4 Q18.5 -111.3 13.0 -113.1 9.55 -110.8 9.85 -115.4 6.4 -118.2 11.05 -119.1 13.0 -123.1 14.95 -119.1 L15.9 -119.1 17.15 -116.75 M19.0 -82.85 L18.1 -80.65 Q16.9 -78.75 16.0 -76.8 L15.75 -76.85 Q12.3 -74.55 12.6 -79.15 9.15 -81.95 13.8 -82.85 15.75 -86.85 17.7 -82.85 L19.0 -82.85 M24.85 -34.4 Q23.9 -35.6 24.95 -36.35 25.6 -36.8 27.05 -37.1 L27.1 -37.2 Q28.05 -39.15 29.0 -39.1 L29.5 -36.05 24.85 -34.4 M29.3 -31.0 L29.0 -31.1 Q25.55 -28.8 25.85 -33.4 L29.55 -34.05 29.45 -32.55 29.3 -31.1 29.3 -31.0 M2.75 -26.85 L-0.15 -26.8 Q-0.5 -27.6 -0.4 -29.15 -3.85 -31.95 0.8 -32.85 2.75 -36.85 4.7 -32.85 9.35 -33.2 5.9 -29.15 6.75 -27.6 6.55 -26.9 6.15 -25.75 2.75 -26.85 M-1.6 -77.65 Q0.75 -73.55 -4.75 -75.35 -8.2 -73.05 -7.9 -77.65 -11.35 -80.45 -6.7 -81.35 -4.75 -85.35 -2.8 -81.35 1.85 -81.7 -1.6 -77.65" fill="#ff8840" fill-rule="evenodd" stroke="none"/>
    <path d="M17.55 -115.9 L17.6 -115.6 18.15 -109.45 16.55 -108.05 Q13.05 -105.3 8.95 -103.0 L7.5 -102.2 7.5 -103.0 7.3 -103.75 Q6.6 -105.1 5.05 -106.05 3.6 -106.95 1.35 -104.95 3.45 -113.85 8.55 -121.3 L9.7 -121.65 Q12.95 -121.95 14.9 -120.75 L15.9 -119.1 14.95 -119.1 Q13.0 -123.1 11.05 -119.1 6.4 -118.2 9.85 -115.4 9.55 -110.8 13.0 -113.1 18.5 -111.3 16.15 -115.4 L17.15 -116.75 17.55 -115.9 M7.4 -101.75 L8.3 -102.0 Q9.8 -102.45 11.2 -103.0 L14.35 -104.5 13.95 -103.0 13.85 -102.3 Q6.0 -96.5 10.5 -94.7 L10.8 -94.6 12.95 -94.15 Q13.6 -91.75 14.35 -90.35 L14.65 -89.9 Q17.1 -86.3 20.85 -93.1 L20.85 -92.55 Q20.7 -87.6 19.0 -82.85 L17.7 -82.85 Q15.75 -86.85 13.8 -82.85 9.15 -81.95 12.6 -79.15 12.3 -74.55 15.75 -76.85 L16.0 -76.8 Q14.7 -73.9 14.1 -70.9 12.7 -72.65 10.9 -72.65 8.7 -72.7 6.45 -71.25 4.15 -69.85 5.75 -64.7 7.1 -60.2 8.6 -57.45 L6.2 -57.55 4.0 -57.35 Q5.05 -58.85 2.05 -62.0 5.45 -69.3 -2.35 -67.35 -5.2 -69.7 -6.8 -69.6 -6.85 -70.7 -7.7 -71.55 -8.55 -72.4 -9.8 -72.4 L-10.2 -72.35 -10.3 -75.3 -9.25 -81.5 -2.4 -90.55 Q-0.35 -88.2 1.55 -87.5 3.5 -86.8 4.7 -87.7 5.9 -88.65 6.55 -90.4 7.15 -92.15 4.1 -94.25 L0.75 -96.3 2.9 -97.2 Q5.75 -98.85 6.85 -100.6 L7.4 -101.75 M19.2 -52.0 Q20.9 -50.45 23.25 -49.15 L27.9 -42.45 27.8 -42.4 24.3 -40.3 20.45 -39.0 22.2 -40.35 23.0 -41.2 Q24.7 -43.25 21.6 -47.65 L18.15 -52.0 19.2 -52.0 M18.5 -38.35 L17.8 -38.1 11.9 -37.2 9.65 -37.05 17.85 -37.15 24.5 -38.3 28.9 -39.75 29.0 -39.1 Q28.05 -39.15 27.1 -37.2 L27.05 -37.1 Q25.6 -36.8 24.95 -36.35 23.9 -35.6 24.85 -34.4 L14.2 -32.55 24.95 -33.2 25.85 -33.4 Q25.55 -28.8 29.0 -31.1 L29.3 -31.0 28.75 -28.2 25.4 -26.8 16.8 -24.85 13.85 -24.6 13.25 -24.8 10.5 -24.85 9.45 -24.2 2.2 -23.55 9.1 -23.8 Q7.85 -22.3 7.35 -19.05 4.85 -17.2 3.65 -15.8 L2.45 -15.4 3.25 -15.3 Q1.1 -12.5 4.25 -11.4 L-8.55 -11.8 -10.55 -11.95 -14.3 -12.3 -14.55 -12.35 -14.3 -13.65 -14.0 -15.6 -12.8 -23.6 -12.15 -23.65 Q-9.8 -22.5 -7.95 -22.5 -5.9 -22.55 -5.1 -23.8 L-4.7 -24.6 Q-4.35 -25.5 -4.3 -26.65 L-4.3 -26.95 Q-4.35 -28.85 -7.95 -29.7 L-12.0 -30.5 -11.95 -31.0 -11.2 -31.9 Q-9.3 -34.6 -9.05 -36.7 -8.95 -37.7 -9.15 -38.4 -9.4 -39.25 -10.0 -39.7 L-10.4 -40.0 -11.1 -40.35 -10.85 -43.6 Q-9.6 -43.6 -8.75 -44.45 L-8.7 -44.5 Q-7.85 -45.35 -7.85 -46.6 -7.85 -47.85 -8.75 -48.75 -9.5 -49.5 -10.5 -49.55 L-10.2 -58.45 -8.5 -57.8 Q-5.9 -51.0 -3.6 -52.8 L-3.7 -52.05 Q-3.75 -49.9 -2.35 -47.6 -1.0 -45.35 4.15 -46.9 7.6 -47.95 10.0 -49.05 10.2 -47.75 10.8 -46.15 L11.9 -43.7 Q12.55 -42.45 13.3 -41.45 L14.8 -39.75 Q16.7 -38.2 18.5 -38.35 M14.95 -24.0 L16.7 -24.05 25.5 -25.45 28.2 -26.3 25.65 -22.35 24.8 -21.55 23.2 -20.35 21.95 -20.65 Q24.45 -26.5 16.05 -23.3 L14.95 -24.0 M-8.85 -66.5 L-8.95 -64.85 -10.15 -63.9 -10.15 -66.4 -9.8 -66.4 -8.85 -66.5 M-2.1 -55.1 L-1.7 -56.05 -0.65 -56.05 -1.1 -55.8 -2.1 -55.1 M2.75 -26.85 Q6.15 -25.75 6.55 -26.9 6.75 -27.6 5.9 -29.15 9.35 -33.2 4.7 -32.85 2.75 -36.85 0.8 -32.85 -3.85 -31.95 -0.4 -29.15 -0.5 -27.6 -0.15 -26.8 L2.75 -26.85 M-1.6 -77.65 Q1.85 -81.7 -2.8 -81.35 -4.75 -85.35 -6.7 -81.35 -11.35 -80.45 -7.9 -77.65 -8.2 -73.05 -4.75 -75.35 0.75 -73.55 -1.6 -77.65 M-16.8 -17.4 L-16.6 -17.45 -16.6 -17.35 -16.8 -17.4" fill="#ee5b00" fill-rule="evenodd" stroke="none"/>
    <path d="M7.5 -102.2 L8.95 -103.0 Q13.05 -105.3 16.55 -108.05 L18.15 -109.45 17.6 -115.6 17.55 -115.9 Q19.35 -112.2 21.05 -107.5 16.1 -110.15 14.35 -104.5 L11.2 -103.0 Q9.8 -102.45 8.3 -102.0 L7.4 -101.75 7.5 -102.2 M14.9 -120.75 Q12.95 -121.95 9.7 -121.65 L8.55 -121.3 Q3.45 -113.85 1.35 -104.95 L0.8 -104.45 -0.65 -103.0 -2.25 -101.1 -2.55 -102.15 -0.6 -106.75 Q3.55 -116.2 9.45 -127.15 12.25 -124.9 14.9 -120.75 M-2.45 -90.55 L-2.4 -90.55 -9.25 -81.5 -7.15 -89.55 -7.1 -89.6 -3.8 -92.4 -3.55 -92.05 -2.55 -90.7 -2.45 -90.55 M20.85 -93.1 L21.05 -93.45 25.1 -94.3 Q31.1 -71.7 40.3 -23.45 L40.2 -23.45 40.35 -22.95 40.4 -22.8 40.5 -22.5 40.55 -22.4 40.55 -22.35 40.65 -22.05 40.7 -21.4 Q40.65 -20.4 40.0 -19.45 L39.2 -18.55 38.95 -18.35 37.05 -17.05 36.15 -16.6 36.75 -17.45 37.75 -19.4 38.35 -21.25 38.45 -21.9 38.35 -23.8 Q38.05 -24.75 37.35 -25.3 36.2 -26.25 34.5 -26.5 L33.9 -26.6 Q32.85 -26.7 31.95 -25.7 31.3 -25.05 30.75 -23.85 L30.35 -22.85 Q29.05 -19.4 28.65 -17.05 L27.15 -18.25 Q25.0 -19.8 23.2 -20.35 L24.8 -21.55 25.65 -22.35 28.2 -26.3 25.5 -25.45 16.7 -24.05 14.95 -24.0 13.85 -24.6 16.8 -24.85 25.4 -26.8 28.75 -28.2 29.3 -31.0 31.35 -30.55 Q33.15 -30.45 32.8 -31.95 L32.15 -33.4 Q35.6 -37.45 30.95 -37.1 29.95 -39.1 29.0 -39.1 L28.9 -39.75 24.5 -38.3 17.85 -37.15 9.65 -37.05 11.9 -37.2 17.8 -38.1 18.5 -38.35 19.2 -38.5 20.4 -39.0 20.45 -39.0 24.3 -40.3 27.8 -42.4 27.9 -42.45 23.25 -49.15 Q20.9 -50.45 19.2 -52.0 L21.4 -52.2 Q26.1 -53.0 28.5 -54.85 30.85 -56.7 30.6 -58.9 30.4 -61.1 28.7 -63.15 27.0 -65.25 22.1 -63.1 18.7 -61.55 16.4 -60.1 L16.5 -62.7 Q16.25 -67.5 14.7 -70.05 L14.1 -70.9 Q14.7 -73.9 16.0 -76.8 21.2 -75.15 18.9 -79.15 21.75 -82.55 19.0 -82.85 20.7 -87.6 20.85 -92.55 L20.85 -93.1 M24.85 -34.4 L25.85 -33.4 24.95 -33.2 14.2 -32.55 24.85 -34.4 M9.45 -24.2 L9.1 -23.8 2.2 -23.55 9.45 -24.2 M3.65 -15.8 L3.25 -15.3 2.45 -15.4 3.65 -15.8 M-19.45 -69.65 Q-18.6 -75.5 -17.9 -81.4 -17.15 -87.75 -16.6 -89.85 -15.5 -84.4 -12.3 -75.2 L-11.9 -71.6 -11.95 -71.55 Q-12.8 -70.65 -12.8 -69.4 -12.8 -68.15 -11.95 -67.3 L-11.55 -66.95 -11.35 -62.75 Q-13.2 -60.55 -11.25 -59.05 -11.2 -54.3 -11.4 -49.55 -12.3 -49.4 -13.0 -48.75 -13.85 -47.85 -13.85 -46.6 -13.85 -45.35 -13.0 -44.5 -12.45 -43.95 -11.8 -43.75 L-12.1 -40.7 -12.4 -40.75 -13.05 -40.85 Q-14.95 -41.05 -16.25 -37.55 L-17.05 -35.3 -17.75 -32.4 -18.95 -33.45 -19.0 -33.45 Q-21.7 -35.4 -23.75 -35.6 L-24.5 -35.65 -24.3 -36.25 -23.65 -38.3 Q-21.85 -37.5 -20.2 -41.8 -10.65 -41.6 -16.45 -47.75 -13.05 -55.05 -20.85 -53.1 L-21.25 -53.4 -20.6 -61.35 Q-19.8 -61.25 -18.5 -62.1 -13.0 -60.3 -15.35 -64.4 -11.9 -68.45 -16.55 -68.1 -18.0 -71.05 -19.45 -69.65 M-26.5 -29.4 L-24.65 -28.5 -23.45 -28.05 -21.45 -27.4 -20.55 -27.2 -21.35 -25.3 -21.55 -24.5 -21.95 -22.35 Q-22.1 -21.1 -21.9 -20.1 -21.45 -18.05 -20.05 -17.5 L-16.8 -17.4 -16.6 -17.35 -16.9 -16.35 -17.45 -14.45 -17.55 -14.15 -19.05 -14.6 -21.8 -15.5 Q-22.9 -15.95 -23.8 -16.35 -25.4 -17.1 -26.5 -17.9 L-27.55 -18.8 Q-28.5 -19.8 -28.7 -20.85 L-28.8 -21.4 -28.8 -21.55 -28.6 -21.55 -28.6 -22.25 -28.5 -22.5 -28.45 -22.7 -28.3 -23.15 -28.35 -23.15 -26.5 -29.4" fill="#bf4800" fill-rule="evenodd" stroke="none"/>
    <path d="M1.35 -104.95 L1.05 -103.75 0.9 -103.0 Q-0.5 -96.75 -2.45 -90.55 L-2.55 -90.7 -3.55 -92.05 -3.8 -92.4 -7.1 -89.6 -7.15 -89.55 Q-5.35 -95.45 -2.55 -102.15 L-2.25 -101.1 -0.65 -103.0 0.8 -104.45 1.35 -104.95 M14.1 -70.9 L14.7 -70.05 Q16.25 -67.5 16.5 -62.7 L16.4 -60.1 Q18.7 -61.55 22.1 -63.1 27.0 -65.25 28.7 -63.15 30.4 -61.1 30.6 -58.9 30.85 -56.7 28.5 -54.85 26.1 -53.0 21.4 -52.2 L19.2 -52.0 Q14.85 -55.8 13.95 -61.35 13.15 -66.25 14.1 -70.9 M23.2 -20.35 Q25.0 -19.8 27.15 -18.25 L28.65 -17.05 Q29.05 -19.4 30.35 -22.85 L30.75 -23.85 Q31.3 -25.05 31.95 -25.7 32.85 -26.7 33.9 -26.6 L34.5 -26.5 Q36.2 -26.25 37.35 -25.3 38.05 -24.75 38.35 -23.8 L38.45 -21.9 38.35 -21.25 37.75 -19.4 36.75 -17.45 36.15 -16.6 35.65 -16.35 33.7 -15.55 30.9 -14.6 Q27.7 -13.6 24.1 -12.9 L32.15 -16.65 17.15 -15.45 Q17.05 -15.8 17.1 -16.2 17.25 -17.55 17.75 -18.6 20.75 -18.85 23.2 -20.35 M-24.5 -35.65 L-23.75 -35.6 Q-21.7 -35.4 -19.0 -33.45 L-18.95 -33.45 -17.75 -32.4 -17.05 -35.3 -16.25 -37.55 Q-14.95 -41.05 -13.05 -40.85 L-12.4 -40.75 -12.1 -40.7 -12.35 -38.85 -12.7 -36.25 -13.8 -29.45 -15.0 -28.75 Q-15.85 -27.85 -15.85 -26.6 -15.85 -25.35 -15.0 -24.5 L-14.85 -24.35 -15.0 -23.65 -16.6 -17.45 -16.8 -17.4 -20.05 -17.5 Q-21.45 -18.05 -21.9 -20.1 -22.1 -21.1 -21.95 -22.35 L-21.55 -24.5 -21.35 -25.3 -20.55 -27.2 -21.45 -27.4 -23.45 -28.05 -24.65 -28.5 -26.5 -29.4 -24.5 -35.65" fill="#b35b04" fill-rule="evenodd" stroke="none"/>
    <path d="M1.35 -104.95 Q3.6 -106.95 5.05 -106.05 6.6 -105.1 7.3 -103.75 L7.5 -103.0 7.5 -102.2 7.4 -101.75 6.85 -100.6 Q5.75 -98.85 2.9 -97.2 L0.75 -96.3 4.1 -94.25 Q7.15 -92.15 6.55 -90.4 5.9 -88.65 4.7 -87.7 3.5 -86.8 1.55 -87.5 -0.35 -88.2 -2.4 -90.55 L-2.45 -90.55 Q-0.5 -96.75 0.9 -103.0 L1.05 -103.75 1.35 -104.95 M20.45 -39.0 L20.4 -39.0 19.2 -38.5 18.5 -38.35 Q16.7 -38.2 14.8 -39.75 L13.3 -41.45 Q12.55 -42.45 11.9 -43.7 L10.8 -46.15 Q10.2 -47.75 10.0 -49.05 7.6 -47.95 4.15 -46.9 -1.0 -45.35 -2.35 -47.6 -3.75 -49.9 -3.7 -52.05 L-3.6 -52.8 Q-3.35 -54.1 -2.1 -55.1 L-1.1 -55.8 -0.65 -56.05 Q1.15 -57.0 4.0 -57.35 L6.2 -57.55 8.6 -57.45 Q7.1 -60.2 5.75 -64.7 4.15 -69.85 6.45 -71.25 8.7 -72.7 10.9 -72.65 12.7 -72.65 14.1 -70.9 13.15 -66.25 13.95 -61.35 14.85 -55.8 19.2 -52.0 L18.15 -52.0 21.6 -47.65 Q24.7 -43.25 23.0 -41.2 L22.2 -40.35 20.45 -39.0 M17.75 -18.6 L18.4 -19.6 Q19.45 -20.95 21.8 -20.65 L21.95 -20.65 23.2 -20.35 Q20.75 -18.85 17.75 -18.6 M17.15 -15.45 L32.15 -16.65 24.1 -12.9 21.3 -12.45 20.8 -12.6 Q18.9 -13.35 17.95 -14.2 17.35 -14.8 17.2 -15.4 L17.15 -15.45 M-11.1 -40.35 L-10.4 -40.0 -10.0 -39.7 Q-9.4 -39.25 -9.15 -38.4 -8.95 -37.7 -9.05 -36.7 -9.3 -34.6 -11.2 -31.9 L-11.95 -31.0 -11.35 -37.15 -11.15 -39.6 -11.1 -40.35 M-12.0 -30.5 L-7.95 -29.7 Q-4.35 -28.85 -4.3 -26.95 L-4.3 -26.65 Q-4.35 -25.5 -4.7 -24.6 L-5.1 -23.8 Q-5.9 -22.55 -7.95 -22.5 -9.8 -22.5 -12.15 -23.65 -11.35 -23.85 -10.75 -24.45 L-10.7 -24.5 Q-9.85 -25.35 -9.85 -26.6 -9.85 -27.85 -10.75 -28.75 L-12.1 -29.5 -12.0 -30.5" fill="#ea8804" fill-rule="evenodd" stroke="none"/>
    <path d="M14.35 -104.5 L18.1 -107.0 19.25 -107.9 17.95 -105.4 16.5 -103.0 Q13.8 -98.7 10.5 -94.7 6.0 -96.5 13.85 -102.3 L13.95 -103.0 14.35 -104.5 M10.8 -94.6 L16.9 -100.5 19.85 -104.2 19.75 -103.0 Q19.05 -97.2 15.75 -92.2 L14.35 -90.35 Q13.6 -91.75 12.95 -94.15 L10.8 -94.6 M14.65 -89.9 Q17.5 -91.9 19.6 -94.6 L20.75 -96.1 20.85 -94.2 20.85 -93.1 Q17.1 -86.3 14.65 -89.9 M13.85 -24.6 L14.95 -24.0 16.05 -23.3 Q24.45 -26.5 21.95 -20.65 L21.8 -20.65 Q19.45 -20.95 18.4 -19.6 L17.75 -18.6 16.1 -18.5 5.3 -16.35 3.65 -15.8 Q4.85 -17.2 7.35 -19.05 7.85 -22.3 9.1 -23.8 L9.45 -24.2 10.5 -24.85 13.25 -24.8 13.85 -24.6 M-6.8 -69.6 Q-5.2 -69.7 -2.35 -67.35 5.45 -69.3 2.05 -62.0 5.05 -58.85 4.0 -57.35 1.15 -57.0 -0.65 -56.05 L-1.7 -56.05 -2.1 -55.1 Q-3.35 -54.1 -3.6 -52.8 -5.9 -51.0 -8.5 -57.8 L-10.2 -58.45 -10.15 -63.9 -8.95 -64.85 -8.85 -66.5 Q-8.2 -66.75 -7.7 -67.25 L-7.65 -67.3 Q-6.8 -68.15 -6.8 -69.4 L-6.8 -69.6 M3.25 -15.3 L4.85 -15.2 7.0 -15.0 10.95 -15.0 16.0 -15.35 17.15 -15.45 17.2 -15.4 Q17.35 -14.8 17.95 -14.2 18.9 -13.35 20.8 -12.6 L21.3 -12.45 17.95 -12.0 15.95 -11.8 12.95 -11.6 10.95 -11.5 5.95 -11.4 4.25 -11.4 Q1.1 -12.5 3.25 -15.3" fill="#ed3d01" fill-rule="evenodd" stroke="none"/>
    <path d="M14.35 -104.5 Q16.1 -110.15 21.05 -107.5 L23.95 -98.45 25.1 -94.3 21.05 -93.45 20.85 -93.1 20.85 -94.2 20.75 -96.1 19.6 -94.6 Q17.5 -91.9 14.65 -89.9 L14.35 -90.35 15.75 -92.2 Q19.05 -97.2 19.75 -103.0 L19.85 -104.2 16.9 -100.5 10.8 -94.6 10.5 -94.7 Q13.8 -98.7 16.5 -103.0 L17.95 -105.4 19.25 -107.9 18.1 -107.0 14.35 -104.5 M3.65 -15.8 L5.3 -16.35 16.1 -18.5 17.75 -18.6 Q17.25 -17.55 17.1 -16.2 17.05 -15.8 17.15 -15.45 L16.0 -15.35 10.95 -15.0 7.0 -15.0 4.85 -15.2 3.25 -15.3 3.65 -15.8 M-21.25 -53.4 L-20.85 -53.1 Q-13.05 -55.05 -16.45 -47.75 -10.65 -41.6 -20.2 -41.8 -21.85 -37.5 -23.65 -38.3 -21.4 -46.0 -21.3 -51.5 L-21.25 -53.4 M-11.25 -59.05 Q-13.2 -60.55 -11.35 -62.75 L-11.25 -59.05" fill="#bf3900" fill-rule="evenodd" stroke="none"/>
    <path d="M19.0 -82.85 Q21.75 -82.55 18.9 -79.15 21.2 -75.15 16.0 -76.8 16.9 -78.75 18.1 -80.65 L19.0 -82.85 M29.0 -39.1 Q29.95 -39.1 30.95 -37.1 35.6 -37.45 32.15 -33.4 L32.8 -31.95 Q33.15 -30.45 31.35 -30.55 L29.3 -31.0 29.3 -31.1 29.45 -32.55 29.55 -34.05 25.85 -33.4 24.85 -34.4 29.5 -36.05 29.0 -39.1 M-19.45 -69.65 Q-18.0 -71.05 -16.55 -68.1 -11.9 -68.45 -15.35 -64.4 -13.0 -60.3 -18.5 -62.1 -19.8 -61.25 -20.6 -61.35 L-20.0 -65.75 -19.45 -69.65" fill="#e05f27" fill-rule="evenodd" stroke="none"/>
    <path d="M-10.0 -87.4 L-11.65 -79.8 Q-15.85 -94.05 -15.05 -109.5 -13.3 -122.35 -8.4 -127.45 -14.5 -99.25 -10.0 -87.4" fill="#e7964e" fill-rule="evenodd" stroke="none"/>
    <path d="M-6.8 -69.6 L-6.8 -69.4 Q-6.8 -68.15 -7.65 -67.3 L-7.7 -67.25 Q-8.2 -66.75 -8.85 -66.5 L-9.8 -66.4 -10.15 -66.4 Q-10.95 -66.5 -11.55 -66.95 L-11.95 -67.3 Q-12.8 -68.15 -12.8 -69.4 -12.8 -70.65 -11.95 -71.55 L-11.9 -71.6 Q-11.2 -72.25 -10.2 -72.35 L-9.8 -72.4 Q-8.55 -72.4 -7.7 -71.55 -6.85 -70.7 -6.8 -69.6 M-11.8 -43.75 Q-12.45 -43.95 -13.0 -44.5 -13.85 -45.35 -13.85 -46.6 -13.85 -47.85 -13.0 -48.75 -12.3 -49.4 -11.4 -49.55 L-10.85 -49.6 -10.5 -49.55 Q-9.5 -49.5 -8.75 -48.75 -7.85 -47.85 -7.85 -46.6 -7.85 -45.35 -8.7 -44.5 L-8.75 -44.45 Q-9.6 -43.6 -10.85 -43.6 L-11.8 -43.75 M-8.4 -70.85 Q-8.95 -71.4 -9.8 -71.4 L-10.2 -71.35 Q-10.8 -71.25 -11.2 -70.85 L-11.25 -70.8 -11.75 -69.8 -11.8 -69.4 -11.65 -68.65 -11.25 -68.0 Q-10.8 -67.55 -10.15 -67.4 L-9.8 -67.4 Q-9.1 -67.4 -8.6 -67.8 L-8.4 -68.0 Q-7.9 -68.5 -7.8 -69.2 L-7.8 -69.4 Q-7.8 -70.25 -8.4 -70.85 M-12.15 -23.65 L-12.8 -23.6 -12.85 -23.6 Q-14.0 -23.6 -14.85 -24.35 L-15.0 -24.5 Q-15.85 -25.35 -15.85 -26.6 -15.85 -27.85 -15.0 -28.75 L-13.8 -29.45 -12.85 -29.6 -12.1 -29.5 -10.75 -28.75 Q-9.85 -27.85 -9.85 -26.6 -9.85 -25.35 -10.7 -24.5 L-10.75 -24.45 Q-11.35 -23.85 -12.15 -23.65 M-9.45 -45.2 Q-8.85 -45.75 -8.85 -46.6 -8.85 -47.45 -9.45 -48.05 -9.9 -48.5 -10.55 -48.55 L-10.85 -48.6 -11.45 -48.5 -12.25 -48.05 -12.3 -48.0 Q-12.85 -47.45 -12.85 -46.6 -12.85 -45.75 -12.3 -45.2 L-11.7 -44.8 -10.85 -44.6 -10.8 -44.6 Q-10.0 -44.6 -9.45 -45.2 M-11.45 -28.05 L-12.2 -28.5 -12.85 -28.6 -14.05 -28.25 -14.25 -28.05 -14.3 -28.0 Q-14.85 -27.45 -14.85 -26.6 L-14.6 -25.55 -14.3 -25.2 Q-13.7 -24.6 -12.85 -24.6 L-12.7 -24.6 Q-11.95 -24.65 -11.45 -25.2 -10.85 -25.75 -10.85 -26.6 -10.85 -27.45 -11.45 -28.05" fill="#5f300e" fill-rule="evenodd" stroke="none"/>
    <path d="M-8.4 -70.85 Q-7.8 -70.25 -7.8 -69.4 L-7.8 -69.2 Q-7.9 -68.5 -8.4 -68.0 L-8.6 -67.8 Q-9.1 -67.4 -9.8 -67.4 L-10.15 -67.4 Q-10.8 -67.55 -11.25 -68.0 L-11.65 -68.65 -11.8 -69.4 -11.75 -69.8 -11.25 -70.8 -11.2 -70.85 Q-10.8 -71.25 -10.2 -71.35 L-9.8 -71.4 Q-8.95 -71.4 -8.4 -70.85 M-9.45 -45.2 Q-10.0 -44.6 -10.8 -44.6 L-10.85 -44.6 -11.7 -44.8 -12.3 -45.2 Q-12.85 -45.75 -12.85 -46.6 -12.85 -47.45 -12.3 -48.0 L-12.25 -48.05 -11.45 -48.5 -10.85 -48.6 -10.55 -48.55 Q-9.9 -48.5 -9.45 -48.05 -8.85 -47.45 -8.85 -46.6 -8.85 -45.75 -9.45 -45.2 M-11.45 -28.05 Q-10.85 -27.45 -10.85 -26.6 -10.85 -25.75 -11.45 -25.2 -11.95 -24.65 -12.7 -24.6 L-12.85 -24.6 Q-13.7 -24.6 -14.3 -25.2 L-14.6 -25.55 -14.85 -26.6 Q-14.85 -27.45 -14.3 -28.0 L-14.25 -28.05 -14.05 -28.25 -12.85 -28.6 -12.2 -28.5 -11.45 -28.05" fill="#b15b0e" fill-rule="evenodd" stroke="none"/>
  </g>
</svg>
