<?xml version="1.0" encoding="UTF-8" standalone="no"?>
<svg xmlns:ffdec="https://www.free-decompiler.com/flash" xmlns:xlink="http://www.w3.org/1999/xlink" ffdec:objectType="shape" height="19.75px" width="33.0px" xmlns="http://www.w3.org/2000/svg">
  <g transform="matrix(1.0, 0.0, 0.0, 1.0, 16.45, 11.0)">
    <path d="M6.75 -8.2 Q7.95 -9.25 9.4 -9.25 11.65 -9.25 13.2 -6.85 14.8 -4.5 14.8 -1.15 14.8 2.2 13.2 4.55 11.65 6.9 9.4 6.95 7.2 6.9 5.6 4.55 4.05 2.2 4.05 -1.15 4.0 -3.0 4.5 -4.55 4.9 -5.85 5.6 -6.85 L6.75 -8.2 Z" fill="none" stroke="#000000" stroke-linecap="round" stroke-linejoin="round" stroke-width="3.5"/>
    <path d="M-14.25 -3.0 L-13.35 -5.0 -12.35 -6.15 Q-11.3 -7.05 -10.0 -7.05 -8.1 -7.05 -6.75 -5.0 -5.35 -2.95 -5.3 0.0 -5.35 2.9 -6.75 4.9 -8.1 6.95 -10.0 7.0 -11.95 6.95 -13.35 4.9 -14.7 2.9 -14.7 0.0 -14.7 -1.65 -14.25 -3.0 Z" fill="none" stroke="#000000" stroke-linecap="round" stroke-linejoin="round" stroke-width="3.5"/>
  </g>
</svg>
