<?xml version="1.0" encoding="UTF-8" standalone="no"?>
<svg xmlns:ffdec="https://www.free-decompiler.com/flash" xmlns:xlink="http://www.w3.org/1999/xlink" ffdec:objectType="shape" height="16.7px" width="29.85px" xmlns="http://www.w3.org/2000/svg">
  <g transform="matrix(1.0, 0.0, 0.0, 1.0, 14.65, 8.0)">
    <path d="M11.25 -2.45 Q9.1 -4.85 6.4 -6.2 L6.15 -6.25 6.15 -5.6 Q4.15 -2.4 4.55 1.4 4.85 3.9 6.65 5.8 8.05 7.3 10.1 6.85 11.6 6.45 12.5 5.2 14.0 3.1 13.15 0.65 L12.1 -1.35 11.25 -2.45 Z" fill="none" stroke="#000000" stroke-linecap="round" stroke-linejoin="round" stroke-width="3.5"/>
    <path d="M-5.25 -5.3 L-5.45 -5.65 -5.9 -5.7 -12.35 -0.65 Q-13.3 0.75 -12.6 3.25 -12.15 4.95 -11.05 5.95 -9.4 7.65 -7.45 6.35 L-6.15 5.15 Q-5.05 3.85 -4.95 2.2 -4.75 -0.9 -5.0 -3.75 L-5.25 -5.3 Z" fill="none" stroke="#000000" stroke-linecap="round" stroke-linejoin="round" stroke-width="3.5"/>
  </g>
</svg>
