<?xml version="1.0" encoding="UTF-8" standalone="no"?>
<svg xmlns:ffdec="https://www.free-decompiler.com/flash" xmlns:xlink="http://www.w3.org/1999/xlink" ffdec:objectType="shape" height="14.85px" width="30.3px" xmlns="http://www.w3.org/2000/svg">
  <g transform="matrix(1.0, 0.0, 0.0, 1.0, 14.7, 6.1)">
    <path d="M12.8 -4.35 Q13.85 -2.55 13.85 -0.05 13.85 2.85 12.45 4.9 11.1 6.95 9.15 6.95 7.25 6.95 5.85 4.9 4.7 3.2 4.55 0.95" fill="none" stroke="#000000" stroke-linecap="round" stroke-linejoin="round" stroke-width="3.5"/>
    <path d="M4.55 0.95 L3.45 1.6 M4.55 0.95 L12.8 -4.35" fill="none" stroke="#000000" stroke-linecap="round" stroke-linejoin="round" stroke-width="3.5"/>
    <path d="M-4.85 0.45 L-4.8 0.95 Q-4.85 3.45 -6.05 5.2 -7.2 7.0 -8.85 7.0 -10.55 7.0 -11.75 5.2 -12.95 3.45 -12.95 0.95 -12.95 -0.5 -12.55 -1.65 L-12.4 -2.1" fill="none" stroke="#000000" stroke-linecap="round" stroke-linejoin="round" stroke-width="3.5"/>
    <path d="M-12.4 -2.1 L-4.85 0.45 -4.3 0.6" fill="none" stroke="#000000" stroke-linecap="round" stroke-linejoin="round" stroke-width="3.5"/>
  </g>
</svg>
