<?xml version="1.0" encoding="UTF-8" standalone="no"?>
<svg xmlns:ffdec="https://www.free-decompiler.com/flash" xmlns:xlink="http://www.w3.org/1999/xlink" ffdec:objectType="shape" height="17.3px" width="32.7px" xmlns="http://www.w3.org/2000/svg">
  <g transform="matrix(1.0, 0.0, 0.0, 1.0, 14.65, 8.55)">
    <path d="M7.35 -4.05 L7.3 -3.95 Q6.8 -3.35 6.6 -2.55 L6.6 -2.5 Q6.25 -1.4 6.25 -0.05 6.25 2.05 7.1 3.6 9.85 1.85 12.15 1.4 L12.25 0.0 12.4 -0.55 Q12.3 -0.4 10.55 -2.7 8.75 -5.0 8.35 -4.9 L7.95 -4.8 7.35 -4.05 M5.75 -7.5 L5.7 -7.45 Q6.75 -8.7 8.25 -8.55 9.65 -8.4 15.4 -2.25 L15.6 -0.05 15.65 1.1 Q16.25 1.1 18.05 2.7 L16.7 3.0 Q13.35 3.85 3.2 7.8 L3.05 7.55 Q2.75 7.0 2.95 6.4 3.1 5.8 3.65 5.55 L4.05 5.35 Q2.75 3.05 2.75 -0.05 2.75 -1.9 3.25 -3.5 L3.2 -3.45 Q3.6 -4.8 4.4 -5.95 L4.45 -6.0 5.75 -7.5" fill="#000000" fill-rule="evenodd" stroke="none"/>
    <path d="M-7.25 -7.35 Q-6.0 -6.5 -4.6 -4.35 -3.1 -2.2 -3.05 0.95 L-3.05 1.0 Q-3.1 4.05 -4.6 6.2 L-4.55 6.15 Q-6.3 8.85 -8.85 8.75 -11.4 8.85 -13.2 6.2 -14.5 4.35 -14.65 1.8 L-9.4 -8.05 -7.25 -7.35 M-7.5 -2.4 Q-8.0 -3.1 -8.55 -3.3 -9.55 -2.7 -10.85 0.9 L-11.15 1.7 Q-11.0 3.1 -10.3 4.2 L-10.3 4.25 Q-9.7 5.15 -8.85 5.25 -8.1 5.15 -7.5 4.25 L-7.5 4.2 Q-6.6 2.85 -6.55 0.95 -6.6 -1.0 -7.5 -2.35 L-7.5 -2.4" fill="#000000" fill-rule="evenodd" stroke="none"/>
  </g>
</svg>
