<?xml version="1.0" encoding="UTF-8" standalone="no"?>
<svg xmlns:ffdec="https://www.free-decompiler.com/flash" xmlns:xlink="http://www.w3.org/1999/xlink" ffdec:objectType="shape" height="17.55px" width="32.9px" xmlns="http://www.w3.org/2000/svg">
  <g transform="matrix(1.0, 0.0, 0.0, 1.0, 17.3, 8.8)">
    <path d="M-8.85 5.25 Q-8.1 5.15 -7.5 4.25 L-7.5 4.2 Q-6.8 3.15 -6.6 1.75 L-11.1 -0.1 -11.2 0.95 Q-11.2 2.85 -10.3 4.2 L-10.3 4.25 Q-9.7 5.15 -8.85 5.25 M-11.55 -3.8 L-10.95 -3.25 -3.15 0.25 -3.05 0.85 -3.05 1.0 Q-3.1 4.05 -4.6 6.2 L-4.55 6.15 Q-6.3 8.85 -8.85 8.75 -11.4 8.85 -13.2 6.2 -14.7 4.05 -14.7 0.95 L-14.4 -1.5 -17.15 -3.1 -17.2 -3.2 Q-17.45 -3.8 -17.15 -4.35 L-16.35 -5.15 -15.2 -5.1 -12.55 -3.95 -11.55 -3.8" fill="#000000" fill-rule="evenodd" stroke="none"/>
    <path d="M13.85 -0.05 Q13.85 2.85 12.45 4.9 11.1 6.95 9.15 6.95 7.25 6.95 5.85 4.9 4.5 2.85 4.5 -0.05 4.5 -1.65 4.9 -3.0 5.2 -4.1 5.85 -5.0 L6.85 -6.15 Q7.9 -7.05 9.15 -7.05 11.1 -7.05 12.45 -5.0 13.85 -2.95 13.85 -0.05 Z" fill="none" stroke="#000000" stroke-linecap="round" stroke-linejoin="round" stroke-width="3.5"/>
  </g>
</svg>
