<?xml version="1.0" encoding="UTF-8" standalone="no"?>
<svg xmlns:ffdec="https://www.free-decompiler.com/flash" xmlns:xlink="http://www.w3.org/1999/xlink" ffdec:objectType="shape" height="79.65px" width="121.95px" xmlns="http://www.w3.org/2000/svg">
  <g transform="matrix(1.0, 0.0, 0.0, 1.0, 42.7, 43.0)">
    <path d="M55.45 35.05 L55.5 35.1 Q44.05 29.45 43.25 28.75 L39.5 24.75 35.6 20.95 Q32.25 18.0 29.85 18.0 24.05 20.3 19.5 21.4 L10.05 22.25 2.15 22.05 Q-0.9 22.0 -2.5 16.75 -3.85 16.9 -10.75 19.55 -15.75 21.45 -22.05 18.75 L-14.4 18.3 Q-7.5 16.9 -3.0 11.75 2.35 21.75 9.4 20.8 16.4 19.85 22.1 16.75 27.8 13.6 32.5 14.95 37.2 16.25 38.3 17.4 44.6 24.25 55.45 35.05" fill="#eaa76a" fill-rule="evenodd" stroke="none"/>
    <path d="M42.45 14.2 L47.15 17.35 Q46.9 20.55 47.55 23.0 50.25 24.0 50.85 25.3 L51.45 26.8 Q52.15 29.2 53.65 30.55 54.5 31.25 55.6 31.65 54.9 33.55 55.15 34.5 L55.45 35.05 Q44.6 24.25 38.3 17.4 37.2 16.25 32.5 14.95 27.8 13.6 22.1 16.75 16.4 19.85 9.4 20.8 2.35 21.75 -3.0 11.75 -7.5 16.9 -14.4 18.3 L-22.05 18.75 -23.15 18.25 -19.55 18.65 Q-14.15 18.65 -10.3 15.85 L-10.3 15.9 Q-6.25 13.1 -6.95 5.7 L-6.95 5.65 -7.0 5.3 -0.85 5.15 -0.85 5.3 Q-1.6 12.7 2.5 15.5 L2.5 15.45 Q6.3 18.25 11.7 18.25 17.1 18.25 20.95 15.45 L20.95 15.5 Q23.55 13.65 24.5 11.3 33.5 11.8 42.45 14.2" fill="#e7964e" fill-rule="evenodd" stroke="none"/>
    <path d="M-24.3 1.4 Q-26.85 -1.4 -29.6 -2.8 L-30.8 -3.35 Q-35.1 -5.0 -39.9 -3.3 L-42.6 -2.4 -42.7 -2.5 -41.05 -4.8 -37.95 -8.85 Q-32.8 -14.7 -27.65 -14.9 L-23.7 -14.35 -23.75 -17.25 -23.75 -17.3 -23.65 -18.05 -23.7 -17.95 Q-23.05 -26.2 -17.45 -32.15 L-15.65 -34.15 -15.75 -31.45 Q-15.95 -26.45 -14.6 -23.65 L-14.6 -23.6 Q-14.1 -22.6 -13.4 -21.9 -12.95 -25.15 -11.55 -29.1 L-11.55 -29.05 Q-9.95 -33.55 -7.1 -38.95 L-5.8 -41.45 -5.4 -41.4 -5.25 -38.55 Q-4.75 -29.55 -3.6 -24.6 L-3.45 -24.05 -3.25 -23.25 Q-2.65 -21.1 -1.9 -20.1 -1.75 -22.5 -1.15 -24.8 -0.3 -28.65 1.65 -32.15 4.45 -37.45 8.85 -41.45 L10.45 -43.0 10.5 -40.75 10.35 -35.75 Q9.9 -29.75 12.15 -25.7 L12.7 -24.9 Q14.4 -22.3 17.4 -20.65 18.7 -26.3 22.35 -30.8 25.95 -35.3 34.05 -38.85 L36.1 -40.0 35.45 -37.7 Q33.4 -30.5 34.15 -23.3 34.3 -21.7 34.6 -20.05 L43.45 -20.4 Q48.25 -21.15 52.25 -25.85 L53.85 -26.8 53.75 -24.95 Q53.6 -19.75 51.5 -13.0 L50.25 -9.35 Q54.5 -8.5 58.6 -10.1 62.7 -11.75 65.85 -14.05 L67.1 -14.9 67.4 -13.45 67.95 -8.85 Q68.1 -4.2 66.55 -0.3 L64.8 2.9 69.9 3.1 Q74.8 3.95 78.5 7.8 L79.25 8.6 Q68.95 14.7 67.45 17.9 69.5 18.4 71.4 19.35 73.9 20.5 75.95 22.55 L77.05 23.6 75.65 24.2 Q68.8 26.9 66.05 29.3 63.3 31.7 61.85 35.55 L61.7 35.75 61.5 35.9 Q58.2 37.75 55.5 35.1 L55.45 35.05 55.15 34.5 Q54.9 33.55 55.6 31.65 54.5 31.25 53.65 30.55 52.15 29.2 51.45 26.8 L50.85 25.3 Q50.25 24.0 47.55 23.0 46.9 20.55 47.15 17.35 L42.45 14.2 46.4 15.3 46.55 15.2 48.35 13.7 Q54.55 9.15 65.5 8.75 L68.3 8.6 68.5 9.35 65.95 10.65 Q57.85 14.75 56.2 18.75 54.85 22.35 58.7 30.4 60.1 32.05 59.6 33.1 58.45 35.2 60.3 34.25 61.8 31.8 63.8 29.8 65.4 28.05 67.35 26.6 70.05 24.5 73.95 23.25 L70.55 21.15 70.5 21.15 70.2 21.0 Q67.7 19.8 64.9 19.5 L62.5 19.2 68.05 14.85 76.25 8.4 Q73.55 5.95 70.2 5.2 L69.55 5.05 62.7 5.25 59.95 5.8 59.9 5.75 61.75 3.6 Q63.3 1.85 64.25 -0.15 L64.7 -1.05 Q65.95 -4.25 66.45 -8.85 L66.7 -13.35 Q62.85 -9.95 59.05 -8.85 L58.95 -8.85 58.45 -8.7 Q54.2 -7.65 48.85 -7.25 L47.25 -7.1 47.85 -8.6 47.95 -8.85 49.55 -13.4 49.6 -13.6 Q51.25 -18.9 51.65 -23.15 48.4 -21.35 45.15 -20.15 L42.55 -19.3 Q38.15 -18.05 33.75 -18.05 L32.95 -18.05 32.8 -18.85 32.3 -21.8 32.15 -23.1 Q31.5 -29.55 34.5 -38.0 27.2 -32.55 23.7 -28.2 L23.2 -27.6 Q20.2 -23.65 19.05 -18.95 L18.75 -17.75 17.65 -18.3 Q13.9 -20.0 11.65 -22.85 L11.4 -23.25 11.35 -23.2 10.8 -24.05 Q7.8 -28.7 8.35 -35.9 8.45 -37.15 9.5 -40.1 5.5 -35.15 3.4 -31.2 2.15 -28.95 1.35 -26.5 L0.8 -24.35 Q0.05 -21.35 0.0 -18.2 L0.0 -16.8 -1.35 -17.3 -2.1 -17.7 Q-3.95 -18.4 -5.15 -22.55 L-5.2 -22.75 -5.4 -23.55 -5.45 -23.75 Q-6.5 -27.8 -6.25 -38.0 L-9.65 -28.4 -10.5 -25.8 Q-11.4 -22.7 -11.55 -20.15 L-11.65 -18.7 -12.95 -19.25 Q-14.9 -20.1 -16.0 -22.0 L-16.4 -22.75 Q-17.55 -25.05 -16.75 -31.0 -21.25 -24.0 -21.7 -17.8 L-21.7 -17.75 -21.7 -17.7 -21.75 -17.6 -21.75 -17.5 -21.75 -17.25 -21.75 -17.2 -21.75 -16.5 -21.6 -13.35 -21.1 -10.55 -20.6 -8.85 -20.45 -8.4 -20.45 -8.45 Q-19.5 -5.9 -18.05 -3.7 L-15.9 -0.85 -18.1 -0.3 Q-20.85 -3.65 -22.35 -7.75 L-22.7 -8.85 -23.45 -12.05 Q-25.5 -13.0 -27.5 -12.9 L-27.55 -12.9 Q-28.8 -12.8 -30.05 -12.3 -32.6 -11.35 -35.15 -8.85 L-37.75 -5.95 Q-35.2 -6.4 -32.8 -6.0 L-30.05 -5.2 -30.1 -5.2 -28.65 -4.55 -28.7 -4.6 Q-25.3 -2.9 -22.2 0.8 L-24.3 1.4 M58.7 30.4 Q52.4 22.55 54.3 18.0 55.6 14.55 65.25 9.4 53.95 10.25 49.7 14.2 48.85 15.0 48.3 15.95 L47.9 16.65 47.75 16.8 Q53.6 29.45 58.7 30.4 M-1.75 -6.7 L-1.85 -3.85 Q-2.5 -6.55 -2.3 -8.85 -1.75 -15.5 5.75 -18.9 L7.45 -19.7 7.15 -17.85 Q6.2 -12.25 7.05 -8.85 7.4 -7.2 8.2 -6.1 L8.55 -5.65 Q9.75 -4.45 11.8 -4.2 L12.8 -4.05 Q8.7 -2.55 7.05 -4.35 L7.0 -4.4 6.6 -4.9 Q5.7 -6.05 5.2 -7.75 L5.0 -8.85 Q4.55 -12.15 6.15 -18.5 0.3 -13.9 -1.25 -8.85 L-1.75 -6.7 M-5.85 -1.2 L-7.8 -0.8 Q-9.3 -3.9 -9.45 -8.85 L-9.3 -14.45 Q-11.15 -11.5 -12.05 -8.85 -13.45 -4.75 -12.6 -1.5 L-14.75 -1.1 Q-15.9 -4.9 -14.15 -8.85 -12.9 -11.85 -9.95 -14.9 L-8.15 -16.95 -8.25 -14.2 Q-8.4 -11.3 -8.15 -8.85 -7.7 -4.35 -5.85 -1.2 M21.4 -3.7 Q20.85 -3.0 18.15 -2.45 L18.65 -3.3 Q20.75 -6.6 23.65 -8.85 29.35 -13.35 38.2 -13.9 L41.4 -14.25 44.25 -14.5 44.3 -14.3 42.15 -12.5 40.4 -10.8 40.35 -10.75 38.55 -8.85 Q33.05 -2.6 33.55 1.65 34.1 6.45 32.8 5.5 L32.75 5.65 32.8 5.5 32.8 5.1 Q31.95 -2.25 37.0 -8.85 38.65 -10.95 40.85 -12.95 L41.85 -13.4 41.25 -13.3 41.65 -13.65 40.9 -13.25 Q32.75 -11.9 27.45 -8.85 23.7 -6.7 21.4 -3.7 M40.5 5.7 L38.85 7.55 Q41.0 1.15 52.55 -3.15 L55.2 -4.15 55.35 -3.95 53.75 -1.6 Q47.7 7.05 46.45 11.0 L46.65 11.95 46.45 11.0 Q46.1 9.8 46.45 8.2 47.1 4.95 53.55 -2.85 43.8 2.65 40.5 5.7 M23.4 3.95 Q31.65 5.9 39.25 10.05 L39.85 10.4 23.4 3.95" fill="#693f1f" fill-rule="evenodd" stroke="none"/>
    <path d="M-15.9 -0.85 L-18.05 -3.7 Q-19.5 -5.9 -20.45 -8.45 L-20.45 -8.4 -20.6 -8.85 -21.1 -10.55 -21.6 -13.35 -21.75 -16.5 Q-17.9 -10.35 -15.65 -10.15 -19.9 -12.3 -16.0 -22.0 -14.9 -20.1 -12.95 -19.25 L-11.65 -18.7 -11.55 -20.15 Q-11.4 -22.7 -10.5 -25.8 -9.8 -18.65 -4.5 -12.5 -6.5 -18.55 -5.15 -22.55 -3.95 -18.4 -2.1 -17.7 L-1.35 -17.3 0.0 -16.8 0.0 -18.2 Q0.05 -21.35 0.8 -24.35 L1.35 -26.5 Q7.65 -32.75 11.65 -14.1 L11.65 -22.85 Q13.9 -20.0 17.65 -18.3 L18.75 -17.75 19.05 -18.95 Q20.2 -23.65 23.2 -27.6 L23.7 -28.2 Q32.2 -27.8 24.8 -12.65 28.5 -15.45 32.3 -21.8 L32.8 -18.85 32.95 -18.05 33.75 -18.05 Q38.15 -18.05 42.55 -19.3 L45.15 -20.15 Q53.15 -19.1 44.95 -8.85 L44.5 -8.3 44.95 -8.85 Q48.2 -12.5 49.55 -13.4 L47.95 -8.85 47.85 -8.6 47.25 -7.1 48.85 -7.25 Q54.2 -7.65 58.45 -8.7 L58.95 -8.85 59.05 -8.85 Q63.45 -3.85 55.25 6.0 61.05 1.4 64.25 -0.15 63.3 1.85 61.75 3.6 L59.9 5.75 59.95 5.8 62.7 5.25 69.55 5.05 70.2 5.2 Q72.55 11.6 62.2 14.85 L68.05 14.85 62.5 19.2 64.9 19.5 Q67.7 19.8 70.2 21.0 59.25 31.75 63.8 29.8 61.8 31.8 60.3 34.25 58.45 35.2 59.6 33.1 60.1 32.05 58.7 30.4 54.85 22.35 56.2 18.75 57.85 14.75 65.95 10.65 L68.5 9.35 68.3 8.6 65.5 8.75 Q54.55 9.15 48.35 13.7 L39.85 10.4 39.25 10.05 Q31.65 5.9 23.4 3.95 L22.65 3.7 Q21.75 3.0 20.55 2.55 16.65 1.0 11.85 -0.3 6.95 -1.7 3.95 -2.0 L3.9 -2.0 Q1.9 -2.3 0.7 -0.35 -2.9 -1.55 -5.85 -1.2 -7.7 -4.35 -8.15 -8.85 -8.4 -11.3 -8.25 -14.2 L-8.15 -16.95 -9.95 -14.9 Q-12.9 -11.85 -14.15 -8.85 -15.9 -4.9 -14.75 -1.1 L-15.9 -0.85 M5.2 -7.75 Q5.7 -6.05 6.6 -4.9 L7.0 -4.4 7.05 -4.35 Q8.7 -2.55 12.8 -4.05 L11.8 -4.2 Q9.75 -4.45 8.55 -5.65 L8.2 -6.1 Q7.4 -7.2 7.05 -8.85 6.2 -12.25 7.15 -17.85 L7.45 -19.7 5.75 -18.9 Q-1.75 -15.5 -2.3 -8.85 -2.5 -6.55 -1.85 -3.85 L-1.75 -6.7 Q-1.0 -8.2 0.0 -8.85 1.55 -10.0 3.65 -8.85 L5.2 -7.75 M32.75 5.65 L32.8 5.5 Q34.1 6.45 33.55 1.65 33.05 -2.6 38.55 -8.85 L40.35 -10.75 40.4 -10.8 42.15 -12.5 44.3 -14.3 44.25 -14.5 41.4 -14.25 38.2 -13.9 Q29.35 -13.35 23.65 -8.85 20.75 -6.6 18.65 -3.3 L18.15 -2.45 Q20.85 -3.0 21.4 -3.7 30.95 -8.15 29.7 -1.3 28.55 4.85 32.05 5.65 L32.75 5.65 M46.45 8.2 Q46.1 9.8 46.45 11.0 L46.65 11.95 46.45 11.0 Q47.7 7.05 53.75 -1.6 L55.35 -3.95 55.2 -4.15 52.55 -3.15 Q41.0 1.15 38.85 7.55 L40.5 5.7 Q44.45 4.3 46.45 8.2" fill="#a55f34" fill-rule="evenodd" stroke="none"/>
    <path d="M-21.75 -16.5 L-21.75 -17.2 -21.75 -17.25 -21.75 -17.5 -21.7 -17.55 -21.75 -17.6 -21.7 -17.7 -21.7 -17.75 -21.7 -17.8 Q-21.25 -24.0 -16.75 -31.0 -17.55 -25.05 -16.4 -22.75 L-16.0 -22.0 Q-19.9 -12.3 -15.65 -10.15 -17.9 -10.35 -21.75 -16.5 M-10.5 -25.8 L-9.65 -28.4 -6.25 -38.0 Q-6.5 -27.8 -5.45 -23.75 L-5.4 -23.55 -5.2 -22.75 -5.15 -22.55 Q-6.5 -18.55 -4.5 -12.5 -9.8 -18.65 -10.5 -25.8 M1.35 -26.5 Q2.15 -28.95 3.4 -31.2 5.5 -35.15 9.5 -40.1 8.45 -37.15 8.35 -35.9 7.8 -28.7 10.8 -24.05 L11.35 -23.2 11.4 -23.25 11.65 -22.85 11.65 -14.1 Q7.65 -32.75 1.35 -26.5 M23.7 -28.2 Q27.2 -32.55 34.5 -38.0 31.5 -29.55 32.15 -23.1 L32.3 -21.8 Q28.5 -15.45 24.8 -12.65 32.2 -27.8 23.7 -28.2 M45.15 -20.15 Q48.4 -21.35 51.65 -23.15 51.25 -18.9 49.6 -13.6 L49.55 -13.4 Q48.2 -12.5 44.95 -8.85 L44.5 -8.3 44.95 -8.85 Q53.15 -19.1 45.15 -20.15 M59.05 -8.85 Q62.85 -9.95 66.7 -13.35 L66.45 -8.85 Q65.95 -4.25 64.7 -1.05 L64.25 -0.15 Q61.05 1.4 55.25 6.0 63.45 -3.85 59.05 -8.85 M70.2 5.2 Q73.55 5.95 76.25 8.4 L68.05 14.85 62.2 14.85 Q72.55 11.6 70.2 5.2 M70.2 21.0 L70.5 21.15 70.55 21.15 73.95 23.25 Q70.05 24.5 67.35 26.6 65.4 28.05 63.8 29.8 59.25 31.75 70.2 21.0 M58.7 30.4 Q53.6 29.45 47.75 16.8 L47.9 16.65 48.3 15.95 Q48.85 15.0 49.7 14.2 53.95 10.25 65.25 9.4 55.6 14.55 54.3 18.0 52.4 22.55 58.7 30.4 M-1.75 -6.7 L-1.25 -8.85 Q0.3 -13.9 6.15 -18.5 4.55 -12.15 5.0 -8.85 L5.2 -7.75 3.65 -8.85 Q1.55 -10.0 0.0 -8.85 -1.0 -8.2 -1.75 -6.7 M-7.8 -0.8 L-8.85 -0.4 Q-10.05 -1.9 -11.7 -1.6 L-12.6 -1.5 Q-13.45 -4.75 -12.05 -8.85 -11.15 -11.5 -9.3 -14.45 L-9.45 -8.85 Q-9.3 -3.9 -7.8 -0.8 M21.4 -3.7 Q23.7 -6.7 27.45 -8.85 32.75 -11.9 40.9 -13.25 L41.65 -13.65 41.25 -13.3 41.85 -13.4 40.85 -12.95 Q38.65 -10.95 37.0 -8.85 31.95 -2.25 32.8 5.1 L32.8 5.5 32.75 5.65 32.05 5.65 Q28.55 4.85 29.7 -1.3 30.95 -8.15 21.4 -3.7 M40.5 5.7 Q43.8 2.65 53.55 -2.85 47.1 4.95 46.45 8.2 44.45 4.3 40.5 5.7" fill="#e0ac3f" fill-rule="evenodd" stroke="none"/>
    <path d="M-24.3 1.4 L-22.2 0.8 -19.6 0.1 -18.1 -0.3 -15.9 -0.85 -14.75 -1.1 -12.6 -1.5 -11.7 -1.6 Q-10.05 -1.9 -8.85 -0.4 L-7.8 -0.8 -5.85 -1.2 Q-2.9 -1.55 0.7 -0.35 1.9 -2.3 3.9 -2.0 L3.95 -2.0 Q6.95 -1.7 11.85 -0.3 16.65 1.0 20.55 2.55 21.75 3.0 22.65 3.7 L23.4 3.95 39.85 10.4 48.35 13.7 46.55 15.2 46.4 15.3 42.45 14.2 Q33.5 11.8 24.5 11.3 23.55 13.65 20.95 15.5 L20.95 15.45 Q17.1 18.25 11.7 18.25 6.3 18.25 2.5 15.45 L2.5 15.5 Q-1.6 12.7 -0.85 5.3 L-0.85 5.15 -7.0 5.3 -6.95 5.65 -6.95 5.7 Q-6.25 13.1 -10.3 15.9 L-10.3 15.85 Q-14.15 18.65 -19.55 18.65 L-23.15 18.25 Q-26.1 17.55 -27.85 15.55 -30.7 12.45 -30.3 7.85 -29.9 2.85 -26.8 2.1 L-24.3 1.4 M8.1 15.85 L11.7 16.25 Q16.4 16.25 19.8 13.85 22.15 12.15 22.8 10.0 L22.8 9.9 22.95 8.4 Q22.95 7.6 22.2 6.75 L21.2 5.9 19.5 5.2 18.6 4.75 17.25 4.15 Q15.45 3.35 12.45 2.35 L10.6 1.75 Q4.85 -0.15 3.7 0.0 2.65 -0.05 2.05 1.3 L2.1 1.25 1.85 1.95 1.35 3.95 1.25 4.65 1.25 4.7 1.25 4.8 1.25 4.85 1.15 5.4 1.15 5.5 Q0.5 11.5 3.65 13.85 5.6 15.3 8.1 15.85 M24.7 6.6 L24.95 8.5 24.9 9.3 34.35 10.4 24.7 6.6 M-21.55 16.55 L-19.55 16.65 Q-14.85 16.65 -11.45 14.25 -8.35 11.9 -8.95 5.9 L-8.9 6.0 -9.1 4.9 -9.4 3.1 -10.05 1.35 -10.3 1.0 Q-10.8 0.4 -11.45 0.4 L-11.85 0.55 -14.15 1.25 -14.5 1.35 -18.3 2.5 -20.4 3.15 -22.4 3.75 -25.7 4.75 Q-27.8 5.35 -28.2 8.55 -28.6 11.7 -26.35 14.2 -24.6 16.05 -21.55 16.55 M-0.15 1.45 Q-2.45 0.7 -4.45 0.7 L-6.8 1.0 -7.6 1.25 -7.85 1.35 Q-4.25 1.65 -0.55 3.1 L-0.25 1.85 -0.15 1.45" fill="#000000" fill-rule="evenodd" stroke="none"/>
    <path d="M17.25 4.15 L18.6 4.75 19.5 5.2 21.2 5.9 22.2 6.75 Q22.95 7.6 22.95 8.4 L22.8 9.9 22.8 10.0 Q22.15 12.15 19.8 13.85 16.4 16.25 11.7 16.25 L8.1 15.85 Q6.95 10.3 16.25 4.7 L17.25 4.15 M24.7 6.6 L34.35 10.4 24.9 9.3 24.95 8.5 24.7 6.6 M-0.15 1.45 L-0.25 1.85 -0.55 3.1 Q-4.25 1.65 -7.85 1.35 L-7.6 1.25 -6.8 1.0 -4.45 0.7 Q-2.45 0.7 -0.15 1.45 M-14.5 1.35 L-14.15 1.25 -11.85 0.55 -11.45 0.4 Q-10.8 0.4 -10.3 1.0 L-10.05 1.35 -9.4 3.1 -9.1 4.9 -8.9 6.0 -8.95 5.9 Q-8.35 11.9 -11.45 14.25 -14.85 16.65 -19.55 16.65 L-21.55 16.55 Q-22.65 12.5 -19.8 7.75 -18.55 5.6 -16.4 3.3 L-15.55 2.4 -14.5 1.35" fill="#333333" fill-rule="evenodd" stroke="none"/>
    <path d="M8.1 15.85 Q5.6 15.3 3.65 13.85 0.5 11.5 1.15 5.5 L1.15 5.4 1.25 4.85 1.25 4.8 1.25 4.7 1.25 4.65 1.35 3.95 1.85 1.95 2.1 1.25 2.05 1.3 Q2.65 -0.05 3.7 0.0 4.85 -0.15 10.6 1.75 L12.45 2.35 Q15.45 3.35 17.25 4.15 L16.25 4.7 Q6.95 10.3 8.1 15.85 M-21.55 16.55 Q-24.6 16.05 -26.35 14.2 -28.6 11.7 -28.2 8.55 -27.8 5.35 -25.7 4.75 L-22.4 3.75 -20.4 3.15 -18.3 2.5 -14.5 1.35 -15.55 2.4 -16.4 3.3 Q-18.55 5.6 -19.8 7.75 -22.65 12.5 -21.55 16.55" fill="#414141" fill-rule="evenodd" stroke="none"/>
    <path d="M-22.2 0.8 Q-25.3 -2.9 -28.7 -4.6 L-28.65 -4.55 -30.1 -5.2 -30.05 -5.2 -32.8 -6.0 Q-33.9 -7.3 -33.25 -8.85 -32.6 -10.45 -30.05 -12.3 -28.8 -12.8 -27.55 -12.9 L-27.5 -12.9 Q-25.5 -13.0 -23.45 -12.05 L-22.7 -8.85 -22.35 -7.75 Q-20.85 -3.65 -18.1 -0.3 L-19.6 0.1 -22.2 0.8" fill="#854b29" fill-rule="evenodd" stroke="none"/>
    <path d="M-21.75 -17.5 L-21.75 -17.6 -21.7 -17.55 -21.75 -17.5" fill="#ff0000" fill-rule="evenodd" stroke="none"/>
    <path d="M-32.8 -6.0 Q-35.2 -6.4 -37.75 -5.95 L-35.15 -8.85 Q-32.6 -11.35 -30.05 -12.3 -32.6 -10.45 -33.25 -8.85 -33.9 -7.3 -32.8 -6.0" fill="#c08c1f" fill-rule="evenodd" stroke="none"/>
  </g>
</svg>
