<?xml version="1.0" encoding="UTF-8" standalone="no"?>
<svg xmlns:ffdec="https://www.free-decompiler.com/flash" xmlns:xlink="http://www.w3.org/1999/xlink" ffdec:objectType="shape" height="88.5px" width="88.5px" xmlns="http://www.w3.org/2000/svg">
  <g transform="matrix(1.0, 0.0, 0.0, 1.0, 29.9, 66.5)">
    <path d="M-13.45 -54.1 Q-6.1 -57.55 2.8 -57.55 18.55 -57.55 29.75 -46.65 40.9 -35.7 40.9 -20.2 40.9 -4.75 29.75 6.2 18.55 17.1 2.8 17.1 L-2.05 16.85 -5.0 15.45 Q-10.7 12.45 -15.55 7.6 -27.95 -4.75 -27.9 -22.25 -27.9 -37.0 -19.15 -48.1 L-15.95 -51.75 -15.85 -51.85 -15.8 -51.95 -15.5 -52.15 -14.0 -53.65 -13.95 -53.65 -13.45 -54.1" fill="#ecb17d" fill-rule="evenodd" stroke="none"/>
    <path d="M-2.05 16.85 L2.8 17.1 Q18.55 17.1 29.75 6.2 40.9 -4.75 40.9 -20.2 40.9 -35.7 29.75 -46.65 18.55 -57.55 2.8 -57.55 -6.1 -57.55 -13.45 -54.1 L-12.65 -54.8 Q-3.0 -61.25 9.4 -61.25 26.2 -61.25 38.1 -49.4 49.95 -37.5 49.95 -20.7 49.95 -3.9 38.1 7.95 26.5 19.55 10.15 19.85 L9.45 19.75 Q5.2 19.25 1.35 18.1 L-2.05 16.85" fill="#eaa76a" fill-rule="evenodd" stroke="none"/>
    <path d="M10.15 19.85 Q26.5 19.55 38.1 7.95 49.95 -3.9 49.95 -20.7 49.95 -37.5 38.1 -49.4 26.2 -61.25 9.4 -61.25 -3.0 -61.25 -12.65 -54.8 -1.2 -64.55 14.35 -64.5 31.85 -64.55 44.2 -52.15 56.6 -39.75 56.6 -22.25 56.6 -4.75 44.2 7.6 31.85 20.0 14.35 20.0 L10.15 19.85" fill="#e7964e" fill-rule="evenodd" stroke="none"/>
    <path d="M14.35 -66.5 Q32.65 -66.55 45.6 -53.55 58.6 -40.55 58.6 -22.25 58.6 -3.95 45.6 9.0 32.65 22.0 14.35 22.0 L9.2 21.75 Q4.8 21.25 0.75 20.0 -2.75 18.85 -5.95 17.2 -11.9 14.05 -16.95 9.0 -29.95 -3.95 -29.9 -22.25 -29.9 -37.7 -20.7 -49.35 L-17.4 -53.15 -17.25 -53.3 -17.05 -53.5 -17.0 -53.55 -16.85 -53.65 -16.8 -53.7 -15.3 -55.15 Q-2.85 -66.55 14.35 -66.5 M-13.45 -54.1 L-13.95 -53.65 -14.0 -53.65 -15.5 -52.15 -15.8 -51.95 -15.85 -51.85 -15.95 -51.75 -19.15 -48.1 Q-27.9 -37.0 -27.9 -22.25 -27.95 -4.75 -15.55 7.6 -10.7 12.45 -5.0 15.45 L-2.05 16.85 1.35 18.1 Q5.2 19.25 9.45 19.75 L10.15 19.85 14.35 20.0 Q31.85 20.0 44.2 7.6 56.6 -4.75 56.6 -22.25 56.6 -39.75 44.2 -52.15 31.85 -64.55 14.35 -64.5 -1.2 -64.55 -12.65 -54.8 L-13.45 -54.1" fill="#6c3d28" fill-rule="evenodd" stroke="none"/>
  </g>
</svg>
