<?xml version="1.0" encoding="UTF-8" standalone="no"?>
<svg xmlns:ffdec="https://www.free-decompiler.com/flash" xmlns:xlink="http://www.w3.org/1999/xlink" ffdec:objectType="shape" height="30.85px" width="41.2px" xmlns="http://www.w3.org/2000/svg">
  <g transform="matrix(1.0, 0.0, 0.0, 1.0, 10.55, 17.1)">
    <path d="M-2.95 0.7 Q-2.1 1.35 -1.1 2.55 L-0.9 2.55 Q1.05 3.4 5.95 3.4 10.5 3.4 16.1 1.75 19.5 0.7 22.25 -1.1 23.5 -1.95 26.35 -4.7 27.65 -5.55 28.6 -6.95 L28.2 -12.45 28.1 -13.25 Q21.1 -1.85 7.5 0.5 L7.45 0.5 Q2.15 1.35 -2.95 0.65 L-4.3 0.45 -8.1 -0.4 Q-6.75 1.15 -5.7 2.95 L-5.65 2.95 Q-1.45 10.2 5.7 11.45 L5.7 11.4 Q14.45 12.7 21.0 8.85 L22.0 8.25 21.75 8.4 21.7 8.1 21.7 6.85 Q21.55 -0.45 28.05 -0.45 L28.5 -0.4 28.65 -5.25 Q27.2 -3.15 23.7 -0.7 16.25 4.55 5.6 4.55 1.6 4.55 -0.5 3.7 L-1.0 3.85 -6.1 0.1 -4.3 0.5 -2.95 0.7 M27.6 -16.45 Q27.8 -16.8 28.2 -16.95 L28.55 -17.0 28.6 -17.0 28.75 -17.1 30.2 -10.35 Q31.05 -5.15 30.25 2.35 L30.0 2.95 29.8 3.35 Q20.75 15.65 5.4 13.4 -2.65 12.1 -7.4 3.95 -9.45 -0.7 -10.55 -2.55 L-10.15 -2.9 -9.4 -2.95 Q-1.4 -0.15 7.15 -1.45 21.1 -3.85 27.6 -16.45 M28.35 1.2 L28.4 0.7 Q25.1 0.55 24.1 1.85 L23.3 4.4 Q22.9 5.25 22.65 7.8 25.7 5.55 28.2 2.15 L28.25 2.1 28.35 1.2" fill="#463624" fill-rule="evenodd" stroke="none"/>
    <path d="M-2.95 0.65 Q2.15 1.35 7.45 0.5 L7.5 0.5 Q21.1 -1.85 28.1 -13.25 L28.2 -12.45 28.6 -6.95 Q27.65 -5.55 26.35 -4.7 23.5 -1.95 22.25 -1.1 19.5 0.7 16.1 1.75 10.5 3.4 5.95 3.4 1.05 3.4 -0.9 2.55 L-1.1 2.55 Q-2.1 1.35 -2.95 0.7 L-2.95 0.65" fill="#e5e5e5" fill-rule="evenodd" stroke="none"/>
    <path d="M-2.95 0.7 L-4.3 0.5 -6.1 0.1 -1.0 3.85 -0.5 3.7 Q1.6 4.55 5.6 4.55 16.25 4.55 23.7 -0.7 27.2 -3.15 28.65 -5.25 L28.5 -0.4 28.05 -0.45 Q21.55 -0.45 21.7 6.85 L21.7 8.1 21.75 8.4 22.0 8.25 21.0 8.85 Q14.45 12.7 5.7 11.4 L5.7 11.45 Q-1.45 10.2 -5.65 2.95 L-5.7 2.95 Q-6.75 1.15 -8.1 -0.4 L-4.3 0.45 -2.95 0.65 -2.95 0.7" fill="#57352d" fill-rule="evenodd" stroke="none"/>
    <path d="M28.35 1.2 L28.25 2.1 28.2 2.15 Q25.7 5.55 22.65 7.8 22.9 5.25 23.3 4.4 L24.1 1.85 Q25.1 0.55 28.4 0.7 L28.35 1.2" fill="#b45f50" fill-rule="evenodd" stroke="none"/>
  </g>
</svg>
