<?xml version="1.0" encoding="UTF-8" standalone="no"?>
<svg xmlns:ffdec="https://www.free-decompiler.com/flash" xmlns:xlink="http://www.w3.org/1999/xlink" ffdec:objectType="shape" height="30.85px" width="41.2px" xmlns="http://www.w3.org/2000/svg">
  <g transform="matrix(1.0, 0.0, 0.0, 1.0, 10.55, 17.1)">
    <path d="M-10.55 -2.55 L-10.15 -2.9 -9.4 -2.95 Q-1.4 -0.15 7.15 -1.45 21.1 -3.85 27.6 -16.45 27.8 -16.8 28.2 -16.95 L28.55 -17.0 28.6 -17.0 28.75 -17.1 30.2 -10.35 Q31.05 -5.15 30.25 2.35 L30.0 2.95 29.8 3.35 Q20.75 15.65 5.4 13.4 -2.65 12.1 -7.4 3.95 -9.45 -0.7 -10.55 -2.55 M28.6 -7.05 L28.2 -12.45 28.1 -13.25 Q21.1 -1.85 7.5 0.5 L7.45 0.5 Q2.2 1.35 -2.85 0.65 L-3.6 0.5 -3.9 0.55 -4.3 0.45 -8.1 -0.4 -6.95 1.0 -6.4 1.85 -5.7 2.95 -5.65 2.95 -5.6 3.05 -4.9 4.2 -4.9 4.15 -4.7 4.1 -0.65 6.8 2.1 6.1 2.5 6.0 4.6 5.55 4.75 5.5 5.65 5.5 5.75 5.75 5.7 6.0 5.65 6.0 Q3.95 6.35 0.7 7.55 L0.2 9.05 0.2 9.15 0.15 9.3 Q1.15 9.95 2.3 10.45 3.9 11.1 5.7 11.45 L5.7 11.4 Q14.45 12.7 21.0 8.85 L21.45 8.6 21.75 8.4 25.55 5.2 26.15 4.6 28.2 2.15 28.25 2.1 28.25 2.05 28.5 2.05 28.55 1.25 Q27.6 0.45 27.05 0.45 24.8 0.45 23.05 1.25 L23.0 1.3 22.95 1.3 22.4 1.65 21.35 2.2 21.3 2.2 21.2 2.2 20.7 2.2 20.6 2.0 Q20.6 1.6 22.0 0.95 L22.45 0.75 22.5 0.75 23.0 0.55 23.95 0.2 24.05 0.15 24.2 0.1 Q27.15 -0.9 27.35 -1.15 28.1 -2.25 28.65 -3.9 L28.65 -3.15 28.7 -3.95 28.7 -4.0 28.65 -6.15 28.55 -6.85 28.6 -6.95 28.6 -7.05 M21.45 8.6 L20.75 9.15 21.45 8.6 M0.0 9.2 L-0.85 8.6 -0.9 8.15 Q-0.9 7.9 -2.7 6.7 L-3.3 6.3 -3.15 6.5 -1.45 8.1 0.0 9.2" fill="#463624" fill-rule="evenodd" stroke="none"/>
    <path d="M-4.9 4.2 L-5.6 3.05 -5.65 2.95 -5.7 2.95 -6.4 1.85 -6.95 1.0 -8.1 -0.4 -4.3 0.45 -3.9 0.55 -3.6 0.5 -2.85 0.65 Q2.2 1.35 7.45 0.5 L7.5 0.5 Q21.1 -1.85 28.1 -13.25 L28.2 -12.45 28.6 -7.05 28.55 -7.0 28.45 -6.85 28.55 -6.85 28.65 -6.15 28.7 -4.0 28.7 -3.95 28.65 -3.9 Q28.1 -2.25 27.35 -1.15 27.15 -0.9 24.2 0.1 L24.05 0.15 23.95 0.2 23.0 0.55 22.5 0.75 22.45 0.75 22.25 0.75 22.0 0.95 Q20.6 1.6 20.6 2.0 L20.7 2.2 21.2 2.2 21.3 2.2 21.35 2.2 22.4 1.65 22.95 1.3 23.0 1.3 23.05 1.3 23.05 1.25 Q24.8 0.45 27.05 0.45 27.6 0.45 28.55 1.25 L28.5 2.05 28.25 2.05 28.25 2.1 28.2 2.15 26.15 4.6 25.55 5.2 Q25.35 1.95 22.75 1.95 L20.3 2.65 20.05 2.6 19.95 2.3 Q19.95 1.6 24.0 -1.45 24.5 -1.85 24.95 -3.05 L21.75 -1.2 Q17.0 0.85 15.2 1.3 8.85 2.8 5.1 2.8 L-3.4 2.05 -6.15 1.25 Q-2.6 5.55 2.7 5.55 L7.0 5.3 9.55 5.4 9.6 5.65 Q8.45 6.4 4.8 7.95 3.4 8.85 2.9 10.65 L2.3 10.45 Q1.15 9.95 0.15 9.3 L0.2 9.15 0.2 9.1 0.2 9.05 0.7 7.55 Q3.95 6.35 5.65 6.0 L5.7 6.0 5.75 5.75 5.65 5.5 4.75 5.5 4.6 5.55 2.5 6.0 2.1 6.1 -0.65 6.8 -4.7 4.1 -4.9 4.15 -4.9 4.2" fill="#e5e5e5" fill-rule="evenodd" stroke="none"/>
    <path d="M28.6 -7.05 L28.6 -6.95 28.55 -6.85 28.45 -6.85 28.55 -7.0 28.6 -7.05 M22.45 0.75 L22.0 0.95 22.25 0.75 22.45 0.75 M23.0 1.3 L23.05 1.25 23.05 1.3 23.0 1.3 M25.55 5.2 L21.75 8.4 21.45 8.6 21.0 8.85 Q14.45 12.7 5.7 11.4 L5.7 11.45 Q3.9 11.1 2.3 10.45 L2.9 10.65 Q3.4 8.85 4.8 7.95 8.45 6.4 9.6 5.65 L9.55 5.4 7.0 5.3 2.7 5.55 Q-2.6 5.55 -6.15 1.25 L-3.4 2.05 5.1 2.8 Q8.85 2.8 15.2 1.3 17.0 0.85 21.75 -1.2 L24.95 -3.05 Q24.5 -1.85 24.0 -1.45 19.95 1.6 19.95 2.3 L20.05 2.6 20.3 2.65 22.75 1.95 Q25.35 1.95 25.55 5.2" fill="#f9f9f9" fill-rule="evenodd" stroke="none"/>
    <path d="M0.2 9.15 L0.2 9.05 0.2 9.1 0.2 9.15 M0.0 9.2 L-1.45 8.1 -3.15 6.5 -3.3 6.3 -2.7 6.7 Q-0.9 7.9 -0.9 8.15 L-0.85 8.6 0.0 9.2" fill="#57352d" fill-rule="evenodd" stroke="none"/>
  </g>
</svg>
