<?xml version="1.0" encoding="UTF-8" standalone="no"?>
<svg xmlns:ffdec="https://www.free-decompiler.com/flash" xmlns:xlink="http://www.w3.org/1999/xlink" ffdec:objectType="shape" height="7.85px" width="23.45px" xmlns="http://www.w3.org/2000/svg">
  <g transform="matrix(1.0, 0.0, 0.0, 1.0, 1.05, -0.15)">
    <path d="M20.35 7.25 L15.2 6.65 8.9 6.0 Q5.75 6.0 3.15 7.0 0.55 8.0 -0.1 8.0 L-0.55 7.9 -0.75 7.4 Q-0.75 6.75 3.05 5.85 L3.45 5.75 Q2.5 4.85 2.5 2.7 L-0.9 4.0 Q-1.05 4.4 -1.05 3.75 -1.05 3.0 3.15 2.0 L2.7 2.1 Q3.2 1.55 4.95 1.3 L9.35 0.85 12.4 0.55 15.25 0.25 17.0 0.15 19.75 0.45 Q22.5 1.15 22.4 4.5 22.4 7.25 20.35 7.25 M21.5 4.55 Q21.5 3.35 21.05 2.6 20.35 3.2 18.8 3.2 16.85 3.15 16.25 3.6 15.2 4.3 15.15 5.0 15.1 5.35 14.3 5.35 L14.25 5.4 15.0 5.55 20.9 6.15 Q21.5 6.15 21.5 4.55 M20.3 1.85 L20.65 2.1 20.35 1.85 19.9 1.6 19.6 1.65 17.05 1.4 Q6.55 1.4 3.7 2.75 4.25 3.85 4.25 4.65 L4.25 5.6 Q7.25 4.9 9.4 4.9 L12.9 5.2 Q13.0 4.05 14.75 2.9 16.7 1.65 19.25 1.65 L20.3 1.85" fill="#463624" fill-rule="evenodd" stroke="none"/>
    <path d="M21.5 4.55 Q21.5 6.15 20.9 6.15 L15.0 5.55 14.25 5.4 14.3 5.35 Q15.1 5.35 15.15 5.0 15.2 4.3 16.25 3.6 16.85 3.15 18.8 3.2 20.35 3.2 21.05 2.6 21.5 3.35 21.5 4.55" fill="#b45f50" fill-rule="evenodd" stroke="none"/>
    <path d="M20.35 1.85 L20.3 1.85 19.25 1.65 Q16.7 1.65 14.75 2.9 13.0 4.05 12.9 5.2 L9.4 4.9 Q7.25 4.9 4.25 5.6 L4.25 4.65 Q4.25 3.85 3.7 2.75 6.55 1.4 17.05 1.4 L19.6 1.65 19.9 1.6 20.35 1.85" fill="#57352d" fill-rule="evenodd" stroke="none"/>
  </g>
</svg>
