<?xml version="1.0" encoding="UTF-8" standalone="no"?>
<svg xmlns:ffdec="https://www.free-decompiler.com/flash" xmlns:xlink="http://www.w3.org/1999/xlink" ffdec:objectType="shape" height="166.3px" width="88.15px" xmlns="http://www.w3.org/2000/svg">
  <g transform="matrix(1.0, 0.0, 0.0, 1.0, 38.95, 132.95)">
    <path d="M-35.25 -30.15 L-34.95 -29.9 -35.2 -29.85 -35.25 -30.15" fill="#8d6632" fill-rule="evenodd" stroke="none"/>
    <path d="M-1.85 -0.25 L-1.85 -0.2 -1.9 -0.25 -1.85 -0.25" fill="#385a92" fill-rule="evenodd" stroke="none"/>
    <path d="M-34.95 -29.9 Q-33.3 -28.7 -30.5 -27.55 L-30.6 -24.7 Q-33.45 -26.3 -34.55 -28.1 L-35.2 -29.85 -34.95 -29.9 M-12.55 -22.7 L5.2 -21.95 10.6 -22.1 10.8 -18.0 5.05 -17.9 -12.65 -19.1 -12.55 -22.7 M18.85 -22.65 Q26.35 -23.5 32.0 -25.1 L37.35 -26.8 38.15 -21.95 37.4 -21.7 35.45 -21.2 35.2 -21.15 Q27.85 -19.4 19.1 -18.55 L18.85 -22.65 M43.35 -29.65 L44.85 -30.75 45.25 -31.15 45.35 -30.7 Q45.95 -28.25 44.7 -26.2 L44.2 -25.45 43.35 -29.65" fill="#666666" fill-rule="evenodd" stroke="none"/>
    <path d="M-1.85 -0.2 Q10.8 2.35 23.55 -2.5 L23.65 -1.5 23.7 1.25 Q16.35 8.1 7.75 9.65 15.55 10.45 23.15 5.0 21.6 9.55 17.45 12.7 10.1 17.9 -0.55 17.95 -11.4 17.9 -18.65 12.7 -26.0 7.65 -30.45 -1.15 -34.8 -9.8 -30.5 -12.3 -26.5 -15.1 -12.25 -10.7 2.0 -6.4 12.45 -8.4 19.0 -9.7 21.75 -6.55 12.75 -1.1 -1.85 -0.25 L-1.9 -0.25 -1.85 -0.2" fill="#a85c17" fill-rule="evenodd" stroke="none"/>
    <path d="M13.0 -22.15 L16.5 -22.45 17.0 -12.6 19.4 -12.6 19.2 -16.1 Q28.2 -17.0 35.85 -18.8 L36.2 -18.45 37.2 -18.25 37.9 -18.7 38.1 -19.45 38.55 -19.55 39.25 -15.8 41.65 -15.95 39.55 -27.7 Q40.3 -28.2 41.2 -28.45 L43.3 -17.6 45.65 -17.75 44.75 -22.55 Q45.05 -23.0 45.5 -23.15 L46.5 -17.3 Q48.4 1.4 37.0 15.55 L32.8 20.1 32.3 19.45 31.35 19.35 Q30.7 19.4 30.5 20.0 L28.9 23.25 Q19.0 30.4 6.1 30.4 -12.75 30.4 -25.5 15.55 -37.65 1.4 -36.4 -17.3 -36.25 -21.5 -35.35 -25.15 -33.7 -23.6 -30.8 -21.95 L-30.85 -20.2 Q-22.7 -15.5 -12.65 -15.55 L-12.65 -16.75 5.1 -15.55 10.9 -15.65 10.95 -12.6 13.35 -12.6 13.0 -22.15 M37.45 -16.95 Q36.8 -17.05 36.6 -16.5 36.25 -16.25 36.45 -15.65 L36.9 -12.15 Q36.85 -11.75 37.4 -11.35 37.65 -11.1 38.3 -11.0 38.65 -11.1 39.05 -11.35 L39.35 -12.15 38.8 -15.9 38.3 -16.7 Q37.85 -17.15 37.45 -16.95 M-1.85 -0.25 Q12.75 -1.1 21.75 -6.55 19.0 -9.7 12.45 -8.4 2.0 -6.4 -12.25 -10.7 -26.5 -15.1 -30.5 -12.3 -34.8 -9.8 -30.45 -1.15 -26.0 7.65 -18.65 12.7 -11.4 17.9 -0.55 17.95 10.1 17.9 17.45 12.7 21.6 9.55 23.15 5.0 15.55 10.45 7.75 9.65 16.35 8.1 23.7 1.25 L23.65 -1.5 23.55 -2.5 Q10.8 2.35 -1.85 -0.2 L-1.85 -0.25 M38.35 -9.75 Q37.8 -9.95 37.5 -9.45 37.05 -9.2 37.2 -8.7 L37.1 -5.05 Q36.9 -4.6 37.45 -4.15 37.7 -3.85 38.25 -3.6 L39.2 -3.85 39.65 -4.75 39.6 -8.55 39.2 -9.35 Q38.8 -9.85 38.35 -9.75 M37.25 -2.2 Q36.75 -2.0 36.75 -1.35 L36.2 2.2 Q36.05 2.65 36.45 3.2 L37.25 3.9 38.25 3.65 38.65 2.85 39.3 -0.85 38.95 -1.85 38.2 -2.35 37.25 -2.2 M36.15 5.05 Q35.6 5.2 35.55 5.85 L34.55 9.4 Q34.4 9.9 34.65 10.45 L35.45 11.15 36.45 11.15 36.95 10.4 38.0 6.7 37.9 5.7 Q37.5 5.1 37.05 5.0 L36.15 5.05 M34.15 12.2 Q33.6 12.4 33.4 13.0 32.65 14.65 32.1 16.6 31.75 16.95 32.1 17.55 L32.75 18.35 33.7 18.45 34.45 17.85 35.85 14.05 35.75 13.05 35.05 12.2 Q34.45 12.0 34.15 12.2" fill="#7b4411" fill-rule="evenodd" stroke="none"/>
    <path d="M10.6 -22.1 L13.0 -22.15 13.35 -12.6 10.95 -12.6 10.9 -15.65 10.8 -18.0 10.6 -22.1 M16.5 -22.45 L18.85 -22.65 19.1 -18.55 19.2 -16.1 19.4 -12.6 17.0 -12.6 16.5 -22.45 M37.35 -26.8 Q38.5 -27.4 39.55 -27.7 L41.65 -15.95 39.25 -15.8 38.55 -19.55 38.15 -21.95 37.35 -26.8 M41.2 -28.45 L43.35 -29.65 44.2 -25.45 44.75 -22.55 45.65 -17.75 43.3 -17.6 41.2 -28.45 M35.85 -18.8 L36.2 -18.9 38.1 -19.45 37.9 -18.7 37.2 -18.25 36.2 -18.45 35.85 -18.8 M37.45 -16.95 Q37.85 -17.15 38.3 -16.7 L38.8 -15.9 39.35 -12.15 39.05 -11.35 Q38.65 -11.1 38.3 -11.0 37.65 -11.1 37.4 -11.35 36.85 -11.75 36.9 -12.15 L36.45 -15.65 Q36.25 -16.25 36.6 -16.5 36.8 -17.05 37.45 -16.95 M37.25 -2.2 L38.2 -2.35 38.95 -1.85 39.3 -0.85 38.65 2.85 38.25 3.65 37.25 3.9 36.45 3.2 Q36.05 2.65 36.2 2.2 L36.75 -1.35 Q36.75 -2.0 37.25 -2.2 M38.35 -9.75 Q38.8 -9.85 39.2 -9.35 L39.6 -8.55 39.65 -4.75 39.2 -3.85 38.25 -3.6 Q37.7 -3.85 37.45 -4.15 36.9 -4.6 37.1 -5.05 L37.2 -8.7 Q37.05 -9.2 37.5 -9.45 37.8 -9.95 38.35 -9.75 M47.4 -25.45 Q48.35 -21.65 48.9 -17.3 51.0 2.35 39.0 17.3 35.2 21.85 30.95 25.25 30.5 25.35 30.45 25.6 19.85 33.15 6.2 33.35 -14.0 33.1 -27.4 17.3 -40.15 2.35 -38.85 -17.3 -38.55 -22.75 -37.1 -27.6 -36.55 -26.4 -35.35 -25.15 -36.25 -21.5 -36.4 -17.3 -37.65 1.4 -25.5 15.55 -12.75 30.4 6.1 30.4 19.0 30.4 28.9 23.25 L30.5 20.0 Q30.7 19.4 31.35 19.35 L32.3 19.45 32.8 20.1 37.0 15.55 Q48.4 1.4 46.5 -17.3 L45.5 -23.15 47.4 -25.45 M34.15 12.2 Q34.45 12.0 35.05 12.2 L35.75 13.05 35.85 14.05 34.45 17.85 33.7 18.45 32.75 18.35 32.1 17.55 Q31.75 16.95 32.1 16.6 32.65 14.65 33.4 13.0 33.6 12.4 34.15 12.2 M36.15 5.05 L37.05 5.0 Q37.5 5.1 37.9 5.7 L38.0 6.7 36.95 10.4 36.45 11.15 35.45 11.15 34.65 10.45 Q34.4 9.9 34.55 9.4 L35.55 5.85 Q35.6 5.2 36.15 5.05" fill="#64321a" fill-rule="evenodd" stroke="none"/>
    <path d="M-37.35 -32.4 Q-36.7 -31.25 -35.25 -30.15 L-35.2 -29.85 -34.55 -28.1 Q-33.45 -26.3 -30.6 -24.7 L-30.8 -21.95 Q-33.7 -23.6 -35.35 -25.15 -36.55 -26.4 -37.1 -27.6 -37.9 -29.2 -37.6 -30.95 -37.65 -31.8 -37.35 -32.4 M45.25 -31.15 Q46.15 -32.3 46.65 -33.5 L47.65 -31.1 48.0 -29.3 Q48.2 -27.35 47.4 -25.45 L45.5 -23.15 Q45.05 -23.0 44.75 -22.55 L44.2 -25.45 44.7 -26.2 Q45.95 -28.25 45.35 -30.7 L45.25 -31.15 M10.8 -18.0 L10.9 -15.65 5.1 -15.55 -12.65 -16.75 -12.65 -19.1 5.05 -17.9 10.8 -18.0 M19.2 -16.1 L19.1 -18.55 Q27.85 -19.4 35.2 -21.15 L35.45 -21.2 37.4 -21.7 38.15 -21.95 38.55 -19.55 38.1 -19.45 36.2 -18.9 35.85 -18.8 Q28.2 -17.0 19.2 -16.1" fill="#484848" fill-rule="evenodd" stroke="none"/>
    <path d="M-30.5 -27.55 L-28.15 -26.55 -28.35 -21.95 Q-22.2 -17.4 -15.05 -18.65 L-14.95 -23.05 -12.55 -22.7 -12.65 -19.1 -12.65 -16.75 -12.65 -15.55 Q-22.7 -15.5 -30.85 -20.2 L-30.8 -21.95 -30.6 -24.7 -30.5 -27.55" fill="#7a592c" fill-rule="evenodd" stroke="none"/>
    <path d="M-28.15 -26.55 L-25.6 -25.8 -22.55 -24.95 -16.95 -23.5 -14.95 -23.05 -15.05 -18.65 Q-22.2 -17.4 -28.35 -21.95 L-28.15 -26.55" fill="#b38240" fill-rule="evenodd" stroke="none"/>
    <path d="M-21.65 -91.15 Q-19.9 -99.75 -18.7 -108.1 L-18.25 -111.05 -16.25 -94.8 -12.45 -94.8 Q-10.45 -104.3 -4.55 -113.0 0.6 -120.6 7.65 -120.8 13.4 -118.45 11.45 -115.6 9.5 -112.8 5.7 -111.0 L4.25 -110.35 4.2 -110.0 5.05 -110.2 7.85 -111.0 10.8 -112.15 14.45 -114.1 15.5 -114.8 14.4 -112.85 13.0 -111.0 Q10.45 -107.7 7.4 -104.5 L7.7 -104.4 13.45 -109.1 16.3 -112.0 16.15 -111.0 Q15.7 -106.45 12.7 -102.45 L11.4 -100.95 11.65 -100.55 Q14.35 -102.25 16.45 -104.4 L17.5 -105.6 17.7 -104.0 17.75 -103.45 Q17.6 -103.3 17.75 -103.1 L17.75 -102.7 Q17.7 -98.7 16.25 -94.75 L15.5 -92.85 Q14.25 -91.3 13.55 -89.5 L13.15 -88.7 3.25 -88.4 Q-7.9 -88.4 -15.75 -89.75 -19.7 -90.4 -21.65 -91.15 M11.5 -82.8 Q11.3 -81.45 11.4 -80.05 7.8 -79.9 3.85 -79.9 -8.25 -79.9 -16.8 -81.25 -21.25 -81.9 -23.4 -82.75 L-22.9 -85.3 Q-20.8 -84.6 -16.8 -84.0 -8.25 -82.65 3.85 -82.65 7.85 -82.65 11.5 -82.8 M-24.25 -77.7 Q-22.0 -76.9 -17.45 -76.25 L4.2 -74.9 Q8.4 -74.9 12.2 -75.05 13.45 -70.35 18.0 -66.9 19.5 -65.8 21.6 -64.75 L4.65 -64.15 -19.05 -65.5 -25.55 -66.65 -25.35 -68.3 -24.25 -77.7 M24.35 -55.6 L4.8 -54.9 -20.7 -56.25 -27.4 -57.35 -26.7 -60.1 -20.1 -59.0 4.75 -57.65 27.25 -58.7 28.05 -57.7 27.95 -57.6 24.35 -55.6" fill="#fdf4d7" fill-rule="evenodd" stroke="none"/>
    <path d="M13.65 -120.55 L17.2 -114.45 20.5 -107.5 21.75 -104.1 26.7 -90.7 22.3 -89.75 13.15 -88.7 13.55 -89.5 Q14.25 -91.3 15.5 -92.85 L16.25 -94.75 Q17.7 -98.7 17.75 -102.7 L17.75 -103.1 17.95 -103.45 17.75 -103.45 17.7 -104.0 17.5 -105.6 16.45 -104.4 Q14.35 -102.25 11.65 -100.55 L11.4 -100.95 12.7 -102.45 Q15.7 -106.45 16.15 -111.0 L16.3 -112.0 13.45 -109.1 7.7 -104.4 7.4 -104.5 Q10.45 -107.7 13.0 -111.0 L14.4 -112.85 15.5 -114.8 14.45 -114.1 10.8 -112.15 7.85 -111.0 5.05 -110.2 4.2 -110.0 4.25 -110.35 5.7 -111.0 Q9.5 -112.8 11.45 -115.6 13.4 -118.45 7.65 -120.8 0.6 -120.6 -4.55 -113.0 -10.45 -104.3 -12.45 -94.8 -14.7 -107.75 -7.65 -118.5 -1.9 -127.25 7.3 -126.25 9.4 -126.2 13.55 -120.5 L13.65 -120.55 M29.6 -82.25 L24.5 -81.25 11.4 -80.05 Q11.3 -81.45 11.5 -82.8 L24.5 -84.0 28.75 -84.8 29.6 -82.25 M12.2 -75.05 L25.85 -76.25 31.3 -77.25 34.75 -66.65 28.35 -65.5 21.6 -64.75 Q19.5 -65.8 18.0 -66.9 13.45 -70.35 12.2 -75.05 M27.25 -58.7 L29.65 -59.0 36.8 -60.25 37.7 -57.55 30.25 -56.25 24.35 -55.6 27.95 -57.6 28.15 -57.65 28.1 -57.65 28.05 -57.7 27.25 -58.7" fill="#dbbd95" fill-rule="evenodd" stroke="none"/>
    <path d="M26.7 -90.7 L21.75 -104.1 20.5 -107.5 17.2 -114.45 13.65 -120.55 13.05 -121.4 11.85 -123.1 13.55 -120.5 Q9.4 -126.2 7.3 -126.25 -1.9 -127.25 -7.65 -118.5 -14.7 -107.75 -12.45 -94.8 L-16.25 -94.8 -18.25 -111.05 -18.7 -108.1 Q-19.9 -99.75 -21.65 -91.15 L-23.4 -92.25 -23.3 -92.8 -23.1 -93.7 -21.05 -105.95 Q-20.55 -111.15 -19.45 -116.1 L-19.4 -116.1 Q-15.2 -133.85 -2.7 -132.9 1.6 -132.75 5.75 -130.6 14.55 -126.0 21.8 -111.4 25.55 -103.65 29.75 -92.1 29.0 -91.35 26.7 -90.7 M28.75 -84.8 Q30.85 -85.3 31.95 -85.85 L32.7 -83.65 Q31.9 -82.9 29.6 -82.25 L28.75 -84.8 M34.75 -66.65 L31.3 -77.25 Q33.55 -77.9 34.4 -78.55 L37.7 -67.85 Q36.9 -67.2 34.75 -66.65 M-22.9 -85.3 L-23.4 -82.75 Q-24.7 -83.25 -25.15 -83.8 L-25.05 -84.3 -24.65 -86.15 Q-24.05 -85.7 -22.9 -85.3 M-26.2 -78.75 Q-25.7 -78.2 -24.25 -77.7 L-25.35 -68.3 -25.55 -66.65 Q-27.9 -67.3 -28.6 -68.0 L-28.5 -68.55 -26.2 -78.75 M-26.7 -60.1 L-27.4 -57.35 Q-30.0 -57.95 -30.85 -58.65 L-30.1 -61.5 Q-29.35 -60.75 -26.7 -60.1 M40.4 -58.7 Q39.7 -58.1 37.7 -57.55 L36.8 -60.25 Q38.9 -60.85 39.6 -61.45 L40.4 -58.7" fill="#3b3b3b" fill-rule="evenodd" stroke="none"/>
    <path d="M13.15 -88.7 L22.3 -89.75 26.7 -90.7 28.75 -84.8 24.5 -84.0 11.5 -82.8 11.75 -84.35 Q12.15 -86.65 13.15 -88.7 M11.4 -80.05 L24.5 -81.25 29.6 -82.25 31.3 -77.25 25.85 -76.25 12.2 -75.05 12.0 -75.8 Q11.45 -78.0 11.4 -80.05 M21.6 -64.75 L28.35 -65.5 34.75 -66.65 36.8 -60.25 29.65 -59.0 27.25 -58.7 22.55 -64.3 21.6 -64.75 M26.0 -26.1 L35.15 -30.25 16.25 -28.9 10.35 -28.45 5.85 -28.5 3.2 -28.7 0.4 -28.9 3.7 -29.95 16.25 -32.4 18.2 -32.45 Q21.55 -32.9 24.35 -34.45 L26.2 -35.7 27.05 -36.7 29.7 -40.9 26.6 -40.0 16.6 -38.5 8.0 -38.2 8.0 -38.25 0.0 -38.0 16.75 -39.3 26.45 -41.5 30.2 -42.95 30.6 -46.0 30.55 -46.1 Q30.45 -46.85 30.65 -47.6 L30.65 -49.15 25.5 -48.25 13.45 -47.6 25.3 -49.45 25.35 -49.45 30.4 -51.15 29.4 -55.0 24.6 -53.45 17.25 -52.3 8.2 -52.2 10.65 -52.3 17.2 -53.3 17.9 -53.5 18.7 -53.65 20.05 -54.15 24.2 -55.55 24.35 -55.6 30.25 -56.25 37.7 -57.55 43.8 -37.9 43.7 -37.85 43.95 -37.25 43.95 -37.15 44.2 -36.85 44.2 -36.75 44.3 -36.7 Q44.2 -36.55 44.35 -36.4 L44.6 -35.55 44.05 -33.45 43.05 -32.4 43.15 -32.4 42.9 -32.2 40.8 -30.8 39.8 -30.2 Q39.4 -30.25 39.15 -29.95 L36.95 -29.05 33.85 -28.0 26.0 -26.1 M22.2 -25.45 L22.15 -25.75 22.65 -25.5 22.2 -25.45" fill="#b11b1b" fill-rule="evenodd" stroke="none"/>
    <path d="M26.7 -90.7 Q29.0 -91.35 29.75 -92.1 L31.95 -85.85 Q30.85 -85.3 28.75 -84.8 L26.7 -90.7 M-23.4 -92.25 L-21.65 -91.15 -22.2 -88.45 -22.9 -85.3 Q-24.05 -85.7 -24.65 -86.15 L-23.4 -92.25 M31.3 -77.25 L29.6 -82.25 Q31.9 -82.9 32.7 -83.65 L34.4 -78.55 Q33.55 -77.9 31.3 -77.25 M-23.4 -82.75 L-24.25 -77.7 Q-25.7 -78.2 -26.2 -78.75 L-26.05 -79.3 -25.9 -80.05 -25.15 -83.8 Q-24.7 -83.25 -23.4 -82.75 M36.8 -60.25 L34.75 -66.65 Q36.9 -67.2 37.7 -67.85 L39.6 -61.45 Q38.9 -60.85 36.8 -60.25 M-27.4 -57.35 Q-29.2 -50.7 -32.3 -44.1 -34.1 -40.8 -34.1 -37.0 -34.5 -28.5 -23.1 -27.5 L-18.3 -26.05 -15.5 -25.35 -12.55 -24.85 2.55 -24.35 4.6 -24.35 10.5 -24.45 12.9 -24.6 16.4 -24.85 18.8 -25.1 22.2 -25.45 22.65 -25.5 26.0 -26.1 33.85 -28.0 36.95 -29.05 39.15 -29.95 Q39.4 -30.25 39.8 -30.2 L40.8 -30.8 42.9 -32.2 43.15 -32.4 43.05 -32.4 44.05 -33.45 44.6 -35.55 44.35 -36.4 Q44.2 -36.55 44.3 -36.7 L44.2 -36.75 44.2 -36.85 43.95 -37.15 43.95 -37.25 43.7 -37.85 43.8 -37.9 37.7 -57.55 Q39.7 -58.1 40.4 -58.7 L46.2 -37.8 46.35 -37.55 46.35 -37.4 46.8 -36.55 46.75 -36.5 46.9 -35.55 46.65 -33.5 Q46.15 -32.3 45.25 -31.15 L44.85 -30.75 43.35 -29.65 41.2 -28.45 Q40.3 -28.2 39.55 -27.7 38.5 -27.4 37.35 -26.8 L32.0 -25.1 Q26.35 -23.5 18.85 -22.65 L16.5 -22.45 13.0 -22.15 10.6 -22.1 5.2 -21.95 -12.55 -22.7 -14.95 -23.05 -16.95 -23.5 -22.55 -24.95 -25.6 -25.8 -28.15 -26.55 -30.5 -27.55 Q-33.3 -28.7 -34.95 -29.9 L-35.25 -30.15 Q-36.7 -31.25 -37.35 -32.4 -38.35 -33.95 -38.15 -35.55 -38.2 -36.45 -37.8 -37.15 L-37.6 -37.55 -34.4 -46.6 Q-32.4 -52.7 -30.85 -58.65 -30.0 -57.95 -27.4 -57.35 M-28.6 -68.0 Q-27.9 -67.3 -25.55 -66.65 L-26.7 -60.1 Q-29.35 -60.75 -30.1 -61.5 L-30.0 -62.0 -29.25 -65.05 -28.6 -68.0" fill="#671010" fill-rule="evenodd" stroke="none"/>
    <path d="M11.4 -80.05 Q11.45 -78.0 12.0 -75.8 L12.2 -75.05 Q8.4 -74.9 4.2 -74.9 L-17.45 -76.25 Q-22.0 -76.9 -24.25 -77.7 L-23.4 -82.75 Q-21.25 -81.9 -16.8 -81.25 -8.25 -79.9 3.85 -79.9 7.8 -79.9 11.4 -80.05 M13.15 -88.7 Q12.15 -86.65 11.75 -84.35 L11.5 -82.8 Q7.85 -82.65 3.85 -82.65 -8.25 -82.65 -16.8 -84.0 -20.8 -84.6 -22.9 -85.3 L-22.2 -88.45 -21.65 -91.15 Q-19.7 -90.4 -15.75 -89.75 -7.9 -88.4 3.25 -88.4 L13.15 -88.7 M-25.55 -66.65 L-19.05 -65.5 4.65 -64.15 21.6 -64.75 22.55 -64.3 27.25 -58.7 4.75 -57.65 -20.1 -59.0 -26.7 -60.1 -25.55 -66.65 M24.35 -55.6 L24.2 -55.55 20.05 -54.15 18.7 -53.65 17.9 -53.5 17.2 -53.3 10.65 -52.3 8.2 -52.2 17.25 -52.3 24.6 -53.45 29.4 -55.0 30.4 -51.15 25.35 -49.45 25.3 -49.45 13.45 -47.6 25.5 -48.25 30.65 -49.15 30.65 -47.6 Q30.45 -46.85 30.55 -46.1 L30.6 -46.0 30.2 -42.95 26.45 -41.5 16.75 -39.3 0.0 -38.0 8.0 -38.25 8.0 -38.2 16.6 -38.5 26.6 -40.0 29.7 -40.9 27.05 -36.7 26.2 -35.7 24.35 -34.45 Q21.55 -32.9 18.2 -32.45 L16.25 -32.4 3.7 -29.95 0.4 -28.9 3.2 -28.7 5.85 -28.5 10.35 -28.45 16.25 -28.9 35.15 -30.25 26.0 -26.1 22.65 -25.5 22.15 -25.75 22.2 -25.45 18.8 -25.1 16.4 -24.85 12.9 -24.6 10.5 -24.45 4.6 -24.35 2.55 -24.35 -12.55 -24.85 -15.5 -25.35 -18.3 -26.05 -23.1 -27.5 Q-34.5 -28.5 -34.1 -37.0 -34.1 -40.8 -32.3 -44.1 -29.2 -50.7 -27.4 -57.35 L-20.7 -56.25 4.8 -54.9 24.35 -55.6" fill="#da2121" fill-rule="evenodd" stroke="none"/>
  </g>
</svg>
