<?xml version="1.0" encoding="UTF-8" standalone="no"?>
<svg xmlns:ffdec="https://www.free-decompiler.com/flash" xmlns:xlink="http://www.w3.org/1999/xlink" ffdec:objectType="shape" height="68.3px" width="104.75px" xmlns="http://www.w3.org/2000/svg">
  <g transform="matrix(1.0, 0.0, 0.0, 1.0, 57.65, -0.3)">
    <path d="M26.35 44.0 L28.75 43.8 Q34.6 46.5 40.25 51.8 40.5 60.6 38.65 66.1 L33.7 65.55 Q35.9 61.45 33.75 57.3 L33.6 56.95 26.9 55.75 32.5 51.9 32.15 51.25 Q29.45 46.55 26.35 44.0" fill="#6d4425" fill-rule="evenodd" stroke="none"/>
    <path d="M31.4 43.6 L31.7 43.75 Q41.25 47.5 42.55 51.0 L42.95 51.55 Q42.35 62.35 40.2 67.75 L39.85 68.6 32.95 66.25 33.15 65.35 Q33.95 62.3 32.15 58.6 L25.75 56.15 30.0 51.65 Q26.9 46.4 23.25 44.35 L26.35 44.0 Q29.45 46.55 32.15 51.25 L32.5 51.9 26.9 55.75 33.6 56.95 33.75 57.3 Q35.9 61.45 33.7 65.55 L38.65 66.1 Q40.5 60.6 40.25 51.8 34.6 46.5 28.75 43.8 L31.4 43.6" fill="#59371e" fill-rule="evenodd" stroke="none"/>
    <path d="M32.3 41.85 L32.55 42.15 32.65 42.55 32.6 42.95 32.1 43.5 31.7 43.6 31.65 43.6 31.4 43.6 28.75 43.8 26.35 44.0 23.25 44.35 Q9.1 46.05 -12.25 51.7 L-12.2 51.65 Q-16.45 52.95 -20.75 48.95 -26.95 44.25 -32.65 42.2 L-33.8 45.85 -34.15 46.4 -34.8 46.6 -55.85 46.6 -55.9 46.6 -55.95 46.6 -56.6 46.25 Q-58.7 43.75 -56.6 41.25 L-56.3 41.0 -53.65 39.15 -53.55 39.05 Q-42.75 32.05 -30.1 29.8 L-27.8 29.45 Q-2.75 25.9 29.3 40.7 L32.0 41.65 32.3 41.85 M22.15 5.9 L21.2 5.45 21.2 5.05 Q21.2 3.5 20.1 2.4 19.0 1.3 17.45 1.3 15.9 1.3 14.8 2.4 L14.3 3.05 13.3 2.8 14.1 1.7 Q15.5 0.3 17.45 0.3 19.4 0.3 20.8 1.7 22.2 3.1 22.2 5.05 L22.15 5.9 M23.7 41.05 L25.1 41.0 Q17.5 38.0 10.55 35.85 -12.6 28.6 -28.3 30.65 L-30.6 31.0 Q-38.4 32.4 -44.25 36.3 -38.9 35.65 -33.05 37.65 L-31.7 38.15 Q-26.0 40.35 -19.75 45.05 L-19.7 45.1 Q-16.15 48.45 -12.65 47.5 L-12.6 47.5 Q4.5 43.0 16.1 41.6 L23.7 41.05 M23.8 42.25 L24.6 42.15 26.05 42.0 24.15 42.0 23.3 42.05 14.95 42.75 Q3.8 44.2 -12.35 48.45 -16.35 49.65 -20.4 45.85 L-20.35 45.85 Q-26.1 41.55 -31.35 39.35 -35.15 37.8 -38.7 37.35 -43.65 36.75 -48.15 38.25 L-52.45 40.75 -52.6 40.85 Q-53.65 41.5 -55.1 42.6 -55.7 43.3 -55.55 44.05 L-55.3 43.85 -52.6 41.9 Q-43.25 36.05 -31.8 40.3 -25.9 42.5 -19.45 47.4 L-19.35 47.5 Q-16.05 50.65 -12.75 49.75 5.65 44.9 18.75 42.95 L23.8 42.25 M-35.55 44.6 L-34.55 41.6 Q-44.65 38.75 -52.95 44.6 L-35.55 44.6" fill="#671010" fill-rule="evenodd" stroke="none"/>
    <path d="M-35.55 44.6 L-52.95 44.6 Q-44.65 38.75 -34.55 41.6 L-35.55 44.6" fill="#861515" fill-rule="evenodd" stroke="none"/>
    <path d="M21.2 5.45 Q17.9 4.05 14.3 3.05 L14.8 2.4 Q15.9 1.3 17.45 1.3 19.0 1.3 20.1 2.4 21.2 3.5 21.2 5.05 L21.2 5.45 M23.8 42.25 L18.75 42.95 Q5.65 44.9 -12.75 49.75 -16.05 50.65 -19.35 47.5 L-19.45 47.4 Q-25.9 42.5 -31.8 40.3 -43.25 36.05 -52.6 41.9 L-55.3 43.85 -55.55 44.05 Q-55.7 43.3 -55.1 42.6 -53.65 41.5 -52.6 40.85 L-52.45 40.75 -48.15 38.25 Q-43.65 36.75 -38.7 37.35 -35.15 37.8 -31.35 39.35 -26.1 41.55 -20.35 45.85 L-20.4 45.85 Q-16.35 49.65 -12.35 48.45 3.8 44.2 14.95 42.75 L23.3 42.05 24.15 42.0 26.05 42.0 24.6 42.15 23.8 42.25" fill="#b11b1b" fill-rule="evenodd" stroke="none"/>
    <path d="M32.3 41.85 L32.45 41.9 Q37.4 43.8 40.35 45.8 42.25 47.05 43.35 48.4 L45.05 43.85 41.75 39.4 44.1 40.6 Q44.55 25.4 32.75 15.0 27.7 10.6 21.4 7.75 L20.45 7.35 Q17.25 5.95 13.7 5.0 L12.7 4.7 5.45 3.3 1.6 2.85 1.55 2.85 -0.1 2.7 -0.15 2.7 Q-17.75 1.65 -21.65 12.4 -25.6 23.1 -26.45 26.9 L-27.3 28.6 -27.6 28.95 -27.8 29.45 -30.1 29.8 -29.35 28.0 -29.05 27.55 Q-27.65 25.05 -23.1 13.3 -18.4 0.65 -0.1 0.7 L-0.05 0.7 1.75 0.85 Q7.85 1.4 13.3 2.8 L14.3 3.05 Q17.9 4.05 21.2 5.45 L22.15 5.9 Q28.75 8.85 34.05 13.5 46.5 24.45 46.1 40.5 L47.05 43.55 47.05 44.2 44.5 50.9 44.4 51.15 Q44.2 51.5 43.8 51.65 L43.05 51.6 42.95 51.55 42.55 51.0 Q41.25 47.5 31.7 43.75 L31.4 43.6 31.65 43.6 31.7 43.6 32.1 43.5 32.6 42.95 32.65 42.55 32.55 42.15 32.3 41.85" fill="#3b3b3b" fill-rule="evenodd" stroke="none"/>
    <path d="M5.45 3.3 L12.7 4.7 13.7 5.0 Q17.25 5.95 20.45 7.35 L21.4 7.75 Q27.7 10.6 32.75 15.0 44.55 25.4 44.1 40.6 L41.75 39.4 45.05 43.85 43.35 48.4 Q42.25 47.05 40.35 45.8 37.4 43.8 32.45 41.9 L32.3 41.85 32.0 41.65 29.3 40.7 Q-2.75 25.9 -27.8 29.45 L-27.6 28.95 -27.3 28.6 -26.45 26.9 Q-23.3 25.0 -19.3 24.35 L-13.0 24.05 -8.3 14.45 Q-3.6 4.9 6.75 3.7 L5.45 3.3 M13.85 6.15 L12.75 5.8 9.1 4.95 9.15 4.95 8.9 4.95 Q-4.6 2.6 -11.2 24.3 L-2.4 25.1 Q9.25 26.7 16.25 30.3 24.75 15.9 19.15 9.5 L18.35 8.7 Q16.6 7.15 13.85 6.15 M32.05 36.35 L34.7 37.75 Q37.65 24.0 26.5 11.9 36.45 24.2 32.25 35.9 L32.05 36.35" fill="#dbbd95" fill-rule="evenodd" stroke="none"/>
    <path d="M-26.45 26.9 Q-25.6 23.1 -21.65 12.4 -17.75 1.65 -0.15 2.7 L-0.1 2.7 1.55 2.85 1.6 2.85 5.45 3.3 6.75 3.7 Q-3.6 4.9 -8.3 14.45 L-13.0 24.05 -19.3 24.35 Q-23.3 25.0 -26.45 26.9 M13.85 6.15 Q16.6 7.15 18.35 8.7 L19.15 9.5 Q24.75 15.9 16.25 30.3 9.25 26.7 -2.4 25.1 L-11.2 24.3 Q-4.6 2.6 8.9 4.95 L9.15 4.95 9.1 4.95 12.75 5.8 13.85 6.15 M32.05 36.35 L32.25 35.9 Q36.45 24.2 26.5 11.9 37.65 24.0 34.7 37.75 L32.05 36.35" fill="#fdf4d7" fill-rule="evenodd" stroke="none"/>
    <path d="M23.7 41.05 L16.1 41.6 Q4.5 43.0 -12.6 47.5 L-12.65 47.5 Q-16.15 48.45 -19.7 45.1 L-19.75 45.05 Q-26.0 40.35 -31.7 38.15 L-33.05 37.65 Q-38.9 35.65 -44.25 36.3 -38.4 32.4 -30.6 31.0 L-28.3 30.65 Q-12.6 28.6 10.55 35.85 17.5 38.0 25.1 41.0 L23.7 41.05" fill="#da2121" fill-rule="evenodd" stroke="none"/>
  </g>
</svg>
