<?xml version="1.0" encoding="UTF-8" standalone="no"?>
<svg xmlns:ffdec="https://www.free-decompiler.com/flash" xmlns:xlink="http://www.w3.org/1999/xlink" ffdec:objectType="shape" height="77.55px" width="77.55px" xmlns="http://www.w3.org/2000/svg">
  <g transform="matrix(1.0, 0.0, 0.0, 1.0, 38.95, 35.55)">
    <path d="M-23.85 -25.3 L-23.75 -25.05 -24.55 -24.7 -23.85 -25.3 M-11.55 37.65 L-11.55 38.55 -14.55 37.45 -11.55 37.65" fill="#eaa76a" fill-rule="evenodd" stroke="none"/>
    <path d="M-26.15 -25.6 Q-15.25 -35.6 -0.15 -35.55 15.85 -35.6 27.2 -24.2 38.6 -12.85 38.6 3.2 38.6 19.25 27.2 30.6 15.85 41.95 -0.15 42.0 L-4.7 41.75 Q-8.55 41.3 -12.1 40.25 -15.15 39.25 -17.95 37.75 -23.15 35.0 -27.6 30.6 -39.0 19.25 -38.95 3.2 -38.95 -10.35 -30.9 -20.55 L-28.0 -23.85 -27.85 -24.0 -27.7 -24.15 -27.65 -24.2 -27.5 -24.3 -27.45 -24.35 -26.15 -25.6 M-24.55 -24.7 L-25.0 -24.3 -26.35 -23.0 -26.6 -22.8 -26.65 -22.75 -26.75 -22.65 -28.65 -20.55 -29.55 -19.45 Q-35.2 -12.25 -36.65 -3.3 -37.2 -0.15 -37.2 3.2 L-37.05 6.95 Q-35.9 19.85 -26.35 29.35 -22.15 33.6 -17.15 36.25 L-14.55 37.45 -11.55 38.55 -4.5 40.0 -3.85 40.1 -0.15 40.25 Q15.15 40.2 26.0 29.35 36.85 18.5 36.85 3.2 36.85 -12.15 26.0 -23.0 15.15 -33.85 -0.15 -33.8 -13.8 -33.85 -23.85 -25.3 L-24.55 -24.7" fill="#6c3d28" fill-rule="evenodd" stroke="none"/>
    <path d="M16.85 18.95 Q17.7 23.8 13.3 28.1 3.5 37.7 -10.3 37.7 L-11.55 37.65 -14.55 37.45 -17.15 36.25 Q-22.15 33.6 -26.35 29.35 -35.9 19.85 -37.05 6.95 -9.65 -6.6 6.75 6.0 13.85 11.45 16.05 16.35 15.45 16.35 15.05 16.75 14.65 17.15 14.65 17.75 14.65 18.35 15.05 18.75 15.45 19.15 16.05 19.15 L16.85 18.95 M5.6 15.25 Q5.25 14.9 4.7 14.9 4.15 14.9 3.75 15.25 3.4 15.65 3.4 16.2 3.4 16.75 3.75 17.1 4.15 17.5 4.7 17.5 5.25 17.5 5.6 17.1 6.0 16.75 6.0 16.2 6.0 15.65 5.6 15.25 M8.15 11.15 L8.65 10.9 8.9 10.4 8.65 9.85 8.15 9.65 7.6 9.85 7.4 10.4 7.6 10.9 8.15 11.15 M3.6 8.5 L4.45 8.15 4.8 7.3 Q4.8 6.8 4.45 6.45 4.1 6.1 3.6 6.1 3.1 6.1 2.75 6.45 2.4 6.8 2.4 7.3 2.4 7.8 2.75 8.15 3.1 8.5 3.6 8.5" fill="#ffcc99" fill-rule="evenodd" stroke="none"/>
    <path d="M-28.65 -20.55 Q28.35 -4.15 30.0 13.45 27.75 22.55 20.65 29.65 10.45 39.85 -3.85 40.1 L-4.5 40.0 -11.55 38.55 -11.55 37.65 -10.3 37.7 Q3.5 37.7 13.3 28.1 17.7 23.8 16.85 18.95 L17.05 18.75 Q17.45 18.35 17.45 17.75 17.45 17.15 17.05 16.75 16.65 16.35 16.05 16.35 13.85 11.45 6.75 6.0 -9.65 -6.6 -37.05 6.95 L-37.2 3.2 Q-37.2 -0.15 -36.65 -3.3 -35.2 -12.25 -29.55 -19.45 L-28.65 -20.55 M15.95 10.2 Q15.65 10.5 15.65 10.95 15.65 11.4 15.95 11.7 16.25 12.0 16.7 12.0 L17.45 11.7 17.75 10.95 17.45 10.2 Q17.15 9.9 16.7 9.9 16.25 9.9 15.95 10.2 M19.15 7.4 L19.4 6.9 19.15 6.35 18.65 6.15 18.1 6.35 17.9 6.9 18.1 7.4 18.65 7.65 19.15 7.4 M10.15 4.95 Q10.15 5.5 10.5 5.85 10.9 6.25 11.45 6.25 12.0 6.25 12.35 5.85 12.75 5.5 12.75 4.95 12.75 4.4 12.35 4.0 12.0 3.65 11.45 3.65 10.9 3.65 10.5 4.0 10.15 4.4 10.15 4.95" fill="#f1ba87" fill-rule="evenodd" stroke="none"/>
    <path d="M-24.55 -24.7 L-23.75 -25.05 -23.85 -25.3 Q-13.8 -33.85 -0.15 -33.8 15.15 -33.85 26.0 -23.0 36.85 -12.15 36.85 3.2 36.85 18.5 26.0 29.35 15.15 40.2 -0.15 40.25 L-3.85 40.1 Q10.45 39.85 20.65 29.65 27.75 22.55 30.0 13.45 28.35 -4.15 -28.65 -20.55 L-26.75 -22.65 -26.65 -22.75 -26.6 -22.8 -26.35 -23.0 -25.0 -24.3 -24.55 -24.7 M16.05 16.35 Q16.65 16.35 17.05 16.75 17.45 17.15 17.45 17.75 17.45 18.35 17.05 18.75 L16.85 18.95 16.05 19.15 Q15.45 19.15 15.05 18.75 14.65 18.35 14.65 17.75 14.65 17.15 15.05 16.75 15.45 16.35 16.05 16.35 M10.15 4.95 Q10.15 4.4 10.5 4.0 10.9 3.65 11.45 3.65 12.0 3.65 12.35 4.0 12.75 4.4 12.75 4.95 12.75 5.5 12.35 5.85 12.0 6.25 11.45 6.25 10.9 6.25 10.5 5.85 10.15 5.5 10.15 4.95 M19.15 7.4 L18.65 7.65 18.1 7.4 17.9 6.9 18.1 6.35 18.65 6.15 19.15 6.35 19.4 6.9 19.15 7.4 M15.95 10.2 Q16.25 9.9 16.7 9.9 17.15 9.9 17.45 10.2 L17.75 10.95 17.45 11.7 16.7 12.0 Q16.25 12.0 15.95 11.7 15.65 11.4 15.65 10.95 15.65 10.5 15.95 10.2 M3.6 8.5 Q3.1 8.5 2.75 8.15 2.4 7.8 2.4 7.3 2.4 6.8 2.75 6.45 3.1 6.1 3.6 6.1 4.1 6.1 4.45 6.45 4.8 6.8 4.8 7.3 L4.45 8.15 3.6 8.5 M8.15 11.15 L7.6 10.9 7.4 10.4 7.6 9.85 8.15 9.65 8.65 9.85 8.9 10.4 8.65 10.9 8.15 11.15 M5.6 15.25 Q6.0 15.65 6.0 16.2 6.0 16.75 5.6 17.1 5.25 17.5 4.7 17.5 4.15 17.5 3.75 17.1 3.4 16.75 3.4 16.2 3.4 15.65 3.75 15.25 4.15 14.9 4.7 14.9 5.25 14.9 5.6 15.25" fill="#db9c64" fill-rule="evenodd" stroke="none"/>
  </g>
</svg>
