<?xml version="1.0" encoding="UTF-8" standalone="no"?>
<svg xmlns:ffdec="https://www.free-decompiler.com/flash" xmlns:xlink="http://www.w3.org/1999/xlink" ffdec:objectType="shape" height="54.2px" width="42.85px" xmlns="http://www.w3.org/2000/svg">
  <g transform="matrix(1.0, 0.0, 0.0, 1.0, 23.05, 23.3)">
    <path d="M-6.05 -9.1 L-6.1 -9.2 -6.05 -9.2 -6.05 -9.1" fill="#83563a" fill-rule="evenodd" stroke="none"/>
    <path d="M-8.45 -9.05 Q-9.35 -11.25 -10.4 -13.15 L-13.8 -19.2 -13.95 -19.75 -13.75 -20.3 -13.25 -20.65 -4.85 -23.0 Q-0.95 -24.05 1.6 -21.2 L3.1 -19.1 3.15 -18.4 2.75 -16.8 2.8 -16.75 Q2.75 -15.5 2.85 -14.2 L2.85 -14.15 2.85 -14.0 2.9 -13.0 2.9 -12.95 3.2 -9.35 3.95 -4.95 5.25 -0.2 5.15 0.0 5.15 0.05 4.95 0.45 4.9 0.5 3.35 3.05 2.05 -4.85 1.15 -9.95 1.05 -10.55 1.0 -12.35 0.9 -13.4 0.85 -14.1 0.85 -16.85 0.85 -17.25 1.15 -18.5 0.2 -19.85 Q-1.6 -21.85 -4.35 -21.1 L-11.5 -19.1 -6.6 -10.15 -6.45 -9.9 -6.25 -9.55 -6.15 -9.25 -6.1 -9.2 -6.05 -9.1 -4.3 -1.8 Q-3.6 1.75 -3.45 4.5 L-3.45 5.05 -4.25 10.6 -4.7 6.1 -5.8 -0.35 Q-6.7 -4.6 -8.05 -8.15 L-8.45 -9.05" fill="#6c3d28" fill-rule="evenodd" stroke="none"/>
    <path d="M15.0 3.15 L14.9 3.05 14.85 3.0 15.0 3.15" fill="#ee5b00" fill-rule="evenodd" stroke="none"/>
    <path d="M14.65 -11.85 L14.7 -11.85 14.65 -11.85 M-19.5 6.45 L-19.55 6.4 -19.5 6.45 M2.9 -12.95 L2.9 -13.0 3.05 -13.0 2.9 -12.95" fill="#832201" fill-rule="evenodd" stroke="none"/>
    <path d="M3.2 -9.35 L2.9 -12.95 3.05 -13.0 Q9.15 -11.45 9.85 -7.65 12.5 -9.5 16.25 -7.2 L17.05 -4.0 Q17.85 1.05 15.0 3.15 L14.85 3.0 Q13.4 2.1 11.85 1.7 L7.45 1.55 7.15 1.6 5.95 5.1 1.75 6.55 3.55 4.4 3.95 3.9 5.7 1.15 5.8 0.95 6.05 0.45 6.6 -1.2 6.65 -2.25 Q6.65 -3.35 6.2 -4.2 L6.0 -4.6 5.7 -4.8 5.55 -4.8 Q5.25 -8.2 3.2 -9.35" fill="#da2121" fill-rule="evenodd" stroke="none"/>
    <path d="M-8.05 -8.15 Q-6.7 -4.6 -5.8 -0.35 -7.8 1.7 -9.15 4.25 L-9.2 4.25 Q-11.3 8.2 -11.45 12.8 L-11.45 14.1 -11.4 15.85 -12.5 13.8 Q-13.45 12.2 -14.55 10.75 L-14.6 10.7 -14.75 10.45 -14.8 10.4 -16.2 8.85 -18.45 6.2 -18.5 6.15 -18.7 5.9 -18.7 5.85 Q-19.2 5.15 -19.1 4.35 L-19.1 4.3 Q-19.05 3.15 -18.45 2.2 L-16.5 -0.75 -16.5 -0.8 Q-14.0 -4.2 -10.3 -6.7 L-8.05 -8.15 M3.95 -4.95 L3.2 -9.35 Q5.25 -8.2 5.55 -4.8 L3.95 -4.95 M3.05 -13.0 L10.25 -12.75 Q12.3 -12.2 14.1 -11.0 15.65 -10.05 16.55 -8.65 L17.9 -5.8 18.1 -5.3 18.35 -4.35 Q19.2 -0.9 18.4 2.8 L17.5 5.6 Q16.6 4.35 15.0 3.15 17.85 1.05 17.05 -4.0 L16.25 -7.2 Q12.5 -9.5 9.85 -7.65 9.15 -11.45 3.05 -13.0" fill="#b11b1b" fill-rule="evenodd" stroke="none"/>
    <path d="M2.85 -14.0 L10.5 -13.7 Q12.7 -13.1 14.65 -11.85 L14.7 -11.85 Q16.35 -10.8 17.4 -9.2 18.3 -7.8 18.85 -6.1 L18.9 -6.05 19.0 -5.75 19.05 -5.65 19.35 -4.65 Q20.25 -0.95 19.4 3.0 18.95 4.95 18.0 6.85 L17.6 7.65 17.15 6.85 Q16.25 5.3 14.3 3.8 13.15 3.9 3.55 13.25 -6.05 22.6 -7.2 30.9 L-10.9 19.3 Q-12.0 16.7 -13.4 14.3 L-15.0 11.8 Q-16.9 16.9 -22.25 16.2 L-23.05 16.1 -22.6 15.45 Q-19.05 9.85 -19.35 6.65 L-19.5 6.45 -19.55 6.4 Q-20.2 5.4 -20.1 4.3 -20.05 2.9 -19.3 1.7 L-17.3 -1.4 Q-14.75 -4.95 -10.9 -7.55 L-8.45 -9.05 -8.05 -8.15 -10.3 -6.7 Q-14.0 -4.2 -16.5 -0.8 L-16.5 -0.75 -18.45 2.2 Q-19.05 3.15 -19.1 4.3 L-19.1 4.35 Q-19.2 5.15 -18.7 5.85 L-18.7 5.9 -18.5 6.15 -18.45 6.2 -16.2 8.85 -14.8 10.4 -14.75 10.45 -14.6 10.7 -14.55 10.75 Q-13.45 12.2 -12.5 13.8 L-11.4 15.85 -11.45 14.1 -11.45 12.8 Q-11.3 8.2 -9.2 4.25 L-9.15 4.25 Q-7.8 1.7 -5.8 -0.35 L-4.7 6.1 Q-6.0 8.45 -6.7 13.5 -7.65 20.45 -7.25 25.9 -5.45 16.35 0.25 9.15 L-0.4 7.9 -0.45 7.55 -0.35 7.35 -0.3 7.3 3.15 3.3 3.35 3.05 4.9 0.5 4.95 0.45 5.15 0.05 5.15 0.0 5.25 -0.2 3.95 -4.95 5.55 -4.8 5.7 -4.8 6.0 -4.6 6.2 -4.2 Q6.65 -3.35 6.65 -2.25 L6.6 -1.2 6.05 0.45 5.8 0.95 5.7 1.15 3.95 3.9 3.55 4.4 1.75 6.55 5.95 5.1 7.15 1.6 7.45 1.55 11.85 1.7 Q13.4 2.1 14.85 3.0 L14.9 3.05 15.0 3.15 Q16.6 4.35 17.5 5.6 L18.4 2.8 Q19.2 -0.9 18.35 -4.35 L18.1 -5.3 17.9 -5.8 16.55 -8.65 Q15.65 -10.05 14.1 -11.0 12.3 -12.2 10.25 -12.75 L3.05 -13.0 2.9 -13.0 2.85 -14.0 M-15.75 10.85 L-16.85 9.55 -18.35 7.95 Q-18.65 10.9 -21.35 15.3 -17.15 15.45 -15.75 10.85 M4.4 10.4 L9.1 3.85 2.75 8.15 -4.5 19.85 Q3.65 9.15 4.4 10.4" fill="#671010" fill-rule="evenodd" stroke="none"/>
    <path d="M-15.75 10.85 Q-17.15 15.45 -21.35 15.3 -18.65 10.9 -18.35 7.95 L-16.85 9.55 -15.75 10.85 M4.4 10.4 Q3.65 9.15 -4.5 19.85 L2.75 8.15 9.1 3.85 4.4 10.4" fill="#791313" fill-rule="evenodd" stroke="none"/>
    <path d="M-4.25 10.6 L-3.45 5.05 -3.45 4.5 Q-3.6 1.75 -4.3 -1.8 L-6.05 -9.1 -6.05 -9.2 -5.2 -9.2 -1.1 -9.85 -0.15 -10.2 1.05 -10.55 1.15 -9.95 2.05 -4.85 3.35 3.05 3.15 3.3 -0.3 7.3 -0.35 7.35 -0.45 7.55 -0.4 7.9 0.25 9.15 Q-1.85 10.1 -4.25 10.6" fill="#f1ba87" fill-rule="evenodd" stroke="none"/>
    <path d="M-4.7 6.1 L-4.25 10.6 Q-1.85 10.1 0.25 9.15 -5.45 16.35 -7.25 25.9 -7.65 20.45 -6.7 13.5 -6.0 8.45 -4.7 6.1 M-6.1 -9.2 L-6.15 -9.25 -6.25 -9.55 -6.45 -9.9 -6.6 -10.15 -11.5 -19.1 -4.35 -21.1 Q-1.6 -21.85 0.2 -19.85 L1.15 -18.5 0.85 -17.25 0.85 -16.85 0.85 -14.1 0.9 -13.4 1.0 -12.35 1.05 -10.55 -0.15 -10.2 -1.1 -9.85 -5.2 -9.2 -6.05 -9.2 -6.1 -9.2" fill="#db9c64" fill-rule="evenodd" stroke="none"/>
  </g>
</svg>
