<?xml version="1.0" encoding="UTF-8" standalone="no"?>
<svg xmlns:ffdec="https://www.free-decompiler.com/flash" xmlns:xlink="http://www.w3.org/1999/xlink" ffdec:objectType="shape" height="12.75px" width="30.1px" xmlns="http://www.w3.org/2000/svg">
  <g transform="matrix(1.0, 0.0, 0.0, 1.0, 34.2, -12.3)">
    <path d="M-17.5 19.05 Q-12.9 15.45 -11.9 14.2 -11.0 12.9 -10.2 12.45 -9.5 12.0 -4.15 13.0 -3.9 14.1 -5.85 14.25 -9.05 14.5 -9.6 14.2 L-9.6 14.25 -11.8 17.3 Q-13.75 19.9 -18.75 22.15 -22.5 23.8 -27.8 24.9 L-33.9 25.05 -34.2 24.6 -29.0 23.4 -29.0 23.45 Q-20.45 21.3 -17.5 19.05" fill="#463624" fill-rule="evenodd" stroke="none"/>
    <path d="M-9.5 14.55 L-9.5 14.5 -9.5 14.55" fill="#ff0000" fill-rule="evenodd" stroke="none"/>
  </g>
</svg>
