<?xml version="1.0" encoding="UTF-8" standalone="no"?>
<svg xmlns:ffdec="https://www.free-decompiler.com/flash" xmlns:xlink="http://www.w3.org/1999/xlink" ffdec:objectType="shape" height="30.85px" width="41.2px" xmlns="http://www.w3.org/2000/svg">
  <g transform="matrix(1.0, 0.0, 0.0, 1.0, 40.55, -2.9)">
    <path d="M-40.55 17.45 L-40.15 17.1 -39.4 17.05 Q-31.4 19.85 -22.85 18.55 -8.9 16.15 -2.4 3.55 -2.2 3.2 -1.8 3.05 L-1.45 3.0 -1.4 3.0 -1.25 2.9 Q-0.6 4.95 0.2 9.65 1.05 14.85 0.25 22.35 L0.0 22.95 -0.2 23.35 Q-9.25 35.65 -24.6 33.4 -32.65 32.1 -37.4 23.95 -39.45 19.3 -40.55 17.45 M-32.95 20.7 Q-32.1 21.35 -31.1 22.55 L-30.9 22.55 Q-28.95 23.4 -24.05 23.4 -19.5 23.4 -13.9 21.75 -10.5 20.7 -7.75 18.9 L-3.65 15.3 Q-2.35 14.45 -1.4 13.05 L-1.8 7.55 -1.9 6.75 Q-8.9 18.15 -22.5 20.5 L-22.55 20.5 Q-27.85 21.35 -32.95 20.65 L-34.3 20.45 -38.1 19.6 Q-36.75 21.15 -35.7 22.95 L-35.65 22.95 Q-31.45 30.2 -24.3 31.45 L-24.3 31.4 Q-15.55 32.7 -9.0 28.85 L-8.0 28.25 -8.25 28.4 -8.3 28.1 -8.3 26.85 Q-8.45 19.55 -1.95 19.55 L-1.5 19.6 -1.35 14.75 Q-2.8 16.85 -6.3 19.3 -13.75 24.55 -24.4 24.55 -28.4 24.55 -30.5 23.7 L-31.0 23.85 -36.1 20.1 -34.3 20.5 -32.95 20.7 M-1.65 21.2 L-1.6 20.7 Q-4.9 20.55 -5.9 21.85 L-6.7 24.4 Q-7.1 25.25 -7.35 27.8 -4.3 25.55 -1.8 22.15 L-1.75 22.1 -1.65 21.2" fill="#463624" fill-rule="evenodd" stroke="none"/>
    <path d="M-32.95 20.65 Q-27.85 21.35 -22.55 20.5 L-22.5 20.5 Q-8.9 18.15 -1.9 6.75 L-1.8 7.55 -1.4 13.05 Q-2.35 14.45 -3.65 15.3 L-7.75 18.9 Q-10.5 20.7 -13.9 21.75 -19.5 23.4 -24.05 23.4 -28.95 23.4 -30.9 22.55 L-31.1 22.55 Q-32.1 21.35 -32.95 20.7 L-32.95 20.65" fill="#e5e5e5" fill-rule="evenodd" stroke="none"/>
    <path d="M-32.95 20.7 L-34.3 20.5 -36.1 20.1 -31.0 23.85 -30.5 23.7 Q-28.4 24.55 -24.4 24.55 -13.75 24.55 -6.3 19.3 -2.8 16.85 -1.35 14.75 L-1.5 19.6 -1.95 19.55 Q-8.45 19.55 -8.3 26.85 L-8.3 28.1 -8.25 28.4 -8.0 28.25 -9.0 28.85 Q-15.55 32.7 -24.3 31.4 L-24.3 31.45 Q-31.45 30.2 -35.65 22.95 L-35.7 22.95 Q-36.75 21.15 -38.1 19.6 L-34.3 20.45 -32.95 20.65 -32.95 20.7" fill="#57352d" fill-rule="evenodd" stroke="none"/>
    <path d="M-1.65 21.2 L-1.75 22.1 -1.8 22.15 Q-4.3 25.55 -7.35 27.8 -7.1 25.25 -6.7 24.4 L-5.9 21.85 Q-4.9 20.55 -1.6 20.7 L-1.65 21.2" fill="#b45f50" fill-rule="evenodd" stroke="none"/>
  </g>
</svg>
