<?xml version="1.0" encoding="UTF-8" standalone="no"?>
<svg xmlns:ffdec="https://www.free-decompiler.com/flash" xmlns:xlink="http://www.w3.org/1999/xlink" ffdec:objectType="shape" height="30.85px" width="41.2px" xmlns="http://www.w3.org/2000/svg">
  <g transform="matrix(1.0, 0.0, 0.0, 1.0, 40.55, -2.9)">
    <path d="M-1.4 12.95 L-1.8 7.55 -1.9 6.75 Q-8.9 18.15 -22.5 20.5 L-22.55 20.5 Q-27.8 21.35 -32.85 20.65 L-33.6 20.5 -33.9 20.55 -34.3 20.45 -38.1 19.6 -36.95 21.0 -36.4 21.85 -35.7 22.95 -35.65 22.95 -35.6 23.05 -34.9 24.2 -34.9 24.15 -34.7 24.1 -30.65 26.8 -27.9 26.1 -27.5 26.0 -25.4 25.55 -25.25 25.5 -24.35 25.5 -24.25 25.75 -24.3 26.0 -24.35 26.0 Q-26.05 26.35 -29.3 27.55 L-29.8 29.05 -29.8 29.15 -29.85 29.3 -27.7 30.45 -24.3 31.45 -24.3 31.4 Q-15.55 32.7 -9.0 28.85 L-8.55 28.6 -8.25 28.4 -4.45 25.2 -3.85 24.6 -1.8 22.15 -1.75 22.1 -1.75 22.05 -1.5 22.05 -1.45 21.25 Q-2.4 20.45 -2.95 20.45 -5.2 20.45 -6.95 21.25 L-7.0 21.3 -7.05 21.3 -7.6 21.65 -8.65 22.2 -8.7 22.2 -8.8 22.2 -9.3 22.2 -9.4 22.0 Q-9.4 21.6 -8.0 20.95 L-7.55 20.75 -7.5 20.75 -7.0 20.55 -6.05 20.2 -5.95 20.15 -5.8 20.1 -2.65 18.85 Q-1.9 17.75 -1.35 16.1 L-1.35 16.85 -1.3 16.05 -1.3 16.0 -1.35 13.85 -1.45 13.15 -1.4 13.05 -1.4 12.95 M-8.55 28.6 Q-8.9 28.8 -9.25 29.15 L-8.55 28.6 M-2.4 3.55 Q-2.2 3.2 -1.8 3.05 L-1.45 3.0 -1.4 3.0 -1.25 2.9 Q-0.6 4.95 0.2 9.65 1.05 14.85 0.25 22.35 L0.0 22.95 -0.2 23.35 Q-9.25 35.65 -24.6 33.4 -32.65 32.1 -37.4 23.95 -39.45 19.3 -40.55 17.45 L-40.15 17.1 -39.4 17.05 Q-31.4 19.85 -22.85 18.55 -8.9 16.15 -2.4 3.55 M-30.0 29.2 L-30.85 28.6 -30.9 28.15 Q-30.9 27.9 -32.7 26.7 L-33.3 26.3 -33.15 26.5 -31.45 28.1 -30.0 29.2" fill="#463624" fill-rule="evenodd" stroke="none"/>
    <path d="M-34.9 24.2 L-35.6 23.05 -35.65 22.95 -35.7 22.95 -36.4 21.85 -36.95 21.0 -38.1 19.6 -34.3 20.45 -33.9 20.55 -33.6 20.5 -32.85 20.65 Q-27.8 21.35 -22.55 20.5 L-22.5 20.5 Q-8.9 18.15 -1.9 6.75 L-1.8 7.55 -1.4 12.95 -1.45 13.0 -1.55 13.15 -1.45 13.15 -1.35 13.85 -1.3 16.0 -1.3 16.05 -1.35 16.1 Q-1.9 17.75 -2.65 18.85 L-5.8 20.1 -5.95 20.15 -6.05 20.2 -7.0 20.55 -7.5 20.75 -7.55 20.75 -7.75 20.75 -8.0 20.95 Q-9.4 21.6 -9.4 22.0 L-9.3 22.2 -8.8 22.2 -8.7 22.2 -8.65 22.2 -7.6 21.65 -7.05 21.3 -7.0 21.3 -6.95 21.3 -6.95 21.25 Q-5.2 20.45 -2.95 20.45 -2.4 20.45 -1.45 21.25 L-1.5 22.05 -1.75 22.05 -1.75 22.1 -1.8 22.15 -3.85 24.6 -4.45 25.2 Q-4.65 21.95 -7.25 21.95 L-9.7 22.65 -9.95 22.6 -10.05 22.3 Q-10.05 21.6 -6.0 18.55 -5.5 18.15 -5.05 16.95 L-8.25 18.8 Q-13.0 20.85 -14.8 21.3 -21.15 22.8 -24.9 22.8 L-33.4 22.05 -36.15 21.25 Q-32.6 25.55 -27.3 25.55 L-23.0 25.3 -20.45 25.4 Q-20.35 25.45 -20.4 25.65 -21.55 26.4 -25.2 27.95 -26.6 28.85 -27.1 30.65 L-27.7 30.45 -29.85 29.3 -29.8 29.15 -29.8 29.1 -29.8 29.05 -29.3 27.55 Q-26.05 26.35 -24.35 26.0 L-24.3 26.0 -24.25 25.75 -24.35 25.5 -25.25 25.5 -25.4 25.55 -27.5 26.0 -27.9 26.1 -30.65 26.8 -34.7 24.1 -34.9 24.15 -34.9 24.2" fill="#e5e5e5" fill-rule="evenodd" stroke="none"/>
    <path d="M-1.4 12.95 L-1.4 13.05 -1.45 13.15 -1.55 13.15 -1.45 13.0 -1.4 12.95 M-7.55 20.75 L-8.0 20.95 -7.75 20.75 -7.55 20.75 M-7.0 21.3 L-6.95 21.25 -6.95 21.3 -7.0 21.3 M-4.45 25.2 L-8.25 28.4 -8.55 28.6 -9.0 28.85 Q-15.55 32.7 -24.3 31.4 L-24.3 31.45 -27.7 30.45 -27.1 30.65 Q-26.6 28.85 -25.2 27.95 -21.55 26.4 -20.4 25.65 -20.35 25.45 -20.45 25.4 L-23.0 25.3 -27.3 25.55 Q-32.6 25.55 -36.15 21.25 L-33.4 22.05 -24.9 22.8 Q-21.15 22.8 -14.8 21.3 -13.0 20.85 -8.25 18.8 L-5.05 16.95 Q-5.5 18.15 -6.0 18.55 -10.05 21.6 -10.05 22.3 L-9.95 22.6 -9.7 22.65 -7.25 21.95 Q-4.65 21.95 -4.45 25.2" fill="#f9f9f9" fill-rule="evenodd" stroke="none"/>
    <path d="M-29.8 29.15 L-29.8 29.05 -29.8 29.1 -29.8 29.15 M-30.0 29.2 L-31.45 28.1 -33.15 26.5 -33.3 26.3 -32.7 26.7 Q-30.9 27.9 -30.9 28.15 L-30.85 28.6 -30.0 29.2" fill="#57352d" fill-rule="evenodd" stroke="none"/>
  </g>
</svg>
