<?xml version="1.0" encoding="UTF-8" standalone="no"?>
<svg xmlns:ffdec="https://www.free-decompiler.com/flash" xmlns:xlink="http://www.w3.org/1999/xlink" ffdec:objectType="shape" height="14.65px" width="27.85px" xmlns="http://www.w3.org/2000/svg">
  <g transform="matrix(1.0, 0.0, 0.0, 1.0, 28.6, -14.5)">
    <path d="M-1.5 17.2 Q-0.75 18.3 -0.75 20.75 -0.75 23.2 -4.15 25.75 -8.65 29.1 -16.25 29.1 L-20.85 29.0 -20.9 29.0 -22.1 29.15 Q-29.0 29.15 -28.55 23.55 L-28.45 22.75 Q-27.8 19.8 -21.65 17.2 -15.35 14.5 -9.0 14.5 -3.25 14.5 -1.5 17.2 M-25.25 27.2 L-25.05 27.3 -24.1 27.7 Q-12.35 28.85 -7.0 25.7 -2.65 23.15 -2.65 20.4 -2.65 16.25 -10.25 16.25 -18.05 16.25 -23.3 19.55 L-27.05 22.35 -26.35 23.3 -25.75 24.05 Q-23.95 22.35 -18.25 22.1 L-17.0 22.35 -16.9 22.5 -21.25 23.85 -24.0 25.45 -24.0 25.5 -24.1 25.7 -25.15 27.0 -25.5 27.1 -25.25 27.2" fill="#463624" fill-rule="evenodd" stroke="none"/>
    <path d="M-25.15 27.0 L-24.1 25.7 -24.0 25.5 -24.0 25.45 -21.25 23.85 -16.9 22.5 -17.0 22.35 -18.25 22.1 Q-23.95 22.35 -25.75 24.05 L-26.35 23.3 -27.05 22.35 -23.3 19.55 Q-18.05 16.25 -10.25 16.25 -2.65 16.25 -2.65 20.4 -2.65 23.15 -7.0 25.7 -12.35 28.85 -24.1 27.7 L-25.05 27.3 -25.25 27.2 -25.15 27.0" fill="#e5e5e5" fill-rule="evenodd" stroke="none"/>
  </g>
</svg>
