<?xml version="1.0" encoding="UTF-8" standalone="no"?>
<svg xmlns:ffdec="https://www.free-decompiler.com/flash" xmlns:xlink="http://www.w3.org/1999/xlink" ffdec:objectType="shape" height="25.9px" width="35.65px" xmlns="http://www.w3.org/2000/svg">
  <g transform="matrix(1.0, 0.0, 0.0, 1.0, 33.8, -7.2)">
    <path d="M-26.05 16.95 L-22.3 14.35 Q-14.45 9.25 -9.0 9.25 -3.7 9.25 -1.1 13.55 L-0.05 15.65 -0.55 15.35 Q-1.15 14.7 -3.75 14.7 L-5.25 14.75 Q-20.25 20.35 -21.75 20.35 -22.25 20.35 -24.15 18.55 L-26.05 16.95" fill="#e5e5e5" fill-rule="evenodd" stroke="none"/>
    <path d="M-26.05 16.95 L-24.15 18.55 Q-22.25 20.35 -21.75 20.35 -20.25 20.35 -5.25 14.75 L-3.75 14.7 Q-1.15 14.7 -0.55 15.35 L-0.05 15.65 -1.1 13.55 Q-3.7 9.25 -9.0 9.25 -14.45 9.25 -22.3 14.35 L-26.05 16.95 -26.55 17.3 -26.05 16.95 M0.45 17.2 L0.35 17.2 Q-0.95 17.2 -1.35 16.6 -1.7 16.0 -3.95 16.0 -7.6 16.0 -14.2 18.75 -20.75 21.5 -21.6 21.5 -23.45 21.5 -26.9 17.6 L-27.55 18.15 -30.4 20.75 Q-27.95 22.55 -27.6 25.85 -27.45 27.75 -27.55 31.5 L-21.0 31.75 Q-14.55 31.75 -10.0 30.65 L-9.95 30.65 -9.15 30.4 -10.05 30.65 -10.1 30.4 Q-10.1 29.95 -9.35 29.55 -8.6 29.2 -8.6 28.85 -9.35 28.65 -10.0 28.1 -12.75 30.6 -15.25 30.6 -19.1 30.6 -19.1 27.65 -19.1 25.85 -17.5 23.6 -15.0 20.15 -10.25 20.15 -5.7 20.15 -3.0 22.5 -1.2 24.05 -1.0 25.4 1.25 22.3 0.6 18.75 L0.45 17.25 0.35 16.75 0.45 17.2 M1.85 18.6 Q1.85 23.75 -0.25 26.5 -5.35 33.1 -21.1 33.1 L-28.95 33.05 -29.1 32.8 Q-28.9 32.4 -29.05 32.1 L-28.9 30.75 -28.8 28.25 Q-28.8 21.75 -31.7 21.75 -32.25 21.75 -33.25 22.6 -33.8 22.4 -33.8 21.8 -17.1 7.2 -7.4 7.2 -2.3 7.2 0.3 12.75 1.6 15.55 1.85 18.6 M-4.3 28.35 L-1.85 26.4 -2.4 25.7 -3.25 23.95 Q-5.0 21.4 -10.25 21.4 -16.1 21.4 -17.65 26.15 L-18.0 27.4 Q-18.0 29.25 -15.85 29.25 -12.8 29.25 -10.55 27.15 -9.0 25.7 -8.4 24.0 L-8.0 23.85 -7.65 24.2 -7.95 25.65 -8.7 26.85 -8.8 26.95 -8.65 26.9 -8.3 26.9 -8.0 26.95 -6.35 27.75 -6.25 27.9 -6.1 28.2 -6.1 28.3 -6.0 29.0 -6.1 29.3 -5.9 29.2 -4.3 28.35 M-7.4 23.55 L-7.4 24.9 -7.75 25.65 -7.75 25.3 -7.65 24.25 -7.45 24.2 -7.4 23.55" fill="#463624" fill-rule="evenodd" stroke="none"/>
    <path d="M-10.0 30.65 Q-14.55 31.75 -21.0 31.75 L-27.55 31.5 Q-27.45 27.75 -27.6 25.85 -27.95 22.55 -30.4 20.75 L-27.55 18.15 -26.9 17.6 Q-23.45 21.5 -21.6 21.5 -20.75 21.5 -14.2 18.75 -7.6 16.0 -3.95 16.0 -1.7 16.0 -1.35 16.6 -0.95 17.2 0.35 17.2 L0.45 17.2 0.45 17.25 0.6 18.75 Q1.25 22.3 -1.0 25.4 -1.2 24.05 -3.0 22.5 -5.7 20.15 -10.25 20.15 -15.0 20.15 -17.5 23.6 -19.1 25.85 -19.1 27.65 -19.1 30.6 -15.25 30.6 -12.75 30.6 -10.0 28.1 -9.35 28.65 -8.6 28.85 -8.6 29.2 -9.35 29.55 -10.1 29.95 -10.1 30.4 L-10.05 30.65 -10.0 30.65" fill="#57352d" fill-rule="evenodd" stroke="none"/>
    <path d="M-17.65 26.15 Q-16.1 21.4 -10.25 21.4 -5.0 21.4 -3.25 23.95 L-2.4 25.7 -1.85 26.4 -4.3 28.35 -4.25 27.75 Q-4.75 23.15 -7.9 23.15 L-9.6 25.35 Q-11.3 27.5 -14.25 27.5 -16.55 27.5 -17.65 26.15 M-8.3 26.9 L-8.65 26.9 -8.7 26.85 -7.95 25.65 -8.3 26.9" fill="#b45f50" fill-rule="evenodd" stroke="none"/>
    <path d="M-17.65 26.15 Q-16.55 27.5 -14.25 27.5 -11.3 27.5 -9.6 25.35 L-7.9 23.15 Q-4.75 23.15 -4.25 27.75 L-4.3 28.35 -5.9 29.2 -6.0 29.0 -6.1 28.3 -6.1 28.2 -6.25 27.9 -6.35 27.75 -8.0 26.95 -8.3 26.9 -7.95 25.65 -7.65 24.2 -8.0 23.85 -8.4 24.0 Q-9.0 25.7 -10.55 27.15 -12.8 29.25 -15.85 29.25 -18.0 29.25 -18.0 27.4 L-17.65 26.15 M-7.4 23.55 L-7.45 24.2 -7.65 24.25 -7.75 25.3 -7.75 25.65 -7.4 24.9 -7.4 23.55" fill="#a05345" fill-rule="evenodd" stroke="none"/>
  </g>
</svg>
