<?xml version="1.0" encoding="UTF-8" standalone="no"?>
<svg xmlns:ffdec="https://www.free-decompiler.com/flash" xmlns:xlink="http://www.w3.org/1999/xlink" ffdec:objectType="shape" height="16.6px" width="36.9px" xmlns="http://www.w3.org/2000/svg">
  <g transform="matrix(1.0, 0.0, 0.0, 1.0, 38.15, -8.4)">
    <path d="M-6.1 8.6 L-6.55 8.85 Q-1.8 8.9 -1.25 16.1 -4.3 25.2 -9.3 25.0 -14.35 24.75 -20.3 23.5 -26.0 22.3 -29.5 20.65 -34.4 20.45 -36.65 19.05 L-38.15 16.45 Q-28.45 19.75 -18.7 16.45 -11.95 14.0 -7.1 8.6 L-6.3 8.5 Q-5.4 8.6 -6.1 8.6 M-3.7 17.35 L-7.25 17.1 Q-8.5 17.1 -9.35 19.75 -10.05 21.8 -9.7 23.1 -9.4 22.75 -7.95 22.75 -6.6 22.75 -4.85 19.6 L-3.65 17.35 -3.5 16.95 -3.7 17.35 M-3.25 15.85 Q-3.25 12.9 -7.9 11.9 -9.25 13.85 -13.4 16.7 -17.35 19.35 -22.35 20.25 L-18.5 21.15 -12.25 22.45 -11.1 22.9 -10.95 21.3 Q-10.75 19.85 -9.6 17.55 -8.45 15.2 -6.75 15.25 -5.05 15.25 -3.75 15.75 L-3.25 15.95 -3.25 15.85" fill="#463624" fill-rule="evenodd" stroke="none"/>
    <path d="M-3.65 17.35 L-4.85 19.6 Q-6.6 22.75 -7.95 22.75 -9.4 22.75 -9.7 23.1 -10.05 21.8 -9.35 19.75 -8.5 17.1 -7.25 17.1 L-3.7 17.35 -3.65 17.35" fill="#b45f50" fill-rule="evenodd" stroke="none"/>
    <path d="M-3.25 15.95 L-3.75 15.75 Q-5.05 15.25 -6.75 15.25 -8.45 15.2 -9.6 17.55 -10.75 19.85 -10.95 21.3 L-11.1 22.9 -12.25 22.45 -18.5 21.15 -22.35 20.25 Q-17.35 19.35 -13.4 16.7 -9.25 13.85 -7.9 11.9 -3.25 12.9 -3.25 15.85 L-3.25 15.95" fill="#57352d" fill-rule="evenodd" stroke="none"/>
  </g>
</svg>
