<?xml version="1.0" encoding="UTF-8" standalone="no"?>
<svg xmlns:ffdec="https://www.free-decompiler.com/flash" xmlns:xlink="http://www.w3.org/1999/xlink" ffdec:objectType="shape" height="7.85px" width="23.45px" xmlns="http://www.w3.org/2000/svg">
  <g transform="matrix(1.0, 0.0, 0.0, 1.0, 31.05, -20.15)">
    <path d="M-9.7 21.85 L-9.35 22.1 -9.65 21.85 -10.1 21.6 -10.4 21.65 -12.95 21.4 Q-23.45 21.4 -26.3 22.75 -25.75 23.85 -25.75 24.65 L-25.75 25.6 -20.6 24.9 -17.1 25.2 Q-17.0 24.05 -15.25 22.9 -13.3 21.65 -10.75 21.65 L-9.7 21.85 M-8.5 24.55 Q-8.5 23.35 -8.95 22.6 -9.65 23.2 -11.2 23.2 -13.15 23.15 -13.75 23.6 -14.8 24.3 -14.85 25.0 -14.9 25.35 -15.7 25.35 L-15.75 25.4 -15.0 25.55 -9.1 26.15 Q-8.5 26.15 -8.5 24.55 M-9.65 27.25 L-14.8 26.65 -21.1 26.0 Q-24.25 26.0 -26.85 27.0 -29.45 28.0 -30.1 28.0 L-30.55 27.9 -30.75 27.4 Q-30.75 26.75 -26.95 25.85 L-26.55 25.75 Q-27.5 24.85 -27.5 22.7 L-30.9 24.0 Q-31.05 24.4 -31.05 23.75 -31.05 23.0 -26.85 22.0 L-27.3 22.1 Q-26.8 21.55 -25.05 21.3 L-20.65 20.85 -17.6 20.55 -14.75 20.25 -13.0 20.15 -10.25 20.45 Q-7.5 21.15 -7.6 24.5 -7.6 27.25 -9.65 27.25" fill="#463624" fill-rule="evenodd" stroke="none"/>
    <path d="M-8.5 24.55 Q-8.5 26.15 -9.1 26.15 L-15.0 25.55 -15.75 25.4 -15.7 25.35 Q-14.9 25.35 -14.85 25.0 -14.8 24.3 -13.75 23.6 -13.15 23.15 -11.2 23.2 -9.65 23.2 -8.95 22.6 -8.5 23.35 -8.5 24.55" fill="#b45f50" fill-rule="evenodd" stroke="none"/>
    <path d="M-9.65 21.85 L-9.7 21.85 -10.75 21.65 Q-13.3 21.65 -15.25 22.9 -17.0 24.05 -17.1 25.2 L-20.6 24.9 -25.75 25.6 -25.75 24.65 Q-25.75 23.85 -26.3 22.75 -23.45 21.4 -12.95 21.4 L-10.4 21.65 -10.1 21.6 -9.65 21.85" fill="#57352d" fill-rule="evenodd" stroke="none"/>
  </g>
</svg>
