<?xml version="1.0" encoding="UTF-8" standalone="no"?>
<svg xmlns:ffdec="https://www.free-decompiler.com/flash" xmlns:xlink="http://www.w3.org/1999/xlink" ffdec:objectType="shape" height="170.85px" width="88.8px" xmlns="http://www.w3.org/2000/svg">
  <g transform="matrix(1.0, 0.0, 0.0, 1.0, 42.25, 137.5)">
    <path d="M-28.9 -57.85 L-28.95 -57.75 -28.95 -57.8 -28.9 -57.85" fill="#1d6774" fill-rule="evenodd" stroke="none"/>
    <path d="M-38.45 -10.2 Q-37.6 -9.65 -36.4 -9.05 L-36.6 -6.8 Q-37.75 8.0 -26.45 19.25 -14.6 31.0 2.9 31.05 14.9 31.0 24.1 25.35 L25.6 22.75 Q25.75 22.3 26.35 22.25 L27.25 22.3 27.7 22.85 31.65 19.25 Q42.25 8.0 40.45 -6.8 L40.15 -8.6 42.15 -9.8 42.65 -6.8 Q44.65 8.75 33.45 20.65 29.95 24.2 26.0 26.95 25.6 27.0 25.55 27.2 15.7 33.2 3.0 33.35 -15.75 33.15 -28.2 20.65 -40.05 8.75 -38.85 -6.8 L-38.45 -10.2 M31.2 -5.05 L33.3 -5.7 33.8 -2.75 33.55 -2.1 Q33.15 -1.9 32.8 -1.8 32.2 -1.9 32.0 -2.1 31.5 -2.4 31.55 -2.75 L31.2 -5.05 M32.1 -0.6 Q32.35 -1.0 32.85 -0.85 33.3 -0.95 33.65 -0.5 L34.05 0.15 34.1 3.1 33.65 3.85 32.8 4.05 32.05 3.6 Q31.55 3.25 31.7 2.9 L31.8 0.0 Q31.7 -0.4 32.1 -0.6 M29.0 16.6 Q29.25 16.4 29.85 16.6 L30.5 17.25 30.55 18.05 29.25 21.05 28.55 21.55 27.7 21.45 Q27.15 21.15 27.1 20.85 26.75 20.35 27.05 20.05 L28.25 17.2 Q28.45 16.75 29.0 16.6 M32.45 11.4 L32.55 12.25 31.6 15.15 31.1 15.75 30.2 15.75 29.45 15.2 Q29.25 14.75 29.35 14.35 L30.25 11.55 Q30.35 11.05 30.85 10.9 31.15 10.7 31.7 10.9 L32.45 11.4 M31.85 5.15 L32.75 5.05 Q33.15 5.1 33.45 5.45 L33.8 6.2 33.15 9.15 32.8 9.8 31.85 10.0 31.1 9.45 Q30.7 9.0 30.85 8.65 L31.4 5.85 Q31.4 5.3 31.85 5.15" fill="#64321a" fill-rule="evenodd" stroke="none"/>
    <path d="M-36.4 -9.05 Q-32.75 -7.2 -25.9 -5.25 -15.85 -2.45 2.3 -1.9 L6.05 -1.85 Q20.35 -1.9 31.2 -5.05 L31.55 -2.75 Q31.5 -2.4 32.0 -2.1 32.2 -1.9 32.8 -1.8 33.15 -1.9 33.55 -2.1 L33.8 -2.75 33.3 -5.7 Q37.35 -7.1 40.15 -8.6 L40.45 -6.8 Q42.25 8.0 31.65 19.25 L27.7 22.85 27.25 22.3 26.35 22.25 Q25.75 22.3 25.6 22.75 L24.1 25.35 Q14.9 31.0 2.9 31.05 -14.6 31.0 -26.45 19.25 -37.75 8.0 -36.6 -6.8 L-36.4 -9.05 M32.1 -0.6 Q31.7 -0.4 31.8 0.0 L31.7 2.9 Q31.55 3.25 32.05 3.6 L32.8 4.05 33.65 3.85 34.1 3.1 34.05 0.15 33.65 -0.5 Q33.3 -0.95 32.85 -0.85 32.35 -1.0 32.1 -0.6 M31.85 5.15 Q31.4 5.3 31.4 5.85 L30.85 8.65 Q30.7 9.0 31.1 9.45 L31.85 10.0 32.8 9.8 33.15 9.15 33.8 6.2 33.45 5.45 Q33.15 5.1 32.75 5.05 L31.85 5.15 M32.45 11.4 L31.7 10.9 Q31.15 10.7 30.85 10.9 30.35 11.05 30.25 11.55 L29.35 14.35 Q29.25 14.75 29.45 15.2 L30.2 15.75 31.1 15.75 31.6 15.15 32.55 12.25 32.45 11.4 M29.0 16.6 Q28.45 16.75 28.25 17.2 L27.05 20.05 Q26.75 20.35 27.1 20.85 27.15 21.15 27.7 21.45 L28.55 21.55 29.25 21.05 30.55 18.05 30.5 17.25 29.85 16.6 Q29.25 16.4 29.0 16.6 M-4.5 6.7 Q9.1 6.0 17.45 1.7 14.9 -0.8 8.85 0.25 -0.85 1.8 -14.15 -1.6 -27.35 -5.1 -31.1 -2.85 -35.05 -0.85 -31.05 6.0 -26.9 12.95 -20.05 16.95 -13.35 21.1 -3.25 21.15 6.6 21.1 13.45 16.95 17.35 14.45 18.75 10.9 11.7 15.2 4.45 14.55 12.45 13.3 19.3 7.9 L19.25 5.7 19.15 4.9 Q7.3 8.75 -4.5 6.75 L-4.5 6.7" fill="#7b4411" fill-rule="evenodd" stroke="none"/>
    <path d="M-4.5 6.75 Q7.3 8.75 19.15 4.9 L19.25 5.7 19.3 7.9 Q12.45 13.3 4.45 14.55 11.7 15.2 18.75 10.9 17.35 14.45 13.45 16.95 6.6 21.1 -3.25 21.15 -13.35 21.1 -20.05 16.95 -26.9 12.95 -31.05 6.0 -35.05 -0.85 -31.1 -2.85 -27.35 -5.1 -14.15 -1.6 -0.85 1.8 8.85 0.25 14.9 -0.8 17.45 1.7 9.1 6.0 -4.5 6.7 L-4.55 6.7 -4.5 6.75" fill="#a85c17" fill-rule="evenodd" stroke="none"/>
    <path d="M-28.9 -57.85 L-27.9 -61.1 Q-23.85 -74.2 -22.2 -87.55 -20.55 -101.3 -21.8 -114.9 L-21.8 -115.0 Q-21.85 -121.15 -20.2 -125.7 L-19.0 -128.45 Q-16.25 -134.05 -11.75 -135.95 L-11.3 -136.1 -8.15 -137.15 -4.85 -137.5 -3.65 -137.45 Q-0.1 -137.2 5.4 -133.3 L5.45 -133.25 Q10.7 -129.45 15.25 -121.8 L18.6 -115.65 Q22.25 -109.45 25.05 -102.6 28.7 -93.9 31.55 -84.65 33.85 -76.9 35.7 -68.85 L39.0 -52.5 Q40.8 -43.25 42.0 -33.5 42.8 -26.4 46.25 -18.45 L46.3 -18.4 46.3 -18.35 46.55 -17.1 46.55 -16.95 Q46.55 -13.55 43.25 -10.65 L42.15 -9.8 40.15 -8.6 Q37.35 -7.1 33.3 -5.7 L31.2 -5.05 Q20.35 -1.9 6.05 -1.85 L2.3 -1.9 Q-15.85 -2.45 -25.9 -5.25 -32.75 -7.2 -36.4 -9.05 -37.6 -9.65 -38.45 -10.2 L-39.15 -10.75 -39.1 -10.75 Q-42.05 -12.85 -42.2 -16.9 L-42.15 -18.15 -42.15 -18.35 -42.05 -18.5 Q-35.55 -32.25 -31.65 -46.7 L-28.95 -57.75 -28.9 -57.85 M5.3 -130.25 L5.45 -130.55 3.5 -132.15 2.7 -132.7 Q3.45 -130.9 3.0 -128.65 L2.85 -128.15 Q1.95 -125.05 -1.25 -122.75 -4.65 -120.45 -8.8 -120.4 L-8.85 -120.4 Q-13.15 -120.45 -15.65 -122.85 L-15.95 -123.15 Q-17.5 -124.9 -17.65 -127.0 L-18.95 -123.45 -18.7 -123.25 -17.55 -121.9 -17.6 -121.9 -16.7 -121.15 Q-13.9 -119.05 -9.5 -119.0 -4.35 -119.05 0.0 -121.95 2.9 -124.05 4.25 -126.6 L5.15 -129.0 5.1 -128.95 5.3 -130.25 M1.05 -129.1 L1.1 -129.4 1.15 -130.8 Q0.95 -132.3 -0.25 -133.45 -2.25 -135.4 -5.6 -135.4 -9.2 -135.4 -12.05 -133.35 L-13.65 -132.05 Q-15.1 -130.55 -15.5 -128.65 -16.0 -126.65 -14.9 -125.05 L-14.25 -124.3 Q-12.25 -122.45 -8.85 -122.4 L-8.8 -122.4 Q-5.3 -122.45 -2.4 -124.4 0.4 -126.4 1.05 -129.1 M12.85 -121.5 L11.5 -123.4 Q8.95 -127.1 6.25 -129.75 L6.1 -128.8 6.1 -128.75 5.15 -126.15 5.05 -125.95 Q3.6 -123.3 0.55 -121.15 L0.55 -121.1 Q-4.05 -118.05 -9.5 -118.0 -14.2 -118.05 -17.2 -120.25 L-17.3 -120.35 -18.25 -121.15 -18.3 -121.2 -19.25 -122.3 -19.5 -120.8 Q-20.0 -118.2 -19.9 -115.05 L-19.65 -112.15 -19.5 -109.1 Q-19.25 -103.15 -19.5 -97.2 -19.75 -92.35 -20.3 -87.35 L-20.6 -85.1 Q-21.45 -78.95 -22.8 -72.85 -24.2 -66.65 -26.05 -60.5 L-26.1 -60.35 -27.1 -57.35 -27.55 -54.55 -29.1 -47.3 -29.25 -46.25 -30.2 -41.9 Q-31.0 -38.3 -32.55 -34.05 -34.45 -29.05 -37.35 -23.25 L-40.25 -17.75 -40.25 -17.1 Q-40.2 -14.15 -37.95 -12.5 L-37.9 -12.45 -36.05 -11.1 Q-33.2 -9.35 -28.55 -7.75 -15.95 -3.55 2.1 -3.55 20.0 -3.55 32.65 -7.75 36.9 -9.2 39.7 -10.8 L41.6 -12.1 42.0 -12.4 Q44.5 -14.5 44.6 -16.9 L44.4 -17.75 44.4 -17.6 41.85 -21.9 Q37.95 -28.85 36.8 -34.0 36.3 -36.1 36.4 -37.95 L35.9 -47.35 35.35 -53.15 34.3 -60.4 32.55 -69.35 31.7 -72.85 28.8 -85.45 28.8 -85.55 Q27.35 -91.4 24.95 -97.8 L23.3 -101.9 19.6 -109.95 17.0 -114.75 17.0 -114.8 12.85 -121.5" fill="#0f625e" fill-rule="evenodd" stroke="none"/>
    <path d="M5.3 -130.25 L5.1 -128.95 5.15 -129.0 4.25 -126.6 Q2.9 -124.05 0.0 -121.95 -4.35 -119.05 -9.5 -119.0 -13.9 -119.05 -16.7 -121.15 L-17.6 -121.9 -17.55 -121.9 -18.7 -123.25 -18.95 -123.45 -17.65 -127.0 Q-17.5 -124.9 -15.95 -123.15 L-15.65 -122.85 Q-13.15 -120.45 -8.85 -120.4 L-8.8 -120.4 Q-4.65 -120.45 -1.25 -122.75 1.95 -125.05 2.85 -128.15 L3.0 -128.65 Q3.45 -130.9 2.7 -132.7 L3.5 -132.15 5.45 -130.55 5.3 -130.25 M5.05 -125.95 L5.15 -126.15 6.1 -128.75 6.1 -128.8 6.25 -129.75 Q8.95 -127.1 11.5 -123.4 L12.85 -121.5 Q11.75 -120.3 9.65 -118.95 L9.3 -119.7 Q7.25 -123.5 5.05 -125.95 M19.6 -109.95 L23.3 -101.9 24.95 -97.8 Q23.3 -96.3 19.7 -94.65 12.9 -91.75 3.35 -91.15 L2.25 -91.1 1.9 -92.4 Q1.6 -94.05 1.6 -95.65 1.4 -98.65 1.9 -101.7 1.95 -102.65 2.25 -103.4 9.45 -104.15 14.8 -106.75 18.1 -108.4 19.6 -109.95 M28.8 -85.45 L31.7 -72.85 Q29.65 -71.5 25.7 -70.0 20.9 -68.25 14.95 -67.35 16.8 -69.5 18.15 -72.05 L19.8 -75.75 Q20.85 -78.55 19.85 -81.1 L19.8 -81.25 23.1 -82.45 Q26.95 -84.0 28.8 -85.45 M34.3 -60.4 L35.35 -53.15 35.9 -47.35 Q33.45 -46.05 29.05 -44.6 18.95 -41.5 4.8 -40.9 -0.45 -40.7 -5.05 -40.9 L-16.95 -42.25 -17.0 -42.3 -17.25 -42.35 -19.0 -42.75 -23.45 -44.15 -24.05 -44.8 Q-23.5 -45.95 -22.4 -46.2 -18.8 -47.45 -14.95 -47.9 L-1.25 -48.35 0.5 -48.45 Q11.4 -49.65 22.0 -52.35 L23.25 -53.1 Q22.85 -53.9 22.1 -54.1 L18.05 -54.45 15.6 -54.7 Q22.15 -55.65 27.5 -57.4 31.95 -58.95 34.3 -60.4 M36.8 -34.0 Q37.95 -28.85 41.85 -21.9 38.9 -20.2 32.45 -18.4 20.6 -15.25 3.85 -14.55 -13.0 -14.0 -24.2 -16.55 -29.85 -17.85 -32.95 -19.2 -36.2 -20.7 -36.9 -22.2 L-37.35 -23.25 Q-34.45 -29.05 -32.55 -34.05 -30.6 -32.25 -25.2 -30.6 L-28.5 -29.75 Q-30.8 -30.15 -32.6 -28.65 -34.05 -27.5 -34.35 -25.55 L-34.45 -24.15 Q-33.95 -23.4 -31.2 -22.3 -28.5 -21.3 -20.6 -20.05 L2.6 -18.4 Q17.8 -18.0 23.55 -19.85 29.25 -21.75 23.3 -23.45 L14.85 -25.95 Q11.75 -26.9 12.75 -28.45 22.5 -29.4 30.1 -31.6 34.2 -32.85 36.8 -34.0 M-19.5 -120.8 L-19.25 -122.3 -18.3 -121.2 -18.25 -121.15 -17.3 -120.35 -17.2 -120.25 -17.7 -118.8 Q-18.95 -119.8 -19.5 -120.8" fill="#149679" fill-rule="evenodd" stroke="none"/>
    <path d="M0.3 -129.0 L0.4 -129.8 0.4 -129.95 Q0.45 -131.8 -0.9 -133.1 -2.65 -134.85 -5.65 -134.8 -8.65 -134.85 -11.1 -133.1 -12.45 -132.2 -13.2 -131.1 -13.9 -130.1 -14.1 -129.0 -14.45 -127.6 -13.95 -126.4 L-12.9 -124.9 Q-11.2 -123.2 -8.2 -123.15 -5.2 -123.2 -2.7 -124.9 -0.25 -126.6 0.3 -129.0 M1.05 -129.1 Q0.4 -126.4 -2.4 -124.4 -5.3 -122.45 -8.8 -122.4 L-8.85 -122.4 Q-12.25 -122.45 -14.25 -124.3 L-14.9 -125.05 Q-16.0 -126.65 -15.5 -128.65 -15.1 -130.55 -13.65 -132.05 L-12.05 -133.35 Q-9.2 -135.4 -5.6 -135.4 -2.25 -135.4 -0.25 -133.45 0.95 -132.3 1.15 -130.8 L1.1 -129.4 1.05 -129.1" fill="#db9c64" fill-rule="evenodd" stroke="none"/>
    <path d="M0.3 -129.0 Q-0.25 -126.6 -2.7 -124.9 -5.2 -123.2 -8.2 -123.15 -11.2 -123.2 -12.9 -124.9 L-13.95 -126.4 Q-14.45 -127.6 -14.1 -129.0 -13.9 -130.1 -13.2 -131.1 -12.45 -132.2 -11.1 -133.1 -8.65 -134.85 -5.65 -134.8 -2.65 -134.85 -0.9 -133.1 0.45 -131.8 0.4 -129.95 L0.4 -129.8 0.3 -129.0" fill="#f1ba87" fill-rule="evenodd" stroke="none"/>
    <path d="M12.85 -121.5 L17.0 -114.8 17.0 -114.75 19.6 -109.95 Q18.1 -108.4 14.8 -106.75 9.45 -104.15 2.25 -103.4 3.35 -109.05 6.4 -113.7 L8.6 -116.9 9.3 -118.05 9.65 -118.95 Q11.75 -120.3 12.85 -121.5 M24.95 -97.8 Q27.35 -91.4 28.8 -85.55 L28.8 -85.45 Q26.95 -84.0 23.1 -82.45 L19.8 -81.25 19.05 -82.45 Q17.85 -83.8 16.1 -84.3 L15.3 -84.45 9.15 -85.6 Q6.0 -85.9 4.1 -87.8 3.2 -88.65 2.8 -89.7 L2.25 -91.1 3.35 -91.15 Q12.9 -91.75 19.7 -94.65 23.3 -96.3 24.95 -97.8 M31.7 -72.85 L32.55 -69.35 34.3 -60.4 Q31.95 -58.95 27.5 -57.4 22.15 -55.65 15.6 -54.7 L-3.95 -57.15 Q-8.2 -57.65 -11.75 -59.75 L-9.2 -59.55 -4.35 -59.4 Q1.7 -59.35 7.3 -61.8 11.85 -63.8 14.95 -67.35 20.9 -68.25 25.7 -70.0 29.65 -71.5 31.7 -72.85 M35.9 -47.35 L36.4 -37.95 Q36.3 -36.1 36.8 -34.0 34.2 -32.85 30.1 -31.6 22.5 -29.4 12.75 -28.45 L13.15 -28.95 Q14.85 -30.85 18.0 -32.6 L22.65 -35.15 Q24.15 -35.85 25.8 -36.35 27.5 -36.95 29.25 -37.95 L29.6 -38.2 28.45 -38.6 24.95 -38.95 1.9 -40.3 -5.05 -40.9 Q-0.45 -40.7 4.8 -40.9 18.95 -41.5 29.05 -44.6 33.45 -46.05 35.9 -47.35 M41.85 -21.9 L44.4 -17.6 44.4 -17.75 44.6 -16.9 Q44.5 -14.5 42.0 -12.4 L41.6 -12.1 39.7 -10.8 Q36.9 -9.2 32.65 -7.75 20.0 -3.55 2.1 -3.55 -15.95 -3.55 -28.55 -7.75 -33.2 -9.35 -36.05 -11.1 L-37.9 -12.45 -37.95 -12.5 Q-40.2 -14.15 -40.25 -17.1 L-40.25 -17.75 -37.35 -23.25 -36.9 -22.2 Q-36.2 -20.7 -32.95 -19.2 -29.85 -17.85 -24.2 -16.55 -13.0 -14.0 3.85 -14.55 20.6 -15.25 32.45 -18.4 38.9 -20.2 41.85 -21.9 M-32.55 -34.05 Q-31.0 -38.3 -30.2 -41.9 L-29.25 -46.25 Q-29.25 -43.6 -28.7 -40.95 -28.25 -38.65 -26.5 -37.0 -25.7 -36.25 -24.45 -36.05 L-21.45 -34.95 Q-20.65 -34.65 -20.15 -33.9 L-20.4 -33.25 Q-20.9 -32.4 -21.9 -31.9 -23.5 -31.2 -25.2 -30.6 -30.6 -32.25 -32.55 -34.05 M-19.65 -112.15 L-19.9 -115.05 Q-20.0 -118.2 -19.5 -120.8 -18.95 -119.8 -17.7 -118.8 -18.75 -115.95 -19.65 -112.15 M7.2 -8.95 L14.9 -9.25 26.9 -10.5 Q30.75 -12.05 32.1 -13.6 32.6 -14.15 32.75 -14.65 L32.8 -15.55 Q21.2 -12.75 4.9 -12.7 -12.0 -12.75 -23.85 -15.7 -28.6 -16.95 -33.1 -19.0 L-35.45 -20.15 -35.6 -19.15 Q-35.75 -14.95 -23.9 -11.9 -12.0 -9.05 4.9 -8.9 L7.2 -8.95" fill="#22c1dd" fill-rule="evenodd" stroke="none"/>
    <path d="M-29.25 -46.25 L-29.1 -47.3 Q-27.6 -45.6 -23.45 -44.15 -23.05 -43.8 -22.35 -43.6 L-19.05 -42.6 -17.25 -42.3 -17.0 -42.3 -16.95 -42.25 Q-11.7 -41.2 -5.05 -40.9 L1.9 -40.3 24.95 -38.95 28.45 -38.6 29.6 -38.2 29.25 -37.95 Q27.5 -36.95 25.8 -36.35 24.15 -35.85 22.65 -35.15 L18.0 -32.6 Q14.85 -30.85 13.15 -28.95 L12.75 -28.45 3.8 -27.8 Q-11.65 -27.25 -21.95 -29.75 L-25.2 -30.6 Q-23.5 -31.2 -21.9 -31.9 -20.9 -32.4 -20.4 -33.25 L-20.15 -33.9 Q-20.65 -34.65 -21.45 -34.95 L-24.45 -36.05 Q-25.7 -36.25 -26.5 -37.0 -28.25 -38.65 -28.7 -40.95 -29.25 -43.6 -29.25 -46.25 M-26.1 -60.35 L-26.05 -60.5 Q-24.2 -66.65 -22.8 -72.85 -21.15 -70.4 -14.2 -68.25 -6.3 -65.85 5.6 -66.4 L14.95 -67.35 Q11.85 -63.8 7.3 -61.8 1.7 -59.35 -4.35 -59.4 L-9.2 -59.55 -11.75 -59.75 Q-8.2 -57.65 -3.95 -57.15 L15.6 -54.7 5.2 -53.7 Q-7.95 -53.15 -16.6 -55.65 -24.4 -57.85 -26.1 -60.35 M-20.6 -85.1 L-20.3 -87.35 Q-19.75 -92.35 -19.5 -97.2 -18.7 -95.9 -16.55 -94.65 -15.0 -93.85 -12.7 -93.0 L-11.45 -92.55 Q-5.8 -90.85 2.25 -91.1 L2.8 -89.7 Q3.2 -88.65 4.1 -87.8 6.0 -85.9 9.15 -85.6 L15.3 -84.45 16.1 -84.3 Q17.85 -83.8 19.05 -82.45 L19.8 -81.25 Q13.25 -79.35 4.9 -78.85 -5.2 -78.4 -12.1 -80.4 L-12.95 -80.7 Q-15.7 -81.6 -17.45 -82.6 -19.75 -83.8 -20.6 -85.1 M-19.5 -109.1 L-19.65 -112.15 Q-18.75 -115.95 -17.7 -118.8 L-14.65 -116.95 Q-10.0 -114.7 -2.95 -115.2 L2.95 -116.2 Q6.25 -117.05 9.05 -118.6 L9.65 -118.95 9.3 -118.05 8.6 -116.9 6.4 -113.7 Q3.35 -109.05 2.25 -103.4 L0.4 -103.25 -7.85 -103.5 Q-11.05 -104.0 -13.6 -105.05 -16.75 -106.3 -18.3 -107.7 L-19.5 -109.1 M7.2 -8.95 L4.9 -8.9 Q-12.0 -9.05 -23.9 -11.9 -35.75 -14.95 -35.6 -19.15 L-35.45 -20.15 -33.1 -19.0 Q-28.6 -16.95 -23.85 -15.7 -12.0 -12.75 4.9 -12.7 21.2 -12.75 32.8 -15.55 L32.75 -14.65 Q32.6 -14.15 32.1 -13.6 30.75 -12.05 26.9 -10.5 L14.9 -9.25 7.2 -8.95" fill="#59d0e6" fill-rule="evenodd" stroke="none"/>
    <path d="M-29.1 -47.3 L-27.55 -54.55 -27.1 -57.35 -26.1 -60.35 Q-24.4 -57.85 -16.6 -55.65 -7.95 -53.15 5.2 -53.7 L15.6 -54.7 18.05 -54.45 22.1 -54.1 Q22.85 -53.9 23.25 -53.1 L22.0 -52.35 Q11.4 -49.65 0.5 -48.45 L-1.25 -48.35 -14.95 -47.9 Q-18.8 -47.45 -22.4 -46.2 -23.5 -45.95 -24.05 -44.8 L-23.45 -44.15 Q-27.6 -45.6 -29.1 -47.3 M-22.8 -72.85 Q-21.45 -78.95 -20.6 -85.1 -19.75 -83.8 -17.45 -82.6 -15.7 -81.6 -12.95 -80.7 L-12.1 -80.4 Q-5.2 -78.4 4.9 -78.85 13.25 -79.35 19.8 -81.25 L19.85 -81.1 Q20.85 -78.55 19.8 -75.75 L18.15 -72.05 Q16.8 -69.5 14.95 -67.35 L5.6 -66.4 Q-6.3 -65.85 -14.2 -68.25 -21.15 -70.4 -22.8 -72.85 M-19.5 -97.2 Q-19.25 -103.15 -19.5 -109.1 L-18.3 -107.7 Q-16.75 -106.3 -13.6 -105.05 -11.05 -104.0 -7.85 -103.5 L0.4 -103.25 2.25 -103.4 Q1.95 -102.65 1.9 -101.7 1.4 -98.65 1.6 -95.65 1.6 -94.05 1.9 -92.4 L2.25 -91.1 Q-5.8 -90.85 -11.45 -92.55 L-12.7 -93.0 Q-15.0 -93.85 -16.55 -94.65 -18.7 -95.9 -19.5 -97.2 M-17.2 -120.25 Q-14.2 -118.05 -9.5 -118.0 -4.05 -118.05 0.55 -121.1 L0.55 -121.15 Q3.6 -123.3 5.05 -125.95 7.25 -123.5 9.3 -119.7 L9.65 -118.95 9.05 -118.6 Q6.25 -117.05 2.95 -116.2 L-2.95 -115.2 Q-10.0 -114.7 -14.65 -116.95 L-17.7 -118.8 -17.2 -120.25 M12.75 -28.45 Q11.75 -26.9 14.85 -25.95 L23.3 -23.45 Q29.25 -21.75 23.55 -19.85 17.8 -18.0 2.6 -18.4 L-20.6 -20.05 Q-28.5 -21.3 -31.2 -22.3 -33.95 -23.4 -34.45 -24.15 L-34.35 -25.55 Q-34.05 -27.5 -32.6 -28.65 -30.8 -30.15 -28.5 -29.75 L-25.2 -30.6 -21.95 -29.75 Q-11.65 -27.25 3.8 -27.8 L12.75 -28.45" fill="#1bba96" fill-rule="evenodd" stroke="none"/>
    <path d="M-23.45 -44.15 L-19.0 -42.75 -17.25 -42.35 -17.25 -42.3 -19.05 -42.6 -22.35 -43.6 Q-23.05 -43.8 -23.45 -44.15 M-16.95 -42.25 L-5.05 -40.9 Q-11.7 -41.2 -16.95 -42.25" fill="#33b1cc" fill-rule="evenodd" stroke="none"/>
  </g>
</svg>
