<?xml version="1.0" encoding="UTF-8" standalone="no"?>
<svg xmlns:ffdec="https://www.free-decompiler.com/flash" xmlns:xlink="http://www.w3.org/1999/xlink" ffdec:objectType="shape" height="17.55px" width="27.85px" xmlns="http://www.w3.org/2000/svg">
  <g transform="matrix(1.0, 0.0, 0.0, 1.0, 23.6, 3.1)">
    <path d="M-2.2 -1.35 Q-0.25 -1.35 1.1 0.7 2.5 2.75 2.5 5.65 2.5 8.6 1.1 10.65 -0.25 12.65 -2.2 12.7 -4.15 12.65 -5.5 10.65 -6.85 8.6 -6.85 5.65 -6.85 4.05 -6.45 2.7 -6.15 1.6 -5.5 0.7 L-4.5 -0.45 Q-3.45 -1.35 -2.2 -1.35 M-14.9 10.95 Q-16.1 12.7 -17.75 12.7 -19.45 12.7 -20.65 10.95 -21.85 9.15 -21.85 6.65 -21.85 5.2 -21.45 4.05 L-20.65 2.35 -19.8 1.35 Q-18.9 0.55 -17.75 0.55 -16.1 0.55 -14.9 2.35 -13.7 4.1 -13.7 6.65 -13.7 9.15 -14.9 10.95 Z" fill="none" stroke="#000000" stroke-linecap="round" stroke-linejoin="round" stroke-width="3.5"/>
  </g>
</svg>
