<?xml version="1.0" encoding="UTF-8" standalone="no"?>
<svg xmlns:ffdec="https://www.free-decompiler.com/flash" xmlns:xlink="http://www.w3.org/1999/xlink" ffdec:objectType="shape" height="12.3px" width="27.85px" xmlns="http://www.w3.org/2000/svg">
  <g transform="matrix(1.0, 0.0, 0.0, 1.0, 23.6, -0.6)">
    <path d="M2.5 6.75 Q2.5 8.55 1.1 9.85 -0.25 11.1 -2.2 11.15 -4.15 11.1 -5.5 9.85 -6.85 8.55 -6.85 6.75 -6.85 5.7 -6.45 4.9 -6.15 4.2 -5.5 3.65 L-4.5 2.9 Q-3.45 2.35 -2.2 2.35 -0.25 2.35 1.1 3.65 2.5 4.9 2.5 6.75 M-17.75 11.15 Q-19.45 11.15 -20.65 10.05 -21.85 8.95 -21.85 7.35 -21.85 6.5 -21.45 5.75 L-20.65 4.65 -19.8 4.05 Q-18.9 3.55 -17.75 3.55 -16.1 3.55 -14.9 4.65 -13.7 5.75 -13.7 7.35 -13.7 8.95 -14.9 10.05 -16.1 11.15 -17.75 11.15 Z" fill="none" stroke="#000000" stroke-linecap="round" stroke-linejoin="round" stroke-width="3.5"/>
  </g>
</svg>
