<?xml version="1.0" encoding="UTF-8" standalone="no"?>
<svg xmlns:ffdec="https://www.free-decompiler.com/flash" xmlns:xlink="http://www.w3.org/1999/xlink" ffdec:objectType="shape" height="16.75px" width="27.45px" xmlns="http://www.w3.org/2000/svg">
  <g transform="matrix(1.0, 0.0, 0.0, 1.0, 23.55, 2.35)">
    <path d="M-5.15 -0.6 L-5.15 0.1 Q-7.2 3.25 -6.75 7.1 -6.5 9.6 -4.65 11.5 -3.3 13.0 -1.2 12.55 0.3 12.15 1.2 10.9 2.7 8.8 1.85 6.35 L0.8 4.35 -0.05 3.25 Q-2.2 0.8 -4.9 -0.55 L-5.15 -0.6 M-14.3 0.05 L-14.75 -0.05 -21.25 5.05 Q-22.2 6.45 -21.5 8.95 -21.05 10.65 -19.95 11.65 -18.3 13.35 -16.3 12.05 L-15.0 10.85 Q-13.9 9.55 -13.8 7.9 -13.6 4.75 -13.85 1.95 -13.9 1.1 -14.1 0.4 L-14.3 0.05 Z" fill="none" stroke="#000000" stroke-linecap="round" stroke-linejoin="round" stroke-width="3.5"/>
  </g>
</svg>
