<?xml version="1.0" encoding="UTF-8" standalone="no"?>
<svg xmlns:ffdec="https://www.free-decompiler.com/flash" xmlns:xlink="http://www.w3.org/1999/xlink" ffdec:objectType="shape" height="14.9px" width="27.9px" xmlns="http://www.w3.org/2000/svg">
  <g transform="matrix(1.0, 0.0, 0.0, 1.0, 23.6, 0.45)">
    <path d="M-7.9 7.3 L-6.8 6.6 1.5 1.3 Q2.5 3.15 2.55 5.65 2.5 8.55 1.1 10.6 -0.25 12.65 -2.15 12.65 -4.1 12.65 -5.5 10.6 -6.6 8.9 -6.8 6.6 M-13.7 6.1 L-21.3 3.6 -21.45 4.05 Q-21.85 5.2 -21.85 6.6 -21.85 9.15 -20.65 10.9 -19.45 12.7 -17.75 12.7 -16.1 12.7 -14.9 10.9 -13.7 9.15 -13.7 6.6 L-13.7 6.1 -13.15 6.3" fill="none" stroke="#000000" stroke-linecap="round" stroke-linejoin="round" stroke-width="3.5"/>
  </g>
</svg>
