<?xml version="1.0" encoding="UTF-8" standalone="no"?>
<svg xmlns:ffdec="https://www.free-decompiler.com/flash" xmlns:xlink="http://www.w3.org/1999/xlink" ffdec:objectType="shape" height="63.9px" width="92.75px" xmlns="http://www.w3.org/2000/svg">
  <g transform="matrix(1.0, 0.0, 0.0, 1.0, 48.65, 18.8)">
    <path d="M-13.9 27.2 Q-14.5 20.05 -13.35 15.15 L-12.9 13.05 Q-12.75 8.65 -9.05 4.3 -35.15 15.4 -36.1 41.9 L-36.1 42.05 Q-45.1 25.3 -34.15 8.05 L-33.75 7.4 Q-28.45 2.8 -24.8 1.55 -37.2 0.6 -46.25 5.5 L-46.3 5.5 Q-39.95 -1.35 -24.9 -5.2 L-24.45 -5.35 -23.75 -5.55 Q-12.15 -13.15 1.55 -14.75 15.25 -16.4 27.75 -10.0 40.2 -3.65 42.45 4.55 L24.95 3.05 Q-8.05 -1.4 -13.9 27.2" fill="#8f5521" fill-rule="evenodd" stroke="none"/>
    <path d="M36.8 7.2 Q28.8 10.15 17.5 6.8 -5.95 5.4 -13.25 29.1 L-14.15 31.8 -14.5 31.8 -15.15 29.05 Q-16.7 22.95 -15.7 16.8 L-20.15 19.5 Q-32.55 27.7 -34.85 42.6 L-35.3 45.1 -36.65 43.05 Q-48.2 26.95 -36.25 7.65 -39.35 4.85 -46.4 7.45 L-48.65 8.25 -47.65 6.15 Q-44.4 -2.0 -26.7 -6.8 -28.3 -8.9 -32.25 -10.05 L-35.0 -10.85 -35.0 -11.15 -32.25 -11.95 Q-18.55 -16.0 -4.4 -18.05 9.75 -20.2 23.7 -16.25 39.0 -11.8 41.7 -5.65 44.35 0.1 44.1 6.8 44.05 5.85 42.85 5.75 L42.8 4.1 Q42.35 1.55 39.85 -4.35 37.3 -10.2 23.15 -14.35 L23.15 -14.3 Q9.65 -18.1 -4.1 -16.05 L-30.05 -11.6 Q-25.3 -9.25 -24.2 -6.6 L-23.75 -5.55 -24.45 -5.35 -24.9 -5.2 Q-39.95 -1.35 -46.3 5.5 L-46.25 5.5 Q-37.3 2.85 -34.2 6.9 L-33.75 7.4 -34.15 8.05 Q-45.1 25.3 -36.1 42.05 L-36.1 41.9 Q-33.25 25.75 -21.25 17.85 -18.15 15.75 -14.8 14.0 L-12.9 13.05 -13.35 15.15 Q-14.5 20.05 -13.9 27.2 -5.5 3.35 17.65 4.8 L17.75 4.8 17.9 4.85 Q28.55 8.05 36.8 7.2" fill="#4d2e11" fill-rule="evenodd" stroke="none"/>
    <path d="M36.8 7.2 Q28.55 8.05 17.9 4.85 L17.75 4.8 17.65 4.8 Q-5.5 3.35 -13.9 27.2 -8.05 -1.4 24.95 3.05 L42.45 4.55 Q40.2 -3.65 27.75 -10.0 15.25 -16.4 1.55 -14.75 -12.15 -13.15 -23.75 -5.55 L-24.2 -6.6 Q-25.3 -9.25 -30.05 -11.6 L-4.1 -16.05 Q9.65 -18.1 23.15 -14.3 L23.15 -14.35 Q37.3 -10.2 39.85 -4.35 42.35 1.55 42.8 4.1 L42.85 5.75 Q42.65 6.2 42.05 5.75 40.2 5.9 36.8 7.2 M-12.9 13.05 L-14.8 14.0 Q-18.15 15.75 -21.25 17.85 -33.25 25.75 -36.1 41.9 -35.15 15.4 -9.05 4.3 -12.75 8.65 -12.9 13.05 M-33.75 7.4 L-34.2 6.9 Q-37.3 2.85 -46.25 5.5 -37.2 0.6 -24.8 1.55 -28.45 2.8 -33.75 7.4" fill="#76461b" fill-rule="evenodd" stroke="none"/>
  </g>
</svg>
