<?xml version="1.0" encoding="UTF-8" standalone="no"?>
<svg xmlns:ffdec="https://www.free-decompiler.com/flash" xmlns:xlink="http://www.w3.org/1999/xlink" ffdec:objectType="shape" height="85.55px" width="85.55px" xmlns="http://www.w3.org/2000/svg">
  <g transform="matrix(1.0, 0.0, 0.0, 1.0, 35.75, 66.25)">
    <path d="M-32.95 -14.0 Q-29.6 -22.7 -22.0 -29.0 -21.9 -21.5 -17.0 -15.0 -2.3 -35.15 5.65 -37.95 13.55 -40.8 20.3 -38.1 22.3 -37.25 23.95 -36.3 21.4 -34.6 18.25 -33.0 25.45 -33.75 29.9 -31.9 31.35 -27.05 31.4 -21.55 31.35 -10.8 25.6 -2.35 23.6 0.55 20.95 3.15 10.5 13.4 -4.3 13.4 L-10.1 13.0 -12.05 12.65 Q-17.5 9.8 -22.15 5.15 -30.5 -3.2 -32.95 -14.0" fill="#ffcc99" fill-rule="evenodd" stroke="none"/>
    <path d="M-22.05 -52.0 L-20.1 -53.0 Q-15.7 -56.25 -10.6 -58.0 L-10.1 -58.15 Q-4.5 -60.0 1.9 -60.0 17.65 -60.0 28.75 -48.9 L32.65 -44.45 Q30.5 -41.4 27.0 -38.55 L23.95 -36.3 Q22.3 -37.25 20.3 -38.1 13.55 -40.8 5.65 -37.95 -2.3 -35.15 -17.0 -15.0 -21.9 -21.5 -22.0 -29.0 -29.6 -22.7 -32.95 -14.0 -34.0 -18.55 -34.0 -23.45 -34.0 -37.6 -25.6 -48.25 L-22.55 -51.75 -22.05 -52.0 M-12.05 12.65 L-10.1 13.0 -4.3 13.4 Q10.5 13.4 20.95 3.15 23.6 0.55 25.6 -2.35 31.35 -10.8 31.4 -21.55 31.35 -27.05 29.9 -31.9 32.55 -30.8 34.25 -28.75 L31.5 -24.9 Q37.3 -23.65 38.45 -19.6 L37.65 -16.5 39.4 -15.5 Q38.2 -8.4 34.5 -2.35 32.1 1.45 28.75 4.8 17.65 15.95 1.9 15.95 L-5.9 15.2 -10.1 13.6 -12.05 12.65" fill="#f1ba87" fill-rule="evenodd" stroke="none"/>
    <path d="M37.4 -49.75 L36.55 -49.85 33.0 -45.0 32.65 -44.45 28.75 -48.9 Q17.65 -60.0 1.9 -60.0 -4.5 -60.0 -10.1 -58.15 L-10.6 -58.0 Q-15.7 -56.25 -20.1 -53.0 L-22.05 -52.0 -22.15 -52.15 Q-16.85 -57.4 -10.6 -60.35 L-10.1 -60.55 Q-2.5 -64.0 6.55 -64.0 23.3 -64.0 35.15 -52.15 L37.4 -49.75 M39.4 -15.5 Q43.0 -13.05 43.75 -8.75 L44.9 -10.05 Q43.45 -6.0 41.2 -2.35 38.7 1.6 35.15 5.15 23.3 17.05 6.55 17.05 -0.1 17.05 -5.9 15.2 L1.9 15.95 Q17.65 15.95 28.75 4.8 32.1 1.45 34.5 -2.35 38.2 -8.4 39.4 -15.5" fill="#db9c64" fill-rule="evenodd" stroke="none"/>
    <path d="M37.25 -53.7 L40.3 -50.35 Q49.8 -38.85 49.8 -23.45 49.8 -17.3 48.3 -11.8 46.75 -6.15 43.6 -1.15 40.95 3.0 37.25 6.75 24.7 19.3 7.05 19.3 0.05 19.3 -6.05 17.35 L-10.1 15.85 -12.6 14.65 Q-18.35 11.6 -23.2 6.75 -27.05 2.9 -29.65 -1.4 L-33.7 -10.1 -34.15 -11.5 -34.3 -12.15 Q-35.75 -17.5 -35.75 -23.45 L-35.7 -25.25 -33.65 -37.05 -30.05 -44.95 Q-28.65 -47.4 -26.85 -49.65 L-26.9 -49.65 -23.65 -53.3 -23.5 -53.45 -23.4 -53.55 -23.35 -53.55 -23.2 -53.7 Q-17.65 -59.25 -11.05 -62.35 L-10.1 -62.8 Q-2.25 -66.25 7.05 -66.25 24.7 -66.25 37.25 -53.7 M37.4 -49.75 L35.15 -52.15 Q23.3 -64.0 6.55 -64.0 -2.5 -64.0 -10.1 -60.55 L-10.6 -60.35 Q-16.85 -57.4 -22.15 -52.15 L-22.05 -52.0 -22.55 -51.75 -25.6 -48.25 Q-34.0 -37.6 -34.0 -23.45 -34.0 -18.55 -32.95 -14.0 -30.5 -3.2 -22.15 5.15 -17.5 9.8 -12.05 12.65 L-10.1 13.6 -5.9 15.2 Q-0.1 17.05 6.55 17.05 23.3 17.05 35.15 5.15 38.7 1.6 41.2 -2.35 43.45 -6.0 44.9 -10.05 47.05 -16.3 47.05 -23.45 47.05 -38.6 37.4 -49.75" fill="#5c4730" fill-rule="evenodd" stroke="none"/>
    <path d="M32.65 -44.45 L33.0 -45.0 36.55 -49.85 37.4 -49.75 Q47.05 -38.6 47.05 -23.45 47.05 -16.3 44.9 -10.05 L43.75 -8.75 Q43.0 -13.05 39.4 -15.5 39.9 -18.65 39.9 -22.0 39.9 -34.75 32.65 -44.45" fill="#b87b45" fill-rule="evenodd" stroke="none"/>
    <path d="M32.65 -44.45 Q39.9 -34.75 39.9 -22.0 39.9 -18.65 39.4 -15.5 L37.65 -16.5 38.45 -19.6 Q37.3 -23.65 31.5 -24.9 L34.25 -28.75 Q32.55 -30.8 29.9 -31.9 28.8 -35.4 27.0 -38.55 30.5 -41.4 32.65 -44.45" fill="#c18b59" fill-rule="evenodd" stroke="none"/>
    <path d="M23.95 -36.3 L27.0 -38.55 Q28.8 -35.4 29.9 -31.9 25.45 -33.75 18.25 -33.0 21.4 -34.6 23.95 -36.3" fill="#cb9d74" fill-rule="evenodd" stroke="none"/>
  </g>
</svg>
