<?xml version="1.0" encoding="UTF-8" standalone="no"?>
<svg xmlns:ffdec="https://www.free-decompiler.com/flash" xmlns:xlink="http://www.w3.org/1999/xlink" ffdec:objectType="shape" height="23.1px" width="28.65px" xmlns="http://www.w3.org/2000/svg">
  <g transform="matrix(1.0, 0.0, 0.0, 1.0, 13.7, 24.8)">
    <path d="M14.9 -13.35 L14.95 -13.35 14.9 -13.35 M3.15 -14.5 L3.3 -14.5 3.15 -14.45 3.15 -14.5" fill="#832201" fill-rule="evenodd" stroke="none"/>
    <path d="M-5.8 -1.7 Q-6.65 -6.55 -7.8 -9.65 L-8.2 -10.55 Q-9.1 -12.75 -10.15 -14.65 L-13.55 -20.7 -13.7 -21.25 -13.5 -21.8 -13.0 -22.15 -4.6 -24.5 Q-0.7 -25.55 1.85 -22.7 L3.35 -20.6 3.4 -19.9 3.0 -18.3 3.05 -18.25 Q3.0 -17.0 3.1 -15.7 L3.1 -15.65 3.1 -15.5 3.15 -14.5 3.15 -14.45 3.45 -10.85 Q3.75 -8.65 4.2 -6.45 L4.6 -4.2 Q3.3 -5.35 2.7 -7.25 L1.75 -10.45 1.3 -12.05 1.25 -13.85 1.15 -14.9 1.1 -15.6 1.1 -18.35 1.1 -18.75 1.4 -20.0 0.45 -21.35 Q-1.35 -23.35 -4.1 -22.6 L-11.25 -20.6 -6.35 -11.65 -6.2 -11.4 -6.0 -11.05 -5.9 -10.75 -5.85 -10.7 -5.8 -10.6 -4.6 -4.65 Q-4.3 -3.25 -5.8 -1.7" fill="#6c3d28" fill-rule="evenodd" stroke="none"/>
    <path d="M-5.85 -10.7 L-5.9 -10.75 -6.0 -11.05 -6.2 -11.4 -6.35 -11.65 -11.25 -20.6 -4.1 -22.6 Q-1.35 -23.35 0.45 -21.35 L1.4 -20.0 1.1 -18.75 1.1 -18.35 1.1 -15.6 1.15 -14.9 1.25 -13.85 1.3 -12.05 0.1 -11.7 -0.85 -11.35 -4.95 -10.7 -5.8 -10.7 -5.85 -10.7" fill="#db9c64" fill-rule="evenodd" stroke="none"/>
    <path d="M4.6 -4.2 L-5.8 -1.7 Q-4.3 -3.25 -4.6 -4.65 L-5.8 -10.6 -5.8 -10.7 -4.95 -10.7 -0.85 -11.35 0.1 -11.7 1.3 -12.05 1.75 -10.45 2.7 -7.25 Q3.3 -5.35 4.6 -4.2" fill="#f1ba87" fill-rule="evenodd" stroke="none"/>
    <path d="M-5.8 -10.6 L-5.85 -10.7 -5.8 -10.7 -5.8 -10.6" fill="#83563a" fill-rule="evenodd" stroke="none"/>
  </g>
</svg>
