<?xml version="1.0" encoding="UTF-8" standalone="no"?>
<svg xmlns:ffdec="https://www.free-decompiler.com/flash" xmlns:xlink="http://www.w3.org/1999/xlink" ffdec:objectType="shape" height="22.1px" width="29.55px" xmlns="http://www.w3.org/2000/svg">
  <g transform="matrix(1.0, 0.0, 0.0, 1.0, 25.85, 7.7)">
    <path d="M2.35 -7.7 L3.35 -2.85 Q4.0 0.85 3.45 6.25 L3.25 6.65 3.1 6.95 Q-3.4 15.75 -14.4 14.15 -20.2 13.2 -23.6 7.4 L-23.55 7.4 -25.85 2.7 -25.55 2.5 -25.0 2.45 Q-19.3 4.45 -13.15 3.5 -3.15 1.8 1.55 -7.25 L1.95 -7.6 2.2 -7.6 2.25 -7.6 2.35 -7.7 M2.25 -0.4 L1.95 -4.4 1.9 -4.95 Q-3.15 3.25 -12.9 4.9 -16.7 5.5 -20.35 5.05 L-19.05 6.35 -18.9 6.4 -14.0 7.0 Q-10.75 7.0 -6.7 5.8 -4.3 5.05 -2.3 3.75 -1.4 3.15 0.65 1.2 L2.25 -0.4 M1.95 6.1 L2.0 6.05 2.05 5.4 2.1 5.05 Q-0.25 4.95 -1.0 5.9 L-1.55 7.7 -2.05 10.15 Q0.15 8.55 1.95 6.1 M2.15 4.25 L2.25 0.8 Q1.25 2.3 -1.25 4.05 -6.6 7.8 -14.25 7.8 -17.1 7.8 -18.6 7.2 L-18.95 7.3 Q-19.35 7.3 -22.65 4.65 L-21.35 4.9 -20.6 5.0 -21.35 4.9 -24.05 4.25 -22.35 6.7 -22.3 6.7 Q-19.3 11.9 -14.15 12.75 -7.9 13.65 -3.2 10.9 L-2.5 10.45 -2.7 10.55 -2.7 10.35 -2.7 9.45 Q-2.85 4.2 1.85 4.25 L2.15 4.25" fill="#463624" fill-rule="evenodd" stroke="none"/>
    <path d="M2.25 -0.4 L0.65 1.2 Q-1.4 3.15 -2.3 3.75 -4.3 5.05 -6.7 5.8 -10.75 7.0 -14.0 7.0 L-18.9 6.4 -19.05 6.35 -20.35 5.05 Q-16.7 5.5 -12.9 4.9 -3.15 3.25 1.9 -4.95 L1.95 -4.4 2.25 -0.4" fill="#e5e5e5" fill-rule="evenodd" stroke="none"/>
    <path d="M1.95 6.1 Q0.15 8.55 -2.05 10.15 L-1.55 7.7 -1.0 5.9 Q-0.25 4.95 2.1 5.05 L2.05 5.4 2.0 6.05 1.95 6.1" fill="#b45f50" fill-rule="evenodd" stroke="none"/>
    <path d="M2.15 4.25 L1.85 4.25 Q-2.85 4.2 -2.7 9.45 L-2.7 10.35 -2.7 10.55 -2.5 10.45 -3.2 10.9 Q-7.9 13.65 -14.15 12.75 -19.3 11.9 -22.3 6.7 L-22.35 6.7 -24.05 4.25 -21.35 4.9 -20.6 5.0 -21.35 4.9 -22.65 4.65 Q-19.35 7.3 -18.95 7.3 L-18.6 7.2 Q-17.1 7.8 -14.25 7.8 -6.6 7.8 -1.25 4.05 1.25 2.3 2.25 0.8 L2.15 4.25" fill="#57352d" fill-rule="evenodd" stroke="none"/>
  </g>
</svg>
