<?xml version="1.0" encoding="UTF-8" standalone="no"?>
<svg xmlns:ffdec="https://www.free-decompiler.com/flash" xmlns:xlink="http://www.w3.org/1999/xlink" ffdec:objectType="shape" height="22.1px" width="29.55px" xmlns="http://www.w3.org/2000/svg">
  <g transform="matrix(1.0, 0.0, 0.0, 1.0, 25.85, 7.7)">
    <path d="M2.2 -7.6 L2.25 -7.6 2.35 -7.7 3.35 -2.85 Q4.0 0.85 3.45 6.25 L3.25 6.65 3.1 6.95 Q-3.4 15.75 -14.4 14.15 -20.2 13.2 -23.6 7.4 L-23.55 7.4 -25.85 2.7 -25.55 2.5 -25.0 2.45 Q-19.3 4.45 -13.15 3.5 -3.15 1.8 1.55 -7.25 L1.95 -7.6 2.2 -7.6 M2.2 -0.35 L2.25 -0.4 2.25 -0.5 1.95 -4.4 1.9 -4.95 Q-3.15 3.25 -12.9 4.9 -16.7 5.5 -20.3 5.05 -20.7 4.9 -20.85 4.9 L-21.05 4.95 -21.35 4.9 -24.05 4.25 -23.25 5.3 -22.85 5.85 -22.35 6.7 -22.3 6.7 -22.3 6.75 -21.8 7.55 -21.75 7.55 -21.6 7.5 -18.7 9.45 -16.75 8.95 -16.45 8.85 -15.0 8.5 -14.85 8.5 -14.2 8.5 -14.15 8.7 -14.15 8.85 -14.2 8.85 -17.75 9.95 -18.1 11.05 -18.15 11.1 -18.15 11.2 -16.6 12.05 -14.15 12.75 Q-7.9 13.65 -3.2 10.9 L-2.9 10.7 -3.4 11.1 -2.9 10.75 -2.7 10.55 0.05 8.25 0.45 7.85 1.95 6.1 2.0 6.05 2.15 6.05 2.2 5.45 Q1.5 4.9 1.15 4.9 -0.5 4.9 -1.75 5.45 L-1.8 5.5 -2.2 5.75 -2.95 6.1 -3.0 6.1 -3.05 6.15 -3.4 6.15 -3.5 6.0 Q-3.5 5.7 -2.5 5.25 L-2.15 5.1 -1.8 4.95 -1.1 4.7 -1.0 4.65 -0.9 4.65 1.35 3.75 2.3 1.75 2.3 1.7 2.25 0.15 2.2 -0.35 M-18.9 10.7 L-18.9 10.4 Q-18.9 10.2 -20.2 9.35 L-20.65 9.05 -20.5 9.2 -19.3 10.35 -18.9 10.7" fill="#463624" fill-rule="evenodd" stroke="none"/>
    <path d="M2.2 -0.35 L2.25 0.15 2.3 1.7 2.3 1.75 1.35 3.75 -0.9 4.65 -1.0 4.65 -1.1 4.7 -1.8 4.95 -2.15 5.1 -2.3 5.1 -2.5 5.25 Q-3.5 5.7 -3.5 6.0 L-3.4 6.15 -3.05 6.15 -3.0 6.1 -2.95 6.1 -2.2 5.75 -1.8 5.5 -1.75 5.5 -1.75 5.45 Q-0.5 4.9 1.15 4.9 1.5 4.9 2.2 5.45 L2.15 6.05 2.0 6.05 1.95 6.1 0.45 7.85 0.05 8.25 Q-0.1 5.95 -1.95 5.95 L-3.7 6.45 -3.9 6.45 -3.95 6.2 Q-4.0 5.7 -1.05 3.5 L-0.4 2.35 Q-1.4 3.1 -2.65 3.7 L-7.35 5.5 -14.6 6.55 -20.7 6.05 -22.7 5.45 Q-20.1 8.55 -16.3 8.55 L-13.25 8.35 -11.4 8.45 -11.35 8.6 Q-12.2 9.15 -14.8 10.25 -15.85 10.9 -16.2 12.2 L-16.6 12.05 -18.15 11.2 -18.15 11.1 -18.1 11.1 -18.1 11.05 -17.75 9.95 -14.2 8.85 -14.15 8.85 -14.15 8.7 -14.2 8.5 -14.85 8.5 -15.0 8.5 -16.45 8.85 -16.75 8.95 -18.7 9.45 -21.6 7.5 -21.75 7.55 -21.8 7.55 -22.3 6.75 -22.3 6.7 -22.35 6.7 -22.85 5.85 -23.25 5.3 -24.05 4.25 -21.35 4.9 -21.05 4.95 -20.85 4.9 Q-20.7 4.9 -20.3 5.05 -16.7 5.5 -12.9 4.9 -3.15 3.25 1.9 -4.95 L1.95 -4.4 2.25 -0.5 2.2 -0.45 2.1 -0.35 2.2 -0.35" fill="#e5e5e5" fill-rule="evenodd" stroke="none"/>
    <path d="M2.25 -0.5 L2.25 -0.4 2.2 -0.35 2.1 -0.35 2.2 -0.45 2.25 -0.5 M-2.15 5.1 L-2.5 5.25 -2.3 5.1 -2.15 5.1 M-1.8 5.5 L-1.75 5.45 -1.75 5.5 -1.8 5.5 M0.05 8.25 L-2.7 10.55 -2.9 10.75 -2.9 10.7 -3.2 10.9 Q-7.9 13.65 -14.15 12.75 L-16.6 12.05 -16.2 12.2 Q-15.85 10.9 -14.8 10.25 -12.2 9.15 -11.35 8.6 L-11.4 8.45 -13.25 8.35 -16.3 8.55 Q-20.1 8.55 -22.7 5.45 L-20.7 6.05 -14.6 6.55 -7.35 5.5 -2.65 3.7 Q-1.4 3.1 -0.4 2.35 L-1.05 3.5 Q-4.0 5.7 -3.95 6.2 L-3.9 6.45 -3.7 6.45 -1.95 5.95 Q-0.1 5.95 0.05 8.25" fill="#f9f9f9" fill-rule="evenodd" stroke="none"/>
    <path d="M-18.15 11.1 L-18.1 11.05 -18.1 11.1 -18.15 11.1 M-18.9 10.7 L-19.3 10.35 -20.5 9.2 -20.65 9.05 -20.2 9.35 Q-18.9 10.2 -18.9 10.4 L-18.9 10.7" fill="#57352d" fill-rule="evenodd" stroke="none"/>
  </g>
</svg>
