<?xml version="1.0" encoding="UTF-8" standalone="no"?>
<svg xmlns:ffdec="https://www.free-decompiler.com/flash" xmlns:xlink="http://www.w3.org/1999/xlink" ffdec:objectType="shape" height="10.5px" width="19.95px" xmlns="http://www.w3.org/2000/svg">
  <g transform="matrix(1.0, 0.0, 0.0, 1.0, 17.25, -0.6)">
    <path d="M2.7 5.1 Q2.7 6.85 0.25 8.7 -2.95 11.1 -8.4 11.1 L-11.7 11.0 -11.75 11.0 -12.6 11.1 Q-17.55 11.1 -17.2 7.1 L-17.15 6.5 Q-16.7 4.4 -12.25 2.55 -7.75 0.6 -3.2 0.6 0.9 0.6 2.15 2.55 2.7 3.35 2.7 5.1 M-14.85 9.7 L-14.7 9.8 -14.05 10.05 Q-5.65 10.85 -1.75 8.65 1.35 6.8 1.35 4.85 1.35 1.85 -4.1 1.85 -9.7 1.85 -13.45 4.25 L-16.15 6.25 -15.65 6.95 -15.25 7.45 Q-13.95 6.2 -9.85 6.05 L-8.95 6.25 -8.85 6.35 -12.0 7.3 Q-12.65 7.5 -13.95 8.45 L-13.95 8.5 -14.05 8.65 -14.8 9.6 -15.05 9.65 -14.85 9.7" fill="#463624" fill-rule="evenodd" stroke="none"/>
    <path d="M-14.8 9.6 L-14.05 8.65 -13.95 8.5 -13.95 8.45 Q-12.65 7.5 -12.0 7.3 L-8.85 6.35 -8.95 6.25 -9.85 6.05 Q-13.95 6.2 -15.25 7.45 L-15.65 6.95 -16.15 6.25 -13.45 4.25 Q-9.7 1.85 -4.1 1.85 1.35 1.85 1.35 4.85 1.35 6.8 -1.75 8.65 -5.65 10.85 -14.05 10.05 L-14.7 9.8 -14.85 9.7 -14.8 9.6" fill="#e5e5e5" fill-rule="evenodd" stroke="none"/>
  </g>
</svg>
