<?xml version="1.0" encoding="UTF-8" standalone="no"?>
<svg xmlns:ffdec="https://www.free-decompiler.com/flash" xmlns:xlink="http://www.w3.org/1999/xlink" ffdec:objectType="shape" height="18.55px" width="25.55px" xmlns="http://www.w3.org/2000/svg">
  <g transform="matrix(1.0, 0.0, 0.0, 1.0, 21.0, 4.6)">
    <path d="M-9.4 8.95 Q-8.65 9.9 -6.95 9.95 -4.85 9.9 -3.65 8.4 L-2.4 6.8 Q-0.15 6.8 0.2 10.1 L0.15 10.55 -1.0 11.15 -1.05 11.0 -1.1 10.5 -1.15 10.4 -1.25 10.2 -1.3 10.1 -2.5 9.55 -2.7 9.5 -2.45 8.6 -2.25 7.55 -2.5 7.3 -2.75 7.45 Q-3.2 8.65 -4.3 9.7 -5.95 11.2 -8.1 11.2 -9.65 11.2 -9.65 9.85 L-9.4 8.95 M-2.25 7.6 L-2.3 8.35 -2.3 8.6 -2.05 8.05 -2.05 7.1 -2.1 7.55 -2.25 7.6" fill="#a05345" fill-rule="evenodd" stroke="none"/>
    <path d="M3.45 -0.65 Q4.4 1.35 4.55 3.55 4.55 7.25 3.05 9.2 -0.6 13.95 -11.9 13.95 L-17.5 13.9 -17.6 13.75 -17.55 13.25 -17.45 12.25 -17.4 10.5 Q-17.4 5.8 -19.45 5.8 -19.9 5.8 -20.6 6.45 -21.0 6.3 -21.0 5.85 -9.05 -4.6 -2.05 -4.6 1.6 -4.65 3.45 -0.65 M-15.4 2.4 L-14.05 3.5 Q-12.7 4.8 -12.35 4.8 -11.3 4.8 -0.5 0.8 L0.55 0.75 Q2.4 0.75 2.85 1.25 L3.2 1.45 2.45 -0.05 Q0.6 -3.15 -3.2 -3.15 -7.15 -3.15 -12.75 0.5 L-15.45 2.4 -15.8 2.65 -15.4 2.4 M-3.95 12.2 L-4.0 12.0 -3.45 11.4 -2.9 10.9 -3.95 10.35 Q-5.9 12.15 -7.7 12.15 -10.45 12.15 -10.45 10.05 -10.45 8.75 -9.3 7.15 -7.5 4.65 -4.1 4.65 -0.85 4.65 1.1 6.35 2.35 7.45 2.5 8.4 4.1 6.2 3.7 3.65 L3.55 2.55 3.5 2.55 Q2.55 2.55 2.3 2.15 2.0 1.7 0.4 1.7 -2.2 1.7 -6.95 3.65 L-12.25 5.65 Q-13.55 5.6 -16.05 2.85 L-16.5 3.2 -18.55 5.1 Q-16.8 6.4 -16.55 8.75 -16.45 10.1 -16.5 12.8 L-11.8 13.0 -3.9 12.2 -3.3 12.0 -3.95 12.2 M0.15 10.55 L1.9 9.15 1.55 8.65 0.9 7.4 Q-0.35 5.55 -4.1 5.55 -8.3 5.55 -9.4 8.95 L-9.65 9.85 Q-9.65 11.2 -8.1 11.2 -5.95 11.2 -4.3 9.7 -3.2 8.65 -2.75 7.45 L-2.5 7.3 -2.25 7.55 -2.45 8.6 -3.0 9.45 -3.05 9.55 -2.95 9.5 -2.7 9.5 -2.5 9.55 -1.3 10.1 -1.25 10.2 -1.15 10.4 -1.1 10.5 -1.05 11.0 -1.1 11.25 -1.0 11.15 0.15 10.55 M-2.25 7.6 L-2.1 7.55 -2.05 7.1 -2.05 8.05 -2.3 8.6 -2.3 8.35 -2.25 7.6" fill="#463624" fill-rule="evenodd" stroke="none"/>
    <path d="M-9.4 8.95 Q-8.3 5.55 -4.1 5.55 -0.35 5.55 0.9 7.4 L1.55 8.65 1.9 9.15 0.15 10.55 0.2 10.1 Q-0.15 6.8 -2.4 6.8 L-3.65 8.4 Q-4.85 9.9 -6.95 9.95 -8.65 9.9 -9.4 8.95 M-2.7 9.5 L-2.95 9.5 -3.0 9.45 -2.45 8.6 -2.7 9.5" fill="#b45f50" fill-rule="evenodd" stroke="none"/>
    <path d="M-3.9 12.2 L-11.8 13.0 -16.5 12.8 Q-16.45 10.1 -16.55 8.75 -16.8 6.4 -18.55 5.1 L-16.5 3.2 -16.05 2.85 Q-13.55 5.6 -12.25 5.65 L-6.95 3.65 Q-2.2 1.7 0.4 1.7 2.0 1.7 2.3 2.15 2.55 2.55 3.5 2.55 L3.55 2.55 3.7 3.65 Q4.1 6.2 2.5 8.4 2.35 7.45 1.1 6.35 -0.85 4.65 -4.1 4.65 -7.5 4.65 -9.3 7.15 -10.45 8.75 -10.45 10.05 -10.45 12.15 -7.7 12.15 -5.9 12.15 -3.95 10.35 L-2.9 10.9 -3.45 11.4 -4.0 12.0 -3.95 12.2 -3.9 12.2" fill="#57352d" fill-rule="evenodd" stroke="none"/>
    <path d="M-15.45 2.4 L-12.75 0.5 Q-7.15 -3.15 -3.2 -3.15 0.6 -3.15 2.45 -0.05 L3.2 1.45 2.85 1.25 Q2.4 0.75 0.55 0.75 L-0.5 0.8 Q-11.3 4.8 -12.35 4.8 -12.7 4.8 -14.05 3.5 L-15.4 2.4 -15.45 2.4" fill="#e5e5e5" fill-rule="evenodd" stroke="none"/>
  </g>
</svg>
