<?xml version="1.0" encoding="UTF-8" standalone="no"?>
<svg xmlns:ffdec="https://www.free-decompiler.com/flash" xmlns:xlink="http://www.w3.org/1999/xlink" ffdec:objectType="shape" height="14.4px" width="23.15px" xmlns="http://www.w3.org/2000/svg">
  <g transform="matrix(1.0, 0.0, 0.0, 1.0, 22.65, 1.75)">
    <path d="M0.15 -1.7 Q0.8 -1.65 0.3 -1.65 0.0 -1.65 -0.25 -1.05 -0.15 -1.15 -0.15 -0.25 -0.15 1.05 -1.25 6.3 -2.05 10.4 -12.9 12.65 -18.75 12.65 -18.7 10.5 -18.75 9.85 -20.0 7.85 L-21.15 6.1 -21.6 5.85 -22.65 3.95 Q-15.75 6.35 -8.7 4.0 -3.9 2.2 -0.4 -1.65 L0.15 -1.7 M-1.6 4.95 Q-1.95 2.65 -1.2 0.85 -3.15 2.95 -6.3 4.45 -9.45 5.9 -13.7 6.45 -18.05 6.9 -21.1 5.6 -19.25 7.35 -18.45 8.75 L-18.1 9.55 -17.05 9.4 -13.95 9.6 Q-13.7 9.55 -13.6 9.8 L-13.9 9.85 -17.75 10.8 -13.65 11.2 Q-9.0 11.2 -5.1 9.25 -1.25 7.25 -1.6 4.95" fill="#463624" fill-rule="evenodd" stroke="none"/>
    <path d="M-1.6 4.95 Q-1.25 7.25 -5.1 9.25 -9.0 11.2 -13.65 11.2 L-17.75 10.8 -13.9 9.85 -13.6 9.8 Q-13.7 9.55 -13.95 9.6 L-17.05 9.4 -18.1 9.55 -18.45 8.75 Q-19.25 7.35 -21.1 5.6 -18.05 6.9 -13.7 6.45 -9.45 5.9 -6.3 4.45 -3.15 2.95 -1.2 0.85 -1.95 2.65 -1.6 4.95" fill="#e5e5e5" fill-rule="evenodd" stroke="none"/>
  </g>
</svg>
