<?xml version="1.0" encoding="UTF-8" standalone="no"?>
<svg xmlns:ffdec="https://www.free-decompiler.com/flash" xmlns:xlink="http://www.w3.org/1999/xlink" ffdec:objectType="shape" height="11.9px" width="26.45px" xmlns="http://www.w3.org/2000/svg">
  <g transform="matrix(1.0, 0.0, 0.0, 1.0, 24.1, 3.75)">
    <path d="M-1.25 -3.7 Q-0.65 -3.6 -1.1 -3.6 L-1.45 -3.45 Q1.95 -3.4 2.35 1.75 0.15 8.3 -3.45 8.15 L-11.3 7.05 Q-15.4 6.2 -17.9 5.0 -21.45 4.85 -23.0 3.85 L-24.1 2.0 Q-17.15 4.35 -10.15 2.0 -5.35 0.25 -1.85 -3.6 L-1.25 -3.7 M0.9 1.6 Q0.9 -0.5 -2.45 -1.25 -3.4 0.15 -6.35 2.2 -9.2 4.1 -12.75 4.7 L-10.0 5.4 -5.55 6.3 -4.7 6.65 -4.6 5.5 -3.65 2.8 Q-2.8 1.1 -1.6 1.15 L0.55 1.5 0.9 1.65 0.9 1.6 M0.6 2.65 L-1.95 2.5 Q-2.85 2.5 -3.45 4.4 -3.95 5.85 -3.7 6.8 -3.5 6.5 -2.45 6.55 -1.5 6.55 -0.25 4.3 L0.6 2.65 0.7 2.4 0.6 2.65" fill="#463624" fill-rule="evenodd" stroke="none"/>
    <path d="M0.9 1.65 L0.55 1.5 -1.6 1.15 Q-2.8 1.1 -3.65 2.8 L-4.6 5.5 -4.7 6.65 -5.55 6.3 -10.0 5.4 -12.75 4.7 Q-9.2 4.1 -6.35 2.2 -3.4 0.15 -2.45 -1.25 0.9 -0.5 0.9 1.6 L0.9 1.65" fill="#57352d" fill-rule="evenodd" stroke="none"/>
    <path d="M0.6 2.65 L-0.25 4.3 Q-1.5 6.55 -2.45 6.55 -3.5 6.5 -3.7 6.8 -3.95 5.85 -3.45 4.4 -2.85 2.5 -1.95 2.5 L0.6 2.65" fill="#b45f50" fill-rule="evenodd" stroke="none"/>
  </g>
</svg>
