<?xml version="1.0" encoding="UTF-8" standalone="no"?>
<svg xmlns:ffdec="https://www.free-decompiler.com/flash" xmlns:xlink="http://www.w3.org/1999/xlink" ffdec:objectType="shape" height="5.65px" width="16.8px" xmlns="http://www.w3.org/2000/svg">
  <g transform="matrix(1.0, 0.0, 0.0, 1.0, 19.0, -4.65)">
    <path d="M-3.7 5.9 L-3.45 6.05 -3.7 5.9 -4.0 5.7 -4.2 5.75 -6.05 5.55 Q-13.6 5.55 -15.6 6.55 -15.25 7.3 -15.2 7.9 L-15.2 8.55 -11.5 8.05 -9.0 8.3 Q-8.95 7.45 -7.7 6.65 -6.3 5.75 -4.45 5.75 L-3.7 5.9 M-6.05 4.65 L-4.1 4.9 Q-2.15 5.4 -2.2 7.8 -2.2 9.75 -3.65 9.75 L-7.35 9.35 -11.9 8.85 Q-14.15 8.85 -16.0 9.6 L-18.35 10.3 -18.65 10.2 -18.8 9.85 Q-18.8 9.4 -16.05 8.75 L-15.8 8.7 Q-16.45 8.05 -16.45 6.5 L-18.9 7.45 -19.0 7.25 Q-19.0 6.7 -16.0 6.0 L-16.3 6.05 Q-16.0 5.65 -14.7 5.5 L-11.55 5.15 -9.35 4.95 -7.3 4.75 -6.05 4.65 M-8.0 8.4 L-8.05 8.45 -7.5 8.55 -3.3 8.95 Q-2.85 8.95 -2.85 7.8 -2.85 6.95 -3.2 6.45 -3.7 6.85 -4.8 6.85 L-6.6 7.15 Q-7.35 7.6 -7.4 8.15 -7.45 8.4 -8.0 8.4" fill="#463624" fill-rule="evenodd" stroke="none"/>
    <path d="M-3.7 5.9 L-4.45 5.75 Q-6.3 5.75 -7.7 6.65 -8.95 7.45 -9.0 8.3 L-11.5 8.05 -15.2 8.55 -15.2 7.9 Q-15.25 7.3 -15.6 6.55 -13.6 5.55 -6.05 5.55 L-4.2 5.75 -4.0 5.7 -3.7 5.9" fill="#57352d" fill-rule="evenodd" stroke="none"/>
    <path d="M-8.0 8.4 Q-7.45 8.4 -7.4 8.15 -7.35 7.6 -6.6 7.15 L-4.8 6.85 Q-3.7 6.85 -3.2 6.45 -2.85 6.95 -2.85 7.8 -2.85 8.95 -3.3 8.95 L-7.5 8.55 -8.05 8.45 -8.0 8.4" fill="#b45f50" fill-rule="evenodd" stroke="none"/>
  </g>
</svg>
