<?xml version="1.0" encoding="UTF-8" standalone="no"?>
<svg xmlns:ffdec="https://www.free-decompiler.com/flash" xmlns:xlink="http://www.w3.org/1999/xlink" ffdec:objectType="shape" height="6.45px" width="13.1px" xmlns="http://www.w3.org/2000/svg">
  <g transform="matrix(1.0, 0.0, 0.0, 1.0, 22.2, -5.1)">
    <path d="M-9.95 9.2 L-10.1 9.3 -10.2 9.4 Q-10.9 9.9 -12.5 10.5 -15.7 11.55 -19.15 11.55 -22.8 11.55 -22.1 9.15 -22.15 6.85 -17.55 6.1 L-17.0 6.0 -16.75 6.0 Q-16.4 5.1 -13.65 5.1 -8.85 5.1 -9.1 7.95 -9.2 8.95 -9.65 9.4 L-9.8 9.0 -9.95 9.2 M-11.35 7.55 L-11.8 7.15 Q-21.5 5.45 -21.5 9.15 -21.5 10.75 -20.4 10.75 -13.8 10.75 -10.6 8.6 -10.85 7.85 -11.35 7.55" fill="#463624" fill-rule="evenodd" stroke="none"/>
    <path d="M-11.35 7.55 Q-10.85 7.85 -10.6 8.6 -13.8 10.75 -20.4 10.75 -21.5 10.75 -21.5 9.15 -21.5 5.45 -11.8 7.15 L-11.35 7.55" fill="#b45f50" fill-rule="evenodd" stroke="none"/>
  </g>
</svg>
