<?xml version="1.0" encoding="UTF-8" standalone="no"?>
<svg xmlns:ffdec="https://www.free-decompiler.com/flash" xmlns:xlink="http://www.w3.org/1999/xlink" ffdec:objectType="shape" height="166.65px" width="71.1px" xmlns="http://www.w3.org/2000/svg">
  <g transform="matrix(1.0, 0.0, 0.0, 1.0, 31.1, 130.55)">
    <path d="M-17.9 -87.8 L-17.8 -88.55 -17.8 -88.65 -17.65 -90.4 -17.05 -96.7 -17.05 -96.75 Q-15.3 -117.8 -8.85 -125.2 -8.6 -123.85 -6.6 -122.5 -4.35 -120.9 -1.5 -121.1 1.35 -121.3 3.5 -122.5 5.6 -123.65 5.65 -125.25 5.7 -126.7 4.45 -128.15 11.9 -125.3 17.65 -114.25 25.5 -99.15 27.5 -93.75 L29.7 -87.5 29.85 -86.85 Q28.2 -85.6 23.35 -84.7 L10.65 -83.6 Q12.45 -87.45 14.8 -90.95 15.85 -92.6 16.3 -94.25 L16.05 -94.85 9.75 -91.75 4.2 -89.25 Q3.35 -88.75 2.2 -88.6 L1.55 -89.0 1.1 -89.65 Q0.75 -90.7 1.3 -91.6 L2.5 -93.2 5.25 -95.75 Q9.0 -98.5 13.2 -100.6 14.4 -101.3 14.6 -102.7 14.55 -104.05 13.85 -105.05 11.4 -108.85 8.15 -112.05 L3.6 -116.6 0.75 -118.65 Q-0.9 -119.4 -2.7 -119.4 L-4.7 -119.45 Q-7.7 -118.5 -9.5 -116.0 L-11.35 -113.05 Q-12.8 -110.4 -13.85 -107.55 -15.25 -103.8 -16.05 -99.85 -16.7 -96.8 -17.0 -93.6 L-17.45 -87.55 -17.9 -87.8 M32.1 -77.75 L33.0 -73.45 33.05 -73.25 Q29.25 -71.5 23.55 -70.4 L18.0 -69.7 16.85 -73.0 16.1 -73.8 14.95 -74.2 23.45 -75.2 Q29.05 -76.2 32.1 -77.75 M-19.55 -74.25 L-19.5 -74.75 -19.0 -78.6 -17.35 -77.85 -16.9 -73.0 Q-18.45 -73.6 -19.55 -74.25 M6.9 -74.1 Q10.95 -74.0 14.6 -74.2 L14.15 -74.05 12.65 -72.85 9.8 -69.45 9.75 -69.3 6.2 -69.35 5.75 -69.35 6.9 -74.1" fill="#811010" fill-rule="evenodd" stroke="none"/>
    <path d="M29.85 -86.85 L29.7 -87.5 27.5 -93.75 Q25.5 -99.15 17.65 -114.25 11.9 -125.3 4.45 -128.15 5.7 -126.7 5.65 -125.25 5.6 -123.65 3.5 -122.5 1.35 -121.3 -1.5 -121.1 -4.35 -120.9 -6.6 -122.5 -8.6 -123.85 -8.85 -125.2 -15.3 -117.8 -17.05 -96.75 L-17.05 -96.7 -17.65 -90.4 -17.8 -88.65 -17.8 -88.55 -17.9 -87.8 -18.9 -79.05 -18.9 -79.0 -19.0 -78.6 -19.5 -74.75 -19.55 -74.25 Q-22.3 -54.3 -26.65 -36.55 L-26.65 -36.5 -29.8 -23.55 Q-28.35 -21.75 -25.75 -20.1 L-23.95 -19.1 Q-22.1 -18.2 -19.7 -17.35 -9.65 -13.8 4.55 -13.35 18.65 -12.9 28.7 -15.85 32.6 -17.05 33.45 -17.9 34.2 -18.85 30.4 -18.9 26.55 -19.0 31.1 -20.3 35.65 -21.65 36.0 -30.25 36.35 -38.9 35.7 -50.8 35.1 -62.8 33.05 -73.25 L33.0 -73.45 32.1 -77.75 32.05 -78.05 29.85 -86.85 M-26.2 -18.05 Q-30.35 -20.45 -31.05 -23.2 L-31.1 -23.6 Q-29.25 -34.5 -28.6 -37.0 -24.2 -54.9 -21.5 -75.0 L-20.9 -79.3 -19.8 -88.75 -19.8 -88.8 -19.65 -90.6 -19.05 -96.9 Q-16.2 -130.7 -1.1 -130.55 13.55 -130.75 24.35 -107.8 28.2 -99.6 31.05 -89.85 L31.6 -88.05 34.0 -78.5 34.0 -78.45 34.95 -73.8 Q37.1 -63.25 38.25 -51.05 39.45 -39.0 40.0 -22.45 40.0 -21.05 39.35 -19.85 38.6 -18.55 37.1 -17.35 L32.1 -14.55 Q32.8 -15.0 29.3 -13.95 L29.25 -13.95 25.85 -13.05 25.0 -12.8 Q16.05 -11.0 4.5 -11.35 -10.1 -11.8 -20.35 -15.45 -22.6 -16.25 -24.35 -17.1 L-26.2 -18.05" fill="#452718" fill-rule="evenodd" stroke="none"/>
    <path d="M-17.45 -87.55 L-17.0 -93.6 Q-16.7 -96.8 -16.05 -99.85 -15.25 -103.8 -13.85 -107.55 -12.8 -110.4 -11.35 -113.05 L-9.5 -116.0 Q-7.7 -118.5 -4.7 -119.45 L-2.7 -119.4 Q-0.9 -119.4 0.75 -118.65 L3.6 -116.6 8.15 -112.05 Q11.4 -108.85 13.85 -105.05 14.55 -104.05 14.6 -102.7 14.4 -101.3 13.2 -100.6 9.0 -98.5 5.25 -95.75 L2.5 -93.2 1.3 -91.6 Q0.75 -90.7 1.1 -89.65 L1.55 -89.0 2.2 -88.6 Q3.35 -88.75 4.2 -89.25 L9.75 -91.75 16.05 -94.85 16.3 -94.25 Q15.85 -92.6 14.8 -90.95 12.45 -87.45 10.65 -83.6 L6.0 -83.6 Q-3.85 -84.0 -11.6 -85.65 -15.6 -86.55 -17.45 -87.55 M-17.35 -77.85 Q-15.1 -76.95 -11.45 -76.15 -3.75 -74.45 6.15 -74.1 L6.9 -74.1 5.75 -69.35 Q-3.85 -69.7 -11.4 -71.4 -14.65 -72.1 -16.9 -73.0 L-17.35 -77.85 M14.6 -74.2 L14.95 -74.2 16.1 -73.8 16.85 -73.0 18.0 -69.7 9.75 -69.3 9.8 -69.45 12.65 -72.85 14.15 -74.05 14.6 -74.2" fill="#a61515" fill-rule="evenodd" stroke="none"/>
    <path d="M-17.9 -87.8 L-17.45 -87.55 Q-17.65 -82.7 -17.35 -77.85 L-19.0 -78.6 -18.9 -79.0 -18.9 -79.05 -17.9 -87.8 M10.65 -83.6 L23.35 -84.7 Q28.2 -85.6 29.85 -86.85 L32.05 -78.05 32.1 -77.75 Q29.05 -76.2 23.45 -75.2 L14.95 -74.2 14.6 -74.2 Q10.95 -74.0 6.9 -74.1 L7.2 -75.05 Q8.6 -79.5 10.65 -83.6 M33.05 -73.25 Q35.1 -62.8 35.7 -50.8 36.35 -38.9 36.0 -30.25 35.65 -21.65 31.1 -20.3 26.55 -19.0 30.4 -18.9 34.2 -18.85 33.45 -17.9 32.6 -17.05 28.7 -15.85 18.65 -12.9 4.55 -13.35 -9.65 -13.8 -19.7 -17.35 -22.1 -18.2 -23.95 -19.1 L-25.75 -20.1 Q-28.35 -21.75 -29.8 -23.55 L-26.65 -36.5 -26.65 -36.55 Q-22.3 -54.3 -19.55 -74.25 -18.45 -73.6 -16.9 -73.0 L-16.35 -68.55 Q-16.0 -66.55 -14.9 -64.9 L-13.45 -63.0 -11.7 -61.35 -11.0 -60.45 -11.6 -59.3 -14.55 -58.5 -17.3 -57.6 -19.6 -56.1 Q-23.05 -53.0 -23.55 -47.9 -24.0 -43.25 -23.85 -38.45 -23.65 -34.2 -20.1 -31.75 L-19.65 -31.45 -20.0 -31.15 Q-20.2 -30.95 -20.45 -30.95 L-20.9 -30.75 -21.45 -30.55 -26.2 -30.3 Q-26.45 -26.75 -24.35 -24.35 L-22.75 -22.9 -21.95 -22.4 Q-11.65 -16.3 0.45 -16.1 11.7 -15.85 23.0 -17.5 L22.15 -18.15 Q20.45 -19.1 18.75 -19.45 L8.3 -22.8 Q6.95 -23.2 5.65 -23.85 10.9 -25.25 16.4 -25.8 L23.9 -27.15 25.65 -27.6 Q26.6 -28.1 27.2 -28.95 L27.05 -30.15 Q25.9 -32.8 23.4 -34.5 19.35 -37.2 14.45 -37.2 L9.2 -36.95 -3.15 -37.75 -7.65 -38.85 -10.5 -39.6 -11.8 -39.95 Q-13.1 -40.3 -14.25 -41.0 -14.6 -41.25 -14.65 -41.65 -15.0 -43.1 -13.8 -43.8 -11.75 -45.05 -9.35 -44.75 L-0.95 -43.8 4.45 -43.25 6.35 -43.0 11.25 -42.75 14.8 -43.55 Q16.0 -43.85 16.95 -44.5 L17.05 -44.55 Q18.15 -45.35 18.8 -46.45 19.75 -47.95 19.9 -50.0 20.35 -55.55 19.55 -61.0 L18.2 -68.8 18.0 -69.7 23.55 -70.4 Q29.25 -71.5 33.05 -73.25 M9.75 -69.3 L7.35 -66.0 Q6.75 -65.15 5.65 -64.7 L5.45 -65.5 Q5.25 -66.45 5.4 -67.25 L5.75 -69.35 6.2 -69.35 9.75 -69.3" fill="#ad6127" fill-rule="evenodd" stroke="none"/>
    <path d="M10.65 -83.6 Q8.6 -79.5 7.2 -75.05 L6.9 -74.1 6.15 -74.1 Q-3.75 -74.45 -11.45 -76.15 -15.1 -76.95 -17.35 -77.85 -17.65 -82.7 -17.45 -87.55 -15.6 -86.55 -11.6 -85.65 -3.85 -84.0 6.0 -83.6 L10.65 -83.6 M9.75 -69.3 L18.0 -69.7 18.2 -68.8 19.55 -61.0 Q20.35 -55.55 19.9 -50.0 19.75 -47.95 18.8 -46.45 18.15 -45.35 17.05 -44.55 L16.95 -44.5 Q16.0 -43.85 14.8 -43.55 L11.25 -42.75 6.35 -43.0 4.45 -43.25 -0.95 -43.8 -9.35 -44.75 Q-11.75 -45.05 -13.8 -43.8 -15.0 -43.1 -14.65 -41.65 -14.6 -41.25 -14.25 -41.0 -13.1 -40.3 -11.8 -39.95 L-10.5 -39.6 -7.65 -38.85 -3.15 -37.75 9.2 -36.95 14.45 -37.2 Q19.35 -37.2 23.4 -34.5 25.9 -32.8 27.05 -30.15 L27.2 -28.95 Q26.6 -28.1 25.65 -27.6 L23.9 -27.15 16.4 -25.8 Q10.9 -25.25 5.65 -23.85 6.95 -23.2 8.3 -22.8 L18.75 -19.45 Q20.45 -19.1 22.15 -18.15 L23.0 -17.5 Q11.7 -15.85 0.45 -16.1 -11.65 -16.3 -21.95 -22.4 L-22.75 -22.9 -24.35 -24.35 Q-26.45 -26.75 -26.2 -30.3 L-21.45 -30.55 -20.9 -30.75 -20.45 -30.95 Q-20.2 -30.95 -20.0 -31.15 L-19.65 -31.45 -20.1 -31.75 Q-23.65 -34.2 -23.85 -38.45 -24.0 -43.25 -23.55 -47.9 -23.05 -53.0 -19.6 -56.1 L-17.3 -57.6 -14.55 -58.5 -11.6 -59.3 -11.0 -60.45 -11.7 -61.35 -13.45 -63.0 -14.9 -64.9 Q-16.0 -66.55 -16.35 -68.55 L-16.9 -73.0 Q-14.65 -72.1 -11.4 -71.4 -3.85 -69.7 5.75 -69.35 L5.4 -67.25 Q5.25 -66.45 5.45 -65.5 L5.65 -64.7 Q6.75 -65.15 7.35 -66.0 L9.75 -69.3" fill="#d0742f" fill-rule="evenodd" stroke="none"/>
    <path d="M-24.35 -17.1 Q-22.6 -16.25 -20.35 -15.45 -10.1 -11.8 4.5 -11.35 16.05 -11.0 25.0 -12.8 L25.2 -12.8 25.85 -13.05 29.25 -13.95 29.3 -13.95 Q32.8 -15.0 32.1 -14.55 34.3 -13.95 34.2 -0.25 34.05 13.35 28.7 20.4 23.4 27.35 20.35 29.95 L20.3 29.45 19.85 28.8 19.1 28.75 Q18.7 28.9 18.45 29.25 L17.2 31.6 Q11.15 34.3 4.1 34.05 -9.25 33.45 -17.9 26.0 -26.65 18.45 -26.25 4.15 -25.9 -10.2 -24.35 -17.1 M14.0 -2.15 Q8.15 -6.15 -3.45 -8.5 -15.1 -10.9 -20.6 -10.25 -26.05 -9.7 -24.55 5.15 -23.05 20.0 -16.5 24.35 -10.05 28.7 -1.35 29.2 7.35 29.7 13.1 25.85 18.85 22.0 19.3 11.95 19.75 1.8 14.0 -2.15 M25.8 -11.75 L25.15 -11.3 Q24.9 -10.95 25.0 -10.55 L25.5 -7.65 Q25.55 -7.3 25.9 -7.05 26.2 -6.8 26.65 -6.8 L27.25 -7.2 27.5 -7.95 26.95 -10.95 26.55 -11.6 25.8 -11.75 M26.1 -1.7 Q26.1 -1.3 26.4 -1.05 26.7 -0.75 27.15 -0.8 L27.8 -1.1 Q28.15 -1.4 28.1 -1.8 L27.9 -4.85 27.5 -5.6 26.8 -5.8 26.1 -5.45 Q25.85 -5.15 25.85 -4.7 L26.1 -1.7 M26.45 0.55 Q26.15 0.8 26.15 1.25 L26.05 4.2 Q26.05 4.6 26.35 4.9 26.55 5.2 27.0 5.2 L27.75 5.0 28.05 4.3 28.15 1.25 27.85 0.55 Q27.55 0.2 27.15 0.2 26.7 0.2 26.45 0.55 M26.9 6.2 Q26.5 6.15 26.2 6.45 25.8 6.7 25.75 7.05 L25.3 10.0 Q25.25 10.4 25.5 10.7 L26.2 11.15 26.9 10.95 27.3 10.35 27.75 7.35 27.6 6.65 Q27.3 6.25 26.9 6.2 M26.6 12.5 Q26.35 12.15 25.95 12.1 L25.2 12.2 Q24.85 12.4 24.8 12.8 L24.05 15.7 24.1 16.45 Q24.3 16.8 24.75 16.9 L25.5 16.8 26.0 16.2 26.7 13.25 26.6 12.5 M23.7 17.85 L23.15 18.45 22.1 21.3 Q21.95 21.6 22.15 22.05 L22.75 22.55 23.5 22.5 24.0 22.0 25.05 19.1 Q25.2 18.7 25.0 18.35 L24.45 17.85 Q24.05 17.7 23.7 17.85 M22.9 24.05 L22.35 23.5 21.6 23.45 Q21.2 23.6 21.05 24.0 L19.8 26.6 Q19.6 26.95 19.8 27.35 19.85 27.75 20.25 27.95 L21.0 28.0 21.65 27.45 22.85 24.8 22.9 24.05" fill="#2f4a53" fill-rule="evenodd" stroke="none"/>
    <path d="M14.0 -2.15 Q19.75 1.8 19.3 11.95 18.85 22.0 13.1 25.85 7.35 29.7 -1.35 29.2 -10.05 28.7 -16.5 24.35 -23.05 20.0 -24.55 5.15 -26.05 -9.7 -20.6 -10.25 -15.1 -10.9 -3.45 -8.5 8.15 -6.15 14.0 -2.15" fill="#375660" fill-rule="evenodd" stroke="none"/>
    <path d="M-26.2 -18.05 L-24.35 -17.1 Q-25.9 -10.2 -26.25 4.15 -26.65 18.45 -17.9 26.0 -9.25 33.45 4.1 34.05 11.15 34.3 17.2 31.6 L18.45 29.25 Q18.7 28.9 19.1 28.75 L19.85 28.8 20.3 29.45 20.35 29.95 Q23.4 27.35 28.7 20.4 34.05 13.35 34.2 -0.25 34.3 -13.95 32.1 -14.55 L37.1 -17.35 37.5 -11.55 Q39.0 15.05 28.6 25.85 18.15 36.6 4.05 36.05 -10.0 35.45 -18.5 29.1 -27.25 22.7 -27.65 -0.4 -27.85 -10.6 -26.2 -18.05 M25.0 -12.8 L25.85 -13.05 25.2 -12.8 25.0 -12.8 M22.9 24.05 L22.85 24.8 21.65 27.45 21.0 28.0 20.25 27.95 Q19.85 27.75 19.8 27.35 19.6 26.95 19.8 26.6 L21.05 24.0 Q21.2 23.6 21.6 23.45 L22.35 23.5 22.9 24.05 M23.7 17.85 Q24.05 17.7 24.45 17.85 L25.0 18.35 Q25.2 18.7 25.05 19.1 L24.0 22.0 23.5 22.5 22.75 22.55 22.15 22.05 Q21.95 21.6 22.1 21.3 L23.15 18.45 23.7 17.85 M26.6 12.5 L26.7 13.25 26.0 16.2 25.5 16.8 24.75 16.9 Q24.3 16.8 24.1 16.45 L24.05 15.7 24.8 12.8 Q24.85 12.4 25.2 12.2 L25.95 12.1 Q26.35 12.15 26.6 12.5 M26.9 6.2 Q27.3 6.25 27.6 6.65 L27.75 7.35 27.3 10.35 26.9 10.95 26.2 11.15 25.5 10.7 Q25.25 10.4 25.3 10.0 L25.75 7.05 Q25.8 6.7 26.2 6.45 26.5 6.15 26.9 6.2 M26.45 0.55 Q26.7 0.2 27.15 0.2 27.55 0.2 27.85 0.55 L28.15 1.25 28.05 4.3 27.75 5.0 27.0 5.2 Q26.55 5.2 26.35 4.9 26.05 4.6 26.05 4.2 L26.15 1.25 Q26.15 0.8 26.45 0.55 M26.1 -1.7 L25.85 -4.7 Q25.85 -5.15 26.1 -5.45 L26.8 -5.8 27.5 -5.6 27.9 -4.85 28.1 -1.8 Q28.15 -1.4 27.8 -1.1 L27.15 -0.8 Q26.7 -0.75 26.4 -1.05 26.1 -1.3 26.1 -1.7 M25.8 -11.75 L26.55 -11.6 26.95 -10.95 27.5 -7.95 27.25 -7.2 26.65 -6.8 Q26.2 -6.8 25.9 -7.05 25.55 -7.3 25.5 -7.65 L25.0 -10.55 Q24.9 -10.95 25.15 -11.3 L25.8 -11.75" fill="#203439" fill-rule="evenodd" stroke="none"/>
  </g>
</svg>
