<?xml version="1.0" encoding="UTF-8" standalone="no"?>
<svg xmlns:ffdec="https://www.free-decompiler.com/flash" xmlns:xlink="http://www.w3.org/1999/xlink" ffdec:objectType="shape" height="14.2px" width="27.35px" xmlns="http://www.w3.org/2000/svg">
  <g transform="matrix(1.0, 0.0, 0.0, 1.0, 26.35, 1.0)">
    <path d="M-7.5 1.4 Q-6.45 0.5 -5.2 0.5 -3.25 0.5 -1.9 2.55 -0.5 4.6 -0.5 7.5 L-0.7 9.55 -9.5 10.35 Q-9.85 9.05 -9.85 7.5 -9.85 5.9 -9.45 4.55 -9.15 3.45 -8.5 2.55 L-7.5 1.4 M-16.7 8.5 Q-16.7 9.9 -17.1 11.05 L-24.25 11.7 Q-24.85 10.25 -24.85 8.5 -24.85 7.05 -24.45 5.9 L-23.65 4.2 -22.8 3.2 Q-21.9 2.4 -20.75 2.4 -19.1 2.4 -17.9 4.2 -16.7 5.95 -16.7 8.5" fill="#ffcc99" fill-rule="evenodd" stroke="none"/>
    <path d="M-7.5 1.4 Q-6.45 0.5 -5.2 0.5 -3.25 0.5 -1.9 2.55 -0.5 4.6 -0.5 7.5 L-0.7 9.55 -9.5 10.35 Q-9.85 9.05 -9.85 7.5 -9.85 5.9 -9.45 4.55 -9.15 3.45 -8.5 2.55 L-7.5 1.4 M-16.7 8.5 Q-16.7 9.9 -17.1 11.05 L-24.25 11.7 Q-24.85 10.25 -24.85 8.5 -24.85 7.05 -24.45 5.9 L-23.65 4.2 -22.8 3.2 Q-21.9 2.4 -20.75 2.4 -19.1 2.4 -17.9 4.2 -16.7 5.95 -16.7 8.5 Z" fill="none" stroke="#000000" stroke-linecap="round" stroke-linejoin="round" stroke-width="3.0"/>
  </g>
</svg>
