<?xml version="1.0" encoding="UTF-8" standalone="no"?>
<svg xmlns:ffdec="https://www.free-decompiler.com/flash" xmlns:xlink="http://www.w3.org/1999/xlink" ffdec:objectType="shape" height="11.25px" width="27.3px" xmlns="http://www.w3.org/2000/svg">
  <g transform="matrix(1.0, 0.0, 0.0, 1.0, 26.25, -0.8)">
    <path d="M-7.6 3.0 Q-6.6 2.35 -5.3 2.3 -3.4 2.2 -2.0 3.6 -0.55 4.9 -0.45 6.9 L-0.6 8.3 -9.35 9.15 Q-9.8 8.25 -9.8 7.2 -9.85 6.1 -9.45 5.2 L-8.6 3.8 -7.6 3.0 M-16.65 8.1 Q-16.6 9.05 -16.95 9.85 L-24.1 10.55 Q-24.75 9.6 -24.75 8.4 -24.8 7.45 -24.45 6.65 L-23.7 5.45 -22.85 4.75 Q-21.95 4.15 -20.85 4.1 -19.15 4.05 -17.95 5.25 -16.7 6.4 -16.65 8.1" fill="#ffcc99" fill-rule="evenodd" stroke="none"/>
    <path d="M-7.6 3.0 Q-6.6 2.35 -5.3 2.3 -3.4 2.2 -2.0 3.6 -0.55 4.9 -0.45 6.9 L-0.6 8.3 -9.35 9.15 Q-9.8 8.25 -9.8 7.2 -9.85 6.1 -9.45 5.2 L-8.6 3.8 -7.6 3.0 M-16.65 8.1 Q-16.6 9.05 -16.95 9.85 L-24.1 10.55 Q-24.75 9.6 -24.75 8.4 -24.8 7.45 -24.45 6.65 L-23.7 5.45 -22.85 4.75 Q-21.95 4.15 -20.85 4.1 -19.15 4.05 -17.95 5.25 -16.7 6.4 -16.65 8.1 Z" fill="none" stroke="#000000" stroke-linecap="round" stroke-linejoin="round" stroke-width="3.0"/>
  </g>
</svg>
