<?xml version="1.0" encoding="UTF-8" standalone="no"?>
<svg xmlns:ffdec="https://www.free-decompiler.com/flash" xmlns:xlink="http://www.w3.org/1999/xlink" ffdec:objectType="shape" height="19.75px" width="30.5px" xmlns="http://www.w3.org/2000/svg">
  <g transform="matrix(1.0, 0.0, 0.0, 1.0, 27.95, 6.15)">
    <path d="M-18.25 -0.15 Q-16.85 1.9 -16.8 4.85 -16.85 7.75 -18.25 9.75 -19.6 11.8 -21.5 11.85 -23.45 11.8 -24.85 9.75 -26.2 7.75 -26.2 4.85 -26.2 3.2 -25.75 1.85 L-24.85 -0.15 -23.85 -1.3 Q-22.8 -2.2 -21.5 -2.2 -19.6 -2.2 -18.25 -0.15 M-7.25 -3.35 Q-6.05 -4.4 -4.6 -4.4 -2.35 -4.4 -0.8 -2.0 0.8 0.35 0.8 3.7 0.8 7.05 -0.8 9.4 -2.35 11.75 -4.6 11.8 -6.8 11.75 -8.4 9.4 -9.95 7.05 -9.95 3.7 -10.0 1.85 -9.5 0.3 L-8.4 -2.0 -7.25 -3.35" fill="#ffcc99" fill-rule="evenodd" stroke="none"/>
    <path d="M-18.25 -0.15 Q-16.85 1.9 -16.8 4.85 -16.85 7.75 -18.25 9.75 -19.6 11.8 -21.5 11.85 -23.45 11.8 -24.85 9.75 -26.2 7.75 -26.2 4.85 -26.2 3.2 -25.75 1.85 L-24.85 -0.15 -23.85 -1.3 Q-22.8 -2.2 -21.5 -2.2 -19.6 -2.2 -18.25 -0.15 M-7.25 -3.35 Q-6.05 -4.4 -4.6 -4.4 -2.35 -4.4 -0.8 -2.0 0.8 0.35 0.8 3.7 0.8 7.05 -0.8 9.4 -2.35 11.75 -4.6 11.8 -6.8 11.75 -8.4 9.4 -9.95 7.05 -9.95 3.7 -10.0 1.85 -9.5 0.3 L-8.4 -2.0 -7.25 -3.35 Z" fill="none" stroke="#000000" stroke-linecap="round" stroke-linejoin="round" stroke-width="3.5"/>
  </g>
</svg>
