<?xml version="1.0" encoding="UTF-8" standalone="no"?>
<svg xmlns:ffdec="https://www.free-decompiler.com/flash" xmlns:xlink="http://www.w3.org/1999/xlink" ffdec:objectType="shape" height="16.7px" width="27.35px" xmlns="http://www.w3.org/2000/svg">
  <g transform="matrix(1.0, 0.0, 0.0, 1.0, 26.15, 3.15)">
    <path d="M-7.85 -1.4 L-7.6 -1.35 Q-4.9 0.0 -2.75 2.4 L-1.9 3.5 Q-1.25 4.45 -0.85 5.5 0.0 7.95 -1.5 10.05 -2.4 11.3 -3.9 11.7 -5.95 12.15 -7.35 10.65 -9.15 8.75 -9.45 6.25 -9.85 2.45 -7.85 -0.75 L-7.85 -1.4 M-16.95 -0.8 L-16.75 -0.45 -16.5 1.1 Q-16.25 3.95 -16.45 7.05 -16.55 8.7 -17.65 10.0 L-18.95 11.2 Q-20.9 12.5 -22.55 10.8 -23.65 9.8 -24.1 8.1 -24.8 5.6 -23.85 4.2 L-17.4 -0.85 -16.95 -0.8" fill="#ffcc99" fill-rule="evenodd" stroke="none"/>
    <path d="M-16.95 -0.8 L-17.4 -0.85 -23.85 4.2 Q-24.8 5.6 -24.1 8.1 -23.65 9.8 -22.55 10.8 -20.9 12.5 -18.95 11.2 L-17.65 10.0 Q-16.55 8.7 -16.45 7.05 -16.25 3.95 -16.5 1.1 L-16.75 -0.45 -16.95 -0.8 M-7.85 -1.4 L-7.85 -0.75 Q-9.85 2.45 -9.45 6.25 -9.15 8.75 -7.35 10.65 -5.95 12.15 -3.9 11.7 -2.4 11.3 -1.5 10.05 0.0 7.95 -0.85 5.5 -1.25 4.45 -1.9 3.5 L-2.75 2.4 Q-4.9 0.0 -7.6 -1.35 L-7.85 -1.4 Z" fill="none" stroke="#000000" stroke-linecap="round" stroke-linejoin="round" stroke-width="3.5"/>
  </g>
</svg>
