<?xml version="1.0" encoding="UTF-8" standalone="no"?>
<svg xmlns:ffdec="https://www.free-decompiler.com/flash" xmlns:xlink="http://www.w3.org/1999/xlink" ffdec:objectType="shape" height="14.85px" width="27.8px" xmlns="http://www.w3.org/2000/svg">
  <g transform="matrix(1.0, 0.0, 0.0, 1.0, 26.2, 1.25)">
    <path d="M-9.45 5.8 L-1.2 0.5 Q-0.15 2.3 -0.15 4.8 -0.15 7.7 -1.55 9.75 -2.9 11.8 -4.85 11.8 -6.75 11.8 -8.15 9.75 -9.3 8.05 -9.45 5.8 M-16.35 5.3 L-16.3 5.8 Q-16.35 8.3 -17.55 10.05 -18.7 11.85 -20.35 11.85 -22.05 11.85 -23.25 10.05 -24.45 8.3 -24.45 5.8 -24.45 4.35 -24.05 3.2 L-23.9 2.75 -16.35 5.3" fill="#ffcc99" fill-rule="evenodd" stroke="none"/>
    <path d="M-9.45 5.8 L-1.2 0.5 Q-0.15 2.3 -0.15 4.8 -0.15 7.7 -1.55 9.75 -2.9 11.8 -4.85 11.8 -6.75 11.8 -8.15 9.75 -9.3 8.05 -9.45 5.8 L-10.55 6.45 M-16.35 5.3 L-16.3 5.8 Q-16.35 8.3 -17.55 10.05 -18.7 11.85 -20.35 11.85 -22.05 11.85 -23.25 10.05 -24.45 8.3 -24.45 5.8 -24.45 4.35 -24.05 3.2 L-23.9 2.75 -16.35 5.3 -15.8 5.45" fill="none" stroke="#000000" stroke-linecap="round" stroke-linejoin="round" stroke-width="3.5"/>
  </g>
</svg>
