<?xml version="1.0" encoding="UTF-8" standalone="no"?>
<svg xmlns:ffdec="https://www.free-decompiler.com/flash" xmlns:xlink="http://www.w3.org/1999/xlink" ffdec:objectType="shape" height="10.4px" width="27.8px" xmlns="http://www.w3.org/2000/svg">
  <g transform="matrix(1.0, 0.0, 0.0, 1.0, 26.2, -3.2)">
    <path d="M-8.15 9.75 Q-9.5 7.75 -9.5 4.95 L-0.15 4.95 Q-0.2 7.75 -1.55 9.75 -2.9 11.8 -4.85 11.8 -6.75 11.8 -8.15 9.75 M-17.55 10.05 Q-18.7 11.85 -20.35 11.85 -22.05 11.85 -23.25 10.05 -24.45 8.3 -24.45 5.8 L-24.4 4.95 -16.35 4.95 -16.3 5.8 Q-16.35 8.3 -17.55 10.05" fill="#ffcc99" fill-rule="evenodd" stroke="none"/>
    <path d="M-8.15 9.75 Q-9.5 7.75 -9.5 4.95 L-0.15 4.95 Q-0.2 7.75 -1.55 9.75 -2.9 11.8 -4.85 11.8 -6.75 11.8 -8.15 9.75 M-17.55 10.05 Q-18.7 11.85 -20.35 11.85 -22.05 11.85 -23.25 10.05 -24.45 8.3 -24.45 5.8 L-24.4 4.95 -16.35 4.95 -16.3 5.8 Q-16.35 8.3 -17.55 10.05 Z" fill="none" stroke="#000000" stroke-linecap="round" stroke-linejoin="round" stroke-width="3.5"/>
  </g>
</svg>
