<?xml version="1.0" encoding="UTF-8" standalone="no"?>
<svg xmlns:ffdec="https://www.free-decompiler.com/flash" xmlns:xlink="http://www.w3.org/1999/xlink" ffdec:objectType="shape" height="17.3px" width="30.2px" xmlns="http://www.w3.org/2000/svg">
  <g transform="matrix(1.0, 0.0, 0.0, 1.0, 26.15, 3.7)">
    <path d="M-20.9 -3.2 L-18.75 -2.5 Q-17.5 -1.65 -16.1 0.5 -14.6 2.65 -14.55 5.8 L-14.55 5.85 Q-14.6 8.9 -16.1 11.05 L-16.05 11.0 Q-17.8 13.7 -20.35 13.6 -22.9 13.7 -24.7 11.05 -26.0 9.2 -26.15 6.65 L-20.9 -3.2 M-9.55 -1.15 L-8.25 -2.65 -8.3 -2.6 Q-7.25 -3.85 -5.75 -3.7 -4.35 -3.55 1.4 2.6 L1.6 4.8 1.65 5.95 Q2.25 5.95 4.05 7.55 L2.7 7.85 Q-0.65 8.7 -10.8 12.65 L-10.95 12.4 Q-11.25 11.85 -11.05 11.25 -10.9 10.65 -10.35 10.4 L-9.95 10.2 Q-11.25 7.9 -11.25 4.8 -11.25 2.95 -10.75 1.35 L-10.8 1.4 Q-10.4 0.05 -9.6 -1.1 L-9.55 -1.15 M-18.05 5.8 Q-18.1 3.85 -19.0 2.5 L-19.0 2.45 Q-19.5 1.75 -20.05 1.55 -21.05 2.15 -22.35 5.75 L-22.65 6.55 Q-22.5 7.95 -21.8 9.05 L-21.8 9.1 Q-21.2 10.0 -20.35 10.1 -19.6 10.0 -19.0 9.1 L-19.0 9.05 Q-18.1 7.7 -18.05 5.8 M-1.6 4.3 L-3.45 2.15 Q-5.25 -0.15 -5.65 -0.05 L-6.05 0.05 -6.65 0.8 -6.7 0.9 -7.4 2.3 -7.4 2.35 Q-7.75 3.45 -7.75 4.8 -7.75 6.9 -6.9 8.45 -4.15 6.7 -1.85 6.25 L-1.75 4.85 -1.6 4.3" fill="#000000" fill-rule="evenodd" stroke="none"/>
    <path d="M-1.6 4.3 L-1.75 4.85 -1.85 6.25 Q-4.15 6.7 -6.9 8.45 -7.75 6.9 -7.75 4.8 -7.75 3.45 -7.4 2.35 L-7.4 2.3 -6.7 0.9 -6.65 0.8 -6.05 0.05 -5.65 -0.05 Q-5.25 -0.15 -3.45 2.15 L-1.6 4.3 M-18.05 5.8 Q-18.1 7.7 -19.0 9.05 L-19.0 9.1 Q-19.6 10.0 -20.35 10.1 -21.2 10.0 -21.8 9.1 L-21.8 9.05 Q-22.5 7.95 -22.65 6.55 L-22.35 5.75 Q-21.05 2.15 -20.05 1.55 -19.5 1.75 -19.0 2.45 L-19.0 2.5 Q-18.1 3.85 -18.05 5.8" fill="#ffcc99" fill-rule="evenodd" stroke="none"/>
  </g>
</svg>
