<?xml version="1.0" encoding="UTF-8" standalone="no"?>
<svg xmlns:ffdec="https://www.free-decompiler.com/flash" xmlns:xlink="http://www.w3.org/1999/xlink" ffdec:objectType="shape" height="17.55px" width="30.4px" xmlns="http://www.w3.org/2000/svg">
  <g transform="matrix(1.0, 0.0, 0.0, 1.0, 28.8, 3.95)">
    <path d="M-7.15 -1.3 Q-6.1 -2.2 -4.85 -2.2 -2.9 -2.2 -1.55 -0.15 -0.15 1.9 -0.15 4.8 -0.15 7.7 -1.55 9.75 -2.9 11.8 -4.85 11.8 -6.75 11.8 -8.15 9.75 -9.5 7.7 -9.5 4.8 -9.5 3.2 -9.1 1.85 -8.8 0.75 -8.15 -0.15 L-7.15 -1.3 M-19.0 9.05 L-19.0 9.1 Q-19.6 10.0 -20.35 10.1 -21.2 10.0 -21.8 9.1 L-21.8 9.05 Q-22.7 7.7 -22.7 5.8 L-22.6 4.75 -18.1 6.6 Q-18.3 8.0 -19.0 9.05" fill="#ffcc99" fill-rule="evenodd" stroke="none"/>
    <path d="M-27.85 -0.3 L-26.7 -0.25 -24.05 0.9 -23.05 1.05 -22.45 1.6 -14.65 5.1 -14.55 5.7 -14.55 5.85 Q-14.6 8.9 -16.1 11.05 L-16.05 11.0 Q-17.8 13.7 -20.35 13.6 -22.9 13.7 -24.7 11.05 -26.2 8.9 -26.2 5.8 L-25.9 3.35 -28.65 1.75 -28.7 1.65 Q-28.95 1.05 -28.65 0.5 L-27.85 -0.3 M-19.0 9.05 Q-18.3 8.0 -18.1 6.6 L-22.6 4.75 -22.7 5.8 Q-22.7 7.7 -21.8 9.05 L-21.8 9.1 Q-21.2 10.0 -20.35 10.1 -19.6 10.0 -19.0 9.1 L-19.0 9.05" fill="#000000" fill-rule="evenodd" stroke="none"/>
    <path d="M-7.15 -1.3 Q-6.1 -2.2 -4.85 -2.2 -2.9 -2.2 -1.55 -0.15 -0.15 1.9 -0.15 4.8 -0.15 7.7 -1.55 9.75 -2.9 11.8 -4.85 11.8 -6.75 11.8 -8.15 9.75 -9.5 7.7 -9.5 4.8 -9.5 3.2 -9.1 1.85 -8.8 0.75 -8.15 -0.15 L-7.15 -1.3 Z" fill="none" stroke="#000000" stroke-linecap="round" stroke-linejoin="round" stroke-width="3.5"/>
  </g>
</svg>
