<?xml version="1.0" encoding="UTF-8" standalone="no"?>
<svg xmlns:ffdec="https://www.free-decompiler.com/flash" xmlns:xlink="http://www.w3.org/1999/xlink" ffdec:objectType="shape" height="74.25px" width="95.85px" xmlns="http://www.w3.org/2000/svg">
  <g transform="matrix(1.0, 0.0, 0.0, 1.0, 35.75, 6.45)">
    <path d="M38.25 58.45 Q41.4 36.25 21.15 16.0 12.7 4.1 7.45 4.2 19.4 19.7 18.35 36.6 17.25 53.5 21.1 58.1 24.9 62.7 29.85 66.7 15.95 61.7 13.95 53.9 10.85 28.75 3.3 19.55 -4.25 10.3 -14.2 19.15 -15.7 6.4 -5.9 2.45 3.9 -1.55 19.4 2.05 6.05 -2.15 11.05 -2.45 20.05 -2.25 27.05 0.55 52.05 8.5 57.25 46.75 53.35 36.3 50.75 30.4 43.3 12.0 31.15 5.15 36.75 9.15 41.55 27.65 45.4 42.55 40.7 55.05 L39.55 56.9 38.85 57.7 38.3 58.4 38.25 58.45" fill="#a46826" fill-rule="evenodd" stroke="none"/>
    <path d="M38.25 58.45 L38.15 56.55 Q38.05 54.0 36.45 53.05 36.4 39.35 32.15 37.15 29.3 28.05 22.5 22.5 24.85 32.9 23.0 42.45 21.9 48.0 27.05 56.45 23.0 57.05 29.75 65.6 L31.2 67.8 28.65 67.15 24.95 66.95 Q15.1 61.95 13.0 53.8 L12.95 53.7 Q12.9 53.2 11.8 53.95 9.3 29.9 2.55 21.45 -4.0 13.35 -13.7 19.35 L-14.2 19.65 -14.7 19.4 Q-21.65 15.3 -25.9 17.85 -30.15 20.45 -31.85 29.65 L-32.5 32.4 -32.85 32.4 -33.75 29.75 Q-38.05 18.65 -33.05 9.45 -33.5 8.35 -34.75 7.8 -29.85 4.25 -26.3 2.45 -21.45 -0.45 -17.5 -1.9 -13.55 -3.4 -13.05 -4.45 L-2.15 -4.75 17.75 -6.2 19.15 -6.35 20.4 -6.45 20.45 -6.45 Q37.85 -6.9 49.95 7.4 58.85 17.9 58.6 32.9 60.05 37.1 60.1 38.7 58.6 39.45 58.0 46.15 L57.6 48.95 57.2 49.0 56.1 46.4 Q53.4 39.75 49.05 35.9 49.25 41.5 48.3 48.85 46.45 50.4 44.8 53.6 44.2 52.1 42.0 54.65 L39.8 57.25 39.8 57.3 39.75 57.35 38.45 58.3 38.25 58.45 38.3 58.4 38.85 57.7 39.55 56.9 40.7 55.05 Q47.85 44.2 46.9 33.8 42.95 12.8 31.15 5.15 43.3 12.0 50.75 30.4 53.35 36.3 57.25 46.75 58.9 21.35 46.95 9.0 35.05 -3.35 20.55 -4.45 L20.5 -4.45 19.3 -4.35 18.05 -4.2 Q22.8 -3.1 27.05 0.55 20.05 -2.25 11.05 -2.45 6.05 -2.15 19.4 2.05 3.9 -1.55 -5.9 2.45 -15.7 6.4 -14.2 19.15 -4.25 10.3 3.3 19.55 10.85 28.75 13.95 53.9 15.95 61.7 29.85 66.7 18.5 56.3 20.8 44.15 23.05 31.95 19.8 20.05 L18.05 15.8 Q11.5 4.5 7.45 4.2 12.7 4.1 21.15 16.0 41.4 36.25 38.25 58.45 M-17.05 15.75 Q-16.6 5.7 -3.1 0.75 3.25 -1.65 8.2 -3.15 L-10.0 -1.55 Q-20.35 -0.6 -28.1 7.3 -35.85 15.15 -32.95 30.4 -30.75 18.85 -26.6 16.5 -22.0 13.7 -17.05 15.75" fill="#693f1f" fill-rule="evenodd" stroke="none"/>
    <path d="M7.45 4.2 Q11.5 4.5 18.05 15.8 L19.8 20.05 Q23.05 31.95 20.8 44.15 18.5 56.3 29.85 66.7 24.9 62.7 21.1 58.1 17.25 53.5 18.35 36.6 19.4 19.7 7.45 4.2 M27.05 0.55 Q22.8 -3.1 18.05 -4.2 L19.3 -4.35 20.5 -4.45 20.55 -4.45 Q35.05 -3.35 46.95 9.0 58.9 21.35 57.25 46.75 52.05 8.5 27.05 0.55 M31.15 5.15 Q42.95 12.8 46.9 33.8 47.85 44.2 40.7 55.05 45.4 42.55 41.55 27.65 36.75 9.15 31.15 5.15 M-17.05 15.75 Q-22.0 13.7 -26.6 16.5 -30.75 18.85 -32.95 30.4 -35.85 15.15 -28.1 7.3 -20.35 -0.6 -10.0 -1.55 L8.2 -3.15 Q3.25 -1.65 -3.1 0.75 -16.6 5.7 -17.05 15.75" fill="#8f5b21" fill-rule="evenodd" stroke="none"/>
  </g>
</svg>
