<?xml version="1.0" encoding="UTF-8" standalone="no"?>
<svg xmlns:ffdec="https://www.free-decompiler.com/flash" xmlns:xlink="http://www.w3.org/1999/xlink" ffdec:objectType="shape" height="60.5px" width="38.25px" xmlns="http://www.w3.org/2000/svg">
  <g transform="matrix(1.0, 0.0, 0.0, 1.0, 8.55, 9.55)">
    <path d="M14.4 46.15 L13.6 45.5 Q14.15 45.95 13.0 44.45 L12.85 44.7 12.5 44.3 12.6 44.2 12.55 44.15 10.65 41.75 Q9.3 40.15 7.9 39.45 L8.85 35.9 10.4 38.6 Q11.6 40.35 13.2 41.8 L15.95 45.15 Q17.2 46.95 19.0 47.95 22.25 49.95 25.35 48.0 L25.55 47.85 26.1 47.45 26.5 47.15 Q28.2 45.6 27.5 43.3 24.9 34.7 19.65 27.55 L22.0 27.05 23.6 29.55 24.65 31.5 25.35 33.15 25.85 34.2 26.1 34.7 26.65 35.55 Q28.55 38.85 29.5 42.85 30.5 47.25 26.5 49.65 22.7 52.0 18.65 50.15 15.8 48.85 14.4 46.15" fill="#6c3d28" fill-rule="evenodd" stroke="none"/>
    <path d="M8.85 35.9 L8.8 35.8 Q10.55 32.5 13.3 30.45 15.85 28.5 19.3 27.6 L19.65 27.55 Q24.9 34.7 27.5 43.3 28.2 45.6 26.5 47.15 L26.1 47.45 25.55 47.85 25.35 48.0 25.4 47.35 Q23.9 33.6 18.0 33.6 13.95 33.6 11.75 36.55 11.05 37.45 10.45 38.6 L10.4 38.6 8.85 35.9" fill="#db9c64" fill-rule="evenodd" stroke="none"/>
    <path d="M10.4 38.6 L10.45 38.6 Q11.05 37.45 11.75 36.55 13.95 33.6 18.0 33.6 23.9 33.6 25.4 47.35 L25.35 48.0 Q22.25 49.95 19.0 47.95 17.2 46.95 15.95 45.15 L13.2 41.8 Q11.6 40.35 10.4 38.6" fill="#f1ba87" fill-rule="evenodd" stroke="none"/>
    <path d="M-5.55 -9.05 L-5.45 -8.85 -5.65 -8.75 -5.8 -8.9 -5.55 -9.05" fill="#0f625e" fill-rule="evenodd" stroke="none"/>
    <path d="M-5.55 -9.05 Q-4.6 -9.65 -3.4 -9.5 2.05 -8.9 6.85 -2.1 L7.9 -0.6 12.5 5.65 15.0 9.0 18.3 13.5 23.75 21.25 24.15 21.8 Q26.8 24.25 28.2 27.65 28.6 28.6 28.5 29.65 28.35 31.9 27.35 33.95 L26.65 35.55 26.1 34.7 26.3 28.15 Q26.3 27.55 25.85 27.1 25.2 26.3 24.9 25.2 23.35 24.25 22.35 22.8 L20.35 19.95 19.45 18.65 15.0 12.35 9.75 4.8 6.6 0.25 4.4 -2.75 Q-0.45 -8.8 -4.1 -8.05 -6.4 -6.65 -6.7 -0.2 L-6.65 5.7 -5.9 9.35 -5.5 11.2 -4.45 15.15 -2.35 22.1 0.8 31.8 1.15 32.7 1.15 32.8 1.5 33.85 4.7 42.65 5.85 45.0 6.45 45.65 13.55 45.4 13.6 45.5 14.4 46.15 Q9.8 49.5 5.15 46.75 4.35 46.3 3.95 45.55 L2.0 40.95 1.55 39.8 -0.15 35.0 -3.3 25.4 -3.8 23.8 -6.75 13.3 -6.95 12.5 -8.45 6.45 -8.55 1.4 Q-8.45 -6.95 -5.8 -8.9 L-5.65 -8.75 -5.5 -8.75 -5.45 -8.85 -5.55 -9.05 M19.65 27.55 L19.3 27.6 Q15.85 28.5 13.3 30.45 10.55 32.5 8.8 35.8 L8.85 35.9 7.9 39.45 8.25 44.55 8.55 44.75 12.45 44.25 12.5 44.3 12.85 44.7 Q10.4 46.3 7.8 45.15 6.75 44.65 6.1 43.45 L6.25 43.3 Q5.4 42.3 5.55 39.3 6.3 36.95 7.55 34.75 L8.35 33.5 Q10.15 30.85 12.55 29.15 15.9 26.65 20.5 26.05 L23.0 25.95 25.1 26.35 Q26.6 28.55 25.1 30.9 L24.65 31.5 23.6 29.55 Q24.1 28.55 23.4 27.4 L23.15 27.0 22.0 27.05 19.65 27.55" fill="#452718" fill-rule="evenodd" stroke="none"/>
    <path d="M4.7 42.65 L1.5 33.85 1.15 32.8 1.15 32.7 0.8 31.8 -2.35 22.1 -4.45 15.15 -5.5 11.2 -5.9 9.35 -6.65 5.7 -6.7 -0.2 Q-6.4 -6.65 -4.1 -8.05 L0.25 -2.9 Q4.35 2.0 6.15 4.55 L7.35 6.35 10.5 12.1 14.0 18.8 14.45 19.7 Q15.85 22.75 15.55 23.6 15.05 25.1 13.85 26.15 L11.85 27.95 Q9.2 30.45 7.05 33.3 L6.95 33.45 Q3.95 37.6 4.7 42.65" fill="#a61515" fill-rule="evenodd" stroke="none"/>
    <path d="M13.6 45.5 L13.55 45.4 6.45 45.65 5.85 45.0 4.7 42.65 Q3.95 37.6 6.95 33.45 L7.05 33.3 Q9.2 30.45 11.85 27.95 L13.85 26.15 Q15.05 25.1 15.55 23.6 15.85 22.75 14.45 19.7 L14.0 18.8 10.5 12.1 7.35 6.35 6.15 4.55 Q4.35 2.0 0.25 -2.9 L-4.1 -8.05 Q-0.45 -8.8 4.4 -2.75 L6.6 0.25 9.75 4.8 15.0 12.35 19.45 18.65 20.35 19.95 22.35 22.8 Q23.35 24.25 24.9 25.2 25.2 26.3 25.85 27.1 26.3 27.55 26.3 28.15 L26.1 34.7 25.85 34.2 25.35 33.15 24.65 31.5 25.1 30.9 Q26.6 28.55 25.1 26.35 L23.0 25.95 20.5 26.05 Q15.9 26.65 12.55 29.15 10.15 30.85 8.35 33.5 L7.55 34.75 Q6.3 36.95 5.55 39.3 5.4 42.3 6.25 43.3 L5.9 43.0 6.1 43.45 Q6.75 44.65 7.8 45.15 10.4 46.3 12.85 44.7 L13.0 44.45 Q14.15 45.95 13.6 45.5" fill="#811010" fill-rule="evenodd" stroke="none"/>
    <path d="M22.0 27.05 L23.15 27.0 23.4 27.4 Q24.1 28.55 23.6 29.55 L22.0 27.05 M12.45 44.25 L8.55 44.75 8.25 44.55 7.9 39.45 Q9.3 40.15 10.65 41.75 L12.55 44.15 12.45 44.25" fill="#591e1e" fill-rule="evenodd" stroke="none"/>
  </g>
</svg>
