<?xml version="1.0" encoding="UTF-8" standalone="no"?>
<svg xmlns:ffdec="https://www.free-decompiler.com/flash" xmlns:xlink="http://www.w3.org/1999/xlink" ffdec:objectType="shape" height="30.2px" width="20.4px" xmlns="http://www.w3.org/2000/svg">
  <g transform="matrix(1.0, 0.0, 0.0, 1.0, 9.8, 27.3)">
    <path d="M-1.95 -13.15 L-2.15 -13.55 -2.3 -13.85 -2.45 -14.15 -7.35 -23.05 -0.2 -25.1 Q2.5 -25.8 4.3 -23.85 L5.3 -22.45 5.0 -21.2 4.95 -20.85 4.95 -18.05 5.2 -14.55 4.0 -14.15 Q1.9 -13.2 -1.95 -13.15" fill="#db9c64" fill-rule="evenodd" stroke="none"/>
    <path d="M-1.95 -13.15 Q1.9 -13.2 4.0 -14.15 L5.2 -14.55 Q6.8 -5.3 8.35 1.7 5.15 4.0 -0.2 1.9 L0.9 2.25 0.7 1.1 Q0.55 -4.4 -1.95 -13.15" fill="#f1ba87" fill-rule="evenodd" stroke="none"/>
    <path d="M5.2 -14.55 L4.95 -18.05 4.95 -20.85 5.0 -21.2 5.3 -22.45 4.3 -23.85 Q2.5 -25.8 -0.2 -25.1 L-7.35 -23.05 -2.45 -14.15 -2.3 -13.85 -2.15 -13.55 -1.95 -13.15 Q0.55 -4.4 0.7 1.1 L0.9 2.25 -0.2 1.9 -0.15 1.85 Q-1.25 -8.15 -6.25 -17.1 L-9.7 -23.15 -9.8 -23.7 -9.6 -24.3 Q-9.45 -24.55 -9.15 -24.6 L-0.7 -27.0 Q3.2 -28.05 5.75 -25.15 L7.25 -23.1 7.3 -22.4 6.9 -20.8 6.9 -20.75 6.95 -18.15 Q7.25 -9.05 10.6 -0.85 9.65 0.8 8.35 1.7 6.8 -5.3 5.2 -14.55" fill="#5c4730" fill-rule="evenodd" stroke="none"/>
  </g>
</svg>
