<?xml version="1.0" encoding="UTF-8" standalone="no"?>
<svg xmlns:ffdec="https://www.free-decompiler.com/flash" xmlns:xlink="http://www.w3.org/1999/xlink" ffdec:objectType="shape" height="30.85px" width="41.2px" xmlns="http://www.w3.org/2000/svg">
  <g transform="matrix(1.0, 0.0, 0.0, 1.0, 30.2, 11.5)">
    <path d="M9.1 -11.5 L10.55 -4.75 Q11.4 0.45 10.6 7.95 L10.35 8.55 10.15 8.95 Q1.1 21.25 -14.25 19.0 -22.3 17.7 -27.05 9.55 -29.1 4.9 -30.2 3.05 L-29.8 2.7 -29.05 2.65 Q-21.05 5.45 -12.5 4.15 1.45 1.75 7.95 -10.85 L8.55 -11.35 8.9 -11.4 8.95 -11.4 9.1 -11.5 M-22.6 6.3 Q-21.75 6.95 -20.75 8.15 L-20.55 8.15 Q-18.6 9.0 -13.7 9.0 -9.15 9.0 -3.55 7.35 -0.15 6.3 2.6 4.5 L6.7 0.9 Q8.0 0.05 8.95 -1.35 L8.55 -6.85 8.45 -7.65 Q1.45 3.75 -12.15 6.1 L-12.2 6.1 Q-17.5 6.95 -22.6 6.25 L-23.95 6.05 -27.75 5.2 Q-26.4 6.75 -25.35 8.55 L-25.3 8.55 Q-21.1 15.8 -13.95 17.05 L-13.95 17.0 Q-5.2 18.3 1.35 14.45 L2.35 13.85 2.1 14.0 2.05 13.7 2.05 12.45 Q1.9 5.15 8.4 5.15 L8.85 5.2 9.0 0.35 Q7.55 2.45 4.05 4.9 -3.4 10.15 -14.05 10.15 -18.05 10.15 -20.15 9.3 L-20.65 9.45 Q-21.15 9.45 -25.75 5.7 L-23.95 6.1 -22.6 6.3 M4.45 7.45 L3.65 10.0 Q3.25 10.85 3.0 13.4 6.05 11.15 8.55 7.75 L8.6 7.7 8.7 6.8 8.75 6.3 Q5.45 6.15 4.45 7.45" fill="#463624" fill-rule="evenodd" stroke="none"/>
    <path d="M-22.6 6.25 Q-17.5 6.95 -12.2 6.1 L-12.15 6.1 Q1.45 3.75 8.45 -7.65 L8.55 -6.85 8.95 -1.35 Q8.0 0.05 6.7 0.9 L2.6 4.5 Q-0.15 6.3 -3.55 7.35 -9.15 9.0 -13.7 9.0 -18.6 9.0 -20.55 8.15 L-20.75 8.15 Q-21.75 6.95 -22.6 6.3 L-22.6 6.25" fill="#e5e5e5" fill-rule="evenodd" stroke="none"/>
    <path d="M-22.6 6.3 L-23.95 6.1 -25.75 5.7 Q-21.15 9.45 -20.65 9.45 L-20.15 9.3 Q-18.05 10.15 -14.05 10.15 -3.4 10.15 4.05 4.9 7.55 2.45 9.0 0.35 L8.85 5.2 8.4 5.15 Q1.9 5.15 2.05 12.45 L2.05 13.7 2.1 14.0 2.35 13.85 1.35 14.45 Q-5.2 18.3 -13.95 17.0 L-13.95 17.05 Q-21.1 15.8 -25.3 8.55 L-25.35 8.55 Q-26.4 6.75 -27.75 5.2 L-23.95 6.05 -22.6 6.25 -22.6 6.3" fill="#57352d" fill-rule="evenodd" stroke="none"/>
    <path d="M4.45 7.45 Q5.45 6.15 8.75 6.3 L8.7 6.8 8.6 7.7 8.55 7.75 Q6.05 11.15 3.0 13.4 3.25 10.85 3.65 10.0 L4.45 7.45" fill="#b45f50" fill-rule="evenodd" stroke="none"/>
  </g>
</svg>
