<?xml version="1.0" encoding="UTF-8" standalone="no"?>
<svg xmlns:ffdec="https://www.free-decompiler.com/flash" xmlns:xlink="http://www.w3.org/1999/xlink" ffdec:objectType="shape" height="30.85px" width="41.2px" xmlns="http://www.w3.org/2000/svg">
  <g transform="matrix(1.0, 0.0, 0.0, 1.0, 30.2, 11.5)">
    <path d="M8.9 -11.4 L8.95 -11.4 9.1 -11.5 10.55 -4.75 Q11.4 0.45 10.6 7.95 L10.35 8.55 10.15 8.95 Q1.1 21.25 -14.25 19.0 -22.3 17.7 -27.05 9.55 -29.1 4.9 -30.2 3.05 L-29.8 2.7 -29.05 2.65 Q-21.05 5.45 -12.5 4.15 1.45 1.75 7.95 -10.85 L8.55 -11.35 8.9 -11.4 M8.95 -1.45 L8.55 -6.85 8.45 -7.65 Q1.45 3.75 -12.15 6.1 L-12.2 6.1 Q-17.45 6.95 -22.5 6.25 L-23.25 6.1 -23.55 6.15 -23.95 6.05 -27.75 5.2 -26.6 6.6 -26.05 7.45 -25.35 8.55 -25.3 8.55 -25.25 8.65 -24.55 9.8 -24.55 9.75 -24.35 9.7 -20.3 12.4 -17.55 11.7 -17.15 11.6 -15.05 11.15 -14.9 11.1 -14.0 11.1 -13.9 11.35 -13.95 11.6 -14.0 11.6 -18.95 13.15 -19.45 14.65 -19.45 14.75 -19.5 14.9 -17.35 16.05 -13.95 17.05 -13.95 17.0 Q-5.2 18.3 1.35 14.45 L1.8 14.2 2.1 14.0 5.9 10.8 6.5 10.2 8.55 7.75 8.6 7.7 8.6 7.65 8.85 7.65 8.9 6.85 Q7.95 6.05 7.4 6.05 5.15 6.05 3.4 6.85 L3.35 6.9 3.3 6.9 2.75 7.25 1.7 7.8 1.65 7.8 1.55 7.8 1.05 7.8 0.95 7.6 Q0.95 7.2 2.35 6.55 L2.8 6.35 2.85 6.35 3.35 6.15 4.3 5.8 4.4 5.75 4.55 5.7 7.7 4.45 Q8.45 3.35 9.0 1.7 L9.0 2.45 9.05 1.65 9.05 1.6 9.0 -0.55 8.9 -1.25 8.95 -1.35 8.95 -1.45 M1.8 14.2 L1.1 14.75 1.8 14.2 M-19.65 14.8 L-20.5 14.2 -20.55 13.75 Q-20.55 13.5 -22.35 12.3 L-22.95 11.9 -22.8 12.1 -21.1 13.7 -19.65 14.8" fill="#463624" fill-rule="evenodd" stroke="none"/>
    <path d="M-24.55 9.8 L-25.25 8.65 -25.3 8.55 -25.35 8.55 -26.05 7.45 -26.6 6.6 -27.75 5.2 -23.95 6.05 -23.55 6.15 -23.25 6.1 -22.5 6.25 Q-17.45 6.95 -12.2 6.1 L-12.15 6.1 Q1.45 3.75 8.45 -7.65 L8.55 -6.85 8.95 -1.45 8.9 -1.4 8.8 -1.25 8.9 -1.25 9.0 -0.55 9.05 1.6 9.05 1.65 9.0 1.7 Q8.45 3.35 7.7 4.45 L4.55 5.7 4.4 5.75 4.3 5.8 3.35 6.15 2.85 6.35 2.8 6.35 2.6 6.35 2.35 6.55 Q0.95 7.2 0.95 7.6 L1.05 7.8 1.55 7.8 1.65 7.8 1.7 7.8 2.75 7.25 3.3 6.9 3.35 6.9 3.4 6.9 3.4 6.85 Q5.15 6.05 7.4 6.05 7.95 6.05 8.9 6.85 L8.85 7.65 8.6 7.65 8.6 7.7 8.55 7.75 6.5 10.2 5.9 10.8 Q5.7 7.55 3.1 7.55 L0.65 8.25 0.4 8.2 0.3 7.9 Q0.3 7.2 4.35 4.15 L5.3 2.55 2.1 4.4 Q-2.65 6.45 -4.45 6.9 -10.8 8.4 -14.55 8.4 L-23.05 7.65 -25.8 6.85 Q-22.25 11.15 -16.95 11.15 L-12.65 10.9 -10.1 11.0 Q-10.0 11.05 -10.05 11.25 -11.2 12.0 -14.85 13.55 -16.25 14.45 -16.75 16.25 L-17.35 16.05 -19.5 14.9 -19.45 14.75 -19.45 14.7 -19.45 14.65 -18.95 13.15 -14.0 11.6 -13.95 11.6 -13.9 11.35 -14.0 11.1 -14.9 11.1 -15.05 11.15 -17.15 11.6 -17.55 11.7 -20.3 12.4 -24.35 9.7 -24.55 9.75 -24.55 9.8" fill="#e5e5e5" fill-rule="evenodd" stroke="none"/>
    <path d="M8.95 -1.45 L8.95 -1.35 8.9 -1.25 8.8 -1.25 8.9 -1.4 8.95 -1.45 M2.8 6.35 L2.35 6.55 2.6 6.35 2.8 6.35 M3.35 6.9 L3.4 6.85 3.4 6.9 3.35 6.9 M5.9 10.8 L2.1 14.0 1.8 14.2 1.35 14.45 Q-5.2 18.3 -13.95 17.0 L-13.95 17.05 -17.35 16.05 -16.75 16.25 Q-16.25 14.45 -14.85 13.55 -11.2 12.0 -10.05 11.25 -10.0 11.05 -10.1 11.0 L-12.65 10.9 -16.95 11.15 Q-22.25 11.15 -25.8 6.85 L-23.05 7.65 -14.55 8.4 Q-10.8 8.4 -4.45 6.9 -2.65 6.45 2.1 4.4 L5.3 2.55 4.35 4.15 Q0.3 7.2 0.3 7.9 L0.4 8.2 0.65 8.25 3.1 7.55 Q5.7 7.55 5.9 10.8" fill="#f9f9f9" fill-rule="evenodd" stroke="none"/>
    <path d="M-19.45 14.75 L-19.45 14.65 -19.45 14.7 -19.45 14.75 M-19.65 14.8 L-21.1 13.7 -22.8 12.1 -22.95 11.9 -22.35 12.3 Q-20.55 13.5 -20.55 13.75 L-20.5 14.2 -19.65 14.8" fill="#57352d" fill-rule="evenodd" stroke="none"/>
  </g>
</svg>
