<?xml version="1.0" encoding="UTF-8" standalone="no"?>
<svg xmlns:ffdec="https://www.free-decompiler.com/flash" xmlns:xlink="http://www.w3.org/1999/xlink" ffdec:objectType="shape" height="14.65px" width="27.85px" xmlns="http://www.w3.org/2000/svg">
  <g transform="matrix(1.0, 0.0, 0.0, 1.0, 18.25, -0.1)">
    <path d="M9.6 6.35 Q9.6 8.8 6.2 11.35 1.7 14.7 -5.9 14.7 L-10.5 14.6 -10.55 14.6 -11.75 14.75 Q-18.65 14.75 -18.2 9.15 L-18.1 8.35 Q-17.45 5.4 -11.3 2.8 -5.0 0.1 1.35 0.1 7.1 0.1 8.85 2.8 9.6 3.9 9.6 6.35 M-14.9 12.8 L-14.7 12.9 -13.75 13.3 Q-2.0 14.45 3.35 11.3 7.7 8.75 7.7 6.0 7.7 1.85 0.1 1.85 -7.7 1.85 -12.95 5.15 L-16.7 7.95 -16.0 8.9 -15.4 9.65 Q-13.6 7.95 -7.9 7.7 -6.85 7.7 -6.65 7.95 L-6.55 8.1 -10.9 9.45 -13.65 11.05 -13.65 11.1 -13.75 11.3 -14.8 12.6 -15.15 12.7 -14.9 12.8" fill="#463624" fill-rule="evenodd" stroke="none"/>
    <path d="M-14.8 12.6 L-13.75 11.3 -13.65 11.1 -13.65 11.05 -10.9 9.45 -6.55 8.1 -6.65 7.95 Q-6.85 7.7 -7.9 7.7 -13.6 7.95 -15.4 9.65 L-16.0 8.9 -16.7 7.95 -12.95 5.15 Q-7.7 1.85 0.1 1.85 7.7 1.85 7.7 6.0 7.7 8.75 3.35 11.3 -2.0 14.45 -13.75 13.3 L-14.7 12.9 -14.9 12.8 -14.8 12.6" fill="#e5e5e5" fill-rule="evenodd" stroke="none"/>
  </g>
</svg>
