<?xml version="1.0" encoding="UTF-8" standalone="no"?>
<svg xmlns:ffdec="https://www.free-decompiler.com/flash" xmlns:xlink="http://www.w3.org/1999/xlink" ffdec:objectType="shape" height="25.9px" width="35.65px" xmlns="http://www.w3.org/2000/svg">
  <g transform="matrix(1.0, 0.0, 0.0, 1.0, 23.45, 7.2)">
    <path d="M-15.7 2.55 L-11.95 -0.05 Q-4.1 -5.15 1.35 -5.15 6.65 -5.15 9.25 -0.85 L10.3 1.25 9.8 0.95 Q9.2 0.3 6.6 0.3 L5.1 0.35 Q-9.9 5.95 -11.4 5.95 -11.9 5.95 -13.8 4.15 L-15.7 2.55" fill="#e5e5e5" fill-rule="evenodd" stroke="none"/>
    <path d="M10.65 -1.65 Q11.95 1.15 12.2 4.2 12.2 9.35 10.1 12.1 5.0 18.7 -10.75 18.7 L-18.6 18.65 -18.75 18.4 Q-18.55 18.0 -18.7 17.7 L-18.55 16.35 -18.45 13.85 Q-18.45 7.35 -21.35 7.35 -21.9 7.35 -22.9 8.2 -23.45 8.0 -23.45 7.4 -6.75 -7.2 2.95 -7.2 8.05 -7.2 10.65 -1.65 M-15.7 2.55 L-13.8 4.15 Q-11.9 5.95 -11.4 5.95 -9.9 5.95 5.1 0.35 L6.6 0.3 Q9.2 0.3 9.8 0.95 L10.3 1.25 9.25 -0.85 Q6.65 -5.15 1.35 -5.15 -4.1 -5.15 -11.95 -0.05 L-15.7 2.55 -16.2 2.9 -15.7 2.55 M0.3 16.25 L0.25 16.0 Q0.25 15.55 1.0 15.15 1.75 14.8 1.75 14.45 1.0 14.25 0.35 13.7 -2.4 16.2 -4.9 16.2 -8.75 16.2 -8.75 13.25 -8.75 11.45 -7.15 9.2 -4.65 5.75 0.1 5.75 4.65 5.75 7.35 8.1 9.15 9.65 9.35 11.0 11.6 7.9 10.95 4.35 L10.8 2.85 10.7 2.35 10.8 2.8 10.7 2.8 Q9.4 2.8 9.0 2.2 8.65 1.6 6.4 1.6 2.75 1.6 -3.85 4.35 -10.4 7.1 -11.25 7.1 -13.1 7.1 -16.55 3.2 L-17.2 3.75 -20.05 6.35 Q-17.6 8.15 -17.25 11.45 -17.1 13.35 -17.2 17.1 L-10.65 17.35 Q-4.2 17.35 0.35 16.25 L0.4 16.25 1.2 16.0 0.3 16.25 M-7.3 11.75 L-7.65 13.0 Q-7.65 14.85 -5.5 14.85 -2.45 14.85 -0.2 12.75 1.35 11.3 1.95 9.6 L2.35 9.45 2.7 9.8 2.4 11.25 1.65 12.45 1.55 12.55 1.7 12.5 2.05 12.5 2.35 12.55 4.0 13.35 4.1 13.5 4.25 13.8 4.25 13.9 4.35 14.6 4.25 14.9 4.45 14.8 6.05 13.95 Q7.45 13.1 8.5 12.0 L7.95 11.3 7.1 9.55 Q5.35 7.0 0.1 7.0 -5.75 7.0 -7.3 11.75 M2.7 9.85 L2.9 9.8 2.95 9.15 2.95 10.5 2.6 11.25 2.6 10.9 2.7 9.85" fill="#463624" fill-rule="evenodd" stroke="none"/>
    <path d="M10.8 2.85 L10.95 4.35 Q11.6 7.9 9.35 11.0 9.15 9.65 7.35 8.1 4.65 5.75 0.1 5.75 -4.65 5.75 -7.15 9.2 -8.75 11.45 -8.75 13.25 -8.75 16.2 -4.9 16.2 -2.4 16.2 0.35 13.7 1.0 14.25 1.75 14.45 1.75 14.8 1.0 15.15 0.25 15.55 0.25 16.0 L0.3 16.25 0.35 16.25 Q-4.2 17.35 -10.65 17.35 L-17.2 17.1 Q-17.1 13.35 -17.25 11.45 -17.6 8.15 -20.05 6.35 L-17.2 3.75 -16.55 3.2 Q-13.1 7.1 -11.25 7.1 -10.4 7.1 -3.85 4.35 2.75 1.6 6.4 1.6 8.65 1.6 9.0 2.2 9.4 2.8 10.7 2.8 L10.8 2.8 10.8 2.85" fill="#57352d" fill-rule="evenodd" stroke="none"/>
    <path d="M2.4 11.25 L2.7 9.8 2.35 9.45 1.95 9.6 Q1.35 11.3 -0.2 12.75 -2.45 14.85 -5.5 14.85 -7.65 14.85 -7.65 13.0 L-7.3 11.75 Q-6.2 13.1 -3.9 13.1 -0.95 13.1 0.75 10.95 L2.45 8.75 Q5.6 8.75 6.1 13.35 L6.05 13.95 4.45 14.8 4.35 14.6 4.25 13.9 4.25 13.8 4.1 13.5 4.0 13.35 2.35 12.55 2.05 12.5 2.4 11.25 M2.7 9.85 L2.6 10.9 2.6 11.25 2.95 10.5 2.95 9.15 2.9 9.8 2.7 9.85" fill="#a05345" fill-rule="evenodd" stroke="none"/>
    <path d="M2.4 11.25 L2.05 12.5 1.7 12.5 1.65 12.45 2.4 11.25 M6.05 13.95 L6.1 13.35 Q5.6 8.75 2.45 8.75 L0.75 10.95 Q-0.95 13.1 -3.9 13.1 -6.2 13.1 -7.3 11.75 -5.75 7.0 0.1 7.0 5.35 7.0 7.1 9.55 L7.95 11.3 8.5 12.0 Q7.45 13.1 6.05 13.95" fill="#b45f50" fill-rule="evenodd" stroke="none"/>
  </g>
</svg>
