<?xml version="1.0" encoding="UTF-8" standalone="no"?>
<svg xmlns:ffdec="https://www.free-decompiler.com/flash" xmlns:xlink="http://www.w3.org/1999/xlink" ffdec:objectType="shape" height="16.6px" width="36.9px" xmlns="http://www.w3.org/2000/svg">
  <g transform="matrix(1.0, 0.0, 0.0, 1.0, 27.8, 6.0)">
    <path d="M4.25 -5.8 L3.8 -5.55 Q8.55 -5.5 9.1 1.7 6.05 10.8 1.05 10.6 -4.0 10.35 -9.95 9.1 -15.65 7.9 -19.15 6.25 -24.05 6.05 -26.3 4.65 L-27.8 2.05 Q-18.1 5.35 -8.35 2.05 -1.6 -0.4 3.25 -5.8 L4.05 -5.9 Q4.95 -5.8 4.25 -5.8 M6.7 2.95 L6.85 2.55 6.65 2.95 3.1 2.7 Q1.85 2.7 1.0 5.35 0.3 7.4 0.65 8.7 0.95 8.35 2.4 8.35 3.75 8.35 5.5 5.2 L6.7 2.95 M7.1 1.45 Q7.1 -1.5 2.45 -2.5 1.1 -0.55 -3.05 2.3 -7.0 4.95 -12.0 5.85 L-8.15 6.75 -1.9 8.05 -0.75 8.5 -0.6 6.9 Q-0.4 5.45 0.75 3.15 1.9 0.8 3.6 0.85 5.3 0.85 6.6 1.35 L7.1 1.55 7.1 1.45" fill="#463624" fill-rule="evenodd" stroke="none"/>
    <path d="M7.1 1.55 L6.6 1.35 Q5.3 0.85 3.6 0.85 1.9 0.8 0.75 3.15 -0.4 5.45 -0.6 6.9 L-0.75 8.5 -1.9 8.05 -8.15 6.75 -12.0 5.85 Q-7.0 4.95 -3.05 2.3 1.1 -0.55 2.45 -2.5 7.1 -1.5 7.1 1.45 L7.1 1.55" fill="#57352d" fill-rule="evenodd" stroke="none"/>
    <path d="M6.65 2.95 L6.7 2.95 5.5 5.2 Q3.75 8.35 2.4 8.35 0.95 8.35 0.65 8.7 0.3 7.4 1.0 5.35 1.85 2.7 3.1 2.7 L6.65 2.95" fill="#b45f50" fill-rule="evenodd" stroke="none"/>
  </g>
</svg>
