<?xml version="1.0" encoding="UTF-8" standalone="no"?>
<svg xmlns:ffdec="https://www.free-decompiler.com/flash" xmlns:xlink="http://www.w3.org/1999/xlink" ffdec:objectType="shape" height="7.85px" width="23.45px" xmlns="http://www.w3.org/2000/svg">
  <g transform="matrix(1.0, 0.0, 0.0, 1.0, 20.7, -5.75)">
    <path d="M1.4 8.2 Q1.85 8.95 1.85 10.15 1.85 11.75 1.25 11.75 L-4.65 11.15 -5.4 11.0 -5.35 10.95 Q-4.55 10.95 -4.5 10.6 -4.45 9.9 -3.4 9.2 -2.8 8.75 -0.85 8.8 0.7 8.8 1.4 8.2" fill="#b45f50" fill-rule="evenodd" stroke="none"/>
    <path d="M0.7 12.85 L-4.45 12.25 -10.75 11.6 Q-13.9 11.6 -16.5 12.6 -19.1 13.6 -19.75 13.6 L-20.2 13.5 -20.4 13.0 Q-20.4 12.35 -16.6 11.45 L-16.2 11.35 Q-17.15 10.45 -17.15 8.3 L-20.55 9.6 Q-20.7 10.0 -20.7 9.35 -20.7 8.6 -16.5 7.6 L-16.95 7.7 Q-16.45 7.15 -14.7 6.9 L-10.3 6.45 -7.25 6.15 -4.4 5.85 -2.65 5.75 0.1 6.05 Q2.85 6.75 2.75 10.1 2.75 12.85 0.7 12.85 M0.7 7.45 L0.25 7.2 -0.05 7.25 -2.6 7.0 Q-13.1 7.0 -15.95 8.35 -15.4 9.45 -15.4 10.25 L-15.4 11.2 -10.25 10.5 -6.75 10.8 Q-6.65 9.65 -4.9 8.5 -2.95 7.25 -0.4 7.25 L0.65 7.45 1.0 7.7 0.7 7.45 M1.4 8.2 Q0.7 8.8 -0.85 8.8 -2.8 8.75 -3.4 9.2 -4.45 9.9 -4.5 10.6 -4.55 10.95 -5.35 10.95 L-5.4 11.0 -4.65 11.15 1.25 11.75 Q1.85 11.75 1.85 10.15 1.85 8.95 1.4 8.2" fill="#463624" fill-rule="evenodd" stroke="none"/>
    <path d="M0.65 7.45 L-0.4 7.25 Q-2.95 7.25 -4.9 8.5 -6.65 9.65 -6.75 10.8 L-10.25 10.5 -15.4 11.2 -15.4 10.25 Q-15.4 9.45 -15.95 8.35 -13.1 7.0 -2.6 7.0 L-0.05 7.25 0.25 7.2 0.7 7.45 0.65 7.45" fill="#57352d" fill-rule="evenodd" stroke="none"/>
  </g>
</svg>
