<?xml version="1.0" encoding="UTF-8" standalone="no"?>
<svg xmlns:ffdec="https://www.free-decompiler.com/flash" xmlns:xlink="http://www.w3.org/1999/xlink" ffdec:objectType="shape" height="47.25px" width="79.0px" xmlns="http://www.w3.org/2000/svg">
  <g transform="matrix(1.0, 0.0, 0.0, 1.0, -13.2, -25.75)">
    <path d="M85.4 38.2 Q86.15 46.7 89.9 55.2 85.45 56.55 80.95 54.35 L80.0 53.95 79.6 54.85 Q78.15 57.75 79.05 62.3 65.5 60.1 60.5 42.95 L60.5 42.9 59.8 38.1 Q57.05 45.15 58.5 53.85 60.0 62.8 67.15 68.75 60.05 66.15 54.55 61.75 46.65 55.35 44.0 48.7 L42.85 46.05 Q39.8 58.6 46.5 67.65 43.15 66.8 39.75 61.95 36.35 57.05 31.25 37.35 L30.45 34.6 30.05 34.6 29.35 37.35 Q25.65 50.35 33.15 62.85 25.2 55.35 22.15 49.9 15.8 38.85 15.25 27.1 L15.25 26.85 Q85.8 27.3 85.4 38.2" fill="#deaa5c" fill-rule="evenodd" stroke="none"/>
    <path d="M85.4 38.2 L92.2 56.5 Q86.25 58.75 81.05 56.6 80.25 59.3 81.35 64.6 63.55 62.75 60.5 42.95 65.5 60.1 79.05 62.3 78.15 57.75 79.6 54.85 L80.0 53.95 80.95 54.35 Q85.45 56.55 89.9 55.2 86.15 46.7 85.4 38.2 M60.5 42.9 Q59.5 47.8 60.45 53.5 62.0 62.7 70.1 68.5 L75.9 73.0 Q61.75 70.05 53.3 63.3 46.6 57.9 43.5 52.25 42.1 62.05 49.1 68.95 41.95 67.5 38.25 61.7 35.05 56.8 30.4 41.45 27.75 54.6 35.3 64.75 25.05 59.15 20.4 50.9 13.8 39.4 13.25 27.1 L13.2 26.35 13.2 25.75 15.25 26.85 15.25 27.1 Q15.8 38.85 22.15 49.9 25.2 55.35 33.15 62.85 25.65 50.35 29.35 37.35 L30.05 34.6 30.45 34.6 31.25 37.35 Q36.35 57.05 39.75 61.95 43.15 66.8 46.5 67.65 39.8 58.6 42.85 46.05 L44.0 48.7 Q46.65 55.35 54.55 61.75 60.05 66.15 67.15 68.75 60.0 62.8 58.5 53.85 57.05 45.15 59.8 38.1 L60.5 42.9" fill="#c28127" fill-rule="evenodd" stroke="none"/>
  </g>
</svg>
