<?xml version="1.0" encoding="UTF-8" standalone="no"?>
<svg xmlns:ffdec="https://www.free-decompiler.com/flash" xmlns:xlink="http://www.w3.org/1999/xlink" ffdec:objectType="shape" height="157.55px" width="57.8px" xmlns="http://www.w3.org/2000/svg">
  <g transform="matrix(1.0, 0.0, 0.0, 1.0, 24.15, 123.9)">
    <path d="M1.0 -12.55 L2.75 -12.5 2.85 -6.45 3.0 -6.1 3.4 -5.95 3.8 -6.1 3.95 -6.45 4.0 -7.6 5.35 -7.6 15.1 -8.0 19.9 -8.6 19.95 -8.1 20.1 -7.75 20.55 -7.6 20.95 -7.75 21.1 -8.1 20.95 -13.7 22.05 -13.95 22.25 -8.1 22.4 -7.75 22.8 -7.6 23.25 -7.75 23.4 -8.1 23.35 -9.3 Q27.25 -10.2 29.2 -11.35 29.25 -10.95 27.35 -10.4 33.6 15.75 25.25 24.3 17.85 31.75 6.2 31.2 -5.6 30.45 -13.35 21.7 -21.05 12.9 -19.3 -5.85 L-18.7 -11.05 Q-16.75 -10.0 -12.5 -9.15 -6.85 -8.05 -0.05 -7.75 L-0.05 -6.45 0.1 -6.1 0.55 -5.95 0.95 -6.1 1.1 -6.45 1.0 -12.55 M20.0 -1.3 Q20.1 -0.9 20.5 -0.6 L21.4 -0.45 22.05 -0.9 22.25 -1.75 21.25 -5.15 20.65 -5.75 19.8 -5.85 19.1 -5.35 Q18.85 -5.0 19.05 -4.45 L20.0 -1.3 M-5.8 -4.55 Q-14.15 -5.65 -15.4 -1.7 -16.75 2.3 -14.65 10.95 -12.6 19.7 -5.8 22.95 0.9 26.15 5.7 24.05 10.4 21.85 13.2 16.65 15.9 11.45 15.55 4.4 15.05 -2.65 8.75 -3.1 L-5.8 -4.55 M22.5 2.05 Q22.15 1.75 21.7 1.8 21.15 1.8 20.9 2.2 20.6 2.5 20.7 3.05 L21.05 6.3 Q21.05 6.75 21.4 7.1 L22.25 7.45 23.05 7.0 23.35 6.25 23.0 2.85 Q22.85 2.3 22.5 2.05 M22.3 9.65 Q21.8 9.55 21.5 9.9 21.1 10.2 21.15 10.7 L20.85 13.95 Q20.75 14.4 21.1 14.85 L21.9 15.3 22.8 15.05 23.2 14.3 23.45 10.85 23.1 10.0 Q22.75 9.6 22.3 9.65 M20.75 17.7 Q20.3 18.0 20.3 18.5 L19.65 21.75 Q19.55 22.25 19.9 22.65 L20.6 23.2 21.5 23.1 21.95 22.3 22.6 18.9 22.4 18.0 Q22.1 17.6 21.65 17.55 L20.75 17.7" fill="#4b4680" fill-rule="evenodd" stroke="none"/>
    <path d="M-17.8 -16.3 L-17.65 -16.25 Q-12.4 -13.4 -0.05 -12.6 L-0.05 -8.85 Q-6.75 -9.15 -12.3 -10.2 -16.8 -11.15 -18.5 -12.15 L-18.5 -12.2 -18.15 -14.7 -18.1 -14.7 -17.8 -16.3 M3.85 -12.4 L15.4 -12.75 15.1 -9.15 14.95 -9.15 5.3 -8.65 3.95 -8.65 3.85 -12.4" fill="#666666" fill-rule="evenodd" stroke="none"/>
    <path d="M15.4 -12.75 L19.8 -13.45 19.9 -9.75 15.1 -9.15 15.4 -12.75 M23.15 -14.35 L25.2 -15.05 Q26.85 -15.85 28.15 -16.8 L28.55 -14.75 28.95 -12.7 28.95 -12.55 Q27.35 -11.45 23.3 -10.4 L23.15 -14.35" fill="#515151" fill-rule="evenodd" stroke="none"/>
    <path d="M-19.85 -17.65 Q-19.05 -17.0 -17.8 -16.3 L-18.1 -14.7 -18.15 -14.7 -18.5 -12.2 -18.5 -12.15 -18.65 -11.65 -18.7 -11.05 -19.3 -5.85 Q-21.05 12.9 -13.35 21.7 -5.6 30.45 6.2 31.2 17.85 31.75 25.25 24.3 33.6 15.75 27.35 -10.4 29.25 -10.95 29.2 -11.35 L29.1 -11.95 28.95 -12.55 28.95 -12.7 28.55 -14.75 28.15 -16.8 30.05 -18.7 30.8 -15.05 30.8 -15.0 Q30.85 -14.1 31.2 -13.0 L31.25 -12.9 Q31.3 -11.9 31.6 -10.8 L31.7 -10.75 Q33.3 -2.1 33.6 4.8 34.25 20.35 28.0 26.0 18.75 34.25 6.1 33.6 -6.75 32.8 -15.1 23.25 -23.45 13.95 -21.6 -6.0 L-20.8 -12.5 -20.75 -13.05 -20.7 -13.5 Q-20.85 -14.0 -20.5 -14.4 L-20.4 -15.05 -20.4 -15.0 -19.85 -17.65 M-0.05 -12.6 L1.0 -12.55 1.1 -6.45 0.95 -6.1 0.55 -5.95 0.1 -6.1 -0.05 -6.45 -0.05 -7.75 -0.05 -8.85 -0.05 -12.6 M2.75 -12.5 L3.3 -12.4 3.85 -12.4 3.95 -8.65 4.0 -7.6 3.95 -6.45 3.8 -6.1 3.4 -5.95 3.0 -6.1 2.85 -6.45 2.75 -12.5 M19.8 -13.45 L20.95 -13.7 21.1 -8.1 20.95 -7.75 20.55 -7.6 20.1 -7.75 19.95 -8.1 19.9 -8.6 19.9 -9.75 19.8 -13.45 M22.05 -13.95 L23.15 -14.35 23.3 -10.4 23.35 -9.3 23.4 -8.1 23.25 -7.75 22.8 -7.6 22.4 -7.75 22.25 -8.1 22.05 -13.95 M20.0 -1.3 L19.05 -4.45 Q18.85 -5.0 19.1 -5.35 L19.8 -5.85 20.65 -5.75 21.25 -5.15 22.25 -1.75 22.05 -0.9 21.4 -0.45 20.5 -0.6 Q20.1 -0.9 20.0 -1.3 M20.75 17.7 L21.65 17.55 Q22.1 17.6 22.4 18.0 L22.6 18.9 21.95 22.3 21.5 23.1 20.6 23.2 19.9 22.65 Q19.55 22.25 19.65 21.75 L20.3 18.5 Q20.3 18.0 20.75 17.7 M22.3 9.65 Q22.75 9.6 23.1 10.0 L23.45 10.85 23.2 14.3 22.8 15.05 21.9 15.3 21.1 14.85 Q20.75 14.4 20.85 13.95 L21.15 10.7 Q21.1 10.2 21.5 9.9 21.8 9.55 22.3 9.65 M22.5 2.05 Q22.85 2.3 23.0 2.85 L23.35 6.25 23.05 7.0 22.25 7.45 21.4 7.1 Q21.05 6.75 21.05 6.3 L20.7 3.05 Q20.6 2.5 20.9 2.2 21.15 1.8 21.7 1.8 22.15 1.75 22.5 2.05" fill="#3a3766" fill-rule="evenodd" stroke="none"/>
    <path d="M4.0 -7.6 L3.95 -8.65 5.3 -8.65 14.95 -9.15 15.1 -9.15 19.9 -9.75 19.9 -8.6 15.1 -8.0 5.35 -7.6 4.0 -7.6 M28.95 -12.55 L29.1 -11.95 29.2 -11.35 Q27.25 -10.2 23.35 -9.3 L23.3 -10.4 Q27.35 -11.45 28.95 -12.55 M-18.7 -11.05 L-18.65 -11.65 -18.5 -12.15 Q-16.8 -11.15 -12.3 -10.2 -6.75 -9.15 -0.05 -8.85 L-0.05 -7.75 Q-6.85 -8.05 -12.5 -9.15 -16.75 -10.0 -18.7 -11.05" fill="#464646" fill-rule="evenodd" stroke="none"/>
    <path d="M-5.8 -4.55 L8.75 -3.1 Q15.05 -2.65 15.55 4.4 15.9 11.45 13.2 16.65 10.4 21.85 5.7 24.05 0.9 26.15 -5.8 22.95 -12.6 19.7 -14.65 10.95 -16.75 2.3 -15.4 -1.7 -14.15 -5.65 -5.8 -4.55" fill="#565195" fill-rule="evenodd" stroke="none"/>
    <path d="M-8.7 -111.9 Q-9.15 -112.3 -9.55 -112.25 L-10.45 -111.95 -10.5 -111.9 Q-10.9 -111.6 -10.85 -111.15 -10.95 -110.75 -10.5 -110.4 L-9.6 -110.1 Q-9.15 -110.1 -8.8 -110.4 L-8.75 -110.45 Q-8.35 -110.75 -8.3 -111.15 -8.35 -111.65 -8.7 -111.9 M-9.6 -113.1 Q-8.7 -113.1 -8.0 -112.5 -7.3 -111.95 -7.3 -111.15 -7.4 -110.45 -8.0 -109.85 L-8.05 -109.8 Q-8.75 -109.25 -9.6 -109.15 -10.5 -109.2 -11.2 -109.8 -11.9 -110.35 -11.9 -111.05 L-15.6 -102.1 -12.25 -101.6 -11.0 -103.8 -11.2 -103.6 -11.25 -103.55 Q-11.75 -103.05 -12.4 -103.05 -13.2 -103.05 -13.7 -103.55 -14.2 -104.05 -14.2 -104.6 -14.25 -105.25 -13.7 -105.7 L-13.65 -105.75 Q-13.1 -106.2 -12.4 -106.15 -11.7 -106.15 -11.15 -105.7 -10.6 -105.25 -10.6 -104.6 L-10.65 -104.35 -4.8 -114.65 -10.2 -115.0 -11.25 -112.55 -11.2 -112.55 Q-10.5 -113.15 -9.6 -113.1 M-3.95 -115.45 L-3.7 -115.35 -3.5 -115.1 -3.55 -114.8 -11.45 -100.9 -11.7 -100.7 -12.0 -100.65 -16.35 -101.3 -16.6 -101.4 -16.75 -101.65 -16.8 -101.95 -11.05 -115.6 -10.85 -115.85 -10.5 -115.85 -3.95 -115.45 M-11.95 -104.15 L-11.9 -104.2 -11.65 -104.6 -11.85 -105.1 -12.35 -105.25 -13.0 -105.15 -13.05 -105.1 -13.2 -104.6 -12.95 -104.15 -12.4 -103.95 -11.95 -104.15" fill="#975974" fill-rule="evenodd" stroke="none"/>
    <path d="M4.8 -95.9 L3.85 -98.7 Q3.4 -100.35 3.25 -101.9 3.1 -103.05 3.35 -104.1 3.55 -105.1 3.9 -105.9 L4.25 -107.5 Q4.45 -109.55 2.8 -110.95 L1.3 -111.55 Q0.5 -111.75 -0.2 -111.55 -2.35 -111.1 -3.7 -109.65 -8.8 -104.55 -12.15 -98.4 L-15.9 -99.1 -16.7 -97.35 -16.85 -97.0 -19.1 -97.65 -19.05 -97.95 -19.0 -98.1 -18.95 -98.25 Q-16.95 -104.3 -14.0 -111.2 -9.5 -122.15 -1.05 -122.1 L1.9 -121.85 Q12.6 -119.5 15.4 -107.95 L17.3 -98.95 17.4 -98.7 17.4 -98.55 17.45 -98.05 Q16.15 -97.45 13.1 -96.85 L4.8 -95.9 M7.0 -90.65 L13.65 -91.4 Q17.05 -92.1 18.5 -92.75 L21.7 -73.65 21.85 -72.8 Q20.25 -71.8 16.45 -71.0 L14.7 -70.7 14.7 -73.15 Q14.5 -75.15 13.75 -77.0 L11.35 -81.95 7.95 -88.65 7.0 -90.65 M-18.95 -91.9 L-19.3 -89.8 Q-19.5 -87.5 -19.2 -85.3 -18.95 -83.3 -18.2 -81.3 L-17.25 -78.95 Q-16.45 -77.2 -14.3 -76.2 L-11.95 -75.55 -7.45 -75.15 -3.45 -74.95 Q-1.5 -74.9 -0.75 -73.4 -2.4 -72.25 -4.55 -72.25 L-11.7 -72.5 Q-12.8 -72.3 -13.4 -71.6 L-13.75 -71.05 Q-16.3 -71.65 -17.25 -72.15 L-17.3 -72.9 Q-17.5 -73.8 -15.15 -73.15 -12.95 -72.45 -17.05 -74.25 -21.25 -76.1 -22.75 -83.45 -23.15 -85.75 -22.75 -87.15 -22.2 -90.45 -21.1 -92.7 L-18.95 -91.9 M10.05 -64.4 L17.0 -65.3 Q21.1 -66.1 22.7 -66.95 24.1 -54.85 25.15 -49.95 L26.1 -44.6 Q24.4 -43.75 20.05 -42.8 L13.7 -42.0 13.4 -42.2 8.45 -46.05 Q7.6 -46.7 7.8 -47.5 10.25 -47.75 12.55 -48.8 14.1 -49.55 15.5 -50.4 17.1 -51.4 17.9 -52.85 L18.4 -54.3 Q18.6 -55.7 17.45 -56.85 L11.25 -61.8 Q9.75 -62.7 9.85 -64.05 9.8 -64.25 10.05 -64.4 M27.05 -39.1 L27.4 -28.6 27.25 -25.1 26.85 -22.5 Q25.85 -19.45 23.05 -17.45 L22.3 -16.95 22.0 -16.75 20.85 -16.3 19.7 -15.85 15.5 -15.0 3.85 -14.6 3.4 -14.6 2.75 -14.65 1.05 -14.7 -0.1 -14.75 Q-11.6 -15.5 -16.6 -18.05 L-17.3 -18.55 -19.25 -20.3 Q-20.75 -22.6 -19.25 -25.6 -17.35 -29.7 -16.55 -37.15 L-15.45 -36.9 Q-16.55 -32.7 -16.85 -28.3 L-16.9 -26.1 Q-16.9 -25.15 -16.35 -24.3 L-16.0 -23.7 -14.2 -21.45 Q-12.15 -19.2 -9.0 -18.1 -4.8 -16.55 -0.15 -16.3 L1.0 -16.25 2.45 -16.25 2.7 -16.25 3.85 -16.3 10.0 -16.65 Q12.85 -16.85 15.55 -17.85 L17.45 -18.7 Q20.55 -20.2 21.5 -23.1 L21.85 -24.75 Q22.1 -26.65 21.1 -28.3 L19.55 -30.15 Q18.5 -31.35 17.05 -31.35 L14.95 -31.2 Q10.8 -31.05 6.75 -31.35 4.1 -31.65 1.8 -32.55 -0.55 -33.5 -1.15 -35.55 L2.6 -35.5 14.2 -35.9 15.25 -36.0 20.55 -36.7 22.15 -37.0 Q25.55 -37.85 27.05 -39.1 M-16.15 -43.55 L-16.1 -44.1 -16.25 -49.0 -16.75 -65.8 -14.75 -65.3 -14.75 -63.0 Q-14.75 -61.85 -14.35 -60.65 -14.1 -59.95 -13.4 -59.6 -11.75 -58.8 -9.75 -58.2 L-8.35 -57.25 -8.4 -57.15 Q-10.7 -57.1 -12.05 -55.5 L-13.25 -53.85 Q-13.85 -53.0 -13.55 -52.1 L-12.85 -51.85 -11.55 -51.4 -10.85 -50.75 Q-11.0 -49.85 -11.55 -49.05 L-12.7 -48.15 Q-13.5 -47.65 -13.75 -46.9 -14.3 -45.7 -14.25 -44.2 L-14.3 -43.0 -16.15 -43.55 M-3.95 -115.45 L-10.5 -115.85 -10.85 -115.85 -11.05 -115.6 -16.8 -101.95 -16.75 -101.65 -16.6 -101.4 -16.35 -101.3 -12.0 -100.65 -11.7 -100.7 -11.45 -100.9 -3.55 -114.8 -3.5 -115.1 -3.7 -115.35 -3.95 -115.45" fill="#fd97b3" fill-rule="evenodd" stroke="none"/>
    <path d="M-16.85 -97.0 L-16.7 -97.35 -15.9 -99.1 -12.15 -98.4 Q-8.8 -104.55 -3.7 -109.65 -2.35 -111.1 -0.2 -111.55 0.5 -111.75 1.3 -111.55 L2.8 -110.95 Q4.45 -109.55 4.25 -107.5 L3.9 -105.9 Q3.55 -105.1 3.35 -104.1 3.1 -103.05 3.25 -101.9 3.4 -100.35 3.85 -98.7 L4.8 -95.9 -1.8 -95.75 -16.0 -96.85 -16.85 -97.0 M7.0 -90.65 L7.95 -88.65 11.35 -81.95 13.75 -77.0 Q14.5 -75.15 14.7 -73.15 L14.7 -70.7 1.05 -69.9 Q-8.7 -69.9 -13.6 -71.0 L-13.75 -71.05 -13.4 -71.6 Q-12.8 -72.3 -11.7 -72.5 L-4.55 -72.25 Q-2.4 -72.25 -0.75 -73.4 -1.5 -74.9 -3.45 -74.95 L-7.45 -75.15 -11.95 -75.55 -14.3 -76.2 Q-16.45 -77.2 -17.25 -78.95 L-18.2 -81.3 Q-18.95 -83.3 -19.2 -85.3 -19.5 -87.5 -19.3 -89.8 L-18.95 -91.9 -17.0 -91.4 Q-12.05 -90.35 -2.15 -90.35 L7.0 -90.65 M-14.75 -65.3 L-14.6 -65.3 Q-9.5 -64.15 0.75 -64.1 L10.05 -64.4 Q9.8 -64.25 9.85 -64.05 9.75 -62.7 11.25 -61.8 L17.45 -56.85 Q18.6 -55.7 18.4 -54.3 L17.9 -52.85 Q17.1 -51.4 15.5 -50.4 14.1 -49.55 12.55 -48.8 10.25 -47.75 7.8 -47.5 7.6 -46.7 8.45 -46.05 L13.4 -42.2 13.7 -42.0 7.5 -41.65 2.85 -41.6 2.55 -41.6 -4.3 -41.75 -8.1 -42.05 -13.4 -42.8 -14.3 -43.0 -14.25 -44.2 Q-14.3 -45.7 -13.75 -46.9 -13.5 -47.65 -12.7 -48.15 L-11.55 -49.05 Q-11.0 -49.85 -10.85 -50.75 L-11.55 -51.4 -12.85 -51.85 -13.55 -52.1 Q-13.85 -53.0 -13.25 -53.85 L-12.05 -55.5 Q-10.7 -57.1 -8.4 -57.15 L-8.35 -57.25 -9.75 -58.2 Q-11.75 -58.8 -13.4 -59.6 -14.1 -59.95 -14.35 -60.65 -14.75 -61.85 -14.75 -63.0 L-14.75 -65.3 M-1.15 -35.55 Q-0.55 -33.5 1.8 -32.55 4.1 -31.65 6.75 -31.35 10.8 -31.05 14.95 -31.2 L17.05 -31.35 Q18.5 -31.35 19.55 -30.15 L21.1 -28.3 Q22.1 -26.65 21.85 -24.75 L21.5 -23.1 Q20.55 -20.2 17.45 -18.7 L15.55 -17.85 Q12.85 -16.85 10.0 -16.65 L3.85 -16.3 2.7 -16.25 2.45 -16.25 1.0 -16.25 -0.15 -16.3 Q-4.8 -16.55 -9.0 -18.1 -12.15 -19.2 -14.2 -21.45 L-16.0 -23.7 -16.35 -24.3 Q-16.9 -25.15 -16.9 -26.1 L-16.85 -28.3 Q-16.55 -32.7 -15.45 -36.9 L-14.55 -36.7 -12.9 -36.4 -10.6 -36.1 -1.15 -35.55" fill="#fdaec4" fill-rule="evenodd" stroke="none"/>
    <path d="M4.8 -95.9 L13.1 -96.85 Q16.15 -97.45 17.45 -98.05 L18.35 -93.55 18.5 -92.75 Q17.05 -92.1 13.65 -91.4 L7.0 -90.65 5.3 -94.6 4.8 -95.9 M-19.1 -97.65 L-16.85 -97.0 -18.05 -94.3 -18.95 -91.9 -21.1 -92.7 -19.1 -97.65 M14.7 -70.7 L16.45 -71.0 Q20.25 -71.8 21.85 -72.8 L22.6 -67.75 22.7 -66.95 Q21.1 -66.1 17.0 -65.3 L10.05 -64.4 Q10.3 -64.85 11.0 -65.1 L12.35 -66.05 Q14.35 -67.65 14.6 -69.9 L14.7 -70.7 M13.7 -42.0 L20.05 -42.8 Q24.4 -43.75 26.1 -44.6 L27.05 -39.1 Q25.55 -37.85 22.15 -37.0 L20.55 -36.7 15.25 -36.0 14.2 -35.9 2.6 -35.5 -1.15 -35.55 -1.2 -35.6 -0.85 -35.8 0.65 -36.35 3.75 -36.1 10.7 -36.7 12.45 -37.05 14.15 -37.7 14.95 -38.3 15.55 -39.45 Q15.1 -40.95 13.7 -42.0 M-16.55 -37.15 L-16.5 -37.4 -16.4 -38.5 -16.4 -38.55 -16.15 -43.55 -14.3 -43.0 Q-14.5 -40.3 -15.25 -37.55 L-15.45 -36.9 -16.55 -37.15 M-16.75 -65.8 L-16.8 -66.35 -16.85 -67.1 -16.85 -67.2 -17.25 -72.15 Q-16.3 -71.65 -13.75 -71.05 -14.15 -70.45 -14.2 -69.6 -14.25 -68.6 -14.45 -67.55 L-14.75 -65.3 -16.75 -65.8" fill="#fe89c0" fill-rule="evenodd" stroke="none"/>
    <path d="M-16.85 -97.0 L-16.0 -96.85 -1.8 -95.75 4.8 -95.9 5.3 -94.6 7.0 -90.65 -2.15 -90.35 Q-12.05 -90.35 -17.0 -91.4 L-18.95 -91.9 -18.05 -94.3 -16.85 -97.0 M-13.75 -71.05 L-13.6 -71.0 Q-8.7 -69.9 1.05 -69.9 L14.7 -70.7 14.6 -69.9 Q14.35 -67.65 12.35 -66.05 L11.0 -65.1 Q10.3 -64.85 10.05 -64.4 L0.75 -64.1 Q-9.5 -64.15 -14.6 -65.3 L-14.75 -65.3 -14.45 -67.55 Q-14.25 -68.6 -14.2 -69.6 -14.15 -70.45 -13.75 -71.05 M13.7 -42.0 Q15.1 -40.95 15.55 -39.45 L14.95 -38.3 14.15 -37.7 12.45 -37.05 10.7 -36.7 3.75 -36.1 0.65 -36.35 -0.85 -35.8 -1.2 -35.6 -1.15 -35.55 -10.6 -36.1 -12.9 -36.4 -14.55 -36.7 -15.45 -36.9 -15.25 -37.55 Q-14.5 -40.3 -14.3 -43.0 L-13.4 -42.8 -8.1 -42.05 -4.3 -41.75 2.55 -41.6 2.85 -41.6 7.5 -41.65 13.7 -42.0" fill="#fe9ecc" fill-rule="evenodd" stroke="none"/>
    <path d="M-9.6 -113.1 Q-10.5 -113.15 -11.2 -112.55 L-11.25 -112.55 -10.2 -115.0 -4.8 -114.65 -10.65 -104.35 -10.6 -104.6 Q-10.6 -105.25 -11.15 -105.7 -11.7 -106.15 -12.4 -106.15 -13.1 -106.2 -13.65 -105.75 L-13.7 -105.7 Q-14.25 -105.25 -14.2 -104.6 -14.2 -104.05 -13.7 -103.55 -13.2 -103.05 -12.4 -103.05 -11.75 -103.05 -11.25 -103.55 L-11.2 -103.6 -11.0 -103.8 -12.25 -101.6 -15.6 -102.1 -11.9 -111.05 Q-11.9 -110.35 -11.2 -109.8 -10.5 -109.2 -9.6 -109.15 -8.75 -109.25 -8.05 -109.8 L-8.0 -109.85 Q-7.4 -110.45 -7.3 -111.15 -7.3 -111.95 -8.0 -112.5 -8.7 -113.1 -9.6 -113.1" fill="#fd82a4" fill-rule="evenodd" stroke="none"/>
    <path d="M-8.7 -111.9 Q-8.35 -111.65 -8.3 -111.15 -8.35 -110.75 -8.75 -110.45 L-8.8 -110.4 Q-9.15 -110.1 -9.6 -110.1 L-10.5 -110.4 Q-10.95 -110.75 -10.85 -111.15 -10.9 -111.6 -10.5 -111.9 L-10.45 -111.95 -9.55 -112.25 Q-9.15 -112.3 -8.7 -111.9 M-11.95 -104.15 L-12.4 -103.95 -12.95 -104.15 -13.2 -104.6 -13.05 -105.1 -13.0 -105.15 -12.35 -105.25 -11.85 -105.1 -11.65 -104.6 -11.9 -104.2 -11.95 -104.15" fill="#ffffff" fill-rule="evenodd" stroke="none"/>
    <path d="M17.45 -98.05 L17.4 -98.55 17.4 -98.7 17.3 -98.95 15.4 -107.95 Q12.6 -119.5 1.9 -121.85 L-1.05 -122.1 Q-9.5 -122.15 -14.0 -111.2 -16.95 -104.3 -18.95 -98.25 L-19.0 -98.1 -19.05 -97.95 -19.1 -97.65 -21.1 -92.7 Q-22.2 -90.45 -22.75 -87.15 -23.15 -85.75 -22.75 -83.45 -21.25 -76.1 -17.05 -74.25 -12.95 -72.45 -15.15 -73.15 -17.5 -73.8 -17.3 -72.9 L-17.25 -72.15 -16.85 -67.2 -16.85 -67.1 -16.8 -66.35 -16.75 -65.8 -16.25 -49.0 -16.1 -44.1 -16.15 -43.55 -16.4 -38.55 -16.4 -38.5 -16.5 -37.4 -16.55 -37.15 Q-17.35 -29.7 -19.25 -25.6 -20.75 -22.6 -19.25 -20.3 L-17.3 -18.55 -16.6 -18.05 Q-11.6 -15.5 -0.1 -14.75 L1.05 -14.7 2.75 -14.65 3.4 -14.6 3.85 -14.6 15.5 -15.0 19.7 -15.85 20.85 -16.3 22.0 -16.75 22.3 -16.95 23.05 -17.45 Q25.85 -19.45 26.85 -22.5 L27.25 -25.1 27.4 -28.6 27.05 -39.1 26.1 -44.6 25.15 -49.95 Q24.1 -54.85 22.7 -66.95 L22.6 -67.75 21.85 -72.8 21.7 -73.65 18.5 -92.75 18.35 -93.55 17.45 -98.05 M-19.85 -17.65 Q-23.9 -21.1 -21.3 -26.4 -19.5 -30.35 -18.7 -37.65 L-18.6 -38.65 -18.3 -44.1 -18.3 -44.15 -18.25 -45.0 Q-18.15 -54.0 -18.95 -66.15 L-18.95 -67.05 -19.45 -72.7 -19.6 -74.3 Q-24.45 -80.8 -24.15 -87.15 L-24.15 -87.35 Q-23.55 -90.3 -22.55 -93.4 L-21.05 -98.4 -20.95 -98.55 -20.95 -98.7 Q-18.95 -104.75 -15.95 -111.75 -10.85 -123.9 -1.35 -123.9 L2.35 -123.45 Q14.35 -121.05 17.35 -108.3 L19.35 -99.25 Q19.3 -99.15 19.4 -99.05 L19.5 -98.75 20.4 -93.8 23.8 -73.85 24.75 -67.95 Q26.6 -55.4 28.2 -45.65 L29.2 -39.35 29.2 -39.3 31.45 -25.7 Q32.15 -21.6 30.05 -18.7 L28.15 -16.8 Q26.85 -15.85 25.2 -15.05 L23.15 -14.35 22.05 -13.95 20.95 -13.7 19.8 -13.45 15.4 -12.75 3.85 -12.4 3.3 -12.4 2.75 -12.5 1.0 -12.55 -0.05 -12.6 Q-12.4 -13.4 -17.65 -16.25 L-17.8 -16.3 Q-19.05 -17.0 -19.85 -17.65" fill="#683e50" fill-rule="evenodd" stroke="none"/>
  </g>
</svg>
