<?xml version="1.0" encoding="UTF-8" standalone="no"?>
<svg xmlns:ffdec="https://www.free-decompiler.com/flash" xmlns:xlink="http://www.w3.org/1999/xlink" ffdec:objectType="shape" height="14.35px" width="38.55px" xmlns="http://www.w3.org/2000/svg">
  <g transform="matrix(1.0, 0.0, 0.0, 1.0, 25.8, -2.55)">
    <path d="M6.35 13.1 Q7.55 11.7 8.2 9.45 L8.3 8.65 Q-0.95 4.55 -3.5 7.65 -5.25 9.7 -4.7 11.65 -7.1 10.3 -7.55 8.4 -8.1 6.25 -6.1 4.75 -4.15 3.2 1.2 2.7 6.55 2.15 9.55 3.75 12.5 5.3 12.75 7.9 12.95 10.5 10.0 11.9 8.35 12.7 6.35 13.1 M-11.05 10.35 Q-11.3 9.05 -12.5 7.45 -14.75 4.4 -22.85 8.95 L-22.75 9.7 Q-22.25 11.45 -21.35 12.65 L-23.35 12.0 Q-25.8 10.85 -25.8 8.45 -25.85 6.0 -23.55 4.4 -21.3 2.75 -17.0 2.9 -12.65 3.0 -10.95 4.3 -9.3 5.6 -9.5 7.6 -9.75 9.1 -11.05 10.35" fill="#ffce9d" fill-rule="evenodd" stroke="none"/>
    <path d="M-4.7 11.65 Q-5.25 9.7 -3.5 7.65 -0.95 4.55 8.3 8.65 L8.2 9.45 Q7.55 11.7 6.35 13.1 4.05 15.7 -0.25 15.35 -2.9 14.25 -3.55 13.55 -4.4 12.6 -4.7 11.65 M-21.35 12.65 Q-22.25 11.45 -22.75 9.7 L-22.85 8.95 Q-14.75 4.4 -12.5 7.45 -11.3 9.05 -11.05 10.35 -10.85 11.35 -11.3 12.15 -12.35 14.2 -14.8 15.25 -19.2 15.55 -21.35 12.65" fill="#ffdfbf" fill-rule="evenodd" stroke="none"/>
    <path d="M-4.7 11.65 Q-5.25 9.7 -3.5 7.65 -0.95 4.55 8.3 8.65 L8.2 9.45 Q7.55 11.7 6.35 13.1 4.05 15.7 -0.25 15.35 -2.9 14.25 -3.55 13.55 -4.4 12.6 -4.7 11.65 M-11.05 10.35 Q-11.3 9.05 -12.5 7.45 -14.75 4.4 -22.85 8.95 L-22.75 9.7 Q-22.25 11.45 -21.35 12.65 -19.2 15.55 -14.8 15.25 -12.35 14.2 -11.3 12.15 -10.85 11.35 -11.05 10.35 Z" fill="none" stroke="#3f3f3f" stroke-linecap="round" stroke-linejoin="round" stroke-width="3.0"/>
  </g>
</svg>
