<?xml version="1.0" encoding="UTF-8" standalone="no"?>
<svg xmlns:ffdec="https://www.free-decompiler.com/flash" xmlns:xlink="http://www.w3.org/1999/xlink" ffdec:objectType="shape" height="13.15px" width="38.55px" xmlns="http://www.w3.org/2000/svg">
  <g transform="matrix(1.0, 0.0, 0.0, 1.0, 25.8, -2.55)">
    <path d="M5.5 13.2 Q7.35 12.2 8.2 10.3 L8.3 9.75 Q1.05 6.95 -3.45 10.5 L-4.4 11.8 Q-7.1 10.4 -7.55 8.4 -8.1 6.25 -6.1 4.75 -4.15 3.2 1.2 2.7 6.55 2.15 9.55 3.75 12.5 5.3 12.75 7.9 12.95 10.5 10.0 11.9 8.05 12.9 5.5 13.2 M-20.9 12.75 L-23.35 12.0 Q-25.8 10.85 -25.8 8.45 -25.85 6.0 -23.55 4.4 -21.3 2.75 -17.0 2.9 -12.65 3.0 -10.95 4.3 -9.3 5.6 -9.5 7.6 -9.75 9.4 -11.65 10.8 L-11.8 10.65 Q-16.05 7.3 -22.85 9.95 L-22.75 10.45 Q-22.1 11.85 -20.9 12.75" fill="#ffce9d" fill-rule="evenodd" stroke="none"/>
    <path d="M-4.4 11.8 L-3.45 10.5 Q1.05 6.95 8.3 9.75 L8.2 10.3 Q7.35 12.2 5.5 13.2 3.3 14.35 -0.25 14.2 -2.9 13.45 -4.45 11.85 L-4.4 11.8 M-11.65 10.8 L-10.85 11.9 Q-12.35 13.4 -14.8 14.1 -18.75 14.3 -20.9 12.75 -22.1 11.85 -22.75 10.45 L-22.85 9.95 Q-16.05 7.3 -11.8 10.65 L-11.65 10.8" fill="#ffdfbf" fill-rule="evenodd" stroke="none"/>
    <path d="M-4.4 11.8 L-3.45 10.5 Q1.05 6.95 8.3 9.75 L8.2 10.3 Q7.35 12.2 5.5 13.2 3.3 14.35 -0.25 14.2 -2.9 13.45 -4.45 11.85 L-4.4 11.8 M-11.65 10.8 L-10.85 11.9 Q-12.35 13.4 -14.8 14.1 -18.75 14.3 -20.9 12.75 -22.1 11.85 -22.75 10.45 L-22.85 9.95 Q-16.05 7.3 -11.8 10.65 L-11.65 10.8 Z" fill="none" stroke="#3f3f3f" stroke-linecap="round" stroke-linejoin="round" stroke-width="3.0"/>
  </g>
</svg>
