<?xml version="1.0" encoding="UTF-8" standalone="no"?>
<svg xmlns:ffdec="https://www.free-decompiler.com/flash" xmlns:xlink="http://www.w3.org/1999/xlink" ffdec:objectType="shape" height="10.8px" width="38.55px" xmlns="http://www.w3.org/2000/svg">
  <g transform="matrix(1.0, 0.0, 0.0, 1.0, 25.8, -2.55)">
    <path d="M10.0 11.9 Q7.1 13.35 2.95 13.35 -1.2 13.35 -4.15 11.9 -7.05 10.5 -7.55 8.4 -8.1 6.25 -6.1 4.75 -4.15 3.2 1.2 2.7 6.55 2.15 9.55 3.75 12.5 5.3 12.75 7.9 12.95 10.5 10.0 11.9 M-11.95 11.05 L-12.0 11.1 Q-14.3 12.6 -17.6 12.9 -20.9 13.15 -23.35 12.0 -25.8 10.85 -25.8 8.45 -25.85 6.0 -23.55 4.4 -21.3 2.75 -17.0 2.9 -12.65 3.0 -10.95 4.3 -9.3 5.6 -9.5 7.6 -9.8 9.55 -11.95 11.05 L-20.3 11.2 -11.95 11.05 M-3.05 10.7 L7.7 9.95 -3.05 10.7" fill="#ffce9d" fill-rule="evenodd" stroke="none"/>
    <path d="M-11.95 11.05 L-20.3 11.2 M7.7 9.95 L-3.05 10.7" fill="none" stroke="#3f3f3f" stroke-linecap="round" stroke-linejoin="round" stroke-width="2.0"/>
  </g>
</svg>
