<?xml version="1.0" encoding="UTF-8" standalone="no"?>
<svg xmlns:ffdec="https://www.free-decompiler.com/flash" xmlns:xlink="http://www.w3.org/1999/xlink" ffdec:objectType="shape" height="21.8px" width="38.85px" xmlns="http://www.w3.org/2000/svg">
  <g transform="matrix(1.0, 0.0, 0.0, 1.0, 25.8, 3.45)">
    <path d="M-2.5 12.6 L-4.15 11.9 Q-7.05 10.5 -7.55 8.4 -8.1 6.25 -7.9 3.85 -7.7 1.4 -2.8 -2.05 2.05 -5.5 7.6 -0.35 13.1 4.75 13.05 7.65 12.95 10.5 10.0 11.9 L6.6 13.05 Q7.55 11.05 7.55 8.45 7.55 5.1 5.95 2.75 4.4 0.35 2.15 0.35 0.7 0.35 -0.5 1.4 L-1.65 2.75 -2.75 5.05 Q-3.25 6.6 -3.2 8.45 -3.2 10.75 -2.5 12.6 M-12.75 11.55 L-12.55 9.6 Q-12.6 6.65 -14.0 4.6 -15.35 2.55 -17.25 2.55 -18.55 2.55 -19.6 3.45 L-20.6 4.6 -21.5 6.6 Q-21.95 7.95 -21.95 9.6 -21.95 11.25 -21.5 12.65 L-23.35 12.0 Q-25.8 10.85 -25.8 8.45 -25.85 6.0 -23.65 3.15 -21.5 0.3 -17.25 -0.6 -13.0 -1.55 -11.1 2.05 -9.3 5.6 -9.5 7.6 -9.8 9.6 -12.0 11.1 L-12.75 11.55" fill="#ffce9d" fill-rule="evenodd" stroke="none"/>
    <path d="M6.6 13.05 L5.95 14.15 Q4.4 16.5 2.15 16.55 -0.05 16.5 -1.65 14.15 L-2.5 12.6 Q-3.2 10.75 -3.2 8.45 -3.25 6.6 -2.75 5.05 L-1.65 2.75 -0.5 1.4 Q0.7 0.35 2.15 0.35 4.4 0.35 5.95 2.75 7.55 5.1 7.55 8.45 7.55 11.05 6.6 13.05 M-21.5 12.65 Q-21.95 11.25 -21.95 9.6 -21.95 7.95 -21.5 6.6 L-20.6 4.6 -19.6 3.45 Q-18.55 2.55 -17.25 2.55 -15.35 2.55 -14.0 4.6 -12.6 6.65 -12.55 9.6 L-12.75 11.55 Q-13.1 13.2 -14.0 14.5 -15.35 16.55 -17.25 16.6 -19.2 16.55 -20.6 14.5 L-21.5 12.65" fill="#ffdfbf" fill-rule="evenodd" stroke="none"/>
    <path d="M6.6 13.05 L5.95 14.15 Q4.4 16.5 2.15 16.55 -0.05 16.5 -1.65 14.15 L-2.5 12.6 Q-3.2 10.75 -3.2 8.45 -3.25 6.6 -2.75 5.05 L-1.65 2.75 -0.5 1.4 Q0.7 0.35 2.15 0.35 4.4 0.35 5.95 2.75 7.55 5.1 7.55 8.45 7.55 11.05 6.6 13.05 M-21.5 12.65 Q-21.95 11.25 -21.95 9.6 -21.95 7.95 -21.5 6.6 L-20.6 4.6 -19.6 3.45 Q-18.55 2.55 -17.25 2.55 -15.35 2.55 -14.0 4.6 -12.6 6.65 -12.55 9.6 L-12.75 11.55 Q-13.1 13.2 -14.0 14.5 -15.35 16.55 -17.25 16.6 -19.2 16.55 -20.6 14.5 L-21.5 12.65 Z" fill="none" stroke="#3f3f3f" stroke-linecap="round" stroke-linejoin="round" stroke-width="3.5"/>
  </g>
</svg>
