<?xml version="1.0" encoding="UTF-8" standalone="no"?>
<svg xmlns:ffdec="https://www.free-decompiler.com/flash" xmlns:xlink="http://www.w3.org/1999/xlink" ffdec:objectType="shape" height="15.55px" width="38.55px" xmlns="http://www.w3.org/2000/svg">
  <g transform="matrix(1.0, 0.0, 0.0, 1.0, 25.8, -2.8)">
    <path d="M-2.3 12.65 L-4.15 11.9 Q-7.05 10.5 -7.4 9.6 -7.75 8.65 -5.85 6.5 -4.0 4.3 1.3 3.25 6.55 2.15 9.55 3.75 12.5 5.3 12.75 7.9 12.95 10.5 10.0 11.9 8.2 12.8 5.95 13.15 6.6 11.55 6.6 9.55 6.6 7.05 5.55 5.25 L-2.7 10.55 -2.3 12.65 M-3.8 11.2 L-2.7 10.55 -3.8 11.2 M-19.9 12.9 L-23.35 12.0 Q-25.8 10.85 -25.8 8.45 -25.85 6.0 -23.55 4.4 -21.3 2.75 -16.9 3.7 -12.55 4.65 -10.7 7.3 -8.9 9.95 -9.35 9.8 -9.8 9.6 -12.0 11.1 L-12.1 11.15 -12.05 10.55 -12.1 10.05 -19.65 7.5 -19.8 7.95 Q-20.2 9.1 -20.2 10.55 L-19.9 12.9 M-11.55 10.2 L-12.1 10.05 -11.55 10.2" fill="#ffce9d" fill-rule="evenodd" stroke="none"/>
    <path d="M-2.3 12.65 L-2.7 10.55 5.55 5.25 Q6.6 7.05 6.6 9.55 6.6 11.55 5.95 13.15 L5.2 14.5 Q3.85 16.55 1.9 16.55 0.0 16.55 -1.4 14.5 L-2.3 12.65 M-19.9 12.9 L-20.2 10.55 Q-20.2 9.1 -19.8 7.95 L-19.65 7.5 -12.1 10.05 -12.05 10.55 -12.1 11.15 Q-12.25 13.25 -13.3 14.8 -14.45 16.6 -16.1 16.6 -17.8 16.6 -19.0 14.8 L-19.9 12.9" fill="#ffdfbf" fill-rule="evenodd" stroke="none"/>
    <path d="M-2.3 12.65 L-2.7 10.55 -3.8 11.2 M-2.7 10.55 L5.55 5.25 Q6.6 7.05 6.6 9.55 6.6 11.55 5.95 13.15 L5.2 14.5 Q3.85 16.55 1.9 16.55 0.0 16.55 -1.4 14.5 L-2.3 12.65 M-19.9 12.9 L-20.2 10.55 Q-20.2 9.1 -19.8 7.95 L-19.65 7.5 -12.1 10.05 -11.55 10.2 M-12.1 11.15 L-12.05 10.55 -12.1 10.05 M-19.9 12.9 L-19.0 14.8 Q-17.8 16.6 -16.1 16.6 -14.45 16.6 -13.3 14.8 -12.25 13.25 -12.1 11.15" fill="none" stroke="#3f3f3f" stroke-linecap="round" stroke-linejoin="round" stroke-width="3.5"/>
  </g>
</svg>
