<?xml version="1.0" encoding="UTF-8" standalone="no"?>
<svg xmlns:ffdec="https://www.free-decompiler.com/flash" xmlns:xlink="http://www.w3.org/1999/xlink" ffdec:objectType="shape" height="13.95px" width="38.55px" xmlns="http://www.w3.org/2000/svg">
  <g transform="matrix(1.0, 0.0, 0.0, 1.0, 25.8, -4.4)">
    <path d="M-2.3 12.65 L-4.15 11.9 Q-7.05 10.5 -7.55 8.4 -8.1 6.25 -6.3 5.4 -4.55 4.55 0.45 5.45 L9.0 5.8 Q12.5 5.3 12.75 7.9 12.95 10.5 10.0 11.9 8.2 12.8 5.95 13.15 6.55 11.6 6.6 9.7 L-2.75 9.7 -2.3 12.65 M-12.1 11.15 L-12.05 10.55 -12.1 9.7 -20.15 9.7 -20.2 10.55 -19.9 12.9 -23.35 12.0 Q-25.8 10.85 -25.8 8.45 -25.85 6.0 -23.55 5.6 L-17.0 4.65 -10.95 4.85 Q-9.3 5.6 -9.5 7.6 -9.8 9.6 -12.0 11.1 L-12.1 11.15" fill="#ffce9d" fill-rule="evenodd" stroke="none"/>
    <path d="M5.95 13.15 L5.2 14.5 Q3.85 16.55 1.9 16.55 0.0 16.55 -1.4 14.5 L-2.3 12.65 -2.75 9.7 6.6 9.7 Q6.55 11.6 5.95 13.15 M-19.9 12.9 L-20.2 10.55 -20.15 9.7 -12.1 9.7 -12.05 10.55 -12.1 11.15 Q-12.25 13.25 -13.3 14.8 -14.45 16.6 -16.1 16.6 -17.8 16.6 -19.0 14.8 L-19.9 12.9" fill="#ffdfbf" fill-rule="evenodd" stroke="none"/>
    <path d="M5.95 13.15 L5.2 14.5 Q3.85 16.55 1.9 16.55 0.0 16.55 -1.4 14.5 L-2.3 12.65 -2.75 9.7 6.6 9.7 Q6.55 11.6 5.95 13.15 M-19.9 12.9 L-20.2 10.55 -20.15 9.7 -12.1 9.7 -12.05 10.55 -12.1 11.15 Q-12.25 13.25 -13.3 14.8 -14.45 16.6 -16.1 16.6 -17.8 16.6 -19.0 14.8 L-19.9 12.9 Z" fill="none" stroke="#3f3f3f" stroke-linecap="round" stroke-linejoin="round" stroke-width="3.5"/>
  </g>
</svg>
