<?xml version="1.0" encoding="UTF-8" standalone="no"?>
<svg xmlns:ffdec="https://www.free-decompiler.com/flash" xmlns:xlink="http://www.w3.org/1999/xlink" ffdec:objectType="shape" height="9.65px" width="38.55px" xmlns="http://www.w3.org/2000/svg">
  <g transform="matrix(1.0, 0.0, 0.0, 1.0, 25.8, -2.55)">
    <path d="M4.35 5.75 Q2.3 5.35 0.45 6.1 L-1.25 6.85 Q-3.65 7.95 -5.1 9.05 -7.05 10.5 -7.55 8.4 -8.1 6.25 -6.1 4.75 -4.15 3.2 1.2 2.7 6.55 2.15 9.55 3.75 12.5 5.3 12.75 7.9 12.95 10.5 8.55 7.55 6.35 6.1 4.35 5.75 1.2 3.1 -1.25 6.85 1.2 3.1 4.35 5.75 M-11.65 7.75 Q-13.5 5.9 -16.85 6.4 -20.2 6.85 -23.0 8.85 -25.8 10.85 -25.8 8.45 -25.85 6.0 -23.55 4.4 -21.3 2.75 -17.0 2.9 -12.65 3.0 -10.95 4.3 -9.3 5.6 -9.5 7.6 -9.8 9.6 -11.65 7.75" fill="#ffce9d" fill-rule="evenodd" stroke="none"/>
    <path d="M7.7 9.95 Q5.95 7.05 4.35 5.75 1.2 3.1 -1.25 6.85 -2.2 8.3 -3.05 10.7 M-12.05 10.95 Q-16.65 3.15 -20.3 11.2" fill="none" stroke="#3f3f3f" stroke-linecap="round" stroke-linejoin="round" stroke-width="2.0"/>
  </g>
</svg>
