<?xml version="1.0" encoding="UTF-8" standalone="no"?>
<svg xmlns:ffdec="https://www.free-decompiler.com/flash" xmlns:xlink="http://www.w3.org/1999/xlink" ffdec:objectType="shape" height="110.5px" width="118.15px" xmlns="http://www.w3.org/2000/svg">
  <g transform="matrix(1.0, 0.0, 0.0, 1.0, 35.45, 9.1)">
    <path d="M55.85 45.65 Q57.2 55.7 60.4 65.2 64.8 78.25 79.15 87.55 55.5 80.95 55.85 45.65 M31.55 98.8 L31.45 98.9 Q38.6 87.1 38.6 74.0 34.15 80.9 24.65 80.1 32.1 75.0 35.7 67.65 L35.85 67.4 Q42.5 54.5 41.2 45.15 L46.8 48.4 49.35 49.7 Q38.5 35.9 33.9 23.25 37.25 25.2 45.15 27.2 41.4 24.75 37.8 19.5 34.2 14.2 33.25 9.85 L33.1 8.85 32.2 6.8 Q29.6 16.45 41.95 24.85 35.35 22.1 32.65 19.95 L30.35 18.25 30.2 18.4 27.7 12.65 Q26.75 28.1 45.9 46.8 L37.85 40.2 35.45 38.2 Q30.5 33.8 24.2 25.55 17.85 17.25 20.2 12.65 22.5 8.0 24.95 4.2 L25.5 3.4 Q11.3 8.75 -0.5 22.95 L-0.85 23.35 Q0.45 19.8 1.3 18.65 L6.1 12.45 Q8.5 8.1 13.7 4.65 -2.4 8.15 -20.35 28.95 L-20.9 29.55 Q-23.95 32.8 -26.65 36.95 -23.55 23.5 -9.25 11.8 -7.85 8.9 -0.8 4.15 -19.35 12.75 -27.3 23.55 L-27.55 23.85 Q-29.7 26.3 -30.75 28.9 -34.85 38.4 -30.2 48.45 -35.65 40.1 -34.55 29.75 -33.8 22.65 -29.1 15.25 -5.25 -9.3 27.5 1.6 L29.95 2.9 Q33.5 4.85 36.45 7.35 39.5 9.85 41.85 12.95 44.25 16.05 46.05 19.55 47.95 23.2 49.2 27.4 50.0 30.2 50.4 33.15 50.9 37.25 50.9 41.45 L50.65 46.45 49.5 56.1 47.8 65.0 45.6 73.15 42.85 80.7 Q41.4 84.1 39.55 87.4 L35.7 93.4 31.55 98.8" fill="#fbee95" fill-rule="evenodd" stroke="none"/>
    <path d="M0.4 -8.2 Q16.15 -11.8 31.5 -1.15 42.15 2.1 47.65 10.35 56.15 23.1 57.8 38.5 59.25 52.5 63.75 65.9 68.25 79.3 80.25 86.4 L82.7 87.9 82.6 88.2 79.8 88.25 Q68.5 88.7 57.85 85.05 60.35 88.5 62.7 90.8 L64.7 92.8 64.55 93.15 61.8 92.5 Q50.75 89.85 46.3 87.25 L45.65 88.2 Q40.1 96.2 31.45 100.15 L28.9 101.4 28.75 101.25 30.15 98.75 Q37.15 89.25 37.3 77.5 32.4 83.85 24.2 80.95 L22.25 80.35 23.95 79.15 Q36.2 71.25 36.8 56.75 37.1 48.75 36.0 41.3 29.95 36.3 24.2 29.2 15.5 18.45 19.8 9.75 L15.1 12.8 Q4.05 19.7 -1.95 25.4 -1.4 20.95 -0.15 18.5 -3.75 20.65 -7.55 22.3 -20.3 27.8 -27.85 40.2 -26.75 27.2 -18.6 19.0 -25.9 21.15 -28.85 27.45 -32.45 35.25 -29.5 49.3 L-29.2 50.9 Q-36.4 41.55 -35.3 30.05 -34.75 24.3 -32.1 18.5 -29.5 12.75 -24.75 7.0 -15.35 -4.75 0.4 -8.2 M55.85 45.65 L55.8 45.25 55.1 38.0 Q54.25 23.8 46.0 11.45 40.95 3.95 31.3 0.9 L31.25 0.85 Q29.15 0.6 27.5 1.6 L29.35 -0.15 Q15.25 -9.5 0.85 -6.25 -14.25 -2.95 -23.85 8.2 -26.9 11.75 -29.1 15.25 -33.8 22.65 -34.55 29.75 -35.65 40.1 -30.2 48.45 -34.85 38.4 -30.75 28.9 -29.7 26.3 -27.55 23.85 L-27.3 23.55 Q-21.7 17.2 -9.25 11.8 -23.55 23.5 -26.65 36.95 -23.95 32.8 -20.9 29.55 L-20.35 28.95 Q-14.9 23.3 -8.35 20.45 -2.9 18.05 6.1 12.45 L1.3 18.65 Q0.45 19.8 -0.85 23.35 L-0.5 22.95 Q5.8 16.25 13.15 12.35 19.0 9.15 25.5 3.4 L24.95 4.2 Q22.5 8.0 20.2 12.65 17.85 17.25 24.2 25.55 30.5 33.8 35.45 38.2 L37.85 40.2 45.9 46.8 Q39.4 39.15 36.55 34.0 33.15 27.75 31.05 21.05 L30.2 18.4 30.35 18.25 32.65 19.95 Q35.35 22.1 41.95 24.85 37.6 21.5 35.6 18.5 31.6 12.6 33.1 8.85 L33.25 9.85 Q34.2 14.2 37.8 19.5 41.4 24.75 45.15 27.2 37.25 25.2 33.9 23.25 38.5 35.9 49.35 49.7 L46.8 48.4 41.2 45.15 38.25 43.1 Q39.05 49.75 38.8 56.85 38.1 62.6 35.85 67.4 L35.7 67.65 Q32.1 75.0 24.65 80.1 34.15 80.9 38.6 74.0 38.6 87.1 31.45 98.9 L31.55 98.8 Q39.75 93.2 44.0 87.05 L45.15 85.4 Q51.05 75.1 50.75 62.85 50.7 60.5 53.0 49.05 52.7 60.5 52.75 62.8 53.05 75.1 47.35 85.55 50.95 87.6 62.25 91.75 56.75 87.1 54.45 83.55 L52.85 81.2 53.0 81.05 55.65 82.1 Q65.7 86.15 79.15 87.55 64.8 78.25 60.4 65.2 57.2 55.7 55.85 45.65" fill="#c28127" fill-rule="evenodd" stroke="none"/>
    <path d="M-29.1 15.25 Q-26.9 11.75 -23.85 8.2 -14.25 -2.95 0.85 -6.25 15.25 -9.5 29.35 -0.15 L27.5 1.6 Q29.15 0.6 31.25 0.85 L31.3 0.9 Q40.95 3.95 46.0 11.45 54.25 23.8 55.1 38.0 L55.8 45.25 55.85 45.65 Q55.5 80.95 79.15 87.55 65.7 86.15 55.65 82.1 L53.0 81.05 52.85 81.2 54.45 83.55 Q56.75 87.1 62.25 91.75 50.95 87.6 47.35 85.55 53.05 75.1 52.75 62.8 52.7 60.5 53.0 49.05 50.7 60.5 50.75 62.85 51.05 75.1 45.15 85.4 L44.0 87.05 Q39.75 93.2 31.55 98.8 L35.7 93.4 39.55 87.4 Q41.4 84.1 42.85 80.7 L45.6 73.15 47.8 65.0 49.5 56.1 50.65 46.45 50.9 41.45 Q50.9 37.25 50.4 33.15 50.0 30.2 49.2 27.4 47.95 23.2 46.05 19.55 44.25 16.05 41.85 12.95 39.5 9.85 36.45 7.35 33.5 4.85 29.95 2.9 L27.5 1.6 Q-5.25 -9.3 -29.1 15.25 M35.85 67.4 Q38.1 62.6 38.8 56.85 39.05 49.75 38.25 43.1 L41.2 45.15 Q42.5 54.5 35.85 67.4 M33.1 8.85 Q31.6 12.6 35.6 18.5 37.6 21.5 41.95 24.85 29.6 16.45 32.2 6.8 L33.1 8.85 M30.2 18.4 L31.05 21.05 Q33.15 27.75 36.55 34.0 39.4 39.15 45.9 46.8 26.75 28.1 27.7 12.65 L30.2 18.4 M25.5 3.4 Q19.0 9.15 13.15 12.35 5.8 16.25 -0.5 22.95 11.3 8.75 25.5 3.4 M6.1 12.45 Q-2.9 18.05 -8.35 20.45 -14.9 23.3 -20.35 28.95 -2.4 8.15 13.7 4.65 8.5 8.1 6.1 12.45 M-9.25 11.8 Q-21.7 17.2 -27.3 23.55 -19.35 12.75 -0.8 4.15 -7.85 8.9 -9.25 11.8" fill="#f4d371" fill-rule="evenodd" stroke="none"/>
  </g>
</svg>
