<?xml version="1.0" encoding="UTF-8" standalone="no"?>
<svg xmlns:ffdec="https://www.free-decompiler.com/flash" xmlns:xlink="http://www.w3.org/1999/xlink" ffdec:objectType="shape" height="85.0px" width="84.95px" xmlns="http://www.w3.org/2000/svg">
  <g transform="matrix(1.0, 0.0, 0.0, 1.0, 35.95, 56.5)">
    <path d="M-9.0 23.5 L-4.55 23.75 Q10.55 23.75 21.25 13.25 29.6 5.05 31.45 -5.8 18.75 -8.65 13.5 -21.85 11.65 -26.45 11.4 -31.75 2.9 -30.2 -5.35 -21.25 -8.7 -24.35 -6.35 -29.0 -20.6 -22.9 -31.1 -4.5 L-33.85 -10.75 -33.95 -14.0 Q-34.0 -28.15 -25.6 -38.75 L-22.55 -42.25 -22.5 -42.3 -22.35 -42.45 -22.3 -42.55 -22.05 -42.75 -20.05 -44.65 Q-6.15 -30.75 14.4 -36.0 14.85 -21.6 27.3 -11.25 L31.75 -7.9 Q35.7 -5.25 39.75 -3.7 37.4 6.8 29.25 14.95 18.3 25.95 2.9 26.35 -1.7 26.0 -5.95 24.65 L-9.0 23.5" fill="#ffce9d" fill-rule="evenodd" stroke="none"/>
    <path d="M2.9 26.35 Q18.3 25.95 29.25 14.95 37.4 6.8 39.75 -3.7 35.7 -5.25 31.75 -7.9 L27.3 -11.25 Q14.85 -21.6 14.4 -36.0 -6.15 -30.75 -20.05 -44.65 L-19.15 -45.4 Q-8.25 -54.55 6.5 -54.5 23.3 -54.55 35.15 -42.7 47.0 -30.8 47.0 -14.0 47.0 2.75 35.15 14.6 23.3 26.5 6.5 26.5 L2.9 26.35" fill="#f1b67a" fill-rule="evenodd" stroke="none"/>
    <path d="M-33.85 -10.75 L-31.1 -4.5 Q-20.6 -22.9 -6.35 -29.0 -8.7 -24.35 -5.35 -21.25 2.9 -30.2 11.4 -31.75 11.65 -26.45 13.5 -21.85 18.75 -8.65 31.45 -5.8 29.6 5.05 21.25 13.25 10.55 23.75 -4.55 23.75 L-9.0 23.5 -12.05 22.1 Q-17.5 19.25 -22.15 14.6 -32.85 3.9 -33.85 -10.75" fill="#ffdfbf" fill-rule="evenodd" stroke="none"/>
    <path d="M-9.0 23.5 L-5.95 24.65 Q-1.7 26.0 2.9 26.35 L6.5 26.5 Q23.3 26.5 35.15 14.6 47.0 2.75 47.0 -14.0 47.0 -30.8 35.15 -42.7 23.3 -54.55 6.5 -54.5 -8.25 -54.55 -19.15 -45.4 L-20.05 -44.65 -22.05 -42.75 -22.3 -42.55 -22.35 -42.45 -22.5 -42.3 -22.55 -42.25 -25.6 -38.75 Q-34.0 -28.15 -33.95 -14.0 L-33.85 -10.75 Q-32.85 3.9 -22.15 14.6 -17.5 19.25 -12.05 22.1 L-9.0 23.5 M6.5 -56.5 Q24.1 -56.55 36.55 -44.1 49.0 -31.6 49.0 -14.0 49.0 3.55 36.55 16.0 24.1 28.5 6.5 28.5 -0.4 28.5 -6.55 26.55 -9.9 25.45 -13.0 23.85 -18.7 20.85 -23.55 16.0 -36.0 3.55 -35.95 -14.0 -36.0 -28.85 -27.15 -40.0 L-23.95 -43.7 -23.8 -43.9 -23.3 -44.3 Q-10.95 -56.55 6.5 -56.5" fill="#aa6a40" fill-rule="evenodd" stroke="none"/>
  </g>
</svg>
