<?xml version="1.0" encoding="UTF-8" standalone="no"?>
<svg xmlns:ffdec="https://www.free-decompiler.com/flash" xmlns:xlink="http://www.w3.org/1999/xlink" ffdec:objectType="shape" height="33.2px" width="32.95px" xmlns="http://www.w3.org/2000/svg">
  <g transform="matrix(1.0, 0.0, 0.0, 1.0, 11.9, 13.3)">
    <path d="M8.35 -0.7 L8.3 -0.7 8.3 -0.75 8.35 -0.7" fill="#25383d" fill-rule="evenodd" stroke="none"/>
    <path d="M8.15 -0.55 L8.25 -0.65 8.3 -0.6 8.15 -0.55" fill="#273d43" fill-rule="evenodd" stroke="none"/>
    <path d="M-9.35 12.25 L-8.05 9.75 -6.35 7.3 -4.15 4.75 -4.65 7.3 -5.05 10.2 -5.4 10.4 -10.15 14.8 -9.85 13.5 -9.35 12.25" fill="#cdc9b6" fill-rule="evenodd" stroke="none"/>
    <path d="M17.1 3.65 L18.6 5.0 19.15 6.2 19.05 9.05 Q18.65 11.75 17.35 14.35 L16.9 15.05 16.1 16.05 15.2 16.75 14.2 17.1 13.1 17.3 7.6 10.85 8.0 10.55 9.45 9.35 9.6 9.25 10.95 7.7 11.4 6.9 11.9 5.55 12.4 2.95 12.35 1.85 12.2 0.8 15.0 2.35 17.1 3.65" fill="#ffffff" fill-rule="evenodd" stroke="none"/>
    <path d="M0.65 8.3 L0.85 9.4 0.35 10.2 0.7 10.3 1.15 10.5 1.8 10.8 2.3 11.0 2.45 11.05 2.45 11.3 2.6 11.25 2.65 11.1 2.65 11.0 2.8 11.05 2.85 11.05 2.7 10.95 2.75 10.65 2.95 11.1 4.6 11.25 3.8 11.95 1.5 13.85 -2.25 17.25 -3.3 12.8 Q-2.4 10.15 0.65 8.3 M-0.95 -2.3 L-1.15 -2.6 -1.3 -2.85 -1.45 -3.05 -6.35 -10.0 0.8 -11.6 Q3.5 -12.15 5.3 -10.6 L6.3 -9.55 6.0 -8.55 5.95 -8.25 5.95 -6.1 6.2 -3.35 5.0 -3.1 Q2.9 -2.35 -0.95 -2.3" fill="#f1b67a" fill-rule="evenodd" stroke="none"/>
    <path d="M6.2 -3.35 L6.2 -3.25 5.0 -3.1 6.2 -3.35" fill="#c18753" fill-rule="evenodd" stroke="none"/>
    <path d="M1.8 10.8 L1.7 8.85 1.7 8.8 1.6 7.75 Q1.35 4.9 0.2 1.15 L-0.35 -0.55 -0.95 -2.3 Q2.9 -2.35 5.0 -3.1 L6.2 -3.25 6.4 -2.35 6.75 -0.85 7.2 0.9 8.35 5.4 9.05 7.7 Q8.25 8.6 7.1 9.3 L4.7 11.2 4.65 11.25 4.6 11.25 2.95 11.1 2.75 10.65 2.7 10.95 2.85 11.05 2.8 11.05 2.65 11.0 2.65 11.1 2.6 11.25 2.45 11.05 2.3 11.0 1.8 10.8" fill="#ffce9d" fill-rule="evenodd" stroke="none"/>
    <path d="M2.6 11.25 L2.45 11.3 2.45 11.05 2.6 11.25" fill="#ffcc99" fill-rule="evenodd" stroke="none"/>
    <path d="M7.95 13.75 L5.6 15.55 -2.25 19.9 6.4 11.85 7.95 13.75" fill="#975974" fill-rule="evenodd" stroke="none"/>
    <path d="M-1.7 0.7 Q-3.15 -2.4 -5.25 -5.35 L-8.7 -10.1 -8.8 -10.5 -8.6 -10.95 -8.15 -11.2 0.3 -13.05 Q4.2 -13.9 6.75 -11.65 L8.25 -10.05 8.3 -9.5 7.9 -8.25 7.9 -8.2 7.95 -6.2 7.95 -6.15 8.35 -2.25 8.55 -1.1 8.3 -0.75 8.3 -0.7 8.35 -0.7 Q8.5 -0.65 8.7 -0.55 9.3 2.2 10.45 4.85 10.15 6.45 9.05 7.7 L8.35 5.4 7.2 0.9 6.75 -0.85 6.4 -2.35 6.2 -3.25 6.2 -3.35 5.95 -6.1 5.95 -8.25 6.0 -8.55 6.3 -9.55 5.3 -10.6 Q3.5 -12.15 0.8 -11.6 L-6.35 -10.0 -1.45 -3.05 -1.3 -2.85 -1.15 -2.6 -0.95 -2.3 -0.35 -0.55 0.2 1.15 Q1.35 4.9 1.6 7.75 L1.7 8.8 1.7 8.85 1.8 10.8 1.15 10.5 0.7 10.3 0.35 10.2 0.85 9.4 0.65 8.3 Q0.1 5.25 -1.0 2.4 L-1.7 0.7 M8.15 -0.55 L8.3 -0.6 8.25 -0.65 8.15 -0.55" fill="#aa6a40" fill-rule="evenodd" stroke="none"/>
    <path d="M-1.7 0.7 L-1.0 2.4 -1.45 3.1 Q-3.05 5.75 -3.25 8.75 L-3.3 10.1 -3.3 12.8 -2.25 17.25 1.5 13.85 3.8 11.95 4.6 11.25 4.65 11.25 4.7 11.2 7.1 9.3 Q8.25 8.6 9.05 7.7 10.15 6.45 10.45 4.85 L10.55 4.15 10.55 2.3 10.2 0.75 9.7 0.0 9.35 -0.25 8.7 -0.55 Q8.5 -0.65 8.35 -0.7 L8.3 -0.75 8.55 -1.1 8.35 -2.25 9.2 -2.05 9.7 -1.9 11.15 -1.3 13.45 -0.3 15.5 0.75 17.85 2.2 20.0 4.2 Q20.7 5.0 20.95 6.0 21.15 6.85 21.0 7.8 L20.45 10.65 19.75 13.0 18.5 15.8 16.55 17.85 Q14.75 19.1 12.55 18.75 L12.25 18.65 7.95 13.75 6.4 11.85 -2.25 19.9 -4.9 12.6 -10.55 17.4 -10.95 17.6 -11.5 17.55 -11.9 17.3 -11.85 15.05 Q-11.75 13.7 -11.25 12.3 L-10.5 10.5 -9.45 8.65 -8.2 6.9 -6.75 5.1 Q-5.35 3.45 -3.6 2.3 L-1.7 0.7 M-9.35 12.25 L-9.85 13.5 -10.15 14.8 -5.4 10.4 -5.05 10.2 -4.65 7.3 -4.15 4.75 -6.35 7.3 -8.05 9.75 -9.35 12.25 M17.1 3.65 L15.0 2.35 12.2 0.8 12.35 1.85 12.4 2.95 11.9 5.55 11.4 6.9 10.95 7.7 9.6 9.25 9.45 9.35 8.0 10.55 7.6 10.85 13.1 17.3 14.2 17.1 15.2 16.75 16.1 16.05 16.9 15.05 17.35 14.35 Q18.65 11.75 19.05 9.05 L19.15 6.2 18.6 5.0 17.1 3.65" fill="#683e50" fill-rule="evenodd" stroke="none"/>
    <path d="M-1.0 2.4 Q0.1 5.25 0.65 8.3 -2.4 10.15 -3.3 12.8 L-3.3 10.1 -3.25 8.75 Q-3.05 5.75 -1.45 3.1 L-1.0 2.4 M10.45 4.85 Q9.3 2.2 8.7 -0.55 L9.35 -0.25 9.7 0.0 10.2 0.75 10.55 2.3 10.55 4.15 10.45 4.85" fill="#875067" fill-rule="evenodd" stroke="none"/>
  </g>
</svg>
