<?xml version="1.0" encoding="UTF-8" standalone="no"?>
<svg xmlns:ffdec="https://www.free-decompiler.com/flash" xmlns:xlink="http://www.w3.org/1999/xlink" ffdec:objectType="shape" height="17.8px" width="27.05px" xmlns="http://www.w3.org/2000/svg">
  <g transform="matrix(1.0, 0.0, 0.0, 1.0, 28.35, -2.7)">
    <path d="M-26.25 14.85 L-28.35 11.1 -28.1 10.9 -27.6 10.9 Q-22.35 12.5 -16.7 11.75 -7.55 10.35 -3.25 3.1 L-2.9 2.8 -2.65 2.75 -2.6 2.75 -2.5 2.7 Q-2.1 3.85 -1.6 6.6 -1.0 9.6 -1.55 13.95 L-1.7 14.25 -1.85 14.5 Q-7.8 21.6 -17.85 20.3 -23.15 19.55 -26.3 14.9 L-26.25 14.85 M-2.8 8.75 L-2.65 8.6 -2.6 8.55 -2.9 5.4 -2.95 4.95 Q-7.55 11.5 -16.5 12.85 -20.0 13.35 -23.35 12.95 L-23.5 12.95 -24.05 12.85 -24.25 12.85 -25.1 12.7 -25.4 12.65 -26.75 12.35 -25.15 14.3 Q-22.35 18.45 -17.65 19.2 L-17.65 19.15 Q-11.9 19.9 -7.6 17.7 L-7.1 17.4 -6.95 17.35 -6.55 17.05 Q-4.55 15.8 -2.9 13.8 L-2.85 13.8 -2.8 13.25 -2.75 13.0 -2.7 12.35 -2.6 9.55 -2.65 9.65 -2.8 8.75" fill="#cd6c54" fill-rule="evenodd" stroke="none"/>
    <path d="M-23.35 12.95 Q-20.0 13.35 -16.5 12.85 -7.55 11.5 -2.95 4.95 L-2.9 5.4 -2.6 8.55 -2.65 8.6 -2.8 8.75 Q-3.35 9.4 -4.1 9.85 L-6.8 11.95 Q-8.6 12.95 -10.85 13.6 -14.5 14.55 -17.5 14.55 L-22.0 14.05 -22.15 14.05 -23.35 12.95" fill="#e5e5e5" fill-rule="evenodd" stroke="none"/>
    <path d="M-2.8 8.75 L-2.65 9.65 Q-3.6 10.8 -5.85 12.2 -10.75 15.2 -17.75 15.2 L-21.75 14.7 -22.05 14.8 Q-22.4 14.8 -25.1 12.85 L-24.25 12.85 -24.15 12.85 -23.5 12.95 -23.35 12.95 -22.15 14.05 -22.0 14.05 -17.5 14.55 Q-14.5 14.55 -10.85 13.6 -8.6 12.95 -6.8 11.95 L-4.1 9.85 Q-3.35 9.4 -2.8 8.75" fill="#333333" fill-rule="evenodd" stroke="none"/>
    <path d="M-2.65 9.65 L-2.6 9.55 -2.7 12.35 -3.0 12.3 Q-7.25 12.3 -7.15 16.55 L-7.15 17.25 -7.15 17.4 -6.95 17.35 -7.1 17.4 -7.6 17.7 Q-11.9 19.9 -17.65 19.15 L-17.65 19.2 Q-22.35 18.45 -25.15 14.3 L-26.75 12.35 -25.4 12.65 -25.1 12.85 Q-22.4 14.8 -22.05 14.8 L-21.75 14.7 -17.75 15.2 Q-10.75 15.2 -5.85 12.2 -3.6 10.8 -2.65 9.65 M-25.1 12.7 L-24.25 12.85 -24.05 12.85 -23.5 12.95 -24.15 12.85 -24.25 12.85 -25.1 12.7" fill="#57352d" fill-rule="evenodd" stroke="none"/>
    <path d="M-2.7 12.35 L-2.75 13.0 Q-4.9 12.9 -5.55 13.65 L-6.1 15.1 -6.55 17.05 -6.95 17.35 -7.15 17.4 -7.15 17.25 -7.15 16.55 Q-7.25 12.3 -3.0 12.3 L-2.7 12.35" fill="#42211c" fill-rule="evenodd" stroke="none"/>
    <path d="M-2.75 13.0 L-2.8 13.25 -2.85 13.8 -2.9 13.8 Q-4.55 15.8 -6.55 17.05 L-6.1 15.1 -5.55 13.65 Q-4.9 12.9 -2.75 13.0" fill="#b45f50" fill-rule="evenodd" stroke="none"/>
    <path d="M-25.4 12.65 L-25.1 12.7 -24.25 12.85 -25.1 12.85 -25.4 12.65" fill="#a12e65" fill-rule="evenodd" stroke="none"/>
    <path d="M-26.25 14.85 L-26.3 14.9 -26.3 14.85 -26.25 14.85" fill="#463624" fill-rule="evenodd" stroke="none"/>
  </g>
</svg>
