<?xml version="1.0" encoding="UTF-8" standalone="no"?>
<svg xmlns:ffdec="https://www.free-decompiler.com/flash" xmlns:xlink="http://www.w3.org/1999/xlink" ffdec:objectType="shape" height="17.8px" width="27.05px" xmlns="http://www.w3.org/2000/svg">
  <g transform="matrix(1.0, 0.0, 0.0, 1.0, 28.35, -2.7)">
    <path d="M-26.25 14.85 L-28.35 11.1 -28.1 10.9 -27.6 10.9 Q-22.35 12.5 -16.7 11.75 -7.55 10.35 -3.25 3.1 L-2.9 2.8 -2.65 2.75 -2.6 2.75 -2.5 2.7 Q-2.1 3.85 -1.6 6.6 -1.0 9.6 -1.55 13.95 L-1.7 14.25 -1.85 14.5 Q-7.8 21.6 -17.85 20.3 -23.15 19.55 -26.3 14.9 L-26.25 14.85 M-2.6 8.5 L-2.9 5.4 -2.95 4.95 Q-7.55 11.5 -16.5 12.85 -19.95 13.35 -23.3 12.95 L-23.75 12.85 -23.95 12.9 -24.25 12.85 -26.75 12.35 -26.0 13.15 -25.6 13.65 -25.15 14.3 -25.1 14.35 -24.65 15.0 -24.6 15.0 -23.6 16.2 -23.55 16.2 -23.5 16.25 -23.45 16.3 -22.35 17.25 -22.0 17.55 -21.6 17.8 -21.4 17.9 -21.3 17.95 -19.9 18.6 -17.65 19.2 -17.65 19.15 Q-11.9 19.9 -7.6 17.7 L-7.8 17.85 -7.3 17.55 -7.15 17.4 -4.65 15.55 -4.25 15.2 -2.9 13.8 -2.85 13.8 -2.85 13.75 -2.7 13.75 -2.65 13.3 -2.55 10.3 -2.55 10.25 -2.6 9.05 -2.65 8.65 -2.6 8.55 -2.6 8.5" fill="#cd6c54" fill-rule="evenodd" stroke="none"/>
    <path d="M-24.65 15.0 L-25.1 14.35 -25.15 14.3 -25.6 13.65 -26.0 13.15 -26.75 12.35 -24.25 12.85 -23.95 12.9 -23.75 12.85 -23.3 12.95 Q-19.95 13.35 -16.5 12.85 -7.55 11.5 -2.95 4.95 L-2.9 5.4 -2.6 8.5 -2.65 8.55 -2.75 8.6 -2.65 8.65 -2.6 9.05 -2.55 10.25 -2.55 10.3 -2.6 10.35 Q-2.95 11.3 -3.45 11.9 L-5.5 12.65 -5.6 12.65 -5.7 12.7 -6.3 12.9 -6.65 13.0 -6.8 13.0 -6.95 13.15 Q-7.9 13.5 -7.85 13.75 L-7.8 13.85 -7.5 13.85 -7.45 13.85 -7.4 13.85 -6.7 13.5 -6.35 13.35 -6.3 13.35 -6.25 13.35 -6.25 13.3 -3.65 12.85 Q-3.3 12.85 -2.65 13.3 L-2.7 13.75 -2.85 13.75 -2.85 13.8 -2.9 13.8 -4.25 15.2 -4.65 15.55 Q-4.8 13.7 -6.45 13.7 L-8.05 14.1 -8.25 14.1 -8.3 13.9 Q-8.3 13.5 -5.65 11.75 L-5.05 10.8 -7.1 11.9 -11.4 13.35 -18.05 14.2 -23.65 13.75 -25.45 13.3 Q-23.1 15.8 -19.65 15.8 L-16.8 15.65 -15.15 15.7 -15.1 15.85 -18.25 17.15 Q-19.2 17.7 -19.5 18.75 L-19.9 18.6 -21.3 17.95 -21.3 17.9 -21.3 17.85 -21.25 17.85 -21.25 17.8 -20.95 16.95 -17.7 16.05 -17.65 16.05 -17.65 15.9 -17.7 15.75 -18.3 15.75 -18.4 15.75 -19.75 16.05 -20.0 16.1 -20.05 16.1 -21.85 16.5 -24.5 14.95 -24.6 15.0 -24.65 15.0" fill="#e5e5e5" fill-rule="evenodd" stroke="none"/>
    <path d="M-2.6 8.5 L-2.6 8.55 -2.65 8.65 -2.75 8.6 -2.65 8.55 -2.6 8.5 M-4.65 15.55 L-7.15 17.4 -7.3 17.55 -7.35 17.55 -7.6 17.7 Q-11.9 19.9 -17.65 19.15 L-17.65 19.2 -19.9 18.6 -19.5 18.75 Q-19.2 17.7 -18.25 17.15 L-15.1 15.85 -15.15 15.7 -16.8 15.65 -19.65 15.8 Q-23.1 15.8 -25.45 13.3 L-23.65 13.75 -18.05 14.2 -11.4 13.35 -7.1 11.9 -5.05 10.8 -5.65 11.75 Q-8.3 13.5 -8.3 13.9 L-8.25 14.1 -8.05 14.1 -6.45 13.7 Q-4.8 13.7 -4.65 15.55 M-6.65 13.0 L-6.95 13.15 -6.8 13.0 -6.65 13.0 M-6.3 13.35 L-6.25 13.3 -6.25 13.35 -6.3 13.35" fill="#f9f9f9" fill-rule="evenodd" stroke="none"/>
    <path d="M-2.55 10.25 L-2.55 10.3 -2.55 10.25" fill="#a12e65" fill-rule="evenodd" stroke="none"/>
    <path d="M-2.55 10.3 L-2.65 13.3 Q-3.3 12.85 -3.65 12.85 L-6.25 13.3 -6.35 13.35 -6.7 13.5 -7.4 13.85 -7.45 13.85 -7.5 13.85 -7.8 13.85 -7.85 13.75 Q-7.9 13.5 -6.95 13.15 L-6.65 13.0 -6.3 12.9 -5.7 12.7 -5.6 12.65 -5.5 12.65 -3.45 11.9 Q-2.95 11.3 -2.6 10.35 L-2.55 10.3 M-21.3 17.95 L-21.4 17.9 -21.6 17.8 -21.9 17.6 -21.95 17.55 -22.0 17.55 -22.0 17.3 -23.2 16.45 -23.5 16.25 -23.55 16.2 -23.6 16.2 -24.6 15.0 -24.5 14.95 -21.85 16.5 -20.05 16.1 -20.0 16.1 -19.75 16.05 -18.4 15.75 -18.3 15.75 -17.7 15.75 -17.65 15.9 -17.65 16.05 -17.7 16.05 -20.95 16.95 -21.25 17.8 -21.3 17.85 -21.3 17.9 -21.3 17.95" fill="#333333" fill-rule="evenodd" stroke="none"/>
    <path d="M-26.25 14.85 L-26.3 14.9 -26.3 14.85 -26.25 14.85 M-6.35 13.35 L-6.25 13.3 -6.3 13.35 -6.35 13.35 M-7.6 17.7 L-7.35 17.55 -7.6 17.7" fill="#463624" fill-rule="evenodd" stroke="none"/>
    <path d="M-21.6 17.8 L-22.0 17.55 -22.35 17.25 -23.45 16.3 -23.5 16.25 -23.2 16.45 -22.0 17.3 -22.0 17.55 -21.95 17.55 -21.9 17.6 -21.6 17.8 M-21.25 17.8 L-21.25 17.85 -21.3 17.85 -21.25 17.8" fill="#57352d" fill-rule="evenodd" stroke="none"/>
  </g>
</svg>
