<?xml version="1.0" encoding="UTF-8" standalone="no"?>
<svg xmlns:ffdec="https://www.free-decompiler.com/flash" xmlns:xlink="http://www.w3.org/1999/xlink" ffdec:objectType="shape" height="8.45px" width="18.3px" xmlns="http://www.w3.org/2000/svg">
  <g transform="matrix(1.0, 0.0, 0.0, 1.0, 20.5, -9.4)">
    <path d="M-2.7 10.95 Q-2.2 11.6 -2.2 13.0 -2.2 14.4 -4.4 15.9 -7.4 17.85 -12.35 17.85 L-15.4 17.8 -15.45 17.8 -16.2 17.85 Q-20.75 17.85 -20.45 14.65 L-20.4 14.15 Q-20.0 12.45 -15.9 10.95 -11.8 9.4 -7.6 9.4 -3.85 9.4 -2.7 10.95 M-18.3 16.75 L-18.15 16.8 -17.55 17.0 Q-9.85 17.65 -6.3 15.85 -3.45 14.4 -3.45 12.8 -3.45 10.4 -8.45 10.4 -13.6 10.4 -17.0 12.3 L-19.45 13.95 -19.0 14.5 -18.65 14.9 -18.3 16.65 -18.45 16.65 -18.3 16.75" fill="#cd6c54" fill-rule="evenodd" stroke="none"/>
    <path d="M-12.85 14.05 L-12.8 14.05 -12.85 13.95 -13.7 13.8 Q-17.45 13.9 -18.65 14.9 L-19.0 14.5 -19.45 13.95 -17.0 12.3 Q-13.6 10.4 -8.45 10.4 -3.45 10.4 -3.45 12.8 -3.45 14.4 -6.3 15.85 -9.85 17.65 -17.55 17.0 L-18.15 16.8 -18.3 16.75 -18.2 16.6 -17.55 15.85 -17.45 15.75 -17.5 15.75 -15.65 14.8 -12.85 14.05" fill="#e5e5e5" fill-rule="evenodd" stroke="none"/>
    <path d="M-12.85 14.05 L-15.65 14.8 -17.5 15.75 -17.55 15.85 -18.2 16.6 -18.3 16.65 -18.65 14.9 Q-17.45 13.9 -13.7 13.8 L-12.85 13.95 -12.85 14.05" fill="#333333" fill-rule="evenodd" stroke="none"/>
  </g>
</svg>
