<?xml version="1.0" encoding="UTF-8" standalone="no"?>
<svg xmlns:ffdec="https://www.free-decompiler.com/flash" xmlns:xlink="http://www.w3.org/1999/xlink" ffdec:objectType="shape" height="14.95px" width="23.4px" xmlns="http://www.w3.org/2000/svg">
  <g transform="matrix(1.0, 0.0, 0.0, 1.0, 23.9, -5.2)">
    <path d="M-19.4 11.2 Q-17.1 13.45 -15.9 13.45 -15.35 13.45 -11.0 11.85 -6.7 10.25 -4.3 10.3 L-2.6 10.6 Q-2.35 10.95 -1.45 10.95 L-1.4 10.95 -1.4 11.0 -1.3 11.85 Q-0.9 13.9 -2.35 15.7 -2.5 14.9 -3.65 14.05 -5.45 12.65 -8.45 12.65 -11.55 12.65 -13.2 14.65 -14.25 15.95 -14.25 17.0 -14.25 18.7 -11.7 18.7 -10.1 18.7 -8.3 17.25 L-7.35 17.7 -7.85 18.1 -8.35 18.6 -8.3 18.7 -15.5 19.35 -19.8 19.2 Q-19.75 17.05 -19.85 15.95 -20.05 14.05 -21.65 13.0 L-19.8 11.5 -19.4 11.2" fill="#57352d" fill-rule="evenodd" stroke="none"/>
    <path d="M-1.4 10.95 L-1.45 10.95 Q-2.35 10.95 -2.6 10.6 L-4.3 10.3 Q-6.7 10.25 -11.0 11.85 -15.35 13.45 -15.9 13.45 -17.1 13.45 -19.4 11.2 L-18.8 10.8 Q-18.4 11.0 -17.55 11.75 L-16.0 12.8 Q-15.0 12.8 -5.15 9.55 L-4.15 9.55 Q-2.45 9.55 -2.05 9.9 L-1.75 10.05 -1.4 10.95" fill="#333333" fill-rule="evenodd" stroke="none"/>
    <path d="M-1.75 10.05 L-2.05 9.9 Q-2.45 9.55 -4.15 9.55 L-5.15 9.55 Q-15.0 12.8 -16.0 12.8 L-17.55 11.75 Q-18.4 11.0 -18.8 10.8 L-18.85 10.8 -16.35 9.3 Q-11.2 6.35 -7.6 6.4 -4.15 6.35 -2.4 8.85 L-1.75 10.05" fill="#e5e5e5" fill-rule="evenodd" stroke="none"/>
    <path d="M-19.4 11.2 L-19.8 11.5 -21.65 13.0 Q-20.05 14.05 -19.85 15.95 -19.75 17.05 -19.8 19.2 L-15.5 19.35 -8.3 18.7 -8.25 18.7 -7.7 18.6 -5.7 17.95 -5.55 17.9 -4.5 17.4 -2.95 16.3 -2.35 15.7 Q-0.9 13.9 -1.3 11.85 L-1.4 11.0 -1.4 10.95 -1.75 10.05 -2.4 8.85 Q-4.15 6.35 -7.6 6.4 -11.2 6.35 -16.35 9.3 L-18.85 10.8 -19.2 11.05 -18.8 10.8 -19.4 11.2 M-0.5 11.8 Q-0.5 14.75 -1.85 16.35 -5.25 20.15 -15.55 20.15 L-20.7 20.1 -20.8 19.95 -20.8 19.55 -20.7 18.8 -20.6 17.35 Q-20.6 13.55 -22.5 13.6 -22.9 13.6 -23.55 14.1 -23.9 13.95 -23.9 13.6 -12.95 5.15 -6.55 5.2 -3.2 5.15 -1.5 8.4 -0.65 10.0 -0.5 11.8" fill="#cd6c54" fill-rule="evenodd" stroke="none"/>
    <path d="M-13.3 16.15 Q-12.6 16.9 -11.05 16.9 -9.15 16.9 -8.0 15.65 L-6.9 14.4 Q-4.85 14.4 -4.5 17.05 L-4.5 17.4 -5.55 17.9 -5.65 17.8 -5.7 17.35 -5.7 17.3 -5.8 17.15 -5.9 17.05 Q-6.45 16.8 -6.95 16.6 L-7.15 16.55 -6.9 15.85 -6.75 15.0 -6.95 14.8 -7.2 14.9 Q-7.65 15.85 -8.65 16.7 -10.1 17.9 -12.1 17.9 -13.55 17.9 -13.5 16.85 L-13.3 16.15 M-6.6 15.0 L-6.7 15.0 -6.8 15.65 -6.8 15.85 -6.55 15.4 -6.55 14.65 -6.6 15.0" fill="#a05345" fill-rule="evenodd" stroke="none"/>
    <path d="M-8.3 18.7 L-8.35 18.6 -7.85 18.1 -7.35 17.7 -8.3 17.25 Q-10.1 18.7 -11.7 18.7 -14.25 18.7 -14.25 17.0 -14.25 15.95 -13.2 14.65 -11.55 12.65 -8.45 12.65 -5.45 12.65 -3.65 14.05 -2.5 14.9 -2.35 15.7 L-2.95 16.3 -3.25 15.85 -3.85 14.85 Q-5.0 13.4 -8.45 13.4 -12.3 13.4 -13.3 16.15 L-13.5 16.85 Q-13.55 17.9 -12.1 17.9 -10.1 17.9 -8.65 16.7 -7.65 15.85 -7.2 14.9 L-6.95 14.8 -6.75 15.0 -6.9 15.85 -7.4 16.5 -7.5 16.6 -7.4 16.55 -7.15 16.55 -6.95 16.6 Q-6.45 16.8 -5.9 17.05 L-5.8 17.15 -5.7 17.3 -5.7 17.35 -5.65 17.8 -5.7 17.95 -7.7 18.6 -8.25 18.7 -8.3 18.7 M-6.6 15.0 L-6.55 14.65 -6.55 15.4 -6.8 15.85 -6.8 15.65 -6.7 15.0 -6.6 15.0" fill="#42211c" fill-rule="evenodd" stroke="none"/>
    <path d="M-4.5 17.4 L-4.5 17.05 Q-4.85 14.4 -6.9 14.4 L-8.0 15.65 Q-9.15 16.9 -11.05 16.9 -12.6 16.9 -13.3 16.15 -12.3 13.4 -8.45 13.4 -5.0 13.4 -3.85 14.85 L-3.25 15.85 -2.95 16.3 -4.5 17.4" fill="#b45f50" fill-rule="evenodd" stroke="none"/>
  </g>
</svg>
