<?xml version="1.0" encoding="UTF-8" standalone="no"?>
<svg xmlns:ffdec="https://www.free-decompiler.com/flash" xmlns:xlink="http://www.w3.org/1999/xlink" ffdec:objectType="shape" height="12.15px" width="21.25px" xmlns="http://www.w3.org/2000/svg">
  <g transform="matrix(1.0, 0.0, 0.0, 1.0, 24.95, -7.2)">
    <path d="M-14.8 18.1 L-17.1 18.2 -21.1 18.0 Q-20.95 17.55 -21.1 17.2 L-21.9 15.75 -23.05 13.7 -17.15 14.25 Q-12.3 14.1 -8.7 12.0 -6.3 10.55 -5.35 9.5 L-5.45 10.2 Q-5.85 12.3 -6.45 13.55 L-7.0 14.6 -7.05 14.55 -9.25 14.15 Q-13.7 14.15 -14.8 18.1" fill="#57352d" fill-rule="evenodd" stroke="none"/>
    <path d="M-7.0 14.6 L-6.45 13.55 Q-5.85 12.3 -5.45 10.2 L-5.35 9.5 Q-6.3 10.55 -8.7 12.0 -12.3 14.1 -17.15 14.25 L-23.05 13.7 -21.9 15.75 -21.1 17.2 Q-20.95 17.55 -21.1 18.0 L-17.1 18.2 -14.8 18.1 -14.1 18.05 Q-9.7 17.5 -7.55 15.2 L-7.0 14.6 M-4.05 7.25 L-3.95 7.3 Q-4.35 7.35 -4.7 8.4 L-4.7 8.45 -4.75 8.55 -4.6 8.5 -4.5 9.0 Q-4.5 11.85 -6.15 14.45 -9.25 19.35 -16.85 19.35 L-20.6 18.95 Q-22.0 18.35 -22.55 16.5 -22.9 15.4 -24.2 13.4 L-24.2 13.15 -24.1 13.1 -24.95 11.8 Q-18.6 13.7 -12.15 11.85 -7.75 10.4 -4.55 7.3 L-4.05 7.25" fill="#cd6c54" fill-rule="evenodd" stroke="none"/>
    <path d="M-4.05 7.25 L-3.95 7.3 -4.05 7.25" fill="#a12e65" fill-rule="evenodd" stroke="none"/>
    <path d="M-3.95 7.3 L-4.05 7.25 Q-3.45 7.3 -3.9 7.3 L-3.95 7.3" fill="#463624" fill-rule="evenodd" stroke="none"/>
    <path d="M-4.7 8.4 L-4.6 8.5 -4.75 8.55 -4.7 8.45 -4.7 8.4" fill="#463623" fill-rule="evenodd" stroke="none"/>
    <path d="M-14.8 18.1 Q-13.7 14.15 -9.25 14.15 L-7.05 14.55 -7.0 14.6 -7.55 15.2 -9.2 14.8 Q-12.35 14.8 -13.45 16.5 L-14.1 18.05 -14.8 18.1" fill="#42211c" fill-rule="evenodd" stroke="none"/>
    <path d="M-7.55 15.2 Q-9.7 17.5 -14.1 18.05 L-13.45 16.5 Q-12.35 14.8 -9.2 14.8 L-7.55 15.2" fill="#b45f50" fill-rule="evenodd" stroke="none"/>
  </g>
</svg>
