<?xml version="1.0" encoding="UTF-8" standalone="no"?>
<svg xmlns:ffdec="https://www.free-decompiler.com/flash" xmlns:xlink="http://www.w3.org/1999/xlink" ffdec:objectType="shape" height="9.55px" width="24.25px" xmlns="http://www.w3.org/2000/svg">
  <g transform="matrix(1.0, 0.0, 0.0, 1.0, 26.75, -5.9)">
    <path d="M-5.8 6.0 L-6.0 6.15 Q-2.9 6.15 -2.5 10.35 -4.55 15.6 -7.8 15.45 L-15.05 14.6 Q-18.75 13.9 -21.1 12.95 -24.3 12.8 -25.75 12.0 L-26.75 10.5 Q-20.4 12.4 -14.0 10.55 -9.55 9.1 -6.35 6.0 L-5.85 5.95 -5.8 6.0 M-3.85 10.25 L-3.85 10.2 Q-3.85 8.5 -6.9 7.9 -7.8 9.05 -10.5 10.7 -13.1 12.2 -16.4 12.7 L-13.85 13.25 -9.75 14.0 -9.0 14.25 -8.1 14.35 -6.9 14.15 Q-6.05 14.15 -4.9 12.35 L-4.1 11.05 -4.0 10.8 -3.85 10.25" fill="#cd6c54" fill-rule="evenodd" stroke="none"/>
    <path d="M-3.85 10.25 L-4.15 10.15 -6.15 9.85 Q-7.25 9.8 -8.0 11.15 -8.8 12.5 -8.9 13.35 L-9.0 14.25 -9.75 14.0 -13.85 13.25 -16.4 12.7 Q-13.1 12.2 -10.5 10.7 -7.8 9.05 -6.9 7.9 -3.85 8.5 -3.85 10.2 L-3.85 10.25" fill="#57352d" fill-rule="evenodd" stroke="none"/>
    <path d="M-9.0 14.25 L-8.9 13.35 Q-8.8 12.5 -8.0 11.15 -7.25 9.8 -6.15 9.85 L-4.15 10.15 -3.85 10.25 -4.0 10.8 -4.15 11.05 -6.45 10.9 Q-7.3 10.9 -7.85 12.45 -8.3 13.6 -8.1 14.35 L-9.0 14.25" fill="#42211c" fill-rule="evenodd" stroke="none"/>
    <path d="M-8.1 14.35 Q-8.3 13.6 -7.85 12.45 -7.3 10.9 -6.45 10.9 L-4.15 11.05 -4.1 11.05 -4.9 12.35 Q-6.05 14.15 -6.9 14.15 L-8.1 14.35" fill="#b45f50" fill-rule="evenodd" stroke="none"/>
  </g>
</svg>
