<?xml version="1.0" encoding="UTF-8" standalone="no"?>
<svg xmlns:ffdec="https://www.free-decompiler.com/flash" xmlns:xlink="http://www.w3.org/1999/xlink" ffdec:objectType="shape" height="4.55px" width="15.4px" xmlns="http://www.w3.org/2000/svg">
  <g transform="matrix(1.0, 0.0, 0.0, 1.0, 22.1, -12.65)">
    <path d="M-7.6 14.1 L-9.05 14.45 -10.75 14.65 -11.45 15.45 Q-11.5 15.65 -12.0 15.65 L-12.95 15.6 Q-12.9 14.9 -11.7 14.25 -10.45 13.55 -8.75 13.55 L-8.05 13.65 -8.0 13.65 -7.6 14.1" fill="#42211c" fill-rule="evenodd" stroke="none"/>
    <path d="M-12.0 15.65 Q-11.5 15.65 -11.45 15.45 L-10.75 14.65 -9.05 14.45 -7.6 14.1 Q-7.3 14.5 -7.3 15.2 -7.3 16.1 -7.65 16.15 L-11.55 15.8 -12.05 15.7 -12.0 15.65" fill="#b45f50" fill-rule="evenodd" stroke="none"/>
    <path d="M-10.25 12.65 L-8.45 12.85 Q-6.65 13.25 -6.7 15.2 -6.7 16.75 -8.05 16.75 L-11.4 16.4 -15.55 16.05 Q-17.65 16.0 -19.35 16.6 L-21.45 17.2 -21.75 17.15 -21.9 16.85 Q-21.9 16.45 -19.4 15.95 L-19.15 15.9 Q-19.75 15.4 -19.75 14.15 L-22.0 14.9 -22.1 14.75 Q-22.1 14.35 -19.65 13.8 -19.35 13.45 -18.15 13.35 L-15.3 13.05 -13.25 12.9 -11.4 12.75 -10.25 12.65 M-7.6 14.1 L-8.0 13.65 -8.05 13.65 -8.35 13.5 -8.55 13.55 -10.2 13.4 Q-17.1 13.35 -18.95 14.15 -18.6 14.8 -18.6 15.25 L-18.6 15.8 -15.25 15.4 -13.05 15.55 -12.95 15.6 -12.0 15.65 -12.05 15.7 -11.55 15.8 -7.65 16.15 Q-7.3 16.1 -7.3 15.2 -7.3 14.5 -7.6 14.1" fill="#cd6c54" fill-rule="evenodd" stroke="none"/>
    <path d="M-8.05 13.65 L-8.75 13.55 Q-10.45 13.55 -11.7 14.25 -12.9 14.9 -12.95 15.6 L-13.05 15.55 -15.25 15.4 -18.6 15.8 -18.6 15.25 Q-18.6 14.8 -18.95 14.15 -17.1 13.35 -10.2 13.4 L-8.55 13.55 -8.35 13.5 -8.05 13.65" fill="#57352d" fill-rule="evenodd" stroke="none"/>
  </g>
</svg>
