<?xml version="1.0" encoding="UTF-8" standalone="no"?>
<svg xmlns:ffdec="https://www.free-decompiler.com/flash" xmlns:xlink="http://www.w3.org/1999/xlink" ffdec:objectType="shape" height="5.2px" width="12.0px" xmlns="http://www.w3.org/2000/svg">
  <g transform="matrix(1.0, 0.0, 0.0, 1.0, 25.05, -13.0)">
    <path d="M-14.0 16.5 L-16.15 17.35 -22.25 18.2 Q-25.55 18.2 -24.95 16.3 -24.95 14.4 -20.75 13.8 L-20.25 13.75 -20.0 13.75 Q-19.7 13.0 -17.2 13.0 -12.8 13.0 -13.05 15.35 -13.1 16.1 -13.5 16.5 L-13.65 16.2 -13.8 16.3 -13.9 16.4 -14.0 16.5 M-15.1 15.0 L-15.5 14.65 Q-24.35 13.35 -24.35 16.3 -24.4 17.55 -23.4 17.6 -17.3 17.55 -14.4 15.8 L-15.1 15.0" fill="#cd6c54" fill-rule="evenodd" stroke="none"/>
    <path d="M-15.1 15.0 L-14.4 15.8 Q-17.3 17.55 -23.4 17.6 -24.4 17.55 -24.35 16.3 -24.35 13.35 -15.5 14.65 L-15.1 15.0" fill="#b45f50" fill-rule="evenodd" stroke="none"/>
  </g>
</svg>
