<?xml version="1.0" encoding="UTF-8" standalone="no"?>
<svg xmlns:ffdec="https://www.free-decompiler.com/flash" xmlns:xlink="http://www.w3.org/1999/xlink" ffdec:objectType="shape" height="5.2px" width="11.3px" xmlns="http://www.w3.org/2000/svg">
  <g transform="matrix(1.0, 0.0, 0.0, 1.0, 22.7, -12.85)">
    <path d="M-12.2 15.35 Q-12.2 16.35 -12.7 16.4 L-20.4 17.15 -20.5 17.0 Q-20.9 15.15 -21.85 14.3 -21.05 13.5 -18.45 13.5 -12.2 13.5 -12.2 15.35" fill="#57352d" fill-rule="evenodd" stroke="none"/>
    <path d="M-12.2 15.35 Q-12.2 13.5 -18.45 13.5 -21.05 13.5 -21.85 14.3 -20.9 15.15 -20.5 17.0 L-20.4 17.15 -12.7 16.4 Q-12.2 16.35 -12.2 15.35 M-11.4 15.35 L-11.7 16.2 -12.15 17.0 Q-13.0 17.8 -15.0 17.65 L-18.3 17.5 -20.75 18.05 -22.7 14.25 Q-22.75 13.45 -18.3 12.95 L-16.95 12.85 Q-13.9 12.85 -12.4 13.85 -11.4 14.5 -11.4 15.35" fill="#cd6c54" fill-rule="evenodd" stroke="none"/>
  </g>
</svg>
