<?xml version="1.0" encoding="UTF-8" standalone="no"?>
<svg xmlns:ffdec="https://www.free-decompiler.com/flash" xmlns:xlink="http://www.w3.org/1999/xlink" ffdec:objectType="shape" height="4.3px" width="12.05px" xmlns="http://www.w3.org/2000/svg">
  <g transform="matrix(1.0, 0.0, 0.0, 1.0, 24.2, -13.6)">
    <path d="M-13.0 14.0 L-13.05 14.1 -12.95 14.05 Q-12.55 14.25 -12.35 14.55 -12.05 15.0 -12.2 15.5 L-12.35 17.7 Q-12.25 17.75 -12.7 17.8 -14.95 16.55 -17.9 16.55 -20.15 16.55 -21.35 17.15 -22.05 17.45 -22.55 17.9 L-23.45 16.4 -24.2 14.7 Q-24.2 13.6 -15.4 13.6 -13.8 13.55 -13.0 14.0 M-13.05 16.9 L-12.85 15.55 -13.05 14.1 -23.4 14.75 -22.5 16.85 -22.3 16.9 Q-21.1 15.85 -17.95 15.85 L-14.35 16.35 -13.05 16.9" fill="#cd6c54" fill-rule="evenodd" stroke="none"/>
    <path d="M-12.95 14.05 L-13.05 14.1 -13.0 14.0 -12.95 14.0 -12.95 14.05" fill="#a12e65" fill-rule="evenodd" stroke="none"/>
    <path d="M-13.05 16.9 L-14.35 16.35 -17.95 15.85 Q-21.1 15.85 -22.3 16.9 L-22.5 16.85 -23.4 14.75 -13.05 14.1 -12.85 15.55 -13.05 16.9" fill="#e5e5e5" fill-rule="evenodd" stroke="none"/>
  </g>
</svg>
