<?xml version="1.0" encoding="UTF-8" standalone="no"?>
<svg xmlns:ffdec="https://www.free-decompiler.com/flash" xmlns:xlink="http://www.w3.org/1999/xlink" ffdec:objectType="shape" height="174.5px" width="74.15px" xmlns="http://www.w3.org/2000/svg">
  <g transform="matrix(1.0, 0.0, 0.0, 1.0, 40.7, 140.2)">
    <path d="M-8.45 -72.0 L-8.95 -72.85 -9.35 -73.6 -9.1 -73.9 Q-9.05 -74.1 -9.15 -74.3 L-10.55 -77.0 -10.8 -77.25 -11.15 -77.25 -11.95 -79.05 -11.65 -79.3 -11.7 -79.7 -12.75 -82.45 -13.0 -82.75 -13.4 -82.75 -14.05 -84.7 -13.75 -84.95 -13.7 -85.35 -14.5 -88.2 -14.75 -88.5 -15.1 -88.55 -15.55 -90.55 Q-15.35 -90.6 -15.2 -90.75 -15.1 -90.95 -15.15 -91.15 L-15.5 -93.0 -15.5 -93.05 -15.55 -93.5 -15.55 -93.6 -15.65 -94.1 -15.85 -94.4 -16.2 -94.5 -16.45 -96.55 -16.1 -96.7 -16.0 -97.05 -16.1 -99.8 -16.1 -100.1 -16.25 -100.45 -16.6 -100.6 -16.5 -102.6 -16.45 -102.6 Q-16.25 -102.6 -16.1 -102.75 L-15.95 -103.1 -15.95 -103.95 -15.75 -105.8 Q-12.05 -110.75 -6.05 -113.9 6.55 -120.5 3.95 -117.85 1.3 -115.2 0.35 -110.15 L0.15 -108.25 -12.8 -108.25 -13.2 -107.3 -13.25 -107.15 -13.5 -106.5 Q-16.2 -99.1 -13.55 -92.25 L5.2 -90.75 Q9.25 -81.05 12.0 -77.9 14.55 -74.95 5.1 -72.0 L0.6 -70.75 Q23.3 -58.75 15.95 -50.9 8.6 -43.1 7.65 -42.5 L12.65 -42.8 Q16.8 -43.45 20.65 -44.9 L21.3 -44.95 Q22.25 -43.15 20.9 -41.85 15.25 -36.4 7.3 -33.95 L7.6 -33.25 Q8.7 -30.7 11.45 -31.65 18.15 -33.75 22.15 -28.95 L22.4 -28.65 22.95 -27.25 22.85 -26.3 21.95 -25.25 20.7 -24.05 19.45 -23.0 18.7 -22.45 16.15 -20.9 14.0 -20.1 Q10.85 -19.3 4.25 -18.45 L3.95 -18.45 1.95 -18.3 -0.3 -18.2 -2.3 -18.1 -3.35 -18.05 -4.55 -18.05 -4.85 -18.05 -4.75 -18.15 -3.4 -20.1 -3.35 -20.5 -3.55 -20.8 -3.6 -20.85 -2.55 -22.6 -2.5 -22.6 -2.3 -22.55 -2.15 -22.55 -1.85 -22.8 -0.55 -25.6 Q-0.45 -25.8 -0.5 -25.95 L-0.8 -26.25 -0.85 -26.25 -0.75 -26.5 -0.15 -28.1 0.25 -28.15 0.5 -28.45 0.8 -29.4 1.3 -31.3 1.3 -31.4 1.25 -31.7 0.95 -31.9 0.9 -31.9 1.2 -33.25 1.3 -33.9 1.35 -33.9 1.7 -34.0 1.9 -34.35 2.0 -35.2 2.25 -37.15 2.15 -37.5 1.8 -37.7 1.9 -39.7 2.25 -39.8 2.4 -40.15 2.35 -43.25 2.2 -43.6 1.85 -43.75 1.65 -45.75 1.95 -45.95 2.05 -46.3 1.55 -49.35 1.35 -49.65 1.0 -49.75 0.55 -51.7 0.8 -51.95 0.85 -52.3 -0.05 -55.25 -0.3 -55.55 -0.7 -55.55 -1.2 -56.8 -1.35 -57.2 -1.05 -57.45 -1.1 -57.85 -2.4 -60.85 -2.65 -61.1 -3.05 -61.1 -3.9 -62.95 -3.85 -62.95 -3.6 -63.2 -3.65 -63.6 -4.95 -66.3 -5.2 -66.55 -5.6 -66.55 -6.5 -68.3 -6.25 -68.6 -6.3 -68.95 -7.75 -71.7 -8.05 -71.9 -8.4 -71.9 -8.45 -72.0 5.1 -72.0 -8.45 -72.0" fill="#616b76" fill-rule="evenodd" stroke="none"/>
    <path d="M-32.25 -124.25 Q-29.4 -128.95 -25.6 -132.05 -23.1 -134.15 -20.2 -135.5 L-22.3 -133.95 Q-24.5 -131.95 -24.45 -129.45 L-24.4 -128.95 -26.4 -127.3 -28.55 -124.75 -28.9 -124.25 -32.25 -124.25 -28.9 -124.25 -29.4 -123.45 Q-36.7 -111.8 -35.1 -84.45 L-34.6 -77.95 -34.5 -76.8 -36.75 -84.7 Q-41.25 -103.5 -35.4 -117.85 -34.0 -121.35 -32.25 -124.25 M0.25 -124.25 Q1.9 -125.45 2.65 -126.85 3.3 -128.1 3.25 -129.45 3.35 -132.85 -0.75 -135.35 L-1.05 -135.5 Q-3.8 -137.1 -7.35 -137.55 L-5.8 -137.55 -4.3 -137.6 -3.75 -137.6 Q-0.95 -137.5 1.9 -136.0 7.3 -133.2 12.65 -125.5 L13.5 -124.25 Q21.15 -112.55 21.1 -97.8 21.05 -92.25 21.45 -86.5 21.95 -79.35 23.15 -72.0 L5.1 -72.0 23.15 -72.0 24.25 -65.75 24.8 -62.8 Q27.4 -47.85 28.3 -26.45 L28.4 -24.1 28.25 -24.05 25.4 -22.65 23.4 -21.85 20.7 -21.05 18.7 -20.55 Q12.65 -19.1 4.25 -18.45 10.85 -19.3 14.0 -20.1 L16.15 -20.9 18.7 -22.45 19.45 -23.0 20.7 -24.05 21.95 -25.25 22.85 -26.3 22.95 -27.25 22.4 -28.65 22.15 -28.95 Q18.15 -33.75 11.45 -31.65 8.7 -30.7 7.6 -33.25 L7.3 -33.95 Q15.25 -36.4 20.9 -41.85 22.25 -43.15 21.3 -44.95 L20.65 -44.9 Q16.8 -43.45 12.65 -42.8 L7.65 -42.5 Q8.6 -43.1 15.95 -50.9 23.3 -58.75 0.6 -70.75 L5.1 -72.0 Q14.55 -74.95 12.0 -77.9 9.25 -81.05 5.2 -90.75 L-13.55 -92.25 Q-16.2 -99.1 -13.5 -106.5 -14.7 -102.6 -13.55 -94.65 L-13.4 -94.4 -13.15 -94.25 3.7 -93.0 3.95 -93.05 4.15 -93.25 4.2 -93.55 Q3.25 -101.85 3.7 -106.7 L3.65 -106.95 3.45 -107.15 3.2 -107.25 0.2 -107.15 Q-6.2 -107.1 -12.75 -107.5 L-13.05 -107.4 -13.2 -107.3 -12.8 -108.25 0.15 -108.25 0.35 -110.15 Q1.3 -115.2 3.95 -117.85 6.55 -120.5 -6.05 -113.9 -12.05 -110.75 -15.75 -105.8 L-15.75 -105.85 -15.85 -106.2 -16.2 -106.4 -16.55 -106.3 -16.75 -105.95 -16.95 -104.05 -16.95 -103.1 -16.8 -102.75 -16.5 -102.6 -16.6 -100.6 -16.95 -100.45 -17.1 -100.1 -17.1 -99.8 -17.0 -97.0 -16.8 -96.65 -16.45 -96.55 -16.2 -94.5 -16.25 -94.5 -16.55 -94.25 -16.65 -93.9 -16.55 -93.4 -16.5 -92.85 -16.15 -90.95 -15.9 -90.6 -15.55 -90.55 -15.1 -88.55 -15.4 -88.35 -15.45 -87.95 -15.45 -87.85 Q-15.05 -87.25 -15.05 -86.5 L-15.05 -86.35 -14.65 -85.05 -14.4 -84.75 -14.05 -84.7 -13.4 -82.75 -13.7 -82.5 -13.7 -82.1 -12.6 -79.3 -12.3 -79.0 -11.95 -79.05 -11.15 -77.25 -11.2 -77.25 -11.45 -76.95 -11.45 -76.6 -10.0 -73.8 -9.7 -73.55 -9.35 -73.6 -8.95 -72.85 -8.45 -72.0 -12.6 -72.0 -8.45 -72.0 -8.4 -71.9 -8.45 -71.85 -8.65 -71.55 -8.6 -71.2 -7.85 -69.8 -7.55 -69.55 Q-7.0 -69.0 -6.85 -68.25 L-6.5 -68.3 -5.6 -66.55 -5.85 -66.25 -5.85 -65.85 -4.55 -63.15 -4.25 -62.9 -3.9 -62.95 -3.05 -61.1 -3.3 -60.8 -3.3 -60.45 -2.0 -57.45 -1.7 -57.15 -1.35 -57.2 -1.2 -56.8 -0.7 -55.55 -1.0 -55.3 -1.0 -54.9 -0.1 -52.05 0.1 -51.75 0.5 -51.7 0.55 -51.7 1.0 -49.75 0.95 -49.75 0.85 -49.7 0.95 -49.0 0.8 -48.0 1.05 -46.15 Q1.1 -45.95 1.25 -45.85 L1.65 -45.75 1.85 -43.75 Q1.6 -43.75 1.5 -43.55 L1.35 -43.2 1.4 -40.2 1.55 -39.85 Q1.65 -39.7 1.9 -39.7 L1.8 -37.7 1.45 -37.6 1.25 -37.25 1.0 -35.35 0.9 -34.45 1.0 -34.1 1.3 -33.9 1.2 -33.25 0.9 -31.9 0.55 -31.85 0.35 -31.55 0.3 -31.45 -0.25 -29.45 -0.45 -28.75 -0.45 -28.35 -0.15 -28.1 -0.75 -26.5 -0.85 -26.25 -1.15 -26.25 -1.45 -26.0 -2.3 -24.15 -2.75 -23.25 -2.75 -22.9 -2.75 -22.8 -2.55 -22.6 -3.6 -20.85 -3.95 -20.9 -4.1 -20.8 -4.25 -20.65 -4.6 -20.2 -5.9 -18.25 -6.0 -18.15 -6.1 -17.95 -6.25 -17.8 -6.4 -17.45 -6.2 -17.1 -5.85 -17.0 -4.55 -17.05 -4.5 -17.05 -2.3 -17.2 -0.3 -17.35 1.95 -17.55 3.95 -17.75 4.85 -17.85 Q12.8 -18.7 18.7 -20.05 L20.7 -20.5 23.4 -21.25 25.4 -21.95 28.1 -23.05 30.4 -24.25 31.2 -24.8 31.35 -24.0 30.4 -23.1 Q28.4 -21.45 25.35 -20.15 L23.35 -19.35 20.7 -18.55 18.7 -18.05 Q12.55 -16.6 3.95 -15.95 L1.95 -15.85 -0.3 -15.7 -2.3 -15.65 -6.9 -15.5 -6.85 -15.8 Q-6.85 -16.05 -7.0 -16.15 L-7.35 -16.3 -7.7 -16.15 -8.3 -15.5 -8.55 -15.5 -8.85 -15.5 Q-10.1 -15.55 -10.8 -16.3 L-11.3 -15.8 -10.8 -16.4 -10.4 -16.8 Q-9.05 -18.55 -7.9 -20.45 L-7.65 -20.85 -6.55 -22.85 -5.95 -24.1 -6.1 -24.25 Q-6.8 -24.95 -6.8 -26.0 -6.8 -27.05 -6.1 -27.8 -5.35 -28.5 -4.3 -28.5 L-4.25 -28.5 -3.9 -29.55 -3.4 -31.55 -3.05 -33.25 -2.75 -35.15 Q-1.95 -41.05 -2.7 -46.75 L-3.35 -47.25 -3.6 -47.55 Q-4.05 -48.15 -4.05 -49.0 L-4.0 -49.55 Q-3.9 -50.2 -3.45 -50.7 -4.2 -54.0 -5.5 -57.15 L-9.1 -65.25 -9.3 -65.25 Q-10.35 -65.25 -11.1 -66.0 -11.8 -66.7 -11.8 -67.75 -11.8 -68.7 -11.2 -69.4 L-12.6 -72.0 -13.3 -73.3 Q-16.9 -79.7 -18.4 -84.15 L-19.35 -84.75 Q-20.05 -85.45 -20.05 -86.5 -20.05 -87.45 -19.5 -88.15 L-21.5 -98.6 Q-22.2 -102.0 -21.4 -105.9 -21.8 -106.45 -21.8 -107.25 -21.8 -108.3 -21.1 -109.05 L-20.45 -109.5 -19.6 -111.8 -18.25 -114.9 -17.8 -115.85 -16.95 -117.5 -15.95 -119.4 -14.45 -121.5 -11.15 -121.5 -11.9 -120.45 -12.0 -120.1 -11.75 -119.75 -11.4 -119.7 -11.05 -119.9 -9.85 -121.55 -9.6 -121.55 Q-5.4 -121.8 -2.85 -122.65 -1.8 -123.0 -1.05 -123.4 L0.25 -124.25 13.5 -124.25 0.25 -124.25 M-20.35 -108.35 L-20.4 -108.3 Q-20.8 -107.9 -20.8 -107.25 -20.8 -106.6 -20.4 -106.2 -19.95 -105.75 -19.3 -105.75 -18.7 -105.75 -18.25 -106.2 -17.8 -106.65 -17.8 -107.25 -17.8 -107.9 -18.25 -108.35 -18.65 -108.75 -19.3 -108.75 -19.95 -108.75 -20.35 -108.35 M-13.35 -117.75 L-13.6 -117.25 -13.85 -116.8 -14.35 -115.55 -14.55 -114.95 -14.55 -114.55 -14.25 -114.3 -13.85 -114.35 -13.65 -114.55 -13.6 -114.65 -13.3 -115.55 -12.95 -116.4 -12.5 -117.25 -12.45 -117.6 -12.7 -117.9 -13.05 -117.95 -13.35 -117.75 M-15.45 -112.1 L-16.2 -109.05 -16.1 -108.65 -15.8 -108.45 -15.4 -108.5 -15.2 -108.85 -14.5 -111.85 -14.55 -112.25 -14.85 -112.45 -15.25 -112.4 -15.45 -112.1 M-16.5 -87.6 Q-16.9 -88.0 -17.55 -88.0 -18.2 -88.0 -18.6 -87.6 L-18.65 -87.55 Q-19.05 -87.15 -19.05 -86.5 -19.05 -85.85 -18.65 -85.45 -18.2 -85.0 -17.55 -85.0 -16.95 -85.0 -16.5 -85.45 -16.05 -85.9 -16.05 -86.5 -16.05 -87.15 -16.5 -87.6 M-8.25 -68.85 Q-8.65 -69.25 -9.3 -69.25 -9.95 -69.25 -10.35 -68.85 L-10.4 -68.8 -10.65 -68.35 -10.8 -67.75 Q-10.8 -67.1 -10.4 -66.7 L-9.6 -66.25 -9.3 -66.25 Q-8.7 -66.25 -8.25 -66.7 -7.8 -67.15 -7.8 -67.75 -7.8 -68.4 -8.25 -68.85 M-2.6 -50.1 L-2.65 -50.05 Q-3.05 -49.65 -3.05 -49.0 L-3.05 -48.85 -2.95 -48.5 -2.65 -47.95 Q-2.2 -47.5 -1.55 -47.5 -0.95 -47.5 -0.5 -47.95 -0.05 -48.4 -0.05 -49.0 -0.05 -49.65 -0.5 -50.1 -0.9 -50.5 -1.55 -50.5 -2.2 -50.5 -2.6 -50.1 M-5.8 -26.0 L-5.5 -25.05 -5.4 -24.95 Q-4.95 -24.5 -4.3 -24.5 -3.7 -24.5 -3.25 -24.95 -2.8 -25.4 -2.8 -26.0 -2.8 -26.65 -3.25 -27.1 -3.65 -27.5 -4.3 -27.5 L-4.55 -27.45 -5.35 -27.1 -5.4 -27.05 Q-5.8 -26.65 -5.8 -26.0" fill="#4d555e" fill-rule="evenodd" stroke="none"/>
    <path d="M-30.7 -26.3 L-30.75 -25.9 -30.75 -25.75 -30.75 -25.7 -30.9 -23.8 -35.5 -23.35 Q-32.6 -33.5 -31.25 -42.0 L-31.65 -37.35 -32.4 -29.55 -32.4 -29.5 Q-32.5 -28.65 -32.05 -27.8 L-30.85 -26.4 -30.7 -26.3" fill="#3a4147" fill-rule="evenodd" stroke="none"/>
    <path d="M18.05 -124.25 L13.5 -124.25 18.05 -124.25 Q25.35 -111.75 25.05 -97.7 24.65 -82.25 24.9 -79.8 L25.65 -72.0 23.15 -72.0 25.65 -72.0 Q28.3 -46.55 32.9 -26.35 L33.45 -24.0 33.45 -23.5 33.2 -23.1 Q32.0 -21.65 30.15 -20.4 L29.7 -15.5 29.7 -15.45 29.45 -14.45 Q28.8 -13.25 26.35 -12.3 L25.25 -11.95 25.25 -14.0 26.2 -14.35 Q27.6 -14.95 27.7 -15.6 L27.7 -15.65 28.0 -19.15 25.35 -17.95 23.3 -17.25 20.7 -16.5 18.7 -16.0 Q12.5 -14.6 3.95 -13.95 L1.95 -13.8 -0.3 -13.7 -2.3 -13.6 -8.5 -13.5 -9.4 -13.45 -9.95 -12.55 -2.3 -12.0 -2.3 -10.0 -11.55 -10.7 -11.6 -10.7 Q-14.25 -8.4 -18.0 -8.35 L-18.05 -8.35 Q-21.0 -8.4 -23.3 -9.8 L-24.5 -10.65 -24.55 -10.7 Q-26.15 -12.1 -26.8 -13.85 L-28.25 -14.45 Q-29.45 -15.0 -30.15 -15.55 -31.6 -16.65 -31.5 -17.9 L-31.5 -17.95 -31.25 -18.75 -31.05 -21.8 -36.7 -21.0 -37.35 -21.1 -37.85 -21.6 -37.9 -22.25 Q-33.65 -36.8 -32.55 -47.95 L-31.8 -55.9 -31.3 -51.05 -31.3 -51.0 -31.15 -45.35 -31.25 -42.0 Q-32.6 -33.5 -35.5 -23.35 L-30.9 -23.8 -30.75 -25.7 -30.75 -25.75 -30.75 -25.9 -30.7 -26.3 Q-29.95 -25.7 -29.05 -25.25 L-29.0 -25.25 -27.35 -24.5 -27.2 -24.45 Q-25.9 -23.75 -23.45 -23.05 L-23.2 -23.2 -19.75 -22.45 -20.3 -22.3 Q-21.85 -21.9 -23.05 -20.9 L-23.25 -20.75 Q-25.3 -18.95 -25.3 -16.5 L-25.15 -15.35 Q-24.9 -14.05 -24.0 -12.95 L-23.25 -12.2 -22.3 -11.5 Q-20.4 -10.4 -18.05 -10.35 L-18.0 -10.35 Q-16.15 -10.4 -14.6 -11.1 -13.7 -11.55 -12.9 -12.2 L-12.25 -12.8 -11.75 -13.45 -13.8 -13.5 Q-14.2 -13.5 -14.5 -13.8 L-14.8 -14.5 -14.5 -15.2 -12.35 -17.6 -12.35 -17.55 -11.95 -18.05 -12.0 -18.05 -11.35 -18.9 Q-11.9 -19.9 -12.9 -20.75 L-13.25 -21.05 -14.05 -21.6 -10.5 -21.15 -10.1 -20.7 -9.85 -21.1 -8.7 -23.0 Q-7.0 -26.1 -5.75 -29.6 L-5.1 -31.6 -4.6 -33.25 -3.9 -36.25 Q-2.75 -42.15 -3.6 -47.55 L-3.35 -47.25 -2.7 -46.75 Q-1.95 -41.05 -2.75 -35.15 L-3.05 -33.25 -3.4 -31.55 -3.9 -29.55 -4.25 -28.5 -4.3 -28.5 Q-5.35 -28.5 -6.1 -27.8 -6.8 -27.05 -6.8 -26.0 -6.8 -24.95 -6.1 -24.25 L-5.95 -24.1 -6.55 -22.85 -7.65 -20.85 -7.9 -20.45 Q-9.05 -18.55 -10.4 -16.8 L-10.8 -16.4 -11.3 -15.8 -10.8 -16.3 Q-10.1 -15.55 -8.85 -15.5 L-8.55 -15.5 -8.3 -15.5 -7.7 -16.15 -7.35 -16.3 -7.0 -16.15 Q-6.85 -16.05 -6.85 -15.8 L-6.9 -15.5 -2.3 -15.65 -0.3 -15.7 1.95 -15.85 3.95 -15.95 Q12.55 -16.6 18.7 -18.05 L20.7 -18.55 23.35 -19.35 25.35 -20.15 Q28.4 -21.45 30.4 -23.1 L31.35 -24.0 31.2 -24.8 30.4 -24.25 28.1 -23.05 25.4 -21.95 23.4 -21.25 20.7 -20.5 18.7 -20.05 Q12.8 -18.7 4.85 -17.85 L3.95 -17.75 1.95 -17.55 -0.3 -17.35 -2.3 -17.2 -4.5 -17.05 -4.55 -17.05 -5.85 -17.0 -6.2 -17.1 -6.4 -17.45 -6.25 -17.8 -6.1 -17.95 -6.0 -18.15 -5.9 -18.25 -4.6 -20.2 -4.25 -20.65 -4.1 -20.8 -3.95 -20.9 -3.6 -20.85 -3.55 -20.8 -3.35 -20.5 -3.4 -20.1 -4.75 -18.15 -4.85 -18.05 -4.55 -18.05 -3.35 -18.05 -2.3 -18.1 -0.3 -18.2 1.95 -18.3 3.95 -18.45 4.25 -18.45 Q12.65 -19.1 18.7 -20.55 L20.7 -21.05 23.4 -21.85 25.4 -22.65 28.25 -24.05 28.4 -24.1 28.3 -26.45 Q27.4 -47.85 24.8 -62.8 L24.25 -65.75 23.15 -72.0 Q21.95 -79.35 21.45 -86.5 21.05 -92.25 21.1 -97.8 21.15 -112.55 13.5 -124.25 L12.65 -125.5 Q7.3 -133.2 1.9 -136.0 -0.95 -137.5 -3.75 -137.6 L-4.3 -137.6 -5.8 -137.55 -7.35 -137.55 Q-3.8 -137.1 -1.05 -135.5 L-0.75 -135.35 Q3.35 -132.85 3.25 -129.45 3.3 -128.1 2.65 -126.85 1.9 -125.45 0.25 -124.25 L-1.05 -123.4 Q-1.8 -123.0 -2.85 -122.65 -5.4 -121.8 -9.6 -121.55 L-9.85 -121.55 -11.05 -119.9 -11.4 -119.7 -11.75 -119.75 -12.0 -120.1 -11.9 -120.45 -11.15 -121.5 -14.45 -121.5 -15.95 -119.4 -16.95 -117.5 -17.8 -115.85 -18.25 -114.9 -19.6 -111.8 -20.45 -109.5 -21.1 -109.05 Q-21.8 -108.3 -21.8 -107.25 -21.8 -106.45 -21.4 -105.9 -22.2 -102.0 -21.5 -98.6 L-19.5 -88.15 Q-20.05 -87.45 -20.05 -86.5 -20.05 -85.45 -19.35 -84.75 L-18.4 -84.15 Q-16.9 -79.7 -13.3 -73.3 L-12.6 -72.0 -14.85 -72.0 -12.6 -72.0 -11.2 -69.4 Q-11.8 -68.7 -11.8 -67.75 -11.8 -66.7 -11.1 -66.0 -10.35 -65.25 -9.3 -65.25 L-9.1 -65.25 -5.5 -57.15 Q-4.2 -54.0 -3.45 -50.7 -3.9 -50.2 -4.0 -49.55 -4.75 -52.75 -6.25 -55.7 L-14.85 -72.0 -15.05 -72.35 Q-20.3 -81.8 -22.15 -92.4 L-22.25 -92.95 Q-24.15 -104.65 -20.2 -115.3 L-19.85 -116.25 -19.55 -116.95 -19.1 -118.0 -18.1 -119.85 Q-17.05 -121.65 -15.6 -123.15 L-15.3 -123.4 -14.85 -123.5 Q-12.0 -123.45 -9.7 -123.55 L-4.55 -124.25 Q-3.05 -124.65 -2.05 -125.15 0.05 -126.35 0.85 -127.85 L1.25 -129.45 Q1.15 -131.75 -1.6 -133.5 L-1.75 -133.6 -2.05 -133.75 Q-5.55 -135.8 -10.6 -135.75 L-15.9 -135.1 Q-17.7 -134.65 -19.2 -133.75 L-20.95 -132.45 Q-22.4 -131.1 -22.45 -129.45 L-22.4 -128.8 -22.4 -128.15 -22.8 -127.65 -24.45 -126.35 -26.25 -124.4 -26.4 -124.25 -28.9 -124.25 -26.4 -124.25 -27.85 -122.1 -28.45 -121.05 Q-34.55 -109.7 -33.1 -84.55 -32.75 -78.65 -32.0 -72.0 L-34.95 -72.0 -32.0 -72.0 -31.2 -65.8 -31.2 -65.75 -30.4 -60.3 -30.15 -58.5 -30.15 -58.25 -30.35 -57.75 -31.0 -57.35 -31.65 -57.5 -31.7 -57.55 Q-32.05 -57.8 -32.1 -58.2 L-33.2 -65.5 -33.2 -65.65 Q-33.9 -68.9 -34.95 -72.0 L-35.4 -73.2 -35.7 -74.05 Q-37.55 -79.3 -38.7 -84.25 -43.35 -103.7 -37.25 -118.6 L-34.6 -124.25 Q-26.7 -138.25 -11.7 -139.95 6.05 -142.0 15.85 -127.7 L18.05 -124.25 M-32.25 -124.25 L-34.6 -124.25 -32.25 -124.25 Q-34.0 -121.35 -35.4 -117.85 -41.25 -103.5 -36.75 -84.7 L-34.5 -76.8 -34.6 -77.95 -35.1 -84.45 Q-36.7 -111.8 -29.4 -123.45 L-28.9 -124.25 -28.55 -124.75 -26.4 -127.3 -24.4 -128.95 -24.45 -129.45 Q-24.5 -131.95 -22.3 -133.95 L-20.2 -135.5 Q-23.1 -134.15 -25.6 -132.05 -29.4 -128.95 -32.25 -124.25 M0.25 -124.25 L-4.55 -124.25 0.25 -124.25 M-9.35 -73.6 L-9.7 -73.55 -10.0 -73.8 -11.45 -76.6 -11.45 -76.95 -11.2 -77.25 -11.15 -77.25 -10.8 -77.25 -10.55 -77.0 -9.15 -74.3 Q-9.05 -74.1 -9.1 -73.9 L-9.35 -73.6 M-11.95 -79.05 L-12.3 -79.0 -12.6 -79.3 -13.7 -82.1 -13.7 -82.5 -13.4 -82.75 -13.0 -82.75 -12.75 -82.45 -11.7 -79.7 -11.65 -79.3 -11.95 -79.05 M-14.05 -84.7 L-14.4 -84.75 -14.65 -85.05 -15.05 -86.35 -15.05 -86.5 Q-15.05 -87.25 -15.45 -87.85 L-15.45 -87.95 -15.4 -88.35 -15.1 -88.55 -14.75 -88.5 -14.5 -88.2 -13.7 -85.35 -13.75 -84.95 -14.05 -84.7 M-15.55 -90.55 L-15.9 -90.6 -16.15 -90.95 -16.5 -92.85 -16.55 -93.4 -16.65 -93.9 -16.55 -94.25 -16.25 -94.5 -16.2 -94.5 -15.85 -94.4 -15.65 -94.1 -15.55 -93.6 -15.55 -93.5 -15.5 -93.05 -15.5 -93.0 -15.15 -91.15 Q-15.1 -90.95 -15.2 -90.75 -15.35 -90.6 -15.55 -90.55 M-16.45 -96.55 L-16.8 -96.65 -17.0 -97.0 -17.1 -99.8 -17.1 -100.1 -16.95 -100.45 -16.6 -100.6 -16.25 -100.45 -16.1 -100.1 -16.1 -99.8 -16.0 -97.05 -16.1 -96.7 -16.45 -96.55 M-16.5 -102.6 L-16.8 -102.75 -16.95 -103.1 -16.95 -104.05 -16.75 -105.95 -16.55 -106.3 -16.2 -106.4 -15.85 -106.2 -15.75 -105.85 -15.75 -105.8 -15.95 -103.95 -15.95 -103.1 -16.1 -102.75 Q-16.25 -102.6 -16.45 -102.6 L-16.5 -102.6 M-8.4 -71.9 L-8.05 -71.9 -7.75 -71.7 -6.3 -68.95 -6.25 -68.6 -6.5 -68.3 -6.85 -68.25 Q-7.0 -69.0 -7.55 -69.55 L-7.85 -69.8 -8.6 -71.2 -8.65 -71.55 -8.45 -71.85 -8.4 -71.9 M-5.6 -66.55 L-5.2 -66.55 -4.95 -66.3 -3.65 -63.6 -3.6 -63.2 -3.85 -62.95 -3.9 -62.95 -4.25 -62.9 -4.55 -63.15 -5.85 -65.85 -5.85 -66.25 -5.6 -66.55 M-3.05 -61.1 L-2.65 -61.1 -2.4 -60.85 -1.1 -57.85 -1.05 -57.45 -1.35 -57.2 -1.7 -57.15 -2.0 -57.45 -3.3 -60.45 -3.3 -60.8 -3.05 -61.1 M-0.7 -55.55 L-0.3 -55.55 -0.05 -55.25 0.85 -52.3 0.8 -51.95 0.55 -51.7 0.5 -51.7 0.1 -51.75 -0.1 -52.05 -1.0 -54.9 -1.0 -55.3 -0.7 -55.55 M1.0 -49.75 L1.35 -49.65 1.55 -49.35 2.05 -46.3 1.95 -45.95 1.65 -45.75 1.25 -45.85 Q1.1 -45.95 1.05 -46.15 L0.8 -48.0 0.95 -49.0 0.85 -49.7 0.95 -49.75 1.0 -49.75 M1.85 -43.75 L2.2 -43.6 2.35 -43.25 2.4 -40.15 2.25 -39.8 1.9 -39.7 Q1.65 -39.7 1.55 -39.85 L1.4 -40.2 1.35 -43.2 1.5 -43.55 Q1.6 -43.75 1.85 -43.75 M1.8 -37.7 L2.15 -37.5 2.25 -37.15 2.0 -35.2 1.9 -34.35 1.7 -34.0 1.35 -33.9 1.3 -33.9 1.0 -34.1 0.9 -34.45 1.0 -35.35 1.25 -37.25 1.45 -37.6 1.8 -37.7 M0.9 -31.9 L0.95 -31.9 1.25 -31.7 1.3 -31.4 1.3 -31.3 0.8 -29.4 0.5 -28.45 0.25 -28.15 -0.15 -28.1 -0.45 -28.35 -0.45 -28.75 -0.25 -29.45 0.3 -31.45 0.35 -31.55 0.55 -31.85 0.9 -31.9 M-0.85 -26.25 L-0.8 -26.25 -0.5 -25.95 Q-0.45 -25.8 -0.55 -25.6 L-1.85 -22.8 -2.15 -22.55 -2.3 -22.55 -2.5 -22.6 -2.55 -22.6 -2.75 -22.8 -2.75 -22.9 -2.75 -23.25 -2.3 -24.15 -1.45 -26.0 -1.15 -26.25 -0.85 -26.25 M18.7 -12.7 L18.7 -10.65 3.95 -9.8 3.95 -11.85 18.7 -12.7 M-15.45 -112.1 L-15.25 -112.4 -14.85 -112.45 -14.55 -112.25 -14.5 -111.85 -15.2 -108.85 -15.4 -108.5 -15.8 -108.45 -16.1 -108.65 -16.2 -109.05 -15.45 -112.1 M-13.35 -117.75 L-13.05 -117.95 -12.7 -117.9 -12.45 -117.6 -12.5 -117.25 -12.95 -116.4 -13.3 -115.55 -13.6 -114.65 -13.65 -114.55 -13.85 -114.35 -14.25 -114.3 -14.55 -114.55 -14.55 -114.95 -14.35 -115.55 -13.85 -116.8 -13.6 -117.25 -13.35 -117.75 M-27.5 -22.4 L-28.9 -23.15 -29.3 -18.4 -29.5 -17.85 Q-29.45 -17.2 -28.1 -16.45 L-27.3 -16.1 -27.3 -16.5 Q-27.3 -19.35 -25.25 -21.55 L-27.5 -22.4" fill="#25282c" fill-rule="evenodd" stroke="none"/>
    <path d="M-30.15 -15.55 Q-29.45 -15.0 -28.25 -14.45 L-28.5 -11.45 Q-30.0 7.6 -25.3 19.15 -20.75 30.3 -6.8 32.1 7.1 33.9 18.0 26.6 28.85 19.3 27.05 -3.95 L26.35 -12.3 Q28.8 -13.25 29.45 -14.45 34.65 20.55 22.2 27.8 9.05 35.75 -6.45 33.95 -22.25 32.1 -27.15 19.9 -32.0 8.0 -30.5 -11.6 L-30.15 -15.55 M-2.3 -10.0 L-2.3 -12.0 -2.3 -13.6 -0.3 -13.7 -0.3 -7.75 Q-0.3 -7.35 -0.6 -7.05 -0.9 -6.75 -1.3 -6.75 -1.7 -6.75 -2.0 -7.05 L-2.3 -7.75 -2.3 -10.0 M1.95 -13.8 L3.95 -13.95 3.95 -11.85 3.95 -9.8 3.95 -7.75 3.65 -7.05 Q3.35 -6.75 2.95 -6.75 2.55 -6.75 2.25 -7.05 1.95 -7.35 1.95 -7.75 L1.95 -13.8 M18.7 -16.0 L20.7 -16.5 20.7 -9.25 20.4 -8.55 Q20.1 -8.25 19.7 -8.25 19.3 -8.25 19.0 -8.55 18.7 -8.85 18.7 -9.25 L18.7 -10.65 18.7 -12.7 18.7 -16.0 M23.3 -17.25 L25.35 -17.95 25.25 -14.0 25.25 -11.95 25.2 -10.45 24.9 -9.75 24.2 -9.5 Q23.8 -9.5 23.5 -9.8 L23.25 -10.2 23.2 -10.5 23.3 -17.25 M18.65 -0.2 Q18.75 -0.4 19.0 -0.4 L19.35 -0.25 19.5 0.1 19.65 3.1 19.55 3.45 19.2 3.6 18.8 3.5 18.65 3.15 18.5 0.15 18.65 -0.2 M18.2 -6.4 L18.55 -6.3 18.75 -5.95 19.2 -2.95 19.1 -2.6 18.8 -2.4 18.4 -2.5 18.2 -2.8 17.75 -5.8 17.85 -6.2 18.2 -6.4 M16.85 23.5 L16.9 23.85 15.95 26.7 15.7 26.95 15.3 27.0 15.0 26.75 15.0 26.35 15.95 23.55 Q16.0 23.35 16.2 23.25 L16.55 23.25 16.85 23.5 M17.6 17.6 L17.95 17.5 Q18.15 17.55 18.3 17.75 L18.35 18.1 17.7 21.05 17.45 21.35 17.1 21.4 16.8 21.15 16.75 20.8 17.35 17.9 17.6 17.6 M19.2 11.8 L19.3 12.15 18.9 15.2 18.7 15.5 18.35 15.6 18.0 15.4 17.9 15.05 18.3 12.05 18.5 11.75 Q18.65 11.6 18.85 11.6 L19.2 11.8 M19.25 5.6 Q19.45 5.6 19.6 5.75 L19.7 6.15 19.55 9.15 19.4 9.5 19.05 9.6 18.7 9.45 18.55 9.1 18.7 6.1 Q18.7 5.85 18.85 5.75 L19.25 5.6" fill="#153646" fill-rule="evenodd" stroke="none"/>
    <path d="M-28.25 -14.45 L-26.8 -13.85 Q-26.15 -12.1 -24.55 -10.7 L-24.5 -10.65 -23.3 -9.8 Q-21.0 -8.4 -18.05 -8.35 L-18.0 -8.35 Q-14.25 -8.4 -11.6 -10.7 L-11.55 -10.7 -2.3 -10.0 -2.3 -7.75 -2.0 -7.05 Q-1.7 -6.75 -1.3 -6.75 -0.9 -6.75 -0.6 -7.05 -0.3 -7.35 -0.3 -7.75 L-0.3 -13.7 1.95 -13.8 1.95 -7.75 Q1.95 -7.35 2.25 -7.05 2.55 -6.75 2.95 -6.75 3.35 -6.75 3.65 -7.05 L3.95 -7.75 3.95 -9.8 18.7 -10.65 18.7 -9.25 Q18.7 -8.85 19.0 -8.55 19.3 -8.25 19.7 -8.25 20.1 -8.25 20.4 -8.55 L20.7 -9.25 20.7 -16.5 23.3 -17.25 23.2 -10.5 23.25 -10.2 23.5 -9.8 Q23.8 -9.5 24.2 -9.5 L24.9 -9.75 25.2 -10.45 25.25 -11.95 26.35 -12.3 27.05 -3.95 Q28.85 19.3 18.0 26.6 7.1 33.9 -6.8 32.1 -20.75 30.3 -25.3 19.15 -30.0 7.6 -28.5 -11.45 L-28.25 -14.45 M18.2 -6.4 L17.85 -6.2 17.75 -5.8 18.2 -2.8 18.4 -2.5 18.8 -2.4 19.1 -2.6 19.2 -2.95 18.75 -5.95 18.55 -6.3 18.2 -6.4 M18.65 -0.2 L18.5 0.15 18.65 3.15 18.8 3.5 19.2 3.6 19.55 3.45 19.65 3.1 19.5 0.1 19.35 -0.25 19.0 -0.4 Q18.75 -0.4 18.65 -0.2 M19.25 5.6 L18.85 5.75 Q18.7 5.85 18.7 6.1 L18.55 9.1 18.7 9.45 19.05 9.6 19.4 9.5 19.55 9.15 19.7 6.15 19.6 5.75 Q19.45 5.6 19.25 5.6 M19.2 11.8 L18.85 11.6 Q18.65 11.6 18.5 11.75 L18.3 12.05 17.9 15.05 18.0 15.4 18.35 15.6 18.7 15.5 18.9 15.2 19.3 12.15 19.2 11.8 M17.6 17.6 L17.35 17.9 16.75 20.8 16.8 21.15 17.1 21.4 17.45 21.35 17.7 21.05 18.35 18.1 18.3 17.75 Q18.15 17.55 17.95 17.5 L17.6 17.6 M16.85 23.5 L16.55 23.25 16.2 23.25 Q16.0 23.35 15.95 23.55 L15.0 26.35 15.0 26.75 15.3 27.0 15.7 26.95 15.95 26.7 16.9 23.85 16.85 23.5 M6.75 20.85 Q11.8 17.25 11.65 10.25 11.45 3.25 6.45 -0.9 1.5 -5.05 -10.9 -6.05 -23.3 -7.05 -24.3 -2.15 -25.35 2.75 -24.25 9.65 -23.2 16.5 -18.3 20.85 -13.45 25.2 -5.85 24.8 1.65 24.45 6.75 20.85" fill="#1e4f66" fill-rule="evenodd" stroke="none"/>
    <path d="M-9.85 -21.1 L-10.1 -20.7 -10.5 -21.15 -9.85 -21.1 M-23.2 -23.2 L-23.45 -23.05 Q-25.9 -23.75 -27.2 -24.45 L-27.35 -24.5 -26.6 -24.2 -26.55 -24.2 -23.2 -23.2" fill="#3e352f" fill-rule="evenodd" stroke="none"/>
    <path d="M-2.3 -12.0 L-9.95 -12.55 -9.4 -13.45 -8.5 -13.5 -2.3 -13.6 -2.3 -12.0 M3.95 -13.95 Q12.5 -14.6 18.7 -16.0 L18.7 -12.7 3.95 -11.85 3.95 -13.95 M25.35 -17.95 L28.0 -19.15 27.7 -15.65 27.7 -15.6 Q27.6 -14.95 26.2 -14.35 L25.25 -14.0 25.35 -17.95 M-27.5 -22.4 L-25.25 -21.55 Q-27.3 -19.35 -27.3 -16.5 L-27.3 -16.1 -28.1 -16.45 Q-29.45 -17.2 -29.5 -17.85 L-29.3 -18.4 -28.9 -23.15 -27.5 -22.4" fill="#60534a" fill-rule="evenodd" stroke="none"/>
    <path d="M6.75 20.85 Q1.65 24.45 -5.85 24.8 -13.45 25.2 -18.3 20.85 -23.2 16.5 -24.25 9.65 -25.35 2.75 -24.3 -2.15 -23.3 -7.05 -10.9 -6.05 1.5 -5.05 6.45 -0.9 11.45 3.25 11.65 10.25 11.8 17.25 6.75 20.85" fill="#225873" fill-rule="evenodd" stroke="none"/>
    <path d="M-22.3 -11.5 L-23.25 -12.2 -24.0 -12.95 Q-24.9 -14.05 -25.15 -15.35 L-25.3 -16.5 Q-25.3 -18.95 -23.25 -20.75 L-23.05 -20.9 Q-21.85 -21.9 -20.3 -22.3 L-19.75 -22.45 -17.15 -22.0 -17.1 -22.0 -15.95 -21.85 -22.3 -11.5 M2.65 -106.2 Q2.35 -102.35 2.9 -96.5 L3.15 -94.0 -12.6 -95.15 Q-13.65 -102.8 -12.45 -106.45 -6.0 -106.1 0.3 -106.15 L2.65 -106.2 M-20.35 -108.35 Q-19.95 -108.75 -19.3 -108.75 -18.65 -108.75 -18.25 -108.35 -17.8 -107.9 -17.8 -107.25 -17.8 -106.65 -18.25 -106.2 -18.7 -105.75 -19.3 -105.75 -19.95 -105.75 -20.4 -106.2 -20.8 -106.6 -20.8 -107.25 -20.8 -107.9 -20.4 -108.3 L-20.35 -108.35 M-16.5 -87.6 Q-16.05 -87.15 -16.05 -86.5 -16.05 -85.9 -16.5 -85.45 -16.95 -85.0 -17.55 -85.0 -18.2 -85.0 -18.65 -85.45 -19.05 -85.85 -19.05 -86.5 -19.05 -87.15 -18.65 -87.55 L-18.6 -87.6 Q-18.2 -88.0 -17.55 -88.0 -16.9 -88.0 -16.5 -87.6 M-8.25 -68.85 Q-7.8 -68.4 -7.8 -67.75 -7.8 -67.15 -8.25 -66.7 -8.7 -66.25 -9.3 -66.25 L-9.6 -66.25 -10.4 -66.7 Q-10.8 -67.1 -10.8 -67.75 L-10.65 -68.35 -10.4 -68.8 -10.35 -68.85 Q-9.95 -69.25 -9.3 -69.25 -8.65 -69.25 -8.25 -68.85 M-2.6 -50.1 Q-2.2 -50.5 -1.55 -50.5 -0.9 -50.5 -0.5 -50.1 -0.05 -49.65 -0.05 -49.0 -0.05 -48.4 -0.5 -47.95 -0.95 -47.5 -1.55 -47.5 -2.2 -47.5 -2.65 -47.95 L-2.95 -48.5 -3.05 -48.85 -3.05 -49.0 Q-3.05 -49.65 -2.65 -50.05 L-2.6 -50.1 M-5.8 -26.0 Q-5.8 -26.65 -5.4 -27.05 L-5.35 -27.1 -4.55 -27.45 -4.3 -27.5 Q-3.65 -27.5 -3.25 -27.1 -2.8 -26.65 -2.8 -26.0 -2.8 -25.4 -3.25 -24.95 -3.7 -24.5 -4.3 -24.5 -4.95 -24.5 -5.4 -24.95 L-5.5 -25.05 -5.8 -26.0" fill="#cccccc" fill-rule="evenodd" stroke="none"/>
    <path d="M-14.05 -21.6 L-13.25 -21.05 -12.9 -20.75 Q-11.9 -19.9 -11.35 -18.9 L-12.0 -18.05 -11.95 -18.05 -12.35 -17.55 -12.35 -17.6 -14.5 -15.2 -14.8 -14.5 -14.5 -13.8 Q-14.2 -13.5 -13.8 -13.5 L-11.75 -13.45 -12.25 -12.8 -12.9 -12.2 Q-13.7 -11.55 -14.6 -11.1 -16.15 -10.4 -18.0 -10.35 L-18.05 -10.35 Q-20.4 -10.4 -22.3 -11.5 L-15.95 -21.85 -14.05 -21.6" fill="#aeaeae" fill-rule="evenodd" stroke="none"/>
    <path d="M-26.25 -124.4 L-24.45 -126.35 Q-24.45 -125.25 -24.05 -124.25 L-26.2 -124.25 -26.25 -124.4 M-20.95 -132.45 L-19.2 -133.75 Q-17.7 -134.65 -15.9 -135.1 -17.9 -134.45 -19.65 -133.35 L-20.25 -132.95 -20.95 -132.45 M-1.6 -133.5 Q1.15 -131.75 1.25 -129.45 L0.85 -127.85 Q1.4 -131.25 -1.6 -133.5 M-8.7 -23.0 L-9.85 -21.1 -10.5 -21.15 -14.05 -21.6 -15.95 -21.85 -17.1 -22.0 -17.15 -22.0 -19.75 -22.45 -23.2 -23.2 -26.55 -24.2 -26.6 -24.2 -27.35 -24.5 -29.0 -25.25 -29.05 -25.25 Q-29.95 -25.7 -30.7 -26.3 L-30.85 -26.4 -32.05 -27.8 Q-32.5 -28.65 -32.4 -29.5 L-32.4 -29.55 -31.65 -37.35 -31.25 -42.0 -31.15 -45.35 -31.3 -51.0 -31.3 -51.05 -31.8 -55.9 -31.85 -56.15 -33.1 -63.25 -34.95 -71.25 -35.15 -72.0 -34.95 -72.0 -35.15 -72.0 -35.7 -74.05 -35.4 -73.2 -34.95 -72.0 Q-33.9 -68.9 -33.2 -65.65 L-33.2 -65.5 -32.1 -58.2 Q-32.05 -57.8 -31.7 -57.55 L-31.65 -57.5 -31.0 -57.35 -30.35 -57.75 -30.15 -58.25 -29.85 -56.45 -29.8 -56.05 -29.3 -51.15 Q-29.1 -48.3 -29.15 -45.3 -29.25 -41.25 -29.65 -37.15 L-30.4 -29.35 -30.25 -28.7 -29.65 -28.0 -29.6 -27.95 -28.15 -27.05 -27.7 -26.8 -25.95 -26.1 Q-22.8 -25.1 -19.65 -24.45 L-16.85 -24.0 -13.5 -23.55 -8.7 -23.0 M-18.1 -119.85 L-19.1 -118.0 Q-21.3 -118.7 -23.05 -120.0 -25.55 -121.85 -26.2 -124.25 L-24.05 -124.25 Q-23.45 -122.8 -21.85 -121.6 -20.2 -120.45 -18.1 -119.85 M-19.85 -116.25 L-20.2 -115.3 Q-23.2 -116.15 -25.5 -117.85 -27.45 -119.35 -28.45 -121.05 L-27.85 -122.1 Q-26.95 -120.2 -24.9 -118.65 -22.7 -117.05 -19.85 -116.25" fill="#333333" fill-rule="evenodd" stroke="none"/>
    <path d="M-13.2 -107.3 L-13.05 -107.4 -12.75 -107.5 Q-6.2 -107.1 0.2 -107.15 L3.2 -107.25 3.45 -107.15 3.65 -106.95 3.7 -106.7 Q3.25 -101.85 4.2 -93.55 L4.15 -93.25 3.95 -93.05 3.7 -93.0 -13.15 -94.25 -13.4 -94.4 -13.55 -94.65 Q-14.7 -102.6 -13.5 -106.5 L-13.25 -107.15 -13.2 -107.3 M2.65 -106.2 L0.3 -106.15 Q-6.0 -106.1 -12.45 -106.45 -13.65 -102.8 -12.6 -95.15 L3.15 -94.0 2.9 -96.5 Q2.35 -102.35 2.65 -106.2" fill="#363c41" fill-rule="evenodd" stroke="none"/>
    <path d="M-24.45 -126.35 L-22.8 -127.65 -22.4 -128.15 -22.4 -128.8 -22.45 -129.45 Q-22.4 -131.1 -20.95 -132.45 L-20.25 -132.95 -19.65 -133.35 Q-17.9 -134.45 -15.9 -135.1 L-10.6 -135.75 Q-5.55 -135.8 -2.05 -133.75 L-1.75 -133.6 -1.6 -133.5 Q1.4 -131.25 0.85 -127.85 0.05 -126.35 -2.05 -125.15 -3.05 -124.65 -4.55 -124.25 L-24.05 -124.25 -4.55 -124.25 -9.7 -123.55 Q-12.0 -123.45 -14.85 -123.5 L-15.3 -123.4 -15.6 -123.15 Q-17.05 -121.65 -18.1 -119.85 -20.2 -120.45 -21.85 -121.6 -23.45 -122.8 -24.05 -124.25 -24.45 -125.25 -24.45 -126.35" fill="#db9c64" fill-rule="evenodd" stroke="none"/>
    <path d="M-26.4 -124.25 L-26.25 -124.4 -26.2 -124.25 -26.4 -124.25 -26.2 -124.25 Q-25.55 -121.85 -23.05 -120.0 -21.3 -118.7 -19.1 -118.0 L-19.55 -116.95 -19.85 -116.25 Q-22.7 -117.05 -24.9 -118.65 -26.95 -120.2 -27.85 -122.1 L-26.4 -124.25" fill="#cfc2a9" fill-rule="evenodd" stroke="none"/>
    <path d="M-3.6 -47.55 Q-2.75 -42.15 -3.9 -36.25 L-4.6 -33.25 -5.1 -31.6 -5.75 -29.6 Q-7.0 -26.1 -8.7 -23.0 L-13.5 -23.55 -16.85 -24.0 -19.65 -24.45 Q-22.8 -25.1 -25.95 -26.1 L-27.7 -26.8 -28.15 -27.05 -29.6 -27.95 -29.65 -28.0 -30.25 -28.7 -30.4 -29.35 -29.65 -37.15 Q-29.25 -41.25 -29.15 -45.3 -29.1 -48.3 -29.3 -51.15 L-29.8 -56.05 -29.85 -56.45 -30.15 -58.25 -30.15 -58.5 -30.4 -60.3 -31.2 -65.75 -31.2 -65.8 -32.0 -72.0 Q-32.75 -78.65 -33.1 -84.55 -34.55 -109.7 -28.45 -121.05 -27.45 -119.35 -25.5 -117.85 -23.2 -116.15 -20.2 -115.3 -24.15 -104.65 -22.25 -92.95 L-22.15 -92.4 Q-20.3 -81.8 -15.05 -72.35 L-14.85 -72.0 -19.1 -72.0 -14.85 -72.0 -6.25 -55.7 Q-4.75 -52.75 -4.0 -49.55 L-4.05 -49.0 Q-4.05 -48.15 -3.6 -47.55 M-19.1 -72.0 Q-22.9 -80.8 -24.15 -94.45 -25.0 -103.65 -24.55 -111.0 L-24.55 -111.15 -24.55 -111.25 Q-24.95 -116.4 -26.6 -115.85 -28.25 -115.35 -30.4 -110.2 -32.6 -105.1 -31.4 -92.0 -30.25 -78.9 -27.55 -77.25 -23.15 -74.6 -27.8 -72.0 -29.75 -70.9 -29.9 -70.1 -30.25 -68.65 -29.05 -62.75 L-28.35 -58.35 -28.05 -54.8 -27.65 -46.0 -27.45 -34.0 -27.45 -32.5 Q-27.45 -31.6 -26.25 -30.85 L-24.5 -30.0 Q-22.85 -29.35 -20.25 -28.85 L-19.9 -28.75 -10.65 -28.25 Q-8.9 -28.9 -7.8 -29.55 L-7.05 -30.15 Q-6.35 -30.8 -6.2 -31.6 L-6.3 -32.65 -6.5 -33.25 Q-7.2 -34.85 -9.35 -35.85 -10.8 -36.55 -12.9 -36.95 L-15.05 -37.25 Q-22.95 -38.15 -19.65 -39.45 L-15.8 -40.35 -13.35 -40.6 -9.05 -40.75 Q-2.8 -40.75 -5.35 -47.8 -7.25 -53.15 -16.05 -66.25 -17.75 -68.8 -19.1 -72.0 M-32.0 -72.0 L-27.8 -72.0 -32.0 -72.0" fill="#cbc7be" fill-rule="evenodd" stroke="none"/>
    <path d="M-27.8 -72.0 Q-23.15 -74.6 -27.55 -77.25 -30.25 -78.9 -31.4 -92.0 -32.6 -105.1 -30.4 -110.2 -28.25 -115.35 -26.6 -115.85 -24.95 -116.4 -24.55 -111.25 L-24.55 -111.15 -24.55 -111.0 Q-25.0 -103.65 -24.15 -94.45 -22.9 -80.8 -19.1 -72.0 -17.75 -68.8 -16.05 -66.25 -7.25 -53.15 -5.35 -47.8 -2.8 -40.75 -9.05 -40.75 L-13.35 -40.6 -15.8 -40.35 -19.65 -39.45 Q-22.95 -38.15 -15.05 -37.25 L-12.9 -36.95 Q-10.8 -36.55 -9.35 -35.85 -7.2 -34.85 -6.5 -33.25 L-6.3 -32.65 -6.2 -31.6 Q-6.35 -30.8 -7.05 -30.15 L-7.8 -29.55 Q-8.9 -28.9 -10.65 -28.25 L-19.9 -28.75 -20.25 -28.85 Q-22.85 -29.35 -24.5 -30.0 L-26.25 -30.85 Q-27.45 -31.6 -27.45 -32.5 L-27.45 -34.0 -27.65 -46.0 -28.05 -54.8 -28.35 -58.35 -29.05 -62.75 Q-30.25 -68.65 -29.9 -70.1 -29.75 -70.9 -27.8 -72.0 L-19.1 -72.0 -27.8 -72.0" fill="#f2efdb" fill-rule="evenodd" stroke="none"/>
    <path d="M0.5 -98.6 L-1.5 -100.25 -5.0 -98.75 -6.5 -99.75 -6.75 -98.3 -9.25 -102.25 -11.5 -98.45" fill="none" stroke="#666666" stroke-linecap="round" stroke-linejoin="round" stroke-width="1.0"/>
  </g>
</svg>
