<?xml version="1.0" encoding="UTF-8" standalone="no"?>
<svg xmlns:ffdec="https://www.free-decompiler.com/flash" xmlns:xlink="http://www.w3.org/1999/xlink" ffdec:objectType="shape" height="16.7px" width="27.75px" xmlns="http://www.w3.org/2000/svg">
  <g transform="matrix(1.0, 0.0, 0.0, 1.0, 13.6, 23.85)">
    <path d="M12.0 -13.3 Q11.5 -11.45 10.3 -10.25 8.85 -8.7 6.9 -9.4 5.9 -9.8 5.2 -10.6 4.25 -11.75 3.75 -13.1 3.3 -14.4 3.15 -15.8 2.9 -18.25 4.5 -19.95 6.3 -21.75 8.9 -22.0 9.4 -22.2 9.95 -22.0 L10.4 -21.7 Q13.35 -18.1 12.0 -13.3 M-3.65 -15.4 Q-3.4 -12.1 -5.85 -9.8 -6.3 -9.35 -6.9 -9.05 -8.55 -8.55 -9.85 -9.75 -11.25 -11.1 -11.7 -13.25 -12.4 -16.8 -10.2 -19.7 -7.3 -20.0 -4.85 -18.45 -4.15 -17.95 -3.95 -17.2 L-3.65 -15.4 Z" fill="none" stroke="#000000" stroke-linecap="round" stroke-linejoin="round" stroke-width="3.5"/>
  </g>
</svg>
