<?xml version="1.0" encoding="UTF-8" standalone="no"?>
<svg xmlns:ffdec="https://www.free-decompiler.com/flash" xmlns:xlink="http://www.w3.org/1999/xlink" ffdec:objectType="shape" height="13.65px" width="27.75px" xmlns="http://www.w3.org/2000/svg">
  <g transform="matrix(1.0, 0.0, 0.0, 1.0, 13.6, 22.35)">
    <path d="M12.0 -13.8 Q11.5 -12.4 10.3 -11.45 8.85 -10.25 6.9 -10.8 5.9 -11.1 5.2 -11.7 4.25 -12.6 3.75 -13.65 3.3 -14.65 3.15 -15.7 2.9 -17.6 4.5 -18.9 6.3 -20.3 8.9 -20.5 L9.95 -20.5 10.4 -20.25 Q13.35 -17.5 12.0 -13.8 M-3.65 -15.4 Q-3.4 -12.9 -5.85 -11.1 L-6.9 -10.55 Q-8.55 -10.15 -9.85 -11.05 -11.25 -12.1 -11.7 -13.75 -12.4 -16.5 -10.2 -18.7 -7.3 -18.95 -4.85 -17.75 -4.15 -17.35 -3.95 -16.8 L-3.65 -15.4 Z" fill="none" stroke="#000000" stroke-linecap="round" stroke-linejoin="round" stroke-width="3.5"/>
  </g>
</svg>
