<?xml version="1.0" encoding="UTF-8" standalone="no"?>
<svg xmlns:ffdec="https://www.free-decompiler.com/flash" xmlns:xlink="http://www.w3.org/1999/xlink" ffdec:objectType="shape" height="70.7px" width="105.55px" xmlns="http://www.w3.org/2000/svg">
  <g transform="matrix(1.0, 0.0, 0.0, 1.0, 33.0, 41.7)">
    <path d="M-14.7 -13.35 L-14.8 -13.85 Q-17.8 -19.5 -26.1 -23.05 L13.2 -18.7 -5.35 -25.55 -5.5 -26.2 Q-6.75 -31.4 -10.6 -34.05 L-10.0 -34.2 Q-0.15 -32.8 11.2 -27.7 7.95 -31.35 2.65 -34.25 L2.65 -34.3 Q3.9 -36.8 3.25 -39.3 L4.8 -39.1 Q18.05 -32.8 27.45 -24.2 26.8 -28.05 24.1 -31.9 L24.2 -32.05 Q26.0 -33.75 25.75 -36.75 L26.2 -36.55 Q33.65 -29.0 38.95 -21.45 40.45 -24.15 39.9 -27.55 L40.35 -28.1 Q44.2 -24.3 44.95 -19.7 L50.45 -20.2 48.7 -15.2 Q55.9 -12.25 62.2 -12.95 63.3 -2.9 55.55 9.9 L55.4 9.85 54.85 9.6 54.35 10.0 Q51.75 12.15 49.15 11.4 51.0 5.8 48.35 1.95 L48.2 1.7 47.95 1.6 Q44.9 0.2 41.9 1.6 41.55 -5.4 45.8 -10.9 L46.85 -12.35 45.1 -12.5 Q34.25 -13.65 23.4 -8.55 22.95 -11.75 20.45 -12.9 L20.05 -13.1 19.55 -12.85 Q18.5 -12.35 6.15 -8.8 -5.9 -5.4 -14.55 -13.25 L-14.7 -13.35" fill="#7a5036" fill-rule="evenodd" stroke="none"/>
    <path d="M-16.25 -12.55 L-15.95 -12.45 -15.2 -12.5 Q-14.85 -12.75 -14.75 -13.1 L-14.7 -13.35 -14.55 -13.25 Q-5.9 -5.4 6.15 -8.8 18.5 -12.35 19.55 -12.85 L20.05 -13.1 20.45 -12.9 Q22.95 -11.75 23.4 -8.55 34.25 -13.65 45.1 -12.5 L46.85 -12.35 45.8 -10.9 Q41.55 -5.4 41.9 1.6 44.9 0.2 47.95 1.6 L48.2 1.7 48.35 1.95 Q51.0 5.8 49.15 11.4 51.75 12.15 54.35 10.0 L54.85 9.6 55.4 9.85 55.55 9.9 Q63.3 -2.9 62.2 -12.95 55.9 -12.25 48.7 -15.2 L50.45 -20.2 44.95 -19.7 Q44.2 -24.3 40.35 -28.1 L42.7 -30.95 Q46.1 -28.65 48.9 -23.75 L49.15 -23.35 49.6 -23.25 Q51.95 -22.8 54.25 -24.5 55.2 -22.55 54.55 -19.45 L54.35 -18.5 55.25 -18.25 Q61.05 -16.75 66.75 -19.35 L66.6 -10.8 66.6 -10.7 67.35 0.55 67.4 0.9 70.1 3.55 Q64.45 14.95 61.45 25.35 61.35 25.7 61.55 26.1 L62.15 26.55 62.6 26.6 62.75 27.9 62.55 28.65 61.9 29.0 61.15 28.8 Q60.8 28.55 60.75 28.15 59.8 20.25 55.6 19.0 L54.8 18.7 54.85 17.95 Q55.1 13.45 54.85 12.15 51.15 14.7 47.5 12.9 L46.65 12.55 47.0 11.65 Q48.9 6.65 46.8 3.3 44.2 2.25 41.6 4.1 L40.15 5.0 40.0 3.4 Q39.1 -4.45 43.15 -10.65 33.05 -11.2 22.95 -6.1 L21.5 -5.4 21.5 -7.0 Q21.55 -9.8 19.95 -10.9 17.55 -10.0 6.7 -6.9 L6.7 -6.85 Q-6.5 -3.15 -15.9 -11.75 -16.25 -12.05 -16.25 -12.45 L-16.25 -12.55 M-26.1 -23.05 L-26.8 -23.35 Q-17.0 -25.95 -6.6 -25.0 L-5.15 -24.9 -5.35 -25.55 13.2 -18.7 -26.1 -23.05 M-10.0 -34.2 Q-4.55 -35.5 1.5 -33.8 L2.3 -33.55 2.65 -34.25 Q7.95 -31.35 11.2 -27.7 -0.15 -32.8 -10.0 -34.2 M4.8 -39.1 Q14.85 -37.5 22.95 -31.9 L23.65 -31.45 24.1 -31.9 Q26.8 -28.05 27.45 -24.2 18.05 -32.8 4.8 -39.1 M26.2 -36.55 Q33.15 -33.8 38.9 -28.1 L39.7 -27.3 39.9 -27.55 Q40.45 -24.15 38.95 -21.45 33.65 -29.0 26.2 -36.55" fill="#603f2b" fill-rule="evenodd" stroke="none"/>
    <path d="M-16.25 -12.55 L-16.55 -12.9 Q-19.95 -19.05 -30.3 -22.55 L-33.0 -23.5 -33.0 -23.6 -30.3 -24.45 Q-19.45 -27.9 -7.85 -27.1 -9.3 -31.25 -12.95 -33.1 L-13.5 -33.4 -13.5 -35.2 -12.85 -35.45 Q-6.3 -37.8 1.15 -35.9 1.85 -38.0 0.85 -40.05 L0.15 -41.7 1.85 -41.5 Q13.8 -40.3 23.3 -34.1 24.1 -35.6 23.55 -38.0 L23.15 -39.75 24.85 -39.2 Q32.9 -36.55 39.55 -30.25 L42.3 -33.55 43.0 -33.1 Q47.05 -30.75 50.4 -25.15 52.1 -25.1 53.85 -26.7 L54.65 -27.45 55.3 -26.6 Q57.3 -24.2 56.65 -20.0 62.0 -19.0 67.3 -21.85 L68.75 -22.65 68.75 -21.0 68.6 -10.8 68.6 -10.7 69.35 0.0 72.55 3.15 72.2 3.8 Q66.4 15.35 63.35 25.9 L62.9 26.5 62.6 26.6 62.15 26.55 61.55 26.1 Q61.35 25.7 61.45 25.35 64.45 14.95 70.1 3.55 L67.4 0.9 67.35 0.55 66.6 -10.7 66.6 -10.8 66.75 -19.35 Q61.05 -16.75 55.25 -18.25 L54.35 -18.5 54.55 -19.45 Q55.2 -22.55 54.25 -24.5 51.95 -22.8 49.6 -23.25 L49.15 -23.35 48.9 -23.75 Q46.1 -28.65 42.7 -30.95 L40.35 -28.1 39.9 -27.55 39.7 -27.3 38.9 -28.1 Q33.15 -33.8 26.2 -36.55 L25.75 -36.75 Q26.0 -33.75 24.2 -32.05 L24.1 -31.9 23.65 -31.45 22.95 -31.9 Q14.85 -37.5 4.8 -39.1 L3.25 -39.3 Q3.9 -36.8 2.65 -34.3 L2.65 -34.25 2.3 -33.55 1.5 -33.8 Q-4.55 -35.5 -10.0 -34.2 L-10.6 -34.05 Q-6.75 -31.4 -5.5 -26.2 L-5.35 -25.55 -5.15 -24.9 -6.6 -25.0 Q-17.0 -25.95 -26.8 -23.35 L-26.1 -23.05 Q-17.8 -19.5 -14.8 -13.85 L-14.7 -13.35 -14.75 -13.1 Q-14.85 -12.75 -15.2 -12.5 L-15.95 -12.45 -16.25 -12.55" fill="#4d2e11" fill-rule="evenodd" stroke="none"/>
  </g>
</svg>
