<?xml version="1.0" encoding="UTF-8" standalone="no"?>
<svg xmlns:ffdec="https://www.free-decompiler.com/flash" xmlns:xlink="http://www.w3.org/1999/xlink" ffdec:objectType="shape" height="91.55px" width="91.6px" xmlns="http://www.w3.org/2000/svg">
  <g transform="matrix(1.0, 0.0, 0.0, 1.0, 31.75, 80.55)">
    <path d="M-3.15 5.7 L-6.15 4.15 -11.65 0.5 -16.95 -4.0 -21.45 -8.8 Q-24.1 -12.15 -25.9 -16.05 -27.65 -19.9 -28.65 -23.95 -29.65 -28.05 -29.9 -32.55 -30.1 -37.05 -29.4 -41.65 -28.65 -46.6 -26.9 -51.1 -25.15 -55.7 -22.35 -59.65 L-20.95 -57.55 Q-20.0 -56.2 -18.55 -55.05 -16.15 -53.3 -13.35 -52.55 -10.15 -51.65 -6.65 -52.05 L6.25 -53.95 Q10.15 -54.6 14.0 -56.0 L14.35 -52.5 14.0 -49.0 18.05 -50.85 26.05 -54.35 30.95 -56.3 32.65 -56.65 32.9 -56.25 Q33.45 -54.65 33.45 -52.9 L33.05 -46.15 32.25 -38.25 40.8 -40.2 41.45 -32.75 Q41.6 -27.8 40.4 -23.15 39.25 -18.6 36.95 -14.5 34.55 -10.25 31.3 -6.8 27.9 -3.15 23.8 -0.4 L20.55 1.55 Q16.4 3.85 11.75 4.95 6.95 6.05 1.95 6.0 L-3.15 5.7" fill="#ffcc99" fill-rule="evenodd" stroke="none"/>
    <path d="M-14.3 -68.5 Q-10.5 -70.95 -6.25 -72.6 -2.05 -74.25 2.55 -74.85 L11.05 -75.25 Q15.2 -75.05 19.3 -74.05 22.15 -73.2 24.9 -72.0 27.7 -70.8 30.4 -69.3 33.05 -67.9 35.45 -65.8 38.85 -63.0 41.45 -59.8 44.05 -56.6 46.1 -53.0 48.1 -49.5 49.15 -45.5 50.2 -41.6 50.55 -37.5 L50.75 -31.05 50.45 -26.85 Q49.95 -22.8 48.55 -18.95 47.15 -15.2 45.05 -11.75 42.9 -8.15 40.1 -5.1 37.2 -1.9 33.9 0.6 30.65 3.1 27.05 4.8 23.45 6.45 19.6 7.4 L15.65 8.35 9.35 8.8 8.85 8.75 4.55 8.1 Q0.45 7.35 -3.15 5.7 L1.95 6.0 Q6.95 6.05 11.75 4.95 16.4 3.85 20.55 1.55 L23.8 -0.4 Q27.9 -3.15 31.3 -6.8 34.55 -10.25 36.95 -14.5 39.25 -18.6 40.4 -23.15 41.6 -27.8 41.45 -32.75 L40.8 -40.2 32.25 -38.25 33.05 -46.15 33.45 -52.9 Q33.45 -54.65 32.9 -56.25 L32.65 -56.65 30.95 -56.3 26.05 -54.35 18.05 -50.85 14.0 -49.0 14.35 -52.5 14.0 -56.0 Q10.15 -54.6 6.25 -53.95 L-6.65 -52.05 Q-10.15 -51.65 -13.35 -52.55 -16.15 -53.3 -18.55 -55.05 -20.0 -56.2 -20.95 -57.55 L-22.35 -59.65 -20.85 -61.75 Q-17.85 -65.5 -14.3 -68.5" fill="#f1ba87" fill-rule="evenodd" stroke="none"/>
    <path d="M-14.3 -68.5 L-9.5 -71.75 -4.55 -74.5 Q-1.1 -76.0 2.5 -77.05 L10.05 -78.15 18.45 -78.5 Q22.7 -78.25 26.9 -76.9 30.85 -75.7 34.65 -73.7 38.45 -71.6 41.65 -68.85 L44.8 -65.75 Q47.8 -62.5 50.3 -58.85 52.65 -55.4 54.45 -51.6 56.25 -47.8 57.05 -43.6 57.85 -39.3 57.85 -34.85 57.85 -30.4 57.0 -26.05 56.2 -21.85 54.7 -18.0 53.2 -14.0 50.6 -10.55 L47.95 -7.15 Q45.05 -3.7 41.7 -0.8 38.45 2.05 34.65 4.0 30.85 5.95 26.9 7.2 22.7 8.45 18.45 8.8 13.85 9.2 9.35 8.8 L15.65 8.35 19.6 7.4 Q23.45 6.45 27.05 4.8 30.65 3.1 33.9 0.6 37.2 -1.9 40.1 -5.1 42.9 -8.15 45.05 -11.75 47.15 -15.2 48.55 -18.95 49.95 -22.8 50.45 -26.85 L50.75 -31.05 50.55 -37.5 Q50.2 -41.6 49.15 -45.5 48.1 -49.5 46.1 -53.0 44.05 -56.6 41.45 -59.8 38.85 -63.0 35.45 -65.8 33.05 -67.9 30.4 -69.3 27.7 -70.8 24.9 -72.0 22.15 -73.2 19.3 -74.05 15.2 -75.05 11.05 -75.25 L2.55 -74.85 Q-2.05 -74.25 -6.25 -72.6 -10.5 -70.95 -14.3 -68.5" fill="#db9c64" fill-rule="evenodd" stroke="none"/>
    <path d="M47.95 -65.5 Q51.0 -62.25 53.35 -58.2 L56.4 -52.4 Q58.3 -48.25 59.05 -44.0 59.8 -39.45 59.85 -34.85 59.8 -30.2 59.05 -25.7 58.3 -21.35 56.45 -17.25 L54.5 -13.3 Q52.45 -9.25 49.55 -5.85 46.5 -2.25 42.95 0.75 39.4 3.7 35.55 5.8 31.7 7.85 27.45 9.15 23.15 10.35 18.65 10.8 L11.3 10.95 Q6.45 10.8 2.05 9.4 L-3.65 7.55 Q-5.4 6.8 -7.05 5.9 L-12.95 2.25 Q-16.85 -0.45 -20.1 -4.05 -23.15 -7.45 -25.55 -11.35 -27.9 -15.2 -29.25 -19.3 -30.7 -23.55 -31.3 -27.9 -31.8 -31.3 -31.75 -34.85 L-31.1 -42.05 Q-30.6 -45.5 -29.55 -48.85 -28.55 -52.1 -27.05 -55.15 L-23.6 -61.2 -20.7 -64.95 Q-17.35 -68.75 -13.4 -71.7 -10.05 -74.25 -6.25 -75.9 -2.5 -77.6 1.45 -78.7 5.45 -79.8 9.65 -80.1 L16.35 -80.55 Q20.9 -80.45 25.3 -79.35 29.6 -78.25 33.6 -76.4 37.7 -74.45 41.15 -71.8 44.85 -68.95 47.95 -65.5 M9.35 8.8 Q13.85 9.2 18.45 8.8 22.7 8.45 26.9 7.2 30.85 5.95 34.65 4.0 38.45 2.05 41.7 -0.8 45.05 -3.7 47.95 -7.15 L50.6 -10.55 Q53.2 -14.0 54.7 -18.0 56.2 -21.85 57.0 -26.05 57.85 -30.4 57.85 -34.85 57.85 -39.3 57.05 -43.6 56.25 -47.8 54.45 -51.6 52.65 -55.4 50.3 -58.85 47.8 -62.5 44.8 -65.75 L41.65 -68.85 Q38.45 -71.6 34.65 -73.7 30.85 -75.7 26.9 -76.9 22.7 -78.25 18.45 -78.5 L10.05 -78.15 2.5 -77.05 Q-1.1 -76.0 -4.55 -74.5 L-9.5 -71.75 -14.3 -68.5 Q-17.85 -65.5 -20.85 -61.75 L-22.35 -59.65 Q-25.15 -55.7 -26.9 -51.1 -28.65 -46.6 -29.4 -41.65 -30.1 -37.05 -29.9 -32.55 -29.65 -28.05 -28.65 -23.95 -27.65 -19.9 -25.9 -16.05 -24.1 -12.15 -21.45 -8.8 L-16.95 -4.0 -11.65 0.5 -6.15 4.15 -3.15 5.7 Q0.45 7.35 4.55 8.1 L8.85 8.75 9.35 8.8" fill="#684e35" fill-rule="evenodd" stroke="none"/>
  </g>
</svg>
