<?xml version="1.0" encoding="UTF-8" standalone="no"?>
<svg xmlns:ffdec="https://www.free-decompiler.com/flash" xmlns:xlink="http://www.w3.org/1999/xlink" ffdec:objectType="shape" height="44.85px" width="53.95px" xmlns="http://www.w3.org/2000/svg">
  <g transform="matrix(1.0, 0.0, 0.0, 1.0, 30.2, 33.0)">
    <path d="M-10.25 -15.3 L-10.35 -14.15 Q-10.65 -11.1 -12.1 -8.55 L-13.85 -7.7 -15.35 -6.45 Q-17.75 -4.05 -19.35 -1.2 L-16.85 -10.4 -17.2 -11.05 -17.0 -11.85 -16.35 -12.5 Q-13.7 -14.5 -10.25 -15.3 M8.7 -14.6 L13.05 -12.5 14.0 -11.6 Q14.85 -10.2 13.65 -9.0 11.55 -6.9 8.7 -6.3 L7.65 -6.9 8.7 -14.6" fill="#3f454b" fill-rule="evenodd" stroke="none"/>
    <path d="M9.3 -19.6 Q13.15 -18.55 16.4 -16.75 L18.6 -15.35 19.8 -14.2 Q22.5 -10.7 23.3 -6.4 23.7 -4.35 23.75 -1.8 22.5 0.0 20.7 1.55 17.45 4.15 13.95 6.0 9.5 8.25 4.6 9.4 L2.45 9.8 1.4 6.0 -12.15 11.2 -8.95 -1.0 -9.0 -4.8 5.15 -5.45 5.35 -5.5 Q6.3 -5.5 7.0 -5.9 7.65 -6.3 7.65 -6.9 L8.7 -6.3 Q11.55 -6.9 13.65 -9.0 14.85 -10.2 14.0 -11.6 L13.05 -12.5 8.7 -14.6 8.85 -15.9 Q12.15 -15.1 14.55 -12.65 15.4 -11.8 15.4 -10.6 15.4 -8.5 13.45 -7.35 10.65 -5.65 7.4 -4.9 3.05 -3.8 -1.55 -3.95 L-6.95 -4.25 Q-6.7 1.85 -8.85 7.7 L-3.55 4.1 -5.35 0.05 -2.45 -2.15 Q0.15 -1.2 1.0 1.6 L3.0 7.75 9.8 5.6 Q14.15 3.95 17.6 1.35 19.7 -0.25 21.0 -2.5 21.7 -7.7 19.05 -12.0 17.8 -13.95 15.55 -15.0 L11.25 -16.7 9.05 -17.55 9.3 -19.6 M-15.55 -3.35 L-18.75 2.0 Q-20.7 5.4 -22.3 9.2 L-23.4 11.85 -24.2 11.65 -24.05 -3.0 Q-27.1 -1.75 -30.2 -0.55 L-28.05 -6.3 -26.85 -10.75 -26.45 -12.8 -26.35 -13.35 Q-22.3 -15.2 -18.05 -16.75 L-10.8 -19.15 -10.4 -17.2 -16.75 -15.1 -23.55 -12.5 -24.5 -12.05 -25.9 -6.7 -22.95 -11.4 -21.0 -8.2 -21.75 -0.2 -18.6 -10.85 -18.25 -11.75 Q-17.6 -13.15 -16.2 -13.95 -13.4 -15.6 -10.25 -16.35 L-10.25 -15.3 Q-13.7 -14.5 -16.35 -12.5 L-17.0 -11.85 -17.2 -11.05 -16.85 -10.4 -19.35 -1.2 Q-17.75 -4.05 -15.35 -6.45 L-13.85 -7.7 -12.1 -8.55 -15.55 -3.35 M-22.95 -9.45 L-27.65 -2.8 -22.25 -4.65 -21.95 -7.85 -22.95 -9.45 M-2.3 4.5 L-5.05 6.35 0.8 4.1 Q0.3 1.7 -1.25 0.05 -1.6 -0.35 -2.1 -0.55 -3.25 -0.25 -4.05 0.55 L-2.3 4.5" fill="#25282c" fill-rule="evenodd" stroke="none"/>
    <path d="M-10.8 -19.15 Q-11.55 -23.4 -13.7 -27.15 L-13.9 -27.65 -13.75 -28.2 Q-9.65 -30.8 -4.7 -32.1 -0.35 -33.4 4.0 -32.85 5.9 -32.6 7.65 -31.75 9.1 -31.1 9.35 -29.9 9.95 -27.25 9.75 -24.4 L9.3 -19.6 9.05 -17.55 8.85 -15.9 8.7 -14.6 7.65 -6.9 Q7.65 -6.3 7.0 -5.9 6.3 -5.5 5.35 -5.5 L8.15 -29.15 Q2.25 -32.25 -4.2 -30.1 L-6.95 -29.05 -11.5 -27.3 Q-8.95 -22.1 -8.2 -16.15 L-8.2 -15.9 Q-8.2 -11.15 -10.8 -7.0 L-13.6 -2.9 -14.5 -2.4 Q-15.45 -2.4 -15.55 -3.35 L-12.1 -8.55 Q-10.65 -11.1 -10.35 -14.15 L-10.25 -15.3 -10.25 -16.35 -10.4 -17.2 -10.8 -19.15" fill="#5c4730" fill-rule="evenodd" stroke="none"/>
    <path d="M-8.95 -1.0 L-13.6 -2.9 -10.8 -7.0 Q-8.2 -11.15 -8.2 -15.9 L-4.7 -15.05 Q-2.3 -14.25 -0.35 -12.8 3.4 -9.95 5.15 -5.45 L-9.0 -4.8 -8.95 -1.0" fill="#f1ba87" fill-rule="evenodd" stroke="none"/>
    <path d="M5.35 -5.5 L5.15 -5.45 Q3.4 -9.95 -0.35 -12.8 -2.3 -14.25 -4.7 -15.05 L-8.2 -15.9 -8.2 -16.15 Q-8.95 -22.1 -11.5 -27.3 L-6.95 -29.05 -4.2 -30.1 Q2.25 -32.25 8.15 -29.15 L5.35 -5.5" fill="#db9c64" fill-rule="evenodd" stroke="none"/>
    <path d="M7.4 -4.9 Q9.3 -4.7 10.9 -3.6 12.8 -2.35 12.35 -0.05 11.75 3.0 9.8 5.6 L3.0 7.75 1.0 1.6 Q0.15 -1.2 -2.45 -2.15 L-5.35 0.05 -3.55 4.1 -8.85 7.7 Q-6.7 1.85 -6.95 -4.25 L-1.55 -3.95 Q3.05 -3.8 7.4 -4.9" fill="#616b76" fill-rule="evenodd" stroke="none"/>
    <path d="M-10.4 -17.2 L-10.25 -16.35 Q-13.4 -15.6 -16.2 -13.95 -17.6 -13.15 -18.25 -11.75 L-18.6 -10.85 -21.75 -0.2 -21.0 -8.2 -22.95 -11.4 -25.9 -6.7 -24.5 -12.05 -23.55 -12.5 -16.75 -15.1 -10.4 -17.2 M9.05 -17.55 L11.25 -16.7 15.55 -15.0 Q17.8 -13.95 19.05 -12.0 21.7 -7.7 21.0 -2.5 19.7 -0.25 17.6 1.35 14.15 3.95 9.8 5.6 11.75 3.0 12.35 -0.05 12.8 -2.35 10.9 -3.6 9.3 -4.7 7.4 -4.9 10.65 -5.65 13.45 -7.35 15.4 -8.5 15.4 -10.6 15.4 -11.8 14.55 -12.65 12.15 -15.1 8.85 -15.9 L9.05 -17.55" fill="#4d555e" fill-rule="evenodd" stroke="none"/>
    <path d="M-22.95 -9.45 L-21.95 -7.85 -22.25 -4.65 -27.65 -2.8 -22.95 -9.45 M-2.3 4.5 L-4.05 0.55 Q-3.25 -0.25 -2.1 -0.55 -1.6 -0.35 -1.25 0.05 0.3 1.7 0.8 4.1 L-5.05 6.35 -2.3 4.5" fill="#353940" fill-rule="evenodd" stroke="none"/>
  </g>
</svg>
