<?xml version="1.0" encoding="UTF-8" standalone="no"?>
<svg xmlns:ffdec="https://www.free-decompiler.com/flash" xmlns:xlink="http://www.w3.org/1999/xlink" ffdec:objectType="shape" height="30.85px" width="41.2px" xmlns="http://www.w3.org/2000/svg">
  <g transform="matrix(1.0, 0.0, 0.0, 1.0, 23.2, 39.5)">
    <path d="M14.95 -38.85 L15.55 -39.35 15.9 -39.4 15.95 -39.4 16.1 -39.5 17.55 -32.75 Q18.4 -27.55 17.6 -20.05 L17.35 -19.45 17.15 -19.05 Q8.1 -6.75 -7.25 -9.0 -15.3 -10.3 -20.05 -18.45 -22.1 -23.1 -23.2 -24.95 L-22.8 -25.3 -22.05 -25.35 Q-14.05 -22.55 -5.5 -23.85 8.45 -26.25 14.95 -38.85 M-15.6 -21.7 L-13.75 -19.85 -13.55 -19.85 Q-11.6 -19.0 -6.7 -19.0 -2.15 -19.0 3.45 -20.65 6.85 -21.7 9.6 -23.5 L13.7 -27.1 Q15.0 -27.95 15.95 -29.35 L15.55 -34.85 15.45 -35.65 Q8.45 -24.25 -5.15 -21.9 L-5.2 -21.9 Q-10.5 -21.05 -15.6 -21.75 L-16.95 -21.95 -20.75 -22.8 Q-19.4 -21.25 -18.35 -19.45 L-18.3 -19.45 Q-14.1 -12.2 -6.95 -10.95 L-6.95 -11.0 Q1.8 -9.7 8.35 -13.55 L9.35 -14.15 9.1 -14.0 9.05 -14.3 9.05 -15.55 Q8.9 -22.85 15.4 -22.85 L15.85 -22.8 16.0 -27.65 Q14.55 -25.55 11.05 -23.1 3.6 -17.85 -7.05 -17.85 -11.05 -17.85 -13.15 -18.7 L-13.65 -18.55 Q-14.15 -18.55 -18.75 -22.3 L-16.95 -21.9 -15.6 -21.7 M15.7 -21.2 L15.75 -21.7 Q12.45 -21.85 11.45 -20.55 L10.65 -18.0 Q10.25 -17.15 10.0 -14.6 13.05 -16.85 15.55 -20.25 L15.6 -20.3 15.7 -21.2" fill="#463624" fill-rule="evenodd" stroke="none"/>
    <path d="M-15.6 -21.75 Q-10.5 -21.05 -5.2 -21.9 L-5.15 -21.9 Q8.45 -24.25 15.45 -35.65 L15.55 -34.85 15.95 -29.35 Q15.0 -27.95 13.7 -27.1 L9.6 -23.5 Q6.85 -21.7 3.45 -20.65 -2.15 -19.0 -6.7 -19.0 -11.6 -19.0 -13.55 -19.85 L-13.75 -19.85 -15.6 -21.7 -15.6 -21.75" fill="#e5e5e5" fill-rule="evenodd" stroke="none"/>
    <path d="M-15.6 -21.7 L-16.95 -21.9 -18.75 -22.3 Q-14.15 -18.55 -13.65 -18.55 L-13.15 -18.7 Q-11.05 -17.85 -7.05 -17.85 3.6 -17.85 11.05 -23.1 14.55 -25.55 16.0 -27.65 L15.85 -22.8 15.4 -22.85 Q8.9 -22.85 9.05 -15.55 L9.05 -14.3 9.1 -14.0 9.35 -14.15 8.35 -13.55 Q1.8 -9.7 -6.95 -11.0 L-6.95 -10.95 Q-14.1 -12.2 -18.3 -19.45 L-18.35 -19.45 Q-19.4 -21.25 -20.75 -22.8 L-16.95 -21.95 -15.6 -21.75 -15.6 -21.7" fill="#57352d" fill-rule="evenodd" stroke="none"/>
    <path d="M15.7 -21.2 L15.6 -20.3 15.55 -20.25 Q13.05 -16.85 10.0 -14.6 10.25 -17.15 10.65 -18.0 L11.45 -20.55 Q12.45 -21.85 15.75 -21.7 L15.7 -21.2" fill="#b45f50" fill-rule="evenodd" stroke="none"/>
  </g>
</svg>
