<?xml version="1.0" encoding="UTF-8" standalone="no"?>
<svg xmlns:ffdec="https://www.free-decompiler.com/flash" xmlns:xlink="http://www.w3.org/1999/xlink" ffdec:objectType="shape" height="30.85px" width="41.2px" xmlns="http://www.w3.org/2000/svg">
  <g transform="matrix(1.0, 0.0, 0.0, 1.0, 23.2, 39.5)">
    <path d="M15.95 -39.4 L16.1 -39.5 17.55 -32.75 Q18.4 -27.55 17.6 -20.05 L17.35 -19.45 17.15 -19.05 Q8.1 -6.75 -7.25 -9.0 -15.3 -10.3 -20.05 -18.45 -22.1 -23.1 -23.2 -24.95 L-22.8 -25.3 -22.05 -25.35 Q-14.05 -22.55 -5.5 -23.85 8.45 -26.25 14.95 -38.85 L15.55 -39.35 15.9 -39.4 15.95 -39.4 M15.95 -29.45 L15.55 -34.85 15.45 -35.65 Q8.45 -24.25 -5.15 -21.9 L-5.2 -21.9 Q-10.45 -21.05 -15.5 -21.75 L-16.25 -21.9 -16.55 -21.85 -16.95 -21.95 -20.75 -22.8 -19.6 -21.4 -19.05 -20.55 -18.35 -19.45 -18.3 -19.45 -18.25 -19.35 -17.55 -18.2 -17.55 -18.25 -17.35 -18.3 -13.3 -15.6 -10.55 -16.3 -10.15 -16.4 -8.05 -16.85 -7.9 -16.9 -7.0 -16.9 -6.9 -16.65 -6.95 -16.4 -7.0 -16.4 -11.95 -14.85 -12.45 -13.35 -12.45 -13.25 -12.5 -13.1 Q-11.5 -12.45 -10.35 -11.95 L-6.95 -10.95 -6.95 -11.0 Q1.8 -9.7 8.35 -13.55 L8.8 -13.8 9.1 -14.0 Q11.25 -15.65 12.9 -17.2 L13.5 -17.8 15.55 -20.25 15.6 -20.3 15.6 -20.35 15.85 -20.35 15.9 -21.15 Q14.95 -21.95 14.4 -21.95 12.15 -21.95 10.4 -21.15 L10.35 -21.1 10.3 -21.1 9.75 -20.75 8.7 -20.2 8.65 -20.2 8.55 -20.2 8.05 -20.2 Q7.95 -20.15 7.95 -20.4 7.95 -20.8 9.35 -21.45 L9.8 -21.65 9.85 -21.65 10.35 -21.85 11.3 -22.2 11.4 -22.25 11.55 -22.3 14.7 -23.55 Q15.45 -24.65 16.0 -26.3 L16.0 -25.55 16.05 -26.35 16.05 -26.4 16.0 -28.55 15.9 -29.25 15.95 -29.35 15.95 -29.45 M8.8 -13.8 L8.1 -13.25 8.8 -13.8 M-15.35 -15.7 L-15.95 -16.1 -15.8 -15.9 -14.1 -14.3 -12.65 -13.2 -13.5 -13.8 -13.55 -14.25 -15.35 -15.7" fill="#463624" fill-rule="evenodd" stroke="none"/>
    <path d="M-17.55 -18.2 L-18.25 -19.35 -18.3 -19.45 -18.35 -19.45 -19.05 -20.55 -19.6 -21.4 -20.75 -22.8 -16.95 -21.95 -16.55 -21.85 -16.25 -21.9 -15.5 -21.75 Q-10.45 -21.05 -5.2 -21.9 L-5.15 -21.9 Q8.45 -24.25 15.45 -35.65 L15.55 -34.85 15.95 -29.45 15.9 -29.4 15.8 -29.25 15.9 -29.25 16.0 -28.55 16.05 -26.4 16.05 -26.35 16.0 -26.3 Q15.45 -24.65 14.7 -23.55 L11.55 -22.3 11.4 -22.25 11.3 -22.2 10.35 -21.85 9.85 -21.65 9.8 -21.65 9.6 -21.65 9.35 -21.45 Q7.95 -20.8 7.95 -20.4 7.95 -20.15 8.05 -20.2 L8.55 -20.2 8.65 -20.2 8.7 -20.2 9.75 -20.75 10.3 -21.1 10.35 -21.1 10.4 -21.1 10.4 -21.15 Q12.15 -21.95 14.4 -21.95 14.95 -21.95 15.9 -21.15 L15.85 -20.35 15.6 -20.35 15.6 -20.3 15.55 -20.25 13.5 -17.8 12.9 -17.2 Q12.7 -20.45 10.1 -20.45 L7.65 -19.75 7.4 -19.8 7.3 -20.1 Q7.3 -20.8 11.35 -23.85 11.85 -24.25 12.3 -25.45 10.9 -24.4 9.1 -23.6 4.35 -21.55 2.55 -21.1 -3.8 -19.6 -7.55 -19.6 L-16.05 -20.35 -18.8 -21.15 Q-15.25 -16.85 -9.95 -16.85 L-5.65 -17.1 -3.1 -17.0 Q-3.0 -16.95 -3.05 -16.75 -4.2 -16.0 -7.85 -14.45 -9.25 -13.55 -9.75 -11.75 L-10.35 -11.95 Q-11.5 -12.45 -12.5 -13.1 L-12.45 -13.25 -12.45 -13.3 -12.45 -13.35 -11.95 -14.85 -7.0 -16.4 -6.95 -16.4 -6.9 -16.65 -7.0 -16.9 -7.9 -16.9 -8.05 -16.85 -10.15 -16.4 -10.55 -16.3 -13.3 -15.6 -17.35 -18.3 -17.55 -18.25 -17.55 -18.2" fill="#e5e5e5" fill-rule="evenodd" stroke="none"/>
    <path d="M15.95 -29.45 L15.95 -29.35 15.9 -29.25 15.8 -29.25 15.9 -29.4 15.95 -29.45 M9.8 -21.65 L9.35 -21.45 9.6 -21.65 9.8 -21.65 M10.35 -21.1 L10.4 -21.15 10.4 -21.1 10.35 -21.1 M12.9 -17.2 Q11.25 -15.65 9.1 -14.0 L8.8 -13.8 8.35 -13.55 Q1.8 -9.7 -6.95 -11.0 L-6.95 -10.95 -10.35 -11.95 -9.75 -11.75 Q-9.25 -13.55 -7.85 -14.45 -4.2 -16.0 -3.05 -16.75 -3.0 -16.95 -3.1 -17.0 L-5.65 -17.1 -9.95 -16.85 Q-15.25 -16.85 -18.8 -21.15 L-16.05 -20.35 -7.55 -19.6 Q-3.8 -19.6 2.55 -21.1 4.35 -21.55 9.1 -23.6 10.9 -24.4 12.3 -25.45 11.85 -24.25 11.35 -23.85 7.3 -20.8 7.3 -20.1 L7.4 -19.8 7.65 -19.75 10.1 -20.45 Q12.7 -20.45 12.9 -17.2" fill="#f9f9f9" fill-rule="evenodd" stroke="none"/>
    <path d="M-12.45 -13.25 L-12.45 -13.35 -12.45 -13.3 -12.45 -13.25 M-15.35 -15.7 L-13.55 -14.25 -13.5 -13.8 -12.65 -13.2 -14.1 -14.3 -15.8 -15.9 -15.95 -16.1 -15.35 -15.7" fill="#57352d" fill-rule="evenodd" stroke="none"/>
  </g>
</svg>
