<?xml version="1.0" encoding="UTF-8" standalone="no"?>
<svg xmlns:ffdec="https://www.free-decompiler.com/flash" xmlns:xlink="http://www.w3.org/1999/xlink" ffdec:objectType="shape" height="14.65px" width="27.85px" xmlns="http://www.w3.org/2000/svg">
  <g transform="matrix(1.0, 0.0, 0.0, 1.0, 11.25, 27.9)">
    <path d="M16.6 -21.65 Q16.6 -19.2 13.2 -16.65 8.7 -13.3 1.1 -13.3 L-3.5 -13.4 -3.55 -13.4 -4.75 -13.25 Q-11.65 -13.25 -11.2 -18.85 L-11.1 -19.65 Q-10.45 -22.6 -4.3 -25.2 2.0 -27.9 8.35 -27.9 14.1 -27.9 15.85 -25.2 16.6 -24.1 16.6 -21.65 M-7.9 -15.2 L-7.7 -15.1 -6.75 -14.7 Q5.0 -13.55 10.35 -16.7 14.7 -19.25 14.7 -22.0 14.7 -26.15 7.1 -26.15 -0.7 -26.15 -5.95 -22.85 -8.05 -21.55 -9.7 -20.05 L-9.0 -19.1 -8.4 -18.35 Q-6.6 -20.05 -0.9 -20.3 L0.35 -20.05 0.45 -19.9 -3.9 -18.55 Q-4.8 -18.25 -6.65 -16.95 L-6.65 -16.9 -6.75 -16.7 Q-7.6 -15.5 -7.8 -15.4 L-8.15 -15.3 -7.9 -15.2" fill="#463624" fill-rule="evenodd" stroke="none"/>
    <path d="M-7.8 -15.4 Q-7.6 -15.5 -6.75 -16.7 L-6.65 -16.9 -6.65 -16.95 Q-4.8 -18.25 -3.9 -18.55 L0.45 -19.9 0.35 -20.05 -0.9 -20.3 Q-6.6 -20.05 -8.4 -18.35 L-9.0 -19.1 -9.7 -20.05 Q-8.05 -21.55 -5.95 -22.85 -0.7 -26.15 7.1 -26.15 14.7 -26.15 14.7 -22.0 14.7 -19.25 10.35 -16.7 5.0 -13.55 -6.75 -14.7 L-7.7 -15.1 -7.9 -15.2 -7.8 -15.4" fill="#e5e5e5" fill-rule="evenodd" stroke="none"/>
  </g>
</svg>
