<?xml version="1.0" encoding="UTF-8" standalone="no"?>
<svg xmlns:ffdec="https://www.free-decompiler.com/flash" xmlns:xlink="http://www.w3.org/1999/xlink" ffdec:objectType="shape" height="25.9px" width="35.65px" xmlns="http://www.w3.org/2000/svg">
  <g transform="matrix(1.0, 0.0, 0.0, 1.0, 16.45, 35.2)">
    <path d="M-8.7 -25.45 L-4.95 -28.05 Q2.9 -33.15 8.35 -33.15 13.65 -33.15 16.25 -28.85 L17.3 -26.75 16.8 -27.05 Q16.2 -27.7 13.6 -27.7 L12.1 -27.65 Q-2.9 -22.05 -4.4 -22.05 -4.9 -22.05 -6.8 -23.85 L-8.7 -25.45" fill="#e5e5e5" fill-rule="evenodd" stroke="none"/>
    <path d="M-8.7 -25.45 L-6.8 -23.85 Q-4.9 -22.05 -4.4 -22.05 -2.9 -22.05 12.1 -27.65 L13.6 -27.7 Q16.2 -27.7 16.8 -27.05 L17.3 -26.75 16.25 -28.85 Q13.65 -33.15 8.35 -33.15 2.9 -33.15 -4.95 -28.05 L-8.7 -25.45 -9.2 -25.1 -8.7 -25.45 M17.8 -25.2 L17.7 -25.2 Q16.4 -25.2 16.0 -25.8 15.65 -26.4 13.4 -26.4 9.75 -26.4 3.15 -23.65 -3.4 -20.9 -4.25 -20.9 -6.1 -20.9 -9.55 -24.8 L-10.2 -24.25 -13.05 -21.65 Q-10.6 -19.85 -10.25 -16.55 -10.1 -14.65 -10.2 -10.9 L-3.65 -10.65 Q2.8 -10.65 7.35 -11.75 L7.4 -11.75 8.2 -12.0 7.3 -11.75 7.25 -12.0 Q7.25 -12.45 8.0 -12.85 8.75 -13.2 8.75 -13.55 8.0 -13.75 7.35 -14.3 4.6 -11.8 2.1 -11.8 -1.75 -11.8 -1.75 -14.75 -1.75 -16.55 -0.15 -18.8 2.35 -22.25 7.1 -22.25 11.65 -22.25 14.35 -19.9 16.15 -18.35 16.35 -17.0 18.6 -20.1 17.95 -23.65 L17.8 -25.15 17.7 -25.65 17.8 -25.2 M17.65 -29.65 Q18.95 -26.85 19.2 -23.8 19.2 -18.65 17.1 -15.9 12.0 -9.3 -3.75 -9.3 L-11.6 -9.35 Q-11.85 -9.4 -11.75 -9.6 -11.55 -10.0 -11.7 -10.3 L-11.55 -11.65 -11.45 -14.15 Q-11.45 -20.65 -14.35 -20.65 -14.9 -20.65 -15.9 -19.8 -16.45 -20.0 -16.45 -20.6 0.25 -35.2 9.95 -35.2 15.05 -35.2 17.65 -29.65 M13.05 -14.05 Q14.45 -14.9 15.5 -16.0 15.15 -16.2 14.95 -16.7 L14.1 -18.45 Q12.35 -21.0 7.1 -21.0 1.25 -21.0 -0.3 -16.25 L-0.65 -15.0 Q-0.65 -13.15 1.5 -13.15 4.55 -13.15 6.8 -15.25 8.35 -16.7 8.95 -18.4 L9.35 -18.55 9.7 -18.2 9.4 -16.75 8.65 -15.55 8.55 -15.45 8.7 -15.5 9.05 -15.5 9.35 -15.45 11.0 -14.65 11.1 -14.5 11.25 -14.2 11.25 -14.1 11.35 -13.4 11.25 -13.1 11.45 -13.2 13.05 -14.05 M9.9 -18.2 L9.95 -18.85 9.95 -17.5 9.6 -16.75 9.6 -17.1 9.7 -18.15 9.9 -18.2" fill="#463624" fill-rule="evenodd" stroke="none"/>
    <path d="M17.8 -25.2 L17.8 -25.15 17.95 -23.65 Q18.6 -20.1 16.35 -17.0 16.15 -18.35 14.35 -19.9 11.65 -22.25 7.1 -22.25 2.35 -22.25 -0.15 -18.8 -1.75 -16.55 -1.75 -14.75 -1.75 -11.8 2.1 -11.8 4.6 -11.8 7.35 -14.3 8.0 -13.75 8.75 -13.55 8.75 -13.2 8.0 -12.85 7.25 -12.45 7.25 -12.0 L7.3 -11.75 7.35 -11.75 Q2.8 -10.65 -3.65 -10.65 L-10.2 -10.9 Q-10.1 -14.65 -10.25 -16.55 -10.6 -19.85 -13.05 -21.65 L-10.2 -24.25 -9.55 -24.8 Q-6.1 -20.9 -4.25 -20.9 -3.4 -20.9 3.15 -23.65 9.75 -26.4 13.4 -26.4 15.65 -26.4 16.0 -25.8 16.4 -25.2 17.7 -25.2 L17.8 -25.2" fill="#57352d" fill-rule="evenodd" stroke="none"/>
    <path d="M-0.3 -16.25 Q1.25 -21.0 7.1 -21.0 12.35 -21.0 14.1 -18.45 L14.95 -16.7 Q15.15 -16.2 15.5 -16.0 14.45 -14.9 13.05 -14.05 L13.1 -14.65 Q12.6 -19.25 9.45 -19.25 L7.75 -17.05 Q6.05 -14.9 3.1 -14.9 0.8 -14.9 -0.3 -16.25 M9.05 -15.5 L8.7 -15.5 8.65 -15.55 9.4 -16.75 9.05 -15.5" fill="#b45f50" fill-rule="evenodd" stroke="none"/>
    <path d="M-0.3 -16.25 Q0.8 -14.9 3.1 -14.9 6.05 -14.9 7.75 -17.05 L9.45 -19.25 Q12.6 -19.25 13.1 -14.65 L13.05 -14.05 11.45 -13.2 11.35 -13.4 11.25 -14.1 11.25 -14.2 11.1 -14.5 11.0 -14.65 9.35 -15.45 9.05 -15.5 9.4 -16.75 9.7 -18.2 9.35 -18.55 8.95 -18.4 Q8.35 -16.7 6.8 -15.25 4.55 -13.15 1.5 -13.15 -0.65 -13.15 -0.65 -15.0 L-0.3 -16.25 M9.9 -18.2 L9.7 -18.15 9.6 -17.1 9.6 -16.75 9.95 -17.5 9.95 -18.85 9.9 -18.2" fill="#a05345" fill-rule="evenodd" stroke="none"/>
  </g>
</svg>
