<?xml version="1.0" encoding="UTF-8" standalone="no"?>
<svg xmlns:ffdec="https://www.free-decompiler.com/flash" xmlns:xlink="http://www.w3.org/1999/xlink" ffdec:objectType="shape" height="16.6px" width="36.9px" xmlns="http://www.w3.org/2000/svg">
  <g transform="matrix(1.0, 0.0, 0.0, 1.0, 14.35, -33.05)">
    <path d="M16.7 33.25 L17.5 33.15 Q18.4 33.25 17.7 33.25 17.45 33.25 17.25 33.5 22.0 33.55 22.55 40.75 19.5 49.85 14.5 49.65 9.45 49.4 3.5 48.15 -2.2 46.95 -5.7 45.3 -10.6 45.1 -12.85 43.7 L-14.35 41.1 Q-4.65 44.4 5.1 41.1 11.85 38.65 16.7 33.25 M20.55 40.5 Q20.55 37.55 15.9 36.55 14.55 38.5 10.4 41.35 6.45 44.0 1.45 44.9 L5.3 45.8 11.55 47.1 12.7 47.55 Q12.6 47.4 12.85 45.95 13.05 44.5 14.2 42.2 15.35 39.85 17.05 39.9 18.75 39.9 20.05 40.4 L20.55 40.6 20.55 40.5 M20.1 42.0 L16.55 41.75 Q15.3 41.75 14.45 44.4 13.75 46.45 14.1 47.75 14.4 47.4 15.85 47.4 17.2 47.4 18.95 44.25 L20.15 42.0 20.3 41.6 20.1 42.0" fill="#463624" fill-rule="evenodd" stroke="none"/>
    <path d="M20.55 40.6 L20.05 40.4 Q18.75 39.9 17.05 39.9 15.35 39.85 14.2 42.2 13.05 44.5 12.85 45.95 12.6 47.4 12.7 47.55 L11.55 47.1 5.3 45.8 1.45 44.9 Q6.45 44.0 10.4 41.35 14.55 38.5 15.9 36.55 20.55 37.55 20.55 40.5 L20.55 40.6" fill="#57352d" fill-rule="evenodd" stroke="none"/>
    <path d="M20.15 42.0 L18.95 44.25 Q17.2 47.4 15.85 47.4 14.4 47.4 14.1 47.75 13.75 46.45 14.45 44.4 15.3 41.75 16.55 41.75 L20.1 42.0 20.15 42.0" fill="#b45f50" fill-rule="evenodd" stroke="none"/>
  </g>
</svg>
