<?xml version="1.0" encoding="UTF-8" standalone="no"?>
<svg xmlns:ffdec="https://www.free-decompiler.com/flash" xmlns:xlink="http://www.w3.org/1999/xlink" ffdec:objectType="shape" height="7.85px" width="23.45px" xmlns="http://www.w3.org/2000/svg">
  <g transform="matrix(1.0, 0.0, 0.0, 1.0, 13.7, 22.25)">
    <path d="M7.65 -20.55 L8.0 -20.3 7.7 -20.55 7.25 -20.8 6.95 -20.75 4.4 -21.0 Q-6.1 -21.0 -8.95 -19.65 -8.4 -18.55 -8.4 -17.75 L-8.4 -16.8 -3.25 -17.5 0.25 -17.2 Q0.35 -18.35 2.1 -19.5 4.05 -20.75 6.6 -20.75 L7.65 -20.55 M6.15 -19.2 L3.6 -18.8 Q2.55 -18.1 2.5 -17.4 2.45 -17.05 1.65 -17.05 L1.6 -17.0 2.35 -16.85 8.25 -16.25 Q8.85 -16.25 8.85 -17.85 8.85 -19.05 8.4 -19.8 7.7 -19.2 6.15 -19.2 M4.35 -22.25 L7.1 -21.95 Q9.85 -21.25 9.75 -17.9 9.75 -15.15 7.7 -15.15 L2.55 -15.75 -3.75 -16.4 Q-6.9 -16.4 -9.5 -15.4 L-12.75 -14.4 -13.2 -14.5 -13.4 -15.0 Q-13.4 -15.65 -9.6 -16.55 L-9.2 -16.65 Q-10.15 -17.55 -10.15 -19.7 L-13.55 -18.4 Q-13.7 -18.0 -13.7 -18.65 -13.7 -19.4 -9.5 -20.4 L-9.95 -20.3 Q-9.45 -20.85 -7.7 -21.1 L-3.3 -21.55 -0.25 -21.85 2.6 -22.15 4.35 -22.25" fill="#463624" fill-rule="evenodd" stroke="none"/>
    <path d="M7.7 -20.55 L7.65 -20.55 6.6 -20.75 Q4.05 -20.75 2.1 -19.5 0.35 -18.35 0.25 -17.2 L-3.25 -17.5 -8.4 -16.8 -8.4 -17.75 Q-8.4 -18.55 -8.95 -19.65 -6.1 -21.0 4.4 -21.0 L6.95 -20.75 7.25 -20.8 7.7 -20.55" fill="#57352d" fill-rule="evenodd" stroke="none"/>
    <path d="M6.15 -19.2 Q7.7 -19.2 8.4 -19.8 8.85 -19.05 8.85 -17.85 8.85 -16.25 8.25 -16.25 L2.35 -16.85 1.6 -17.0 1.65 -17.05 Q2.45 -17.05 2.5 -17.4 2.55 -18.1 3.6 -18.8 L6.15 -19.2" fill="#b45f50" fill-rule="evenodd" stroke="none"/>
  </g>
</svg>
