<?xml version="1.0" encoding="UTF-8" standalone="no"?>
<svg xmlns:ffdec="https://www.free-decompiler.com/flash" xmlns:xlink="http://www.w3.org/1999/xlink" ffdec:objectType="shape" height="172.05px" width="89.05px" xmlns="http://www.w3.org/2000/svg">
  <g transform="matrix(1.0, 0.0, 0.0, 1.0, 44.8, 136.3)">
    <path d="M-10.6 -123.25 Q-9.95 -123.05 -9.45 -122.55 L-9.1 -122.1 -8.4 -122.2 Q-7.15 -122.2 -6.3 -121.4 -5.4 -122.2 -4.15 -122.2 -2.85 -122.2 -1.95 -121.3 L-1.4 -122.05 Q-0.45 -122.95 0.85 -122.95 L2.6 -122.45 Q2.75 -123.2 3.35 -123.8 L3.95 -124.25 Q4.65 -124.7 5.6 -124.7 L5.8 -124.7 Q6.0 -125.45 6.6 -126.05 7.2 -126.65 8.0 -126.85 L7.95 -127.3 Q7.95 -128.6 8.85 -129.55 L9.05 -129.7 Q9.9 -130.45 11.05 -130.45 L11.1 -130.45 Q12.4 -130.45 13.3 -129.55 14.25 -128.6 14.25 -127.3 L14.25 -126.85 Q14.1 -125.85 13.35 -125.1 L13.3 -125.05 13.25 -125.0 Q12.7 -124.45 12.0 -124.25 L12.0 -123.8 Q12.0 -122.5 11.1 -121.6 L11.05 -121.55 Q10.15 -120.65 8.85 -120.65 L8.65 -120.65 7.85 -119.35 7.8 -119.3 Q6.9 -118.4 5.6 -118.4 L4.8 -118.5 Q4.3 -118.6 3.9 -118.9 L3.1 -117.6 3.05 -117.55 Q2.15 -116.65 0.85 -116.65 -0.45 -116.65 -1.35 -117.55 L-1.9 -116.85 -1.95 -116.8 Q-2.85 -115.9 -4.15 -115.9 -5.4 -115.9 -6.25 -116.75 -7.15 -115.9 -8.4 -115.9 -9.7 -115.9 -10.65 -116.85 L-10.95 -117.2 -11.65 -117.15 Q-12.95 -117.15 -13.9 -118.1 L-14.45 -118.8 -14.75 -119.9 Q-15.8 -120.05 -16.55 -120.75 L-16.65 -120.85 -17.2 -121.6 Q-17.55 -122.25 -17.55 -123.05 -17.55 -124.35 -16.65 -125.3 -15.7 -126.2 -14.4 -126.2 L-13.7 -126.1 -12.65 -125.65 -12.2 -125.3 Q-11.4 -124.5 -11.25 -123.4 L-10.6 -123.25 M7.35 -125.35 L7.3 -125.3 6.8 -124.45 7.8 -123.8 Q8.7 -122.9 8.75 -121.65 L8.85 -121.65 Q9.75 -121.65 10.35 -122.3 11.0 -122.9 11.0 -123.8 L11.0 -124.15 10.45 -125.25 10.35 -125.35 9.5 -125.85 8.85 -125.95 8.3 -125.85 7.35 -125.35 M9.75 -129.0 L9.6 -128.85 9.55 -128.8 Q8.95 -128.2 8.95 -127.3 L9.0 -126.95 Q10.2 -126.9 11.05 -126.05 L11.7 -125.2 12.6 -125.8 Q13.25 -126.4 13.25 -127.3 L13.0 -128.3 12.6 -128.85 12.3 -129.1 11.1 -129.45 Q10.35 -129.45 9.75 -129.0 M2.5 -121.2 L2.35 -121.35 Q1.75 -121.95 0.85 -121.95 -0.05 -121.95 -0.65 -121.35 L-0.7 -121.3 -1.25 -120.3 -1.3 -119.8 -1.0 -118.7 -0.7 -118.3 Q-0.05 -117.65 0.85 -117.65 1.75 -117.65 2.35 -118.3 3.0 -118.9 3.0 -119.75 L3.0 -119.8 Q3.0 -120.6 2.5 -121.2 M7.75 -121.55 L7.7 -121.95 Q7.6 -122.6 7.1 -123.1 L6.75 -123.4 5.7 -123.7 5.6 -123.7 4.4 -123.35 4.1 -123.1 4.05 -123.05 Q3.45 -122.45 3.45 -121.55 L4.0 -120.1 4.05 -120.05 4.9 -119.5 5.6 -119.4 Q6.5 -119.4 7.1 -120.05 L7.65 -120.85 7.75 -121.55 M-15.9 -124.6 L-15.95 -124.55 Q-16.55 -123.95 -16.55 -123.05 L-16.5 -122.6 Q-16.4 -122.0 -15.95 -121.55 -15.45 -121.05 -14.75 -120.9 -14.6 -121.85 -13.9 -122.55 -13.2 -123.25 -12.25 -123.4 -12.4 -124.1 -12.9 -124.6 L-13.3 -124.9 -14.4 -125.2 -14.45 -125.2 Q-15.3 -125.15 -15.9 -124.6 M-10.15 -121.85 Q-10.65 -122.35 -11.3 -122.4 L-11.35 -122.4 -11.65 -122.45 -12.35 -122.3 -13.15 -121.85 -13.2 -121.8 -13.65 -121.0 -13.8 -120.3 -13.75 -119.95 -13.7 -119.7 -13.2 -118.8 Q-12.55 -118.15 -11.65 -118.15 L-11.4 -118.15 -11.55 -119.05 Q-11.55 -120.35 -10.65 -121.3 L-10.05 -121.75 -10.15 -121.85 M-8.4 -121.2 L-8.6 -121.2 -9.55 -120.85 -9.9 -120.6 -9.95 -120.55 Q-10.55 -119.95 -10.55 -119.05 L-10.5 -118.5 -10.0 -117.6 -9.95 -117.55 Q-9.3 -116.9 -8.4 -116.9 -7.5 -116.9 -6.9 -117.55 -7.3 -118.2 -7.3 -119.05 -7.3 -119.9 -6.9 -120.6 -7.5 -121.2 -8.4 -121.2 M-2.05 -118.55 L-2.3 -119.8 -2.25 -120.1 -2.65 -120.6 Q-3.25 -121.2 -4.15 -121.2 -5.0 -121.2 -5.65 -120.6 L-5.7 -120.55 Q-6.2 -120.05 -6.25 -119.4 L-6.3 -119.05 -6.25 -118.7 Q-6.2 -118.05 -5.7 -117.55 L-5.65 -117.5 Q-5.0 -116.9 -4.15 -116.9 -3.25 -116.9 -2.65 -117.55 -2.2 -118.0 -2.05 -118.55" fill="#999999" fill-rule="evenodd" stroke="none"/>
    <path d="M9.75 -129.0 Q10.35 -129.45 11.1 -129.45 L12.3 -129.1 12.6 -128.85 13.0 -128.3 13.25 -127.3 Q13.25 -126.4 12.6 -125.8 L11.7 -125.2 11.05 -126.05 Q10.2 -126.9 9.0 -126.95 L8.95 -127.3 Q8.95 -128.2 9.55 -128.8 L9.6 -128.85 9.75 -129.0 M7.35 -125.35 L8.3 -125.85 8.85 -125.95 9.5 -125.85 10.35 -125.35 10.45 -125.25 11.0 -124.15 11.0 -123.8 Q11.0 -122.9 10.35 -122.3 9.75 -121.65 8.85 -121.65 L8.75 -121.65 Q8.7 -122.9 7.8 -123.8 L6.8 -124.45 7.3 -125.3 7.35 -125.35 M7.75 -121.55 L7.65 -120.85 7.1 -120.05 Q6.5 -119.4 5.6 -119.4 L4.9 -119.5 4.05 -120.05 4.0 -120.1 3.45 -121.55 Q3.45 -122.45 4.05 -123.05 L4.1 -123.1 4.4 -123.35 5.6 -123.7 5.7 -123.7 6.75 -123.4 7.1 -123.1 Q7.6 -122.6 7.7 -121.95 L7.75 -121.55 M2.5 -121.2 Q3.0 -120.6 3.0 -119.8 L3.0 -119.75 Q3.0 -118.9 2.35 -118.3 1.75 -117.65 0.85 -117.65 -0.05 -117.65 -0.7 -118.3 L-1.0 -118.7 -1.3 -119.8 -1.25 -120.3 -0.7 -121.3 -0.65 -121.35 Q-0.05 -121.95 0.85 -121.95 1.75 -121.95 2.35 -121.35 L2.5 -121.2 M-15.9 -124.6 Q-15.3 -125.15 -14.45 -125.2 L-14.4 -125.2 -13.3 -124.9 -12.9 -124.6 Q-12.4 -124.1 -12.25 -123.4 -13.2 -123.25 -13.9 -122.55 -14.6 -121.85 -14.75 -120.9 -15.45 -121.05 -15.95 -121.55 -16.4 -122.0 -16.5 -122.6 L-16.55 -123.05 Q-16.55 -123.95 -15.95 -124.55 L-15.9 -124.6 M-2.05 -118.55 Q-2.2 -118.0 -2.65 -117.55 -3.25 -116.9 -4.15 -116.9 -5.0 -116.9 -5.65 -117.5 L-5.7 -117.55 Q-6.2 -118.05 -6.25 -118.7 L-6.3 -119.05 -6.25 -119.4 Q-6.2 -120.05 -5.7 -120.55 L-5.65 -120.6 Q-5.0 -121.2 -4.15 -121.2 -3.25 -121.2 -2.65 -120.6 L-2.25 -120.1 -2.3 -119.8 -2.05 -118.55 M-8.4 -121.2 Q-7.5 -121.2 -6.9 -120.6 -7.3 -119.9 -7.3 -119.05 -7.3 -118.2 -6.9 -117.55 -7.5 -116.9 -8.4 -116.9 -9.3 -116.9 -9.95 -117.55 L-10.0 -117.6 -10.5 -118.5 -10.55 -119.05 Q-10.55 -119.95 -9.95 -120.55 L-9.9 -120.6 -9.55 -120.85 -8.6 -121.2 -8.4 -121.2 M-10.15 -121.85 L-10.05 -121.75 -10.65 -121.3 Q-11.55 -120.35 -11.55 -119.05 L-11.4 -118.15 -11.65 -118.15 Q-12.55 -118.15 -13.2 -118.8 L-13.7 -119.7 -13.75 -119.95 -13.8 -120.3 -13.65 -121.0 -13.2 -121.8 -13.15 -121.85 -12.35 -122.3 -11.65 -122.45 -11.35 -122.4 -11.3 -122.4 Q-10.65 -122.35 -10.15 -121.85" fill="#eeeae3" fill-rule="evenodd" stroke="none"/>
    <path d="M17.5 -50.8 Q23.25 -54.0 9.15 -53.8 5.95 -55.15 8.95 -56.35 15.25 -58.5 15.35 -60.2 21.9 -61.4 25.95 -61.1 L26.65 -60.05 Q27.55 -58.3 27.4 -56.4 27.15 -54.55 25.9 -52.55 22.9 -51.5 17.5 -50.8 M-31.5 -14.25 L-28.95 -13.45 Q-15.1 -9.3 1.7 -10.3 18.35 -11.3 31.35 -14.65 L35.5 -15.95 Q36.9 -10.45 36.85 -4.15 36.7 12.75 26.6 23.85 16.45 34.8 1.45 33.6 -13.65 32.4 -22.15 21.2 -30.75 9.8 -31.8 -5.7 -32.1 -10.2 -31.5 -14.25 M9.35 18.35 Q15.95 12.35 18.7 2.95 21.45 -6.45 6.8 -4.55 -7.85 -2.7 -17.3 -5.45 -26.75 -8.25 -29.15 -5.5 -31.55 -2.8 -28.45 6.0 -25.4 14.75 -19.45 19.55 -13.5 24.35 -5.35 24.35 2.75 24.35 9.35 18.35 M-26.3 -53.35 L-26.3 -61.5 -25.15 -61.0 -25.75 -52.45 -26.1 -52.9 -26.3 -53.35 M-21.8 -58.65 L-18.7 -58.2 -19.0 -51.4 -22.15 -51.85 -21.8 -58.65" fill="#272727" fill-rule="evenodd" stroke="none"/>
    <path d="M-25.9 -105.1 Q-26.0 -103.65 -25.45 -103.4 -24.7 -103.25 -23.0 -104.45 -20.75 -106.05 -19.0 -105.3 -17.35 -104.7 -16.15 -101.9 -15.25 -99.65 -13.85 -99.3 -12.45 -99.1 -10.4 -100.75 -7.95 -102.85 -5.7 -102.8 -3.45 -102.8 -1.35 -100.7 0.4 -98.95 2.0 -98.7 3.5 -98.55 4.9 -99.8 8.35 -102.9 10.9 -102.7 13.35 -102.6 15.2 -100.95 15.85 -100.4 16.45 -100.4 17.0 -100.5 17.5 -101.05 18.9 -102.75 21.4 -103.65 L21.35 -103.6 21.4 -103.6 25.65 -103.2 Q26.2 -102.75 26.7 -102.7 L26.9 -102.7 27.65 -103.2 27.95 -103.35 28.3 -103.25 28.5 -102.95 28.95 -100.6 28.9 -100.6 28.35 -100.65 27.9 -100.55 27.65 -102.05 27.15 -101.85 26.7 -101.8 Q25.85 -101.8 24.95 -102.5 L24.85 -102.6 21.75 -102.8 Q19.5 -102.0 18.3 -100.5 17.4 -99.55 16.45 -99.55 15.5 -99.45 14.5 -100.35 12.95 -101.7 10.85 -101.8 8.65 -101.9 5.6 -99.15 3.8 -97.6 1.9 -97.85 L1.85 -97.85 Q1.15 -97.95 0.45 -98.25 -0.8 -98.85 -2.1 -100.15 -3.85 -101.9 -5.7 -101.9 -7.65 -101.85 -9.7 -100.1 -10.75 -99.2 -11.7 -98.75 -13.0 -98.2 -14.05 -98.4 -15.2 -98.6 -16.05 -99.7 L-17.1 -101.6 Q-18.05 -103.95 -19.4 -104.5 -20.7 -104.95 -22.4 -103.7 -23.45 -103.0 -24.25 -102.65 L-24.6 -102.55 Q-25.3 -102.35 -25.75 -102.55 -26.55 -102.7 -26.8 -103.6 L-26.9 -105.2 -26.65 -107.25 -26.9 -107.2 Q-28.4 -106.8 -29.05 -105.1 L-29.5 -105.35 -30.0 -105.35 Q-28.95 -108.1 -26.25 -108.2 L-26.0 -108.2 -25.7 -108.15 -25.5 -107.9 -25.5 -107.6 -25.9 -105.2 -25.9 -105.1 M23.1 -63.8 L28.25 -65.7 28.45 -65.8 28.9 -65.8 29.45 -65.45 29.65 -64.9 29.65 -55.65 29.65 -51.85 29.45 -51.3 26.5 -50.55 Q21.8 -49.5 17.6 -49.0 L15.1 -48.7 15.05 -48.7 -2.45 -48.1 Q-9.65 -48.25 -15.6 -50.2 L-15.7 -48.45 Q-15.7 -48.25 -15.85 -48.0 L-16.3 -47.7 -16.8 -47.6 -21.85 -48.15 -25.05 -48.5 -25.7 -48.85 -25.95 -49.45 -25.9 -49.95 -25.85 -50.45 Q-26.35 -50.55 -26.7 -50.75 -27.65 -51.35 -28.15 -52.7 L-28.25 -52.95 -28.3 -53.2 -28.3 -63.5 Q-28.75 -64.75 -26.75 -65.8 L-26.2 -65.95 -26.0 -65.9 Q-25.6 -65.85 -25.4 -65.5 L-25.25 -64.8 -25.7 -64.3 -26.3 -63.85 -26.3 -63.8 -24.65 -62.75 -24.3 -62.65 -24.25 -62.6 -23.75 -62.35 -15.8 -61.45 -15.15 -61.1 -14.95 -60.5 -15.05 -58.85 Q-8.75 -60.8 -2.4 -60.7 6.8 -60.55 14.75 -61.9 21.0 -63.0 23.1 -63.8 M37.4 -16.75 Q38.9 -10.9 38.85 -4.15 38.7 13.55 28.05 25.2 17.25 36.9 1.3 35.6 -14.75 34.3 -23.75 22.4 -32.75 10.6 -33.8 -5.55 -34.15 -10.5 -33.4 -15.0 L-31.5 -14.25 Q-32.1 -10.2 -31.8 -5.7 -30.75 9.8 -22.15 21.2 -13.65 32.4 1.45 33.6 16.45 34.8 26.6 23.85 36.7 12.75 36.85 -4.15 36.9 -10.45 35.5 -15.95 L37.4 -16.75 M17.5 -50.8 Q22.9 -51.5 25.9 -52.55 27.15 -54.55 27.4 -56.4 27.55 -58.3 26.65 -60.05 L25.95 -61.1 Q21.9 -61.4 15.35 -60.2 L11.05 -59.8 Q6.8 -59.45 -1.15 -59.75 -9.15 -60.1 -15.15 -56.9 L-15.45 -52.1 Q-9.6 -50.05 -2.4 -49.9 L14.85 -50.5 17.5 -50.8 M-22.8 -59.15 L-22.7 -59.4 -22.5 -59.55 -22.2 -59.6 -18.1 -59.0 -17.8 -58.85 -17.7 -58.55 -18.05 -50.85 -18.1 -50.6 -18.2 -50.5 -18.35 -50.45 -18.6 -50.4 -19.1 -50.5 -21.3 -50.8 -22.75 -51.0 -23.05 -51.15 -23.2 -51.45 -22.8 -59.15 M-26.3 -53.35 L-26.1 -52.9 -25.75 -52.45 -25.15 -61.0 -26.3 -61.5 -26.3 -53.35 M-21.8 -58.65 L-22.15 -51.85 -19.0 -51.4 -18.7 -58.2 -21.8 -58.65 M-23.95 -61.15 L-23.9 -50.2 -17.65 -49.55 -16.25 -60.45 -23.95 -61.15" fill="#000000" fill-rule="evenodd" stroke="none"/>
    <path d="M-29.05 -105.1 Q-28.4 -106.8 -26.9 -107.2 L-26.65 -107.25 -26.9 -105.2 -26.8 -103.6 Q-26.55 -102.7 -25.75 -102.55 -25.3 -102.35 -24.6 -102.55 L-24.25 -102.65 Q-23.45 -103.0 -22.4 -103.7 -20.7 -104.95 -19.4 -104.5 -18.05 -103.95 -17.1 -101.6 L-16.05 -99.7 Q-15.2 -98.6 -14.05 -98.4 -13.0 -98.2 -11.7 -98.75 -10.75 -99.2 -9.7 -100.1 -7.65 -101.85 -5.7 -101.9 -3.85 -101.9 -2.1 -100.15 -0.8 -98.85 0.45 -98.25 1.15 -97.95 1.85 -97.85 L1.9 -97.85 Q3.8 -97.6 5.6 -99.15 8.65 -101.9 10.85 -101.8 12.95 -101.7 14.5 -100.35 15.5 -99.45 16.45 -99.55 17.4 -99.55 18.3 -100.5 19.5 -102.0 21.75 -102.8 L24.85 -102.6 24.95 -102.5 Q25.85 -101.8 26.7 -101.8 L27.15 -101.85 27.65 -102.05 27.9 -100.55 Q-3.9 -94.3 -17.15 -98.6 -29.05 -102.45 -28.8 -104.3 L-28.95 -104.95 -29.05 -105.1 M15.35 -60.2 Q15.25 -58.5 8.95 -56.35 5.95 -55.15 9.15 -53.8 23.25 -54.0 17.5 -50.8 L14.85 -50.5 -2.4 -49.9 Q-9.6 -50.05 -15.45 -52.1 L-15.15 -56.9 Q-9.15 -60.1 -1.15 -59.75 6.8 -59.45 11.05 -59.8 L15.35 -60.2 M1.95 -54.4 Q-2.05 -54.4 1.95 -56.2 3.95 -57.15 -2.05 -56.9 -15.05 -55.1 -10.3 -54.65 -1.5 -53.8 -5.95 -52.85 -10.45 -51.9 -4.1 -51.95 2.2 -52.0 3.45 -53.2 4.65 -54.45 1.95 -54.4 M9.35 18.35 Q2.75 24.35 -5.35 24.35 -13.5 24.35 -19.45 19.55 -25.4 14.75 -28.45 6.0 -31.55 -2.8 -29.15 -5.5 -26.75 -8.25 -17.3 -5.45 -7.85 -2.7 6.8 -4.55 21.45 -6.45 18.7 2.95 15.95 12.35 9.35 18.35" fill="#333333" fill-rule="evenodd" stroke="none"/>
    <path d="M-10.6 -123.25 L-11.25 -123.4 Q-11.4 -124.5 -12.2 -125.3 L-12.65 -125.65 -11.2 -127.05 -5.35 -132.15 Q-1.15 -135.95 4.0 -133.4 L6.5 -131.85 9.05 -129.7 8.85 -129.55 Q7.95 -128.6 7.95 -127.3 L8.0 -126.85 Q7.2 -126.65 6.6 -126.05 6.0 -125.45 5.8 -124.7 L5.6 -124.7 Q4.65 -124.7 3.95 -124.25 3.1 -125.65 1.55 -126.6 -3.6 -129.85 -8.75 -125.05 L-10.6 -123.25 M-16.55 -120.75 Q-15.8 -120.05 -14.75 -119.9 L-14.45 -118.8 Q-17.25 -115.35 -20.3 -110.75 L-23.35 -105.65 -22.2 -106.35 Q-18.25 -109.15 -16.15 -104.0 -14.1 -98.9 -9.55 -102.7 -5.05 -106.5 -1.25 -102.7 0.45 -101.0 2.0 -100.6 L2.0 -100.8 Q1.3 -107.3 4.0 -115.3 L4.8 -118.5 5.6 -118.4 Q6.9 -118.4 7.8 -119.3 L7.85 -119.35 8.65 -120.65 8.85 -120.65 Q10.15 -120.65 11.05 -121.55 L11.1 -121.6 Q12.0 -122.5 12.0 -123.8 L12.0 -124.25 Q12.7 -124.45 13.25 -125.0 L16.25 -120.9 Q21.3 -113.5 21.4 -103.6 L21.35 -103.6 21.4 -103.65 Q18.9 -102.75 17.5 -101.05 17.0 -100.5 16.45 -100.4 15.85 -100.4 15.2 -100.95 13.35 -102.6 10.9 -102.7 8.35 -102.9 4.9 -99.8 3.5 -98.55 2.0 -98.7 0.4 -98.95 -1.35 -100.7 -3.45 -102.8 -5.7 -102.8 -7.95 -102.85 -10.4 -100.75 -12.45 -99.1 -13.85 -99.3 -15.25 -99.65 -16.15 -101.9 -17.35 -104.7 -19.0 -105.3 -20.75 -106.05 -23.0 -104.45 -24.7 -103.25 -25.45 -103.4 -26.0 -103.65 -25.9 -105.1 -20.6 -115.0 -16.55 -120.75" fill="#bf824a" fill-rule="evenodd" stroke="none"/>
    <path d="M3.95 -124.25 L3.35 -123.8 Q2.75 -123.2 2.6 -122.45 L0.85 -122.95 Q-0.45 -122.95 -1.4 -122.05 L-1.95 -121.3 Q-2.85 -122.2 -4.15 -122.2 -5.4 -122.2 -6.3 -121.4 -7.15 -122.2 -8.4 -122.2 L-9.1 -122.1 -9.45 -122.55 Q-9.95 -123.05 -10.6 -123.25 L-8.75 -125.05 Q-3.6 -129.85 1.55 -126.6 3.1 -125.65 3.95 -124.25 M-14.45 -118.8 L-13.9 -118.1 Q-12.95 -117.15 -11.65 -117.15 L-10.95 -117.2 -10.65 -116.85 Q-9.7 -115.9 -8.4 -115.9 -7.15 -115.9 -6.25 -116.75 -5.4 -115.9 -4.15 -115.9 -2.85 -115.9 -1.95 -116.8 L-1.9 -116.85 -1.35 -117.55 Q-0.45 -116.65 0.85 -116.65 2.15 -116.65 3.05 -117.55 L3.1 -117.6 3.9 -118.9 Q4.3 -118.6 4.8 -118.5 L4.0 -115.3 Q1.3 -107.3 2.0 -100.8 L2.0 -100.6 Q0.45 -101.0 -1.25 -102.7 -5.05 -106.5 -9.55 -102.7 -14.1 -98.9 -16.15 -104.0 -18.25 -109.15 -22.2 -106.35 L-23.35 -105.65 -20.3 -110.75 Q-17.25 -115.35 -14.45 -118.8" fill="#ce9255" fill-rule="evenodd" stroke="none"/>
    <path d="M-12.65 -125.65 L-13.7 -126.1 -8.45 -131.85 -6.75 -133.45 Q-1.45 -138.2 5.0 -135.0 7.15 -133.95 9.5 -131.85 L11.05 -130.45 Q9.9 -130.45 9.05 -129.7 L6.5 -131.85 4.0 -133.4 Q-1.15 -135.95 -5.35 -132.15 L-11.2 -127.05 -12.65 -125.65 M-17.2 -121.6 L-16.65 -120.85 -16.55 -120.75 Q-20.6 -115.0 -25.9 -105.1 L-25.9 -105.2 -25.5 -107.6 -25.5 -107.9 -25.7 -108.15 -26.0 -108.2 -26.25 -108.2 Q-21.5 -115.9 -17.2 -121.6 M13.25 -125.0 L13.3 -125.05 13.35 -125.1 Q14.1 -125.85 14.25 -126.85 L17.95 -121.85 Q23.55 -113.65 26.9 -102.7 L26.7 -102.7 Q26.2 -102.75 25.65 -103.2 L21.4 -103.6 Q21.3 -113.5 16.25 -120.9 L13.25 -125.0" fill="#5c4730" fill-rule="evenodd" stroke="none"/>
    <path d="M-30.0 -105.35 L-29.5 -105.35 -29.05 -105.1 -28.95 -104.95 -28.8 -104.3 Q-29.05 -102.45 -17.15 -98.6 -3.9 -94.3 27.9 -100.55 L28.35 -100.65 28.9 -100.6 28.95 -100.6 29.35 -100.3 29.55 -99.85 Q31.5 -80.35 30.05 -75.35 28.8 -71.05 28.45 -65.8 L28.25 -65.7 23.1 -63.8 Q24.1 -66.2 23.1 -66.6 26.0 -71.95 26.2 -76.25 26.35 -80.55 24.65 -97.3 -4.4 -92.45 -17.85 -96.85 -26.9 -99.85 -29.65 -102.25 L-35.55 -90.05 Q-40.05 -80.9 -32.15 -74.0 L-24.15 -66.95 -24.1 -66.5 -24.1 -66.45 -24.65 -62.75 -26.3 -63.8 -26.3 -63.85 -25.7 -64.3 -25.25 -64.8 -25.4 -65.5 Q-25.6 -65.85 -26.0 -65.9 L-26.2 -65.95 -26.15 -66.25 Q-42.95 -78.95 -36.3 -92.4 -32.0 -101.5 -30.75 -104.75 L-30.25 -105.25 -30.0 -105.35 M29.65 -55.65 Q30.3 -53.35 31.35 -50.8 L31.3 -50.9 44.1 -26.45 44.2 -26.1 Q44.9 -20.25 37.4 -16.75 L35.5 -15.95 31.35 -14.65 Q18.35 -11.3 1.7 -10.3 -15.1 -9.3 -28.95 -13.45 L-31.5 -14.25 -33.4 -15.0 Q-43.6 -19.1 -44.75 -25.65 L-44.65 -26.3 -28.25 -52.0 -28.15 -52.7 Q-27.65 -51.35 -26.7 -50.75 L-26.9 -50.5 Q-38.15 -36.6 -42.75 -25.65 -41.4 -20.35 -33.05 -16.85 L-31.2 -16.1 -28.3 -15.15 Q-14.8 -11.15 1.55 -12.1 17.95 -13.1 30.8 -16.35 33.2 -17.0 35.0 -17.7 L36.85 -18.55 Q41.65 -21.15 39.8 -24.8 39.5 -33.6 26.5 -50.55 L29.45 -51.3 29.65 -51.85 29.65 -55.65" fill="#224434" fill-rule="evenodd" stroke="none"/>
    <path d="M21.0 -81.45 Q21.55 -81.0 22.35 -81.0 23.15 -81.0 23.7 -81.45 24.25 -81.95 24.25 -82.7 24.25 -83.4 23.7 -83.9 L22.35 -84.4 Q21.55 -84.4 21.0 -83.9 20.45 -83.4 20.45 -82.7 20.45 -81.95 21.0 -81.45 M-24.1 -66.45 L-24.1 -66.5 -24.15 -66.95 -32.15 -74.0 Q-40.05 -80.9 -35.55 -90.05 L-29.65 -102.25 Q-26.9 -99.85 -17.85 -96.85 -4.4 -92.45 24.65 -97.3 26.35 -80.55 26.2 -76.25 26.0 -71.95 23.1 -66.6 15.45 -63.4 3.6 -62.65 -17.9 -62.25 -24.1 -66.45 M13.7 -90.65 Q13.7 -90.15 14.15 -89.7 14.6 -89.3 15.2 -89.3 15.8 -89.3 16.25 -89.7 L16.7 -90.65 16.25 -91.6 Q15.8 -92.05 15.2 -92.0 14.6 -92.05 14.15 -91.6 13.7 -91.2 13.7 -90.65 M9.75 -76.7 Q9.4 -78.8 2.0 -80.05 -9.9 -82.4 -1.9 -82.1 10.05 -82.95 9.95 -83.9 9.8 -89.3 5.7 -90.7 3.25 -91.6 -6.5 -92.05 -16.3 -92.55 -23.1 -95.05 -29.95 -97.55 -31.35 -89.75 -32.8 -81.95 -31.4 -79.8 -30.6 -78.6 -27.3 -76.25 -25.3 -74.85 -20.95 -73.35 -16.65 -71.85 -14.4 -71.75 -12.15 -71.7 -10.15 -68.4 -8.2 -65.15 -0.55 -64.95 7.05 -64.8 8.5 -66.85 9.9 -68.9 4.45 -69.5 0.35 -69.9 2.55 -71.15 3.85 -71.95 7.95 -73.55 10.1 -74.6 9.75 -76.7 M18.5 -70.35 Q18.2 -70.65 17.75 -70.6 17.3 -70.65 17.0 -70.35 16.7 -70.1 16.7 -69.7 16.7 -69.3 17.0 -69.0 17.3 -68.75 17.75 -68.75 18.2 -68.75 18.5 -69.0 L18.8 -69.7 18.5 -70.35 M9.7 -80.65 Q9.7 -80.2 10.0 -79.95 10.35 -79.65 10.85 -79.65 11.35 -79.65 11.65 -79.95 12.0 -80.2 12.0 -80.65 12.0 -81.15 11.65 -81.45 L10.85 -81.7 10.0 -81.45 Q9.7 -81.15 9.7 -80.65 M17.75 -37.6 Q18.3 -37.25 19.0 -37.2 19.8 -37.25 20.35 -37.7 L20.45 -37.75 Q21.05 -38.3 21.05 -39.05 L20.95 -39.7 20.45 -40.35 Q19.85 -40.9 19.0 -40.9 L18.9 -40.9 Q18.1 -40.9 17.55 -40.35 L17.05 -39.6 17.0 -39.6 17.0 -39.65 16.15 -42.25 15.55 -44.0 10.2 -44.2 10.0 -44.15 5.55 -43.95 2.7 -44.1 Q2.15 -44.05 1.8 -43.7 L1.5 -44.05 Q1.0 -44.55 0.25 -44.5 -0.5 -44.55 -1.05 -44.05 -1.5 -43.65 -1.55 -43.05 L-1.55 -42.9 Q-1.55 -42.2 -1.05 -41.75 -0.5 -41.3 0.25 -41.25 L1.0 -41.4 1.0 -39.65 Q1.35 -34.25 -1.3 -29.8 -2.4 -28.0 -3.15 -28.5 -4.0 -29.0 -4.0 -32.45 -4.05 -41.2 -4.25 -42.7 L-4.25 -42.75 Q-4.6 -45.3 -5.95 -42.4 L-6.0 -42.35 Q-8.3 -37.5 -10.9 -33.45 -14.1 -28.55 -13.0 -33.35 -12.2 -36.8 -12.85 -39.8 -12.3 -39.85 -11.85 -40.3 L-11.45 -40.75 Q-11.3 -41.05 -11.3 -41.35 -11.3 -42.0 -11.85 -42.5 L-12.05 -42.65 -13.05 -42.95 -13.9 -42.75 -14.0 -42.9 Q-14.9 -44.65 -16.0 -45.05 -17.15 -45.55 -18.0 -44.15 -20.0 -40.95 -23.1 -38.15 L-23.6 -37.7 -24.05 -37.75 Q-24.75 -37.8 -25.3 -37.3 L-25.4 -37.2 -25.0 -38.75 -23.7 -42.05 -23.4 -42.05 Q-22.9 -42.05 -22.6 -42.35 -22.25 -42.65 -22.25 -43.05 -22.25 -43.55 -22.6 -43.85 L-22.9 -44.05 -22.7 -44.6 Q-22.4 -46.55 -26.0 -45.95 -36.4 -32.85 -38.15 -27.5 L-39.05 -27.0 Q-39.8 -26.3 -39.8 -25.3 -39.8 -24.3 -39.05 -23.6 -38.25 -22.9 -37.15 -22.9 L-36.55 -22.95 -33.0 -19.65 -32.45 -19.3 Q-31.45 -18.7 -30.6 -18.6 -29.1 -18.45 -28.0 -19.85 L-20.85 -31.95 Q-16.3 -39.55 -18.0 -32.45 -20.65 -21.4 -20.7 -20.0 -20.85 -16.45 -17.0 -16.25 L-6.75 -14.3 Q-1.75 -13.6 -1.05 -16.1 -0.6 -16.2 -0.25 -16.55 0.3 -17.0 0.3 -17.7 0.3 -18.35 -0.25 -18.85 -0.55 -19.15 -0.95 -19.25 -0.7 -21.85 0.65 -22.65 2.45 -23.75 3.0 -19.85 3.55 -16.05 5.2 -14.5 6.85 -12.95 7.0 -16.25 L6.25 -23.25 Q5.8 -27.0 6.6 -29.6 7.45 -29.15 8.5 -29.1 9.95 -29.15 11.0 -30.05 L11.5 -30.6 12.0 -27.95 Q13.35 -20.55 17.4 -18.15 L18.6 -17.6 19.35 -17.5 19.55 -17.5 20.3 -17.65 Q21.65 -18.15 22.0 -19.85 22.6 -22.75 20.45 -29.75 L17.75 -37.6 M34.15 -28.35 Q33.25 -28.35 32.65 -27.8 L32.6 -27.75 Q31.95 -27.2 31.95 -26.35 31.95 -25.55 32.6 -24.95 33.25 -24.4 34.15 -24.4 L34.55 -24.4 Q35.2 -24.5 35.7 -24.95 36.35 -25.55 36.35 -26.35 36.35 -27.2 35.7 -27.75 35.05 -28.35 34.15 -28.35 M17.6 -49.0 Q21.8 -49.5 26.5 -50.55 39.5 -33.6 39.8 -24.8 41.65 -21.15 36.85 -18.55 L35.0 -17.7 Q33.2 -17.0 30.8 -16.35 17.95 -13.1 1.55 -12.1 -14.8 -11.15 -28.3 -15.15 L-31.2 -16.1 -33.05 -16.85 Q-41.4 -20.35 -42.75 -25.65 -38.15 -36.6 -26.9 -50.5 L-25.9 -49.95 -25.95 -49.45 -25.7 -48.85 -25.05 -48.5 -21.85 -48.15 Q-16.05 -46.45 -2.6 -46.65 7.4 -46.85 17.6 -49.0 M-20.55 -71.55 L-21.15 -71.8 -21.8 -71.55 -22.05 -71.0 -21.8 -70.45 -21.15 -70.15 Q-20.8 -70.2 -20.55 -70.45 L-20.25 -71.0 -20.55 -71.55 M-10.7 -66.3 Q-10.7 -67.2 -11.4 -67.8 -12.05 -68.4 -13.0 -68.35 -13.95 -68.4 -14.65 -67.8 -15.3 -67.2 -15.3 -66.3 -15.3 -65.45 -14.65 -64.85 -13.95 -64.25 -13.0 -64.25 -12.05 -64.25 -11.4 -64.85 -10.7 -65.45 -10.7 -66.3 M-25.75 -21.05 L-26.05 -20.45 -25.75 -19.8 Q-25.45 -19.55 -25.05 -19.55 L-24.35 -19.8 Q-24.05 -20.1 -24.05 -20.45 -24.05 -20.8 -24.35 -21.05 -24.65 -21.35 -25.05 -21.35 L-25.75 -21.05" fill="#2b8059" fill-rule="evenodd" stroke="none"/>
    <path d="M21.0 -81.45 Q20.45 -81.95 20.45 -82.7 20.45 -83.4 21.0 -83.9 21.55 -84.4 22.35 -84.4 L23.7 -83.9 Q24.25 -83.4 24.25 -82.7 24.25 -81.95 23.7 -81.45 23.15 -81.0 22.35 -81.0 21.55 -81.0 21.0 -81.45 M13.7 -90.65 Q13.7 -91.2 14.15 -91.6 14.6 -92.05 15.2 -92.0 15.8 -92.05 16.25 -91.6 L16.7 -90.65 16.25 -89.7 Q15.8 -89.3 15.2 -89.3 14.6 -89.3 14.15 -89.7 13.7 -90.15 13.7 -90.65 M3.4 -88.05 Q4.3 -87.25 4.3 -86.1 4.3 -85.0 3.4 -84.2 2.5 -83.4 1.25 -83.35 0.0 -83.4 -0.9 -84.2 -1.8 -85.0 -1.8 -86.1 -1.8 -87.25 -0.9 -88.05 0.0 -88.85 1.25 -88.85 2.5 -88.85 3.4 -88.05 M9.7 -80.65 Q9.7 -81.15 10.0 -81.45 L10.85 -81.7 11.65 -81.45 Q12.0 -81.15 12.0 -80.65 12.0 -80.2 11.65 -79.95 11.35 -79.65 10.85 -79.65 10.35 -79.65 10.0 -79.95 9.7 -80.2 9.7 -80.65 M18.5 -70.35 L18.8 -69.7 18.5 -69.0 Q18.2 -68.75 17.75 -68.75 17.3 -68.75 17.0 -69.0 16.7 -69.3 16.7 -69.7 16.7 -70.1 17.0 -70.35 17.3 -70.65 17.75 -70.6 18.2 -70.65 18.5 -70.35 M4.9 -68.65 L5.75 -68.35 6.1 -67.55 Q6.1 -67.1 5.75 -66.8 5.4 -66.5 4.9 -66.5 4.4 -66.5 4.05 -66.8 3.7 -67.1 3.7 -67.55 3.7 -68.05 4.05 -68.35 4.4 -68.65 4.9 -68.65 M17.05 -39.6 L17.55 -40.35 Q18.1 -40.9 18.9 -40.9 L19.0 -40.9 Q19.85 -40.9 20.45 -40.35 L20.95 -39.7 21.05 -39.05 Q21.05 -38.3 20.45 -37.75 L20.35 -37.7 Q19.8 -37.25 19.0 -37.2 18.3 -37.25 17.75 -37.6 L17.55 -37.75 Q16.95 -38.3 16.95 -39.05 L17.05 -39.6 M19.55 -17.5 L19.35 -17.5 18.6 -17.6 17.8 -18.1 Q17.2 -18.65 17.2 -19.45 17.2 -20.25 17.8 -20.85 18.45 -21.4 19.35 -21.35 20.25 -21.4 20.85 -20.85 21.5 -20.25 21.5 -19.45 21.5 -18.65 20.85 -18.1 20.3 -17.55 19.55 -17.5 M11.5 -30.6 L11.0 -30.05 Q9.95 -29.15 8.5 -29.1 7.45 -29.15 6.6 -29.6 L6.0 -30.05 Q4.95 -31.0 4.95 -32.3 4.95 -33.65 6.0 -34.55 7.05 -35.5 8.5 -35.5 9.95 -35.5 11.0 -34.55 12.05 -33.65 12.05 -32.3 12.05 -31.35 11.5 -30.6 M-0.95 -19.25 Q-0.55 -19.15 -0.25 -18.85 0.3 -18.35 0.3 -17.7 0.3 -17.0 -0.25 -16.55 -0.6 -16.2 -1.05 -16.1 L-1.5 -16.05 Q-2.25 -16.1 -2.8 -16.55 -3.3 -17.0 -3.3 -17.7 -3.3 -18.35 -2.8 -18.85 -2.25 -19.3 -1.5 -19.3 L-0.95 -19.25 M-36.55 -22.95 L-37.15 -22.9 Q-38.25 -22.9 -39.05 -23.6 -39.8 -24.3 -39.8 -25.3 -39.8 -26.3 -39.05 -27.0 L-38.15 -27.5 -37.15 -27.65 Q-36.05 -27.7 -35.3 -27.0 -34.5 -26.3 -34.5 -25.3 -34.5 -24.3 -35.3 -23.6 -35.85 -23.1 -36.55 -22.95 M-22.9 -44.05 L-22.6 -43.85 Q-22.25 -43.55 -22.25 -43.05 -22.25 -42.65 -22.6 -42.35 -22.9 -42.05 -23.4 -42.05 L-23.7 -42.05 -24.25 -42.35 -24.55 -43.05 -24.25 -43.85 -23.4 -44.1 -22.9 -44.05 M-25.4 -37.2 L-25.3 -37.3 Q-24.75 -37.8 -24.05 -37.75 L-23.6 -37.7 Q-23.2 -37.65 -22.85 -37.3 -22.3 -36.85 -22.3 -36.2 L-22.3 -36.0 Q-22.4 -35.5 -22.85 -35.1 -23.2 -34.8 -23.65 -34.65 L-24.05 -34.6 Q-24.75 -34.65 -25.3 -35.1 -25.8 -35.55 -25.8 -36.2 -25.8 -36.75 -25.4 -37.2 M-13.9 -42.75 L-13.05 -42.95 -12.05 -42.65 -11.85 -42.5 Q-11.3 -42.0 -11.3 -41.35 -11.3 -41.05 -11.45 -40.75 L-11.85 -40.3 Q-12.3 -39.85 -12.85 -39.8 L-13.05 -39.8 -13.5 -39.85 Q-13.95 -39.95 -14.3 -40.3 -14.8 -40.75 -14.8 -41.35 L-14.8 -41.4 Q-14.8 -42.05 -14.3 -42.5 L-13.9 -42.75 M1.0 -41.4 L0.25 -41.25 Q-0.5 -41.3 -1.05 -41.75 -1.55 -42.2 -1.55 -42.9 L-1.55 -43.05 Q-1.5 -43.65 -1.05 -44.05 -0.5 -44.55 0.25 -44.5 1.0 -44.55 1.5 -44.05 L1.8 -43.7 2.05 -43.15 2.05 -42.9 Q2.05 -42.2 1.5 -41.75 L1.0 -41.4 M34.15 -28.35 Q35.05 -28.35 35.7 -27.75 36.35 -27.2 36.35 -26.35 36.35 -25.55 35.7 -24.95 35.2 -24.5 34.55 -24.4 L34.15 -24.4 Q33.25 -24.4 32.6 -24.95 31.95 -25.55 31.95 -26.35 31.95 -27.2 32.6 -27.75 L32.65 -27.8 Q33.25 -28.35 34.15 -28.35 M-13.35 -88.0 L-14.05 -87.75 Q-14.45 -87.75 -14.75 -88.0 L-15.05 -88.65 -14.75 -89.25 Q-14.45 -89.55 -14.05 -89.55 L-13.35 -89.25 Q-13.05 -89.0 -13.05 -88.65 -13.05 -88.3 -13.35 -88.0 M-17.0 -80.25 Q-17.45 -79.85 -18.05 -79.85 -18.65 -79.85 -19.1 -80.25 -19.55 -80.7 -19.55 -81.2 -19.55 -81.75 -19.1 -82.15 L-18.05 -82.55 Q-17.45 -82.55 -17.0 -82.15 -16.55 -81.75 -16.55 -81.2 -16.55 -80.7 -17.0 -80.25 M-5.8 -76.25 Q-5.25 -76.75 -4.5 -76.7 -3.75 -76.75 -3.25 -76.25 -2.7 -75.8 -2.7 -75.1 -2.7 -74.45 -3.25 -73.95 -3.75 -73.5 -4.5 -73.45 -5.25 -73.5 -5.8 -73.95 -6.3 -74.45 -6.3 -75.1 -6.3 -75.8 -5.8 -76.25 M-24.05 -91.9 Q-23.45 -91.4 -23.45 -90.6 -23.45 -89.85 -24.05 -89.3 -24.65 -88.8 -25.5 -88.75 -26.35 -88.8 -26.95 -89.3 -27.55 -89.85 -27.55 -90.6 -27.55 -91.4 -26.95 -91.9 -26.35 -92.45 -25.5 -92.45 -24.65 -92.45 -24.05 -91.9 M-25.3 -80.55 Q-25.3 -80.0 -25.75 -79.6 -26.2 -79.2 -26.8 -79.2 -27.4 -79.2 -27.85 -79.6 -28.3 -80.0 -28.3 -80.55 L-27.85 -81.45 Q-27.4 -81.9 -26.8 -81.9 -26.2 -81.9 -25.75 -81.45 -25.3 -81.1 -25.3 -80.55 M-20.55 -71.55 L-20.25 -71.0 -20.55 -70.45 Q-20.8 -70.2 -21.15 -70.15 L-21.8 -70.45 -22.05 -71.0 -21.8 -71.55 -21.15 -71.8 -20.55 -71.55 M-10.7 -66.3 Q-10.7 -65.45 -11.4 -64.85 -12.05 -64.25 -13.0 -64.25 -13.95 -64.25 -14.65 -64.85 -15.3 -65.45 -15.3 -66.3 -15.3 -67.2 -14.65 -67.8 -13.95 -68.4 -13.0 -68.35 -12.05 -68.4 -11.4 -67.8 -10.7 -67.2 -10.7 -66.3 M-13.35 -26.3 Q-12.25 -25.3 -12.25 -23.95 -12.25 -22.6 -13.35 -21.65 -14.4 -20.65 -15.9 -20.65 -17.4 -20.65 -18.5 -21.65 -19.55 -22.6 -19.55 -23.95 -19.55 -25.3 -18.5 -26.3 -17.4 -27.25 -15.9 -27.2 -14.4 -27.25 -13.35 -26.3 M-32.6 -32.65 Q-32.9 -32.35 -33.4 -32.35 -33.9 -32.35 -34.25 -32.65 L-34.55 -33.4 -34.25 -34.15 -33.4 -34.45 -32.6 -34.15 Q-32.25 -33.85 -32.25 -33.4 -32.25 -32.95 -32.6 -32.65 M-25.75 -21.05 L-25.05 -21.35 Q-24.65 -21.35 -24.35 -21.05 -24.05 -20.8 -24.05 -20.45 -24.05 -20.1 -24.35 -19.8 L-25.05 -19.55 Q-25.45 -19.55 -25.75 -19.8 L-26.05 -20.45 -25.75 -21.05" fill="#324337" fill-rule="evenodd" stroke="none"/>
    <path d="M3.4 -88.05 Q2.5 -88.85 1.25 -88.85 0.0 -88.85 -0.9 -88.05 -1.8 -87.25 -1.8 -86.1 -1.8 -85.0 -0.9 -84.2 0.0 -83.4 1.25 -83.35 2.5 -83.4 3.4 -84.2 4.3 -85.0 4.3 -86.1 4.3 -87.25 3.4 -88.05 M9.75 -76.7 Q10.1 -74.6 7.95 -73.55 3.85 -71.95 2.55 -71.15 0.35 -69.9 4.45 -69.5 9.9 -68.9 8.5 -66.85 7.05 -64.8 -0.55 -64.95 -8.2 -65.15 -10.15 -68.4 -12.15 -71.7 -14.4 -71.75 -16.65 -71.85 -20.95 -73.35 -25.3 -74.85 -27.3 -76.25 -30.6 -78.6 -31.4 -79.8 -32.8 -81.95 -31.35 -89.75 -29.95 -97.55 -23.1 -95.05 -16.3 -92.55 -6.5 -92.05 3.25 -91.6 5.7 -90.7 9.8 -89.3 9.95 -83.9 10.05 -82.95 -1.9 -82.1 -9.9 -82.4 2.0 -80.05 9.4 -78.8 9.75 -76.7 M4.9 -68.65 Q4.4 -68.65 4.05 -68.35 3.7 -68.05 3.7 -67.55 3.7 -67.1 4.05 -66.8 4.4 -66.5 4.9 -66.5 5.4 -66.5 5.75 -66.8 6.1 -67.1 6.1 -67.55 L5.75 -68.35 4.9 -68.65 M17.75 -37.6 L20.45 -29.75 Q22.6 -22.75 22.0 -19.85 21.65 -18.15 20.3 -17.65 L19.55 -17.5 Q20.3 -17.55 20.85 -18.1 21.5 -18.65 21.5 -19.45 21.5 -20.25 20.85 -20.85 20.25 -21.4 19.35 -21.35 18.45 -21.4 17.8 -20.85 17.2 -20.25 17.2 -19.45 17.2 -18.65 17.8 -18.1 L18.6 -17.6 17.4 -18.15 Q13.35 -20.55 12.0 -27.95 L11.5 -30.6 Q12.05 -31.35 12.05 -32.3 12.05 -33.65 11.0 -34.55 9.95 -35.5 8.5 -35.5 7.05 -35.5 6.0 -34.55 4.95 -33.65 4.95 -32.3 4.95 -31.0 6.0 -30.05 L6.6 -29.6 Q5.8 -27.0 6.25 -23.25 L7.0 -16.25 Q6.85 -12.95 5.2 -14.5 3.55 -16.05 3.0 -19.85 2.45 -23.75 0.65 -22.65 -0.7 -21.85 -0.95 -19.25 L-1.5 -19.3 Q-2.25 -19.3 -2.8 -18.85 -3.3 -18.35 -3.3 -17.7 -3.3 -17.0 -2.8 -16.55 -2.25 -16.1 -1.5 -16.05 L-1.05 -16.1 Q-1.75 -13.6 -6.75 -14.3 L-17.0 -16.25 Q-20.85 -16.45 -20.7 -20.0 -20.65 -21.4 -18.0 -32.45 -16.3 -39.55 -20.85 -31.95 L-28.0 -19.85 Q-29.1 -18.45 -30.6 -18.6 -31.45 -18.7 -32.45 -19.3 L-33.0 -19.65 -36.55 -22.95 Q-35.85 -23.1 -35.3 -23.6 -34.5 -24.3 -34.5 -25.3 -34.5 -26.3 -35.3 -27.0 -36.05 -27.7 -37.15 -27.65 L-38.15 -27.5 Q-36.4 -32.85 -26.0 -45.95 -22.4 -46.55 -22.7 -44.6 L-22.9 -44.05 -23.4 -44.1 -24.25 -43.85 -24.55 -43.05 -24.25 -42.35 -23.7 -42.05 -25.0 -38.75 -25.4 -37.2 Q-25.8 -36.75 -25.8 -36.2 -25.8 -35.55 -25.3 -35.1 -24.75 -34.65 -24.05 -34.6 L-23.65 -34.65 Q-23.2 -34.8 -22.85 -35.1 -22.4 -35.5 -22.3 -36.0 L-22.3 -36.2 Q-22.3 -36.85 -22.85 -37.3 -23.2 -37.65 -23.6 -37.7 L-23.1 -38.15 Q-20.0 -40.95 -18.0 -44.15 -17.15 -45.55 -16.0 -45.05 -14.9 -44.65 -14.0 -42.9 L-13.9 -42.75 -14.3 -42.5 Q-14.8 -42.05 -14.8 -41.4 L-14.8 -41.35 Q-14.8 -40.75 -14.3 -40.3 -13.95 -39.95 -13.5 -39.85 L-13.05 -39.8 -12.85 -39.8 Q-12.2 -36.8 -13.0 -33.35 -14.1 -28.55 -10.9 -33.45 -8.3 -37.5 -6.0 -42.35 L-5.95 -42.4 Q-4.6 -45.3 -4.25 -42.75 L-4.25 -42.7 Q-4.05 -41.2 -4.0 -32.45 -4.0 -29.0 -3.15 -28.5 -2.4 -28.0 -1.3 -29.8 1.35 -34.25 1.0 -39.65 L1.0 -41.4 1.5 -41.75 Q2.05 -42.2 2.05 -42.9 L2.05 -43.15 1.8 -43.7 Q2.15 -44.05 2.7 -44.1 L5.55 -43.95 10.0 -44.15 10.2 -44.2 15.55 -44.0 16.15 -42.25 17.0 -39.65 17.0 -39.6 17.05 -39.6 16.95 -39.05 Q16.95 -38.3 17.55 -37.75 L17.75 -37.6 M-25.3 -80.55 Q-25.3 -81.1 -25.75 -81.45 -26.2 -81.9 -26.8 -81.9 -27.4 -81.9 -27.85 -81.45 L-28.3 -80.55 Q-28.3 -80.0 -27.85 -79.6 -27.4 -79.2 -26.8 -79.2 -26.2 -79.2 -25.75 -79.6 -25.3 -80.0 -25.3 -80.55 M-24.05 -91.9 Q-24.65 -92.45 -25.5 -92.45 -26.35 -92.45 -26.95 -91.9 -27.55 -91.4 -27.55 -90.6 -27.55 -89.85 -26.95 -89.3 -26.35 -88.8 -25.5 -88.75 -24.65 -88.8 -24.05 -89.3 -23.45 -89.85 -23.45 -90.6 -23.45 -91.4 -24.05 -91.9 M-5.8 -76.25 Q-6.3 -75.8 -6.3 -75.1 -6.3 -74.45 -5.8 -73.95 -5.25 -73.5 -4.5 -73.45 -3.75 -73.5 -3.25 -73.95 -2.7 -74.45 -2.7 -75.1 -2.7 -75.8 -3.25 -76.25 -3.75 -76.75 -4.5 -76.7 -5.25 -76.75 -5.8 -76.25 M-17.0 -80.25 Q-16.55 -80.7 -16.55 -81.2 -16.55 -81.75 -17.0 -82.15 -17.45 -82.55 -18.05 -82.55 L-19.1 -82.15 Q-19.55 -81.75 -19.55 -81.2 -19.55 -80.7 -19.1 -80.25 -18.65 -79.85 -18.05 -79.85 -17.45 -79.85 -17.0 -80.25 M-13.35 -88.0 Q-13.05 -88.3 -13.05 -88.65 -13.05 -89.0 -13.35 -89.25 L-14.05 -89.55 Q-14.45 -89.55 -14.75 -89.25 L-15.05 -88.65 -14.75 -88.0 Q-14.45 -87.75 -14.05 -87.75 L-13.35 -88.0 M-13.35 -26.3 Q-14.4 -27.25 -15.9 -27.2 -17.4 -27.25 -18.5 -26.3 -19.55 -25.3 -19.55 -23.95 -19.55 -22.6 -18.5 -21.65 -17.4 -20.65 -15.9 -20.65 -14.4 -20.65 -13.35 -21.65 -12.25 -22.6 -12.25 -23.95 -12.25 -25.3 -13.35 -26.3 M-32.6 -32.65 Q-32.25 -32.95 -32.25 -33.4 -32.25 -33.85 -32.6 -34.15 L-33.4 -34.45 -34.25 -34.15 -34.55 -33.4 -34.25 -32.65 Q-33.9 -32.35 -33.4 -32.35 -32.9 -32.35 -32.6 -32.65" fill="#36a06f" fill-rule="evenodd" stroke="none"/>
    <path d="M1.95 -54.4 Q4.65 -54.45 3.45 -53.2 2.2 -52.0 -4.1 -51.95 -10.45 -51.9 -5.95 -52.85 -1.5 -53.8 -10.3 -54.65 -15.05 -55.1 -2.05 -56.9 3.95 -57.15 1.95 -56.2 -2.05 -54.4 1.95 -54.4" fill="#484848" fill-rule="evenodd" stroke="none"/>
    <path d="M23.1 -66.6 Q24.1 -66.2 23.1 -63.8 21.0 -63.0 14.75 -61.9 6.8 -60.55 -2.4 -60.7 -8.75 -60.8 -15.05 -58.85 L-14.95 -60.5 -15.15 -61.1 -15.8 -61.45 -23.75 -62.35 -24.25 -62.6 -24.3 -62.65 -24.65 -62.75 -24.1 -66.45 Q-17.9 -62.25 3.6 -62.65 15.45 -63.4 23.1 -66.6 M-21.85 -48.15 L-16.8 -47.6 -16.3 -47.7 -15.85 -48.0 Q-15.7 -48.25 -15.7 -48.45 L-15.6 -50.2 Q-9.65 -48.25 -2.45 -48.1 L15.05 -48.7 15.1 -48.7 17.6 -49.0 Q7.4 -46.85 -2.6 -46.65 -16.05 -46.45 -21.85 -48.15 M-26.9 -50.5 L-26.7 -50.75 Q-26.35 -50.55 -25.85 -50.45 L-25.9 -49.95 -26.9 -50.5" fill="#236949" fill-rule="evenodd" stroke="none"/>
    <path d="M-22.8 -59.15 L-23.2 -51.45 -23.05 -51.15 -22.75 -51.0 -21.3 -50.8 -19.1 -50.5 -18.6 -50.4 -18.35 -50.45 -18.2 -50.5 -18.1 -50.6 -18.05 -50.85 -17.7 -58.55 -17.8 -58.85 -18.1 -59.0 -22.2 -59.6 -22.5 -59.55 -22.7 -59.4 -22.8 -59.15 M-23.95 -61.15 L-16.25 -60.45 -17.65 -49.55 -23.9 -50.2 -23.95 -61.15" fill="#3b3b3b" fill-rule="evenodd" stroke="none"/>
  </g>
</svg>
