<?xml version="1.0" encoding="UTF-8" standalone="no"?>
<svg xmlns:ffdec="https://www.free-decompiler.com/flash" xmlns:xlink="http://www.w3.org/1999/xlink" ffdec:objectType="shape" height="13.75px" width="27.55px" xmlns="http://www.w3.org/2000/svg">
  <g transform="matrix(1.0, 0.0, 0.0, 1.0, 14.55, 5.9)">
    <path d="M6.5 -5.9 Q9.15 -5.9 11.1 -3.9 12.95 -1.9 13.0 0.9 L13.0 0.95 Q13.0 3.8 11.1 5.8 9.15 7.85 6.5 7.85 3.8 7.85 1.9 5.8 0.0 3.8 0.0 0.95 L0.0 0.9 Q0.0 -1.9 1.9 -3.9 3.8 -5.9 6.5 -5.9 M9.0 -0.9 Q7.8 -2.05 6.15 -2.05 5.0 -2.05 4.1 -1.55 L3.2 -0.9 2.4 0.2 Q2.0 0.9 2.0 1.8 2.0 3.4 3.2 4.55 4.45 5.7 6.15 5.7 7.8 5.7 9.0 4.55 10.25 3.4 10.25 1.8 10.25 0.2 9.0 -0.9 M-8.0 -5.75 Q-5.35 -5.75 -3.45 -3.8 -1.55 -1.85 -1.5 0.85 L-1.5 0.9 Q-1.55 3.65 -3.45 5.6 -5.35 7.55 -8.0 7.55 -10.7 7.55 -12.65 5.6 -14.55 3.65 -14.55 0.9 L-14.55 0.85 Q-14.55 -1.85 -12.65 -3.8 -10.7 -5.75 -8.0 -5.75 M-5.05 0.0 Q-6.1 -1.0 -7.55 -1.0 L-9.35 -0.55 -10.1 0.0 -10.85 0.95 -11.15 2.35 Q-11.15 3.75 -10.1 4.75 -9.05 5.7 -7.55 5.7 -6.1 5.7 -5.05 4.75 -4.0 3.75 -4.0 2.35 -4.0 0.95 -5.05 0.0" fill="#dbae82" fill-rule="evenodd" stroke="none"/>
    <path d="M9.0 -0.9 Q10.25 0.2 10.25 1.8 10.25 3.4 9.0 4.55 7.8 5.7 6.15 5.7 4.45 5.7 3.2 4.55 2.0 3.4 2.0 1.8 2.0 0.9 2.4 0.2 L3.2 -0.9 4.1 -1.55 Q5.0 -2.05 6.15 -2.05 7.8 -2.05 9.0 -0.9 M-5.05 0.0 Q-4.0 0.95 -4.0 2.35 -4.0 3.75 -5.05 4.75 -6.1 5.7 -7.55 5.7 -9.05 5.7 -10.1 4.75 -11.15 3.75 -11.15 2.35 L-10.85 0.95 -10.1 0.0 -9.35 -0.55 -7.55 -1.0 Q-6.1 -1.0 -5.05 0.0" fill="#ce9255" fill-rule="evenodd" stroke="none"/>
    <path d="M9.0 -0.9 Q10.25 0.2 10.25 1.8 10.25 3.4 9.0 4.55 7.8 5.7 6.15 5.7 4.45 5.7 3.2 4.55 2.0 3.4 2.0 1.8 2.0 0.9 2.4 0.2 L3.2 -0.9 4.1 -1.55 Q5.0 -2.05 6.15 -2.05 7.8 -2.05 9.0 -0.9 M-5.05 0.0 Q-4.0 0.95 -4.0 2.35 -4.0 3.75 -5.05 4.75 -6.1 5.7 -7.55 5.7 -9.05 5.7 -10.1 4.75 -11.15 3.75 -11.15 2.35 L-10.85 0.95 -10.1 0.0 -9.35 -0.55 -7.55 -1.0 Q-6.1 -1.0 -5.05 0.0 Z" fill="none" stroke="#000000" stroke-linecap="round" stroke-linejoin="round" stroke-width="3.5"/>
  </g>
</svg>
