<?xml version="1.0" encoding="UTF-8" standalone="no"?>
<svg xmlns:ffdec="https://www.free-decompiler.com/flash" xmlns:xlink="http://www.w3.org/1999/xlink" ffdec:objectType="shape" height="10.65px" width="27.55px" xmlns="http://www.w3.org/2000/svg">
  <g transform="matrix(1.0, 0.0, 0.0, 1.0, 14.55, 5.9)">
    <path d="M6.5 -5.9 Q9.15 -5.9 11.1 -4.4 12.95 -2.9 13.0 -0.75 L13.0 -0.7 Q13.0 1.45 11.1 3.0 9.15 4.55 6.5 4.55 3.8 4.55 1.9 3.0 0.0 1.45 0.0 -0.7 L0.0 -0.75 Q0.0 -2.9 1.9 -4.4 3.8 -5.9 6.5 -5.9 M1.75 1.9 L11.25 1.2 1.75 1.9 M-1.5 -0.55 L-1.5 -0.5 Q-1.55 1.65 -3.45 3.2 -5.35 4.7 -8.0 4.75 -10.7 4.7 -12.65 3.2 -14.55 1.65 -14.55 -0.5 L-14.55 -0.55 Q-14.55 -2.7 -12.65 -4.2 -10.7 -5.7 -8.0 -5.7 -5.35 -5.7 -3.45 -4.2 -1.55 -2.7 -1.5 -0.55 M-11.25 2.3 L-3.95 2.1 -11.25 2.3" fill="#dbae82" fill-rule="evenodd" stroke="none"/>
    <path d="M11.25 1.2 L1.75 1.9 M-3.95 2.1 L-11.25 2.3" fill="none" stroke="#333333" stroke-linecap="round" stroke-linejoin="round" stroke-width="2.0"/>
  </g>
</svg>
