<?xml version="1.0" encoding="UTF-8" standalone="no"?>
<svg xmlns:ffdec="https://www.free-decompiler.com/flash" xmlns:xlink="http://www.w3.org/1999/xlink" ffdec:objectType="shape" height="19.9px" width="30.7px" xmlns="http://www.w3.org/2000/svg">
  <g transform="matrix(1.0, 0.0, 0.0, 1.0, 16.1, 10.55)">
    <path d="M2.15 -7.65 Q4.3 -10.55 7.3 -10.55 10.3 -10.55 12.45 -7.65 14.55 -4.8 14.6 -0.8 L14.6 -0.7 Q14.55 3.35 12.45 6.25 10.3 9.1 7.3 9.1 4.3 9.1 2.15 6.25 0.0 3.35 0.05 -0.7 L0.05 -0.8 Q0.05 -4.8 2.15 -7.65 M3.0 -5.15 Q2.35 -4.25 2.05 -3.1 1.6 -1.75 1.6 -0.1 1.6 2.85 3.0 4.95 4.4 7.0 6.35 7.0 8.3 7.0 9.7 4.95 11.1 2.85 11.1 -0.1 11.1 -3.1 9.7 -5.15 8.3 -7.25 6.35 -7.25 5.05 -7.25 4.0 -6.3 L3.0 -5.15 M-16.1 -0.55 Q-16.05 -4.55 -13.95 -7.4 -11.8 -10.3 -8.8 -10.3 -5.8 -10.3 -3.65 -7.4 -1.55 -4.55 -1.5 -0.55 L-1.5 -0.45 Q-1.55 3.6 -3.65 6.45 -5.8 9.35 -8.8 9.35 -11.8 9.35 -13.95 6.45 -16.1 3.6 -16.1 -0.45 L-16.1 -0.55 M-11.5 -3.5 L-12.35 -1.75 Q-12.7 -0.55 -12.7 0.9 -12.7 3.45 -11.5 5.25 -10.3 7.05 -8.55 7.05 -6.9 7.05 -5.7 5.25 -4.45 3.45 -4.45 0.9 -4.45 -1.7 -5.7 -3.5 -6.9 -5.3 -8.55 -5.3 -9.7 -5.3 -10.65 -4.5 L-11.5 -3.5" fill="#dbae82" fill-rule="evenodd" stroke="none"/>
    <path d="M3.0 -5.15 L4.0 -6.3 Q5.05 -7.25 6.35 -7.25 8.3 -7.25 9.7 -5.15 11.1 -3.1 11.1 -0.1 11.1 2.85 9.7 4.95 8.3 7.0 6.35 7.0 4.4 7.0 3.0 4.95 1.6 2.85 1.6 -0.1 1.6 -1.75 2.05 -3.1 2.35 -4.25 3.0 -5.15 M-11.5 -3.5 L-10.65 -4.5 Q-9.7 -5.3 -8.55 -5.3 -6.9 -5.3 -5.7 -3.5 -4.45 -1.7 -4.45 0.9 -4.45 3.45 -5.7 5.25 -6.9 7.05 -8.55 7.05 -10.3 7.05 -11.5 5.25 -12.7 3.45 -12.7 0.9 -12.7 -0.55 -12.35 -1.75 L-11.5 -3.5" fill="#ce9255" fill-rule="evenodd" stroke="none"/>
    <path d="M3.0 -5.15 L4.0 -6.3 Q5.05 -7.25 6.35 -7.25 8.3 -7.25 9.7 -5.15 11.1 -3.1 11.1 -0.1 11.1 2.85 9.7 4.95 8.3 7.0 6.35 7.0 4.4 7.0 3.0 4.95 1.6 2.85 1.6 -0.1 1.6 -1.75 2.05 -3.1 2.35 -4.25 3.0 -5.15 M-11.5 -3.5 L-10.65 -4.5 Q-9.7 -5.3 -8.55 -5.3 -6.9 -5.3 -5.7 -3.5 -4.45 -1.7 -4.45 0.9 -4.45 3.45 -5.7 5.25 -6.9 7.05 -8.55 7.05 -10.3 7.05 -11.5 5.25 -12.7 3.45 -12.7 0.9 -12.7 -0.55 -12.35 -1.75 L-11.5 -3.5 Z" fill="none" stroke="#000000" stroke-linecap="round" stroke-linejoin="round" stroke-width="3.5"/>
  </g>
</svg>
