<?xml version="1.0" encoding="UTF-8" standalone="no"?>
<svg xmlns:ffdec="https://www.free-decompiler.com/flash" xmlns:xlink="http://www.w3.org/1999/xlink" ffdec:objectType="shape" height="18.15px" width="29.0px" xmlns="http://www.w3.org/2000/svg">
  <g transform="matrix(1.0, 0.0, 0.0, 1.0, 15.65, 8.75)">
    <path d="M6.8 -8.75 Q9.45 -8.75 10.25 -6.15 11.05 -3.55 12.4 -1.4 13.65 0.7 13.25 2.7 12.8 4.65 11.4 6.9 9.95 9.15 7.05 9.15 4.15 9.15 2.1 6.5 0.0 3.9 0.0 0.2 L0.0 0.1 Q0.05 -3.55 2.1 -6.15 4.15 -8.75 6.8 -8.75 M3.5 -4.05 Q1.7 -1.25 2.1 2.15 2.35 4.35 3.95 6.05 5.15 7.35 6.95 6.95 8.3 6.6 9.1 5.5 10.4 3.65 9.65 1.5 L8.75 -0.3 8.0 -1.25 Q6.1 -3.4 3.7 -4.55 L3.5 -4.6 3.5 -4.05 M-11.8 -5.05 Q-9.25 -7.4 -7.45 -7.95 -5.7 -8.55 -3.6 -5.9 -1.6 -3.3 -1.55 0.35 L-1.55 0.45 Q-1.55 4.15 -3.6 6.75 -5.7 9.35 -8.6 9.4 -11.5 9.35 -13.6 6.75 -15.65 4.15 -15.65 0.45 L-15.0 -1.15 Q-14.35 -2.7 -11.8 -5.05 M-4.35 -3.75 L-4.55 -4.05 -4.95 -4.1 -10.65 0.35 Q-11.45 1.55 -10.85 3.8 -10.45 5.25 -9.5 6.15 -8.05 7.65 -6.3 6.5 L-5.15 5.45 Q-4.2 4.3 -4.1 2.85 -3.95 0.1 -4.15 -2.4 L-4.35 -3.75" fill="#dbae82" fill-rule="evenodd" stroke="none"/>
    <path d="M3.5 -4.05 L3.5 -4.6 3.7 -4.55 Q6.1 -3.4 8.0 -1.25 L8.75 -0.3 9.65 1.5 Q10.4 3.65 9.1 5.5 8.3 6.6 6.95 6.95 5.15 7.35 3.95 6.05 2.35 4.35 2.1 2.15 1.7 -1.25 3.5 -4.05 M-4.35 -3.75 L-4.15 -2.4 Q-3.95 0.1 -4.1 2.85 -4.2 4.3 -5.15 5.45 L-6.3 6.5 Q-8.05 7.65 -9.5 6.15 -10.45 5.25 -10.85 3.8 -11.45 1.55 -10.65 0.35 L-4.95 -4.1 -4.55 -4.05 -4.35 -3.75" fill="#ce9255" fill-rule="evenodd" stroke="none"/>
    <path d="M3.5 -4.05 Q1.7 -1.25 2.1 2.15 2.35 4.35 3.95 6.05 5.15 7.35 6.95 6.95 8.3 6.6 9.1 5.5 10.4 3.65 9.65 1.5 L8.75 -0.3 8.0 -1.25 Q6.1 -3.4 3.7 -4.55 L3.5 -4.6 3.5 -4.05 M-4.35 -3.75 L-4.55 -4.05 -4.95 -4.1 -10.65 0.35 Q-11.45 1.55 -10.85 3.8 -10.45 5.25 -9.5 6.15 -8.05 7.65 -6.3 6.5 L-5.15 5.45 Q-4.2 4.3 -4.1 2.85 -3.95 0.1 -4.15 -2.4 L-4.35 -3.75 Z" fill="none" stroke="#000000" stroke-linecap="round" stroke-linejoin="round" stroke-width="3.5"/>
  </g>
</svg>
