<?xml version="1.0" encoding="UTF-8" standalone="no"?>
<svg xmlns:ffdec="https://www.free-decompiler.com/flash" xmlns:xlink="http://www.w3.org/1999/xlink" ffdec:objectType="shape" height="17.55px" width="29.75px" xmlns="http://www.w3.org/2000/svg">
  <g transform="matrix(1.0, 0.0, 0.0, 1.0, 15.65, 8.15)">
    <path d="M3.2 -4.15 Q4.95 -7.3 7.45 -8.0 9.95 -8.75 12.05 -6.15 14.05 -3.55 14.1 0.1 L14.1 0.2 Q14.1 3.9 12.05 6.5 9.95 9.15 7.05 9.15 4.15 9.15 2.1 6.5 0.0 3.9 0.0 0.2 L0.7 -0.45 Q1.4 -1.05 3.2 -4.15 M1.1 2.3 L2.05 1.75 1.1 2.3 M2.05 1.75 Q2.2 3.75 3.2 5.25 4.45 7.05 6.15 7.05 7.8 7.05 9.0 5.25 10.25 3.4 10.25 0.85 10.25 -1.35 9.35 -2.95 L2.05 1.75 M-1.65 -0.95 L-1.55 0.45 Q-1.55 4.15 -3.6 6.75 -5.7 9.35 -8.6 9.4 -11.5 9.35 -13.6 6.75 -15.65 4.15 -15.65 0.45 L-15.65 0.35 Q-15.65 -3.3 -13.6 -5.9 -11.55 -8.55 -8.95 -6.6 -6.4 -4.7 -4.1 -3.5 -1.8 -2.3 -1.65 -0.95 M-4.0 1.3 L-10.7 -0.95 -10.85 -0.55 -11.15 1.75 Q-11.15 3.95 -10.1 5.5 -9.05 7.05 -7.55 7.1 -6.1 7.05 -5.05 5.5 -4.0 3.95 -4.0 1.75 L-4.0 1.3 -3.55 1.45 -4.0 1.3" fill="#dbae82" fill-rule="evenodd" stroke="none"/>
    <path d="M2.05 1.75 L9.35 -2.95 Q10.25 -1.35 10.25 0.85 10.25 3.4 9.0 5.25 7.8 7.05 6.15 7.05 4.45 7.05 3.2 5.25 2.2 3.75 2.05 1.75 M-4.0 1.3 L-4.0 1.75 Q-4.0 3.95 -5.05 5.5 -6.1 7.05 -7.55 7.1 -9.05 7.05 -10.1 5.5 -11.15 3.95 -11.15 1.75 L-10.85 -0.55 -10.7 -0.95 -4.0 1.3" fill="#ce9255" fill-rule="evenodd" stroke="none"/>
    <path d="M2.05 1.75 L1.1 2.3 M2.05 1.75 L9.35 -2.95 Q10.25 -1.35 10.25 0.85 10.25 3.4 9.0 5.25 7.8 7.05 6.15 7.05 4.45 7.05 3.2 5.25 2.2 3.75 2.05 1.75 M-4.0 1.3 L-4.0 1.75 Q-4.0 3.95 -5.05 5.5 -6.1 7.05 -7.55 7.1 -9.05 7.05 -10.1 5.5 -11.15 3.95 -11.15 1.75 L-10.85 -0.55 -10.7 -0.95 -4.0 1.3 -3.55 1.45" fill="none" stroke="#000000" stroke-linecap="round" stroke-linejoin="round" stroke-width="3.5"/>
  </g>
</svg>
