<?xml version="1.0" encoding="UTF-8" standalone="no"?>
<svg xmlns:ffdec="https://www.free-decompiler.com/flash" xmlns:xlink="http://www.w3.org/1999/xlink" ffdec:objectType="shape" height="13.6px" width="29.75px" xmlns="http://www.w3.org/2000/svg">
  <g transform="matrix(1.0, 0.0, 0.0, 1.0, 15.65, 4.2)">
    <path d="M13.7 -2.95 Q14.1 -1.55 14.1 0.1 L14.1 0.2 Q14.1 3.9 12.05 6.5 9.95 9.15 7.05 9.15 4.15 9.15 2.1 6.5 0.0 3.9 0.0 0.2 L0.0 0.1 Q0.0 -1.55 0.45 -2.95 7.05 -4.65 13.7 -2.95 M6.15 7.05 Q7.8 7.05 9.0 5.25 10.2 3.5 10.25 1.0 L2.0 1.0 Q2.05 3.5 3.2 5.25 4.45 7.05 6.15 7.05 M-2.05 -2.95 Q-1.55 -1.45 -1.55 0.35 L-1.55 0.45 Q-1.55 4.15 -3.6 6.75 -5.7 9.35 -8.6 9.4 -11.5 9.35 -13.6 6.75 -15.65 4.15 -15.65 0.45 L-15.65 0.35 Q-15.65 -1.45 -15.15 -2.95 -8.6 -5.45 -2.05 -2.95 M-4.0 1.75 L-4.0 1.0 -11.15 1.0 -11.15 1.75 Q-11.15 3.95 -10.1 5.5 -9.05 7.05 -7.55 7.1 -6.1 7.05 -5.05 5.5 -4.0 3.95 -4.0 1.75" fill="#dbae82" fill-rule="evenodd" stroke="none"/>
    <path d="M6.15 7.05 Q4.45 7.05 3.2 5.25 2.05 3.5 2.0 1.0 L10.25 1.0 Q10.2 3.5 9.0 5.25 7.8 7.05 6.15 7.05 M-4.0 1.75 Q-4.0 3.95 -5.05 5.5 -6.1 7.05 -7.55 7.1 -9.05 7.05 -10.1 5.5 -11.15 3.95 -11.15 1.75 L-11.15 1.0 -4.0 1.0 -4.0 1.75" fill="#ce9255" fill-rule="evenodd" stroke="none"/>
    <path d="M6.15 7.05 Q4.45 7.05 3.2 5.25 2.05 3.5 2.0 1.0 L10.25 1.0 Q10.2 3.5 9.0 5.25 7.8 7.05 6.15 7.05 M-4.0 1.75 Q-4.0 3.95 -5.05 5.5 -6.1 7.05 -7.55 7.1 -9.05 7.05 -10.1 5.5 -11.15 3.95 -11.15 1.75 L-11.15 1.0 -4.0 1.0 -4.0 1.75 Z" fill="none" stroke="#000000" stroke-linecap="round" stroke-linejoin="round" stroke-width="3.5"/>
  </g>
</svg>
