<?xml version="1.0" encoding="UTF-8" standalone="no"?>
<svg xmlns:ffdec="https://www.free-decompiler.com/flash" xmlns:xlink="http://www.w3.org/1999/xlink" ffdec:objectType="shape" height="14.3px" width="29.8px" xmlns="http://www.w3.org/2000/svg">
  <g transform="matrix(1.0, 0.0, 0.0, 1.0, 15.7, 8.75)">
    <path d="M7.05 -8.75 Q9.95 -8.75 12.05 -6.15 14.05 -3.55 14.1 0.1 L14.1 0.2 Q14.1 3.9 12.65 4.45 11.2 4.95 8.6 3.85 6.0 2.75 3.0 3.35 0.0 3.9 0.0 0.2 L0.0 0.1 Q0.05 -3.55 2.1 -6.15 4.15 -8.75 7.05 -8.75 M1.75 1.9 Q5.4 -8.45 11.25 1.2 5.4 -8.45 1.75 1.9 M-8.6 -8.55 Q-5.7 -8.55 -3.6 -5.9 -1.6 -3.3 -1.55 0.35 L-1.55 2.4 Q-1.55 4.35 -5.4 4.0 -9.25 3.65 -11.45 4.9 -13.7 6.1 -14.7 5.1 -15.7 4.05 -15.7 2.25 L-15.65 0.35 Q-15.65 -3.3 -13.6 -5.9 -11.5 -8.55 -8.6 -8.55 M-11.25 2.3 Q-8.05 -4.8 -3.95 2.1 -8.05 -4.8 -11.25 2.3" fill="#dbae82" fill-rule="evenodd" stroke="none"/>
    <path d="M11.25 1.2 Q5.4 -8.45 1.75 1.9 M-3.95 2.1 Q-8.05 -4.8 -11.25 2.3" fill="none" stroke="#333333" stroke-linecap="round" stroke-linejoin="round" stroke-width="2.0"/>
  </g>
</svg>
