<?xml version="1.0" encoding="UTF-8" standalone="no"?>
<svg xmlns:ffdec="https://www.free-decompiler.com/flash" xmlns:xlink="http://www.w3.org/1999/xlink" ffdec:objectType="shape" height="17.95px" width="29.05px" xmlns="http://www.w3.org/2000/svg">
  <g transform="matrix(1.0, 0.0, 0.0, 1.0, 14.95, 8.55)">
    <path d="M13.5 2.85 Q12.3 1.85 11.85 1.9 L11.85 0.85 11.65 -1.05 Q6.55 -6.5 5.3 -6.65 4.0 -6.8 3.1 -5.7 L3.15 -5.7 1.95 -4.4 1.9 -4.35 Q1.2 -3.35 0.9 -2.15 L0.9 -2.2 Q0.5 -0.8 0.5 0.85 0.5 3.6 1.65 5.6 L1.3 5.8 Q0.8 6.05 0.65 6.55 L0.6 6.8 0.15 6.05 Q-0.65 3.9 -0.3 2.05 L0.0 0.1 Q0.05 -3.55 2.1 -6.15 4.15 -8.75 6.3 -8.35 8.4 -8.0 10.25 -5.25 L13.1 -1.2 14.1 0.2 Q14.1 1.9 13.5 2.85 M10.55 4.2 L12.75 3.55 12.9 3.55 Q12.2 4.05 11.1 4.15 L10.55 4.2 M-10.9 -6.15 Q-9.6 -8.6 -7.65 -8.55 -5.7 -8.55 -3.6 -5.9 -1.6 -3.3 -1.55 0.35 L-1.55 0.45 Q-1.55 4.15 -3.6 6.75 -5.7 9.35 -8.6 9.4 -11.5 9.35 -13.6 6.75 -15.65 4.1 -14.6 1.6 L-12.85 -2.3 -10.9 -6.15 M-6.15 -5.6 L-8.05 -6.2 -12.7 2.5 Q-12.55 4.75 -11.4 6.4 L-11.4 6.35 Q-9.85 8.7 -7.55 8.65 -5.3 8.7 -3.75 6.35 L-3.8 6.4 Q-2.5 4.45 -2.4 1.75 -2.5 -1.05 -3.8 -2.95 -5.05 -4.85 -6.15 -5.6" fill="#dbae82" fill-rule="evenodd" stroke="none"/>
    <path d="M3.9 -1.35 L3.85 -1.3 Q3.55 -0.3 3.6 0.85 3.55 2.7 4.3 4.05 6.75 2.5 8.8 2.15 8.7 1.55 8.85 0.9 L9.0 0.4 Q8.9 0.55 7.35 -1.45 5.75 -3.5 5.45 -3.4 L5.1 -3.3 4.55 -2.65 4.5 -2.6 3.9 -1.35 M0.6 6.8 L0.65 6.55 Q0.8 6.05 1.3 5.8 L1.65 5.6 Q0.5 3.6 0.5 0.85 0.5 -0.8 0.9 -2.2 L0.9 -2.15 Q1.2 -3.35 1.9 -4.35 L1.95 -4.4 3.15 -5.7 3.1 -5.7 Q4.0 -6.8 5.3 -6.65 6.55 -6.5 11.65 -1.05 L11.85 0.85 11.85 1.9 Q12.3 1.85 13.5 2.85 L14.0 3.3 12.9 3.55 12.75 3.55 10.55 4.2 Q7.95 5.05 3.55 6.75 L3.1 6.9 0.85 7.8 0.75 7.55 Q0.5 7.15 0.6 6.8 M-6.15 -5.6 Q-5.05 -4.85 -3.8 -2.95 -2.5 -1.05 -2.4 1.75 -2.5 4.45 -3.8 6.4 L-3.75 6.35 Q-5.3 8.7 -7.55 8.65 -9.85 8.7 -11.4 6.35 L-11.4 6.4 Q-12.55 4.75 -12.7 2.5 L-8.05 -6.2 -6.15 -5.6 M-6.35 -1.2 Q-6.8 -1.85 -7.3 -2.0 -8.2 -1.5 -9.35 1.7 L-9.6 2.4 Q-9.45 3.65 -8.8 4.6 L-8.8 4.65 Q-8.3 5.45 -7.55 5.55 -6.9 5.45 -6.35 4.65 L-6.35 4.6 Q-5.55 3.4 -5.5 1.75 -5.55 0.0 -6.35 -1.15 L-6.35 -1.2" fill="#000000" fill-rule="evenodd" stroke="none"/>
    <path d="M3.9 -1.35 L4.5 -2.6 4.55 -2.65 5.1 -3.3 5.45 -3.4 Q5.75 -3.5 7.35 -1.45 8.9 0.55 9.0 0.4 L8.85 0.9 Q8.7 1.55 8.8 2.15 6.75 2.5 4.3 4.05 3.55 2.7 3.6 0.85 3.55 -0.3 3.85 -1.3 L3.9 -1.35 M-6.35 -1.2 L-6.35 -1.15 Q-5.55 0.0 -5.5 1.75 -5.55 3.4 -6.35 4.6 L-6.35 4.65 Q-6.9 5.45 -7.55 5.55 -8.3 5.45 -8.8 4.65 L-8.8 4.6 Q-9.45 3.65 -9.6 2.4 L-9.35 1.7 Q-8.2 -1.5 -7.3 -2.0 -6.8 -1.85 -6.35 -1.2" fill="#ce9255" fill-rule="evenodd" stroke="none"/>
  </g>
</svg>
