<?xml version="1.0" encoding="UTF-8" standalone="no"?>
<svg xmlns:ffdec="https://www.free-decompiler.com/flash" xmlns:xlink="http://www.w3.org/1999/xlink" ffdec:objectType="shape" height="18.15px" width="29.75px" xmlns="http://www.w3.org/2000/svg">
  <g transform="matrix(1.0, 0.0, 0.0, 1.0, 15.65, 8.75)">
    <path d="M7.05 -8.75 Q9.95 -8.75 12.05 -6.15 14.05 -3.55 14.1 0.1 L14.1 0.2 Q14.1 3.9 12.05 6.5 9.95 9.15 7.05 9.15 4.15 9.15 2.1 6.5 0.0 3.9 0.0 0.2 L0.0 0.1 Q0.05 -3.55 2.1 -6.15 4.15 -8.75 7.05 -8.75 M9.0 -3.5 Q7.8 -5.3 6.15 -5.3 5.0 -5.3 4.1 -4.5 L3.2 -3.5 Q2.65 -2.7 2.4 -1.75 2.0 -0.55 2.0 0.85 2.0 3.4 3.2 5.25 4.45 7.05 6.15 7.05 7.8 7.05 9.0 5.25 10.25 3.4 10.25 0.85 10.25 -1.7 9.0 -3.5 M-12.45 -0.4 L-12.7 1.75 Q-12.75 4.45 -11.4 6.4 L-11.4 6.35 Q-9.85 8.7 -7.55 8.65 -5.3 8.7 -3.75 6.35 L-3.8 6.4 Q-2.5 4.45 -2.4 1.75 L-2.4 1.65 -2.55 1.1 -9.4 -2.0 -9.95 -2.45 -10.85 -2.6 -13.15 -3.6 -14.15 -3.65 -14.9 -2.95 Q-15.1 -2.45 -14.9 -1.9 L-14.9 -1.85 -12.45 -0.4 M-1.9 -0.45 L-1.55 0.45 Q-1.55 4.15 -3.6 6.75 -5.7 9.35 -8.6 9.4 -11.5 9.35 -13.6 6.75 -15.65 4.15 -15.65 0.45 L-15.65 0.35 Q-15.65 -3.3 -13.65 -5.8 -11.65 -8.3 -9.6 -6.0 -7.55 -3.75 -4.9 -2.55 -2.25 -1.35 -1.9 -0.45" fill="#dbae82" fill-rule="evenodd" stroke="none"/>
    <path d="M9.0 -3.5 Q10.25 -1.7 10.25 0.85 10.25 3.4 9.0 5.25 7.8 7.05 6.15 7.05 4.45 7.05 3.2 5.25 2.0 3.4 2.0 0.85 2.0 -0.55 2.4 -1.75 2.65 -2.7 3.2 -3.5 L4.1 -4.5 Q5.0 -5.3 6.15 -5.3 7.8 -5.3 9.0 -3.5 M-9.55 0.8 L-5.55 2.45 Q-5.75 3.65 -6.35 4.6 L-6.35 4.65 Q-6.9 5.45 -7.55 5.55 -8.3 5.45 -8.8 4.65 L-8.8 4.6 Q-9.6 3.45 -9.6 1.75 L-9.55 0.8" fill="#ce9255" fill-rule="evenodd" stroke="none"/>
    <path d="M-12.45 -0.4 L-14.9 -1.85 -14.9 -1.9 Q-15.1 -2.45 -14.9 -2.95 L-14.15 -3.65 -13.15 -3.6 -10.85 -2.6 -9.95 -2.45 -9.4 -2.0 -2.55 1.1 -2.4 1.65 -2.4 1.75 Q-2.5 4.45 -3.8 6.4 L-3.75 6.35 Q-5.3 8.7 -7.55 8.65 -9.85 8.7 -11.4 6.35 L-11.4 6.4 Q-12.75 4.45 -12.7 1.75 L-12.45 -0.4 M-9.55 0.8 L-9.6 1.75 Q-9.6 3.45 -8.8 4.6 L-8.8 4.65 Q-8.3 5.45 -7.55 5.55 -6.9 5.45 -6.35 4.65 L-6.35 4.6 Q-5.75 3.65 -5.55 2.45 L-9.55 0.8" fill="#000000" fill-rule="evenodd" stroke="none"/>
    <path d="M9.0 -3.5 Q10.25 -1.7 10.25 0.85 10.25 3.4 9.0 5.25 7.8 7.05 6.15 7.05 4.45 7.05 3.2 5.25 2.0 3.4 2.0 0.85 2.0 -0.55 2.4 -1.75 2.65 -2.7 3.2 -3.5 L4.1 -4.5 Q5.0 -5.3 6.15 -5.3 7.8 -5.3 9.0 -3.5 Z" fill="none" stroke="#000000" stroke-linecap="round" stroke-linejoin="round" stroke-width="3.5"/>
  </g>
</svg>
