<?xml version="1.0" encoding="UTF-8" standalone="no"?>
<svg xmlns:ffdec="https://www.free-decompiler.com/flash" xmlns:xlink="http://www.w3.org/1999/xlink" ffdec:objectType="shape" height="102.6px" width="117.0px" xmlns="http://www.w3.org/2000/svg">
  <g transform="matrix(1.0, 0.0, 0.0, 1.0, 27.0, 39.3)">
    <path d="M38.95 -25.1 Q34.7 -26.8 30.45 -25.6 34.1 -32.15 40.45 -34.3 36.95 -29.45 38.95 -25.1 M9.2 -6.7 Q4.9 -6.9 -0.1 -5.5 -5.1 -4.15 -9.4 -1.0 -13.7 2.15 -12.15 -1.4 -10.6 -5.0 -4.6 -9.65 1.35 -14.35 11.95 -15.6 23.15 -16.9 33.55 -14.25 41.2 -12.3 45.2 -9.35 L52.65 -3.65 Q56.95 0.65 54.7 4.65 52.2 9.15 45.9 11.7 43.4 12.7 42.4 12.4 41.3 12.0 42.7 10.15 45.75 6.15 45.0 1.9 44.65 0.15 43.6 -0.2 42.4 -0.55 40.7 1.15 36.95 4.9 32.9 6.65 28.7 8.45 29.95 5.4 L32.65 -0.55 Q33.45 -3.25 31.15 -4.8 28.85 -6.3 22.4 -4.65 15.9 -3.05 11.95 0.55 8.0 4.1 6.35 2.85 4.65 1.55 9.2 -2.6 13.5 -6.55 9.2 -6.7 M77.7 -12.1 Q70.6 -7.5 69.2 0.9 61.45 -14.65 44.7 -22.15 53.5 -28.6 68.2 -29.1 63.55 -22.9 66.7 -15.85 70.3 -11.6 77.7 -12.1 M44.3 35.45 Q43.65 42.3 42.85 46.1 41.75 51.15 44.5 58.8 37.45 54.25 40.45 39.45 L41.75 31.55 42.15 26.4 Q42.2 22.0 41.2 19.75 39.35 15.6 35.7 13.1 40.35 13.5 42.95 16.5 45.55 19.5 44.75 30.25 L44.55 32.5 44.3 35.45 M24.05 4.35 L25.85 8.35 26.35 10.5 26.4 12.9 25.1 22.65 Q24.3 28.6 27.35 31.65 30.35 34.65 32.0 38.4 33.65 42.1 32.2 44.1 L27.9 50.15 Q31.55 38.8 25.1 33.65 18.65 28.5 21.85 20.95 24.55 14.5 22.7 10.5 L21.95 9.2 21.45 8.6 Q20.4 7.55 18.8 7.55 L18.75 7.55 Q15.95 7.5 14.15 8.95 L8.9 8.65 Q9.15 7.75 10.55 5.3 11.95 2.85 16.5 0.85 20.95 -1.2 24.05 4.35 M2.65 9.85 Q2.45 11.35 1.55 13.2 -1.2 18.7 0.35 23.65 -3.0 19.65 -1.45 14.35 -0.6 11.3 -0.6 9.05 -0.6 7.85 -0.85 6.85 L-1.1 6.0 Q-1.65 4.55 -4.05 4.55 L-7.0 4.9 -5.25 2.55 Q-4.3 1.4 -0.75 4.1 1.9 5.5 2.5 7.75 2.75 8.7 2.65 9.85 M-15.4 7.15 Q-24.7 11.85 -22.1 24.1 -19.45 37.15 -20.8 42.8 -21.35 44.85 -22.2 46.75 -19.4 35.7 -22.8 29.2 -26.2 22.65 -24.45 16.2 -22.65 9.7 -20.0 8.45 -17.4 7.15 -15.4 7.15" fill="#442f20" fill-rule="evenodd" stroke="none"/>
    <path d="M25.85 -21.85 L26.7 -21.8 Q44.1 -20.8 59.75 -5.15 71.45 6.4 66.7 25.9 72.45 24.3 78.4 20.75 88.2 14.95 89.0 2.4 81.85 4.55 79.15 2.65 75.85 0.55 77.15 -5.4 77.9 -9.2 83.2 -12.5 71.3 -16.55 71.0 -20.4 70.55 -24.0 73.5 -30.4 64.35 -33.8 58.0 -32.4 L47.55 -30.15 Q43.45 -29.25 46.5 -33.75 46.5 -35.65 48.05 -38.55 31.35 -37.35 27.3 -26.5 26.4 -24.15 25.85 -21.85 M25.3 -19.55 L23.8 -19.6 Q7.35 -20.1 0.25 -15.4 -7.25 -10.55 -10.95 -7.55 -14.65 -4.55 -15.4 -0.85 -16.15 2.85 -11.5 5.7 L-9.5 5.45 Q-8.25 2.2 -5.9 1.45 -3.45 0.4 0.2 2.35 L0.15 2.3 Q4.4 4.45 4.75 8.15 L6.85 8.45 Q7.1 7.0 8.85 5.0 11.1 2.25 16.45 -0.15 22.25 -2.9 25.8 3.35 L25.8 3.4 Q27.45 6.35 28.1 8.9 30.15 9.55 32.05 10.9 L33.1 11.05 Q40.85 10.8 44.2 14.8 47.65 18.65 46.55 26.75 L45.65 33.65 Q49.2 36.85 56.5 34.9 L60.15 29.05 61.25 26.95 Q70.45 8.45 58.35 -3.75 43.3 -18.8 25.45 -19.55 L25.3 -19.55 M24.4 -21.9 L25.75 -25.8 Q31.65 -40.25 48.1 -39.25 L49.25 -39.2 49.0 -38.0 Q48.5 -36.1 48.5 -33.75 L48.5 -33.7 Q48.65 -33.45 49.75 -33.35 L55.95 -34.05 Q64.95 -36.0 74.15 -31.35 L74.95 -30.95 74.65 -30.1 Q72.6 -24.15 73.0 -20.65 73.6 -17.55 83.8 -13.45 L85.4 -12.8 84.0 -11.75 Q79.95 -8.8 79.1 -5.0 78.15 -0.65 80.3 0.95 L88.75 1.2 89.9 0.95 89.95 2.1 Q90.75 15.45 80.25 24.3 L80.25 24.25 Q74.25 29.45 66.35 29.55 L65.65 29.55 Q64.35 33.7 62.35 38.2 65.3 44.25 73.6 50.2 L75.1 51.3 73.4 51.95 Q68.25 54.0 63.2 50.6 62.25 55.3 67.2 60.05 L69.2 62.05 69.15 62.15 66.4 61.75 Q59.0 60.85 55.7 55.85 54.5 57.55 54.25 60.85 L54.15 62.05 53.0 61.75 Q50.15 60.9 48.95 59.85 47.25 58.45 47.9 56.7 L48.0 56.5 48.15 56.35 Q54.75 49.3 57.9 41.25 49.6 40.0 45.3 36.35 44.25 44.4 43.9 49.35 43.45 55.7 47.5 60.9 L49.3 63.3 Q46.3 62.75 41.15 57.1 36.0 51.45 38.6 38.25 40.0 31.2 40.1 26.65 37.7 19.6 34.1 15.45 32.7 13.85 31.25 12.8 L30.95 12.55 Q29.75 11.7 28.45 11.15 L28.4 13.2 27.1 22.7 Q26.4 27.9 29.05 31.05 32.05 34.55 33.95 38.25 36.05 42.5 33.75 45.35 31.8 47.8 26.55 52.35 31.2 40.9 24.85 35.7 17.2 29.45 20.2 21.1 22.55 14.3 20.5 10.7 L14.8 10.95 14.8 11.0 14.35 10.95 7.65 10.6 7.2 10.6 7.2 10.55 4.7 10.2 Q4.4 12.0 3.35 14.1 0.2 20.35 3.5 25.75 6.95 31.25 8.95 33.5 L9.0 33.6 Q-5.5 22.7 -2.9 15.65 -1.35 11.0 -1.95 8.65 L-6.2 7.05 -11.6 7.75 Q-22.75 11.35 -20.15 23.7 -17.35 37.35 -18.85 43.3 -20.45 49.35 -27.0 55.35 L-26.1 52.65 Q-20.85 37.7 -23.95 30.45 -27.45 22.65 -24.65 13.05 -23.2 7.95 -19.85 6.15 -17.9 5.05 -17.0 2.9 -17.9 1.85 -15.95 -3.05 -15.0 -5.65 -7.15 -11.9 L-6.8 -12.2 -6.9 -12.15 -4.05 -14.2 -4.1 -14.2 Q8.4 -22.25 24.4 -21.9 M44.3 35.45 L44.55 32.5 44.75 30.25 Q45.55 19.5 42.95 16.5 40.35 13.5 35.7 13.1 39.35 15.6 41.2 19.75 42.2 22.0 42.15 26.4 L41.75 31.55 40.45 39.45 Q37.45 54.25 44.5 58.8 41.75 51.15 42.85 46.1 43.65 42.3 44.3 35.45 M60.1 41.5 L59.95 41.5 Q56.7 50.05 49.8 57.45 49.75 57.9 50.25 58.35 L52.4 59.45 Q52.95 55.15 55.25 53.45 L56.15 52.7 56.75 53.75 Q58.9 57.7 63.7 59.15 59.7 54.05 61.55 48.95 L61.8 48.25 63.35 48.25 63.6 48.45 Q67.2 51.15 70.8 50.6 64.3 45.6 61.3 40.5 L61.1 40.95 60.8 41.6 60.1 41.5 M-15.4 7.15 Q-17.4 7.15 -20.0 8.45 -22.65 9.7 -24.45 16.2 -26.2 22.65 -22.8 29.2 -19.4 35.7 -22.2 46.75 -21.35 44.85 -20.8 42.8 -19.45 37.15 -22.1 24.1 -24.7 11.85 -15.4 7.15 M2.65 9.85 Q2.75 8.7 2.5 7.75 1.9 5.5 -0.75 4.1 -4.3 1.4 -5.25 2.55 L-7.0 4.9 -4.05 4.55 Q-1.65 4.55 -1.1 6.0 L-0.85 6.85 Q-0.6 7.85 -0.6 9.05 -0.6 11.3 -1.45 14.35 -3.0 19.65 0.35 23.65 -1.2 18.7 1.55 13.2 2.45 11.35 2.65 9.85 M24.05 4.35 Q20.95 -1.2 16.5 0.85 11.95 2.85 10.55 5.3 9.15 7.75 8.9 8.65 L14.15 8.95 Q15.95 7.5 18.75 7.55 L18.8 7.55 Q20.4 7.55 21.45 8.6 L21.95 9.2 22.7 10.5 Q24.55 14.5 21.85 20.95 18.65 28.5 25.1 33.65 31.55 38.8 27.9 50.15 L32.2 44.1 Q33.65 42.1 32.0 38.4 30.35 34.65 27.35 31.65 24.3 28.6 25.1 22.65 L26.4 12.9 26.35 10.5 25.85 8.35 24.05 4.35" fill="#312217" fill-rule="evenodd" stroke="none"/>
    <path d="M38.95 -25.1 Q36.95 -29.45 40.45 -34.3 34.1 -32.15 30.45 -25.6 34.7 -26.8 38.95 -25.1 M9.2 -6.7 Q13.5 -6.55 9.2 -2.6 4.65 1.55 6.35 2.85 8.0 4.1 11.95 0.55 15.9 -3.05 22.4 -4.65 28.85 -6.3 31.15 -4.8 33.45 -3.25 32.65 -0.55 L29.95 5.4 Q28.7 8.45 32.9 6.65 36.95 4.9 40.7 1.15 42.4 -0.55 43.6 -0.2 44.65 0.15 45.0 1.9 45.75 6.15 42.7 10.15 41.3 12.0 42.4 12.4 43.4 12.7 45.9 11.7 52.2 9.15 54.7 4.65 56.95 0.65 52.65 -3.65 L45.2 -9.35 Q41.2 -12.3 33.55 -14.25 23.15 -16.9 11.95 -15.6 1.35 -14.35 -4.6 -9.65 -10.6 -5.0 -12.15 -1.4 -13.7 2.15 -9.4 -1.0 -5.1 -4.15 -0.1 -5.5 4.9 -6.9 9.2 -6.7 M25.3 -19.55 L25.45 -19.55 Q43.3 -18.8 58.35 -3.75 70.45 8.45 61.25 26.95 L60.15 29.05 56.5 34.9 Q49.2 36.85 45.65 33.65 L46.55 26.75 Q47.65 18.65 44.2 14.8 40.85 10.8 33.1 11.05 L32.05 10.9 Q30.15 9.55 28.1 8.9 27.45 6.35 25.8 3.4 L25.8 3.35 Q22.25 -2.9 16.45 -0.15 11.1 2.25 8.85 5.0 7.1 7.0 6.85 8.45 L4.75 8.15 Q4.4 4.45 0.15 2.3 L0.2 2.35 Q-3.45 0.4 -5.9 1.45 -8.25 2.2 -9.5 5.45 L-11.5 5.7 Q-16.15 2.85 -15.4 -0.85 -14.65 -4.55 -10.95 -7.55 -7.25 -10.55 0.25 -15.4 7.35 -20.1 23.8 -19.6 L25.3 -19.55 M25.85 -21.85 Q26.4 -24.15 27.3 -26.5 31.35 -37.35 48.05 -38.55 46.5 -35.65 46.5 -33.75 43.45 -29.25 47.55 -30.15 L58.0 -32.4 Q64.35 -33.8 73.5 -30.4 70.55 -24.0 71.0 -20.4 71.3 -16.55 83.2 -12.5 77.9 -9.2 77.15 -5.4 75.85 0.55 79.15 2.65 81.85 4.55 89.0 2.4 88.2 14.95 78.4 20.75 72.45 24.3 66.7 25.9 71.45 6.4 59.75 -5.15 44.1 -20.8 26.7 -21.8 L25.85 -21.85 M77.7 -12.1 Q70.3 -11.6 66.7 -15.85 63.55 -22.9 68.2 -29.1 53.5 -28.6 44.7 -22.15 61.45 -14.65 69.2 0.9 70.6 -7.5 77.7 -12.1 M60.1 41.5 L60.8 41.6 61.1 40.95 61.3 40.5 Q64.3 45.6 70.8 50.6 67.2 51.15 63.6 48.45 L63.35 48.25 61.8 48.25 61.55 48.95 Q59.7 54.05 63.7 59.15 58.9 57.7 56.75 53.75 L56.15 52.7 55.25 53.45 Q52.95 55.15 52.4 59.45 L50.25 58.35 Q49.75 57.9 49.8 57.45 56.7 50.05 59.95 41.5 L60.1 41.5" fill="#3a281b" fill-rule="evenodd" stroke="none"/>
  </g>
</svg>
