<?xml version="1.0" encoding="UTF-8" standalone="no"?>
<svg xmlns:ffdec="https://www.free-decompiler.com/flash" xmlns:xlink="http://www.w3.org/1999/xlink" ffdec:objectType="shape" height="83.2px" width="83.05px" xmlns="http://www.w3.org/2000/svg">
  <g transform="matrix(1.0, 0.0, 0.0, 1.0, 25.0, 65.0)">
    <path d="M15.35 16.05 Q9.55 15.9 4.4 14.25 1.3 13.3 -1.55 11.8 -6.9 9.0 -11.45 4.45 -22.35 -6.45 -22.95 -21.6 L-23.0 -23.45 -22.95 -25.35 Q-22.7 -31.4 -20.8 -36.75 -18.3 -38.2 -15.65 -38.8 -13.1 -39.35 -10.9 -37.95 L-7.9 -35.65 -6.65 -34.9 Q-4.65 -34.15 -2.6 -34.0 L7.2 -34.3 13.65 -35.25 21.35 -34.9 Q24.2 -33.8 26.75 -32.05 29.3 -30.35 32.25 -26.8 35.2 -23.3 35.7 -19.75 36.15 -16.2 37.75 -11.95 36.3 -3.05 30.65 4.2 L27.35 7.85 26.7 8.55 26.75 8.5 Q21.5 13.45 15.35 16.05" fill="#ce9255" fill-rule="evenodd" stroke="none"/>
    <path d="M-5.7 -56.25 L-4.5 -57.1 Q4.95 -62.95 16.35 -63.0 L16.55 -63.0 Q32.9 -63.0 44.45 -51.45 56.05 -39.85 56.05 -23.45 56.05 -9.8 47.95 0.6 L44.45 4.45 43.75 5.2 43.8 5.15 Q33.6 14.9 19.8 15.95 26.95 13.3 32.85 7.65 L32.8 7.75 33.5 7.0 36.85 3.25 Q44.7 -6.75 44.7 -19.95 44.7 -35.8 33.5 -47.0 22.3 -58.15 6.55 -58.15 0.0 -58.15 -5.7 -56.25" fill="#a76d4b" fill-rule="evenodd" stroke="none"/>
    <path d="M19.8 15.95 L19.75 15.95 16.55 16.05 15.35 16.05 Q21.5 13.45 26.75 8.5 L26.7 8.55 27.35 7.85 30.65 4.2 Q36.3 -3.05 37.75 -11.95 36.15 -16.2 35.7 -19.75 35.2 -23.3 32.25 -26.8 29.3 -30.35 26.75 -32.05 24.2 -33.8 21.35 -34.9 L13.65 -35.25 7.2 -34.3 -2.6 -34.0 Q-4.65 -34.15 -6.65 -34.9 L-7.9 -35.65 -10.9 -37.95 Q-13.1 -39.35 -15.65 -38.8 -18.3 -38.2 -20.8 -36.75 -18.8 -42.6 -14.8 -47.6 L-11.05 -51.8 -11.1 -51.8 Q-9.5 -53.4 -7.75 -54.75 L-5.75 -56.25 -5.7 -56.25 Q0.0 -58.15 6.55 -58.15 22.3 -58.15 33.5 -47.0 44.7 -35.8 44.7 -19.95 44.7 -6.75 36.85 3.25 L33.5 7.0 32.8 7.75 32.85 7.65 Q26.95 13.3 19.8 15.95 M10.5 17.65 L12.05 17.85 8.0 18.2 10.5 17.65" fill="#c18753" fill-rule="evenodd" stroke="none"/>
    <path d="M19.8 15.95 Q33.6 14.9 43.8 5.15 L43.75 5.2 44.45 4.45 47.95 0.6 Q56.05 -9.8 56.05 -23.45 56.05 -39.85 44.45 -51.45 32.9 -63.0 16.55 -63.0 L16.35 -63.0 Q4.95 -62.95 -4.5 -57.1 L-5.7 -56.25 -5.75 -56.25 -7.75 -54.75 Q-9.5 -53.4 -11.1 -51.8 L-11.05 -51.8 -14.8 -47.6 Q-18.8 -42.6 -20.8 -36.75 -22.7 -31.4 -22.95 -25.35 L-23.0 -23.45 -22.95 -21.6 Q-22.35 -6.45 -11.45 4.45 -6.9 9.0 -1.55 11.8 1.3 13.3 4.4 14.25 9.55 15.9 15.35 16.05 L16.55 16.05 19.75 15.95 19.8 15.95 M10.5 17.65 Q7.0 17.15 3.8 16.15 0.5 15.1 -2.5 13.55 -8.1 10.6 -12.85 5.85 -24.35 -5.55 -24.95 -21.5 L-25.0 -23.45 -24.95 -25.45 Q-24.4 -38.75 -16.35 -48.85 L-16.4 -48.85 -12.5 -53.2 -12.3 -53.35 -12.25 -53.4 Q-0.4 -65.0 16.55 -65.0 33.7 -65.0 45.85 -52.85 58.05 -40.65 58.05 -23.45 58.05 -9.1 49.5 1.85 L45.85 5.85 45.25 6.5 45.2 6.6 Q33.2 18.05 16.55 18.05 L16.25 18.05 16.1 18.05 12.1 17.85 12.05 17.85 10.5 17.65" fill="#5c4730" fill-rule="evenodd" stroke="none"/>
  </g>
</svg>
