<?xml version="1.0" encoding="UTF-8" standalone="no"?>
<svg xmlns:ffdec="https://www.free-decompiler.com/flash" xmlns:xlink="http://www.w3.org/1999/xlink" ffdec:objectType="shape" height="60.35px" width="38.2px" xmlns="http://www.w3.org/2000/svg">
  <g transform="matrix(1.0, 0.0, 0.0, 1.0, 7.95, 8.65)">
    <path d="M0.3 -8.65 Q2.7 -4.55 5.55 -1.05 8.4 2.4 11.7 8.7 14.95 14.95 16.95 18.2 L22.1 27.1 Q24.5 31.45 26.55 35.9 L30.25 44.45 Q29.6 47.4 27.35 49.5 23.5 53.1 18.9 50.75 18.1 50.4 17.6 49.85 14.3 46.2 11.6 41.95 L7.0 34.7 2.1 26.85 -2.65 18.25 Q-4.65 14.3 -7.95 4.65 L-5.9 8.2 -4.75 10.55 Q-3.55 14.5 -1.15 18.1 L3.7 25.6 8.75 33.55 13.25 40.8 Q15.6 44.65 18.75 47.75 22.5 51.35 26.15 47.75 27.45 46.3 28.1 44.5 L25.7 39.0 21.65 30.65 17.35 22.85 11.85 13.05 5.25 1.7 Q1.95 -3.8 0.3 -8.65" fill="#5c4730" fill-rule="evenodd" stroke="none"/>
    <path d="M-7.95 4.65 Q-5.35 4.8 -5.15 3.25 -5.0 1.65 -3.3 -3.2 -2.05 2.5 0.1 3.7 4.05 5.85 13.55 23.4 23.05 40.95 25.45 46.15 L26.15 47.75 Q22.5 51.35 18.75 47.75 15.6 44.65 13.25 40.8 L8.75 33.55 3.7 25.6 -1.15 18.1 Q-3.55 14.5 -4.75 10.55 L-5.9 8.2 -7.95 4.65" fill="#ce9255" fill-rule="evenodd" stroke="none"/>
    <path d="M-3.3 -3.2 L-3.3 -3.3 -2.65 -3.85 Q-1.95 -4.4 0.3 -8.65 1.95 -3.8 5.25 1.7 L11.85 13.05 17.35 22.85 21.65 30.65 25.7 39.0 28.1 44.5 Q27.45 46.3 26.15 47.75 L25.45 46.15 Q23.05 40.95 13.55 23.4 4.05 5.85 0.1 3.7 -2.05 2.5 -3.3 -3.2" fill="#bf824a" fill-rule="evenodd" stroke="none"/>
  </g>
</svg>
