<?xml version="1.0" encoding="UTF-8" standalone="no"?>
<svg xmlns:ffdec="https://www.free-decompiler.com/flash" xmlns:xlink="http://www.w3.org/1999/xlink" ffdec:objectType="shape" height="32.75px" width="16.4px" xmlns="http://www.w3.org/2000/svg">
  <g transform="matrix(1.0, 0.0, 0.0, 1.0, 0.1, 33.1)">
    <path d="M12.1 -19.5 L12.8 -23.0 13.5 -25.65 13.65 -26.0 14.25 -27.15 13.65 -28.75 Q12.45 -31.1 9.6 -31.1 L2.2 -31.0 4.6 -21.1 4.7 -20.8 4.75 -20.45 4.85 -20.05 Q4.7 -11.1 3.9 -8.3 3.1 -5.55 1.5 -1.95 4.25 -15.05 1.75 -24.95 L-0.05 -31.7 0.0 -32.25 0.35 -32.75 Q0.55 -32.95 0.9 -32.95 L9.65 -33.1 Q13.7 -33.1 15.4 -29.65 L16.3 -27.25 16.2 -26.55 15.4 -25.1 15.4 -25.05 14.75 -22.55 Q12.65 -13.7 14.0 -1.0 11.25 -10.1 12.1 -19.5" fill="#5c4730" fill-rule="evenodd" stroke="none"/>
    <path d="M4.85 -20.05 L4.75 -20.45 4.7 -20.8 4.6 -21.1 2.2 -31.0 9.6 -31.1 Q12.45 -31.1 13.65 -28.75 L14.25 -27.15 13.65 -26.0 13.5 -25.65 12.8 -23.0 12.1 -19.5 10.85 -19.45 Q8.55 -19.1 4.85 -20.05" fill="#a76d4b" fill-rule="evenodd" stroke="none"/>
    <path d="M4.85 -20.05 Q8.55 -19.1 10.85 -19.45 L12.1 -19.5 Q11.25 -10.1 14.0 -1.0 6.6 0.7 1.5 -1.95 3.1 -5.55 3.9 -8.3 4.7 -11.1 4.85 -20.05" fill="#bf824a" fill-rule="evenodd" stroke="none"/>
  </g>
</svg>
