<?xml version="1.0" encoding="UTF-8" standalone="no"?>
<svg xmlns:ffdec="https://www.free-decompiler.com/flash" xmlns:xlink="http://www.w3.org/1999/xlink" ffdec:objectType="shape" height="14.65px" width="27.85px" xmlns="http://www.w3.org/2000/svg">
  <g transform="matrix(1.0, 0.0, 0.0, 1.0, 12.6, 5.5)">
    <path d="M-1.0 2.35 L-0.9 2.5 -0.95 2.55 -1.0 2.35 M-8.0 5.45 L-8.0 5.5 -8.1 5.7 -8.0 5.45" fill="#463624" fill-rule="evenodd" stroke="none"/>
    <path d="M-1.0 2.35 L-2.25 2.1 Q-7.95 2.35 -9.75 4.05 L-10.35 3.3 -11.05 2.35 Q-9.4 0.85 -7.3 -0.45 -2.05 -3.75 5.75 -3.75 13.35 -3.75 13.35 0.4 13.35 3.15 9.0 5.7 3.65 8.85 -8.1 7.7 L-9.05 7.3 -9.25 7.2 -9.15 7.0 -8.1 5.7 -8.0 5.5 -8.0 5.45 -5.25 3.85 -0.95 2.55 -0.9 2.5 -1.0 2.35" fill="#e5e5e5" fill-rule="evenodd" stroke="none"/>
    <path d="M14.5 -2.8 Q15.25 -1.7 15.25 0.75 15.25 3.2 11.85 5.75 7.35 9.1 -0.25 9.1 L-4.85 9.0 -4.9 9.0 -6.1 9.15 Q-13.0 9.15 -12.55 3.55 L-12.45 2.75 Q-11.8 -0.2 -5.65 -2.8 0.65 -5.5 7.0 -5.5 12.75 -5.5 14.5 -2.8 M-9.25 7.2 L-9.05 7.3 -8.1 7.7 Q3.65 8.85 9.0 5.7 13.35 3.15 13.35 0.4 13.35 -3.75 5.75 -3.75 -2.05 -3.75 -7.3 -0.45 -9.4 0.85 -11.05 2.35 L-10.35 3.3 -9.75 4.05 Q-7.95 2.35 -2.25 2.1 L-1.0 2.35 -0.95 2.55 -5.25 3.85 -8.0 5.45 -8.1 5.7 -9.15 7.0 -9.5 7.1 -9.25 7.2" fill="#682424" fill-rule="evenodd" stroke="none"/>
  </g>
</svg>
