<?xml version="1.0" encoding="UTF-8" standalone="no"?>
<svg xmlns:ffdec="https://www.free-decompiler.com/flash" xmlns:xlink="http://www.w3.org/1999/xlink" ffdec:objectType="shape" height="21.1px" width="32.35px" xmlns="http://www.w3.org/2000/svg">
  <g transform="matrix(1.0, 0.0, 0.0, 1.0, 12.3, 17.8)">
    <path d="M19.7 -17.6 Q19.1 -17.5 18.55 -15.7 L18.5 -15.55 18.45 -15.4 18.7 -15.5 18.85 -14.7 Q18.85 -9.7 16.35 -5.2 11.65 3.3 0.0 3.3 -4.15 3.3 -5.7 2.55 -7.8 1.55 -8.65 -1.7 -9.15 -3.55 -11.15 -7.05 L-11.15 -7.45 -11.0 -7.5 -12.3 -9.75 Q-2.6 -6.45 7.15 -9.75 13.9 -12.2 18.75 -17.6 L19.55 -17.7 19.7 -17.6 M17.55 -13.8 Q16.1 -12.0 12.45 -9.5 7.0 -5.8 -0.45 -5.55 -6.35 -5.4 -9.4 -6.5 -8.65 -5.35 -7.65 -2.95 L-6.45 -0.45 Q-6.15 0.2 -6.4 0.9 L-0.35 1.3 3.15 1.15 Q4.9 -5.7 11.6 -5.7 13.5 -5.7 15.0 -5.0 L14.6 -4.45 15.9 -6.75 Q16.8 -8.9 17.35 -12.6 L17.55 -13.8 M11.65 -4.6 Q6.9 -4.6 5.2 -1.7 4.6 -0.65 4.25 1.0 10.95 0.05 14.2 -3.9 L11.65 -4.6" fill="#682424" fill-rule="evenodd" stroke="none"/>
    <path d="M17.55 -13.8 L17.35 -12.6 Q16.8 -8.9 15.9 -6.75 L14.6 -4.45 15.0 -5.0 Q13.5 -5.7 11.6 -5.7 4.9 -5.7 3.15 1.15 L-0.35 1.3 -6.4 0.9 Q-6.15 0.2 -6.45 -0.45 L-7.65 -2.95 Q-8.65 -5.35 -9.4 -6.5 -6.35 -5.4 -0.45 -5.55 7.0 -5.8 12.45 -9.5 16.1 -12.0 17.55 -13.8" fill="#57352d" fill-rule="evenodd" stroke="none"/>
    <path d="M19.7 -17.6 L19.55 -17.7 Q20.45 -17.6 19.75 -17.6 L19.7 -17.6" fill="#463624" fill-rule="evenodd" stroke="none"/>
    <path d="M18.7 -15.5 L18.45 -15.4 18.5 -15.55 18.55 -15.7 18.7 -15.5" fill="#463623" fill-rule="evenodd" stroke="none"/>
    <path d="M11.65 -4.6 L14.2 -3.9 Q10.95 0.05 4.25 1.0 4.6 -0.65 5.2 -1.7 6.9 -4.6 11.65 -4.6" fill="#b45f50" fill-rule="evenodd" stroke="none"/>
  </g>
</svg>
