<?xml version="1.0" encoding="UTF-8" standalone="no"?>
<svg xmlns:ffdec="https://www.free-decompiler.com/flash" xmlns:xlink="http://www.w3.org/1999/xlink" ffdec:objectType="shape" height="97.2px" width="123.25px" xmlns="http://www.w3.org/2000/svg">
  <g transform="matrix(1.0, 0.0, 0.0, 1.0, -10.25, 2.25)">
    <path d="M85.65 -0.25 Q97.5 9.15 100.6 20.0 103.65 31.05 102.25 43.65 100.75 56.75 106.3 67.45 L106.35 67.5 Q112.2 78.75 123.6 84.6 L128.15 86.95 Q121.7 86.6 116.65 84.6 L115.95 84.55 Q115.6 84.65 115.45 84.95 L115.25 85.6 115.55 86.2 121.6 92.7 Q91.25 95.8 38.65 52.25 L38.05 52.0 37.4 52.2 37.05 52.8 Q35.3 60.0 39.1 67.2 30.55 62.85 23.05 48.35 14.25 31.45 12.35 -0.25 L85.65 -0.25" fill="#2f1e13" fill-rule="evenodd" stroke="none"/>
    <path d="M10.25 -1.2 L10.4 -1.7 10.75 -2.1 11.25 -2.25 86.0 -2.25 86.65 -2.05 Q99.3 7.9 102.55 19.45 105.75 30.85 104.25 43.9 102.85 56.35 108.1 66.55 113.7 77.25 124.5 82.8 L124.55 82.85 132.95 87.1 133.4 87.6 133.5 88.25 133.15 88.8 132.55 89.0 Q125.35 89.2 119.6 87.65 L124.4 92.8 124.65 93.45 124.45 94.1 Q124.2 94.4 123.8 94.45 92.95 99.45 38.7 54.85 37.7 61.8 42.35 68.7 L42.5 69.3 42.3 69.85 41.8 70.2 41.2 70.2 Q30.45 66.95 21.25 49.25 L21.3 49.25 Q12.15 31.8 10.25 -1.2 M85.65 -0.25 L12.35 -0.25 Q14.25 31.45 23.05 48.35 30.55 62.85 39.1 67.2 35.3 60.0 37.05 52.8 L37.4 52.2 38.05 52.0 38.65 52.25 Q91.25 95.8 121.6 92.7 L115.55 86.2 115.25 85.6 115.45 84.95 Q115.6 84.65 115.95 84.55 L116.65 84.6 Q121.7 86.6 128.15 86.95 L123.6 84.6 Q112.2 78.75 106.35 67.5 L106.3 67.45 Q100.75 56.75 102.25 43.65 103.65 31.05 100.6 20.0 97.5 9.15 85.65 -0.25" fill="#000000" fill-rule="evenodd" stroke="none"/>
  </g>
</svg>
