<?xml version="1.0" encoding="UTF-8" standalone="no"?>
<svg xmlns:ffdec="https://www.free-decompiler.com/flash" xmlns:xlink="http://www.w3.org/1999/xlink" ffdec:objectType="shape" height="25.2px" width="39.2px" xmlns="http://www.w3.org/2000/svg">
  <g transform="matrix(1.0, 0.0, 0.0, 1.0, 29.25, 7.65)">
    <path d="M6.3 8.75 Q6.3 12.3 4.35 14.8 2.35 17.3 -0.45 17.35 -3.25 17.3 -5.2 14.8 -7.2 12.3 -7.2 8.75 L-7.2 8.65 Q-7.2 5.15 -5.2 2.65 -3.25 0.15 -0.45 0.2 2.35 0.15 4.35 2.65 6.3 5.15 6.3 8.65 L6.3 8.75 M2.6 9.4 Q2.6 6.9 1.45 5.2 0.3 3.5 -1.35 3.5 -2.4 3.45 -3.3 4.25 L-4.15 5.2 -4.9 6.9 Q-5.3 8.0 -5.3 9.4 -5.3 11.85 -4.15 13.55 -2.95 15.25 -1.35 15.3 0.3 15.25 1.45 13.55 2.6 11.85 2.6 9.4 M-16.7 5.1 Q-17.65 5.05 -18.4 5.75 L-19.15 6.6 -19.8 8.05 Q-20.15 9.0 -20.15 10.2 -20.15 12.3 -19.15 13.8 -18.1 15.3 -16.7 15.35 -15.3 15.3 -14.3 13.8 -13.3 12.3 -13.25 10.2 -13.3 8.05 -14.3 6.6 -15.3 5.1 -16.7 5.1 M-10.9 8.95 Q-10.95 12.5 -12.9 15.0 -14.9 17.55 -17.7 17.55 -20.5 17.55 -22.45 15.0 -24.45 12.5 -24.45 8.95 L-24.45 8.9 Q-24.45 5.4 -22.45 2.9 -20.5 0.4 -17.7 0.4 -14.9 0.4 -12.9 2.9 -10.95 5.4 -10.9 8.9 L-10.9 8.95" fill="#754b33" fill-rule="evenodd" stroke="none"/>
    <path d="M2.6 9.4 Q2.6 11.85 1.45 13.55 0.3 15.25 -1.35 15.3 -2.95 15.25 -4.15 13.55 -5.3 11.85 -5.3 9.4 -5.3 8.0 -4.9 6.9 L-4.15 5.2 -3.3 4.25 Q-2.4 3.45 -1.35 3.5 0.3 3.5 1.45 5.2 2.6 6.9 2.6 9.4 M-16.7 5.1 Q-15.3 5.1 -14.3 6.6 -13.3 8.05 -13.25 10.2 -13.3 12.3 -14.3 13.8 -15.3 15.3 -16.7 15.35 -18.1 15.3 -19.15 13.8 -20.15 12.3 -20.15 10.2 -20.15 9.0 -19.8 8.05 L-19.15 6.6 -18.4 5.75 Q-17.65 5.05 -16.7 5.1" fill="#926041" fill-rule="evenodd" stroke="none"/>
    <path d="M-2.5 -5.8 L-0.95 -5.7 Q1.15 -5.15 3.85 -1.65 L6.2 1.25 6.2 1.3 Q7.1 2.3 7.65 2.3 8.4 2.15 8.7 1.6 8.9 0.8 8.55 -0.55 7.8 -3.05 4.6 -4.95 1.5 -6.8 -0.75 -6.45 L-2.5 -5.85 -2.55 -5.8 -2.5 -5.8 M9.7 -0.9 Q10.2 0.95 9.75 2.0 9.35 3.2 7.85 3.45 6.8 3.7 5.35 2.1 L5.35 2.05 2.95 -0.95 Q0.55 -4.05 -1.25 -4.6 L-1.3 -4.6 -2.25 -4.65 -2.3 -4.65 Q-3.45 -4.5 -3.9 -4.05 -4.05 -3.85 -4.25 -3.8 L-4.65 -3.9 -4.9 -4.25 -4.9 -4.65 -3.9 -6.2 Q-2.8 -7.3 -0.95 -7.55 1.6 -8.05 5.15 -5.95 8.9 -3.75 9.7 -0.9 M-16.8 -5.6 Q-17.55 -6.05 -18.55 -6.2 -20.8 -6.55 -23.85 -4.7 -27.1 -2.8 -27.8 -0.3 -28.2 1.05 -27.95 1.85 -27.7 2.4 -26.95 2.55 -26.4 2.55 -25.5 1.55 L-25.45 1.5 -23.15 -1.4 Q-20.45 -4.9 -18.35 -5.45 L-16.8 -5.55 -16.75 -5.55 -16.8 -5.6 M-28.95 -0.65 Q-28.2 -3.5 -24.45 -5.7 -20.9 -7.8 -18.35 -7.3 -16.5 -7.05 -15.35 -5.95 -14.95 -5.65 -14.4 -4.4 -14.3 -4.2 -14.35 -4.0 L-14.6 -3.65 -15.0 -3.55 -15.4 -3.8 Q-15.85 -4.25 -17.0 -4.4 L-18.0 -4.35 Q-19.85 -3.8 -22.2 -0.7 L-24.6 2.3 -24.65 2.35 Q-26.1 3.95 -27.1 3.7 L-27.15 3.7 Q-28.65 3.45 -29.05 2.25 -29.5 1.2 -28.95 -0.65" fill="#000000" fill-rule="evenodd" stroke="none"/>
    <path d="M-2.5 -5.85 L-0.75 -6.45 Q1.5 -6.8 4.6 -4.95 7.8 -3.05 8.55 -0.55 8.9 0.8 8.7 1.6 8.4 2.15 7.65 2.3 7.1 2.3 6.2 1.3 L6.2 1.25 3.85 -1.65 Q1.15 -5.15 -0.95 -5.7 L-2.5 -5.8 -2.5 -5.85 M-16.8 -5.55 L-18.35 -5.45 Q-20.45 -4.9 -23.15 -1.4 L-25.45 1.5 -25.5 1.55 Q-26.4 2.55 -26.95 2.55 -27.7 2.4 -27.95 1.85 -28.2 1.05 -27.8 -0.3 -27.1 -2.8 -23.85 -4.7 -20.8 -6.55 -18.55 -6.2 -17.55 -6.05 -16.8 -5.6 L-16.8 -5.55" fill="#2f1e13" fill-rule="evenodd" stroke="none"/>
    <path d="M-2.5 -5.85 L-2.5 -5.8 -2.55 -5.8 -2.5 -5.85 M-16.8 -5.6 L-16.75 -5.55 -16.8 -5.55 -16.8 -5.6" fill="#362d2c" fill-rule="evenodd" stroke="none"/>
    <path d="M2.6 9.4 Q2.6 11.85 1.45 13.55 0.3 15.25 -1.35 15.3 -2.95 15.25 -4.15 13.55 -5.3 11.85 -5.3 9.4 -5.3 8.0 -4.9 6.9 L-4.15 5.2 -3.3 4.25 Q-2.4 3.45 -1.35 3.5 0.3 3.5 1.45 5.2 2.6 6.9 2.6 9.4 M-16.7 5.1 Q-15.3 5.1 -14.3 6.6 -13.3 8.05 -13.25 10.2 -13.3 12.3 -14.3 13.8 -15.3 15.3 -16.7 15.35 -18.1 15.3 -19.15 13.8 -20.15 12.3 -20.15 10.2 -20.15 9.0 -19.8 8.05 L-19.15 6.6 -18.4 5.75 Q-17.65 5.05 -16.7 5.1 Z" fill="none" stroke="#000000" stroke-linecap="round" stroke-linejoin="round" stroke-width="3.5"/>
  </g>
</svg>
