<?xml version="1.0" encoding="UTF-8" standalone="no"?>
<svg xmlns:ffdec="https://www.free-decompiler.com/flash" xmlns:xlink="http://www.w3.org/1999/xlink" ffdec:objectType="shape" height="22.1px" width="39.9px" xmlns="http://www.w3.org/2000/svg">
  <g transform="matrix(1.0, 0.0, 0.0, 1.0, 29.55, 6.05)">
    <path d="M2.6 10.3 Q2.6 8.75 1.45 7.7 0.3 6.6 -1.35 6.6 -2.4 6.6 -3.3 7.05 -3.75 7.3 -4.15 7.7 L-4.9 8.75 Q-5.3 9.45 -5.3 10.3 -5.3 11.8 -4.15 12.9 -2.95 14.0 -1.35 14.0 0.3 14.0 1.45 12.9 2.6 11.8 2.6 10.3 M5.25 9.45 Q5.25 12.2 3.4 14.1 1.55 16.05 -1.0 16.05 -3.55 16.05 -5.4 14.1 -7.25 12.2 -7.2 9.45 L-7.2 9.4 Q-7.2 6.7 -5.4 4.8 -3.55 2.9 -1.0 2.9 1.55 2.9 3.4 4.8 5.2 6.7 5.25 9.4 L5.25 9.45 M-16.7 7.6 L-18.4 8.0 -19.15 8.55 -19.8 9.45 Q-20.15 10.05 -20.15 10.8 -20.15 12.15 -19.15 13.1 -18.1 14.0 -16.7 14.05 -15.3 14.0 -14.3 13.1 -13.3 12.15 -13.25 10.8 -13.3 9.45 -14.3 8.55 -15.3 7.6 -16.7 7.6 M-10.9 9.45 Q-10.9 12.05 -12.75 13.95 -14.6 15.8 -17.15 15.8 -19.7 15.8 -21.55 13.95 -23.4 12.05 -23.35 9.45 L-23.35 9.4 Q-23.35 6.8 -21.55 4.95 -19.7 3.05 -17.15 3.05 -14.6 3.05 -12.75 4.95 -10.95 6.8 -10.9 9.4 L-10.9 9.45" fill="#754b33" fill-rule="evenodd" stroke="none"/>
    <path d="M2.6 10.3 Q2.6 11.8 1.45 12.9 0.3 14.0 -1.35 14.0 -2.95 14.0 -4.15 12.9 -5.3 11.8 -5.3 10.3 -5.3 9.45 -4.9 8.75 L-4.15 7.7 Q-3.75 7.3 -3.3 7.05 -2.4 6.6 -1.35 6.6 0.3 6.6 1.45 7.7 2.6 8.75 2.6 10.3 M-16.7 7.6 Q-15.3 7.6 -14.3 8.55 -13.3 9.45 -13.25 10.8 -13.3 12.15 -14.3 13.1 -15.3 14.0 -16.7 14.05 -18.1 14.0 -19.15 13.1 -20.15 12.15 -20.15 10.8 -20.15 10.05 -19.8 9.45 L-19.15 8.55 -18.4 8.0 -16.7 7.6" fill="#926041" fill-rule="evenodd" stroke="none"/>
    <path d="M4.15 -3.95 Q0.85 -5.3 -1.3 -4.65 -2.3 -4.35 -2.95 -3.8 L-1.4 -3.9 -1.4 -3.95 Q0.8 -3.65 3.9 -0.6 L6.6 1.95 6.65 2.0 Q7.7 2.85 8.25 2.8 L8.2 2.8 Q8.95 2.55 9.15 1.95 9.25 1.15 8.7 -0.15 7.6 -2.5 4.15 -3.95 M9.8 -0.65 Q10.55 1.1 10.25 2.2 10.0 3.45 8.6 3.9 L8.55 3.9 Q7.6 4.25 5.9 2.9 L5.9 2.85 3.1 0.25 Q0.3 -2.5 -1.55 -2.75 L-1.6 -2.8 -2.55 -2.7 -2.6 -2.7 Q-3.75 -2.4 -4.1 -1.85 L-4.4 -1.6 -4.8 -1.6 -5.1 -1.9 -5.15 -2.3 Q-4.8 -3.65 -4.4 -4.0 -3.5 -5.2 -1.65 -5.75 0.8 -6.6 4.6 -5.0 8.6 -3.35 9.8 -0.65 M-23.45 -3.85 Q-26.9 -2.4 -27.95 -0.05 -28.5 1.25 -28.35 2.05 -28.15 2.65 -27.4 2.9 L-27.45 2.9 Q-26.9 2.95 -25.85 2.1 L-25.85 2.05 -23.15 -0.55 Q-20.1 -3.65 -17.9 -3.95 L-16.35 -3.85 Q-17.0 -4.4 -18.0 -4.7 -20.15 -5.3 -23.45 -3.85 M-29.0 -0.5 Q-27.9 -3.25 -23.9 -4.95 -20.15 -6.55 -17.65 -5.75 -15.85 -5.25 -14.9 -4.05 -14.55 -3.7 -14.15 -2.35 L-14.15 -1.95 -14.45 -1.65 -14.85 -1.65 -15.2 -1.9 Q-15.55 -2.4 -16.7 -2.7 L-17.7 -2.8 Q-19.6 -2.45 -22.3 0.3 L-22.35 0.3 -25.1 2.95 Q-26.8 4.35 -27.75 4.0 -29.2 3.6 -29.45 2.35 -29.75 1.25 -29.0 -0.5" fill="#000000" fill-rule="evenodd" stroke="none"/>
    <path d="M4.15 -3.95 Q7.6 -2.5 8.7 -0.15 9.25 1.15 9.15 1.95 8.95 2.55 8.2 2.8 L8.25 2.8 Q7.7 2.85 6.65 2.0 L6.6 1.95 3.9 -0.6 Q0.8 -3.65 -1.4 -3.95 L-1.4 -3.9 -2.95 -3.8 Q-2.3 -4.35 -1.3 -4.65 0.85 -5.3 4.15 -3.95 M-23.45 -3.85 Q-20.15 -5.3 -18.0 -4.7 -17.0 -4.4 -16.35 -3.85 L-17.9 -3.95 Q-20.1 -3.65 -23.15 -0.55 L-25.85 2.05 -25.85 2.1 Q-26.9 2.95 -27.45 2.9 L-27.4 2.9 Q-28.15 2.65 -28.35 2.05 -28.5 1.25 -27.95 -0.05 -26.9 -2.4 -23.45 -3.85" fill="#2f1e13" fill-rule="evenodd" stroke="none"/>
    <path d="M2.6 10.3 Q2.6 11.8 1.45 12.9 0.3 14.0 -1.35 14.0 -2.95 14.0 -4.15 12.9 -5.3 11.8 -5.3 10.3 -5.3 9.45 -4.9 8.75 L-4.15 7.7 Q-3.75 7.3 -3.3 7.05 -2.4 6.6 -1.35 6.6 0.3 6.6 1.45 7.7 2.6 8.75 2.6 10.3 M-16.7 7.6 Q-15.3 7.6 -14.3 8.55 -13.3 9.45 -13.25 10.8 -13.3 12.15 -14.3 13.1 -15.3 14.0 -16.7 14.05 -18.1 14.0 -19.15 13.1 -20.15 12.15 -20.15 10.8 -20.15 10.05 -19.8 9.45 L-19.15 8.55 -18.4 8.0 -16.7 7.6 Z" fill="none" stroke="#000000" stroke-linecap="round" stroke-linejoin="round" stroke-width="3.5"/>
  </g>
</svg>
