<?xml version="1.0" encoding="UTF-8" standalone="no"?>
<svg xmlns:ffdec="https://www.free-decompiler.com/flash" xmlns:xlink="http://www.w3.org/1999/xlink" ffdec:objectType="shape" height="18.2px" width="40.25px" xmlns="http://www.w3.org/2000/svg">
  <g transform="matrix(1.0, 0.0, 0.0, 1.0, 29.75, 5.1)">
    <path d="M5.25 7.9 Q5.25 9.95 3.4 11.45 1.55 12.9 -1.0 12.9 -3.55 12.9 -5.4 11.45 -7.25 9.95 -7.2 7.9 L-7.2 7.85 Q-7.2 5.8 -5.4 4.35 -3.55 2.9 -1.0 2.9 1.55 2.9 3.4 4.35 5.2 5.8 5.25 7.85 L5.25 7.9 M-20.2 10.8 L-13.25 10.55 -20.2 10.8 M-10.9 8.05 L-10.9 8.1 Q-10.9 10.15 -12.75 11.6 -14.6 13.1 -17.15 13.1 -19.7 13.1 -21.55 11.6 -23.4 10.15 -23.35 8.1 L-23.35 8.05 Q-23.35 6.0 -21.55 4.55 -19.7 3.1 -17.15 3.1 -14.6 3.1 -12.75 4.55 -10.95 6.0 -10.9 8.05 M-5.5 10.35 L3.55 9.7 -5.5 10.35" fill="#754b33" fill-rule="evenodd" stroke="none"/>
    <path d="M9.8 -0.45 Q10.65 1.25 10.5 2.35 10.3 3.6 8.95 4.2 8.0 4.65 6.2 3.4 L6.2 3.35 3.2 1.0 3.2 0.95 Q0.2 -1.55 -1.7 -1.65 L-2.7 -1.5 Q-3.85 -1.1 -4.15 -0.55 L-4.45 -0.25 -4.85 -0.25 -5.2 -0.5 -5.25 -0.9 -4.65 -2.7 Q-3.8 -3.95 -2.0 -4.65 L4.25 -4.4 Q8.35 -3.05 9.8 -0.45 M-3.15 -2.6 L-1.65 -2.8 -1.65 -2.85 -1.6 -2.85 Q0.55 -2.75 3.95 0.05 L6.85 2.4 6.85 2.45 Q7.95 3.2 8.5 3.1 9.2 2.8 9.35 2.2 9.4 1.35 8.75 0.1 7.5 -2.1 3.95 -3.25 0.5 -4.4 -1.6 -3.6 -2.55 -3.2 -3.15 -2.6 L-3.2 -2.6 -3.15 -2.6 M-28.95 -0.4 Q-27.45 -3.0 -23.3 -4.15 -19.35 -5.25 -17.0 -4.15 -15.25 -3.4 -14.45 -2.1 -14.15 -1.7 -13.95 -0.3 -13.9 -0.1 -14.0 0.1 L-14.35 0.35 -14.75 0.3 -15.05 0.0 Q-15.35 -0.55 -16.4 -1.0 L-16.45 -1.0 -17.4 -1.2 -17.45 -1.2 Q-19.35 -1.1 -22.4 1.25 L-25.5 3.55 -25.55 3.55 Q-27.4 4.7 -28.3 4.25 -29.65 3.65 -29.75 2.35 -29.9 1.25 -28.95 -0.4 M-17.45 -2.35 L-15.95 -2.05 Q-16.55 -2.7 -17.45 -3.1 -19.55 -4.0 -23.0 -3.0 -26.6 -2.0 -27.95 0.2 -28.7 1.4 -28.6 2.25 -28.55 2.85 -27.8 3.2 -27.3 3.3 -26.15 2.6 L-26.1 2.55 -23.15 0.35 Q-19.7 -2.35 -17.45 -2.35" fill="#000000" fill-rule="evenodd" stroke="none"/>
    <path d="M-3.15 -2.6 Q-2.55 -3.2 -1.6 -3.6 0.5 -4.4 3.95 -3.25 7.5 -2.1 8.75 0.1 9.4 1.35 9.35 2.2 9.2 2.8 8.5 3.1 7.95 3.2 6.85 2.45 L6.85 2.4 3.95 0.05 Q0.55 -2.75 -1.6 -2.85 L-1.65 -2.85 -1.65 -2.8 -3.15 -2.6 M-17.45 -2.35 Q-19.7 -2.35 -23.15 0.35 L-26.1 2.55 -26.15 2.6 Q-27.3 3.3 -27.8 3.2 -28.55 2.85 -28.6 2.25 -28.7 1.4 -27.95 0.2 -26.6 -2.0 -23.0 -3.0 -19.55 -4.0 -17.45 -3.1 -16.55 -2.7 -15.95 -2.05 L-17.45 -2.35" fill="#2f1e13" fill-rule="evenodd" stroke="none"/>
    <path d="M-3.15 -2.6 L-3.2 -2.6 -3.15 -2.6" fill="#362d2c" fill-rule="evenodd" stroke="none"/>
    <path d="M-13.25 10.55 L-20.2 10.8 M3.55 9.7 L-5.5 10.35" fill="none" stroke="#333333" stroke-linecap="round" stroke-linejoin="round" stroke-width="2.0"/>
  </g>
</svg>
