<?xml version="1.0" encoding="UTF-8" standalone="no"?>
<svg xmlns:ffdec="https://www.free-decompiler.com/flash" xmlns:xlink="http://www.w3.org/1999/xlink" ffdec:objectType="shape" height="28.4px" width="39.2px" xmlns="http://www.w3.org/2000/svg">
  <g transform="matrix(1.0, 0.0, 0.0, 1.0, 29.25, 10.9)">
    <path d="M-1.1 1.6 Q-2.35 1.6 -3.4 2.5 L-4.35 3.6 -5.25 5.55 Q-5.7 6.85 -5.65 8.45 -5.65 11.3 -4.35 13.25 -3.0 15.25 -1.1 15.3 0.75 15.25 2.1 13.25 3.45 11.3 3.45 8.45 3.45 5.6 2.1 3.6 0.75 1.6 -1.1 1.6 M-5.15 1.2 Q-3.1 -1.55 -0.2 -1.55 2.65 -1.55 4.7 1.2 6.7 3.95 6.75 7.8 L6.75 7.9 Q6.75 11.75 4.7 14.5 2.65 17.3 -0.2 17.3 -3.1 17.3 -5.15 14.5 -7.2 11.75 -7.2 7.9 L-7.2 7.8 Q-7.15 3.95 -5.15 1.2 M-10.9 8.0 L-10.9 8.1 Q-10.95 12.0 -12.95 14.75 -15.0 17.5 -17.85 17.5 -20.75 17.5 -22.8 14.75 -24.85 12.0 -24.85 8.1 L-24.85 8.0 Q-24.8 4.15 -22.8 1.45 -20.75 -1.3 -17.85 -1.3 -15.0 -1.3 -12.95 1.45 -10.95 4.15 -10.9 8.0 M-17.65 3.5 Q-18.75 3.45 -19.6 4.25 L-20.45 5.2 -21.25 6.9 Q-21.65 8.0 -21.65 9.4 -21.65 11.85 -20.45 13.55 -19.3 15.3 -17.65 15.3 -16.05 15.3 -14.9 13.55 -13.7 11.85 -13.7 9.4 -13.7 6.95 -14.9 5.2 -16.05 3.45 -17.65 3.5" fill="#754b33" fill-rule="evenodd" stroke="none"/>
    <path d="M-1.1 1.6 Q0.75 1.6 2.1 3.6 3.45 5.6 3.45 8.45 3.45 11.3 2.1 13.25 0.75 15.25 -1.1 15.3 -3.0 15.25 -4.35 13.25 -5.65 11.3 -5.65 8.45 -5.7 6.85 -5.25 5.55 L-4.35 3.6 -3.4 2.5 Q-2.35 1.6 -1.1 1.6 M-17.65 3.5 Q-16.05 3.45 -14.9 5.2 -13.7 6.95 -13.7 9.4 -13.7 11.85 -14.9 13.55 -16.05 15.3 -17.65 15.3 -19.3 15.3 -20.45 13.55 -21.65 11.85 -21.65 9.4 -21.65 8.0 -21.25 6.9 L-20.45 5.2 -19.6 4.25 Q-18.75 3.45 -17.65 3.5" fill="#926041" fill-rule="evenodd" stroke="none"/>
    <path d="M2.95 -4.2 Q0.55 -7.3 -1.25 -7.85 L-1.3 -7.85 -2.25 -7.9 -2.3 -7.9 Q-3.45 -7.75 -3.9 -7.3 -4.05 -7.1 -4.25 -7.05 L-4.65 -7.15 -4.9 -7.5 -4.9 -7.9 -3.9 -9.45 Q-2.8 -10.55 -0.95 -10.8 1.6 -11.3 5.15 -9.2 8.9 -7.0 9.7 -4.15 10.2 -2.3 9.75 -1.25 9.35 -0.05 7.85 0.2 6.8 0.45 5.35 -1.15 L5.35 -1.2 2.95 -4.2 M-2.5 -9.05 L-0.95 -8.95 Q1.15 -8.4 3.85 -4.9 L6.2 -2.0 6.2 -1.95 Q7.1 -0.95 7.65 -0.95 8.4 -1.1 8.7 -1.65 8.9 -2.45 8.55 -3.8 7.8 -6.3 4.6 -8.2 1.5 -10.05 -0.75 -9.7 L-2.5 -9.1 -2.55 -9.05 -2.5 -9.05 M-29.05 -1.0 Q-29.5 -2.05 -28.95 -3.9 -28.2 -6.75 -24.45 -8.95 -20.9 -11.05 -18.35 -10.55 -16.5 -10.3 -15.35 -9.2 -14.95 -8.9 -14.4 -7.65 -14.3 -7.45 -14.35 -7.25 L-14.6 -6.9 -15.0 -6.8 -15.4 -7.05 Q-15.85 -7.5 -17.0 -7.65 L-18.0 -7.6 Q-19.85 -7.05 -22.2 -3.95 L-24.6 -0.95 -24.65 -0.9 Q-26.1 0.7 -27.1 0.45 L-27.15 0.45 Q-28.65 0.2 -29.05 -1.0 M-16.8 -8.85 Q-17.55 -9.3 -18.55 -9.45 -20.8 -9.8 -23.85 -7.95 -27.1 -6.05 -27.8 -3.55 -28.2 -2.2 -27.95 -1.4 -27.7 -0.85 -26.95 -0.7 -26.4 -0.7 -25.5 -1.7 L-25.45 -1.75 -23.15 -4.65 Q-20.45 -8.15 -18.35 -8.7 L-16.8 -8.8 -16.75 -8.8 -16.8 -8.85" fill="#000000" fill-rule="evenodd" stroke="none"/>
    <path d="M-2.5 -9.1 L-0.75 -9.7 Q1.5 -10.05 4.6 -8.2 7.8 -6.3 8.55 -3.8 8.9 -2.45 8.7 -1.65 8.4 -1.1 7.65 -0.95 7.1 -0.95 6.2 -1.95 L6.2 -2.0 3.85 -4.9 Q1.15 -8.4 -0.95 -8.95 L-2.5 -9.05 -2.5 -9.1 M-16.8 -8.8 L-18.35 -8.7 Q-20.45 -8.15 -23.15 -4.65 L-25.45 -1.75 -25.5 -1.7 Q-26.4 -0.7 -26.95 -0.7 -27.7 -0.85 -27.95 -1.4 -28.2 -2.2 -27.8 -3.55 -27.1 -6.05 -23.85 -7.95 -20.8 -9.8 -18.55 -9.45 -17.55 -9.3 -16.8 -8.85 L-16.8 -8.8" fill="#2f1e13" fill-rule="evenodd" stroke="none"/>
    <path d="M-2.5 -9.1 L-2.5 -9.05 -2.55 -9.05 -2.5 -9.1 M-16.8 -8.85 L-16.75 -8.8 -16.8 -8.8 -16.8 -8.85" fill="#362d2c" fill-rule="evenodd" stroke="none"/>
    <path d="M-1.1 1.6 Q0.75 1.6 2.1 3.6 3.45 5.6 3.45 8.45 3.45 11.3 2.1 13.25 0.75 15.25 -1.1 15.3 -3.0 15.25 -4.35 13.25 -5.65 11.3 -5.65 8.45 -5.7 6.85 -5.25 5.55 L-4.35 3.6 -3.4 2.5 Q-2.35 1.6 -1.1 1.6 M-17.65 3.5 Q-16.05 3.45 -14.9 5.2 -13.7 6.95 -13.7 9.4 -13.7 11.85 -14.9 13.55 -16.05 15.3 -17.65 15.3 -19.3 15.3 -20.45 13.55 -21.65 11.85 -21.65 9.4 -21.65 8.0 -21.25 6.9 L-20.45 5.2 -19.6 4.25 Q-18.75 3.45 -17.65 3.5 Z" fill="none" stroke="#000000" stroke-linecap="round" stroke-linejoin="round" stroke-width="3.5"/>
  </g>
</svg>
