<?xml version="1.0" encoding="UTF-8" standalone="no"?>
<svg xmlns:ffdec="https://www.free-decompiler.com/flash" xmlns:xlink="http://www.w3.org/1999/xlink" ffdec:objectType="shape" height="25.7px" width="38.3px" xmlns="http://www.w3.org/2000/svg">
  <g transform="matrix(1.0, 0.0, 0.0, 1.0, 28.85, 8.15)">
    <path d="M-14.2 4.6 L-13.8 4.65 -13.65 4.95 Q-13.45 5.6 -13.4 6.25 -13.2 8.65 -13.35 11.3 -13.45 12.65 -14.4 13.8 L-15.5 14.8 Q-17.15 15.9 -18.5 14.45 -19.45 13.6 -19.85 12.15 -20.45 10.05 -19.65 8.9 L-14.2 4.6 M-5.2 10.6 Q-5.55 7.4 -3.85 4.7 L-3.85 4.15 -3.65 4.2 Q-1.4 5.3 0.45 7.35 L1.15 8.3 Q1.7 9.1 2.05 10.0 2.75 12.05 1.5 13.8 0.75 14.85 -0.55 15.2 -2.25 15.6 -3.45 14.35 -4.95 12.7 -5.2 10.6" fill="#926041" fill-rule="evenodd" stroke="none"/>
    <path d="M-0.65 0.2 Q1.85 0.15 2.6 2.65 3.4 5.15 4.65 7.2 5.85 9.25 5.45 11.15 5.05 13.0 3.7 15.15 2.35 17.3 -0.45 17.35 -3.25 17.3 -5.2 14.8 -7.2 12.3 -7.2 8.75 L-7.2 8.65 Q-7.2 5.15 -5.2 2.65 -3.25 0.15 -0.65 0.2 M-5.2 10.6 Q-4.95 12.7 -3.45 14.35 -2.25 15.6 -0.55 15.2 0.75 14.85 1.5 13.8 2.75 12.05 2.05 10.0 1.7 9.1 1.15 8.3 L0.45 7.35 Q-1.4 5.3 -3.65 4.2 L-3.85 4.15 -3.85 4.7 Q-5.55 7.4 -5.2 10.6 M-14.2 4.6 L-19.65 8.9 Q-20.45 10.05 -19.85 12.15 -19.45 13.6 -18.5 14.45 -17.15 15.9 -15.5 14.8 L-14.4 13.8 Q-13.45 12.65 -13.35 11.3 -13.2 8.65 -13.4 6.25 -13.45 5.6 -13.65 4.95 L-13.8 4.65 -14.2 4.6 M-10.9 8.95 Q-10.95 12.5 -12.9 15.0 -14.9 17.55 -17.7 17.55 -20.5 17.55 -22.45 15.0 -24.45 12.5 -24.45 8.95 L-23.8 7.45 Q-23.2 6.0 -20.75 3.75 -18.3 1.45 -16.6 0.95 -14.9 0.4 -12.9 2.9 -10.95 5.4 -10.9 8.9 L-10.9 8.95" fill="#754b33" fill-rule="evenodd" stroke="none"/>
    <path d="M5.85 -5.55 Q9.1 -2.75 9.4 0.2 9.6 2.1 9.0 3.05 8.4 4.2 6.9 4.2 L6.85 4.2 Q5.8 4.25 4.65 2.4 L4.65 2.35 2.8 -1.0 Q0.95 -4.45 -0.75 -5.3 L-1.7 -5.5 -1.7 -5.55 -3.4 -5.2 Q-3.6 -5.05 -3.8 -5.05 -4.05 -5.05 -4.2 -5.2 L-4.4 -5.55 -4.3 -5.95 -3.05 -7.35 Q-1.8 -8.2 0.1 -8.15 2.7 -8.2 5.85 -5.55 M-1.7 -6.7 L-0.2 -6.35 Q1.75 -5.4 3.8 -1.55 L5.6 1.75 5.65 1.75 Q6.35 2.9 6.9 3.0 7.65 3.0 8.0 2.5 8.4 1.75 8.25 0.35 7.95 -2.2 5.1 -4.65 2.35 -7.0 0.1 -7.0 L-1.75 -6.7 -1.7 -6.7 M-22.05 -0.7 L-22.05 -0.65 -24.1 2.6 -24.15 2.6 Q-25.4 4.35 -26.4 4.25 L-26.45 4.25 Q-27.95 4.2 -28.5 3.05 -29.05 2.05 -28.75 0.15 -28.35 -2.8 -24.9 -5.4 -21.65 -7.9 -19.0 -7.7 -17.1 -7.65 -15.9 -6.7 -15.45 -6.45 -14.75 -5.25 L-14.65 -4.85 -14.9 -4.5 -15.3 -4.4 Q-15.5 -4.4 -15.65 -4.55 -16.15 -5.0 -17.35 -5.0 L-17.35 -4.95 -18.3 -4.8 -18.35 -4.8 Q-20.1 -4.05 -22.05 -0.7 M-17.25 -6.15 Q-18.05 -6.55 -19.05 -6.55 -21.35 -6.65 -24.2 -4.45 -27.2 -2.15 -27.6 0.35 -27.85 1.75 -27.5 2.5 -27.2 3.05 -26.4 3.1 -25.85 3.0 -25.05 1.9 L-23.1 -1.3 Q-20.85 -5.05 -18.8 -5.85 L-18.8 -5.9 -18.8 -5.85 -17.25 -6.15 -17.2 -6.15 -17.25 -6.15" fill="#000000" fill-rule="evenodd" stroke="none"/>
    <path d="M-1.75 -6.7 L-1.7 -6.7 -1.75 -6.7 M-17.25 -6.15 L-17.2 -6.15 -17.25 -6.15" fill="#362d2c" fill-rule="evenodd" stroke="none"/>
    <path d="M-1.75 -6.7 L0.1 -7.0 Q2.35 -7.0 5.1 -4.65 7.95 -2.2 8.25 0.35 8.4 1.75 8.0 2.5 7.65 3.0 6.9 3.0 6.35 2.9 5.65 1.75 L5.6 1.75 3.8 -1.55 Q1.75 -5.4 -0.2 -6.35 L-1.7 -6.7 -1.75 -6.7 M-17.25 -6.15 L-18.8 -5.85 -18.8 -5.9 -18.8 -5.85 Q-20.85 -5.05 -23.1 -1.3 L-25.05 1.9 Q-25.85 3.0 -26.4 3.1 -27.2 3.05 -27.5 2.5 -27.85 1.75 -27.6 0.35 -27.2 -2.15 -24.2 -4.45 -21.35 -6.65 -19.05 -6.55 -18.05 -6.55 -17.25 -6.15" fill="#2f1e13" fill-rule="evenodd" stroke="none"/>
    <path d="M-5.2 10.6 Q-4.95 12.7 -3.45 14.35 -2.25 15.6 -0.55 15.2 0.75 14.85 1.5 13.8 2.75 12.05 2.05 10.0 1.7 9.1 1.15 8.3 L0.45 7.35 Q-1.4 5.3 -3.65 4.2 L-3.85 4.15 -3.85 4.7 Q-5.55 7.4 -5.2 10.6 M-14.2 4.6 L-19.65 8.9 Q-20.45 10.05 -19.85 12.15 -19.45 13.6 -18.5 14.45 -17.15 15.9 -15.5 14.8 L-14.4 13.8 Q-13.45 12.65 -13.35 11.3 -13.2 8.65 -13.4 6.25 -13.45 5.6 -13.65 4.95 L-13.8 4.65 -14.2 4.6 Z" fill="none" stroke="#000000" stroke-linecap="round" stroke-linejoin="round" stroke-width="3.5"/>
  </g>
</svg>
