<?xml version="1.0" encoding="UTF-8" standalone="no"?>
<svg xmlns:ffdec="https://www.free-decompiler.com/flash" xmlns:xlink="http://www.w3.org/1999/xlink" ffdec:objectType="shape" height="21.9px" width="40.7px" xmlns="http://www.w3.org/2000/svg">
  <g transform="matrix(1.0, 0.0, 0.0, 1.0, 30.0, 4.35)">
    <path d="M-0.05 0.9 Q2.35 0.15 4.35 2.65 6.3 5.15 6.3 8.65 L6.3 8.75 Q6.3 12.3 4.35 14.8 2.35 17.3 -0.45 17.35 -3.25 17.3 -5.2 14.8 -7.2 12.3 -7.2 8.75 L-6.5 8.15 Q-5.85 7.55 -4.15 4.55 -2.45 1.55 -0.05 0.9 M-6.15 10.8 L-5.25 10.2 -6.15 10.8 M-13.3 9.8 L-19.7 7.65 -19.8 8.05 Q-20.15 9.0 -20.15 10.2 -20.15 12.3 -19.15 13.8 -18.1 15.3 -16.7 15.35 -15.3 15.3 -14.3 13.8 -13.3 12.3 -13.25 10.2 L-13.3 9.8 -12.8 9.95 -13.3 9.8 M-10.9 8.95 Q-10.95 12.5 -12.9 15.0 -14.9 17.55 -17.7 17.55 -20.5 17.55 -22.45 15.0 -24.45 12.5 -24.45 8.95 L-24.45 8.9 Q-24.45 5.4 -22.45 2.9 -20.5 0.4 -18.0 2.25 -15.6 4.05 -13.35 5.2 -11.15 6.35 -11.05 7.65 L-10.9 8.95 M-5.25 10.2 Q-5.1 12.15 -4.15 13.55 -2.95 15.25 -1.35 15.3 0.3 15.25 1.45 13.55 2.6 11.85 2.6 9.4 2.6 7.3 1.75 5.75 L-5.25 10.2" fill="#754b33" fill-rule="evenodd" stroke="none"/>
    <path d="M-13.3 9.8 L-13.25 10.2 Q-13.3 12.3 -14.3 13.8 -15.3 15.3 -16.7 15.35 -18.1 15.3 -19.15 13.8 -20.15 12.3 -20.15 10.2 -20.15 9.0 -19.8 8.05 L-19.7 7.65 -13.3 9.8 M-5.25 10.2 L1.75 5.75 Q2.6 7.3 2.6 9.4 2.6 11.85 1.45 13.55 0.3 15.25 -1.35 15.3 -2.95 15.25 -4.15 13.55 -5.1 12.15 -5.25 10.2" fill="#926041" fill-rule="evenodd" stroke="none"/>
    <path d="M9.05 -2.5 Q10.45 -1.25 10.65 -0.1 10.95 1.15 9.85 2.15 L7.0 2.3 3.35 1.1 Q-0.3 -0.25 -2.15 0.3 L-2.15 0.25 -3.0 0.75 -3.05 0.75 Q-3.95 1.5 -4.05 2.15 L-4.25 2.55 -4.6 2.7 -5.0 2.55 -5.2 2.2 -5.25 0.35 Q-4.9 -1.15 -3.45 -2.4 -1.55 -4.2 2.55 -4.35 6.85 -4.5 9.05 -2.5 M-3.85 -0.1 L-2.45 -0.85 -2.5 -0.85 -2.45 -0.85 Q-0.4 -1.5 3.75 -0.05 L7.25 1.2 7.3 1.2 9.05 1.25 Q9.65 0.75 9.55 0.1 9.35 -0.65 8.25 -1.6 6.35 -3.3 2.6 -3.15 -1.0 -3.05 -2.7 -1.55 L-3.85 -0.1 -3.85 -0.05 -3.85 -0.1 M-28.75 -1.2 Q-26.9 -3.5 -22.6 -4.0 -18.55 -4.5 -16.4 -3.0 -14.8 -2.0 -14.2 -0.6 -14.0 -0.15 -13.95 1.25 L-14.1 1.65 -14.45 1.85 -14.85 1.75 -15.1 1.4 Q-15.3 0.8 -16.3 0.2 L-16.35 0.2 -17.25 -0.15 -17.3 -0.15 Q-19.2 -0.4 -22.6 1.45 L-22.6 1.5 -26.0 3.25 -26.05 3.25 Q-28.05 4.1 -28.85 3.5 -30.15 2.7 -30.0 1.4 -30.0 0.3 -28.75 -1.2 M-15.65 -0.8 Q-16.15 -1.5 -17.0 -2.05 -18.95 -3.3 -22.5 -2.85 -26.25 -2.4 -27.85 -0.45 -28.8 0.65 -28.85 1.45 -28.9 2.1 -28.2 2.55 L-28.25 2.55 Q-27.75 2.75 -26.5 2.2 L-26.45 2.15 -23.15 0.45 Q-19.3 -1.65 -17.15 -1.3 -16.3 -1.25 -15.7 -0.8 L-15.65 -0.75 -15.65 -0.8" fill="#000000" fill-rule="evenodd" stroke="none"/>
    <path d="M-3.85 -0.1 L-2.7 -1.55 Q-1.0 -3.05 2.6 -3.15 6.35 -3.3 8.25 -1.6 9.35 -0.65 9.55 0.1 9.65 0.75 9.05 1.25 L7.3 1.2 7.25 1.2 3.75 -0.05 Q-0.4 -1.5 -2.45 -0.85 L-2.5 -0.85 -2.45 -0.85 -3.85 -0.1 M-15.7 -0.8 Q-16.3 -1.25 -17.15 -1.3 -19.3 -1.65 -23.15 0.45 L-26.45 2.15 -26.5 2.2 Q-27.75 2.75 -28.25 2.55 L-28.2 2.55 Q-28.9 2.1 -28.85 1.45 -28.8 0.65 -27.85 -0.45 -26.25 -2.4 -22.5 -2.85 -18.95 -3.3 -17.0 -2.05 -16.15 -1.5 -15.65 -0.8 L-15.7 -0.8" fill="#2f1e13" fill-rule="evenodd" stroke="none"/>
    <path d="M-3.85 -0.1 L-3.85 -0.05 -3.85 -0.1 M-15.65 -0.8 L-15.65 -0.75 -15.7 -0.8 -15.65 -0.8" fill="#362d2c" fill-rule="evenodd" stroke="none"/>
    <path d="M-5.25 10.2 L-6.15 10.8 M-13.3 9.8 L-13.25 10.2 Q-13.3 12.3 -14.3 13.8 -15.3 15.3 -16.7 15.35 -18.1 15.3 -19.15 13.8 -20.15 12.3 -20.15 10.2 -20.15 9.0 -19.8 8.05 L-19.7 7.65 -13.3 9.8 -12.8 9.95 M-5.25 10.2 L1.75 5.75 Q2.6 7.3 2.6 9.4 2.6 11.85 1.45 13.55 0.3 15.25 -1.35 15.3 -2.95 15.25 -4.15 13.55 -5.1 12.15 -5.25 10.2 Z" fill="none" stroke="#000000" stroke-linecap="round" stroke-linejoin="round" stroke-width="3.5"/>
  </g>
</svg>
