<?xml version="1.0" encoding="UTF-8" standalone="no"?>
<svg xmlns:ffdec="https://www.free-decompiler.com/flash" xmlns:xlink="http://www.w3.org/1999/xlink" ffdec:objectType="shape" height="23.85px" width="37.75px" xmlns="http://www.w3.org/2000/svg">
  <g transform="matrix(1.0, 0.0, 0.0, 1.0, 28.5, 10.0)">
    <path d="M6.3 8.75 Q6.3 12.3 4.9 12.8 3.5 13.3 1.05 12.25 -1.45 11.2 -4.35 11.75 -7.2 12.3 -7.2 8.75 L-7.2 8.65 Q-7.2 5.15 -5.2 2.65 -3.25 0.15 -0.45 0.2 2.35 0.15 4.35 2.65 6.3 5.15 6.3 8.65 L6.3 8.75 M-10.9 10.85 Q-10.9 12.75 -14.6 12.4 -18.3 12.05 -20.4 13.25 L-23.5 13.4 Q-24.5 12.45 -24.45 10.7 L-24.45 8.9 Q-24.45 5.4 -22.45 2.9 -20.5 0.4 -17.7 0.4 -14.9 0.4 -12.9 2.9 -10.95 5.4 -10.9 8.9 L-10.9 10.85 M-5.5 10.35 Q-2.05 0.45 3.55 9.7 -2.05 0.45 -5.5 10.35 M-20.2 10.8 Q-17.15 4.0 -13.25 10.55 -17.15 4.0 -20.2 10.8" fill="#754b33" fill-rule="evenodd" stroke="none"/>
    <path d="M-1.5 -8.65 L0.0 -8.2 Q1.95 -7.15 3.75 -3.2 L5.35 0.2 5.4 0.2 Q6.05 1.4 6.6 1.55 7.35 1.55 7.7 1.05 8.1 0.35 8.05 -1.05 7.9 -3.65 5.2 -6.2 2.6 -8.7 0.35 -8.85 L-1.5 -8.65 M9.25 -1.1 Q9.3 0.8 8.65 1.7 7.95 2.8 6.5 2.7 5.45 2.7 4.4 0.8 L4.35 0.75 2.7 -2.7 Q1.05 -6.25 -0.6 -7.2 L-1.55 -7.45 -1.55 -7.5 -3.25 -7.25 -3.65 -7.1 -4.0 -7.25 -4.2 -7.65 -4.1 -8.05 -2.8 -9.35 Q-1.5 -10.15 0.4 -10.0 3.0 -9.9 6.0 -7.05 9.1 -4.1 9.25 -1.1 M-24.6 -5.95 Q-27.25 -3.3 -27.3 -0.75 -27.35 0.7 -26.9 1.4 -26.55 1.9 -25.75 1.85 -25.25 1.7 -24.6 0.5 L-24.6 0.45 -23.05 -2.95 Q-21.35 -7.0 -19.45 -8.05 L-19.4 -8.1 -19.4 -8.05 -17.95 -8.55 -19.8 -8.75 Q-22.05 -8.5 -24.6 -5.95 M-28.5 -0.75 Q-28.45 -3.75 -25.4 -6.8 -22.5 -9.7 -19.9 -9.85 -18.0 -10.05 -16.7 -9.3 L-15.35 -8.0 -15.2 -7.65 -15.4 -7.25 -15.75 -7.05 -16.15 -7.2 -17.85 -7.4 -17.9 -7.4 -18.8 -7.1 -18.85 -7.05 Q-20.5 -6.1 -22.0 -2.5 L-23.55 1.0 -23.6 1.05 Q-24.6 2.95 -25.65 3.0 -27.15 3.1 -27.85 2.05 -28.5 1.15 -28.5 -0.75" fill="#000000" fill-rule="evenodd" stroke="none"/>
    <path d="M-1.5 -8.65 L0.35 -8.85 Q2.6 -8.7 5.2 -6.2 7.9 -3.65 8.05 -1.05 8.1 0.35 7.7 1.05 7.35 1.55 6.6 1.55 6.05 1.4 5.4 0.2 L5.35 0.2 3.75 -3.2 Q1.95 -7.15 0.0 -8.2 L-1.5 -8.65 M-24.6 -5.95 Q-22.05 -8.5 -19.8 -8.75 L-17.95 -8.55 -19.4 -8.05 -19.4 -8.1 -19.45 -8.05 Q-21.35 -7.0 -23.05 -2.95 L-24.6 0.45 -24.6 0.5 Q-25.25 1.7 -25.75 1.85 -26.55 1.9 -26.9 1.4 -27.35 0.7 -27.3 -0.75 -27.25 -3.3 -24.6 -5.95" fill="#2f1e13" fill-rule="evenodd" stroke="none"/>
    <path d="M-13.25 10.55 Q-17.15 4.0 -20.2 10.8 M3.55 9.7 Q-2.05 0.45 -5.5 10.35" fill="none" stroke="#333333" stroke-linecap="round" stroke-linejoin="round" stroke-width="2.0"/>
  </g>
</svg>
