<?xml version="1.0" encoding="UTF-8" standalone="no"?>
<svg xmlns:ffdec="https://www.free-decompiler.com/flash" xmlns:xlink="http://www.w3.org/1999/xlink" ffdec:objectType="shape" height="25.75px" width="37.85px" xmlns="http://www.w3.org/2000/svg">
  <g transform="matrix(1.0, 0.0, 0.0, 1.0, 28.4, 8.2)">
    <path d="M2.75 -0.95 Q0.85 -4.35 -0.85 -5.2 L-1.8 -5.4 -1.85 -5.45 Q-3.05 -5.45 -3.5 -5.05 L-3.9 -4.9 -4.3 -5.05 -4.5 -5.4 -4.4 -5.8 -3.2 -7.2 Q-1.95 -8.1 -0.05 -8.1 2.55 -8.15 5.75 -5.55 9.05 -2.8 9.4 0.15 9.6 2.05 9.0 3.05 8.4 4.15 6.9 4.15 5.85 4.25 4.65 2.45 L4.65 2.4 2.75 -0.95 M-20.0 -8.15 Q-18.15 -8.4 -16.8 -7.65 -16.3 -7.5 -15.45 -6.4 L-15.3 -6.05 Q-15.3 -5.8 -15.45 -5.65 -15.6 -5.5 -15.8 -5.45 L-16.2 -5.55 -17.95 -5.75 -17.95 -5.7 -18.9 -5.4 Q-20.5 -4.35 -21.95 -0.75 L-23.45 2.8 -23.45 2.85 Q-24.45 4.75 -25.45 4.85 L-25.45 4.8 Q-26.95 5.0 -27.7 3.95 -28.4 3.05 -28.4 1.15 -28.45 -1.85 -25.45 -4.95 -22.6 -7.95 -20.0 -8.15 M-18.05 -6.9 L-19.9 -7.0 Q-22.15 -6.75 -24.6 -4.15 -27.2 -1.45 -27.2 1.15 -27.2 2.55 -26.75 3.25 -26.4 3.75 -25.6 3.65 -25.1 3.5 -24.5 2.3 L-24.45 2.25 -23.0 -1.2 Q-21.4 -5.25 -19.5 -6.35 L-18.05 -6.9 -18.0 -6.9 -18.05 -6.9 M-1.85 -6.6 L-1.9 -6.6 -1.85 -6.6 -0.35 -6.25 -0.3 -6.25 Q1.65 -5.35 3.75 -1.5 L5.6 1.75 Q6.35 2.9 6.9 3.0 7.65 3.0 8.0 2.45 8.35 1.75 8.2 0.3 7.85 -2.25 5.0 -4.65 2.2 -6.95 -0.05 -6.95 L-1.85 -6.6 M-2.0 5.3 L-2.35 5.4 -2.85 6.0 -2.9 6.05 -3.5 7.3 -3.8 9.4 Q-3.8 11.1 -3.1 12.45 -0.75 10.95 1.2 10.6 L1.3 9.45 1.4 8.95 -0.15 7.15 Q-1.7 5.2 -2.0 5.3 M-6.65 15.05 L-6.6 14.85 Q-6.45 14.3 -5.95 14.1 L-5.65 13.95 Q-6.75 12.0 -6.75 9.4 -6.75 7.8 -6.35 6.45 L-6.35 6.5 Q-6.05 5.35 -5.35 4.4 L-5.3 4.35 -4.2 3.1 -4.25 3.1 Q-3.35 2.05 -2.1 2.2 -0.9 2.35 3.95 7.55 L4.1 9.4 4.15 10.35 5.7 11.3 6.2 11.7 5.15 11.95 5.05 11.95 2.95 12.6 Q-0.25 13.6 -6.35 16.0 L-6.5 15.8 -6.65 15.05 M-17.15 2.65 L-15.35 3.2 Q-14.3 3.95 -13.1 5.75 -11.85 7.55 -11.75 10.2 L-11.75 10.25 Q-11.85 12.85 -13.1 14.65 L-13.05 14.6 Q-14.55 16.9 -16.65 16.8 -18.85 16.9 -20.35 14.65 -21.45 13.1 -21.6 10.95 L-17.15 2.65 M-18.4 10.2 L-18.65 10.85 Q-18.5 12.05 -17.9 13.0 -17.35 13.75 -16.65 13.85 -16.05 13.75 -15.55 13.0 -14.75 11.85 -14.7 10.2 -14.8 8.55 -15.55 7.45 L-15.55 7.4 -16.4 6.6 Q-17.25 7.1 -18.4 10.2" fill="#000000" fill-rule="evenodd" stroke="none"/>
    <path d="M5.7 11.3 L4.15 10.35 4.1 9.4 3.95 7.55 Q-0.9 2.35 -2.1 2.2 -3.35 2.05 -4.25 3.1 L-4.2 3.1 -5.3 4.35 -5.35 4.4 Q-6.05 5.35 -6.35 6.5 L-6.35 6.45 Q-6.75 7.8 -6.75 9.4 -6.75 12.0 -5.65 13.95 L-5.95 14.1 Q-6.45 14.3 -6.6 14.85 L-6.65 15.05 -7.05 14.35 Q-7.8 12.3 -7.5 10.5 L-7.2 8.65 Q-7.2 5.15 -5.2 2.65 -3.25 0.15 -1.2 0.55 0.85 0.9 2.6 3.5 L5.35 7.4 6.3 8.75 Q6.3 10.35 5.7 11.3 M-17.15 2.65 L-21.6 10.95 Q-21.45 13.1 -20.35 14.65 -18.85 16.9 -16.65 16.8 -14.55 16.9 -13.05 14.6 L-13.1 14.65 Q-11.85 12.85 -11.75 10.25 L-11.75 10.2 Q-11.85 7.55 -13.1 5.75 -14.3 3.95 -15.35 3.2 L-17.15 2.65 M-16.75 0.35 Q-14.9 0.4 -12.9 2.9 -10.95 5.4 -10.9 8.9 L-10.9 8.95 Q-10.95 12.5 -12.9 15.0 -14.9 17.55 -17.7 17.55 -20.5 17.55 -22.45 15.0 -24.45 12.5 -23.4 10.1 L-21.75 6.35 -19.9 2.65 Q-18.65 0.3 -16.75 0.35" fill="#754b33" fill-rule="evenodd" stroke="none"/>
    <path d="M-2.0 5.3 Q-1.7 5.2 -0.15 7.15 L1.4 8.95 1.3 9.45 1.2 10.6 Q-0.75 10.95 -3.1 12.45 -3.8 11.1 -3.8 9.4 L-3.5 7.3 -2.9 6.05 -2.85 6.0 -2.35 5.4 -2.0 5.3 M-18.4 10.2 Q-17.25 7.1 -16.4 6.6 L-15.55 7.4 -15.55 7.45 Q-14.8 8.55 -14.7 10.2 -14.75 11.85 -15.55 13.0 -16.05 13.75 -16.65 13.85 -17.35 13.75 -17.9 13.0 -18.5 12.05 -18.65 10.85 L-18.4 10.2" fill="#926041" fill-rule="evenodd" stroke="none"/>
    <path d="M2.95 12.6 L5.05 11.95 5.15 11.95 Q4.45 12.45 3.45 12.55 L2.95 12.6" fill="#b8c1b2" fill-rule="evenodd" stroke="none"/>
    <path d="M-1.85 -6.6 L-1.9 -6.6 -1.85 -6.6 M-18.05 -6.9 L-18.0 -6.9 -18.05 -6.9" fill="#362d2c" fill-rule="evenodd" stroke="none"/>
    <path d="M-18.05 -6.9 L-19.5 -6.35 Q-21.4 -5.25 -23.0 -1.2 L-24.45 2.25 -24.5 2.3 Q-25.1 3.5 -25.6 3.65 -26.4 3.75 -26.75 3.25 -27.2 2.55 -27.2 1.15 -27.2 -1.45 -24.6 -4.15 -22.15 -6.75 -19.9 -7.0 L-18.05 -6.9 M-1.85 -6.6 L-0.05 -6.95 Q2.2 -6.95 5.0 -4.65 7.85 -2.25 8.2 0.3 8.35 1.75 8.0 2.45 7.65 3.0 6.9 3.0 6.35 2.9 5.6 1.75 L3.75 -1.5 Q1.65 -5.35 -0.3 -6.25 L-0.35 -6.25 -1.85 -6.6" fill="#2f1e13" fill-rule="evenodd" stroke="none"/>
  </g>
</svg>
