<?xml version="1.0" encoding="UTF-8" standalone="no"?>
<svg xmlns:ffdec="https://www.free-decompiler.com/flash" xmlns:xlink="http://www.w3.org/1999/xlink" ffdec:objectType="shape" height="23.0px" width="37.6px" xmlns="http://www.w3.org/2000/svg">
  <g transform="matrix(1.0, 0.0, 0.0, 1.0, 28.25, 5.45)">
    <path d="M4.6 3.0 Q6.3 5.4 6.3 8.65 L6.3 8.75 Q6.3 12.3 4.35 14.8 2.35 17.3 -0.45 17.35 -3.25 17.3 -5.2 14.8 -7.2 12.3 -7.2 8.75 L-7.2 8.65 Q-7.2 5.15 -5.2 2.65 -3.25 0.15 -0.45 0.2 0.9 0.15 2.05 0.75 L2.05 0.8 4.6 3.0 M2.6 9.4 Q2.6 6.9 1.45 5.2 0.3 3.5 -1.35 3.5 -2.4 3.45 -3.3 4.25 L-4.15 5.2 -4.9 6.9 Q-5.3 8.0 -5.3 9.4 -5.3 11.85 -4.15 13.55 -2.95 15.25 -1.35 15.3 0.3 15.25 1.45 13.55 2.6 11.85 2.6 9.4 M-19.8 6.05 L-22.05 5.1 Q-22.5 4.9 -23.0 5.1 -23.5 5.25 -23.7 5.75 -23.9 6.25 -23.7 6.75 L-23.7 6.8 -21.35 8.15 Q-21.65 9.1 -21.6 10.25 -21.6 12.85 -20.35 14.65 -18.85 16.9 -16.65 16.8 -14.55 16.9 -13.05 14.6 L-13.1 14.65 Q-11.85 12.85 -11.75 10.25 L-11.75 10.15 -11.85 9.6 -18.45 6.65 Q-18.65 6.35 -18.95 6.2 L-19.8 6.05 M-10.9 8.95 Q-10.95 12.5 -12.9 15.0 -14.9 17.55 -17.7 17.55 -20.5 17.55 -22.45 15.0 -24.45 12.5 -24.45 8.95 L-24.45 8.9 Q-24.4 5.4 -22.5 3.0 -20.6 0.65 -18.65 2.8 -16.7 4.95 -14.15 6.15 -11.6 7.3 -11.25 8.1 L-10.9 8.95" fill="#754b33" fill-rule="evenodd" stroke="none"/>
    <path d="M2.6 9.4 Q2.6 11.85 1.45 13.55 0.3 15.25 -1.35 15.3 -2.95 15.25 -4.15 13.55 -5.3 11.85 -5.3 9.4 -5.3 8.0 -4.9 6.9 L-4.15 5.2 -3.3 4.25 Q-2.4 3.45 -1.35 3.5 0.3 3.5 1.45 5.2 2.6 6.9 2.6 9.4 M-18.6 9.3 L-14.75 10.9 Q-14.95 12.1 -15.55 13.0 -16.05 13.75 -16.65 13.85 -17.35 13.75 -17.9 13.0 -18.65 11.85 -18.65 10.25 L-18.6 9.3" fill="#926041" fill-rule="evenodd" stroke="none"/>
    <path d="M-13.9 1.75 Q-14.1 0.9 -14.65 0.1 -16.0 -1.75 -19.45 -2.7 L-25.3 -2.55 Q-26.6 -1.85 -26.95 -1.15 -27.2 -0.55 -26.75 0.1 L-26.75 0.05 Q-26.4 0.45 -25.05 0.4 L-25.0 0.4 -21.3 0.05 Q-16.95 -0.4 -15.05 0.7 L-15.05 0.75 Q-14.35 1.1 -13.9 1.75 L-13.9 1.8 -13.9 1.75 M-28.0 -1.65 Q-27.55 -2.7 -25.85 -3.6 L-19.1 -3.85 Q-15.15 -2.75 -13.7 -0.55 -12.65 1.0 -12.6 2.5 -12.6 3.05 -13.1 4.3 L-13.35 4.6 -13.8 4.65 -14.1 4.4 -14.2 4.0 Q-14.2 3.35 -14.85 2.4 L-14.9 2.4 -15.6 1.75 -15.65 1.75 Q-17.3 0.8 -21.15 1.25 L-25.0 1.55 -25.0 1.6 Q-27.2 1.65 -27.7 0.75 L-27.75 0.75 Q-28.6 -0.5 -28.0 -1.65 M2.05 0.75 Q-0.85 -1.85 -2.7 -2.05 L-2.7 -2.1 -3.7 -1.95 Q-4.85 -1.6 -5.2 -1.1 L-5.5 -0.8 -5.9 -0.8 -6.25 -1.1 -6.25 -1.5 -5.6 -3.2 Q-4.7 -4.45 -2.9 -5.05 -0.45 -6.0 3.4 -4.55 7.4 -3.05 8.7 -0.35 9.5 1.4 9.3 2.5 9.1 3.75 7.7 4.25 L7.65 4.25 Q6.7 4.65 5.0 3.35 L4.95 3.3 4.6 3.0 2.05 0.8 2.05 0.75 M-4.1 -3.05 L-2.6 -3.25 -2.55 -3.25 Q-0.4 -3.05 2.85 -0.1 L5.65 2.35 5.7 2.4 Q6.75 3.25 7.3 3.15 8.0 2.9 8.15 2.25 8.25 1.45 7.65 0.15 6.5 -2.15 3.0 -3.45 -0.4 -4.7 -2.5 -4.0 -3.5 -3.65 -4.15 -3.1 L-4.15 -3.05 -4.1 -3.05 M-19.8 6.05 L-18.95 6.2 Q-18.65 6.35 -18.45 6.65 L-11.85 9.6 -11.75 10.15 -11.75 10.25 Q-11.85 12.85 -13.1 14.65 L-13.05 14.6 Q-14.55 16.9 -16.65 16.8 -18.85 16.9 -20.35 14.65 -21.6 12.85 -21.6 10.25 -21.65 9.1 -21.35 8.15 L-23.7 6.8 -23.7 6.75 Q-23.9 6.25 -23.7 5.75 -23.5 5.25 -23.0 5.1 -22.5 4.9 -22.05 5.1 L-19.8 6.05 M-18.6 9.3 L-18.65 10.25 Q-18.65 11.85 -17.9 13.0 -17.35 13.75 -16.65 13.85 -16.05 13.75 -15.55 13.0 -14.95 12.1 -14.75 10.9 L-18.6 9.3" fill="#000000" fill-rule="evenodd" stroke="none"/>
    <path d="M-13.9 1.75 Q-14.35 1.1 -15.05 0.75 L-15.05 0.7 Q-16.95 -0.4 -21.3 0.05 L-25.0 0.4 -25.05 0.4 Q-26.4 0.45 -26.75 0.05 L-26.75 0.1 Q-27.2 -0.55 -26.95 -1.15 -26.6 -1.85 -25.3 -2.55 L-19.45 -2.7 Q-16.0 -1.75 -14.65 0.1 -14.1 0.9 -13.9 1.75 M-4.15 -3.1 Q-3.5 -3.65 -2.5 -4.0 -0.4 -4.7 3.0 -3.45 6.5 -2.15 7.65 0.15 8.25 1.45 8.15 2.25 8.0 2.9 7.3 3.15 6.75 3.25 5.7 2.4 L5.65 2.35 2.85 -0.1 Q-0.4 -3.05 -2.55 -3.25 L-2.6 -3.25 -4.1 -3.05 -4.15 -3.1" fill="#2f1e13" fill-rule="evenodd" stroke="none"/>
    <path d="M-13.9 1.75 L-13.9 1.8 -13.9 1.75 M-4.15 -3.1 L-4.1 -3.05 -4.15 -3.05 -4.15 -3.1" fill="#362d2c" fill-rule="evenodd" stroke="none"/>
    <path d="M2.6 9.4 Q2.6 11.85 1.45 13.55 0.3 15.25 -1.35 15.3 -2.95 15.25 -4.15 13.55 -5.3 11.85 -5.3 9.4 -5.3 8.0 -4.9 6.9 L-4.15 5.2 -3.3 4.25 Q-2.4 3.45 -1.35 3.5 0.3 3.5 1.45 5.2 2.6 6.9 2.6 9.4 Z" fill="none" stroke="#000000" stroke-linecap="round" stroke-linejoin="round" stroke-width="3.5"/>
  </g>
</svg>
