<?xml version="1.0" encoding="UTF-8" standalone="no"?>
<svg xmlns:ffdec="https://www.free-decompiler.com/flash" xmlns:xlink="http://www.w3.org/1999/xlink" ffdec:objectType="shape" height="110.1px" width="100.75px" xmlns="http://www.w3.org/2000/svg">
  <g transform="matrix(1.0, 0.0, 0.0, 1.0, 35.0, 9.1)">
    <path d="M53.15 66.85 Q52.7 63.45 51.75 59.9 49.55 52.05 46.95 44.8 40.4 5.25 18.9 -5.15 24.8 -3.65 30.85 0.05 44.35 8.3 52.65 21.7 60.9 35.05 64.3 50.75 60.3 45.65 57.55 44.8 L50.6 41.5 56.95 46.7 57.2 46.8 Q56.2 60.0 53.15 66.85 M23.6 7.75 Q35.15 22.0 40.4 33.8 45.8 46.05 49.8 60.45 L49.8 60.4 Q50.9 64.6 51.3 68.55 52.2 77.75 48.7 85.45 L47.45 87.9 Q43.7 94.3 36.5 99.2 L36.45 99.25 36.4 99.3 36.5 99.2 Q39.6 93.4 41.25 87.9 44.35 77.65 42.5 68.3 L42.0 63.9 Q40.35 71.2 39.15 73.5 L37.25 76.75 Q38.55 61.15 35.9 49.6 32.7 35.75 23.25 25.25 12.95 13.7 -1.9 10.1 -10.05 8.1 -13.25 8.15 -17.3 8.35 -15.25 5.7 -23.7 10.9 -28.65 18.3 -31.7 22.75 -32.35 27.85 -37.2 14.15 -23.45 6.3 -11.95 -0.35 -15.0 3.5 L-5.65 -1.1 -3.45 -1.15 Q8.55 -1.05 23.7 7.65 L23.65 7.65 23.7 7.65 23.65 7.7 23.6 7.75" fill="#2f1e13" fill-rule="evenodd" stroke="none"/>
    <path d="M53.15 66.85 L53.3 68.35 Q54.2 78.15 50.5 86.3 L49.7 87.9 Q44.35 98.2 33.85 101.0 L37.8 94.5 Q39.3 91.25 40.15 87.9 42.2 80.25 41.1 71.95 L40.6 73.15 Q39.75 75.4 36.45 78.75 36.95 63.05 33.95 50.05 30.9 36.75 21.75 26.6 11.85 15.4 -0.6 13.0 L-16.9 9.5 Q-23.1 13.55 -27.0 19.4 -31.6 26.2 -31.6 36.6 L-32.15 35.15 Q-40.3 14.75 -25.1 5.5 -21.0 2.95 -16.9 0.85 L-16.95 0.55 Q-17.7 -3.4 -15.9 -5.55 -14.25 -7.75 -10.1 -8.1 L-10.2 -8.05 Q-1.85 -9.6 5.45 -8.9 L8.6 -8.45 Q20.4 -9.95 32.1 -2.5 46.0 6.4 54.9 21.3 63.85 36.1 65.5 51.9 L65.75 54.15 Q60.45 48.0 57.2 46.8 L56.95 46.7 50.6 41.5 57.55 44.8 Q60.3 45.65 64.3 50.75 60.9 35.05 52.65 21.7 44.35 8.3 30.85 0.05 24.8 -3.65 18.9 -5.15 40.4 5.25 46.95 44.8 49.55 52.05 51.75 59.9 52.7 63.45 53.15 66.85 M20.0 -2.55 Q8.9 -7.0 2.9 -7.15 -3.1 -7.35 -8.6 -6.9 -14.15 -6.5 -15.35 -4.85 -16.6 -3.2 -14.5 -1.65 -9.55 -3.2 5.35 -2.2 20.25 -1.25 30.65 15.2 38.4 24.4 42.25 33.0 L44.4 38.15 Q31.1 1.85 20.0 -2.55 M23.6 7.75 L23.65 7.7 23.7 7.65 23.65 7.65 23.7 7.65 Q8.55 -1.05 -3.45 -1.15 L-5.65 -1.1 -15.0 3.5 Q-11.95 -0.35 -23.45 6.3 -37.2 14.15 -32.35 27.85 -31.7 22.75 -28.65 18.3 -23.7 10.9 -15.25 5.7 -17.3 8.35 -13.25 8.15 -10.05 8.1 -1.9 10.1 12.95 13.7 23.25 25.25 32.7 35.75 35.9 49.6 38.55 61.15 37.25 76.75 L39.15 73.5 Q40.35 71.2 42.0 63.9 L42.5 68.3 Q44.35 77.65 41.25 87.9 39.6 93.4 36.5 99.2 L36.4 99.3 36.45 99.25 36.5 99.2 Q43.7 94.3 47.45 87.9 L48.7 85.45 Q52.2 77.75 51.3 68.55 50.9 64.6 49.8 60.4 L49.8 60.45 Q45.8 46.05 40.4 33.8 35.15 22.0 23.6 7.75" fill="#000000" fill-rule="evenodd" stroke="none"/>
    <path d="M20.0 -2.55 Q31.1 1.85 44.4 38.15 L42.25 33.0 Q38.4 24.4 30.65 15.2 20.25 -1.25 5.35 -2.2 -9.55 -3.2 -14.5 -1.65 -16.6 -3.2 -15.35 -4.85 -14.15 -6.5 -8.6 -6.9 -3.1 -7.35 2.9 -7.15 8.9 -7.0 20.0 -2.55" fill="#b9380d" fill-rule="evenodd" stroke="none"/>
  </g>
</svg>
