<?xml version="1.0" encoding="UTF-8" standalone="no"?>
<svg xmlns:ffdec="https://www.free-decompiler.com/flash" xmlns:xlink="http://www.w3.org/1999/xlink" ffdec:objectType="shape" height="86.2px" width="86.05px" xmlns="http://www.w3.org/2000/svg">
  <g transform="matrix(1.0, 0.0, 0.0, 1.0, 35.0, 58.0)">
    <path d="M1.75 27.65 L3.35 27.8 -0.8 28.2 1.75 27.65" fill="#c18753" fill-rule="evenodd" stroke="none"/>
    <path d="M6.8 25.95 Q0.75 25.8 -4.55 24.1 -7.8 23.1 -10.75 21.55 -16.25 18.65 -20.95 13.95 -32.3 2.65 -32.9 -13.05 L-32.95 -14.95 -32.9 -16.9 Q-32.65 -23.2 -30.65 -28.7 -23.85 -31.2 -18.7 -36.4 -15.0 -32.3 -12.15 -32.1 L-1.35 -31.25 Q9.9 -30.0 16.35 -22.6 22.75 -15.2 25.3 -3.9 27.8 7.4 21.7 14.9 15.55 22.35 6.8 25.95" fill="#926041" fill-rule="evenodd" stroke="none"/>
    <path d="M11.4 25.85 L6.8 25.95 Q15.55 22.35 21.7 14.9 27.8 7.4 25.3 -3.9 22.75 -15.2 16.35 -22.6 9.9 -30.0 -1.35 -31.25 L-12.15 -32.1 Q-15.0 -32.3 -18.7 -36.4 -23.85 -31.2 -30.65 -28.7 -26.1 -39.95 -16.8 -47.6 L-15.05 -48.95 Q-3.0 -52.5 9.15 -48.9 20.6 -45.6 28.3 -36.25 35.6 -27.3 37.0 -15.7 38.4 -3.95 32.85 6.5 26.9 17.75 15.85 23.65 L11.4 25.85" fill="#83563a" fill-rule="evenodd" stroke="none"/>
    <path d="M-15.05 -48.95 L-13.8 -49.8 Q-4.0 -55.85 7.85 -55.9 L8.05 -55.9 Q24.95 -55.95 36.95 -43.95 48.95 -31.95 48.95 -14.95 48.95 -0.8 40.55 9.95 L36.95 13.95 36.25 14.75 36.3 14.65 Q25.7 24.8 11.4 25.85 L15.85 23.65 Q26.9 17.75 32.85 6.5 38.4 -3.95 37.0 -15.7 35.6 -27.3 28.3 -36.25 20.6 -45.6 9.15 -48.9 -3.0 -52.5 -15.05 -48.95" fill="#754b33" fill-rule="evenodd" stroke="none"/>
    <path d="M11.4 25.85 Q25.7 24.8 36.3 14.65 L36.25 14.75 36.95 13.95 40.55 9.95 Q48.95 -0.8 48.95 -14.95 48.95 -31.95 36.95 -43.95 24.95 -55.95 8.05 -55.9 L7.85 -55.9 Q-4.0 -55.85 -13.8 -49.8 L-15.05 -48.95 -16.8 -47.6 Q-26.1 -39.95 -30.65 -28.7 -32.65 -23.2 -32.9 -16.9 L-32.95 -14.95 -32.9 -13.05 Q-32.3 2.65 -20.95 13.95 -16.25 18.65 -10.75 21.55 -7.8 23.1 -4.55 24.1 0.75 25.8 6.8 25.95 L11.4 25.85 M1.75 27.65 Q-1.85 27.15 -5.15 26.1 -8.6 25.0 -11.7 23.35 -17.5 20.35 -22.4 15.4 -34.3 3.55 -34.95 -12.9 L-35.0 -14.95 -34.95 -17.0 Q-34.35 -30.8 -26.05 -41.3 L-26.1 -41.3 -22.05 -45.75 -21.85 -45.95 -21.8 -45.95 Q-9.55 -58.0 8.05 -58.0 25.8 -58.0 38.4 -45.4 51.05 -32.8 51.05 -14.95 51.0 -0.1 42.15 11.25 L38.4 15.4 37.8 16.1 37.75 16.15 Q25.3 28.05 8.05 28.05 L7.7 28.05 7.55 28.05 3.4 27.8 3.35 27.8 1.75 27.65" fill="#4b3121" fill-rule="evenodd" stroke="none"/>
  </g>
</svg>
