<?xml version="1.0" encoding="UTF-8" standalone="no"?>
<svg xmlns:ffdec="https://www.free-decompiler.com/flash" xmlns:xlink="http://www.w3.org/1999/xlink" ffdec:objectType="shape" height="56.9px" width="39.9px" xmlns="http://www.w3.org/2000/svg">
  <g transform="matrix(1.0, 0.0, 0.0, 1.0, 9.7, 5.2)">
    <path d="M20.75 15.25 L20.65 15.1 20.75 15.2 20.75 15.25" fill="#666666" fill-rule="evenodd" stroke="none"/>
    <path d="M-0.45 19.7 Q1.5 17.75 4.7 16.35 L4.75 16.35 Q6.4 15.45 8.2 15.0 L11.5 14.4 11.55 14.5 12.75 14.7 12.75 14.85 Q12.65 15.25 12.9 15.6 L16.75 21.6 16.75 21.65 17.25 22.45 17.4 22.75 17.9 23.55 18.8 25.2 Q23.35 33.45 28.1 44.5 27.4 46.15 26.5 47.3 L26.15 47.75 25.45 46.15 Q23.05 40.9 20.25 35.7 L15.8 28.25 14.75 26.85 14.05 25.9 14.0 25.9 13.55 25.35 Q10.85 22.25 8.85 22.25 4.85 22.25 4.05 24.0 L4.0 26.2 3.75 25.8 0.15 20.1 Q-0.1 19.8 -0.45 19.7" fill="#754b33" fill-rule="evenodd" stroke="none"/>
    <path d="M4.0 26.2 L4.05 24.0 Q4.85 22.25 8.85 22.25 10.85 22.25 13.55 25.35 L14.0 25.9 14.05 25.9 14.75 26.85 15.8 28.25 20.25 35.7 Q23.05 40.9 25.45 46.15 L26.15 47.75 25.8 48.15 25.9 48.05 Q22.95 50.95 18.45 48.5 L7.0 31.05 6.3 29.95 6.3 29.9 5.45 28.6 5.5 28.6 4.25 26.6 4.0 26.2" fill="#83563a" fill-rule="evenodd" stroke="none"/>
    <path d="M20.3 23.8 L20.55 24.25 Q25.25 32.7 30.15 44.05 L30.15 44.85 Q29.2 47.1 28.1 48.55 L27.4 49.4 27.3 49.45 Q23.35 53.6 17.25 50.15 L16.95 49.8 Q10.25 39.95 5.3 32.1 L5.0 31.6 4.6 31.0 4.2 30.3 3.75 29.65 3.75 29.6 3.15 28.6 2.55 27.65 2.05 26.85 1.5 25.95 -1.5 21.25 -1.65 20.5 -1.25 19.85 -0.5 19.7 -0.45 19.7 Q-0.1 19.8 0.15 20.1 L3.75 25.8 4.0 26.2 4.25 26.6 5.5 28.6 5.45 28.6 6.3 29.9 6.3 29.95 7.0 31.05 18.45 48.5 Q22.95 50.95 25.9 48.05 L25.8 48.15 26.15 47.75 26.5 47.3 Q27.4 46.15 28.1 44.5 23.35 33.45 18.8 25.2 L17.9 23.55 17.4 22.75 17.25 22.45 16.75 21.65 16.75 21.6 12.9 15.6 Q12.65 15.25 12.75 14.85 L12.75 14.7 13.15 14.2 Q13.45 13.95 13.9 14.05 14.3 14.1 14.55 14.45 L15.55 15.95 17.9 19.65 18.45 20.6 18.7 21.0 19.05 21.6 19.1 21.7 19.35 22.1 19.65 22.6 19.65 22.55 20.3 23.8" fill="#4b3121" fill-rule="evenodd" stroke="none"/>
    <path d="M-5.05 17.7 L-5.75 15.1 -5.8 15.1 Q-7.2 10.15 -7.85 5.15 -5.8 0.65 -1.4 1.2 -0.7 1.25 0.05 1.8 1.6 2.95 3.4 6.25 L5.15 9.45 Q1.3 10.1 -1.65 12.75 -2.8 13.75 -3.6 14.9 L-5.05 17.7" fill="#f3e6b4" fill-rule="evenodd" stroke="none"/>
    <path d="M-7.45 -3.85 L-5.2 -4.75 Q-3.7 -5.2 -2.55 -4.45 L1.15 -1.0 7.6 5.95 11.45 9.55 9.35 9.25 7.95 9.2 5.15 9.45 3.4 6.25 Q1.6 2.95 0.05 1.8 -0.7 1.25 -1.4 1.2 -5.8 0.65 -7.85 5.15 L-8.25 1.85 Q-8.5 -0.05 -7.45 -3.85" fill="#e9d174" fill-rule="evenodd" stroke="none"/>
    <path d="M5.0 31.6 L2.7 31.35 2.65 31.35 Q-1.95 30.3 -4.5 26.35 L-4.75 25.95 -4.75 25.85 -4.75 25.75 -4.8 25.65 -7.2 15.65 -7.25 15.65 -9.15 8.0 -9.5 6.55 -9.7 3.5 Q-9.7 1.15 -9.1 -1.25 -8.95 -2.2 -8.35 -2.9 L-7.45 -3.85 Q-8.5 -0.05 -8.25 1.85 L-7.85 5.15 Q-7.2 10.15 -5.8 15.1 L-5.75 15.1 -5.05 17.7 -4.25 20.55 -3.6 24.7 Q-3.4 25.6 -1.8 26.35 L-1.75 26.35 -0.75 27.6 Q1.55 29.85 4.2 30.3 L4.6 31.0 5.0 31.6 M-2.55 -4.45 L-3.3 -5.15 -3.25 -5.2 -2.85 -5.15 Q0.4 -4.6 2.65 -2.25 L9.1 4.65 9.15 4.65 20.75 15.25 20.2 15.55 20.75 15.25 20.85 15.4 21.6 16.9 Q22.75 20.05 20.3 23.8 L19.65 22.55 19.65 22.6 19.35 22.1 19.7 21.1 Q20.45 18.0 19.65 15.8 18.1 13.25 14.35 12.25 L11.45 9.55 7.6 5.95 1.15 -1.0 -2.55 -4.45 M-0.45 19.7 L-0.5 19.7 -1.25 19.85 -1.65 20.5 -1.5 21.25 1.5 25.95 2.05 26.85 2.55 27.65 3.15 28.6 3.05 28.55 Q0.95 27.45 -0.2 25.6 -2.6 24.1 -2.6 22.0 -2.4 20.3 -1.3 19.1 L-1.05 18.8 Q2.35 15.45 7.2 13.9 10.0 12.9 12.55 13.35 14.3 13.7 15.95 14.75 17.15 15.45 18.3 16.45 L18.45 16.75 Q19.2 18.8 18.85 20.55 L18.7 21.0 18.45 20.6 17.9 19.65 15.55 15.95 14.55 14.45 Q14.3 14.1 13.9 14.05 13.45 13.95 13.15 14.2 L12.75 14.7 11.55 14.5 11.5 14.4 8.2 15.0 Q6.4 15.45 4.75 16.35 L4.7 16.35 Q1.5 17.75 -0.45 19.7" fill="#6a5120" fill-rule="evenodd" stroke="none"/>
    <path d="M4.2 30.3 Q1.55 29.85 -0.75 27.6 L-1.75 26.35 -1.8 26.35 Q-3.4 25.6 -3.6 24.7 L-4.25 20.55 -5.05 17.7 -3.6 14.9 Q-2.8 13.75 -1.65 12.75 1.3 10.1 5.15 9.45 L5.75 10.45 Q6.0 11.3 5.7 12.05 L3.3 14.45 -1.5 17.65 -2.7 19.05 -3.25 20.35 Q-3.6 21.5 -3.3 22.8 L-3.0 23.1 -2.6 22.0 Q-2.6 24.1 -0.2 25.6 0.95 27.45 3.05 28.55 L3.15 28.6 3.75 29.6 3.75 29.65 4.2 30.3" fill="#d59939" fill-rule="evenodd" stroke="none"/>
    <path d="M18.85 20.55 Q19.2 18.8 18.45 16.75 L18.3 16.45 Q17.15 15.45 15.95 14.75 14.3 13.7 12.55 13.35 10.0 12.9 7.2 13.9 2.35 15.45 -1.05 18.8 L-1.3 19.1 Q-2.4 20.3 -2.6 22.0 L-3.0 23.1 -3.3 22.8 Q-3.6 21.5 -3.25 20.35 L-2.7 19.05 -1.5 17.65 3.3 14.45 5.7 12.05 Q6.0 11.3 5.75 10.45 L5.15 9.45 7.95 9.2 9.35 9.25 11.45 9.55 14.35 12.25 Q18.1 13.25 19.65 15.8 20.45 18.0 19.7 21.1 L19.35 22.1 19.1 21.7 19.05 21.6 18.7 21.0 18.85 20.55" fill="#ad7a25" fill-rule="evenodd" stroke="none"/>
  </g>
</svg>
