<?xml version="1.0" encoding="UTF-8" standalone="no"?>
<svg xmlns:ffdec="https://www.free-decompiler.com/flash" xmlns:xlink="http://www.w3.org/1999/xlink" ffdec:objectType="shape" height="33.9px" width="21.6px" xmlns="http://www.w3.org/2000/svg">
  <g transform="matrix(1.0, 0.0, 0.0, 1.0, 4.8, 28.95)">
    <path d="M2.4 -15.1 L2.2 -15.5 2.1 -15.8 1.95 -16.1 -2.0 -24.6 -2.35 -25.3 4.9 -26.85 Q7.65 -27.4 9.35 -25.35 L9.85 -24.6 10.2 -23.9 9.85 -22.65 9.8 -22.3 9.6 -19.55 9.6 -16.0 8.35 -15.7 Q6.2 -14.9 2.4 -15.1" fill="#754b33" fill-rule="evenodd" stroke="none"/>
    <path d="M3.5 3.15 L2.1 2.4 Q0.05 -15.75 -1.6 -19.3 L-4.2 -24.6 -4.7 -25.55 -4.75 -26.1 -4.5 -26.65 -4.0 -27.0 4.55 -28.8 Q8.5 -29.6 10.85 -26.55 L12.1 -24.6 12.2 -24.4 12.25 -23.7 11.75 -22.1 11.75 -22.05 11.6 -19.5 11.6 -19.45 Q11.5 -15.8 16.8 1.65 L15.3 3.65 Q9.85 -13.75 9.6 -16.0 L9.6 -19.55 9.8 -22.3 9.85 -22.65 10.2 -23.9 9.85 -24.6 9.35 -25.35 Q7.65 -27.4 4.9 -26.85 L-2.35 -25.3 -2.0 -24.6 1.95 -16.1 2.1 -15.8 2.2 -15.5 2.4 -15.1 3.5 3.15" fill="#4b3121" fill-rule="evenodd" stroke="none"/>
    <path d="M3.5 3.15 L2.4 -15.1 Q6.2 -14.9 8.35 -15.7 L9.6 -16.0 Q9.85 -13.75 15.3 3.65 8.9 6.5 3.5 3.15" fill="#83563a" fill-rule="evenodd" stroke="none"/>
  </g>
</svg>
