<?xml version="1.0" encoding="UTF-8" standalone="no"?>
<svg xmlns:ffdec="https://www.free-decompiler.com/flash" xmlns:xlink="http://www.w3.org/1999/xlink" ffdec:objectType="shape" height="12.75px" width="30.1px" xmlns="http://www.w3.org/2000/svg">
  <g transform="matrix(1.0, 0.0, 0.0, 1.0, 20.05, -2.75)">
    <path d="M10.0 3.45 Q10.25 4.55 8.3 4.7 5.1 4.95 4.55 4.65 L4.55 4.7 2.35 7.75 Q0.4 10.35 -4.6 12.6 -8.35 14.25 -13.65 15.35 L-19.75 15.5 -20.05 15.05 Q-18.5 14.85 -14.85 13.85 L-14.85 13.9 Q-6.3 11.75 -3.35 9.5 1.25 5.9 2.25 4.65 3.15 3.35 3.95 2.9 4.65 2.45 10.0 3.45" fill="#48241e" fill-rule="evenodd" stroke="none"/>
    <path d="M4.65 5.0 L4.65 4.95 4.65 5.0" fill="#ff0000" fill-rule="evenodd" stroke="none"/>
  </g>
</svg>
