<?xml version="1.0" encoding="UTF-8" standalone="no"?>
<svg xmlns:ffdec="https://www.free-decompiler.com/flash" xmlns:xlink="http://www.w3.org/1999/xlink" ffdec:objectType="shape" height="30.85px" width="41.2px" xmlns="http://www.w3.org/2000/svg">
  <g transform="matrix(1.0, 0.0, 0.0, 1.0, 26.4, 6.65)">
    <path d="M-18.8 11.15 Q-17.95 11.8 -16.95 13.0 L-16.75 13.0 Q-14.8 13.85 -9.9 13.85 -5.35 13.85 0.25 12.2 3.65 11.15 6.4 9.35 L10.5 5.75 Q11.8 4.9 12.75 3.5 L12.35 -2.0 12.25 -2.8 Q5.25 8.6 -8.35 10.95 L-8.4 10.95 Q-13.7 11.8 -18.8 11.1 L-20.15 10.9 -23.95 10.05 Q-22.6 11.6 -21.55 13.4 L-21.5 13.4 Q-17.3 20.65 -10.15 21.9 L-10.15 21.85 Q-1.4 23.15 5.15 19.3 L6.15 18.7 5.9 18.85 5.85 18.55 5.85 17.3 Q5.7 10.0 12.2 10.0 L12.65 10.05 12.8 5.2 Q11.35 7.3 7.85 9.75 0.4 15.0 -10.25 15.0 -14.25 15.0 -16.35 14.15 L-16.85 14.3 -21.95 10.55 -20.15 10.95 -18.8 11.15 M-23.25 14.4 Q-25.3 9.75 -26.4 7.9 L-26.0 7.55 -25.25 7.5 Q-17.25 10.3 -8.7 9.0 5.25 6.6 11.75 -6.0 L12.35 -6.5 12.7 -6.55 12.75 -6.55 12.9 -6.65 14.35 0.1 Q15.2 5.3 14.4 12.8 L14.15 13.4 13.95 13.8 Q4.9 26.1 -10.45 23.85 -18.5 22.55 -23.25 14.45 L-23.25 14.4 M12.5 11.65 L12.55 11.15 Q9.25 11.0 8.25 12.3 L7.45 14.85 Q7.05 15.7 6.8 18.25 9.85 16.0 12.35 12.6 L12.4 12.55 12.5 11.65" fill="#48241e" fill-rule="evenodd" stroke="none"/>
    <path d="M-18.8 11.1 Q-13.7 11.8 -8.4 10.95 L-8.35 10.95 Q5.25 8.6 12.25 -2.8 L12.35 -2.0 12.75 3.5 Q11.8 4.9 10.5 5.75 L6.4 9.35 Q3.65 11.15 0.25 12.2 -5.35 13.85 -9.9 13.85 -14.8 13.85 -16.75 13.0 L-16.95 13.0 Q-17.95 11.8 -18.8 11.15 L-18.8 11.1" fill="#e5e5e5" fill-rule="evenodd" stroke="none"/>
    <path d="M-18.8 11.15 L-20.15 10.95 -21.95 10.55 -16.85 14.3 -16.35 14.15 Q-14.25 15.0 -10.25 15.0 0.4 15.0 7.85 9.75 11.35 7.3 12.8 5.2 L12.65 10.05 12.2 10.0 Q5.7 10.0 5.85 17.3 L5.85 18.55 5.9 18.85 6.15 18.7 5.15 19.3 Q-1.4 23.15 -10.15 21.85 L-10.15 21.9 Q-17.3 20.65 -21.5 13.4 L-21.55 13.4 Q-22.6 11.6 -23.95 10.05 L-20.15 10.9 -18.8 11.1 -18.8 11.15" fill="#57352d" fill-rule="evenodd" stroke="none"/>
    <path d="M-23.25 14.4 L-23.25 14.45 -23.25 14.4" fill="#463624" fill-rule="evenodd" stroke="none"/>
    <path d="M12.5 11.65 L12.4 12.55 12.35 12.6 Q9.85 16.0 6.8 18.25 7.05 15.7 7.45 14.85 L8.25 12.3 Q9.25 11.0 12.55 11.15 L12.5 11.65" fill="#b45f50" fill-rule="evenodd" stroke="none"/>
  </g>
</svg>
