<?xml version="1.0" encoding="UTF-8" standalone="no"?>
<svg xmlns:ffdec="https://www.free-decompiler.com/flash" xmlns:xlink="http://www.w3.org/1999/xlink" ffdec:objectType="shape" height="30.85px" width="41.2px" xmlns="http://www.w3.org/2000/svg">
  <g transform="matrix(1.0, 0.0, 0.0, 1.0, 26.4, 6.65)">
    <path d="M12.75 3.4 L12.35 -2.0 12.25 -2.8 Q5.25 8.6 -8.35 10.95 L-8.4 10.95 Q-13.65 11.8 -18.7 11.1 L-19.45 10.95 -19.75 11.0 -20.15 10.9 -23.95 10.05 -22.8 11.45 -22.25 12.3 -21.55 13.4 -21.45 13.5 -20.75 14.65 -20.75 14.6 -20.55 14.55 -16.5 17.25 -13.75 16.55 -13.35 16.45 -11.25 16.0 -11.1 15.95 -10.2 15.95 -10.1 16.2 -10.15 16.45 -10.2 16.45 Q-11.9 16.8 -15.15 18.0 L-15.65 19.5 -15.65 19.6 -15.7 19.7 -15.7 19.75 -13.55 20.9 -10.15 21.9 -10.15 21.85 Q-1.4 23.15 5.15 19.3 L5.2 19.35 4.9 19.6 5.6 19.05 5.9 18.85 9.7 15.65 10.3 15.05 12.35 12.6 12.4 12.55 12.4 12.5 12.65 12.5 12.7 11.7 Q11.75 10.9 11.2 10.9 8.95 10.9 7.2 11.7 L7.1 11.75 6.55 12.1 5.5 12.65 5.45 12.65 5.35 12.65 4.85 12.65 4.75 12.45 Q4.75 12.05 6.15 11.4 L6.6 11.2 6.65 11.2 7.15 11.0 8.1 10.65 8.2 10.6 8.35 10.55 11.5 9.3 Q12.25 8.2 12.8 6.55 L12.8 7.3 12.85 6.5 12.85 6.45 12.8 4.3 12.7 3.6 12.75 3.5 12.75 3.4 M-23.25 14.4 Q-25.3 9.75 -26.4 7.9 L-26.0 7.55 -25.25 7.5 Q-17.25 10.3 -8.7 9.0 5.25 6.6 11.75 -6.0 L12.35 -6.5 12.7 -6.55 12.75 -6.55 12.9 -6.65 14.35 0.1 Q15.2 5.3 14.4 12.8 L14.15 13.4 13.95 13.8 Q4.9 26.1 -10.45 23.85 -18.5 22.55 -23.25 14.45 L-23.25 14.4 M-19.0 16.95 L-17.3 18.55 -15.85 19.65 -16.7 19.05 -16.75 18.6 -18.55 17.15 -19.15 16.75 -19.0 16.95" fill="#48241e" fill-rule="evenodd" stroke="none"/>
    <path d="M-21.55 13.4 L-22.25 12.3 -22.8 11.45 -23.95 10.05 -20.15 10.9 -19.75 11.0 -19.45 10.95 -18.7 11.1 Q-13.65 11.8 -8.4 10.95 L-8.35 10.95 Q5.25 8.6 12.25 -2.8 L12.35 -2.0 12.75 3.4 12.7 3.45 12.6 3.6 12.7 3.6 12.8 4.3 12.85 6.45 12.85 6.5 12.8 6.55 Q12.25 8.2 11.5 9.3 L8.35 10.55 8.2 10.6 8.1 10.65 7.15 11.0 6.65 11.2 6.6 11.2 6.4 11.2 6.15 11.4 Q4.75 12.05 4.75 12.45 L4.85 12.65 5.35 12.65 5.45 12.65 5.5 12.65 6.55 12.1 7.1 11.75 7.15 11.75 7.2 11.75 7.2 11.7 Q8.95 10.9 11.2 10.9 11.75 10.9 12.7 11.7 L12.65 12.5 12.4 12.5 12.4 12.55 12.35 12.6 10.3 15.05 9.7 15.65 Q9.5 12.4 6.9 12.4 L4.45 13.1 4.2 13.05 4.1 12.75 Q4.1 12.05 8.15 9.0 L9.1 7.4 Q7.7 8.45 5.9 9.25 1.15 11.3 -0.65 11.75 -7.0 13.25 -10.75 13.25 L-19.25 12.5 -22.0 11.7 Q-18.45 16.0 -13.15 16.0 L-8.85 15.75 -6.3 15.85 Q-6.2 15.9 -6.25 16.1 -7.4 16.85 -11.05 18.4 -12.45 19.3 -12.95 21.1 L-13.55 20.9 -15.7 19.75 -15.7 19.7 -15.65 19.6 -15.65 19.55 -15.65 19.5 -15.15 18.0 Q-11.9 16.8 -10.2 16.45 L-10.15 16.45 -10.1 16.2 -10.2 15.95 -11.1 15.95 -11.25 16.0 -13.35 16.45 -13.75 16.55 -16.5 17.25 -20.55 14.55 -20.75 14.6 -20.75 14.65 -21.45 13.5 -21.5 13.4 -21.55 13.4" fill="#e5e5e5" fill-rule="evenodd" stroke="none"/>
    <path d="M-15.65 19.6 L-15.65 19.5 -15.65 19.55 -15.65 19.6 M-19.0 16.95 L-19.15 16.75 -18.55 17.15 -16.75 18.6 -16.7 19.05 -15.85 19.65 -17.3 18.55 -19.0 16.95" fill="#57352d" fill-rule="evenodd" stroke="none"/>
    <path d="M12.75 3.4 L12.75 3.5 12.7 3.6 12.6 3.6 12.7 3.45 12.75 3.4 M6.6 11.2 L6.15 11.4 6.4 11.2 6.6 11.2 M9.7 15.65 L5.9 18.85 5.6 19.05 5.15 19.3 Q-1.4 23.15 -10.15 21.85 L-10.15 21.9 -13.55 20.9 -12.95 21.1 Q-12.45 19.3 -11.05 18.4 -7.4 16.85 -6.25 16.1 -6.2 15.9 -6.3 15.85 L-8.85 15.75 -13.15 16.0 Q-18.45 16.0 -22.0 11.7 L-19.25 12.5 -10.75 13.25 Q-7.0 13.25 -0.65 11.75 1.15 11.3 5.9 9.25 7.7 8.45 9.1 7.4 L8.15 9.0 Q4.1 12.05 4.1 12.75 L4.2 13.05 4.45 13.1 6.9 12.4 Q9.5 12.4 9.7 15.65 M7.2 11.7 L7.2 11.75 7.15 11.75 7.2 11.7" fill="#f9f9f9" fill-rule="evenodd" stroke="none"/>
    <path d="M7.1 11.75 L7.2 11.7 7.15 11.75 7.1 11.75 M5.2 19.35 L5.15 19.3 5.6 19.05 5.2 19.35 M-21.45 13.5 L-21.55 13.4 -21.5 13.4 -21.45 13.5 M-23.25 14.4 L-23.25 14.45 -23.25 14.4" fill="#463624" fill-rule="evenodd" stroke="none"/>
  </g>
</svg>
