<?xml version="1.0" encoding="UTF-8" standalone="no"?>
<svg xmlns:ffdec="https://www.free-decompiler.com/flash" xmlns:xlink="http://www.w3.org/1999/xlink" ffdec:objectType="shape" height="14.65px" width="27.85px" xmlns="http://www.w3.org/2000/svg">
  <g transform="matrix(1.0, 0.0, 0.0, 1.0, 14.45, -4.95)">
    <path d="M-2.85 12.8 L-4.1 12.55 Q-9.8 12.8 -11.6 14.5 L-12.2 13.75 -12.9 12.8 -9.15 10.0 Q-3.9 6.7 3.9 6.7 11.5 6.7 11.5 10.85 11.5 13.6 7.15 16.15 1.8 19.3 -9.95 18.15 L-10.9 17.75 -11.1 17.65 -11.0 17.45 -9.95 16.15 -9.85 15.95 -9.85 15.9 Q-8.0 14.6 -7.1 14.3 L-2.8 13.0 -2.75 12.95 -2.85 12.8" fill="#e5e5e5" fill-rule="evenodd" stroke="none"/>
    <path d="M-11.1 17.65 L-10.9 17.75 -9.95 18.15 Q1.8 19.3 7.15 16.15 11.5 13.6 11.5 10.85 11.5 6.7 3.9 6.7 -3.9 6.7 -9.15 10.0 L-12.9 12.8 -12.2 13.75 -11.6 14.5 Q-9.8 12.8 -4.1 12.55 L-2.85 12.8 -2.8 13.0 -7.1 14.3 Q-8.0 14.6 -9.85 15.9 L-9.95 16.15 -11.0 17.45 -11.35 17.55 -11.1 17.65 M10.0 16.2 Q5.5 19.55 -2.1 19.55 L-6.7 19.45 -6.75 19.45 -7.95 19.6 Q-14.85 19.6 -14.4 14.0 L-14.3 13.2 Q-13.65 10.25 -7.5 7.65 -1.2 4.95 5.15 4.95 10.9 4.95 12.65 7.65 13.4 8.75 13.4 11.2 13.4 13.65 10.0 16.2" fill="#48241e" fill-rule="evenodd" stroke="none"/>
    <path d="M-2.85 12.8 L-2.75 12.95 -2.8 13.0 -2.85 12.8 M-9.85 15.9 L-9.85 15.95 -9.95 16.15 -9.85 15.9" fill="#463624" fill-rule="evenodd" stroke="none"/>
  </g>
</svg>
