<?xml version="1.0" encoding="UTF-8" standalone="no"?>
<svg xmlns:ffdec="https://www.free-decompiler.com/flash" xmlns:xlink="http://www.w3.org/1999/xlink" ffdec:objectType="shape" height="25.9px" width="35.65px" xmlns="http://www.w3.org/2000/svg">
  <g transform="matrix(1.0, 0.0, 0.0, 1.0, 19.65, 2.35)">
    <path d="M-11.9 7.4 L-8.15 4.8 Q-0.3 -0.3 5.15 -0.3 10.45 -0.3 13.05 4.0 L14.1 6.1 13.6 5.8 Q13.0 5.15 10.4 5.15 L8.9 5.2 Q-6.1 10.8 -7.6 10.8 -8.1 10.8 -10.0 9.0 L-11.9 7.4" fill="#e5e5e5" fill-rule="evenodd" stroke="none"/>
    <path d="M-11.9 7.4 L-10.0 9.0 Q-8.1 10.8 -7.6 10.8 -6.1 10.8 8.9 5.2 L10.4 5.15 Q13.0 5.15 13.6 5.8 L14.1 6.1 13.05 4.0 Q10.45 -0.3 5.15 -0.3 -0.3 -0.3 -8.15 4.8 L-11.9 7.4 -12.4 7.75 -11.9 7.4 M14.6 7.65 L14.5 7.65 Q13.2 7.65 12.8 7.05 12.45 6.45 10.2 6.45 6.55 6.45 -0.05 9.2 -6.6 11.95 -7.45 11.95 -9.3 11.95 -12.75 8.05 L-13.4 8.6 -16.25 11.2 Q-13.8 13.0 -13.45 16.3 -13.3 18.2 -13.4 21.95 L-6.85 22.2 Q-0.4 22.2 4.15 21.1 L4.2 21.1 5.0 20.85 4.1 21.1 4.05 20.85 Q4.05 20.4 4.8 20.0 L5.55 19.3 Q4.8 19.1 4.15 18.55 1.4 21.05 -1.1 21.05 -4.95 21.05 -4.95 18.1 -4.95 16.3 -3.35 14.05 -0.85 10.6 3.9 10.6 8.45 10.6 11.15 12.95 12.95 14.5 13.15 15.85 15.4 12.75 14.75 9.2 L14.6 7.7 14.5 7.2 14.6 7.65 M16.0 9.05 Q16.0 14.2 13.9 16.95 8.8 23.55 -6.95 23.55 L-14.8 23.5 Q-15.05 23.45 -14.95 23.25 -14.75 22.85 -14.9 22.55 L-14.75 21.2 -14.65 18.7 Q-14.65 12.2 -17.55 12.2 -18.1 12.2 -19.1 13.05 -19.65 12.85 -19.65 12.25 -2.95 -2.35 6.75 -2.35 11.85 -2.35 14.45 3.2 15.75 6.0 16.0 9.05 M-3.5 16.6 L-3.85 17.85 Q-3.85 19.7 -1.7 19.7 1.35 19.7 3.6 17.6 5.15 16.15 5.75 14.45 L6.15 14.3 6.5 14.65 6.2 16.1 5.45 17.3 5.35 17.4 5.5 17.35 5.85 17.35 6.15 17.4 7.8 18.2 7.9 18.35 8.05 18.65 8.05 18.75 8.15 19.45 8.05 19.75 8.25 19.65 9.85 18.8 12.3 16.85 11.75 16.15 10.9 14.4 Q9.15 11.85 3.9 11.85 -1.95 11.85 -3.5 16.6" fill="#48241e" fill-rule="evenodd" stroke="none"/>
    <path d="M14.5 7.65 L14.6 7.65 14.6 7.7 14.75 9.2 Q15.4 12.75 13.15 15.85 12.95 14.5 11.15 12.95 8.45 10.6 3.9 10.6 -0.85 10.6 -3.35 14.05 -4.95 16.3 -4.95 18.1 -4.95 21.05 -1.1 21.05 1.4 21.05 4.15 18.55 4.8 19.1 5.55 19.3 L4.8 20.0 Q4.05 20.4 4.05 20.85 L4.1 21.1 4.15 21.1 Q-0.4 22.2 -6.85 22.2 L-13.4 21.95 Q-13.3 18.2 -13.45 16.3 -13.8 13.0 -16.25 11.2 L-13.4 8.6 -12.75 8.05 Q-9.3 11.95 -7.45 11.95 -6.6 11.95 -0.05 9.2 6.55 6.45 10.2 6.45 12.45 6.45 12.8 7.05 13.2 7.65 14.5 7.65" fill="#57352d" fill-rule="evenodd" stroke="none"/>
    <path d="M6.7 14.65 L6.5 14.7 6.4 15.75 6.4 16.1 6.75 15.35 6.75 14.0 6.7 14.65 M6.2 16.1 L6.5 14.65 6.15 14.3 5.75 14.45 Q5.15 16.15 3.6 17.6 1.35 19.7 -1.7 19.7 -3.85 19.7 -3.85 17.85 L-3.5 16.6 Q-2.4 17.95 -0.1 17.95 2.85 17.95 4.55 15.8 L6.25 13.6 Q9.4 13.6 9.9 18.2 L9.85 18.8 8.25 19.65 8.15 19.45 8.05 18.75 8.05 18.65 7.9 18.35 7.8 18.2 6.15 17.4 5.85 17.35 6.2 16.1" fill="#a05345" fill-rule="evenodd" stroke="none"/>
    <path d="M6.2 16.1 L5.85 17.35 5.5 17.35 5.45 17.3 6.2 16.1 M9.85 18.8 L9.9 18.2 Q9.4 13.6 6.25 13.6 L4.55 15.8 Q2.85 17.95 -0.1 17.95 -2.4 17.95 -3.5 16.6 -1.95 11.85 3.9 11.85 9.15 11.85 10.9 14.4 L11.75 16.15 12.3 16.85 9.85 18.8" fill="#b45f50" fill-rule="evenodd" stroke="none"/>
    <path d="M14.5 7.65 L14.6 7.65 14.5 7.65 M6.7 14.65 L6.75 14.0 6.75 15.35 6.4 16.1 6.4 15.75 6.5 14.7 6.7 14.65" fill="#463624" fill-rule="evenodd" stroke="none"/>
  </g>
</svg>
