<?xml version="1.0" encoding="UTF-8" standalone="no"?>
<svg xmlns:ffdec="https://www.free-decompiler.com/flash" xmlns:xlink="http://www.w3.org/1999/xlink" ffdec:objectType="shape" height="21.1px" width="32.35px" xmlns="http://www.w3.org/2000/svg">
  <g transform="matrix(1.0, 0.0, 0.0, 1.0, 21.25, -1.1)">
    <path d="M10.75 1.3 L10.6 1.2 Q11.5 1.3 10.8 1.3 L10.75 1.3" fill="#463624" fill-rule="evenodd" stroke="none"/>
    <path d="M10.6 1.2 L10.75 1.3 Q10.15 1.4 9.6 3.2 L9.55 3.35 9.5 3.5 9.75 3.4 9.9 4.2 Q9.9 9.2 7.4 13.7 2.7 22.2 -8.95 22.2 -13.1 22.2 -14.65 21.45 -16.75 20.45 -17.6 17.2 -18.1 15.35 -20.1 11.85 L-20.1 11.45 -19.95 11.4 -21.25 9.15 Q-11.55 12.45 -1.8 9.15 4.95 6.7 9.8 1.3 L10.6 1.2 M8.6 5.1 Q7.15 6.9 3.5 9.4 -1.95 13.1 -9.4 13.35 -15.3 13.5 -18.35 12.4 -17.6 13.55 -16.6 15.95 L-15.4 18.45 Q-15.1 19.1 -15.35 19.8 L-9.3 20.2 -5.8 20.05 Q-4.05 13.2 2.65 13.2 4.55 13.2 6.05 13.9 L5.65 14.45 6.95 12.15 Q7.85 10.0 8.4 6.3 L8.6 5.1 M2.7 14.3 Q-2.05 14.3 -3.75 17.2 L-4.7 19.9 Q2.0 18.95 5.25 15.0 3.25 14.3 2.7 14.3" fill="#48241e" fill-rule="evenodd" stroke="none"/>
    <path d="M9.75 3.4 L9.5 3.5 9.55 3.35 9.6 3.2 9.75 3.4" fill="#463623" fill-rule="evenodd" stroke="none"/>
    <path d="M8.6 5.1 L8.4 6.3 Q7.85 10.0 6.95 12.15 L5.65 14.45 6.05 13.9 Q4.55 13.2 2.65 13.2 -4.05 13.2 -5.8 20.05 L-9.3 20.2 -15.35 19.8 Q-15.1 19.1 -15.4 18.45 L-16.6 15.95 Q-17.6 13.55 -18.35 12.4 -15.3 13.5 -9.4 13.35 -1.95 13.1 3.5 9.4 7.15 6.9 8.6 5.1" fill="#57352d" fill-rule="evenodd" stroke="none"/>
    <path d="M2.7 14.3 Q3.25 14.3 5.25 15.0 2.0 18.95 -4.7 19.9 L-3.75 17.2 Q-2.05 14.3 2.7 14.3" fill="#b45f50" fill-rule="evenodd" stroke="none"/>
  </g>
</svg>
