<?xml version="1.0" encoding="UTF-8" standalone="no"?>
<svg xmlns:ffdec="https://www.free-decompiler.com/flash" xmlns:xlink="http://www.w3.org/1999/xlink" ffdec:objectType="shape" height="20.1px" width="32.35px" xmlns="http://www.w3.org/2000/svg">
  <g transform="matrix(1.0, 0.0, 0.0, 1.0, 22.0, -1.6)">
    <path d="M9.85 1.7 Q10.75 1.8 10.05 1.8 L9.95 1.85 9.85 1.7" fill="#463624" fill-rule="evenodd" stroke="none"/>
    <path d="M9.85 1.7 L9.95 1.85 Q9.55 1.9 9.25 2.6 9.4 2.5 9.4 3.75 9.4 5.55 7.9 12.85 6.8 18.6 -8.35 21.7 -16.5 21.7 -16.5 18.7 -16.5 17.8 -18.3 15.05 L-19.9 12.6 -20.5 12.25 -22.0 9.65 Q-12.3 12.95 -2.55 9.65 4.2 7.2 9.05 1.8 L9.85 1.7 M8.0 5.3 Q5.25 8.2 0.85 10.3 -3.55 12.35 -9.5 13.05 -15.55 13.75 -19.85 11.9 -17.25 14.35 -16.1 16.3 -15.8 16.8 -15.65 17.4 L-14.2 17.2 -9.85 17.45 -9.35 17.75 -9.8 17.85 -15.15 19.15 -9.4 19.7 Q-2.9 19.7 2.5 17.0 7.9 14.25 7.4 11.0 6.9 7.8 8.0 5.3" fill="#48241e" fill-rule="evenodd" stroke="none"/>
    <path d="M8.0 5.3 Q6.9 7.8 7.4 11.0 7.9 14.25 2.5 17.0 -2.9 19.7 -9.4 19.7 L-15.15 19.15 -9.8 17.85 -9.35 17.75 -9.85 17.45 -14.2 17.2 -15.65 17.4 Q-15.8 16.8 -16.1 16.3 -17.25 14.35 -19.85 11.9 -15.55 13.75 -9.5 13.05 -3.55 12.35 0.85 10.3 5.25 8.2 8.0 5.3" fill="#e5e5e5" fill-rule="evenodd" stroke="none"/>
  </g>
</svg>
