<?xml version="1.0" encoding="UTF-8" standalone="no"?>
<svg xmlns:ffdec="https://www.free-decompiler.com/flash" xmlns:xlink="http://www.w3.org/1999/xlink" ffdec:objectType="shape" height="7.85px" width="23.45px" xmlns="http://www.w3.org/2000/svg">
  <g transform="matrix(1.0, 0.0, 0.0, 1.0, 16.9, -10.6)">
    <path d="M4.5 12.3 L4.45 12.3 3.4 12.1 Q0.85 12.1 -1.1 13.35 -2.85 14.5 -2.95 15.65 L-6.45 15.35 -11.6 16.05 -11.6 15.1 Q-11.6 14.3 -12.15 13.2 -9.3 11.85 1.2 11.85 L3.75 12.1 4.05 12.05 4.5 12.3" fill="#57352d" fill-rule="evenodd" stroke="none"/>
    <path d="M4.5 12.3 L4.05 12.05 3.75 12.1 1.2 11.85 Q-9.3 11.85 -12.15 13.2 -11.6 14.3 -11.6 15.1 L-11.6 16.05 -6.45 15.35 -2.95 15.65 Q-2.85 14.5 -1.1 13.35 0.85 12.1 3.4 12.1 L4.45 12.3 4.8 12.55 4.5 12.3 M3.9 10.9 Q6.65 11.6 6.55 14.95 6.55 17.7 4.5 17.7 L-0.65 17.1 -6.95 16.45 Q-10.1 16.45 -12.7 17.45 -15.3 18.45 -15.95 18.45 L-16.4 18.35 -16.6 17.85 Q-16.6 17.2 -12.8 16.3 L-12.4 16.2 Q-13.35 15.3 -13.35 13.15 L-16.75 14.45 Q-16.9 14.85 -16.9 14.2 -16.9 13.45 -12.7 12.45 L-13.15 12.55 Q-12.65 12.0 -10.9 11.75 L-6.5 11.3 -3.45 11.0 -0.6 10.7 1.15 10.6 3.9 10.9 M2.95 13.65 Q1.0 13.6 0.4 14.05 -0.65 14.75 -0.7 15.45 -0.75 15.8 -1.55 15.8 L-1.6 15.85 -0.85 16.0 5.05 16.6 Q5.65 16.6 5.65 15.0 5.65 13.8 5.2 13.05 4.5 13.65 2.95 13.65" fill="#48241e" fill-rule="evenodd" stroke="none"/>
    <path d="M2.95 13.65 Q4.5 13.65 5.2 13.05 5.65 13.8 5.65 15.0 5.65 16.6 5.05 16.6 L-0.85 16.0 -1.6 15.85 -1.55 15.8 Q-0.75 15.8 -0.7 15.45 -0.65 14.75 0.4 14.05 1.0 13.6 2.95 13.65" fill="#b45f50" fill-rule="evenodd" stroke="none"/>
  </g>
</svg>
