<?xml version="1.0" encoding="UTF-8" standalone="no"?>
<svg xmlns:ffdec="https://www.free-decompiler.com/flash" xmlns:xlink="http://www.w3.org/1999/xlink" ffdec:objectType="shape" height="9.0px" width="18.3px" xmlns="http://www.w3.org/2000/svg">
  <g transform="matrix(1.0, 0.0, 0.0, 1.0, 21.0, 7.35)">
    <path d="M-13.35 -6.1 Q-12.8 -7.35 -9.05 -7.35 -2.3 -7.35 -2.7 -3.35 -2.8 -2.0 -3.45 -1.35 L-3.65 -1.85 -3.85 -1.65 -4.05 -1.45 -4.2 -1.35 Q-5.2 -0.65 -7.45 0.15 -11.85 1.65 -16.7 1.65 -21.75 1.65 -20.85 -1.7 -20.85 -4.9 -14.45 -5.95 L-13.65 -6.1 -13.35 -6.1 M-6.45 -4.5 Q-19.95 -6.8 -19.95 -1.7 -19.95 0.55 -18.45 0.55 -9.2 0.55 -4.8 -2.5 -5.15 -3.5 -5.85 -3.9 L-6.45 -4.5" fill="#48241e" fill-rule="evenodd" stroke="none"/>
    <path d="M-6.45 -4.5 L-5.85 -3.9 Q-5.15 -3.5 -4.8 -2.5 -9.2 0.55 -18.45 0.55 -19.95 0.55 -19.95 -1.7 -19.95 -6.8 -6.45 -4.5" fill="#b45f50" fill-rule="evenodd" stroke="none"/>
  </g>
</svg>
