<?xml version="1.0" encoding="UTF-8" standalone="no"?>
<svg xmlns:ffdec="https://www.free-decompiler.com/flash" xmlns:xlink="http://www.w3.org/1999/xlink" ffdec:objectType="shape" height="9.0px" width="17.25px" xmlns="http://www.w3.org/2000/svg">
  <g transform="matrix(1.0, 0.0, 0.0, 1.0, 20.45, 7.6)">
    <path d="M-11.7 -7.6 Q-7.0 -7.6 -4.75 -5.9 -3.2 -4.75 -3.2 -3.35 L-3.7 -1.8 -4.35 -0.45 Q-5.65 0.95 -8.7 0.65 L-13.7 0.4 -17.45 1.4 -20.45 -5.2 Q-20.45 -6.6 -13.7 -7.5 L-11.7 -7.6 M-19.1 -5.1 Q-17.7 -3.6 -17.1 -0.45 L-16.95 -0.2 -5.2 -1.5 Q-4.45 -1.6 -4.45 -3.35 -4.45 -6.5 -13.95 -6.5 -17.9 -6.5 -19.1 -5.1" fill="#48241e" fill-rule="evenodd" stroke="none"/>
    <path d="M-19.1 -5.1 Q-17.9 -6.5 -13.95 -6.5 -4.45 -6.5 -4.45 -3.35 -4.45 -1.6 -5.2 -1.5 L-16.95 -0.2 -17.1 -0.45 Q-17.7 -3.6 -19.1 -5.1" fill="#57352d" fill-rule="evenodd" stroke="none"/>
  </g>
</svg>
