<?xml version="1.0" encoding="UTF-8" standalone="no"?>
<svg xmlns:ffdec="https://www.free-decompiler.com/flash" xmlns:xlink="http://www.w3.org/1999/xlink" ffdec:objectType="shape" height="7.5px" width="18.35px" xmlns="http://www.w3.org/2000/svg">
  <g transform="matrix(1.0, 0.0, 0.0, 1.0, 23.7, 6.35)">
    <path d="M-20.85 -0.6 Q-21.5 -0.6 -21.1 -0.75 -21.3 -1.85 -22.45 -4.35 L-6.7 -5.45 -6.45 -2.95 -6.7 -0.6 Q-7.6 -1.2 -8.75 -1.6 -10.95 -2.45 -14.2 -2.45 -19.0 -2.45 -20.85 -0.6" fill="#e5e5e5" fill-rule="evenodd" stroke="none"/>
    <path d="M-23.7 -4.45 Q-23.7 -6.35 -10.3 -6.35 -7.85 -6.35 -6.55 -5.6 -5.95 -5.25 -5.65 -4.7 -5.2 -3.85 -5.45 -3.05 L-5.7 0.75 -6.2 0.9 Q-9.65 -1.2 -14.15 -1.2 -17.5 -1.2 -19.4 -0.15 -20.4 0.4 -21.2 1.15 L-22.55 -1.5 Q-23.7 -4.0 -23.7 -4.45 M-20.85 -0.6 Q-19.0 -2.45 -14.2 -2.45 -10.95 -2.45 -8.75 -1.6 -7.6 -1.2 -6.7 -0.6 L-6.45 -2.95 -6.7 -5.45 -22.45 -4.35 Q-21.3 -1.85 -21.1 -0.75 -21.5 -0.6 -20.85 -0.6" fill="#48241e" fill-rule="evenodd" stroke="none"/>
  </g>
</svg>
