<?xml version="1.0" encoding="UTF-8" standalone="no"?>
<svg xmlns:ffdec="https://www.free-decompiler.com/flash" xmlns:xlink="http://www.w3.org/1999/xlink" ffdec:objectType="shape" height="177.9px" width="171.45px" xmlns="http://www.w3.org/2000/svg">
  <g transform="matrix(1.0, 0.0, 0.0, 1.0, 107.05, 138.45)">
    <path d="M-18.05 -26.25 L-27.3 -27.2 Q-28.85 -30.8 -27.2 -34.65 L-18.15 -33.4 -18.05 -33.4 -18.05 -26.25 M-29.15 -27.4 L-38.05 -28.7 -38.05 -36.7 -39.05 -36.95 Q-39.05 -31.05 -40.05 -29.0 L-50.15 -30.7 Q-52.0 -33.2 -52.05 -40.1 L-53.05 -40.4 Q-52.55 -35.8 -53.05 -31.25 L-51.7 -31.0 -52.3 -31.1 Q-60.45 -32.55 -67.25 -34.85 -71.7 -36.35 -75.55 -38.2 -78.85 -44.35 -75.55 -48.35 L-77.15 -49.1 Q-78.3 -45.3 -76.85 -38.85 L-76.25 -38.55 Q-78.25 -39.5 -80.05 -40.6 -81.6 -45.9 -79.75 -50.4 L-80.8 -51.0 Q-75.6 -48.1 -68.7 -45.5 L-69.3 -45.7 Q-67.0 -39.55 -69.3 -35.6 L-67.25 -34.85 Q-68.75 -40.3 -67.25 -44.95 -60.85 -42.55 -53.05 -40.4 L-45.05 -38.3 -39.05 -36.95 -31.6 -35.45 Q-29.0 -31.15 -29.15 -27.4 M-80.5 -40.85 L-85.95 -44.65 -86.0 -44.65 -86.3 -44.9 -86.3 -54.4 Q-84.3 -53.0 -81.95 -51.65 L-83.25 -42.7 -80.5 -40.85 M1.2 -91.4 Q3.7 -94.35 11.1 -76.3 L17.95 -57.65 Q19.45 -53.65 21.2 -47.15 22.45 -42.5 11.1 -40.35 0.6 -38.4 -11.8 -53.4 -13.15 -45.8 -20.65 -41.8 -27.35 -38.3 -35.05 -39.9 -54.6 -43.9 -72.15 -52.95 -71.65 -53.65 -70.6 -53.75 -63.6 -54.9 -56.8 -52.95 L-56.7 -52.95 Q-68.15 -59.35 -69.55 -65.15 L-68.9 -65.2 -54.2 -63.45 -54.55 -63.85 Q-62.15 -66.8 -67.0 -72.8 -66.2 -73.7 -64.85 -73.6 L-51.95 -70.95 -52.0 -71.1 Q-57.3 -75.6 -63.05 -79.15 -65.9 -81.3 -62.25 -80.35 -58.95 -79.45 -52.3 -76.65 -42.55 -72.5 -57.8 -83.4 -61.3 -85.9 -45.8 -80.4 -41.65 -82.0 -40.3 -86.4 -37.6 -81.45 -32.05 -79.4 L-26.3 -90.9 Q-24.7 -94.7 -17.15 -101.95 -9.25 -109.45 -4.8 -110.9 -0.7 -112.2 -3.0 -107.85 -4.0 -106.0 -9.3 -98.65 -12.4 -94.35 -9.75 -94.3 -7.35 -94.25 -4.05 -96.9 -2.1 -98.45 -5.2 -90.5 -9.05 -80.65 -8.8 -78.65 -8.5 -76.15 -5.1 -81.65 L1.2 -91.4 M14.2 -17.65 Q16.05 -14.9 18.8 -7.7 21.8 0.25 23.65 7.9 28.75 28.65 21.7 30.6 14.2 32.7 -3.4 33.5 -19.55 34.2 -28.55 33.35 -39.3 32.35 -41.8 30.35 -42.9 30.1 -43.75 26.3 -45.35 18.65 -43.8 0.85 -42.1 -18.45 -34.6 -22.85 -31.7 -24.55 -29.4 -22.75 -27.15 -21.0 -27.05 -16.9 -26.8 -5.15 -24.6 5.75 -22.05 18.3 -20.05 5.1 -15.2 -27.35 -14.8 -17.15 -14.6 -11.15 -12.15 -2.45 -9.7 6.45 -9.55 -1.4 -9.35 -9.85 -7.3 -15.85 -5.25 -21.75 1.15 7.7 7.55 37.1 7.75 18.0 7.9 -1.15 9.5 -11.7 11.1 -22.3 14.2 -17.65 M-84.5 -99.5 Q-82.05 -102.4 -81.9 -101.05 -81.8 -99.75 -82.7 -96.35 -83.65 -92.95 -79.9 -91.15 -76.2 -89.4 -77.3 -86.05 -78.4 -82.75 -84.4 -86.2 -90.4 -89.65 -89.2 -87.85 -88.05 -86.05 -84.1 -82.55 -80.2 -79.05 -81.0 -78.2 -81.85 -77.35 -84.8 -79.6 -87.8 -81.9 -89.4 -78.9 -91.0 -75.95 -87.5 -68.45 -84.05 -61.0 -88.5 -64.4 -93.0 -67.8 -94.6 -75.35 -96.25 -82.95 -91.95 -89.6 -87.65 -96.25 -84.5 -99.5 M-84.55 -35.65 Q-82.55 -28.4 -85.35 0.75 L-86.55 14.75 Q-86.65 18.45 -84.8 11.6 -78.65 -12.65 -75.9 -22.2 -71.1 -38.95 -70.8 -29.4 -69.9 -2.4 -66.05 -15.9 -64.0 -23.05 -59.4 -26.75 -57.65 -28.2 -56.35 -28.25 -55.05 -28.3 -54.8 -25.15 -53.6 -10.65 -54.5 9.85 -55.4 30.3 -68.15 28.85 -80.9 27.35 -92.55 22.1 L-93.6 22.0 Q-94.9 21.75 -95.9 21.05 -99.1 18.9 -98.3 13.1 -96.2 -2.45 -92.35 -19.8 -86.95 -44.3 -84.55 -35.65 M-56.05 -31.85 Q-57.75 -37.0 -56.5 -41.35 L-62.2 -43.15 Q-57.1 -40.1 -58.05 -32.3 L-56.05 -31.85" fill="#4e4040" fill-rule="evenodd" stroke="none"/>
    <path d="M-59.8 -99.55 L-59.35 -99.25 Q-52.6 -95.4 -41.75 -91.7 L-47.85 -84.75 Q-59.4 -89.1 -66.3 -95.15 L-59.8 -99.55 M-39.95 -92.4 Q-24.25 -113.4 -2.95 -121.25 -27.0 -105.25 -33.9 -83.4 L-39.95 -92.4" fill="#cccccc" fill-rule="evenodd" stroke="none"/>
    <path d="M-47.05 -121.65 Q-38.2 -115.0 -20.3 -117.15 -31.8 -109.75 -41.55 -97.4 -53.15 -96.7 -55.6 -102.85 -64.65 -103.2 -64.8 -109.15 -60.5 -115.6 -47.05 -121.65" fill="#f1ba87" fill-rule="evenodd" stroke="none"/>
    <path d="M-82.4 -59.65 Q-82.4 -61.4 -81.15 -62.65 -79.9 -63.9 -78.15 -63.9 -76.4 -63.9 -75.15 -62.65 -73.9 -61.4 -73.9 -59.65 -73.9 -57.9 -75.15 -56.65 -76.4 -55.4 -78.15 -55.4 -79.9 -55.4 -81.15 -56.65 -82.4 -57.9 -82.4 -59.65 M-65.3 -89.65 Q-64.05 -88.4 -64.05 -86.65 -64.05 -84.9 -65.3 -83.65 -66.55 -82.4 -68.3 -82.4 -70.05 -82.4 -71.3 -83.65 -72.55 -84.9 -72.55 -86.65 -72.55 -88.4 -71.3 -89.65 -70.05 -90.9 -68.3 -90.9 -66.55 -90.9 -65.3 -89.65 M-75.55 -78.4 Q-73.8 -78.4 -72.55 -77.15 -71.3 -75.9 -71.3 -74.15 -71.3 -72.4 -72.55 -71.15 -73.8 -69.9 -75.55 -69.9 -77.3 -69.9 -78.55 -71.15 -79.8 -72.4 -79.8 -74.15 -79.8 -75.9 -78.55 -77.15 -77.3 -78.4 -75.55 -78.4" fill="#b89650" fill-rule="evenodd" stroke="none"/>
    <path d="M-63.3 -90.35 Q-56.95 -86.3 -48.05 -83.9 L-47.5 -83.95 -47.05 -84.25 -41.3 -90.85 -34.55 -82.75 Q-34.35 -82.5 -33.95 -82.4 L-33.25 -82.55 -32.85 -83.1 Q-25.2 -106.5 6.1 -124.45 L6.2 -124.5 6.6 -124.9 6.7 -125.15 6.85 -125.6 8.55 -125.35 Q10.15 -124.9 8.2 -126.75 6.2 -128.6 8.95 -128.15 10.3 -127.95 13.4 -126.8 16.45 -125.7 30.35 -106.0 44.2 -86.3 45.15 -52.85 33.2 -38.8 11.5 -35.45 -1.25 -33.5 -17.9 -35.4 L-17.95 -35.4 Q-30.25 -36.85 -51.5 -42.3 -72.8 -47.75 -80.55 -53.2 L-90.25 -60.3 Q-108.95 -81.85 -84.5 -104.35 -60.05 -126.9 -37.0 -133.4 L-40.85 -131.35 -40.9 -131.3 Q-41.1 -131.25 -41.25 -131.15 L-41.6 -130.95 Q-72.7 -115.5 -77.8 -109.3 L-78.05 -108.55 -77.7 -107.9 Q-77.45 -107.65 -77.0 -107.65 L-72.75 -107.8 -75.4 -105.65 -75.75 -105.1 -75.7 -104.45 Q-72.9 -98.4 -67.8 -93.8 L-66.4 -92.6 -68.3 -92.9 Q-70.85 -92.9 -72.7 -91.05 -74.55 -89.2 -74.55 -86.65 -74.55 -84.1 -72.7 -82.25 -70.85 -80.4 -68.3 -80.4 -65.75 -80.4 -63.9 -82.25 -62.05 -84.1 -62.05 -86.65 -62.05 -88.75 -63.3 -90.35 M-18.05 -33.4 Q-1.1 -31.5 11.8 -33.45 33.45 -36.75 49.4 -53.6 49.7 -51.85 49.5 -50.3 L48.65 -46.7 48.6 -46.05 48.6 -46.0 Q32.15 -29.6 10.55 -26.7 -1.85 -25.05 -18.0 -26.25 L-18.05 -26.25 -18.05 -33.4 M-27.3 -27.2 L-27.3 -27.15 -29.15 -27.4 Q-29.0 -31.15 -31.6 -35.45 L-27.2 -34.75 -27.2 -34.65 Q-28.85 -30.8 -27.3 -27.2 M-38.05 -28.7 L-39.55 -28.9 -40.05 -29.0 Q-39.05 -31.05 -39.05 -36.95 L-38.05 -36.7 -38.05 -28.7 M-50.15 -30.7 L-51.1 -30.85 -51.7 -31.0 -53.05 -31.25 Q-52.55 -35.8 -53.05 -40.4 L-52.05 -40.1 Q-52.0 -33.2 -50.15 -30.7 M-75.55 -38.2 L-76.25 -38.55 -76.85 -38.85 Q-78.3 -45.3 -77.15 -49.1 L-75.55 -48.35 Q-78.85 -44.35 -75.55 -38.2 M-80.05 -40.6 L-80.05 -40.55 -80.5 -40.85 -83.25 -42.7 -81.95 -51.65 -81.2 -51.2 -80.8 -51.0 -79.75 -50.4 Q-81.6 -45.9 -80.05 -40.6 M-86.3 -44.9 Q-88.3 -46.5 -89.8 -48.25 L-89.75 -48.4 -89.75 -48.85 Q-91.45 -55.0 -90.65 -57.85 L-86.85 -54.8 -86.3 -54.4 -86.3 -44.9 M-68.7 -45.5 L-67.25 -44.95 Q-68.75 -40.3 -67.25 -34.85 L-69.3 -35.6 Q-67.0 -39.55 -69.3 -45.7 L-68.7 -45.5 M1.2 -91.4 L-5.1 -81.65 Q-8.5 -76.15 -8.8 -78.65 -9.05 -80.65 -5.2 -90.5 -2.1 -98.45 -4.05 -96.9 -7.35 -94.25 -9.75 -94.3 -12.4 -94.35 -9.3 -98.65 -4.0 -106.0 -3.0 -107.85 -0.7 -112.2 -4.8 -110.9 -9.25 -109.45 -17.15 -101.95 -24.7 -94.7 -26.3 -90.9 L-32.05 -79.4 Q-37.6 -81.45 -40.3 -86.4 -41.65 -82.0 -45.8 -80.4 -61.3 -85.9 -57.8 -83.4 -42.55 -72.5 -52.3 -76.65 -58.95 -79.45 -62.25 -80.35 -65.9 -81.3 -63.05 -79.15 -57.3 -75.6 -52.0 -71.1 L-51.95 -70.95 -64.85 -73.6 Q-66.2 -73.7 -67.0 -72.8 -62.15 -66.8 -54.55 -63.85 L-54.2 -63.45 -68.9 -65.2 -69.55 -65.15 Q-68.15 -59.35 -56.7 -52.95 L-56.8 -52.95 Q-63.6 -54.9 -70.6 -53.75 -71.65 -53.65 -72.15 -52.95 -54.6 -43.9 -35.05 -39.9 -27.35 -38.3 -20.65 -41.8 -13.15 -45.8 -11.8 -53.4 0.6 -38.4 11.1 -40.35 22.45 -42.5 21.2 -47.15 19.45 -53.65 17.95 -57.65 L11.1 -76.3 Q3.7 -94.35 1.2 -91.4 M14.2 -17.65 Q11.1 -22.3 9.5 -11.7 7.9 -1.15 7.75 18.0 7.55 37.1 1.15 7.7 -5.25 -21.75 -7.3 -15.85 -9.35 -9.85 -9.55 -1.4 -9.7 6.45 -12.15 -2.45 -14.6 -11.15 -14.8 -17.15 -15.2 -27.35 -20.05 5.1 -22.05 18.3 -24.6 5.75 -26.8 -5.15 -27.05 -16.9 -27.15 -21.0 -29.4 -22.75 -31.7 -24.55 -34.6 -22.85 -42.1 -18.45 -43.8 0.85 -45.35 18.65 -43.75 26.3 -42.9 30.1 -41.8 30.35 -39.3 32.35 -28.55 33.35 -19.55 34.2 -3.4 33.5 14.2 32.7 21.7 30.6 28.75 28.65 23.65 7.9 21.8 0.25 18.8 -7.7 16.05 -14.9 14.2 -17.65 M44.1 -35.9 Q54.55 -20.0 59.85 18.8 50.9 29.8 38.15 32.1 L8.95 36.95 Q-11.85 37.85 -26.05 37.15 -40.3 36.45 -62.1 33.45 -83.4 30.7 -93.7 26.55 -103.25 22.65 -104.0 19.05 -99.65 -8.3 -99.0 -22.8 -98.35 -37.35 -90.35 -47.35 -88.75 -45.5 -86.6 -43.85 -74.4 -34.05 -45.95 -28.9 -30.85 -26.2 -18.05 -25.25 -1.75 -24.05 10.7 -25.7 32.35 -28.6 44.1 -35.9 M-84.5 -99.5 Q-87.65 -96.25 -91.95 -89.6 -96.25 -82.95 -94.6 -75.35 -93.0 -67.8 -88.5 -64.4 -84.05 -61.0 -87.5 -68.45 -91.0 -75.95 -89.4 -78.9 -87.8 -81.9 -84.8 -79.6 -81.85 -77.35 -81.0 -78.2 -80.2 -79.05 -84.1 -82.55 -88.05 -86.05 -89.2 -87.85 -90.4 -89.65 -84.4 -86.2 -78.4 -82.75 -77.3 -86.05 -76.2 -89.4 -79.9 -91.15 -83.65 -92.95 -82.7 -96.35 -81.8 -99.75 -81.9 -101.05 -82.05 -102.4 -84.5 -99.5 M-82.55 -55.25 Q-80.7 -53.4 -78.15 -53.4 -75.6 -53.4 -73.75 -55.25 -71.9 -57.1 -71.9 -59.65 -71.9 -62.2 -73.75 -64.05 -75.6 -65.9 -78.15 -65.9 -80.7 -65.9 -82.55 -64.05 -84.4 -62.2 -84.4 -59.65 -84.4 -57.1 -82.55 -55.25 M-84.55 -35.65 Q-86.95 -44.3 -92.35 -19.8 -96.2 -2.45 -98.3 13.1 -99.1 18.9 -95.9 21.05 -94.9 21.75 -93.6 22.0 L-92.55 22.1 Q-80.9 27.35 -68.15 28.85 -55.4 30.3 -54.5 9.85 -53.6 -10.65 -54.8 -25.15 -55.05 -28.3 -56.35 -28.25 -57.65 -28.2 -59.4 -26.75 -64.0 -23.05 -66.05 -15.9 -69.9 -2.4 -70.8 -29.4 -71.1 -38.95 -75.9 -22.2 -78.65 -12.65 -84.8 11.6 -86.65 18.45 -86.55 14.75 L-85.35 0.75 Q-82.55 -28.4 -84.55 -35.65 M-79.95 -78.55 Q-81.8 -76.7 -81.8 -74.15 -81.8 -71.6 -79.95 -69.75 -78.1 -67.9 -75.55 -67.9 -73.0 -67.9 -71.15 -69.75 -69.3 -71.6 -69.3 -74.15 -69.3 -76.7 -71.15 -78.55 -73.0 -80.4 -75.55 -80.4 -78.1 -80.4 -79.95 -78.55 M-56.05 -31.85 L-58.05 -32.3 Q-57.1 -40.1 -62.2 -43.15 L-56.5 -41.35 Q-57.75 -37.0 -56.05 -31.85" fill="#453838" fill-rule="evenodd" stroke="none"/>
    <path d="M-74.5 -109.75 Q-70.15 -113.45 -58.95 -119.65 -65.2 -114.9 -70.2 -109.85 L-74.5 -109.75 M-66.3 -95.15 L-66.45 -95.3 Q-71.0 -99.35 -73.55 -104.6 L-69.9 -107.5 Q-66.2 -103.35 -59.8 -99.55 L-66.3 -95.15" fill="#aeaeae" fill-rule="evenodd" stroke="none"/>
    <path d="M-66.4 -92.6 L-67.8 -93.8 Q-72.9 -98.4 -75.7 -104.45 L-75.75 -105.1 -75.4 -105.65 -72.75 -107.8 -77.0 -107.65 Q-77.45 -107.65 -77.7 -107.9 L-78.05 -108.55 -77.8 -109.3 Q-72.7 -115.5 -41.6 -130.95 L-41.25 -131.15 Q-41.1 -131.25 -40.9 -131.3 L-40.85 -131.35 -37.0 -133.4 Q-60.05 -126.9 -84.5 -104.35 -108.95 -81.85 -90.25 -60.3 L-80.55 -53.2 Q-72.8 -47.75 -51.5 -42.3 -30.25 -36.85 -17.95 -35.4 L-17.9 -35.4 Q-1.25 -33.5 11.5 -35.45 33.2 -38.8 45.15 -52.85 44.2 -86.3 30.35 -106.0 16.45 -125.7 13.4 -126.8 10.3 -127.95 8.95 -128.15 6.2 -128.6 8.2 -126.75 10.15 -124.9 8.55 -125.35 L6.85 -125.6 6.7 -125.15 6.6 -124.9 6.2 -124.5 6.1 -124.45 Q-25.2 -106.5 -32.85 -83.1 L-33.25 -82.55 -33.95 -82.4 Q-34.35 -82.5 -34.55 -82.75 L-41.3 -90.85 -47.05 -84.25 -47.5 -83.95 -48.05 -83.9 Q-56.95 -86.3 -63.3 -90.35 L-63.9 -91.05 Q-65.05 -92.2 -66.4 -92.6 M6.9 -133.8 Q20.65 -127.85 31.65 -113.85 50.75 -89.45 50.9 -55.8 51.8 -52.65 51.5 -50.05 51.2 -47.75 50.6 -46.2 56.45 -20.9 64.4 17.4 L64.4 17.85 64.15 18.3 Q52.05 31.7 38.5 34.05 L9.2 38.95 9.05 38.95 Q-11.85 39.85 -26.15 39.15 -40.5 38.45 -62.35 35.45 -84.0 32.6 -94.45 28.4 -105.4 23.9 -106.95 20.1 L-107.0 19.5 Q-101.6 -8.5 -100.2 -23.35 -98.85 -38.3 -91.85 -48.75 -93.8 -56.35 -92.2 -59.5 -110.7 -83.05 -82.1 -109.25 -56.95 -132.45 -28.95 -137.2 L-28.85 -137.2 -21.75 -138.15 Q-17.15 -138.6 -12.7 -138.35 L-12.45 -138.35 Q-2.15 -137.75 6.9 -133.8 M-18.05 -26.25 L-18.0 -26.25 Q-1.85 -25.05 10.55 -26.7 32.15 -29.6 48.6 -46.0 L48.6 -46.05 48.65 -46.7 49.5 -50.3 Q49.7 -51.85 49.4 -53.6 33.45 -36.75 11.8 -33.45 -1.1 -31.5 -18.05 -33.4 L-18.15 -33.4 -27.2 -34.65 -27.2 -34.75 -31.6 -35.45 -39.05 -36.95 -45.05 -38.3 -53.05 -40.4 Q-60.85 -42.55 -67.25 -44.95 L-68.7 -45.5 Q-75.6 -48.1 -80.8 -51.0 L-81.2 -51.2 -81.95 -51.65 Q-84.3 -53.0 -86.3 -54.4 L-86.85 -54.8 -90.65 -57.85 Q-91.45 -55.0 -89.75 -48.85 L-89.75 -48.4 -89.8 -48.25 Q-88.3 -46.5 -86.3 -44.9 L-86.0 -44.65 -85.95 -44.65 -80.5 -40.85 -80.05 -40.55 -80.05 -40.6 Q-78.25 -39.5 -76.25 -38.55 L-75.55 -38.2 Q-71.7 -36.35 -67.25 -34.85 -60.45 -32.55 -52.3 -31.1 L-51.7 -31.0 -51.1 -30.85 -50.15 -30.7 -40.05 -29.0 -39.55 -28.9 -38.05 -28.7 -29.15 -27.4 -27.3 -27.15 -27.3 -27.2 -18.05 -26.25 M44.1 -35.9 Q32.35 -28.6 10.7 -25.7 -1.75 -24.05 -18.05 -25.25 -30.85 -26.2 -45.95 -28.9 -74.4 -34.05 -86.6 -43.85 -88.75 -45.5 -90.35 -47.35 -98.35 -37.35 -99.0 -22.8 -99.65 -8.3 -104.0 19.05 -103.25 22.65 -93.7 26.55 -83.4 30.7 -62.1 33.45 -40.3 36.45 -26.05 37.15 -11.85 37.85 8.95 36.95 L38.15 32.1 Q50.9 29.8 59.85 18.8 54.55 -20.0 44.1 -35.9 M-59.8 -99.55 Q-66.2 -103.35 -69.9 -107.5 L-73.55 -104.6 Q-71.0 -99.35 -66.45 -95.3 L-66.3 -95.15 Q-59.4 -89.1 -47.85 -84.75 L-41.75 -91.7 Q-52.6 -95.4 -59.35 -99.25 L-59.8 -99.55 M-74.5 -109.75 L-70.2 -109.85 Q-65.2 -114.9 -58.95 -119.65 -70.15 -113.45 -74.5 -109.75 M-68.4 -108.85 Q-64.75 -104.75 -58.85 -100.35 -53.0 -95.95 -41.6 -93.55 -19.5 -118.95 4.2 -126.0 -0.25 -132.85 -12.85 -136.35 -17.1 -136.6 -21.55 -136.15 L-28.5 -135.3 Q-34.6 -132.55 -40.05 -129.5 L-40.15 -129.45 -40.4 -129.35 -40.45 -129.25 -40.6 -129.15 Q-57.45 -119.75 -68.4 -108.85 M-39.95 -92.4 L-33.9 -83.4 Q-27.0 -105.25 -2.95 -121.25 -24.25 -113.4 -39.95 -92.4" fill="#000000" fill-rule="evenodd" stroke="none"/>
    <path d="M-66.4 -92.6 Q-65.05 -92.2 -63.9 -91.05 L-63.3 -90.35 Q-62.05 -88.75 -62.05 -86.65 -62.05 -84.1 -63.9 -82.25 -65.75 -80.4 -68.3 -80.4 -70.85 -80.4 -72.7 -82.25 -74.55 -84.1 -74.55 -86.65 -74.55 -89.2 -72.7 -91.05 -70.85 -92.9 -68.3 -92.9 L-66.4 -92.6 M-82.55 -55.25 Q-84.4 -57.1 -84.4 -59.65 -84.4 -62.2 -82.55 -64.05 -80.7 -65.9 -78.15 -65.9 -75.6 -65.9 -73.75 -64.05 -71.9 -62.2 -71.9 -59.65 -71.9 -57.1 -73.75 -55.25 -75.6 -53.4 -78.15 -53.4 -80.7 -53.4 -82.55 -55.25 M-82.4 -59.65 Q-82.4 -57.9 -81.15 -56.65 -79.9 -55.4 -78.15 -55.4 -76.4 -55.4 -75.15 -56.65 -73.9 -57.9 -73.9 -59.65 -73.9 -61.4 -75.15 -62.65 -76.4 -63.9 -78.15 -63.9 -79.9 -63.9 -81.15 -62.65 -82.4 -61.4 -82.4 -59.65 M-65.3 -89.65 Q-66.55 -90.9 -68.3 -90.9 -70.05 -90.9 -71.3 -89.65 -72.55 -88.4 -72.55 -86.65 -72.55 -84.9 -71.3 -83.65 -70.05 -82.4 -68.3 -82.4 -66.55 -82.4 -65.3 -83.65 -64.05 -84.9 -64.05 -86.65 -64.05 -88.4 -65.3 -89.65 M-79.95 -78.55 Q-78.1 -80.4 -75.55 -80.4 -73.0 -80.4 -71.15 -78.55 -69.3 -76.7 -69.3 -74.15 -69.3 -71.6 -71.15 -69.75 -73.0 -67.9 -75.55 -67.9 -78.1 -67.9 -79.95 -69.75 -81.8 -71.6 -81.8 -74.15 -81.8 -76.7 -79.95 -78.55 M-75.55 -78.4 Q-77.3 -78.4 -78.55 -77.15 -79.8 -75.9 -79.8 -74.15 -79.8 -72.4 -78.55 -71.15 -77.3 -69.9 -75.55 -69.9 -73.8 -69.9 -72.55 -71.15 -71.3 -72.4 -71.3 -74.15 -71.3 -75.9 -72.55 -77.15 -73.8 -78.4 -75.55 -78.4" fill="#2c2116" fill-rule="evenodd" stroke="none"/>
    <path d="M-68.4 -108.85 Q-57.45 -119.75 -40.6 -129.15 L-40.45 -129.25 -40.4 -129.35 -40.15 -129.45 -40.05 -129.5 Q-34.6 -132.55 -28.5 -135.3 L-21.55 -136.15 Q-17.1 -136.6 -12.85 -136.35 -0.25 -132.85 4.2 -126.0 -19.5 -118.95 -41.6 -93.55 -53.0 -95.95 -58.85 -100.35 -64.75 -104.75 -68.4 -108.85 M-47.05 -121.65 Q-60.5 -115.6 -64.8 -109.15 -64.65 -103.2 -55.6 -102.85 -53.15 -96.7 -41.55 -97.4 -31.8 -109.75 -20.3 -117.15 -38.2 -115.0 -47.05 -121.65" fill="#db9c64" fill-rule="evenodd" stroke="none"/>
  </g>
</svg>
