<?xml version="1.0" encoding="UTF-8" standalone="no"?>
<svg xmlns:ffdec="https://www.free-decompiler.com/flash" xmlns:xlink="http://www.w3.org/1999/xlink" ffdec:objectType="shape" height="15.5px" width="27.8px" xmlns="http://www.w3.org/2000/svg">
  <g transform="matrix(1.0, 0.0, 0.0, 1.0, 34.85, -13.4)">
    <path d="M-12.65 16.1 Q-10.75 16.4 -9.65 18.25 -8.55 20.05 -8.85 22.3 -9.25 24.6 -10.85 26.0 -12.45 27.35 -14.35 27.1 -16.25 26.8 -17.4 25.0 -18.5 23.15 -18.1 20.9 -17.95 19.6 -17.35 18.65 L-16.2 17.2 -15.05 16.45 Q-13.9 15.9 -12.65 16.1 M-33.0 19.35 Q-32.85 18.25 -32.35 17.4 L-31.35 16.15 -30.35 15.5 -28.25 15.2 Q-26.6 15.45 -25.65 17.05 -24.7 18.6 -25.0 20.6 -25.3 22.55 -26.7 23.8 -28.1 25.0 -29.75 24.75 -31.4 24.45 -32.4 22.9 -33.35 21.3 -33.0 19.35 Z" fill="none" stroke="#000000" stroke-linecap="round" stroke-linejoin="round" stroke-width="3.5"/>
  </g>
</svg>
