<?xml version="1.0" encoding="UTF-8" standalone="no"?>
<svg xmlns:ffdec="https://www.free-decompiler.com/flash" xmlns:xlink="http://www.w3.org/1999/xlink" ffdec:objectType="shape" height="12.0px" width="27.7px" xmlns="http://www.w3.org/2000/svg">
  <g transform="matrix(1.0, 0.0, 0.0, 1.0, 34.65, -14.1)">
    <path d="M-13.9 24.3 Q-15.85 23.95 -17.05 22.75 -18.2 21.55 -18.0 20.1 -17.85 19.3 -17.35 18.75 L-16.3 17.9 -15.2 17.5 -12.85 17.4 Q-10.95 17.7 -9.75 18.9 -8.55 20.1 -8.75 21.55 -9.0 22.95 -10.5 23.75 -12.0 24.55 -13.9 24.3 M-30.45 16.05 L-28.35 15.95 Q-26.7 16.2 -25.7 17.25 -24.65 18.3 -24.85 19.55 -25.05 20.8 -26.35 21.5 -27.65 22.15 -29.3 21.9 -30.95 21.65 -32.05 20.6 -33.05 19.55 -32.85 18.3 -32.75 17.65 -32.3 17.15 L-31.35 16.4 -30.45 16.05 Z" fill="none" stroke="#000000" stroke-linecap="round" stroke-linejoin="round" stroke-width="3.5"/>
  </g>
</svg>
