<?xml version="1.0" encoding="UTF-8" standalone="no"?>
<svg xmlns:ffdec="https://www.free-decompiler.com/flash" xmlns:xlink="http://www.w3.org/1999/xlink" ffdec:objectType="shape" height="17.15px" width="30.5px" xmlns="http://www.w3.org/2000/svg">
  <g transform="matrix(1.0, 0.0, 0.0, 1.0, 35.8, -9.7)">
    <path d="M-11.5 12.4 Q-9.3 12.75 -8.05 14.85 -6.75 16.9 -7.15 19.55 -7.55 22.2 -9.4 23.8 -11.25 25.4 -13.45 25.05 -15.65 24.7 -16.95 22.6 -18.2 20.55 -17.8 17.9 -17.6 16.45 -16.9 15.3 -16.4 14.35 -15.55 13.65 -14.95 13.1 -14.25 12.8 -12.95 12.15 -11.5 12.4 M-32.0 12.6 Q-31.45 12.1 -30.85 11.85 -29.7 11.3 -28.45 11.5 -26.55 11.8 -25.5 13.6 -24.35 15.4 -24.7 17.7 -25.05 20.0 -26.7 21.35 -28.25 22.75 -30.15 22.5 -32.05 22.15 -33.2 20.35 -34.3 18.55 -33.95 16.3 -33.75 15.0 -33.15 14.0 L-32.0 12.6 Z" fill="none" stroke="#000000" stroke-linecap="round" stroke-linejoin="round" stroke-width="3.5"/>
  </g>
</svg>
