<?xml version="1.0" encoding="UTF-8" standalone="no"?>
<svg xmlns:ffdec="https://www.free-decompiler.com/flash" xmlns:xlink="http://www.w3.org/1999/xlink" ffdec:objectType="shape" height="15.4px" width="27.0px" xmlns="http://www.w3.org/2000/svg">
  <g transform="matrix(1.0, 0.0, 0.0, 1.0, 34.1, -11.45)">
    <path d="M-9.8 19.0 L-10.5 18.0 Q-12.35 15.75 -14.85 14.3 L-15.05 14.25 -15.15 14.75 Q-17.5 16.95 -17.6 20.0 -17.6 22.0 -16.05 23.75 -14.85 25.15 -12.75 25.1 -11.25 25.0 -10.2 24.2 -8.45 22.75 -9.0 20.7 -9.25 19.8 -9.8 19.0 M-31.05 21.5 Q-29.65 23.1 -27.55 22.4 L-26.1 21.65 Q-24.9 20.8 -24.6 19.5 -24.0 17.1 -23.9 14.85 -23.85 14.2 -23.95 13.6 L-24.1 13.3 -24.55 13.2 -31.55 16.15 Q-32.65 17.1 -32.25 19.15 -32.05 20.55 -31.05 21.5 Z" fill="none" stroke="#000000" stroke-linecap="round" stroke-linejoin="round" stroke-width="3.5"/>
  </g>
</svg>
