<?xml version="1.0" encoding="UTF-8" standalone="no"?>
<svg xmlns:ffdec="https://www.free-decompiler.com/flash" xmlns:xlink="http://www.w3.org/1999/xlink" ffdec:objectType="shape" height="13.6px" width="27.75px" xmlns="http://www.w3.org/2000/svg">
  <g transform="matrix(1.0, 0.0, 0.0, 1.0, 34.15, -13.25)">
    <path d="M-18.7 19.95 L-17.55 19.6 -8.75 16.75 Q-7.95 18.3 -8.25 20.25 -8.6 22.55 -10.2 23.95 -11.8 25.3 -13.7 25.05 -15.6 24.7 -16.75 22.9 -17.65 21.4 -17.55 19.6 M-23.75 18.35 L-24.25 18.15 -24.3 18.55 Q-24.6 20.5 -26.05 21.7 -27.4 22.9 -29.05 22.7 -30.7 22.4 -31.7 20.85 -32.65 19.25 -32.3 17.3 -32.15 16.2 -31.65 15.35 L-31.45 15.0 -24.25 18.15" fill="none" stroke="#000000" stroke-linecap="round" stroke-linejoin="round" stroke-width="3.5"/>
  </g>
</svg>
