<?xml version="1.0" encoding="UTF-8" standalone="no"?>
<svg xmlns:ffdec="https://www.free-decompiler.com/flash" xmlns:xlink="http://www.w3.org/1999/xlink" ffdec:objectType="shape" height="14.0px" width="29.75px" xmlns="http://www.w3.org/2000/svg">
  <g transform="matrix(1.0, 0.0, 0.0, 1.0, 34.15, -10.8)">
    <path d="M-26.0 18.3 Q-25.85 16.75 -26.55 15.55 -26.95 14.9 -27.45 14.65 -28.55 14.95 -30.25 17.6 L-30.65 18.15 Q-30.7 19.3 -30.1 20.25 L-30.1 20.3 Q-29.6 21.1 -28.8 21.3 -28.05 21.35 -27.35 20.75 L-27.35 20.7 Q-26.3 19.75 -26.0 18.3 M-27.75 10.8 L-25.7 11.65 Q-24.55 12.5 -23.45 14.45 -22.25 16.35 -22.55 18.8 L-22.55 18.85 Q-23.0 21.25 -24.7 22.7 L-24.7 22.65 Q-26.75 24.5 -29.2 24.05 -31.8 23.7 -33.2 21.35 L-33.2 21.4 Q-34.3 19.75 -34.15 17.7 L-27.75 10.8 M-16.8 14.15 Q-16.1 13.55 -15.3 13.2 L-15.35 13.2 Q-14.15 12.4 -12.75 12.75 -11.35 13.1 -6.4 18.8 L-6.5 20.55 -6.6 21.45 Q-6.0 21.5 -4.4 23.05 L-5.8 23.1 -19.7 24.8 -19.85 24.55 Q-20.05 24.05 -19.8 23.65 -19.55 23.2 -18.95 23.1 L-18.55 23.0 Q-19.55 21.0 -19.2 18.55 -18.95 17.1 -18.3 16.0 L-18.3 15.95 Q-17.75 14.95 -16.85 14.2 L-16.8 14.15 M-13.05 15.65 L-13.45 15.65 -14.15 16.15 -14.25 16.2 -15.05 17.2 -15.1 17.25 -15.7 19.1 Q-16.0 20.7 -15.35 22.05 -12.4 21.1 -10.05 21.15 L-9.8 20.05 -9.6 19.65 -11.2 17.7 Q-12.7 15.6 -13.05 15.65" fill="#000000" fill-rule="evenodd" stroke="none"/>
  </g>
</svg>
