<?xml version="1.0" encoding="UTF-8" standalone="no"?>
<svg xmlns:ffdec="https://www.free-decompiler.com/flash" xmlns:xlink="http://www.w3.org/1999/xlink" ffdec:objectType="shape" height="14.85px" width="29.65px" xmlns="http://www.w3.org/2000/svg">
  <g transform="matrix(1.0, 0.0, 0.0, 1.0, 36.05, -11.95)">
    <path d="M-30.4 16.75 L-30.6 17.6 Q-30.85 19.05 -30.1 20.25 L-30.1 20.3 Q-29.6 21.1 -28.8 21.3 -28.05 21.35 -27.35 20.75 L-27.35 20.7 Q-26.5 19.95 -26.15 18.9 -28.25 17.8 -30.4 16.75 M-34.95 12.0 L-33.8 12.2 -31.35 13.5 Q-30.85 13.5 -30.4 13.8 L-29.85 14.3 -22.6 18.25 -22.55 18.75 -22.55 18.85 Q-23.0 21.25 -24.7 22.7 L-24.7 22.65 Q-26.75 24.5 -29.2 24.05 -31.8 23.7 -33.2 21.35 L-33.2 21.4 Q-34.45 19.45 -34.05 17.05 L-33.45 15.2 -36.0 13.5 -36.0 13.4 Q-36.2 12.9 -35.85 12.5 -35.55 12.1 -34.95 12.0" fill="#000000" fill-rule="evenodd" stroke="none"/>
    <path d="M-12.0 14.05 Q-10.1 14.35 -9.0 16.15 -7.9 17.95 -8.25 20.25 -8.6 22.5 -10.2 23.9 -11.8 25.3 -13.7 25.0 -15.6 24.7 -16.75 22.9 -17.85 21.1 -17.45 18.8 -17.3 17.55 -16.7 16.6 L-15.55 15.15 -14.4 14.4 Q-13.25 13.85 -12.0 14.05 Z" fill="none" stroke="#000000" stroke-linecap="round" stroke-linejoin="round" stroke-width="3.5"/>
  </g>
</svg>
