<?xml version="1.0" encoding="UTF-8" standalone="no"?>
<svg xmlns:ffdec="https://www.free-decompiler.com/flash" xmlns:xlink="http://www.w3.org/1999/xlink" ffdec:objectType="shape" height="43.25px" width="64.1px" xmlns="http://www.w3.org/2000/svg">
  <g transform="matrix(1.0, 0.0, 0.0, 1.0, 74.8, 17.25)">
    <path d="M-28.5 -14.05 Q-17.6 -14.05 -13.75 -6.5 -17.65 -0.75 -18.25 -0.75 L-23.45 -2.7 Q-29.05 -4.55 -34.75 -4.3 -37.75 -4.2 -38.05 -9.5 -38.05 -11.3 -36.3 -12.2 -34.75 -13.0 -30.0 -14.0 L-28.5 -14.05 M-36.7 -8.55 L-36.3 -6.8 Q-35.9 -4.85 -31.7 -4.9 L-27.05 -5.25 -18.6 -2.25 Q-17.45 -2.25 -15.0 -6.55 -15.0 -8.0 -18.4 -10.0 L-20.25 -10.95 -22.8 -11.85 Q-26.05 -12.75 -30.05 -12.75 -32.7 -12.75 -34.95 -11.2 L-36.65 -9.7 -36.8 -9.3 -36.75 -8.95 -36.7 -8.55" fill="#342112" fill-rule="evenodd" stroke="none"/>
    <path d="M-36.7 -8.55 L-36.75 -8.95 -36.7 -8.5 -36.7 -8.55" fill="#cccccc" fill-rule="evenodd" stroke="none"/>
    <path d="M-36.75 -8.95 L-36.8 -9.3 -36.65 -9.7 -34.95 -11.2 Q-32.7 -12.75 -30.05 -12.75 -26.05 -12.75 -22.8 -11.85 L-20.25 -10.95 -18.4 -10.0 Q-15.0 -8.0 -15.0 -6.55 -17.45 -2.25 -18.6 -2.25 L-27.05 -5.25 -31.7 -4.9 Q-35.9 -4.85 -36.3 -6.8 L-36.7 -8.55 -36.7 -8.5 -36.75 -8.95" fill="#977a3e" fill-rule="evenodd" stroke="none"/>
    <path d="M-37.55 -13.35 L-49.75 -12.9 -49.8 -12.9 Q-58.9 -11.65 -66.2 -5.8 -70.0 -2.6 -71.75 1.85 -74.55 9.75 -71.7 17.6 L-71.1 19.05 -71.0 19.3 Q-70.9 19.25 -70.95 19.35 -69.95 20.85 -68.6 21.9 L-71.45 21.9 Q-76.75 10.0 -73.65 1.15 -71.75 -3.9 -67.4 -7.35 -59.75 -13.5 -50.05 -15.05 L-50.0 -15.0 Q-41.1 -17.3 -32.35 -13.8 -22.25 -8.85 -16.3 -0.85 L-16.25 -0.8 -13.0 4.15 Q-11.35 7.8 -12.9 17.85 -13.55 14.75 -14.6 15.65 L-13.95 12.7 Q-14.15 5.8 -15.95 2.9 -16.8 1.4 -15.7 2.3 L-17.85 0.0 Q-23.25 -7.45 -32.4 -11.65 L-32.45 -11.7 -32.55 -11.7 -32.6 -11.75 Q-34.95 -12.75 -37.5 -13.35 L-37.55 -13.35 M-13.4 10.3 L-13.4 10.25 -13.4 10.1 -13.4 10.3" fill="#342112" fill-rule="evenodd" stroke="none"/>
    <path d="M-13.4 10.3 L-13.4 10.1 -13.4 10.25 -13.4 10.3 M-11.25 11.15 L-11.1 11.3 -11.2 11.25 -11.25 11.15" fill="#cccccc" fill-rule="evenodd" stroke="none"/>
    <path d="M-11.7 13.6 L-11.8 13.65 -11.9 13.65 -11.7 13.6 M-12.05 12.8 L-11.85 12.6 -12.0 12.8 -12.05 12.8 M-31.0 21.9 L-24.45 19.4 Q-20.05 17.65 -17.3 17.65 -20.2 19.4 -23.3 20.75 L-26.25 21.9 -31.0 21.9" fill="#333333" fill-rule="evenodd" stroke="none"/>
    <path d="M-71.7 17.6 Q-71.2 17.8 -70.7 18.15 L-71.1 19.05 -71.7 17.6" fill="#c3c3c3" fill-rule="evenodd" stroke="none"/>
    <path d="M-71.7 17.6 Q-74.55 9.75 -71.75 1.85 -70.0 -2.6 -66.2 -5.8 -58.9 -11.65 -49.8 -12.9 L-49.75 -12.9 -37.55 -13.35 -37.65 -12.95 -37.6 -12.6 Q-29.55 -7.8 -26.65 -3.6 -24.5 -0.65 -24.7 2.65 -24.8 8.55 -30.7 13.85 -38.75 20.8 -55.0 21.35 -64.45 21.35 -70.7 18.15 -71.2 17.8 -71.7 17.6" fill="#b89650" fill-rule="evenodd" stroke="none"/>
    <path d="M-70.7 18.15 Q-64.45 21.35 -55.0 21.35 -38.75 20.8 -30.7 13.85 -24.8 8.55 -24.7 2.65 -24.5 -0.65 -26.65 -3.6 -29.55 -7.8 -37.6 -12.6 L-37.65 -12.95 -37.55 -13.35 -37.5 -13.35 Q-34.95 -12.75 -32.6 -11.75 L-32.55 -11.7 -32.45 -11.7 -32.4 -11.65 Q-23.25 -7.45 -17.85 0.0 L-15.7 2.3 Q-16.8 1.4 -15.95 2.9 -14.15 5.8 -13.95 12.7 L-14.6 15.65 -15.15 17.9 -17.3 17.65 Q-20.05 17.65 -24.45 19.4 L-31.0 21.9 -68.6 21.9 Q-69.95 20.85 -70.95 19.35 -70.9 19.25 -71.0 19.3 L-71.1 19.05 -70.7 18.15" fill="#977a3e" fill-rule="evenodd" stroke="none"/>
    <path d="M-17.1 14.95 Q-23.5 13.1 -30.1 12.6 L-30.15 12.6 -37.55 12.2 -37.6 12.2 -49.7 12.85 -60.0 14.1 -65.75 15.1 -65.7 15.1 -69.85 16.2 Q-71.3 16.55 -72.5 17.35 L-71.75 18.95 -71.4 19.85 -71.55 19.9 -71.15 19.8 -63.85 18.55 -58.15 17.55 -58.1 17.5 -49.0 16.4 -48.95 16.4 -40.1 16.15 -32.85 16.35 -23.85 17.25 -23.8 17.25 -14.15 18.75 -13.95 18.65 -13.2 18.55 -12.8 17.0 Q-13.55 16.05 -14.8 15.6 L-17.1 14.95 -17.0 14.95 -17.1 14.95 M-14.15 13.7 Q-11.9 14.5 -10.85 16.4 -10.65 16.75 -10.75 17.15 L-11.5 20.05 -11.8 20.5 -12.25 20.75 -12.4 20.75 Q-13.0 22.7 -14.95 23.45 -19.5 25.15 -24.2 25.5 L-33.85 25.95 -42.85 26.0 -51.0 25.9 -56.35 25.8 -66.3 25.1 -66.35 25.1 -69.85 24.4 -71.3 23.75 -71.95 23.15 -72.2 22.7 -72.2 22.25 Q-73.1 21.2 -73.8 17.7 L-73.9 17.7 -74.3 17.3 -74.45 16.55 -74.05 15.95 Q-72.35 14.8 -70.4 14.25 L-66.2 13.15 -66.1 13.15 -60.35 12.15 -49.85 10.85 -37.6 10.2 -29.9 10.6 Q-23.1 11.1 -16.45 13.05 L-16.4 13.05 -14.25 13.7 -14.15 13.7 M-66.05 23.1 L-56.3 23.8 -50.95 23.9 -42.85 24.0 -33.85 23.95 -24.35 23.5 Q-19.9 23.15 -15.65 21.6 L-14.55 20.7 -24.05 19.25 -33.0 18.35 -40.05 18.15 -40.1 18.15 -48.75 18.4 -57.85 19.5 -63.5 20.5 -63.55 20.5 -70.05 21.6 -70.15 22.1 -69.4 22.45 -66.05 23.15 -66.0 23.15 -66.05 23.1 M-57.85 19.5 L-57.8 19.5 -57.85 19.5" fill="#342112" fill-rule="evenodd" stroke="none"/>
    <path d="M-17.1 14.95 L-14.8 15.6 Q-13.55 16.05 -12.8 17.0 L-13.2 18.55 -13.95 18.65 -14.15 18.75 -23.8 17.25 -23.85 17.25 -32.85 16.35 -40.1 16.15 -48.95 16.4 -49.0 16.4 -58.1 17.5 -58.15 17.55 -63.85 18.55 -71.15 19.8 -71.55 19.9 -71.4 19.85 -71.75 18.95 -72.5 17.35 Q-71.3 16.55 -69.85 16.2 L-65.7 15.1 -65.75 15.1 -60.0 14.1 -49.7 12.85 -37.6 12.2 -37.55 12.2 -30.15 12.6 -30.1 12.6 Q-23.5 13.1 -17.1 14.95" fill="#5a4230" fill-rule="evenodd" stroke="none"/>
    <path d="M-57.85 19.5 L-48.75 18.4 -40.1 18.15 -40.05 18.15 -33.0 18.35 -24.05 19.25 -14.55 20.7 -15.65 21.6 Q-19.9 23.15 -24.35 23.5 L-33.85 23.95 -42.85 24.0 -50.95 23.9 -56.3 23.8 -66.05 23.1 -66.05 23.15 -69.4 22.45 -70.15 22.1 -70.05 21.6 -63.55 20.5 -63.5 20.5 -57.85 19.5" fill="#483526" fill-rule="evenodd" stroke="none"/>
    <path d="M-39.25 -13.75 L-39.3 -13.75 -39.25 -13.65 -38.05 -12.9 -38.0 -12.9 Q-37.4 -12.9 -34.7 -11.35 -31.7 -9.65 -30.8 -8.4 L-30.8 -8.25 -27.9 -6.4 Q-27.05 -6.4 -27.05 -7.3 -27.05 -8.8 -31.45 -11.25 -36.0 -13.8 -39.25 -13.75 M-31.3 -7.9 L-38.4 -12.05 -38.4 -12.25 -42.25 -13.65 Q-40.8 -14.65 -39.0 -14.65 -34.35 -14.65 -29.95 -11.3 -26.3 -8.55 -26.3 -7.25 -26.3 -5.55 -27.25 -5.55 -29.25 -5.55 -31.85 -8.5 L-31.3 -7.9" fill="#342112" fill-rule="evenodd" stroke="none"/>
    <path d="M-39.25 -13.65 L-39.25 -13.75 Q-36.0 -13.8 -31.45 -11.25 -27.05 -8.8 -27.05 -7.3 -27.05 -6.4 -27.9 -6.4 L-30.8 -8.25 -30.8 -8.4 Q-31.7 -9.65 -34.7 -11.35 -37.4 -12.9 -38.0 -12.9 L-38.05 -12.9 -39.25 -13.65" fill="#5a4230" fill-rule="evenodd" stroke="none"/>
    <path d="M-43.75 -15.85 L-45.2 -15.4 Q-44.25 -17.25 -39.85 -17.25 -36.8 -17.25 -33.3 -15.55 -30.7 -14.3 -30.05 -13.55 -28.45 -11.7 -25.35 -11.15 L-21.75 -10.65 Q-13.85 -7.4 -13.85 -2.75 -13.85 -1.8 -14.65 -0.55 -15.7 1.0 -17.25 1.0 L-20.65 0.0 Q-20.75 -0.45 -20.75 0.2 L-20.05 3.9 Q-19.35 6.85 -19.35 10.05 -18.9 16.0 -20.9 17.85 L-21.6 18.3 -23.25 18.65 -23.9 18.5 -23.9 16.1 Q-22.9 10.95 -22.9 7.2 -22.9 1.9 -25.25 -2.25 L-27.35 -5.85 -27.25 -6.75 Q-27.25 -9.1 -30.4 -11.75 L-30.95 -12.15 -31.5 -12.6 Q-33.2 -13.85 -35.0 -14.6 -33.15 -14.3 -31.9 -13.5 L-30.0 -11.9 -29.9 -12.15 Q-29.9 -13.45 -33.15 -14.95 -36.9 -16.7 -41.5 -16.55 -42.95 -16.3 -43.75 -15.85 M-23.35 -5.95 Q-22.1 -4.4 -19.15 -3.5 L-18.95 -3.35 Q-18.75 -3.25 -18.75 -3.65 -18.75 -4.85 -21.5 -6.95 -24.1 -8.9 -25.75 -9.2 L-23.35 -5.95 M-23.1 -3.65 Q-19.35 0.0 -18.0 0.0 -15.0 0.0 -14.75 -2.75 -14.75 -5.4 -17.4 -7.6 -21.2 -10.7 -29.45 -11.25 -25.1 -10.65 -21.35 -8.0 -17.85 -5.5 -17.85 -3.6 -17.85 -2.5 -18.75 -2.5 -21.6 -2.5 -24.4 -5.55 L-27.8 -9.4 Q-26.75 -7.2 -23.1 -3.65 M-22.0 7.25 Q-22.0 11.4 -23.0 16.4 L-23.0 17.65 Q-19.35 16.8 -20.15 10.1 -20.15 7.35 -21.5 2.75 -23.15 -2.7 -25.15 -4.0 -23.85 -2.45 -22.9 1.35 -22.0 4.8 -22.0 7.25" fill="#342112" fill-rule="evenodd" stroke="none"/>
    <path d="M-35.0 -14.6 Q-38.2 -16.0 -41.75 -16.0 L-43.75 -15.85 Q-42.95 -16.3 -41.5 -16.55 -36.9 -16.7 -33.15 -14.95 -29.9 -13.45 -29.9 -12.15 L-30.0 -11.9 -31.9 -13.5 Q-33.15 -14.3 -35.0 -14.6 M-22.0 7.25 Q-22.0 4.8 -22.9 1.35 -23.85 -2.45 -25.15 -4.0 -23.15 -2.7 -21.5 2.75 -20.15 7.35 -20.15 10.1 -19.35 16.8 -23.0 17.65 L-23.0 16.4 Q-22.0 11.4 -22.0 7.25 M-23.1 -3.65 Q-26.75 -7.2 -27.8 -9.4 L-24.4 -5.55 Q-21.6 -2.5 -18.75 -2.5 -17.85 -2.5 -17.85 -3.6 -17.85 -5.5 -21.35 -8.0 -25.1 -10.65 -29.45 -11.25 -21.2 -10.7 -17.4 -7.6 -14.75 -5.4 -14.75 -2.75 -15.0 0.0 -18.0 0.0 -19.35 0.0 -23.1 -3.65" fill="#5a4230" fill-rule="evenodd" stroke="none"/>
  </g>
</svg>
