<?xml version="1.0" encoding="UTF-8" standalone="no"?>
<svg xmlns:ffdec="https://www.free-decompiler.com/flash" xmlns:xlink="http://www.w3.org/1999/xlink" ffdec:objectType="shape" height="44.15px" width="68.05px" xmlns="http://www.w3.org/2000/svg">
  <g transform="matrix(1.0, 0.0, 0.0, 1.0, 74.8, 18.65)">
    <path d="M-31.9 -15.1 Q-34.55 -15.75 -36.75 -16.75 -36.15 -17.5 -35.35 -17.5 -30.3 -17.5 -26.9 -14.75 -24.25 -12.6 -24.25 -10.85 L-24.25 -10.5 -24.25 -10.55 -24.05 -10.55 Q-16.65 -10.5 -12.25 -6.5 -9.1 -3.6 -9.1 -1.4 -9.1 1.4 -11.65 1.4 L-12.1 1.4 -6.75 9.05 Q-6.75 9.4 -7.45 10.35 L-8.5 11.5 Q-13.75 5.65 -15.4 3.45 -17.1 1.2 -17.7 -1.3 L-17.15 -0.95 -20.05 -3.3 Q-22.15 -4.1 -24.0 -5.6 -25.9 -7.15 -25.9 -8.2 -25.9 -8.85 -24.8 -10.0 -25.85 -10.1 -28.4 -13.75 -29.8 -14.6 -31.9 -15.1 M-25.0 -8.05 Q-24.3 -7.15 -19.2 -3.85 L-19.5 -5.5 -19.0 -5.65 Q-16.9 -5.65 -13.4 -0.25 L-12.15 0.5 Q-9.95 0.5 -10.0 -1.4 -10.0 -3.35 -13.25 -6.05 -17.05 -9.25 -21.5 -9.25 -23.9 -9.25 -25.0 -8.05 M-16.55 -2.2 L-18.4 -4.55 -18.0 -3.1 -16.55 -2.2 M-8.0 9.15 L-10.55 6.2 Q-12.65 3.65 -13.55 1.05 L-15.7 0.0 Q-15.05 1.95 -14.35 2.75 -12.55 4.8 -8.5 10.0 L-8.0 9.15" fill="#342112" fill-rule="evenodd" stroke="none"/>
    <path d="M-25.0 -8.05 Q-23.9 -9.25 -21.5 -9.25 -17.05 -9.25 -13.25 -6.05 -10.0 -3.35 -10.0 -1.4 -9.95 0.5 -12.15 0.5 L-13.4 -0.25 Q-16.9 -5.65 -19.0 -5.65 L-19.5 -5.5 -19.2 -3.85 Q-24.3 -7.15 -25.0 -8.05 M-8.0 9.15 L-8.5 10.0 Q-12.55 4.8 -14.35 2.75 -15.05 1.95 -15.7 0.0 L-13.55 1.05 Q-12.65 3.65 -10.55 6.2 L-8.0 9.15" fill="#5a4230" fill-rule="evenodd" stroke="none"/>
    <path d="M-17.3 14.9 Q-20.2 16.65 -23.3 18.0 L-26.25 19.15 -31.0 19.15 -24.45 16.65 Q-20.05 14.9 -17.3 14.9 M-11.7 10.85 L-11.8 10.9 -11.9 10.9 -11.7 10.85 M-12.0 10.05 L-12.05 10.05 -11.85 9.85 -12.0 10.05" fill="#333333" fill-rule="evenodd" stroke="none"/>
    <path d="M-11.2 8.5 L-11.25 8.4 -11.1 8.55 -11.2 8.5 M-13.4 7.55 L-13.4 7.35 -13.4 7.5 -13.4 7.55" fill="#cccccc" fill-rule="evenodd" stroke="none"/>
    <path d="M-71.1 16.3 L-71.7 14.85 Q-71.2 15.05 -70.7 15.4 L-71.1 16.3" fill="#c3c3c3" fill-rule="evenodd" stroke="none"/>
    <path d="M-68.6 19.15 L-71.45 19.15 Q-76.75 7.25 -73.65 -1.6 -71.75 -6.65 -67.4 -10.1 -59.75 -16.25 -50.05 -17.8 L-50.0 -17.75 Q-41.1 -20.05 -32.35 -16.55 -22.25 -11.6 -16.3 -3.6 L-16.25 -3.55 -13.0 1.4 Q-11.35 5.05 -12.9 15.1 -13.55 12.0 -14.6 12.9 L-13.95 9.95 Q-14.15 3.05 -15.95 0.15 -16.8 -1.35 -15.7 -0.45 L-17.85 -2.75 Q-23.25 -10.2 -32.4 -14.4 L-32.45 -14.45 -32.55 -14.45 -32.6 -14.5 Q-34.95 -15.5 -37.5 -16.1 L-37.55 -16.1 -49.75 -15.65 -49.8 -15.65 Q-58.9 -14.4 -66.2 -8.55 -70.0 -5.35 -71.75 -0.9 -74.55 7.0 -71.7 14.85 L-71.1 16.3 -71.0 16.55 Q-70.9 16.5 -70.95 16.6 -69.95 18.1 -68.6 19.15 M-13.4 7.55 L-13.4 7.5 -13.4 7.35 -13.4 7.55" fill="#342112" fill-rule="evenodd" stroke="none"/>
    <path d="M-71.7 14.85 Q-74.55 7.0 -71.75 -0.9 -70.0 -5.35 -66.2 -8.55 -58.9 -14.4 -49.8 -15.65 L-49.75 -15.65 -37.55 -16.1 -37.65 -15.7 -37.6 -15.35 Q-29.55 -10.55 -26.65 -6.35 -24.5 -3.4 -24.7 -0.1 -24.8 5.8 -30.7 11.1 -38.75 18.05 -55.0 18.6 -64.45 18.6 -70.7 15.4 -71.2 15.05 -71.7 14.85" fill="#b89650" fill-rule="evenodd" stroke="none"/>
    <path d="M-68.6 19.15 Q-69.95 18.1 -70.95 16.6 -70.9 16.5 -71.0 16.55 L-71.1 16.3 -70.7 15.4 Q-64.45 18.6 -55.0 18.6 -38.75 18.05 -30.7 11.1 -24.8 5.8 -24.7 -0.1 -24.5 -3.4 -26.65 -6.35 -29.55 -10.55 -37.6 -15.35 L-37.65 -15.7 -37.55 -16.1 -37.5 -16.1 Q-34.95 -15.5 -32.6 -14.5 L-32.55 -14.45 -32.45 -14.45 -32.4 -14.4 Q-23.25 -10.2 -17.85 -2.75 L-15.7 -0.45 Q-16.8 -1.35 -15.95 0.15 -14.15 3.05 -13.95 9.95 L-14.6 12.9 -15.15 15.15 -17.3 14.9 Q-20.05 14.9 -24.45 16.65 L-31.0 19.15 -68.6 19.15" fill="#977a3e" fill-rule="evenodd" stroke="none"/>
    <path d="M-41.0 -2.8 Q-34.1 -2.5 -27.5 -0.65 -22.9 0.55 -18.85 2.8 L-14.6 5.2 Q-12.95 6.3 -11.8 7.95 L-11.1 8.75 -13.2 18.7 -14.8 19.85 -16.3 20.95 Q-20.5 22.7 -24.85 23.85 L-31.65 24.95 Q-43.15 25.95 -54.6 25.05 L-63.15 23.6 -67.55 22.45 Q-69.7 21.65 -71.6 20.5 -72.5 19.95 -73.0 19.0 L-73.45 18.0 -73.05 19.6 Q-74.7 15.35 -74.55 12.8 L-74.4 8.65 Q-74.35 8.1 -72.15 5.25 -70.0 2.35 -64.35 0.45 L-55.2 -2.25 Q-48.1 -3.95 -41.0 -2.8 M-19.7 4.45 Q-21.8 3.5 -23.95 2.7 -28.0 1.25 -32.35 0.25 L-43.2 -1.3 Q-49.85 -2.05 -59.9 0.6 -54.9 -0.5 -59.75 0.65 -64.6 1.8 -68.4 3.95 -72.2 6.05 -72.35 9.05 L-72.65 13.9 Q-69.9 9.4 -65.15 7.25 L-62.8 6.35 Q-59.75 5.1 -56.65 4.4 L-48.5 3.05 Q-42.9 2.8 -37.25 3.15 L-32.45 3.95 Q-27.0 5.15 -21.95 7.85 L-18.7 10.0 Q-15.85 12.25 -14.0 15.0 L-13.5 8.9 Q-15.1 6.4 -19.7 4.45 M-70.55 14.55 L-70.9 15.3 -70.95 15.5 -71.3 17.25 Q-71.3 17.95 -70.9 18.55 -70.55 19.1 -69.9 19.45 L-64.85 21.4 -58.45 22.55 -50.4 23.3 -40.85 23.5 -31.8 22.95 -25.35 21.9 Q-20.75 20.9 -16.65 18.7 L-15.45 17.95 -15.25 17.55 Q-15.45 16.0 -16.5 14.95 L-17.4 14.0 -18.75 12.65 -19.8 11.75 -21.25 10.6 -21.3 10.6 Q-23.8 8.95 -26.6 7.8 L-28.35 7.15 -28.45 7.1 Q-32.9 5.65 -37.4 5.15 -40.85 5.05 -44.25 5.1 L-52.5 5.75 -59.85 7.25 Q-64.15 8.55 -67.6 11.05 -69.55 12.4 -70.55 14.55" fill="#342112" fill-rule="evenodd" stroke="none"/>
    <path d="M-28.35 7.15 L-28.4 7.15 -28.45 7.1 -28.35 7.15" fill="#934900" fill-rule="evenodd" stroke="none"/>
    <path d="M-19.7 4.45 Q-15.1 6.4 -13.5 8.9 L-14.0 15.0 Q-15.85 12.25 -18.7 10.0 L-21.95 7.85 Q-27.0 5.15 -32.45 3.95 L-37.25 3.15 Q-42.9 2.8 -48.5 3.05 L-56.65 4.4 Q-59.75 5.1 -62.8 6.35 L-65.15 7.25 Q-69.9 9.4 -72.65 13.9 L-72.35 9.05 Q-72.2 6.05 -68.4 3.95 -64.6 1.8 -59.75 0.65 -54.9 -0.5 -59.9 0.6 -49.85 -2.05 -43.2 -1.3 L-32.35 0.25 Q-28.0 1.25 -23.95 2.7 -21.8 3.5 -19.7 4.45 M-28.4 7.15 L-45.9 9.05 Q-59.8 10.6 -61.4 12.35 -61.0 12.75 -60.6 12.75 -62.4 11.75 -38.25 11.75 -22.5 11.75 -18.25 13.15 L-41.95 14.85 Q-53.25 15.5 -53.25 16.7 L-53.0 17.25 -45.35 17.5 -27.05 16.5 -22.0 16.6 Q-26.0 19.65 -37.15 19.65 -48.1 19.65 -70.55 14.55 -69.55 12.4 -67.6 11.05 -64.15 8.55 -59.85 7.25 L-52.5 5.75 -44.25 5.1 Q-40.85 5.05 -37.4 5.15 -32.9 5.65 -28.45 7.1 L-28.4 7.15" fill="#5a4230" fill-rule="evenodd" stroke="none"/>
    <path d="M-28.35 7.15 L-26.6 7.8 Q-23.8 8.95 -21.3 10.6 L-21.25 10.6 -19.8 11.75 -18.75 12.65 -17.4 14.0 -16.5 14.95 Q-15.45 16.0 -15.25 17.55 L-15.45 17.95 -16.65 18.7 Q-20.75 20.9 -25.35 21.9 L-31.8 22.95 -40.85 23.5 -50.4 23.3 -58.45 22.55 -64.85 21.4 -69.9 19.45 Q-70.55 19.1 -70.9 18.55 -71.3 17.95 -71.3 17.25 L-70.95 15.5 -70.9 15.3 -70.55 14.55 Q-48.1 19.65 -37.15 19.65 -26.0 19.65 -22.0 16.6 L-27.05 16.5 -45.35 17.5 -53.0 17.25 -53.25 16.7 Q-53.25 15.5 -41.95 14.85 L-18.25 13.15 Q-22.5 11.75 -38.25 11.75 -62.4 11.75 -60.6 12.75 -61.0 12.75 -61.4 12.35 -59.8 10.6 -45.9 9.05 L-28.4 7.15 -28.35 7.15" fill="#483526" fill-rule="evenodd" stroke="none"/>
  </g>
</svg>
