<?xml version="1.0" encoding="UTF-8" standalone="no"?>
<svg xmlns:ffdec="https://www.free-decompiler.com/flash" xmlns:xlink="http://www.w3.org/1999/xlink" ffdec:objectType="shape" height="63.1px" width="24.35px" xmlns="http://www.w3.org/2000/svg">
  <g transform="matrix(1.0, 0.0, 0.0, 1.0, 7.9, 1.55)">
    <path d="M-4.55 8.25 L-4.6 8.25 -4.55 8.25 M6.75 10.6 L6.8 10.7 6.65 10.65 6.75 10.6" fill="#8bbfde" fill-rule="evenodd" stroke="none"/>
    <path d="M11.5 48.2 L11.95 56.0 11.95 56.1 11.95 56.4 11.65 57.1 11.2 57.4 11.65 57.15 Q10.2 60.6 7.75 61.3 5.15 62.25 1.4 59.85 L1.35 59.85 -0.2 58.2 -0.5 58.0 -0.85 57.55 -0.9 57.4 -0.9 57.35 -1.6 47.85 0.35 48.75 0.8 54.65 1.15 55.3 1.25 56.3 1.25 56.4 Q1.5 57.55 2.45 58.2 L2.45 58.15 Q5.2 59.9 7.15 59.4 L8.5 58.5 9.65 56.65 9.95 56.0 9.25 49.2 11.5 48.2" fill="#5c4730" fill-rule="evenodd" stroke="none"/>
    <path d="M9.25 49.2 L9.95 56.0 9.65 56.65 8.5 58.5 7.15 59.4 Q5.2 59.9 2.45 58.15 L2.45 58.2 Q1.5 57.55 1.25 56.4 L1.25 56.3 1.15 55.3 0.8 54.65 0.35 48.75 Q3.0 49.8 5.55 49.8 L9.25 49.2" fill="#ffcc99" fill-rule="evenodd" stroke="none"/>
    <path d="M4.4 -0.7 L4.65 -1.15 Q4.9 -1.5 5.3 -1.55 L6.05 -1.3 Q6.35 -1.05 7.25 4.65 7.85 8.7 9.2 14.7 L16.4 43.35 16.45 43.85 16.2 44.35 Q13.95 46.85 11.5 48.2 L9.25 49.2 5.55 49.8 Q3.0 49.8 0.35 48.75 L-1.6 47.85 Q-4.05 46.6 -6.6 44.5 L-6.85 44.15 -6.95 43.7 -6.15 14.7 Q-6.8 7.7 -7.9 0.4 L-7.45 0.2 Q-7.05 0.15 -6.75 0.4 -6.4 0.65 -6.1 -0.4 L-5.95 0.15 -5.75 0.95 -5.65 1.5 -4.8 6.45 -4.6 8.25 -4.45 9.45 -4.3 11.2 -4.15 14.7 -4.85 40.35 -4.95 43.2 -1.85 45.4 Q-0.85 46.0 0.15 46.45 2.95 47.75 5.55 47.8 7.35 47.75 9.05 47.1 L11.35 45.95 14.3 43.4 7.55 14.7 7.25 13.15 6.8 10.7 6.75 10.6 4.4 -0.45 4.4 -0.7" fill="#000000" fill-rule="evenodd" stroke="none"/>
    <path d="M-5.95 0.15 Q-4.5 -1.55 -2.35 -1.55 L0.7 -1.5 1.0 -1.5 1.15 -1.5 1.0 -1.45 Q6.95 23.8 8.65 42.95 1.05 46.7 -4.85 40.35 L-4.15 14.7 -4.3 11.2 -4.45 9.45 -4.6 8.25 -4.55 8.25 -4.8 6.45 -5.65 1.5 -5.75 0.95 -5.95 0.15" fill="#4e4040" fill-rule="evenodd" stroke="none"/>
    <path d="M1.15 -1.5 L1.5 -1.45 1.85 -1.45 3.65 -1.25 4.4 -0.7 4.4 -0.45 6.75 10.6 6.65 10.65 6.8 10.7 7.25 13.15 7.55 14.7 14.3 43.4 11.35 45.95 9.05 47.1 Q7.35 47.75 5.55 47.8 2.95 47.75 0.15 46.45 -0.85 46.0 -1.85 45.4 L-4.95 43.2 -4.85 40.35 Q1.05 46.7 8.65 42.95 6.95 23.8 1.0 -1.45 L1.15 -1.5" fill="#453838" fill-rule="evenodd" stroke="none"/>
  </g>
</svg>
