<?xml version="1.0" encoding="UTF-8" standalone="no"?>
<svg xmlns:ffdec="https://www.free-decompiler.com/flash" xmlns:xlink="http://www.w3.org/1999/xlink" ffdec:objectType="shape" height="68.8px" width="86.5px" xmlns="http://www.w3.org/2000/svg">
  <g transform="matrix(1.0, 0.0, 0.0, 1.0, 42.2, 5.8)">
    <path d="M36.45 59.8 L38.15 60.05 38.2 60.05 38.1 60.15 30.3 60.35 28.4 60.1 Q20.0 58.9 16.45 50.1 L11.75 38.5 Q10.55 35.7 7.1 33.9 2.5 32.35 -5.3 34.4 -19.55 38.05 -35.2 31.5 L-37.2 30.5 Q-36.55 28.7 -35.9 29.0 L-30.75 31.2 Q-31.9 28.9 -31.05 26.15 -30.25 23.45 -27.25 20.3 L-25.1 18.2 -23.45 19.2 -25.95 20.8 Q-29.65 23.45 -30.05 26.05 -30.6 29.6 -27.4 32.2 L-26.7 32.9 -26.75 32.9 Q-19.5 35.65 -9.35 33.3 -10.9 29.45 -10.25 25.65 L-9.4 22.55 -7.65 22.8 Q-8.95 24.25 -9.4 25.85 -10.4 29.15 -7.6 32.9 2.5 30.4 7.85 33.05 10.25 30.15 9.6 27.8 L9.55 27.7 Q8.75 25.05 5.2 23.5 L5.6 23.5 8.25 23.5 Q9.8 25.2 10.1 27.7 L10.15 27.8 Q10.45 30.4 9.2 33.85 11.75 35.55 13.55 38.5 L14.4 40.05 15.55 42.8 Q18.05 49.9 23.05 54.15 L25.65 51.7 Q37.3 39.3 27.05 26.3 25.35 24.2 23.1 22.05 L23.4 21.95 23.45 21.95 23.65 21.95 23.7 21.9 23.75 21.9 25.3 21.5 Q28.4 24.9 30.2 28.4 36.3 40.1 27.2 52.15 L24.55 55.3 Q29.45 58.75 36.45 59.8" fill="#d3c5af" fill-rule="evenodd" stroke="none"/>
    <path d="M30.3 60.35 Q26.55 62.5 21.0 63.0 17.3 63.35 12.4 54.5 8.25 46.95 7.0 41.0 6.2 37.25 -4.75 37.3 L-23.0 38.0 Q-38.35 37.75 -37.2 30.5 L-35.2 31.5 Q-19.55 38.05 -5.3 34.4 2.5 32.35 7.1 33.9 10.55 35.7 11.75 38.5 L16.45 50.1 Q20.0 58.9 28.4 60.1 L30.3 60.35" fill="#f1ba87" fill-rule="evenodd" stroke="none"/>
    <path d="M29.85 18.7 L35.45 23.3 Q39.3 26.4 43.45 35.05 46.6 48.85 38.2 60.05 L38.15 60.05 36.45 59.8 Q46.1 47.15 41.3 34.8 38.1 27.3 34.15 24.45 L28.5 20.15 29.85 18.7 M-37.2 30.5 L-37.45 30.5 Q-44.15 24.8 -41.35 20.55 -38.9 16.4 -28.55 12.85 L-25.75 11.95 -25.95 14.1 -27.9 14.75 Q-37.35 17.95 -39.65 21.55 -41.45 24.75 -37.2 30.5" fill="#a49c8e" fill-rule="evenodd" stroke="none"/>
    <path d="M28.5 20.15 L34.15 24.45 Q38.1 27.3 41.3 34.8 46.1 47.15 36.45 59.8 29.45 58.75 24.55 55.3 L27.2 52.15 32.25 51.9 Q40.2 41.25 31.6 29.95 L30.2 28.4 Q28.4 24.9 25.3 21.5 27.35 20.85 28.5 20.15 M8.25 23.5 L17.45 22.95 17.5 22.95 22.95 22.1 23.05 22.05 23.1 22.05 Q25.35 24.2 27.05 26.3 23.25 24.8 18.25 26.75 16.2 27.55 13.9 27.75 L10.15 27.8 10.1 27.7 Q9.8 25.2 8.25 23.5 M5.2 23.5 Q8.75 25.05 9.55 27.7 L9.6 27.8 9.1 27.8 Q1.35 27.65 -6.3 26.35 L-9.4 25.85 Q-8.95 24.25 -7.65 22.8 L5.2 23.5 M-9.4 22.55 L-10.25 25.65 Q-17.65 24.15 -24.6 21.35 L-25.95 20.8 -23.45 19.2 Q-20.75 20.5 -15.55 21.6 L-9.4 22.55 M-25.1 18.2 L-27.25 20.3 Q-28.7 19.75 -30.1 19.35 -33.15 18.55 -35.3 21.05 -38.5 24.6 -35.9 29.0 -36.55 28.7 -37.2 30.5 -41.45 24.75 -39.65 21.55 -37.35 17.95 -27.9 14.75 L-25.95 14.1 -25.95 14.45 Q-26.45 15.1 -26.45 15.85 -26.55 17.1 -25.1 18.2 M25.65 51.7 L23.05 54.15 Q18.05 49.9 15.55 42.8 L14.4 40.05 Q18.25 42.6 20.4 46.95 22.6 50.45 25.65 51.7" fill="#e3d5c4" fill-rule="evenodd" stroke="none"/>
    <path d="M10.15 27.8 L13.9 27.75 Q16.2 27.55 18.25 26.75 23.25 24.8 27.05 26.3 37.3 39.3 25.65 51.7 22.6 50.45 20.4 46.95 18.25 42.6 14.4 40.05 L13.55 38.5 Q11.75 35.55 9.2 33.85 10.45 30.4 10.15 27.8 M9.6 27.8 Q10.25 30.15 7.85 33.05 2.5 30.4 -7.6 32.9 -10.4 29.15 -9.4 25.85 L-6.3 26.35 Q1.35 27.65 9.1 27.8 L9.6 27.8 M-10.25 25.65 Q-10.9 29.45 -9.35 33.3 -19.5 35.65 -26.75 32.9 L-26.7 32.9 -27.4 32.2 Q-30.6 29.6 -30.05 26.05 -29.65 23.45 -25.95 20.8 L-24.6 21.35 Q-17.65 24.15 -10.25 25.65 M-27.25 20.3 Q-30.25 23.45 -31.05 26.15 -31.9 28.9 -30.75 31.2 L-35.9 29.0 Q-38.5 24.6 -35.3 21.05 -33.15 18.55 -30.1 19.35 -28.7 19.75 -27.25 20.3 M30.2 28.4 L31.6 29.95 Q40.2 41.25 32.25 51.9 L27.2 52.15 Q36.3 40.1 30.2 28.4" fill="#f8f4e9" fill-rule="evenodd" stroke="none"/>
    <path d="M29.85 18.7 L28.5 20.15 Q27.35 20.85 25.3 21.5 L23.75 21.9 23.7 21.9 23.65 21.95 23.45 21.95 23.4 21.95 23.1 22.05 23.05 22.05 22.95 22.1 17.5 22.95 17.45 22.95 8.25 23.5 5.6 23.5 5.2 23.5 -7.65 22.8 -9.4 22.55 -15.55 21.6 Q-20.75 20.5 -23.45 19.2 L-25.1 18.2 Q-26.55 17.1 -26.45 15.85 -26.45 15.1 -25.95 14.45 L-25.95 14.1 -25.75 11.95 Q-24.8 4.45 -20.45 -2.95 L-20.15 -3.8 Q-19.0 -5.95 -11.1 -5.8 -3.4 -5.75 6.3 -3.6 15.15 -1.75 20.8 0.8 26.75 3.35 26.55 5.65 L29.9 16.95 29.95 16.95 30.0 17.7 29.85 18.7 M24.55 5.65 Q13.8 -2.0 0.6 -3.0 L-16.0 -3.6 -18.4 -2.75 Q-9.75 4.9 3.0 6.25 15.75 7.6 23.65 6.4 L24.55 5.65 M22.65 15.55 Q22.25 13.85 21.1 12.5 18.95 10.05 14.2 8.65 L5.05 7.55 Q-4.8 5.9 -12.25 3.25 -17.6 1.2 -19.45 -0.6 -24.6 6.65 -24.35 10.9 L-24.3 11.5 -24.2 13.55 Q-24.15 15.25 -24.25 15.45 L-24.5 16.8 -24.1 17.35 -22.1 18.25 -16.1 19.85 -8.8 21.15 -6.7 21.35 2.25 21.65 4.75 21.6 5.8 21.6 17.25 20.95 22.4 20.15 Q23.15 17.6 22.65 15.55 M28.0 17.45 L28.0 17.5 24.35 7.95 Q23.45 8.5 19.9 8.7 L18.9 8.75 Q21.6 10.6 23.15 13.5 23.9 14.95 24.35 16.65 L24.9 19.45 26.9 18.8 Q27.9 18.3 28.0 17.7 L28.0 17.45" fill="#000000" fill-rule="evenodd" stroke="none"/>
    <path d="M24.55 5.65 L23.65 6.4 Q15.75 7.6 3.0 6.25 -9.75 4.9 -18.4 -2.75 L-16.0 -3.6 0.6 -3.0 Q13.8 -2.0 24.55 5.65" fill="#282626" fill-rule="evenodd" stroke="none"/>
    <path d="M3.6 10.4 Q8.2 14.65 6.2 18.9 -9.2 19.9 -21.45 14.65 L-21.6 12.8 -21.55 10.7 Q-21.25 6.85 -19.45 3.0 -14.35 6.25 -8.05 8.15 -4.5 9.2 -0.55 9.85 L3.6 10.4" fill="#3d3838" fill-rule="evenodd" stroke="none"/>
    <path d="M28.0 17.45 L28.0 17.7 Q27.9 18.3 26.9 18.8 L24.9 19.45 24.35 16.65 Q23.9 14.95 23.15 13.5 21.6 10.6 18.9 8.75 L19.9 8.7 Q23.45 8.5 24.35 7.95 L28.0 17.5 28.0 17.45 M22.65 15.55 Q23.15 17.6 22.4 20.15 L17.25 20.95 5.8 21.6 4.75 21.6 2.25 21.65 -6.7 21.35 -8.8 21.15 -16.1 19.85 -22.1 18.25 -24.1 17.35 -24.5 16.8 -24.25 15.45 Q-24.15 15.25 -24.2 13.55 L-24.3 11.5 -24.35 10.9 Q-24.6 6.65 -19.45 -0.6 -17.6 1.2 -12.25 3.25 -4.8 5.9 5.05 7.55 L14.2 8.65 Q18.95 10.05 21.1 12.5 22.25 13.85 22.65 15.55 M3.6 10.4 L-0.55 9.85 Q-4.5 9.2 -8.05 8.15 -14.35 6.25 -19.45 3.0 -21.25 6.85 -21.55 10.7 L-21.6 12.8 -21.45 14.65 Q-9.2 19.9 6.2 18.9 8.2 14.65 3.6 10.4" fill="#353131" fill-rule="evenodd" stroke="none"/>
  </g>
</svg>
