<?xml version="1.0" encoding="UTF-8" standalone="no"?>
<svg xmlns:ffdec="https://www.free-decompiler.com/flash" xmlns:xlink="http://www.w3.org/1999/xlink" ffdec:objectType="shape" height="83.05px" width="83.05px" xmlns="http://www.w3.org/2000/svg">
  <g transform="matrix(1.0, 0.0, 0.0, 1.0, 47.0, 42.25)">
    <path d="M-34.55 -29.0 L-34.15 -29.4 -34.05 -29.25 -34.55 -29.0" fill="#edcda3" fill-rule="evenodd" stroke="none"/>
    <path d="M-34.15 -29.4 L-32.6 -30.85 Q-21.2 -41.25 -5.45 -41.25 11.3 -41.25 23.15 -29.4 35.05 -17.5 35.05 -0.7 35.05 16.05 23.15 27.9 11.3 39.8 -5.45 39.8 L-10.2 39.55 Q-14.2 39.1 -17.9 37.95 L-10.1 38.7 Q5.65 38.7 16.75 27.55 27.9 16.45 27.9 0.75 27.9 -15.0 16.75 -26.15 5.65 -37.25 -10.1 -37.25 -22.55 -37.25 -32.1 -30.25 L-34.05 -29.25 -34.15 -29.4" fill="#db9c64" fill-rule="evenodd" stroke="none"/>
    <path d="M-24.05 35.4 Q-29.5 32.55 -34.15 27.9 -46.0 16.05 -46.0 -0.7 -46.0 -14.85 -37.6 -25.5 L-34.55 -29.0 -34.05 -29.25 -32.1 -30.25 Q-24.95 -33.8 -16.3 -33.8 -1.5 -33.8 8.95 -23.55 19.35 -13.3 19.4 1.2 19.35 15.7 8.95 25.9 -1.5 36.15 -16.3 36.15 L-24.05 35.4" fill="#ffcc99" fill-rule="evenodd" stroke="none"/>
    <path d="M-17.9 37.95 Q-21.1 36.95 -24.05 35.4 L-16.3 36.15 Q-1.5 36.15 8.95 25.9 19.35 15.7 19.4 1.2 19.35 -13.3 8.95 -23.55 -1.5 -33.8 -16.3 -33.8 -24.95 -33.8 -32.1 -30.25 -22.55 -37.25 -10.1 -37.25 5.65 -37.25 16.75 -26.15 27.9 -15.0 27.9 0.75 27.9 16.45 16.75 27.55 5.65 38.7 -10.1 38.7 L-17.9 37.95" fill="#f1ba87" fill-rule="evenodd" stroke="none"/>
    <path d="M-34.15 -29.4 L-32.6 -30.85 Q-21.2 -41.25 -5.45 -41.25 11.3 -41.25 23.15 -29.4 35.05 -17.5 35.05 -0.7 35.05 16.05 23.15 27.9 11.3 39.8 -5.45 39.8 L-10.2 39.55 Q-14.2 39.1 -17.9 37.95 -21.1 36.95 -24.05 35.4 -29.5 32.55 -34.15 27.9 -46.0 16.05 -46.0 -0.7 -46.0 -14.85 -37.6 -25.5 L-34.55 -29.0 -34.15 -29.4" fill="none" stroke="#684e35" stroke-linecap="round" stroke-linejoin="round" stroke-width="2.0"/>
    <path d="M-34.05 -29.25 L-34.55 -29.0" fill="none" stroke="#684e35" stroke-linecap="round" stroke-linejoin="round" stroke-width="2.0"/>
  </g>
</svg>
