<?xml version="1.0" encoding="UTF-8" standalone="no"?>
<svg xmlns:ffdec="https://www.free-decompiler.com/flash" xmlns:xlink="http://www.w3.org/1999/xlink" ffdec:objectType="shape" height="30.85px" width="41.2px" xmlns="http://www.w3.org/2000/svg">
  <g transform="matrix(1.0, 0.0, 0.0, 1.0, 44.7, -4.75)">
    <path d="M-5.55 4.85 L-5.4 4.75 Q-4.75 6.8 -3.95 11.5 -3.1 16.7 -3.9 24.2 L-4.15 24.8 -4.35 25.2 Q-13.4 37.5 -28.75 35.25 -36.8 33.95 -41.55 25.8 -43.6 21.15 -44.7 19.3 L-44.3 18.95 -43.55 18.9 Q-35.55 21.7 -27.0 20.4 -13.05 18.0 -6.55 5.4 L-5.95 4.9 -5.6 4.85 -5.55 4.85 M-37.1 22.55 Q-36.25 23.2 -35.25 24.4 L-35.05 24.4 Q-33.1 25.25 -28.2 25.25 -23.65 25.25 -18.05 23.6 -14.65 22.55 -11.9 20.75 -10.65 19.9 -7.8 17.15 -6.5 16.3 -5.55 14.9 L-5.95 9.4 -6.05 8.6 Q-13.05 20.0 -26.65 22.35 L-26.7 22.35 Q-32.0 23.2 -37.1 22.5 L-38.45 22.3 -42.25 21.45 Q-40.9 23.0 -39.85 24.8 L-39.8 24.8 Q-35.6 32.05 -28.45 33.3 L-28.45 33.25 Q-19.7 34.55 -13.15 30.7 L-12.15 30.1 -12.4 30.25 -12.45 29.95 -12.45 28.7 Q-12.6 21.4 -6.1 21.4 L-5.65 21.45 -5.5 16.6 Q-6.95 18.7 -10.45 21.15 -17.9 26.4 -28.55 26.4 -32.55 26.4 -34.65 25.55 L-35.15 25.7 -40.25 21.95 -38.45 22.35 -37.1 22.55 M-5.75 22.55 Q-9.05 22.4 -10.05 23.7 L-10.85 26.25 Q-11.25 27.1 -11.5 29.65 -8.45 27.4 -5.95 24.0 L-5.9 23.95 -5.8 23.05 -5.75 22.55" fill="#463624" fill-rule="evenodd" stroke="none"/>
    <path d="M-37.1 22.5 Q-32.0 23.2 -26.7 22.35 L-26.65 22.35 Q-13.05 20.0 -6.05 8.6 L-5.95 9.4 -5.55 14.9 Q-6.5 16.3 -7.8 17.15 -10.65 19.9 -11.9 20.75 -14.65 22.55 -18.05 23.6 -23.65 25.25 -28.2 25.25 -33.1 25.25 -35.05 24.4 L-35.25 24.4 Q-36.25 23.2 -37.1 22.55 L-37.1 22.5" fill="#e5e5e5" fill-rule="evenodd" stroke="none"/>
    <path d="M-37.1 22.55 L-38.45 22.35 -40.25 21.95 -35.15 25.7 -34.65 25.55 Q-32.55 26.4 -28.55 26.4 -17.9 26.4 -10.45 21.15 -6.95 18.7 -5.5 16.6 L-5.65 21.45 -6.1 21.4 Q-12.6 21.4 -12.45 28.7 L-12.45 29.95 -12.4 30.25 -12.15 30.1 -13.15 30.7 Q-19.7 34.55 -28.45 33.25 L-28.45 33.3 Q-35.6 32.05 -39.8 24.8 L-39.85 24.8 Q-40.9 23.0 -42.25 21.45 L-38.45 22.3 -37.1 22.5 -37.1 22.55" fill="#57352d" fill-rule="evenodd" stroke="none"/>
    <path d="M-5.75 22.55 L-5.8 23.05 -5.9 23.95 -5.95 24.0 Q-8.45 27.4 -11.5 29.65 -11.25 27.1 -10.85 26.25 L-10.05 23.7 Q-9.05 22.4 -5.75 22.55" fill="#b45f50" fill-rule="evenodd" stroke="none"/>
  </g>
</svg>
