<?xml version="1.0" encoding="UTF-8" standalone="no"?>
<svg xmlns:ffdec="https://www.free-decompiler.com/flash" xmlns:xlink="http://www.w3.org/1999/xlink" ffdec:objectType="shape" height="30.85px" width="41.2px" xmlns="http://www.w3.org/2000/svg">
  <g transform="matrix(1.0, 0.0, 0.0, 1.0, 44.7, -4.75)">
    <path d="M-5.55 4.85 L-5.4 4.75 Q-4.75 6.8 -3.95 11.5 -3.1 16.7 -3.9 24.2 L-4.15 24.8 -4.35 25.2 Q-13.4 37.5 -28.75 35.25 -36.8 33.95 -41.55 25.8 -43.6 21.15 -44.7 19.3 L-44.3 18.95 -43.55 18.9 Q-35.55 21.7 -27.0 20.4 -13.05 18.0 -6.55 5.4 L-5.95 4.9 -5.6 4.85 -5.55 4.85 M-5.55 14.8 L-5.95 9.4 -6.05 8.6 Q-13.05 20.0 -26.65 22.35 L-26.7 22.35 Q-31.95 23.2 -37.0 22.5 L-37.75 22.35 -38.05 22.4 -38.45 22.3 -42.25 21.45 -41.1 22.85 -40.55 23.7 -39.85 24.8 -39.8 24.8 -39.75 24.9 -39.05 26.05 -39.05 26.0 -38.85 25.95 -34.8 28.65 -32.05 27.95 -31.65 27.85 -29.55 27.4 -29.4 27.35 -28.5 27.35 -28.4 27.6 -28.45 27.85 -28.5 27.85 Q-30.2 28.2 -33.45 29.4 L-33.95 30.9 -33.95 31.0 -34.0 31.15 -31.85 32.3 -28.45 33.3 -28.45 33.25 Q-19.7 34.55 -13.15 30.7 L-12.7 30.45 -12.4 30.25 -8.6 27.05 -8.0 26.45 -5.95 24.0 -5.9 23.95 -5.9 23.9 -5.65 23.9 -5.6 23.1 Q-6.55 22.3 -7.1 22.3 -9.35 22.3 -11.1 23.1 L-11.15 23.15 -11.2 23.15 -11.75 23.5 -12.8 24.05 -12.85 24.05 -12.95 24.05 -13.45 24.05 -13.55 23.85 Q-13.55 23.45 -12.15 22.8 L-11.7 22.6 -11.65 22.6 -11.15 22.4 -10.2 22.05 -10.1 22.0 -9.95 21.95 Q-7.0 20.95 -6.8 20.7 -6.05 19.6 -5.5 17.95 L-5.5 18.7 -5.45 17.9 -5.45 17.85 -5.5 15.7 -5.6 15.0 -5.55 14.9 -5.55 14.8 M-12.7 30.45 L-13.4 31.0 -12.7 30.45 M-35.0 30.45 L-35.05 30.0 Q-35.05 29.75 -36.85 28.55 L-37.45 28.15 -37.3 28.35 -35.6 29.95 -34.15 31.05 -35.0 30.45" fill="#463624" fill-rule="evenodd" stroke="none"/>
    <path d="M-39.05 26.05 L-39.75 24.9 -39.8 24.8 -39.85 24.8 -40.55 23.7 -41.1 22.85 -42.25 21.45 -38.45 22.3 -38.05 22.4 -37.75 22.35 -37.0 22.5 Q-31.95 23.2 -26.7 22.35 L-26.65 22.35 Q-13.05 20.0 -6.05 8.6 L-5.95 9.4 -5.55 14.8 -5.6 14.85 -5.7 15.0 -5.6 15.0 -5.5 15.7 -5.45 17.85 -5.45 17.9 -5.5 17.95 Q-6.05 19.6 -6.8 20.7 -7.0 20.95 -9.95 21.95 L-10.1 22.0 -10.2 22.05 -11.15 22.4 -11.65 22.6 -11.7 22.6 -11.9 22.6 -12.15 22.8 Q-13.55 23.45 -13.55 23.85 L-13.45 24.05 -12.95 24.05 -12.85 24.05 -12.8 24.05 -11.75 23.5 -11.2 23.15 -11.15 23.15 -11.1 23.15 -11.1 23.1 Q-9.35 22.3 -7.1 22.3 -6.55 22.3 -5.6 23.1 L-5.65 23.9 -5.9 23.9 -5.9 23.95 -5.95 24.0 -8.0 26.45 -8.6 27.05 Q-8.8 23.8 -11.4 23.8 L-13.85 24.5 -14.1 24.45 -14.2 24.15 Q-14.2 23.45 -10.15 20.4 -9.65 20.0 -9.2 18.8 L-12.4 20.65 Q-17.15 22.7 -18.95 23.15 -25.3 24.65 -29.05 24.65 L-37.55 23.9 -40.3 23.1 Q-36.75 27.4 -31.45 27.4 L-27.15 27.15 -24.6 27.25 Q-24.5 27.3 -24.55 27.5 -25.7 28.25 -29.35 29.8 -30.75 30.7 -31.25 32.5 L-31.85 32.3 -34.0 31.15 -33.95 31.0 -33.95 30.95 -33.95 30.9 -33.45 29.4 Q-30.2 28.2 -28.5 27.85 L-28.45 27.85 -28.4 27.6 -28.5 27.35 -29.4 27.35 -29.55 27.4 -31.65 27.85 -32.05 27.95 -34.8 28.65 -38.85 25.95 -39.05 26.0 -39.05 26.05" fill="#e5e5e5" fill-rule="evenodd" stroke="none"/>
    <path d="M-5.55 14.8 L-5.55 14.9 -5.6 15.0 -5.7 15.0 -5.6 14.85 -5.55 14.8 M-11.7 22.6 L-12.15 22.8 -11.9 22.6 -11.7 22.6 M-11.15 23.15 L-11.1 23.1 -11.1 23.15 -11.15 23.15 M-8.6 27.05 L-12.4 30.25 -12.7 30.45 -13.15 30.7 Q-19.7 34.55 -28.45 33.25 L-28.45 33.3 -31.85 32.3 -31.25 32.5 Q-30.75 30.7 -29.35 29.8 -25.7 28.25 -24.55 27.5 -24.5 27.3 -24.6 27.25 L-27.15 27.15 -31.45 27.4 Q-36.75 27.4 -40.3 23.1 L-37.55 23.9 -29.05 24.65 Q-25.3 24.65 -18.95 23.15 -17.15 22.7 -12.4 20.65 L-9.2 18.8 Q-9.65 20.0 -10.15 20.4 -14.2 23.45 -14.2 24.15 L-14.1 24.45 -13.85 24.5 -11.4 23.8 Q-8.8 23.8 -8.6 27.05" fill="#f9f9f9" fill-rule="evenodd" stroke="none"/>
    <path d="M-33.95 31.0 L-33.95 30.9 -33.95 30.95 -33.95 31.0 M-35.0 30.45 L-34.15 31.05 -35.6 29.95 -37.3 28.35 -37.45 28.15 -36.85 28.55 Q-35.05 29.75 -35.05 30.0 L-35.0 30.45" fill="#57352d" fill-rule="evenodd" stroke="none"/>
  </g>
</svg>
