<?xml version="1.0" encoding="UTF-8" standalone="no"?>
<svg xmlns:ffdec="https://www.free-decompiler.com/flash" xmlns:xlink="http://www.w3.org/1999/xlink" ffdec:objectType="shape" height="14.65px" width="27.85px" xmlns="http://www.w3.org/2000/svg">
  <g transform="matrix(1.0, 0.0, 0.0, 1.0, 32.75, -16.35)">
    <path d="M-4.9 22.6 Q-4.9 25.05 -8.3 27.6 -12.8 30.95 -20.4 30.95 L-25.0 30.85 -25.05 30.85 -26.25 31.0 Q-33.15 31.0 -32.7 25.4 L-32.6 24.6 Q-31.95 21.65 -25.8 19.05 -19.5 16.35 -13.15 16.35 -7.4 16.35 -5.65 19.05 -4.9 20.15 -4.9 22.6 M-29.4 29.05 L-29.2 29.15 -28.25 29.55 Q-16.5 30.7 -11.15 27.55 -6.8 25.0 -6.8 22.25 -6.8 18.1 -14.4 18.1 -22.2 18.1 -27.45 21.4 L-31.2 24.2 -30.5 25.15 -29.9 25.9 Q-28.1 24.2 -22.4 23.95 -21.35 23.95 -21.15 24.2 L-21.05 24.35 -25.4 25.7 Q-26.3 26.0 -28.15 27.3 L-28.15 27.35 -28.25 27.55 -29.3 28.85 -29.65 28.95 -29.4 29.05" fill="#463624" fill-rule="evenodd" stroke="none"/>
    <path d="M-29.3 28.85 L-28.25 27.55 -28.15 27.35 -28.15 27.3 Q-26.3 26.0 -25.4 25.7 L-21.05 24.35 -21.15 24.2 Q-21.35 23.95 -22.4 23.95 -28.1 24.2 -29.9 25.9 L-30.5 25.15 -31.2 24.2 -27.45 21.4 Q-22.2 18.1 -14.4 18.1 -6.8 18.1 -6.8 22.25 -6.8 25.0 -11.15 27.55 -16.5 30.7 -28.25 29.55 L-29.2 29.15 -29.4 29.05 -29.3 28.85" fill="#e5e5e5" fill-rule="evenodd" stroke="none"/>
  </g>
</svg>
