<?xml version="1.0" encoding="UTF-8" standalone="no"?>
<svg xmlns:ffdec="https://www.free-decompiler.com/flash" xmlns:xlink="http://www.w3.org/1999/xlink" ffdec:objectType="shape" height="25.9px" width="39.45px" xmlns="http://www.w3.org/2000/svg">
  <g transform="matrix(1.0, 0.0, 0.0, 1.0, 37.95, -9.05)">
    <path d="M-30.2 18.8 L-26.45 16.2 Q-18.6 11.1 -13.15 11.1 -7.85 11.1 -5.25 15.4 L-4.2 17.5 -4.7 17.2 Q-5.3 16.55 -7.9 16.55 L-9.4 16.6 Q-24.4 22.2 -25.9 22.2 -26.4 22.2 -28.3 20.4 L-30.2 18.8" fill="#e5e5e5" fill-rule="evenodd" stroke="none"/>
    <path d="M-30.2 18.8 L-28.3 20.4 Q-26.4 22.2 -25.9 22.2 -24.4 22.2 -9.4 16.6 L-7.9 16.55 Q-5.3 16.55 -4.7 17.2 L-4.2 17.5 -5.25 15.4 Q-7.85 11.1 -13.15 11.1 -18.6 11.1 -26.45 16.2 L-30.2 18.8 -30.7 19.15 -30.2 18.8 M-3.7 19.05 L-3.8 19.05 Q-5.1 19.05 -5.5 18.45 -5.85 17.85 -8.1 17.85 -11.75 17.85 -18.35 20.6 -24.9 23.35 -25.75 23.35 -27.6 23.35 -31.05 19.45 L-31.7 20.0 -34.55 22.6 Q-32.1 24.4 -31.75 27.7 -31.6 29.6 -31.7 33.35 L-25.15 33.6 Q-18.7 33.6 -14.15 32.5 L-14.1 32.5 -13.3 32.25 -14.2 32.5 -14.25 32.25 Q-14.25 31.8 -13.5 31.4 -12.75 31.05 -12.75 30.7 -13.5 30.5 -14.15 29.95 -16.9 32.45 -19.4 32.45 -23.25 32.45 -23.25 29.5 -23.25 27.7 -21.65 25.45 -19.15 22.0 -14.4 22.0 -9.85 22.0 -7.15 24.35 -5.35 25.9 -5.15 27.25 -2.9 24.15 -3.55 20.6 L-3.7 19.1 -3.8 18.6 -3.7 19.05 M-2.3 20.45 Q-2.3 25.6 -4.4 28.35 -9.5 34.95 -25.25 34.95 L-33.1 34.9 -33.25 34.65 Q-33.05 34.25 -33.2 33.95 L-33.05 32.6 -32.95 30.1 Q-32.95 23.6 -35.85 23.6 -36.4 23.6 -37.4 24.45 -37.95 24.25 -37.95 23.65 -21.25 9.05 -11.55 9.05 -6.45 9.05 -3.85 14.6 -2.55 17.4 -2.3 20.45 M-21.8 28.0 L-22.15 29.25 Q-22.15 31.1 -20.0 31.1 -16.95 31.1 -14.7 29.0 -13.15 27.55 -12.55 25.85 L-12.15 25.7 -11.8 26.05 -12.1 27.5 -12.85 28.7 -12.95 28.8 -12.8 28.75 -12.45 28.75 -12.15 28.8 -10.5 29.6 -10.4 29.75 -10.25 30.05 -10.25 30.15 -10.15 30.85 -10.25 31.15 -10.05 31.05 -8.45 30.2 Q-7.05 29.35 -6.0 28.25 L-6.55 27.55 -7.4 25.8 Q-9.15 23.25 -14.4 23.25 -20.25 23.25 -21.8 28.0 M-11.55 25.4 L-11.55 26.75 -11.9 27.5 -11.9 27.15 -11.8 26.1 -11.6 26.05 -11.55 25.4" fill="#463624" fill-rule="evenodd" stroke="none"/>
    <path d="M-14.15 32.5 Q-18.7 33.6 -25.15 33.6 L-31.7 33.35 Q-31.6 29.6 -31.75 27.7 -32.1 24.4 -34.55 22.6 L-31.7 20.0 -31.05 19.45 Q-27.6 23.35 -25.75 23.35 -24.9 23.35 -18.35 20.6 -11.75 17.85 -8.1 17.85 -5.85 17.85 -5.5 18.45 -5.1 19.05 -3.8 19.05 L-3.7 19.05 -3.7 19.1 -3.55 20.6 Q-2.9 24.15 -5.15 27.25 -5.35 25.9 -7.15 24.35 -9.85 22.0 -14.4 22.0 -19.15 22.0 -21.65 25.45 -23.25 27.7 -23.25 29.5 -23.25 32.45 -19.4 32.45 -16.9 32.45 -14.15 29.95 -13.5 30.5 -12.75 30.7 -12.75 31.05 -13.5 31.4 -14.25 31.8 -14.25 32.25 L-14.2 32.5 -14.15 32.5" fill="#57352d" fill-rule="evenodd" stroke="none"/>
    <path d="M-12.1 27.5 L-11.8 26.05 -12.15 25.7 -12.55 25.85 Q-13.15 27.55 -14.7 29.0 -16.95 31.1 -20.0 31.1 -22.15 31.1 -22.15 29.25 L-21.8 28.0 Q-20.7 29.35 -18.4 29.35 -15.45 29.35 -13.75 27.2 L-12.05 25.0 Q-8.9 25.0 -8.4 29.6 L-8.45 30.2 -10.05 31.05 -10.15 30.85 -10.25 30.15 -10.25 30.05 -10.4 29.75 -10.5 29.6 -12.15 28.8 -12.45 28.75 -12.1 27.5 M-11.55 25.4 L-11.6 26.05 -11.8 26.1 -11.9 27.15 -11.9 27.5 -11.55 26.75 -11.55 25.4" fill="#a05345" fill-rule="evenodd" stroke="none"/>
    <path d="M-12.1 27.5 L-12.45 28.75 -12.8 28.75 -12.85 28.7 -12.1 27.5 M-8.45 30.2 L-8.4 29.6 Q-8.9 25.0 -12.05 25.0 L-13.75 27.2 Q-15.45 29.35 -18.4 29.35 -20.7 29.35 -21.8 28.0 -20.25 23.25 -14.4 23.25 -9.15 23.25 -7.4 25.8 L-6.55 27.55 -6.0 28.25 Q-7.05 29.35 -8.45 30.2" fill="#b45f50" fill-rule="evenodd" stroke="none"/>
    <path d="M-2.85 28.05 Q-2.1 27.3 -1.05 27.3 0.0 27.3 0.75 28.05 1.5 28.8 1.5 29.85 1.5 30.9 0.75 31.65 0.0 32.4 -1.05 32.4 -2.1 32.4 -2.85 31.65 -3.6 30.9 -3.6 29.85 -3.6 28.8 -2.85 28.05" fill="#b38366" fill-rule="evenodd" stroke="none"/>
  </g>
</svg>
