<?xml version="1.0" encoding="UTF-8" standalone="no"?>
<svg xmlns:ffdec="https://www.free-decompiler.com/flash" xmlns:xlink="http://www.w3.org/1999/xlink" ffdec:objectType="shape" height="16.6px" width="36.9px" xmlns="http://www.w3.org/2000/svg">
  <g transform="matrix(1.0, 0.0, 0.0, 1.0, 42.3, -10.25)">
    <path d="M-10.25 10.45 Q-10.5 10.45 -10.7 10.7 -5.95 10.75 -5.4 17.95 -8.45 27.05 -13.45 26.85 L-24.45 25.35 Q-30.15 24.15 -33.65 22.5 -38.55 22.3 -40.8 20.9 L-42.3 18.3 Q-32.6 21.6 -22.85 18.3 -16.1 15.85 -11.25 10.45 L-10.45 10.35 Q-9.55 10.45 -10.25 10.45 M-7.4 17.7 Q-7.4 14.75 -12.05 13.75 -13.4 15.7 -17.55 18.55 -21.5 21.2 -26.5 22.1 L-22.65 23.0 -16.4 24.3 -15.25 24.75 -15.1 23.15 Q-14.9 21.7 -13.75 19.4 -12.6 17.05 -10.9 17.1 L-7.9 17.6 -7.4 17.8 -7.4 17.7 M-7.85 19.2 L-11.4 18.95 Q-12.65 18.95 -13.5 21.6 -14.2 23.65 -13.85 24.95 -13.55 24.6 -12.1 24.6 -10.75 24.6 -9.0 21.45 L-7.8 19.2 -7.65 18.8 -7.85 19.2" fill="#463624" fill-rule="evenodd" stroke="none"/>
    <path d="M-7.8 19.2 L-9.0 21.45 Q-10.75 24.6 -12.1 24.6 -13.55 24.6 -13.85 24.95 -14.2 23.65 -13.5 21.6 -12.65 18.95 -11.4 18.95 L-7.85 19.2 -7.8 19.2" fill="#b45f50" fill-rule="evenodd" stroke="none"/>
    <path d="M-7.4 17.8 L-7.9 17.6 -10.9 17.1 Q-12.6 17.05 -13.75 19.4 -14.9 21.7 -15.1 23.15 L-15.25 24.75 -16.4 24.3 -22.65 23.0 -26.5 22.1 Q-21.5 21.2 -17.55 18.55 -13.4 15.7 -12.05 13.75 -7.4 14.75 -7.4 17.7 L-7.4 17.8" fill="#57352d" fill-rule="evenodd" stroke="none"/>
  </g>
</svg>
