<?xml version="1.0" encoding="UTF-8" standalone="no"?>
<svg xmlns:ffdec="https://www.free-decompiler.com/flash" xmlns:xlink="http://www.w3.org/1999/xlink" ffdec:objectType="shape" height="7.85px" width="23.45px" xmlns="http://www.w3.org/2000/svg">
  <g transform="matrix(1.0, 0.0, 0.0, 1.0, 9.55, -1.55)">
    <path d="M11.85 3.25 L11.4 3.0 11.1 3.05 8.55 2.8 Q-1.95 2.8 -4.8 4.15 -4.25 5.25 -4.25 6.05 L-4.25 7.0 0.9 6.3 4.4 6.6 Q4.5 5.45 6.25 4.3 8.2 3.05 10.75 3.05 L11.8 3.25 12.15 3.5 11.85 3.25 M10.3 4.6 Q8.35 4.55 7.75 5.0 6.7 5.7 6.65 6.4 6.6 6.75 5.8 6.75 L5.75 6.8 6.5 6.95 12.4 7.55 Q13.0 7.55 13.0 5.95 13.0 4.75 12.55 4.0 11.85 4.6 10.3 4.6 M13.9 5.9 Q13.9 8.65 11.85 8.65 L6.7 8.05 0.4 7.4 Q-2.75 7.4 -5.35 8.4 -7.95 9.4 -8.6 9.4 L-9.05 9.3 -9.25 8.8 Q-9.25 8.15 -5.45 7.25 L-5.05 7.15 Q-6.0 6.25 -6.0 4.1 L-9.4 5.4 Q-9.55 5.8 -9.55 5.15 -9.55 4.4 -5.35 3.4 L-5.8 3.5 Q-5.3 2.95 -3.55 2.7 L0.85 2.25 3.9 1.95 6.75 1.65 8.5 1.55 11.25 1.85 Q14.0 2.55 13.9 5.9" fill="#463624" fill-rule="evenodd" stroke="none"/>
    <path d="M11.8 3.25 L10.75 3.05 Q8.2 3.05 6.25 4.3 4.5 5.45 4.4 6.6 L0.9 6.3 -4.25 7.0 -4.25 6.05 Q-4.25 5.25 -4.8 4.15 -1.95 2.8 8.55 2.8 L11.1 3.05 11.4 3.0 11.85 3.25 11.8 3.25" fill="#57352d" fill-rule="evenodd" stroke="none"/>
    <path d="M10.3 4.6 Q11.85 4.6 12.55 4.0 13.0 4.75 13.0 5.95 13.0 7.55 12.4 7.55 L6.5 6.95 5.75 6.8 5.8 6.75 Q6.6 6.75 6.65 6.4 6.7 5.7 7.75 5.0 8.35 4.55 10.3 4.6" fill="#b45f50" fill-rule="evenodd" stroke="none"/>
  </g>
</svg>
