<?xml version="1.0" encoding="UTF-8" standalone="no"?>
<svg xmlns:ffdec="https://www.free-decompiler.com/flash" xmlns:xlink="http://www.w3.org/1999/xlink" ffdec:objectType="shape" height="164.5px" width="62.0px" xmlns="http://www.w3.org/2000/svg">
  <g transform="matrix(1.0, 0.0, 0.0, 1.0, 29.85, 132.75)">
    <path d="M17.15 -28.55 L18.05 -25.15 17.35 -24.7 17.3 -24.65 Q16.7 -24.05 16.7 -23.15 16.7 -22.25 17.3 -21.65 17.95 -21.0 18.85 -21.0 L19.0 -21.0 20.4 -13.7 Q19.8 -13.6 19.35 -13.15 L19.3 -13.1 Q18.7 -12.5 18.7 -11.6 18.7 -10.7 19.3 -10.1 19.95 -9.45 20.85 -9.45 L21.0 -9.45 21.55 -2.1 Q21.0 -2.0 20.6 -1.6 L20.55 -1.55 Q19.95 -0.95 19.95 -0.05 19.95 0.85 20.55 1.45 21.0 1.9 21.55 2.05 21.4 5.9 20.9 9.4 L20.35 9.35 Q19.45 9.35 18.85 9.95 L18.8 10.0 Q18.2 10.6 18.2 11.5 18.2 12.4 18.8 13.0 19.3 13.5 20.0 13.65 18.95 17.6 17.25 21.05 L16.6 20.95 Q15.7 20.95 15.1 21.55 L15.05 21.6 Q14.45 22.2 14.45 23.1 14.45 24.0 15.05 24.6 L15.1 24.65 Q13.35 27.15 11.15 29.25 L2.4 29.55 2.35 29.55 Q-10.0 28.1 -18.3 18.9 -26.65 9.7 -27.15 -11.05 -27.45 -22.75 -25.4 -31.25 -23.35 -30.15 -19.7 -29.2 -11.45 -27.15 0.2 -27.15 9.85 -27.15 17.15 -28.55 M12.75 -19.1 Q12.35 -20.7 10.7 -20.65 -5.85 -19.5 -23.3 -24.65 -23.6 -17.95 -23.4 -9.05 -23.25 -0.15 -19.7 6.9 -16.2 13.95 -6.1 16.4 3.9 18.8 7.55 8.45 5.1 10.3 -4.15 12.95 5.5 8.9 9.6 2.0 L9.85 1.6 Q11.2 -1.95 11.5 -3.85 4.9 4.0 -1.6 5.45 4.6 2.95 12.2 -8.1 L12.55 -11.85 Q4.5 -4.95 -4.5 -4.5 4.3 -5.95 12.7 -13.9 L12.75 -19.1" fill="#85502c" fill-rule="evenodd" stroke="none"/>
    <path d="M19.15 -26.8 Q27.7 -30.35 28.3 -22.15 L28.35 -22.15 29.45 -12.65 29.95 -6.0 29.95 -5.95 Q30.25 -1.5 30.05 2.85 L29.3 10.2 Q28.6 14.15 27.2 16.55 L24.05 21.3 Q22.3 23.65 19.6 25.65 16.9 27.6 15.7 27.0 L16.8 25.25 Q17.55 25.15 18.1 24.65 L18.15 24.6 Q18.75 24.0 18.75 23.1 L18.5 22.05 Q20.3 18.1 21.3 13.45 L21.85 13.05 21.9 13.0 Q22.5 12.4 22.5 11.5 22.5 10.65 21.95 10.05 22.5 6.25 22.6 2.05 L23.6 1.5 23.65 1.45 Q24.25 0.85 24.25 -0.05 24.25 -0.95 23.6 -1.6 L22.6 -2.15 22.1 -9.85 22.35 -10.05 22.4 -10.1 Q23.0 -10.7 23.0 -11.6 23.0 -12.5 22.35 -13.15 L21.6 -13.6 20.25 -21.55 20.35 -21.6 20.4 -21.65 Q21.0 -22.25 21.0 -23.15 21.0 -24.05 20.35 -24.7 L19.5 -25.2 19.15 -26.8" fill="#6d3d30" fill-rule="evenodd" stroke="none"/>
    <path d="M28.15 -33.0 L28.8 -30.45 30.3 -22.45 Q31.05 -17.7 31.45 -12.8 L31.95 -6.1 Q32.25 -1.5 32.05 2.95 31.85 6.85 31.25 10.55 30.5 14.75 28.7 18.6 L26.9 21.65 26.85 21.65 Q24.25 25.4 20.35 27.8 16.5 30.2 12.0 31.1 L11.8 31.15 2.15 31.55 Q-11.0 30.0 -19.45 20.65 -27.95 11.35 -28.4 -10.15 -28.65 -22.75 -26.45 -31.95 -26.05 -31.55 -25.45 -31.25 L-25.4 -31.25 Q-27.45 -22.75 -27.15 -11.05 -26.65 9.7 -18.3 18.9 -10.0 28.1 2.35 29.55 L2.4 29.55 11.15 29.25 Q13.35 27.15 15.1 24.65 L15.05 24.6 Q14.45 24.0 14.45 23.1 14.45 22.2 15.05 21.6 L15.1 21.55 Q15.7 20.95 16.6 20.95 L17.25 21.05 Q18.95 17.6 20.0 13.65 19.3 13.5 18.8 13.0 18.2 12.4 18.2 11.5 18.2 10.6 18.8 10.0 L18.85 9.95 Q19.45 9.35 20.35 9.35 L20.9 9.4 Q21.4 5.9 21.55 2.05 21.0 1.9 20.55 1.45 19.95 0.85 19.95 -0.05 19.95 -0.95 20.55 -1.55 L20.6 -1.6 Q21.0 -2.0 21.55 -2.1 L21.0 -9.45 20.85 -9.45 Q19.95 -9.45 19.3 -10.1 18.7 -10.7 18.7 -11.6 18.7 -12.5 19.3 -13.1 L19.35 -13.15 Q19.8 -13.6 20.4 -13.7 L19.0 -21.0 18.85 -21.0 Q17.95 -21.0 17.3 -21.65 16.7 -22.25 16.7 -23.15 16.7 -24.05 17.3 -24.65 L17.35 -24.7 18.05 -25.15 17.15 -28.55 20.05 -29.2 Q26.3 -30.8 28.05 -32.9 L28.15 -33.0 M19.7 -34.85 L19.4 -34.5 Q18.55 -33.75 17.35 -33.75 16.5 -33.75 15.85 -34.1 L15.3 -34.5 15.35 -34.5 Q14.5 -35.25 14.45 -36.3 L14.45 -36.4 Q14.45 -37.5 15.3 -38.3 L15.35 -38.3 15.75 -38.6 17.35 -39.05 18.25 -38.9 19.4 -38.3 Q20.25 -37.5 20.25 -36.4 L20.25 -36.3 Q20.2 -35.5 19.7 -34.85 M8.6 -33.9 L8.15 -33.55 8.0 -33.5 7.8 -33.4 7.75 -33.4 Q6.25 -32.55 4.1 -32.4 1.6 -32.25 -0.15 -33.05 -0.95 -33.4 -1.4 -33.85 -2.2 -34.55 -2.25 -35.45 -2.4 -36.7 -1.2 -37.7 L-1.15 -37.7 -0.9 -37.95 -0.85 -37.95 -0.55 -38.15 Q1.05 -39.2 3.55 -39.35 5.95 -39.5 7.75 -38.65 L7.7 -38.65 8.85 -37.95 Q9.75 -37.25 9.8 -36.25 L9.8 -36.15 Q9.9 -34.95 8.6 -33.9 M-24.35 -36.95 L-24.5 -38.1 Q-24.45 -39.75 -22.35 -40.75 L-22.05 -40.9 -21.65 -41.1 -21.6 -41.1 -18.85 -41.75 Q-17.3 -41.95 -15.5 -41.8 -12.05 -41.5 -9.7 -40.05 -7.05 -38.55 -7.3 -36.65 -7.4 -34.75 -10.25 -33.65 L-10.35 -33.65 -10.75 -33.5 -10.8 -33.5 Q-13.2 -32.75 -16.3 -33.0 -19.8 -33.3 -22.15 -34.7 -23.9 -35.8 -24.35 -36.95 M16.0 -37.55 Q15.45 -37.1 15.45 -36.4 15.45 -35.75 16.0 -35.25 16.55 -34.75 17.35 -34.75 18.15 -34.75 18.7 -35.25 L18.75 -35.25 Q19.25 -35.75 19.25 -36.4 L19.25 -36.45 18.7 -37.55 18.75 -37.55 Q18.15 -38.05 17.35 -38.05 16.55 -38.05 16.0 -37.55 M6.65 -33.95 L7.25 -34.25 7.6 -34.45 Q8.85 -35.25 8.8 -36.15 L8.8 -36.2 Q8.65 -37.15 7.3 -37.75 L7.1 -37.85 Q5.6 -38.5 3.6 -38.35 1.9 -38.25 0.7 -37.65 L0.2 -37.4 0.0 -37.25 -0.15 -37.2 -0.3 -37.1 -0.45 -37.0 Q-1.3 -36.35 -1.25 -35.55 -1.1 -34.6 0.3 -33.95 L0.25 -33.95 0.5 -33.85 Q2.0 -33.25 4.05 -33.4 L6.4 -33.85 6.65 -33.95 M19.15 -26.8 L19.5 -25.2 20.35 -24.7 Q21.0 -24.05 21.0 -23.15 21.0 -22.25 20.4 -21.65 L20.35 -21.6 20.25 -21.55 21.6 -13.6 22.35 -13.15 Q23.0 -12.5 23.0 -11.6 23.0 -10.7 22.4 -10.1 L22.35 -10.05 22.1 -9.85 22.6 -2.15 23.6 -1.6 Q24.25 -0.95 24.25 -0.05 24.25 0.85 23.65 1.45 L23.6 1.5 22.6 2.05 Q22.5 6.25 21.95 10.05 22.5 10.65 22.5 11.5 22.5 12.4 21.9 13.0 L21.85 13.05 21.3 13.45 Q20.3 18.1 18.5 22.05 L18.75 23.1 Q18.75 24.0 18.15 24.6 L18.1 24.65 Q17.55 25.15 16.8 25.25 L15.7 27.0 Q16.9 27.6 19.6 25.65 22.3 23.65 24.05 21.3 L27.2 16.55 Q28.6 14.15 29.3 10.2 L30.05 2.85 Q30.25 -1.5 29.95 -5.95 L29.95 -6.0 29.45 -12.65 28.35 -22.15 28.3 -22.15 Q27.7 -30.35 19.15 -26.8 M19.8 -23.85 L19.65 -24.0 Q19.35 -24.3 18.85 -24.3 L18.3 -24.15 18.05 -24.0 18.0 -23.95 Q17.7 -23.6 17.7 -23.15 17.7 -22.65 18.0 -22.35 18.35 -22.0 18.8 -22.0 L18.85 -22.0 Q19.3 -22.0 19.65 -22.3 L19.7 -22.35 20.0 -22.9 20.0 -23.15 19.8 -23.85 M17.4 22.25 L16.75 21.95 16.6 21.95 Q16.15 21.95 15.8 22.25 L15.75 22.3 Q15.45 22.65 15.45 23.1 L15.65 23.8 15.75 23.9 Q16.1 24.25 16.6 24.25 L17.4 23.95 17.45 23.9 17.75 23.1 Q17.75 22.6 17.4 22.25 M21.15 10.65 L20.7 10.4 20.35 10.35 Q19.9 10.35 19.55 10.65 L19.5 10.7 Q19.2 11.05 19.2 11.5 19.2 12.0 19.5 12.3 19.8 12.6 20.25 12.65 L20.35 12.65 21.15 12.35 21.2 12.3 21.5 11.5 Q21.5 11.0 21.15 10.65 M21.3 -0.9 L21.25 -0.85 20.95 -0.05 Q20.95 0.45 21.25 0.75 L21.55 1.0 22.1 1.1 22.65 1.0 22.9 0.8 22.95 0.75 23.25 -0.05 22.9 -0.9 22.65 -1.1 22.1 -1.2 21.55 -1.1 21.3 -0.9 M20.05 -12.45 L20.0 -12.4 Q19.7 -12.05 19.7 -11.6 19.7 -11.1 20.0 -10.8 20.35 -10.45 20.85 -10.45 21.3 -10.45 21.65 -10.75 L21.7 -10.8 21.95 -11.15 22.0 -11.6 21.8 -12.3 21.65 -12.45 Q21.35 -12.75 20.85 -12.75 L20.55 -12.7 20.05 -12.45 M-11.7 -34.3 L-11.1 -34.45 -10.55 -34.65 Q-8.5 -35.45 -8.3 -36.75 -8.25 -38.05 -10.2 -39.2 -12.35 -40.5 -15.6 -40.8 -18.65 -41.05 -20.95 -40.3 L-21.25 -40.15 -21.6 -40.0 -21.65 -40.0 -21.8 -39.9 Q-23.4 -39.2 -23.5 -38.05 L-23.45 -37.55 Q-23.2 -36.55 -21.6 -35.55 L-21.65 -35.55 Q-19.5 -34.3 -16.2 -34.0 L-11.7 -34.3" fill="#532f24" fill-rule="evenodd" stroke="none"/>
    <path d="M12.75 -19.1 L12.7 -13.9 Q4.3 -5.95 -4.5 -4.5 4.5 -4.95 12.55 -11.85 L12.2 -8.1 Q4.6 2.95 -1.6 5.45 4.9 4.0 11.5 -3.85 11.2 -1.95 9.85 1.6 L9.6 2.0 Q5.5 8.9 -4.15 12.95 5.1 10.3 7.55 8.45 3.9 18.8 -6.1 16.4 -16.2 13.95 -19.7 6.9 -23.25 -0.15 -23.4 -9.05 -23.6 -17.95 -23.3 -24.65 -5.85 -19.5 10.7 -20.65 12.35 -20.7 12.75 -19.1" fill="#9c5e34" fill-rule="evenodd" stroke="none"/>
    <path d="M-0.45 -37.0 L-0.3 -37.1 -0.15 -37.2 0.0 -37.25 0.2 -37.4 0.7 -37.65 Q1.9 -38.25 3.6 -38.35 5.6 -38.5 7.1 -37.85 L7.3 -37.75 Q8.65 -37.15 8.8 -36.2 L8.8 -36.15 Q8.85 -35.25 7.6 -34.45 L7.25 -34.25 6.65 -33.95 Q0.65 -33.7 -0.45 -37.0 M19.8 -23.85 L20.0 -23.15 20.0 -22.9 19.7 -22.35 19.65 -22.3 Q19.3 -22.0 18.85 -22.0 L18.8 -22.0 Q18.35 -22.0 18.0 -22.35 17.7 -22.65 17.7 -23.15 17.7 -23.6 18.0 -23.95 L18.05 -24.0 18.3 -24.15 18.85 -24.3 Q19.35 -24.3 19.65 -24.0 L19.8 -23.85 M20.05 -12.45 L20.55 -12.7 20.85 -12.75 Q21.35 -12.75 21.65 -12.45 L21.8 -12.3 22.0 -11.6 21.95 -11.15 21.7 -10.8 21.65 -10.75 Q21.3 -10.45 20.85 -10.45 20.35 -10.45 20.0 -10.8 19.7 -11.1 19.7 -11.6 19.7 -12.05 20.0 -12.4 L20.05 -12.45 M21.3 -0.9 L21.55 -1.1 22.1 -1.2 22.65 -1.1 22.9 -0.9 23.25 -0.05 22.95 0.75 22.9 0.8 22.65 1.0 22.1 1.1 21.55 1.0 21.25 0.75 Q20.95 0.45 20.95 -0.05 L21.25 -0.85 21.3 -0.9 M21.15 10.65 Q21.5 11.0 21.5 11.5 L21.2 12.3 21.15 12.35 20.35 12.65 20.25 12.65 Q19.8 12.6 19.5 12.3 19.2 12.0 19.2 11.5 19.2 11.05 19.5 10.7 L19.55 10.65 Q19.9 10.35 20.35 10.35 L20.7 10.4 21.15 10.65 M17.4 22.25 Q17.75 22.6 17.75 23.1 L17.45 23.9 17.4 23.95 16.6 24.25 Q16.1 24.25 15.75 23.9 L15.65 23.8 15.45 23.1 Q15.45 22.65 15.75 22.3 L15.8 22.25 Q16.15 21.95 16.6 21.95 L16.75 21.95 17.4 22.25 M-10.3 -125.55 L-10.0 -126.45 Q-9.35 -128.2 -7.8 -128.95 -6.55 -129.6 -5.3 -129.25 L-4.85 -129.1 -4.9 -129.1 Q-4.0 -128.75 -3.45 -128.0 L-2.95 -127.05 -2.95 -127.0 Q-2.4 -125.4 -3.05 -123.6 -3.75 -121.9 -5.25 -121.2 -6.3 -120.65 -7.25 -120.75 L-7.6 -120.8 -8.15 -120.95 -8.3 -121.0 Q-9.4 -121.55 -9.9 -122.65 L-10.05 -122.9 -10.1 -123.15 -10.3 -123.9 -10.3 -125.55 M-13.1 -37.3 Q-12.7 -37.65 -12.7 -38.2 -12.7 -38.75 -13.1 -39.15 -13.45 -39.5 -14.0 -39.5 -14.55 -39.5 -14.95 -39.15 L-15.3 -38.2 Q-15.3 -37.65 -14.95 -37.3 -14.55 -36.9 -14.0 -36.9 -13.45 -36.9 -13.1 -37.3 M-10.3 -37.3 L-10.55 -37.9 Q-10.75 -38.1 -11.1 -38.1 L-11.7 -37.9 -11.9 -37.3 Q-11.9 -36.95 -11.7 -36.75 L-11.1 -36.5 Q-10.75 -36.5 -10.55 -36.75 -10.3 -36.95 -10.3 -37.3 M-18.75 -38.65 Q-18.5 -38.65 -18.35 -38.8 -18.2 -38.95 -18.2 -39.2 L-18.35 -39.6 Q-18.5 -39.75 -18.75 -39.75 L-19.15 -39.6 -19.3 -39.2 -19.15 -38.8 -18.75 -38.65 M-21.8 -39.9 L-21.65 -40.0 -21.6 -40.0 -21.25 -40.15 -20.95 -40.3 Q-18.65 -41.05 -15.6 -40.8 -12.35 -40.5 -10.2 -39.2 -8.25 -38.05 -8.3 -36.75 -8.5 -35.45 -10.55 -34.65 L-11.1 -34.45 -11.7 -34.3 Q-18.7 -34.9 -20.85 -37.7 -21.65 -38.65 -21.8 -39.9" fill="#cea651" fill-rule="evenodd" stroke="none"/>
    <path d="M-27.75 -47.2 L-27.3 -46.95 -27.05 -46.9 -25.6 -46.55 Q-25.25 -43.55 -25.8 -38.95 -26.15 -36.35 -25.7 -34.8 -25.45 -33.85 -24.9 -33.3 L-24.5 -33.0 Q-22.6 -32.05 -19.2 -31.15 -11.15 -29.15 0.2 -29.15 9.55 -29.15 16.6 -30.5 L19.55 -31.15 Q24.5 -32.4 26.25 -33.9 L25.9 -37.05 25.9 -37.1 25.85 -39.05 25.75 -43.45 26.75 -43.5 27.3 -43.65 27.7 -44.0 27.9 -37.2 28.3 -33.7 28.25 -33.25 28.15 -33.0 28.05 -32.9 Q26.3 -30.8 20.05 -29.2 L17.15 -28.55 Q9.85 -27.15 0.2 -27.15 -11.45 -27.15 -19.7 -29.2 -23.35 -30.15 -25.4 -31.25 L-25.45 -31.25 Q-26.05 -31.55 -26.45 -31.95 -28.5 -33.9 -27.8 -39.2 -27.2 -44.25 -27.75 -47.2 M-15.45 -99.05 Q-16.1 -94.8 -16.05 -90.45 -16.45 -90.85 -16.9 -90.95 L-17.15 -90.95 -17.95 -90.7 -18.05 -90.6 Q-18.1 -102.75 -13.0 -114.45 -19.25 -102.3 -20.45 -83.6 L-21.45 -84.2 -21.65 -84.2 -22.45 -83.95 -22.4 -84.8 Q-21.05 -103.35 -14.75 -115.5 -12.95 -119.05 -10.7 -122.0 L-10.5 -121.65 Q-9.9 -120.7 -8.8 -120.15 L-8.55 -120.05 -8.55 -120.0 -8.1 -119.85 Q-13.85 -109.6 -15.45 -99.05" fill="#460000" fill-rule="evenodd" stroke="none"/>
    <path d="M-25.6 -46.55 L-24.15 -45.95 -24.15 -46.0 -21.65 -44.95 -21.05 -44.2 Q-20.55 -43.5 -17.85 -43.7 L-17.8 -43.7 -17.25 -43.45 -17.15 -43.45 Q-12.05 -41.8 -1.45 -41.1 L15.5 -41.85 Q20.95 -43.15 25.75 -43.45 L25.85 -39.05 25.9 -37.1 25.9 -37.05 26.25 -33.9 Q24.5 -32.4 19.55 -31.15 L16.6 -30.5 Q9.55 -29.15 0.2 -29.15 -11.15 -29.15 -19.2 -31.15 -22.6 -32.05 -24.5 -33.0 L-24.9 -33.3 Q-25.45 -33.85 -25.7 -34.8 -26.15 -36.35 -25.8 -38.95 -25.25 -43.55 -25.6 -46.55 M19.7 -34.85 Q21.05 -35.3 20.8 -35.9 L20.25 -36.3 20.25 -36.4 Q20.25 -37.5 19.4 -38.3 L18.25 -38.9 20.7 -39.25 17.7 -40.5 Q2.55 -38.6 -9.7 -40.05 -12.05 -41.5 -15.5 -41.8 -17.3 -41.95 -18.85 -41.75 L-23.05 -43.0 Q-25.3 -43.75 -24.45 -42.4 -23.8 -41.35 -22.35 -40.75 -24.45 -39.75 -24.5 -38.1 L-24.35 -36.95 Q-24.75 -36.1 -22.05 -34.25 -18.65 -31.9 -7.0 -31.7 -0.65 -31.55 10.45 -31.75 13.75 -31.65 4.45 -32.25 L-9.8 -33.5 -1.4 -33.85 Q-0.95 -33.4 -0.15 -33.05 1.6 -32.25 4.1 -32.4 6.25 -32.55 7.75 -33.4 L7.8 -33.4 8.0 -33.5 8.15 -33.55 8.6 -33.9 15.85 -34.1 Q16.5 -33.75 17.35 -33.75 18.55 -33.75 19.4 -34.5 L19.7 -34.85 M15.75 -38.6 L15.35 -38.3 15.3 -38.3 Q14.45 -37.5 14.45 -36.4 L14.45 -36.3 13.95 -36.25 9.8 -36.15 9.8 -36.25 Q9.75 -37.25 8.85 -37.95 L15.75 -38.6 M-1.2 -37.7 L-1.45 -37.75 -1.15 -37.7 -1.2 -37.7" fill="#8f0000" fill-rule="evenodd" stroke="none"/>
    <path d="M20.25 -36.3 L20.8 -35.9 Q21.05 -35.3 19.7 -34.85 20.2 -35.5 20.25 -36.3 M15.85 -34.1 L8.6 -33.9 Q9.9 -34.95 9.8 -36.15 L13.95 -36.25 14.45 -36.3 Q14.5 -35.25 15.35 -34.5 L15.3 -34.5 15.85 -34.1 M-1.4 -33.85 L-9.8 -33.5 4.45 -32.25 Q13.75 -31.65 10.45 -31.75 -0.65 -31.55 -7.0 -31.7 -18.65 -31.9 -22.05 -34.25 -24.75 -36.1 -24.35 -36.95 -23.9 -35.8 -22.15 -34.7 -19.8 -33.3 -16.3 -33.0 -13.2 -32.75 -10.8 -33.5 L-10.75 -33.5 -10.35 -33.65 -10.25 -33.65 Q-7.4 -34.75 -7.3 -36.65 -7.05 -38.55 -9.7 -40.05 2.55 -38.6 17.7 -40.5 L20.7 -39.25 18.25 -38.9 17.35 -39.05 15.75 -38.6 8.85 -37.95 7.7 -38.65 7.75 -38.65 Q5.95 -39.5 3.55 -39.35 1.05 -39.2 -0.55 -38.15 L-0.85 -37.95 -0.9 -37.95 -1.15 -37.7 -1.45 -37.75 -1.2 -37.7 Q-2.4 -36.7 -2.25 -35.45 -2.2 -34.55 -1.4 -33.85 M-22.35 -40.75 Q-23.8 -41.35 -24.45 -42.4 -25.3 -43.75 -23.05 -43.0 L-18.85 -41.75 -21.6 -41.1 -21.65 -41.1 -22.05 -40.9 -22.35 -40.75" fill="#bd2424" fill-rule="evenodd" stroke="none"/>
    <path d="M16.0 -37.55 Q16.55 -38.05 17.35 -38.05 18.15 -38.05 18.75 -37.55 L18.7 -37.55 19.25 -36.45 19.25 -36.4 Q19.25 -35.75 18.75 -35.25 L18.7 -35.25 Q18.15 -34.75 17.35 -34.75 16.55 -34.75 16.0 -35.25 15.45 -35.75 15.45 -36.4 15.45 -37.1 16.0 -37.55 M6.65 -33.95 L6.4 -33.85 4.05 -33.4 Q2.0 -33.25 0.5 -33.85 L0.25 -33.95 0.3 -33.95 Q-1.1 -34.6 -1.25 -35.55 -1.3 -36.35 -0.45 -37.0 0.65 -33.7 6.65 -33.95 M-17.05 -89.9 L-16.6 -89.45 Q-16.3 -88.9 -16.25 -88.15 L-16.25 -87.8 Q-16.25 -86.85 -16.6 -86.15 L-17.15 -85.65 -17.5 -85.9 -17.7 -86.15 Q-18.05 -86.85 -18.05 -87.8 L-18.0 -88.25 -17.7 -89.45 -17.15 -89.95 -17.05 -89.9 M-22.2 -82.7 L-21.65 -83.2 -21.55 -83.15 -21.1 -82.7 Q-20.8 -82.15 -20.75 -81.35 L-20.75 -81.05 Q-20.75 -80.1 -21.1 -79.4 -21.35 -78.95 -21.65 -78.9 L-21.8 -78.95 -22.2 -79.4 Q-22.55 -80.1 -22.55 -81.05 L-22.5 -81.45 -22.2 -82.7 M-18.75 -38.65 L-19.15 -38.8 -19.3 -39.2 -19.15 -39.6 -18.75 -39.75 Q-18.5 -39.75 -18.35 -39.6 L-18.2 -39.2 Q-18.2 -38.95 -18.35 -38.8 -18.5 -38.65 -18.75 -38.65 M-10.3 -37.3 Q-10.3 -36.95 -10.55 -36.75 -10.75 -36.5 -11.1 -36.5 L-11.7 -36.75 Q-11.9 -36.95 -11.9 -37.3 L-11.7 -37.9 -11.1 -38.1 Q-10.75 -38.1 -10.55 -37.9 L-10.3 -37.3 M-13.1 -37.3 Q-13.45 -36.9 -14.0 -36.9 -14.55 -36.9 -14.95 -37.3 -15.3 -37.65 -15.3 -38.2 L-14.95 -39.15 Q-14.55 -39.5 -14.0 -39.5 -13.45 -39.5 -13.1 -39.15 -12.7 -38.75 -12.7 -38.2 -12.7 -37.65 -13.1 -37.3 M-11.7 -34.3 L-16.2 -34.0 Q-19.5 -34.3 -21.65 -35.55 L-21.6 -35.55 Q-23.2 -36.55 -23.45 -37.55 L-23.5 -38.05 Q-23.4 -39.2 -21.8 -39.9 -21.65 -38.65 -20.85 -37.7 -18.7 -34.9 -11.7 -34.3" fill="#a87b37" fill-rule="evenodd" stroke="none"/>
    <path d="M-27.75 -47.2 Q-30.65 -48.75 -29.55 -54.55 -28.65 -59.8 -29.25 -75.35 -29.85 -91.25 -21.6 -110.5 -14.1 -128.25 -5.0 -131.75 -2.25 -132.9 0.65 -132.75 L0.7 -132.75 1.15 -132.7 Q9.9 -132.0 16.95 -121.0 19.95 -116.35 22.7 -109.65 31.55 -87.85 28.15 -73.0 25.25 -60.5 28.25 -50.2 29.55 -45.65 27.7 -44.0 L27.3 -43.65 26.75 -43.5 25.75 -43.45 Q20.95 -43.15 15.5 -41.85 L-1.45 -41.1 Q-12.05 -41.8 -17.15 -43.45 L-17.25 -43.45 -17.8 -43.7 -17.85 -43.7 Q-20.55 -43.5 -21.05 -44.2 L-21.65 -44.95 -24.15 -46.0 -24.15 -45.95 -25.6 -46.55 -27.05 -46.9 -27.3 -46.95 -27.75 -47.2 M-15.4 -89.05 Q-12.85 -95.85 -10.95 -99.85 -9.3 -103.3 -8.1 -104.7 -6.6 -106.5 -5.55 -105.7 -2.75 -105.05 -1.4 -105.95 -0.15 -106.9 -0.3 -109.45 L-0.3 -109.55 Q0.85 -117.1 5.05 -119.9 8.55 -122.35 14.3 -121.35 8.2 -130.05 0.85 -130.7 L0.6 -130.75 0.35 -130.75 -2.25 -127.9 -2.8 -128.8 -1.05 -130.7 -4.2 -129.95 -4.5 -130.05 -8.25 -129.85 Q-10.15 -128.9 -10.95 -126.8 -11.5 -125.55 -11.4 -124.3 -15.8 -119.1 -19.75 -109.7 L-20.65 -107.55 Q-23.75 -91.3 -22.75 -83.65 L-23.1 -83.15 -23.5 -81.85 Q-24.85 -88.35 -22.55 -102.5 -29.25 -88.8 -28.4 -74.0 -27.6 -59.2 -28.0 -54.55 -28.45 -49.95 -26.55 -48.85 -25.2 -48.65 -23.35 -47.8 L-22.8 -78.5 -21.9 -77.9 Q-22.6 -63.7 -20.9 -46.8 L-20.0 -46.5 -18.3 -45.95 -18.15 -45.9 -18.2 -46.1 -18.4 -48.3 Q-19.85 -64.8 -19.1 -78.55 L-18.55 -85.65 Q-18.15 -84.9 -17.65 -84.7 L-17.85 -82.2 -17.0 -84.65 -16.35 -84.85 -18.1 -78.45 Q-18.85 -65.15 -17.45 -49.15 L-17.25 -47.0 -17.1 -45.55 -14.75 -44.2 Q-12.7 -42.95 -2.05 -42.6 L12.5 -43.3 14.9 -43.75 20.15 -44.8 26.3 -45.45 Q27.25 -46.6 24.55 -50.55 21.8 -54.6 25.55 -70.85 29.3 -87.15 23.75 -101.25 18.4 -114.8 14.95 -117.25 9.1 -121.5 5.6 -119.05 1.8 -116.4 0.7 -109.4 0.85 -106.25 -0.8 -105.1 -2.45 -103.9 -5.9 -104.75 L-6.1 -104.85 Q-6.55 -105.05 -7.65 -103.75 -8.75 -102.45 -11.85 -96.75 -13.55 -93.6 -15.25 -88.4 L-15.4 -89.05 M-7.8 -119.8 Q-12.85 -110.95 -15.45 -99.05 -13.85 -109.6 -8.1 -119.85 L-7.8 -119.8 M-14.75 -115.5 Q-13.05 -119.3 -11.0 -122.7 L-10.7 -122.0 Q-12.95 -119.05 -14.75 -115.5 M-22.45 -83.95 L-22.45 -83.9 -22.4 -84.8 -22.45 -83.95" fill="#605146" fill-rule="evenodd" stroke="none"/>
    <path d="M-2.25 -127.9 L0.35 -130.75 0.6 -130.75 0.85 -130.7 Q8.2 -130.05 14.3 -121.35 8.55 -122.35 5.05 -119.9 0.85 -117.1 -0.3 -109.55 L-0.3 -109.45 Q-0.15 -106.9 -1.4 -105.95 -2.75 -105.05 -5.55 -105.7 -6.6 -106.5 -8.1 -104.7 -9.3 -103.3 -10.95 -99.85 -12.85 -95.85 -15.4 -89.05 L-15.7 -89.9 -16.05 -90.45 Q-16.1 -94.8 -15.45 -99.05 -12.85 -110.95 -7.8 -119.8 -6.35 -119.5 -4.8 -120.3 -2.95 -121.2 -2.1 -123.25 -1.3 -125.4 -2.0 -127.35 L-2.25 -127.9 M-17.0 -84.65 L-17.85 -82.2 -17.65 -84.7 -17.15 -84.65 -17.0 -84.65 M-22.75 -83.65 Q-23.75 -91.3 -20.65 -107.55 L-19.75 -109.7 Q-15.8 -119.1 -11.4 -124.3 L-11.05 -122.8 -11.05 -122.85 -11.0 -122.7 Q-13.05 -119.3 -14.75 -115.5 -21.05 -103.35 -22.4 -84.8 L-22.45 -83.9 -22.75 -83.65" fill="#927558" fill-rule="evenodd" stroke="none"/>
    <path d="M-15.25 -88.4 Q-13.55 -93.6 -11.85 -96.75 -8.75 -102.45 -7.65 -103.75 -6.55 -105.05 -6.1 -104.85 L-5.9 -104.75 Q-2.45 -103.9 -0.8 -105.1 0.85 -106.25 0.7 -109.4 1.8 -116.4 5.6 -119.05 9.1 -121.5 14.95 -117.25 18.4 -114.8 23.75 -101.25 29.3 -87.15 25.55 -70.85 21.8 -54.6 24.55 -50.55 27.25 -46.6 26.3 -45.45 L20.15 -44.8 14.9 -43.75 12.5 -43.3 -2.05 -42.6 Q-12.7 -42.95 -14.75 -44.2 L-17.1 -45.55 -17.25 -47.0 -17.45 -49.15 Q-18.85 -65.15 -18.1 -78.45 L-16.35 -84.85 -15.7 -85.7 Q-15.25 -86.55 -15.25 -87.8 L-15.25 -88.4 M-22.8 -78.5 L-23.35 -47.8 Q-25.2 -48.65 -26.55 -48.85 -28.45 -49.95 -28.0 -54.55 -27.6 -59.2 -28.4 -74.0 -29.25 -88.8 -22.55 -102.5 -24.85 -88.35 -23.5 -81.85 L-23.55 -81.05 Q-23.55 -79.8 -23.1 -78.95 L-22.8 -78.5 M13.8 -77.4 Q9.35 -81.35 6.9 -88.25 4.4 -95.15 0.7 -99.4 -1.45 -103.0 -5.0 -101.55 -8.35 -100.2 -10.55 -95.65 -12.75 -91.0 -13.35 -88.8 -14.1 -86.0 -14.3 -80.65 -14.45 -76.6 -9.6 -75.65 L-2.6 -75.05 Q-0.4 -75.4 0.85 -74.05 2.05 -72.7 -5.3 -72.35 -9.25 -72.15 -16.05 -72.4 -17.5 -72.3 -17.65 -71.1 -17.75 -69.95 -16.6 -68.5 -13.65 -64.75 -7.8 -64.4 -4.8 -64.2 -4.65 -63.65 -4.5 -63.15 -6.4 -62.5 -10.9 -60.95 -15.3 -61.15 -18.65 -61.3 -15.65 -59.4 L-8.3 -55.4 Q-5.2 -53.7 -8.75 -54.45 L-15.8 -56.15 Q-18.35 -56.65 -16.5 -53.65 -14.95 -51.05 -11.8 -48.15 -9.6 -46.1 0.4 -46.45 L9.95 -47.15 Q14.2 -48.05 11.75 -50.5 9.25 -52.95 4.45 -53.15 2.15 -53.25 2.1 -53.85 2.05 -54.35 3.65 -55.1 7.55 -56.9 11.7 -56.9 15.6 -56.9 12.9 -61.1 10.2 -65.25 6.2 -65.65 1.95 -66.05 1.25 -67.4 0.5 -68.8 5.45 -69.15 9.8 -69.45 14.05 -71.45 18.25 -73.5 13.8 -77.4" fill="#c1ae9b" fill-rule="evenodd" stroke="none"/>
    <path d="M-18.55 -85.65 L-19.1 -78.55 Q-19.85 -64.8 -18.4 -48.3 L-18.2 -46.1 -18.15 -45.9 -18.3 -45.95 -20.0 -46.5 -20.9 -46.8 Q-22.6 -63.7 -21.9 -77.9 L-21.65 -77.9 Q-20.75 -77.85 -20.2 -78.95 -19.75 -79.8 -19.75 -81.05 -19.75 -82.3 -20.2 -83.15 L-20.45 -83.6 Q-19.25 -102.3 -13.0 -114.45 -18.1 -102.75 -18.05 -90.6 L-18.6 -89.9 Q-19.05 -89.05 -19.05 -87.8 -19.05 -86.55 -18.6 -85.7 L-18.55 -85.65 M-4.2 -129.95 L-1.05 -130.7 -2.8 -128.8 Q-3.35 -129.55 -4.2 -129.95 M13.8 -77.4 Q18.25 -73.5 14.05 -71.45 9.8 -69.45 5.45 -69.15 0.5 -68.8 1.25 -67.4 1.95 -66.05 6.2 -65.65 10.2 -65.25 12.9 -61.1 15.6 -56.9 11.7 -56.9 7.55 -56.9 3.65 -55.1 2.05 -54.35 2.1 -53.85 2.15 -53.25 4.45 -53.15 9.25 -52.95 11.75 -50.5 14.2 -48.05 9.95 -47.15 L0.4 -46.45 Q-9.6 -46.1 -11.8 -48.15 -14.95 -51.05 -16.5 -53.65 -18.35 -56.65 -15.8 -56.15 L-8.75 -54.45 Q-5.2 -53.7 -8.3 -55.4 L-15.65 -59.4 Q-18.65 -61.3 -15.3 -61.15 -10.9 -60.95 -6.4 -62.5 -4.5 -63.15 -4.65 -63.65 -4.8 -64.2 -7.8 -64.4 -13.65 -64.75 -16.6 -68.5 -17.75 -69.95 -17.65 -71.1 -17.5 -72.3 -16.05 -72.4 -9.25 -72.15 -5.3 -72.35 2.05 -72.7 0.85 -74.05 -0.4 -75.4 -2.6 -75.05 L-9.6 -75.65 Q-14.45 -76.6 -14.3 -80.65 -14.1 -86.0 -13.35 -88.8 -12.75 -91.0 -10.55 -95.65 -8.35 -100.2 -5.0 -101.55 -1.45 -103.0 0.7 -99.4 4.4 -95.15 6.9 -88.25 9.35 -81.35 13.8 -77.4" fill="#ecdec6" fill-rule="evenodd" stroke="none"/>
    <path d="M-15.4 -89.05 L-15.25 -88.4 -15.25 -87.8 Q-15.25 -86.55 -15.7 -85.7 L-16.35 -84.85 -17.0 -84.65 -17.15 -84.65 -17.65 -84.7 Q-18.15 -84.9 -18.55 -85.65 L-18.6 -85.7 Q-19.05 -86.55 -19.05 -87.8 -19.05 -89.05 -18.6 -89.9 L-18.05 -90.6 -17.95 -90.7 -17.15 -90.95 -16.9 -90.95 Q-16.45 -90.85 -16.05 -90.45 L-15.7 -89.9 -15.4 -89.05 M-21.9 -77.9 L-22.8 -78.5 -23.1 -78.95 Q-23.55 -79.8 -23.55 -81.05 L-23.5 -81.85 -23.1 -83.15 -22.75 -83.65 -22.45 -83.9 -22.45 -83.95 -21.65 -84.2 -21.45 -84.2 -20.45 -83.6 -20.2 -83.15 Q-19.75 -82.3 -19.75 -81.05 -19.75 -79.8 -20.2 -78.95 -20.75 -77.85 -21.65 -77.9 L-21.9 -77.9 M-11.4 -124.3 Q-11.5 -125.55 -10.95 -126.8 -10.15 -128.9 -8.25 -129.85 L-4.5 -130.05 -4.2 -129.95 Q-3.35 -129.55 -2.8 -128.8 L-2.25 -127.9 -2.0 -127.35 Q-1.3 -125.4 -2.1 -123.25 -2.95 -121.2 -4.8 -120.3 -6.35 -119.5 -7.8 -119.8 L-8.1 -119.85 -8.55 -120.0 -8.55 -120.05 -8.8 -120.15 Q-9.9 -120.7 -10.5 -121.65 L-10.7 -122.0 -11.0 -122.7 -11.05 -122.85 -11.05 -122.8 -11.4 -124.3 M-10.3 -125.55 L-10.3 -123.9 -10.1 -123.15 -10.05 -122.9 -9.9 -122.65 Q-9.4 -121.55 -8.3 -121.0 L-8.15 -120.95 -7.6 -120.8 -7.25 -120.75 Q-6.3 -120.65 -5.25 -121.2 -3.75 -121.9 -3.05 -123.6 -2.4 -125.4 -2.95 -127.0 L-2.95 -127.05 -3.45 -128.0 Q-4.0 -128.75 -4.9 -129.1 L-4.85 -129.1 -5.3 -129.25 Q-6.55 -129.6 -7.8 -128.95 -9.35 -128.2 -10.0 -126.45 L-10.3 -125.55 M-17.05 -89.9 L-17.15 -89.95 -17.7 -89.45 -18.0 -88.25 -18.05 -87.8 Q-18.05 -86.85 -17.7 -86.15 L-17.5 -85.9 -17.15 -85.65 -16.6 -86.15 Q-16.25 -86.85 -16.25 -87.8 L-16.25 -88.15 Q-16.3 -88.9 -16.6 -89.45 L-17.05 -89.9 M-22.2 -82.7 L-22.5 -81.45 -22.55 -81.05 Q-22.55 -80.1 -22.2 -79.4 L-21.8 -78.95 -21.65 -78.9 Q-21.35 -78.95 -21.1 -79.4 -20.75 -80.1 -20.75 -81.05 L-20.75 -81.35 Q-20.8 -82.15 -21.1 -82.7 L-21.55 -83.15 -21.65 -83.2 -22.2 -82.7" fill="#684228" fill-rule="evenodd" stroke="none"/>
  </g>
</svg>
