<?xml version="1.0" encoding="UTF-8" standalone="no"?>
<svg xmlns:ffdec="https://www.free-decompiler.com/flash" xmlns:xlink="http://www.w3.org/1999/xlink" ffdec:objectType="shape" height="26.95px" width="46.55px" xmlns="http://www.w3.org/2000/svg">
  <g transform="matrix(1.0, 0.0, 0.0, 1.0, 25.8, 17.65)">
    <path d="M6.75 6.4 Q5.55 5.25 5.55 3.6 5.55 2.7 5.95 1.95 6.2 1.35 6.75 0.85 7.2 0.45 7.65 0.2 L9.75 -0.3 Q11.45 -0.3 12.7 0.85 13.95 1.95 13.95 3.6 13.95 5.25 12.7 6.4 11.45 7.5 9.75 7.55 8.0 7.5 6.75 6.4 M-5.05 4.15 Q-5.05 5.55 -6.15 6.55 -7.2 7.55 -8.7 7.55 -10.2 7.55 -11.25 6.55 -12.3 5.55 -12.3 4.15 -12.35 3.35 -12.0 2.7 L-11.25 1.75 -10.5 1.2 Q-9.7 0.75 -8.7 0.75 -7.2 0.75 -6.15 1.75 -5.05 2.7 -5.05 4.15 Z" fill="none" stroke="#000000" stroke-linecap="round" stroke-linejoin="round" stroke-width="3.5"/>
    <path d="M3.5 -13.7 L3.0 -13.9 2.75 -14.4 2.9 -14.9 Q3.95 -16.4 4.55 -16.7 6.25 -17.8 8.8 -17.65 12.2 -17.6 16.25 -14.0 20.45 -10.15 20.75 -6.25 20.9 -3.7 20.1 -2.5 19.2 -1.05 17.25 -1.1 L17.2 -1.1 Q15.85 -1.1 14.4 -3.55 L14.35 -3.6 12.05 -8.1 Q9.75 -12.7 7.55 -13.9 L7.55 -13.95 6.3 -14.25 6.25 -14.25 4.0 -13.9 Q3.8 -13.7 3.5 -13.7 M6.3 -15.8 Q7.3 -15.8 8.25 -15.25 L8.25 -15.3 Q10.85 -14.0 13.4 -8.8 L15.7 -4.4 15.7 -4.35 Q16.6 -2.8 17.3 -2.65 18.3 -2.65 18.8 -3.3 19.3 -4.25 19.2 -6.15 18.9 -9.5 15.2 -12.85 11.7 -16.05 8.75 -16.15 L6.25 -15.8 6.3 -15.8 M-25.1 -1.6 Q-25.95 -2.8 -25.75 -5.35 -25.5 -9.25 -21.25 -13.1 -17.25 -16.7 -13.8 -16.75 -11.3 -16.9 -9.6 -15.8 -9.0 -15.5 -7.9 -14.0 L-7.8 -13.5 -8.05 -13.0 Q-8.25 -12.8 -8.55 -12.8 L-9.05 -13.0 -11.3 -13.35 -12.55 -13.05 -12.6 -13.0 Q-14.8 -11.8 -17.05 -7.2 L-19.4 -2.7 -19.4 -2.65 Q-20.9 -0.2 -22.25 -0.2 -24.25 -0.15 -25.1 -1.6 M-22.35 -1.75 Q-21.65 -1.9 -20.7 -3.45 L-20.7 -3.5 -18.45 -7.9 Q-15.9 -13.1 -13.3 -14.4 L-13.3 -14.35 Q-12.35 -14.9 -11.35 -14.9 L-11.25 -14.9 -13.75 -15.25 Q-16.75 -15.15 -20.25 -11.95 -23.95 -8.6 -24.2 -5.25 -24.35 -3.35 -23.8 -2.4 -23.35 -1.75 -22.35 -1.75" fill="#000000" fill-rule="evenodd" stroke="none"/>
    <path d="M6.3 -15.8 L6.25 -15.8 8.75 -16.15 Q11.7 -16.05 15.2 -12.85 18.9 -9.5 19.2 -6.15 19.3 -4.25 18.8 -3.3 18.3 -2.65 17.3 -2.65 16.6 -2.8 15.7 -4.35 L15.7 -4.4 13.4 -8.8 Q10.85 -14.0 8.25 -15.3 L8.25 -15.25 Q7.3 -15.8 6.3 -15.8 M-22.35 -1.75 Q-23.35 -1.75 -23.8 -2.4 -24.35 -3.35 -24.2 -5.25 -23.95 -8.6 -20.25 -11.95 -16.75 -15.15 -13.75 -15.25 L-11.25 -14.9 -11.35 -14.9 Q-12.35 -14.9 -13.3 -14.35 L-13.3 -14.4 Q-15.9 -13.1 -18.45 -7.9 L-20.7 -3.5 -20.7 -3.45 Q-21.65 -1.9 -22.35 -1.75" fill="#3a281b" fill-rule="evenodd" stroke="none"/>
  </g>
</svg>
