<?xml version="1.0" encoding="UTF-8" standalone="no"?>
<svg xmlns:ffdec="https://www.free-decompiler.com/flash" xmlns:xlink="http://www.w3.org/1999/xlink" ffdec:objectType="shape" height="34.6px" width="49.2px" xmlns="http://www.w3.org/2000/svg">
  <g transform="matrix(1.0, 0.0, 0.0, 1.0, 27.6, 23.9)">
    <path d="M7.6 -4.65 Q8.65 -5.55 9.95 -5.55 11.95 -5.55 13.4 -3.45 14.8 -1.35 14.8 1.7 14.8 4.7 13.4 6.8 11.95 8.9 9.95 8.9 7.95 8.9 6.55 6.8 5.15 4.7 5.15 1.7 5.15 0.0 5.6 -1.4 5.9 -2.5 6.55 -3.45 L7.6 -4.65 M-11.75 -2.8 Q-10.8 -3.6 -9.65 -3.6 -7.95 -3.6 -6.75 -1.75 -5.5 0.05 -5.45 2.7 -5.5 5.3 -6.75 7.1 -7.95 8.95 -9.65 8.95 -11.4 8.95 -12.65 7.1 -13.85 5.3 -13.85 2.7 -13.85 1.25 -13.45 0.05 L-12.65 -1.75 -11.75 -2.8 Z" fill="none" stroke="#000000" stroke-linecap="round" stroke-linejoin="round" stroke-width="3.5"/>
    <path d="M16.05 -19.1 Q19.75 -15.75 20.05 -12.4 20.15 -10.5 19.65 -9.55 19.15 -8.9 18.15 -8.9 17.45 -9.05 16.55 -10.6 L16.55 -10.65 14.25 -15.05 Q11.7 -20.25 9.1 -21.55 L9.1 -21.5 Q8.15 -22.05 7.15 -22.05 L7.1 -22.05 9.6 -22.4 Q12.55 -22.3 16.05 -19.1 M-22.5 -9.7 Q-23.45 -8.15 -24.15 -8.0 -25.15 -8.0 -25.6 -8.65 -26.15 -9.6 -26.0 -11.5 -25.75 -14.85 -22.05 -18.2 -18.55 -21.4 -15.55 -21.5 -14.15 -21.6 -13.05 -21.15 L-13.15 -21.15 Q-14.15 -21.15 -15.1 -20.6 L-15.1 -20.65 Q-17.7 -19.35 -20.25 -14.15 L-22.5 -9.75 -22.5 -9.7" fill="#3a281b" fill-rule="evenodd" stroke="none"/>
    <path d="M16.05 -19.1 Q12.55 -22.3 9.6 -22.4 L7.1 -22.05 7.15 -22.05 Q8.15 -22.05 9.1 -21.5 L9.1 -21.55 Q11.7 -20.25 14.25 -15.05 L16.55 -10.65 16.55 -10.6 Q17.45 -9.05 18.15 -8.9 19.15 -8.9 19.65 -9.55 20.15 -10.5 20.05 -12.4 19.75 -15.75 16.05 -19.1 M9.65 -23.9 Q13.05 -23.85 17.1 -20.25 21.3 -16.4 21.6 -12.5 21.75 -9.95 20.95 -8.75 20.05 -7.3 18.1 -7.35 L18.05 -7.35 Q16.7 -7.35 15.25 -9.8 L15.2 -9.85 12.9 -14.35 Q10.6 -18.95 8.4 -20.15 L8.4 -20.2 7.15 -20.5 7.1 -20.5 4.85 -20.15 4.35 -19.95 Q4.05 -19.95 3.85 -20.15 L3.6 -20.65 3.75 -21.15 Q4.8 -22.65 5.4 -22.95 7.1 -24.05 9.65 -23.9 M-21.2 -8.95 L-21.2 -8.9 Q-22.7 -6.45 -24.05 -6.45 -26.05 -6.4 -26.9 -7.85 -27.75 -9.05 -27.55 -11.6 -27.3 -15.5 -23.05 -19.35 -19.05 -22.95 -15.6 -23.0 -13.1 -23.15 -11.4 -22.05 -10.8 -21.75 -9.7 -20.25 L-9.6 -19.75 -9.85 -19.25 Q-10.05 -19.05 -10.35 -19.05 L-10.85 -19.25 Q-11.55 -19.75 -13.1 -19.6 L-14.35 -19.3 -14.4 -19.25 Q-16.6 -18.05 -18.85 -13.45 L-21.2 -8.95 M-22.5 -9.7 L-22.5 -9.75 -20.25 -14.15 Q-17.7 -19.35 -15.1 -20.65 L-15.1 -20.6 Q-14.15 -21.15 -13.15 -21.15 L-13.05 -21.15 Q-14.15 -21.6 -15.55 -21.5 -18.55 -21.4 -22.05 -18.2 -25.75 -14.85 -26.0 -11.5 -26.15 -9.6 -25.6 -8.65 -25.15 -8.0 -24.15 -8.0 -23.45 -8.15 -22.5 -9.7" fill="#000000" fill-rule="evenodd" stroke="none"/>
  </g>
</svg>
