<?xml version="1.0" encoding="UTF-8" standalone="no"?>
<svg xmlns:ffdec="https://www.free-decompiler.com/flash" xmlns:xlink="http://www.w3.org/1999/xlink" ffdec:objectType="shape" height="74.95px" width="80.65px" xmlns="http://www.w3.org/2000/svg">
  <g transform="matrix(1.0, 0.0, 0.0, 1.0, 16.7, 23.3)">
    <path d="M-12.3 2.9 Q-15.6 -0.5 -16.5 -6.4 -17.65 -13.1 -12.45 -19.05 -7.4 -25.15 4.7 -22.5 16.15 -20.1 29.8 -16.1 43.65 -12.0 52.4 -2.75 61.15 6.5 63.15 18.3 65.1 29.95 62.3 40.45 60.25 48.0 53.75 51.65 58.0 48.55 60.35 39.95 63.05 29.85 60.5 18.95 57.95 8.05 49.4 -0.65 40.85 -9.45 28.3 -13.8 15.65 -18.2 3.7 -20.7 -8.25 -23.25 -12.15 -17.95 -16.1 -12.65 -14.55 -6.7 -13.6 -0.65 -12.65 1.85 L-12.3 2.9" fill="#000000" fill-rule="evenodd" stroke="none"/>
    <path d="M17.1 -3.75 Q12.8 -6.85 14.75 -10.0 10.9 -8.9 9.75 -5.05 6.05 -9.15 6.25 -13.25 1.3 -10.9 0.55 -6.05 -1.8 -7.4 -3.4 -9.55 -5.9 -12.95 -6.0 -17.25 L-7.6 -15.35 Q-13.35 -7.3 -7.75 1.25 L-4.25 -1.0 Q-1.3 1.25 1.95 -0.45 L3.35 -1.25 Q10.5 3.05 14.0 -2.0 13.6 -0.7 18.1 0.55 20.45 -2.4 22.8 -1.45 26.25 3.8 31.0 2.0 L30.25 3.75 Q33.75 7.6 39.0 7.75 43.55 14.0 38.6 17.05 43.2 17.25 47.75 21.75 49.8 26.25 53.5 36.25 51.75 29.95 54.8 24.2 L52.5 22.65 Q49.55 20.5 47.8 17.4 L54.0 14.75 49.45 14.3 Q45.75 13.15 43.0 10.25 42.35 7.55 47.4 5.75 41.95 6.65 38.4 4.05 34.85 1.4 37.25 -2.75 31.6 -4.25 27.8 -0.25 27.3 -1.65 26.9 -3.95 26.5 -6.3 31.0 -9.0 21.7 -10.15 17.1 -3.75 M-12.3 2.9 L-12.65 1.85 Q-13.6 -0.65 -14.55 -6.7 -16.1 -12.65 -12.15 -17.95 -8.25 -23.25 3.7 -20.7 15.65 -18.2 28.3 -13.8 40.85 -9.45 49.4 -0.65 57.95 8.05 60.5 18.95 63.05 29.85 60.35 39.95 58.0 48.55 53.75 51.65 53.7 43.75 51.75 37.15 50.4 32.7 48.25 28.85 42.45 18.6 34.25 18.6 L38.5 11.55 Q25.8 1.8 7.55 3.25 -4.8 4.2 -10.15 3.4 L-12.3 2.9" fill="#3a281b" fill-rule="evenodd" stroke="none"/>
    <path d="M17.1 -3.75 Q21.7 -10.15 31.0 -9.0 26.5 -6.3 26.9 -3.95 27.3 -1.65 27.8 -0.25 31.6 -4.25 37.25 -2.75 34.85 1.4 38.4 4.05 41.95 6.65 47.4 5.75 42.35 7.55 43.0 10.25 45.75 13.15 49.45 14.3 L54.0 14.75 47.8 17.4 Q49.55 20.5 52.5 22.65 L54.8 24.2 Q51.75 29.95 53.5 36.25 49.8 26.25 47.75 21.75 43.2 17.25 38.6 17.05 43.55 14.0 39.0 7.75 33.75 7.6 30.25 3.75 L31.0 2.0 Q26.25 3.8 22.8 -1.45 20.45 -2.4 18.1 0.55 13.6 -0.7 14.0 -2.0 10.5 3.05 3.35 -1.25 L1.95 -0.45 Q-1.3 1.25 -4.25 -1.0 L-7.75 1.25 Q-13.35 -7.3 -7.6 -15.35 L-6.0 -17.25 Q-5.9 -12.95 -3.4 -9.55 -1.8 -7.4 0.55 -6.05 1.3 -10.9 6.25 -13.25 6.05 -9.15 9.75 -5.05 10.9 -8.9 14.75 -10.0 12.8 -6.85 17.1 -3.75" fill="#442f20" fill-rule="evenodd" stroke="none"/>
    <path d="M51.75 37.15 Q40.1 23.55 29.45 21.9 32.55 16.8 33.7 12.4 26.4 8.3 16.55 7.7 1.85 10.65 -10.15 3.4 -4.8 4.2 7.55 3.25 25.8 1.8 38.5 11.55 L34.25 18.6 Q42.45 18.6 48.25 28.85 50.4 32.7 51.75 37.15" fill="#c18753" fill-rule="evenodd" stroke="none"/>
  </g>
</svg>
