<?xml version="1.0" encoding="UTF-8" standalone="no"?>
<svg xmlns:ffdec="https://www.free-decompiler.com/flash" xmlns:xlink="http://www.w3.org/1999/xlink" ffdec:objectType="shape" height="37.75px" width="32.15px" xmlns="http://www.w3.org/2000/svg">
  <g transform="matrix(1.0, 0.0, 0.0, 1.0, 9.6, 24.85)">
    <path d="M4.6 -1.4 L4.4 -1.45 4.6 -1.4 M4.55 -0.85 L4.55 -0.8 4.55 -0.85 M9.2 -0.4 L9.4 -0.3 9.2 -0.4" fill="#333333" fill-rule="evenodd" stroke="none"/>
    <path d="M2.2 -5.8 L2.2 -4.85 2.05 -4.8 1.75 -4.6 1.7 -4.2 1.9 -3.9 2.15 -3.75 Q-0.25 -4.9 -2.7 -3.75 L-2.1 -4.3 -2.15 -4.35 Q-1.55 -4.8 -0.35 -5.2 L2.2 -5.8 M13.35 -4.15 L13.45 -5.2 13.5 -5.2 Q15.8 -4.45 17.0 -3.75 15.8 -2.55 13.65 -1.8 L10.45 -0.75 Q12.85 -2.05 12.35 -2.95 L13.35 -3.15 13.7 -3.35 13.75 -3.75 13.55 -4.05 13.35 -4.15 M9.8 -0.25 Q11.35 0.0 13.95 -0.85 L17.7 -2.0 Q20.25 0.9 20.55 4.45 17.75 4.65 15.05 5.7 17.25 1.4 9.8 -0.25 M-1.25 -1.75 L-4.2 1.75 -8.2 7.75 Q-8.85 4.1 -7.8 0.5 L-3.35 -3.1 -1.2 -1.85 -1.25 -1.75" fill="#c1ae9b" fill-rule="evenodd" stroke="none"/>
    <path d="M2.15 -3.75 L3.05 -3.15 3.65 -2.85 Q5.05 -2.25 7.6 -2.4 L12.35 -2.95 Q12.85 -2.05 10.45 -0.75 L9.2 -0.4 9.4 -0.3 9.8 -0.25 Q17.25 1.4 15.05 5.7 10.5 7.4 6.2 11.45 L4.55 -0.8 Q1.75 -0.6 1.1 -0.85 L-1.15 -2.05 -1.05 -2.4 -1.15 -2.05 -2.7 -3.75 Q-0.25 -4.9 2.15 -3.75 M4.55 -0.85 L4.55 -0.8 4.55 -0.85 M4.6 -1.4 L4.4 -1.45 4.6 -1.4 M9.2 -0.4 L9.4 -0.3 9.2 -0.4" fill="#ecdec6" fill-rule="evenodd" stroke="none"/>
    <path d="M2.3 -7.85 L2.2 -5.8 -0.35 -5.2 Q-1.55 -4.8 -2.15 -4.35 L-2.1 -4.3 -2.7 -3.75 -1.15 -2.05 -1.05 -2.4 -1.15 -2.05 1.1 -0.85 Q1.75 -0.6 4.55 -0.8 L6.2 11.45 Q10.5 7.4 15.05 5.7 17.75 4.65 20.55 4.45 20.25 0.9 17.7 -2.0 L13.95 -0.85 Q11.35 0.0 9.8 -0.25 L9.4 -0.3 9.2 -0.4 10.45 -0.75 13.65 -1.8 Q15.8 -2.55 17.0 -3.75 15.8 -4.45 13.5 -5.2 L13.45 -5.2 13.7 -7.2 14.15 -7.1 Q17.15 -6.1 18.5 -5.15 L18.9 -4.8 Q22.7 0.6 22.55 5.45 L22.55 6.35 21.6 6.4 Q13.45 6.75 6.95 11.95 L5.7 12.9 4.35 7.25 2.75 0.5 2.5 0.5 2.5 0.4 2.1 0.35 0.0 -0.1 -2.65 3.05 -2.7 3.05 -9.2 10.6 Q-10.0 5.15 -9.2 -0.25 L-4.35 -4.95 Q-3.75 -6.15 -1.0 -7.1 L2.3 -7.85 M2.2 -4.85 L2.4 -4.75 3.6 -4.0 3.85 -3.85 3.95 -3.8 4.0 -3.8 Q5.25 -3.25 7.5 -3.4 L7.55 -3.4 12.2 -3.95 12.25 -3.95 13.15 -4.15 13.35 -4.15 13.55 -4.05 13.75 -3.75 13.7 -3.35 13.35 -3.15 12.35 -2.95 7.6 -2.4 Q5.05 -2.25 3.65 -2.85 L3.05 -3.15 2.15 -3.75 1.9 -3.9 1.7 -4.2 1.75 -4.6 2.05 -4.8 2.2 -4.85 M-1.25 -1.75 L-1.2 -1.85 -3.35 -3.1 -7.8 0.5 Q-8.85 4.1 -8.2 7.75 L-4.2 1.75 -1.25 -1.75" fill="#605146" fill-rule="evenodd" stroke="none"/>
    <path d="M3.85 -3.85 L4.05 -6.05 4.2 -8.05 4.35 -12.3 Q9.6 -12.35 12.4 -8.25 L12.4 -7.55 12.3 -5.5 12.25 -3.95 12.2 -3.95 7.55 -3.4 7.5 -3.4 Q5.25 -3.25 4.0 -3.8 L3.95 -3.8 3.85 -3.85" fill="#c18753" fill-rule="evenodd" stroke="none"/>
    <path d="M4.35 -12.3 L4.1 -21.95 12.8 -22.75 12.4 -8.25 Q9.6 -12.35 4.35 -12.3" fill="#a76d4b" fill-rule="evenodd" stroke="none"/>
    <path d="M2.3 -7.85 Q2.5 -15.95 2.05 -22.75 2.05 -23.2 2.3 -23.5 2.55 -23.8 2.95 -23.85 L13.7 -24.85 14.25 -24.75 14.65 -24.35 14.8 -23.8 Q14.65 -15.85 13.7 -7.2 L13.45 -5.2 13.35 -4.15 13.15 -4.15 12.25 -3.95 12.3 -5.5 12.4 -7.55 12.4 -8.25 12.8 -22.75 4.1 -21.95 4.35 -12.3 4.2 -8.05 4.05 -6.05 3.85 -3.85 3.6 -4.0 2.4 -4.75 2.2 -4.85 2.2 -5.8 2.3 -7.85" fill="#4b3121" fill-rule="evenodd" stroke="none"/>
  </g>
</svg>
