<?xml version="1.0" encoding="UTF-8" standalone="no"?>
<svg xmlns:ffdec="https://www.free-decompiler.com/flash" xmlns:xlink="http://www.w3.org/1999/xlink" ffdec:objectType="shape" height="17.3px" width="20.25px" xmlns="http://www.w3.org/2000/svg">
  <g transform="matrix(1.0, 0.0, 0.0, 1.0, 9.55, 0.75)">
    <path d="M-0.75 1.15 L1.05 0.65 4.85 0.8 Q6.8 1.45 8.6 2.5 12.05 6.35 8.55 10.7 L8.15 10.1 7.05 13.05 5.25 8.75 Q4.9 8.9 4.6 9.1 1.6 10.65 0.0 15.55 L-1.85 10.8 -4.95 14.75 -5.7 11.65 -8.85 15.1 Q-8.1 9.1 -5.9 5.55 -4.0 2.45 -0.75 1.15" fill="#3a281b" fill-rule="evenodd" stroke="none"/>
    <path d="M-1.2 -0.3 L-1.15 -0.3 5.75 0.0 9.35 1.15 9.75 1.25 9.85 1.6 Q11.7 6.25 9.5 10.85 L9.45 10.85 9.45 10.9 7.05 14.7 4.7 10.8 Q2.05 12.4 0.75 15.3 L0.2 16.55 -2.05 13.2 -4.85 16.3 -6.15 13.85 -9.35 16.15 -9.45 14.85 Q-9.95 9.3 -7.2 4.75 -5.0 1.2 -1.2 -0.3 M-0.75 1.15 Q-4.0 2.45 -5.9 5.55 -8.1 9.1 -8.85 15.1 L-5.7 11.65 -4.95 14.75 -1.85 10.8 0.0 15.55 Q1.6 10.65 4.6 9.1 4.9 8.9 5.25 8.75 L7.05 13.05 8.15 10.1 8.55 10.7 Q12.05 6.35 8.6 2.5 6.8 1.45 4.85 0.8 L1.05 0.65 -0.75 1.15" fill="#000000" fill-rule="evenodd" stroke="none"/>
  </g>
</svg>
