<?xml version="1.0" encoding="UTF-8" standalone="no"?>
<svg xmlns:ffdec="https://www.free-decompiler.com/flash" xmlns:xlink="http://www.w3.org/1999/xlink" ffdec:objectType="shape" height="30.85px" width="41.2px" xmlns="http://www.w3.org/2000/svg">
  <g transform="matrix(1.0, 0.0, 0.0, 1.0, 19.05, 15.7)">
    <path d="M-11.45 2.1 Q-10.6 2.75 -9.6 3.95 L-9.4 3.95 Q-7.45 4.8 -2.55 4.8 2.0 4.8 7.6 3.15 11.0 2.1 13.75 0.3 15.0 -0.55 17.85 -3.3 19.15 -4.15 20.1 -5.55 L19.7 -11.05 19.6 -11.85 Q12.6 -0.45 -1.0 1.9 L-1.05 1.9 Q-6.35 2.75 -11.45 2.05 L-12.8 1.85 -16.6 1.0 Q-15.25 2.55 -14.2 4.35 L-14.15 4.35 Q-9.95 11.6 -2.8 12.85 L-2.8 12.8 Q5.95 14.1 12.5 10.25 L13.5 9.65 13.25 9.8 13.2 9.5 13.2 8.25 Q13.05 0.95 19.55 0.95 L20.0 1.0 20.15 -3.85 Q18.7 -1.75 15.2 0.7 7.75 5.95 -2.9 5.95 -6.9 5.95 -9.0 5.1 L-9.5 5.25 -14.6 1.5 -12.8 1.9 -11.45 2.1 M19.1 -15.05 Q19.3 -15.4 19.7 -15.55 L20.05 -15.6 20.1 -15.6 20.25 -15.7 21.7 -8.95 Q22.55 -3.75 21.75 3.75 L21.5 4.35 21.3 4.75 Q12.25 17.05 -3.1 14.8 -11.15 13.5 -15.9 5.35 -17.95 0.7 -19.05 -1.15 L-18.65 -1.5 -17.9 -1.55 Q-9.9 1.25 -1.35 -0.05 12.6 -2.45 19.1 -15.05 M19.85 2.6 L19.9 2.1 Q16.6 1.95 15.6 3.25 L14.8 5.8 Q14.4 6.65 14.15 9.2 17.2 6.95 19.7 3.55 L19.75 3.5 19.85 2.6" fill="#463624" fill-rule="evenodd" stroke="none"/>
    <path d="M-11.45 2.05 Q-6.35 2.75 -1.05 1.9 L-1.0 1.9 Q12.6 -0.45 19.6 -11.85 L19.7 -11.05 20.1 -5.55 Q19.15 -4.15 17.85 -3.3 15.0 -0.55 13.75 0.3 11.0 2.1 7.6 3.15 2.0 4.8 -2.55 4.8 -7.45 4.8 -9.4 3.95 L-9.6 3.95 Q-10.6 2.75 -11.45 2.1 L-11.45 2.05" fill="#e5e5e5" fill-rule="evenodd" stroke="none"/>
    <path d="M-11.45 2.1 L-12.8 1.9 -14.6 1.5 -9.5 5.25 -9.0 5.1 Q-6.9 5.95 -2.9 5.95 7.75 5.95 15.2 0.7 18.7 -1.75 20.15 -3.85 L20.0 1.0 19.55 0.95 Q13.05 0.95 13.2 8.25 L13.2 9.5 13.25 9.8 13.5 9.65 12.5 10.25 Q5.95 14.1 -2.8 12.8 L-2.8 12.85 Q-9.95 11.6 -14.15 4.35 L-14.2 4.35 Q-15.25 2.55 -16.6 1.0 L-12.8 1.85 -11.45 2.05 -11.45 2.1" fill="#57352d" fill-rule="evenodd" stroke="none"/>
    <path d="M19.85 2.6 L19.75 3.5 19.7 3.55 Q17.2 6.95 14.15 9.2 14.4 6.65 14.8 5.8 L15.6 3.25 Q16.6 1.95 19.9 2.1 L19.85 2.6" fill="#b45f50" fill-rule="evenodd" stroke="none"/>
  </g>
</svg>
