<?xml version="1.0" encoding="UTF-8" standalone="no"?>
<svg xmlns:ffdec="https://www.free-decompiler.com/flash" xmlns:xlink="http://www.w3.org/1999/xlink" ffdec:objectType="shape" height="25.9px" width="35.65px" xmlns="http://www.w3.org/2000/svg">
  <g transform="matrix(1.0, 0.0, 0.0, 1.0, 12.3, 11.4)">
    <path d="M-4.55 -1.65 L-0.8 -4.25 Q7.05 -9.35 12.5 -9.35 17.8 -9.35 20.4 -5.05 L21.45 -2.95 Q21.15 -3.05 20.95 -3.25 20.35 -3.9 17.75 -3.9 L16.25 -3.85 Q1.25 1.75 -0.25 1.75 -0.75 1.75 -2.65 -0.05 L-4.55 -1.65" fill="#e5e5e5" fill-rule="evenodd" stroke="none"/>
    <path d="M-4.55 -1.65 L-2.65 -0.05 Q-0.75 1.75 -0.25 1.75 1.25 1.75 16.25 -3.85 L17.75 -3.9 Q20.35 -3.9 20.95 -3.25 21.15 -3.05 21.45 -2.95 L20.4 -5.05 Q17.8 -9.35 12.5 -9.35 7.05 -9.35 -0.8 -4.25 L-4.55 -1.65 -5.05 -1.3 -4.55 -1.65 M21.95 -1.4 L21.85 -1.4 Q20.55 -1.4 20.15 -2.0 19.8 -2.6 17.55 -2.6 13.9 -2.6 7.3 0.15 0.75 2.9 -0.1 2.9 -1.95 2.9 -5.4 -1.0 L-6.05 -0.45 -8.9 2.15 Q-6.45 3.95 -6.1 7.25 -5.95 9.15 -6.05 12.9 L0.5 13.15 Q6.95 13.15 11.5 12.05 L11.55 12.05 12.35 11.8 11.45 12.05 11.4 11.8 Q11.4 11.35 12.15 10.95 12.9 10.6 12.9 10.25 L11.5 9.5 Q8.75 12.0 6.25 12.0 2.4 12.0 2.4 9.05 2.4 7.25 4.0 5.0 6.5 1.55 11.25 1.55 15.8 1.55 18.5 3.9 20.3 5.45 20.5 6.8 22.75 3.7 22.1 0.15 L21.95 -1.35 21.85 -1.85 21.95 -1.4 M21.8 -5.85 Q23.1 -3.05 23.35 0.0 23.35 5.15 21.25 7.9 16.15 14.5 0.4 14.5 L-7.45 14.45 Q-7.7 14.4 -7.6 14.2 -7.4 13.8 -7.55 13.5 L-7.4 12.15 -7.3 9.65 Q-7.3 3.15 -10.2 3.15 -10.75 3.15 -11.75 4.0 -12.3 3.8 -12.3 3.2 4.4 -11.4 14.1 -11.4 19.2 -11.4 21.8 -5.85 M3.85 7.55 L3.5 8.8 Q3.5 10.65 5.65 10.65 8.7 10.65 10.95 8.55 12.5 7.1 13.1 5.4 L13.5 5.25 13.85 5.6 13.55 7.05 12.8 8.25 12.7 8.35 12.85 8.3 13.2 8.3 13.5 8.35 15.15 9.15 15.25 9.3 15.4 9.6 15.4 9.7 15.5 10.4 15.4 10.7 15.6 10.6 17.2 9.75 19.65 7.8 19.1 7.1 18.25 5.35 Q16.5 2.8 11.25 2.8 5.4 2.8 3.85 7.55 M14.1 4.95 L14.1 6.3 13.75 7.05 13.75 6.7 13.85 5.65 14.05 5.6 14.1 4.95" fill="#463624" fill-rule="evenodd" stroke="none"/>
    <path d="M11.5 12.05 Q6.95 13.15 0.5 13.15 L-6.05 12.9 Q-5.95 9.15 -6.1 7.25 -6.45 3.95 -8.9 2.15 L-6.05 -0.45 -5.4 -1.0 Q-1.95 2.9 -0.1 2.9 0.75 2.9 7.3 0.15 13.9 -2.6 17.55 -2.6 19.8 -2.6 20.15 -2.0 20.55 -1.4 21.85 -1.4 L21.95 -1.4 21.95 -1.35 22.1 0.15 Q22.75 3.7 20.5 6.8 20.3 5.45 18.5 3.9 15.8 1.55 11.25 1.55 6.5 1.55 4.0 5.0 2.4 7.25 2.4 9.05 2.4 12.0 6.25 12.0 8.75 12.0 11.5 9.5 L12.9 10.25 Q12.9 10.6 12.15 10.95 11.4 11.35 11.4 11.8 L11.45 12.05 11.5 12.05" fill="#57352d" fill-rule="evenodd" stroke="none"/>
    <path d="M13.55 7.05 L13.85 5.6 13.5 5.25 13.1 5.4 Q12.5 7.1 10.95 8.55 8.7 10.65 5.65 10.65 3.5 10.65 3.5 8.8 L3.85 7.55 Q4.95 8.9 7.25 8.9 10.2 8.9 11.9 6.75 L13.6 4.55 Q16.75 4.55 17.25 9.15 L17.2 9.75 15.6 10.6 15.5 10.4 15.4 9.7 15.4 9.6 15.25 9.3 15.15 9.15 13.5 8.35 13.2 8.3 13.55 7.05 M14.1 4.95 L14.05 5.6 13.85 5.65 13.75 6.7 13.75 7.05 14.1 6.3 14.1 4.95" fill="#a05345" fill-rule="evenodd" stroke="none"/>
    <path d="M13.55 7.05 L13.2 8.3 12.85 8.3 12.8 8.25 13.55 7.05 M17.2 9.75 L17.25 9.15 Q16.75 4.55 13.6 4.55 L11.9 6.75 Q10.2 8.9 7.25 8.9 4.95 8.9 3.85 7.55 5.4 2.8 11.25 2.8 16.5 2.8 18.25 5.35 L19.1 7.1 19.65 7.8 17.2 9.75" fill="#b45f50" fill-rule="evenodd" stroke="none"/>
  </g>
</svg>
