<?xml version="1.0" encoding="UTF-8" standalone="no"?>
<svg xmlns:ffdec="https://www.free-decompiler.com/flash" xmlns:xlink="http://www.w3.org/1999/xlink" ffdec:objectType="shape" height="16.6px" width="36.9px" xmlns="http://www.w3.org/2000/svg">
  <g transform="matrix(1.0, 0.0, 0.0, 1.0, 16.65, 10.2)">
    <path d="M15.2 -10.1 Q16.1 -10.0 15.4 -10.0 L14.95 -9.75 Q19.7 -9.7 20.25 -2.5 17.2 6.6 12.2 6.4 7.15 6.15 1.2 4.9 -4.5 3.7 -8.0 2.05 -12.9 1.85 -15.15 0.45 L-16.65 -2.15 Q-6.95 1.15 2.8 -2.15 9.55 -4.6 14.4 -10.0 L15.2 -10.1 M18.25 -2.75 Q18.25 -5.7 13.6 -6.7 12.25 -4.75 8.1 -1.9 4.15 0.75 -0.85 1.65 L3.0 2.55 9.25 3.85 10.4 4.3 Q10.3 4.15 10.55 2.7 10.75 1.25 11.9 -1.05 13.05 -3.4 14.75 -3.35 L17.75 -2.85 18.25 -2.65 18.25 -2.75 M17.85 -1.25 L18.0 -1.65 17.8 -1.25 14.25 -1.5 Q13.0 -1.5 12.15 1.15 11.45 3.2 11.8 4.5 12.1 4.15 13.55 4.15 14.9 4.15 16.65 1.0 L17.85 -1.25" fill="#463624" fill-rule="evenodd" stroke="none"/>
    <path d="M18.25 -2.65 L17.75 -2.85 14.75 -3.35 Q13.05 -3.4 11.9 -1.05 10.75 1.25 10.55 2.7 10.3 4.15 10.4 4.3 L9.25 3.85 3.0 2.55 -0.85 1.65 Q4.15 0.75 8.1 -1.9 12.25 -4.75 13.6 -6.7 18.25 -5.7 18.25 -2.75 L18.25 -2.65" fill="#57352d" fill-rule="evenodd" stroke="none"/>
    <path d="M17.8 -1.25 L17.85 -1.25 16.65 1.0 Q14.9 4.15 13.55 4.15 12.1 4.15 11.8 4.5 11.45 3.2 12.15 1.15 13.0 -1.5 14.25 -1.5 L17.8 -1.25" fill="#b45f50" fill-rule="evenodd" stroke="none"/>
  </g>
</svg>
