<?xml version="1.0" encoding="UTF-8" standalone="no"?>
<svg xmlns:ffdec="https://www.free-decompiler.com/flash" xmlns:xlink="http://www.w3.org/1999/xlink" ffdec:objectType="shape" height="100.65px" width="85.95px" xmlns="http://www.w3.org/2000/svg">
  <g transform="matrix(1.0, 0.0, 0.0, 1.0, -25.8, 3.2)">
    <path d="M38.2 -2.15 L38.05 -1.75 37.15 1.0 Q36.15 4.95 35.1 13.3 37.9 33.9 28.6 58.65 34.8 50.15 38.35 40.35 L38.5 39.85 39.0 40.05 Q40.2 40.4 40.65 41.7 43.85 33.25 45.2 24.15 47.0 12.0 41.55 1.65 40.25 -0.95 38.2 -2.15 M88.5 17.7 Q94.75 21.85 94.25 32.9 L93.9 40.6 92.65 61.85 92.6 63.0 Q94.3 71.2 98.95 73.05 L99.45 73.25 99.2 73.7 Q97.5 77.5 95.0 77.4 96.6 80.45 99.25 82.3 L99.45 82.4 Q107.1 87.4 110.15 86.8 L111.6 86.55 111.75 87.0 110.5 87.7 Q105.85 90.55 98.95 88.8 L95.15 87.55 Q96.85 90.35 99.3 91.75 L99.3 91.7 Q103.15 93.8 108.9 92.5 L110.3 92.25 110.5 92.65 109.3 93.45 Q103.65 97.25 99.1 97.45 91.6 97.85 85.35 85.75 L81.2 77.5 Q77.55 69.95 74.4 62.7 69.55 51.3 70.7 41.95 L72.9 24.1 Q73.35 20.0 74.55 17.85 L74.55 17.9 Q76.05 15.0 78.7 15.1 84.75 15.2 88.5 17.7 M37.15 -2.2 Q37.85 -3.65 38.7 -3.0 40.95 -1.65 42.45 1.2 48.0 11.8 46.2 24.3 44.7 34.55 40.75 44.0 L40.25 45.35 39.75 45.2 39.8 43.8 Q39.95 41.95 39.1 41.25 34.9 52.6 27.2 62.15 L26.3 63.25 25.8 62.95 26.35 61.6 Q37.05 35.15 34.1 13.4 L34.1 13.25 Q35.2 4.75 36.15 0.75 36.65 -1.3 37.15 -2.2 M92.9 40.95 L92.9 40.55 93.25 32.85 Q93.75 22.45 87.95 18.55 84.45 16.2 78.7 16.1 76.65 16.1 75.45 18.35 74.35 20.4 73.9 24.2 L71.7 42.05 Q70.55 51.2 75.3 62.3 78.2 69.0 81.6 75.95 L82.1 77.05 86.25 85.3 Q92.1 96.65 99.05 96.45 102.45 96.3 106.6 93.95 102.05 94.4 98.8 92.6 95.55 90.75 93.55 86.75 L92.9 85.5 92.95 85.5 94.2 86.05 Q96.8 87.25 99.2 87.85 104.35 89.15 108.15 87.75 104.8 87.1 98.9 83.25 L98.85 83.2 98.8 83.2 Q95.5 80.95 93.7 77.0 L93.65 76.95 93.65 76.9 Q91.25 71.6 91.6 63.2 L91.6 63.0 91.65 61.75 92.9 40.95 M98.1 73.8 Q94.45 72.15 92.6 66.8 92.8 72.4 94.45 76.35 96.55 76.7 98.1 73.8 M57.5 37.4 L57.45 37.15 57.6 36.8 Q57.75 36.65 57.95 36.65 L59.1 36.75 59.15 36.8 Q68.1 39.7 69.5 49.8 70.85 59.7 66.15 68.7 61.45 77.75 52.9 80.15 L43.3 82.5 45.05 80.4 Q48.05 78.0 49.65 75.45 L49.25 75.6 Q47.65 76.3 44.5 78.2 43.15 78.95 42.05 79.95 L41.9 80.05 Q38.05 83.5 36.95 89.25 L36.65 90.65 36.55 90.65 36.0 89.35 Q33.05 83.05 38.35 75.75 L41.85 70.9 42.15 70.4 Q38.65 69.85 36.95 66.8 44.75 65.9 49.7 60.05 L50.2 59.1 50.4 59.3 50.55 59.6 50.45 60.0 50.25 60.25 50.3 60.2 50.3 60.1 50.15 60.15 49.8 60.1 49.75 60.05 48.2 62.35 50.25 60.25 43.2 70.7 43.1 70.8 39.15 76.35 Q34.9 82.25 36.35 87.4 38.15 80.7 44.0 77.35 47.25 75.45 48.85 74.7 L50.1 74.2 50.65 74.2 Q51.1 74.35 51.05 74.85 L51.05 74.95 51.0 75.05 Q49.35 78.3 45.6 81.25 61.15 76.6 65.35 68.35 69.8 59.5 68.5 49.95 67.2 40.5 58.85 37.75 L58.9 37.75 57.95 37.65 57.6 37.5 57.5 37.4" fill="#000000" fill-rule="evenodd" stroke="none"/>
    <path d="M92.9 40.95 L91.65 61.75 91.6 63.0 91.6 63.2 Q91.25 71.6 93.65 76.9 L93.65 76.95 93.7 77.0 Q95.5 80.95 98.8 83.2 L98.85 83.2 98.9 83.25 Q104.8 87.1 108.15 87.75 104.35 89.15 99.2 87.85 96.8 87.25 94.2 86.05 L92.95 85.5 92.9 85.5 93.55 86.75 Q95.55 90.75 98.8 92.6 102.05 94.4 106.6 93.95 102.45 96.3 99.05 96.45 92.1 96.65 86.25 85.3 L82.1 77.05 81.6 75.95 Q80.3 51.1 92.9 40.95" fill="#332622" fill-rule="evenodd" stroke="none"/>
    <path d="M38.2 -2.15 Q40.25 -0.95 41.55 1.65 47.0 12.0 45.2 24.15 43.85 33.25 40.65 41.7 40.2 40.4 39.0 40.05 L38.5 39.85 38.35 40.35 Q34.8 50.15 28.6 58.65 37.9 33.9 35.1 13.3 36.15 4.95 37.15 1.0 L38.05 -1.75 38.2 -2.15 M81.6 75.95 Q78.2 69.0 75.3 62.3 70.55 51.2 71.7 42.05 L73.9 24.2 Q74.35 20.4 75.45 18.35 76.65 16.1 78.7 16.1 84.45 16.2 87.95 18.55 93.75 22.45 93.25 32.85 L92.9 40.55 92.9 40.95 Q80.3 51.1 81.6 75.95 M98.1 73.8 Q96.55 76.7 94.45 76.35 92.8 72.4 92.6 66.8 94.45 72.15 98.1 73.8 M57.5 37.4 L57.6 37.5 57.95 37.65 58.9 37.75 58.85 37.75 Q67.2 40.5 68.5 49.95 69.8 59.5 65.35 68.35 61.15 76.6 45.6 81.25 49.35 78.3 51.0 75.05 L51.05 74.95 51.05 74.85 Q51.1 74.35 50.65 74.2 L50.1 74.2 48.85 74.7 Q47.25 75.45 44.0 77.35 38.15 80.7 36.35 87.4 34.9 82.25 39.15 76.35 L43.1 70.8 43.2 70.7 50.25 60.25 48.2 62.35 49.75 60.05 49.8 60.1 50.15 60.15 50.3 60.1 50.3 60.2 50.25 60.25 50.45 60.0 50.55 59.6 50.4 59.3 50.2 59.1 Q55.75 50.4 54.85 38.8 L57.5 37.4" fill="#2b1f1c" fill-rule="evenodd" stroke="none"/>
  </g>
</svg>
