<?xml version="1.0" encoding="UTF-8" standalone="no"?>
<svg xmlns:ffdec="https://www.free-decompiler.com/flash" xmlns:xlink="http://www.w3.org/1999/xlink" ffdec:objectType="shape" height="156.25px" width="80.8px" xmlns="http://www.w3.org/2000/svg">
  <g transform="matrix(1.0, 0.0, 0.0, 1.0, 34.55, 124.15)">
    <path d="M10.45 -48.85 L4.0 -48.5 1.9 -48.55 Q-2.05 -52.45 -4.05 -57.45 0.65 -69.05 13.85 -76.55 L2.1 -91.85 Q0.95 -94.8 4.55 -96.05 10.3 -98.05 12.7 -99.05 15.6 -102.6 17.35 -99.35 19.05 -96.1 17.75 -94.75 16.45 -93.45 13.7 -89.65 10.95 -85.85 11.95 -84.5 12.9 -83.2 15.7 -85.8 18.5 -88.4 18.45 -86.55 18.4 -84.8 16.7 -76.45 15.0 -68.1 18.55 -73.0 22.05 -77.95 22.25 -73.4 L22.4 -70.05 22.45 -67.45 Q22.45 -65.1 22.05 -62.85 21.65 -60.75 20.9 -58.8 18.7 -52.8 10.45 -48.85 M6.25 -121.2 Q11.25 -112.0 9.6 -102.55 5.35 -101.5 2.35 -99.6 -4.5 -95.2 -1.15 -90.7 L9.55 -77.95 Q5.0 -76.4 1.5 -73.3 -5.1 -67.45 -7.5 -57.75 -10.45 -62.45 -10.4 -71.7 -10.4 -81.0 -5.1 -93.5 0.25 -106.15 3.9 -119.45 5.05 -120.65 6.25 -121.2 M2.55 -82.75 Q1.5 -82.75 0.7 -82.0 -0.05 -81.2 -0.05 -80.15 -0.05 -79.1 0.7 -78.35 1.5 -77.55 2.55 -77.55 3.6 -77.55 4.35 -78.3 L4.4 -78.35 Q5.15 -79.1 5.15 -80.15 5.15 -81.2 4.35 -82.0 3.6 -82.75 2.55 -82.75 M16.2 10.5 Q16.05 12.6 15.5 14.55 L6.2 15.1 -4.25 14.35 Q-0.55 13.35 1.45 10.95 L4.1 11.05 Q6.1 12.75 11.15 12.9 14.3 12.75 15.5 10.6 L16.2 10.5 M13.55 18.7 L11.45 21.3 9.5 23.05 6.2 23.15 Q-5.3 23.15 -13.65 19.0 -15.15 16.8 -15.9 14.25 L-14.65 14.9 Q-6.0 19.1 6.2 19.1 L13.55 18.7 M-12.85 8.6 Q-11.85 11.5 -8.1 13.65 L-14.65 11.6 -16.5 10.8 -16.55 9.9 Q-15.1 9.2 -13.8 8.3 L-12.85 8.6" fill="#ea72b0" fill-rule="evenodd" stroke="none"/>
    <path d="M2.55 -82.75 Q3.6 -82.75 4.35 -82.0 5.15 -81.2 5.15 -80.15 5.15 -79.1 4.4 -78.35 L4.35 -78.3 Q3.6 -77.55 2.55 -77.55 1.5 -77.55 0.7 -78.35 -0.05 -79.1 -0.05 -80.15 -0.05 -81.2 0.7 -82.0 1.5 -82.75 2.55 -82.75 M1.45 -81.3 L1.4 -81.25 Q0.95 -80.8 0.95 -80.15 0.95 -79.5 1.4 -79.05 1.9 -78.55 2.55 -78.55 3.2 -78.55 3.65 -79.05 4.15 -79.5 4.15 -80.15 4.15 -80.8 3.65 -81.3 3.2 -81.75 2.55 -81.75 1.9 -81.75 1.45 -81.3 M34.35 -13.1 L33.55 -11.95 Q31.4 -9.2 28.25 -7.5 L27.6 -7.25 Q25.75 -9.0 24.3 -11.1 20.7 -16.25 19.75 -23.5 27.3 -18.8 34.35 -13.1 M13.9 -9.55 Q9.2 -10.7 5.0 -8.1 L3.35 -7.2 Q1.35 -11.9 1.2 -16.55 L1.2 -17.9 -0.2 -16.9 Q-3.1 -14.3 -6.0 -7.15 -7.6 -7.9 -9.55 -7.8 L-10.55 -7.6 Q-9.05 -15.15 -8.9 -19.0 -8.8 -23.2 -10.3 -23.15 L-12.75 -19.9 -20.05 -10.45 Q-22.15 -9.3 -24.1 -8.8 L-26.6 -8.4 -27.7 -8.4 -32.4 -9.05 -30.75 -10.4 Q-25.8 -13.8 -21.05 -19.9 L-18.65 -23.15 -15.9 -27.4 -14.65 -29.55 -13.35 -31.85 -7.1 -30.35 Q0.4 -28.8 5.3 -28.95 L13.8 -29.1 14.6 -23.75 Q15.05 -18.55 14.5 -13.35 L13.9 -9.55 M8.7 -29.8 L-5.35 -30.45 -7.3 -30.95 Q-11.1 -31.95 -12.85 -32.75 L-11.1 -35.85 -8.6 -35.2 Q-1.25 -33.45 6.35 -33.4 L8.7 -33.45 8.7 -29.8 M32.45 5.5 Q30.4 6.85 27.05 8.05 L24.65 8.8 Q27.0 6.85 27.9 3.6 L28.1 3.55 Q30.0 4.9 32.45 5.5 M22.25 9.45 L16.2 10.5 16.25 9.25 16.2 8.1 16.2 8.0 Q16.05 9.5 15.5 10.6 L6.2 11.1 4.1 11.05 Q3.0 10.15 2.75 8.85 L1.45 10.95 -2.1 10.7 Q1.0 9.4 2.65 6.9 4.45 9.7 11.15 9.9 L11.2 9.9 Q15.35 9.7 16.55 6.45 18.2 8.3 22.25 9.45 M15.5 14.55 Q21.9 13.7 27.05 11.6 31.35 9.9 33.5 7.8 L33.0 9.45 32.2 11.6 Q30.15 13.35 27.05 14.9 21.1 17.75 13.55 18.7 14.8 16.75 15.5 14.55 M29.05 17.3 L26.3 20.8 26.35 20.75 26.15 21.0 23.85 23.3 Q16.2 26.95 6.2 26.95 L-1.95 26.25 -0.15 26.35 Q5.35 26.35 9.5 23.05 19.6 22.5 27.05 18.5 L29.05 17.3 M-11.4 23.3 L-13.7 21.0 -13.75 21.0 -13.95 20.75 -13.9 20.8 -16.65 17.3 -14.65 18.5 -13.65 19.0 -11.75 21.3 Q-8.9 24.3 -5.3 25.55 -8.55 24.65 -11.4 23.3 M-19.75 11.65 L-20.55 9.45 -20.9 8.25 -20.7 8.2 Q-19.1 9.55 -16.5 10.8 L-15.9 14.25 -19.75 11.65 M-10.0 9.4 L-12.85 8.6 -13.1 7.75 -13.8 8.3 -14.65 8.05 -17.3 7.0 Q-15.15 5.9 -13.2 4.2 L-13.1 4.2 Q-12.5 7.25 -10.0 9.4 M-8.1 13.65 L-4.25 14.35 -5.9 14.7 -8.1 13.65" fill="#333333" fill-rule="evenodd" stroke="none"/>
    <path d="M9.5 23.05 Q5.35 26.35 -0.15 26.35 L-1.95 26.25 -5.3 25.55 Q-8.9 24.3 -11.75 21.3 L-13.65 19.0 Q-5.3 23.15 6.2 23.15 L9.5 23.05 M1.45 10.95 L2.75 8.85 Q3.0 10.15 4.1 11.05 L1.45 10.95 M15.5 10.6 Q16.05 9.5 16.2 8.0 L16.2 8.1 16.25 9.25 16.2 10.5 15.5 10.6 M-4.25 14.35 L6.2 15.1 15.5 14.55 Q14.8 16.75 13.55 18.7 L6.2 19.1 Q-6.0 19.1 -14.65 14.9 L-15.9 14.25 -16.5 10.8 -14.65 11.6 -8.1 13.65 -5.9 14.7 -4.25 14.35 M-13.8 8.3 L-13.1 7.75 -12.85 8.6 -13.8 8.3" fill="#494949" fill-rule="evenodd" stroke="none"/>
    <path d="M32.45 5.5 L34.0 5.8 33.95 5.9 34.0 5.85 33.5 7.8 Q31.35 9.9 27.05 11.6 21.9 13.7 15.5 14.55 16.05 12.6 16.2 10.5 L22.25 9.45 23.05 9.65 23.35 9.7 23.6 9.55 24.65 8.8 27.05 8.05 Q30.4 6.85 32.45 5.5 M32.2 11.6 L30.4 15.2 29.05 17.3 27.05 18.5 Q19.6 22.5 9.5 23.05 L11.45 21.3 13.55 18.7 Q21.1 17.75 27.05 14.9 30.15 13.35 32.2 11.6 M23.85 23.3 Q16.25 30.1 6.2 30.1 -3.85 30.1 -11.4 23.3 -8.55 24.65 -5.3 25.55 L-1.95 26.25 6.2 26.95 Q16.2 26.95 23.85 23.3 M-16.65 17.3 L-17.95 15.2 -19.75 11.65 -15.9 14.25 Q-15.15 16.8 -13.65 19.0 L-14.65 18.5 -16.65 17.3 M28.1 3.55 L27.9 3.6 27.95 3.4 28.1 3.55 M-2.1 10.7 L1.45 10.95 Q-0.55 13.35 -4.25 14.35 L-8.1 13.65 Q-11.85 11.5 -12.85 8.6 L-10.0 9.4 Q-8.5 10.7 -6.2 11.65 L-6.0 11.75 -5.75 11.7 -2.1 10.7 M4.1 11.05 L6.2 11.1 15.5 10.6 Q14.3 12.75 11.15 12.9 6.1 12.75 4.1 11.05 M-13.1 4.2 L-13.2 4.2 -13.1 4.1 -13.1 4.2 M-17.3 7.0 L-14.65 8.05 -13.8 8.3 Q-15.1 9.2 -16.55 9.9 L-16.5 10.8 Q-19.1 9.55 -20.7 8.2 L-17.3 7.0" fill="#c04395" fill-rule="evenodd" stroke="none"/>
    <path d="M10.45 -48.85 L20.9 -49.65 21.55 -49.75 Q26.85 -50.6 27.35 -52.0 27.85 -53.45 26.7 -56.9 25.75 -59.7 26.95 -68.45 L27.65 -73.2 Q29.8 -86.1 26.05 -95.85 23.25 -104.95 17.9 -111.9 L17.35 -112.65 Q14.7 -115.95 13.3 -116.25 11.55 -116.6 11.55 -112.7 11.55 -105.55 10.2 -101.95 L10.1 -101.55 9.7 -101.45 Q6.15 -100.3 3.15 -98.35 -2.2 -94.9 0.05 -91.55 L0.05 -91.6 10.9 -77.6 10.0 -77.2 Q6.25 -75.5 2.5 -72.2 -4.65 -65.85 -6.3 -56.55 L-6.25 -56.4 Q-3.3 -49.0 2.05 -41.65 L21.55 -42.85 22.2 -42.95 27.75 -44.0 Q32.6 -45.3 33.55 -47.5 31.35 -49.4 27.7 -49.15 L27.65 -49.15 21.55 -48.15 20.15 -47.95 8.95 -47.4 8.9 -47.4 2.35 -48.25 1.9 -48.55 4.0 -48.5 10.45 -48.85 M6.25 -121.2 Q5.05 -120.65 3.9 -119.45 0.25 -106.15 -5.1 -93.5 -10.4 -81.0 -10.4 -71.7 -10.45 -62.45 -7.5 -57.75 -5.1 -67.45 1.5 -73.3 5.0 -76.4 9.55 -77.95 L-1.15 -90.7 Q-4.5 -95.2 2.35 -99.6 5.35 -101.5 9.6 -102.55 11.25 -112.0 6.25 -121.2 M3.8 -122.05 L6.1 -123.3 7.6 -123.75 Q12.6 -124.5 17.75 -116.95 24.9 -106.25 27.95 -96.45 L27.95 -96.4 Q30.9 -86.55 28.9 -70.6 27.6 -60.8 30.7 -54.4 32.35 -51.1 35.25 -48.65 L35.35 -48.6 35.55 -48.4 35.65 -48.15 35.7 -47.95 35.65 -47.55 Q35.05 -43.8 27.75 -41.95 L22.45 -40.95 21.65 -40.85 Q10.25 -39.45 1.85 -41.0 L1.5 -41.05 1.3 -41.3 Q-4.95 -47.75 -8.1 -55.65 -10.35 -61.2 -11.0 -67.45 -12.5 -81.3 -6.95 -94.3 -1.6 -106.95 2.05 -120.25 L2.3 -120.7 2.35 -120.75 3.8 -122.05 M-3.4 -121.55 Q-6.1 -116.05 -7.45 -114.15 L-9.85 -108.9 -10.1 -107.6 Q-10.7 -105.15 -13.0 -97.6 L-14.35 -93.35 Q-17.0 -85.3 -17.05 -80.3 L-16.75 -77.3 -14.3 -67.0 -13.95 -65.85 -14.0 -65.85 -13.65 -64.45 -13.65 -64.4 Q-11.75 -56.7 -13.25 -49.7 -13.95 -46.55 -15.15 -44.35 -16.65 -41.6 -18.95 -40.45 L-18.95 -40.5 Q-19.35 -40.25 -19.6 -40.3 -20.2 -40.3 -20.45 -40.8 -20.7 -41.15 -20.45 -42.15 L-20.45 -42.2 -19.2 -46.65 -19.2 -46.7 Q-16.2 -54.6 -18.55 -65.75 -19.7 -70.9 -19.95 -76.45 L-23.35 -84.2 -23.25 -84.45 Q-21.3 -90.95 -18.65 -94.25 -18.15 -96.65 -17.25 -99.1 L-20.25 -99.65 -21.45 -99.65 -20.95 -100.7 Q-16.65 -110.35 -5.0 -120.2 L-3.4 -121.55 M36.0 6.0 L35.95 6.2 35.95 6.25 34.9 10.1 Q33.8 13.25 32.15 16.2 30.3 19.35 27.8 22.15 L27.65 22.35 Q18.75 32.1 6.2 32.1 -6.35 32.1 -15.25 22.35 L-15.35 22.15 -15.4 22.15 Q-17.9 19.35 -19.7 16.2 -21.4 13.25 -22.45 10.05 L-22.45 10.1 -22.9 8.55 -20.9 8.25 -20.55 9.45 -19.75 11.65 -17.95 15.2 -16.65 17.3 -13.9 20.8 -13.95 20.75 -13.75 21.0 -13.7 21.0 -11.4 23.3 Q-3.85 30.1 6.2 30.1 16.25 30.1 23.85 23.3 L26.15 21.0 26.35 20.75 26.3 20.8 29.05 17.3 30.4 15.2 32.2 11.6 33.0 9.45 33.5 7.8 34.0 5.85 33.95 5.9 34.0 5.8 36.0 6.0 M-16.35 -94.6 L-17.1 -93.8 -17.3 -93.55 -19.35 -90.3 -22.6 -84.15 -18.3 -76.5 -18.45 -77.65 -18.5 -78.1 Q-19.15 -83.95 -17.95 -89.35 -17.4 -92.05 -16.35 -94.6 M-8.85 -114.75 L-8.15 -116.15 Q-15.4 -108.85 -20.7 -100.35 L-16.75 -100.55 -15.45 -99.7 -14.8 -99.0 -12.65 -105.85 Q-11.0 -110.45 -8.85 -114.75 M-15.5 -97.1 L-16.05 -98.05 -16.55 -96.4 -15.5 -97.05 -15.5 -97.1 M-15.1 -64.05 L-15.9 -67.2 -18.1 -72.25 Q-17.8 -69.1 -17.1 -66.05 -14.65 -54.45 -17.75 -46.25 L-17.8 -46.15 -18.9 -42.25 Q-16.0 -44.3 -14.7 -50.0 L-14.3 -52.6 Q-13.95 -55.35 -14.15 -58.2 -14.35 -61.05 -15.1 -64.05" fill="#52233e" fill-rule="evenodd" stroke="none"/>
    <path d="M-9.15 -37.35 Q-11.15 -46.15 -9.8 -53.9 -6.95 -46.15 -1.05 -38.4 L12.2 -37.65 13.85 -35.8 Q7.85 -35.05 1.65 -35.5 L-9.15 -37.35 M-27.1 1.85 L-23.3 -1.8 -22.4 -2.25 -22.0 -2.45 Q-19.7 -3.6 -19.0 -3.6 -18.1 -3.6 -18.55 -3.55 -18.95 -3.55 -19.85 -1.6 L-20.2 -0.8 -21.1 1.3 -21.45 2.55 Q-21.45 3.15 -20.9 3.55 -20.35 3.95 -19.6 3.95 L-17.5 3.5 -16.85 3.15 Q-15.6 2.3 -13.35 -0.15 L-13.35 -0.2 Q-12.65 -1.4 -11.4 -2.35 L-9.7 -4.0 -9.9 0.3 -10.05 3.9 -9.9 4.85 Q-9.65 5.8 -8.85 6.5 -7.6 7.6 -5.85 7.6 -4.1 7.6 -2.9 6.5 L-2.2 5.85 -0.1 2.9 1.0 1.05 1.8 -0.35 3.3 -1.95 Q4.3 -2.9 5.25 -3.4 L5.35 -3.45 5.35 -3.4 Q5.05 -1.8 5.15 0.6 L5.2 1.15 Q5.4 4.55 6.5 5.55 L7.25 6.15 Q8.2 6.7 9.4 6.7 10.75 6.7 11.75 6.0 L12.3 5.55 Q13.35 4.6 13.95 0.95 L14.1 -0.15 14.25 -3.5 14.2 -4.25 15.15 -3.75 15.4 -3.55 16.4 -2.8 17.75 -1.5 Q18.45 -0.85 18.95 0.65 L19.0 0.9 Q19.5 2.55 20.15 3.4 20.75 4.2 21.4 4.2 22.05 4.2 22.85 3.4 23.65 2.6 23.9 1.05 L24.05 0.1 24.45 -2.05 24.5 -2.05 24.8 0.0 Q24.95 2.15 24.55 4.4 L23.25 8.5 Q19.85 7.85 18.0 5.5 16.6 3.7 16.1 0.95 15.75 3.95 14.8 5.8 13.15 8.95 9.75 8.85 5.25 8.7 3.9 6.1 L3.5 4.95 2.9 3.1 2.1 4.8 1.4 6.05 Q-0.4 8.8 -4.1 10.45 L-5.8 11.1 -7.65 9.9 Q-11.35 7.3 -12.2 4.4 L-12.35 3.85 -12.5 2.0 -13.55 3.45 -14.2 3.95 Q-16.2 5.35 -18.65 6.35 L-21.2 7.2 -23.15 7.7 -23.4 7.75 -23.6 5.6 Q-23.55 3.65 -22.55 2.0 L-22.5 1.95 -21.5 0.15 -21.65 -0.05 -23.55 0.95 Q-25.3 1.9 -27.1 1.85" fill="#472e46" fill-rule="evenodd" stroke="none"/>
    <path d="M23.25 8.5 L24.55 4.4 Q24.95 2.15 24.8 0.0 L24.5 -2.05 24.45 -2.05 24.05 0.1 23.9 1.05 Q23.65 2.6 22.85 3.4 22.05 4.2 21.4 4.2 20.75 4.2 20.15 3.4 19.5 2.55 19.0 0.9 L18.95 0.65 Q18.45 -0.85 17.75 -1.5 L16.4 -2.8 15.4 -3.55 15.15 -3.75 14.2 -4.25 14.25 -3.5 14.1 -0.15 13.95 0.95 Q13.35 4.6 12.3 5.55 L11.75 6.0 Q10.75 6.7 9.4 6.7 8.2 6.7 7.25 6.15 L6.5 5.55 Q5.4 4.55 5.2 1.15 L5.15 0.6 Q5.05 -1.8 5.35 -3.4 L5.35 -3.45 5.25 -3.4 Q4.3 -2.9 3.3 -1.95 L1.8 -0.35 1.0 1.05 -0.1 2.9 -2.2 5.85 -2.9 6.5 Q-4.1 7.6 -5.85 7.6 -7.6 7.6 -8.85 6.5 -9.65 5.8 -9.9 4.85 L-10.05 3.9 -9.9 0.3 -9.7 -4.0 -11.4 -2.35 Q-12.65 -1.4 -13.35 -0.2 L-13.35 -0.15 Q-15.6 2.3 -16.85 3.15 L-17.5 3.5 -19.6 3.95 Q-20.35 3.95 -20.9 3.55 -21.45 3.15 -21.45 2.55 L-21.1 1.3 -20.2 -0.8 -19.85 -1.6 Q-18.95 -3.55 -18.55 -3.55 -18.1 -3.6 -19.0 -3.6 -19.7 -3.6 -22.0 -2.45 L-22.4 -2.25 -23.3 -1.8 -27.1 1.85 -27.45 1.8 -30.4 1.25 Q-28.05 -3.15 -25.2 -7.3 -23.2 -7.7 -21.15 -8.7 L-20.05 -8.85 Q-17.8 -2.9 -15.1 -4.0 -12.4 -5.1 -10.85 -5.9 -9.3 -6.75 -4.1 -5.05 1.05 -3.35 4.85 -6.05 8.6 -8.8 13.0 -7.65 L24.0 -5.1 Q30.5 -3.65 35.45 -11.3 39.7 -9.6 43.95 -4.95 40.9 -2.25 39.4 -3.0 L38.2 -3.55 38.25 -2.35 Q38.5 2.1 36.9 5.25 L36.15 5.25 34.15 5.0 33.35 4.85 Q30.95 4.3 29.55 3.1 28.65 2.3 28.15 1.3 L27.15 0.3 26.85 1.7 26.65 3.9 Q25.95 7.0 23.25 8.5" fill="#362335" fill-rule="evenodd" stroke="none"/>
    <path d="M3.8 -122.05 Q-4.4 -121.05 -6.85 -113.2 -9.2 -105.6 -13.0 -97.6 -10.7 -105.15 -10.1 -107.6 L-9.85 -108.9 -7.45 -114.15 Q-6.1 -116.05 -3.4 -121.55 -0.55 -123.55 3.55 -124.05 L7.6 -123.75 6.1 -123.3 3.8 -122.05 M-17.05 -80.3 Q-15.95 -76.2 -13.45 -74.35 L-13.1 -74.05 -13.05 -73.65 Q-12.15 -65.25 -12.15 -56.75 -12.15 -49.5 -14.0 -38.6 L-15.75 -39.1 -16.25 -37.45 -15.15 -44.35 Q-13.95 -46.55 -13.25 -49.7 -11.75 -56.7 -13.65 -64.4 L-13.65 -64.45 -14.0 -65.85 -13.95 -65.85 -14.3 -67.0 -16.75 -77.3 -17.05 -80.3 M21.9 -37.45 Q21.7 -38.9 21.65 -40.85 L22.45 -40.95 27.75 -41.95 27.75 -39.4 21.9 -37.45 M39.3 -12.15 Q42.65 -8.95 45.6 -5.35 L46.05 -4.8 45.55 -4.35 Q42.0 -1.05 39.8 -1.3 39.75 3.3 36.9 5.8 L36.7 6.0 36.4 6.0 36.0 6.0 34.0 5.8 32.45 5.5 Q30.0 4.9 28.1 3.55 L27.95 3.4 27.9 3.6 Q27.0 6.85 24.65 8.8 L23.6 9.55 23.35 9.7 23.05 9.65 22.25 9.45 Q18.2 8.3 16.55 6.45 15.35 9.7 11.2 9.9 L11.15 9.9 Q4.45 9.7 2.65 6.9 1.0 9.4 -2.1 10.7 L-5.75 11.7 -6.0 11.75 -6.2 11.65 Q-8.5 10.7 -10.0 9.4 -12.5 7.25 -13.1 4.2 L-13.1 4.1 -13.2 4.2 Q-15.15 5.9 -17.3 7.0 L-20.7 8.2 -20.9 8.25 -22.9 8.55 -23.1 8.55 -23.6 8.6 -23.85 8.2 Q-25.45 5.6 -24.65 3.0 L-27.6 3.3 Q-29.3 3.15 -31.0 2.3 L-31.65 1.95 -27.3 -7.0 -25.2 -7.3 Q-28.05 -3.15 -30.4 1.25 L-27.45 1.8 -27.1 1.85 Q-25.3 1.9 -23.55 0.95 L-21.65 -0.05 -21.5 0.15 -22.5 1.95 -22.55 2.0 Q-23.55 3.65 -23.6 5.6 L-23.4 7.75 -23.15 7.7 -21.2 7.2 -18.65 6.35 Q-16.2 5.35 -14.2 3.95 L-13.55 3.45 -12.5 2.0 -12.35 3.85 -12.2 4.4 Q-11.35 7.3 -7.65 9.9 L-5.8 11.1 -4.1 10.45 Q-0.4 8.8 1.4 6.05 L2.1 4.8 2.9 3.1 3.5 4.95 3.9 6.1 Q5.25 8.7 9.75 8.85 13.15 8.95 14.8 5.8 15.75 3.95 16.1 0.95 16.6 3.7 18.0 5.5 19.85 7.85 23.25 8.5 25.95 7.0 26.65 3.9 L26.85 1.7 27.15 0.3 28.15 1.3 Q28.65 2.3 29.55 3.1 30.95 4.3 33.35 4.85 L34.15 5.0 36.15 5.25 36.9 5.25 Q38.5 2.1 38.25 -2.35 L38.2 -3.55 39.4 -3.0 Q40.9 -2.25 43.95 -4.95 39.7 -9.6 35.45 -11.3 L35.55 -11.5 Q37.55 -11.45 39.3 -12.15" fill="#201520" fill-rule="evenodd" stroke="none"/>
    <path d="M-13.0 -97.6 Q-9.2 -105.6 -6.85 -113.2 -4.4 -121.05 3.8 -122.05 L2.35 -120.75 2.3 -120.7 2.05 -120.25 Q-1.6 -106.95 -6.95 -94.3 -12.5 -81.3 -11.0 -67.45 -10.35 -61.2 -8.1 -55.65 -4.95 -47.75 1.3 -41.3 L1.5 -41.05 1.85 -41.0 Q10.25 -39.45 21.65 -40.85 21.7 -38.9 21.9 -37.45 17.9 -36.35 13.85 -35.8 L12.2 -37.65 -1.05 -38.4 Q-6.95 -46.15 -9.8 -53.9 -11.15 -46.15 -9.15 -37.35 L-14.0 -38.6 Q-12.15 -49.5 -12.15 -56.75 -12.15 -65.25 -13.05 -73.65 L-13.1 -74.05 -13.45 -74.35 Q-15.95 -76.2 -17.05 -80.3 -17.0 -85.3 -14.35 -93.35 L-13.0 -97.6" fill="#352532" fill-rule="evenodd" stroke="none"/>
    <path d="M-14.0 -38.6 L-9.15 -37.35 1.65 -35.5 Q7.85 -35.05 13.85 -35.8 17.9 -36.35 21.9 -37.45 L27.75 -39.4 27.8 -39.45 29.4 -36.85 Q35.95 -25.45 46.25 -17.1 44.05 -15.75 42.0 -13.95 40.75 -12.8 39.3 -12.15 37.55 -11.45 35.55 -11.5 L35.45 -11.3 Q30.5 -3.65 24.0 -5.1 L13.0 -7.65 Q8.6 -8.8 4.85 -6.05 1.05 -3.35 -4.1 -5.05 -9.3 -6.75 -10.85 -5.9 -12.4 -5.1 -15.1 -4.0 -17.8 -2.9 -20.05 -8.85 L-21.15 -8.7 Q-23.2 -7.7 -25.2 -7.3 L-27.3 -7.0 Q-30.95 -6.85 -34.55 -8.6 L-29.45 -14.5 Q-20.45 -24.65 -16.25 -37.45 L-15.75 -39.1 -14.0 -38.6 M34.35 -13.1 L34.65 -13.5 37.5 -13.85 37.75 -13.9 Q39.2 -14.1 40.55 -14.7 42.25 -15.6 43.2 -17.5 35.45 -24.1 26.8 -29.75 L24.6 -31.15 22.95 -30.65 22.0 -30.45 19.3 -29.7 13.8 -29.1 5.3 -28.95 Q0.4 -28.8 -7.1 -30.35 L-13.35 -31.85 -15.2 -32.35 -30.75 -10.4 -32.4 -9.05 -27.7 -8.4 -26.6 -8.4 -24.1 -8.8 Q-22.15 -9.3 -20.05 -10.45 -18.2 -9.35 -17.4 -6.35 -16.6 -3.35 -10.55 -7.6 L-9.55 -7.8 Q-7.6 -7.9 -6.0 -7.15 L-4.8 -6.65 Q-0.4 -4.65 3.35 -7.2 L5.0 -8.1 Q9.2 -10.7 13.9 -9.55 L15.9 -8.65 Q21.6 -6.4 27.6 -7.25 L28.25 -7.5 Q31.4 -9.2 33.55 -11.95 L34.35 -13.1 M8.7 -29.8 Q13.3 -29.75 17.8 -30.7 L18.35 -30.75 22.8 -31.8 Q24.7 -32.45 25.9 -33.3 L26.1 -35.85 Q25.4 -36.6 23.7 -36.05 L22.15 -35.6 Q18.75 -34.7 15.35 -34.15 L8.7 -33.45 6.35 -33.4 Q-1.25 -33.45 -8.6 -35.2 L-11.1 -35.85 -13.85 -36.0 -14.95 -33.35 -15.0 -33.3 -14.95 -33.3 -12.85 -32.75 Q-11.1 -31.95 -7.3 -30.95 L-5.35 -30.45 8.7 -29.8" fill="#000000" fill-rule="evenodd" stroke="none"/>
    <path d="M13.8 -29.1 L19.3 -29.7 22.0 -30.45 22.95 -30.65 24.6 -31.15 26.8 -29.75 Q35.45 -24.1 43.2 -17.5 42.25 -15.6 40.55 -14.7 39.2 -14.1 37.75 -13.9 L37.5 -13.85 34.65 -13.5 34.35 -13.1 Q27.3 -18.8 19.75 -23.5 20.7 -16.25 24.3 -11.1 25.75 -9.0 27.6 -7.25 21.6 -6.4 15.9 -8.65 L13.9 -9.55 14.5 -13.35 Q15.05 -18.55 14.6 -23.75 L13.8 -29.1 M3.35 -7.2 Q-0.4 -4.65 -4.8 -6.65 L-6.0 -7.15 Q-3.1 -14.3 -0.2 -16.9 L1.2 -17.9 1.2 -16.55 Q1.35 -11.9 3.35 -7.2 M-10.55 -7.6 Q-16.6 -3.35 -17.4 -6.35 -18.2 -9.35 -20.05 -10.45 L-12.75 -19.9 -10.3 -23.15 Q-8.8 -23.2 -8.9 -19.0 -9.05 -15.15 -10.55 -7.6 M-30.75 -10.4 L-15.2 -32.35 -13.35 -31.85 -14.65 -29.55 -15.9 -27.4 -18.65 -23.15 -21.05 -19.9 Q-25.8 -13.8 -30.75 -10.4 M8.7 -33.45 L15.35 -34.15 Q18.75 -34.7 22.15 -35.6 L23.7 -36.05 Q25.4 -36.6 26.1 -35.85 L25.9 -33.3 Q24.7 -32.45 22.8 -31.8 L18.35 -30.75 17.8 -30.7 Q13.3 -29.75 8.7 -29.8 L8.7 -33.45 M-12.85 -32.75 L-14.95 -33.3 -15.0 -33.3 -14.95 -33.35 -13.85 -36.0 -11.1 -35.85 -12.85 -32.75" fill="#292929" fill-rule="evenodd" stroke="none"/>
    <path d="M1.9 -48.55 L2.35 -48.25 8.9 -47.4 8.95 -47.4 20.15 -47.95 21.55 -48.15 27.65 -49.15 27.7 -49.15 Q31.35 -49.4 33.55 -47.5 32.6 -45.3 27.75 -44.0 L22.2 -42.95 21.55 -42.85 2.05 -41.65 Q-3.3 -49.0 -6.25 -56.4 L-6.3 -56.55 Q-4.65 -65.85 2.5 -72.2 6.25 -75.5 10.0 -77.2 L10.9 -77.6 0.05 -91.6 0.05 -91.55 Q-2.2 -94.9 3.15 -98.35 6.15 -100.3 9.7 -101.45 L10.1 -101.55 10.2 -101.95 Q11.55 -105.55 11.55 -112.7 11.55 -116.6 13.3 -116.25 14.7 -115.95 17.35 -112.65 L17.9 -111.9 Q23.25 -104.95 26.05 -95.85 29.8 -86.1 27.65 -73.2 L26.95 -68.45 Q25.75 -59.7 26.7 -56.9 27.85 -53.45 27.35 -52.0 26.85 -50.6 21.55 -49.75 L20.9 -49.65 10.45 -48.85 Q18.7 -52.8 20.9 -58.8 21.65 -60.75 22.05 -62.85 22.45 -65.1 22.45 -67.45 L22.4 -70.05 22.25 -73.4 Q22.05 -77.95 18.55 -73.0 15.0 -68.1 16.7 -76.45 18.4 -84.8 18.45 -86.55 18.5 -88.4 15.7 -85.8 12.9 -83.2 11.95 -84.5 10.95 -85.85 13.7 -89.65 16.45 -93.45 17.75 -94.75 19.05 -96.1 17.35 -99.35 15.6 -102.6 12.7 -99.05 10.3 -98.05 4.55 -96.05 0.95 -94.8 2.1 -91.85 L13.85 -76.55 Q0.65 -69.05 -4.05 -57.45 -2.05 -52.45 1.9 -48.55" fill="#d14e86" fill-rule="evenodd" stroke="none"/>
    <path d="M-8.85 -114.75 Q-11.0 -110.45 -12.65 -105.85 L-14.8 -99.0 -15.45 -99.7 -16.75 -100.55 -20.7 -100.35 Q-15.4 -108.85 -8.15 -116.15 L-8.85 -114.75 M-16.35 -94.6 Q-17.4 -92.05 -17.95 -89.35 -19.15 -83.95 -18.5 -78.1 L-18.45 -77.65 -18.3 -76.5 -22.6 -84.15 -19.35 -90.3 -17.3 -93.55 -17.1 -93.8 -16.35 -94.6" fill="#a8406c" fill-rule="evenodd" stroke="none"/>
    <path d="M-15.5 -97.1 L-15.5 -97.05 -16.55 -96.4 -16.05 -98.05 -15.5 -97.1 M-15.1 -64.05 Q-14.35 -61.05 -14.15 -58.2 -13.95 -55.35 -14.3 -52.6 L-14.7 -50.0 Q-16.0 -44.3 -18.9 -42.25 L-17.8 -46.15 -17.75 -46.25 Q-14.65 -54.45 -17.1 -66.05 -17.8 -69.1 -18.1 -72.25 L-15.9 -67.2 -15.1 -64.05" fill="#873457" fill-rule="evenodd" stroke="none"/>
    <path d="M1.45 -81.3 Q1.9 -81.75 2.55 -81.75 3.2 -81.75 3.65 -81.3 4.15 -80.8 4.15 -80.15 4.15 -79.5 3.65 -79.05 3.2 -78.55 2.55 -78.55 1.9 -78.55 1.4 -79.05 0.95 -79.5 0.95 -80.15 0.95 -80.8 1.4 -81.25 L1.45 -81.3" fill="#999999" fill-rule="evenodd" stroke="none"/>
  </g>
</svg>
