<?xml version="1.0" encoding="UTF-8" standalone="no"?>
<svg xmlns:ffdec="https://www.free-decompiler.com/flash" xmlns:xlink="http://www.w3.org/1999/xlink" ffdec:objectType="shape" height="10.05px" width="35.4px" xmlns="http://www.w3.org/2000/svg">
  <g transform="matrix(1.0, 0.0, 0.0, 1.0, 19.0, -10.4)">
    <path d="M5.5 17.65 Q8.55 18.7 11.6 15.35 9.45 13.35 7.15 13.15 L7.1 13.15 Q4.9 12.9 3.8 14.85 L3.6 15.6 Q3.95 17.0 5.5 17.65 M1.85 17.55 L1.5 16.9 1.15 15.75 Q0.85 14.55 1.45 13.55 L1.45 13.5 Q3.4 10.0 7.35 10.45 10.9 10.7 14.1 14.05 L16.4 16.35 13.15 16.35 Q9.1 21.05 4.85 19.3 2.15 18.25 1.85 17.55 M-19.0 17.05 L-16.75 14.75 Q-13.55 11.4 -10.0 11.1 -6.1 10.7 -4.1 14.2 -3.5 15.25 -3.8 16.45 L-4.15 17.6 -4.5 18.25 Q-4.8 18.9 -7.45 20.0 L-7.5 20.0 Q-11.75 21.75 -15.8 17.05 L-19.0 17.05 M-6.25 16.25 L-6.45 15.5 -6.45 15.55 Q-7.6 13.6 -9.75 13.8 L-9.8 13.8 Q-12.1 14.05 -14.25 16.05 -11.25 19.4 -8.15 18.35 -6.6 17.7 -6.25 16.25" fill="#000000" fill-rule="evenodd" stroke="none"/>
    <path d="M5.5 17.65 Q3.95 17.0 3.6 15.6 L3.8 14.85 Q4.9 12.9 7.1 13.15 L7.15 13.15 Q9.45 13.35 11.6 15.35 8.55 18.7 5.5 17.65 M-6.25 16.25 Q-6.6 17.7 -8.15 18.35 -11.25 19.4 -14.25 16.05 -12.1 14.05 -9.8 13.8 L-9.75 13.8 Q-7.6 13.6 -6.45 15.55 L-6.45 15.5 -6.25 16.25" fill="#e6a579" fill-rule="evenodd" stroke="none"/>
  </g>
</svg>
