<?xml version="1.0" encoding="UTF-8" standalone="no"?>
<svg xmlns:ffdec="https://www.free-decompiler.com/flash" xmlns:xlink="http://www.w3.org/1999/xlink" ffdec:objectType="shape" height="5.6px" width="35.4px" xmlns="http://www.w3.org/2000/svg">
  <g transform="matrix(1.0, 0.0, 0.0, 1.0, 19.0, -12.45)">
    <path d="M7.15 14.0 L7.1 14.0 Q4.9 13.85 3.8 14.95 L3.6 15.35 Q3.9 16.1 5.5 16.5 8.6 17.1 11.6 15.25 9.45 14.1 7.15 14.0 M4.85 17.4 Q2.15 16.8 1.85 16.45 L1.5 16.1 1.15 15.45 Q0.85 14.8 1.45 14.2 3.4 12.25 7.35 12.45 10.9 12.6 14.1 14.5 L16.4 15.75 13.15 15.75 Q9.1 18.35 4.85 17.4 M-19.0 16.15 L-16.75 14.85 Q-13.55 13.0 -10.0 12.85 -6.1 12.6 -4.1 14.55 -3.5 15.15 -3.8 15.8 L-4.15 16.45 -4.5 16.8 Q-4.8 17.2 -7.45 17.8 L-7.5 17.8 Q-11.75 18.75 -15.8 16.15 L-19.0 16.15 M-6.25 15.7 L-6.45 15.3 Q-7.6 14.2 -9.75 14.35 L-9.8 14.35 Q-12.1 14.45 -14.25 15.6 -11.25 17.45 -8.15 16.85 -6.6 16.5 -6.25 15.7" fill="#000000" fill-rule="evenodd" stroke="none"/>
    <path d="M7.15 14.0 Q9.45 14.1 11.6 15.25 8.6 17.1 5.5 16.5 3.9 16.1 3.6 15.35 L3.8 14.95 Q4.9 13.85 7.1 14.0 L7.15 14.0 M-6.25 15.7 Q-6.6 16.5 -8.15 16.85 -11.25 17.45 -14.25 15.6 -12.1 14.45 -9.8 14.35 L-9.75 14.35 Q-7.6 14.2 -6.45 15.3 L-6.25 15.7" fill="#e6a579" fill-rule="evenodd" stroke="none"/>
  </g>
</svg>
