<?xml version="1.0" encoding="UTF-8" standalone="no"?>
<svg xmlns:ffdec="https://www.free-decompiler.com/flash" xmlns:xlink="http://www.w3.org/1999/xlink" ffdec:objectType="shape" height="15.9px" width="28.45px" xmlns="http://www.w3.org/2000/svg">
  <g transform="matrix(1.0, 0.0, 0.0, 1.0, 14.75, -5.45)">
    <path d="M5.75 8.05 Q6.7 7.2 7.85 7.2 9.5 7.2 10.7 9.05 11.95 10.85 11.95 13.4 11.95 15.95 10.7 17.75 9.5 19.55 7.85 19.6 6.15 19.55 4.9 17.75 3.7 15.95 3.7 13.4 3.7 11.95 4.05 10.8 4.35 9.8 4.9 9.05 L5.75 8.05 M-6.9 10.5 Q-5.85 12.05 -5.8 14.3 -5.85 16.5 -6.9 18.05 -7.95 19.6 -9.4 19.6 -10.9 19.6 -11.95 18.05 -13.0 16.5 -13.0 14.3 -13.0 13.0 -12.65 12.0 L-11.95 10.5 -11.2 9.6 Q-10.4 8.9 -9.4 8.9 -7.95 8.9 -6.9 10.5" fill="#e6a579" fill-rule="evenodd" stroke="none"/>
    <path d="M5.75 8.05 Q6.7 7.2 7.85 7.2 9.5 7.2 10.7 9.05 11.95 10.85 11.95 13.4 11.95 15.95 10.7 17.75 9.5 19.55 7.85 19.6 6.15 19.55 4.9 17.75 3.7 15.95 3.7 13.4 3.7 11.95 4.05 10.8 4.35 9.8 4.9 9.05 L5.75 8.05 M-6.9 10.5 Q-5.85 12.05 -5.8 14.3 -5.85 16.5 -6.9 18.05 -7.95 19.6 -9.4 19.6 -10.9 19.6 -11.95 18.05 -13.0 16.5 -13.0 14.3 -13.0 13.0 -12.65 12.0 L-11.95 10.5 -11.2 9.6 Q-10.4 8.9 -9.4 8.9 -7.95 8.9 -6.9 10.5 Z" fill="none" stroke="#000000" stroke-linecap="round" stroke-linejoin="round" stroke-width="3.5"/>
  </g>
</svg>
