<?xml version="1.0" encoding="UTF-8" standalone="no"?>
<svg xmlns:ffdec="https://www.free-decompiler.com/flash" xmlns:xlink="http://www.w3.org/1999/xlink" ffdec:objectType="shape" height="13.6px" width="26.1px" xmlns="http://www.w3.org/2000/svg">
  <g transform="matrix(1.0, 0.0, 0.0, 1.0, 13.4, -7.75)">
    <path d="M-5.75 10.25 L-5.55 11.45 Q-5.4 13.6 -5.55 15.95 -5.65 17.2 -6.45 18.25 L-7.45 19.15 Q-8.95 20.1 -10.2 18.85 -11.05 18.05 -11.4 16.75 -11.95 14.85 -11.2 13.8 L-6.25 9.95 -5.9 10.0 -5.75 10.25 M5.35 9.55 L5.55 9.55 Q7.6 10.55 9.25 12.4 L9.9 13.25 10.7 14.8 Q11.35 16.65 10.2 18.25 9.5 19.2 8.35 19.55 6.75 19.85 5.7 18.75 4.35 17.25 4.1 15.35 3.8 12.45 5.35 10.0 L5.35 9.55" fill="#e6a579" fill-rule="evenodd" stroke="none"/>
    <path d="M5.35 9.55 L5.35 10.0 Q3.8 12.45 4.1 15.35 4.35 17.25 5.7 18.75 6.75 19.85 8.35 19.55 9.5 19.2 10.2 18.25 11.35 16.65 10.7 14.8 L9.9 13.25 9.25 12.4 Q7.6 10.55 5.55 9.55 L5.35 9.55 M-5.75 10.25 L-5.9 10.0 -6.25 9.95 -11.2 13.8 Q-11.95 14.85 -11.4 16.75 -11.05 18.05 -10.2 18.85 -8.95 20.1 -7.45 19.15 L-6.45 18.25 Q-5.65 17.2 -5.55 15.95 -5.4 13.6 -5.55 11.45 L-5.75 10.25 Z" fill="none" stroke="#000000" stroke-linecap="round" stroke-linejoin="round" stroke-width="3.5"/>
  </g>
</svg>
