<?xml version="1.0" encoding="UTF-8" standalone="no"?>
<svg xmlns:ffdec="https://www.free-decompiler.com/flash" xmlns:xlink="http://www.w3.org/1999/xlink" ffdec:objectType="shape" height="12.2px" width="26.35px" xmlns="http://www.w3.org/2000/svg">
  <g transform="matrix(1.0, 0.0, 0.0, 1.0, 13.4, -9.2)">
    <path d="M4.1 15.0 L10.45 10.95 Q11.2 12.35 11.2 14.25 11.2 16.45 10.15 18.05 9.1 19.6 7.6 19.6 6.15 19.6 5.1 18.05 4.2 16.75 4.1 15.0 M-5.45 14.6 L-5.45 15.0 Q-5.45 16.9 -6.4 18.25 -7.3 19.6 -8.55 19.65 -9.85 19.6 -10.75 18.25 -11.65 16.9 -11.65 15.0 L-11.35 13.05 -11.25 12.7 -5.45 14.6" fill="#e6a579" fill-rule="evenodd" stroke="none"/>
    <path d="M4.1 15.0 L3.3 15.5 M4.1 15.0 L10.45 10.95 Q11.2 12.35 11.2 14.25 11.2 16.45 10.15 18.05 9.1 19.6 7.6 19.6 6.15 19.6 5.1 18.05 4.2 16.75 4.1 15.0 M-5.45 14.6 L-5.45 15.0 Q-5.45 16.9 -6.4 18.25 -7.3 19.6 -8.55 19.65 -9.85 19.6 -10.75 18.25 -11.65 16.9 -11.65 15.0 L-11.35 13.05 -11.25 12.7 -5.45 14.6 -5.05 14.75" fill="none" stroke="#000000" stroke-linecap="round" stroke-linejoin="round" stroke-width="3.5"/>
  </g>
</svg>
