<?xml version="1.0" encoding="UTF-8" standalone="no"?>
<svg xmlns:ffdec="https://www.free-decompiler.com/flash" xmlns:xlink="http://www.w3.org/1999/xlink" ffdec:objectType="shape" height="13.25px" width="27.4px" xmlns="http://www.w3.org/2000/svg">
  <g transform="matrix(1.0, 0.0, 0.0, 1.0, 12.95, -7.75)">
    <path d="M11.5 17.15 L3.05 20.25 2.95 20.05 2.85 19.35 2.85 19.2 Q3.0 18.7 3.45 18.5 L3.75 18.35 Q2.75 16.6 2.75 14.25 2.7 12.8 3.1 11.6 L3.05 11.65 Q3.35 10.6 4.0 9.75 L4.0 9.7 Q4.45 9.0 5.05 8.55 L5.0 8.55 Q5.8 7.6 6.9 7.75 8.0 7.85 12.4 12.6 L12.55 14.25 12.6 15.15 Q12.95 15.1 14.0 16.0 L14.45 16.35 13.5 16.55 13.4 16.6 11.5 17.15 M8.7 12.2 Q7.3 10.45 7.0 10.55 L6.7 10.65 6.25 11.2 6.2 11.25 5.7 12.35 5.65 12.4 Q5.4 13.25 5.4 14.25 5.4 15.85 6.05 17.0 8.15 15.65 9.95 15.35 L10.0 14.3 10.1 13.85 8.7 12.2 M-7.3 8.65 Q-6.35 9.3 -5.3 10.95 -4.15 12.6 -4.1 15.0 L-4.1 15.05 Q-4.15 17.4 -5.3 19.05 -6.6 21.05 -8.5 21.0 -10.5 21.05 -11.85 19.0 L-11.85 19.05 Q-12.85 17.6 -12.95 15.65 L-8.95 8.15 -7.3 8.65 M-7.5 17.5 Q-6.8 16.45 -6.75 15.0 -6.8 13.5 -7.5 12.5 L-7.5 12.45 Q-7.85 11.9 -8.3 11.75 -9.05 12.2 -10.05 15.0 L-10.3 15.55 Q-10.2 16.65 -9.6 17.5 -9.15 18.2 -8.5 18.3 -7.95 18.2 -7.5 17.55 L-7.5 17.5" fill="#000000" fill-rule="evenodd" stroke="none"/>
    <path d="M8.7 12.2 L10.1 13.85 10.0 14.3 9.95 15.35 Q8.15 15.65 6.05 17.0 5.4 15.85 5.4 14.25 5.4 13.25 5.65 12.4 L5.7 12.35 6.2 11.25 6.25 11.2 6.7 10.65 7.0 10.55 Q7.3 10.45 8.7 12.2 M-7.5 17.5 L-7.5 17.55 Q-7.95 18.2 -8.5 18.3 -9.15 18.2 -9.6 17.5 -10.2 16.65 -10.3 15.55 L-10.05 15.0 Q-9.05 12.2 -8.3 11.75 -7.85 11.9 -7.5 12.45 L-7.5 12.5 Q-6.8 13.5 -6.75 15.0 -6.8 16.45 -7.5 17.5" fill="#e6a579" fill-rule="evenodd" stroke="none"/>
    <path d="M11.5 17.15 L13.4 16.6 13.5 16.55 11.95 17.1 11.5 17.15" fill="#b8c1b2" fill-rule="evenodd" stroke="none"/>
  </g>
</svg>
