<?xml version="1.0" encoding="UTF-8" standalone="no"?>
<svg xmlns:ffdec="https://www.free-decompiler.com/flash" xmlns:xlink="http://www.w3.org/1999/xlink" ffdec:objectType="shape" height="54.25px" width="22.5px" xmlns="http://www.w3.org/2000/svg">
  <g transform="matrix(1.0, 0.0, 0.0, 1.0, 7.9, 1.55)">
    <path d="M1.15 -1.5 L1.15 -1.4 Q1.15 1.5 5.15 31.45 6.9 46.75 8.4 52.7 L-1.5 51.7 Q-2.35 15.6 -5.75 0.95 L-5.95 0.15 Q-4.5 -1.55 -2.35 -1.55 L1.15 -1.5" fill="#ea72b0" fill-rule="evenodd" stroke="none"/>
    <path d="M-5.95 0.15 L-5.75 0.95 Q-2.35 15.6 -1.5 51.7 L-3.85 47.95 Q-3.45 26.75 -7.9 0.4 L-7.45 0.2 Q-7.05 0.15 -6.75 0.4 -6.4 0.65 -6.1 -0.4 L-5.95 0.15 M12.4 51.7 Q9.65 31.0 7.05 15.2 L4.4 -0.7 4.65 -1.15 Q4.9 -1.5 5.3 -1.55 L6.05 -1.3 Q6.35 -1.05 9.65 19.1 12.9 39.2 14.6 47.95 L12.4 51.7" fill="#52233e" fill-rule="evenodd" stroke="none"/>
    <path d="M8.4 52.7 Q6.9 46.75 5.15 31.45 1.15 1.5 1.15 -1.4 L1.15 -1.5 1.5 -1.45 1.85 -1.45 3.65 -1.25 4.4 -0.7 7.05 15.2 Q9.65 31.0 12.4 51.7 L8.4 52.7" fill="#d14e86" fill-rule="evenodd" stroke="none"/>
  </g>
</svg>
