<?xml version="1.0" encoding="UTF-8" standalone="no"?>
<svg xmlns:ffdec="https://www.free-decompiler.com/flash" xmlns:xlink="http://www.w3.org/1999/xlink" ffdec:objectType="shape" height="123.4px" width="80.65px" xmlns="http://www.w3.org/2000/svg">
  <g transform="matrix(1.0, 0.0, 0.0, 1.0, 23.35, -7.6)">
    <path d="M31.8 30.6 Q33.0 29.7 33.0 26.5 33.0 19.35 25.7 14.45 18.45 9.55 9.1 9.45 -0.3 9.35 -6.15 14.4 -12.0 19.4 -12.15 26.5 L-12.15 26.55 Q-12.2 29.85 -10.7 31.2 -9.1 32.45 -5.9 31.85 L11.2 28.2 Q21.35 25.9 27.9 29.7 30.5 31.25 31.8 30.6 M34.5 26.5 Q34.5 30.8 32.6 31.85 30.75 33.1 27.15 31.0 21.05 27.5 11.55 29.65 L-5.6 33.3 Q-9.7 34.1 -11.65 32.35 -13.75 30.65 -13.65 26.5 -13.55 18.6 -5.6 13.1 2.15 7.6 11.25 7.6 20.3 7.6 27.35 13.05 34.5 18.65 34.5 26.5" fill="#000000" fill-rule="evenodd" stroke="none"/>
    <path d="M31.8 30.6 Q30.5 31.25 27.9 29.7 21.35 25.9 11.2 28.2 L-5.9 31.85 Q-9.1 32.45 -10.7 31.2 -12.2 29.85 -12.15 26.55 L-12.15 26.5 Q-12.0 19.4 -6.15 14.4 -0.3 9.35 9.1 9.45 18.45 9.55 25.7 14.45 33.0 19.35 33.0 26.5 33.0 29.7 31.8 30.6" fill="#332622" fill-rule="evenodd" stroke="none"/>
    <path d="M31.2 108.4 Q31.55 99.85 37.45 94.1 L38.9 92.55 39.05 92.65 38.7 94.75 Q38.2 97.4 38.3 101.3 L38.4 106.25 38.4 106.65 38.45 110.1 Q38.45 115.0 38.1 117.6 37.75 120.15 36.25 123.7 34.75 127.2 26.5 130.2 36.75 131.4 41.35 122.4 L41.9 121.55 41.9 121.6 42.55 122.2 43.5 123.45 43.5 123.5 43.55 123.5 Q44.7 125.5 45.05 129.05 46.4 127.0 45.6 122.85 L44.7 118.05 44.55 115.95 44.6 115.95 46.0 117.5 Q47.8 119.5 50.1 120.35 47.3 115.65 46.75 110.1 46.15 103.9 48.1 93.6 50.0 83.3 51.45 76.95 52.8 70.75 52.5 67.7 52.15 64.45 50.55 63.55 48.85 62.75 45.9 64.05 L45.1 67.45 Q41.0 84.2 34.55 90.45 27.45 97.35 31.2 108.4 M44.6 63.0 L44.95 62.85 Q49.0 60.95 51.25 62.2 53.6 63.3 54.0 67.55 54.3 70.75 52.9 77.25 L52.9 77.3 Q51.45 83.6 49.55 93.85 47.65 103.9 48.25 109.95 48.85 115.85 50.95 121.2 48.8 121.9 46.45 120.0 47.4 129.65 44.55 130.2 44.25 126.4 42.15 124.0 36.15 133.2 24.35 130.3 32.75 127.2 35.4 123.3 30.5 123.3 26.75 119.8 L25.2 118.4 Q32.9 119.5 36.8 113.05 L37.1 112.3 37.45 108.55 Q37.65 105.35 37.2 101.9 36.7 98.4 36.9 96.9 31.85 102.8 31.75 110.95 25.35 97.8 33.05 90.25 40.65 82.5 44.55 63.35 L44.6 63.0 M36.2 121.9 Q37.15 119.65 37.1 116.9 L37.1 115.45 Q34.55 120.05 29.75 120.2 32.45 121.9 35.85 121.8 L36.2 121.9" fill="#000000" fill-rule="evenodd" stroke="none"/>
    <path d="M38.4 106.25 L38.3 101.3 Q38.2 97.4 38.7 94.75 L39.05 92.65 38.9 92.55 37.45 94.1 Q31.55 99.85 31.2 108.4 31.0 103.55 32.3 98.8 33.45 94.4 36.6 90.9 39.85 87.25 41.55 82.55 43.0 78.45 44.0 74.15 44.75 70.9 45.1 67.45 L45.9 64.05 Q48.85 62.75 50.55 63.55 52.15 64.45 52.5 67.7 52.8 70.75 51.45 76.95 50.0 83.3 48.1 93.6 46.15 103.9 46.75 110.1 47.3 115.65 50.1 120.35 44.2 116.05 43.55 108.05 L43.55 123.5 43.5 123.5 43.5 123.45 42.55 122.2 41.9 121.6 Q43.2 117.4 41.9 110.0 40.6 102.55 42.25 97.25 L45.45 87.3 Q46.85 82.9 47.6 78.6 48.3 74.25 45.9 64.05 48.05 78.2 43.15 90.2 38.45 101.65 38.4 106.25 M36.2 121.9 L35.85 121.8 Q32.45 121.9 29.75 120.2 34.55 120.05 37.1 115.45 L37.1 116.9 Q37.15 119.65 36.2 121.9" fill="#332622" fill-rule="evenodd" stroke="none"/>
    <path d="M31.2 108.4 Q27.45 97.35 34.55 90.45 41.0 84.2 45.1 67.45 44.75 70.9 44.0 74.15 43.0 78.45 41.55 82.55 39.85 87.25 36.6 90.9 33.45 94.4 32.3 98.8 31.0 103.55 31.2 108.4 M50.1 120.35 Q47.8 119.5 46.0 117.5 L44.6 115.95 44.55 115.95 44.7 118.05 45.6 122.85 Q46.4 127.0 45.05 129.05 44.7 125.5 43.55 123.5 L43.55 108.05 Q44.2 116.05 50.1 120.35 M41.9 121.6 L41.9 121.55 41.35 122.4 Q36.75 131.4 26.5 130.2 34.75 127.2 36.25 123.7 37.75 120.15 38.1 117.6 38.45 115.0 38.45 110.1 L38.4 106.65 38.4 106.25 Q38.45 101.65 43.15 90.2 48.05 78.2 45.9 64.05 48.3 74.25 47.6 78.6 46.85 82.9 45.45 87.3 L42.25 97.25 Q40.6 102.55 41.9 110.0 43.2 117.4 41.9 121.6" fill="#43322c" fill-rule="evenodd" stroke="none"/>
    <path d="M46.3 57.95 Q47.35 57.15 48.6 55.1 49.55 58.2 50.0 57.05 50.25 56.4 50.35 52.7 51.1 57.85 53.25 58.75 55.4 59.65 53.2 51.35 55.95 56.05 55.65 49.4 55.3 42.8 48.7 33.95 51.45 37.4 48.25 30.5 44.85 23.25 33.5 16.6 42.0 19.9 35.4 15.85 15.75 7.6 7.95 14.65 17.3 37.75 39.15 44.3 L39.15 45.35 39.2 45.4 Q39.65 47.35 42.05 54.7 43.7 59.8 46.3 57.95 M35.45 13.3 L35.45 13.25 Q49.8 22.1 55.05 41.2 57.6 50.8 56.95 55.75 56.2 61.25 51.85 61.55 L51.8 61.55 Q43.55 62.15 41.0 54.15 38.8 47.3 38.85 46.05 15.85 38.75 6.3 14.65 L6.3 14.05 6.6 13.75 Q20.95 4.25 35.45 13.3" fill="#000000" fill-rule="evenodd" stroke="none"/>
    <path d="M39.2 45.4 L39.15 45.35 39.15 44.3 Q17.3 37.75 7.95 14.65 15.75 7.6 35.4 15.85 42.0 19.9 33.5 16.6 44.85 23.25 48.25 30.5 51.45 37.4 48.7 33.95 55.3 42.8 55.65 49.4 55.95 56.05 53.2 51.35 55.4 59.65 53.25 58.75 51.1 57.85 50.35 52.7 50.25 56.4 50.0 57.05 49.55 58.2 48.6 55.1 47.35 57.15 46.3 57.95 42.55 54.5 39.2 45.4 M27.0 21.0 Q30.5 25.25 31.4 30.7 32.05 34.9 33.8 38.7 35.85 43.05 44.0 44.0 38.85 42.85 36.55 38.15 34.5 33.95 33.45 29.4 32.8 26.65 31.4 24.35 29.85 21.8 27.0 21.0" fill="#332622" fill-rule="evenodd" stroke="none"/>
    <path d="M46.3 57.95 Q43.7 59.8 42.05 54.7 39.65 47.35 39.2 45.4 42.55 54.5 46.3 57.95 M27.0 21.0 Q29.85 21.8 31.4 24.35 32.8 26.65 33.45 29.4 34.5 33.95 36.55 38.15 38.85 42.85 44.0 44.0 35.85 43.05 33.8 38.7 32.05 34.9 31.4 30.7 30.5 25.25 27.0 21.0" fill="#43322c" fill-rule="evenodd" stroke="none"/>
    <path d="M52.75 58.9 Q51.65 58.9 50.85 59.6 L50.8 59.65 50.75 59.65 50.6 59.8 Q49.7 60.7 49.7 61.95 49.7 62.9 50.25 63.7 L50.4 63.85 50.6 64.1 Q51.5 65.0 52.75 65.0 54.0 65.0 54.85 64.1 L54.9 64.1 54.9 64.05 Q55.8 63.2 55.8 61.95 55.8 60.7 54.9 59.8 54.0 58.9 52.75 58.9 M52.75 57.4 Q54.6 57.4 55.95 58.75 57.3 60.1 57.3 61.95 57.3 63.8 55.95 65.15 54.6 66.5 52.75 66.5 50.95 66.5 49.65 65.25 48.35 66.15 46.7 66.15 44.65 66.15 43.2 64.7 41.7 63.2 41.7 61.15 41.7 59.1 43.2 57.65 44.65 56.15 46.7 56.15 48.75 56.15 50.25 57.65 L50.55 58.0 Q51.55 57.4 52.75 57.4 M44.25 58.7 Q43.2 59.7 43.2 61.15 43.2 62.6 44.25 63.65 45.25 64.65 46.7 64.65 47.85 64.65 48.7 64.05 48.2 63.1 48.2 61.95 48.2 60.2 49.35 58.9 L49.2 58.7 Q48.15 57.65 46.7 57.65 45.25 57.65 44.25 58.7" fill="#321d26" fill-rule="evenodd" stroke="none"/>
    <path d="M52.75 58.9 Q54.0 58.9 54.9 59.8 55.8 60.7 55.8 61.95 55.8 63.2 54.9 64.05 L54.9 64.1 54.85 64.1 Q54.0 65.0 52.75 65.0 51.5 65.0 50.6 64.1 L50.4 63.85 50.25 63.7 Q49.7 62.9 49.7 61.95 49.7 60.7 50.6 59.8 L50.75 59.65 50.8 59.65 50.85 59.6 Q51.65 58.9 52.75 58.9 M44.25 58.7 Q45.25 57.65 46.7 57.65 48.15 57.65 49.2 58.7 L49.35 58.9 Q48.2 60.2 48.2 61.95 48.2 63.1 48.7 64.05 47.85 64.65 46.7 64.65 45.25 64.65 44.25 63.65 43.2 62.6 43.2 61.15 43.2 59.7 44.25 58.7" fill="#e76fad" fill-rule="evenodd" stroke="none"/>
    <path d="M-22.1 42.8 Q-17.95 40.65 -13.8 33.35 -17.35 40.05 -10.8 43.25 -8.4 40.7 -2.85 27.7 -6.9 37.95 -5.65 39.0 L-1.45 43.25 Q0.75 40.1 4.85 35.7 5.8 33.95 7.1 29.85 L5.65 38.2 Q7.0 40.5 11.0 43.85 12.45 38.2 14.4 33.4 13.95 28.25 11.0 21.05 L11.45 22.0 Q14.1 27.5 15.75 36.1 23.55 61.0 17.05 93.7 L17.1 93.55 Q23.25 81.55 25.5 62.8 28.45 67.95 28.5 69.9 30.8 58.75 29.65 45.35 28.45 31.9 23.2 24.7 17.9 17.5 9.2 14.85 3.85 13.2 -1.2 14.6 -4.35 15.45 -7.4 17.5 -15.3 22.85 -16.9 26.2 L-19.55 31.55 Q-20.6 33.65 -22.1 42.8 M15.05 37.25 Q12.95 39.55 11.6 44.0 L11.4 44.65 10.85 44.3 Q6.7 41.6 4.65 39.15 1.05 41.15 -0.8 44.05 L-1.15 44.5 -5.9 40.1 Q-9.2 40.85 -10.0 44.15 L-10.2 44.75 -10.75 44.45 Q-13.45 42.9 -16.1 40.1 -19.1 41.4 -22.4 44.4 L-23.35 45.2 -23.25 43.95 Q-22.45 33.6 -17.25 24.6 L-15.3 21.9 -15.25 21.85 Q-12.95 19.4 -10.4 17.8 2.0 9.75 16.8 15.65 19.8 16.8 22.15 19.9 31.15 31.7 31.5 47.2 31.8 60.0 28.4 73.45 27.8 69.8 26.4 69.15 23.75 83.9 16.25 97.2 L15.55 98.45 15.05 98.25 15.3 96.85 Q22.8 62.9 15.05 37.25" fill="#000000" fill-rule="evenodd" stroke="none"/>
    <path d="M11.45 22.0 L11.0 21.05 Q13.95 28.25 14.4 33.4 12.45 38.2 11.0 43.85 7.0 40.5 5.65 38.2 L7.1 29.85 Q5.8 33.95 4.85 35.7 0.75 40.1 -1.45 43.25 L-5.65 39.0 Q-6.9 37.95 -2.85 27.7 -8.4 40.7 -10.8 43.25 -17.35 40.05 -13.8 33.35 -17.95 40.65 -22.1 42.8 -17.0 22.45 -1.2 14.6 3.85 13.2 9.2 14.85 17.9 17.5 23.2 24.7 28.45 31.9 29.65 45.35 30.8 58.75 28.5 69.9 28.5 59.45 26.1 49.05 26.55 56.45 25.5 62.8 23.25 81.55 17.1 93.55 29.5 51.05 11.45 22.0 M10.5 41.2 Q11.0 40.2 9.5 22.15 7.3 30.8 7.0 38.0 10.05 42.15 10.5 41.2 M5.95 18.25 Q-1.75 27.15 -4.9 37.75 -4.05 39.9 -1.9 41.4 1.7 38.2 3.0 32.15 4.2 26.1 5.95 18.25 M-11.05 41.5 Q-7.95 29.5 -0.95 18.35 -11.75 26.25 -13.75 33.9 -15.8 41.55 -11.05 41.5" fill="#332622" fill-rule="evenodd" stroke="none"/>
    <path d="M-22.1 42.8 Q-20.6 33.65 -19.55 31.55 L-16.9 26.2 Q-15.3 22.85 -7.4 17.5 -4.35 15.45 -1.2 14.6 -17.0 22.45 -22.1 42.8 M28.5 69.9 Q28.45 67.95 25.5 62.8 26.55 56.45 26.1 49.05 28.5 59.45 28.5 69.9 M17.1 93.55 L17.05 93.7 Q23.55 61.0 15.75 36.1 14.1 27.5 11.45 22.0 29.5 51.05 17.1 93.55 M-11.05 41.5 Q-15.8 41.55 -13.75 33.9 -11.75 26.25 -0.95 18.35 -7.95 29.5 -11.05 41.5 M5.95 18.25 Q4.2 26.1 3.0 32.15 1.7 38.2 -1.9 41.4 -4.05 39.9 -4.9 37.75 -1.75 27.15 5.95 18.25 M10.5 41.2 Q10.05 42.15 7.0 38.0 7.3 30.8 9.5 22.15 11.0 40.2 10.5 41.2" fill="#43322c" fill-rule="evenodd" stroke="none"/>
  </g>
</svg>
