<?xml version="1.0" encoding="UTF-8" standalone="no"?>
<svg xmlns:ffdec="https://www.free-decompiler.com/flash" xmlns:xlink="http://www.w3.org/1999/xlink" ffdec:objectType="shape" height="21.65px" width="30.75px" xmlns="http://www.w3.org/2000/svg">
  <g transform="matrix(1.0, 0.0, 0.0, 1.0, 13.7, 10.6)">
    <path d="M-11.65 3.95 L-11.65 3.65 -9.6 -5.55 Q4.1 -6.2 8.1 1.6 8.5 5.15 7.7 6.55 6.0 6.5 4.75 4.35 2.4 6.7 1.35 7.15 -0.45 5.8 -0.9 4.6 -4.15 5.2 -5.85 6.45 -6.7 3.7 -7.5 2.85 -9.6 4.45 -11.65 3.95" fill="#ea72b0" fill-rule="evenodd" stroke="none"/>
    <path d="M-9.6 -5.55 L-9.05 -8.0 Q-2.5 -6.05 4.5 -7.1 L4.55 -7.1 5.0 -7.2 8.8 -8.1 Q9.65 -1.75 14.65 4.65 L14.7 4.7 Q15.15 5.45 15.0 6.05 L12.75 8.0 Q10.85 9.25 3.2 9.75 -4.5 10.2 -8.1 8.45 -11.7 6.65 -11.65 3.95 -9.6 4.45 -7.5 2.85 -6.7 3.7 -5.85 6.45 -4.15 5.2 -0.9 4.6 -0.45 5.8 1.35 7.15 2.4 6.7 4.75 4.35 6.0 6.5 7.7 6.55 8.5 5.15 8.1 1.6 4.1 -6.2 -9.6 -5.55" fill="#d14e86" fill-rule="evenodd" stroke="none"/>
    <path d="M4.65 -9.15 L4.6 -9.15 4.65 -9.15 9.05 -10.25 9.9 -10.5 Q10.35 -3.35 16.45 3.8 17.4 5.45 16.85 6.75 16.4 8.05 14.55 9.0 11.5 10.5 3.95 10.95 -4.95 11.45 -9.2 9.75 -14.15 7.85 -13.65 3.45 L-13.65 3.4 -13.6 3.35 Q-11.1 -0.2 -10.55 -10.6 L-9.45 -10.25 Q-2.55 -7.35 4.65 -9.15 M-11.65 3.95 Q-11.7 6.65 -8.1 8.45 -4.5 10.2 3.2 9.75 10.85 9.25 12.75 8.0 L15.0 6.05 Q15.15 5.45 14.7 4.7 L14.65 4.65 Q9.65 -1.75 8.8 -8.1 L5.0 -7.2 4.55 -7.1 4.5 -7.1 Q-2.5 -6.05 -9.05 -8.0 L-9.6 -5.55 -11.65 3.65 -11.65 3.95" fill="#52233e" fill-rule="evenodd" stroke="none"/>
  </g>
</svg>
