<?xml version="1.0" encoding="UTF-8" standalone="no"?>
<svg xmlns:ffdec="https://www.free-decompiler.com/flash" xmlns:xlink="http://www.w3.org/1999/xlink" ffdec:objectType="shape" height="23.5px" width="30.05px" xmlns="http://www.w3.org/2000/svg">
  <g transform="matrix(1.0, 0.0, 0.0, 1.0, 12.1, 15.1)">
    <path d="M-9.95 -1.8 L-9.9 -2.1 -5.35 -10.1 Q7.35 -8.9 9.9 -0.5 9.6 3.05 8.6 4.3 6.95 3.95 6.1 1.55 L2.25 3.7 Q0.7 2.05 0.5 0.8 -2.8 0.8 -4.7 1.7 -5.05 -1.15 -5.65 -2.1 -8.0 -0.95 -9.95 -1.8" fill="#ea72b0" fill-rule="evenodd" stroke="none"/>
    <path d="M-9.95 -1.8 Q-10.5 0.85 -7.3 3.3 -4.1 5.65 3.55 6.6 11.15 7.5 13.25 6.6 15.4 5.7 15.8 5.15 16.05 4.55 15.8 3.75 L15.75 3.7 Q12.0 -3.5 12.35 -9.9 L8.45 -9.7 7.95 -9.7 Q0.85 -9.95 -3.95 -12.75 L-5.35 -10.1 -9.9 -2.1 -9.95 -1.8 M8.4 -11.7 L8.45 -11.7 13.0 -11.95 13.85 -12.05 Q13.0 -4.95 17.7 3.15 18.3 4.95 17.55 6.15 16.85 7.35 14.85 7.9 11.6 8.85 4.1 7.95 -4.75 6.75 -8.6 4.35 -13.1 1.6 -11.8 -2.65 L-11.8 -2.7 -11.75 -2.75 Q-8.8 -5.65 -4.6 -15.1 1.1 -11.3 8.4 -11.7" fill="#52233e" fill-rule="evenodd" stroke="none"/>
    <path d="M-5.35 -10.1 L-3.95 -12.75 Q0.85 -9.95 7.95 -9.7 L8.45 -9.7 12.35 -9.9 Q12.0 -3.5 15.75 3.7 L15.8 3.75 Q16.05 4.55 15.8 5.15 15.4 5.7 13.25 6.6 11.15 7.5 3.55 6.6 -4.1 5.65 -7.3 3.3 -10.5 0.85 -9.95 -1.8 -8.0 -0.95 -5.65 -2.1 -5.05 -1.15 -4.7 1.7 -2.8 0.8 0.5 0.8 0.7 2.05 2.25 3.7 L6.1 1.55 Q6.95 3.95 8.6 4.3 9.6 3.05 9.9 -0.5 7.35 -8.9 -5.35 -10.1" fill="#d14e86" fill-rule="evenodd" stroke="none"/>
  </g>
</svg>
