<?xml version="1.0" encoding="UTF-8" standalone="no"?>
<svg xmlns:ffdec="https://www.free-decompiler.com/flash" xmlns:xlink="http://www.w3.org/1999/xlink" ffdec:objectType="shape" height="78.55px" width="78.5px" xmlns="http://www.w3.org/2000/svg">
  <g transform="matrix(1.0, 0.0, 0.0, 1.0, 27.4, 44.5)">
    <path d="M-12.15 -34.1 L-12.05 -33.85 -12.85 -33.5 -12.15 -34.1" fill="#eaa76a" fill-rule="evenodd" stroke="none"/>
    <path d="M8.1 32.1 L11.8 31.9 11.85 32.25 8.1 32.1" fill="#e7964e" fill-rule="evenodd" stroke="none"/>
    <path d="M11.85 -44.5 Q28.05 -44.55 39.55 -33.0 51.1 -21.5 51.1 -5.25 51.1 11.0 39.55 22.5 28.05 34.0 11.85 34.05 L7.3 33.8 7.25 33.8 Q3.35 33.35 -0.2 32.25 -3.35 31.25 -6.2 29.75 -11.45 26.95 -15.95 22.5 -27.5 11.0 -27.4 -5.25 -27.4 -18.95 -19.3 -29.3 L-16.35 -32.65 -16.2 -32.8 -16.0 -32.95 -15.95 -33.0 -15.85 -33.1 -15.8 -33.15 -14.45 -34.4 -14.5 -34.4 Q-3.45 -44.55 11.85 -44.5 M-2.7 29.45 L0.3 30.55 Q3.75 31.6 7.5 32.05 L8.1 32.1 11.85 32.25 Q27.35 32.25 38.35 21.25 49.35 10.25 49.35 -5.25 49.35 -20.75 38.35 -31.75 27.35 -42.75 11.85 -42.7 -1.95 -42.75 -12.15 -34.1 L-12.85 -33.5 -13.3 -33.1 -14.65 -31.8 -14.9 -31.6 -14.95 -31.5 -15.05 -31.4 -17.9 -28.2 Q-25.65 -18.35 -25.65 -5.25 -25.7 10.25 -14.7 21.25 -10.4 25.55 -5.35 28.2 L-2.7 29.45" fill="#6c3d28" fill-rule="evenodd" stroke="none"/>
    <path d="M-12.15 -34.1 Q-3.55 -39.85 7.45 -39.85 22.35 -39.85 32.9 -29.3 43.45 -18.8 43.45 -3.9 43.45 11.0 32.9 21.55 23.9 30.5 11.8 31.9 L8.1 32.1 7.5 32.05 Q3.75 31.6 0.3 30.55 L-2.7 29.45 1.55 29.7 Q15.55 29.7 25.5 20.0 35.35 10.3 35.4 -3.45 35.35 -17.2 25.5 -26.9 15.55 -36.6 1.55 -36.55 -5.85 -36.55 -12.05 -33.85 L-12.15 -34.1" fill="#ebb794" fill-rule="evenodd" stroke="none"/>
    <path d="M11.8 31.9 Q23.9 30.5 32.9 21.55 43.45 11.0 43.45 -3.9 43.45 -18.8 32.9 -29.3 22.35 -39.85 7.45 -39.85 -3.55 -39.85 -12.15 -34.1 -1.95 -42.75 11.85 -42.7 27.35 -42.75 38.35 -31.75 49.35 -20.75 49.35 -5.25 49.35 10.25 38.35 21.25 27.35 32.25 11.85 32.25 L11.8 31.9" fill="#e6a579" fill-rule="evenodd" stroke="none"/>
    <path d="M-12.05 -33.85 Q-5.85 -36.55 1.55 -36.55 15.55 -36.6 25.5 -26.9 35.35 -17.2 35.4 -3.45 35.35 10.3 25.5 20.0 15.55 29.7 1.55 29.7 L-2.7 29.45 -5.35 28.2 Q-10.4 25.55 -14.7 21.25 -25.7 10.25 -25.65 -5.25 -25.65 -18.35 -17.9 -28.2 L-15.05 -31.4 -14.95 -31.5 -14.9 -31.6 -14.65 -31.8 -13.3 -33.1 -12.85 -33.5 -12.05 -33.85" fill="#efc7ab" fill-rule="evenodd" stroke="none"/>
  </g>
</svg>
