<?xml version="1.0" encoding="UTF-8" standalone="no"?>
<svg xmlns:ffdec="https://www.free-decompiler.com/flash" xmlns:xlink="http://www.w3.org/1999/xlink" ffdec:objectType="shape" height="32.2px" width="24.15px" xmlns="http://www.w3.org/2000/svg">
  <g transform="matrix(1.0, 0.0, 0.0, 1.0, 5.05, 19.35)">
    <path d="M0.55 -3.2 Q0.7 -10.8 0.3 -17.25 L0.55 -18.0 Q0.8 -18.3 1.2 -18.35 L11.95 -19.35 12.5 -19.25 12.9 -18.85 13.05 -18.3 Q12.9 -11.1 12.15 -3.35 L11.7 -0.75 Q11.55 -0.35 10.55 0.05 L11.05 -17.25 2.35 -16.45 Q2.9 -7.5 2.25 0.35 L2.15 0.3 Q1.1 -0.05 0.95 -0.45 L0.95 -0.5 0.9 -0.5 0.9 -3.25 0.6 -3.2 0.55 -3.2" fill="#6c3d28" fill-rule="evenodd" stroke="none"/>
    <path d="M2.25 0.35 Q2.9 -7.5 2.35 -16.45 L11.05 -17.25 10.55 0.05 10.5 0.1 10.45 0.1 Q8.75 0.8 6.4 0.9 L6.35 0.9 2.25 0.35" fill="#ebb794" fill-rule="evenodd" stroke="none"/>
    <path d="M0.55 -3.2 L0.6 -3.2 0.9 -3.25 0.9 -0.5 0.95 -0.5 0.95 -0.45 Q1.1 -0.05 2.15 0.3 L2.25 0.35 6.35 0.9 6.4 0.9 Q8.75 0.8 10.45 0.1 L10.5 0.1 10.55 0.05 Q11.55 -0.35 11.7 -0.75 L12.15 -3.35 12.2 -3.7 14.95 -3.1 Q19.05 -1.75 18.95 0.55 L19.1 5.45 19.1 5.75 19.1 5.85 Q19.0 8.65 15.45 10.75 L15.5 10.7 Q12.1 12.75 7.3 12.85 2.45 13.0 -1.05 11.2 -4.95 9.1 -4.9 6.05 L-5.05 1.25 -5.05 1.15 Q-5.3 -1.1 -1.35 -2.55 L-0.8 -2.8 0.55 -3.2 M17.1 5.7 L17.1 5.5 17.05 3.45 15.2 4.35 15.15 4.35 11.05 5.4 10.35 5.5 7.1 5.7 1.65 5.4 0.2 5.1 -1.05 4.75 -2.95 4.0 -2.9 6.0 -2.55 8.65 Q-2.35 9.3 -1.7 9.65 L0.5 10.7 6.55 11.25 Q10.95 11.1 14.45 9.0 16.9 7.55 17.1 5.7 M14.4 -1.2 L13.65 -1.4 13.7 -0.85 13.7 -0.8 Q13.9 0.75 11.55 1.8 L11.25 1.95 10.45 2.25 6.45 2.9 2.05 2.4 1.45 2.2 1.5 2.2 0.4 1.75 Q-1.15 0.9 -1.05 -0.35 L-1.05 -0.4 -1.05 -0.55 Q-2.9 0.25 -3.05 1.15 L-3.05 1.2 Q-2.9 1.7 -2.15 2.15 L-2.1 2.15 Q-2.15 2.8 -0.05 3.65 L0.3 3.75 1.85 4.15 7.6 4.6 10.35 4.45 11.2 4.3 Q14.15 3.65 16.1 1.7 16.85 1.15 16.95 0.6 L16.95 0.55 Q16.7 -0.45 14.35 -1.2 L14.4 -1.2" fill="#201520" fill-rule="evenodd" stroke="none"/>
    <path d="M14.4 -1.2 L14.35 -1.2 Q16.7 -0.45 16.95 0.55 L16.95 0.6 Q16.85 1.15 16.1 1.7 14.15 3.65 11.2 4.3 L10.35 4.45 7.6 4.6 1.85 4.15 0.3 3.75 -0.05 3.65 Q-2.15 2.8 -2.1 2.15 L-2.15 2.15 Q-2.9 1.7 -3.05 1.2 L-3.05 1.15 Q-2.9 0.25 -1.05 -0.55 L-1.05 -0.4 -1.05 -0.35 Q-1.15 0.9 0.4 1.75 L1.5 2.2 1.45 2.2 2.05 2.4 6.45 2.9 10.45 2.25 11.25 1.95 11.55 1.8 Q13.9 0.75 13.7 -0.8 L13.7 -0.85 13.65 -1.4 14.4 -1.2 M17.1 5.7 Q16.9 7.55 14.45 9.0 10.95 11.1 6.55 11.25 L0.5 10.7 -1.7 9.65 Q-2.35 9.3 -2.55 8.65 L-2.9 6.0 -2.95 4.0 -1.05 4.75 0.2 5.1 1.65 5.4 7.1 5.7 10.35 5.5 11.05 5.4 15.15 4.35 15.2 4.35 17.05 3.45 17.1 5.5 17.1 5.7" fill="#352532" fill-rule="evenodd" stroke="none"/>
  </g>
</svg>
