<?xml version="1.0" encoding="UTF-8" standalone="no"?>
<svg xmlns:ffdec="https://www.free-decompiler.com/flash" xmlns:xlink="http://www.w3.org/1999/xlink" ffdec:objectType="shape" height="25.7px" width="34.35px" xmlns="http://www.w3.org/2000/svg">
  <g transform="matrix(1.0, 0.0, 0.0, 1.0, 23.4, -0.1)">
    <path d="M-20.75 17.65 Q-22.45 13.75 -23.4 12.2 L-23.05 11.95 -22.45 11.9 Q-15.75 14.25 -8.65 13.15 L-8.6 13.15 Q3.0 11.15 8.4 0.65 L8.9 0.25 9.2 0.2 9.25 0.2 9.4 0.1 10.55 5.7 Q11.3 10.05 10.65 16.3 L10.4 16.8 10.25 17.15 Q2.7 27.35 -10.1 25.5 -16.8 24.4 -20.75 17.65 M-17.05 14.9 L-15.5 16.45 -15.35 16.5 Q-13.7 17.2 -9.6 17.2 -5.85 17.2 -1.15 15.8 1.65 14.95 3.95 13.45 L7.4 10.45 9.25 8.55 8.9 3.95 8.85 3.3 Q3.0 12.8 -8.35 14.75 -12.8 15.45 -17.05 14.9 L-18.15 14.75 -19.1 14.55 -18.15 14.75 -17.05 14.9 M8.8 14.0 L9.15 14.0 9.3 10.0 Q8.1 11.7 5.15 13.75 -1.05 18.15 -9.9 18.15 -13.25 18.15 -15.0 17.4 L-15.4 17.55 Q-15.85 17.55 -19.65 14.45 L-21.35 14.0 Q-20.2 15.35 -19.35 16.8 L-19.3 16.8 Q-15.8 22.85 -9.85 23.85 -2.55 24.9 2.9 21.75 L3.55 21.35 3.5 21.1 3.5 20.05 Q3.35 13.95 8.8 14.0 M9.05 15.35 L9.1 14.95 Q6.35 14.8 5.5 15.9 L4.85 18.0 Q4.5 18.7 4.3 20.85 6.8 19.0 8.9 16.15 L8.95 16.1 9.05 15.35" fill="#682424" fill-rule="evenodd" stroke="none"/>
    <path d="M-17.05 14.9 Q-12.8 15.45 -8.35 14.75 3.0 12.8 8.85 3.3 L8.9 3.95 9.25 8.55 7.4 10.45 3.95 13.45 Q1.65 14.95 -1.15 15.8 -5.85 17.2 -9.6 17.2 -13.7 17.2 -15.35 16.5 L-15.5 16.45 -17.05 14.9" fill="#e5e5e5" fill-rule="evenodd" stroke="none"/>
    <path d="M9.05 15.35 L8.95 16.1 8.9 16.15 Q6.8 19.0 4.3 20.85 4.5 18.7 4.85 18.0 L5.5 15.9 Q6.35 14.8 9.1 14.95 L9.05 15.35" fill="#b45f50" fill-rule="evenodd" stroke="none"/>
    <path d="M-17.05 14.9 L-18.15 14.75 -19.1 14.55 -18.15 14.75 -17.05 14.9 M8.8 14.0 Q3.35 13.95 3.5 20.05 L3.5 21.1 3.55 21.35 2.9 21.75 Q-2.55 24.9 -9.85 23.85 -15.8 22.85 -19.3 16.8 L-19.35 16.8 Q-20.2 15.35 -21.35 14.0 L-19.65 14.45 Q-15.85 17.55 -15.4 17.55 L-15.0 17.4 Q-13.25 18.15 -9.9 18.15 -1.05 18.15 5.15 13.75 8.1 11.7 9.3 10.0 L9.15 14.0 8.8 14.0" fill="#57352d" fill-rule="evenodd" stroke="none"/>
  </g>
</svg>
