<?xml version="1.0" encoding="UTF-8" standalone="no"?>
<svg xmlns:ffdec="https://www.free-decompiler.com/flash" xmlns:xlink="http://www.w3.org/1999/xlink" ffdec:objectType="shape" height="25.7px" width="34.35px" xmlns="http://www.w3.org/2000/svg">
  <g transform="matrix(1.0, 0.0, 0.0, 1.0, 23.4, -0.1)">
    <path d="M-20.75 17.65 Q-22.45 13.75 -23.4 12.2 L-23.05 11.95 -22.45 11.9 Q-15.75 14.25 -8.65 13.15 L-8.6 13.15 Q3.0 11.15 8.4 0.65 L8.9 0.25 9.2 0.2 9.25 0.2 9.4 0.1 10.55 5.7 Q11.3 10.05 10.65 16.3 L10.4 16.8 10.25 17.15 Q2.7 27.35 -10.1 25.5 -16.8 24.4 -20.75 17.65 M9.25 8.45 L8.9 3.95 8.85 3.3 Q3.0 12.8 -8.35 14.75 -12.75 15.45 -16.95 14.9 L-17.6 14.75 -17.85 14.8 -18.15 14.75 -21.35 14.0 -20.4 15.2 -19.9 15.9 -19.35 16.8 -19.25 16.9 -18.7 17.85 -18.65 17.85 -18.65 17.8 -18.5 17.75 -15.1 20.0 -12.85 19.45 -12.5 19.35 -10.75 18.95 -10.6 18.95 -9.85 18.95 -9.8 19.15 -9.85 19.35 -14.0 20.65 -14.4 21.9 -14.45 21.95 -14.45 22.05 -14.45 22.1 -12.7 23.05 -12.2 23.25 -9.85 23.85 Q-2.55 24.9 2.9 21.75 L2.95 21.75 2.7 21.95 3.3 21.5 3.55 21.35 6.7 18.65 7.2 18.15 8.9 16.15 8.95 16.1 8.95 16.05 9.15 16.05 9.2 15.4 Q8.4 14.7 7.95 14.75 6.1 14.7 4.65 15.4 L4.55 15.45 Q4.3 15.55 4.1 15.7 L3.2 16.15 3.15 16.15 3.1 16.2 2.65 16.2 Q2.55 16.2 2.6 16.0 2.6 15.65 3.75 15.15 L4.15 15.0 4.55 14.8 5.35 14.5 5.45 14.5 5.6 14.45 8.2 13.4 Q8.85 12.5 9.3 11.1 L9.3 11.75 9.3 11.05 9.3 11.0 9.3 9.25 9.2 8.65 9.25 8.55 9.25 8.45 M-17.2 19.75 L-15.8 21.1 -14.6 22.0 -15.3 21.5 -15.35 21.15 Q-15.35 20.9 -16.85 19.95 L-17.35 19.6 -17.2 19.75" fill="#682424" fill-rule="evenodd" stroke="none"/>
    <path d="M-19.35 16.8 L-19.9 15.9 -20.4 15.2 -21.35 14.0 -18.15 14.75 -17.85 14.8 -17.6 14.75 -16.95 14.9 Q-12.75 15.45 -8.35 14.75 3.0 12.8 8.85 3.3 L8.9 3.95 9.25 8.45 9.2 8.5 9.1 8.65 9.2 8.65 9.3 9.25 9.3 11.0 9.3 11.05 9.3 11.1 Q8.85 12.5 8.2 13.4 L5.6 14.45 5.45 14.5 5.35 14.5 4.55 14.8 4.15 15.0 3.95 15.0 3.75 15.15 Q2.6 15.65 2.6 16.0 2.55 16.2 2.65 16.2 L3.1 16.2 3.15 16.15 3.2 16.15 4.1 15.7 Q4.3 15.55 4.55 15.45 L4.65 15.45 4.65 15.4 Q6.1 14.7 7.95 14.75 8.4 14.7 9.2 15.4 L9.15 16.05 8.95 16.05 8.95 16.1 8.9 16.15 7.2 18.15 6.7 18.65 Q6.5 15.95 4.4 16.0 L2.35 16.55 2.15 16.5 2.05 16.25 Q2.05 15.65 5.4 13.15 L6.2 11.8 3.55 13.35 -1.9 15.45 Q-7.2 16.7 -10.35 16.7 L-17.4 16.05 -19.7 15.4 Q-16.75 18.95 -12.35 19.0 L-8.75 18.75 -6.6 18.85 -6.6 19.05 -10.6 21.0 Q-11.8 21.75 -12.2 23.25 L-12.7 23.05 -14.45 22.1 -14.45 22.05 -14.45 21.95 -14.4 21.95 -14.4 21.9 -14.0 20.65 -9.85 19.35 -9.8 19.15 -9.85 18.95 -10.6 18.95 -10.75 18.95 -12.5 19.35 -12.85 19.45 -15.1 20.0 -18.5 17.75 -18.65 17.8 -18.7 17.85 -19.25 16.9 -19.3 16.8 -19.35 16.8" fill="#e5e5e5" fill-rule="evenodd" stroke="none"/>
    <path d="M9.25 8.45 L9.25 8.55 9.2 8.65 9.1 8.65 9.2 8.5 9.25 8.45 M4.15 15.0 L3.75 15.15 3.95 15.0 4.15 15.0 M6.7 18.65 L3.55 21.35 3.3 21.5 2.9 21.75 Q-2.55 24.9 -9.85 23.85 L-12.2 23.25 Q-11.8 21.75 -10.6 21.0 L-6.6 19.05 -6.6 18.85 -8.75 18.75 -12.35 19.0 Q-16.75 18.95 -19.7 15.4 L-17.4 16.05 -10.35 16.7 Q-7.2 16.7 -1.9 15.45 L3.55 13.35 6.2 11.8 5.4 13.15 Q2.05 15.65 2.05 16.25 L2.15 16.5 2.35 16.55 4.4 16.0 Q6.5 15.95 6.7 18.65 M4.55 15.45 L4.65 15.4 4.65 15.45 4.55 15.45" fill="#f9f9f9" fill-rule="evenodd" stroke="none"/>
    <path d="M4.55 15.45 L4.65 15.4 4.55 15.45 M2.95 21.75 L2.9 21.75 3.3 21.5 2.95 21.75 M-19.25 16.9 L-19.35 16.8 -19.3 16.8 -19.25 16.9" fill="#463624" fill-rule="evenodd" stroke="none"/>
    <path d="M-14.45 21.95 L-14.4 21.9 -14.4 21.95 -14.45 21.95 M-17.2 19.75 L-17.35 19.6 -16.85 19.95 Q-15.35 20.9 -15.35 21.15 L-15.3 21.5 -14.6 22.0 -15.8 21.1 -17.2 19.75" fill="#57352d" fill-rule="evenodd" stroke="none"/>
  </g>
</svg>
