<?xml version="1.0" encoding="UTF-8" standalone="no"?>
<svg xmlns:ffdec="https://www.free-decompiler.com/flash" xmlns:xlink="http://www.w3.org/1999/xlink" ffdec:objectType="shape" height="12.25px" width="23.2px" xmlns="http://www.w3.org/2000/svg">
  <g transform="matrix(1.0, 0.0, 0.0, 1.0, 13.4, -9.75)">
    <path d="M-3.75 16.3 L-4.8 16.1 Q-9.55 16.3 -11.05 17.7 L-11.55 17.1 -12.1 16.3 -9.0 14.0 Q-4.65 11.25 1.9 11.25 8.2 11.2 8.2 14.7 8.2 16.95 4.6 19.1 0.1 21.7 -9.65 20.75 L-10.45 20.45 -10.6 20.35 -10.55 20.2 -9.7 19.1 -9.6 18.95 -9.6 18.9 Q-8.05 17.8 -7.3 17.55 L-3.7 16.45 -3.65 16.45 -3.75 16.3" fill="#e5e5e5" fill-rule="evenodd" stroke="none"/>
    <path d="M-10.6 20.35 L-10.45 20.45 -9.65 20.75 Q0.1 21.7 4.6 19.1 8.2 16.95 8.2 14.7 8.2 11.2 1.9 11.25 -4.65 11.25 -9.0 14.0 L-12.1 16.3 -11.55 17.1 -11.05 17.7 Q-9.55 16.3 -4.8 16.1 L-3.75 16.3 -3.7 16.45 -7.3 17.55 Q-8.05 17.8 -9.6 18.9 L-9.7 19.1 -10.55 20.2 -10.85 20.25 -10.6 20.35 M6.95 19.15 Q3.2 21.9 -3.1 21.95 L-6.95 21.85 -7.0 21.85 -8.0 22.0 Q-13.75 21.95 -13.35 17.3 L-13.3 16.65 Q-12.75 14.2 -7.6 12.0 -2.4 9.75 2.9 9.75 7.7 9.75 9.15 12.0 9.8 12.95 9.8 15.0 9.8 17.0 6.95 19.15" fill="#682424" fill-rule="evenodd" stroke="none"/>
    <path d="M-3.75 16.3 L-3.65 16.45 -3.7 16.45 -3.75 16.3 M-9.6 18.9 L-9.6 18.95 -9.7 19.1 -9.6 18.9" fill="#463624" fill-rule="evenodd" stroke="none"/>
  </g>
</svg>
