<?xml version="1.0" encoding="UTF-8" standalone="no"?>
<svg xmlns:ffdec="https://www.free-decompiler.com/flash" xmlns:xlink="http://www.w3.org/1999/xlink" ffdec:objectType="shape" height="21.55px" width="29.7px" xmlns="http://www.w3.org/2000/svg">
  <g transform="matrix(1.0, 0.0, 0.0, 1.0, 17.75, -3.7)">
    <path d="M2.1 23.2 Q-1.7 24.15 -7.1 24.15 L-12.55 23.95 Q-12.45 20.8 -12.6 19.25 -12.9 16.5 -14.9 15.0 L-12.55 12.8 -12.0 12.35 Q-9.1 15.6 -7.6 15.6 L-1.4 13.3 Q4.1 11.0 7.15 11.0 9.0 11.0 9.3 11.5 9.6 12.0 10.7 12.0 L10.8 12.0 10.8 12.05 10.9 13.3 Q11.45 16.25 9.55 18.85 9.4 17.75 7.9 16.45 5.65 14.45 1.9 14.5 -2.1 14.5 -4.15 17.35 -5.5 19.25 -5.5 20.75 -5.5 23.2 -2.3 23.2 -0.2 23.2 2.05 21.1 L3.25 21.75 2.65 22.3 Q2.0 22.65 2.0 23.0 L2.05 23.2 2.1 23.2" fill="#57352d" fill-rule="evenodd" stroke="none"/>
    <path d="M2.05 23.2 L2.0 23.0 Q2.0 22.65 2.65 22.3 L3.25 21.75 2.05 21.1 Q-0.2 23.2 -2.3 23.2 -5.5 23.2 -5.5 20.75 -5.5 19.25 -4.15 17.35 -2.1 14.5 1.9 14.5 5.65 14.45 7.9 16.45 9.4 17.75 9.55 18.85 11.45 16.25 10.9 13.3 L10.8 12.05 10.8 12.0 10.7 12.0 Q9.6 12.0 9.3 11.5 9.0 11.0 7.15 11.0 4.1 11.0 -1.4 13.3 L-7.6 15.6 Q-9.1 15.6 -12.0 12.35 L-12.55 12.8 -14.9 15.0 Q-12.9 16.5 -12.6 19.25 -12.45 20.8 -12.55 23.95 L-7.1 24.15 Q-1.7 24.15 2.1 23.2 L2.8 23.0 2.05 23.2 M-11.3 11.8 Q-10.8 12.1 -9.7 13.15 L-7.7 14.65 Q-6.45 14.65 6.05 10.0 L7.3 9.95 Q9.45 9.95 9.95 10.5 L10.4 10.75 9.5 9.0 Q7.35 5.4 2.9 5.4 -1.65 5.4 -8.15 9.65 L-11.3 11.8 -11.7 12.1 -11.3 11.8 M-4.3 19.5 L-4.6 20.5 Q-4.6 22.05 -2.8 22.05 -0.25 22.05 1.65 20.3 2.9 19.1 3.4 17.7 L3.75 17.55 4.05 17.85 3.8 19.05 3.15 20.05 3.1 20.1 3.2 20.1 3.5 20.1 3.75 20.1 5.1 20.8 5.2 20.95 5.3 21.15 5.35 21.25 5.4 21.85 5.35 22.1 5.5 22.0 6.85 21.3 8.85 19.7 8.4 19.1 7.7 17.65 Q6.25 15.5 1.9 15.5 -3.0 15.5 -4.3 19.5 M10.2 19.75 Q5.95 25.25 -7.15 25.25 L-13.7 25.25 -13.85 25.0 -13.8 24.45 -13.65 23.3 -13.6 21.25 Q-13.6 15.8 -16.0 15.8 -16.45 15.8 -17.3 16.5 L-17.75 15.85 Q-3.85 3.7 4.25 3.7 8.5 3.7 10.65 8.3 11.75 10.65 11.95 13.2 11.95 17.45 10.2 19.75" fill="#682424" fill-rule="evenodd" stroke="none"/>
    <path d="M-11.3 11.8 L-8.15 9.65 Q-1.65 5.4 2.9 5.4 7.35 5.4 9.5 9.0 L10.4 10.75 9.95 10.5 Q9.45 9.95 7.3 9.95 L6.05 10.0 Q-6.45 14.65 -7.7 14.65 L-9.7 13.15 Q-10.8 12.1 -11.3 11.8" fill="#e5e5e5" fill-rule="evenodd" stroke="none"/>
    <path d="M4.05 17.85 L3.75 17.55 3.4 17.7 Q2.9 19.1 1.65 20.3 -0.25 22.05 -2.8 22.05 -4.6 22.05 -4.6 20.5 L-4.3 19.5 Q-3.4 20.6 -1.45 20.6 1.0 20.6 2.4 18.8 L3.85 17.0 Q6.45 16.95 6.9 20.8 L6.85 21.3 5.5 22.0 5.4 21.85 5.35 21.25 5.3 21.15 5.2 20.95 5.1 20.8 3.75 20.1 3.5 20.1 3.8 19.05 4.05 17.85 3.95 18.75 3.95 19.05 4.25 18.4 4.25 17.3 4.2 17.85 4.05 17.85" fill="#a05345" fill-rule="evenodd" stroke="none"/>
    <path d="M4.05 17.85 L4.2 17.85 4.25 17.3 4.25 18.4 3.95 19.05 3.95 18.75 4.05 17.85" fill="#463624" fill-rule="evenodd" stroke="none"/>
    <path d="M3.8 19.05 L3.5 20.1 3.2 20.1 3.15 20.05 3.8 19.05 M6.85 21.3 L6.9 20.8 Q6.45 16.95 3.85 17.0 L2.4 18.8 Q1.0 20.6 -1.45 20.6 -3.4 20.6 -4.3 19.5 -3.0 15.5 1.9 15.5 6.25 15.5 7.7 17.65 L8.4 19.1 8.85 19.7 6.85 21.3" fill="#b45f50" fill-rule="evenodd" stroke="none"/>
  </g>
</svg>
