<?xml version="1.0" encoding="UTF-8" standalone="no"?>
<svg xmlns:ffdec="https://www.free-decompiler.com/flash" xmlns:xlink="http://www.w3.org/1999/xlink" ffdec:objectType="shape" height="17.6px" width="27.0px" xmlns="http://www.w3.org/2000/svg">
  <g transform="matrix(1.0, 0.0, 0.0, 1.0, 19.1, -6.55)">
    <path d="M7.45 6.65 Q8.2 6.7 7.65 6.75 L7.55 6.75 7.45 6.65" fill="#463624" fill-rule="evenodd" stroke="none"/>
    <path d="M6.75 8.5 L6.9 9.15 Q6.85 13.3 4.8 17.05 0.85 24.15 -8.85 24.15 -12.3 24.15 -13.6 23.5 -15.35 22.65 -16.05 20.0 -16.45 18.4 -18.1 15.5 L-18.1 15.2 -18.0 15.15 -19.1 13.25 Q-11.05 16.0 -2.85 13.25 2.75 11.2 6.8 6.75 L7.45 6.65 7.55 6.75 Q7.05 6.8 6.65 8.3 L6.6 8.4 6.55 8.55 6.75 8.5 M5.8 9.9 Q4.55 11.4 1.55 13.5 -3.0 16.55 -9.2 16.75 -14.15 16.9 -16.65 16.0 -16.05 16.95 -15.2 18.95 L-14.2 21.0 Q-13.95 21.55 -14.15 22.15 L-9.1 22.5 -6.2 22.35 Q-4.75 16.65 0.85 16.65 2.45 16.65 3.65 17.2 L4.4 15.75 Q5.15 13.95 5.65 10.9 L5.8 9.9 M0.9 17.55 Q-3.1 17.55 -4.5 20.0 -5.0 20.85 -5.3 22.25 0.25 21.45 3.0 18.15 L0.9 17.55" fill="#682424" fill-rule="evenodd" stroke="none"/>
    <path d="M6.65 8.3 L6.75 8.5 6.55 8.55 6.6 8.4 6.65 8.3" fill="#463623" fill-rule="evenodd" stroke="none"/>
    <path d="M5.8 9.9 L5.65 10.9 Q5.15 13.95 4.4 15.75 L3.65 17.2 Q2.45 16.65 0.85 16.65 -4.75 16.65 -6.2 22.35 L-9.1 22.5 -14.15 22.15 Q-13.95 21.55 -14.2 21.0 L-15.2 18.95 Q-16.05 16.95 -16.65 16.0 -14.15 16.9 -9.2 16.75 -3.0 16.55 1.55 13.5 4.55 11.4 5.8 9.9" fill="#57352d" fill-rule="evenodd" stroke="none"/>
    <path d="M0.9 17.55 L3.0 18.15 Q0.25 21.45 -5.3 22.25 -5.0 20.85 -4.5 20.0 -3.1 17.55 0.9 17.55" fill="#b45f50" fill-rule="evenodd" stroke="none"/>
  </g>
</svg>
