<?xml version="1.0" encoding="UTF-8" standalone="no"?>
<svg xmlns:ffdec="https://www.free-decompiler.com/flash" xmlns:xlink="http://www.w3.org/1999/xlink" ffdec:objectType="shape" height="16.75px" width="26.95px" xmlns="http://www.w3.org/2000/svg">
  <g transform="matrix(1.0, 0.0, 0.0, 1.0, 19.7, -7.0)">
    <path d="M6.85 7.05 Q7.6 7.15 7.0 7.15 L6.9 7.15 6.85 7.05" fill="#463624" fill-rule="evenodd" stroke="none"/>
    <path d="M6.85 7.05 L6.9 7.15 Q6.6 7.25 6.35 7.8 L6.45 8.75 Q6.45 10.25 5.2 16.35 4.3 21.15 -8.35 23.75 -15.15 23.75 -15.1 21.25 -15.1 20.45 -16.6 18.2 L-17.95 16.15 -18.45 15.85 -19.7 13.65 Q-11.65 16.4 -3.5 13.7 2.1 11.65 6.15 7.15 L6.85 7.05 M0.7 19.8 Q5.2 17.5 4.8 14.8 4.4 12.1 5.3 10.05 3.0 12.45 -0.65 14.2 -4.35 15.95 -9.3 16.5 -14.35 17.1 -17.9 15.55 -15.75 17.6 -14.8 19.25 L-14.4 20.15 -13.2 20.0 -9.6 20.2 -9.2 20.45 -9.55 20.5 -14.0 21.6 -9.2 22.05 Q-3.8 22.05 0.7 19.8" fill="#682424" fill-rule="evenodd" stroke="none"/>
    <path d="M0.7 19.8 Q-3.8 22.05 -9.2 22.05 L-14.0 21.6 -9.55 20.5 -9.2 20.45 -9.6 20.2 -13.2 20.0 -14.4 20.15 -14.8 19.25 Q-15.75 17.6 -17.9 15.55 -14.35 17.1 -9.3 16.5 -4.35 15.95 -0.65 14.2 3.0 12.45 5.3 10.05 4.4 12.1 4.8 14.8 5.2 17.5 0.7 19.8" fill="#e5e5e5" fill-rule="evenodd" stroke="none"/>
  </g>
</svg>
