<?xml version="1.0" encoding="UTF-8" standalone="no"?>
<svg xmlns:ffdec="https://www.free-decompiler.com/flash" xmlns:xlink="http://www.w3.org/1999/xlink" ffdec:objectType="shape" height="13.8px" width="30.75px" xmlns="http://www.w3.org/2000/svg">
  <g transform="matrix(1.0, 0.0, 0.0, 1.0, 21.35, -4.7)">
    <path d="M5.25 4.9 L5.15 4.75 Q5.9 4.85 5.35 4.85 L5.25 4.9" fill="#463624" fill-rule="evenodd" stroke="none"/>
    <path d="M5.15 4.75 L5.25 4.9 4.95 5.05 Q8.9 5.1 9.4 11.1 6.85 18.65 2.65 18.5 L-6.5 17.25 Q-11.25 16.25 -14.2 14.9 -18.25 14.7 -20.1 13.55 L-21.35 11.4 Q-13.3 14.15 -5.15 11.4 0.45 9.35 4.5 4.85 L5.15 4.75 M7.7 10.9 Q7.7 8.45 3.8 7.6 2.7 9.25 -0.75 11.6 -4.05 13.8 -8.2 14.55 L-5.0 15.3 0.2 16.4 1.15 16.75 Q1.05 16.6 1.3 15.45 1.45 14.2 2.4 12.3 3.35 10.35 4.8 10.4 L7.3 10.8 7.7 11.0 7.7 10.9 M7.35 12.15 L7.5 11.8 7.35 12.15 4.4 11.95 Q3.35 11.9 2.65 14.15 2.05 15.85 2.3 16.95 2.55 16.65 3.8 16.65 4.9 16.65 6.4 14.0 L7.35 12.15" fill="#682424" fill-rule="evenodd" stroke="none"/>
    <path d="M7.7 11.0 L7.3 10.8 4.8 10.4 Q3.35 10.35 2.4 12.3 1.45 14.2 1.3 15.45 1.05 16.6 1.15 16.75 L0.2 16.4 -5.0 15.3 -8.2 14.55 Q-4.05 13.8 -0.75 11.6 2.7 9.25 3.8 7.6 7.7 8.45 7.7 10.9 L7.7 11.0" fill="#57352d" fill-rule="evenodd" stroke="none"/>
    <path d="M7.35 12.15 L6.4 14.0 Q4.9 16.65 3.8 16.65 2.55 16.65 2.3 16.95 2.05 15.85 2.65 14.15 3.35 11.9 4.4 11.95 L7.35 12.15" fill="#b45f50" fill-rule="evenodd" stroke="none"/>
  </g>
</svg>
