<?xml version="1.0" encoding="UTF-8" standalone="no"?>
<svg xmlns:ffdec="https://www.free-decompiler.com/flash" xmlns:xlink="http://www.w3.org/1999/xlink" ffdec:objectType="shape" height="6.5px" width="19.55px" xmlns="http://www.w3.org/2000/svg">
  <g transform="matrix(1.0, 0.0, 0.0, 1.0, 15.45, -14.5)">
    <path d="M2.35 15.9 L1.45 15.75 Q-0.65 15.7 -2.3 16.75 -3.8 17.7 -3.85 18.7 L-6.75 18.45 -11.05 19.0 -11.05 18.25 Q-11.05 17.55 -11.5 16.65 -9.1 15.5 -0.35 15.5 L1.75 15.75 2.0 15.7 2.35 15.9" fill="#57352d" fill-rule="evenodd" stroke="none"/>
    <path d="M2.35 15.9 L2.0 15.7 1.75 15.75 -0.35 15.5 Q-9.1 15.5 -11.5 16.65 -11.05 17.55 -11.05 18.25 L-11.05 19.0 -6.75 18.45 -3.85 18.7 Q-3.8 17.7 -2.3 16.75 -0.65 15.7 1.45 15.75 L2.35 15.9 2.6 16.1 2.35 15.9 M2.95 16.5 Q2.35 17.0 1.1 17.0 -0.55 16.95 -1.05 17.35 -1.95 17.9 -1.95 18.5 -2.0 18.8 -2.65 18.8 L-2.7 18.85 -2.1 19.0 2.85 19.5 Q3.35 19.45 3.35 18.15 L2.95 16.5 M4.1 18.1 Q4.1 20.4 2.4 20.4 L-1.9 19.9 -7.15 19.35 Q-9.8 19.35 -11.95 20.2 -14.15 21.0 -14.65 21.0 L-15.05 20.95 -15.2 20.5 Q-15.2 19.95 -12.05 19.25 L-11.7 19.15 Q-12.5 18.4 -12.5 16.6 -13.4 16.9 -15.35 17.7 -15.45 18.0 -15.45 17.5 -15.45 16.85 -11.95 16.0 L-12.35 16.1 Q-11.95 15.65 -10.45 15.45 L-6.8 15.05 -4.25 14.8 -1.85 14.55 -0.4 14.5 1.9 14.75 Q4.2 15.35 4.1 18.1" fill="#682424" fill-rule="evenodd" stroke="none"/>
    <path d="M2.95 16.5 L3.35 18.15 Q3.35 19.45 2.85 19.5 L-2.1 19.0 -2.7 18.85 -2.65 18.8 Q-2.0 18.8 -1.95 18.5 -1.95 17.9 -1.05 17.35 -0.55 16.95 1.1 17.0 2.35 17.0 2.95 16.5" fill="#b45f50" fill-rule="evenodd" stroke="none"/>
  </g>
</svg>
