<?xml version="1.0" encoding="UTF-8" standalone="no"?>
<svg xmlns:ffdec="https://www.free-decompiler.com/flash" xmlns:xlink="http://www.w3.org/1999/xlink" ffdec:objectType="shape" height="7.5px" width="15.25px" xmlns="http://www.w3.org/2000/svg">
  <g transform="matrix(1.0, 0.0, 0.0, 1.0, 19.2, -15.0)">
    <path d="M-17.1 21.55 Q-9.4 21.55 -5.7 19.0 -6.0 18.15 -6.6 17.85 L-7.1 17.35 Q-18.35 15.45 -18.35 19.7 -18.35 21.55 -17.1 21.55 M-19.1 19.7 Q-19.1 17.0 -13.75 16.15 L-13.1 16.0 -12.85 16.0 Q-12.4 14.95 -9.25 15.0 -3.65 14.95 -3.95 18.3 -4.05 19.45 -4.6 20.0 L-4.75 19.55 -4.9 19.75 -5.1 19.85 -5.2 20.0 -7.9 21.25 Q-11.6 22.5 -15.6 22.5 -19.85 22.45 -19.1 19.7" fill="#682424" fill-rule="evenodd" stroke="none"/>
    <path d="M-17.1 21.55 Q-18.35 21.55 -18.35 19.7 -18.35 15.45 -7.1 17.35 L-6.6 17.85 Q-6.0 18.15 -5.7 19.0 -9.4 21.55 -17.1 21.55" fill="#b45f50" fill-rule="evenodd" stroke="none"/>
  </g>
</svg>
