<?xml version="1.0" encoding="UTF-8" standalone="no"?>
<svg xmlns:ffdec="https://www.free-decompiler.com/flash" xmlns:xlink="http://www.w3.org/1999/xlink" ffdec:objectType="shape" height="178.65px" width="71.4px" xmlns="http://www.w3.org/2000/svg">
  <g transform="matrix(1.0, 0.0, 0.0, 1.0, 32.4, 142.15)">
    <path d="M7.15 -6.7 L7.35 -6.7 Q7.95 -6.7 8.35 -6.3 8.75 -5.9 8.75 -5.3 8.75 -4.7 8.35 -4.3 7.95 -3.9 7.35 -3.9 L7.3 -3.9 Q6.8 -3.9 6.4 -4.25 L6.35 -4.3 Q6.1 -4.55 6.0 -4.85 L5.95 -5.3 Q5.95 -5.9 6.35 -6.3 L7.15 -6.7 M-20.4 -22.55 Q-20.0 -22.15 -20.0 -21.55 -20.0 -20.95 -20.4 -20.55 -20.8 -20.15 -21.4 -20.15 -22.0 -20.15 -22.4 -20.55 -22.8 -20.95 -22.8 -21.55 -22.8 -22.15 -22.4 -22.55 -22.0 -22.95 -21.4 -22.95 -20.8 -22.95 -20.4 -22.55 M-20.75 -15.8 Q-20.75 -15.2 -21.15 -14.8 -21.55 -14.4 -22.15 -14.4 -22.75 -14.4 -23.15 -14.8 -23.55 -15.2 -23.55 -15.8 -23.55 -16.4 -23.15 -16.8 -22.75 -17.2 -22.15 -17.2 -21.55 -17.2 -21.15 -16.8 -20.75 -16.4 -20.75 -15.8" fill="#999999" fill-rule="evenodd" stroke="none"/>
    <path d="M-16.2 -122.45 L-16.15 -122.45 -16.35 -122.15 -16.2 -122.45 M-31.9 -91.5 L-32.25 -89.2 Q-32.8 -81.95 -26.05 -73.05 L-26.0 -73.0 Q-34.0 -83.35 -31.9 -91.5 M-22.7 -54.25 L-22.25 -54.0 -22.05 -54.0 -22.0 -54.0 -21.35 -54.2 -21.15 -54.4 -21.0 -54.6 Q-21.85 -48.45 -24.1 -42.75 -28.8 -30.95 -26.9 -28.0 L-28.7 -28.85 -29.5 -29.45 Q-28.1 -36.1 -25.45 -42.95 -23.4 -48.45 -22.7 -54.25 M23.5 -39.55 Q27.6 -39.05 32.15 -39.5 L32.2 -39.5 33.15 -39.6 33.7 -28.4 33.4 -28.25 29.9 -27.1 Q28.2 -36.7 23.5 -39.55" fill="#333333" fill-rule="evenodd" stroke="none"/>
    <path d="M-21.0 -54.6 L-20.75 -54.85 Q-14.05 -62.25 -10.15 -71.05 L-8.9 -67.25 -8.9 -67.2 Q-4.05 -57.55 3.65 -49.15 L3.65 -49.2 4.2 -48.7 4.1 -48.75 Q6.85 -46.15 9.95 -44.25 12.6 -42.6 15.55 -41.45 19.3 -40.05 23.5 -39.55 28.2 -36.7 29.9 -27.1 L29.75 -27.05 24.0 -25.85 23.95 -25.85 11.7 -24.6 11.65 -24.6 10.25 -24.55 Q6.7 -24.4 2.9 -24.4 L-4.1 -24.5 -4.5 -24.55 Q-13.7 -24.95 -20.75 -26.3 -24.65 -27.1 -26.9 -28.0 -28.8 -30.95 -24.1 -42.75 -21.85 -48.45 -21.0 -54.6 M24.1 -36.2 L23.75 -36.4 23.4 -36.25 23.2 -35.9 22.7 -28.65 22.85 -28.3 Q22.95 -28.15 23.2 -28.15 L23.55 -28.25 23.7 -28.6 24.2 -35.85 24.1 -36.2 M13.95 -27.65 Q15.15 -32.55 15.7 -37.4 -1.1 -45.5 -11.05 -63.4 L-19.8 -50.9 Q-26.05 -30.7 -25.05 -29.9 -6.2 -24.0 13.95 -27.65" fill="#4e4e4e" fill-rule="evenodd" stroke="none"/>
    <path d="M24.1 -36.2 L24.2 -35.85 23.7 -28.6 23.55 -28.25 23.2 -28.15 Q22.95 -28.15 22.85 -28.3 L22.7 -28.65 23.2 -35.9 23.4 -36.25 23.75 -36.4 24.1 -36.2 M13.95 -27.65 Q-6.2 -24.0 -25.05 -29.9 -26.05 -30.7 -19.8 -50.9 L-11.05 -63.4 Q-1.1 -45.5 15.7 -37.4 15.15 -32.55 13.95 -27.65" fill="#5f5f5f" fill-rule="evenodd" stroke="none"/>
    <path d="M33.75 -26.25 L34.2 -26.4 34.25 -26.45 Q35.0 -26.8 34.6 -23.4 L34.25 -16.05 Q35.75 -16.7 35.95 -16.45 L36.0 -16.3 Q35.45 -15.55 33.95 -14.85 L31.55 -13.95 Q31.9 -19.4 31.1 -25.35 L33.75 -26.25 M9.0 -22.5 L7.3 -7.7 Q6.3 -7.65 5.65 -7.0 4.95 -6.3 4.95 -5.3 4.95 -4.85 5.1 -4.5 2.55 -3.75 -0.35 -5.35 L-1.3 -10.5 -1.3 -10.55 -2.55 -21.45 Q-0.45 -22.4 2.9 -22.4 L9.0 -22.5 M9.65 -10.0 Q18.15 -10.35 24.95 -11.45 L24.5 -9.25 24.3 -8.4 31.15 -10.5 31.2 -10.85 31.45 -12.9 Q33.1 -12.7 33.9 -11.7 34.45 -11.05 34.65 -10.0 35.05 -7.45 33.6 4.4 32.15 16.3 25.8 23.25 19.5 30.15 13.65 31.1 L12.9 30.9 Q12.5 30.95 12.25 31.3 L10.65 33.35 Q5.15 34.8 -4.35 34.2 -13.9 33.55 -22.6 21.4 -31.3 9.25 -30.75 -2.05 L-30.55 -5.7 Q-30.15 -11.3 -29.45 -12.9 L-28.9 -13.55 -21.25 -11.85 -18.8 -11.4 -2.95 -9.45 -1.2 -4.45 -0.9 -4.4 5.3 -4.05 5.65 -3.6 Q6.35 -2.9 7.35 -2.9 L7.4 -2.9 Q8.35 5.35 11.95 9.1 14.6 12.0 18.75 12.4 L22.15 12.3 21.9 13.0 21.85 13.25 21.95 13.75 22.55 14.25 23.3 14.2 23.8 13.65 24.5 11.45 24.6 11.25 24.6 11.2 24.7 10.85 24.55 10.1 23.95 9.65 23.2 9.75 22.8 10.15 21.35 10.35 Q16.35 10.8 13.4 7.75 10.1 4.15 9.35 -3.9 9.75 -4.5 9.75 -5.3 9.75 -6.3 9.05 -7.0 L9.65 -10.0 M29.9 -15.35 Q29.55 -12.3 29.75 -11.25 27.7 -9.1 25.65 -9.85 L26.05 -12.0 26.05 -12.1 Q27.0 -18.6 25.0 -24.05 L29.25 -24.05 Q30.25 -18.45 29.9 -15.35 M26.75 -1.35 L27.1 -2.05 27.35 -5.05 27.1 -5.8 26.45 -6.15 Q26.0 -6.2 25.7 -5.9 L25.35 -5.2 25.1 -2.25 Q25.05 -1.85 25.35 -1.5 25.6 -1.2 26.0 -1.15 L26.75 -1.35 M-25.05 -6.6 Q-28.0 -7.15 -28.45 -3.9 -28.85 -1.3 -27.6 3.75 -26.6 8.05 -25.3 11.1 -23.3 16.05 -20.65 17.6 -16.4 20.1 -9.65 21.55 -4.3 22.7 0.1 20.6 L2.25 19.35 3.8 18.1 Q7.5 14.75 7.75 10.0 8.0 4.3 3.9 0.5 -0.25 -3.3 -10.0 -4.45 L-25.05 -6.6 M25.65 1.85 Q25.2 1.75 24.9 2.0 24.55 2.25 24.5 2.65 L23.95 5.6 Q23.85 6.0 24.1 6.35 24.3 6.7 24.7 6.8 L24.75 6.8 25.45 6.65 25.9 6.0 26.1 4.9 26.45 3.0 26.25 2.25 Q26.0 1.9 25.65 1.85 M20.7 17.15 L20.15 17.65 18.9 20.4 Q18.7 20.75 18.85 21.15 L19.4 21.7 20.15 21.75 20.7 21.25 22.0 18.45 22.0 17.7 21.45 17.15 Q21.05 16.95 20.7 17.15 M17.2 24.25 Q16.8 24.35 16.6 24.7 L15.05 27.3 Q14.85 27.65 14.95 28.05 15.0 28.45 15.4 28.65 L16.15 28.8 16.75 28.35 18.35 25.7 18.45 24.95 17.95 24.35 17.2 24.25" fill="#3a4147" fill-rule="evenodd" stroke="none"/>
    <path d="M12.05 -22.6 L24.05 -23.85 Q25.95 -18.7 25.1 -12.5 L9.8 -11.0 12.05 -22.6 M-27.4 -26.0 L-21.15 -24.35 -18.1 -23.8 -19.2 -12.5 -21.05 -12.85 Q-27.25 -14.05 -29.4 -15.5 L-30.05 -16.0 -30.0 -16.5 -29.95 -16.75 -30.05 -16.9 -30.0 -17.25 -29.6 -27.05 Q-28.75 -26.5 -27.4 -26.0 M-23.1 -19.85 Q-22.4 -19.15 -21.4 -19.15 -20.4 -19.15 -19.7 -19.85 -19.0 -20.55 -19.0 -21.55 -19.0 -22.55 -19.7 -23.25 -20.4 -23.95 -21.4 -23.95 -22.4 -23.95 -23.1 -23.25 -23.8 -22.55 -23.8 -21.55 -23.8 -20.55 -23.1 -19.85 M-22.15 -18.2 Q-23.15 -18.2 -23.85 -17.5 -24.55 -16.8 -24.55 -15.8 -24.55 -14.8 -23.85 -14.1 -23.15 -13.4 -22.15 -13.4 -21.15 -13.4 -20.45 -14.1 -19.75 -14.8 -19.75 -15.8 -19.75 -16.8 -20.45 -17.5 -21.15 -18.2 -22.15 -18.2 M-25.05 -6.6 L-10.0 -4.45 Q-0.25 -3.3 3.9 0.5 8.0 4.3 7.75 10.0 7.5 14.75 3.8 18.1 L2.25 19.35 0.1 20.6 Q-4.3 22.7 -9.65 21.55 -16.4 20.1 -20.65 17.6 -23.3 16.05 -25.3 11.1 -26.6 8.05 -27.6 3.75 -28.85 -1.3 -28.45 -3.9 -28.0 -7.15 -25.05 -6.6 M-4.6 -22.55 L-2.4 -10.95 Q-11.25 -11.25 -16.95 -12.3 -18.15 -15.8 -17.1 -23.65 L-4.6 -22.55" fill="#424a53" fill-rule="evenodd" stroke="none"/>
    <path d="M-30.75 -91.7 Q-31.35 -89.3 -31.45 -86.4 -31.55 -83.6 -25.25 -75.35 L-24.85 -74.8 Q-23.2 -76.1 -19.6 -85.35 L-18.95 -87.0 -19.0 -87.0 Q-13.05 -100.7 -13.1 -107.9 -13.2 -115.1 -11.45 -119.9 -9.75 -124.7 -5.5 -129.25 L-5.55 -129.25 Q0.65 -136.1 5.8 -136.45 2.5 -140.6 0.1 -140.0 -6.1 -137.9 -14.4 -121.55 L-14.4 -121.5 -15.45 -119.5 -16.85 -116.75 -30.75 -91.7 M20.05 -123.75 Q15.2 -131.5 10.1 -133.65 L7.7 -134.35 7.55 -134.4 7.35 -134.4 Q2.4 -135.05 -4.05 -127.9 -8.0 -123.6 -9.9 -118.45 L-9.95 -118.2 Q-11.35 -114.4 -11.6 -110.15 -12.25 -99.45 -17.1 -86.3 L-17.1 -86.25 -17.75 -84.65 -17.8 -84.55 Q-21.3 -75.5 -23.7 -73.3 L-23.9 -73.1 Q-20.75 -65.8 -21.85 -55.75 L-20.7 -57.25 Q-14.1 -66.1 -10.9 -74.55 L-10.8 -74.8 -10.35 -76.05 -10.4 -76.0 Q-8.9 -80.45 -7.95 -84.95 L-7.9 -85.1 Q-6.8 -90.85 -6.5 -96.7 -5.9 -109.55 -0.85 -116.6 4.25 -124.0 10.8 -124.35 L12.65 -124.4 14.9 -124.3 Q17.6 -124.0 20.25 -123.05 L21.0 -120.6 Q22.75 -114.75 23.7 -110.55 L25.85 -98.65 33.25 -53.85 Q37.45 -47.7 35.3 -40.65 L35.1 -40.2 Q34.85 -39.85 34.45 -39.8 L33.15 -39.6 32.2 -39.5 32.15 -39.5 Q27.6 -39.05 23.5 -39.55 19.3 -40.05 15.55 -41.45 12.6 -42.6 9.95 -44.25 6.85 -46.15 4.1 -48.75 L4.2 -48.7 3.65 -49.2 3.65 -49.15 Q-4.05 -57.55 -8.9 -67.2 L-8.9 -67.25 -10.15 -71.05 Q-14.05 -62.25 -20.75 -54.85 L-21.0 -54.6 -21.15 -54.4 -21.35 -54.2 -22.0 -54.0 -22.05 -54.0 -22.25 -54.0 -22.7 -54.25 -22.75 -54.35 -23.0 -55.0 -23.0 -55.05 -23.0 -55.1 Q-22.2 -64.5 -26.0 -73.0 L-26.05 -73.05 Q-32.8 -81.95 -32.25 -89.2 L-31.9 -91.5 -31.15 -93.7 -30.8 -94.45 -30.4 -95.25 -30.4 -95.2 -17.75 -119.4 -17.25 -120.4 -17.25 -120.35 -16.35 -122.15 -16.15 -122.45 -16.2 -122.45 Q-7.4 -139.9 -0.5 -141.9 3.45 -143.35 8.45 -136.25 16.5 -134.85 19.45 -125.65 L20.05 -123.75 M18.2 -121.6 L17.75 -121.7 15.85 -122.1 13.6 -122.35 10.95 -122.35 Q5.25 -121.9 0.8 -115.45 -3.9 -108.75 -4.5 -96.6 -4.8 -90.75 -5.9 -85.0 -4.15 -80.7 -1.75 -76.65 1.35 -71.25 5.55 -66.2 L5.55 -66.15 7.8 -63.55 11.55 -59.6 12.05 -59.15 12.1 -59.1 Q20.1 -51.5 26.85 -52.45 28.15 -52.6 29.45 -53.1 28.25 -72.15 27.05 -85.85 21.35 -119.65 18.2 -121.6 M4.15 -64.7 L4.0 -64.9 Q-0.05 -69.75 -3.1 -74.95 L-3.5 -75.65 Q-5.25 -78.6 -6.65 -81.7 -7.45 -78.5 -8.5 -75.35 L-8.85 -74.3 Q-8.3 -71.2 -7.1 -68.05 L-7.05 -67.95 Q-3.55 -59.05 5.05 -50.6 L5.4 -50.25 5.45 -50.25 5.5 -50.2 Q7.6 -48.2 9.9 -46.65 L11.0 -45.95 Q13.5 -44.4 16.25 -43.3 L16.6 -43.2 21.05 -41.95 31.95 -41.5 33.0 -41.7 33.05 -41.7 Q33.7 -45.1 32.55 -47.95 L31.5 -49.85 31.55 -51.9 31.6 -51.9 Q28.95 -50.45 26.2 -50.25 19.9 -49.85 12.75 -55.8 L10.75 -57.6 10.7 -57.65 10.15 -58.2 10.15 -58.15 6.35 -62.2 6.3 -62.25 6.2 -62.4 4.15 -64.7" fill="#5e1c1e" fill-rule="evenodd" stroke="none"/>
    <path d="M-16.85 -116.75 L-15.45 -119.5 -14.4 -121.5 -14.4 -121.55 Q-6.1 -137.9 0.1 -140.0 2.5 -140.6 5.8 -136.45 0.65 -136.1 -5.55 -129.25 L-5.5 -129.25 Q-9.75 -124.7 -11.45 -119.9 -13.2 -115.1 -13.1 -107.9 -13.05 -100.7 -19.0 -87.0 L-18.95 -87.0 -19.6 -85.35 Q-23.2 -76.1 -24.85 -74.8 L-25.25 -75.35 Q-31.55 -83.6 -31.45 -86.4 -31.35 -89.3 -30.75 -91.7 L-29.95 -90.85 Q-28.55 -89.65 -27.1 -90.4 -24.45 -91.8 -22.05 -94.95 -19.85 -97.9 -16.85 -116.7 L-16.85 -116.75 M10.0 -107.3 Q17.45 -119.35 11.45 -119.55 5.4 -119.75 1.55 -113.4 -2.3 -107.15 -5.05 -85.4 0.95 -72.15 5.7 -67.15 9.15 -63.55 13.7 -61.15 18.2 -58.8 19.0 -64.55 19.75 -70.35 14.7 -77.5 9.6 -84.7 9.95 -91.2 10.3 -97.75 7.45 -95.3 4.6 -92.9 2.15 -87.5 -0.3 -82.1 1.15 -88.65 2.55 -95.25 10.0 -107.3 M18.2 -121.6 Q21.35 -119.65 27.05 -85.85 28.25 -72.15 29.45 -53.1 28.15 -52.6 26.85 -52.45 20.1 -51.5 12.1 -59.1 L12.05 -59.15 11.55 -59.6 7.8 -63.55 5.55 -66.15 5.55 -66.2 Q1.35 -71.25 -1.75 -76.65 -4.15 -80.7 -5.9 -85.0 -4.8 -90.75 -4.5 -96.6 -3.9 -108.75 0.8 -115.45 5.25 -121.9 10.95 -122.35 L13.6 -122.35 15.85 -122.1 17.75 -121.7 18.2 -121.6" fill="#c77a7a" fill-rule="evenodd" stroke="none"/>
    <path d="M-9.95 -118.2 L-9.9 -118.45 Q-8.0 -123.6 -4.05 -127.9 2.4 -135.05 7.35 -134.4 L7.55 -134.4 7.7 -134.35 10.1 -133.65 Q15.2 -131.5 20.05 -123.75 L20.55 -122.95 20.25 -123.05 Q17.6 -124.0 14.9 -124.3 L12.65 -124.4 10.8 -124.35 Q4.25 -124.0 -0.85 -116.6 -5.9 -109.55 -6.5 -96.7 -6.8 -90.85 -7.9 -85.1 L-7.95 -84.95 Q-8.9 -80.45 -10.4 -76.0 L-10.35 -76.05 -10.8 -74.8 -10.9 -74.55 Q-14.1 -66.1 -20.7 -57.25 L-21.85 -55.75 Q-20.75 -65.8 -23.9 -73.1 L-23.7 -73.3 Q-21.3 -75.5 -17.8 -84.55 -14.45 -82.6 -11.75 -77.95 -10.35 -82.25 -9.45 -86.65 -8.3 -92.45 -8.0 -98.4 -7.45 -109.55 -3.55 -116.25 -7.3 -116.7 -9.95 -118.2 M4.15 -64.7 L6.2 -62.4 0.2 -58.9 4.15 -64.7 M12.75 -55.8 Q19.9 -49.85 26.2 -50.25 28.95 -50.45 31.6 -51.9 L31.55 -51.9 31.5 -49.85 32.55 -47.95 Q33.7 -45.1 33.05 -41.7 L33.0 -41.7 31.95 -41.5 21.05 -41.95 16.6 -43.2 Q17.85 -45.9 12.75 -55.8 M9.9 -46.65 Q7.6 -48.2 5.5 -50.2 L5.45 -50.25 5.4 -50.25 9.2 -55.15 Q8.95 -49.95 9.9 -46.65 M-7.1 -68.05 Q-8.3 -71.2 -8.85 -74.3 L-8.5 -75.35 Q-7.45 -78.5 -6.65 -81.7 -5.25 -78.6 -3.5 -75.65 L-3.1 -74.95 Q-5.1 -69.55 -7.1 -68.05 M-14.05 -74.65 L-18.05 -81.65 Q-16.05 -71.15 -18.8 -65.6 L-14.05 -74.65" fill="#8d070b" fill-rule="evenodd" stroke="none"/>
    <path d="M-30.75 -91.7 L-16.85 -116.75 -16.85 -116.7 Q-19.85 -97.9 -22.05 -94.95 -24.45 -91.8 -27.1 -90.4 -28.55 -89.65 -29.95 -90.85 L-30.75 -91.7 M10.0 -107.3 Q2.55 -95.25 1.15 -88.65 -0.3 -82.1 2.15 -87.5 4.6 -92.9 7.45 -95.3 10.3 -97.75 9.95 -91.2 9.6 -84.7 14.7 -77.5 19.75 -70.35 19.0 -64.55 18.2 -58.8 13.7 -61.15 9.15 -63.55 5.7 -67.15 0.95 -72.15 -5.05 -85.4 -2.3 -107.15 1.55 -113.4 5.4 -119.75 11.45 -119.55 17.45 -119.35 10.0 -107.3" fill="#eda7a9" fill-rule="evenodd" stroke="none"/>
    <path d="M-17.8 -84.55 L-17.75 -84.65 -17.1 -86.25 -17.1 -86.3 Q-12.25 -99.45 -11.6 -110.15 -11.35 -114.4 -9.95 -118.2 -7.3 -116.7 -3.55 -116.25 -7.45 -109.55 -8.0 -98.4 -8.3 -92.45 -9.45 -86.65 -10.35 -82.25 -11.75 -77.95 -14.45 -82.6 -17.8 -84.55 M-3.1 -74.95 Q-0.05 -69.75 4.0 -64.9 L4.15 -64.7 0.2 -58.9 6.2 -62.4 6.3 -62.25 6.35 -62.2 10.15 -58.15 10.15 -58.2 10.7 -57.65 10.75 -57.6 12.75 -55.8 Q17.85 -45.9 16.6 -43.2 L16.25 -43.3 Q13.5 -44.4 11.0 -45.95 L9.9 -46.65 Q8.95 -49.95 9.2 -55.15 L5.4 -50.25 5.05 -50.6 Q-3.55 -59.05 -7.05 -67.95 L-7.1 -68.05 Q-5.1 -69.55 -3.1 -74.95 M-14.05 -74.65 L-18.8 -65.6 Q-16.05 -71.15 -18.05 -81.65 L-14.05 -74.65" fill="#b30a0f" fill-rule="evenodd" stroke="none"/>
    <path d="M-26.9 -28.0 Q-24.65 -27.1 -20.75 -26.3 -13.7 -24.95 -4.5 -24.55 L-4.1 -24.5 2.9 -24.4 Q6.7 -24.4 10.25 -24.55 L11.65 -24.6 11.7 -24.6 23.95 -25.85 24.0 -25.85 29.75 -27.05 29.9 -27.1 33.4 -28.25 33.7 -28.4 Q35.4 -29.25 35.55 -30.0 35.55 -30.4 35.85 -30.7 L36.35 -30.95 36.55 -31.0 36.6 -31.0 37.25 -30.7 37.55 -30.2 37.55 -30.0 37.55 -29.95 37.55 -29.85 37.75 -17.7 Q39.15 -10.8 39.0 -3.2 38.45 18.25 25.9 27.8 18.95 33.15 11.5 35.25 L11.45 35.25 Q5.5 36.8 -0.7 36.45 -15.0 35.55 -24.15 22.7 -33.3 9.95 -32.3 -12.05 L-32.0 -16.5 -32.05 -16.85 -32.05 -16.9 -32.05 -17.05 -32.0 -17.45 -31.55 -29.25 -31.3 -29.85 -31.2 -29.95 -31.05 -30.1 -31.0 -30.1 -30.5 -30.25 -29.9 -30.0 -29.8 -29.9 -29.7 -29.75 -29.65 -29.7 -29.5 -29.45 -28.7 -28.85 -26.9 -28.0 M33.75 -26.25 L31.1 -25.35 Q31.9 -19.4 31.55 -13.95 L33.95 -14.85 Q35.45 -15.55 36.0 -16.3 L35.95 -16.45 Q35.75 -16.7 34.25 -16.05 L34.6 -23.4 Q35.0 -26.8 34.25 -26.45 L34.2 -26.4 33.75 -26.25 M9.0 -22.5 L2.9 -22.4 Q-0.45 -22.4 -2.55 -21.45 L-1.3 -10.55 -1.3 -10.5 -0.35 -5.35 Q2.55 -3.75 5.1 -4.5 4.95 -4.85 4.95 -5.3 4.95 -6.3 5.65 -7.0 6.3 -7.65 7.3 -7.7 L9.0 -22.5 M7.15 -6.7 L6.35 -6.3 Q5.95 -5.9 5.95 -5.3 L6.0 -4.85 Q6.1 -4.55 6.35 -4.3 L6.4 -4.25 Q6.8 -3.9 7.3 -3.9 L7.35 -3.9 Q7.95 -3.9 8.35 -4.3 8.75 -4.7 8.75 -5.3 8.75 -5.9 8.35 -6.3 7.95 -6.7 7.35 -6.7 L7.15 -6.7 M9.65 -10.0 L9.05 -7.0 Q9.75 -6.3 9.75 -5.3 9.75 -4.5 9.35 -3.9 10.1 4.15 13.4 7.75 16.35 10.8 21.35 10.35 L22.8 10.15 23.2 9.75 23.95 9.65 24.55 10.1 24.7 10.85 24.6 11.2 24.6 11.25 24.5 11.45 23.8 13.65 23.3 14.2 22.55 14.25 21.95 13.75 21.85 13.25 21.9 13.0 22.15 12.3 18.75 12.4 Q14.6 12.0 11.95 9.1 8.35 5.35 7.4 -2.9 L7.35 -2.9 Q6.35 -2.9 5.65 -3.6 L5.3 -4.05 -0.9 -4.4 -1.2 -4.45 -2.95 -9.45 -18.8 -11.4 -21.25 -11.85 -28.9 -13.55 -29.45 -12.9 Q-30.15 -11.3 -30.55 -5.7 L-30.75 -2.05 Q-31.3 9.25 -22.6 21.4 -13.9 33.55 -4.35 34.2 5.15 34.8 10.65 33.35 L12.25 31.3 Q12.5 30.95 12.9 30.9 L13.65 31.1 Q19.5 30.15 25.8 23.25 32.15 16.3 33.6 4.4 35.05 -7.45 34.65 -10.0 34.45 -11.05 33.9 -11.7 33.1 -12.7 31.45 -12.9 L31.2 -10.85 31.15 -10.5 24.3 -8.4 24.5 -9.25 24.95 -11.45 Q18.15 -10.35 9.65 -10.0 M12.05 -22.6 L9.8 -11.0 25.1 -12.5 Q25.95 -18.7 24.05 -23.85 L12.05 -22.6 M26.75 -1.35 L26.0 -1.15 Q25.6 -1.2 25.35 -1.5 25.05 -1.85 25.1 -2.25 L25.35 -5.2 25.7 -5.9 Q26.0 -6.2 26.45 -6.15 L27.1 -5.8 27.35 -5.05 27.1 -2.05 26.75 -1.35 M29.9 -15.35 Q30.25 -18.45 29.25 -24.05 L25.0 -24.05 Q27.0 -18.6 26.05 -12.1 L26.05 -12.0 25.65 -9.85 Q27.7 -9.1 29.75 -11.25 29.55 -12.3 29.9 -15.35 M-27.4 -26.0 Q-28.75 -26.5 -29.6 -27.05 L-30.0 -17.25 -30.05 -16.9 -29.95 -16.75 -30.0 -16.5 -30.05 -16.0 -29.4 -15.5 Q-27.25 -14.05 -21.05 -12.85 L-19.2 -12.5 -18.1 -23.8 -21.15 -24.35 -27.4 -26.0 M-20.4 -22.55 Q-20.8 -22.95 -21.4 -22.95 -22.0 -22.95 -22.4 -22.55 -22.8 -22.15 -22.8 -21.55 -22.8 -20.95 -22.4 -20.55 -22.0 -20.15 -21.4 -20.15 -20.8 -20.15 -20.4 -20.55 -20.0 -20.95 -20.0 -21.55 -20.0 -22.15 -20.4 -22.55 M-23.1 -19.85 Q-23.8 -20.55 -23.8 -21.55 -23.8 -22.55 -23.1 -23.25 -22.4 -23.95 -21.4 -23.95 -20.4 -23.95 -19.7 -23.25 -19.0 -22.55 -19.0 -21.55 -19.0 -20.55 -19.7 -19.85 -20.4 -19.15 -21.4 -19.15 -22.4 -19.15 -23.1 -19.85 M-20.75 -15.8 Q-20.75 -16.4 -21.15 -16.8 -21.55 -17.2 -22.15 -17.2 -22.75 -17.2 -23.15 -16.8 -23.55 -16.4 -23.55 -15.8 -23.55 -15.2 -23.15 -14.8 -22.75 -14.4 -22.15 -14.4 -21.55 -14.4 -21.15 -14.8 -20.75 -15.2 -20.75 -15.8 M-22.15 -18.2 Q-21.15 -18.2 -20.45 -17.5 -19.75 -16.8 -19.75 -15.8 -19.75 -14.8 -20.45 -14.1 -21.15 -13.4 -22.15 -13.4 -23.15 -13.4 -23.85 -14.1 -24.55 -14.8 -24.55 -15.8 -24.55 -16.8 -23.85 -17.5 -23.15 -18.2 -22.15 -18.2 M-4.6 -22.55 L-17.1 -23.65 Q-18.15 -15.8 -16.95 -12.3 -11.25 -11.25 -2.4 -10.95 L-4.6 -22.55 M17.2 24.25 L17.95 24.35 18.45 24.95 18.35 25.7 16.75 28.35 16.15 28.8 15.4 28.65 Q15.0 28.45 14.95 28.05 14.85 27.65 15.05 27.3 L16.6 24.7 Q16.8 24.35 17.2 24.25 M20.7 17.15 Q21.05 16.95 21.45 17.15 L22.0 17.7 22.0 18.45 20.7 21.25 20.15 21.75 19.4 21.7 18.85 21.15 Q18.7 20.75 18.9 20.4 L20.15 17.65 20.7 17.15 M25.65 1.85 Q26.0 1.9 26.25 2.25 L26.45 3.0 26.1 4.9 25.9 6.0 25.45 6.65 24.75 6.8 24.7 6.8 Q24.3 6.7 24.1 6.35 23.85 6.0 23.95 5.6 L24.5 2.65 Q24.55 2.25 24.9 2.0 25.2 1.75 25.65 1.85" fill="#202326" fill-rule="evenodd" stroke="none"/>
  </g>
</svg>
