<?xml version="1.0" encoding="UTF-8" standalone="no"?>
<svg xmlns:ffdec="https://www.free-decompiler.com/flash" xmlns:xlink="http://www.w3.org/1999/xlink" ffdec:objectType="shape" height="21.75px" width="31.7px" xmlns="http://www.w3.org/2000/svg">
  <g transform="matrix(1.0, 0.0, 0.0, 1.0, 25.6, 17.55)">
    <path d="M5.15 -4.7 L5.15 -4.6 Q5.15 -1.05 3.2 1.45 1.2 3.95 -1.6 4.0 -4.4 3.95 -6.35 1.45 -8.35 -1.05 -8.35 -4.6 L-8.35 -4.7 Q-8.35 -8.2 -6.35 -10.7 -4.4 -13.2 -1.6 -13.15 1.2 -13.2 3.2 -10.7 5.15 -8.2 5.15 -4.7 M1.45 -3.95 Q1.45 -6.45 0.3 -8.15 -0.85 -9.85 -2.5 -9.85 -3.55 -9.9 -4.45 -9.1 L-5.3 -8.15 -6.05 -6.45 Q-6.45 -5.35 -6.45 -3.95 -6.45 -1.5 -5.3 0.2 -4.1 1.9 -2.5 1.95 -0.85 1.9 0.3 0.2 1.45 -1.5 1.45 -3.95 M-25.6 -4.45 Q-25.6 -7.95 -23.6 -10.45 -21.65 -12.95 -18.85 -12.95 -16.05 -12.95 -14.05 -10.45 -12.1 -7.95 -12.05 -4.45 L-12.05 -4.4 Q-12.1 -0.85 -14.05 1.65 -16.05 4.2 -18.85 4.2 -21.65 4.2 -23.6 1.65 -25.6 -0.85 -25.6 -4.4 L-25.6 -4.45 M-20.95 -5.3 Q-21.3 -4.35 -21.3 -3.15 -21.3 -1.05 -20.3 0.45 -19.25 1.95 -17.85 2.0 -16.45 1.95 -15.45 0.45 -14.45 -1.05 -14.4 -3.15 -14.45 -5.3 -15.45 -6.75 -16.45 -8.25 -17.85 -8.25 -18.8 -8.3 -19.55 -7.6 L-20.3 -6.75 -20.95 -5.3" fill="#754b33" fill-rule="evenodd" stroke="none"/>
    <path d="M1.45 -3.95 Q1.45 -1.5 0.3 0.2 -0.85 1.9 -2.5 1.95 -4.1 1.9 -5.3 0.2 -6.45 -1.5 -6.45 -3.95 -6.45 -5.35 -6.05 -6.45 L-5.3 -8.15 -4.45 -9.1 Q-3.55 -9.9 -2.5 -9.85 -0.85 -9.85 0.3 -8.15 1.45 -6.45 1.45 -3.95 M-20.95 -5.3 L-20.3 -6.75 -19.55 -7.6 Q-18.8 -8.3 -17.85 -8.25 -16.45 -8.25 -15.45 -6.75 -14.45 -5.3 -14.4 -3.15 -14.45 -1.05 -15.45 0.45 -16.45 1.95 -17.85 2.0 -19.25 1.95 -20.3 0.45 -21.3 -1.05 -21.3 -3.15 -21.3 -4.35 -20.95 -5.3" fill="#926041" fill-rule="evenodd" stroke="none"/>
    <path d="M1.45 -3.95 Q1.45 -1.5 0.3 0.2 -0.85 1.9 -2.5 1.95 -4.1 1.9 -5.3 0.2 -6.45 -1.5 -6.45 -3.95 -6.45 -5.35 -6.05 -6.45 L-5.3 -8.15 -4.45 -9.1 Q-3.55 -9.9 -2.5 -9.85 -0.85 -9.85 0.3 -8.15 1.45 -6.45 1.45 -3.95 M-20.95 -5.3 L-20.3 -6.75 -19.55 -7.6 Q-18.8 -8.3 -17.85 -8.25 -16.45 -8.25 -15.45 -6.75 -14.45 -5.3 -14.4 -3.15 -14.45 -1.05 -15.45 0.45 -16.45 1.95 -17.85 2.0 -19.25 1.95 -20.3 0.45 -21.3 -1.05 -21.3 -3.15 -21.3 -4.35 -20.95 -5.3" fill="none" stroke="#000000" stroke-linecap="round" stroke-linejoin="round" stroke-width="3.5"/>
    <path d="M-12.9 -11.85 Q-18.05 -18.0 -24.05 -13.2 M-8.3 -13.0 Q-2.6 -19.6 5.6 -15.45" fill="none" stroke="#2f1e13" stroke-linecap="round" stroke-linejoin="round" stroke-width="1.0"/>
  </g>
</svg>
