<?xml version="1.0" encoding="UTF-8" standalone="no"?>
<svg xmlns:ffdec="https://www.free-decompiler.com/flash" xmlns:xlink="http://www.w3.org/1999/xlink" ffdec:objectType="shape" height="19.25px" width="30.65px" xmlns="http://www.w3.org/2000/svg">
  <g transform="matrix(1.0, 0.0, 0.0, 1.0, 24.55, 16.55)">
    <path d="M4.1 -3.95 L4.1 -3.9 Q4.1 -1.15 2.25 0.75 0.4 2.7 -2.15 2.7 -4.7 2.7 -6.55 0.75 -8.4 -1.15 -8.35 -3.9 L-8.35 -3.95 Q-8.35 -6.65 -6.55 -8.55 -4.7 -10.45 -2.15 -10.45 0.4 -10.45 2.25 -8.55 4.05 -6.65 4.1 -3.95 M1.45 -3.05 Q1.45 -4.6 0.3 -5.65 -0.85 -6.75 -2.5 -6.75 L-4.45 -6.3 -5.3 -5.65 -6.05 -4.6 Q-6.45 -3.9 -6.45 -3.05 -6.45 -1.55 -5.3 -0.45 -4.1 0.65 -2.5 0.65 -0.85 0.65 0.3 -0.45 1.45 -1.55 1.45 -3.05 M-22.7 -8.4 Q-20.85 -10.3 -18.3 -10.3 -15.75 -10.3 -13.9 -8.4 -12.1 -6.55 -12.05 -3.95 L-12.05 -3.9 Q-12.05 -1.3 -13.9 0.6 -15.75 2.45 -18.3 2.45 -20.85 2.45 -22.7 0.6 -24.55 -1.3 -24.5 -3.9 L-24.5 -3.95 Q-24.5 -6.55 -22.7 -8.4 M-20.95 -3.9 Q-21.3 -3.3 -21.3 -2.55 -21.3 -1.2 -20.3 -0.25 -19.25 0.65 -17.85 0.7 -16.45 0.65 -15.45 -0.25 -14.45 -1.2 -14.4 -2.55 -14.45 -3.9 -15.45 -4.8 -16.45 -5.75 -17.85 -5.75 L-19.55 -5.35 -20.3 -4.8 -20.95 -3.9" fill="#754b33" fill-rule="evenodd" stroke="none"/>
    <path d="M1.45 -3.05 Q1.45 -1.55 0.3 -0.45 -0.85 0.65 -2.5 0.65 -4.1 0.65 -5.3 -0.45 -6.45 -1.55 -6.45 -3.05 -6.45 -3.9 -6.05 -4.6 L-5.3 -5.65 -4.45 -6.3 -2.5 -6.75 Q-0.85 -6.75 0.3 -5.65 1.45 -4.6 1.45 -3.05 M-20.95 -3.9 L-20.3 -4.8 -19.55 -5.35 -17.85 -5.75 Q-16.45 -5.75 -15.45 -4.8 -14.45 -3.9 -14.4 -2.55 -14.45 -1.2 -15.45 -0.25 -16.45 0.65 -17.85 0.7 -19.25 0.65 -20.3 -0.25 -21.3 -1.2 -21.3 -2.55 -21.3 -3.3 -20.95 -3.9" fill="#926041" fill-rule="evenodd" stroke="none"/>
    <path d="M1.45 -3.05 Q1.45 -1.55 0.3 -0.45 -0.85 0.65 -2.5 0.65 -4.1 0.65 -5.3 -0.45 -6.45 -1.55 -6.45 -3.05 -6.45 -3.9 -6.05 -4.6 L-5.3 -5.65 -4.45 -6.3 -2.5 -6.75 Q-0.85 -6.75 0.3 -5.65 1.45 -4.6 1.45 -3.05 M-20.95 -3.9 L-20.3 -4.8 -19.55 -5.35 -17.85 -5.75 Q-16.45 -5.75 -15.45 -4.8 -14.45 -3.9 -14.4 -2.55 -14.45 -1.2 -15.45 -0.25 -16.45 0.65 -17.85 0.7 -19.25 0.65 -20.3 -0.25 -21.3 -1.2 -21.3 -2.55 -21.3 -3.3 -20.95 -3.9" fill="none" stroke="#000000" stroke-linecap="round" stroke-linejoin="round" stroke-width="3.5"/>
    <path d="M-12.9 -10.85 Q-18.05 -17.0 -24.05 -12.2 M-8.3 -12.0 Q-2.6 -18.6 5.6 -14.45" fill="none" stroke="#2f1e13" stroke-linecap="round" stroke-linejoin="round" stroke-width="1.0"/>
  </g>
</svg>
