<?xml version="1.0" encoding="UTF-8" standalone="no"?>
<svg xmlns:ffdec="https://www.free-decompiler.com/flash" xmlns:xlink="http://www.w3.org/1999/xlink" ffdec:objectType="shape" height="16.05px" width="30.65px" xmlns="http://www.w3.org/2000/svg">
  <g transform="matrix(1.0, 0.0, 0.0, 1.0, 24.55, 16.3)">
    <path d="M4.1 -5.5 L4.1 -5.45 Q4.1 -3.4 2.25 -1.9 0.4 -0.45 -2.15 -0.45 -4.7 -0.45 -6.55 -1.9 -8.4 -3.4 -8.35 -5.45 L-8.35 -5.5 Q-8.35 -7.55 -6.55 -9.0 -4.7 -10.45 -2.15 -10.45 0.4 -10.45 2.25 -9.0 4.05 -7.55 4.1 -5.5 M-24.5 -5.25 L-24.5 -5.3 Q-24.5 -7.35 -22.7 -8.8 -20.85 -10.25 -18.3 -10.25 -15.75 -10.25 -13.9 -8.8 -12.1 -7.35 -12.05 -5.3 L-12.05 -5.25 Q-12.05 -3.2 -13.9 -1.75 -15.75 -0.25 -18.3 -0.25 -20.85 -0.25 -22.7 -1.75 -24.55 -3.2 -24.5 -5.25 M-21.35 -2.55 L-14.4 -2.8 -21.35 -2.55 M-6.65 -3.0 L2.4 -3.65 -6.65 -3.0" fill="#754b33" fill-rule="evenodd" stroke="none"/>
    <path d="M-14.4 -2.8 L-21.35 -2.55 M2.4 -3.65 L-6.65 -3.0" fill="none" stroke="#333333" stroke-linecap="round" stroke-linejoin="round" stroke-width="2.0"/>
    <path d="M-12.9 -10.6 Q-18.05 -16.75 -24.05 -11.95 M-8.3 -11.75 Q-2.6 -18.35 5.6 -14.2" fill="none" stroke="#2f1e13" stroke-linecap="round" stroke-linejoin="round" stroke-width="1.0"/>
  </g>
</svg>
