<?xml version="1.0" encoding="UTF-8" standalone="no"?>
<svg xmlns:ffdec="https://www.free-decompiler.com/flash" xmlns:xlink="http://www.w3.org/1999/xlink" ffdec:objectType="shape" height="25.2px" width="32.1px" xmlns="http://www.w3.org/2000/svg">
  <g transform="matrix(1.0, 0.0, 0.0, 1.0, 26.0, 21.05)">
    <path d="M2.3 -4.9 Q2.3 -7.75 0.95 -9.75 -0.4 -11.75 -2.25 -11.75 -3.5 -11.75 -4.55 -10.85 L-5.5 -9.75 -6.4 -7.8 Q-6.85 -6.5 -6.8 -4.9 -6.8 -2.05 -5.5 -0.1 -4.15 1.9 -2.25 1.95 -0.4 1.9 0.95 -0.1 2.3 -2.05 2.3 -4.9 M5.6 -5.55 L5.6 -5.45 Q5.6 -1.6 3.55 1.15 1.5 3.95 -1.35 3.95 -4.25 3.95 -6.3 1.15 -8.35 -1.6 -8.35 -5.45 L-8.35 -5.55 Q-8.3 -9.4 -6.3 -12.15 -4.25 -14.9 -1.35 -14.9 1.5 -14.9 3.55 -12.15 5.55 -9.4 5.6 -5.55 M-26.0 -5.35 Q-25.95 -9.2 -23.95 -11.9 -21.9 -14.65 -19.0 -14.65 -16.15 -14.65 -14.1 -11.9 -12.1 -9.2 -12.05 -5.35 L-12.05 -5.25 Q-12.1 -1.35 -14.1 1.4 -16.15 4.15 -19.0 4.15 -21.9 4.15 -23.95 1.4 -26.0 -1.35 -26.0 -5.25 L-26.0 -5.35 M-20.75 -9.1 L-21.6 -8.15 -22.4 -6.45 Q-22.8 -5.35 -22.8 -3.95 -22.8 -1.5 -21.6 0.2 -20.45 1.95 -18.8 1.95 -17.2 1.95 -16.05 0.2 -14.85 -1.5 -14.85 -3.95 -14.85 -6.4 -16.05 -8.15 -17.2 -9.9 -18.8 -9.85 -19.9 -9.9 -20.75 -9.1" fill="#754b33" fill-rule="evenodd" stroke="none"/>
    <path d="M2.3 -4.9 Q2.3 -2.05 0.95 -0.1 -0.4 1.9 -2.25 1.95 -4.15 1.9 -5.5 -0.1 -6.8 -2.05 -6.8 -4.9 -6.85 -6.5 -6.4 -7.8 L-5.5 -9.75 -4.55 -10.85 Q-3.5 -11.75 -2.25 -11.75 -0.4 -11.75 0.95 -9.75 2.3 -7.75 2.3 -4.9 M-20.75 -9.1 Q-19.9 -9.9 -18.8 -9.85 -17.2 -9.9 -16.05 -8.15 -14.85 -6.4 -14.85 -3.95 -14.85 -1.5 -16.05 0.2 -17.2 1.95 -18.8 1.95 -20.45 1.95 -21.6 0.2 -22.8 -1.5 -22.8 -3.95 -22.8 -5.35 -22.4 -6.45 L-21.6 -8.15 -20.75 -9.1" fill="#926041" fill-rule="evenodd" stroke="none"/>
    <path d="M2.3 -4.9 Q2.3 -2.05 0.95 -0.1 -0.4 1.9 -2.25 1.95 -4.15 1.9 -5.5 -0.1 -6.8 -2.05 -6.8 -4.9 -6.85 -6.5 -6.4 -7.8 L-5.5 -9.75 -4.55 -10.85 Q-3.5 -11.75 -2.25 -11.75 -0.4 -11.75 0.95 -9.75 2.3 -7.75 2.3 -4.9 M-20.75 -9.1 Q-19.9 -9.9 -18.8 -9.85 -17.2 -9.9 -16.05 -8.15 -14.85 -6.4 -14.85 -3.95 -14.85 -1.5 -16.05 0.2 -17.2 1.95 -18.8 1.95 -20.45 1.95 -21.6 0.2 -22.8 -1.5 -22.8 -3.95 -22.8 -5.35 -22.4 -6.45 L-21.6 -8.15 -20.75 -9.1" fill="none" stroke="#000000" stroke-linecap="round" stroke-linejoin="round" stroke-width="3.5"/>
    <path d="M-12.9 -15.35 Q-18.05 -21.5 -24.05 -16.7 M-8.3 -16.5 Q-2.6 -23.1 5.6 -18.95" fill="none" stroke="#2f1e13" stroke-linecap="round" stroke-linejoin="round" stroke-width="1.0"/>
  </g>
</svg>
