<?xml version="1.0" encoding="UTF-8" standalone="no"?>
<svg xmlns:ffdec="https://www.free-decompiler.com/flash" xmlns:xlink="http://www.w3.org/1999/xlink" ffdec:objectType="shape" height="19.75px" width="31.45px" xmlns="http://www.w3.org/2000/svg">
  <g transform="matrix(1.0, 0.0, 0.0, 1.0, 25.6, 15.55)">
    <path d="M0.0 -5.05 L0.9 -3.35 Q1.6 -1.3 0.35 0.45 -0.4 1.5 -1.7 1.85 -3.4 2.25 -4.6 1.0 -6.1 -0.65 -6.35 -2.75 -6.7 -5.95 -5.0 -8.65 L-5.0 -9.2 -4.8 -9.15 Q-2.55 -8.05 -0.7 -6.0 L0.0 -5.05 M-21.0 -1.2 Q-21.6 -3.3 -20.8 -4.45 L-15.35 -8.75 -14.95 -8.7 -14.8 -8.4 -14.55 -7.1 Q-14.35 -4.7 -14.5 -2.05 -14.6 -0.7 -15.55 0.45 L-16.65 1.45 Q-18.3 2.55 -19.65 1.1 -20.6 0.25 -21.0 -1.2" fill="#926041" fill-rule="evenodd" stroke="none"/>
    <path d="M0.0 -5.05 L-0.7 -6.0 Q-2.55 -8.05 -4.8 -9.15 L-5.0 -9.2 -5.0 -8.65 Q-6.7 -5.95 -6.35 -2.75 -6.1 -0.65 -4.6 1.0 -3.4 2.25 -1.7 1.85 -0.4 1.5 0.35 0.45 1.6 -1.3 0.9 -3.35 L0.0 -5.05 M3.5 -6.15 Q4.7 -4.1 4.3 -2.2 3.9 -0.35 2.55 1.8 1.2 3.95 -1.6 4.0 -4.4 3.95 -6.35 1.45 -8.35 -1.05 -8.35 -4.6 L-8.35 -4.7 Q-8.35 -8.2 -6.35 -10.7 -4.4 -13.2 -1.8 -13.15 0.7 -13.2 1.45 -10.7 2.25 -8.2 3.5 -6.15 M-21.9 -9.6 Q-19.45 -11.9 -17.75 -12.4 -16.05 -12.95 -14.05 -10.45 -12.1 -7.95 -12.05 -4.45 L-12.05 -4.4 Q-12.1 -0.85 -14.05 1.65 -16.05 4.2 -18.85 4.2 -21.65 4.2 -23.6 1.65 -25.6 -0.85 -25.6 -4.4 L-24.95 -5.9 Q-24.35 -7.35 -21.9 -9.6 M-21.0 -1.2 Q-20.6 0.25 -19.65 1.1 -18.3 2.55 -16.65 1.45 L-15.55 0.45 Q-14.6 -0.7 -14.5 -2.05 -14.35 -4.7 -14.55 -7.1 L-14.8 -8.4 -14.95 -8.7 -15.35 -8.75 -20.8 -4.45 Q-21.6 -3.3 -21.0 -1.2" fill="#754b33" fill-rule="evenodd" stroke="none"/>
    <path d="M0.0 -5.05 L-0.7 -6.0 Q-2.55 -8.05 -4.8 -9.15 L-5.0 -9.2 -5.0 -8.65 Q-6.7 -5.95 -6.35 -2.75 -6.1 -0.65 -4.6 1.0 -3.4 2.25 -1.7 1.85 -0.4 1.5 0.35 0.45 1.6 -1.3 0.9 -3.35 L0.0 -5.05 M-21.0 -1.2 Q-20.6 0.25 -19.65 1.1 -18.3 2.55 -16.65 1.45 L-15.55 0.45 Q-14.6 -0.7 -14.5 -2.05 -14.35 -4.7 -14.55 -7.1 L-14.8 -8.4 -14.95 -8.7 -15.35 -8.75 -20.8 -4.45 Q-21.6 -3.3 -21.0 -1.2" fill="none" stroke="#000000" stroke-linecap="round" stroke-linejoin="round" stroke-width="3.5"/>
    <path d="M-12.85 -12.05 Q-19.4 -16.65 -23.95 -10.5 M-8.5 -13.4 Q-0.9 -17.65 5.35 -10.9" fill="none" stroke="#2f1e13" stroke-linecap="round" stroke-linejoin="round" stroke-width="1.0"/>
  </g>
</svg>
