<?xml version="1.0" encoding="UTF-8" standalone="no"?>
<svg xmlns:ffdec="https://www.free-decompiler.com/flash" xmlns:xlink="http://www.w3.org/1999/xlink" ffdec:objectType="shape" height="19.35px" width="31.2px" xmlns="http://www.w3.org/2000/svg">
  <g transform="matrix(1.0, 0.0, 0.0, 1.0, 25.6, 15.15)">
    <path d="M-6.4 -3.15 Q-6.25 -1.2 -5.3 0.2 -4.1 1.9 -2.5 1.95 -0.85 1.9 0.3 0.2 1.45 -1.5 1.45 -3.95 1.45 -6.05 0.6 -7.6 L-6.4 -3.15 -7.3 -2.55 -6.4 -3.15 M5.15 -4.7 L5.15 -4.6 Q5.15 -1.05 3.2 1.45 1.2 3.95 -1.6 4.0 -4.4 3.95 -6.35 1.45 -8.35 -1.05 -8.35 -4.6 L-7.65 -5.2 Q-7.0 -5.8 -5.3 -8.8 -3.6 -11.8 -1.2 -12.45 1.2 -13.2 3.2 -10.7 5.15 -8.2 5.15 -4.7 M-14.45 -3.55 L-20.85 -5.7 -20.95 -5.3 Q-21.3 -4.35 -21.3 -3.15 -21.3 -1.05 -20.3 0.45 -19.25 1.95 -17.85 2.0 -16.45 1.95 -15.45 0.45 -14.45 -1.05 -14.4 -3.15 L-14.45 -3.55 -13.95 -3.4 -14.45 -3.55 M-23.6 -10.45 Q-21.65 -12.95 -19.15 -11.1 -16.75 -9.3 -14.5 -8.15 -12.3 -7.0 -12.2 -5.7 L-12.05 -4.4 Q-12.1 -0.85 -14.05 1.65 -16.05 4.2 -18.85 4.2 -21.65 4.2 -23.6 1.65 -25.6 -0.85 -25.6 -4.4 L-25.6 -4.45 Q-25.6 -7.95 -23.6 -10.45" fill="#754b33" fill-rule="evenodd" stroke="none"/>
    <path d="M-6.4 -3.15 L0.6 -7.6 Q1.45 -6.05 1.45 -3.95 1.45 -1.5 0.3 0.2 -0.85 1.9 -2.5 1.95 -4.1 1.9 -5.3 0.2 -6.25 -1.2 -6.4 -3.15 M-14.45 -3.55 L-14.4 -3.15 Q-14.45 -1.05 -15.45 0.45 -16.45 1.95 -17.85 2.0 -19.25 1.95 -20.3 0.45 -21.3 -1.05 -21.3 -3.15 -21.3 -4.35 -20.95 -5.3 L-20.85 -5.7 -14.45 -3.55" fill="#926041" fill-rule="evenodd" stroke="none"/>
    <path d="M-6.4 -3.15 L0.6 -7.6 Q1.45 -6.05 1.45 -3.95 1.45 -1.5 0.3 0.2 -0.85 1.9 -2.5 1.95 -4.1 1.9 -5.3 0.2 -6.25 -1.2 -6.4 -3.15 L-7.3 -2.55 M-14.45 -3.55 L-14.4 -3.15 Q-14.45 -1.05 -15.45 0.45 -16.45 1.95 -17.85 2.0 -19.25 1.95 -20.3 0.45 -21.3 -1.05 -21.3 -3.15 -21.3 -4.35 -20.95 -5.3 L-20.85 -5.7 -14.45 -3.55 -13.95 -3.4" fill="none" stroke="#000000" stroke-linecap="round" stroke-linejoin="round" stroke-width="3.5"/>
    <path d="M-13.1 -8.9 Q-16.5 -16.15 -23.5 -13.05 M-8.1 -9.05 Q-3.75 -16.6 5.1 -14.0" fill="none" stroke="#2f1e13" stroke-linecap="round" stroke-linejoin="round" stroke-width="1.0"/>
  </g>
</svg>
