<?xml version="1.0" encoding="UTF-8" standalone="no"?>
<svg xmlns:ffdec="https://www.free-decompiler.com/flash" xmlns:xlink="http://www.w3.org/1999/xlink" ffdec:objectType="shape" height="16.45px" width="31.7px" xmlns="http://www.w3.org/2000/svg">
  <g transform="matrix(1.0, 0.0, 0.0, 1.0, 25.6, 12.25)">
    <path d="M5.15 -4.7 L5.15 -4.6 Q5.15 -1.05 3.2 1.45 1.2 3.95 -1.6 4.0 -4.4 3.95 -6.35 1.45 -8.35 -1.05 -8.35 -4.6 L-8.35 -4.7 Q-8.35 -6.3 -7.9 -7.65 -1.6 -9.25 4.75 -7.65 5.15 -6.3 5.15 -4.7 M0.3 0.2 Q1.4 -1.45 1.45 -3.85 L-6.45 -3.85 Q-6.4 -1.45 -5.3 0.2 -4.1 1.9 -2.5 1.95 -0.85 1.9 0.3 0.2 M-25.1 -7.65 Q-18.85 -10.0 -12.55 -7.65 -12.1 -6.2 -12.05 -4.45 L-12.05 -4.4 Q-12.1 -0.85 -14.05 1.65 -16.05 4.2 -18.85 4.2 -21.65 4.2 -23.6 1.65 -25.6 -0.85 -25.6 -4.4 L-25.6 -4.45 Q-25.6 -6.2 -25.1 -7.65 M-21.25 -3.85 L-21.3 -3.15 Q-21.3 -1.05 -20.3 0.45 -19.25 1.95 -17.85 2.0 -16.45 1.95 -15.45 0.45 -14.45 -1.05 -14.4 -3.15 L-14.45 -3.85 -21.25 -3.85" fill="#754b33" fill-rule="evenodd" stroke="none"/>
    <path d="M0.3 0.2 Q-0.85 1.9 -2.5 1.95 -4.1 1.9 -5.3 0.2 -6.4 -1.45 -6.45 -3.85 L1.45 -3.85 Q1.4 -1.45 0.3 0.2 M-21.25 -3.85 L-14.45 -3.85 -14.4 -3.15 Q-14.45 -1.05 -15.45 0.45 -16.45 1.95 -17.85 2.0 -19.25 1.95 -20.3 0.45 -21.3 -1.05 -21.3 -3.15 L-21.25 -3.85" fill="#926041" fill-rule="evenodd" stroke="none"/>
    <path d="M0.3 0.2 Q-0.85 1.9 -2.5 1.95 -4.1 1.9 -5.3 0.2 -6.4 -1.45 -6.45 -3.85 L1.45 -3.85 Q1.4 -1.45 0.3 0.2 M-21.25 -3.85 L-14.45 -3.85 -14.4 -3.15 Q-14.45 -1.05 -15.45 0.45 -16.45 1.95 -17.85 2.0 -19.25 1.95 -20.3 0.45 -21.3 -1.05 -21.3 -3.15 L-21.25 -3.85" fill="none" stroke="#000000" stroke-linecap="round" stroke-linejoin="round" stroke-width="3.5"/>
    <path d="M-12.9 -8.6 Q-18.05 -12.35 -24.05 -9.4 M-8.3 -9.25 Q-2.6 -13.3 5.6 -10.75" fill="none" stroke="#2f1e13" stroke-linecap="round" stroke-linejoin="round" stroke-width="1.0"/>
  </g>
</svg>
