<?xml version="1.0" encoding="UTF-8" standalone="no"?>
<svg xmlns:ffdec="https://www.free-decompiler.com/flash" xmlns:xlink="http://www.w3.org/1999/xlink" ffdec:objectType="shape" height="19.3px" width="30.75px" xmlns="http://www.w3.org/2000/svg">
  <g transform="matrix(1.0, 0.0, 0.0, 1.0, 25.6, 18.8)">
    <path d="M5.15 -4.7 L5.15 -4.6 Q5.15 -1.05 3.75 -0.55 2.35 -0.05 -0.1 -1.1 -2.6 -2.15 -5.5 -1.6 -8.35 -1.05 -8.35 -4.6 L-8.35 -4.7 Q-8.35 -8.2 -6.35 -10.7 -4.4 -13.2 -1.6 -13.15 1.2 -13.2 3.2 -10.7 5.15 -8.2 5.15 -4.7 M-23.6 -10.45 Q-21.65 -12.95 -18.85 -12.95 -16.05 -12.95 -14.05 -10.45 -12.1 -7.95 -12.05 -4.45 L-12.05 -2.5 Q-12.05 -0.6 -15.75 -0.95 -19.45 -1.3 -21.55 -0.1 L-24.65 0.05 Q-25.65 -0.9 -25.6 -2.65 L-25.6 -4.45 Q-25.6 -7.95 -23.6 -10.45 M-21.35 -2.55 Q-18.3 -9.35 -14.4 -2.8 -18.3 -9.35 -21.35 -2.55 M-6.65 -3.0 Q-3.2 -12.9 2.4 -3.65 -3.2 -12.9 -6.65 -3.0" fill="#754b33" fill-rule="evenodd" stroke="none"/>
    <path d="M-14.4 -2.8 Q-18.3 -9.35 -21.35 -2.55 M2.4 -3.65 Q-3.2 -12.9 -6.65 -3.0" fill="none" stroke="#333333" stroke-linecap="round" stroke-linejoin="round" stroke-width="2.0"/>
    <path d="M-13.05 -13.1 Q-17.6 -19.3 -22.7 -14.6 M-8.15 -14.25 Q-3.4 -20.85 3.45 -16.7" fill="none" stroke="#2f1e13" stroke-linecap="round" stroke-linejoin="round" stroke-width="1.0"/>
  </g>
</svg>
