<?xml version="1.0" encoding="UTF-8" standalone="no"?>
<svg xmlns:ffdec="https://www.free-decompiler.com/flash" xmlns:xlink="http://www.w3.org/1999/xlink" ffdec:objectType="shape" height="20.15px" width="30.8px" xmlns="http://www.w3.org/2000/svg">
  <g transform="matrix(1.0, 0.0, 0.0, 1.0, 24.9, 15.95)">
    <path d="M4.55 -2.05 Q3.4 -3.0 3.0 -3.0 L2.95 -3.95 2.8 -5.8 Q-2.05 -11.0 -3.25 -11.15 -4.5 -11.3 -5.4 -10.25 L-5.35 -10.25 -6.45 -9.0 -6.5 -8.95 Q-7.2 -8.0 -7.5 -6.85 L-7.5 -6.9 Q-7.9 -5.55 -7.9 -3.95 -7.9 -1.35 -6.8 0.6 L-7.1 0.75 Q-7.6 0.95 -7.75 1.5 L-7.8 1.7 -8.2 1.0 Q-8.95 -1.05 -8.65 -2.85 L-8.35 -4.7 Q-8.35 -8.2 -6.35 -10.7 -4.4 -13.2 -2.35 -12.8 -0.3 -12.45 1.45 -9.85 L4.2 -5.95 5.15 -4.6 Q5.15 -3.0 4.55 -2.05 M-22.9 -7.0 L-21.05 -10.7 Q-19.8 -13.05 -17.9 -13.0 -16.05 -12.95 -14.05 -10.45 -12.1 -7.95 -12.05 -4.45 L-12.05 -4.4 Q-12.1 -0.85 -14.05 1.65 -16.05 4.2 -18.85 4.2 -21.65 4.2 -23.6 1.65 -25.6 -0.85 -24.55 -3.25 L-22.9 -7.0 M-18.3 -10.7 L-22.75 -2.4 Q-22.6 -0.25 -21.5 1.3 -20.0 3.55 -17.8 3.45 -15.7 3.55 -14.2 1.25 L-14.25 1.3 Q-13.0 -0.5 -12.9 -3.1 L-12.9 -3.15 Q-13.0 -5.8 -14.25 -7.6 -15.45 -9.4 -16.5 -10.15 L-18.3 -10.7" fill="#754b33" fill-rule="evenodd" stroke="none"/>
    <path d="M-7.8 1.7 L-7.75 1.5 Q-7.6 0.95 -7.1 0.75 L-6.8 0.6 Q-7.9 -1.35 -7.9 -3.95 -7.9 -5.55 -7.5 -6.9 L-7.5 -6.85 Q-7.2 -8.0 -6.5 -8.95 L-6.45 -9.0 -5.35 -10.25 -5.4 -10.25 Q-4.5 -11.3 -3.25 -11.15 -2.05 -11.0 2.8 -5.8 L2.95 -3.95 3.0 -3.0 Q3.4 -3.0 4.55 -2.05 L5.05 -1.65 4.0 -1.4 3.9 -1.4 1.8 -0.75 -7.5 2.65 -7.65 2.45 -7.8 1.7 M0.15 -3.9 L0.25 -4.4 -1.3 -6.2 Q-2.85 -8.15 -3.15 -8.05 L-3.5 -7.95 -4.0 -7.35 -4.05 -7.3 -4.65 -6.05 -4.95 -3.95 Q-4.95 -2.25 -4.25 -0.9 -1.9 -2.4 0.05 -2.75 L0.15 -3.9 M-18.3 -10.7 L-16.5 -10.15 Q-15.45 -9.4 -14.25 -7.6 -13.0 -5.8 -12.9 -3.15 L-12.9 -3.1 Q-13.0 -0.5 -14.25 1.3 L-14.2 1.25 Q-15.7 3.55 -17.8 3.45 -20.0 3.55 -21.5 1.3 -22.6 -0.25 -22.75 -2.4 L-18.3 -10.7 M-19.55 -3.15 L-19.8 -2.5 Q-19.65 -1.3 -19.05 -0.35 -18.5 0.4 -17.8 0.5 L-16.7 -0.35 Q-15.9 -1.5 -15.85 -3.15 -15.95 -4.8 -16.7 -5.9 L-16.7 -5.95 -17.55 -6.75 Q-18.4 -6.25 -19.55 -3.15" fill="#000000" fill-rule="evenodd" stroke="none"/>
    <path d="M0.15 -3.9 L0.05 -2.75 Q-1.9 -2.4 -4.25 -0.9 -4.95 -2.25 -4.95 -3.95 L-4.65 -6.05 -4.05 -7.3 -4.0 -7.35 -3.5 -7.95 -3.15 -8.05 Q-2.85 -8.15 -1.3 -6.2 L0.25 -4.4 0.15 -3.9 M-19.55 -3.15 Q-18.4 -6.25 -17.55 -6.75 L-16.7 -5.95 -16.7 -5.9 Q-15.95 -4.8 -15.85 -3.15 -15.9 -1.5 -16.7 -0.35 L-17.8 0.5 Q-18.5 0.4 -19.05 -0.35 -19.65 -1.3 -19.8 -2.5 L-19.55 -3.15" fill="#926041" fill-rule="evenodd" stroke="none"/>
    <path d="M1.8 -0.75 L3.9 -1.4 4.0 -1.4 Q3.3 -0.9 2.3 -0.8 L1.8 -0.75" fill="#b8c1b2" fill-rule="evenodd" stroke="none"/>
    <path d="M-12.7 -14.2 Q-19.9 -17.65 -23.4 -10.8 M-8.45 -13.8 Q-0.85 -18.1 5.4 -11.35" fill="none" stroke="#2f1e13" stroke-linecap="round" stroke-linejoin="round" stroke-width="1.0"/>
  </g>
</svg>
