<?xml version="1.0" encoding="UTF-8" standalone="no"?>
<svg xmlns:ffdec="https://www.free-decompiler.com/flash" xmlns:xlink="http://www.w3.org/1999/xlink" ffdec:objectType="shape" height="20.65px" width="31.2px" xmlns="http://www.w3.org/2000/svg">
  <g transform="matrix(1.0, 0.0, 0.0, 1.0, 25.6, 16.45)">
    <path d="M-23.2 -8.25 L-20.95 -7.3 -20.1 -7.15 -19.6 -6.7 -13.0 -3.75 -12.9 -3.2 -12.9 -3.1 Q-13.0 -0.5 -14.25 1.3 L-14.2 1.25 Q-15.7 3.55 -17.8 3.45 -20.0 3.55 -21.5 1.3 -22.75 -0.5 -22.75 -3.1 -22.8 -4.25 -22.5 -5.2 L-24.85 -6.55 -24.85 -6.6 Q-25.05 -7.1 -24.85 -7.6 L-24.15 -8.25 Q-23.65 -8.45 -23.2 -8.25 M-19.8 -3.1 Q-19.8 -1.5 -19.05 -0.35 -18.5 0.4 -17.8 0.5 L-16.7 -0.35 Q-16.1 -1.25 -15.9 -2.45 L-19.75 -4.05 -19.8 -3.1" fill="#000000" fill-rule="evenodd" stroke="none"/>
    <path d="M5.15 -4.7 L5.15 -4.6 Q5.15 -1.05 3.2 1.45 1.2 3.95 -1.6 4.0 -4.4 3.95 -6.35 1.45 -8.35 -1.05 -8.35 -4.6 L-8.35 -4.7 Q-8.35 -8.2 -6.35 -10.7 -4.4 -13.2 -1.6 -13.15 1.2 -13.2 3.2 -10.7 5.15 -8.2 5.15 -4.7 M1.45 -3.95 Q1.45 -6.45 0.3 -8.15 -0.85 -9.85 -2.5 -9.85 -3.55 -9.9 -4.45 -9.1 L-5.3 -8.15 -6.05 -6.45 Q-6.45 -5.35 -6.45 -3.95 -6.45 -1.5 -5.3 0.2 -4.1 1.9 -2.5 1.95 -0.85 1.9 0.3 0.2 1.45 -1.5 1.45 -3.95 M-23.2 -8.25 Q-23.65 -8.45 -24.15 -8.25 L-24.85 -7.6 Q-25.05 -7.1 -24.85 -6.6 L-24.85 -6.55 -22.5 -5.2 Q-22.8 -4.25 -22.75 -3.1 -22.75 -0.5 -21.5 1.3 -20.0 3.55 -17.8 3.45 -15.7 3.55 -14.2 1.25 L-14.25 1.3 Q-13.0 -0.5 -12.9 -3.1 L-12.9 -3.2 -13.0 -3.75 -19.6 -6.7 -20.1 -7.15 -20.95 -7.3 -23.2 -8.25 M-25.6 -4.45 Q-25.55 -7.95 -23.65 -10.35 -21.75 -12.7 -19.8 -10.55 -17.85 -8.4 -15.3 -7.2 -12.75 -6.05 -12.4 -5.25 L-12.05 -4.4 Q-12.1 -0.85 -14.05 1.65 -16.05 4.2 -18.85 4.2 -21.65 4.2 -23.6 1.65 -25.6 -0.85 -25.6 -4.4 L-25.6 -4.45" fill="#754b33" fill-rule="evenodd" stroke="none"/>
    <path d="M1.45 -3.95 Q1.45 -1.5 0.3 0.2 -0.85 1.9 -2.5 1.95 -4.1 1.9 -5.3 0.2 -6.45 -1.5 -6.45 -3.95 -6.45 -5.35 -6.05 -6.45 L-5.3 -8.15 -4.45 -9.1 Q-3.55 -9.9 -2.5 -9.85 -0.85 -9.85 0.3 -8.15 1.45 -6.45 1.45 -3.95 M-19.8 -3.1 L-19.75 -4.05 -15.9 -2.45 Q-16.1 -1.25 -16.7 -0.35 L-17.8 0.5 Q-18.5 0.4 -19.05 -0.35 -19.8 -1.5 -19.8 -3.1" fill="#926041" fill-rule="evenodd" stroke="none"/>
    <path d="M1.45 -3.95 Q1.45 -1.5 0.3 0.2 -0.85 1.9 -2.5 1.95 -4.1 1.9 -5.3 0.2 -6.45 -1.5 -6.45 -3.95 -6.45 -5.35 -6.05 -6.45 L-5.3 -8.15 -4.45 -9.1 Q-3.55 -9.9 -2.5 -9.85 -0.85 -9.85 0.3 -8.15 1.45 -6.45 1.45 -3.95" fill="none" stroke="#000000" stroke-linecap="round" stroke-linejoin="round" stroke-width="3.5"/>
    <path d="M-12.4 -8.05 Q-13.95 -15.9 -21.5 -14.6 M-8.1 -10.35 Q-3.75 -17.9 5.1 -15.3" fill="none" stroke="#2f1e13" stroke-linecap="round" stroke-linejoin="round" stroke-width="1.0"/>
  </g>
</svg>
