<?xml version="1.0" encoding="UTF-8" standalone="no"?>
<svg xmlns:ffdec="https://www.free-decompiler.com/flash" xmlns:xlink="http://www.w3.org/1999/xlink" ffdec:objectType="shape" height="63.1px" width="21.45px" xmlns="http://www.w3.org/2000/svg">
  <g transform="matrix(1.0, 0.0, 0.0, 1.0, 7.9, 1.55)">
    <path d="M-1.95 42.35 L-2.0 35.7 Q-1.65 35.9 -1.25 36.05 L-1.25 36.1 Q2.3 37.6 5.95 36.65 L6.35 36.5 7.5 37.85 7.5 43.3 6.8 43.45 2.7 43.65 1.5 38.2 Q0.7 43.3 0.15 43.15 L-1.8 42.4 -1.95 42.35" fill="#b30a0f" fill-rule="evenodd" stroke="none"/>
    <path d="M11.35 45.8 L11.95 56.0 11.95 56.1 11.95 56.4 11.65 57.1 11.2 57.4 11.65 57.15 Q10.2 60.6 7.75 61.3 5.15 62.25 1.4 59.85 L1.35 59.85 -0.2 58.2 -0.5 58.0 -0.85 57.55 -0.9 57.4 -0.9 57.35 -1.7 46.65 -0.1 47.2 -0.15 47.2 0.2 47.3 0.8 54.65 1.15 55.3 1.25 56.3 1.25 56.4 Q1.5 57.55 2.45 58.2 L2.45 58.15 Q5.2 59.9 7.15 59.4 L8.5 58.5 9.65 56.65 9.95 56.0 9.05 46.9 9.35 46.8 11.35 45.8" fill="#4b3121" fill-rule="evenodd" stroke="none"/>
    <path d="M6.9 47.55 L6.9 47.95 Q6.85 51.9 8.5 58.5 L7.15 59.4 Q5.2 59.9 2.45 58.15 L2.45 58.2 Q1.5 57.55 1.25 56.4 L1.25 56.3 1.15 55.3 0.8 54.65 0.2 47.3 6.9 47.55" fill="#83563a" fill-rule="evenodd" stroke="none"/>
    <path d="M8.5 58.5 Q6.85 51.9 6.9 47.95 L6.9 47.55 7.05 47.55 9.05 46.9 9.95 56.0 9.65 56.65 8.5 58.5" fill="#754b33" fill-rule="evenodd" stroke="none"/>
    <path d="M5.5 34.65 L5.15 31.45 Q1.15 1.5 1.15 -1.4 L1.15 -1.5 1.5 -1.45 1.85 -1.45 3.65 -1.25 4.4 -0.7 4.4 -0.45 7.75 33.75 7.4 33.95 7.4 33.9 5.5 34.65" fill="#c77a7a" fill-rule="evenodd" stroke="none"/>
    <path d="M1.15 -1.5 L1.15 -1.4 Q1.15 1.5 5.15 31.45 L5.5 34.65 5.4 34.7 Q2.4 35.5 -0.45 34.25 L-0.4 34.25 -1.0 34.0 Q-3.15 12.2 -5.75 0.95 L-5.95 0.15 Q-4.5 -1.55 -2.35 -1.55 L1.15 -1.5" fill="#eda7a9" fill-rule="evenodd" stroke="none"/>
    <path d="M5.5 34.65 L7.4 33.9 7.4 33.95 7.75 33.75 4.4 -0.45 4.4 -0.7 4.65 -1.15 Q4.9 -1.5 5.3 -1.55 L6.05 -1.3 6.4 -0.65 Q8.8 17.35 10.2 32.25 L10.85 32.4 11.3 33.05 13.5 43.4 13.55 43.85 13.4 44.25 13.05 44.6 11.85 45.5 11.8 45.5 11.35 45.8 9.35 46.8 9.05 46.9 7.05 47.55 6.9 47.55 0.2 47.3 -0.15 47.2 -0.1 47.2 -1.7 46.65 -2.15 46.45 -2.2 46.4 -3.25 45.9 -3.65 45.7 -3.95 44.95 -4.05 33.95 -4.05 33.85 -3.75 33.25 -3.25 33.0 -3.15 32.95 Q-4.95 17.8 -7.9 0.4 L-7.45 0.2 Q-7.05 0.15 -6.75 0.4 -6.4 0.65 -6.1 -0.4 L-5.95 0.15 -5.75 0.95 Q-3.15 12.2 -1.0 34.0 L-0.4 34.25 -0.45 34.25 Q2.4 35.5 5.4 34.7 L5.5 34.65 M6.35 36.5 L5.95 36.65 Q2.3 37.6 -1.25 36.1 L-1.25 36.05 Q-1.65 35.9 -2.0 35.7 L-1.95 42.35 -1.95 44.35 Q-1.7 44.45 -1.4 44.6 L-1.35 44.6 0.45 45.3 6.6 45.6 8.55 44.95 10.7 43.85 11.45 43.3 9.65 34.9 8.35 35.7 8.3 35.7 6.35 36.5" fill="#5e1c1e" fill-rule="evenodd" stroke="none"/>
    <path d="M6.35 36.5 L8.3 35.7 8.35 35.7 9.65 34.9 11.45 43.3 10.7 43.85 8.55 44.95 6.6 45.6 0.45 45.3 -1.35 44.6 -1.4 44.6 Q-1.7 44.45 -1.95 44.35 L-1.95 42.35 -1.8 42.4 0.15 43.15 Q0.7 43.3 1.5 38.2 L2.7 43.65 6.8 43.45 7.5 43.3 7.5 37.85 6.35 36.5" fill="#8d070b" fill-rule="evenodd" stroke="none"/>
  </g>
</svg>
