<?xml version="1.0" encoding="UTF-8" standalone="no"?>
<svg xmlns:ffdec="https://www.free-decompiler.com/flash" xmlns:xlink="http://www.w3.org/1999/xlink" ffdec:objectType="shape" height="89.55px" width="96.25px" xmlns="http://www.w3.org/2000/svg">
  <g transform="matrix(1.0, 0.0, 0.0, 1.0, 36.2, 34.65)">
    <path d="M3.75 -27.8 Q-3.1 -28.8 -13.15 -19.75 -9.2 -26.4 3.6 -31.2 3.3 -29.45 3.75 -27.8 M-14.6 -16.6 Q-30.55 -8.9 -35.15 3.35 -34.75 -7.45 -27.5 -10.85 L-27.45 -10.85 Q-21.45 -15.05 -15.0 -16.5 L-14.6 -16.6 M-21.5 -8.6 Q-20.0 -10.45 -15.55 -11.35 -23.9 -4.9 -23.35 7.45 -26.25 0.45 -24.4 -4.65 L-21.5 -8.6 M-5.5 -11.55 Q-1.75 -14.65 2.95 -15.1 -13.2 -4.15 -14.6 8.2 -16.7 0.95 -5.5 -11.55 M3.4 -8.1 L8.7 -11.35 Q0.65 -2.35 2.85 13.3 L2.85 13.45 Q-2.1 2.3 1.5 -4.75 L3.4 -8.1 M12.25 -2.25 Q29.7 18.25 14.8 30.05 L14.75 30.1 Q15.7 27.85 17.7 20.65 19.65 13.4 13.1 1.25 L12.8 0.75 12.25 -2.25 M32.05 13.5 L32.2 6.65 Q38.6 15.55 32.45 30.4 34.6 20.7 32.95 16.15 L32.05 13.5 M38.15 -23.1 Q32.6 -30.2 11.6 -28.6 17.6 -31.25 24.9 -31.0 35.75 -30.65 42.8 -28.15 L38.15 -23.1 M35.95 0.35 L38.5 2.6 Q24.25 0.9 20.75 -0.8 17.25 -2.5 14.15 -4.35 25.35 0.55 35.95 0.35" fill="#473025" fill-rule="evenodd" stroke="none"/>
    <path d="M11.6 -28.6 Q8.65 -27.35 6.0 -25.4 L5.15 -24.85 4.65 -25.7 Q4.05 -26.75 3.75 -27.8 3.3 -29.45 3.6 -31.2 -9.2 -26.4 -13.15 -19.75 L-14.4 -16.95 -14.6 -16.6 -15.0 -16.5 Q-21.45 -15.05 -27.45 -10.85 L-27.5 -10.85 Q-34.75 -7.45 -35.15 3.35 -30.35 -3.0 -25.9 -5.85 L-21.5 -8.6 -24.4 -4.65 Q-26.25 0.45 -23.35 7.45 -20.55 -5.15 -5.5 -11.55 -16.7 0.95 -14.6 8.2 -9.3 -2.55 0.15 -5.95 L3.4 -8.1 1.5 -4.75 Q-2.1 2.3 2.85 13.45 L2.85 13.3 Q2.85 6.2 6.15 3.5 L12.25 -2.25 12.8 0.75 13.1 1.25 Q19.65 13.4 17.7 20.65 15.7 27.85 14.75 30.1 L14.8 30.05 Q21.55 28.05 25.3 24.75 29.6 20.9 31.05 16.2 L31.95 13.5 32.05 13.5 32.95 16.15 Q34.6 20.7 32.45 30.4 L36.2 24.3 Q38.3 20.6 38.5 15.7 L38.6 14.0 40.05 14.9 Q48.35 19.9 48.55 29.8 48.65 27.75 49.35 26.25 50.05 24.75 51.45 19.1 52.85 13.45 57.0 4.0 L52.6 5.75 55.05 2.7 Q57.4 -4.0 58.75 -12.0 54.25 -9.65 51.05 -11.35 L50.15 -11.8 50.65 -12.75 Q52.75 -16.2 51.25 -22.45 43.9 -18.75 38.95 -22.55 L38.15 -23.1 42.8 -28.15 Q35.75 -30.65 24.9 -31.0 17.6 -31.25 11.6 -28.6 M4.9 -33.65 L7.3 -34.65 6.15 -32.25 Q4.9 -29.95 5.9 -27.6 15.0 -32.7 26.6 -32.2 38.8 -31.75 43.55 -28.85 L44.5 -28.3 40.95 -23.6 Q45.1 -21.05 50.6 -23.4 L51.5 -23.75 51.9 -22.95 Q54.95 -16.95 52.9 -12.7 55.45 -11.75 58.05 -13.1 L59.5 -13.85 59.5 -12.25 Q59.65 -5.1 57.4 2.0 L60.05 2.0 59.4 3.45 Q54.9 13.3 52.5 23.8 L52.5 23.85 Q51.1 29.9 50.4 36.1 49.95 40.4 53.0 43.55 L54.75 45.55 48.5 44.9 48.2 54.85 48.0 54.9 42.9 47.3 34.85 51.15 34.1 50.05 36.4 48.2 Q41.95 43.95 45.9 36.15 48.5 23.6 40.4 17.55 39.9 21.9 37.95 25.3 35.5 29.5 32.5 31.15 L30.6 32.25 31.05 30.05 Q32.3 24.05 31.75 19.8 30.0 23.25 26.65 26.25 L26.6 26.25 Q21.8 30.45 14.85 31.0 L13.25 31.15 13.85 29.65 15.05 26.05 Q18.45 13.75 11.7 2.8 8.45 3.0 6.1 5.65 3.5 8.5 3.5 12.55 L3.45 15.45 2.75 15.6 1.6 13.0 Q-2.15 4.7 -0.85 -3.35 -9.55 0.4 -13.85 8.95 L-15.0 11.15 -15.7 8.85 Q-18.3 1.35 -12.45 -5.6 -20.45 -0.65 -21.85 8.15 L-22.3 10.45 -23.65 8.6 Q-27.9 3.05 -27.0 -2.6 -31.25 0.45 -34.2 4.35 L-35.95 6.6 -36.2 6.5 -36.0 3.7 Q-35.25 -8.1 -28.6 -12.5 -22.45 -16.8 -15.85 -18.35 -10.05 -27.75 4.9 -33.65 M18.8 -19.0 L8.25 -19.85 Q3.5 -20.3 -4.6 -16.1 6.25 -24.55 18.8 -19.0 M35.95 0.35 Q30.3 -5.05 29.3 -9.75 L28.9 -11.3 30.5 -10.95 Q36.55 -8.85 43.3 -10.15 38.65 -7.4 31.65 -8.65 33.4 -3.45 38.7 1.8 L40.3 3.4 38.1 3.5 Q25.6 4.4 14.15 -4.35 17.25 -2.5 20.75 -0.8 24.25 0.9 38.5 2.6 L35.95 0.35 M47.8 36.8 L47.75 36.85 47.7 37.0 47.7 37.05 Q45.75 41.85 42.25 45.4 L43.6 44.75 46.35 48.85 46.55 42.65 50.0 43.0 Q48.0 39.85 48.4 35.9 L48.45 35.4 47.8 36.8" fill="#2f1e13" fill-rule="evenodd" stroke="none"/>
    <path d="M3.75 -27.8 Q4.05 -26.75 4.65 -25.7 L5.15 -24.85 6.0 -25.4 Q8.65 -27.35 11.6 -28.6 32.6 -30.2 38.15 -23.1 L38.95 -22.55 Q43.9 -18.75 51.25 -22.45 52.75 -16.2 50.65 -12.75 L50.15 -11.8 51.05 -11.35 Q54.25 -9.65 58.75 -12.0 57.4 -4.0 55.05 2.7 L52.6 5.75 57.0 4.0 Q52.85 13.45 51.45 19.1 50.05 24.75 49.35 26.25 48.65 27.75 48.55 29.8 48.35 19.9 40.05 14.9 L38.6 14.0 38.5 15.7 Q38.3 20.6 36.2 24.3 L32.45 30.4 Q38.6 15.55 32.2 6.65 L32.05 13.5 31.95 13.5 31.05 16.2 Q29.6 20.9 25.3 24.75 21.55 28.05 14.8 30.05 29.7 18.25 12.25 -2.25 L6.15 3.5 Q2.85 6.2 2.85 13.3 0.65 -2.35 8.7 -11.35 L3.4 -8.1 0.15 -5.95 Q-9.3 -2.55 -14.6 8.2 -13.2 -4.15 2.95 -15.1 -1.75 -14.65 -5.5 -11.55 -20.55 -5.15 -23.35 7.45 -23.9 -4.9 -15.55 -11.35 -20.0 -10.45 -21.5 -8.6 L-25.9 -5.85 Q-30.35 -3.0 -35.15 3.35 -30.55 -8.9 -14.6 -16.6 L-14.4 -16.95 -13.15 -19.75 Q-3.1 -28.8 3.75 -27.8 M18.8 -19.0 Q6.25 -24.55 -4.6 -16.1 3.5 -20.3 8.25 -19.85 L18.8 -19.0 M14.15 -4.35 Q25.6 4.4 38.1 3.5 L40.3 3.4 38.7 1.8 Q33.4 -3.45 31.65 -8.65 38.65 -7.4 43.3 -10.15 36.55 -8.85 30.5 -10.95 L28.9 -11.3 29.3 -9.75 Q30.3 -5.05 35.95 0.35 25.35 0.55 14.15 -4.35 M47.8 36.8 L48.45 35.4 48.4 35.9 Q48.0 39.85 50.0 43.0 L46.55 42.65 46.35 48.85 43.6 44.75 42.25 45.4 Q45.75 41.85 47.7 37.05 L47.7 37.0 47.75 36.85 47.8 36.8" fill="#3a271f" fill-rule="evenodd" stroke="none"/>
  </g>
</svg>
