<?xml version="1.0" encoding="UTF-8" standalone="no"?>
<svg xmlns:ffdec="https://www.free-decompiler.com/flash" xmlns:xlink="http://www.w3.org/1999/xlink" ffdec:objectType="shape" height="83.2px" width="83.05px" xmlns="http://www.w3.org/2000/svg">
  <g transform="matrix(1.0, 0.0, 0.0, 1.0, 35.0, 75.0)">
    <path d="M0.5 7.65 L2.05 7.85 -2.0 8.2 0.5 7.65" fill="#c18753" fill-rule="evenodd" stroke="none"/>
    <path d="M5.35 6.05 Q-0.45 5.9 -5.6 4.25 -8.7 3.3 -11.55 1.8 -16.9 -1.0 -21.45 -5.55 -32.35 -16.45 -32.95 -31.6 L-33.0 -33.45 -32.95 -35.35 Q-32.7 -41.4 -30.8 -46.75 -28.3 -48.2 -25.65 -48.8 -23.1 -49.35 -20.9 -47.95 L-17.9 -45.65 Q-17.4 -45.15 -16.65 -44.9 -14.65 -44.15 -12.6 -44.0 L-2.8 -44.3 3.65 -45.25 11.35 -44.9 Q14.2 -43.8 16.75 -42.05 19.3 -40.35 22.25 -36.8 25.2 -33.3 25.7 -29.75 26.15 -26.2 27.75 -21.95 26.3 -13.05 20.65 -5.8 L17.35 -2.15 16.7 -1.45 16.75 -1.5 Q11.5 3.45 5.35 6.05" fill="#926041" fill-rule="evenodd" stroke="none"/>
    <path d="M9.8 5.95 L9.75 5.95 6.55 6.05 5.35 6.05 Q11.5 3.45 16.75 -1.5 L16.7 -1.45 17.35 -2.15 20.65 -5.8 Q26.3 -13.05 27.75 -21.95 26.15 -26.2 25.7 -29.75 25.2 -33.3 22.25 -36.8 19.3 -40.35 16.75 -42.05 14.2 -43.8 11.35 -44.9 L3.65 -45.25 -2.8 -44.3 -12.6 -44.0 Q-14.65 -44.15 -16.65 -44.9 -17.4 -45.15 -17.9 -45.65 L-20.9 -47.95 Q-23.1 -49.35 -25.65 -48.8 -28.3 -48.2 -30.8 -46.75 -28.8 -52.6 -24.8 -57.6 L-21.05 -61.8 -21.1 -61.8 -17.75 -64.75 -15.75 -66.25 -15.7 -66.25 Q-10.0 -68.15 -3.45 -68.15 12.3 -68.15 23.5 -57.0 34.7 -45.8 34.7 -29.95 34.7 -16.75 26.85 -6.75 L23.5 -3.0 22.8 -2.25 22.85 -2.35 Q16.95 3.3 9.8 5.95" fill="#83563a" fill-rule="evenodd" stroke="none"/>
    <path d="M-15.7 -66.25 L-14.5 -67.1 Q-5.05 -72.95 6.35 -73.0 L6.55 -73.0 Q22.9 -73.0 34.45 -61.45 46.05 -49.85 46.05 -33.45 46.05 -19.8 37.95 -9.4 L34.45 -5.55 33.75 -4.8 33.8 -4.85 Q23.6 4.9 9.8 5.95 16.95 3.3 22.85 -2.35 L22.8 -2.25 23.5 -3.0 26.85 -6.75 Q34.7 -16.75 34.7 -29.95 34.7 -45.8 23.5 -57.0 12.3 -68.15 -3.45 -68.15 -10.0 -68.15 -15.7 -66.25" fill="#754b33" fill-rule="evenodd" stroke="none"/>
    <path d="M9.8 5.95 Q23.6 4.9 33.8 -4.85 L33.75 -4.8 34.45 -5.55 37.95 -9.4 Q46.05 -19.8 46.05 -33.45 46.05 -49.85 34.45 -61.45 22.9 -73.0 6.55 -73.0 L6.35 -73.0 Q-5.05 -72.95 -14.5 -67.1 L-15.7 -66.25 -15.75 -66.25 -17.75 -64.75 -21.1 -61.8 -21.05 -61.8 -24.8 -57.6 Q-28.8 -52.6 -30.8 -46.75 -32.7 -41.4 -32.95 -35.35 L-33.0 -33.45 -32.95 -31.6 Q-32.35 -16.45 -21.45 -5.55 -16.9 -1.0 -11.55 1.8 -8.7 3.3 -5.6 4.25 -0.45 5.9 5.35 6.05 L6.55 6.05 9.75 5.95 9.8 5.95 M0.5 7.65 L-6.2 6.15 Q-9.5 5.1 -12.5 3.55 -18.1 0.6 -22.85 -4.15 -34.35 -15.55 -34.95 -31.5 L-35.0 -33.45 -34.95 -35.45 Q-34.4 -48.75 -26.35 -58.85 L-26.4 -58.85 -22.5 -63.2 -22.3 -63.35 -22.25 -63.4 Q-10.4 -75.0 6.55 -75.0 23.7 -75.0 35.85 -62.85 48.05 -50.65 48.05 -33.45 48.05 -19.1 39.5 -8.15 L35.85 -4.15 35.25 -3.5 35.2 -3.4 Q23.2 8.05 6.55 8.05 L6.25 8.05 6.1 8.05 2.1 7.85 2.05 7.85 0.5 7.65" fill="#4b3121" fill-rule="evenodd" stroke="none"/>
  </g>
</svg>
