<?xml version="1.0" encoding="UTF-8" standalone="no"?>
<svg xmlns:ffdec="https://www.free-decompiler.com/flash" xmlns:xlink="http://www.w3.org/1999/xlink" ffdec:objectType="shape" height="63.35px" width="38.2px" xmlns="http://www.w3.org/2000/svg">
  <g transform="matrix(1.0, 0.0, 0.0, 1.0, 7.95, 11.65)">
    <path d="M26.15 47.75 Q22.5 51.35 18.75 47.75 15.6 44.65 13.25 40.8 L8.75 33.55 3.7 25.6 Q1.35 21.85 -0.9 17.65 L-3.95 11.55 Q-4.75 9.65 -5.65 8.4 L-7.95 4.65 Q-7.95 -1.35 -2.85 -8.95 3.05 3.05 12.9 21.65 23.05 40.95 25.45 46.15 L26.15 47.75" fill="#eda7a9" fill-rule="evenodd" stroke="none"/>
    <path d="M0.55 -11.65 L7.0 -0.45 Q9.9 4.75 12.5 11.7 15.1 18.65 17.35 22.65 L21.65 30.65 25.7 39.0 28.1 44.5 Q27.45 46.3 26.15 47.75 L25.45 46.15 Q23.05 40.95 12.9 21.65 3.05 3.05 -2.85 -8.95 -2.8 -11.15 0.55 -11.65" fill="#c77a7a" fill-rule="evenodd" stroke="none"/>
    <path d="M26.15 47.75 Q27.45 46.3 28.1 44.5 L25.7 39.0 21.65 30.65 17.35 22.65 Q15.1 18.65 12.5 11.7 9.9 4.75 7.0 -0.45 L0.55 -11.65 Q2.3 -11.3 5.65 -6.3 8.95 -1.3 12.4 6.55 L17.7 18.45 22.1 27.1 Q24.5 31.45 26.55 35.9 L30.25 44.45 Q29.6 47.4 27.35 49.5 23.5 53.1 18.9 50.75 18.1 50.4 17.6 49.85 14.3 46.2 11.6 41.95 L7.0 34.7 2.1 26.85 -2.65 18.25 Q-4.65 14.3 -7.95 4.65 L-5.65 8.4 Q-4.75 9.65 -3.95 11.55 L-0.9 17.65 Q1.35 21.85 3.7 25.6 L8.75 33.55 13.25 40.8 Q15.6 44.65 18.75 47.75 22.5 51.35 26.15 47.75" fill="#5e1c1e" fill-rule="evenodd" stroke="none"/>
  </g>
</svg>
