<?xml version="1.0" encoding="UTF-8" standalone="no"?>
<svg xmlns:ffdec="https://www.free-decompiler.com/flash" xmlns:xlink="http://www.w3.org/1999/xlink" ffdec:objectType="shape" height="44.55px" width="35.45px" xmlns="http://www.w3.org/2000/svg">
  <g transform="matrix(1.0, 0.0, 0.0, 1.0, 7.95, 37.2)">
    <path d="M21.65 -4.95 Q18.3 -9.15 17.95 -6.65 L16.95 -0.75 Q16.35 2.65 14.9 1.95 13.4 1.2 13.0 -3.0 12.6 -7.2 11.45 -5.25 10.3 -3.4 10.0 0.65 9.7 4.7 7.8 1.75 5.9 -1.25 4.9 -3.85 3.9 -6.45 2.45 -6.05 0.95 -5.7 0.0 0.0 -0.5 3.0 -0.75 3.25 -1.0 3.45 -1.25 1.75 -2.3 -5.05 -3.0 -7.0 -5.05 -12.5 -6.7 3.55 -7.25 1.1 -6.95 -2.15 L-6.4 -8.85 Q-6.1 -12.35 -4.8 -11.2 -3.8 -10.35 -2.55 -9.8 L0.65 -8.75 Q1.75 -8.35 2.95 -8.1 L5.55 -7.7 8.3 -7.6 11.1 -7.6 14.9 -8.15 Q16.45 -8.55 18.1 -9.35 L20.2 -8.85 21.65 -4.95" fill="#b30a0f" fill-rule="evenodd" stroke="none"/>
    <path d="M13.0 -14.2 L12.9 -14.8 14.05 -14.5 13.8 -14.4 13.0 -14.2 M2.05 -14.75 L2.15 -14.2 1.15 -14.45 1.15 -14.5 2.05 -14.75" fill="#77060a" fill-rule="evenodd" stroke="none"/>
    <path d="M11.85 -13.95 L12.6 -14.1 13.0 -14.2 13.8 -14.4 14.05 -14.5 12.9 -14.8 12.45 -16.95 13.1 -16.8 Q15.9 -16.1 16.05 -14.85 L16.0 -14.85 16.05 -14.5 Q16.3 -13.05 13.45 -12.25 L13.1 -12.15 11.85 -11.85 10.55 -11.65 8.35 -11.6 4.45 -11.75 2.35 -12.1 2.0 -12.15 Q-0.65 -12.85 -0.9 -14.0 L-0.95 -14.5 -0.9 -14.85 -0.95 -14.85 Q-0.85 -16.05 1.75 -16.75 L2.05 -14.75 1.15 -14.5 1.15 -14.45 2.15 -14.2 2.5 -14.1 3.75 -13.85 7.55 -13.6 11.85 -13.95 M12.4 -17.4 L12.1 -19.45 15.15 -19.0 17.8 -18.1 20.65 -16.6 22.1 -15.05 22.4 -14.35 27.5 2.7 27.45 3.5 27.05 3.9 26.55 4.0 23.5 4.05 20.95 4.05 16.65 4.4 15.8 4.5 8.85 6.15 5.9 6.9 3.25 7.25 Q0.0 7.6 -2.95 6.65 L-6.0 5.35 -7.7 4.45 -7.9 3.7 -7.9 2.3 -7.8 -0.4 -7.15 -8.6 -6.9 -10.55 -6.15 -14.6 Q-5.85 -16.1 -4.55 -16.8 L-2.8 -17.75 Q-0.8 -18.8 1.3 -19.05 L1.7 -17.1 -1.1 -16.35 Q-2.55 -15.85 -3.85 -14.85 L-4.4 -14.0 -4.4 -13.9 -4.4 -13.8 -4.25 -13.15 -4.1 -12.65 -3.65 -11.6 Q-3.35 -10.75 -2.3 -10.15 -1.25 -9.55 0.0 -9.25 L4.5 -8.45 10.05 -7.9 Q12.3 -7.95 15.25 -8.95 18.15 -10.0 19.1 -11.3 20.05 -12.6 20.3 -14.0 L20.3 -14.05 Q20.5 -14.6 20.0 -15.0 L18.75 -15.75 16.15 -16.65 12.4 -17.4 M21.65 -4.95 L20.2 -8.85 18.1 -9.35 Q16.45 -8.55 14.9 -8.15 L11.1 -7.6 8.3 -7.6 5.55 -7.7 2.95 -8.1 Q1.75 -8.35 0.65 -8.75 L-2.55 -9.8 Q-3.8 -10.35 -4.8 -11.2 -6.1 -12.35 -6.4 -8.85 L-6.95 -2.15 Q-7.25 1.1 -6.7 3.55 L-2.2 4.8 3.3 5.2 5.7 4.85 8.35 4.2 11.2 3.5 12.45 3.2 14.65 2.7 17.15 2.3 20.35 2.2 21.45 2.15 Q22.9 -0.55 21.65 -4.95" fill="#5e1c1e" fill-rule="evenodd" stroke="none"/>
    <path d="M2.4 -23.35 L2.2 -23.75 2.1 -24.05 1.95 -24.35 -2.0 -32.85 -2.35 -33.55 4.9 -35.1 Q7.65 -35.65 9.35 -33.6 L9.85 -32.85 10.2 -32.15 9.85 -30.9 9.8 -30.55 9.6 -27.8 9.6 -24.25 8.35 -23.95 Q6.2 -23.15 2.4 -23.35" fill="#754b33" fill-rule="evenodd" stroke="none"/>
    <path d="M9.6 -24.25 L9.6 -27.8 9.8 -30.55 9.85 -30.9 10.2 -32.15 9.85 -32.85 9.35 -33.6 Q7.65 -35.65 4.9 -35.1 L-2.35 -33.55 -2.0 -32.85 1.95 -24.35 2.1 -24.05 2.2 -23.75 2.4 -23.35 3.1 -19.35 3.4 -17.35 3.4 -17.1 3.65 -15.1 3.75 -13.85 2.5 -14.1 2.15 -14.2 2.05 -14.75 1.75 -16.75 1.7 -17.1 1.3 -19.05 Q0.2 -23.7 -1.6 -27.55 L-4.2 -32.85 -4.7 -33.8 -4.75 -34.35 -4.5 -34.9 -4.0 -35.25 4.55 -37.05 Q8.5 -37.85 10.85 -34.8 L12.1 -32.85 12.2 -32.65 12.25 -31.95 11.75 -30.35 11.75 -30.3 11.6 -27.75 11.6 -27.7 Q11.45 -23.85 12.1 -19.45 L12.4 -17.4 12.45 -16.95 12.9 -14.8 13.0 -14.2 12.6 -14.1 11.85 -13.95 11.5 -15.1 10.9 -17.2 10.8 -17.55 10.35 -19.6 9.6 -24.25" fill="#4b3121" fill-rule="evenodd" stroke="none"/>
    <path d="M2.4 -23.35 Q6.2 -23.15 8.35 -23.95 L9.6 -24.25 10.35 -19.6 10.8 -17.55 10.9 -17.2 11.5 -15.1 11.85 -13.95 7.55 -13.6 3.75 -13.85 3.65 -15.1 3.4 -17.1 3.4 -17.35 3.1 -19.35 2.4 -23.35" fill="#83563a" fill-rule="evenodd" stroke="none"/>
    <path d="M12.45 -16.95 L12.4 -17.4 16.15 -16.65 18.75 -15.75 20.0 -15.0 Q20.5 -14.6 20.3 -14.05 L20.3 -14.0 Q20.05 -12.6 19.1 -11.3 18.15 -10.0 15.25 -8.95 12.3 -7.95 10.05 -7.9 L4.5 -8.45 0.0 -9.25 Q-1.25 -9.55 -2.3 -10.15 -3.35 -10.75 -3.65 -11.6 L-4.1 -12.65 -4.25 -13.15 -4.4 -13.8 -4.4 -13.9 -4.4 -14.0 -3.85 -14.85 Q-2.55 -15.85 -1.1 -16.35 L1.7 -17.1 1.75 -16.75 Q-0.85 -16.05 -0.95 -14.85 L-0.9 -14.85 -0.95 -14.5 -0.9 -14.0 Q-0.65 -12.85 2.0 -12.15 L2.35 -12.1 4.45 -11.75 8.35 -11.6 10.55 -11.65 11.85 -11.85 13.1 -12.15 13.45 -12.25 Q16.3 -13.05 16.05 -14.5 L16.0 -14.85 16.05 -14.85 Q15.9 -16.1 13.1 -16.8 L12.45 -16.95 M-6.7 3.55 Q-5.05 -12.5 -3.0 -7.0 -2.3 -5.05 -1.25 1.75 -1.0 3.45 -0.75 3.25 -0.5 3.0 0.0 0.0 0.95 -5.7 2.45 -6.05 3.9 -6.45 4.9 -3.85 5.9 -1.25 7.8 1.75 9.7 4.7 10.0 0.65 10.3 -3.4 11.45 -5.25 12.6 -7.2 13.0 -3.0 13.4 1.2 14.9 1.95 16.35 2.65 16.95 -0.75 L17.95 -6.65 Q18.3 -9.15 21.65 -4.95 22.9 -0.55 21.45 2.15 L20.35 2.2 17.15 2.3 14.65 2.7 12.45 3.2 11.2 3.5 8.35 4.2 5.7 4.85 3.3 5.2 -2.2 4.8 -6.7 3.55" fill="#8d070b" fill-rule="evenodd" stroke="none"/>
  </g>
</svg>
