<?xml version="1.0" encoding="UTF-8" standalone="no"?>
<svg xmlns:ffdec="https://www.free-decompiler.com/flash" xmlns:xlink="http://www.w3.org/1999/xlink" ffdec:objectType="shape" height="30.85px" width="41.2px" xmlns="http://www.w3.org/2000/svg">
  <g transform="matrix(1.0, 0.0, 0.0, 1.0, 26.0, 25.2)">
    <path d="M-22.85 -4.15 Q-24.9 -8.8 -26.0 -10.65 L-25.6 -11.0 -24.85 -11.05 Q-16.85 -8.25 -8.3 -9.55 5.65 -11.95 12.15 -24.55 L12.75 -25.05 13.1 -25.1 13.15 -25.1 13.3 -25.2 14.75 -18.45 Q15.6 -13.25 14.8 -5.75 L14.55 -5.15 14.35 -4.75 Q5.3 7.55 -10.05 5.3 -18.1 4.0 -22.85 -4.1 L-22.85 -4.15 M-18.4 -7.4 L-16.55 -5.55 -16.35 -5.55 Q-14.4 -4.7 -9.5 -4.7 -4.95 -4.7 0.65 -6.35 4.05 -7.4 6.8 -9.2 8.05 -10.05 10.9 -12.8 12.2 -13.65 13.15 -15.05 L12.75 -20.55 12.65 -21.35 Q5.65 -9.95 -7.95 -7.6 L-8.0 -7.6 Q-13.3 -6.75 -18.4 -7.45 L-19.75 -7.65 -23.55 -8.5 -21.15 -5.15 -21.1 -5.15 Q-16.9 2.1 -9.75 3.35 L-9.75 3.3 Q-1.0 4.6 5.55 0.75 L6.55 0.15 6.3 0.3 6.25 0.0 6.25 -1.25 Q6.1 -8.55 12.6 -8.55 L13.05 -8.5 13.2 -13.35 Q11.75 -11.25 8.25 -8.8 0.8 -3.55 -9.85 -3.55 -13.85 -3.55 -15.95 -4.4 L-16.45 -4.25 Q-16.95 -4.25 -21.55 -8.0 L-19.75 -7.6 -18.4 -7.4 M7.85 -3.7 Q7.45 -2.85 7.2 -0.3 10.25 -2.55 12.75 -5.95 L12.8 -6.0 12.9 -6.9 12.95 -7.4 Q9.65 -7.55 8.65 -6.25 L7.85 -3.7" fill="#48241e" fill-rule="evenodd" stroke="none"/>
    <path d="M-18.4 -7.4 L-19.75 -7.6 -21.55 -8.0 Q-16.95 -4.25 -16.45 -4.25 L-15.95 -4.4 Q-13.85 -3.55 -9.85 -3.55 0.8 -3.55 8.25 -8.8 11.75 -11.25 13.2 -13.35 L13.05 -8.5 12.6 -8.55 Q6.1 -8.55 6.25 -1.25 L6.25 0.0 6.3 0.3 6.55 0.15 5.55 0.75 Q-1.0 4.6 -9.75 3.3 L-9.75 3.35 Q-16.9 2.1 -21.1 -5.15 L-21.15 -5.15 -23.55 -8.5 -19.75 -7.65 -18.4 -7.45 -18.4 -7.4" fill="#57352d" fill-rule="evenodd" stroke="none"/>
    <path d="M-22.85 -4.15 L-22.85 -4.1 -22.85 -4.15" fill="#463624" fill-rule="evenodd" stroke="none"/>
    <path d="M-18.4 -7.45 Q-13.3 -6.75 -8.0 -7.6 L-7.95 -7.6 Q5.65 -9.95 12.65 -21.35 L12.75 -20.55 13.15 -15.05 Q12.2 -13.65 10.9 -12.8 8.05 -10.05 6.8 -9.2 4.05 -7.4 0.65 -6.35 -4.95 -4.7 -9.5 -4.7 -14.4 -4.7 -16.35 -5.55 L-16.55 -5.55 -18.4 -7.4 -18.4 -7.45" fill="#e5e5e5" fill-rule="evenodd" stroke="none"/>
    <path d="M7.85 -3.7 L8.65 -6.25 Q9.65 -7.55 12.95 -7.4 L12.9 -6.9 12.8 -6.0 12.75 -5.95 Q10.25 -2.55 7.2 -0.3 7.45 -2.85 7.85 -3.7" fill="#b45f50" fill-rule="evenodd" stroke="none"/>
  </g>
</svg>
