<?xml version="1.0" encoding="UTF-8" standalone="no"?>
<svg xmlns:ffdec="https://www.free-decompiler.com/flash" xmlns:xlink="http://www.w3.org/1999/xlink" ffdec:objectType="shape" height="30.85px" width="41.2px" xmlns="http://www.w3.org/2000/svg">
  <g transform="matrix(1.0, 0.0, 0.0, 1.0, 26.0, 25.2)">
    <path d="M-22.85 -4.15 Q-24.9 -8.8 -26.0 -10.65 L-25.6 -11.0 -24.85 -11.05 Q-16.85 -8.25 -8.3 -9.55 5.65 -11.95 12.15 -24.55 L12.75 -25.05 13.1 -25.1 13.15 -25.1 13.3 -25.2 14.75 -18.45 Q15.6 -13.25 14.8 -5.75 L14.55 -5.15 14.35 -4.75 Q5.3 7.55 -10.05 5.3 -18.1 4.0 -22.85 -4.1 L-22.85 -4.15 M13.25 -12.05 L13.25 -12.1 13.2 -14.25 13.1 -14.95 13.15 -15.05 13.15 -15.15 12.75 -20.55 12.65 -21.35 Q5.65 -9.95 -7.95 -7.6 L-8.0 -7.6 Q-13.25 -6.75 -18.3 -7.45 L-19.05 -7.6 -19.35 -7.55 -19.75 -7.65 -23.55 -8.5 -22.4 -7.1 -21.85 -6.25 -21.15 -5.15 -21.05 -5.05 -20.35 -3.9 -20.35 -3.95 -20.15 -4.0 -16.1 -1.3 -13.35 -2.0 -12.95 -2.1 -10.85 -2.55 -10.7 -2.6 -9.8 -2.6 -9.7 -2.35 -9.75 -2.1 -9.8 -2.1 -14.75 -0.55 -15.25 0.95 -15.25 1.05 -15.3 1.15 -15.3 1.2 -13.15 2.35 -9.75 3.35 -9.75 3.3 Q-1.0 4.6 5.55 0.75 L5.6 0.8 5.3 1.05 6.0 0.5 6.3 0.3 10.1 -2.9 10.7 -3.5 12.75 -5.95 12.8 -6.0 12.8 -6.05 13.05 -6.05 13.1 -6.85 Q12.15 -7.65 11.6 -7.65 9.35 -7.65 7.6 -6.85 L7.5 -6.8 6.95 -6.45 5.9 -5.9 5.85 -5.9 5.75 -5.9 5.25 -5.9 Q5.15 -5.85 5.15 -6.1 5.15 -6.5 6.55 -7.15 L7.0 -7.35 7.05 -7.35 7.55 -7.55 8.5 -7.9 8.6 -7.95 8.75 -8.0 Q11.7 -9.0 11.9 -9.25 12.65 -10.35 13.2 -12.0 L13.2 -11.25 13.25 -12.05 M-18.75 -1.8 L-18.6 -1.6 -16.9 0.0 -15.45 1.1 -16.3 0.5 -16.35 0.05 -18.15 -1.4 -18.75 -1.8" fill="#48241e" fill-rule="evenodd" stroke="none"/>
    <path d="M13.1 -14.95 L13.2 -14.25 13.25 -12.1 13.25 -12.05 13.2 -12.0 Q12.65 -10.35 11.9 -9.25 11.7 -9.0 8.75 -8.0 L8.6 -7.95 8.5 -7.9 7.55 -7.55 7.05 -7.35 7.0 -7.35 6.8 -7.35 6.55 -7.15 Q5.15 -6.5 5.15 -6.1 5.15 -5.85 5.25 -5.9 L5.75 -5.9 5.85 -5.9 5.9 -5.9 6.95 -6.45 7.5 -6.8 7.55 -6.8 7.6 -6.8 7.6 -6.85 Q9.35 -7.65 11.6 -7.65 12.15 -7.65 13.1 -6.85 L13.05 -6.05 12.8 -6.05 12.8 -6.0 12.75 -5.95 10.7 -3.5 10.1 -2.9 Q9.9 -6.15 7.3 -6.15 L4.85 -5.45 4.6 -5.5 4.5 -5.8 Q4.5 -6.5 8.55 -9.55 L9.5 -11.15 Q8.1 -10.1 6.3 -9.3 1.55 -7.25 -0.25 -6.8 -6.6 -5.3 -10.35 -5.3 L-18.85 -6.05 -21.6 -6.85 Q-18.05 -2.55 -12.75 -2.55 L-8.45 -2.8 -5.9 -2.7 Q-5.8 -2.65 -5.85 -2.45 -7.0 -1.7 -10.65 -0.15 -12.05 0.75 -12.55 2.55 L-13.15 2.35 -15.3 1.2 -15.3 1.15 -15.25 1.05 -15.25 1.0 -15.25 0.95 -14.75 -0.55 -9.8 -2.1 -9.75 -2.1 -9.7 -2.35 -9.8 -2.6 -10.7 -2.6 -10.85 -2.55 -12.95 -2.1 -13.35 -2.0 -16.1 -1.3 -20.15 -4.0 -20.35 -3.95 -20.35 -3.9 -21.05 -5.05 -21.1 -5.15 -21.15 -5.15 -21.85 -6.25 -22.4 -7.1 -23.55 -8.5 -19.75 -7.65 -19.35 -7.55 -19.05 -7.6 -18.3 -7.45 Q-13.25 -6.75 -8.0 -7.6 L-7.95 -7.6 Q5.65 -9.95 12.65 -21.35 L12.75 -20.55 13.15 -15.15 13.1 -15.1 13.0 -14.95 13.1 -14.95" fill="#e5e5e5" fill-rule="evenodd" stroke="none"/>
    <path d="M-22.85 -4.15 L-22.85 -4.1 -22.85 -4.15 M7.5 -6.8 L7.6 -6.85 7.55 -6.8 7.5 -6.8 M5.6 0.8 L5.55 0.75 6.0 0.5 5.6 0.8 M-21.05 -5.05 L-21.15 -5.15 -21.1 -5.15 -21.05 -5.05" fill="#463624" fill-rule="evenodd" stroke="none"/>
    <path d="M-15.25 1.05 L-15.25 0.95 -15.25 1.0 -15.25 1.05 M-18.75 -1.8 L-18.15 -1.4 -16.35 0.05 -16.3 0.5 -15.45 1.1 -16.9 0.0 -18.6 -1.6 -18.75 -1.8" fill="#57352d" fill-rule="evenodd" stroke="none"/>
    <path d="M7.0 -7.35 L6.55 -7.15 6.8 -7.35 7.0 -7.35 M10.1 -2.9 L6.3 0.3 6.0 0.5 5.55 0.75 Q-1.0 4.6 -9.75 3.3 L-9.75 3.35 -13.15 2.35 -12.55 2.55 Q-12.05 0.75 -10.65 -0.15 -7.0 -1.7 -5.85 -2.45 -5.8 -2.65 -5.9 -2.7 L-8.45 -2.8 -12.75 -2.55 Q-18.05 -2.55 -21.6 -6.85 L-18.85 -6.05 -10.35 -5.3 Q-6.6 -5.3 -0.25 -6.8 1.55 -7.25 6.3 -9.3 8.1 -10.1 9.5 -11.15 L8.55 -9.55 Q4.5 -6.5 4.5 -5.8 L4.6 -5.5 4.85 -5.45 7.3 -6.15 Q9.9 -6.15 10.1 -2.9 M13.15 -15.15 L13.15 -15.05 13.1 -14.95 13.0 -14.95 13.1 -15.1 13.15 -15.15 M7.55 -6.8 L7.6 -6.85 7.6 -6.8 7.55 -6.8" fill="#f9f9f9" fill-rule="evenodd" stroke="none"/>
  </g>
</svg>
