<?xml version="1.0" encoding="UTF-8" standalone="no"?>
<svg xmlns:ffdec="https://www.free-decompiler.com/flash" xmlns:xlink="http://www.w3.org/1999/xlink" ffdec:objectType="shape" height="14.65px" width="27.85px" xmlns="http://www.w3.org/2000/svg">
  <g transform="matrix(1.0, 0.0, 0.0, 1.0, 14.05, 13.6)">
    <path d="M-10.7 -0.9 L-10.5 -0.8 -9.55 -0.4 Q2.2 0.75 7.55 -2.4 11.9 -4.95 11.9 -7.7 11.9 -11.85 4.3 -11.85 -3.5 -11.85 -8.75 -8.55 -10.85 -7.25 -12.5 -5.75 L-11.8 -4.8 -11.2 -4.05 Q-9.4 -5.75 -3.7 -6.0 L-2.45 -5.75 -2.4 -5.55 -6.7 -4.25 Q-7.6 -3.95 -9.45 -2.65 L-9.55 -2.4 -10.6 -1.1 -10.95 -1.0 -10.7 -0.9 M13.8 -7.35 Q13.8 -4.9 10.4 -2.35 5.9 1.0 -1.7 1.0 L-6.3 0.9 -6.35 0.9 -7.55 1.05 Q-14.45 1.05 -14.0 -4.55 L-13.9 -5.35 Q-13.25 -8.3 -7.1 -10.9 -0.8 -13.6 5.55 -13.6 11.3 -13.6 13.05 -10.9 13.8 -9.8 13.8 -7.35" fill="#48241e" fill-rule="evenodd" stroke="none"/>
    <path d="M-2.45 -5.75 L-3.7 -6.0 Q-9.4 -5.75 -11.2 -4.05 L-11.8 -4.8 -12.5 -5.75 Q-10.85 -7.25 -8.75 -8.55 -3.5 -11.85 4.3 -11.85 11.9 -11.85 11.9 -7.7 11.9 -4.95 7.55 -2.4 2.2 0.75 -9.55 -0.4 L-10.5 -0.8 -10.7 -0.9 -10.6 -1.1 -9.55 -2.4 -9.45 -2.6 -9.45 -2.65 Q-7.6 -3.95 -6.7 -4.25 L-2.4 -5.55 -2.35 -5.6 -2.45 -5.75" fill="#e5e5e5" fill-rule="evenodd" stroke="none"/>
    <path d="M-2.45 -5.75 L-2.35 -5.6 -2.4 -5.55 -2.45 -5.75 M-9.45 -2.65 L-9.45 -2.6 -9.55 -2.4 -9.45 -2.65" fill="#463624" fill-rule="evenodd" stroke="none"/>
  </g>
</svg>
