<?xml version="1.0" encoding="UTF-8" standalone="no"?>
<svg xmlns:ffdec="https://www.free-decompiler.com/flash" xmlns:xlink="http://www.w3.org/1999/xlink" ffdec:objectType="shape" height="25.9px" width="35.65px" xmlns="http://www.w3.org/2000/svg">
  <g transform="matrix(1.0, 0.0, 0.0, 1.0, 19.25, 20.9)">
    <path d="M-11.5 -11.15 L-7.75 -13.75 Q0.1 -18.85 5.55 -18.85 10.85 -18.85 13.45 -14.55 L14.5 -12.45 Q14.2 -12.55 14.0 -12.75 13.4 -13.4 10.8 -13.4 L9.3 -13.35 Q-5.7 -7.75 -7.2 -7.75 -7.7 -7.75 -9.6 -9.55 L-11.5 -11.15" fill="#e5e5e5" fill-rule="evenodd" stroke="none"/>
    <path d="M-11.5 -11.15 L-9.6 -9.55 Q-7.7 -7.75 -7.2 -7.75 -5.7 -7.75 9.3 -13.35 L10.8 -13.4 Q13.4 -13.4 14.0 -12.75 14.2 -12.55 14.5 -12.45 L13.45 -14.55 Q10.85 -18.85 5.55 -18.85 0.1 -18.85 -7.75 -13.75 L-11.5 -11.15 -12.0 -10.8 -11.5 -11.15 M-3.1 -1.95 L-3.45 -0.7 Q-3.45 1.15 -1.3 1.15 1.75 1.15 4.0 -0.95 5.55 -2.4 6.15 -4.1 L6.55 -4.25 6.9 -3.9 6.6 -2.45 5.85 -1.25 5.75 -1.15 5.9 -1.2 6.25 -1.2 6.55 -1.15 8.2 -0.35 8.3 -0.2 8.45 0.1 8.45 0.2 8.55 0.9 8.45 1.2 8.65 1.1 10.25 0.25 Q11.65 -0.6 12.7 -1.7 12.35 -1.9 12.15 -2.4 L11.3 -4.15 Q9.55 -6.7 4.3 -6.7 -1.55 -6.7 -3.1 -1.95 M4.5 2.55 L4.45 2.3 Q4.45 1.85 5.2 1.45 5.95 1.1 5.95 0.75 5.2 0.55 4.55 0.0 1.8 2.5 -0.7 2.5 -4.55 2.5 -4.55 -0.45 -4.55 -2.25 -2.95 -4.5 -0.45 -7.95 4.3 -7.95 8.85 -7.95 11.55 -5.6 13.35 -4.05 13.55 -2.7 15.8 -5.8 15.15 -9.35 L15.0 -10.85 14.9 -11.35 15.0 -10.9 14.9 -10.9 Q13.6 -10.9 13.2 -11.5 12.85 -12.1 10.6 -12.1 6.95 -12.1 0.35 -9.35 -6.2 -6.6 -7.05 -6.6 -8.9 -6.6 -12.35 -10.5 L-13.0 -9.95 -15.85 -7.35 Q-13.4 -5.55 -13.05 -2.25 -12.9 -0.35 -13.0 3.4 L-6.45 3.65 Q0.0 3.65 4.55 2.55 L4.6 2.55 5.4 2.3 4.5 2.55 M14.3 -1.6 Q9.2 5.0 -6.55 5.0 L-14.4 4.95 -14.55 4.7 Q-14.35 4.3 -14.5 4.0 L-14.35 2.65 -14.25 0.15 Q-14.25 -6.35 -17.15 -6.35 -17.7 -6.35 -18.7 -5.5 -19.25 -5.7 -19.25 -6.3 -2.55 -20.9 7.15 -20.9 12.25 -20.9 14.85 -15.35 16.15 -12.55 16.4 -9.5 16.4 -4.35 14.3 -1.6" fill="#48241e" fill-rule="evenodd" stroke="none"/>
    <path d="M-3.1 -1.95 Q-2.0 -0.6 0.3 -0.6 3.25 -0.6 4.95 -2.75 L6.65 -4.95 Q9.8 -4.95 10.3 -0.35 L10.25 0.25 8.65 1.1 8.55 0.9 8.45 0.2 8.45 0.1 8.3 -0.2 8.2 -0.35 6.55 -1.15 6.25 -1.2 6.6 -2.45 6.9 -3.9 6.55 -4.25 6.15 -4.1 Q5.55 -2.4 4.0 -0.95 1.75 1.15 -1.3 1.15 -3.45 1.15 -3.45 -0.7 L-3.1 -1.95 M7.15 -3.2 L7.15 -4.55 7.1 -3.9 6.9 -3.85 6.8 -2.8 6.8 -2.45 7.15 -3.2" fill="#a05345" fill-rule="evenodd" stroke="none"/>
    <path d="M10.25 0.25 L10.3 -0.35 Q9.8 -4.95 6.65 -4.95 L4.95 -2.75 Q3.25 -0.6 0.3 -0.6 -2.0 -0.6 -3.1 -1.95 -1.55 -6.7 4.3 -6.7 9.55 -6.7 11.3 -4.15 L12.15 -2.4 Q12.35 -1.9 12.7 -1.7 11.65 -0.6 10.25 0.25 M6.6 -2.45 L6.25 -1.2 5.9 -1.2 5.85 -1.25 6.6 -2.45" fill="#b45f50" fill-rule="evenodd" stroke="none"/>
    <path d="M7.15 -3.2 L6.8 -2.45 6.8 -2.8 6.9 -3.85 7.1 -3.9 7.15 -4.55 7.15 -3.2 M15.0 -10.9 L14.9 -10.9 15.0 -10.9" fill="#463624" fill-rule="evenodd" stroke="none"/>
    <path d="M15.0 -10.85 L15.15 -9.35 Q15.8 -5.8 13.55 -2.7 13.35 -4.05 11.55 -5.6 8.85 -7.95 4.3 -7.95 -0.45 -7.95 -2.95 -4.5 -4.55 -2.25 -4.55 -0.45 -4.55 2.5 -0.7 2.5 1.8 2.5 4.55 0.0 5.2 0.55 5.95 0.75 5.95 1.1 5.2 1.45 4.45 1.85 4.45 2.3 L4.5 2.55 4.55 2.55 Q0.0 3.65 -6.45 3.65 L-13.0 3.4 Q-12.9 -0.35 -13.05 -2.25 -13.4 -5.55 -15.85 -7.35 L-13.0 -9.95 -12.35 -10.5 Q-8.9 -6.6 -7.05 -6.6 -6.2 -6.6 0.35 -9.35 6.95 -12.1 10.6 -12.1 12.85 -12.1 13.2 -11.5 13.6 -10.9 14.9 -10.9 L15.0 -10.9 15.0 -10.85" fill="#57352d" fill-rule="evenodd" stroke="none"/>
  </g>
</svg>
