<?xml version="1.0" encoding="UTF-8" standalone="no"?>
<svg xmlns:ffdec="https://www.free-decompiler.com/flash" xmlns:xlink="http://www.w3.org/1999/xlink" ffdec:objectType="shape" height="21.1px" width="32.35px" xmlns="http://www.w3.org/2000/svg">
  <g transform="matrix(1.0, 0.0, 0.0, 1.0, 20.85, 17.45)">
    <path d="M10.15 -15.15 L10.3 -14.35 Q10.3 -9.35 7.8 -4.85 3.1 3.65 -8.55 3.65 -12.7 3.65 -14.25 2.9 -16.35 1.9 -17.2 -1.35 -17.7 -3.2 -19.7 -6.7 L-19.7 -7.1 -19.55 -7.15 -20.85 -9.4 Q-11.15 -6.1 -1.4 -9.4 5.35 -11.85 10.2 -17.25 L11.0 -17.35 11.15 -17.25 Q10.55 -17.15 10.0 -15.35 L9.95 -15.2 9.9 -15.05 10.15 -15.15 M3.1 -4.25 Q-1.65 -4.25 -3.35 -1.35 -3.95 -0.3 -4.3 1.35 2.4 0.4 5.65 -3.55 L3.1 -4.25 M8.8 -12.25 L9.0 -13.45 Q7.55 -11.65 3.9 -9.15 -1.55 -5.45 -9.0 -5.2 -14.9 -5.05 -17.95 -6.15 -17.2 -5.0 -16.2 -2.6 L-15.0 -0.1 Q-14.7 0.55 -14.95 1.25 L-8.9 1.65 -5.4 1.5 Q-3.65 -5.35 3.05 -5.35 4.95 -5.35 6.45 -4.65 L6.05 -4.1 7.35 -6.4 Q8.25 -8.55 8.8 -12.25" fill="#48241e" fill-rule="evenodd" stroke="none"/>
    <path d="M11.15 -17.25 L11.0 -17.35 Q11.9 -17.25 11.2 -17.25 L11.15 -17.25" fill="#463624" fill-rule="evenodd" stroke="none"/>
    <path d="M10.15 -15.15 L9.9 -15.05 9.95 -15.2 10.0 -15.35 10.15 -15.15" fill="#463623" fill-rule="evenodd" stroke="none"/>
    <path d="M3.1 -4.25 L5.65 -3.55 Q2.4 0.4 -4.3 1.35 -3.95 -0.3 -3.35 -1.35 -1.65 -4.25 3.1 -4.25" fill="#b45f50" fill-rule="evenodd" stroke="none"/>
    <path d="M8.8 -12.25 Q8.25 -8.55 7.35 -6.4 L6.05 -4.1 6.45 -4.65 Q4.95 -5.35 3.05 -5.35 -3.65 -5.35 -5.4 1.5 L-8.9 1.65 -14.95 1.25 Q-14.7 0.55 -15.0 -0.1 L-16.2 -2.6 Q-17.2 -5.0 -17.95 -6.15 -14.9 -5.05 -9.0 -5.2 -1.55 -5.45 3.9 -9.15 7.55 -11.65 9.0 -13.45 L8.8 -12.25" fill="#57352d" fill-rule="evenodd" stroke="none"/>
  </g>
</svg>
