<?xml version="1.0" encoding="UTF-8" standalone="no"?>
<svg xmlns:ffdec="https://www.free-decompiler.com/flash" xmlns:xlink="http://www.w3.org/1999/xlink" ffdec:objectType="shape" height="16.6px" width="36.9px" xmlns="http://www.w3.org/2000/svg">
  <g transform="matrix(1.0, 0.0, 0.0, 1.0, 23.6, 19.7)">
    <path d="M8.35 -19.45 L8.0 -19.25 Q12.75 -19.2 13.3 -12.0 10.25 -2.9 5.25 -3.1 0.2 -3.35 -5.75 -4.6 -11.45 -5.8 -14.95 -7.45 -19.85 -7.65 -22.1 -9.05 L-23.6 -11.65 Q-13.9 -8.35 -4.15 -11.65 2.6 -14.1 7.45 -19.5 L8.25 -19.6 8.35 -19.45 M11.3 -12.25 Q11.3 -15.2 6.65 -16.2 5.3 -14.25 1.15 -11.4 -2.8 -8.75 -7.8 -7.85 L-3.95 -6.95 Q-0.65 -6.05 2.3 -5.65 L3.45 -5.2 Q3.35 -5.35 3.6 -6.8 3.8 -8.25 4.95 -10.55 6.1 -12.9 7.8 -12.85 L10.8 -12.35 11.3 -12.15 11.3 -12.25 M10.85 -10.75 L7.3 -11.0 Q6.05 -11.0 5.2 -8.35 4.5 -6.3 4.85 -5.0 L6.6 -5.35 Q7.95 -5.35 9.7 -8.5 L10.9 -10.75 11.05 -11.15 10.85 -10.75" fill="#48241e" fill-rule="evenodd" stroke="none"/>
    <path d="M8.35 -19.45 L8.25 -19.6 Q9.15 -19.5 8.45 -19.5 L8.35 -19.45" fill="#463624" fill-rule="evenodd" stroke="none"/>
    <path d="M10.9 -10.75 L9.7 -8.5 Q7.95 -5.35 6.6 -5.35 L4.85 -5.0 Q4.5 -6.3 5.2 -8.35 6.05 -11.0 7.3 -11.0 L10.85 -10.75 10.9 -10.75" fill="#b45f50" fill-rule="evenodd" stroke="none"/>
    <path d="M11.3 -12.15 L10.8 -12.35 7.8 -12.85 Q6.1 -12.9 4.95 -10.55 3.8 -8.25 3.6 -6.8 3.35 -5.35 3.45 -5.2 L2.3 -5.65 Q-0.65 -6.05 -3.95 -6.95 L-7.8 -7.85 Q-2.8 -8.75 1.15 -11.4 5.3 -14.25 6.65 -16.2 11.3 -15.2 11.3 -12.25 L11.3 -12.15" fill="#57352d" fill-rule="evenodd" stroke="none"/>
  </g>
</svg>
