<?xml version="1.0" encoding="UTF-8" standalone="no"?>
<svg xmlns:ffdec="https://www.free-decompiler.com/flash" xmlns:xlink="http://www.w3.org/1999/xlink" ffdec:objectType="shape" height="7.85px" width="23.45px" xmlns="http://www.w3.org/2000/svg">
  <g transform="matrix(1.0, 0.0, 0.0, 1.0, 16.5, 7.95)">
    <path d="M4.9 -6.25 L4.45 -6.5 4.15 -6.45 1.6 -6.7 Q-8.9 -6.7 -11.75 -5.35 -11.2 -4.25 -11.2 -3.45 L-11.2 -2.5 -6.05 -3.2 -2.55 -2.9 Q-2.45 -4.05 -0.7 -5.2 1.25 -6.45 3.8 -6.45 L4.85 -6.25 5.2 -6.0 4.9 -6.25 M4.3 -7.65 Q7.05 -6.95 6.95 -3.6 6.95 -0.85 4.9 -0.85 L-0.25 -1.45 -6.55 -2.1 Q-9.7 -2.1 -12.3 -1.1 -14.9 -0.1 -15.55 -0.1 L-16.0 -0.2 -16.2 -0.7 Q-16.2 -1.35 -12.4 -2.25 L-12.0 -2.35 Q-12.95 -3.25 -12.95 -5.4 L-16.35 -4.1 Q-16.5 -3.7 -16.5 -4.35 -16.5 -5.1 -12.3 -6.1 L-12.75 -6.0 Q-12.25 -6.55 -10.5 -6.8 L-6.1 -7.25 -3.05 -7.55 -0.2 -7.85 1.55 -7.95 4.3 -7.65 M0.8 -4.5 Q-0.25 -3.8 -0.3 -3.1 -0.35 -2.75 -1.15 -2.75 L-1.2 -2.7 -0.45 -2.55 5.45 -1.95 Q6.05 -1.95 6.05 -3.55 6.05 -4.75 5.6 -5.5 4.9 -4.9 3.35 -4.9 1.4 -4.95 0.8 -4.5" fill="#48241e" fill-rule="evenodd" stroke="none"/>
    <path d="M4.85 -6.25 L3.8 -6.45 Q1.25 -6.45 -0.7 -5.2 -2.45 -4.05 -2.55 -2.9 L-6.05 -3.2 -11.2 -2.5 -11.2 -3.45 Q-11.2 -4.25 -11.75 -5.35 -8.9 -6.7 1.6 -6.7 L4.15 -6.45 4.45 -6.5 4.9 -6.25 4.85 -6.25" fill="#57352d" fill-rule="evenodd" stroke="none"/>
    <path d="M0.8 -4.5 Q1.4 -4.95 3.35 -4.9 4.9 -4.9 5.6 -5.5 6.05 -4.75 6.05 -3.55 6.05 -1.95 5.45 -1.95 L-0.45 -2.55 -1.2 -2.7 -1.15 -2.75 Q-0.35 -2.75 -0.3 -3.1 -0.25 -3.8 0.8 -4.5" fill="#b45f50" fill-rule="evenodd" stroke="none"/>
  </g>
</svg>
