<?xml version="1.0" encoding="UTF-8" standalone="no"?>
<svg xmlns:ffdec="https://www.free-decompiler.com/flash" xmlns:xlink="http://www.w3.org/1999/xlink" ffdec:objectType="shape" height="165.5px" width="62.2px" xmlns="http://www.w3.org/2000/svg">
  <g transform="matrix(1.0, 0.0, 0.0, 1.0, 28.75, 131.6)">
    <path d="M-23.75 -32.0 L-23.1 -34.4 -21.75 -39.15 Q-16.15 -57.95 -0.95 -61.25 14.45 -64.85 23.8 -41.8 L26.6 -34.5 26.6 -34.45 27.4 -32.25 24.95 -33.1 24.7 -33.8 24.6 -34.15 21.95 -41.05 Q13.35 -62.25 -0.5 -59.3 -14.65 -56.15 -19.85 -38.6 L-21.1 -34.15 -21.15 -33.85 -21.15 -33.9 -21.4 -32.9 -23.75 -32.0 M31.35 -18.2 Q33.15 -10.0 33.4 -2.75 33.95 14.3 24.7 25.0 15.35 35.8 -2.3 33.5 -20.15 31.05 -23.85 19.7 -27.55 8.75 -27.4 -6.1 -27.35 -11.55 -26.55 -17.5 L-26.55 -13.3 -26.15 -13.0 -25.1 -12.2 -25.4 -6.1 Q-25.55 8.35 -21.95 19.05 -18.45 29.25 -2.05 31.5 14.45 33.7 22.6 23.6 30.75 13.5 30.55 2.1 30.35 -9.3 28.1 -15.5 L31.35 -18.2 M24.2 -23.65 L24.2 -21.55 24.2 -19.6 24.2 -18.8 24.2 -16.85 24.2 -16.7 24.2 -14.6 24.2 -12.15 22.2 -12.15 22.2 -12.95 Q23.65 -18.8 22.2 -24.65 L19.95 -24.65 19.95 -11.4 17.95 -11.4 17.95 -13.2 17.95 -15.25 17.95 -20.2 17.95 -22.2 17.95 -26.65 24.2 -26.65 24.2 -23.65 M28.25 -29.65 L29.35 -26.0 Q28.7 -25.45 27.6 -24.85 L25.8 -30.7 28.25 -29.65 M-22.0 -30.55 L-22.85 -27.0 -24.75 -27.65 -24.35 -29.45 -22.0 -30.55 M-2.1 -21.05 L-2.0 -24.65 4.2 -24.65 4.2 -21.0 4.2 -19.05 4.2 -17.05 4.2 -16.3 4.2 -14.3 4.2 -14.05 4.2 -12.05 4.2 -9.4 2.2 -9.4 2.2 -10.4 Q3.65 -16.5 2.2 -22.65 L-0.05 -22.65 Q-1.45 -16.5 -0.3 -10.4 L-0.3 -9.35 -2.3 -9.4 -2.25 -12.1 -2.2 -14.1 -2.1 -19.05 -2.1 -21.05 M18.4 -2.85 Q18.3 -3.15 18.5 -3.4 18.65 -3.65 18.95 -3.7 L19.5 -3.6 19.85 -3.15 20.35 -0.15 20.2 0.4 Q20.0 0.65 19.7 0.7 L19.15 0.55 18.85 0.05 18.4 -2.85 M16.75 -9.2 L17.15 -9.6 17.75 -9.55 18.1 -9.15 19.1 -6.15 19.0 -5.6 18.6 -5.2 18.0 -5.3 17.65 -5.7 16.7 -8.65 16.75 -9.2 M20.4 2.4 L20.65 2.9 20.75 5.9 20.55 6.45 20.0 6.65 19.5 6.45 19.25 5.9 19.15 3.0 Q19.1 2.7 19.35 2.45 19.55 2.2 19.85 2.2 20.15 2.15 20.4 2.4 M20.45 8.4 L20.6 8.95 20.2 11.95 19.9 12.4 19.35 12.55 Q19.05 12.5 18.85 12.25 L18.7 11.7 19.1 8.8 19.4 8.3 Q19.6 8.05 19.95 8.1 L20.45 8.4 M15.9 25.7 L15.9 26.3 14.65 28.95 14.2 29.3 13.65 29.3 13.25 28.85 Q13.15 28.55 13.3 28.3 L14.55 25.65 14.95 25.25 15.55 25.3 15.9 25.7 M18.05 20.05 L18.1 20.65 17.05 23.5 16.65 23.9 16.1 23.9 15.7 23.5 15.65 22.95 16.65 20.2 Q16.7 19.85 17.0 19.75 L17.6 19.7 18.05 20.05 M18.25 14.55 L18.55 14.1 19.1 14.0 Q19.4 14.05 19.6 14.3 L19.7 14.85 19.0 17.8 18.65 18.25 18.05 18.35 Q17.75 18.25 17.6 18.0 L17.55 17.4 18.25 14.55" fill="#1e3344" fill-rule="evenodd" stroke="none"/>
    <path d="M-23.75 -32.0 L-21.4 -32.9 -18.8 -33.65 -16.75 -34.15 Q-8.75 -35.85 2.05 -35.85 12.85 -35.85 20.85 -34.15 L22.9 -33.65 24.95 -33.1 27.4 -32.25 Q32.35 -30.25 32.2 -27.45 L32.2 -27.3 32.2 -27.15 32.2 -20.5 Q32.3 -19.25 31.35 -18.2 L28.1 -15.5 24.2 -14.6 24.2 -16.7 Q27.65 -17.75 29.15 -18.9 30.1 -19.65 30.2 -20.5 L30.2 -24.1 29.95 -23.9 Q29.25 -23.5 28.4 -23.05 L28.35 -23.0 28.15 -22.9 27.95 -22.85 27.65 -22.9 Q27.25 -22.9 26.95 -22.6 L26.8 -22.4 24.2 -21.55 24.2 -23.65 27.55 -24.85 27.6 -24.85 Q28.7 -25.45 29.35 -26.0 30.1 -26.65 30.2 -27.35 L30.2 -27.45 Q30.1 -28.6 28.25 -29.65 L25.8 -30.7 22.4 -31.7 Q13.95 -33.85 2.05 -33.85 -9.85 -33.85 -18.3 -31.7 L-22.0 -30.55 -24.35 -29.45 -25.9 -28.1 -25.15 -27.8 -24.75 -27.65 -22.85 -27.0 Q-17.85 -25.5 -11.15 -25.15 L-10.15 -25.1 -10.3 -21.7 -2.1 -21.05 -2.1 -19.05 -3.5 -19.1 -3.9 -19.2 -4.15 -19.15 -7.4 -19.35 -7.9 -19.5 -8.2 -19.45 -10.35 -19.65 -10.55 -14.75 -2.2 -14.1 -2.25 -12.1 -10.6 -12.75 -10.7 -9.9 -11.55 -9.8 Q-19.85 -8.8 -25.1 -12.2 L-26.15 -13.0 -26.55 -13.3 -26.55 -17.5 Q-27.6 -18.45 -27.9 -19.4 L-27.95 -19.6 -28.1 -20.5 -27.95 -21.45 -27.95 -26.5 -28.1 -27.45 -27.85 -28.6 -27.8 -28.7 Q-27.1 -30.55 -23.75 -32.0 M4.2 -21.0 Q11.8 -21.15 17.95 -22.2 L17.95 -20.2 16.45 -19.95 16.15 -20.0 15.6 -19.8 12.45 -19.45 12.15 -19.5 11.75 -19.4 8.45 -19.15 8.15 -19.2 7.8 -19.1 4.4 -19.0 4.2 -19.05 4.2 -21.0 M17.95 -15.25 L17.95 -13.2 4.2 -12.05 4.2 -14.05 Q11.8 -14.2 17.95 -15.25 M-23.25 -25.05 L-24.45 -25.45 -24.55 -25.45 -24.55 -24.05 Q-20.6 -21.25 -14.55 -21.3 L-13.85 -13.0 -14.8 -13.05 Q-20.55 -13.05 -24.55 -15.4 L-24.55 -14.3 Q-22.25 -9.2 -12.65 -11.7 -10.95 -16.95 -12.2 -23.2 -18.5 -23.6 -23.25 -25.05 M-25.95 -22.55 L-25.95 -19.95 Q-25.55 -19.2 -24.4 -18.45 -22.45 -17.25 -18.3 -16.2 L-15.7 -15.6 -15.6 -19.3 Q-21.85 -19.5 -25.95 -22.55" fill="#333333" fill-rule="evenodd" stroke="none"/>
    <path d="M-21.4 -32.9 L-21.15 -33.9 -21.15 -33.85 -21.1 -34.15 -16.75 -34.15 -18.8 -33.65 -21.4 -32.9 M24.6 -34.15 L24.7 -33.8 24.95 -33.1 22.9 -33.65 20.85 -34.15 24.6 -34.15 M27.6 -24.85 L27.55 -24.85 24.2 -23.65 24.2 -26.65 17.95 -26.65 17.95 -22.2 Q11.8 -21.15 4.2 -21.0 L4.2 -24.65 -2.0 -24.65 -2.1 -21.05 -10.3 -21.7 -10.15 -25.1 -11.15 -25.15 Q-17.85 -25.5 -22.85 -27.0 L-22.0 -30.55 -18.3 -31.7 Q-9.85 -33.85 2.05 -33.85 13.95 -33.85 22.4 -31.7 L25.8 -30.7 27.6 -24.85 M24.2 -14.6 L28.1 -15.5 Q30.35 -9.3 30.55 2.1 30.75 13.5 22.6 23.6 14.45 33.7 -2.05 31.5 -18.45 29.25 -21.95 19.05 -25.55 8.35 -25.4 -6.1 L-25.1 -12.2 Q-19.85 -8.8 -11.55 -9.8 L-10.7 -9.9 -10.6 -12.75 -2.25 -12.1 -2.3 -9.4 -0.3 -9.35 -0.3 -10.4 Q-1.45 -16.5 -0.05 -22.65 L2.2 -22.65 Q3.65 -16.5 2.2 -10.4 L2.2 -9.4 4.2 -9.4 4.2 -12.05 17.95 -13.2 17.95 -11.4 19.95 -11.4 19.95 -24.65 22.2 -24.65 Q23.65 -18.8 22.2 -12.95 L22.2 -12.15 24.2 -12.15 24.2 -14.6 M16.75 -9.2 L16.7 -8.65 17.65 -5.7 18.0 -5.3 18.6 -5.2 19.0 -5.6 19.1 -6.15 18.1 -9.15 17.75 -9.55 17.15 -9.6 16.75 -9.2 M18.4 -2.85 L18.85 0.05 19.15 0.55 19.7 0.7 Q20.0 0.65 20.2 0.4 L20.35 -0.15 19.85 -3.15 19.5 -3.6 18.95 -3.7 Q18.65 -3.65 18.5 -3.4 18.3 -3.15 18.4 -2.85 M20.45 8.4 L19.95 8.1 Q19.6 8.05 19.4 8.3 L19.1 8.8 18.7 11.7 18.85 12.25 Q19.05 12.5 19.35 12.55 L19.9 12.4 20.2 11.95 20.6 8.95 20.45 8.4 M20.4 2.4 Q20.15 2.15 19.85 2.2 19.55 2.2 19.35 2.45 19.1 2.7 19.15 3.0 L19.25 5.9 19.5 6.45 20.0 6.65 20.55 6.45 20.75 5.9 20.65 2.9 20.4 2.4 M3.15 4.3 L3.15 4.4 Q8.7 4.45 12.3 2.95 10.25 -2.8 6.5 -4.2 1.7 -6.0 -9.65 -6.8 L-13.65 -6.9 Q-14.4 -0.05 -15.75 6.15 L-15.8 5.4 Q-15.9 0.05 -15.2 -6.8 -21.25 -6.3 -21.85 -2.9 -22.75 1.75 -22.2 10.3 -21.7 18.8 -15.45 22.5 -9.25 26.15 -0.8 26.35 7.65 26.55 11.45 20.75 15.0 15.2 13.45 9.45 L2.75 8.85 2.05 8.95 2.05 8.85 1.95 8.85 1.95 8.1 1.75 5.85 1.7 5.85 1.7 5.25 1.65 4.45 1.75 4.45 1.75 4.35 2.5 4.35 3.15 4.3 M13.1 5.65 L12.75 4.4 Q9.0 5.95 3.3 5.9 L3.4 7.4 Q9.4 7.45 13.1 5.65 M18.25 14.55 L17.55 17.4 17.6 18.0 Q17.75 18.25 18.05 18.35 L18.65 18.25 19.0 17.8 19.7 14.85 19.6 14.3 Q19.4 14.05 19.1 14.0 L18.55 14.1 18.25 14.55 M18.05 20.05 L17.6 19.7 17.0 19.75 Q16.7 19.85 16.65 20.2 L15.65 22.95 15.7 23.5 16.1 23.9 16.65 23.9 17.05 23.5 18.1 20.65 18.05 20.05 M15.9 25.7 L15.55 25.3 14.95 25.25 14.55 25.65 13.3 28.3 Q13.15 28.55 13.25 28.85 L13.65 29.3 14.2 29.3 14.65 28.95 15.9 26.3 15.9 25.7" fill="#264d5b" fill-rule="evenodd" stroke="none"/>
    <path d="M-21.1 -34.15 L-19.85 -38.6 Q-14.65 -56.15 -0.5 -59.3 13.35 -62.25 21.95 -41.05 L24.6 -34.15 20.85 -34.15 Q12.85 -35.85 2.05 -35.85 -8.75 -35.85 -16.75 -34.15 L-21.1 -34.15 M13.1 5.65 Q9.4 7.45 3.4 7.4 L3.3 5.9 Q9.0 5.95 12.75 4.4 L13.1 5.65 M3.15 4.3 L2.5 4.35 1.75 4.35 1.75 4.45 1.65 4.45 1.7 5.25 1.7 5.85 1.75 5.85 1.95 8.1 1.95 8.85 2.05 8.85 2.05 8.95 2.75 8.85 13.45 9.45 Q15.0 15.2 11.45 20.75 7.65 26.55 -0.8 26.35 -9.25 26.15 -15.45 22.5 -21.7 18.8 -22.2 10.3 -22.75 1.75 -21.85 -2.9 -21.25 -6.3 -15.2 -6.8 -15.9 0.05 -15.8 5.4 L-15.75 6.15 Q-14.4 -0.05 -13.65 -6.9 L-9.65 -6.8 Q1.7 -6.0 6.5 -4.2 10.25 -2.8 12.3 2.95 8.7 4.45 3.15 4.4 L3.15 4.3" fill="#306174" fill-rule="evenodd" stroke="none"/>
    <path d="M24.2 -21.55 L26.8 -22.4 26.65 -21.9 Q26.65 -21.5 26.95 -21.2 27.25 -20.9 27.65 -20.9 28.05 -20.9 28.35 -21.2 L28.65 -21.9 28.35 -22.6 27.95 -22.85 28.15 -22.9 28.35 -23.0 28.4 -23.05 Q29.25 -23.5 29.95 -23.9 L30.2 -24.1 30.2 -20.5 Q30.1 -19.65 29.15 -18.9 27.65 -17.75 24.2 -16.7 L24.2 -16.85 Q24.5 -16.95 24.7 -17.15 L25.0 -17.85 24.7 -18.55 24.2 -18.8 24.2 -19.6 Q24.5 -19.7 24.7 -19.9 L25.0 -20.6 24.7 -21.3 24.2 -21.55 M16.45 -19.95 L17.95 -20.2 17.95 -15.25 Q11.8 -14.2 4.2 -14.05 L4.2 -14.3 Q4.55 -14.3 4.85 -14.6 L5.15 -15.3 4.85 -16.0 4.2 -16.3 4.2 -17.05 Q4.55 -17.05 4.85 -17.35 L5.15 -18.05 4.85 -18.75 4.4 -19.0 7.8 -19.1 7.45 -18.9 Q7.15 -18.6 7.15 -18.2 7.15 -17.8 7.45 -17.5 7.75 -17.2 8.15 -17.2 8.55 -17.2 8.85 -17.5 L9.15 -18.2 8.85 -18.9 8.45 -19.15 11.75 -19.4 11.45 -19.2 Q11.15 -18.9 11.15 -18.5 11.15 -18.1 11.45 -17.8 11.75 -17.5 12.15 -17.5 12.55 -17.5 12.85 -17.8 L13.15 -18.5 12.85 -19.2 12.45 -19.45 15.6 -19.8 15.45 -19.7 Q15.15 -19.4 15.15 -19.0 15.15 -18.6 15.45 -18.3 15.75 -18.0 16.15 -18.0 16.55 -18.0 16.85 -18.3 L17.15 -19.0 16.85 -19.7 16.45 -19.95 M17.15 -16.25 L16.85 -16.95 Q16.55 -17.25 16.15 -17.25 L15.45 -16.95 Q15.15 -16.65 15.15 -16.25 15.15 -15.85 15.45 -15.55 15.75 -15.25 16.15 -15.25 16.55 -15.25 16.85 -15.55 L17.15 -16.25 M13.15 -15.75 L12.85 -16.45 Q12.55 -16.75 12.15 -16.75 L11.45 -16.45 Q11.15 -16.15 11.15 -15.75 11.15 -15.35 11.45 -15.05 11.75 -14.75 12.15 -14.75 12.55 -14.75 12.85 -15.05 L13.15 -15.75 M8.85 -16.15 L8.15 -16.45 Q7.75 -16.45 7.45 -16.15 7.15 -15.85 7.15 -15.45 7.15 -15.05 7.45 -14.75 7.75 -14.45 8.15 -14.45 8.55 -14.45 8.85 -14.75 L9.15 -15.45 8.85 -16.15 M27.65 -20.15 Q27.25 -20.15 26.95 -19.85 26.65 -19.55 26.65 -19.15 26.65 -18.75 26.95 -18.45 27.25 -18.15 27.65 -18.15 28.05 -18.15 28.35 -18.45 L28.65 -19.15 28.35 -19.85 27.65 -20.15 M-25.95 -22.55 Q-21.85 -19.5 -15.6 -19.3 L-15.7 -15.6 -18.3 -16.2 Q-22.45 -17.25 -24.4 -18.45 -25.55 -19.2 -25.95 -19.95 L-25.95 -22.55 M-2.2 -14.1 L-10.55 -14.75 -10.35 -19.65 -8.2 -19.45 -8.6 -19.2 -8.9 -18.5 -8.6 -17.8 Q-8.3 -17.5 -7.9 -17.5 -7.5 -17.5 -7.2 -17.8 -6.9 -18.1 -6.9 -18.5 -6.9 -18.9 -7.2 -19.2 L-7.4 -19.35 -4.15 -19.15 -4.6 -18.9 -4.9 -18.2 -4.6 -17.5 Q-4.3 -17.2 -3.9 -17.2 -3.5 -17.2 -3.2 -17.5 -2.9 -17.8 -2.9 -18.2 L-3.2 -18.9 -3.5 -19.1 -2.1 -19.05 -2.2 -14.1 M-3.2 -16.15 L-3.9 -16.45 Q-4.3 -16.45 -4.6 -16.15 L-4.9 -15.45 -4.6 -14.75 Q-4.3 -14.45 -3.9 -14.45 -3.5 -14.45 -3.2 -14.75 -2.9 -15.05 -2.9 -15.45 L-3.2 -16.15 M-6.9 -15.75 Q-6.9 -16.15 -7.2 -16.45 -7.5 -16.75 -7.9 -16.75 L-8.6 -16.45 -8.9 -15.75 -8.6 -15.05 Q-8.3 -14.75 -7.9 -14.75 -7.5 -14.75 -7.2 -15.05 -6.9 -15.35 -6.9 -15.75" fill="#666666" fill-rule="evenodd" stroke="none"/>
    <path d="M26.8 -22.4 L26.95 -22.6 Q27.25 -22.9 27.65 -22.9 L27.95 -22.85 28.35 -22.6 28.65 -21.9 28.35 -21.2 Q28.05 -20.9 27.65 -20.9 27.25 -20.9 26.95 -21.2 26.65 -21.5 26.65 -21.9 L26.8 -22.4 M15.6 -19.8 L16.15 -20.0 16.45 -19.95 16.85 -19.7 17.15 -19.0 16.85 -18.3 Q16.55 -18.0 16.15 -18.0 15.75 -18.0 15.45 -18.3 15.15 -18.6 15.15 -19.0 15.15 -19.4 15.45 -19.7 L15.6 -19.8 M12.45 -19.45 L12.85 -19.2 13.15 -18.5 12.85 -17.8 Q12.55 -17.5 12.15 -17.5 11.75 -17.5 11.45 -17.8 11.15 -18.1 11.15 -18.5 11.15 -18.9 11.45 -19.2 L11.75 -19.4 12.15 -19.5 12.45 -19.45 M8.45 -19.15 L8.85 -18.9 9.15 -18.2 8.85 -17.5 Q8.55 -17.2 8.15 -17.2 7.75 -17.2 7.45 -17.5 7.15 -17.8 7.15 -18.2 7.15 -18.6 7.45 -18.9 L7.8 -19.1 8.15 -19.2 8.45 -19.15 M4.4 -19.0 L4.85 -18.75 5.15 -18.05 4.85 -17.35 Q4.55 -17.05 4.2 -17.05 L4.2 -19.05 4.4 -19.0 M4.2 -16.3 L4.85 -16.0 5.15 -15.3 4.85 -14.6 Q4.55 -14.3 4.2 -14.3 L4.2 -16.3 M13.15 -15.75 L12.85 -15.05 Q12.55 -14.75 12.15 -14.75 11.75 -14.75 11.45 -15.05 11.15 -15.35 11.15 -15.75 11.15 -16.15 11.45 -16.45 L12.15 -16.75 Q12.55 -16.75 12.85 -16.45 L13.15 -15.75 M17.15 -16.25 L16.85 -15.55 Q16.55 -15.25 16.15 -15.25 15.75 -15.25 15.45 -15.55 15.15 -15.85 15.15 -16.25 15.15 -16.65 15.45 -16.95 L16.15 -17.25 Q16.55 -17.25 16.85 -16.95 L17.15 -16.25 M8.85 -16.15 L9.15 -15.45 8.85 -14.75 Q8.55 -14.45 8.15 -14.45 7.75 -14.45 7.45 -14.75 7.15 -15.05 7.15 -15.45 7.15 -15.85 7.45 -16.15 7.75 -16.45 8.15 -16.45 L8.85 -16.15 M27.65 -20.15 L28.35 -19.85 28.65 -19.15 28.35 -18.45 Q28.05 -18.15 27.65 -18.15 27.25 -18.15 26.95 -18.45 26.65 -18.75 26.65 -19.15 26.65 -19.55 26.95 -19.85 27.25 -20.15 27.65 -20.15 M24.2 -19.6 L24.2 -21.55 24.7 -21.3 25.0 -20.6 24.7 -19.9 Q24.5 -19.7 24.2 -19.6 M24.2 -18.8 L24.7 -18.55 25.0 -17.85 24.7 -17.15 Q24.5 -16.95 24.2 -16.85 L24.2 -18.8 M-23.25 -25.05 Q-18.5 -23.6 -12.2 -23.2 -10.95 -16.95 -12.65 -11.7 -22.25 -9.2 -24.55 -14.3 L-24.55 -15.4 Q-20.55 -13.05 -14.8 -13.05 L-13.85 -13.0 -14.55 -21.3 Q-20.6 -21.25 -24.55 -24.05 L-24.55 -25.45 -24.45 -25.45 -23.25 -25.05 M-8.2 -19.45 L-7.9 -19.5 -7.4 -19.35 -7.2 -19.2 Q-6.9 -18.9 -6.9 -18.5 -6.9 -18.1 -7.2 -17.8 -7.5 -17.5 -7.9 -17.5 -8.3 -17.5 -8.6 -17.8 L-8.9 -18.5 -8.6 -19.2 -8.2 -19.45 M-4.15 -19.15 L-3.9 -19.2 -3.5 -19.1 -3.2 -18.9 -2.9 -18.2 Q-2.9 -17.8 -3.2 -17.5 -3.5 -17.2 -3.9 -17.2 -4.3 -17.2 -4.6 -17.5 L-4.9 -18.2 -4.6 -18.9 -4.15 -19.15 M-6.9 -15.75 Q-6.9 -15.35 -7.2 -15.05 -7.5 -14.75 -7.9 -14.75 -8.3 -14.75 -8.6 -15.05 L-8.9 -15.75 -8.6 -16.45 -7.9 -16.75 Q-7.5 -16.75 -7.2 -16.45 -6.9 -16.15 -6.9 -15.75 M-3.2 -16.15 L-2.9 -15.45 Q-2.9 -15.05 -3.2 -14.75 -3.5 -14.45 -3.9 -14.45 -4.3 -14.45 -4.6 -14.75 L-4.9 -15.45 -4.6 -16.15 Q-4.3 -16.45 -3.9 -16.45 L-3.2 -16.15" fill="#999999" fill-rule="evenodd" stroke="none"/>
    <path d="M4.5 -129.55 L4.45 -129.55 1.75 -129.45 1.6 -129.45 Q-12.3 -101.85 -16.25 -84.9 L-16.25 -85.0 Q-17.1 -77.8 -12.6 -70.65 L-12.55 -70.35 Q-15.2 -47.9 -20.4 -25.45 L-18.7 -25.0 -18.75 -25.0 Q-13.75 -23.75 -7.5 -23.2 L-6.5 -23.1 -4.1 -22.95 -3.15 -22.9 2.25 -22.8 8.85 -23.0 9.95 -23.05 12.3 -23.25 13.35 -23.35 Q18.65 -23.9 23.15 -25.0 L23.2 -25.0 24.15 -25.25 24.1 -25.25 25.15 -25.55 25.1 -25.55 27.2 -26.25 27.2 -26.3 28.2 -26.65 28.25 -26.65 30.8 -28.45 30.85 -28.45 31.25 -29.4 30.95 -29.7 29.75 -29.75 Q28.8 -29.8 26.1 -52.45 23.35 -75.1 20.55 -86.55 17.65 -98.1 14.6 -112.05 11.55 -126.05 7.95 -127.45 4.3 -128.85 4.4 -129.2 L4.5 -129.55 M1.4 -131.4 L4.75 -131.55 Q14.4 -131.15 17.1 -114.35 19.65 -98.5 22.5 -87.05 25.3 -75.55 29.1 -53.6 L33.05 -30.45 33.25 -29.55 33.25 -29.4 Q33.2 -28.3 32.4 -27.25 L32.4 -27.2 Q31.4 -25.95 29.05 -24.85 L29.0 -24.8 27.9 -24.4 27.95 -24.4 25.7 -23.65 25.7 -23.6 24.65 -23.35 24.6 -23.3 23.8 -23.1 23.7 -23.05 Q19.1 -21.9 13.55 -21.35 L12.5 -21.25 10.1 -21.05 10.0 -21.05 9.05 -21.0 9.0 -21.0 2.25 -20.8 -3.25 -20.9 -3.3 -20.9 -4.2 -20.95 -4.25 -20.95 -6.6 -21.1 -6.65 -21.1 -7.7 -21.2 Q-14.1 -21.75 -19.25 -23.05 L-21.35 -23.7 -21.4 -23.7 Q-25.7 -25.05 -27.35 -26.6 -28.85 -27.95 -28.75 -29.45 L-28.75 -29.5 -28.4 -30.9 -25.15 -43.25 Q-22.1 -55.1 -19.9 -71.55 -22.45 -75.05 -23.65 -77.45 L-23.6 -77.4 Q-27.0 -83.6 -24.45 -89.2 L-24.45 -89.15 -20.8 -97.85 -17.1 -106.6 -17.1 -106.55 -14.9 -111.85 -14.85 -111.95 Q-7.7 -129.85 1.4 -131.4 M-13.0 -111.2 L-13.05 -111.05 -15.25 -105.8 -19.5 -96.1 Q-21.6 -91.4 -23.75 -87.3 -25.95 -83.2 -21.85 -78.35 -20.65 -75.95 -18.05 -72.35 -17.8 -72.05 -17.85 -71.65 -20.05 -54.85 -23.2 -42.75 L-26.45 -30.5 -26.55 -30.15 -26.75 -29.45 -26.75 -29.4 Q-26.75 -28.75 -26.0 -28.1 -24.65 -26.85 -21.35 -25.75 -16.2 -48.0 -13.55 -70.25 -18.15 -77.65 -17.25 -85.1 L-17.2 -85.15 Q-13.3 -101.9 0.3 -129.05 -7.0 -126.3 -13.0 -111.2" fill="#333333" fill-rule="evenodd" stroke="none"/>
    <path d="M4.5 -129.55 L4.4 -129.2 Q4.3 -128.85 7.95 -127.45 11.55 -126.05 14.6 -112.05 17.65 -98.1 20.55 -86.55 23.35 -75.1 26.1 -52.45 28.8 -29.8 29.75 -29.75 L30.95 -29.7 31.25 -29.4 30.85 -28.45 30.8 -28.45 28.25 -26.65 28.2 -26.65 27.2 -26.3 27.2 -26.25 25.1 -25.55 25.15 -25.55 24.1 -25.25 24.15 -25.25 23.2 -25.0 23.15 -25.0 Q18.65 -23.9 13.35 -23.35 L12.3 -23.25 9.95 -23.05 8.85 -23.0 2.25 -22.8 -3.15 -22.9 -4.1 -22.95 -6.5 -23.1 -7.5 -23.2 Q-13.75 -23.75 -18.75 -25.0 L-18.7 -25.0 -20.4 -25.45 Q-15.2 -47.9 -12.55 -70.35 L-12.6 -70.65 Q-17.1 -77.8 -16.25 -85.0 L-16.25 -84.9 Q-12.3 -101.85 1.6 -129.45 L1.75 -129.45 4.45 -129.55 4.5 -129.55 M-13.0 -111.2 Q-7.0 -126.3 0.3 -129.05 -13.3 -101.9 -17.2 -85.15 L-17.25 -85.1 Q-18.15 -77.65 -13.55 -70.25 -16.2 -48.0 -21.35 -25.75 -24.65 -26.85 -26.0 -28.1 -26.75 -28.75 -26.75 -29.4 L-26.75 -29.45 -26.55 -30.15 -26.45 -30.5 -23.2 -42.75 Q-20.05 -54.85 -17.85 -71.65 -17.8 -72.05 -18.05 -72.35 -20.65 -75.95 -21.85 -78.35 -25.95 -83.2 -23.75 -87.3 -21.6 -91.4 -19.5 -96.1 L-15.25 -105.8 -13.05 -111.05 -13.0 -111.2" fill="#cdc9b6" fill-rule="evenodd" stroke="none"/>
    <path d="M5.75 -103.4 Q6.3 -103.05 6.1 -101.9 5.45 -98.95 1.45 -95.65 -2.65 -92.25 1.45 -91.9 5.5 -91.55 8.95 -94.15 10.4 -95.25 10.6 -94.6 L10.35 -91.55 Q9.35 -84.0 11.2 -77.9 13.2 -71.4 14.0 -70.95 16.0 -69.75 17.7 -67.15 20.7 -62.55 16.0 -60.35 L5.7 -57.15 Q3.2 -56.2 2.15 -54.3 1.15 -52.4 2.1 -50.45 4.4 -45.55 14.95 -45.4 24.9 -45.25 21.4 -43.45 18.85 -42.1 12.45 -40.9 8.2 -40.1 8.95 -38.85 9.75 -37.6 15.95 -37.4 22.05 -37.2 22.55 -33.6 23.0 -30.35 19.2 -27.4 16.1 -25.0 13.6 -25.7 11.55 -26.25 10.45 -28.65 9.65 -30.4 8.9 -29.6 L6.45 -26.4 Q4.95 -24.7 -1.6 -25.75 L-14.3 -27.9 Q-17.4 -28.25 -18.25 -29.2 -19.05 -30.1 -17.75 -31.1 -14.6 -33.6 -7.3 -33.4 0.65 -33.2 3.65 -34.85 6.6 -36.5 -5.05 -36.15 -15.35 -35.85 -15.6 -39.85 -15.75 -41.85 -13.8 -43.9 L-9.3 -55.15 -10.05 -70.0 Q-3.25 -68.85 1.5 -73.15 -10.3 -76.65 -9.4 -86.4 -8.55 -96.15 -3.05 -110.9 L0.2 -106.65 Q3.95 -107.65 2.45 -104.9 -0.2 -100.0 3.95 -102.9 5.15 -103.7 5.75 -103.4" fill="#fbfaee" fill-rule="evenodd" stroke="none"/>
    <path d="M1.15 -121.85 L1.05 -121.25 Q-17.45 -89.5 -11.0 -54.85 L-11.1 -54.25 -15.75 -44.2 -16.3 -43.7 Q-16.7 -43.55 -17.05 -43.7 -17.45 -43.9 -17.55 -44.25 L-21.7 -54.8 -21.8 -55.2 Q-21.8 -90.65 -5.55 -123.15 L-5.05 -123.6 -4.45 -123.65 0.35 -122.7 0.9 -122.4 1.15 -121.85 M-1.4 -121.05 L-4.05 -121.55 Q-19.75 -89.9 -19.8 -55.35 L-16.55 -47.15 -13.0 -54.85 Q-19.35 -89.35 -1.4 -121.05" fill="#333333" fill-rule="evenodd" stroke="none"/>
    <path d="M-1.4 -121.05 Q-19.35 -89.35 -13.0 -54.85 L-16.55 -47.15 -19.8 -55.35 Q-19.75 -89.9 -4.05 -121.55 L-1.4 -121.05" fill="#3e3e3e" fill-rule="evenodd" stroke="none"/>
  </g>
</svg>
