<?xml version="1.0" encoding="UTF-8" standalone="no"?>
<svg xmlns:ffdec="https://www.free-decompiler.com/flash" xmlns:xlink="http://www.w3.org/1999/xlink" ffdec:objectType="shape" height="17.35px" width="33.25px" xmlns="http://www.w3.org/2000/svg">
  <g transform="matrix(1.0, 0.0, 0.0, 1.0, 13.1, 21.4)">
    <path d="M20.15 -12.95 L20.15 -12.85 Q20.15 -9.3 18.2 -6.8 16.2 -4.3 13.4 -4.25 10.6 -4.3 8.65 -6.8 6.65 -9.3 6.65 -12.85 L6.65 -12.95 Q6.65 -16.45 8.65 -18.95 10.6 -21.45 13.4 -21.4 16.2 -21.45 18.2 -18.95 20.15 -16.45 20.15 -12.95 M15.3 -16.4 Q14.15 -18.1 12.5 -18.1 11.45 -18.15 10.55 -17.35 L9.7 -16.4 Q9.2 -15.65 8.95 -14.7 8.55 -13.6 8.55 -12.2 8.55 -9.75 9.7 -8.05 10.9 -6.35 12.5 -6.3 14.15 -6.35 15.3 -8.05 16.45 -9.75 16.45 -12.2 16.45 -14.7 15.3 -16.4 M0.45 -12.65 Q0.4 -9.1 -1.55 -6.6 -3.55 -4.05 -6.35 -4.05 -9.15 -4.05 -11.1 -6.6 -13.1 -9.1 -13.1 -12.65 L-13.1 -12.7 Q-13.1 -16.2 -11.1 -18.7 -9.15 -21.2 -6.35 -21.2 -3.55 -21.2 -1.55 -18.7 0.4 -16.2 0.45 -12.7 L0.45 -12.65 M-7.8 -15.0 L-8.45 -13.55 Q-8.8 -12.6 -8.8 -11.4 -8.8 -9.3 -7.8 -7.8 -6.75 -6.3 -5.35 -6.25 -3.95 -6.3 -2.95 -7.8 -1.95 -9.3 -1.9 -11.4 -1.95 -13.55 -2.95 -15.0 -3.95 -16.5 -5.35 -16.5 -6.3 -16.55 -7.05 -15.85 L-7.8 -15.0" fill="#db9c64" fill-rule="evenodd" stroke="none"/>
    <path d="M15.3 -16.4 Q16.45 -14.7 16.45 -12.2 16.45 -9.75 15.3 -8.05 14.15 -6.35 12.5 -6.3 10.9 -6.35 9.7 -8.05 8.55 -9.75 8.55 -12.2 8.55 -13.6 8.95 -14.7 9.2 -15.65 9.7 -16.4 L10.55 -17.35 Q11.45 -18.15 12.5 -18.1 14.15 -18.1 15.3 -16.4 M-7.8 -15.0 L-7.05 -15.85 Q-6.3 -16.55 -5.35 -16.5 -3.95 -16.5 -2.95 -15.0 -1.95 -13.55 -1.9 -11.4 -1.95 -9.3 -2.95 -7.8 -3.95 -6.3 -5.35 -6.25 -6.75 -6.3 -7.8 -7.8 -8.8 -9.3 -8.8 -11.4 -8.8 -12.6 -8.45 -13.55 L-7.8 -15.0" fill="#ffcc99" fill-rule="evenodd" stroke="none"/>
    <path d="M15.3 -16.4 Q16.45 -14.7 16.45 -12.2 16.45 -9.75 15.3 -8.05 14.15 -6.35 12.5 -6.3 10.9 -6.35 9.7 -8.05 8.55 -9.75 8.55 -12.2 8.55 -13.6 8.95 -14.7 9.2 -15.65 9.7 -16.4 L10.55 -17.35 Q11.45 -18.15 12.5 -18.1 14.15 -18.1 15.3 -16.4 M-7.8 -15.0 L-7.05 -15.85 Q-6.3 -16.55 -5.35 -16.5 -3.95 -16.5 -2.95 -15.0 -1.95 -13.55 -1.9 -11.4 -1.95 -9.3 -2.95 -7.8 -3.95 -6.3 -5.35 -6.25 -6.75 -6.3 -7.8 -7.8 -8.8 -9.3 -8.8 -11.4 -8.8 -12.6 -8.45 -13.55 L-7.8 -15.0 Z" fill="none" stroke="#000000" stroke-linecap="round" stroke-linejoin="round" stroke-width="3.5"/>
  </g>
</svg>
