<?xml version="1.0" encoding="UTF-8" standalone="no"?>
<svg xmlns:ffdec="https://www.free-decompiler.com/flash" xmlns:xlink="http://www.w3.org/1999/xlink" ffdec:objectType="shape" height="13.15px" width="31.1px" xmlns="http://www.w3.org/2000/svg">
  <g transform="matrix(1.0, 0.0, 0.0, 1.0, 12.0, 18.7)">
    <path d="M12.5 -15.0 L10.55 -14.55 9.7 -13.9 8.95 -12.85 Q8.55 -12.15 8.55 -11.3 8.55 -9.8 9.7 -8.7 10.9 -7.6 12.5 -7.6 14.15 -7.6 15.3 -8.7 16.45 -9.8 16.45 -11.3 16.45 -12.85 15.3 -13.9 14.15 -15.0 12.5 -15.0 M17.25 -16.8 Q19.05 -14.9 19.1 -12.2 L19.1 -12.15 Q19.1 -9.4 17.25 -7.5 15.4 -5.55 12.85 -5.55 10.3 -5.55 8.45 -7.5 6.6 -9.4 6.65 -12.15 L6.65 -12.2 Q6.65 -14.9 8.45 -16.8 10.3 -18.7 12.85 -18.7 15.4 -18.7 17.25 -16.8 M0.45 -12.15 Q0.45 -9.55 -1.4 -7.65 -3.25 -5.8 -5.8 -5.8 -8.35 -5.8 -10.2 -7.65 -12.05 -9.55 -12.0 -12.15 L-12.0 -12.2 Q-12.0 -14.8 -10.2 -16.65 -8.35 -18.55 -5.8 -18.55 -3.25 -18.55 -1.4 -16.65 0.4 -14.8 0.45 -12.2 L0.45 -12.15 M-5.35 -14.0 Q-6.3 -14.0 -7.05 -13.6 L-7.8 -13.05 -8.45 -12.15 Q-8.8 -11.55 -8.8 -10.8 -8.8 -9.45 -7.8 -8.5 -6.75 -7.6 -5.35 -7.55 -3.95 -7.6 -2.95 -8.5 -1.95 -9.45 -1.9 -10.8 -1.95 -12.15 -2.95 -13.05 -3.95 -14.0 -5.35 -14.0" fill="#db9c64" fill-rule="evenodd" stroke="none"/>
    <path d="M12.5 -15.0 Q14.15 -15.0 15.3 -13.9 16.45 -12.85 16.45 -11.3 16.45 -9.8 15.3 -8.7 14.15 -7.6 12.5 -7.6 10.9 -7.6 9.7 -8.7 8.55 -9.8 8.55 -11.3 8.55 -12.15 8.95 -12.85 L9.7 -13.9 10.55 -14.55 12.5 -15.0 M-5.35 -14.0 Q-3.95 -14.0 -2.95 -13.05 -1.95 -12.15 -1.9 -10.8 -1.95 -9.45 -2.95 -8.5 -3.95 -7.6 -5.35 -7.55 -6.75 -7.6 -7.8 -8.5 -8.8 -9.45 -8.8 -10.8 -8.8 -11.55 -8.45 -12.15 L-7.8 -13.05 -7.05 -13.6 Q-6.3 -14.0 -5.35 -14.0" fill="#ffcc99" fill-rule="evenodd" stroke="none"/>
    <path d="M12.5 -15.0 Q14.15 -15.0 15.3 -13.9 16.45 -12.85 16.45 -11.3 16.45 -9.8 15.3 -8.7 14.15 -7.6 12.5 -7.6 10.9 -7.6 9.7 -8.7 8.55 -9.8 8.55 -11.3 8.55 -12.15 8.95 -12.85 L9.7 -13.9 10.55 -14.55 12.5 -15.0 M-5.35 -14.0 Q-3.95 -14.0 -2.95 -13.05 -1.95 -12.15 -1.9 -10.8 -1.95 -9.45 -2.95 -8.5 -3.95 -7.6 -5.35 -7.55 -6.75 -7.6 -7.8 -8.5 -8.8 -9.45 -8.8 -10.8 -8.8 -11.55 -8.45 -12.15 L-7.8 -13.05 -7.05 -13.6 Q-6.3 -14.0 -5.35 -14.0 Z" fill="none" stroke="#000000" stroke-linecap="round" stroke-linejoin="round" stroke-width="3.5"/>
  </g>
</svg>
