<?xml version="1.0" encoding="UTF-8" standalone="no"?>
<svg xmlns:ffdec="https://www.free-decompiler.com/flash" xmlns:xlink="http://www.w3.org/1999/xlink" ffdec:objectType="shape" height="10.2px" width="31.1px" xmlns="http://www.w3.org/2000/svg">
  <g transform="matrix(1.0, 0.0, 0.0, 1.0, 12.0, 18.7)">
    <path d="M19.1 -13.75 L19.1 -13.7 Q19.1 -11.65 17.25 -10.15 15.4 -8.7 12.85 -8.7 10.3 -8.7 8.45 -10.15 6.6 -11.65 6.65 -13.7 L6.65 -13.75 Q6.65 -15.8 8.45 -17.25 10.3 -18.7 12.85 -18.7 15.4 -18.7 17.25 -17.25 19.05 -15.8 19.1 -13.75 M0.45 -13.5 Q0.45 -11.45 -1.4 -10.0 -3.25 -8.5 -5.8 -8.5 -8.35 -8.5 -10.2 -10.0 -12.05 -11.45 -12.0 -13.5 L-12.0 -13.55 Q-12.0 -15.6 -10.2 -17.05 -8.35 -18.5 -5.8 -18.5 -3.25 -18.5 -1.4 -17.05 0.4 -15.6 0.45 -13.55 L0.45 -13.5 M-8.85 -10.8 L-1.9 -11.05 -8.85 -10.8 M8.35 -11.25 L17.4 -11.9 8.35 -11.25" fill="#db9c64" fill-rule="evenodd" stroke="none"/>
    <path d="M17.4 -11.9 L8.35 -11.25 M-1.9 -11.05 L-8.85 -10.8" fill="none" stroke="#333333" stroke-linecap="round" stroke-linejoin="round" stroke-width="2.0"/>
  </g>
</svg>
