<?xml version="1.0" encoding="UTF-8" standalone="no"?>
<svg xmlns:ffdec="https://www.free-decompiler.com/flash" xmlns:xlink="http://www.w3.org/1999/xlink" ffdec:objectType="shape" height="19.05px" width="34.1px" xmlns="http://www.w3.org/2000/svg">
  <g transform="matrix(1.0, 0.0, 0.0, 1.0, 13.5, 23.15)">
    <path d="M17.3 -13.15 Q17.3 -16.0 15.95 -18.0 14.6 -20.0 12.75 -20.0 11.5 -20.0 10.45 -19.1 L9.5 -18.0 Q8.9 -17.1 8.6 -16.05 8.15 -14.75 8.2 -13.15 8.2 -10.3 9.5 -8.35 10.85 -6.35 12.75 -6.3 14.6 -6.35 15.95 -8.35 17.3 -10.3 17.3 -13.15 M18.55 -20.4 Q20.55 -17.65 20.6 -13.8 L20.6 -13.7 Q20.6 -9.85 18.55 -7.1 16.5 -4.3 13.65 -4.3 10.75 -4.3 8.7 -7.1 6.65 -9.85 6.65 -13.7 L6.65 -13.8 Q6.7 -17.65 8.7 -20.4 10.75 -23.15 13.65 -23.15 16.5 -23.15 18.55 -20.4 M0.45 -13.5 Q0.4 -9.6 -1.6 -6.85 -3.65 -4.1 -6.5 -4.1 -9.4 -4.1 -11.45 -6.85 -13.5 -9.6 -13.5 -13.5 L-13.5 -13.6 Q-13.45 -17.45 -11.45 -20.15 -9.4 -22.9 -6.5 -22.9 -3.65 -22.9 -1.6 -20.15 0.4 -17.45 0.45 -13.6 L0.45 -13.5 M-9.1 -16.4 L-9.9 -14.7 Q-10.3 -13.6 -10.3 -12.2 -10.3 -9.75 -9.1 -8.05 -7.95 -6.3 -6.3 -6.3 -4.7 -6.3 -3.55 -8.05 -2.35 -9.75 -2.35 -12.2 -2.35 -14.65 -3.55 -16.4 -4.7 -18.15 -6.3 -18.1 -7.4 -18.15 -8.25 -17.35 L-9.1 -16.4" fill="#db9c64" fill-rule="evenodd" stroke="none"/>
    <path d="M17.3 -13.15 Q17.3 -10.3 15.95 -8.35 14.6 -6.35 12.75 -6.3 10.85 -6.35 9.5 -8.35 8.2 -10.3 8.2 -13.15 8.15 -14.75 8.6 -16.05 8.9 -17.1 9.5 -18.0 L10.45 -19.1 Q11.5 -20.0 12.75 -20.0 14.6 -20.0 15.95 -18.0 17.3 -16.0 17.3 -13.15 M-9.1 -16.4 L-8.25 -17.35 Q-7.4 -18.15 -6.3 -18.1 -4.7 -18.15 -3.55 -16.4 -2.35 -14.65 -2.35 -12.2 -2.35 -9.75 -3.55 -8.05 -4.7 -6.3 -6.3 -6.3 -7.95 -6.3 -9.1 -8.05 -10.3 -9.75 -10.3 -12.2 -10.3 -13.6 -9.9 -14.7 L-9.1 -16.4" fill="#ffcc99" fill-rule="evenodd" stroke="none"/>
    <path d="M17.3 -13.15 Q17.3 -10.3 15.95 -8.35 14.6 -6.35 12.75 -6.3 10.85 -6.35 9.5 -8.35 8.2 -10.3 8.2 -13.15 8.15 -14.75 8.6 -16.05 8.9 -17.1 9.5 -18.0 L10.45 -19.1 Q11.5 -20.0 12.75 -20.0 14.6 -20.0 15.95 -18.0 17.3 -16.0 17.3 -13.15 M-9.1 -16.4 L-8.25 -17.35 Q-7.4 -18.15 -6.3 -18.1 -4.7 -18.15 -3.55 -16.4 -2.35 -14.65 -2.35 -12.2 -2.35 -9.75 -3.55 -8.05 -4.7 -6.3 -6.3 -6.3 -7.95 -6.3 -9.1 -8.05 -10.3 -9.75 -10.3 -12.2 -10.3 -13.6 -9.9 -14.7 L-9.1 -16.4 Z" fill="none" stroke="#000000" stroke-linecap="round" stroke-linejoin="round" stroke-width="3.5"/>
  </g>
</svg>
