<?xml version="1.0" encoding="UTF-8" standalone="no"?>
<svg xmlns:ffdec="https://www.free-decompiler.com/flash" xmlns:xlink="http://www.w3.org/1999/xlink" ffdec:objectType="shape" height="17.35px" width="32.5px" xmlns="http://www.w3.org/2000/svg">
  <g transform="matrix(1.0, 0.0, 0.0, 1.0, 13.1, 21.4)">
    <path d="M10.2 -17.4 Q12.45 -16.3 14.3 -14.25 L15.0 -13.3 15.9 -11.6 Q16.6 -9.55 15.35 -7.8 14.6 -6.75 13.3 -6.4 11.6 -6.0 10.4 -7.25 8.9 -8.9 8.65 -11.0 8.3 -14.2 10.0 -16.9 L10.0 -17.45 10.2 -17.4 M-8.3 -12.7 L-2.85 -17.0 -2.45 -16.95 -2.3 -16.65 -2.05 -15.35 Q-1.85 -12.95 -2.0 -10.3 -2.1 -8.95 -3.05 -7.8 L-4.15 -6.8 Q-5.8 -5.7 -7.15 -7.15 -8.1 -8.0 -8.5 -9.45 -9.1 -11.55 -8.3 -12.7" fill="#ffcc99" fill-rule="evenodd" stroke="none"/>
    <path d="M10.2 -17.4 L10.0 -17.45 10.0 -16.9 Q8.3 -14.2 8.65 -11.0 8.9 -8.9 10.4 -7.25 11.6 -6.0 13.3 -6.4 14.6 -6.75 15.35 -7.8 16.6 -9.55 15.9 -11.6 L15.0 -13.3 14.3 -14.25 Q12.45 -16.3 10.2 -17.4 M18.5 -14.4 Q19.7 -12.35 19.3 -10.45 18.9 -8.6 17.55 -6.45 16.2 -4.3 13.4 -4.25 10.6 -4.3 8.65 -6.8 6.65 -9.3 6.65 -12.85 L6.65 -12.95 Q6.65 -16.45 8.65 -18.95 10.6 -21.45 13.2 -21.4 15.7 -21.45 16.45 -18.95 17.25 -16.45 18.5 -14.4 M0.45 -12.65 Q0.4 -9.1 -1.55 -6.6 -3.55 -4.05 -6.35 -4.05 -9.15 -4.05 -11.1 -6.6 -13.1 -9.1 -13.1 -12.65 L-12.45 -14.15 Q-11.85 -15.6 -9.4 -17.85 -6.95 -20.15 -5.25 -20.65 -3.55 -21.2 -1.55 -18.7 0.4 -16.2 0.45 -12.7 L0.45 -12.65 M-8.3 -12.7 Q-9.1 -11.55 -8.5 -9.45 -8.1 -8.0 -7.15 -7.15 -5.8 -5.7 -4.15 -6.8 L-3.05 -7.8 Q-2.1 -8.95 -2.0 -10.3 -1.85 -12.95 -2.05 -15.35 L-2.3 -16.65 -2.45 -16.95 -2.85 -17.0 -8.3 -12.7" fill="#db9c64" fill-rule="evenodd" stroke="none"/>
    <path d="M10.2 -17.4 L10.0 -17.45 10.0 -16.9 Q8.3 -14.2 8.65 -11.0 8.9 -8.9 10.4 -7.25 11.6 -6.0 13.3 -6.4 14.6 -6.75 15.35 -7.8 16.6 -9.55 15.9 -11.6 L15.0 -13.3 14.3 -14.25 Q12.45 -16.3 10.2 -17.4 M-8.3 -12.7 Q-9.1 -11.55 -8.5 -9.45 -8.1 -8.0 -7.15 -7.15 -5.8 -5.7 -4.15 -6.8 L-3.05 -7.8 Q-2.1 -8.95 -2.0 -10.3 -1.85 -12.95 -2.05 -15.35 L-2.3 -16.65 -2.45 -16.95 -2.85 -17.0 -8.3 -12.7 Z" fill="none" stroke="#000000" stroke-linecap="round" stroke-linejoin="round" stroke-width="3.5"/>
  </g>
</svg>
