<?xml version="1.0" encoding="UTF-8" standalone="no"?>
<svg xmlns:ffdec="https://www.free-decompiler.com/flash" xmlns:xlink="http://www.w3.org/1999/xlink" ffdec:objectType="shape" height="16.8px" width="33.25px" xmlns="http://www.w3.org/2000/svg">
  <g transform="matrix(1.0, 0.0, 0.0, 1.0, 13.1, 20.85)">
    <path d="M20.15 -12.95 L20.15 -12.85 Q20.15 -9.3 18.2 -6.8 16.2 -4.3 13.4 -4.25 10.6 -4.3 8.65 -6.8 6.65 -9.3 6.65 -12.85 L7.35 -13.45 Q8.0 -14.05 9.7 -17.05 11.4 -20.05 13.8 -20.7 16.2 -21.45 18.2 -18.95 20.15 -16.45 20.15 -12.95 M0.45 -12.65 Q0.4 -9.1 -1.55 -6.6 -3.55 -4.05 -6.35 -4.05 -9.15 -4.05 -11.1 -6.6 -13.1 -9.1 -13.1 -12.65 L-13.1 -12.7 Q-13.1 -16.2 -11.1 -18.7 -9.15 -21.2 -6.65 -19.35 -4.25 -17.55 -2.0 -16.4 0.2 -15.25 0.3 -13.95 L0.45 -12.65 M8.6 -11.4 Q8.75 -9.45 9.7 -8.05 10.9 -6.35 12.5 -6.3 14.15 -6.35 15.3 -8.05 16.45 -9.75 16.45 -12.2 16.45 -14.3 15.6 -15.85 L8.6 -11.4 7.7 -10.8 8.6 -11.4 M-1.95 -11.8 L-8.35 -13.95 -8.45 -13.55 Q-8.8 -12.6 -8.8 -11.4 -8.8 -9.3 -7.8 -7.8 -6.75 -6.3 -5.35 -6.25 -3.95 -6.3 -2.95 -7.8 -1.95 -9.3 -1.9 -11.4 L-1.95 -11.8 -1.45 -11.65 -1.95 -11.8" fill="#db9c64" fill-rule="evenodd" stroke="none"/>
    <path d="M8.6 -11.4 L15.6 -15.85 Q16.45 -14.3 16.45 -12.2 16.45 -9.75 15.3 -8.05 14.15 -6.35 12.5 -6.3 10.9 -6.35 9.7 -8.05 8.75 -9.45 8.6 -11.4 M-1.95 -11.8 L-1.9 -11.4 Q-1.95 -9.3 -2.95 -7.8 -3.95 -6.3 -5.35 -6.25 -6.75 -6.3 -7.8 -7.8 -8.8 -9.3 -8.8 -11.4 -8.8 -12.6 -8.45 -13.55 L-8.35 -13.95 -1.95 -11.8" fill="#ffcc99" fill-rule="evenodd" stroke="none"/>
    <path d="M8.6 -11.4 L15.6 -15.85 Q16.45 -14.3 16.45 -12.2 16.45 -9.75 15.3 -8.05 14.15 -6.35 12.5 -6.3 10.9 -6.35 9.7 -8.05 8.75 -9.45 8.6 -11.4 L7.7 -10.8 M-1.95 -11.8 L-1.9 -11.4 Q-1.95 -9.3 -2.95 -7.8 -3.95 -6.3 -5.35 -6.25 -6.75 -6.3 -7.8 -7.8 -8.8 -9.3 -8.8 -11.4 -8.8 -12.6 -8.45 -13.55 L-8.35 -13.95 -1.95 -11.8 -1.45 -11.65" fill="none" stroke="#000000" stroke-linecap="round" stroke-linejoin="round" stroke-width="3.5"/>
  </g>
</svg>
