<?xml version="1.0" encoding="UTF-8" standalone="no"?>
<svg xmlns:ffdec="https://www.free-decompiler.com/flash" xmlns:xlink="http://www.w3.org/1999/xlink" ffdec:objectType="shape" height="13.65px" width="33.25px" xmlns="http://www.w3.org/2000/svg">
  <g transform="matrix(1.0, 0.0, 0.0, 1.0, 13.1, 21.4)">
    <path d="M20.15 -12.95 L20.15 -12.85 Q20.15 -9.3 18.75 -8.8 17.35 -8.3 14.9 -9.35 12.4 -10.4 9.5 -9.85 6.65 -9.3 6.65 -12.85 L6.65 -12.95 Q6.65 -16.45 8.65 -18.95 10.6 -21.45 13.4 -21.4 16.2 -21.45 18.2 -18.95 20.15 -16.45 20.15 -12.95 M8.35 -11.25 Q11.8 -21.15 17.4 -11.9 11.8 -21.15 8.35 -11.25 M0.45 -10.75 Q0.45 -8.85 -3.25 -9.2 -6.95 -9.55 -9.05 -8.35 L-12.15 -8.2 Q-13.15 -9.15 -13.1 -10.9 L-13.1 -12.7 Q-13.1 -16.2 -11.1 -18.7 -9.15 -21.2 -6.35 -21.2 -3.55 -21.2 -1.55 -18.7 0.4 -16.2 0.45 -12.7 L0.45 -10.75 M-8.85 -10.8 Q-5.8 -17.6 -1.9 -11.05 -5.8 -17.6 -8.85 -10.8" fill="#db9c64" fill-rule="evenodd" stroke="none"/>
    <path d="M17.4 -11.9 Q11.8 -21.15 8.35 -11.25 M-1.9 -11.05 Q-5.8 -17.6 -8.85 -10.8" fill="none" stroke="#333333" stroke-linecap="round" stroke-linejoin="round" stroke-width="2.0"/>
  </g>
</svg>
