<?xml version="1.0" encoding="UTF-8" standalone="no"?>
<svg xmlns:ffdec="https://www.free-decompiler.com/flash" xmlns:xlink="http://www.w3.org/1999/xlink" ffdec:objectType="shape" height="17.2px" width="32.55px" xmlns="http://www.w3.org/2000/svg">
  <g transform="matrix(1.0, 0.0, 0.0, 1.0, 12.4, 21.25)">
    <path d="M7.2 -6.55 L6.8 -7.25 Q6.05 -9.3 6.35 -11.1 L6.65 -12.95 Q6.65 -16.45 8.65 -18.95 10.6 -21.45 12.65 -21.05 14.7 -20.7 16.45 -18.1 L19.2 -14.2 20.15 -12.85 Q20.15 -11.25 19.55 -10.3 L18.0 -11.25 17.95 -12.2 17.8 -14.05 Q12.95 -19.25 11.75 -19.4 10.5 -19.55 9.6 -18.5 L9.65 -18.5 8.55 -17.25 8.5 -17.2 Q7.8 -16.25 7.5 -15.1 L7.5 -15.15 Q7.1 -13.8 7.1 -12.2 7.1 -9.6 8.2 -7.65 L7.9 -7.5 Q7.4 -7.3 7.25 -6.75 L7.2 -6.55 M0.45 -12.65 Q0.4 -9.1 -1.55 -6.6 -3.55 -4.05 -6.35 -4.05 -9.15 -4.05 -11.1 -6.6 -13.1 -9.1 -12.05 -11.5 L-10.4 -15.25 -8.55 -18.95 Q-7.3 -21.3 -5.4 -21.25 -3.55 -21.2 -1.55 -18.7 0.4 -16.2 0.45 -12.7 L0.45 -12.65 M-4.0 -18.4 L-5.8 -18.95 -10.25 -10.65 Q-10.1 -8.5 -9.0 -6.95 -7.5 -4.7 -5.3 -4.8 -3.2 -4.7 -1.7 -7.0 L-1.75 -6.95 Q-0.5 -8.75 -0.4 -11.35 L-0.4 -11.4 Q-0.5 -14.05 -1.75 -15.85 -2.95 -17.65 -4.0 -18.4" fill="#db9c64" fill-rule="evenodd" stroke="none"/>
    <path d="M11.85 -16.3 L11.5 -16.2 11.0 -15.6 10.95 -15.55 10.35 -14.3 Q10.05 -13.35 10.05 -12.2 10.05 -10.5 10.75 -9.15 13.1 -10.65 15.05 -11.0 L15.15 -12.15 15.25 -12.65 13.7 -14.45 11.85 -16.3 M19.55 -10.3 L20.05 -9.9 19.0 -9.65 18.9 -9.65 16.8 -9.0 Q13.6 -8.0 7.5 -5.6 L7.35 -5.8 Q7.15 -6.15 7.2 -6.55 L7.25 -6.75 Q7.4 -7.3 7.9 -7.5 L8.2 -7.65 Q7.1 -9.6 7.1 -12.2 7.1 -13.8 7.5 -15.15 L7.5 -15.1 Q7.8 -16.25 8.5 -17.2 L8.55 -17.25 9.65 -18.5 9.6 -18.5 Q10.5 -19.55 11.75 -19.4 12.95 -19.25 17.8 -14.05 L17.95 -12.2 18.0 -11.25 19.55 -10.3 M-4.2 -14.2 L-5.05 -15.0 Q-5.9 -14.5 -7.05 -11.4 L-7.3 -10.75 Q-7.15 -9.55 -6.55 -8.6 -6.0 -7.85 -5.3 -7.75 -4.7 -7.85 -4.2 -8.6 -3.4 -9.75 -3.35 -11.4 -3.45 -13.05 -4.2 -14.15 L-4.2 -14.2 M-4.0 -18.4 Q-2.95 -17.65 -1.75 -15.85 -0.5 -14.05 -0.4 -11.4 L-0.4 -11.35 Q-0.5 -8.75 -1.75 -6.95 L-1.7 -7.0 Q-3.2 -4.7 -5.3 -4.8 -7.5 -4.7 -9.0 -6.95 -10.1 -8.5 -10.25 -10.65 L-5.8 -18.95 -4.0 -18.4" fill="#000000" fill-rule="evenodd" stroke="none"/>
    <path d="M11.85 -16.3 L13.7 -14.45 15.25 -12.65 15.15 -12.15 15.05 -11.0 Q13.1 -10.65 10.75 -9.15 10.05 -10.5 10.05 -12.2 10.05 -13.35 10.35 -14.3 L10.95 -15.55 11.0 -15.6 11.5 -16.2 11.85 -16.3 M-4.2 -14.2 L-4.2 -14.15 Q-3.45 -13.05 -3.35 -11.4 -3.4 -9.75 -4.2 -8.6 -4.7 -7.85 -5.3 -7.75 -6.0 -7.85 -6.55 -8.6 -7.15 -9.55 -7.3 -10.75 L-7.05 -11.4 Q-5.9 -14.5 -5.05 -15.0 L-4.2 -14.2" fill="#ffcc99" fill-rule="evenodd" stroke="none"/>
    <path d="M19.0 -9.65 Q18.3 -9.15 17.3 -9.05 L16.8 -9.0 18.9 -9.65 19.0 -9.65" fill="#b8c1b2" fill-rule="evenodd" stroke="none"/>
  </g>
</svg>
