<?xml version="1.0" encoding="UTF-8" standalone="no"?>
<svg xmlns:ffdec="https://www.free-decompiler.com/flash" xmlns:xlink="http://www.w3.org/1999/xlink" ffdec:objectType="shape" height="17.35px" width="33.25px" xmlns="http://www.w3.org/2000/svg">
  <g transform="matrix(1.0, 0.0, 0.0, 1.0, 13.1, 21.4)">
    <path d="M-7.6 -15.4 L-7.1 -14.95 -0.5 -12.0 -0.4 -11.45 -0.4 -11.35 Q-0.5 -8.75 -1.75 -6.95 L-1.7 -7.0 Q-3.2 -4.7 -5.3 -4.8 -7.5 -4.7 -9.0 -6.95 -10.25 -8.75 -10.25 -11.35 -10.3 -12.5 -10.0 -13.45 L-12.35 -14.8 -12.35 -14.85 Q-12.55 -15.35 -12.35 -15.85 -12.15 -16.35 -11.65 -16.5 -11.15 -16.7 -10.7 -16.5 L-8.45 -15.55 -7.6 -15.4 M-4.2 -8.6 Q-3.6 -9.5 -3.4 -10.7 L-7.25 -12.3 -7.3 -11.35 Q-7.3 -9.75 -6.55 -8.6 -6.0 -7.85 -5.3 -7.75 -4.7 -7.85 -4.2 -8.6" fill="#000000" fill-rule="evenodd" stroke="none"/>
    <path d="M20.15 -12.95 L20.15 -12.85 Q20.15 -9.3 18.2 -6.8 16.2 -4.3 13.4 -4.25 10.6 -4.3 8.65 -6.8 6.65 -9.3 6.65 -12.85 L6.65 -12.95 Q6.65 -16.45 8.65 -18.95 10.6 -21.45 13.4 -21.4 16.2 -21.45 18.2 -18.95 20.15 -16.45 20.15 -12.95 M15.3 -16.4 Q14.15 -18.1 12.5 -18.1 11.45 -18.15 10.55 -17.35 L9.7 -16.4 Q9.2 -15.65 8.95 -14.7 8.55 -13.6 8.55 -12.2 8.55 -9.75 9.7 -8.05 10.9 -6.35 12.5 -6.3 14.15 -6.35 15.3 -8.05 16.45 -9.75 16.45 -12.2 16.45 -14.7 15.3 -16.4 M0.45 -12.65 Q0.4 -9.1 -1.55 -6.6 -3.55 -4.05 -6.35 -4.05 -9.15 -4.05 -11.1 -6.6 -13.1 -9.1 -13.1 -12.65 L-13.1 -12.7 Q-13.05 -16.2 -11.15 -18.6 -9.25 -20.95 -7.3 -18.8 -5.35 -16.65 -2.8 -15.45 -0.25 -14.3 0.1 -13.5 L0.45 -12.65 M-7.6 -15.4 L-8.45 -15.55 -10.7 -16.5 Q-11.15 -16.7 -11.65 -16.5 -12.15 -16.35 -12.35 -15.85 -12.55 -15.35 -12.35 -14.85 L-12.35 -14.8 -10.0 -13.45 Q-10.3 -12.5 -10.25 -11.35 -10.25 -8.75 -9.0 -6.95 -7.5 -4.7 -5.3 -4.8 -3.2 -4.7 -1.7 -7.0 L-1.75 -6.95 Q-0.5 -8.75 -0.4 -11.35 L-0.4 -11.45 -0.5 -12.0 -7.1 -14.95 -7.6 -15.4" fill="#db9c64" fill-rule="evenodd" stroke="none"/>
    <path d="M15.3 -16.4 Q16.45 -14.7 16.45 -12.2 16.45 -9.75 15.3 -8.05 14.15 -6.35 12.5 -6.3 10.9 -6.35 9.7 -8.05 8.55 -9.75 8.55 -12.2 8.55 -13.6 8.95 -14.7 9.2 -15.65 9.7 -16.4 L10.55 -17.35 Q11.45 -18.15 12.5 -18.1 14.15 -18.1 15.3 -16.4 M-4.2 -8.6 Q-4.7 -7.85 -5.3 -7.75 -6.0 -7.85 -6.55 -8.6 -7.3 -9.75 -7.3 -11.35 L-7.25 -12.3 -3.4 -10.7 Q-3.6 -9.5 -4.2 -8.6" fill="#ffcc99" fill-rule="evenodd" stroke="none"/>
    <path d="M15.3 -16.4 Q16.45 -14.7 16.45 -12.2 16.45 -9.75 15.3 -8.05 14.15 -6.35 12.5 -6.3 10.9 -6.35 9.7 -8.05 8.55 -9.75 8.55 -12.2 8.55 -13.6 8.95 -14.7 9.2 -15.65 9.7 -16.4 L10.55 -17.35 Q11.45 -18.15 12.5 -18.1 14.15 -18.1 15.3 -16.4 Z" fill="none" stroke="#000000" stroke-linecap="round" stroke-linejoin="round" stroke-width="3.5"/>
  </g>
</svg>
