<?xml version="1.0" encoding="UTF-8" standalone="no"?>
<svg xmlns:ffdec="https://www.free-decompiler.com/flash" xmlns:xlink="http://www.w3.org/1999/xlink" ffdec:objectType="shape" height="94.8px" width="104.6px" xmlns="http://www.w3.org/2000/svg">
  <g transform="matrix(1.0, 0.0, 0.0, 1.0, 23.45, 14.25)">
    <path d="M37.0 7.25 L37.0 7.15 37.0 7.1 37.0 7.15 37.0 7.25" fill="#823a1c" fill-rule="evenodd" stroke="none"/>
    <path d="M37.0 7.15 L37.0 7.25 36.95 7.25 36.95 7.2 37.0 7.15" fill="#672712" fill-rule="evenodd" stroke="none"/>
    <path d="M36.1 17.4 Q50.1 30.3 49.4 47.1 55.1 49.6 55.75 58.45 58.1 61.05 63.0 62.95 L62.25 53.75 63.3 53.75 Q70.55 53.9 79.8 58.7 75.1 50.1 68.95 44.95 L68.0 44.05 69.05 43.35 Q73.7 40.25 78.05 35.05 69.8 34.15 65.1 30.3 L63.9 29.3 65.35 28.6 Q70.2 26.35 73.0 18.95 64.45 21.75 58.2 18.7 L57.85 18.55 57.7 18.25 Q55.05 12.85 62.65 8.4 54.7 5.85 50.25 8.15 L48.8 8.8 48.7 5.75 Q47.2 -2.15 50.65 -10.25 42.4 -7.3 37.3 -0.25 L36.5 0.8 35.7 -0.2 Q33.5 -3.05 34.1 -7.55 29.15 -4.35 27.05 -1.0 L26.25 0.25 25.4 -0.95 Q22.75 -4.65 22.65 -11.6 20.05 -4.95 20.25 -0.3 L20.25 -0.25 Q29.2 -0.4 36.9 7.05 L35.45 6.15 Q26.75 1.05 18.3 0.8 5.7 0.45 -6.25 10.9 L-10.65 15.1 Q-14.75 17.95 -19.55 22.5 -24.3 27.05 -20.2 36.3 -19.95 31.5 -17.95 26.7 L-17.9 26.65 Q-13.85 14.05 -0.9 15.05 12.0 16.0 36.55 7.2 L36.9 7.05 36.9 7.3 28.7 10.95 Q25.35 12.4 26.2 13.5 23.25 12.55 23.65 15.55 27.45 28.0 30.15 41.25 33.15 56.2 26.95 69.6 25.95 71.75 21.9 76.5 28.1 72.5 30.1 70.3 32.1 68.05 33.6 62.5 33.75 66.4 35.2 64.8 39.05 54.8 38.9 39.65 44.55 55.0 44.25 59.5 47.5 52.75 47.35 47.75 L47.35 47.7 Q48.25 31.35 36.1 17.4 M-11.15 19.65 Q-14.4 22.2 -16.05 27.3 L-16.05 27.4 Q-18.85 34.1 -19.0 43.05 L-19.9 41.45 Q-27.9 28.15 -17.9 18.6 1.4 0.0 18.25 -0.25 17.95 -7.1 21.7 -12.1 L23.3 -14.25 23.5 -11.55 Q23.8 -7.25 26.25 -3.3 28.95 -6.8 33.7 -8.45 L34.95 -8.9 35.0 -7.5 Q35.0 -4.95 36.55 -2.55 42.5 -10.1 51.05 -11.7 L52.9 -12.1 52.2 -10.35 Q49.05 -2.85 50.7 5.5 L50.7 5.6 50.7 5.75 Q56.1 3.75 63.5 7.65 L65.05 8.4 63.5 9.35 Q57.75 12.75 59.4 17.1 65.5 19.9 72.55 18.3 L74.0 18.0 73.75 19.4 Q72.75 26.6 67.6 29.65 71.95 32.85 77.7 34.05 L78.95 34.3 78.45 35.4 Q76.1 40.65 71.25 44.25 78.0 50.35 80.45 58.2 L81.15 60.3 79.1 59.45 Q71.7 56.2 64.25 55.8 L64.25 64.45 63.1 64.25 Q57.2 63.25 55.0 59.6 L54.65 59.65 54.55 58.8 54.15 58.1 54.4 57.95 Q53.25 51.6 49.25 49.3 48.55 54.85 43.55 61.25 42.6 54.0 40.75 53.1 39.75 62.9 32.4 70.3 27.7 74.95 21.65 77.45 L19.55 78.3 Q23.35 72.65 27.2 63.95 31.05 55.2 28.6 43.35 L26.0 31.2 23.0 18.65 Q21.45 19.3 21.3 20.05 21.45 16.55 20.9 14.8 19.2 18.6 16.8 19.65 20.05 17.45 18.8 14.4 15.65 18.35 11.65 19.5 12.65 19.1 11.7 17.75 L-1.45 17.1 Q-7.4 16.65 -11.15 19.65 M53.15 60.45 L54.2 61.75 Q57.8 65.8 57.2 73.0 L57.05 75.15 55.5 73.6 Q51.6 69.75 48.55 69.9 L45.4 70.5 45.55 69.65 47.9 68.05 Q51.1 66.0 52.5 62.1 L53.15 60.45 M-5.75 73.15 Q-3.25 76.55 -5.45 79.9 1.25 78.65 1.4 75.95 -3.6 73.65 -9.8 66.6 -9.55 72.1 -18.7 77.35 -9.05 77.2 -5.75 73.15 M56.45 73.15 Q55.2 67.05 53.8 62.7 52.6 66.6 48.9 68.7 53.0 68.85 56.45 73.15 M-12.65 63.15 L-12.9 62.4 -13.15 60.4 Q-3.9 73.25 3.85 76.1 0.4 80.95 -5.3 80.5 L-6.9 80.45 -6.05 78.95 Q-5.3 77.65 -5.85 75.55 -12.05 79.05 -18.35 78.25 L-21.15 77.95 -21.15 77.9 -18.75 76.4 Q-9.6 71.05 -12.65 63.15" fill="#c28127" fill-rule="evenodd" stroke="none"/>
    <path d="M36.1 17.4 Q48.25 31.35 47.35 47.7 L47.35 47.75 Q47.5 52.75 44.25 59.5 44.55 55.0 38.9 39.65 37.35 28.6 32.2 20.65 39.75 43.5 33.6 62.5 32.1 68.05 30.1 70.3 28.1 72.5 21.9 76.5 25.95 71.75 26.95 69.6 33.15 56.2 30.15 41.25 27.45 28.0 23.65 15.55 23.25 12.55 26.2 13.5 25.35 12.4 28.7 10.95 32.35 13.05 36.1 17.4 M36.55 7.2 Q12.0 16.0 -0.9 15.05 -13.85 14.05 -17.9 26.65 L-17.95 26.7 Q-19.95 31.5 -20.2 36.3 -24.3 27.05 -19.55 22.5 -14.75 17.95 -10.65 15.1 L-6.25 10.9 Q2.65 4.55 9.25 4.0 14.55 3.55 3.65 8.75 19.3 2.1 36.55 7.2 M47.0 20.25 Q44.9 20.95 42.8 18.9 39.25 16.4 40.95 12.35 37.65 12.9 35.3 11.3 37.7 11.2 38.8 8.8 40.9 1.85 46.7 -5.95 44.15 -0.1 45.0 6.25 45.45 9.9 46.2 13.05 50.7 9.8 55.55 10.4 51.55 15.6 52.4 20.8 57.1 24.4 64.55 24.75 60.65 29.8 55.55 32.05 66.2 37.15 60.3 37.3 56.6 37.4 66.9 49.8 61.3 52.8 51.45 41.15 50.15 37.6 51.7 33.5 49.65 33.3 48.55 30.8 47.8 28.05 50.65 27.25 48.85 27.35 47.0 24.9 45.65 22.6 47.0 20.25" fill="#fbee95" fill-rule="evenodd" stroke="none"/>
    <path d="M-6.25 10.9 Q5.7 0.45 18.3 0.8 26.75 1.05 35.45 6.15 L36.9 7.05 Q29.2 -0.4 20.25 -0.25 L20.25 -0.3 Q20.05 -4.95 22.65 -11.6 22.75 -4.65 25.4 -0.95 L26.25 0.25 27.05 -1.0 Q29.15 -4.35 34.1 -7.55 33.5 -3.05 35.7 -0.2 L36.5 0.8 37.3 -0.25 Q42.4 -7.3 50.65 -10.25 47.2 -2.15 48.7 5.75 L48.8 8.8 50.25 8.15 Q54.7 5.85 62.65 8.4 55.05 12.85 57.7 18.25 L57.85 18.55 58.2 18.7 Q64.45 21.75 73.0 18.95 70.2 26.35 65.35 28.6 L63.9 29.3 65.1 30.3 Q69.8 34.15 78.05 35.05 73.7 40.25 69.05 43.35 L68.0 44.05 68.95 44.95 Q75.1 50.1 79.8 58.7 70.55 53.9 63.3 53.75 L62.25 53.75 63.0 62.95 Q58.1 61.05 55.75 58.45 55.1 49.6 49.4 47.1 50.1 30.3 36.1 17.4 32.35 13.05 28.7 10.95 L36.9 7.3 36.9 7.05 36.55 7.2 Q19.3 2.1 3.65 8.75 14.55 3.55 9.25 4.0 2.65 4.55 -6.25 10.9 M38.9 39.65 Q39.05 54.8 35.2 64.8 33.75 66.4 33.6 62.5 39.75 43.5 32.2 20.65 37.35 28.6 38.9 39.65 M47.0 20.25 Q45.65 22.6 47.0 24.9 48.85 27.35 50.65 27.25 47.8 28.05 48.55 30.8 49.65 33.3 51.7 33.5 50.15 37.6 51.45 41.15 61.3 52.8 66.9 49.8 56.6 37.4 60.3 37.3 66.2 37.15 55.55 32.05 60.65 29.8 64.55 24.75 57.1 24.4 52.4 20.8 51.55 15.6 55.55 10.4 50.7 9.8 46.2 13.05 45.45 9.9 45.0 6.25 44.15 -0.1 46.7 -5.95 40.9 1.85 38.8 8.8 37.7 11.2 35.3 11.3 37.65 12.9 40.95 12.35 39.25 16.4 42.8 18.9 44.9 20.95 47.0 20.25 M37.0 7.25 L37.0 7.15 37.0 7.1 37.0 7.15 36.95 7.2 36.95 7.25 37.0 7.25 M56.45 73.15 Q53.0 68.85 48.9 68.7 52.6 66.6 53.8 62.7 55.2 67.05 56.45 73.15 M-5.75 73.15 Q-9.05 77.2 -18.7 77.35 -9.55 72.1 -9.8 66.6 -3.6 73.65 1.4 75.95 1.25 78.65 -5.45 79.9 -3.25 76.55 -5.75 73.15" fill="#f4d371" fill-rule="evenodd" stroke="none"/>
    <path d="M-11.15 19.65 Q-7.4 16.65 -1.45 17.1 L11.7 17.75 Q12.65 19.1 11.65 19.5 15.65 18.35 18.8 14.4 20.05 17.45 16.8 19.65 19.2 18.6 20.9 14.8 21.45 16.55 21.3 20.05 21.45 19.3 23.0 18.65 L26.0 31.2 Q7.8 15.25 -15.05 28.55 -13.55 23.7 -11.15 19.65" fill="#f1ba87" fill-rule="evenodd" stroke="none"/>
  </g>
</svg>
