<?xml version="1.0" encoding="UTF-8" standalone="no"?>
<svg xmlns:ffdec="https://www.free-decompiler.com/flash" xmlns:xlink="http://www.w3.org/1999/xlink" ffdec:objectType="shape" height="78.55px" width="78.5px" xmlns="http://www.w3.org/2000/svg">
  <g transform="matrix(1.0, 0.0, 0.0, 1.0, 22.4, 49.5)">
    <path d="M-7.15 -39.1 L-7.05 -38.85 -7.85 -38.5 -7.15 -39.1" fill="#eaa76a" fill-rule="evenodd" stroke="none"/>
    <path d="M13.1 27.1 L16.8 26.9 16.85 27.25 13.1 27.1" fill="#e7964e" fill-rule="evenodd" stroke="none"/>
    <path d="M-7.05 -38.85 Q-0.85 -41.55 6.55 -41.55 20.55 -41.6 30.5 -31.9 40.35 -22.2 40.4 -8.45 40.35 5.3 30.5 15.0 20.55 24.7 6.55 24.7 L2.3 24.45 -0.35 23.2 Q-5.4 20.55 -9.7 16.25 -20.7 5.25 -20.65 -10.25 -20.65 -23.35 -12.9 -33.2 L-10.05 -36.4 -9.95 -36.5 -9.9 -36.6 -9.65 -36.8 -8.3 -38.1 -7.85 -38.5 -7.05 -38.85" fill="#ffcc99" fill-rule="evenodd" stroke="none"/>
    <path d="M2.3 24.45 L6.55 24.7 Q20.55 24.7 30.5 15.0 40.35 5.3 40.4 -8.45 40.35 -22.2 30.5 -31.9 20.55 -41.6 6.55 -41.55 -0.85 -41.55 -7.05 -38.85 L-7.15 -39.1 Q1.45 -44.85 12.45 -44.85 27.35 -44.85 37.9 -34.3 48.45 -23.8 48.45 -8.9 48.45 6.0 37.9 16.55 28.9 25.5 16.8 26.9 L13.1 27.1 12.5 27.05 Q8.75 26.6 5.3 25.55 L2.3 24.45" fill="#f1ba87" fill-rule="evenodd" stroke="none"/>
    <path d="M16.8 26.9 Q28.9 25.5 37.9 16.55 48.45 6.0 48.45 -8.9 48.45 -23.8 37.9 -34.3 27.35 -44.85 12.45 -44.85 1.45 -44.85 -7.15 -39.1 3.05 -47.75 16.85 -47.7 32.35 -47.75 43.35 -36.75 54.35 -25.75 54.35 -10.25 54.35 5.25 43.35 16.25 32.35 27.25 16.85 27.25 L16.8 26.9" fill="#db9c64" fill-rule="evenodd" stroke="none"/>
    <path d="M2.3 24.45 L5.3 25.55 Q8.75 26.6 12.5 27.05 L13.1 27.1 16.85 27.25 Q32.35 27.25 43.35 16.25 54.35 5.25 54.35 -10.25 54.35 -25.75 43.35 -36.75 32.35 -47.75 16.85 -47.7 3.05 -47.75 -7.15 -39.1 L-7.85 -38.5 -8.3 -38.1 -9.65 -36.8 -9.9 -36.6 -9.95 -36.5 -10.05 -36.4 -12.9 -33.2 Q-20.65 -23.35 -20.65 -10.25 -20.7 5.25 -9.7 16.25 -5.4 20.55 -0.35 23.2 L2.3 24.45 M44.55 -38.0 Q56.1 -26.5 56.1 -10.25 56.1 6.0 44.55 17.5 33.05 29.0 16.85 29.05 L12.3 28.8 12.25 28.8 Q8.35 28.35 4.8 27.25 1.65 26.25 -1.2 24.75 -6.45 21.95 -10.95 17.5 -22.5 6.0 -22.4 -10.25 -22.4 -23.95 -14.3 -34.3 L-11.35 -37.65 -11.2 -37.8 -11.0 -37.95 -10.95 -38.0 -10.85 -38.1 -10.8 -38.15 -9.45 -39.4 -9.5 -39.4 Q1.55 -49.55 16.85 -49.5 33.05 -49.55 44.55 -38.0" fill="#5c4730" fill-rule="evenodd" stroke="none"/>
  </g>
</svg>
