<?xml version="1.0" encoding="UTF-8" standalone="no"?>
<svg xmlns:ffdec="https://www.free-decompiler.com/flash" xmlns:xlink="http://www.w3.org/1999/xlink" ffdec:objectType="shape" height="56.85px" width="39.9px" xmlns="http://www.w3.org/2000/svg">
  <g transform="matrix(1.0, 0.0, 0.0, 1.0, 9.7, 5.2)">
    <path d="M6.15 31.55 L2.7 31.35 2.65 31.35 Q-1.95 30.3 -4.5 26.35 L-4.75 25.95 -4.75 25.85 -4.75 25.75 -4.8 25.65 -7.2 15.65 -7.25 15.65 -9.15 8.0 -9.5 6.55 -9.7 3.5 -9.6 1.7 -9.1 -1.25 Q-8.95 -2.2 -8.35 -2.9 L-7.45 -3.85 Q-8.5 -0.05 -8.25 1.85 L-7.85 5.15 Q-7.2 10.15 -5.8 15.1 L-5.75 15.1 -4.25 20.55 -3.6 24.7 Q-3.4 25.6 -1.8 26.35 L-1.75 26.35 -0.75 27.6 Q2.05 30.4 5.45 30.45 L6.15 31.55 M-2.55 -4.45 L-3.3 -5.15 -3.25 -5.2 -2.85 -5.15 Q0.4 -4.6 2.65 -2.25 L9.1 4.65 9.15 4.65 20.75 15.25 20.2 15.55 20.75 15.25 20.85 15.4 21.6 16.9 Q22.85 20.3 19.85 24.45 L19.65 24.7 18.75 23.05 19.7 21.1 Q20.45 18.0 19.65 15.8 18.1 13.25 14.35 12.25 L7.6 5.95 1.15 -1.0 -2.55 -4.45 M-2.6 22.0 Q-2.4 20.3 -1.3 19.1 L-1.05 18.8 Q2.35 15.45 7.2 13.9 10.0 12.9 12.55 13.35 14.3 13.7 15.95 14.75 17.15 15.45 18.3 16.45 L18.45 16.75 Q19.2 18.8 18.85 20.55 L18.2 22.1 17.6 21.1 Q18.4 19.2 17.15 17.2 L17.05 17.05 Q15.4 15.65 13.7 15.0 L11.55 14.5 11.5 14.4 8.2 15.0 Q6.4 15.45 4.75 16.35 L4.7 16.35 Q1.2 17.85 -0.75 20.05 L-1.3 20.7 -1.35 20.8 Q-2.35 23.1 -0.2 24.6 L0.65 25.15 2.2 26.4 3.4 27.1 4.6 29.1 3.05 28.55 Q0.95 27.45 -0.2 25.6 -2.6 24.1 -2.6 22.0" fill="#333333" fill-rule="evenodd" stroke="none"/>
    <path d="M20.75 15.25 L20.65 15.1 20.75 15.2 20.75 15.25" fill="#666666" fill-rule="evenodd" stroke="none"/>
    <path d="M-7.45 -3.85 L-5.2 -4.75 Q-3.7 -5.2 -2.55 -4.45 L1.15 -1.0 7.6 5.95 14.35 12.25 Q18.1 13.25 19.65 15.8 20.45 18.0 19.7 21.1 L18.75 23.05 18.25 22.2 18.85 20.55 Q19.2 18.8 18.45 16.75 L18.3 16.45 Q17.15 15.45 15.95 14.75 14.3 13.7 12.55 13.35 10.0 12.9 7.2 13.9 2.35 15.45 -1.05 18.8 L-1.3 19.1 Q-2.4 20.3 -2.6 22.0 L-3.0 23.1 -3.3 22.8 Q-3.6 21.5 -3.25 20.35 L-2.7 19.05 -1.5 17.65 3.3 14.45 5.7 12.05 Q6.0 11.3 5.75 10.45 L5.15 9.45 3.4 6.25 Q1.6 2.95 0.05 1.8 -0.7 1.25 -1.4 1.2 -5.8 0.65 -7.85 5.15 L-8.25 1.85 Q-8.5 -0.05 -7.45 -3.85" fill="#cdc9b6" fill-rule="evenodd" stroke="none"/>
    <path d="M5.45 30.45 Q2.05 30.4 -0.75 27.6 L-1.75 26.35 -1.8 26.35 Q-3.4 25.6 -3.6 24.7 L-4.25 20.55 -5.75 15.1 -5.8 15.1 Q-7.2 10.15 -7.85 5.15 -5.8 0.65 -1.4 1.2 -0.7 1.25 0.05 1.8 1.6 2.95 3.4 6.25 L5.15 9.45 5.75 10.45 Q6.0 11.3 5.7 12.05 L3.3 14.45 -1.5 17.65 -2.7 19.05 -3.25 20.35 Q-3.6 21.5 -3.3 22.8 L-3.0 23.1 -2.6 22.0 Q-2.6 24.1 -0.2 25.6 0.95 27.45 3.05 28.55 L4.6 29.1 5.45 30.45" fill="#fbfaee" fill-rule="evenodd" stroke="none"/>
    <path d="M19.65 24.7 Q24.35 33.15 29.2 44.45 28.35 46.55 27.3 47.9 L27.2 48.0 26.6 48.75 25.45 46.15 Q23.05 40.9 20.25 35.7 L15.8 28.25 14.75 26.85 14.05 25.9 14.0 25.9 13.55 25.35 Q10.85 22.25 8.85 22.25 4.85 22.25 4.05 24.0 L4.0 26.25 3.5 26.5 3.15 26.15 2.9 26.3 -0.7 20.2 -0.75 20.05 Q1.2 17.85 4.7 16.35 L4.75 16.35 Q6.4 15.45 8.2 15.0 L11.5 14.4 11.55 14.5 13.7 15.0 17.6 21.1 18.2 22.1 18.25 22.2 18.75 23.05 19.65 24.7" fill="#db9c64" fill-rule="evenodd" stroke="none"/>
    <path d="M26.6 48.75 Q23.1 52.3 17.75 49.25 11.1 39.4 6.15 31.55 L5.45 30.45 4.6 29.1 3.4 27.1 2.9 26.3 3.15 26.15 3.5 26.5 4.0 26.25 4.05 24.0 Q4.85 22.25 8.85 22.25 10.85 22.25 13.55 25.35 L14.0 25.9 14.05 25.9 14.75 26.85 15.8 28.25 20.25 35.7 Q23.05 40.9 25.45 46.15 L26.6 48.75" fill="#f1ba87" fill-rule="evenodd" stroke="none"/>
    <path d="M-1.35 20.8 L-0.7 20.2 2.9 26.3 3.4 27.1 2.2 26.4 0.65 25.15 -0.2 24.6 Q-2.35 23.1 -1.35 20.8 M13.7 15.0 Q15.4 15.65 17.05 17.05 L17.15 17.2 Q18.4 19.2 17.6 21.1 L13.7 15.0" fill="#837d6d" fill-rule="evenodd" stroke="none"/>
    <path d="M19.65 24.7 Q24.35 33.15 29.2 44.45 28.35 46.55 27.3 47.9 M27.2 48.0 L26.6 48.75 Q23.1 52.3 17.75 49.25 11.1 39.4 6.15 31.55 L5.45 30.45 4.6 29.1 3.4 27.1 2.9 26.3 -0.7 20.2 -0.75 20.05 M18.25 22.2 L18.75 23.05 19.65 24.7 M17.6 21.1 L18.2 22.1 18.25 22.2 M13.7 15.0 L17.6 21.1" fill="none" stroke="#5c4730" stroke-linecap="round" stroke-linejoin="round" stroke-width="2.0"/>
  </g>
</svg>
