<?xml version="1.0" encoding="UTF-8" standalone="no"?>
<svg xmlns:ffdec="https://www.free-decompiler.com/flash" xmlns:xlink="http://www.w3.org/1999/xlink" ffdec:objectType="shape" height="37.75px" width="32.15px" xmlns="http://www.w3.org/2000/svg">
  <g transform="matrix(1.0, 0.0, 0.0, 1.0, 7.35, 18.35)">
    <path d="M5.0 7.0 L6.15 11.9 3.5 15.1 -1.55 14.1 -0.6 9.75 -0.45 9.55 -0.4 9.55 2.25 6.4 4.35 6.85 4.75 6.9 4.75 7.0 5.0 7.0" fill="#3e3e3e" fill-rule="evenodd" stroke="none"/>
    <path d="M4.55 -1.35 L4.45 0.7 1.9 1.3 Q0.7 1.7 0.1 2.15 L0.15 2.2 -0.45 2.75 1.1 4.45 1.2 4.1 1.1 4.45 Q2.65 5.4 3.35 5.65 4.0 5.9 6.8 5.7 L8.45 17.95 Q12.75 13.9 17.3 12.2 20.0 11.15 22.8 10.95 22.5 7.4 19.95 4.5 L16.2 5.65 Q13.6 6.5 12.05 6.25 L11.65 6.2 11.45 6.1 12.7 5.75 15.9 4.7 Q18.05 3.95 19.25 2.75 18.05 2.05 15.75 1.3 L15.7 1.3 15.95 -0.7 16.4 -0.6 Q19.4 0.4 20.75 1.35 L21.15 1.7 Q24.95 7.1 24.8 11.95 L24.8 12.85 23.85 12.9 Q15.7 13.25 9.2 18.45 L7.95 19.4 6.6 13.75 4.1 16.75 -3.35 15.25 -2.65 12.15 -6.95 17.1 Q-7.75 11.65 -6.95 6.25 L-2.1 1.55 Q-1.5 0.35 1.25 -0.6 L4.55 -1.35 M4.45 1.65 L4.65 1.75 5.85 2.5 6.1 2.65 6.2 2.7 6.25 2.7 9.75 3.1 9.8 3.1 14.45 2.55 14.5 2.55 15.4 2.35 15.6 2.35 15.8 2.45 16.0 2.75 15.95 3.15 15.6 3.35 14.6 3.55 9.85 4.1 5.9 3.65 5.3 3.35 4.4 2.75 4.15 2.6 3.95 2.3 Q3.85 2.1 4.0 1.9 4.1 1.7 4.3 1.7 L4.45 1.65 M11.45 6.1 L11.65 6.2 11.45 6.1 M6.85 5.1 L6.65 5.05 6.85 5.1 M6.8 5.7 L6.8 5.65 6.8 5.7 M1.0 4.75 L1.05 4.65 -1.1 3.4 -5.55 7.0 Q-6.6 10.6 -5.95 14.25 L-1.95 8.25 1.0 4.75 M5.0 7.0 L4.75 7.0 4.75 6.9 4.35 6.85 2.25 6.4 -0.4 9.55 -0.45 9.55 -0.6 9.75 -1.55 14.1 3.5 15.1 6.15 11.9 5.0 7.0" fill="#333333" fill-rule="evenodd" stroke="none"/>
    <path d="M4.45 0.7 L4.45 1.65 4.3 1.7 Q4.1 1.7 4.0 1.9 3.85 2.1 3.95 2.3 L4.15 2.6 4.4 2.75 Q2.0 1.6 -0.45 2.75 L0.15 2.2 0.1 2.15 Q0.7 1.7 1.9 1.3 L4.45 0.7 M15.6 2.35 L15.7 1.3 15.75 1.3 Q18.05 2.05 19.25 2.75 18.05 3.95 15.9 4.7 L12.7 5.75 Q15.1 4.45 14.6 3.55 L15.6 3.35 15.95 3.15 16.0 2.75 15.8 2.45 15.6 2.35 M12.05 6.25 Q13.6 6.5 16.2 5.65 L19.95 4.5 Q22.5 7.4 22.8 10.95 20.0 11.15 17.3 12.2 19.5 7.9 12.05 6.25 M1.0 4.75 L-1.95 8.25 -5.95 14.25 Q-6.6 10.6 -5.55 7.0 L-1.1 3.4 1.05 4.65 1.0 4.75" fill="#cdc9b6" fill-rule="evenodd" stroke="none"/>
    <path d="M12.7 5.75 L11.45 6.1 11.65 6.2 12.05 6.25 Q19.5 7.9 17.3 12.2 12.75 13.9 8.45 17.95 L6.8 5.7 Q4.0 5.9 3.35 5.65 2.65 5.4 1.1 4.45 L1.2 4.1 1.1 4.45 -0.45 2.75 Q2.0 1.6 4.4 2.75 L5.3 3.35 5.9 3.65 9.85 4.1 14.6 3.55 Q15.1 4.45 12.7 5.75 M11.45 6.1 L11.65 6.2 11.45 6.1 M6.8 5.7 L6.8 5.65 6.8 5.7 M6.85 5.1 L6.65 5.05 6.85 5.1" fill="#fbfaee" fill-rule="evenodd" stroke="none"/>
    <path d="M4.55 -1.35 Q4.75 -9.45 4.3 -16.25 4.3 -16.7 4.55 -17.0 L5.2 -17.35 15.95 -18.35 16.5 -18.25 16.9 -17.85 17.05 -17.3 Q16.9 -9.35 15.95 -0.7 L15.7 1.3 15.6 2.35 15.4 2.35 14.5 2.55 14.55 1.0 14.65 -1.05 15.05 -16.25 6.35 -15.45 Q6.8 -8.15 6.45 -1.55 L6.3 0.45 6.1 2.65 5.85 2.5 4.65 1.75 4.45 1.65 4.45 0.7 4.55 -1.35" fill="#5c4730" fill-rule="evenodd" stroke="none"/>
    <path d="M6.1 2.65 L6.3 0.45 6.45 -1.55 Q6.8 -8.15 6.35 -15.45 L15.05 -16.25 14.65 -1.05 14.55 1.0 14.5 2.55 14.45 2.55 9.8 3.1 9.75 3.1 6.25 2.7 6.2 2.7 6.1 2.65" fill="#f1ba87" fill-rule="evenodd" stroke="none"/>
  </g>
</svg>
