<?xml version="1.0" encoding="UTF-8" standalone="no"?>
<svg xmlns:ffdec="https://www.free-decompiler.com/flash" xmlns:xlink="http://www.w3.org/1999/xlink" ffdec:objectType="shape" height="30.85px" width="41.2px" xmlns="http://www.w3.org/2000/svg">
  <g transform="matrix(1.0, 0.0, 0.0, 1.0, 19.0, 2.15)">
    <path d="M-15.85 18.9 Q-17.9 14.25 -19.0 12.4 L-18.6 12.05 -17.85 12.0 Q-9.85 14.8 -1.3 13.5 12.65 11.1 19.15 -1.5 L19.75 -2.0 20.1 -2.05 20.15 -2.05 20.3 -2.15 21.75 4.6 Q22.6 9.8 21.8 17.3 L21.55 17.9 21.35 18.3 Q12.3 30.6 -3.05 28.35 -11.1 27.05 -15.85 18.95 L-15.85 18.9 M20.15 7.9 L19.75 2.5 19.65 1.7 Q12.65 13.1 -0.95 15.45 L-1.0 15.45 Q-6.25 16.3 -11.3 15.6 L-12.05 15.45 -12.35 15.5 -12.75 15.4 -16.55 14.55 -15.4 15.95 -14.85 16.8 -14.15 17.9 -14.05 18.0 -13.35 19.15 -13.35 19.1 -13.15 19.05 -9.1 21.75 -6.35 21.05 -5.95 20.95 -3.85 20.5 -3.7 20.45 -2.8 20.45 -2.7 20.7 -2.75 20.95 -2.8 20.95 -7.75 22.5 -8.25 24.0 -8.25 24.1 -8.3 24.2 -8.3 24.25 -6.15 25.4 -2.75 26.4 -2.75 26.35 Q6.0 27.65 12.55 23.8 L12.6 23.85 12.3 24.1 13.0 23.55 13.3 23.35 17.1 20.15 17.7 19.55 19.75 17.1 19.8 17.05 19.8 17.0 20.05 17.0 20.1 16.2 Q19.15 15.4 18.6 15.4 16.35 15.4 14.6 16.2 L14.5 16.25 13.95 16.6 12.9 17.15 12.85 17.15 12.75 17.15 12.25 17.15 12.15 16.95 Q12.15 16.55 13.55 15.9 L14.0 15.7 14.05 15.7 14.55 15.5 15.5 15.15 15.6 15.1 15.75 15.05 18.9 13.8 Q19.65 12.7 20.2 11.05 L20.2 11.8 20.25 11.0 20.25 10.95 20.2 8.8 20.1 8.1 20.15 8.0 20.15 7.9 M-11.15 21.65 L-11.75 21.25 -11.6 21.45 -9.9 23.05 -8.45 24.15 -9.3 23.55 -9.35 23.1 Q-9.35 22.85 -11.15 21.65" fill="#682424" fill-rule="evenodd" stroke="none"/>
    <path d="M-14.15 17.9 L-14.85 16.8 -15.4 15.95 -16.55 14.55 -12.75 15.4 -12.35 15.5 -12.05 15.45 -11.3 15.6 Q-6.25 16.3 -1.0 15.45 L-0.95 15.45 Q12.65 13.1 19.65 1.7 L19.75 2.5 20.15 7.9 20.1 7.95 20.0 8.1 20.1 8.1 20.2 8.8 20.25 10.95 20.25 11.0 20.2 11.05 Q19.65 12.7 18.9 13.8 L15.75 15.05 15.6 15.1 15.5 15.15 14.55 15.5 14.05 15.7 14.0 15.7 13.8 15.7 13.55 15.9 Q12.15 16.55 12.15 16.95 L12.25 17.15 12.75 17.15 12.85 17.15 12.9 17.15 13.95 16.6 14.5 16.25 14.55 16.25 14.6 16.25 14.6 16.2 Q16.35 15.4 18.6 15.4 19.15 15.4 20.1 16.2 L20.05 17.0 19.8 17.0 19.8 17.05 19.75 17.1 17.7 19.55 17.1 20.15 Q16.9 16.9 14.3 16.9 L11.85 17.6 11.6 17.55 11.5 17.25 Q11.5 16.55 15.55 13.5 L16.5 11.9 Q15.1 12.95 13.3 13.75 L6.75 16.25 Q0.4 17.75 -3.35 17.75 L-11.85 17.0 -14.6 16.2 Q-11.05 20.5 -5.75 20.5 L-1.45 20.25 1.1 20.35 1.15 20.6 Q0.0 21.35 -3.65 22.9 -5.05 23.8 -5.55 25.6 L-6.15 25.4 -8.3 24.25 -8.3 24.2 -8.25 24.1 -8.25 24.05 -8.25 24.0 -7.75 22.5 -2.8 20.95 -2.75 20.95 -2.7 20.7 -2.8 20.45 -3.7 20.45 -3.85 20.5 -5.95 20.95 -6.35 21.05 -9.1 21.75 -13.15 19.05 -13.35 19.1 -13.35 19.15 -14.05 18.0 -14.1 17.9 -14.15 17.9" fill="#e5e5e5" fill-rule="evenodd" stroke="none"/>
    <path d="M20.15 7.9 L20.15 8.0 20.1 8.1 20.0 8.1 20.1 7.95 20.15 7.9 M14.0 15.7 L13.55 15.9 13.8 15.7 14.0 15.7 M17.1 20.15 L13.3 23.35 13.0 23.55 12.55 23.8 Q6.0 27.65 -2.75 26.35 L-2.75 26.4 -6.15 25.4 -5.55 25.6 Q-5.05 23.8 -3.65 22.9 0.0 21.35 1.15 20.6 L1.1 20.35 -1.45 20.25 -5.75 20.5 Q-11.05 20.5 -14.6 16.2 L-11.85 17.0 -3.35 17.75 Q0.4 17.75 6.75 16.25 L13.3 13.75 Q15.1 12.95 16.5 11.9 L15.55 13.5 Q11.5 16.55 11.5 17.25 L11.6 17.55 11.85 17.6 14.3 16.9 Q16.9 16.9 17.1 20.15 M14.55 16.25 L14.6 16.2 14.6 16.25 14.55 16.25" fill="#f9f9f9" fill-rule="evenodd" stroke="none"/>
    <path d="M-15.85 18.9 L-15.85 18.95 -15.85 18.9 M14.5 16.25 L14.6 16.2 14.55 16.25 14.5 16.25 M12.6 23.85 L12.55 23.8 13.0 23.55 12.6 23.85 M-14.05 18.0 L-14.15 17.9 -14.1 17.9 -14.05 18.0" fill="#463624" fill-rule="evenodd" stroke="none"/>
    <path d="M-8.25 24.1 L-8.25 24.0 -8.25 24.05 -8.25 24.1 M-11.15 21.65 Q-9.35 22.85 -9.35 23.1 L-9.3 23.55 -8.45 24.15 -9.9 23.05 -11.6 21.45 -11.75 21.25 -11.15 21.65" fill="#57352d" fill-rule="evenodd" stroke="none"/>
  </g>
</svg>
