<?xml version="1.0" encoding="UTF-8" standalone="no"?>
<svg xmlns:ffdec="https://www.free-decompiler.com/flash" xmlns:xlink="http://www.w3.org/1999/xlink" ffdec:objectType="shape" height="14.65px" width="27.85px" xmlns="http://www.w3.org/2000/svg">
  <g transform="matrix(1.0, 0.0, 0.0, 1.0, 7.05, -9.45)">
    <path d="M20.05 12.15 Q20.8 13.25 20.8 15.7 20.8 18.15 17.4 20.7 12.9 24.05 5.3 24.05 L0.7 23.95 0.65 23.95 -0.55 24.1 Q-7.45 24.1 -7.0 18.5 L-6.9 17.7 Q-6.25 14.75 -0.1 12.15 6.2 9.45 12.55 9.45 18.3 9.45 20.05 12.15 M4.6 17.5 L0.3 18.8 -2.45 20.4 -2.55 20.65 -3.6 21.95 -3.95 22.05 -3.7 22.15 -3.5 22.25 -2.55 22.65 Q9.2 23.8 14.55 20.65 18.9 18.1 18.9 15.35 18.9 11.2 11.3 11.2 3.5 11.2 -1.75 14.5 L-5.5 17.3 -4.8 18.25 -4.2 19.0 Q-2.4 17.3 3.3 17.05 L4.55 17.3 4.6 17.5" fill="#682424" fill-rule="evenodd" stroke="none"/>
    <path d="M4.6 17.5 L4.55 17.3 4.65 17.45 4.6 17.5 M-2.55 20.65 L-2.45 20.4 -2.45 20.45 -2.55 20.65" fill="#463624" fill-rule="evenodd" stroke="none"/>
    <path d="M-2.45 20.4 L0.3 18.8 4.6 17.5 4.65 17.45 4.55 17.3 3.3 17.05 Q-2.4 17.3 -4.2 19.0 L-4.8 18.25 -5.5 17.3 -1.75 14.5 Q3.5 11.2 11.3 11.2 18.9 11.2 18.9 15.35 18.9 18.1 14.55 20.65 9.2 23.8 -2.55 22.65 L-3.5 22.25 -3.7 22.15 -3.6 21.95 -2.55 20.65 -2.45 20.45 -2.45 20.4" fill="#e5e5e5" fill-rule="evenodd" stroke="none"/>
  </g>
</svg>
