<?xml version="1.0" encoding="UTF-8" standalone="no"?>
<svg xmlns:ffdec="https://www.free-decompiler.com/flash" xmlns:xlink="http://www.w3.org/1999/xlink" ffdec:objectType="shape" height="25.9px" width="35.65px" xmlns="http://www.w3.org/2000/svg">
  <g transform="matrix(1.0, 0.0, 0.0, 1.0, 12.25, -2.15)">
    <path d="M-4.5 11.9 Q-2.85 10.65 -0.75 9.3 7.1 4.2 12.55 4.2 17.85 4.2 20.45 8.5 L21.5 10.6 21.0 10.3 Q20.4 9.65 17.8 9.65 L16.3 9.7 Q1.3 15.3 -0.2 15.3 -0.7 15.3 -2.6 13.5 L-4.5 11.9" fill="#e5e5e5" fill-rule="evenodd" stroke="none"/>
    <path d="M21.9 12.15 Q20.6 12.15 20.2 11.55 19.85 10.95 17.6 10.95 13.95 10.95 7.35 13.7 0.8 16.45 -0.05 16.45 -1.9 16.45 -5.35 12.55 L-6.0 13.1 Q-7.75 14.5 -8.85 15.7 -6.4 17.5 -6.05 20.8 -5.9 22.7 -6.0 26.45 L0.55 26.7 Q7.0 26.7 11.55 25.6 L11.6 25.6 12.4 25.35 11.5 25.6 11.45 25.35 Q11.45 24.9 12.2 24.5 12.95 24.15 12.95 23.8 12.2 23.6 11.55 23.05 8.8 25.55 6.3 25.55 2.45 25.55 2.45 22.6 2.45 20.8 4.05 18.55 6.55 15.1 11.3 15.1 15.85 15.1 18.55 17.45 20.35 19.0 20.55 20.35 22.8 17.25 22.15 13.7 L22.0 12.2 21.9 11.7 22.0 12.15 21.9 12.15 M-4.5 11.9 L-2.6 13.5 Q-0.7 15.3 -0.2 15.3 1.3 15.3 16.3 9.7 L17.8 9.65 Q20.4 9.65 21.0 10.3 L21.5 10.6 20.45 8.5 Q17.85 4.2 12.55 4.2 7.1 4.2 -0.75 9.3 -2.85 10.65 -4.5 11.9 L-5.0 12.25 -4.5 11.9 M21.3 21.45 Q16.2 28.05 0.45 28.05 L-7.4 28.0 -7.55 27.75 Q-7.35 27.35 -7.5 27.05 L-7.35 25.7 -7.25 23.2 Q-7.25 16.7 -10.15 16.7 -10.7 16.7 -11.7 17.55 -12.25 17.35 -12.25 16.75 4.45 2.15 14.15 2.15 19.25 2.15 21.85 7.7 23.15 10.5 23.4 13.55 23.4 18.7 21.3 21.45 M3.9 21.1 L3.55 22.35 Q3.55 24.2 5.7 24.2 8.75 24.2 11.0 22.1 12.55 20.65 13.15 18.95 L13.55 18.8 13.9 19.15 13.6 20.6 12.85 21.8 12.75 21.9 12.9 21.85 13.25 21.85 13.55 21.9 15.2 22.7 15.3 22.85 15.45 23.15 15.45 23.25 15.55 23.95 15.45 24.25 15.65 24.15 17.25 23.3 19.7 21.35 19.15 20.65 18.3 18.9 Q16.55 16.35 11.3 16.35 5.45 16.35 3.9 21.1" fill="#682424" fill-rule="evenodd" stroke="none"/>
    <path d="M22.0 12.15 L21.9 12.15 22.0 12.15 M13.9 19.2 L14.1 19.15 14.15 18.5 14.15 19.85 13.8 20.6 13.8 20.25 13.9 19.2" fill="#463624" fill-rule="evenodd" stroke="none"/>
    <path d="M21.9 12.15 L22.0 12.15 22.0 12.2 22.15 13.7 Q22.8 17.25 20.55 20.35 20.35 19.0 18.55 17.45 15.85 15.1 11.3 15.1 6.55 15.1 4.05 18.55 2.45 20.8 2.45 22.6 2.45 25.55 6.3 25.55 8.8 25.55 11.55 23.05 12.2 23.6 12.95 23.8 12.95 24.15 12.2 24.5 11.45 24.9 11.45 25.35 L11.5 25.6 11.55 25.6 Q7.0 26.7 0.55 26.7 L-6.0 26.45 Q-5.9 22.7 -6.05 20.8 -6.4 17.5 -8.85 15.7 -7.75 14.5 -6.0 13.1 L-5.35 12.55 Q-1.9 16.45 -0.05 16.45 0.8 16.45 7.35 13.7 13.95 10.95 17.6 10.95 19.85 10.95 20.2 11.55 20.6 12.15 21.9 12.15" fill="#57352d" fill-rule="evenodd" stroke="none"/>
    <path d="M3.9 21.1 Q5.0 22.45 7.3 22.45 10.25 22.45 11.95 20.3 L13.65 18.1 Q16.8 18.1 17.3 22.7 L17.25 23.3 15.65 24.15 15.55 23.95 15.45 23.25 15.45 23.15 15.3 22.85 15.2 22.7 13.55 21.9 13.25 21.85 13.6 20.6 13.9 19.15 13.55 18.8 13.15 18.95 Q12.55 20.65 11.0 22.1 8.75 24.2 5.7 24.2 3.55 24.2 3.55 22.35 L3.9 21.1 M13.9 19.2 L13.8 20.25 13.8 20.6 14.15 19.85 14.15 18.5 14.1 19.15 13.9 19.2" fill="#a05345" fill-rule="evenodd" stroke="none"/>
    <path d="M17.25 23.3 L17.3 22.7 Q16.8 18.1 13.65 18.1 L11.95 20.3 Q10.25 22.45 7.3 22.45 5.0 22.45 3.9 21.1 5.45 16.35 11.3 16.35 16.55 16.35 18.3 18.9 L19.15 20.65 19.7 21.35 17.25 23.3 M13.6 20.6 L13.25 21.85 12.9 21.85 12.85 21.8 13.6 20.6" fill="#b45f50" fill-rule="evenodd" stroke="none"/>
  </g>
</svg>
