<?xml version="1.0" encoding="UTF-8" standalone="no"?>
<svg xmlns:ffdec="https://www.free-decompiler.com/flash" xmlns:xlink="http://www.w3.org/1999/xlink" ffdec:objectType="shape" height="21.1px" width="32.35px" xmlns="http://www.w3.org/2000/svg">
  <g transform="matrix(1.0, 0.0, 0.0, 1.0, 13.85, -5.6)">
    <path d="M18.0 5.7 Q18.9 5.8 18.2 5.8 L18.15 5.8 18.0 5.7" fill="#463624" fill-rule="evenodd" stroke="none"/>
    <path d="M18.0 5.7 L18.15 5.8 Q17.55 5.9 17.0 7.7 L16.95 7.85 16.9 8.0 17.15 7.9 17.3 8.7 Q17.3 13.7 14.8 18.2 10.1 26.7 -1.55 26.7 -5.7 26.7 -7.25 25.95 -9.35 24.95 -10.2 21.7 -10.7 19.85 -12.7 16.35 L-12.7 15.95 -12.55 15.9 -13.85 13.65 Q-4.15 16.95 5.6 13.65 12.35 11.2 17.2 5.8 L18.0 5.7 M16.0 9.6 Q14.55 11.4 10.9 13.9 5.45 17.6 -2.0 17.85 -7.9 18.0 -10.95 16.9 -10.2 18.05 -9.2 20.45 L-8.0 22.95 Q-7.7 23.6 -7.95 24.3 L-1.9 24.7 1.6 24.55 Q3.35 17.7 10.05 17.7 11.95 17.7 13.45 18.4 L13.05 18.95 14.35 16.65 Q15.25 14.5 15.8 10.8 L16.0 9.6 M3.65 21.7 Q3.05 22.75 2.7 24.4 9.4 23.45 12.65 19.5 10.65 18.8 10.1 18.8 5.35 18.8 3.65 21.7" fill="#682424" fill-rule="evenodd" stroke="none"/>
    <path d="M17.0 7.7 L17.15 7.9 16.9 8.0 16.95 7.85 17.0 7.7" fill="#463623" fill-rule="evenodd" stroke="none"/>
    <path d="M16.0 9.6 L15.8 10.8 Q15.25 14.5 14.35 16.65 L13.05 18.95 13.45 18.4 Q11.95 17.7 10.05 17.7 3.35 17.7 1.6 24.55 L-1.9 24.7 -7.95 24.3 Q-7.7 23.6 -8.0 22.95 L-9.2 20.45 Q-10.2 18.05 -10.95 16.9 -7.9 18.0 -2.0 17.85 5.45 17.6 10.9 13.9 14.55 11.4 16.0 9.6" fill="#57352d" fill-rule="evenodd" stroke="none"/>
    <path d="M3.65 21.7 Q5.35 18.8 10.1 18.8 10.65 18.8 12.65 19.5 9.4 23.45 2.7 24.4 3.05 22.75 3.65 21.7" fill="#b45f50" fill-rule="evenodd" stroke="none"/>
  </g>
</svg>
