<?xml version="1.0" encoding="UTF-8" standalone="no"?>
<svg xmlns:ffdec="https://www.free-decompiler.com/flash" xmlns:xlink="http://www.w3.org/1999/xlink" ffdec:objectType="shape" height="20.1px" width="32.35px" xmlns="http://www.w3.org/2000/svg">
  <g transform="matrix(1.0, 0.0, 0.0, 1.0, 14.6, -6.1)">
    <path d="M17.35 6.35 Q16.95 6.4 16.65 7.1 L16.8 8.25 Q16.8 10.05 15.3 17.35 14.2 23.1 -0.95 26.2 -9.1 26.2 -9.1 23.2 -9.1 22.3 -10.9 19.55 L-12.5 17.1 -13.1 16.75 -14.6 14.15 Q-4.9 17.45 4.85 14.15 11.6 11.7 16.45 6.3 L17.25 6.2 17.35 6.35 M15.4 9.8 Q12.65 12.7 8.25 14.8 3.85 16.85 -2.1 17.55 -8.15 18.25 -12.45 16.4 -9.85 18.85 -8.7 20.8 -8.4 21.3 -8.25 21.9 L-6.8 21.7 -2.45 21.95 Q-2.05 21.95 -1.95 22.25 L-2.4 22.35 -7.75 23.65 -2.0 24.2 Q4.5 24.2 9.9 21.5 15.3 18.75 14.8 15.5 14.3 12.3 15.4 9.8" fill="#682424" fill-rule="evenodd" stroke="none"/>
    <path d="M17.25 6.2 Q18.15 6.3 17.45 6.3 L17.35 6.35 17.25 6.2" fill="#463624" fill-rule="evenodd" stroke="none"/>
    <path d="M15.4 9.8 Q14.3 12.3 14.8 15.5 15.3 18.75 9.9 21.5 4.5 24.2 -2.0 24.2 L-7.75 23.65 -2.4 22.35 -1.95 22.25 Q-2.05 21.95 -2.45 21.95 L-6.8 21.7 -8.25 21.9 Q-8.4 21.3 -8.7 20.8 -9.85 18.85 -12.45 16.4 -8.15 18.25 -2.1 17.55 3.85 16.85 8.25 14.8 12.65 12.7 15.4 9.8" fill="#e5e5e5" fill-rule="evenodd" stroke="none"/>
  </g>
</svg>
