<?xml version="1.0" encoding="UTF-8" standalone="no"?>
<svg xmlns:ffdec="https://www.free-decompiler.com/flash" xmlns:xlink="http://www.w3.org/1999/xlink" ffdec:objectType="shape" height="16.6px" width="36.9px" xmlns="http://www.w3.org/2000/svg">
  <g transform="matrix(1.0, 0.0, 0.0, 1.0, 16.6, -3.35)">
    <path d="M15.25 3.45 Q16.15 3.55 15.45 3.55 L15.35 3.6 15.25 3.45" fill="#463624" fill-rule="evenodd" stroke="none"/>
    <path d="M15.35 3.6 L15.0 3.8 Q19.75 3.85 20.3 11.05 17.25 20.15 12.25 19.95 L1.25 18.45 Q-4.45 17.25 -7.95 15.6 -12.85 15.4 -15.1 14.0 L-16.6 11.4 Q-6.9 14.7 2.85 11.4 9.6 8.95 14.45 3.55 L15.25 3.45 15.35 3.6 M18.3 10.9 L18.3 10.8 Q18.3 7.85 13.65 6.85 12.3 8.8 8.15 11.65 4.2 14.3 -0.8 15.2 L3.05 16.1 9.3 17.4 10.45 17.85 Q10.35 17.7 10.6 16.25 10.8 14.8 11.95 12.5 13.1 10.15 14.8 10.2 16.5 10.2 17.8 10.7 L18.3 10.9 M17.9 12.3 L18.05 11.9 17.85 12.3 14.3 12.05 Q13.05 12.05 12.2 14.7 11.5 16.75 11.85 18.05 12.15 17.7 13.6 17.7 14.95 17.7 16.7 14.55 L17.9 12.3" fill="#682424" fill-rule="evenodd" stroke="none"/>
    <path d="M18.3 10.8 L18.3 10.9 17.8 10.7 Q16.5 10.2 14.8 10.2 13.1 10.15 11.95 12.5 10.8 14.8 10.6 16.25 10.35 17.7 10.45 17.85 L9.3 17.4 3.05 16.1 -0.8 15.2 Q4.2 14.3 8.15 11.65 12.3 8.8 13.65 6.85 18.3 7.85 18.3 10.8" fill="#57352d" fill-rule="evenodd" stroke="none"/>
    <path d="M17.85 12.3 L17.9 12.3 16.7 14.55 Q14.95 17.7 13.6 17.7 12.15 17.7 11.85 18.05 11.5 16.75 12.2 14.7 13.05 12.05 14.3 12.05 L17.85 12.3" fill="#b45f50" fill-rule="evenodd" stroke="none"/>
  </g>
</svg>
