<?xml version="1.0" encoding="UTF-8" standalone="no"?>
<svg xmlns:ffdec="https://www.free-decompiler.com/flash" xmlns:xlink="http://www.w3.org/1999/xlink" ffdec:objectType="shape" height="7.85px" width="23.45px" xmlns="http://www.w3.org/2000/svg">
  <g transform="matrix(1.0, 0.0, 0.0, 1.0, 9.5, -15.1)">
    <path d="M8.55 15.1 L11.3 15.4 Q14.05 16.1 13.95 19.45 13.95 22.2 11.9 22.2 L6.75 21.6 0.45 20.95 Q-2.7 20.95 -5.3 21.95 -7.9 22.95 -8.55 22.95 L-9.0 22.85 -9.2 22.35 Q-9.2 21.7 -5.4 20.8 L-5.0 20.7 Q-5.95 19.8 -5.95 17.65 L-9.35 18.95 Q-9.5 19.35 -9.5 18.7 -9.5 17.95 -5.3 16.95 L-5.75 17.05 Q-5.25 16.5 -3.5 16.25 L0.9 15.8 3.95 15.5 6.8 15.2 8.55 15.1 M11.9 16.8 L11.45 16.55 11.15 16.6 8.6 16.35 Q-1.9 16.35 -4.75 17.7 -4.2 18.8 -4.2 19.6 L-4.2 20.55 Q-1.2 19.85 0.95 19.85 L4.45 20.15 Q4.55 19.0 6.3 17.85 8.25 16.6 10.8 16.6 L11.85 16.8 12.2 17.05 11.9 16.8 M5.8 20.35 L6.55 20.5 12.45 21.1 Q13.05 21.1 13.05 19.5 13.05 18.3 12.6 17.55 11.9 18.15 10.35 18.15 8.4 18.1 7.8 18.55 6.75 19.25 6.7 19.95 6.65 20.3 5.85 20.3 L5.8 20.35" fill="#682424" fill-rule="evenodd" stroke="none"/>
    <path d="M11.85 16.8 L10.8 16.6 Q8.25 16.6 6.3 17.85 4.55 19.0 4.45 20.15 L0.95 19.85 Q-1.2 19.85 -4.2 20.55 L-4.2 19.6 Q-4.2 18.8 -4.75 17.7 -1.9 16.35 8.6 16.35 L11.15 16.6 11.45 16.55 11.9 16.8 11.85 16.8" fill="#57352d" fill-rule="evenodd" stroke="none"/>
    <path d="M5.8 20.35 L5.85 20.3 Q6.65 20.3 6.7 19.95 6.75 19.25 7.8 18.55 8.4 18.1 10.35 18.15 11.9 18.15 12.6 17.55 13.05 18.3 13.05 19.5 13.05 21.1 12.45 21.1 L6.55 20.5 5.8 20.35" fill="#b45f50" fill-rule="evenodd" stroke="none"/>
  </g>
</svg>
