<?xml version="1.0" encoding="UTF-8" standalone="no"?>
<svg xmlns:ffdec="https://www.free-decompiler.com/flash" xmlns:xlink="http://www.w3.org/1999/xlink" ffdec:objectType="shape" height="169.4px" width="84.4px" xmlns="http://www.w3.org/2000/svg">
  <g transform="matrix(1.0, 0.0, 0.0, 1.0, 39.6, 136.55)">
    <path d="M-27.8 -53.8 L-27.3 -54.25 -27.2 -54.35 Q-25.8 -56.1 -24.35 -59.35 -21.45 -66.1 -18.45 -79.65 L-18.0 -79.85 Q-17.2 -80.4 -16.9 -81.25 L-15.85 -85.45 -15.8 -85.85 -14.95 -86.7 -14.95 -86.75 -14.45 -87.25 -14.45 -87.2 Q-10.65 -90.6 -9.05 -94.6 -7.2 -99.25 -6.85 -104.95 L-6.85 -105.0 -6.7 -107.0 -6.7 -107.05 -6.0 -116.85 Q-5.2 -122.75 2.05 -127.45 5.15 -129.45 8.5 -130.25 L4.15 -124.75 Q1.85 -121.7 0.5 -118.35 -1.95 -112.35 -1.1 -106.0 L-0.75 -102.35 Q-0.65 -99.55 -0.15 -96.85 0.0 -96.1 0.7 -96.05 1.1 -96.25 1.4 -96.6 2.3 -97.5 3.3 -98.1 L4.55 -98.65 Q6.35 -98.7 7.6 -97.25 8.45 -96.25 8.05 -94.95 L7.4 -93.7 Q6.45 -92.6 6.05 -91.2 L5.5 -88.7 5.2 -85.65 Q4.9 -81.9 6.2 -78.25 6.6 -77.25 7.4 -77.25 8.25 -77.55 8.65 -78.45 10.15 -81.5 13.6 -81.2 15.8 -80.9 17.65 -79.7 20.85 -77.7 21.05 -74.15 21.1 -72.7 20.1 -71.65 19.2 -70.7 18.0 -70.25 L14.7 -69.4 3.25 -69.0 -10.85 -69.85 Q-13.2 -70.0 -15.65 -69.75 -16.25 -69.8 -16.6 -69.15 L-16.15 -68.45 -14.95 -67.45 Q-7.65 -62.65 1.1 -61.0 L20.9 -58.15 Q21.65 -58.25 22.3 -57.75 22.0 -57.45 21.45 -57.3 L19.15 -56.8 13.8 -56.35 Q6.45 -56.15 -0.95 -56.25 L-17.55 -55.5 Q-19.95 -55.3 -21.7 -53.75 L-21.7 -53.3 -21.5 -52.8 -21.3 -52.5 Q-20.25 -51.15 -18.65 -50.55 L-17.05 -50.1 -9.35 -49.65 0.3 -50.65 9.2 -51.3 10.65 -50.85 11.45 -50.25 Q12.6 -48.4 11.05 -46.75 9.05 -44.55 6.2 -43.7 1.9 -42.45 -2.6 -41.9 L-10.45 -41.25 -19.65 -41.55 -27.15 -42.65 -27.4 -42.7 -28.9 -43.25 Q-30.05 -43.7 -30.7 -44.55 -31.1 -46.35 -29.9 -48.15 L-29.6 -48.65 Q-28.1 -50.7 -23.9 -54.6 L-23.85 -54.65 Q-22.5 -56.35 -21.1 -59.55 -17.95 -66.8 -14.75 -81.9 L-12.55 -87.35 Q-15.65 -82.7 -15.75 -82.1 -18.95 -67.1 -22.0 -59.95 -23.3 -56.95 -24.6 -55.3 L-24.6 -55.35 -29.9 -49.85 -27.9 -53.65 -27.8 -53.8 M23.2 -23.15 L26.85 -22.65 Q31.8 -21.5 26.7 -18.4 L23.9 -16.65 23.2 -23.15 M24.45 -2.1 Q26.6 -1.0 28.25 0.6 31.1 3.35 31.35 6.3 31.6 9.55 27.7 15.9 25.75 18.95 21.7 20.7 24.3 10.45 24.45 -2.1 M14.8 22.5 L10.7 22.9 Q-2.4 23.55 -9.15 21.3 -15.95 19.05 -23.75 8.2 -31.6 -2.65 -31.3 -14.5 -31.05 -26.4 -29.8 -28.65 -16.6 -23.2 2.65 -23.5 11.2 -23.65 17.0 -23.45 L17.95 -12.7 12.45 -8.6 Q4.65 -2.25 12.45 -3.9 L18.2 -4.05 Q18.2 11.05 14.8 22.5" fill="#593924" fill-rule="evenodd" stroke="none"/>
    <path d="M0.1 -131.6 L2.45 -132.35 Q5.25 -133.0 7.25 -132.0 4.0 -131.1 1.0 -129.15 L0.95 -129.15 Q-7.2 -123.85 -8.0 -117.15 L-8.7 -107.2 -8.85 -105.1 -9.0 -103.25 Q-12.35 -93.8 -15.0 -92.95 -17.9 -91.9 -16.3 -99.3 -14.7 -106.7 -11.45 -115.35 -8.25 -124.0 -5.95 -126.3 L0.1 -131.6 M14.8 22.5 Q18.2 11.05 18.2 -4.05 L21.25 -3.4 Q22.95 -2.85 24.45 -2.1 24.3 10.45 21.7 20.7 18.8 21.95 14.8 22.5 M17.95 -12.7 L17.0 -23.45 23.2 -23.15 23.9 -16.65 17.95 -12.7 M-17.75 -87.35 L-17.35 -87.15 -16.95 -86.75 Q-16.7 -86.25 -16.8 -85.7 L-17.85 -81.5 -18.2 -80.95 -18.5 -80.7 -19.45 -80.55 -19.6 -80.6 -20.15 -80.9 -20.35 -81.2 Q-20.65 -81.7 -20.5 -82.2 L-19.45 -86.35 -19.45 -86.4 -18.85 -87.2 -18.15 -87.4 -17.85 -87.35 -17.75 -87.35 M-18.4 -82.55 L-18.6 -83.2 Q-18.8 -83.45 -19.05 -83.45 L-19.5 -83.2 -19.7 -82.55 -19.5 -81.95 -19.05 -81.65 -18.6 -81.95 -18.4 -82.55" fill="#cccccc" fill-rule="evenodd" stroke="none"/>
    <path d="M8.5 -130.25 L9.55 -130.5 9.95 -130.6 10.35 -130.9 10.5 -131.45 10.4 -131.95 10.1 -132.3 9.85 -132.55 Q11.6 -131.9 13.9 -128.8 L18.9 -121.7 Q21.45 -118.0 22.2 -115.3 L22.2 -115.35 Q22.9 -112.65 22.7 -109.15 22.5 -105.7 25.5 -102.75 26.35 -99.8 27.0 -95.25 27.65 -90.75 29.25 -87.15 L31.95 -80.25 34.15 -73.55 Q35.25 -70.0 33.15 -59.55 31.0 -49.2 40.9 -53.0 L41.9 -51.5 Q43.75 -48.15 42.2 -44.4 L42.2 -44.55 Q42.3 -45.35 41.8 -44.4 41.45 -43.75 40.5 -43.35 L39.45 -43.1 35.8 -42.3 27.6 -40.35 20.6 -38.95 14.8 -38.1 2.4 -37.0 Q-12.8 -36.15 -24.35 -38.6 L-29.25 -39.9 Q-31.8 -40.7 -33.3 -41.55 L-33.65 -42.35 Q-34.9 -45.65 -32.95 -48.35 L-32.9 -48.35 Q-31.55 -50.3 -27.8 -53.8 L-27.9 -53.65 -29.9 -49.85 -24.6 -55.35 -24.6 -55.3 Q-23.3 -56.95 -22.0 -59.95 -18.95 -67.1 -15.75 -82.1 -15.65 -82.7 -12.55 -87.35 L-14.75 -81.9 Q-17.95 -66.8 -21.1 -59.55 -22.5 -56.35 -23.85 -54.65 L-23.9 -54.6 Q-28.1 -50.7 -29.6 -48.65 L-29.9 -48.15 Q-31.1 -46.35 -30.7 -44.55 -30.05 -43.7 -28.9 -43.25 L-27.4 -42.7 -27.15 -42.65 -19.65 -41.55 -10.45 -41.25 -2.6 -41.9 Q1.9 -42.45 6.2 -43.7 9.05 -44.55 11.05 -46.75 12.6 -48.4 11.45 -50.25 L10.65 -50.85 9.2 -51.3 0.3 -50.65 -9.35 -49.65 -17.05 -50.1 -18.65 -50.55 Q-20.25 -51.15 -21.3 -52.5 L-21.5 -52.8 -21.7 -53.3 -21.7 -53.75 Q-19.95 -55.3 -17.55 -55.5 L-0.95 -56.25 Q6.45 -56.15 13.8 -56.35 L19.15 -56.8 21.45 -57.3 Q22.0 -57.45 22.3 -57.75 21.65 -58.25 20.9 -58.15 L1.1 -61.0 Q-7.65 -62.65 -14.95 -67.45 L-16.15 -68.45 -16.6 -69.15 Q-16.25 -69.8 -15.65 -69.75 -13.2 -70.0 -10.85 -69.85 L3.25 -69.0 14.7 -69.4 18.0 -70.25 Q19.2 -70.7 20.1 -71.65 21.1 -72.7 21.05 -74.15 20.85 -77.7 17.65 -79.7 15.8 -80.9 13.6 -81.2 10.15 -81.5 8.65 -78.45 8.25 -77.55 7.4 -77.25 6.6 -77.25 6.2 -78.25 4.9 -81.9 5.2 -85.65 L5.5 -88.7 6.05 -91.2 Q6.45 -92.6 7.4 -93.7 L8.05 -94.95 Q8.45 -96.25 7.6 -97.25 6.35 -98.7 4.55 -98.65 L3.3 -98.1 Q2.3 -97.5 1.4 -96.6 1.1 -96.25 0.7 -96.05 0.0 -96.1 -0.15 -96.85 -0.65 -99.55 -0.75 -102.35 L-1.1 -106.0 Q-1.95 -112.35 0.5 -118.35 1.85 -121.7 4.15 -124.75 L8.5 -130.25 M-20.35 -79.85 L-21.3 -74.4 Q-22.8 -65.9 -25.05 -61.25 -27.35 -56.6 -28.75 -55.6 -33.05 -51.7 -34.55 -49.55 L-34.55 -49.5 Q-36.15 -47.35 -36.15 -44.9 -37.55 -45.75 -37.6 -47.55 -37.65 -50.1 -35.6 -54.3 -31.2 -63.4 -30.2 -66.9 L-30.15 -66.95 -28.4 -73.7 -26.8 -80.35 -25.05 -86.95 -25.05 -87.0 -23.25 -93.7 -23.2 -93.7 -21.3 -100.5 -21.35 -100.5 -19.3 -107.4 Q-17.9 -112.0 -15.95 -116.6 L-13.2 -122.15 -15.6 -116.45 Q-18.5 -108.45 -19.85 -100.2 -20.95 -93.85 -20.15 -87.35 L-20.45 -86.6 -20.4 -86.6 -21.45 -82.45 Q-21.75 -81.5 -21.2 -80.7 L-20.35 -79.85 M31.3 -33.6 L21.9 -32.1 15.9 -31.55 3.5 -31.15 Q-12.75 -31.15 -24.3 -33.6 -28.85 -34.6 -31.55 -35.7 -33.7 -36.65 -34.65 -37.6 L-34.6 -37.55 -35.05 -38.3 -35.1 -38.65 -35.1 -40.35 -35.05 -40.35 -34.6 -40.0 -34.55 -39.95 Q-33.0 -39.0 -30.3 -38.15 L-24.75 -36.65 Q-13.0 -34.15 3.5 -34.15 L15.4 -34.5 21.35 -35.0 31.7 -36.65 36.9 -38.0 Q39.95 -39.0 41.7 -40.1 L41.95 -40.25 41.95 -39.45 41.95 -39.3 41.95 -38.05 41.65 -37.6 41.7 -37.65 Q40.55 -36.4 37.4 -35.25 34.95 -34.4 31.3 -33.6 M22.2 -30.1 Q27.3 -30.7 31.7 -31.65 L37.7 -33.25 Q38.5 -27.35 38.8 -19.1 39.85 8.0 32.45 16.2 25.0 24.35 19.65 27.4 L21.7 20.7 Q25.75 18.95 27.7 15.9 31.6 9.55 31.35 6.3 31.1 3.35 28.25 0.6 26.6 -1.0 24.45 -2.1 24.55 -9.0 23.9 -16.65 L26.7 -18.4 Q31.8 -21.5 26.85 -22.65 L23.2 -23.15 22.2 -30.1 M12.05 30.0 L11.4 30.15 -2.5 30.8 Q-12.55 30.7 -24.0 17.25 -35.45 3.75 -35.25 -16.1 -35.15 -26.45 -32.3 -33.85 -29.45 -32.7 -24.75 -31.65 -13.0 -29.15 3.5 -29.15 L16.2 -29.55 17.0 -23.45 Q11.2 -23.65 2.65 -23.5 -16.6 -23.2 -29.8 -28.65 -31.05 -26.4 -31.3 -14.5 -31.6 -2.65 -23.75 8.2 -15.95 19.05 -9.15 21.3 -2.4 23.55 10.7 22.9 L14.8 22.5 Q13.65 26.45 12.05 30.0 M18.2 -4.05 L12.45 -3.9 Q4.65 -2.25 12.45 -8.6 L17.95 -12.7 18.2 -4.05" fill="#432b1b" fill-rule="evenodd" stroke="none"/>
    <path d="M-18.25 -88.4 Q-18.9 -94.2 -17.9 -99.85 -16.6 -107.95 -13.7 -115.75 -10.9 -123.35 -8.75 -125.6 -6.55 -127.8 -3.7 -129.7 L-3.6 -129.75 0.1 -131.6 -5.95 -126.3 Q-8.25 -124.0 -11.45 -115.35 -14.7 -106.7 -16.3 -99.3 -17.9 -91.9 -15.0 -92.95 -12.35 -93.8 -9.0 -103.25 -9.5 -98.95 -10.9 -95.35 -12.35 -91.8 -15.8 -88.7 L-15.85 -88.65 -16.35 -88.15 -16.65 -87.85 -17.55 -88.3 -17.7 -88.35 -18.25 -88.4 M19.65 27.4 L18.75 27.8 Q15.5 29.2 12.05 30.0 13.65 26.45 14.8 22.5 18.8 21.95 21.7 20.7 L19.65 27.4 M16.2 -29.55 L22.2 -30.1 23.2 -23.15 17.0 -23.45 16.2 -29.55 M23.9 -16.65 Q24.55 -9.0 24.45 -2.1 22.95 -2.85 21.25 -3.4 L18.2 -4.05 17.95 -12.7 23.9 -16.65" fill="#888888" fill-rule="evenodd" stroke="none"/>
    <path d="M1.1 -136.35 L1.15 -136.35 Q5.95 -137.0 9.6 -135.7 13.25 -134.5 16.75 -130.4 20.05 -126.45 21.75 -122.5 23.35 -118.7 24.15 -115.85 L25.9 -109.1 27.45 -103.3 27.4 -103.3 29.15 -97.25 31.85 -87.7 33.9 -81.05 36.05 -74.15 38.4 -65.0 Q39.5 -59.75 42.65 -54.25 L42.65 -54.2 Q46.0 -48.2 44.1 -43.75 L44.1 -43.65 43.95 -42.7 43.95 -39.6 44.1 -38.65 43.95 -37.65 43.85 -37.4 43.25 -36.35 43.2 -36.35 42.7 -35.85 Q44.0 -29.2 44.0 -19.7 44.0 9.1 32.05 20.9 26.35 26.6 19.55 29.65 15.8 31.25 11.75 32.1 L3.35 32.85 Q-13.5 32.85 -25.15 19.5 -36.8 6.3 -37.0 -19.6 -37.05 -29.05 -35.65 -35.75 L-36.15 -36.25 -36.15 -36.3 Q-37.15 -37.5 -37.1 -38.65 L-37.1 -43.1 Q-39.5 -44.45 -39.6 -47.5 -39.75 -50.45 -37.4 -55.2 L-37.4 -55.15 Q-33.1 -64.0 -32.1 -67.45 L-30.35 -74.2 -28.75 -80.8 -28.75 -80.85 -27.0 -87.5 -25.15 -94.25 -23.25 -101.05 -21.2 -108.0 Q-19.8 -112.7 -17.8 -117.35 L-17.8 -117.4 Q-16.15 -121.25 -13.95 -124.9 -11.55 -129.1 -7.95 -132.2 -4.05 -135.6 1.1 -136.35 M-27.8 -53.8 Q-31.55 -50.3 -32.9 -48.35 L-32.95 -48.35 Q-34.9 -45.65 -33.65 -42.35 L-33.3 -41.55 Q-31.8 -40.7 -29.25 -39.9 L-24.35 -38.6 Q-12.8 -36.15 2.4 -37.0 L14.8 -38.1 20.6 -38.95 27.6 -40.35 35.8 -42.3 39.45 -43.1 40.5 -43.35 Q41.45 -43.75 41.8 -44.4 42.3 -45.35 42.2 -44.55 L42.2 -44.4 Q43.75 -48.15 41.9 -51.5 L40.9 -53.0 Q31.0 -49.2 33.15 -59.55 35.25 -70.0 34.15 -73.55 L31.95 -80.25 29.25 -87.15 Q27.65 -90.75 27.0 -95.25 26.35 -99.8 25.5 -102.75 22.5 -105.7 22.7 -109.15 22.9 -112.65 22.2 -115.35 L22.2 -115.3 Q21.45 -118.0 18.9 -121.7 L13.9 -128.8 Q11.6 -131.9 9.85 -132.55 L10.1 -132.3 10.4 -131.95 10.5 -131.45 10.35 -130.9 9.95 -130.6 9.55 -130.5 8.5 -130.25 Q5.15 -129.45 2.05 -127.45 -5.2 -122.75 -6.0 -116.85 L-6.7 -107.05 -6.7 -107.0 -6.85 -105.0 -6.85 -104.95 Q-7.2 -99.25 -9.05 -94.6 -10.65 -90.6 -14.45 -87.2 L-14.45 -87.25 -14.95 -86.75 -14.95 -86.7 -15.8 -85.85 Q-15.7 -86.6 -16.1 -87.25 L-16.65 -87.85 -16.35 -88.15 -15.85 -88.65 -15.8 -88.7 Q-12.35 -91.8 -10.9 -95.35 -9.5 -98.95 -9.0 -103.25 L-8.85 -105.1 -8.7 -107.2 -8.0 -117.15 Q-7.2 -123.85 0.95 -129.15 L1.0 -129.15 Q4.0 -131.1 7.25 -132.0 5.25 -133.0 2.45 -132.35 L0.1 -131.6 -3.6 -129.75 -3.7 -129.7 Q-6.55 -127.8 -8.75 -125.6 -10.9 -123.35 -13.7 -115.75 -16.6 -107.95 -17.9 -99.85 -18.9 -94.2 -18.25 -88.4 L-19.35 -88.05 Q-19.85 -87.8 -20.15 -87.35 -20.95 -93.85 -19.85 -100.2 -18.5 -108.45 -15.6 -116.45 L-13.2 -122.15 -15.95 -116.6 Q-17.9 -112.0 -19.3 -107.4 L-21.35 -100.5 -21.3 -100.5 -23.2 -93.7 -23.25 -93.7 -25.05 -87.0 -25.05 -86.95 -26.8 -80.35 -28.4 -73.7 -30.15 -66.95 -30.2 -66.9 Q-31.2 -63.4 -35.6 -54.3 -37.65 -50.1 -37.6 -47.55 -37.55 -45.75 -36.15 -44.9 -36.15 -47.35 -34.55 -49.5 L-34.55 -49.55 Q-33.05 -51.7 -28.75 -55.6 -27.35 -56.6 -25.05 -61.25 -22.8 -65.9 -21.3 -74.4 L-20.35 -79.85 -19.75 -79.6 -19.65 -79.6 -18.45 -79.65 Q-21.45 -66.1 -24.35 -59.35 -25.8 -56.1 -27.2 -54.35 L-27.3 -54.25 -27.8 -53.8 M19.65 27.4 Q25.0 24.35 32.45 16.2 39.85 8.0 38.8 -19.1 38.5 -27.35 37.7 -33.25 L31.7 -31.65 Q27.3 -30.7 22.2 -30.1 L16.2 -29.55 3.5 -29.15 Q-13.0 -29.15 -24.75 -31.65 -29.45 -32.7 -32.3 -33.85 -35.15 -26.45 -35.25 -16.1 -35.45 3.75 -24.0 17.25 -12.55 30.7 -2.5 30.8 L11.4 30.15 12.05 30.0 Q15.5 29.2 18.75 27.8 L19.65 27.4 M31.3 -33.6 Q34.95 -34.4 37.4 -35.25 40.55 -36.4 41.7 -37.65 L41.65 -37.6 41.95 -38.05 41.95 -39.3 41.95 -39.45 41.95 -40.25 41.7 -40.1 Q39.95 -39.0 36.9 -38.0 L31.7 -36.65 21.35 -35.0 15.4 -34.5 3.5 -34.15 Q-13.0 -34.15 -24.75 -36.65 L-30.3 -38.15 Q-33.0 -39.0 -34.55 -39.95 L-34.6 -40.0 -35.05 -40.35 -35.1 -40.35 -35.1 -38.65 -35.05 -38.3 -34.6 -37.55 -34.65 -37.6 Q-33.7 -36.65 -31.55 -35.7 -28.85 -34.6 -24.3 -33.6 -12.75 -31.15 3.5 -31.15 L15.9 -31.55 21.9 -32.1 31.3 -33.6" fill="#332115" fill-rule="evenodd" stroke="none"/>
    <path d="M-18.45 -79.65 L-19.65 -79.6 -19.75 -79.6 -20.35 -79.85 -21.2 -80.7 Q-21.75 -81.5 -21.45 -82.45 L-20.4 -86.6 -20.45 -86.6 -20.15 -87.35 Q-19.85 -87.8 -19.35 -88.05 L-18.25 -88.4 -17.7 -88.35 -17.55 -88.3 -16.65 -87.85 -16.1 -87.25 Q-15.7 -86.6 -15.8 -85.85 L-15.85 -85.45 -16.9 -81.25 Q-17.2 -80.4 -18.0 -79.85 L-18.45 -79.65 M-17.75 -87.35 L-17.85 -87.35 -18.15 -87.4 -18.85 -87.2 -19.45 -86.4 -19.45 -86.35 -20.5 -82.2 Q-20.65 -81.7 -20.35 -81.2 L-20.15 -80.9 -19.6 -80.6 -19.45 -80.55 -18.5 -80.7 -18.2 -80.95 -17.85 -81.5 -16.8 -85.7 Q-16.7 -86.25 -16.95 -86.75 L-17.35 -87.15 -17.75 -87.35 M-18.4 -82.55 L-18.6 -81.95 -19.05 -81.65 -19.5 -81.95 -19.7 -82.55 -19.5 -83.2 -19.05 -83.45 Q-18.8 -83.45 -18.6 -83.2 L-18.4 -82.55" fill="#333333" fill-rule="evenodd" stroke="none"/>
  </g>
</svg>
