<?xml version="1.0" encoding="UTF-8" standalone="no"?>
<svg xmlns:ffdec="https://www.free-decompiler.com/flash" xmlns:xlink="http://www.w3.org/1999/xlink" ffdec:objectType="shape" height="16.05px" width="29.75px" xmlns="http://www.w3.org/2000/svg">
  <g transform="matrix(1.0, 0.0, 0.0, 1.0, 14.05, 5.35)">
    <path d="M9.75 -3.6 Q11.45 -3.65 12.7 -1.8 13.95 0.05 13.95 2.65 13.95 5.25 12.7 7.1 11.45 8.9 9.75 8.95 8.0 8.9 6.75 7.1 5.55 5.25 5.55 2.65 5.55 1.2 5.95 0.0 6.2 -1.0 6.75 -1.8 L7.65 -2.8 Q8.6 -3.65 9.75 -3.6 M-8.7 -1.95 Q-7.2 -1.95 -6.15 -0.35 -5.05 1.2 -5.05 3.5 -5.05 5.75 -6.15 7.35 -7.2 8.9 -8.7 8.95 -10.2 8.9 -11.25 7.35 -12.3 5.75 -12.3 3.5 -12.35 2.2 -12.0 1.2 L-11.25 -0.35 -10.5 -1.25 Q-9.7 -1.95 -8.7 -1.95 Z" fill="none" stroke="#000000" stroke-linecap="round" stroke-linejoin="round" stroke-width="3.5"/>
  </g>
</svg>
