<?xml version="1.0" encoding="UTF-8" standalone="no"?>
<svg xmlns:ffdec="https://www.free-decompiler.com/flash" xmlns:xlink="http://www.w3.org/1999/xlink" ffdec:objectType="shape" height="18.8px" width="79.95px" xmlns="http://www.w3.org/2000/svg">
  <g transform="matrix(1.0, 0.0, 0.0, 1.0, 24.55, 5.7)">
    <path d="M23.25 3.6 Q23.1 5.8 21.45 7.55 L21.4 7.6 Q19.6 9.7 16.8 9.8 L9.3 10.15 Q6.45 10.25 4.45 8.35 L4.45 8.3 Q2.4 6.45 2.25 3.65 2.15 0.85 4.0 -1.2 L4.0 -1.25 Q5.7 -3.05 8.1 -3.3 L8.2 -3.3 8.65 -3.35 8.7 -3.35 16.2 -3.7 Q18.95 -3.85 21.05 -1.95 L22.3 -0.45 22.3 -0.4 22.35 -0.35 22.5 -0.15 22.7 2.6 22.7 2.65 Q22.7 3.2 23.25 3.6 M-20.8 -0.25 Q-18.95 -2.3 -16.1 -2.4 L-8.6 -2.7 Q-5.8 -2.9 -3.75 -0.95 -1.65 0.95 -1.55 3.75 -1.45 6.45 -3.35 8.5 L-3.4 8.55 Q-5.2 10.65 -8.0 10.8 L-15.5 11.1 Q-18.35 11.2 -20.35 9.3 L-20.35 9.25 Q-22.4 7.4 -22.55 4.6 -22.65 1.8 -20.8 -0.3 L-20.8 -0.25" fill="#990000" fill-opacity="0.44313726" fill-rule="evenodd" stroke="none"/>
    <path d="M26.75 -0.2 L41.1 0.5 Q32.35 0.7 26.9 2.0 L26.75 -0.2" fill="#662c17" fill-rule="evenodd" stroke="none"/>
    <path d="M22.5 -0.15 L22.35 -0.35 22.3 -0.4 22.3 -0.45 21.05 -1.95 Q18.95 -3.85 16.2 -3.7 L8.7 -3.35 8.65 -3.35 8.2 -3.3 8.1 -3.3 Q5.7 -3.05 4.0 -1.25 L4.0 -1.2 Q2.15 0.85 2.25 3.65 2.4 6.45 4.45 8.3 L4.45 8.35 Q6.45 10.25 9.3 10.15 L16.8 9.8 Q19.6 9.7 21.4 7.6 L21.45 7.55 Q23.1 5.8 23.25 3.6 L23.5 3.75 Q24.05 4.1 24.9 4.1 L25.0 4.1 Q25.8 4.05 26.3 3.65 27.0 3.15 26.9 2.5 L26.9 2.0 Q32.35 0.7 41.1 0.5 L26.75 -0.2 26.65 -1.1 26.65 -1.15 Q26.6 -1.75 26.0 -2.15 37.85 -2.85 53.65 0.75 L53.7 0.75 53.85 0.8 54.05 0.9 54.3 1.15 54.45 1.75 55.4 6.85 55.25 7.55 54.65 8.0 53.95 7.9 Q53.55 7.7 53.45 7.3 52.2 3.5 49.7 2.55 33.0 2.0 25.2 4.55 L25.15 4.6 Q24.75 7.0 22.9 8.95 L22.9 8.9 Q20.5 11.6 16.9 11.8 L9.4 12.15 Q5.7 12.25 3.1 9.8 0.95 7.85 0.4 5.1 0.1 7.8 -1.9 9.9 L-1.9 9.85 Q-4.3 12.55 -7.9 12.8 L-15.4 13.1 Q-19.1 13.2 -21.7 10.75 -24.4 8.3 -24.55 4.7 -24.65 1.1 -22.3 -1.6 -19.85 -4.25 -16.2 -4.4 L-8.7 -4.7 Q-5.1 -4.9 -2.4 -2.4 L-2.4 -2.45 -1.55 -1.6 -2.5 -1.6 -2.8 -1.45 -3.0 -1.15 -2.9 -0.8 -1.5 1.35 -1.3 1.5 -1.1 1.55 0.15 1.55 0.3 2.3 0.45 1.55 1.6 1.55 1.9 1.5 2.05 1.25 3.1 -0.9 3.15 -1.2 2.95 -1.5 2.65 -1.6 1.8 -1.6 2.5 -2.55 2.55 -2.55 Q4.75 -4.95 7.9 -5.3 L7.85 -5.25 8.65 -5.35 16.1 -5.7 Q19.65 -5.85 22.4 -3.45 L22.4 -3.4 23.35 -2.35 23.05 -2.15 Q22.3 -1.7 22.4 -0.95 L22.5 -0.15 M-20.8 -0.25 L-20.8 -0.3 Q-22.65 1.8 -22.55 4.6 -22.4 7.4 -20.35 9.25 L-20.35 9.3 Q-18.35 11.2 -15.5 11.1 L-8.0 10.8 Q-5.2 10.65 -3.4 8.55 L-3.35 8.5 Q-1.45 6.45 -1.55 3.75 -1.65 0.95 -3.75 -0.95 -5.8 -2.9 -8.6 -2.7 L-16.1 -2.4 Q-18.95 -2.3 -20.8 -0.25" fill="#401d0f" fill-rule="evenodd" stroke="none"/>
    <path d="M22.5 -0.15 L22.4 -0.95 Q22.3 -1.7 23.05 -2.15 L23.35 -2.35 24.4 -2.6 24.45 -2.6 25.85 -2.25 25.8 -2.3 26.0 -2.15 Q26.6 -1.75 26.65 -1.15 L26.65 -1.1 26.75 -0.2 26.9 2.0 26.9 2.5 Q27.0 3.15 26.3 3.65 25.8 4.05 25.0 4.1 L24.9 4.1 Q24.05 4.1 23.5 3.75 L23.25 3.6 Q22.7 3.2 22.7 2.65 L22.7 2.6 22.5 -0.15 M1.8 -1.6 L2.65 -1.6 2.95 -1.5 3.15 -1.2 3.1 -0.9 2.05 1.25 1.9 1.5 1.6 1.55 0.45 1.55 0.15 1.55 -1.1 1.55 -1.3 1.5 -1.5 1.35 -2.9 -0.8 -3.0 -1.15 -2.8 -1.45 -2.5 -1.6 -1.55 -1.6 1.8 -1.6 M24.5 -1.6 L24.4 -1.6 23.6 -1.35 23.6 -1.3 23.4 -1.05 23.7 2.55 23.7 2.6 24.0 2.85 24.05 2.9 24.9 3.1 25.7 2.85 25.75 2.8 25.9 2.55 25.65 -1.05 25.3 -1.4 24.5 -1.6 M1.3 0.55 L1.85 -0.6 -1.55 -0.6 -0.8 0.55 1.3 0.55" fill="#8a5300" fill-rule="evenodd" stroke="none"/>
    <path d="M24.5 -1.6 L25.3 -1.4 25.65 -1.05 25.9 2.55 25.75 2.8 25.7 2.85 24.9 3.1 24.05 2.9 24.0 2.85 23.7 2.6 23.7 2.55 23.4 -1.05 23.6 -1.3 23.6 -1.35 24.4 -1.6 24.5 -1.6 M1.3 0.55 L-0.8 0.55 -1.55 -0.6 1.85 -0.6 1.3 0.55" fill="#fecb56" fill-rule="evenodd" stroke="none"/>
  </g>
</svg>
