<?xml version="1.0" encoding="UTF-8" standalone="no"?>
<svg xmlns:ffdec="https://www.free-decompiler.com/flash" xmlns:xlink="http://www.w3.org/1999/xlink" ffdec:objectType="shape" height="11.35px" width="29.75px" xmlns="http://www.w3.org/2000/svg">
  <g transform="matrix(1.0, 0.0, 0.0, 1.0, 14.05, 2.05)">
    <path d="M6.75 6.4 Q5.55 5.25 5.55 3.6 5.55 2.7 5.95 1.95 6.2 1.35 6.75 0.85 7.2 0.45 7.65 0.2 L9.75 -0.3 Q11.45 -0.3 12.7 0.85 13.95 1.95 13.95 3.6 13.95 5.25 12.7 6.4 11.45 7.5 9.75 7.55 8.0 7.5 6.75 6.4 M-5.05 4.15 Q-5.05 5.55 -6.15 6.55 -7.2 7.55 -8.7 7.55 -10.2 7.55 -11.25 6.55 -12.3 5.55 -12.3 4.15 -12.35 3.35 -12.0 2.7 L-11.25 1.75 -10.5 1.2 Q-9.7 0.75 -8.7 0.75 -7.2 0.75 -6.15 1.75 -5.05 2.7 -5.05 4.15 Z" fill="none" stroke="#000000" stroke-linecap="round" stroke-linejoin="round" stroke-width="3.5"/>
  </g>
</svg>
