<?xml version="1.0" encoding="UTF-8" standalone="no"?>
<svg xmlns:ffdec="https://www.free-decompiler.com/flash" xmlns:xlink="http://www.w3.org/1999/xlink" ffdec:objectType="shape" height="18.0px" width="32.15px" xmlns="http://www.w3.org/2000/svg">
  <g transform="matrix(1.0, 0.0, 0.0, 1.0, 15.6, 7.3)">
    <path d="M7.6 -4.65 Q8.65 -5.55 9.95 -5.55 11.95 -5.55 13.4 -3.45 14.8 -1.35 14.8 1.7 14.8 4.7 13.4 6.8 11.95 8.9 9.95 8.9 7.95 8.9 6.55 6.8 5.15 4.7 5.15 1.7 5.15 0.0 5.6 -1.4 5.9 -2.5 6.55 -3.45 L7.6 -4.65 M-11.75 -2.8 Q-10.8 -3.6 -9.65 -3.6 -7.95 -3.6 -6.75 -1.75 -5.5 0.05 -5.45 2.7 -5.5 5.3 -6.75 7.1 -7.95 8.95 -9.65 8.95 -11.4 8.95 -12.65 7.1 -13.85 5.3 -13.85 2.7 -13.85 1.25 -13.45 0.05 L-12.65 -1.75 -11.75 -2.8 Z" fill="none" stroke="#000000" stroke-linecap="round" stroke-linejoin="round" stroke-width="3.5"/>
  </g>
</svg>
