<?xml version="1.0" encoding="UTF-8" standalone="no"?>
<svg xmlns:ffdec="https://www.free-decompiler.com/flash" xmlns:xlink="http://www.w3.org/1999/xlink" ffdec:objectType="shape" height="15.35px" width="29.35px" xmlns="http://www.w3.org/2000/svg">
  <g transform="matrix(1.0, 0.0, 0.0, 1.0, 14.0, 4.65)">
    <path d="M7.05 -2.9 L7.05 -2.3 Q5.25 0.55 5.65 3.95 5.9 6.2 7.5 7.9 8.75 9.25 10.6 8.85 11.9 8.45 12.75 7.35 14.1 5.45 13.35 3.3 L12.4 1.5 11.65 0.5 Q9.7 -1.65 7.3 -2.85 L7.05 -2.9 M-5.55 -2.35 L-5.95 -2.4 -11.75 2.15 Q-12.6 3.35 -11.95 5.6 -11.6 7.15 -10.6 8.05 -9.1 9.55 -7.35 8.4 L-6.2 7.35 Q-5.2 6.15 -5.1 4.7 -4.95 1.9 -5.15 -0.65 -5.2 -1.35 -5.4 -2.05 L-5.55 -2.35 Z" fill="none" stroke="#000000" stroke-linecap="round" stroke-linejoin="round" stroke-width="3.5"/>
  </g>
</svg>
