<?xml version="1.0" encoding="UTF-8" standalone="no"?>
<svg xmlns:ffdec="https://www.free-decompiler.com/flash" xmlns:xlink="http://www.w3.org/1999/xlink" ffdec:objectType="shape" height="13.7px" width="29.75px" xmlns="http://www.w3.org/2000/svg">
  <g transform="matrix(1.0, 0.0, 0.0, 1.0, 14.05, 2.95)">
    <path d="M13.95 2.65 Q13.9 0.45 13.0 -1.2 L5.6 3.55 Q5.75 5.6 6.75 7.1 8.0 8.95 9.75 8.95 11.45 8.95 12.7 7.1 13.95 5.25 13.95 2.65 M4.65 4.15 L5.6 3.55 M-4.55 3.25 L-5.05 3.1 -5.0 3.55 Q-5.05 5.8 -6.1 7.35 -7.15 8.95 -8.65 9.0 -10.15 8.95 -11.25 7.35 -12.3 5.8 -12.3 3.55 -12.3 2.25 -11.95 1.25 L-11.8 0.85 -5.05 3.1" fill="none" stroke="#000000" stroke-linecap="round" stroke-linejoin="round" stroke-width="3.5"/>
  </g>
</svg>
