<?xml version="1.0" encoding="UTF-8" standalone="no"?>
<svg xmlns:ffdec="https://www.free-decompiler.com/flash" xmlns:xlink="http://www.w3.org/1999/xlink" ffdec:objectType="shape" height="16.0px" width="32.1px" xmlns="http://www.w3.org/2000/svg">
  <g transform="matrix(1.0, 0.0, 0.0, 1.0, 16.45, 5.35)">
    <path d="M-7.65 6.45 Q-7.0 5.5 -6.85 4.25 L-10.9 2.6 -10.95 3.55 Q-11.0 5.25 -10.15 6.45 -9.6 7.3 -8.85 7.4 -8.2 7.3 -7.65 6.5 L-7.65 6.45 M-16.3 -1.2 Q-16.1 -1.75 -15.55 -1.9 -15.05 -2.15 -14.55 -1.9 L-12.2 -0.85 -11.3 -0.75 -10.75 -0.25 -3.75 2.9 -3.65 3.45 -3.65 3.55 Q-3.7 6.3 -5.05 8.25 L-5.05 8.2 Q-6.6 10.6 -8.85 10.55 -11.2 10.6 -12.75 8.2 L-12.75 8.25 Q-14.1 6.3 -14.1 3.55 L-13.85 1.35 -16.3 -0.1 -16.35 -0.2 Q-16.55 -0.7 -16.3 -1.2" fill="#000000" fill-rule="evenodd" stroke="none"/>
    <path d="M12.65 -1.8 Q13.9 0.0 13.9 2.65 13.9 5.25 12.65 7.1 11.45 8.9 9.75 8.9 8.0 8.9 6.75 7.1 5.55 5.25 5.55 2.65 5.5 1.2 5.9 0.0 6.2 -1.0 6.75 -1.8 L7.65 -2.8 Q8.55 -3.65 9.75 -3.6 11.45 -3.65 12.65 -1.8 Z" fill="none" stroke="#000000" stroke-linecap="round" stroke-linejoin="round" stroke-width="3.5"/>
  </g>
</svg>
