<?xml version="1.0" encoding="UTF-8" standalone="no"?>
<svg xmlns:ffdec="https://www.free-decompiler.com/flash" xmlns:xlink="http://www.w3.org/1999/xlink" ffdec:objectType="shape" height="90.05px" width="90.05px" xmlns="http://www.w3.org/2000/svg">
  <g transform="matrix(1.0, 0.0, 0.0, 1.0, 37.0, 66.95)">
    <path d="M-21.45 -54.7 L-20.95 -54.05 -21.5 -54.65 -21.45 -54.7 M3.0 20.9 L2.9 21.8 3.0 20.9" fill="#724931" fill-rule="evenodd" stroke="none"/>
    <path d="M-23.55 -52.65 L-23.15 -53.1 -23.05 -52.95 -23.55 -52.65" fill="#edcda3" fill-rule="evenodd" stroke="none"/>
    <path d="M2.9 21.8 Q-1.5 21.35 -5.5 20.1 L3.0 20.9 2.9 21.8 M-23.15 -53.1 L-21.5 -54.65 -20.95 -54.05 -22.95 -53.0 -23.05 -52.95 -23.15 -53.1 -22.95 -53.0 -23.15 -53.1" fill="#db9c64" fill-rule="evenodd" stroke="none"/>
    <path d="M-12.2 17.3 Q-18.1 14.2 -23.15 9.15 -36.05 -3.75 -36.0 -21.95 -36.05 -37.3 -26.9 -48.9 L-23.55 -52.65 -23.05 -52.95 -22.95 -53.0 Q-15.9 -49.9 19.15 -50.6 L23.65 -46.75 26.5 -43.7 Q26.65 -37.8 27.3 -34.7 28.3 -30.0 32.15 -25.75 33.35 -24.4 34.9 -23.25 L35.0 -19.9 Q35.0 -4.15 23.65 7.0 12.3 18.1 -3.75 18.1 L-12.2 17.3" fill="#ce9255" fill-rule="evenodd" stroke="none"/>
    <path d="M-5.5 20.1 Q-9.0 18.95 -12.2 17.3 L-3.75 18.1 Q12.3 18.1 23.65 7.0 35.0 -4.15 35.0 -19.9 L34.9 -23.25 Q38.0 -20.9 42.2 -19.5 L44.2 -18.6 Q43.6 -2.65 32.15 8.8 20.1 20.85 3.0 20.9 L-5.5 20.1 M19.15 -50.6 L26.45 -50.8 Q26.4 -46.85 26.5 -43.7 L23.65 -46.75 19.15 -50.6" fill="#c18753" fill-rule="evenodd" stroke="none"/>
    <path d="M44.2 -18.6 Q48.65 -16.1 50.3 -9.35 L50.2 -9.05 Q47.2 1.1 39.1 9.15 26.2 22.05 8.0 22.1 L2.9 21.8 3.0 20.9 Q20.1 20.85 32.15 8.8 43.6 -2.65 44.2 -18.6 M26.5 -43.7 Q33.95 -34.8 34.9 -23.25 33.35 -24.4 32.15 -25.75 28.3 -30.0 27.3 -34.7 26.65 -37.8 26.5 -43.7 M-22.95 -53.0 L-20.95 -54.05 Q-13.15 -57.9 -3.75 -57.85 9.25 -57.85 19.15 -50.6 -15.9 -49.9 -22.95 -53.0" fill="#a76d4b" fill-rule="evenodd" stroke="none"/>
    <path d="M-20.95 -54.05 Q-10.55 -61.6 3.0 -61.6 20.1 -61.65 32.15 -49.55 44.25 -37.5 44.25 -20.35 L44.2 -18.6 42.2 -19.5 Q38.0 -20.9 34.9 -23.25 33.95 -34.8 26.5 -43.7 26.4 -46.85 26.45 -50.8 L19.15 -50.6 Q9.25 -57.85 -3.75 -57.85 -13.15 -57.9 -20.95 -54.05" fill="#986445" fill-rule="evenodd" stroke="none"/>
    <path d="M-21.45 -54.7 Q-9.05 -65.95 8.0 -65.95 26.2 -66.0 39.1 -53.1 52.0 -40.2 52.05 -21.95 52.0 -15.3 50.3 -9.35 48.65 -16.1 44.2 -18.6 L44.25 -20.35 Q44.25 -37.5 32.15 -49.55 20.1 -61.65 3.0 -61.6 -10.55 -61.6 -20.95 -54.05 L-21.45 -54.7" fill="#895a3f" fill-rule="evenodd" stroke="none"/>
    <path d="M50.3 -9.35 Q52.0 -15.3 52.05 -21.95 52.0 -40.2 39.1 -53.1 26.2 -66.0 8.0 -65.95 -9.05 -65.95 -21.45 -54.7 M50.2 -9.05 Q47.2 1.1 39.1 9.15 26.2 22.05 8.0 22.1 L2.9 21.8 Q-1.5 21.35 -5.5 20.1 -9.0 18.95 -12.2 17.3 -18.1 14.2 -23.15 9.15 -36.05 -3.75 -36.0 -21.95 -36.05 -37.3 -26.9 -48.9 L-23.55 -52.65 -23.15 -53.1 -21.5 -54.65" fill="none" stroke="#4b3121" stroke-linecap="round" stroke-linejoin="round" stroke-width="2.0"/>
    <path d="M-23.05 -52.95 L-23.55 -52.65" fill="none" stroke="#4b3121" stroke-linecap="round" stroke-linejoin="round" stroke-width="2.0"/>
    <path d="M50.3 -9.35 L50.2 -9.05 M-23.15 -53.1 L-22.95 -53.0" fill="none" stroke="#ff0000" stroke-linecap="round" stroke-linejoin="round" stroke-width="1.0"/>
  </g>
</svg>
