<?xml version="1.0" encoding="UTF-8" standalone="no"?>
<svg xmlns:ffdec="https://www.free-decompiler.com/flash" xmlns:xlink="http://www.w3.org/1999/xlink" ffdec:objectType="shape" height="61.35px" width="42.9px" xmlns="http://www.w3.org/2000/svg">
  <g transform="matrix(1.0, 0.0, 0.0, 1.0, 13.2, 10.4)">
    <path d="M-5.15 -7.4 L-5.6 -6.65 Q-5.85 -5.95 -5.5 -5.3 L23.65 48.75 Q21.35 49.4 19.0 47.95 17.2 46.95 15.95 45.15 L13.2 41.8 12.15 40.8 10.4 38.6 Q9.55 37.4 8.95 35.6 L9.0 35.45 -6.55 10.25 -9.55 3.65 Q-13.2 -2.0 -8.3 -6.9 -7.05 -8.15 -5.15 -7.4 M23.85 48.7 L25.75 47.65 25.4 47.95 25.35 48.0 23.85 48.7 M26.1 47.45 L26.15 47.4 26.1 47.45 M26.05 45.8 L-0.6 -3.7 Q4.3 1.8 11.65 14.9 24.95 38.5 26.05 45.8" fill="#593924" fill-rule="evenodd" stroke="none"/>
    <path d="M-0.6 -3.7 L-2.4 -6.95 Q-2.75 -7.6 -3.45 -7.8 L-4.75 -7.7 -5.15 -7.4 Q-7.05 -8.15 -8.3 -6.9 -13.2 -2.0 -9.55 3.65 L-6.55 10.25 -11.2 3.65 Q-13.9 -1.05 -9.75 -8.0 L-8.0 -8.6 -5.25 -9.55 Q-4.15 -9.85 -1.15 -8.9 1.8 -7.95 3.6 -4.3 L3.55 -4.35 19.75 26.95 Q22.45 31.05 24.5 35.45 26.3 39.25 27.5 43.3 28.2 45.6 26.5 47.15 L26.15 47.4 26.6 46.8 26.05 45.8 Q24.95 38.5 11.65 14.9 4.3 1.8 -0.6 -3.7" fill="#432b1b" fill-rule="evenodd" stroke="none"/>
    <path d="M-12.75 -3.2 Q-11.75 -7.2 -8.05 -9.15 L-7.65 -9.35 Q-4.25 -11.1 -0.4 -10.0 3.45 -8.85 5.35 -5.25 L24.65 31.5 25.35 33.15 25.85 34.2 26.1 34.7 26.65 35.55 Q28.55 38.85 29.5 42.85 30.5 47.25 26.5 49.65 L26.45 49.7 Q22.65 52.0 18.65 50.15 15.8 48.85 14.4 46.15 L13.5 45.5 Q14.15 45.95 13.0 44.45 L12.85 44.7 12.45 44.25 12.6 44.2 11.0 42.15 10.4 41.65 -11.9 4.15 Q-13.95 0.7 -12.75 -3.2 M23.65 48.75 L23.65 48.8 23.85 48.7 25.35 48.0 25.4 47.95 25.75 47.65 26.1 47.45 26.15 47.4 26.5 47.15 Q28.2 45.6 27.5 43.3 26.3 39.25 24.5 35.45 22.45 31.05 19.75 26.95 L3.55 -4.35 3.6 -4.3 Q1.8 -7.95 -1.15 -8.9 -4.15 -9.85 -5.25 -9.55 L-8.0 -8.6 -9.75 -8.0 Q-13.9 -1.05 -11.2 3.65 L-6.55 10.25 9.0 35.45 8.95 35.6 Q9.55 37.4 10.4 38.6 L12.15 40.8 13.2 41.8 15.95 45.15 Q17.2 46.95 19.0 47.95 21.35 49.4 23.65 48.75" fill="#332115" fill-rule="evenodd" stroke="none"/>
    <path d="M-5.15 -7.4 L-4.75 -7.7 -3.45 -7.8 Q-2.75 -7.6 -2.4 -6.95 L-0.6 -3.7 26.05 45.8 26.6 46.8 26.15 47.4 26.1 47.45 25.75 47.65 23.85 48.7 23.65 48.8 23.65 48.75 -5.5 -5.3 Q-5.85 -5.95 -5.6 -6.65 L-5.15 -7.4" fill="#cccccc" fill-rule="evenodd" stroke="none"/>
  </g>
</svg>
