<?xml version="1.0" encoding="UTF-8" standalone="no"?>
<svg xmlns:ffdec="https://www.free-decompiler.com/flash" xmlns:xlink="http://www.w3.org/1999/xlink" ffdec:objectType="shape" height="37.8px" width="40.0px" xmlns="http://www.w3.org/2000/svg">
  <g transform="matrix(1.0, 0.0, 0.0, 1.0, 12.65, 23.1)">
    <path d="M16.05 -6.45 Q12.75 -8.1 8.05 -8.1 3.35 -8.1 0.0 -6.45 -2.85 -5.05 -2.95 -3.1 -2.85 -1.15 0.0 0.25 3.35 1.9 8.05 1.9 12.75 1.9 16.05 0.25 18.95 -1.15 19.05 -3.1 18.95 -5.05 16.05 -6.45 M8.05 -10.1 Q13.25 -10.1 16.95 -8.25 21.15 -6.15 21.05 -3.1 21.15 -0.05 16.95 2.05 13.25 3.9 8.05 3.9 2.85 3.9 -0.9 2.05 -5.05 -0.05 -4.95 -3.1 -5.05 -6.15 -0.9 -8.25 2.85 -10.1 8.05 -10.1" fill="#332115" fill-rule="evenodd" stroke="none"/>
    <path d="M16.05 -6.45 Q18.95 -5.05 19.05 -3.1 18.95 -1.15 16.05 0.25 12.75 1.9 8.05 1.9 3.35 1.9 0.0 0.25 -2.85 -1.15 -2.95 -3.1 -2.85 -5.05 0.0 -6.45 3.35 -8.1 8.05 -8.1 12.75 -8.1 16.05 -6.45" fill="#a76d4b" fill-rule="evenodd" stroke="none"/>
    <path d="M17.15 -5.3 L17.15 -5.0 Q17.05 -4.6 16.75 -4.35 L16.0 -4.2 Q15.55 -4.3 15.35 -4.6 13.25 -7.4 6.9 -5.1 -0.05 -2.5 -6.1 12.7 L-6.6 13.2 -7.35 13.25 -7.9 12.8 -8.0 12.1 Q-5.05 -0.55 -12.45 -10.15 L-12.65 -10.6 -12.55 -11.15 -12.2 -11.55 Q-2.5 -18.6 12.6 -18.3 21.65 -18.1 25.0 -16.0 27.0 -14.75 27.3 -12.9 27.6 -11.15 26.2 -8.9 L25.6 -8.45 24.85 -8.6 24.55 -8.85 24.4 -9.2 Q24.3 -9.6 24.5 -9.95 25.4 -11.45 25.3 -12.6 25.1 -13.6 23.95 -14.3 20.85 -16.15 12.55 -16.3 -1.15 -16.6 -11.2 -10.75 -4.95 -3.25 -5.15 5.65 0.2 -4.95 6.25 -7.0 14.35 -9.9 17.0 -5.75 L17.15 -5.3" fill="#332115" fill-rule="evenodd" stroke="none"/>
    <path d="M17.15 -5.3 L17.0 -5.75 Q14.35 -9.9 6.25 -7.0 0.2 -4.95 -5.15 5.65 -4.95 -3.25 -11.2 -10.75 -1.15 -16.6 12.55 -16.3 20.85 -16.15 23.95 -14.3 25.1 -13.6 25.3 -12.6 25.4 -11.45 24.5 -9.95 24.3 -9.6 24.4 -9.2 L24.55 -8.85 Q20.45 -5.9 17.15 -5.3" fill="#9e9e9e" fill-rule="evenodd" stroke="none"/>
    <path d="M4.05 -2.85 L2.3 -2.85 2.3 -2.95 2.4 -5.1 Q2.65 -13.65 2.1 -20.9 2.05 -21.35 2.4 -21.65 2.7 -22.0 3.2 -22.0 L16.5 -23.1 17.2 -23.0 17.7 -22.6 17.1 -18.15 Q16.35 -14.0 16.3 -8.85 L16.25 -2.85 14.75 -2.85 14.85 -4.8 14.9 -5.5 15.35 -20.85 3.65 -20.0 3.9 -9.8 Q3.8 -7.55 4.0 -5.9 L4.05 -2.85" fill="#4b3121" fill-rule="evenodd" stroke="none"/>
    <path d="M4.05 -2.85 L4.0 -5.9 Q3.8 -7.55 3.9 -9.8 11.4 -9.85 14.9 -5.5 L14.85 -4.8 14.75 -2.85 4.05 -2.85" fill="#c18753" fill-rule="evenodd" stroke="none"/>
    <path d="M3.9 -9.8 L3.65 -20.0 15.35 -20.85 14.9 -5.5 Q11.4 -9.85 3.9 -9.8" fill="#a76d4b" fill-rule="evenodd" stroke="none"/>
    <path d="M22.25 -6.2 Q19.0 -4.4 16.25 -4.2 L13.55 -4.2 Q10.85 -4.2 4.55 2.35 -1.8 8.9 0.35 12.4 L14.3 5.0 Q14.3 -1.1 22.25 -6.2 M16.1 -6.2 Q19.85 -6.55 24.75 -10.25 L25.4 -10.45 26.05 -10.2 26.35 -9.55 26.2 -8.9 Q22.1 -2.3 20.6 1.95 L20.25 2.45 Q10.7 9.2 0.35 14.6 L-0.3 14.7 -0.9 14.3 Q-4.55 9.7 3.4 1.45 10.85 -6.4 16.1 -6.2" fill="#332115" fill-rule="evenodd" stroke="none"/>
    <path d="M22.25 -6.2 Q14.3 -1.1 14.3 5.0 L0.35 12.4 Q-1.8 8.9 4.55 2.35 10.85 -4.2 13.55 -4.2 L16.25 -4.2 Q19.0 -4.4 22.25 -6.2" fill="#432b1b" fill-rule="evenodd" stroke="none"/>
  </g>
</svg>
