<?xml version="1.0" encoding="UTF-8" standalone="no"?>
<svg xmlns:ffdec="https://www.free-decompiler.com/flash" xmlns:xlink="http://www.w3.org/1999/xlink" ffdec:objectType="shape" height="27.85px" width="41.45px" xmlns="http://www.w3.org/2000/svg">
  <g transform="matrix(1.0, 0.0, 0.0, 1.0, 21.4, 21.2)">
    <path d="M19.7 -21.2 L20.05 -14.35 Q20.1 -9.1 18.15 -1.8 L17.8 -1.25 17.55 -0.85 Q6.65 9.85 -8.1 5.25 L-8.1 5.2 Q-15.85 2.65 -19.3 -6.1 L-19.25 -6.1 Q-20.6 -11.0 -21.4 -13.05 L-20.95 -13.3 -20.2 -13.25 Q-12.75 -9.2 -4.1 -9.2 L-4.05 -9.15 Q10.05 -9.35 18.45 -20.75 18.7 -21.1 19.15 -21.15 L19.5 -21.15 19.55 -21.15 19.7 -21.2 M-14.35 -8.65 L-12.85 -6.5 -12.65 -6.45 Q-10.85 -5.3 -6.0 -4.55 -1.55 -3.85 4.25 -4.6 7.75 -5.1 10.8 -6.45 12.15 -7.1 15.4 -9.35 16.8 -10.0 17.95 -11.2 L18.45 -16.75 18.45 -17.5 Q9.75 -7.35 -4.05 -7.2 -9.45 -7.2 -14.35 -8.65 L-15.65 -9.05 -19.3 -10.55 Q-18.2 -8.75 -17.45 -6.8 L-17.4 -6.8 Q-14.4 1.0 -7.5 3.35 L-7.5 3.3 Q0.9 5.95 7.95 3.2 L8.8 2.85 8.8 2.55 9.0 1.3 Q10.0 -5.9 16.4 -4.9 L16.85 -4.8 17.75 -9.55 Q16.0 -7.7 12.15 -5.8 3.95 -1.8 -6.55 -3.45 -10.5 -4.1 -12.4 -5.3 L-12.95 -5.2 Q-13.45 -5.3 -17.4 -9.7 L-15.65 -9.05 -14.35 -8.65 M12.15 -3.25 L10.95 -0.85 Q10.45 -0.1 9.75 2.4 13.1 0.7 16.15 -2.3 L16.2 -2.35 16.45 -3.25 16.6 -3.7 Q13.35 -4.4 12.15 -3.25" fill="#463624" fill-rule="evenodd" stroke="none"/>
    <path d="M-14.35 -8.65 Q-9.45 -7.2 -4.05 -7.2 9.75 -7.35 18.45 -17.5 L18.45 -16.75 17.95 -11.2 Q16.8 -10.0 15.4 -9.35 12.15 -7.1 10.8 -6.45 7.75 -5.1 4.25 -4.6 -1.55 -3.85 -6.0 -4.55 -10.85 -5.3 -12.65 -6.45 L-12.85 -6.5 -14.35 -8.65" fill="#e5e5e5" fill-rule="evenodd" stroke="none"/>
    <path d="M-14.35 -8.65 L-15.65 -9.05 -17.4 -9.7 Q-13.45 -5.3 -12.95 -5.2 L-12.4 -5.3 Q-10.5 -4.1 -6.55 -3.45 3.95 -1.8 12.15 -5.8 16.0 -7.7 17.75 -9.55 L16.85 -4.8 16.4 -4.9 Q10.0 -5.9 9.0 1.3 L8.8 2.55 8.8 2.85 7.95 3.2 Q0.9 5.95 -7.5 3.3 L-7.5 3.35 Q-14.4 1.0 -17.4 -6.8 L-17.45 -6.8 Q-18.2 -8.75 -19.3 -10.55 L-15.65 -9.05 -14.35 -8.65" fill="#57352d" fill-rule="evenodd" stroke="none"/>
    <path d="M12.15 -3.25 Q13.35 -4.4 16.6 -3.7 L16.45 -3.25 16.2 -2.35 16.15 -2.3 Q13.1 0.7 9.75 2.4 10.45 -0.1 10.95 -0.85 L12.15 -3.25" fill="#b45f50" fill-rule="evenodd" stroke="none"/>
  </g>
</svg>
