<?xml version="1.0" encoding="UTF-8" standalone="no"?>
<svg xmlns:ffdec="https://www.free-decompiler.com/flash" xmlns:xlink="http://www.w3.org/1999/xlink" ffdec:objectType="shape" height="27.85px" width="41.45px" xmlns="http://www.w3.org/2000/svg">
  <g transform="matrix(1.0, 0.0, 0.0, 1.0, 21.4, 21.2)">
    <path d="M18.0 -11.35 L18.45 -16.75 18.45 -17.5 Q9.75 -7.35 -4.05 -7.2 -9.4 -7.2 -14.3 -8.65 L-15.0 -8.9 -15.3 -8.95 -15.65 -9.05 -19.3 -10.55 -18.4 -8.95 -17.95 -8.05 -17.45 -6.8 -17.4 -6.8 -17.35 -6.75 -16.85 -5.5 -16.65 -5.55 -13.05 -2.25 -10.25 -2.5 -9.8 -2.5 -7.7 -2.65 -7.5 -2.65 -6.65 -2.5 -6.55 -2.25 -6.65 -2.05 -6.7 -2.05 -11.85 -1.25 -12.55 0.15 -12.6 0.2 -12.7 0.35 -10.75 1.8 -10.2 2.15 Q-8.95 2.85 -7.5 3.35 L-7.5 3.3 Q0.9 5.95 7.95 3.2 L8.45 3.0 Q8.1 3.15 7.7 3.4 L8.5 3.0 8.8 2.85 13.05 0.25 13.7 -0.25 16.15 -2.3 16.2 -2.35 16.2 -2.4 16.45 -2.35 16.6 -3.15 Q15.85 -4.1 15.3 -4.15 L11.2 -4.0 11.15 -3.95 11.1 -3.95 10.5 -3.7 9.35 -3.35 9.3 -3.35 9.25 -3.35 8.75 -3.4 8.65 -3.65 Q8.7 -4.05 10.2 -4.45 L10.7 -4.6 11.25 -4.7 12.25 -4.9 12.35 -4.9 12.55 -4.95 15.85 -5.7 Q16.75 -6.65 17.55 -8.2 L17.45 -7.45 17.6 -8.25 17.6 -8.3 17.85 -10.4 17.9 -11.15 17.95 -11.2 18.0 -11.35 M19.55 -21.15 L19.7 -21.2 20.05 -14.35 Q20.1 -9.1 18.15 -1.8 L17.8 -1.25 17.55 -0.85 Q6.65 9.85 -8.1 5.25 L-8.1 5.2 Q-15.85 2.65 -19.3 -6.1 L-19.25 -6.1 Q-20.6 -11.0 -21.4 -13.05 L-20.95 -13.3 -20.2 -13.25 Q-12.75 -9.2 -4.1 -9.2 L-4.05 -9.15 Q10.05 -9.35 18.45 -20.75 18.7 -21.1 19.15 -21.15 L19.5 -21.15 19.55 -21.15 M-16.85 -5.5 L-16.85 -5.45 -16.85 -5.5 M-15.6 -3.15 L-15.45 -2.95 -14.05 -1.05 -12.8 0.25 -13.55 -0.5 -13.5 -0.95 Q-13.5 -1.2 -15.05 -2.65 L-15.6 -3.15" fill="#463624" fill-rule="evenodd" stroke="none"/>
    <path d="M-16.85 -5.5 L-17.35 -6.75 -17.4 -6.8 -17.45 -6.8 -17.95 -8.05 -18.4 -8.95 -19.3 -10.55 -15.65 -9.05 -15.3 -8.95 -15.0 -8.9 -14.3 -8.65 Q-9.4 -7.2 -4.05 -7.2 9.75 -7.35 18.45 -17.5 L18.45 -16.75 18.0 -11.35 17.9 -11.3 17.8 -11.15 17.9 -11.15 17.85 -10.4 17.6 -8.3 17.6 -8.25 17.55 -8.2 Q16.75 -6.65 15.85 -5.7 L12.55 -4.95 12.35 -4.9 12.25 -4.9 11.25 -4.7 10.7 -4.6 10.5 -4.6 10.2 -4.45 Q8.7 -4.05 8.65 -3.65 L8.75 -3.4 9.25 -3.35 9.3 -3.35 9.35 -3.35 10.5 -3.7 11.1 -3.95 11.15 -3.95 11.2 -3.95 11.2 -4.0 15.3 -4.15 Q15.85 -4.1 16.6 -3.15 L16.45 -2.35 16.2 -2.4 16.2 -2.35 16.15 -2.3 13.7 -0.25 13.05 0.25 Q13.35 -2.95 10.8 -3.35 L8.3 -3.05 8.05 -3.15 Q7.95 -3.25 8.0 -3.45 8.1 -4.15 12.55 -6.5 13.1 -6.85 13.75 -7.95 12.2 -7.15 10.3 -6.6 L3.45 -5.15 Q-3.05 -4.7 -6.75 -5.25 -10.85 -5.95 -15.0 -7.35 -15.6 -7.5 -17.65 -8.55 -14.8 -3.75 -9.55 -2.95 L-5.25 -2.5 -2.75 -2.0 -2.75 -1.75 -7.85 -0.25 Q-9.4 0.45 -10.2 2.15 L-10.75 1.8 -12.7 0.35 -12.6 0.2 -12.55 0.15 -11.85 -1.25 -6.7 -2.05 -6.65 -2.05 -6.55 -2.25 -6.65 -2.5 -7.5 -2.65 -7.7 -2.65 -9.8 -2.5 -10.25 -2.5 -13.05 -2.25 -16.65 -5.55 -16.85 -5.5" fill="#e5e5e5" fill-rule="evenodd" stroke="none"/>
    <path d="M18.0 -11.35 L17.95 -11.2 17.9 -11.15 17.8 -11.15 17.9 -11.3 18.0 -11.35 M10.7 -4.6 L10.2 -4.45 10.5 -4.6 10.7 -4.6 M11.15 -3.95 L11.2 -4.0 11.2 -3.95 11.15 -3.95 M13.05 0.25 L8.8 2.85 8.5 3.0 8.45 3.0 7.95 3.2 Q0.9 5.95 -7.5 3.3 L-7.5 3.35 Q-8.95 2.85 -10.2 2.15 -9.4 0.45 -7.85 -0.25 L-2.75 -1.75 -2.75 -2.0 -5.25 -2.5 -9.55 -2.95 Q-14.8 -3.75 -17.65 -8.55 -15.6 -7.5 -15.0 -7.35 -10.85 -5.95 -6.75 -5.25 -3.05 -4.7 3.45 -5.15 L10.3 -6.6 Q12.2 -7.15 13.75 -7.95 13.1 -6.85 12.55 -6.5 8.1 -4.15 8.0 -3.45 7.95 -3.25 8.05 -3.15 L8.3 -3.05 10.8 -3.35 Q13.35 -2.95 13.05 0.25" fill="#f9f9f9" fill-rule="evenodd" stroke="none"/>
    <path d="M-12.6 0.2 L-12.55 0.15 -12.6 0.2 M-15.6 -3.15 L-15.05 -2.65 Q-13.5 -1.2 -13.5 -0.95 L-13.55 -0.5 -12.8 0.25 -14.05 -1.05 -15.45 -2.95 -15.6 -3.15" fill="#57352d" fill-rule="evenodd" stroke="none"/>
  </g>
</svg>
