<?xml version="1.0" encoding="UTF-8" standalone="no"?>
<svg xmlns:ffdec="https://www.free-decompiler.com/flash" xmlns:xlink="http://www.w3.org/1999/xlink" ffdec:objectType="shape" height="14.0px" width="28.2px" xmlns="http://www.w3.org/2000/svg">
  <g transform="matrix(1.0, 0.0, 0.0, 1.0, 10.65, 11.35)">
    <path d="M-7.8 -1.0 L-7.6 -0.85 -6.75 -0.35 Q4.65 2.6 10.45 0.4 15.15 -1.45 15.6 -4.15 16.25 -8.25 8.75 -9.45 1.0 -10.7 -4.65 -8.25 -6.95 -7.3 -8.8 -6.05 L-8.25 -5.0 -7.8 -4.2 Q-5.8 -5.6 -0.1 -4.9 L1.1 -4.5 1.2 -4.3 -3.3 -3.65 Q-4.25 -3.55 -6.3 -2.5 L-6.3 -2.45 -6.45 -2.3 -7.65 -1.15 -8.0 -1.15 -7.8 -1.0 M17.4 -3.5 Q17.0 -1.1 13.25 0.9 8.3 3.45 0.8 2.3 L-3.75 1.5 -3.75 1.45 -5.0 1.45 Q-11.8 0.35 -10.45 -5.1 L-10.25 -5.9 Q-9.15 -8.7 -2.65 -10.3 3.95 -12.0 10.25 -11.0 15.9 -10.1 17.2 -7.15 17.8 -5.95 17.4 -3.5" fill="#463624" fill-rule="evenodd" stroke="none"/>
    <path d="M-7.65 -1.15 L-6.45 -2.3 -6.3 -2.45 -6.3 -2.5 Q-4.25 -3.55 -3.3 -3.65 L1.2 -4.3 1.1 -4.5 -0.1 -4.9 Q-5.8 -5.6 -7.8 -4.2 L-8.25 -5.0 -8.8 -6.05 Q-6.95 -7.3 -4.65 -8.25 1.0 -10.7 8.75 -9.45 16.25 -8.25 15.6 -4.15 15.15 -1.45 10.45 0.4 4.65 2.6 -6.75 -0.35 L-7.6 -0.85 -7.8 -1.0 -7.65 -1.15" fill="#e5e5e5" fill-rule="evenodd" stroke="none"/>
  </g>
</svg>
