<?xml version="1.0" encoding="UTF-8" standalone="no"?>
<svg xmlns:ffdec="https://www.free-decompiler.com/flash" xmlns:xlink="http://www.w3.org/1999/xlink" ffdec:objectType="shape" height="24.35px" width="35.75px" xmlns="http://www.w3.org/2000/svg">
  <g transform="matrix(1.0, 0.0, 0.0, 1.0, 15.4, 18.1)">
    <path d="M10.05 -1.15 L9.8 -0.15 9.75 0.25 10.2 -0.5 10.4 -1.8 10.25 -1.2 Q10.15 -1.0 10.05 -1.15 M-0.15 -0.85 Q0.75 0.65 3.05 1.05 5.95 1.5 7.95 -0.35 L9.95 -2.25 Q13.05 -1.8 12.85 2.85 L12.7 3.45 11.0 4.0 10.95 3.8 10.95 3.1 10.95 2.95 10.85 2.7 10.75 2.5 9.3 1.45 9.0 1.35 9.55 0.2 10.05 -1.2 9.75 -1.6 9.35 -1.5 Q8.45 0.05 6.75 1.25 4.15 2.95 1.15 2.5 -0.95 2.15 -0.65 0.35 L-0.15 -0.85" fill="#a05345" fill-rule="evenodd" stroke="none"/>
    <path d="M19.1 -6.85 L19.05 -6.85 Q17.75 -7.05 17.45 -7.7 17.2 -8.35 15.0 -8.7 11.35 -9.3 4.45 -7.6 -2.45 -5.9 -3.3 -6.05 -5.1 -6.35 -7.95 -10.7 L-8.65 -10.3 Q-10.6 -9.2 -11.85 -8.15 -9.75 -6.0 -9.9 -2.7 -10.05 -0.8 -10.75 2.9 L-4.3 4.15 6.7 4.8 6.65 4.55 Q6.7 4.1 7.55 3.85 L8.4 3.25 7.1 2.3 Q4.0 4.3 1.55 3.95 -2.25 3.3 -1.8 0.4 -1.5 -1.4 0.45 -3.35 3.45 -6.35 8.15 -5.6 12.6 -4.9 14.9 -2.15 16.4 -0.35 16.4 1.0 19.1 -1.7 19.05 -5.3 L19.15 -6.8 19.1 -7.3 19.1 -6.85 M10.05 -1.15 Q10.15 -1.0 10.25 -1.2 L10.4 -1.8 10.2 -0.5 9.75 0.25 9.8 -0.15 10.05 -1.15 M-0.15 -0.85 L-0.65 0.35 Q-0.95 2.15 1.15 2.5 4.15 2.95 6.75 1.25 8.45 0.05 9.35 -1.5 L9.75 -1.6 10.05 -1.2 9.55 0.2 8.6 1.25 8.5 1.3 8.65 1.3 9.0 1.35 9.3 1.45 10.75 2.5 10.85 2.7 10.95 2.95 10.95 3.1 10.95 3.8 10.8 4.1 11.0 4.0 12.7 3.45 15.4 1.9 15.0 1.1 14.45 -0.75 Q13.1 -3.55 7.95 -4.35 2.15 -5.3 -0.15 -0.85 M-6.95 -11.25 L-5.35 -9.35 Q-3.75 -7.3 -3.25 -7.2 -1.8 -6.95 13.9 -10.15 L15.4 -9.95 Q17.95 -9.55 18.45 -8.8 18.6 -8.6 18.9 -8.45 L18.2 -10.7 Q16.3 -15.35 11.05 -16.15 5.65 -17.05 -2.85 -13.2 L-7.0 -11.25 -7.5 -10.95 -6.95 -11.25 M19.7 -11.25 Q20.55 -8.3 20.3 -5.25 19.5 -0.15 17.0 2.25 10.95 7.95 -4.6 5.5 L-12.35 4.2 Q-12.6 4.1 -12.45 3.95 -12.2 3.55 -12.3 3.25 L-11.95 1.95 -11.45 -0.5 Q-10.45 -6.95 -13.3 -7.4 -13.85 -7.5 -14.95 -6.8 -15.5 -7.1 -15.4 -7.65 3.35 -19.45 12.95 -17.95 18.0 -17.15 19.7 -11.25" fill="#463624" fill-rule="evenodd" stroke="none"/>
    <path d="M19.15 -6.8 L19.05 -5.3 Q19.1 -1.7 16.4 1.0 16.4 -0.35 14.9 -2.15 12.6 -4.9 8.15 -5.6 3.45 -6.35 0.45 -3.35 -1.5 -1.4 -1.8 0.4 -2.25 3.3 1.55 3.95 4.0 4.3 7.1 2.3 L8.4 3.25 7.55 3.85 Q6.7 4.1 6.65 4.55 L6.7 4.8 -4.3 4.15 -10.75 2.9 Q-10.05 -0.8 -9.9 -2.7 -9.75 -6.0 -11.85 -8.15 -10.6 -9.2 -8.65 -10.3 L-7.95 -10.7 Q-5.1 -6.35 -3.3 -6.05 -2.45 -5.9 4.45 -7.6 11.35 -9.3 15.0 -8.7 17.2 -8.35 17.45 -7.7 17.75 -7.05 19.05 -6.85 L19.1 -6.85 19.15 -6.8" fill="#57352d" fill-rule="evenodd" stroke="none"/>
    <path d="M12.7 3.45 L12.85 2.85 Q13.05 -1.8 9.95 -2.25 L7.95 -0.35 Q5.95 1.5 3.05 1.05 0.75 0.65 -0.15 -0.85 2.15 -5.3 7.95 -4.35 13.1 -3.55 14.45 -0.75 L15.0 1.1 15.4 1.9 12.7 3.45 M9.55 0.2 L9.0 1.35 8.65 1.3 8.6 1.25 9.55 0.2" fill="#b45f50" fill-rule="evenodd" stroke="none"/>
    <path d="M-7.0 -11.25 L-2.85 -13.2 Q5.65 -17.05 11.05 -16.15 16.3 -15.35 18.2 -10.7 L18.9 -8.45 Q18.6 -8.6 18.45 -8.8 17.95 -9.55 15.4 -9.95 L13.9 -10.15 Q-1.8 -6.95 -3.25 -7.2 -3.75 -7.3 -5.35 -9.35 L-6.95 -11.25 -7.0 -11.25" fill="#e5e5e5" fill-rule="evenodd" stroke="none"/>
  </g>
</svg>
