<?xml version="1.0" encoding="UTF-8" standalone="no"?>
<svg xmlns:ffdec="https://www.free-decompiler.com/flash" xmlns:xlink="http://www.w3.org/1999/xlink" ffdec:objectType="shape" height="18.15px" width="33.15px" xmlns="http://www.w3.org/2000/svg">
  <g transform="matrix(1.0, 0.0, 0.0, 1.0, 16.45, 13.95)">
    <path d="M-15.55 -8.55 L-16.45 -11.0 Q-7.45 -6.2 2.75 -7.9 9.75 -9.3 15.4 -13.85 L16.2 -13.8 Q17.05 -13.6 16.4 -13.7 15.75 -13.85 14.9 -12.05 L14.85 -11.9 14.75 -11.75 13.65 -10.3 Q11.9 -8.75 7.9 -6.85 1.95 -4.05 -5.45 -5.0 -11.3 -5.75 -14.1 -7.3 L-15.4 -8.2 -15.55 -8.55" fill="#463624" fill-rule="evenodd" stroke="none"/>
    <path d="M14.9 -12.05 Q15.15 -11.6 15.05 -10.95 14.25 -6.05 11.1 -2.0 5.1 5.65 -6.4 3.85 -10.5 3.2 -11.9 2.2 -13.8 0.9 -14.15 -2.45 -14.35 -4.35 -15.75 -8.1 L-15.7 -8.5 -15.55 -8.55 -15.4 -8.2 -14.1 -7.3 -12.95 -3.55 -12.15 -0.85 Q-11.95 -0.2 -12.3 0.45 -11.85 0.95 -6.4 1.8 L-2.95 2.2 Q-0.15 -4.3 6.5 -3.2 8.35 -2.95 9.7 -2.05 L9.25 -1.5 10.9 -3.6 Q12.1 -5.6 13.25 -9.15 L13.65 -10.3 14.75 -11.75 14.85 -11.9 14.9 -12.05 M6.35 -2.15 Q1.65 -2.9 -0.45 -0.3 L-1.85 2.25 Q4.9 2.35 8.75 -1.05 L6.35 -2.15" fill="#463623" fill-rule="evenodd" stroke="none"/>
    <path d="M-14.1 -7.3 Q-11.3 -5.75 -5.45 -5.0 1.95 -4.05 7.9 -6.85 11.9 -8.75 13.65 -10.3 L13.25 -9.15 Q12.1 -5.6 10.9 -3.6 L9.25 -1.5 9.7 -2.05 Q8.35 -2.95 6.5 -3.2 -0.15 -4.3 -2.95 2.2 L-6.4 1.8 Q-11.85 0.95 -12.3 0.45 -11.95 -0.2 -12.15 -0.85 L-12.95 -3.55 -14.1 -7.3" fill="#57352d" fill-rule="evenodd" stroke="none"/>
    <path d="M6.35 -2.15 L8.75 -1.05 Q4.9 2.35 -1.85 2.25 L-0.45 -0.3 Q1.65 -2.9 6.35 -2.15" fill="#b45f50" fill-rule="evenodd" stroke="none"/>
  </g>
</svg>
