<?xml version="1.0" encoding="UTF-8" standalone="no"?>
<svg xmlns:ffdec="https://www.free-decompiler.com/flash" xmlns:xlink="http://www.w3.org/1999/xlink" ffdec:objectType="shape" height="17.05px" width="33.15px" xmlns="http://www.w3.org/2000/svg">
  <g transform="matrix(1.0, 0.0, 0.0, 1.0, 17.3, 13.6)">
    <path d="M13.0 -10.2 Q9.8 -7.75 5.15 -6.4 0.5 -5.05 -5.5 -5.3 -11.55 -5.55 -15.5 -8.05 -13.35 -5.2 -12.5 -3.1 L-12.25 -1.95 -10.8 -1.9 -6.5 -1.0 Q-6.15 -0.95 -6.1 -0.6 L-6.55 -0.6 -12.05 -0.15 Q-10.9 0.6 -6.45 1.3 -0.05 2.3 5.75 0.5 11.5 -1.4 11.5 -4.65 11.55 -7.9 13.0 -10.2 M1.9 -7.55 Q8.95 -8.9 14.6 -13.45 14.85 -13.75 15.4 -13.45 16.25 -13.2 15.55 -13.3 15.15 -13.4 14.65 -12.65 L14.65 -11.5 Q14.35 -9.7 11.7 -2.75 9.75 2.75 -5.7 3.45 -13.75 2.15 -13.3 -0.8 -13.15 -1.7 -14.5 -4.7 L-15.7 -7.35 -16.2 -7.8 -17.3 -10.6 Q-8.25 -5.85 1.9 -7.55" fill="#463624" fill-rule="evenodd" stroke="none"/>
    <path d="M13.0 -10.2 Q11.55 -7.9 11.5 -4.65 11.5 -1.4 5.75 0.5 -0.05 2.3 -6.45 1.3 -10.9 0.6 -12.05 -0.15 L-6.55 -0.6 -6.1 -0.6 Q-6.15 -0.95 -6.5 -1.0 L-10.8 -1.9 -12.25 -1.95 -12.5 -3.1 Q-13.35 -5.2 -15.5 -8.05 -11.55 -5.55 -5.5 -5.3 0.5 -5.05 5.15 -6.4 9.8 -7.75 13.0 -10.2" fill="#e5e5e5" fill-rule="evenodd" stroke="none"/>
  </g>
</svg>
