<?xml version="1.0" encoding="UTF-8" standalone="no"?>
<svg xmlns:ffdec="https://www.free-decompiler.com/flash" xmlns:xlink="http://www.w3.org/1999/xlink" ffdec:objectType="shape" height="16.05px" width="36.55px" xmlns="http://www.w3.org/2000/svg">
  <g transform="matrix(1.0, 0.0, 0.0, 1.0, 18.85, 16.65)">
    <path d="M14.05 -16.35 L13.5 -16.15 Q18.2 -15.35 17.65 -8.2 13.2 0.3 8.3 -0.7 3.35 -1.7 -2.3 -3.85 -7.75 -5.95 -11.0 -8.15 -15.8 -9.1 -17.75 -10.85 L-18.85 -13.65 Q-9.8 -8.85 0.35 -10.55 7.4 -11.95 13.05 -16.5 13.3 -16.8 13.85 -16.5 14.7 -16.25 14.05 -16.35 M15.05 -7.35 L11.55 -8.15 Q10.3 -8.35 9.1 -5.85 8.05 -3.95 8.2 -2.6 L10.0 -2.65 Q11.3 -2.45 13.55 -5.3 L15.05 -7.35 15.25 -7.7 15.05 -7.35 M15.7 -8.75 Q16.15 -11.65 11.7 -13.35 10.1 -11.65 5.55 -9.5 1.2 -7.5 -3.85 -7.4 L-0.2 -5.9 Q2.9 -4.5 5.75 -3.65 L6.85 -3.0 7.25 -4.55 Q7.65 -5.95 9.2 -8.1 10.7 -10.2 12.35 -9.9 14.0 -9.65 15.25 -8.9 L15.65 -8.65 15.7 -8.65 15.7 -8.75" fill="#463624" fill-rule="evenodd" stroke="none"/>
    <path d="M15.05 -7.35 L13.55 -5.3 Q11.3 -2.45 10.0 -2.65 L8.2 -2.6 Q8.05 -3.95 9.1 -5.85 10.3 -8.35 11.55 -8.15 L15.05 -7.35" fill="#b45f50" fill-rule="evenodd" stroke="none"/>
    <path d="M15.65 -8.65 L15.25 -8.9 Q14.0 -9.65 12.35 -9.9 10.7 -10.2 9.2 -8.1 7.65 -5.95 7.25 -4.55 L6.85 -3.0 5.75 -3.65 Q2.9 -4.5 -0.2 -5.9 L-3.85 -7.4 Q1.2 -7.5 5.55 -9.5 10.1 -11.65 11.7 -13.35 16.15 -11.65 15.7 -8.75 L15.65 -8.65" fill="#57352d" fill-rule="evenodd" stroke="none"/>
  </g>
</svg>
