<?xml version="1.0" encoding="UTF-8" standalone="no"?>
<svg xmlns:ffdec="https://www.free-decompiler.com/flash" xmlns:xlink="http://www.w3.org/1999/xlink" ffdec:objectType="shape" height="8.35px" width="23.45px" xmlns="http://www.w3.org/2000/svg">
  <g transform="matrix(1.0, 0.0, 0.0, 1.0, 13.25, 6.8)">
    <path d="M3.65 -6.2 L5.4 -6.05 8.1 -5.3 Q10.7 -4.15 10.05 -0.9 9.6 1.8 7.6 1.5 L2.6 0.1 -3.5 -1.5 Q-6.65 -2.0 -9.35 -1.45 L-12.7 -0.95 -13.15 -1.1 -13.25 -1.65 Q-13.15 -2.3 -9.25 -2.6 L-8.85 -2.6 Q-9.6 -3.65 -9.3 -5.8 L-12.85 -5.05 Q-13.1 -4.65 -12.95 -5.3 -12.85 -6.05 -8.55 -6.4 L-9.0 -6.35 Q-8.45 -6.8 -6.65 -6.8 L-2.25 -6.55 0.8 -6.4 3.65 -6.2 M8.45 -3.85 L8.0 -4.15 7.75 -4.15 5.25 -4.8 Q-5.1 -6.45 -8.15 -5.55 -7.8 -4.4 -7.9 -3.6 L-8.05 -2.65 Q-5.0 -2.9 -2.85 -2.55 L0.55 -1.7 Q0.8 -2.8 2.75 -3.65 4.85 -4.6 7.4 -4.2 L8.4 -3.85 8.7 -3.55 8.45 -3.85 M1.95 -1.3 L1.85 -1.3 2.6 -1.0 Q5.85 0.1 8.3 0.5 8.9 0.6 9.15 -1.0 9.35 -2.15 9.0 -3.0 L6.7 -2.75 Q4.8 -3.1 4.15 -2.75 2.95 -2.25 2.8 -1.55 2.7 -1.2 1.95 -1.3" fill="#463624" fill-rule="evenodd" stroke="none"/>
    <path d="M8.4 -3.85 L7.4 -4.2 Q4.85 -4.6 2.75 -3.65 0.8 -2.8 0.55 -1.7 L-2.85 -2.55 Q-5.0 -2.9 -8.05 -2.65 L-7.9 -3.6 Q-7.8 -4.4 -8.15 -5.55 -5.1 -6.45 5.25 -4.8 L7.75 -4.15 8.0 -4.15 8.45 -3.85 8.4 -3.85" fill="#57352d" fill-rule="evenodd" stroke="none"/>
    <path d="M1.95 -1.3 Q2.7 -1.2 2.8 -1.55 2.95 -2.25 4.15 -2.75 4.8 -3.1 6.7 -2.75 L9.0 -3.0 Q9.35 -2.15 9.15 -1.0 8.9 0.6 8.3 0.5 5.85 0.1 2.6 -1.0 L1.85 -1.3 1.95 -1.3" fill="#b45f50" fill-rule="evenodd" stroke="none"/>
  </g>
</svg>
