<?xml version="1.0" encoding="UTF-8" standalone="no"?>
<svg xmlns:ffdec="https://www.free-decompiler.com/flash" xmlns:xlink="http://www.w3.org/1999/xlink" ffdec:objectType="shape" height="8.25px" width="18.65px" xmlns="http://www.w3.org/2000/svg">
  <g transform="matrix(1.0, 0.0, 0.0, 1.0, 18.0, 7.3)">
    <path d="M-15.65 -0.75 Q-17.15 -1.0 -16.8 -3.2 -16.0 -8.25 -3.05 -3.85 -3.1 -3.65 -2.55 -3.2 -1.9 -2.7 -1.7 -1.65 -6.55 0.65 -15.65 -0.75" fill="#b45f50" fill-rule="evenodd" stroke="none"/>
    <path d="M-15.65 -0.75 Q-6.55 0.65 -1.7 -1.65 -1.9 -2.7 -2.55 -3.2 -3.1 -3.65 -3.05 -3.85 -16.0 -8.25 -16.8 -3.2 -17.15 -1.0 -15.65 -0.75 M-10.7 -6.55 L-9.9 -6.6 -9.6 -6.55 Q-8.9 -7.7 -5.15 -7.1 1.5 -6.05 0.5 -2.15 0.15 -0.85 -0.55 -0.3 L-0.65 -0.85 -0.9 -0.65 -1.15 -0.5 -1.3 -0.4 -4.75 0.55 Q-9.35 1.35 -14.1 0.6 -19.1 -0.2 -17.7 -3.35 -17.2 -6.55 -10.7 -6.55" fill="#463624" fill-rule="evenodd" stroke="none"/>
  </g>
</svg>
