<?xml version="1.0" encoding="UTF-8" standalone="no"?>
<svg xmlns:ffdec="https://www.free-decompiler.com/flash" xmlns:xlink="http://www.w3.org/1999/xlink" ffdec:objectType="shape" height="9.15px" width="16.8px" xmlns="http://www.w3.org/2000/svg">
  <g transform="matrix(1.0, 0.0, 0.0, 1.0, 16.75, 8.0)">
    <path d="M-14.15 -1.55 Q-14.3 -4.75 -15.4 -6.45 -14.0 -7.65 -10.1 -7.0 -0.75 -5.55 -1.25 -2.4 -1.5 -0.7 -2.25 -0.7 L-14.05 -1.25 -14.15 -1.55" fill="#57352d" fill-rule="evenodd" stroke="none"/>
    <path d="M-14.15 -1.55 L-14.05 -1.25 -2.25 -0.7 Q-1.5 -0.7 -1.25 -2.4 -0.75 -5.55 -10.1 -7.0 -14.0 -7.65 -15.4 -6.45 -14.3 -4.75 -14.15 -1.55 M-1.15 -5.0 Q0.2 -3.65 0.0 -2.25 L-0.75 -0.8 -1.6 0.45 Q-3.1 1.65 -6.05 0.85 -10.05 -0.25 -10.95 -0.15 L-14.8 0.25 -16.75 -6.75 Q-16.55 -8.15 -9.7 -7.95 L-7.7 -7.75 Q-3.1 -7.05 -1.15 -5.0" fill="#463624" fill-rule="evenodd" stroke="none"/>
  </g>
</svg>
