<?xml version="1.0" encoding="UTF-8" standalone="no"?>
<svg xmlns:ffdec="https://www.free-decompiler.com/flash" xmlns:xlink="http://www.w3.org/1999/xlink" ffdec:objectType="shape" height="8.95px" width="18.0px" xmlns="http://www.w3.org/2000/svg">
  <g transform="matrix(1.0, 0.0, 0.0, 1.0, 20.05, 7.4)">
    <path d="M-11.0 -3.05 Q-15.75 -3.85 -17.85 -2.3 -18.5 -2.4 -18.1 -2.45 -18.1 -3.6 -18.85 -6.25 L-3.15 -4.85 -3.25 -2.35 -3.9 -0.05 Q-4.7 -0.8 -5.75 -1.35 -7.8 -2.55 -11.0 -3.05" fill="#e5e5e5" fill-rule="evenodd" stroke="none"/>
    <path d="M-11.0 -3.05 Q-7.8 -2.55 -5.75 -1.35 -4.7 -0.8 -3.9 -0.05 L-3.25 -2.35 -3.15 -4.85 -18.85 -6.25 Q-18.1 -3.6 -18.1 -2.45 -18.5 -2.4 -17.85 -2.3 -15.75 -3.85 -11.0 -3.05 M-16.5 -1.6 L-18.45 -0.6 -19.4 -3.45 -20.05 -6.55 Q-19.8 -8.4 -6.55 -6.3 -2.9 -5.75 -2.2 -3.95 -1.9 -3.05 -2.25 -2.3 L-3.1 1.45 -3.65 1.5 Q-6.7 -1.15 -11.15 -1.8 L-16.5 -1.6" fill="#463624" fill-rule="evenodd" stroke="none"/>
  </g>
</svg>
