<?xml version="1.0" encoding="UTF-8" standalone="no"?>
<svg xmlns:ffdec="https://www.free-decompiler.com/flash" xmlns:xlink="http://www.w3.org/1999/xlink" ffdec:objectType="shape" height="66.25px" width="45.7px" xmlns="http://www.w3.org/2000/svg">
  <g transform="matrix(1.0, 0.0, 0.0, 1.0, 14.4, 13.5)">
    <path d="M25.2 47.4 L24.85 47.65 24.85 47.7 21.9 49.45 21.75 49.5 Q17.4 51.45 13.1 50.3 8.85 49.15 7.1 45.6 L-10.45 10.2 -10.0 7.6 Q-6.65 -9.95 5.55 -4.25 L7.75 0.15 Q18.25 21.95 25.2 47.4" fill="#e9d96b" fill-rule="evenodd" stroke="none"/>
    <path d="M13.75 -1.4 L12.5 -6.5 12.5 -6.6 12.65 -6.3 13.4 -4.45 30.55 35.25 Q32.35 39.75 29.9 44.5 28.5 47.3 26.1 49.25 L26.05 49.25 22.65 51.3 22.35 51.4 Q17.5 53.55 12.6 52.25 7.45 50.85 5.3 46.5 L-12.15 8.75 -12.3 8.45 -12.85 7.25 -13.25 6.35 -10.45 10.2 7.1 45.6 Q8.85 49.15 13.1 50.3 17.4 51.45 21.75 49.5 L21.9 49.45 24.85 47.7 24.85 47.65 25.2 47.4 Q27.0 45.8 28.1 43.6 30.15 39.65 28.7 36.0 L14.3 -0.1 13.8 -1.45 13.75 -1.4" fill="#443d0b" fill-rule="evenodd" stroke="none"/>
    <path d="M12.5 -6.6 L12.5 -6.5 13.75 -1.4 14.3 -0.1 28.7 36.0 Q30.15 39.65 28.1 43.6 27.0 45.8 25.2 47.4 18.25 21.95 7.75 0.15 L5.55 -4.25 Q-6.65 -9.95 -10.0 7.6 L-10.45 10.2 -13.25 6.35 -12.85 7.25 -12.95 7.3 -13.45 5.95 Q-14.7 1.75 -13.0 -2.8 -10.85 -8.55 -5.15 -11.15 0.5 -13.7 6.15 -11.35 10.2 -9.7 12.4 -6.75 L12.5 -6.6 M13.4 -4.45 L12.65 -6.3 13.0 -5.45 13.4 -4.45 Q13.45 -4.7 13.55 -4.55 L13.5 -4.5 13.4 -4.45" fill="#e3d048" fill-rule="evenodd" stroke="none"/>
    <path d="M-12.3 8.45 L-12.15 8.75 -12.2 8.65 -12.3 8.45 M12.4 -6.75 Q10.2 -9.7 6.15 -11.35 0.5 -13.7 -5.15 -11.15 -10.85 -8.55 -13.0 -2.8 -14.7 1.75 -13.45 5.95 L-13.65 5.45 Q-15.15 2.3 -13.55 -3.35 -12.0 -9.05 -5.9 -11.85 0.1 -14.65 5.95 -12.65 10.0 -11.3 12.4 -6.75" fill="#b39f1c" fill-rule="evenodd" stroke="none"/>
  </g>
</svg>
