<?xml version="1.0" encoding="UTF-8" standalone="no"?>
<svg xmlns:ffdec="https://www.free-decompiler.com/flash" xmlns:xlink="http://www.w3.org/1999/xlink" ffdec:objectType="shape" height="67.1px" width="34.75px" xmlns="http://www.w3.org/2000/svg">
  <g transform="matrix(1.0, 0.0, 0.0, 1.0, 17.7, 5.55)">
    <path d="M4.4 -0.45 L3.65 -1.25 4.4 -0.7 4.4 -0.45" fill="#f1ba87" fill-rule="evenodd" stroke="none"/>
    <path d="M1.15 -1.5 L1.15 -1.4 Q1.15 1.5 5.15 31.45 L6.9 47.95 Q6.85 51.9 8.5 58.5 L7.15 59.4 Q5.2 59.9 2.45 58.15 L2.45 58.2 Q1.5 57.55 1.25 56.4 L1.25 56.3 1.15 55.3 0.8 54.65 Q-2.0 17.05 -5.75 0.95 L-5.95 0.15 Q-4.5 -1.55 -2.35 -1.55 L1.15 -1.5" fill="#83563a" fill-rule="evenodd" stroke="none"/>
    <path d="M8.5 58.5 Q6.85 51.9 6.9 47.95 L5.15 31.45 Q1.15 1.5 1.15 -1.4 L1.15 -1.5 1.5 -1.45 1.85 -1.45 3.65 -1.25 4.4 -0.45 9.95 56.0 9.65 56.65 8.5 58.5" fill="#754b33" fill-rule="evenodd" stroke="none"/>
    <path d="M8.5 58.5 L9.65 56.65 9.95 56.0 4.4 -0.45 4.4 -0.7 4.65 -1.15 Q4.9 -1.5 5.3 -1.55 L6.05 -1.3 6.4 -0.65 Q10.85 33.2 11.95 56.0 L11.95 56.1 11.95 56.4 11.65 57.1 11.2 57.4 11.65 57.15 Q10.2 60.6 7.75 61.3 5.15 62.25 1.4 59.85 L1.35 59.85 -0.2 58.2 -0.5 58.0 -0.85 57.55 -0.9 57.4 -0.9 57.35 Q-2.45 32.75 -7.9 0.4 L-7.45 0.2 Q-7.05 0.15 -6.75 0.4 -6.4 0.65 -6.1 -0.4 L-5.95 0.15 -5.75 0.95 Q-2.0 17.05 0.8 54.65 L1.15 55.3 1.25 56.3 1.25 56.4 Q1.5 57.55 2.45 58.2 L2.45 58.15 Q5.2 59.9 7.15 59.4 L8.5 58.5" fill="#4b3121" fill-rule="evenodd" stroke="none"/>
    <path d="M10.75 48.85 Q8.6 49.95 5.85 50.6 1.3 51.6 -2.25 50.8 -5.55 50.1 -6.2 48.25 L-6.6 46.4 Q-5.65 47.75 -3.0 48.3 0.55 49.1 5.1 48.1 7.7 47.45 9.8 46.45 L10.75 48.85" fill="#82a1b5" fill-rule="evenodd" stroke="none"/>
    <path d="M14.15 36.4 L15.4 42.35 15.55 42.8 Q16.05 44.95 13.2 47.25 L10.75 48.85 9.8 46.45 Q7.7 47.45 5.1 48.1 0.55 49.1 -3.0 48.3 -5.65 47.75 -6.6 46.4 L-7.65 41.35 Q-6.95 43.15 -3.75 43.8 -0.2 44.6 4.35 43.6 8.85 42.55 11.7 40.25 14.15 38.3 14.15 36.4" fill="#49687c" fill-rule="evenodd" stroke="none"/>
    <path d="M14.15 36.4 L14.05 35.8 13.9 35.35 14.15 36.4 15.4 42.35 15.55 42.8 Q16.05 44.95 13.2 47.25 L10.75 48.85 Q8.6 49.95 5.85 50.6 1.3 51.6 -2.25 50.8 -5.55 50.1 -6.2 48.25 L-6.6 46.4 -7.65 41.35" fill="none" stroke="#223039" stroke-linecap="round" stroke-linejoin="round" stroke-width="2.0"/>
    <path d="M-13.0 1.25 Q-7.7 -1.35 -1.7 -2.9 6.15 18.2 8.25 41.25 L3.85 42.6 Q-1.25 43.8 -5.25 43.1 L-13.0 1.25" fill="#e9d96b" fill-rule="evenodd" stroke="none"/>
    <path d="M9.2 45.5 L4.85 46.85 -4.25 47.35 -4.5 47.3 -5.25 43.1 Q-1.25 43.8 3.85 42.6 L8.25 41.25 9.2 45.5" fill="#c0ac1d" fill-rule="evenodd" stroke="none"/>
    <path d="M-1.7 -2.9 Q2.5 -4.0 7.05 -4.55 L14.9 34.2 15.05 34.95 Q15.15 36.9 12.25 39.05 L8.25 41.25 Q6.15 18.2 -1.7 -2.9 M-9.15 41.35 L-16.7 3.2 -13.0 1.25 -5.25 43.1 Q-8.1 42.6 -9.15 41.35" fill="#e3d048" fill-rule="evenodd" stroke="none"/>
    <path d="M15.05 34.95 L15.75 38.3 15.95 38.65 16.0 38.75 Q16.5 40.9 13.25 43.3 11.45 44.55 9.2 45.5 L8.25 41.25 12.25 39.05 Q15.15 36.9 15.05 34.95 M-4.5 47.3 Q-7.25 46.75 -8.25 45.5 L-8.4 44.8 -9.15 41.35 Q-8.1 42.6 -5.25 43.1 L-4.5 47.3" fill="#a6951a" fill-rule="evenodd" stroke="none"/>
    <path d="M14.9 34.2 L15.0 34.5 15.05 34.95 M15.95 38.65 L16.0 38.75 Q16.5 40.9 13.25 43.3 11.45 44.55 9.2 45.5 L4.85 46.85 -4.25 47.35 -4.5 47.3 Q-7.25 46.75 -8.25 45.5 L-8.4 44.8" fill="none" stroke="#443d0b" stroke-linecap="round" stroke-linejoin="round" stroke-width="2.0"/>
    <path d="M7.05 -4.55 L14.9 34.2 15.05 34.95 15.75 38.3 15.95 38.65 M-8.4 44.8 L-9.15 41.35 -16.7 3.2" fill="none" stroke="#443d0b" stroke-linecap="round" stroke-linejoin="round" stroke-width="2.0"/>
  </g>
</svg>
