<?xml version="1.0" encoding="UTF-8" standalone="no"?>
<svg xmlns:ffdec="https://www.free-decompiler.com/flash" xmlns:xlink="http://www.w3.org/1999/xlink" ffdec:objectType="shape" height="184.85px" width="156.8px" xmlns="http://www.w3.org/2000/svg">
  <g transform="matrix(1.0, 0.0, 0.0, 1.0, 81.3, 152.9)">
    <path d="M-58.9 -108.45 L-57.05 -111.2 -49.8 -95.4 Q-59.9 -53.15 -60.3 -46.5 -60.75 -39.85 -63.0 -36.75 -65.25 -33.7 -66.8 -33.9 L-70.7 -34.45 Q-73.0 -35.15 -74.6 -37.45 -77.05 -40.9 -78.05 -48.0 L-77.6 -52.55 -76.8 -59.85 Q-76.3 -65.2 -73.55 -74.2 L-73.5 -74.2 Q-68.7 -71.75 -61.0 -72.15 L-60.8 -72.2 -60.6 -72.35 Q-57.05 -78.15 -56.8 -80.05 L-56.9 -80.45 -57.2 -80.65 -57.6 -80.55 -57.8 -80.2 Q-58.05 -78.45 -61.35 -73.1 -68.1 -72.8 -72.55 -74.85 L-70.8 -74.85 Q-72.6 -96.05 -56.3 -86.3 -56.0 -87.65 -54.7 -88.95 L-54.4 -88.7 Q-54.0 -88.55 -53.6 -88.7 -53.25 -88.85 -53.05 -89.25 L-51.7 -92.5 Q-51.6 -92.8 -51.65 -93.05 -51.7 -93.4 -51.9 -93.6 L-52.45 -93.85 -53.35 -94.05 -53.3 -100.65 -53.6 -101.35 -54.3 -101.65 -56.85 -101.65 Q-57.3 -104.5 -56.55 -107.4 L-56.6 -108.0 -57.05 -108.5 -57.65 -108.65 -58.9 -108.45 M-9.2 -24.65 L-11.7 -24.7 -13.0 -24.7 -50.9 -26.9 -51.05 -26.9 -51.2 -26.9 Q-52.7 -33.35 -52.15 -43.2 -50.85 -42.4 -49.15 -42.4 -46.8 -42.4 -45.15 -44.0 -43.5 -45.55 -43.5 -47.8 -43.5 -50.05 -45.15 -51.65 -46.8 -53.2 -49.15 -53.2 L-51.3 -52.8 -49.8 -62.95 Q-48.35 -61.65 -46.4 -61.65 -44.15 -61.65 -42.6 -63.35 -41.0 -65.0 -41.0 -67.4 -41.0 -69.8 -42.6 -71.5 -44.15 -73.15 -46.4 -73.15 L-47.9 -72.95 -45.65 -83.0 Q-44.35 -81.4 -42.55 -81.4 -40.7 -81.4 -39.4 -83.15 -38.05 -84.85 -38.05 -87.3 -38.05 -89.75 -39.4 -91.5 -40.7 -93.2 -42.55 -93.2 L-42.7 -93.2 Q-33.45 -99.55 -22.35 -104.3 -16.3 -106.85 -8.95 -108.55 -6.55 -108.4 -5.5 -105.75 -5.25 -97.2 0.0 -91.05 5.6 -84.5 13.45 -84.5 L16.0 -84.65 Q18.85 -83.9 18.95 -81.25 L19.0 -80.95 19.55 -75.85 Q20.3 -67.3 20.15 -52.85 6.45 -51.15 -7.65 -51.6 L-8.15 -51.45 -8.55 -51.1 -8.7 -50.6 -8.7 -44.6 -8.4 -43.9 Q-8.1 -43.6 -7.7 -43.6 -7.3 -43.6 -7.0 -43.9 L-6.85 -44.05 Q6.75 -43.7 20.0 -45.35 19.2 -34.9 3.35 -28.55 -0.1 -27.15 -3.55 -26.1 L-9.2 -24.65 M9.75 -146.2 L9.7 -146.1 9.7 -145.95 Q8.1 -141.4 6.15 -137.0 4.1 -132.55 1.55 -128.2 L-7.7 -124.95 -10.9 -137.2 7.75 -150.5 10.3 -147.45 9.75 -146.2 M20.2 -7.5 L12.1 -6.5 Q13.2 -12.0 11.95 -17.5 L11.75 -17.8 11.35 -17.85 11.05 -17.65 10.95 -17.3 Q12.2 -11.85 11.05 -6.4 L2.15 -5.8 1.95 -5.1 1.7 -4.85 1.8 -4.95 1.95 -5.3 1.8 -5.65 1.45 -5.8 Q-4.5 -5.65 -10.25 -5.9 L-10.65 -5.75 -10.7 -5.7 -10.6 -5.9 -20.3 -6.75 -20.3 -20.9 Q-11.95 -20.65 -2.9 -20.65 9.35 -20.65 20.2 -21.1 L20.2 -10.5 20.2 -10.4 20.2 -7.5 M-20.5 -5.8 L-10.35 -4.9 -10.3 -4.9 Q-4.5 -4.65 1.5 -4.8 L11.5 -5.45 20.45 -6.5 20.5 -6.45 Q20.8 -6.15 21.2 -6.15 L21.9 -6.45 22.2 -7.15 22.2 -7.25 Q36.85 -8.7 46.75 -0.6 56.9 7.8 16.65 21.15 7.7 23.15 -1.4 23.0 -44.6 16.8 -48.75 4.55 -52.85 -7.55 -22.3 -6.45 L-22.3 -6.4 -22.0 -5.7 Q-21.7 -5.4 -21.3 -5.4 -20.9 -5.4 -20.6 -5.7 L-20.5 -5.8 M-53.85 -117.6 L-53.85 -119.15 -53.5 -119.55 -53.45 -119.55 Q-48.75 -128.75 -37.3 -134.35 -40.05 -118.9 -46.6 -103.4 L-47.0 -103.4 -47.15 -103.3 -47.8 -104.15 Q-52.4 -110.65 -53.85 -117.6 M-43.2 -101.6 L-42.75 -102.8 -42.75 -102.85 Q-39.95 -110.45 -38.9 -112.3 -32.0 -124.55 -14.1 -135.1 L-9.5 -116.9 Q-26.2 -111.45 -41.85 -102.4 L-43.2 -101.6 M-23.3 -90.15 Q-25.05 -91.9 -27.55 -91.9 -30.05 -91.9 -31.8 -90.15 -33.55 -88.4 -33.55 -85.9 -33.55 -83.4 -31.8 -81.65 -30.05 -79.9 -27.55 -79.9 -25.05 -79.9 -23.3 -81.65 -21.55 -83.4 -21.55 -85.9 -21.55 -88.4 -23.3 -90.15 M-26.1 -70.8 Q-27.75 -72.45 -30.1 -72.45 -32.45 -72.45 -34.15 -70.8 -35.8 -69.1 -35.8 -66.75 -35.8 -64.4 -34.15 -62.75 -32.45 -61.05 -30.1 -61.05 -27.75 -61.05 -26.1 -62.75 -24.4 -64.4 -24.4 -66.75 -24.4 -69.1 -26.1 -70.8 M-32.25 -51.65 Q-34.35 -51.65 -35.85 -50.2 -37.3 -48.7 -37.3 -46.6 -37.3 -44.5 -35.85 -43.05 -34.35 -41.55 -32.25 -41.55 -30.15 -41.55 -28.7 -43.05 -27.2 -44.5 -27.2 -46.6 -27.2 -48.7 -28.7 -50.2 -30.15 -51.65 -32.25 -51.65" fill="#e9d96b" fill-rule="evenodd" stroke="none"/>
    <path d="M56.7 -12.35 L56.7 -24.7 58.7 -25.05 58.7 -14.9 58.7 -14.75 58.7 -13.15 58.75 -12.95 Q57.7 -12.2 56.7 -12.35 M-1.4 29.95 L-1.5 29.95 -1.4 25.0 -1.4 29.95" fill="#e6d351" fill-rule="evenodd" stroke="none"/>
    <path d="M-55.3 -99.65 L-55.3 -96.9 -56.4 -99.65 -55.3 -99.65 M-15.05 -136.85 Q-29.4 -127.5 -38.05 -116.75 -35.8 -127.6 -29.65 -139.1 -25.3 -142.45 -20.15 -144.6 -8.3 -149.75 4.55 -150.7 L-12.55 -138.5 -12.6 -138.5 -15.05 -136.85" fill="#49687c" fill-rule="evenodd" stroke="none"/>
    <path d="M-57.05 -111.2 L-56.7 -111.7 -55.5 -113.4 Q-53.25 -105.7 -50.8 -101.6 -48.4 -97.55 -47.25 -96.45 -54.25 -76.25 -55.15 -60.85 -56.1 -45.45 -56.5 -41.65 L-57.3 -35.35 Q-57.8 -32.9 -57.95 -27.75 L-58.05 -27.8 -58.1 -27.8 -59.15 -27.95 Q-73.85 -30.0 -79.2 -32.6 L-79.25 -32.75 -79.3 -32.9 -79.25 -33.15 -79.25 -33.25 -78.85 -38.8 -78.05 -48.0 Q-77.05 -40.9 -74.6 -37.45 -73.0 -35.15 -70.7 -34.45 L-66.8 -33.9 Q-65.25 -33.7 -63.0 -36.75 -60.75 -39.85 -60.3 -46.5 -59.9 -53.15 -49.8 -95.4 L-57.05 -111.2 M-73.55 -74.2 L-73.55 -74.35 -73.4 -74.8 -73.4 -74.85 Q-73.2 -80.25 -72.15 -85.7 -71.45 -89.6 -70.25 -93.45 L-70.1 -94.05 -66.7 -92.6 Q-61.15 -90.4 -54.9 -89.3 L-54.9 -89.25 -54.7 -88.95 Q-56.0 -87.65 -56.3 -86.3 -72.6 -96.05 -70.8 -74.85 L-72.55 -74.85 Q-68.1 -72.8 -61.35 -73.1 -58.05 -78.45 -57.8 -80.2 L-57.6 -80.55 -57.2 -80.65 -56.9 -80.45 -56.8 -80.05 Q-57.05 -78.15 -60.6 -72.35 L-60.8 -72.2 -61.0 -72.15 Q-68.7 -71.75 -73.5 -74.2 L-73.55 -74.2 M-69.7 -95.0 L-68.8 -96.75 -67.4 -96.15 -63.3 -94.55 Q-59.45 -93.2 -55.35 -92.4 L-54.95 -92.3 -54.75 -92.25 -54.7 -92.25 -54.05 -92.15 -54.8 -90.3 Q-59.4 -91.1 -63.65 -92.55 -66.8 -93.6 -69.7 -95.0 M62.95 -29.5 L53.4 -27.95 Q30.1 -24.65 -2.85 -24.65 L-9.2 -24.65 -3.55 -26.1 Q-0.1 -27.15 3.35 -28.55 19.2 -34.9 20.0 -45.35 30.0 -46.6 39.85 -49.0 40.15 -48.7 40.55 -48.7 L41.25 -49.0 41.55 -49.7 41.55 -55.7 41.4 -56.25 40.9 -56.6 40.3 -56.65 Q30.35 -54.15 20.15 -52.85 20.3 -67.3 19.55 -75.85 L19.0 -80.95 18.95 -81.25 Q18.85 -83.9 16.0 -84.65 L13.45 -84.5 Q5.6 -84.5 0.0 -91.05 -5.25 -97.2 -5.5 -105.75 -6.55 -108.4 -8.95 -108.55 -16.3 -106.85 -22.35 -104.3 -33.45 -99.55 -42.7 -93.2 L-42.55 -93.2 Q-40.7 -93.2 -39.4 -91.5 -38.05 -89.75 -38.05 -87.3 -38.05 -84.85 -39.4 -83.15 -40.7 -81.4 -42.55 -81.4 -44.35 -81.4 -45.65 -83.0 L-47.9 -72.95 -46.4 -73.15 Q-44.15 -73.15 -42.6 -71.5 -41.0 -69.8 -41.0 -67.4 -41.0 -65.0 -42.6 -63.35 -44.15 -61.65 -46.4 -61.65 -48.35 -61.65 -49.8 -62.95 L-51.3 -52.8 -49.15 -53.2 Q-46.8 -53.2 -45.15 -51.65 -43.5 -50.05 -43.5 -47.8 -43.5 -45.55 -45.15 -44.0 -46.8 -42.4 -49.15 -42.4 -50.85 -42.4 -52.15 -43.2 -52.7 -33.35 -51.2 -26.9 L-55.95 -27.5 -55.5 -37.35 -55.5 -37.4 -55.4 -38.75 -55.4 -38.85 -54.8 -47.8 -54.7 -48.7 -53.65 -62.25 Q-52.7 -74.5 -45.25 -96.05 -43.35 -97.05 -34.8 -102.15 -26.25 -107.25 -15.8 -110.5 -5.35 -113.8 -5.15 -114.15 -4.95 -114.5 -5.05 -114.9 L-6.65 -120.8 4.2 -124.15 9.85 -134.5 Q64.6 -93.15 62.95 -29.5 M14.5 -108.65 L14.15 -108.5 13.95 -108.2 14.1 -107.8 Q49.55 -66.2 44.45 -27.95 L44.55 -27.6 44.9 -27.4 45.25 -27.5 45.45 -27.8 Q50.65 -66.4 14.85 -108.45 L14.5 -108.65 M-6.7 -45.05 L-6.7 -49.55 20.1 -50.85 Q29.95 -52.1 39.55 -54.4 L39.55 -49.95 Q29.9 -47.6 20.0 -46.35 L-6.7 -45.05 M22.2 -7.25 L22.2 -9.5 42.2 -11.1 42.2 -10.9 Q56.55 -10.2 56.55 -4.25 56.6 0.9 51.6 8.35 L49.55 10.1 Q42.05 16.4 32.05 21.45 15.35 29.9 -1.4 29.95 L-1.4 25.0 -1.5 29.95 -1.55 29.95 Q-18.5 30.0 -35.6 21.45 -63.6 7.55 -69.6 -11.05 -68.9 -14.3 -61.5 -13.0 -54.05 -10.05 -43.1 -10.6 L-22.3 -9.2 -22.3 -6.45 Q-52.85 -7.55 -48.75 4.55 -44.6 16.8 -1.4 23.0 7.7 23.15 16.65 21.15 56.9 7.8 46.75 -0.6 36.85 -8.7 22.2 -7.25 M-23.3 -90.15 Q-21.55 -88.4 -21.55 -85.9 -21.55 -83.4 -23.3 -81.65 -25.05 -79.9 -27.55 -79.9 -30.05 -79.9 -31.8 -81.65 -33.55 -83.4 -33.55 -85.9 -33.55 -88.4 -31.8 -90.15 -30.05 -91.9 -27.55 -91.9 -25.05 -91.9 -23.3 -90.15 M-27.25 -89.65 Q-28.7 -89.65 -29.75 -88.6 -30.8 -87.55 -30.8 -86.1 -30.8 -84.65 -29.75 -83.6 -28.7 -82.55 -27.25 -82.55 -25.8 -82.55 -24.75 -83.6 -23.7 -84.65 -23.7 -86.1 -23.7 -87.55 -24.75 -88.6 -25.8 -89.65 -27.25 -89.65 M-40.25 -89.6 Q-41.3 -90.65 -42.75 -90.65 -44.2 -90.65 -45.25 -89.6 -46.3 -88.55 -46.3 -87.1 -46.3 -85.65 -45.25 -84.6 -44.2 -83.55 -42.75 -83.55 -41.3 -83.55 -40.25 -84.6 -39.2 -85.65 -39.2 -87.1 -39.2 -88.55 -40.25 -89.6 M-30.0 -69.55 Q-31.45 -69.55 -32.5 -68.5 -33.55 -67.45 -33.55 -66.0 -33.55 -64.55 -32.5 -63.5 -31.45 -62.45 -30.0 -62.45 -28.55 -62.45 -27.5 -63.5 -26.45 -64.55 -26.45 -66.0 -26.45 -67.45 -27.5 -68.5 -28.55 -69.55 -30.0 -69.55 M-26.1 -70.8 Q-24.4 -69.1 -24.4 -66.75 -24.4 -64.4 -26.1 -62.75 -27.75 -61.05 -30.1 -61.05 -32.45 -61.05 -34.15 -62.75 -35.8 -64.4 -35.8 -66.75 -35.8 -69.1 -34.15 -70.8 -32.45 -72.45 -30.1 -72.45 -27.75 -72.45 -26.1 -70.8 M-32.25 -51.65 Q-30.15 -51.65 -28.7 -50.2 -27.2 -48.7 -27.2 -46.6 -27.2 -44.5 -28.7 -43.05 -30.15 -41.55 -32.25 -41.55 -34.35 -41.55 -35.85 -43.05 -37.3 -44.5 -37.3 -46.6 -37.3 -48.7 -35.85 -50.2 -34.35 -51.65 -32.25 -51.65 M-49.5 -69.75 Q-50.55 -68.7 -50.55 -67.25 -50.55 -65.8 -49.5 -64.75 -48.45 -63.7 -47.0 -63.7 -45.55 -63.7 -44.5 -64.75 -43.45 -65.8 -43.45 -67.25 -43.45 -68.7 -44.5 -69.75 -45.55 -70.8 -47.0 -70.8 -48.45 -70.8 -49.5 -69.75 M-49.75 -51.3 Q-51.2 -51.3 -52.25 -50.25 -53.3 -49.2 -53.3 -47.75 -53.3 -46.3 -52.25 -45.25 -51.2 -44.2 -49.75 -44.2 -48.3 -44.2 -47.25 -45.25 -46.2 -46.3 -46.2 -47.75 -46.2 -49.2 -47.25 -50.25 -48.3 -51.3 -49.75 -51.3 M-28.95 -46.5 Q-28.95 -47.95 -30.0 -49.0 -31.05 -50.05 -32.5 -50.05 -33.95 -50.05 -35.0 -49.0 -36.05 -47.95 -36.05 -46.5 -36.05 -45.05 -35.0 -44.0 -33.95 -42.95 -32.5 -42.95 -31.05 -42.95 -30.0 -44.0 -28.95 -45.05 -28.95 -46.5" fill="#e3d046" fill-rule="evenodd" stroke="none"/>
    <path d="M-70.1 -94.05 L-69.95 -94.55 -69.7 -95.0 Q-66.8 -93.6 -63.65 -92.55 -59.4 -91.1 -54.8 -90.3 L-54.9 -90.05 Q-55.1 -89.7 -54.9 -89.3 -61.15 -90.4 -66.7 -92.6 L-70.1 -94.05 M-6.65 -120.8 L-7.2 -123.0 2.55 -126.45 3.05 -126.85 Q5.8 -131.4 7.95 -136.15 L8.0 -136.2 Q9.8 -140.3 11.3 -141.5 18.4 -142.05 24.75 -137.35 41.45 -124.15 54.05 -104.95 66.65 -85.75 69.35 -66.25 L72.0 -45.05 Q71.95 -43.35 73.4 -37.35 74.85 -31.4 74.2 -32.05 L73.5 -32.6 Q70.1 -31.0 63.1 -29.55 L62.95 -29.5 Q64.6 -93.15 9.85 -134.5 L4.2 -124.15 -6.65 -120.8 M14.5 -108.65 L14.85 -108.45 Q50.65 -66.4 45.45 -27.8 L45.25 -27.5 44.9 -27.4 44.55 -27.6 44.45 -27.95 Q49.55 -66.2 14.1 -107.8 L13.95 -108.2 14.15 -108.5 14.5 -108.65 M-6.85 -44.05 L-6.7 -44.55 -6.7 -45.05 20.0 -46.35 Q29.9 -47.6 39.55 -49.95 L39.55 -49.7 39.6 -49.45 Q39.65 -49.2 39.85 -49.0 30.0 -46.6 20.0 -45.35 6.75 -43.7 -6.85 -44.05 M-20.3 -6.75 L-10.6 -5.9 -10.7 -5.7 -10.65 -5.75 -10.25 -5.9 Q-4.5 -5.65 1.45 -5.8 L1.8 -5.65 1.95 -5.3 1.8 -4.95 1.7 -4.85 1.95 -5.1 2.15 -5.8 11.05 -6.4 Q12.2 -11.85 10.95 -17.3 L11.05 -17.65 11.35 -17.85 11.75 -17.8 11.95 -17.5 Q13.2 -12.0 12.1 -6.5 L20.2 -7.5 20.2 -7.15 20.45 -6.5 11.5 -5.45 1.5 -4.8 Q-4.5 -4.65 -10.3 -4.9 L-10.35 -4.9 -20.5 -5.8 -20.3 -6.4 -20.3 -6.75 M42.2 -11.1 L42.25 -11.1 42.35 -11.1 42.5 -11.1 50.7 -12.2 54.7 -12.85 54.7 -12.15 Q54.7 -11.75 55.0 -11.45 55.3 -11.15 55.7 -11.15 L56.35 -11.35 56.4 -11.45 56.65 -11.85 56.7 -12.15 56.7 -12.35 Q57.7 -12.2 58.75 -12.95 L58.95 -12.5 59.0 -12.45 59.4 -12.2 59.7 -12.15 Q60.1 -12.15 60.4 -12.45 L60.7 -13.15 60.7 -14.0 Q65.5 -15.05 64.9 -11.8 63.2 -2.2 51.6 8.35 56.6 0.9 56.55 -4.25 56.55 -10.2 42.2 -10.9 L42.2 -11.1 M21.15 -23.15 Q9.85 -22.65 -2.9 -22.65 -12.5 -22.65 -21.25 -22.95 L-21.3 -22.95 Q-40.7 -23.6 -55.9 -25.7 L-56.05 -26.45 -56.05 -26.5 -51.15 -25.9 -51.0 -25.9 -13.0 -23.7 -11.7 -23.7 -2.85 -23.65 Q30.2 -23.65 53.55 -26.95 L63.3 -28.55 Q67.9 -29.5 71.0 -30.55 67.5 -28.8 59.75 -27.3 L59.3 -27.15 55.75 -26.55 55.7 -26.55 55.4 -26.5 51.65 -25.95 Q38.1 -23.95 21.2 -23.15 L21.15 -23.15 M-53.85 -117.6 Q-52.4 -110.65 -47.8 -104.15 L-47.15 -103.3 -47.0 -103.4 -46.6 -103.4 Q-40.05 -118.9 -37.3 -134.35 L-36.55 -134.85 -32.85 -137.2 Q-39.05 -124.8 -40.75 -113.1 -41.9 -111.05 -44.65 -103.55 L-44.6 -103.55 -45.3 -101.75 -45.5 -101.2 -46.15 -99.5 -46.5 -98.55 -47.45 -99.7 Q-53.0 -107.5 -53.85 -116.0 L-53.85 -117.6 M-14.1 -135.1 L-13.95 -135.2 -12.65 -136.05 -9.4 -123.6 -9.35 -123.4 -9.35 -123.3 -7.25 -115.3 Q-25.3 -109.75 -42.1 -100.0 L-44.3 -98.8 -43.65 -100.5 -43.65 -100.45 -43.5 -100.85 -43.45 -100.95 -43.2 -101.6 -41.85 -102.4 Q-26.2 -111.45 -9.5 -116.9 L-14.1 -135.1 M-27.25 -88.65 Q-26.2 -88.65 -25.45 -87.9 -24.7 -87.15 -24.7 -86.1 -24.7 -85.05 -25.45 -84.3 -26.2 -83.55 -27.25 -83.55 -28.3 -83.55 -29.05 -84.3 -29.8 -85.05 -29.8 -86.1 -29.8 -87.15 -29.05 -87.9 -28.3 -88.65 -27.25 -88.65 M-30.0 -63.45 Q-31.05 -63.45 -31.8 -64.2 -32.55 -64.95 -32.55 -66.0 -32.55 -67.05 -31.8 -67.8 -31.05 -68.55 -30.0 -68.55 -28.95 -68.55 -28.2 -67.8 -27.45 -67.05 -27.45 -66.0 -27.45 -64.95 -28.2 -64.2 -28.95 -63.45 -30.0 -63.45 M-42.75 -89.65 Q-41.7 -89.65 -40.95 -88.9 -40.2 -88.15 -40.2 -87.1 -40.2 -86.05 -40.95 -85.3 -41.7 -84.55 -42.75 -84.55 -43.8 -84.55 -44.55 -85.3 -45.3 -86.05 -45.3 -87.1 -45.3 -88.15 -44.55 -88.9 -43.8 -89.65 -42.75 -89.65 M-47.0 -69.8 Q-45.95 -69.8 -45.2 -69.05 -44.45 -68.3 -44.45 -67.25 -44.45 -66.2 -45.2 -65.45 -45.95 -64.7 -47.0 -64.7 -48.05 -64.7 -48.8 -65.45 -49.55 -66.2 -49.55 -67.25 -49.55 -68.3 -48.8 -69.05 -48.05 -69.8 -47.0 -69.8 M-47.95 -49.55 Q-47.2 -48.8 -47.2 -47.75 -47.2 -46.7 -47.95 -45.95 -48.7 -45.2 -49.75 -45.2 -50.8 -45.2 -51.55 -45.95 -52.3 -46.7 -52.3 -47.75 -52.3 -48.8 -51.55 -49.55 -50.8 -50.3 -49.75 -50.3 -48.7 -50.3 -47.95 -49.55 M-58.25 -26.8 L-58.05 -26.75 -58.05 -26.45 -58.0 -26.0 Q-71.95 -28.1 -76.95 -30.6 -71.1 -28.6 -59.3 -26.95 L-58.25 -26.8 M-34.3 -44.7 Q-35.05 -45.45 -35.05 -46.5 -35.05 -47.55 -34.3 -48.3 -33.55 -49.05 -32.5 -49.05 -31.45 -49.05 -30.7 -48.3 -29.95 -47.55 -29.95 -46.5 -29.95 -45.45 -30.7 -44.7 -31.45 -43.95 -32.5 -43.95 -33.55 -43.95 -34.3 -44.7" fill="#d5be20" fill-rule="evenodd" stroke="none"/>
    <path d="M22.2 -21.2 Q38.7 -22.0 51.95 -23.95 L54.7 -24.35 54.7 -14.85 50.4 -14.2 42.25 -13.1 42.1 -13.1 42.0 -13.1 22.2 -11.5 22.2 -21.2 M69.7 -19.0 L69.6 -18.95 Q66.7 -17.4 60.7 -16.05 L60.7 -25.45 Q68.15 -26.95 71.75 -28.7 L70.35 -19.45 69.75 -19.05 69.7 -19.0 M-63.8 -24.9 L-63.8 -15.5 Q-70.9 -16.85 -74.4 -18.45 L-74.45 -18.5 -74.55 -18.5 -75.45 -19.0 -76.85 -28.35 Q-72.6 -26.5 -63.8 -24.9 M-39.55 -12.3 L-39.55 -21.95 -22.3 -20.95 -22.3 -11.25 -39.55 -12.3" fill="#333333" fill-rule="evenodd" stroke="none"/>
    <path d="M-62.1 -107.1 L-58.35 -112.85 -55.85 -116.35 -55.85 -119.5 -55.6 -120.15 -55.0 -120.8 -55.0 -120.85 Q-47.95 -129.65 -37.65 -136.5 L-31.1 -140.5 -31.0 -140.6 Q-26.4 -144.2 -20.95 -146.45 -7.2 -152.4 7.85 -152.9 L7.95 -152.9 8.05 -152.9 8.75 -152.55 12.25 -148.3 12.45 -147.75 12.4 -147.25 12.0 -146.4 Q19.4 -143.8 25.95 -138.95 L26.0 -138.9 Q41.45 -126.8 52.05 -111.75 68.95 -87.85 73.55 -56.65 74.85 -47.9 75.5 -33.15 L75.5 -33.1 75.5 -32.9 75.5 -32.6 75.5 -32.4 Q75.3 -31.2 73.95 -30.05 L72.25 -18.9 72.25 -18.7 71.9 -18.05 71.05 -17.45 Q65.3 -0.55 50.85 11.65 43.15 18.1 32.95 23.25 15.85 31.9 -1.4 31.95 L-1.55 31.95 Q-19.0 32.0 -36.5 23.25 -66.35 8.45 -75.7 -16.9 L-76.85 -17.5 -76.9 -17.55 -77.0 -17.6 -77.1 -17.7 -77.4 -18.25 -79.05 -29.55 Q-81.1 -30.9 -81.25 -32.45 L-81.3 -32.9 -81.25 -33.4 -80.85 -38.95 -79.6 -52.8 -79.1 -56.6 -79.1 -56.65 Q-77.75 -66.4 -75.35 -75.3 -75.0 -85.25 -71.8 -95.3 L-71.75 -95.45 -70.15 -98.55 Q-69.95 -98.9 -69.55 -99.05 L-68.8 -99.0 -68.45 -98.8 -66.6 -98.0 Q-61.75 -95.85 -56.4 -94.65 L-54.35 -94.2 -54.4 -94.25 -53.35 -94.05 -52.45 -93.85 -51.9 -93.6 Q-51.7 -93.4 -51.65 -93.05 -51.6 -92.8 -51.7 -92.5 L-53.05 -89.25 Q-53.25 -88.85 -53.6 -88.7 -54.0 -88.55 -54.4 -88.7 L-54.7 -88.95 -54.9 -89.25 -54.9 -89.3 Q-55.1 -89.7 -54.9 -90.05 L-54.8 -90.3 -54.05 -92.15 -54.7 -92.25 -54.75 -92.25 -54.95 -92.3 -55.35 -92.4 Q-59.45 -93.2 -63.3 -94.55 L-67.4 -96.15 -68.8 -96.75 -69.7 -95.0 -69.95 -94.55 -70.1 -94.05 -70.25 -93.45 Q-71.45 -89.6 -72.15 -85.7 -73.2 -80.25 -73.4 -74.85 L-73.4 -74.8 -73.55 -74.35 -73.55 -74.2 Q-76.3 -65.2 -76.8 -59.85 L-77.6 -52.55 -78.05 -48.0 -78.85 -38.8 -79.25 -33.25 -79.25 -33.15 -79.3 -32.9 -79.25 -32.75 -79.2 -32.6 Q-73.85 -30.0 -59.15 -27.95 L-58.1 -27.8 -58.05 -27.8 -57.95 -27.75 Q-57.8 -32.9 -57.3 -35.35 L-56.5 -41.65 Q-56.1 -45.45 -55.15 -60.85 -54.25 -76.25 -47.25 -96.45 -48.4 -97.55 -50.8 -101.6 -53.25 -105.7 -55.5 -113.4 L-56.7 -111.7 -57.05 -111.2 -58.9 -108.45 Q-60.6 -108.05 -62.1 -107.1 M62.95 -29.5 L63.1 -29.55 Q70.1 -31.0 73.5 -32.6 L74.2 -32.05 Q74.85 -31.4 73.4 -37.35 71.95 -43.35 72.0 -45.05 L69.35 -66.25 Q66.65 -85.75 54.05 -104.95 41.45 -124.15 24.75 -137.35 18.4 -142.05 11.3 -141.5 9.8 -140.3 8.0 -136.2 L7.95 -136.15 Q5.8 -131.4 3.05 -126.85 L2.55 -126.45 -7.2 -123.0 -6.65 -120.8 -5.05 -114.9 Q-4.95 -114.5 -5.15 -114.15 -5.35 -113.8 -15.8 -110.5 -26.25 -107.25 -34.8 -102.15 -43.35 -97.05 -45.25 -96.05 -52.7 -74.5 -53.65 -62.25 L-54.7 -48.7 -54.8 -47.8 -55.4 -38.85 -55.4 -38.75 -55.5 -37.4 -55.5 -37.35 -55.95 -27.5 -51.2 -26.9 -51.05 -26.9 -50.9 -26.9 -13.0 -24.7 -11.7 -24.7 -9.2 -24.65 -2.85 -24.65 Q30.1 -24.65 53.4 -27.95 L62.95 -29.5 M9.75 -146.2 L10.3 -147.45 7.75 -150.5 -10.9 -137.2 -7.7 -124.95 1.55 -128.2 Q4.1 -132.55 6.15 -137.0 8.1 -141.4 9.7 -145.95 L9.7 -146.1 9.75 -146.2 M20.15 -52.85 Q30.35 -54.15 40.3 -56.65 L40.9 -56.6 41.4 -56.25 41.55 -55.7 41.55 -49.7 41.25 -49.0 40.55 -48.7 Q40.15 -48.7 39.85 -49.0 39.65 -49.2 39.6 -49.45 L39.55 -49.7 39.55 -49.95 39.55 -54.4 Q29.95 -52.1 20.1 -50.85 L-6.7 -49.55 -6.7 -45.05 -6.7 -44.55 -6.85 -44.05 -7.0 -43.9 Q-7.3 -43.6 -7.7 -43.6 -8.1 -43.6 -8.4 -43.9 L-8.7 -44.6 -8.7 -50.6 -8.55 -51.1 -8.15 -51.45 -7.65 -51.6 Q6.45 -51.15 20.15 -52.85 M-20.3 -6.75 L-20.3 -6.4 -20.5 -5.8 -20.6 -5.7 Q-20.9 -5.4 -21.3 -5.4 -21.7 -5.4 -22.0 -5.7 L-22.3 -6.4 -22.3 -6.45 -22.3 -9.2 -43.1 -10.6 Q-54.05 -10.05 -61.5 -13.0 -68.9 -14.3 -69.6 -11.05 -63.6 7.55 -35.6 21.45 -18.5 30.0 -1.55 29.95 L-1.5 29.95 -1.4 29.95 Q15.35 29.9 32.05 21.45 42.05 16.4 49.55 10.1 L51.6 8.35 Q63.2 -2.2 64.9 -11.8 65.5 -15.05 60.7 -14.0 L60.7 -13.15 60.4 -12.45 Q60.1 -12.15 59.7 -12.15 L59.4 -12.2 59.0 -12.45 58.95 -12.5 58.75 -12.95 58.7 -13.15 58.7 -14.75 58.7 -14.9 58.7 -25.05 56.7 -24.7 56.7 -12.35 56.7 -12.15 56.65 -11.85 56.4 -11.45 56.35 -11.35 55.7 -11.15 Q55.3 -11.15 55.0 -11.45 54.7 -11.75 54.7 -12.15 L54.7 -12.85 50.7 -12.2 42.5 -11.1 42.35 -11.1 42.25 -11.1 42.2 -11.1 22.2 -9.5 22.2 -7.25 22.2 -7.15 21.9 -6.45 21.2 -6.15 Q20.8 -6.15 20.5 -6.45 L20.45 -6.5 20.2 -7.15 20.2 -7.5 20.2 -10.4 20.2 -10.5 20.2 -21.1 Q9.35 -20.65 -2.9 -20.65 -11.95 -20.65 -20.3 -20.9 L-20.3 -6.75 M22.2 -21.2 L22.2 -11.5 42.0 -13.1 42.1 -13.1 42.25 -13.1 50.4 -14.2 54.7 -14.85 54.7 -24.35 51.95 -23.95 Q38.7 -22.0 22.2 -21.2 M21.15 -23.15 L21.2 -23.15 Q38.1 -23.95 51.65 -25.95 L55.4 -26.5 55.7 -26.55 55.75 -26.55 59.3 -27.15 59.75 -27.3 Q67.5 -28.8 71.0 -30.55 67.9 -29.5 63.3 -28.55 L53.55 -26.95 Q30.2 -23.65 -2.85 -23.65 L-11.7 -23.7 -13.0 -23.7 -51.0 -25.9 -51.15 -25.9 -56.05 -26.5 -56.05 -26.45 -55.9 -25.7 Q-40.7 -23.6 -21.3 -22.95 L-21.25 -22.95 Q-12.5 -22.65 -2.9 -22.65 9.85 -22.65 21.15 -23.15 M69.7 -19.0 L69.75 -19.05 70.35 -19.45 71.75 -28.7 Q68.15 -26.95 60.7 -25.45 L60.7 -16.05 Q66.7 -17.4 69.6 -18.95 L69.7 -19.0 M-37.3 -134.35 Q-48.75 -128.75 -53.45 -119.55 L-53.5 -119.55 -53.85 -119.15 -53.85 -117.6 -53.85 -116.0 Q-53.0 -107.5 -47.45 -99.7 L-46.5 -98.55 -46.15 -99.5 -45.5 -101.2 -45.3 -101.75 -44.6 -103.55 -44.65 -103.55 Q-41.9 -111.05 -40.75 -113.1 -39.05 -124.8 -32.85 -137.2 L-36.55 -134.85 -37.3 -134.35 M-14.1 -135.1 Q-32.0 -124.55 -38.9 -112.3 -39.95 -110.45 -42.75 -102.85 L-42.75 -102.8 -43.2 -101.6 -43.45 -100.95 -43.5 -100.85 -43.65 -100.45 -43.65 -100.5 -44.3 -98.8 -42.1 -100.0 Q-25.3 -109.75 -7.25 -115.3 L-9.35 -123.3 -9.35 -123.4 -9.4 -123.6 -12.65 -136.05 -13.95 -135.2 -14.1 -135.1 M-15.05 -136.85 L-12.6 -138.5 -12.55 -138.5 4.55 -150.7 Q-8.3 -149.75 -20.15 -144.6 -25.3 -142.45 -29.65 -139.1 -35.8 -127.6 -38.05 -116.75 -29.4 -127.5 -15.05 -136.85 M-27.25 -89.65 Q-25.8 -89.65 -24.75 -88.6 -23.7 -87.55 -23.7 -86.1 -23.7 -84.65 -24.75 -83.6 -25.8 -82.55 -27.25 -82.55 -28.7 -82.55 -29.75 -83.6 -30.8 -84.65 -30.8 -86.1 -30.8 -87.55 -29.75 -88.6 -28.7 -89.65 -27.25 -89.65 M-27.25 -88.65 Q-28.3 -88.65 -29.05 -87.9 -29.8 -87.15 -29.8 -86.1 -29.8 -85.05 -29.05 -84.3 -28.3 -83.55 -27.25 -83.55 -26.2 -83.55 -25.45 -84.3 -24.7 -85.05 -24.7 -86.1 -24.7 -87.15 -25.45 -87.9 -26.2 -88.65 -27.25 -88.65 M-30.0 -69.55 Q-28.55 -69.55 -27.5 -68.5 -26.45 -67.45 -26.45 -66.0 -26.45 -64.55 -27.5 -63.5 -28.55 -62.45 -30.0 -62.45 -31.45 -62.45 -32.5 -63.5 -33.55 -64.55 -33.55 -66.0 -33.55 -67.45 -32.5 -68.5 -31.45 -69.55 -30.0 -69.55 M-40.25 -89.6 Q-39.2 -88.55 -39.2 -87.1 -39.2 -85.65 -40.25 -84.6 -41.3 -83.55 -42.75 -83.55 -44.2 -83.55 -45.25 -84.6 -46.3 -85.65 -46.3 -87.1 -46.3 -88.55 -45.25 -89.6 -44.2 -90.65 -42.75 -90.65 -41.3 -90.65 -40.25 -89.6 M-30.0 -63.45 Q-28.95 -63.45 -28.2 -64.2 -27.45 -64.95 -27.45 -66.0 -27.45 -67.05 -28.2 -67.8 -28.95 -68.55 -30.0 -68.55 -31.05 -68.55 -31.8 -67.8 -32.55 -67.05 -32.55 -66.0 -32.55 -64.95 -31.8 -64.2 -31.05 -63.45 -30.0 -63.45 M-42.75 -89.65 Q-43.8 -89.65 -44.55 -88.9 -45.3 -88.15 -45.3 -87.1 -45.3 -86.05 -44.55 -85.3 -43.8 -84.55 -42.75 -84.55 -41.7 -84.55 -40.95 -85.3 -40.2 -86.05 -40.2 -87.1 -40.2 -88.15 -40.95 -88.9 -41.7 -89.65 -42.75 -89.65 M-47.0 -69.8 Q-48.05 -69.8 -48.8 -69.05 -49.55 -68.3 -49.55 -67.25 -49.55 -66.2 -48.8 -65.45 -48.05 -64.7 -47.0 -64.7 -45.95 -64.7 -45.2 -65.45 -44.45 -66.2 -44.45 -67.25 -44.45 -68.3 -45.2 -69.05 -45.95 -69.8 -47.0 -69.8 M-49.75 -51.3 Q-48.3 -51.3 -47.25 -50.25 -46.2 -49.2 -46.2 -47.75 -46.2 -46.3 -47.25 -45.25 -48.3 -44.2 -49.75 -44.2 -51.2 -44.2 -52.25 -45.25 -53.3 -46.3 -53.3 -47.75 -53.3 -49.2 -52.25 -50.25 -51.2 -51.3 -49.75 -51.3 M-49.5 -69.75 Q-48.45 -70.8 -47.0 -70.8 -45.55 -70.8 -44.5 -69.75 -43.45 -68.7 -43.45 -67.25 -43.45 -65.8 -44.5 -64.75 -45.55 -63.7 -47.0 -63.7 -48.45 -63.7 -49.5 -64.75 -50.55 -65.8 -50.55 -67.25 -50.55 -68.7 -49.5 -69.75 M-58.25 -26.8 L-59.3 -26.95 Q-71.1 -28.6 -76.95 -30.6 -71.95 -28.1 -58.0 -26.0 L-58.05 -26.45 -58.05 -26.75 -58.25 -26.8 M-47.95 -49.55 Q-48.7 -50.3 -49.75 -50.3 -50.8 -50.3 -51.55 -49.55 -52.3 -48.8 -52.3 -47.75 -52.3 -46.7 -51.55 -45.95 -50.8 -45.2 -49.75 -45.2 -48.7 -45.2 -47.95 -45.95 -47.2 -46.7 -47.2 -47.75 -47.2 -48.8 -47.95 -49.55 M-63.8 -24.9 Q-72.6 -26.5 -76.85 -28.35 L-75.45 -19.0 -74.55 -18.5 -74.45 -18.5 -74.4 -18.45 Q-70.9 -16.85 -63.8 -15.5 L-63.8 -24.9 M-62.8 -21.4 L-62.8 -14.65 Q-54.35 -10.65 -40.75 -11.75 L-40.7 -11.75 -40.55 -11.75 -40.55 -12.4 -40.55 -22.55 -62.8 -25.25 -62.8 -21.4 M-28.95 -46.5 Q-28.95 -45.05 -30.0 -44.0 -31.05 -42.95 -32.5 -42.95 -33.95 -42.95 -35.0 -44.0 -36.05 -45.05 -36.05 -46.5 -36.05 -47.95 -35.0 -49.0 -33.95 -50.05 -32.5 -50.05 -31.05 -50.05 -30.0 -49.0 -28.95 -47.95 -28.95 -46.5 M-34.3 -44.7 Q-33.55 -43.95 -32.5 -43.95 -31.45 -43.95 -30.7 -44.7 -29.95 -45.45 -29.95 -46.5 -29.95 -47.55 -30.7 -48.3 -31.45 -49.05 -32.5 -49.05 -33.55 -49.05 -34.3 -48.3 -35.05 -47.55 -35.05 -46.5 -35.05 -45.45 -34.3 -44.7 M-39.55 -12.3 L-22.3 -11.25 -22.3 -20.95 -39.55 -21.95 -39.55 -12.3" fill="#443d0b" fill-rule="evenodd" stroke="none"/>
    <path d="M-62.1 -107.1 Q-60.6 -108.05 -58.9 -108.45 L-57.65 -108.65 -57.05 -108.5 -56.6 -108.0 -56.55 -107.4 Q-57.3 -104.5 -56.85 -101.65 L-54.3 -101.65 -53.6 -101.35 -53.3 -100.65 -53.35 -94.05 -54.4 -94.25 -54.35 -94.2 -56.4 -94.65 Q-58.05 -97.5 -58.6 -100.3 L-58.65 -100.35 -58.65 -100.45 -58.65 -100.5 -58.7 -100.6 Q-59.3 -103.45 -58.85 -106.3 L-60.7 -105.5 Q-64.2 -103.45 -66.6 -98.0 L-68.45 -98.8 Q-65.85 -104.75 -62.1 -107.1 M-55.3 -99.65 L-56.4 -99.65 -55.3 -96.9 -55.3 -99.65" fill="#223039" fill-rule="evenodd" stroke="none"/>
    <path d="M-56.4 -94.65 Q-61.75 -95.85 -66.6 -98.0 -64.2 -103.45 -60.7 -105.5 L-58.85 -106.3 Q-59.3 -103.45 -58.7 -100.6 L-58.65 -100.5 -58.65 -100.45 -58.65 -100.35 -58.6 -100.3 Q-58.05 -97.5 -56.4 -94.65" fill="#82a1b5" fill-rule="evenodd" stroke="none"/>
    <path d="M-40.75 -11.75 Q-54.35 -10.65 -62.8 -14.65 L-62.8 -21.4 Q-46.8 -20.1 -40.8 -12.4 L-40.75 -11.75" fill="#d58e2f" fill-rule="evenodd" stroke="none"/>
    <path d="M-40.55 -12.4 L-40.55 -11.75 -40.7 -11.75 -40.75 -11.75 -40.8 -12.4 -40.55 -12.4" fill="#b17034" fill-rule="evenodd" stroke="none"/>
    <path d="M-62.8 -21.4 L-62.8 -25.25 -40.55 -22.55 -40.55 -12.4 -40.8 -12.4 Q-46.8 -20.1 -62.8 -21.4" fill="#b37624" fill-rule="evenodd" stroke="none"/>
  </g>
</svg>
