<?xml version="1.0" encoding="UTF-8" standalone="no"?>
<svg xmlns:ffdec="https://www.free-decompiler.com/flash" xmlns:xlink="http://www.w3.org/1999/xlink" ffdec:objectType="shape" height="30.85px" width="41.2px" xmlns="http://www.w3.org/2000/svg">
  <g transform="matrix(1.0, 0.0, 0.0, 1.0, 30.55, 10.1)">
    <path d="M8.6 -10.0 L8.75 -10.1 10.2 -3.35 Q11.05 1.85 10.25 9.35 L10.0 9.95 9.8 10.35 Q0.75 22.65 -14.6 20.4 -22.65 19.1 -27.4 10.95 -29.45 6.3 -30.55 4.45 L-30.15 4.1 -29.4 4.05 Q-21.4 6.85 -12.85 5.55 1.1 3.15 7.6 -9.45 7.8 -9.8 8.2 -9.95 L8.55 -10.0 8.6 -10.0 M-22.95 7.7 Q-22.1 8.35 -21.1 9.55 L-20.9 9.55 Q-18.95 10.4 -14.05 10.4 -9.5 10.4 -3.9 8.75 -0.5 7.7 2.25 5.9 L6.35 2.3 Q7.65 1.45 8.6 0.05 L8.2 -5.45 8.1 -6.25 Q1.1 5.15 -12.5 7.5 L-12.55 7.5 Q-17.85 8.35 -22.95 7.65 L-24.3 7.45 -28.1 6.6 Q-26.75 8.15 -25.7 9.95 L-25.65 9.95 Q-21.45 17.2 -14.3 18.45 L-14.3 18.4 Q-5.55 19.7 1.0 15.85 L2.0 15.25 1.75 15.4 1.7 15.1 1.7 13.85 Q1.55 6.55 8.05 6.55 L8.5 6.6 8.65 1.75 Q7.2 3.85 3.7 6.3 -3.75 11.55 -14.4 11.55 -18.4 11.55 -20.5 10.7 L-21.0 10.85 -26.1 7.1 -24.3 7.5 -22.95 7.7 M8.35 8.2 L8.4 7.7 Q5.1 7.55 4.1 8.85 L3.3 11.4 Q2.9 12.25 2.65 14.8 5.7 12.55 8.2 9.15 L8.25 9.1 8.35 8.2" fill="#463624" fill-rule="evenodd" stroke="none"/>
    <path d="M-22.95 7.65 Q-17.85 8.35 -12.55 7.5 L-12.5 7.5 Q1.1 5.15 8.1 -6.25 L8.2 -5.45 8.6 0.05 Q7.65 1.45 6.35 2.3 L2.25 5.9 Q-0.5 7.7 -3.9 8.75 -9.5 10.4 -14.05 10.4 -18.95 10.4 -20.9 9.55 L-21.1 9.55 Q-22.1 8.35 -22.95 7.7 L-22.95 7.65" fill="#e5e5e5" fill-rule="evenodd" stroke="none"/>
    <path d="M8.35 8.2 L8.25 9.1 8.2 9.15 Q5.7 12.55 2.65 14.8 2.9 12.25 3.3 11.4 L4.1 8.85 Q5.1 7.55 8.4 7.7 L8.35 8.2" fill="#b45f50" fill-rule="evenodd" stroke="none"/>
    <path d="M-22.95 7.7 L-24.3 7.5 -26.1 7.1 -21.0 10.85 -20.5 10.7 Q-18.4 11.55 -14.4 11.55 -3.75 11.55 3.7 6.3 7.2 3.85 8.65 1.75 L8.5 6.6 8.05 6.55 Q1.55 6.55 1.7 13.85 L1.7 15.1 1.75 15.4 2.0 15.25 1.0 15.85 Q-5.55 19.7 -14.3 18.4 L-14.3 18.45 Q-21.45 17.2 -25.65 9.95 L-25.7 9.95 Q-26.75 8.15 -28.1 6.6 L-24.3 7.45 -22.95 7.65 -22.95 7.7" fill="#57352d" fill-rule="evenodd" stroke="none"/>
  </g>
</svg>
