<?xml version="1.0" encoding="UTF-8" standalone="no"?>
<svg xmlns:ffdec="https://www.free-decompiler.com/flash" xmlns:xlink="http://www.w3.org/1999/xlink" ffdec:objectType="shape" height="30.85px" width="41.2px" xmlns="http://www.w3.org/2000/svg">
  <g transform="matrix(1.0, 0.0, 0.0, 1.0, 30.55, 10.1)">
    <path d="M8.6 -0.05 L8.2 -5.45 8.1 -6.25 Q1.1 5.15 -12.5 7.5 L-12.55 7.5 Q-17.8 8.35 -22.85 7.65 L-23.6 7.5 -23.9 7.55 -24.3 7.45 -28.1 6.6 -26.95 8.0 -26.4 8.85 -25.7 9.95 -25.65 9.95 -25.6 10.05 -24.9 11.2 -24.9 11.15 -24.7 11.1 -20.65 13.8 -17.9 13.1 -17.5 13.0 -15.4 12.55 -15.25 12.5 -14.35 12.5 -14.25 12.75 -14.3 13.0 -14.35 13.0 Q-16.05 13.35 -19.3 14.55 L-19.8 16.05 -19.8 16.15 -19.85 16.3 -17.7 17.45 -14.3 18.45 -14.3 18.4 Q-5.55 19.7 1.0 15.85 L1.45 15.6 1.75 15.4 5.55 12.2 6.15 11.6 8.2 9.15 8.25 9.1 8.25 9.05 8.5 9.05 8.55 8.25 Q7.6 7.45 7.05 7.45 4.8 7.45 3.05 8.25 L3.0 8.3 2.95 8.3 2.4 8.65 1.35 9.2 1.3 9.2 1.2 9.2 0.7 9.2 0.6 9.0 Q0.6 8.6 2.0 7.95 L2.45 7.75 2.5 7.75 3.0 7.55 3.95 7.2 4.05 7.15 4.2 7.1 7.35 5.85 Q8.1 4.75 8.65 3.1 L8.65 3.85 8.7 3.05 8.7 3.0 8.65 0.85 8.55 0.15 8.6 0.05 8.6 -0.05 M1.45 15.6 L0.75 16.15 1.45 15.6 M8.75 -10.1 L10.2 -3.35 Q11.05 1.85 10.25 9.35 L10.0 9.95 9.8 10.35 Q0.75 22.65 -14.6 20.4 -22.65 19.1 -27.4 10.95 -29.45 6.3 -30.55 4.45 L-30.15 4.1 -29.4 4.05 Q-21.4 6.85 -12.85 5.55 1.1 3.15 7.6 -9.45 7.8 -9.8 8.2 -9.95 L8.55 -10.0 8.6 -10.0 8.75 -10.1 M-20.0 16.2 L-20.85 15.6 -20.9 15.15 -22.7 13.7 Q-23.05 13.45 -23.3 13.3 L-23.15 13.5 -21.45 15.1 -20.0 16.2" fill="#463624" fill-rule="evenodd" stroke="none"/>
    <path d="M-24.9 11.2 L-25.6 10.05 -25.65 9.95 -25.7 9.95 -26.4 8.85 -26.95 8.0 -28.1 6.6 -24.3 7.45 -23.9 7.55 -23.6 7.5 -22.85 7.65 Q-17.8 8.35 -12.55 7.5 L-12.5 7.5 Q1.1 5.15 8.1 -6.25 L8.2 -5.45 8.6 -0.05 8.55 0.0 8.45 0.15 8.55 0.15 8.65 0.85 8.7 3.0 8.7 3.05 8.65 3.1 Q8.1 4.75 7.35 5.85 L4.2 7.1 4.05 7.15 3.95 7.2 3.0 7.55 2.5 7.75 2.45 7.75 2.25 7.75 2.0 7.95 Q0.6 8.6 0.6 9.0 L0.7 9.2 1.2 9.2 1.3 9.2 1.35 9.2 2.4 8.65 2.95 8.3 3.0 8.3 3.05 8.3 3.05 8.25 Q4.8 7.45 7.05 7.45 7.6 7.45 8.55 8.25 L8.5 9.05 8.25 9.05 8.25 9.1 8.2 9.15 6.15 11.6 5.55 12.2 Q5.35 8.95 2.75 8.95 L0.3 9.65 0.05 9.6 -0.05 9.3 Q-0.05 8.6 4.0 5.55 L4.95 3.95 1.75 5.8 Q-3.0 7.85 -4.8 8.3 -11.15 9.8 -14.9 9.8 L-23.4 9.05 -26.15 8.25 Q-22.6 12.55 -17.3 12.55 L-13.0 12.3 -10.45 12.4 Q-10.35 12.45 -10.4 12.65 -11.55 13.4 -15.2 14.95 -16.6 15.85 -17.1 17.65 L-17.7 17.45 -19.85 16.3 -19.8 16.15 -19.8 16.1 -19.8 16.05 -19.3 14.55 Q-16.05 13.35 -14.35 13.0 L-14.3 13.0 -14.25 12.75 -14.35 12.5 -15.25 12.5 -15.4 12.55 -17.5 13.0 -17.9 13.1 -20.65 13.8 -24.7 11.1 -24.9 11.15 -24.9 11.2" fill="#e5e5e5" fill-rule="evenodd" stroke="none"/>
    <path d="M8.6 -0.05 L8.6 0.05 8.55 0.15 8.45 0.15 8.55 0.0 8.6 -0.05 M2.45 7.75 L2.0 7.95 2.25 7.75 2.45 7.75 M3.0 8.3 L3.05 8.25 3.05 8.3 3.0 8.3 M5.55 12.2 L1.75 15.4 1.45 15.6 1.0 15.85 Q-5.55 19.7 -14.3 18.4 L-14.3 18.45 -17.7 17.45 -17.1 17.65 Q-16.6 15.85 -15.2 14.95 -11.55 13.4 -10.4 12.65 -10.35 12.45 -10.45 12.4 L-13.0 12.3 -17.3 12.55 Q-22.6 12.55 -26.15 8.25 L-23.4 9.05 -14.9 9.8 Q-11.15 9.8 -4.8 8.3 -3.0 7.85 1.75 5.8 L4.95 3.95 4.0 5.55 Q-0.05 8.6 -0.05 9.3 L0.05 9.6 0.3 9.65 2.75 8.95 Q5.35 8.95 5.55 12.2" fill="#f9f9f9" fill-rule="evenodd" stroke="none"/>
    <path d="M-19.8 16.15 L-19.8 16.05 -19.8 16.1 -19.8 16.15 M-20.0 16.2 L-21.45 15.1 -23.15 13.5 -23.3 13.3 Q-23.05 13.45 -22.7 13.7 L-20.9 15.15 -20.85 15.6 -20.0 16.2" fill="#57352d" fill-rule="evenodd" stroke="none"/>
  </g>
</svg>
