<?xml version="1.0" encoding="UTF-8" standalone="no"?>
<svg xmlns:ffdec="https://www.free-decompiler.com/flash" xmlns:xlink="http://www.w3.org/1999/xlink" ffdec:objectType="shape" height="14.65px" width="27.85px" xmlns="http://www.w3.org/2000/svg">
  <g transform="matrix(1.0, 0.0, 0.0, 1.0, 18.6, -1.5)">
    <path d="M-15.25 14.2 L-15.05 14.3 -14.1 14.7 Q-2.35 15.85 3.0 12.7 7.35 10.15 7.35 7.4 7.35 3.25 -0.25 3.25 -8.05 3.25 -13.3 6.55 L-17.05 9.35 -16.35 10.3 -15.75 11.05 Q-13.95 9.35 -8.25 9.1 L-7.0 9.35 -6.9 9.5 -11.25 10.85 Q-12.15 11.15 -14.0 12.45 L-14.0 12.5 -14.1 12.7 -15.15 14.0 -15.5 14.1 -15.25 14.2 M9.25 7.75 Q9.25 10.2 5.85 12.75 1.35 16.1 -6.25 16.1 L-10.85 16.0 -10.9 16.0 -12.1 16.15 Q-19.0 16.15 -18.55 10.55 L-18.45 9.75 Q-17.8 6.8 -11.65 4.2 -5.35 1.5 1.0 1.5 6.75 1.5 8.5 4.2 9.25 5.3 9.25 7.75" fill="#463624" fill-rule="evenodd" stroke="none"/>
    <path d="M-15.15 14.0 L-14.1 12.7 -14.0 12.5 -14.0 12.45 Q-12.15 11.15 -11.25 10.85 L-6.9 9.5 -7.0 9.35 -8.25 9.1 Q-13.95 9.35 -15.75 11.05 L-16.35 10.3 -17.05 9.35 -13.3 6.55 Q-8.05 3.25 -0.25 3.25 7.35 3.25 7.35 7.4 7.35 10.15 3.0 12.7 -2.35 15.85 -14.1 14.7 L-15.05 14.3 -15.25 14.2 -15.15 14.0" fill="#e5e5e5" fill-rule="evenodd" stroke="none"/>
  </g>
</svg>
