<?xml version="1.0" encoding="UTF-8" standalone="no"?>
<svg xmlns:ffdec="https://www.free-decompiler.com/flash" xmlns:xlink="http://www.w3.org/1999/xlink" ffdec:objectType="shape" height="25.9px" width="35.65px" xmlns="http://www.w3.org/2000/svg">
  <g transform="matrix(1.0, 0.0, 0.0, 1.0, 23.8, 5.8)">
    <path d="M-16.05 3.95 L-12.3 1.35 Q-4.45 -3.75 1.0 -3.75 6.3 -3.75 8.9 0.55 L9.95 2.65 9.45 2.35 Q8.85 1.7 6.25 1.7 L4.75 1.75 Q-10.25 7.35 -11.75 7.35 -12.25 7.35 -14.15 5.55 L-16.05 3.95" fill="#e5e5e5" fill-rule="evenodd" stroke="none"/>
    <path d="M10.3 -0.25 Q11.6 2.55 11.85 5.6 11.85 10.75 9.75 13.5 4.65 20.1 -11.1 20.1 L-18.95 20.05 -19.1 19.8 Q-18.9 19.4 -19.05 19.1 L-18.9 17.75 -18.8 15.25 Q-18.8 8.75 -21.7 8.75 -22.25 8.75 -23.25 9.6 -23.8 9.4 -23.8 8.8 -7.1 -5.8 2.6 -5.8 7.7 -5.8 10.3 -0.25 M10.45 4.2 L10.35 4.2 Q9.05 4.2 8.65 3.6 8.3 3.0 6.05 3.0 2.4 3.0 -4.2 5.75 -10.75 8.5 -11.6 8.5 -13.45 8.5 -16.9 4.6 L-17.55 5.15 -20.4 7.75 Q-17.95 9.55 -17.6 12.85 -17.45 14.75 -17.55 18.5 L-11.0 18.75 Q-4.55 18.75 0.0 17.65 L0.05 17.65 0.85 17.4 -0.05 17.65 -0.1 17.4 Q-0.1 16.95 0.65 16.55 1.4 16.2 1.4 15.85 0.65 15.65 0.0 15.1 -2.75 17.6 -5.25 17.6 -9.1 17.6 -9.1 14.65 -9.1 12.85 -7.5 10.6 -5.0 7.15 -0.25 7.15 4.3 7.15 7.0 9.5 8.8 11.05 9.0 12.4 11.25 9.3 10.6 5.75 L10.45 4.25 10.35 3.75 10.45 4.2 M-16.05 3.95 L-14.15 5.55 Q-12.25 7.35 -11.75 7.35 -10.25 7.35 4.75 1.75 L6.25 1.7 Q8.85 1.7 9.45 2.35 L9.95 2.65 8.9 0.55 Q6.3 -3.75 1.0 -3.75 -4.45 -3.75 -12.3 1.35 L-16.05 3.95 -16.55 4.3 -16.05 3.95 M5.7 15.35 L8.15 13.4 7.6 12.7 6.75 10.95 Q5.0 8.4 -0.25 8.4 -6.1 8.4 -7.65 13.15 L-8.0 14.4 Q-8.0 16.25 -5.85 16.25 -2.8 16.25 -0.55 14.15 1.0 12.7 1.6 11.0 L2.0 10.85 2.35 11.2 2.05 12.65 1.3 13.85 1.2 13.95 1.35 13.9 1.7 13.9 2.0 13.95 3.65 14.75 3.75 14.9 3.9 15.2 3.9 15.3 4.0 16.0 3.9 16.3 4.1 16.2 5.7 15.35 M2.6 11.9 L2.25 12.65 2.25 12.3 2.35 11.25 2.55 11.2 2.6 10.55 2.6 11.9" fill="#463624" fill-rule="evenodd" stroke="none"/>
    <path d="M0.0 17.65 Q-4.55 18.75 -11.0 18.75 L-17.55 18.5 Q-17.45 14.75 -17.6 12.85 -17.95 9.55 -20.4 7.75 L-17.55 5.15 -16.9 4.6 Q-13.45 8.5 -11.6 8.5 -10.75 8.5 -4.2 5.75 2.4 3.0 6.05 3.0 8.3 3.0 8.65 3.6 9.05 4.2 10.35 4.2 L10.45 4.2 10.45 4.25 10.6 5.75 Q11.25 9.3 9.0 12.4 8.8 11.05 7.0 9.5 4.3 7.15 -0.25 7.15 -5.0 7.15 -7.5 10.6 -9.1 12.85 -9.1 14.65 -9.1 17.6 -5.25 17.6 -2.75 17.6 0.0 15.1 0.65 15.65 1.4 15.85 1.4 16.2 0.65 16.55 -0.1 16.95 -0.1 17.4 L-0.05 17.65 0.0 17.65" fill="#57352d" fill-rule="evenodd" stroke="none"/>
    <path d="M5.7 15.35 L5.75 14.75 Q5.25 10.15 2.1 10.15 L0.4 12.35 Q-1.3 14.5 -4.25 14.5 -6.55 14.5 -7.65 13.15 -6.1 8.4 -0.25 8.4 5.0 8.4 6.75 10.95 L7.6 12.7 8.15 13.4 5.7 15.35 M2.05 12.65 L1.7 13.9 1.35 13.9 1.3 13.85 2.05 12.65" fill="#b45f50" fill-rule="evenodd" stroke="none"/>
    <path d="M-7.65 13.15 Q-6.55 14.5 -4.25 14.5 -1.3 14.5 0.4 12.35 L2.1 10.15 Q5.25 10.15 5.75 14.75 L5.7 15.35 4.1 16.2 4.0 16.0 3.9 15.3 3.9 15.2 3.75 14.9 3.65 14.75 2.0 13.95 1.7 13.9 2.05 12.65 2.35 11.2 2.0 10.85 1.6 11.0 Q1.0 12.7 -0.55 14.15 -2.8 16.25 -5.85 16.25 -8.0 16.25 -8.0 14.4 L-7.65 13.15 M2.6 11.9 L2.6 10.55 2.55 11.2 2.35 11.25 2.25 12.3 2.25 12.65 2.6 11.9" fill="#a05345" fill-rule="evenodd" stroke="none"/>
  </g>
</svg>
