<?xml version="1.0" encoding="UTF-8" standalone="no"?>
<svg xmlns:ffdec="https://www.free-decompiler.com/flash" xmlns:xlink="http://www.w3.org/1999/xlink" ffdec:objectType="shape" height="16.6px" width="36.9px" xmlns="http://www.w3.org/2000/svg">
  <g transform="matrix(1.0, 0.0, 0.0, 1.0, 28.15, 4.6)">
    <path d="M3.7 -4.5 Q4.6 -4.4 3.9 -4.4 L3.45 -4.15 Q8.2 -4.1 8.75 3.1 5.7 12.2 0.7 12.0 -4.35 11.75 -10.3 10.5 -16.0 9.3 -19.5 7.65 -24.4 7.45 -26.65 6.05 L-28.15 3.45 Q-18.45 6.75 -8.7 3.45 -1.95 1.0 2.9 -4.4 L3.7 -4.5 M6.75 2.85 Q6.75 -0.1 2.1 -1.1 0.75 0.85 -3.4 3.7 -7.35 6.35 -12.35 7.25 L-8.5 8.15 -2.25 9.45 -1.1 9.9 -0.95 8.3 Q-0.75 6.85 0.4 4.55 1.55 2.2 3.25 2.25 4.95 2.25 6.25 2.75 L6.75 2.95 6.75 2.85 M6.3 4.35 L2.75 4.1 Q1.5 4.1 0.65 6.75 -0.05 8.8 0.3 10.1 0.6 9.75 2.05 9.75 3.4 9.75 5.15 6.6 L6.35 4.35 6.5 3.95 6.3 4.35" fill="#463624" fill-rule="evenodd" stroke="none"/>
    <path d="M6.75 2.95 L6.25 2.75 Q4.95 2.25 3.25 2.25 1.55 2.2 0.4 4.55 -0.75 6.85 -0.95 8.3 L-1.1 9.9 -2.25 9.45 -8.5 8.15 -12.35 7.25 Q-7.35 6.35 -3.4 3.7 0.75 0.85 2.1 -1.1 6.75 -0.1 6.75 2.85 L6.75 2.95" fill="#57352d" fill-rule="evenodd" stroke="none"/>
    <path d="M6.35 4.35 L5.15 6.6 Q3.4 9.75 2.05 9.75 0.6 9.75 0.3 10.1 -0.05 8.8 0.65 6.75 1.5 4.1 2.75 4.1 L6.3 4.35 6.35 4.35" fill="#b45f50" fill-rule="evenodd" stroke="none"/>
  </g>
</svg>
