<?xml version="1.0" encoding="UTF-8" standalone="no"?>
<svg xmlns:ffdec="https://www.free-decompiler.com/flash" xmlns:xlink="http://www.w3.org/1999/xlink" ffdec:objectType="shape" height="58.3px" width="89.6px" xmlns="http://www.w3.org/2000/svg">
  <g transform="matrix(1.0, 0.0, 0.0, 1.0, 37.95, 13.15)">
    <path d="M47.95 44.15 Q44.0 32.25 35.95 35.4 24.45 23.0 21.7 10.15 17.05 13.55 11.45 13.15 -24.9 6.35 -32.05 15.15 -37.75 10.05 -36.8 4.9 -15.2 -14.3 12.7 -11.85 34.55 -11.7 50.2 12.15 51.75 28.6 47.95 44.15" fill="#2d251e" fill-rule="evenodd" stroke="none"/>
    <path d="M47.95 44.15 Q44.0 32.25 35.95 35.4 24.45 23.0 21.7 10.15 17.05 13.55 11.45 13.15 -24.9 6.35 -32.05 15.15 -37.75 10.05 -36.8 4.9 -15.2 -14.3 12.7 -11.85 34.55 -11.7 50.2 12.15 51.75 28.6 47.95 44.15 Z" fill="none" stroke="#000000" stroke-linecap="round" stroke-linejoin="round" stroke-width="2.0"/>
  </g>
</svg>
