<?xml version="1.0" encoding="UTF-8" standalone="no"?>
<svg xmlns:ffdec="https://www.free-decompiler.com/flash" xmlns:xlink="http://www.w3.org/1999/xlink" ffdec:objectType="shape" height="467.95px" width="627.95px" xmlns="http://www.w3.org/2000/svg">
  <g transform="matrix(1.0, 0.0, 0.0, 1.0, 14.0, 8.0)">
    <path d="M-14.0 185.75 Q-12.9 187.35 -11.4 188.35 36.3 219.15 96.0 237.65 155.7 256.1 163.0 287.2 170.3 318.25 206.45 329.4 242.6 340.55 257.85 340.7 273.1 340.8 299.8 325.15 326.5 309.5 348.05 321.3 369.55 333.05 409.1 327.3 537.1 308.65 612.95 202.0 L613.95 171.3 613.95 459.95 -14.0 459.95 -14.0 185.75" fill="#594d4a" fill-rule="evenodd" stroke="none"/>
    <path d="M613.95 171.3 L612.95 202.0 Q537.1 308.65 409.1 327.3 369.55 333.05 348.05 321.3 326.5 309.5 299.8 325.15 273.1 340.8 257.85 340.7 242.6 340.55 206.45 329.4 170.3 318.25 163.0 287.2 155.7 256.1 96.0 237.65 36.3 219.15 -11.4 188.35 -12.9 187.35 -14.0 185.75 L-14.0 -8.0 613.95 -8.0 613.95 171.3" fill="#473d3a" fill-rule="evenodd" stroke="none"/>
  </g>
</svg>
