<?xml version="1.0" encoding="UTF-8" standalone="no"?>
<svg xmlns:ffdec="https://www.free-decompiler.com/flash" xmlns:xlink="http://www.w3.org/1999/xlink" ffdec:objectType="shape" height="186.7px" width="199.8px" xmlns="http://www.w3.org/2000/svg">
  <g transform="matrix(1.0, 0.0, 0.0, 1.0, 99.9, 93.35)">
    <path d="M97.65 25.95 Q93.3 45.05 78.3 58.1 64.4 70.3 49.5 81.0 34.6 91.65 13.85 93.1 -6.95 94.5 -25.95 88.7 -44.9 82.85 -57.6 73.7 -70.3 64.5 -81.15 48.25 -91.75 32.35 -96.6 13.9 -101.25 -3.95 -99.35 -22.15 -97.4 -40.6 -87.2 -56.1 -80.65 -66.05 -70.9 -73.35 -54.8 -85.1 -34.95 -87.0 L-23.9 -87.95 Q-20.7 -88.4 -17.55 -89.5 1.1 -95.95 20.45 -91.6 39.65 -87.5 55.45 -76.2 71.75 -64.5 82.9 -47.85 93.8 -31.7 97.9 -12.6 102.05 6.7 97.65 25.95 M-69.3 -70.85 Q-84.8 -59.2 -91.5 -41.15 -98.1 -23.3 -96.65 -4.15 -95.25 13.85 -87.7 30.1 -79.55 47.6 -68.1 59.4 -56.7 71.15 -40.45 77.9 -24.2 84.6 -3.35 87.8 17.5 90.95 32.85 83.55 48.15 76.15 60.85 59.75 73.55 43.3 73.75 24.05 73.95 3.75 66.2 -14.9 58.8 -32.6 46.4 -47.25 34.4 -61.4 18.5 -70.65 2.8 -79.85 -15.15 -83.1 -33.1 -86.4 -47.8 -81.75 -62.5 -77.15 -69.3 -70.85" fill="#000000" fill-rule="evenodd" stroke="none"/>
    <path d="M-69.3 -70.85 Q-62.5 -77.15 -47.8 -81.75 -33.1 -86.4 -15.15 -83.1 2.8 -79.85 18.5 -70.65 34.4 -61.4 46.4 -47.25 58.8 -32.6 66.2 -14.9 73.95 3.75 73.75 24.05 73.55 43.3 60.85 59.75 48.15 76.15 32.85 83.55 17.5 90.95 -3.35 87.8 -24.2 84.6 -40.45 77.9 -56.7 71.15 -68.1 59.4 -79.55 47.6 -87.7 30.1 -95.25 13.85 -96.65 -4.15 -98.1 -23.3 -91.5 -41.15 -84.8 -59.2 -69.3 -70.85 M-24.2 -71.5 Q-44.4 -72.05 -59.55 -58.7 -73.95 -46.15 -80.7 -28.3 -87.55 -10.1 -82.8 8.9 L-80.95 15.3 Q-75.25 34.5 -62.05 49.75 -49.1 64.7 -31.3 73.05 -13.6 81.4 6.0 81.3 26.3 80.05 40.35 65.25 53.85 51.0 59.1 32.2 64.45 13.0 58.15 -6.0 52.2 -23.8 40.25 -38.35 28.35 -52.85 11.9 -61.8 -5.0 -71.0 -24.2 -71.5 M-19.0 -4.95 Q-25.9 1.8 -20.65 10.25 -15.0 19.25 -5.55 16.0 -2.0 14.85 -1.25 10.85 0.6 1.2 -7.95 -4.4 -13.3 -7.9 -19.0 -4.95 M-20.7 -7.45 Q-16.2 -10.6 -9.15 -8.0 -1.05 -5.0 1.55 3.3 4.75 13.6 -4.3 18.75 -9.05 21.35 -14.2 19.15 -26.45 13.85 -25.25 0.6 -24.8 -4.4 -20.7 -7.45" fill="#333333" fill-rule="evenodd" stroke="none"/>
    <path d="M-24.2 -71.5 Q-5.0 -71.0 11.9 -61.8 28.35 -52.85 40.25 -38.35 52.2 -23.8 58.15 -6.0 64.45 13.0 59.1 32.2 53.85 51.0 40.35 65.25 26.3 80.05 6.0 81.3 -13.6 81.4 -31.3 73.05 -49.1 64.7 -62.05 49.75 -75.25 34.5 -80.95 15.3 L-82.8 8.9 Q-87.55 -10.1 -80.7 -28.3 -73.95 -46.15 -59.55 -58.7 -44.4 -72.05 -24.2 -71.5 M34.6 -10.65 Q27.3 -24.45 14.95 -34.05 -0.6 -46.25 -20.4 -47.95 -32.3 -48.85 -42.3 -43.0 -59.35 -33.15 -65.75 -14.1 -68.45 -6.0 -67.65 2.55 -65.9 21.0 -55.05 36.2 -43.7 52.05 -25.7 59.6 -14.1 64.5 -1.6 64.35 18.95 64.05 31.15 47.25 38.55 37.05 40.8 25.05 44.3 6.05 34.6 -10.65" fill="#3a3a3a" fill-rule="evenodd" stroke="none"/>
    <path d="M34.6 -10.65 Q44.3 6.05 40.8 25.05 38.55 37.05 31.15 47.25 18.95 64.05 -1.6 64.35 -14.1 64.5 -25.7 59.6 -43.7 52.05 -55.05 36.2 -65.9 21.0 -67.65 2.55 -68.45 -6.0 -65.75 -14.1 -59.35 -33.15 -42.3 -43.0 -32.3 -48.85 -20.4 -47.95 -0.6 -46.25 14.95 -34.05 27.3 -24.45 34.6 -10.65 M16.2 48.45 Q33.5 37.85 34.55 17.5 35.55 -2.8 23.25 -19.15 12.95 -33.8 -3.95 -40.1 -15.75 -44.5 -28.15 -42.2 -38.6 -40.1 -46.1 -32.5 -60.0 -18.4 -57.7 1.75 -55.55 20.4 -43.15 34.6 -30.35 49.35 -11.5 53.25 3.35 56.35 16.2 48.45" fill="#272727" fill-rule="evenodd" stroke="none"/>
    <path d="M16.2 48.45 Q3.35 56.35 -11.5 53.25 -30.35 49.35 -43.15 34.6 -55.55 20.4 -57.7 1.75 -60.0 -18.4 -46.1 -32.5 -38.6 -40.1 -28.15 -42.2 -15.75 -44.5 -3.95 -40.1 12.95 -33.8 23.25 -19.15 35.55 -2.8 34.55 17.5 33.5 37.85 16.2 48.45 M31.4 19.55 Q33.2 -0.85 20.85 -17.4 9.5 -33.3 -9.15 -35.4 -28.85 -38.3 -40.4 -30.55 -51.95 -22.85 -54.8 -7.65 -57.65 7.5 -46.85 24.85 -35.9 42.35 -16.3 48.95 3.9 55.65 19.85 42.0 30.2 33.15 31.4 19.55" fill="#191919" fill-rule="evenodd" stroke="none"/>
    <path d="M31.4 19.55 Q30.2 33.15 19.85 42.0 3.9 55.65 -16.3 48.95 -35.9 42.35 -46.85 24.85 -57.65 7.5 -54.8 -7.65 -51.95 -22.85 -40.4 -30.55 -28.85 -38.3 -9.15 -35.4 9.5 -33.3 20.85 -17.4 33.2 -0.85 31.4 19.55 M-20.7 -7.45 Q-24.8 -4.4 -25.25 0.6 -26.45 13.85 -14.2 19.15 -9.05 21.35 -4.3 18.75 4.75 13.6 1.55 3.3 -1.05 -5.0 -9.15 -8.0 -16.2 -10.6 -20.7 -7.45" fill="#999999" fill-rule="evenodd" stroke="none"/>
    <path d="M-19.0 -4.95 Q-13.3 -7.9 -7.95 -4.4 0.6 1.2 -1.25 10.85 -2.0 14.85 -5.55 16.0 -15.0 19.25 -20.65 10.25 -25.9 1.8 -19.0 -4.95" fill="#666666" fill-rule="evenodd" stroke="none"/>
  </g>
</svg>
