<?xml version="1.0" encoding="UTF-8" standalone="no"?>
<svg xmlns:ffdec="https://www.free-decompiler.com/flash" xmlns:xlink="http://www.w3.org/1999/xlink" ffdec:objectType="shape" height="141.65px" width="93.1px" xmlns="http://www.w3.org/2000/svg">
  <g transform="matrix(1.0, 0.0, 0.0, 1.0, 59.6, 66.75)">
    <path d="M-10.2 70.9 L-0.9 71.95 2.0 71.75 -10.2 70.9 M-45.8 -51.2 L-46.25 -50.85 -46.35 -51.85 -47.55 -51.75 -45.55 -53.25 -45.8 -51.2 M-48.0 -51.45 L-48.1 -50.0 -44.2 -51.15 -44.15 -50.15 -58.5 -40.1 -59.6 -43.05 -48.0 -51.45 M18.25 71.25 L17.5 71.0 12.0 72.25 18.25 71.25 M10.0 71.25 L4.0 71.55 7.5 72.25 10.55 72.05 10.0 71.25 M32.5 63.35 L32.5 64.35 Q3.0 83.6 -28.35 67.75 L-27.6 67.15 Q-31.4 66.05 -35.1 64.1 -45.95 58.5 -52.85 48.3 -39.45 61.4 -22.0 67.8 L-23.8 64.7 -23.0 64.55 Q-6.2 73.5 12.05 67.9 L13.0 68.8 19.35 67.1 19.05 65.65 Q25.7 60.45 33.5 57.2 L32.55 58.9 Q30.45 62.25 27.1 64.55 L31.0 63.35 30.75 64.25 32.5 63.35 M24.25 -42.35 L24.75 -43.1 28.15 -43.4 31.4 -38.9 30.5 -38.85 24.25 -42.35 M7.55 -51.75 L7.0 -53.35 Q11.45 -51.85 15.25 -48.95 21.45 -44.2 23.95 -36.85 L23.75 -36.05 21.6 -38.15 Q13.9 -45.45 3.75 -48.85 L7.55 -51.75 M1.75 -56.85 L0.2 -55.95 -12.25 -60.15 -10.4 -58.8 -10.1 -57.9 -12.85 -56.85 -1.7 -52.05 Q-20.1 -57.9 -38.5 -51.1 L-39.25 -51.85 -31.85 -55.75 -38.35 -56.55 -38.75 -58.1 -16.95 -62.75 Q-35.75 -63.95 -52.25 -54.85 -42.05 -61.7 -30.25 -65.1 L-30.25 -66.75 Q-5.3 -66.6 15.5 -52.85 L14.5 -52.0 Q1.25 -60.25 -14.1 -63.6 L-14.6 -62.85 Q-5.9 -61.25 1.75 -56.85" fill="#464646" fill-rule="evenodd" stroke="none"/>
    <path d="M10.85 -4.45 Q8.9 -4.15 7.55 -5.5 6.15 -6.9 6.75 -10.0 7.3 -13.15 0.3 -16.65 -6.75 -20.2 -0.2 -19.25 6.35 -18.35 10.2 -15.9 14.05 -13.45 14.55 -10.65 14.95 -7.85 13.85 -6.3 12.75 -4.75 10.85 -4.45 M1.5 41.4 Q-1.35 41.4 -2.7 40.05 -4.05 38.7 -4.05 36.75 -4.05 34.8 -2.45 33.7 L2.1 33.6 Q5.1 34.65 9.7 28.3 14.35 21.95 12.35 28.25 10.4 34.55 7.35 38.0 4.35 41.4 1.5 41.4 M-37.0 -12.9 Q-35.05 -19.2 -32.0 -22.6 -29.0 -26.05 -26.15 -26.05 -23.3 -26.05 -21.95 -24.7 -20.6 -23.35 -20.6 -21.4 -20.6 -19.45 -22.15 -18.3 -23.75 -17.2 -26.75 -18.25 -29.75 -19.3 -34.35 -12.95 -39.0 -6.6 -37.0 -12.9 M-32.2 15.65 Q-30.7 16.9 -30.95 20.05 -31.2 23.2 -23.85 26.05 -16.55 28.85 -23.1 28.6 -29.75 28.3 -33.8 26.3 -37.9 24.25 -38.65 21.5 -39.4 18.75 -38.4 17.1 -37.5 15.45 -35.6 14.95 -33.7 14.4 -32.2 15.65" fill="#8f8f8f" fill-rule="evenodd" stroke="none"/>
  </g>
</svg>
