<?xml version="1.0" encoding="UTF-8" standalone="no"?>
<svg xmlns:ffdec="https://www.free-decompiler.com/flash" xmlns:xlink="http://www.w3.org/1999/xlink" ffdec:objectType="shape" height="141.05px" width="85.25px" xmlns="http://www.w3.org/2000/svg">
  <g transform="matrix(1.0, 0.0, 0.0, 1.0, 55.25, 63.5)">
    <path d="M17.45 -52.7 L-8.45 -60.3 -8.6 -60.85 -13.25 -62.0 -13.5 -61.25 -25.9 -62.75 -11.65 -63.35 Q3.95 -62.15 17.3 -53.6 L17.45 -52.7 M7.0 -51.1 L7.8 -49.25 16.0 -45.6 17.25 -47.5 6.55 -53.85 7.55 -54.45 Q15.4 -52.1 21.45 -46.65 27.0 -41.55 30.0 -34.5 L29.0 -33.5 Q18.0 -42.9 5.55 -50.2 L7.0 -51.1 M15.25 73.55 Q6.4 79.3 -3.75 76.8 L-5.45 76.25 -6.1 75.5 Q3.9 77.05 13.0 72.8 L15.25 73.55 M26.75 61.05 Q0.55 82.95 -28.75 65.35 L-28.5 64.8 Q-0.55 75.55 25.5 60.55 L26.75 61.05 M-36.7 -55.75 L-26.0 -60.6 -48.25 -53.85 -26.2 -62.65 -24.75 -61.75 -24.75 -59.85 -22.1 -59.25 -22.5 -58.2 -15.85 -59.1 -15.9 -58.1 -3.7 -56.15 -4.9 -53.05 -5.7 -52.85 -6.6 -52.85 -7.4 -53.05 -8.75 -53.75 -5.15 -56.1 -11.35 -56.2 -10.4 -54.7 -44.85 -49.25 -42.5 -51.05 -44.35 -51.75 -34.85 -55.6 -36.7 -55.75 M-48.5 -52.55 L-47.35 -52.6 -54.25 -46.35 -55.05 -46.25 -55.25 -47.1 -52.4 -52.05 -48.55 -53.6 -48.5 -52.55 M-48.0 51.75 L-26.55 69.55 -30.15 68.05 -27.75 70.25 -26.2 69.8 -25.0 70.65 -26.75 71.85 -28.15 71.1 -28.95 70.65 -29.6 69.95 -31.45 67.75 -32.85 67.35 -35.35 66.25 Q-44.2 62.0 -48.75 53.25 L-48.0 51.75" fill="#464646" fill-rule="evenodd" stroke="none"/>
    <path d="M10.35 -22.2 Q11.65 -19.65 11.05 -17.85 10.5 -16.05 8.75 -15.15 7.0 -14.25 5.3 -15.1 3.6 -16.0 3.15 -19.15 2.7 -22.3 -5.05 -23.45 -12.8 -24.65 -6.3 -25.8 0.2 -26.95 4.6 -25.8 9.0 -24.7 10.35 -22.2 M16.2 3.95 Q18.35 10.15 18.0 14.7 17.6 19.25 15.35 20.95 13.05 22.65 11.15 22.35 9.25 22.1 8.1 20.55 6.95 18.95 7.55 17.1 8.15 15.25 11.2 14.35 14.2 13.4 14.15 5.55 14.05 -2.3 16.2 3.95 M-37.6 -11.45 Q-35.5 -13.4 -33.6 -13.3 -31.7 -13.25 -30.35 -11.8 -29.05 -10.35 -29.45 -8.45 -29.85 -6.55 -32.75 -5.3 -35.7 -4.1 -34.8 3.7 -33.95 11.5 -36.75 5.55 -39.55 -0.45 -39.6 -5.0 -39.7 -9.55 -37.6 -11.45 M-37.55 28.95 Q-37.0 27.1 -35.25 26.2 -33.5 25.3 -31.8 26.2 -30.1 27.1 -29.65 30.25 -29.2 33.35 -21.45 34.55 -13.7 35.7 -20.2 36.85 -26.7 38.0 -31.1 36.9 -35.55 35.75 -36.85 33.25 -38.15 30.75 -37.55 28.95" fill="#8f8f8f" fill-rule="evenodd" stroke="none"/>
  </g>
</svg>
