<?xml version="1.0" encoding="UTF-8" standalone="no"?>
<svg xmlns:ffdec="https://www.free-decompiler.com/flash" xmlns:xlink="http://www.w3.org/1999/xlink" ffdec:objectType="shape" height="140.75px" width="85.15px" xmlns="http://www.w3.org/2000/svg">
  <g transform="matrix(1.0, 0.0, 0.0, 1.0, 53.85, 64.25)">
    <path d="M-0.85 -53.1 L-6.2 -57.3 -12.6 -57.15 -0.85 -53.1 M-25.9 -62.45 L-26.65 -62.8 -28.25 -62.0 -25.9 -62.45 M1.05 72.0 L1.75 73.05 Q-2.9 73.9 -7.8 73.1 -10.85 72.55 -13.7 71.45 L-10.55 72.65 Q0.55 76.75 11.35 71.7 L1.05 72.0 M30.5 59.55 L31.3 61.45 Q17.4 74.85 -1.75 75.55 L-0.45 76.5 Q-16.2 76.05 -28.45 66.1 L-28.35 67.25 Q-40.05 63.85 -46.0 53.3 -26.55 69.8 -1.1 72.0 L-4.1 69.35 Q-13.45 69.05 -21.5 64.35 -8.7 68.75 4.6 69.15 L0.0 69.5 Q1.7 70.95 3.8 70.45 L4.8 70.25 4.6 69.15 13.05 69.0 12.05 67.05 13.85 67.35 Q24.1 67.85 30.5 59.55 M20.85 -47.75 Q23.85 -46.7 25.85 -44.1 L27.05 -42.35 19.75 -48.1 20.85 -47.75 M17.25 -49.7 L11.8 -50.85 13.05 -48.35 10.25 -48.35 9.6 -47.45 8.45 -47.35 12.0 -45.35 11.25 -47.5 12.0 -48.25 Q15.7 -45.75 18.9 -42.7 23.4 -38.3 27.4 -33.25 L13.75 -45.1 14.3 -44.0 13.7 -43.15 Q7.4 -46.15 0.6 -48.15 -23.2 -55.25 -47.4 -49.65 L-47.3 -50.85 -48.2 -50.85 -53.85 -44.1 -49.45 -50.85 -50.2 -51.05 -50.4 -52.1 -34.35 -57.95 -14.0 -59.0 -15.35 -59.55 Q-25.1 -62.15 -34.35 -57.95 L-37.35 -58.25 -38.0 -59.35 -34.0 -61.0 -50.0 -56.5 -51.0 -58.5 -45.95 -60.55 Q-25.35 -67.8 -4.65 -60.75 L-5.35 -62.6 17.8 -50.9 17.25 -49.7" fill="#464646" fill-rule="evenodd" stroke="none"/>
    <path d="M14.85 3.6 Q17.15 1.55 13.85 -5.3 10.65 -12.2 15.05 -7.65 19.5 -3.0 20.95 1.15 22.45 5.3 21.2 7.75 19.85 10.15 18.1 10.6 16.35 11.15 14.7 10.2 13.05 9.3 12.8 7.45 12.6 5.6 14.85 3.6 M-11.25 -17.0 Q-13.0 -16.3 -15.6 -18.0 -18.1 -19.7 -23.85 -14.8 -29.6 -9.95 -26.35 -15.4 -23.1 -20.85 -19.5 -23.3 -15.95 -25.85 -13.25 -25.15 -10.55 -24.5 -9.65 -22.95 -8.65 -21.35 -9.1 -19.5 -9.55 -17.7 -11.25 -17.0 M-45.45 -3.55 Q-43.65 -4.1 -42.05 -3.15 -40.35 -2.25 -40.15 -0.4 -39.95 1.45 -42.2 3.5 -44.45 5.5 -41.25 12.4 -37.95 19.25 -42.35 14.65 -46.8 10.05 -48.3 5.9 -49.8 1.7 -48.5 -0.7 -47.2 -3.1 -45.45 -3.55 M-14.15 28.75 Q-13.45 26.95 -11.65 26.5 -9.85 25.95 -7.5 27.95 -5.15 29.85 1.15 25.6 7.35 21.3 3.5 26.4 -0.3 31.45 -4.1 33.6 -7.95 35.75 -10.5 34.8 -13.1 33.85 -13.9 32.2 -14.7 30.5 -14.15 28.75" fill="#8f8f8f" fill-rule="evenodd" stroke="none"/>
  </g>
</svg>
