<?xml version="1.0" encoding="UTF-8" standalone="no"?>
<svg xmlns:ffdec="https://www.free-decompiler.com/flash" xmlns:xlink="http://www.w3.org/1999/xlink" ffdec:objectType="shape" height="328.65px" width="637.95px" xmlns="http://www.w3.org/2000/svg">
  <g transform="matrix(1.0, 0.0, 0.0, 1.0, 216.5, 109.5)">
    <path d="M18.85 -109.5 L38.1 -109.5 Q76.15 -99.1 138.15 -81.5 244.1 -51.45 268.05 -14.85 276.7 -10.95 283.9 -3.15 296.4 10.35 297.2 24.7 373.25 -3.6 421.45 -70.25 L421.45 -65.05 Q373.1 0.5 298.45 31.85 L298.5 35.0 Q298.5 57.3 283.9 73.15 269.2 89.0 248.45 89.0 L242.9 88.7 Q225.7 86.85 213.05 73.15 198.45 57.3 198.45 35.0 198.45 12.65 213.05 -3.15 227.7 -19.0 248.45 -19.0 255.4 -19.0 261.7 -17.2 221.1 -65.35 83.75 -90.0 L56.55 -98.3 18.85 -109.5 M421.35 -109.5 L421.45 -109.5 421.45 -109.4 421.35 -109.5 M-51.15 -109.5 Q49.2 -73.95 150.3 -27.95 L150.35 -27.95 150.65 -27.8 157.1 -24.85 157.25 -24.8 157.4 -24.65 Q162.6 -20.6 164.7 -18.3 166.0 -16.95 166.3 -16.05 167.15 -13.95 165.45 -13.2 L165.45 -13.25 165.15 -13.1 Q161.9 -11.35 157.5 -10.5 L157.35 -10.5 157.3 -10.5 144.35 -10.0 144.25 -10.0 144.15 -10.0 Q14.45 -39.1 -115.15 -64.15 L-116.55 -58.15 -116.6 -58.1 -116.55 -58.1 Q-136.85 32.65 -123.0 103.15 -122.95 103.6 -123.05 103.95 L-123.25 104.3 Q-123.6 104.8 -124.2 104.95 L-125.3 104.7 -125.95 103.75 -126.15 102.85 Q-139.8 32.1 -119.5 -58.75 L-117.8 -66.05 -117.75 -66.15 -117.7 -66.4 Q-112.75 -87.45 -105.95 -109.5 L-102.85 -109.5 Q-109.4 -88.0 -112.45 -70.05 15.1 -42.05 144.7 -13.0 L156.9 -13.45 157.05 -13.5 Q160.55 -14.15 163.2 -15.45 L162.5 -16.3 Q160.5 -18.45 155.65 -22.2 L149.65 -24.95 149.35 -25.05 Q44.15 -72.95 -60.2 -109.5 L-51.15 -109.5 M266.45 -12.25 Q258.15 -16.0 248.45 -16.0 229.0 -16.0 215.25 -1.1 201.45 13.85 201.45 35.0 201.45 56.1 215.25 71.1 226.85 83.65 242.5 85.65 L248.45 86.0 Q267.9 86.0 281.7 71.1 286.9 65.45 290.15 58.95 287.25 64.2 282.95 68.9 269.9 83.0 251.45 83.0 L242.0 82.0 Q229.5 79.25 219.95 68.9 206.95 54.85 206.95 35.0 206.95 15.15 219.95 1.1 233.0 -13.0 251.45 -13.0 269.9 -13.0 282.95 1.1 287.35 5.85 290.3 11.3 287.0 4.65 281.7 -1.1 274.8 -8.6 266.45 -12.25 M292.95 34.1 L292.8 30.9 Q291.6 14.85 280.75 3.15 268.6 -10.0 251.45 -10.0 234.3 -10.0 222.15 3.15 209.95 16.35 209.95 35.0 209.95 53.65 222.15 66.85 230.6 76.0 241.5 78.8 246.25 80.0 251.45 80.0 268.6 80.0 280.75 66.85 292.95 53.65 292.95 35.0 L292.95 34.1 M-216.5 -83.05 L-216.5 -88.75 -123.85 -73.85 Q-119.25 -89.95 -113.05 -109.5 L-109.8 -109.5 Q-116.4 -87.75 -121.25 -67.0 L-121.25 -66.75 -122.55 -61.0 Q-142.95 29.65 -132.5 99.8 L-132.65 99.45 Q-132.9 98.85 -133.5 98.65 L-140.8 90.8 Q-145.7 28.05 -125.5 -61.65 L-124.55 -65.9 Q-170.5 -74.75 -216.5 -83.05 M-132.5 100.15 L-132.55 100.55 -132.8 100.95 -133.55 101.5 -133.35 101.4 Q-132.8 101.15 -132.6 100.55 L-132.5 100.15 M-134.0 101.55 L-134.65 101.4 -134.5 101.45 -134.0 101.55" fill="#420d0d" fill-rule="evenodd" stroke="none"/>
    <path d="M83.75 -90.0 Q221.1 -65.35 261.7 -17.2 255.4 -19.0 248.45 -19.0 227.7 -19.0 213.05 -3.15 198.45 12.65 198.45 35.0 198.45 57.3 213.05 73.15 225.7 86.85 242.9 88.7 L244.2 99.4 Q230.35 111.5 231.7 133.3 232.4 146.55 240.2 152.0 L238.2 153.9 Q195.85 153.0 193.9 175.75 191.95 198.5 184.6 203.05 177.2 207.55 155.6 202.7 152.8 191.55 150.55 180.15 144.35 148.9 116.25 109.3 88.15 69.7 43.4 52.8 -1.35 35.85 -31.7 59.4 -62.05 82.9 -68.9 123.45 L-123.05 103.95 Q-122.95 103.6 -123.0 103.15 -136.85 32.65 -116.55 -58.1 L-116.6 -58.1 -116.55 -58.15 -105.4 -56.15 Q-119.9 -14.25 -109.1 28.6 -107.6 34.5 -104.55 35.15 -75.05 42.45 -39.4 21.15 -1.3 -1.6 46.3 9.3 69.9 14.8 93.85 30.5 117.8 46.15 142.0 55.7 166.2 65.25 175.8 48.95 185.35 32.65 190.55 5.65 191.05 2.85 191.9 0.35 L188.35 3.0 189.25 5.5 188.2 3.15 181.55 8.35 182.75 11.5 181.25 8.6 176.65 12.45 180.25 22.0 Q178.45 19.4 175.85 13.2 172.8 15.95 171.0 18.05 L170.25 17.5 175.55 12.4 172.65 4.9 172.3 3.9 Q168.95 6.8 166.5 9.25 L166.05 9.0 172.0 3.1 170.2 -2.0 Q163.25 3.0 160.55 4.3 L169.9 -2.95 Q168.25 -7.8 168.25 -8.9 L168.5 -9.2 168.55 -9.2 170.65 -3.55 175.45 -7.15 175.2 -7.95 Q171.25 -20.6 171.25 -22.4 L171.5 -22.7 171.55 -22.7 176.2 -7.7 182.65 -12.35 181.75 -15.15 Q176.75 -30.6 176.75 -32.9 L177.0 -33.2 177.05 -33.2 183.15 -12.65 Q190.95 -18.0 193.0 -18.0 194.4 -18.0 194.75 -17.45 189.8 -15.55 183.5 -11.5 L184.8 -7.5 Q192.9 -13.6 202.05 -18.7 L185.2 -6.25 188.05 2.25 192.3 -0.9 Q199.95 -22.0 228.85 -26.0 L122.65 -73.75 Q102.8 -82.6 83.75 -90.0 M421.45 -70.25 Q373.25 -3.6 297.2 24.7 296.4 10.35 283.9 -3.15 276.7 -10.95 268.05 -14.85 244.1 -51.45 138.15 -81.5 76.15 -99.1 38.1 -109.5 L89.95 -109.5 Q191.25 -76.75 268.25 -31.75 289.8 -19.75 313.5 -28.5 320.0 -30.9 326.45 -33.9 L318.75 -31.45 329.5 -35.35 332.45 -36.8 333.35 -40.0 335.9 -48.55 301.75 -37.45 Q321.45 -44.65 336.2 -49.55 L339.75 -61.7 340.05 -61.7 340.25 -60.9 337.15 -49.9 348.65 -53.6 Q351.65 -60.95 354.55 -65.7 352.35 -61.35 349.6 -53.9 L362.4 -57.65 Q364.3 -62.65 367.05 -67.2 L363.4 -57.9 366.1 -58.6 369.4 -61.25 Q381.8 -71.4 388.45 -80.25 395.6 -89.7 394.5 -95.5 393.25 -102.1 387.4 -109.5 L421.35 -109.5 421.45 -109.4 421.45 -70.25 M177.95 -2.15 L184.4 -7.2 183.05 -11.2 176.55 -6.65 176.85 -5.6 177.95 -2.15 M175.8 -6.1 L171.0 -2.6 172.85 2.35 177.3 -1.55 175.8 -6.1 M182.7 -4.4 L178.35 -1.0 181.25 7.55 187.9 2.4 184.8 -5.95 182.7 -4.4 M349.2 -52.9 L347.25 -47.5 346.25 -44.6 Q353.9 -49.4 361.45 -55.0 L362.1 -56.85 349.2 -52.9 M362.95 -56.85 L362.6 -55.85 364.9 -57.6 363.1 -57.1 362.95 -56.85 M343.95 -51.25 L336.85 -48.9 335.1 -42.95 333.5 -37.35 Q339.25 -40.35 345.0 -43.85 L346.4 -47.8 348.25 -52.6 343.95 -51.25 M180.9 7.85 Q179.4 4.45 177.65 -0.5 L173.2 3.2 176.35 11.65 180.9 7.85 M185.35 158.25 Q186.6 156.3 186.6 154.85 187.35 151.25 182.35 151.25 L181.1 151.5 179.35 153.75 Q178.1 156.55 178.1 159.75 L182.25 160.5 Q183.95 160.5 185.35 158.25 M218.5 110.7 Q217.0 105.0 216.6 102.25 L211.35 102.0 Q205.2 101.3 196.9 106.6 189.1 111.6 189.1 114.75 189.1 116.1 190.95 117.3 194.45 119.6 197.1 122.25 L195.45 124.75 Q194.15 126.5 194.2 127.55 194.4 130.75 207.25 130.75 208.25 130.75 213.9 124.8 219.6 118.8 219.6 117.6 219.6 115.1 218.5 110.7 M144.5 114.5 Q131.7 75.9 101.55 48.95 80.05 29.75 52.55 21.8 -2.25 5.7 -45.55 40.25 -52.75 46.05 -58.5 53.5 -21.25 36.7 20.6 38.6 61.0 42.8 91.1 67.65 121.2 92.45 144.5 114.5 M-125.5 -61.65 Q-145.7 28.05 -140.8 90.8 L-216.5 64.85 -216.5 -78.55 -125.5 -61.65 M-83.95 -22.7 Q-82.3 -18.1 -81.3 -11.5 L-80.2 -3.75 Q-71.45 -12.85 -61.45 -20.7 -72.0 -11.7 -80.1 -3.1 L-79.75 -0.2 -80.5 -2.65 Q-91.05 8.5 -97.45 19.05 L-97.75 19.05 Q-92.9 9.85 -82.45 -1.4 L-80.65 -3.25 -82.3 -11.15 -84.25 -22.7 -83.95 -22.7 M-46.75 -18.95 L-46.5 -19.25 Q-44.1 -15.95 -43.35 -10.0 L-42.25 0.3 Q-43.3 -1.95 -44.05 -9.05 -44.8 -15.7 -46.75 -18.95 M-33.75 -22.5 L-33.45 -22.7 Q-31.5 -21.85 -31.75 -18.5 L-31.75 -15.5 -32.25 -15.45 Q-32.0 -20.2 -33.75 -22.5 M-95.0 59.1 Q-95.0 56.5 -99.25 50.25 -103.4 50.3 -107.0 54.25 -110.25 57.75 -110.25 60.6 -110.25 62.35 -109.0 65.1 -107.05 69.25 -103.5 69.25 -95.0 69.25 -95.0 59.1" fill="#8d3329" fill-rule="evenodd" stroke="none"/>
    <path d="M18.85 -109.5 L56.55 -98.3 83.75 -90.0 Q102.8 -82.6 122.65 -73.75 L228.85 -26.0 Q199.95 -22.0 192.3 -0.9 L188.05 2.25 185.2 -6.25 202.05 -18.7 Q192.9 -13.6 184.8 -7.5 L183.5 -11.5 Q189.8 -15.55 194.75 -17.45 194.4 -18.0 193.0 -18.0 190.95 -18.0 183.15 -12.65 L177.05 -33.2 177.0 -33.2 176.75 -32.9 Q176.75 -30.6 181.75 -15.15 L182.65 -12.35 176.2 -7.7 171.55 -22.7 171.5 -22.7 171.25 -22.4 Q171.25 -20.6 175.2 -7.95 L175.45 -7.15 170.65 -3.55 168.55 -9.2 168.5 -9.2 168.25 -8.9 Q168.25 -7.8 169.9 -2.95 L160.55 4.3 Q163.25 3.0 170.2 -2.0 L172.0 3.1 166.05 9.0 166.5 9.25 Q168.95 6.8 172.3 3.9 L172.65 4.9 175.55 12.4 170.25 17.5 171.0 18.05 Q172.8 15.95 175.85 13.2 178.45 19.4 180.25 22.0 L176.65 12.45 181.25 8.6 182.75 11.5 181.55 8.35 188.2 3.15 189.25 5.5 188.35 3.0 191.9 0.35 Q191.05 2.85 190.55 5.65 185.35 32.65 175.8 48.95 166.2 65.25 142.0 55.7 117.8 46.15 93.85 30.5 69.9 14.8 46.3 9.3 -1.3 -1.6 -39.4 21.15 -75.05 42.45 -104.55 35.15 -107.6 34.5 -109.1 28.6 -119.9 -14.25 -105.4 -56.15 20.3 -33.35 144.45 -5.5 167.1 -4.0 165.15 -13.1 L165.45 -13.25 165.45 -13.2 Q167.15 -13.95 166.3 -16.05 166.0 -16.95 164.7 -18.3 162.6 -20.6 157.4 -24.65 L157.25 -24.8 157.1 -24.85 150.65 -27.8 150.35 -27.95 150.3 -27.95 Q49.2 -73.95 -51.15 -109.5 L18.85 -109.5 M89.95 -109.5 L387.4 -109.5 Q393.25 -102.1 394.5 -95.5 395.6 -89.7 388.45 -80.25 381.8 -71.4 369.4 -61.25 L366.1 -58.6 363.4 -57.9 367.05 -67.2 Q364.3 -62.65 362.4 -57.65 L349.6 -53.9 Q352.35 -61.35 354.55 -65.7 351.65 -60.95 348.65 -53.6 L337.15 -49.9 340.25 -60.9 340.05 -61.7 339.75 -61.7 336.2 -49.55 Q321.45 -44.65 301.75 -37.45 L335.9 -48.55 333.35 -40.0 332.45 -36.8 329.5 -35.35 318.75 -31.45 326.45 -33.9 Q320.0 -30.9 313.5 -28.5 289.8 -19.75 268.25 -31.75 191.25 -76.75 89.95 -109.5 M182.7 -4.4 L184.8 -5.95 187.9 2.4 181.25 7.55 178.35 -1.0 182.7 -4.4 M175.8 -6.1 L177.3 -1.55 172.85 2.35 171.0 -2.6 175.8 -6.1 M177.95 -2.15 L176.85 -5.6 176.55 -6.65 183.05 -11.2 184.4 -7.2 177.95 -2.15 M343.95 -51.25 L348.25 -52.6 346.4 -47.8 345.0 -43.85 Q339.25 -40.35 333.5 -37.35 L335.1 -42.95 336.85 -48.9 343.95 -51.25 M362.95 -56.85 L363.1 -57.1 364.9 -57.6 362.6 -55.85 362.95 -56.85 M349.2 -52.9 L362.1 -56.85 361.45 -55.0 Q353.9 -49.4 346.25 -44.6 L347.25 -47.5 349.2 -52.9 M180.9 7.85 L176.35 11.65 173.2 3.2 177.65 -0.5 Q179.4 4.45 180.9 7.85 M144.5 114.5 Q121.2 92.45 91.1 67.65 61.0 42.8 20.6 38.6 -21.25 36.7 -58.5 53.5 -52.75 46.05 -45.55 40.25 -2.25 5.7 52.55 21.8 80.05 29.75 101.55 48.95 131.7 75.9 144.5 114.5 M-33.75 -22.5 Q-32.0 -20.2 -32.25 -15.45 L-31.75 -15.5 -31.75 -18.5 Q-31.5 -21.85 -33.45 -22.7 L-33.75 -22.5 M-46.75 -18.95 Q-44.8 -15.7 -44.05 -9.05 -43.3 -1.95 -42.25 0.3 L-43.35 -10.0 Q-44.1 -15.95 -46.5 -19.25 L-46.75 -18.95 M-83.95 -22.7 L-84.25 -22.7 -82.3 -11.15 -80.65 -3.25 -82.45 -1.4 Q-92.9 9.85 -97.75 19.05 L-97.45 19.05 Q-91.05 8.5 -80.5 -2.65 L-79.75 -0.2 -80.1 -3.1 Q-72.0 -11.7 -61.45 -20.7 -71.45 -12.85 -80.2 -3.75 L-81.3 -11.5 Q-82.3 -18.1 -83.95 -22.7" fill="#a53c30" fill-rule="evenodd" stroke="none"/>
    <path d="M-60.2 -109.5 Q44.15 -72.95 149.35 -25.05 L149.65 -24.95 155.65 -22.2 Q160.5 -18.45 162.5 -16.3 L163.2 -15.45 Q160.55 -14.15 157.05 -13.5 L156.9 -13.45 156.7 -14.45 Q158.6 -15.6 148.45 -23.1 28.35 -73.6 -90.65 -109.5 L-60.2 -109.5" fill="#a78b61" fill-rule="evenodd" stroke="none"/>
    <path d="M156.9 -13.45 L144.7 -13.0 Q15.1 -42.05 -112.45 -70.05 -109.4 -88.0 -102.85 -109.5 L-90.65 -109.5 Q28.35 -73.6 148.45 -23.1 158.6 -15.6 156.7 -14.45 L156.9 -13.45 M-113.05 -109.5 Q-119.25 -89.95 -123.85 -73.85 L-216.5 -88.75 -216.5 -109.5 -113.05 -109.5" fill="#d7cba8" fill-rule="evenodd" stroke="none"/>
    <path d="M242.9 88.7 L248.45 89.0 Q269.2 89.0 283.9 73.15 298.5 57.3 298.5 35.0 L298.45 31.85 Q373.1 0.5 421.45 -65.05 L421.45 -59.8 Q403.45 -38.7 382.35 -17.05 L379.85 -14.5 Q355.65 9.55 331.3 20.25 301.05 33.35 294.95 60.85 L294.95 60.8 Q292.4 71.65 284.05 78.85 L283.9 79.0 283.8 79.1 283.55 79.3 283.65 79.3 283.05 79.85 283.5 79.35 Q276.0 85.25 264.55 88.8 L260.45 90.1 260.45 90.15 Q250.65 93.7 244.2 99.4 L242.9 88.7 M-126.15 102.85 L-125.95 103.75 -125.3 104.7 -124.2 104.95 Q-123.6 104.8 -123.25 104.3 L-123.05 103.95 -68.9 123.45 Q-62.05 82.9 -31.7 59.4 -1.35 35.85 43.4 52.8 88.15 69.7 116.25 109.3 144.35 148.9 150.55 180.15 152.8 191.55 155.6 202.7 177.2 207.55 184.6 203.05 191.95 198.5 193.9 175.75 195.85 153.0 238.2 153.9 L240.2 152.0 Q244.45 154.95 250.85 155.5 L250.8 155.5 Q264.35 157.4 290.4 144.65 265.55 157.8 243.8 159.95 237.5 160.55 231.55 160.25 L231.4 160.25 Q217.45 160.6 210.1 167.9 L210.15 167.9 Q200.7 176.7 201.8 196.3 202.25 204.5 208.15 208.55 L212.8 211.5 Q210.55 213.2 207.1 213.7 L207.15 213.7 203.6 213.75 150.9 208.9 Q150.7 198.3 148.65 187.8 142.65 156.1 120.1 125.45 108.95 110.3 96.35 98.85 94.6 93.2 93.85 91.45 93.05 88.4 92.25 87.25 L90.8 85.15 87.5 83.25 Q85.3 82.2 84.9 81.0 84.35 79.3 83.75 78.75 L78.75 74.4 Q77.65 73.35 77.75 71.8 77.75 70.7 75.65 69.9 72.1 67.55 68.0 66.75 59.9 67.35 57.9 65.65 56.0 64.0 54.25 64.0 L51.65 64.2 Q50.9 64.15 50.0 62.75 49.2 61.55 46.8 61.3 L43.75 61.0 40.7 58.45 Q38.5 56.6 34.75 56.6 28.25 56.6 28.05 55.25 27.95 54.5 27.65 54.3 L24.25 53.9 Q21.5 54.9 19.55 54.9 18.9 54.9 18.15 54.1 17.45 53.25 15.25 53.25 13.35 53.25 11.45 54.35 L9.4 55.4 Q8.1 55.4 7.85 55.9 7.55 56.4 6.0 56.4 L4.7 55.25 Q3.55 54.1 1.25 54.1 L-0.65 54.6 -1.15 53.5 -3.5 54.1 -5.25 53.75 Q-5.6 53.35 -6.0 53.35 -6.7 53.35 -9.0 56.0 L-9.95 57.0 -16.1 56.75 Q-19.1 56.45 -25.3 61.5 -31.55 66.55 -33.8 74.75 -59.0 93.15 -61.3 129.4 -61.65 130.95 -62.5 131.7 L-64.85 131.9 -216.5 77.45 -216.5 72.0 -134.65 101.4 -134.0 101.55 -133.75 101.55 -133.55 101.5 -132.8 100.95 -132.55 100.55 -126.15 102.85 M-116.55 -58.15 L-115.15 -64.15 Q14.45 -39.1 144.15 -10.0 L144.25 -10.0 144.35 -10.0 157.3 -10.5 157.35 -10.5 157.5 -10.5 Q161.9 -11.35 165.15 -13.1 167.1 -4.0 144.45 -5.5 20.3 -33.35 -105.4 -56.15 L-116.55 -58.15 M266.45 -12.25 Q274.8 -8.6 281.7 -1.1 287.0 4.65 290.3 11.3 287.35 5.85 282.95 1.1 269.9 -13.0 251.45 -13.0 233.0 -13.0 219.95 1.1 206.95 15.15 206.95 35.0 206.95 54.85 219.95 68.9 229.5 79.25 242.0 82.0 L251.45 83.0 Q269.9 83.0 282.95 68.9 287.25 64.2 290.15 58.95 286.9 65.45 281.7 71.1 267.9 86.0 248.45 86.0 L242.5 85.65 Q226.85 83.65 215.25 71.1 201.45 56.1 201.45 35.0 201.45 13.85 215.25 -1.1 229.0 -16.0 248.45 -16.0 258.15 -16.0 266.45 -12.25 M-216.5 -83.05 Q-170.5 -74.75 -124.55 -65.9 L-125.5 -61.65 -216.5 -78.55 -216.5 -83.05" fill="#722921" fill-rule="evenodd" stroke="none"/>
    <path d="M244.2 99.4 Q250.65 93.7 260.45 90.15 L260.45 90.1 264.55 88.8 Q276.0 85.25 283.5 79.35 L283.05 79.85 283.65 79.3 283.55 79.3 283.8 79.1 283.9 79.0 284.05 78.85 Q292.4 71.65 294.95 60.8 L294.95 60.85 Q301.05 33.35 331.3 20.25 355.65 9.55 379.85 -14.5 L382.35 -17.05 Q403.45 -38.7 421.45 -59.8 L421.45 -55.2 Q405.45 -36.55 386.95 -17.5 L387.05 -17.5 384.55 -14.95 Q358.6 11.6 332.5 23.0 303.75 35.45 297.9 61.5 L297.85 61.5 Q295.05 73.45 285.85 81.3 L285.9 81.2 285.35 81.65 285.35 81.7 285.1 81.85 Q278.75 86.9 269.65 90.25 L269.65 90.3 265.5 91.65 Q232.8 101.35 234.7 133.1 L234.7 133.15 Q235.7 151.0 251.15 152.5 L251.2 152.5 251.2 152.55 Q264.15 154.2 289.1 141.95 327.4 123.2 407.6 42.15 L421.45 25.8 421.45 30.55 410.2 43.75 Q312.25 156.5 244.1 162.95 L242.3 163.1 Q236.8 163.5 231.5 163.25 L231.4 163.25 Q218.85 163.6 212.2 170.05 210.85 171.3 209.75 172.9 203.95 181.05 204.8 196.15 205.15 202.8 209.85 206.1 L214.85 209.25 219.35 211.55 Q240.2 221.0 264.35 210.8 334.75 181.0 421.45 80.8 L421.45 85.4 Q335.55 184.05 265.5 213.55 239.75 224.45 217.55 214.05 L212.8 211.5 208.15 208.55 Q202.25 204.5 201.8 196.3 200.7 176.7 210.15 167.9 L210.1 167.9 Q217.45 160.6 231.4 160.25 L231.55 160.25 Q237.5 160.55 243.8 159.95 265.55 157.8 290.4 144.65 264.35 157.4 250.8 155.5 L250.85 155.5 Q244.45 154.95 240.2 152.0 232.4 146.55 231.7 133.3 230.35 111.5 244.2 99.4 M421.45 -13.15 Q380.05 33.6 305.8 71.5 L302.3 73.35 303.7 69.6 305.65 63.3 Q310.95 41.05 335.7 30.35 363.1 18.4 390.25 -9.35 390.5 -9.65 390.9 -9.75 L391.3 -10.4 Q407.25 -26.85 421.45 -43.0 L421.45 -38.45 Q408.2 -23.55 393.45 -8.3 L392.75 -7.9 392.4 -7.25 Q364.8 21.0 336.9 33.1 313.65 43.15 308.55 64.0 L307.75 67.15 Q381.05 29.15 421.45 -17.75 L421.45 -13.15 M421.45 16.4 Q327.6 113.95 285.6 134.8 L285.55 134.8 Q263.45 145.6 252.15 144.6 L252.1 144.6 252.05 144.6 Q243.3 143.3 242.7 132.7 241.4 107.2 267.8 99.35 L267.75 99.35 Q280.45 95.45 289.0 89.0 289.3 88.75 289.65 88.75 289.9 88.15 290.45 87.9 374.55 48.45 421.45 -1.2 L421.45 3.15 Q374.4 51.8 291.7 90.6 L291.3 90.75 290.8 91.4 Q281.85 98.15 268.65 102.2 244.6 109.4 245.7 132.55 246.1 140.5 252.5 141.65 L252.4 141.6 Q263.15 142.4 284.25 132.1 326.45 111.05 421.45 12.1 L421.45 16.4" fill="#333333" fill-rule="evenodd" stroke="none"/>
    <path d="M209.75 172.9 Q210.85 171.3 212.2 170.05 218.85 163.6 231.4 163.25 L231.5 163.25 Q236.8 163.5 242.3 163.1 231.1 173.85 222.7 174.0 213.7 174.1 225.15 179.85 235.8 185.15 256.5 181.2 L259.45 180.6 264.65 179.35 Q294.7 171.1 327.55 142.4 355.7 117.75 390.85 79.75 L409.2 59.5 421.45 45.5 421.45 67.2 Q364.4 134.3 321.4 164.35 299.85 179.35 277.65 189.45 272.6 191.7 248.9 200.0 236.8 204.2 228.2 203.3 L223.9 202.5 Q218.45 200.9 214.8 196.8 205.7 186.75 209.75 172.9 M421.45 25.8 L407.6 42.15 Q327.4 123.2 289.1 141.95 264.15 154.2 251.2 152.55 L251.2 152.5 251.15 152.5 Q235.7 151.0 234.7 133.15 L234.7 133.1 Q232.8 101.35 265.5 91.65 L269.65 90.3 269.65 90.25 Q278.75 86.9 285.1 81.85 L285.35 81.7 285.35 81.65 285.9 81.2 285.85 81.3 Q295.05 73.45 297.85 61.5 L297.9 61.5 Q303.75 35.45 332.5 23.0 358.6 11.6 384.55 -14.95 L387.05 -17.5 386.95 -17.5 Q405.45 -36.55 421.45 -55.2 L421.45 -51.35 Q405.1 -32.5 386.3 -13.2 360.0 13.7 333.5 25.3 306.0 37.2 300.3 62.05 297.25 75.0 287.15 83.45 L287.05 83.5 Q278.85 90.2 266.2 94.05 235.5 103.2 237.2 133.0 238.05 148.6 251.45 150.05 263.9 151.5 287.95 139.7 329.65 119.2 421.45 24.3 L421.45 25.8 M421.45 -43.0 Q407.25 -26.85 391.3 -10.4 L390.9 -9.75 Q390.5 -9.65 390.25 -9.35 363.1 18.4 335.7 30.35 310.95 41.05 305.65 63.3 L303.7 69.6 302.3 73.35 305.8 71.5 Q380.05 33.6 421.45 -13.15 L421.45 -9.4 Q376.7 40.15 295.1 79.6 300.95 72.35 303.2 62.75 308.7 39.3 334.7 28.05 361.7 16.3 388.45 -11.1 406.0 -29.15 421.45 -46.8 L421.45 -43.0 M421.45 -4.9 L421.45 -1.2 Q374.55 48.45 290.45 87.9 289.9 88.15 289.65 88.75 289.3 88.75 289.0 89.0 280.45 95.45 267.75 99.35 L267.8 99.35 Q241.4 107.2 242.7 132.7 243.3 143.3 252.05 144.6 L252.1 144.6 252.15 144.6 Q263.45 145.6 285.55 134.8 L285.6 134.8 Q327.6 113.95 421.45 16.4 L421.45 20.0 Q328.55 116.35 286.65 137.0 263.65 148.3 251.8 147.05 240.9 145.75 240.2 132.85 238.7 105.4 267.05 96.9 280.3 92.85 288.9 85.85 374.5 45.75 421.45 -4.9" fill="#727272" fill-rule="evenodd" stroke="none"/>
    <path d="M421.45 -17.75 Q381.05 29.15 307.75 67.15 L308.55 64.0 Q313.65 43.15 336.9 33.1 364.8 21.0 392.4 -7.25 L392.75 -7.9 393.45 -8.3 Q408.2 -23.55 421.45 -38.45 L421.45 -17.75 M421.45 3.15 L421.45 12.1 Q326.45 111.05 284.25 132.1 263.15 142.4 252.4 141.6 L252.5 141.65 Q246.1 140.5 245.7 132.55 244.6 109.4 268.65 102.2 281.85 98.15 290.8 91.4 L291.3 90.75 291.7 90.6 Q374.4 51.8 421.45 3.15" fill="#4a4a4a" fill-rule="evenodd" stroke="none"/>
    <path d="M242.3 163.1 L244.1 162.95 Q312.25 156.5 410.2 43.75 L421.45 30.55 421.45 45.5 409.2 59.5 390.85 79.75 Q355.7 117.75 327.55 142.4 294.7 171.1 264.65 179.35 L259.45 180.6 256.5 181.2 Q235.8 185.15 225.15 179.85 213.7 174.1 222.7 174.0 231.1 173.85 242.3 163.1 M421.45 -46.8 Q406.0 -29.15 388.45 -11.1 361.7 16.3 334.7 28.05 308.7 39.3 303.2 62.75 300.95 72.35 295.1 79.6 376.7 40.15 421.45 -9.4 L421.45 -4.9 Q374.5 45.75 288.9 85.85 280.3 92.85 267.05 96.9 238.7 105.4 240.2 132.85 240.9 145.75 251.8 147.05 263.65 148.3 286.65 137.0 328.55 116.35 421.45 20.0 L421.45 24.3 Q329.65 119.2 287.95 139.7 263.9 151.5 251.45 150.05 238.05 148.6 237.2 133.0 235.5 103.2 266.2 94.05 278.85 90.2 287.05 83.5 L287.15 83.45 Q297.25 75.0 300.3 62.05 306.0 37.2 333.5 25.3 360.0 13.7 386.3 -13.2 405.1 -32.5 421.45 -51.35 L421.45 -46.8" fill="#999999" fill-rule="evenodd" stroke="none"/>
    <path d="M421.45 80.8 Q334.75 181.0 264.35 210.8 240.2 221.0 219.35 211.55 L214.85 209.25 209.85 206.1 Q205.15 202.8 204.8 196.15 203.95 181.05 209.75 172.9 205.7 186.75 214.8 196.8 218.45 200.9 223.9 202.5 L228.2 203.3 Q236.8 204.2 248.9 200.0 272.6 191.7 277.65 189.45 299.85 179.35 321.4 164.35 364.4 134.3 421.45 67.2 L421.45 80.8" fill="#606060" fill-rule="evenodd" stroke="none"/>
    <path d="M292.95 34.1 L292.95 35.0 Q292.95 53.65 280.75 66.85 268.6 80.0 251.45 80.0 246.25 80.0 241.5 78.8 230.6 76.0 222.15 66.85 209.95 53.65 209.95 35.0 209.95 16.35 222.15 3.15 234.3 -10.0 251.45 -10.0 268.6 -10.0 280.75 3.15 291.6 14.85 292.8 30.9 L292.95 34.1 M253.85 71.75 Q268.05 68.85 279.1 60.7 290.15 52.55 290.15 34.95 290.15 17.35 279.1 4.95 268.0 -7.5 252.4 -7.5 236.75 -7.5 225.7 4.95 214.6 17.35 215.2 35.1 215.75 52.85 227.7 63.75 239.6 74.65 253.85 71.75" fill="#b5b5b5" fill-rule="evenodd" stroke="none"/>
    <path d="M245.45 54.0 Q245.45 51.7 243.85 50.1 242.25 48.5 239.95 48.5 237.65 48.5 236.05 50.1 234.45 51.7 234.45 54.0 234.45 56.3 236.05 57.9 237.65 59.5 239.95 59.5 242.25 59.5 243.85 57.9 245.45 56.3 245.45 54.0 M257.45 41.5 Q257.45 44.8 259.95 47.15 262.45 49.5 265.95 49.5 269.45 49.5 271.95 47.15 274.45 44.8 274.45 41.5 274.45 38.2 271.95 35.85 269.45 33.5 265.95 33.5 262.45 33.5 259.95 35.85 257.45 38.2 257.45 41.5 M247.4 24.3 Q259.95 8.5 273.55 27.75 287.1 47.0 285.75 32.95 284.35 18.85 277.75 8.2 271.1 -2.5 256.35 -2.5 241.6 -2.5 230.15 8.65 218.7 19.8 221.4 31.2 224.05 42.6 229.45 41.35 234.85 40.1 247.4 24.3 M253.85 71.75 Q239.6 74.65 227.7 63.75 215.75 52.85 215.2 35.1 214.6 17.35 225.7 4.95 236.75 -7.5 252.4 -7.5 268.0 -7.5 279.1 4.95 290.15 17.35 290.15 34.95 290.15 52.55 279.1 60.7 268.05 68.85 253.85 71.75" fill="#cccccc" fill-rule="evenodd" stroke="none"/>
    <path d="M247.4 24.3 Q234.85 40.1 229.45 41.35 224.05 42.6 221.4 31.2 218.7 19.8 230.15 8.65 241.6 -2.5 256.35 -2.5 271.1 -2.5 277.75 8.2 284.35 18.85 285.75 32.95 287.1 47.0 273.55 27.75 259.95 8.5 247.4 24.3 M257.45 41.5 Q257.45 38.2 259.95 35.85 262.45 33.5 265.95 33.5 269.45 33.5 271.95 35.85 274.45 38.2 274.45 41.5 274.45 44.8 271.95 47.15 269.45 49.5 265.95 49.5 262.45 49.5 259.95 47.15 257.45 44.8 257.45 41.5 M245.45 54.0 Q245.45 56.3 243.85 57.9 242.25 59.5 239.95 59.5 237.65 59.5 236.05 57.9 234.45 56.3 234.45 54.0 234.45 51.7 236.05 50.1 237.65 48.5 239.95 48.5 242.25 48.5 243.85 50.1 245.45 51.7 245.45 54.0" fill="#e1e1e1" fill-rule="evenodd" stroke="none"/>
    <path d="M214.1 105.25 L209.85 105.5 Q205.5 105.5 204.25 107.95 202.9 110.55 200.85 110.75 200.85 107.65 201.1 107.25 L201.35 107.0 Q200.1 107.1 196.0 110.4 191.85 113.75 191.85 114.75 191.85 115.65 195.35 119.1 198.85 122.55 198.85 126.5 201.85 127.5 207.6 127.5 208.35 127.5 217.1 117.6 217.1 116.1 215.6 112.1 214.1 108.1 214.1 105.5 L214.1 105.25 M218.5 110.7 Q219.6 115.1 219.6 117.6 219.6 118.8 213.9 124.8 208.25 130.75 207.25 130.75 194.4 130.75 194.2 127.55 194.15 126.5 195.45 124.75 L197.1 122.25 Q194.45 119.6 190.95 117.3 189.1 116.1 189.1 114.75 189.1 111.6 196.9 106.6 205.2 101.3 211.35 102.0 L216.6 102.25 Q217.0 105.0 218.5 110.7 M185.35 158.25 Q183.95 160.5 182.25 160.5 L178.1 159.75 Q178.1 156.55 179.35 153.75 L181.1 151.5 182.35 151.25 Q187.35 151.25 186.6 154.85 186.6 156.3 185.35 158.25 M181.35 157.75 Q183.85 155.5 184.1 154.5 182.05 153.7 181.35 153.05 181.55 155.2 180.85 157.25 L181.35 157.75 M96.35 98.85 Q93.6 95.05 91.85 91.0 89.3 85.1 87.1 84.25 84.25 83.15 83.4 81.65 82.0 79.1 80.75 77.9 L77.35 74.75 Q75.5 72.7 76.35 71.5 68.75 67.6 66.1 67.65 L57.05 67.1 Q57.05 66.15 55.5 65.75 L50.5 64.35 Q49.05 63.5 44.85 62.05 41.7 60.95 39.75 59.15 38.4 57.85 33.95 57.75 29.35 57.65 28.6 57.15 L27.65 55.55 Q27.2 54.6 25.3 54.6 L21.3 55.05 19.5 55.5 Q18.4 55.5 17.85 54.65 17.25 53.75 15.0 53.75 13.4 53.75 11.55 54.75 9.75 55.75 9.0 55.75 8.45 55.75 7.95 56.4 L7.25 57.0 Q6.0 57.0 4.45 55.95 L3.15 54.85 0.0 55.35 Q-1.1 55.35 -1.3 54.8 L-1.65 54.25 -3.75 54.75 -5.6 54.1 Q-6.25 54.1 -8.15 56.15 L-10.6 58.15 -13.65 60.25 -11.45 58.45 -10.6 58.15 -11.3 58.3 -10.25 57.35 Q-25.05 61.6 -27.75 64.0 -29.85 67.3 -33.8 74.75 -31.55 66.55 -25.3 61.5 -19.1 56.45 -16.1 56.75 L-9.95 57.0 -9.0 56.0 Q-6.7 53.35 -6.0 53.35 -5.6 53.35 -5.25 53.75 L-3.5 54.1 -1.15 53.5 -0.65 54.6 1.25 54.1 Q3.55 54.1 4.7 55.25 L6.0 56.4 Q7.55 56.4 7.85 55.9 8.1 55.4 9.4 55.4 L11.45 54.35 Q13.35 53.25 15.25 53.25 17.45 53.25 18.15 54.1 18.9 54.9 19.55 54.9 21.5 54.9 24.25 53.9 L27.65 54.3 Q27.95 54.5 28.05 55.25 28.25 56.6 34.75 56.6 38.5 56.6 40.7 58.45 L43.75 61.0 46.8 61.3 Q49.2 61.55 50.0 62.75 50.9 64.15 51.65 64.2 L54.25 64.0 Q56.0 64.0 57.9 65.65 59.9 67.35 68.0 66.75 72.1 67.55 75.65 69.9 77.75 70.7 77.75 71.8 77.65 73.35 78.75 74.4 L83.75 78.75 Q84.35 79.3 84.9 81.0 85.3 82.2 87.5 83.25 L90.8 85.15 92.25 87.25 Q93.05 88.4 93.85 91.45 94.6 93.2 96.35 98.85 M-33.8 74.75 L-33.85 74.85 -33.8 74.75 M-95.0 59.1 Q-95.0 69.25 -103.5 69.25 -107.05 69.25 -109.0 65.1 -110.25 62.35 -110.25 60.6 -110.25 57.75 -107.0 54.25 -103.4 50.3 -99.25 50.25 -95.0 56.5 -95.0 59.1 M-99.25 50.25 L-105.2 54.75 Q-108.75 57.85 -108.75 60.25 -108.75 61.85 -107.45 64.05 -105.75 67.0 -103.0 67.0 -97.25 67.0 -97.75 62.5 L-98.85 60.8 Q-100.2 59.0 -101.0 56.5 L-99.25 50.25" fill="#864a0f" fill-rule="evenodd" stroke="none"/>
    <path d="M214.1 105.25 L214.1 105.5 Q214.1 108.1 215.6 112.1 217.1 116.1 217.1 117.6 208.35 127.5 207.6 127.5 201.85 127.5 198.85 126.5 198.85 122.55 195.35 119.1 191.85 115.65 191.85 114.75 191.85 113.75 196.0 110.4 200.1 107.1 201.35 107.0 L201.1 107.25 Q200.85 107.65 200.85 110.75 202.9 110.55 204.25 107.95 205.5 105.5 209.85 105.5 L214.1 105.25 M181.35 157.75 L180.85 157.25 Q181.55 155.2 181.35 153.05 182.05 153.7 184.1 154.5 183.85 155.5 181.35 157.75 M-33.8 74.75 Q-29.85 67.3 -27.75 64.0 -25.05 61.6 -10.25 57.35 L-11.3 58.3 -10.6 58.15 -11.45 58.45 -13.65 60.25 -10.6 58.15 -8.15 56.15 Q-6.25 54.1 -5.6 54.1 L-3.75 54.75 -1.65 54.25 -1.3 54.8 Q-1.1 55.35 0.0 55.35 L3.15 54.85 4.45 55.95 Q6.0 57.0 7.25 57.0 L7.95 56.4 Q8.45 55.75 9.0 55.75 9.75 55.75 11.55 54.75 13.4 53.75 15.0 53.75 17.25 53.75 17.85 54.65 18.4 55.5 19.5 55.5 L21.3 55.05 25.3 54.6 Q27.2 54.6 27.65 55.55 L28.6 57.15 Q29.35 57.65 33.95 57.75 38.4 57.85 39.75 59.15 41.7 60.95 44.85 62.05 49.05 63.5 50.5 64.35 L55.5 65.75 Q57.05 66.15 57.05 67.1 L66.1 67.65 Q68.75 67.6 76.35 71.5 75.5 72.7 77.35 74.75 L80.75 77.9 Q82.0 79.1 83.4 81.65 84.25 83.15 87.1 84.25 89.3 85.1 91.85 91.0 93.6 95.05 96.35 98.85 73.5 77.9 45.55 67.9 1.25 52.0 -30.0 72.15 L-33.8 74.75 M-99.25 50.25 L-101.0 56.5 Q-100.2 59.0 -98.85 60.8 L-97.75 62.5 Q-97.25 67.0 -103.0 67.0 -105.75 67.0 -107.45 64.05 -108.75 61.85 -108.75 60.25 -108.75 57.85 -105.2 54.75 L-99.25 50.25" fill="#583218" fill-rule="evenodd" stroke="none"/>
    <path d="M212.8 211.5 L217.55 214.05 Q214.15 217.75 207.75 218.65 L207.7 218.65 207.65 218.65 203.3 218.75 203.2 218.75 148.15 213.65 145.95 213.4 145.9 211.15 Q145.9 199.9 143.75 188.75 137.85 158.1 116.05 128.4 86.15 87.8 43.85 72.6 2.15 57.6 -27.3 76.35 -54.1 93.55 -56.3 129.85 L-56.35 130.2 Q-57.2 134.3 -59.7 135.85 -62.15 137.6 -66.2 136.7 L-66.5 136.6 -216.5 82.75 -216.5 77.45 -64.85 131.9 -62.5 131.7 Q-61.65 130.95 -61.3 129.4 -59.0 93.15 -33.8 74.75 L-30.0 72.15 Q1.25 52.0 45.55 67.9 73.5 77.9 96.35 98.85 108.95 110.3 120.1 125.45 142.65 156.1 148.65 187.8 150.7 198.3 150.9 208.9 L203.6 213.75 207.15 213.7 207.1 213.7 Q210.55 213.2 212.8 211.5 M-33.8 74.75 L-33.85 74.85 -33.8 74.75" fill="#000000" fill-rule="evenodd" stroke="none"/>
    <path d="M-140.8 90.8 L-133.5 98.65 Q-132.9 98.85 -132.65 99.45 L-132.5 99.8 -132.5 99.85 -132.5 100.15 -132.6 100.55 Q-132.8 101.15 -133.35 101.4 L-133.55 101.5 -133.75 101.55 -134.0 101.55 -134.5 101.45 -134.65 101.4 -216.5 72.0 -216.5 64.85 -140.8 90.8" fill="#430d0d" fill-rule="evenodd" stroke="none"/>
    <path d="M-105.95 -109.5 Q-112.75 -87.45 -117.7 -66.4 L-117.75 -66.15 -117.8 -66.05 -119.5 -58.75 Q-139.8 32.1 -126.15 102.85 L-132.55 100.55 -132.5 100.15 -132.5 99.85 -132.5 99.8 Q-142.95 29.65 -122.55 -61.0 L-121.25 -66.75 -121.25 -67.0 Q-116.4 -87.75 -109.8 -109.5 L-105.95 -109.5" fill="#551111" fill-rule="evenodd" stroke="none"/>
  </g>
</svg>
