<?xml version="1.0" encoding="UTF-8" standalone="no"?>
<svg xmlns:ffdec="https://www.free-decompiler.com/flash" xmlns:xlink="http://www.w3.org/1999/xlink" ffdec:objectType="shape" height="470.6px" width="626.7px" xmlns="http://www.w3.org/2000/svg">
  <g transform="matrix(1.0, 0.0, 0.0, 1.0, -10.2, -244.5)">
    <path d="M466.2 255.0 Q450.8 260.8 436.0 275.55 435.6 275.95 435.35 276.45 L434.25 278.85 Q414.6 281.4 392.1 289.3 391.35 289.5 391.05 290.2 386.1 291.2 381.9 292.8 L380.95 292.05 Q364.3 280.15 340.15 276.45 316.0 272.75 267.65 284.35 231.2 293.0 226.5 330.65 218.8 360.75 214.55 422.95 213.3 424.9 212.3 427.3 190.2 503.2 189.45 569.1 L458.55 620.6 Q458.35 630.25 459.6 639.8 460.75 648.7 457.5 657.0 L457.45 657.35 457.2 657.35 456.85 658.5 456.9 659.3 457.4 659.85 459.45 661.05 459.55 668.85 Q459.55 676.0 460.55 683.1 460.9 685.6 461.55 688.05 L10.2 688.05 18.2 512.15 Q25.5 460.75 36.0 408.6 L43.1 409.95 36.0 408.45 Q48.75 344.95 66.2 280.3 L246.0 268.6 466.2 255.0 M553.0 364.05 Q558.3 351.5 561.1 325.85 L561.1 325.8 Q565.55 286.1 515.85 259.2 L515.8 259.15 Q507.6 254.9 499.55 252.95 L636.9 244.5 636.9 370.9 553.0 364.05 M387.85 335.2 L388.1 335.3 388.35 335.4 Q391.95 336.3 396.05 336.65 L396.1 336.65 Q398.8 336.85 401.4 337.8 L401.45 337.8 403.45 338.6 Q400.9 344.85 399.55 351.65 L394.5 351.2 385.75 351.55 Q387.1 342.75 387.85 335.2 M339.75 385.1 Q343.15 380.45 345.95 379.75 346.6 379.6 347.25 379.75 351.2 380.9 354.05 392.35 L352.1 421.1 352.1 421.15 351.85 422.65 Q350.3 428.6 340.55 434.65 L338.8 409.1 338.75 401.4 Q338.7 386.95 339.8 385.05 L339.75 385.1 M356.85 395.65 L363.7 393.5 Q360.0 408.5 357.25 423.1 L354.95 422.9 355.1 421.3 356.85 395.65 M599.25 384.85 Q600.0 384.65 600.8 384.85 L600.85 384.9 Q606.1 386.35 609.85 401.3 L607.4 437.9 Q607.2 440.55 605.7 443.25 602.25 449.5 591.9 455.85 L589.6 422.65 Q589.15 394.85 590.95 391.75 595.4 385.75 599.0 384.9 L599.25 384.85 M212.1 328.0 Q221.95 291.95 193.15 284.55 91.55 267.15 62.5 352.9 51.8 381.7 45.45 410.45 34.8 458.3 36.15 506.0 L191.9 452.45 Q199.35 379.75 212.1 328.0 M564.4 640.85 L636.9 654.7 636.9 688.05 550.35 688.05 552.9 683.85 Q556.25 677.6 558.45 670.4 L558.45 670.45 Q560.45 664.05 561.7 657.2 562.0 655.55 562.85 652.5 L563.5 649.9 563.65 649.3 565.0 649.35 564.8 649.15 564.9 648.9 565.35 648.55 566.1 647.55 566.35 646.8 566.7 646.0 566.85 645.55 566.95 643.8 566.9 643.45 565.25 643.4 565.3 643.15 565.25 642.35 564.4 640.85 M485.25 669.55 L485.25 669.5 485.35 669.55 485.25 669.55 M563.5 649.5 L563.5 649.3 563.6 649.35 563.5 649.5" fill="#342216" fill-rule="evenodd" stroke="none"/>
    <path d="M214.55 422.95 Q218.8 360.75 226.5 330.65 231.2 293.0 267.65 284.35 316.0 272.75 340.15 276.45 364.3 280.15 380.95 292.05 L381.9 292.8 Q371.7 296.55 365.75 303.35 365.45 303.65 365.45 304.05 L364.1 305.75 Q363.3 306.8 363.5 308.1 L363.55 308.3 363.45 309.25 Q363.5 309.95 363.8 310.5 369.85 329.0 387.85 335.2 387.1 342.75 385.75 351.55 376.2 353.85 371.25 365.3 367.1 379.6 363.7 393.5 L356.85 395.65 357.05 392.35 357.0 391.9 Q353.55 377.75 347.9 376.8 L347.85 376.8 345.45 376.75 256.65 376.75 256.0 376.95 Q245.9 381.9 243.7 399.0 L243.65 399.2 243.65 413.85 235.55 413.2 Q221.65 411.45 214.55 422.95" fill="url(#gradient0)" fill-rule="evenodd" stroke="none"/>
    <path d="M544.45 374.55 L544.65 374.55 Q545.7 374.45 546.55 373.75 550.15 370.8 553.0 364.05 L636.9 370.9 636.9 445.8 609.05 443.55 Q610.3 440.8 610.4 438.1 L612.85 401.3 612.8 400.85 Q608.45 383.25 601.5 381.95 L601.55 381.95 598.6 381.9 543.35 381.9 Q544.1 378.3 544.45 374.55 M363.7 393.5 Q367.1 379.6 371.25 365.3 376.2 353.85 385.75 351.55 L394.5 351.2 399.55 351.65 Q398.15 358.8 398.15 366.6 398.15 397.0 419.6 418.45 425.95 424.75 433.05 429.25 L357.25 423.1 Q360.0 408.5 363.7 393.5" fill="#25180f" fill-rule="evenodd" stroke="none"/>
    <path d="M458.55 620.6 L189.45 569.1 Q190.2 503.2 212.3 427.3 213.3 424.9 214.55 422.95 221.65 411.45 235.55 413.2 L243.65 413.85 243.65 427.2 Q243.65 427.75 244.0 428.15 L244.9 428.7 Q282.65 436.05 339.1 438.7 L339.15 438.7 339.3 438.7 339.95 438.5 Q353.45 430.75 354.95 422.9 L357.25 423.1 433.05 429.25 Q449.2 439.4 469.4 439.95 L469.4 445.6 Q469.4 446.15 469.75 446.55 L470.65 447.1 471.2 447.2 471.0 447.35 Q470.5 447.8 470.5 448.4 L470.2 466.85 Q461.65 473.7 453.4 481.15 443.7 489.75 434.85 498.9 432.3 501.4 430.1 504.2 429.35 505.15 429.3 506.45 428.55 514.05 435.6 517.95 433.0 521.4 433.05 525.85 433.1 532.15 438.4 535.6 443.85 539.3 448.95 535.4 453.5 531.75 456.6 527.3 L459.1 527.3 Q462.3 527.3 465.3 526.15 466.7 525.65 467.7 524.6 470.35 521.65 471.9 518.15 469.6 529.2 467.7 540.3 465.7 551.55 464.15 562.9 462.45 575.35 461.15 587.95 459.9 600.4 458.95 613.0 458.6 616.8 458.55 620.6 M337.35 383.35 L337.3 383.35 Q335.7 385.5 335.75 402.35 L335.8 409.25 335.8 409.3 337.6 435.65 Q283.4 433.0 246.65 425.95 L246.65 399.4 Q248.6 384.45 257.0 379.75 L340.4 379.75 Q338.9 381.2 337.35 383.35 M472.4 439.95 L482.85 439.15 474.55 444.75 472.4 444.35 472.4 439.95 M508.3 430.25 Q516.3 425.5 523.3 418.45 538.0 403.75 542.7 384.9 L593.0 384.9 Q590.85 386.85 588.5 390.0 L588.45 390.1 Q586.15 393.3 586.6 422.8 L586.6 422.85 588.95 456.8 533.3 452.8 533.4 452.2 Q533.5 451.65 533.2 451.15 L533.35 450.05 528.9 434.6 Q528.7 434.0 528.15 433.7 527.7 433.4 527.25 433.5 519.8 430.65 512.15 431.8 L512.05 431.85 509.05 432.55 Q508.8 432.6 508.6 432.75 L508.3 430.25 M532.45 455.75 L590.4 459.85 590.5 459.85 590.65 459.85 590.85 459.85 591.0 459.8 591.3 459.65 Q605.3 451.6 609.05 443.55 L636.9 445.8 636.9 654.7 564.4 640.85 Q560.1 632.6 558.6 623.35 556.4 609.95 554.85 596.5 L551.9 572.8 Q550.55 562.85 548.75 553.05 553.65 555.55 558.9 553.2 565.0 550.55 564.4 544.2 563.8 538.35 561.7 533.35 L563.05 531.25 Q564.8 528.5 565.45 525.4 565.75 523.9 565.4 522.5 564.05 517.45 560.75 513.5 555.7 503.6 550.25 493.8 L537.65 470.95 Q534.95 466.15 530.35 463.4 529.2 462.7 528.15 462.35 L529.3 460.95 Q531.3 458.55 532.45 455.75 M510.55 443.2 L510.45 443.25 510.45 443.2 510.55 443.2 M509.75 465.15 L506.0 464.65 507.1 461.2 509.75 465.15" fill="#533724" fill-rule="evenodd" stroke="none"/>
    <path d="M339.75 385.1 L339.8 385.05 Q338.7 386.95 338.75 401.4 L338.8 409.1 340.55 434.65 Q350.3 428.6 351.85 422.65 L352.1 421.15 352.1 421.1 354.05 392.35 Q351.2 380.9 347.25 379.75 346.6 379.6 345.95 379.75 343.15 380.45 339.75 385.1 M337.35 383.35 Q338.9 381.2 340.4 379.75 L257.0 379.75 Q248.6 384.45 246.65 399.4 L246.65 425.95 Q283.4 433.0 337.6 435.65 L335.8 409.3 335.8 409.25 335.75 402.35 Q335.7 385.5 337.3 383.35 L337.35 383.35 M243.65 413.85 L243.65 399.2 243.7 399.0 Q245.9 381.9 256.0 376.95 L256.65 376.75 345.45 376.75 347.85 376.8 347.9 376.8 Q353.55 377.75 357.0 391.9 L357.05 392.35 356.85 395.65 355.1 421.3 354.95 422.9 Q353.45 430.75 339.95 438.5 L339.3 438.7 339.15 438.7 339.1 438.7 Q282.65 436.05 244.9 428.7 L244.0 428.15 Q243.65 427.75 243.65 427.2 L243.65 413.85 M469.4 439.95 L471.5 439.95 472.4 439.95 472.4 444.35 474.55 444.75 471.65 446.7 471.2 447.2 470.65 447.1 469.75 446.55 Q469.4 446.15 469.4 445.6 L469.4 439.95 M542.7 384.9 L543.35 381.9 598.6 381.9 601.55 381.95 601.5 381.95 Q608.45 383.25 612.8 400.85 L612.85 401.3 610.4 438.1 Q610.3 440.8 609.05 443.55 605.3 451.6 591.3 459.65 L591.0 459.8 590.85 459.85 590.65 459.85 590.5 459.85 590.4 459.85 532.45 455.75 533.3 452.8 588.95 456.8 586.6 422.85 586.6 422.8 Q586.15 393.3 588.45 390.1 L588.5 390.0 Q590.85 386.85 593.0 384.9 L542.7 384.9 M599.25 384.85 L599.0 384.9 Q595.4 385.75 590.95 391.75 589.15 394.85 589.6 422.65 L591.9 455.85 Q602.25 449.5 605.7 443.25 607.2 440.55 607.4 437.9 L609.85 401.3 Q606.1 386.35 600.85 384.9 L600.8 384.85 Q600.0 384.65 599.25 384.85" fill="#312015" fill-rule="evenodd" stroke="none"/>
    <path d="M517.75 472.3 L519.2 471.35 519.2 471.4 520.4 470.55 520.2 472.05 520.2 472.9 Q519.8 484.9 521.4 496.65 L521.7 498.85 Q523.6 511.1 526.0 523.25 L529.45 539.3 529.8 540.25 530.65 542.8 531.4 543.85 531.45 543.85 Q534.05 545.0 536.75 545.2 L536.95 545.2 537.0 545.25 541.4 544.8 541.5 544.95 542.45 546.0 Q536.9 549.05 532.0 546.8 530.65 546.15 529.35 545.15 528.3 544.35 527.9 543.25 526.75 539.85 526.0 536.4 523.05 523.95 521.0 511.15 518.9 498.2 517.6 485.4 L517.3 482.1 Q516.85 477.05 517.75 472.3 M526.1 465.05 L528.1 462.35 528.05 462.45 528.15 462.35 Q529.2 462.7 530.35 463.4 534.95 466.15 537.65 470.95 L550.25 493.8 Q555.7 503.6 560.75 513.5 564.05 517.45 565.4 522.5 565.75 523.9 565.45 525.4 564.8 528.5 563.05 531.25 L561.7 533.35 561.15 532.05 561.25 531.4 562.65 522.85 Q562.75 522.0 562.2 521.3 L561.6 520.05 561.2 518.45 Q559.2 516.8 558.05 514.6 L554.75 508.2 535.35 472.25 Q532.25 466.75 526.1 465.05 M474.25 507.4 L472.35 515.95 471.9 518.15 Q470.35 521.65 467.7 524.6 466.7 525.65 465.3 526.15 462.3 527.3 459.1 527.3 L456.6 527.3 457.4 526.1 458.0 525.85 Q462.0 524.35 465.9 522.45 466.65 522.05 467.0 521.25 L467.75 520.05 468.85 518.85 Q469.15 516.3 470.4 514.15 L474.0 507.9 474.25 507.4 M531.25 534.7 Q533.2 530.6 536.35 527.05 538.2 524.95 540.35 523.4 L542.2 522.15 Q547.7 518.8 554.85 518.85 L558.4 519.15 561.25 520.1 Q562.95 523.45 560.45 526.5 L559.7 527.3 558.55 524.3 Q559.45 523.0 558.7 521.25 L558.4 520.65 556.75 520.5 553.35 520.75 552.85 520.8 Q547.1 521.5 542.7 524.35 L540.9 525.7 Q538.45 527.65 536.55 530.4 L536.6 530.55 534.6 535.35 534.15 542.65 534.5 542.95 Q537.35 543.6 540.1 542.95 L540.6 543.7 Q538.7 544.6 536.95 544.5 535.1 544.45 533.4 543.4 531.75 542.3 531.1 540.0 L531.55 540.5 Q530.5 538.9 531.25 534.7 M470.2 466.85 L470.15 470.15 464.15 475.1 Q454.8 483.3 445.9 491.85 L434.25 503.35 433.65 504.15 431.95 506.25 431.5 507.45 Q431.9 510.3 433.25 512.7 L433.3 512.85 433.3 512.9 433.35 512.95 Q434.4 514.8 436.05 516.4 L436.0 516.55 435.6 517.95 Q428.55 514.05 429.3 506.45 429.35 505.15 430.1 504.2 432.3 501.4 434.85 498.9 443.7 489.75 453.4 481.15 461.65 473.7 470.2 466.85 M462.7 513.5 L462.4 513.1 Q455.75 505.05 445.55 504.55 L445.45 504.65 440.35 505.55 Q437.15 507.35 434.0 509.1 L433.9 509.6 Q434.85 512.35 436.9 514.3 L436.55 515.1 Q434.8 514.0 433.9 512.45 432.95 510.9 432.95 508.9 432.95 506.9 434.55 505.15 L434.4 505.8 Q435.15 504.05 439.1 502.45 443.6 501.85 448.25 502.6 459.15 504.3 465.1 513.7 466.15 515.1 466.75 516.9 L467.5 519.8 Q465.55 523.05 461.65 522.55 L460.6 522.35 462.5 519.8 Q464.05 519.85 465.15 518.25 L465.5 517.7 464.7 516.2 462.7 513.5" fill="#430e06" fill-rule="evenodd" stroke="none"/>
    <path d="M487.75 438.3 L489.0 438.0 Q488.85 438.45 489.0 439.0 L487.95 439.25 Q487.7 439.25 487.75 439.0 L487.75 438.7 487.75 438.3 M508.85 436.35 L509.1 436.35 509.25 436.35 512.55 434.8 Q519.5 433.75 526.3 436.35 L530.45 450.85 530.6 451.2 530.4 451.7 530.25 452.5 529.25 455.45 Q528.4 457.3 527.0 458.95 L525.65 460.65 525.6 460.75 524.65 462.1 524.5 462.3 524.5 462.15 524.95 457.85 524.45 456.35 524.0 454.9 522.85 451.75 Q520.4 445.5 517.95 442.35 L516.9 441.15 520.55 437.5 Q520.2 437.05 519.7 437.0 519.05 436.9 518.55 437.3 L509.35 439.1 508.85 436.35 M517.5 468.9 L517.5 468.95 Q516.8 469.4 516.15 469.8 L515.3 470.35 515.3 470.3 515.15 470.05 517.5 468.9 M502.95 458.85 L501.15 468.65 501.1 467.85 501.05 466.65 501.0 464.5 500.95 458.85 502.95 458.85 M490.5 445.85 L490.25 446.1 490.1 446.3 Q489.85 446.85 490.05 447.45 L491.2 450.65 491.95 452.9 492.9 455.8 493.9 459.05 494.1 459.7 494.95 462.4 495.4 464.0 495.65 464.85 495.75 465.25 495.9 465.85 496.2 467.05 496.3 467.3 496.7 469.3 496.5 468.4 496.1 467.35 495.95 466.9 495.5 465.85 495.3 465.4 493.4 461.1 492.75 459.9 491.9 458.25 490.4 455.75 Q487.95 451.9 485.45 449.75 482.2 446.95 478.8 446.95 477.7 446.95 476.85 448.25 474.55 451.65 473.75 464.05 L473.55 467.6 473.5 468.55 Q473.5 472.1 474.45 473.35 L474.4 473.5 472.55 472.85 473.5 449.1 489.0 439.05 490.5 445.85 M508.9 467.15 L511.5 467.75 515.3 473.45 516.15 473.25 517.75 472.3 Q516.85 477.05 517.3 482.1 L517.6 485.4 Q513.0 472.7 508.9 467.15 M524.65 466.75 L526.1 465.05 Q532.25 466.75 535.35 472.25 L554.75 508.2 558.05 514.6 Q559.2 516.8 561.2 518.45 L561.6 520.05 562.2 521.3 Q562.75 522.0 562.65 522.85 L561.25 531.4 560.85 531.3 560.35 529.7 559.7 527.3 560.45 526.5 Q562.95 523.45 561.25 520.1 L558.4 519.15 554.85 518.85 Q547.7 518.8 542.2 522.15 L540.35 523.4 Q538.2 524.95 536.35 527.05 533.2 530.6 531.25 534.7 L531.1 534.65 531.1 534.7 531.25 534.7 Q530.5 538.9 531.55 540.5 L531.1 540.0 Q531.75 542.3 533.4 543.4 535.1 544.45 536.95 544.5 538.7 544.6 540.6 543.7 L540.85 543.35 540.95 543.55 Q542.2 545.65 541.5 544.95 L541.4 544.8 537.0 545.25 536.95 544.5 536.75 545.2 Q534.05 545.0 531.45 543.85 L531.4 543.85 530.65 542.8 Q530.35 541.45 530.35 540.1 L530.35 540.05 529.8 540.25 529.45 539.3 Q529.45 537.1 529.9 535.1 530.9 530.3 534.55 526.55 537.05 523.95 539.9 521.7 L541.75 520.3 545.45 517.75 Q547.35 516.45 548.3 514.45 549.0 513.1 547.05 507.4 L540.0 488.6 Q535.2 476.35 524.65 466.75 M492.9 497.45 L493.8 497.55 493.85 497.4 493.95 497.05 Q495.15 495.15 498.5 495.5 L498.5 494.85 499.1 493.9 498.55 491.1 498.5 485.75 499.2 485.05 499.2 485.35 499.55 498.15 499.35 498.25 499.2 498.25 Q499.05 498.25 499.0 498.35 L498.95 498.35 Q494.8 496.75 494.1 497.85 L493.8 497.55 Q493.5 497.6 493.65 497.75 L492.85 497.65 492.85 497.5 492.9 497.45 M498.3 482.15 L498.5 482.45 Q498.9 483.2 498.55 484.45 L498.5 484.5 498.3 485.05 496.95 484.95 497.55 484.05 496.8 482.6 Q496.95 482.1 497.55 481.55 L497.85 481.7 498.3 482.15 M501.5 481.7 L501.8 481.7 502.15 481.65 502.25 481.85 501.5 481.7 M496.65 490.5 Q497.2 490.85 497.8 491.95 498.45 493.1 498.35 493.6 497.95 494.9 494.85 494.0 L494.7 493.95 494.55 493.85 494.4 493.7 494.45 493.7 494.45 493.65 494.65 493.4 495.35 492.95 Q496.3 492.45 497.15 492.65 496.15 491.5 496.4 490.75 L496.65 490.5 M532.0 546.8 Q536.9 549.05 542.45 546.0 543.65 549.25 546.3 551.4 L546.45 552.15 546.45 552.2 Q548.35 562.55 549.8 573.05 L552.7 596.75 Q554.3 610.25 556.5 623.7 557.9 632.45 561.75 640.35 L563.35 643.4 564.0 643.9 564.2 643.95 564.6 644.3 563.85 646.55 563.9 646.65 563.6 647.1 563.3 647.6 562.95 647.9 560.85 649.95 560.8 649.9 554.75 654.85 551.85 656.75 551.55 656.9 550.2 657.65 Q545.45 660.3 540.35 662.25 L539.2 662.7 537.4 663.25 528.95 665.75 528.6 665.9 Q523.3 667.25 517.85 667.95 L519.25 667.95 516.65 668.2 511.9 669.05 511.15 669.2 511.05 669.2 508.95 669.5 506.45 669.85 501.65 669.95 494.7 670.1 485.25 669.5 485.25 669.55 479.8 668.1 479.75 668.1 476.5 667.1 474.7 666.45 Q469.0 664.05 463.85 661.0 L463.6 660.8 460.9 658.0 460.75 657.45 459.6 657.4 460.65 654.35 Q461.35 651.85 461.7 649.35 L465.65 651.45 Q493.55 666.1 514.25 662.0 521.7 660.5 532.4 653.7 543.5 646.6 545.25 641.65 534.4 645.5 521.55 649.15 L520.0 649.4 Q519.5 649.25 519.3 648.15 518.8 645.5 526.55 641.0 535.0 636.05 535.6 635.35 L535.6 635.3 Q540.7 625.95 541.1 621.55 542.1 610.0 542.75 605.05 542.65 602.95 540.3 593.25 L532.0 546.8 M478.75 490.15 L477.15 496.0 474.25 507.4 474.0 507.9 470.4 514.15 Q469.15 516.3 468.85 518.85 L467.75 520.05 467.0 521.25 Q466.65 522.05 465.9 522.45 462.0 524.35 458.0 525.85 L457.85 525.45 Q458.65 524.35 458.95 524.2 L460.6 522.35 461.65 522.55 Q465.55 523.05 467.5 519.8 L466.75 516.9 Q466.15 515.1 465.1 513.7 459.15 504.3 448.25 502.6 443.6 501.85 439.1 502.45 435.15 504.05 434.4 505.8 L434.55 505.15 Q432.95 506.9 432.95 508.9 432.95 510.9 433.9 512.45 434.8 514.0 436.55 515.1 L436.95 515.15 436.85 515.35 Q435.75 517.5 436.0 516.55 L436.05 516.4 Q434.4 514.8 433.35 512.95 L433.9 512.45 433.25 512.7 Q431.9 510.3 431.5 507.45 L431.95 506.25 434.1 504.55 433.65 504.15 434.25 503.35 Q440.45 499.3 447.7 500.8 454.4 502.2 461.0 505.25 463.05 506.15 465.3 505.9 466.75 505.75 470.55 501.0 L478.75 490.15 M484.25 459.95 L487.55 465.15 484.95 464.15 483.8 464.2 479.6 466.1 484.25 459.95 M439.1 502.45 L439.1 502.25 439.0 502.3 439.1 502.45 M469.65 622.7 Q473.2 627.15 478.75 632.4 490.8 643.6 503.05 648.05 486.5 645.55 478.3 636.65 475.8 633.95 472.85 629.05 469.85 624.2 468.35 622.45 L468.3 622.4 Q468.45 622.1 469.1 622.0 L469.65 622.7 M470.75 640.45 L471.7 640.3 Q472.85 640.05 479.7 647.5 L479.3 648.0 Q475.4 647.05 470.65 640.85 L470.75 640.45 M564.25 645.2 Q563.85 645.5 563.8 645.95 L563.85 646.5 564.25 645.2 M527.05 644.65 L526.35 644.8 527.0 644.75 527.05 644.65" fill="#aa0000" fill-rule="evenodd" stroke="none"/>
    <path d="M537.0 545.25 L536.95 545.2 536.95 544.5 537.0 545.25 M531.25 534.7 L531.1 534.7 531.1 534.65 531.25 534.7 M433.3 512.9 L433.3 512.85 433.9 512.45 433.3 512.9 M439.1 502.45 L439.0 502.3 439.1 502.25 439.1 502.45" fill="#e53516" fill-rule="evenodd" stroke="none"/>
    <path d="M524.5 462.3 L524.2 462.7 521.4 465.8 520.95 466.25 518.9 467.9 518.05 468.5 517.5 468.9 515.15 470.05 506.8 452.8 506.15 452.15 505.25 451.95 Q504.75 452.0 504.4 452.35 L504.25 452.55 504.0 453.15 502.95 458.8 502.95 458.85 500.95 458.85 500.95 458.5 500.95 458.45 501.15 453.0 501.35 452.15 Q501.6 451.1 502.4 450.2 L512.2 445.75 512.45 445.6 516.9 441.15 517.95 442.35 Q520.4 445.5 522.85 451.75 L524.0 454.9 524.45 456.35 524.95 457.85 524.5 462.15 524.5 462.3 M510.2 442.2 L510.55 443.2 510.45 443.2 510.2 442.2 M496.7 469.3 L497.35 473.5 497.35 473.7 497.45 474.1 497.75 475.0 498.55 475.85 498.65 475.85 498.75 475.9 499.05 478.15 499.1 478.2 499.1 478.25 499.25 479.0 499.15 478.95 484.8 454.7 Q484.45 454.15 483.85 454.0 L482.75 454.15 Q482.5 454.3 482.4 454.45 L481.95 454.55 Q481.35 454.8 481.15 455.35 L475.75 467.55 475.65 467.85 474.45 473.35 Q473.5 472.1 473.5 468.55 L473.55 467.6 473.75 464.05 Q474.55 451.65 476.85 448.25 477.7 446.95 478.8 446.95 482.2 446.95 485.45 449.75 487.95 451.9 490.4 455.75 L491.9 458.25 492.75 459.9 493.4 461.1 495.3 465.4 495.5 465.85 495.95 466.9 496.1 467.35 496.5 468.4 496.7 469.3 M520.4 470.55 L524.65 466.75 Q535.2 476.35 540.0 488.6 L547.05 507.4 Q549.0 513.1 548.3 514.45 547.35 516.45 545.45 517.75 L541.75 520.3 539.9 521.7 Q537.05 523.95 534.55 526.55 530.9 530.3 529.9 535.1 529.45 537.1 529.45 539.3 L526.0 523.25 Q523.6 511.1 521.7 498.85 L521.4 496.65 Q519.8 484.9 520.2 472.9 L520.2 472.05 520.4 470.55 M493.95 497.05 L494.4 494.65 494.7 494.8 Q497.4 495.65 498.5 494.85 L498.5 495.5 Q495.15 495.15 493.95 497.05 M498.55 491.1 Q498.0 489.8 497.0 489.5 496.45 489.3 495.2 490.1 L495.95 485.4 496.8 485.75 Q497.85 486.05 498.5 485.75 L498.55 491.1 M496.95 484.95 L496.35 484.8 496.05 484.6 496.3 482.5 Q496.7 481.3 497.0 481.4 L497.55 481.55 Q496.95 482.1 496.8 482.6 L497.55 484.05 496.95 484.95 M496.65 490.5 L496.4 490.75 Q496.15 491.5 497.15 492.65 496.3 492.45 495.35 492.95 L494.65 493.4 495.1 490.9 Q495.75 490.2 496.35 490.4 L496.65 490.5 M536.95 545.2 L536.75 545.2 536.95 544.5 536.95 545.2 M470.15 470.15 L470.1 475.15 470.55 475.4 474.35 476.65 479.9 469.65 488.25 469.4 Q487.35 470.25 486.55 471.25 482.6 476.2 480.9 482.45 L478.75 490.15 470.55 501.0 Q466.75 505.75 465.3 505.9 463.05 506.15 461.0 505.25 454.4 502.2 447.7 500.8 440.45 499.3 434.25 503.35 L445.9 491.85 Q454.8 483.3 464.15 475.1 L470.15 470.15 M499.0 498.35 Q499.05 498.25 499.2 498.25 L499.35 498.25 499.1 498.4 499.0 498.35 M494.1 497.85 L494.05 497.95 493.65 497.75 Q493.5 497.6 493.8 497.55 L494.1 497.85 M536.95 544.5 L537.0 545.25 536.95 544.5 M433.35 512.95 L433.3 512.9 433.9 512.45 433.3 512.85 433.25 512.7 433.9 512.45 433.35 512.95 M527.05 644.65 L527.0 644.75 526.35 644.8 527.05 644.65" fill="#cc0000" fill-rule="evenodd" stroke="none"/>
    <path d="M557.6 550.65 L557.8 549.75 Q558.2 530.1 549.9 529.0 546.6 528.55 543.95 529.65 L542.05 530.75 540.55 532.0 Q539.4 533.15 538.3 534.6 L538.25 534.65 Q537.25 532.65 536.6 530.55 L536.55 530.4 Q538.45 527.65 540.9 525.7 L542.7 524.35 Q547.1 521.5 552.85 520.8 L553.35 520.75 Q559.45 531.8 561.5 544.45 562.0 547.8 559.4 549.65 L558.75 550.05 557.9 550.5 557.6 550.65 M439.85 533.15 L440.7 532.85 Q457.45 522.6 453.9 515.05 451.45 509.8 446.35 508.8 L442.95 508.3 442.9 508.3 Q444.05 506.4 445.45 504.65 L445.55 504.55 Q455.75 505.05 462.4 513.1 L462.7 513.5 Q456.65 524.55 447.15 533.1 444.6 535.35 441.65 534.1 L441.0 533.8 440.15 533.3 439.85 533.15" fill="#c58154" fill-rule="evenodd" stroke="none"/>
    <path d="M538.25 534.65 L538.3 534.6 Q539.4 533.15 540.55 532.0 L542.05 530.75 543.95 529.65 Q546.6 528.55 549.9 529.0 558.2 530.1 557.8 549.75 L557.6 550.65 Q552.85 552.85 548.65 549.4 L548.0 548.85 Q546.3 547.45 545.2 545.45 L544.9 544.9 Q543.45 542.05 541.65 539.65 539.65 537.3 538.25 534.65 M442.9 508.3 L442.95 508.3 446.35 508.8 Q451.45 509.8 453.9 515.05 457.45 522.6 440.7 532.85 L439.85 533.15 Q435.45 530.35 436.05 524.95 436.25 522.05 437.85 519.35 439.45 516.65 440.5 513.8 441.4 510.85 442.9 508.3" fill="#da9e69" fill-rule="evenodd" stroke="none"/>
    <path d="M542.45 546.0 L541.5 544.95 Q542.2 545.65 540.95 543.55 L540.85 543.35 540.6 543.7 540.1 542.95 540.35 542.95 538.05 539.15 Q536.4 536.6 534.6 535.35 L536.6 530.55 Q537.25 532.65 538.25 534.65 539.65 537.3 541.65 539.65 543.45 542.05 544.9 544.9 L545.2 545.45 Q546.3 547.45 548.0 548.85 L548.65 549.4 Q552.85 552.85 557.6 550.65 L557.9 550.5 558.75 550.05 559.4 549.65 Q562.0 547.8 561.5 544.45 559.45 531.8 553.35 520.75 L556.75 520.5 558.55 524.3 559.7 527.3 560.35 529.7 560.85 531.3 561.15 532.05 561.7 533.35 Q563.8 538.35 564.4 544.2 565.0 550.55 558.9 553.2 553.65 555.55 548.75 553.05 L547.75 552.45 546.3 551.4 Q543.65 549.25 542.45 546.0 M435.6 517.95 L436.0 516.55 Q435.75 517.5 436.85 515.35 L436.95 515.15 436.55 515.1 436.9 514.3 437.05 514.5 439.0 510.5 Q440.25 507.8 440.35 505.55 L445.45 504.65 Q444.05 506.4 442.9 508.3 441.4 510.85 440.5 513.8 439.45 516.65 437.85 519.35 436.25 522.05 436.05 524.95 435.45 530.35 439.85 533.15 L440.15 533.3 441.0 533.8 441.65 534.1 Q444.6 535.35 447.15 533.1 456.65 524.55 462.7 513.5 L464.7 516.2 462.5 519.8 460.6 522.35 458.95 524.2 Q458.65 524.35 457.85 525.45 L457.4 526.1 456.6 527.3 Q453.5 531.75 448.95 535.4 443.85 539.3 438.4 535.6 433.1 532.15 433.05 525.85 433.0 521.4 435.6 517.95" fill="#422e1a" fill-rule="evenodd" stroke="none"/>
    <path d="M540.1 542.95 Q537.35 543.6 534.5 542.95 L534.15 542.65 534.6 535.35 Q536.4 536.6 538.05 539.15 L540.35 542.95 540.1 542.95 M556.75 520.5 L558.4 520.65 558.7 521.25 Q559.45 523.0 558.55 524.3 L556.75 520.5 M464.7 516.2 L465.5 517.7 465.15 518.25 Q464.05 519.85 462.5 519.8 L464.7 516.2 M436.9 514.3 Q434.85 512.35 433.9 509.6 L434.0 509.1 Q437.15 507.35 440.35 505.55 440.25 507.8 439.0 510.5 L437.05 514.5 436.9 514.3" fill="#89200e" fill-rule="evenodd" stroke="none"/>
    <path d="M530.65 542.8 L529.8 540.25 530.35 540.05 530.35 540.1 Q530.35 541.45 530.65 542.8 M561.25 531.4 L561.15 532.05 560.85 531.3 561.25 531.4 M431.95 506.25 L433.65 504.15 434.1 504.55 431.95 506.25 M457.85 525.45 L458.0 525.85 457.4 526.1 457.85 525.45" fill="#b42b12" fill-rule="evenodd" stroke="none"/>
    <path d="M461.55 688.05 Q460.9 685.6 460.55 683.1 459.55 676.0 459.55 668.85 L459.45 661.05 457.4 659.85 456.9 659.3 456.85 658.5 457.2 657.35 457.45 657.35 457.5 657.0 Q460.75 648.7 459.6 639.8 458.35 630.25 458.55 620.6 458.6 616.8 458.95 613.0 459.9 600.4 461.15 587.95 462.45 575.35 464.15 562.9 465.7 551.55 467.7 540.3 469.6 529.2 471.9 518.15 L472.35 515.95 474.25 507.4 477.15 496.0 478.75 490.15 480.9 482.45 Q482.6 476.2 486.55 471.25 487.35 470.25 488.25 469.4 L479.9 469.65 474.35 476.65 470.55 475.4 470.1 475.15 470.15 470.15 470.2 466.85 470.5 448.4 Q470.5 447.8 471.0 447.35 L471.2 447.2 471.65 446.7 474.55 444.75 482.85 439.15 487.75 438.3 487.75 438.7 487.75 439.0 Q487.7 439.25 487.95 439.25 L489.0 439.0 489.15 438.95 489.0 439.05 473.5 449.1 472.55 472.85 474.4 473.5 474.45 473.35 475.65 467.85 475.75 467.55 481.15 455.35 Q481.35 454.8 481.95 454.55 L482.4 454.45 Q482.5 454.3 482.75 454.15 L483.85 454.0 Q484.45 454.15 484.8 454.7 L499.15 478.95 499.25 479.0 499.1 478.25 499.1 478.2 499.05 478.15 498.75 475.9 498.65 475.85 498.55 475.85 497.75 475.0 497.45 474.1 497.35 473.7 497.35 473.5 496.7 469.3 496.3 467.3 496.2 467.05 495.9 465.85 495.75 465.25 495.65 464.85 495.4 464.0 494.95 462.4 494.1 459.7 493.9 459.05 492.9 455.8 491.95 452.9 491.2 450.65 490.05 447.45 Q489.85 446.85 490.1 446.3 L490.25 446.1 490.5 445.85 Q490.7 445.65 490.95 445.6 L492.1 445.65 Q492.65 445.9 492.85 446.45 L493.4 447.95 493.9 449.35 494.5 451.15 496.75 458.0 497.9 461.95 497.95 459.9 497.95 458.45 497.95 458.4 498.15 452.75 498.15 452.7 498.3 451.7 Q498.65 450.15 499.7 448.85 L500.5 447.9 500.9 447.6 507.0 444.8 510.45 443.25 510.55 443.2 510.2 442.2 509.7 440.55 509.25 439.1 509.35 439.1 518.55 437.3 Q519.05 436.9 519.7 437.0 520.2 437.05 520.55 437.5 L516.9 441.15 512.45 445.6 512.2 445.75 502.4 450.2 Q501.6 451.1 501.35 452.15 L501.15 453.0 500.95 458.45 500.95 458.5 500.95 458.85 501.0 464.5 501.05 466.65 501.1 467.85 501.15 468.65 502.95 458.85 502.95 458.8 504.0 453.15 504.25 452.55 504.4 452.35 Q504.75 452.0 505.25 451.95 L506.15 452.15 506.8 452.8 515.15 470.05 515.3 470.3 515.3 470.35 516.15 469.8 Q516.8 469.4 517.5 468.95 L517.5 468.9 518.05 468.5 518.9 467.9 520.95 466.25 521.4 465.8 524.2 462.7 524.5 462.3 524.65 462.1 525.6 460.75 525.65 460.65 527.0 458.95 Q528.4 457.3 529.25 455.45 L530.25 452.5 530.4 451.7 530.6 451.2 530.45 450.85 526.3 436.35 Q519.5 433.75 512.55 434.8 L509.25 436.35 509.1 436.35 508.85 436.35 508.7 435.3 Q508.15 434.95 508.0 434.4 507.85 433.75 508.15 433.25 L508.6 432.75 Q508.8 432.6 509.05 432.55 L512.05 431.85 512.15 431.8 Q519.8 430.65 527.25 433.5 527.7 433.4 528.15 433.7 528.7 434.0 528.9 434.6 L533.35 450.05 533.2 451.15 Q533.5 451.65 533.4 452.2 L533.3 452.8 532.45 455.75 Q531.3 458.55 529.3 460.95 L528.15 462.35 528.05 462.45 528.1 462.35 526.1 465.05 524.65 466.75 520.4 470.55 519.2 471.4 519.2 471.35 517.75 472.3 516.15 473.25 515.3 473.45 511.5 467.75 508.9 467.15 505.3 466.7 501.1 479.6 499.95 483.05 Q499.3 483.05 498.85 482.65 L498.3 482.15 497.85 481.7 496.95 480.95 496.65 480.6 496.6 480.5 496.55 480.4 494.8 477.4 490.5 470.25 490.05 470.6 488.2 472.55 Q484.5 477.15 482.95 483.0 L482.95 483.05 482.35 485.25 479.25 496.55 478.2 500.4 475.7 510.8 474.45 516.4 Q471.9 528.5 469.8 540.7 467.8 551.9 466.25 563.2 464.55 575.65 463.3 588.15 462.0 600.6 461.05 613.15 460.75 617.05 460.7 621.0 460.5 630.3 461.75 639.55 462.35 644.55 461.7 649.35 461.35 651.85 460.65 654.35 L459.6 657.4 460.75 657.45 460.9 658.0 463.6 660.8 463.85 661.0 Q469.0 664.05 474.7 666.45 L476.5 667.1 479.75 668.1 479.8 668.1 485.25 669.55 485.35 669.55 485.25 669.5 494.7 670.1 501.65 669.95 506.45 669.85 508.95 669.5 511.05 669.2 511.15 669.2 511.9 669.05 516.65 668.2 519.25 667.95 517.85 667.95 Q523.3 667.25 528.6 665.9 L528.95 665.75 537.4 663.25 539.2 662.7 540.35 662.25 Q545.45 660.3 550.2 657.65 L551.55 656.9 551.85 656.75 554.75 654.85 560.8 649.9 560.85 649.95 562.95 647.9 563.3 647.6 563.6 647.1 563.9 646.65 563.85 646.55 564.6 644.3 564.2 643.95 564.0 643.9 563.35 643.4 561.75 640.35 Q557.9 632.45 556.5 623.7 554.3 610.25 552.7 596.75 L549.8 573.05 Q548.35 562.55 546.45 552.2 L546.45 552.15 546.3 551.4 547.75 552.45 548.75 553.05 Q550.55 562.85 551.9 572.8 L554.85 596.5 Q556.4 609.95 558.6 623.35 560.1 632.6 564.4 640.85 L565.25 642.35 565.3 643.15 565.25 643.4 566.9 643.45 566.95 643.8 566.85 645.55 566.7 646.0 566.35 646.8 566.1 647.55 565.35 648.55 564.9 648.9 564.8 649.15 565.0 649.35 563.65 649.3 563.5 649.9 562.85 652.5 Q562.0 655.55 561.7 657.2 560.45 664.05 558.45 670.45 L558.45 670.4 Q556.25 677.6 552.9 683.85 L550.35 688.05 548.15 691.3 548.1 691.35 543.0 698.15 543.0 698.2 Q538.7 703.05 533.45 706.3 528.05 709.75 522.1 711.75 L522.05 711.75 Q515.4 713.85 508.6 714.8 L508.55 714.85 499.2 715.1 490.55 714.25 Q486.45 713.5 482.65 711.95 478.95 710.45 475.55 708.45 468.9 704.55 465.15 697.4 L465.15 697.35 Q462.85 692.9 461.55 688.05 M509.75 465.15 L507.1 461.2 506.0 464.65 509.75 465.15 M484.25 459.95 L479.6 466.1 483.8 464.2 484.95 464.15 487.55 465.15 484.25 459.95 M465.4 664.95 L466.05 666.55 Q471.2 668.6 476.9 669.65 L473.85 668.55 472.8 668.1 Q468.85 666.4 465.2 664.35 L465.4 664.95 M467.15 679.35 L466.05 679.0 466.5 681.5 465.75 681.45 465.15 680.9 465.1 680.8 464.15 677.25 Q462.95 672.7 463.4 668.75 L463.45 668.75 463.7 665.9 463.75 665.6 463.15 665.3 462.15 662.55 461.75 662.35 461.8 668.8 461.8 668.9 Q461.8 675.85 462.85 682.8 463.2 685.45 463.95 688.05 465.1 692.35 467.2 696.35 L467.2 696.3 Q468.75 699.35 470.95 701.75 L471.25 702.1 472.25 703.15 476.7 706.55 Q479.95 708.45 483.5 709.85 L483.55 709.85 Q487.15 711.3 490.95 711.95 L493.95 712.5 499.2 712.85 505.35 712.7 508.3 712.55 508.35 712.55 Q514.9 711.6 521.35 709.55 527.05 707.65 532.2 704.4 537.15 701.3 541.25 696.75 L541.25 696.7 546.25 690.05 546.3 690.05 547.65 688.05 549.65 684.85 550.85 682.8 Q554.15 676.7 556.3 669.75 L556.25 669.7 556.35 669.55 554.55 672.05 554.5 672.1 Q551.5 675.5 546.85 676.35 L545.75 682.35 545.3 682.4 545.2 682.4 Q546.35 674.25 545.3 665.25 L545.3 665.15 545.25 664.7 Q545.3 664.25 545.65 663.95 546.0 663.65 546.45 663.65 546.95 663.7 547.25 664.05 L547.45 664.35 556.7 659.7 557.4 659.6 558.05 659.95 558.35 660.6 558.4 661.8 559.45 656.8 559.95 653.5 560.05 652.5 559.0 654.4 558.4 655.0 557.95 655.4 551.35 659.65 Q545.9 662.7 539.9 664.8 L539.85 664.8 529.25 668.05 529.2 668.05 526.7 668.65 521.05 669.95 519.5 670.2 518.15 670.45 515.6 670.8 515.6 670.7 515.75 670.65 515.6 670.65 514.6 670.85 507.1 672.1 503.8 672.1 503.85 672.35 503.8 674.05 513.55 671.75 515.65 671.6 515.95 683.95 515.95 684.7 516.0 685.95 515.85 686.0 Q515.4 686.0 515.1 685.65 L514.75 685.0 514.75 684.8 514.7 683.55 504.0 685.65 503.8 685.65 503.8 686.7 502.3 687.8 502.25 687.75 501.7 687.95 500.85 688.05 Q493.6 688.85 486.5 688.05 L481.2 687.25 478.9 686.75 478.7 686.7 478.85 686.7 478.65 686.65 477.7 686.45 477.35 686.25 Q476.45 685.75 476.05 684.75 L475.5 683.2 475.35 682.05 475.35 682.0 475.0 682.0 474.95 682.0 467.15 679.35 M534.4 679.15 L533.95 679.3 527.85 680.9 521.45 682.6 521.5 682.9 521.45 682.9 521.5 683.5 521.55 683.6 521.55 683.65 521.6 686.25 521.25 687.05 Q520.9 687.4 520.45 687.4 L520.1 687.35 519.55 671.2 529.6 669.7 530.85 668.55 532.0 668.25 536.05 667.2 536.1 667.15 541.05 665.95 541.25 665.75 543.4 665.2 543.4 665.4 543.3 666.7 543.25 666.8 543.3 666.9 543.3 667.05 Q543.55 675.35 540.75 682.05 L540.25 681.75 Q539.9 681.35 539.95 680.9 L540.2 677.65 540.1 677.65 534.4 679.15 M465.75 673.65 L465.7 673.65 466.1 675.75 466.3 676.4 466.35 676.65 475.4 679.75 475.55 677.05 475.9 671.4 475.75 671.35 Q471.8 670.5 468.55 669.0 L465.8 667.75 465.65 669.0 465.7 669.0 Q465.4 671.35 465.75 673.65 M480.1 682.7 L480.0 681.45 Q479.85 679.1 480.3 676.65 480.4 675.9 480.65 675.25 L481.2 674.35 Q481.25 674.0 481.55 673.8 481.9 673.45 482.35 673.5 L498.25 674.45 498.4 674.45 498.55 674.5 498.85 674.6 Q499.6 674.85 499.95 675.25 500.35 675.6 500.4 676.1 L500.35 679.35 500.35 679.25 500.3 682.3 500.15 681.85 500.25 682.35 499.9 683.2 499.7 683.4 499.15 683.55 485.65 683.9 485.05 683.9 484.9 683.85 481.9 683.9 482.0 683.95 481.4 683.95 Q480.9 683.95 480.55 683.6 L480.45 683.5 480.2 683.15 480.15 683.4 480.1 682.7 M499.3 672.05 L499.05 672.0 Q489.05 671.65 478.65 669.95 L478.25 669.9 477.65 680.2 477.45 680.75 477.5 681.25 477.55 681.7 477.6 682.1 Q477.7 683.0 478.1 683.8 L478.1 683.85 Q478.35 684.4 479.1 684.5 L479.25 684.5 481.2 684.95 481.3 684.95 Q491.2 687.0 501.4 685.7 L501.55 685.7 501.6 672.35 501.6 672.25 499.85 672.1 499.55 672.05 499.3 672.05 M498.1 678.95 L498.1 676.75 498.05 676.75 482.85 675.8 482.8 676.0 Q482.6 676.45 482.55 677.05 482.3 678.35 482.35 679.75 L482.4 681.35 482.4 681.55 482.45 681.6 498.1 681.25 498.1 678.95 M514.65 678.0 L514.65 673.9 504.1 676.35 503.8 676.4 503.8 680.2 503.8 683.4 514.7 681.2 514.65 678.0 M521.3 676.85 L521.4 680.2 539.55 675.5 540.35 675.6 Q541.35 674.25 541.6 672.7 541.85 670.7 540.9 668.3 L521.4 673.25 521.2 673.3 521.3 676.85 M564.25 645.2 L563.85 646.5 563.8 645.95 Q563.85 645.5 564.25 645.2 M563.5 649.5 L563.6 649.35 563.5 649.3 563.5 649.5 M555.1 666.85 Q556.0 664.75 556.15 662.5 L547.5 666.9 547.45 666.95 547.25 670.1 547.15 671.55 547.1 672.0 547.0 674.0 Q550.45 673.25 552.75 670.65 L552.85 670.6 554.9 667.45 554.9 667.4 555.1 666.85" fill="#3e0000" fill-rule="evenodd" stroke="none"/>
    <path d="M496.6 480.5 L496.5 480.55 496.55 480.4 496.6 480.5 M494.8 477.4 Q493.35 491.05 492.9 497.45 L492.85 497.5 492.85 497.65 492.85 497.7 492.7 500.0 499.0 499.55 499.25 499.6 499.4 499.6 499.55 499.65 Q500.85 499.95 501.15 499.0 L501.25 498.55 501.25 498.35 501.3 498.3 Q501.65 494.95 501.1 479.6 L505.3 466.7 508.9 467.15 Q513.0 472.7 517.6 485.4 518.9 498.2 521.0 511.15 523.05 523.95 526.0 536.4 526.75 539.85 527.9 543.25 528.3 544.35 529.35 545.15 530.65 546.15 532.0 546.8 L540.3 593.25 Q542.65 602.95 542.75 605.05 542.1 610.0 541.1 621.55 540.7 625.95 535.6 635.3 L535.6 635.35 Q535.0 636.05 526.55 641.0 518.8 645.5 519.3 648.15 519.5 649.25 520.0 649.4 L521.55 649.15 Q534.4 645.5 545.25 641.65 543.5 646.6 532.4 653.7 521.7 660.5 514.25 662.0 493.55 666.1 465.65 651.45 L461.7 649.35 Q462.35 644.55 461.75 639.55 460.5 630.3 460.7 621.0 460.75 617.05 461.05 613.15 462.0 600.6 463.3 588.15 464.55 575.65 466.25 563.2 467.8 551.9 469.8 540.7 471.9 528.5 474.45 516.4 L475.7 510.8 478.2 500.4 479.25 496.55 482.35 485.25 482.95 483.05 482.95 483.0 Q484.5 477.15 488.2 472.55 L490.05 470.6 490.5 470.25 494.8 477.4 M501.5 481.7 L502.25 481.85 502.15 481.65 501.8 481.7 501.5 481.7 M470.75 640.45 L470.65 640.85 Q475.4 647.05 479.3 648.0 L479.7 647.5 Q472.85 640.05 471.7 640.3 L470.75 640.45 M469.65 622.7 L469.1 622.0 Q468.45 622.1 468.3 622.4 L468.35 622.45 Q469.85 624.2 472.85 629.05 475.8 633.95 478.3 636.65 486.5 645.55 503.05 648.05 490.8 643.6 478.75 632.4 473.2 627.15 469.65 622.7" fill="#961414" fill-rule="evenodd" stroke="none"/>
    <path d="M496.55 480.4 L496.5 480.55 496.6 480.5 496.65 480.6 496.95 480.95 497.85 481.7 497.55 481.55 497.0 481.4 Q496.7 481.3 496.3 482.5 L496.05 484.6 496.35 484.8 496.95 484.95 498.3 485.05 498.5 484.5 498.55 484.45 Q498.9 483.2 498.5 482.45 L498.3 482.15 498.85 482.65 Q499.3 483.05 499.95 483.05 L501.1 479.6 Q501.65 494.95 501.3 498.3 L499.55 498.15 499.2 485.35 499.2 485.05 498.5 485.75 Q497.85 486.05 496.8 485.75 L495.95 485.4 495.2 490.1 Q496.45 489.3 497.0 489.5 498.0 489.8 498.55 491.1 L499.1 493.9 498.5 494.85 Q497.4 495.65 494.7 494.8 L494.4 494.65 493.95 497.05 493.85 497.4 493.8 497.55 492.9 497.45 Q493.35 491.05 494.8 477.4 L496.55 480.4 M494.65 493.4 L494.45 493.65 494.45 493.7 494.4 493.7 494.55 493.85 494.7 493.95 494.85 494.0 Q497.95 494.9 498.35 493.6 498.45 493.1 497.8 491.95 497.2 490.85 496.65 490.5 L496.35 490.4 Q495.75 490.2 495.1 490.9 L494.65 493.4 M499.0 499.55 L492.7 500.0 492.85 497.7 492.85 497.65 493.65 497.75 494.05 497.95 494.1 497.85 Q494.8 496.75 498.95 498.35 L499.0 498.35 499.1 498.4 499.0 499.55" fill="#930000" fill-rule="evenodd" stroke="none"/>
    <path d="M499.55 498.15 L501.3 498.3 501.25 498.35 501.25 498.55 501.15 499.0 Q500.85 499.95 499.55 499.65 L499.4 499.6 499.25 499.6 499.0 499.55 499.1 498.4 499.35 498.25 499.55 498.15" fill="#9b0000" fill-rule="evenodd" stroke="none"/>
    <path d="M470.95 701.75 Q468.75 699.35 467.2 696.3 L467.2 696.35 Q465.1 692.35 463.95 688.05 463.2 685.45 462.85 682.8 461.8 675.85 461.8 668.9 L461.8 668.8 461.75 662.35 462.15 662.55 463.15 665.3 463.75 665.6 463.7 665.9 463.45 668.75 463.4 668.75 Q462.95 672.7 464.15 677.25 L465.1 680.8 465.15 680.9 465.75 681.45 466.5 681.5 466.05 679.0 467.15 679.35 466.95 679.4 466.6 679.85 Q467.25 680.4 475.5 683.2 L476.05 684.75 Q476.45 685.75 477.35 686.25 477.7 687.2 479.3 688.05 481.35 689.1 485.45 689.9 L497.05 690.45 Q503.05 689.25 504.3 688.45 L504.7 688.05 505.0 686.7 514.75 685.0 515.1 685.65 Q515.4 686.0 515.85 686.0 L516.0 685.95 515.95 684.7 516.45 684.15 515.95 683.95 515.65 671.6 519.55 671.2 520.1 687.35 520.45 687.4 Q520.9 687.4 521.25 687.05 L521.6 686.25 521.55 683.65 Q521.85 684.05 522.65 683.9 L534.3 680.5 534.4 679.25 533.95 679.3 534.4 679.15 Q534.2 682.55 533.3 685.25 L531.95 688.05 Q526.35 697.05 504.55 705.8 490.05 708.9 476.35 703.95 L470.95 701.75 M475.0 682.0 L475.35 682.0 475.35 682.05 475.2 682.05 475.0 682.0 M481.2 687.25 L481.2 687.45 Q480.55 687.55 479.5 686.9 L478.9 686.75 481.2 687.25 M485.85 689.05 L484.65 688.85 484.5 688.75 Q485.2 688.4 485.85 689.05 M493.95 712.5 L499.2 712.3 499.2 712.85 493.95 712.5 M507.1 672.1 L513.55 671.75 503.8 674.05 503.85 672.35 503.8 672.1 507.1 672.1 M521.5 682.9 L521.45 682.6 527.85 680.9 524.0 682.1 Q521.95 682.45 521.5 682.9 M532.0 668.25 L530.85 668.55 531.1 668.3 532.0 668.25" fill="#2c57b1" fill-rule="evenodd" stroke="none"/>
    <path d="M465.4 664.95 L465.2 664.35 Q468.85 666.4 472.8 668.1 L473.85 668.55 476.9 669.65 Q471.2 668.6 466.05 666.55 L465.4 664.95 M470.95 701.75 L476.35 703.95 Q490.05 708.9 504.55 705.8 526.35 697.05 531.95 688.05 L533.3 685.25 Q534.2 682.55 534.4 679.15 L540.1 677.65 540.2 677.65 539.95 680.9 Q539.9 681.35 540.25 681.75 L540.75 682.05 Q543.55 675.35 543.3 667.05 L543.3 666.9 543.25 666.8 543.3 666.7 543.4 665.4 543.4 665.2 541.25 665.75 541.05 665.95 536.1 667.15 536.05 667.2 532.0 668.25 531.1 668.3 530.85 668.55 529.6 669.7 519.55 671.2 515.65 671.6 513.55 671.75 507.1 672.1 514.6 670.85 515.6 670.65 515.75 670.65 515.6 670.7 515.6 670.8 518.15 670.45 519.5 670.2 521.05 669.95 526.7 668.65 529.2 668.05 529.25 668.05 539.85 664.8 539.9 664.8 Q545.9 662.7 551.35 659.65 L557.95 655.4 558.4 655.0 559.0 654.4 560.05 652.5 559.95 653.5 559.45 656.8 558.4 661.8 558.35 660.6 558.05 659.95 557.4 659.6 556.7 659.7 547.45 664.35 547.25 664.05 Q546.95 663.7 546.45 663.65 546.0 663.65 545.65 663.95 545.3 664.25 545.25 664.7 L545.3 665.15 545.3 665.25 Q546.35 674.25 545.2 682.4 L545.3 682.4 545.75 682.35 546.85 676.35 Q551.5 675.5 554.5 672.1 L554.55 672.05 556.35 669.55 556.25 669.7 556.3 669.75 Q554.15 676.7 550.85 682.8 L549.65 684.85 547.65 688.05 546.3 690.05 546.25 690.05 541.25 696.7 541.25 696.75 Q537.15 701.3 532.2 704.4 527.05 707.65 521.35 709.55 514.9 711.6 508.35 712.55 L508.3 712.55 505.35 712.7 499.2 712.85 499.2 712.3 493.95 712.5 490.95 711.95 Q487.15 711.3 483.55 709.85 L483.5 709.85 Q479.95 708.45 476.7 706.55 L472.25 703.15 471.25 702.1 470.95 701.75 M533.95 679.3 L534.4 679.25 534.3 680.5 522.65 683.9 Q521.85 684.05 521.55 683.65 L521.55 683.6 521.5 683.5 521.45 682.9 521.5 682.9 Q521.95 682.45 524.0 682.1 L527.85 680.9 533.95 679.3 M515.95 683.95 L516.45 684.15 515.95 684.7 515.95 683.95 M514.75 685.0 L505.0 686.7 504.7 688.05 504.3 688.45 Q503.05 689.25 497.05 690.45 L485.45 689.9 Q481.35 689.1 479.3 688.05 477.7 687.2 477.35 686.25 L477.7 686.45 478.65 686.65 478.85 686.7 478.7 686.7 478.9 686.75 479.5 686.9 Q480.55 687.55 481.2 687.45 L481.2 687.25 486.5 688.05 Q493.6 688.85 500.85 688.05 L501.7 687.95 502.25 687.75 502.3 687.8 503.8 686.7 503.8 685.65 504.0 685.65 514.7 683.55 514.75 684.8 514.75 685.0 M475.5 683.2 Q467.25 680.4 466.6 679.85 L466.95 679.4 467.15 679.35 474.95 682.0 475.0 682.0 475.2 682.05 475.35 682.05 475.5 683.2 M485.85 689.05 Q485.2 688.4 484.5 688.75 L484.65 688.85 485.85 689.05" fill="#23458b" fill-rule="evenodd" stroke="none"/>
    <path d="M475.55 677.05 L475.4 679.75 466.35 676.65 466.3 676.4 466.1 675.75 465.7 673.65 465.75 673.65 Q467.8 674.05 470.95 675.2 L475.55 677.05 M498.1 678.95 L498.1 681.25 482.45 681.6 482.4 681.55 482.4 681.35 482.35 679.75 498.1 678.95 M503.8 680.2 Q505.8 679.55 510.6 678.75 L510.25 678.8 514.65 678.0 514.7 681.2 503.8 683.4 503.8 680.2 M522.3 678.15 L522.15 678.25 523.05 677.9 522.3 678.15 M541.6 672.7 Q541.35 674.25 540.35 675.6 L539.55 675.5 521.4 680.2 521.3 676.85 Q524.6 675.7 532.35 674.05 L541.6 672.7 M547.25 670.1 Q549.5 669.0 554.75 666.65 555.05 666.7 555.1 666.85 L554.9 667.4 554.85 667.4 554.6 667.5 554.9 667.45 552.85 670.6 552.75 670.65 Q550.45 673.25 547.0 674.0 L547.1 672.0 Q547.55 671.7 548.2 671.35 L548.35 671.2 547.15 671.55 547.25 670.1" fill="#530000" fill-rule="evenodd" stroke="none"/>
    <path d="M465.75 673.65 Q465.4 671.35 465.7 669.0 L465.65 669.0 465.8 667.75 468.55 669.0 Q471.8 670.5 475.75 671.35 L475.9 671.4 475.55 677.05 470.95 675.2 Q467.8 674.05 465.75 673.65 M482.35 679.75 Q482.3 678.35 482.55 677.05 482.6 676.45 482.8 676.0 L482.85 675.8 498.05 676.75 498.1 676.75 498.1 678.95 482.35 679.75 M503.8 680.2 L503.8 676.4 504.1 676.35 514.65 673.9 514.65 678.0 510.25 678.8 510.6 678.75 Q505.8 679.55 503.8 680.2 M522.3 678.15 L523.05 677.9 522.15 678.25 522.3 678.15 M521.3 676.85 L521.2 673.3 521.4 673.25 540.9 668.3 Q541.85 670.7 541.6 672.7 L532.35 674.05 Q524.6 675.7 521.3 676.85 M547.25 670.1 L547.45 666.95 547.5 666.9 556.15 662.5 Q556.0 664.75 555.1 666.85 555.05 666.7 554.75 666.65 549.5 669.0 547.25 670.1 M554.9 667.4 L554.9 667.45 554.6 667.5 554.85 667.4 554.9 667.4 M547.1 672.0 L547.15 671.55 548.35 671.2 548.2 671.35 Q547.55 671.7 547.1 672.0" fill="#660000" fill-rule="evenodd" stroke="none"/>
    <path d="M499.95 675.25 Q499.6 674.85 498.85 674.6 L498.55 674.5 498.4 674.45 498.25 674.45 482.35 673.5 Q481.9 673.45 481.55 673.8 481.25 674.0 481.2 674.35 L480.65 675.25 Q480.4 675.9 480.3 676.65 479.85 679.1 480.0 681.45 L480.1 682.7 477.6 681.7 477.55 681.7 477.5 681.25 477.45 680.75 477.65 680.2 478.25 669.9 478.65 669.95 Q489.05 671.65 499.05 672.0 L499.3 672.05 499.7 673.65 499.95 675.25 M485.05 683.9 L485.65 683.9 485.7 683.95 485.05 683.9 M500.25 682.35 L500.15 681.85 500.3 682.3 500.25 682.35" fill="#cc9900" fill-rule="evenodd" stroke="none"/>
    <path d="M480.1 682.7 L480.15 683.4 480.2 683.15 480.45 683.5 480.55 683.6 Q480.9 683.95 481.4 683.95 L482.0 683.95 481.9 683.9 484.9 683.85 485.05 683.9 485.7 683.95 485.65 683.9 499.15 683.55 499.7 683.4 499.9 683.2 500.25 682.35 500.3 682.3 500.35 679.25 500.35 679.35 500.4 676.1 Q500.35 675.6 499.95 675.25 L499.7 673.65 499.3 672.05 499.55 672.05 499.85 672.1 501.6 672.25 501.6 672.35 501.55 685.7 501.4 685.7 Q491.2 687.0 481.3 684.95 L481.2 684.95 479.25 684.5 479.1 684.5 Q478.35 684.4 478.1 683.85 L478.1 683.8 Q477.7 683.0 477.6 682.1 L477.55 681.7 477.6 681.7 480.1 682.7" fill="#996600" fill-rule="evenodd" stroke="none"/>
    <path d="M489.0 438.0 L491.2 437.45 493.65 447.95 493.9 449.35 493.4 447.95 492.85 446.45 Q492.65 445.9 492.1 445.65 L490.95 445.6 Q490.7 445.65 490.5 445.85 L489.0 439.05 489.15 438.95 489.0 439.0 Q488.85 438.45 489.0 438.0 M504.65 432.25 L508.3 430.25 508.6 432.75 508.15 433.25 Q507.85 433.75 508.0 434.4 508.15 434.95 508.7 435.3 L508.85 436.35 509.35 439.1 509.25 439.1 509.7 440.55 510.2 442.2 510.45 443.2 510.45 443.25 507.0 444.8 504.65 432.25" fill="#3f2b16" fill-rule="evenodd" stroke="none"/>
    <path d="M440.35 304.4 Q445.85 307.0 451.2 310.55 L450.5 310.7 Q446.5 311.45 442.75 312.8 433.35 316.05 425.3 322.7 L420.7 326.9 Q417.95 329.65 415.65 332.55 414.0 334.6 412.6 336.8 410.8 339.5 409.4 342.4 407.0 347.05 405.6 352.15 403.3 360.05 403.35 369.0 403.3 393.65 420.7 411.0 438.1 428.45 462.8 428.45 L469.4 428.15 472.4 427.75 Q477.2 427.05 481.65 425.55 L485.3 424.25 Q495.0 420.25 503.2 412.6 L504.8 411.0 506.0 409.8 Q516.5 398.75 520.25 384.9 L520.95 381.9 Q522.25 375.7 522.25 369.0 522.25 365.15 521.85 361.55 L521.35 358.2 520.1 352.6 518.7 348.2 Q517.25 344.3 515.3 340.7 523.1 337.6 531.05 330.65 537.95 341.9 540.0 355.15 540.6 359.0 540.8 363.1 L540.9 366.6 540.8 370.75 Q540.45 376.5 539.35 381.9 L538.6 384.9 Q534.05 402.15 520.55 415.65 514.6 421.6 507.95 425.8 L504.25 428.0 Q498.4 431.15 492.1 433.1 L490.15 433.65 486.1 434.6 Q479.5 435.9 472.4 436.0 L471.5 436.0 469.4 435.95 Q455.05 435.6 442.8 430.05 431.7 424.95 422.4 415.65 402.1 395.35 402.15 366.6 402.1 359.0 403.55 351.95 404.75 346.05 406.95 340.55 408.1 337.6 409.6 334.75 L409.7 334.55 Q412.0 330.15 415.0 326.1 418.25 321.6 422.4 317.5 428.2 311.7 434.7 307.6 437.45 305.85 440.35 304.4" fill="#db9c64" fill-rule="evenodd" stroke="none"/>
    <path d="M491.2 437.45 Q498.2 435.55 504.65 432.25 L507.0 444.8 500.9 447.6 500.5 447.9 499.7 448.85 Q498.65 450.15 498.3 451.7 L498.15 452.7 498.15 452.75 497.95 458.4 497.95 458.45 497.95 459.9 497.9 461.95 496.75 458.0 494.5 451.15 493.9 449.35 493.65 447.95 491.2 437.45" fill="#daa06b" fill-rule="evenodd" stroke="none"/>
    <path d="M434.25 278.85 L435.35 276.45 Q435.6 275.95 436.0 275.55 450.8 260.8 466.2 255.0 482.55 248.85 499.55 252.95 507.6 254.9 515.8 259.15 L515.85 259.2 Q565.55 286.1 561.1 325.8 L561.1 325.85 Q558.3 351.5 553.0 364.05 550.15 370.8 546.55 373.75 545.7 374.45 544.65 374.55 L544.45 374.55 544.65 372.2 544.2 372.15 Q543.2 372.05 542.6 371.3 541.95 370.5 542.05 369.55 L542.4 363.2 Q542.35 345.5 531.1 330.6 L532.0 329.8 Q532.95 328.9 533.05 327.6 533.1 326.3 532.2 325.3 L531.85 324.95 532.25 324.4 Q546.6 341.2 547.2 361.35 552.1 349.9 554.75 325.15 L554.75 325.1 Q558.2 289.3 512.8 264.75 L512.85 264.8 Q476.35 246.1 442.65 277.95 L434.25 278.85" fill="#0f2b5e" fill-rule="evenodd" stroke="none"/>
    <path d="M381.9 292.8 Q386.1 291.2 391.05 290.2 395.55 289.2 400.65 288.7 L408.9 288.15 Q423.3 288.0 437.4 293.5 L441.6 295.45 441.55 295.45 Q457.15 302.35 471.8 317.2 489.0 334.65 505.05 334.45 L505.1 334.45 Q516.7 333.7 528.4 323.75 L529.7 322.6 Q530.1 322.25 530.6 322.3 531.05 322.3 531.35 322.7 531.7 323.05 531.7 323.55 L531.3 324.35 Q518.25 336.1 505.2 336.8 L505.15 336.8 Q488.2 337.2 470.1 318.85 455.85 304.35 440.6 297.6 L440.5 297.6 439.2 296.95 Q437.75 296.2 436.5 295.75 419.0 288.85 400.95 291.05 L400.9 291.05 398.3 291.35 Q390.1 292.4 383.6 294.7 373.4 298.3 367.5 304.95 L366.7 305.35 Q366.2 305.35 365.85 305.0 365.45 304.7 365.45 304.2 L365.45 304.05 Q365.45 303.65 365.75 303.35 371.7 296.55 381.9 292.8" fill="#cf1616" fill-rule="evenodd" stroke="none"/>
    <path d="M439.2 296.95 L438.05 296.45 437.95 296.4 Q433.2 294.55 428.45 293.35 414.55 289.85 400.1 291.6 L400.3 291.55 396.6 291.95 398.3 291.35 400.9 291.05 400.95 291.05 Q419.0 288.85 436.5 295.75 437.75 296.2 439.2 296.95 M528.4 323.75 Q516.7 333.7 505.1 334.45 L505.05 334.45 Q489.0 334.65 471.8 317.2 457.15 302.35 441.55 295.45 L441.6 295.45 437.4 293.5 Q423.3 288.0 408.9 288.15 421.0 284.75 432.2 283.1 L439.65 282.2 453.85 281.55 Q498.05 281.3 521.55 313.0 L525.15 318.25 528.4 323.75" fill="#a51212" fill-rule="evenodd" stroke="none"/>
    <path d="M434.25 278.85 L442.65 277.95 453.85 277.6 Q507.8 277.35 532.25 322.55 532.6 323.25 532.4 324.05 L532.25 324.4 531.85 324.95 532.2 325.3 Q533.1 326.3 533.05 327.6 532.95 328.9 532.0 329.8 L531.1 330.6 531.05 330.65 Q523.1 337.6 515.3 340.7 510.05 342.75 504.9 343.05 L504.75 343.05 500.55 342.9 Q485.05 341.35 468.25 324.7 L468.2 324.7 466.15 322.7 Q458.85 315.65 451.2 310.55 445.85 307.0 440.35 304.4 L439.35 303.95 439.4 304.0 435.7 302.4 Q433.2 303.8 430.8 305.45 L430.35 305.2 430.3 305.2 429.0 304.55 426.15 303.15 426.2 303.15 423.25 301.9 Q413.9 298.15 404.8 297.5 L400.85 297.85 400.65 297.9 Q397.15 298.1 394.2 298.95 L393.9 299.05 Q389.95 299.75 386.55 300.8 376.25 303.85 370.25 309.85 375.2 323.4 388.4 328.6 L389.95 329.2 396.6 330.3 400.85 331.0 Q401.3 330.65 401.85 330.45 L408.85 328.15 Q405.7 333.15 403.45 338.6 L401.45 337.8 401.4 337.8 Q398.8 336.85 396.1 336.65 L396.05 336.65 Q391.95 336.3 388.35 335.4 L388.1 335.3 387.85 335.2 Q369.85 329.0 363.8 310.5 363.5 309.95 363.45 309.25 L363.55 308.3 363.5 308.1 Q363.3 306.8 364.1 305.75 L365.45 304.05 365.45 304.2 Q365.45 304.7 365.85 305.0 366.2 305.35 366.7 305.35 L367.5 304.95 Q373.4 298.3 383.6 294.7 390.1 292.4 398.3 291.35 L396.6 291.95 400.3 291.55 400.1 291.6 Q414.55 289.85 428.45 293.35 433.2 294.55 437.95 296.4 L438.05 296.45 439.2 296.95 440.5 297.6 440.6 297.6 Q455.85 304.35 470.1 318.85 488.2 337.2 505.15 336.8 L505.2 336.8 Q518.25 336.1 531.3 324.35 L531.7 323.55 Q531.7 323.05 531.35 322.7 531.05 322.3 530.6 322.3 530.1 322.25 529.7 322.6 L528.4 323.75 525.15 318.25 521.55 313.0 Q498.05 281.3 453.85 281.55 L439.65 282.2 432.2 283.1 Q421.0 284.75 408.9 288.15 L400.65 288.7 Q395.55 289.2 391.05 290.2 391.35 289.5 392.1 289.3 414.6 281.4 434.25 278.85" fill="#5a0a0a" fill-rule="evenodd" stroke="none"/>
    <path d="M442.65 277.95 Q476.35 246.1 512.85 264.8 L512.8 264.75 Q558.2 289.3 554.75 325.1 L554.75 325.15 Q552.1 349.9 547.2 361.35 546.6 341.2 532.25 324.4 L532.4 324.05 Q532.6 323.25 532.25 322.55 507.8 277.35 453.85 277.6 L442.65 277.95" fill="#1c50b0" fill-rule="evenodd" stroke="none"/>
    <path d="M408.85 328.15 L401.85 330.45 Q401.3 330.65 400.85 331.0 L396.6 330.3 389.95 329.2 388.4 328.6 Q375.2 323.4 370.25 309.85 376.25 303.85 386.55 300.8 389.95 299.75 393.9 299.05 L394.2 298.95 Q397.15 298.1 400.65 297.9 L400.85 297.85 404.8 297.5 Q413.9 298.15 423.25 301.9 L426.2 303.15 426.15 303.15 429.0 304.55 430.3 305.2 430.35 305.2 430.8 305.45 Q424.9 309.4 419.6 314.75 413.3 321.05 408.85 328.15" fill="#750000" fill-rule="evenodd" stroke="none"/>
    <path d="M531.1 330.6 Q542.35 345.5 542.4 363.2 L542.05 369.55 Q541.95 370.5 542.6 371.3 543.2 372.05 544.2 372.15 L544.65 372.2 544.45 374.55 Q544.1 378.3 543.35 381.9 L542.7 384.9 Q538.0 403.75 523.3 418.45 516.3 425.5 508.3 430.25 L504.65 432.25 Q498.2 435.55 491.2 437.45 L489.0 438.0 487.75 438.3 482.85 439.15 472.4 439.95 471.5 439.95 469.4 439.95 Q449.2 439.4 433.05 429.25 425.95 424.75 419.6 418.45 398.15 397.0 398.15 366.6 398.15 358.8 399.55 351.65 400.9 344.85 403.45 338.6 405.7 333.15 408.85 328.15 413.3 321.05 419.6 314.75 424.9 309.4 430.8 305.45 433.2 303.8 435.7 302.4 L439.4 304.0 439.35 303.95 440.35 304.4 Q437.45 305.85 434.7 307.6 428.2 311.7 422.4 317.5 418.25 321.6 415.0 326.1 412.0 330.15 409.7 334.55 L409.6 334.75 Q408.1 337.6 406.95 340.55 404.75 346.05 403.55 351.95 402.1 359.0 402.15 366.6 402.1 395.35 422.4 415.65 431.7 424.95 442.8 430.05 455.05 435.6 469.4 435.95 L471.5 436.0 472.4 436.0 Q479.5 435.9 486.1 434.6 L490.15 433.65 492.1 433.1 Q498.4 431.15 504.25 428.0 L507.95 425.8 Q514.6 421.6 520.55 415.65 534.05 402.15 538.6 384.9 L539.35 381.9 Q540.45 376.5 540.8 370.75 L540.9 366.6 540.8 363.1 Q540.6 359.0 540.0 355.15 537.95 341.9 531.05 330.65 L531.1 330.6" fill="#3a2510" fill-rule="evenodd" stroke="none"/>
    <path d="M451.2 310.55 Q458.85 315.65 466.15 322.7 L464.2 322.45 458.85 322.2 454.7 322.35 Q435.7 323.7 421.8 337.5 414.95 344.4 411.15 352.6 406.5 362.6 406.5 374.55 406.5 396.15 421.8 411.5 437.2 426.85 458.85 426.85 L469.4 425.85 472.4 425.2 Q476.3 424.15 479.95 422.55 L483.45 420.85 Q490.05 417.25 495.75 411.5 L498.05 409.1 500.8 405.75 Q508.0 396.35 510.2 384.9 L510.7 381.9 511.15 374.55 Q511.15 367.15 509.35 360.55 L508.85 358.7 Q507.7 355.0 505.95 351.55 503.7 347.0 500.55 342.9 L504.75 343.05 504.9 343.05 Q510.05 342.75 515.3 340.7 517.25 344.3 518.7 348.2 L520.1 352.6 521.35 358.2 521.85 361.55 Q522.25 365.15 522.25 369.0 522.25 375.7 520.95 381.9 L520.25 384.9 Q516.5 398.75 506.0 409.8 L504.8 411.0 503.2 412.6 Q495.0 420.25 485.3 424.25 L481.65 425.55 Q477.2 427.05 472.4 427.75 L469.4 428.15 462.8 428.45 Q438.1 428.45 420.7 411.0 403.3 393.65 403.35 369.0 403.3 360.05 405.6 352.15 407.0 347.05 409.4 342.4 410.8 339.5 412.6 336.8 414.0 334.6 415.65 332.55 417.95 329.65 420.7 326.9 L425.3 322.7 Q433.35 316.05 442.75 312.8 446.5 311.45 450.5 310.7 L451.2 310.55" fill="#f1ba87" fill-rule="evenodd" stroke="none"/>
    <path d="M466.15 322.7 L468.2 324.7 468.25 324.7 Q485.05 341.35 500.55 342.9 503.7 347.0 505.95 351.55 507.7 355.0 508.85 358.7 L509.35 360.55 Q511.15 367.15 511.15 374.55 L510.7 381.9 510.2 384.9 Q508.0 396.35 500.8 405.75 L498.05 409.1 495.75 411.5 Q490.05 417.25 483.45 420.85 L479.95 422.55 Q476.3 424.15 472.4 425.2 L469.4 425.85 458.85 426.85 Q437.2 426.85 421.8 411.5 406.5 396.15 406.5 374.55 406.5 362.6 411.15 352.6 414.95 344.4 421.8 337.5 435.7 323.7 454.7 322.35 L458.85 322.2 464.2 322.45 466.15 322.7 M465.35 402.95 Q452.6 404.2 442.9 408.0 L443.05 411.65 Q444.9 410.55 457.1 408.9 L479.05 406.4 Q478.05 401.65 465.35 402.95" fill="#ffcc99" fill-rule="evenodd" stroke="none"/>
    <path d="M465.35 402.95 Q478.05 401.65 479.05 406.4 L457.1 408.9 Q444.9 410.55 443.05 411.65 L442.9 408.0 Q452.6 404.2 465.35 402.95" fill="#463624" fill-rule="evenodd" stroke="none"/>
  </g>
  <defs>
    <linearGradient gradientTransform="matrix(0.1071, 0.0, 0.0, 0.1035, 300.95, 360.35)" gradientUnits="userSpaceOnUse" id="gradient0" spreadMethod="pad" x1="-819.2" x2="819.2">
      <stop offset="0.0" stop-color="#b8aea5" stop-opacity="0.5803922"/>
      <stop offset="1.0" stop-color="#dbd6ce" stop-opacity="0.0"/>
    </linearGradient>
  </defs>
</svg>
