<?xml version="1.0" encoding="UTF-8" standalone="no"?>
<svg xmlns:ffdec="https://www.free-decompiler.com/flash" xmlns:xlink="http://www.w3.org/1999/xlink" ffdec:objectType="shape" height="42.55px" width="51.7px" xmlns="http://www.w3.org/2000/svg">
  <g transform="matrix(1.0, 0.0, 0.0, 1.0, 29.1, 33.8)">
    <path d="M3.05 -3.95 Q4.6 -3.95 5.7 -2.25 6.85 -0.6 6.85 1.8 6.85 4.15 5.7 5.8 4.6 7.45 3.05 7.5 1.45 7.45 0.35 5.8 -0.75 4.15 -0.75 1.8 -0.8 0.45 -0.45 -0.65 L0.35 -2.25 1.15 -3.2 Q2.0 -3.95 3.05 -3.95 M-7.6 -2.4 Q-6.25 -2.4 -5.25 -0.95 -4.3 0.5 -4.25 2.55 -4.3 4.6 -5.25 6.05 -6.25 7.5 -7.6 7.5 -8.95 7.5 -9.95 6.05 -10.9 4.6 -10.9 2.55 L-10.6 0.5 -9.95 -0.95 -9.2 -1.75 Q-8.5 -2.4 -7.6 -2.4 Z" fill="none" stroke="#000000" stroke-linecap="round" stroke-linejoin="round" stroke-width="2.5"/>
    <path d="M6.25 -31.6 L6.3 -31.6 Q7.65 -31.2 8.8 -30.15 11.8 -27.45 13.4 -19.45 L14.9 -12.65 14.9 -12.6 Q15.55 -10.15 16.45 -9.7 17.8 -9.3 18.7 -10.05 19.75 -11.15 20.3 -13.75 21.1 -18.45 17.3 -24.3 13.7 -29.9 9.7 -31.15 7.85 -31.75 6.25 -31.6 M1.35 -31.6 Q3.3 -33.25 4.25 -33.45 L10.35 -33.2 Q15.0 -31.9 19.15 -25.5 23.45 -18.75 22.4 -13.35 21.7 -9.85 20.15 -8.45 18.45 -6.8 15.8 -7.65 13.9 -8.1 12.8 -12.05 L12.8 -12.0 11.25 -19.0 11.25 -19.05 Q9.85 -26.15 7.3 -28.55 L7.3 -28.6 Q6.6 -29.25 5.75 -29.5 L5.7 -29.5 Q3.6 -30.25 2.5 -29.8 L1.75 -29.75 Q1.35 -29.85 1.15 -30.2 0.9 -30.55 1.0 -30.95 L1.35 -31.6 M-12.7 -29.35 L-16.2 -28.9 Q-20.2 -27.65 -23.8 -22.05 -27.6 -16.2 -26.75 -11.5 -26.25 -8.9 -25.2 -7.8 -24.3 -7.05 -22.9 -7.45 L-22.95 -7.45 Q-22.05 -7.9 -21.35 -10.35 L-21.35 -10.4 -19.9 -17.2 Q-18.3 -25.2 -15.25 -27.9 -14.15 -28.95 -12.8 -29.35 L-12.7 -29.35 M-13.8 -26.35 L-13.8 -26.3 Q-16.35 -23.9 -17.75 -16.8 L-17.75 -16.75 -19.3 -9.75 -19.3 -9.8 Q-20.4 -5.85 -22.25 -5.4 L-22.3 -5.4 Q-24.95 -4.55 -26.65 -6.2 -28.2 -7.6 -28.9 -11.1 -29.95 -16.5 -25.6 -23.25 -21.5 -29.65 -16.85 -30.95 L-10.75 -31.2 Q-9.8 -31.0 -7.85 -29.35 L-7.45 -28.7 Q-7.4 -28.3 -7.6 -27.95 -7.85 -27.6 -8.2 -27.5 L-8.95 -27.55 Q-10.1 -28.0 -12.15 -27.25 L-12.2 -27.25 Q-13.1 -27.0 -13.8 -26.35" fill="#666666" fill-rule="evenodd" stroke="none"/>
    <path d="M6.25 -31.6 Q7.85 -31.75 9.7 -31.15 13.7 -29.9 17.3 -24.3 21.1 -18.45 20.3 -13.75 19.75 -11.15 18.7 -10.05 17.8 -9.3 16.45 -9.7 15.55 -10.15 14.9 -12.6 L14.9 -12.65 13.4 -19.45 Q11.8 -27.45 8.8 -30.15 7.65 -31.2 6.3 -31.6 L6.25 -31.6 M-12.7 -29.35 L-12.8 -29.35 Q-14.15 -28.95 -15.25 -27.9 -18.3 -25.2 -19.9 -17.2 L-21.35 -10.4 -21.35 -10.35 Q-22.05 -7.9 -22.95 -7.45 L-22.9 -7.45 Q-24.3 -7.05 -25.2 -7.8 -26.25 -8.9 -26.75 -11.5 -27.6 -16.2 -23.8 -22.05 -20.2 -27.65 -16.2 -28.9 L-12.7 -29.35" fill="#000000" fill-rule="evenodd" stroke="none"/>
  </g>
</svg>
