<?xml version="1.0" encoding="UTF-8" standalone="no"?>
<svg xmlns:ffdec="https://www.free-decompiler.com/flash" xmlns:xlink="http://www.w3.org/1999/xlink" ffdec:objectType="shape" height="210.5px" width="226.4px" xmlns="http://www.w3.org/2000/svg">
  <g transform="matrix(1.0, 0.0, 0.0, 1.0, 1.2, 1.25)">
    <path d="M192.75 188.35 L162.2 192.7 Q175.9 187.5 191.35 167.8 206.8 148.05 208.75 116.4 L206.8 98.85 Q206.25 93.6 203.9 88.75 208.75 89.75 214.0 87.7 217.0 86.5 219.25 84.65 220.65 90.4 221.55 96.5 L221.5 96.5 Q227.9 141.85 200.4 178.5 L193.1 187.35 Q192.75 187.75 192.75 188.3 L192.75 188.35 M86.15 203.45 L55.55 207.8 55.55 207.65 54.95 206.9 Q50.15 203.9 45.5 200.4 8.85 172.85 2.5 127.55 -2.1 95.2 10.5 67.35 L10.6 67.45 Q15.35 71.85 21.2 72.3 L26.0 71.95 Q22.45 79.3 20.35 87.0 L20.3 87.2 20.3 87.3 Q17.35 98.1 17.2 109.65 L19.75 133.35 Q17.1 117.35 18.25 125.3 23.75 164.15 55.1 187.7 69.8 198.75 86.15 203.45 M180.0 30.4 Q179.65 28.75 179.35 29.15 L176.65 26.5 Q170.85 21.75 163.75 22.0 157.15 22.25 152.95 26.4 122.4 10.35 98.2 14.95 73.95 19.5 78.2 23.35 73.15 22.15 67.75 23.9 65.85 24.5 64.25 25.35 L63.65 23.65 60.8 16.65 Q75.8 5.45 108.85 2.3 141.85 -0.9 160.9 13.4 179.85 27.6 179.95 28.7 L180.0 30.4" fill="#6c431e" fill-rule="evenodd" stroke="none"/>
    <path d="M180.05 51.75 L181.05 52.85 Q182.5 54.15 184.45 54.55 185.9 54.85 187.7 54.6 L190.15 54.05 Q195.9 52.35 200.85 46.95 L201.4 46.35 203.0 44.35 Q206.05 40.1 207.0 35.55 208.2 29.65 204.95 26.7 201.65 23.7 195.9 25.45 192.25 26.55 189.0 29.05 L187.05 30.7 185.15 32.6 182.95 35.35 181.9 32.9 183.8 30.65 185.3 29.1 187.1 27.4 Q191.95 23.25 197.45 21.65 203.95 19.8 207.7 23.0 211.2 26.4 210.0 33.1 209.1 37.65 206.5 41.95 L203.95 45.6 202.8 47.0 202.3 47.5 202.25 47.55 Q199.95 50.1 197.45 52.0 L194.7 53.85 Q191.95 55.45 189.0 56.35 L188.9 56.4 188.75 56.45 186.35 56.95 183.45 57.1 Q180.5 56.9 178.4 55.15 L177.55 54.15 180.05 51.75 M207.15 48.5 L209.4 45.45 210.4 45.4 Q216.75 45.1 219.3 48.75 221.55 52.55 218.75 58.25 L216.05 62.4 213.6 65.1 211.35 67.1 208.1 69.45 207.95 69.55 Q205.15 71.3 202.4 72.45 L199.4 73.55 196.9 74.15 193.7 74.5 193.6 74.5 Q187.2 74.8 184.65 71.2 182.4 67.4 185.3 61.65 L185.5 61.3 188.4 60.85 188.15 61.35 Q185.5 66.4 187.65 69.7 189.55 72.65 194.3 72.7 L195.5 72.7 197.85 72.4 200.7 71.7 Q203.8 70.65 206.95 68.6 L208.85 67.25 211.45 65.05 214.1 61.95 215.4 59.8 Q218.0 54.75 215.85 51.45 213.65 48.1 208.05 48.45 L207.15 48.5 M173.9 29.9 Q175.5 31.15 176.7 32.65 178.3 34.6 179.2 36.85 179.85 38.4 180.15 40.15 L180.15 40.2 Q180.7 43.25 180.0 45.85 L178.9 48.35 178.8 48.5 178.1 49.55 176.2 51.3 Q174.5 52.55 172.35 53.05 L169.35 53.45 Q163.15 53.65 158.0 49.45 152.85 45.25 151.7 39.15 150.75 33.7 153.8 29.8 L153.9 29.7 Q154.8 28.65 155.85 27.9 158.6 25.95 162.5 25.85 168.75 25.7 173.9 29.9 M177.2 46.6 Q177.9 45.45 178.25 44.15 178.8 41.95 178.3 39.4 177.35 34.6 173.3 31.3 169.2 27.95 164.3 28.0 161.1 28.05 158.85 29.55 157.7 30.25 156.85 31.3 L156.65 31.55 Q153.85 34.95 154.75 39.75 155.7 44.55 159.8 47.9 163.9 51.2 168.75 51.1 173.65 51.05 176.45 47.65 L177.2 46.6 M198.25 77.8 Q198.3 78.85 198.7 79.9 199.75 82.5 202.5 83.7 L203.9 84.2 Q207.8 85.25 212.05 83.6 215.7 82.1 217.8 79.3 L218.4 78.45 219.45 76.15 Q220.05 73.9 219.25 71.8 218.45 69.85 216.75 68.7 L215.95 68.2 217.8 66.35 Q220.6 67.7 221.75 70.4 223.05 74.0 220.8 78.0 L220.25 78.8 218.3 81.1 Q216.05 83.25 212.8 84.55 207.7 86.55 203.0 85.35 L202.5 85.2 Q201.15 84.8 200.1 84.2 197.6 82.85 196.55 80.4 196.15 79.3 196.1 78.15 L198.25 77.8 M87.85 35.25 Q89.25 40.0 86.45 44.75 83.15 50.05 76.8 52.1 70.45 54.1 64.75 51.7 63.35 51.1 62.2 50.35 60.35 49.05 59.2 47.3 58.45 46.15 58.0 44.85 L57.75 43.8 Q57.0 40.0 59.05 36.2 L59.5 35.4 59.55 35.35 Q60.45 33.85 61.65 32.6 63.3 30.85 65.45 29.6 67.1 28.65 69.05 28.05 72.35 26.95 75.45 27.1 78.4 27.2 81.2 28.4 86.25 30.55 87.85 35.25 M83.35 44.2 Q85.95 40.1 84.6 35.85 83.2 31.6 78.75 29.8 75.1 28.3 71.15 29.05 L69.15 29.55 Q65.05 30.85 62.65 33.8 L61.55 35.3 Q58.9 39.45 60.25 43.7 61.6 47.9 66.2 49.75 70.65 51.55 75.7 49.95 80.7 48.35 83.35 44.2 M58.7 29.85 L57.65 26.6 Q55.7 21.6 52.65 18.25 L50.8 16.45 50.2 16.0 Q45.4 12.3 41.3 13.9 37.2 15.45 36.15 21.4 35.6 24.5 36.1 27.85 L36.65 30.8 37.8 34.25 Q40.4 41.1 45.15 44.8 L45.2 44.8 47.25 46.2 Q50.9 48.2 54.1 47.0 L55.45 46.3 Q56.0 48.0 56.9 49.45 L55.75 50.05 Q53.2 50.95 50.35 50.1 48.15 49.4 45.85 47.7 L45.65 47.55 45.6 47.5 43.9 46.1 41.45 43.5 Q39.95 41.65 38.7 39.5 37.3 37.1 36.2 34.3 L35.85 33.4 35.4 32.0 34.65 29.25 34.25 27.4 Q33.4 22.5 34.25 18.05 35.5 11.35 40.05 9.45 44.7 7.8 50.15 11.9 51.9 13.2 53.4 14.85 L55.0 16.8 Q57.75 20.4 59.6 25.25 L60.55 27.9 58.7 29.85 M44.4 51.8 L46.95 53.25 46.95 53.5 Q47.55 59.85 44.1 62.6 40.4 65.05 34.55 62.45 L34.35 62.4 31.45 60.85 29.35 59.35 26.8 57.1 Q24.95 55.25 23.25 53.0 L22.85 52.45 20.75 49.25 19.35 46.55 Q18.55 44.85 18.05 43.15 17.25 40.65 17.0 38.15 16.4 31.8 19.9 29.1 23.55 26.65 29.4 29.2 29.85 29.35 30.3 29.6 L31.1 32.8 31.25 33.25 30.85 33.05 30.5 32.9 Q25.35 30.55 22.15 32.9 18.9 35.2 19.5 40.8 L20.0 43.45 Q20.45 45.35 21.35 47.25 L23.05 50.4 24.25 52.15 Q26.35 55.05 28.75 57.1 L31.2 58.9 33.45 60.1 34.45 60.55 35.3 60.85 Q39.2 62.05 41.85 60.15 45.05 57.8 44.45 52.15 L44.4 51.8 M28.95 63.85 L30.8 64.95 29.55 66.95 27.9 68.25 Q25.55 69.6 22.25 69.3 17.1 68.85 12.9 64.95 L12.05 64.1 10.3 62.0 Q8.35 59.2 7.8 55.9 7.05 51.4 9.6 48.5 11.7 46.35 14.95 46.1 L16.0 48.55 Q13.25 48.8 11.5 50.7 9.1 53.25 9.85 57.2 10.55 61.2 13.95 64.35 17.3 67.45 21.3 67.85 25.35 68.25 27.7 65.75 L28.95 63.85" fill="#db9c64" fill-rule="evenodd" stroke="none"/>
    <path d="M182.95 35.35 L185.15 32.6 187.05 30.7 189.0 29.05 Q192.25 26.55 195.9 25.45 201.65 23.7 204.95 26.7 208.2 29.65 207.0 35.55 206.05 40.1 203.0 44.35 L201.4 46.35 200.85 46.95 Q195.9 52.35 190.15 54.05 L187.7 54.6 Q185.9 54.85 184.45 54.55 182.5 54.15 181.05 52.85 L180.05 51.75 180.35 51.35 181.0 50.55 182.0 49.05 182.25 49.35 Q182.85 49.9 184.0 50.1 L189.05 49.9 Q194.25 49.0 198.05 44.25 L198.9 43.15 200.3 40.95 Q202.1 37.7 202.65 34.3 203.5 29.1 202.0 27.7 200.45 26.3 195.2 28.55 192.95 29.5 190.95 30.9 L188.95 32.45 Q187.45 33.7 186.15 35.25 184.7 36.9 183.7 38.5 L183.65 38.2 182.95 35.35 M188.4 60.85 L189.0 60.7 190.15 60.4 191.45 60.0 Q190.8 60.85 190.4 61.8 L190.1 62.4 Q188.7 65.4 189.6 66.85 190.4 68.1 193.7 68.6 L195.55 68.75 196.55 68.8 Q200.9 68.7 205.1 65.65 L209.15 61.85 210.25 60.5 211.75 57.95 211.85 57.75 Q213.95 53.3 212.95 51.75 212.0 50.35 207.6 50.95 L206.65 51.1 204.95 51.45 204.4 51.55 204.8 51.2 205.5 50.4 206.5 49.25 207.15 48.5 208.05 48.45 Q213.65 48.1 215.85 51.45 218.0 54.75 215.4 59.8 L214.1 61.95 211.45 65.05 208.85 67.25 206.95 68.6 Q203.8 70.65 200.7 71.7 L197.85 72.4 195.5 72.7 194.3 72.7 Q189.55 72.65 187.65 69.7 185.5 66.4 188.15 61.35 L188.4 60.85 M162.85 32.1 L159.2 32.7 Q157.9 33.15 157.25 33.95 155.95 35.55 157.35 39.75 158.7 43.95 162.1 46.5 165.5 49.05 168.9 48.95 172.3 48.85 173.65 47.25 174.4 46.25 174.65 44.25 L174.7 41.15 174.65 40.9 Q174.3 36.65 170.8 34.3 167.15 31.85 162.95 32.1 L162.85 32.1 M177.2 46.6 L176.45 47.65 Q173.65 51.05 168.75 51.1 163.9 51.2 159.8 47.9 155.7 44.55 154.75 39.75 153.85 34.95 156.65 31.55 L156.85 31.3 Q157.7 30.25 158.85 29.55 161.1 28.05 164.3 28.0 169.2 27.95 173.3 31.3 177.35 34.6 178.3 39.4 178.8 41.95 178.25 44.15 177.9 45.45 177.2 46.6 M198.25 77.8 L200.1 77.35 Q200.1 77.7 200.25 78.05 200.85 79.55 204.2 81.0 207.55 82.4 210.95 80.75 214.35 79.05 216.05 75.95 217.8 72.85 217.2 71.35 216.75 70.15 214.45 69.6 L215.95 68.2 216.75 68.7 Q218.45 69.85 219.25 71.8 220.05 73.9 219.45 76.15 L218.4 78.45 217.8 79.3 Q215.7 82.1 212.05 83.6 207.8 85.25 203.9 84.2 L202.5 83.7 Q199.75 82.5 198.7 79.9 198.3 78.85 198.25 77.8 M83.35 44.2 Q80.7 48.35 75.7 49.95 70.65 51.55 66.2 49.75 61.6 47.9 60.25 43.7 58.9 39.45 61.55 35.3 L62.65 33.8 Q65.05 30.85 69.15 29.55 L71.15 29.05 Q75.1 28.3 78.75 29.8 83.2 31.6 84.6 35.85 85.95 40.1 83.35 44.2 M56.85 32.5 L55.75 28.7 Q53.9 23.55 50.3 19.8 L49.7 19.15 48.45 18.0 Q45.3 15.3 43.7 15.9 41.75 16.65 40.7 21.85 40.45 22.95 40.35 24.15 40.2 25.75 40.35 27.45 40.5 30.05 41.4 32.8 43.2 38.6 47.75 41.3 L48.35 41.7 50.8 42.85 Q53.0 43.75 54.25 43.3 L54.6 43.15 55.25 45.75 55.45 46.3 54.1 47.0 Q50.9 48.2 47.25 46.2 L45.2 44.8 45.15 44.8 Q40.4 41.1 37.8 34.25 L36.65 30.8 36.1 27.85 Q35.6 24.5 36.15 21.4 37.2 15.45 41.3 13.9 45.4 12.3 50.2 16.0 L50.8 16.45 52.65 18.25 Q55.7 21.6 57.65 26.6 L58.7 29.85 57.0 32.25 56.85 32.5 M63.05 44.35 Q63.65 46.3 66.8 47.65 L74.05 47.85 Q78.15 46.7 80.95 43.3 83.8 39.85 83.15 37.85 82.5 35.85 78.6 34.1 74.65 32.3 70.4 33.3 66.1 34.25 64.25 38.3 62.4 42.35 63.05 44.35 M31.25 33.25 L32.0 35.45 32.15 35.85 32.65 37.0 31.35 36.15 30.9 35.85 29.1 34.9 Q25.95 33.35 24.75 34.2 23.2 35.3 23.6 40.2 L23.7 41.25 Q23.9 42.8 24.4 44.4 L24.65 45.2 Q25.5 47.6 27.05 50.0 29.75 54.3 33.75 56.0 L34.8 56.4 35.25 56.55 37.9 57.15 Q40.1 57.45 41.05 56.8 42.55 55.65 42.2 51.75 L41.9 49.95 42.9 50.75 43.0 50.8 44.4 51.8 44.45 52.15 Q45.05 57.8 41.85 60.15 39.2 62.05 35.3 60.85 L34.45 60.55 33.45 60.1 31.2 58.9 28.75 57.1 Q26.35 55.05 24.25 52.15 L23.05 50.4 21.35 47.25 Q20.45 45.35 20.0 43.45 L19.5 40.8 Q18.9 35.2 22.15 32.9 25.35 30.55 30.5 32.9 L30.85 33.05 31.25 33.25 M16.0 48.55 L16.95 50.4 Q14.4 50.05 13.55 51.0 12.45 52.2 12.95 55.75 13.4 59.25 15.95 62.05 18.5 64.85 22.2 64.75 25.85 64.65 26.95 63.45 L27.4 62.75 28.95 63.85 27.7 65.75 Q25.35 68.25 21.3 67.85 17.3 67.45 13.95 64.35 10.55 61.2 9.85 57.2 9.1 53.25 11.5 50.7 13.25 48.8 16.0 48.55" fill="#f1ba87" fill-rule="evenodd" stroke="none"/>
    <path d="M183.7 38.5 Q184.7 36.9 186.15 35.25 187.45 33.7 188.95 32.45 L190.95 30.9 Q192.95 29.5 195.2 28.55 200.45 26.3 202.0 27.7 203.5 29.1 202.65 34.3 202.1 37.7 200.3 40.95 L198.9 43.15 198.05 44.25 Q194.25 49.0 189.05 49.9 L184.0 50.1 Q182.85 49.9 182.25 49.35 L182.0 49.05 182.4 48.35 Q184.55 43.95 183.7 38.5 M191.45 60.0 L191.55 60.0 Q198.45 57.65 204.4 51.55 L204.95 51.45 206.65 51.1 207.6 50.95 Q212.0 50.35 212.95 51.75 213.95 53.3 211.85 57.75 L211.75 57.95 210.25 60.5 209.15 61.85 205.1 65.65 Q200.9 68.7 196.55 68.8 L195.55 68.75 193.7 68.6 Q190.4 68.1 189.6 66.85 188.7 65.4 190.1 62.4 L190.4 61.8 Q190.8 60.85 191.45 60.0 M162.85 32.1 L162.95 32.1 Q167.15 31.85 170.8 34.3 174.3 36.65 174.65 40.9 L174.7 41.15 174.65 44.25 Q174.4 46.25 173.65 47.25 172.3 48.85 168.9 48.95 165.5 49.05 162.1 46.5 158.7 43.95 157.35 39.75 155.95 35.55 157.25 33.95 157.9 33.15 159.2 32.7 L162.85 32.1 M214.45 69.6 Q216.75 70.15 217.2 71.35 217.8 72.85 216.05 75.95 214.35 79.05 210.95 80.75 207.55 82.4 204.2 81.0 200.85 79.55 200.25 78.05 200.1 77.7 200.1 77.35 205.1 75.95 210.2 72.7 L214.45 69.6 M54.6 43.15 L54.25 43.3 Q53.0 43.75 50.8 42.85 L48.35 41.7 47.75 41.3 Q43.2 38.6 41.4 32.8 40.5 30.05 40.35 27.45 40.2 25.75 40.35 24.15 40.45 22.95 40.7 21.85 41.75 16.65 43.7 15.9 45.3 15.3 48.45 18.0 L49.7 19.15 50.3 19.8 Q53.9 23.55 55.75 28.7 L56.85 32.5 Q55.85 34.2 55.25 35.9 54.6 37.8 54.45 39.7 54.3 41.4 54.6 43.15 M63.05 44.35 Q62.4 42.35 64.25 38.3 66.1 34.25 70.4 33.3 74.65 32.3 78.6 34.1 82.5 35.85 83.15 37.85 83.8 39.85 80.95 43.3 78.15 46.7 74.05 47.85 L66.8 47.65 Q63.65 46.3 63.05 44.35 M32.65 37.0 Q35.8 44.55 41.05 49.25 L41.9 49.95 42.2 51.75 Q42.55 55.65 41.05 56.8 40.1 57.45 37.9 57.15 L35.25 56.55 34.8 56.4 33.75 56.0 Q29.75 54.3 27.05 50.0 25.5 47.6 24.65 45.2 L24.4 44.4 Q23.9 42.8 23.7 41.25 L23.6 40.2 Q23.2 35.3 24.75 34.2 25.95 33.35 29.1 34.9 L30.9 35.85 31.35 36.15 32.65 37.0 M16.95 50.4 L19.7 54.75 Q23.25 59.65 27.4 62.75 L26.95 63.45 Q25.85 64.65 22.2 64.75 18.5 64.85 15.95 62.05 13.4 59.25 12.95 55.75 12.45 52.2 13.55 51.0 14.4 50.05 16.95 50.4" fill="#ffcc99" fill-rule="evenodd" stroke="none"/>
    <path d="M221.3 82.6 Q223.0 89.15 224.0 96.15 230.5 142.55 202.4 180.0 L194.95 189.05 Q194.6 189.45 194.1 189.45 L193.2 189.15 Q192.8 188.8 192.75 188.35 L192.75 188.3 Q192.75 187.75 193.1 187.35 L200.4 178.5 Q227.9 141.85 221.5 96.5 L221.55 96.5 Q220.65 90.4 219.25 84.65 L221.3 82.6" fill="#472d14" fill-rule="evenodd" stroke="none"/>
    <path d="M182.95 35.35 L183.65 38.2 183.7 38.5 Q184.55 43.95 182.4 48.35 L182.0 49.05 181.0 50.55 180.35 51.35 180.05 51.75 177.55 54.15 178.4 55.15 Q180.5 56.9 183.45 57.1 L186.35 56.95 188.75 56.45 188.9 56.4 189.0 56.35 Q191.95 55.45 194.7 53.85 L197.45 52.0 Q199.95 50.1 202.25 47.55 L202.3 47.5 202.8 47.0 203.95 45.6 206.5 41.95 Q209.1 37.65 210.0 33.1 211.2 26.4 207.7 23.0 203.95 19.8 197.45 21.65 191.95 23.25 187.1 27.4 L185.3 29.1 183.8 30.65 181.9 32.9 182.95 35.35 M188.4 60.85 L185.5 61.3 185.3 61.65 Q182.4 67.4 184.65 71.2 187.2 74.8 193.6 74.5 L193.7 74.5 196.9 74.15 199.4 73.55 202.4 72.45 Q205.15 71.3 207.95 69.55 L208.1 69.45 211.35 67.1 213.6 65.1 216.05 62.4 218.75 58.25 Q221.55 52.55 219.3 48.75 216.75 45.1 210.4 45.4 L209.4 45.45 207.15 48.5 206.5 49.25 205.5 50.4 204.8 51.2 204.4 51.55 Q198.45 57.65 191.55 60.0 L191.45 60.0 190.15 60.4 189.0 60.7 188.4 60.85 M183.75 24.6 Q189.45 19.5 196.05 17.65 205.2 15.05 210.4 20.05 215.8 24.75 214.1 34.15 213.4 37.9 211.65 41.55 219.4 41.65 222.5 46.7 226.1 52.0 222.15 60.0 221.1 62.1 219.65 64.05 222.8 66.0 224.1 69.5 226.25 74.7 223.0 80.2 L221.3 82.6 219.25 84.65 Q217.0 86.5 214.0 87.7 208.75 89.75 203.9 88.75 L202.4 88.4 Q200.2 87.75 198.55 86.65 195.5 84.7 194.25 81.3 193.6 79.85 193.45 78.35 184.75 78.65 181.45 73.25 178.05 68.3 181.3 61.05 178.1 60.35 175.7 58.1 L173.95 56.2 Q171.3 57.15 168.15 57.25 161.1 57.55 155.25 52.85 149.45 48.1 148.25 41.1 146.95 33.75 151.25 28.35 L151.55 27.95 152.95 26.4 Q157.15 22.25 163.75 22.0 170.85 21.75 176.65 26.5 L179.35 29.15 Q179.65 28.75 180.0 30.4 L180.25 28.9 183.75 24.6 M8.65 65.4 Q5.6 61.7 4.9 57.2 3.85 50.85 7.75 46.8 10.3 43.95 14.05 43.3 13.35 40.9 13.15 38.55 12.3 29.65 17.65 26.0 22.35 22.45 29.65 25.15 29.35 21.2 30.05 17.5 31.85 8.1 38.6 5.7 45.25 2.9 52.9 8.65 55.2 10.4 57.2 12.65 L60.8 16.65 63.65 23.65 64.25 25.35 Q65.85 24.5 67.75 23.9 73.15 22.15 78.2 23.35 79.8 23.7 81.4 24.4 L82.0 24.65 Q88.6 27.7 90.65 34.35 92.95 41.2 88.95 47.85 85.3 53.9 78.15 56.25 71.0 58.5 64.55 55.7 61.65 54.5 59.6 52.65 58.5 53.35 57.2 53.85 54.15 55.1 50.9 54.55 51.2 62.35 46.35 65.7 41.25 69.55 33.25 66.1 L31.4 68.65 29.65 70.25 Q28.0 71.45 26.0 71.95 L21.2 72.3 Q15.35 71.85 10.6 67.45 L10.5 67.35 8.65 65.4 M180.25 28.75 Q180.4 27.9 180.6 27.7 181.15 27.05 180.25 28.75 M173.9 29.9 Q168.75 25.7 162.5 25.85 158.6 25.95 155.85 27.9 154.8 28.65 153.9 29.7 L153.8 29.8 Q150.75 33.7 151.7 39.15 152.85 45.25 158.0 49.45 163.15 53.65 169.35 53.45 L172.35 53.05 Q174.5 52.55 176.2 51.3 L178.1 49.55 178.8 48.5 178.9 48.35 180.0 45.85 Q180.7 43.25 180.15 40.2 L180.15 40.15 Q179.85 38.4 179.2 36.85 178.3 34.6 176.7 32.65 175.5 31.15 173.9 29.9 M200.1 77.35 L198.25 77.8 196.1 78.15 Q196.15 79.3 196.55 80.4 197.6 82.85 200.1 84.2 201.15 84.8 202.5 85.2 L203.0 85.35 Q207.7 86.55 212.8 84.55 216.05 83.25 218.3 81.1 L220.25 78.8 220.8 78.0 Q223.05 74.0 221.75 70.4 220.6 67.7 217.8 66.35 L215.95 68.2 214.45 69.6 210.2 72.7 Q205.1 75.95 200.1 77.35 M87.85 35.25 Q86.25 30.55 81.2 28.4 78.4 27.2 75.45 27.1 72.35 26.95 69.05 28.05 67.1 28.65 65.45 29.6 63.3 30.85 61.65 32.6 60.45 33.85 59.55 35.35 L59.5 35.4 59.05 36.2 Q57.0 40.0 57.75 43.8 L58.0 44.85 Q58.45 46.15 59.2 47.3 60.35 49.05 62.2 50.35 63.35 51.1 64.75 51.7 70.45 54.1 76.8 52.1 83.15 50.05 86.45 44.75 89.25 40.0 87.85 35.25 M56.85 32.5 L57.0 32.25 58.7 29.85 60.55 27.9 59.6 25.25 Q57.75 20.4 55.0 16.8 L53.4 14.85 Q51.9 13.2 50.15 11.9 44.7 7.8 40.05 9.45 35.5 11.35 34.25 18.05 33.4 22.5 34.25 27.4 L34.65 29.25 35.4 32.0 35.85 33.4 36.2 34.3 Q37.3 37.1 38.7 39.5 39.95 41.65 41.45 43.5 L43.9 46.1 45.6 47.5 45.65 47.55 45.85 47.7 Q48.15 49.4 50.35 50.1 53.2 50.95 55.75 50.05 L56.9 49.45 Q56.0 48.0 55.45 46.3 L55.25 45.75 54.6 43.15 Q54.3 41.4 54.45 39.7 54.6 37.8 55.25 35.9 55.85 34.2 56.85 32.5 M31.25 33.25 L31.1 32.8 30.3 29.6 Q29.85 29.35 29.4 29.2 23.55 26.65 19.9 29.1 16.4 31.8 17.0 38.15 17.25 40.65 18.05 43.15 18.55 44.85 19.35 46.55 L20.75 49.25 22.85 52.45 23.25 53.0 Q24.95 55.25 26.8 57.1 L29.35 59.35 31.45 60.85 34.35 62.4 34.55 62.45 Q40.4 65.05 44.1 62.6 47.55 59.85 46.95 53.5 L46.95 53.25 44.4 51.8 43.0 50.8 42.9 50.75 41.9 49.95 41.05 49.25 Q35.8 44.55 32.65 37.0 L32.15 35.85 32.0 35.45 31.25 33.25 M16.0 48.55 L14.95 46.1 Q11.7 46.35 9.6 48.5 7.05 51.4 7.8 55.9 8.35 59.2 10.3 62.0 L12.05 64.1 12.9 64.95 Q17.1 68.85 22.25 69.3 25.55 69.6 27.9 68.25 L29.55 66.95 30.8 64.95 28.95 63.85 27.4 62.75 Q23.25 59.65 19.7 54.75 L16.95 50.4 16.0 48.55" fill="#3a2510" fill-rule="evenodd" stroke="none"/>
    <path d="M163.55 115.4 L163.5 115.4 Q166.7 137.9 153.8 155.95 140.95 174.0 119.65 177.0 98.25 180.05 80.95 166.3 63.5 152.55 60.35 130.05 59.25 122.7 59.95 115.9 L59.95 115.8 Q60.95 105.6 65.65 96.5 L65.7 96.4 65.75 96.35 65.8 96.2 Q67.65 92.7 76.15 82.9 84.6 73.1 105.25 72.25 125.85 71.4 139.1 79.05 152.3 86.7 154.95 91.65 L157.65 96.65 Q161.05 103.2 162.7 110.9 L162.75 110.95 162.75 111.0 163.55 115.4 M75.6 105.0 Q67.9 118.95 67.9 133.45 67.9 147.95 79.3 158.2 90.75 168.45 106.9 168.45 123.05 168.45 134.45 158.2 145.9 147.95 150.95 133.2 155.95 118.45 142.2 101.45 128.45 84.4 105.9 87.7 83.3 91.0 75.6 105.0" fill="#563618" fill-rule="evenodd" stroke="none"/>
    <path d="M204.2 108.2 L164.95 109.45 Q163.4 102.7 160.55 96.8 L201.3 88.65 Q202.55 93.7 203.3 99.1 203.95 103.65 204.2 108.2 M62.75 96.75 Q58.7 105.1 57.6 114.35 L19.75 108.65 Q19.95 98.5 22.4 88.95 L62.75 96.75 M75.6 105.0 Q83.3 91.0 105.9 87.7 128.45 84.4 142.2 101.45 155.95 118.45 150.95 133.2 145.9 147.95 134.45 158.2 123.05 168.45 106.9 168.45 90.75 168.45 79.3 158.2 67.9 147.95 67.9 133.45 67.9 118.95 75.6 105.0" fill="#432912" fill-rule="evenodd" stroke="none"/>
    <path d="M162.2 192.7 L159.65 194.25 158.7 194.35 157.95 193.8 Q157.65 193.35 157.8 192.85 157.95 192.35 158.4 192.1 174.0 183.0 185.75 167.4 205.1 141.7 204.3 110.7 L165.45 111.9 166.0 115.0 166.0 115.05 Q169.3 138.6 155.85 157.4 142.35 176.35 120.0 179.5 97.55 182.65 79.4 168.25 61.2 153.85 57.85 130.4 L57.9 130.4 Q56.85 123.35 57.35 116.8 L19.7 111.15 Q19.7 117.9 20.75 124.95 26.05 162.75 56.6 185.7 72.2 197.45 89.7 201.8 90.2 201.9 90.5 202.35 90.75 202.8 90.65 203.3 L90.05 204.1 89.1 204.25 86.15 203.45 Q69.8 198.75 55.1 187.7 23.75 164.15 18.25 125.3 17.1 117.35 19.75 133.35 L17.2 109.65 Q17.35 98.1 20.3 87.3 L20.3 87.2 20.35 87.0 Q22.45 79.3 26.0 71.95 28.0 71.45 29.65 70.25 25.5 78.15 23.1 86.55 L63.95 94.4 Q65.7 91.1 68.0 87.95 81.5 69.05 103.9 65.9 126.25 62.75 144.5 77.1 153.9 84.55 159.3 94.5 L198.55 86.65 Q200.2 87.75 202.4 88.4 L203.9 88.75 Q206.25 93.6 206.8 98.85 L208.75 116.4 Q206.8 148.05 191.35 167.8 175.9 187.5 162.2 192.7 M55.55 207.8 L55.4 208.6 54.6 209.2 53.65 209.05 Q48.75 206.0 44.0 202.4 6.55 174.25 0.0 127.9 L0.05 127.9 Q-4.75 94.25 8.65 65.4 L10.5 67.35 Q-2.1 95.2 2.5 127.55 8.85 172.85 45.5 200.4 50.15 203.9 54.95 206.9 L55.55 207.65 55.55 207.8 M57.2 12.65 Q74.7 3.05 96.15 0.0 142.55 -6.55 179.95 21.6 L183.75 24.6 180.25 28.9 180.0 30.4 179.95 28.7 Q179.85 27.6 160.9 13.4 141.85 -0.9 108.85 2.3 75.8 5.45 60.8 16.65 L57.2 12.65 M152.95 26.4 L151.55 27.95 151.25 28.35 Q127.15 16.7 99.1 20.7 90.15 21.95 82.0 24.65 L81.4 24.4 Q79.8 23.7 78.2 23.35 73.95 19.5 98.2 14.95 122.4 10.35 152.95 26.4 M180.25 28.75 Q181.15 27.05 180.6 27.7 180.4 27.9 180.25 28.75 M204.2 108.2 Q203.95 103.65 203.3 99.1 202.55 93.7 201.3 88.65 L160.55 96.8 Q163.4 102.7 164.95 109.45 L204.2 108.2 M163.55 115.4 L162.75 111.0 162.75 110.95 162.7 110.9 Q161.05 103.2 157.65 96.65 L154.95 91.65 Q152.3 86.7 139.1 79.05 125.85 71.4 105.25 72.25 84.6 73.1 76.15 82.9 67.65 92.7 65.8 96.2 L65.75 96.35 65.7 96.4 65.65 96.5 Q60.95 105.6 59.95 115.8 L59.95 115.9 Q59.25 122.7 60.35 130.05 63.5 152.55 80.95 166.3 98.25 180.05 119.65 177.0 140.95 174.0 153.8 155.95 166.7 137.9 163.5 115.4 L163.55 115.4 M62.75 96.75 L22.4 88.95 Q19.95 98.5 19.75 108.65 L57.6 114.35 Q58.7 105.1 62.75 96.75" fill="#37220f" fill-rule="evenodd" stroke="none"/>
  </g>
</svg>
