<?xml version="1.0" encoding="UTF-8" standalone="no"?>
<svg xmlns:ffdec="https://www.free-decompiler.com/flash" xmlns:xlink="http://www.w3.org/1999/xlink" ffdec:objectType="shape" height="31.3px" width="16.55px" xmlns="http://www.w3.org/2000/svg">
  <g transform="matrix(1.0, 0.0, 0.0, 1.0, 1.25, -3.95)">
    <path d="M12.6 3.95 L15.3 3.95 9.05 19.1 8.95 19.3 Q10.95 19.8 12.55 21.4 14.95 23.8 14.95 27.1 14.95 30.4 12.55 32.8 10.15 35.2 6.9 35.25 L6.85 35.25 Q3.55 35.2 1.15 32.8 -1.25 30.4 -1.25 27.1 -1.25 23.8 1.1 21.4 L1.15 21.35 Q2.6 19.9 4.45 19.35 L0.25 3.95 2.85 3.95 6.3 16.6 6.3 3.95 8.8 3.95 8.8 13.15 12.6 3.95 M7.4 21.55 L6.85 21.5 Q4.55 21.5 2.9 23.15 1.25 24.8 1.25 27.1 1.25 29.4 2.9 31.05 4.55 32.7 6.9 32.75 9.15 32.7 10.75 31.05 L10.8 31.0 Q12.45 29.35 12.45 27.1 12.45 24.8 10.8 23.15 9.35 21.7 7.45 21.55 L7.4 21.55" fill="#2e2e2e" fill-rule="evenodd" stroke="none"/>
    <path d="M7.4 21.55 L7.45 21.55 Q9.35 21.7 10.8 23.15 12.45 24.8 12.45 27.1 12.45 29.35 10.8 31.0 L10.75 31.05 Q9.15 32.7 6.9 32.75 4.55 32.7 2.9 31.05 1.25 29.4 1.25 27.1 1.25 24.8 2.9 23.15 4.55 21.5 6.85 21.5 L7.4 21.55" fill="#433834" fill-rule="evenodd" stroke="none"/>
  </g>
</svg>
