<?xml version="1.0" encoding="UTF-8" standalone="no"?>
<svg xmlns:ffdec="https://www.free-decompiler.com/flash" xmlns:xlink="http://www.w3.org/1999/xlink" ffdec:objectType="shape" height="31.95px" width="16.7px" xmlns="http://www.w3.org/2000/svg">
  <g transform="matrix(1.0, 0.0, 0.0, 1.0, -0.1, -3.25)">
    <path d="M12.4 3.5 L15.05 3.25 10.2 18.85 10.1 19.05 Q12.1 19.4 13.85 20.85 16.45 23.05 16.75 26.35 17.05 29.6 14.85 32.2 12.7 34.8 9.45 35.15 L9.4 35.15 Q6.1 35.4 3.5 33.2 0.9 31.05 0.65 27.75 0.3 24.45 2.45 21.85 L2.5 21.8 Q3.85 20.25 5.65 19.55 L0.1 4.55 2.7 4.35 7.25 16.65 6.15 4.05 8.6 3.85 9.4 13.0 12.4 3.5 M8.75 21.45 L8.2 21.45 Q5.95 21.65 4.4 23.45 2.9 25.25 3.1 27.55 3.3 29.8 5.1 31.3 6.9 32.8 9.2 32.65 11.45 32.4 12.9 30.6 L12.95 30.6 Q14.45 28.8 14.25 26.55 14.05 24.25 12.25 22.75 10.7 21.45 8.8 21.45 L8.75 21.45" fill="#2e2e2e" fill-rule="evenodd" stroke="none"/>
    <path d="M8.75 21.45 L8.8 21.45 Q10.7 21.45 12.25 22.75 14.05 24.25 14.25 26.55 14.45 28.8 12.95 30.6 L12.9 30.6 Q11.45 32.4 9.2 32.65 6.9 32.8 5.1 31.3 3.3 29.8 3.1 27.55 2.9 25.25 4.4 23.45 5.95 21.65 8.2 21.45 L8.75 21.45" fill="#433834" fill-rule="evenodd" stroke="none"/>
  </g>
</svg>
