<?xml version="1.0" encoding="UTF-8" standalone="no"?>
<svg xmlns:ffdec="https://www.free-decompiler.com/flash" xmlns:xlink="http://www.w3.org/1999/xlink" ffdec:objectType="shape" height="32.2px" width="17.65px" xmlns="http://www.w3.org/2000/svg">
  <g transform="matrix(1.0, 0.0, 0.0, 1.0, -0.1, -2.9)">
    <path d="M12.3 3.25 L14.95 2.9 10.8 18.7 10.7 18.95 Q12.75 19.15 14.55 20.55 17.25 22.6 17.7 25.9 18.1 29.15 16.05 31.85 14.0 34.55 10.75 35.05 L10.7 35.05 Q7.45 35.4 4.75 33.35 2.05 31.3 1.65 28.05 1.2 24.75 3.2 22.05 L3.25 22.0 Q4.5 20.35 6.25 19.6 L0.1 4.9 2.65 4.55 7.75 16.65 6.05 4.1 8.55 3.75 9.75 12.9 12.3 3.25 M9.45 21.4 L8.95 21.4 Q6.65 21.7 5.25 23.55 L5.2 23.55 Q3.8 25.45 4.1 27.7 4.4 29.95 6.25 31.4 8.15 32.8 10.45 32.55 12.65 32.2 14.05 30.35 L14.05 30.3 Q15.5 28.45 15.2 26.25 14.9 23.95 13.05 22.5 11.45 21.3 9.55 21.4 L9.45 21.4" fill="#2e2e2e" fill-rule="evenodd" stroke="none"/>
    <path d="M9.45 21.4 L9.55 21.4 Q11.45 21.3 13.05 22.5 14.9 23.95 15.2 26.25 15.5 28.45 14.05 30.3 L14.05 30.35 Q12.65 32.2 10.45 32.55 8.15 32.8 6.25 31.4 4.4 29.95 4.1 27.7 3.8 25.45 5.2 23.55 L5.25 23.55 Q6.65 21.7 8.95 21.4 L9.45 21.4" fill="#433834" fill-rule="evenodd" stroke="none"/>
  </g>
</svg>
