<?xml version="1.0" encoding="UTF-8" standalone="no"?>
<svg xmlns:ffdec="https://www.free-decompiler.com/flash" xmlns:xlink="http://www.w3.org/1999/xlink" ffdec:objectType="shape" height="31.5px" width="17.25px" xmlns="http://www.w3.org/2000/svg">
  <g transform="matrix(1.0, 0.0, 0.0, 1.0, 1.95, -3.85)">
    <path d="M12.65 4.25 L15.3 4.35 8.6 19.25 8.5 19.45 Q10.5 20.0 12.0 21.65 14.35 24.15 14.25 27.45 14.15 30.75 11.7 33.05 L11.65 33.1 Q9.2 35.4 5.95 35.35 L5.9 35.35 Q2.6 35.15 0.25 32.7 -2.05 30.25 -1.95 26.95 -1.85 23.65 0.6 21.3 L0.65 21.3 Q2.15 19.85 4.0 19.4 L0.3 3.85 2.9 3.95 5.95 16.7 6.35 4.05 8.85 4.15 8.55 13.35 12.65 4.25 M6.85 21.7 L6.35 21.6 Q4.05 21.55 2.35 23.1 L2.3 23.15 Q0.65 24.75 0.55 27.05 0.5 29.3 2.1 31.0 3.7 32.75 6.0 32.85 8.25 32.85 9.95 31.25 L9.95 31.2 Q11.65 29.65 11.75 27.4 11.8 25.1 10.2 23.35 8.8 21.9 6.95 21.7 L6.85 21.7" fill="#2e2e2e" fill-rule="evenodd" stroke="none"/>
    <path d="M6.85 21.7 L6.95 21.7 Q8.8 21.9 10.2 23.35 11.8 25.1 11.75 27.4 11.65 29.65 9.95 31.2 L9.95 31.25 Q8.25 32.85 6.0 32.85 3.7 32.75 2.1 31.0 0.5 29.3 0.55 27.05 0.65 24.75 2.3 23.15 L2.35 23.1 Q4.05 21.55 6.35 21.6 L6.85 21.7" fill="#433834" fill-rule="evenodd" stroke="none"/>
  </g>
</svg>
