<?xml version="1.0" encoding="UTF-8" standalone="no"?>
<svg xmlns:ffdec="https://www.free-decompiler.com/flash" xmlns:xlink="http://www.w3.org/1999/xlink" ffdec:objectType="shape" height="31.65px" width="17.9px" xmlns="http://www.w3.org/2000/svg">
  <g transform="matrix(1.0, 0.0, 0.0, 1.0, 2.5, -3.55)">
    <path d="M12.75 4.35 L15.4 4.5 8.25 19.2 8.15 19.4 Q10.1 20.0 11.6 21.7 13.85 24.25 13.65 27.55 13.45 30.85 10.9 33.1 8.35 35.35 5.1 35.2 L5.05 35.2 Q1.75 34.9 -0.5 32.4 -2.7 29.85 -2.5 26.55 -2.35 23.25 0.2 21.0 1.8 19.6 3.65 19.2 L0.4 3.55 3.0 3.75 5.65 16.55 6.45 3.95 8.95 4.1 8.4 13.25 12.75 4.35 M9.75 23.35 Q8.4 21.85 6.5 21.55 L6.45 21.55 5.9 21.5 Q3.65 21.35 1.9 22.85 L1.85 22.9 Q0.15 24.45 0.0 26.7 -0.15 29.0 1.35 30.75 2.95 32.5 5.25 32.7 7.5 32.8 9.2 31.25 L9.25 31.2 Q11.0 29.7 11.15 27.4 11.3 25.1 9.75 23.35" fill="#2e2e2e" fill-rule="evenodd" stroke="none"/>
    <path d="M9.75 23.35 Q11.3 25.1 11.15 27.4 11.0 29.7 9.25 31.2 L9.2 31.25 Q7.5 32.8 5.25 32.7 2.95 32.5 1.35 30.75 -0.15 29.0 0.0 26.7 0.15 24.45 1.85 22.9 L1.9 22.85 Q3.65 21.35 5.9 21.5 L6.45 21.55 6.5 21.55 Q8.4 21.85 9.75 23.35" fill="#433834" fill-rule="evenodd" stroke="none"/>
  </g>
</svg>
