<?xml version="1.0" encoding="UTF-8" standalone="no"?>
<svg xmlns:ffdec="https://www.free-decompiler.com/flash" xmlns:xlink="http://www.w3.org/1999/xlink" ffdec:objectType="shape" height="31.85px" width="18.75px" xmlns="http://www.w3.org/2000/svg">
  <g transform="matrix(1.0, 0.0, 0.0, 1.0, 3.3, -3.3)">
    <path d="M12.75 4.5 L15.45 4.75 7.8 19.2 7.65 19.4 Q9.6 20.1 11.0 21.85 13.2 24.45 12.85 27.75 12.55 31.05 9.95 33.2 L9.9 33.2 Q7.35 35.35 4.05 35.1 L4.0 35.1 Q0.7 34.7 -1.45 32.1 -3.55 29.5 -3.25 26.2 -2.95 22.9 -0.35 20.75 L-0.35 20.7 Q1.3 19.4 3.15 19.05 L0.5 3.3 3.05 3.55 5.3 16.5 6.5 3.9 9.0 4.15 8.1 13.3 12.75 4.5 M9.1 23.4 Q7.8 21.85 5.95 21.5 L5.85 21.5 5.35 21.4 Q3.1 21.2 1.25 22.65 -0.55 24.15 -0.75 26.45 -1.0 28.7 0.5 30.5 2.0 32.35 4.3 32.6 6.55 32.75 8.3 31.25 L8.35 31.25 Q10.15 29.8 10.4 27.55 10.6 25.25 9.1 23.4" fill="#2e2e2e" fill-rule="evenodd" stroke="none"/>
    <path d="M9.1 23.4 Q10.6 25.25 10.4 27.55 10.15 29.8 8.35 31.25 L8.3 31.25 Q6.55 32.75 4.3 32.6 2.0 32.35 0.5 30.5 -1.0 28.7 -0.75 26.45 -0.55 24.15 1.25 22.65 3.1 21.2 5.35 21.4 L5.85 21.5 5.95 21.5 Q7.8 21.85 9.1 23.4" fill="#433834" fill-rule="evenodd" stroke="none"/>
  </g>
</svg>
