<?xml version="1.0" encoding="UTF-8" standalone="no"?>
<svg xmlns:ffdec="https://www.free-decompiler.com/flash" xmlns:xlink="http://www.w3.org/1999/xlink" ffdec:objectType="shape" height="723.9px" width="692.7px" xmlns="http://www.w3.org/2000/svg">
  <g transform="matrix(1.0, 0.0, 0.0, 1.0, 0.0, 0.0)">
    <path d="M635.5 103.75 L635.35 99.75 Q666.55 98.7 692.7 99.15 L692.7 103.05 Q666.65 102.65 635.5 103.75 M692.7 186.8 L692.7 191.25 Q606.35 232.95 583.7 298.25 L583.7 299.55 583.7 299.9 583.45 302.6 583.4 302.75 583.4 302.8 583.35 303.1 583.25 303.3 583.25 303.4 Q579.5 318.0 576.05 332.75 542.15 457.35 539.45 598.45 L539.45 598.6 539.45 598.65 Q539.65 612.05 527.0 619.05 514.35 626.05 498.2 623.35 L31.2 546.65 Q22.1 545.1 17.15 537.25 L17.15 537.3 Q13.4 531.35 13.7 524.5 7.05 528.75 3.0 532.6 L3.0 527.25 Q7.6 523.45 14.3 519.4 24.2 405.05 58.1 301.1 43.6 214.65 294.95 153.9 L295.7 155.95 296.2 157.5 296.85 157.4 Q60.35 214.1 61.35 292.5 63.65 288.65 67.45 285.5 L67.4 285.5 Q74.95 279.0 83.95 276.5 L300.35 276.5 551.05 273.8 Q581.15 277.5 584.9 266.0 609.95 226.3 692.7 186.8 M692.7 235.5 Q685.2 240.05 678.0 245.1 667.55 252.4 659.7 262.3 648.05 277.1 638.25 293.2 629.0 308.35 621.75 324.65 615.4 338.85 610.9 353.75 605.15 372.75 601.35 392.35 597.7 411.1 594.8 430.15 L588.6 469.55 582.55 508.15 Q579.75 526.9 577.6 546.0 575.8 561.95 576.55 577.9 L576.95 584.35 Q577.15 586.55 577.85 588.4 579.05 591.65 582.1 593.65 582.5 593.85 582.95 593.65 L583.3 593.45 Q596.1 585.35 608.45 576.3 624.05 564.75 639.9 553.75 L639.95 553.75 Q655.9 542.75 672.0 531.8 L692.7 517.85 692.7 522.7 Q683.5 528.85 674.25 535.1 L642.2 557.05 Q626.35 568.05 610.8 579.5 598.35 588.7 585.45 596.9 L585.05 624.85 Q611.75 608.35 629.8 594.5 660.3 570.85 691.2 548.0 L692.7 546.9 692.7 556.9 Q662.25 574.4 632.25 597.65 613.35 612.15 584.95 629.6 L584.85 637.8 Q585.35 638.4 585.3 639.25 581.35 684.8 588.9 723.9 L578.0 723.9 Q569.35 683.75 572.0 669.6 575.95 645.55 567.05 639.85 L565.05 640.95 564.75 641.1 559.0 643.7 Q539.5 651.55 518.0 647.3 L518.05 647.35 443.45 634.15 443.15 634.05 442.9 634.05 433.9 632.45 Q207.8 585.5 0.0 563.9 L3.0 551.6 3.65 552.0 443.6 630.1 443.85 630.15 443.9 630.15 444.15 630.2 512.0 642.2 518.75 643.4 518.8 643.4 Q542.2 648.05 563.0 637.5 L563.1 637.45 563.95 636.95 564.3 636.8 565.1 636.35 565.15 636.35 565.2 636.35 Q573.95 631.9 573.85 623.6 L574.45 590.7 574.1 589.8 Q573.15 587.45 572.95 584.65 L572.55 578.1 Q571.8 561.85 573.6 545.55 L573.65 545.55 Q575.75 526.4 578.45 507.35 L583.65 468.8 Q586.15 449.3 589.95 429.85 L597.4 391.6 Q601.25 371.75 607.05 352.6 611.6 337.45 618.1 323.0 L632.2 291.6 Q638.95 276.75 656.4 255.15 666.4 242.85 675.4 238.7 684.4 234.55 692.7 235.5 M578.15 291.75 Q576.4 288.0 572.8 284.9 564.25 277.55 551.1 277.8 L84.0 282.85 Q76.35 283.0 70.0 288.55 63.7 293.8 62.15 301.45 L62.15 301.55 62.05 301.9 Q28.05 406.0 18.25 520.5 L18.15 521.05 18.1 521.25 Q16.55 528.8 20.55 535.15 24.5 541.5 31.85 542.7 L494.85 617.4 Q512.2 621.5 523.15 615.25 533.7 609.0 535.45 598.2 542.8 444.85 579.4 302.35 L579.4 302.3 579.7 299.5 Q579.8 295.4 578.2 291.85 L578.15 291.75 M560.6 292.7 Q552.35 285.85 539.7 286.1 L89.7 290.85 Q82.4 291.0 76.25 296.2 L76.2 296.2 Q70.1 301.15 68.7 308.45 L68.6 308.7 Q35.8 406.95 26.35 515.1 L26.3 515.35 Q24.7 522.6 28.65 528.6 L28.65 528.65 Q32.4 534.55 39.45 535.75 L489.35 608.1 489.4 608.1 Q502.25 610.1 512.85 604.15 L512.8 604.2 Q522.9 598.3 524.55 588.2 531.7 443.3 567.05 308.8 568.4 299.35 560.6 292.75 L560.65 292.75 560.6 292.7 M539.65 282.1 Q553.9 281.85 563.2 289.7 572.8 297.75 571.0 309.4 L571.0 309.5 570.95 309.6 Q535.7 443.85 528.55 588.45 L528.55 588.6 528.55 588.65 Q526.75 600.7 514.8 607.65 503.05 614.3 488.75 612.05 L38.8 539.7 Q30.0 538.25 25.25 530.8 L25.3 530.8 Q20.5 523.5 22.35 514.75 31.8 406.3 64.75 307.7 L64.75 307.6 Q66.45 299.0 73.7 293.1 L73.65 293.15 Q80.95 287.0 89.65 286.85 L539.65 282.1" fill="#460f0e" fill-rule="evenodd" stroke="none"/>
    <path d="M692.7 103.05 L692.7 131.0 681.75 132.95 Q659.45 137.3 638.6 146.0 621.55 153.15 608.85 147.85 646.05 128.15 632.95 127.05 635.6 115.4 635.5 103.75 666.65 102.65 692.7 103.05 M692.7 144.65 L692.7 186.8 Q609.95 226.3 584.9 266.0 581.15 277.5 551.05 273.8 L300.35 276.5 Q207.1 266.8 146.8 263.7 81.05 260.25 108.75 244.75 136.45 229.25 166.85 215.4 196.1 202.05 230.0 189.95 264.6 177.6 295.05 169.75 327.7 161.35 348.75 159.95 406.9 156.05 584.75 159.95 L594.1 155.4 Q612.25 170.75 639.75 159.25 659.9 150.85 681.4 146.65 L692.7 144.65 M417.45 723.9 L354.85 723.9 425.75 675.95 Q431.3 668.75 430.2 663.8 428.05 653.85 394.75 664.95 L217.9 723.9 3.0 723.9 3.0 641.0 Q21.6 579.7 59.45 585.25 106.5 592.15 180.7 601.75 254.9 611.25 317.8 623.25 376.0 634.35 433.9 632.45 L442.9 634.05 443.15 634.05 443.45 634.15 518.05 647.35 518.0 647.3 Q539.5 651.55 559.0 643.7 491.05 703.65 417.45 723.9 M3.0 551.6 L3.0 532.6 Q7.05 528.75 13.7 524.5 13.4 531.35 17.15 537.3 L17.15 537.25 Q22.1 545.1 31.2 546.65 L498.2 623.35 Q514.35 626.05 527.0 619.05 539.65 612.05 539.45 598.65 L539.45 598.6 539.45 598.45 Q542.15 457.35 576.05 332.75 548.15 495.5 545.9 624.05 549.1 640.9 512.0 642.2 L444.15 630.2 443.9 630.15 443.85 630.15 443.6 630.1 3.65 552.0 3.0 551.6 M329.75 171.95 L308.75 176.95 Q268.3 190.9 228.45 205.6 148.75 235.0 151.75 238.95 155.4 243.75 219.1 247.1 283.6 250.45 346.75 248.95 373.4 248.3 421.3 249.55 448.15 250.2 499.05 251.8 553.5 257.55 597.15 226.1 640.75 194.65 589.25 212.5 537.75 230.3 483.5 231.55 429.2 232.75 367.75 232.0 314.15 232.95 294.55 223.3 274.9 213.6 300.9 202.3 326.85 191.0 333.8 183.0 340.75 174.95 339.0 172.55 337.25 170.15 329.75 171.95" fill="#8d3329" fill-rule="evenodd" stroke="none"/>
    <path d="M692.7 139.1 L692.7 144.65 681.4 146.65 Q659.9 150.85 639.75 159.25 612.25 170.75 594.1 155.4 L584.75 159.95 Q406.9 156.05 348.75 159.95 327.7 161.35 295.05 169.75 264.6 177.6 230.0 189.95 196.1 202.05 166.85 215.4 136.45 229.25 108.75 244.75 81.05 260.25 146.8 263.7 207.1 266.8 300.35 276.5 L83.95 276.5 Q74.95 279.0 67.4 285.5 L67.45 285.5 Q63.65 288.65 61.35 292.5 60.35 214.1 296.85 157.4 L297.9 157.25 Q448.55 130.6 576.45 154.25 L577.3 154.2 577.65 154.1 593.2 146.9 Q596.4 150.1 599.9 152.45 617.05 163.7 641.7 153.4 661.85 145.0 683.35 140.8 L692.7 139.1 M692.7 191.25 L692.7 235.5 Q684.4 234.55 675.4 238.7 666.4 242.85 656.4 255.15 638.95 276.75 632.2 291.6 L618.1 323.0 Q611.6 337.45 607.05 352.6 601.25 371.75 597.4 391.6 L589.95 429.85 Q586.15 449.3 583.65 468.8 L578.45 507.35 Q575.75 526.4 573.65 545.55 L573.6 545.55 Q571.8 561.85 572.55 578.1 L572.95 584.65 Q573.15 587.45 574.1 589.8 L574.45 590.7 573.85 623.6 Q573.95 631.9 565.2 636.35 L565.15 636.35 565.1 636.35 564.3 636.8 563.95 636.95 563.1 637.45 563.0 637.5 Q542.2 648.05 518.8 643.4 L518.75 643.4 512.0 642.2 Q549.1 640.9 545.9 624.05 548.15 495.5 576.05 332.75 579.5 318.0 583.25 303.4 L583.25 303.3 583.35 303.1 583.4 302.8 583.4 302.75 583.45 302.6 583.7 299.9 583.7 299.55 583.7 298.25 Q606.35 232.95 692.7 191.25 M692.7 522.7 L692.7 546.9 691.2 548.0 Q660.3 570.85 629.8 594.5 611.75 608.35 585.05 624.85 L585.45 596.9 Q598.35 588.7 610.8 579.5 626.35 568.05 642.2 557.05 L674.25 535.1 Q683.5 528.85 692.7 522.7 M692.7 556.9 L692.7 723.9 588.9 723.9 Q581.35 684.8 585.3 639.25 585.35 638.4 584.85 637.8 L584.95 629.6 Q613.35 612.15 632.25 597.65 662.25 574.4 692.7 556.9 M578.0 723.9 L417.45 723.9 Q491.05 703.65 559.0 643.7 L564.75 641.1 565.05 640.95 567.05 639.85 Q575.95 645.55 572.0 669.6 569.35 683.75 578.0 723.9 M3.0 641.0 L0.0 563.9 Q207.8 585.5 433.9 632.45 376.0 634.35 317.8 623.25 254.9 611.25 180.7 601.75 106.5 592.15 59.45 585.25 21.6 579.7 3.0 641.0 M601.2 143.2 L632.55 128.65 632.75 127.75 632.95 127.05 Q646.05 128.15 608.85 147.85 604.8 146.15 601.2 143.2 M578.15 291.75 L578.2 291.85 Q579.8 295.4 579.7 299.5 L579.4 302.3 579.4 302.35 Q542.8 444.85 535.45 598.2 533.7 609.0 523.15 615.25 512.2 621.5 494.85 617.4 L31.85 542.7 Q24.5 541.5 20.55 535.15 16.55 528.8 18.1 521.25 L18.15 521.05 18.25 520.5 Q28.05 406.0 62.05 301.9 L62.15 301.55 62.15 301.45 Q63.7 293.8 70.0 288.55 76.35 283.0 84.0 282.85 L551.1 277.8 Q564.25 277.55 572.8 284.9 576.4 288.0 578.15 291.75 M539.65 282.1 L89.65 286.85 Q80.95 287.0 73.65 293.15 L73.7 293.1 Q66.45 299.0 64.75 307.6 L64.75 307.7 Q31.8 406.3 22.35 514.75 20.5 523.5 25.3 530.8 L25.25 530.8 Q30.0 538.25 38.8 539.7 L488.75 612.05 Q503.05 614.3 514.8 607.65 526.75 600.7 528.55 588.65 L528.55 588.6 528.55 588.45 Q535.7 443.85 570.95 309.6 L571.0 309.5 571.0 309.4 Q572.8 297.75 563.2 289.7 553.9 281.85 539.65 282.1" fill="#722921" fill-rule="evenodd" stroke="none"/>
    <path d="M692.7 131.0 L692.7 139.1 683.35 140.8 Q661.85 145.0 641.7 153.4 617.05 163.7 599.9 152.45 596.4 150.1 593.2 146.9 L601.2 143.2 Q604.8 146.15 608.85 147.85 621.55 153.15 638.6 146.0 659.45 137.3 681.75 132.95 L692.7 131.0" fill="#242424" fill-rule="evenodd" stroke="none"/>
    <path d="M354.85 723.9 L217.9 723.9 394.75 664.95 Q428.05 653.85 430.2 663.8 431.3 668.75 425.75 675.95 L354.85 723.9 M329.75 171.95 Q337.25 170.15 339.0 172.55 340.75 174.95 333.8 183.0 326.85 191.0 300.9 202.3 274.9 213.6 294.55 223.3 314.15 232.95 367.75 232.0 429.2 232.75 483.5 231.55 537.75 230.3 589.25 212.5 640.75 194.65 597.15 226.1 553.5 257.55 499.05 251.8 448.15 250.2 421.3 249.55 373.4 248.3 346.75 248.95 283.6 250.45 219.1 247.1 155.4 243.75 151.75 238.95 148.75 235.0 228.45 205.6 268.3 190.9 308.75 176.95 L329.75 171.95" fill="#a53c30" fill-rule="evenodd" stroke="none"/>
    <path d="M560.6 292.7 L560.6 292.75 Q568.4 299.35 567.05 308.8 531.7 443.3 524.55 588.2 522.9 598.3 512.8 604.2 L512.85 604.15 Q502.25 610.1 489.4 608.1 L489.35 608.1 39.45 535.75 Q32.4 534.55 28.65 528.65 L28.65 528.6 Q24.7 522.6 26.3 515.35 L26.35 515.1 Q35.8 406.95 68.6 308.7 L68.7 308.45 Q70.1 301.15 76.2 296.2 L76.25 296.2 Q82.4 291.0 89.7 290.85 L539.7 286.1 Q552.35 285.85 560.6 292.7" fill="url(#gradient0)" fill-rule="evenodd" stroke="none"/>
    <path d="M615.55 69.45 Q619.05 70.55 622.3 72.55 583.6 17.45 492.9 6.8 542.2 21.75 592.35 70.0 600.15 67.45 607.2 67.85 600.9 68.35 593.95 73.65 595.3 87.8 593.75 102.0 L593.25 106.05 Q592.35 112.5 590.85 118.95 589.3 125.45 587.2 132.0 L585.45 136.95 Q583.4 142.55 580.95 148.15 L629.1 125.85 Q631.55 114.85 631.5 103.9 L631.35 99.9 Q630.9 91.55 629.0 83.25 L628.45 82.7 628.4 82.65 Q622.45 72.7 615.55 69.45 M631.55 79.55 L631.6 79.6 632.5 81.15 632.6 81.35 632.7 81.55 632.75 81.8 632.8 81.85 Q634.9 90.8 635.35 99.75 L635.5 103.75 Q635.6 115.4 632.95 127.05 L632.75 127.75 632.55 128.65 577.65 154.1 577.3 154.2 576.45 154.25 Q448.55 130.6 297.9 157.25 L296.2 157.5 295.7 155.95 294.95 153.9 Q284.75 124.0 297.95 80.7 L298.1 80.25 298.4 79.9 Q377.35 -5.6 458.75 0.4 L458.9 0.4 Q587.35 3.9 631.55 79.55 M588.3 106.7 L589.05 102.6 Q591.4 88.35 589.9 73.2 523.45 9.2 458.65 4.4 L458.55 4.4 Q373.2 -4.7 302.65 85.25 289.0 124.1 298.9 152.95 L298.9 153.0 Q327.05 148.05 354.35 144.65 471.85 130.05 572.65 144.0 580.85 131.35 585.3 117.85 587.1 112.35 588.3 106.7" fill="#938466" fill-rule="evenodd" stroke="none"/>
    <path d="M615.55 69.45 Q622.45 72.7 628.4 82.65 L628.45 82.7 629.0 83.25 Q630.9 91.55 631.35 99.9 L631.5 103.9 Q631.55 114.85 629.1 125.85 L580.95 148.15 Q583.4 142.55 585.45 136.95 L587.2 132.0 Q589.3 125.45 590.85 118.95 592.35 112.5 593.25 106.05 L593.75 102.0 Q595.3 87.8 593.95 73.65 600.9 68.35 607.2 67.85 611.55 67.5 615.55 69.45" fill="#b4a989" fill-rule="evenodd" stroke="none"/>
    <path d="M607.2 67.85 Q600.15 67.45 592.35 70.0 542.2 21.75 492.9 6.8 583.6 17.45 622.3 72.55 619.05 70.55 615.55 69.45 611.55 67.5 607.2 67.85" fill="#f1efe4" fill-rule="evenodd" stroke="none"/>
    <path d="M510.9 39.95 L510.2 39.45 Q508.55 38.4 504.25 37.1 500.85 36.1 500.95 35.25 500.85 34.95 501.05 34.8 501.4 33.9 503.2 33.95 505.7 34.2 510.85 37.0 L511.7 32.2 Q511.9 32.55 512.2 32.5 L510.9 39.95 M490.45 37.15 Q491.0 39.8 493.45 41.05 494.9 41.85 499.3 43.05 502.45 44.05 502.5 45.0 502.4 46.55 499.65 46.2 L499.5 46.2 499.3 46.1 Q494.9 45.15 493.45 44.05 490.2 42.35 490.25 38.8 490.15 38.1 490.45 37.15 M491.05 50.7 Q495.5 52.65 500.5 53.0 505.5 53.55 509.1 51.8 512.7 50.15 513.4 46.85 L513.55 48.25 Q513.5 52.9 509.1 54.9 505.5 56.65 500.5 56.15 495.1 55.6 490.25 53.4 L491.05 50.7 M487.3 29.35 L487.85 29.4 486.2 39.35 480.85 39.0 479.2 28.85 479.75 28.9 480.85 35.95 486.2 36.3 487.3 29.35 M538.85 132.7 L538.9 136.5 522.45 134.8 522.45 131.3 Q518.8 135.05 513.4 134.75 502.9 133.85 495.65 125.3 488.4 116.45 488.35 104.05 488.3 102.95 488.4 101.85 488.9 112.9 495.65 121.3 502.9 130.0 513.4 130.85 518.75 131.3 522.4 127.35 L522.45 131.1 538.85 132.7 M521.95 104.9 Q521.4 101.5 519.5 99.1 516.65 95.5 513.1 95.3 509.2 94.7 506.6 97.85 504.65 99.85 504.25 103.15 503.9 102.05 504.1 100.95 503.85 96.1 506.55 93.45 509.15 90.4 513.05 90.9 516.55 91.2 519.45 94.7 522.0 97.9 522.2 102.7 L521.95 104.9 M457.25 39.35 Q456.85 38.75 456.95 37.95 456.8 36.0 458.5 34.65 460.0 33.4 462.15 33.4 464.2 33.45 465.85 34.75 467.3 36.2 467.4 38.1 L467.05 39.6 465.85 37.8 Q464.2 36.5 462.15 36.4 460.0 36.45 458.5 37.7 457.5 38.5 457.25 39.35 M476.75 50.95 L476.75 54.0 467.3 53.55 467.3 51.8 Q465.15 53.75 462.1 53.65 456.05 53.55 451.95 49.7 447.55 45.95 447.8 40.9 447.7 40.15 447.9 39.4 448.25 43.7 451.95 46.7 456.05 50.35 462.1 50.55 465.3 50.65 467.4 48.7 L467.3 50.45 476.75 50.95 M418.9 51.65 L418.85 54.65 410.25 55.7 410.25 54.1 Q408.25 56.3 405.45 56.7 399.75 57.55 396.0 54.75 392.05 52.15 392.2 47.45 392.05 46.75 392.25 46.1 392.65 49.85 396.0 51.9 399.75 54.7 405.45 53.85 408.25 53.35 410.25 51.2 L410.25 52.8 418.9 51.65 M430.05 36.35 L430.05 33.35 434.15 33.05 Q434.9 33.1 435.75 33.7 436.4 34.35 436.45 35.2 436.35 36.1 435.8 36.75 L435.75 36.65 Q434.9 36.0 434.15 36.1 L430.05 36.35 M445.25 36.1 L445.35 37.6 Q445.35 41.4 442.7 43.85 439.9 46.45 436.4 46.7 L430.05 47.0 430.05 44.2 436.4 43.8 Q439.9 43.65 442.7 40.95 444.75 39.0 445.25 36.1 M430.0 50.65 L430.0 53.7 421.15 54.45 Q421.1 52.85 421.2 51.4 L430.0 50.65 M441.4 73.5 L442.85 73.5 Q436.55 91.15 430.35 110.8 L428.9 110.8 Q435.0 91.15 441.4 73.5 M443.1 125.9 L443.1 129.65 407.95 130.8 409.35 126.95 443.1 125.9 M420.2 89.5 L408.0 90.55 407.95 86.3 421.6 85.1 420.2 89.5 M459.95 89.05 L447.05 88.75 447.0 84.4 461.35 84.8 459.95 89.05 M482.45 74.9 L483.95 75.05 Q477.4 92.25 470.85 111.55 L469.25 111.5 Q475.8 92.05 482.45 74.9 M484.45 127.8 L484.45 131.6 447.05 129.8 Q447.65 127.9 448.55 126.0 L484.45 127.8 M389.35 40.35 Q389.3 41.0 389.4 41.65 389.35 45.95 386.35 49.45 383.35 52.95 379.2 53.9 L372.05 55.65 372.05 53.2 Q375.6 52.1 379.2 51.3 383.35 50.25 386.35 46.75 388.85 43.75 389.35 40.35 M372.05 60.35 L372.05 63.05 362.1 65.5 362.05 62.85 372.05 60.35 M372.05 43.85 L372.05 41.0 376.6 39.7 378.5 39.95 Q379.15 40.6 379.2 41.55 379.2 42.5 378.8 43.1 378.5 43.05 378.5 42.8 L376.6 42.55 372.05 43.85 M357.6 90.15 L357.6 86.35 364.9 84.8 Q366.45 84.45 367.9 85.8 368.95 87.3 369.0 89.65 L368.8 91.65 Q368.45 90.45 367.9 89.7 366.45 88.3 364.9 88.55 L357.6 90.15 M385.25 89.1 L385.35 90.25 Q385.4 100.5 380.5 108.9 375.8 116.9 369.1 118.2 L357.65 120.1 357.65 116.0 369.1 113.95 Q375.7 112.7 380.5 104.7 384.6 97.4 385.25 89.1 M357.65 133.5 L357.65 136.9 342.05 139.5 342.05 136.15 357.65 133.5 M404.35 127.3 L404.35 131.0 389.95 132.45 389.95 128.85 404.35 127.3" fill="#781010" fill-rule="evenodd" stroke="none"/>
    <path d="M511.7 32.2 L510.85 37.0 Q505.7 34.2 503.2 33.95 501.4 33.9 501.05 34.8 500.85 34.95 500.95 35.25 500.85 36.1 504.25 37.1 508.55 38.4 510.2 39.45 L510.9 39.95 Q513.45 42.0 513.55 45.2 L513.4 46.85 Q512.7 50.15 509.1 51.8 505.5 53.55 500.5 53.0 495.5 52.65 491.05 50.7 L490.25 50.3 492.15 43.85 Q492.6 44.6 495.05 45.3 497.25 46.2 499.3 46.15 L499.5 46.2 499.65 46.2 Q502.4 46.55 502.5 45.0 502.45 44.05 499.3 43.05 494.9 41.85 493.45 41.05 491.0 39.8 490.45 37.15 490.15 36.5 490.25 35.7 490.2 31.75 493.95 29.05 497.5 26.45 503.05 26.85 509.9 27.65 512.2 29.15 L511.7 32.2 M479.75 28.9 L479.2 25.55 487.85 26.0 487.3 29.35 486.2 36.3 480.85 35.95 479.75 28.9 M488.4 101.85 L488.35 99.6 Q488.1 86.85 495.25 79.4 502.3 71.85 512.95 73.2 518.15 73.85 521.85 78.25 L521.85 74.65 538.35 76.45 Q538.45 104.3 538.85 132.7 L522.45 131.1 522.4 127.35 Q518.75 131.3 513.4 130.85 502.9 130.0 495.65 121.3 488.9 112.9 488.4 101.85 M521.95 104.9 L522.2 102.7 Q522.0 97.9 519.45 94.7 516.55 91.2 513.05 90.9 509.15 90.4 506.55 93.45 503.85 96.1 504.1 100.95 503.9 102.05 504.25 103.15 504.75 106.3 506.75 108.85 509.35 112.0 513.2 112.55 516.85 112.7 519.55 110.15 521.45 107.9 521.95 104.9 M467.05 39.6 L467.4 38.1 Q467.3 36.2 465.85 34.75 464.2 33.45 462.15 33.4 460.0 33.4 458.5 34.65 456.8 36.0 456.95 37.95 456.85 38.75 457.25 39.35 457.5 40.4 458.5 41.05 460.0 42.4 462.15 42.45 464.2 42.5 465.85 41.2 466.65 40.5 467.05 39.6 M447.9 39.4 Q447.7 38.65 447.8 37.95 447.6 32.85 452.0 28.8 456.1 24.75 462.15 24.65 465.2 24.8 467.4 27.0 L467.4 25.15 476.75 25.45 476.75 50.95 467.3 50.45 467.4 48.7 Q465.3 50.65 462.1 50.55 456.05 50.35 451.95 46.7 448.25 43.7 447.9 39.4 M392.25 46.1 Q392.05 45.4 392.2 44.8 392.05 40.15 396.0 35.45 399.75 30.95 405.45 29.6 408.25 29.15 410.25 30.85 L410.25 29.05 418.9 27.6 418.9 51.65 410.25 52.8 410.25 51.2 Q408.25 53.35 405.45 53.85 399.75 54.7 396.0 51.9 392.65 49.85 392.25 46.1 M410.25 41.25 Q410.2 39.5 408.85 38.4 407.3 37.55 405.45 37.7 403.4 38.25 402.0 39.7 400.45 41.2 400.6 42.95 400.5 43.85 400.85 44.35 401.05 45.05 402.0 45.65 403.4 46.7 405.45 46.2 407.3 46.05 408.85 44.5 L409.95 42.7 410.25 41.25 M435.8 36.75 Q436.35 36.1 436.45 35.2 436.4 34.35 435.75 33.7 434.9 33.1 434.15 33.05 L430.05 33.35 430.05 36.35 430.05 37.75 434.15 37.5 Q434.9 37.45 435.75 36.8 L435.8 36.75 M421.2 51.4 L421.2 27.3 436.45 25.75 Q439.95 25.5 442.75 28.15 445.25 30.9 445.35 34.6 L445.25 36.1 Q444.75 39.0 442.7 40.95 439.9 43.65 436.4 43.8 L430.05 44.2 430.05 47.0 430.0 50.65 421.2 51.4 M430.35 110.8 Q436.55 110.6 443.0 110.65 L443.1 125.9 409.35 126.95 407.95 127.05 Q414.15 109.25 420.2 89.5 L421.6 85.1 407.95 86.3 407.95 71.8 Q425.2 69.65 442.85 69.6 442.05 71.5 441.4 73.5 435.0 91.15 428.9 110.8 L430.35 110.8 M459.95 89.05 L461.35 84.8 447.0 84.4 447.0 69.55 483.95 71.15 482.45 74.9 Q475.8 92.05 469.25 111.5 L470.85 111.55 484.3 112.4 484.45 127.8 448.55 126.0 447.05 125.95 Q453.4 108.4 459.95 89.05 M362.05 62.85 L362.05 35.4 Q370.5 32.65 379.2 30.1 L380.9 29.8 Q384.0 29.5 386.35 31.75 389.35 34.5 389.4 38.85 389.3 39.65 389.35 40.35 388.85 43.75 386.35 46.75 383.35 50.25 379.2 51.3 375.6 52.1 372.05 53.2 L372.05 55.65 372.05 60.35 362.05 62.85 M378.8 43.1 Q379.2 42.5 379.2 41.55 379.15 40.6 378.5 39.95 L376.6 39.7 372.05 41.0 372.05 43.85 372.05 46.05 376.6 44.85 Q377.6 44.6 378.5 43.55 L378.8 43.1 M357.6 90.15 L357.6 97.9 364.95 96.35 Q366.5 95.85 367.9 94.05 L368.8 91.65 369.0 89.65 Q368.95 87.3 367.9 85.8 366.45 84.45 364.9 84.8 L357.6 86.35 357.6 90.15 M342.05 136.15 L342.05 75.35 369.0 68.7 Q375.6 67.0 380.4 71.65 385.35 76.3 385.35 86.2 385.2 87.15 385.3 88.2 L385.3 88.9 385.25 89.1 Q384.6 97.4 380.5 104.7 375.7 112.7 369.1 113.95 L357.65 116.0 357.65 120.1 357.65 133.5 342.05 136.15 M389.95 128.85 L389.85 74.55 404.25 72.25 404.35 127.3 389.95 128.85" fill="#e21d1d" fill-rule="evenodd" stroke="none"/>
    <path d="M510.9 39.95 L512.2 32.5 Q511.9 32.55 511.7 32.2 L512.2 29.15 Q509.9 27.65 503.05 26.85 497.5 26.45 493.95 29.05 490.2 31.75 490.25 35.7 490.15 36.5 490.45 37.15 490.15 38.1 490.25 38.8 490.2 42.35 493.45 44.05 494.9 45.15 499.3 46.1 L499.5 46.2 499.3 46.15 Q497.25 46.2 495.05 45.3 492.6 44.6 492.15 43.85 L490.25 50.3 491.05 50.7 490.25 53.4 Q495.1 55.6 500.5 56.15 505.5 56.65 509.1 54.9 513.5 52.9 513.55 48.25 L513.4 46.85 513.55 45.2 Q513.45 42.0 510.9 39.95 M479.75 28.9 L479.2 28.85 480.85 39.0 486.2 39.35 487.85 29.4 487.3 29.35 487.85 26.0 479.2 25.55 479.75 28.9 M538.85 132.7 Q538.45 104.3 538.35 76.45 L521.85 74.65 521.85 78.25 Q518.15 73.85 512.95 73.2 502.3 71.85 495.25 79.4 488.1 86.85 488.35 99.6 L488.4 101.85 Q488.3 102.95 488.35 104.05 488.4 116.45 495.65 125.3 502.9 133.85 513.4 134.75 518.8 135.05 522.45 131.3 L522.45 134.8 538.9 136.5 538.85 132.7 M504.25 103.15 Q504.65 99.85 506.6 97.85 509.2 94.7 513.1 95.3 516.65 95.5 519.5 99.1 521.4 101.5 521.95 104.9 521.45 107.9 519.55 110.15 516.85 112.7 513.2 112.55 509.35 112.0 506.75 108.85 504.75 106.3 504.25 103.15 M588.3 106.7 Q587.1 112.35 585.3 117.85 580.85 131.35 572.65 144.0 471.85 130.05 354.35 144.65 327.05 148.05 298.9 153.0 L298.9 152.95 Q289.0 124.1 302.65 85.25 373.2 -4.7 458.55 4.4 L458.65 4.4 Q523.45 9.2 589.9 73.2 591.4 88.35 589.05 102.6 L588.3 106.7 M457.25 39.35 Q457.5 38.5 458.5 37.7 460.0 36.45 462.15 36.4 464.2 36.5 465.85 37.8 L467.05 39.6 Q466.65 40.5 465.85 41.2 464.2 42.5 462.15 42.45 460.0 42.4 458.5 41.05 457.5 40.4 457.25 39.35 M476.75 50.95 L476.75 25.45 467.4 25.15 467.4 27.0 Q465.2 24.8 462.15 24.65 456.1 24.75 452.0 28.8 447.6 32.85 447.8 37.95 447.7 38.65 447.9 39.4 447.7 40.15 447.8 40.9 447.55 45.95 451.95 49.7 456.05 53.55 462.1 53.65 465.15 53.75 467.3 51.8 L467.3 53.55 476.75 54.0 476.75 50.95 M418.9 51.65 L418.9 27.6 410.25 29.05 410.25 30.85 Q408.25 29.15 405.45 29.6 399.75 30.95 396.0 35.45 392.05 40.15 392.2 44.8 392.05 45.4 392.25 46.1 392.05 46.75 392.2 47.45 392.05 52.15 396.0 54.75 399.75 57.55 405.45 56.7 408.25 56.3 410.25 54.1 L410.25 55.7 418.85 54.65 418.9 51.65 M410.25 41.25 L409.95 42.7 408.85 44.5 Q407.3 46.05 405.45 46.2 403.4 46.7 402.0 45.65 401.05 45.05 400.85 44.35 400.5 43.85 400.6 42.95 400.45 41.2 402.0 39.7 403.4 38.25 405.45 37.7 407.3 37.55 408.85 38.4 410.2 39.5 410.25 41.25 M435.8 36.75 L435.75 36.8 Q434.9 37.45 434.15 37.5 L430.05 37.75 430.05 36.35 434.15 36.1 Q434.9 36.0 435.75 36.65 L435.8 36.75 M445.25 36.1 L445.35 34.6 Q445.25 30.9 442.75 28.15 439.95 25.5 436.45 25.75 L421.2 27.3 421.2 51.4 Q421.1 52.85 421.15 54.45 L430.0 53.7 430.0 50.65 430.05 47.0 436.4 46.7 Q439.9 46.45 442.7 43.85 445.35 41.4 445.35 37.6 L445.25 36.1 M430.35 110.8 Q436.55 91.15 442.85 73.5 L441.4 73.5 Q442.05 71.5 442.85 69.6 425.2 69.65 407.95 71.8 L407.95 86.3 408.0 90.55 420.2 89.5 Q414.15 109.25 407.95 127.05 L409.35 126.95 407.95 130.8 443.1 129.65 443.1 125.9 443.0 110.65 Q436.55 110.6 430.35 110.8 M447.0 84.4 L447.05 88.75 459.95 89.05 Q453.4 108.4 447.05 125.95 L448.55 126.0 Q447.65 127.9 447.05 129.8 L484.45 131.6 484.45 127.8 484.3 112.4 470.85 111.55 Q477.4 92.25 483.95 75.05 L482.45 74.9 483.95 71.15 447.0 69.55 447.0 84.4 M389.35 40.35 Q389.3 39.65 389.4 38.85 389.35 34.5 386.35 31.75 384.0 29.5 380.9 29.8 L379.2 30.1 Q370.5 32.65 362.05 35.4 L362.05 62.85 362.1 65.5 372.05 63.05 372.05 60.35 372.05 55.65 379.2 53.9 Q383.35 52.95 386.35 49.45 389.35 45.95 389.4 41.65 389.3 41.0 389.35 40.35 M372.05 43.85 L376.6 42.55 378.5 42.8 Q378.5 43.05 378.8 43.1 L378.5 43.55 Q377.6 44.6 376.6 44.85 L372.05 46.05 372.05 43.85 M368.8 91.65 L367.9 94.05 Q366.5 95.85 364.95 96.35 L357.6 97.9 357.6 90.15 364.9 88.55 Q366.45 88.3 367.9 89.7 368.45 90.45 368.8 91.65 M385.25 89.1 L385.3 88.9 385.3 88.2 Q385.2 87.15 385.35 86.2 385.35 76.3 380.4 71.65 375.6 67.0 369.0 68.7 L342.05 75.35 342.05 136.15 342.05 139.5 357.65 136.9 357.65 133.5 357.65 120.1 369.1 118.2 Q375.8 116.9 380.5 108.9 385.4 100.5 385.35 90.25 L385.25 89.1 M404.35 127.3 L404.25 72.25 389.85 74.55 389.95 128.85 389.95 132.45 404.35 131.0 404.35 127.3" fill="#dcd5b8" fill-rule="evenodd" stroke="none"/>
  </g>
  <defs>
    <linearGradient gradientTransform="matrix(0.1781, 0.1373, -0.12, 0.1557, 296.55, 447.35)" gradientUnits="userSpaceOnUse" id="gradient0" spreadMethod="pad" x1="-819.2" x2="819.2">
      <stop offset="0.0" stop-color="#b8aea5" stop-opacity="0.5803922"/>
      <stop offset="1.0" stop-color="#dbd6ce" stop-opacity="0.0"/>
    </linearGradient>
  </defs>
</svg>
