<?xml version="1.0" encoding="UTF-8" standalone="no"?>
<svg xmlns:ffdec="https://www.free-decompiler.com/flash" xmlns:xlink="http://www.w3.org/1999/xlink" ffdec:objectType="shape" height="41.05px" width="50.7px" xmlns="http://www.w3.org/2000/svg">
  <g transform="matrix(1.0, 0.0, 0.0, 1.0, 28.6, 32.8)">
    <path d="M3.35 -1.05 Q5.1 -1.1 6.35 0.1 7.65 1.25 7.65 2.95 7.65 4.6 6.35 5.75 5.1 6.9 3.35 6.95 1.6 6.9 0.3 5.75 -0.95 4.6 -0.9 2.95 -0.95 2.0 -0.55 1.25 L0.3 0.1 1.25 -0.55 Q2.2 -1.1 3.35 -1.05 M-10.1 5.95 Q-11.2 4.95 -11.2 3.5 -11.2 2.7 -10.85 2.05 L-10.1 1.05 -9.3 0.5 Q-8.5 0.05 -7.45 0.05 -5.95 0.05 -4.85 1.05 -3.75 2.05 -3.75 3.5 -3.75 4.95 -4.85 5.95 -5.95 6.95 -7.45 7.0 -9.0 6.95 -10.1 5.95 Z" fill="none" stroke="#000000" stroke-linecap="round" stroke-linejoin="round" stroke-width="2.5"/>
    <path d="M1.25 -28.75 L0.65 -29.2 Q0.4 -29.55 0.5 -29.95 L0.85 -30.6 Q2.8 -32.25 3.75 -32.45 L9.85 -32.2 Q14.5 -30.9 18.65 -24.5 22.95 -17.75 21.9 -12.35 21.2 -8.85 19.65 -7.45 17.95 -5.8 15.3 -6.65 13.4 -7.1 12.3 -11.05 L12.3 -11.0 10.75 -18.0 10.75 -18.05 Q9.35 -25.15 6.8 -27.55 L6.8 -27.6 5.25 -28.5 5.2 -28.5 2.0 -28.8 1.25 -28.75 M5.75 -30.6 L5.8 -30.6 Q7.15 -30.2 8.3 -29.15 11.3 -26.45 12.9 -18.45 L14.4 -11.65 14.4 -11.6 Q15.05 -9.15 15.95 -8.7 17.3 -8.3 18.2 -9.05 19.25 -10.15 19.8 -12.75 20.6 -17.45 16.8 -23.3 13.2 -28.9 9.2 -30.15 L5.75 -30.6 M-12.2 -28.35 Q-13.85 -28.5 -15.7 -27.9 -19.7 -26.65 -23.3 -21.05 -27.1 -15.2 -26.25 -10.5 -25.75 -7.9 -24.7 -6.8 -23.8 -6.05 -22.4 -6.45 L-22.45 -6.45 Q-21.55 -6.9 -20.85 -9.35 L-20.85 -9.4 -19.4 -16.2 Q-17.8 -24.2 -14.75 -26.9 -13.65 -27.95 -12.3 -28.35 L-12.2 -28.35 M-13.3 -25.35 L-13.3 -25.3 Q-15.85 -22.9 -17.25 -15.8 L-17.25 -15.75 -18.8 -8.75 -18.8 -8.8 Q-19.9 -4.85 -21.75 -4.4 L-21.8 -4.4 Q-24.45 -3.55 -26.15 -5.2 -27.7 -6.6 -28.4 -10.1 -29.45 -15.5 -25.1 -22.25 -21.0 -28.65 -16.35 -29.95 L-10.25 -30.2 Q-9.3 -30.0 -7.35 -28.35 L-6.95 -27.7 Q-6.9 -27.3 -7.1 -26.95 L-7.7 -26.5 -8.45 -26.55 -11.65 -26.25 -11.7 -26.25 Q-12.6 -26.0 -13.3 -25.35" fill="#666666" fill-rule="evenodd" stroke="none"/>
    <path d="M5.75 -30.6 L9.2 -30.15 Q13.2 -28.9 16.8 -23.3 20.6 -17.45 19.8 -12.75 19.25 -10.15 18.2 -9.05 17.3 -8.3 15.95 -8.7 15.05 -9.15 14.4 -11.6 L14.4 -11.65 12.9 -18.45 Q11.3 -26.45 8.3 -29.15 7.15 -30.2 5.8 -30.6 L5.75 -30.6 M-12.2 -28.35 L-12.3 -28.35 Q-13.65 -27.95 -14.75 -26.9 -17.8 -24.2 -19.4 -16.2 L-20.85 -9.4 -20.85 -9.35 Q-21.55 -6.9 -22.45 -6.45 L-22.4 -6.45 Q-23.8 -6.05 -24.7 -6.8 -25.75 -7.9 -26.25 -10.5 -27.1 -15.2 -23.3 -21.05 -19.7 -26.65 -15.7 -27.9 -13.85 -28.5 -12.2 -28.35" fill="#000000" fill-rule="evenodd" stroke="none"/>
  </g>
</svg>
