<?xml version="1.0" encoding="UTF-8" standalone="no"?>
<svg xmlns:ffdec="https://www.free-decompiler.com/flash" xmlns:xlink="http://www.w3.org/1999/xlink" ffdec:objectType="shape" height="35.4px" width="49.7px" xmlns="http://www.w3.org/2000/svg">
  <g transform="matrix(1.0, 0.0, 0.0, 1.0, 28.1, 30.8)">
    <path d="M-4.4 3.4 L-11.6 3.6 M8.95 2.7 L-1.1 3.25" fill="none" stroke="#333333" stroke-linecap="round" stroke-linejoin="round" stroke-width="2.0"/>
    <path d="M0.75 -26.75 L0.15 -27.2 Q-0.1 -27.55 0.0 -27.95 L0.35 -28.6 Q2.3 -30.25 3.25 -30.45 L9.35 -30.2 Q14.0 -28.9 18.15 -22.5 22.45 -15.75 21.4 -10.35 20.7 -6.85 19.15 -5.45 17.45 -3.8 14.8 -4.65 12.9 -5.1 11.8 -9.05 L11.8 -9.0 10.25 -16.0 10.25 -16.05 Q8.85 -23.15 6.3 -25.55 L6.3 -25.6 Q5.6 -26.25 4.75 -26.5 L4.7 -26.5 1.5 -26.8 0.75 -26.75 M5.25 -28.6 L5.3 -28.6 Q6.65 -28.2 7.8 -27.15 10.8 -24.45 12.4 -16.45 L13.9 -9.65 13.9 -9.6 Q14.55 -7.15 15.45 -6.7 16.8 -6.3 17.7 -7.05 18.75 -8.15 19.3 -10.75 20.1 -15.45 16.3 -21.3 12.7 -26.9 8.7 -28.15 L5.25 -28.6 M-15.85 -27.95 L-9.75 -28.2 Q-8.8 -28.0 -6.85 -26.35 L-6.45 -25.7 Q-6.4 -25.3 -6.6 -24.95 L-7.2 -24.5 -7.95 -24.55 Q-9.1 -25.0 -11.15 -24.25 L-11.2 -24.25 -12.8 -23.35 -12.8 -23.3 Q-15.35 -20.9 -16.75 -13.8 L-16.75 -13.75 -18.3 -6.75 -18.3 -6.8 Q-19.4 -2.85 -21.25 -2.4 L-21.3 -2.4 Q-23.95 -1.55 -25.65 -3.2 -27.2 -4.6 -27.9 -8.1 -28.95 -13.5 -24.6 -20.25 -20.5 -26.65 -15.85 -27.95 M-11.8 -26.35 L-11.7 -26.35 -15.2 -25.9 Q-19.2 -24.65 -22.8 -19.05 -26.6 -13.2 -25.75 -8.5 -25.25 -5.9 -24.2 -4.8 -23.3 -4.05 -21.9 -4.45 L-21.95 -4.45 Q-21.05 -4.9 -20.35 -7.35 L-20.35 -7.4 -18.9 -14.2 Q-17.3 -22.2 -14.25 -24.9 -13.15 -25.95 -11.8 -26.35" fill="#666666" fill-rule="evenodd" stroke="none"/>
    <path d="M5.25 -28.6 L8.7 -28.15 Q12.7 -26.9 16.3 -21.3 20.1 -15.45 19.3 -10.75 18.75 -8.15 17.7 -7.05 16.8 -6.3 15.45 -6.7 14.55 -7.15 13.9 -9.6 L13.9 -9.65 12.4 -16.45 Q10.8 -24.45 7.8 -27.15 6.65 -28.2 5.3 -28.6 L5.25 -28.6 M-11.8 -26.35 Q-13.15 -25.95 -14.25 -24.9 -17.3 -22.2 -18.9 -14.2 L-20.35 -7.4 -20.35 -7.35 Q-21.05 -4.9 -21.95 -4.45 L-21.9 -4.45 Q-23.3 -4.05 -24.2 -4.8 -25.25 -5.9 -25.75 -8.5 -26.6 -13.2 -22.8 -19.05 -19.2 -24.65 -15.2 -25.9 L-11.7 -26.35 -11.8 -26.35" fill="#000000" fill-rule="evenodd" stroke="none"/>
  </g>
</svg>
