<?xml version="1.0" encoding="UTF-8" standalone="no"?>
<svg xmlns:ffdec="https://www.free-decompiler.com/flash" xmlns:xlink="http://www.w3.org/1999/xlink" ffdec:objectType="shape" height="471.35px" width="664.35px" xmlns="http://www.w3.org/2000/svg">
  <g transform="matrix(1.0, 0.0, 0.0, 1.0, 14.65, 14.4)">
    <path d="M606.95 391.95 L606.95 456.95 -6.0 456.95 -6.0 148.35 -5.9 148.3 -5.85 148.25 -5.85 148.2 Q46.15 157.45 98.25 168.65 L9.45 257.5 21.95 261.95 112.2 171.65 Q170.65 184.45 229.2 199.7 L128.85 300.1 141.35 304.55 242.65 203.2 Q295.3 217.15 347.95 233.0 355.75 238.9 361.8 246.1 L260.75 347.15 276.25 352.7 370.35 258.5 Q384.45 283.7 381.95 321.0 495.2 362.9 606.95 391.95" fill="#594d4a" fill-rule="evenodd" stroke="none"/>
    <path d="M8.2 -6.0 L8.2 4.1 35.7 10.6 35.7 -1.7 17.6 -6.0 171.65 -6.0 171.65 -2.1 199.15 4.4 199.15 -6.0 606.95 -6.0 606.95 62.2 546.95 47.0 546.95 134.6 531.65 131.0 531.65 143.3 546.95 146.95 546.95 185.25 529.05 180.9 521.7 188.6 501.65 183.85 501.65 196.2 506.6 197.35 494.05 210.55 469.15 207.7 469.15 206.15 441.65 199.65 441.65 204.4 379.15 196.0 379.15 184.8 351.65 178.3 351.65 190.6 366.75 194.2 334.2 189.15 308.2 183.0 308.2 184.75 Q275.25 179.05 245.7 172.85 L245.7 168.15 218.2 161.65 218.2 166.85 Q184.5 159.1 155.7 150.75 L155.7 146.8 128.2 140.3 128.2 142.2 Q108.7 135.75 91.85 128.95 L109.15 133.05 109.15 120.7 81.65 114.2 81.65 124.7 Q14.2 95.5 -6.0 59.85 -23.3 29.3 -6.0 -6.0 L8.2 -6.0 M589.15 36.95 L589.15 24.65 561.65 18.1 561.65 30.45 589.15 36.95 M575.7 18.8 L575.7 6.45 548.2 -0.05 548.2 12.25 575.7 18.8 M578.2 37.05 L578.2 49.4 590.7 52.35 590.8 52.35 605.7 55.7 605.7 43.55 578.2 37.05 M518.2 82.8 L518.2 95.15 530.7 98.1 530.8 98.1 545.7 101.65 545.7 89.35 518.2 82.8 M499.15 15.6 L499.15 3.25 486.95 0.35 486.85 0.35 486.8 0.35 486.75 0.35 471.65 -3.25 471.65 9.1 499.15 15.6 M501.65 33.85 L501.65 46.2 529.15 52.7 529.15 40.4 501.65 33.85 M530.8 38.1 L545.7 41.65 545.7 29.35 518.2 22.8 518.2 35.15 530.7 38.1 530.8 38.1 M488.2 105.7 L488.2 118.0 515.7 124.55 515.7 112.2 488.2 105.7 M488.2 135.7 L488.2 148.0 515.7 154.5 515.7 142.2 488.2 135.7 M439.15 31.35 L439.15 19.05 411.65 12.55 411.65 24.85 439.15 31.35 M485.7 45.1 L458.2 38.55 458.2 50.9 485.7 57.4 485.7 45.1 M379.15 47.15 L379.15 34.8 351.65 28.3 351.65 40.6 379.15 47.15 M441.65 49.65 L441.65 61.95 469.15 68.5 469.15 56.15 441.65 49.65 M411.65 72.5 L411.65 84.85 439.15 91.35 439.15 79.05 411.65 72.5 M335.7 81.8 L335.7 69.5 308.2 63.0 308.2 75.3 320.5 78.2 320.6 78.25 320.65 78.25 335.7 81.8 M349.15 40.0 L349.15 27.7 321.65 21.15 321.65 33.5 349.15 40.0 M335.7 21.8 L335.7 9.5 308.2 3.0 308.2 15.3 320.5 18.2 320.6 18.25 320.65 18.25 335.7 21.8 M338.2 52.4 L365.7 58.95 365.7 46.6 338.2 40.1 338.2 52.4 M395.7 66.05 L395.7 53.7 368.2 47.2 368.2 59.55 395.7 66.05 M395.7 126.05 L395.7 113.7 368.2 107.2 368.2 119.55 395.7 126.05 M395.7 143.7 L368.2 137.2 368.2 149.55 395.7 156.05 395.7 143.7 M338.2 130.1 L338.2 142.4 365.7 148.95 365.7 136.6 338.2 130.1 M335.7 171.8 L335.7 159.5 308.2 153.0 308.2 165.3 320.5 168.2 320.6 168.25 320.65 168.25 335.7 171.8 M335.7 111.8 L335.7 99.5 308.2 93.0 308.2 105.3 320.5 108.2 320.6 108.25 320.65 108.25 335.7 111.8 M428.2 181.45 L428.2 193.8 455.7 200.3 455.7 187.95 428.2 181.45 M409.15 114.25 L409.15 101.9 381.65 95.4 381.65 107.75 409.15 114.25 M455.7 140.3 L455.7 127.95 428.2 121.45 428.2 133.8 455.7 140.3 M485.7 117.4 L485.7 105.1 458.2 98.55 458.2 110.9 485.7 117.4 M398.2 144.3 L398.2 156.65 425.7 163.2 425.7 150.85 398.2 144.3 M458.2 158.55 L458.2 170.9 485.7 177.4 485.7 165.1 458.2 158.55 M441.65 139.65 L441.65 151.95 469.15 158.5 469.15 146.15 441.65 139.65 M291.65 14.05 L291.65 26.4 319.15 32.9 319.15 20.55 291.65 14.05 M278.2 85.85 L278.2 98.15 305.7 104.7 305.7 92.4 278.2 85.85 M245.7 30.45 L245.7 18.15 218.2 11.65 218.2 23.95 245.7 30.45 M245.7 60.45 L245.7 48.15 218.2 41.65 218.2 53.95 245.7 60.45 M261.65 66.9 L261.65 79.25 289.15 85.8 289.15 73.45 261.65 66.9 M275.7 97.55 L275.7 85.25 248.2 78.75 248.2 91.05 275.7 97.55 M185.7 46.2 L185.7 33.9 158.2 27.4 158.2 39.7 185.7 46.2 M229.15 41.55 L229.15 29.2 201.65 22.7 201.65 35.0 229.15 41.55 M185.7 76.2 L185.7 63.9 158.2 57.4 158.2 69.7 185.7 76.2 M169.15 27.3 L169.15 14.95 141.65 8.45 141.65 20.75 169.15 27.3 M215.7 113.35 L215.7 101.05 188.2 94.5 188.2 106.8 215.7 113.35 M185.7 136.2 L185.7 123.9 158.2 117.4 158.2 129.7 185.7 136.2 M231.65 119.8 L231.65 132.15 259.15 138.65 259.15 126.3 231.65 119.8 M229.15 161.55 L229.15 149.2 201.65 142.7 201.65 155.0 229.15 161.55 M261.65 156.95 L261.65 169.25 289.15 175.8 289.15 163.45 261.65 156.95 M275.7 127.6 L275.7 115.25 248.2 108.75 248.2 121.05 275.7 127.6 M185.7 106.2 L185.7 93.9 158.2 87.4 158.2 99.7 185.7 106.2 M81.65 24.2 L81.65 36.55 109.15 43.05 109.15 30.75 81.65 24.2 M109.15 13.05 L109.15 0.75 81.65 -5.8 81.65 6.55 109.15 13.05 M125.7 61.95 L125.7 49.7 98.2 43.15 98.2 55.45 125.7 61.95 M128.2 50.3 L128.2 62.55 155.7 69.1 155.7 56.8 128.2 50.3 M139.15 97.85 L111.65 91.35 111.65 103.65 139.15 110.15 139.15 97.85 M19.15 21.7 L19.15 9.35 -6.3 3.35 -6.75 3.15 -8.35 2.75 -8.35 15.15 19.15 21.7 M79.15 35.95 L79.15 23.6 51.65 17.1 51.65 29.4 79.15 35.95 M95.7 54.85 L95.7 42.55 68.2 36.05 68.2 48.3 95.7 54.85 M38.2 58.9 L38.2 71.2 65.7 77.75 65.7 65.45 38.2 58.9 M35.7 70.6 L35.7 58.3 8.2 51.8 8.2 64.1 35.7 70.6 M95.7 114.85 L95.7 102.55 68.2 96.05 68.2 108.3 95.7 114.85" fill="#bb6859" fill-rule="evenodd" stroke="none"/>
    <path d="M242.65 203.2 L141.35 304.55 128.85 300.1 229.2 199.7 242.65 203.2 M112.2 171.65 L21.95 261.95 9.45 257.5 98.25 168.65 112.2 171.65 M361.8 246.1 Q366.65 251.85 370.35 258.5 L276.25 352.7 260.75 347.15 361.8 246.1" fill="#8e7847" fill-rule="evenodd" stroke="none"/>
    <path d="M606.95 376.15 L606.95 391.95 Q495.2 362.9 381.95 321.0 384.45 283.7 370.35 258.5 L407.35 221.5 469.15 236.15 417.5 287.7 416.7 287.7 416.7 309.9 606.95 376.15 M-6.0 148.1 L-6.0 123.4 114.8 152.05 98.25 168.65 Q46.15 157.45 -5.85 148.2 L-5.9 148.15 -5.95 148.1 -6.0 148.1 M361.8 246.1 Q355.75 238.9 347.95 233.0 295.3 217.15 242.65 203.2 L259.45 186.4 390.4 217.45 361.8 246.1 M229.2 199.7 Q170.65 184.45 112.2 171.65 L128.55 155.3 245.7 183.15 229.2 199.7" fill="#4e4341" fill-rule="evenodd" stroke="none"/>
    <path d="M407.35 221.5 L370.35 258.5 Q366.65 251.85 361.8 246.1 L390.4 217.45 407.35 221.5 M259.45 186.4 L242.65 203.2 229.2 199.7 245.7 183.15 259.45 186.4 M128.55 155.3 L112.2 171.65 98.25 168.65 114.8 152.05 128.55 155.3" fill="#806c40" fill-rule="evenodd" stroke="none"/>
    <path d="M8.2 -6.0 L8.2 -8.2 17.6 -6.0 35.7 -1.7 35.7 10.6 8.2 4.1 8.2 -6.0 M171.65 -6.0 L171.65 -14.4 199.15 -7.9 199.15 -6.0 199.15 4.4 171.65 -2.1 171.65 -6.0 M606.95 62.2 L629.95 68.0 629.95 224.0 616.5 224.0 616.7 210.35 622.85 211.7 622.85 78.4 623.15 77.9 Q623.3 77.4 623.1 76.95 L622.9 76.7 623.2 70.75 623.15 70.1 623.1 69.95 623.05 69.85 622.9 69.65 Q622.65 69.35 622.25 69.3 L553.05 52.8 552.3 52.85 551.75 53.3 Q551.5 53.6 551.5 54.0 L551.5 193.35 529.05 187.9 513.55 204.1 508.05 202.85 493.75 217.85 476.75 212.8 476.9 228.4 471.25 234.05 245.7 180.55 245.7 172.85 Q275.25 179.05 308.2 184.75 L308.2 183.0 334.2 189.15 366.75 194.2 379.15 197.15 379.15 196.0 441.65 204.4 441.65 211.95 469.15 218.5 469.15 207.7 494.05 210.55 506.6 197.35 501.65 196.2 501.65 183.85 521.7 188.6 529.05 180.9 546.95 185.25 546.95 146.95 531.65 143.3 531.65 131.0 546.95 134.6 546.95 47.0 606.95 62.2 M-6.0 120.85 L-6.0 105.7 19.15 111.7 19.15 99.35 -6.0 93.4 -6.0 59.85 Q14.2 95.5 81.65 124.7 L81.65 114.2 109.15 120.7 109.15 133.05 91.85 128.95 Q108.7 135.75 128.2 142.2 L128.2 152.65 -5.7 120.9 -6.0 120.85 M589.15 36.95 L561.65 30.45 561.65 18.1 589.15 24.65 589.15 36.95 M488.2 105.7 L515.7 112.2 515.7 124.55 488.2 118.0 488.2 105.7 M485.7 45.1 L485.7 57.4 458.2 50.9 458.2 38.55 485.7 45.1 M439.15 31.35 L411.65 24.85 411.65 12.55 439.15 19.05 439.15 31.35 M335.7 21.8 L320.65 18.25 320.6 18.25 320.5 18.2 308.2 15.3 308.2 3.0 335.7 9.5 335.7 21.8 M349.15 40.0 L321.65 33.5 321.65 21.15 349.15 27.7 349.15 40.0 M335.7 81.8 L320.65 78.25 320.6 78.25 320.5 78.2 308.2 75.3 308.2 63.0 335.7 69.5 335.7 81.8 M395.7 126.05 L368.2 119.55 368.2 107.2 395.7 113.7 395.7 126.05 M338.2 130.1 L365.7 136.6 365.7 148.95 338.2 142.4 338.2 130.1 M398.2 144.3 L425.7 150.85 425.7 163.2 398.2 156.65 398.2 144.3 M485.7 117.4 L458.2 110.9 458.2 98.55 485.7 105.1 485.7 117.4 M455.7 140.3 L428.2 133.8 428.2 121.45 455.7 127.95 455.7 140.3 M409.15 114.25 L381.65 107.75 381.65 95.4 409.15 101.9 409.15 114.25 M428.2 181.45 L455.7 187.95 455.7 200.3 428.2 193.8 428.2 181.45 M441.65 139.65 L469.15 146.15 469.15 158.5 441.65 151.95 441.65 139.65 M425.7 223.25 L425.7 210.85 398.2 204.3 398.2 216.7 425.7 223.25 M245.7 30.45 L218.2 23.95 218.2 11.65 245.7 18.15 245.7 30.45 M278.2 85.85 L305.7 92.4 305.7 104.7 278.2 98.15 278.2 85.85 M229.15 41.55 L201.65 35.0 201.65 22.7 229.15 29.2 229.15 41.55 M185.7 46.2 L158.2 39.7 158.2 27.4 185.7 33.9 185.7 46.2 M215.7 113.35 L188.2 106.8 188.2 94.5 215.7 101.05 215.7 113.35 M229.15 161.55 L201.65 155.0 201.65 142.7 229.15 149.2 229.15 161.55 M218.2 166.85 L218.2 174.0 155.7 159.15 155.7 150.75 Q184.5 159.1 218.2 166.85 M275.7 127.6 L248.2 121.05 248.2 108.75 275.7 115.25 275.7 127.6 M261.65 156.95 L289.15 163.45 289.15 175.8 261.65 169.25 261.65 156.95 M81.65 24.2 L109.15 30.75 109.15 43.05 81.65 36.55 81.65 24.2 M125.7 61.95 L98.2 55.45 98.2 43.15 125.7 49.7 125.7 61.95 M139.15 97.85 L139.15 110.15 111.65 103.65 111.65 91.35 139.15 97.85 M38.2 58.9 L65.7 65.45 65.7 77.75 38.2 71.2 38.2 58.9 M65.7 137.8 L65.7 125.45 38.2 118.9 38.2 131.3 65.7 137.8" fill="#b75f4f" fill-rule="evenodd" stroke="none"/>
    <path d="M-6.0 148.35 L-7.0 148.15 -7.1 148.1 -7.1 148.0 -7.05 147.9 -6.95 147.9 -6.0 148.1 -5.95 148.1 -5.9 148.15 -5.85 148.2 -5.85 148.25 -5.9 148.3 -6.0 148.35" fill="#00ff00" fill-rule="evenodd" stroke="none"/>
    <path d="M-6.0 105.7 L-8.35 105.15 -8.35 92.75 -6.75 93.15 -6.3 93.35 -6.0 93.4 19.15 99.35 19.15 111.7 -6.0 105.7 M578.2 37.05 L605.7 43.55 605.7 55.7 590.8 52.35 590.7 52.35 578.2 49.4 578.2 37.05 M575.7 18.8 L548.2 12.25 548.2 -0.05 575.7 6.45 575.7 18.8 M530.8 38.1 L530.7 38.1 518.2 35.15 518.2 22.8 545.7 29.35 545.7 41.65 530.8 38.1 M501.65 33.85 L529.15 40.4 529.15 52.7 501.65 46.2 501.65 33.85 M499.15 15.6 L471.65 9.1 471.65 -3.25 486.75 0.35 486.8 0.35 486.85 0.35 486.95 0.35 499.15 3.25 499.15 15.6 M518.2 82.8 L545.7 89.35 545.7 101.65 530.8 98.1 530.7 98.1 518.2 95.15 518.2 82.8 M469.15 207.7 L469.15 218.5 441.65 211.95 441.65 204.4 441.65 199.65 469.15 206.15 469.15 207.7 M379.15 196.0 L379.15 197.15 366.75 194.2 351.65 190.6 351.65 178.3 379.15 184.8 379.15 196.0 M245.7 172.85 L245.7 180.55 218.2 174.0 218.2 166.85 218.2 161.65 245.7 168.15 245.7 172.85 M488.2 135.7 L515.7 142.2 515.7 154.5 488.2 148.0 488.2 135.7 M411.65 72.5 L439.15 79.05 439.15 91.35 411.65 84.85 411.65 72.5 M441.65 49.65 L469.15 56.15 469.15 68.5 441.65 61.95 441.65 49.65 M379.15 47.15 L351.65 40.6 351.65 28.3 379.15 34.8 379.15 47.15 M395.7 66.05 L368.2 59.55 368.2 47.2 395.7 53.7 395.7 66.05 M338.2 52.4 L338.2 40.1 365.7 46.6 365.7 58.95 338.2 52.4 M395.7 143.7 L395.7 156.05 368.2 149.55 368.2 137.2 395.7 143.7 M335.7 111.8 L320.65 108.25 320.6 108.25 320.5 108.2 308.2 105.3 308.2 93.0 335.7 99.5 335.7 111.8 M335.7 171.8 L320.65 168.25 320.6 168.25 320.5 168.2 308.2 165.3 308.2 153.0 335.7 159.5 335.7 171.8 M458.2 158.55 L485.7 165.1 485.7 177.4 458.2 170.9 458.2 158.55 M425.7 223.25 L398.2 216.7 398.2 204.3 425.7 210.85 425.7 223.25 M291.65 14.05 L319.15 20.55 319.15 32.9 291.65 26.4 291.65 14.05 M275.7 97.55 L248.2 91.05 248.2 78.75 275.7 85.25 275.7 97.55 M261.65 66.9 L289.15 73.45 289.15 85.8 261.65 79.25 261.65 66.9 M245.7 60.45 L218.2 53.95 218.2 41.65 245.7 48.15 245.7 60.45 M169.15 27.3 L141.65 20.75 141.65 8.45 169.15 14.95 169.15 27.3 M185.7 76.2 L158.2 69.7 158.2 57.4 185.7 63.9 185.7 76.2 M231.65 119.8 L259.15 126.3 259.15 138.65 231.65 132.15 231.65 119.8 M185.7 136.2 L158.2 129.7 158.2 117.4 185.7 123.9 185.7 136.2 M155.7 150.75 L155.7 159.15 128.2 152.65 128.2 142.2 128.2 140.3 155.7 146.8 155.7 150.75 M185.7 106.2 L158.2 99.7 158.2 87.4 185.7 93.9 185.7 106.2 M109.15 13.05 L81.65 6.55 81.65 -5.8 109.15 0.75 109.15 13.05 M128.2 50.3 L155.7 56.8 155.7 69.1 128.2 62.55 128.2 50.3 M95.7 54.85 L68.2 48.3 68.2 36.05 95.7 42.55 95.7 54.85 M79.15 35.95 L51.65 29.4 51.65 17.1 79.15 23.6 79.15 35.95 M19.15 21.7 L-8.35 15.15 -8.35 2.75 -6.75 3.15 -6.3 3.35 19.15 9.35 19.15 21.7 M35.7 70.6 L8.2 64.1 8.2 51.8 35.7 58.3 35.7 70.6 M65.7 137.8 L38.2 131.3 38.2 118.9 65.7 125.45 65.7 137.8 M95.7 114.85 L68.2 108.3 68.2 96.05 95.7 102.55 95.7 114.85" fill="#bb7959" fill-rule="evenodd" stroke="none"/>
    <path d="M-6.0 123.4 L-6.3 123.35 -7.05 122.75 -7.2 121.8 Q-7.1 121.3 -6.65 121.05 L-6.0 120.85 -5.7 120.9 128.2 152.65 155.7 159.15 218.2 174.0 245.7 180.55 471.25 234.05 469.15 236.15 407.35 221.5 390.4 217.45 259.45 186.4 245.7 183.15 128.55 155.3 114.8 152.05 -6.0 123.4" fill="#894438" fill-rule="evenodd" stroke="none"/>
    <path d="M613.5 253.45 L501.65 220.2 502.6 219.2 Q559.5 225.4 613.7 241.0 L613.5 253.45 M477.05 238.95 L477.05 242.35 459.65 260.55 459.35 261.05 459.3 261.4 459.3 266.5 451.0 277.3 442.75 274.9 477.05 238.95 M477.1 245.95 L477.2 259.7 475.8 259.35 462.95 260.8 462.9 260.8 477.1 245.95 M480.95 264.75 L481.0 264.75 482.05 264.6 482.75 264.5 482.75 264.3 483.65 263.65 Q484.7 262.5 484.7 261.0 L484.6 249.0 523.2 260.5 523.2 271.0 523.25 271.45 521.35 270.95 496.75 272.65 475.8 265.45 480.95 264.75 M525.4 274.45 L526.95 274.75 Q528.5 274.75 529.6 273.65 530.7 272.55 530.7 271.0 L530.7 262.7 579.2 277.1 579.2 285.7 577.9 285.35 542.95 286.95 Q528.25 282.75 513.6 278.15 L506.2 275.75 525.4 274.45 M581.3 289.35 Q582.05 289.75 582.95 289.75 584.5 289.75 585.6 288.65 586.7 287.55 586.7 286.0 L586.7 279.35 613.0 287.15 612.7 304.35 606.95 303.1 Q584.35 298.15 561.75 292.15 L556.55 290.75 581.3 289.35 M484.5 234.55 L484.45 231.2 486.05 229.55 488.8 230.05 484.5 234.55 M495.85 226.3 L523.2 234.45 523.2 252.65 484.55 241.15 484.5 238.15 495.85 226.3 M467.3 241.55 L470.8 241.85 439.5 274.65 439.4 274.75 439.15 275.45 439.15 281.0 429.8 291.1 420.4 288.35 467.3 241.55 M613.1 279.3 L586.7 271.5 586.7 253.3 613.4 261.25 613.1 279.3 M579.2 269.25 L530.7 254.85 530.7 236.7 579.2 251.1 579.2 269.25" fill="#9c948b" fill-rule="evenodd" stroke="none"/>
    <path d="M498.95 219.4 L496.4 218.65 508.85 205.6 511.55 206.25 498.95 219.4 M476.95 231.9 L477.0 235.4 470.8 241.85 467.3 241.55 476.95 231.9 M477.2 259.7 L477.2 261.05 Q477.2 262.6 478.35 263.7 479.4 264.75 480.95 264.75 L475.8 265.45 462.95 260.8 475.8 259.35 477.2 259.7 M482.05 264.6 L482.75 264.3 482.75 264.5 482.05 264.6 M523.25 271.45 Q523.35 272.7 524.3 273.65 L525.4 274.45 506.2 275.75 496.75 272.65 521.35 270.95 523.25 271.45 M579.2 285.7 L579.2 286.0 Q579.2 287.55 580.3 288.65 L581.3 289.35 556.55 290.75 542.95 286.95 577.9 285.35 579.2 285.7 M557.45 197.35 L558.4 197.6 558.45 197.6 558.45 197.65 558.5 197.65 560.35 198.05 614.2 211.1 613.7 241.0 Q559.5 225.4 502.6 219.2 L514.85 206.4 514.9 206.35 529.85 190.65 557.45 197.35 M484.4 227.6 L484.4 224.5 485.6 223.3 487.9 223.95 484.4 227.6 M490.6 224.75 L493.1 225.5 488.8 230.05 486.05 229.55 490.6 224.75 M429.8 291.1 L439.15 281.0 439.15 293.85 429.8 291.1 M459.3 266.5 L459.2 279.7 451.0 277.3 459.3 266.5" fill="#8d847a" fill-rule="evenodd" stroke="none"/>
    <path d="M616.5 224.0 L616.05 254.2 613.5 253.45 613.7 241.0 614.2 211.1 560.35 198.05 616.7 210.35 616.5 224.0 M501.65 220.2 L498.95 219.4 511.55 206.25 508.85 205.6 496.4 218.65 493.75 217.85 508.05 202.85 513.55 204.1 529.05 187.9 551.5 193.35 551.5 194.9 551.7 195.45 552.2 195.95 552.45 196.0 557.45 197.35 529.85 190.65 514.9 206.35 514.85 206.4 502.6 219.2 501.65 220.2 M476.9 228.4 L476.95 231.9 467.3 241.55 420.4 288.35 429.8 291.1 439.15 293.85 439.15 281.0 439.15 275.45 439.4 274.75 439.5 274.65 470.8 241.85 477.0 235.4 477.05 238.95 442.75 274.9 451.0 277.3 459.2 279.7 459.3 266.5 459.3 261.4 459.35 261.05 459.65 260.55 477.05 242.35 477.05 243.7 477.05 244.35 477.1 245.95 462.9 260.8 462.95 260.8 475.8 265.45 496.75 272.65 506.2 275.75 513.6 278.15 461.8 263.05 461.65 283.05 441.65 277.2 441.65 297.2 419.2 290.6 419.2 308.05 419.3 308.05 611.75 364.35 612.65 306.95 561.75 292.15 Q584.35 298.15 606.95 303.1 L612.7 304.35 613.0 287.15 615.55 287.9 614.2 378.65 606.95 376.15 416.7 309.9 416.7 287.7 417.5 287.7 469.15 236.15 471.25 234.05 476.9 228.4 M484.45 231.2 L484.4 227.6 487.9 223.95 490.6 224.75 486.05 229.55 484.45 231.2 M484.4 224.5 L484.35 222.9 485.6 223.3 484.4 224.5 M493.1 225.5 L495.85 226.3 484.5 238.15 484.5 234.55 488.8 230.05 493.1 225.5 M613.4 261.25 L615.95 262.0 615.7 280.1 613.1 279.3 613.4 261.25" fill="#413d38" fill-rule="evenodd" stroke="none"/>
    <path d="M419.3 308.05 L419.2 308.05 419.2 290.6 441.65 297.2 441.65 277.2 461.65 283.05 461.8 263.05 513.6 278.15 Q528.25 282.75 542.95 286.95 L556.55 290.75 561.75 292.15 612.65 306.95 Q610.95 312.15 606.95 316.15 577.1 345.85 419.3 308.05" fill="#746b63" fill-rule="evenodd" stroke="none"/>
    <path d="M419.3 308.05 Q577.1 345.85 606.95 316.15 610.95 312.15 612.65 306.95 L611.75 364.35 419.3 308.05" fill="#686159" fill-rule="evenodd" stroke="none"/>
    <path d="M620.45 75.85 L559.05 61.25 558.3 61.3 Q557.95 61.4 557.75 61.75 557.5 62.05 557.5 62.45 L557.5 194.8 554.0 193.85 554.0 55.6 620.65 71.5 620.45 75.85" fill="#5b7641" fill-rule="evenodd" stroke="none"/>
    <path d="M551.5 193.35 L551.5 54.0 Q551.5 53.6 551.75 53.3 L552.3 52.85 553.05 52.8 622.25 69.3 Q622.65 69.35 622.9 69.65 L623.05 69.85 623.1 69.95 623.15 70.1 623.2 70.75 622.9 76.7 623.1 76.95 Q623.3 77.4 623.15 77.9 L622.85 78.4 622.85 211.7 616.7 210.35 560.35 198.05 558.5 197.65 558.45 197.65 558.45 197.6 558.4 197.6 557.45 197.35 552.45 196.0 552.2 195.95 551.7 195.45 551.5 194.9 551.5 193.35 M620.45 75.85 L620.65 71.5 554.0 55.6 554.0 193.85 557.5 194.8 557.5 62.45 Q557.5 62.05 557.75 61.75 557.95 61.4 558.3 61.3 L559.05 61.25 620.45 75.85 M560.0 64.05 L560.0 195.4 620.35 208.6 620.35 78.4 560.0 64.05" fill="#3a4b29" fill-rule="evenodd" stroke="none"/>
    <path d="M560.0 64.05 L620.35 78.4 620.35 208.6 560.0 195.4 560.0 64.05" fill="#666666" fill-rule="evenodd" stroke="none"/>
    <path d="M484.35 222.9 L484.55 241.15 523.2 252.65 523.2 234.45 484.35 222.9 M649.25 265.25 Q650.0 266.6 649.55 268.1 649.1 269.55 647.75 270.3 646.35 271.05 644.9 270.6 L586.7 253.3 586.7 271.5 647.05 289.4 Q648.5 289.85 649.25 291.25 650.0 292.6 649.55 294.1 649.1 295.55 647.75 296.3 646.35 297.05 644.9 296.6 L586.7 279.35 586.7 286.0 Q586.7 287.55 585.6 288.65 584.5 289.75 582.95 289.75 582.05 289.75 581.3 289.35 L580.3 288.65 Q579.2 287.55 579.2 286.0 L579.2 277.1 530.7 262.7 530.7 271.0 Q530.7 272.55 529.6 273.65 528.5 274.75 526.95 274.75 L525.4 274.45 524.3 273.65 Q523.35 272.7 523.25 271.45 L523.2 271.0 523.2 260.5 484.6 249.0 484.7 261.0 Q484.7 262.5 483.65 263.65 L482.75 264.3 482.05 264.6 481.0 264.75 480.95 264.75 Q479.4 264.75 478.35 263.7 477.2 262.6 477.2 261.05 L477.05 244.35 477.05 243.7 476.75 212.8 647.05 263.4 Q648.5 263.85 649.25 265.25 M481.55 219.2 L525.95 232.4 525.95 256.35 481.8 243.25 481.55 219.2 M481.95 261.0 L481.8 245.3 525.95 258.4 525.95 271.0 Q525.95 271.4 526.25 271.7 526.55 272.0 526.95 272.0 L527.65 271.7 527.95 271.0 527.95 259.0 581.95 275.05 581.95 286.0 582.05 286.4 582.25 286.7 Q582.55 287.0 582.95 287.0 L583.65 286.7 583.95 286.0 583.95 275.65 645.7 293.95 646.45 293.9 646.9 293.3 646.85 292.55 646.25 292.05 583.95 273.6 583.95 249.6 645.7 267.95 646.45 267.9 646.9 267.3 646.85 266.55 646.25 266.05 479.55 216.5 479.95 261.0 Q479.95 261.4 480.25 261.7 L480.95 262.0 481.65 261.7 481.95 261.0 M579.2 269.25 L579.2 251.1 530.7 236.7 530.7 254.85 579.2 269.25 M581.95 273.0 L527.95 256.95 527.95 233.0 581.95 249.0 581.95 273.0" fill="#445830" fill-rule="evenodd" stroke="none"/>
    <path d="M481.95 261.0 L481.65 261.7 480.95 262.0 480.25 261.7 Q479.95 261.4 479.95 261.0 L479.55 216.5 646.25 266.05 646.85 266.55 646.9 267.3 646.45 267.9 645.7 267.95 583.95 249.6 583.95 273.6 646.25 292.05 646.85 292.55 646.9 293.3 646.45 293.9 645.7 293.95 583.95 275.65 583.95 286.0 583.65 286.7 582.95 287.0 Q582.55 287.0 582.25 286.7 L582.05 286.4 581.95 286.0 581.95 275.05 527.95 259.0 527.95 271.0 527.65 271.7 526.95 272.0 Q526.55 272.0 526.25 271.7 525.95 271.4 525.95 271.0 L525.95 258.4 481.8 245.3 481.95 261.0 M481.55 219.2 L481.8 243.25 525.95 256.35 525.95 232.4 481.55 219.2 M581.95 273.0 L581.95 249.0 527.95 233.0 527.95 256.95 581.95 273.0" fill="#5b7641" fill-rule="evenodd" stroke="none"/>
    <path d="M372.6 145.9 L369.7 146.1 296.7 128.25 Q292.45 127.2 292.45 123.0 L292.45 79.0 Q292.45 77.1 293.3 76.35 L296.25 76.2 369.25 94.05 Q373.45 95.05 373.45 99.25 L373.45 143.25 Q373.45 145.15 372.6 145.9" fill="#d7cba8" fill-rule="evenodd" stroke="none"/>
    <path d="M375.45 143.25 Q375.45 146.35 373.8 147.5 372.3 148.75 369.25 148.05 L369.2 148.05 296.2 130.2 Q290.45 128.8 290.45 123.0 L290.45 79.0 Q290.45 75.9 292.1 74.75 293.6 73.5 296.7 74.25 L369.7 92.1 Q375.45 93.45 375.45 99.25 L375.45 143.25 M372.6 145.9 Q373.45 145.15 373.45 143.25 L373.45 99.25 Q373.45 95.05 369.25 94.05 L296.25 76.2 293.3 76.35 Q292.45 77.1 292.45 79.0 L292.45 123.0 Q292.45 127.2 296.7 128.25 L369.7 146.1 372.6 145.9" fill="#a05041" fill-rule="evenodd" stroke="none"/>
    <path d="M330.6 97.3 L330.6 99.25 323.9 97.6 323.9 89.65 330.5 91.25 330.5 93.15 326.5 92.2 326.5 93.2 330.2 94.1 330.2 95.9 326.5 95.0 326.5 96.3 330.6 97.3 M339.1 95.6 L338.8 96.75 Q338.55 97.1 338.0 97.3 L337.25 97.35 337.8 97.7 338.2 98.2 338.6 98.8 339.75 101.45 336.85 100.75 335.6 98.1 335.2 97.4 334.65 97.05 334.55 97.05 334.55 100.2 331.9 99.55 331.9 91.6 336.0 92.6 Q337.1 92.85 337.75 93.2 L338.75 94.2 Q339.1 94.85 339.1 95.6 M334.55 95.4 L335.45 95.6 336.0 95.65 336.35 95.55 336.5 95.15 336.3 94.6 335.45 94.25 334.55 94.05 334.55 95.4 M342.4 94.15 L344.05 100.1 345.7 94.95 348.3 95.6 345.4 102.85 342.7 102.2 339.75 93.5 342.4 94.15 M360.75 98.65 Q361.85 98.9 362.5 99.35 L363.6 100.5 364.25 101.95 364.45 103.5 364.15 105.35 363.35 106.35 362.2 106.75 360.75 106.6 357.1 105.7 357.1 97.75 360.75 98.65 M355.7 97.4 L355.7 99.3 351.7 98.35 351.7 99.35 355.4 100.25 355.4 102.05 351.7 101.15 351.7 102.45 355.8 103.45 355.8 105.4 349.1 103.75 349.1 95.8 355.7 97.4 M368.05 102.55 L368.05 104.9 365.55 104.3 365.55 101.95 368.05 102.55 M368.05 106.0 L368.05 108.35 365.55 107.75 365.55 105.4 368.05 106.0 M359.75 100.4 L359.75 104.4 360.2 104.5 361.2 104.6 361.65 104.15 361.85 102.9 Q361.85 101.7 361.45 101.2 361.1 100.7 360.2 100.5 L359.75 100.4 M301.95 86.1 L301.95 87.45 302.85 87.65 303.4 87.7 303.75 87.6 303.9 87.2 303.7 86.65 302.85 86.3 301.95 86.1 M303.4 84.65 Q304.5 84.9 305.15 85.25 L306.15 86.25 Q306.5 86.9 306.5 87.65 L306.2 88.8 305.4 89.35 304.65 89.4 305.2 89.75 305.6 90.25 306.0 90.85 307.15 93.5 304.25 92.8 303.0 90.15 302.6 89.45 Q302.3 89.2 302.05 89.1 L301.95 89.1 301.95 92.25 299.3 91.6 299.3 83.65 303.4 84.65 M310.5 89.3 L314.2 90.2 314.2 92.0 310.5 91.1 310.5 92.4 314.6 93.4 314.6 95.35 307.9 93.7 307.9 85.75 314.5 87.35 314.5 89.25 310.5 88.3 310.5 89.3 M321.35 92.3 Q322.05 92.8 322.4 93.45 L322.7 94.7 Q322.7 95.45 322.25 96.0 321.85 96.55 321.1 96.7 L319.15 96.6 Q317.15 96.1 316.35 95.1 315.6 94.1 315.5 92.8 L317.95 93.25 318.25 94.2 Q318.6 94.7 319.2 94.85 L319.9 94.85 320.15 94.4 319.95 93.9 Q319.7 93.6 318.7 93.15 317.15 92.45 316.45 91.5 315.75 90.85 315.75 89.9 315.75 89.25 316.15 88.8 316.5 88.35 317.2 88.2 L319.15 88.4 Q320.65 88.75 321.5 89.5 322.3 90.3 322.45 91.7 L320.0 91.25 319.65 90.35 Q319.4 90.1 318.9 90.0 L318.35 90.0 Q318.2 90.1 318.2 90.3 L318.35 90.6 319.05 91.0 321.35 92.3" fill="#749652" fill-rule="evenodd" stroke="none"/>
    <path d="M366.0 116.45 L368.1 116.95 366.05 122.1 365.3 123.2 363.7 123.25 362.3 122.8 362.15 121.2 363.2 121.6 363.7 121.6 364.0 121.2 361.85 115.45 364.1 116.0 365.1 119.65 366.0 116.45 M352.2 111.2 Q353.25 111.45 353.8 112.1 354.4 112.8 354.4 113.6 354.4 114.25 353.95 114.6 L353.25 114.8 Q353.95 115.05 354.35 115.65 354.7 116.2 354.7 116.9 L354.45 117.9 353.7 118.4 352.85 118.45 351.85 118.3 348.0 117.4 348.0 110.2 352.2 111.2 M352.05 113.3 L351.9 112.85 351.25 112.55 350.4 112.35 350.4 113.5 351.25 113.7 351.9 113.7 352.05 113.3 M351.4 116.5 L352.15 116.55 352.35 116.1 352.15 115.65 Q351.95 115.4 351.4 115.25 L350.4 115.0 350.4 116.25 351.4 116.5 M358.5 114.55 Q360.1 114.95 360.9 116.05 361.55 116.95 361.55 118.05 361.55 119.25 360.75 119.85 L358.5 120.05 Q357.25 119.75 356.45 118.9 355.5 117.9 355.5 116.6 355.5 115.4 356.3 114.85 357.15 114.25 358.5 114.55 M359.15 116.55 L358.55 116.1 Q358.15 116.05 357.9 116.25 357.65 116.5 357.65 117.1 357.65 117.75 357.9 118.1 L358.5 118.55 359.15 118.4 359.4 117.55 359.15 116.55 M336.3 111.0 Q336.0 111.5 336.0 112.7 L336.0 114.5 333.85 113.95 333.85 108.65 335.9 109.15 335.9 110.0 Q335.95 109.5 336.25 109.35 L337.0 109.3 337.8 109.75 337.75 109.6 340.0 110.15 341.0 113.8 341.9 110.6 344.0 111.1 341.95 116.25 341.2 117.35 339.6 117.4 338.2 116.95 338.05 115.35 339.1 115.75 339.6 115.75 339.9 115.35 337.95 110.15 337.4 111.25 336.8 110.95 336.3 111.0 M326.6 106.85 L324.4 111.65 322.55 111.2 320.4 105.35 322.6 105.9 323.55 109.35 324.45 106.35 326.6 106.85 M326.9 109.6 Q326.9 108.4 327.7 107.8 328.5 107.2 329.85 107.55 331.0 107.85 331.65 108.35 332.3 108.85 332.65 109.6 333.0 110.3 333.0 111.35 L333.0 111.65 329.1 110.7 329.25 111.25 Q329.55 111.7 329.95 111.8 L330.45 111.75 330.8 111.5 332.85 112.2 Q332.4 113.05 331.75 113.15 L329.9 113.05 Q328.9 112.8 328.3 112.35 327.7 112.0 327.3 111.25 326.9 110.5 326.9 109.6 M329.95 108.95 L329.3 109.0 329.1 109.55 330.8 110.0 330.5 109.25 Q330.3 109.0 329.95 108.95 M325.85 118.9 Q325.85 120.25 325.3 121.05 324.7 121.95 323.7 122.3 L322.15 122.35 323.3 123.0 324.1 124.1 324.8 125.3 327.1 130.55 321.4 129.15 318.85 123.85 318.0 122.45 316.9 121.8 316.75 121.8 316.75 128.05 311.5 126.75 311.5 110.9 319.65 112.9 Q321.9 113.45 323.15 114.15 324.35 114.85 325.1 116.05 325.85 117.35 325.85 118.9 M334.4 120.45 Q337.85 121.3 339.6 123.75 341.05 125.75 341.05 128.1 341.05 130.8 339.3 132.05 337.5 133.3 334.4 132.55 331.6 131.85 329.9 130.05 327.75 127.8 327.75 124.9 327.75 122.25 329.55 121.0 331.35 119.7 334.4 120.45 M336.3 126.95 Q336.3 125.55 335.75 124.8 335.2 124.0 334.45 123.8 333.6 123.6 333.05 124.15 332.5 124.65 332.5 126.05 332.5 127.5 333.05 128.3 333.6 129.05 334.4 129.25 335.25 129.45 335.75 128.95 336.3 128.4 336.3 126.95 M342.35 135.1 L344.65 135.95 Q345.35 136.15 345.75 135.95 L346.45 135.05 341.75 122.5 346.65 123.7 348.8 131.7 350.8 124.7 355.4 125.85 350.95 137.0 Q350.15 138.85 349.35 139.4 348.15 140.25 345.8 139.65 L342.7 138.6 342.35 135.1 M319.8 104.85 L317.65 104.3 317.65 102.8 319.8 103.35 319.8 104.85 M316.4 102.5 L316.4 109.7 314.25 109.15 314.25 101.95 316.4 102.5 M319.8 110.55 L317.65 110.0 317.65 104.7 319.8 105.25 319.8 110.55 M309.45 104.75 L311.15 105.2 310.85 104.45 310.3 104.15 309.65 104.2 309.45 104.75 M313.0 104.8 Q313.35 105.5 313.35 106.55 L313.35 106.85 309.45 105.9 309.6 106.45 Q309.9 106.9 310.3 107.0 L310.8 106.95 311.15 106.7 313.2 107.4 Q312.75 108.25 312.1 108.35 L310.25 108.25 Q309.25 108.0 308.65 107.55 L307.65 106.45 Q307.25 105.7 307.25 104.8 307.25 103.6 308.05 103.0 308.85 102.4 310.2 102.75 311.35 103.05 312.0 103.55 L313.0 104.8 M303.75 101.55 L302.6 100.9 302.15 100.8 302.15 104.4 302.6 104.5 303.5 104.6 303.95 104.25 304.1 103.1 Q304.1 102.05 303.75 101.55 M306.45 103.6 L306.2 105.35 305.45 106.2 304.45 106.55 303.1 106.45 299.8 105.65 299.8 98.45 303.1 99.25 Q304.1 99.5 304.7 99.9 L305.7 100.85 306.3 102.2 306.45 103.6 M316.75 115.75 L316.75 118.45 318.5 118.85 319.65 118.95 Q320.15 118.95 320.4 118.65 L320.65 118.0 Q320.65 117.35 320.25 116.9 319.8 116.5 318.6 116.2 L316.75 115.75" fill="#d54f4f" fill-rule="evenodd" stroke="none"/>
    <path d="M368.95 96.65 Q369.45 96.2 370.15 96.2 370.85 96.2 371.3 96.65 371.8 97.15 371.8 97.85 371.8 98.55 371.3 99.0 370.85 99.5 370.15 99.5 369.45 99.5 368.95 99.0 368.5 98.55 368.5 97.85 368.5 97.15 368.95 96.65 M371.3 142.6 Q371.3 143.3 370.8 143.75 370.35 144.25 369.65 144.25 368.95 144.25 368.45 143.75 368.0 143.3 368.0 142.6 368.0 141.9 368.45 141.4 368.95 140.95 369.65 140.95 370.35 140.95 370.8 141.4 371.3 141.9 371.3 142.6 M297.8 79.35 Q297.8 80.05 297.3 80.5 296.85 81.0 296.15 81.0 295.45 81.0 294.95 80.5 294.5 80.05 294.5 79.35 294.5 78.65 294.95 78.15 295.45 77.7 296.15 77.7 296.85 77.7 297.3 78.15 297.8 78.65 297.8 79.35 M295.9 122.45 Q296.6 122.45 297.05 122.9 297.55 123.4 297.55 124.1 297.55 124.8 297.05 125.25 296.6 125.75 295.9 125.75 295.2 125.75 294.7 125.25 294.25 124.8 294.25 124.1 294.25 123.4 294.7 122.9 295.2 122.45 295.9 122.45" fill="#666666" fill-rule="evenodd" stroke="none"/>
  </g>
</svg>
