<?xml version="1.0" encoding="UTF-8" standalone="no"?>
<svg xmlns:ffdec="https://www.free-decompiler.com/flash" xmlns:xlink="http://www.w3.org/1999/xlink" ffdec:objectType="shape" height="259.8px" width="269.6px" xmlns="http://www.w3.org/2000/svg">
  <g transform="matrix(1.0, 0.0, 0.0, 1.0, 0.0, 0.0)">
    <path d="M254.05 20.6 L255.45 21.55 Q257.45 23.15 258.1 25.45 L258.25 26.75 Q240.85 46.1 216.65 62.05 214.9 61.2 214.05 59.55 211.0 53.9 210.4 47.25 L213.5 44.95 229.25 35.0 244.4 24.95 Q248.85 21.95 254.05 20.6 M86.35 184.85 Q87.5 183.1 88.85 181.55 94.35 175.45 100.7 170.2 103.7 167.7 106.2 164.5 107.75 162.5 108.45 160.05 108.95 158.35 108.05 156.9 107.3 155.75 106.15 155.2 91.35 147.6 75.4 142.4 L67.7 139.6 63.7 138.0 59.85 136.15 49.85 131.15 Q46.1 129.25 42.2 128.05 L38.4 127.6 Q36.6 127.85 34.9 128.7 L33.75 129.55 22.75 140.3 Q17.35 145.7 14.15 152.5 13.55 147.4 9.35 144.35 L35.45 121.15 41.55 124.3 Q50.45 128.75 59.5 132.7 68.05 136.55 77.05 139.8 L88.25 143.8 Q105.55 149.7 122.9 155.15 L97.35 185.2 96.3 184.85 Q93.75 184.4 91.75 186.1 L86.35 184.85 M187.25 7.7 L193.65 8.0 199.8 8.6 Q204.85 9.05 215.2 11.7 225.55 14.35 232.7 17.65 L241.7 21.7 210.25 46.15 Q209.25 38.5 207.1 31.2 205.75 26.45 201.2 24.6 L189.1 19.9 178.05 16.05 187.25 7.7 M175.9 15.3 L164.95 11.95 Q172.05 6.65 180.15 3.35 L181.25 3.05 185.1 7.1 175.9 15.3 M93.35 20.9 L105.25 10.35 Q107.55 8.4 110.2 6.9 111.0 6.45 112.05 6.35 121.9 6.75 131.45 9.1 L149.0 13.7 166.5 18.3 Q175.9 20.65 184.6 24.7 185.1 24.9 185.3 25.55 185.8 27.25 184.75 28.8 179.5 36.9 172.05 43.3 L165.0 49.7 Q158.55 55.8 152.55 62.1 150.4 64.35 147.75 66.05 144.4 68.1 140.5 68.2 131.35 68.55 122.6 66.3 114.15 64.35 106.05 61.65 L89.35 55.75 Q81.3 52.7 73.65 48.8 73.1 48.5 72.9 47.85 72.4 46.45 73.05 45.05 75.45 39.8 79.2 35.45 85.05 28.75 91.4 22.8 L98.0 23.85 Q94.85 28.0 99.3 30.8 L101.55 31.75 Q110.7 30.95 119.5 33.7 127.9 36.3 136.15 39.45 145.35 43.05 155.2 44.1 160.6 44.15 163.3 39.45 166.4 34.1 161.9 30.0 160.0 28.3 157.8 27.2 154.55 22.7 150.15 19.5 141.25 13.05 130.8 9.65 127.25 8.45 123.65 8.15 111.8 7.6 102.1 14.75 L100.55 22.2 100.2 22.35 93.35 20.9 M25.3 139.1 L25.5 138.9 35.45 129.8 Q37.25 128.25 39.65 128.55 43.65 128.9 47.4 130.9 L59.45 136.95 Q67.0 140.65 75.0 143.5 L93.6 150.25 Q99.1 152.25 104.5 154.7 106.3 155.5 107.2 157.4 107.55 158.1 107.3 158.8 104.6 166.75 97.6 171.7 90.75 176.95 83.75 181.55 81.85 182.85 79.65 183.2 71.4 184.45 63.35 181.9 55.0 179.4 47.05 175.2 38.5 170.65 31.35 164.3 28.15 161.45 25.55 157.85 20.4 150.55 23.95 142.1 L25.3 139.1" fill="#a53c30" fill-rule="evenodd" stroke="none"/>
    <path d="M213.5 44.95 L210.4 47.25 Q211.0 53.9 214.05 59.55 214.9 61.2 216.65 62.05 240.85 46.1 258.25 26.75 L258.1 25.45 Q257.45 23.15 255.45 21.55 L254.05 20.6 Q248.65 18.2 243.95 21.6 L243.65 21.85 242.85 21.95 213.5 44.95 M5.15 189.6 Q3.65 180.1 3.5 170.25 3.45 167.0 2.1 164.1 1.35 162.55 1.05 160.85 0.3 156.5 1.05 152.15 1.75 148.25 4.6 145.6 L6.4 143.9 34.45 119.4 52.75 69.7 Q54.9 62.9 57.8 56.25 61.7 47.5 68.2 40.45 L84.85 22.0 108.55 1.55 127.7 3.85 Q142.95 6.15 157.95 10.05 L169.8 2.35 Q176.75 -2.45 183.6 2.5 185.35 3.75 186.6 5.7 L198.35 6.6 Q215.3 9.6 231.45 15.75 L242.8 20.0 Q245.35 17.85 248.7 17.65 257.65 17.4 260.4 25.8 L260.9 27.55 Q265.0 30.9 266.6 35.95 270.15 47.15 269.5 59.1 268.9 69.45 266.55 79.6 L265.5 82.75 264.05 85.6 262.5 88.45 Q258.4 95.45 252.75 101.55 L252.05 102.1 251.0 101.4 Q251.05 96.4 250.0 91.45 249.0 86.75 244.6 85.35 243.55 85.1 242.45 85.35 239.4 86.25 237.2 88.75 233.85 92.4 231.4 96.65 L230.1 99.1 228.85 101.75 Q225.05 110.75 223.25 120.2 222.15 126.1 221.95 132.3 L221.8 132.8 Q214.5 141.75 206.55 150.25 L194.25 163.15 178.7 179.05 167.7 189.75 154.9 201.65 150.05 205.85 149.3 206.35 Q148.75 206.15 148.6 205.45 148.05 202.6 148.0 199.8 147.85 194.05 143.95 190.25 142.2 188.6 139.85 189.4 136.7 190.5 134.55 192.85 L133.0 194.5 131.6 196.45 Q126.6 203.55 123.75 211.8 121.2 219.3 120.2 227.3 119.8 230.3 119.75 233.3 119.75 235.15 119.15 237.1 L118.8 237.7 112.85 244.05 112.05 242.3 117.85 236.35 Q118.05 228.45 119.7 220.8 121.5 212.6 124.9 204.8 128.25 197.0 133.7 190.9 137.05 187.2 141.85 186.7 146.05 187.5 147.8 191.6 150.2 197.3 149.9 203.75 L159.9 194.5 159.75 191.2 151.55 198.6 Q151.05 193.75 149.35 189.2 147.85 185.1 144.3 182.95 143.6 182.45 142.5 182.35 138.35 182.95 135.3 186.0 128.0 193.3 123.85 202.85 117.15 218.15 116.2 234.9 L110.65 240.85 109.95 240.4 115.7 234.45 Q116.15 226.7 118.0 218.9 L119.35 213.55 Q122.0 204.7 126.4 196.4 131.15 187.4 139.55 182.1 140.65 181.4 141.8 181.1 145.95 180.95 148.15 184.75 151.55 190.55 152.0 197.2 L159.75 190.1 158.95 138.65 Q130.1 169.85 103.15 202.5 102.85 208.35 99.4 213.15 98.75 214.05 97.55 214.7 L96.95 215.05 96.25 215.2 Q95.4 218.65 95.2 222.25 L94.6 215.25 93.2 214.8 Q91.6 214.0 90.6 212.45 87.45 207.9 87.1 202.35 86.8 196.95 88.35 191.8 89.35 188.55 91.75 186.1 93.75 184.4 96.3 184.85 L97.35 185.2 122.9 155.15 Q105.55 149.7 88.25 143.8 L77.05 139.8 Q68.05 136.55 59.5 132.7 50.45 128.75 41.55 124.3 L35.45 121.15 9.35 144.35 Q13.55 147.4 14.15 152.5 17.35 145.7 22.75 140.3 L33.75 129.55 34.9 128.7 Q36.6 127.85 38.4 127.6 L42.2 128.05 Q46.1 129.25 49.85 131.15 L59.85 136.15 63.7 138.0 67.7 139.6 75.4 142.4 Q91.35 147.6 106.15 155.2 107.3 155.75 108.05 156.9 108.95 158.35 108.45 160.05 107.75 162.5 106.2 164.5 103.7 167.7 100.7 170.2 94.35 175.45 88.85 181.55 87.5 183.1 86.35 184.85 83.4 190.65 83.1 197.1 82.45 212.05 82.45 227.1 82.45 229.55 81.0 231.45 80.2 232.5 78.95 232.9 73.9 233.05 69.1 231.15 62.35 228.4 56.1 224.5 L55.65 224.75 26.9 208.85 26.8 207.9 Q24.4 207.0 22.0 205.4 17.3 202.4 15.3 197.25 12.9 191.05 12.35 184.4 11.7 175.85 11.95 167.25 L11.45 167.95 10.4 168.9 8.8 169.8 7.6 170.05 5.15 169.35 5.6 176.65 Q6.35 186.45 8.45 196.0 5.55 193.9 7.0 190.45 7.3 189.75 6.75 189.2 L5.15 189.6 M248.45 78.5 Q253.4 83.4 254.2 90.75 L254.55 93.25 Q261.45 85.25 265.05 75.35 266.25 72.15 266.75 68.75 268.55 56.8 266.95 44.95 266.5 41.6 265.6 38.4 263.85 32.25 258.75 28.95 L216.25 64.35 Q214.15 63.75 213.05 62.0 L212.1 60.5 213.55 72.1 Q231.7 56.55 251.0 42.55 252.1 41.75 253.25 41.95 253.4 45.15 250.75 47.55 236.75 60.35 223.1 73.55 L214.05 82.25 Q215.05 108.8 213.65 135.5 L218.2 130.3 Q218.75 118.0 222.85 106.4 223.15 106.1 223.3 105.2 226.55 96.25 230.95 88.15 234.9 80.9 242.25 77.65 245.5 76.2 248.45 78.5 M240.85 51.15 Q236.25 54.65 231.7 58.25 L222.65 65.65 213.65 73.15 214.0 81.15 251.25 45.7 252.2 44.45 252.55 43.95 Q253.25 42.7 251.7 43.3 251.15 43.5 250.7 43.8 245.7 47.35 240.85 51.15 M178.05 16.05 L189.1 19.9 201.2 24.6 Q205.75 26.45 207.1 31.2 209.25 38.5 210.25 46.15 L241.7 21.7 232.7 17.65 Q225.55 14.35 215.2 11.7 204.85 9.05 199.8 8.6 L193.65 8.0 187.25 7.7 Q187.4 7.2 187.2 6.75 186.95 6.25 186.5 6.1 L185.65 6.25 Q185.25 6.5 185.1 7.1 L181.25 3.05 Q175.55 0.45 170.75 4.25 L170.3 4.6 170.25 4.6 170.2 4.7 170.1 4.85 170.05 4.85 170.1 4.6 161.0 10.85 164.95 11.95 175.9 15.3 178.05 16.05 M265.95 75.95 Q262.55 83.7 257.55 90.5 L254.4 94.7 254.2 94.9 Q253.55 90.35 252.05 85.6 250.25 80.0 244.7 78.85 L242.15 78.9 Q239.55 79.6 237.65 81.45 231.45 87.4 228.0 95.0 223.95 104.05 221.25 113.6 218.95 121.9 218.75 130.7 L213.55 136.7 213.4 139.8 220.45 132.15 Q220.7 122.6 222.95 113.45 226.35 99.9 234.7 88.55 238.45 83.5 244.5 83.0 L246.1 83.15 Q249.05 84.5 250.3 87.45 252.0 91.25 252.25 95.4 L252.5 99.6 Q258.55 92.65 262.8 84.45 264.2 81.75 265.2 78.9 L265.95 75.95 M91.4 22.8 L86.65 23.35 Q74.95 35.35 64.65 48.5 63.25 50.35 62.15 52.35 57.55 60.85 54.55 69.95 L51.35 79.25 36.55 119.5 42.65 122.5 54.5 128.3 Q63.2 132.3 72.0 135.75 L88.95 142.05 104.8 147.25 119.45 152.0 124.0 153.4 129.95 132.95 Q127.0 144.15 125.05 155.6 L98.8 186.2 99.55 187.05 Q110.35 174.3 121.65 161.9 L136.6 145.7 Q144.05 137.7 151.65 129.85 L159.25 122.1 159.3 119.25 130.15 150.05 145.1 96.95 147.5 89.95 149.8 84.15 Q150.8 81.75 152.05 79.5 153.05 77.65 154.3 75.95 159.1 69.55 164.4 63.7 L164.6 63.65 164.6 63.95 163.45 75.35 162.35 87.95 161.65 101.95 160.8 117.55 159.95 118.6 159.7 129.75 159.6 137.4 159.6 150.55 159.7 163.65 Q159.95 178.6 160.5 193.7 L160.55 194.4 160.55 194.45 161.2 193.3 161.0 193.35 160.75 189.8 160.35 176.6 160.1 163.35 160.05 137.0 160.3 121.2 Q166.6 114.75 173.2 108.5 L186.05 96.5 199.05 84.8 212.1 73.3 212.25 73.35 212.3 73.55 212.75 82.85 213.1 96.1 213.2 109.6 Q213.2 123.45 212.4 137.55 L212.2 141.15 212.15 141.3 212.75 140.85 212.95 136.7 213.3 129.6 213.7 115.75 213.85 102.15 213.65 82.3 Q213.35 67.5 209.8 53.25 L209.3 50.85 207.05 39.0 206.25 35.75 Q205.45 32.6 204.25 29.95 L203.85 29.2 203.35 28.55 202.3 27.5 201.75 27.15 201.15 26.8 199.8 26.45 Q193.65 30.95 188.15 36.05 L176.7 47.2 Q170.3 53.65 164.3 60.5 157.95 67.85 151.95 75.55 149.55 78.6 147.85 82.1 144.1 90.05 141.45 98.5 137.2 108.85 133.85 119.4 L134.5 117.15 140.0 98.2 Q142.7 89.15 146.8 80.85 150.65 73.1 156.4 66.7 L163.85 58.2 Q169.7 51.4 176.0 45.2 L186.95 34.85 197.85 25.4 187.15 21.3 Q173.1 16.15 158.85 12.35 148.8 9.75 138.9 7.8 130.15 6.0 121.3 4.95 L109.35 3.55 89.2 20.8 93.35 20.9 100.2 22.35 100.55 22.45 100.7 24.6 98.0 23.85 91.4 22.8 M167.0 61.65 Q165.5 74.75 164.85 88.15 164.4 97.55 164.5 106.85 L164.55 112.8 208.0 71.2 Q207.4 62.5 206.1 54.05 L205.0 47.5 Q204.45 44.25 203.35 41.15 L202.2 38.3 Q201.65 36.95 200.5 35.8 199.8 35.0 198.85 34.7 L197.05 34.4 Q189.35 39.9 182.25 46.35 176.35 51.65 170.8 57.55 L167.0 61.65 M198.7 33.1 Q201.65 34.0 202.75 36.95 205.8 44.9 206.9 53.25 208.05 62.35 208.6 71.45 L164.0 114.3 Q163.8 101.7 164.35 88.75 164.8 78.7 165.75 68.55 L166.45 61.55 Q171.7 54.95 178.25 48.8 183.8 43.5 189.6 38.7 193.4 35.6 197.85 33.15 L198.7 33.1 M45.55 104.3 L55.6 76.6 Q57.55 71.15 62.85 69.2 65.7 68.1 68.75 68.75 L71.55 69.7 83.4 74.5 Q92.75 78.35 102.3 80.85 L115.85 84.15 122.8 85.9 Q128.0 87.05 131.35 91.25 134.2 94.9 133.45 99.45 L132.75 102.4 123.7 133.6 Q122.9 136.5 120.9 139.05 118.0 142.85 113.4 142.9 109.45 142.95 105.55 141.55 L91.25 136.75 77.6 131.8 65.0 126.4 Q58.95 123.65 53.05 120.75 45.65 118.3 44.5 110.95 44.2 108.95 44.7 107.15 45.05 105.7 45.55 104.3 M2.7 154.25 L2.75 159.1 Q5.4 163.0 10.05 162.95 L11.85 162.55 Q13.95 154.8 10.1 147.75 9.25 146.2 7.5 146.0 2.9 148.55 2.7 154.25 M48.8 117.2 Q50.75 118.8 53.4 119.8 59.15 122.9 65.25 125.65 L77.95 130.85 91.55 135.8 Q101.15 139.0 110.65 141.55 114.95 142.65 118.45 139.85 121.55 137.25 122.7 133.3 127.25 117.7 132.15 102.15 133.7 97.15 131.05 92.65 128.7 88.7 124.1 87.25 L122.55 86.9 108.7 83.55 95.45 79.9 Q86.1 77.05 77.0 73.1 L69.8 70.25 Q67.5 69.35 65.15 69.55 60.8 69.95 58.45 73.8 57.4 75.45 56.8 77.1 L46.3 104.6 Q44.55 109.25 46.35 113.7 47.2 115.8 48.8 117.2 M97.6 171.7 Q104.6 166.75 107.3 158.8 107.55 158.1 107.2 157.4 106.3 155.5 104.5 154.7 99.1 152.25 93.6 150.25 L75.0 143.5 Q67.0 140.65 59.45 136.95 L47.4 130.9 Q43.65 128.9 39.65 128.55 37.25 128.25 35.45 129.8 L25.5 138.9 25.3 139.1 Q17.65 145.8 15.0 155.25 14.5 156.95 14.5 158.85 14.45 161.75 13.55 164.3 13.15 165.5 13.1 166.75 12.75 175.65 13.25 184.3 13.7 192.45 17.55 199.35 18.2 200.5 19.15 201.45 22.55 204.85 26.9 206.85 L26.75 194.65 27.25 193.85 Q40.2 204.4 56.2 209.55 L56.15 223.4 61.55 226.35 Q69.4 231.5 78.65 231.75 79.55 231.75 80.25 230.8 81.45 229.1 81.45 227.05 L81.55 220.05 81.65 199.8 81.7 198.9 81.65 199.1 Q81.9 190.1 86.6 182.65 87.75 180.75 89.45 179.15 L97.6 171.7 M28.75 205.75 L28.75 207.8 33.25 210.3 35.4 211.5 36.8 212.3 37.35 212.6 38.05 213.0 39.4 213.75 40.1 214.1 40.4 214.3 40.9 214.55 43.25 215.85 43.75 216.15 44.4 216.5 44.95 216.8 45.25 217.0 45.75 217.3 46.1 217.45 46.6 217.75 47.95 218.5 48.15 218.6 54.35 222.05 54.35 210.65 Q47.1 207.85 40.2 204.0 34.1 200.7 28.75 196.35 L28.75 205.75 M10.85 165.05 L7.25 164.55 Q5.1 164.05 3.35 162.6 4.05 167.25 8.1 168.0 L10.85 165.05 M96.85 243.1 L96.25 235.65 Q97.15 239.6 98.7 243.7 L96.85 243.1 M211.8 74.7 L198.9 86.05 Q192.4 91.75 186.05 97.6 L173.35 109.5 160.75 121.7 160.55 135.75 212.2 82.9 211.8 74.7 M212.0 132.85 L212.4 120.25 212.6 107.9 212.65 101.85 212.6 95.85 212.45 89.9 212.25 84.0 160.55 136.95 161.15 184.25 161.3 188.65 174.4 176.15 187.25 163.5 199.65 150.55 211.8 137.55 212.0 132.85 M163.9 65.15 L154.3 76.9 Q149.35 84.75 146.65 93.6 L145.55 97.1 130.95 148.15 160.35 117.1 Q160.95 93.85 163.3 70.6 L163.9 65.15 M136.7 146.6 L129.25 154.55 121.9 162.7 114.55 170.9 107.3 179.25 100.05 187.7 101.0 189.5 102.05 191.8 102.4 193.05 102.7 194.3 102.95 195.7 103.1 197.1 103.25 200.0 103.25 201.2 116.65 185.15 123.5 177.15 130.45 169.2 137.45 161.25 144.5 153.3 151.7 145.4 158.95 137.45 159.2 123.25 144.2 138.75 136.7 146.6 M211.75 138.75 Q202.95 148.8 193.55 158.25 L180.9 170.95 167.95 183.55 161.35 189.75 161.5 192.75 Q167.95 187.35 174.85 180.4 L187.5 167.55 199.75 154.85 211.55 142.2 211.75 138.75 M95.2 186.75 Q91.2 188.0 90.1 192.45 88.95 197.1 89.2 201.9 90.8 205.5 94.7 206.7 97.65 207.55 100.5 206.65 102.9 197.3 98.55 189.1 L95.2 186.75 M99.55 208.95 Q93.95 209.95 89.85 206.1 90.55 210.1 93.85 212.65 95.4 213.8 97.05 212.6 98.5 211.5 99.25 209.6 L99.55 208.95" fill="#420d0d" fill-rule="evenodd" stroke="none"/>
    <path d="M254.05 20.6 Q248.85 21.95 244.4 24.95 L229.25 35.0 213.5 44.95 242.85 21.95 243.65 21.85 243.95 21.6 Q248.65 18.2 254.05 20.6 M95.2 222.25 Q95.4 218.65 96.25 215.2 L96.95 215.05 97.55 214.7 Q98.75 214.05 99.4 213.15 102.85 208.35 103.15 202.5 130.1 169.85 158.95 138.65 L159.75 190.1 152.0 197.2 Q151.55 190.55 148.15 184.75 145.95 180.95 141.8 181.1 138.7 181.4 136.1 182.65 L136.45 182.4 136.0 181.95 134.2 183.7 Q131.95 185.1 130.1 187.3 127.9 189.95 126.2 192.65 L124.7 195.15 124.15 195.3 123.35 198.0 121.9 198.85 121.65 200.75 122.45 200.15 119.35 213.55 118.0 218.9 Q116.15 226.7 115.7 234.45 L109.95 240.4 Q108.0 238.8 106.05 239.35 L105.85 239.6 Q103.9 244.75 98.7 243.7 97.15 239.6 96.25 235.65 94.7 228.75 95.2 222.25 M222.85 106.4 Q218.75 118.0 218.2 130.3 L213.65 135.5 Q215.05 108.8 214.05 82.25 L223.1 73.55 Q236.75 60.35 250.75 47.55 253.4 45.15 253.25 41.95 252.1 41.75 251.0 42.55 231.7 56.55 213.55 72.1 L212.1 60.5 213.05 62.0 Q214.15 63.75 216.25 64.35 L258.75 28.95 Q263.85 32.25 265.6 38.4 266.5 41.6 266.95 44.95 268.55 56.8 266.75 68.75 266.25 72.15 265.05 75.35 261.45 85.25 254.55 93.25 L254.2 90.75 Q253.4 83.4 248.45 78.5 L248.65 77.35 Q245.45 75.1 241.25 75.15 L237.8 75.05 234.9 76.5 233.95 79.45 Q233.35 81.05 231.9 82.55 231.35 83.05 231.05 83.8 L225.15 97.1 Q223.05 101.7 222.05 106.35 L222.85 106.4 M164.95 11.95 L161.0 10.85 170.1 4.6 170.05 4.85 170.1 4.85 170.2 4.7 170.25 4.6 170.3 4.6 170.75 4.25 Q175.55 0.45 181.25 3.05 L180.15 3.35 Q172.05 6.65 164.95 11.95 M263.55 49.95 L264.3 46.55 263.7 45.85 Q260.1 46.65 260.1 50.1 L260.05 51.4 Q260.95 52.65 262.5 51.55 263.35 50.95 263.55 49.95 M262.35 66.6 Q261.55 65.55 260.85 67.2 L260.7 67.55 Q260.85 68.05 261.5 68.1 L261.9 68.1 262.35 66.6 M220.15 97.95 L219.45 97.5 217.6 100.85 219.0 101.1 220.2 98.55 220.15 97.95 M91.4 22.8 Q85.05 28.75 79.2 35.45 75.45 39.8 73.05 45.05 72.4 46.45 72.9 47.85 73.1 48.5 73.65 48.8 81.3 52.7 89.35 55.75 L106.05 61.65 Q114.15 64.35 122.6 66.3 131.35 68.55 140.5 68.2 144.4 68.1 147.75 66.05 150.4 64.35 152.55 62.1 158.55 55.8 165.0 49.7 L172.05 43.3 Q179.5 36.9 184.75 28.8 185.8 27.25 185.3 25.55 185.1 24.9 184.6 24.7 175.9 20.65 166.5 18.3 L149.0 13.7 131.45 9.1 Q121.9 6.75 112.05 6.35 111.0 6.45 110.2 6.9 107.55 8.4 105.25 10.35 L93.35 20.9 89.2 20.8 109.35 3.55 121.3 4.95 Q130.15 6.0 138.9 7.8 148.8 9.75 158.85 12.35 173.1 16.15 187.15 21.3 L197.85 25.4 186.95 34.85 176.0 45.2 Q169.7 51.4 163.85 58.2 L156.4 66.7 Q150.65 73.1 146.8 80.85 142.7 89.15 140.0 98.2 L134.5 117.15 Q136.3 107.85 137.2 98.45 137.85 92.1 137.5 85.8 137.35 82.8 135.8 80.25 134.75 78.55 132.75 77.7 124.0 74.0 114.9 70.85 L98.65 65.2 80.4 59.05 66.6 54.6 Q65.35 55.05 64.5 56.1 60.5 61.35 57.5 67.1 L51.35 79.25 54.55 69.95 Q57.55 60.85 62.15 52.35 63.25 50.35 64.65 48.5 74.95 35.35 86.65 23.35 L91.4 22.8 M100.2 22.35 L100.55 22.2 100.55 22.45 100.2 22.35 M157.8 27.2 Q160.0 28.3 161.9 30.0 166.4 34.1 163.3 39.45 160.6 44.15 155.2 44.1 145.35 43.05 136.15 39.45 127.9 36.3 119.5 33.7 110.7 30.95 101.55 31.75 L99.3 30.8 Q94.85 28.0 98.0 23.85 L100.7 24.6 101.4 27.65 Q127.3 30.95 150.9 41.8 L160.75 40.25 161.1 38.25 Q162.25 31.9 157.8 27.2 M133.85 119.4 Q137.2 108.85 141.45 98.5 144.1 90.05 147.85 82.1 149.55 78.6 151.95 75.55 157.95 67.85 164.3 60.5 170.3 53.65 176.7 47.2 L188.15 36.05 Q193.65 30.95 199.8 26.45 L201.15 26.8 201.75 27.15 202.3 27.5 203.35 28.55 203.85 29.2 204.25 29.95 Q205.45 32.6 206.25 35.75 L207.05 39.0 209.3 50.85 209.8 53.25 Q213.35 67.5 213.65 82.3 L213.85 102.15 213.7 115.75 213.3 129.6 212.95 136.7 212.75 140.85 212.15 141.3 212.2 141.15 212.4 137.55 Q213.2 123.45 213.2 109.6 L213.1 96.1 212.75 82.85 212.3 73.55 212.25 73.35 212.1 73.3 199.05 84.8 186.05 96.5 173.2 108.5 Q166.6 114.75 160.3 121.2 L160.05 137.0 160.1 163.35 160.35 176.6 160.75 189.8 161.0 193.35 161.2 193.3 160.55 194.45 160.55 194.4 160.5 193.7 Q159.95 178.6 159.7 163.65 L159.6 150.55 159.6 137.4 159.7 129.75 159.95 118.6 160.8 117.55 161.65 101.95 162.35 87.95 163.45 75.35 164.6 63.95 164.6 63.65 164.4 63.7 Q159.1 69.55 154.3 75.95 153.05 77.65 152.05 79.5 150.8 81.75 149.8 84.15 L147.5 89.95 145.1 96.95 130.15 150.05 159.3 119.25 159.25 122.1 151.65 129.85 Q144.05 137.7 136.6 145.7 L121.65 161.9 Q110.35 174.3 99.55 187.05 L98.8 186.2 125.05 155.6 Q127.0 144.15 129.95 132.95 L133.85 119.4 M198.7 33.1 L197.85 33.15 Q193.4 35.6 189.6 38.7 183.8 43.5 178.25 48.8 171.7 54.95 166.45 61.55 L165.75 68.55 Q164.8 78.7 164.35 88.75 163.8 101.7 164.0 114.3 L208.6 71.45 Q208.05 62.35 206.9 53.25 205.8 44.9 202.75 36.95 201.65 34.0 198.7 33.1 M161.15 184.25 L160.55 136.95 212.25 84.0 212.45 89.9 212.6 95.85 212.65 101.85 212.6 107.9 212.4 120.25 212.0 132.85 209.9 138.15 Q206.0 139.4 204.1 142.8 L202.2 145.7 196.5 151.85 Q195.4 154.1 193.15 155.45 L191.35 156.95 Q189.25 159.1 186.7 160.7 183.15 163.15 180.7 166.55 L176.4 172.0 Q169.95 179.55 162.25 186.15 L161.15 184.25 M108.25 221.85 Q107.95 222.2 107.95 222.7 107.95 223.2 108.25 223.55 108.5 223.9 108.85 223.9 109.2 223.9 109.5 223.55 L109.75 222.7 109.5 221.85 Q109.2 221.5 108.85 221.5 108.5 221.5 108.25 221.85 M152.2 164.5 L151.25 164.8 Q149.6 167.15 149.85 170.25 L149.8 170.5 153.4 166.5 152.2 164.5" fill="#8d3329" fill-rule="evenodd" stroke="none"/>
    <path d="M240.85 51.15 Q245.7 47.35 250.7 43.8 251.15 43.5 251.7 43.3 253.25 42.7 252.55 43.95 L252.2 44.45 251.25 45.7 214.0 81.15 213.65 73.15 222.65 65.65 231.7 58.25 Q236.25 54.65 240.85 51.15 M32.75 203.75 L33.15 204.85 32.85 205.85 31.65 205.45 31.65 202.75 32.75 203.75 M33.4 202.9 Q32.5 201.7 31.2 201.2 L30.15 200.75 30.15 205.75 33.9 207.35 34.5 206.75 Q34.6 204.6 33.4 202.9 M28.75 205.75 L28.75 196.35 Q34.1 200.7 40.2 204.0 47.1 207.85 54.35 210.65 L54.35 222.05 48.15 218.6 48.15 217.4 47.05 216.95 47.55 217.4 47.35 217.5 47.0 217.65 47.95 218.5 46.6 217.75 46.6 215.9 46.1 215.65 46.1 217.45 45.75 217.3 45.75 215.45 45.25 215.15 45.25 217.0 44.95 216.8 44.95 215.5 44.4 215.2 44.4 216.5 43.75 216.15 44.25 215.1 43.75 214.85 43.5 215.55 43.25 214.55 42.7 214.25 43.25 215.85 40.9 214.55 40.9 213.25 40.4 212.95 40.4 214.3 40.1 214.1 40.1 212.8 39.55 212.5 39.35 213.35 39.2 212.3 38.7 212.0 38.8 213.35 39.4 213.75 38.05 213.0 38.15 211.85 37.2 211.35 37.35 212.6 36.8 212.3 35.95 211.35 35.95 209.95 35.4 209.65 35.4 211.5 33.25 210.3 33.25 208.25 28.75 205.75 M36.95 208.25 L36.95 207.2 35.0 206.1 35.0 207.2 36.95 208.25 M44.4 210.55 Q44.7 210.1 45.1 210.1 45.5 210.1 45.8 210.55 L46.1 211.65 45.8 212.75 Q45.5 213.2 45.1 213.2 L44.4 212.75 Q44.1 212.3 44.1 211.65 44.1 211.0 44.4 210.55 M41.45 207.4 L37.6 204.9 37.6 209.9 41.65 211.75 41.45 207.4 M43.25 208.7 Q42.9 209.65 42.95 210.65 43.25 214.55 46.95 214.55 L47.2 213.75 Q48.1 209.25 43.25 208.7 M39.1 209.65 L39.1 208.65 40.5 210.2 39.1 209.65 M40.35 207.9 L39.1 207.7 39.1 206.75 40.35 207.9 M51.5 212.65 L50.55 213.8 49.6 211.6 47.9 210.65 49.8 216.7 51.3 217.55 51.3 215.45 53.15 213.55 51.5 212.65 M44.95 215.15 L44.95 215.0 44.4 215.05 44.95 215.15 M41.15 214.5 L42.6 215.3 42.6 214.25 41.15 213.45 41.15 214.5 M37.9 212.5 L37.5 212.5 37.5 211.8 37.9 211.8 37.9 212.5 M211.8 74.7 L212.2 82.9 160.55 135.75 160.75 121.7 173.35 109.5 186.05 97.6 Q192.4 91.75 198.9 86.05 L211.8 74.7 M136.7 146.6 L144.2 138.75 159.2 123.25 158.95 137.45 151.7 145.4 144.5 153.3 137.45 161.25 130.45 169.2 123.5 177.15 116.65 185.15 103.25 201.2 103.25 200.0 103.1 197.1 102.95 195.7 102.7 194.3 102.4 193.05 102.05 191.8 101.0 189.5 100.05 187.7 107.3 179.25 114.55 170.9 121.9 162.7 129.25 154.55 136.7 146.6" fill="#d7cba8" fill-rule="evenodd" stroke="none"/>
    <path d="M141.8 181.1 Q140.65 181.4 139.55 182.1 131.15 187.4 126.4 196.4 122.0 204.7 119.35 213.55 L122.45 200.15 121.65 200.75 121.9 198.85 123.35 198.0 124.15 195.3 124.7 195.15 126.2 192.65 Q127.9 189.95 130.1 187.3 131.95 185.1 134.2 183.7 L136.0 181.95 136.45 182.4 136.1 182.65 Q138.7 181.4 141.8 181.1 M222.85 106.4 L222.05 106.35 Q223.05 101.7 225.15 97.1 L231.05 83.8 Q231.35 83.05 231.9 82.55 233.35 81.05 233.95 79.45 L234.9 76.5 237.8 75.05 241.25 75.15 Q245.45 75.1 248.65 77.35 L248.45 78.5 Q245.5 76.2 242.25 77.65 234.9 80.9 230.95 88.15 226.55 96.25 223.3 105.2 223.15 106.1 222.85 106.4 M262.35 66.6 L261.9 68.1 261.5 68.1 Q260.85 68.05 260.7 67.55 L260.85 67.2 Q261.55 65.55 262.35 66.6 M263.55 49.95 Q263.35 50.95 262.5 51.55 260.95 52.65 260.05 51.4 L260.1 50.1 Q260.1 46.65 263.7 45.85 L264.3 46.55 263.55 49.95 M220.15 97.95 L220.2 98.55 219.0 101.1 217.6 100.85 219.45 97.5 220.15 97.95 M81.65 199.1 L81.7 198.9 81.65 199.8 81.55 220.05 81.45 227.05 Q81.45 229.1 80.25 230.8 79.55 231.75 78.65 231.75 69.4 231.5 61.55 226.35 L61.55 224.8 Q62.35 224.6 63.35 225.45 66.45 227.95 70.0 227.0 71.05 226.85 71.45 226.0 L72.1 226.85 72.35 226.05 76.2 226.2 77.35 228.5 Q78.4 229.05 79.0 227.55 80.1 225.0 79.75 222.1 79.25 217.95 79.35 213.65 79.5 206.15 81.65 199.1 M20.05 192.65 L20.45 189.5 21.0 190.45 22.3 191.1 22.35 192.95 20.05 192.65 M22.6 177.15 Q23.25 177.65 23.25 178.35 23.25 179.05 22.6 179.6 L21.05 180.1 Q20.15 180.1 19.5 179.6 18.85 179.05 18.85 178.35 18.85 177.65 19.5 177.15 20.15 176.6 21.05 176.6 21.95 176.6 22.6 177.15 M212.0 132.85 L211.8 137.55 199.65 150.55 187.25 163.5 174.4 176.15 161.3 188.65 161.15 184.25 162.25 186.15 Q169.95 179.55 176.4 172.0 L180.7 166.55 Q183.15 163.15 186.7 160.7 189.25 159.1 191.35 156.95 L193.15 155.45 Q195.4 154.1 196.5 151.85 L202.2 145.7 204.1 142.8 Q206.0 139.4 209.9 138.15 L212.0 132.85 M65.85 200.75 L65.85 201.25 66.3 201.25 66.3 200.75 65.85 200.75 M67.95 199.9 L67.5 200.7 66.2 202.1 65.05 201.1 66.2 199.0 67.95 199.9 M108.25 221.85 Q108.5 221.5 108.85 221.5 109.2 221.5 109.5 221.85 L109.75 222.7 109.5 223.55 Q109.2 223.9 108.85 223.9 108.5 223.9 108.25 223.55 107.95 223.2 107.95 222.7 107.95 222.2 108.25 221.85 M152.2 164.5 L153.4 166.5 149.8 170.5 149.85 170.25 Q149.6 167.15 151.25 164.8 L152.2 164.5" fill="#583218" fill-rule="evenodd" stroke="none"/>
    <path d="M8.45 196.0 Q6.35 186.45 5.6 176.65 L5.15 169.35 7.6 170.05 8.8 169.8 10.4 168.9 11.45 167.95 11.95 167.25 Q11.7 175.85 12.35 184.4 12.9 191.05 15.3 197.25 17.3 202.4 22.0 205.4 24.4 207.0 26.8 207.9 L26.9 208.85 55.65 224.75 56.1 224.5 Q62.35 228.4 69.1 231.15 73.9 233.05 78.95 232.9 80.2 232.5 81.0 231.45 82.45 229.55 82.45 227.1 82.45 212.05 83.1 197.1 83.4 190.65 86.35 184.85 L91.75 186.1 Q89.35 188.55 88.35 191.8 86.8 196.95 87.1 202.35 87.45 207.9 90.6 212.45 91.6 214.0 93.2 214.8 L94.6 215.25 95.2 222.25 Q94.7 228.75 96.25 235.65 L96.85 243.1 90.85 241.15 Q81.9 238.1 73.2 234.4 64.35 230.75 56.1 226.55 47.75 222.4 39.65 217.4 31.65 212.4 23.8 207.25 15.8 202.05 8.45 196.0 M110.65 240.85 L116.2 234.9 Q117.15 218.15 123.85 202.85 128.0 193.3 135.3 186.0 138.35 182.95 142.5 182.35 143.6 182.45 144.3 182.95 147.85 185.1 149.35 189.2 151.05 193.75 151.55 198.6 L159.75 191.2 159.9 194.5 149.9 203.75 Q150.2 197.3 147.8 191.6 146.05 187.5 141.85 186.7 137.05 187.2 133.7 190.9 128.25 197.0 124.9 204.8 121.5 212.6 119.7 220.8 118.05 228.45 117.85 236.35 L112.05 242.3 110.65 240.85 M187.25 7.7 L178.05 16.05 175.9 15.3 185.1 7.1 Q185.25 6.5 185.65 6.25 L186.5 6.1 Q186.95 6.25 187.2 6.75 187.4 7.2 187.25 7.7 M265.95 75.95 L265.2 78.9 Q264.2 81.75 262.8 84.45 258.55 92.65 252.5 99.6 L252.25 95.4 Q252.0 91.25 250.3 87.45 249.05 84.5 246.1 83.15 L244.5 83.0 Q238.45 83.5 234.7 88.55 226.35 99.9 222.95 113.45 220.7 122.6 220.45 132.15 L213.4 139.8 213.55 136.7 218.75 130.7 Q218.95 121.9 221.25 113.6 223.95 104.05 228.0 95.0 231.45 87.4 237.65 81.45 239.55 79.6 242.15 78.9 L244.7 78.85 Q250.25 80.0 252.05 85.6 253.55 90.35 254.2 94.9 L254.4 94.7 257.55 90.5 Q262.55 83.7 265.95 75.95 M51.35 79.25 L57.5 67.1 Q60.5 61.35 64.5 56.1 65.35 55.05 66.6 54.6 L80.4 59.05 98.65 65.2 114.9 70.85 Q124.0 74.0 132.75 77.7 134.75 78.55 135.8 80.25 137.35 82.8 137.5 85.8 137.85 92.1 137.2 98.45 136.3 107.85 134.5 117.15 L133.85 119.4 129.95 132.95 124.0 153.4 119.45 152.0 104.8 147.25 88.95 142.05 72.0 135.75 Q63.2 132.3 54.5 128.3 L42.65 122.5 36.55 119.5 51.35 79.25 M45.55 104.3 Q45.05 105.7 44.7 107.15 44.2 108.95 44.5 110.95 45.65 118.3 53.05 120.75 58.95 123.65 65.0 126.4 L77.6 131.8 91.25 136.75 105.55 141.55 Q109.45 142.95 113.4 142.9 118.0 142.85 120.9 139.05 122.9 136.5 123.7 133.6 L132.75 102.4 133.45 99.45 Q134.2 94.9 131.35 91.25 128.0 87.05 122.8 85.9 L115.85 84.15 102.3 80.85 Q92.75 78.35 83.4 74.5 L71.55 69.7 68.75 68.75 Q65.7 68.1 62.85 69.2 57.55 71.15 55.6 76.6 L45.55 104.3 M25.3 139.1 L23.95 142.1 Q20.4 150.55 25.55 157.85 28.15 161.45 31.35 164.3 38.5 170.65 47.05 175.2 55.0 179.4 63.35 181.9 71.4 184.45 79.65 183.2 81.85 182.85 83.75 181.55 90.75 176.95 97.6 171.7 L89.45 179.15 Q87.75 180.75 86.6 182.65 81.9 190.1 81.65 199.1 79.5 206.15 79.35 213.65 79.25 217.95 79.75 222.1 80.1 225.0 79.0 227.55 78.4 229.05 77.35 228.5 L76.2 226.2 72.35 226.05 72.1 226.85 71.45 226.0 Q71.05 226.85 70.0 227.0 66.45 227.95 63.35 225.45 62.35 224.6 61.55 224.8 L61.55 226.35 56.15 223.4 56.2 209.55 Q40.2 204.4 27.25 193.85 L26.75 194.65 26.9 206.85 Q22.55 204.85 19.15 201.45 18.2 200.5 17.55 199.35 13.7 192.45 13.25 184.3 12.75 175.65 13.1 166.75 13.15 165.5 13.55 164.3 14.45 161.75 14.5 158.85 14.5 156.95 15.0 155.25 17.65 145.8 25.3 139.1 M22.6 177.15 Q21.95 176.6 21.05 176.6 20.15 176.6 19.5 177.15 18.85 177.65 18.85 178.35 18.85 179.05 19.5 179.6 20.15 180.1 21.05 180.1 L22.6 179.6 Q23.25 179.05 23.25 178.35 23.25 177.65 22.6 177.15 M20.05 192.65 L22.35 192.95 22.3 191.1 21.0 190.45 20.45 189.5 20.05 192.65 M211.75 138.75 L211.55 142.2 199.75 154.85 187.5 167.55 174.85 180.4 Q167.95 187.35 161.5 192.75 L161.35 189.75 167.95 183.55 180.9 170.95 193.55 158.25 Q202.95 148.8 211.75 138.75 M67.95 199.9 L66.2 199.0 65.05 201.1 66.2 202.1 67.5 200.7 67.95 199.9 M65.85 200.75 L66.3 200.75 66.3 201.25 65.85 201.25 65.85 200.75" fill="#722921" fill-rule="evenodd" stroke="none"/>
    <path d="M113.45 15.2 L113.55 10.6 116.6 10.6 Q118.35 10.95 118.35 12.85 118.35 13.35 117.85 13.75 L117.45 14.05 115.5 14.5 115.2 14.5 115.2 15.3 113.45 15.2 M120.75 11.95 L121.2 11.9 122.05 12.35 123.6 12.25 123.5 16.3 Q121.55 16.3 120.2 15.6 118.8 14.9 118.8 13.95 118.85 12.45 120.3 12.0 L120.75 11.95 M116.5 12.55 Q115.6 11.45 115.25 12.55 L116.45 12.75 116.5 12.55 M125.45 16.1 L125.45 16.7 123.9 16.35 124.0 12.3 126.65 13.0 Q128.25 13.5 128.2 15.05 L125.45 16.1 M134.3 15.9 L134.3 15.8 134.3 15.65 134.2 15.05 135.6 16.1 135.25 17.35 134.75 17.4 Q134.5 17.15 134.4 16.6 L134.3 15.9 M128.65 15.75 L129.1 14.45 Q130.35 13.5 131.75 14.3 L132.15 14.7 133.8 14.9 133.65 19.2 132.0 18.6 Q129.7 18.35 128.65 15.75 M130.3 16.25 L132.0 16.8 132.0 16.25 131.65 15.85 131.6 15.8 131.55 15.65 131.2 15.5 Q130.2 15.25 130.3 16.25 M125.5 14.3 L126.5 14.65 126.5 14.5 Q125.85 13.2 125.5 14.3 M121.4 21.55 L121.45 19.1 127.6 20.55 127.35 21.15 125.25 26.8 127.45 27.45 127.4 30.0 121.45 28.45 123.55 22.7 123.8 22.05 121.4 21.55 M128.3 23.25 L128.35 20.75 134.85 22.95 134.55 23.5 132.35 29.05 134.7 29.9 134.65 32.5 128.35 30.3 130.55 24.7 130.8 24.05 128.3 23.25 M121.75 14.55 L121.95 13.95 121.75 13.4 121.15 13.15 Q120.8 13.15 120.6 13.4 120.35 13.6 120.35 13.95 L120.6 14.55 121.15 14.75 121.75 14.55 M117.4 20.8 Q117.3 22.55 115.95 23.55 114.35 24.6 112.4 23.9 L112.4 24.6 112.35 26.85 109.6 26.45 109.85 16.25 112.2 16.4 Q117.4 15.9 117.4 20.8 M118.05 27.75 L118.25 18.6 120.8 19.35 120.6 28.25 118.05 27.75 M114.5 20.4 L114.35 19.35 112.55 18.9 112.5 19.55 112.5 20.85 114.5 20.4 M136.2 19.9 L136.6 19.0 136.65 19.05 137.65 19.55 Q138.75 19.9 137.6 19.15 136.6 18.6 136.15 17.6 136.0 16.85 136.85 16.6 139.3 16.0 139.9 17.9 L139.75 18.65 138.0 17.75 139.7 19.15 140.15 20.45 Q138.85 21.75 137.0 20.45 L136.2 19.9 M141.35 30.6 Q141.6 28.5 139.55 27.75 L138.7 27.9 138.25 29.4 Q138.65 30.85 139.85 31.35 141.05 31.85 141.35 30.6 M135.5 28.35 Q135.55 27.65 135.75 27.05 137.1 23.15 140.7 25.5 L141.5 26.15 141.5 25.55 144.4 26.7 144.2 36.15 141.35 35.05 141.2 34.5 141.05 34.65 140.65 34.7 Q135.95 33.45 135.5 28.35" fill="#e21d1d" fill-rule="evenodd" stroke="none"/>
    <path d="M113.45 15.2 L115.2 15.3 115.2 15.75 113.45 15.2 M115.5 14.5 L117.45 14.05 117.85 13.75 117.5 14.45 115.5 14.5 M116.5 12.55 L116.45 12.75 115.25 12.55 Q115.6 11.45 116.5 12.55 M125.45 16.1 L128.2 15.05 127.7 16.2 125.45 16.1 M134.3 15.9 L134.4 16.6 Q134.5 17.15 134.75 17.4 L135.25 17.35 135.6 16.1 135.25 17.8 Q135.0 18.15 134.75 17.9 134.5 17.6 134.4 16.85 L134.3 15.9 M128.65 15.75 Q129.7 18.35 132.0 18.6 L133.65 19.2 132.0 18.85 131.6 19.0 Q128.9 18.55 128.65 15.75 M131.6 15.8 L131.15 15.65 130.65 15.85 130.3 16.25 Q130.2 15.25 131.2 15.5 L131.55 15.65 131.6 15.8 M125.5 14.3 Q125.85 13.2 126.5 14.5 L126.5 14.65 125.5 14.3 M121.4 21.55 L123.8 22.05 123.55 22.7 121.4 22.25 121.4 21.55 M121.45 28.45 L127.4 30.0 127.4 30.65 121.2 29.0 121.45 28.45 M130.55 24.7 L128.25 24.0 128.3 23.25 130.8 24.05 130.55 24.7 M134.65 32.5 L134.65 33.15 128.1 30.9 128.35 30.3 134.65 32.5 M117.4 20.8 Q117.5 22.6 116.45 23.9 114.95 25.65 112.4 24.6 L112.4 23.9 Q114.35 24.6 115.95 23.55 117.3 22.55 117.4 20.8 M112.35 26.85 L112.3 27.4 109.55 27.0 109.6 26.45 112.35 26.85 M118.05 27.75 L120.6 28.25 120.55 28.85 118.0 28.35 118.05 27.75 M114.5 20.4 L112.5 19.55 112.55 18.9 114.35 19.35 114.5 20.4 M136.2 19.9 L137.0 20.45 Q138.85 21.75 140.15 20.45 L139.95 21.3 139.7 21.5 Q137.05 21.85 136.2 19.9 M139.7 19.15 L138.0 17.75 139.75 18.65 139.9 17.9 139.7 19.15 M136.15 17.6 Q136.6 18.6 137.6 19.15 138.75 19.9 137.65 19.55 L136.65 19.05 136.6 19.0 Q136.15 18.4 136.15 17.6 M141.35 30.6 L139.55 28.5 138.25 29.4 138.7 27.9 139.55 27.75 Q141.6 28.5 141.35 30.6 M135.5 28.35 Q135.95 33.45 140.65 34.7 L141.05 34.65 141.2 34.5 141.35 35.05 144.2 36.15 144.2 36.8 141.35 35.65 141.2 35.3 141.0 35.3 Q140.8 35.3 140.65 35.15 135.45 33.85 135.5 28.35" fill="#781010" fill-rule="evenodd" stroke="none"/>
    <path d="M120.75 11.95 L120.3 12.0 Q118.85 12.45 118.8 13.95 118.8 14.9 120.2 15.6 121.55 16.3 123.5 16.3 L123.6 12.25 122.05 12.35 121.2 11.9 120.75 11.95 M117.85 13.75 Q118.35 13.35 118.35 12.85 118.35 10.95 116.6 10.6 L113.55 10.6 113.45 15.2 115.2 15.75 115.2 15.3 115.2 14.5 115.5 14.5 117.5 14.45 117.85 13.75 M125.2 8.85 Q129.25 9.7 133.1 11.45 136.8 13.25 140.1 15.7 147.6 21.35 153.45 28.85 L153.4 31.4 153.05 33.7 152.35 36.05 Q151.6 38.15 150.1 39.85 145.6 38.05 141.05 36.4 134.1 33.9 126.85 31.95 114.45 28.7 101.9 27.0 L101.3 22.7 102.9 15.85 Q106.15 13.55 109.6 11.5 116.85 7.4 125.2 8.85 M128.2 15.05 Q128.25 13.5 126.65 13.0 L124.0 12.3 123.9 16.35 125.45 16.7 125.45 16.1 127.7 16.2 128.2 15.05 M135.6 16.1 L134.2 15.05 134.3 15.65 134.3 15.8 134.3 15.9 134.4 16.85 Q134.5 17.6 134.75 17.9 135.0 18.15 135.25 17.8 L135.6 16.1 M133.65 19.2 L133.8 14.9 132.15 14.7 131.75 14.3 Q130.35 13.5 129.1 14.45 L128.65 15.75 Q128.9 18.55 131.6 19.0 L132.0 18.85 133.65 19.2 M130.3 16.25 L130.65 15.85 131.15 15.65 131.6 15.8 131.65 15.85 132.0 16.25 132.0 16.8 130.3 16.25 M127.4 30.0 L127.45 27.45 125.25 26.8 127.35 21.15 127.6 20.55 121.45 19.1 121.4 21.55 121.4 22.25 123.55 22.7 121.45 28.45 121.2 29.0 127.4 30.65 127.4 30.0 M128.3 23.25 L128.25 24.0 130.55 24.7 128.35 30.3 128.1 30.9 134.65 33.15 134.65 32.5 134.7 29.9 132.35 29.05 134.55 23.5 134.85 22.95 128.35 20.75 128.3 23.25 M121.75 14.55 L121.15 14.75 120.6 14.55 120.35 13.95 Q120.35 13.6 120.6 13.4 120.8 13.15 121.15 13.15 L121.75 13.4 121.95 13.95 121.75 14.55 M112.4 24.6 Q114.95 25.65 116.45 23.9 117.5 22.6 117.4 20.8 117.4 15.9 112.2 16.4 L109.85 16.25 109.6 26.45 109.55 27.0 112.3 27.4 112.35 26.85 112.4 24.6 M120.6 28.25 L120.8 19.35 118.25 18.6 118.05 27.75 118.0 28.35 120.55 28.85 120.6 28.25 M112.5 19.55 L114.5 20.4 112.5 20.85 112.5 19.55 M136.65 19.05 L136.6 19.0 136.2 19.9 Q137.05 21.85 139.7 21.5 L139.95 21.3 140.15 20.45 139.7 19.15 139.9 17.9 Q139.3 16.0 136.85 16.6 136.0 16.85 136.15 17.6 136.15 18.4 136.6 19.0 L136.65 19.05 M138.25 29.4 L139.55 28.5 141.35 30.6 Q141.05 31.85 139.85 31.35 138.65 30.85 138.25 29.4 M144.2 36.15 L144.4 26.7 141.5 25.55 141.5 26.15 140.7 25.5 Q137.1 23.15 135.75 27.05 135.55 27.65 135.5 28.35 135.45 33.85 140.65 35.15 140.8 35.3 141.0 35.3 L141.2 35.3 141.35 35.65 144.2 36.8 144.2 36.15" fill="#dcd5b8" fill-rule="evenodd" stroke="none"/>
    <path d="M100.55 22.2 L102.1 14.75 Q111.8 7.6 123.65 8.15 127.25 8.45 130.8 9.65 141.25 13.05 150.15 19.5 154.55 22.7 157.8 27.2 162.25 31.9 161.1 38.25 L160.75 40.25 150.9 41.8 Q127.3 30.95 101.4 27.65 L100.7 24.6 100.55 22.45 100.55 22.2 M125.2 8.85 Q116.85 7.4 109.6 11.5 106.15 13.55 102.9 15.85 L101.3 22.7 101.9 27.0 Q114.45 28.7 126.85 31.95 134.1 33.9 141.05 36.4 145.6 38.05 150.1 39.85 151.6 38.15 152.35 36.05 L153.05 33.7 153.4 31.4 153.45 28.85 Q147.6 21.35 140.1 15.7 136.8 13.25 133.1 11.45 129.25 9.7 125.2 8.85 M156.55 28.85 L154.2 29.15 Q154.65 35.55 151.55 40.95 L160.15 39.75 Q161.7 34.85 159.0 30.85 L158.0 29.55 159.2 30.45 Q154.1 22.05 145.75 17.15 141.45 14.5 136.7 12.6 146.8 19.1 153.9 28.45 L156.55 28.85" fill="#938466" fill-rule="evenodd" stroke="none"/>
    <path d="M156.55 28.85 L153.9 28.45 Q146.8 19.1 136.7 12.6 141.45 14.5 145.75 17.15 154.1 22.05 159.2 30.45 L158.0 29.55 156.55 28.85" fill="#f1efe4" fill-rule="evenodd" stroke="none"/>
    <path d="M158.0 29.55 L159.0 30.85 Q161.7 34.85 160.15 39.75 L151.55 40.95 Q154.65 35.55 154.2 29.15 L156.55 28.85 158.0 29.55" fill="#b4a989" fill-rule="evenodd" stroke="none"/>
    <path d="M167.0 61.65 L170.8 57.55 Q176.35 51.65 182.25 46.35 189.35 39.9 197.05 34.4 L198.85 34.7 Q199.8 35.0 200.5 35.8 201.65 36.95 202.2 38.3 L203.35 41.15 Q204.45 44.25 205.0 47.5 L206.1 54.05 Q207.4 62.5 208.0 71.2 L164.55 112.8 164.5 106.85 Q164.4 97.55 164.85 88.15 165.5 74.75 167.0 61.65" fill="url(#gradient0)" fill-rule="evenodd" stroke="none"/>
    <path d="M2.7 154.25 Q2.9 148.55 7.5 146.0 9.25 146.2 10.1 147.75 13.95 154.8 11.85 162.55 L10.05 162.95 Q5.4 163.0 2.75 159.1 L2.7 154.25 M33.4 202.9 Q34.6 204.6 34.5 206.75 L33.9 207.35 30.15 205.75 30.15 200.75 31.2 201.2 Q32.5 201.7 33.4 202.9 M32.75 203.75 L31.65 202.75 31.65 205.45 32.85 205.85 33.15 204.85 32.75 203.75 M48.15 218.6 L47.95 218.5 47.0 217.65 47.35 217.5 47.55 217.4 47.05 216.95 48.15 217.4 48.15 218.6 M46.6 217.75 L46.1 217.45 46.1 215.65 46.6 215.9 46.6 217.75 M45.75 217.3 L45.25 217.0 45.25 215.15 45.75 215.45 45.75 217.3 M44.95 216.8 L44.4 216.5 44.4 215.2 44.95 215.5 44.95 216.8 M43.75 216.15 L43.25 215.85 42.7 214.25 43.25 214.55 43.5 215.55 43.75 214.85 44.25 215.1 43.75 216.15 M40.9 214.55 L40.4 214.3 40.4 212.95 40.9 213.25 40.9 214.55 M40.1 214.1 L39.4 213.75 38.8 213.35 38.7 212.0 39.2 212.3 39.35 213.35 39.55 212.5 40.1 212.8 40.1 214.1 M38.05 213.0 L37.35 212.6 37.2 211.35 38.15 211.85 38.05 213.0 M36.8 212.3 L35.4 211.5 35.4 209.65 35.95 209.95 35.95 211.35 36.8 212.3 M36.95 208.25 L35.0 207.2 35.0 206.1 36.95 207.2 36.95 208.25 M40.35 207.9 L39.1 206.75 39.1 207.7 40.35 207.9 M39.1 209.65 L40.5 210.2 39.1 208.65 39.1 209.65 M43.25 208.7 Q48.1 209.25 47.2 213.75 L46.95 214.55 Q43.25 214.55 42.95 210.65 42.9 209.65 43.25 208.7 M41.45 207.4 L41.65 211.75 37.6 209.9 37.6 204.9 41.45 207.4 M44.4 210.55 Q44.1 211.0 44.1 211.65 44.1 212.3 44.4 212.75 L45.1 213.2 Q45.5 213.2 45.8 212.75 L46.1 211.65 45.8 210.55 Q45.5 210.1 45.1 210.1 44.7 210.1 44.4 210.55 M51.5 212.65 L53.15 213.55 51.3 215.45 51.3 217.55 49.8 216.7 47.9 210.65 49.6 211.6 50.55 213.8 51.5 212.65 M37.9 212.5 L37.9 211.8 37.5 211.8 37.5 212.5 37.9 212.5 M41.15 214.5 L41.15 213.45 42.6 214.25 42.6 215.3 41.15 214.5 M44.95 215.15 L44.4 215.05 44.95 215.0 44.95 215.15 M95.2 186.75 L98.55 189.1 Q102.9 197.3 100.5 206.65 97.65 207.55 94.7 206.7 90.8 205.5 89.2 201.9 88.95 197.1 90.1 192.45 91.2 188.0 95.2 186.75" fill="#8c062f" fill-rule="evenodd" stroke="none"/>
    <path d="M48.8 117.2 Q47.2 115.8 46.35 113.7 44.55 109.25 46.3 104.6 L56.8 77.1 Q57.4 75.45 58.45 73.8 60.8 69.95 65.15 69.55 67.5 69.35 69.8 70.25 L77.0 73.1 Q86.1 77.05 95.45 79.9 L108.7 83.55 122.55 86.9 124.1 87.25 Q128.7 88.7 131.05 92.65 133.7 97.15 132.15 102.15 127.25 117.7 122.7 133.3 121.55 137.25 118.45 139.85 114.95 142.65 110.65 141.55 101.15 139.0 91.55 135.8 L77.95 130.85 65.25 125.65 Q59.15 122.9 53.4 119.8 50.75 118.8 48.8 117.2" fill="url(#gradient1)" fill-rule="evenodd" stroke="none"/>
    <path d="M33.25 210.3 L28.75 207.8 28.75 205.75 33.25 208.25 33.25 210.3" fill="#006633" fill-rule="evenodd" stroke="none"/>
    <path d="M10.85 165.05 L8.1 168.0 Q4.05 167.25 3.35 162.6 5.1 164.05 7.25 164.55 L10.85 165.05 M2.15 198.65 L4.5 193.15 5.0 194.7 Q5.4 195.6 6.15 196.2 13.2 202.3 20.65 207.6 L36.15 217.75 48.15 224.65 Q72.55 237.8 99.1 245.75 100.25 246.0 101.4 245.75 105.5 245.3 107.2 241.25 L108.45 241.85 Q111.15 243.15 110.95 246.2 108.05 249.6 103.75 250.5 L101.35 250.55 Q94.7 250.0 88.2 247.7 80.65 245.1 73.25 242.15 66.6 239.55 60.1 236.65 53.75 233.85 47.6 230.7 41.15 227.35 34.95 223.55 28.85 219.9 23.1 215.85 17.5 211.85 12.25 207.5 L2.15 198.65 M99.55 208.95 L99.25 209.6 Q98.5 211.5 97.05 212.6 95.4 213.8 93.85 212.65 90.55 210.1 89.85 206.1 93.95 209.95 99.55 208.95" fill="#999999" fill-rule="evenodd" stroke="none"/>
    <path d="M112.85 244.05 Q113.35 249.25 109.8 253.3 106.7 256.85 102.55 258.9 99.4 260.5 96.3 259.2 87.5 255.7 78.9 251.9 L63.55 244.65 49.5 237.5 36.15 229.7 19.55 218.95 Q11.6 213.55 4.1 207.7 2.5 206.45 1.4 204.65 -0.6 201.4 0.25 197.55 1.35 192.65 5.15 189.6 L6.75 189.2 Q7.3 189.75 7.0 190.45 5.55 193.9 8.45 196.0 15.8 202.05 23.8 207.25 31.65 212.4 39.65 217.4 47.75 222.4 56.1 226.55 64.35 230.75 73.2 234.4 81.9 238.1 90.85 241.15 L96.85 243.1 98.7 243.7 Q103.9 244.75 105.85 239.6 L106.05 239.35 Q108.0 238.8 109.95 240.4 L110.65 240.85 112.05 242.3 112.85 244.05 M110.95 246.2 Q111.15 243.15 108.45 241.85 L107.2 241.25 Q105.5 245.3 101.4 245.75 100.25 246.0 99.1 245.75 72.55 237.8 48.15 224.65 L36.15 217.75 20.65 207.6 Q13.2 202.3 6.15 196.2 5.4 195.6 5.0 194.7 L4.5 193.15 2.15 198.65 Q1.45 201.9 3.65 204.45 L5.35 206.0 Q12.7 211.95 20.5 217.2 L36.8 227.85 Q41.05 230.55 45.45 233.0 52.2 236.75 59.05 240.3 66.1 243.8 73.25 247.15 81.95 251.2 91.0 254.85 94.6 256.3 98.4 257.3 L100.75 257.2 Q108.55 254.2 110.95 246.2" fill="#272727" fill-rule="evenodd" stroke="none"/>
    <path d="M2.15 198.65 L12.25 207.5 Q17.5 211.85 23.1 215.85 28.85 219.9 34.95 223.55 41.15 227.35 47.6 230.7 53.75 233.85 60.1 236.65 66.6 239.55 73.25 242.15 80.65 245.1 88.2 247.7 94.7 250.0 101.35 250.55 L103.75 250.5 Q108.05 249.6 110.95 246.2 108.55 254.2 100.75 257.2 L98.4 257.3 Q94.6 256.3 91.0 254.85 81.95 251.2 73.25 247.15 66.1 243.8 59.05 240.3 52.2 236.75 45.45 233.0 41.05 230.55 36.8 227.85 L20.5 217.2 Q12.7 211.95 5.35 206.0 L3.65 204.45 Q1.45 201.9 2.15 198.65" fill="#6b6b6b" fill-rule="evenodd" stroke="none"/>
    <path d="M163.9 65.15 L163.3 70.6 Q160.95 93.85 160.35 117.1 L130.95 148.15 145.55 97.1 146.65 93.6 Q149.35 84.75 154.3 76.9 L163.9 65.15" fill="url(#gradient2)" fill-rule="evenodd" stroke="none"/>
  </g>
  <defs>
    <linearGradient gradientTransform="matrix(0.0133, 0.023, -0.0415, 0.024, 186.2, 73.55)" gradientUnits="userSpaceOnUse" id="gradient0" spreadMethod="pad" x1="-819.2" x2="819.2">
      <stop offset="0.0" stop-color="#c0b7a5"/>
      <stop offset="1.0" stop-color="#98cdbc"/>
    </linearGradient>
    <linearGradient gradientTransform="matrix(0.0142, 0.0247, -0.0388, 0.0224, 88.9, 105.65)" gradientUnits="userSpaceOnUse" id="gradient1" spreadMethod="pad" x1="-819.2" x2="819.2">
      <stop offset="0.0" stop-color="#c0b7a5"/>
      <stop offset="1.0" stop-color="#98cdbc"/>
    </linearGradient>
    <linearGradient gradientTransform="matrix(0.0142, 0.0143, -0.0359, 0.0357, 147.4, 106.65)" gradientUnits="userSpaceOnUse" id="gradient2" spreadMethod="pad" x1="-819.2" x2="819.2">
      <stop offset="0.0" stop-color="#c0b7a5"/>
      <stop offset="1.0" stop-color="#98cdbc"/>
    </linearGradient>
  </defs>
</svg>
