<?xml version="1.0" encoding="UTF-8" standalone="no"?>
<svg xmlns:ffdec="https://www.free-decompiler.com/flash" xmlns:xlink="http://www.w3.org/1999/xlink" ffdec:objectType="shape" height="476.95px" width="515.95px" xmlns="http://www.w3.org/2000/svg">
  <g transform="matrix(1.0, 0.0, 0.0, 1.0, 30.0, 23.0)">
    <path d="M485.95 393.95 L-30.0 393.95 -30.0 -23.0 485.95 -23.0 485.95 393.95" fill="#c8f5ee" fill-rule="evenodd" stroke="none"/>
    <path d="M407.95 227.0 L407.95 402.95 94.0 453.95 94.0 278.0 407.95 227.0" fill="#9c948b" fill-rule="evenodd" stroke="none"/>
    <path d="M341.9 221.9 L341.65 253.7 Q341.6 256.65 339.5 258.45 337.4 260.2 334.5 259.8 L334.45 259.8 332.4 259.25 331.05 258.45 Q330.15 257.8 329.35 256.95 327.3 254.5 327.3 251.6 L327.5 228.8 253.85 240.25 253.85 260.3 253.8 261.1 Q253.55 263.5 251.75 265.05 L249.7 266.25 246.7 266.45 Q243.75 266.0 241.65 263.65 239.55 261.25 239.55 258.3 L239.55 242.45 147.05 256.8 147.05 273.8 Q147.0 276.75 144.95 278.55 L143.1 279.65 139.9 279.95 Q136.9 279.5 134.85 277.1 132.75 274.7 132.75 271.75 L132.75 259.05 21.75 276.25 Q18.9 276.7 16.3 274.95 13.7 273.15 12.85 270.2 11.95 267.25 13.4 264.85 14.8 262.4 17.65 261.95 L132.75 244.05 132.75 209.4 21.75 226.65 Q18.9 227.1 16.3 225.3 13.7 223.5 12.85 220.6 11.95 217.65 13.4 215.25 14.8 212.8 17.65 212.35 L342.5 161.85 341.9 220.65 341.9 221.9 M328.0 179.05 L253.85 190.6 253.85 225.25 327.65 213.8 328.0 179.05 M147.05 241.85 L239.55 227.5 239.55 192.8 147.05 207.15 147.05 241.85" fill="#5b7641" fill-rule="evenodd" stroke="none"/>
  </g>
</svg>
