<?xml version="1.0" encoding="UTF-8" standalone="no"?>
<svg xmlns:ffdec="https://www.free-decompiler.com/flash" xmlns:xlink="http://www.w3.org/1999/xlink" ffdec:objectType="shape" height="157.0px" width="609.95px" xmlns="http://www.w3.org/2000/svg">
  <g transform="matrix(1.0, 0.0, 0.0, 1.0, 0.0, 0.0)">
    <path d="M349.95 51.3 L349.9 51.1 426.1 36.15 447.9 46.75 390.65 48.95 349.95 51.3 M500.75 21.45 L572.75 7.3 609.95 21.2 609.95 31.0 557.05 43.55 569.35 48.35 541.9 47.1 557.05 43.55 500.75 21.45 M0.0 156.85 L0.0 119.9 92.45 101.7 95.7 111.9 Q47.2 130.2 2.0 155.75 L0.0 156.85" fill="#48732f" fill-rule="evenodd" stroke="none"/>
    <path d="M609.95 51.25 L609.95 64.25 569.35 48.35 609.95 51.25 M609.95 84.5 L609.95 125.8 558.0 100.45 609.95 84.5 M539.35 157.0 L397.7 157.0 390.55 151.9 480.6 124.25 539.35 157.0 M373.85 157.0 L248.0 157.0 219.6 123.2 318.05 99.95 390.55 151.9 373.85 157.0 M109.95 157.0 L76.5 157.0 107.65 149.65 109.95 157.0 M176.35 85.25 L185.55 83.45 186.0 83.2 219.6 123.2 107.65 149.65 95.7 111.9 103.15 109.1 Q139.3 95.75 176.35 85.25 M265.45 62.35 L343.1 48.7 347.7 51.2 347.75 51.2 347.75 51.25 347.85 51.3 348.3 51.4 348.5 51.4 348.55 51.4 349.65 51.15 349.95 51.3 401.7 80.2 479.05 61.95 447.9 46.75 Q475.1 46.15 502.3 46.3 522.1 46.4 541.9 47.1 L479.05 61.95 558.0 100.45 480.6 124.25 401.7 80.2 318.05 99.95 265.45 62.35" fill="#649e41" fill-rule="evenodd" stroke="none"/>
    <path d="M609.95 64.25 L609.95 84.5 558.0 100.45 479.05 61.95 541.9 47.1 569.35 48.35 609.95 64.25 M609.95 125.8 L609.95 157.0 539.35 157.0 480.6 124.25 390.55 151.9 397.7 157.0 373.85 157.0 390.55 151.9 318.05 99.95 219.6 123.2 248.0 157.0 109.95 157.0 107.65 149.65 76.5 157.0 0.0 157.0 0.0 156.85 2.0 155.75 Q47.2 130.2 95.7 111.9 L107.65 149.65 219.6 123.2 186.0 83.2 186.15 83.1 186.35 82.45 186.35 76.2 265.45 62.35 318.05 99.95 401.7 80.2 349.95 51.3 390.65 48.95 447.9 46.75 479.05 61.95 401.7 80.2 480.6 124.25 558.0 100.45 609.95 125.8" fill="#5b913c" fill-rule="evenodd" stroke="none"/>
    <path d="M426.1 36.15 L500.75 21.45 557.05 43.55 541.9 47.1 Q522.1 46.4 502.3 46.3 475.1 46.15 447.9 46.75 L426.1 36.15 M572.75 7.3 L609.95 0.0 609.95 21.2 572.75 7.3 M609.95 31.0 L609.95 51.25 569.35 48.35 557.05 43.55 609.95 31.0 M92.45 101.7 L176.35 85.25 Q139.3 95.75 103.15 109.1 L95.7 111.9 92.45 101.7" fill="#518035" fill-rule="evenodd" stroke="none"/>
  </g>
</svg>
