<?xml version="1.0" encoding="UTF-8" standalone="no"?>
<svg xmlns:ffdec="https://www.free-decompiler.com/flash" xmlns:xlink="http://www.w3.org/1999/xlink" ffdec:objectType="shape" height="344.15px" width="164.95px" xmlns="http://www.w3.org/2000/svg">
  <g transform="matrix(1.0, 0.0, 0.0, 1.0, 1.0, 1.0)">
    <path d="M155.6 16.05 L151.6 301.0 12.65 326.0 Q9.05 269.1 10.05 212.25 11.1 153.5 17.65 95.7 24.6 34.5 80.4 25.05 116.95 18.75 155.6 16.05" fill="#666666" fill-rule="evenodd" stroke="none"/>
    <path d="M161.95 312.85 L0.0 342.15 0.0 6.5 162.95 0.0 161.95 312.85 M155.6 16.05 Q116.95 18.75 80.4 25.05 24.6 34.5 17.65 95.7 11.1 153.5 10.05 212.25 9.05 269.1 12.65 326.0 L151.6 301.0 155.6 16.05" fill="#575757" fill-rule="evenodd" stroke="none"/>
    <path d="M161.95 312.85 L0.0 342.15 0.0 6.5 162.95 0.0 161.95 312.85 Z" fill="none" stroke="#333333" stroke-linecap="round" stroke-linejoin="round" stroke-width="2.0"/>
    <path d="M153.65 189.45 Q149.4 195.8 143.45 195.8 137.45 195.8 133.15 189.45 128.9 183.1 128.95 174.15 128.9 165.2 133.15 158.85 137.45 152.5 143.45 152.5 149.4 152.5 153.65 158.85 157.9 165.2 157.95 174.15 157.9 183.1 153.65 189.45" fill="#575757" fill-rule="evenodd" stroke="none"/>
  </g>
</svg>
