<?xml version="1.0" encoding="UTF-8" standalone="no"?>
<svg xmlns:ffdec="https://www.free-decompiler.com/flash" xmlns:xlink="http://www.w3.org/1999/xlink" ffdec:objectType="shape" height="25.0px" width="25.0px" xmlns="http://www.w3.org/2000/svg">
  <g transform="matrix(1.0, 0.0, 0.0, 1.0, 1.0, 1.0)">
    <path d="M19.6 19.6 Q16.25 23.0 11.5 23.0 6.75 23.0 3.35 19.6 0.0 16.25 0.0 11.5 0.0 6.75 3.35 3.35 6.75 0.0 11.5 0.0 16.25 0.0 19.6 3.35 23.0 6.75 23.0 11.5 23.0 16.25 19.6 19.6 M18.6 15.3 Q20.85 13.05 20.85 9.85 20.85 6.65 18.6 4.4 16.35 2.15 13.15 2.15 9.95 2.15 7.7 4.4 5.45 6.65 5.45 9.85 5.45 13.05 7.7 15.3 9.95 17.55 13.15 17.55 16.35 17.55 18.6 15.3" fill="#999999" fill-rule="evenodd" stroke="none"/>
    <path d="M18.6 15.3 Q16.35 17.55 13.15 17.55 9.95 17.55 7.7 15.3 5.45 13.05 5.45 9.85 5.45 6.65 7.7 4.4 9.95 2.15 13.15 2.15 16.35 2.15 18.6 4.4 20.85 6.65 20.85 9.85 20.85 13.05 18.6 15.3" fill="#cccccc" fill-rule="evenodd" stroke="none"/>
    <path d="M19.6 19.6 Q16.25 23.0 11.5 23.0 6.75 23.0 3.35 19.6 0.0 16.25 0.0 11.5 0.0 6.75 3.35 3.35 6.75 0.0 11.5 0.0 16.25 0.0 19.6 3.35 23.0 6.75 23.0 11.5 23.0 16.25 19.6 19.6 Z" fill="none" stroke="#333333" stroke-linecap="round" stroke-linejoin="round" stroke-width="2.0"/>
  </g>
</svg>
