<?xml version="1.0" encoding="UTF-8" standalone="no"?>
<svg xmlns:ffdec="https://www.free-decompiler.com/flash" xmlns:xlink="http://www.w3.org/1999/xlink" ffdec:objectType="shape" height="428.85px" width="609.95px" xmlns="http://www.w3.org/2000/svg">
  <g transform="matrix(1.0, 0.0, 0.0, 1.0, 0.0, 0.0)">
    <path d="M593.6 89.7 L591.5 81.45 609.95 79.85 609.95 88.25 593.6 89.7 M367.25 100.7 L367.4 109.65 359.3 110.35 359.3 101.4 367.25 100.7 M585.8 64.15 L582.25 55.4 Q568.2 22.85 543.55 0.25 L609.95 0.0 609.95 62.2 585.8 64.15 M155.6 99.0 L157.0 30.0 365.95 25.0 366.9 81.9 359.3 82.5 359.3 32.95 359.15 32.45 358.8 32.1 358.3 31.95 171.35 36.95 Q170.9 36.95 170.65 37.25 170.35 37.55 170.35 37.95 L170.35 97.8 155.6 99.0 M609.95 138.55 L609.95 146.95 598.05 148.2 598.5 139.7 609.95 138.55 M609.95 164.55 L609.95 293.25 359.3 337.7 359.3 192.05 368.75 191.0 368.8 193.2 369.75 192.95 418.5 187.5 Q421.0 187.25 421.0 189.65 L421.0 222.85 Q421.0 225.25 418.5 225.55 L374.5 230.5 Q387.65 269.9 430.15 289.1 490.9 316.5 539.0 271.9 584.35 229.8 595.3 169.3 L595.85 166.1 609.95 164.55 M0.0 405.05 L0.0 390.1 2.0 390.05 7.75 389.75 Q68.95 386.35 109.05 356.4 149.1 326.45 151.8 242.9 L152.7 214.7 170.35 212.75 170.35 374.75 0.0 405.05 M368.45 172.25 L359.3 173.2 359.3 164.2 368.3 163.25 368.45 172.25 M374.0 197.05 L374.0 224.55 Q374.0 226.05 374.85 226.75 375.6 227.45 377.1 227.3 L377.15 227.3 416.15 222.75 Q419.0 222.4 419.0 219.55 L419.0 192.05 Q419.0 190.5 418.2 189.85 417.4 189.05 415.9 189.25 L376.9 193.8 Q374.0 194.1 374.0 197.05 M170.35 117.6 L170.35 127.0 154.95 128.35 155.15 118.9 170.35 117.6 M170.35 183.55 L170.35 193.0 153.25 194.8 153.5 185.25 170.35 183.55" fill="#efe3ba" fill-rule="evenodd" stroke="none"/>
    <path d="M591.5 81.45 L593.6 89.7 367.4 109.65 367.25 100.7 591.5 81.45 M585.8 64.15 L366.9 81.9 365.95 25.0 157.0 30.0 155.6 99.0 0.0 111.6 0.0 2.0 543.55 0.25 Q568.2 22.85 582.25 55.4 L585.8 64.15 M368.3 163.25 L598.5 139.7 598.05 148.2 368.45 172.25 368.3 163.25 M0.0 390.1 L0.0 231.5 152.7 214.7 151.8 242.9 Q149.1 326.45 109.05 356.4 68.95 386.35 7.75 389.75 L2.0 390.05 0.0 390.1 M0.0 210.8 L0.0 201.0 153.5 185.25 153.25 194.8 0.0 210.8 M0.0 142.05 L0.0 132.25 155.15 118.9 154.95 128.35 0.0 142.05 M595.85 166.1 L595.3 169.3 Q584.35 229.8 539.0 271.9 490.9 316.5 430.15 289.1 387.65 269.9 374.5 230.5 L418.5 225.55 Q421.0 225.25 421.0 222.85 L421.0 189.65 Q421.0 187.25 418.5 187.5 L369.75 192.95 368.8 193.2 368.75 191.0 595.85 166.1" fill="#f7f1dd" fill-rule="evenodd" stroke="none"/>
    <path d="M593.6 89.7 L609.95 88.25 609.95 138.55 598.5 139.7 Q599.35 114.3 593.6 89.7 M609.95 79.85 L591.5 81.45 Q589.05 72.75 585.8 64.15 L609.95 62.2 609.95 79.85 M366.9 81.9 L367.25 100.7 359.3 101.4 359.3 82.5 366.9 81.9 M359.3 110.35 L367.4 109.65 368.3 163.25 359.3 164.2 359.3 110.35 M609.95 146.95 L609.95 164.55 595.85 166.1 Q597.35 157.1 598.05 148.2 L609.95 146.95 M368.45 172.25 L368.75 191.0 359.3 192.05 359.3 173.2 368.45 172.25 M170.35 117.6 L155.15 118.9 155.6 99.0 170.35 97.8 170.35 117.6 M154.95 128.35 L170.35 127.0 170.35 183.55 153.5 185.25 154.95 128.35 M170.35 193.0 L170.35 212.75 152.7 214.7 153.25 194.8 170.35 193.0" fill="#a9e184" fill-rule="evenodd" stroke="none"/>
    <path d="M591.5 81.45 L367.25 100.7 366.9 81.9 585.8 64.15 Q589.05 72.75 591.5 81.45 M367.4 109.65 L593.6 89.7 Q599.35 114.3 598.5 139.7 L368.3 163.25 367.4 109.65 M0.0 111.6 L155.6 99.0 155.15 118.9 0.0 132.25 0.0 111.6 M0.0 231.5 L0.0 210.8 153.25 194.8 152.7 214.7 0.0 231.5 M0.0 201.0 L0.0 142.05 154.95 128.35 153.5 185.25 0.0 201.0 M595.85 166.1 L368.75 191.0 368.45 172.25 598.05 148.2 Q597.35 157.1 595.85 166.1" fill="#c2eaa6" fill-rule="evenodd" stroke="none"/>
    <path d="M359.3 101.4 L359.3 110.35 359.3 164.2 359.3 173.2 359.3 192.05 359.3 337.7 609.95 293.25 609.95 295.25 359.3 339.7 359.3 341.2 609.95 296.7 609.95 298.7 358.5 343.35 357.9 343.3 357.5 342.9 357.3 342.35 357.3 34.0 176.35 38.85 176.35 379.55 176.15 380.2 175.55 380.55 0.0 411.55 0.0 409.55 174.35 378.75 174.35 38.9 172.35 38.95 172.35 375.55 172.15 376.2 171.55 376.55 0.0 407.05 0.0 405.05 170.35 374.75 170.35 212.75 170.35 193.0 170.35 183.55 170.35 127.0 170.35 117.6 170.35 97.8 170.35 37.95 Q170.35 37.55 170.65 37.25 170.9 36.95 171.35 36.95 L358.3 31.95 358.8 32.1 359.15 32.45 359.3 32.95 359.3 82.5 359.3 101.4 M609.95 306.95 L609.95 308.95 349.9 360.05 349.65 360.1 348.55 360.35 348.5 360.35 348.3 360.35 347.85 360.25 347.75 360.2 347.75 360.15 347.7 360.15 343.1 357.65 342.3 44.2 186.35 50.4 186.35 391.4 186.15 392.05 186.0 392.15 185.55 392.4 0.0 428.85 0.0 426.8 184.35 390.6 184.35 49.45 Q184.35 49.05 184.65 48.75 184.9 48.45 185.3 48.45 L348.25 41.95 348.8 42.1 349.15 42.45 349.3 42.95 349.3 358.15 609.95 306.95 M347.3 44.0 L344.3 44.15 344.3 356.0 347.3 357.65 347.3 44.0 M263.0 371.65 L267.85 370.8 263.0 371.65" fill="#47331f" fill-rule="evenodd" stroke="none"/>
    <path d="M609.95 295.25 L609.95 296.7 359.3 341.2 359.3 339.7 609.95 295.25 M0.0 409.55 L0.0 407.05 171.55 376.55 172.15 376.2 172.35 375.55 172.35 38.95 174.35 38.9 174.35 378.75 0.0 409.55 M347.3 44.0 L347.3 357.65 344.3 356.0 344.3 44.15 347.3 44.0" fill="#694a2c" fill-rule="evenodd" stroke="none"/>
    <path d="M609.95 298.7 L609.95 306.95 349.3 358.15 349.3 42.95 349.15 42.45 348.8 42.1 348.25 41.95 185.3 48.45 Q184.9 48.45 184.65 48.75 184.35 49.05 184.35 49.45 L184.35 390.6 0.0 426.8 0.0 411.55 175.55 380.55 176.15 380.2 176.35 379.55 176.35 38.85 357.3 34.0 357.3 342.35 357.5 342.9 357.9 343.3 358.5 343.35 609.95 298.7" fill="#865f37" fill-rule="evenodd" stroke="none"/>
    <path d="M417.0 219.45 L417.0 192.05 416.85 191.35 416.15 191.25 377.15 195.8 377.1 195.8 Q376.0 195.9 376.0 197.05 L376.0 198.0 376.0 224.55 Q376.0 225.0 376.15 225.2 L376.9 225.3 415.9 220.75 Q417.0 220.6 417.0 219.55 L417.0 219.45 M374.0 197.05 Q374.0 194.1 376.9 193.8 L415.9 189.25 Q417.4 189.05 418.2 189.85 419.0 190.5 419.0 192.05 L419.0 219.55 Q419.0 222.4 416.15 222.75 L377.15 227.3 377.1 227.3 Q375.6 227.45 374.85 226.75 374.0 226.05 374.0 224.55 L374.0 197.05" fill="#a7875c" fill-rule="evenodd" stroke="none"/>
    <path d="M376.0 198.0 L376.0 197.05 Q376.0 195.9 377.1 195.8 L377.15 195.8 416.15 191.25 416.85 191.35 417.0 192.05 417.0 219.45 Q410.4 218.7 403.6 216.05 L403.6 213.5 403.55 213.25 403.45 213.15 Q403.3 213.0 403.1 213.0 L397.9 213.0 396.3 207.0 399.5 207.0 399.75 207.45 401.75 211.05 401.75 202.5 401.6 201.95 401.2 201.6 400.65 201.5 394.65 202.3 394.0 202.65 393.75 203.3 393.75 211.25 388.75 208.1 388.75 204.0 388.6 203.45 388.2 203.1 387.65 203.0 382.7 203.65 376.0 198.0 M412.25 206.4 L414.25 210.0 414.25 200.75 414.1 200.2 413.7 199.85 413.15 199.75 407.15 200.55 Q406.75 200.6 406.5 200.9 L406.25 201.55 406.25 213.3 406.4 213.85 406.85 214.2 407.4 214.3 408.55 214.15 409.3 215.6 409.4 215.7 409.6 215.85 409.75 215.85 415.35 215.85 415.7 215.7 415.85 215.35 415.85 212.0 415.8 211.75 415.7 211.65 Q415.55 211.5 415.35 211.5 L410.15 211.5 408.55 205.5 411.75 205.5 412.25 206.4" fill="#ffffff" fill-rule="evenodd" stroke="none"/>
    <path d="M382.7 203.65 L387.65 203.0 388.2 203.1 388.6 203.45 388.75 204.0 388.75 208.1 388.75 215.75 388.5 216.4 387.9 216.75 381.9 217.55 381.35 217.45 Q381.05 217.35 380.9 217.1 L380.75 216.55 380.75 204.8 381.0 204.15 Q381.25 203.85 381.65 203.8 L382.7 203.65 M393.75 211.25 L393.75 203.3 394.0 202.65 394.65 202.3 400.65 201.5 401.2 201.6 401.6 201.95 401.75 202.5 401.75 211.05 399.75 207.45 399.75 203.65 395.75 204.2 395.75 206.5 396.0 206.6 396.1 206.65 396.25 206.95 396.3 207.0 397.9 213.0 403.1 213.0 Q403.3 213.0 403.45 213.15 L403.55 213.25 403.6 213.5 403.6 216.05 403.6 216.85 403.45 217.2 403.1 217.35 397.5 217.35 397.35 217.35 397.25 217.3 397.15 217.2 397.05 217.1 396.4 215.85 394.9 216.05 394.35 215.95 393.9 215.6 393.75 215.05 393.75 211.25 M408.55 205.5 L410.15 211.5 415.35 211.5 Q415.55 211.5 415.7 211.65 L415.8 211.75 415.85 212.0 415.85 215.35 415.7 215.7 415.35 215.85 409.75 215.85 409.6 215.85 409.4 215.7 409.3 215.6 408.55 214.15 407.4 214.3 406.85 214.2 406.4 213.85 406.25 213.3 406.25 201.55 406.5 200.9 Q406.75 200.6 407.15 200.55 L413.15 199.75 413.7 199.85 414.1 200.2 414.25 200.75 414.25 210.0 412.25 206.4 412.25 201.9 408.25 202.45 408.25 205.1 408.35 205.15 408.5 205.45 408.55 205.5 M408.5 211.9 L409.25 213.3 409.25 212.05 408.5 209.25 408.5 211.9 M410.25 212.5 L410.25 214.85 414.85 214.85 414.85 212.5 410.25 212.5 M397.0 214.8 L397.0 213.55 396.25 210.75 396.25 213.4 397.0 214.8 M402.6 216.35 L402.6 214.0 398.0 214.0 398.0 216.35 402.6 216.35 M386.75 214.9 L386.75 205.15 382.75 205.7 382.75 215.4 386.75 214.9" fill="#818181" fill-rule="evenodd" stroke="none"/>
    <path d="M399.75 207.45 L399.5 207.0 396.3 207.0 396.25 206.95 396.1 206.65 396.0 206.6 395.75 206.5 395.75 204.2 399.75 203.65 399.75 207.45 M408.55 205.5 L408.5 205.45 408.35 205.15 408.25 205.1 408.25 202.45 412.25 201.9 412.25 206.4 411.75 205.5 408.55 205.5 M386.75 214.9 L382.75 215.4 382.75 205.7 386.75 205.15 386.75 214.9" fill="#d4d4d4" fill-rule="evenodd" stroke="none"/>
    <path d="M417.0 219.45 L417.0 219.55 Q417.0 220.6 415.9 220.75 L376.9 225.3 376.15 225.2 Q376.0 225.0 376.0 224.55 L376.0 198.0 382.7 203.65 381.65 203.8 Q381.25 203.85 381.0 204.15 L380.75 204.8 380.75 216.55 380.9 217.1 Q381.05 217.35 381.35 217.45 L381.9 217.55 387.9 216.75 388.5 216.4 388.75 215.75 388.75 208.1 393.75 211.25 393.75 215.05 393.9 215.6 394.35 215.95 394.9 216.05 396.4 215.85 397.05 217.1 397.15 217.2 397.25 217.3 397.35 217.35 397.5 217.35 403.1 217.35 403.45 217.2 403.6 216.85 403.6 216.05 Q410.4 218.7 417.0 219.45 M410.25 212.5 L414.85 212.5 414.85 214.85 410.25 214.85 410.25 212.5 M408.5 211.9 L408.5 209.25 409.25 212.05 409.25 213.3 408.5 211.9 M402.6 216.35 L398.0 216.35 398.0 214.0 402.6 214.0 402.6 216.35 M397.0 214.8 L396.25 213.4 396.25 210.75 397.0 213.55 397.0 214.8" fill="#eaeaea" fill-rule="evenodd" stroke="none"/>
    <path d="M349.9 360.05 L349.95 360.25 349.65 360.1 349.9 360.05" fill="#5b913c" fill-rule="evenodd" stroke="none"/>
  </g>
</svg>
