<?xml version="1.0" encoding="UTF-8" standalone="no"?>
<svg xmlns:ffdec="https://www.free-decompiler.com/flash" xmlns:xlink="http://www.w3.org/1999/xlink" ffdec:objectType="shape" height="176.9px" width="81.45px" xmlns="http://www.w3.org/2000/svg">
  <g transform="matrix(1.0, 0.0, 0.0, 1.0, 26.25, 133.65)">
    <path d="M5.35 -131.8 L5.8 -131.45 6.2 -131.3 7.4 -130.5 7.45 -130.45 12.95 -125.9 21.95 -117.95 22.0 -117.95 27.85 -111.9 32.2 -106.95 37.85 -99.4 Q41.75 -94.05 44.45 -88.1 L47.3 -81.5 49.7 -74.45 51.65 -67.0 51.65 -66.95 53.2 -59.0 54.3 -50.65 54.95 -41.8 55.2 -32.6 54.9 -24.4 54.2 -16.6 53.05 -9.05 53.1 -9.05 Q52.45 -5.5 52.4 -2.0 52.4 0.25 53.1 2.55 L53.1 3.1 52.75 3.5 49.4 5.4 47.35 10.65 Q45.55 15.2 43.25 19.35 L43.25 19.3 Q40.75 24.0 37.55 27.85 L33.25 32.35 33.25 32.4 28.75 36.4 Q25.1 39.15 21.05 40.7 16.8 42.35 12.4 42.9 7.5 43.45 2.65 43.15 L2.6 43.15 -3.9 42.05 Q-6.9 41.4 -9.75 40.3 -12.5 39.2 -14.9 37.6 L-19.35 34.2 Q-23.4 30.55 -25.0 25.1 -26.5 19.95 -26.2 14.6 -25.95 9.55 -24.95 4.6 L-23.3 -4.25 -23.25 -4.35 -23.0 -4.7 -23.05 -4.9 -23.4 -5.15 -23.9 -5.85 -24.1 -6.4 -24.3 -6.95 -24.45 -7.25 -24.5 -8.5 -24.45 -8.85 -24.2 -9.2 -22.15 -10.8 -21.75 -10.95 -21.0 -13.95 -18.45 -24.1 -18.45 -24.15 -16.65 -31.1 -14.3 -40.65 -14.3 -40.7 -12.65 -49.25 -11.8 -54.25 -11.2 -58.8 Q-10.5 -64.0 -10.75 -69.05 L-11.6 -78.9 -11.6 -78.95 -12.65 -86.9 -14.15 -96.15 -15.65 -104.9 -17.25 -114.25 -17.2 -114.2 Q-18.25 -119.35 -17.3 -124.55 L-17.25 -124.55 Q-16.7 -127.45 -15.0 -129.8 L-15.0 -129.85 Q-13.6 -131.8 -11.35 -132.6 L-11.3 -132.6 Q-8.15 -133.7 -4.75 -133.65 0.4 -133.55 5.35 -131.8 M-22.7 -8.25 L-22.85 -8.15 -22.35 -6.55 -22.4 -6.45 -22.15 -6.15 -21.95 -5.8 -21.7 -5.6 -20.25 -4.15 -20.2 -4.15 Q-18.2 -2.25 -15.95 -0.65 L-13.9 0.7 -13.7 0.85 Q-13.25 1.1 -12.75 1.4 -9.45 3.3 -5.8 4.7 L-5.0 5.0 -5.05 5.0 2.45 7.3 10.0 8.85 9.05 8.85 10.85 9.05 14.25 9.65 14.75 9.75 14.8 9.75 18.05 10.25 26.35 10.5 33.0 10.15 32.95 10.15 36.85 9.2 36.9 9.2 40.5 8.05 Q44.5 6.4 48.2 4.25 L48.35 4.1 50.3 2.15 Q50.75 0.15 50.8 -2.0 50.8 -4.75 51.2 -7.5 L51.6 -12.05 Q52.8 -23.95 52.75 -29.5 52.7 -35.05 52.9 -37.2 53.15 -39.35 52.25 -46.75 L50.8 -58.35 49.95 -64.4 48.4 -71.5 Q47.15 -76.75 45.85 -80.45 L43.05 -87.4 Q40.35 -93.2 36.55 -98.45 L30.95 -105.95 26.7 -110.85 20.85 -116.8 20.9 -116.8 11.9 -124.65 6.45 -129.2 5.35 -129.95 5.05 -130.25 4.8 -130.3 1.45 -131.25 1.1 -131.35 -0.1 -131.55 -1.4 -131.75 -2.0 -131.85 -4.8 -132.0 Q-7.9 -132.1 -10.85 -131.1 L-10.8 -131.1 Q-12.6 -130.45 -13.65 -128.9 L-13.7 -128.85 Q-15.25 -126.8 -15.7 -124.25 -16.6 -119.4 -15.65 -114.55 L-15.65 -114.5 -14.0 -105.2 -12.5 -96.45 -11.0 -87.15 -10.0 -79.15 -9.15 -69.15 Q-8.85 -63.95 -9.55 -58.6 L-10.2 -54.05 -11.0 -48.95 -12.75 -40.35 -15.05 -30.7 -16.75 -23.15 -18.05 -16.45 Q-18.45 -14.8 -17.35 -15.75 L-17.3 -15.8 -17.15 -15.95 -16.75 -16.35 -17.1 -15.9 -18.2 -14.6 -18.15 -14.65 -17.8 -14.65 -18.95 -12.75 -19.0 -12.65 -19.05 -12.6 -19.1 -12.5 -20.35 -10.6 -20.85 -9.9 -21.15 -9.5 -22.7 -8.25 M-22.35 -6.6 L-22.6 -7.5 -22.3 -6.95 -22.35 -6.6 M-3.55 40.5 L0.7 41.25 2.75 41.55 2.8 41.55 12.2 41.3 Q16.4 40.75 20.45 39.2 24.3 37.75 27.75 35.15 L32.15 31.25 32.15 31.2 35.2 28.1 36.3 26.85 Q39.4 23.1 41.85 18.55 L41.85 18.5 41.95 18.4 40.35 19.9 40.3 19.95 Q37.75 21.9 34.45 21.8 L32.85 25.85 32.55 25.8 32.45 25.8 Q34.35 20.3 34.9 13.95 L34.9 13.85 34.95 13.55 Q35.0 13.25 35.3 13.1 L35.9 13.0 36.4 13.35 36.5 13.6 43.55 11.65 44.05 11.7 44.45 12.0 44.55 12.5 44.45 13.35 45.85 10.05 47.2 6.6 41.1 9.55 37.3 10.75 37.35 10.75 34.85 11.4 33.3 11.7 33.25 11.75 26.3 12.1 24.15 12.05 17.9 11.85 17.85 11.85 11.5 10.75 9.8 10.6 2.0 8.85 -5.5 6.5 -5.55 6.5 Q-9.75 4.95 -13.55 2.8 -17.8 0.4 -21.35 -2.95 L-21.3 -2.95 -21.8 -3.45 -22.1 -1.95 -23.35 4.9 -23.4 4.95 Q-24.35 9.75 -24.6 14.7 -24.85 19.8 -23.45 24.65 -22.55 27.65 -20.9 30.05 L-18.25 33.05 Q-16.3 34.8 -14.0 36.3 -11.7 37.75 -9.15 38.75 L-7.15 39.55 -3.55 40.5 M-9.0 6.65 L-8.8 6.7 -3.05 8.85 0.9 10.2 0.95 10.2 4.8 11.4 5.3 11.75 5.35 12.4 5.35 12.45 5.2 13.15 4.95 14.3 12.8 14.05 12.95 13.35 13.25 12.85 Q13.5 12.7 13.75 12.7 L12.0 22.8 12.0 22.9 11.9 23.35 11.75 24.2 11.65 24.2 Q11.35 24.15 11.15 23.9 L11.05 23.4 11.05 23.25 11.2 22.35 3.5 22.35 3.35 22.35 3.2 23.05 2.0 23.6 2.0 23.55 1.6 23.65 Q-5.75 23.1 -12.5 20.3 L-14.0 19.65 -14.15 19.6 -14.05 19.6 -14.2 19.55 -14.8 19.3 -15.05 19.1 Q-15.6 18.6 -15.7 17.9 L-15.85 16.7 -15.85 15.9 -16.05 15.8 -16.1 15.8 -21.1 12.9 -21.15 12.9 -21.85 12.5 -21.85 14.3 -22.4 14.2 -22.75 13.7 -22.75 13.65 -22.9 11.05 Q-23.15 7.75 -22.25 5.05 L-21.65 3.1 -21.35 2.65 -20.9 2.5 -20.4 2.65 -17.8 4.65 Q-15.95 6.0 -13.45 6.75 L-13.35 6.65 -13.4 6.3 -13.05 5.8 Q-12.8 5.55 -12.45 5.6 L-10.5 6.1 -10.4 6.1 -9.0 6.65 M16.45 13.1 L16.45 13.0 16.8 12.95 16.85 12.95 17.2 13.2 17.3 13.3 17.45 13.9 17.35 14.6 25.3 14.15 28.2 14.0 28.25 14.0 31.85 13.8 33.35 12.95 33.45 13.15 33.55 13.75 33.3 14.65 33.25 14.7 33.25 14.8 33.25 14.9 Q32.3 20.7 29.4 24.95 L29.1 24.65 Q28.9 24.35 29.0 24.0 L29.65 21.8 29.6 21.8 25.45 22.05 16.0 22.65 16.0 22.85 15.95 22.85 15.9 23.3 15.9 23.35 15.9 23.4 15.6 25.2 15.25 25.7 14.65 25.85 14.4 25.75 16.45 13.1 M-10.9 7.65 L-11.0 7.6 -12.0 7.35 -12.0 7.45 -14.0 14.95 -14.2 15.3 -14.2 15.65 -14.25 16.0 -14.3 16.25 -14.15 17.5 -14.15 17.55 Q-14.05 17.95 -13.55 18.1 L-13.45 18.15 -12.2 18.7 -12.1 18.75 Q-5.55 21.5 1.7 22.05 L1.8 22.05 3.65 12.8 3.7 12.75 2.5 12.4 2.3 12.35 2.1 12.3 0.4 11.7 0.45 11.7 -10.9 7.65 M-15.0 12.5 L-14.0 8.6 -14.1 8.55 Q-16.7 7.45 -18.75 5.95 L-20.45 4.7 -20.75 5.55 -20.7 5.55 Q-21.25 7.15 -21.3 8.75 L-21.35 8.75 -21.35 10.25 -21.3 10.75 -21.3 10.95 -15.5 14.3 -15.0 12.5 M-12.65 17.0 L-12.5 16.15 -11.65 12.85 -11.25 11.95 -10.7 11.4 -10.4 11.05 -9.8 10.95 1.05 13.8 1.15 13.85 1.25 13.9 1.45 14.0 2.15 14.6 2.3 15.25 1.85 17.5 1.85 17.4 1.4 19.55 1.35 19.2 1.35 19.55 1.0 20.1 0.85 20.2 0.45 20.2 0.15 20.15 -8.95 18.6 -9.35 18.5 -9.45 18.45 -11.55 18.1 -11.5 18.15 -11.9 18.05 -12.45 17.7 -12.5 17.6 -12.65 17.35 -12.7 17.5 -12.65 17.0 M0.35 16.9 L0.65 15.35 0.6 15.35 -9.8 12.6 -9.85 12.75 -10.15 13.45 -10.65 15.3 -10.85 16.4 -10.85 16.55 -10.85 16.6 0.0 18.5 0.35 16.9 M41.2 16.75 L41.25 16.75 41.45 16.4 Q42.35 15.05 42.75 13.55 L36.2 15.35 36.15 15.4 35.55 17.55 35.3 18.55 35.2 18.85 34.85 20.2 Q37.35 20.15 39.3 18.7 L39.35 18.65 41.2 16.75 M16.7 18.65 L16.3 21.0 29.5 20.2 30.05 20.4 Q30.9 19.6 31.3 18.6 31.75 17.2 31.4 15.45 L17.25 16.2 17.1 16.2 16.7 18.65 M11.95 18.5 L12.5 15.7 4.85 15.9 4.65 15.9 4.1 18.55 3.7 20.75 11.5 20.75 11.95 18.5" fill="#3e0000" fill-rule="evenodd" stroke="none"/>
    <path d="M-22.7 -8.25 L-21.15 -9.5 -20.85 -9.9 -20.35 -10.6 Q-20.3 -10.2 -19.8 -10.1 -19.3 -10.0 -18.65 -10.45 L-18.0 -10.95 Q-16.05 -10.95 -8.3 -6.05 L-7.8 -6.1 -7.75 -6.5 -13.65 -10.8 Q-15.0 -11.85 -17.1 -15.9 L-16.75 -16.35 -17.15 -15.95 -17.25 -16.15 -17.65 -15.55 -17.35 -15.75 Q-18.45 -14.8 -18.05 -16.45 L-16.75 -23.15 -15.05 -30.7 -12.75 -40.35 -11.0 -48.95 -10.2 -54.05 -9.55 -58.6 Q-8.85 -63.95 -9.15 -69.15 L-10.0 -79.15 -11.0 -87.15 -12.5 -96.45 -14.0 -105.2 -15.65 -114.5 -15.65 -114.55 Q-16.6 -119.4 -15.7 -124.25 -15.25 -126.8 -13.7 -128.85 L-13.65 -128.9 Q-12.6 -130.45 -10.8 -131.1 L-10.85 -131.1 Q-7.9 -132.1 -4.8 -132.0 L-2.0 -131.85 Q3.7 -127.0 7.8 -120.95 10.3 -117.3 14.8 -108.25 22.75 -92.45 25.4 -82.3 30.5 -62.9 31.9 -56.5 35.0 -41.75 35.0 -30.5 35.0 -22.55 32.5 -16.2 29.9 -9.85 29.9 -8.55 29.9 -6.1 32.05 -3.9 34.2 -1.85 34.2 0.05 34.2 2.05 32.2 3.85 L23.0 7.35 20.3 7.5 22.6 7.5 22.3 7.6 16.5 8.45 13.45 7.9 5.25 6.9 Q0.3 6.2 -8.3 2.2 -14.35 -0.75 -22.25 -8.6 L-22.7 -8.25 M14.4 -1.95 L14.25 -2.3 Q9.05 -3.9 -2.95 -11.35 -4.7 -12.4 -13.15 -21.1 L-13.65 -21.0 -13.65 -20.7 Q-13.65 -17.85 -4.0 -10.0 6.45 -1.5 13.3 -1.5 13.95 -1.5 14.4 -1.95 M32.0 4.05 L31.05 4.75 Q28.95 6.15 26.05 6.85 26.0 6.55 32.0 4.05" fill="#cc0000" fill-rule="evenodd" stroke="none"/>
    <path d="M-22.1 -1.95 L-21.3 -1.2 Q-17.4 2.45 -12.5 5.0 L-9.0 6.65 -10.4 6.1 -10.5 6.1 -12.45 5.6 Q-12.8 5.55 -13.05 5.8 L-13.4 6.3 -13.35 6.65 -13.45 6.75 Q-15.95 6.0 -17.8 4.65 L-20.4 2.65 -20.9 2.5 -21.35 2.65 -21.65 3.1 -22.25 5.05 Q-23.15 7.75 -22.9 11.05 L-22.75 13.65 -22.75 13.7 -22.4 14.2 -21.85 14.3 -21.85 12.5 -21.15 12.9 -21.25 12.9 -21.6 13.2 -15.85 16.7 -15.7 17.9 Q-15.6 18.6 -15.05 19.1 -14.8 20.75 -9.95 22.75 -5.15 24.7 -1.95 24.7 L3.3 24.35 Q3.9 24.1 4.05 23.2 L11.05 23.4 11.15 23.9 Q11.35 24.15 11.65 24.2 L11.75 24.2 11.9 23.35 12.3 23.0 12.0 22.8 13.75 12.7 Q13.5 12.7 13.25 12.85 L12.95 13.35 12.8 14.05 4.95 14.3 5.2 13.15 5.35 12.45 5.35 12.4 5.3 11.75 4.8 11.4 0.95 10.2 0.9 10.2 -3.05 8.85 Q5.15 11.45 16.45 13.1 L14.4 25.75 14.65 25.85 15.25 25.7 15.6 25.2 15.9 23.4 Q16.05 23.7 16.65 23.7 L25.15 22.95 25.4 22.1 25.1 22.1 20.65 22.35 17.85 22.65 16.0 22.85 16.0 22.65 25.45 22.05 Q24.85 24.35 23.85 26.1 19.95 32.85 1.1 36.4 -9.35 36.5 -18.15 31.2 L-21.6 28.95 -20.9 30.05 Q-22.55 27.65 -23.45 24.65 -24.85 19.8 -24.6 14.7 -24.35 9.75 -23.4 4.95 L-23.35 4.9 -22.1 -1.95 M17.2 13.2 L25.3 14.15 17.35 14.6 17.45 13.9 17.3 13.3 17.2 13.2 M-7.15 39.55 L-3.5 40.15 -3.55 40.5 -7.15 39.55 M-16.05 15.8 L-15.85 15.9 -15.9 15.9 -16.05 15.8 M-14.0 19.65 L-12.5 20.3 -12.5 20.45 Q-13.0 20.4 -13.65 19.85 L-14.0 19.65 M-12.0 7.45 L-12.0 7.35 -11.0 7.6 -10.9 7.65 -12.0 7.45 M-10.3 21.9 L-10.45 21.8 Q-9.9 21.65 -9.5 22.2 L-10.3 21.9" fill="#2c57b1" fill-rule="evenodd" stroke="none"/>
    <path d="M-21.3 8.75 Q-21.25 7.15 -20.7 5.55 L-20.75 5.55 -20.45 4.7 -18.75 5.95 Q-16.7 7.45 -14.1 8.55 L-14.0 8.6 -15.0 12.5 -17.95 10.55 Q-19.95 9.3 -21.3 8.75 M-10.65 15.3 L-10.15 13.45 -9.85 12.75 -9.8 12.6 0.6 15.35 0.65 15.35 0.35 16.9 Q-6.85 15.35 -10.65 15.3 M41.25 16.75 L41.2 16.75 41.0 16.8 41.2 16.75 41.25 16.75 M35.2 18.85 L35.3 18.55 36.2 18.5 36.05 18.55 35.2 18.85 M35.55 17.55 L36.15 15.4 36.2 15.35 42.75 13.55 Q42.35 15.05 41.45 16.4 L41.25 16.2 35.55 17.55 M16.7 18.65 L17.1 16.2 17.25 16.2 31.4 15.45 Q31.75 17.2 31.3 18.6 L24.7 18.25 16.7 18.65 M11.95 18.5 L8.75 18.5 9.25 18.5 Q5.65 18.4 4.1 18.55 L4.65 15.9 4.85 15.9 12.5 15.7 11.95 18.5 M17.1 19.75 L17.2 19.7 17.7 19.6 17.75 19.6 17.1 19.75" fill="#660000" fill-rule="evenodd" stroke="none"/>
    <path d="M-10.9 7.65 L0.45 11.7 0.4 11.7 2.1 12.3 2.2 13.45 2.15 14.6 1.45 14.0 1.25 13.9 1.15 13.85 1.05 13.8 -9.8 10.95 -10.4 11.05 -10.7 11.4 -11.25 11.95 -11.65 12.85 -12.5 16.15 -12.65 17.0 -14.25 16.0 -14.2 15.65 -14.2 15.3 -14.0 14.95 -12.0 7.45 -10.9 7.65 M-9.35 18.5 L-8.95 18.6 -8.95 18.65 -9.35 18.5 M1.35 19.55 L1.35 19.2 1.4 19.55 1.35 19.55" fill="#cc9900" fill-rule="evenodd" stroke="none"/>
    <path d="M-2.0 -131.85 L-1.4 -131.75 -0.1 -131.55 1.1 -131.35 1.45 -131.25 4.8 -130.3 5.05 -130.25 5.35 -129.95 6.45 -129.2 11.9 -124.65 20.9 -116.8 20.85 -116.8 26.7 -110.85 30.95 -105.95 36.55 -98.45 Q40.35 -93.2 43.05 -87.4 L45.85 -80.45 Q47.15 -76.75 48.4 -71.5 L49.95 -64.4 50.8 -58.35 52.25 -46.75 Q53.15 -39.35 52.9 -37.2 52.7 -35.05 52.75 -29.5 52.8 -23.95 51.6 -12.05 L51.2 -7.5 Q50.8 -4.75 50.8 -2.0 50.75 0.15 50.3 2.15 L48.35 4.1 48.2 4.25 Q44.5 6.4 40.5 8.05 L36.9 9.2 36.85 9.2 32.95 10.15 33.0 10.15 26.35 10.5 18.05 10.25 14.8 9.75 14.75 9.75 14.25 9.65 10.85 9.05 9.05 8.85 10.0 8.85 2.45 7.3 -5.05 5.0 -5.0 5.0 -5.8 4.7 Q-9.45 3.3 -12.75 1.4 -13.25 1.1 -13.7 0.85 L-13.9 0.7 -15.95 -0.65 Q-18.2 -2.25 -20.2 -4.15 L-20.25 -4.15 -21.7 -5.6 -21.95 -5.8 -22.15 -6.15 -22.4 -6.45 -22.35 -6.55 -22.85 -8.15 -22.7 -8.25 -22.25 -8.6 Q-14.35 -0.75 -8.3 2.2 0.3 6.2 5.25 6.9 L13.45 7.9 16.5 8.45 22.3 7.6 22.6 7.5 20.3 7.5 23.0 7.35 32.2 3.85 Q34.2 2.05 34.2 0.05 34.2 -1.85 32.05 -3.9 29.9 -6.1 29.9 -8.55 29.9 -9.85 32.5 -16.2 35.0 -22.55 35.0 -30.5 35.0 -41.75 31.9 -56.5 30.5 -62.9 25.4 -82.3 22.75 -92.45 14.8 -108.25 10.3 -117.3 7.8 -120.95 3.7 -127.0 -2.0 -131.85 M-20.35 -10.6 L-19.1 -12.5 -19.05 -12.6 -19.0 -12.65 -18.95 -12.75 -17.8 -14.65 -18.15 -14.65 -18.2 -14.6 -17.1 -15.9 Q-15.0 -11.85 -13.65 -10.8 L-7.75 -6.5 -7.8 -6.1 -8.3 -6.05 Q-16.05 -10.95 -18.0 -10.95 L-18.65 -10.45 Q-19.3 -10.0 -19.8 -10.1 -20.3 -10.2 -20.35 -10.6 M-17.15 -15.95 L-17.3 -15.8 -17.35 -15.75 -17.65 -15.55 -17.25 -16.15 -17.15 -15.95 M14.4 -1.95 Q13.95 -1.5 13.3 -1.5 6.45 -1.5 -4.0 -10.0 -13.65 -17.85 -13.65 -20.7 L-13.65 -21.0 -13.15 -21.1 Q-4.7 -12.4 -2.95 -11.35 9.05 -3.9 14.25 -2.3 L14.4 -1.95 M-22.35 -6.6 L-22.3 -6.95 -22.6 -7.5 -22.35 -6.6 M32.0 4.05 Q26.0 6.55 26.05 6.85 28.95 6.15 31.05 4.75 L32.0 4.05" fill="#aa0000" fill-rule="evenodd" stroke="none"/>
    <path d="M-15.0 12.5 L-15.5 14.3 -21.3 10.95 -21.3 10.75 -21.35 10.25 -21.35 8.75 -21.3 8.75 Q-19.95 9.3 -17.95 10.55 L-15.0 12.5 M0.35 16.9 L0.0 18.5 -10.85 16.6 -10.85 16.55 -10.85 16.4 -10.65 15.3 Q-6.85 15.35 0.35 16.9 M41.2 16.75 L39.35 18.65 39.3 18.7 Q37.35 20.15 34.85 20.2 L35.2 18.85 36.05 18.55 36.2 18.5 35.3 18.55 35.55 17.55 41.25 16.2 41.45 16.4 41.25 16.75 41.2 16.75 41.0 16.8 41.2 16.75 M31.3 18.6 Q30.9 19.6 30.05 20.4 L29.5 20.2 16.3 21.0 16.7 18.65 24.7 18.25 31.3 18.6 M4.1 18.55 Q5.65 18.4 9.25 18.5 L8.75 18.5 11.95 18.5 11.5 20.75 3.7 20.75 4.1 18.55 M17.1 19.75 L17.75 19.6 17.7 19.6 17.2 19.7 17.1 19.75" fill="#530000" fill-rule="evenodd" stroke="none"/>
    <path d="M2.1 12.3 L2.3 12.35 2.5 12.4 3.7 12.75 3.65 12.8 1.8 22.05 1.7 22.05 Q-5.55 21.5 -12.1 18.75 L-12.2 18.7 -13.45 18.15 -13.55 18.1 Q-14.05 17.95 -14.15 17.55 L-14.15 17.5 -14.3 16.25 -14.25 16.0 -12.65 17.0 -12.7 17.5 -12.65 17.35 -12.5 17.6 -12.45 17.7 -11.9 18.05 -11.5 18.15 -11.55 18.1 -9.45 18.45 -9.35 18.5 -8.95 18.65 -8.95 18.6 0.15 20.15 0.45 20.2 0.85 20.2 1.0 20.1 1.35 19.55 1.4 19.55 1.85 17.4 1.85 17.5 2.3 15.25 2.15 14.6 2.2 13.45 2.1 12.3" fill="#996600" fill-rule="evenodd" stroke="none"/>
    <path d="M-22.1 -1.95 L-21.8 -3.45 -21.3 -2.95 -21.35 -2.95 Q-17.8 0.4 -13.55 2.8 -9.75 4.95 -5.55 6.5 L-5.5 6.5 2.0 8.85 9.8 10.6 11.5 10.75 17.85 11.85 17.9 11.85 24.15 12.05 26.3 12.1 33.25 11.75 33.3 11.7 34.85 11.4 37.35 10.75 37.3 10.75 41.1 9.55 47.2 6.6 45.85 10.05 44.45 13.35 44.55 12.5 44.45 12.0 44.05 11.7 43.55 11.65 36.5 13.6 36.4 13.35 35.9 13.0 35.3 13.1 Q35.0 13.25 34.95 13.55 L34.9 13.85 34.9 13.95 Q34.35 20.3 32.45 25.8 L32.55 25.8 32.85 25.85 34.45 21.8 Q37.75 21.9 40.3 19.95 L40.35 19.9 41.95 18.4 41.85 18.5 41.85 18.55 Q39.4 23.1 36.3 26.85 L35.2 28.1 32.15 31.2 32.15 31.25 27.75 35.15 Q24.3 37.75 20.45 39.2 16.4 40.75 12.2 41.3 L2.8 41.55 2.75 41.55 0.7 41.25 -3.55 40.5 -3.5 40.15 -7.15 39.55 -9.15 38.75 Q-11.7 37.75 -14.0 36.3 -16.3 34.8 -18.25 33.05 L-20.9 30.05 -21.6 28.95 -18.15 31.2 Q-9.35 36.5 1.1 36.4 19.95 32.85 23.85 26.1 24.85 24.35 25.45 22.05 L29.6 21.8 29.65 21.8 29.0 24.0 Q28.9 24.35 29.1 24.65 L29.4 24.95 Q32.3 20.7 33.25 14.9 L33.25 14.8 33.25 14.7 33.3 14.65 33.55 13.75 33.45 13.15 33.35 12.95 31.85 13.8 28.25 14.0 28.2 14.0 25.3 14.15 17.2 13.2 16.85 12.95 16.8 12.95 16.45 13.0 16.45 13.1 Q5.15 11.45 -3.05 8.85 L-8.8 6.7 -9.0 6.65 -12.5 5.0 Q-17.4 2.45 -21.3 -1.2 L-22.1 -1.95 M-21.15 12.9 L-21.1 12.9 -16.1 15.8 -16.05 15.8 -15.9 15.9 -15.85 15.9 -15.85 16.7 -21.6 13.2 -21.25 12.9 -21.15 12.9 M-15.05 19.1 L-14.8 19.3 -14.2 19.55 -14.05 19.6 -14.15 19.6 -14.0 19.65 -13.65 19.85 Q-13.0 20.4 -12.5 20.45 L-12.5 20.3 Q-5.75 23.1 1.6 23.65 L2.0 23.55 2.0 23.6 3.2 23.05 3.35 22.35 3.5 22.35 11.2 22.35 11.05 23.25 11.05 23.4 4.05 23.2 Q3.9 24.1 3.3 24.35 L-1.95 24.7 Q-5.15 24.7 -9.95 22.75 -14.8 20.75 -15.05 19.1 M11.9 23.35 L12.0 22.9 12.0 22.8 12.3 23.0 11.9 23.35 M-10.3 21.9 L-9.5 22.2 Q-9.9 21.65 -10.45 21.8 L-10.3 21.9 M16.0 22.85 L17.85 22.65 20.65 22.35 25.1 22.1 25.4 22.1 25.15 22.95 16.65 23.7 Q16.05 23.7 15.9 23.4 L15.9 23.35 15.9 23.3 15.95 22.85 16.0 22.85" fill="#23458b" fill-rule="evenodd" stroke="none"/>
    <path d="M-4.15 -100.85 L-4.15 -100.95 -4.15 -101.0 -3.5 -101.15 -3.6 -100.95 -4.15 -100.85 M-7.4 -117.15 L-7.0 -117.4 -6.95 -117.4 -7.4 -117.15 M-5.25 -121.4 L-5.25 -121.9 -4.75 -122.0 -4.7 -121.95 -4.25 -120.65 -5.2 -120.6 -5.25 -120.9 -5.25 -121.4 M0.5 -101.9 L0.4 -101.8 0.3 -101.75 0.15 -101.65 Q-3.0 -101.85 -3.2 -100.95 L-3.5 -101.15 -3.5 -101.2 -3.5 -101.5 Q-3.05 -103.05 -0.75 -103.5 L-3.0 -110.95 Q-5.0 -117.5 -5.0 -118.55 L-4.95 -119.05 -4.85 -118.65 -4.65 -118.0 -2.35 -110.5 0.5 -101.9" fill="#aa0000" fill-rule="evenodd" stroke="none"/>
    <path d="M-6.95 -117.4 Q-6.75 -120.55 -5.25 -121.4 L-5.25 -120.9 -5.2 -120.6 -5.2 -120.5 -4.85 -118.65 -4.95 -119.05 -5.0 -118.55 Q-5.0 -117.5 -3.0 -110.95 L-0.75 -103.5 Q-3.05 -103.05 -3.5 -101.5 -4.5 -111.1 -5.55 -114.9 L-5.85 -115.75 Q-6.4 -117.35 -6.95 -117.4 M0.4 -101.8 L0.25 -101.65 0.15 -101.65 0.3 -101.75 0.4 -101.8" fill="#cc0000" fill-rule="evenodd" stroke="none"/>
    <path d="M1.7 -102.15 L1.7 -102.1 1.75 -102.0 1.75 -101.95 1.75 -101.65 Q1.75 -100.95 0.8 -100.9 L0.7 -100.85 0.6 -100.85 0.4 -100.85 0.25 -101.65 0.4 -101.8 0.5 -101.9 1.7 -102.15" fill="#9b0000" fill-rule="evenodd" stroke="none"/>
    <path d="M0.4 -100.85 Q-1.4 -100.55 -3.75 -99.25 L-4.15 -100.85 -3.6 -100.95 -3.25 -100.9 -3.2 -100.95 Q-3.0 -101.85 0.15 -101.65 L0.25 -101.65 0.4 -100.85 M-4.15 -101.0 L-7.4 -117.15 -6.95 -117.4 Q-6.4 -117.35 -5.85 -115.75 L-5.55 -114.9 Q-4.5 -111.1 -3.5 -101.5 L-3.5 -101.2 -3.5 -101.15 -4.15 -101.0 M-4.25 -120.65 Q1.15 -105.1 1.7 -102.15 L0.5 -101.9 -2.35 -110.5 -4.65 -118.0 -4.85 -118.65 -5.2 -120.5 -5.2 -120.6 -4.25 -120.65" fill="#930000" fill-rule="evenodd" stroke="none"/>
    <path d="M-3.95 -110.3 L-3.75 -111.05 -4.55 -111.9 -4.25 -112.7 Q-3.0 -112.5 -3.0 -111.0 L-3.05 -110.55 -3.95 -110.3 M-3.9 -103.9 L-3.4 -104.55 Q-2.85 -105.1 -2.25 -105.15 -3.15 -105.7 -3.15 -106.25 L-3.0 -106.45 Q-2.6 -106.35 -1.95 -105.75 -1.25 -105.1 -1.25 -104.75 -1.25 -103.75 -3.55 -103.75 L-3.6 -103.75 -3.85 -103.85 -3.9 -103.9" fill="#aa0000" fill-rule="evenodd" stroke="none"/>
    <path d="M-4.25 -112.7 L-4.65 -112.75 Q-4.9 -112.75 -4.9 -111.65 -4.9 -110.3 -4.4 -110.3 L-3.95 -110.3 -3.05 -110.55 -3.0 -111.0 Q-3.0 -112.5 -4.25 -112.7 M-4.65 -113.5 Q-2.3 -113.5 -2.4 -110.95 -2.4 -109.75 -3.9 -109.75 -6.0 -109.75 -5.5 -111.55 -5.5 -113.5 -4.65 -113.5 M-4.1 -106.45 Q-3.4 -107.25 -3.0 -107.25 -1.65 -107.25 -0.65 -104.7 -0.65 -103.15 -3.5 -103.15 -4.3 -103.15 -4.75 -105.25 L-4.1 -106.45 M-3.0 -106.45 L-3.25 -106.5 Q-3.9 -106.5 -4.25 -105.25 -4.25 -104.2 -3.9 -103.9 L-3.85 -103.85 -3.6 -103.75 -3.55 -103.75 Q-1.25 -103.75 -1.25 -104.75 -1.25 -105.1 -1.95 -105.75 -2.6 -106.35 -3.0 -106.45" fill="#930000" fill-rule="evenodd" stroke="none"/>
  </g>
</svg>
