<?xml version="1.0" encoding="UTF-8" standalone="no"?>
<svg xmlns:ffdec="https://www.free-decompiler.com/flash" xmlns:xlink="http://www.w3.org/1999/xlink" ffdec:objectType="shape" height="42.7px" width="29.4px" xmlns="http://www.w3.org/2000/svg">
  <g transform="matrix(1.0, 0.0, 0.0, 1.0, 17.85, 4.25)">
    <path d="M-3.8 30.75 L-2.2 27.65 -2.15 27.65 Q-0.1 25.4 1.45 22.8 L1.55 22.65 Q2.9 20.7 3.6 18.5 L3.6 18.45 3.85 16.55 3.1 10.8 3.05 10.8 3.0 8.85 Q3.2 6.35 3.55 3.9 L4.3 -0.85 4.35 -1.1 4.4 -1.25 4.65 -1.6 5.25 -1.75 5.7 -1.45 5.85 -0.85 5.05 4.15 4.5 8.95 4.5 9.0 4.55 10.55 4.55 10.5 5.35 16.4 Q5.45 17.65 5.0 18.95 L5.05 18.95 4.65 20.65 Q4.3 21.8 4.85 21.9 7.85 22.4 9.75 24.75 L9.75 24.7 Q10.85 26.0 11.3 27.75 L11.3 27.7 Q12.05 30.55 10.4 32.9 8.75 35.2 6.55 36.75 L6.5 36.75 Q5.1 37.65 3.35 38.05 -1.7 39.15 -6.3 37.2 L-6.25 37.2 Q-10.85 35.3 -13.85 31.45 L-13.85 31.5 Q-17.15 27.3 -17.75 22.05 -18.05 19.05 -17.4 16.0 -16.75 12.55 -14.85 9.7 L-14.95 9.6 Q-16.75 7.65 -16.4 5.0 -15.85 0.85 -12.0 -0.45 L-11.65 -0.5 -11.35 -0.4 -8.7 1.3 -6.7 -3.75 -6.3 -4.15 -5.7 -4.2 -5.3 -3.8 -5.25 -3.65 -5.25 -3.55 -5.25 -3.5 -5.3 -3.25 -5.3 -3.2 -5.4 -2.9 -7.6 2.6 -7.7 2.8 -7.75 2.9 -10.5 6.7 -10.55 6.7 -12.8 9.45 Q-15.2 12.5 -15.95 16.3 -16.55 19.1 -16.25 21.85 -15.65 26.7 -12.65 30.55 -9.95 34.1 -5.7 35.8 -1.5 37.55 3.05 36.6 L4.4 36.2 5.7 35.5 6.15 35.15 Q7.85 33.85 9.2 32.0 L9.2 32.05 9.25 32.0 Q10.45 30.25 9.85 28.1 9.45 26.7 8.6 25.7 7.05 23.8 4.6 23.4 3.55 23.2 2.65 23.7 1.05 26.35 -1.1 28.65 L-1.1 28.7 -3.1 30.55 -3.65 30.75 -3.8 30.75 M-12.8 9.45 L-12.8 9.4 -12.8 9.45 M-13.45 2.1 L-13.9 2.6 Q-14.7 3.65 -14.9 5.2 -15.15 7.05 -13.95 8.45 L-12.35 6.5 -12.15 6.3 -12.0 6.1 -11.65 5.7 -11.5 5.5 -9.95 3.6 -11.85 1.1 -12.95 1.7 -13.45 2.1" fill="#5c4730" fill-rule="evenodd" stroke="none"/>
    <path d="M4.4 -1.25 L4.35 -1.1 4.3 -0.85 3.55 3.9 Q3.2 6.35 3.0 8.85 L3.05 10.8 3.1 10.8 3.85 16.55 3.6 18.45 3.6 18.5 Q2.9 20.7 1.55 22.65 L1.45 22.8 Q-0.1 25.4 -2.15 27.65 L-2.2 27.65 -3.8 30.75 -3.85 30.75 -3.6 30.9 -3.65 30.75 -3.1 30.55 -1.1 28.7 -1.1 28.65 Q1.05 26.35 2.65 23.7 3.55 23.2 4.6 23.4 7.05 23.8 8.6 25.7 9.45 26.7 9.85 28.1 10.45 30.25 9.25 32.0 L9.2 32.0 Q7.85 33.85 6.15 35.15 L5.7 35.5 4.4 36.2 Q5.55 34.65 5.55 32.5 5.55 30.5 4.5 30.5 0.8 32.55 -0.1 32.55 -3.2 32.55 -4.45 31.8 -6.9 30.45 -6.9 26.05 -6.9 22.5 -2.5 13.05 1.35 4.75 1.45 -2.3 L2.05 -2.15 2.5 -2.0 4.45 -1.35 4.4 -1.25 M-13.9 2.6 L-13.45 2.1 -12.9 1.7 -12.95 1.7 -11.85 1.1 -9.95 3.6 -11.5 5.5 -11.65 5.7 -12.0 6.1 -12.15 6.3 -12.35 6.5 -12.7 4.8 Q-12.9 2.6 -13.9 2.6" fill="#f1ba87" fill-rule="evenodd" stroke="none"/>
    <path d="M-3.8 30.75 L-3.65 30.75 -3.6 30.9 -3.85 30.75 -3.8 30.75 M4.4 36.2 L3.05 36.6 Q-1.5 37.55 -5.7 35.8 -9.95 34.1 -12.65 30.55 -15.65 26.7 -16.25 21.85 -16.55 19.1 -15.95 16.3 -15.2 12.5 -12.8 9.45 L-10.55 6.7 -10.5 6.7 -7.75 2.9 -7.7 2.8 -7.6 2.6 -5.4 -2.9 -5.25 -2.85 -5.3 -3.2 -5.3 -3.25 -5.25 -3.5 -5.25 -3.55 -5.25 -3.65 -4.9 -3.85 Q-3.4 -3.85 2.05 -2.15 L1.45 -2.3 Q1.35 4.75 -2.5 13.05 -6.9 22.5 -6.9 26.05 -6.9 30.45 -4.45 31.8 -3.2 32.55 -0.1 32.55 0.8 32.55 4.5 30.5 5.55 30.5 5.55 32.5 5.55 34.65 4.4 36.2 M-13.9 2.6 Q-12.9 2.6 -12.7 4.8 L-12.35 6.5 -13.95 8.45 Q-15.15 7.05 -14.9 5.2 -14.7 3.65 -13.9 2.6 M-12.95 1.7 L-12.9 1.7 -13.45 2.1 -12.95 1.7" fill="#ffcc99" fill-rule="evenodd" stroke="none"/>
  </g>
</svg>
