<?xml version="1.0" encoding="UTF-8" standalone="no"?>
<svg xmlns:ffdec="https://www.free-decompiler.com/flash" xmlns:xlink="http://www.w3.org/1999/xlink" ffdec:objectType="shape" height="13.4px" width="20.25px" xmlns="http://www.w3.org/2000/svg">
  <g transform="matrix(1.0, 0.0, 0.0, 1.0, 12.15, 4.65)">
    <path d="M1.35 -3.4 L6.8 0.75 6.85 1.8 Q6.85 4.15 5.7 5.8 4.6 7.45 3.05 7.5 1.45 7.45 0.35 5.8 -0.75 4.15 -0.75 1.8 -0.8 0.45 -0.45 -0.65 L0.35 -2.25 1.15 -3.2 1.35 -3.4 M-5.25 -0.95 Q-4.3 0.5 -4.25 2.55 -4.3 4.6 -5.25 6.05 -6.25 7.5 -7.6 7.5 -8.95 7.5 -9.95 6.05 -10.9 4.6 -10.9 2.55 L-10.85 2.1 -6.35 -2.05 Q-5.75 -1.7 -5.25 -0.95 Z" fill="none" stroke="#000000" stroke-linecap="round" stroke-linejoin="round" stroke-width="2.5"/>
  </g>
</svg>
