<?xml version="1.0" encoding="UTF-8" standalone="no"?>
<svg xmlns:ffdec="https://www.free-decompiler.com/flash" xmlns:xlink="http://www.w3.org/1999/xlink" ffdec:objectType="shape" height="7.85px" width="23.45px" xmlns="http://www.w3.org/2000/svg">
  <g transform="matrix(1.0, 0.0, 0.0, 1.0, 11.05, -0.15)">
    <path d="M10.35 7.25 L5.2 6.65 -1.1 6.0 Q-4.25 6.0 -6.85 7.0 -9.45 8.0 -10.1 8.0 L-10.55 7.9 -10.75 7.4 Q-10.75 6.75 -6.95 5.85 L-6.55 5.75 Q-7.5 4.85 -7.5 2.7 L-10.9 4.0 Q-11.05 4.4 -11.05 3.75 -11.05 3.0 -6.85 2.0 L-7.3 2.1 Q-6.8 1.55 -5.05 1.3 L-0.65 0.85 2.4 0.55 5.25 0.25 7.0 0.15 9.75 0.45 Q12.5 1.15 12.4 4.5 12.4 7.25 10.35 7.25 M11.05 2.6 Q10.35 3.2 8.8 3.2 6.85 3.15 6.25 3.6 5.2 4.3 5.15 5.0 5.1 5.35 4.3 5.35 L4.25 5.4 5.0 5.55 10.9 6.15 Q11.5 6.15 11.5 4.55 11.5 3.35 11.05 2.6 M10.3 1.85 L10.65 2.1 10.35 1.85 9.9 1.6 9.6 1.65 7.05 1.4 Q-3.45 1.4 -6.3 2.75 -5.75 3.85 -5.75 4.65 L-5.75 5.6 -0.6 4.9 2.9 5.2 Q3.0 4.05 4.75 2.9 6.7 1.65 9.25 1.65 L10.3 1.85" fill="#463624" fill-rule="evenodd" stroke="none"/>
    <path d="M10.35 1.85 L10.3 1.85 9.25 1.65 Q6.7 1.65 4.75 2.9 3.0 4.05 2.9 5.2 L-0.6 4.9 -5.75 5.6 -5.75 4.65 Q-5.75 3.85 -6.3 2.75 -3.45 1.4 7.05 1.4 L9.6 1.65 9.9 1.6 10.35 1.85" fill="#57352d" fill-rule="evenodd" stroke="none"/>
    <path d="M11.05 2.6 Q11.5 3.35 11.5 4.55 11.5 6.15 10.9 6.15 L5.0 5.55 4.25 5.4 4.3 5.35 Q5.1 5.35 5.15 5.0 5.2 4.3 6.25 3.6 6.85 3.15 8.8 3.2 10.35 3.2 11.05 2.6" fill="#b45f50" fill-rule="evenodd" stroke="none"/>
  </g>
</svg>
