<?xml version="1.0" encoding="UTF-8" standalone="no"?>
<svg xmlns:ffdec="https://www.free-decompiler.com/flash" xmlns:xlink="http://www.w3.org/1999/xlink" ffdec:objectType="shape" height="122.0px" width="159.95px" xmlns="http://www.w3.org/2000/svg">
  <g transform="matrix(1.0, 0.0, 0.0, 1.0, 146.0, 93.0)">
    <path d="M-124.05 -74.45 Q-103.1 -92.0 -73.5 -92.0 -43.9 -92.0 -22.95 -74.45 -2.0 -56.85 -2.0 -32.0 -2.0 -23.3 -4.55 -15.45 L12.95 2.0 -14.45 2.0 Q-18.15 6.4 -22.95 10.4 -43.9 28.0 -73.5 28.0 -103.1 28.0 -124.05 10.4 -145.0 -7.15 -145.0 -32.0 -145.0 -56.85 -124.05 -74.45" fill="#ffffff" fill-rule="evenodd" stroke="none"/>
    <path d="M-124.05 -74.45 Q-103.1 -92.0 -73.5 -92.0 -43.9 -92.0 -22.95 -74.45 -2.0 -56.85 -2.0 -32.0 -2.0 -23.3 -4.55 -15.45 L12.95 2.0 -14.45 2.0 Q-18.15 6.4 -22.95 10.4 -43.9 28.0 -73.5 28.0 -103.1 28.0 -124.05 10.4 -145.0 -7.15 -145.0 -32.0 -145.0 -56.85 -124.05 -74.45 Z" fill="none" stroke="#333333" stroke-linecap="round" stroke-linejoin="round" stroke-width="2.0"/>
  </g>
</svg>
