<?xml version="1.0" encoding="UTF-8" standalone="no"?>
<svg xmlns:ffdec="https://www.free-decompiler.com/flash" xmlns:xlink="http://www.w3.org/1999/xlink" ffdec:objectType="shape" height="25.9px" width="35.65px" xmlns="http://www.w3.org/2000/svg">
  <g transform="matrix(1.0, 0.0, 0.0, 1.0, 13.8, 12.8)">
    <path d="M-6.05 -3.05 L-4.15 -1.45 Q-2.25 0.35 -1.75 0.35 -0.25 0.35 14.75 -5.25 L16.25 -5.3 Q18.85 -5.3 19.45 -4.65 19.65 -4.45 19.95 -4.35 L18.9 -6.45 Q16.3 -10.75 11.0 -10.75 5.55 -10.75 -2.3 -5.65 L-6.05 -3.05 -6.55 -2.7 -6.05 -3.05 M20.45 -2.8 L20.35 -2.8 Q19.05 -2.8 18.65 -3.4 18.3 -4.0 16.05 -4.0 12.4 -4.0 5.8 -1.25 -0.75 1.5 -1.6 1.5 -3.45 1.5 -6.9 -2.4 L-7.55 -1.85 -10.4 0.75 Q-7.95 2.55 -7.6 5.85 -7.45 7.75 -7.55 11.5 L-1.0 11.75 Q5.45 11.75 10.0 10.65 L10.05 10.65 10.85 10.4 9.95 10.65 9.9 10.4 Q9.9 9.95 10.65 9.55 11.4 9.2 11.4 8.85 L10.0 8.1 Q7.25 10.6 4.75 10.6 0.9 10.6 0.9 7.65 0.9 5.85 2.5 3.6 5.0 0.15 9.75 0.15 14.3 0.15 17.0 2.5 18.8 4.05 19.0 5.4 21.25 2.3 20.6 -1.25 L20.45 -2.75 20.35 -3.25 20.45 -2.8 M21.85 -1.4 Q21.85 3.75 19.75 6.5 14.65 13.1 -1.1 13.1 L-8.95 13.05 Q-9.2 13.0 -9.1 12.8 -8.9 12.4 -9.05 12.1 L-8.9 10.75 -8.8 8.25 Q-8.8 1.75 -11.7 1.75 -12.25 1.75 -13.25 2.6 -13.8 2.4 -13.8 1.8 2.9 -12.8 12.6 -12.8 17.7 -12.8 20.3 -7.25 21.6 -4.45 21.85 -1.4 M15.7 8.35 L18.15 6.4 Q17.8 6.2 17.6 5.7 L16.75 3.95 Q15.0 1.4 9.75 1.4 3.9 1.4 2.35 6.15 L2.0 7.4 Q2.0 9.25 4.15 9.25 7.2 9.25 9.45 7.15 11.0 5.7 11.6 4.0 L12.0 3.85 12.35 4.2 12.05 5.65 11.3 6.85 11.2 6.95 11.35 6.9 11.7 6.9 12.0 6.95 13.65 7.75 13.75 7.9 13.9 8.2 13.9 8.3 14.0 9.0 13.9 9.3 14.1 9.2 15.7 8.35 M12.6 3.55 L12.6 4.9 12.25 5.65 12.25 5.3 12.35 4.25 12.55 4.2 12.6 3.55" fill="#463624" fill-rule="evenodd" stroke="none"/>
    <path d="M10.0 10.65 Q5.45 11.75 -1.0 11.75 L-7.55 11.5 Q-7.45 7.75 -7.6 5.85 -7.95 2.55 -10.4 0.75 L-7.55 -1.85 -6.9 -2.4 Q-3.45 1.5 -1.6 1.5 -0.75 1.5 5.8 -1.25 12.4 -4.0 16.05 -4.0 18.3 -4.0 18.65 -3.4 19.05 -2.8 20.35 -2.8 L20.45 -2.8 20.45 -2.75 20.6 -1.25 Q21.25 2.3 19.0 5.4 18.8 4.05 17.0 2.5 14.3 0.15 9.75 0.15 5.0 0.15 2.5 3.6 0.9 5.85 0.9 7.65 0.9 10.6 4.75 10.6 7.25 10.6 10.0 8.1 L11.4 8.85 Q11.4 9.2 10.65 9.55 9.9 9.95 9.9 10.4 L9.95 10.65 10.0 10.65" fill="#57352d" fill-rule="evenodd" stroke="none"/>
    <path d="M2.35 6.15 Q3.9 1.4 9.75 1.4 15.0 1.4 16.75 3.95 L17.6 5.7 Q17.8 6.2 18.15 6.4 L15.7 8.35 15.75 7.75 Q15.25 3.15 12.1 3.15 L10.4 5.35 Q8.7 7.5 5.75 7.5 3.45 7.5 2.35 6.15 M11.7 6.9 L11.35 6.9 11.3 6.85 12.05 5.65 11.7 6.9" fill="#b45f50" fill-rule="evenodd" stroke="none"/>
    <path d="M-6.05 -3.05 L-2.3 -5.65 Q5.55 -10.75 11.0 -10.75 16.3 -10.75 18.9 -6.45 L19.95 -4.35 Q19.65 -4.45 19.45 -4.65 18.85 -5.3 16.25 -5.3 L14.75 -5.25 Q-0.25 0.35 -1.75 0.35 -2.25 0.35 -4.15 -1.45 L-6.05 -3.05" fill="#e5e5e5" fill-rule="evenodd" stroke="none"/>
    <path d="M2.35 6.15 Q3.45 7.5 5.75 7.5 8.7 7.5 10.4 5.35 L12.1 3.15 Q15.25 3.15 15.75 7.75 L15.7 8.35 14.1 9.2 14.0 9.0 13.9 8.3 13.9 8.2 13.75 7.9 13.65 7.75 12.0 6.95 11.7 6.9 12.05 5.65 12.35 4.2 12.0 3.85 11.6 4.0 Q11.0 5.7 9.45 7.15 7.2 9.25 4.15 9.25 2.0 9.25 2.0 7.4 L2.35 6.15 M12.6 3.55 L12.55 4.2 12.35 4.25 12.25 5.3 12.25 5.65 12.6 4.9 12.6 3.55" fill="#a05345" fill-rule="evenodd" stroke="none"/>
  </g>
</svg>
