<?xml version="1.0" encoding="UTF-8" standalone="no"?>
<svg xmlns:ffdec="https://www.free-decompiler.com/flash" xmlns:xlink="http://www.w3.org/1999/xlink" ffdec:objectType="shape" height="77.8px" width="97.05px" xmlns="http://www.w3.org/2000/svg">
  <g transform="matrix(1.0, 0.0, 0.0, 1.0, 0.0, 0.0)">
    <path d="M96.45 17.25 Q97.45 19.05 96.85 21.2 L96.2 23.05 89.5 40.55 Q88.95 41.95 87.95 42.5 L85.7 42.7 Q84.5 42.35 83.85 41.35 83.25 40.35 83.55 38.9 L86.9 20.45 87.3 18.6 Q87.9 16.35 89.65 15.35 91.4 14.3 93.45 14.9 95.45 15.45 96.45 17.25 M81.25 48.55 L84.15 48.4 Q85.9 48.9 86.6 50.0 87.3 51.15 86.95 52.4 86.6 53.7 85.35 54.35 L82.45 54.45 81.0 53.8 81.0 48.7 81.25 48.55" fill="#333333" fill-rule="evenodd" stroke="none"/>
    <path d="M81.0 53.8 L80.05 52.85 Q79.35 51.7 79.7 50.4 80.0 49.3 81.0 48.7 L81.0 53.8 M45.25 31.8 L44.6 31.75 44.35 31.8 43.7 32.15 41.2 28.45 40.35 27.35 40.25 27.25 39.1 25.8 38.7 23.2 38.65 22.9 38.75 23.15 39.85 25.15 40.1 25.4 40.45 25.65 Q41.45 26.45 46.65 28.4 L47.45 27.95 Q48.55 26.45 48.3 24.75 L48.2 24.2 48.15 23.8 48.05 23.7 47.95 23.5 Q47.3 22.15 45.8 21.35 44.05 20.25 42.25 19.6 L40.4 18.95 40.45 18.85 40.75 18.65 41.7 18.5 41.75 18.5 42.2 18.45 Q46.0 18.2 48.95 15.8 L51.55 13.15 52.35 11.6 52.65 10.35 52.55 8.8 Q52.35 7.85 51.8 6.95 L51.5 6.5 Q50.1 4.55 48.3 3.4 L48.0 3.2 47.5 2.9 45.85 2.2 Q39.4 -0.1 32.85 1.95 28.75 3.1 26.75 6.75 25.95 8.15 25.55 9.75 L25.15 11.65 25.15 11.75 25.25 13.8 Q25.25 13.05 25.55 14.6 26.0 16.75 25.3 15.15 L25.05 14.55 24.7 13.95 Q23.6 13.15 22.6 12.7 21.05 11.95 19.85 11.85 15.15 11.5 13.25 15.25 11.3 18.95 11.15 20.15 L11.05 21.7 11.1 22.1 11.15 22.45 11.5 24.5 Q11.85 26.55 12.55 27.75 L12.75 28.1 12.65 28.1 12.25 28.15 11.5 27.5 Q10.95 26.9 10.7 25.4 L10.25 23.4 Q10.1 22.9 9.25 23.65 L9.15 23.75 6.7 25.1 Q5.05 25.8 3.8 26.85 L3.7 26.95 2.3 28.5 1.95 29.05 1.9 29.15 1.25 30.85 1.1 31.45 Q0.95 32.35 1.05 33.35 1.15 34.1 1.65 34.65 3.65 37.15 6.95 37.05 10.35 37.0 13.4 35.45 L13.7 35.35 14.0 35.55 14.05 35.55 13.55 36.65 13.5 36.85 13.05 37.9 12.95 38.15 12.7 38.95 12.3 40.0 11.75 41.75 Q11.6 42.3 11.6 42.95 L11.65 43.6 Q11.7 44.3 12.15 44.9 L12.15 44.95 Q13.55 47.45 16.2 48.25 L19.2 48.1 19.25 48.05 Q21.45 47.2 22.8 45.3 24.3 43.25 23.65 43.65 L24.05 42.95 Q24.15 38.4 22.25 36.75 L22.25 36.7 22.3 36.75 20.95 34.8 20.8 34.6 21.1 34.7 22.85 35.95 22.9 35.95 Q25.1 37.9 26.6 40.5 L26.6 40.45 28.05 43.6 28.05 43.65 28.0 43.65 Q28.9 46.15 30.05 48.5 L30.05 48.6 30.1 47.6 30.1 48.6 30.1 48.7 30.1 50.5 30.55 49.5 Q32.15 45.8 35.05 43.1 L35.4 42.85 37.35 41.35 37.5 41.25 36.95 42.65 36.85 42.95 35.75 43.85 Q32.6 46.75 31.05 50.85 L30.8 51.5 30.6 52.2 30.5 52.6 Q30.1 53.9 29.95 55.3 29.7 57.25 30.0 59.3 31.1 62.85 32.85 65.7 L32.2 66.65 31.85 67.15 Q29.65 63.55 29.0 59.45 28.55 56.25 29.25 53.2 L29.45 52.0 29.35 51.9 28.85 51.15 28.75 51.0 Q28.25 47.3 27.1 44.0 L27.05 43.95 26.0 41.55 Q25.05 43.9 23.6 45.85 22.1 48.0 19.65 49.0 L19.6 49.0 19.65 49.0 15.9 49.2 Q12.9 48.3 11.3 45.45 L11.3 45.4 Q10.75 44.6 10.65 43.7 10.5 42.55 10.75 41.55 L10.75 41.5 11.65 38.4 12.25 37.05 Q9.7 38.0 7.0 38.05 L6.95 38.05 7.0 38.0 Q3.2 38.15 0.9 35.3 0.2 34.55 0.05 33.5 -0.1 32.35 0.1 31.25 0.7 28.1 3.2 26.1 L3.15 26.1 5.95 24.1 9.4 21.7 9.8 21.65 Q9.95 21.65 10.1 21.8 L10.1 20.05 Q10.35 17.25 11.9 14.8 14.6 10.45 19.9 10.9 L24.2 11.2 24.55 9.5 Q25.0 7.8 25.9 6.25 28.1 2.25 32.55 1.0 39.45 -1.15 46.2 1.25 50.2 2.65 52.65 6.45 53.8 8.3 53.6 10.45 L53.3 11.95 52.35 13.75 52.3 13.8 49.55 16.6 Q47.05 18.6 43.95 19.25 L46.3 20.5 Q48.85 21.8 49.3 24.6 49.6 26.7 48.2 28.55 47.65 29.25 46.8 29.4 L43.1 29.0 45.25 31.8 M60.65 44.1 Q61.25 45.85 62.9 46.9 L64.2 49.25 Q66.2 53.5 65.85 58.15 L65.7 59.25 64.8 58.2 64.85 58.05 Q65.15 53.7 63.3 49.65 62.25 47.4 60.7 45.6 L60.65 45.55 58.05 43.15 56.5 42.1 Q54.15 40.7 51.5 40.0 L51.25 39.95 51.2 39.95 48.65 39.5 47.8 39.45 43.25 39.95 43.55 38.85 47.0 38.5 47.8 38.5 47.95 38.5 44.9 33.9 45.0 33.4 46.1 32.95 50.35 38.5 51.4 38.65 51.6 38.75 52.4 39.2 52.45 39.2 Q55.8 40.25 58.65 42.35 59.75 43.15 60.65 44.1 M62.25 31.75 L62.3 31.75 62.25 31.75 M58.25 31.7 L60.15 31.55 61.6 32.55 61.65 32.55 63.3 34.1 Q64.85 36.0 65.2 38.75 65.5 41.8 64.65 44.85 64.35 45.85 63.35 46.0 61.65 44.95 61.4 42.85 L60.55 36.6 Q60.25 34.75 59.55 33.1 L59.55 33.05 Q59.15 32.2 58.3 31.9 L58.25 31.7 M44.05 33.05 L43.7 34.35 43.45 35.25 43.3 35.7 42.45 39.15 42.15 40.25 41.75 41.9 40.85 44.5 40.8 44.55 40.1 45.6 Q39.55 46.15 38.75 46.1 L37.95 45.6 Q37.3 44.3 37.9 43.0 L38.3 41.95 38.9 40.5 39.15 39.85 39.95 37.95 40.15 37.5 40.4 36.95 Q41.1 35.55 42.1 34.6 L42.55 34.15 43.15 33.65 44.05 33.05 M51.85 61.0 L51.85 61.15 51.85 61.0 M54.6 72.9 L55.85 72.3 56.3 72.7 56.65 73.0 Q52.6 75.2 48.0 75.4 44.7 75.55 41.65 74.55 L45.0 72.6 49.4 73.8 Q51.7 73.7 50.7 74.0 L50.55 74.05 50.5 74.1 50.65 74.1 52.9 73.55 54.6 72.9 M48.6 47.05 Q49.55 46.05 50.7 46.5 53.1 47.4 51.7 52.1 50.75 54.55 48.85 53.85 47.15 53.2 47.25 50.7 L47.75 48.3 Q48.0 47.6 48.6 47.05 M55.85 46.55 Q59.0 47.75 57.2 52.4 L56.65 53.8 Q56.2 54.45 54.85 53.95 52.85 53.2 52.8 50.8 L53.15 48.5 Q54.1 45.9 55.85 46.55 M39.05 58.0 L39.05 57.95 Q40.6 55.9 43.85 55.95 L46.2 56.2 Q51.1 57.1 50.85 61.1 50.65 65.25 47.35 69.1 L46.8 69.7 44.65 71.6 43.75 72.2 Q42.2 73.25 40.55 73.9 L40.2 74.05 Q38.15 74.8 35.95 75.05 L31.4 74.85 Q26.85 73.9 23.8 71.0 L22.8 70.0 21.9 68.9 22.85 69.3 23.05 69.35 26.35 69.85 28.45 69.75 28.5 69.75 30.85 69.25 32.45 68.05 33.1 67.2 33.45 66.65 36.1 62.45 Q37.2 60.55 38.45 58.8 L39.05 58.0 M29.95 51.0 L29.95 50.7 29.8 50.8 29.95 51.0 M63.85 58.65 L64.65 59.5 65.45 60.65 66.15 62.3 Q66.9 65.05 68.55 67.35 69.35 68.4 70.5 68.95 71.7 69.65 73.15 69.95 L76.15 69.75 Q77.9 69.2 79.8 68.85 79.2 70.8 78.1 72.4 L76.9 73.95 76.85 74.0 76.2 74.6 76.15 74.65 Q74.45 76.15 72.15 76.6 L67.4 76.75 Q65.05 76.45 62.35 75.35 59.9 74.3 57.55 72.45 L56.95 71.9 56.75 71.75 55.5 70.5 Q53.7 68.3 53.4 65.75 53.1 63.1 54.1 61.4 55.05 59.6 56.45 58.2 57.7 56.9 59.65 56.95 L59.7 56.95 Q62.05 56.85 63.8 58.6 L63.85 58.65 M55.15 51.7 Q55.8 51.65 56.05 51.0 56.35 50.1 55.4 48.45 L54.9 49.8 Q54.65 50.75 55.15 51.7 M49.05 51.2 L49.8 51.5 50.2 50.75 Q50.75 49.2 49.65 48.65 L49.2 49.55 Q48.85 50.35 49.05 51.2" fill="#333333" fill-rule="evenodd" stroke="none"/>
    <path d="M30.05 48.5 Q28.9 46.15 28.0 43.65 L28.05 43.65 28.05 43.6 26.6 40.45 26.6 40.5 Q25.1 37.9 22.9 35.95 L22.85 35.95 21.1 34.7 20.8 34.6 20.95 34.8 22.3 36.75 22.25 36.7 22.25 36.75 Q24.15 38.4 24.05 42.95 L23.65 43.65 Q24.3 43.25 22.8 45.3 21.45 47.2 19.25 48.05 L19.2 48.1 16.2 48.25 Q13.55 47.45 12.15 44.95 L12.15 44.9 Q11.7 44.3 11.65 43.6 L11.6 42.95 Q11.6 42.3 11.75 41.75 L12.3 40.0 12.7 38.95 12.95 38.15 13.05 37.9 13.5 36.85 13.55 36.65 14.05 35.55 14.0 35.55 13.7 35.35 13.4 35.45 Q10.35 37.0 6.95 37.05 3.65 37.15 1.65 34.65 1.15 34.1 1.05 33.35 0.95 32.35 1.1 31.45 L1.25 30.85 1.9 29.15 1.95 29.05 2.3 28.5 3.7 26.95 3.8 26.85 Q5.05 25.8 6.7 25.1 L9.15 23.75 9.25 23.65 Q10.1 22.9 10.25 23.4 L10.7 25.4 Q10.95 26.9 11.5 27.5 L12.25 28.15 12.65 28.1 12.75 28.1 12.55 27.75 Q11.85 26.55 11.5 24.5 L11.15 22.45 11.1 22.1 11.05 21.7 11.15 20.15 Q11.3 18.95 13.25 15.25 15.15 11.5 19.85 11.85 21.05 11.95 22.6 12.7 23.6 13.15 24.7 13.95 L25.05 14.55 25.3 15.15 Q26.0 16.75 25.55 14.6 25.25 13.05 25.25 13.8 L25.15 11.75 25.15 11.65 25.55 9.75 Q25.95 8.15 26.75 6.75 28.75 3.1 32.85 1.95 39.4 -0.1 45.85 2.2 L47.5 2.9 48.0 3.2 48.3 3.4 Q50.1 4.55 51.5 6.5 L51.8 6.95 Q52.35 7.85 52.55 8.8 L52.65 10.35 52.35 11.6 51.55 13.15 48.95 15.8 Q46.0 18.2 42.2 18.45 L41.75 18.5 41.7 18.5 40.75 18.65 40.45 18.85 40.4 18.95 42.25 19.6 Q44.05 20.25 45.8 21.35 47.3 22.15 47.95 23.5 L48.05 23.7 48.15 23.8 48.2 24.2 48.3 24.75 Q48.55 26.45 47.45 27.95 L46.65 28.4 Q41.45 26.45 40.45 25.65 L40.1 25.4 39.85 25.15 38.75 23.15 38.65 22.9 38.7 23.2 39.1 25.8 40.25 27.25 40.35 27.35 41.2 28.45 43.7 32.15 44.35 31.8 44.6 31.75 45.25 31.8 46.15 31.85 46.2 31.9 46.4 31.95 48.7 33.3 48.9 33.6 48.9 34.0 48.55 34.2 48.2 34.15 46.1 32.95 45.0 33.4 44.9 33.9 47.95 38.5 47.8 38.5 47.0 38.5 44.45 35.35 44.2 36.25 44.7 36.95 44.15 36.45 43.55 38.85 43.25 39.95 47.8 39.45 48.65 39.5 51.2 39.95 51.25 39.95 51.5 40.0 Q54.15 40.7 56.5 42.1 L58.05 43.15 60.65 45.55 Q59.8 44.65 55.3 43.15 L53.4 42.7 52.75 42.6 50.7 42.5 50.55 42.5 50.3 42.55 Q48.4 42.7 46.55 43.55 44.2 44.65 42.7 45.95 L42.1 46.55 42.05 46.6 41.85 46.85 41.2 47.65 40.9 48.15 Q39.35 50.85 38.3 53.85 L38.05 54.8 38.0 55.75 38.05 56.9 38.15 57.5 38.25 57.4 38.3 57.35 38.4 57.25 Q40.15 54.9 43.9 54.95 L46.25 55.2 46.4 55.25 46.5 55.25 Q52.15 56.35 51.85 61.0 L51.85 61.15 51.85 61.25 Q51.65 65.65 48.1 69.75 L48.0 69.85 47.65 70.25 Q49.55 71.3 51.75 72.15 L54.6 72.9 52.9 73.55 50.65 74.1 50.7 74.0 Q51.7 73.7 49.4 73.8 L45.0 72.6 41.65 74.55 41.0 74.85 40.75 74.9 Q38.6 75.75 36.2 76.05 L36.1 76.05 36.0 76.05 31.25 75.85 31.2 75.85 Q26.45 74.85 23.2 71.85 L23.1 71.75 22.05 70.7 21.1 69.45 19.75 67.35 Q19.65 67.2 19.7 67.05 L19.9 66.75 Q20.0 66.6 20.2 66.65 L20.55 66.75 Q21.75 67.8 23.2 68.35 L26.35 68.85 28.4 68.75 28.45 68.75 Q29.65 68.75 30.6 68.25 L31.85 67.15 32.2 66.65 32.85 65.7 Q31.1 62.85 30.0 59.3 29.7 57.25 29.95 55.3 30.1 53.9 30.5 52.6 L30.6 52.2 30.8 51.5 31.05 50.85 Q32.6 46.75 35.75 43.85 L36.85 42.95 36.95 42.65 37.5 41.25 37.35 41.35 35.4 42.85 35.05 43.1 Q32.15 45.8 30.55 49.5 L30.1 50.5 30.1 48.7 30.1 48.6 30.1 47.6 30.05 48.5 M50.45 7.3 Q49.85 6.75 49.15 6.5 39.35 2.85 33.75 7.1 30.95 9.25 30.1 12.05 29.0 15.05 28.85 18.75 28.55 19.4 27.75 19.1 26.55 18.65 26.0 17.15 25.35 16.45 25.15 15.3 L23.2 15.45 Q20.95 15.6 20.35 16.1 18.75 17.2 17.9 19.4 17.1 21.55 18.55 22.75 19.95 24.0 27.5 27.3 27.4 27.45 27.45 27.7 26.9 29.05 24.1 28.4 L23.1 28.65 Q18.1 30.75 16.9 30.7 L11.5 31.1 Q8.1 31.15 5.4 29.3 L5.2 29.95 Q4.95 30.45 3.85 30.55 3.7 31.35 4.2 33.1 L6.0 33.8 Q8.95 34.8 13.65 32.9 L14.65 32.45 14.65 32.35 14.75 32.35 15.25 32.15 15.1 32.4 15.45 32.4 17.2 35.1 Q17.85 34.65 18.25 33.5 18.7 32.0 19.05 31.65 20.45 29.55 26.4 30.9 L28.65 31.65 Q35.45 34.2 38.5 38.8 L39.0 37.6 39.45 36.65 Q34.4 30.55 32.55 29.05 L32.65 28.7 33.1 28.7 Q34.8 29.35 39.75 36.05 L41.35 33.9 Q35.1 28.1 34.4 26.4 L34.55 26.2 34.9 26.35 38.85 30.15 41.9 33.4 Q42.2 33.1 42.55 32.9 L42.15 32.35 Q37.4 25.7 38.3 23.4 L38.5 22.9 39.2 21.8 44.6 24.25 Q45.15 24.5 45.6 24.7 45.75 24.5 46.05 24.5 L47.8 23.95 Q48.1 22.8 46.3 21.9 42.05 19.75 37.85 17.9 36.8 17.4 36.95 17.05 37.25 16.2 39.3 16.1 L43.7 16.15 Q50.05 16.1 51.45 12.45 51.9 11.25 51.1 9.15 L50.45 7.3 M60.65 44.1 L60.4 42.95 59.55 36.75 59.55 36.7 58.7 33.5 58.65 33.5 Q58.4 33.0 57.95 32.85 L56.75 32.65 53.3 35.55 52.95 35.65 52.6 35.45 52.5 35.1 52.65 34.75 56.25 31.85 56.3 31.75 Q58.1 30.1 60.45 30.6 L60.55 30.6 62.25 31.75 Q63.25 32.45 64.05 33.45 65.8 35.6 66.2 38.65 66.55 41.9 65.65 45.1 65.15 46.9 63.25 47.0 L63.0 46.95 62.9 46.9 Q61.25 45.85 60.65 44.1 M58.3 31.9 Q59.15 32.2 59.55 33.05 L59.55 33.1 Q60.25 34.75 60.55 36.6 L61.4 42.85 Q61.65 44.95 63.35 46.0 64.35 45.85 64.65 44.85 65.5 41.8 65.2 38.75 64.85 36.0 63.3 34.1 L61.65 32.55 61.6 32.55 60.15 31.55 58.25 31.7 58.0 31.8 58.3 31.9 M44.05 33.05 L43.15 33.65 42.55 34.15 42.1 34.6 Q41.1 35.55 40.4 36.95 L40.15 37.5 39.95 37.95 39.15 39.85 38.9 40.5 38.3 41.95 37.9 43.0 Q37.3 44.3 37.95 45.6 L38.75 46.1 Q39.55 46.15 40.1 45.6 L40.8 44.55 40.85 44.5 41.75 41.9 42.15 40.25 42.45 39.15 43.3 35.7 43.45 35.25 43.7 34.35 44.05 33.05 M64.8 58.2 L65.7 59.25 Q66.65 60.5 67.1 62.05 67.8 64.6 69.4 66.75 70.0 67.6 70.95 68.05 L73.35 68.95 75.8 68.8 75.85 68.8 79.7 67.85 80.4 67.7 80.75 67.75 80.95 67.95 81.0 68.3 Q80.35 70.95 78.9 73.0 L77.65 74.65 77.6 74.65 76.85 75.35 76.8 75.4 Q74.9 77.05 72.35 77.55 L67.3 77.7 Q64.8 77.45 61.95 76.25 59.25 75.15 56.65 73.0 L56.3 72.7 55.85 72.3 54.75 71.15 Q52.75 68.7 52.4 65.85 L52.35 65.35 52.35 63.6 Q52.5 62.05 53.2 60.9 54.25 59.0 55.75 57.5 57.25 55.9 59.7 56.0 62.45 55.9 64.5 57.9 L64.8 58.2 M39.05 58.0 L38.45 58.8 Q37.2 60.55 36.1 62.45 L33.45 66.65 33.1 67.2 32.45 68.05 30.85 69.25 28.5 69.75 28.45 69.75 26.35 69.85 23.05 69.35 22.85 69.3 21.9 68.9 22.8 70.0 23.8 71.0 Q26.85 73.9 31.4 74.85 L35.95 75.05 Q38.15 74.8 40.2 74.05 L40.55 73.9 Q42.2 73.25 43.75 72.2 L44.65 71.6 46.8 69.7 47.35 69.1 Q50.65 65.25 50.85 61.1 51.1 57.1 46.2 56.2 L43.85 55.95 Q40.6 55.9 39.05 57.95 L39.05 58.0 M63.85 58.65 L63.8 58.6 Q62.05 56.85 59.7 56.95 L59.65 56.95 Q57.7 56.9 56.45 58.2 55.05 59.6 54.1 61.4 53.1 63.1 53.4 65.75 53.7 68.3 55.5 70.5 L56.75 71.75 56.95 71.9 57.55 72.45 Q59.9 74.3 62.35 75.35 65.05 76.45 67.4 76.75 L72.15 76.6 Q74.45 76.15 76.15 74.65 L76.2 74.6 76.85 74.0 76.9 73.95 78.1 72.4 Q79.2 70.8 79.8 68.85 77.9 69.2 76.15 69.75 L73.15 69.95 Q71.7 69.65 70.5 68.95 69.35 68.4 68.55 67.35 66.9 65.05 66.15 62.3 L65.45 60.65 64.65 59.5 63.85 58.65" fill="#cccccc" fill-rule="evenodd" stroke="none"/>
    <path d="M50.45 7.3 L51.1 9.15 Q51.9 11.25 51.45 12.45 50.05 16.1 43.7 16.15 L39.3 16.1 Q37.25 16.2 36.95 17.05 36.8 17.4 37.85 17.9 42.05 19.75 46.3 21.9 48.1 22.8 47.8 23.95 L46.05 24.5 Q45.75 24.5 45.6 24.7 45.15 24.5 44.6 24.25 L39.2 21.8 38.5 22.9 38.3 23.4 Q37.4 25.7 42.15 32.35 L42.55 32.9 Q42.2 33.1 41.9 33.4 L38.85 30.15 34.9 26.35 34.55 26.2 34.4 26.4 Q35.1 28.1 41.35 33.9 L39.75 36.05 Q34.8 29.35 33.1 28.7 L32.65 28.7 32.55 29.05 Q34.4 30.55 39.45 36.65 L39.0 37.6 38.5 38.8 Q35.45 34.2 28.65 31.65 L26.4 30.9 Q20.45 29.55 19.05 31.65 18.7 32.0 18.25 33.5 17.85 34.65 17.2 35.1 L15.45 32.4 15.1 32.4 15.25 32.15 14.75 32.35 14.65 32.35 14.65 32.45 13.65 32.9 Q8.95 34.8 6.0 33.8 L4.2 33.1 Q3.7 31.35 3.85 30.55 4.95 30.45 5.2 29.95 L5.4 29.3 Q8.1 31.15 11.5 31.1 L16.9 30.7 Q18.1 30.75 23.1 28.65 L24.1 28.4 Q26.9 29.05 27.45 27.7 27.4 27.45 27.5 27.3 19.95 24.0 18.55 22.75 17.1 21.55 17.9 19.4 18.75 17.2 20.35 16.1 20.95 15.6 23.2 15.45 L25.15 15.3 Q25.35 16.45 26.0 17.15 26.55 18.65 27.75 19.1 28.55 19.4 28.85 18.75 29.0 15.05 30.1 12.05 30.95 9.25 33.75 7.1 39.35 2.85 49.15 6.5 49.85 6.75 50.45 7.3 M58.25 31.7 L58.3 31.9 58.0 31.8 58.25 31.7 M47.0 38.5 L43.55 38.85 44.15 36.45 44.7 36.95 44.2 36.25 44.45 35.35 47.0 38.5 M60.65 45.55 L60.7 45.6 Q62.25 47.4 63.3 49.65 65.15 53.7 64.85 58.05 L64.8 58.2 64.5 57.9 Q62.45 55.9 59.7 56.0 57.25 55.9 55.75 57.5 54.25 59.0 53.2 60.9 52.5 62.05 52.35 63.6 L52.35 65.35 52.4 65.85 Q52.75 68.7 54.75 71.15 L55.85 72.3 54.6 72.9 51.75 72.15 Q49.55 71.3 47.65 70.25 L48.0 69.85 48.1 69.75 Q51.65 65.65 51.85 61.25 L51.85 61.15 51.85 61.0 Q52.15 56.35 46.5 55.25 L46.4 55.25 46.25 55.2 43.9 54.95 Q40.15 54.9 38.4 57.25 L38.3 57.35 38.25 57.4 38.15 57.5 38.05 56.9 38.0 55.75 38.05 54.8 38.3 53.85 Q39.35 50.85 40.9 48.15 L41.2 47.65 41.85 46.85 42.05 46.6 42.1 46.55 42.7 45.95 Q44.2 44.65 46.55 43.55 48.4 42.7 50.3 42.55 L50.55 42.5 50.7 42.5 52.75 42.6 53.4 42.7 55.3 43.15 Q59.8 44.65 60.65 45.55 M55.85 46.55 Q54.1 45.9 53.15 48.5 L52.8 50.8 Q52.85 53.2 54.85 53.95 56.2 54.45 56.65 53.8 L57.2 52.4 Q59.0 47.75 55.85 46.55 M48.6 47.05 Q48.0 47.6 47.75 48.3 L47.25 50.7 Q47.15 53.2 48.85 53.85 50.75 54.55 51.7 52.1 53.1 47.4 50.7 46.5 49.55 46.05 48.6 47.05 M50.7 74.0 L50.65 74.1 50.5 74.1 50.55 74.05 50.7 74.0 M55.15 51.7 Q54.65 50.75 54.9 49.8 L55.4 48.45 Q56.35 50.1 56.05 51.0 55.8 51.65 55.15 51.7 M49.05 51.2 Q48.85 50.35 49.2 49.55 L49.65 48.65 Q50.75 49.2 50.2 50.75 L49.8 51.5 49.05 51.2" fill="#ffffff" fill-rule="evenodd" stroke="none"/>
  </g>
</svg>
