<?xml version="1.0" encoding="UTF-8" standalone="no"?>
<svg xmlns:ffdec="https://www.free-decompiler.com/flash" xmlns:xlink="http://www.w3.org/1999/xlink" ffdec:objectType="shape" height="16.6px" width="36.9px" xmlns="http://www.w3.org/2000/svg">
  <g transform="matrix(1.0, 0.0, 0.0, 1.0, 18.15, 11.6)">
    <path d="M13.9 -11.4 L13.45 -11.15 Q18.2 -11.1 18.75 -3.9 15.7 5.2 10.7 5.0 5.65 4.75 -0.3 3.5 -6.0 2.3 -9.5 0.65 -14.4 0.45 -16.65 -0.95 L-18.15 -3.55 Q-8.45 -0.25 1.3 -3.55 8.05 -6.0 12.9 -11.4 L13.7 -11.5 Q14.6 -11.4 13.9 -11.4 M16.3 -2.65 L12.75 -2.9 Q11.5 -2.9 10.65 -0.25 9.95 1.8 10.3 3.1 10.6 2.75 12.05 2.75 13.4 2.75 15.15 -0.4 L16.35 -2.65 16.5 -3.05 16.3 -2.65 M16.75 -4.15 Q16.75 -7.1 12.1 -8.1 10.75 -6.15 6.6 -3.3 2.65 -0.65 -2.35 0.25 L1.5 1.15 7.75 2.45 8.9 2.9 Q8.8 2.75 9.05 1.3 9.25 -0.15 10.4 -2.45 11.55 -4.8 13.25 -4.75 L16.25 -4.25 16.75 -4.05 16.75 -4.15" fill="#463624" fill-rule="evenodd" stroke="none"/>
    <path d="M16.35 -2.65 L15.15 -0.4 Q13.4 2.75 12.05 2.75 10.6 2.75 10.3 3.1 9.95 1.8 10.65 -0.25 11.5 -2.9 12.75 -2.9 L16.3 -2.65 16.35 -2.65" fill="#b45f50" fill-rule="evenodd" stroke="none"/>
    <path d="M16.75 -4.05 L16.25 -4.25 13.25 -4.75 Q11.55 -4.8 10.4 -2.45 9.25 -0.15 9.05 1.3 8.8 2.75 8.9 2.9 L7.75 2.45 1.5 1.15 -2.35 0.25 Q2.65 -0.65 6.6 -3.3 10.75 -6.15 12.1 -8.1 16.75 -7.1 16.75 -4.15 L16.75 -4.05" fill="#57352d" fill-rule="evenodd" stroke="none"/>
  </g>
</svg>
