<?xml version="1.0" encoding="UTF-8" standalone="no"?>
<svg xmlns:ffdec="https://www.free-decompiler.com/flash" xmlns:xlink="http://www.w3.org/1999/xlink" ffdec:objectType="shape" height="122.0px" width="145.0px" xmlns="http://www.w3.org/2000/svg">
  <g transform="matrix(1.0, 0.0, 0.0, 1.0, -13.95, 1.0)">
    <path d="M86.45 0.0 Q116.05 0.0 137.0 17.55 157.95 35.15 157.95 60.0 157.95 84.85 137.0 102.4 116.05 120.0 86.45 120.0 56.85 120.0 35.9 102.4 31.1 98.4 27.45 94.0 L17.55 76.55 Q14.95 68.7 14.95 60.0 14.95 35.15 35.9 17.55 56.85 0.0 86.45 0.0" fill="#ffffff" fill-rule="evenodd" stroke="none"/>
    <path d="M86.45 0.0 Q56.85 0.0 35.9 17.55 14.95 35.15 14.95 60.0 14.95 68.7 17.55 76.55 L27.45 94.0 Q31.1 98.4 35.9 102.4 56.85 120.0 86.45 120.0 116.05 120.0 137.0 102.4 157.95 84.85 157.95 60.0 157.95 35.15 137.0 17.55 116.05 0.0 86.45 0.0 Z" fill="none" stroke="#333333" stroke-linecap="round" stroke-linejoin="round" stroke-width="2.0"/>
  </g>
</svg>
