<?xml version="1.0" encoding="UTF-8" standalone="no"?>
<svg xmlns:ffdec="https://www.free-decompiler.com/flash" xmlns:xlink="http://www.w3.org/1999/xlink" ffdec:objectType="shape" height="464.95px" width="605.4px" xmlns="http://www.w3.org/2000/svg">
  <g transform="matrix(1.0, 0.0, 0.0, 1.0, 0.0, 0.0)">
    <path d="M26.95 0.0 L27.3 0.0 Q27.3 15.7 31.5 31.0 37.0 50.95 48.6 68.15 L54.65 76.45 60.35 83.35 60.3 83.5 60.05 83.5 59.95 83.35 54.25 76.45 48.2 68.15 Q36.55 51.0 31.15 31.05 27.0 15.7 26.95 0.0" fill="#ff00ff" fill-rule="evenodd" stroke="none"/>
    <path d="M26.95 0.0 Q27.0 15.7 31.15 31.05 36.55 51.0 48.2 68.15 L3.65 68.15 3.65 0.0 26.95 0.0 M54.25 76.45 L59.95 83.35 3.65 83.35 3.65 76.45 54.25 76.45 M60.35 83.35 L54.65 76.45 605.4 76.45 605.4 83.3 60.35 83.35 M48.6 68.15 Q37.0 50.95 31.5 31.0 27.3 15.7 27.3 0.0 L605.4 0.0 605.4 68.1 48.6 68.15 M604.8 112.25 L595.2 119.1 101.5 119.15 91.95 112.3 604.8 112.25 M582.25 127.45 Q564.75 138.15 546.1 146.9 530.7 154.05 514.85 159.8 498.5 165.65 481.85 170.15 464.5 174.6 446.85 177.6 429.25 180.75 411.4 182.85 L374.1 185.55 Q354.75 186.2 335.45 185.8 L297.6 183.95 Q279.6 182.55 261.6 179.65 242.5 176.55 223.7 172.1 206.8 168.1 190.15 162.45 174.05 157.0 158.4 150.3 143.15 143.55 128.5 135.4 L114.45 127.5 582.25 127.45" fill="#f7f1dd" fill-rule="evenodd" stroke="none"/>
    <path d="M59.95 83.35 L60.05 83.5 60.3 83.5 Q72.8 97.5 87.5 108.85 L91.95 112.3 3.65 112.3 3.65 83.35 59.95 83.35 M605.4 111.75 L605.4 112.25 604.8 112.25 605.4 111.75 M605.4 119.1 L605.4 127.45 582.25 127.45 595.2 119.1 605.4 119.1 M3.65 127.5 L3.65 119.15 101.5 119.15 114.45 127.5 3.65 127.5" fill="#bde4a2" fill-rule="evenodd" stroke="none"/>
    <path d="M605.4 112.25 L605.4 119.1 595.2 119.1 604.8 112.25 605.4 112.25 M605.4 127.45 L605.4 206.8 Q305.2 206.8 5.05 205.8 L3.65 205.6 3.65 127.5 114.45 127.5 128.5 135.4 Q143.15 143.55 158.4 150.3 174.05 157.0 190.15 162.45 206.8 168.1 223.7 172.1 242.5 176.55 261.6 179.65 279.6 182.55 297.6 183.95 L335.45 185.8 Q354.75 186.2 374.1 185.55 L411.4 182.85 Q429.25 180.75 446.85 177.6 464.5 174.6 481.85 170.15 498.5 165.65 514.85 159.8 530.7 154.05 546.1 146.9 564.75 138.15 582.25 127.45 L605.4 127.45 M3.65 119.15 L3.65 112.3 91.95 112.3 101.5 119.15 3.65 119.15" fill="#f1ebd7" fill-rule="evenodd" stroke="none"/>
    <path d="M48.2 68.15 L54.25 76.45 3.65 76.45 3.65 68.15 48.2 68.15 M60.3 83.5 L60.35 83.35 605.4 83.3 605.4 111.75 604.8 112.25 91.95 112.3 87.5 108.85 Q72.8 97.5 60.3 83.5 M54.65 76.45 L48.6 68.15 605.4 68.1 605.4 76.45 54.65 76.45 M595.2 119.1 L582.25 127.45 114.45 127.5 101.5 119.15 595.2 119.1" fill="#c2eaa6" fill-rule="evenodd" stroke="none"/>
    <path d="M605.4 206.8 L605.4 207.15 5.05 207.15 5.05 209.6 605.4 209.55 605.4 209.9 5.05 209.95 5.4 217.05 605.4 216.6 605.4 219.35 569.95 219.35 531.4 219.35 491.35 219.35 452.9 219.35 412.85 219.35 374.45 219.35 334.25 219.35 295.9 219.35 255.75 219.35 217.35 219.35 177.15 219.35 138.85 219.35 98.55 219.35 60.4 219.35 20.0 219.35 5.85 219.3 5.05 218.35 4.55 218.9 Q2.9 220.2 2.3 218.05 L2.3 217.7 2.3 217.5 Q2.35 212.0 2.7 206.5 2.75 205.6 3.65 205.6 L5.05 205.8 Q305.2 206.8 605.4 206.8 M550.55 464.95 L542.6 464.95 543.2 462.3 Q547.4 442.95 549.6 423.35 L549.5 423.35 507.5 420.8 465.4 418.5 438.5 417.35 411.45 416.3 384.25 415.4 356.95 414.65 Q330.05 414.05 303.25 413.75 L248.1 413.4 Q219.05 413.25 190.0 413.65 178.95 425.15 168.6 437.4 157.15 450.85 146.65 464.95 L138.25 464.95 140.7 461.8 Q153.45 445.4 167.05 429.75 175.9 419.45 185.35 409.4 L223.65 409.65 264.0 409.95 304.95 410.6 345.1 411.35 Q365.5 411.75 385.55 412.45 L426.2 413.75 466.5 415.3 507.5 417.15 558.7 419.6 558.5 421.4 Q555.25 443.25 550.55 464.95 M467.3 230.4 Q446.95 230.65 426.7 231.15 L405.8 231.8 365.3 233.5 343.85 234.7 322.15 236.0 322.0 236.05 314.75 244.8 Q308.45 252.65 302.5 260.65 298.2 266.35 294.2 272.3 L290.5 278.05 281.75 292.6 279.75 296.1 279.8 296.3 Q302.0 296.85 323.8 296.7 L369.55 296.3 414.9 295.8 461.1 295.0 483.8 294.45 529.5 293.0 552.6 292.05 574.9 291.05 577.2 284.15 580.65 272.1 583.45 260.1 584.3 255.15 585.55 245.15 585.85 240.1 586.2 231.35 Q566.75 230.65 547.55 230.45 527.45 230.15 507.5 230.2 487.35 230.1 467.3 230.4 M481.65 300.15 L458.75 300.7 Q412.65 301.95 366.3 302.15 L320.0 302.3 269.45 302.0 Q275.3 292.85 281.45 283.8 289.4 272.1 297.65 260.65 308.4 245.75 319.7 232.05 L325.25 231.8 346.4 230.95 367.5 230.15 387.5 229.5 407.45 228.9 Q447.85 227.75 488.15 227.3 L528.95 227.0 592.7 227.15 589.85 250.05 Q588.35 261.15 586.3 272.2 584.0 284.35 580.45 296.35 L565.8 297.05 551.2 297.7 527.9 298.65 504.55 299.4 481.65 300.15" fill="#584432" fill-rule="evenodd" stroke="none"/>
    <path d="M605.4 207.15 L605.4 209.55 5.05 209.6 5.05 207.15 605.4 207.15 M605.4 209.9 L605.4 216.6 5.4 217.05 5.05 209.95 605.4 209.9" fill="#8a6239" fill-rule="evenodd" stroke="none"/>
    <path d="M605.4 240.1 L605.4 242.0 602.35 260.1 591.5 260.1 594.3 240.1 605.4 240.1 M605.4 260.6 L605.4 267.25 601.85 266.05 602.75 260.6 605.4 260.6 M561.05 464.95 L553.2 464.95 555.7 453.8 563.4 453.8 561.05 464.95 M491.35 219.35 L489.25 224.5 450.1 225.1 452.9 219.35 491.35 219.35 M529.8 224.2 L531.4 219.35 569.95 219.35 568.75 224.25 529.8 224.2 M456.25 306.9 L457.6 303.5 503.55 302.2 502.5 305.5 456.25 306.9 M410.75 304.45 L409.05 307.9 362.75 308.45 364.75 304.95 410.75 304.45 M549.7 303.7 L550.5 300.45 582.15 299.0 586.45 284.2 590.4 284.2 586.0 301.95 549.7 303.7 M412.85 219.35 L409.05 226.0 369.3 227.25 374.45 219.35 412.85 219.35 M361.7 404.85 L359.7 408.95 306.5 407.8 308.9 403.6 361.7 404.85 M413.8 410.5 L415.45 406.55 468.6 408.6 467.35 412.5 413.8 410.5 M254.85 402.75 L252.05 407.05 198.85 406.7 202.0 402.35 254.85 402.75 M521.8 414.95 L522.75 411.1 569.8 413.7 568.75 421.4 561.25 421.4 561.15 417.2 521.8 414.95 M98.55 219.35 L74.4 239.45 34.75 239.45 60.4 219.35 98.55 219.35 M20.0 219.35 L0.35 233.7 0.35 218.05 2.3 218.05 Q2.9 220.2 4.55 218.9 L5.05 218.35 5.85 219.3 20.0 219.35 M50.55 260.1 L74.65 240.1 114.6 240.1 91.95 260.1 50.55 260.1 M21.45 284.25 L64.9 284.25 37.6 308.35 0.35 308.35 0.4 301.7 21.45 284.25 M48.6 260.8 L21.15 283.55 0.35 283.55 0.4 266.05 7.2 260.8 48.6 260.8 M190.9 391.05 L157.3 391.1 180.15 362.8 214.05 362.8 190.9 391.05 M235.05 334.55 L202.95 334.55 223.5 309.05 251.95 309.0 235.05 334.55 M267.9 283.65 L243.75 283.7 262.65 260.6 294.1 260.55 277.9 283.65 272.45 283.65 282.0 269.05 267.9 283.65 M310.2 239.4 L279.75 239.45 295.9 219.35 334.25 219.35 327.3 228.9 318.9 229.3 310.2 239.4 M270.15 308.35 L272.75 304.8 318.25 305.05 316.15 308.35 312.9 308.45 270.15 308.35 M170.1 422.05 L144.0 453.1 138.9 453.1 162.85 422.65 134.3 453.1 107.15 453.1 132.2 422.1 170.1 422.05 M0.35 335.25 L7.4 335.25 0.35 341.45 0.35 335.25 M6.9 260.1 L0.35 260.1 0.35 240.1 32.7 240.1 6.9 260.1" fill="#588c39" fill-rule="evenodd" stroke="none"/>
    <path d="M605.4 219.35 L605.4 240.1 594.3 240.1 595.2 224.8 568.75 224.25 569.95 219.35 605.4 219.35 M605.4 242.0 L605.4 260.6 602.75 260.6 601.85 266.05 594.5 263.7 590.4 284.2 586.45 284.2 591.5 260.1 602.35 260.1 605.4 242.0 M135.05 464.95 L130.45 464.95 138.9 453.1 144.0 453.1 135.05 464.95 M124.5 464.95 L96.8 464.95 105.9 453.6 48.7 453.6 38.7 464.95 0.15 464.95 0.15 334.65 0.15 334.5 0.1 224.15 0.15 217.7 2.3 217.7 2.3 218.05 0.35 218.05 0.35 233.7 20.0 219.35 60.4 219.35 34.75 239.45 74.4 239.45 98.55 219.35 138.85 219.35 116.35 239.45 156.15 239.45 177.15 219.35 217.35 219.35 198.0 239.45 237.95 239.45 255.75 219.35 295.9 219.35 279.75 239.45 310.2 239.4 294.1 260.55 262.65 260.6 243.75 283.7 267.9 283.65 251.95 309.0 223.5 309.05 202.95 334.55 235.05 334.55 214.05 362.8 180.15 362.8 157.3 391.1 190.9 391.05 181.15 402.3 202.0 402.35 198.85 406.7 184.2 406.8 170.1 422.05 132.2 422.1 107.15 453.1 134.3 453.1 Q129.05 458.8 124.5 464.95 M489.25 224.5 L491.35 219.35 531.4 219.35 529.8 224.2 489.25 224.5 M452.9 219.35 L450.1 225.1 409.05 226.0 412.85 219.35 452.9 219.35 M457.6 303.5 L456.25 306.9 409.05 307.9 410.75 304.45 457.6 303.5 M502.5 305.5 L503.55 302.2 550.5 300.45 549.7 303.7 502.5 305.5 M374.45 219.35 L369.3 227.25 327.3 228.9 334.25 219.35 374.45 219.35 M364.75 304.95 L362.75 308.45 312.9 308.45 316.15 308.35 318.25 305.05 364.75 304.95 M359.7 408.95 L361.7 404.85 415.45 406.55 413.8 410.5 359.7 408.95 M308.9 403.6 L306.5 407.8 252.05 407.05 254.85 402.75 308.9 403.6 M468.6 408.6 L522.75 411.1 521.8 414.95 467.35 412.5 468.6 408.6 M568.75 421.4 L563.4 453.8 555.7 453.8 561.25 421.4 568.75 421.4 M135.45 260.1 L177.05 260.1 196.35 240.1 156.4 240.1 135.45 260.1 M154.95 283.7 L198.7 283.55 219.1 260.8 177.1 260.8 154.95 283.7 M133.8 260.8 L92.25 260.8 66.65 283.55 110.05 283.55 133.8 260.8 M153.95 284.25 L110.3 284.25 85.0 308.35 130.65 308.35 153.95 284.25 M130.7 309.05 L106.05 334.55 153.8 334.55 176.5 309.05 130.7 309.05 M37.85 309.05 L9.2 334.55 56.65 334.55 83.35 309.05 37.85 309.05 M48.6 260.8 L7.2 260.8 0.4 266.05 0.35 283.55 21.15 283.55 48.6 260.8 M21.45 284.25 L0.4 301.7 0.35 308.35 37.6 308.35 64.9 284.25 21.45 284.25 M50.55 260.1 L91.95 260.1 114.6 240.1 74.65 240.1 50.55 260.1 M51.45 391.1 L103.4 391.1 128.55 362.8 78.75 362.8 51.45 391.1 M130.1 362.15 L179.8 362.15 201.5 335.25 153.85 335.25 130.1 362.15 M103.7 391.75 L77.5 421.4 131.95 421.4 155.85 391.75 103.7 391.75 M278.3 240.1 L238.25 240.1 220.6 260.1 262.15 260.1 278.3 240.1 M272.45 283.65 L277.9 283.65 265.7 303.7 272.75 304.8 270.15 308.35 257.6 308.25 272.45 283.65 M242.85 284.25 L198.95 284.25 177.5 308.35 223.4 308.35 242.85 284.25 M76.4 421.95 L21.45 422.05 0.3 443.7 0.35 453.1 48.55 453.1 76.4 421.95 M49.8 391.75 L0.35 391.75 0.35 421.4 21.1 421.4 49.8 391.75 M6.9 260.1 L32.7 240.1 0.35 240.1 0.35 260.1 6.9 260.1 M0.35 335.25 L0.35 341.45 7.4 335.25 0.35 335.25 M0.35 388.4 L27.1 362.8 0.35 362.8 0.35 388.4" fill="#508035" fill-rule="evenodd" stroke="none"/>
    <path d="M542.05 464.95 L534.15 464.95 Q539.65 446.6 542.95 427.6 L521.35 426.15 520.8 429.75 519.95 426.1 499.85 424.85 479.6 423.7 Q337.55 416.05 195.55 417.2 172.05 438.5 155.4 464.95 L147.25 464.95 Q154.65 454.85 162.6 445.25 175.9 429.0 190.2 413.9 L220.8 413.55 Q241.2 413.45 261.7 413.7 L303.05 414.1 343.35 414.75 384.05 415.75 424.85 417.2 465.25 418.85 517.85 421.7 549.25 423.7 544.6 453.8 542.05 464.95 M429.65 289.35 L429.6 289.75 429.65 288.6 429.65 289.35 M432.1 287.7 L431.25 287.35 Q430.9 287.0 430.9 286.5 430.9 286.0 431.25 285.7 431.6 285.35 432.1 285.35 432.55 285.35 432.9 285.7 433.25 286.0 433.25 286.5 L432.9 287.35 432.1 287.7 M444.3 270.6 Q445.05 269.45 444.2 270.5 L444.3 270.6 M444.9 269.55 L445.05 269.3 Q445.45 270.45 444.55 270.75 443.9 270.3 443.1 271.15 L443.6 270.1 Q444.15 270.25 444.9 269.55 M459.65 242.65 Q460.95 243.0 459.45 242.9 L459.65 242.65 M451.75 247.2 L453.1 248.45 455.4 248.55 453.8 248.75 452.55 248.4 451.75 247.2 M429.1 258.45 L427.75 260.45 427.05 257.9 429.6 255.9 429.25 258.1 432.9 258.4 429.1 258.45 M454.0 236.65 L457.45 238.45 454.3 238.35 454.0 236.65 M496.8 254.6 L496.65 256.95 496.4 254.55 495.5 253.1 496.8 254.6 M484.2 254.1 Q483.55 253.8 483.6 253.5 483.55 253.15 484.2 252.85 484.8 252.55 485.65 252.6 L487.1 252.85 Q487.7 253.15 487.7 253.5 L487.1 254.1 485.65 254.4 484.2 254.1 M478.25 238.55 L478.6 238.65 Q479.35 239.7 476.35 240.25 L478.25 238.55 M501.55 233.8 Q481.5 233.95 461.45 234.4 L421.2 235.65 419.55 236.9 419.35 236.4 Q407.9 236.25 396.45 236.55 L326.25 240.25 Q317.35 248.15 309.6 257.2 305.45 261.9 301.75 266.95 299.45 270.0 297.6 273.4 294.95 278.0 292.75 282.85 290.6 287.4 289.55 292.05 L358.1 292.6 355.9 291.25 358.0 291.6 358.3 288.25 358.3 292.6 382.8 292.6 383.5 291.7 383.5 292.05 419.55 291.75 419.45 291.35 419.55 291.15 419.75 290.9 420.35 290.7 421.0 290.85 421.4 291.0 421.2 291.35 Q430.0 291.85 439.1 291.8 L476.6 291.25 514.4 290.25 571.65 288.15 576.0 274.6 Q577.45 269.55 578.5 264.45 L580.2 254.3 Q581.65 243.9 581.25 233.85 561.4 233.6 541.55 233.65 521.55 233.55 501.55 233.8 M418.7 265.9 Q419.25 265.9 419.65 266.3 L420.05 267.05 420.35 266.5 420.1 267.2 420.1 267.35 419.65 268.4 419.5 268.5 419.1 269.4 420.9 268.25 418.45 270.1 419.2 268.75 418.7 268.8 Q418.15 268.8 417.75 268.4 417.3 267.95 417.35 267.35 417.3 266.7 417.75 266.3 418.15 265.9 418.7 265.9 M411.75 261.0 L411.9 261.0 Q412.15 263.2 411.75 261.0 M410.0 245.5 L410.15 249.45 409.7 245.85 406.7 246.55 410.0 245.5 M414.25 250.25 L414.55 249.9 Q414.2 251.6 412.15 251.3 L412.9 247.55 413.15 248.8 Q413.05 250.75 414.25 250.25 M389.95 250.65 L390.4 248.75 Q391.25 249.0 389.95 250.65 M396.25 241.3 L398.3 241.5 393.15 242.35 391.95 240.1 394.15 242.05 396.25 241.3 M421.75 237.25 L421.8 237.65 Q421.65 238.95 421.75 237.25 M346.5 241.2 L346.65 241.0 351.45 242.9 346.35 241.55 346.45 241.3 346.6 241.3 346.5 241.2 M346.1 239.9 Q344.15 240.8 343.85 239.55 L346.4 239.8 346.1 239.9 M360.0 262.75 L360.65 262.75 363.3 263.0 360.0 262.75 M370.2 242.9 L370.4 242.65 Q372.45 243.3 370.2 242.9 M343.7 235.0 L365.0 233.85 385.4 232.95 Q436.15 230.8 486.9 230.45 536.55 230.2 585.95 231.65 586.0 246.05 583.3 260.1 580.35 275.7 574.65 290.8 L552.65 291.7 529.6 292.65 506.55 293.4 Q449.5 295.1 392.45 295.8 336.3 296.45 280.15 296.05 288.35 280.7 298.55 266.45 308.95 252.05 320.55 238.25 L322.2 236.35 343.7 235.0 M365.55 285.8 L365.9 286.3 Q365.2 286.65 365.55 285.8 M372.1 286.05 L372.8 284.1 373.3 286.15 Q371.35 286.7 372.1 286.05 M367.4 276.3 L367.5 276.25 Q368.45 277.8 367.4 276.3 M369.55 270.3 L370.05 270.85 Q368.4 271.75 369.35 269.95 L369.55 270.3 M379.7 273.5 Q380.3 273.55 380.65 273.95 380.15 274.0 379.6 274.5 L379.55 274.85 Q381.9 275.4 379.15 275.3 L379.7 273.5 M346.55 275.35 L345.25 276.15 344.35 276.05 345.7 274.95 346.55 275.35 M361.0 288.1 L360.75 290.25 359.55 287.05 361.0 288.1 M382.85 276.65 Q385.5 280.5 386.6 285.25 384.6 281.05 382.85 276.65 M395.2 287.15 Q394.9 286.85 394.95 286.45 394.9 286.0 395.2 285.75 395.45 285.45 395.9 285.5 396.3 285.45 396.6 285.75 L396.85 286.45 396.6 287.15 395.9 287.4 395.2 287.15 M419.55 289.35 L418.8 289.25 420.35 286.15 419.55 289.35 M570.45 238.4 L572.0 237.15 576.15 239.65 577.65 238.9 Q579.85 239.15 578.0 240.45 L578.35 241.5 577.4 242.0 572.35 237.55 570.45 238.4 M560.65 273.35 L557.7 273.4 Q559.75 270.1 559.05 272.85 L560.65 270.8 559.8 270.5 Q559.1 269.95 560.8 270.75 L560.65 273.35 M513.65 269.3 L514.5 269.6 Q513.7 269.5 513.6 270.1 L513.65 269.3 M544.1 286.6 L544.1 284.65 546.65 284.65 546.65 286.6 544.1 286.6 M540.85 287.8 Q542.1 288.45 540.7 288.5 L540.4 287.9 Q540.35 285.95 540.6 287.2 540.65 287.65 540.85 287.8 M531.85 268.05 L531.55 268.1 Q530.1 267.9 531.85 268.05 M529.6 273.05 L530.1 273.6 530.25 273.9 Q527.95 273.4 529.6 273.05 M540.3 256.6 L538.3 256.8 538.95 253.75 540.3 256.6 M527.35 260.3 L528.6 258.3 Q531.05 252.45 536.6 251.55 L536.85 254.95 536.05 251.7 527.35 260.3 M531.5 260.85 L532.85 262.75 539.6 262.2 536.65 263.0 Q532.85 262.6 532.05 264.25 L531.5 260.85 M514.85 239.35 Q514.85 238.85 515.2 238.55 515.5 238.2 515.95 238.2 516.45 238.2 516.75 238.55 L517.1 239.35 516.75 240.2 515.95 240.55 515.2 240.2 Q514.85 239.85 514.85 239.35 M557.9 243.75 L554.1 245.15 553.05 244.9 552.35 243.75 553.8 244.6 557.9 243.75 M320.4 257.9 L317.8 256.75 Q317.5 256.45 317.95 255.4 318.05 255.0 319.05 256.25 L318.85 253.85 Q321.35 252.8 320.55 254.95 L320.0 255.5 Q318.8 256.65 320.4 257.9 M339.85 265.65 Q340.8 263.7 340.95 265.35 341.0 266.2 339.85 265.65 M325.95 243.55 L325.85 241.9 Q327.55 239.85 327.5 241.7 L325.95 243.55 M297.3 288.6 L296.4 288.35 Q295.5 288.2 296.05 288.8 L295.05 287.95 297.55 288.25 297.3 288.6 M299.75 279.2 L298.5 279.05 300.75 278.25 299.75 279.2 M302.85 280.1 L302.65 279.4 Q302.15 278.2 302.95 280.0 L302.85 280.1 M312.85 283.2 L313.95 284.4 312.85 284.4 312.15 284.25 312.15 284.4 312.05 284.4 312.15 284.25 312.85 283.2 M325.95 273.4 L326.25 273.55 Q326.25 276.3 324.35 274.3 L325.25 274.1 325.95 273.4 M337.8 284.85 L336.45 286.25 336.2 285.2 337.8 284.85 M336.6 286.6 L338.0 288.55 337.35 289.55 336.6 286.6 M323.45 276.85 Q323.1 277.05 323.1 277.2 322.9 275.0 323.85 276.45 L323.45 276.85 M310.15 274.3 L309.6 274.8 309.75 274.3 310.15 274.3 M221.3 449.6 L221.95 451.2 220.9 452.25 221.35 450.1 219.2 448.85 221.3 449.6 M221.3 420.2 L221.2 420.15 220.25 420.05 221.1 419.6 221.3 420.2 M222.45 424.95 L222.0 422.25 222.85 424.7 222.45 424.95 M252.3 425.05 L257.75 424.4 Q256.85 424.65 255.9 425.15 L254.15 425.5 252.3 425.05 M286.1 461.75 L285.05 458.45 285.9 457.1 286.1 461.75 M296.75 446.8 L295.4 450.7 296.35 446.65 Q296.6 444.9 296.75 446.8 M273.2 443.75 L273.2 443.7 273.35 443.7 273.2 443.75 M273.2 424.7 L273.2 427.35 271.45 427.35 271.45 424.7 273.2 424.7 M289.75 431.55 L290.55 435.35 289.65 432.4 288.2 435.0 288.85 433.2 289.75 431.55 M338.15 455.25 L335.6 459.6 337.65 461.4 335.25 459.75 Q334.9 458.85 335.15 457.9 336.25 453.55 338.15 455.25 M338.35 445.8 L336.75 445.25 Q339.0 441.6 338.7 444.25 L337.45 445.45 338.35 445.8 M318.35 426.25 Q316.95 426.9 315.6 427.6 L316.3 426.05 318.35 426.25 M339.25 438.7 Q340.65 437.8 341.45 438.9 L339.5 439.5 339.15 442.1 339.25 438.7 M322.6 424.85 L322.2 425.15 320.4 424.7 319.15 425.7 320.75 423.9 Q320.75 424.3 321.2 424.6 L322.25 424.85 322.6 424.85 M323.35 423.2 Q322.85 422.9 322.25 422.95 L321.5 423.05 322.8 421.55 324.55 423.4 324.35 425.0 324.2 424.65 323.5 424.5 323.8 423.9 Q323.75 423.45 323.35 423.2 M336.25 426.6 L337.5 426.3 338.2 425.85 338.45 427.85 337.9 427.85 337.7 428.25 337.1 429.7 336.55 430.05 Q335.65 430.85 335.1 429.7 L336.25 426.6 M214.0 423.15 L215.1 422.6 214.7 423.15 214.0 423.15 M220.2 426.25 L219.1 425.35 222.35 425.0 220.2 426.25 M189.45 436.65 L189.15 437.15 188.7 436.0 189.25 435.55 189.45 436.65 M196.25 435.65 L196.55 435.6 197.05 436.1 196.95 436.25 196.25 435.65 M190.45 458.9 L190.9 458.65 191.65 461.6 194.4 458.3 192.9 461.45 190.35 461.8 190.45 458.9 M188.7 451.8 L190.25 452.0 190.2 452.15 Q189.5 452.5 188.7 451.8 M184.0 453.15 L184.2 453.0 184.2 453.4 184.0 453.15 M159.6 463.6 L159.45 463.45 159.45 461.25 162.4 463.35 161.85 463.1 Q159.9 461.85 159.6 463.6 M212.4 462.55 L212.95 462.0 Q214.1 460.65 213.35 462.15 L213.0 462.85 212.15 462.8 212.4 462.55 M219.9 453.2 Q218.15 452.8 220.75 452.4 L219.9 453.2 M207.5 463.0 L206.65 462.1 210.9 462.8 208.4 462.8 207.5 463.0 M217.5 448.35 L218.05 447.6 218.65 452.5 217.5 448.35 M220.8 446.7 L218.1 447.55 218.8 446.5 220.8 446.7 M521.05 457.5 Q521.4 456.85 521.95 456.85 522.5 456.85 522.9 457.5 523.3 458.15 523.3 459.1 523.3 460.05 522.9 460.75 522.5 461.4 521.95 461.4 521.4 461.4 521.05 460.75 520.65 460.05 520.65 459.1 520.65 458.15 521.05 457.5 M529.55 439.2 L528.6 438.9 528.75 438.85 529.6 436.35 529.55 439.2 M526.85 438.25 L526.95 438.05 Q528.15 434.8 528.75 437.95 L528.25 436.95 527.85 437.05 Q527.35 438.0 527.5 438.5 L526.85 438.25 M377.4 453.7 Q376.35 452.85 377.2 453.75 L377.4 453.7 M378.45 453.45 Q378.45 453.95 378.05 454.35 377.7 454.7 377.2 454.7 376.7 454.7 376.35 454.35 375.95 453.95 375.95 453.45 375.95 452.95 376.35 452.6 376.7 452.2 377.2 452.25 377.7 452.2 378.05 452.6 378.45 452.95 378.45 453.45 M359.0 458.15 L360.4 454.65 360.2 454.5 359.85 454.3 Q360.05 453.8 360.65 454.3 L360.15 457.85 359.0 458.15 M377.4 432.9 L377.35 432.85 377.05 432.5 Q377.15 432.15 377.55 432.5 L377.4 432.9 M376.6 429.55 L374.95 430.7 373.7 431.9 376.7 434.35 376.4 435.0 373.3 431.75 376.6 429.55 M420.45 460.3 L420.45 455.75 417.45 455.75 417.45 460.3 420.45 460.3 M420.65 455.9 Q421.35 456.85 421.4 458.15 421.35 459.45 420.65 460.45 419.95 461.4 419.0 461.4 418.0 461.4 417.3 460.45 416.55 459.45 416.55 458.15 416.55 456.85 417.3 455.9 418.0 454.9 419.0 454.9 419.95 454.9 420.65 455.9 M388.1 440.3 Q387.95 441.95 387.95 439.8 L388.1 440.3 M395.75 446.1 L395.75 446.35 395.6 446.6 Q395.55 447.4 395.8 447.45 L396.95 447.15 396.25 448.85 Q395.85 448.75 395.8 448.65 395.2 447.0 395.25 445.35 L395.75 446.1 M421.9 430.05 L423.4 430.5 423.95 431.8 421.9 430.05 M419.65 425.0 L419.9 427.25 421.95 427.2 423.1 429.95 421.45 428.1 419.35 427.6 419.65 425.0 M441.6 443.8 L440.2 444.15 440.45 443.9 Q441.15 443.2 441.2 442.15 441.15 441.1 440.45 440.4 439.75 439.7 438.7 439.7 437.65 439.7 436.95 440.4 436.2 441.1 436.2 442.15 436.2 443.2 436.95 443.9 437.55 444.5 438.35 444.6 L436.1 445.2 438.3 447.75 Q437.8 448.3 437.0 447.45 433.55 443.6 437.2 439.8 440.05 438.85 441.45 441.15 442.4 442.65 441.6 443.8 M482.6 436.15 L479.8 438.65 481.05 435.55 482.6 436.15" fill="#95382f" fill-rule="evenodd" stroke="none"/>
    <path d="M534.15 464.95 L181.0 464.95 176.8 464.7 178.05 462.65 174.55 460.5 171.8 464.95 155.4 464.95 Q172.05 438.5 195.55 417.2 337.55 416.05 479.6 423.7 L499.85 424.85 519.95 426.1 520.8 429.75 521.35 426.15 542.95 427.6 Q539.65 446.6 534.15 464.95 M478.25 238.55 L476.35 240.25 Q479.35 239.7 478.6 238.65 L478.25 238.55 M484.2 254.1 L485.65 254.4 487.1 254.1 487.7 253.5 Q487.7 253.15 487.1 252.85 L485.65 252.6 Q484.8 252.55 484.2 252.85 483.55 253.15 483.6 253.5 483.55 253.8 484.2 254.1 M496.8 254.6 L495.5 253.1 496.4 254.55 496.65 256.95 496.8 254.6 M454.0 236.65 L454.3 238.35 457.45 238.45 454.0 236.65 M429.1 258.45 L432.9 258.4 429.25 258.1 429.6 255.9 427.05 257.9 427.75 260.45 429.1 258.45 M451.75 247.2 L452.55 248.4 453.8 248.75 455.4 248.55 453.1 248.45 451.75 247.2 M459.65 242.65 L459.45 242.9 Q460.95 243.0 459.65 242.65 M444.9 269.55 Q444.15 270.25 443.6 270.1 L443.1 271.15 Q443.9 270.3 444.55 270.75 445.45 270.45 445.05 269.3 L444.9 269.55 M444.3 270.6 L444.2 270.5 Q445.05 269.45 444.3 270.6 M432.1 287.7 L432.9 287.35 433.25 286.5 Q433.25 286.0 432.9 285.7 432.55 285.35 432.1 285.35 431.6 285.35 431.25 285.7 430.9 286.0 430.9 286.5 430.9 287.0 431.25 287.35 L432.1 287.7 M429.65 289.35 L429.65 288.6 429.6 289.75 429.65 289.35 M501.55 233.8 Q521.55 233.55 541.55 233.65 561.4 233.6 581.25 233.85 581.65 243.9 580.2 254.3 L578.5 264.45 Q577.45 269.55 576.0 274.6 L571.65 288.15 514.4 290.25 476.6 291.25 439.1 291.8 Q430.0 291.85 421.2 291.35 L421.4 291.0 421.0 290.85 420.35 290.7 419.75 290.9 419.55 291.15 419.45 291.35 419.55 291.75 383.5 292.05 383.5 291.7 382.8 292.6 358.3 292.6 358.3 288.25 358.0 291.6 355.9 291.25 358.1 292.6 289.55 292.05 Q290.6 287.4 292.75 282.85 294.95 278.0 297.6 273.4 299.45 270.0 301.75 266.95 305.45 261.9 309.6 257.2 317.35 248.15 326.25 240.25 L396.45 236.55 Q407.9 236.25 419.35 236.4 L419.55 236.9 421.2 235.65 461.45 234.4 Q481.5 233.95 501.55 233.8 M421.75 237.25 Q421.65 238.95 421.8 237.65 L421.75 237.25 M396.25 241.3 L394.15 242.05 391.95 240.1 393.15 242.35 398.3 241.5 396.25 241.3 M389.95 250.65 Q391.25 249.0 390.4 248.75 L389.95 250.65 M414.25 250.25 Q413.05 250.75 413.15 248.8 L412.9 247.55 412.15 251.3 Q414.2 251.6 414.55 249.9 L414.25 250.25 M410.0 245.5 L406.7 246.55 409.7 245.85 410.15 249.45 410.0 245.5 M411.75 261.0 Q412.15 263.2 411.9 261.0 L411.75 261.0 M418.7 265.9 Q418.15 265.9 417.75 266.3 417.3 266.7 417.35 267.35 417.3 267.95 417.75 268.4 418.15 268.8 418.7 268.8 L419.2 268.75 418.45 270.1 420.9 268.25 419.1 269.4 419.5 268.5 419.65 268.4 420.1 267.35 420.1 267.2 420.35 266.5 420.05 267.05 419.65 266.3 Q419.25 265.9 418.7 265.9 M346.65 241.0 L335.6 244.4 333.1 240.6 329.65 246.0 332.35 248.65 322.9 248.65 319.95 253.3 338.8 253.3 341.8 248.65 338.15 248.65 337.3 247.45 343.9 245.35 346.35 241.55 351.45 242.9 346.65 241.0 M346.45 241.3 L346.5 241.2 346.6 241.3 346.45 241.3 M346.1 239.9 L346.4 239.8 343.85 239.55 Q344.15 240.8 346.1 239.9 M360.65 262.75 L363.7 257.75 357.35 257.75 358.9 256.4 360.25 254.55 Q361.0 253.15 360.55 251.65 356.75 247.6 350.9 249.75 345.0 252.15 345.9 257.55 L346.25 257.75 344.7 258.05 342.75 262.8 360.0 262.75 363.3 263.0 360.65 262.75 M350.35 257.25 Q349.45 256.7 349.45 256.05 349.45 255.35 350.35 254.85 351.2 254.3 352.45 254.3 353.7 254.3 354.6 254.85 355.5 255.35 355.5 256.05 355.5 256.7 354.6 257.25 353.7 257.75 352.45 257.75 L350.35 257.25 M370.2 242.9 Q372.45 243.3 370.4 242.65 L370.2 242.9 M379.7 273.5 L379.15 275.3 Q381.9 275.4 379.55 274.85 L379.6 274.5 Q380.15 274.0 380.65 273.95 380.3 273.55 379.7 273.5 M369.55 270.3 L369.35 269.95 Q368.4 271.75 370.05 270.85 L369.55 270.3 M367.4 276.3 Q368.45 277.8 367.5 276.25 L367.4 276.3 M372.1 286.05 Q371.35 286.7 373.3 286.15 L372.8 284.1 372.1 286.05 M365.55 285.8 Q365.2 286.65 365.9 286.3 L365.55 285.8 M345.25 276.15 L332.05 276.5 329.8 282.05 Q337.35 283.0 344.25 281.0 351.55 279.05 353.1 271.5 354.05 266.7 349.25 265.95 L336.45 265.85 334.2 271.35 347.55 272.05 346.55 275.35 345.7 274.95 344.35 276.05 345.25 276.15 M361.0 288.1 L359.55 287.05 360.75 290.25 361.0 288.1 M419.55 289.35 L420.35 286.15 418.8 289.25 419.55 289.35 M395.2 287.15 L395.9 287.4 396.6 287.15 396.85 286.45 396.6 285.75 Q396.3 285.45 395.9 285.5 395.45 285.45 395.2 285.75 394.9 286.0 394.95 286.45 394.9 286.85 395.2 287.15 M382.85 276.65 Q384.6 281.05 386.6 285.25 385.5 280.5 382.85 276.65 M570.45 238.4 L572.35 237.55 577.4 242.0 578.35 241.5 578.0 240.45 Q579.85 239.15 577.65 238.9 L576.15 239.65 572.0 237.15 570.45 238.4 M557.9 243.75 L553.8 244.6 552.35 243.75 553.05 244.9 554.1 245.15 557.9 243.75 M514.85 239.35 Q514.85 239.85 515.2 240.2 L515.95 240.55 516.75 240.2 517.1 239.35 516.75 238.55 Q516.45 238.2 515.95 238.2 515.5 238.2 515.2 238.55 514.85 238.85 514.85 239.35 M531.5 260.85 L532.05 264.25 Q532.85 262.6 536.65 263.0 L539.6 262.2 532.85 262.75 531.5 260.85 M527.35 260.3 L536.05 251.7 536.85 254.95 536.6 251.55 Q531.05 252.45 528.6 258.3 L527.35 260.3 M540.3 256.6 L538.95 253.75 538.3 256.8 540.3 256.6 M529.6 273.05 Q527.95 273.4 530.25 273.9 L530.1 273.6 529.6 273.05 M531.85 268.05 Q530.1 267.9 531.55 268.1 L531.85 268.05 M540.85 287.8 Q540.65 287.65 540.6 287.2 540.35 285.95 540.4 287.9 L540.7 288.5 Q542.1 288.45 540.85 287.8 M544.1 286.6 L546.65 286.6 546.65 284.65 544.1 284.65 544.1 286.6 M513.65 269.3 L513.6 270.1 Q513.7 269.5 514.5 269.6 L513.65 269.3 M560.65 273.35 L560.8 270.75 Q559.1 269.95 559.8 270.5 L560.65 270.8 559.05 272.85 Q559.75 270.1 557.7 273.4 L560.65 273.35 M320.4 257.9 Q318.8 256.65 320.0 255.5 L320.55 254.95 Q321.35 252.8 318.85 253.85 L319.05 256.25 Q318.05 255.0 317.95 255.4 317.5 256.45 317.8 256.75 L320.4 257.9 M318.35 266.1 Q322.4 269.55 327.85 266.95 334.55 263.8 335.05 256.95 L334.8 256.2 332.55 255.1 330.05 259.7 Q330.8 261.75 328.4 262.95 325.5 264.15 323.4 262.5 L326.4 259.5 328.4 255.3 Q321.05 256.85 318.2 263.85 317.8 264.95 318.35 266.1 M325.95 243.55 L327.5 241.7 Q327.55 239.85 325.85 241.9 L325.95 243.55 M339.85 265.65 Q341.0 266.2 340.95 265.35 340.8 263.7 339.85 265.65 M299.75 279.2 L300.75 278.25 298.5 279.05 299.75 279.2 M297.55 288.25 L295.05 287.95 296.05 288.8 Q295.5 288.2 296.4 288.35 L297.3 288.6 296.8 289.35 315.7 289.4 318.9 284.4 313.95 284.4 312.85 283.2 314.6 277.9 Q308.6 274.2 302.95 280.0 302.15 278.2 302.65 279.4 L302.85 280.1 297.55 288.25 M324.35 274.3 Q326.25 276.3 326.25 273.55 L325.95 273.4 328.25 269.75 314.4 269.75 311.5 274.3 324.35 274.3 M323.45 276.85 L323.85 276.45 Q322.9 275.0 323.1 277.2 323.1 277.05 323.45 276.85 M336.6 286.6 L337.35 289.55 338.0 288.55 336.6 286.6 M337.8 284.85 L336.2 285.2 336.45 286.25 337.8 284.85 M309.75 274.3 L309.6 274.8 310.15 274.3 313.4 269.75 309.4 269.75 306.5 274.3 309.75 274.3 M306.5 281.7 L308.05 281.25 Q309.9 281.75 308.5 283.5 L307.85 284.4 304.3 284.4 306.5 281.7 M312.85 284.4 L312.15 284.4 312.15 284.25 312.85 284.4 M336.25 426.6 L335.1 429.7 Q335.65 430.85 336.55 430.05 L337.1 429.7 337.7 428.25 337.9 427.85 338.45 427.85 338.2 425.85 337.5 426.3 336.25 426.6 M323.35 423.2 Q323.75 423.45 323.8 423.9 L323.5 424.5 324.2 424.65 324.35 425.0 324.55 423.4 322.8 421.55 321.5 423.05 322.25 422.95 Q322.85 422.9 323.35 423.2 M322.6 424.85 L322.25 424.85 321.2 424.6 Q320.75 424.3 320.75 423.9 L319.15 425.7 320.4 424.7 322.2 425.15 322.6 424.85 M339.25 438.7 L339.15 442.1 339.5 439.5 341.45 438.9 Q340.65 437.8 339.25 438.7 M318.35 426.25 L316.3 426.05 315.6 427.6 Q316.95 426.9 318.35 426.25 M338.35 445.8 L337.45 445.45 338.7 444.25 Q339.0 441.6 336.75 445.25 L338.35 445.8 M338.15 455.25 Q336.25 453.55 335.15 457.9 334.9 458.85 335.25 459.75 L337.65 461.4 335.6 459.6 338.15 455.25 M289.75 431.55 L288.85 433.2 288.2 435.0 289.65 432.4 290.55 435.35 289.75 431.55 M273.2 424.7 L271.45 424.7 271.45 427.35 273.2 427.35 273.2 424.7 M273.2 443.75 L273.35 443.7 273.2 443.7 273.2 443.75 M296.75 446.8 Q296.6 444.9 296.35 446.65 L295.4 450.7 296.75 446.8 M286.1 461.75 L285.9 457.1 285.05 458.45 286.1 461.75 M252.3 425.05 L254.15 425.5 255.9 425.15 Q256.85 424.65 257.75 424.4 L252.3 425.05 M222.45 424.95 L222.85 424.7 222.0 422.25 222.45 424.95 M221.3 420.2 L221.1 419.6 220.25 420.05 221.2 420.15 221.3 420.2 M221.3 449.6 L219.2 448.85 221.35 450.1 220.9 452.25 221.95 451.2 221.3 449.6 M214.0 423.15 L205.0 422.45 206.25 420.4 202.75 418.3 199.85 422.95 200.2 423.2 200.75 423.35 198.6 423.5 195.35 428.3 212.8 428.3 216.25 423.15 214.7 423.15 215.1 422.6 214.0 423.15 M220.2 426.25 L222.35 425.0 219.1 425.35 220.2 426.25 M189.15 437.15 Q184.9 442.8 191.5 443.95 L196.0 444.1 Q206.8 442.5 208.65 432.45 L206.35 430.6 202.55 435.4 203.1 436.85 198.6 439.5 204.75 430.25 Q195.5 429.75 189.45 436.65 L189.25 435.55 188.7 436.0 189.15 437.15 M196.95 436.25 L193.7 439.05 193.15 438.9 193.35 437.5 196.25 435.65 196.95 436.25 M196.55 435.6 Q197.0 435.45 197.25 435.75 L197.05 436.1 196.55 435.6 M190.9 458.65 Q194.3 457.3 195.7 453.9 L196.0 452.7 194.75 451.6 197.25 451.6 200.45 446.8 176.7 446.8 173.25 451.95 181.25 451.95 Q177.3 453.3 176.4 457.4 L176.4 458.25 Q182.45 462.65 189.9 459.1 L190.45 458.9 190.35 461.8 192.9 461.45 194.4 458.3 191.65 461.6 190.9 458.65 M188.7 451.8 Q189.5 452.5 190.2 452.15 L190.25 452.0 Q191.75 452.35 190.8 453.7 L190.25 454.45 Q186.3 456.65 183.8 453.95 183.65 453.8 184.0 453.15 L184.2 453.4 184.2 453.0 188.7 451.8 M220.8 446.7 L218.8 446.5 218.1 447.55 220.8 446.7 M217.5 448.35 L218.65 452.5 218.05 447.6 217.5 448.35 M207.5 463.0 L208.4 462.8 210.9 462.8 206.65 462.1 207.5 463.0 M219.9 453.2 L220.75 452.4 Q218.15 452.8 219.9 453.2 M212.4 462.55 L212.15 462.8 213.0 462.85 213.35 462.15 Q214.1 460.65 212.95 462.0 L212.4 462.55 M159.6 463.6 Q159.9 461.85 161.85 463.1 L162.4 463.35 159.45 461.25 159.45 463.45 159.6 463.6 M526.85 438.25 L527.5 438.5 Q527.35 438.0 527.85 437.05 L528.25 436.95 528.75 437.95 Q528.15 434.8 526.95 438.05 L526.85 438.25 M529.55 439.2 L529.6 436.35 528.75 438.85 528.6 438.9 529.55 439.2 M521.05 457.5 Q520.65 458.15 520.65 459.1 520.65 460.05 521.05 460.75 521.4 461.4 521.95 461.4 522.5 461.4 522.9 460.75 523.3 460.05 523.3 459.1 523.3 458.15 522.9 457.5 522.5 456.85 521.95 456.85 521.4 456.85 521.05 457.5 M482.6 436.15 L481.05 435.55 479.8 438.65 482.6 436.15 M441.6 443.8 Q442.4 442.65 441.45 441.15 440.05 438.85 437.2 439.8 433.55 443.6 437.0 447.45 437.8 448.3 438.3 447.75 L436.1 445.2 438.35 444.6 Q437.55 444.5 436.95 443.9 436.2 443.2 436.2 442.15 436.2 441.1 436.95 440.4 437.65 439.7 438.7 439.7 439.75 439.7 440.45 440.4 441.15 441.1 441.2 442.15 441.15 443.2 440.45 443.9 L440.2 444.15 441.6 443.8 M419.65 425.0 L419.35 427.6 421.45 428.1 423.1 429.95 421.95 427.2 419.9 427.25 419.65 425.0 M421.9 430.05 L423.95 431.8 423.4 430.5 421.9 430.05 M395.75 446.1 L395.25 445.35 Q395.2 447.0 395.8 448.65 395.85 448.75 396.25 448.85 L396.95 447.15 395.8 447.45 Q395.55 447.4 395.6 446.6 L395.75 446.35 395.75 446.1 M388.1 440.3 L387.95 439.8 Q387.95 441.95 388.1 440.3 M420.65 455.9 Q419.95 454.9 419.0 454.9 418.0 454.9 417.3 455.9 416.55 456.85 416.55 458.15 416.55 459.45 417.3 460.45 418.0 461.4 419.0 461.4 419.95 461.4 420.65 460.45 421.35 459.45 421.4 458.15 421.35 456.85 420.65 455.9 M420.45 460.3 L417.45 460.3 417.45 455.75 420.45 455.75 420.45 460.3 M376.6 429.55 L373.3 431.75 376.4 435.0 376.7 434.35 373.7 431.9 374.95 430.7 376.6 429.55 M377.4 432.9 L377.55 432.5 Q377.15 432.15 377.05 432.5 L377.35 432.85 377.4 432.9 M359.0 458.15 L360.15 457.85 360.65 454.3 Q360.05 453.8 359.85 454.3 L360.2 454.5 360.4 454.65 359.0 458.15 M378.45 453.45 Q378.45 452.95 378.05 452.6 377.7 452.2 377.2 452.25 376.7 452.2 376.35 452.6 375.95 452.95 375.95 453.45 375.95 453.95 376.35 454.35 376.7 454.7 377.2 454.7 377.7 454.7 378.05 454.35 378.45 453.95 378.45 453.45 M377.4 453.7 L377.2 453.75 Q376.35 452.85 377.4 453.7" fill="#9a3e30" fill-rule="evenodd" stroke="none"/>
    <path d="M605.4 267.25 L605.4 283.8 598.85 283.8 601.85 266.05 605.4 267.25 M605.4 308.85 L605.4 334.7 590.2 334.7 594.55 308.85 605.4 308.85 M605.4 362.6 L605.4 391.2 580.65 391.2 585.45 362.6 605.4 362.6 M605.4 421.85 L605.4 453.25 570.15 453.25 575.45 421.9 605.4 421.85 M567.65 464.95 L561.05 464.95 563.4 453.8 569.55 453.8 567.65 464.95 M96.8 464.95 L38.7 464.95 48.7 453.6 105.9 453.6 96.8 464.95 M456.25 306.9 L502.5 305.5 501.35 308.35 455.65 308.45 456.25 306.9 M361.7 404.85 L308.9 403.6 315.7 391.65 368.25 391.55 361.7 404.85 M415.45 406.55 L421.6 391.55 474.25 391.55 468.6 408.6 415.45 406.55 M522.75 411.1 L527.55 391.75 580.0 391.75 575.0 421.4 568.75 421.4 569.8 413.7 522.75 411.1 M492.8 335.05 L483.85 362.25 433.6 362.25 444.7 335.05 492.8 335.05 M395.9 335.05 L382.3 362.15 332.25 362.25 347.9 335.05 395.9 335.05 M368.95 391.2 L382.75 362.6 432.85 362.8 421.35 391.2 368.95 391.2 M474.75 391.2 L484.15 362.6 534.45 362.7 527.2 391.1 474.75 391.2 M408.9 309.05 L454.95 309.05 444.4 334.7 396.4 334.7 408.9 309.05 M362.2 308.85 L347.5 334.55 299.85 334.55 316.5 308.85 362.2 308.85 M493.35 334.55 L501.7 309.05 547.7 309.05 541.25 334.55 493.35 334.55 M549.7 303.7 L586.0 301.95 590.4 284.2 598.2 284.25 594.15 308.35 548.5 308.35 549.7 303.7 M535.15 362.15 L541.8 335.25 589.6 335.25 585.05 362.15 535.15 362.15 M177.15 219.35 L156.15 239.45 116.35 239.45 138.85 219.35 177.15 219.35 M130.7 309.05 L176.5 309.05 153.8 334.55 106.05 334.55 130.7 309.05 M153.95 284.25 L130.65 308.35 85.0 308.35 110.3 284.25 153.95 284.25 M133.8 260.8 L110.05 283.55 66.65 283.55 92.25 260.8 133.8 260.8 M154.95 283.7 L177.1 260.8 219.1 260.8 198.7 283.55 154.95 283.7 M135.45 260.1 L156.4 240.1 196.35 240.1 177.05 260.1 135.45 260.1 M37.85 309.05 L83.35 309.05 56.65 334.55 9.2 334.55 37.85 309.05 M103.7 391.75 L155.85 391.75 131.95 421.4 77.5 421.4 103.7 391.75 M130.1 362.15 L153.85 335.25 201.5 335.25 179.8 362.15 130.1 362.15 M51.45 391.1 L78.75 362.8 128.55 362.8 103.4 391.1 51.45 391.1 M255.75 219.35 L237.95 239.45 198.0 239.45 217.35 219.35 255.75 219.35 M278.3 240.1 L262.15 260.1 220.6 260.1 238.25 240.1 278.3 240.1 M272.45 283.65 L267.9 283.65 282.0 269.05 272.45 283.65 M242.85 284.25 L223.4 308.35 177.5 308.35 198.95 284.25 242.85 284.25 M231.3 362.15 L250.95 335.25 298.65 335.25 281.2 362.15 231.3 362.15 M251.95 309.0 L269.2 309.05 250.7 334.55 235.05 334.55 251.95 309.0 M190.9 391.05 L214.05 362.8 229.9 362.8 209.35 391.1 190.9 391.05 M202.0 402.35 L209.75 391.75 262.0 391.75 254.85 402.75 202.0 402.35 M315.5 391.1 L263.25 391.1 281.6 362.8 331.6 362.8 315.5 391.1 M134.3 453.1 L162.85 422.65 138.9 453.1 134.3 453.1 M76.4 421.95 L48.55 453.1 0.35 453.1 0.3 443.7 21.45 422.05 76.4 421.95 M49.8 391.75 L21.1 421.4 0.35 421.4 0.35 391.75 49.8 391.75 M0.35 388.4 L0.35 362.8 27.1 362.8 0.35 388.4" fill="#649e41" fill-rule="evenodd" stroke="none"/>
    <path d="M605.4 283.8 L605.4 308.85 594.55 308.85 590.2 334.7 605.4 334.7 605.4 362.6 585.45 362.6 580.65 391.2 605.4 391.2 605.4 421.85 575.45 421.9 570.15 453.25 605.4 453.25 605.4 464.95 567.65 464.95 569.55 453.8 563.4 453.8 568.75 421.4 575.0 421.4 580.0 391.75 527.55 391.75 522.75 411.1 468.6 408.6 474.25 391.55 421.6 391.55 415.45 406.55 361.7 404.85 368.25 391.55 315.7 391.65 308.9 403.6 254.85 402.75 262.0 391.75 209.75 391.75 202.0 402.35 181.15 402.3 190.9 391.05 209.35 391.1 229.9 362.8 214.05 362.8 235.05 334.55 250.7 334.55 269.2 309.05 251.95 309.0 267.9 283.65 272.45 283.65 257.6 308.25 270.15 308.35 312.9 308.45 362.75 308.45 409.05 307.9 456.25 306.9 455.65 308.45 501.35 308.35 502.5 305.5 549.7 303.7 548.5 308.35 594.15 308.35 598.2 284.25 590.4 284.2 594.5 263.7 601.85 266.05 598.85 283.8 605.4 283.8 M130.45 464.95 L124.5 464.95 Q129.05 458.8 134.3 453.1 L138.9 453.1 130.45 464.95 M0.15 334.65 L0.1 334.5 0.15 334.5 0.15 334.65 M0.1 224.15 L0.0 217.65 2.3 217.5 2.3 217.7 0.15 217.7 0.1 224.15 M368.95 391.2 L421.35 391.2 432.85 362.8 382.75 362.6 368.95 391.2 M395.9 335.05 L347.9 335.05 332.25 362.25 382.3 362.15 395.9 335.05 M492.8 335.05 L444.7 335.05 433.6 362.25 483.85 362.25 492.8 335.05 M474.75 391.2 L527.2 391.1 534.45 362.7 484.15 362.6 474.75 391.2 M493.35 334.55 L541.25 334.55 547.7 309.05 501.7 309.05 493.35 334.55 M362.2 308.85 L316.5 308.85 299.85 334.55 347.5 334.55 362.2 308.85 M408.9 309.05 L396.4 334.7 444.4 334.7 454.95 309.05 408.9 309.05 M535.15 362.15 L585.05 362.15 589.6 335.25 541.8 335.25 535.15 362.15 M231.3 362.15 L281.2 362.15 298.65 335.25 250.95 335.25 231.3 362.15 M315.5 391.1 L331.6 362.8 281.6 362.8 263.25 391.1 315.5 391.1" fill="#5b913c" fill-rule="evenodd" stroke="none"/>
    <path d="M553.2 464.95 L550.55 464.95 Q555.25 443.25 558.5 421.4 L558.7 419.6 507.5 417.15 466.5 415.3 426.2 413.75 385.55 412.45 Q365.5 411.75 345.1 411.35 L304.95 410.6 264.0 409.95 223.65 409.65 185.35 409.4 Q175.9 419.45 167.05 429.75 153.45 445.4 140.7 461.8 L138.25 464.95 135.05 464.95 144.0 453.1 170.1 422.05 184.2 406.8 198.85 406.7 252.05 407.05 306.5 407.8 359.7 408.95 413.8 410.5 467.35 412.5 521.8 414.95 561.15 417.2 561.25 421.4 555.7 453.8 553.2 464.95 M542.6 464.95 L542.05 464.95 544.6 453.8 549.25 423.7 517.85 421.7 465.25 418.85 424.85 417.2 384.05 415.75 343.35 414.75 303.05 414.1 261.7 413.7 Q241.2 413.45 220.8 413.55 L190.2 413.9 Q175.9 429.0 162.6 445.25 154.65 454.85 147.25 464.95 L146.65 464.95 Q157.15 450.85 168.6 437.4 178.95 425.15 190.0 413.65 219.05 413.25 248.1 413.4 L303.25 413.75 Q330.05 414.05 356.95 414.65 L384.25 415.4 411.45 416.3 438.5 417.35 465.4 418.5 507.5 420.8 549.5 423.35 549.6 423.35 Q547.4 442.95 543.2 462.3 L542.6 464.95 M450.1 225.1 L489.25 224.5 529.8 224.2 568.75 224.25 595.2 224.8 594.3 240.1 591.5 260.1 586.45 284.2 582.15 299.0 550.5 300.45 503.55 302.2 457.6 303.5 410.75 304.45 364.75 304.95 318.25 305.05 272.75 304.8 265.7 303.7 277.9 283.65 294.1 260.55 310.2 239.4 318.9 229.3 327.3 228.9 369.3 227.25 409.05 226.0 450.1 225.1 M481.65 300.15 L504.55 299.4 527.9 298.65 551.2 297.7 565.8 297.05 580.45 296.35 Q584.0 284.35 586.3 272.2 588.35 261.15 589.85 250.05 L592.7 227.15 528.95 227.0 488.15 227.3 Q447.85 227.75 407.45 228.9 L387.5 229.5 367.5 230.15 346.4 230.95 325.25 231.8 319.7 232.05 Q308.4 245.75 297.65 260.65 289.4 272.1 281.45 283.8 275.3 292.85 269.45 302.0 L320.0 302.3 366.3 302.15 Q412.65 301.95 458.75 300.7 L481.65 300.15 M467.3 230.4 Q487.35 230.1 507.5 230.2 527.45 230.15 547.55 230.45 566.75 230.65 586.2 231.35 L585.85 240.1 585.55 245.15 584.3 255.15 583.45 260.1 580.65 272.1 577.2 284.15 574.9 291.05 552.6 292.05 529.5 293.0 483.8 294.45 461.1 295.0 414.9 295.8 369.55 296.3 323.8 296.7 Q302.0 296.85 279.8 296.3 L279.75 296.1 281.75 292.6 290.5 278.05 294.2 272.3 Q298.2 266.35 302.5 260.65 308.45 252.65 314.75 244.8 L322.0 236.05 322.15 236.0 343.85 234.7 365.3 233.5 405.8 231.8 426.7 231.15 Q446.95 230.65 467.3 230.4 M343.7 235.0 L322.2 236.35 320.55 238.25 Q308.95 252.05 298.55 266.45 288.35 280.7 280.15 296.05 336.3 296.45 392.45 295.8 449.5 295.1 506.55 293.4 L529.6 292.65 552.65 291.7 574.65 290.8 Q580.35 275.7 583.3 260.1 586.0 246.05 585.95 231.65 536.55 230.2 486.9 230.45 436.15 230.8 385.4 232.95 L365.0 233.85 343.7 235.0" fill="#4a392b" fill-rule="evenodd" stroke="none"/>
    <path d="M181.0 464.95 L171.8 464.95 174.55 460.5 178.05 462.65 176.8 464.7 181.0 464.95 M346.65 241.0 L346.5 241.2 346.45 241.3 346.35 241.55 343.9 245.35 337.3 247.45 338.15 248.65 341.8 248.65 338.8 253.3 319.95 253.3 322.9 248.65 332.35 248.65 329.65 246.0 333.1 240.6 335.6 244.4 346.65 241.0 M360.0 262.75 L342.75 262.8 344.7 258.05 346.25 257.75 345.9 257.55 Q345.0 252.15 350.9 249.75 356.75 247.6 360.55 251.65 361.0 253.15 360.25 254.55 L358.9 256.4 357.35 257.75 363.7 257.75 360.65 262.75 360.0 262.75 M350.35 257.25 L352.45 257.75 Q353.7 257.75 354.6 257.25 355.5 256.7 355.5 256.05 355.5 255.35 354.6 254.85 353.7 254.3 352.45 254.3 351.2 254.3 350.35 254.85 349.45 255.35 349.45 256.05 349.45 256.7 350.35 257.25 M345.25 276.15 L346.55 275.35 347.55 272.05 334.2 271.35 336.45 265.85 349.25 265.95 Q354.05 266.7 353.1 271.5 351.55 279.05 344.25 281.0 337.35 283.0 329.8 282.05 L332.05 276.5 345.25 276.15 M318.35 266.1 Q317.8 264.95 318.2 263.85 321.05 256.85 328.4 255.3 L326.4 259.5 323.4 262.5 Q325.5 264.15 328.4 262.95 330.8 261.75 330.05 259.7 L332.55 255.1 334.8 256.2 335.05 256.95 Q334.55 263.8 327.85 266.95 322.4 269.55 318.35 266.1 M297.3 288.6 L297.55 288.25 302.85 280.1 302.95 280.0 Q308.6 274.2 314.6 277.9 L312.85 283.2 312.15 284.25 312.05 284.4 312.15 284.4 312.85 284.4 313.95 284.4 318.9 284.4 315.7 289.4 296.8 289.35 297.3 288.6 M325.95 273.4 L325.25 274.1 324.35 274.3 311.5 274.3 314.4 269.75 328.25 269.75 325.95 273.4 M309.75 274.3 L306.5 274.3 309.4 269.75 313.4 269.75 310.15 274.3 309.75 274.3 M306.5 281.7 L304.3 284.4 307.85 284.4 308.5 283.5 Q309.9 281.75 308.05 281.25 L306.5 281.7 M214.7 423.15 L216.25 423.15 212.8 428.3 195.35 428.3 198.6 423.5 200.75 423.35 200.2 423.2 199.85 422.95 202.75 418.3 206.25 420.4 205.0 422.45 214.0 423.15 214.7 423.15 M189.45 436.65 Q195.5 429.75 204.75 430.25 L198.6 439.5 203.1 436.85 202.55 435.4 206.35 430.6 208.65 432.45 Q206.8 442.5 196.0 444.1 L191.5 443.95 Q184.9 442.8 189.15 437.15 L189.45 436.65 M196.25 435.65 L193.35 437.5 193.15 438.9 193.7 439.05 196.95 436.25 197.05 436.1 197.25 435.75 Q197.0 435.45 196.55 435.6 L196.25 435.65 M190.45 458.9 L189.9 459.1 Q182.45 462.65 176.4 458.25 L176.4 457.4 Q177.3 453.3 181.25 451.95 L173.25 451.95 176.7 446.8 200.45 446.8 197.25 451.6 194.75 451.6 196.0 452.7 195.7 453.9 Q194.3 457.3 190.9 458.65 L190.45 458.9 M190.25 452.0 L188.7 451.8 184.2 453.0 184.0 453.15 Q183.65 453.8 183.8 453.95 186.3 456.65 190.25 454.45 L190.8 453.7 Q191.75 452.35 190.25 452.0" fill="#6a2922" fill-rule="evenodd" stroke="none"/>
  </g>
</svg>
