<?xml version="1.0" encoding="UTF-8" standalone="no"?>
<svg xmlns:ffdec="https://www.free-decompiler.com/flash" xmlns:xlink="http://www.w3.org/1999/xlink" ffdec:objectType="shape" height="97.0px" width="97.0px" xmlns="http://www.w3.org/2000/svg">
  <g transform="matrix(1.0, 0.0, 0.0, 1.0, 17.25, 51.6)">
    <path d="M79.25 -51.1 L79.25 44.9 -16.75 44.9 -16.75 -51.1 79.25 -51.1" fill="#333333" fill-rule="evenodd" stroke="none"/>
    <path d="M79.25 -51.1 L79.25 44.9 -16.75 44.9 -16.75 -51.1 79.25 -51.1 Z" fill="none" stroke="#000000" stroke-linecap="round" stroke-linejoin="round" stroke-width="1.0"/>
    <path d="M27.3 -13.15 L27.3 -12.85 26.65 -6.65 17.3 -6.4 18.3 -13.0 27.3 -13.15 M10.8 -12.75 L9.15 -6.0 17.3 -6.4 15.95 2.6 6.95 3.05 4.3 14.05 14.3 13.5 12.25 27.05 22.95 26.65 21.75 37.2 Q30.05 36.95 38.5 37.0 L37.95 26.5 Q47.15 26.55 56.6 26.95 L53.4 13.35 66.25 13.95 71.3 27.8 79.3 28.4 79.3 38.85 75.2 38.55 77.55 44.9 60.75 44.9 59.05 37.55 75.2 38.55 71.3 27.8 56.6 26.95 59.05 37.55 Q48.65 37.05 38.5 37.0 L38.95 44.9 20.9 44.9 21.75 37.2 10.65 37.65 9.6 44.9 -3.15 44.9 -1.6 38.5 10.65 37.65 12.25 27.05 1.0 27.75 -1.6 38.5 -14.0 39.65 -15.4 44.9 -16.95 44.9 -16.95 40.0 -14.0 39.65 -11.1 28.8 -16.95 29.4 -16.95 16.0 -7.4 15.0 -4.45 3.9 -16.95 5.1 -16.95 4.7 -13.9 -4.15 -16.95 -3.8 -16.95 -10.85 -11.45 -11.35 -13.9 -4.15 -2.05 -5.25 -0.2 -12.2 10.8 -12.75 M25.65 2.35 L26.65 -6.65 36.2 -6.75 35.85 -13.15 47.3 -12.9 48.8 -6.55 58.9 -6.2 56.55 -12.55 68.05 -11.8 68.2 -11.8 71.35 -5.45 79.3 -4.85 79.3 4.2 76.05 3.9 79.3 10.4 79.3 14.85 66.25 13.95 62.25 3.0 50.9 2.5 48.8 -6.55 36.2 -6.75 36.65 2.25 25.65 2.35 M58.9 -6.2 L62.25 3.0 76.05 3.9 71.35 -5.45 58.9 -6.2 M4.3 14.05 L-7.4 15.0 -11.1 28.8 1.0 27.75 4.3 14.05 M9.15 -6.0 L-2.05 -5.25 -4.45 3.9 6.95 3.05 9.15 -6.0" fill="#cc0000" fill-rule="evenodd" stroke="none"/>
    <path d="M18.3 -13.0 L17.3 -6.4 26.65 -6.65 27.3 -12.85 27.3 -13.15 35.8 -13.15 35.85 -13.15 36.2 -6.75 26.65 -6.65 25.65 2.35 Q20.75 2.4 15.95 2.6 L17.3 -6.4 9.15 -6.0 10.8 -12.75 18.3 -13.0 M56.55 -12.55 L58.9 -6.2 48.8 -6.55 47.3 -12.9 56.55 -12.55 M68.2 -11.8 L79.3 -10.85 79.3 -4.85 71.35 -5.45 68.2 -11.8 M79.3 4.2 L79.3 10.4 76.05 3.9 79.3 4.2 M79.3 14.85 L79.3 28.4 71.3 27.8 66.25 13.95 53.4 13.35 50.9 2.5 36.65 2.25 36.2 -6.75 48.8 -6.55 50.9 2.5 62.25 3.0 66.25 13.95 79.3 14.85 M79.3 38.85 L79.3 44.9 77.55 44.9 75.2 38.55 79.3 38.85 M60.75 44.9 L38.95 44.9 38.5 37.0 Q48.65 37.05 59.05 37.55 L56.6 26.95 71.3 27.8 75.2 38.55 59.05 37.55 60.75 44.9 M20.9 44.9 L9.6 44.9 10.65 37.65 21.75 37.2 20.9 44.9 M-3.15 44.9 L-15.4 44.9 -14.0 39.65 -1.6 38.5 1.0 27.75 12.25 27.05 10.65 37.65 -1.6 38.5 -3.15 44.9 M-16.95 40.0 L-16.95 29.4 -11.1 28.8 -14.0 39.65 -16.95 40.0 M-16.95 16.0 L-16.95 5.1 -4.45 3.9 -7.4 15.0 -16.95 16.0 M-16.95 4.7 L-16.95 -3.8 -13.9 -4.15 -16.95 4.7 M-11.45 -11.35 L-0.2 -12.2 -2.05 -5.25 -13.9 -4.15 -11.45 -11.35 M58.9 -6.2 L71.35 -5.45 76.05 3.9 62.25 3.0 58.9 -6.2 M37.95 26.5 L38.5 37.0 Q30.05 36.95 21.75 37.2 L22.95 26.65 Q30.4 26.45 37.95 26.5 M15.95 2.6 L14.3 13.5 4.3 14.05 6.95 3.05 15.95 2.6 M9.15 -6.0 L6.95 3.05 -4.45 3.9 -2.05 -5.25 9.15 -6.0 M4.3 14.05 L1.0 27.75 -11.1 28.8 -7.4 15.0 4.3 14.05" fill="#ffffff" fill-rule="evenodd" stroke="none"/>
    <path d="M13.95 -1.65 Q19.7 -1.65 23.75 -0.5 27.85 0.65 27.85 2.25 27.85 3.85 23.75 5.0 19.7 6.15 13.95 6.15 8.2 6.15 4.1 5.0 0.05 3.85 0.05 2.25 0.05 0.65 4.1 -0.5 8.2 -1.65 13.95 -1.65" fill="#333333" fill-opacity="0.2" fill-rule="evenodd" stroke="none"/>
    <path d="M56.6 26.95 L50.9 2.5 36.65 2.25 25.65 2.35 Q20.75 2.4 15.95 2.6 L12.25 27.05 22.95 26.65 Q30.4 26.45 37.95 26.5 47.15 26.55 56.6 26.95 M18.3 -13.0 L27.3 -13.15 35.8 -13.15 35.85 -13.15 47.3 -12.9 56.55 -12.55 68.05 -11.8 68.2 -11.8 79.3 -10.85 79.3 44.9 -16.95 44.9 -16.95 -10.85 -11.45 -11.35 -0.2 -12.2 10.8 -12.75 18.3 -13.0" fill="url(#gradient0)" fill-rule="evenodd" stroke="none"/>
    <path d="M63.5 27.55 Q51.7 31.65 34.95 31.65 18.2 31.65 6.35 27.55 -5.45 23.45 -5.45 17.65 -5.45 11.85 6.35 7.75 18.2 3.65 34.95 3.65 51.7 3.65 63.5 7.75 75.35 11.85 75.35 17.65 75.35 23.45 63.5 27.55" fill="#000000" fill-opacity="0.33333334" fill-rule="evenodd" stroke="none"/>
    <path d="M0.2 -26.65 L-0.7 -28.25 -0.7 -29.75 Q-0.7 -31.25 3.2 -32.35 L8.2 -33.2 12.7 -33.4 17.2 -33.2 22.2 -32.35 22.5 -32.25 Q26.1 -31.2 26.1 -29.75 L25.95 -28.25 25.9 -27.75 25.3 -26.9 24.9 -26.35 22.8 -25.85 22.2 -25.7 21.45 -25.5 16.2 -24.7 12.7 -24.6 12.6 -24.6 6.45 -25.0 3.95 -25.5 3.2 -25.7 0.2 -26.65 M24.25 -30.1 Q24.15 -31.05 22.3 -31.8 L20.9 -32.25 17.15 -32.95 12.7 -33.15 8.25 -32.95 4.5 -32.25 Q1.25 -31.35 1.15 -30.1 L1.15 -30.0 1.25 -29.55 Q1.7 -28.55 4.5 -27.8 7.9 -26.9 12.7 -26.85 17.5 -26.9 20.9 -27.8 23.65 -28.55 24.15 -29.55 L24.25 -30.0 24.25 -30.1" fill="#dcdcdc" fill-rule="evenodd" stroke="none"/>
    <path d="M24.25 -30.1 L24.25 -30.0 24.15 -29.55 Q23.65 -28.55 20.9 -27.8 17.5 -26.9 12.7 -26.85 7.9 -26.9 4.5 -27.8 1.7 -28.55 1.25 -29.55 L1.15 -30.0 1.15 -30.1 3.2 -30.85 Q7.1 -31.9 12.7 -31.9 18.25 -31.9 22.2 -30.85 L24.25 -30.1" fill="#333333" fill-rule="evenodd" stroke="none"/>
    <path d="M24.9 -26.35 L24.85 -26.3 Q24.4 -18.2 22.45 0.8 L22.5 1.25 Q22.5 2.5 19.65 3.45 16.8 4.35 12.75 4.4 L7.35 3.85 Q23.1 2.3 22.8 -25.85 L24.9 -26.35" fill="#004a25" fill-rule="evenodd" stroke="none"/>
    <path d="M1.7 -10.7 Q0.45 -21.35 0.2 -26.65 L3.2 -25.7 3.95 -25.5 6.45 -25.0 Q6.4 -11.3 1.7 -10.7" fill="#990000" fill-rule="evenodd" stroke="none"/>
    <path d="M2.6 -2.4 L1.7 -10.7 Q6.4 -11.3 6.45 -25.0 L12.6 -24.6 12.7 -24.6 16.2 -24.7 Q14.3 -5.5 2.6 -2.4" fill="#cccccc" fill-rule="evenodd" stroke="none"/>
    <path d="M7.35 3.85 L5.8 3.45 Q2.9 2.5 2.9 1.25 L2.95 1.05 2.95 0.95 2.6 -2.4 Q14.3 -5.5 16.2 -24.7 L21.45 -25.5 22.2 -25.7 22.8 -25.85 Q23.1 2.3 7.35 3.85" fill="#006633" fill-rule="evenodd" stroke="none"/>
    <path d="M61.15 25.35 Q50.3 29.3 34.95 29.3 19.6 29.3 8.75 25.35 -2.15 21.4 -2.1 15.85 -2.15 10.3 8.75 6.35 19.6 2.4 34.95 2.4 50.3 2.4 61.15 6.35 72.0 10.3 72.0 15.85 72.0 21.4 61.15 25.35" fill="#999999" fill-rule="evenodd" stroke="none"/>
    <path d="M61.15 25.35 Q50.3 29.3 34.95 29.3 19.6 29.3 8.75 25.35 -2.15 21.4 -2.1 15.85 -2.15 10.3 8.75 6.35 19.6 2.4 34.95 2.4 50.3 2.4 61.15 6.35 72.0 10.3 72.0 15.85 72.0 21.4 61.15 25.35 Z" fill="none" stroke="#666666" stroke-linecap="round" stroke-linejoin="round" stroke-width="1.0"/>
    <path d="M64.3 12.35 Q64.3 7.95 55.75 4.85 47.1 1.7 35.0 1.7 22.85 1.7 14.25 4.85 5.65 7.95 5.7 12.35 5.65 16.7 14.25 19.85 22.85 22.95 35.0 22.95 47.1 22.95 55.75 19.85 64.3 16.7 64.3 12.35 M70.3 13.45 Q70.3 19.0 60.0 22.95 49.7 26.9 35.15 26.9 20.6 26.9 10.3 22.95 0.0 19.0 0.0 13.45 0.0 7.9 10.3 3.95 20.6 0.0 35.15 0.0 49.7 0.0 60.0 3.95 70.3 7.9 70.3 13.45" fill="#996600" fill-rule="evenodd" stroke="none"/>
    <path d="M51.85 18.0 Q58.8 15.45 58.8 11.85 58.8 8.3 51.85 5.75 44.85 3.2 35.0 3.25 25.15 3.2 18.15 5.75 11.2 8.3 11.2 11.85 11.2 15.45 18.15 18.0 25.15 20.5 35.0 20.5 44.85 20.5 51.85 18.0 M64.3 12.35 Q64.3 16.7 55.75 19.85 47.1 22.95 35.0 22.95 22.85 22.95 14.25 19.85 5.65 16.7 5.7 12.35 5.65 7.95 14.25 4.85 22.85 1.7 35.0 1.7 47.1 1.7 55.75 4.85 64.3 7.95 64.3 12.35" fill="#e7cb05" fill-rule="evenodd" stroke="none"/>
    <path d="M51.85 18.0 Q44.85 20.5 35.0 20.5 25.15 20.5 18.15 18.0 11.2 15.45 11.2 11.85 11.2 8.3 18.15 5.75 25.15 3.2 35.0 3.25 44.85 3.2 51.85 5.75 58.8 8.3 58.8 11.85 58.8 15.45 51.85 18.0" fill="#fbe800" fill-rule="evenodd" stroke="none"/>
    <path d="M64.3 12.35 Q64.3 16.7 55.75 19.85 47.1 22.95 35.0 22.95 22.85 22.95 14.25 19.85 5.65 16.7 5.7 12.35 5.65 7.95 14.25 4.85 22.85 1.7 35.0 1.7 47.1 1.7 55.75 4.85 64.3 7.95 64.3 12.35 Z" fill="none" stroke="#663300" stroke-linecap="round" stroke-linejoin="round" stroke-width="1.0"/>
    <path d="M58.7 12.1 L55.95 12.65 Q54.35 12.65 53.2 12.1 52.05 11.55 52.05 10.75 52.05 9.95 53.2 9.4 54.35 8.85 55.95 8.85 57.55 8.85 58.7 9.4 59.85 9.95 59.85 10.75 59.85 11.55 58.7 12.1 M45.95 10.65 Q47.55 11.2 47.55 12.0 47.55 12.8 45.95 13.35 L42.05 13.9 Q39.75 13.9 38.15 13.35 36.55 12.8 36.55 12.0 36.55 11.2 38.15 10.65 39.75 10.1 42.05 10.1 44.35 10.1 45.95 10.65 M44.55 18.35 L42.7 18.65 40.8 18.35 Q40.05 18.05 40.05 17.65 40.05 17.25 40.8 16.95 L42.7 16.65 44.55 16.95 Q45.35 17.25 45.35 17.65 45.35 18.05 44.55 18.35 M37.05 6.4 L34.2 6.1 Q33.05 5.8 33.05 5.4 33.05 5.0 34.2 4.7 L37.05 4.4 39.85 4.7 Q41.05 5.0 41.05 5.4 41.05 5.8 39.85 6.1 L37.05 6.4 M22.5 10.25 Q20.95 10.9 18.8 10.9 16.65 10.9 15.1 10.25 13.55 9.65 13.55 8.75 13.55 7.85 15.1 7.2 16.65 6.6 18.8 6.6 20.95 6.6 22.5 7.2 24.05 7.85 24.05 8.75 24.05 9.65 22.5 10.25 M21.2 15.75 L18.05 16.15 14.85 15.75 Q13.55 15.4 13.55 14.9 13.55 14.4 14.85 14.0 L18.05 13.65 21.2 14.0 Q22.55 14.4 22.55 14.9 22.55 15.4 21.2 15.75 M29.55 14.4 L32.0 14.85 Q33.05 15.3 33.05 15.9 33.05 16.5 32.0 16.95 L29.55 17.4 27.05 16.95 Q26.05 16.5 26.05 15.9 26.05 15.3 27.05 14.85 L29.55 14.4" fill="#c70701" fill-rule="evenodd" stroke="none"/>
    <path d="M58.7 12.1 L55.95 12.65 Q54.35 12.65 53.2 12.1 52.05 11.55 52.05 10.75 52.05 9.95 53.2 9.4 54.35 8.85 55.95 8.85 57.55 8.85 58.7 9.4 59.85 9.95 59.85 10.75 59.85 11.55 58.7 12.1 M45.95 10.65 Q47.55 11.2 47.55 12.0 47.55 12.8 45.95 13.35 L42.05 13.9 Q39.75 13.9 38.15 13.35 36.55 12.8 36.55 12.0 36.55 11.2 38.15 10.65 39.75 10.1 42.05 10.1 44.35 10.1 45.95 10.65 M44.55 18.35 L42.7 18.65 40.8 18.35 Q40.05 18.05 40.05 17.65 40.05 17.25 40.8 16.95 L42.7 16.65 44.55 16.95 Q45.35 17.25 45.35 17.65 45.35 18.05 44.55 18.35 M37.05 6.4 L34.2 6.1 Q33.05 5.8 33.05 5.4 33.05 5.0 34.2 4.7 L37.05 4.4 39.85 4.7 Q41.05 5.0 41.05 5.4 41.05 5.8 39.85 6.1 L37.05 6.4 M22.5 10.25 Q20.95 10.9 18.8 10.9 16.65 10.9 15.1 10.25 13.55 9.65 13.55 8.75 13.55 7.85 15.1 7.2 16.65 6.6 18.8 6.6 20.95 6.6 22.5 7.2 24.05 7.85 24.05 8.75 24.05 9.65 22.5 10.25 M21.2 15.75 L18.05 16.15 14.85 15.75 Q13.55 15.4 13.55 14.9 13.55 14.4 14.85 14.0 L18.05 13.65 21.2 14.0 Q22.55 14.4 22.55 14.9 22.55 15.4 21.2 15.75 M29.55 14.4 L32.0 14.85 Q33.05 15.3 33.05 15.9 33.05 16.5 32.0 16.95 L29.55 17.4 27.05 16.95 Q26.05 16.5 26.05 15.9 26.05 15.3 27.05 14.85 L29.55 14.4 Z" fill="none" stroke="#6e0c00" stroke-linecap="round" stroke-linejoin="round" stroke-width="0.5"/>
  </g>
  <defs>
    <linearGradient gradientTransform="matrix(-2.0E-4, 0.0347, -0.0355, -2.0E-4, 31.15, 15.85)" gradientUnits="userSpaceOnUse" id="gradient0" spreadMethod="pad" x1="-819.2" x2="819.2">
      <stop offset="0.0" stop-color="#3c3c3c"/>
      <stop offset="0.19215686274509805" stop-color="#000000" stop-opacity="0.5137255"/>
      <stop offset="0.3843137254901961" stop-color="#000000" stop-opacity="0.15294118"/>
      <stop offset="1.0" stop-color="#000000" stop-opacity="0.0"/>
    </linearGradient>
  </defs>
</svg>
