<?xml version="1.0" encoding="UTF-8" standalone="no"?>
<svg xmlns:ffdec="https://www.free-decompiler.com/flash" xmlns:xlink="http://www.w3.org/1999/xlink" ffdec:objectType="shape" height="375.7px" width="227.95px" xmlns="http://www.w3.org/2000/svg">
  <g transform="matrix(1.0, 0.0, 0.0, 1.0, 228.55, 217.0)">
    <path d="M-134.05 -217.0 L-134.05 -137.0 -187.0 -111.0 -187.0 -202.0 -134.05 -217.0" fill="url(#gradient0)" fill-rule="evenodd" stroke="none"/>
    <path d="M-189.85 -172.95 L-189.6 -172.95 -189.6 -108.55 -189.65 -108.5 -189.7 -108.45 -189.75 -108.45 -227.5 -86.85 -227.55 -86.8 -227.65 -86.9 -227.65 -86.95 -227.6 -87.05 -227.55 -87.05 -189.95 -108.6 -189.9 -108.55 -189.85 -108.5 -189.85 -108.55 -189.85 -108.65 -189.95 -108.6 -192.7 -110.25 -192.75 -110.25 -192.75 -110.3 -192.75 -110.4 -192.65 -110.45 -192.55 -110.45 -192.55 -110.4 -189.85 -108.8 -189.85 -172.95 M-185.0 -172.95 L-184.75 -172.95 -184.75 -114.75 -184.75 -111.6 -134.45 -140.4 -137.05 -141.55 -137.1 -141.65 -137.1 -141.75 -137.05 -141.8 -137.0 -141.8 -136.95 -141.8 -134.3 -140.65 -134.35 -172.95 -134.1 -172.95 -134.05 -140.5 -134.05 -140.4 -134.1 -140.35 -134.15 -140.3 -134.2 -140.3 -184.75 -111.35 -184.8 -111.3 -184.9 -111.25 -185.0 -111.3 -185.0 -111.4 -185.0 -172.95 M-129.5 -172.95 L-129.2 -172.95 -129.2 -172.05 -129.2 -162.15 -129.2 -154.85 -129.2 -146.1 -129.2 -143.45 -77.7 -172.95 -77.3 -172.95 -129.2 -143.2 -129.25 -143.15 -129.35 -143.1 -129.45 -143.15 -129.45 -143.25 -129.5 -172.95 M-66.8 -172.95 L-63.95 -172.95 -63.95 -172.9 -64.05 -172.4 Q-64.2 -172.2 -64.45 -172.05 L-227.05 -75.4 -227.8 -75.25 Q-228.2 -75.4 -228.4 -75.75 L-228.5 -76.5 -228.05 -77.1 -227.55 -77.4 -66.8 -172.95 M-102.0 -40.7 L-93.75 -48.45 -81.65 -59.9 -81.3 -60.2 -81.45 -59.9 -81.3 -59.55 -80.95 -59.4 Q-80.75 -59.4 -80.6 -59.5 L-80.95 -59.2 -80.95 -59.15 -93.05 -47.7 -101.0 -40.25 -102.0 -40.7 M-81.0 -60.45 L-64.05 -76.8 -63.7 -76.95 -2.1 -76.95 -1.95 -76.9 -1.75 -76.8 -1.6 -76.6 Q0.4 -73.2 -1.6 -69.8 L-1.65 -69.7 -5.3 -65.75 -5.4 -65.6 -6.3 -64.6 -20.7 -47.75 Q-50.5 -13.1 -80.9 20.7 L-116.35 59.65 Q-142.35 87.75 -168.65 115.3 L-168.8 115.4 -169.0 115.45 -178.5 115.45 -179.5 115.45 -227.55 115.45 -227.9 115.3 -228.05 114.95 -227.9 114.6 Q-227.75 114.45 -227.55 114.45 L-169.2 114.45 -168.5 113.75 -156.05 100.65 -117.1 58.95 -81.65 20.05 Q-51.25 -13.8 -21.45 -48.4 L-18.8 -51.5 -6.2 -66.25 -2.4 -70.35 Q-0.95 -73.0 -2.2 -75.6 L-23.65 -51.25 -26.75 -47.75 Q-53.45 -17.9 -80.9 11.55 -103.5 35.75 -126.65 59.65 -147.4 81.1 -168.65 102.35 L-168.85 102.5 -169.0 102.5 -227.55 102.5 -227.9 102.35 -228.05 102.0 -227.9 101.65 Q-227.75 101.5 -227.55 101.5 L-169.2 101.5 Q-148.05 80.3 -127.35 58.95 -104.2 35.05 -81.65 10.85 -54.15 -18.6 -27.5 -48.4 L-24.4 -51.9 -22.6 -53.95 -3.2 -75.95 -63.5 -75.95 -79.6 -60.45 -80.35 -59.7 -80.25 -59.9 -80.25 -60.2 -80.3 -60.25 -80.4 -60.4 -80.6 -60.5 -80.95 -60.5 -81.0 -60.45 M-227.55 71.2 L-227.6 71.2 -227.9 71.05 -228.05 70.65 -227.85 70.35 -214.2 58.95 -183.5 32.7 -183.5 34.0 -213.55 59.7 -227.2 71.1 -227.55 71.2" fill="#335021" fill-rule="evenodd" stroke="none"/>
    <path d="M-184.75 -114.75 L-137.1 -141.65 -137.05 -141.55 -134.45 -140.4 -184.75 -111.6 -184.75 -114.75 M-137.0 -141.8 L-137.0 -172.95 -134.35 -172.95 -134.3 -140.65 -136.95 -141.8 -137.0 -141.8 M-81.55 -172.95 L-77.7 -172.95 -129.2 -143.45 -129.2 -146.1 -81.55 -172.95 M-227.55 -87.05 L-227.55 -90.65 -192.75 -110.25 -192.7 -110.25 -189.95 -108.6 -189.85 -108.65 -189.85 -108.55 -189.9 -108.55 -189.95 -108.6 -227.55 -87.05 M-192.55 -172.95 L-189.85 -172.95 -189.85 -108.8 -192.55 -110.4 -192.55 -120.1 -192.55 -129.05 -192.55 -140.3 -192.55 -153.1 -192.55 -163.35 -192.55 -172.95 M-227.55 101.5 L-227.55 71.2 -227.2 71.1 -213.55 59.7 -183.5 34.0 -183.5 35.25 -183.5 40.3 -187.5 44.85 Q-182.1 45.25 -176.3 45.15 -175.15 44.2 -173.7 43.9 -148.7 46.8 -121.6 45.85 -100.95 27.55 -85.1 9.2 -91.05 8.9 -97.6 8.95 -93.0 -14.9 -99.05 -38.7 L-99.15 -38.95 -99.2 -39.0 -99.25 -39.05 -101.0 -40.25 -93.05 -47.7 -80.95 -59.15 -80.95 -59.2 -80.6 -59.5 -80.55 -59.55 -80.5 -59.6 -80.4 -59.7 -80.35 -59.7 -79.6 -60.45 Q-74.5 -62.3 -67.25 -68.0 -59.2 -74.4 -44.7 -73.3 -12.3 -72.5 -22.6 -53.95 L-24.4 -51.9 -27.5 -48.4 Q-54.15 -18.6 -81.65 10.85 -104.2 35.05 -127.35 58.95 -148.05 80.3 -169.2 101.5 L-227.55 101.5" fill="#659f42" fill-rule="evenodd" stroke="none"/>
    <path d="M-189.6 -172.95 L-185.0 -172.95 -185.0 -111.4 -185.0 -111.3 -184.9 -111.25 -184.8 -111.3 -184.75 -111.35 -134.2 -140.3 -134.15 -140.3 -134.1 -140.35 -134.05 -140.4 -134.05 -140.5 -134.1 -172.95 -129.5 -172.95 -129.45 -143.25 -129.45 -143.15 -129.35 -143.1 -129.25 -143.15 -129.2 -143.2 -77.3 -172.95 -66.8 -172.95 -227.55 -77.4 -227.55 -86.8 -227.5 -86.85 -189.75 -108.45 -189.7 -108.45 -189.65 -108.5 -189.6 -108.55 -189.6 -172.95 M-189.85 -108.55 L-189.85 -108.5 -189.9 -108.55 -189.85 -108.55 M-81.3 -60.2 L-81.3 -60.25 -81.25 -60.25 -81.2 -60.3 -81.0 -60.45 -80.95 -60.5 -80.6 -60.5 -80.4 -60.4 -80.3 -60.25 -80.25 -60.2 -80.25 -59.9 -80.35 -59.7 -80.4 -59.7 -80.5 -59.6 -80.55 -59.55 -80.6 -59.5 Q-80.75 -59.4 -80.95 -59.4 L-81.3 -59.55 -81.45 -59.9 -81.3 -60.2 M-168.85 102.5 L-168.65 102.35 Q-147.4 81.1 -126.65 59.65 -103.5 35.75 -80.9 11.55 -53.45 -17.9 -26.75 -47.75 L-23.65 -51.25 -2.2 -75.6 Q-0.95 -73.0 -2.4 -70.35 L-6.2 -66.25 -18.8 -51.5 -21.45 -48.4 Q-51.25 -13.8 -81.65 20.05 L-117.1 58.95 -156.05 100.65 -168.5 113.75 Q-166.85 108.85 -168.85 102.5" fill="#4f7b33" fill-rule="evenodd" stroke="none"/>
    <path d="M-227.55 -161.45 L-227.55 -172.95 -200.5 -172.95 -227.55 -161.45" fill="#494949" fill-rule="evenodd" stroke="none"/>
    <path d="M-129.2 -172.95 L-127.45 -172.95 -129.2 -172.05 -129.2 -172.95 M-108.55 -172.95 L-102.1 -172.95 -103.65 -172.5 -103.4 -171.75 -102.9 -171.65 Q-101.9 -172.45 -101.55 -172.95 L-99.1 -172.95 -99.15 -172.25 -98.9 -172.25 -98.65 -172.95 -96.25 -172.95 -129.2 -154.85 -129.2 -162.15 -108.55 -172.95 M-227.55 -100.9 L-227.55 -110.8 -192.55 -129.05 -192.55 -120.1 -227.55 -100.9 M-227.55 -122.7 L-227.55 -136.5 -192.55 -153.1 -192.55 -140.3 -227.55 -122.7 M-227.55 -147.55 L-227.55 -161.45 -200.5 -172.95 -192.55 -172.95 -192.55 -163.35 -227.55 -147.55 M-201.25 -164.4 L-200.65 -164.75 -200.25 -166.6 Q-200.6 -166.1 -201.35 -165.9 -201.9 -165.7 -201.9 -165.2 -201.9 -164.55 -201.25 -164.4 M-199.1 -165.8 Q-199.05 -166.15 -199.5 -166.15 L-200.15 -166.0 -200.1 -165.25 -198.9 -164.95 -197.15 -165.0 Q-199.2 -165.35 -199.1 -165.8 M-202.65 -163.25 L-204.0 -163.5 -204.25 -163.35 -202.65 -163.25 M-207.25 -161.25 L-207.35 -161.5 -207.5 -163.35 Q-208.9 -160.9 -208.9 -160.2 -208.9 -159.55 -208.75 -160.0 L-207.75 -162.1 -207.4 -161.0 Q-206.0 -161.2 -205.45 -161.9 L-205.0 -162.85 -205.7 -161.9 Q-206.25 -161.25 -207.25 -161.25 M-203.5 -144.9 L-204.0 -144.75 -204.15 -144.3 -203.4 -141.35 Q-204.1 -140.5 -204.9 -140.5 -206.0 -141.85 -206.75 -142.15 L-206.9 -142.05 -204.95 -140.25 Q-203.9 -140.25 -203.5 -140.85 L-203.35 -141.15 -203.25 -140.75 Q-202.35 -137.65 -201.75 -136.65 L-201.5 -137.0 -201.4 -137.75 -201.85 -137.4 -203.1 -141.75 -203.0 -142.05 -203.1 -141.8 -203.4 -143.35 Q-202.9 -143.7 -202.9 -144.35 -202.9 -144.9 -203.5 -144.9 M-221.35 -108.0 L-221.65 -108.25 -221.65 -109.4 -221.25 -110.35 Q-221.9 -109.85 -221.9 -108.95 -221.9 -108.15 -221.5 -107.75 -220.15 -108.05 -219.75 -110.1 L-220.0 -110.0 Q-220.5 -108.35 -221.35 -108.0 M-226.55 -106.3 Q-226.55 -105.7 -226.25 -106.15 -222.7 -107.3 -222.0 -108.85 -222.6 -108.85 -224.5 -107.85 -226.55 -106.85 -226.55 -106.3 M-200.75 -141.35 L-200.9 -140.85 Q-200.9 -140.3 -200.25 -140.15 -199.8 -140.3 -199.65 -140.75 -199.9 -141.35 -200.25 -141.4 L-200.75 -141.35 M-200.75 -144.6 L-201.5 -144.35 -201.1 -144.3 Q-200.75 -144.45 -200.75 -144.6 M-197.65 -146.5 L-198.5 -146.75 -198.9 -145.9 -198.9 -144.25 Q-197.5 -144.6 -197.5 -143.4 -197.5 -142.55 -197.9 -142.0 L-197.5 -142.0 -197.15 -143.25 Q-197.15 -143.8 -197.5 -144.6 L-198.65 -144.5 -198.65 -145.85 -197.65 -146.5 M-195.35 -144.65 L-195.15 -145.25 Q-195.15 -145.85 -195.75 -146.25 -196.4 -146.0 -196.4 -145.3 L-196.15 -144.5 -195.35 -144.65 M-195.85 -145.75 L-195.5 -145.75 -195.6 -144.75 -195.9 -144.75 -195.85 -145.75 M-201.25 -121.5 L-201.0 -122.15 -200.9 -122.0 -200.65 -117.9 -200.4 -118.0 -200.35 -119.2 Q-200.35 -120.8 -200.75 -122.65 -201.4 -122.2 -201.4 -121.8 -201.4 -121.2 -201.25 -121.5 M-197.35 -122.2 L-197.4 -122.75 -197.25 -124.0 Q-196.4 -123.8 -196.4 -123.2 -196.4 -122.35 -196.85 -121.25 L-196.75 -121.0 Q-196.15 -122.1 -196.15 -123.35 -196.15 -124.1 -197.25 -124.4 -197.65 -123.9 -197.65 -122.8 L-197.35 -122.2 M-195.0 -123.5 L-195.4 -123.5 Q-195.4 -124.1 -195.0 -124.1 L-195.0 -123.5 M-194.9 -122.0 L-194.65 -123.5 Q-194.65 -124.05 -195.0 -124.35 -195.65 -124.0 -195.65 -123.2 L-195.35 -122.3 -195.4 -122.75 -195.25 -123.4 Q-195.1 -123.25 -195.1 -122.25 L-195.3 -122.25 -195.0 -121.9 -194.9 -122.0 M-105.65 -170.0 L-106.0 -170.15 Q-107.15 -170.85 -107.9 -169.25 -107.75 -169.25 -107.1 -169.75 L-106.75 -169.5 Q-106.65 -169.4 -105.65 -170.0 M-108.1 -168.85 L-107.9 -169.4 -108.5 -169.9 -109.15 -169.35 -109.1 -169.0 -108.5 -168.65 Q-107.9 -168.65 -108.1 -168.85 M-112.0 -167.25 L-113.25 -167.25 -114.25 -166.5 -112.35 -166.25 -112.4 -166.15 -111.85 -166.35 -112.0 -167.25 M-113.9 -165.5 L-113.35 -165.75 -113.5 -165.75 -114.2 -165.95 -115.65 -165.1 -114.65 -164.9 Q-114.05 -164.9 -113.9 -165.5 M-117.0 -163.4 L-116.5 -163.6 -116.4 -164.2 -117.0 -165.1 -117.65 -164.2 -117.0 -163.4 M-120.9 -163.0 L-120.65 -161.75 Q-119.65 -161.75 -119.5 -162.1 L-120.55 -162.2 -120.75 -163.1 -120.9 -163.0 M-122.75 -161.65 L-122.85 -160.95 -124.0 -160.1 Q-123.9 -159.9 -123.25 -159.85 L-122.9 -160.15 -122.85 -160.2 -122.9 -159.25 Q-122.1 -159.9 -121.25 -162.1 L-122.65 -160.0 -122.75 -161.65" fill="#ffcc00" fill-rule="evenodd" stroke="none"/>
    <path d="M-127.45 -172.95 L-118.85 -172.95 -119.75 -171.85 Q-121.45 -169.6 -122.4 -168.9 L-122.75 -170.85 -122.9 -170.85 -124.15 -168.7 Q-124.15 -168.15 -123.75 -167.75 L-123.75 -168.0 Q-123.9 -168.75 -122.9 -170.25 L-122.9 -168.4 Q-121.5 -169.05 -120.55 -170.25 L-119.1 -172.15 -119.05 -171.2 Q-118.95 -170.4 -118.0 -170.4 -117.4 -170.4 -117.0 -170.75 L-117.0 -171.1 Q-118.0 -170.7 -118.5 -171.1 L-118.5 -172.25 -118.2 -172.95 -114.25 -172.95 Q-114.25 -172.65 -114.15 -172.9 L-114.0 -172.95 -108.55 -172.95 -129.2 -162.15 -129.2 -172.05 -127.45 -172.95 M-96.25 -172.95 L-81.55 -172.95 -129.2 -146.1 -129.2 -154.85 -96.25 -172.95 M-227.55 -90.65 L-227.55 -100.9 -192.55 -120.1 -192.55 -110.4 -192.55 -110.45 -192.65 -110.45 -192.75 -110.4 -192.75 -110.3 -192.75 -110.25 -227.55 -90.65 M-227.55 -110.8 L-227.55 -122.7 -192.55 -140.3 -192.55 -129.05 -227.55 -110.8 M-227.55 -136.5 L-227.55 -147.55 -192.55 -163.35 -192.55 -153.1 -227.55 -136.5 M-199.9 -155.35 L-199.75 -156.1 -200.55 -155.4 -200.9 -154.6 -200.9 -153.5 -200.45 -153.5 -200.25 -153.4 Q-199.15 -153.75 -199.15 -155.35 L-199.25 -155.6 -199.4 -155.6 -199.65 -154.5 -199.65 -154.6 -199.9 -155.35 M-196.65 -157.0 Q-196.5 -157.25 -196.5 -157.6 L-196.9 -157.15 -196.9 -154.75 -196.5 -154.75 -196.1 -155.65 -196.25 -156.25 -196.5 -155.85 Q-196.5 -155.1 -196.65 -155.0 L-196.65 -157.0 M-205.5 -152.75 L-205.4 -152.85 -205.75 -153.3 -205.5 -152.75 M-203.9 -152.35 Q-203.65 -153.5 -203.75 -153.85 L-204.4 -152.6 Q-204.7 -151.75 -205.55 -151.75 L-206.4 -152.0 -206.25 -153.25 -205.75 -153.35 -206.25 -153.65 -206.6 -153.35 -206.65 -152.5 -206.65 -151.95 Q-206.4 -151.4 -205.0 -151.4 L-204.15 -152.35 Q-203.85 -151.5 -203.15 -151.25 L-203.9 -152.35 M-203.0 -127.35 L-203.1 -127.4 -203.1 -129.65 -203.0 -129.75 Q-202.4 -129.75 -202.4 -128.95 -202.4 -128.1 -203.0 -127.35 M-203.5 -128.85 Q-203.5 -127.3 -203.0 -126.85 -202.15 -127.9 -202.15 -128.95 L-203.1 -130.65 -202.4 -132.0 Q-203.5 -132.25 -203.5 -128.85 M-220.5 -100.6 L-220.4 -100.25 Q-220.25 -99.4 -219.75 -99.0 -220.1 -100.25 -220.5 -100.9 -221.1 -100.75 -222.0 -97.85 L-222.9 -99.65 -224.4 -98.0 -224.25 -98.0 -222.85 -99.1 Q-222.55 -98.1 -222.0 -97.6 -222.7 -96.85 -223.9 -93.75 -223.0 -94.15 -222.65 -95.3 L-222.0 -97.15 -221.65 -96.85 -221.75 -97.4 -220.5 -100.6 M-218.65 -100.1 L-218.0 -99.4 Q-217.15 -99.7 -217.15 -100.75 L-217.5 -101.6 Q-218.65 -101.3 -218.65 -100.1 M-199.65 -129.85 L-200.15 -128.0 -200.0 -128.0 Q-199.4 -128.85 -199.4 -129.35 L-199.5 -129.85 -199.65 -129.85 M-197.35 -133.25 L-196.75 -131.5 Q-197.8 -132.1 -198.15 -131.75 L-198.15 -130.65 -198.0 -130.1 Q-197.9 -129.75 -197.0 -129.85 L-196.0 -130.65 Q-196.4 -133.65 -197.25 -133.65 L-198.75 -132.75 -198.5 -132.65 -198.35 -132.7 -198.5 -132.5 -198.25 -132.4 -197.9 -132.9 -197.9 -132.95 -197.35 -133.25 M-196.75 -130.85 L-196.75 -130.5 -197.75 -130.25 Q-197.75 -130.6 -197.9 -130.6 L-197.9 -131.5 -197.25 -131.45 Q-196.75 -131.15 -196.75 -130.85 M-195.9 -134.25 L-195.85 -134.5 -194.65 -134.75 Q-194.95 -135.2 -196.15 -134.75 -196.7 -133.6 -195.25 -132.75 L-195.25 -132.85 Q-195.9 -133.65 -195.9 -134.25 M-194.4 -113.9 L-194.5 -113.9 -194.6 -114.3 -194.5 -114.65 -194.4 -113.9 M-196.75 -113.0 L-196.15 -113.0 -196.15 -111.75 -196.25 -111.75 -196.75 -113.0 M-194.75 -116.35 L-194.9 -116.35 -195.0 -114.25 -194.25 -113.4 -194.15 -114.2 Q-194.15 -115.2 -194.75 -116.35 M-197.9 -111.85 L-197.85 -111.5 Q-197.55 -111.15 -197.25 -111.15 -196.65 -111.15 -196.85 -111.35 L-196.65 -111.9 -197.25 -112.4 -197.9 -111.85 M-199.5 -114.9 L-199.75 -114.9 -199.75 -112.75 -199.65 -112.4 Q-200.85 -111.5 -201.65 -111.5 L-201.75 -113.35 -201.9 -113.35 -201.9 -111.25 -201.0 -111.15 -199.65 -112.2 Q-199.5 -111.1 -199.5 -109.15 L-199.0 -109.1 -198.65 -110.15 -198.9 -110.25 -199.1 -109.75 -199.1 -109.85 -199.3 -112.5 -199.0 -112.85 -199.15 -112.85 -199.3 -112.7 -199.5 -114.9 M-197.5 -115.4 L-198.15 -114.85 -198.0 -114.75 -196.45 -114.7 -196.25 -113.5 -197.15 -113.25 Q-196.45 -111.4 -196.0 -111.25 L-195.9 -112.9 -195.65 -112.9 -195.0 -112.0 -194.9 -112.15 Q-195.85 -115.4 -197.5 -115.4 M-105.0 -164.65 L-105.25 -164.65 -104.5 -163.75 -105.0 -164.65 M-101.35 -165.9 L-101.35 -167.0 -101.25 -167.15 -100.4 -167.15 -99.35 -167.0 Q-99.9 -165.5 -100.25 -165.5 L-101.2 -165.75 -100.75 -165.35 Q-101.1 -165.15 -100.9 -164.85 -99.7 -165.15 -99.25 -165.9 L-98.5 -167.25 Q-98.8 -167.75 -101.25 -167.75 -101.75 -167.75 -101.75 -167.25 -101.75 -166.45 -101.35 -165.9 M-107.9 -162.1 Q-107.9 -162.65 -108.5 -162.65 -109.4 -162.65 -109.15 -161.5 -108.25 -161.7 -108.25 -161.2 L-108.4 -160.5 -109.25 -160.5 -109.75 -161.15 -109.9 -160.75 -109.7 -160.5 -110.25 -160.65 -110.5 -160.3 -112.65 -160.15 -110.6 -159.9 -110.65 -159.75 -110.5 -159.75 -110.3 -159.9 -110.25 -159.9 -109.65 -160.4 -109.65 -160.35 -108.25 -160.15 -107.9 -162.1 M-116.5 -172.25 L-116.5 -172.4 -117.4 -172.35 -116.5 -172.25 M-116.65 -158.0 L-116.5 -158.0 -116.25 -159.1 Q-116.65 -158.85 -116.65 -158.0 M-119.9 -155.45 L-120.0 -155.85 -121.25 -154.75 -121.25 -155.0 Q-121.05 -155.55 -121.25 -156.15 -123.85 -153.8 -123.5 -151.5 -123.05 -151.35 -122.9 -151.75 -123.15 -152.3 -122.65 -153.65 -122.15 -155.0 -121.5 -155.5 L-122.0 -153.35 -121.9 -152.9 -121.75 -152.9 -120.9 -154.25 Q-120.85 -153.75 -120.5 -154.15 -119.9 -154.85 -119.9 -155.45 M-113.9 -159.25 L-113.15 -159.25 -113.75 -159.4 -113.9 -159.25" fill="#fff200" fill-rule="evenodd" stroke="none"/>
    <path d="M-118.85 -172.95 L-118.2 -172.95 -118.5 -172.25 -118.5 -171.1 Q-118.0 -170.7 -117.0 -171.1 L-117.0 -170.75 Q-117.4 -170.4 -118.0 -170.4 -118.95 -170.4 -119.05 -171.2 L-119.1 -172.15 -120.55 -170.25 Q-121.5 -169.05 -122.9 -168.4 L-122.9 -170.25 Q-123.9 -168.75 -123.75 -168.0 L-123.75 -167.75 Q-124.15 -168.15 -124.15 -168.7 L-122.9 -170.85 -122.75 -170.85 -122.4 -168.9 Q-121.45 -169.6 -119.75 -171.85 L-118.85 -172.95 M-114.25 -172.95 L-114.0 -172.95 -114.15 -172.9 Q-114.25 -172.65 -114.25 -172.95 M-102.1 -172.95 L-101.55 -172.95 Q-101.9 -172.45 -102.9 -171.65 L-103.4 -171.75 -103.65 -172.5 -102.1 -172.95 M-99.1 -172.95 L-98.65 -172.95 -98.9 -172.25 -99.15 -172.25 -99.1 -172.95 M-199.1 -165.8 Q-199.2 -165.35 -197.15 -165.0 L-198.9 -164.95 -200.1 -165.25 -200.15 -166.0 -199.5 -166.15 Q-199.05 -166.15 -199.1 -165.8 M-201.25 -164.4 Q-201.9 -164.55 -201.9 -165.2 -201.9 -165.7 -201.35 -165.9 -200.6 -166.1 -200.25 -166.6 L-200.65 -164.75 -201.25 -164.4 M-196.65 -157.0 L-196.65 -155.0 Q-196.5 -155.1 -196.5 -155.85 L-196.25 -156.25 -196.1 -155.65 -196.5 -154.75 -196.9 -154.75 -196.9 -157.15 -196.5 -157.6 Q-196.5 -157.25 -196.65 -157.0 M-199.9 -155.35 L-199.65 -154.6 -199.65 -154.5 -199.4 -155.6 -199.25 -155.6 -199.15 -155.35 Q-199.15 -153.75 -200.25 -153.4 L-200.45 -153.5 -200.9 -153.5 -200.9 -154.6 -200.55 -155.4 -199.75 -156.1 -199.9 -155.35 M-207.25 -161.25 Q-206.25 -161.25 -205.7 -161.9 L-205.0 -162.85 -205.45 -161.9 Q-206.0 -161.2 -207.4 -161.0 L-207.75 -162.1 -208.75 -160.0 Q-208.9 -159.55 -208.9 -160.2 -208.9 -160.9 -207.5 -163.35 L-207.35 -161.5 -207.25 -161.25 M-202.65 -163.25 L-204.25 -163.35 -204.0 -163.5 -202.65 -163.25 M-203.9 -152.35 L-203.15 -151.25 Q-203.85 -151.5 -204.15 -152.35 L-205.0 -151.4 Q-206.4 -151.4 -206.65 -151.95 L-206.65 -152.5 -206.6 -153.35 -206.25 -153.65 -205.75 -153.35 -206.25 -153.25 -206.4 -152.0 -205.55 -151.75 Q-204.7 -151.75 -204.4 -152.6 L-203.75 -153.85 Q-203.65 -153.5 -203.9 -152.35 M-205.5 -152.75 L-205.75 -153.3 -205.4 -152.85 -205.5 -152.75 M-203.5 -144.9 Q-202.9 -144.9 -202.9 -144.35 -202.9 -143.7 -203.4 -143.35 L-203.1 -141.8 -203.0 -142.05 -203.1 -141.75 -201.85 -137.4 -201.4 -137.75 -201.5 -137.0 -201.75 -136.65 Q-202.35 -137.65 -203.25 -140.75 L-203.35 -141.15 -203.5 -140.85 Q-203.9 -140.25 -204.95 -140.25 L-206.9 -142.05 -206.75 -142.15 Q-206.0 -141.85 -204.9 -140.5 -204.1 -140.5 -203.4 -141.35 L-204.15 -144.3 -204.0 -144.75 -203.5 -144.9 M-203.5 -128.85 Q-203.5 -132.25 -202.4 -132.0 L-203.1 -130.65 -202.15 -128.95 Q-202.15 -127.9 -203.0 -126.85 -203.5 -127.3 -203.5 -128.85 M-203.0 -127.35 Q-202.4 -128.1 -202.4 -128.95 -202.4 -129.75 -203.0 -129.75 L-203.1 -129.65 -203.1 -127.4 -203.0 -127.35 M-226.55 -106.3 Q-226.55 -106.85 -224.5 -107.85 -222.6 -108.85 -222.0 -108.85 -222.7 -107.3 -226.25 -106.15 -226.55 -105.7 -226.55 -106.3 M-221.35 -108.0 Q-220.5 -108.35 -220.0 -110.0 L-219.75 -110.1 Q-220.15 -108.05 -221.5 -107.75 -221.9 -108.15 -221.9 -108.95 -221.9 -109.85 -221.25 -110.35 L-221.65 -109.4 -221.65 -108.25 -221.35 -108.0 M-218.65 -100.1 Q-218.65 -101.3 -217.5 -101.6 L-217.15 -100.75 Q-217.15 -99.7 -218.0 -99.4 L-218.65 -100.1 M-220.5 -100.6 L-221.75 -97.4 -221.65 -96.85 -222.0 -97.15 -222.65 -95.3 Q-223.0 -94.15 -223.9 -93.75 -222.7 -96.85 -222.0 -97.6 -222.55 -98.1 -222.85 -99.1 L-224.25 -98.0 -224.4 -98.0 -222.9 -99.65 -222.0 -97.85 Q-221.1 -100.75 -220.5 -100.9 -220.1 -100.25 -219.75 -99.0 -220.25 -99.4 -220.4 -100.25 L-220.5 -100.6 M-195.85 -145.75 L-195.9 -144.75 -195.6 -144.75 -195.5 -145.75 -195.85 -145.75 M-195.35 -144.65 L-196.15 -144.5 -196.4 -145.3 Q-196.4 -146.0 -195.75 -146.25 -195.15 -145.85 -195.15 -145.25 L-195.35 -144.65 M-197.65 -146.5 L-198.65 -145.85 -198.65 -144.5 -197.5 -144.6 Q-197.15 -143.8 -197.15 -143.25 L-197.5 -142.0 -197.9 -142.0 Q-197.5 -142.55 -197.5 -143.4 -197.5 -144.6 -198.9 -144.25 L-198.9 -145.9 -198.5 -146.75 -197.65 -146.5 M-200.75 -144.6 Q-200.75 -144.45 -201.1 -144.3 L-201.5 -144.35 -200.75 -144.6 M-200.75 -141.35 L-200.25 -141.4 Q-199.9 -141.35 -199.65 -140.75 -199.8 -140.3 -200.25 -140.15 -200.9 -140.3 -200.9 -140.85 L-200.75 -141.35 M-195.9 -134.25 Q-195.9 -133.65 -195.25 -132.85 L-195.25 -132.75 Q-196.7 -133.6 -196.15 -134.75 -194.95 -135.2 -194.65 -134.75 L-195.85 -134.5 -195.9 -134.25 M-196.75 -130.85 Q-196.75 -131.15 -197.25 -131.45 L-197.9 -131.5 -197.9 -130.6 Q-197.75 -130.6 -197.75 -130.25 L-196.75 -130.5 -196.75 -130.85 M-197.35 -133.25 L-197.9 -132.95 -197.9 -132.9 -198.25 -132.4 -198.5 -132.5 -198.35 -132.7 -198.5 -132.65 -198.75 -132.75 -197.25 -133.65 Q-196.4 -133.65 -196.0 -130.65 L-197.0 -129.85 Q-197.9 -129.75 -198.0 -130.1 L-198.15 -130.65 -198.15 -131.75 Q-197.8 -132.1 -196.75 -131.5 L-197.35 -133.25 M-199.65 -129.85 L-199.5 -129.85 -199.4 -129.35 Q-199.4 -128.85 -200.0 -128.0 L-200.15 -128.0 -199.65 -129.85 M-194.9 -122.0 L-195.0 -121.9 -195.3 -122.25 -195.1 -122.25 Q-195.1 -123.25 -195.25 -123.4 L-195.4 -122.75 -195.35 -122.3 -195.65 -123.2 Q-195.65 -124.0 -195.0 -124.35 -194.65 -124.05 -194.65 -123.5 L-194.9 -122.0 M-195.0 -123.5 L-195.0 -124.1 Q-195.4 -124.1 -195.4 -123.5 L-195.0 -123.5 M-197.35 -122.2 L-197.65 -122.8 Q-197.65 -123.9 -197.25 -124.4 -196.15 -124.1 -196.15 -123.35 -196.15 -122.1 -196.75 -121.0 L-196.85 -121.25 Q-196.4 -122.35 -196.4 -123.2 -196.4 -123.8 -197.25 -124.0 L-197.4 -122.75 -197.35 -122.2 M-201.25 -121.5 Q-201.4 -121.2 -201.4 -121.8 -201.4 -122.2 -200.75 -122.65 -200.35 -120.8 -200.35 -119.2 L-200.4 -118.0 -200.65 -117.9 -200.9 -122.0 -201.0 -122.15 -201.25 -121.5 M-197.5 -115.4 Q-195.85 -115.4 -194.9 -112.15 L-195.0 -112.0 -195.65 -112.9 -195.9 -112.9 -196.0 -111.25 Q-196.45 -111.4 -197.15 -113.25 L-196.25 -113.5 -196.45 -114.7 -198.0 -114.75 -198.15 -114.85 -197.5 -115.4 M-199.5 -114.9 L-199.3 -112.7 -199.15 -112.85 -199.0 -112.85 -199.3 -112.5 -199.1 -109.85 -199.1 -109.75 -198.9 -110.25 -198.65 -110.15 -199.0 -109.1 -199.5 -109.15 Q-199.5 -111.1 -199.65 -112.2 L-201.0 -111.15 -201.9 -111.25 -201.9 -113.35 -201.75 -113.35 -201.65 -111.5 Q-200.85 -111.5 -199.65 -112.4 L-199.75 -112.75 -199.75 -114.9 -199.5 -114.9 M-197.9 -111.85 L-197.25 -112.4 -196.65 -111.9 -196.85 -111.35 Q-196.65 -111.15 -197.25 -111.15 -197.55 -111.15 -197.85 -111.5 L-197.9 -111.85 M-194.75 -116.35 Q-194.15 -115.2 -194.15 -114.2 L-194.25 -113.4 -195.0 -114.25 -194.9 -116.35 -194.75 -116.35 M-196.75 -113.0 L-196.25 -111.75 -196.15 -111.75 -196.15 -113.0 -196.75 -113.0 M-194.4 -113.9 L-194.5 -114.65 -194.6 -114.3 -194.5 -113.9 -194.4 -113.9 M-105.65 -170.0 Q-106.65 -169.4 -106.75 -169.5 L-107.1 -169.75 Q-107.75 -169.25 -107.9 -169.25 -107.15 -170.85 -106.0 -170.15 L-105.65 -170.0 M-108.1 -168.85 Q-107.9 -168.65 -108.5 -168.65 L-109.1 -169.0 -109.15 -169.35 -108.5 -169.9 -107.9 -169.4 -108.1 -168.85 M-107.9 -162.1 L-108.25 -160.15 -109.65 -160.35 -109.65 -160.4 -110.25 -159.9 -110.3 -159.9 -110.5 -159.75 -110.65 -159.75 -110.6 -159.9 -112.65 -160.15 -110.5 -160.3 -110.25 -160.65 -109.7 -160.5 -109.9 -160.75 -109.75 -161.15 -109.25 -160.5 -108.4 -160.5 -108.25 -161.2 Q-108.25 -161.7 -109.15 -161.5 -109.4 -162.65 -108.5 -162.65 -107.9 -162.65 -107.9 -162.1 M-101.35 -165.9 Q-101.75 -166.45 -101.75 -167.25 -101.75 -167.75 -101.25 -167.75 -98.8 -167.75 -98.5 -167.25 L-99.25 -165.9 Q-99.7 -165.15 -100.9 -164.85 -101.1 -165.15 -100.75 -165.35 L-101.2 -165.75 -100.25 -165.5 Q-99.9 -165.5 -99.35 -167.0 L-100.4 -167.15 -101.25 -167.15 -101.35 -167.0 -101.35 -165.9 M-105.0 -164.65 L-104.5 -163.75 -105.25 -164.65 -105.0 -164.65 M-112.0 -167.25 L-111.85 -166.35 -112.4 -166.15 -112.35 -166.25 -114.25 -166.5 -113.25 -167.25 -112.0 -167.25 M-116.5 -172.25 L-117.4 -172.35 -116.5 -172.4 -116.5 -172.25 M-120.9 -163.0 L-120.75 -163.1 -120.55 -162.2 -119.5 -162.1 Q-119.65 -161.75 -120.65 -161.75 L-120.9 -163.0 M-117.0 -163.4 L-117.65 -164.2 -117.0 -165.1 -116.4 -164.2 -116.5 -163.6 -117.0 -163.4 M-113.9 -165.5 Q-114.05 -164.9 -114.65 -164.9 L-115.65 -165.1 -114.2 -165.95 -113.5 -165.75 -113.35 -165.75 -113.9 -165.5 M-113.9 -159.25 L-113.75 -159.4 -113.15 -159.25 -113.9 -159.25 M-119.9 -155.45 Q-119.9 -154.85 -120.5 -154.15 -120.85 -153.75 -120.9 -154.25 L-121.75 -152.9 -121.9 -152.9 -122.0 -153.35 -121.5 -155.5 Q-122.15 -155.0 -122.65 -153.65 -123.15 -152.3 -122.9 -151.75 -123.05 -151.35 -123.5 -151.5 -123.85 -153.8 -121.25 -156.15 -121.05 -155.55 -121.25 -155.0 L-121.25 -154.75 -120.0 -155.85 -119.9 -155.45 M-116.65 -158.0 Q-116.65 -158.85 -116.25 -159.1 L-116.5 -158.0 -116.65 -158.0 M-122.75 -161.65 L-122.65 -160.0 -121.25 -162.1 Q-122.1 -159.9 -122.9 -159.25 L-122.85 -160.2 -122.9 -160.15 -123.25 -159.85 Q-123.9 -159.9 -124.0 -160.1 L-122.85 -160.95 -122.75 -161.65" fill="#494949" fill-opacity="0.73333335" fill-rule="evenodd" stroke="none"/>
    <path d="M-5.3 -65.75 L-5.3 -18.8 -5.4 -18.5 Q-69.55 66.6 -138.25 151.8 L-143.85 158.7 -145.15 158.7 -139.05 151.15 Q-70.4 66.05 -6.3 -18.95 L-6.3 -23.35 -152.4 158.7 -153.75 158.7 -6.3 -25.0 -6.3 -25.85 -15.5 -14.1 -15.5 -14.05 -17.35 -11.8 -17.35 -11.75 -154.85 158.7 -156.2 158.7 -18.15 -12.4 -16.3 -14.7 -16.25 -14.7 -10.1 -22.6 -6.3 -27.45 -6.3 -64.6 -5.4 -65.6 -5.3 -65.75 M-178.5 158.7 L-179.5 158.7 -179.5 155.25 -179.5 151.45 -179.5 131.5 -179.5 129.5 -179.5 129.4 -179.5 115.45 -178.5 115.45 -178.5 129.5 -178.5 130.95 -178.5 131.5 -178.5 151.45 -178.5 155.25 -178.5 158.7" fill="#543c23" fill-rule="evenodd" stroke="none"/>
    <path d="M-145.15 158.7 L-152.4 158.7 -6.3 -23.35 -6.3 -18.95 Q-70.4 66.05 -139.05 151.15 L-145.15 158.7 M-153.75 158.7 L-154.85 158.7 -17.35 -11.75 -17.35 -11.8 -15.5 -14.05 -15.5 -14.1 -6.3 -25.85 -6.3 -25.0 -153.75 158.7 M-6.3 -64.6 L-6.3 -27.45 -10.1 -22.6 Q-6.9 -46.4 -23.95 -33.85 -41.45 -20.95 -58.1 -0.9 -69.95 13.3 -81.3 25.8 L-90.55 35.7 -112.75 59.3 -119.3 66.25 -150.65 100.45 -166.15 117.55 -166.2 117.6 -178.5 130.95 -178.5 129.5 -178.5 115.45 -169.0 115.45 -168.8 115.4 -168.65 115.3 Q-142.35 87.75 -116.35 59.65 L-80.9 20.7 Q-50.5 -13.1 -20.7 -47.75 L-6.3 -64.6" fill="#71502f" fill-rule="evenodd" stroke="none"/>
    <path d="M-156.2 158.7 L-178.5 158.7 -178.5 155.25 -178.5 151.45 -178.5 131.5 -178.5 130.95 -166.2 117.6 -166.15 117.55 -150.65 100.45 -119.3 66.25 -112.75 59.3 -90.55 35.7 -81.3 25.8 Q-69.95 13.3 -58.1 -0.9 -41.45 -20.95 -23.95 -33.85 -6.9 -46.4 -10.1 -22.6 L-16.25 -14.7 -16.3 -14.7 -18.15 -12.4 -156.2 158.7 M-227.55 127.95 L-227.55 115.45 -179.5 115.45 -179.5 129.4 Q-201.7 124.95 -227.55 127.95" fill="#7e5934" fill-rule="evenodd" stroke="none"/>
    <path d="M-179.5 158.7 L-227.4 158.7 -227.55 127.95 Q-201.7 124.95 -179.5 129.4 L-179.5 129.5 -179.5 131.5 -179.5 151.45 -179.5 155.25 -179.5 158.7" fill="#8a6239" fill-rule="evenodd" stroke="none"/>
    <path d="M-227.55 114.45 L-227.55 102.5 -169.0 102.5 -168.85 102.5 Q-166.85 108.85 -168.5 113.75 L-169.2 114.45 -227.55 114.45 M-79.6 -60.45 L-63.5 -75.95 -3.2 -75.95 -22.6 -53.95 Q-12.3 -72.5 -44.7 -73.3 -59.2 -74.4 -67.25 -68.0 -74.5 -62.3 -79.6 -60.45 M-97.6 8.95 Q-91.05 8.9 -85.1 9.2 -100.95 27.55 -121.6 45.85 -148.7 46.8 -173.7 43.9 -175.15 44.2 -176.3 45.15 -182.1 45.25 -187.5 44.85 L-183.5 40.3 -183.5 41.0 -183.35 41.35 -183.0 41.5 -177.25 41.5 -176.9 41.4 -175.95 40.5 -122.8 40.5 -122.7 40.5 -122.4 40.4 -122.35 40.35 -99.15 15.8 -99.05 15.6 -97.6 8.95" fill="#5b913c" fill-rule="evenodd" stroke="none"/>
    <path d="M-125.15 -19.3 L-129.9 -19.55 -108.65 -38.25 Q-105.8 -40.7 -102.85 -39.9 L-101.8 -39.5 -100.3 -38.6 -122.8 -18.1 -124.1 -18.9 -125.15 -19.3 M-123.65 -21.25 L-123.5 -21.25 Q-121.35 -22.9 -120.0 -24.6 -121.0 -24.35 -123.65 -21.25 M-117.3 -26.5 L-117.4 -26.5 -117.3 -26.5 -116.75 -26.5 Q-114.95 -27.85 -114.75 -28.35 -116.8 -26.65 -117.3 -26.5 M-104.1 -37.35 L-103.9 -38.15 Q-104.15 -38.35 -104.75 -38.15 L-105.4 -37.55 Q-105.4 -36.95 -105.0 -37.4 L-104.75 -37.6 Q-110.25 -32.0 -112.65 -30.35 L-112.65 -30.5 -112.0 -31.1 Q-113.15 -30.5 -113.15 -30.0 -111.75 -30.55 -110.3 -31.55 L-107.8 -33.8 Q-105.1 -36.6 -104.15 -37.0 L-104.1 -37.35 M-155.15 5.15 Q-157.65 7.7 -159.65 11.0 L-159.7 11.05 -177.4 27.0 -181.35 27.0 Q-173.7 21.7 -166.8 15.65 -161.0 10.45 -155.7 4.7 L-153.0 1.6 -151.05 1.6 Q-153.25 3.15 -155.15 5.15 M-175.95 29.0 L-162.85 17.15 Q-165.15 22.4 -166.65 29.0 L-175.95 29.0" fill="#7e716b" fill-rule="evenodd" stroke="none"/>
    <path d="M-123.65 -21.25 Q-121.0 -24.35 -120.0 -24.6 -121.35 -22.9 -123.5 -21.25 L-123.65 -21.25 M-130.15 -13.5 L-129.9 -13.5 -129.95 -13.55 -130.25 -14.1 -130.4 -14.0 -130.15 -13.5 M-126.9 -16.3 L-128.35 -16.4 -128.75 -16.4 -131.5 -15.6 -131.4 -15.4 -129.35 -15.45 -127.45 -15.85 Q-126.95 -16.0 -126.65 -16.25 L-126.9 -16.3 M-176.75 34.8 L-176.75 30.0 -166.25 30.0 -165.95 29.9 -165.75 29.6 Q-163.9 21.45 -160.95 15.4 L-160.9 15.3 -160.2 13.95 -159.9 13.35 -158.85 11.65 -158.8 11.5 -158.1 10.4 Q-156.45 7.9 -154.45 5.85 L-154.4 5.85 Q-152.05 3.3 -149.15 1.55 L-149.05 1.5 -148.95 1.45 Q-147.85 0.75 -146.65 0.2 L-143.9 -0.95 Q-138.95 -2.65 -133.0 -2.55 -132.8 -2.55 -132.65 -2.7 L-132.5 -3.05 -132.5 -17.25 Q-129.25 -19.45 -125.95 -18.55 L-124.9 -18.15 -123.2 -17.2 Q-121.8 -3.7 -121.7 9.8 L-121.75 9.8 -121.75 9.85 Q-130.2 27.7 -146.9 31.8 -162.55 35.7 -176.75 34.8 M-127.25 -4.1 L-127.4 -4.1 -128.2 10.35 -128.4 12.75 -128.25 12.75 -127.8 10.35 Q-127.15 5.45 -127.15 -2.4 L-127.25 -4.1 M-131.25 -12.35 L-131.4 -12.25 -131.15 -11.75 -130.9 -11.75 -131.25 -12.35 M-126.25 -9.85 L-126.4 -9.85 -126.4 -5.25 -126.15 -1.0 -125.9 -1.0 -126.25 -9.85 M-132.5 -1.85 Q-132.6 -1.65 -133.4 -1.6 L-132.5 -2.0 -132.5 -1.85 M-131.65 -5.6 Q-131.65 -5.25 -132.0 -4.6 L-131.5 -4.15 -131.35 -4.25 -131.5 -5.6 -131.65 -5.6 M-131.9 -3.25 L-132.25 -3.25 Q-132.55 -2.05 -133.95 -1.55 L-135.65 -1.25 -135.15 -1.1 -134.35 -1.2 Q-133.75 -1.25 -133.75 -0.9 -133.75 -0.25 -132.25 -0.25 -131.5 -0.25 -131.5 -2.1 L-131.9 -3.25 M-132.4 -8.25 L-132.4 -6.9 -131.65 -6.0 -131.15 -7.45 Q-131.15 -8.4 -131.75 -8.4 L-132.4 -8.25 M-126.25 -16.35 L-126.4 -16.25 -125.65 -15.75 -126.25 -16.35 M-104.1 -37.35 L-104.15 -37.0 Q-105.1 -36.6 -107.8 -33.8 L-110.3 -31.55 Q-111.75 -30.55 -113.15 -30.0 -113.15 -30.5 -112.0 -31.1 L-112.65 -30.5 -112.65 -30.35 Q-110.25 -32.0 -104.75 -37.6 L-105.0 -37.4 Q-105.4 -36.95 -105.4 -37.55 L-104.75 -38.15 Q-104.15 -38.35 -103.9 -38.15 L-104.1 -37.35 M-117.3 -26.5 Q-116.8 -26.65 -114.75 -28.35 -114.95 -27.85 -116.75 -26.5 L-117.3 -26.5 -117.4 -26.5 -117.3 -26.5 M-142.65 1.0 L-141.9 1.0 -142.5 0.85 -142.65 1.0 M-144.9 2.25 L-146.0 2.1 -147.45 2.25 Q-148.8 2.55 -150.2 3.35 -152.35 4.6 -154.65 7.1 L-155.65 8.25 Q-157.6 10.5 -158.3 11.9 L-158.65 13.15 -158.6 13.7 -158.4 14.25 -157.5 13.55 -157.4 13.25 Q-157.4 11.85 -156.25 10.1 -155.35 8.65 -153.65 6.95 -151.2 4.45 -148.6 3.25 -146.8 2.45 -144.9 2.25 M-137.65 7.1 L-138.45 11.3 Q-139.1 15.15 -139.15 19.5 L-138.9 19.5 -138.1 11.25 -137.65 7.1 M-137.25 0.35 L-137.25 0.5 -139.4 0.6 -137.5 0.85 Q-137.0 0.85 -136.65 0.5 L-137.25 0.35 M-140.75 0.85 L-140.9 1.0 -139.9 1.0 -140.75 0.85 M-129.9 2.5 L-130.0 1.65 -130.15 1.65 -130.65 10.0 -130.6 10.55 -130.5 11.5 -130.4 11.4 -130.35 10.55 -129.9 2.5 M-145.7 13.45 L-145.75 13.4 Q-146.25 13.1 -147.0 13.1 -147.55 13.1 -148.15 14.4 L-148.65 16.0 -148.5 16.85 -147.85 17.0 Q-147.35 17.0 -146.65 15.8 L-147.85 16.75 -148.4 16.0 -148.0 14.65 Q-147.4 13.4 -146.25 13.4 L-145.7 13.45 M-145.9 14.25 Q-145.9 13.7 -146.5 13.6 L-146.65 13.7 -146.3 15.1 -146.3 15.15 -145.9 14.25 M-160.55 19.5 L-160.9 21.5 -160.75 21.5 Q-159.85 19.25 -159.75 18.15 -160.15 18.35 -160.55 19.5 M-159.5 18.9 L-159.65 18.9 -159.4 20.25 -159.15 20.25 -159.5 18.9 M-159.65 16.0 L-159.5 16.0 Q-159.25 15.9 -158.75 14.9 L-159.65 16.0 M-162.9 26.3 L-163.0 25.9 Q-163.9 26.45 -163.9 28.75 L-163.65 28.75 -162.9 26.3 M-171.25 30.75 L-171.25 30.85 -173.25 31.1 -173.25 31.0 -174.15 30.85 Q-174.95 30.95 -175.4 31.4 L-175.1 32.0 -174.15 32.1 Q-173.65 32.1 -173.1 31.65 L-172.25 31.4 -168.9 31.0 -171.25 30.75 M-180.0 29.35 L-179.75 29.35 -179.7 29.45 -179.5 30.55 -179.25 33.3 -179.35 37.25 -179.5 37.35 -179.65 35.9 -180.0 30.95 -180.0 30.3 -180.0 29.35" fill="#726661" fill-rule="evenodd" stroke="none"/>
    <path d="M-145.8 -1.25 L-133.5 -11.8 -133.5 -3.55 Q-138.15 -3.55 -142.15 -2.5 L-144.45 -1.8 -145.8 -1.25 M-126.9 -16.3 L-126.65 -16.25 Q-126.95 -16.0 -127.45 -15.85 L-129.35 -15.45 -131.4 -15.4 -131.5 -15.6 -128.75 -16.4 -128.35 -16.4 -126.9 -16.3 M-130.15 -13.5 L-130.4 -14.0 -130.25 -14.1 -129.95 -13.55 -129.9 -13.5 -130.15 -13.5 M-121.7 9.8 L-121.7 9.85 Q-121.65 20.6 -122.45 31.35 L-123.2 39.5 -176.1 39.5 -176.75 39.5 -176.75 34.8 Q-162.55 35.7 -146.9 31.8 -130.2 27.7 -121.75 9.85 L-121.75 9.8 -121.7 9.8 M-126.25 -16.35 L-125.65 -15.75 -126.4 -16.25 -126.25 -16.35 M-132.4 -8.25 L-131.75 -8.4 Q-131.15 -8.4 -131.15 -7.45 L-131.65 -6.0 -132.4 -6.9 -132.4 -8.25 M-131.9 -3.25 L-131.5 -2.1 Q-131.5 -0.25 -132.25 -0.25 -133.75 -0.25 -133.75 -0.9 -133.75 -1.25 -134.35 -1.2 L-135.15 -1.1 -135.65 -1.25 -133.95 -1.55 Q-132.55 -2.05 -132.25 -3.25 L-131.9 -3.25 M-131.65 -5.6 L-131.5 -5.6 -131.35 -4.25 -131.5 -4.15 -132.0 -4.6 Q-131.65 -5.25 -131.65 -5.6 M-132.5 -1.85 L-132.5 -2.0 -133.4 -1.6 Q-132.6 -1.65 -132.5 -1.85 M-126.25 -9.85 L-125.9 -1.0 -126.15 -1.0 -126.4 -5.25 -126.4 -9.85 -126.25 -9.85 M-131.25 -12.35 L-130.9 -11.75 -131.15 -11.75 -131.4 -12.25 -131.25 -12.35 M-127.25 -4.1 L-127.15 -2.4 Q-127.15 5.45 -127.8 10.35 L-128.25 12.75 -128.4 12.75 -128.2 10.35 -127.4 -4.1 -127.25 -4.1 M-129.9 2.5 L-130.35 10.55 -130.4 11.4 -130.5 11.5 -130.6 10.55 -130.65 10.0 -130.15 1.65 -130.0 1.65 -129.9 2.5 M-140.75 0.85 L-139.9 1.0 -140.9 1.0 -140.75 0.85 M-137.25 0.35 L-136.65 0.5 Q-137.0 0.85 -137.5 0.85 L-139.4 0.6 -137.25 0.5 -137.25 0.35 M-137.65 7.1 L-138.1 11.25 -138.9 19.5 -139.15 19.5 Q-139.1 15.15 -138.45 11.3 L-137.65 7.1 M-144.9 2.25 Q-146.8 2.45 -148.6 3.25 -151.2 4.45 -153.65 6.95 -155.35 8.65 -156.25 10.1 -157.4 11.85 -157.4 13.25 L-157.5 13.55 -158.4 14.25 -158.6 13.7 -158.65 13.15 -158.3 11.9 Q-157.6 10.5 -155.65 8.25 L-154.65 7.1 Q-152.35 4.6 -150.2 3.35 -148.8 2.55 -147.45 2.25 L-146.0 2.1 -144.9 2.25 M-142.65 1.0 L-142.5 0.85 -141.9 1.0 -142.65 1.0 M-159.65 16.0 L-158.75 14.9 Q-159.25 15.9 -159.5 16.0 L-159.65 16.0 M-159.5 18.9 L-159.15 20.25 -159.4 20.25 -159.65 18.9 -159.5 18.9 M-160.55 19.5 Q-160.15 18.35 -159.75 18.15 -159.85 19.25 -160.75 21.5 L-160.9 21.5 -160.55 19.5 M-145.9 14.25 L-146.3 15.15 -146.3 15.1 -146.65 13.7 -146.5 13.6 Q-145.9 13.7 -145.9 14.25 M-145.7 13.45 L-146.25 13.4 Q-147.4 13.4 -148.0 14.65 L-148.4 16.0 -147.85 16.75 -146.65 15.8 Q-147.35 17.0 -147.85 17.0 L-148.5 16.85 -148.65 16.0 -148.15 14.4 Q-147.55 13.1 -147.0 13.1 -146.25 13.1 -145.75 13.4 L-145.7 13.45 M-171.25 30.75 L-168.9 31.0 -172.25 31.4 -173.1 31.65 Q-173.65 32.1 -174.15 32.1 L-175.1 32.0 -175.4 31.4 Q-174.95 30.95 -174.15 30.85 L-173.25 31.0 -173.25 31.1 -171.25 30.85 -171.25 30.75 M-162.9 26.3 L-163.65 28.75 -163.9 28.75 Q-163.9 26.45 -163.0 25.9 L-162.9 26.3" fill="#645a55" fill-rule="evenodd" stroke="none"/>
    <path d="M-183.5 32.7 L-183.5 27.6 -183.5 27.4 -183.25 27.1 Q-174.9 21.45 -167.45 14.9 -161.7 9.75 -156.45 4.05 L-153.6 0.8 -153.45 0.65 -153.25 0.6 -149.5 0.6 -133.5 -13.1 -133.5 -17.5 -133.5 -17.55 -133.3 -17.85 -133.25 -17.9 -109.3 -39.0 Q-105.7 -42.05 -102.0 -40.7 L-101.0 -40.25 -99.25 -39.05 -99.2 -39.0 -99.15 -38.95 -99.05 -38.7 Q-93.0 -14.9 -97.6 8.95 L-99.05 15.6 -99.15 15.8 -122.35 40.35 -122.4 40.4 -122.7 40.5 -122.8 40.5 -175.95 40.5 -176.9 41.4 -177.25 41.5 -183.0 41.5 -183.35 41.35 -183.5 41.0 -183.5 40.3 -183.5 35.25 -183.5 34.0 -183.5 32.7 M-145.8 -1.25 L-144.45 -1.8 -142.15 -2.5 Q-138.15 -3.55 -133.5 -3.55 L-133.5 -11.8 -145.8 -1.25 M-125.15 -19.3 L-124.1 -18.9 -122.8 -18.1 -100.3 -38.6 -101.8 -39.5 -102.85 -39.9 Q-105.8 -40.7 -108.65 -38.25 L-129.9 -19.55 -125.15 -19.3 M-121.7 9.8 Q-121.8 -3.7 -123.2 -17.2 L-124.9 -18.15 -125.95 -18.55 Q-129.25 -19.45 -132.5 -17.25 L-132.5 -3.05 -132.65 -2.7 Q-132.8 -2.55 -133.0 -2.55 -138.95 -2.65 -143.9 -0.95 L-146.65 0.2 Q-147.85 0.75 -148.95 1.45 L-149.05 1.5 -149.15 1.55 Q-152.05 3.3 -154.4 5.85 L-154.45 5.85 Q-156.45 7.9 -158.1 10.4 L-158.8 11.5 -158.85 11.65 -159.9 13.35 -160.2 13.95 -160.9 15.3 -160.95 15.4 Q-163.9 21.45 -165.75 29.6 L-165.95 29.9 -166.25 30.0 -176.75 30.0 -176.75 34.8 -176.75 39.5 -176.1 39.5 -123.2 39.5 -122.45 31.35 Q-121.65 20.6 -121.7 9.85 L-121.7 9.8 M-99.25 -35.4 L-99.8 -37.7 -122.2 -17.3 Q-120.8 -3.75 -120.7 9.8 -120.65 20.4 -121.4 31.05 L-121.45 31.45 -122.1 38.55 -99.95 15.2 -98.55 8.95 Q-94.3 -13.25 -99.25 -35.4 M-155.15 5.15 Q-153.25 3.15 -151.05 1.6 L-153.0 1.6 -155.7 4.7 Q-161.0 10.45 -166.8 15.65 -173.7 21.7 -181.35 27.0 L-177.4 27.0 -159.7 11.05 -159.65 11.0 Q-157.65 7.7 -155.15 5.15 M-161.8 14.85 L-161.3 13.85 -176.75 27.75 -176.75 28.4 -161.8 14.85 M-182.5 33.15 L-182.5 35.25 -182.5 39.15 -182.5 40.5 -177.75 40.5 -177.75 28.0 -182.5 28.0 -182.5 31.85 -182.5 33.15 M-175.95 29.0 L-166.65 29.0 Q-165.15 22.4 -162.85 17.15 L-175.95 29.0" fill="#403c31" fill-rule="evenodd" stroke="none"/>
    <path d="M-121.4 31.05 Q-120.65 20.4 -120.7 9.8 -120.8 -3.75 -122.2 -17.3 L-99.8 -37.7 -99.25 -35.4 Q-97.55 -11.65 -105.05 9.05 L-108.0 16.3 Q-114.25 25.95 -121.4 31.05 M-109.4 5.65 L-109.25 5.75 Q-106.95 2.5 -103.0 -8.6 L-109.4 5.65 M-110.65 2.0 L-110.4 2.0 Q-108.0 -4.2 -107.25 -6.85 -110.25 -0.7 -110.65 2.0 M-115.9 0.25 L-115.75 0.25 -111.25 -9.85 Q-113.05 -7.35 -115.9 0.25 M-161.8 14.85 L-176.75 28.4 -176.75 27.75 -161.3 13.85 -161.8 14.85" fill="#59514c" fill-rule="evenodd" stroke="none"/>
    <path d="M-99.25 -35.4 Q-94.3 -13.25 -98.55 8.95 L-99.95 15.2 -122.1 38.55 -121.45 31.45 -121.4 31.05 Q-114.25 25.95 -108.0 16.3 L-105.05 9.05 Q-97.55 -11.65 -99.25 -35.4 M-115.9 0.25 Q-113.05 -7.35 -111.25 -9.85 L-115.75 0.25 -115.9 0.25 M-110.65 2.0 Q-110.25 -0.7 -107.25 -6.85 -108.0 -4.2 -110.4 2.0 L-110.65 2.0 M-109.4 5.65 L-103.0 -8.6 Q-106.95 2.5 -109.25 5.75 L-109.4 5.65" fill="#514944" fill-rule="evenodd" stroke="none"/>
    <path d="M-182.5 33.15 L-182.5 31.85 -182.5 28.0 -177.75 28.0 -177.75 40.5 -182.5 40.5 -182.5 39.15 -182.5 35.25 -182.5 33.15 M-180.0 29.35 L-180.0 30.3 -180.0 30.95 -179.65 35.9 -179.5 37.35 -179.35 37.25 -179.25 33.3 -179.5 30.55 -179.7 29.45 -179.75 29.35 -180.0 29.35" fill="#685e59" fill-rule="evenodd" stroke="none"/>
  </g>
  <defs>
    <linearGradient gradientTransform="matrix(0.0261, -0.016, 0.0337, 0.0549, -162.85, -160.7)" gradientUnits="userSpaceOnUse" id="gradient0" spreadMethod="pad" x1="-819.2" x2="819.2">
      <stop offset="0.0" stop-color="#ffffff" stop-opacity="0.73333335"/>
      <stop offset="1.0" stop-color="#ffffff" stop-opacity="0.101960786"/>
    </linearGradient>
  </defs>
</svg>
