<?xml version="1.0" encoding="UTF-8" standalone="no"?>
<svg xmlns:ffdec="https://www.free-decompiler.com/flash" xmlns:xlink="http://www.w3.org/1999/xlink" ffdec:objectType="shape" height="16.2px" width="55.65px" xmlns="http://www.w3.org/2000/svg">
  <g transform="matrix(1.0, 0.0, 0.0, 1.0, 0.0, 0.0)">
    <path d="M13.7 0.05 L13.9 0.0 55.15 1.05 55.5 1.2 55.65 1.55 55.55 1.9 42.15 16.05 41.95 16.15 41.75 16.2 0.5 15.1 0.15 14.95 0.0 14.6 0.15 14.25 13.55 0.15 13.7 0.05 M20.0 1.15 L14.15 1.0 1.65 14.15 7.55 14.3 11.45 14.4 15.15 14.5 18.75 14.6 22.5 14.7 26.05 14.8 29.95 14.9 33.85 15.0 41.55 15.2 47.4 9.05 47.2 9.15 46.1 9.35 Q45.5 9.35 45.35 9.05 L45.35 9.0 Q45.2 8.7 45.55 8.3 45.85 7.9 46.5 7.7 L47.6 7.5 47.65 7.5 Q48.2 7.5 48.35 7.8 L48.4 7.8 48.4 7.95 54.05 2.05 46.35 1.85 42.45 1.75 38.55 1.65 34.95 1.55 31.2 1.45 27.65 1.35 23.9 1.25 20.0 1.15 M47.6 7.75 L46.6 7.95 Q46.05 8.1 45.75 8.45 45.5 8.7 45.6 8.9 45.7 9.05 46.1 9.1 L47.1 8.9 47.95 8.4 48.0 8.35 48.15 7.9 47.6 7.75" fill="#413421" fill-rule="evenodd" stroke="none"/>
    <path d="M11.95 9.65 L11.65 9.6 Q10.55 9.85 10.3 11.35 L7.55 14.3 1.65 14.15 14.15 1.0 20.0 1.15 15.55 5.85 Q14.1 5.95 13.15 7.5 L13.3 7.6 14.75 6.7 11.95 9.65 M11.5 10.1 L10.85 10.8 10.85 10.55 Q10.85 10.1 11.2 10.1 L11.5 10.1 M31.2 1.45 L34.95 1.55 30.45 6.3 30.05 6.5 30.2 6.6 27.3 9.65 26.25 9.75 Q26.6 9.95 26.15 10.25 L26.3 10.35 26.65 10.35 22.5 14.7 18.75 14.6 31.2 1.45 M38.55 1.65 L42.45 1.75 29.95 14.9 26.05 14.8 38.55 1.65 M46.35 1.85 L54.05 2.05 48.4 7.95 48.4 7.8 48.35 7.8 Q48.2 7.5 47.65 7.5 L47.6 7.5 46.5 7.7 Q45.85 7.9 45.55 8.3 45.2 8.7 45.35 9.0 L45.35 9.05 Q45.5 9.35 46.1 9.35 L47.2 9.15 47.4 9.05 41.55 15.2 33.85 15.0 36.45 12.25 Q40.2 11.5 40.2 10.15 40.2 9.7 39.55 9.35 40.9 9.15 40.9 7.85 L40.75 7.7 41.45 6.95 41.65 6.85 41.55 6.85 46.35 1.85 M15.15 14.5 L11.45 14.4 23.9 1.25 27.65 1.35 21.55 7.75 21.55 7.7 20.9 7.1 Q20.45 7.1 20.3 7.35 20.95 7.8 21.45 7.85 L19.65 9.75 19.8 9.25 19.05 9.0 20.55 8.25 17.8 9.0 Q17.9 9.2 18.55 9.25 L19.2 9.45 Q18.5 9.55 18.55 10.1 18.6 10.6 17.65 10.6 L16.9 10.45 16.9 10.5 16.7 10.8 18.45 11.0 15.15 14.5 M36.95 11.7 L39.2 9.3 Q39.55 10.0 39.8 10.1 L36.95 11.7" fill="#fffffe" fill-rule="evenodd" stroke="none"/>
    <path d="M10.3 11.35 Q10.55 9.85 11.65 9.6 L11.95 9.65 12.55 9.75 12.05 10.5 12.95 11.1 11.8 12.0 Q10.95 12.0 10.3 11.35 M14.75 6.7 L13.3 7.6 13.15 7.5 Q14.1 5.95 15.55 5.85 L16.4 5.85 Q15.5 6.25 14.75 6.7 M12.4 11.35 L11.55 11.1 11.65 11.35 11.55 11.6 Q12.3 11.6 12.55 11.25 L12.4 11.35 M10.85 10.8 L10.8 11.25 11.3 11.5 11.4 11.45 11.05 11.1 12.05 10.1 11.5 10.1 11.2 10.1 Q10.85 10.1 10.85 10.55 L10.85 10.8 M21.45 7.85 Q20.95 7.8 20.3 7.35 20.45 7.1 20.9 7.1 L21.55 7.7 21.55 7.75 21.55 7.85 21.45 7.85 M19.65 9.75 Q19.25 11.0 18.55 11.0 L18.45 11.0 16.7 10.8 16.9 10.5 16.9 10.45 17.65 10.6 Q18.6 10.6 18.55 10.1 18.5 9.55 19.2 9.45 L18.55 9.25 Q17.9 9.2 17.8 9.0 L20.55 8.25 19.05 9.0 19.8 9.25 19.65 9.75 M30.45 6.3 L32.8 5.7 33.9 5.85 31.3 6.35 30.8 6.5 30.65 6.6 32.3 7.35 Q29.65 8.15 28.8 8.7 L29.7 9.85 26.65 10.35 26.3 10.35 26.15 10.25 Q26.6 9.95 26.25 9.75 L27.3 9.65 29.2 9.5 Q28.35 9.1 28.3 8.6 28.5 8.3 31.45 7.45 L31.8 7.35 30.2 6.6 30.05 6.5 30.45 6.3 M41.45 6.95 L40.4 7.1 40.75 7.7 40.9 7.85 Q40.9 9.15 39.55 9.35 40.2 9.7 40.2 10.15 40.2 11.5 36.45 12.25 L36.4 12.25 36.3 12.1 36.95 11.7 39.8 10.1 Q39.55 10.0 39.2 9.3 L39.05 9.0 40.55 7.85 Q40.55 7.5 39.05 6.6 L39.3 6.35 41.55 6.85 41.65 6.85 41.45 6.95" fill="#666666" fill-rule="evenodd" stroke="none"/>
    <path d="M11.95 9.65 L14.75 6.7 Q15.5 6.25 16.4 5.85 L15.55 5.85 20.0 1.15 23.9 1.25 11.45 14.4 7.55 14.3 10.3 11.35 Q10.95 12.0 11.8 12.0 L12.95 11.1 12.05 10.5 12.55 9.75 11.95 9.65 M11.5 10.1 L12.05 10.1 11.05 11.1 11.4 11.45 11.3 11.5 10.8 11.25 10.85 10.8 11.5 10.1 M12.4 11.35 L12.55 11.25 Q12.3 11.6 11.55 11.6 L11.65 11.35 11.55 11.1 12.4 11.35 M27.65 1.35 L31.2 1.45 18.75 14.6 15.15 14.5 18.45 11.0 18.55 11.0 Q19.25 11.0 19.65 9.75 L21.45 7.85 21.55 7.85 21.55 7.75 27.65 1.35 M34.95 1.55 L38.55 1.65 26.05 14.8 22.5 14.7 26.65 10.35 29.7 9.85 28.8 8.7 Q29.65 8.15 32.3 7.35 L30.65 6.6 30.8 6.5 31.3 6.35 33.9 5.85 32.8 5.7 30.45 6.3 34.95 1.55 M42.45 1.75 L46.35 1.85 41.55 6.85 39.3 6.35 39.05 6.6 Q40.55 7.5 40.55 7.85 L39.05 9.0 39.2 9.3 36.95 11.7 36.3 12.1 36.4 12.25 36.45 12.25 33.85 15.0 29.95 14.9 42.45 1.75 M30.2 6.6 L31.8 7.35 31.45 7.45 Q28.5 8.3 28.3 8.6 28.35 9.1 29.2 9.5 L27.3 9.65 30.2 6.6 M41.45 6.95 L40.75 7.7 40.4 7.1 41.45 6.95" fill="#ffdbdb" fill-rule="evenodd" stroke="none"/>
  </g>
</svg>
