<?xml version="1.0" encoding="UTF-8" standalone="no"?>
<svg xmlns:ffdec="https://www.free-decompiler.com/flash" xmlns:xlink="http://www.w3.org/1999/xlink" ffdec:objectType="shape" height="16.5px" width="23.1px" xmlns="http://www.w3.org/2000/svg">
  <g transform="matrix(1.0, 0.0, 0.0, 1.0, 13.95, 7.65)">
    <path d="M6.1 -4.0 Q7.4 -2.1 7.4 0.6 7.4 3.25 6.1 5.15 4.85 7.05 3.1 7.05 1.3 7.05 0.0 5.15 -1.25 3.25 -1.2 0.6 L-0.85 -2.15 0.0 -4.0 0.95 -5.05 Q1.9 -5.9 3.1 -5.9 4.85 -5.9 6.1 -4.0 M-11.1 -2.5 L-10.3 -3.4 Q-9.5 -4.15 -8.45 -4.15 -6.9 -4.15 -5.85 -2.5 -4.7 -0.85 -4.7 1.5 -4.7 3.8 -5.85 5.45 -6.9 7.05 -8.45 7.1 -10.0 7.05 -11.1 5.45 -12.2 3.8 -12.2 1.5 -12.2 0.2 -11.85 -0.9 L-11.1 -2.5 Z" fill="none" stroke="#000000" stroke-linecap="round" stroke-linejoin="round" stroke-width="3.5"/>
  </g>
</svg>
