<?xml version="1.0" encoding="UTF-8" standalone="no"?>
<svg xmlns:ffdec="https://www.free-decompiler.com/flash" xmlns:xlink="http://www.w3.org/1999/xlink" ffdec:objectType="shape" height="24.2px" width="27.35px" xmlns="http://www.w3.org/2000/svg">
  <g transform="matrix(1.0, 0.0, 0.0, 1.0, 6.6, 3.2)">
    <path d="M2.5 -2.85 L2.45 -2.85 Q2.45 -2.35 4.05 -0.55 L1.45 -1.4 1.05 -3.2 2.5 -2.85 M4.6 -0.25 L4.5 -0.65 4.65 -0.25 4.6 -0.25 M-4.05 17.3 L-4.45 16.6 -4.55 16.4 -4.9 15.45 -4.9 14.95 -4.9 14.9 Q-4.95 13.7 -4.35 12.7 L-4.3 12.7 -4.25 12.6 Q-3.05 10.8 0.15 9.65 4.85 7.7 8.8 7.4 L8.65 7.35 8.5 7.2 8.5 7.25 Q6.2 6.35 4.25 6.85 L3.35 5.1 5.95 4.7 Q7.7 4.65 10.05 6.7 12.25 8.55 12.3 9.7 12.3 10.75 10.5 11.15 L4.4 11.9 Q-0.5 12.55 -2.35 14.9 L-4.05 17.3 M7.1 20.65 L7.3 20.65 7.1 20.7 7.1 20.65 M9.15 20.25 L10.85 19.85 11.1 19.8 11.15 19.75 12.35 19.4 12.4 19.5 12.85 20.75 9.15 20.25" fill="#f1ba87" fill-rule="evenodd" stroke="none"/>
    <path d="M4.05 -0.55 Q2.45 -2.35 2.45 -2.85 L2.5 -2.85 Q5.05 -2.15 7.25 -0.7 12.1 0.1 20.55 11.15 L20.75 11.65 Q20.85 16.25 14.0 18.85 L14.6 20.55 12.85 20.75 12.4 19.5 12.4 19.4 12.35 19.4 11.15 19.75 11.1 19.8 10.85 19.85 9.15 20.25 8.35 20.45 7.3 20.65 7.1 20.65 4.15 21.0 1.0 21.0 -0.6 20.75 -2.25 20.5 -1.8 20.5 Q-3.5 20.5 -5.0 18.75 L-6.35 16.5 -6.5 15.85 -6.55 14.95 -6.6 14.25 -6.25 12.85 -5.5 11.1 Q-4.3 9.4 -2.35 8.65 L-3.35 8.85 -2.35 8.65 -1.55 8.4 -1.15 8.3 -0.75 8.15 -0.5 8.1 0.45 7.7 3.05 7.0 4.25 6.85 Q6.2 6.35 8.5 7.25 L8.65 7.35 8.8 7.4 Q4.85 7.7 0.15 9.65 -3.05 10.8 -4.25 12.6 L-4.3 12.7 -4.35 12.7 Q-4.95 13.7 -4.9 14.9 L-4.9 14.95 -4.9 15.45 -4.55 16.4 -4.45 16.6 -4.05 17.3 -3.8 17.55 Q-2.85 18.75 -1.8 18.8 L-1.6 18.85 1.75 19.35 Q6.15 19.35 10.65 18.15 L10.65 18.2 12.05 17.8 12.0 17.8 12.5 17.65 12.6 17.6 12.75 17.55 Q18.7 15.45 19.05 11.9 11.2 1.65 6.85 0.95 L6.45 0.8 4.65 -0.25 4.5 -0.65 4.6 -0.25 4.05 -0.5 4.05 -0.55" fill="#5c4730" fill-rule="evenodd" stroke="none"/>
    <path d="M1.45 -1.4 L4.05 -0.55 4.05 -0.5 4.6 -0.25 4.65 -0.25 6.45 0.8 6.85 0.95 Q11.2 1.65 19.05 11.9 18.7 15.45 12.75 17.55 L12.6 17.6 12.5 17.65 12.0 17.8 12.05 17.8 10.65 18.2 10.65 18.15 Q6.15 19.35 1.75 19.35 L-1.6 18.85 -1.8 18.8 Q-2.85 18.75 -3.8 17.55 L-4.05 17.3 -2.35 14.9 Q-0.5 12.55 4.4 11.9 L10.5 11.15 Q12.3 10.75 12.3 9.7 12.25 8.55 10.05 6.7 7.7 4.65 5.95 4.7 L3.35 5.1 1.45 -1.4 M8.65 7.35 L8.5 7.25 8.5 7.2 8.65 7.35 M12.35 19.4 L12.4 19.4 12.4 19.5 12.35 19.4" fill="#ffcc99" fill-rule="evenodd" stroke="none"/>
  </g>
</svg>
