<?xml version="1.0" encoding="UTF-8" standalone="no"?>
<svg xmlns:ffdec="https://www.free-decompiler.com/flash" xmlns:xlink="http://www.w3.org/1999/xlink" ffdec:objectType="shape" height="228.0px" width="580.45px" xmlns="http://www.w3.org/2000/svg">
  <g transform="matrix(1.0, 0.0, 0.0, 1.0, -22.5, -45.0)">
    <path d="M474.95 45.0 L474.95 62.65 Q478.45 64.5 482.75 64.5 489.7 64.5 494.6 59.6 496.55 57.65 497.75 55.35 498.95 57.65 500.9 59.6 505.8 64.5 512.75 64.5 519.7 64.5 524.6 59.6 526.55 57.65 527.75 55.35 528.95 57.65 530.9 59.6 535.8 64.5 542.75 64.5 549.7 64.5 554.6 59.6 556.55 57.65 557.75 55.35 558.95 57.65 560.9 59.6 565.8 64.5 572.75 64.5 579.7 64.5 584.6 59.6 586.55 57.65 587.75 55.35 588.95 57.65 590.9 59.6 595.8 64.5 602.75 64.5 L602.95 64.5 602.95 198.75 364.5 198.75 364.5 47.0 349.95 46.75 354.1 198.75 109.0 198.75 109.0 45.0 136.2 45.0 136.0 47.75 Q136.0 54.7 140.9 59.6 145.8 64.5 152.75 64.5 159.7 64.5 164.6 59.6 166.55 57.65 167.75 55.35 168.95 57.65 170.9 59.6 175.8 64.5 182.75 64.5 189.7 64.5 194.6 59.6 196.55 57.65 197.75 55.35 198.95 57.65 200.9 59.6 205.8 64.5 212.75 64.5 219.7 64.5 224.6 59.6 226.55 57.65 227.75 55.35 228.95 57.65 230.9 59.6 235.8 64.5 242.75 64.5 249.7 64.5 254.6 59.6 256.55 57.65 257.75 55.35 258.95 57.65 260.9 59.6 265.8 64.5 272.75 64.5 279.7 64.5 284.6 59.6 286.55 57.65 287.75 55.35 288.95 57.65 290.9 59.6 295.8 64.5 302.75 64.5 309.7 64.5 314.6 59.6 316.55 57.65 317.75 55.35 318.95 57.65 320.9 59.6 325.8 64.5 332.75 64.5 339.7 64.5 344.6 59.6 346.0 58.2 347.0 56.65 L347.0 45.0 474.95 45.0" fill="url(#gradient0)" fill-rule="evenodd" stroke="none"/>
    <path d="M109.0 198.75 L354.1 198.75 354.7 220.0 22.5 220.0 22.5 198.75 109.0 198.75 M364.5 198.75 L602.95 198.75 602.95 220.0 363.65 220.0 364.5 219.0 364.5 198.75 M602.95 230.0 L602.95 273.0 22.5 273.0 22.5 230.0 354.95 230.0 602.95 230.0" fill="#c5bcb1" fill-rule="evenodd" stroke="none"/>
    <path d="M354.7 220.0 L354.95 230.0 363.65 220.0 602.95 220.0 602.95 230.0 354.95 230.0 22.5 230.0 22.5 220.0 354.7 220.0" fill="#baafa3" fill-rule="evenodd" stroke="none"/>
    <path d="M354.1 198.75 L349.95 46.75 364.5 47.0 364.5 198.75 364.5 219.0 363.65 220.0 354.95 230.0 354.7 220.0 354.1 198.75" fill="#b75f4f" fill-rule="evenodd" stroke="none"/>
    <path d="M602.95 64.5 L602.75 64.5 Q595.8 64.5 590.9 59.6 588.95 57.65 587.75 55.35 586.55 57.65 584.6 59.6 579.7 64.5 572.75 64.5 565.8 64.5 560.9 59.6 558.95 57.65 557.75 55.35 556.55 57.65 554.6 59.6 549.7 64.5 542.75 64.5 535.8 64.5 530.9 59.6 528.95 57.65 527.75 55.35 526.55 57.65 524.6 59.6 519.7 64.5 512.75 64.5 505.8 64.5 500.9 59.6 498.95 57.65 497.75 55.35 496.55 57.65 494.6 59.6 489.7 64.5 482.75 64.5 478.45 64.5 474.95 62.65 L474.95 45.0 602.95 45.0 602.95 64.5 M347.0 45.0 L347.0 56.65 Q346.0 58.2 344.6 59.6 339.7 64.5 332.75 64.5 325.8 64.5 320.9 59.6 318.95 57.65 317.75 55.35 316.55 57.65 314.6 59.6 309.7 64.5 302.75 64.5 295.8 64.5 290.9 59.6 288.95 57.65 287.75 55.35 286.55 57.65 284.6 59.6 279.7 64.5 272.75 64.5 265.8 64.5 260.9 59.6 258.95 57.65 257.75 55.35 256.55 57.65 254.6 59.6 249.7 64.5 242.75 64.5 235.8 64.5 230.9 59.6 228.95 57.65 227.75 55.35 226.55 57.65 224.6 59.6 219.7 64.5 212.75 64.5 205.8 64.5 200.9 59.6 198.95 57.65 197.75 55.35 196.55 57.65 194.6 59.6 189.7 64.5 182.75 64.5 175.8 64.5 170.9 59.6 168.95 57.65 167.75 55.35 166.55 57.65 164.6 59.6 159.7 64.5 152.75 64.5 145.8 64.5 140.9 59.6 136.0 54.7 136.0 47.75 L136.2 45.0 347.0 45.0" fill="#649e41" fill-rule="evenodd" stroke="none"/>
  </g>
  <defs>
    <linearGradient gradientTransform="matrix(-7.0E-4, 0.0555, -0.1922, -0.0025, 365.95, 112.5)" gradientUnits="userSpaceOnUse" id="gradient0" spreadMethod="pad" x1="-819.2" x2="819.2">
      <stop offset="0.4470588235294118" stop-color="#d2f9f1"/>
      <stop offset="0.49411764705882355" stop-color="#9a8887"/>
    </linearGradient>
  </defs>
</svg>
