<?xml version="1.0" encoding="UTF-8" standalone="no"?>
<svg xmlns:ffdec="https://www.free-decompiler.com/flash" xmlns:xlink="http://www.w3.org/1999/xlink" ffdec:objectType="shape" height="453.95px" width="738.55px" xmlns="http://www.w3.org/2000/svg">
  <g transform="matrix(1.0, 0.0, 0.0, 1.0, 1.0, 2.0)">
    <path d="M417.55 101.25 Q418.35 103.95 418.75 107.25 L417.75 107.3 416.8 102.35 416.15 100.3 415.1 98.0 414.4 98.9 Q413.3 100.0 411.75 100.0 410.2 100.0 409.1 98.9 L408.7 98.45 407.9 100.3 Q406.65 103.65 406.2 108.0 L405.2 108.1 Q405.6 103.5 406.95 99.95 407.5 98.4 408.15 97.3 L408.0 96.25 Q408.0 94.7 409.1 93.6 410.2 92.5 411.75 92.5 413.3 92.5 414.4 93.6 415.5 94.7 415.5 96.25 L415.5 96.7 Q416.35 97.95 417.1 99.95 L417.55 101.25 M409.0 96.25 L409.25 97.45 409.8 98.2 Q410.6 99.0 411.75 99.0 412.9 99.0 413.7 98.2 L414.45 97.0 414.5 96.25 414.4 95.45 413.7 94.3 Q412.9 93.5 411.75 93.5 410.6 93.5 409.8 94.3 409.05 95.05 409.0 96.05 L409.0 96.25" fill="#999999" fill-rule="evenodd" stroke="none"/>
    <path d="M452.95 47.25 L460.95 47.25 460.95 103.0 443.65 127.55 442.35 106.1 442.2 105.9 441.95 105.8 418.75 107.25 Q418.35 103.95 417.55 101.25 L452.95 47.25 M460.95 115.0 L460.95 225.0 388.5 225.0 444.15 140.5 444.35 140.4 444.45 140.15 444.45 140.1 460.95 115.0 M375.0 225.0 L359.95 225.0 359.95 189.0 389.55 143.9 434.1 141.15 375.0 225.0 M359.95 165.5 L359.95 47.0 432.65 47.15 437.45 47.2 397.3 108.55 382.75 109.45 Q382.6 109.45 382.5 109.6 L382.4 109.85 383.6 129.4 359.95 165.5 M416.8 102.35 L417.75 107.3 413.4 107.55 416.8 102.35" fill="url(#gradient0)" fill-rule="evenodd" stroke="none"/>
    <path d="M460.95 103.0 L460.95 47.25 452.95 47.25 437.45 47.2 432.65 47.15 465.95 47.0 465.95 230.0 452.1 230.0 361.9 230.0 354.95 230.0 354.95 47.0 359.95 47.0 359.95 165.5 359.95 189.0 359.95 225.0 375.0 225.0 388.5 225.0 460.95 225.0 460.95 115.0 460.95 103.0" fill="#706d6d" fill-rule="evenodd" stroke="none"/>
    <path d="M602.95 74.5 L602.95 103.9 587.0 138.6 569.5 138.6 602.95 74.5 M460.95 103.0 L460.95 115.0 444.45 140.1 443.65 127.55 460.95 103.0 M388.5 225.0 L375.0 225.0 434.1 141.15 444.1 140.5 444.15 140.5 388.5 225.0 M359.95 189.0 L359.95 165.5 383.6 129.4 384.5 143.85 384.65 144.1 384.9 144.2 389.55 143.9 359.95 189.0 M437.45 47.2 L452.95 47.25 417.55 101.25 417.1 99.95 Q416.35 97.95 415.5 96.7 L415.5 96.25 Q415.5 94.7 414.4 93.6 413.3 92.5 411.75 92.5 410.2 92.5 409.1 93.6 408.0 94.7 408.0 96.25 L408.15 97.3 Q407.5 98.4 406.95 99.95 405.6 103.5 405.2 108.1 L397.3 108.55 437.45 47.2 M406.2 108.0 Q406.65 103.65 407.9 100.3 L408.7 98.45 409.1 98.9 Q410.2 100.0 411.75 100.0 413.3 100.0 414.4 98.9 L415.1 98.0 416.15 100.3 416.8 102.35 413.4 107.55 406.2 108.0 M300.85 47.25 L324.5 47.25 262.0 138.6 242.0 138.6 300.85 47.25" fill="#ffffff" fill-opacity="0.72156864" fill-rule="evenodd" stroke="none"/>
    <path d="M409.0 96.25 L409.0 96.05 Q409.05 95.05 409.8 94.3 410.6 93.5 411.75 93.5 412.9 93.5 413.7 94.3 L414.4 95.45 414.5 96.25 414.45 97.0 413.7 98.2 Q412.9 99.0 411.75 99.0 410.6 99.0 409.8 98.2 L409.25 97.45 409.0 96.25" fill="#cccccc" fill-rule="evenodd" stroke="none"/>
    <path d="M384.4 111.35 L384.45 111.1 384.7 111.0 440.45 107.5 440.7 107.6 440.8 107.85 442.7 138.4 442.6 138.65 442.35 138.75 386.65 142.2 386.4 142.15 386.25 141.9 384.4 111.35 M393.4 120.2 Q390.85 120.35 389.2 122.25 L388.2 123.85 Q387.6 125.15 387.7 126.65 387.85 129.15 389.75 130.8 391.65 132.45 394.15 132.3 396.65 132.15 398.3 130.3 399.85 128.55 399.85 126.25 L399.8 125.9 Q399.65 123.4 397.8 121.75 395.9 120.05 393.4 120.2 M396.25 126.15 Q396.3 127.15 395.65 127.95 L395.45 128.1 Q394.8 128.7 393.95 128.75 392.9 128.8 392.1 128.15 391.65 127.75 391.5 127.25 L391.3 126.45 Q391.2 125.35 391.9 124.6 392.55 123.85 393.6 123.8 394.65 123.7 395.4 124.4 396.2 125.05 396.25 126.15 M401.9 119.85 L402.65 131.65 406.2 131.45 406.0 128.3 406.05 128.1 406.2 128.05 409.1 127.85 Q410.65 127.75 411.7 126.45 412.6 125.3 412.65 123.85 L412.65 123.4 Q412.5 121.65 411.3 120.5 410.1 119.35 408.55 119.45 L401.9 119.85 M423.3 121.45 L423.15 118.55 414.8 119.05 415.55 130.85 423.85 130.35 423.7 127.4 419.15 127.7 419.0 127.6 418.9 127.45 418.85 126.45 418.9 126.25 419.05 126.2 423.6 125.9 423.4 123.0 418.9 123.3 418.75 123.2 418.65 123.05 418.6 122.0 418.65 121.8 418.8 121.75 423.3 121.45 M408.65 122.8 L409.05 123.7 408.8 124.65 408.8 124.7 408.3 125.05 407.9 125.15 406.05 125.25 405.9 125.2 405.8 125.0 405.65 122.8 405.7 122.65 Q405.75 122.55 405.9 122.55 L407.7 122.45 Q408.25 122.4 408.65 122.8 M434.1 123.6 L429.25 118.15 425.6 118.4 426.3 130.2 429.9 129.95 429.55 124.35 429.6 124.25 429.7 124.15 429.85 124.15 429.95 124.2 434.75 129.65 438.45 129.45 437.7 117.65 434.15 117.85 434.5 123.45 434.45 123.6 434.35 123.7 434.2 123.7 434.1 123.6" fill="#3e7737" fill-rule="evenodd" stroke="none"/>
    <path d="M393.4 120.2 Q395.9 120.05 397.8 121.75 399.65 123.4 399.8 125.9 L399.85 126.25 Q399.85 128.55 398.3 130.3 396.65 132.15 394.15 132.3 391.65 132.45 389.75 130.8 387.85 129.15 387.7 126.65 387.6 125.15 388.2 123.85 L389.2 122.25 Q390.85 120.35 393.4 120.2 M384.4 111.35 L386.25 141.9 386.4 142.15 386.65 142.2 442.35 138.75 442.6 138.65 442.7 138.4 440.8 107.85 440.7 107.6 440.45 107.5 384.7 111.0 384.45 111.1 384.4 111.35 M396.25 126.15 Q396.2 125.05 395.4 124.4 394.65 123.7 393.6 123.8 392.55 123.85 391.9 124.6 391.2 125.35 391.3 126.45 L391.5 127.25 Q391.65 127.75 392.1 128.15 392.9 128.8 393.95 128.75 394.8 128.7 395.45 128.1 L395.65 127.95 Q396.3 127.15 396.25 126.15 M383.15 110.15 L441.65 106.5 443.7 139.85 385.2 143.45 383.15 110.15 M401.9 119.85 L408.55 119.45 Q410.1 119.35 411.3 120.5 412.5 121.65 412.65 123.4 L412.65 123.85 Q412.6 125.3 411.7 126.45 410.65 127.75 409.1 127.85 L406.2 128.05 406.05 128.1 406.0 128.3 406.2 131.45 402.65 131.65 401.9 119.85 M434.1 123.6 L434.2 123.7 434.35 123.7 434.45 123.6 434.5 123.45 434.15 117.85 437.7 117.65 438.45 129.45 434.75 129.65 429.95 124.2 429.85 124.15 429.7 124.15 429.6 124.25 429.55 124.35 429.9 129.95 426.3 130.2 425.6 118.4 429.25 118.15 434.1 123.6 M408.65 122.8 Q408.25 122.4 407.7 122.45 L405.9 122.55 Q405.75 122.55 405.7 122.65 L405.65 122.8 405.8 125.0 405.9 125.2 406.05 125.25 407.9 125.15 408.3 125.05 408.8 124.7 408.8 124.65 409.05 123.7 408.65 122.8 M423.3 121.45 L418.8 121.75 418.65 121.8 418.6 122.0 418.65 123.05 418.75 123.2 418.9 123.3 423.4 123.0 423.6 125.9 419.05 126.2 418.9 126.25 418.85 126.45 418.9 127.45 419.0 127.6 419.15 127.7 423.7 127.4 423.85 130.35 415.55 130.85 414.8 119.05 423.15 118.55 423.3 121.45" fill="#a6d3a0" fill-rule="evenodd" stroke="none"/>
    <path d="M418.75 107.25 L441.95 105.8 442.2 105.9 442.35 106.1 443.65 127.55 444.45 140.1 444.45 140.15 444.35 140.4 444.15 140.5 444.1 140.5 434.1 141.15 389.55 143.9 384.9 144.2 384.65 144.1 384.5 143.85 383.6 129.4 382.4 109.85 382.5 109.6 Q382.6 109.45 382.75 109.45 L397.3 108.55 405.2 108.1 406.2 108.0 413.4 107.55 417.75 107.3 418.75 107.25 M383.15 110.15 L385.2 143.45 443.7 139.85 441.65 106.5 383.15 110.15" fill="#608060" fill-rule="evenodd" stroke="none"/>
    <path d="M123.0 -2.0 L602.95 -2.0 602.95 42.25 485.8 42.25 485.8 102.0 470.95 102.0 470.95 42.25 349.95 42.0 349.95 102.0 336.25 102.0 336.25 42.25 144.3 42.25 144.3 102.0 139.95 102.0 123.0 102.0 123.0 -2.0 M602.95 149.25 L602.95 180.05 589.1 182.0 Q576.6 183.95 567.1 186.35 560.05 188.1 554.65 190.05 553.15 190.55 551.9 191.15 L548.95 192.45 548.9 192.45 Q545.2 194.1 542.65 196.0 L542.6 196.05 542.5 196.1 540.95 197.25 539.0 199.15 538.95 199.2 538.7 199.6 538.65 199.6 Q537.65 200.9 537.3 202.15 537.15 202.45 537.15 202.8 L537.25 203.4 Q535.85 205.65 535.5 212.75 L535.6 213.05 535.85 213.25 Q536.75 213.5 538.3 214.25 L538.5 214.35 Q538.6 215.9 539.95 217.4 541.95 219.75 546.9 221.9 L548.55 224.0 470.95 224.0 470.95 144.25 485.8 144.25 485.8 149.25 602.95 149.25 M349.95 107.25 L349.95 112.5 336.25 112.5 336.25 107.25 349.95 107.25 M349.95 133.5 L349.95 138.75 336.25 138.75 336.25 133.5 349.95 133.5 M349.95 144.25 L349.95 224.0 252.85 224.0 Q255.8 218.05 258.8 205.55 L259.25 204.95 259.3 204.75 Q260.0 200.45 258.65 197.8 L258.2 196.6 Q256.8 192.8 251.75 189.1 246.7 185.35 238.85 183.25 L238.8 183.25 238.0 183.05 Q229.7 180.85 219.5 179.55 L219.5 179.6 202.4 177.9 193.65 177.45 180.45 177.15 175.75 177.1 Q170.35 177.1 165.1 177.25 L154.55 177.6 135.95 178.9 123.0 180.3 123.0 144.25 144.3 144.25 144.3 149.25 336.25 149.25 336.25 144.25 349.95 144.25 M244.55 224.0 L226.65 224.0 234.9 220.5 Q240.8 220.6 244.55 224.0 M470.95 112.5 L470.95 107.25 485.8 107.25 485.8 112.5 470.95 112.5 M470.95 138.75 L470.95 133.5 485.8 133.5 485.8 138.75 470.95 138.75 M538.55 209.2 L538.5 213.25 538.3 213.15 Q537.8 210.85 538.55 209.2 M256.75 195.35 L257.15 195.85 256.65 195.5 256.75 195.35 M144.3 107.25 L144.3 112.5 139.95 112.5 123.0 112.5 123.0 107.25 139.95 107.25 144.3 107.25 M144.3 133.5 L144.3 138.75 139.95 138.75 123.0 138.75 123.0 133.5 139.95 133.5 144.3 133.5" fill="#e7dbc2" fill-rule="evenodd" stroke="none"/>
    <path d="M144.3 102.0 L144.3 42.25 336.25 42.25 336.25 102.0 336.25 107.25 336.25 112.5 336.25 133.5 336.25 138.75 336.25 144.25 336.25 149.25 144.3 149.25 144.3 144.25 144.3 138.75 144.3 133.5 144.3 112.5 144.3 107.25 144.3 102.0 M349.95 102.0 L349.95 42.0 470.95 42.25 470.95 102.0 470.95 107.25 470.95 112.5 470.95 133.5 470.95 138.75 470.95 144.25 470.95 224.0 548.55 224.0 553.4 230.0 542.1 230.0 512.05 230.0 481.95 230.0 465.95 230.0 465.95 47.0 432.65 47.15 359.95 47.0 354.95 47.0 354.95 230.0 332.0 230.0 302.1 230.0 272.2 230.0 242.25 230.0 212.4 230.0 211.15 230.0 214.45 228.8 Q221.0 226.3 226.65 224.0 L244.55 224.0 Q246.8 226.05 248.3 229.3 250.55 228.55 252.85 224.0 L349.95 224.0 349.95 144.25 349.95 138.75 349.95 133.5 349.95 112.5 349.95 107.25 349.95 102.0 M485.8 102.0 L485.8 42.25 602.95 42.25 602.95 47.25 580.5 47.25 568.25 47.25 495.1 47.25 494.8 46.55 Q494.5 46.25 494.1 46.25 493.7 46.25 493.4 46.55 493.1 46.85 493.1 47.25 L490.8 47.25 490.8 144.25 602.95 144.25 602.95 149.25 485.8 149.25 485.8 144.25 485.8 138.75 485.8 133.5 485.8 112.5 485.8 107.25 485.8 102.0 M331.25 138.6 L331.25 47.25 324.5 47.25 300.85 47.25 246.4 47.25 234.0 47.25 162.6 47.25 162.3 46.55 Q162.0 46.25 161.6 46.25 161.2 46.25 160.9 46.55 160.6 46.85 160.6 47.25 L149.3 47.25 149.3 144.25 331.25 144.25 331.25 140.6 331.95 140.3 332.25 139.6 331.95 138.9 Q331.65 138.6 331.25 138.6 M572.25 230.0 L565.45 230.0 567.35 227.55 582.85 229.65 584.4 230.0 572.25 230.0" fill="#775431" fill-rule="evenodd" stroke="none"/>
    <path d="M568.25 47.25 L580.5 47.25 518.0 138.6 506.0 138.6 568.25 47.25 M234.0 47.25 L246.4 47.25 184.5 138.6 173.5 138.6 234.0 47.25" fill="#ffffff" fill-opacity="0.6313726" fill-rule="evenodd" stroke="none"/>
    <path d="M602.95 47.25 L602.95 74.5 569.5 138.6 518.0 138.6 580.5 47.25 602.95 47.25 M602.95 103.9 L602.95 138.6 587.0 138.6 602.95 103.9 M495.1 47.25 L568.25 47.25 506.0 138.6 495.1 138.6 495.1 47.25" fill="url(#gradient1)" fill-rule="evenodd" stroke="none"/>
    <path d="M493.1 47.25 Q493.1 46.85 493.4 46.55 493.7 46.25 494.1 46.25 494.5 46.25 494.8 46.55 L495.1 47.25 495.1 138.6 494.1 138.6 Q493.7 138.6 493.4 138.9 493.1 139.2 493.1 139.6 L493.1 47.25 M160.6 47.25 Q160.6 46.85 160.9 46.55 161.2 46.25 161.6 46.25 162.0 46.25 162.3 46.55 L162.6 47.25 162.6 138.6 161.6 138.6 Q161.2 138.6 160.9 138.9 160.6 139.2 160.6 139.6 L160.6 47.25" fill="#8c6339" fill-rule="evenodd" stroke="none"/>
    <path d="M602.95 138.6 Q603.35 138.6 603.65 138.9 L603.95 139.6 603.65 140.3 602.95 140.6 494.1 140.6 493.55 140.4 490.8 144.25 490.8 47.25 493.1 47.25 493.1 139.6 Q493.1 139.2 493.4 138.9 493.7 138.6 494.1 138.6 L495.1 138.6 506.0 138.6 518.0 138.6 569.5 138.6 587.0 138.6 602.95 138.6 M331.25 138.6 Q331.65 138.6 331.95 138.9 L332.25 139.6 331.95 140.3 331.25 140.6 161.6 140.6 Q161.2 140.6 160.9 140.3 L160.7 139.95 149.3 144.25 149.3 47.25 160.6 47.25 160.6 139.6 Q160.6 139.2 160.9 138.9 161.2 138.6 161.6 138.6 L162.6 138.6 173.5 138.6 184.5 138.6 242.0 138.6 262.0 138.6 331.25 138.6" fill="#9f7142" fill-rule="evenodd" stroke="none"/>
    <path d="M602.95 140.6 L602.95 144.25 490.8 144.25 493.55 140.4 494.1 140.6 602.95 140.6 M331.25 140.6 L331.25 144.25 149.3 144.25 160.7 139.95 160.9 140.3 Q161.2 140.6 161.6 140.6 L331.25 140.6" fill="#be8f61" fill-rule="evenodd" stroke="none"/>
    <path d="M324.5 47.25 L331.25 47.25 331.25 138.6 262.0 138.6 324.5 47.25 M162.6 47.25 L234.0 47.25 173.5 138.6 162.6 138.6 162.6 47.25 M246.4 47.25 L300.85 47.25 242.0 138.6 184.5 138.6 246.4 47.25" fill="url(#gradient2)" fill-rule="evenodd" stroke="none"/>
    <path d="M123.0 102.0 L139.95 102.0 144.3 102.0 144.3 107.25 139.95 107.25 123.0 107.25 123.0 102.0 M336.25 102.0 L349.95 102.0 349.95 107.25 336.25 107.25 336.25 102.0 M470.95 102.0 L485.8 102.0 485.8 107.25 470.95 107.25 470.95 102.0 M336.25 112.5 L349.95 112.5 349.95 133.5 336.25 133.5 336.25 112.5 M349.95 138.75 L349.95 144.25 336.25 144.25 336.25 138.75 349.95 138.75 M144.3 144.25 L123.0 144.25 123.0 138.75 139.95 138.75 144.3 138.75 144.3 144.25 M470.95 112.5 L485.8 112.5 485.8 133.5 470.95 133.5 470.95 112.5 M470.95 144.25 L470.95 138.75 485.8 138.75 485.8 144.25 470.95 144.25 M144.3 112.5 L144.3 133.5 139.95 133.5 123.0 133.5 123.0 112.5 139.95 112.5 144.3 112.5" fill="#a9e184" fill-rule="evenodd" stroke="none"/>
    <path d="M602.95 240.0 L602.95 252.5 573.8 252.5 572.95 240.0 602.95 240.0 M602.95 267.5 L602.95 282.0 596.7 279.35 Q586.1 275.0 575.05 271.1 L574.8 267.5 602.95 267.5 M70.8 451.95 L6.0 451.95 18.55 442.5 -1.0 442.5 -1.0 413.65 4.15 410.15 -1.0 410.15 -1.0 379.9 41.25 379.9 41.9 384.9 Q23.15 397.45 4.45 409.95 L51.8 410.0 Q53.35 412.5 55.25 415.0 L18.55 442.5 81.9 442.5 70.8 451.95 M-1.0 378.35 L-1.0 352.4 41.2 352.4 46.2 349.35 44.95 352.55 41.25 352.55 -1.0 378.35 M-1.0 348.7 L-1.0 327.4 36.95 327.4 77.4 305.0 83.95 305.0 86.35 315.8 Q86.65 317.2 87.9 317.95 89.1 318.75 90.55 318.45 91.95 318.1 92.7 316.9 93.5 315.65 93.2 314.25 L91.15 305.0 119.1 305.0 84.75 325.95 84.65 325.9 Q74.9 322.85 68.55 319.3 64.15 323.35 60.45 327.5 L37.05 327.5 -1.0 348.7 M-1.0 324.1 L-1.0 304.9 36.1 304.9 48.55 298.6 47.1 305.0 36.2 305.0 -1.0 324.1 M-1.0 303.15 L-1.0 286.7 2.95 284.9 36.85 284.9 40.9 283.0 Q42.9 284.05 46.1 285.0 L37.05 285.0 -1.0 303.15 M361.9 230.0 L452.1 230.0 446.4 240.0 477.95 240.0 481.95 230.0 512.05 230.0 509.6 240.0 477.95 240.0 475.05 247.25 444.4 243.6 446.4 240.0 414.8 240.0 421.85 230.15 391.85 230.15 383.25 240.0 414.8 240.0 413.9 241.25 383.15 240.15 383.25 240.0 368.25 240.0 366.55 240.0 364.85 240.0 351.75 240.0 351.65 240.1 318.7 241.3 320.2 240.0 288.75 240.0 283.25 244.15 Q262.6 246.3 243.05 249.6 L257.3 240.0 288.75 240.0 302.1 230.0 332.0 230.0 320.2 240.0 351.75 240.0 361.9 230.0 M211.15 230.0 L212.4 230.0 194.4 240.0 225.85 240.0 242.25 230.0 272.2 230.0 257.3 240.0 225.85 240.0 205.3 252.5 227.05 252.5 Q209.0 256.05 192.0 260.65 L205.3 252.5 180.9 252.5 Q183.8 250.75 188.95 244.2 L188.9 244.3 191.45 242.05 192.7 240.95 194.4 240.0 193.85 240.0 Q201.7 233.75 211.15 230.0 M506.55 252.5 L509.6 240.0 541.25 240.0 542.1 230.0 553.4 230.0 Q557.45 234.85 559.35 236.3 560.9 235.75 565.45 230.0 L572.25 230.0 572.95 240.0 541.25 240.0 540.15 252.5 506.55 252.5 M573.8 252.5 L574.8 267.5 564.4 267.5 Q552.2 263.55 539.45 260.2 L540.15 252.5 573.8 252.5 M117.75 232.4 L125.6 233.85 122.2 234.25 Q118.2 234.8 114.85 235.75 108.3 237.55 107.1 240.0 L101.15 240.0 117.75 232.4 M175.8 250.35 Q177.45 251.45 178.9 252.5 L173.9 252.5 173.9 251.4 175.8 250.35 M73.8 252.5 L105.35 252.5 110.25 250.2 Q112.05 251.05 114.85 251.85 L117.55 252.5 105.35 252.5 80.45 264.35 Q67.8 262.95 55.15 264.7 50.55 265.3 46.6 266.45 L43.3 267.5 41.0 267.5 73.8 252.5 M137.6 254.05 L143.5 253.7 145.9 264.45 145.9 266.95 144.9 267.5 145.9 267.5 145.9 281.95 Q141.3 282.55 137.35 283.7 135.1 284.3 133.4 285.0 L113.4 285.0 89.6 298.25 86.95 286.35 91.95 285.15 92.45 285.0 113.4 285.0 144.9 267.5 137.1 267.5 Q137.7 266.7 137.7 265.65 L137.6 254.05 M145.9 289.5 L145.9 290.6 145.8 290.05 145.9 289.5 M116.4 263.9 L115.6 267.5 109.35 267.5 101.1 271.75 Q100.2 269.4 95.25 267.5 L109.35 267.5 116.4 263.9 M121.75 267.5 L123.35 260.3 131.6 256.1 131.7 265.7 Q131.7 266.7 132.3 267.5 L121.75 267.5 M73.1 287.75 L79.95 287.3 83.2 301.8 77.4 305.0 54.3 305.0 56.7 294.45 66.15 289.6 66.2 301.3 Q66.2 302.75 67.25 303.75 68.3 304.75 69.75 304.75 71.2 304.75 72.2 303.7 73.2 302.65 73.2 301.25 L73.1 287.75 M90.1 327.5 L127.1 327.5 160.5 305.05 163.55 305.0 202.0 305.0 227.1 286.2 Q244.85 293.25 246.85 302.35 L243.7 305.0 247.15 305.0 Q246.8 317.25 219.3 325.9 L219.2 325.8 243.7 305.0 202.0 305.0 172.0 327.5 127.1 327.5 119.0 332.95 Q103.3 331.15 90.1 327.5 M156.5 305.0 L119.1 305.0 129.4 298.75 Q131.6 300.8 137.35 302.4 145.45 304.7 156.5 305.0 M162.6 334.55 L172.0 327.5 213.85 327.5 Q191.65 333.6 162.6 334.55 M199.8 278.65 Q210.15 280.6 219.3 283.45 L223.9 285.0 190.35 285.0 199.8 278.65 M186.65 285.0 L190.35 285.0 188.8 286.05 186.65 285.0" fill="#508035" fill-rule="evenodd" stroke="none"/>
    <path d="M602.95 233.75 L602.95 240.0 572.95 240.0 573.8 252.5 602.95 252.5 602.95 267.5 574.8 267.5 573.8 252.5 540.15 252.5 539.45 260.2 Q523.45 255.95 506.55 252.6 L506.55 252.5 540.15 252.5 541.25 240.0 572.95 240.0 572.25 230.0 584.4 230.0 586.6 230.5 588.2 230.85 588.3 230.85 595.0 232.25 602.95 233.75 M100.0 451.95 L70.8 451.95 81.9 442.5 18.55 442.5 55.25 415.0 Q65.5 428.8 83.25 441.35 L81.9 442.5 84.9 442.5 Q91.9 447.3 100.0 451.95 M6.0 451.95 L-1.0 451.95 -1.0 442.5 18.55 442.5 6.0 451.95 M-1.0 413.65 L-1.0 410.15 4.15 410.15 -1.0 413.65 M-1.0 379.9 L-1.0 378.35 41.25 352.55 44.95 352.55 Q41.0 363.15 41.05 374.45 41.0 377.2 41.25 379.9 L-1.0 379.9 M-1.0 352.4 L-1.0 348.7 37.05 327.5 60.45 327.5 Q51.05 338.05 46.2 349.35 L41.2 352.4 -1.0 352.4 M-1.0 327.4 L-1.0 324.1 36.2 305.0 47.1 305.0 45.05 314.25 Q44.7 315.65 45.5 316.9 46.25 318.1 47.7 318.45 49.1 318.75 50.35 317.95 51.55 317.15 51.9 315.75 L54.3 305.0 77.4 305.0 83.2 301.8 83.95 305.0 77.4 305.0 36.95 327.4 -1.0 327.4 M-1.0 304.9 L-1.0 303.15 37.05 285.0 46.1 285.0 46.6 285.15 51.3 286.25 48.55 298.6 36.1 304.9 -1.0 304.9 M354.95 230.0 L361.9 230.0 351.75 240.0 320.2 240.0 332.0 230.0 354.95 230.0 M452.1 230.0 L465.95 230.0 481.95 230.0 477.95 240.0 446.4 240.0 452.1 230.0 M212.4 230.0 L242.25 230.0 225.85 240.0 194.4 240.0 212.4 230.0 M272.2 230.0 L302.1 230.0 288.75 240.0 257.3 240.0 272.2 230.0 M475.05 247.25 L477.95 240.0 509.6 240.0 512.05 230.0 542.1 230.0 541.25 240.0 509.6 240.0 506.55 252.5 506.05 252.5 Q490.9 249.5 475.05 247.25 M383.25 240.0 L391.85 230.15 421.85 230.15 414.8 240.0 446.4 240.0 444.4 243.6 413.9 241.25 414.8 240.0 383.25 240.0 M575.05 271.1 L564.4 267.5 574.8 267.5 575.05 271.1 M590.4 230.25 L594.75 230.55 594.85 230.55 595.0 231.2 590.4 230.25 M173.9 249.05 L175.8 250.35 173.9 251.4 173.9 249.05 M178.9 252.5 L179.4 252.9 179.65 253.0 179.9 253.0 180.9 252.5 205.3 252.5 192.0 260.65 Q182.8 263.1 173.9 265.85 L173.9 252.5 178.9 252.5 M192.7 240.95 L193.85 240.0 194.4 240.0 192.7 240.95 M107.1 240.0 L107.0 240.2 106.95 242.2 106.9 247.1 Q107.4 248.75 110.25 250.2 L105.35 252.5 73.8 252.5 101.15 240.0 107.1 240.0 M117.55 252.5 L118.9 252.8 116.4 263.9 109.35 267.5 95.25 267.5 91.95 266.45 Q87.9 265.3 83.15 264.65 L80.45 264.35 105.35 252.5 117.55 252.5 M124.85 253.65 L131.6 254.1 131.6 256.1 123.35 260.3 124.85 253.65 M145.9 266.95 L145.9 267.5 144.9 267.5 145.9 266.95 M173.9 281.9 L173.9 275.45 Q187.7 276.4 199.8 278.65 L190.35 285.0 223.9 285.0 227.1 286.2 202.0 305.0 163.55 305.0 Q174.55 304.7 182.7 302.4 191.55 299.9 192.0 296.45 L192.0 290.65 191.95 289.4 191.9 289.15 Q191.35 287.45 188.8 286.05 L190.35 285.0 186.65 285.0 182.7 283.7 Q178.65 282.55 173.9 281.9 M115.6 267.5 L113.5 276.85 Q113.2 278.05 113.9 279.1 114.55 280.15 115.75 280.45 116.95 280.7 118.05 280.05 119.1 279.35 119.35 278.15 L121.75 267.5 132.3 267.5 132.6 267.85 Q133.45 268.7 134.7 268.7 135.95 268.65 136.85 267.8 L137.1 267.5 144.9 267.5 113.4 285.0 92.45 285.0 Q100.8 282.55 101.25 279.2 L101.25 273.4 101.2 272.15 101.15 271.9 101.1 271.75 109.35 267.5 115.6 267.5 M37.45 273.95 L37.35 279.65 Q37.9 281.45 40.9 283.0 L36.85 284.9 2.95 284.9 41.0 267.5 43.3 267.5 Q38.45 269.35 37.5 271.65 L37.45 273.95 M58.3 287.3 L66.1 287.75 66.15 289.6 56.7 294.45 58.3 287.3 M89.6 298.25 L113.4 285.0 133.4 285.0 Q129.1 286.75 128.25 288.9 L128.2 291.2 128.1 296.9 Q128.4 297.85 129.4 298.75 L119.1 305.0 156.5 305.0 160.0 305.05 160.5 305.05 127.1 327.5 90.1 327.5 84.75 325.95 119.1 305.0 91.15 305.0 89.6 298.25 M41.9 384.9 Q44.05 397.9 51.8 410.0 L4.45 409.95 Q23.15 397.45 41.9 384.9 M162.6 334.55 L151.95 334.7 119.0 332.95 127.1 327.5 172.0 327.5 162.6 334.55 M283.25 244.15 L288.75 240.0 320.2 240.0 318.7 241.3 283.25 244.15 M257.3 240.0 L243.05 249.6 227.05 252.5 205.3 252.5 225.85 240.0 257.3 240.0 M219.2 325.8 L219.0 326.0 213.85 327.5 172.0 327.5 202.0 305.0 243.7 305.0 219.2 325.8 M246.85 302.35 L247.15 304.7 247.15 305.0 243.7 305.0 246.85 302.35" fill="#588c39" fill-rule="evenodd" stroke="none"/>
    <path d="M602.95 285.0 L602.95 305.0 577.35 305.0 578.85 327.5 533.55 327.5 531.35 352.5 482.15 352.5 475.45 380.0 421.95 380.0 409.95 410.0 352.0 410.0 368.65 380.0 421.95 380.0 432.95 352.5 383.9 352.5 368.65 380.0 315.05 380.0 334.65 352.5 383.9 352.5 397.8 327.5 442.95 327.5 432.95 352.5 482.15 352.5 488.25 327.5 533.55 327.5 535.5 305.0 577.35 305.0 576.0 285.0 602.95 285.0 M602.95 327.5 L602.95 352.5 580.55 352.5 582.45 380.0 602.95 380.0 602.95 410.0 584.45 410.0 582.45 380.0 528.9 380.0 531.35 352.5 580.55 352.5 578.85 327.5 602.95 327.5 M602.95 442.5 L602.95 451.95 587.3 451.95 586.65 442.5 523.45 442.5 522.6 451.95 457.9 451.95 460.2 442.5 523.45 442.5 526.3 410.0 468.1 410.0 460.2 442.5 396.95 442.5 393.2 451.95 328.7 451.95 333.95 442.5 270.5 442.5 293.65 410.0 235.8 410.0 261.8 380.0 208.65 380.0 236.75 352.5 187.8 352.5 217.25 327.5 213.85 327.5 219.0 326.0 217.25 327.5 262.3 327.5 285.3 305.0 247.15 305.0 247.15 304.7 246.85 302.35 267.25 285.0 305.75 285.0 285.3 305.0 326.9 305.0 307.25 327.4 262.3 327.5 236.75 352.5 285.65 352.5 261.8 380.0 315.05 380.0 293.65 410.0 352.0 410.0 333.95 442.5 396.95 442.5 409.95 410.0 468.1 410.0 475.45 380.0 528.9 380.0 526.3 410.0 584.45 410.0 586.65 442.5 602.95 442.5 M263.8 451.95 L199.4 451.95 207.6 442.5 270.5 442.5 263.8 451.95 M135.1 451.95 L100.0 451.95 Q91.9 447.3 84.9 442.5 L144.75 442.5 177.95 410.0 120.15 410.0 83.25 441.35 Q65.5 428.8 55.25 415.0 L61.9 410.0 120.15 410.0 155.45 380.0 101.95 380.0 61.9 410.0 51.8 410.0 Q44.05 397.9 41.9 384.9 L49.05 380.1 101.95 380.0 138.65 352.5 89.9 352.5 49.05 379.9 41.25 379.9 Q41.0 377.2 41.05 374.45 41.0 363.15 44.95 352.55 L89.9 352.5 119.0 332.95 151.95 334.7 162.6 334.55 138.65 352.5 187.8 352.5 155.45 380.0 208.65 380.0 177.95 410.0 235.8 410.0 207.6 442.5 144.75 442.5 135.1 451.95 M475.05 247.25 Q490.9 249.5 506.05 252.5 L472.95 252.5 466.95 267.5 431.1 267.5 421.4 285.0 382.75 285.0 395.2 267.5 431.1 267.5 439.45 252.5 472.95 252.5 475.05 247.25 M383.25 240.0 L383.15 240.15 372.4 252.5 339.0 252.5 351.65 240.1 351.75 240.0 364.85 240.0 368.25 240.0 383.25 240.0 M413.9 241.25 L444.4 243.6 439.45 252.5 405.9 252.5 395.2 267.5 359.4 267.5 372.4 252.5 405.9 252.5 413.9 241.25 M459.95 285.0 L466.95 267.5 502.9 267.5 498.65 285.0 459.95 285.0 451.95 305.0 493.75 305.0 498.65 285.0 537.25 285.0 538.8 267.5 502.9 267.5 506.55 252.6 Q523.45 255.95 539.45 260.2 L538.8 267.5 564.4 267.5 575.05 271.1 576.0 285.0 537.25 285.0 535.5 305.0 493.75 305.0 488.25 327.5 442.95 327.5 451.95 305.0 410.3 305.0 421.4 285.0 459.95 285.0 M359.4 267.5 L344.25 285.0 382.75 285.0 368.5 305.0 410.3 305.0 397.8 327.5 352.55 327.4 368.5 305.0 326.9 305.0 344.25 285.0 305.75 285.0 323.65 267.5 359.4 267.5 M352.35 327.65 L334.65 352.5 285.65 352.5 307.25 327.6 352.35 327.65 M173.9 275.45 L173.9 271.65 180.7 267.5 173.9 267.5 173.9 265.85 Q182.8 263.1 192.0 260.65 L180.7 267.5 216.4 267.5 199.8 278.65 Q187.7 276.4 173.9 275.45 M46.2 349.35 Q51.05 338.05 60.45 327.5 L82.15 327.5 84.75 325.95 90.1 327.5 82.15 327.5 Q64.2 338.45 46.2 349.35 M283.25 244.15 L318.7 241.3 305.5 252.5 339.0 252.5 323.65 267.5 287.85 267.5 267.25 285.0 228.7 285.0 252.05 267.5 287.85 267.5 305.5 252.5 272.05 252.5 252.05 267.5 216.4 267.5 238.7 252.5 272.05 252.5 283.25 244.15 M243.05 249.6 L238.7 252.5 227.05 252.5 243.05 249.6 M223.9 285.0 L228.7 285.0 227.1 286.2 223.9 285.0" fill="#649e41" fill-rule="evenodd" stroke="none"/>
    <path d="M602.95 282.0 L602.95 285.0 576.0 285.0 577.35 305.0 535.5 305.0 533.55 327.5 488.25 327.5 482.15 352.5 432.95 352.5 442.95 327.5 397.8 327.5 410.3 305.0 368.5 305.0 382.75 285.0 344.25 285.0 359.4 267.5 395.2 267.5 405.9 252.5 439.45 252.5 431.1 267.5 395.2 267.5 382.75 285.0 421.4 285.0 431.1 267.5 466.95 267.5 472.95 252.5 506.05 252.5 506.55 252.5 506.55 252.6 502.9 267.5 538.8 267.5 537.25 285.0 498.65 285.0 493.75 305.0 451.95 305.0 459.95 285.0 498.65 285.0 502.9 267.5 466.95 267.5 459.95 285.0 421.4 285.0 410.3 305.0 451.95 305.0 442.95 327.5 488.25 327.5 493.75 305.0 535.5 305.0 537.25 285.0 576.0 285.0 575.05 271.1 Q586.1 275.0 596.7 279.35 L602.95 282.0 M602.95 305.0 L602.95 327.5 578.85 327.5 580.55 352.5 531.35 352.5 528.9 380.0 475.45 380.0 482.15 352.5 531.35 352.5 533.55 327.5 578.85 327.5 577.35 305.0 602.95 305.0 M602.95 352.5 L602.95 380.0 582.45 380.0 580.55 352.5 602.95 352.5 M602.95 410.0 L602.95 442.5 586.65 442.5 584.45 410.0 602.95 410.0 M587.3 451.95 L522.6 451.95 523.45 442.5 586.65 442.5 587.3 451.95 M457.9 451.95 L393.2 451.95 396.95 442.5 460.2 442.5 468.1 410.0 526.3 410.0 528.9 380.0 582.45 380.0 584.45 410.0 526.3 410.0 523.45 442.5 460.2 442.5 457.9 451.95 M328.7 451.95 L263.8 451.95 270.5 442.5 207.6 442.5 235.8 410.0 177.95 410.0 208.65 380.0 155.45 380.0 187.8 352.5 138.65 352.5 162.6 334.55 Q191.65 333.6 213.85 327.5 L217.25 327.5 187.8 352.5 236.75 352.5 208.65 380.0 261.8 380.0 235.8 410.0 293.65 410.0 270.5 442.5 333.95 442.5 328.7 451.95 M199.4 451.95 L135.1 451.95 144.75 442.5 207.6 442.5 199.4 451.95 M444.4 243.6 L475.05 247.25 472.95 252.5 439.45 252.5 444.4 243.6 M383.15 240.15 L413.9 241.25 405.9 252.5 372.4 252.5 359.4 267.5 323.65 267.5 305.75 285.0 344.25 285.0 326.9 305.0 368.5 305.0 352.55 327.4 397.8 327.5 383.9 352.5 334.65 352.5 315.05 380.0 368.65 380.0 383.9 352.5 432.95 352.5 421.95 380.0 368.65 380.0 352.0 410.0 409.95 410.0 421.95 380.0 475.45 380.0 468.1 410.0 409.95 410.0 396.95 442.5 333.95 442.5 352.0 410.0 293.65 410.0 315.05 380.0 261.8 380.0 285.65 352.5 236.75 352.5 262.3 327.5 307.25 327.4 326.9 305.0 285.3 305.0 305.75 285.0 267.25 285.0 246.85 302.35 Q244.85 293.25 227.1 286.2 L228.7 285.0 223.9 285.0 219.3 283.45 Q210.15 280.6 199.8 278.65 L216.4 267.5 180.7 267.5 192.0 260.65 Q209.0 256.05 227.05 252.5 L238.7 252.5 243.05 249.6 Q262.6 246.3 283.25 244.15 L272.05 252.5 238.7 252.5 216.4 267.5 252.05 267.5 272.05 252.5 305.5 252.5 287.85 267.5 252.05 267.5 228.7 285.0 267.25 285.0 287.85 267.5 323.65 267.5 339.0 252.5 305.5 252.5 318.7 241.3 351.65 240.1 339.0 252.5 372.4 252.5 383.15 240.15 M564.4 267.5 L538.8 267.5 539.45 260.2 Q552.2 263.55 564.4 267.5 M368.25 240.0 L364.85 240.0 366.55 240.0 368.25 240.0 M352.35 327.65 L307.25 327.6 285.65 352.5 334.65 352.5 352.35 327.65 M173.9 271.65 L173.9 267.5 180.7 267.5 173.9 271.65 M60.45 327.5 Q64.15 323.35 68.55 319.3 74.9 322.85 84.65 325.9 L84.75 325.95 82.15 327.5 60.45 327.5 M44.95 352.55 L46.2 349.35 Q64.2 338.45 82.15 327.5 L90.1 327.5 Q103.3 331.15 119.0 332.95 L89.9 352.5 44.95 352.55 M41.25 379.9 L49.05 379.9 89.9 352.5 138.65 352.5 101.95 380.0 49.05 380.1 41.9 384.9 41.25 379.9 M51.8 410.0 L61.9 410.0 101.95 380.0 155.45 380.0 120.15 410.0 61.9 410.0 55.25 415.0 Q53.35 412.5 51.8 410.0 M219.2 325.8 L219.3 325.9 Q246.8 317.25 247.15 305.0 L285.3 305.0 262.3 327.5 217.25 327.5 219.0 326.0 219.2 325.8 M84.9 442.5 L81.9 442.5 83.25 441.35 120.15 410.0 177.95 410.0 144.75 442.5 84.9 442.5" fill="#5b913c" fill-rule="evenodd" stroke="none"/>
    <path d="M-1.0 171.75 L-1.0 160.15 123.0 138.75 123.0 144.25 -1.0 171.75 M-1.0 149.1 L-1.0 104.9 123.0 112.5 123.0 133.5 -1.0 149.1 M-1.0 93.8 L-1.0 82.75 123.0 102.0 123.0 107.25 -1.0 93.8" fill="#c2eaa6" fill-rule="evenodd" stroke="none"/>
    <path d="M123.0 -2.0 L123.0 102.0 -1.0 82.75 -1.0 -2.0 123.0 -2.0 M-1.0 272.2 L-1.0 171.75 123.0 144.25 123.0 180.3 111.1 182.0 Q98.6 183.95 89.1 186.35 82.05 188.1 76.65 190.05 L73.9 191.15 Q72.35 191.75 70.95 192.45 L70.9 192.45 Q67.2 194.1 64.65 196.0 L64.6 196.05 64.5 196.1 62.95 197.25 Q61.8 198.2 61.0 199.15 L60.95 199.2 60.7 199.6 60.65 199.6 Q59.65 200.9 59.3 202.15 L59.15 202.8 59.25 203.4 Q57.85 205.65 57.5 212.75 L57.6 213.05 57.85 213.25 Q58.75 213.5 60.3 214.25 L60.5 214.35 Q60.6 215.9 61.95 217.4 63.95 219.75 68.9 221.9 78.15 233.85 81.35 236.3 83.25 235.65 89.35 227.55 L104.85 229.65 107.15 230.2 -1.0 272.2 M-1.0 160.15 L-1.0 149.1 123.0 133.5 123.0 138.75 -1.0 160.15 M-1.0 104.9 L-1.0 93.8 123.0 107.25 123.0 112.5 -1.0 104.9 M60.5 213.25 L60.3 213.15 Q59.8 210.85 60.55 209.2 L60.5 213.25" fill="#f7f1dd" fill-rule="evenodd" stroke="none"/>
    <path d="M651.9 281.9 Q656.65 282.55 660.7 283.7 668.85 286.0 669.9 289.15 L669.95 289.4 670.0 290.65 Q669.7 291.9 668.3 293.05 666.0 294.9 660.7 296.4 651.3 299.05 638.0 299.05 624.7 299.05 615.35 296.4 610.0 294.9 607.7 293.05 606.6 292.15 606.2 291.2 L606.25 288.9 Q607.5 285.9 615.35 283.7 619.3 282.55 623.9 281.95 L623.9 289.5 623.8 290.05 623.9 290.6 Q624.5 291.9 627.95 292.9 632.1 294.05 638.0 294.05 643.9 294.05 648.1 292.9 651.05 292.05 651.9 291.0 L652.25 290.05 Q652.25 289.55 651.9 289.15 L651.9 281.9 M-1.0 286.7 L-1.0 272.2 107.15 230.2 108.6 230.5 110.2 230.85 110.3 230.85 117.0 232.25 117.75 232.4 101.15 240.0 73.8 252.5 41.0 267.5 2.95 284.9 -1.0 286.7 M117.0 231.2 L112.4 230.25 116.75 230.55 116.85 230.55 117.0 231.2 M145.9 281.95 L145.9 289.5 145.8 290.05 145.9 290.6 Q146.5 291.9 149.95 292.9 154.1 294.05 160.0 294.05 165.9 294.05 170.1 292.9 173.05 292.05 173.9 291.0 L174.25 290.05 Q174.25 289.55 173.9 289.15 L173.9 281.9 Q178.65 282.55 182.7 283.7 L186.65 285.0 188.8 286.05 Q191.35 287.45 191.9 289.15 L191.95 289.4 192.0 290.65 Q191.7 291.9 190.3 293.05 188.0 294.9 182.7 296.4 177.05 298.0 170.05 298.65 L160.0 299.05 Q146.7 299.05 137.35 296.4 L134.65 295.55 Q131.35 294.4 129.7 293.05 128.6 292.15 128.2 291.2 L128.25 288.9 Q129.1 286.75 133.4 285.0 135.1 284.3 137.35 283.7 141.3 282.55 145.9 281.95 M101.1 271.75 L101.15 271.9 101.2 272.15 101.25 273.4 Q100.95 274.65 99.55 275.8 97.25 277.65 91.95 279.15 L85.65 280.55 83.05 280.95 78.65 281.45 73.05 281.75 69.25 281.8 66.05 281.75 59.6 281.4 52.6 280.5 48.2 279.6 46.6 279.15 Q41.25 277.65 38.95 275.8 37.85 274.9 37.45 273.95 L37.5 271.65 Q38.45 269.35 43.3 267.5 L46.6 266.45 Q50.55 265.3 55.15 264.7 67.8 262.95 80.45 264.35 L83.15 264.65 Q87.9 265.3 91.95 266.45 L95.25 267.5 Q100.2 269.4 101.1 271.75" fill="#865f37" fill-rule="evenodd" stroke="none"/>
    <path d="M125.6 233.85 L145.9 236.95 145.9 248.25 142.35 248.65 137.55 248.9 134.3 248.95 131.55 248.95 126.0 248.65 120.0 247.85 116.65 247.15 114.85 246.7 Q110.25 245.4 108.25 243.8 107.3 243.0 106.95 242.2 L107.0 240.2 107.1 240.0 Q108.3 237.55 114.85 235.75 118.2 234.8 122.2 234.25 L125.6 233.85" fill="#7c5834" fill-rule="evenodd" stroke="none"/>
    <path d="M651.9 249.05 L651.9 281.9 651.9 289.15 651.9 291.0 Q651.05 292.05 648.1 292.9 643.9 294.05 638.0 294.05 632.1 294.05 627.95 292.9 624.5 291.9 623.9 290.6 L623.9 289.5 623.9 281.95 623.9 236.95 624.9 237.05 631.6 238.35 Q636.45 239.65 640.5 242.05 L640.65 242.1 651.9 249.05 M670.0 290.65 L670.0 296.45 Q669.55 299.9 660.7 302.4 651.3 305.05 638.0 305.05 624.7 305.05 615.35 302.4 607.05 300.1 606.1 296.9 L606.2 291.2 Q606.6 292.15 607.7 293.05 610.0 294.9 615.35 296.4 624.7 299.05 638.0 299.05 651.3 299.05 660.7 296.4 666.0 294.9 668.3 293.05 669.7 291.9 670.0 290.65 M637.5 220.85 L639.5 220.75 637.5 220.85 M582.85 229.65 L567.35 227.55 567.3 227.55 Q558.9 226.05 552.55 224.0 L550.45 223.3 549.75 223.05 546.9 221.9 Q541.95 219.75 539.95 217.4 538.6 215.9 538.5 214.35 L542.75 216.4 549.6 219.35 549.55 219.35 Q555.7 221.8 562.55 224.0 L567.15 225.45 568.65 225.9 582.85 229.65 M60.5 214.35 L64.75 216.4 71.6 219.35 71.55 219.35 Q79.7 222.65 89.15 225.45 L90.65 225.9 104.85 229.65 89.35 227.55 89.3 227.55 Q79.5 225.8 72.45 223.3 L71.75 223.05 68.9 221.9 Q63.95 219.75 61.95 217.4 60.6 215.9 60.5 214.35 M145.9 236.95 L146.9 237.05 Q150.4 237.5 153.6 238.35 158.0 239.55 161.8 241.6 L162.5 242.05 162.65 242.1 173.9 249.05 173.9 251.4 173.9 252.5 173.9 265.85 173.9 267.5 173.9 271.65 173.9 275.45 173.9 281.9 173.9 289.15 Q174.25 289.55 174.25 290.05 L173.9 291.0 Q173.05 292.05 170.1 292.9 165.9 294.05 160.0 294.05 154.1 294.05 149.95 292.9 146.5 291.9 145.9 290.6 L145.9 289.5 145.9 281.95 145.9 267.5 145.9 266.95 145.9 264.45 145.9 253.4 143.5 253.7 137.6 254.05 135.5 254.1 134.3 254.1 131.6 254.1 124.85 253.65 118.9 252.8 117.55 252.5 114.85 251.85 Q112.05 251.05 110.25 250.2 107.4 248.75 106.9 247.1 L106.95 242.2 Q107.3 243.0 108.25 243.8 110.25 245.4 114.85 246.7 L116.65 247.15 120.0 247.85 126.0 248.65 131.55 248.95 134.3 248.95 137.55 248.9 142.35 248.65 145.9 248.25 145.9 236.95 M159.5 220.85 L161.5 220.75 159.5 220.85 M101.25 273.4 L101.25 279.2 Q100.8 282.55 92.45 285.0 L91.95 285.15 86.95 286.35 79.95 287.3 73.1 287.75 69.65 287.8 69.25 287.8 66.1 287.75 58.3 287.3 51.3 286.25 46.6 285.15 46.1 285.0 Q42.9 284.05 40.9 283.0 37.9 281.45 37.35 279.65 L37.45 273.95 Q37.85 274.9 38.95 275.8 41.25 277.65 46.6 279.15 L48.2 279.6 52.6 280.5 59.6 281.4 66.05 281.75 69.25 281.8 73.05 281.75 78.65 281.45 83.05 280.95 85.65 280.55 91.95 279.15 Q97.25 277.65 99.55 275.8 100.95 274.65 101.25 273.4 M129.4 298.75 Q128.4 297.85 128.1 296.9 L128.2 291.2 Q128.6 292.15 129.7 293.05 131.35 294.4 134.65 295.55 L137.35 296.4 Q146.7 299.05 160.0 299.05 L170.05 298.65 Q177.05 298.0 182.7 296.4 188.0 294.9 190.3 293.05 191.7 291.9 192.0 290.65 L192.0 296.45 Q191.55 299.9 182.7 302.4 174.55 304.7 163.55 305.0 L160.5 305.05 160.0 305.05 156.5 305.0 Q145.45 304.7 137.35 302.4 131.6 300.8 129.4 298.75" fill="#644628" fill-rule="evenodd" stroke="none"/>
    <path d="M118.9 252.8 L124.85 253.65 123.35 260.3 121.75 267.5 119.35 278.15 Q119.1 279.35 118.05 280.05 116.95 280.7 115.75 280.45 114.55 280.15 113.9 279.1 113.2 278.05 113.5 276.85 L115.6 267.5 116.4 263.9 118.9 252.8 M131.6 254.1 L134.3 254.1 135.5 254.1 137.6 254.05 137.7 265.65 Q137.7 266.7 137.1 267.5 L136.85 267.8 Q135.95 268.65 134.7 268.7 133.45 268.7 132.6 267.85 L132.3 267.5 Q131.7 266.7 131.7 265.7 L131.6 256.1 131.6 254.1 M143.5 253.7 L145.9 253.4 145.9 264.45 143.5 253.7 M51.3 286.25 L58.3 287.3 56.7 294.45 54.3 305.0 51.9 315.75 Q51.55 317.15 50.35 317.95 49.1 318.75 47.7 318.45 46.25 318.1 45.5 316.9 44.7 315.65 45.05 314.25 L47.1 305.0 48.55 298.6 51.3 286.25 M66.1 287.75 L69.25 287.8 69.65 287.8 73.1 287.75 73.2 301.25 Q73.2 302.65 72.2 303.7 71.2 304.75 69.75 304.75 68.3 304.75 67.25 303.75 66.2 302.75 66.2 301.3 L66.15 289.6 66.1 287.75 M79.95 287.3 L86.95 286.35 89.6 298.25 91.15 305.0 93.2 314.25 Q93.5 315.65 92.7 316.9 91.95 318.1 90.55 318.45 89.1 318.75 87.9 317.95 86.65 317.2 86.35 315.8 L83.95 305.0 83.2 301.8 79.95 287.3" fill="#593f24" fill-rule="evenodd" stroke="none"/>
    <path d="M602.95 180.05 L613.95 178.9 632.55 177.6 643.1 177.25 Q648.35 177.1 653.75 177.1 L658.45 177.15 671.65 177.45 680.4 177.9 697.5 179.6 697.5 179.55 Q707.7 180.85 716.0 183.05 L716.8 183.25 716.85 183.25 Q724.7 185.35 729.75 189.1 734.8 192.8 736.2 196.6 L736.65 197.8 Q737.35 199.85 736.4 197.45 L735.15 195.85 734.75 195.35 734.85 195.0 734.4 195.3 734.15 195.35 733.7 195.4 733.45 195.35 714.5 198.8 698.65 194.35 720.95 190.4 731.65 193.3 Q730.4 191.8 727.8 190.45 L725.95 189.55 720.95 190.4 705.5 186.25 711.85 185.15 Q705.05 183.55 697.1 182.55 L692.0 181.95 690.5 182.2 688.1 181.55 680.2 180.9 671.55 180.45 663.75 180.25 654.05 181.8 648.15 180.15 643.2 180.25 632.7 180.6 618.1 181.55 631.6 185.5 608.35 189.3 594.75 185.15 616.3 181.75 614.25 181.9 602.95 183.1 592.6 184.45 594.75 185.15 571.05 188.95 570.2 188.7 567.85 189.25 567.8 189.25 565.8 189.75 571.05 188.95 584.5 193.2 559.85 197.25 551.65 194.5 550.25 195.15 550.2 195.2 Q546.7 196.75 544.3 198.5 L544.15 198.6 Q543.45 199.0 542.95 199.5 L542.85 199.6 542.25 200.15 559.85 197.25 573.6 201.8 548.0 206.05 540.1 203.3 540.05 203.35 538.75 204.3 538.65 204.3 538.5 204.3 537.95 204.15 537.6 203.85 537.55 203.85 537.25 203.4 537.15 202.8 Q537.15 202.45 537.3 202.15 537.65 200.9 538.65 199.6 L538.7 199.6 538.95 199.2 539.0 199.15 540.95 197.25 542.5 196.1 542.6 196.05 542.65 196.0 Q545.2 194.1 548.9 192.45 L548.95 192.45 551.9 191.15 Q553.15 190.55 554.65 190.05 560.05 188.1 567.1 186.35 576.6 183.95 589.1 182.0 L602.95 180.05 M598.4 197.6 L584.5 193.2 608.35 189.3 622.45 193.6 598.4 197.6 612.75 202.2 636.95 198.0 622.45 193.6 645.8 189.65 631.6 185.5 654.05 181.8 668.45 185.85 690.5 182.2 705.5 186.25 683.3 190.05 698.65 194.35 675.65 198.4 691.4 203.0 714.5 198.8 729.1 202.9 727.1 204.1 707.6 207.75 713.9 209.6 713.4 209.75 708.15 211.3 707.5 211.45 705.25 212.05 692.2 214.85 692.15 214.85 683.6 212.25 707.55 207.75 691.4 203.0 667.55 207.35 652.0 202.6 675.65 198.4 660.5 193.95 683.3 190.05 668.45 185.85 645.8 189.65 660.5 193.95 636.95 198.0 652.0 202.6 651.9 202.65 627.6 206.9 612.75 202.2 587.75 206.5 602.35 211.35 576.4 215.95 561.95 210.95 587.75 206.5 573.6 201.8 598.4 197.6 M123.0 180.3 L135.95 178.9 154.55 177.6 165.1 177.25 Q170.35 177.1 175.75 177.1 L180.45 177.15 193.65 177.45 202.4 177.9 219.5 179.6 219.5 179.55 Q229.7 180.85 238.0 183.05 L238.8 183.25 238.85 183.25 Q246.7 185.35 251.75 189.1 256.8 192.8 258.2 196.6 L258.65 197.8 Q259.35 199.85 258.4 197.45 L257.15 195.85 256.75 195.35 256.85 195.0 256.4 195.3 256.15 195.35 255.7 195.4 255.45 195.35 236.5 198.8 220.65 194.35 242.95 190.4 253.65 193.3 Q252.4 191.8 249.8 190.45 L247.95 189.55 242.95 190.4 227.5 186.25 233.85 185.15 Q227.05 183.55 219.1 182.55 L214.0 181.95 212.5 182.2 210.1 181.55 202.2 180.9 193.55 180.45 185.75 180.25 176.05 181.8 170.15 180.15 165.2 180.25 154.7 180.6 140.1 181.55 153.6 185.5 130.35 189.3 116.75 185.15 138.3 181.75 136.25 181.9 123.0 183.35 114.6 184.45 116.75 185.15 93.05 188.95 92.2 188.7 89.85 189.25 89.8 189.25 87.8 189.75 93.05 188.95 106.5 193.2 81.85 197.25 73.65 194.5 72.25 195.15 72.2 195.2 Q68.7 196.75 66.3 198.5 L66.15 198.6 64.95 199.5 64.85 199.6 64.25 200.15 81.85 197.25 95.6 201.8 70.0 206.05 62.1 203.3 62.05 203.35 60.75 204.3 60.65 204.3 60.5 204.3 59.95 204.15 59.6 203.85 59.55 203.85 59.25 203.4 59.15 202.8 59.3 202.15 Q59.65 200.9 60.65 199.6 L60.7 199.6 60.95 199.2 61.0 199.15 Q61.8 198.2 62.95 197.25 L64.5 196.1 64.6 196.05 64.65 196.0 Q67.2 194.1 70.9 192.45 L70.95 192.45 Q72.35 191.75 73.9 191.15 L76.65 190.05 Q82.05 188.1 89.1 186.35 98.6 183.95 111.1 182.0 L123.0 180.3 M631.35 221.0 L630.7 221.05 631.45 221.05 630.7 221.05 623.9 221.2 619.1 221.2 613.75 221.15 602.95 220.9 594.75 220.55 617.55 216.4 602.35 211.35 627.6 206.9 642.95 211.8 667.55 207.35 683.6 212.25 658.85 216.85 665.0 218.85 651.9 220.0 641.45 220.65 639.5 220.75 637.5 220.85 658.85 216.85 642.95 211.8 617.55 216.4 631.35 221.0 M588.3 220.1 L573.85 218.6 567.3 217.55 576.4 215.95 588.3 220.1 M539.95 207.4 L548.0 206.05 561.95 210.95 549.75 213.05 Q546.1 211.7 543.7 210.3 L541.45 208.8 539.95 207.4 M540.05 203.35 L539.7 203.85 539.3 204.15 540.05 203.35 M167.8 189.65 L182.5 193.95 205.3 190.05 190.45 185.85 167.8 189.65 153.6 185.5 176.05 181.8 190.45 185.85 212.5 182.2 227.5 186.25 205.3 190.05 220.65 194.35 197.65 198.4 213.4 203.0 236.5 198.8 251.1 202.9 249.1 204.1 229.6 207.75 235.9 209.6 235.4 209.75 230.15 211.3 229.5 211.45 227.25 212.05 214.2 214.85 214.15 214.85 205.6 212.25 229.55 207.75 213.4 203.0 189.55 207.35 205.6 212.25 180.85 216.85 187.0 218.85 173.9 220.0 163.45 220.65 161.5 220.75 159.5 220.85 180.85 216.85 164.95 211.8 139.55 216.4 153.35 221.0 152.7 221.05 153.45 221.05 152.7 221.05 145.9 221.2 141.1 221.2 135.75 221.15 123.0 220.85 116.75 220.55 139.55 216.4 124.35 211.35 149.6 206.9 164.95 211.8 189.55 207.35 174.0 202.6 173.9 202.65 149.6 206.9 134.75 202.2 109.75 206.5 124.35 211.35 98.4 215.95 110.3 220.1 95.85 218.6 89.3 217.55 98.4 215.95 83.95 210.95 109.75 206.5 95.6 201.8 120.4 197.6 106.5 193.2 130.35 189.3 144.45 193.6 167.8 189.65 M120.4 197.6 L134.75 202.2 158.95 198.0 144.45 193.6 120.4 197.6 M62.05 203.35 L61.7 203.85 61.3 204.15 62.05 203.35 M71.75 213.05 Q68.1 211.7 65.7 210.3 L63.45 208.8 61.95 207.4 70.0 206.05 83.95 210.95 71.75 213.05 M197.65 198.4 L182.5 193.95 158.95 198.0 174.0 202.6 197.65 198.4" fill="#d85858" fill-rule="evenodd" stroke="none"/>
    <path d="M538.5 204.3 L538.65 204.3 538.75 204.3 540.05 203.35 540.1 203.3 548.0 206.05 573.6 201.8 559.85 197.25 542.25 200.15 542.85 199.6 542.95 199.5 Q543.45 199.0 544.15 198.6 L544.3 198.5 Q546.7 196.75 550.2 195.2 L550.25 195.15 551.65 194.5 559.85 197.25 584.5 193.2 571.05 188.95 565.8 189.75 567.8 189.25 567.85 189.25 570.2 188.7 571.05 188.95 594.75 185.15 592.6 184.45 602.95 183.1 614.25 181.9 616.3 181.75 594.75 185.15 608.35 189.3 631.6 185.5 618.1 181.55 632.7 180.6 643.2 180.25 648.15 180.15 654.05 181.8 663.75 180.25 671.55 180.45 680.2 180.9 688.1 181.55 690.5 182.2 692.0 181.95 697.1 182.55 Q705.05 183.55 711.85 185.15 L705.5 186.25 720.95 190.4 725.95 189.55 727.8 190.45 Q730.4 191.8 731.65 193.3 L720.95 190.4 698.65 194.35 714.5 198.8 733.45 195.35 733.7 195.4 733.85 195.65 734.2 195.75 734.15 196.4 733.6 198.1 732.9 199.25 732.25 200.1 731.4 201.0 731.25 201.1 729.7 202.45 729.1 202.9 714.5 198.8 691.4 203.0 675.65 198.4 698.65 194.35 683.3 190.05 705.5 186.25 690.5 182.2 668.45 185.85 654.05 181.8 631.6 185.5 645.8 189.65 622.45 193.6 636.95 198.0 612.75 202.2 598.4 197.6 622.45 193.6 608.35 189.3 584.5 193.2 598.4 197.6 573.6 201.8 587.75 206.5 561.95 210.95 576.4 215.95 602.35 211.35 587.75 206.5 612.75 202.2 627.6 206.9 651.9 202.65 652.0 202.6 636.95 198.0 660.5 193.95 645.8 189.65 668.45 185.85 683.3 190.05 660.5 193.95 675.65 198.4 652.0 202.6 667.55 207.35 691.4 203.0 707.55 207.75 683.6 212.25 692.15 214.85 Q679.15 217.25 665.2 218.8 L665.0 218.85 658.85 216.85 683.6 212.25 667.55 207.35 642.95 211.8 627.6 206.9 602.35 211.35 617.55 216.4 594.75 220.55 588.3 220.1 576.4 215.95 567.3 217.55 Q557.5 215.8 550.45 213.3 L549.75 213.05 561.95 210.95 548.0 206.05 539.95 207.4 539.85 207.35 539.8 207.25 539.75 207.2 539.05 206.15 538.65 205.1 538.5 204.35 538.5 204.3 M631.45 221.0 L631.35 221.0 617.55 216.4 642.95 211.8 658.85 216.85 637.5 220.85 637.25 220.85 633.0 221.0 631.45 221.0 M713.9 209.6 L707.6 207.75 727.1 204.1 Q722.15 207.0 713.9 209.6 M540.05 203.35 L539.3 204.15 539.7 203.85 540.05 203.35 M60.5 204.3 L60.65 204.3 60.75 204.3 62.05 203.35 62.1 203.3 70.0 206.05 95.6 201.8 81.85 197.25 64.25 200.15 64.85 199.6 64.95 199.5 66.15 198.6 66.3 198.5 Q68.7 196.75 72.2 195.2 L72.25 195.15 73.65 194.5 81.85 197.25 106.5 193.2 93.05 188.95 87.8 189.75 89.8 189.25 89.85 189.25 92.2 188.7 93.05 188.95 116.75 185.15 114.6 184.45 123.0 183.35 136.25 181.9 138.3 181.75 116.75 185.15 130.35 189.3 153.6 185.5 140.1 181.55 154.7 180.6 165.2 180.25 170.15 180.15 176.05 181.8 185.75 180.25 193.55 180.45 202.2 180.9 210.1 181.55 212.5 182.2 214.0 181.95 219.1 182.55 Q227.05 183.55 233.85 185.15 L227.5 186.25 242.95 190.4 247.95 189.55 249.8 190.45 Q252.4 191.8 253.65 193.3 L242.95 190.4 220.65 194.35 236.5 198.8 255.45 195.35 255.7 195.4 255.85 195.65 256.2 195.75 256.15 196.4 255.6 198.1 254.9 199.25 254.25 200.1 253.4 201.0 253.25 201.1 251.7 202.45 251.1 202.9 236.5 198.8 213.4 203.0 197.65 198.4 220.65 194.35 205.3 190.05 227.5 186.25 212.5 182.2 190.45 185.85 176.05 181.8 153.6 185.5 167.8 189.65 190.45 185.85 205.3 190.05 182.5 193.95 167.8 189.65 144.45 193.6 130.35 189.3 106.5 193.2 120.4 197.6 95.6 201.8 109.75 206.5 134.75 202.2 149.6 206.9 124.35 211.35 139.55 216.4 116.75 220.55 110.3 220.1 98.4 215.95 124.35 211.35 109.75 206.5 83.95 210.95 98.4 215.95 89.3 217.55 Q79.5 215.8 72.45 213.3 L71.75 213.05 83.95 210.95 70.0 206.05 61.95 207.4 61.85 207.35 61.8 207.25 61.75 207.2 61.05 206.15 60.65 205.1 60.5 204.35 60.5 204.3 M120.4 197.6 L144.45 193.6 158.95 198.0 134.75 202.2 120.4 197.6 M153.45 221.0 L153.35 221.0 139.55 216.4 164.95 211.8 180.85 216.85 159.5 220.85 159.25 220.85 155.0 221.0 153.45 221.0 M187.0 218.85 L180.85 216.85 205.6 212.25 189.55 207.35 164.95 211.8 149.6 206.9 173.9 202.65 174.0 202.6 189.55 207.35 213.4 203.0 229.55 207.75 205.6 212.25 214.15 214.85 Q201.15 217.25 187.2 218.8 L187.0 218.85 M62.05 203.35 L61.3 204.15 61.7 203.85 62.05 203.35 M235.9 209.6 L229.6 207.75 249.1 204.1 Q244.15 207.0 235.9 209.6 M197.65 198.4 L174.0 202.6 158.95 198.0 182.5 193.95 197.65 198.4" fill="#fbf8e3" fill-rule="evenodd" stroke="none"/>
    <path d="M736.65 197.8 Q738.0 200.45 737.3 204.75 L737.25 204.95 736.8 205.55 734.0 208.45 734.0 208.5 733.9 208.55 733.9 208.6 732.6 209.6 729.45 211.9 Q724.6 214.95 717.15 218.55 L714.3 219.85 713.15 220.4 713.1 220.4 712.9 220.5 Q704.15 224.35 692.45 228.8 679.55 233.2 669.45 242.05 L666.9 244.3 666.95 244.2 Q660.85 252.0 657.9 253.0 L657.65 253.0 657.4 252.9 651.9 249.05 640.65 242.1 640.5 242.05 Q636.45 239.65 631.6 238.35 L624.9 237.05 623.9 236.95 602.95 233.75 595.0 232.25 588.3 230.85 588.2 230.85 586.6 230.5 584.4 230.0 582.85 229.65 568.65 225.9 567.15 225.45 562.55 224.0 Q555.7 221.8 549.55 219.35 L549.6 219.35 542.75 216.4 538.5 214.35 538.3 214.25 Q536.75 213.5 535.85 213.25 L535.6 213.05 535.5 212.75 Q535.85 205.65 537.25 203.4 L537.55 203.85 537.6 203.85 537.95 204.15 Q536.85 206.05 536.55 212.4 L538.3 213.15 538.5 213.25 538.75 213.35 541.45 214.7 Q545.15 216.45 549.2 218.1 L549.95 218.4 Q557.4 221.4 565.9 224.0 L566.9 224.3 567.45 224.5 569.25 225.0 Q577.55 227.45 586.8 229.5 L588.3 229.85 588.35 229.85 588.4 229.85 588.5 229.85 589.2 230.0 590.4 230.25 595.0 231.2 595.2 231.25 602.95 232.7 623.9 235.9 625.05 236.05 631.6 237.35 631.85 237.4 Q636.6 238.65 640.6 240.9 L640.9 241.1 641.05 241.2 Q647.3 244.85 651.9 247.85 655.3 250.05 657.8 251.95 660.6 250.7 666.15 243.6 L666.2 243.55 666.75 243.05 668.8 241.3 Q679.05 232.3 692.1 227.85 L692.4 227.7 Q703.45 223.55 711.9 219.9 L712.7 219.5 713.9 218.95 714.3 218.8 Q723.3 214.6 728.9 211.05 729.1 210.85 729.4 210.7 L733.2 207.85 733.25 207.85 733.3 207.75 733.35 207.75 736.35 204.45 736.55 202.4 Q736.75 198.2 734.65 195.5 L734.6 195.45 734.55 195.55 734.35 195.75 734.25 195.75 734.2 195.75 733.85 195.65 733.7 195.4 734.15 195.35 734.4 195.3 734.85 195.0 734.75 195.35 734.65 195.5 735.15 195.85 736.4 197.45 Q737.35 199.85 736.65 197.8 M226.65 224.0 Q221.0 226.3 214.45 228.8 L211.15 230.0 Q201.7 233.75 193.85 240.0 L192.7 240.95 191.45 242.05 188.9 244.3 188.95 244.2 Q183.8 250.75 180.9 252.5 L179.9 253.0 179.65 253.0 179.4 252.9 178.9 252.5 Q177.45 251.45 175.8 250.35 L173.9 249.05 162.65 242.1 162.5 242.05 161.8 241.6 Q158.0 239.55 153.6 238.35 150.4 237.5 146.9 237.05 L145.9 236.95 125.6 233.85 117.75 232.4 117.0 232.25 110.3 230.85 110.2 230.85 108.6 230.5 107.15 230.2 104.85 229.65 90.65 225.9 89.15 225.45 Q79.7 222.65 71.55 219.35 L71.6 219.35 64.75 216.4 60.5 214.35 60.3 214.25 Q58.75 213.5 57.85 213.25 L57.6 213.05 57.5 212.75 Q57.85 205.65 59.25 203.4 L59.55 203.85 59.6 203.85 59.95 204.15 Q58.85 206.05 58.55 212.4 L60.3 213.15 60.5 213.25 60.75 213.35 63.45 214.7 Q67.15 216.45 71.2 218.1 L71.95 218.4 Q79.85 221.6 88.9 224.3 L89.45 224.5 91.25 225.0 Q99.55 227.45 108.8 229.5 L108.85 229.5 110.3 229.85 110.35 229.85 110.4 229.85 110.5 229.85 112.4 230.25 117.0 231.2 117.2 231.25 119.35 231.7 129.85 233.55 145.9 235.9 147.05 236.05 153.6 237.35 153.85 237.4 Q158.05 238.55 161.7 240.45 L162.0 240.6 162.6 240.9 162.9 241.1 163.05 241.2 Q169.3 244.85 173.9 247.85 L176.8 249.8 179.8 251.95 Q182.6 250.7 188.15 243.6 L188.2 243.55 188.45 243.3 188.75 243.05 190.8 241.3 192.3 240.0 Q199.7 233.85 208.55 230.0 211.25 228.8 214.1 227.85 L214.4 227.7 223.95 224.0 233.9 219.9 234.7 219.5 235.9 218.95 236.3 218.8 Q245.3 214.6 250.9 211.05 251.1 210.85 251.4 210.7 L255.2 207.85 255.25 207.85 255.3 207.75 255.35 207.75 258.35 204.45 258.55 202.4 Q258.75 198.2 256.65 195.5 L257.15 195.85 258.4 197.45 Q259.35 199.85 258.65 197.8 260.0 200.45 259.3 204.75 L259.25 204.95 258.8 205.55 256.0 208.45 256.0 208.5 255.9 208.55 255.9 208.6 254.6 209.6 251.45 211.9 Q246.6 214.95 239.15 218.55 L236.3 219.85 235.15 220.4 235.1 220.4 234.9 220.5 226.65 224.0 M255.7 195.4 L256.15 195.35 256.4 195.3 256.85 195.0 256.75 195.35 256.65 195.5 256.6 195.45 256.55 195.55 256.35 195.75 256.25 195.75 256.2 195.75 255.85 195.65 255.7 195.4" fill="#d34343" fill-rule="evenodd" stroke="none"/>
    <path d="M256.55 195.55 L256.6 195.45 256.65 195.5 256.55 195.55 M734.55 195.55 L734.6 195.45 734.65 195.5 734.55 195.55" fill="#d03535" fill-rule="evenodd" stroke="none"/>
    <path d="M729.7 202.45 L731.25 201.1 731.4 201.0 732.25 200.1 732.9 199.25 733.6 198.1 734.15 196.4 734.2 195.75 734.25 195.75 734.35 195.75 734.55 195.55 734.65 195.5 Q736.75 198.2 736.55 202.4 L736.35 204.45 733.35 207.75 733.3 207.75 733.25 207.85 733.2 207.85 729.4 210.7 Q731.45 204.15 729.1 202.9 L729.7 202.45 M639.5 220.75 L641.45 220.65 651.9 220.0 665.0 218.85 665.2 218.8 Q666.95 218.7 667.95 225.45 668.85 231.95 666.75 243.05 L666.2 243.55 666.15 243.6 Q660.6 250.7 657.8 251.95 655.3 250.05 651.9 247.85 647.3 244.85 641.05 241.2 L640.9 241.1 640.6 240.9 Q639.0 234.95 638.9 229.4 638.8 223.5 637.5 220.85 L639.5 220.75 M594.75 220.55 L602.95 220.9 613.75 221.15 619.1 221.2 623.9 221.2 630.7 221.05 Q630.1 224.75 630.7 231.05 630.95 233.9 631.6 237.35 L625.05 236.05 623.9 235.9 602.95 232.7 595.2 231.25 595.0 231.2 594.85 230.55 594.85 230.5 594.75 230.0 Q593.9 226.3 593.9 224.0 593.85 221.45 594.75 220.55 M692.2 214.85 L705.25 212.05 707.5 211.45 708.15 211.3 713.4 209.75 713.9 209.6 Q716.5 211.8 714.3 218.8 L713.9 218.95 712.7 219.5 711.9 219.9 Q703.45 223.55 692.4 227.7 L693.0 224.7 Q694.55 215.8 692.2 214.85 M588.3 220.1 Q587.45 221.4 587.5 224.0 587.55 226.4 588.3 229.85 L586.8 229.5 Q577.55 227.45 569.25 225.0 L567.45 224.5 566.9 224.3 566.75 224.0 Q565.1 220.8 567.3 217.55 L573.85 218.6 588.3 220.1 M549.75 213.05 Q547.6 215.55 549.2 218.1 545.15 216.45 541.45 214.7 L538.75 213.35 538.5 213.25 538.55 209.2 Q539.0 208.2 539.95 207.4 L541.45 208.8 543.7 210.3 Q546.1 211.7 549.75 213.05 M251.7 202.45 L253.25 201.1 253.4 201.0 254.25 200.1 254.9 199.25 255.6 198.1 256.15 196.4 256.2 195.75 256.25 195.75 256.35 195.75 256.55 195.55 256.65 195.5 Q258.75 198.2 258.55 202.4 L258.35 204.45 255.35 207.75 255.3 207.75 255.25 207.85 255.2 207.85 251.4 210.7 Q253.45 204.15 251.1 202.9 L251.7 202.45 M236.3 218.8 L235.9 218.95 234.7 219.5 233.9 219.9 223.95 224.0 214.4 227.7 215.0 224.7 215.1 224.0 Q216.45 215.8 214.2 214.85 L227.25 212.05 229.5 211.45 230.15 211.3 235.4 209.75 235.9 209.6 Q238.5 211.8 236.3 218.8 M188.75 243.05 L188.45 243.3 188.2 243.55 188.15 243.6 Q182.6 250.7 179.8 251.95 L176.8 249.8 173.9 247.85 Q169.3 244.85 163.05 241.2 L162.9 241.1 162.6 240.9 162.45 240.35 162.35 240.0 Q161.05 234.85 160.95 230.0 L160.9 229.4 Q160.85 226.25 160.45 224.0 160.1 222.1 159.5 220.85 L161.5 220.75 163.45 220.65 173.9 220.0 187.0 218.85 187.2 218.8 Q188.75 218.7 189.7 224.0 L189.95 225.45 190.2 230.0 Q190.2 234.3 189.3 240.0 L188.75 243.05 M153.6 237.35 L147.05 236.05 145.9 235.9 129.85 233.55 119.35 231.7 117.2 231.25 117.0 231.2 116.85 230.55 116.85 230.5 116.1 226.7 Q115.45 221.85 116.75 220.55 L123.0 220.85 135.75 221.15 141.1 221.2 145.9 221.2 152.7 221.05 Q152.5 222.35 152.45 224.0 152.3 226.6 152.6 230.0 L152.6 230.1 152.7 231.05 Q152.85 233.15 153.3 235.6 L153.6 237.35 M110.3 229.85 L108.85 229.5 108.8 229.5 Q99.55 227.45 91.25 225.0 L89.45 224.5 88.9 224.3 Q87.0 220.95 89.3 217.55 L95.85 218.6 110.3 220.1 Q108.8 222.4 110.15 229.0 L110.3 229.85 M71.2 218.1 Q67.15 216.45 63.45 214.7 L60.75 213.35 60.5 213.25 60.55 209.2 Q61.0 208.2 61.95 207.4 L63.45 208.8 65.7 210.3 Q68.1 211.7 71.75 213.05 69.6 215.55 71.2 218.1" fill="#c54141" fill-rule="evenodd" stroke="none"/>
    <path d="M736.8 205.55 Q731.55 227.5 726.3 229.3 722.35 220.7 712.9 220.5 L713.1 220.4 713.15 220.4 714.3 219.85 717.15 218.55 Q723.15 216.4 727.1 214.1 L729.1 212.9 732.25 210.1 732.6 209.6 733.9 208.6 733.9 208.55 734.0 208.5 734.0 208.45 736.8 205.55 M729.1 202.9 L729.7 202.45 729.1 202.9 M252.85 224.0 Q250.55 228.55 248.3 229.3 246.8 226.05 244.55 224.0 240.8 220.6 234.9 220.5 L235.1 220.4 235.15 220.4 236.3 219.85 239.15 218.55 Q245.15 216.4 249.1 214.1 L251.1 212.9 254.25 210.1 254.6 209.6 255.9 208.6 255.9 208.55 256.0 208.5 256.0 208.45 258.8 205.55 Q255.8 218.05 252.85 224.0 M565.45 230.0 Q560.9 235.75 559.35 236.3 557.45 234.85 553.4 230.0 L548.55 224.0 546.9 221.9 549.75 223.05 550.45 223.3 552.55 224.0 Q558.9 226.05 567.3 227.55 L567.35 227.55 565.45 230.0 M251.1 202.9 L251.7 202.45 251.1 202.9 M68.9 221.9 L71.75 223.05 72.45 223.3 Q79.5 225.8 89.3 227.55 L89.35 227.55 Q83.25 235.65 81.35 236.3 78.15 233.85 68.9 221.9" fill="#913535" fill-rule="evenodd" stroke="none"/>
    <path d="M537.95 204.15 L538.5 204.3 538.5 204.35 538.65 205.1 539.05 206.15 539.75 207.2 539.8 207.25 539.85 207.35 539.95 207.4 Q539.0 208.2 538.55 209.2 537.8 210.85 538.3 213.15 L536.55 212.4 Q536.85 206.05 537.95 204.15 M631.45 221.05 L631.45 221.0 633.0 221.0 637.25 220.85 637.5 220.85 Q638.8 223.5 638.9 229.4 639.0 234.95 640.6 240.9 636.6 238.65 631.85 237.4 L631.6 237.35 Q630.95 233.9 630.7 231.05 630.1 224.75 630.7 221.05 L631.45 221.05 M727.1 204.1 L729.1 202.9 Q731.45 204.15 729.4 210.7 729.1 210.85 728.9 211.05 723.3 214.6 714.3 218.8 716.5 211.8 713.9 209.6 722.15 207.0 727.1 204.1 M666.75 243.05 Q668.85 231.95 667.95 225.45 666.95 218.7 665.2 218.8 679.15 217.25 692.15 214.85 L692.2 214.85 Q694.55 215.8 693.0 224.7 L692.4 227.7 692.1 227.85 Q679.05 232.3 668.8 241.3 L666.75 243.05 M588.3 220.1 L594.75 220.55 Q593.85 221.45 593.9 224.0 593.9 226.3 594.75 230.0 L594.85 230.5 594.75 230.55 590.4 230.25 589.2 230.0 588.5 229.85 588.4 229.85 588.35 229.85 588.3 229.85 Q587.55 226.4 587.5 224.0 587.45 221.4 588.3 220.1 M567.3 217.55 Q565.1 220.8 566.75 224.0 L566.9 224.3 565.9 224.0 Q557.4 221.4 549.95 218.4 L549.2 218.1 Q547.6 215.55 549.75 213.05 L550.45 213.3 Q557.5 215.8 567.3 217.55 M251.4 210.7 Q251.1 210.85 250.9 211.05 245.3 214.6 236.3 218.8 238.5 211.8 235.9 209.6 244.15 207.0 249.1 204.1 L251.1 202.9 Q253.45 204.15 251.4 210.7 M214.4 227.7 L214.1 227.85 Q211.25 228.8 208.55 230.0 199.7 233.85 192.3 240.0 L190.8 241.3 188.75 243.05 189.3 240.0 Q190.2 234.3 190.2 230.0 L189.95 225.45 189.7 224.0 Q188.75 218.7 187.2 218.8 201.15 217.25 214.15 214.85 L214.2 214.85 Q216.45 215.8 215.1 224.0 L215.0 224.7 214.4 227.7 M162.6 240.9 L162.0 240.6 161.7 240.45 Q158.05 238.55 153.85 237.4 L153.6 237.35 153.3 235.6 Q152.85 233.15 152.7 231.05 L152.6 230.1 152.6 230.0 Q152.3 226.6 152.45 224.0 152.5 222.35 152.7 221.05 L153.45 221.05 153.45 221.0 155.0 221.0 159.25 220.85 159.5 220.85 Q160.1 222.1 160.45 224.0 160.85 226.25 160.9 229.4 L160.95 230.0 Q161.05 234.85 162.35 240.0 L162.45 240.35 162.6 240.9 M112.4 230.25 L110.5 229.85 110.4 229.85 110.35 229.85 110.3 229.85 110.15 229.0 Q108.8 222.4 110.3 220.1 L116.75 220.55 Q115.45 221.85 116.1 226.7 L116.85 230.5 116.75 230.55 112.4 230.25 M88.9 224.3 Q79.85 221.6 71.95 218.4 L71.2 218.1 Q69.6 215.55 71.75 213.05 L72.45 213.3 Q79.5 215.8 89.3 217.55 87.0 220.95 88.9 224.3 M60.3 213.15 L58.55 212.4 Q58.85 206.05 59.95 204.15 L60.5 204.3 60.5 204.35 60.65 205.1 61.05 206.15 61.75 207.2 61.8 207.25 61.85 207.35 61.95 207.4 Q61.0 208.2 60.55 209.2 59.8 210.85 60.3 213.15" fill="#c7b39c" fill-rule="evenodd" stroke="none"/>
    <path d="M692.15 214.85 L692.2 214.85 692.15 214.85 M594.75 230.55 L594.85 230.5 594.85 230.55 594.75 230.55 M116.85 230.5 L116.85 230.55 116.75 230.55 116.85 230.5 M254.6 209.6 L254.25 210.1 251.1 212.9 249.1 214.1 Q245.15 216.4 239.15 218.55 246.6 214.95 251.45 211.9 L254.6 209.6 M214.2 214.85 L214.15 214.85 214.2 214.85 M732.6 209.6 L732.25 210.1 729.1 212.9 727.1 214.1 Q723.15 216.4 717.15 218.55 724.6 214.95 729.45 211.9 L732.6 209.6" fill="#694a2c" fill-rule="evenodd" stroke="none"/>
    <path d="M631.35 221.0 L631.45 221.0 631.45 221.05 630.7 221.05 631.35 221.0 M153.35 221.0 L153.45 221.0 153.45 221.05 152.7 221.05 153.35 221.0" fill="#d8c5a7" fill-rule="evenodd" stroke="none"/>
  </g>
  <defs>
    <linearGradient gradientTransform="matrix(0.0533, 0.0308, -0.0543, 0.0939, 401.05, 129.4)" gradientUnits="userSpaceOnUse" id="gradient0" spreadMethod="pad" x1="-819.2" x2="819.2">
      <stop offset="0.0" stop-color="#ffffff" stop-opacity="0.3019608"/>
      <stop offset="1.0" stop-color="#ffffff" stop-opacity="0.6313726"/>
    </linearGradient>
    <linearGradient gradientTransform="matrix(0.0398, 0.0107, -0.0146, 0.0544, 550.0, 93.4)" gradientUnits="userSpaceOnUse" id="gradient1" spreadMethod="pad" x1="-819.2" x2="819.2">
      <stop offset="0.0" stop-color="#ffffff" stop-opacity="0.3019608"/>
      <stop offset="1.0" stop-color="#ffffff" stop-opacity="0.6313726"/>
    </linearGradient>
    <linearGradient gradientTransform="matrix(0.0433, 0.025, -0.0281, 0.0488, 166.7, 188.25)" gradientUnits="userSpaceOnUse" id="gradient2" spreadMethod="pad" x1="-819.2" x2="819.2">
      <stop offset="0.0" stop-color="#ffffff" stop-opacity="0.3019608"/>
      <stop offset="1.0" stop-color="#ffffff" stop-opacity="0.6313726"/>
    </linearGradient>
  </defs>
</svg>
