<?xml version="1.0" encoding="UTF-8" standalone="no"?>
<svg xmlns:ffdec="https://www.free-decompiler.com/flash" xmlns:xlink="http://www.w3.org/1999/xlink" ffdec:objectType="shape" height="187.9px" width="160.0px" xmlns="http://www.w3.org/2000/svg">
  <g transform="matrix(1.0, 0.0, 0.0, 1.0, 28.5, 0.0)">
    <path d="M84.7 13.3 L84.45 13.25 Q73.15 60.15 48.15 180.4 L5.15 186.65 Q24.95 79.9 77.95 13.85 L84.4 13.15 84.45 13.15 84.7 13.3" fill="#ffcc99" fill-rule="evenodd" stroke="none"/>
    <path d="M84.7 13.3 L115.15 28.4 Q76.5 64.9 59.25 185.15 L48.15 180.4 Q73.15 60.15 84.45 13.25 L84.7 13.3 M77.95 13.85 Q24.95 79.9 5.15 186.65 L-23.15 187.15 Q17.85 69.65 43.1 27.7 45.35 14.05 51.15 3.4 L77.95 13.85" fill="#f1ba87" fill-rule="evenodd" stroke="none"/>
    <path d="M59.25 185.15 Q76.5 64.9 115.15 28.4 L84.7 13.3 131.5 30.85 Q121.75 31.5 102.65 56.3 78.35 87.8 64.25 183.65 L59.25 185.15 M84.4 13.15 L77.95 13.85 51.15 3.4 Q45.35 14.05 43.1 27.7 17.85 69.65 -23.15 187.15 L-28.5 187.9 Q18.35 57.7 49.15 0.8 49.4 0.3 49.95 0.1 50.45 -0.1 51.0 0.1 L84.4 13.15" fill="#5c4730" fill-rule="evenodd" stroke="none"/>
  </g>
</svg>
