<?xml version="1.0" encoding="UTF-8" standalone="no"?>
<svg xmlns:ffdec="https://www.free-decompiler.com/flash" xmlns:xlink="http://www.w3.org/1999/xlink" ffdec:objectType="shape" height="384.65px" width="340.6px" xmlns="http://www.w3.org/2000/svg">
  <g transform="matrix(1.0, 0.0, 0.0, 1.0, 0.0, 1.5)">
    <path d="M324.5 36.95 L324.7 37.7 324.3 38.35 323.55 38.55 317.7 37.7 317.0 37.3 Q316.75 37.0 316.8 36.6 316.85 36.15 317.2 35.9 317.5 35.65 317.95 35.7 L323.85 36.55 Q324.25 36.6 324.5 36.95 M114.65 79.35 L114.6 79.3 Q114.25 79.05 114.2 78.65 114.1 78.2 114.35 77.9 114.55 77.55 115.0 77.5 L115.15 77.45 120.9 76.45 121.65 76.6 122.05 77.25 121.85 78.0 121.25 78.4 115.35 79.45 114.65 79.35 M151.45 29.55 L151.4 29.4 Q151.35 29.0 151.65 28.7 L152.3 28.3 155.25 28.0 158.25 27.7 Q158.65 27.65 159.0 27.95 L159.35 28.6 159.15 29.35 158.45 29.7 152.5 30.3 151.8 30.1 151.45 29.55 M311.0 34.75 L312.05 34.9 Q312.45 34.95 312.7 35.3 L312.9 36.05 312.5 36.7 311.8 36.9 310.45 36.75 305.9 36.1 305.2 35.7 Q304.95 35.4 305.0 35.0 305.05 34.55 305.4 34.3 305.7 34.05 306.15 34.1 L311.0 34.75 M298.3 81.15 L298.4 81.15 299.05 81.55 299.25 82.3 298.85 82.95 298.15 83.15 297.8 83.1 292.25 82.35 291.55 81.95 Q291.3 81.65 291.35 81.25 291.4 80.8 291.75 80.55 292.05 80.3 292.5 80.35 L298.3 81.15 M87.95 325.3 L86.4 325.2 Q86.0 325.2 85.7 324.9 L85.45 324.15 Q85.45 323.75 85.8 323.45 86.1 323.2 86.5 323.2 L87.9 323.3 92.45 323.5 Q92.85 323.5 93.15 323.85 L93.4 324.55 93.1 325.25 92.35 325.5 87.95 325.3 M289.1 32.25 L289.3 33.0 288.95 33.65 288.2 33.85 282.25 33.15 Q281.8 33.1 281.6 32.8 281.3 32.45 281.35 32.05 281.4 31.6 281.75 31.4 282.05 31.1 282.5 31.15 L288.45 31.85 Q288.85 31.9 289.1 32.25 M300.7 35.1 L300.0 35.3 294.1 34.55 293.45 34.2 Q293.15 33.85 293.2 33.45 293.25 33.0 293.6 32.8 293.9 32.5 294.35 32.55 L300.25 33.3 Q300.65 33.35 300.9 33.7 L301.1 34.45 300.7 35.1 M277.45 31.6 L277.1 32.3 276.35 32.5 270.4 31.9 269.75 31.55 Q269.45 31.2 269.5 30.8 269.55 30.4 269.9 30.15 270.2 29.85 270.6 29.9 L276.55 30.5 277.25 30.9 277.45 31.6 M257.9 30.5 Q257.6 30.2 257.65 29.8 L258.0 29.1 Q258.3 28.8 258.75 28.85 L264.7 29.35 Q265.1 29.4 265.4 29.7 L265.6 30.45 265.25 31.15 264.55 31.35 258.6 30.85 257.9 30.5 M253.55 28.7 L253.75 29.45 253.4 30.15 252.7 30.35 246.75 29.9 Q246.3 29.85 246.05 29.55 245.75 29.25 245.8 28.85 245.85 28.4 246.15 28.15 246.45 27.85 246.9 27.9 L252.85 28.35 253.55 28.7 M280.45 80.8 L279.8 80.45 Q279.5 80.1 279.55 79.7 279.6 79.25 279.95 79.05 280.25 78.75 280.7 78.8 L286.6 79.55 Q287.0 79.6 287.25 79.95 L287.45 80.7 287.05 81.35 286.35 81.55 280.45 80.8 M275.3 79.9 L274.55 80.1 268.65 79.4 268.0 79.05 Q267.7 78.7 267.75 78.3 267.8 77.85 268.15 77.65 268.45 77.35 268.9 77.4 L274.8 78.1 275.45 78.5 275.65 79.25 275.3 79.9 M251.6 77.35 L250.85 77.55 245.0 77.0 244.3 76.65 Q244.0 76.35 244.05 75.95 L244.4 75.25 Q244.7 74.95 245.15 75.0 L251.05 75.55 Q251.45 75.6 251.75 75.95 L251.95 76.65 251.6 77.35 M262.7 78.75 L256.8 78.15 Q256.4 78.1 256.15 77.8 255.85 77.45 255.9 77.05 255.95 76.65 256.3 76.4 256.6 76.1 257.0 76.15 L262.9 76.75 Q263.3 76.8 263.6 77.15 L263.8 77.85 263.45 78.55 262.7 78.75 M303.15 82.85 Q303.2 82.45 303.55 82.2 L304.3 82.0 310.2 82.9 Q310.6 82.95 310.85 83.3 L311.05 84.05 310.65 84.7 309.9 84.9 304.0 84.0 Q303.6 83.95 303.35 83.6 303.1 83.25 303.15 82.85 M240.95 27.5 Q241.35 27.55 241.6 27.85 241.9 28.15 241.85 28.6 L241.5 29.25 Q241.2 29.55 240.8 29.5 L234.85 29.15 Q234.45 29.15 234.15 28.85 L233.9 28.1 Q233.9 27.7 234.25 27.4 234.55 27.15 234.95 27.15 L240.95 27.5 M205.85 27.9 L205.15 28.15 199.2 28.1 198.5 27.8 198.2 27.1 Q198.2 26.7 198.5 26.4 198.8 26.1 199.2 26.1 L205.2 26.15 Q205.6 26.15 205.9 26.45 L206.15 27.2 205.85 27.9 M222.0 27.6 Q222.0 27.15 222.35 26.9 222.6 26.6 223.05 26.6 L229.0 26.85 Q229.4 26.85 229.7 27.2 L229.95 27.9 229.65 28.6 228.9 28.85 223.0 28.6 222.3 28.3 Q222.0 28.0 222.0 27.6 M217.1 26.4 Q217.5 26.4 217.8 26.75 L218.05 27.45 217.75 28.15 217.05 28.4 211.1 28.25 210.4 27.95 Q210.1 27.65 210.1 27.25 210.1 26.8 210.4 26.55 210.7 26.25 211.15 26.25 L217.1 26.4 M182.1 28.05 L181.4 28.35 175.45 28.6 174.75 28.35 Q174.4 28.05 174.4 27.65 L174.65 26.95 Q174.95 26.6 175.35 26.6 L181.35 26.35 Q181.75 26.35 182.05 26.65 L182.35 27.35 182.1 28.05 M239.15 76.5 L233.2 76.05 232.5 75.7 Q232.2 75.4 232.25 75.0 L232.6 74.3 Q232.9 74.0 233.35 74.05 L239.3 74.5 Q239.7 74.55 240.0 74.85 L240.2 75.6 239.85 76.3 239.15 76.5 M208.45 73.65 Q208.45 73.2 208.8 72.95 209.05 72.65 209.5 72.65 L215.45 72.9 Q215.85 72.9 216.15 73.25 L216.4 73.95 216.1 74.65 215.35 74.9 209.45 74.65 Q209.0 74.65 208.75 74.35 208.45 74.05 208.45 73.65 M227.4 73.65 Q227.8 73.7 228.05 74.0 228.35 74.3 228.3 74.75 L227.95 75.4 227.25 75.65 221.3 75.25 220.6 74.9 Q220.3 74.6 220.35 74.2 L220.7 73.5 Q221.0 73.2 221.45 73.25 L227.4 73.65 M172.75 73.2 Q172.75 72.75 173.05 72.45 173.3 72.15 173.75 72.15 L179.7 72.1 Q180.1 72.1 180.4 72.4 L180.7 73.1 180.4 73.8 Q180.1 74.1 179.7 74.1 L173.8 74.15 173.05 73.9 Q172.75 73.6 172.75 73.2 M167.8 72.3 Q168.2 72.3 168.5 72.6 L168.8 73.3 168.55 74.0 167.85 74.3 161.9 74.5 161.2 74.25 Q160.85 73.95 160.85 73.55 160.85 73.1 161.15 72.85 161.4 72.5 161.85 72.5 L167.8 72.3 M196.85 72.55 Q197.15 72.25 197.6 72.25 L203.55 72.4 Q203.95 72.4 204.25 72.75 L204.5 73.45 204.2 74.15 203.5 74.4 197.55 74.25 196.85 73.95 Q196.55 73.65 196.55 73.25 196.55 72.8 196.85 72.55 M184.95 72.4 Q185.25 72.1 185.65 72.1 L191.65 72.15 Q192.05 72.15 192.35 72.45 L192.6 73.2 192.3 73.9 191.6 74.15 185.65 74.1 184.95 73.8 Q184.65 73.5 184.65 73.1 184.65 72.7 184.95 72.4 M193.25 26.1 Q193.65 26.1 193.95 26.4 L194.25 27.1 194.0 27.8 193.3 28.1 187.35 28.2 186.6 27.95 Q186.3 27.65 186.3 27.25 186.3 26.8 186.6 26.5 186.85 26.2 187.3 26.2 L193.25 26.1 M170.2 28.6 L169.55 28.95 163.5 29.35 Q163.05 29.4 162.75 29.1 L162.4 28.45 Q162.35 28.0 162.65 27.7 162.9 27.4 163.35 27.35 L169.4 26.95 Q169.8 26.9 170.1 27.2 L170.45 27.9 170.2 28.6 M281.6 156.1 Q278.55 171.9 276.0 187.6 183.35 179.55 121.55 182.7 L121.3 183.0 120.55 183.15 119.95 182.8 94.95 184.75 Q97.05 168.15 99.75 151.7 112.7 149.4 127.4 148.2 189.15 143.0 281.6 156.1 M296.1 90.05 Q292.0 106.6 288.4 123.05 196.35 110.15 134.9 115.4 119.3 116.7 105.7 119.2 108.95 102.85 112.85 86.7 126.6 84.05 142.45 82.65 L142.55 82.3 143.0 81.7 143.8 81.6 Q144.15 81.7 144.4 82.05 L144.5 82.5 Q205.4 77.4 296.1 90.05 M123.75 33.95 L123.6 34.7 123.0 35.15 116.9 36.6 116.15 36.45 115.7 35.85 Q115.6 35.45 115.8 35.1 L116.4 34.65 122.55 33.2 123.3 33.3 123.75 33.95 M134.45 30.9 L135.2 31.05 135.6 31.7 135.4 32.45 134.8 32.85 128.9 33.9 128.15 33.75 Q127.8 33.5 127.75 33.1 127.65 32.65 127.9 32.35 128.1 32.0 128.55 31.95 L134.45 30.9 M139.7 30.3 Q139.95 29.95 140.35 29.9 L146.35 29.05 Q146.75 29.0 147.05 29.25 L147.45 29.95 147.25 30.65 Q147.0 31.0 146.6 31.05 L140.65 31.9 139.9 31.7 Q139.55 31.45 139.5 31.05 139.45 30.65 139.7 30.3 M109.75 78.75 L110.2 79.4 110.05 80.15 109.4 80.6 103.55 81.95 102.8 81.8 Q102.4 81.6 102.35 81.2 102.25 80.8 102.45 80.45 102.65 80.05 103.1 80.0 L109.0 78.65 109.75 78.75 M133.95 75.65 L133.75 76.4 133.1 76.75 127.15 77.5 126.4 77.3 Q126.05 77.05 126.0 76.65 125.95 76.2 126.2 75.9 126.45 75.55 126.9 75.5 L132.85 74.75 Q133.25 74.7 133.6 75.0 L133.95 75.65 M149.15 73.5 Q149.4 73.2 149.85 73.15 L155.85 72.75 Q156.25 72.7 156.55 73.0 L156.9 73.7 Q156.95 74.1 156.65 74.4 L156.0 74.75 150.0 75.15 Q149.55 75.2 149.25 74.9 148.95 74.65 148.9 74.25 148.85 73.8 149.15 73.5 M144.8 73.55 Q145.2 73.5 145.5 73.8 L145.85 74.5 145.65 75.2 144.95 75.55 139.0 76.1 138.3 75.9 Q137.95 75.6 137.9 75.2 137.85 74.8 138.15 74.5 138.4 74.15 138.8 74.1 L144.8 73.55 M129.8 140.6 L129.95 141.35 128.6 147.3 128.15 147.95 127.4 148.1 126.75 147.65 Q126.55 147.3 126.65 146.9 L128.0 140.9 Q128.05 140.45 128.45 140.25 L129.2 140.15 Q129.6 140.2 129.8 140.6 M132.45 128.75 L132.6 129.5 131.3 135.3 130.85 135.9 130.1 136.05 129.45 135.6 Q129.25 135.25 129.35 134.85 L130.65 129.05 Q130.7 128.6 131.1 128.4 L131.85 128.3 Q132.25 128.35 132.45 128.75 M135.25 117.0 L135.4 117.75 134.0 123.65 133.55 124.25 132.8 124.4 132.15 123.95 Q131.95 123.55 132.05 123.2 L133.45 117.3 Q133.5 116.85 133.9 116.65 L134.65 116.55 135.25 117.0 M100.95 216.3 L114.2 215.6 114.2 215.4 114.8 211.5 Q114.85 211.1 115.2 210.85 115.55 210.6 115.95 210.7 116.35 210.75 116.6 211.05 L116.8 211.8 116.25 215.5 Q178.65 213.05 271.05 220.8 268.95 236.3 267.35 251.75 173.9 249.45 111.55 250.3 L111.5 250.5 111.2 252.8 110.8 253.45 110.1 253.65 109.4 253.25 Q109.15 252.95 109.2 252.55 L109.5 250.35 90.65 250.7 Q94.35 244.45 96.85 237.55 100.75 226.5 100.95 216.3 M119.95 186.7 Q120.35 186.75 120.6 187.1 L120.75 187.85 119.75 193.7 119.35 194.35 118.6 194.5 117.95 194.1 Q117.7 193.75 117.8 193.35 L118.8 187.5 Q118.85 187.05 119.2 186.85 119.5 186.6 119.95 186.7 M116.8 199.4 Q116.85 199.0 117.2 198.75 117.5 198.5 117.95 198.6 118.3 198.65 118.55 199.0 L118.75 199.75 117.75 205.75 117.35 206.4 116.6 206.6 115.95 206.2 Q115.7 205.85 115.8 205.45 L116.8 199.4 M109.05 270.05 L109.25 270.75 108.65 276.75 108.3 277.45 107.55 277.65 Q107.15 277.6 106.9 277.3 106.6 276.95 106.65 276.55 L107.25 270.55 Q107.3 270.15 107.65 269.9 107.95 269.6 108.35 269.65 108.75 269.7 109.05 270.05 M108.5 258.55 Q108.55 258.15 108.9 257.9 109.2 257.6 109.6 257.65 110.0 257.7 110.3 258.05 L110.5 258.75 109.9 264.75 109.55 265.45 108.8 265.65 Q108.4 265.6 108.15 265.3 107.85 264.95 107.9 264.55 L108.5 258.55 M87.8 284.25 L105.9 284.75 105.9 284.65 106.1 282.55 Q106.15 282.15 106.5 281.9 106.8 281.6 107.2 281.65 107.6 281.7 107.9 282.05 L108.1 282.75 107.9 284.8 Q170.25 285.95 264.5 283.2 263.25 299.6 262.55 315.85 166.9 319.75 104.35 317.95 L87.8 317.35 Q87.5 300.75 87.8 284.25 M69.55 323.3 L69.2 323.95 68.5 324.2 62.6 323.75 61.9 323.4 Q61.6 323.1 61.65 322.7 L62.0 322.0 Q62.3 321.7 62.75 321.75 L68.65 322.2 Q69.05 322.25 69.3 322.55 69.6 322.85 69.55 323.3 M74.55 322.6 L80.5 322.9 Q80.9 322.9 81.2 323.25 L81.45 323.95 81.15 324.65 80.4 324.9 74.45 324.6 Q74.05 324.6 73.75 324.3 L73.5 323.55 Q73.5 323.15 73.85 322.85 74.15 322.6 74.55 322.6 M258.9 323.7 L258.2 324.0 252.25 324.2 251.55 323.95 Q251.2 323.65 251.2 323.25 251.2 322.8 251.5 322.55 251.75 322.2 252.2 322.2 L258.15 322.0 Q258.55 322.0 258.85 322.3 L259.15 323.0 258.9 323.7 M198.7 325.95 L192.75 326.05 192.0 325.8 Q191.7 325.5 191.7 325.1 191.7 324.65 192.0 324.35 192.25 324.05 192.7 324.05 L198.65 323.95 199.35 324.25 199.65 324.95 199.4 325.65 198.7 325.95 M175.55 324.65 L175.85 325.35 175.6 326.05 Q175.3 326.35 174.9 326.35 L168.95 326.45 168.2 326.2 Q167.9 325.9 167.9 325.5 167.9 325.05 168.2 324.75 168.45 324.45 168.9 324.45 L174.85 324.35 Q175.25 324.35 175.55 324.65 M180.85 326.25 L180.1 326.0 Q179.8 325.7 179.8 325.3 179.8 324.85 180.1 324.55 180.35 324.25 180.8 324.25 L186.75 324.15 Q187.15 324.15 187.45 324.45 L187.75 325.15 187.5 325.85 186.8 326.15 180.85 326.25 M239.3 323.65 Q239.3 323.2 239.6 322.95 239.85 322.6 240.3 322.6 L246.25 322.4 Q246.65 322.4 246.95 322.7 L247.25 323.4 247.0 324.1 Q246.7 324.4 246.3 324.4 L240.35 324.6 239.65 324.35 Q239.3 324.05 239.3 323.65 M234.35 322.8 L235.05 323.1 235.35 323.8 235.1 324.5 234.4 324.8 228.45 325.0 227.75 324.75 Q227.4 324.45 227.4 324.05 227.4 323.6 227.7 323.35 227.95 323.0 228.4 323.0 L234.35 322.8 M211.3 325.3 Q211.0 325.6 210.6 325.6 L204.65 325.8 203.95 325.55 Q203.6 325.25 203.6 324.85 203.6 324.4 203.9 324.15 204.15 323.8 204.6 323.8 L210.55 323.6 Q210.95 323.6 211.25 323.9 L211.55 324.6 211.3 325.3 M222.5 325.2 L216.55 325.4 215.85 325.15 Q215.5 324.85 215.5 324.45 215.5 324.0 215.8 323.75 216.05 323.4 216.5 323.4 L222.45 323.2 Q222.85 323.2 223.15 323.5 L223.45 324.2 223.2 324.9 222.5 325.2 M116.35 325.2 L116.05 325.9 115.35 326.15 109.35 326.0 108.65 325.7 Q108.35 325.4 108.35 325.0 108.35 324.55 108.7 324.3 108.95 324.0 109.4 324.0 L115.4 324.15 Q115.8 324.15 116.1 324.45 L116.35 325.2 M98.35 325.7 Q97.9 325.7 97.65 325.4 97.35 325.1 97.35 324.7 97.35 324.25 97.7 324.0 97.95 323.7 98.4 323.7 L104.0 323.9 Q104.4 323.9 104.7 324.25 L104.95 324.95 104.65 325.65 103.95 325.9 98.35 325.7 M151.75 326.2 L151.05 326.5 145.1 326.5 Q144.7 326.5 144.4 326.2 144.1 325.9 144.1 325.5 144.1 325.1 144.4 324.8 144.7 324.5 145.1 324.5 L151.05 324.5 Q151.45 324.5 151.75 324.8 L152.05 325.5 151.75 326.2 M157.0 326.5 Q156.6 326.5 156.3 326.2 156.0 325.9 156.0 325.5 156.0 325.1 156.3 324.8 156.6 324.5 157.0 324.5 L162.95 324.5 163.65 324.8 163.95 325.5 163.65 326.2 162.95 326.5 157.0 326.5 M127.3 324.35 Q127.7 324.35 128.0 324.65 L128.25 325.4 127.95 326.1 127.25 326.35 121.3 326.25 Q120.85 326.25 120.6 325.95 120.3 325.65 120.3 325.25 120.3 324.8 120.6 324.55 120.9 324.25 121.35 324.25 L127.3 324.35 M139.85 324.8 L140.15 325.5 139.85 326.2 139.15 326.5 133.2 326.45 Q132.75 326.45 132.5 326.15 132.2 325.85 132.2 325.45 132.2 325.0 132.5 324.75 132.8 324.45 133.25 324.45 L139.15 324.5 Q139.55 324.5 139.85 324.8 M270.1 323.55 L264.15 323.8 263.45 323.55 Q263.1 323.25 263.1 322.85 263.1 322.4 263.4 322.15 263.65 321.8 264.1 321.8 L270.0 321.55 270.75 321.8 271.05 322.5 270.8 323.25 270.1 323.55" fill="#fbd9db" fill-rule="evenodd" stroke="none"/>
    <path d="M324.5 36.95 Q324.25 36.6 323.85 36.55 L317.95 35.7 Q317.5 35.65 317.2 35.9 316.85 36.15 316.8 36.6 316.75 37.0 317.0 37.3 L317.7 37.7 323.55 38.55 324.3 38.35 324.7 37.7 324.5 36.95 M72.95 175.6 L76.6 156.95 Q79.9 140.55 83.75 124.3 87.65 107.9 92.0 91.65 L94.25 83.3 Q104.45 46.55 117.1 10.65 190.55 -11.1 339.1 11.65 334.55 25.1 330.4 38.55 291.85 161.45 280.15 282.7 278.55 299.0 277.5 315.25 L277.05 322.25 Q275.4 348.95 275.1 375.6 136.15 388.15 53.1 374.6 53.9 328.15 58.05 282.9 L58.1 282.1 58.9 281.7 59.05 281.65 Q78.3 269.75 88.85 253.65 88.05 268.9 87.8 284.25 L65.0 283.3 Q63.5 299.45 62.5 315.8 L87.8 317.35 87.9 323.3 86.5 323.2 Q86.1 323.2 85.8 323.45 85.45 323.75 85.45 324.15 L85.7 324.9 Q86.0 325.2 86.4 325.2 L87.95 325.3 88.65 345.65 Q224.75 374.75 261.6 350.65 261.75 333.35 262.55 315.85 L270.5 315.55 Q271.55 299.25 273.15 282.95 L264.5 283.2 Q265.7 267.55 267.35 251.75 L276.55 252.0 Q278.45 236.85 280.75 221.65 L280.1 221.55 271.05 220.8 Q273.25 204.25 276.0 187.6 L286.25 188.55 Q289.05 173.1 292.3 157.65 L281.6 156.1 Q284.7 139.6 288.4 123.05 L299.65 124.7 Q303.55 108.2 307.95 91.75 L296.1 90.05 297.8 83.1 298.15 83.15 298.85 82.95 299.25 82.3 299.05 81.55 298.4 81.15 298.3 81.15 Q303.95 59.05 310.45 36.75 L311.8 36.9 312.5 36.7 312.9 36.05 312.7 35.3 Q312.45 34.95 312.05 34.9 L311.0 34.75 312.05 31.25 Q313.8 33.2 316.6 33.7 318.2 33.9 319.4 32.85 L319.05 33.85 324.2 34.7 Q326.3 27.1 328.95 19.5 L323.6 18.6 Q323.35 19.15 323.25 19.7 322.95 18.15 321.05 17.95 317.45 17.35 314.05 19.55 312.25 20.5 311.25 21.85 L300.9 19.5 303.85 15.75 289.0 13.8 288.7 17.15 280.25 15.85 281.75 12.95 270.25 11.8 270.1 14.55 264.2 13.95 264.3 12.25 259.5 11.85 259.4 13.55 253.1 13.15 253.1 12.9 Q253.4 9.8 252.05 7.65 250.45 5.5 248.2 5.5 243.1 5.2 237.95 5.3 237.1 8.85 236.65 12.8 L223.65 13.25 Q223.15 11.2 221.6 9.65 219.35 7.4 216.1 7.4 212.85 7.4 210.6 9.65 208.5 11.75 208.35 14.7 L196.8 16.45 196.0 15.6 Q195.2 14.95 193.2 14.5 192.0 14.15 192.0 13.8 L192.0 13.65 Q192.15 13.3 192.7 13.35 193.8 13.4 196.3 14.65 196.6 12.3 197.25 9.7 196.1 8.45 192.9 8.55 190.4 8.6 188.45 10.4 186.5 12.25 186.5 14.5 186.4 16.6 188.45 17.85 L188.65 18.05 180.15 20.05 Q180.2 14.25 180.4 9.1 L175.45 9.35 Q175.35 9.8 175.4 10.4 174.7 9.05 173.15 9.25 170.1 9.35 168.0 11.8 165.8 13.9 165.8 17.15 165.6 20.6 167.75 23.2 L168.05 23.5 Q161.6 25.55 155.25 28.0 L152.3 28.3 151.65 28.7 Q151.35 29.0 151.4 29.4 L151.45 29.55 Q137.7 35.15 124.6 42.65 119.5 60.0 115.15 77.45 L115.0 77.5 Q114.55 77.55 114.35 77.9 114.1 78.2 114.2 78.65 114.25 79.05 114.6 79.3 L114.65 79.35 112.85 86.7 99.55 89.6 Q95.15 105.85 91.25 122.3 98.15 120.55 105.7 119.2 102.4 135.35 99.75 151.7 91.5 153.1 84.0 154.95 L79.7 177.05 78.7 176.75 72.95 175.6 M317.2 23.9 Q318.15 23.3 319.3 23.5 320.35 23.6 320.95 24.45 321.4 25.25 321.25 26.2 L320.1 27.85 Q319.1 28.4 318.05 28.3 316.95 28.05 316.4 27.35 315.75 26.3 316.1 25.4 316.35 24.25 317.2 23.9 M264.5 10.2 L264.65 8.8 264.4 7.85 Q264.1 7.4 263.55 7.35 L261.3 7.2 Q260.85 7.15 260.4 7.5 259.95 7.9 259.9 8.45 L259.7 9.8 Q259.65 10.4 260.0 10.8 260.3 11.25 260.8 11.3 L263.05 11.45 Q263.6 11.5 264.1 11.15 L264.5 10.2 M243.15 12.8 L243.35 11.0 245.7 11.1 Q246.2 11.15 246.5 11.55 246.8 11.8 246.7 12.6 L246.65 12.9 243.15 12.8 M303.15 82.85 Q303.1 83.25 303.35 83.6 303.6 83.95 304.0 84.0 L309.9 84.9 310.65 84.7 311.05 84.05 310.85 83.3 Q310.6 82.95 310.2 82.9 L304.3 82.0 303.55 82.2 Q303.2 82.45 303.15 82.85 M171.3 18.85 Q170.65 18.05 170.75 17.0 170.7 15.8 171.4 15.2 171.95 14.5 173.05 14.55 173.85 14.45 174.65 15.15 175.2 15.8 175.3 16.85 L174.55 18.75 Q173.85 19.6 172.9 19.6 171.9 19.65 171.3 18.85 M163.45 19.4 Q164.8 17.35 164.9 15.1 164.85 13.05 163.6 11.55 162.05 10.1 160.3 10.25 L152.5 10.8 Q152.55 16.9 152.0 26.15 L157.1 25.75 157.2 21.5 160.1 21.4 Q161.9 21.3 163.45 19.4 M184.95 15.3 Q185.25 12.4 185.95 8.9 L181.4 9.05 182.0 15.3 184.95 15.3 M127.95 15.35 L128.8 15.55 129.05 16.3 128.6 17.2 127.7 17.75 125.3 18.1 125.6 15.75 127.95 15.35 M124.25 24.55 L128.3 23.85 Q130.7 23.35 133.25 20.4 135.45 17.55 135.65 15.1 135.8 12.65 134.15 11.15 132.35 9.55 129.95 10.15 124.75 11.0 119.7 12.2 119.2 18.25 116.5 32.05 L123.15 30.85 124.25 24.55 M159.1 16.45 L157.4 16.5 157.4 14.5 159.15 14.45 159.8 14.65 Q160.0 14.85 160.0 15.4 L159.75 16.15 Q159.55 16.5 159.1 16.45 M145.45 20.45 L143.7 21.5 Q142.6 21.7 142.05 20.9 141.35 20.05 141.6 18.95 141.7 17.75 142.4 17.1 143.1 16.35 144.15 16.2 145.05 16.05 145.75 16.65 146.35 17.3 146.3 18.35 146.1 19.5 145.45 20.45 M146.6 11.45 Q146.5 11.8 146.55 12.35 145.85 11.25 144.3 11.55 141.3 11.85 139.1 14.3 136.8 16.25 136.45 19.75 135.85 23.5 137.85 26.0 139.95 28.05 143.2 27.5 144.95 27.15 145.7 25.95 145.6 26.45 145.65 26.95 L150.95 26.3 Q151.55 17.1 151.5 10.9 L146.6 11.45 M139.7 30.3 Q139.45 30.65 139.5 31.05 139.55 31.45 139.9 31.7 L140.65 31.9 146.6 31.05 Q147.0 31.0 147.25 30.65 L147.45 29.95 147.05 29.25 Q146.75 29.0 146.35 29.05 L140.35 29.9 Q139.95 29.95 139.7 30.3 M134.45 30.9 L128.55 31.95 Q128.1 32.0 127.9 32.35 127.65 32.65 127.75 33.1 127.8 33.5 128.15 33.75 L128.9 33.9 134.8 32.85 135.4 32.45 135.6 31.7 135.2 31.05 134.45 30.9 M123.75 33.95 L123.3 33.3 122.55 33.2 116.4 34.65 115.8 35.1 Q115.6 35.45 115.7 35.85 L116.15 36.45 116.9 36.6 123.0 35.15 123.6 34.7 123.75 33.95 M109.75 78.75 L109.0 78.65 103.1 80.0 Q102.65 80.05 102.45 80.45 102.25 80.8 102.35 81.2 102.4 81.6 102.8 81.8 L103.55 81.95 109.4 80.6 110.05 80.15 110.2 79.4 109.75 78.75 M91.35 185.15 L94.95 184.75 94.3 189.95 92.2 186.4 92.25 186.4 91.35 185.15 M74.55 322.6 Q74.15 322.6 73.85 322.85 73.5 323.15 73.5 323.55 L73.75 324.3 Q74.05 324.6 74.45 324.6 L80.4 324.9 81.15 324.65 81.45 323.95 81.2 323.25 Q80.9 322.9 80.5 322.9 L74.55 322.6 M69.55 323.3 Q69.6 322.85 69.3 322.55 69.05 322.25 68.65 322.2 L62.75 321.75 Q62.3 321.7 62.0 322.0 L61.65 322.7 Q61.6 323.1 61.9 323.4 L62.6 323.75 68.5 324.2 69.2 323.95 69.55 323.3 M270.1 323.55 L270.8 323.25 271.05 322.5 270.75 321.8 270.0 321.55 264.1 321.8 Q263.65 321.8 263.4 322.15 263.1 322.4 263.1 322.85 263.1 323.25 263.45 323.55 L264.15 323.8 270.1 323.55" fill="#f8f6d5" fill-rule="evenodd" stroke="none"/>
    <path d="M79.7 177.05 L84.0 154.95 Q91.5 153.1 99.75 151.7 97.05 168.15 94.95 184.75 L91.35 185.15 Q87.05 179.3 79.7 177.05 M105.7 119.2 Q98.15 120.55 91.25 122.3 95.15 105.85 99.55 89.6 L112.85 86.7 Q108.95 102.85 105.7 119.2 M168.05 23.5 L167.75 23.2 Q165.6 20.6 165.8 17.15 165.8 13.9 168.0 11.8 170.1 9.35 173.15 9.25 174.7 9.05 175.4 10.4 175.35 9.8 175.45 9.35 L180.4 9.1 Q180.2 14.25 180.15 20.05 L180.05 24.9 175.1 25.1 175.1 24.1 Q174.4 25.15 172.85 25.35 170.0 25.4 168.05 23.5 M188.65 18.05 L188.45 17.85 Q186.4 16.6 186.5 14.5 186.5 12.25 188.45 10.4 190.4 8.6 192.9 8.55 196.1 8.45 197.25 9.7 196.6 12.3 196.3 14.65 193.8 13.4 192.7 13.35 192.15 13.3 192.0 13.65 L192.0 13.8 Q192.0 14.15 193.2 14.5 195.2 14.95 196.0 15.6 L196.8 16.45 Q197.5 17.5 197.55 19.2 197.35 22.15 195.5 23.45 193.55 24.65 191.35 24.8 188.75 24.7 186.35 23.75 L187.45 19.2 188.95 19.95 190.85 20.25 Q191.9 20.25 192.1 19.6 192.05 19.1 190.8 18.8 L188.65 18.05 M236.65 12.8 Q237.1 8.85 237.95 5.3 243.1 5.2 248.2 5.5 250.45 5.5 252.05 7.65 253.4 9.8 253.1 12.9 L253.1 13.15 Q252.75 15.8 251.0 17.85 249.0 20.1 246.55 19.95 L242.65 19.75 242.6 25.35 236.1 25.15 Q235.95 18.55 236.65 12.8 M259.4 13.55 L259.5 11.85 264.3 12.25 264.2 13.95 Q263.9 20.0 264.15 26.85 L259.15 26.4 Q258.95 19.5 259.4 13.55 M270.1 14.55 L270.25 11.8 281.75 12.95 280.25 15.85 Q278.45 19.5 277.15 23.35 L281.6 23.8 281.65 28.5 270.15 27.4 274.25 16.75 270.0 16.35 270.1 14.55 M288.7 17.15 L289.0 13.8 303.85 15.75 300.9 19.5 Q298.65 22.6 296.9 25.8 L302.15 26.6 301.5 31.2 288.4 29.35 Q290.95 24.05 293.9 19.1 L288.6 18.4 288.7 17.15 M311.25 21.85 Q312.25 20.5 314.05 19.55 317.45 17.35 321.05 17.95 322.95 18.15 323.25 19.7 323.35 19.15 323.6 18.6 L328.95 19.5 Q326.3 27.1 324.2 34.7 L319.05 33.85 319.4 32.85 Q318.2 33.9 316.6 33.7 313.8 33.2 312.05 31.25 L311.5 30.6 Q309.55 27.75 310.15 24.5 310.35 23.0 311.25 21.85 M296.1 90.05 L307.95 91.75 Q303.55 108.2 299.65 124.7 L288.4 123.05 Q292.0 106.6 296.1 90.05 M281.6 156.1 L292.3 157.65 Q289.05 173.1 286.25 188.55 L276.0 187.6 Q278.55 171.9 281.6 156.1 M271.05 220.8 L280.1 221.55 280.75 221.65 Q278.45 236.85 276.55 252.0 L267.35 251.75 Q268.95 236.3 271.05 220.8 M264.5 283.2 L273.15 282.95 Q271.55 299.25 270.5 315.55 L262.55 315.85 Q263.25 299.6 264.5 283.2 M87.8 317.35 L62.5 315.8 Q63.5 299.45 65.0 283.3 L87.8 284.25 Q87.5 300.75 87.8 317.35 M317.2 23.9 Q316.35 24.25 316.1 25.4 315.75 26.3 316.4 27.35 316.95 28.05 318.05 28.3 319.1 28.4 320.1 27.85 L321.25 26.2 Q321.4 25.25 320.95 24.45 320.35 23.6 319.3 23.5 318.15 23.3 317.2 23.9 M264.5 10.2 L264.1 11.15 Q263.6 11.5 263.05 11.45 L260.8 11.3 Q260.3 11.25 260.0 10.8 259.65 10.4 259.7 9.8 L259.9 8.45 Q259.95 7.9 260.4 7.5 260.85 7.15 261.3 7.2 L263.55 7.35 Q264.1 7.4 264.4 7.85 L264.65 8.8 264.5 10.2 M246.65 12.9 L246.7 12.6 Q246.8 11.8 246.5 11.55 246.2 11.15 245.7 11.1 L243.35 11.0 243.15 12.8 243.05 13.8 245.4 13.9 Q245.85 13.9 246.25 13.5 L246.65 12.9 M184.95 15.3 L182.0 15.3 181.4 9.05 185.95 8.9 Q185.25 12.4 184.95 15.3 M163.45 19.4 Q161.9 21.3 160.1 21.4 L157.2 21.5 157.1 25.75 152.0 26.15 Q152.55 16.9 152.5 10.8 L160.3 10.25 Q162.05 10.1 163.6 11.55 164.85 13.05 164.9 15.1 164.8 17.35 163.45 19.4 M171.3 18.85 Q171.9 19.65 172.9 19.6 173.85 19.6 174.55 18.75 L175.3 16.85 Q175.2 15.8 174.65 15.15 173.85 14.45 173.05 14.55 171.95 14.5 171.4 15.2 170.7 15.8 170.75 17.0 170.65 18.05 171.3 18.85 M146.6 11.45 L151.5 10.9 Q151.55 17.1 150.95 26.3 L145.65 26.95 Q145.6 26.45 145.7 25.95 144.95 27.15 143.2 27.5 139.95 28.05 137.85 26.0 135.85 23.5 136.45 19.75 136.8 16.25 139.1 14.3 141.3 11.85 144.3 11.55 145.85 11.25 146.55 12.35 146.5 11.8 146.6 11.45 M145.45 20.45 Q146.1 19.5 146.3 18.35 146.35 17.3 145.75 16.65 145.05 16.05 144.15 16.2 143.1 16.35 142.4 17.1 141.7 17.75 141.6 18.95 141.35 20.05 142.05 20.9 142.6 21.7 143.7 21.5 L145.45 20.45 M159.1 16.45 Q159.55 16.5 159.75 16.15 L160.0 15.4 Q160.0 14.85 159.8 14.65 L159.15 14.45 157.4 14.5 157.4 16.5 159.1 16.45 M124.25 24.55 L123.15 30.85 116.5 32.05 Q119.2 18.25 119.7 12.2 124.75 11.0 129.95 10.15 132.35 9.55 134.15 11.15 135.8 12.65 135.65 15.1 135.45 17.55 133.25 20.4 130.7 23.35 128.3 23.85 L124.25 24.55 M127.95 15.35 L125.6 15.75 125.3 18.1 127.7 17.75 128.6 17.2 129.05 16.3 128.8 15.55 127.95 15.35" fill="#f8b8bb" fill-rule="evenodd" stroke="none"/>
    <path d="M99.75 151.7 Q102.4 135.35 105.7 119.2 119.3 116.7 134.9 115.4 196.35 110.15 288.4 123.05 284.7 139.6 281.6 156.1 189.15 143.0 127.4 148.2 112.7 149.4 99.75 151.7 M112.85 86.7 L114.65 79.35 115.35 79.45 121.25 78.4 121.85 78.0 122.05 77.25 121.65 76.6 120.9 76.45 115.15 77.45 Q119.5 60.0 124.6 42.65 137.7 35.15 151.45 29.55 L151.8 30.1 152.5 30.3 158.45 29.7 159.15 29.35 159.35 28.6 159.0 27.95 Q158.65 27.65 158.25 27.7 L155.25 28.0 Q161.6 25.55 168.05 23.5 170.0 25.4 172.85 25.35 174.4 25.15 175.1 24.1 L175.1 25.1 180.05 24.9 180.15 20.05 188.65 18.05 190.8 18.8 Q192.05 19.1 192.1 19.6 191.9 20.25 190.85 20.25 L188.95 19.95 187.45 19.2 186.35 23.75 Q188.75 24.7 191.35 24.8 193.55 24.65 195.5 23.45 197.35 22.15 197.55 19.2 197.5 17.5 196.8 16.45 L208.35 14.7 208.35 15.15 Q208.35 18.4 210.6 20.65 212.85 22.9 216.1 22.95 219.35 22.9 221.6 20.65 223.85 18.4 223.9 15.15 L223.65 13.25 236.65 12.8 Q235.95 18.55 236.1 25.15 L242.6 25.35 242.65 19.75 246.55 19.95 Q249.0 20.1 251.0 17.85 252.75 15.8 253.1 13.15 L259.4 13.55 Q258.95 19.5 259.15 26.4 L264.15 26.85 Q263.9 20.0 264.2 13.95 L270.1 14.55 270.0 16.35 274.25 16.75 270.15 27.4 281.65 28.5 281.6 23.8 277.15 23.35 Q278.45 19.5 280.25 15.85 L288.7 17.15 288.6 18.4 293.9 19.1 Q290.95 24.05 288.4 29.35 L301.5 31.2 302.15 26.6 296.9 25.8 Q298.65 22.6 300.9 19.5 L311.25 21.85 Q310.35 23.0 310.15 24.5 309.55 27.75 311.5 30.6 L312.05 31.25 311.0 34.75 306.15 34.1 Q305.7 34.05 305.4 34.3 305.05 34.55 305.0 35.0 304.95 35.4 305.2 35.7 L305.9 36.1 310.45 36.75 Q303.95 59.05 298.3 81.15 L292.5 80.35 Q292.05 80.3 291.75 80.55 291.4 80.8 291.35 81.25 291.3 81.65 291.55 81.95 L292.25 82.35 297.8 83.1 296.1 90.05 Q205.4 77.4 144.5 82.5 L144.4 82.05 Q144.15 81.7 143.8 81.6 L143.0 81.7 142.55 82.3 142.45 82.65 Q126.6 84.05 112.85 86.7 M276.0 187.6 Q273.25 204.25 271.05 220.8 178.65 213.05 116.25 215.5 L116.8 211.8 116.6 211.05 Q116.35 210.75 115.95 210.7 115.55 210.6 115.2 210.85 114.85 211.1 114.8 211.5 L114.2 215.4 114.2 215.6 100.95 216.3 Q101.15 202.3 94.3 189.95 L94.95 184.75 119.95 182.8 120.55 183.15 121.3 183.0 121.55 182.7 Q183.35 179.55 276.0 187.6 M267.35 251.75 Q265.7 267.55 264.5 283.2 170.25 285.95 107.9 284.8 L108.1 282.75 107.9 282.05 Q107.6 281.7 107.2 281.65 106.8 281.6 106.5 281.9 106.15 282.15 106.1 282.55 L105.9 284.65 105.9 284.75 87.8 284.25 Q88.05 268.9 88.85 253.65 L90.65 250.7 109.5 250.35 109.2 252.55 Q109.15 252.95 109.4 253.25 L110.1 253.65 110.8 253.45 111.2 252.8 111.5 250.5 111.55 250.3 Q173.9 249.45 267.35 251.75 M262.55 315.85 Q261.75 333.35 261.6 350.65 224.75 374.75 88.65 345.65 L87.95 325.3 92.35 325.5 93.1 325.25 93.4 324.55 93.15 323.85 Q92.85 323.5 92.45 323.5 L87.9 323.3 87.8 317.35 104.35 317.95 Q166.9 319.75 262.55 315.85 M300.7 35.1 L301.1 34.45 300.9 33.7 Q300.65 33.35 300.25 33.3 L294.35 32.55 Q293.9 32.5 293.6 32.8 293.25 33.0 293.2 33.45 293.15 33.85 293.45 34.2 L294.1 34.55 300.0 35.3 300.7 35.1 M289.1 32.25 Q288.85 31.9 288.45 31.85 L282.5 31.15 Q282.05 31.1 281.75 31.4 281.4 31.6 281.35 32.05 281.3 32.45 281.6 32.8 281.8 33.1 282.25 33.15 L288.2 33.85 288.95 33.65 289.3 33.0 289.1 32.25 M243.15 12.8 L246.65 12.9 246.25 13.5 Q245.85 13.9 245.4 13.9 L243.05 13.8 243.15 12.8 M253.55 28.7 L252.85 28.35 246.9 27.9 Q246.45 27.85 246.15 28.15 245.85 28.4 245.8 28.85 245.75 29.25 246.05 29.55 246.3 29.85 246.75 29.9 L252.7 30.35 253.4 30.15 253.75 29.45 253.55 28.7 M257.9 30.5 L258.6 30.85 264.55 31.35 265.25 31.15 265.6 30.45 265.4 29.7 Q265.1 29.4 264.7 29.35 L258.75 28.85 Q258.3 28.8 258.0 29.1 L257.65 29.8 Q257.6 30.2 257.9 30.5 M277.45 31.6 L277.25 30.9 276.55 30.5 270.6 29.9 Q270.2 29.85 269.9 30.15 269.55 30.4 269.5 30.8 269.45 31.2 269.75 31.55 L270.4 31.9 276.35 32.5 277.1 32.3 277.45 31.6 M262.7 78.75 L263.45 78.55 263.8 77.85 263.6 77.15 Q263.3 76.8 262.9 76.75 L257.0 76.15 Q256.6 76.1 256.3 76.4 255.95 76.65 255.9 77.05 255.85 77.45 256.15 77.8 256.4 78.1 256.8 78.15 L262.7 78.75 M251.6 77.35 L251.95 76.65 251.75 75.95 Q251.45 75.6 251.05 75.55 L245.15 75.0 Q244.7 74.95 244.4 75.25 L244.05 75.95 Q244.0 76.35 244.3 76.65 L245.0 77.0 250.85 77.55 251.6 77.35 M275.3 79.9 L275.65 79.25 275.45 78.5 274.8 78.1 268.9 77.4 Q268.45 77.35 268.15 77.65 267.8 77.85 267.75 78.3 267.7 78.7 268.0 79.05 L268.65 79.4 274.55 80.1 275.3 79.9 M280.45 80.8 L286.35 81.55 287.05 81.35 287.45 80.7 287.25 79.95 Q287.0 79.6 286.6 79.55 L280.7 78.8 Q280.25 78.75 279.95 79.05 279.6 79.25 279.55 79.7 279.5 80.1 279.8 80.45 L280.45 80.8 M217.1 26.4 L211.15 26.25 Q210.7 26.25 210.4 26.55 210.1 26.8 210.1 27.25 210.1 27.65 210.4 27.95 L211.1 28.25 217.05 28.4 217.75 28.15 218.05 27.45 217.8 26.75 Q217.5 26.4 217.1 26.4 M222.0 27.6 Q222.0 28.0 222.3 28.3 L223.0 28.6 228.9 28.85 229.65 28.6 229.95 27.9 229.7 27.2 Q229.4 26.85 229.0 26.85 L223.05 26.6 Q222.6 26.6 222.35 26.9 222.0 27.15 222.0 27.6 M205.85 27.9 L206.15 27.2 205.9 26.45 Q205.6 26.15 205.2 26.15 L199.2 26.1 Q198.8 26.1 198.5 26.4 198.2 26.7 198.2 27.1 L198.5 27.8 199.2 28.1 205.15 28.15 205.85 27.9 M240.95 27.5 L234.95 27.15 Q234.55 27.15 234.25 27.4 233.9 27.7 233.9 28.1 L234.15 28.85 Q234.45 29.15 234.85 29.15 L240.8 29.5 Q241.2 29.55 241.5 29.25 L241.85 28.6 Q241.9 28.15 241.6 27.85 241.35 27.55 240.95 27.5 M182.1 28.05 L182.35 27.35 182.05 26.65 Q181.75 26.35 181.35 26.35 L175.35 26.6 Q174.95 26.6 174.65 26.95 L174.4 27.65 Q174.4 28.05 174.75 28.35 L175.45 28.6 181.4 28.35 182.1 28.05 M170.2 28.6 L170.45 27.9 170.1 27.2 Q169.8 26.9 169.4 26.95 L163.35 27.35 Q162.9 27.4 162.65 27.7 162.35 28.0 162.4 28.45 L162.75 29.1 Q163.05 29.4 163.5 29.35 L169.55 28.95 170.2 28.6 M193.25 26.1 L187.3 26.2 Q186.85 26.2 186.6 26.5 186.3 26.8 186.3 27.25 186.3 27.65 186.6 27.95 L187.35 28.2 193.3 28.1 194.0 27.8 194.25 27.1 193.95 26.4 Q193.65 26.1 193.25 26.1 M184.95 72.4 Q184.65 72.7 184.65 73.1 184.65 73.5 184.95 73.8 L185.65 74.1 191.6 74.15 192.3 73.9 192.6 73.2 192.35 72.45 Q192.05 72.15 191.65 72.15 L185.65 72.1 Q185.25 72.1 184.95 72.4 M196.85 72.55 Q196.55 72.8 196.55 73.25 196.55 73.65 196.85 73.95 L197.55 74.25 203.5 74.4 204.2 74.15 204.5 73.45 204.25 72.75 Q203.95 72.4 203.55 72.4 L197.6 72.25 Q197.15 72.25 196.85 72.55 M167.8 72.3 L161.85 72.5 Q161.4 72.5 161.15 72.85 160.85 73.1 160.85 73.55 160.85 73.95 161.2 74.25 L161.9 74.5 167.85 74.3 168.55 74.0 168.8 73.3 168.5 72.6 Q168.2 72.3 167.8 72.3 M172.75 73.2 Q172.75 73.6 173.05 73.9 L173.8 74.15 179.7 74.1 Q180.1 74.1 180.4 73.8 L180.7 73.1 180.4 72.4 Q180.1 72.1 179.7 72.1 L173.75 72.15 Q173.3 72.15 173.05 72.45 172.75 72.75 172.75 73.2 M227.4 73.65 L221.45 73.25 Q221.0 73.2 220.7 73.5 L220.35 74.2 Q220.3 74.6 220.6 74.9 L221.3 75.25 227.25 75.65 227.95 75.4 228.3 74.75 Q228.35 74.3 228.05 74.0 227.8 73.7 227.4 73.65 M208.45 73.65 Q208.45 74.05 208.75 74.35 209.0 74.65 209.45 74.65 L215.35 74.9 216.1 74.65 216.4 73.95 216.15 73.25 Q215.85 72.9 215.45 72.9 L209.5 72.65 Q209.05 72.65 208.8 72.95 208.45 73.2 208.45 73.65 M239.15 76.5 L239.85 76.3 240.2 75.6 240.0 74.85 Q239.7 74.55 239.3 74.5 L233.35 74.05 Q232.9 74.0 232.6 74.3 L232.25 75.0 Q232.2 75.4 232.5 75.7 L233.2 76.05 239.15 76.5 M144.8 73.55 L138.8 74.1 Q138.4 74.15 138.15 74.5 137.85 74.8 137.9 75.2 137.95 75.6 138.3 75.9 L139.0 76.1 144.95 75.55 145.65 75.2 145.85 74.5 145.5 73.8 Q145.2 73.5 144.8 73.55 M149.15 73.5 Q148.85 73.8 148.9 74.25 148.95 74.65 149.25 74.9 149.55 75.2 150.0 75.15 L156.0 74.75 156.65 74.4 Q156.95 74.1 156.9 73.7 L156.55 73.0 Q156.25 72.7 155.85 72.75 L149.85 73.15 Q149.4 73.2 149.15 73.5 M133.95 75.65 L133.6 75.0 Q133.25 74.7 132.85 74.75 L126.9 75.5 Q126.45 75.55 126.2 75.9 125.95 76.2 126.0 76.65 126.05 77.05 126.4 77.3 L127.15 77.5 133.1 76.75 133.75 76.4 133.95 75.65 M135.25 117.0 L134.65 116.55 133.9 116.65 Q133.5 116.85 133.45 117.3 L132.05 123.2 Q131.95 123.55 132.15 123.95 L132.8 124.4 133.55 124.25 134.0 123.65 135.4 117.75 135.25 117.0 M132.45 128.75 Q132.25 128.35 131.85 128.3 L131.1 128.4 Q130.7 128.6 130.65 129.05 L129.35 134.85 Q129.25 135.25 129.45 135.6 L130.1 136.05 130.85 135.9 131.3 135.3 132.6 129.5 132.45 128.75 M129.8 140.6 Q129.6 140.2 129.2 140.15 L128.45 140.25 Q128.05 140.45 128.0 140.9 L126.65 146.9 Q126.55 147.3 126.75 147.65 L127.4 148.1 128.15 147.95 128.6 147.3 129.95 141.35 129.8 140.6 M119.95 186.7 Q119.5 186.6 119.2 186.85 118.85 187.05 118.8 187.5 L117.8 193.35 Q117.7 193.75 117.95 194.1 L118.6 194.5 119.35 194.35 119.75 193.7 120.75 187.85 120.6 187.1 Q120.35 186.75 119.95 186.7 M116.8 199.4 L115.8 205.45 Q115.7 205.85 115.95 206.2 L116.6 206.6 117.35 206.4 117.75 205.75 118.75 199.75 118.55 199.0 Q118.3 198.65 117.95 198.6 117.5 198.5 117.2 198.75 116.85 199.0 116.8 199.4 M108.5 258.55 L107.9 264.55 Q107.85 264.95 108.15 265.3 108.4 265.6 108.8 265.65 L109.55 265.45 109.9 264.75 110.5 258.75 110.3 258.05 Q110.0 257.7 109.6 257.65 109.2 257.6 108.9 257.9 108.55 258.15 108.5 258.55 M109.05 270.05 Q108.75 269.7 108.35 269.65 107.95 269.6 107.65 269.9 107.3 270.15 107.25 270.55 L106.65 276.55 Q106.6 276.95 106.9 277.3 107.15 277.6 107.55 277.65 L108.3 277.45 108.65 276.75 109.25 270.75 109.05 270.05 M139.85 324.8 Q139.55 324.5 139.15 324.5 L133.25 324.45 Q132.8 324.45 132.5 324.75 132.2 325.0 132.2 325.45 132.2 325.85 132.5 326.15 132.75 326.45 133.2 326.45 L139.15 326.5 139.85 326.2 140.15 325.5 139.85 324.8 M127.3 324.35 L121.35 324.25 Q120.9 324.25 120.6 324.55 120.3 324.8 120.3 325.25 120.3 325.65 120.6 325.95 120.85 326.25 121.3 326.25 L127.25 326.35 127.95 326.1 128.25 325.4 128.0 324.65 Q127.7 324.35 127.3 324.35 M157.0 326.5 L162.95 326.5 163.65 326.2 163.95 325.5 163.65 324.8 162.95 324.5 157.0 324.5 Q156.6 324.5 156.3 324.8 156.0 325.1 156.0 325.5 156.0 325.9 156.3 326.2 156.6 326.5 157.0 326.5 M151.75 326.2 L152.05 325.5 151.75 324.8 Q151.45 324.5 151.05 324.5 L145.1 324.5 Q144.7 324.5 144.4 324.8 144.1 325.1 144.1 325.5 144.1 325.9 144.4 326.2 144.7 326.5 145.1 326.5 L151.05 326.5 151.75 326.2 M98.35 325.7 L103.95 325.9 104.65 325.65 104.95 324.95 104.7 324.25 Q104.4 323.9 104.0 323.9 L98.4 323.7 Q97.95 323.7 97.7 324.0 97.35 324.25 97.35 324.7 97.35 325.1 97.65 325.4 97.9 325.7 98.35 325.7 M116.35 325.2 L116.1 324.45 Q115.8 324.15 115.4 324.15 L109.4 324.0 Q108.95 324.0 108.7 324.3 108.35 324.55 108.35 325.0 108.35 325.4 108.65 325.7 L109.35 326.0 115.35 326.15 116.05 325.9 116.35 325.2 M222.5 325.2 L223.2 324.9 223.45 324.2 223.15 323.5 Q222.85 323.2 222.45 323.2 L216.5 323.4 Q216.05 323.4 215.8 323.75 215.5 324.0 215.5 324.45 215.5 324.85 215.85 325.15 L216.55 325.4 222.5 325.2 M211.3 325.3 L211.55 324.6 211.25 323.9 Q210.95 323.6 210.55 323.6 L204.6 323.8 Q204.15 323.8 203.9 324.15 203.6 324.4 203.6 324.85 203.6 325.25 203.95 325.55 L204.65 325.8 210.6 325.6 Q211.0 325.6 211.3 325.3 M234.35 322.8 L228.4 323.0 Q227.95 323.0 227.7 323.35 227.4 323.6 227.4 324.05 227.4 324.45 227.75 324.75 L228.45 325.0 234.4 324.8 235.1 324.5 235.35 323.8 235.05 323.1 234.35 322.8 M239.3 323.65 Q239.3 324.05 239.65 324.35 L240.35 324.6 246.3 324.4 Q246.7 324.4 247.0 324.1 L247.25 323.4 246.95 322.7 Q246.65 322.4 246.25 322.4 L240.3 322.6 Q239.85 322.6 239.6 322.95 239.3 323.2 239.3 323.65 M180.85 326.25 L186.8 326.15 187.5 325.85 187.75 325.15 187.45 324.45 Q187.15 324.15 186.75 324.15 L180.8 324.25 Q180.35 324.25 180.1 324.55 179.8 324.85 179.8 325.3 179.8 325.7 180.1 326.0 L180.85 326.25 M175.55 324.65 Q175.25 324.35 174.85 324.35 L168.9 324.45 Q168.45 324.45 168.2 324.75 167.9 325.05 167.9 325.5 167.9 325.9 168.2 326.2 L168.95 326.45 174.9 326.35 Q175.3 326.35 175.6 326.05 L175.85 325.35 175.55 324.65 M198.7 325.95 L199.4 325.65 199.65 324.95 199.35 324.25 198.65 323.95 192.7 324.05 Q192.25 324.05 192.0 324.35 191.7 324.65 191.7 325.1 191.7 325.5 192.0 325.8 L192.75 326.05 198.7 325.95 M258.9 323.7 L259.15 323.0 258.85 322.3 Q258.55 322.0 258.15 322.0 L252.2 322.2 Q251.75 322.2 251.5 322.55 251.2 322.8 251.2 323.25 251.2 323.65 251.55 323.95 L252.25 324.2 258.2 324.0 258.9 323.7" fill="#ffffff" fill-rule="evenodd" stroke="none"/>
    <path d="M72.95 175.6 L78.7 176.75 79.7 177.05 Q87.05 179.3 91.35 185.15 L92.25 186.4 92.2 186.4 94.3 189.95 Q101.15 202.3 100.95 216.3 100.75 226.5 96.85 237.55 94.35 244.45 90.65 250.7 L88.85 253.65 Q78.3 269.75 59.05 281.65 L58.9 281.7 58.1 282.1 58.05 282.15 45.35 287.65 58.45 278.55 Q76.95 264.65 86.5 250.85 L89.25 246.55 Q92.2 241.55 94.0 236.55 97.7 226.1 97.9 216.5 98.1 205.4 93.7 195.35 92.0 191.6 89.7 188.0 L87.85 185.55 Q84.4 181.7 79.15 180.0 L77.95 179.65 72.4 178.6 Q49.65 175.45 41.1 197.55 39.3 206.9 36.8 222.7 34.3 238.5 17.9 259.9 1.5 281.25 4.35 313.05 7.2 344.8 26.6 362.35 L22.55 359.45 17.7 355.95 Q4.4 347.4 0.85 314.0 -2.7 280.8 8.4 266.3 28.95 239.05 34.3 215.6 L38.2 196.9 38.25 196.65 Q47.6 172.0 72.95 175.6" fill="#5c4730" fill-rule="evenodd" stroke="none"/>
    <path d="M58.05 282.15 Q52.65 325.2 51.7 369.6 L44.6 369.15 Q56.8 296.75 45.35 287.65 52.65 282.1 58.6 276.85 74.15 263.1 80.75 251.0 L82.4 247.75 Q90.05 230.9 89.2 217.15 88.95 213.2 88.0 209.5 84.0 194.0 70.05 191.75 L68.05 191.5 Q52.4 190.1 49.95 207.5 47.5 224.9 41.3 239.1 35.15 253.25 19.15 277.6 10.9 290.1 13.55 318.8 16.15 346.85 26.6 362.35 L27.1 363.0 27.05 362.95 27.1 363.0 Q24.6 361.4 22.55 359.45 L26.6 362.35 Q7.2 344.8 4.35 313.05 1.5 281.25 17.9 259.9 34.3 238.5 36.8 222.7 39.3 206.9 41.1 197.55 49.65 175.45 72.4 178.6 L77.95 179.65 79.15 180.0 Q84.4 181.7 87.85 185.55 L89.7 188.0 Q92.0 191.6 93.7 195.35 98.1 205.4 97.9 216.5 97.7 226.1 94.0 236.55 92.2 241.55 89.25 246.55 L86.5 250.85 Q76.95 264.65 58.45 278.55 L45.35 287.65 58.05 282.15" fill="#f1ba87" fill-rule="evenodd" stroke="none"/>
    <path d="M44.6 369.15 Q34.5 367.8 27.1 363.0 L27.05 362.95 27.1 363.0 26.6 362.35 Q16.15 346.85 13.55 318.8 10.9 290.1 19.15 277.6 35.15 253.25 41.3 239.1 47.5 224.9 49.95 207.5 52.4 190.1 68.05 191.5 L70.05 191.75 Q84.0 194.0 88.0 209.5 88.95 213.2 89.2 217.15 90.05 230.9 82.4 247.75 L80.75 251.0 Q74.15 263.1 58.6 276.85 52.65 282.1 45.35 287.65 56.8 296.75 44.6 369.15" fill="#ffcc99" fill-rule="evenodd" stroke="none"/>
    <path d="M330.4 38.55 L331.1 38.65 M58.1 282.1 L58.05 282.9 Q53.9 328.15 53.1 374.6 136.15 388.15 275.1 375.6 275.4 348.95 277.05 322.25 L277.5 315.25 Q278.55 299.0 280.15 282.7 291.85 161.45 330.4 38.55 334.55 25.1 339.1 11.65 190.55 -11.1 117.1 10.65 104.45 46.55 94.25 83.3 L92.0 91.65 Q87.65 107.9 83.75 124.3 79.9 140.55 76.6 156.95 L72.95 175.6 M208.35 14.7 Q208.5 11.75 210.6 9.65 212.85 7.4 216.1 7.4 219.35 7.4 221.6 9.65 223.15 11.2 223.65 13.25 L223.9 15.15 Q223.85 18.4 221.6 20.65 219.35 22.9 216.1 22.95 212.85 22.9 210.6 20.65 208.35 18.4 208.35 15.15 L208.35 14.7" fill="none" stroke="#605640" stroke-linecap="round" stroke-linejoin="round" stroke-width="3.0"/>
    <path d="M83.75 124.3 L83.1 124.5" fill="none" stroke="#605640" stroke-linecap="round" stroke-linejoin="round" stroke-width="3.0"/>
  </g>
</svg>
