<?xml version="1.0" encoding="UTF-8" standalone="no"?>
<svg xmlns:ffdec="https://www.free-decompiler.com/flash" xmlns:xlink="http://www.w3.org/1999/xlink" ffdec:objectType="shape" height="81.75px" width="189.25px" xmlns="http://www.w3.org/2000/svg">
  <g transform="matrix(1.0, 0.0, 0.0, 1.0, -64.0, -279.25)">
    <path d="M87.0 287.25 L85.95 299.4 90.2 296.2 Q95.0 292.7 94.6 288.75 94.15 284.75 88.3 286.5 L87.0 286.9 87.0 287.25 M83.35 287.95 L82.5 288.15 78.95 289.05 Q75.45 289.8 71.0 292.75 L69.65 292.7 Q69.25 292.6 69.25 291.1 69.25 289.05 79.65 284.1 81.2 283.35 82.6 282.75 90.3 279.25 93.1 279.25 98.6 279.25 99.0 288.1 95.0 303.05 85.3 305.75 L85.15 307.15 Q83.25 324.9 83.25 327.6 82.75 328.35 81.5 328.85 80.85 327.25 80.2 323.1 79.6 319.25 79.6 317.5 L80.1 306.2 78.5 305.85 80.3 304.1 Q80.7 299.0 81.4 295.2 81.85 292.45 82.5 290.4 L83.35 287.95 M118.0 291.1 Q123.25 291.1 124.6 298.85 124.6 304.55 112.0 307.25 113.35 312.85 113.35 316.75 L113.1 320.1 Q112.6 320.85 111.35 321.25 107.3 317.0 106.95 310.65 L106.85 305.1 Q106.75 301.65 106.1 299.0 L108.8 296.35 110.75 293.8 Q113.1 291.1 118.0 291.1 M70.0 321.9 L70.5 326.35 Q70.5 330.25 68.1 352.25 L68.1 353.0 Q71.1 353.0 88.75 348.0 89.15 348.4 89.7 348.45 90.1 348.7 90.1 350.25 90.1 353.4 80.95 355.7 69.25 358.7 66.0 361.0 L64.55 360.5 Q64.0 360.1 64.0 358.5 64.0 353.9 66.0 336.3 67.95 318.8 68.6 317.25 69.35 318.3 70.0 321.9 M129.35 298.0 Q130.8 298.0 134.8 305.5 138.75 312.85 139.5 316.75 138.9 318.6 135.6 318.6 134.1 318.6 132.45 315.3 130.75 312.0 129.25 312.0 125.65 312.0 124.6 315.6 123.3 319.95 122.35 320.5 L121.0 320.25 Q120.6 320.05 120.6 318.5 120.6 315.7 123.7 307.25 127.15 298.0 129.35 298.0 M127.5 307.5 L127.5 308.0 129.75 308.0 Q130.35 304.5 128.85 303.0 127.5 306.4 127.5 307.5 M133.25 328.6 Q133.25 330.45 132.05 331.65 130.95 332.75 129.5 332.75 126.5 332.75 126.5 329.6 L126.75 325.5 126.9 325.25 128.5 325.0 133.0 325.6 133.25 328.6 M127.1 336.0 Q129.1 337.65 129.1 341.0 129.1 348.95 127.6 353.75 L125.6 353.75 Q125.35 350.75 125.35 344.75 125.35 343.2 125.9 340.1 126.5 336.7 127.1 336.0 M138.6 337.5 L144.1 336.5 143.3 334.5 142.5 334.5 Q141.05 334.5 140.4 335.35 L139.1 336.75 138.6 337.5 M137.35 345.85 Q139.5 348.75 143.35 348.75 148.6 348.75 150.65 346.65 L151.9 345.1 Q152.5 344.3 153.25 344.1 L154.7 344.35 Q155.25 344.55 155.25 346.1 155.25 349.3 150.25 351.4 146.35 353.0 143.25 353.0 138.1 353.0 134.75 349.15 132.25 346.25 132.25 344.25 132.25 340.25 135.25 335.6 138.65 330.25 143.0 330.25 146.25 330.25 149.6 338.75 L149.35 340.6 136.1 341.85 Q135.55 343.4 137.35 345.85 M120.6 298.6 Q120.6 295.35 116.75 295.35 114.0 295.35 112.0 303.25 116.4 303.75 118.85 301.7 120.6 300.2 120.6 298.6 M102.5 317.0 Q99.0 314.75 96.6 314.35 L94.8 317.35 Q93.65 319.25 92.6 320.0 L91.25 319.75 Q90.85 319.55 90.85 318.0 90.85 315.0 92.8 309.0 95.4 300.85 99.1 300.85 101.25 300.85 104.55 307.85 L109.1 318.75 Q108.25 320.05 107.35 320.25 L102.5 317.0 M96.25 310.35 L102.5 312.5 Q99.55 306.35 98.0 305.1 96.7 307.75 96.25 310.35 M96.35 334.6 Q101.25 334.6 104.25 343.5 104.25 354.1 97.6 354.1 92.5 354.1 91.0 348.9 L90.5 343.35 Q90.5 334.6 96.35 334.6 M93.95 340.75 Q93.8 341.45 94.0 343.75 94.0 346.35 95.0 349.35 L95.25 349.75 97.35 350.1 Q101.0 350.1 100.5 346.0 100.5 339.6 95.75 339.6 94.15 339.6 93.95 340.75 M110.35 337.5 L111.8 337.8 Q112.35 338.05 112.35 339.6 112.35 340.85 111.45 342.55 110.5 344.25 110.5 345.5 L110.55 348.35 Q110.85 349.35 112.5 349.35 118.05 349.35 118.45 344.8 118.55 343.4 118.15 341.65 L117.75 340.1 120.35 339.0 Q122.25 340.7 122.25 344.35 122.25 348.15 121.25 350.0 119.35 353.6 113.6 353.6 108.75 353.6 107.0 349.7 L106.25 345.5 Q106.25 344.4 107.85 341.3 109.4 338.25 110.35 337.5" fill="#333333" fill-rule="evenodd" stroke="none"/>
    <path d="M184.15 294.9 Q186.85 290.55 192.15 291.0 L196.45 291.3 196.8 289.6 Q197.25 287.9 198.15 286.35 200.35 282.35 204.8 281.1 211.7 278.95 218.45 281.35 222.45 282.75 224.9 286.55 226.05 288.4 225.85 290.55 L225.55 292.05 224.6 293.85 224.55 293.9 221.8 296.7 Q219.3 298.7 216.2 299.35 L218.55 300.6 Q221.1 301.9 221.55 304.7 221.85 306.8 220.45 308.65 219.9 309.35 219.05 309.5 217.05 309.75 215.35 309.1 L217.5 311.9 216.85 311.85 216.6 311.9 215.95 312.25 213.45 308.55 212.6 307.45 212.5 307.35 211.35 305.9 210.95 303.3 210.9 303.0 211.0 303.25 Q211.4 304.3 212.1 305.25 L212.35 305.5 212.7 305.75 Q213.7 306.55 218.9 308.5 L219.7 308.05 Q220.8 306.55 220.55 304.85 L220.45 304.3 220.4 303.9 220.3 303.8 220.2 303.6 Q219.55 302.25 218.05 301.45 216.3 300.35 214.5 299.7 L212.65 299.05 212.7 298.95 Q212.8 298.75 213.0 298.75 L213.95 298.6 214.0 298.6 214.45 298.55 Q218.25 298.3 221.2 295.9 L223.8 293.25 224.6 291.7 224.9 290.45 224.8 288.9 Q224.6 287.95 224.05 287.05 L223.75 286.6 Q222.35 284.65 220.55 283.5 L220.25 283.3 219.75 283.0 218.1 282.3 Q211.65 280.0 205.1 282.05 201.0 283.2 199.0 286.85 198.2 288.25 197.8 289.85 L197.4 291.75 197.4 291.85 197.5 293.9 Q197.5 293.15 197.8 294.7 198.25 296.85 197.55 295.25 L197.3 294.65 196.95 294.05 194.85 292.8 Q193.3 292.05 192.1 291.95 187.4 291.6 185.5 295.35 183.55 299.05 183.4 300.25 L183.3 301.8 183.35 302.2 183.4 302.55 183.75 304.6 Q184.1 306.65 184.8 307.85 L185.0 308.2 184.9 308.2 184.5 308.25 183.75 307.6 Q183.2 307.0 182.95 305.5 L182.5 303.5 Q182.35 303.0 181.5 303.75 L181.4 303.85 Q180.5 304.55 178.95 305.2 177.3 305.9 176.05 306.95 L175.95 307.05 174.55 308.6 174.2 309.15 174.15 309.25 Q173.7 310.0 173.5 310.95 L173.35 311.55 Q173.2 312.45 173.3 313.45 173.4 314.2 173.9 314.75 175.9 317.25 179.2 317.15 182.6 317.1 185.65 315.55 L185.95 315.45 Q186.15 315.5 186.25 315.65 L186.3 315.65 185.8 316.75 185.75 316.95 185.3 318.0 185.2 318.25 184.95 319.05 184.55 320.1 184.0 321.85 Q183.85 322.4 183.85 323.05 L183.9 323.7 Q183.95 324.4 184.4 325.0 L184.4 325.05 Q185.8 327.55 188.45 328.35 L191.45 328.2 191.5 328.15 Q193.7 327.3 195.05 325.4 196.55 323.35 195.9 323.75 L196.3 323.05 Q196.4 318.5 194.5 316.85 L194.5 316.8 194.55 316.85 193.2 314.9 193.05 314.7 193.35 314.8 195.1 316.05 195.15 316.05 Q197.35 318.0 198.85 320.6 L198.85 320.55 200.3 323.7 200.3 323.75 200.25 323.75 202.3 328.6 202.3 328.7 202.35 327.7 202.35 328.7 202.35 328.8 202.35 330.6 202.8 329.6 Q204.4 325.9 207.3 323.2 L207.65 322.95 Q208.55 322.1 209.6 321.45 L209.75 321.35 209.2 322.75 209.1 323.05 208.0 323.95 Q204.85 326.85 203.3 330.95 L203.05 331.6 202.85 332.3 202.75 332.7 Q202.35 334.0 202.2 335.4 201.95 337.35 202.25 339.4 203.35 342.95 205.1 345.8 L204.45 346.75 204.1 347.25 Q201.9 343.65 201.25 339.55 200.8 336.35 201.5 333.3 L201.7 332.1 201.6 332.0 201.1 331.25 201.0 331.1 Q200.5 327.4 199.35 324.1 L199.3 324.05 198.25 321.65 Q197.3 324.0 195.85 325.95 194.35 328.1 191.9 329.1 L191.85 329.1 191.9 329.1 188.15 329.3 Q185.15 328.4 183.55 325.55 L183.55 325.5 Q183.0 324.7 182.9 323.8 182.75 322.65 183.0 321.65 L183.0 321.6 183.9 318.5 184.5 317.15 Q181.95 318.1 179.25 318.15 L179.2 318.15 179.25 318.1 Q175.45 318.25 173.15 315.4 172.45 314.65 172.3 313.6 172.15 312.45 172.35 311.35 172.95 308.2 175.45 306.2 L175.4 306.2 178.2 304.2 181.65 301.8 182.05 301.75 182.35 301.9 182.35 300.15 Q182.6 297.35 184.15 294.9 M232.9 324.2 Q233.5 325.95 235.15 327.0 L236.45 329.35 Q238.45 333.6 238.1 338.25 L237.95 339.35 237.05 338.3 237.1 338.15 Q237.4 333.8 235.55 329.75 234.5 327.5 232.95 325.7 L232.9 325.65 230.3 323.25 228.75 322.2 Q226.4 320.8 223.75 320.1 L223.5 320.05 223.45 320.05 220.9 319.6 220.05 319.55 215.5 320.05 215.8 318.95 219.25 318.6 220.05 318.6 220.2 318.6 217.15 314.0 217.25 313.5 218.35 313.05 222.6 318.6 223.65 318.75 223.85 318.85 224.65 319.3 224.7 319.3 Q228.05 320.35 230.9 322.45 L232.9 324.2 M234.5 311.85 L234.55 311.85 234.5 311.85 M230.5 311.8 L232.4 311.65 233.85 312.65 233.9 312.65 235.55 314.2 Q237.1 316.1 237.45 318.85 237.75 321.9 236.9 324.95 236.6 325.95 235.6 326.1 233.9 325.05 233.65 322.95 L232.8 316.7 Q232.5 314.85 231.8 313.2 L231.8 313.15 Q231.4 312.3 230.55 312.0 L230.5 311.8 M211.4 319.95 L212.2 318.05 212.4 317.6 212.65 317.05 Q213.35 315.65 214.35 314.7 L214.8 314.25 215.4 313.75 Q215.8 313.4 216.3 313.15 L215.95 314.45 215.7 315.35 215.55 315.8 214.7 319.25 214.4 320.35 214.0 322.0 213.1 324.6 213.05 324.65 212.35 325.7 Q211.8 326.25 211.0 326.2 L210.2 325.7 Q209.55 324.4 210.15 323.1 L210.55 322.05 211.15 320.6 211.4 319.95 M221.45 329.65 Q221.1 330.45 221.3 331.3 L222.05 331.6 222.45 330.85 Q223.0 329.3 221.9 328.75 L221.45 329.65 M219.5 330.8 L220.0 328.4 Q220.25 327.7 220.85 327.15 221.8 326.15 222.95 326.6 225.35 327.5 223.95 332.2 223.0 334.65 221.1 333.95 219.4 333.3 219.5 330.8 M211.3 338.05 Q212.85 336.0 216.1 336.05 L218.45 336.3 Q223.35 337.2 223.1 341.2 222.9 345.35 219.6 349.2 L219.05 349.8 216.9 351.7 216.0 352.3 Q214.45 353.35 212.8 354.0 L212.45 354.15 208.2 355.15 203.65 354.95 Q199.1 354.0 196.05 351.1 L195.05 350.1 194.15 349.0 195.1 349.4 195.3 349.45 198.6 349.95 200.7 349.85 200.75 349.85 Q202.05 349.85 203.1 349.35 204.0 348.9 204.7 348.15 L205.35 347.3 205.7 346.75 208.35 342.55 Q209.45 340.65 210.7 338.9 L211.3 338.1 211.3 338.05 M227.15 329.9 Q226.9 330.85 227.4 331.8 228.05 331.75 228.3 331.1 228.6 330.2 227.65 328.55 L227.15 329.9 M225.4 328.6 Q226.35 326.0 228.1 326.65 231.25 327.85 229.45 332.5 L228.9 333.9 Q228.45 334.55 227.1 334.05 225.1 333.3 225.05 330.9 L225.4 328.6 M228.1 352.4 L228.55 352.8 228.9 353.1 Q224.85 355.3 220.25 355.5 216.95 355.65 213.9 354.65 215.6 353.85 217.25 352.7 L221.65 353.9 Q223.95 353.8 222.95 354.1 L222.8 354.15 222.75 354.2 222.9 354.2 225.15 353.65 226.85 353.0 228.1 352.4 M231.9 337.05 L231.95 337.05 Q234.3 336.95 236.05 338.7 L236.1 338.75 236.9 339.6 237.7 340.75 238.4 342.4 Q239.15 345.15 240.8 347.45 241.6 348.5 242.75 349.05 243.95 349.75 245.4 350.05 L248.4 349.85 252.05 348.95 Q251.45 350.9 250.35 352.5 L249.15 354.05 249.1 354.1 248.45 354.7 248.4 354.75 Q246.7 356.25 244.4 356.7 L239.65 356.85 Q237.3 356.55 234.6 355.45 232.15 354.4 229.8 352.55 L229.2 352.0 229.0 351.85 227.75 350.6 Q225.95 348.4 225.65 345.85 225.35 343.2 226.35 341.5 227.3 339.7 228.7 338.3 229.95 337.0 231.9 337.05 M202.2 330.8 L202.05 330.9 202.2 331.1 202.2 330.8 M224.1 341.25 L224.1 341.1 224.1 341.25" fill="#333333" fill-rule="evenodd" stroke="none"/>
    <path d="M232.9 324.2 L232.65 323.05 231.8 316.85 231.8 316.8 Q231.55 315.1 230.95 313.6 L230.9 313.6 Q230.65 313.1 230.2 312.95 L229.0 312.75 225.55 315.65 225.2 315.75 224.85 315.55 224.75 315.2 224.9 314.85 228.5 311.95 228.55 311.85 Q230.35 310.2 232.7 310.7 L232.8 310.7 234.5 311.85 Q235.5 312.55 236.3 313.55 238.05 315.7 238.45 318.75 238.8 322.0 237.9 325.2 237.4 327.0 235.5 327.1 L235.25 327.05 235.15 327.0 Q233.5 325.95 232.9 324.2 M230.55 312.0 Q231.4 312.3 231.8 313.15 L231.8 313.2 Q232.5 314.85 232.8 316.7 L233.65 322.95 Q233.9 325.05 235.6 326.1 236.6 325.95 236.9 324.95 237.75 321.9 237.45 318.85 237.1 316.1 235.55 314.2 L233.9 312.65 233.85 312.65 232.4 311.65 230.5 311.8 230.25 311.9 230.55 312.0 M237.05 338.3 L237.95 339.35 Q238.9 340.6 239.35 342.15 240.05 344.7 241.65 346.85 242.25 347.7 243.2 348.15 L245.6 349.05 248.05 348.9 248.1 348.9 251.95 347.95 252.65 347.8 253.0 347.85 253.2 348.05 253.25 348.4 Q252.6 351.05 251.15 353.1 L249.9 354.75 249.85 354.75 249.1 355.45 249.05 355.5 Q247.15 357.15 244.6 357.65 L239.55 357.8 Q237.05 357.55 234.2 356.35 231.5 355.25 228.9 353.1 L228.55 352.8 228.1 352.4 227.0 351.25 Q225.0 348.8 224.65 345.95 L224.6 345.45 224.6 343.7 Q224.75 342.15 225.45 341.0 226.5 339.1 228.0 337.6 229.5 336.0 231.95 336.1 234.7 336.0 236.75 338.0 L237.05 338.3 M231.9 337.05 Q229.95 337.0 228.7 338.3 227.3 339.7 226.35 341.5 225.35 343.2 225.65 345.85 225.95 348.4 227.75 350.6 L229.0 351.85 229.2 352.0 229.8 352.55 Q232.15 354.4 234.6 355.45 237.3 356.55 239.65 356.85 L244.4 356.7 Q246.7 356.25 248.4 354.75 L248.45 354.7 249.1 354.1 249.15 354.05 250.35 352.5 Q251.45 350.9 252.05 348.95 L248.4 349.85 245.4 350.05 Q243.95 349.75 242.75 349.05 241.6 348.5 240.8 347.45 239.15 345.15 238.4 342.4 L237.7 340.75 236.9 339.6 236.1 338.75 236.05 338.7 Q234.3 336.95 231.95 337.05 L231.9 337.05" fill="#cccccc" fill-rule="evenodd" stroke="none"/>
    <path d="M230.5 311.8 L230.55 312.0 230.25 311.9 230.5 311.8 M221.45 329.65 L221.9 328.75 Q223.0 329.3 222.45 330.85 L222.05 331.6 221.3 331.3 Q221.1 330.45 221.45 329.65 M227.15 329.9 L227.65 328.55 Q228.6 330.2 228.3 331.1 228.05 331.75 227.4 331.8 226.9 330.85 227.15 329.9" fill="#ffffff" fill-rule="evenodd" stroke="none"/>
  </g>
</svg>
