<?xml version="1.0" encoding="UTF-8" standalone="no"?>
<svg xmlns:ffdec="https://www.free-decompiler.com/flash" xmlns:xlink="http://www.w3.org/1999/xlink" ffdec:objectType="shape" height="477.95px" width="625.95px" xmlns="http://www.w3.org/2000/svg">
  <g transform="matrix(1.0, 0.0, 0.0, 1.0, 10.0, 9.0)">
    <path d="M615.95 53.85 L615.95 74.1 528.8 70.85 Q571.95 61.0 615.95 53.85 M615.95 103.0 L615.95 210.3 277.6 153.9 Q361.25 117.1 448.65 91.65 L615.95 103.0 M615.95 236.2 L615.95 266.15 220.3 180.65 Q236.0 172.9 251.85 165.55 L615.95 236.2" fill="#c2eaa6" fill-rule="evenodd" stroke="none"/>
    <path d="M615.95 74.1 L615.95 103.0 448.65 91.65 Q488.35 80.1 528.8 70.85 L615.95 74.1 M615.95 210.3 L615.95 236.2 251.85 165.55 Q264.65 159.6 277.6 153.9 L615.95 210.3 M615.95 266.15 L615.95 468.95 -10.0 468.95 -10.0 321.8 Q101.3 239.4 220.3 180.65 L615.95 266.15" fill="#f7f1dd" fill-rule="evenodd" stroke="none"/>
    <path d="M229.7 -9.0 L583.05 -9.0 Q496.55 10.5 417.25 38.1 L159.95 36.9 Q192.6 12.8 229.7 -9.0 M-10.0 291.0 L-10.0 225.3 Q14.2 182.05 46.5 143.1 L151.6 165.8 Q64.65 221.4 -10.0 291.0 M348.35 64.15 Q327.3 72.8 306.8 82.05 L119.2 69.3 Q126.9 62.7 134.9 56.25 L348.35 64.15 M193.95 140.0 Q184.8 145.3 175.8 150.75 L59.3 128.15 Q63.4 123.5 67.65 118.95 L193.95 140.0" fill="#e9dcc0" fill-rule="evenodd" stroke="none"/>
    <path d="M417.25 38.1 Q382.1 50.35 348.35 64.15 L134.9 56.25 Q147.05 46.4 159.95 36.9 L417.25 38.1 M193.95 140.0 L67.65 118.95 Q91.55 93.1 119.2 69.3 L306.8 82.05 Q248.15 108.45 193.95 140.0 M59.3 128.15 L175.8 150.75 151.6 165.8 46.5 143.1 Q52.75 135.55 59.3 128.15" fill="#a9e184" fill-rule="evenodd" stroke="none"/>
    <path d="M53.6 64.85 Q35.8 86.75 22.15 111.35 L-8.65 106.2 -8.35 60.65 53.6 64.85 M63.2 53.55 L-8.25 50.9 -8.15 36.15 79.45 36.55 Q70.95 44.8 63.2 53.55 M17.5 120.05 Q13.65 127.5 10.15 135.25 L-8.85 131.15 -8.7 114.95 17.5 120.05" fill="#92d962" fill-rule="evenodd" stroke="none"/>
    <path d="M-10.0 192.7 L-10.0 -9.0 136.4 -9.0 Q104.8 11.75 79.45 36.55 L-8.15 36.15 -8.25 50.9 63.2 53.55 Q58.25 59.1 53.6 64.85 L-8.35 60.65 -8.65 106.2 22.15 111.35 Q19.75 115.65 17.5 120.05 L-8.7 114.95 -8.85 131.15 10.15 135.25 Q-2.2 162.5 -10.0 192.7" fill="#d2c5ac" fill-rule="evenodd" stroke="none"/>
    <path d="M583.05 -9.0 L615.95 -9.0 615.95 39.05 417.25 38.1 Q496.55 10.5 583.05 -9.0 M-10.0 321.8 L-10.0 291.0 Q64.65 221.4 151.6 165.8 L220.3 180.65 Q101.3 239.4 -10.0 321.8 M528.8 70.85 Q488.35 80.1 448.65 91.65 L306.8 82.05 Q327.3 72.8 348.35 64.15 L528.8 70.85 M175.8 150.75 Q184.8 145.3 193.95 140.0 L277.6 153.9 Q264.65 159.6 251.85 165.55 L175.8 150.75" fill="#f0e6ce" fill-rule="evenodd" stroke="none"/>
    <path d="M615.95 39.05 L615.95 53.85 Q571.95 61.0 528.8 70.85 L348.35 64.15 Q382.1 50.35 417.25 38.1 L615.95 39.05 M306.8 82.05 L448.65 91.65 Q361.25 117.1 277.6 153.9 L193.95 140.0 Q248.15 108.45 306.8 82.05 M175.8 150.75 L251.85 165.55 Q236.0 172.9 220.3 180.65 L151.6 165.8 175.8 150.75" fill="#b5e695" fill-rule="evenodd" stroke="none"/>
    <path d="M79.45 36.55 L159.95 36.9 Q147.05 46.4 134.9 56.25 L63.2 53.55 Q70.95 44.8 79.45 36.55 M119.2 69.3 Q91.55 93.1 67.65 118.95 L22.15 111.35 Q35.8 86.75 53.6 64.85 L119.2 69.3 M17.5 120.05 L59.3 128.15 Q52.75 135.55 46.5 143.1 L10.15 135.25 Q13.65 127.5 17.5 120.05" fill="#9ddd73" fill-rule="evenodd" stroke="none"/>
    <path d="M136.4 -9.0 L229.7 -9.0 Q192.6 12.8 159.95 36.9 L79.45 36.55 Q104.8 11.75 136.4 -9.0 M-10.0 225.3 L-10.0 192.7 Q-2.2 162.5 10.15 135.25 L46.5 143.1 Q14.2 182.05 -10.0 225.3 M67.65 118.95 Q63.4 123.5 59.3 128.15 L17.5 120.05 Q19.75 115.65 22.15 111.35 L67.65 118.95 M134.9 56.25 Q126.9 62.7 119.2 69.3 L53.6 64.85 Q58.25 59.1 63.2 53.55 L134.9 56.25" fill="#dccdb8" fill-rule="evenodd" stroke="none"/>
  </g>
</svg>
