<?xml version="1.0" encoding="UTF-8" standalone="no"?>
<svg xmlns:ffdec="https://www.free-decompiler.com/flash" xmlns:xlink="http://www.w3.org/1999/xlink" ffdec:objectType="shape" height="176.7px" width="61.2px" xmlns="http://www.w3.org/2000/svg">
  <g transform="matrix(1.0, 0.0, 0.0, 1.0, 26.5, 143.15)">
    <path d="M2.45 -1.1 Q2.4 1.2 2.9 3.55 L2.95 3.65 2.95 3.7 3.05 3.85 3.15 3.95 3.2 4.0 Q9.25 6.45 16.25 7.15 L18.1 7.3 17.9 9.3 Q16.3 18.35 10.8 22.25 5.3 26.15 -2.15 25.9 -9.65 25.6 -14.65 20.25 -19.7 14.85 -20.9 7.15 -22.1 -0.55 -22.05 -4.05 -22.05 -7.55 -10.2 -5.65 L2.65 -3.4 2.45 -1.1" fill="#c42626" fill-rule="evenodd" stroke="none"/>
    <path d="M-12.8 -14.4 L-12.8 -14.45 -12.55 -14.35 -12.8 -14.4" fill="#333333" fill-rule="evenodd" stroke="none"/>
    <path d="M-0.05 -140.75 L1.55 -141.05 -0.05 -140.7 -0.05 -140.75 M-6.45 -90.8 Q-6.8 -83.6 -6.6 -75.8 -9.15 -71.9 -7.0 -73.0 L-6.5 -73.25 -6.0 -65.5 -5.1 -55.6 -5.05 -55.55 -5.05 -55.2 -5.05 -55.1 Q-2.25 -35.2 -3.15 -17.45 L-4.4 -17.55 -4.5 -16.05 Q-9.9 -16.25 -10.0 -19.0 -10.15 -22.8 -11.0 -31.0 L-11.4 -34.55 -10.55 -35.1 -10.5 -35.15 Q-9.8 -35.85 -9.8 -36.9 -9.8 -37.95 -10.55 -38.7 -11.2 -39.35 -12.15 -39.4 L-12.4 -40.15 -13.8 -54.7 Q-13.05 -54.8 -12.55 -55.35 L-12.5 -55.4 Q-11.8 -56.1 -11.8 -57.15 -11.8 -58.2 -12.55 -58.95 -13.25 -59.65 -14.3 -59.65 L-14.35 -59.65 Q-15.25 -68.25 -15.55 -75.9 -14.5 -75.9 -13.8 -76.6 L-13.75 -76.65 Q-13.05 -77.35 -13.05 -78.4 -13.05 -79.45 -13.8 -80.2 -14.5 -80.9 -15.55 -80.9 L-15.7 -80.9 Q-15.85 -88.8 -15.3 -95.65 -14.25 -95.65 -13.55 -96.35 L-13.5 -96.4 Q-12.8 -97.1 -12.8 -98.15 -12.8 -99.2 -13.55 -99.95 -14.1 -100.5 -14.85 -100.6 -13.95 -108.25 -12.1 -114.4 L-11.65 -115.95 -11.05 -115.9 Q-10.0 -115.9 -9.3 -116.6 L-9.25 -116.65 Q-8.8 -117.1 -8.65 -117.7 L-5.3 -117.6 Q-2.5 -117.1 -6.85 -107.25 -11.2 -97.4 -11.2 -92.6 -11.25 -87.8 -10.35 -87.3 -9.45 -86.8 -8.0 -89.0 L-6.45 -90.8 M2.15 -95.25 Q4.95 -95.8 5.65 -94.6 6.5 -93.25 4.0 -90.0 L1.4 -86.6 1.9 -95.2 2.15 -95.25 M5.1 -78.5 Q13.55 -81.85 9.0 -78.0 4.3 -74.05 5.85 -65.2 7.15 -57.7 10.0 -55.0 12.55 -52.6 14.15 -48.4 16.1 -43.4 14.0 -41.0 13.05 -39.9 9.9 -38.05 L5.0 -35.1 4.3 -34.6 2.55 -51.75 2.15 -55.3 1.55 -65.05 Q1.25 -71.2 1.25 -76.9 L5.1 -78.5 M9.0 -33.0 Q18.55 -33.95 19.1 -31.95 19.6 -30.1 15.0 -29.0 11.7 -28.2 10.25 -26.1 8.8 -24.1 11.0 -24.0 13.55 -23.9 14.35 -21.3 15.15 -18.65 11.0 -18.0 L5.45 -17.15 4.45 -32.8 9.0 -33.0 M-9.55 -118.4 Q-9.55 -117.85 -9.9 -117.45 L-10.0 -117.35 Q-10.45 -116.9 -11.05 -116.9 L-11.35 -116.9 -12.15 -117.35 -12.2 -117.4 Q-12.55 -117.85 -12.55 -118.4 -12.55 -119.05 -12.15 -119.45 L-12.1 -119.5 -11.4 -119.85 -11.05 -119.9 -10.35 -119.75 -10.0 -119.5 Q-9.55 -119.05 -9.55 -118.4 M-16.35 -99.25 L-15.95 -99.5 -15.3 -99.65 -14.95 -99.6 -14.25 -99.25 Q-13.8 -98.8 -13.8 -98.15 -13.8 -97.55 -14.25 -97.1 -14.65 -96.65 -15.25 -96.65 L-15.3 -96.65 Q-15.8 -96.65 -16.2 -96.95 L-16.4 -97.1 Q-16.8 -97.5 -16.8 -98.15 -16.8 -98.8 -16.4 -99.2 L-16.35 -99.25 M-16.6 -79.5 L-15.65 -79.9 -15.55 -79.9 Q-14.9 -79.9 -14.5 -79.5 -14.05 -79.05 -14.05 -78.4 -14.05 -77.8 -14.5 -77.35 -14.95 -76.9 -15.55 -76.9 -16.2 -76.9 -16.6 -77.3 L-16.65 -77.35 Q-17.05 -77.75 -17.05 -78.4 -17.05 -79.0 -16.65 -79.45 L-16.6 -79.5 M-13.9 -55.7 L-14.3 -55.65 -14.95 -55.75 -15.4 -56.1 Q-15.8 -56.5 -15.8 -57.15 -15.8 -57.8 -15.4 -58.2 L-15.35 -58.25 -15.2 -58.35 -14.3 -58.65 -14.25 -58.65 Q-13.65 -58.65 -13.25 -58.25 -12.8 -57.8 -12.8 -57.15 -12.8 -56.55 -13.25 -56.1 L-13.9 -55.7 M-13.3 -38.05 Q-12.9 -38.4 -12.3 -38.4 L-12.25 -38.4 -11.9 -38.35 -11.25 -38.0 Q-10.8 -37.55 -10.8 -36.9 -10.8 -36.3 -11.25 -35.85 L-11.5 -35.6 Q-11.75 -35.45 -12.0 -35.4 L-12.3 -35.4 Q-12.8 -35.4 -13.15 -35.65 L-13.4 -35.85 Q-13.8 -36.25 -13.8 -36.9 -13.8 -37.55 -13.4 -37.95 L-13.35 -38.0 -13.3 -38.05" fill="#f2eee6" fill-rule="evenodd" stroke="none"/>
    <path d="M3.2 -11.0 L4.35 -11.0 Q15.95 -11.0 24.15 -12.9 29.4 -14.15 31.45 -15.7 L31.5 -15.7 31.75 -15.7 31.8 -15.4 31.2 -14.85 31.25 -14.85 Q29.3 -13.5 22.7 -11.65 16.0 -9.8 4.2 -9.8 L3.1 -9.8 3.2 -10.75 3.2 -11.0 M-21.0 -13.85 Q-22.2 -14.4 -22.85 -14.85 L-23.45 -15.4 -23.45 -15.45 Q-22.4 -14.95 -20.85 -14.4 L-21.0 -13.85 M-3.75 -11.25 L-3.8 -10.75 -3.7 -10.05 Q-10.05 -10.45 -14.3 -11.65 L-14.4 -11.65 -14.1 -12.6 -3.75 -11.25" fill="#941d1d" fill-rule="evenodd" stroke="none"/>
    <path d="M10.8 -13.15 Q18.05 -13.55 23.7 -14.85 28.35 -15.95 30.25 -17.25 L30.25 -17.3 30.7 -17.75 31.0 -18.4 31.0 -18.55 30.3 -19.45 30.2 -19.55 30.1 -19.75 30.2 -19.85 30.55 -20.05 Q31.05 -20.15 31.1 -20.45 31.15 -20.75 31.45 -20.65 31.75 -20.55 31.65 -20.75 31.55 -21.0 31.75 -20.8 33.25 -18.7 33.55 -17.55 34.05 -16.8 34.05 -15.95 L33.9 -15.0 34.15 -13.45 Q36.05 -0.8 31.3 15.15 26.45 31.4 7.35 33.35 -11.8 35.3 -19.05 19.75 -26.2 4.5 -25.9 -10.15 L-25.5 -15.2 -25.65 -15.95 Q-25.65 -16.75 -25.1 -17.55 L-25.05 -17.6 -25.0 -17.7 Q-24.7 -18.7 -23.2 -20.7 L-22.75 -20.8 -22.35 -20.85 Q-22.15 -20.95 -21.9 -20.7 L-21.45 -20.55 -21.35 -20.55 -21.4 -19.65 -21.6 -19.45 Q-22.25 -18.95 -22.3 -18.4 -22.25 -17.85 -21.55 -17.3 L-21.5 -17.25 -21.1 -17.0 -21.2 -15.9 -20.1 -15.65 -20.85 -14.4 Q-22.4 -14.95 -23.45 -15.45 L-23.45 -15.4 -22.85 -14.85 Q-22.2 -14.4 -21.0 -13.85 L-21.05 -13.25 Q-21.05 -12.35 -20.65 -11.6 -22.6 -12.3 -23.75 -13.05 L-24.35 -3.65 Q-24.85 4.3 -17.65 18.75 -10.5 33.15 6.25 31.35 23.0 29.5 28.2 14.35 33.35 -0.85 30.65 -9.55 30.0 -11.65 24.85 -10.45 16.3 -8.55 4.2 -8.55 L2.45 -8.55 3.1 -9.8 4.2 -9.8 Q16.0 -9.8 22.7 -11.65 29.3 -13.5 31.25 -14.85 L31.2 -14.85 31.8 -15.4 31.75 -15.7 31.5 -15.7 31.45 -15.7 Q29.4 -14.15 24.15 -12.9 15.95 -11.0 4.35 -11.0 L3.2 -11.0 2.85 -12.35 4.65 -12.2 4.7 -13.0 10.8 -13.15 M-3.15 -8.75 Q-10.15 -9.15 -15.65 -10.3 L-15.1 -10.75 -15.05 -10.8 -14.4 -11.65 -14.3 -11.65 Q-10.05 -10.45 -3.7 -10.05 L-3.15 -8.75 M-12.55 -14.35 L-11.95 -14.25 -11.85 -14.2 -4.75 -13.35 -4.75 -12.9 -3.15 -12.8 Q-3.65 -12.1 -3.75 -11.25 L-14.1 -12.6 -14.05 -13.25 -14.25 -14.5 -12.85 -14.2 -12.8 -14.4 -12.55 -14.35" fill="#532222" fill-rule="evenodd" stroke="none"/>
    <path d="M5.6 -7.0 L5.25 -7.2 4.9 -7.15 4.7 -6.85 Q4.25 -5.0 4.2 -3.1 4.15 -0.8 4.65 1.55 L4.7 1.65 4.7 1.7 4.8 1.85 4.9 1.95 4.95 2.0 Q11.0 4.45 18.0 5.15 L21.65 5.35 22.0 5.25 21.95 7.1 Q21.95 7.5 22.25 7.8 22.5 8.1 22.95 8.1 L23.65 7.85 23.95 7.15 24.0 4.15 23.7 3.45 Q23.4 3.15 23.0 3.15 22.6 3.15 22.3 3.45 22.0 3.75 22.0 4.15 L22.0 4.5 Q21.85 4.35 21.7 4.35 L17.8 4.1 Q11.25 3.4 5.6 1.15 5.15 -0.9 5.2 -2.9 5.2 -4.8 5.65 -6.65 L5.6 -7.0 M2.45 -8.55 L4.2 -8.55 Q16.3 -8.55 24.85 -10.45 30.0 -11.65 30.65 -9.55 33.35 -0.85 28.2 14.35 23.0 29.5 6.25 31.35 -10.5 33.15 -17.65 18.75 -24.85 4.3 -24.35 -3.65 L-23.75 -13.05 Q-22.6 -12.3 -20.65 -11.6 L-20.05 -10.8 Q-19.0 -9.75 -17.55 -9.75 -16.5 -9.75 -15.65 -10.3 -10.15 -9.15 -3.15 -8.75 L-2.8 -8.3 Q-1.75 -7.25 -0.3 -7.25 1.15 -7.25 2.15 -8.25 L2.2 -8.3 2.45 -8.55 M2.45 -1.1 L2.65 -3.4 -10.2 -5.65 Q-22.05 -7.55 -22.05 -4.05 -22.1 -0.55 -20.9 7.15 -19.7 14.85 -14.65 20.25 -9.65 25.6 -2.15 25.9 5.3 26.15 10.8 22.25 16.3 18.35 17.9 9.3 L18.1 7.3 16.25 7.15 Q9.25 6.45 3.2 4.0 L3.15 3.95 3.05 3.85 2.95 3.7 2.95 3.65 2.9 3.55 Q2.4 1.2 2.45 -1.1 M21.3 -7.65 L21.55 -4.6 Q21.6 -4.2 21.9 -3.95 22.2 -3.65 22.65 -3.7 23.05 -3.75 23.3 -4.05 23.6 -4.35 23.55 -4.75 L23.3 -7.85 22.95 -8.5 22.2 -8.75 Q21.8 -8.7 21.55 -8.35 21.25 -8.05 21.3 -7.65 M21.8 -1.65 L21.95 1.25 Q21.95 1.65 22.3 1.95 L23.0 2.2 23.7 1.9 23.95 1.2 23.8 -1.8 23.45 -2.5 22.75 -2.75 22.05 -2.4 Q21.8 -2.1 21.8 -1.65 M22.15 9.35 Q21.8 9.6 21.75 10.0 L21.4 13.0 Q21.35 13.4 21.6 13.7 L22.3 14.1 Q22.7 14.15 23.0 13.9 L23.4 13.25 23.75 10.2 23.55 9.5 Q23.25 9.15 22.85 9.1 22.45 9.05 22.15 9.35 M21.35 15.25 Q20.95 15.45 20.9 15.9 L20.15 18.75 Q20.05 19.1 20.25 19.5 L20.85 19.95 21.6 19.9 22.05 19.3 22.85 16.35 22.7 15.6 Q22.5 15.2 22.1 15.15 L21.35 15.25 M20.45 20.95 Q20.05 20.8 19.7 20.95 19.3 21.1 19.2 21.5 L18.0 24.25 Q17.8 24.6 17.95 25.0 L18.5 25.55 19.25 25.6 19.8 25.1 21.05 22.2 21.0 21.45 Q20.85 21.05 20.45 20.95" fill="#9f2020" fill-rule="evenodd" stroke="none"/>
    <path d="M-6.6 -75.8 L-6.5 -73.25 -7.0 -73.0 Q-9.15 -71.9 -6.6 -75.8 M-2.6 -15.2 L0.15 -15.2 2.85 -15.0 2.8 -14.35 -2.6 -14.75 -2.6 -15.2 M-12.55 -17.55 L-12.55 -14.35 -12.8 -14.45 -12.55 -17.55 M-23.1 -101.45 Q-24.35 -87.0 -22.5 -65.5 L-21.7 -56.9 -21.55 -55.15 Q-19.15 -35.25 -19.7 -19.95 L-20.8 -20.2 Q-21.3 -21.4 -21.35 -22.75 L-21.35 -23.3 -21.75 -32.05 Q-22.3 -40.6 -24.8 -67.35 -26.5 -85.35 -23.1 -101.45 M-15.1 -16.7 L-14.75 -16.85 -14.6 -16.85 -14.65 -16.6 -15.1 -16.7" fill="#ded3be" fill-rule="evenodd" stroke="none"/>
    <path d="M5.6 -7.0 L5.65 -6.65 Q5.2 -4.8 5.2 -2.9 5.15 -0.9 5.6 1.15 11.25 3.4 17.8 4.1 L21.7 4.35 Q21.85 4.35 22.0 4.5 L22.0 4.15 Q22.0 3.75 22.3 3.45 22.6 3.15 23.0 3.15 23.4 3.15 23.7 3.45 L24.0 4.15 23.95 7.15 23.65 7.85 22.95 8.1 Q22.5 8.1 22.25 7.8 21.95 7.5 21.95 7.1 L22.0 5.25 21.65 5.35 18.0 5.15 Q11.0 4.45 4.95 2.0 L4.9 1.95 4.8 1.85 4.7 1.7 4.7 1.65 4.65 1.55 Q4.15 -0.8 4.2 -3.1 4.25 -5.0 4.7 -6.85 L4.9 -7.15 5.25 -7.2 5.6 -7.0 M20.45 20.95 Q20.85 21.05 21.0 21.45 L21.05 22.2 19.8 25.1 19.25 25.6 18.5 25.55 17.95 25.0 Q17.8 24.6 18.0 24.25 L19.2 21.5 Q19.3 21.1 19.7 20.95 20.05 20.8 20.45 20.95 M21.35 15.25 L22.1 15.15 Q22.5 15.2 22.7 15.6 L22.85 16.35 22.05 19.3 21.6 19.9 20.85 19.95 20.25 19.5 Q20.05 19.1 20.15 18.75 L20.9 15.9 Q20.95 15.45 21.35 15.25 M22.15 9.35 Q22.45 9.05 22.85 9.1 23.25 9.15 23.55 9.5 L23.75 10.2 23.4 13.25 23.0 13.9 Q22.7 14.15 22.3 14.1 L21.6 13.7 Q21.35 13.4 21.4 13.0 L21.75 10.0 Q21.8 9.6 22.15 9.35 M21.8 -1.65 Q21.8 -2.1 22.05 -2.4 L22.75 -2.75 23.45 -2.5 23.8 -1.8 23.95 1.2 23.7 1.9 23.0 2.2 22.3 1.95 Q21.95 1.65 21.95 1.25 L21.8 -1.65 M21.3 -7.65 Q21.25 -8.05 21.55 -8.35 21.8 -8.7 22.2 -8.75 L22.95 -8.5 23.3 -7.85 23.55 -4.75 Q23.6 -4.35 23.3 -4.05 23.05 -3.75 22.65 -3.7 22.2 -3.65 21.9 -3.95 21.6 -4.2 21.55 -4.6 L21.3 -7.65" fill="#741818" fill-rule="evenodd" stroke="none"/>
    <path d="M-3.15 -17.45 L-3.3 -15.2 -2.6 -15.2 -2.6 -14.75 2.8 -14.35 2.85 -15.0 0.15 -15.2 1.45 -15.2 3.15 -16.6 3.15 -17.0 5.0 -16.85 4.7 -13.0 4.65 -12.2 2.85 -12.35 3.2 -11.0 3.2 -10.75 3.1 -9.8 2.45 -8.55 2.2 -8.3 2.15 -8.25 Q1.15 -7.25 -0.3 -7.25 -1.75 -7.25 -2.8 -8.3 L-3.15 -8.75 -3.7 -10.05 -3.8 -10.75 -3.75 -11.25 Q-3.65 -12.1 -3.15 -12.8 L-4.75 -12.9 -4.75 -13.35 -4.5 -16.05 -4.4 -17.55 -3.15 -17.45 M1.55 -12.45 L1.45 -12.55 Q0.75 -13.25 -0.3 -13.25 -1.2 -13.25 -1.9 -12.7 L-2.05 -12.55 -2.1 -12.5 Q-2.65 -11.95 -2.75 -11.2 L-2.8 -10.75 -2.7 -9.95 -2.1 -9.0 -1.7 -8.65 Q-1.1 -8.25 -0.3 -8.25 L0.95 -8.55 1.45 -9.0 2.05 -9.8 2.2 -10.75 2.2 -11.0 Q2.1 -11.85 1.55 -12.45 M-20.65 -11.6 Q-21.05 -12.35 -21.05 -13.25 L-21.0 -13.85 -20.85 -14.4 -20.1 -15.65 -21.2 -15.9 -21.1 -17.0 -20.9 -20.2 -20.8 -20.2 -19.7 -19.95 -19.8 -17.6 -15.85 -16.3 -15.1 -16.7 -14.65 -16.6 -14.6 -16.85 -14.75 -16.85 -13.85 -17.3 -13.95 -17.4 -14.05 -18.8 -12.55 -18.45 -12.45 -18.45 -12.55 -17.55 -12.8 -14.45 -12.8 -14.4 -12.85 -14.2 -14.25 -14.5 -14.05 -13.25 -14.1 -12.6 -14.4 -11.65 -15.05 -10.8 -15.1 -10.75 -15.65 -10.3 Q-16.5 -9.75 -17.55 -9.75 -19.0 -9.75 -20.05 -10.8 L-20.65 -11.6 M-19.3 -15.05 L-19.35 -15.0 -19.9 -14.1 -20.05 -13.45 -20.05 -13.25 Q-20.05 -12.2 -19.35 -11.5 L-18.7 -11.0 -17.6 -10.75 -17.55 -10.75 Q-16.5 -10.75 -15.8 -11.5 L-15.4 -11.95 Q-15.15 -12.35 -15.05 -12.85 L-15.05 -13.25 Q-15.05 -14.1 -15.55 -14.75 L-15.8 -15.05 Q-16.5 -15.75 -17.55 -15.75 L-18.8 -15.4 -19.3 -15.05" fill="#a36023" fill-rule="evenodd" stroke="none"/>
    <path d="M1.55 -12.45 Q2.1 -11.85 2.2 -11.0 L2.2 -10.75 2.05 -9.8 1.45 -9.0 0.95 -8.55 -0.3 -8.25 Q-1.1 -8.25 -1.7 -8.65 L-2.1 -9.0 -2.7 -9.95 -2.8 -10.75 -2.75 -11.2 Q-2.65 -11.95 -2.1 -12.5 L-2.05 -12.55 -1.9 -12.7 Q-1.2 -13.25 -0.3 -13.25 0.75 -13.25 1.45 -12.55 L1.55 -12.45 M-19.3 -15.05 L-18.8 -15.4 -17.55 -15.75 Q-16.5 -15.75 -15.8 -15.05 L-15.55 -14.75 Q-15.05 -14.1 -15.05 -13.25 L-15.05 -12.85 Q-15.15 -12.35 -15.4 -11.95 L-15.8 -11.5 Q-16.5 -10.75 -17.55 -10.75 L-17.6 -10.75 -18.7 -11.0 -19.35 -11.5 Q-20.05 -12.2 -20.05 -13.25 L-20.05 -13.45 -19.9 -14.1 -19.35 -15.0 -19.3 -15.05" fill="#f0a61c" fill-rule="evenodd" stroke="none"/>
    <path d="M10.3 -136.45 L10.5 -136.35 10.5 -136.25 10.3 -136.45 M-9.6 -136.95 L-9.05 -137.3 Q-10.2 -135.25 -11.45 -131.3 -13.75 -124.35 -16.55 -111.4 L-16.55 -111.35 Q-20.25 -94.35 -18.4 -65.5 L-17.65 -55.3 -17.65 -55.25 -17.4 -52.8 Q-15.15 -33.7 -14.05 -18.8 L-13.95 -17.4 -13.85 -17.3 -14.75 -16.85 -15.1 -16.7 -15.85 -16.3 -19.8 -17.6 -19.7 -19.95 Q-19.15 -35.25 -21.55 -55.15 L-21.7 -56.9 -22.5 -65.5 Q-24.35 -87.0 -23.1 -101.45 -22.5 -109.0 -21.05 -114.65 L-19.95 -118.55 Q-15.7 -132.9 -9.6 -136.95 M-6.45 -90.8 Q-5.55 -107.85 -1.2 -121.55 3.05 -135.2 7.3 -136.6 L9.45 -136.75 Q8.4 -136.75 6.7 -135.8 3.8 -134.2 -0.25 -121.25 -4.45 -108.0 -5.4 -91.7 -5.8 -84.75 -5.6 -77.2 L-5.5 -73.75 -5.0 -65.5 -4.1 -55.7 -4.1 -55.8 -4.05 -55.25 Q-1.1 -34.55 -2.15 -17.4 L-2.25 -16.4 1.15 -16.25 1.1 -17.15 Q0.35 -33.15 -1.75 -51.5 L-2.15 -55.1 -2.8 -65.5 Q-4.25 -94.65 0.65 -115.7 3.7 -129.2 7.0 -131.55 10.25 -133.95 11.25 -131.8 L12.1 -130.3 11.05 -130.9 Q9.8 -131.6 8.65 -130.6 5.45 -127.8 2.6 -115.25 -2.1 -94.9 -0.75 -65.05 L-0.15 -55.3 0.25 -51.75 Q2.4 -32.7 3.15 -17.0 L3.15 -16.6 1.45 -15.2 0.15 -15.2 -2.6 -15.2 -3.3 -15.2 -3.15 -17.45 Q-2.25 -35.2 -5.05 -55.1 L-5.05 -55.2 -5.05 -55.55 -5.1 -55.6 -6.0 -65.5 -6.5 -73.25 -6.6 -75.8 Q-6.8 -83.6 -6.45 -90.8 M-15.4 -124.45 Q-14.0 -129.15 -12.7 -132.1 -16.0 -127.2 -19.35 -115.1 L-19.65 -114.15 Q-24.1 -97.2 -21.45 -65.5 L-20.7 -57.0 -20.7 -56.95 -20.55 -55.25 Q-18.1 -35.0 -18.7 -19.75 L-18.75 -18.15 -16.0 -17.4 -16.15 -19.25 Q-17.25 -34.3 -19.4 -52.55 L-19.65 -55.1 -20.4 -65.5 Q-22.3 -94.6 -18.5 -111.8 -16.95 -119.2 -15.4 -124.45" fill="#526020" fill-rule="evenodd" stroke="none"/>
    <path d="M10.5 -136.25 Q11.35 -135.15 12.25 -132.9 13.15 -130.7 12.7 -130.15 L12.55 -130.05 12.1 -130.3 11.25 -131.8 Q10.25 -133.95 7.0 -131.55 3.7 -129.2 0.65 -115.7 -4.25 -94.65 -2.8 -65.5 L-2.15 -55.1 -1.75 -51.5 Q0.35 -33.15 1.1 -17.15 L1.15 -16.25 -2.25 -16.4 -2.15 -17.4 Q-1.1 -34.55 -4.05 -55.25 L-4.1 -55.8 -4.1 -55.7 -5.0 -65.5 -5.5 -73.75 -5.6 -77.2 Q-5.8 -84.75 -5.4 -91.7 -4.45 -108.0 -0.25 -121.25 3.8 -134.2 6.7 -135.8 8.4 -136.75 9.45 -136.75 L10.15 -136.5 10.3 -136.45 10.5 -136.25 M-15.4 -124.45 Q-16.95 -119.2 -18.5 -111.8 -22.3 -94.6 -20.4 -65.5 L-19.65 -55.1 -19.4 -52.55 Q-17.25 -34.3 -16.15 -19.25 L-16.0 -17.4 -18.75 -18.15 -18.7 -19.75 Q-18.1 -35.0 -20.55 -55.25 L-20.7 -56.95 -20.7 -57.0 -21.45 -65.5 Q-24.1 -97.2 -19.65 -114.15 L-19.35 -115.1 Q-16.0 -127.2 -12.7 -132.1 -14.0 -129.15 -15.4 -124.45" fill="#7d9432" fill-rule="evenodd" stroke="none"/>
    <path d="M10.5 -136.25 L10.5 -136.35 10.3 -136.45 10.15 -136.5 10.1 -136.6 Q6.3 -141.5 1.55 -141.05 L-0.05 -140.75 Q-6.2 -139.1 -11.45 -131.3 -10.2 -135.25 -9.05 -137.3 L-9.6 -136.95 Q-4.55 -142.4 1.3 -143.05 10.75 -144.35 16.65 -128.1 18.8 -122.2 20.5 -113.95 26.5 -84.15 30.0 -46.9 31.35 -32.95 31.75 -20.8 31.55 -21.0 31.65 -20.75 31.75 -20.55 31.45 -20.65 31.15 -20.75 31.1 -20.45 31.05 -20.15 30.55 -20.05 L30.2 -19.85 30.1 -19.75 30.2 -19.55 30.3 -19.45 31.0 -18.55 31.0 -18.4 30.7 -17.75 30.25 -17.3 30.25 -17.25 Q28.35 -15.95 23.7 -14.85 18.05 -13.55 10.8 -13.15 30.05 -16.35 29.7 -23.05 L29.55 -23.8 29.4 -24.65 Q28.3 -30.05 26.4 -56.95 24.5 -83.85 18.55 -113.55 16.6 -123.1 14.05 -129.3 L12.55 -130.05 12.7 -130.15 Q13.15 -130.7 12.25 -132.9 11.35 -135.15 10.5 -136.25 M-21.1 -17.0 L-21.5 -17.25 -21.55 -17.3 Q-22.25 -17.85 -22.3 -18.4 -22.25 -18.95 -21.6 -19.45 L-21.4 -19.65 -21.35 -20.55 -21.45 -20.55 -21.9 -20.7 Q-22.15 -20.95 -22.35 -20.85 L-22.75 -20.8 -23.2 -20.7 -23.2 -21.95 -23.3 -24.95 Q-23.75 -39.15 -25.35 -55.4 -29.15 -94.1 -20.3 -117.6 L-19.95 -118.55 -21.05 -114.65 Q-22.5 -109.0 -23.1 -101.45 -26.5 -85.35 -24.8 -67.35 -22.3 -40.6 -21.75 -32.05 L-21.35 -23.3 -21.35 -22.75 Q-21.3 -21.4 -20.8 -20.2 L-20.9 -20.2 -21.1 -17.0" fill="#40362d" fill-rule="evenodd" stroke="none"/>
    <path d="M-12.4 -40.15 L-12.15 -39.4 -12.3 -39.4 -12.4 -40.15 M-11.4 -34.55 L-11.0 -31.0 Q-10.15 -22.8 -10.0 -19.0 -9.9 -16.25 -4.5 -16.05 L-4.75 -13.35 -11.85 -14.2 -11.05 -14.1 -11.0 -14.1 Q-11.25 -24.0 -11.95 -34.4 L-11.4 -34.55" fill="#cbbdab" fill-rule="evenodd" stroke="none"/>
    <path d="M12.55 -130.05 L14.05 -129.3 Q16.6 -123.1 18.55 -113.55 24.5 -83.85 26.4 -56.95 28.3 -30.05 29.4 -24.65 L29.55 -23.8 29.7 -23.05 Q30.05 -16.35 10.8 -13.15 L4.7 -13.0 5.0 -16.85 3.15 -17.0 Q2.4 -32.7 0.25 -51.75 L-0.15 -55.3 -0.75 -65.05 Q-2.1 -94.9 2.6 -115.25 5.45 -127.8 8.65 -130.6 9.8 -131.6 11.05 -130.9 L12.1 -130.3 12.55 -130.05 M-11.45 -131.3 Q-6.2 -139.1 -0.05 -140.75 L-0.05 -140.7 Q-6.55 -133.2 -11.0 -120.9 L-11.05 -120.9 Q-12.1 -120.9 -12.85 -120.2 -13.55 -119.45 -13.55 -118.4 -13.55 -117.35 -12.85 -116.65 L-12.55 -116.4 -13.05 -114.7 Q-14.95 -108.45 -15.85 -100.6 L-17.1 -99.95 Q-17.8 -99.2 -17.8 -98.15 -17.8 -97.1 -17.1 -96.4 -16.75 -96.05 -16.3 -95.85 -16.85 -88.8 -16.7 -80.65 L-17.35 -80.2 Q-18.05 -79.45 -18.05 -78.4 -18.05 -77.35 -17.35 -76.65 L-16.55 -76.1 Q-16.25 -68.25 -15.35 -59.45 L-16.1 -58.95 Q-16.8 -58.2 -16.8 -57.15 -16.8 -56.1 -16.1 -55.4 -15.55 -54.85 -14.8 -54.7 -13.95 -46.8 -13.4 -39.15 L-14.1 -38.7 Q-14.8 -37.95 -14.8 -36.9 -14.8 -35.85 -14.1 -35.15 L-13.1 -34.5 Q-12.65 -26.3 -12.55 -18.45 L-14.05 -18.8 Q-15.15 -33.7 -17.4 -52.8 L-17.65 -55.25 -17.65 -55.3 -18.4 -65.5 Q-20.25 -94.35 -16.55 -111.35 L-16.55 -111.4 Q-13.75 -124.35 -11.45 -131.3 M1.55 -141.05 Q6.3 -141.5 10.1 -136.6 L10.15 -136.5 9.45 -136.75 7.3 -136.6 Q3.05 -135.2 -1.2 -121.55 -5.55 -107.85 -6.45 -90.8 L-8.0 -89.0 Q-9.45 -86.8 -10.35 -87.3 -11.25 -87.8 -11.2 -92.6 -11.2 -97.4 -6.85 -107.25 -2.5 -117.1 -5.3 -117.6 L-8.65 -117.7 -8.55 -118.4 Q-8.55 -119.45 -9.3 -120.2 L-10.0 -120.7 Q-5.35 -133.4 1.55 -141.05 M9.0 -33.0 L4.45 -32.8 5.45 -17.15 11.0 -18.0 Q15.15 -18.65 14.35 -21.3 13.55 -23.9 11.0 -24.0 8.8 -24.1 10.25 -26.1 11.7 -28.2 15.0 -29.0 19.6 -30.1 19.1 -31.95 18.55 -33.95 9.0 -33.0 M5.1 -78.5 L1.25 -76.9 Q1.25 -71.2 1.55 -65.05 L2.15 -55.3 2.55 -51.75 4.3 -34.6 5.0 -35.1 9.9 -38.05 Q13.05 -39.9 14.0 -41.0 16.1 -43.4 14.15 -48.4 12.55 -52.6 10.0 -55.0 7.15 -57.7 5.85 -65.2 4.3 -74.05 9.0 -78.0 13.55 -81.85 5.1 -78.5 M2.15 -95.25 L1.9 -95.2 1.4 -86.6 4.0 -90.0 Q6.5 -93.25 5.65 -94.6 4.95 -95.8 2.15 -95.25" fill="#d9ceb7" fill-rule="evenodd" stroke="none"/>
    <path d="M-0.05 -140.7 L1.55 -141.05 Q-5.35 -133.4 -10.0 -120.7 L-9.3 -120.2 Q-8.55 -119.45 -8.55 -118.4 L-8.65 -117.7 Q-8.8 -117.1 -9.25 -116.65 L-9.3 -116.6 Q-10.0 -115.9 -11.05 -115.9 L-11.65 -115.95 -12.1 -114.4 Q-13.95 -108.25 -14.85 -100.6 -14.1 -100.5 -13.55 -99.95 -12.8 -99.2 -12.8 -98.15 -12.8 -97.1 -13.5 -96.4 L-13.55 -96.35 Q-14.25 -95.65 -15.3 -95.65 -15.85 -88.8 -15.7 -80.9 L-15.55 -80.9 Q-14.5 -80.9 -13.8 -80.2 -13.05 -79.45 -13.05 -78.4 -13.05 -77.35 -13.75 -76.65 L-13.8 -76.6 Q-14.5 -75.9 -15.55 -75.9 -15.25 -68.25 -14.35 -59.65 L-14.3 -59.65 Q-13.25 -59.65 -12.55 -58.95 -11.8 -58.2 -11.8 -57.15 -11.8 -56.1 -12.5 -55.4 L-12.55 -55.35 Q-13.05 -54.8 -13.8 -54.7 L-12.4 -40.15 -12.3 -39.4 -12.15 -39.4 Q-11.2 -39.35 -10.55 -38.7 -9.8 -37.95 -9.8 -36.9 -9.8 -35.85 -10.5 -35.15 L-10.55 -35.1 -11.4 -34.55 -11.95 -34.4 Q-11.25 -24.0 -11.0 -14.1 L-11.05 -14.1 -11.85 -14.2 -11.95 -14.25 -12.55 -14.35 -12.55 -17.55 -12.45 -18.45 -12.55 -18.45 Q-12.65 -26.3 -13.1 -34.5 L-14.1 -35.15 Q-14.8 -35.85 -14.8 -36.9 -14.8 -37.95 -14.1 -38.7 L-13.4 -39.15 Q-13.95 -46.8 -14.8 -54.7 -15.55 -54.85 -16.1 -55.4 -16.8 -56.1 -16.8 -57.15 -16.8 -58.2 -16.1 -58.95 L-15.35 -59.45 Q-16.25 -68.25 -16.55 -76.1 L-17.35 -76.65 Q-18.05 -77.35 -18.05 -78.4 -18.05 -79.45 -17.35 -80.2 L-16.7 -80.65 Q-16.85 -88.8 -16.3 -95.85 -16.75 -96.05 -17.1 -96.4 -17.8 -97.1 -17.8 -98.15 -17.8 -99.2 -17.1 -99.95 L-15.85 -100.6 Q-14.95 -108.45 -13.05 -114.7 L-12.55 -116.4 -12.85 -116.65 Q-13.55 -117.35 -13.55 -118.4 -13.55 -119.45 -12.85 -120.2 -12.1 -120.9 -11.05 -120.9 L-11.0 -120.9 Q-6.55 -133.2 -0.05 -140.7 M-9.55 -118.4 Q-9.55 -119.05 -10.0 -119.5 L-10.35 -119.75 -11.05 -119.9 -11.4 -119.85 -12.1 -119.5 -12.15 -119.45 Q-12.55 -119.05 -12.55 -118.4 -12.55 -117.85 -12.2 -117.4 L-12.15 -117.35 -11.35 -116.9 -11.05 -116.9 Q-10.45 -116.9 -10.0 -117.35 L-9.9 -117.45 Q-9.55 -117.85 -9.55 -118.4 M-16.35 -99.25 L-16.4 -99.2 Q-16.8 -98.8 -16.8 -98.15 -16.8 -97.5 -16.4 -97.1 L-16.2 -96.95 Q-15.8 -96.65 -15.3 -96.65 L-15.25 -96.65 Q-14.65 -96.65 -14.25 -97.1 -13.8 -97.55 -13.8 -98.15 -13.8 -98.8 -14.25 -99.25 L-14.95 -99.6 -15.3 -99.65 -15.95 -99.5 -16.35 -99.25 M-16.6 -79.5 L-16.65 -79.45 Q-17.05 -79.0 -17.05 -78.4 -17.05 -77.75 -16.65 -77.35 L-16.6 -77.3 Q-16.2 -76.9 -15.55 -76.9 -14.95 -76.9 -14.5 -77.35 -14.05 -77.8 -14.05 -78.4 -14.05 -79.05 -14.5 -79.5 -14.9 -79.9 -15.55 -79.9 L-15.65 -79.9 -16.6 -79.5 M-13.3 -38.05 L-13.35 -38.0 -13.4 -37.95 Q-13.8 -37.55 -13.8 -36.9 -13.8 -36.25 -13.4 -35.85 L-13.15 -35.65 Q-12.8 -35.4 -12.3 -35.4 L-12.0 -35.4 Q-11.75 -35.45 -11.5 -35.6 L-11.25 -35.85 Q-10.8 -36.3 -10.8 -36.9 -10.8 -37.55 -11.25 -38.0 L-11.9 -38.35 -12.25 -38.4 -12.3 -38.4 Q-12.9 -38.4 -13.3 -38.05 M-13.9 -55.7 L-13.25 -56.1 Q-12.8 -56.55 -12.8 -57.15 -12.8 -57.8 -13.25 -58.25 -13.65 -58.65 -14.25 -58.65 L-14.3 -58.65 -15.2 -58.35 -15.35 -58.25 -15.4 -58.2 Q-15.8 -57.8 -15.8 -57.15 -15.8 -56.5 -15.4 -56.1 L-14.95 -55.75 -14.3 -55.65 -13.9 -55.7" fill="#5e4f42" fill-rule="evenodd" stroke="none"/>
  </g>
</svg>
