<?xml version="1.0" encoding="UTF-8" standalone="no"?>
<svg xmlns:ffdec="https://www.free-decompiler.com/flash" xmlns:xlink="http://www.w3.org/1999/xlink" ffdec:objectType="shape" height="19.75px" width="30.5px" xmlns="http://www.w3.org/2000/svg">
  <g transform="matrix(1.0, 0.0, 0.0, 1.0, 23.95, 21.0)">
    <path d="M3.2 -5.45 Q1.65 -3.1 -0.6 -3.05 -2.8 -3.1 -4.4 -5.45 -5.95 -7.8 -5.95 -11.15 -6.0 -13.0 -5.5 -14.55 L-4.4 -16.85 -3.25 -18.2 Q-2.05 -19.25 -0.6 -19.25 1.65 -19.25 3.2 -16.85 4.8 -14.5 4.8 -11.15 4.8 -7.8 3.2 -5.45 Z" fill="none" stroke="#000000" stroke-linecap="round" stroke-linejoin="round" stroke-width="3.5"/>
    <path d="M-17.5 -17.05 Q-15.6 -17.05 -14.25 -15.0 -12.85 -12.95 -12.8 -10.0 -12.85 -7.1 -14.25 -5.1 -15.6 -3.05 -17.5 -3.0 -19.45 -3.05 -20.85 -5.1 -22.2 -7.1 -22.2 -10.0 -22.2 -11.65 -21.75 -13.0 L-20.85 -15.0 -19.85 -16.15 Q-18.8 -17.05 -17.5 -17.05 Z" fill="none" stroke="#000000" stroke-linecap="round" stroke-linejoin="round" stroke-width="3.5"/>
  </g>
</svg>
