<?xml version="1.0" encoding="UTF-8" standalone="no"?>
<svg xmlns:ffdec="https://www.free-decompiler.com/flash" xmlns:xlink="http://www.w3.org/1999/xlink" ffdec:objectType="shape" height="16.7px" width="27.35px" xmlns="http://www.w3.org/2000/svg">
  <g transform="matrix(1.0, 0.0, 0.0, 1.0, 22.15, 18.0)">
    <path d="M2.1 -11.35 L1.25 -12.45 Q-0.9 -14.85 -3.6 -16.2 L-3.85 -16.25 -3.85 -15.6 Q-5.85 -12.4 -5.45 -8.6 -5.15 -6.1 -3.35 -4.2 -1.95 -2.7 0.1 -3.15 1.6 -3.55 2.5 -4.8 4.0 -6.9 3.15 -9.35 L2.1 -11.35 Z" fill="none" stroke="#000000" stroke-linecap="round" stroke-linejoin="round" stroke-width="3.5"/>
    <path d="M-20.1 -6.75 Q-19.65 -5.05 -18.55 -4.05 -16.9 -2.35 -14.95 -3.65 L-13.65 -4.85 Q-12.55 -6.15 -12.45 -7.8 -12.25 -10.9 -12.5 -13.75 L-12.75 -15.3 -12.95 -15.65 -13.4 -15.7 -19.85 -10.65 Q-20.8 -9.25 -20.1 -6.75 Z" fill="none" stroke="#000000" stroke-linecap="round" stroke-linejoin="round" stroke-width="3.5"/>
  </g>
</svg>
