<?xml version="1.0" encoding="UTF-8" standalone="no"?>
<svg xmlns:ffdec="https://www.free-decompiler.com/flash" xmlns:xlink="http://www.w3.org/1999/xlink" ffdec:objectType="shape" height="14.85px" width="27.8px" xmlns="http://www.w3.org/2000/svg">
  <g transform="matrix(1.0, 0.0, 0.0, 1.0, 22.2, 16.1)">
    <path d="M2.8 -14.35 Q3.85 -12.55 3.85 -10.05 3.85 -7.15 2.45 -5.1 1.1 -3.05 -0.85 -3.05 -2.75 -3.05 -4.15 -5.1 -5.3 -6.8 -5.45 -9.05" fill="none" stroke="#000000" stroke-linecap="round" stroke-linejoin="round" stroke-width="3.5"/>
    <path d="M-5.45 -9.05 L-6.55 -8.4 M-5.45 -9.05 L2.8 -14.35" fill="none" stroke="#000000" stroke-linecap="round" stroke-linejoin="round" stroke-width="3.5"/>
    <path d="M-12.35 -9.55 L-12.3 -9.05 Q-12.35 -6.55 -13.55 -4.8 -14.7 -3.0 -16.35 -3.0 -18.05 -3.0 -19.25 -4.8 -20.45 -6.55 -20.45 -9.05 -20.45 -10.5 -20.05 -11.65 L-19.9 -12.1" fill="none" stroke="#000000" stroke-linecap="round" stroke-linejoin="round" stroke-width="3.5"/>
    <path d="M-19.9 -12.1 L-12.35 -9.55 -11.8 -9.4" fill="none" stroke="#000000" stroke-linecap="round" stroke-linejoin="round" stroke-width="3.5"/>
  </g>
</svg>
