<?xml version="1.0" encoding="UTF-8" standalone="no"?>
<svg xmlns:ffdec="https://www.free-decompiler.com/flash" xmlns:xlink="http://www.w3.org/1999/xlink" ffdec:objectType="shape" height="17.3px" width="30.2px" xmlns="http://www.w3.org/2000/svg">
  <g transform="matrix(1.0, 0.0, 0.0, 1.0, 22.15, 18.55)">
    <path d="M5.6 -10.05 L5.65 -8.9 Q6.25 -8.9 8.05 -7.3 L6.7 -7.0 Q3.35 -6.15 -6.8 -2.2 L-6.95 -2.45 Q-7.25 -3.0 -7.05 -3.6 -6.9 -4.2 -6.35 -4.45 L-5.95 -4.65 Q-7.25 -6.95 -7.25 -10.05 -7.25 -11.9 -6.75 -13.5 L-6.8 -13.45 Q-6.4 -14.8 -5.6 -15.95 L-5.55 -16.0 -4.25 -17.5 -4.3 -17.45 Q-3.25 -18.7 -1.75 -18.55 -0.35 -18.4 5.4 -12.25 L5.6 -10.05 M2.4 -10.55 Q2.3 -10.4 0.55 -12.7 -1.25 -15.0 -1.65 -14.9 L-2.05 -14.8 -2.65 -14.05 -2.7 -13.95 -3.4 -12.55 -3.4 -12.5 Q-3.75 -11.4 -3.75 -10.05 -3.75 -7.95 -2.9 -6.4 -0.15 -8.15 2.15 -8.6 L2.25 -10.0 2.4 -10.55" fill="#000000" fill-rule="evenodd" stroke="none"/>
    <path d="M-20.7 -3.8 Q-22.0 -5.65 -22.15 -8.2 L-16.9 -18.05 -14.75 -17.35 Q-13.5 -16.5 -12.1 -14.35 -10.6 -12.2 -10.55 -9.05 L-10.55 -9.0 Q-10.6 -5.95 -12.1 -3.8 L-12.05 -3.85 Q-13.8 -1.15 -16.35 -1.25 -18.9 -1.15 -20.7 -3.8 M-17.8 -5.8 L-17.8 -5.75 Q-17.2 -4.85 -16.35 -4.75 -15.6 -4.85 -15.0 -5.75 L-15.0 -5.8 Q-14.1 -7.15 -14.05 -9.05 -14.1 -11.0 -15.0 -12.35 L-15.0 -12.4 -16.05 -13.3 Q-17.05 -12.7 -18.35 -9.1 L-18.65 -8.3 Q-18.5 -6.9 -17.8 -5.8" fill="#000000" fill-rule="evenodd" stroke="none"/>
  </g>
</svg>
