<?xml version="1.0" encoding="UTF-8" standalone="no"?>
<svg xmlns:ffdec="https://www.free-decompiler.com/flash" xmlns:xlink="http://www.w3.org/1999/xlink" ffdec:objectType="shape" height="78.5px" width="108.7px" xmlns="http://www.w3.org/2000/svg">
  <g transform="matrix(1.0, 0.0, 0.0, 1.0, 52.5, 34.45)">
    <path d="M4.2 -15.55 Q0.65 -19.75 -4.6 -20.3 -7.65 -20.45 -11.1 -16.05 L-14.85 -11.25 -15.65 -10.4 -15.55 -10.7 Q-8.4 -22.85 -4.3 -22.2 1.65 -21.45 5.65 -16.8 9.45 -12.25 11.85 -7.15 L12.25 -6.85 Q20.25 -1.25 22.3 12.2 24.65 6.05 23.75 -2.15 35.05 1.85 41.25 14.6 46.05 24.6 43.65 30.9 47.9 25.6 45.85 13.45 49.5 14.05 53.55 18.2 54.55 17.5 52.9 8.95 51.15 0.45 35.5 -14.25 39.4 -16.05 43.45 -14.85 34.4 -23.3 22.8 -28.05 11.15 -32.85 -3.45 -31.7 -18.05 -30.6 -20.05 -24.35 -21.2 -20.8 -21.25 -18.8 L-15.15 -15.0 -21.15 -17.55 -22.75 -18.25 -27.55 -20.55 Q-32.8 -23.3 -35.8 -21.8 -39.0 -18.25 -44.65 -10.05 -50.35 -1.85 -51.05 9.7 -51.8 21.15 -47.1 29.65 -47.6 22.15 -46.1 14.6 -43.8 2.5 -36.0 -5.15 -35.65 -6.7 -37.55 -6.9 -37.95 -6.95 -38.2 -7.25 -38.5 -7.55 -38.45 -7.95 L-38.05 -8.6 -37.35 -8.8 -32.0 -7.9 -31.95 -7.95 -31.5 -7.85 Q-24.25 -6.2 -19.55 -2.5 -18.65 -2.35 -17.75 -4.35 L-17.25 -3.2 -15.6 -4.4 Q-15.95 -6.1 -15.9 -8.2 L-15.9 -8.55 -15.0 -5.0 -14.8 -4.35 -14.4 -3.2 Q-13.35 -0.9 -11.25 -0.1 -8.7 0.85 -8.35 0.15 -3.9 -2.0 -4.8 -6.4 1.35 2.5 4.25 8.5 10.6 21.35 11.0 38.4 14.75 20.9 14.15 9.9 13.75 3.0 11.5 -3.05 10.3 -6.25 8.65 -9.15 6.75 -12.5 4.2 -15.55 M49.6 -11.7 L47.1 -11.9 43.2 -11.65 Q53.95 -3.1 55.95 11.45 56.65 16.9 55.55 22.2 L55.0 24.85 53.7 22.4 Q52.95 20.85 50.55 19.3 51.25 29.5 40.85 38.05 L38.8 39.85 38.1 39.25 39.45 36.85 Q45.15 27.1 39.55 15.4 34.2 4.5 26.8 2.65 26.15 8.35 22.85 12.8 L21.6 14.55 21.15 12.4 Q19.8 5.3 14.4 -0.35 15.75 4.5 16.05 9.8 16.85 23.75 11.1 41.5 L10.3 44.05 Q10.3 25.15 2.55 9.35 -0.3 3.55 -3.55 -1.25 -6.15 -0.15 -8.3 1.3 L-9.05 1.45 -9.35 1.35 -9.9 1.4 Q-13.65 1.0 -15.05 -2.55 -16.1 -1.6 -17.5 -0.8 L-17.45 -0.8 Q-18.05 -0.45 -18.7 -0.3 L-19.15 -0.15 -19.55 -0.45 Q-24.65 -4.2 -31.5 -5.85 -41.9 2.85 -44.25 15.0 -46.15 24.75 -44.6 34.55 L-44.2 37.25 -45.0 37.55 -46.35 35.2 Q-53.4 23.4 -52.35 9.65 -51.25 -4.05 -43.35 -15.4 -40.5 -19.5 -37.15 -23.2 L-37.0 -23.35 -36.85 -23.4 Q-33.0 -25.55 -28.1 -22.85 L-22.6 -19.6 Q-22.15 -21.85 -20.85 -25.15 -18.0 -32.85 -2.7 -34.2 12.05 -35.5 25.05 -29.75 38.0 -24.1 47.9 -13.5 L49.6 -11.7" fill="#271f16" fill-rule="evenodd" stroke="none"/>
    <path d="M4.2 -15.55 Q6.75 -12.5 8.65 -9.15 10.3 -6.25 11.5 -3.05 13.75 3.0 14.15 9.9 14.75 20.9 11.0 38.4 10.6 21.35 4.25 8.5 1.35 2.5 -4.8 -6.4 -3.9 -2.0 -8.35 0.15 -8.7 0.85 -11.25 -0.1 -13.35 -0.9 -14.4 -3.2 L-14.8 -4.35 -15.0 -5.0 -15.9 -8.55 -15.9 -8.2 Q-15.95 -6.1 -15.6 -4.4 L-17.25 -3.2 -17.75 -4.35 Q-18.65 -2.35 -19.55 -2.5 -24.25 -6.2 -31.5 -7.85 L-31.95 -7.95 -32.0 -7.9 -37.35 -8.8 -38.05 -8.6 -38.45 -7.95 Q-38.5 -7.55 -38.2 -7.25 -37.95 -6.95 -37.55 -6.9 -35.65 -6.7 -36.0 -5.15 -43.8 2.5 -46.1 14.6 -47.6 22.15 -47.1 29.65 -51.8 21.15 -51.05 9.7 -50.35 -1.85 -44.65 -10.05 -39.0 -18.25 -35.8 -21.8 -32.8 -23.3 -27.55 -20.55 L-22.75 -18.25 -21.15 -17.55 -15.15 -15.0 -21.25 -18.8 Q-21.2 -20.8 -20.05 -24.35 -18.05 -30.6 -3.45 -31.7 11.15 -32.85 22.8 -28.05 34.4 -23.3 43.45 -14.85 39.4 -16.05 35.5 -14.25 51.15 0.45 52.9 8.95 54.55 17.5 53.55 18.2 49.5 14.05 45.85 13.45 47.9 25.6 43.65 30.9 46.05 24.6 41.25 14.6 35.05 1.85 23.75 -2.15 24.65 6.05 22.3 12.2 20.25 -1.25 12.25 -6.85 L11.85 -7.15 Q9.45 -12.25 5.65 -16.8 1.65 -21.45 -4.3 -22.2 -8.4 -22.85 -15.55 -10.7 L-15.65 -10.4 -14.85 -11.25 -11.1 -16.05 Q-7.65 -20.45 -4.6 -20.3 0.65 -19.75 4.2 -15.55" fill="#3c2b13" fill-rule="evenodd" stroke="none"/>
  </g>
</svg>
