<?xml version="1.0" encoding="UTF-8" standalone="no"?>
<svg xmlns:ffdec="https://www.free-decompiler.com/flash" xmlns:xlink="http://www.w3.org/1999/xlink" ffdec:objectType="shape" height="74.75px" width="73.65px" xmlns="http://www.w3.org/2000/svg">
  <g transform="matrix(1.0, 0.0, 0.0, 1.0, 33.5, 65.45)">
    <path d="M3.35 -65.45 Q18.55 -65.5 29.35 -54.55 40.15 -43.55 40.15 -28.05 40.15 -12.6 29.35 -1.7 18.55 9.3 3.35 9.3 L-0.95 9.1 Q-4.6 8.65 -7.95 7.65 -10.9 6.7 -13.55 5.25 -18.5 2.6 -22.7 -1.7 -33.5 -12.6 -33.5 -28.05 -33.5 -41.1 -25.85 -50.95 L-23.1 -54.15 -22.95 -54.3 -22.85 -54.4 -22.7 -54.55 -21.3 -55.9 Q-11.0 -65.5 3.35 -65.45" fill="#654425" fill-rule="evenodd" stroke="none"/>
    <path d="M-13.1 3.15 Q-17.8 0.7 -21.85 -3.35 -32.15 -13.65 -32.15 -28.2 -32.15 -40.45 -24.85 -49.7 L-23.25 -51.8 -22.15 -52.95 -20.5 -54.35 Q-13.9 -56.9 -6.35 -56.9 6.45 -56.9 15.55 -48.0 24.6 -39.15 24.6 -26.55 24.6 -13.95 15.55 -5.05 6.45 3.8 -6.35 3.8 L-13.1 3.15" fill="#f8b674" fill-rule="evenodd" stroke="none"/>
    <path d="M-20.5 -54.35 L-20.55 -54.35 Q-10.6 -63.4 3.05 -63.35 17.6 -63.4 27.9 -53.1 38.2 -42.75 38.2 -28.2 38.2 -13.65 27.9 -3.35 17.6 7.0 3.05 7.0 L-1.05 6.8 Q12.7 6.05 22.35 -3.65 32.0 -13.3 32.0 -26.95 32.0 -40.6 22.35 -50.25 12.7 -59.9 -1.0 -59.9 -11.8 -59.9 -20.5 -54.35" fill="#e79d5a" fill-rule="evenodd" stroke="none"/>
    <path d="M-1.05 6.8 L-7.75 5.4 Q-10.55 4.5 -13.1 3.15 L-6.35 3.8 Q6.45 3.8 15.55 -5.05 24.6 -13.95 24.6 -26.55 24.6 -39.15 15.55 -48.0 6.45 -56.9 -6.35 -56.9 -13.9 -56.9 -20.5 -54.35 -11.8 -59.9 -1.0 -59.9 12.7 -59.9 22.35 -50.25 32.0 -40.6 32.0 -26.95 32.0 -13.3 22.35 -3.65 12.7 6.05 -1.05 6.8" fill="#f0a866" fill-rule="evenodd" stroke="none"/>
  </g>
</svg>
