<?xml version="1.0" encoding="UTF-8" standalone="no"?>
<svg xmlns:ffdec="https://www.free-decompiler.com/flash" xmlns:xlink="http://www.w3.org/1999/xlink" ffdec:objectType="shape" height="64.25px" width="40.1px" xmlns="http://www.w3.org/2000/svg">
  <g transform="matrix(1.0, 0.0, 0.0, 1.0, 10.4, 13.3)">
    <path d="M4.7 42.65 L3.05 38.25 3.35 38.25 3.4 37.75 Q3.9 31.9 8.1 27.65 11.4 24.4 15.6 23.35 L15.55 23.6 Q15.05 25.1 13.85 26.15 L11.85 27.95 Q9.2 30.45 7.05 33.3 L6.95 33.45 Q3.95 37.6 4.7 42.65" fill="#7d9432" fill-rule="evenodd" stroke="none"/>
    <path d="M6.25 43.3 L6.1 43.45 5.9 43.0 6.25 43.3" fill="#2d4316" fill-rule="evenodd" stroke="none"/>
    <path d="M15.6 23.35 L15.75 23.35 19.8 22.85 22.1 23.0 22.55 23.05 Q23.5 24.35 24.9 25.2 25.2 26.3 25.85 27.1 26.3 27.55 26.3 28.15 L26.1 34.7 25.85 34.2 25.35 33.15 24.65 31.5 25.1 30.9 Q26.6 28.55 25.1 26.35 L23.0 25.95 20.5 26.05 Q15.9 26.65 12.55 29.15 10.15 30.85 8.35 33.5 L7.55 34.75 Q6.3 36.95 5.55 39.3 5.4 42.3 6.25 43.3 L5.9 43.0 6.1 43.45 Q6.75 44.65 7.8 45.15 10.4 46.3 12.85 44.7 L13.0 44.45 Q14.15 45.95 13.6 45.5 L13.55 45.4 6.45 45.65 5.85 45.0 4.7 42.65 Q3.95 37.6 6.95 33.45 L7.05 33.3 Q9.2 30.45 11.85 27.95 L13.85 26.15 Q15.05 25.1 15.55 23.6 L15.6 23.35" fill="#657728" fill-rule="evenodd" stroke="none"/>
    <path d="M12.45 44.25 L8.55 44.75 8.25 44.55 7.9 39.45 Q9.3 40.15 10.65 41.75 L12.6 44.2 12.45 44.25 M23.6 29.55 L22.0 27.05 23.15 27.0 23.4 27.4 Q24.1 28.55 23.6 29.55" fill="#3f4918" fill-rule="evenodd" stroke="none"/>
    <path d="M25.35 48.0 L25.4 47.35 Q23.9 33.6 18.0 33.6 13.95 33.6 11.75 36.55 11.05 37.45 10.45 38.6 L10.4 38.6 8.85 35.9 8.8 35.8 Q10.55 32.5 13.3 30.45 15.85 28.5 19.3 27.6 L19.65 27.55 Q24.9 34.7 27.5 43.3 28.2 45.6 26.5 47.15 L26.1 47.45 25.55 47.85 25.35 48.0" fill="#feb86b" fill-rule="evenodd" stroke="none"/>
    <path d="M10.4 38.6 L10.45 38.6 Q11.05 37.45 11.75 36.55 13.95 33.6 18.0 33.6 23.9 33.6 25.4 47.35 L25.35 48.0 Q22.25 49.95 19.0 47.95 17.2 46.95 15.95 45.15 L13.2 41.8 Q11.6 40.35 10.4 38.6" fill="#fec281" fill-rule="evenodd" stroke="none"/>
    <path d="M12.5 44.3 L12.45 44.25 12.6 44.2 12.5 44.3" fill="#684e35" fill-rule="evenodd" stroke="none"/>
    <path d="M15.5 22.4 Q10.95 23.45 7.4 26.95 3.25 31.1 2.5 36.7 L0.8 31.8 Q-2.0 23.55 -4.45 15.15 -7.05 6.1 -8.8 0.65 -10.35 -4.3 -10.15 -7.95 L-10.1 -8.75 Q-9.95 -10.4 -9.25 -11.3 L-9.1 -11.7 Q-7.95 -14.45 -4.15 -12.5 L-4.1 -12.55 -4.05 -12.45 Q-1.0 -7.85 4.65 2.05 12.1 15.0 14.0 18.8 L15.5 22.4" fill="#f2eee6" fill-rule="evenodd" stroke="none"/>
    <path d="M26.1 34.7 L26.65 35.55 Q28.55 38.85 29.5 42.85 30.5 47.25 26.5 49.65 22.7 52.0 18.65 50.15 15.8 48.85 14.4 46.15 L13.6 45.5 Q14.15 45.95 13.0 44.45 L12.85 44.7 12.5 44.3 12.6 44.2 10.65 41.75 Q9.3 40.15 7.9 39.45 L8.85 35.9 10.4 38.6 Q11.6 40.35 13.2 41.8 L15.95 45.15 Q17.2 46.95 19.0 47.95 22.25 49.95 25.35 48.0 L25.55 47.85 26.1 47.45 26.5 47.15 Q28.2 45.6 27.5 43.3 24.9 34.7 19.65 27.55 L22.0 27.05 23.6 29.55 24.65 31.5 25.35 33.15 25.85 34.2 26.1 34.7" fill="#654425" fill-rule="evenodd" stroke="none"/>
    <path d="M-4.0 -12.45 Q0.4 -7.6 2.6 -4.65 L19.45 18.65 21.8 21.95 19.8 21.85 Q17.55 21.85 15.5 22.4 L14.0 18.8 Q12.1 15.0 4.65 2.05 -1.0 -7.85 -4.05 -12.45 L-4.1 -12.55 -4.0 -12.45" fill="#d9ceb7" fill-rule="evenodd" stroke="none"/>
    <path d="M26.1 34.7 L26.3 28.15 Q26.3 27.55 25.85 27.1 25.2 26.3 24.9 25.2 23.5 24.35 22.55 23.05 L22.1 23.0 19.8 22.85 15.75 23.35 15.6 23.35 Q11.4 24.4 8.1 27.65 3.9 31.9 3.4 37.75 L3.35 38.25 3.05 38.25 4.7 42.65 5.85 45.0 6.45 45.65 13.55 45.4 13.6 45.5 14.4 46.15 Q9.8 49.5 5.15 46.75 4.35 46.3 3.95 45.55 L3.8 45.2 2.0 40.95 Q-1.2 32.55 -3.8 23.8 -6.8 13.85 -9.05 3.9 -10.35 -1.8 -10.4 -5.15 L-10.15 -7.95 Q-10.35 -4.3 -8.8 0.65 -7.05 6.1 -4.45 15.15 -2.0 23.55 0.8 31.8 L2.5 36.7 Q3.25 31.1 7.4 26.95 10.95 23.45 15.5 22.4 17.55 21.85 19.8 21.85 L21.8 21.95 19.45 18.65 2.6 -4.65 Q0.4 -7.6 -4.0 -12.45 L-2.95 -11.85 Q1.8 -8.85 4.1 -5.75 L15.0 9.0 24.15 21.8 25.6 23.3 Q27.2 25.25 28.2 27.65 28.6 28.6 28.5 29.65 28.35 31.9 27.35 33.95 L26.65 35.55 26.1 34.7" fill="#40362d" fill-rule="evenodd" stroke="none"/>
    <path d="M19.65 27.55 L19.3 27.6 Q15.85 28.5 13.3 30.45 10.55 32.5 8.8 35.8 L8.85 35.9 7.9 39.45 8.25 44.55 8.55 44.75 12.45 44.25 12.5 44.3 12.85 44.7 Q10.4 46.3 7.8 45.15 6.75 44.65 6.1 43.45 L6.25 43.3 Q5.4 42.3 5.55 39.3 6.3 36.95 7.55 34.75 L8.35 33.5 Q10.15 30.85 12.55 29.15 15.9 26.65 20.5 26.05 L23.0 25.95 25.1 26.35 Q26.6 28.55 25.1 30.9 L24.65 31.5 23.6 29.55 Q24.1 28.55 23.4 27.4 L23.15 27.0 22.0 27.05 19.65 27.55" fill="#2e3612" fill-rule="evenodd" stroke="none"/>
  </g>
</svg>
