<?xml version="1.0" encoding="UTF-8" standalone="no"?>
<svg xmlns:ffdec="https://www.free-decompiler.com/flash" xmlns:xlink="http://www.w3.org/1999/xlink" ffdec:objectType="shape" height="53.05px" width="37.0px" xmlns="http://www.w3.org/2000/svg">
  <g transform="matrix(1.0, 0.0, 0.0, 1.0, 14.1, 43.2)">
    <path d="M12.3 9.65 L12.05 9.85 11.85 9.85 12.3 9.65" fill="#224a60" fill-rule="evenodd" stroke="none"/>
    <path d="M1.35 -19.55 L1.35 -20.25 1.5 -19.6 1.35 -19.55" fill="#684e35" fill-rule="evenodd" stroke="none"/>
    <path d="M8.1 -22.85 Q8.1 -26.25 7.05 -31.35 6.0 -36.45 2.55 -40.2 L6.2 -43.2 Q7.65 -39.8 8.7 -36.4 10.25 -31.35 10.1 -26.1 L10.5 -18.6 10.45 -18.6 10.55 -16.25 10.7 -16.25 10.7 -16.15 10.55 -16.25 10.65 -15.1 10.9 -15.0 11.15 -13.5 10.15 -13.1 9.0 -12.8 8.1 -22.85 M-5.4 -34.9 L-4.55 -33.8 -3.85 -34.0 Q-3.45 -33.95 -3.2 -33.6 -2.95 -33.3 -3.0 -32.85 L-3.0 -32.6 -3.1 -31.7 Q-3.45 -28.85 -3.4 -27.0 -3.45 -24.75 -3.0 -24.05 L-1.65 -22.65 -0.25 -21.55 -0.2 -21.55 Q0.7 -20.95 1.35 -19.55 L1.5 -19.6 1.8 -18.35 2.25 -16.1 2.8 -12.7 0.9 -13.1 0.5 -13.25 0.15 -14.9 0.15 -16.05 -0.55 -18.2 -0.75 -19.2 -1.35 -19.9 -2.25 -20.55 -3.05 -21.25 -4.55 -22.8 -4.6 -22.85 Q-5.75 -24.15 -5.3 -30.0 L-6.4 -31.4 -7.95 -33.2 -5.4 -34.9" fill="#654425" fill-rule="evenodd" stroke="none"/>
    <path d="M2.55 -40.2 Q6.0 -36.45 7.05 -31.35 8.1 -26.25 8.1 -22.85 L6.85 -22.6 5.9 -22.3 1.75 -21.95 1.25 -22.0 1.35 -20.25 1.35 -19.55 Q0.7 -20.95 -0.2 -21.55 L-0.25 -21.55 -1.65 -22.65 -3.0 -24.05 Q-3.45 -24.75 -3.4 -27.0 -3.45 -28.85 -3.1 -31.7 L-3.0 -32.6 -3.0 -32.85 Q-2.95 -33.3 -3.2 -33.6 -3.45 -33.95 -3.85 -34.0 L-4.55 -33.8 -5.4 -34.9 2.55 -40.2" fill="#e79d5a" fill-rule="evenodd" stroke="none"/>
    <path d="M1.35 -20.25 L1.25 -22.0 1.75 -21.95 5.9 -22.3 6.85 -22.6 8.1 -22.85 9.0 -12.8 5.55 -12.5 2.8 -12.7 2.25 -16.1 1.8 -18.35 1.5 -19.6 1.35 -20.25" fill="#f0a866" fill-rule="evenodd" stroke="none"/>
    <path d="M16.95 -14.85 Q17.95 -14.35 18.05 -13.85 L18.1 -13.55 18.25 -13.15 Q17.45 -12.3 15.6 -11.5 13.75 -10.7 12.55 -10.5 L10.3 -10.1 Q9.15 -9.9 7.0 -10.1 L4.15 -10.35 Q16.8 -11.05 16.95 -14.85 M-0.1 -16.05 L-0.05 -16.05 0.1 -16.05 -0.05 -15.95 -0.1 -16.05" fill="#f2eee6" fill-rule="evenodd" stroke="none"/>
    <path d="M-8.8 -11.7 L-7.15 -11.2 Q-5.0 -10.5 -3.05 -9.1 L-2.1 -8.4 -1.35 -8.5 -1.2 -8.5 Q0.1 -8.5 1.15 -7.75 L1.45 -7.55 2.55 -8.1 Q6.25 -9.85 10.65 -9.45 L11.15 -9.4 11.4 -9.0 Q14.1 -4.8 13.8 -0.95 L13.6 0.4 Q12.9 3.75 9.75 6.8 L9.4 7.15 8.85 7.05 Q2.55 5.8 0.0 1.15 L-1.2 1.3 -2.2 1.2 Q-4.75 3.75 -9.55 3.7 L-10.0 3.7 -10.3 3.35 Q-17.05 -4.5 -11.75 -11.65 L-11.4 -12.1 -10.85 -12.05 -8.8 -11.7 M1.3 -3.6 L1.15 -4.55 0.5 -5.65 0.5 -5.7 -0.2 -6.25 -0.35 -6.3 -1.2 -6.5 -2.8 -6.55 -2.95 -6.5 Q-4.05 -6.1 -4.5 -4.4 -4.8 -3.25 -4.7 -2.45 -4.6 -1.3 -3.7 -0.85 L-3.25 -0.65 Q-2.05 -0.15 -1.2 -0.4 L-0.9 -0.5 -0.8 -0.5 0.5 -1.5 0.85 -1.95 Q1.3 -2.7 1.3 -3.6 M3.3 -6.85 L2.6 -6.2 Q3.3 -5.05 3.3 -3.6 L3.1 -2.05 Q2.75 -1.05 2.0 -0.15 L2.0 -0.2 1.65 0.2 Q2.5 4.9 8.7 5.0 11.4 2.9 12.2 0.55 L12.45 -0.7 Q12.8 -3.85 9.95 -7.5 5.6 -8.5 3.3 -6.85 M-4.05 -7.4 L-4.2 -7.5 Q-6.0 -8.7 -8.05 -9.1 L-9.2 -9.25 -10.6 -9.35 Q-16.05 -3.5 -9.1 1.7 -6.0 1.65 -4.1 0.15 L-4.45 -0.15 -4.45 -0.2 -5.05 -1.05 Q-5.65 -2.1 -5.7 -3.3 L-5.7 -3.6 Q-5.7 -5.5 -4.5 -6.9 L-4.45 -7.0 -4.05 -7.4" fill="#532222" fill-rule="evenodd" stroke="none"/>
    <path d="M3.3 -6.85 Q5.6 -8.5 9.95 -7.5 12.8 -3.85 12.45 -0.7 L12.2 0.55 Q11.4 2.9 8.7 5.0 2.5 4.9 1.65 0.2 L2.0 -0.2 2.0 -0.15 Q2.75 -1.05 3.1 -2.05 L3.3 -3.6 Q3.3 -5.05 2.6 -6.2 L3.3 -6.85 M1.3 -3.6 Q1.3 -2.7 0.85 -1.95 L0.5 -1.5 -0.8 -0.5 -0.9 -0.5 -1.2 -0.4 Q-2.05 -0.15 -3.25 -0.65 L-3.7 -0.85 Q-4.6 -1.3 -4.7 -2.45 -4.8 -3.25 -4.5 -4.4 -4.05 -6.1 -2.95 -6.5 L-2.8 -6.55 -1.2 -6.5 -0.35 -6.3 -0.2 -6.25 0.5 -5.7 0.5 -5.65 1.15 -4.55 1.3 -3.6 M5.2 -4.7 Q6.85 -5.7 8.0 -5.35 L10.25 -4.0 Q11.3 -3.0 10.8 -4.05 L9.5 -5.85 Q8.65 -6.65 7.4 -6.9 6.15 -7.15 5.2 -6.05 L3.85 -4.35 Q3.5 -3.7 5.2 -4.7 M4.8 -1.65 L3.9 -1.7 Q4.2 -1.05 5.15 -0.5 6.1 0.05 7.1 0.05 L10.45 -0.6 Q12.8 -1.3 11.8 -1.25 L9.25 -0.85 6.85 -0.75 Q6.0 -1.0 4.8 -1.65 M7.7 3.55 Q8.9 3.75 7.3 2.95 L5.45 1.95 5.05 1.7 4.05 1.15 2.85 0.8 Q2.5 0.8 3.7 1.85 L5.7 3.15 7.7 3.55 M-11.75 -6.1 L-12.2 -4.85 Q-12.25 -4.35 -10.4 -5.4 -8.6 -6.45 -6.95 -5.75 -5.35 -5.1 -5.95 -5.75 L-7.5 -6.9 Q-8.5 -7.4 -9.35 -7.4 L-10.8 -7.15 -11.75 -6.1 M-4.05 -7.4 L-4.45 -7.0 -4.5 -6.9 Q-5.7 -5.5 -5.7 -3.6 L-5.7 -3.3 Q-5.65 -2.1 -5.05 -1.05 L-4.45 -0.2 -4.45 -0.15 -4.1 0.15 Q-6.0 1.65 -9.1 1.7 -16.05 -3.5 -10.6 -9.35 L-9.2 -9.25 -8.05 -9.1 Q-6.0 -8.7 -4.2 -7.5 L-4.05 -7.4 M-0.8 -5.05 Q-1.5 -5.6 -2.05 -5.6 -2.6 -5.6 -3.0 -5.25 L-3.35 -4.3 Q-3.35 -3.75 -3.0 -3.4 -2.6 -3.0 -2.05 -3.0 L-0.55 -3.1 Q0.4 -3.25 0.15 -3.9 L-0.8 -5.05" fill="#9f2020" fill-rule="evenodd" stroke="none"/>
    <path d="M4.8 -1.65 Q6.0 -1.0 6.85 -0.75 L9.25 -0.85 11.8 -1.25 Q12.8 -1.3 10.45 -0.6 L7.1 0.05 Q6.1 0.05 5.15 -0.5 4.2 -1.05 3.9 -1.7 L4.8 -1.65 M5.2 -4.7 Q3.5 -3.7 3.85 -4.35 L5.2 -6.05 Q6.15 -7.15 7.4 -6.9 8.65 -6.65 9.5 -5.85 L10.8 -4.05 Q11.3 -3.0 10.25 -4.0 L8.0 -5.35 Q6.85 -5.7 5.2 -4.7 M7.7 3.55 L5.7 3.15 3.7 1.85 Q2.5 0.8 2.85 0.8 L4.05 1.15 5.05 1.7 5.45 1.95 7.3 2.95 Q8.9 3.75 7.7 3.55 M-11.75 -6.1 L-10.8 -7.15 -9.35 -7.4 Q-8.5 -7.4 -7.5 -6.9 L-5.95 -5.75 Q-5.35 -5.1 -6.95 -5.75 -8.6 -6.45 -10.4 -5.4 -12.25 -4.35 -12.2 -4.85 L-11.75 -6.1 M-0.8 -5.05 L0.15 -3.9 Q0.4 -3.25 -0.55 -3.1 L-2.05 -3.0 Q-2.6 -3.0 -3.0 -3.4 -3.35 -3.75 -3.35 -4.3 L-3.0 -5.25 Q-2.6 -5.6 -2.05 -5.6 -1.5 -5.6 -0.8 -5.05" fill="#c42626" fill-rule="evenodd" stroke="none"/>
    <path d="M-1.0 -11.0 L-4.4 -11.35 Q-6.3 -11.7 -6.55 -13.1 L-6.45 -13.65 -6.45 -13.85 Q-6.25 -14.75 -3.3 -15.65 L-0.1 -16.05 -0.05 -15.95 Q-1.8 -15.25 -1.7 -14.2 L-1.7 -14.0 Q-8.7 -13.95 -1.0 -11.0 M-7.15 -11.2 L-6.75 -11.95 Q-5.7 -11.2 -3.75 -10.6 L-2.0 -10.15 -3.05 -9.1 Q-5.0 -10.5 -7.15 -11.2" fill="#beac96" fill-rule="evenodd" stroke="none"/>
    <path d="M11.0 -16.25 L14.85 -15.65 14.9 -15.65 16.95 -14.85 Q16.8 -11.05 4.15 -10.35 L3.85 -10.4 3.3 -10.45 0.75 -10.75 0.7 -10.75 -1.0 -11.0 Q-8.7 -13.95 -1.7 -14.0 -1.6 -12.9 0.6 -12.15 L2.95 -11.65 5.55 -11.5 9.1 -11.8 10.45 -12.15 11.35 -12.5 Q12.9 -13.2 12.8 -14.2 12.9 -15.3 11.0 -16.05 L11.0 -16.25 M2.55 -8.1 L1.55 -9.65 3.05 -9.5 5.8 -9.45 9.3 -9.55 9.7 -9.6 15.3 -10.6 Q17.5 -11.25 18.55 -12.05 21.15 -8.1 20.85 -4.15 L20.9 -4.05 Q20.6 -3.2 16.9 -1.85 L13.8 -0.95 Q14.1 -4.8 11.4 -9.0 L11.15 -9.4 10.65 -9.45 Q6.25 -9.85 2.55 -8.1" fill="#d9ceb7" fill-rule="evenodd" stroke="none"/>
    <path d="M9.0 -12.8 L10.15 -13.1 11.15 -13.5 10.9 -15.0 10.65 -15.1 10.55 -16.25 10.7 -16.15 11.0 -16.05 Q12.9 -15.3 12.8 -14.2 12.9 -13.2 11.35 -12.5 L10.45 -12.15 9.1 -11.8 5.55 -11.5 2.95 -11.65 0.6 -12.15 Q-1.6 -12.9 -1.7 -14.0 L-1.7 -14.2 Q-1.8 -15.25 -0.05 -15.95 L0.1 -16.05 -0.05 -16.05 -0.1 -16.05 -3.3 -15.65 Q-6.25 -14.75 -6.45 -13.85 L-6.45 -13.65 -6.55 -13.1 Q-6.3 -11.7 -4.4 -11.35 L-1.0 -11.0 0.7 -10.75 0.75 -10.75 3.3 -10.45 3.85 -10.4 4.15 -10.35 7.0 -10.1 Q9.15 -9.9 10.3 -10.1 L12.55 -10.5 Q13.75 -10.7 15.6 -11.5 17.45 -12.3 18.25 -13.15 L18.1 -13.55 18.05 -13.85 Q17.95 -14.35 16.95 -14.85 L14.9 -15.65 14.85 -15.65 11.0 -16.25 10.7 -16.25 10.55 -16.25 10.45 -18.6 10.5 -18.6 15.45 -17.55 Q20.2 -16.15 20.05 -13.9 L22.65 -5.05 22.9 -4.45 22.9 -4.3 22.9 -4.2 22.9 -4.1 Q23.15 -1.8 17.55 -0.35 L13.6 0.4 13.8 -0.95 16.9 -1.85 Q20.6 -3.2 20.9 -4.05 L20.85 -4.15 Q21.15 -8.1 18.55 -12.05 17.5 -11.25 15.3 -10.6 L9.7 -9.6 9.3 -9.55 5.8 -9.45 3.05 -9.5 1.55 -9.65 2.55 -8.1 1.45 -7.55 1.15 -7.75 Q0.1 -8.5 -1.2 -8.5 L-1.3 -8.55 -1.35 -8.5 -2.1 -8.4 -3.05 -9.1 -2.0 -10.15 -3.75 -10.6 Q-5.7 -11.2 -6.75 -11.95 L-7.15 -11.2 -8.8 -11.7 -8.45 -13.85 Q-8.65 -16.1 -3.85 -17.55 L-3.9 -17.55 -0.55 -18.2 0.15 -16.05 0.15 -14.9 0.5 -13.25 0.9 -13.1 2.8 -12.7 5.55 -12.5 9.0 -12.8" fill="#40362d" fill-rule="evenodd" stroke="none"/>
  </g>
</svg>
