<?xml version="1.0" encoding="UTF-8" standalone="no"?>
<svg xmlns:ffdec="https://www.free-decompiler.com/flash" xmlns:xlink="http://www.w3.org/1999/xlink" ffdec:objectType="shape" height="30.85px" width="41.2px" xmlns="http://www.w3.org/2000/svg">
  <g transform="matrix(1.0, 0.0, 0.0, 1.0, 30.55, 25.1)">
    <path d="M-22.95 -7.3 L-21.1 -5.45 -20.9 -5.45 Q-18.95 -4.6 -14.05 -4.6 -9.5 -4.6 -3.9 -6.25 -0.5 -7.3 2.25 -9.1 L6.35 -12.7 Q7.65 -13.55 8.6 -14.95 L8.2 -20.45 8.1 -21.25 Q1.1 -9.85 -12.5 -7.5 L-12.55 -7.5 Q-17.85 -6.65 -22.95 -7.35 L-24.3 -7.55 -28.1 -8.4 -25.7 -5.05 -25.65 -5.05 Q-21.45 2.2 -14.3 3.45 L-14.3 3.4 Q-5.55 4.7 1.0 0.85 L2.0 0.25 1.75 0.4 1.7 0.1 1.7 -1.15 Q1.55 -8.45 8.05 -8.45 L8.5 -8.4 8.65 -13.25 Q7.2 -11.15 3.7 -8.7 -3.75 -3.45 -14.4 -3.45 -18.4 -3.45 -20.5 -4.3 L-21.0 -4.15 Q-21.5 -4.15 -26.1 -7.9 L-24.3 -7.5 -22.95 -7.3 M7.6 -24.45 Q7.8 -24.8 8.2 -24.95 L8.55 -25.0 8.6 -25.0 8.75 -25.1 10.2 -18.35 Q11.05 -13.15 10.25 -5.65 L10.0 -5.05 9.8 -4.65 Q0.75 7.65 -14.6 5.4 -22.65 4.1 -27.4 -4.05 -29.45 -8.7 -30.55 -10.55 L-30.15 -10.9 -29.4 -10.95 Q-21.4 -8.15 -12.85 -9.45 1.1 -11.85 7.6 -24.45 M8.35 -6.8 L8.4 -7.3 Q5.1 -7.45 4.1 -6.15 L3.3 -3.6 Q2.9 -2.75 2.65 -0.2 5.7 -2.45 8.2 -5.85 L8.25 -5.9 8.35 -6.8" fill="#463624" fill-rule="evenodd" stroke="none"/>
    <path d="M-22.95 -7.35 Q-17.85 -6.65 -12.55 -7.5 L-12.5 -7.5 Q1.1 -9.85 8.1 -21.25 L8.2 -20.45 8.6 -14.95 Q7.65 -13.55 6.35 -12.7 L2.25 -9.1 Q-0.5 -7.3 -3.9 -6.25 -9.5 -4.6 -14.05 -4.6 -18.95 -4.6 -20.9 -5.45 L-21.1 -5.45 -22.95 -7.3 -22.95 -7.35" fill="#e5e5e5" fill-rule="evenodd" stroke="none"/>
    <path d="M-22.95 -7.3 L-24.3 -7.5 -26.1 -7.9 Q-21.5 -4.15 -21.0 -4.15 L-20.5 -4.3 Q-18.4 -3.45 -14.4 -3.45 -3.75 -3.45 3.7 -8.7 7.2 -11.15 8.65 -13.25 L8.5 -8.4 8.05 -8.45 Q1.55 -8.45 1.7 -1.15 L1.7 0.1 1.75 0.4 2.0 0.25 1.0 0.85 Q-5.55 4.7 -14.3 3.4 L-14.3 3.45 Q-21.45 2.2 -25.65 -5.05 L-25.7 -5.05 -28.1 -8.4 -24.3 -7.55 -22.95 -7.35 -22.95 -7.3" fill="#57352d" fill-rule="evenodd" stroke="none"/>
    <path d="M8.35 -6.8 L8.25 -5.9 8.2 -5.85 Q5.7 -2.45 2.65 -0.2 2.9 -2.75 3.3 -3.6 L4.1 -6.15 Q5.1 -7.45 8.4 -7.3 L8.35 -6.8" fill="#b45f50" fill-rule="evenodd" stroke="none"/>
  </g>
</svg>
