<?xml version="1.0" encoding="UTF-8" standalone="no"?>
<svg xmlns:ffdec="https://www.free-decompiler.com/flash" xmlns:xlink="http://www.w3.org/1999/xlink" ffdec:objectType="shape" height="30.85px" width="41.2px" xmlns="http://www.w3.org/2000/svg">
  <g transform="matrix(1.0, 0.0, 0.0, 1.0, 30.55, 25.1)">
    <path d="M-30.55 -10.55 L-30.15 -10.9 -29.4 -10.95 Q-21.4 -8.15 -12.85 -9.45 1.1 -11.85 7.6 -24.45 7.8 -24.8 8.2 -24.95 L8.55 -25.0 8.6 -25.0 8.75 -25.1 10.2 -18.35 Q11.05 -13.15 10.25 -5.65 L10.0 -5.05 9.8 -4.65 Q0.75 7.65 -14.6 5.4 -22.65 4.1 -27.4 -4.05 -29.45 -8.7 -30.55 -10.55 M8.6 -15.05 L8.2 -20.45 8.1 -21.25 Q1.1 -9.85 -12.5 -7.5 L-12.55 -7.5 Q-17.8 -6.65 -22.85 -7.35 L-23.6 -7.5 -23.9 -7.45 -24.3 -7.55 -28.1 -8.4 -26.95 -7.0 -26.4 -6.15 -25.7 -5.05 -25.65 -5.05 -25.6 -4.95 -24.9 -3.8 -24.9 -3.85 -24.7 -3.9 -20.65 -1.2 -17.9 -1.9 -17.5 -2.0 -15.4 -2.45 -15.25 -2.5 -14.35 -2.5 -14.25 -2.25 -14.3 -2.0 -14.35 -2.0 -19.3 -0.45 -19.8 1.05 -19.8 1.15 -19.85 1.3 -17.7 2.45 -14.3 3.45 -14.3 3.4 Q-5.55 4.7 1.0 0.85 L1.45 0.6 1.75 0.4 5.55 -2.8 6.15 -3.4 8.2 -5.85 8.25 -5.9 8.25 -5.95 8.5 -5.95 8.55 -6.75 Q7.6 -7.55 7.05 -7.55 4.8 -7.55 3.05 -6.75 L3.0 -6.7 2.95 -6.7 2.4 -6.35 1.35 -5.8 1.3 -5.8 1.2 -5.8 0.7 -5.8 Q0.6 -5.75 0.6 -6.0 0.6 -6.4 2.0 -7.05 L2.45 -7.25 2.5 -7.25 3.0 -7.45 3.95 -7.8 4.05 -7.85 4.2 -7.9 Q7.15 -8.9 7.35 -9.15 8.1 -10.25 8.65 -11.9 L8.65 -11.15 8.7 -11.95 8.7 -12.0 8.65 -14.15 8.55 -14.85 8.6 -14.95 8.6 -15.05 M1.45 0.6 L0.75 1.15 1.45 0.6 M-20.0 1.2 L-20.85 0.6 -20.9 0.15 -22.7 -1.3 -23.3 -1.7 -23.15 -1.5 -21.45 0.1 -20.0 1.2" fill="#463624" fill-rule="evenodd" stroke="none"/>
    <path d="M-24.9 -3.8 L-25.6 -4.95 -25.65 -5.05 -25.7 -5.05 -26.4 -6.15 -26.95 -7.0 -28.1 -8.4 -24.3 -7.55 -23.9 -7.45 -23.6 -7.5 -22.85 -7.35 Q-17.8 -6.65 -12.55 -7.5 L-12.5 -7.5 Q1.1 -9.85 8.1 -21.25 L8.2 -20.45 8.6 -15.05 8.55 -15.0 8.45 -14.85 8.55 -14.85 8.65 -14.15 8.7 -12.0 8.7 -11.95 8.65 -11.9 Q8.1 -10.25 7.35 -9.15 7.15 -8.9 4.2 -7.9 L4.05 -7.85 3.95 -7.8 3.0 -7.45 2.5 -7.25 2.45 -7.25 2.25 -7.25 2.0 -7.05 Q0.6 -6.4 0.6 -6.0 0.6 -5.75 0.7 -5.8 L1.2 -5.8 1.3 -5.8 1.35 -5.8 2.4 -6.35 2.95 -6.7 3.0 -6.7 3.05 -6.7 3.05 -6.75 Q4.8 -7.55 7.05 -7.55 7.6 -7.55 8.55 -6.75 L8.5 -5.95 8.25 -5.95 8.25 -5.9 8.2 -5.85 6.15 -3.4 5.55 -2.8 Q5.35 -6.05 2.75 -6.05 L0.3 -5.35 0.05 -5.4 -0.05 -5.7 Q-0.05 -6.4 4.0 -9.45 L4.95 -11.05 1.75 -9.2 Q-3.0 -7.15 -4.8 -6.7 -11.15 -5.2 -14.9 -5.2 L-23.4 -5.95 -26.15 -6.75 Q-22.6 -2.45 -17.3 -2.45 L-13.0 -2.7 -10.45 -2.6 -10.4 -2.35 Q-11.55 -1.6 -15.2 -0.05 -16.6 0.85 -17.1 2.65 L-17.7 2.45 -19.85 1.3 -19.8 1.15 -19.8 1.1 -19.8 1.05 -19.3 -0.45 -14.35 -2.0 -14.3 -2.0 -14.25 -2.25 -14.35 -2.5 -15.25 -2.5 -15.4 -2.45 -17.5 -2.0 -17.9 -1.9 -20.65 -1.2 -24.7 -3.9 -24.9 -3.85 -24.9 -3.8" fill="#e5e5e5" fill-rule="evenodd" stroke="none"/>
    <path d="M8.6 -15.05 L8.6 -14.95 8.55 -14.85 8.45 -14.85 8.55 -15.0 8.6 -15.05 M2.45 -7.25 L2.0 -7.05 2.25 -7.25 2.45 -7.25 M3.0 -6.7 L3.05 -6.75 3.05 -6.7 3.0 -6.7 M5.55 -2.8 L1.75 0.4 1.45 0.6 1.0 0.85 Q-5.55 4.7 -14.3 3.4 L-14.3 3.45 -17.7 2.45 -17.1 2.65 Q-16.6 0.85 -15.2 -0.05 -11.55 -1.6 -10.4 -2.35 L-10.45 -2.6 -13.0 -2.7 -17.3 -2.45 Q-22.6 -2.45 -26.15 -6.75 L-23.4 -5.95 -14.9 -5.2 Q-11.15 -5.2 -4.8 -6.7 -3.0 -7.15 1.75 -9.2 L4.95 -11.05 4.0 -9.45 Q-0.05 -6.4 -0.05 -5.7 L0.05 -5.4 0.3 -5.35 2.75 -6.05 Q5.35 -6.05 5.55 -2.8" fill="#f9f9f9" fill-rule="evenodd" stroke="none"/>
    <path d="M-19.8 1.15 L-19.8 1.05 -19.8 1.1 -19.8 1.15 M-20.0 1.2 L-21.45 0.1 -23.15 -1.5 -23.3 -1.7 -22.7 -1.3 -20.9 0.15 -20.85 0.6 -20.0 1.2" fill="#57352d" fill-rule="evenodd" stroke="none"/>
  </g>
</svg>
