<?xml version="1.0" encoding="UTF-8" standalone="no"?>
<svg xmlns:ffdec="https://www.free-decompiler.com/flash" xmlns:xlink="http://www.w3.org/1999/xlink" ffdec:objectType="shape" height="14.65px" width="27.85px" xmlns="http://www.w3.org/2000/svg">
  <g transform="matrix(1.0, 0.0, 0.0, 1.0, 18.6, 13.5)">
    <path d="M8.5 -10.8 Q9.25 -9.7 9.25 -7.25 9.25 -4.8 5.85 -2.25 1.35 1.1 -6.25 1.1 L-10.85 1.0 -10.9 1.0 -12.1 1.15 Q-19.0 1.15 -18.55 -4.45 L-18.45 -5.25 Q-17.8 -8.2 -11.65 -10.8 -5.35 -13.5 1.0 -13.5 6.75 -13.5 8.5 -10.8 M-15.25 -0.8 L-15.05 -0.7 -14.1 -0.3 Q-2.35 0.85 3.0 -2.3 7.35 -4.85 7.35 -7.6 7.35 -11.75 -0.25 -11.75 -8.05 -11.75 -13.3 -8.45 L-17.05 -5.65 -16.35 -4.7 -15.75 -3.95 Q-13.95 -5.65 -8.25 -5.9 L-7.0 -5.65 -6.9 -5.5 -11.25 -4.15 Q-12.15 -3.85 -14.0 -2.55 L-14.0 -2.5 -14.1 -2.3 -15.15 -1.0 -15.5 -0.9 -15.25 -0.8" fill="#463624" fill-rule="evenodd" stroke="none"/>
    <path d="M-15.15 -1.0 L-14.1 -2.3 -14.0 -2.5 -14.0 -2.55 Q-12.15 -3.85 -11.25 -4.15 L-6.9 -5.5 -7.0 -5.65 -8.25 -5.9 Q-13.95 -5.65 -15.75 -3.95 L-16.35 -4.7 -17.05 -5.65 -13.3 -8.45 Q-8.05 -11.75 -0.25 -11.75 7.35 -11.75 7.35 -7.6 7.35 -4.85 3.0 -2.3 -2.35 0.85 -14.1 -0.3 L-15.05 -0.7 -15.25 -0.8 -15.15 -1.0" fill="#e5e5e5" fill-rule="evenodd" stroke="none"/>
  </g>
</svg>
