<?xml version="1.0" encoding="UTF-8" standalone="no"?>
<svg xmlns:ffdec="https://www.free-decompiler.com/flash" xmlns:xlink="http://www.w3.org/1999/xlink" ffdec:objectType="shape" height="25.9px" width="35.65px" xmlns="http://www.w3.org/2000/svg">
  <g transform="matrix(1.0, 0.0, 0.0, 1.0, 23.8, 20.8)">
    <path d="M-16.05 -11.05 L-12.3 -13.65 Q-4.45 -18.75 1.0 -18.75 6.3 -18.75 8.9 -14.45 L9.95 -12.35 9.45 -12.65 Q8.85 -13.3 6.25 -13.3 L4.75 -13.25 Q-10.25 -7.65 -11.75 -7.65 -12.25 -7.65 -14.15 -9.45 L-16.05 -11.05" fill="#e5e5e5" fill-rule="evenodd" stroke="none"/>
    <path d="M-16.05 -11.05 L-14.15 -9.45 Q-12.25 -7.65 -11.75 -7.65 -10.25 -7.65 4.75 -13.25 L6.25 -13.3 Q8.85 -13.3 9.45 -12.65 L9.95 -12.35 8.9 -14.45 Q6.3 -18.75 1.0 -18.75 -4.45 -18.75 -12.3 -13.65 L-16.05 -11.05 -16.55 -10.7 -16.05 -11.05 M10.45 -10.8 L10.35 -10.8 Q9.05 -10.8 8.65 -11.4 8.3 -12.0 6.05 -12.0 2.4 -12.0 -4.2 -9.25 -10.75 -6.5 -11.6 -6.5 -13.45 -6.5 -16.9 -10.4 L-17.55 -9.85 -20.4 -7.25 Q-17.95 -5.45 -17.6 -2.15 -17.45 -0.25 -17.55 3.5 L-11.0 3.75 Q-4.55 3.75 0.0 2.65 L0.05 2.65 0.85 2.4 -0.05 2.65 -0.1 2.4 Q-0.1 1.95 0.65 1.55 1.4 1.2 1.4 0.85 0.65 0.65 0.0 0.1 -2.75 2.6 -5.25 2.6 -9.1 2.6 -9.1 -0.35 -9.1 -2.15 -7.5 -4.4 -5.0 -7.85 -0.25 -7.85 4.3 -7.85 7.0 -5.5 8.8 -3.95 9.0 -2.6 11.25 -5.7 10.6 -9.25 L10.45 -10.75 10.35 -11.25 10.45 -10.8 M11.85 -9.4 Q11.85 -4.25 9.75 -1.5 4.65 5.1 -11.1 5.1 L-18.95 5.05 -19.1 4.8 Q-18.9 4.4 -19.05 4.1 L-18.9 2.75 -18.8 0.25 Q-18.8 -6.25 -21.7 -6.25 -22.25 -6.25 -23.25 -5.4 -23.8 -5.6 -23.8 -6.2 -7.1 -20.8 2.6 -20.8 7.7 -20.8 10.3 -15.25 11.6 -12.45 11.85 -9.4 M5.7 0.35 L8.15 -1.6 Q7.8 -1.8 7.6 -2.3 L6.75 -4.05 Q5.0 -6.6 -0.25 -6.6 -6.1 -6.6 -7.65 -1.85 L-8.0 -0.6 Q-8.0 1.25 -5.85 1.25 -2.8 1.25 -0.55 -0.85 1.0 -2.3 1.6 -4.0 L2.0 -4.15 2.35 -3.8 2.05 -2.35 1.3 -1.15 1.2 -1.05 1.35 -1.1 1.7 -1.1 2.0 -1.05 3.65 -0.25 3.75 -0.1 3.9 0.2 3.9 0.3 4.0 1.0 3.9 1.3 4.1 1.2 5.7 0.35 M2.6 -4.45 L2.6 -3.1 2.25 -2.35 2.25 -2.7 2.35 -3.75 2.55 -3.8 2.6 -4.45" fill="#463624" fill-rule="evenodd" stroke="none"/>
    <path d="M0.0 2.65 Q-4.55 3.75 -11.0 3.75 L-17.55 3.5 Q-17.45 -0.25 -17.6 -2.15 -17.95 -5.45 -20.4 -7.25 L-17.55 -9.85 -16.9 -10.4 Q-13.45 -6.5 -11.6 -6.5 -10.75 -6.5 -4.2 -9.25 2.4 -12.0 6.05 -12.0 8.3 -12.0 8.65 -11.4 9.05 -10.8 10.35 -10.8 L10.45 -10.8 10.45 -10.75 10.6 -9.25 Q11.25 -5.7 9.0 -2.6 8.8 -3.95 7.0 -5.5 4.3 -7.85 -0.25 -7.85 -5.0 -7.85 -7.5 -4.4 -9.1 -2.15 -9.1 -0.35 -9.1 2.6 -5.25 2.6 -2.75 2.6 0.0 0.1 0.65 0.65 1.4 0.85 1.4 1.2 0.65 1.55 -0.1 1.95 -0.1 2.4 L-0.05 2.65 0.0 2.65" fill="#57352d" fill-rule="evenodd" stroke="none"/>
    <path d="M-7.65 -1.85 Q-6.1 -6.6 -0.25 -6.6 5.0 -6.6 6.75 -4.05 L7.6 -2.3 Q7.8 -1.8 8.15 -1.6 L5.7 0.35 5.75 -0.25 Q5.25 -4.85 2.1 -4.85 L0.4 -2.65 Q-1.3 -0.5 -4.25 -0.5 -6.55 -0.5 -7.65 -1.85 M1.7 -1.1 L1.35 -1.1 1.3 -1.15 2.05 -2.35 1.7 -1.1" fill="#b45f50" fill-rule="evenodd" stroke="none"/>
    <path d="M-7.65 -1.85 Q-6.55 -0.5 -4.25 -0.5 -1.3 -0.5 0.4 -2.65 L2.1 -4.85 Q5.25 -4.85 5.75 -0.25 L5.7 0.35 4.1 1.2 4.0 1.0 3.9 0.3 3.9 0.2 3.75 -0.1 3.65 -0.25 2.0 -1.05 1.7 -1.1 2.05 -2.35 2.35 -3.8 2.0 -4.15 1.6 -4.0 Q1.0 -2.3 -0.55 -0.85 -2.8 1.25 -5.85 1.25 -8.0 1.25 -8.0 -0.6 L-7.65 -1.85 M2.6 -4.45 L2.55 -3.8 2.35 -3.75 2.25 -2.7 2.25 -2.35 2.6 -3.1 2.6 -4.45" fill="#a05345" fill-rule="evenodd" stroke="none"/>
  </g>
</svg>
