<?xml version="1.0" encoding="UTF-8" standalone="no"?>
<svg xmlns:ffdec="https://www.free-decompiler.com/flash" xmlns:xlink="http://www.w3.org/1999/xlink" ffdec:objectType="shape" height="16.6px" width="36.9px" xmlns="http://www.w3.org/2000/svg">
  <g transform="matrix(1.0, 0.0, 0.0, 1.0, 28.15, 19.6)">
    <path d="M3.9 -19.4 L3.45 -19.15 Q8.2 -19.1 8.75 -11.9 5.7 -2.8 0.7 -3.0 -4.35 -3.25 -10.3 -4.5 -16.0 -5.7 -19.5 -7.35 -24.4 -7.55 -26.65 -8.95 L-28.15 -11.55 Q-18.45 -8.25 -8.7 -11.55 -1.95 -14.0 2.9 -19.4 L3.7 -19.5 Q4.6 -19.4 3.9 -19.4 M6.75 -12.15 Q6.75 -15.1 2.1 -16.1 0.75 -14.15 -3.4 -11.3 -7.35 -8.65 -12.35 -7.75 L-8.5 -6.85 Q-5.2 -5.95 -2.25 -5.55 L-1.1 -5.1 -0.95 -6.7 Q-0.75 -8.15 0.4 -10.45 1.55 -12.8 3.25 -12.75 L6.25 -12.25 6.75 -12.05 6.75 -12.15 M6.3 -10.65 L2.75 -10.9 Q1.5 -10.9 0.65 -8.25 -0.05 -6.2 0.3 -4.9 0.6 -5.25 2.05 -5.25 3.4 -5.25 5.15 -8.4 L6.35 -10.65 6.5 -11.05 6.3 -10.65" fill="#463624" fill-rule="evenodd" stroke="none"/>
    <path d="M6.35 -10.65 L5.15 -8.4 Q3.4 -5.25 2.05 -5.25 0.6 -5.25 0.3 -4.9 -0.05 -6.2 0.65 -8.25 1.5 -10.9 2.75 -10.9 L6.3 -10.65 6.35 -10.65" fill="#b45f50" fill-rule="evenodd" stroke="none"/>
    <path d="M6.75 -12.05 L6.25 -12.25 3.25 -12.75 Q1.55 -12.8 0.4 -10.45 -0.75 -8.15 -0.95 -6.7 L-1.1 -5.1 -2.25 -5.55 Q-5.2 -5.95 -8.5 -6.85 L-12.35 -7.75 Q-7.35 -8.65 -3.4 -11.3 0.75 -14.15 2.1 -16.1 6.75 -15.1 6.75 -12.15 L6.75 -12.05" fill="#57352d" fill-rule="evenodd" stroke="none"/>
  </g>
</svg>
