<?xml version="1.0" encoding="UTF-8" standalone="no"?>
<svg xmlns:ffdec="https://www.free-decompiler.com/flash" xmlns:xlink="http://www.w3.org/1999/xlink" ffdec:objectType="shape" height="7.85px" width="23.45px" xmlns="http://www.w3.org/2000/svg">
  <g transform="matrix(1.0, 0.0, 0.0, 1.0, 21.05, 7.85)">
    <path d="M0.35 -0.75 L-4.8 -1.35 -11.1 -2.0 Q-14.25 -2.0 -16.85 -1.0 -19.45 0.0 -20.1 0.0 L-20.55 -0.1 -20.75 -0.6 Q-20.75 -1.25 -16.95 -2.15 L-16.55 -2.25 Q-17.5 -3.15 -17.5 -5.3 L-20.9 -4.0 Q-21.05 -3.6 -21.05 -4.25 -21.05 -5.0 -16.85 -6.0 L-17.3 -5.9 Q-16.8 -6.45 -15.05 -6.7 L-10.65 -7.15 -7.6 -7.45 -4.75 -7.75 -3.0 -7.85 -0.25 -7.55 Q2.5 -6.85 2.4 -3.5 2.4 -0.75 0.35 -0.75 M1.5 -3.45 Q1.5 -4.65 1.05 -5.4 0.35 -4.8 -1.2 -4.8 L-3.75 -4.4 Q-4.8 -3.7 -4.85 -3.0 -4.9 -2.65 -5.7 -2.65 L-5.75 -2.6 -5.0 -2.45 0.9 -1.85 Q1.5 -1.85 1.5 -3.45 M0.3 -6.15 L0.65 -5.9 0.35 -6.15 -0.1 -6.4 -0.4 -6.35 -2.95 -6.6 Q-13.45 -6.6 -16.3 -5.25 -15.75 -4.15 -15.75 -3.35 L-15.75 -2.4 -10.6 -3.1 -7.1 -2.8 Q-7.0 -3.95 -5.25 -5.1 -3.3 -6.35 -0.75 -6.35 L0.3 -6.15" fill="#463624" fill-rule="evenodd" stroke="none"/>
    <path d="M1.5 -3.45 Q1.5 -1.85 0.9 -1.85 L-5.0 -2.45 -5.75 -2.6 -5.7 -2.65 Q-4.9 -2.65 -4.85 -3.0 -4.8 -3.7 -3.75 -4.4 L-1.2 -4.8 Q0.35 -4.8 1.05 -5.4 1.5 -4.65 1.5 -3.45" fill="#b45f50" fill-rule="evenodd" stroke="none"/>
    <path d="M0.35 -6.15 L0.3 -6.15 -0.75 -6.35 Q-3.3 -6.35 -5.25 -5.1 -7.0 -3.95 -7.1 -2.8 L-10.6 -3.1 -15.75 -2.4 -15.75 -3.35 Q-15.75 -4.15 -16.3 -5.25 -13.45 -6.6 -2.95 -6.6 L-0.4 -6.35 -0.1 -6.4 0.35 -6.15" fill="#57352d" fill-rule="evenodd" stroke="none"/>
  </g>
</svg>
