<?xml version="1.0" encoding="UTF-8" standalone="no"?>
<svg xmlns:ffdec="https://www.free-decompiler.com/flash" xmlns:xlink="http://www.w3.org/1999/xlink" ffdec:objectType="shape" height="162.6px" width="102.25px" xmlns="http://www.w3.org/2000/svg">
  <g transform="matrix(1.0, 0.0, 0.0, 1.0, 49.7, 121.7)">
    <path d="M-46.3 -17.3 Q-42.7 -14.9 -34.8 -12.6 -20.25 -8.3 0.65 -6.95 14.75 -6.05 26.2 -6.8 L26.25 -6.8 34.95 -5.1 Q43.6 -3.45 42.4 0.55 41.15 4.55 42.1 5.7 43.05 6.85 42.15 10.05 L42.15 10.0 41.0 13.5 38.65 18.55 35.65 23.5 35.65 23.55 Q33.5 27.05 30.45 29.65 27.4 32.25 23.7 34.05 L23.65 34.05 23.65 34.1 Q19.9 36.05 15.65 37.25 11.05 38.4 6.25 38.7 L6.2 38.7 Q1.5 39.15 -3.35 38.7 -7.8 38.1 -12.2 36.8 -16.4 35.5 -20.25 33.2 -24.15 30.9 -27.5 27.8 L-27.5 27.85 Q-31.0 24.6 -34.0 20.6 L-34.0 20.65 -37.85 14.8 -37.8 14.8 -38.6 13.4 -38.6 13.35 -40.9 8.8 -40.95 8.8 Q-42.35 5.65 -43.4 2.4 -44.45 -0.95 -45.1 -4.35 L-46.05 -11.3 -46.3 -17.3 M43.75 -9.35 L44.3 -9.5 45.75 -9.95 46.35 -10.15 46.7 -10.3 46.65 -9.75 43.75 -9.35 M1.45 -0.85 L1.6 -2.4 -11.2 -3.4 Q-25.8 -5.15 -35.95 -8.7 -41.45 -10.6 -44.0 -12.45 L-43.8 -8.2 Q-43.65 -5.75 -43.15 -3.25 L-41.95 1.55 -40.25 6.15 -38.6 9.45 -38.6 9.5 -38.05 10.5 -38.1 10.5 -35.4 14.75 Q-33.3 17.65 -30.85 20.1 L-30.85 20.05 Q-28.55 22.35 -25.8 24.15 -23.1 25.85 -20.15 26.95 L-20.2 26.95 Q-17.1 28.05 -14.0 28.65 L-7.3 29.0 -7.25 29.0 -0.7 28.3 Q2.25 27.6 4.9 26.35 7.5 25.2 9.65 23.5 11.75 21.75 13.25 19.35 L15.35 15.95 17.0 12.45 17.0 12.5 17.8 10.05 Q18.25 8.45 18.0 7.6 L15.25 7.4 Q8.25 6.7 2.2 4.25 L2.15 4.2 2.05 4.1 1.95 3.95 1.95 3.9 1.9 3.8 Q1.4 1.45 1.45 -0.85 M4.2 -2.35 Q4.2 -0.4 4.65 1.55 L4.7 1.65 4.7 1.7 4.8 1.85 4.9 1.95 4.95 2.0 Q10.8 4.35 17.55 5.1 L18.0 5.15 21.65 5.35 25.4 5.6 25.4 5.8 Q25.4 6.2 25.7 6.5 L26.4 6.8 27.1 6.55 27.4 5.85 27.4 2.85 27.1 2.15 Q26.8 1.85 26.4 1.85 25.95 1.85 25.7 2.2 25.4 2.45 25.4 2.9 L25.45 4.15 17.8 4.1 Q11.25 3.4 5.6 1.15 5.2 -0.65 5.2 -2.35 L5.2 -2.9 Q5.2 -4.75 6.15 -6.6 L4.9 -6.7 Q4.25 -4.85 4.2 -3.1 L4.2 -2.35 M25.25 -0.05 Q25.3 0.35 25.65 0.65 25.95 0.9 26.35 0.85 L27.05 0.5 27.25 -0.25 26.85 -3.3 26.45 -3.95 25.7 -4.1 Q25.3 -4.05 25.05 -3.7 24.8 -3.4 24.9 -2.95 L25.25 -0.05 M24.85 11.6 Q24.75 12.0 25.0 12.35 L25.65 12.75 26.4 12.6 26.8 11.95 27.2 8.9 27.0 8.2 Q26.7 7.85 26.3 7.8 25.9 7.75 25.6 8.05 25.25 8.3 25.2 8.7 L24.85 11.6 M25.45 13.7 L24.7 13.8 Q24.3 14.0 24.25 14.45 L23.4 17.25 Q23.25 17.6 23.45 18.0 L24.05 18.5 24.8 18.45 25.3 17.9 26.2 14.9 26.05 14.15 25.45 13.7 M22.9 19.45 Q22.5 19.6 22.4 20.0 L21.2 22.7 Q21.0 23.05 21.15 23.45 L21.7 24.0 22.45 24.05 Q22.8 23.9 23.0 23.55 L24.25 20.75 24.25 19.95 23.7 19.45 Q23.3 19.25 22.9 19.45 M17.25 29.75 L16.6 30.15 14.85 32.45 Q14.55 32.75 14.6 33.15 14.65 33.55 15.0 33.85 L15.7 34.05 16.4 33.7 18.2 31.35 18.4 30.6 18.0 29.95 17.25 29.75 M19.3 29.3 L19.95 28.85 21.6 26.25 21.7 25.5 21.2 24.9 20.45 24.8 19.85 25.25 18.3 27.75 Q18.05 28.1 18.15 28.5 18.2 28.9 18.55 29.15 L19.3 29.3 M-16.0 -88.85 L-19.25 -87.8 Q-25.55 -75.1 -32.3 -45.65 L-29.0 -33.4 -18.2 -46.5 Q-20.55 -66.3 -16.0 -88.85 M-13.45 -91.9 Q-19.05 -66.0 -15.2 -43.25 L-29.7 -28.15 -34.55 -42.25 Q-26.15 -76.05 -17.85 -90.65 L-13.45 -91.9" fill="#9f2020" fill-rule="evenodd" stroke="none"/>
    <path d="M-48.3 -18.95 L-47.95 -18.6 -46.3 -17.3 -46.05 -11.3 -45.1 -4.35 Q-44.45 -0.95 -43.4 2.4 -42.35 5.65 -40.95 8.8 L-40.9 8.8 -38.6 13.35 -38.6 13.4 -37.8 14.8 -37.85 14.8 -34.0 20.65 -34.0 20.6 Q-31.0 24.6 -27.5 27.85 L-27.5 27.8 Q-24.15 30.9 -20.25 33.2 -16.4 35.5 -12.2 36.8 -7.8 38.1 -3.35 38.7 1.5 39.15 6.2 38.7 L6.25 38.7 Q11.05 38.4 15.65 37.25 19.9 36.05 23.65 34.1 L23.65 34.05 23.7 34.05 Q27.4 32.25 30.45 29.65 33.5 27.05 35.65 23.55 L35.65 23.5 38.65 18.55 41.0 13.5 42.15 10.0 42.15 10.05 Q43.05 6.85 42.1 5.7 41.15 4.55 42.4 0.55 43.6 -3.45 34.95 -5.1 L26.25 -6.8 36.5 -7.9 43.75 -9.35 46.65 -9.75 46.7 -10.3 48.4 -11.0 48.9 -11.25 48.6 -9.4 48.6 -9.45 47.35 -2.45 45.85 4.15 44.1 10.6 44.05 10.6 42.85 14.2 42.85 14.25 40.4 19.5 37.35 24.6 Q35.0 28.35 31.75 31.15 28.5 33.95 24.55 35.85 20.6 37.9 16.2 39.15 L16.15 39.2 Q11.35 40.4 6.35 40.7 1.5 41.15 -3.55 40.7 -8.2 40.1 -12.75 38.7 L-12.8 38.7 Q-17.2 37.3 -21.25 34.9 -25.35 32.5 -28.85 29.3 -32.5 25.9 -35.6 21.8 L-39.55 15.85 -39.55 15.8 -40.35 14.35 -42.75 9.6 -42.75 9.65 -45.3 3.0 Q-46.35 -0.45 -47.05 -3.95 -47.8 -7.55 -48.05 -11.15 -48.35 -14.95 -48.3 -18.75 L-48.3 -18.95 M-16.8 -93.05 L-15.65 -93.4 -10.75 -94.75 -11.1 -93.1 Q-17.2 -66.35 -13.9 -43.05 L-13.85 -42.55 -30.05 -25.6 -31.9 -29.75 -32.75 -31.7 -37.45 -42.1 -37.35 -42.45 Q-27.95 -77.3 -19.4 -92.05 L-19.2 -92.4 -16.8 -93.05 M-13.45 -91.9 L-17.85 -90.65 Q-26.15 -76.05 -34.55 -42.25 L-29.7 -28.15 -15.2 -43.25 Q-19.05 -66.0 -13.45 -91.9" fill="#532222" fill-rule="evenodd" stroke="none"/>
    <path d="M20.9 -112.1 Q17.2 -114.9 12.95 -116.8 8.65 -118.7 4.45 -119.35 0.25 -120.05 -4.05 -119.2 -8.2 -118.4 -11.8 -116.1 L-15.25 -113.45 -15.2 -113.45 -18.45 -110.15 Q-21.0 -107.2 -22.8 -103.95 -24.95 -100.2 -26.45 -96.05 L-29.75 -86.85 -32.0 -80.3 -32.0 -80.35 -34.3 -73.45 -36.8 -66.3 Q-38.1 -62.65 -38.9 -57.95 -39.45 -54.95 -40.5 -51.05 L-41.2 -48.6 -41.15 -48.65 -42.6 -42.85 -44.5 -34.5 Q-44.95 -32.3 -47.5 -22.85 L-47.55 -22.8 -47.6 -22.7 -47.65 -22.5 -47.7 -22.35 -47.7 -22.25 Q-47.7 -21.2 -46.55 -20.05 -43.6 -17.25 -34.25 -14.5 -19.85 -10.3 0.8 -8.95 21.4 -7.6 36.2 -9.9 43.8 -11.05 47.55 -12.8 L47.5 -12.8 Q49.6 -13.85 47.7 -18.5 L48.6 -40.05 48.3 -48.25 48.3 -48.3 48.3 -48.8 47.65 -56.2 46.6 -63.65 45.05 -70.85 43.0 -77.6 43.0 -77.65 40.65 -84.15 37.85 -90.3 34.65 -96.1 34.65 -96.05 32.85 -98.95 32.9 -98.95 Q30.25 -102.8 27.25 -106.2 24.55 -109.35 20.9 -112.1 M-48.3 -18.95 Q-49.85 -20.7 -49.7 -22.4 L-49.6 -23.0 -47.75 -28.2 Q-46.0 -33.2 -45.75 -36.2 -45.55 -39.2 -44.7 -42.7 L-43.1 -49.15 -42.45 -51.55 -40.35 -59.35 -38.2 -66.9 -36.05 -74.1 -33.9 -80.95 -31.65 -87.5 -28.35 -96.75 Q-26.75 -101.1 -24.55 -104.95 -22.6 -108.4 -19.95 -111.45 L-16.55 -114.95 -12.9 -117.75 -12.9 -117.8 Q-9.0 -120.3 -4.45 -121.15 L5.0 -121.5 Q9.7 -120.9 14.05 -118.95 18.75 -116.85 22.7 -113.5 25.95 -110.75 28.75 -107.5 31.85 -104.0 34.55 -100.05 L36.35 -97.1 39.65 -91.2 42.5 -84.9 44.9 -78.25 47.0 -71.35 48.55 -64.0 49.65 -56.4 50.3 -48.95 50.3 -48.9 50.3 -48.35 50.3 -48.3 50.85 -40.2 51.3 -32.5 52.25 -17.55 Q52.6 -16.65 52.55 -15.65 52.5 -13.2 48.9 -11.25 L48.4 -11.0 46.7 -10.3 46.35 -10.15 45.75 -9.95 44.3 -9.5 43.75 -9.35 36.5 -7.9 26.25 -6.8 26.2 -6.8 Q14.75 -6.05 0.65 -6.95 -20.25 -8.3 -34.8 -12.6 -42.7 -14.9 -46.3 -17.3 L-47.95 -18.6 -48.3 -18.95" fill="#40362d" fill-rule="evenodd" stroke="none"/>
    <path d="M7.9 -75.45 L9.15 -79.3 8.55 -79.25 1.2 -79.0 7.7 -83.15 Q8.95 -81.65 9.65 -79.6 11.1 -75.45 8.45 -72.65 4.95 -68.95 4.45 -64.4 4.25 -62.55 5.2 -62.75 6.35 -62.95 8.7 -65.9 11.2 -69.05 13.8 -70.45 16.3 -71.85 17.5 -70.85 20.45 -68.35 12.2 -56.15 3.95 -43.95 7.65 -43.05 10.75 -42.3 20.2 -48.9 23.95 -51.5 25.9 -50.65 27.55 -49.85 27.5 -46.8 27.4 -43.95 25.95 -40.8 24.4 -37.45 22.2 -35.9 12.35 -29.95 7.55 -26.6 -1.25 -20.35 5.45 -19.9 13.9 -19.3 18.65 -17.8 23.7 -16.2 21.7 -14.4 18.95 -11.9 -0.8 -11.65 -32.55 -16.4 -24.35 -18.9 -16.2 -21.45 -15.7 -23.45 -15.25 -25.5 -15.5 -26.45 -15.75 -27.35 -17.05 -27.65 -19.25 -28.15 -22.25 -30.5 L-11.45 -39.5 Q-13.8 -56.45 -9.7 -80.05 L-9.1 -76.7 -9.1 -76.6 Q-1.45 -74.75 7.9 -75.45 M-3.25 -79.3 L-9.2 -80.4 -9.6 -80.5 -8.35 -87.15 -3.25 -79.3 M-32.25 -23.5 Q-31.8 -23.05 -31.8 -22.4 -31.8 -21.8 -32.25 -21.35 -32.7 -20.9 -33.3 -20.9 -33.95 -20.9 -34.4 -21.35 L-34.6 -21.65 -34.8 -22.4 Q-34.8 -23.05 -34.4 -23.45 L-34.35 -23.5 -34.3 -23.55 Q-33.9 -23.9 -33.3 -23.9 L-32.85 -23.85 -32.25 -23.5" fill="#f2eee6" fill-rule="evenodd" stroke="none"/>
    <path d="M1.45 -0.85 Q1.4 1.45 1.9 3.8 L1.95 3.9 1.95 3.95 2.05 4.1 2.15 4.2 2.2 4.25 Q8.25 6.7 15.25 7.4 L18.0 7.6 Q18.25 8.45 17.8 10.05 L17.0 12.5 17.0 12.45 15.35 15.95 13.25 19.35 Q11.75 21.75 9.65 23.5 7.5 25.2 4.9 26.35 2.25 27.6 -0.7 28.3 L-7.25 29.0 -7.3 29.0 -14.0 28.65 Q-17.1 28.05 -20.2 26.95 L-20.15 26.95 Q-23.1 25.85 -25.8 24.15 -28.55 22.35 -30.85 20.05 L-30.85 20.1 Q-33.3 17.65 -35.4 14.75 L-38.1 10.5 -38.05 10.5 -38.6 9.5 -38.6 9.45 -40.25 6.15 -41.95 1.55 -43.15 -3.25 Q-43.65 -5.75 -43.8 -8.2 L-44.0 -12.45 Q-41.45 -10.6 -35.95 -8.7 -25.8 -5.15 -11.2 -3.4 L1.6 -2.4 1.45 -0.85 M-16.0 -88.85 Q-20.55 -66.3 -18.2 -46.5 L-29.0 -33.4 -32.3 -45.65 Q-25.55 -75.1 -19.25 -87.8 L-16.0 -88.85" fill="#c42626" fill-rule="evenodd" stroke="none"/>
    <path d="M25.25 -0.05 L24.9 -2.95 Q24.8 -3.4 25.05 -3.7 25.3 -4.05 25.7 -4.1 L26.45 -3.95 26.85 -3.3 27.25 -0.25 27.05 0.5 26.35 0.85 Q25.95 0.9 25.65 0.65 25.3 0.35 25.25 -0.05 M4.2 -2.35 L4.2 -3.1 Q4.25 -4.85 4.9 -6.7 L6.15 -6.6 Q5.2 -4.75 5.2 -2.9 L5.2 -2.35 Q5.2 -0.65 5.6 1.15 11.25 3.4 17.8 4.1 L25.45 4.15 25.4 2.9 Q25.4 2.45 25.7 2.2 25.95 1.85 26.4 1.85 26.8 1.85 27.1 2.15 L27.4 2.85 27.4 5.85 27.1 6.55 26.4 6.8 25.7 6.5 Q25.4 6.2 25.4 5.8 L25.4 5.6 21.65 5.35 18.0 5.15 17.55 5.1 Q10.8 4.35 4.95 2.0 L4.9 1.95 4.8 1.85 4.7 1.7 4.7 1.65 4.65 1.55 Q4.2 -0.4 4.2 -2.35 M19.3 29.3 L18.55 29.15 Q18.2 28.9 18.15 28.5 18.05 28.1 18.3 27.75 L19.85 25.25 20.45 24.8 21.2 24.9 21.7 25.5 21.6 26.25 19.95 28.85 19.3 29.3 M17.25 29.75 L18.0 29.95 18.4 30.6 18.2 31.35 16.4 33.7 15.7 34.05 15.0 33.85 Q14.65 33.55 14.6 33.15 14.55 32.75 14.85 32.45 L16.6 30.15 17.25 29.75 M22.9 19.45 Q23.3 19.25 23.7 19.45 L24.25 19.95 24.25 20.75 23.0 23.55 Q22.8 23.9 22.45 24.05 L21.7 24.0 21.15 23.45 Q21.0 23.05 21.2 22.7 L22.4 20.0 Q22.5 19.6 22.9 19.45 M25.45 13.7 L26.05 14.15 26.2 14.9 25.3 17.9 24.8 18.45 24.05 18.5 23.45 18.0 Q23.25 17.6 23.4 17.25 L24.25 14.45 Q24.3 14.0 24.7 13.8 L25.45 13.7 M24.85 11.6 L25.2 8.7 Q25.25 8.3 25.6 8.05 25.9 7.75 26.3 7.8 26.7 7.85 27.0 8.2 L27.2 8.9 26.8 11.95 26.4 12.6 25.65 12.75 25.0 12.35 Q24.75 12.0 24.85 11.6" fill="#741818" fill-rule="evenodd" stroke="none"/>
    <path d="M20.9 -112.1 Q24.55 -109.35 27.25 -106.2 30.25 -102.8 32.9 -98.95 L32.85 -98.95 34.65 -96.05 34.65 -96.1 37.85 -90.3 40.65 -84.15 43.0 -77.65 43.0 -77.6 45.05 -70.85 46.6 -63.65 47.65 -56.2 48.3 -48.8 48.3 -48.3 48.3 -48.25 48.6 -40.05 47.7 -18.5 Q49.6 -13.85 47.5 -12.8 L47.55 -12.8 Q43.8 -11.05 36.2 -9.9 21.4 -7.6 0.8 -8.95 -19.85 -10.3 -34.25 -14.5 -43.6 -17.25 -46.55 -20.05 -47.7 -21.2 -47.7 -22.25 L-47.7 -22.35 -47.65 -22.5 -47.6 -22.7 -47.55 -22.8 -47.5 -22.85 Q-44.95 -32.3 -44.5 -34.5 L-42.6 -42.85 -41.15 -48.65 -41.2 -48.6 -40.5 -51.05 Q-39.45 -54.95 -38.9 -57.95 -38.1 -62.65 -36.8 -66.3 L-34.3 -73.45 -32.0 -80.35 -32.0 -80.3 -29.75 -86.85 -26.45 -96.05 Q-24.95 -100.2 -22.8 -103.95 -21.0 -107.2 -18.45 -110.15 L-15.2 -113.45 -15.25 -113.45 -11.8 -116.1 Q-8.2 -118.4 -4.05 -119.2 0.25 -120.05 4.45 -119.35 8.65 -118.7 12.95 -116.8 17.2 -114.9 20.9 -112.1 M1.2 -79.0 L-3.25 -79.3 -8.35 -87.15 -9.6 -80.5 -9.8 -80.55 -9.7 -80.05 Q-13.8 -56.45 -11.45 -39.5 L-22.25 -30.5 Q-19.25 -28.15 -17.05 -27.65 -15.75 -27.35 -15.5 -26.45 -15.25 -25.5 -15.7 -23.45 -16.2 -21.45 -24.35 -18.9 -32.55 -16.4 -0.8 -11.65 18.95 -11.9 21.7 -14.4 23.7 -16.2 18.65 -17.8 13.9 -19.3 5.45 -19.9 -1.25 -20.35 7.55 -26.6 12.35 -29.95 22.2 -35.9 24.4 -37.45 25.95 -40.8 27.4 -43.95 27.5 -46.8 27.55 -49.85 25.9 -50.65 23.95 -51.5 20.2 -48.9 10.75 -42.3 7.65 -43.05 3.95 -43.95 12.2 -56.15 20.45 -68.35 17.5 -70.85 16.3 -71.85 13.8 -70.45 11.2 -69.05 8.7 -65.9 6.35 -62.95 5.2 -62.75 4.25 -62.55 4.45 -64.4 4.95 -68.95 8.45 -72.65 11.1 -75.45 9.65 -79.6 8.95 -81.65 7.7 -83.15 L1.2 -79.0 M-15.65 -93.4 L-14.05 -97.95 -14.05 -98.0 -12.8 -101.45 -12.65 -101.95 -13.6 -102.3 -13.75 -101.8 -15.0 -98.3 -16.8 -93.05 -19.2 -92.4 -19.4 -92.05 Q-27.95 -77.3 -37.35 -42.45 L-37.45 -42.1 -32.75 -31.7 -34.05 -24.8 Q-34.65 -24.65 -35.1 -24.2 -35.8 -23.45 -35.8 -22.4 -35.8 -21.35 -35.1 -20.65 L-34.85 -20.4 -35.8 -15.0 -34.25 -14.5 -33.45 -19.9 -33.3 -19.9 Q-32.25 -19.9 -31.55 -20.6 L-31.5 -20.65 Q-30.8 -21.35 -30.8 -22.4 -30.8 -23.45 -31.55 -24.2 -32.05 -24.7 -32.7 -24.85 L-31.9 -29.75 -30.05 -25.6 -13.85 -42.55 -13.9 -43.05 Q-17.2 -66.35 -11.1 -93.1 L-10.75 -94.75 -15.65 -93.4" fill="#d9ceb7" fill-rule="evenodd" stroke="none"/>
    <path d="M1.2 -79.0 L8.55 -79.25 9.15 -79.3 7.9 -75.45 8.1 -78.2 Q3.7 -77.85 -0.3 -78.05 L-2.5 -78.25 -8.9 -79.3 -9.1 -76.7 -9.7 -80.05 -9.8 -80.55 -9.6 -80.5 -9.2 -80.4 -3.25 -79.3 1.2 -79.0" fill="#3c4617" fill-rule="evenodd" stroke="none"/>
    <path d="M-9.1 -76.7 L-8.9 -79.3 -2.5 -78.25 -0.3 -78.05 Q3.7 -77.85 8.1 -78.2 L7.9 -75.45 Q-1.45 -74.75 -9.1 -76.6 L-9.1 -76.7" fill="#7d9432" fill-rule="evenodd" stroke="none"/>
    <path d="M-16.8 -93.05 L-15.0 -98.3 -13.75 -101.8 -13.6 -102.3 -12.65 -101.95 -12.8 -101.45 -14.05 -98.0 -14.05 -97.95 -15.65 -93.4 -16.8 -93.05 M-31.9 -29.75 L-32.7 -24.85 Q-32.05 -24.7 -31.55 -24.2 -30.8 -23.45 -30.8 -22.4 -30.8 -21.35 -31.5 -20.65 L-31.55 -20.6 Q-32.25 -19.9 -33.3 -19.9 L-33.45 -19.9 -34.25 -14.5 -35.8 -15.0 -34.85 -20.4 -35.1 -20.65 Q-35.8 -21.35 -35.8 -22.4 -35.8 -23.45 -35.1 -24.2 -34.65 -24.65 -34.05 -24.8 L-32.75 -31.7 -31.9 -29.75 M-32.25 -23.5 L-32.85 -23.85 -33.3 -23.9 Q-33.9 -23.9 -34.3 -23.55 L-34.35 -23.5 -34.4 -23.45 Q-34.8 -23.05 -34.8 -22.4 L-34.6 -21.65 -34.4 -21.35 Q-33.95 -20.9 -33.3 -20.9 -32.7 -20.9 -32.25 -21.35 -31.8 -21.8 -31.8 -22.4 -31.8 -23.05 -32.25 -23.5" fill="#5e4f42" fill-rule="evenodd" stroke="none"/>
  </g>
</svg>
