<?xml version="1.0" encoding="UTF-8" standalone="no"?>
<svg xmlns:ffdec="https://www.free-decompiler.com/flash" xmlns:xlink="http://www.w3.org/1999/xlink" ffdec:objectType="shape" height="12.5px" width="32.3px" xmlns="http://www.w3.org/2000/svg">
  <g transform="matrix(1.0, 0.0, 0.0, 1.0, 9.35, -46.05)">
    <path d="M19.25 47.9 L11.3 47.9 Q11.3 50.3 12.45 52.0 13.6 53.7 15.25 53.75 16.9 53.7 18.05 52.0 19.2 50.3 19.25 47.9 19.2 50.3 18.05 52.0 16.9 53.7 15.25 53.75 13.6 53.7 12.45 52.0 11.3 50.3 11.3 47.9 L19.25 47.9 M1.25 48.6 L1.2 47.9 -5.7 47.9 -5.7 48.6 Q-5.7 50.75 -4.7 52.25 -3.7 53.75 -2.25 53.8 -0.8 53.75 0.2 52.25 1.2 50.75 1.25 48.6 1.2 50.75 0.2 52.25 -0.8 53.75 -2.25 53.8 -3.7 53.75 -4.7 52.25 -5.7 50.75 -5.7 48.6 L-5.7 47.9 1.2 47.9 1.25 48.6 M16.1 46.05 Q19.1 46.15 21.05 47.25 22.95 48.35 22.95 51.35 22.95 54.35 20.9 56.45 18.75 58.5 15.8 58.55 12.8 58.5 10.65 56.45 8.5 54.35 7.0 51.3 5.5 48.2 9.3 47.05 13.05 45.9 16.1 46.05 M4.65 51.3 Q3.35 54.35 1.45 56.45 -0.45 58.5 -3.05 58.55 -5.65 58.5 -7.5 56.45 -9.35 54.35 -9.35 51.35 -9.35 48.35 -7.65 47.25 -5.95 46.15 -3.3 46.05 -0.7 45.9 2.65 47.05 5.95 48.2 4.65 51.3" fill="#e79d5a" fill-rule="evenodd" stroke="none"/>
    <path d="M1.25 48.6 Q1.2 50.75 0.2 52.25 -0.8 53.75 -2.25 53.8 -3.7 53.75 -4.7 52.25 -5.7 50.75 -5.7 48.6 L-5.7 47.9 1.2 47.9 1.25 48.6 M19.25 47.9 Q19.2 50.3 18.05 52.0 16.9 53.7 15.25 53.75 13.6 53.7 12.45 52.0 11.3 50.3 11.3 47.9 L19.25 47.9 Z" fill="none" stroke="#000000" stroke-linecap="round" stroke-linejoin="round" stroke-width="3.5"/>
  </g>
</svg>
