<?xml version="1.0" encoding="UTF-8" standalone="no"?>
<svg xmlns:ffdec="https://www.free-decompiler.com/flash" xmlns:xlink="http://www.w3.org/1999/xlink" ffdec:objectType="shape" height="12.5px" width="32.3px" xmlns="http://www.w3.org/2000/svg">
  <g transform="matrix(1.0, 0.0, 0.0, 1.0, 9.35, -46.05)">
    <path d="M1.25 48.9 L1.2 48.4 -5.7 48.4 -5.7 48.9 Q-5.7 50.35 -4.7 51.35 -3.65 52.35 -2.25 52.4 -0.8 52.35 0.2 51.35 1.2 50.35 1.25 48.9 1.2 50.35 0.2 51.35 -0.8 52.35 -2.25 52.4 -3.65 52.35 -4.7 51.35 -5.7 50.35 -5.7 48.9 L-5.7 48.4 1.2 48.4 1.25 48.9 M19.3 48.4 L11.3 48.4 Q11.3 50.05 12.45 51.2 13.65 52.35 15.3 52.35 16.9 52.35 18.1 51.2 19.25 50.05 19.3 48.4 19.25 50.05 18.1 51.2 16.9 52.35 15.3 52.35 13.65 52.35 12.45 51.2 11.3 50.05 11.3 48.4 L19.3 48.4 M16.1 46.05 Q19.1 46.15 21.05 47.25 22.95 48.35 22.95 51.35 22.95 54.35 20.9 56.45 18.75 58.5 15.8 58.55 12.8 58.5 10.65 56.45 8.5 54.35 7.0 51.3 5.5 48.2 9.3 47.05 13.05 45.9 16.1 46.05 M4.65 51.3 Q3.35 54.35 1.45 56.45 -0.45 58.5 -3.05 58.55 -5.65 58.5 -7.5 56.45 -9.35 54.35 -9.35 51.35 -9.35 48.35 -7.65 47.25 -5.95 46.15 -3.3 46.05 -0.7 45.9 2.65 47.05 5.95 48.2 4.65 51.3" fill="#e79d5a" fill-rule="evenodd" stroke="none"/>
    <path d="M19.3 48.4 Q19.25 50.05 18.1 51.2 16.9 52.35 15.3 52.35 13.65 52.35 12.45 51.2 11.3 50.05 11.3 48.4 L19.3 48.4 M1.25 48.9 Q1.2 50.35 0.2 51.35 -0.8 52.35 -2.25 52.4 -3.65 52.35 -4.7 51.35 -5.7 50.35 -5.7 48.9 L-5.7 48.4 1.2 48.4 1.25 48.9 Z" fill="none" stroke="#000000" stroke-linecap="round" stroke-linejoin="round" stroke-width="3.5"/>
  </g>
</svg>
