<?xml version="1.0" encoding="UTF-8" standalone="no"?>
<svg xmlns:ffdec="https://www.free-decompiler.com/flash" xmlns:xlink="http://www.w3.org/1999/xlink" ffdec:objectType="shape" height="12.5px" width="32.3px" xmlns="http://www.w3.org/2000/svg">
  <g transform="matrix(1.0, 0.0, 0.0, 1.0, 9.35, -46.05)">
    <path d="M11.05 48.75 L20.2 48.1 11.05 48.75 M16.1 46.05 Q19.1 46.15 21.05 47.25 22.95 48.35 22.95 51.35 22.95 54.35 20.9 56.45 18.75 58.5 15.8 58.55 12.8 58.5 10.65 56.45 8.5 54.35 7.0 51.3 5.5 48.2 9.3 47.05 13.05 45.9 16.1 46.05 M4.65 51.3 Q3.35 54.35 1.45 56.45 -0.45 58.5 -3.05 58.55 -5.65 58.5 -7.5 56.45 -9.35 54.35 -9.35 51.35 -9.35 48.35 -7.65 47.25 -5.95 46.15 -3.3 46.05 -0.7 45.9 2.65 47.05 5.95 48.2 4.65 51.3 M-5.8 49.2 L1.25 48.95 -5.8 49.2" fill="#e79d5a" fill-rule="evenodd" stroke="none"/>
    <path d="M20.2 48.1 L11.05 48.75 M1.25 48.95 L-5.8 49.2" fill="none" stroke="#333333" stroke-linecap="round" stroke-linejoin="round" stroke-width="2.0"/>
  </g>
</svg>
