<?xml version="1.0" encoding="UTF-8" standalone="no"?>
<svg xmlns:ffdec="https://www.free-decompiler.com/flash" xmlns:xlink="http://www.w3.org/1999/xlink" ffdec:objectType="shape" height="18.4px" width="32.4px" xmlns="http://www.w3.org/2000/svg">
  <g transform="matrix(1.0, 0.0, 0.0, 1.0, 9.35, -40.15)">
    <path d="M13.2 43.0 L12.2 43.95 Q11.6 44.65 11.3 45.55 10.9 46.65 10.9 48.0 10.9 50.35 12.2 52.05 13.6 53.7 15.5 53.7 17.4 53.7 18.75 52.05 20.1 50.35 20.1 48.0 20.1 45.6 18.75 43.95 17.4 42.25 15.5 42.25 14.25 42.25 13.2 43.0 14.25 42.25 15.5 42.25 17.4 42.25 18.75 43.95 20.1 45.6 20.1 48.0 20.1 50.35 18.75 52.05 17.4 53.7 15.5 53.7 13.6 53.7 12.2 52.05 10.9 50.35 10.9 48.0 10.9 46.65 11.3 45.55 11.6 44.65 12.2 43.95 L13.2 43.0 M17.3 40.55 Q20.1 41.9 21.6 44.85 23.15 47.8 23.05 51.1 22.95 54.35 20.9 56.45 18.75 58.5 15.8 58.55 12.8 58.55 10.85 56.25 8.85 53.95 8.1 50.0 7.3 46.05 10.9 42.65 14.45 39.2 17.3 40.55 M4.2 50.15 Q3.35 54.3 1.45 56.4 -0.45 58.5 -3.05 58.55 -5.65 58.5 -7.5 56.45 -9.35 54.35 -9.35 51.35 -9.35 48.35 -8.5 46.4 -7.7 44.45 -5.2 42.3 -2.75 40.1 1.15 43.05 5.05 45.95 4.2 50.15 M-6.05 45.25 L-6.85 46.7 Q-7.2 47.65 -7.2 48.8 -7.2 50.85 -6.05 52.3 -4.85 53.75 -3.2 53.75 -1.55 53.75 -0.4 52.3 0.8 50.85 0.8 48.8 0.8 46.7 -0.4 45.25 -1.55 43.8 -3.2 43.8 -4.3 43.8 -5.2 44.45 L-6.05 45.25 -5.2 44.45 Q-4.3 43.8 -3.2 43.8 -1.55 43.8 -0.4 45.25 0.8 46.7 0.8 48.8 0.8 50.85 -0.4 52.3 -1.55 53.75 -3.2 53.75 -4.85 53.75 -6.05 52.3 -7.2 50.85 -7.2 48.8 -7.2 47.65 -6.85 46.7 L-6.05 45.25" fill="#e79d5a" fill-rule="evenodd" stroke="none"/>
    <path d="M13.2 43.0 Q14.25 42.25 15.5 42.25 17.4 42.25 18.75 43.95 20.1 45.6 20.1 48.0 20.1 50.35 18.75 52.05 17.4 53.7 15.5 53.7 13.6 53.7 12.2 52.05 10.9 50.35 10.9 48.0 10.9 46.65 11.3 45.55 11.6 44.65 12.2 43.95 L13.2 43.0 M-6.05 45.25 L-5.2 44.45 Q-4.3 43.8 -3.2 43.8 -1.55 43.8 -0.4 45.25 0.8 46.7 0.8 48.8 0.8 50.85 -0.4 52.3 -1.55 53.75 -3.2 53.75 -4.85 53.75 -6.05 52.3 -7.2 50.85 -7.2 48.8 -7.2 47.65 -6.85 46.7 L-6.05 45.25 Z" fill="none" stroke="#000000" stroke-linecap="round" stroke-linejoin="round" stroke-width="3.5"/>
  </g>
</svg>
