<?xml version="1.0" encoding="UTF-8" standalone="no"?>
<svg xmlns:ffdec="https://www.free-decompiler.com/flash" xmlns:xlink="http://www.w3.org/1999/xlink" ffdec:objectType="shape" height="18.25px" width="32.3px" xmlns="http://www.w3.org/2000/svg">
  <g transform="matrix(1.0, 0.0, 0.0, 1.0, 9.35, -40.3)">
    <path d="M0.7 43.0 L0.85 43.3 1.1 44.6 Q1.3 47.05 1.1 49.7 1.0 51.1 0.1 52.2 L-1.0 53.25 Q-2.7 54.35 -4.1 52.9 -5.05 52.0 -5.4 50.6 -6.0 48.45 -5.2 47.25 L0.3 42.95 0.7 43.0 0.3 42.95 -5.2 47.25 Q-6.0 48.45 -5.4 50.6 -5.05 52.0 -4.1 52.9 -2.7 54.35 -1.0 53.25 L0.1 52.2 Q1.0 51.1 1.1 49.7 1.3 47.05 1.1 44.6 L0.85 43.3 0.7 43.0 M1.8 40.8 Q5.0 41.5 4.15 47.95 3.35 54.35 1.45 56.45 -0.45 58.5 -3.05 58.55 -5.65 58.5 -7.5 56.45 -9.35 54.35 -9.35 51.35 -9.35 48.35 -7.65 46.95 -5.95 45.45 -3.7 42.75 -1.4 40.05 1.8 40.8 M17.8 46.65 L18.7 48.35 Q19.4 50.45 18.15 52.25 17.35 53.3 16.1 53.65 14.3 54.05 13.15 52.75 11.6 51.15 11.35 49.0 11.0 45.75 12.7 43.05 L12.7 42.5 12.9 42.5 Q15.2 43.65 17.05 45.7 L17.8 46.65 17.05 45.7 Q15.2 43.65 12.9 42.5 L12.7 42.5 12.7 43.05 Q11.0 45.75 11.35 49.0 11.6 51.15 13.15 52.75 14.3 54.05 16.1 53.65 17.35 53.3 18.15 52.25 19.4 50.45 18.7 48.35 L17.8 46.65 M17.4 43.05 L21.25 46.75 Q22.95 48.35 22.95 51.35 22.95 54.35 20.9 56.45 18.75 58.5 15.8 58.55 12.8 58.5 10.75 56.2 8.65 53.85 8.7 46.8 8.7 39.75 11.95 40.35 15.2 40.95 17.4 43.05" fill="#e79d5a" fill-rule="evenodd" stroke="none"/>
    <path d="M0.7 43.0 L0.3 42.95 -5.2 47.25 Q-6.0 48.45 -5.4 50.6 -5.05 52.0 -4.1 52.9 -2.7 54.35 -1.0 53.25 L0.1 52.2 Q1.0 51.1 1.1 49.7 1.3 47.05 1.1 44.6 L0.85 43.3 0.7 43.0 M17.8 46.65 L17.05 45.7 Q15.2 43.65 12.9 42.5 L12.7 42.5 12.7 43.05 Q11.0 45.75 11.35 49.0 11.6 51.15 13.15 52.75 14.3 54.05 16.1 53.65 17.35 53.3 18.15 52.25 19.4 50.45 18.7 48.35 L17.8 46.65 Z" fill="none" stroke="#000000" stroke-linecap="round" stroke-linejoin="round" stroke-width="3.5"/>
  </g>
</svg>
