<?xml version="1.0" encoding="UTF-8" standalone="no"?>
<svg xmlns:ffdec="https://www.free-decompiler.com/flash" xmlns:xlink="http://www.w3.org/1999/xlink" ffdec:objectType="shape" height="17.05px" width="32.4px" xmlns="http://www.w3.org/2000/svg">
  <g transform="matrix(1.0, 0.0, 0.0, 1.0, 9.35, -41.5)">
    <path d="M11.3 48.6 Q11.45 50.55 12.45 52.0 13.6 53.7 15.25 53.75 16.9 53.7 18.05 52.0 19.25 50.25 19.25 47.75 19.25 45.65 18.4 44.1 L11.3 48.6 10.4 49.2 11.3 48.6 18.4 44.1 Q19.25 45.65 19.25 47.75 19.25 50.25 18.05 52.0 16.9 53.7 15.25 53.75 13.6 53.7 12.45 52.0 11.45 50.55 11.3 48.6 M1.2 48.2 L-5.25 46.0 -5.4 46.4 -5.7 48.6 Q-5.7 50.75 -4.7 52.25 -3.7 53.75 -2.25 53.8 -0.8 53.75 0.2 52.25 1.2 50.75 1.25 48.6 L1.2 48.2 1.7 48.3 1.2 48.2 1.25 48.6 Q1.2 50.75 0.2 52.25 -0.8 53.75 -2.25 53.8 -3.7 53.75 -4.7 52.25 -5.7 50.75 -5.7 48.6 L-5.4 46.4 -5.25 46.0 1.2 48.2 M16.25 43.05 Q19.4 40.15 21.25 42.6 23.1 45.0 23.05 49.7 22.95 54.35 20.9 56.45 18.75 58.5 15.8 58.55 12.8 58.5 10.65 56.45 8.5 54.35 7.0 51.3 5.5 48.2 9.3 47.05 13.05 45.9 16.25 43.05 M4.65 51.3 Q3.35 54.35 1.45 56.45 -0.45 58.5 -3.05 58.55 -5.65 58.5 -7.5 56.45 -9.35 54.35 -9.35 49.7 -9.35 45.0 -7.65 43.45 -5.95 41.85 -3.3 43.9 -0.7 45.9 2.65 47.05 5.95 48.2 4.65 51.3" fill="#e79d5a" fill-rule="evenodd" stroke="none"/>
    <path d="M1.7 48.3 L1.2 48.2 1.25 48.6 Q1.2 50.75 0.2 52.25 -0.8 53.75 -2.25 53.8 -3.7 53.75 -4.7 52.25 -5.7 50.75 -5.7 48.6 L-5.4 46.4 -5.25 46.0 1.2 48.2 M10.4 49.2 L11.3 48.6 18.4 44.1 Q19.25 45.65 19.25 47.75 19.25 50.25 18.05 52.0 16.9 53.7 15.25 53.75 13.6 53.7 12.45 52.0 11.45 50.55 11.3 48.6" fill="none" stroke="#000000" stroke-linecap="round" stroke-linejoin="round" stroke-width="3.5"/>
  </g>
</svg>
