<?xml version="1.0" encoding="UTF-8" standalone="no"?>
<svg xmlns:ffdec="https://www.free-decompiler.com/flash" xmlns:xlink="http://www.w3.org/1999/xlink" ffdec:objectType="shape" height="15.95px" width="32.3px" xmlns="http://www.w3.org/2000/svg">
  <g transform="matrix(1.0, 0.0, 0.0, 1.0, 9.35, -42.6)">
    <path d="M11.05 48.75 Q14.55 38.75 20.2 48.1 14.55 38.75 11.05 48.75 M20.95 45.65 Q22.95 48.35 22.95 51.35 22.95 54.35 20.9 56.45 18.75 58.5 15.8 58.55 12.8 58.5 10.65 56.45 8.5 54.35 7.0 51.3 5.5 48.2 9.2 45.3 12.85 42.35 15.9 42.6 18.9 42.85 20.95 45.65 M4.65 51.3 Q3.35 54.35 1.45 56.45 -0.45 58.5 -3.05 58.55 -5.65 58.5 -7.5 56.45 -9.35 54.35 -9.35 51.35 -9.35 48.35 -7.7 46.8 -6.05 45.25 -3.55 44.1 -1.0 42.95 2.5 45.6 5.95 48.2 4.65 51.3 M-5.8 49.2 Q-2.7 42.3 1.25 48.95 -2.7 42.3 -5.8 49.2" fill="#e79d5a" fill-rule="evenodd" stroke="none"/>
    <path d="M20.2 48.1 Q14.55 38.75 11.05 48.75 M1.25 48.95 Q-2.7 42.3 -5.8 49.2" fill="none" stroke="#333333" stroke-linecap="round" stroke-linejoin="round" stroke-width="2.0"/>
  </g>
</svg>
