<?xml version="1.0" encoding="UTF-8" standalone="no"?>
<svg xmlns:ffdec="https://www.free-decompiler.com/flash" xmlns:xlink="http://www.w3.org/1999/xlink" ffdec:objectType="shape" height="19.2px" width="32.3px" xmlns="http://www.w3.org/2000/svg">
  <g transform="matrix(1.0, 0.0, 0.0, 1.0, 9.35, -39.35)">
    <path d="M1.4 44.1 Q0.2 42.25 -0.85 41.5 L-2.7 40.95 -7.2 49.35 Q-7.05 51.5 -5.9 53.1 -4.4 55.35 -2.2 55.3 -0.05 55.35 1.45 53.05 L1.4 53.1 Q2.65 51.25 2.75 48.65 L2.75 48.6 Q2.65 45.95 1.4 44.1 M0.75 40.0 Q4.1 41.65 3.75 48.0 3.35 54.35 1.45 56.45 -0.45 58.5 -3.05 58.55 -5.65 58.5 -7.5 56.45 -9.35 54.35 -9.35 51.35 -9.35 48.35 -7.65 47.1 -5.95 45.75 -4.25 42.05 -2.6 38.3 0.75 40.0 M12.35 41.4 L12.35 41.45 11.25 42.65 11.2 42.75 Q10.5 43.7 10.2 44.85 9.8 46.15 9.8 47.75 9.8 50.4 10.9 52.35 L10.6 52.55 Q10.1 52.75 9.95 53.25 9.8 53.75 10.05 54.25 L10.15 54.45 Q18.85 51.05 21.7 50.35 L22.85 50.1 Q21.3 48.75 20.8 48.75 L20.75 47.75 20.6 45.9 Q15.7 40.65 14.5 40.5 13.25 40.35 12.35 41.4 M13.7 44.35 L14.25 43.7 14.6 43.65 Q14.9 43.55 16.45 45.5 L18.0 47.3 17.9 47.8 Q17.75 48.45 17.85 49.0 15.85 49.35 13.5 50.85 12.75 49.5 12.8 47.75 12.75 46.6 13.05 45.7 L13.1 45.65 Q13.25 44.95 13.65 44.4 L13.7 44.35 M18.7 42.85 Q20.8 45.05 21.9 46.7 22.95 48.35 22.95 51.35 22.95 54.35 20.9 56.45 18.75 58.5 15.8 58.55 12.8 58.5 10.65 56.45 8.5 54.35 8.7 46.4 8.9 38.4 12.75 39.5 16.55 40.6 18.7 42.85 M-0.25 48.6 Q-0.3 50.25 -1.05 51.4 L-1.05 51.45 Q-1.55 52.2 -2.2 52.3 -2.9 52.2 -3.45 51.4 L-4.2 49.25 -3.95 48.6 Q-2.8 45.5 -1.95 45.0 L-1.05 45.75 -1.05 45.8 Q-0.3 46.95 -0.25 48.6" fill="#e79d5a" fill-rule="evenodd" stroke="none"/>
    <path d="M1.4 44.1 Q2.65 45.95 2.75 48.6 L2.75 48.65 Q2.65 51.25 1.4 53.1 L1.45 53.05 Q-0.05 55.35 -2.2 55.3 -4.4 55.35 -5.9 53.1 -7.05 51.5 -7.2 49.35 L-2.7 40.95 -0.85 41.5 Q0.2 42.25 1.4 44.1 M13.7 44.35 L13.65 44.4 Q13.25 44.95 13.1 45.65 L13.05 45.7 Q12.75 46.6 12.8 47.75 12.75 49.5 13.5 50.85 15.85 49.35 17.85 49.0 17.75 48.45 17.9 47.8 L18.0 47.3 16.45 45.5 Q14.9 43.55 14.6 43.65 L14.25 43.7 13.7 44.35 M12.35 41.4 Q13.25 40.35 14.5 40.5 15.7 40.65 20.6 45.9 L20.75 47.75 20.8 48.75 Q21.3 48.75 22.85 50.1 L21.7 50.35 Q18.85 51.05 10.15 54.45 L10.05 54.25 Q9.8 53.75 9.95 53.25 10.1 52.75 10.6 52.55 L10.9 52.35 Q9.8 50.4 9.8 47.75 9.8 46.15 10.2 44.85 10.5 43.7 11.2 42.75 L11.25 42.65 12.35 41.45 12.35 41.4 M-0.25 48.6 Q-0.3 46.95 -1.05 45.8 L-1.05 45.75 -1.95 45.0 Q-2.8 45.5 -3.95 48.6 L-4.2 49.25 -3.45 51.4 Q-2.9 52.2 -2.2 52.3 -1.55 52.2 -1.05 51.45 L-1.05 51.4 Q-0.3 50.25 -0.25 48.6" fill="#000000" fill-rule="evenodd" stroke="none"/>
  </g>
</svg>
