<?xml version="1.0" encoding="UTF-8" standalone="no"?>
<svg xmlns:ffdec="https://www.free-decompiler.com/flash" xmlns:xlink="http://www.w3.org/1999/xlink" ffdec:objectType="shape" height="19.25px" width="32.55px" xmlns="http://www.w3.org/2000/svg">
  <g transform="matrix(1.0, 0.0, 0.0, 1.0, 9.6, -39.3)">
    <path d="M-8.8 45.45 L-6.95 46.55 Q-7.25 47.45 -7.2 48.6 -7.25 51.25 -5.95 53.1 -4.45 55.35 -2.2 55.3 -0.05 55.35 1.45 53.05 L1.4 53.1 Q2.65 51.25 2.75 48.65 L2.75 48.55 2.6 48.0 -4.0 45.0 -4.55 44.55 -5.4 44.4 -6.9 43.75 Q-5.85 43.4 -4.45 44.1 L1.6 46.65 Q5.3 47.95 4.3 51.15 3.35 54.35 1.45 56.45 -0.45 58.5 -3.05 58.55 -5.65 58.5 -7.5 56.45 -9.35 54.35 -9.55 50.45 -9.75 47.25 -8.8 45.45 M19.25 47.75 Q19.25 45.25 18.05 43.55 16.9 41.8 15.25 41.8 14.15 41.8 13.3 42.55 L12.45 43.55 Q11.9 44.3 11.65 45.25 11.25 46.4 11.3 47.75 11.3 50.25 12.45 52.0 13.6 53.7 15.25 53.75 16.9 53.7 18.05 52.0 19.25 50.25 19.25 47.75 19.25 50.25 18.05 52.0 16.9 53.7 15.25 53.75 13.6 53.7 12.45 52.0 11.3 50.25 11.3 47.75 11.25 46.4 11.65 45.25 11.9 44.3 12.45 43.55 L13.3 42.55 Q14.15 41.8 15.25 41.8 16.9 41.8 18.05 43.55 19.25 45.25 19.25 47.75 M16.75 40.05 Q19.5 42.4 21.25 45.4 22.95 48.35 22.95 51.35 22.95 54.35 20.9 56.45 18.75 58.5 15.8 58.55 12.8 58.5 11.0 56.45 9.2 54.35 8.1 51.3 6.9 48.2 10.45 42.95 13.95 37.7 16.75 40.05 M-4.15 47.7 L-0.3 49.3 Q-0.5 50.5 -1.05 51.4 L-1.1 51.45 Q-1.6 52.2 -2.2 52.3 -2.95 52.2 -3.45 51.4 -4.25 50.25 -4.25 48.6 L-4.15 47.7" fill="#e79d5a" fill-rule="evenodd" stroke="none"/>
    <path d="M-6.9 43.75 L-5.4 44.4 -4.55 44.55 -4.0 45.0 2.6 48.0 2.75 48.55 2.75 48.65 Q2.65 51.25 1.4 53.1 L1.45 53.05 Q-0.05 55.35 -2.2 55.3 -4.45 55.35 -5.95 53.1 -7.25 51.25 -7.2 48.6 -7.25 47.45 -6.95 46.55 L-8.8 45.45 -9.3 45.15 -9.35 45.1 Q-9.55 44.6 -9.3 44.1 L-8.6 43.4 -7.65 43.45 -6.9 43.75 M-4.15 47.7 L-4.25 48.6 Q-4.25 50.25 -3.45 51.4 -2.95 52.2 -2.2 52.3 -1.6 52.2 -1.1 51.45 L-1.05 51.4 Q-0.5 50.5 -0.3 49.3 L-4.15 47.7" fill="#000000" fill-rule="evenodd" stroke="none"/>
    <path d="M19.25 47.75 Q19.25 50.25 18.05 52.0 16.9 53.7 15.25 53.75 13.6 53.7 12.45 52.0 11.3 50.25 11.3 47.75 11.25 46.4 11.65 45.25 11.9 44.3 12.45 43.55 L13.3 42.55 Q14.15 41.8 15.25 41.8 16.9 41.8 18.05 43.55 19.25 45.25 19.25 47.75 Z" fill="none" stroke="#000000" stroke-linecap="round" stroke-linejoin="round" stroke-width="3.5"/>
  </g>
</svg>
