<?xml version="1.0" encoding="UTF-8" standalone="no"?>
<svg xmlns:ffdec="https://www.free-decompiler.com/flash" xmlns:xlink="http://www.w3.org/1999/xlink" ffdec:objectType="shape" height="38.85px" width="43.15px" xmlns="http://www.w3.org/2000/svg">
  <g transform="matrix(1.0, 0.0, 0.0, 1.0, 22.4, 3.5)">
    <path d="M8.65 7.35 L8.5 7.25 8.5 7.2 8.65 7.35 M12.35 19.4 L12.4 19.4 12.4 19.5 12.35 19.4" fill="#ffcc99" fill-rule="evenodd" stroke="none"/>
    <path d="M4.6 -0.25 L4.5 -0.65 4.65 -0.25 4.6 -0.25" fill="#f1ba87" fill-rule="evenodd" stroke="none"/>
    <path d="M2.5 -2.85 L2.45 -2.85 2.5 -2.85 M-7.8 21.25 L-7.75 21.15 -7.55 21.25 -7.8 21.25" fill="#724931" fill-rule="evenodd" stroke="none"/>
    <path d="M4.65 -0.25 L4.6 -0.25 4.65 -0.25 M-18.8 20.9 L-18.8 20.8 -18.8 20.55 -18.8 20.9" fill="#83563a" fill-rule="evenodd" stroke="none"/>
    <path d="M2.45 -2.85 L2.5 -2.85 2.45 -2.85 M10.65 18.2 L10.65 18.15 10.65 18.2 M8.5 7.45 L8.5 7.25 8.65 7.35 8.8 7.4 8.7 7.4 8.5 7.45 M-17.9 21.05 L-17.75 21.1 -17.9 21.65 -17.9 21.05" fill="#4b3121" fill-rule="evenodd" stroke="none"/>
    <path d="M2.45 -2.85 L2.5 -2.85 Q5.05 -2.15 7.25 -0.7 12.1 0.1 20.55 11.15 L20.75 11.65 Q20.85 16.25 14.0 18.85 L15.5 23.3 15.55 23.3 16.0 24.75 16.05 24.55 16.75 26.55 16.75 26.6 Q16.8 28.1 13.5 30.75 L13.45 30.75 Q10.25 33.2 6.6 33.2 5.05 33.2 3.5 32.6 L3.3 32.45 1.5 34.1 1.45 34.1 Q-0.75 35.35 -2.45 35.35 -10.9 35.3 -11.1 30.0 L-11.3 30.2 -11.85 30.4 Q-14.85 30.4 -18.1 28.7 L-18.1 28.65 Q-21.55 26.7 -21.4 25.1 L-21.4 25.05 Q-23.0 14.5 -22.0 13.05 -21.2 11.55 -11.35 2.65 -11.9 2.8 -8.25 -0.5 L-6.4 -1.95 -6.35 -1.95 -5.85 -2.25 -4.35 -2.95 -3.15 -3.3 -3.7 -2.85 -5.5 -1.0 -6.9 0.15 -6.7 0.35 -7.15 0.75 Q-10.65 3.85 -11.5 5.7 L-11.7 6.0 -12.05 6.25 -15.75 9.35 -16.7 10.15 -16.75 10.2 -19.5 12.7 -19.75 12.95 -20.55 13.9 Q-21.2 15.2 -19.75 24.85 L-19.75 25.0 Q-19.65 25.85 -17.35 27.2 L-17.3 27.2 Q-14.65 28.6 -12.15 28.7 L-11.45 28.2 -11.0 28.0 Q-10.75 24.65 -10.0 22.25 -9.25 19.7 -7.95 18.05 L-7.05 17.05 -6.35 16.5 -6.5 15.85 -6.55 14.95 -6.55 14.85 Q-6.6 13.35 -5.9 12.05 L-5.85 11.8 Q-5.85 9.75 -7.85 9.75 -10.0 9.8 -13.0 12.3 L-13.4 12.65 -13.4 12.7 -14.65 14.05 Q-16.35 16.25 -17.5 20.2 L-17.75 21.1 -17.9 21.05 -18.05 20.9 -18.15 20.65 Q-18.25 20.35 -17.9 20.8 L-17.9 20.45 -17.9 19.9 -17.7 17.6 -17.7 17.55 -17.6 17.0 -17.6 16.95 -17.15 15.35 -17.9 14.95 -18.95 13.85 Q-18.85 13.65 -18.45 13.6 L-17.95 13.6 -16.45 13.85 Q-15.7 12.45 -14.55 11.5 L-14.5 11.45 -14.1 11.05 -14.05 11.0 Q-10.5 8.0 -7.85 8.1 -5.05 8.05 -4.9 8.9 L-3.35 8.85 -2.35 8.65 -1.55 8.4 -1.15 8.3 -0.75 8.15 -0.5 8.1 0.45 7.7 Q5.3 6.0 8.5 7.25 L8.5 7.45 Q4.7 7.8 0.15 9.65 -3.05 10.8 -4.25 12.6 L-4.3 12.7 -4.35 12.7 Q-4.95 13.7 -4.9 14.9 L-4.9 14.95 -4.9 15.45 -4.55 16.4 -4.45 16.6 -4.05 17.3 -3.8 17.55 Q-2.85 18.75 -1.8 18.8 L-1.6 18.85 1.75 19.35 Q6.15 19.35 10.65 18.15 L10.65 18.2 12.05 17.8 12.0 17.8 12.5 17.65 12.6 17.6 12.75 17.55 Q18.7 15.45 19.05 11.9 11.2 1.65 6.85 0.95 L6.45 0.8 4.65 -0.25 4.5 -0.65 4.6 -0.25 4.05 -0.5 4.05 -0.55 Q2.45 -2.35 2.45 -2.85 M8.35 20.45 L7.3 20.65 7.1 20.65 4.15 21.0 Q3.1 22.3 3.45 24.6 L3.7 31.0 4.15 31.05 6.6 31.55 7.65 31.5 Q9.8 31.2 11.75 29.95 L12.4 29.45 13.6 28.45 Q14.95 27.25 15.05 26.55 L15.05 26.45 14.65 25.85 14.2 24.6 13.9 23.8 13.95 23.8 12.4 19.5 12.4 19.4 12.35 19.4 11.15 19.75 11.1 19.8 10.85 19.85 8.35 20.45 M12.4 29.45 L12.45 29.45 12.4 29.45 M-3.55 33.65 L-2.45 33.65 Q-1.15 33.65 0.55 32.7 1.9 31.75 2.05 31.15 L2.05 30.8 1.75 24.8 1.05 21.4 1.0 21.0 0.3 20.9 0.3 20.85 -0.6 20.75 -1.7 20.5 -1.8 20.5 Q-3.5 20.5 -5.0 18.75 -6.75 19.35 -7.75 21.15 L-7.8 21.25 -8.4 22.75 Q-9.25 25.5 -9.4 29.55 -9.3 33.3 -3.55 33.65" fill="#654425" fill-rule="evenodd" stroke="none"/>
    <path d="M4.05 -0.55 L4.05 -0.5 4.6 -0.25 4.65 -0.25 6.45 0.8 6.85 0.95 Q11.2 1.65 19.05 11.9 18.7 15.45 12.75 17.55 L12.6 17.6 12.5 17.65 12.0 17.8 12.05 17.8 10.65 18.2 10.65 18.15 Q6.15 19.35 1.75 19.35 L-1.6 18.85 -1.8 18.8 Q-2.85 18.75 -3.8 17.55 L-4.05 17.3 -2.35 14.9 Q-0.5 12.55 4.4 11.9 L10.5 11.15 Q12.3 10.75 12.3 9.7 12.25 8.55 10.05 6.7 7.7 4.65 5.95 4.7 3.25 4.7 -0.5 6.6 L-0.6 6.65 -1.0 6.2 Q-1.7 6.35 -3.3 5.45 -5.15 4.5 -6.95 4.5 L-9.3 4.9 -9.2 4.55 -7.3 2.2 Q-5.9 0.85 -3.2 0.85 L0.05 0.85 Q-0.8 -0.05 -0.8 -1.4 L-2.75 -1.65 -0.25 -1.7 Q2.0 -1.4 4.05 -0.55 M-7.95 18.05 Q-9.25 19.7 -10.0 22.25 -10.75 24.65 -11.0 28.0 L-11.45 28.2 -12.15 28.7 Q-14.65 28.6 -17.3 27.2 L-17.35 27.2 Q-19.65 25.85 -19.75 25.0 L-19.75 24.85 Q-21.2 15.2 -20.55 13.9 L-19.75 12.95 Q-20.2 13.55 -20.2 14.7 -20.2 17.45 -18.8 20.8 L-18.8 20.9 -18.7 21.0 -17.8 22.85 Q-17.85 24.2 -13.8 15.35 L-14.0 14.95 Q-12.55 13.5 -11.15 13.55 -9.15 13.5 -8.7 15.8 L-7.95 18.05 M7.65 31.5 L6.6 31.55 4.15 31.05 3.7 31.0 3.45 24.6 Q3.1 22.3 4.15 21.0 L7.1 20.65 7.3 20.65 8.35 20.45 Q9.95 20.35 11.1 21.9 12.2 23.4 12.25 24.95 12.2 27.05 7.65 31.5 M-3.55 33.65 Q-9.3 33.3 -9.4 29.55 -9.25 25.5 -8.4 22.75 L-7.8 21.25 -7.55 21.25 Q-4.5 21.25 -2.35 22.95 -0.25 24.6 -0.25 26.85 -0.25 30.1 -3.55 33.65" fill="#f0a866" fill-rule="evenodd" stroke="none"/>
    <path d="M2.45 -2.85 Q2.45 -2.35 4.05 -0.55 2.0 -1.4 -0.25 -1.7 L-2.75 -1.65 -0.8 -1.4 Q-0.8 -0.05 0.05 0.85 L-3.2 0.85 Q-5.9 0.85 -7.3 2.2 L-9.2 4.55 -9.3 4.9 -6.95 4.5 Q-5.15 4.5 -3.3 5.45 -1.7 6.35 -1.0 6.2 L-0.6 6.65 -0.5 6.6 Q3.25 4.7 5.95 4.7 7.7 4.65 10.05 6.7 12.25 8.55 12.3 9.7 12.3 10.75 10.5 11.15 L4.4 11.9 Q-0.5 12.55 -2.35 14.9 L-4.05 17.3 -4.45 16.6 -4.55 16.4 -4.9 15.45 -4.9 14.95 -4.9 14.9 Q-4.95 13.7 -4.35 12.7 L-4.3 12.7 -4.25 12.6 Q-3.05 10.8 0.15 9.65 4.7 7.8 8.5 7.45 L8.7 7.4 8.8 7.4 8.65 7.35 8.5 7.2 8.5 7.25 Q5.3 6.0 0.45 7.7 L-0.5 8.1 -0.75 8.15 -1.15 8.3 -1.55 8.4 -2.35 8.65 -3.35 8.85 -4.9 8.9 Q-5.05 8.05 -7.85 8.1 -10.5 8.0 -14.05 11.0 L-14.1 11.05 -14.5 11.45 -14.55 11.5 Q-15.7 12.45 -16.45 13.85 L-17.95 13.6 -18.45 13.6 Q-18.85 13.65 -18.95 13.85 L-17.9 14.95 -17.15 15.35 -17.6 16.95 -17.6 17.0 -17.7 17.55 -17.7 17.6 -17.9 19.9 -17.9 20.45 -17.9 20.8 Q-18.25 20.35 -18.15 20.65 L-18.05 20.9 -17.9 21.05 -17.9 21.65 -17.75 21.1 -17.5 20.2 Q-16.35 16.25 -14.65 14.05 L-13.4 12.7 -13.4 12.65 -13.0 12.3 Q-10.0 9.8 -7.85 9.75 -5.85 9.75 -5.85 11.8 L-5.9 12.05 Q-6.6 13.35 -6.55 14.85 L-6.55 14.95 -6.5 15.85 -6.35 16.5 -7.05 17.05 -7.95 18.05 -8.7 15.8 Q-9.15 13.5 -11.15 13.55 -12.55 13.5 -14.0 14.95 L-13.8 15.35 Q-17.85 24.2 -17.8 22.85 L-18.7 21.0 -18.8 20.9 -18.8 20.55 -18.8 20.8 Q-20.2 17.45 -20.2 14.7 -20.2 13.55 -19.75 12.95 L-19.5 12.7 -16.75 10.2 -16.7 10.15 -15.75 9.35 -12.05 6.25 -11.7 6.0 -11.5 5.7 Q-10.65 3.85 -7.15 0.75 L-6.7 0.35 -6.9 0.15 -5.5 -1.0 -3.7 -2.85 -3.15 -3.3 -2.05 -3.5 -1.95 -3.5 -1.85 -3.5 -1.8 -3.5 -1.7 -3.5 -1.6 -3.5 0.0 -3.4 0.7 -3.25 2.45 -2.85 M8.35 20.45 L10.85 19.85 11.1 19.8 11.15 19.75 12.35 19.4 12.4 19.5 13.95 23.8 13.9 23.8 14.2 24.6 14.65 25.85 15.05 26.45 15.05 26.55 Q14.95 27.25 13.6 28.45 L12.4 29.45 11.75 29.95 Q9.8 31.2 7.65 31.5 12.2 27.05 12.25 24.95 12.2 23.4 11.1 21.9 9.95 20.35 8.35 20.45 M-7.75 21.15 Q-6.75 19.35 -5.0 18.75 -3.5 20.5 -1.8 20.5 L-1.7 20.5 -0.6 20.75 0.3 20.85 0.3 20.9 1.0 21.0 1.05 21.4 1.75 24.8 2.05 30.8 2.05 31.15 Q1.9 31.75 0.55 32.7 -1.15 33.65 -2.45 33.65 L-3.55 33.65 Q-0.25 30.1 -0.25 26.85 -0.25 24.6 -2.35 22.95 -4.5 21.25 -7.55 21.25 L-7.75 21.15" fill="#e79d5a" fill-rule="evenodd" stroke="none"/>
  </g>
</svg>
