<?xml version="1.0" encoding="UTF-8" standalone="no"?>
<svg xmlns:ffdec="https://www.free-decompiler.com/flash" xmlns:xlink="http://www.w3.org/1999/xlink" ffdec:objectType="shape" height="92.05px" width="75.3px" xmlns="http://www.w3.org/2000/svg">
  <g transform="matrix(1.0, 0.0, 0.0, 1.0, 21.75, 26.75)">
    <path d="M22.15 -9.5 L22.35 -9.45 23.3 -9.3 26.55 -8.55 27.2 -8.35 27.55 -8.25 Q30.1 -7.45 32.5 -6.25 L32.8 -6.1 33.45 -5.75 34.75 -5.05 35.4 -4.65 35.6 -4.5 Q39.2 -2.2 42.45 1.05 53.5 12.05 53.55 27.7 53.5 43.25 42.45 54.25 31.45 65.3 15.9 65.3 L11.5 65.1 Q7.8 64.65 4.35 63.55 1.35 62.65 -1.35 61.2 -6.4 58.55 -10.7 54.25 -21.75 43.25 -21.75 27.7 -21.75 14.5 -13.95 4.65 L-11.1 1.4 -10.95 1.25 -10.85 1.15 -10.7 1.05 -9.3 -0.35 Q0.3 -9.1 13.3 -9.9 L14.4 -9.95 14.45 -9.95 15.9 -10.0 17.0 -10.0 18.2 -9.95 18.45 -9.9 22.15 -9.5 M11.5 63.2 L15.65 63.4 Q30.45 63.4 40.95 52.9 51.4 42.45 51.45 27.65 51.4 12.85 40.95 2.35 37.75 -0.85 34.15 -3.05 L31.35 -4.6 Q28.9 -5.8 26.35 -6.55 23.8 -7.35 21.1 -7.7 L18.4 -8.0 15.65 -8.1 14.6 -8.05 Q1.4 -7.75 -8.3 1.1 L-8.25 1.1 -9.9 2.5 -11.05 3.65 -12.65 5.8 Q-20.1 15.2 -20.1 27.65 -20.1 42.45 -9.65 52.9 -5.55 57.0 -0.75 59.5 1.85 60.9 4.7 61.8 L11.5 63.2" fill="#654425" fill-rule="evenodd" stroke="none"/>
    <path d="M11.5 63.2 L4.7 61.8 Q1.85 60.9 -0.75 59.5 L6.1 60.2 Q19.15 60.2 28.4 51.15 37.6 42.1 37.6 29.35 37.6 16.55 28.4 7.5 19.15 -1.55 6.1 -1.55 -1.55 -1.55 -8.25 1.1 0.6 -4.55 11.6 -4.55 25.5 -4.6 35.3 5.2 38.0 7.9 39.95 10.95 39.4 11.05 39.0 11.45 38.4 12.1 38.4 13.0 38.4 13.9 39.0 14.5 39.65 15.15 40.55 15.15 41.4 15.15 42.0 14.6 45.1 21.1 45.1 28.95 45.1 42.8 35.3 52.6 25.5 62.45 11.5 63.2 M38.3 22.15 Q38.9 22.15 39.3 21.75 39.7 21.35 39.7 20.75 39.7 20.15 39.3 19.75 38.9 19.35 38.3 19.35 37.7 19.35 37.3 19.75 36.9 20.15 36.9 20.75 36.9 21.35 37.3 21.75 37.7 22.15 38.3 22.15" fill="#f0a866" fill-rule="evenodd" stroke="none"/>
    <path d="M-8.25 1.1 L-8.3 1.1 Q1.4 -7.75 14.6 -8.05 L15.65 -8.1 18.4 -8.0 21.1 -7.7 Q23.8 -7.35 26.35 -6.55 28.9 -5.8 31.35 -4.6 L34.15 -3.05 Q37.75 -0.85 40.95 2.35 51.4 12.85 51.45 27.65 51.4 42.45 40.95 52.9 30.45 63.4 15.65 63.4 L11.5 63.2 Q25.5 62.45 35.3 52.6 45.1 42.8 45.1 28.95 45.1 21.1 42.0 14.6 L42.05 14.5 Q42.7 13.9 42.7 13.0 42.7 12.1 42.05 11.45 41.45 10.85 40.55 10.85 L39.95 10.95 Q38.0 7.9 35.3 5.2 25.5 -4.6 11.6 -4.55 0.6 -4.55 -8.25 1.1 M46.9 18.1 L47.2 17.5 46.9 16.85 46.3 16.6 45.65 16.85 Q45.4 17.15 45.4 17.5 L45.65 18.1 46.3 18.4 46.9 18.1" fill="#e79d5a" fill-rule="evenodd" stroke="none"/>
    <path d="M-0.75 59.5 Q-5.55 57.0 -9.65 52.9 -20.1 42.45 -20.1 27.65 -20.1 15.2 -12.65 5.8 L-11.05 3.65 -9.9 2.5 -8.25 1.1 Q-1.55 -1.55 6.1 -1.55 19.15 -1.55 28.4 7.5 37.6 16.55 37.6 29.35 37.6 42.1 28.4 51.15 19.15 60.2 6.1 60.2 L-0.75 59.5" fill="#f8b674" fill-rule="evenodd" stroke="none"/>
    <path d="M23.3 -9.3 Q26.2 -13.45 27.15 -21.7 28.35 -14.25 26.55 -8.55 L23.3 -9.3 M17.0 -10.0 L15.9 -10.0 14.45 -9.95 14.4 -9.95 Q12.65 -13.65 8.6 -17.3 14.1 -14.8 17.0 -10.0 M34.75 -5.05 L33.45 -5.75 Q34.55 -7.1 35.45 -9.0 35.45 -6.8 34.75 -5.05" fill="#cccccc" fill-rule="evenodd" stroke="none"/>
    <path d="M22.15 -9.5 Q25.8 -14.3 26.4 -25.25 L26.5 -26.7 27.1 -26.75 27.4 -25.35 Q29.8 -15.4 27.55 -8.25 L27.2 -8.35 26.55 -8.55 Q28.35 -14.25 27.15 -21.7 26.2 -13.45 23.3 -9.3 L22.35 -9.45 22.15 -9.5 M32.5 -6.25 Q34.25 -8.15 35.35 -11.45 L35.8 -12.8 36.15 -12.75 36.3 -11.35 Q36.85 -7.35 35.6 -4.5 L35.4 -4.65 34.75 -5.05 Q35.45 -6.8 35.45 -9.0 34.55 -7.1 33.45 -5.75 L32.8 -6.1 32.5 -6.25 M13.3 -9.9 Q11.15 -14.2 5.65 -18.45 L4.55 -19.35 4.75 -19.75 6.1 -19.3 Q14.45 -16.65 18.2 -9.95 L17.0 -10.0 Q14.1 -14.8 8.6 -17.3 12.65 -13.65 14.4 -9.95 L13.3 -9.9" fill="#666666" fill-rule="evenodd" stroke="none"/>
    <path d="M39.95 10.95 L40.55 10.85 Q41.45 10.85 42.05 11.45 42.7 12.1 42.7 13.0 42.7 13.9 42.05 14.5 L42.0 14.6 Q41.4 15.15 40.55 15.15 39.65 15.15 39.0 14.5 38.4 13.9 38.4 13.0 38.4 12.1 39.0 11.45 39.4 11.05 39.95 10.95 M46.9 18.1 L46.3 18.4 45.65 18.1 45.4 17.5 Q45.4 17.15 45.65 16.85 L46.3 16.6 46.9 16.85 47.2 17.5 46.9 18.1 M38.3 22.15 Q37.7 22.15 37.3 21.75 36.9 21.35 36.9 20.75 36.9 20.15 37.3 19.75 37.7 19.35 38.3 19.35 38.9 19.35 39.3 19.75 39.7 20.15 39.7 20.75 39.7 21.35 39.3 21.75 38.9 22.15 38.3 22.15" fill="#a8763e" fill-rule="evenodd" stroke="none"/>
  </g>
</svg>
