<?xml version="1.0" encoding="UTF-8" standalone="no"?>
<svg xmlns:ffdec="https://www.free-decompiler.com/flash" xmlns:xlink="http://www.w3.org/1999/xlink" ffdec:objectType="shape" height="30.85px" width="41.2px" xmlns="http://www.w3.org/2000/svg">
  <g transform="matrix(1.0, 0.0, 0.0, 1.0, 16.75, -27.55)">
    <path d="M0.95 43.2 Q14.9 40.8 21.4 28.2 L22.0 27.7 22.35 27.65 22.4 27.65 22.55 27.55 24.0 34.3 Q24.85 39.5 24.05 47.0 L23.8 47.6 23.6 48.0 Q14.55 60.3 -0.8 58.05 -8.85 56.75 -13.6 48.6 -15.65 43.95 -16.75 42.1 L-16.35 41.75 -15.6 41.7 Q-7.6 44.5 0.95 43.2 M-9.15 45.35 Q-8.3 46.0 -7.3 47.2 L-7.1 47.2 Q-5.15 48.05 -0.25 48.05 4.3 48.05 9.9 46.4 13.3 45.35 16.05 43.55 L20.15 39.95 Q21.45 39.1 22.4 37.7 L22.0 32.2 21.9 31.4 Q14.9 42.8 1.3 45.15 L1.25 45.15 Q-4.05 46.0 -9.15 45.3 L-10.5 45.1 -14.3 44.25 Q-12.95 45.8 -11.9 47.6 L-11.85 47.6 Q-7.65 54.85 -0.5 56.1 L-0.5 56.05 Q8.25 57.35 14.8 53.5 L15.8 52.9 15.55 53.05 15.5 52.75 15.5 51.5 Q15.35 44.2 21.85 44.2 L22.3 44.25 22.45 39.4 Q21.0 41.5 17.5 43.95 10.05 49.2 -0.6 49.2 -4.6 49.2 -6.7 48.35 L-7.2 48.5 Q-7.7 48.5 -12.3 44.75 L-10.5 45.15 -9.15 45.35 M17.9 46.5 L17.1 49.05 Q16.7 49.9 16.45 52.45 19.5 50.2 22.0 46.8 L22.05 46.75 22.15 45.85 22.2 45.35 Q18.9 45.2 17.9 46.5" fill="#463624" fill-rule="evenodd" stroke="none"/>
    <path d="M-9.15 45.3 Q-4.05 46.0 1.25 45.15 L1.3 45.15 Q14.9 42.8 21.9 31.4 L22.0 32.2 22.4 37.7 Q21.45 39.1 20.15 39.95 L16.05 43.55 Q13.3 45.35 9.9 46.4 4.3 48.05 -0.25 48.05 -5.15 48.05 -7.1 47.2 L-7.3 47.2 Q-8.3 46.0 -9.15 45.35 L-9.15 45.3" fill="#e5e5e5" fill-rule="evenodd" stroke="none"/>
    <path d="M17.9 46.5 Q18.9 45.2 22.2 45.35 L22.15 45.85 22.05 46.75 22.0 46.8 Q19.5 50.2 16.45 52.45 16.7 49.9 17.1 49.05 L17.9 46.5" fill="#b45f50" fill-rule="evenodd" stroke="none"/>
    <path d="M-9.15 45.35 L-10.5 45.15 -12.3 44.75 Q-7.7 48.5 -7.2 48.5 L-6.7 48.35 Q-4.6 49.2 -0.6 49.2 10.05 49.2 17.5 43.95 21.0 41.5 22.45 39.4 L22.3 44.25 21.85 44.2 Q15.35 44.2 15.5 51.5 L15.5 52.75 15.55 53.05 15.8 52.9 14.8 53.5 Q8.25 57.35 -0.5 56.05 L-0.5 56.1 Q-7.65 54.85 -11.85 47.6 L-11.9 47.6 Q-12.95 45.8 -14.3 44.25 L-10.5 45.1 -9.15 45.3 -9.15 45.35" fill="#57352d" fill-rule="evenodd" stroke="none"/>
  </g>
</svg>
