<?xml version="1.0" encoding="UTF-8" standalone="no"?>
<svg xmlns:ffdec="https://www.free-decompiler.com/flash" xmlns:xlink="http://www.w3.org/1999/xlink" ffdec:objectType="shape" height="30.85px" width="41.2px" xmlns="http://www.w3.org/2000/svg">
  <g transform="matrix(1.0, 0.0, 0.0, 1.0, 16.75, -27.55)">
    <path d="M0.95 43.2 Q14.9 40.8 21.4 28.2 L22.0 27.7 22.35 27.65 22.4 27.65 22.55 27.55 24.0 34.3 Q24.85 39.5 24.05 47.0 L23.8 47.6 23.6 48.0 Q14.55 60.3 -0.8 58.05 -8.85 56.75 -13.6 48.6 -15.65 43.95 -16.75 42.1 L-16.35 41.75 -15.6 41.7 Q-7.6 44.5 0.95 43.2 M22.4 37.6 L22.0 32.2 21.9 31.4 Q14.9 42.8 1.3 45.15 L1.25 45.15 Q-4.0 46.0 -9.05 45.3 L-9.8 45.15 -10.1 45.2 -10.5 45.1 -14.3 44.25 -13.15 45.65 -12.6 46.5 -11.9 47.6 -11.85 47.6 -11.8 47.7 -11.1 48.85 -11.1 48.8 -10.9 48.75 -6.85 51.45 -4.1 50.75 -3.7 50.65 -1.6 50.2 -1.45 50.15 -0.55 50.15 -0.45 50.4 -0.5 50.65 -0.55 50.65 Q-2.25 51.0 -5.5 52.2 L-6.0 53.7 -6.0 53.8 -6.05 53.95 -3.9 55.1 -0.5 56.1 -0.5 56.05 Q8.25 57.35 14.8 53.5 L15.25 53.25 15.55 53.05 19.35 49.85 19.95 49.25 22.0 46.8 22.05 46.75 22.05 46.7 22.3 46.7 22.35 45.9 Q21.4 45.1 20.85 45.1 18.6 45.1 16.85 45.9 L16.8 45.95 16.75 45.95 16.2 46.3 15.15 46.85 15.1 46.85 15.0 46.85 14.5 46.85 14.4 46.65 Q14.4 46.25 15.8 45.6 L16.25 45.4 16.3 45.4 16.8 45.2 17.75 44.85 17.85 44.8 18.0 44.75 21.15 43.5 Q21.9 42.4 22.45 40.75 L22.45 41.5 22.5 40.7 22.5 40.65 22.45 38.5 22.35 37.8 22.4 37.7 22.4 37.6 M15.25 53.25 Q14.9 53.45 14.55 53.8 L15.25 53.25 M-8.9 51.35 Q-9.25 51.1 -9.5 50.95 L-9.35 51.15 -7.65 52.75 -6.2 53.85 -7.05 53.25 -7.1 52.8 Q-7.1 52.55 -8.9 51.35" fill="#463624" fill-rule="evenodd" stroke="none"/>
    <path d="M-11.1 48.85 L-11.8 47.7 -11.85 47.6 -11.9 47.6 -12.6 46.5 -13.15 45.65 -14.3 44.25 -10.5 45.1 -10.1 45.2 -9.8 45.15 -9.05 45.3 Q-4.0 46.0 1.25 45.15 L1.3 45.15 Q14.9 42.8 21.9 31.4 L22.0 32.2 22.4 37.6 22.35 37.65 22.25 37.8 22.35 37.8 22.45 38.5 22.5 40.65 22.5 40.7 22.45 40.75 Q21.9 42.4 21.15 43.5 L18.0 44.75 17.85 44.8 17.75 44.85 16.8 45.2 16.3 45.4 16.25 45.4 16.05 45.4 15.8 45.6 Q14.4 46.25 14.4 46.65 L14.5 46.85 15.0 46.85 15.1 46.85 15.15 46.85 16.2 46.3 16.75 45.95 16.8 45.95 16.85 45.95 16.85 45.9 Q18.6 45.1 20.85 45.1 21.4 45.1 22.35 45.9 L22.3 46.7 22.05 46.7 22.05 46.75 22.0 46.8 19.95 49.25 19.35 49.85 Q19.15 46.6 16.55 46.6 L14.1 47.3 13.85 47.25 13.75 46.95 Q13.75 46.25 17.8 43.2 L18.75 41.6 Q17.35 42.65 15.55 43.45 L9.0 45.95 Q2.65 47.45 -1.1 47.45 L-9.6 46.7 -12.35 45.9 Q-8.8 50.2 -3.5 50.2 L0.8 49.95 3.35 50.05 3.4 50.3 -1.4 52.6 Q-2.8 53.5 -3.3 55.3 L-3.9 55.1 -6.05 53.95 -6.0 53.8 -6.0 53.75 -6.0 53.7 -5.5 52.2 Q-2.25 51.0 -0.55 50.65 L-0.5 50.65 -0.45 50.4 -0.55 50.15 -1.45 50.15 -1.6 50.2 -3.7 50.65 -4.1 50.75 -6.85 51.45 -10.9 48.75 -11.1 48.8 -11.1 48.85" fill="#e5e5e5" fill-rule="evenodd" stroke="none"/>
    <path d="M22.4 37.6 L22.4 37.7 22.35 37.8 22.25 37.8 22.35 37.65 22.4 37.6 M16.25 45.4 L15.8 45.6 16.05 45.4 16.25 45.4 M16.8 45.95 L16.85 45.9 16.85 45.95 16.8 45.95 M19.35 49.85 L15.55 53.05 15.25 53.25 14.8 53.5 Q8.25 57.35 -0.5 56.05 L-0.5 56.1 -3.9 55.1 -3.3 55.3 Q-2.8 53.5 -1.4 52.6 L3.4 50.3 3.35 50.05 0.8 49.95 -3.5 50.2 Q-8.8 50.2 -12.35 45.9 L-9.6 46.7 -1.1 47.45 Q2.65 47.45 9.0 45.95 L15.55 43.45 Q17.35 42.65 18.75 41.6 L17.8 43.2 Q13.75 46.25 13.75 46.95 L13.85 47.25 14.1 47.3 16.55 46.6 Q19.15 46.6 19.35 49.85" fill="#f9f9f9" fill-rule="evenodd" stroke="none"/>
    <path d="M-6.0 53.8 L-6.0 53.7 -6.0 53.75 -6.0 53.8 M-8.9 51.35 Q-7.1 52.55 -7.1 52.8 L-7.05 53.25 -6.2 53.85 -7.65 52.75 -9.35 51.15 -9.5 50.95 Q-9.25 51.1 -8.9 51.35" fill="#57352d" fill-rule="evenodd" stroke="none"/>
  </g>
</svg>
