<?xml version="1.0" encoding="UTF-8" standalone="no"?>
<svg xmlns:ffdec="https://www.free-decompiler.com/flash" xmlns:xlink="http://www.w3.org/1999/xlink" ffdec:objectType="shape" height="14.65px" width="27.85px" xmlns="http://www.w3.org/2000/svg">
  <g transform="matrix(1.0, 0.0, 0.0, 1.0, 4.8, -39.15)">
    <path d="M14.8 39.15 Q20.55 39.15 22.3 41.85 23.05 42.95 23.05 45.4 23.05 47.85 19.65 50.4 15.15 53.75 7.55 53.75 L2.95 53.65 2.9 53.65 1.7 53.8 Q-5.2 53.8 -4.75 48.2 L-4.65 47.4 Q-4.0 44.45 2.15 41.85 8.45 39.15 14.8 39.15 M-1.45 51.85 L-1.25 51.95 -0.3 52.35 Q11.45 53.5 16.8 50.35 21.15 47.8 21.15 45.05 21.15 40.9 13.55 40.9 5.75 40.9 0.5 44.2 -1.6 45.5 -3.25 47.0 L-2.55 47.95 -1.95 48.7 Q-0.15 47.0 5.55 46.75 L6.8 47.0 6.9 47.15 2.55 48.5 Q1.65 48.8 -0.2 50.1 L-0.2 50.15 -0.3 50.35 -1.35 51.65 -1.7 51.75 -1.45 51.85" fill="#463624" fill-rule="evenodd" stroke="none"/>
    <path d="M-1.35 51.65 L-0.3 50.35 -0.2 50.15 -0.2 50.1 Q1.65 48.8 2.55 48.5 L6.9 47.15 6.8 47.0 5.55 46.75 Q-0.15 47.0 -1.95 48.7 L-2.55 47.95 -3.25 47.0 Q-1.6 45.5 0.5 44.2 5.75 40.9 13.55 40.9 21.15 40.9 21.15 45.05 21.15 47.8 16.8 50.35 11.45 53.5 -0.3 52.35 L-1.25 51.95 -1.45 51.85 -1.35 51.65" fill="#e5e5e5" fill-rule="evenodd" stroke="none"/>
  </g>
</svg>
