<?xml version="1.0" encoding="UTF-8" standalone="no"?>
<svg xmlns:ffdec="https://www.free-decompiler.com/flash" xmlns:xlink="http://www.w3.org/1999/xlink" ffdec:objectType="shape" height="25.9px" width="35.65px" xmlns="http://www.w3.org/2000/svg">
  <g transform="matrix(1.0, 0.0, 0.0, 1.0, 10.0, -31.85)">
    <path d="M24.25 41.85 L24.15 41.85 Q22.85 41.85 22.45 41.25 22.1 40.65 19.85 40.65 16.2 40.65 9.6 43.4 3.05 46.15 2.2 46.15 0.35 46.15 -3.1 42.25 L-3.75 42.8 -6.6 45.4 Q-4.15 47.2 -3.8 50.5 -3.65 52.4 -3.75 56.15 L2.8 56.4 Q9.25 56.4 13.8 55.3 L13.85 55.3 14.65 55.05 13.75 55.3 13.7 55.05 Q13.7 54.6 14.45 54.2 15.2 53.85 15.2 53.5 14.45 53.3 13.8 52.75 11.05 55.25 8.55 55.25 4.7 55.25 4.7 52.3 4.7 50.5 6.3 48.25 8.8 44.8 13.55 44.8 18.1 44.8 20.8 47.15 22.6 48.7 22.8 50.05 25.05 46.95 24.4 43.4 L24.25 41.9 24.15 41.4 24.25 41.85 M6.15 50.8 L5.8 52.05 Q5.8 53.9 7.95 53.9 11.0 53.9 13.25 51.8 14.8 50.35 15.4 48.65 L15.8 48.5 16.15 48.85 15.85 50.3 15.1 51.5 15.0 51.6 15.15 51.55 15.5 51.55 15.8 51.6 17.45 52.4 17.55 52.55 17.7 52.85 17.7 52.95 17.8 53.65 17.7 53.95 17.9 53.85 19.5 53.0 Q20.9 52.15 21.95 51.05 L21.4 50.35 20.55 48.6 Q18.8 46.05 13.55 46.05 7.7 46.05 6.15 50.8 M16.4 48.2 L16.4 49.55 16.05 50.3 16.05 49.95 16.15 48.9 16.35 48.85 16.4 48.2 M-2.25 41.6 Q-1.65 42.0 -0.35 43.2 1.55 45.0 2.05 45.0 3.55 45.0 18.55 39.4 L20.05 39.35 Q22.65 39.35 23.25 40.0 L23.75 40.3 22.7 38.2 Q20.1 33.9 14.8 33.9 9.35 33.9 1.5 39.0 L-2.25 41.6 -2.75 41.95 -2.25 41.6 M25.65 43.25 Q25.65 48.4 23.55 51.15 18.45 57.75 2.7 57.75 L-5.15 57.7 -5.3 57.45 Q-5.1 57.05 -5.25 56.75 L-5.1 55.4 -5.0 52.9 Q-5.0 46.4 -7.9 46.4 -8.45 46.4 -9.45 47.25 -10.0 47.05 -10.0 46.45 6.7 31.85 16.4 31.85 21.5 31.85 24.1 37.4 25.4 40.2 25.65 43.25" fill="#463624" fill-rule="evenodd" stroke="none"/>
    <path d="M13.8 55.3 Q9.25 56.4 2.8 56.4 L-3.75 56.15 Q-3.65 52.4 -3.8 50.5 -4.15 47.2 -6.6 45.4 L-3.75 42.8 -3.1 42.25 Q0.35 46.15 2.2 46.15 3.05 46.15 9.6 43.4 16.2 40.65 19.85 40.65 22.1 40.65 22.45 41.25 22.85 41.85 24.15 41.85 L24.25 41.85 24.25 41.9 24.4 43.4 Q25.05 46.95 22.8 50.05 22.6 48.7 20.8 47.15 18.1 44.8 13.55 44.8 8.8 44.8 6.3 48.25 4.7 50.5 4.7 52.3 4.7 55.25 8.55 55.25 11.05 55.25 13.8 52.75 14.45 53.3 15.2 53.5 15.2 53.85 14.45 54.2 13.7 54.6 13.7 55.05 L13.75 55.3 13.8 55.3" fill="#57352d" fill-rule="evenodd" stroke="none"/>
    <path d="M-2.25 41.6 L1.5 39.0 Q9.35 33.9 14.8 33.9 20.1 33.9 22.7 38.2 L23.75 40.3 23.25 40.0 Q22.65 39.35 20.05 39.35 L18.55 39.4 Q3.55 45.0 2.05 45.0 1.55 45.0 -0.35 43.2 -1.65 42.0 -2.25 41.6" fill="#e5e5e5" fill-rule="evenodd" stroke="none"/>
    <path d="M15.85 50.3 L16.15 48.85 15.8 48.5 15.4 48.65 Q14.8 50.35 13.25 51.8 11.0 53.9 7.95 53.9 5.8 53.9 5.8 52.05 L6.15 50.8 Q7.25 52.15 9.55 52.15 12.5 52.15 14.2 50.0 L15.9 47.8 Q19.05 47.8 19.55 52.4 L19.5 53.0 17.9 53.85 17.8 53.65 17.7 52.95 17.7 52.85 17.55 52.55 17.45 52.4 15.8 51.6 15.5 51.55 15.85 50.3 M16.4 48.2 L16.35 48.85 16.15 48.9 16.05 49.95 16.05 50.3 16.4 49.55 16.4 48.2" fill="#a05345" fill-rule="evenodd" stroke="none"/>
    <path d="M15.85 50.3 L15.5 51.55 15.15 51.55 15.1 51.5 15.85 50.3 M19.5 53.0 L19.55 52.4 Q19.05 47.8 15.9 47.8 L14.2 50.0 Q12.5 52.15 9.55 52.15 7.25 52.15 6.15 50.8 7.7 46.05 13.55 46.05 18.8 46.05 20.55 48.6 L21.4 50.35 21.95 51.05 Q20.9 52.15 19.5 53.0" fill="#b45f50" fill-rule="evenodd" stroke="none"/>
  </g>
</svg>
