<?xml version="1.0" encoding="UTF-8" standalone="no"?>
<svg xmlns:ffdec="https://www.free-decompiler.com/flash" xmlns:xlink="http://www.w3.org/1999/xlink" ffdec:objectType="shape" height="7.85px" width="23.45px" xmlns="http://www.w3.org/2000/svg">
  <g transform="matrix(1.0, 0.0, 0.0, 1.0, 7.25, -44.8)">
    <path d="M9.05 44.9 L10.8 44.8 13.55 45.1 Q16.3 45.8 16.2 49.15 16.2 51.9 14.15 51.9 L9.0 51.3 2.7 50.65 Q-0.45 50.65 -3.05 51.65 -5.65 52.65 -6.3 52.65 L-6.75 52.55 -6.95 52.05 Q-6.95 51.4 -3.15 50.5 L-2.75 50.4 Q-3.7 49.5 -3.7 47.35 L-7.1 48.65 Q-7.25 49.05 -7.25 48.4 -7.25 47.65 -3.05 46.65 L-3.5 46.75 Q-3.0 46.2 -1.25 45.95 L3.15 45.5 6.2 45.2 9.05 44.9 M14.15 46.5 L13.7 46.25 13.4 46.3 10.85 46.05 Q0.35 46.05 -2.5 47.4 -1.95 48.5 -1.95 49.3 L-1.95 50.25 Q1.05 49.55 3.2 49.55 L6.7 49.85 Q6.8 48.7 8.55 47.55 10.5 46.3 13.05 46.3 L14.1 46.5 14.45 46.75 14.15 46.5 M12.6 47.85 Q10.65 47.8 10.05 48.25 9.0 48.95 8.95 49.65 8.9 50.0 8.1 50.0 L8.05 50.05 8.8 50.2 14.7 50.8 Q15.3 50.8 15.3 49.2 15.3 48.0 14.85 47.25 14.15 47.85 12.6 47.85" fill="#463624" fill-rule="evenodd" stroke="none"/>
    <path d="M14.1 46.5 L13.05 46.3 Q10.5 46.3 8.55 47.55 6.8 48.7 6.7 49.85 L3.2 49.55 Q1.05 49.55 -1.95 50.25 L-1.95 49.3 Q-1.95 48.5 -2.5 47.4 0.35 46.05 10.85 46.05 L13.4 46.3 13.7 46.25 14.15 46.5 14.1 46.5" fill="#57352d" fill-rule="evenodd" stroke="none"/>
    <path d="M12.6 47.85 Q14.15 47.85 14.85 47.25 15.3 48.0 15.3 49.2 15.3 50.8 14.7 50.8 L8.8 50.2 8.05 50.05 8.1 50.0 Q8.9 50.0 8.95 49.65 9.0 48.95 10.05 48.25 10.65 47.8 12.6 47.85" fill="#b45f50" fill-rule="evenodd" stroke="none"/>
  </g>
</svg>
