<?xml version="1.0" encoding="UTF-8" standalone="no"?>
<svg xmlns:ffdec="https://www.free-decompiler.com/flash" xmlns:xlink="http://www.w3.org/1999/xlink" ffdec:objectType="shape" height="218.0px" width="169.55px" xmlns="http://www.w3.org/2000/svg">
  <g transform="matrix(1.0, 0.0, 0.0, 1.0, 106.05, 170.5)">
    <path d="M-51.95 -119.5 Q-51.45 -124.0 -50.3 -124.0 -44.5 -124.0 -34.8 -128.0 L-24.55 -132.3 Q-20.85 -133.6 -21.8 -131.0 -23.15 -127.45 -21.9 -125.0 -20.55 -122.25 -16.8 -125.0 L-14.4 -124.95 Q-14.0 -123.5 -15.25 -120.35 -18.35 -112.35 -25.3 -107.5 -28.85 -105.0 -29.1 -103.5 -29.35 -102.1 -26.9 -102.0 -21.05 -101.75 -12.8 -107.0 -5.05 -111.9 -6.85 -104.45 -8.45 -97.8 -16.3 -85.0 -22.55 -74.8 -16.15 -79.45 -13.85 -81.15 1.2 -94.5 9.35 -101.75 12.6 -88.35 14.95 -71.5 17.2 -68.0 21.95 -60.6 -11.3 -62.0 L-26.75 -62.5 Q-33.15 -62.1 -32.8 -58.5 -32.45 -54.85 -19.9 -53.5 -10.45 -52.45 -0.3 -53.0 3.9 -53.2 16.85 -55.95 29.05 -58.5 34.7 -58.5 38.5 -58.5 40.1 -54.15 41.6 -50.05 40.25 -44.5 38.85 -38.55 34.9 -34.45 30.35 -29.7 23.7 -29.0 4.7 -27.0 -71.8 -30.0 -75.65 -35.9 -73.25 -39.85 -71.2 -43.25 -65.3 -44.5 -57.9 -46.1 -53.5 -48.75 -48.4 -51.85 -59.3 -51.5 -69.6 -51.2 -70.75 -60.8 -71.3 -65.6 -69.8 -70.5 L-51.8 -93.5 Q-52.45 -106.3 -52.25 -113.7 -40.2 -111.35 -25.65 -113.15 L-25.65 -113.1 -24.0 -119.2 -24.9 -119.1 -36.4 -118.25 Q-40.0 -118.2 -43.35 -118.4 L-51.95 -119.5 M-73.5 -71.3 Q-73.5 -70.3 -74.2 -69.6 L-75.25 -68.95 -75.9 -68.9 -76.3 -68.9 Q-77.05 -69.05 -77.6 -69.6 -78.3 -70.3 -78.3 -71.3 -78.3 -72.3 -77.6 -73.0 -76.9 -73.7 -75.9 -73.7 L-75.3 -73.6 -74.35 -73.15 -74.2 -73.0 Q-73.5 -72.3 -73.5 -71.3 M-78.9 -52.2 L-78.65 -52.15 -77.65 -51.85 -77.2 -51.5 Q-76.5 -50.8 -76.5 -49.8 -76.5 -48.8 -77.2 -48.1 L-77.9 -47.6 -78.9 -47.4 -78.95 -47.4 Q-79.9 -47.4 -80.6 -48.1 -81.3 -48.8 -81.3 -49.8 -81.3 -50.8 -80.6 -51.5 -79.9 -52.2 -78.9 -52.2 M-78.75 -32.4 L-78.4 -32.45 -77.75 -32.35 Q-77.2 -32.2 -76.7 -31.75 -76.0 -31.05 -76.0 -30.05 -76.0 -29.05 -76.7 -28.35 L-77.35 -27.85 -78.35 -27.65 -78.4 -27.65 Q-79.4 -27.65 -80.1 -28.35 -80.8 -29.05 -80.8 -30.05 -80.8 -31.05 -80.1 -31.75 -79.55 -32.3 -78.75 -32.4" fill="#f2eee6" fill-rule="evenodd" stroke="none"/>
    <path d="M-52.75 -144.9 Q-45.3 -163.95 -33.95 -167.95 L-29.2 -168.45 -27.45 -168.5 -27.4 -168.5 Q-23.35 -168.25 -3.85 -163.8 -4.75 -165.05 14.6 -152.35 33.9 -139.65 44.15 -113.1 54.4 -86.55 57.2 -65.65 60.05 -44.75 51.95 -28.65 L44.2 -27.6 44.25 -26.1 37.7 -25.55 9.95 -24.1 9.95 -26.3 -0.3 -25.7 -0.25 -23.85 Q-10.3 -23.7 -21.4 -23.7 L-38.55 -23.8 -38.55 -26.0 -48.25 -26.0 -48.3 -24.0 -64.35 -24.55 -64.3 -26.15 -76.8 -27.0 -76.0 -27.65 Q-75.0 -28.65 -75.0 -30.05 -75.0 -31.45 -76.0 -32.45 -76.8 -33.25 -77.85 -33.4 L-77.85 -33.6 Q-78.25 -40.0 -77.95 -46.5 -77.15 -46.75 -76.5 -47.4 -75.5 -48.4 -75.5 -49.8 -75.5 -51.2 -76.5 -52.2 -77.0 -52.7 -77.55 -52.9 -76.9 -60.35 -75.45 -67.9 -74.35 -68.05 -73.5 -68.9 -72.5 -69.9 -72.5 -71.3 -72.5 -72.7 -73.5 -73.7 L-74.1 -74.2 -72.9 -79.2 -71.45 -75.95 -55.25 -92.9 -55.3 -93.4 Q-58.6 -116.7 -52.5 -143.45 L-52.15 -145.1 -52.75 -144.9 M-103.3 -31.5 Q-105.6 -50.45 -99.0 -70.7 L-95.55 -80.0 Q-83.15 -109.95 -68.25 -139.1 -56.75 -161.8 -38.3 -166.95 -47.55 -161.25 -53.95 -144.6 L-60.6 -142.75 -60.8 -142.4 Q-69.35 -127.65 -78.75 -92.8 L-78.85 -92.45 -73.55 -80.65 -73.55 -80.5 -75.05 -74.6 -75.9 -74.7 Q-77.3 -74.7 -78.3 -73.7 -79.3 -72.7 -79.3 -71.3 -79.3 -69.9 -78.3 -68.9 -77.5 -68.1 -76.45 -67.95 -77.9 -60.5 -78.55 -53.15 L-78.9 -53.2 Q-80.3 -53.2 -81.3 -52.2 -82.3 -51.2 -82.3 -49.8 -82.3 -48.4 -81.3 -47.4 -80.35 -46.45 -79.0 -46.4 -79.25 -39.9 -78.85 -33.55 L-78.85 -33.4 Q-79.95 -33.3 -80.8 -32.45 -81.8 -31.45 -81.8 -30.05 -81.8 -28.65 -80.8 -27.65 L-80.35 -27.25 -87.7 -27.75 -87.7 -26.15 -92.3 -26.65 -92.3 -28.35 -100.3 -29.35 -100.3 -27.85 -102.95 -28.6 -103.15 -29.95 -103.15 -30.05 -103.3 -31.5 M-52.25 -113.7 Q-52.45 -106.3 -51.8 -93.5 L-69.8 -70.5 Q-71.3 -65.6 -70.75 -60.8 -69.6 -51.2 -59.3 -51.5 -48.4 -51.85 -53.5 -48.75 -57.9 -46.1 -65.3 -44.5 -71.2 -43.25 -73.25 -39.85 -75.65 -35.9 -71.8 -30.0 4.7 -27.0 23.7 -29.0 30.35 -29.7 34.9 -34.45 38.85 -38.55 40.25 -44.5 41.6 -50.05 40.1 -54.15 38.5 -58.5 34.7 -58.5 29.05 -58.5 16.85 -55.95 3.9 -53.2 -0.3 -53.0 -10.45 -52.45 -19.9 -53.5 -32.45 -54.85 -32.8 -58.5 -33.15 -62.1 -26.75 -62.5 L-11.3 -62.0 Q21.95 -60.6 17.2 -68.0 14.95 -71.5 12.6 -88.35 9.35 -101.75 1.2 -94.5 -13.85 -81.15 -16.15 -79.45 -22.55 -74.8 -16.3 -85.0 -8.45 -97.8 -6.85 -104.45 -5.05 -111.9 -12.8 -107.0 -21.05 -101.75 -26.9 -102.0 -29.35 -102.1 -29.1 -103.5 -28.85 -105.0 -25.3 -107.5 -18.35 -112.35 -15.25 -120.35 -14.0 -123.5 -14.4 -124.95 L-16.8 -125.0 Q-20.55 -122.25 -21.9 -125.0 -23.15 -127.45 -21.8 -131.0 -20.85 -133.6 -24.55 -132.3 L-34.8 -128.0 Q-44.5 -124.0 -50.3 -124.0 -51.45 -124.0 -51.95 -119.5 L-52.8 -119.7 -53.7 -119.9 -52.35 -113.85 -52.35 -113.7 -52.25 -113.7" fill="#d9ceb7" fill-rule="evenodd" stroke="none"/>
    <path d="M-53.95 -144.6 L-52.75 -144.9 -52.15 -145.1 -52.5 -143.45 Q-58.6 -116.7 -55.3 -93.4 L-55.25 -92.9 -71.45 -75.95 -72.9 -79.2 -73.55 -80.65 -78.85 -92.45 -78.75 -92.8 Q-69.35 -127.65 -60.8 -142.4 L-60.6 -142.75 -53.95 -144.6 M-48.3 -24.0 L-48.25 -26.0 -38.55 -26.0 -38.55 -23.8 -38.55 -21.8 -38.55 -9.2 -38.55 -7.2 -38.55 -3.95 -48.8 -4.25 -48.75 -7.6 -48.7 -9.6 -48.35 -22.0 -48.3 -24.0 M-0.25 -23.85 L-0.3 -25.7 9.95 -26.3 9.95 -24.1 10.0 -22.1 10.15 -9.9 10.15 -7.85 10.2 -4.0 0.25 -3.7 0.15 -7.35 0.1 -9.35 -0.2 -21.85 -0.25 -23.85 M44.25 -26.1 L44.2 -27.6 51.95 -28.65 51.95 -26.9 51.95 -24.9 51.95 -15.9 51.95 -13.85 51.95 -11.0 44.75 -8.9 44.65 -12.05 44.6 -14.1 44.3 -24.05 44.25 -26.1 M59.2 -16.8 L60.9 -18.25 60.95 -18.25 61.35 -18.75 61.4 -18.85 61.45 -18.9 61.55 -19.05 60.3 -10.6 60.3 -10.55 Q50.95 45.05 -5.9 47.4 L-15.5 47.45 -29.4 46.3 Q-68.6 40.6 -90.0 8.6 -98.4 -3.85 -102.3 -17.0 L-102.05 -16.8 -100.3 -15.85 -100.3 -18.05 -100.3 -25.85 -100.3 -27.85 -100.3 -29.35 -92.3 -28.35 -92.3 -26.65 -92.25 -24.6 -92.1 -15.15 -92.05 -13.05 -92.0 -10.6 -98.85 -12.8 Q-95.05 -2.45 -88.35 7.5 -67.4 38.8 -29.1 44.3 L-15.45 45.45 -5.95 45.4 Q49.25 43.1 58.35 -10.9 L59.2 -16.8 M8.0 -24.15 L1.75 -23.8 2.2 -5.75 8.2 -5.95 8.0 -24.15 M49.95 -26.35 L46.25 -25.85 46.65 -11.55 49.95 -12.5 49.95 -26.35 M-54.85 -142.25 L-59.25 -141.0 Q-67.55 -126.4 -75.95 -92.6 L-71.1 -78.5 -56.6 -93.6 Q-59.9 -113.05 -56.25 -134.85 L-54.85 -142.2 -54.85 -142.25 M-94.25 -26.6 L-98.3 -27.1 -98.3 -14.7 -94.05 -13.35 -94.25 -26.6 M-40.55 -24.0 L-46.3 -24.0 -46.75 -6.2 -40.55 -6.0 -40.55 -24.0" fill="#532222" fill-rule="evenodd" stroke="none"/>
    <path d="M51.95 -28.65 L61.8 -30.55 62.15 -30.7 62.65 -30.3 Q63.35 -29.7 63.25 -29.0 L63.25 -28.85 Q64.1 -24.7 62.0 -20.5 L61.55 -19.05 61.45 -18.9 61.4 -18.85 61.35 -18.75 60.95 -18.25 60.9 -18.25 59.2 -16.8 Q56.75 -15.25 51.95 -13.85 L51.95 -15.9 Q57.6 -17.6 59.4 -19.5 L59.4 -19.55 59.7 -19.9 60.0 -20.85 60.05 -21.05 60.15 -21.25 Q61.6 -24.1 61.5 -26.95 59.05 -25.85 51.95 -24.9 L51.95 -26.9 Q58.2 -27.75 60.5 -28.7 L60.6 -29.9 51.95 -28.65 M-105.25 -30.45 L-104.6 -30.85 -103.3 -31.5 -103.15 -30.05 -103.15 -29.95 -102.95 -28.6 -100.3 -27.85 -100.3 -25.85 -103.65 -26.75 -102.8 -20.95 -102.8 -20.8 -102.75 -20.45 -102.7 -20.4 -101.95 -19.25 Q-101.55 -18.9 -100.95 -18.5 L-100.95 -18.45 -100.3 -18.05 -100.3 -15.85 -102.05 -16.8 -102.3 -17.0 -103.3 -17.8 -103.35 -17.85 Q-104.45 -18.85 -104.65 -19.9 L-104.8 -20.65 -105.95 -28.45 -105.95 -28.5 -105.95 -28.55 -106.0 -28.65 -106.05 -29.0 Q-106.2 -29.8 -105.25 -30.45 M-64.35 -24.55 L-48.3 -24.0 -48.35 -22.0 -64.45 -22.55 -64.35 -24.55 M-38.55 -23.8 L-21.4 -23.7 Q-10.3 -23.7 -0.25 -23.85 L-0.2 -21.85 -14.8 -21.7 -21.4 -21.7 -38.55 -21.8 -38.55 -23.8 M9.95 -24.1 L37.7 -25.55 44.25 -26.1 44.3 -24.05 37.85 -23.55 10.0 -22.1 9.95 -24.1 M10.15 -7.85 L10.15 -9.9 Q24.65 -10.85 36.7 -12.7 L44.6 -14.1 44.65 -12.05 37.0 -10.7 Q24.85 -8.8 10.15 -7.85 M0.1 -9.35 L0.15 -7.35 Q-10.1 -6.95 -21.4 -6.95 -30.3 -6.95 -38.55 -7.2 L-38.55 -9.2 Q-30.3 -8.95 -21.4 -8.95 L-14.8 -9.0 Q-7.1 -9.1 0.1 -9.35 M-48.75 -7.6 L-64.9 -8.8 -64.85 -10.85 -48.7 -9.6 -48.75 -7.6 M-87.5 -12.05 L-92.05 -13.05 -92.1 -15.15 -87.55 -14.1 -87.5 -12.05 M-92.3 -26.65 L-87.7 -26.15 -87.65 -24.15 -92.25 -24.6 -92.3 -26.65 M-70.8 -11.5 L-70.9 -9.6 -82.45 -11.25 -82.45 -13.15 -79.5 -12.7 -79.45 -12.65 -76.5 -12.25 -70.8 -11.5" fill="#331a00" fill-rule="evenodd" stroke="none"/>
    <path d="M51.95 -13.85 Q56.75 -15.25 59.2 -16.8 L58.35 -10.9 Q49.25 43.1 -5.95 45.4 L-15.45 45.45 -29.1 44.3 Q-67.4 38.8 -88.35 7.5 -95.05 -2.45 -98.85 -12.8 L-92.0 -10.6 -92.05 -13.05 -87.5 -12.05 -87.5 -9.9 -83.65 -9.4 -83.55 -9.4 -70.1 -7.45 -70.05 -7.45 -65.0 -6.75 -64.9 -8.8 -48.75 -7.6 -48.8 -4.25 -38.55 -3.95 -38.55 -7.2 Q-30.3 -6.95 -21.4 -6.95 -10.1 -6.95 0.15 -7.35 L0.25 -3.7 10.2 -4.0 10.15 -7.85 Q24.85 -8.8 37.0 -10.7 L44.65 -12.05 44.75 -8.9 51.95 -11.0 51.95 -13.85 M8.0 -24.15 L8.2 -5.95 2.2 -5.75 1.75 -23.8 8.0 -24.15 M19.45 -6.75 Q19.05 -6.75 18.75 -6.45 18.45 -6.15 18.45 -5.75 L18.4 -3.25 Q18.4 -2.85 18.7 -2.5 18.95 -2.2 19.35 -2.2 L20.1 -2.45 20.4 -3.15 20.45 -5.75 20.15 -6.45 19.45 -6.75 M18.15 -0.2 L17.85 2.75 Q17.8 3.15 18.05 3.45 L18.75 3.85 19.45 3.65 19.85 3.0 20.15 -0.05 19.9 -0.8 19.25 -1.15 Q18.8 -1.2 18.5 -0.9 L18.15 -0.2 M49.95 -26.35 L49.95 -12.5 46.65 -11.55 46.25 -25.85 49.95 -26.35 M-54.85 -142.25 L-54.85 -142.2 -56.25 -134.85 Q-59.9 -113.05 -56.6 -93.6 L-71.1 -78.5 -75.95 -92.6 Q-67.55 -126.4 -59.25 -141.0 L-54.85 -142.25 M-57.4 -139.2 L-60.65 -138.15 Q-66.95 -125.45 -73.7 -96.0 L-70.4 -83.75 -59.6 -96.85 Q-61.15 -110.0 -59.65 -124.3 L-59.05 -129.5 -57.4 -139.2 M-94.25 -26.6 L-94.05 -13.35 -98.3 -14.7 -98.3 -27.1 -94.25 -26.6 M-40.55 -24.0 L-40.55 -6.0 -46.75 -6.2 -46.3 -24.0 -40.55 -24.0 M-33.25 3.45 L-33.0 -4.15 Q-33.0 -4.6 -33.25 -4.85 -33.55 -5.2 -33.95 -5.2 -34.4 -5.2 -34.65 -4.9 -35.0 -4.65 -35.0 -4.2 L-35.55 11.45 -35.25 11.7 Q-25.3 22.25 1.45 19.95 L13.9 18.35 13.3 19.75 Q13.1 20.15 13.3 20.55 13.4 20.9 13.8 21.1 L14.6 21.1 15.15 20.55 16.3 17.65 16.35 17.45 16.4 16.9 16.0 16.25 15.25 16.1 2.3 17.9 3.8 13.1 Q4.85 9.05 4.65 4.75 4.6 4.0 3.85 3.75 L-3.15 4.6 -30.0 3.8 -33.25 3.45 M-0.85 24.35 L-4.3 24.7 Q-31.05 27.0 -41.0 16.45 L-41.3 16.2 -40.8 2.5 -59.0 0.25 -84.8 -3.5 Q-79.9 5.9 -72.75 13.8 -53.15 35.4 -24.25 38.1 -12.55 39.05 -5.0 30.1 -2.7 27.35 -0.85 24.35 M-0.45 40.05 L0.25 40.35 0.95 40.1 3.1 37.95 3.4 37.25 3.1 36.55 Q2.8 36.25 2.4 36.25 2.0 36.25 1.7 36.55 L-0.45 38.65 -0.75 39.35 -0.45 40.05 M-1.0 41.45 Q-0.95 41.0 -1.25 40.7 -1.5 40.4 -1.9 40.35 L-2.65 40.6 -4.9 42.5 Q-5.25 42.7 -5.3 43.15 L-5.05 43.9 -4.4 44.25 -3.65 44.05 -1.35 42.1 -1.0 41.45 M17.45 5.7 L16.9 8.6 Q16.8 9.0 17.05 9.35 17.25 9.7 17.65 9.8 L18.4 9.65 18.85 9.0 19.4 6.05 19.2 5.3 Q18.95 4.95 18.6 4.9 L17.85 5.05 Q17.5 5.3 17.45 5.7 M16.7 10.8 L16.25 11.4 15.4 14.2 Q15.25 14.6 15.45 14.95 L16.05 15.45 16.8 15.4 17.3 14.8 18.2 11.95 18.1 11.15 17.5 10.7 16.7 10.8 M13.4 22.0 L12.65 21.9 12.05 22.4 10.6 24.95 Q10.35 25.3 10.5 25.7 L10.95 26.35 11.7 26.45 12.35 25.95 13.8 23.35 13.85 22.6 13.4 22.0 M10.9 27.8 L10.45 27.15 9.7 27.05 Q9.25 27.1 9.05 27.45 L7.4 29.85 Q7.15 30.2 7.2 30.6 7.25 31.0 7.6 31.25 L8.35 31.45 9.0 31.05 10.75 28.55 10.9 27.8 M3.45 35.2 L3.8 35.85 Q4.1 36.15 4.55 36.1 L5.2 35.75 7.2 33.45 7.4 32.7 7.05 32.05 Q6.7 31.75 6.3 31.8 5.9 31.85 5.65 32.2 L3.7 34.45 Q3.45 34.75 3.45 35.2" fill="#9f2020" fill-rule="evenodd" stroke="none"/>
    <path d="M18.15 -0.2 L18.5 -0.9 Q18.8 -1.2 19.25 -1.15 L19.9 -0.8 20.15 -0.05 19.85 3.0 19.45 3.65 18.75 3.85 18.05 3.45 Q17.8 3.15 17.85 2.75 L18.15 -0.2 M19.45 -6.75 L20.15 -6.45 20.45 -5.75 20.4 -3.15 20.1 -2.45 19.35 -2.2 Q18.95 -2.2 18.7 -2.5 18.4 -2.85 18.4 -3.25 L18.45 -5.75 Q18.45 -6.15 18.75 -6.45 19.05 -6.75 19.45 -6.75 M2.3 17.9 L15.25 16.1 16.0 16.25 16.4 16.9 16.35 17.45 16.3 17.65 15.15 20.55 14.6 21.1 13.8 21.1 Q13.4 20.9 13.3 20.55 13.1 20.15 13.3 19.75 L13.9 18.35 1.45 19.95 Q-25.3 22.25 -35.25 11.7 L-35.55 11.45 -35.0 -4.2 Q-35.0 -4.65 -34.65 -4.9 -34.4 -5.2 -33.95 -5.2 -33.55 -5.2 -33.25 -4.85 -33.0 -4.6 -33.0 -4.15 L-33.25 3.45 -33.5 10.6 Q-23.65 20.3 2.3 17.9 M3.45 35.2 Q3.45 34.75 3.7 34.45 L5.65 32.2 Q5.9 31.85 6.3 31.8 6.7 31.75 7.05 32.05 L7.4 32.7 7.2 33.45 5.2 35.75 4.55 36.1 Q4.1 36.15 3.8 35.85 L3.45 35.2 M10.9 27.8 L10.75 28.55 9.0 31.05 8.35 31.45 7.6 31.25 Q7.25 31.0 7.2 30.6 7.15 30.2 7.4 29.85 L9.05 27.45 Q9.25 27.1 9.7 27.05 L10.45 27.15 10.9 27.8 M13.4 22.0 L13.85 22.6 13.8 23.35 12.35 25.95 11.7 26.45 10.95 26.35 10.5 25.7 Q10.35 25.3 10.6 24.95 L12.05 22.4 12.65 21.9 13.4 22.0 M16.7 10.8 L17.5 10.7 18.1 11.15 18.2 11.95 17.3 14.8 16.8 15.4 16.05 15.45 15.45 14.95 Q15.25 14.6 15.4 14.2 L16.25 11.4 16.7 10.8 M17.45 5.7 Q17.5 5.3 17.85 5.05 L18.6 4.9 Q18.95 4.95 19.2 5.3 L19.4 6.05 18.85 9.0 18.4 9.65 17.65 9.8 Q17.25 9.7 17.05 9.35 16.8 9.0 16.9 8.6 L17.45 5.7 M-1.0 41.45 L-1.35 42.1 -3.65 44.05 -4.4 44.25 -5.05 43.9 -5.3 43.15 Q-5.25 42.7 -4.9 42.5 L-2.65 40.6 -1.9 40.35 Q-1.5 40.4 -1.25 40.7 -0.95 41.0 -1.0 41.45 M-0.45 40.05 L-0.75 39.35 -0.45 38.65 1.7 36.55 Q2.0 36.25 2.4 36.25 2.8 36.25 3.1 36.55 L3.4 37.25 3.1 37.95 0.95 40.1 0.25 40.35 -0.45 40.05" fill="#741818" fill-rule="evenodd" stroke="none"/>
    <path d="M51.95 -24.9 Q59.05 -25.85 61.5 -26.95 61.6 -24.1 60.15 -21.25 L60.05 -21.05 60.0 -20.85 59.7 -19.9 59.4 -19.55 59.4 -19.5 Q57.6 -17.6 51.95 -15.9 L51.95 -24.9 M10.15 -9.9 L10.0 -22.1 37.85 -23.55 44.3 -24.05 44.6 -14.1 36.7 -12.7 Q24.65 -10.85 10.15 -9.9 M-14.8 -21.7 L-0.2 -21.85 0.1 -9.35 Q-7.1 -9.1 -14.8 -9.0 L-14.8 -21.7" fill="#552b00" fill-rule="evenodd" stroke="none"/>
    <path d="M51.95 -28.65 Q60.05 -44.75 57.2 -65.65 54.4 -86.55 44.15 -113.1 33.9 -139.65 14.6 -152.35 -4.75 -165.05 -3.85 -163.8 -23.35 -168.25 -27.4 -168.5 L-27.45 -168.5 -29.2 -168.45 -33.95 -167.95 Q-45.3 -163.95 -52.75 -144.9 L-53.95 -144.6 Q-47.55 -161.25 -38.3 -166.95 -56.75 -161.8 -68.25 -139.1 -83.15 -109.95 -95.55 -80.0 L-99.0 -70.7 Q-105.6 -50.45 -103.3 -31.5 L-104.6 -30.85 -105.25 -30.45 Q-107.8 -50.2 -100.9 -71.3 -99.4 -76.0 -97.4 -80.75 -84.95 -110.75 -70.05 -140.0 -55.2 -169.3 -29.3 -170.45 L-27.45 -170.5 -20.2 -170.1 Q28.5 -164.1 49.1 -114.75 57.95 -93.5 61.2 -71.15 64.1 -51.2 62.65 -30.3 L62.15 -30.7 61.8 -30.55 51.95 -28.65 60.6 -29.9 60.5 -28.7 Q58.2 -27.75 51.95 -26.9 L51.95 -28.65 M-72.9 -79.2 L-74.1 -74.2 -73.5 -73.7 Q-72.5 -72.7 -72.5 -71.3 -72.5 -69.9 -73.5 -68.9 -74.35 -68.05 -75.45 -67.9 -76.9 -60.35 -77.55 -52.9 -77.0 -52.7 -76.5 -52.2 -75.5 -51.2 -75.5 -49.8 -75.5 -48.4 -76.5 -47.4 -77.15 -46.75 -77.95 -46.5 -78.25 -40.0 -77.85 -33.6 L-77.85 -33.4 Q-76.8 -33.25 -76.0 -32.45 -75.0 -31.45 -75.0 -30.05 -75.0 -28.65 -76.0 -27.65 L-76.8 -27.0 -80.35 -27.25 -80.8 -27.65 Q-81.8 -28.65 -81.8 -30.05 -81.8 -31.45 -80.8 -32.45 -79.95 -33.3 -78.85 -33.4 L-78.85 -33.55 Q-79.25 -39.9 -79.0 -46.4 -80.35 -46.45 -81.3 -47.4 -82.3 -48.4 -82.3 -49.8 -82.3 -51.2 -81.3 -52.2 -80.3 -53.2 -78.9 -53.2 L-78.55 -53.15 Q-77.9 -60.5 -76.45 -67.95 -77.5 -68.1 -78.3 -68.9 -79.3 -69.9 -79.3 -71.3 -79.3 -72.7 -78.3 -73.7 -77.3 -74.7 -75.9 -74.7 L-75.05 -74.6 -73.55 -80.5 -73.55 -80.65 -72.9 -79.2 M-78.75 -32.4 Q-79.55 -32.3 -80.1 -31.75 -80.8 -31.05 -80.8 -30.05 -80.8 -29.05 -80.1 -28.35 -79.4 -27.65 -78.4 -27.65 L-78.35 -27.65 -77.35 -27.85 -76.7 -28.35 Q-76.0 -29.05 -76.0 -30.05 -76.0 -31.05 -76.7 -31.75 -77.2 -32.2 -77.75 -32.35 L-78.4 -32.45 -78.75 -32.4 M-78.9 -52.2 Q-79.9 -52.2 -80.6 -51.5 -81.3 -50.8 -81.3 -49.8 -81.3 -48.8 -80.6 -48.1 -79.9 -47.4 -78.95 -47.4 L-78.9 -47.4 -77.9 -47.6 -77.2 -48.1 Q-76.5 -48.8 -76.5 -49.8 -76.5 -50.8 -77.2 -51.5 L-77.65 -51.85 -78.65 -52.15 -78.9 -52.2 M-73.5 -71.3 Q-73.5 -72.3 -74.2 -73.0 L-74.35 -73.15 -75.3 -73.6 -75.9 -73.7 Q-76.9 -73.7 -77.6 -73.0 -78.3 -72.3 -78.3 -71.3 -78.3 -70.3 -77.6 -69.6 -77.05 -69.05 -76.3 -68.9 L-75.9 -68.9 -75.25 -68.95 -74.2 -69.6 Q-73.5 -70.3 -73.5 -71.3" fill="#40362d" fill-rule="evenodd" stroke="none"/>
    <path d="M-57.4 -139.2 L-59.05 -129.5 -59.65 -124.3 Q-61.15 -110.0 -59.6 -96.85 L-70.4 -83.75 -73.7 -96.0 Q-66.95 -125.45 -60.65 -138.15 L-57.4 -139.2 M-33.25 3.45 L-30.0 3.8 -3.15 4.6 3.85 3.75 Q4.6 4.0 4.65 4.75 4.85 9.05 3.8 13.1 L2.3 17.9 Q-23.65 20.3 -33.5 10.6 L-33.25 3.45 M-0.85 24.35 Q-2.7 27.35 -5.0 30.1 -12.55 39.05 -24.25 38.1 -53.15 35.4 -72.75 13.8 -79.9 5.9 -84.8 -3.5 L-59.0 0.25 -40.8 2.5 -41.3 16.2 -41.0 16.45 Q-31.05 27.0 -4.3 24.7 L-0.85 24.35" fill="#c42626" fill-rule="evenodd" stroke="none"/>
    <path d="M-25.65 -113.15 Q-40.2 -111.35 -52.25 -113.7 L-52.35 -113.7 -52.35 -113.85 -52.2 -118.0 -52.1 -117.95 -42.15 -116.75 -38.7 -116.65 -25.55 -117.4 -25.65 -113.15" fill="#7d9432" fill-rule="evenodd" stroke="none"/>
    <path d="M-51.95 -119.5 L-43.35 -118.4 Q-40.0 -118.2 -36.4 -118.25 L-24.9 -119.1 -24.0 -119.2 -25.65 -113.1 -25.65 -113.15 -25.55 -117.4 -38.7 -116.65 -42.15 -116.75 -52.1 -117.95 -52.2 -118.0 -52.35 -113.85 -53.7 -119.9 -52.8 -119.7 -51.95 -119.5" fill="#3c4617" fill-rule="evenodd" stroke="none"/>
    <path d="M-92.25 -24.6 L-87.65 -24.15 -87.55 -14.1 -92.1 -15.15 -92.25 -24.6 M-100.3 -18.05 L-100.95 -18.45 -100.95 -18.5 Q-101.55 -18.9 -101.95 -19.25 L-102.7 -20.4 -102.75 -20.45 -102.8 -20.8 -102.8 -20.95 -103.65 -26.75 -100.3 -25.85 -100.3 -18.05 M-82.45 -13.15 L-82.4 -22.4 -70.45 -21.6 -70.55 -18.85 -71.55 -18.9 Q-73.25 -18.9 -74.45 -18.35 -76.2 -17.55 -76.05 -16.4 -76.2 -15.25 -74.45 -14.45 L-74.45 -14.4 -71.55 -13.9 -70.75 -13.9 -70.8 -11.5 -76.5 -12.25 -79.45 -12.65 -79.5 -12.7 -82.45 -13.15 M-64.85 -10.85 L-64.45 -22.55 -48.35 -22.0 -48.7 -9.6 -64.85 -10.85 M-38.55 -9.2 L-38.55 -21.8 -21.4 -21.7 -14.8 -21.7 -14.8 -9.0 -21.4 -8.95 Q-30.3 -8.95 -38.55 -9.2" fill="#663300" fill-rule="evenodd" stroke="none"/>
    <path d="M-76.8 -27.0 L-64.3 -26.15 -64.35 -24.55 -64.45 -22.55 -64.85 -10.85 -64.9 -8.8 -65.0 -6.75 -70.05 -7.45 -70.1 -7.45 -83.55 -9.4 -83.65 -9.4 -87.5 -9.9 -87.5 -12.05 -87.55 -14.1 -87.65 -24.15 -87.7 -26.15 -87.7 -27.75 -80.35 -27.25 -76.8 -27.0 M-70.8 -11.5 L-70.75 -13.9 -71.55 -13.9 -74.45 -14.4 -74.45 -14.45 Q-76.2 -15.25 -76.05 -16.4 -76.2 -17.55 -74.45 -18.35 -73.25 -18.9 -71.55 -18.9 L-70.55 -18.85 -70.45 -21.6 -82.4 -22.4 -82.45 -13.15 -82.45 -11.25 -70.9 -9.6 -70.8 -11.5 M-85.5 -11.65 L-84.45 -11.55 -84.4 -24.55 -68.4 -23.45 -68.6 -18.3 Q-66.9 -17.55 -67.05 -16.4 -66.9 -15.2 -68.7 -14.4 L-68.7 -14.45 -68.75 -14.4 -68.9 -9.3 -66.9 -9.05 -66.35 -24.3 -85.65 -25.6 -85.5 -11.65 M-69.5 -16.25 L-69.1 -16.4 -69.5 -16.5 -69.5 -16.55 -70.65 -16.85 -71.55 -16.9 -73.65 -16.5 -73.65 -16.55 -74.05 -16.4 -73.65 -16.25 -71.55 -15.9 -70.65 -15.95 Q-70.0 -16.05 -69.5 -16.25" fill="#a36023" fill-rule="evenodd" stroke="none"/>
    <path d="M-85.5 -11.65 L-85.65 -25.6 -66.35 -24.3 -66.9 -9.05 -68.9 -9.3 -68.75 -14.4 -68.7 -14.45 -68.7 -14.4 Q-66.9 -15.2 -67.05 -16.4 -66.9 -17.55 -68.6 -18.3 L-68.4 -23.45 -84.4 -24.55 -84.45 -11.55 -85.5 -11.65 M-69.5 -16.25 Q-70.0 -16.05 -70.65 -15.95 L-71.55 -15.9 -73.65 -16.25 -74.05 -16.4 -73.65 -16.55 -73.65 -16.5 -71.55 -16.9 -70.65 -16.85 -69.5 -16.55 -69.5 -16.5 -69.1 -16.4 -69.5 -16.25" fill="#f0a61c" fill-rule="evenodd" stroke="none"/>
  </g>
</svg>
