<?xml version="1.0" encoding="UTF-8" standalone="no"?>
<svg xmlns:ffdec="https://www.free-decompiler.com/flash" xmlns:xlink="http://www.w3.org/1999/xlink" ffdec:objectType="shape" height="31.5px" width="46.9px" xmlns="http://www.w3.org/2000/svg">
  <g transform="matrix(1.0, 0.0, 0.0, 1.0, 68.6, 17.8)">
    <path d="M-51.15 -7.65 L-51.15 -7.7 -51.15 -7.65 M-56.25 -0.2 L-55.1 -0.15 -52.45 1.0 -51.45 1.15 -50.85 1.7 -43.05 5.2 -42.95 5.8 -42.95 5.95 Q-43.0 9.0 -44.5 11.15 L-44.45 11.1 Q-46.2 13.8 -48.75 13.7 -51.3 13.8 -53.1 11.15 -54.6 9.0 -54.6 5.9 L-54.3 3.45 -57.05 1.85 -57.1 1.75 Q-57.35 1.15 -57.05 0.6 L-56.25 -0.2 M-48.75 10.2 Q-48.0 10.1 -47.4 9.2 L-47.4 9.15 Q-46.7 8.1 -46.5 6.7 L-51.0 4.85 -51.1 5.9 Q-51.1 7.8 -50.2 9.15 L-50.2 9.2 Q-49.6 10.1 -48.75 10.2" fill="#000000" fill-rule="evenodd" stroke="none"/>
    <path d="M-68.45 -7.45 Q-68.15 -8.9 -66.2 -10.5 -63.2 -13.0 -57.55 -12.55 -52.2 -12.1 -49.75 -9.7 -48.0 -7.95 -47.6 -5.95 -47.4 -5.3 -47.75 -3.55 -47.8 -3.25 -48.0 -3.1 L-48.55 -2.95 -49.05 -3.15 -49.25 -3.65 Q-49.4 -4.45 -50.5 -5.5 L-50.55 -5.55 -51.65 -6.2 Q-54.05 -7.0 -58.9 -5.5 L-58.95 -5.45 Q-63.2 -4.2 -63.75 -4.1 L-63.8 -4.1 Q-66.6 -3.5 -67.5 -4.45 L-67.5 -4.5 Q-68.95 -5.85 -68.45 -7.45 M-49.4 -6.6 Q-49.9 -7.65 -50.85 -8.6 -53.0 -10.65 -57.65 -11.0 -62.6 -11.4 -65.2 -9.3 -66.7 -8.15 -67.0 -7.1 -67.2 -6.3 -66.45 -5.6 L-64.1 -5.55 -64.1 -5.6 -59.35 -6.95 Q-53.9 -8.65 -51.15 -7.7 L-51.15 -7.65 Q-50.15 -7.35 -49.45 -6.6 L-49.4 -6.55 -49.4 -6.6 M-36.5 -15.85 L-36.6 -15.85 -36.5 -15.85 Q-35.55 -15.9 -34.55 -15.4 L-34.5 -15.4 Q-31.9 -14.2 -29.15 -9.15 L-26.7 -4.9 -26.7 -4.85 Q-25.7 -3.35 -25.0 -3.2 -24.0 -3.25 -23.55 -3.95 -23.1 -4.9 -23.3 -6.75 -23.75 -10.1 -27.55 -13.25 -31.2 -16.25 -34.15 -16.3 L-36.5 -15.85 M-39.7 -13.8 L-40.0 -14.3 -39.85 -14.8 -38.3 -16.65 Q-36.65 -17.8 -34.15 -17.8 -30.75 -17.9 -26.55 -14.45 -22.2 -10.8 -21.75 -6.95 -21.5 -4.45 -22.25 -3.15 -23.05 -1.7 -25.0 -1.7 L-25.05 -1.7 Q-26.4 -1.6 -27.95 -4.0 L-28.0 -4.0 -30.5 -8.4 Q-32.95 -12.9 -35.2 -14.0 L-36.45 -14.3 -36.5 -14.3 Q-38.1 -14.35 -38.7 -13.8 -38.95 -13.65 -39.2 -13.6 L-39.7 -13.8" fill="#271f16" fill-rule="evenodd" stroke="none"/>
    <path d="M-51.15 -7.7 Q-53.9 -8.65 -59.35 -6.95 L-64.1 -5.6 -64.1 -5.55 -66.45 -5.6 Q-67.2 -6.3 -67.0 -7.1 -66.7 -8.15 -65.2 -9.3 -62.6 -11.4 -57.65 -11.0 -53.0 -10.65 -50.85 -8.6 -49.9 -7.65 -49.4 -6.6 L-49.45 -6.6 Q-50.15 -7.35 -51.15 -7.65 L-51.15 -7.7 M-36.5 -15.85 L-34.15 -16.3 Q-31.2 -16.25 -27.55 -13.25 -23.75 -10.1 -23.3 -6.75 -23.1 -4.9 -23.55 -3.95 -24.0 -3.25 -25.0 -3.2 -25.7 -3.35 -26.7 -4.85 L-26.7 -4.9 -29.15 -9.15 Q-31.9 -14.2 -34.5 -15.4 L-34.55 -15.4 Q-35.55 -15.9 -36.5 -15.85" fill="#3c2b13" fill-rule="evenodd" stroke="none"/>
    <path d="M-49.4 -6.6 L-49.4 -6.55 -49.45 -6.6 -49.4 -6.6 M-36.5 -15.85 L-36.6 -15.85 -36.5 -15.85" fill="#2d251e" fill-rule="evenodd" stroke="none"/>
    <path d="M-35.55 -1.2 Q-34.5 -2.1 -33.25 -2.1 -31.3 -2.1 -29.95 -0.05 -28.55 2.0 -28.55 4.9 -28.55 7.8 -29.95 9.85 -31.3 11.9 -33.25 11.9 -35.15 11.9 -36.55 9.85 -37.9 7.8 -37.9 4.9 -37.9 3.3 -37.5 1.95 -37.2 0.85 -36.55 -0.05 L-35.55 -1.2 Z" fill="none" stroke="#000000" stroke-linecap="round" stroke-linejoin="round" stroke-width="3.5"/>
  </g>
</svg>
