<?xml version="1.0" encoding="UTF-8" standalone="no"?>
<svg xmlns:ffdec="https://www.free-decompiler.com/flash" xmlns:xlink="http://www.w3.org/1999/xlink" ffdec:objectType="shape" height="65.4px" width="78.7px" xmlns="http://www.w3.org/2000/svg">
  <g transform="matrix(1.0, 0.0, 0.0, 1.0, 56.35, 25.3)">
    <path d="M-8.45 -18.7 L-8.3 -18.6 Q-6.45 -16.45 -2.8 -15.8 L1.35 -15.2 Q4.95 -13.75 7.15 -12.0 L8.1 -13.0 10.4 -16.55 Q10.4 -18.25 6.45 -20.6 L4.25 -21.7 1.3 -22.75 Q-2.45 -23.8 -7.15 -23.8 -10.25 -23.8 -12.85 -22.0 L-13.45 -21.55 -12.1 -20.95 Q-9.3 -19.6 -8.45 -18.7 M6.45 -11.65 Q2.0 -15.3 -7.6 -15.9 L-3.85 -15.05 Q-0.9 -14.05 1.85 -12.1 L3.05 -11.2 Q5.9 -8.85 5.9 -7.0 5.9 -5.7 4.85 -5.7 3.55 -5.7 2.25 -6.25 0.25 -7.15 -1.7 -9.25 L-3.8 -11.6 -5.5 -13.5 -5.7 -13.75 -5.6 -13.55 -4.9 -12.45 Q-3.6 -10.45 -0.85 -7.7 L-0.2 -7.05 3.15 -4.1 Q4.85 -2.8 5.75 -2.8 9.25 -2.8 9.55 -6.0 9.5 -8.3 7.85 -10.3 L6.5 -11.6 6.45 -11.65 M4.85 -7.05 Q4.85 -8.5 1.65 -10.9 L-0.6 -12.45 -2.95 -13.05 -0.5 -9.75 Q0.95 -7.95 4.4 -6.9 L4.65 -6.7 Q4.85 -6.6 4.85 -7.05 M3.45 -2.55 L2.65 -2.8 Q2.55 -3.35 2.55 -2.55 2.55 -1.75 3.3 1.55 L3.35 1.75 Q4.15 5.15 4.15 8.9 4.7 15.8 2.35 18.0 L1.5 18.55 Q0.65 18.95 -0.4 18.95 L-1.15 18.75 -1.15 15.95 Q-0.5 12.65 -0.2 9.85 L0.05 5.6 Q0.0 0.45 -1.85 -3.75 L-2.55 -3.65 Q-2.95 -3.7 -9.1 -10.4 -11.65 -12.65 -17.5 -15.6 L-20.8 -15.1 Q-11.25 -13.3 -5.5 -3.4 -5.5 -1.65 -7.65 -1.65 -8.65 -1.65 -17.3 -8.65 -19.7 -10.65 -26.1 -11.85 L-33.5 -13.35 Q-40.2 -11.2 -45.8 -6.55 -50.4 -2.95 -52.3 2.5 -55.7 11.95 -52.25 21.0 L-51.55 22.65 -51.45 22.95 -51.4 23.0 Q-49.55 26.0 -46.35 27.5 -36.55 31.75 -25.8 31.2 L-25.75 31.2 Q-15.8 31.0 -6.75 26.6 L-6.7 26.6 Q-1.6 24.1 3.35 21.15 12.05 15.7 17.4 6.4 L17.25 6.1 17.2 5.9 17.15 5.85 Q16.5 1.05 14.1 -3.15 L14.05 -3.15 11.65 -6.6 11.7 -6.6 10.15 -8.25 10.6 -6.0 Q10.55 -4.9 9.65 -3.45 8.4 -1.65 6.6 -1.65 L3.45 -2.55 M-27.05 -17.25 L-26.15 -17.4 Q-26.45 -18.25 -26.3 -19.4 -26.35 -22.9 -19.75 -22.9 L-15.55 -22.3 -14.4 -23.15 Q-12.65 -24.1 -7.1 -25.25 L-5.35 -25.3 Q7.35 -25.3 11.85 -16.5 L8.95 -12.35 Q11.35 -10.55 13.45 -8.1 L13.45 -8.05 16.1 -4.3 Q18.5 -0.2 19.35 4.45 L21.15 4.35 21.75 4.5 22.2 4.95 22.35 5.55 22.35 14.3 22.1 15.0 19.65 18.0 Q12.55 26.4 3.25 32.05 -5.7 37.35 -15.7 39.0 -26.85 41.15 -38.1 39.15 -46.55 37.7 -56.25 32.35 L-56.35 31.8 -56.35 24.2 Q-56.35 23.7 -56.0 23.35 -55.65 23.0 -55.15 23.0 L-53.95 23.0 Q-58.45 12.65 -54.55 1.7 -52.4 -4.3 -47.25 -8.35 -38.4 -15.7 -27.05 -17.25 M-20.95 -18.25 Q-20.95 -20.15 -18.15 -20.15 L-16.45 -20.1 -15.0 -20.0 Q-12.15 -19.65 -10.45 -18.55 L-8.25 -16.65 -8.15 -16.95 Q-8.15 -18.0 -9.85 -19.15 -10.7 -19.7 -11.9 -20.25 L-14.05 -21.1 -16.05 -21.6 -21.65 -22.1 Q-25.65 -21.45 -25.6 -19.35 -25.65 -18.3 -25.35 -17.5 -24.75 -15.7 -22.7 -15.7 L-13.7 -16.75 -12.9 -16.8 -13.85 -17.35 -14.55 -17.3 -18.25 -16.8 Q-20.4 -16.8 -20.9 -18.05 L-20.95 -18.25 M-31.05 -13.85 Q-22.85 -12.95 -16.45 -9.2 -13.1 -7.25 -8.25 -2.8 L-7.6 -2.7 Q-7.0 -2.65 -6.95 -3.1 -7.0 -5.9 -11.8 -9.55 -18.05 -14.35 -27.35 -14.35 L-31.05 -13.85 M-9.6 -13.95 Q-12.25 -15.05 -15.4 -15.55 L-16.6 -15.7 -16.8 -15.7 -17.15 -15.65 -14.95 -14.9 -12.8 -13.95 Q-10.3 -12.65 -8.2 -10.75 L-2.7 -4.85 -2.45 -4.95 -2.7 -5.4 Q-5.45 -10.3 -7.1 -12.7 L-9.6 -13.95 M-14.95 -19.2 L-14.9 -18.9 -14.8 -18.4 Q-13.8 -18.4 -12.45 -17.65 -11.05 -17.05 -10.45 -17.1 -11.65 -18.25 -14.95 -19.2 M-16.3 -18.35 L-16.45 -19.55 Q-19.15 -20.0 -19.65 -18.25 L-16.3 -18.35 M-2.6 -7.45 L-1.5 -5.7 -0.9 -4.3 0.05 -1.2 Q1.05 2.8 1.1 5.65 L1.05 7.85 Q0.8 11.75 -0.1 16.3 L-0.1 17.8 Q4.15 16.8 3.25 9.0 L2.65 4.25 1.65 0.4 Q0.6 -3.0 -0.5 -5.0 L-1.45 -6.4 -2.6 -7.45 M19.8 7.1 L18.7 9.3 Q12.25 18.3 4.55 23.15 -0.5 26.15 -5.7 28.7 -15.2 33.3 -25.65 33.5 L-25.7 33.5 Q-37.0 34.1 -47.3 29.65 L-47.35 29.6 Q-50.85 27.95 -52.95 24.85 L-52.8 25.1 -52.8 25.0 -52.9 24.85 -53.25 24.55 Q-54.1 24.5 -54.1 24.95 L-54.0 25.4 -54.0 31.15 -53.9 31.2 Q-46.45 35.45 -37.15 37.15 -27.9 38.8 -16.1 36.75 -6.5 35.15 2.05 30.1 11.0 24.6 17.85 16.5 L20.0 13.85 20.5 8.0 20.55 7.8 20.55 6.7 20.15 6.65 19.95 6.7 19.95 6.75 19.75 6.75 19.75 6.8 19.8 7.0 19.8 7.1" fill="#342112" fill-rule="evenodd" stroke="none"/>
    <path d="M-8.45 -18.7 L-4.95 -17.75 0.2 -16.75 1.6 -16.65 Q3.7 -16.7 3.7 -18.3 3.7 -20.1 1.3 -22.75 L4.25 -21.7 6.45 -20.6 Q10.4 -18.25 10.4 -16.55 L8.1 -13.0 7.15 -12.0 Q4.95 -13.75 1.35 -15.2 L-2.8 -15.8 Q-6.45 -16.45 -8.3 -18.6 L-8.45 -18.7 M4.85 -7.05 Q4.85 -6.6 4.65 -6.7 L4.4 -6.9 Q0.95 -7.95 -0.5 -9.75 L-2.95 -13.05 -0.6 -12.45 1.65 -10.9 Q4.85 -8.5 4.85 -7.05 M3.3 1.55 L3.55 -0.95 3.45 -2.55 6.6 -1.65 Q8.4 -1.65 9.65 -3.45 10.55 -4.9 10.6 -6.0 L10.15 -8.25 11.7 -6.6 11.65 -6.6 14.05 -3.15 14.1 -3.15 Q16.5 1.05 17.15 5.85 L17.2 5.9 17.25 6.1 17.4 6.4 Q12.05 15.7 3.35 21.15 -1.6 24.1 -6.7 26.6 L-6.75 26.6 Q-15.8 31.0 -25.75 31.2 L-25.8 31.2 Q-36.55 31.75 -46.35 27.5 -49.55 26.0 -51.4 23.0 L-51.45 22.95 -51.55 22.65 -52.25 21.0 -51.1 21.6 Q-43.95 25.35 -32.75 25.35 -13.9 25.35 -3.65 14.15 -1.65 11.95 -0.2 9.85 -0.5 12.65 -1.15 15.95 L-1.15 18.75 -0.4 18.95 Q0.65 18.95 1.5 18.55 L2.35 18.0 Q4.7 15.8 4.15 8.9 4.15 5.15 3.35 1.75 L3.3 1.55 M-14.9 -18.9 L-14.9 -18.85 -14.95 -19.2 Q-11.65 -18.25 -10.45 -17.1 -11.05 -17.05 -12.45 -17.65 -13.8 -18.4 -14.8 -18.4 L-14.9 -18.9" fill="#4c2c02" fill-rule="evenodd" stroke="none"/>
    <path d="M11.7 -6.6 L11.65 -6.6 11.7 -6.6 M-14.9 -18.9 L-14.95 -19.2 -14.9 -18.85 -14.9 -18.9 M19.8 7.15 L19.8 7.0 19.8 7.1 19.9 7.15 19.8 7.15" fill="#cccccc" fill-rule="evenodd" stroke="none"/>
    <path d="M1.3 -22.75 Q3.7 -20.1 3.7 -18.3 3.7 -16.7 1.6 -16.65 L0.2 -16.75 -4.95 -17.75 -8.45 -18.7 Q-9.3 -19.6 -12.1 -20.95 L-13.45 -21.55 -12.85 -22.0 Q-10.25 -23.8 -7.15 -23.8 -2.45 -23.8 1.3 -22.75 M3.3 1.55 Q2.55 -1.75 2.55 -2.55 2.55 -3.35 2.65 -2.8 L3.45 -2.55 3.55 -0.95 3.3 1.55 M-52.25 21.0 Q-55.7 11.95 -52.3 2.5 -50.4 -2.95 -45.8 -6.55 -40.2 -11.2 -33.5 -13.35 L-26.1 -11.85 Q-19.7 -10.65 -17.3 -8.65 -8.65 -1.65 -7.65 -1.65 -5.5 -1.65 -5.5 -3.4 -11.25 -13.3 -20.8 -15.1 L-17.5 -15.6 Q-11.65 -12.65 -9.1 -10.4 -2.95 -3.7 -2.55 -3.65 L-1.85 -3.75 Q0.0 0.45 0.05 5.6 L-0.2 9.85 Q-1.65 11.95 -3.65 14.15 -13.9 25.35 -32.75 25.35 -43.95 25.35 -51.1 21.6 L-52.25 21.0" fill="#663300" fill-rule="evenodd" stroke="none"/>
    <path d="M-27.05 -17.25 L-27.0 -17.25 -27.05 -17.25 M19.8 7.1 L19.8 7.0 19.8 7.15 19.8 7.1" fill="#232323" fill-rule="evenodd" stroke="none"/>
    <path d="M-52.95 24.85 Q-50.85 27.95 -47.35 29.6 L-47.3 29.65 Q-37.0 34.1 -25.7 33.5 L-25.65 33.5 Q-15.2 33.3 -5.7 28.7 -0.5 26.15 4.55 23.15 12.25 18.3 18.7 9.3 L19.8 7.1 19.8 7.0 19.75 6.8 19.75 6.75 19.95 6.75 19.95 6.7 20.15 6.65 20.55 6.7 20.55 7.8 20.5 8.0 20.0 13.85 17.85 16.5 Q11.0 24.6 2.05 30.1 -6.5 35.15 -16.1 36.75 -27.9 38.8 -37.15 37.15 -46.45 35.45 -53.9 31.2 L-54.0 31.15 -54.0 25.4 -54.1 24.95 Q-54.1 24.5 -53.25 24.55 L-52.9 24.85 -52.95 24.85 M19.8 7.15 L19.9 7.15 19.8 7.1 19.8 7.15 M19.25 10.1 L19.1 10.15 19.0 10.2 19.55 10.0 19.25 10.1" fill="#934900" fill-rule="evenodd" stroke="none"/>
    <path d="M-52.9 24.85 L-52.8 25.0 -52.8 25.1 -52.95 24.85 -52.9 24.85" fill="#999999" fill-rule="evenodd" stroke="none"/>
    <path d="M19.25 10.1 L19.55 10.0 19.0 10.2 19.1 10.15 19.25 10.1" fill="#333333" fill-rule="evenodd" stroke="none"/>
    <path d="M6.45 -11.65 L6.5 -11.6 7.85 -10.3 Q9.5 -8.3 9.55 -6.0 9.25 -2.8 5.75 -2.8 4.85 -2.8 3.15 -4.1 L-0.2 -7.05 -0.85 -7.7 Q-3.6 -10.45 -4.9 -12.45 L-5.6 -13.55 -5.7 -13.75 -5.5 -13.5 -3.8 -11.6 -1.7 -9.25 Q0.25 -7.15 2.25 -6.25 3.55 -5.7 4.85 -5.7 5.9 -5.7 5.9 -7.0 5.9 -8.85 3.05 -11.2 L1.85 -12.1 Q-0.9 -14.05 -3.85 -15.05 L-7.6 -15.9 Q2.0 -15.3 6.45 -11.65 M-9.6 -13.95 L-7.1 -12.7 Q-5.45 -10.3 -2.7 -5.4 L-2.45 -4.95 -2.7 -4.85 -8.2 -10.75 Q-10.3 -12.65 -12.8 -13.95 L-14.95 -14.9 -17.15 -15.65 -16.8 -15.7 -16.6 -15.7 -15.4 -15.55 Q-12.25 -15.05 -9.6 -13.95 M-31.05 -13.85 L-27.35 -14.35 Q-18.05 -14.35 -11.8 -9.55 -7.0 -5.9 -6.95 -3.1 -7.0 -2.65 -7.6 -2.7 L-8.25 -2.8 Q-13.1 -7.25 -16.45 -9.2 -22.85 -12.95 -31.05 -13.85 M-20.95 -18.25 L-20.9 -18.05 Q-20.4 -16.8 -18.25 -16.8 L-14.55 -17.3 -13.85 -17.35 -12.9 -16.8 -13.7 -16.75 -22.7 -15.7 Q-24.75 -15.7 -25.35 -17.5 -25.65 -18.3 -25.6 -19.35 -25.65 -21.45 -21.65 -22.1 L-16.05 -21.6 -14.05 -21.1 -11.9 -20.25 Q-10.7 -19.7 -9.85 -19.15 -8.15 -18.0 -8.15 -16.95 L-8.25 -16.65 -10.45 -18.55 Q-12.15 -19.65 -15.0 -20.0 L-16.45 -20.1 -18.15 -20.15 Q-20.95 -20.15 -20.95 -18.25 M-2.6 -7.45 L-1.45 -6.4 -0.5 -5.0 Q0.6 -3.0 1.65 0.4 L2.65 4.25 3.25 9.0 Q4.15 16.8 -0.1 17.8 L-0.1 16.3 Q0.8 11.75 1.05 7.85 L1.1 5.65 Q1.05 2.8 0.05 -1.2 L-0.9 -4.3 -1.5 -5.7 -2.6 -7.45" fill="#482f1a" fill-rule="evenodd" stroke="none"/>
  </g>
</svg>
