<?xml version="1.0" encoding="UTF-8" standalone="no"?>
<svg xmlns:ffdec="https://www.free-decompiler.com/flash" xmlns:xlink="http://www.w3.org/1999/xlink" ffdec:objectType="shape" height="56.9px" width="84.3px" xmlns="http://www.w3.org/2000/svg">
  <g transform="matrix(1.0, 0.0, 0.0, 1.0, 64.9, 31.0)">
    <path d="M3.5 -23.9 Q5.25 -23.4 6.85 -22.7 L9.3 -21.45 Q13.75 -18.85 13.8 -16.9 L13.6 -16.55 Q11.05 -19.75 4.9 -22.3 L4.8 -22.35 3.5 -23.9 M5.4 -17.35 Q8.55 -14.85 8.85 -13.35 L4.95 -17.15 5.4 -17.35 M6.25 -8.0 Q6.2 -8.9 6.35 -8.3 L10.85 -6.95 11.2 -7.0 12.85 -5.25 Q11.4 -6.45 12.55 -4.45 14.9 -0.65 15.15 8.4 L14.85 9.75 14.75 9.7 11.95 8.9 11.85 8.9 8.15 7.9 8.05 4.95 Q8.05 0.7 7.15 -3.15 6.2 -7.05 6.25 -8.0 M11.15 11.4 L11.05 11.4 11.05 11.35 11.15 11.4 M-4.0 -15.95 Q-3.1 -15.6 -2.3 -15.6 L-2.2 -15.6 0.3 -11.25 Q3.4 -5.8 3.4 1.2 L3.05 6.8 -3.05 5.9 Q0.95 0.75 1.05 -4.8 1.3 -9.15 -1.5 -13.0 L-1.55 -13.0 -3.25 -15.15 -4.0 -15.95" fill="#4c2c02" fill-rule="evenodd" stroke="none"/>
    <path d="M4.8 -22.35 L4.9 -22.3 Q11.05 -19.75 13.6 -16.55 L13.8 -16.9 Q13.75 -18.85 9.3 -21.45 L6.85 -22.7 Q5.25 -23.4 3.5 -23.9 -0.3 -24.95 -4.9 -25.05 -2.95 -23.5 0.2 -22.95 L4.8 -22.35 M14.4 -15.35 Q15.3 -13.7 15.3 -11.9 15.3 -10.65 14.25 -9.0 L13.2 -7.8 16.4 -2.85 Q18.2 1.15 17.15 10.9 18.45 11.85 19.2 13.25 19.45 13.7 19.35 14.25 L18.35 18.05 18.0 18.65 17.4 18.95 17.2 19.0 Q16.4 21.55 13.85 22.55 7.9 24.75 1.65 25.25 L-11.0 25.85 -22.85 25.9 -33.6 25.8 -40.65 25.65 -53.7 24.75 -53.8 24.7 -58.4 23.75 Q-59.4 23.55 -60.25 22.9 L-61.15 22.15 -61.5 21.55 -61.5 20.95 Q-62.65 19.6 -63.55 15.0 L-63.7 14.95 -64.25 14.45 Q-64.55 14.0 -64.45 13.5 -64.35 12.95 -63.9 12.65 L-63.45 12.35 Q-66.35 1.7 -63.35 -6.75 -60.85 -13.45 -55.15 -17.95 -45.1 -26.05 -32.3 -28.1 L-32.3 -28.05 -25.6 -29.15 Q-23.95 -31.0 -18.9 -31.0 -14.9 -31.0 -10.3 -28.75 -7.65 -27.5 -6.55 -26.6 L-5.95 -26.7 -3.95 -26.75 Q10.35 -26.8 15.45 -16.85 L14.4 -15.35 M10.65 -18.3 Q8.6 -19.95 5.6 -21.05 2.1 -22.35 -2.6 -22.85 L-5.2 -23.1 -1.9 -22.4 Q1.95 -21.3 5.45 -18.8 L6.15 -18.3 Q10.05 -15.35 10.05 -13.0 L9.9 -12.15 Q9.6 -11.6 8.85 -11.6 L7.25 -11.75 Q4.3 -12.45 1.4 -15.6 L-1.3 -18.65 -3.05 -20.65 Q-2.4 -19.35 -1.05 -17.65 0.5 -15.65 3.15 -13.1 8.05 -8.3 9.85 -8.3 L10.05 -8.3 Q11.5 -8.35 12.45 -8.9 13.9 -9.8 14.1 -11.9 14.1 -13.15 13.7 -14.3 L13.05 -15.6 Q12.15 -17.0 10.65 -18.3 M5.4 -17.35 L5.25 -17.45 2.5 -19.25 4.95 -17.15 8.85 -13.35 Q8.55 -14.85 5.4 -17.35 M6.25 -8.0 Q6.2 -7.05 7.15 -3.15 8.05 0.7 8.05 4.95 L8.15 7.9 11.85 8.9 11.95 8.9 14.75 9.7 14.85 9.75 15.15 8.4 Q14.9 -0.65 12.55 -4.45 11.4 -6.45 12.85 -5.25 L11.2 -7.0 10.85 -6.95 6.35 -8.3 Q6.2 -8.9 6.25 -8.0 M0.45 -13.55 Q2.15 -11.5 3.4 -6.5 4.55 -2.0 4.6 1.25 L4.25 7.05 3.9 9.6 3.25 13.3 3.25 14.95 4.1 14.65 Q6.45 13.65 7.0 10.3 L7.2 7.65 7.0 5.0 Q7.0 1.35 5.25 -4.65 3.05 -11.85 0.45 -13.55 M15.9 5.0 L15.85 5.25 15.9 5.2 15.9 5.0 M11.05 11.35 L8.0 10.5 Q7.55 13.5 6.2 14.95 L9.8 15.5 14.85 16.4 15.15 16.2 16.1 16.1 16.65 14.05 16.05 13.4 Q15.3 12.7 14.3 12.35 L14.0 12.25 11.15 11.4 11.05 11.35 M-3.05 5.9 L3.05 6.8 3.4 1.2 Q3.4 -5.8 0.3 -11.25 L-2.2 -15.6 -2.3 -15.6 Q-3.1 -15.6 -4.0 -15.95 -5.65 -16.65 -7.6 -18.7 L-8.35 -19.5 -7.7 -18.7 -17.0 -24.15 -17.0 -24.4 -22.05 -26.25 -21.95 -26.3 Q-26.95 -26.35 -31.9 -25.25 L-32.0 -25.25 Q-43.95 -23.65 -53.55 -15.9 -58.55 -11.7 -60.85 -5.85 -63.95 2.8 -61.8 11.45 -60.55 10.8 -59.1 10.4 L-53.55 9.0 -53.45 9.0 -45.9 7.65 -45.85 7.65 -32.1 6.0 -15.95 5.15 -5.85 5.65 -3.05 5.9 M2.1 12.9 L2.7 9.4 -5.2 8.35 -6.1 8.3 -6.15 8.3 -15.9 7.75 -15.95 7.75 -31.85 8.6 -31.9 8.6 -45.45 10.25 -53.0 11.55 -52.9 11.55 -58.4 13.0 Q-59.8 13.35 -61.05 14.05 L-61.9 14.5 -60.85 16.65 -60.4 17.8 -60.1 17.7 -59.5 17.6 -56.2 17.05 -50.45 16.1 -43.0 14.75 -42.95 14.75 -30.95 13.3 -30.85 13.3 -19.25 12.95 Q-15.3 12.9 -11.3 13.1 L-9.7 13.2 2.1 14.4 2.1 12.9 M-53.35 22.1 L-40.55 23.0 -33.55 23.15 -22.85 23.3 -11.0 23.2 1.45 22.6 Q7.3 22.15 12.95 20.1 13.9 19.7 14.4 18.95 L5.95 17.55 1.9 17.05 -9.9 15.85 -16.25 15.6 -19.2 15.6 -19.25 15.6 -30.65 15.9 -42.55 17.35 -42.6 17.35 -50.05 18.65 -50.4 18.7 -57.45 19.9 -58.6 20.1 -58.75 20.8 -57.8 21.2 -53.4 22.15 -53.35 22.15 -53.35 22.1 M-16.0 -25.15 L-15.85 -25.1 Q-14.75 -24.75 -12.1 -23.2 -8.2 -21.0 -7.0 -19.35 L-7.05 -19.15 -3.2 -16.7 Q-2.6 -16.7 -2.3 -17.05 L-2.3 -17.15 Q-2.35 -18.35 -2.95 -19.6 -4.1 -20.9 -6.9 -22.55 L-7.85 -23.1 Q-13.85 -26.4 -18.1 -26.35 L-18.1 -26.25 -17.9 -26.1 -16.55 -25.25 -16.45 -25.25 -16.0 -25.15 M-13.9 -28.05 L-12.55 -27.5 -10.7 -27.05 -9.75 -26.7 -8.45 -26.05 Q-6.5 -24.1 -5.95 -23.95 L-5.8 -24.25 -5.95 -24.85 -6.05 -25.05 -7.35 -26.4 Q-8.4 -27.2 -10.1 -27.95 -15.05 -30.25 -21.05 -30.05 -22.85 -29.8 -23.9 -29.2 L-24.05 -29.15 -23.5 -29.2 Q-18.7 -29.3 -13.9 -28.05" fill="#342112" fill-rule="evenodd" stroke="none"/>
    <path d="M3.5 -23.9 L4.8 -22.35 0.2 -22.95 Q-2.95 -23.5 -4.9 -25.05 -0.3 -24.95 3.5 -23.9 M4.95 -17.15 L2.5 -19.25 5.25 -17.45 5.4 -17.35 4.95 -17.15 M-4.0 -15.95 L-3.25 -15.15 -1.55 -13.0 -1.5 -13.0 Q1.3 -9.15 1.05 -4.8 0.95 0.75 -3.05 5.9 L-5.85 5.65 -15.95 5.15 -32.1 6.0 -45.85 7.65 -45.9 7.65 -53.45 9.0 -53.55 9.0 -59.1 10.4 Q-60.55 10.8 -61.8 11.45 -63.95 2.8 -60.85 -5.85 -58.55 -11.7 -53.55 -15.9 -43.95 -23.65 -32.0 -25.25 L-31.9 -25.25 Q-26.95 -26.35 -21.95 -26.3 L-22.05 -26.25 -17.0 -24.4 -17.0 -24.15 -7.7 -18.7 -8.35 -19.5 -7.6 -18.7 Q-5.65 -16.65 -4.0 -15.95 M-42.6 17.35 L-42.55 17.35 -42.6 17.35" fill="#663300" fill-rule="evenodd" stroke="none"/>
    <path d="M15.9 5.0 L15.9 5.2 15.85 5.25 15.9 5.0 M18.7 6.4 L18.9 6.6 18.8 6.5 18.7 6.4" fill="#cccccc" fill-rule="evenodd" stroke="none"/>
    <path d="M18.15 9.6 L18.0 9.65 17.85 9.65 18.15 9.6 M17.95 8.25 L17.75 8.55 17.65 8.55 17.95 8.25" fill="#333333" fill-rule="evenodd" stroke="none"/>
    <path d="M11.15 11.4 L11.05 11.4 11.15 11.4 M-53.35 22.1 L-53.35 22.15 -53.4 22.1 -53.35 22.1 M-42.55 17.35 L-42.6 17.35 -42.55 17.35" fill="#232323" fill-rule="evenodd" stroke="none"/>
    <path d="M11.05 11.4 L11.15 11.4 14.0 12.25 14.3 12.35 Q15.3 12.7 16.05 13.4 L16.65 14.05 16.1 16.1 15.15 16.2 14.85 16.4 9.8 15.5 6.2 14.95 Q7.55 13.5 8.0 10.5 L11.05 11.35 11.05 11.4 M2.1 12.9 L2.1 14.4 -9.7 13.2 -11.3 13.1 Q-15.3 12.9 -19.25 12.95 L-30.85 13.3 -30.95 13.3 -42.95 14.75 -43.0 14.75 -50.45 16.1 -56.2 17.05 -59.5 17.6 -60.1 17.7 -60.4 17.8 -60.85 16.65 -61.9 14.5 -61.05 14.05 Q-59.8 13.35 -58.4 13.0 L-52.9 11.55 -53.0 11.55 -45.45 10.25 -31.9 8.6 -31.85 8.6 -15.95 7.75 -15.9 7.75 -6.15 8.3 -6.1 8.3 -5.2 8.35 2.7 9.4 2.1 12.9" fill="#934900" fill-rule="evenodd" stroke="none"/>
    <path d="M-42.55 17.35 L-30.65 15.9 -19.25 15.6 -19.2 15.6 -16.25 15.6 -9.9 15.85 1.9 17.05 5.95 17.55 14.4 18.95 Q13.9 19.7 12.95 20.1 7.3 22.15 1.45 22.6 L-11.0 23.2 -22.85 23.3 -33.55 23.15 -40.55 23.0 -53.35 22.1 -53.4 22.1 -53.4 22.15 -57.8 21.2 -58.75 20.8 -58.6 20.1 -57.45 19.9 -50.4 18.7 -50.05 18.65 -42.6 17.35 -42.55 17.35" fill="#58380e" fill-rule="evenodd" stroke="none"/>
    <path d="M10.65 -18.3 Q12.15 -17.0 13.05 -15.6 L13.7 -14.3 Q14.1 -13.15 14.1 -11.9 13.9 -9.8 12.45 -8.9 11.5 -8.35 10.05 -8.3 L9.85 -8.3 Q8.05 -8.3 3.15 -13.1 0.5 -15.65 -1.05 -17.65 -2.4 -19.35 -3.05 -20.65 L-1.3 -18.65 1.4 -15.6 Q4.3 -12.45 7.25 -11.75 L8.85 -11.6 Q9.6 -11.6 9.9 -12.15 L10.05 -13.0 Q10.05 -15.35 6.15 -18.3 L5.45 -18.8 Q1.95 -21.3 -1.9 -22.4 L-5.2 -23.1 -2.6 -22.85 Q2.1 -22.35 5.6 -21.05 8.6 -19.95 10.65 -18.3 M0.45 -13.55 Q3.05 -11.85 5.25 -4.65 7.0 1.35 7.0 5.0 L7.2 7.65 7.0 10.3 Q6.45 13.65 4.1 14.65 L3.25 14.95 3.25 13.3 3.9 9.6 4.25 7.05 4.6 1.25 Q4.55 -2.0 3.4 -6.5 2.15 -11.5 0.45 -13.55 M-16.0 -25.15 L-16.45 -25.25 -16.55 -25.25 -17.9 -26.1 -18.1 -26.25 -18.1 -26.35 Q-13.85 -26.4 -7.85 -23.1 L-6.9 -22.55 Q-4.1 -20.9 -2.95 -19.6 -2.35 -18.35 -2.3 -17.15 L-2.3 -17.05 Q-2.6 -16.7 -3.2 -16.7 L-7.05 -19.15 -7.0 -19.35 Q-8.2 -21.0 -12.1 -23.2 -14.75 -24.75 -15.85 -25.1 L-16.0 -25.15 M-23.5 -29.2 L-24.05 -29.15 -23.9 -29.2 Q-22.85 -29.8 -21.05 -30.05 -15.05 -30.25 -10.1 -27.95 -8.4 -27.2 -7.35 -26.4 L-6.05 -25.05 -5.95 -24.85 -5.8 -24.25 -5.95 -23.95 Q-6.5 -24.1 -8.45 -26.05 L-9.75 -26.7 -10.7 -27.05 -12.55 -27.5 -13.9 -28.05 Q-17.5 -29.35 -21.4 -29.35 L-23.5 -29.2" fill="#482f1a" fill-rule="evenodd" stroke="none"/>
  </g>
</svg>
