<?xml version="1.0" encoding="UTF-8" standalone="no"?>
<svg xmlns:ffdec="https://www.free-decompiler.com/flash" xmlns:xlink="http://www.w3.org/1999/xlink" ffdec:objectType="shape" height="55.4px" width="85.45px" xmlns="http://www.w3.org/2000/svg">
  <g transform="matrix(1.0, 0.0, 0.0, 1.0, 63.55, 29.95)">
    <path d="M3.45 -18.15 Q9.0 -18.15 13.75 -14.15 17.8 -10.75 17.8 -8.3 17.85 -5.9 15.1 -5.9 L13.5 -6.9 Q10.65 -11.35 8.5 -12.85 6.2 -15.7 3.45 -18.15 M19.7 6.0 L15.05 0.15 14.85 -2.0 Q15.8 -0.4 17.15 1.25 L20.35 4.95 Q20.35 5.4 19.7 6.0" fill="#482f1a" fill-rule="evenodd" stroke="none"/>
    <path d="M-0.65 -6.3 Q3.2 -5.0 6.7 -3.0 L12.05 0.0 12.4 0.25 12.25 -0.7 Q11.6 -4.3 10.35 -6.35 9.25 -8.25 10.65 -7.1 L7.95 -10.0 6.0 -12.5 Q3.6 -15.35 0.7 -17.75 L-0.85 -19.0 -1.1 -19.2 -2.2 -20.0 Q-5.95 -22.6 -10.3 -24.6 L-10.35 -24.7 -10.55 -24.75 Q-13.5 -26.0 -16.7 -26.75 L-16.75 -26.75 -32.1 -26.2 -32.15 -26.2 Q-43.6 -24.65 -52.75 -17.25 -57.5 -13.25 -59.7 -7.65 -61.35 -3.0 -61.45 1.65 L-60.25 0.0 Q-57.5 -3.6 -50.4 -5.95 -43.35 -8.35 -38.95 -9.35 -30.05 -11.5 -21.1 -10.05 -12.45 -9.7 -4.15 -7.35 L-0.65 -6.3 M3.45 -18.15 Q6.2 -15.7 8.5 -12.85 10.65 -11.35 13.5 -6.9 L15.1 -5.9 Q17.85 -5.9 17.8 -8.3 17.8 -10.75 13.75 -14.15 9.0 -18.15 3.45 -18.15 M-44.65 -5.7 Q-50.75 -4.25 -55.5 -1.6 -60.25 1.0 -60.45 4.8 L-60.85 10.9 -60.3 10.1 Q-56.95 5.05 -51.4 2.55 -50.0 1.9 -48.45 1.45 -44.65 -0.15 -40.75 -1.0 L-30.5 -2.7 Q-23.5 -3.05 -16.4 -2.6 L-10.35 -1.6 Q-6.45 -0.75 -2.7 0.75 0.1 1.85 2.8 3.3 L6.9 6.0 Q9.7 8.2 11.7 10.8 L12.8 12.3 13.4 4.65 12.75 3.75 Q10.55 1.15 5.65 -0.95 3.0 -2.15 0.3 -3.15 L-1.0 -3.6 Q-5.5 -5.15 -10.25 -6.2 L-23.85 -8.2 Q-32.25 -9.15 -44.85 -5.8 L-44.65 -5.8 -44.65 -5.7 M-62.1 15.95 Q-63.4 12.05 -63.2 9.55 L-63.05 5.65 Q-64.4 -2.1 -62.1 -8.55 -59.7 -14.9 -54.25 -19.2 -44.65 -26.95 -32.45 -28.9 L-32.45 -28.85 Q-23.0 -31.25 -13.7 -28.5 -7.6 -28.45 -3.4 -25.05 -0.9 -23.0 -0.25 -21.25 L1.65 -19.75 Q9.9 -19.35 15.0 -14.7 18.95 -11.05 18.95 -8.3 18.95 -4.8 15.75 -4.8 L15.2 -4.8 21.9 4.8 21.0 6.45 19.7 7.9 16.4 4.15 16.45 4.2 16.3 4.1 15.1 2.75 15.1 2.85 15.55 3.45 16.4 4.4 13.8 16.95 Q12.7 17.5 11.8 18.4 L9.9 19.75 Q4.6 21.95 -0.85 23.4 L-9.35 24.8 Q-23.8 26.05 -38.2 24.9 L-48.9 23.1 -54.45 21.65 Q-57.15 20.6 -59.5 19.2 -60.65 18.5 -61.3 17.3 L-61.8 16.15 -61.85 16.05 -62.1 15.95 M19.7 6.0 Q20.35 5.4 20.35 4.95 L17.15 1.25 Q15.8 -0.4 14.85 -2.0 L15.05 0.15 19.7 6.0 M-58.25 11.7 L-58.65 12.65 -58.75 12.9 -59.0 13.7 -59.15 15.1 Q-59.15 16.0 -58.65 16.75 L-57.95 17.5 -57.4 17.9 -51.05 20.35 -43.0 21.75 -32.9 22.7 -20.9 22.95 -9.55 22.3 -1.45 20.95 Q4.3 19.7 9.45 16.95 L10.95 16.0 11.0 16.0 11.25 15.5 Q10.95 13.55 9.65 12.25 L9.55 12.1 8.5 11.0 7.45 9.95 6.85 9.35 5.5 8.2 3.65 6.75 Q0.45 4.7 -3.0 3.25 L-4.05 2.85 -5.25 2.4 -5.35 2.4 Q-10.95 0.55 -16.6 -0.05 L-25.2 -0.15 -35.55 0.7 Q-40.2 1.35 -44.75 2.55 -50.15 4.2 -54.5 7.35 -56.95 9.05 -58.25 11.7" fill="#342112" fill-rule="evenodd" stroke="none"/>
    <path d="M-10.35 -24.7 L-10.3 -24.6 Q-5.95 -22.6 -2.2 -20.0 L-1.1 -19.2 -0.85 -19.0 0.7 -17.75 Q3.6 -15.35 6.0 -12.5 L7.95 -10.0 10.65 -7.1 Q9.25 -8.25 10.35 -6.35 11.6 -4.3 12.25 -0.7 L12.4 0.25 12.05 0.0 6.7 -3.0 Q3.2 -5.0 -0.65 -6.3 L-0.65 -6.65 Q-0.4 -10.8 -3.1 -14.5 -6.75 -19.8 -16.85 -25.8 L-16.9 -26.25 -16.75 -26.75 -16.7 -26.75 Q-13.5 -26.0 -10.55 -24.75 L-10.5 -24.7 -10.35 -24.7" fill="#4c2c02" fill-rule="evenodd" stroke="none"/>
    <path d="M16.3 4.1 L16.45 4.2 16.4 4.15 16.3 4.15 16.25 4.0 16.3 4.1" fill="#cccccc" fill-rule="evenodd" stroke="none"/>
    <path d="M-0.65 -6.3 L-4.15 -7.35 Q-12.45 -9.7 -21.1 -10.05 -30.05 -11.5 -38.95 -9.35 -43.35 -8.35 -50.4 -5.95 -57.5 -3.6 -60.25 0.0 L-61.45 1.65 Q-61.35 -3.0 -59.7 -7.65 -57.5 -13.25 -52.75 -17.25 -43.6 -24.65 -32.15 -26.2 L-32.1 -26.2 -16.75 -26.75 -16.9 -26.25 -16.85 -25.8 Q-6.75 -19.8 -3.1 -14.5 -0.4 -10.8 -0.65 -6.65 L-0.65 -6.3" fill="#663300" fill-rule="evenodd" stroke="none"/>
    <path d="M-10.55 -24.75 L-10.35 -24.7 -10.5 -24.7 -10.55 -24.75 M-44.65 -5.8 Q-38.65 -7.15 -44.65 -5.7 L-44.65 -5.8 M-62.1 15.95 L-61.85 16.05 -61.8 16.15 -61.35 18.05 -62.1 15.95" fill="#232323" fill-rule="evenodd" stroke="none"/>
    <path d="M-44.65 -5.8 L-44.85 -5.8 Q-32.25 -9.15 -23.85 -8.2 L-10.25 -6.2 Q-5.5 -5.15 -1.0 -3.6 L0.3 -3.15 Q3.0 -2.15 5.65 -0.95 10.55 1.15 12.75 3.75 L13.4 4.65 12.8 12.3 11.7 10.8 Q9.7 8.2 6.9 6.0 L2.8 3.3 Q0.1 1.85 -2.7 0.75 -6.45 -0.75 -10.35 -1.6 L-16.4 -2.6 Q-23.5 -3.05 -30.5 -2.7 L-40.75 -1.0 Q-44.65 -0.15 -48.45 1.45 -50.0 1.9 -51.4 2.55 -56.95 5.05 -60.3 10.1 L-60.85 10.9 -60.45 4.8 Q-60.25 1.0 -55.5 -1.6 -50.75 -4.25 -44.65 -5.7 -38.65 -7.15 -44.65 -5.8 M-58.25 11.7 Q-56.95 9.05 -54.5 7.35 -50.15 4.2 -44.75 2.55 -40.2 1.35 -35.55 0.7 L-25.2 -0.15 -16.6 -0.05 Q-10.95 0.55 -5.35 2.4 L-5.3 2.4 -27.25 4.8 Q-44.7 6.75 -46.7 8.95 -46.2 9.45 -45.7 9.45 -48.0 8.2 -17.65 8.2 L-9.3 8.3 Q3.35 8.6 7.45 9.95 L-14.6 11.65 -22.3 12.1 Q-36.5 12.9 -36.5 14.45 -36.5 15.15 -36.15 15.1 L-26.55 15.45 -26.15 15.45 -3.6 14.2 2.75 14.3 Q-0.25 16.6 -6.4 17.5 L-16.25 18.15 -26.2 17.5 -33.7 16.5 Q-44.2 14.9 -58.25 11.7" fill="#934900" fill-rule="evenodd" stroke="none"/>
    <path d="M-5.25 2.4 L-4.05 2.85 -3.0 3.25 Q0.45 4.7 3.65 6.75 L5.5 8.2 6.85 9.35 7.45 9.95 8.5 11.0 9.55 12.1 9.65 12.25 Q10.95 13.55 11.25 15.5 L11.0 16.0 10.95 16.0 9.45 16.95 Q4.3 19.7 -1.45 20.95 L-9.55 22.3 -20.9 22.95 -32.9 22.7 -43.0 21.75 -51.05 20.35 -57.4 17.9 -57.95 17.5 -58.65 16.75 Q-59.15 16.0 -59.15 15.1 L-59.0 13.7 -58.75 12.9 -58.65 12.65 -58.25 11.7 Q-44.2 14.9 -33.7 16.5 L-26.2 17.5 -16.25 18.15 -6.4 17.5 Q-0.25 16.6 2.75 14.3 L-3.6 14.2 -26.15 15.45 -26.55 15.45 -36.15 15.1 Q-36.5 15.15 -36.5 14.45 -36.5 12.9 -22.3 12.1 L-14.6 11.65 7.45 9.95 Q3.35 8.6 -9.3 8.3 L-17.65 8.2 Q-48.0 8.2 -45.7 9.45 -46.2 9.45 -46.7 8.95 -44.7 6.75 -27.25 4.8 L-5.3 2.4 -5.25 2.4" fill="#58380e" fill-rule="evenodd" stroke="none"/>
    <path d="M-5.35 2.4 L-5.25 2.4 -5.3 2.4 -5.35 2.4" fill="#999999" fill-rule="evenodd" stroke="none"/>
  </g>
</svg>
