<?xml version="1.0" encoding="UTF-8" standalone="no"?>
<svg xmlns:ffdec="https://www.free-decompiler.com/flash" xmlns:xlink="http://www.w3.org/1999/xlink" ffdec:objectType="shape" height="82.6px" width="134.0px" xmlns="http://www.w3.org/2000/svg">
  <g transform="matrix(1.0, 0.0, 0.0, 1.0, 89.6, 37.25)">
    <path d="M23.9 -3.95 Q36.15 4.05 40.95 16.0 36.35 13.05 31.6 13.6 L30.0 13.7 27.35 12.8 Q36.25 24.7 32.25 35.95 29.85 29.7 27.4 28.0 L25.95 23.65 25.6 27.3 Q24.45 30.85 22.25 32.35 L19.9 33.3 Q19.35 27.2 16.5 22.2 13.6 17.15 7.85 13.2 2.1 9.25 -2.05 1.95 L-2.1 1.6 Q0.2 -1.15 1.75 -4.1 0.2 -2.3 -2.25 -0.05 L-3.25 0.8 Q-9.9 6.5 -22.4 14.6 -32.2 10.45 -32.45 4.3 L-32.9 -0.65 Q-41.6 10.5 -42.85 21.25 -50.15 17.2 -54.9 1.25 -67.7 20.25 -63.05 34.25 -69.6 35.2 -73.6 25.1 -78.75 33.1 -77.1 39.8 -82.2 35.8 -86.3 18.85 -90.45 1.8 -78.6 -13.15 -66.7 -28.3 -53.05 -32.05 -39.45 -35.85 -24.9 -27.7 -11.95 -20.4 -0.25 -13.2 L2.45 -11.5 3.25 -10.9 3.95 -9.8 4.25 -10.85 Q14.4 -10.15 23.9 -3.95" fill="#3c2b13" fill-rule="evenodd" stroke="none"/>
    <path d="M23.9 -3.95 Q14.4 -10.15 4.25 -10.85 L3.95 -9.8 3.25 -10.9 2.45 -11.5 -0.25 -13.2 Q-11.95 -20.4 -24.9 -27.7 -39.45 -35.85 -53.05 -32.05 -66.7 -28.3 -78.6 -13.15 -90.45 1.8 -86.3 18.85 -82.2 35.8 -77.1 39.8 -78.75 33.1 -73.6 25.1 -69.6 35.2 -63.05 34.25 -67.7 20.25 -54.9 1.25 -50.15 17.2 -42.85 21.25 -41.6 10.5 -32.9 -0.65 L-32.45 4.3 Q-32.2 10.45 -22.4 14.6 -9.9 6.5 -3.25 0.8 L-2.25 -0.05 Q0.2 -2.3 1.75 -4.1 0.2 -1.15 -2.1 1.6 L-2.05 1.95 Q2.1 9.25 7.85 13.2 13.6 17.15 16.5 22.2 19.35 27.2 19.9 33.3 L22.25 32.35 Q24.45 30.85 25.6 27.3 L25.95 23.65 27.4 28.0 Q29.85 29.7 32.25 35.95 36.25 24.7 27.35 12.8 L30.0 13.7 31.6 13.6 Q36.35 13.05 40.95 16.0 36.15 4.05 23.9 -3.95 M4.75 -13.65 Q16.3 -13.9 26.65 -6.9 40.15 2.2 43.7 18.35 L44.4 21.25 44.3 21.3 42.0 19.4 Q37.8 15.85 33.45 15.65 38.85 26.35 32.9 35.7 L32.0 37.25 31.1 35.65 Q29.2 32.3 27.05 30.45 25.5 32.65 23.3 34.1 L23.25 34.2 Q21.35 35.2 19.15 35.65 L17.95 35.95 17.9 34.7 Q17.55 28.3 14.8 22.75 12.7 18.55 9.1 15.8 2.35 10.7 -2.0 3.3 L-2.05 3.3 -2.6 2.25 Q-9.5 10.2 -22.55 16.45 L-23.05 16.65 -23.5 16.4 Q-31.95 11.7 -34.0 6.5 -40.3 13.15 -40.95 23.5 L-41.15 25.5 -42.65 24.2 Q-50.0 18.25 -54.45 8.9 -63.8 19.05 -60.75 35.35 L-60.55 36.75 -61.9 36.6 Q-68.1 35.85 -71.75 31.75 -74.4 35.8 -75.55 42.8 L-76.0 45.35 -77.45 43.2 Q-84.45 33.0 -88.55 17.35 -92.8 1.4 -80.2 -14.45 -67.9 -30.15 -53.2 -35.3 -38.4 -40.55 -23.05 -31.65 -8.2 -23.05 4.25 -14.15 L4.8 -13.75 4.75 -13.65" fill="#271f16" fill-rule="evenodd" stroke="none"/>
  </g>
</svg>
