<?xml version="1.0" encoding="UTF-8" standalone="no"?>
<svg xmlns:ffdec="https://www.free-decompiler.com/flash" xmlns:xlink="http://www.w3.org/1999/xlink" ffdec:objectType="shape" height="59.1px" width="66.5px" xmlns="http://www.w3.org/2000/svg">
  <g transform="matrix(1.0, 0.0, 0.0, 1.0, 38.5, 3.55)">
    <path d="M-9.4 0.8 L-9.35 0.8 -9.4 0.8" fill="#f1ba87" fill-rule="evenodd" stroke="none"/>
    <path d="M-6.15 -1.3 L-6.3 -1.2 -6.35 -1.15 -6.15 -1.3 M14.95 21.35 L15.25 21.7 15.15 21.75 14.95 21.35 M21.7 30.1 L21.7 30.05 21.75 30.1 21.7 30.1 M7.6 46.75 L7.7 46.7 7.7 47.35 7.6 46.75 M8.4 48.25 L8.7 48.4 8.45 48.3 8.4 48.25 M11.0 47.85 L11.0 47.8 11.05 47.8 11.0 47.85 M12.25 46.95 L12.25 46.9 12.3 46.85 12.25 46.95 M-36.05 24.8 L-36.1 24.8 -36.05 24.8" fill="#754b33" fill-rule="evenodd" stroke="none"/>
    <path d="M-2.5 -3.05 L-3.45 -2.65 -5.8 -1.5 -5.8 -1.45 -6.15 -1.3 -6.35 -1.15 -6.7 -0.9 -6.8 -0.7 -7.0 -0.25 -7.55 -0.05 Q-7.05 -0.15 -8.85 2.2 -10.7 4.5 -12.65 6.1 L-14.85 7.8 Q-20.7 10.6 -26.65 12.95 L-26.6 12.95 Q-28.5 13.75 -30.15 14.85 -31.55 15.75 -32.55 17.05 L-32.55 17.1 -35.2 20.45 Q-36.7 22.5 -36.05 24.8 L-36.1 24.8 -35.65 25.65 -35.6 25.65 Q-33.05 28.55 -29.05 28.45 L-26.6 27.8 -26.55 27.75 -23.65 25.7 -23.6 25.7 -18.1 20.35 -18.05 20.35 Q-16.6 18.7 -14.55 18.0 L-14.15 17.9 Q-12.1 18.0 -10.7 19.65 -8.6 22.1 -8.15 25.15 -7.95 26.8 -8.25 28.5 L-9.95 38.2 -11.2 44.15 Q-12.05 48.2 -10.2 51.9 -9.7 52.95 -8.5 53.25 -6.85 53.45 -5.3 53.2 -2.4 52.65 -0.6 50.3 1.7 47.2 2.3 43.5 2.9 39.4 2.85 35.4 2.75 31.0 2.15 26.8 L2.15 26.75 2.1 24.65 2.1 24.55 Q2.1 23.9 2.55 23.3 L3.05 22.85 3.5 22.8 3.65 22.8 3.65 23.1 3.65 23.15 4.15 26.2 5.1 32.6 Q6.3 40.55 7.6 46.75 L7.7 47.35 7.7 46.7 Q7.85 47.55 8.4 48.25 L8.45 48.3 8.7 48.4 11.0 47.85 11.05 47.8 11.0 47.8 12.25 46.95 12.3 46.85 12.25 46.9 Q14.8 44.3 15.7 40.7 17.0 35.3 14.1 26.45 12.1 20.3 10.85 17.65 L10.65 17.2 10.6 17.05 Q10.95 16.75 11.45 16.8 L11.55 16.85 12.15 17.2 13.25 18.6 14.2 20.0 14.95 21.35 15.15 21.75 Q16.8 25.05 18.8 28.1 19.9 29.7 21.7 30.1 L21.75 30.1 21.7 30.05 24.7 29.75 Q25.35 29.1 25.6 27.95 26.05 25.8 25.25 23.8 23.7 20.2 21.2 17.05 L17.45 12.35 17.45 12.4 Q13.6 7.8 9.05 3.55 L8.7 2.95 8.7 2.9 8.5 2.3 7.25 0.2 Q6.1 -1.35 4.05 -2.75 L3.45 -3.55 Q7.35 -3.15 9.0 -0.45 9.85 1.0 11.8 3.15 L19.1 10.95 19.1 11.0 22.9 15.7 Q25.6 19.05 27.3 22.9 L27.3 22.95 Q28.35 25.55 27.8 28.4 27.35 30.4 26.1 31.5 L25.8 31.7 Q23.85 32.6 21.4 32.3 L21.3 32.25 Q19.25 31.85 17.8 30.35 19.1 35.8 17.85 41.15 16.85 45.4 13.9 48.45 L13.8 48.5 12.05 49.75 12.0 49.8 Q10.1 50.75 8.25 50.65 L7.85 50.5 6.85 49.8 6.8 49.75 Q5.05 47.8 5.05 43.3 L4.95 39.7 4.45 43.8 Q3.8 48.05 1.2 51.6 -1.1 54.65 -4.9 55.35 L-8.8 55.5 -8.9 55.45 Q-11.2 54.95 -12.2 52.85 L-12.2 52.9 Q-14.35 48.5 -13.35 43.7 L-13.35 43.65 -12.1 37.8 -10.4 28.1 Q-10.15 26.8 -10.35 25.45 -10.7 23.05 -12.35 21.1 L-12.4 21.05 Q-13.1 20.25 -14.05 20.15 -15.4 20.65 -16.4 21.85 L-16.45 21.85 Q-19.2 24.8 -22.15 27.3 L-22.15 27.35 Q-23.8 28.8 -25.6 29.75 L-25.65 29.8 Q-27.25 30.5 -28.75 30.7 L-28.85 30.7 Q-34.05 30.85 -37.3 27.05 L-37.35 27.05 -38.2 25.5 -38.2 25.45 Q-39.15 22.1 -37.05 19.15 L-34.25 15.65 -34.25 15.7 Q-33.0 14.1 -31.4 13.0 -29.55 11.8 -27.5 10.9 L-27.45 10.9 Q-21.8 8.65 -16.25 6.0 -11.3 2.15 -8.7 -1.95 L-6.5 -2.75 -2.5 -3.05 M-9.4 0.8 L-9.35 0.8 -9.4 0.8" fill="#654425" fill-rule="evenodd" stroke="none"/>
    <path d="M1.2 -3.25 L2.6 -1.05 4.2 3.15 Q6.25 7.0 11.35 11.1 15.55 14.4 19.15 18.65 23.6 23.9 23.6 26.8 23.6 28.45 22.6 28.45 21.05 28.45 15.35 21.75 L15.25 21.7 14.95 21.35 14.2 20.0 13.25 18.6 12.15 17.2 11.55 16.85 11.45 16.8 Q10.95 16.75 10.6 17.05 L10.65 17.2 10.85 17.65 7.5 15.3 Q7.35 15.4 7.35 15.65 7.35 17.15 10.95 23.3 14.5 29.45 14.5 35.55 13.95 41.9 11.2 41.95 8.6 41.95 6.15 31.45 4.85 25.75 3.65 23.15 L3.65 23.1 3.65 22.8 3.5 22.8 Q2.6 20.9 1.7 20.95 0.4 20.9 -0.15 22.8 -0.5 23.75 -0.5 24.7 -0.5 26.95 0.75 31.55 1.95 36.1 1.95 38.25 1.95 40.8 0.45 43.95 -1.9 48.8 -6.5 48.85 -8.2 48.85 -9.0 45.15 L-9.45 41.45 Q-9.45 38.5 -7.9 33.55 -6.35 28.65 -6.3 25.75 -6.35 22.8 -8.7 19.35 -11.05 16.05 -12.7 16.05 -15.75 16.0 -19.5 20.05 -23.2 24.05 -26.5 24.05 -29.7 24.05 -29.7 20.95 -29.75 17.55 -27.1 15.15 -24.45 12.75 -17.55 9.95 -7.4 5.7 -6.3 -1.2 L-6.15 -1.3 -5.8 -1.45 -5.8 -1.5 -3.45 -2.65 -2.5 -3.05 0.1 -3.3 0.75 -3.3 1.2 -3.25" fill="#f0a866" fill-rule="evenodd" stroke="none"/>
    <path d="M15.25 21.7 L15.35 21.75 Q21.05 28.45 22.6 28.45 23.6 28.45 23.6 26.8 23.6 23.9 19.15 18.65 15.55 14.4 11.35 11.1 6.25 7.0 4.2 3.15 L2.6 -1.05 1.2 -3.25 4.05 -2.75 Q6.1 -1.35 7.25 0.2 L8.5 2.3 8.7 2.9 8.7 2.95 9.05 3.55 Q13.6 7.8 17.45 12.4 L17.45 12.35 21.2 17.05 Q23.7 20.2 25.25 23.8 26.05 25.8 25.6 27.95 25.35 29.1 24.7 29.75 L21.7 30.05 21.7 30.1 Q19.9 29.7 18.8 28.1 16.8 25.05 15.15 21.75 L15.25 21.7 M-6.3 -1.2 Q-7.4 5.7 -17.55 9.95 -24.45 12.75 -27.1 15.15 -29.75 17.55 -29.7 20.95 -29.7 24.05 -26.5 24.05 -23.2 24.05 -19.5 20.05 -15.75 16.0 -12.7 16.05 -11.05 16.05 -8.7 19.35 -6.35 22.8 -6.3 25.75 -6.35 28.65 -7.9 33.55 -9.45 38.5 -9.45 41.45 L-9.0 45.15 Q-8.2 48.85 -6.5 48.85 -1.9 48.8 0.45 43.95 1.95 40.8 1.95 38.25 1.95 36.1 0.75 31.55 -0.5 26.95 -0.5 24.7 -0.5 23.75 -0.15 22.8 0.4 20.9 1.7 20.95 2.6 20.9 3.5 22.8 L3.05 22.85 2.55 23.3 Q2.1 23.9 2.1 24.55 L2.1 24.65 2.15 26.75 2.15 26.8 Q2.75 31.0 2.85 35.4 2.9 39.4 2.3 43.5 1.7 47.2 -0.6 50.3 -2.4 52.65 -5.3 53.2 -6.85 53.45 -8.5 53.25 -9.7 52.95 -10.2 51.9 -12.05 48.2 -11.2 44.15 L-9.95 38.2 -8.25 28.5 Q-7.95 26.8 -8.15 25.15 -8.6 22.1 -10.7 19.65 -12.1 18.0 -14.15 17.9 L-14.55 18.0 Q-16.6 18.7 -18.05 20.35 L-18.1 20.35 -23.6 25.7 -23.65 25.7 -26.55 27.75 -26.6 27.8 -29.05 28.45 Q-33.05 28.55 -35.6 25.65 L-35.65 25.65 -36.1 24.8 -36.05 24.8 Q-36.7 22.5 -35.2 20.45 L-32.55 17.1 -32.55 17.05 Q-31.55 15.75 -30.15 14.85 -28.5 13.75 -26.6 12.95 L-26.65 12.95 Q-20.7 10.6 -14.85 7.8 L-12.65 6.1 Q-10.7 4.5 -8.85 2.2 -7.05 -0.15 -7.55 -0.05 L-7.0 -0.25 -6.8 -0.7 -6.7 -0.9 -6.35 -1.15 -6.3 -1.2 M3.65 23.15 Q4.85 25.75 6.15 31.45 8.6 41.95 11.2 41.95 13.95 41.9 14.5 35.55 14.5 29.45 10.95 23.3 7.35 17.15 7.35 15.65 7.35 15.4 7.5 15.3 L10.85 17.65 Q12.1 20.3 14.1 26.45 17.0 35.3 15.7 40.7 14.8 44.3 12.25 46.9 L12.25 46.95 11.0 47.8 11.0 47.85 8.7 48.4 8.4 48.25 Q7.85 47.55 7.7 46.7 L7.6 46.75 Q6.3 40.55 5.1 32.6 L4.15 26.2 3.65 23.15 M4.4 26.15 L4.35 26.05 4.35 26.2 4.4 26.25 Q4.65 26.5 4.4 26.15" fill="#e79d5a" fill-rule="evenodd" stroke="none"/>
  </g>
</svg>
