<?xml version="1.0" encoding="UTF-8" standalone="no"?>
<svg xmlns:ffdec="https://www.free-decompiler.com/flash" xmlns:xlink="http://www.w3.org/1999/xlink" ffdec:objectType="shape" height="49.7px" width="55.2px" xmlns="http://www.w3.org/2000/svg">
  <g transform="matrix(1.0, 0.0, 0.0, 1.0, 26.75, 3.5)">
    <path d="M12.75 10.2 L13.0 10.35 12.75 10.2 M17.8 25.9 L17.7 25.75 17.75 25.75 17.8 25.9" fill="#ffcc99" fill-rule="evenodd" stroke="none"/>
    <path d="M7.8 0.6 L7.65 0.1 7.85 0.65 7.8 0.6 M11.25 27.35 L11.0 27.45 11.0 27.4 11.25 27.35" fill="#f1ba87" fill-rule="evenodd" stroke="none"/>
    <path d="M5.1 -2.7 L5.05 -2.7 5.1 -2.7 M15.5 24.25 L15.5 24.2 15.55 24.2 15.5 24.25 M12.8 10.45 L12.75 10.2 13.0 10.35 13.15 10.45 13.0 10.45 12.8 10.45 M-21.05 27.9 L-20.8 27.95 -21.0 28.65 -21.05 27.9" fill="#4b3121" fill-rule="evenodd" stroke="none"/>
    <path d="M7.8 0.65 L7.8 0.6 7.85 0.65 7.8 0.65 M-22.15 27.7 L-22.2 27.55 -22.2 27.25 -22.15 27.7" fill="#83563a" fill-rule="evenodd" stroke="none"/>
    <path d="M5.1 -2.7 Q8.35 -1.8 11.15 0.05 17.4 1.1 28.2 15.2 L28.45 15.85 Q28.6 21.75 19.8 25.1 L21.75 30.75 21.8 30.75 22.4 32.65 22.45 32.35 23.3 34.95 23.3 35.0 Q23.4 36.95 19.15 40.35 L19.1 40.35 Q15.0 43.45 10.35 43.45 8.35 43.45 6.4 42.7 L6.1 42.5 3.85 44.6 3.75 44.6 Q0.95 46.2 -1.25 46.2 -12.0 46.15 -12.3 39.35 L-12.55 39.6 -13.3 39.85 Q-17.1 39.85 -21.25 37.65 L-21.3 37.65 Q-25.65 35.15 -25.5 33.05 L-25.5 33.0 Q-27.55 19.5 -26.25 17.65 -25.2 15.75 -12.65 4.35 -13.35 4.5 -8.65 0.3 L-6.3 -1.55 -6.2 -1.55 -5.6 -1.95 -3.65 -2.85 -2.1 -3.3 -2.8 -2.7 -5.15 -0.3 -6.95 1.15 -6.7 1.4 -7.25 1.9 Q-11.7 5.85 -12.8 8.25 L-13.1 8.6 -13.5 8.95 -18.25 12.95 -19.5 13.95 -19.55 14.0 -23.1 17.2 -23.4 17.55 -24.4 18.75 Q-25.25 20.4 -23.4 32.8 L-23.4 32.95 Q-23.25 34.05 -20.3 35.75 L-20.25 35.8 -20.25 35.75 Q-16.8 37.55 -13.65 37.7 L-12.8 37.05 Q-12.5 36.8 -12.15 36.8 -11.85 32.5 -10.9 29.4 -9.95 26.15 -8.3 24.05 L-7.1 22.8 -6.2 22.1 -6.45 21.25 -6.5 20.05 -6.5 19.95 Q-6.6 18.05 -5.65 16.4 L-5.6 16.05 Q-5.6 13.4 -8.15 13.4 -10.95 13.5 -14.75 16.7 L-15.25 17.15 -15.25 17.2 -16.85 18.95 Q-19.05 21.75 -20.5 26.8 L-20.8 27.95 -21.05 27.9 -21.2 27.7 -21.35 27.4 Q-21.5 27.0 -21.05 27.55 L-21.05 27.15 -21.05 26.45 -20.75 23.45 -20.6 22.7 -20.6 22.65 -20.05 20.6 Q-20.6 20.45 -21.05 20.1 L-22.4 18.7 Q-22.25 18.45 -21.7 18.35 L-21.1 18.35 -19.2 18.65 Q-18.2 16.9 -16.75 15.65 L-16.7 15.6 -16.15 15.1 -16.1 15.0 Q-11.55 11.2 -8.15 11.3 -4.6 11.3 -4.35 12.35 L-2.4 12.25 -1.1 12.0 -0.05 11.7 0.45 11.55 0.95 11.4 1.25 11.3 2.5 10.8 Q8.65 8.6 12.75 10.2 L12.8 10.45 Q7.9 10.9 2.05 13.3 -2.0 14.8 -3.55 17.1 L-3.6 17.2 -3.65 17.2 Q-4.45 18.5 -4.4 20.0 L-4.4 20.1 -4.35 20.75 -3.9 21.95 -3.8 22.2 -3.25 23.1 -3.0 23.45 Q-1.75 24.95 -0.4 25.05 L-0.15 25.05 4.15 25.75 Q9.75 25.7 15.5 24.2 L15.5 24.25 15.55 24.25 Q16.4 23.9 17.3 23.7 L17.25 23.75 17.9 23.55 18.0 23.45 18.2 23.45 Q25.85 20.75 26.25 16.15 16.25 3.1 10.65 2.2 L10.15 2.0 Q9.05 1.2 7.85 0.65 L7.65 0.1 7.8 0.6 7.8 0.65 7.1 0.3 7.05 0.25 Q5.05 -2.05 5.05 -2.7 L5.1 -2.7 M17.8 25.9 L17.75 25.75 17.7 25.75 16.15 26.25 16.1 26.3 15.75 26.4 12.55 27.15 11.25 27.35 11.0 27.4 7.25 27.8 Q5.85 29.45 6.3 32.4 L6.3 32.45 6.65 40.6 7.2 40.7 Q8.75 41.3 10.35 41.3 L11.7 41.25 Q14.45 40.9 16.95 39.25 L17.8 38.65 19.3 37.4 Q21.0 35.8 21.2 34.95 L21.2 34.8 21.15 34.8 20.65 34.0 20.05 32.4 19.7 31.4 19.75 31.4 17.8 25.9 M-2.65 44.0 L-1.25 44.05 Q0.45 44.0 2.6 42.8 4.3 41.6 4.5 40.85 L4.5 40.4 4.15 32.7 Q3.75 29.85 3.2 28.35 L3.2 27.8 2.25 27.7 2.25 27.65 1.1 27.5 -0.25 27.2 -0.4 27.2 Q-2.55 27.2 -4.5 24.95 -6.8 25.7 -8.05 28.15 L-8.85 30.05 Q-9.95 33.6 -10.15 38.8 -10.0 43.6 -2.65 44.0" fill="#654425" fill-rule="evenodd" stroke="none"/>
    <path d="M7.05 0.25 L7.1 0.3 7.8 0.65 7.85 0.65 Q9.05 1.2 10.15 2.0 L10.65 2.2 Q16.25 3.1 26.25 16.15 25.85 20.75 18.2 23.45 L18.0 23.45 17.9 23.55 17.25 23.75 17.3 23.7 Q16.4 23.9 15.55 24.25 L15.55 24.2 15.5 24.2 Q9.75 25.7 4.15 25.75 L-0.15 25.05 -0.4 25.05 Q-1.75 24.95 -3.0 23.45 L-3.25 23.1 -1.1 20.05 Q1.25 17.05 7.5 16.2 L15.35 15.2 Q17.65 14.7 17.65 13.35 17.6 11.9 14.8 9.5 11.75 6.95 9.5 6.95 6.05 6.95 1.25 9.4 L1.1 9.45 0.6 8.85 Q-0.25 9.05 -2.3 7.95 -4.65 6.7 -7.0 6.7 L-10.0 7.25 -9.85 6.8 Q-8.45 4.65 -7.45 3.75 -5.7 2.0 -2.2 2.0 L1.95 2.0 Q0.85 0.85 0.9 -0.85 L-1.6 -1.2 1.55 -1.25 1.6 -1.25 Q4.45 -0.85 7.05 0.25 M-8.3 24.05 Q-9.95 26.15 -10.9 29.4 -11.85 32.5 -12.15 36.8 -12.5 36.8 -12.8 37.05 L-13.65 37.7 Q-16.8 37.55 -20.25 35.75 L-20.3 35.75 Q-23.25 34.05 -23.4 32.95 L-23.4 32.8 Q-25.25 20.4 -24.4 18.75 L-23.4 17.55 Q-23.95 18.25 -23.95 19.75 -23.95 23.3 -22.2 27.55 L-22.15 27.7 -22.05 27.85 -20.9 30.2 Q-20.95 31.9 -15.8 20.6 L-16.0 20.05 Q-14.15 18.25 -12.35 18.3 -9.8 18.25 -9.25 21.2 -8.85 23.1 -8.3 24.05 M12.55 27.15 Q14.65 27.0 16.1 29.0 17.55 30.9 17.55 32.85 17.55 35.55 11.7 41.25 L10.35 41.3 Q8.75 41.3 7.2 40.7 L6.65 40.6 6.3 32.45 6.3 32.4 Q5.85 29.45 7.25 27.8 L11.0 27.4 11.0 27.45 11.25 27.35 12.55 27.15 M-8.05 28.15 L-7.8 28.15 Q-3.9 28.15 -1.1 30.3 1.6 32.4 1.6 35.35 1.6 39.5 -2.65 44.0 -10.0 43.6 -10.15 38.8 -9.95 33.6 -8.85 30.05 L-8.05 28.15" fill="#f0a866" fill-rule="evenodd" stroke="none"/>
    <path d="M5.05 -2.7 Q5.05 -2.05 7.05 0.25 4.45 -0.85 1.6 -1.25 L1.55 -1.25 -1.6 -1.2 0.9 -0.85 Q0.85 0.85 1.95 2.0 L-2.2 2.0 Q-5.7 2.0 -7.45 3.75 -8.45 4.65 -9.85 6.8 L-10.0 7.25 -7.0 6.7 Q-4.65 6.7 -2.3 7.95 -0.25 9.05 0.6 8.85 L1.1 9.45 1.25 9.4 Q6.05 6.95 9.5 6.95 11.75 6.95 14.8 9.5 17.6 11.9 17.65 13.35 17.65 14.7 15.35 15.2 L7.5 16.2 Q1.25 17.05 -1.1 20.05 L-3.25 23.1 -3.8 22.2 -3.9 21.95 -4.35 20.75 -4.4 20.1 -4.4 20.0 Q-4.45 18.5 -3.65 17.2 L-3.6 17.2 -3.55 17.1 Q-2.0 14.8 2.05 13.3 7.9 10.9 12.8 10.45 L13.0 10.45 13.15 10.45 13.0 10.35 12.75 10.2 Q8.65 8.6 2.5 10.8 L1.25 11.3 0.95 11.4 0.45 11.55 -0.05 11.7 -1.1 12.0 -2.4 12.25 -4.35 12.35 Q-4.6 11.3 -8.15 11.3 -11.55 11.2 -16.1 15.0 L-16.15 15.1 -16.7 15.6 -16.75 15.65 Q-18.2 16.9 -19.2 18.65 L-21.1 18.35 -21.7 18.35 Q-22.25 18.45 -22.4 18.7 L-21.05 20.1 Q-20.6 20.45 -20.05 20.6 L-20.6 22.65 -20.6 22.7 -20.75 23.45 -21.05 26.45 -21.05 27.15 -21.05 27.55 Q-21.5 27.0 -21.35 27.4 L-21.2 27.7 -21.05 27.9 -21.0 28.65 -20.8 27.95 -20.5 26.8 Q-19.05 21.75 -16.85 18.95 L-15.25 17.2 -15.25 17.15 -14.75 16.7 Q-10.95 13.5 -8.15 13.4 -5.6 13.4 -5.6 16.05 L-5.65 16.4 Q-6.6 18.05 -6.5 19.95 L-6.5 20.05 -6.45 21.25 -6.2 22.1 -7.1 22.8 -8.3 24.05 Q-8.85 23.1 -9.25 21.2 -9.8 18.25 -12.35 18.3 -14.15 18.25 -16.0 20.05 L-15.8 20.6 Q-20.95 31.9 -20.9 30.2 L-22.05 27.85 -22.15 27.7 -22.2 27.25 -22.2 27.55 Q-23.95 23.3 -23.95 19.75 -23.95 18.25 -23.4 17.55 L-23.1 17.2 -19.55 14.0 -19.5 13.95 -18.25 12.95 -13.5 8.95 -13.1 8.6 -12.8 8.25 Q-11.7 5.85 -7.25 1.9 L-6.7 1.4 -6.95 1.15 -5.15 -0.3 -2.8 -2.7 -2.1 -3.3 -0.7 -3.5 -0.6 -3.5 -0.5 -3.5 -0.4 -3.5 -0.3 -3.5 -0.15 -3.5 1.9 -3.4 2.8 -3.25 5.1 -2.7 5.05 -2.7 M17.7 25.75 L17.8 25.9 19.75 31.4 19.7 31.4 20.05 32.4 20.65 34.0 21.15 34.8 21.2 34.95 Q21.0 35.8 19.3 37.4 L17.8 38.65 16.95 39.25 Q14.45 40.9 11.7 41.25 17.55 35.55 17.55 32.85 17.55 30.9 16.1 29.0 14.65 27.0 12.55 27.15 L15.75 26.4 16.1 26.3 16.15 26.25 17.7 25.75 M-8.05 28.15 Q-6.8 25.7 -4.5 24.95 -2.55 27.2 -0.4 27.2 L-0.25 27.2 1.1 27.5 2.25 27.65 2.25 27.7 3.2 27.8 3.2 28.35 Q3.75 29.85 4.15 32.7 L4.5 40.4 4.5 40.85 Q4.3 41.6 2.6 42.8 0.45 44.0 -1.25 44.05 L-2.65 44.0 Q1.6 39.5 1.6 35.35 1.6 32.4 -1.1 30.3 -3.9 28.15 -7.8 28.15 L-8.05 28.15" fill="#e79d5a" fill-rule="evenodd" stroke="none"/>
  </g>
</svg>
