<?xml version="1.0" encoding="UTF-8" standalone="no"?>
<svg xmlns:ffdec="https://www.free-decompiler.com/flash" xmlns:xlink="http://www.w3.org/1999/xlink" ffdec:objectType="shape" height="59.65px" width="39.2px" xmlns="http://www.w3.org/2000/svg">
  <g transform="matrix(1.0, 0.0, 0.0, 1.0, 20.0, 5.75)">
    <path d="M-14.75 49.8 L-14.7 49.8 -14.75 49.8" fill="#4b3121" fill-rule="evenodd" stroke="none"/>
    <path d="M6.65 -1.5 Q8.3 -1.8 8.8 -3.35 L10.65 -1.75 10.7 -1.75 Q17.75 6.4 14.4 15.9 L14.75 16.2 Q18.5 21.05 19.1 27.55 19.4 30.5 18.65 33.65 17.95 36.5 15.8 38.0 14.65 38.75 13.45 38.8 L12.1 41.15 11.45 41.65 11.3 41.75 11.0 41.85 Q7.45 42.7 4.6 40.85 4.2 42.25 3.25 43.4 1.7 45.3 -0.5 45.4 -0.8 48.1 -1.85 50.75 L-1.9 50.85 Q-2.5 52.1 -3.7 52.85 L-3.75 52.95 Q-7.25 54.8 -10.8 53.0 -13.15 51.85 -14.7 49.8 L-14.75 49.8 Q-17.95 45.6 -19.15 40.3 -20.5 33.8 -19.75 27.3 L-18.7 21.4 Q-17.35 15.7 -15.6 10.15 L-15.5 9.9 -13.4 5.8 -12.95 5.35 -12.85 4.7 Q-8.75 -4.75 -1.7 -5.75 -1.7 -4.05 -0.55 -3.0 -5.45 -3.8 -8.1 1.2 -10.75 6.2 -11.05 6.4 L-11.2 7.15 -13.25 11.05 -13.3 11.15 Q-14.95 16.55 -16.25 22.05 -16.95 24.8 -17.25 27.65 -17.85 32.6 -17.1 37.55 L-17.1 37.45 -16.85 38.9 -16.75 39.3 -16.7 39.7 -16.65 39.85 -16.6 40.1 -16.55 40.35 -16.4 40.9 -16.35 41.1 -15.9 42.35 -15.2 44.1 Q-14.2 46.2 -12.75 48.1 L-12.75 48.15 Q-11.55 49.7 -9.75 50.6 -7.35 51.8 -4.95 50.55 L-4.9 50.5 -4.15 49.7 -4.15 49.65 Q-3.0 46.85 -2.95 44.0 L-2.95 43.95 -2.9 41.65 -2.9 41.6 Q-2.95 39.35 -3.35 37.15 -4.25 32.7 -4.1 28.3 -4.0 23.3 -2.6 18.4 L-2.55 18.25 -2.15 17.55 Q-1.85 17.3 -1.45 17.3 L-1.4 17.3 -0.65 17.55 Q1.8 19.35 3.05 22.35 L6.65 31.2 7.3 32.5 7.85 33.35 Q9.55 35.6 12.65 36.15 13.55 36.3 14.4 35.7 15.75 34.75 16.2 32.95 16.85 30.3 16.6 27.8 16.1 22.15 12.85 17.95 L12.8 17.9 12.55 17.3 12.5 17.3 11.8 16.55 11.7 15.9 11.1 15.35 8.05 7.45 8.95 7.3 Q9.45 7.45 9.7 7.9 L12.6 12.85 Q14.05 6.05 8.9 0.1 L8.85 0.1 Q7.85 -1.0 6.65 -1.5 M4.6 32.75 L4.1 31.65 4.75 37.7 4.85 37.8 Q7.15 39.9 10.2 39.3 L10.7 38.4 Q6.45 37.05 4.6 32.75 M-0.35 41.6 L-0.35 42.7 Q0.65 42.55 1.4 41.65 2.3 40.55 2.3 39.0 L0.95 25.2 0.9 23.85 0.7 23.4 0.55 22.8 Q-2.4 29.2 -0.9 36.6 -0.45 39.05 -0.35 41.6" fill="#654425" fill-rule="evenodd" stroke="none"/>
    <path d="M6.65 -1.5 Q7.85 -1.0 8.85 0.1 L8.9 0.1 Q14.05 6.05 12.6 12.85 L9.7 7.9 Q9.45 7.45 8.95 7.3 L8.05 7.45 11.1 15.35 11.7 15.9 11.8 16.55 12.5 17.3 12.55 17.3 12.8 17.9 12.85 17.95 Q16.1 22.15 16.6 27.8 16.85 30.3 16.2 32.95 15.75 34.75 14.4 35.7 13.55 36.3 12.65 36.15 9.55 35.6 7.85 33.35 L7.3 32.5 6.65 31.2 6.45 30.7 6.6 30.85 Q8.15 32.25 9.4 32.25 11.15 32.2 12.2 30.0 13.0 28.4 13.05 27.3 13.05 24.25 9.15 17.65 5.2 11.05 5.2 10.0 6.45 5.95 6.45 5.0 6.45 1.45 4.85 -1.35 L4.6 -1.35 5.85 -1.4 6.65 -1.5 M-1.45 17.3 Q-1.85 17.3 -2.15 17.55 L-2.55 18.25 -2.6 18.4 Q-4.0 23.3 -4.1 28.3 -4.25 32.7 -3.35 37.15 -2.95 39.35 -2.9 41.6 L-2.9 41.65 -2.95 43.95 -2.95 44.0 Q-3.0 46.85 -4.15 49.65 L-4.15 49.7 -4.9 50.5 -4.95 50.55 Q-7.35 51.8 -9.75 50.6 -11.55 49.7 -12.75 48.15 L-12.75 48.1 Q-14.2 46.2 -15.2 44.1 L-15.9 42.35 -16.35 41.1 -16.4 40.9 -16.55 40.35 -16.6 40.1 -16.65 39.85 -16.7 39.7 -16.75 39.3 -16.85 38.9 -17.1 37.45 -17.1 37.55 Q-12.6 45.85 -10.2 45.85 -6.95 45.85 -6.85 31.1 -6.7 16.3 -3.75 16.3 -2.75 16.3 -1.7 17.1 L-1.45 17.3 M-0.35 41.6 Q-0.45 39.05 -0.9 36.6 -2.4 29.2 0.55 22.8 L0.7 23.4 0.9 23.85 0.95 25.2 2.3 39.0 Q2.3 40.55 1.4 41.65 0.65 42.55 -0.35 42.7 L-0.35 41.6 M4.6 32.75 Q6.45 37.05 10.7 38.4 L10.2 39.3 Q7.15 39.9 4.85 37.8 L4.75 37.7 4.1 31.65 4.6 32.75" fill="#e79d5a" fill-rule="evenodd" stroke="none"/>
    <path d="M6.65 31.2 L3.05 22.35 Q1.8 19.35 -0.65 17.55 L-1.4 17.3 -1.45 17.3 -1.7 17.1 Q-2.75 16.3 -3.75 16.3 -6.7 16.3 -6.85 31.1 -6.95 45.85 -10.2 45.85 -12.6 45.85 -17.1 37.55 -17.85 32.6 -17.25 27.65 -16.95 24.8 -16.25 22.05 -14.95 16.55 -13.3 11.15 L-13.25 11.05 -11.2 7.15 -11.05 6.4 Q-10.75 6.2 -8.1 1.2 -5.45 -3.8 -0.55 -3.0 0.5 -2.1 4.6 -1.35 L4.85 -1.35 Q6.45 1.45 6.45 5.0 6.45 5.95 5.2 10.0 5.2 11.05 9.15 17.65 13.05 24.25 13.05 27.3 13.0 28.4 12.2 30.0 11.15 32.2 9.4 32.25 8.15 32.25 6.6 30.85 L6.45 30.7 6.65 31.2" fill="#f0a866" fill-rule="evenodd" stroke="none"/>
  </g>
</svg>
