<?xml version="1.0" encoding="UTF-8" standalone="no"?>
<svg xmlns:ffdec="https://www.free-decompiler.com/flash" xmlns:xlink="http://www.w3.org/1999/xlink" ffdec:objectType="shape" height="46.1px" width="51.15px" xmlns="http://www.w3.org/2000/svg">
  <g transform="matrix(1.0, 0.0, 0.0, 1.0, 23.85, 3.05)">
    <path d="M-2.2 -2.25 L-0.1 -2.8 0.75 -2.9 2.7 -3.05 2.8 -3.05 2.9 -3.05 3.0 -3.05 3.1 -3.05 3.2 -3.05 5.9 -2.4 7.7 -1.6 8.3 -1.2 8.35 -1.2 Q9.1 -0.15 9.1 0.7 9.1 1.3 8.75 1.6 L9.2 2.0 Q13.4 5.65 14.45 7.85 L14.7 8.25 15.1 8.6 19.45 12.2 20.65 13.2 20.65 13.25 23.95 16.25 24.2 16.5 Q24.75 17.15 24.75 18.55 24.75 21.85 23.1 25.8 L23.1 25.55 22.95 26.05 21.9 28.25 Q21.9 29.85 17.15 19.35 17.15 19.05 17.4 18.85 15.6 17.15 13.95 17.15 11.6 17.15 11.05 19.85 10.75 21.65 10.2 22.55 L9.15 21.4 8.3 20.7 8.5 19.95 8.55 18.85 8.55 18.75 Q8.6 16.95 7.75 15.45 L7.7 15.1 Q7.7 12.65 10.1 12.65 12.65 12.75 16.2 15.7 L16.7 16.15 16.7 16.25 18.2 17.8 Q20.15 20.4 21.55 25.1 L21.8 26.15 22.0 26.8 22.0 26.05 22.15 25.95 22.35 25.65 Q22.4 25.3 22.0 25.8 L22.0 25.4 22.0 24.75 21.75 22.0 21.65 21.25 21.1 19.35 Q21.55 19.2 22.0 18.85 L23.3 17.55 Q23.15 17.35 22.7 17.3 L22.1 17.2 20.3 17.55 Q19.4 15.9 18.05 14.7 L18.0 14.7 18.05 14.8 17.55 14.25 17.45 14.2 Q13.2 10.6 10.1 10.7 6.75 10.7 6.6 11.7 L4.75 11.6 3.55 11.35 2.6 11.1 2.15 10.95 1.65 10.8 1.35 10.7 0.25 10.3 Q-5.5 8.25 -9.35 9.7 L-9.55 9.85 -9.65 9.9 -9.55 9.9 -9.35 9.95 Q-4.85 10.35 0.65 12.55 4.4 13.9 5.85 16.1 L5.9 16.15 5.9 16.25 Q6.65 17.35 6.6 18.8 L6.6 18.85 6.6 19.45 6.2 20.6 6.05 20.85 5.6 21.65 3.55 18.8 Q1.35 16.05 -4.45 15.25 L-11.7 14.3 Q-13.8 13.85 -13.8 12.6 -13.8 11.3 -11.2 9.05 -8.4 6.65 -6.3 6.65 -3.15 6.65 1.35 8.9 L1.5 8.95 1.95 8.45 Q2.75 8.65 4.65 7.6 6.85 6.45 9.0 6.45 L11.8 6.95 11.65 6.55 Q10.35 4.55 9.4 3.7 7.75 2.1 4.55 2.1 L0.7 2.1 Q1.7 1.05 1.7 -0.55 L4.0 -0.85 1.1 -0.95 1.05 -0.95 Q-2.05 -0.45 -4.7 0.85 L-4.25 -0.45 -3.45 -1.85 -2.2 -2.25 M5.0 41.05 L3.65 41.05 Q2.1 41.05 0.1 39.95 -1.5 38.8 -1.65 38.1 L-1.65 37.8 -1.35 30.55 -0.5 26.55 -0.4 26.0 0.45 25.95 0.45 25.85 1.5 25.75 2.75 25.45 2.95 25.4 Q4.85 25.45 6.7 23.35 8.8 24.1 10.0 26.35 L9.75 26.35 Q6.1 26.35 3.55 28.3 1.05 30.3 1.05 33.0 1.05 36.85 5.0 41.05 M-17.05 32.45 L-16.65 31.8 -16.05 30.3 -15.75 29.35 -15.8 29.35 -13.95 24.2 -13.9 24.15 -12.45 24.55 -12.45 24.6 -12.1 24.7 -9.15 25.4 Q-11.05 25.3 -12.45 27.15 -13.75 28.9 -13.75 30.7 -13.75 33.2 -8.35 38.5 -10.85 38.15 -13.15 36.65 L-13.95 36.1 -13.95 36.05 -15.35 34.9 Q-17.0 33.45 -17.1 32.65 L-17.05 32.45" fill="#e79d5a" fill-rule="evenodd" stroke="none"/>
    <path d="M-4.7 0.85 Q-2.05 -0.45 1.05 -0.95 L1.1 -0.95 4.0 -0.85 1.7 -0.55 Q1.7 1.05 0.7 2.1 L4.55 2.1 Q7.75 2.1 9.4 3.7 10.35 4.55 11.65 6.55 L11.8 6.95 9.0 6.45 Q6.85 6.45 4.65 7.6 2.75 8.65 1.95 8.45 L1.5 8.95 1.35 8.9 Q-3.15 6.65 -6.3 6.65 -8.4 6.65 -11.2 9.05 -13.8 11.3 -13.8 12.6 -13.8 13.85 -11.7 14.3 L-4.45 15.25 Q1.35 16.05 3.55 18.8 L5.6 21.65 5.3 22.0 Q4.15 23.35 2.9 23.45 L2.7 23.5 -1.35 24.1 Q-6.55 24.1 -11.85 22.7 L-11.9 22.7 -13.5 22.25 -13.4 22.25 -14.0 22.05 -14.15 22.0 -14.35 22.0 Q-21.5 19.45 -21.8 15.25 -12.55 3.1 -7.35 2.25 L-6.9 2.1 Q-5.9 1.4 -4.7 0.85 M10.2 22.55 Q10.75 21.65 11.05 19.85 11.6 17.15 13.95 17.15 15.6 17.15 17.4 18.85 17.15 19.05 17.15 19.35 21.9 29.85 21.9 28.25 L22.95 26.05 23.1 25.55 23.1 25.8 Q24.75 21.85 24.75 18.55 24.75 17.15 24.2 16.5 L25.15 17.6 Q25.9 19.15 24.2 30.6 L24.2 30.8 Q24.05 31.8 21.35 33.4 L21.3 33.4 Q18.15 35.05 15.2 35.2 L14.35 34.6 Q14.1 34.3 13.85 34.3 13.5 30.35 12.65 27.5 11.75 24.5 10.2 22.55 M5.0 41.05 Q1.05 36.85 1.05 33.0 1.05 30.3 3.55 28.3 6.1 26.35 9.75 26.35 L10.0 26.35 10.75 28.1 Q11.75 31.4 11.9 36.25 11.75 40.65 5.0 41.05 M-8.35 38.5 Q-13.75 33.2 -13.75 30.7 -13.75 28.9 -12.45 27.15 -11.05 25.3 -9.15 25.4 L-7.9 25.6 -7.7 25.65 -4.2 26.0 Q-2.95 27.6 -3.3 30.3 L-3.3 30.35 -3.65 37.9 -4.1 37.95 Q-5.65 38.55 -7.1 38.55 L-8.35 38.5" fill="#f0a866" fill-rule="evenodd" stroke="none"/>
    <path d="M-2.2 -2.25 L-3.45 -1.85 -4.25 -0.45 -4.7 0.85 Q-5.9 1.4 -6.9 2.1 L-7.35 2.25 Q-12.55 3.1 -21.8 15.25 -21.5 19.45 -14.35 22.0 L-14.15 22.0 -14.0 22.05 -13.4 22.25 -13.5 22.25 -11.9 22.7 -11.85 22.7 Q-6.55 24.1 -1.35 24.1 L2.7 23.5 2.9 23.45 Q4.15 23.35 5.3 22.0 L5.6 21.65 6.05 20.85 6.2 20.6 6.6 19.45 6.6 18.85 6.6 18.8 Q6.65 17.35 5.9 16.25 L5.9 16.15 5.85 16.1 Q4.4 13.9 0.65 12.55 -4.85 10.35 -9.35 9.95 L-9.35 9.7 Q-5.5 8.25 0.25 10.3 L1.35 10.7 1.65 10.8 2.15 10.95 2.6 11.1 3.55 11.35 4.75 11.6 6.6 11.7 Q6.75 10.7 10.1 10.7 13.2 10.6 17.45 14.2 L17.55 14.25 18.05 14.8 18.05 14.7 Q19.4 15.9 20.3 17.55 L22.1 17.2 22.7 17.3 Q23.15 17.35 23.3 17.55 L22.0 18.85 Q21.55 19.2 21.1 19.35 L21.65 21.25 21.75 22.0 22.0 24.75 22.0 25.4 22.0 25.8 Q22.4 25.3 22.35 25.65 L22.15 25.95 22.0 26.05 21.8 26.15 21.55 25.1 Q20.15 20.4 18.2 17.8 L16.7 16.25 16.7 16.15 16.2 15.7 Q12.65 12.75 10.1 12.65 7.7 12.65 7.7 15.1 L7.75 15.45 Q8.6 16.95 8.55 18.75 L8.55 18.85 8.5 19.95 8.3 20.7 9.15 21.4 10.2 22.55 Q11.75 24.5 12.65 27.5 13.5 30.35 13.85 34.3 14.1 34.3 14.35 34.6 L15.2 35.2 Q18.15 35.05 21.3 33.4 L21.35 33.4 Q24.05 31.8 24.2 30.8 L24.2 30.6 Q25.9 19.15 25.15 17.6 L24.2 16.5 23.95 16.25 20.65 13.25 20.65 13.2 19.45 12.2 15.1 8.6 14.7 8.25 14.45 7.85 Q13.4 5.65 9.2 2.0 L8.75 1.6 Q9.1 1.3 9.1 0.7 9.1 -0.15 8.35 -1.2 L10.55 0.5 Q14.9 4.4 14.25 4.3 25.85 14.85 26.85 16.65 28.05 18.35 26.2 30.8 L26.2 30.9 Q26.3 32.8 22.3 35.1 L22.2 35.2 Q18.35 37.15 14.85 37.15 14.45 37.15 14.15 36.95 L13.9 36.75 Q13.65 43.05 3.65 43.05 1.65 43.05 -0.95 41.6 L-1.0 41.6 -3.15 39.65 -3.4 39.8 Q-5.25 40.5 -7.1 40.5 -11.45 40.5 -15.2 37.6 -19.15 34.5 -19.1 32.75 L-19.1 32.65 -18.3 30.25 -18.25 30.5 -17.65 28.8 -15.8 23.5 Q-24.0 20.4 -23.85 14.9 L-23.65 14.3 Q-13.7 1.25 -7.8 0.35 -5.25 -1.4 -2.2 -2.25 M10.0 26.35 Q8.8 24.1 6.7 23.35 4.85 25.45 2.95 25.4 L2.75 25.45 1.5 25.75 0.45 25.85 0.45 25.95 -0.4 26.0 -0.5 26.55 -1.35 30.55 -1.65 37.8 -1.65 38.1 Q-1.5 38.8 0.1 39.95 2.1 41.05 3.65 41.05 L5.0 41.05 Q11.75 40.65 11.9 36.25 11.75 31.4 10.75 28.1 L10.0 26.35 M-13.95 24.2 L-15.8 29.35 -15.75 29.35 -16.05 30.3 -16.65 31.8 -17.05 32.45 -17.1 32.55 -17.1 32.65 Q-17.0 33.45 -15.35 34.9 L-13.95 36.05 -14.0 36.05 -13.95 36.1 -13.15 36.65 Q-10.85 38.15 -8.35 38.5 L-7.1 38.55 Q-5.65 38.55 -4.1 37.95 L-3.65 37.9 -3.3 30.35 -3.3 30.3 Q-2.95 27.6 -4.2 26.0 L-7.7 25.65 -7.9 25.6 -9.15 25.4 -12.1 24.7 -12.45 24.6 -12.45 24.55 -13.9 24.15 -13.95 24.15 -13.95 24.2" fill="#654425" fill-rule="evenodd" stroke="none"/>
    <path d="M-9.35 9.95 L-9.55 9.9 -9.65 9.9 -9.55 9.85 -9.35 9.7 -9.35 9.95 M18.05 14.8 L18.0 14.7 18.05 14.7 18.05 14.8 M22.0 26.05 L22.0 26.8 21.8 26.15 22.0 26.05 M-11.85 22.7 L-11.9 22.7 -11.85 22.7" fill="#4b3121" fill-rule="evenodd" stroke="none"/>
    <path d="M-9.55 9.85 L-9.35 9.7 -9.55 9.85 M-13.9 24.15 L-13.95 24.2 -13.95 24.15 -13.9 24.15" fill="#ffcc99" fill-rule="evenodd" stroke="none"/>
    <path d="M-7.7 25.65 L-7.9 25.6 -7.7 25.65" fill="#f1ba87" fill-rule="evenodd" stroke="none"/>
  </g>
</svg>
