<?xml version="1.0" encoding="UTF-8" standalone="no"?>
<svg xmlns:ffdec="https://www.free-decompiler.com/flash" xmlns:xlink="http://www.w3.org/1999/xlink" ffdec:objectType="shape" height="47.1px" width="72.3px" xmlns="http://www.w3.org/2000/svg">
  <g transform="matrix(1.0, 0.0, 0.0, 1.0, 43.55, 1.35)">
    <path d="M-5.15 25.45 L-5.0 26.8 -5.1 26.55 -5.15 25.45 M-3.6 32.05 L-3.4 31.95 -3.05 32.75 -3.4 32.05 -3.6 32.05 M-11.1 26.75 L-10.25 26.85 -10.85 26.8 -10.9 26.85 -11.1 26.75" fill="#ffcc99" fill-rule="evenodd" stroke="none"/>
    <path d="M-2.55 28.4 L-2.6 28.25 -2.55 28.4" fill="#f1ba87" fill-rule="evenodd" stroke="none"/>
    <path d="M-13.8 24.5 L-13.95 24.5 -14.05 24.4 -13.8 24.5 M25.9 28.4 L25.85 28.4 25.9 28.4 M25.75 14.05 L25.7 14.1 25.7 14.05 25.75 14.05" fill="#4b3121" fill-rule="evenodd" stroke="none"/>
    <path d="M5.2 -1.0 L6.6 -0.7 Q15.95 1.75 19.25 10.4 L19.3 10.95 25.7 14.1 25.75 14.05 Q27.5 14.8 28.0 16.35 30.2 23.15 25.85 28.4 L25.9 28.4 24.55 29.6 23.05 30.35 22.8 30.4 22.8 30.6 22.7 30.95 22.85 31.55 Q22.75 33.25 21.45 34.65 L21.4 34.65 17.85 37.85 17.45 38.05 17.0 38.05 11.95 36.9 Q10.65 40.6 6.9 43.25 2.75 46.0 -1.95 45.75 L-3.55 45.4 -3.65 45.3 Q-11.3 40.9 -13.45 32.15 L-14.1 29.4 -14.8 26.45 -14.95 26.35 Q-17.3 24.1 -20.3 24.35 L-31.45 26.85 -34.8 27.3 Q-38.1 27.75 -41.0 25.3 -43.9 22.85 -43.5 18.9 L-42.75 13.6 Q-41.3 9.4 -37.15 10.4 -23.9 13.55 -12.95 5.15 -11.7 4.2 -10.3 3.4 -6.4 -0.05 -1.8 -1.0 -3.15 -0.05 -3.85 1.7 -6.55 2.75 -9.0 4.9 L-9.15 4.95 -9.9 5.45 -11.75 6.75 Q-22.05 14.65 -34.25 12.95 L-37.45 12.35 -37.6 12.3 Q-40.0 11.8 -40.85 14.2 L-41.45 16.5 -41.7 16.45 Q-42.15 21.55 -40.0 24.0 -37.9 26.4 -31.75 24.85 L-20.6 22.4 -20.5 22.35 Q-16.85 22.0 -13.95 24.5 L-13.8 24.5 -13.5 24.65 -9.25 26.2 -8.95 26.3 -8.9 26.3 -8.8 26.55 -9.1 26.8 -9.2 26.85 -9.95 26.9 -10.25 26.85 -11.1 26.75 -11.4 26.7 -11.65 26.6 -12.65 26.7 -12.1 29.0 -11.5 31.65 -11.5 31.7 -11.45 31.8 -11.4 32.05 Q-9.45 39.65 -2.7 43.55 L-1.95 43.75 -1.85 43.8 -1.85 43.75 0.05 43.7 Q3.05 43.4 5.7 41.6 11.6 37.45 10.55 30.3 9.6 26.35 4.0 21.1 L3.5 21.1 Q-1.35 19.75 -2.7 22.75 L-2.95 24.05 -2.95 26.15 -2.95 26.2 -2.6 28.25 -2.55 28.4 Q-1.9 31.5 -0.15 35.9 L-0.8 35.95 -1.35 35.55 -1.45 35.5 -2.5 33.85 -2.55 33.75 -2.65 33.45 -3.05 32.75 -3.4 31.95 -3.6 32.05 -3.75 32.15 -4.65 32.4 Q-5.95 32.7 -6.55 32.0 L-6.5 31.65 -6.25 31.55 -5.75 31.7 -5.45 31.35 -4.25 29.9 -5.0 26.8 -5.15 25.45 -5.15 25.35 -5.1 24.45 -4.55 22.0 -4.5 21.9 Q-3.95 20.5 -3.0 19.65 -0.9 17.8 3.25 18.35 3.85 16.75 5.45 15.95 7.0 15.05 10.85 14.95 L10.95 14.5 Q12.2 10.15 16.6 10.5 L16.85 10.5 16.95 10.55 17.0 10.5 17.1 10.55 17.1 10.5 16.45 9.1 16.45 9.05 15.6 7.65 7.3 2.0 7.3 1.65 5.2 -1.0 M13.35 16.05 L13.75 16.15 14.75 16.4 Q17.25 17.25 19.2 19.65 22.35 23.6 22.8 27.9 L23.75 27.6 24.25 27.15 24.3 27.15 24.7 26.7 Q27.8 22.4 26.05 16.95 25.8 16.25 24.95 15.9 L24.95 15.85 22.0 14.5 18.15 12.6 18.05 12.5 17.5 12.6 16.9 12.55 16.8 12.55 16.7 12.5 15.85 12.5 15.6 12.55 Q13.5 12.75 12.85 15.05 L13.0 15.75 13.05 16.05 13.35 16.05 M7.0 13.8 Q8.15 12.1 7.65 9.95 L7.85 9.8 7.9 9.7 8.55 10.3 Q8.75 11.3 8.45 12.6 8.1 13.85 7.65 13.95 L7.65 14.0 7.5 13.9 7.0 13.8 M15.35 18.9 Q13.95 18.05 12.25 17.95 L11.95 17.9 9.85 17.75 9.55 17.65 6.4 17.7 Q5.9 18.0 5.6 18.6 L5.2 19.55 5.45 19.75 Q11.55 25.55 12.5 29.95 L12.55 30.0 Q12.9 32.65 12.5 35.0 L15.3 35.65 15.45 35.65 16.9 36.0 20.0 33.25 20.05 33.25 Q20.75 32.4 20.85 31.45 L20.95 31.05 Q20.7 30.75 20.8 30.4 21.25 25.75 18.1 21.45 L17.6 20.9 Q16.6 19.6 15.35 18.9 M22.95 29.0 L22.85 28.85 22.85 29.1 22.45 29.75 22.95 29.0" fill="#654425" fill-rule="evenodd" stroke="none"/>
    <path d="M5.2 -1.0 L7.3 1.65 7.3 2.0 15.6 7.65 16.45 9.05 16.45 9.1 17.1 10.5 17.0 10.5 16.95 10.55 16.85 10.5 16.6 10.5 Q12.2 10.15 10.95 14.5 L10.85 14.95 Q7.0 15.05 5.45 15.95 3.85 16.75 3.25 18.35 -0.9 17.8 -3.0 19.65 -2.95 18.7 -1.7 17.55 -0.5 16.35 0.2 16.25 L3.25 16.5 Q3.9 14.3 7.0 13.8 L7.5 13.9 7.65 14.0 7.65 13.95 Q8.1 13.85 8.45 12.6 8.75 11.3 8.55 10.3 L7.9 9.7 7.85 9.8 7.8 9.5 Q6.95 5.4 3.8 0.8 -0.25 0.3 -3.85 1.7 -3.15 -0.05 -1.8 -1.0 1.5 -1.7 5.2 -1.0 M-4.5 21.9 L-4.55 22.0 -5.1 24.45 -5.15 25.35 -5.15 25.45 -5.1 26.55 -5.0 26.8 -4.25 29.9 -5.45 31.35 -5.95 30.5 Q-5.3 29.8 -5.35 29.5 L-6.0 27.8 Q-6.5 25.45 -5.35 23.2 L-4.5 21.9 M-3.75 32.15 L-3.6 32.05 -3.4 32.05 -3.05 32.75 -2.65 33.45 -2.55 33.75 -2.5 33.85 -1.45 35.5 -1.35 35.55 -1.7 35.85 -3.35 34.6 Q-3.85 36.2 -4.4 36.55 L-4.3 33.65 Q-6.4 33.8 -7.15 33.15 L-7.2 32.8 Q-7.25 32.65 -6.9 32.6 L-4.2 32.45 -3.75 32.15 M-2.95 26.15 L-2.95 24.05 -2.7 22.75 Q-1.35 19.75 3.5 21.1 L4.0 21.1 Q9.6 26.35 10.55 30.3 11.6 37.45 5.7 41.6 3.05 43.4 0.05 43.7 L-1.85 43.75 -1.85 43.8 -1.95 43.75 0.6 42.1 3.7 39.7 Q4.4 38.95 5.35 35.8 6.45 31.9 5.95 29.3 5.4 26.7 3.4 24.6 1.35 22.45 -0.55 22.85 -1.55 23.05 -2.4 24.7 L-2.95 26.15 M-11.4 32.05 L-11.45 31.8 -11.5 31.7 -11.5 31.65 -12.1 29.0 -12.65 26.7 -11.65 26.6 -11.4 26.7 -11.1 26.75 -10.9 26.85 -10.85 26.8 -10.25 26.85 -9.95 26.9 -9.2 26.85 -9.1 26.8 -8.8 26.55 -8.9 26.3 -8.95 26.3 -9.25 26.2 -8.75 25.8 Q-8.4 25.9 -8.3 26.25 L-10.45 29.2 -11.1 31.05 -11.4 32.05 M-41.45 16.5 L-40.85 14.2 Q-40.0 11.8 -37.6 12.3 L-37.45 12.35 -34.25 12.95 Q-22.05 14.65 -11.75 6.75 L-9.9 5.45 -9.15 4.95 Q-12.85 12.65 -15.35 13.2 L-18.05 14.25 -20.6 15.4 -22.5 15.65 -29.95 15.4 -37.15 14.45 -37.8 14.3 Q-39.3 14.6 -41.7 17.65 L-41.15 16.45 -41.45 16.5 M15.6 12.55 L15.85 12.5 16.7 12.5 16.8 12.55 16.9 12.55 17.5 12.6 18.05 12.5 18.15 12.6 22.0 14.5 24.95 15.85 24.95 15.9 Q25.8 16.25 26.05 16.95 27.8 22.4 24.7 26.7 L24.3 27.15 24.25 27.15 23.75 27.6 22.8 27.9 Q22.35 23.6 19.2 19.65 17.25 17.25 14.75 16.4 L13.75 16.15 13.35 16.05 Q13.5 15.25 15.05 15.0 18.0 14.35 20.7 17.15 22.95 19.5 24.05 23.4 24.5 21.3 24.2 19.8 23.4 15.95 19.8 14.0 L15.6 12.55 M15.35 18.9 Q16.6 19.6 17.6 20.9 L18.1 21.45 Q21.25 25.75 20.8 30.4 20.7 30.75 20.95 31.05 L20.85 31.45 Q20.75 32.4 20.05 33.25 L20.0 33.25 16.9 36.0 15.45 35.65 16.8 34.2 18.95 31.55 Q20.1 31.3 19.05 26.15 18.2 21.95 15.35 18.9 M15.3 35.65 L12.5 35.0 Q12.9 32.65 12.55 30.0 L12.5 29.95 Q11.55 25.55 5.45 19.75 L5.2 19.55 5.6 18.6 Q7.6 19.05 10.15 21.45 14.3 25.35 15.45 31.1 16.15 34.55 15.3 35.65" fill="#e79d5a" fill-rule="evenodd" stroke="none"/>
    <path d="M-3.0 19.65 Q-3.95 20.5 -4.5 21.9 L-5.35 23.2 Q-6.5 25.45 -6.0 27.8 L-5.35 29.5 Q-5.3 29.8 -5.95 30.5 L-5.45 31.35 -5.75 31.7 -6.25 31.55 -6.5 31.65 -6.55 32.0 Q-5.95 32.7 -4.65 32.4 L-3.75 32.15 -4.2 32.45 -6.9 32.6 Q-7.25 32.65 -7.2 32.8 L-7.15 33.15 Q-6.4 33.8 -4.3 33.65 L-4.4 36.55 Q-3.85 36.2 -3.35 34.6 L-1.7 35.85 -1.35 35.55 -0.8 35.95 -0.15 35.9 Q-1.9 31.5 -2.55 28.4 L-2.6 28.25 -2.95 26.2 -2.95 26.15 -2.4 24.7 Q-1.55 23.05 -0.55 22.85 1.35 22.45 3.4 24.6 5.4 26.7 5.95 29.3 6.45 31.9 5.35 35.8 4.4 38.95 3.7 39.7 L0.6 42.1 -1.95 43.75 -2.7 43.55 Q-9.45 39.65 -11.4 32.05 L-11.1 31.05 -10.45 29.2 -8.3 26.25 Q-8.4 25.9 -8.75 25.8 L-9.25 26.2 -13.5 24.65 -13.8 24.5 -14.05 24.4 -13.95 24.5 Q-16.85 22.0 -20.5 22.35 L-20.6 22.4 -31.75 24.85 Q-37.9 26.4 -40.0 24.0 -42.15 21.55 -41.7 16.45 L-41.45 16.5 -41.15 16.45 -41.7 17.65 Q-39.3 14.6 -37.8 14.3 L-37.15 14.45 -29.95 15.4 -22.5 15.65 -20.6 15.4 -18.05 14.25 -15.35 13.2 Q-12.85 12.65 -9.15 4.95 L-9.0 4.9 Q-6.55 2.75 -3.85 1.7 -0.25 0.3 3.8 0.8 6.95 5.4 7.8 9.5 L7.85 9.8 7.65 9.95 Q8.15 12.1 7.0 13.8 3.9 14.3 3.25 16.5 L0.2 16.25 Q-0.5 16.35 -1.7 17.55 -2.95 18.7 -3.0 19.65 M15.6 12.55 L19.8 14.0 Q23.4 15.95 24.2 19.8 24.5 21.3 24.05 23.4 22.95 19.5 20.7 17.15 18.0 14.35 15.05 15.0 13.5 15.25 13.35 16.05 L13.05 16.05 13.0 15.75 12.85 15.05 Q13.5 12.75 15.6 12.55 M5.6 18.6 Q5.9 18.0 6.4 17.7 L9.55 17.65 9.85 17.75 11.95 17.9 12.25 17.95 Q13.95 18.05 15.35 18.9 18.2 21.95 19.05 26.15 20.1 31.3 18.95 31.55 L16.8 34.2 15.45 35.65 15.3 35.65 Q16.15 34.55 15.45 31.1 14.3 25.35 10.15 21.45 7.6 19.05 5.6 18.6" fill="#f0a866" fill-rule="evenodd" stroke="none"/>
  </g>
</svg>
