<?xml version="1.0" encoding="UTF-8" standalone="no"?>
<svg xmlns:ffdec="https://www.free-decompiler.com/flash" xmlns:xlink="http://www.w3.org/1999/xlink" ffdec:objectType="shape" height="97.95px" width="97.95px" xmlns="http://www.w3.org/2000/svg">
  <g transform="matrix(1.0, 0.0, 0.0, 1.0, 70.9, 69.9)">
    <path d="M12.6 -55.6 Q26.95 -41.25 27.05 -20.95 26.95 -0.65 12.6 13.65 -1.7 28.0 -21.95 28.05 -29.9 28.0 -37.0 25.8 -40.85 24.55 -44.45 22.7 -51.05 19.2 -56.6 13.65 -71.0 -0.65 -70.9 -20.95 -70.95 -38.05 -60.75 -50.95 L-57.1 -55.15 -56.9 -55.35 -56.35 -55.85 Q-42.05 -69.9 -21.95 -69.9 -1.7 -69.9 12.6 -55.6 M-26.4 25.6 L-21.95 25.8 Q-2.6 25.75 11.05 12.05 24.7 -1.6 24.8 -20.95 24.7 -40.3 11.05 -54.0 -2.6 -67.65 -21.95 -67.65 -39.05 -67.65 -51.7 -57.05 L-52.7 -56.2 -54.95 -54.1 -55.2 -53.85 -55.35 -53.65 -55.45 -53.55 -59.0 -49.55 Q-68.75 -37.25 -68.65 -20.95 -68.7 -1.6 -55.0 12.05 -49.7 17.4 -43.4 20.7 L-39.95 22.3 -36.3 23.65 Q-31.55 25.1 -26.4 25.6" fill="#654425" fill-rule="evenodd" stroke="none"/>
    <path d="M-51.7 -57.05 Q-39.05 -67.65 -21.95 -67.65 -2.6 -67.65 11.05 -54.0 24.7 -40.3 24.8 -20.95 24.7 -1.6 11.05 12.05 -2.6 25.75 -21.95 25.8 L-26.4 25.6 Q-8.5 25.2 4.25 12.45 17.4 -0.65 17.4 -19.2 17.4 -37.8 4.25 -50.95 -8.85 -64.1 -27.4 -64.1 -41.05 -64.1 -51.7 -57.05" fill="#e79d5a" fill-rule="evenodd" stroke="none"/>
    <path d="M-51.7 -57.05 Q-41.05 -64.1 -27.4 -64.1 -8.85 -64.1 4.25 -50.95 17.4 -37.8 17.4 -19.2 17.4 -0.65 4.25 12.45 -8.5 25.2 -26.4 25.6 -31.55 25.1 -36.3 23.65 L-39.95 22.3 -34.75 22.6 Q-17.3 22.6 -5.0 10.5 7.35 -1.6 7.35 -18.7 7.35 -35.8 -5.0 -47.9 -17.3 -60.0 -34.75 -60.0 -44.55 -60.0 -52.7 -56.2 L-51.7 -57.05" fill="#f0a866" fill-rule="evenodd" stroke="none"/>
    <path d="M-39.95 22.3 L-43.4 20.7 Q-49.7 17.4 -55.0 12.05 -68.7 -1.6 -68.65 -20.95 -68.75 -37.25 -59.0 -49.55 L-55.45 -53.55 -55.35 -53.65 -55.2 -53.85 -54.95 -54.1 -52.7 -56.2 Q-44.55 -60.0 -34.75 -60.0 -17.3 -60.0 -5.0 -47.9 7.35 -35.8 7.35 -18.7 7.35 -1.6 -5.0 10.5 -17.3 22.6 -34.75 22.6 L-39.95 22.3" fill="#f8b674" fill-rule="evenodd" stroke="none"/>
  </g>
</svg>
