<?xml version="1.0" encoding="UTF-8" standalone="no"?>
<svg xmlns:ffdec="https://www.free-decompiler.com/flash" xmlns:xlink="http://www.w3.org/1999/xlink" ffdec:objectType="shape" height="81.45px" width="57.5px" xmlns="http://www.w3.org/2000/svg">
  <g transform="matrix(1.0, 0.0, 0.0, 1.0, 27.4, 30.45)">
    <path d="M-8.7 -29.7 L-9.1 -29.9 -8.7 -29.8 -8.7 -29.7 M11.05 43.7 L11.0 43.65 11.2 43.65 11.05 43.7" fill="#443d0b" fill-rule="evenodd" stroke="none"/>
    <path d="M-24.35 -22.5 L-24.45 -22.4 -24.55 -22.55 -24.55 -22.6 -24.35 -22.5" fill="#e3d048" fill-rule="evenodd" stroke="none"/>
    <path d="M-13.55 7.0 Q-8.05 -1.5 -0.4 3.95 L14.9 26.35 15.0 26.35 Q26.3 44.1 26.3 47.3 L26.2 47.3 26.15 47.25 25.4 47.9 25.35 47.9 Q21.9 49.9 18.45 47.75 16.35 46.55 15.0 44.7 13.45 42.6 11.75 41.0 L10.35 39.5 8.6 37.15 7.1 34.8 6.6 33.7 5.5 31.95 -13.55 7.0" fill="#f2eee6" fill-rule="evenodd" stroke="none"/>
    <path d="M-24.35 -22.5 Q-22.35 -25.75 -19.8 -27.15 -19.65 -27.5 -18.95 -27.7 -17.45 -28.85 -15.3 -29.45 -14.35 -30.5 -12.45 -30.45 L-9.1 -29.9 -8.7 -29.7 Q-1.8 -28.4 1.9 -16.65 L18.6 23.85 18.8 24.05 Q21.95 28.85 24.3 33.9 26.25 38.3 27.65 42.8 28.4 45.25 26.7 47.05 26.4 47.1 26.3 47.3 26.3 44.1 15.0 26.35 L14.9 26.35 -0.4 3.95 Q-8.05 -1.5 -13.55 7.0 L-20.6 -2.2 Q-27.5 -11.6 -24.45 -22.4 L-24.35 -22.5" fill="#d9ceb7" fill-rule="evenodd" stroke="none"/>
    <path d="M-24.45 -22.4 Q-27.5 -11.6 -20.6 -2.2 L-13.55 7.0 5.5 31.95 6.6 33.7 7.1 34.8 8.6 37.15 10.35 39.5 11.75 41.0 Q13.45 42.6 15.0 44.7 16.35 46.55 18.45 47.75 21.9 49.9 25.35 47.9 L25.4 47.9 26.15 47.25 26.2 47.3 26.3 47.3 Q26.4 47.1 26.7 47.05 28.4 45.25 27.65 42.8 26.25 38.3 24.3 33.9 21.95 28.85 18.8 24.05 L18.6 23.85 1.9 -16.65 Q-1.8 -28.4 -8.7 -29.7 L-8.7 -29.8 Q-7.0 -29.5 -5.05 -28.8 L-4.9 -28.6 Q1.85 -26.0 4.95 -18.4 L21.1 22.8 25.25 31.3 25.9 32.6 26.1 33.25 26.7 34.1 Q28.8 37.85 29.9 42.4 L30.1 44.15 Q30.05 47.55 26.65 49.75 L26.5 49.75 Q24.2 50.9 22.0 51.0 20.05 50.9 18.1 50.0 14.95 48.6 13.25 45.75 L12.3 45.0 Q12.9 45.4 11.7 43.9 L11.5 44.15 11.05 43.7 11.2 43.65 9.3 41.3 8.6 40.8 3.6 33.2 -23.25 -0.2 -23.25 -0.25 Q-26.55 -4.15 -27.15 -8.75 -27.6 -11.2 -27.2 -13.7 L-27.25 -13.95 Q-27.1 -19.0 -24.45 -22.4" fill="#40362d" fill-rule="evenodd" stroke="none"/>
  </g>
</svg>
