<?xml version="1.0" encoding="UTF-8" standalone="no"?>
<svg xmlns:ffdec="https://www.free-decompiler.com/flash" xmlns:xlink="http://www.w3.org/1999/xlink" ffdec:objectType="shape" height="31.65px" width="40.2px" xmlns="http://www.w3.org/2000/svg">
  <g transform="matrix(1.0, 0.0, 0.0, 1.0, 1.0, 2.45)">
    <path d="M-0.95 15.1 Q-0.45 13.6 1.35 11.75 4.95 8.1 9.8 8.05 14.6 8.0 19.2 11.0 L19.25 11.0 Q24.45 14.3 27.4 14.25 31.1 14.25 33.4 11.35 L33.4 11.3 Q35.5 8.5 35.9 5.3 L36.15 2.95 Q38.0 6.6 36.5 12.7 34.35 21.05 26.15 24.9 17.9 28.75 10.45 26.3 3.05 23.8 0.85 20.65 L-0.9 17.75 -0.95 17.15 -0.95 15.1" fill="#3c2b13" fill-rule="evenodd" stroke="none"/>
    <path d="M-0.95 15.1 Q-0.75 11.85 1.2 9.6 4.0 6.0 10.05 6.0 15.1 6.0 20.3 9.3 24.85 12.2 27.4 12.25 30.1 12.25 31.8 10.1 L31.85 10.1 Q33.6 7.7 33.9 5.05 L34.15 0.05 34.05 -2.45 35.85 -0.7 Q40.8 3.7 38.45 13.2 36.05 22.45 27.0 26.7 17.95 30.95 9.65 27.95 L9.6 27.95 Q2.45 25.35 -0.75 18.45 L-0.8 18.3 -0.85 18.15 -0.9 17.75 0.85 20.65 Q3.05 23.8 10.45 26.3 17.9 28.75 26.15 24.9 34.35 21.05 36.5 12.7 38.0 6.6 36.15 2.95 L35.9 5.3 Q35.5 8.5 33.4 11.3 L33.4 11.35 Q31.1 14.25 27.4 14.25 24.45 14.3 19.25 11.0 L19.2 11.0 Q14.6 8.0 9.8 8.05 4.95 8.1 1.35 11.75 -0.45 13.6 -0.95 15.1" fill="#271f16" fill-rule="evenodd" stroke="none"/>
  </g>
</svg>
