<?xml version="1.0" encoding="UTF-8" standalone="no"?>
<svg xmlns:ffdec="https://www.free-decompiler.com/flash" xmlns:xlink="http://www.w3.org/1999/xlink" ffdec:objectType="shape" height="30.85px" width="41.2px" xmlns="http://www.w3.org/2000/svg">
  <g transform="matrix(1.0, 0.0, 0.0, 1.0, 61.7, 10.45)">
    <path d="M-22.4 -10.45 Q-21.75 -8.4 -20.95 -3.7 -20.1 1.5 -20.9 9.0 L-21.15 9.6 -21.35 10.0 Q-30.4 22.3 -45.75 20.05 -53.8 18.75 -58.55 10.6 -60.6 5.95 -61.7 4.1 L-61.3 3.75 -60.55 3.7 Q-52.55 6.5 -44.0 5.2 -30.05 2.8 -23.55 -9.8 L-22.95 -10.3 -22.6 -10.35 -22.55 -10.35 -22.4 -10.45 M-54.1 7.35 Q-53.25 8.0 -52.25 9.2 L-52.05 9.2 Q-50.1 10.05 -45.2 10.05 -40.65 10.05 -35.05 8.4 -31.65 7.35 -28.9 5.55 L-24.8 1.95 Q-23.5 1.1 -22.55 -0.3 L-22.95 -5.8 -23.05 -6.6 Q-30.05 4.8 -43.65 7.15 L-43.7 7.15 Q-49.0 8.0 -54.1 7.3 L-55.45 7.1 -59.25 6.25 Q-57.9 7.8 -56.85 9.6 L-56.8 9.6 Q-52.6 16.85 -45.45 18.1 L-45.45 18.05 Q-36.7 19.35 -30.15 15.5 L-29.15 14.9 -29.4 15.05 -29.45 14.75 -29.45 13.5 Q-29.6 6.2 -23.1 6.2 L-22.65 6.25 -22.5 1.4 Q-23.95 3.5 -27.45 5.95 -34.9 11.2 -45.55 11.2 -49.55 11.2 -51.65 10.35 L-52.15 10.5 Q-52.65 10.5 -57.25 6.75 L-55.45 7.15 -54.1 7.35 M-27.05 8.5 L-27.85 11.05 Q-28.25 11.9 -28.5 14.45 -25.45 12.2 -22.95 8.8 L-22.9 8.75 -22.8 7.85 -22.75 7.35 Q-26.05 7.2 -27.05 8.5" fill="#463624" fill-rule="evenodd" stroke="none"/>
    <path d="M-54.1 7.3 Q-49.0 8.0 -43.7 7.15 L-43.65 7.15 Q-30.05 4.8 -23.05 -6.6 L-22.95 -5.8 -22.55 -0.3 Q-23.5 1.1 -24.8 1.95 L-28.9 5.55 Q-31.65 7.35 -35.05 8.4 -40.65 10.05 -45.2 10.05 -50.1 10.05 -52.05 9.2 L-52.25 9.2 Q-53.25 8.0 -54.1 7.35 L-54.1 7.3" fill="#e5e5e5" fill-rule="evenodd" stroke="none"/>
    <path d="M-27.05 8.5 Q-26.05 7.2 -22.75 7.35 L-22.8 7.85 -22.9 8.75 -22.95 8.8 Q-25.45 12.2 -28.5 14.45 -28.25 11.9 -27.85 11.05 L-27.05 8.5" fill="#b45f50" fill-rule="evenodd" stroke="none"/>
    <path d="M-54.1 7.35 L-55.45 7.15 -57.25 6.75 Q-52.65 10.5 -52.15 10.5 L-51.65 10.35 Q-49.55 11.2 -45.55 11.2 -34.9 11.2 -27.45 5.95 -23.95 3.5 -22.5 1.4 L-22.65 6.25 -23.1 6.2 Q-29.6 6.2 -29.45 13.5 L-29.45 14.75 -29.4 15.05 -29.15 14.9 -30.15 15.5 Q-36.7 19.35 -45.45 18.05 L-45.45 18.1 Q-52.6 16.85 -56.8 9.6 L-56.85 9.6 Q-57.9 7.8 -59.25 6.25 L-55.45 7.1 -54.1 7.3 -54.1 7.35" fill="#57352d" fill-rule="evenodd" stroke="none"/>
  </g>
</svg>
