<?xml version="1.0" encoding="UTF-8" standalone="no"?>
<svg xmlns:ffdec="https://www.free-decompiler.com/flash" xmlns:xlink="http://www.w3.org/1999/xlink" ffdec:objectType="shape" height="30.85px" width="41.2px" xmlns="http://www.w3.org/2000/svg">
  <g transform="matrix(1.0, 0.0, 0.0, 1.0, 61.7, 10.45)">
    <path d="M-22.6 -10.35 L-22.55 -10.35 -22.4 -10.45 Q-21.75 -8.4 -20.95 -3.7 -20.1 1.5 -20.9 9.0 L-21.15 9.6 -21.35 10.0 Q-30.4 22.3 -45.75 20.05 -53.8 18.75 -58.55 10.6 -60.6 5.95 -61.7 4.1 L-61.3 3.75 -60.55 3.7 Q-52.55 6.5 -44.0 5.2 -30.05 2.8 -23.55 -9.8 L-22.95 -10.3 -22.6 -10.35 M-22.55 -0.4 L-22.95 -5.8 -23.05 -6.6 Q-30.05 4.8 -43.65 7.15 L-43.7 7.15 Q-48.95 8.0 -54.0 7.3 L-54.75 7.15 -55.05 7.2 -55.45 7.1 -59.25 6.25 -58.1 7.65 -57.55 8.5 -56.85 9.6 -56.8 9.6 -56.75 9.7 -56.05 10.85 -56.05 10.8 -55.85 10.75 -51.8 13.45 -49.05 12.75 -48.65 12.65 -46.55 12.2 -46.4 12.15 -45.5 12.15 -45.4 12.4 -45.45 12.65 -45.5 12.65 Q-47.2 13.0 -50.45 14.2 L-50.95 15.7 -50.95 15.8 -51.0 15.95 -48.85 17.1 -45.45 18.1 -45.45 18.05 Q-36.7 19.35 -30.15 15.5 L-29.7 15.25 -29.4 15.05 -25.6 11.85 -25.0 11.25 -22.95 8.8 -22.9 8.75 -22.9 8.7 -22.65 8.7 -22.6 7.9 Q-23.55 7.1 -24.1 7.1 -26.35 7.1 -28.1 7.9 L-28.15 7.95 -28.2 7.95 -28.75 8.3 -29.8 8.85 -29.85 8.85 -29.95 8.85 -30.45 8.85 -30.55 8.65 Q-30.55 8.25 -29.15 7.6 L-28.7 7.4 -28.65 7.4 -28.15 7.2 -27.2 6.85 -27.1 6.8 -26.95 6.75 -23.8 5.5 Q-23.05 4.4 -22.5 2.75 L-22.5 3.5 -22.45 2.7 -22.45 2.65 -22.5 0.5 -22.6 -0.2 -22.55 -0.3 -22.55 -0.4 M-29.7 15.25 L-30.4 15.8 -29.7 15.25 M-52.0 15.25 L-52.05 14.8 Q-52.05 14.55 -53.85 13.35 L-54.45 12.95 -54.3 13.15 -52.6 14.75 -51.15 15.85 -52.0 15.25" fill="#463624" fill-rule="evenodd" stroke="none"/>
    <path d="M-22.55 -0.4 L-22.6 -0.35 -22.7 -0.2 -22.6 -0.2 -22.5 0.5 -22.45 2.65 -22.45 2.7 -22.5 2.75 Q-23.05 4.4 -23.8 5.5 L-26.95 6.75 -27.1 6.8 -27.2 6.85 -28.15 7.2 -28.65 7.4 -28.7 7.4 -28.9 7.4 -29.15 7.6 Q-30.55 8.25 -30.55 8.65 L-30.45 8.85 -29.95 8.85 -29.85 8.85 -29.8 8.85 -28.75 8.3 -28.2 7.95 -28.15 7.95 -28.1 7.95 -28.1 7.9 Q-26.35 7.1 -24.1 7.1 -23.55 7.1 -22.6 7.9 L-22.65 8.7 -22.9 8.7 -22.9 8.75 -22.95 8.8 -25.0 11.25 -25.6 11.85 Q-25.8 8.6 -28.4 8.6 L-30.85 9.3 -31.1 9.25 -31.2 8.95 Q-31.2 8.25 -27.15 5.2 -26.65 4.8 -26.2 3.6 -27.6 4.65 -29.4 5.45 -34.15 7.5 -35.95 7.95 -42.3 9.45 -46.05 9.45 L-54.55 8.7 -57.3 7.9 Q-53.75 12.2 -48.45 12.2 L-44.15 11.95 -41.6 12.05 Q-41.5 12.1 -41.55 12.3 -42.7 13.05 -46.35 14.6 -47.75 15.5 -48.25 17.3 L-48.85 17.1 -51.0 15.95 -50.95 15.8 -50.95 15.75 -50.95 15.7 -50.45 14.2 Q-47.2 13.0 -45.5 12.65 L-45.45 12.65 -45.4 12.4 -45.5 12.15 -46.4 12.15 -46.55 12.2 -48.65 12.65 -49.05 12.75 -51.8 13.45 -55.85 10.75 -56.05 10.8 -56.05 10.85 -56.75 9.7 -56.8 9.6 -56.85 9.6 -57.55 8.5 -58.1 7.65 -59.25 6.25 -55.45 7.1 -55.05 7.2 -54.75 7.15 -54.0 7.3 Q-48.95 8.0 -43.7 7.15 L-43.65 7.15 Q-30.05 4.8 -23.05 -6.6 L-22.95 -5.8 -22.55 -0.4" fill="#e5e5e5" fill-rule="evenodd" stroke="none"/>
    <path d="M-22.6 -0.2 L-22.7 -0.2 -22.6 -0.35 -22.55 -0.4 -22.55 -0.3 -22.6 -0.2 M-48.85 17.1 L-48.25 17.3 Q-47.75 15.5 -46.35 14.6 -42.7 13.05 -41.55 12.3 -41.5 12.1 -41.6 12.05 L-44.15 11.95 -48.45 12.2 Q-53.75 12.2 -57.3 7.9 L-54.55 8.7 -46.05 9.45 Q-42.3 9.45 -35.95 7.95 -34.15 7.5 -29.4 5.45 -27.6 4.65 -26.2 3.6 -26.65 4.8 -27.15 5.2 -31.2 8.25 -31.2 8.95 L-31.1 9.25 -30.85 9.3 -28.4 8.6 Q-25.8 8.6 -25.6 11.85 L-29.4 15.05 -29.7 15.25 -30.15 15.5 Q-36.7 19.35 -45.45 18.05 L-45.45 18.1 -48.85 17.1 M-28.1 7.9 L-28.1 7.95 -28.15 7.95 -28.1 7.9 M-29.15 7.6 L-28.9 7.4 -28.7 7.4 -29.15 7.6" fill="#f9f9f9" fill-rule="evenodd" stroke="none"/>
    <path d="M-50.95 15.7 L-50.95 15.75 -50.95 15.8 -50.95 15.7 M-52.0 15.25 L-51.15 15.85 -52.6 14.75 -54.3 13.15 -54.45 12.95 -53.85 13.35 Q-52.05 14.55 -52.05 14.8 L-52.0 15.25" fill="#57352d" fill-rule="evenodd" stroke="none"/>
  </g>
</svg>
