<?xml version="1.0" encoding="UTF-8" standalone="no"?>
<svg xmlns:ffdec="https://www.free-decompiler.com/flash" xmlns:xlink="http://www.w3.org/1999/xlink" ffdec:objectType="shape" height="14.65px" width="27.85px" xmlns="http://www.w3.org/2000/svg">
  <g transform="matrix(1.0, 0.0, 0.0, 1.0, 49.75, -1.15)">
    <path d="M-46.3 13.65 L-45.25 12.35 -45.15 12.15 -45.15 12.1 -42.4 10.5 -38.05 9.15 -38.15 9.0 Q-38.35 8.75 -39.4 8.75 -45.1 9.0 -46.9 10.7 L-47.5 9.95 -48.2 9.0 -44.45 6.2 Q-39.2 2.9 -31.4 2.9 -23.8 2.9 -23.8 7.05 -23.8 9.8 -28.15 12.35 -33.5 15.5 -45.25 14.35 L-46.2 13.95 -46.4 13.85 -46.3 13.65" fill="#e5e5e5" fill-rule="evenodd" stroke="none"/>
    <path d="M-46.4 13.85 L-46.2 13.95 -45.25 14.35 Q-33.5 15.5 -28.15 12.35 -23.8 9.8 -23.8 7.05 -23.8 2.9 -31.4 2.9 -39.2 2.9 -44.45 6.2 L-48.2 9.0 -47.5 9.95 -46.9 10.7 Q-45.1 9.0 -39.4 8.75 -38.35 8.75 -38.15 9.0 L-38.05 9.15 -42.4 10.5 -45.15 12.1 -45.15 12.15 -45.25 12.35 -46.3 13.65 -46.65 13.75 -46.4 13.85 M-37.4 15.75 L-42.0 15.65 -42.05 15.65 -43.25 15.8 Q-50.15 15.8 -49.7 10.2 L-49.6 9.4 Q-48.95 6.45 -42.8 3.85 -36.5 1.15 -30.15 1.15 -24.4 1.15 -22.65 3.85 -21.9 4.95 -21.9 7.4 -21.9 9.85 -25.3 12.4 -29.8 15.75 -37.4 15.75" fill="#463624" fill-rule="evenodd" stroke="none"/>
  </g>
</svg>
