<?xml version="1.0" encoding="UTF-8" standalone="no"?>
<svg xmlns:ffdec="https://www.free-decompiler.com/flash" xmlns:xlink="http://www.w3.org/1999/xlink" ffdec:objectType="shape" height="25.9px" width="35.65px" xmlns="http://www.w3.org/2000/svg">
  <g transform="matrix(1.0, 0.0, 0.0, 1.0, 54.95, 6.15)">
    <path d="M-47.2 3.6 L-45.3 5.2 Q-43.4 7.0 -42.9 7.0 -41.4 7.0 -26.4 1.4 L-24.9 1.35 Q-22.3 1.35 -21.7 2.0 L-21.2 2.3 -22.25 0.2 Q-24.85 -4.1 -30.15 -4.1 -34.55 -4.1 -40.5 -0.75 L-43.45 1.0 -46.45 3.05 -47.2 3.6 -47.7 3.95 -47.2 3.6 M-28.55 -6.15 Q-23.45 -6.15 -20.85 -0.6 -19.55 2.2 -19.3 5.25 -19.3 10.4 -21.4 13.15 -26.5 19.75 -42.25 19.75 L-50.1 19.7 -50.25 19.45 Q-50.05 19.05 -50.2 18.75 L-50.05 17.4 -49.95 14.9 Q-49.95 8.4 -52.85 8.4 -53.4 8.4 -54.4 9.25 -54.95 9.05 -54.95 8.45 L-48.35 3.05 Q-44.15 -0.15 -40.5 -2.2 -33.6 -6.15 -28.55 -6.15 M-20.7 3.9 L-20.8 3.4 -20.7 3.85 -20.8 3.85 Q-22.1 3.85 -22.5 3.25 -22.85 2.65 -25.1 2.65 -28.75 2.65 -35.35 5.4 -41.9 8.15 -42.75 8.15 -44.6 8.15 -48.05 4.25 L-48.7 4.8 -51.55 7.4 Q-49.1 9.2 -48.75 12.5 -48.6 14.4 -48.7 18.15 L-42.15 18.4 Q-35.7 18.4 -31.15 17.3 L-31.1 17.3 -30.3 17.05 -31.2 17.3 -31.25 17.05 Q-31.25 16.6 -30.5 16.2 -29.75 15.85 -29.75 15.5 L-31.15 14.75 Q-33.9 17.25 -36.4 17.25 -40.25 17.25 -40.25 14.3 -40.25 12.5 -38.65 10.25 -36.15 6.8 -31.4 6.8 -26.85 6.8 -24.15 9.15 -22.35 10.7 -22.15 12.05 -19.9 8.95 -20.55 5.4 L-20.7 3.9 M-28.55 10.2 L-28.55 11.55 -28.9 12.3 -28.9 11.95 -28.8 10.9 -28.6 10.85 -28.55 10.2 M-38.8 12.8 L-39.15 14.05 Q-39.15 15.9 -37.0 15.9 -33.95 15.9 -31.7 13.8 -30.15 12.35 -29.55 10.65 L-29.15 10.5 -28.8 10.85 -29.1 12.3 -29.85 13.5 -29.95 13.6 -29.8 13.55 -29.45 13.55 -29.15 13.6 -27.5 14.4 -27.4 14.55 -27.25 14.85 -27.25 14.95 -27.15 15.65 -27.25 15.95 -27.05 15.85 -25.45 15.0 -23.0 13.05 -23.55 12.35 -24.4 10.6 Q-26.15 8.05 -31.4 8.05 -37.25 8.05 -38.8 12.8" fill="#463624" fill-rule="evenodd" stroke="none"/>
    <path d="M-47.2 3.6 L-46.45 3.05 -43.45 1.0 -40.5 -0.75 Q-34.55 -4.1 -30.15 -4.1 -24.85 -4.1 -22.25 0.2 L-21.2 2.3 -21.7 2.0 Q-22.3 1.35 -24.9 1.35 L-26.4 1.4 Q-41.4 7.0 -42.9 7.0 -43.4 7.0 -45.3 5.2 L-47.2 3.6" fill="#e5e5e5" fill-rule="evenodd" stroke="none"/>
    <path d="M-20.7 3.9 L-20.55 5.4 Q-19.9 8.95 -22.15 12.05 -22.35 10.7 -24.15 9.15 -26.85 6.8 -31.4 6.8 -36.15 6.8 -38.65 10.25 -40.25 12.5 -40.25 14.3 -40.25 17.25 -36.4 17.25 -33.9 17.25 -31.15 14.75 L-29.75 15.5 Q-29.75 15.85 -30.5 16.2 -31.25 16.6 -31.25 17.05 L-31.2 17.3 -31.15 17.3 Q-35.7 18.4 -42.15 18.4 L-48.7 18.15 Q-48.6 14.4 -48.75 12.5 -49.1 9.2 -51.55 7.4 L-48.7 4.8 -48.05 4.25 Q-44.6 8.15 -42.75 8.15 -41.9 8.15 -35.35 5.4 -28.75 2.65 -25.1 2.65 -22.85 2.65 -22.5 3.25 -22.1 3.85 -20.8 3.85 L-20.7 3.85 -20.7 3.9" fill="#57352d" fill-rule="evenodd" stroke="none"/>
    <path d="M-29.1 12.3 L-28.8 10.85 -29.15 10.5 -29.55 10.65 Q-30.15 12.35 -31.7 13.8 -33.95 15.9 -37.0 15.9 -39.15 15.9 -39.15 14.05 L-38.8 12.8 Q-37.7 14.15 -35.4 14.15 -32.45 14.15 -30.75 12.0 L-29.05 9.8 Q-25.9 9.8 -25.4 14.4 L-25.45 15.0 -27.05 15.85 -27.15 15.65 -27.25 14.95 -27.25 14.85 -27.4 14.55 -27.5 14.4 -29.15 13.6 -29.45 13.55 -29.1 12.3 M-28.55 10.2 L-28.6 10.85 -28.8 10.9 -28.9 11.95 -28.9 12.3 -28.55 11.55 -28.55 10.2" fill="#a05345" fill-rule="evenodd" stroke="none"/>
    <path d="M-29.1 12.3 L-29.45 13.55 -29.8 13.55 -29.85 13.5 -29.1 12.3 M-25.45 15.0 L-25.4 14.4 Q-25.9 9.8 -29.05 9.8 L-30.75 12.0 Q-32.45 14.15 -35.4 14.15 -37.7 14.15 -38.8 12.8 -37.25 8.05 -31.4 8.05 -26.15 8.05 -24.4 10.6 L-23.55 12.35 -23.0 13.05 -25.45 15.0" fill="#b45f50" fill-rule="evenodd" stroke="none"/>
  </g>
</svg>
