<?xml version="1.0" encoding="UTF-8" standalone="no"?>
<svg xmlns:ffdec="https://www.free-decompiler.com/flash" xmlns:xlink="http://www.w3.org/1999/xlink" ffdec:objectType="shape" height="16.6px" width="36.9px" xmlns="http://www.w3.org/2000/svg">
  <g transform="matrix(1.0, 0.0, 0.0, 1.0, 59.3, 4.95)">
    <path d="M-28.25 -4.75 L-27.45 -4.85 Q-26.55 -4.75 -27.25 -4.75 L-27.7 -4.5 Q-22.95 -4.45 -22.4 2.75 -25.45 11.85 -30.45 11.65 -35.5 11.4 -41.45 10.15 -47.15 8.95 -50.65 7.3 -55.55 7.1 -57.8 5.7 L-59.3 3.1 Q-49.6 6.4 -39.85 3.1 -33.1 0.65 -28.25 -4.75 M-24.4 2.6 L-24.4 2.5 Q-24.4 -0.45 -29.05 -1.45 -30.4 0.5 -34.55 3.35 -38.5 6.0 -43.5 6.9 L-39.65 7.8 -33.4 9.1 -32.25 9.55 -32.1 7.95 Q-31.9 6.5 -30.75 4.2 -29.6 1.85 -27.9 1.9 -26.2 1.9 -24.9 2.4 L-24.4 2.6 M-24.8 4.0 L-24.65 3.6 -24.85 4.0 -28.4 3.75 Q-29.65 3.75 -30.5 6.4 -31.2 8.45 -30.85 9.75 -30.55 9.4 -29.1 9.4 -27.75 9.4 -26.0 6.25 L-24.8 4.0" fill="#463624" fill-rule="evenodd" stroke="none"/>
    <path d="M-24.4 2.5 L-24.4 2.6 -24.9 2.4 Q-26.2 1.9 -27.9 1.9 -29.6 1.85 -30.75 4.2 -31.9 6.5 -32.1 7.95 L-32.25 9.55 -33.4 9.1 -39.65 7.8 -43.5 6.9 Q-38.5 6.0 -34.55 3.35 -30.4 0.5 -29.05 -1.45 -24.4 -0.45 -24.4 2.5" fill="#57352d" fill-rule="evenodd" stroke="none"/>
    <path d="M-24.85 4.0 L-24.8 4.0 -26.0 6.25 Q-27.75 9.4 -29.1 9.4 -30.55 9.4 -30.85 9.75 -31.2 8.45 -30.5 6.4 -29.65 3.75 -28.4 3.75 L-24.85 4.0" fill="#b45f50" fill-rule="evenodd" stroke="none"/>
  </g>
</svg>
