<?xml version="1.0" encoding="UTF-8" standalone="no"?>
<svg xmlns:ffdec="https://www.free-decompiler.com/flash" xmlns:xlink="http://www.w3.org/1999/xlink" ffdec:objectType="shape" height="7.85px" width="23.45px" xmlns="http://www.w3.org/2000/svg">
  <g transform="matrix(1.0, 0.0, 0.0, 1.0, 52.2, -6.8)">
    <path d="M-30.1 9.25 Q-29.65 10.0 -29.65 11.2 -29.65 12.8 -30.25 12.8 L-36.15 12.2 -36.9 12.05 -36.85 12.0 Q-36.05 12.0 -36.0 11.65 -35.95 10.95 -34.9 10.25 -34.3 9.8 -32.35 9.85 -30.8 9.85 -30.1 9.25" fill="#b45f50" fill-rule="evenodd" stroke="none"/>
    <path d="M-30.1 9.25 Q-30.8 9.85 -32.35 9.85 -34.3 9.8 -34.9 10.25 -35.95 10.95 -36.0 11.65 -36.05 12.0 -36.85 12.0 L-36.9 12.05 -36.15 12.2 -30.25 12.8 Q-29.65 12.8 -29.65 11.2 -29.65 10.0 -30.1 9.25 M-30.8 8.5 L-31.25 8.25 -31.55 8.3 -34.1 8.05 Q-44.6 8.05 -47.45 9.4 -46.9 10.5 -46.9 11.3 L-46.9 12.25 Q-43.9 11.55 -41.75 11.55 L-38.25 11.85 Q-38.15 10.7 -36.4 9.55 -34.45 8.3 -31.9 8.3 L-30.85 8.5 -30.5 8.75 -30.8 8.5 M-35.9 6.9 L-34.15 6.8 -31.4 7.1 Q-28.65 7.8 -28.75 11.15 -28.75 13.9 -30.8 13.9 L-35.95 13.3 -42.25 12.65 Q-45.4 12.65 -48.0 13.65 -50.6 14.65 -51.25 14.65 L-51.7 14.55 -51.9 14.05 Q-51.9 13.4 -48.1 12.5 L-47.7 12.4 Q-48.65 11.5 -48.65 9.35 L-52.05 10.65 Q-52.2 11.05 -52.2 10.4 -52.2 9.65 -48.0 8.65 L-48.45 8.75 Q-47.95 8.2 -46.2 7.95 L-41.8 7.5 -38.75 7.2 -35.9 6.9" fill="#463624" fill-rule="evenodd" stroke="none"/>
    <path d="M-30.85 8.5 L-31.9 8.3 Q-34.45 8.3 -36.4 9.55 -38.15 10.7 -38.25 11.85 L-41.75 11.55 Q-43.9 11.55 -46.9 12.25 L-46.9 11.3 Q-46.9 10.5 -47.45 9.4 -44.6 8.05 -34.1 8.05 L-31.55 8.3 -31.25 8.25 -30.8 8.5 -30.85 8.5" fill="#57352d" fill-rule="evenodd" stroke="none"/>
  </g>
</svg>
