<?xml version="1.0" encoding="UTF-8" standalone="no"?>
<svg xmlns:ffdec="https://www.free-decompiler.com/flash" xmlns:xlink="http://www.w3.org/1999/xlink" ffdec:objectType="shape" height="87.4px" width="65.35px" xmlns="http://www.w3.org/2000/svg">
  <g transform="matrix(1.0, 0.0, 0.0, 1.0, -22.05, 5.45)">
    <path d="M38.25 -1.3 L38.2 -1.3 Q40.0 -3.65 42.95 -4.35 L43.0 -4.35 Q58.05 -7.9 71.4 -0.2 85.5 7.9 87.1 24.15 88.65 39.65 81.6 53.6 74.75 67.15 61.9 75.25 52.3 81.2 41.05 81.8 L38.8 81.95 40.25 80.2 Q41.8 78.2 42.9 75.95 44.3 73.1 45.2 70.2 41.25 72.05 36.9 72.95 L27.2 73.85 24.35 73.9 24.2 73.15 26.8 71.95 Q32.6 69.4 36.4 64.2 L36.4 64.25 Q47.55 48.8 38.45 31.6 34.45 24.2 33.45 15.8 32.3 6.2 38.25 -1.3" fill="#271f16" fill-rule="evenodd" stroke="none"/>
    <path d="M29.3 15.9 Q34.7 22.8 36.4 31.45 L36.4 31.5 Q38.9 44.25 24.8 52.85 L22.4 54.4 22.05 54.05 23.4 51.55 Q32.3 34.95 30.15 26.95 27.7 18.45 27.5 16.6 L27.15 13.85 27.6 13.65 29.3 15.9" fill="#271f16" fill-rule="evenodd" stroke="none"/>
  </g>
</svg>
