<?xml version="1.0" encoding="UTF-8" standalone="no"?>
<svg xmlns:ffdec="https://www.free-decompiler.com/flash" xmlns:xlink="http://www.w3.org/1999/xlink" ffdec:objectType="shape" height="172.0px" width="88.4px" xmlns="http://www.w3.org/2000/svg">
  <g transform="matrix(1.0, 0.0, 0.0, 1.0, 41.6, 136.3)">
    <path d="M-24.7 -63.35 L-24.35 -63.15 -22.25 -62.65 -20.65 -62.4 -21.65 -60.7 -23.6 -60.85 -23.55 -60.9 -24.85 -61.3 -25.85 -57.9 -26.75 -57.9 -26.8 -57.1 -26.1 -57.0 -27.25 -53.1 -28.05 -53.0 -28.0 -52.2 -27.5 -52.15 -25.8 -52.1 -26.15 -51.25 -27.75 -51.25 -27.5 -52.15 -27.75 -51.25 -28.65 -51.6 -28.95 -51.85 -29.15 -52.1 -29.45 -52.8 Q-29.6 -53.35 -29.05 -53.8 L-28.25 -56.75 -26.25 -63.75 -26.15 -64.2 -24.7 -63.35 M-14.05 -60.15 L-15.6 -61.9 0.95 -61.4 7.2 -61.45 13.2 -61.65 19.75 -62.15 19.8 -62.15 24.35 -62.65 Q26.45 -63.0 26.95 -63.3 L28.0 -63.95 28.3 -64.15 30.45 -54.55 30.6 -53.7 30.7 -53.6 30.9 -53.05 30.9 -52.9 30.7 -52.2 30.6 -52.05 29.45 -51.35 Q27.3 -50.65 21.45 -50.15 L4.3 -49.35 -0.3 -49.3 -3.05 -49.3 -8.0 -49.3 -8.05 -49.5 -8.7 -51.5 -5.05 -51.35 -5.05 -51.45 -2.6 -51.4 0.2 -51.4 0.75 -51.4 8.5 -51.45 21.25 -52.15 21.3 -52.15 28.7 -53.15 26.9 -61.2 25.25 -60.8 23.95 -60.6 20.3 -60.15 19.95 -60.15 19.75 -60.1 5.3 -59.4 2.4 -59.4 0.95 -59.4 -0.7 -59.4 -10.05 -59.6 -10.0 -59.85 -14.05 -60.15 M21.4 -103.65 L21.35 -103.6 21.35 -103.65 21.4 -103.65 M23.2 29.6 Q13.85 36.6 1.3 35.6 -13.45 34.4 -22.25 24.25 L-19.95 23.95 -19.85 23.95 Q-11.7 32.55 1.45 33.6 11.5 34.4 19.4 29.75 L23.2 29.6 M32.2 19.0 L32.35 19.6 32.3 19.6 32.3 19.45 32.2 19.0 M-23.35 -57.6 L-25.2 -57.9 -25.25 -57.9 -24.45 -59.4 -22.6 -59.05 -23.35 -57.6 M-25.65 -56.95 L-23.85 -56.65 -24.45 -55.4 -26.2 -55.65 -25.65 -56.95 M-26.6 -54.7 L-24.85 -54.5 -25.35 -53.3 -27.2 -53.1 -26.6 -54.7 M-11.65 -56.95 L-10.15 -56.65 -9.15 -56.6 -8.15 -55.15 -10.75 -55.6 -11.65 -56.95 M-9.95 -57.65 L-12.5 -58.1 -13.25 -59.1 -11.1 -58.95 -9.95 -57.65 M-9.8 -53.95 L-7.6 -54.15 -7.1 -53.15 -9.6 -53.5 -9.8 -53.95" fill="#000000" fill-rule="evenodd" stroke="none"/>
    <path d="M5.3 -59.4 L19.75 -60.1 19.95 -60.15 20.3 -60.15 23.95 -60.6 25.25 -60.8 26.9 -61.2 28.7 -53.15 21.3 -52.15 21.25 -52.15 8.5 -51.45 5.3 -59.4 M-4.05 -9.45 L-2.9 -9.0 0.65 -7.1 2.0 -6.25 1.9 -5.3 Q-0.4 -6.5 -2.95 -6.75 L-4.3 -6.7 -4.05 -9.45 M9.15 -2.35 Q11.2 -1.45 13.45 -0.95 L19.65 -0.75 Q23.85 -1.0 27.7 -2.4 28.6 -2.65 29.3 -3.35 L29.65 -1.0 Q27.5 0.15 25.15 0.8 L23.65 1.05 20.7 1.5 17.65 1.65 15.9 1.65 14.2 1.4 12.55 1.05 10.9 0.35 9.3 -0.4 9.15 -2.35 M19.4 29.75 Q11.5 34.4 1.45 33.6 -11.7 32.55 -19.85 23.95 L-19.55 23.8 Q-17.25 22.4 -8.7 21.1 -0.45 19.8 5.4 26.4 L5.7 26.65 Q11.15 29.7 19.4 29.75 M-25.25 -57.9 L-25.85 -57.9 -24.85 -61.3 -23.55 -60.9 -23.6 -60.85 -24.5 -60.9 -24.5 -60.45 -24.7 -60.45 -24.85 -59.5 -24.45 -59.4 -25.25 -57.9 M-26.1 -57.0 L-25.65 -56.95 -26.2 -55.65 -26.45 -55.7 -26.6 -54.7 -27.2 -53.1 -27.25 -53.1 -26.1 -57.0" fill="#272727" fill-rule="evenodd" stroke="none"/>
    <path d="M-10.05 -59.6 L-0.7 -59.4 0.95 -59.4 2.4 -59.4 5.3 -59.4 8.5 -51.45 0.75 -51.4 0.2 -51.4 -2.6 -51.4 -5.05 -51.45 -5.05 -51.9 -4.6 -51.85 -4.5 -52.8 -7.1 -53.15 -7.6 -54.15 -6.55 -54.3 -6.55 -54.9 -8.15 -55.15 -9.15 -56.6 -8.6 -56.6 -8.5 -57.35 -9.95 -57.65 -11.1 -58.95 -10.1 -58.85 -10.05 -59.6" fill="#333333" fill-rule="evenodd" stroke="none"/>
    <path d="M-1.95 -121.3 L-2.3 -120.2 -2.65 -120.6 Q-3.25 -121.2 -4.15 -121.2 -5.0 -121.2 -5.65 -120.6 L-5.7 -120.55 Q-6.2 -120.05 -6.25 -119.4 L-6.3 -119.05 -6.25 -118.7 Q-6.2 -118.05 -5.7 -117.55 L-5.65 -117.5 Q-5.0 -116.9 -4.15 -116.9 -3.25 -116.9 -2.65 -117.55 L-2.3 -117.95 -2.0 -116.75 Q-2.9 -115.9 -4.15 -115.9 -5.4 -115.9 -6.25 -116.75 -7.15 -115.9 -8.4 -115.9 -9.7 -115.9 -10.65 -116.85 L-10.95 -117.2 -11.65 -117.15 Q-12.95 -117.15 -13.9 -118.1 L-14.45 -118.8 -14.75 -119.9 Q-15.8 -120.05 -16.55 -120.75 L-16.65 -120.85 -17.2 -121.6 Q-17.55 -122.25 -17.55 -123.05 -17.55 -124.35 -16.65 -125.3 -15.7 -126.2 -14.4 -126.2 L-13.7 -126.1 -12.65 -125.65 -12.2 -125.3 Q-11.4 -124.5 -11.25 -123.4 L-10.6 -123.25 Q-9.95 -123.05 -9.45 -122.55 L-9.1 -122.1 -8.4 -122.2 Q-7.15 -122.2 -6.3 -121.4 -5.4 -122.2 -4.15 -122.2 -2.85 -122.2 -1.95 -121.3 M30.45 -54.55 L30.65 -54.05 30.55 -54.0 30.7 -53.6 30.6 -53.7 30.45 -54.55 M30.9 -53.05 Q38.45 -32.6 42.45 -16.6 L43.0 -14.3 Q44.7 -6.95 45.65 -0.55 L46.0 1.8 Q46.65 7.3 46.75 12.05 L46.8 12.05 46.75 14.0 46.75 14.05 44.75 14.0 Q34.7 13.95 34.1 18.0 L34.75 21.4 Q36.05 24.85 33.2 26.95 30.75 28.8 24.65 29.45 L23.2 29.6 19.4 29.75 Q11.15 29.7 5.7 26.65 L5.4 26.4 Q-0.45 19.8 -8.7 21.1 -17.25 22.4 -19.55 23.8 L-19.85 23.95 -19.95 23.95 -22.25 24.25 Q-29.05 24.9 -31.9 23.5 -33.95 22.55 -34.35 20.7 -34.8 19.1 -33.75 16.8 L-33.15 13.35 Q-33.0 10.8 -35.05 10.5 L-40.05 10.8 -40.75 10.9 -41.3 10.55 -41.55 9.85 Q-41.35 4.65 -40.75 -0.75 L-40.45 -3.35 -38.8 -14.35 -36.95 -13.15 -37.3 -11.2 -38.35 -3.9 -38.65 -1.35 Q-39.25 3.65 -39.45 8.5 -37.75 8.2 -34.85 8.5 -32.45 8.7 -31.6 10.5 -31.05 11.65 -31.15 13.45 L-31.15 13.6 -31.65 16.4 -31.45 16.5 -31.8 17.25 -31.95 17.95 -32.1 17.9 Q-32.6 19.25 -32.4 20.25 -32.15 21.15 -31.05 21.7 L-27.05 22.4 -23.8 22.35 -21.45 22.1 -20.4 22.0 -19.95 21.75 Q-17.15 20.35 -5.85 18.9 -3.55 18.9 -1.4 19.55 2.7 20.75 6.1 24.25 L6.8 24.95 Q10.05 26.7 14.35 27.35 L14.4 27.35 22.4 27.7 22.85 27.65 26.1 27.15 Q28.8 26.55 32.0 25.35 L32.3 25.1 Q33.25 24.15 33.05 22.85 L33.05 22.8 32.95 22.85 32.8 21.9 32.45 21.1 32.6 21.05 32.35 19.6 32.2 19.0 32.0 19.0 32.05 18.15 31.9 17.25 32.1 17.2 32.15 17.2 Q32.25 16.45 32.6 15.85 33.45 14.3 35.55 13.4 38.7 12.0 44.75 12.0 L44.75 11.95 Q44.65 7.2 43.95 1.65 L43.65 -0.45 Q42.65 -6.95 40.9 -14.35 L40.4 -16.45 Q36.6 -31.9 29.45 -51.35 L30.6 -52.05 30.7 -52.2 30.9 -52.9 30.9 -53.05 M-15.9 -124.6 L-15.95 -124.55 Q-16.55 -123.95 -16.55 -123.05 L-16.5 -122.6 Q-16.4 -122.0 -15.95 -121.55 -15.45 -121.05 -14.75 -120.9 -14.6 -121.85 -13.9 -122.55 -13.2 -123.25 -12.25 -123.4 -12.4 -124.1 -12.9 -124.6 L-13.3 -124.9 -14.4 -125.2 -14.45 -125.2 Q-15.3 -125.15 -15.9 -124.6 M-8.4 -121.2 L-8.6 -121.2 -9.55 -120.85 -9.9 -120.6 -9.95 -120.55 Q-10.55 -119.95 -10.55 -119.05 L-10.5 -118.5 -10.0 -117.6 -9.95 -117.55 Q-9.3 -116.9 -8.4 -116.9 -7.5 -116.9 -6.9 -117.55 -7.3 -118.2 -7.3 -119.05 -7.3 -119.9 -6.9 -120.6 -7.5 -121.2 -8.4 -121.2 M-11.4 -118.15 L-11.55 -119.05 Q-11.55 -120.35 -10.65 -121.3 L-10.05 -121.75 -10.15 -121.85 Q-10.65 -122.35 -11.3 -122.4 L-11.35 -122.4 -11.65 -122.45 -12.35 -122.3 -13.15 -121.85 -13.2 -121.8 -13.65 -121.0 -13.8 -120.3 -13.75 -119.95 -13.7 -119.7 -13.2 -118.8 Q-12.55 -118.15 -11.65 -118.15 L-11.4 -118.15" fill="#532222" fill-rule="evenodd" stroke="none"/>
    <path d="M2.0 -6.25 L0.65 -7.1 -2.9 -9.0 -4.05 -9.45 -3.95 -10.1 Q-2.1 -28.6 1.95 -47.35 12.2 -45.5 21.95 -47.7 L27.65 -13.75 29.3 -3.35 Q28.6 -2.65 27.7 -2.4 23.85 -1.0 19.65 -0.75 L13.45 -0.95 Q11.2 -1.45 9.15 -2.35 L8.6 -10.8 Q7.8 -25.45 7.2 -45.65 L2.0 -6.25 M-4.3 -6.7 L-2.95 -6.75 Q-0.4 -6.5 1.9 -5.3 L0.05 8.6 Q-1.55 7.7 -3.2 7.0 L-5.2 6.3 -4.3 -6.7 M29.65 -1.0 L31.6 12.75 Q30.85 13.35 29.9 13.6 25.75 15.0 21.2 15.25 L14.5 15.05 10.6 13.95 Q9.9 8.05 9.3 -0.4 L10.9 0.35 12.55 1.05 14.2 1.4 15.9 1.65 17.65 1.65 20.7 1.5 23.65 1.05 25.15 0.8 Q27.5 0.15 29.65 -1.0 M32.1 17.2 L31.9 17.25 32.05 18.15 32.0 19.0 32.2 19.0 32.3 19.45 32.3 19.6 32.3 19.65 Q32.65 24.15 32.3 25.1 L32.0 25.35 Q28.8 26.55 26.1 27.15 L22.85 27.65 22.4 27.7 14.4 27.35 14.35 27.35 Q12.4 27.0 10.9 16.0 L11.75 16.35 13.5 17.05 15.3 17.4 17.15 17.65 19.05 17.65 22.35 17.5 25.55 17.05 27.15 16.8 Q29.6 16.2 31.85 15.1 L32.0 16.25 32.1 17.2 M-1.4 19.55 Q-3.55 18.9 -5.85 18.9 L-5.95 18.9 -5.65 18.85 -5.35 9.3 -3.25 9.25 -0.1 9.9 -1.4 19.55 M-19.95 21.75 L-20.4 22.0 -21.45 22.1 -23.8 22.35 -27.05 22.4 -26.35 11.9 -23.95 11.6 -18.85 10.8 -19.95 21.75 M-39.45 8.5 Q-39.25 3.65 -38.65 -1.35 L-37.85 -1.7 -37.3 -2.0 -36.9 -1.9 -39.45 8.5 M-38.35 -3.9 L-37.3 -11.2 -36.95 -13.15 -36.6 -12.9 -37.3 -11.2 Q-36.15 -10.25 -34.85 -9.45 L-36.35 -4.0 -37.9 -4.0 -38.35 -3.9 M-25.25 -5.35 L-17.35 -4.15 -18.6 8.1 -20.45 8.85 Q-23.05 10.05 -25.75 10.55 L-26.25 10.55 -25.25 -5.35" fill="#9f2020" fill-rule="evenodd" stroke="none"/>
    <path d="M-0.3 -49.3 L4.3 -49.35 21.45 -50.15 Q27.3 -50.65 29.45 -51.35 36.6 -31.9 40.4 -16.45 L38.4 -16.35 37.55 -16.1 35.6 -15.55 33.85 -14.9 Q32.55 -14.35 31.45 -13.4 L30.15 -12.1 Q29.85 -11.75 30.7 -5.05 L29.35 -3.4 29.3 -3.35 27.65 -13.75 21.95 -47.7 Q12.2 -45.5 1.95 -47.35 -2.1 -28.6 -3.95 -10.1 L-4.05 -9.45 -6.55 -10.1 -6.65 -10.15 Q-5.7 -27.85 -0.3 -49.3 M-6.8 -6.55 L-4.3 -6.7 -5.2 6.3 -9.35 5.65 -13.6 6.45 Q-16.15 7.1 -18.6 8.1 L-17.35 -4.15 -25.25 -5.35 -28.4 -6.3 -29.2 -2.0 Q-29.5 -2.45 -30.0 -2.7 -30.75 -3.2 -31.6 -3.5 L-32.05 -3.65 -33.65 -3.9 -35.2 -4.0 -36.35 -4.0 -34.85 -9.45 Q-36.15 -10.25 -37.3 -11.2 L-36.6 -12.9 Q-24.2 -5.4 -7.75 -5.9 L-6.85 -5.9 -6.8 -6.55 M29.65 -1.0 L30.05 -1.2 Q30.9 -1.6 31.55 -2.6 32.05 -3.45 32.05 -4.55 L31.9 -7.9 31.55 -10.5 33.2 -12.3 Q34.35 -13.5 35.75 -13.9 L35.95 -13.9 37.95 -14.15 40.0 -14.4 40.9 -14.35 Q42.65 -6.95 43.65 -0.45 L41.5 -0.35 38.65 0.4 Q37.55 0.7 36.55 1.1 35.15 1.65 33.95 2.6 L32.55 3.9 Q32.25 4.25 33.15 10.95 L31.7 12.6 31.6 12.75 29.65 -1.0 M43.95 1.65 Q44.65 7.2 44.75 11.95 L44.75 12.0 Q38.7 12.0 35.55 13.4 33.45 14.3 32.6 15.85 32.25 16.45 32.15 17.2 L32.1 17.2 32.0 16.25 31.85 15.1 32.45 14.8 32.8 14.65 34.1 13.4 Q34.65 12.55 34.65 11.45 L34.6 10.2 34.45 8.1 34.1 5.5 35.85 3.7 36.25 3.35 38.45 2.15 38.65 2.1 43.25 1.6 43.95 1.65 M32.35 19.6 L32.6 21.05 32.45 21.1 32.8 21.9 32.95 22.85 33.05 22.85 Q33.25 24.15 32.3 25.1 32.65 24.15 32.3 19.65 L32.3 19.6 32.3 19.45 32.3 19.6 32.35 19.6 M-5.85 18.9 Q-17.15 20.35 -19.95 21.75 L-18.85 10.8 -14.3 10.25 -5.35 9.3 -5.65 18.85 -5.95 18.9 -5.85 18.9 M-31.6 10.5 Q-32.45 8.7 -34.85 8.5 -37.75 8.2 -39.45 8.5 L-36.9 -1.9 -36.15 -1.7 -34.8 -1.25 -33.75 -0.85 -33.25 -0.55 Q-32.0 0.3 -31.95 2.0 L-32.2 4.65 -32.4 5.25 Q-33.05 7.4 -32.1 9.35 L-31.55 10.2 -31.6 10.5" fill="#8a1c1c" fill-rule="evenodd" stroke="none"/>
    <path d="M-2.3 -120.2 L-2.4 -119.3 -2.3 -117.95 -2.65 -117.55 Q-3.25 -116.9 -4.15 -116.9 -5.0 -116.9 -5.65 -117.5 L-5.7 -117.55 Q-6.2 -118.05 -6.25 -118.7 L-6.3 -119.05 -6.25 -119.4 Q-6.2 -120.05 -5.7 -120.55 L-5.65 -120.6 Q-5.0 -121.2 -4.15 -121.2 -3.25 -121.2 -2.65 -120.6 L-2.3 -120.2 M2.0 -6.25 L7.2 -45.65 Q7.8 -25.45 8.6 -10.8 L9.15 -2.35 Q8.4 -2.7 7.7 -3.1 4.8 -4.65 2.0 -6.25 M0.05 8.6 L1.9 -5.3 3.9 -4.0 7.85 -1.15 9.3 -0.4 Q9.9 8.05 10.6 13.95 L8.25 12.9 Q4.35 11.0 0.65 8.9 L0.05 8.6 M14.35 27.35 Q10.05 26.7 6.8 24.95 L6.1 24.25 Q2.7 20.75 -1.4 19.55 L-0.1 9.9 Q2.1 10.55 4.15 12.0 L8.45 14.85 10.9 16.0 Q12.4 27.0 14.35 27.35 M-27.05 22.4 L-31.05 21.7 Q-32.15 21.15 -32.4 20.25 -32.6 19.25 -32.1 17.9 L-31.95 17.95 -31.8 17.25 -31.45 16.5 -31.65 16.4 -31.15 13.6 -31.15 13.45 Q-31.05 11.65 -31.6 10.5 L-31.55 10.2 -30.65 10.9 -30.1 11.25 Q-28.9 11.9 -27.55 12.05 L-26.35 11.9 -27.05 22.4 M-15.9 -124.6 Q-15.3 -125.15 -14.45 -125.2 L-14.4 -125.2 -13.3 -124.9 -12.9 -124.6 Q-12.4 -124.1 -12.25 -123.4 -13.2 -123.25 -13.9 -122.55 -14.6 -121.85 -14.75 -120.9 -15.45 -121.05 -15.95 -121.55 -16.4 -122.0 -16.5 -122.6 L-16.55 -123.05 Q-16.55 -123.95 -15.95 -124.55 L-15.9 -124.6 M-8.4 -121.2 Q-7.5 -121.2 -6.9 -120.6 -7.3 -119.9 -7.3 -119.05 -7.3 -118.2 -6.9 -117.55 -7.5 -116.9 -8.4 -116.9 -9.3 -116.9 -9.95 -117.55 L-10.0 -117.6 -10.5 -118.5 -10.55 -119.05 Q-10.55 -119.95 -9.95 -120.55 L-9.9 -120.6 -9.55 -120.85 -8.6 -121.2 -8.4 -121.2 M-11.65 -118.15 Q-12.55 -118.15 -13.2 -118.8 L-13.7 -119.7 -13.75 -119.95 -13.8 -120.3 -13.65 -121.0 -13.2 -121.8 -13.15 -121.85 -12.35 -122.3 -11.65 -122.45 -11.35 -122.4 -11.3 -122.4 Q-10.65 -122.35 -10.15 -121.85 L-10.05 -121.75 -10.65 -121.3 Q-11.55 -120.35 -11.55 -119.05 L-11.4 -118.15 -11.65 -118.15 M-26.25 10.55 L-28.05 10.25 -28.35 10.2 Q-29.1 9.95 -29.6 9.35 -30.45 8.25 -30.5 6.85 L-30.4 4.75 -30.3 4.0 -30.2 3.5 -29.8 2.25 -29.3 0.85 -29.05 0.15 -28.9 -0.45 -28.85 -1.0 -29.0 -1.55 -29.05 -1.7 -29.2 -2.0 -28.4 -6.3 -25.25 -5.35 -26.25 10.55" fill="#c42626" fill-rule="evenodd" stroke="none"/>
    <path d="M1.9 -5.3 L2.0 -6.25 Q4.8 -4.65 7.7 -3.1 8.4 -2.7 9.15 -2.35 L9.3 -0.4 7.85 -1.15 3.9 -4.0 1.9 -5.3" fill="#444444" fill-rule="evenodd" stroke="none"/>
    <path d="M-4.05 -9.45 L-4.3 -6.7 -6.8 -6.55 -6.8 -6.85 -6.65 -10.15 -6.55 -10.1 -4.05 -9.45 M40.9 -14.35 L40.0 -14.4 37.95 -14.15 35.95 -13.9 35.75 -13.9 Q34.35 -13.5 33.2 -12.3 L31.55 -10.5 31.9 -7.9 32.05 -4.55 Q32.05 -3.45 31.55 -2.6 30.9 -1.6 30.05 -1.2 L29.65 -1.0 29.3 -3.35 29.35 -3.4 30.7 -5.05 Q29.85 -11.75 30.15 -12.1 L31.45 -13.4 Q32.55 -14.35 33.85 -14.9 L35.6 -15.55 37.55 -16.1 38.4 -16.35 40.4 -16.45 40.9 -14.35" fill="#202020" fill-rule="evenodd" stroke="none"/>
    <path d="M31.6 12.75 L31.7 12.6 33.15 10.95 Q32.25 4.25 32.55 3.9 L33.95 2.6 Q35.15 1.65 36.55 1.1 37.55 0.7 38.65 0.4 L41.5 -0.35 43.65 -0.45 43.95 1.65 43.25 1.6 38.65 2.1 38.45 2.15 36.25 3.35 35.85 3.7 34.1 5.5 34.45 8.1 34.6 10.2 34.65 11.45 Q34.65 12.55 34.1 13.4 L32.8 14.65 32.45 14.8 31.85 15.1 31.6 12.75 M-36.9 -1.9 L-36.35 -4.0 -35.2 -4.0 -33.65 -3.9 -32.05 -3.65 -31.6 -3.5 Q-30.75 -3.2 -30.0 -2.7 -29.5 -2.45 -29.2 -2.0 L-31.55 10.2 -32.1 9.35 Q-33.05 7.4 -32.4 5.25 L-32.2 4.65 -31.95 2.0 Q-32.0 0.3 -33.25 -0.55 L-33.75 -0.85 -34.8 -1.25 -36.15 -1.7 -36.9 -1.9 M-18.6 8.1 Q-16.15 7.1 -13.6 6.45 L-9.35 5.65 -5.2 6.3 -5.35 9.3 -14.3 10.25 -18.85 10.8 -18.6 8.1" fill="#c7b694" fill-rule="evenodd" stroke="none"/>
    <path d="M3.05 -127.15 L3.7 -128.2 Q4.5 -130.55 7.4 -131.15 L7.55 -131.2 Q8.95 -131.45 10.0 -130.5 L11.6 -128.95 14.05 -125.6 Q24.4 -110.55 27.0 -99.6 29.4 -83.7 28.15 -76.5 27.15 -71.0 25.2 -65.15 L24.35 -62.65 19.8 -62.15 19.75 -62.15 13.2 -61.65 7.2 -61.45 0.95 -61.4 -15.6 -61.9 -14.05 -60.15 -16.45 -60.3 Q-17.95 -61.7 -19.05 -61.15 L-19.3 -61.05 -20.45 -60.6 -21.65 -60.7 -20.65 -62.4 -22.25 -62.65 -24.35 -63.15 -24.7 -63.35 -24.5 -63.8 -24.1 -66.5 -24.15 -66.95 -32.15 -74.0 Q-40.05 -80.9 -35.55 -90.05 L-28.75 -104.1 -27.85 -103.0 Q-25.45 -101.3 -17.15 -98.6 -11.4 -96.75 -2.0 -96.9 L-1.95 -96.9 -1.95 -100.7 -1.9 -100.75 -1.8 -101.15 -1.75 -101.1 -1.75 -101.15 0.1 -106.45 Q1.4 -110.3 1.9 -113.95 L2.5 -118.75 2.7 -120.95 Q2.75 -122.0 3.15 -123.45 3.55 -124.9 5.0 -128.0 6.45 -131.1 3.05 -127.05 L3.05 -127.15 M21.4 -103.65 L21.35 -103.65 21.35 -103.6 21.4 -103.6 21.4 -103.65 M7.95 -83.15 Q10.0 -83.5 9.95 -83.9 L9.95 -84.3 Q9.65 -89.35 5.7 -90.7 3.25 -91.6 -6.5 -92.05 -16.3 -92.55 -23.1 -95.05 -29.95 -97.55 -31.35 -89.75 -32.8 -81.95 -31.4 -79.8 -30.6 -78.6 -27.3 -76.25 -25.3 -74.85 -20.95 -73.35 L-18.25 -72.5 -16.15 -72.0 -14.4 -71.75 Q-12.15 -71.7 -10.15 -68.4 -8.2 -65.15 -0.55 -64.95 7.05 -64.8 8.5 -66.85 9.9 -68.9 4.45 -69.5 0.35 -69.9 2.55 -71.15 3.85 -71.95 7.95 -73.55 10.1 -74.6 9.75 -76.7 9.4 -78.8 2.0 -80.05 -9.9 -82.4 -1.9 -82.1 L7.95 -83.15 M-8.7 -51.5 L-8.05 -49.5 -8.0 -49.3 -3.05 -49.3 -3.35 -47.95 Q-7.75 -27.55 -8.65 -10.3 L-8.75 -7.85 -10.55 -7.8 Q-26.2 -7.25 -36.2 -13.9 L-36.75 -14.25 -38.55 -15.6 -40.55 -17.4 Q-39.0 -28.0 -33.2 -40.45 L-30.25 -46.9 -28.65 -51.6 -27.75 -51.25 -27.5 -52.15 -27.75 -51.25 -26.15 -51.25 -25.8 -52.1 -23.65 -52.05 Q-23.95 -50.0 -23.65 -47.75 L-23.45 -46.25 -27.8 -47.65 Q-38.05 -30.25 -38.55 -17.65 -27.85 -10.85 -13.3 -10.65 -12.45 -27.4 -7.05 -44.15 L-12.75 -44.5 -12.75 -45.05 Q-12.65 -46.95 -12.85 -48.75 -12.45 -49.5 -12.4 -50.95 L-12.4 -51.65 -8.7 -51.5 M-5.2 6.3 L-3.2 7.0 Q-1.55 7.7 0.05 8.6 L-0.1 9.9 -3.25 9.25 -5.35 9.3 -5.2 6.3 M-38.65 -1.35 L-38.35 -3.9 -37.9 -4.0 -36.35 -4.0 -36.9 -1.9 -37.3 -2.0 -37.85 -1.7 -38.65 -1.35 M10.6 13.95 L14.5 15.05 21.2 15.25 Q25.75 15.0 29.9 13.6 30.85 13.35 31.6 12.75 L31.85 15.1 Q29.6 16.2 27.15 16.8 L25.55 17.05 22.35 17.5 19.05 17.65 17.15 17.65 15.3 17.4 13.5 17.05 11.75 16.35 10.9 16.0 10.6 13.95 M-22.6 -59.05 L-21.8 -58.9 -22.5 -57.45 -23.35 -57.6 -22.6 -59.05 M-23.85 -56.65 L-22.8 -56.45 -23.15 -55.25 -24.45 -55.4 -23.85 -56.65 M-24.85 -54.5 L-23.35 -54.3 -23.45 -53.5 -25.35 -53.3 -24.85 -54.5 M-22.4 -46.0 L-22.6 -47.75 Q-22.15 -47.05 -21.4 -46.95 L-21.35 -46.95 Q-20.05 -46.7 -18.65 -48.75 L-18.65 -48.8 -17.85 -50.5 -16.75 -49.15 Q-15.05 -47.35 -13.8 -47.9 -13.65 -46.55 -13.75 -45.1 L-13.75 -44.6 -22.4 -46.0 M-20.9 -57.2 L-20.45 -57.95 -20.4 -57.1 -20.9 -57.2 M-22.2 -54.1 L-20.05 -53.85 -19.55 -53.9 -19.5 -53.75 -20.05 -53.85 -22.35 -53.6 -22.2 -54.1 M-22.5 -52.0 L-18.65 -51.85 -18.5 -51.55 Q-18.95 -50.25 -19.5 -49.3 -20.45 -47.95 -21.2 -47.95 -22.0 -48.15 -22.3 -49.8 L-22.5 -52.0 M-21.4 -56.25 L-20.2 -56.05 -19.9 -54.85 -21.85 -55.1 -21.4 -56.25 M-10.75 -55.6 L-13.6 -56.05 -14.3 -57.45 -11.65 -56.95 -10.75 -55.6 M-12.5 -58.1 L-15.0 -58.6 -15.5 -59.25 -13.25 -59.1 -12.5 -58.1 M-17.25 -59.4 L-16.9 -59.35 -16.8 -59.25 -16.45 -58.85 -17.1 -59.0 -17.25 -59.4 M-18.9 -59.5 L-18.4 -59.45 -18.55 -59.25 -18.9 -59.35 -18.9 -59.5 M-17.9 -58.05 L-17.75 -56.7 -19.35 -56.95 -19.45 -58.2 -19.45 -58.4 -18.05 -58.15 -17.9 -58.05 M-16.5 -57.85 L-15.6 -57.7 -14.8 -56.25 -15.5 -56.35 -16.5 -57.85 M-16.05 -55.35 L-15.55 -54.3 -15.7 -54.3 -15.75 -54.3 -16.85 -54.45 -16.75 -55.5 -16.1 -55.4 -16.1 -55.35 -16.05 -55.35 M-16.1 -54.2 L-16.3 -53.85 -16.2 -53.5 Q-16.1 -53.35 -15.85 -53.3 L-15.8 -53.3 -15.05 -53.2 -14.85 -52.7 -17.1 -52.8 -17.05 -53.15 -15.85 -53.3 -17.0 -53.45 -16.9 -54.2 -15.85 -54.3 -16.1 -54.2 M-18.8 -54.7 L-19.15 -55.9 -17.75 -55.65 -17.85 -54.55 -18.8 -54.7 M-19.2 -52.9 L-19.15 -52.9 -19.5 -52.9 -19.2 -52.9 M-18.4 -53.7 L-18.4 -53.75 -18.45 -53.75 -18.55 -54.0 -17.9 -54.05 -18.0 -53.65 -18.0 -53.55 -18.35 -53.6 -18.4 -53.7 M-17.4 -51.7 L-17.4 -51.8 -14.5 -51.7 -13.9 -49.0 -14.15 -48.85 -14.1 -48.85 Q-14.9 -48.65 -16.05 -49.85 L-16.0 -49.85 -17.4 -51.7 M-12.6 -52.85 L-10.1 -52.55 -12.55 -52.65 -12.6 -52.85 M-13.2 -54.95 L-11.8 -54.75 -13.05 -54.6 -13.2 -54.95 M-14.9 -55.2 L-14.3 -55.15 -14.05 -54.5 -14.5 -54.45 -14.9 -55.2 M-13.55 -52.65 L-13.8 -52.65 -13.9 -53.05 -13.65 -53.0 -13.55 -52.65 M-13.45 -51.65 L-13.4 -51.65 -13.4 -51.4 -13.45 -51.65 M-9.8 -53.95 L-9.6 -53.5 -11.55 -53.75 -9.8 -53.95 M-18.6 8.1 L-18.85 10.8 -23.95 11.6 -26.35 11.9 -26.25 10.55 -25.75 10.55 Q-23.05 10.05 -20.45 8.85 L-18.6 8.1" fill="#d9ceb7" fill-rule="evenodd" stroke="none"/>
    <path d="M7.95 -83.15 L-1.9 -82.1 Q-9.9 -82.4 2.0 -80.05 9.4 -78.8 9.75 -76.7 10.1 -74.6 7.95 -73.55 3.85 -71.95 2.55 -71.15 0.35 -69.9 4.45 -69.5 9.9 -68.9 8.5 -66.85 7.05 -64.8 -0.55 -64.95 -8.2 -65.15 -10.15 -68.4 -12.15 -71.7 -14.4 -71.75 L-16.15 -72.0 -18.25 -72.5 -20.95 -73.35 Q-25.3 -74.85 -27.3 -76.25 -30.6 -78.6 -31.4 -79.8 -32.8 -81.95 -31.35 -89.75 -29.95 -97.55 -23.1 -95.05 -16.3 -92.55 -6.5 -92.05 3.25 -91.6 5.7 -90.7 9.65 -89.35 9.95 -84.3 L9.95 -83.9 Q10.0 -83.5 7.95 -83.15 M0.05 8.6 L0.65 8.9 Q4.35 11.0 8.25 12.9 L10.6 13.95 10.9 16.0 8.45 14.85 4.15 12.0 Q2.1 10.55 -0.1 9.9 L0.05 8.6 M-23.45 -46.25 Q-22.9 -41.2 -22.75 -36.4 -22.6 -30.65 -27.65 -27.7 L-28.05 -27.45 -27.55 -26.6 -27.15 -26.85 Q-21.6 -30.05 -21.75 -36.45 -21.85 -41.15 -22.4 -46.0 L-13.75 -44.6 Q-14.05 -39.4 -15.6 -34.35 -17.3 -29.05 -17.65 -23.4 L-17.65 -22.9 -16.65 -22.85 -16.65 -23.35 Q-16.3 -28.85 -14.65 -34.05 -13.1 -39.2 -12.75 -44.5 L-7.05 -44.15 Q-12.45 -27.4 -13.3 -10.65 -27.85 -10.85 -38.55 -17.65 -38.05 -30.25 -27.8 -47.65 L-23.45 -46.25 M-31.55 10.2 L-29.2 -2.0 -29.05 -1.7 -29.0 -1.55 -28.85 -1.0 -28.9 -0.45 -29.05 0.15 -29.3 0.85 -29.8 2.25 -30.2 3.5 -30.3 4.0 -30.4 4.75 -30.5 6.85 Q-30.45 8.25 -29.6 9.35 -29.1 9.95 -28.35 10.2 L-28.05 10.25 -26.25 10.55 -26.35 11.9 -27.55 12.05 Q-28.9 11.9 -30.1 11.25 L-30.65 10.9 -31.55 10.2" fill="#f2eee6" fill-rule="evenodd" stroke="none"/>
    <path d="M14.05 -125.6 L11.6 -128.95 10.0 -130.5 Q8.95 -131.45 7.55 -131.2 L7.4 -131.15 Q4.5 -130.55 3.7 -128.2 L3.05 -127.15 3.05 -127.1 3.0 -127.1 2.95 -127.05 3.0 -127.05 2.95 -127.05 2.75 -127.05 2.05 -127.05 2.15 -127.15 2.75 -128.5 Q3.55 -131.05 6.4 -131.95 L7.35 -132.2 9.35 -132.0 Q10.45 -131.6 11.65 -130.4 L13.7 -127.75 14.35 -126.75 14.25 -126.85 14.15 -127.0 14.05 -127.1 14.05 -127.0 14.05 -125.6 M3.05 -127.15 L3.0 -127.15 3.05 -127.15 M-1.75 -101.1 L-1.8 -101.15 -1.75 -101.1 M-21.65 -60.7 L-20.45 -60.6 -19.3 -61.05 -19.05 -61.15 Q-17.95 -61.7 -16.45 -60.3 L-14.05 -60.15 -10.0 -59.85 -10.05 -59.6 -10.1 -58.85 -11.1 -58.95 -13.25 -59.1 -15.5 -59.25 -15.0 -58.6 -12.5 -58.1 -9.95 -57.65 -8.5 -57.35 -8.6 -56.6 -9.15 -56.6 -10.15 -56.65 -11.65 -56.95 -14.3 -57.45 -13.6 -56.05 -10.75 -55.6 -8.15 -55.15 -6.55 -54.9 -6.55 -54.3 -7.6 -54.15 -9.8 -53.95 -11.55 -53.75 -9.6 -53.5 -7.1 -53.15 -4.5 -52.8 -4.6 -51.85 -5.05 -51.9 -5.05 -51.45 -5.05 -51.35 -8.7 -51.5 -12.4 -51.65 -12.4 -50.95 Q-12.45 -49.5 -12.85 -48.75 -12.65 -46.95 -12.75 -45.05 L-12.75 -44.5 Q-13.1 -39.2 -14.65 -34.05 -16.3 -28.85 -16.65 -23.35 L-16.65 -22.85 -17.65 -22.9 -17.65 -23.4 Q-17.3 -29.05 -15.6 -34.35 -14.05 -39.4 -13.75 -44.6 L-13.75 -45.1 Q-13.65 -46.55 -13.8 -47.9 -15.05 -47.35 -16.75 -49.15 L-17.85 -50.5 -18.65 -48.8 -18.65 -48.75 Q-20.05 -46.7 -21.35 -46.95 L-21.4 -46.95 Q-22.15 -47.05 -22.6 -47.75 L-22.4 -46.0 Q-21.85 -41.15 -21.75 -36.45 -21.6 -30.05 -27.15 -26.85 L-27.55 -26.6 -28.05 -27.45 -27.65 -27.7 Q-22.6 -30.65 -22.75 -36.4 -22.9 -41.2 -23.45 -46.25 L-23.65 -47.75 Q-23.95 -50.0 -23.65 -52.05 L-25.8 -52.1 -27.5 -52.15 -28.0 -52.2 -28.05 -53.0 -27.25 -53.1 -27.2 -53.1 -25.35 -53.3 -23.45 -53.5 -23.35 -54.3 -24.85 -54.5 -26.6 -54.7 -26.45 -55.7 -26.2 -55.65 -24.45 -55.4 -23.15 -55.25 -22.8 -56.45 -23.85 -56.65 -25.65 -56.95 -26.1 -57.0 -26.8 -57.1 -26.75 -57.9 -25.85 -57.9 -25.25 -57.9 -25.2 -57.9 -23.35 -57.6 -22.5 -57.45 -21.8 -58.9 -22.6 -59.05 -24.45 -59.4 -24.85 -59.5 -24.7 -60.45 -24.5 -60.45 -24.5 -60.9 -23.6 -60.85 -21.65 -60.7 M2.0 -127.05 L2.95 -127.05 2.5 -125.9 1.45 -124.6 -0.05 -122.85 Q-1.45 -120.9 -1.5 -119.35 -1.55 -118.35 -1.25 -117.45 -0.95 -116.5 -0.3 -115.7 0.5 -114.7 0.4 -113.75 0.3 -112.8 -0.7 -111.9 -2.3 -110.7 -3.2 -108.45 L-3.25 -108.45 Q-4.05 -106.6 -3.25 -105.35 L-3.15 -105.25 Q-2.6 -104.5 -2.55 -103.75 L-2.55 -103.5 -2.6 -103.05 -3.55 -101.3 -3.4 -101.2 Q-4.55 -101.9 -5.7 -101.9 -7.65 -101.85 -9.7 -100.1 -10.75 -99.2 -11.7 -98.75 -13.0 -98.2 -14.05 -98.4 -15.2 -98.6 -16.05 -99.7 L-17.1 -101.6 Q-18.05 -103.95 -19.4 -104.5 -20.7 -104.95 -22.4 -103.7 -23.45 -103.0 -24.25 -102.65 L-24.6 -102.55 Q-25.3 -102.35 -25.75 -102.55 -26.55 -102.7 -26.8 -103.6 L-26.9 -105.2 -26.65 -107.25 -26.9 -107.2 Q-28.4 -106.8 -29.6 -105.85 L-29.6 -105.8 -29.4 -106.4 Q-28.85 -107.85 -26.25 -108.2 L-26.0 -108.2 -25.7 -108.15 -25.5 -107.9 -25.5 -107.6 -25.9 -105.2 -25.9 -105.1 Q-26.0 -103.65 -25.45 -103.4 -24.7 -103.25 -23.0 -104.45 -20.75 -106.05 -19.0 -105.3 -17.35 -104.7 -16.15 -101.9 -15.25 -99.65 -13.85 -99.3 -12.45 -99.1 -10.4 -100.75 -7.95 -102.85 -5.7 -102.8 L-4.05 -102.5 -4.0 -102.55 -3.5 -103.3 -3.45 -103.5 Q-3.45 -103.9 -3.75 -104.35 L-3.85 -104.55 Q-4.3 -105.1 -4.0 -108.8 L-4.0 -108.85 -4.05 -108.85 Q-3.0 -111.35 -1.2 -112.7 -0.6 -113.2 -0.5 -113.75 -0.45 -114.35 -0.95 -115.0 L-2.0 -116.75 -2.3 -117.95 -2.4 -119.3 -2.3 -120.2 -1.95 -121.3 Q-1.2 -123.15 0.9 -125.3 L1.75 -126.45 1.8 -126.5 2.0 -127.05 M-1.95 -100.75 L-1.9 -101.2 -1.85 -101.15 -1.8 -101.15 -1.95 -100.75 M-20.9 -57.2 L-20.4 -57.1 -20.45 -57.95 -20.9 -57.2 M-21.4 -56.25 L-21.85 -55.1 -19.9 -54.85 -20.2 -56.05 -21.4 -56.25 M-22.5 -52.0 L-22.3 -49.8 Q-22.0 -48.15 -21.2 -47.95 -20.45 -47.95 -19.5 -49.3 -18.95 -50.25 -18.5 -51.55 L-18.65 -51.85 -22.5 -52.0 M-22.2 -54.1 L-22.35 -53.6 -20.05 -53.85 -19.5 -53.75 -19.55 -53.9 -20.05 -53.85 -22.2 -54.1 M-13.45 -51.65 L-13.4 -51.4 -13.4 -51.65 -13.45 -51.65 M-13.55 -52.65 L-13.65 -53.0 -13.9 -53.05 -13.8 -52.65 -13.55 -52.65 M-14.9 -55.2 L-14.5 -54.45 -14.05 -54.5 -14.3 -55.15 -14.9 -55.2 M-13.2 -54.95 L-13.05 -54.6 -11.8 -54.75 -13.2 -54.95 M-12.6 -52.85 L-12.55 -52.65 -10.1 -52.55 -12.6 -52.85 M-17.4 -51.7 L-16.0 -49.85 -16.05 -49.85 Q-14.9 -48.65 -14.1 -48.85 L-14.15 -48.85 -13.9 -49.0 -14.5 -51.7 -17.4 -51.8 -17.4 -51.7 M-18.4 -53.7 L-18.35 -53.6 -18.0 -53.55 -18.0 -53.65 -17.9 -54.05 -18.55 -54.0 -18.45 -53.75 -18.4 -53.75 -18.4 -53.7 M-19.2 -52.9 L-19.5 -52.9 -19.15 -52.9 -19.2 -52.9 M-18.8 -54.7 L-17.85 -54.55 -17.75 -55.65 -19.15 -55.9 -18.8 -54.7 M-16.1 -54.2 L-15.85 -54.3 -16.9 -54.2 -17.0 -53.45 -15.85 -53.3 -17.05 -53.15 -17.1 -52.8 -14.85 -52.7 -15.05 -53.2 -15.8 -53.3 -15.85 -53.3 Q-16.1 -53.35 -16.2 -53.5 L-16.3 -53.85 -16.1 -54.2 M-16.05 -55.35 L-16.1 -55.35 -16.1 -55.4 -16.75 -55.5 -16.85 -54.45 -15.75 -54.3 -15.7 -54.3 -15.55 -54.3 -16.05 -55.35 M-16.5 -57.85 L-15.5 -56.35 -14.8 -56.25 -15.6 -57.7 -16.5 -57.85 M-17.9 -58.05 L-18.05 -58.15 -19.45 -58.4 -19.45 -58.2 -19.35 -56.95 -17.75 -56.7 -17.9 -58.05 M-18.9 -59.5 L-18.9 -59.35 -18.55 -59.25 -18.4 -59.45 -18.9 -59.5 M-17.25 -59.4 L-17.1 -59.0 -16.45 -58.85 -16.8 -59.25 -16.9 -59.35 -17.25 -59.4" fill="#657728" fill-rule="evenodd" stroke="none"/>
    <path d="M9.35 -132.0 L7.35 -132.2 6.4 -131.95 4.0 -133.4 Q-1.15 -135.95 -5.35 -132.15 L-11.2 -127.05 -12.65 -125.65 -13.7 -126.1 -8.45 -131.85 -6.75 -133.45 Q-1.45 -138.2 5.0 -135.0 7.1 -133.95 9.35 -132.0 M-25.9 -105.2 L-25.5 -107.6 -25.5 -107.9 -25.7 -108.15 -26.0 -108.2 -26.2 -108.35 Q-21.5 -115.9 -17.2 -121.6 L-16.65 -120.85 -16.55 -120.75 Q-20.6 -115.0 -25.85 -105.15 L-25.9 -105.2" fill="#654425" fill-rule="evenodd" stroke="none"/>
    <path d="M2.95 -127.05 L3.0 -127.05 2.95 -127.05 3.0 -127.1 3.05 -127.1 3.05 -127.15 3.05 -127.05 Q6.45 -131.1 5.0 -128.0 3.55 -124.9 3.15 -123.45 2.75 -122.0 2.7 -120.95 L2.5 -118.75 1.9 -113.95 Q1.4 -110.3 0.1 -106.45 L-1.75 -101.15 -1.75 -101.1 -1.8 -101.15 -1.9 -100.75 -1.95 -100.7 -1.95 -96.9 -2.0 -96.9 Q-11.4 -96.75 -17.15 -98.6 -25.45 -101.3 -27.85 -103.0 L-28.75 -104.1 -29.6 -105.85 Q-28.4 -106.8 -26.9 -107.2 L-26.65 -107.25 -26.9 -105.2 -26.8 -103.6 Q-26.55 -102.7 -25.75 -102.55 -25.3 -102.35 -24.6 -102.55 L-24.25 -102.65 Q-23.45 -103.0 -22.4 -103.7 -20.7 -104.95 -19.4 -104.5 -18.05 -103.95 -17.1 -101.6 L-16.05 -99.7 Q-15.2 -98.6 -14.05 -98.4 -13.0 -98.2 -11.7 -98.75 -10.75 -99.2 -9.7 -100.1 -7.65 -101.85 -5.7 -101.9 -4.55 -101.9 -3.4 -101.2 L-3.55 -101.3 -2.6 -103.05 -2.55 -103.5 -2.55 -103.75 Q-2.6 -104.5 -3.15 -105.25 L-3.25 -105.35 Q-4.05 -106.6 -3.25 -108.45 L-3.2 -108.45 Q-2.3 -110.7 -0.7 -111.9 0.3 -112.8 0.4 -113.75 0.5 -114.7 -0.3 -115.7 -0.95 -116.5 -1.25 -117.45 -1.55 -118.35 -1.5 -119.35 -1.45 -120.9 -0.05 -122.85 L1.45 -124.6 2.5 -125.9 2.95 -127.05 M-1.95 -100.75 L-1.8 -101.15 -1.85 -101.15 -1.9 -101.2 -1.95 -100.75" fill="#7d9432" fill-rule="evenodd" stroke="none"/>
    <path d="M2.05 -127.05 L2.75 -127.05 2.95 -127.05 2.0 -127.05 2.05 -127.05 M3.05 -127.15 L3.0 -127.15 3.05 -127.15 M1.8 -126.5 L1.75 -126.45 1.55 -126.6 1.8 -126.5 M21.35 -103.6 L21.4 -103.65 21.4 -103.6 21.35 -103.6" fill="#bf824a" fill-rule="evenodd" stroke="none"/>
    <path d="M6.4 -131.95 Q3.55 -131.05 2.75 -128.5 L2.15 -127.15 2.05 -127.05 2.0 -127.05 1.8 -126.5 1.55 -126.6 Q-3.6 -129.85 -8.75 -125.05 L-10.6 -123.25 -11.25 -123.4 Q-11.4 -124.5 -12.2 -125.3 L-12.65 -125.65 -11.2 -127.05 -5.35 -132.15 Q-1.15 -135.95 4.0 -133.4 L6.4 -131.95 M-3.75 -104.35 Q-3.45 -103.9 -3.45 -103.5 L-3.5 -103.3 -4.0 -102.55 -4.05 -102.5 -5.7 -102.8 Q-7.95 -102.85 -10.4 -100.75 -12.45 -99.1 -13.85 -99.3 -15.25 -99.65 -16.15 -101.9 -17.35 -104.7 -19.0 -105.3 -20.75 -106.05 -23.0 -104.45 -24.7 -103.25 -25.45 -103.4 -26.0 -103.65 -25.9 -105.1 L-25.85 -105.15 Q-20.6 -115.0 -16.55 -120.75 -15.8 -120.05 -14.75 -119.9 L-14.45 -118.8 Q-17.25 -115.35 -20.3 -110.75 L-23.35 -105.65 -22.2 -106.35 Q-18.25 -109.15 -16.15 -104.0 -14.1 -98.9 -9.55 -102.7 -6.6 -105.25 -3.9 -104.4 L-3.75 -104.35" fill="#e79d5a" fill-rule="evenodd" stroke="none"/>
    <path d="M1.75 -126.45 L0.9 -125.3 Q-1.2 -123.15 -1.95 -121.3 -2.85 -122.2 -4.15 -122.2 -5.4 -122.2 -6.3 -121.4 -7.15 -122.2 -8.4 -122.2 L-9.1 -122.1 -9.45 -122.55 Q-9.95 -123.05 -10.6 -123.25 L-8.75 -125.05 Q-3.6 -129.85 1.55 -126.6 L1.75 -126.45 M-2.0 -116.75 L-0.95 -115.0 Q-0.45 -114.35 -0.5 -113.75 -0.6 -113.2 -1.2 -112.7 -3.0 -111.35 -4.05 -108.85 L-4.0 -108.8 Q-4.3 -105.1 -3.85 -104.55 L-3.9 -104.4 Q-6.6 -105.25 -9.55 -102.7 -14.1 -98.9 -16.15 -104.0 -18.25 -109.15 -22.2 -106.35 L-23.35 -105.65 -20.3 -110.75 Q-17.25 -115.35 -14.45 -118.8 L-13.9 -118.1 Q-12.95 -117.15 -11.65 -117.15 L-10.95 -117.2 -10.65 -116.85 Q-9.7 -115.9 -8.4 -115.9 -7.15 -115.9 -6.25 -116.75 -5.4 -115.9 -4.15 -115.9 -2.9 -115.9 -2.0 -116.75" fill="#f0a866" fill-rule="evenodd" stroke="none"/>
    <path d="M-4.05 -108.85 L-4.0 -108.85 -4.0 -108.8 -4.05 -108.85 M-3.85 -104.55 L-3.75 -104.35 -3.9 -104.4 -3.85 -104.55 M1.75 -126.45 L1.55 -126.6 1.75 -126.45" fill="#ce9255" fill-rule="evenodd" stroke="none"/>
    <path d="M14.05 -127.0 L14.05 -127.1 14.15 -127.0 14.05 -127.0 M14.35 -126.75 L13.7 -127.75 13.55 -128.05 14.35 -126.75" fill="#3a4417" fill-rule="evenodd" stroke="none"/>
    <path d="M14.25 -126.85 L14.35 -126.75 13.55 -128.05 13.7 -127.75 11.65 -130.4 Q12.6 -130.25 13.3 -129.55 14.25 -128.6 14.25 -127.3 L14.35 -126.75 Q14.4 -126.55 14.2 -126.9 L14.25 -126.85" fill="#999999" fill-rule="evenodd" stroke="none"/>
    <path d="M14.05 -125.6 L14.05 -127.0 14.15 -127.0 14.25 -126.85 14.2 -126.9 Q14.4 -126.55 14.35 -126.75 26.85 -109.4 29.25 -99.45 L29.35 -98.9 30.5 -88.85 Q31.45 -80.35 30.1 -75.35 28.7 -70.4 28.1 -64.85 L28.0 -63.95 26.95 -63.3 Q26.45 -63.0 24.35 -62.65 L25.2 -65.15 Q27.15 -71.0 28.15 -76.5 29.4 -83.7 27.0 -99.6 24.4 -110.55 14.05 -125.6 M-28.75 -104.1 L-35.55 -90.05 Q-40.05 -80.9 -32.15 -74.0 L-24.15 -66.95 -24.1 -66.5 -24.5 -63.8 -24.7 -63.35 -26.15 -64.2 -26.15 -66.25 Q-42.95 -78.95 -36.3 -92.4 L-31.25 -102.7 -30.25 -104.4 -29.6 -105.8 -29.6 -105.85 -28.75 -104.1 M-38.8 -14.35 L-41.15 -16.1 -41.6 -16.4 -41.55 -16.95 Q-40.35 -32.0 -28.95 -51.85 L-28.65 -51.6 -30.25 -46.9 -33.2 -40.45 Q-39.0 -28.0 -40.55 -17.4 L-38.55 -15.6 -36.75 -14.25 -36.2 -13.9 Q-26.2 -7.25 -10.55 -7.8 L-8.75 -7.85 -8.65 -10.3 Q-7.75 -27.55 -3.35 -47.95 L-3.05 -49.3 -0.3 -49.3 Q-5.7 -27.85 -6.65 -10.15 L-6.8 -6.85 -6.8 -6.55 -6.85 -5.9 -7.75 -5.9 Q-24.2 -5.4 -36.6 -12.9 L-36.95 -13.15 -38.8 -14.35 M-28.25 -56.75 Q-27.95 -60.35 -26.25 -63.75 L-28.25 -56.75" fill="#40362d" fill-rule="evenodd" stroke="none"/>
    <path d="M-25.9 -105.1 L-25.9 -105.2 -25.85 -105.15 -25.9 -105.1 M-26.0 -108.2 L-26.25 -108.2 -26.2 -108.35 -26.0 -108.2" fill="#5c4730" fill-rule="evenodd" stroke="none"/>
    <path d="M-5.7 -120.55 L-5.65 -120.6 -5.7 -120.55 M-11.4 -118.15 L-11.65 -118.15 -11.4 -118.15" fill="#eeeae3" fill-rule="evenodd" stroke="none"/>
  </g>
</svg>
