<?xml version="1.0" encoding="UTF-8" standalone="no"?>
<svg xmlns:ffdec="https://www.free-decompiler.com/flash" xmlns:xlink="http://www.w3.org/1999/xlink" ffdec:objectType="shape" height="18.15px" width="29.75px" xmlns="http://www.w3.org/2000/svg">
  <g transform="matrix(1.0, 0.0, 0.0, 1.0, 15.65, 3.75)">
    <path d="M12.05 -1.15 Q14.05 1.45 14.1 5.1 L14.1 5.2 Q14.1 8.9 12.05 11.5 9.95 14.15 7.05 14.15 4.15 14.15 2.1 11.5 0.0 8.9 0.0 5.2 L0.0 5.1 Q0.05 1.45 2.1 -1.15 4.15 -3.75 7.05 -3.75 9.95 -3.75 12.05 -1.15 M3.2 1.5 Q2.65 2.3 2.4 3.25 2.0 4.45 2.0 5.85 2.0 8.4 3.2 10.25 4.45 12.05 6.15 12.05 7.8 12.05 9.0 10.25 10.25 8.4 10.25 5.85 10.25 3.3 9.0 1.5 7.8 -0.3 6.15 -0.3 5.0 -0.3 4.1 0.5 L3.2 1.5 M-3.6 -0.9 Q-1.6 1.7 -1.55 5.35 L-1.55 5.45 Q-1.55 9.15 -3.6 11.75 -5.7 14.35 -8.6 14.4 -11.5 14.35 -13.6 11.75 -15.65 9.15 -15.65 5.45 L-15.65 5.35 Q-15.65 1.7 -13.6 -0.9 -11.5 -3.55 -8.6 -3.55 -5.7 -3.55 -3.6 -0.9 M-10.1 2.95 L-10.85 4.45 -11.15 6.75 Q-11.15 8.95 -10.1 10.5 -9.05 12.05 -7.55 12.1 -6.1 12.05 -5.05 10.5 -4.0 8.95 -4.0 6.75 -4.0 4.5 -5.05 2.95 -6.1 1.35 -7.55 1.35 -8.55 1.35 -9.35 2.05 L-10.1 2.95" fill="#d2cf5a" fill-rule="evenodd" stroke="none"/>
    <path d="M3.2 1.5 L4.1 0.5 Q5.0 -0.3 6.15 -0.3 7.8 -0.3 9.0 1.5 10.25 3.3 10.25 5.85 10.25 8.4 9.0 10.25 7.8 12.05 6.15 12.05 4.45 12.05 3.2 10.25 2.0 8.4 2.0 5.85 2.0 4.45 2.4 3.25 2.65 2.3 3.2 1.5 M-10.1 2.95 L-9.35 2.05 Q-8.55 1.35 -7.55 1.35 -6.1 1.35 -5.05 2.95 -4.0 4.5 -4.0 6.75 -4.0 8.95 -5.05 10.5 -6.1 12.05 -7.55 12.1 -9.05 12.05 -10.1 10.5 -11.15 8.95 -11.15 6.75 L-10.85 4.45 -10.1 2.95 Z" fill="none" stroke="#000000" stroke-linecap="round" stroke-linejoin="round" stroke-width="3.5"/>
  </g>
</svg>
