<?xml version="1.0" encoding="UTF-8" standalone="no"?>
<svg xmlns:ffdec="https://www.free-decompiler.com/flash" xmlns:xlink="http://www.w3.org/1999/xlink" ffdec:objectType="shape" height="13.75px" width="27.55px" xmlns="http://www.w3.org/2000/svg">
  <g transform="matrix(1.0, 0.0, 0.0, 1.0, 14.55, 0.9)">
    <path d="M11.1 1.1 Q12.95 3.1 13.0 5.9 L13.0 5.95 Q13.0 8.8 11.1 10.8 9.15 12.85 6.5 12.85 3.8 12.85 1.9 10.8 0.0 8.8 0.0 5.95 L0.0 5.9 Q0.0 3.1 1.9 1.1 3.8 -0.9 6.5 -0.9 9.15 -0.9 11.1 1.1 M4.1 3.45 L3.2 4.1 Q2.65 4.6 2.4 5.2 2.0 5.9 2.0 6.8 2.0 8.4 3.2 9.55 4.45 10.7 6.15 10.7 7.8 10.7 9.0 9.55 10.25 8.4 10.25 6.8 10.25 5.2 9.0 4.1 7.8 2.95 6.15 2.95 5.0 2.95 4.1 3.45 M-3.45 1.2 Q-1.55 3.15 -1.5 5.85 L-1.5 5.9 Q-1.55 8.65 -3.45 10.6 -5.35 12.55 -8.0 12.55 -10.7 12.55 -12.65 10.6 -14.55 8.65 -14.55 5.9 L-14.55 5.85 Q-14.55 3.15 -12.65 1.2 -10.7 -0.75 -8.0 -0.75 -5.35 -0.75 -3.45 1.2 M-9.35 4.45 L-10.1 5.0 -10.85 5.95 -11.15 7.35 Q-11.15 8.75 -10.1 9.75 -9.05 10.7 -7.55 10.7 -6.1 10.7 -5.05 9.75 -4.0 8.75 -4.0 7.35 -4.0 5.95 -5.05 5.0 -6.1 4.0 -7.55 4.0 -8.55 4.0 -9.35 4.45" fill="#d2cf5a" fill-rule="evenodd" stroke="none"/>
    <path d="M4.1 3.45 Q5.0 2.95 6.15 2.95 7.8 2.95 9.0 4.1 10.25 5.2 10.25 6.8 10.25 8.4 9.0 9.55 7.8 10.7 6.15 10.7 4.45 10.7 3.2 9.55 2.0 8.4 2.0 6.8 2.0 5.9 2.4 5.2 2.65 4.6 3.2 4.1 L4.1 3.45 M-9.35 4.45 Q-8.55 4.0 -7.55 4.0 -6.1 4.0 -5.05 5.0 -4.0 5.95 -4.0 7.35 -4.0 8.75 -5.05 9.75 -6.1 10.7 -7.55 10.7 -9.05 10.7 -10.1 9.75 -11.15 8.75 -11.15 7.35 L-10.85 5.95 -10.1 5.0 -9.35 4.45 Z" fill="none" stroke="#000000" stroke-linecap="round" stroke-linejoin="round" stroke-width="3.5"/>
  </g>
</svg>
