<?xml version="1.0" encoding="UTF-8" standalone="no"?>
<svg xmlns:ffdec="https://www.free-decompiler.com/flash" xmlns:xlink="http://www.w3.org/1999/xlink" ffdec:objectType="shape" height="10.65px" width="27.55px" xmlns="http://www.w3.org/2000/svg">
  <g transform="matrix(1.0, 0.0, 0.0, 1.0, 14.55, 0.9)">
    <path d="M11.1 0.6 Q12.95 2.1 13.0 4.25 L13.0 4.3 Q13.0 6.45 11.1 8.0 9.15 9.55 6.5 9.55 3.8 9.55 1.9 8.0 0.0 6.45 0.0 4.3 L0.0 4.25 Q0.0 2.1 1.9 0.6 3.8 -0.9 6.5 -0.9 9.15 -0.9 11.1 0.6 M1.75 6.9 L11.25 6.2 1.75 6.9 M-1.5 4.5 Q-1.55 6.65 -3.45 8.2 -5.35 9.7 -8.0 9.75 -10.7 9.7 -12.65 8.2 -14.55 6.65 -14.55 4.5 L-14.55 4.45 Q-14.55 2.3 -12.65 0.8 -10.7 -0.7 -8.0 -0.7 -5.35 -0.7 -3.45 0.8 -1.55 2.3 -1.5 4.45 L-1.5 4.5 M-11.25 7.3 L-3.95 7.1 -11.25 7.3" fill="#d2cf5a" fill-rule="evenodd" stroke="none"/>
    <path d="M11.25 6.2 L1.75 6.9 M-3.95 7.1 L-11.25 7.3" fill="none" stroke="#333333" stroke-linecap="round" stroke-linejoin="round" stroke-width="2.0"/>
  </g>
</svg>
