<?xml version="1.0" encoding="UTF-8" standalone="no"?>
<svg xmlns:ffdec="https://www.free-decompiler.com/flash" xmlns:xlink="http://www.w3.org/1999/xlink" ffdec:objectType="shape" height="19.9px" width="30.7px" xmlns="http://www.w3.org/2000/svg">
  <g transform="matrix(1.0, 0.0, 0.0, 1.0, 16.1, 5.55)">
    <path d="M7.3 -5.55 Q10.3 -5.55 12.45 -2.65 14.55 0.2 14.6 4.2 L14.6 4.3 Q14.55 8.35 12.45 11.25 10.3 14.1 7.3 14.1 4.3 14.1 2.15 11.25 0.0 8.35 0.05 4.3 L0.05 4.2 Q0.05 0.2 2.15 -2.65 4.3 -5.55 7.3 -5.55 M4.0 -1.3 L3.0 -0.15 Q2.35 0.75 2.05 1.9 1.6 3.25 1.6 4.9 1.6 7.85 3.0 9.95 4.4 12.0 6.35 12.0 8.3 12.0 9.7 9.95 11.1 7.85 11.1 4.9 11.1 1.9 9.7 -0.15 8.3 -2.25 6.35 -2.25 5.05 -2.25 4.0 -1.3 M-13.95 -2.4 Q-11.8 -5.3 -8.8 -5.3 -5.8 -5.3 -3.65 -2.4 -1.55 0.45 -1.5 4.45 L-1.5 4.55 Q-1.55 8.6 -3.65 11.45 -5.8 14.35 -8.8 14.35 -11.8 14.35 -13.95 11.45 -16.1 8.6 -16.1 4.55 L-16.1 4.45 Q-16.05 0.45 -13.95 -2.4 M-10.65 0.5 L-11.5 1.5 -12.35 3.25 Q-12.7 4.45 -12.7 5.9 -12.7 8.45 -11.5 10.25 -10.3 12.05 -8.55 12.05 -6.9 12.05 -5.7 10.25 -4.45 8.45 -4.45 5.9 -4.45 3.3 -5.7 1.5 -6.9 -0.3 -8.55 -0.3 -9.7 -0.3 -10.65 0.5" fill="#d2cf5a" fill-rule="evenodd" stroke="none"/>
    <path d="M4.0 -1.3 Q5.05 -2.25 6.35 -2.25 8.3 -2.25 9.7 -0.15 11.1 1.9 11.1 4.9 11.1 7.85 9.7 9.95 8.3 12.0 6.35 12.0 4.4 12.0 3.0 9.95 1.6 7.85 1.6 4.9 1.6 3.25 2.05 1.9 2.35 0.75 3.0 -0.15 L4.0 -1.3 M-10.65 0.5 Q-9.7 -0.3 -8.55 -0.3 -6.9 -0.3 -5.7 1.5 -4.45 3.3 -4.45 5.9 -4.45 8.45 -5.7 10.25 -6.9 12.05 -8.55 12.05 -10.3 12.05 -11.5 10.25 -12.7 8.45 -12.7 5.9 -12.7 4.45 -12.35 3.25 L-11.5 1.5 -10.65 0.5 Z" fill="none" stroke="#000000" stroke-linecap="round" stroke-linejoin="round" stroke-width="3.5"/>
  </g>
</svg>
