<?xml version="1.0" encoding="UTF-8" standalone="no"?>
<svg xmlns:ffdec="https://www.free-decompiler.com/flash" xmlns:xlink="http://www.w3.org/1999/xlink" ffdec:objectType="shape" height="18.15px" width="29.0px" xmlns="http://www.w3.org/2000/svg">
  <g transform="matrix(1.0, 0.0, 0.0, 1.0, 15.65, 3.75)">
    <path d="M10.25 -1.15 Q11.05 1.45 12.4 3.6 13.65 5.7 13.25 7.7 12.8 9.65 11.4 11.9 9.95 14.15 7.05 14.15 4.15 14.15 2.1 11.5 0.0 8.9 0.0 5.2 L0.0 5.1 Q0.05 1.45 2.1 -1.15 4.15 -3.75 6.8 -3.75 9.45 -3.75 10.25 -1.15 M8.0 3.75 Q6.1 1.6 3.7 0.45 L3.5 0.4 3.5 0.95 Q1.7 3.75 2.1 7.15 2.35 9.35 3.95 11.05 5.15 12.35 6.95 11.95 8.3 11.6 9.1 10.5 10.4 8.65 9.65 6.5 L8.75 4.7 8.0 3.75 M-7.45 -2.95 Q-5.7 -3.55 -3.6 -0.9 -1.6 1.7 -1.55 5.35 L-1.55 5.45 Q-1.55 9.15 -3.6 11.75 -5.7 14.35 -8.6 14.4 -11.5 14.35 -13.6 11.75 -15.65 9.15 -15.65 5.45 L-15.0 3.85 Q-14.35 2.3 -11.8 -0.05 -9.25 -2.4 -7.45 -2.95 M-4.55 0.95 L-4.95 0.9 -10.65 5.35 Q-11.45 6.55 -10.85 8.8 -10.45 10.25 -9.5 11.15 -8.05 12.65 -6.3 11.5 L-5.15 10.45 Q-4.2 9.3 -4.1 7.85 -3.95 5.1 -4.15 2.6 L-4.35 1.25 -4.55 0.95" fill="#d2cf5a" fill-rule="evenodd" stroke="none"/>
    <path d="M8.0 3.75 Q6.1 1.6 3.7 0.45 L3.5 0.4 3.5 0.95 Q1.7 3.75 2.1 7.15 2.35 9.35 3.95 11.05 5.15 12.35 6.95 11.95 8.3 11.6 9.1 10.5 10.4 8.65 9.65 6.5 L8.75 4.7 8.0 3.75 M-4.55 0.95 L-4.95 0.9 -10.65 5.35 Q-11.45 6.55 -10.85 8.8 -10.45 10.25 -9.5 11.15 -8.05 12.65 -6.3 11.5 L-5.15 10.45 Q-4.2 9.3 -4.1 7.85 -3.95 5.1 -4.15 2.6 L-4.35 1.25 -4.55 0.95 Z" fill="none" stroke="#000000" stroke-linecap="round" stroke-linejoin="round" stroke-width="3.5"/>
  </g>
</svg>
