<?xml version="1.0" encoding="UTF-8" standalone="no"?>
<svg xmlns:ffdec="https://www.free-decompiler.com/flash" xmlns:xlink="http://www.w3.org/1999/xlink" ffdec:objectType="shape" height="13.6px" width="29.75px" xmlns="http://www.w3.org/2000/svg">
  <g transform="matrix(1.0, 0.0, 0.0, 1.0, 15.65, -0.8)">
    <path d="M13.7 2.05 Q14.1 3.45 14.1 5.1 L14.1 5.2 Q14.1 8.9 12.05 11.5 9.95 14.15 7.05 14.15 4.15 14.15 2.1 11.5 0.0 8.9 0.0 5.2 L0.0 5.1 Q0.0 3.45 0.45 2.05 7.05 0.35 13.7 2.05 M3.2 10.25 Q4.45 12.05 6.15 12.05 7.8 12.05 9.0 10.25 10.2 8.5 10.25 6.0 L2.0 6.0 Q2.05 8.5 3.2 10.25 M-2.05 2.05 Q-1.55 3.55 -1.55 5.35 L-1.55 5.45 Q-1.55 9.15 -3.6 11.75 -5.7 14.35 -8.6 14.4 -11.5 14.35 -13.6 11.75 -15.65 9.15 -15.65 5.45 L-15.65 5.35 Q-15.65 3.55 -15.15 2.05 -8.6 -0.45 -2.05 2.05 M-5.05 10.5 Q-4.0 8.95 -4.0 6.75 L-4.0 6.0 -11.15 6.0 -11.15 6.75 Q-11.15 8.95 -10.1 10.5 -9.05 12.05 -7.55 12.1 -6.1 12.05 -5.05 10.5" fill="#d2cf5a" fill-rule="evenodd" stroke="none"/>
    <path d="M3.2 10.25 Q2.05 8.5 2.0 6.0 L10.25 6.0 Q10.2 8.5 9.0 10.25 7.8 12.05 6.15 12.05 4.45 12.05 3.2 10.25 M-5.05 10.5 Q-6.1 12.05 -7.55 12.1 -9.05 12.05 -10.1 10.5 -11.15 8.95 -11.15 6.75 L-11.15 6.0 -4.0 6.0 -4.0 6.75 Q-4.0 8.95 -5.05 10.5 Z" fill="none" stroke="#000000" stroke-linecap="round" stroke-linejoin="round" stroke-width="3.5"/>
  </g>
</svg>
