<?xml version="1.0" encoding="UTF-8" standalone="no"?>
<svg xmlns:ffdec="https://www.free-decompiler.com/flash" xmlns:xlink="http://www.w3.org/1999/xlink" ffdec:objectType="shape" height="14.3px" width="29.8px" xmlns="http://www.w3.org/2000/svg">
  <g transform="matrix(1.0, 0.0, 0.0, 1.0, 15.7, 3.75)">
    <path d="M12.05 -1.15 Q14.05 1.45 14.1 5.1 L14.1 5.2 Q14.1 8.9 12.65 9.45 11.2 9.95 8.6 8.85 6.0 7.75 3.0 8.35 0.0 8.9 0.0 5.2 L0.0 5.1 Q0.05 1.45 2.1 -1.15 4.15 -3.75 7.05 -3.75 9.95 -3.75 12.05 -1.15 M1.75 6.9 Q5.4 -3.45 11.25 6.2 5.4 -3.45 1.75 6.9 M-3.6 -0.9 Q-1.6 1.7 -1.55 5.35 L-1.55 7.4 Q-1.55 9.35 -5.4 9.0 -9.25 8.65 -11.45 9.9 -13.7 11.1 -14.7 10.1 -15.7 9.05 -15.7 7.25 L-15.65 5.35 Q-15.65 1.7 -13.6 -0.9 -11.5 -3.55 -8.6 -3.55 -5.7 -3.55 -3.6 -0.9 M-11.25 7.3 Q-8.05 0.2 -3.95 7.1 -8.05 0.2 -11.25 7.3" fill="#d2cf5a" fill-rule="evenodd" stroke="none"/>
    <path d="M11.25 6.2 Q5.4 -3.45 1.75 6.9 M-3.95 7.1 Q-8.05 0.2 -11.25 7.3" fill="none" stroke="#333333" stroke-linecap="round" stroke-linejoin="round" stroke-width="2.0"/>
  </g>
</svg>
