<?xml version="1.0" encoding="UTF-8" standalone="no"?>
<svg xmlns:ffdec="https://www.free-decompiler.com/flash" xmlns:xlink="http://www.w3.org/1999/xlink" ffdec:objectType="shape" height="17.95px" width="29.05px" xmlns="http://www.w3.org/2000/svg">
  <g transform="matrix(1.0, 0.0, 0.0, 1.0, 14.95, 3.55)">
    <path d="M0.6 11.8 L0.65 11.55 Q0.8 11.05 1.3 10.8 L1.65 10.6 Q0.5 8.6 0.5 5.85 0.5 4.2 0.9 2.8 L0.9 2.85 Q1.2 1.65 1.9 0.65 L1.95 0.6 3.15 -0.7 3.1 -0.7 Q4.0 -1.8 5.3 -1.65 6.55 -1.5 11.65 3.95 L11.85 5.85 11.85 6.9 Q12.3 6.85 13.5 7.85 L14.0 8.3 12.9 8.55 12.75 8.55 10.55 9.2 Q7.95 10.05 3.55 11.75 L3.1 11.9 0.85 12.8 0.75 12.55 Q0.5 12.15 0.6 11.8 M4.5 2.4 Q4.05 2.95 3.9 3.65 L3.85 3.7 Q3.55 4.7 3.6 5.85 3.55 7.7 4.3 9.05 6.75 7.5 8.8 7.15 8.7 6.55 8.85 5.9 L9.0 5.4 Q8.9 5.55 7.35 3.55 5.75 1.5 5.45 1.6 L5.1 1.7 Q4.75 1.95 4.55 2.35 L4.5 2.4 M-8.05 -1.2 L-6.15 -0.6 Q-5.05 0.15 -3.8 2.05 -2.5 3.95 -2.4 6.75 -2.5 9.45 -3.8 11.4 L-3.75 11.35 -5.45 13.1 Q-6.4 13.65 -7.55 13.65 -9.85 13.7 -11.4 11.35 L-11.4 11.4 Q-12.55 9.75 -12.7 7.5 L-8.05 -1.2 M-6.35 3.85 L-6.35 3.8 Q-6.8 3.15 -7.3 3.0 -8.2 3.5 -9.35 6.7 L-9.6 7.4 Q-9.45 8.65 -8.8 9.6 L-8.8 9.65 Q-8.3 10.45 -7.55 10.55 -6.9 10.45 -6.35 9.65 L-6.35 9.6 Q-5.55 8.4 -5.5 6.75 -5.55 5.0 -6.35 3.85" fill="#000000" fill-rule="evenodd" stroke="none"/>
    <path d="M13.5 7.85 Q12.3 6.85 11.85 6.9 L11.85 5.85 11.65 3.95 Q6.55 -1.5 5.3 -1.65 4.0 -1.8 3.1 -0.7 L3.15 -0.7 1.95 0.6 1.9 0.65 Q1.2 1.65 0.9 2.85 L0.9 2.8 Q0.5 4.2 0.5 5.85 0.5 8.6 1.65 10.6 L1.3 10.8 Q0.8 11.05 0.65 11.55 L0.6 11.8 0.15 11.05 Q-0.65 8.9 -0.3 7.05 L0.0 5.1 Q0.05 1.45 2.1 -1.15 4.15 -3.75 6.3 -3.35 8.4 -3.0 10.25 -0.25 L13.1 3.8 14.1 5.2 Q14.1 6.9 13.5 7.85 M-7.65 -3.55 Q-5.7 -3.55 -3.6 -0.9 -1.6 1.7 -1.55 5.35 L-1.55 5.45 Q-1.55 9.15 -3.6 11.75 -4.4 12.75 -5.3 13.35 -6.8 14.35 -8.6 14.4 -11.5 14.35 -13.6 11.75 -15.65 9.1 -14.6 6.6 L-12.85 2.7 -10.9 -1.15 Q-9.6 -3.6 -7.65 -3.55 M-8.05 -1.2 L-12.7 7.5 Q-12.55 9.75 -11.4 11.4 L-11.4 11.35 Q-9.85 13.7 -7.55 13.65 -6.4 13.65 -5.45 13.1 L-3.75 11.35 -3.8 11.4 Q-2.5 9.45 -2.4 6.75 -2.5 3.95 -3.8 2.05 -5.05 0.15 -6.15 -0.6 L-8.05 -1.2" fill="#d2cf5a" fill-rule="evenodd" stroke="none"/>
    <path d="M10.55 9.2 L12.75 8.55 12.9 8.55 Q12.2 9.05 11.1 9.15 L10.55 9.2" fill="#dbae82" fill-rule="evenodd" stroke="none"/>
  </g>
</svg>
