<?xml version="1.0" encoding="UTF-8" standalone="no"?>
<svg xmlns:ffdec="https://www.free-decompiler.com/flash" xmlns:xlink="http://www.w3.org/1999/xlink" ffdec:objectType="shape" height="18.15px" width="29.75px" xmlns="http://www.w3.org/2000/svg">
  <g transform="matrix(1.0, 0.0, 0.0, 1.0, 15.65, 3.75)">
    <path d="M-9.95 2.55 Q-9.6 2.7 -9.4 3.0 L-2.55 6.1 -2.4 6.65 -2.4 6.75 Q-2.5 9.45 -3.8 11.4 L-3.75 11.35 -5.45 13.1 Q-6.4 13.65 -7.55 13.65 -9.85 13.7 -11.4 11.35 L-11.4 11.4 Q-12.75 9.45 -12.7 6.75 L-12.45 4.6 -14.9 3.15 -14.9 3.1 Q-15.1 2.55 -14.9 2.05 -14.7 1.55 -14.15 1.35 L-13.15 1.4 -10.85 2.4 -9.95 2.55 M-6.35 9.6 Q-5.75 8.65 -5.55 7.45 L-9.55 5.8 -9.6 6.75 Q-9.6 8.45 -8.8 9.6 L-8.8 9.65 Q-8.3 10.45 -7.55 10.55 -6.9 10.45 -6.35 9.65 L-6.35 9.6" fill="#000000" fill-rule="evenodd" stroke="none"/>
    <path d="M7.05 -3.75 Q9.95 -3.75 12.05 -1.15 14.05 1.45 14.1 5.1 L14.1 5.2 Q14.1 8.9 12.05 11.5 9.95 14.15 7.05 14.15 4.15 14.15 2.1 11.5 0.0 8.9 0.0 5.2 L0.0 5.1 Q0.05 1.45 2.1 -1.15 4.15 -3.75 7.05 -3.75 M2.4 3.25 Q2.0 4.45 2.0 5.85 2.0 8.4 3.2 10.25 4.45 12.05 6.15 12.05 7.8 12.05 9.0 10.25 10.25 8.4 10.25 5.85 10.25 3.3 9.0 1.5 7.8 -0.3 6.15 -0.3 5.0 -0.3 4.1 0.5 L3.2 1.5 Q2.65 2.3 2.4 3.25 M-9.6 -1.0 Q-7.55 1.25 -4.9 2.45 -2.25 3.65 -1.9 4.55 L-1.55 5.45 Q-1.55 9.15 -3.6 11.75 -4.4 12.75 -5.3 13.35 -6.8 14.35 -8.6 14.4 -11.5 14.35 -13.6 11.75 -15.65 9.15 -15.65 5.45 L-15.65 5.35 Q-15.65 1.7 -13.65 -0.8 -11.65 -3.3 -9.6 -1.0 M-9.95 2.55 L-10.85 2.4 -13.15 1.4 -14.15 1.35 Q-14.7 1.55 -14.9 2.05 -15.1 2.55 -14.9 3.1 L-14.9 3.15 -12.45 4.6 -12.7 6.75 Q-12.75 9.45 -11.4 11.4 L-11.4 11.35 Q-9.85 13.7 -7.55 13.65 -6.4 13.65 -5.45 13.1 L-3.75 11.35 -3.8 11.4 Q-2.5 9.45 -2.4 6.75 L-2.4 6.65 -2.55 6.1 -9.4 3.0 Q-9.6 2.7 -9.95 2.55" fill="#d2cf5a" fill-rule="evenodd" stroke="none"/>
    <path d="M2.4 3.25 Q2.65 2.3 3.2 1.5 L4.1 0.5 Q5.0 -0.3 6.15 -0.3 7.8 -0.3 9.0 1.5 10.25 3.3 10.25 5.85 10.25 8.4 9.0 10.25 7.8 12.05 6.15 12.05 4.45 12.05 3.2 10.25 2.0 8.4 2.0 5.85 2.0 4.45 2.4 3.25 Z" fill="none" stroke="#000000" stroke-linecap="round" stroke-linejoin="round" stroke-width="3.5"/>
  </g>
</svg>
