<?xml version="1.0" encoding="UTF-8" standalone="no"?>
<svg xmlns:ffdec="https://www.free-decompiler.com/flash" xmlns:xlink="http://www.w3.org/1999/xlink" ffdec:objectType="shape" height="44.15px" width="68.05px" xmlns="http://www.w3.org/2000/svg">
  <g transform="matrix(1.0, 0.0, 0.0, 1.0, 54.8, 18.65)">
    <path d="M12.0 9.15 L11.5 10.0 5.65 2.75 Q4.95 1.95 4.3 0.0 L6.45 1.05 Q7.35 3.65 9.45 6.2 L12.0 9.15 M6.6 -0.25 Q3.1 -5.65 1.0 -5.65 0.35 -5.65 0.5 -5.5 0.5 -4.8 0.8 -3.85 -4.3 -7.15 -5.0 -8.05 -3.9 -9.25 -1.5 -9.25 2.95 -9.25 6.75 -6.05 10.0 -3.35 10.0 -1.4 10.05 0.5 7.85 0.5 L6.6 -0.25" fill="#482f1a" fill-rule="evenodd" stroke="none"/>
    <path d="M1.6 -4.55 L2.0 -3.1 3.45 -2.2 1.6 -4.55 M2.3 -1.3 L2.85 -0.95 -0.05 -3.3 Q-2.15 -4.1 -4.0 -5.6 -5.9 -7.15 -5.9 -8.2 -5.9 -8.85 -4.8 -10.0 -5.85 -10.1 -8.4 -13.75 -9.8 -14.6 -11.9 -15.1 -14.55 -15.75 -16.75 -16.75 -16.15 -17.5 -15.35 -17.5 -10.3 -17.5 -6.9 -14.75 -4.25 -12.6 -4.25 -10.85 L-4.25 -10.5 -4.25 -10.55 -4.05 -10.55 Q3.35 -10.5 7.75 -6.5 10.9 -3.6 10.9 -1.4 10.9 1.4 8.35 1.4 L7.9 1.4 13.25 9.05 12.55 10.35 11.5 11.5 4.6 3.45 Q2.9 1.2 2.3 -1.3 M6.6 -0.25 L7.85 0.5 Q10.05 0.5 10.0 -1.4 10.0 -3.35 6.75 -6.05 2.95 -9.25 -1.5 -9.25 -3.9 -9.25 -5.0 -8.05 -4.3 -7.15 0.8 -3.85 0.5 -4.8 0.5 -5.5 0.35 -5.65 1.0 -5.65 3.1 -5.65 6.6 -0.25 M12.0 9.15 L9.45 6.2 Q7.35 3.65 6.45 1.05 L4.3 0.0 Q4.95 1.95 5.65 2.75 L11.5 10.0 12.0 9.15" fill="#342112" fill-rule="evenodd" stroke="none"/>
    <path d="M5.4 12.9 L6.05 9.95 Q5.85 3.05 4.05 0.15 3.2 -1.35 4.3 -0.45 L2.15 -2.75 Q-3.25 -10.2 -12.4 -14.4 L-12.45 -14.45 -12.6 -14.5 Q-14.95 -15.5 -17.5 -16.1 L-17.55 -16.1 -29.75 -15.65 -29.8 -15.65 Q-38.9 -14.4 -46.2 -8.55 -50.0 -5.35 -51.75 -0.9 -54.55 7.0 -51.7 14.85 L-51.1 16.3 -51.0 16.55 Q-50.9 16.5 -50.95 16.6 L-48.6 19.15 -51.45 19.15 Q-56.75 7.25 -53.65 -1.6 -51.75 -6.65 -47.4 -10.1 -39.75 -16.25 -30.05 -17.8 L-30.0 -17.75 Q-21.1 -20.05 -12.35 -16.55 -2.25 -11.6 3.7 -3.6 L3.75 -3.55 7.0 1.4 Q8.65 5.05 7.1 15.1 6.45 12.0 5.4 12.9 M6.6 7.35 L6.6 7.55 6.6 7.5 6.6 7.35" fill="#342112" fill-rule="evenodd" stroke="none"/>
    <path d="M-12.45 -14.45 L-12.4 -14.4 Q-3.25 -10.2 2.15 -2.75 L4.3 -0.45 Q3.2 -1.35 4.05 0.15 5.85 3.05 6.05 9.95 L5.4 12.9 Q5.05 14.05 4.85 15.15 L2.7 14.9 Q-0.2 16.65 -3.3 18.0 L-6.25 19.15 -48.6 19.15 -50.95 16.6 Q-50.9 16.5 -51.0 16.55 L-51.1 16.3 -50.7 15.4 Q-44.45 18.6 -35.0 18.6 -18.75 18.05 -10.7 11.1 -4.8 5.8 -4.7 -0.1 -4.5 -3.4 -6.65 -6.35 -9.55 -10.55 -17.6 -15.35 L-17.65 -15.7 -17.55 -16.1 -17.5 -16.1 Q-14.95 -15.5 -12.6 -14.5 L-12.55 -14.45 -12.45 -14.45" fill="#4c2c02" fill-rule="evenodd" stroke="none"/>
    <path d="M-51.7 14.85 Q-54.55 7.0 -51.75 -0.9 -50.0 -5.35 -46.2 -8.55 -38.9 -14.4 -29.8 -15.65 L-29.75 -15.65 -17.55 -16.1 -17.65 -15.7 -17.6 -15.35 Q-9.55 -10.55 -6.65 -6.35 -4.5 -3.4 -4.7 -0.1 -4.8 5.8 -10.7 11.1 -18.75 18.05 -35.0 18.6 -44.45 18.6 -50.7 15.4 -51.2 15.05 -51.7 14.85" fill="#663300" fill-rule="evenodd" stroke="none"/>
    <path d="M-12.6 -14.5 L-12.45 -14.45 -12.55 -14.45 -12.6 -14.5" fill="#232323" fill-rule="evenodd" stroke="none"/>
    <path d="M-51.1 16.3 L-51.7 14.85 Q-51.2 15.05 -50.7 15.4 L-51.1 16.3" fill="#c3c3c3" fill-rule="evenodd" stroke="none"/>
    <path d="M8.8 8.5 L8.75 8.4 8.9 8.55 8.8 8.5 M6.6 7.35 L6.6 7.5 6.6 7.55 6.6 7.35" fill="#cccccc" fill-rule="evenodd" stroke="none"/>
    <path d="M8.3 10.85 L8.2 10.9 8.1 10.9 8.3 10.85 M8.0 10.05 L7.95 10.05 8.15 9.85 8.0 10.05" fill="#333333" fill-rule="evenodd" stroke="none"/>
    <path d="M-53.65 17.95 Q-54.65 14.85 -54.55 12.8 L-54.4 8.65 Q-54.35 8.1 -52.15 5.25 -50.0 2.35 -44.35 0.45 L-35.2 -2.25 Q-28.1 -3.95 -21.0 -2.8 -14.1 -2.5 -7.5 -0.65 -2.9 0.55 1.15 2.8 L5.4 5.2 Q7.05 6.3 8.2 7.95 L8.9 8.75 6.8 18.7 5.2 19.85 Q4.55 20.5 3.7 20.95 -0.5 22.7 -4.85 23.85 L-11.65 24.95 Q-23.15 25.95 -34.6 25.05 L-43.15 23.6 -47.55 22.45 Q-49.7 21.65 -51.6 20.5 -52.5 19.95 -53.0 19.0 L-53.45 18.0 -53.65 17.95 M-39.75 0.65 Q-44.6 1.8 -48.4 3.95 -52.2 6.05 -52.35 9.05 L-52.65 13.9 Q-49.9 9.4 -45.15 7.25 L-42.8 6.35 Q-39.75 5.1 -36.65 4.4 L-28.5 3.05 Q-22.9 2.8 -17.25 3.15 L-12.45 3.95 Q-7.0 5.15 -1.95 7.85 -0.3 8.7 1.3 10.0 4.15 12.25 6.0 15.0 L6.5 8.9 Q4.9 6.4 0.3 4.45 -1.8 3.5 -3.95 2.7 -8.0 1.25 -12.35 0.25 L-23.2 -1.3 Q-29.85 -2.05 -39.9 0.6 L-39.75 0.6 -39.75 0.65 M-50.55 14.55 L-50.9 15.3 -50.95 15.5 -51.3 17.25 Q-51.3 17.95 -50.9 18.55 L-49.9 19.45 -44.85 21.4 -38.45 22.55 -30.4 23.3 -20.85 23.5 -11.8 22.95 -5.35 21.9 Q-0.75 20.9 3.35 18.7 L4.55 17.95 4.75 17.55 Q4.55 16.0 3.5 14.95 L2.6 14.0 1.25 12.65 0.2 11.75 -1.25 10.6 -1.3 10.6 Q-3.8 8.95 -6.6 7.8 L-8.35 7.15 -8.45 7.1 Q-12.9 5.65 -17.4 5.15 -20.85 5.05 -24.25 5.1 L-32.5 5.75 -39.85 7.25 Q-44.15 8.55 -47.6 11.05 -49.55 12.4 -50.55 14.55" fill="#342112" fill-rule="evenodd" stroke="none"/>
    <path d="M-39.75 0.6 L-39.9 0.6 Q-29.85 -2.05 -23.2 -1.3 L-12.35 0.25 Q-8.0 1.25 -3.95 2.7 -1.8 3.5 0.3 4.45 4.9 6.4 6.5 8.9 L6.0 15.0 Q4.15 12.25 1.3 10.0 -0.3 8.7 -1.95 7.85 -7.0 5.15 -12.45 3.95 L-17.25 3.15 Q-22.9 2.8 -28.5 3.05 L-36.65 4.4 Q-39.75 5.1 -42.8 6.35 L-45.15 7.25 Q-49.9 9.4 -52.65 13.9 L-52.35 9.05 Q-52.2 6.05 -48.4 3.95 -44.6 1.8 -39.75 0.65 -34.95 -0.5 -39.75 0.6 M-8.4 7.15 L-25.9 9.05 Q-39.8 10.6 -41.4 12.35 -41.0 12.75 -40.6 12.75 -42.4 11.75 -18.25 11.75 -2.5 11.75 1.75 13.15 L-21.95 14.85 Q-33.25 15.5 -33.25 16.7 L-33.0 17.25 -25.35 17.5 -7.05 16.5 -2.0 16.6 Q-6.0 19.65 -17.15 19.65 -28.1 19.65 -50.55 14.55 -49.55 12.4 -47.6 11.05 -44.15 8.55 -39.85 7.25 L-32.5 5.75 -24.25 5.1 Q-20.85 5.05 -17.4 5.15 -12.9 5.65 -8.45 7.1 L-8.4 7.15" fill="#934900" fill-rule="evenodd" stroke="none"/>
    <path d="M-8.35 7.15 L-6.6 7.8 Q-3.8 8.95 -1.3 10.6 L-1.25 10.6 0.2 11.75 1.25 12.65 2.6 14.0 3.5 14.95 Q4.55 16.0 4.75 17.55 L4.55 17.95 3.35 18.7 Q-0.75 20.9 -5.35 21.9 L-11.8 22.95 -20.85 23.5 -30.4 23.3 -38.45 22.55 -44.85 21.4 -49.9 19.45 -50.9 18.55 Q-51.3 17.95 -51.3 17.25 L-50.95 15.5 -50.9 15.3 -50.55 14.55 Q-28.1 19.65 -17.15 19.65 -6.0 19.65 -2.0 16.6 L-7.05 16.5 -25.35 17.5 -33.0 17.25 -33.25 16.7 Q-33.25 15.5 -21.95 14.85 L1.75 13.15 Q-2.5 11.75 -18.25 11.75 -42.4 11.75 -40.6 12.75 -41.0 12.75 -41.4 12.35 -39.8 10.6 -25.9 9.05 L-8.4 7.15 -8.35 7.15" fill="#58380e" fill-rule="evenodd" stroke="none"/>
    <path d="M-8.35 7.15 L-8.4 7.15 -8.45 7.1 -8.35 7.15" fill="#999999" fill-rule="evenodd" stroke="none"/>
    <path d="M-53.45 18.0 L-53.05 19.6 -53.65 17.95 -53.45 18.0 M-39.75 0.6 Q-34.95 -0.5 -39.75 0.65 L-39.75 0.6" fill="#232323" fill-rule="evenodd" stroke="none"/>
  </g>
</svg>
