<?xml version="1.0" encoding="UTF-8" standalone="no"?>
<svg xmlns:ffdec="https://www.free-decompiler.com/flash" xmlns:xlink="http://www.w3.org/1999/xlink" ffdec:objectType="shape" height="122.55px" width="125.8px" xmlns="http://www.w3.org/2000/svg">
  <g transform="matrix(1.0, 0.0, 0.0, 1.0, 33.3, 21.05)">
    <path d="M25.95 -10.1 Q18.7 -13.5 12.6 -14.0 6.45 -14.55 -1.15 -12.75 -8.75 -11.0 -5.85 -5.3 -22.35 1.55 -8.45 2.9 L11.85 4.05 Q16.45 3.95 44.05 17.15 40.85 10.45 23.85 -0.25 25.7 -4.1 49.0 9.55 33.2 -6.7 25.95 -10.1 M6.25 7.6 Q-3.8 5.55 -10.4 6.05 L-20.95 7.25 Q-20.4 -1.1 -9.05 -11.05 2.25 -21.0 17.7 -18.6 33.25 -16.15 45.75 -3.05 58.25 10.0 58.5 20.9 L58.55 22.35 58.15 21.95 Q55.35 19.15 51.45 19.15 47.55 19.15 44.75 21.95 L43.8 23.1 Q35.3 15.6 19.35 10.85 L18.6 9.45 18.6 9.4 Q15.15 3.15 9.45 5.9 7.65 6.7 6.25 7.6 M44.55 25.7 L45.25 24.4 46.15 23.35 Q48.35 21.15 51.45 21.15 54.55 21.15 56.75 23.35 57.85 24.45 58.4 25.75 58.95 27.1 58.95 28.65 L58.95 28.7 Q58.95 30.45 58.25 31.9 57.7 33.0 56.75 33.95 L54.45 35.55 54.25 35.65 53.35 35.95 52.8 36.05 Q50.45 30.25 44.55 25.7 M50.55 24.05 L50.0 24.45 Q49.2 25.3 49.5 26.05 49.75 26.8 51.05 26.95 52.3 27.05 53.2 30.4 54.05 33.65 55.2 32.25 56.3 30.85 56.6 28.25 L56.65 27.9 Q56.7 26.55 56.15 25.7 L55.05 24.65 Q53.15 23.65 52.0 23.65 51.2 23.65 50.55 24.05" fill="#9f2020" fill-rule="evenodd" stroke="none"/>
    <path d="M19.35 10.85 Q35.3 15.6 43.8 23.1 L44.75 21.95 Q47.55 19.15 51.45 19.15 55.35 19.15 58.15 21.95 L58.55 22.35 58.5 20.9 Q58.25 10.0 45.75 -3.05 33.25 -16.15 17.7 -18.6 2.25 -21.0 -9.05 -11.05 -20.4 -1.1 -20.95 7.25 L-10.4 6.05 Q-3.8 5.55 6.25 7.6 4.95 8.35 3.95 9.15 -2.5 8.0 -7.4 7.95 -10.45 6.6 -12.55 7.5 -13.4 7.75 -14.05 8.4 L-20.9 9.3 -21.35 8.6 -23.15 10.0 -23.75 10.25 -23.3 8.45 Q-21.2 -1.25 -11.4 -10.65 1.6 -23.2 18.0 -20.6 34.15 -18.05 47.3 -4.5 60.35 9.05 62.0 18.75 62.7 22.7 61.8 27.65 72.25 32.0 80.2 40.6 90.35 51.5 92.1 66.5 L92.5 69.3 92.1 69.45 90.3 67.25 Q87.25 63.3 83.25 60.45 L83.2 60.4 Q75.55 54.8 67.65 49.55 69.35 55.35 69.65 61.65 70.35 77.45 64.5 92.0 62.55 96.8 58.35 99.85 L56.1 101.5 55.95 101.4 56.8 98.7 Q58.8 92.75 57.75 86.6 55.9 75.75 51.95 65.55 L50.6 62.25 50.65 61.95 51.3 58.75 51.85 60.0 53.55 64.15 54.55 66.8 57.35 75.45 57.0 67.45 56.65 62.65 56.15 57.05 55.8 54.4 54.95 48.65 54.3 45.1 54.3 43.45 Q54.15 39.5 52.8 36.05 L53.35 35.95 54.25 35.65 54.45 35.55 56.75 33.95 Q57.7 33.0 58.25 31.9 58.95 30.45 58.95 28.7 L58.95 28.65 Q58.95 27.1 58.4 25.75 57.85 24.45 56.75 23.35 54.55 21.15 51.45 21.15 48.35 21.15 46.15 23.35 L45.25 24.4 44.55 25.7 42.9 24.5 40.7 23.1 Q38.45 21.35 35.75 19.8 L31.8 17.75 Q26.75 15.3 20.4 13.3 L19.35 10.85 M84.4 58.8 Q87.2 60.8 89.6 63.3 87.25 51.1 78.75 41.95 71.25 33.8 61.35 29.65 L60.95 29.5 Q60.75 31.75 59.55 33.65 64.1 39.65 66.65 46.45 75.65 52.4 84.4 58.8 M57.45 39.75 L55.85 37.15 54.4 38.7 55.85 43.85 56.65 47.6 57.25 51.4 57.7 55.6 57.85 57.9 58.05 64.6 58.05 67.6 57.65 76.7 Q58.85 81.4 59.7 86.25 60.55 91.25 59.55 96.1 61.55 94.0 62.65 91.25 68.35 77.15 67.65 61.75 67.3 54.4 65.0 47.8 L63.7 44.55 Q61.9 40.4 59.25 36.55 L60.7 42.55 61.25 45.35 62.45 53.7 62.75 56.45 62.8 56.55 63.0 58.55 63.6 65.25 62.7 58.6 62.35 56.6 62.25 56.05 61.7 53.05 Q60.6 47.8 59.3 44.0 L57.45 39.75" fill="#532222" fill-rule="evenodd" stroke="none"/>
    <path d="M25.95 -10.1 Q33.2 -6.7 49.0 9.55 25.7 -4.1 23.85 -0.25 40.85 10.45 44.05 17.15 16.45 3.95 11.85 4.05 L-8.45 2.9 Q-22.35 1.55 -5.85 -5.3 -8.75 -11.0 -1.15 -12.75 6.45 -14.55 12.6 -14.0 18.7 -13.5 25.95 -10.1 M50.55 24.05 Q51.2 23.65 52.0 23.65 53.15 23.65 55.05 24.65 L56.15 25.7 Q56.7 26.55 56.65 27.9 L56.6 28.25 Q56.3 30.85 55.2 32.25 54.05 33.65 53.2 30.4 52.3 27.05 51.05 26.95 49.75 26.8 49.5 26.05 49.2 25.3 50.0 24.45 L50.55 24.05" fill="#c42626" fill-rule="evenodd" stroke="none"/>
    <path d="M2.1 39.6 L2.1 39.55 2.1 39.6" fill="#312217" fill-rule="evenodd" stroke="none"/>
    <path d="M35.75 19.8 Q38.45 21.35 40.7 23.1 L38.5 21.9 37.7 21.8 37.5 21.9 36.7 20.8 35.75 19.8 M43.65 27.6 Q43.15 27.1 44.0 27.85 L44.05 27.9 43.65 27.6 M51.55 38.85 L52.05 41.3 52.2 43.25 51.95 48.1 50.9 52.55 50.2 55.0 49.2 58.9 49.05 59.65 48.55 62.5 Q46.75 73.95 50.8 81.1 47.05 80.5 46.75 79.6 44.85 67.7 45.0 46.75 L42.35 78.85 Q41.75 86.2 44.1 92.55 38.8 87.15 38.75 78.85 38.7 73.45 39.15 68.05 L39.35 65.95 Q39.75 61.45 40.5 57.05 41.55 50.5 40.4 44.15 L39.55 40.55 38.95 38.7 38.45 38.1 38.35 38.05 38.0 38.0 Q38.4 32.55 39.25 27.85 45.85 36.45 46.0 40.2 45.75 29.8 49.8 37.45 50.1 35.1 50.55 36.1 L51.35 38.15 51.55 38.85 M35.5 22.55 Q38.05 25.5 37.25 36.25 L37.1 38.5 37.05 38.65 37.0 39.2 36.85 41.4 Q36.15 48.25 35.4 52.05 34.3 57.1 37.05 64.7 30.1 60.15 33.05 45.4 L34.3 37.55 34.7 32.4 Q34.75 28.0 33.75 25.75 32.0 21.6 28.35 19.15 32.95 19.55 35.5 22.55 M16.9 10.4 L17.95 12.55 18.65 14.4 19.2 16.5 19.25 18.95 17.95 28.65 Q17.15 34.6 20.15 37.65 23.15 40.65 24.75 44.4 26.35 48.1 24.95 50.05 L20.7 56.1 Q24.3 44.75 17.95 39.65 11.6 34.5 14.75 26.95 17.4 20.5 15.6 16.55 L14.85 15.2 14.35 14.65 Q13.3 13.6 11.75 13.6 8.95 13.55 7.15 14.95 L2.05 14.7 Q2.25 13.8 3.65 11.35 4.2 10.35 5.3 9.4 L7.55 7.85 Q8.45 7.35 9.5 6.9 13.75 4.9 16.75 10.15 L16.9 10.4 M-7.45 10.15 Q-4.85 11.55 -4.25 13.75 -4.0 14.7 -4.15 15.85 -4.3 17.4 -5.2 19.25 -7.9 24.75 -6.4 29.65 -9.65 25.65 -8.15 20.35 -7.35 17.35 -7.35 15.05 L-7.55 12.9 -7.85 12.05 Q-8.4 10.6 -10.7 10.6 L-13.6 10.95 -11.9 8.6 Q-10.95 7.45 -7.5 10.15 L-7.45 10.15 M-21.9 13.2 Q-31.0 17.9 -28.45 30.1 -25.85 43.1 -27.2 48.8 -27.7 50.85 -28.55 52.7 -25.8 41.65 -29.15 35.2 -32.5 28.65 -30.75 22.2 -29.0 15.75 -26.4 14.45 -23.85 13.15 -21.9 13.2" fill="#3c2b13" fill-rule="evenodd" stroke="none"/>
    <path d="M19.35 10.85 L20.4 13.3 Q26.75 15.3 31.8 17.75 L35.75 19.8 36.7 20.8 37.5 21.9 37.7 21.8 38.5 21.9 40.7 23.1 42.9 24.5 44.55 25.7 Q50.45 30.25 52.8 36.05 54.15 39.5 54.3 43.45 L54.3 45.1 54.1 47.4 Q53.75 50.15 52.8 53.15 L51.3 58.75 50.65 61.95 50.6 62.25 51.95 65.55 50.3 64.4 Q49.05 75.2 53.6 81.7 L54.65 83.35 52.75 83.25 Q47.85 83.05 44.95 80.95 43.8 89.05 47.85 95.75 L49.3 98.25 48.75 98.75 46.45 97.1 Q36.85 90.6 36.75 78.85 36.75 72.7 37.3 66.6 35.65 65.2 33.75 63.05 28.65 57.4 31.25 44.25 32.6 37.2 32.7 32.65 30.3 25.65 26.8 21.5 L24.0 18.8 23.7 18.6 Q22.5 17.75 21.25 17.2 L21.2 19.2 21.2 19.25 19.95 28.7 Q19.25 33.9 21.85 37.05 24.75 40.55 26.65 44.25 28.75 48.45 26.45 51.3 24.5 53.75 19.4 58.3 23.95 46.9 17.7 41.65 10.15 35.45 13.15 27.1 15.45 20.3 13.45 16.75 L7.85 17.0 7.8 17.0 7.35 17.0 0.75 16.65 0.35 16.6 -2.1 16.25 Q-2.4 18.0 -3.4 20.15 -6.5 26.4 -3.25 31.75 0.1 37.25 2.05 39.5 L2.1 39.55 2.1 39.6 Q-12.15 28.7 -9.55 21.65 -8.05 17.05 -8.65 14.65 L-12.85 13.1 Q-15.5 13.45 -16.9 16.8 -29.1 17.4 -26.55 29.7 -23.8 43.35 -25.3 49.3 -26.85 55.3 -33.25 61.3 L-33.3 61.3 -32.4 58.6 Q-27.25 43.7 -30.3 36.45 -33.75 28.65 -30.95 19.05 -29.5 13.95 -26.25 12.2 -25.25 11.6 -23.15 10.0 L-21.35 8.6 -20.9 9.3 -14.05 8.4 Q-13.4 7.75 -12.55 7.5 -10.45 6.6 -7.4 7.95 -2.5 8.0 3.95 9.15 4.95 8.35 6.25 7.6 7.65 6.7 9.45 5.9 15.15 3.15 18.6 9.4 L18.6 9.45 19.35 10.85 M43.65 27.6 L44.05 27.9 44.0 27.85 Q43.15 27.1 43.65 27.6 M51.55 38.85 L51.35 38.15 50.55 36.1 Q50.1 35.1 49.8 37.45 45.75 29.8 46.0 40.2 45.85 36.45 39.25 27.85 38.4 32.55 38.0 38.0 L38.35 38.05 38.45 38.1 38.95 38.7 39.55 40.55 40.4 44.15 Q41.55 50.5 40.5 57.05 39.75 61.45 39.35 65.95 L39.15 68.05 Q38.7 73.45 38.75 78.85 38.8 87.15 44.1 92.55 41.75 86.2 42.35 78.85 L45.0 46.75 Q44.85 67.7 46.75 79.6 47.05 80.5 50.8 81.1 46.75 73.95 48.55 62.5 L49.05 59.65 49.2 58.9 50.2 55.0 50.9 52.55 51.95 48.1 52.2 43.25 52.05 41.3 51.55 38.85 M16.9 10.4 L16.75 10.15 Q13.75 4.9 9.5 6.9 8.45 7.35 7.55 7.85 L5.3 9.4 Q4.2 10.35 3.65 11.35 2.25 13.8 2.05 14.7 L7.15 14.95 Q8.95 13.55 11.75 13.6 13.3 13.6 14.35 14.65 L14.85 15.2 15.6 16.55 Q17.4 20.5 14.75 26.95 11.6 34.5 17.95 39.65 24.3 44.75 20.7 56.1 L24.95 50.05 Q26.35 48.1 24.75 44.4 23.15 40.65 20.15 37.65 17.15 34.6 17.95 28.65 L19.25 18.95 19.2 16.5 18.65 14.4 17.95 12.55 16.9 10.4 M35.5 22.55 Q32.95 19.55 28.35 19.15 32.0 21.6 33.75 25.75 34.75 28.0 34.7 32.4 L34.3 37.55 33.05 45.4 Q30.1 60.15 37.05 64.7 34.3 57.1 35.4 52.05 36.15 48.25 36.85 41.4 L37.0 39.2 37.05 38.65 37.1 38.5 37.25 36.25 Q38.05 25.5 35.5 22.55 M38.8 45.95 L37.8 42.35 Q36.8 50.35 36.45 55.3 36.15 59.3 37.65 62.9 38.0 59.75 38.85 54.65 39.7 49.45 38.8 45.95 M-21.9 13.2 Q-23.85 13.15 -26.4 14.45 -29.0 15.75 -30.75 22.2 -32.5 28.65 -29.15 35.2 -25.8 41.65 -28.55 52.7 -27.7 50.85 -27.2 48.8 -25.85 43.1 -28.45 30.1 -31.0 17.9 -21.9 13.2 M-7.45 10.15 L-7.5 10.15 Q-10.95 7.45 -11.9 8.6 L-13.6 10.95 -10.7 10.6 Q-8.4 10.6 -7.85 12.05 L-7.55 12.9 -7.35 15.05 Q-7.35 17.35 -8.15 20.35 -9.65 25.65 -6.4 29.65 -7.9 24.75 -5.2 19.25 -4.3 17.4 -4.15 15.85 -4.0 14.7 -4.25 13.75 -4.85 11.55 -7.45 10.15" fill="#271f16" fill-rule="evenodd" stroke="none"/>
    <path d="M54.3 45.1 L54.95 48.65 55.8 54.4 56.15 57.05 56.65 62.65 57.0 67.45 57.35 75.45 54.55 66.8 53.55 64.15 51.85 60.0 51.3 58.75 52.8 53.15 Q53.75 50.15 54.1 47.4 L54.3 45.1 M84.4 58.8 Q75.65 52.4 66.65 46.45 64.1 39.65 59.55 33.65 60.75 31.75 60.95 29.5 L61.35 29.65 Q71.25 33.8 78.75 41.95 87.25 51.1 89.6 63.3 87.2 60.8 84.4 58.8" fill="#7a1818" fill-rule="evenodd" stroke="none"/>
    <path d="M57.45 39.75 L59.3 44.0 Q60.6 47.8 61.7 53.05 L62.25 56.05 62.35 56.6 62.7 58.6 63.6 65.25 63.0 58.55 62.8 56.55 62.75 56.45 62.45 53.7 61.25 45.35 60.7 42.55 59.25 36.55 Q61.9 40.4 63.7 44.55 L65.0 47.8 Q67.3 54.4 67.65 61.75 68.35 77.15 62.65 91.25 61.55 94.0 59.55 96.1 60.55 91.25 59.7 86.25 58.85 81.4 57.65 76.7 L58.05 67.6 58.05 64.6 57.85 57.9 57.7 55.6 57.25 51.4 56.65 47.6 55.85 43.85 54.4 38.7 55.85 37.15 57.45 39.75" fill="#8e1c1c" fill-rule="evenodd" stroke="none"/>
  </g>
</svg>
