<?xml version="1.0" encoding="UTF-8" standalone="no"?>
<svg xmlns:ffdec="https://www.free-decompiler.com/flash" xmlns:xlink="http://www.w3.org/1999/xlink" ffdec:objectType="shape" height="30.85px" width="41.2px" xmlns="http://www.w3.org/2000/svg">
  <g transform="matrix(1.0, 0.0, 0.0, 1.0, 24.55, 12.1)">
    <path d="M-21.4 8.95 Q-23.45 4.3 -24.55 2.45 L-24.15 2.1 -23.4 2.05 Q-15.4 4.85 -6.85 3.55 7.1 1.15 13.6 -11.45 13.8 -11.8 14.2 -11.95 L14.55 -12.0 14.6 -12.0 14.75 -12.1 16.2 -5.35 Q17.05 -0.15 16.25 7.35 L16.0 7.95 15.8 8.35 Q6.75 20.65 -8.6 18.4 -16.65 17.1 -21.4 9.0 L-21.4 8.95 M-16.95 5.7 Q-16.1 6.35 -15.1 7.55 L-14.9 7.55 Q-12.95 8.4 -8.05 8.4 -3.5 8.4 2.1 6.75 5.5 5.7 8.25 3.9 L12.35 0.3 Q13.65 -0.55 14.6 -1.95 L14.2 -7.45 14.1 -8.25 Q7.1 3.15 -6.5 5.5 L-6.55 5.5 Q-11.85 6.35 -16.95 5.65 L-18.3 5.45 -22.1 4.6 Q-20.75 6.15 -19.7 7.95 L-19.65 7.95 Q-15.45 15.2 -8.3 16.45 L-8.3 16.4 Q0.45 17.7 7.0 13.85 L8.0 13.25 7.75 13.4 7.7 13.1 7.7 11.85 Q7.55 4.55 14.05 4.55 L14.5 4.6 14.65 -0.25 Q13.2 1.85 9.7 4.3 2.25 9.55 -8.4 9.55 -12.4 9.55 -14.5 8.7 L-15.0 8.85 Q-15.5 8.85 -20.1 5.1 L-18.3 5.5 -16.95 5.7 M14.25 7.1 L14.35 6.2 14.4 5.7 Q11.1 5.55 10.1 6.85 L9.3 9.4 Q8.9 10.25 8.65 12.8 11.7 10.55 14.2 7.15 L14.25 7.1" fill="#682424" fill-rule="evenodd" stroke="none"/>
    <path d="M-16.95 5.65 Q-11.85 6.35 -6.55 5.5 L-6.5 5.5 Q7.1 3.15 14.1 -8.25 L14.2 -7.45 14.6 -1.95 Q13.65 -0.55 12.35 0.3 L8.25 3.9 Q5.5 5.7 2.1 6.75 -3.5 8.4 -8.05 8.4 -12.95 8.4 -14.9 7.55 L-15.1 7.55 Q-16.1 6.35 -16.95 5.7 L-16.95 5.65" fill="#e5e5e5" fill-rule="evenodd" stroke="none"/>
    <path d="M-16.95 5.7 L-18.3 5.5 -20.1 5.1 Q-15.5 8.85 -15.0 8.85 L-14.5 8.7 Q-12.4 9.55 -8.4 9.55 2.25 9.55 9.7 4.3 13.2 1.85 14.65 -0.25 L14.5 4.6 14.05 4.55 Q7.55 4.55 7.7 11.85 L7.7 13.1 7.75 13.4 8.0 13.25 7.0 13.85 Q0.45 17.7 -8.3 16.4 L-8.3 16.45 Q-15.45 15.2 -19.65 7.95 L-19.7 7.95 Q-20.75 6.15 -22.1 4.6 L-18.3 5.45 -16.95 5.65 -16.95 5.7" fill="#57352d" fill-rule="evenodd" stroke="none"/>
    <path d="M14.25 7.1 L14.2 7.15 Q11.7 10.55 8.65 12.8 8.9 10.25 9.3 9.4 L10.1 6.85 Q11.1 5.55 14.4 5.7 L14.35 6.2 14.25 7.1" fill="#b45f50" fill-rule="evenodd" stroke="none"/>
    <path d="M-21.4 8.95 L-21.4 9.0 -21.4 8.95" fill="#463624" fill-rule="evenodd" stroke="none"/>
  </g>
</svg>
