<?xml version="1.0" encoding="UTF-8" standalone="no"?>
<svg xmlns:ffdec="https://www.free-decompiler.com/flash" xmlns:xlink="http://www.w3.org/1999/xlink" ffdec:objectType="shape" height="30.85px" width="41.2px" xmlns="http://www.w3.org/2000/svg">
  <g transform="matrix(1.0, 0.0, 0.0, 1.0, 24.55, 12.1)">
    <path d="M-21.4 8.95 Q-23.45 4.3 -24.55 2.45 L-24.15 2.1 -23.4 2.05 Q-15.4 4.85 -6.85 3.55 7.1 1.15 13.6 -11.45 13.8 -11.8 14.2 -11.95 L14.55 -12.0 14.6 -12.0 14.75 -12.1 16.2 -5.35 Q17.05 -0.15 16.25 7.35 L16.0 7.95 15.8 8.35 Q6.75 20.65 -8.6 18.4 -16.65 17.1 -21.4 9.0 L-21.4 8.95 M14.6 -2.05 L14.2 -7.45 14.1 -8.25 Q7.1 3.15 -6.5 5.5 L-6.55 5.5 Q-11.8 6.35 -16.85 5.65 L-17.6 5.5 -17.9 5.55 -18.3 5.45 -22.1 4.6 -20.95 6.0 -20.4 6.85 -19.7 7.95 -19.6 8.05 -18.9 9.2 -18.9 9.15 -18.7 9.1 -14.65 11.8 -11.9 11.1 -11.5 11.0 -9.4 10.55 -9.25 10.5 -8.35 10.5 -8.25 10.75 -8.3 11.0 -8.35 11.0 Q-10.05 11.35 -13.3 12.55 L-13.8 14.05 -13.8 14.15 -13.85 14.25 -13.85 14.3 -11.7 15.45 -8.3 16.45 -8.3 16.4 Q0.45 17.7 7.0 13.85 L7.05 13.9 6.75 14.15 7.45 13.6 7.75 13.4 11.55 10.2 12.15 9.6 14.2 7.15 14.25 7.1 14.25 7.05 14.5 7.05 14.55 6.25 Q13.6 5.45 13.05 5.45 10.8 5.45 9.05 6.25 L8.95 6.3 8.4 6.65 7.35 7.2 7.3 7.2 7.2 7.2 6.7 7.2 6.6 7.0 Q6.6 6.6 8.0 5.95 L8.45 5.75 8.5 5.75 9.0 5.55 9.95 5.2 10.05 5.15 10.2 5.1 13.35 3.85 Q14.1 2.75 14.65 1.1 L14.65 1.85 14.7 1.05 14.7 1.0 14.65 -1.15 14.55 -1.85 14.6 -1.95 14.6 -2.05 M-17.15 11.5 L-15.45 13.1 -14.0 14.2 -14.85 13.6 -14.9 13.15 -16.7 11.7 Q-17.05 11.45 -17.3 11.3 L-17.15 11.5" fill="#682424" fill-rule="evenodd" stroke="none"/>
    <path d="M-19.7 7.95 L-20.4 6.85 -20.95 6.0 -22.1 4.6 -18.3 5.45 -17.9 5.55 -17.6 5.5 -16.85 5.65 Q-11.8 6.35 -6.55 5.5 L-6.5 5.5 Q7.1 3.15 14.1 -8.25 L14.2 -7.45 14.6 -2.05 14.55 -2.0 14.45 -1.85 14.55 -1.85 14.65 -1.15 14.7 1.0 14.7 1.05 14.65 1.1 Q14.1 2.75 13.35 3.85 L10.2 5.1 10.05 5.15 9.95 5.2 9.0 5.55 8.5 5.75 8.45 5.75 8.25 5.75 8.0 5.95 Q6.6 6.6 6.6 7.0 L6.7 7.2 7.2 7.2 7.3 7.2 7.35 7.2 8.4 6.65 8.95 6.3 9.0 6.3 9.05 6.3 9.05 6.25 Q10.8 5.45 13.05 5.45 13.6 5.45 14.55 6.25 L14.5 7.05 14.25 7.05 14.25 7.1 14.2 7.15 12.15 9.6 11.55 10.2 Q11.35 6.95 8.75 6.95 L6.3 7.65 6.05 7.6 5.95 7.3 Q5.95 6.6 10.0 3.55 L10.95 1.95 Q9.55 3.0 7.75 3.8 3.0 5.85 1.2 6.3 -5.15 7.8 -8.9 7.8 L-17.4 7.05 -20.15 6.25 Q-16.6 10.55 -11.3 10.55 L-7.0 10.3 -4.45 10.4 Q-4.35 10.45 -4.4 10.65 -5.55 11.4 -9.2 12.95 -10.6 13.85 -11.1 15.65 L-11.7 15.45 -13.85 14.3 -13.85 14.25 -13.8 14.15 -13.8 14.1 -13.8 14.05 -13.3 12.55 Q-10.05 11.35 -8.35 11.0 L-8.3 11.0 -8.25 10.75 -8.35 10.5 -9.25 10.5 -9.4 10.55 -11.5 11.0 -11.9 11.1 -14.65 11.8 -18.7 9.1 -18.9 9.15 -18.9 9.2 -19.6 8.05 -19.65 7.95 -19.7 7.95" fill="#e5e5e5" fill-rule="evenodd" stroke="none"/>
    <path d="M14.6 -2.05 L14.6 -1.95 14.55 -1.85 14.45 -1.85 14.55 -2.0 14.6 -2.05 M8.45 5.75 L8.0 5.95 8.25 5.75 8.45 5.75 M11.55 10.2 L7.75 13.4 7.45 13.6 7.0 13.85 Q0.45 17.7 -8.3 16.4 L-8.3 16.45 -11.7 15.45 -11.1 15.65 Q-10.6 13.85 -9.2 12.95 -5.55 11.4 -4.4 10.65 -4.35 10.45 -4.45 10.4 L-7.0 10.3 -11.3 10.55 Q-16.6 10.55 -20.15 6.25 L-17.4 7.05 -8.9 7.8 Q-5.15 7.8 1.2 6.3 3.0 5.85 7.75 3.8 9.55 3.0 10.95 1.95 L10.0 3.55 Q5.95 6.6 5.95 7.3 L6.05 7.6 6.3 7.65 8.75 6.95 Q11.35 6.95 11.55 10.2 M9.0 6.3 L9.05 6.25 9.05 6.3 9.0 6.3" fill="#f9f9f9" fill-rule="evenodd" stroke="none"/>
    <path d="M-21.4 8.95 L-21.4 9.0 -21.4 8.95 M8.95 6.3 L9.05 6.25 9.0 6.3 8.95 6.3 M7.05 13.9 L7.0 13.85 7.45 13.6 7.05 13.9 M-19.6 8.05 L-19.7 7.95 -19.65 7.95 -19.6 8.05" fill="#463624" fill-rule="evenodd" stroke="none"/>
    <path d="M-13.8 14.15 L-13.8 14.05 -13.8 14.1 -13.8 14.15 M-17.15 11.5 L-17.3 11.3 Q-17.05 11.45 -16.7 11.7 L-14.9 13.15 -14.85 13.6 -14.0 14.2 -15.45 13.1 -17.15 11.5" fill="#57352d" fill-rule="evenodd" stroke="none"/>
  </g>
</svg>
