<?xml version="1.0" encoding="UTF-8" standalone="no"?>
<svg xmlns:ffdec="https://www.free-decompiler.com/flash" xmlns:xlink="http://www.w3.org/1999/xlink" ffdec:objectType="shape" height="14.65px" width="27.85px" xmlns="http://www.w3.org/2000/svg">
  <g transform="matrix(1.0, 0.0, 0.0, 1.0, 12.6, 0.5)">
    <path d="M14.5 2.2 Q15.25 3.3 15.25 5.75 15.25 8.2 11.85 10.75 7.35 14.1 -0.25 14.1 L-4.85 14.0 -4.9 14.0 -6.1 14.15 Q-13.0 14.15 -12.55 8.55 L-12.45 7.75 Q-11.8 4.8 -5.65 2.2 0.65 -0.5 7.0 -0.5 12.75 -0.5 14.5 2.2 M-9.25 12.2 L-9.05 12.3 -8.1 12.7 Q3.65 13.85 9.0 10.7 13.35 8.15 13.35 5.4 13.35 1.25 5.75 1.25 -2.05 1.25 -7.3 4.55 -9.4 5.85 -11.05 7.35 L-10.35 8.3 -9.75 9.05 Q-7.95 7.35 -2.25 7.1 L-1.0 7.35 -0.95 7.55 -5.25 8.85 -8.0 10.45 -8.1 10.7 -9.15 12.0 -9.5 12.1 -9.25 12.2" fill="#682424" fill-rule="evenodd" stroke="none"/>
    <path d="M-1.0 7.35 L-2.25 7.1 Q-7.95 7.35 -9.75 9.05 L-10.35 8.3 -11.05 7.35 Q-9.4 5.85 -7.3 4.55 -2.05 1.25 5.75 1.25 13.35 1.25 13.35 5.4 13.35 8.15 9.0 10.7 3.65 13.85 -8.1 12.7 L-9.05 12.3 -9.25 12.2 -9.15 12.0 -8.1 10.7 -8.0 10.5 -8.0 10.45 -5.25 8.85 -0.95 7.55 -0.9 7.5 -1.0 7.35" fill="#e5e5e5" fill-rule="evenodd" stroke="none"/>
    <path d="M-1.0 7.35 L-0.9 7.5 -0.95 7.55 -1.0 7.35 M-8.0 10.45 L-8.0 10.5 -8.1 10.7 -8.0 10.45" fill="#463624" fill-rule="evenodd" stroke="none"/>
  </g>
</svg>
