<?xml version="1.0" encoding="UTF-8" standalone="no"?>
<svg xmlns:ffdec="https://www.free-decompiler.com/flash" xmlns:xlink="http://www.w3.org/1999/xlink" ffdec:objectType="shape" height="25.9px" width="35.65px" xmlns="http://www.w3.org/2000/svg">
  <g transform="matrix(1.0, 0.0, 0.0, 1.0, 17.8, 7.8)">
    <path d="M-10.05 1.95 L-6.3 -0.65 Q1.55 -5.75 7.0 -5.75 12.3 -5.75 14.9 -1.45 L15.95 0.65 15.45 0.35 Q14.85 -0.3 12.25 -0.3 L10.75 -0.25 Q-4.25 5.35 -5.75 5.35 -6.25 5.35 -8.15 3.55 L-10.05 1.95" fill="#e5e5e5" fill-rule="evenodd" stroke="none"/>
    <path d="M-10.05 1.95 L-8.15 3.55 Q-6.25 5.35 -5.75 5.35 -4.25 5.35 10.75 -0.25 L12.25 -0.3 Q14.85 -0.3 15.45 0.35 L15.95 0.65 14.9 -1.45 Q12.3 -5.75 7.0 -5.75 1.55 -5.75 -6.3 -0.65 L-10.05 1.95 -10.55 2.3 -10.05 1.95 M16.35 2.2 Q15.05 2.2 14.65 1.6 14.3 1.0 12.05 1.0 8.4 1.0 1.8 3.75 -4.75 6.5 -5.6 6.5 -7.45 6.5 -10.9 2.6 L-11.55 3.15 -14.4 5.75 Q-11.95 7.55 -11.6 10.85 -11.45 12.75 -11.55 16.5 L-5.0 16.75 Q1.45 16.75 6.0 15.65 L6.05 15.65 6.85 15.4 5.95 15.65 5.9 15.4 Q5.9 14.95 6.65 14.55 7.4 14.2 7.4 13.85 6.65 13.65 6.0 13.1 3.25 15.6 0.75 15.6 -3.1 15.6 -3.1 12.65 -3.1 10.85 -1.5 8.6 1.0 5.15 5.75 5.15 10.3 5.15 13.0 7.5 14.8 9.05 15.0 10.4 17.25 7.3 16.6 3.75 L16.45 2.25 16.35 1.75 16.45 2.2 16.35 2.2 M17.85 3.6 Q17.85 8.75 15.75 11.5 10.65 18.1 -5.1 18.1 L-12.95 18.05 -13.1 17.8 Q-12.9 17.4 -13.05 17.1 L-12.9 15.75 -12.8 13.25 Q-12.8 6.75 -15.7 6.75 -16.25 6.75 -17.25 7.6 -17.8 7.4 -17.8 6.8 -1.1 -7.8 8.6 -7.8 13.7 -7.8 16.3 -2.25 17.6 0.55 17.85 3.6 M-1.65 11.15 L-2.0 12.4 Q-2.0 14.25 0.15 14.25 3.2 14.25 5.45 12.15 7.0 10.7 7.6 9.0 L8.0 8.85 8.35 9.2 8.05 10.65 7.3 11.85 7.2 11.95 7.35 11.9 7.7 11.9 8.0 11.95 9.65 12.75 9.75 12.9 9.9 13.2 9.9 13.3 10.0 14.0 9.9 14.3 10.1 14.2 11.7 13.35 Q13.1 12.5 14.15 11.4 L13.6 10.7 12.75 8.95 Q11.0 6.4 5.75 6.4 -0.1 6.4 -1.65 11.15" fill="#682424" fill-rule="evenodd" stroke="none"/>
    <path d="M6.0 15.65 Q1.45 16.75 -5.0 16.75 L-11.55 16.5 Q-11.45 12.75 -11.6 10.85 -11.95 7.55 -14.4 5.75 L-11.55 3.15 -10.9 2.6 Q-7.45 6.5 -5.6 6.5 -4.75 6.5 1.8 3.75 8.4 1.0 12.05 1.0 14.3 1.0 14.65 1.6 15.05 2.2 16.35 2.2 L16.45 2.2 16.45 2.25 16.6 3.75 Q17.25 7.3 15.0 10.4 14.8 9.05 13.0 7.5 10.3 5.15 5.75 5.15 1.0 5.15 -1.5 8.6 -3.1 10.85 -3.1 12.65 -3.1 15.6 0.75 15.6 3.25 15.6 6.0 13.1 6.65 13.65 7.4 13.85 7.4 14.2 6.65 14.55 5.9 14.95 5.9 15.4 L5.95 15.65 6.0 15.65" fill="#57352d" fill-rule="evenodd" stroke="none"/>
    <path d="M16.45 2.2 L16.35 2.2 16.45 2.2 M8.6 8.55 L8.6 9.9 8.25 10.65 8.25 10.3 8.35 9.25 8.55 9.2 8.6 8.55" fill="#463624" fill-rule="evenodd" stroke="none"/>
    <path d="M8.05 10.65 L8.35 9.2 8.0 8.85 7.6 9.0 Q7.0 10.7 5.45 12.15 3.2 14.25 0.15 14.25 -2.0 14.25 -2.0 12.4 L-1.65 11.15 Q-0.55 12.5 1.75 12.5 4.7 12.5 6.4 10.35 L8.1 8.15 Q11.25 8.15 11.75 12.75 L11.7 13.35 10.1 14.2 10.0 14.0 9.9 13.3 9.9 13.2 9.75 12.9 9.65 12.75 8.0 11.95 7.7 11.9 8.05 10.65 M8.6 8.55 L8.55 9.2 8.35 9.25 8.25 10.3 8.25 10.65 8.6 9.9 8.6 8.55" fill="#a05345" fill-rule="evenodd" stroke="none"/>
    <path d="M8.05 10.65 L7.7 11.9 7.35 11.9 7.3 11.85 8.05 10.65 M11.7 13.35 L11.75 12.75 Q11.25 8.15 8.1 8.15 L6.4 10.35 Q4.7 12.5 1.75 12.5 -0.55 12.5 -1.65 11.15 -0.1 6.4 5.75 6.4 11.0 6.4 12.75 8.95 L13.6 10.7 14.15 11.4 Q13.1 12.5 11.7 13.35" fill="#b45f50" fill-rule="evenodd" stroke="none"/>
  </g>
</svg>
