<?xml version="1.0" encoding="UTF-8" standalone="no"?>
<svg xmlns:ffdec="https://www.free-decompiler.com/flash" xmlns:xlink="http://www.w3.org/1999/xlink" ffdec:objectType="shape" height="16.6px" width="36.9px" xmlns="http://www.w3.org/2000/svg">
  <g transform="matrix(1.0, 0.0, 0.0, 1.0, 22.15, 6.6)">
    <path d="M12.3 2.35 L8.75 2.1 Q7.5 2.1 6.65 4.75 5.95 6.8 6.3 8.1 6.6 7.75 8.05 7.75 9.4 7.75 11.15 4.6 L12.35 2.35 12.5 1.95 12.3 2.35 M12.75 0.85 Q12.75 -2.1 8.1 -3.1 6.75 -1.15 2.6 1.7 -1.35 4.35 -6.35 5.25 L-2.5 6.15 3.75 7.45 4.9 7.9 Q4.8 7.75 5.05 6.3 5.25 4.85 6.4 2.55 7.55 0.2 9.25 0.25 10.95 0.25 12.25 0.75 L12.75 0.95 12.75 0.85 M9.7 -6.5 L9.8 -6.35 Q9.6 -6.35 9.45 -6.15 14.2 -6.1 14.75 1.1 11.7 10.2 6.7 10.0 1.65 9.75 -4.3 8.5 -10.0 7.3 -13.5 5.65 -18.4 5.45 -20.65 4.05 L-22.15 1.45 Q-12.45 4.75 -2.7 1.45 4.05 -1.0 8.9 -6.4 L9.7 -6.5" fill="#682424" fill-rule="evenodd" stroke="none"/>
    <path d="M9.7 -6.5 Q10.6 -6.4 9.9 -6.4 L9.8 -6.35 9.7 -6.5" fill="#463624" fill-rule="evenodd" stroke="none"/>
    <path d="M12.75 0.95 L12.25 0.75 Q10.95 0.25 9.25 0.25 7.55 0.2 6.4 2.55 5.25 4.85 5.05 6.3 4.8 7.75 4.9 7.9 L3.75 7.45 -2.5 6.15 -6.35 5.25 Q-1.35 4.35 2.6 1.7 6.75 -1.15 8.1 -3.1 12.75 -2.1 12.75 0.85 L12.75 0.95" fill="#57352d" fill-rule="evenodd" stroke="none"/>
    <path d="M12.35 2.35 L11.15 4.6 Q9.4 7.75 8.05 7.75 6.6 7.75 6.3 8.1 5.95 6.8 6.65 4.75 7.5 2.1 8.75 2.1 L12.3 2.35 12.35 2.35" fill="#b45f50" fill-rule="evenodd" stroke="none"/>
  </g>
</svg>
