<?xml version="1.0" encoding="UTF-8" standalone="no"?>
<svg xmlns:ffdec="https://www.free-decompiler.com/flash" xmlns:xlink="http://www.w3.org/1999/xlink" ffdec:objectType="shape" height="7.85px" width="23.45px" xmlns="http://www.w3.org/2000/svg">
  <g transform="matrix(1.0, 0.0, 0.0, 1.0, 15.05, -5.15)">
    <path d="M6.3 6.85 L5.25 6.65 Q2.7 6.65 0.75 7.9 -1.0 9.05 -1.1 10.2 L-4.6 9.9 -9.75 10.6 -9.75 9.65 Q-9.75 8.85 -10.3 7.75 -7.45 6.4 3.05 6.4 L5.6 6.65 5.9 6.6 6.35 6.85 6.3 6.85" fill="#57352d" fill-rule="evenodd" stroke="none"/>
    <path d="M6.35 6.85 L5.9 6.6 5.6 6.65 3.05 6.4 Q-7.45 6.4 -10.3 7.75 -9.75 8.85 -9.75 9.65 L-9.75 10.6 -4.6 9.9 -1.1 10.2 Q-1.0 9.05 0.75 7.9 2.7 6.65 5.25 6.65 L6.3 6.85 6.65 7.1 6.35 6.85 M7.5 9.55 Q7.5 8.35 7.05 7.6 6.35 8.2 4.8 8.2 2.85 8.15 2.25 8.6 1.2 9.3 1.15 10.0 1.1 10.35 0.3 10.35 L0.25 10.4 1.0 10.55 6.9 11.15 Q7.5 11.15 7.5 9.55 M8.4 9.5 Q8.4 12.25 6.35 12.25 L1.2 11.65 -5.1 11.0 Q-8.25 11.0 -10.85 12.0 -13.45 13.0 -14.1 13.0 L-14.55 12.9 -14.75 12.4 Q-14.75 11.75 -10.95 10.85 L-10.55 10.75 Q-11.5 9.85 -11.5 7.7 L-14.9 9.0 Q-15.05 9.4 -15.05 8.75 -15.05 8.0 -10.85 7.0 L-11.3 7.1 Q-10.8 6.55 -9.05 6.3 L-4.65 5.85 -1.6 5.55 1.25 5.25 3.0 5.15 5.75 5.45 Q8.5 6.15 8.4 9.5" fill="#682424" fill-rule="evenodd" stroke="none"/>
    <path d="M7.5 9.55 Q7.5 11.15 6.9 11.15 L1.0 10.55 0.25 10.4 0.3 10.35 Q1.1 10.35 1.15 10.0 1.2 9.3 2.25 8.6 2.85 8.15 4.8 8.2 6.35 8.2 7.05 7.6 7.5 8.35 7.5 9.55" fill="#b45f50" fill-rule="evenodd" stroke="none"/>
  </g>
</svg>
