<?xml version="1.0" encoding="UTF-8" standalone="no"?>
<svg xmlns:ffdec="https://www.free-decompiler.com/flash" xmlns:xlink="http://www.w3.org/1999/xlink" ffdec:objectType="shape" height="62.65px" width="44.45px" xmlns="http://www.w3.org/2000/svg">
  <g transform="matrix(1.0, 0.0, 0.0, 1.0, 14.8, 11.7)">
    <path d="M26.05 47.45 L26.4 47.2 Q28.1 45.7 27.5 43.4 26.3 39.35 24.6 35.5 22.7 31.2 20.15 27.15 L20.0 26.95 8.45 -2.85 Q6.8 -6.6 1.4 -11.2 1.1 -11.3 1.05 -11.35 L3.95 -10.65 4.0 -10.6 Q8.95 -8.9 10.85 -4.0 L22.05 26.1 25.5 33.2 25.95 34.25 26.2 34.75 26.75 35.6 Q28.6 38.95 29.5 42.95 30.4 47.35 26.4 49.7 L26.3 49.75 Q22.5 51.95 18.55 50.1 15.7 48.75 14.35 46.05 L13.45 45.35 Q14.1 45.8 13.0 44.3 L12.8 44.55 12.45 44.1 12.6 44.05 11.0 41.95 Q10.6 41.8 10.45 41.5 L6.55 34.7 6.5 34.7 -12.7 8.45 -12.75 8.4 Q-15.85 4.25 -14.25 -0.9 L-14.25 -1.1 Q-13.45 -4.35 -11.15 -6.65 -12.7 3.7 -10.35 7.1 L-5.7 13.75 8.25 33.75 9.15 35.25 9.5 36.2 10.65 38.25 12.1 40.3 13.2 41.65 Q14.7 43.2 15.95 45.05 17.15 46.85 18.9 47.9 L25.25 48.05 25.3 48.0 25.95 47.4 26.0 47.5 26.05 47.45" fill="#443d0b" fill-rule="evenodd" stroke="none"/>
    <path d="M1.05 -11.35 Q1.1 -11.3 1.4 -11.2 6.8 -6.6 8.45 -2.85 L20.0 26.95 20.15 27.15 Q22.7 31.2 24.6 35.5 26.3 39.35 27.5 43.4 28.1 45.7 26.4 47.2 L26.05 47.45 Q26.3 44.55 16.75 29.0 L16.75 29.05 Q12.8 22.7 5.25 11.55 -0.35 7.65 -5.7 13.75 L-10.35 7.1 Q-12.7 3.7 -11.15 -6.65 L-11.15 -6.8 -11.1 -6.7 Q-9.15 -8.7 -7.15 -9.65 L-6.55 -9.95 Q-5.15 -10.65 -3.55 -11.0 L-3.6 -11.05 Q-2.2 -12.2 1.05 -11.35" fill="#e3d048" fill-rule="evenodd" stroke="none"/>
    <path d="M26.05 47.45 L26.0 47.5 25.95 47.4 25.3 48.0 25.25 48.05 18.9 47.9 Q17.15 46.85 15.95 45.05 14.7 43.2 13.2 41.65 L12.1 40.3 10.65 38.25 9.5 36.2 9.15 35.25 8.25 33.75 -5.7 13.75 Q-0.35 7.65 5.25 11.55 12.8 22.7 16.75 29.05 L16.75 29.0 Q26.3 44.55 26.05 47.45" fill="#e9d96b" fill-rule="evenodd" stroke="none"/>
  </g>
</svg>
