<?xml version="1.0" encoding="UTF-8" standalone="no"?>
<svg xmlns:ffdec="https://www.free-decompiler.com/flash" xmlns:xlink="http://www.w3.org/1999/xlink" ffdec:objectType="shape" height="86.95px" width="86.95px" xmlns="http://www.w3.org/2000/svg">
  <g transform="matrix(1.0, 0.0, 0.0, 1.0, 40.9, 58.9)">
    <path d="M-27.9 -45.1 L-27.45 -45.35 -25.4 -46.4 Q-17.9 -50.1 -8.8 -50.1 6.7 -50.1 17.65 -39.4 28.6 -28.65 28.6 -13.45 28.6 1.75 17.65 12.45 6.7 23.2 -8.8 23.2 L-16.95 22.4 Q-22.65 19.4 -27.5 14.55 -39.95 2.15 -39.9 -15.45 -39.95 -30.25 -31.1 -41.45 L-27.9 -45.1" fill="#926041" fill-rule="evenodd" stroke="none"/>
    <path d="M-25.4 -46.4 Q-15.35 -53.75 -2.3 -53.75 14.2 -53.75 25.85 -42.1 37.5 -30.4 37.5 -13.9 37.5 2.55 25.85 14.2 14.2 25.85 -2.3 25.9 L-10.5 25.1 Q-13.85 24.0 -16.95 22.4 L-8.8 23.2 Q6.7 23.2 17.65 12.45 28.6 1.75 28.6 -13.45 28.6 -28.65 17.65 -39.4 6.7 -50.1 -8.8 -50.1 -17.9 -50.1 -25.4 -46.4" fill="#83563a" fill-rule="evenodd" stroke="none"/>
    <path d="M-27.9 -45.1 L-27.5 -45.5 Q-15.05 -57.9 2.55 -57.9 20.15 -57.9 32.55 -45.5 45.0 -33.05 45.05 -15.45 45.0 2.15 32.55 14.55 20.15 27.0 2.55 27.05 -4.35 27.0 -10.5 25.1 L-2.3 25.9 Q14.2 25.85 25.85 14.2 37.5 2.55 37.5 -13.9 37.5 -30.4 25.85 -42.1 14.2 -53.75 -2.3 -53.75 -15.35 -53.75 -25.4 -46.4 L-27.45 -45.35 -27.9 -45.1" fill="#754b33" fill-rule="evenodd" stroke="none"/>
    <path d="M-10.5 25.1 Q-4.35 27.0 2.55 27.05 20.15 27.0 32.55 14.55 45.0 2.15 45.05 -15.45 45.0 -33.05 32.55 -45.5 20.15 -57.9 2.55 -57.9 -15.05 -57.9 -27.5 -45.5 L-27.9 -45.1 -27.45 -45.35 M-10.5 25.1 Q-13.85 24.0 -16.95 22.4 -22.65 19.4 -27.5 14.55 -39.95 2.15 -39.9 -15.45 -39.95 -30.25 -31.1 -41.45 L-27.9 -45.1" fill="none" stroke="#4b3121" stroke-linecap="round" stroke-linejoin="round" stroke-width="2.0"/>
  </g>
</svg>
