<?xml version="1.0" encoding="UTF-8" standalone="no"?>
<svg xmlns:ffdec="https://www.free-decompiler.com/flash" xmlns:xlink="http://www.w3.org/1999/xlink" ffdec:objectType="shape" height="7.85px" width="23.45px" xmlns="http://www.w3.org/2000/svg">
  <g transform="matrix(1.0, 0.0, 0.0, 1.0, 21.05, -7.15)">
    <path d="M0.35 8.85 L-0.1 8.6 -0.4 8.65 -2.95 8.4 Q-13.45 8.4 -16.3 9.75 -15.75 10.85 -15.75 11.65 L-15.75 12.6 -10.6 11.9 -7.1 12.2 Q-7.0 11.05 -5.25 9.9 -3.3 8.65 -0.75 8.65 L0.3 8.85 0.65 9.1 0.35 8.85 M-3.0 7.15 L-0.25 7.45 Q2.5 8.15 2.4 11.5 2.4 14.25 0.35 14.25 L-4.8 13.65 -11.1 13.0 Q-14.25 13.0 -16.85 14.0 -19.45 15.0 -20.1 15.0 L-20.55 14.9 -20.75 14.4 Q-20.75 13.75 -16.95 12.85 L-16.55 12.75 Q-17.5 11.85 -17.5 9.7 L-20.9 11.0 Q-21.05 11.4 -21.05 10.75 -21.05 10.0 -16.85 9.0 L-17.3 9.1 Q-16.8 8.55 -15.05 8.3 L-10.65 7.85 -7.6 7.55 -4.75 7.25 -3.0 7.15 M1.5 11.55 Q1.5 10.35 1.05 9.6 0.35 10.2 -1.2 10.2 -3.15 10.15 -3.75 10.6 -4.8 11.3 -4.85 12.0 -4.9 12.35 -5.7 12.35 L-5.75 12.4 -5.0 12.55 0.9 13.15 Q1.5 13.15 1.5 11.55" fill="#463624" fill-rule="evenodd" stroke="none"/>
    <path d="M0.3 8.85 L-0.75 8.65 Q-3.3 8.65 -5.25 9.9 -7.0 11.05 -7.1 12.2 L-10.6 11.9 -15.75 12.6 -15.75 11.65 Q-15.75 10.85 -16.3 9.75 -13.45 8.4 -2.95 8.4 L-0.4 8.65 -0.1 8.6 0.35 8.85 0.3 8.85" fill="#57352d" fill-rule="evenodd" stroke="none"/>
    <path d="M1.5 11.55 Q1.5 13.15 0.9 13.15 L-5.0 12.55 -5.75 12.4 -5.7 12.35 Q-4.9 12.35 -4.85 12.0 -4.8 11.3 -3.75 10.6 -3.15 10.15 -1.2 10.2 0.35 10.2 1.05 9.6 1.5 10.35 1.5 11.55" fill="#b45f50" fill-rule="evenodd" stroke="none"/>
  </g>
</svg>
