<?xml version="1.0" encoding="UTF-8" standalone="no"?>
<svg xmlns:ffdec="https://www.free-decompiler.com/flash" xmlns:xlink="http://www.w3.org/1999/xlink" ffdec:objectType="shape" height="173.9px" width="79.05px" xmlns="http://www.w3.org/2000/svg">
  <g transform="matrix(1.0, 0.0, 0.0, 1.0, 32.1, 138.1)">
    <path d="M0.45 -137.8 L2.3 -138.05 Q6.4 -138.4 10.35 -135.4 L11.4 -134.55 10.5 -134.4 8.8 -133.95 8.1 -134.35 Q5.95 -135.75 3.65 -135.9 L3.7 -136.15 Q4.8 -137.3 3.15 -137.7 L3.0 -137.75 2.45 -137.75 0.45 -137.8 M21.7 -118.5 L22.6 -116.3 Q25.85 -108.3 29.0 -98.7 L29.55 -99.2 29.65 -99.25 29.8 -99.0 29.7 -98.95 29.1 -98.45 29.2 -98.3 29.3 -97.85 28.55 -96.0 28.15 -95.0 27.4 -97.3 27.3 -97.55 Q24.1 -107.3 20.8 -115.45 18.7 -120.45 16.65 -124.25 L19.15 -120.55 20.65 -118.0 21.7 -118.5 M-26.75 -71.65 L-27.5 -72.35 -26.75 -71.65 M-27.85 -72.65 Q-32.4 -77.35 -32.1 -83.95 L-31.95 -81.3 -31.95 -81.2 -31.15 -77.85 -31.1 -77.75 -30.9 -77.25 -30.85 -77.15 -30.85 -77.1 -30.75 -76.95 -30.7 -76.85 -30.4 -76.3 -30.45 -76.3 -30.2 -75.85 -29.9 -75.45 -27.85 -72.65 M-0.15 -135.5 Q-2.7 -134.7 -5.1 -132.65 L-5.2 -132.65 -5.2 -132.6 -6.15 -131.85 -8.9 -129.0 Q-6.1 -134.35 -1.9 -135.45 L-1.8 -135.45 -1.75 -135.45 -0.15 -135.5" fill="#5c4730" fill-rule="evenodd" stroke="none"/>
    <path d="M0.45 -137.8 L2.45 -137.75 3.0 -137.75 3.15 -137.7 Q4.8 -137.3 3.7 -136.15 L3.65 -135.9 3.3 -135.7 2.95 -135.65 2.85 -135.65 -0.15 -135.5 -1.75 -135.45 -1.8 -135.45 -1.9 -135.45 Q-6.1 -134.35 -8.9 -129.0 L-8.95 -128.9 Q-12.7 -121.55 -16.35 -111.65 -19.7 -102.85 -16.55 -101.0 -13.2 -99.45 -9.0 -104.35 L-8.6 -104.8 Q-4.15 -110.3 -0.2 -121.15 2.1 -127.4 4.8 -130.7 6.65 -133.05 8.8 -133.95 L10.5 -134.4 11.4 -134.55 Q17.25 -134.95 20.95 -121.45 L21.8 -118.55 21.7 -118.5 20.65 -118.0 19.15 -120.55 16.65 -124.25 Q15.45 -125.65 14.4 -126.25 L14.3 -126.3 Q12.55 -127.0 11.05 -125.3 L11.1 -125.3 Q6.05 -119.3 5.7 -110.9 L5.7 -110.75 5.75 -110.0 5.7 -109.8 Q5.7 -103.5 8.6 -98.65 L9.95 -96.6 Q14.05 -91.3 20.05 -90.8 L21.2 -90.75 Q26.1 -90.75 28.15 -95.0 L28.55 -96.0 29.3 -97.85 29.65 -98.7 30.45 -96.0 36.0 -77.55 36.0 -77.5 40.6 -60.85 40.6 -60.8 Q42.95 -51.25 45.1 -33.3 L45.4 -32.6 45.6 -31.5 Q45.7 -29.55 42.8 -27.95 L42.75 -27.95 Q40.95 -27.0 37.85 -26.15 L36.85 -25.9 34.55 -25.4 34.05 -25.3 33.6 -25.2 Q25.8 -23.65 15.8 -23.3 L14.75 -23.25 11.3 -23.15 10.3 -23.15 8.35 -23.15 -3.4 -23.5 -3.25 -22.25 -3.35 -20.55 -3.35 -20.5 Q-3.65 -18.45 -4.8 -16.85 -5.55 -15.75 -6.65 -14.9 L-6.8 -14.8 Q-9.8 -12.6 -13.3 -13.05 L-17.1 -13.55 Q-20.75 -14.0 -22.9 -16.8 L-23.8 -18.15 Q-24.5 -19.45 -24.65 -20.9 L-24.6 -23.15 -24.6 -23.2 -23.75 -25.85 -23.15 -26.85 -24.7 -27.5 Q-27.05 -28.6 -27.85 -29.9 -28.3 -30.7 -28.25 -31.5 L-27.7 -33.1 -27.65 -33.2 -27.55 -33.3 -27.5 -33.35 Q-22.5 -44.9 -21.5 -54.55 -21.05 -59.35 -21.5 -63.65 L-21.45 -63.65 Q-21.8 -66.2 -22.4 -68.55 L-23.3 -69.1 -23.35 -69.2 -23.5 -69.25 -23.55 -69.25 -25.1 -70.35 -26.75 -71.65 -27.5 -72.35 -27.55 -72.35 -27.85 -72.65 -29.9 -75.45 -30.2 -75.85 -30.45 -76.3 -30.4 -76.3 -30.7 -76.85 -30.75 -76.95 -30.85 -77.1 -30.85 -77.15 -30.9 -77.25 -31.1 -77.75 -31.15 -77.85 -31.95 -81.2 -31.95 -81.3 -32.1 -83.95 -31.8 -86.65 -31.75 -86.75 -30.95 -89.95 -30.9 -90.05 -30.85 -90.3 -28.2 -98.4 -27.1 -101.4 -27.1 -101.35 Q-24.8 -107.65 -17.75 -122.2 -10.65 -137.15 -2.1 -137.55 L0.25 -137.8 0.45 -137.8 M3.8 -107.9 L3.7 -109.75 3.7 -109.8 3.7 -110.75 3.7 -110.9 Q4.05 -120.15 9.6 -126.65 11.65 -129.0 13.95 -128.6 L15.25 -128.1 Q16.05 -127.75 16.85 -127.0 14.15 -132.9 10.75 -132.35 L10.65 -132.35 Q5.6 -131.2 1.65 -120.45 -2.6 -108.7 -7.55 -103.0 -13.05 -96.6 -17.55 -99.15 L-17.5 -99.15 Q-22.35 -101.4 -18.25 -112.35 L-15.85 -118.5 Q-13.3 -124.75 -10.7 -129.85 L-10.5 -130.2 -10.45 -130.25 -11.6 -128.85 Q-13.9 -125.8 -16.0 -121.3 -22.95 -106.95 -25.2 -100.65 L-26.35 -97.7 -27.6 -94.1 -29.0 -89.55 -29.0 -89.5 -29.05 -89.45 -29.15 -88.95 -29.2 -88.8 -30.0 -85.15 Q-30.25 -83.35 -30.0 -81.7 L-30.0 -81.8 -29.85 -81.25 -29.15 -78.45 -29.2 -78.55 -29.05 -78.15 -29.05 -78.05 -29.0 -78.0 -28.9 -77.8 -28.7 -77.45 -28.7 -77.4 -28.4 -76.85 -28.35 -76.8 -28.35 -76.75 -28.35 -76.8 -28.3 -76.8 -28.3 -76.7 -26.65 -74.45 -26.6 -74.45 -26.3 -74.15 -25.65 -73.5 -23.75 -72.0 -22.55 -71.15 -22.5 -71.1 -22.2 -70.9 -22.25 -70.95 -21.05 -70.3 -20.7 -70.1 -20.4 -69.0 -19.5 -63.95 -19.3 -61.6 -19.35 -56.35 -19.5 -54.35 -20.15 -49.95 Q-21.65 -42.05 -25.45 -33.05 L-25.75 -32.35 -25.85 -32.15 -26.0 -32.05 -26.05 -31.95 -26.25 -31.5 -25.55 -30.5 -23.8 -29.4 -21.55 -28.6 -18.95 -27.85 -16.7 -27.35 -6.8 -25.9 -4.15 -25.65 8.45 -25.25 9.85 -25.25 11.9 -25.25 Q24.2 -25.5 33.3 -27.25 L33.7 -27.35 34.25 -27.45 36.0 -27.85 37.45 -28.2 Q40.25 -29.0 41.9 -29.85 L41.9 -29.8 Q43.4 -30.65 43.6 -31.45 L43.6 -31.5 43.4 -32.1 43.15 -32.35 43.15 -32.65 43.0 -33.95 42.65 -36.75 Q40.75 -51.8 38.65 -60.25 L34.1 -76.8 29.3 -92.9 28.95 -92.4 Q26.25 -88.65 21.1 -88.65 L19.85 -88.7 Q13.1 -89.2 8.4 -95.25 L6.9 -97.5 Q4.15 -102.1 3.8 -107.9 M-22.6 -23.0 L-22.6 -22.85 Q-22.85 -21.3 -22.3 -19.9 L-21.35 -18.15 -20.25 -17.05 Q-18.85 -15.9 -16.8 -15.65 L-13.0 -15.15 -10.35 -15.25 Q-9.1 -15.65 -7.9 -16.5 L-7.95 -16.5 -7.2 -17.05 Q-5.65 -18.55 -5.35 -20.8 L-5.35 -20.85 -5.25 -22.4 -5.5 -23.65 -17.15 -25.3 -21.1 -26.25 -21.8 -25.25 Q-22.4 -24.25 -22.6 -23.0" fill="#5a1d3c" fill-rule="evenodd" stroke="none"/>
    <path d="M-27.6 -94.1 L-26.35 -97.7 -25.2 -100.65 Q-22.95 -106.95 -16.0 -121.3 -13.9 -125.8 -11.6 -128.85 L-10.45 -130.25 -10.5 -130.2 -10.7 -129.85 Q-13.3 -124.75 -15.85 -118.5 L-18.25 -112.35 Q-22.35 -101.4 -17.5 -99.15 L-17.55 -99.15 Q-13.05 -96.6 -7.55 -103.0 -2.6 -108.7 1.65 -120.45 5.6 -131.2 10.65 -132.35 L10.75 -132.35 Q14.15 -132.9 16.85 -127.0 16.05 -127.75 15.25 -128.1 L13.95 -128.6 Q11.65 -129.0 9.6 -126.65 4.05 -120.15 3.7 -110.9 L3.7 -110.75 3.7 -109.8 3.7 -109.75 3.8 -107.9 Q2.6 -105.35 1.7 -102.75 -0.8 -95.15 1.8 -87.95 3.15 -84.2 7.35 -84.0 18.65 -82.65 22.15 -72.55 22.6 -71.45 22.25 -70.3 19.45 -61.45 14.05 -53.55 17.35 -51.9 21.4 -52.4 23.5 -52.2 25.0 -51.05 29.6 -47.7 28.9 -40.15 L28.55 -37.8 28.4 -37.15 27.65 -35.1 Q24.85 -29.1 16.3 -28.9 7.9 -28.15 -0.55 -28.9 L-7.8 -29.3 -15.4 -30.75 Q-18.45 -31.5 -21.35 -32.6 L-23.0 -33.3 -22.35 -34.4 -21.55 -35.1 -20.85 -35.4 -18.65 -36.05 -12.5 -37.8 Q-0.1 -41.1 12.25 -42.9 L11.95 -43.0 Q-3.6 -42.95 -18.35 -46.7 L-19.0 -46.95 -18.3 -47.0 Q-6.85 -48.05 -2.15 -51.3 2.7 -54.7 5.3 -59.1 7.95 -63.5 -0.25 -68.3 -2.5 -69.65 -4.75 -69.65 L-12.1 -70.2 Q-8.15 -76.0 -2.1 -76.85 L0.85 -77.4 0.7 -79.1 -2.25 -78.95 -2.3 -78.95 -16.65 -77.65 -17.5 -92.9 -17.65 -95.85 -18.2 -95.95 -19.4 -93.2 Q-22.85 -85.45 -25.2 -78.9 -28.4 -85.6 -27.7 -93.35 L-27.6 -94.1" fill="#b23875" fill-rule="evenodd" stroke="none"/>
    <path d="M8.1 -134.35 L8.8 -133.95 Q6.65 -133.05 4.8 -130.7 6.4 -133.65 8.1 -134.35 M27.4 -97.3 L28.15 -95.0 Q26.1 -90.75 21.2 -90.75 L20.05 -90.8 Q14.05 -91.3 9.95 -96.6 L8.6 -98.65 Q5.7 -103.5 5.7 -109.8 L5.75 -110.0 5.7 -110.75 5.7 -110.9 Q6.05 -119.3 11.1 -125.3 L11.05 -125.3 Q12.55 -127.0 14.3 -126.3 3.45 -117.0 9.35 -102.65 15.15 -88.5 27.4 -97.3 M-6.15 -131.85 Q-7.85 -124.8 -12.45 -115.7 -17.6 -105.6 -15.0 -103.5 -12.8 -101.7 -8.6 -104.8 L-9.0 -104.35 Q-13.2 -99.45 -16.55 -101.0 -19.7 -102.85 -16.35 -111.65 -12.7 -121.55 -8.95 -128.9 L-8.9 -129.0 -6.15 -131.85" fill="#ffc58a" fill-rule="evenodd" stroke="none"/>
    <path d="M3.65 -135.9 Q5.95 -135.75 8.1 -134.35 6.4 -133.65 4.8 -130.7 2.1 -127.4 -0.2 -121.15 -4.15 -110.3 -8.6 -104.8 -12.8 -101.7 -15.0 -103.5 -17.6 -105.6 -12.45 -115.7 -7.85 -124.8 -6.15 -131.85 L-5.2 -132.6 -5.2 -132.65 -5.1 -132.65 Q-2.7 -134.7 -0.15 -135.5 L2.85 -135.65 2.95 -135.65 3.3 -135.7 3.65 -135.9 M14.3 -126.3 L14.4 -126.25 Q15.45 -125.65 16.65 -124.25 18.7 -120.45 20.8 -115.45 24.1 -107.3 27.3 -97.55 L27.4 -97.3 Q15.15 -88.5 9.35 -102.65 3.45 -117.0 14.3 -126.3" fill="#ffd5aa" fill-rule="evenodd" stroke="none"/>
    <path d="M3.8 -107.9 Q4.15 -102.1 6.9 -97.5 L8.4 -95.25 Q13.1 -89.2 19.85 -88.7 L21.1 -88.65 Q26.25 -88.65 28.95 -92.4 L29.3 -92.9 34.1 -76.8 38.65 -60.25 Q40.75 -51.8 42.65 -36.75 L43.0 -33.95 43.15 -32.65 43.15 -32.35 43.4 -32.1 43.6 -31.5 43.6 -31.45 Q43.4 -30.65 41.9 -29.8 L41.9 -29.85 Q40.25 -29.0 37.45 -28.2 L36.0 -27.85 34.25 -27.45 33.7 -27.35 33.3 -27.25 Q24.2 -25.5 11.9 -25.25 L9.85 -25.25 8.45 -25.25 -4.15 -25.65 -6.8 -25.9 -16.7 -27.35 -18.95 -27.85 -21.55 -28.6 -23.8 -29.4 -25.55 -30.5 -26.25 -31.5 -26.05 -31.95 -26.0 -32.05 -25.85 -32.15 -25.75 -32.35 -25.45 -33.05 Q-21.65 -42.05 -20.15 -49.95 L-19.5 -54.35 -19.35 -56.35 -18.4 -58.2 -17.35 -61.15 Q-11.45 -56.75 -4.55 -54.3 L-1.95 -53.3 -1.8 -53.55 -3.4 -55.95 -12.35 -69.9 -12.1 -70.2 -14.2 -70.65 Q-11.9 -74.3 -9.0 -76.35 L-17.5 -75.45 -18.55 -75.35 -18.6 -76.4 -19.3 -88.5 Q-21.95 -82.2 -23.85 -76.75 L-23.95 -76.55 -25.2 -78.9 Q-27.05 -80.4 -29.85 -81.25 L-30.0 -81.8 -30.0 -81.7 Q-30.25 -83.35 -30.0 -85.15 L-29.2 -88.8 -29.15 -88.95 -29.05 -89.45 -29.0 -89.5 -29.0 -89.55 -27.6 -94.1 -27.7 -93.35 Q-28.4 -85.6 -25.2 -78.9 -22.85 -85.45 -19.4 -93.2 L-18.2 -95.95 -17.65 -95.85 -17.5 -92.9 -16.65 -77.65 -2.3 -78.95 -2.25 -78.95 0.7 -79.1 0.85 -77.4 -2.1 -76.85 Q-8.15 -76.0 -12.1 -70.2 L-4.75 -69.65 Q-2.5 -69.65 -0.25 -68.3 7.95 -63.5 5.3 -59.1 2.7 -54.7 -2.15 -51.3 -6.85 -48.05 -18.3 -47.0 L-19.0 -46.95 -18.35 -46.7 Q-3.6 -42.95 11.95 -43.0 L12.25 -42.9 Q-0.1 -41.1 -12.5 -37.8 L-18.65 -36.05 -20.85 -35.4 -21.55 -35.1 -22.35 -34.4 -23.0 -33.3 -21.35 -32.6 Q-18.45 -31.5 -15.4 -30.75 L-7.8 -29.3 -0.55 -28.9 Q7.9 -28.15 16.3 -28.9 24.85 -29.1 27.65 -35.1 L28.4 -37.15 28.55 -37.8 28.9 -40.15 Q29.6 -47.7 25.0 -51.05 23.5 -52.2 21.4 -52.4 17.35 -51.9 14.05 -53.55 19.45 -61.45 22.25 -70.3 22.6 -71.45 22.15 -72.55 18.65 -82.65 7.35 -84.0 3.15 -84.2 1.8 -87.95 -0.8 -95.15 1.7 -102.75 2.6 -105.35 3.8 -107.9" fill="#922e60" fill-rule="evenodd" stroke="none"/>
    <path d="M45.4 -32.6 Q47.1 -31.4 46.95 -29.95 L46.95 -29.85 46.95 -29.6 46.7 -22.35 Q46.7 -21.3 45.8 -20.35 45.0 -19.55 43.6 -18.85 41.4 -17.8 37.7 -16.9 L38.05 -19.1 41.95 -20.25 42.9 -20.65 43.3 -20.9 Q44.6 -21.6 44.7 -22.35 L44.85 -26.9 44.4 -26.65 42.3 -25.75 40.5 -25.15 38.05 -24.55 37.85 -26.15 Q40.95 -27.0 42.75 -27.95 L42.8 -27.95 Q45.7 -29.55 45.6 -31.5 L45.4 -32.6 M-27.25 -20.2 Q-28.25 -21.2 -28.1 -22.35 L-27.85 -29.6 -27.85 -29.85 -27.85 -29.9 Q-27.05 -28.6 -24.7 -27.5 L-23.15 -26.85 -23.75 -25.85 -25.4 -26.6 -25.95 -26.9 -26.1 -22.35 Q-26.05 -21.75 -25.15 -21.2 L-24.65 -20.9 Q-24.5 -19.45 -23.8 -18.15 L-25.35 -18.85 Q-26.6 -19.5 -27.25 -20.2 M16.0 -21.95 L15.8 -23.3 Q25.8 -23.65 33.6 -25.2 L33.7 -23.65 33.4 -23.6 30.3 -23.15 16.0 -21.95 M15.55 -14.35 L15.95 -16.45 Q25.75 -16.8 33.5 -18.15 L33.15 -16.0 Q25.4 -14.65 15.55 -14.35 M10.3 -23.15 L10.5 -21.8 9.25 -21.8 -3.25 -22.25 -3.4 -23.5 8.35 -23.15 10.3 -23.15 M10.45 -16.3 L10.0 -14.2 8.95 -14.2 -6.65 -14.9 Q-5.55 -15.75 -4.8 -16.85 L9.05 -16.3 10.45 -16.3" fill="#333333" fill-rule="evenodd" stroke="none"/>
    <path d="M45.8 -20.35 Q46.75 -14.15 46.45 -7.15 45.45 14.05 34.1 25.05 22.75 36.0 6.45 35.8 -9.95 35.55 -19.75 22.95 -29.45 10.35 -28.75 -8.65 -28.5 -14.7 -27.25 -20.2 -26.6 -19.5 -25.35 -18.85 L-25.85 -18.25 -26.0 -17.3 -25.85 -16.9 -25.8 -16.55 -26.0 -16.15 -26.2 -16.1 Q-26.8 -12.65 -27.0 -9.0 -27.85 9.05 -18.15 21.55 L-18.2 21.55 Q-9.0 33.45 5.0 34.2 10.45 34.45 15.55 33.05 L17.35 31.65 17.7 31.55 18.05 31.75 18.1 32.1 18.1 32.15 Q24.6 29.65 30.45 24.25 42.05 13.5 43.7 -7.0 44.05 -11.3 43.85 -15.2 L41.2 -13.6 40.85 -13.55 40.55 -13.85 40.55 -14.2 40.85 -14.55 43.35 -16.05 Q43.45 -16.2 43.7 -16.2 L43.85 -16.15 43.6 -18.85 Q45.0 -19.55 45.8 -20.35 M37.85 -26.15 L38.05 -24.55 Q38.3 -21.9 38.05 -19.1 L37.7 -16.9 37.35 -15.15 37.25 -14.65 36.25 -14.85 36.3 -15.0 36.35 -15.4 36.65 -16.7 37.0 -18.85 Q37.3 -21.65 37.05 -24.3 L36.85 -25.9 37.85 -26.15 M16.0 -21.95 Q16.3 -19.15 15.95 -16.45 L15.55 -14.35 15.0 -12.25 14.85 -11.7 13.9 -12.0 14.0 -12.4 14.05 -12.55 14.55 -14.3 14.95 -16.35 Q15.35 -19.15 15.0 -21.9 L14.75 -23.25 15.8 -23.3 16.0 -21.95 M33.5 -18.15 Q33.8 -20.85 33.7 -23.65 L33.6 -25.2 34.05 -25.3 34.55 -25.4 34.7 -23.8 Q34.85 -21.05 34.55 -18.35 L34.2 -16.15 33.65 -13.9 33.55 -13.55 33.4 -13.05 32.45 -13.35 32.6 -13.8 33.15 -16.0 33.5 -18.15 M11.3 -23.15 L11.5 -21.8 Q11.8 -19.1 11.45 -16.3 L11.05 -14.2 10.55 -12.4 10.5 -12.25 10.35 -11.7 9.4 -12.0 9.55 -12.55 10.0 -14.2 10.45 -16.3 Q10.85 -19.1 10.5 -21.8 L10.3 -23.15 11.3 -23.15 M9.4 -9.35 L9.5 -9.0 9.35 -8.6 Q9.2 -8.45 9.0 -8.45 L6.05 -8.5 Q5.8 -8.5 5.7 -8.65 L5.55 -9.05 5.75 -9.4 6.15 -9.55 9.05 -9.5 9.4 -9.35 M11.45 -8.6 Q11.3 -8.75 11.3 -9.0 L11.5 -9.35 Q11.65 -9.5 11.85 -9.5 L14.85 -9.55 15.2 -9.4 15.3 -9.05 15.2 -8.65 Q15.05 -8.5 14.85 -8.5 L11.8 -8.45 11.45 -8.6 M17.8 -8.65 L17.4 -8.75 17.3 -9.15 Q17.3 -9.4 17.45 -9.55 17.55 -9.7 17.8 -9.7 L20.85 -9.85 21.2 -9.7 21.35 -9.35 21.2 -9.0 20.85 -8.85 17.8 -8.65 M3.6 -9.15 L3.4 -8.75 3.05 -8.65 0.0 -8.85 Q-0.25 -8.85 -0.35 -9.0 L-0.45 -9.35 -0.25 -9.7 0.1 -9.85 3.15 -9.7 3.5 -9.55 3.6 -9.15 M39.25 -17.15 L39.6 -17.35 39.95 -17.25 40.1 -16.9 40.4 -13.75 40.3 -13.35 Q40.15 -13.2 39.95 -13.2 L39.6 -13.3 39.4 -13.65 39.1 -16.75 39.25 -17.15 M39.75 -4.75 L40.1 -4.55 40.2 -4.15 39.7 -0.95 39.5 -0.65 39.15 -0.55 38.8 -0.75 Q38.65 -0.9 38.75 -1.1 L39.2 -4.2 39.4 -4.6 39.75 -4.75 M39.75 -10.85 Q39.85 -11.05 40.1 -11.05 L40.45 -10.85 40.6 -10.5 40.45 -7.3 40.3 -6.95 39.95 -6.85 Q39.7 -6.85 39.6 -7.0 L39.45 -7.35 39.6 -10.45 39.75 -10.85 M38.8 -13.05 L38.7 -12.7 38.45 -12.4 35.55 -11.45 35.15 -11.5 Q35.0 -11.6 35.0 -11.8 L35.05 -12.25 35.3 -12.45 38.15 -13.4 38.5 -13.4 38.8 -13.05 M27.25 -10.5 L27.4 -10.15 27.3 -9.75 27.0 -9.55 24.0 -9.15 23.6 -9.25 23.4 -9.55 23.5 -10.0 Q23.6 -10.15 23.85 -10.2 L26.9 -10.6 27.25 -10.5 M29.45 -10.55 L29.55 -10.95 Q29.65 -11.15 29.9 -11.2 L32.85 -11.8 33.2 -11.75 33.4 -11.45 33.35 -11.1 33.05 -10.8 30.0 -10.15 29.6 -10.25 Q29.45 -10.35 29.45 -10.55 M19.5 30.05 L19.7 29.75 22.05 27.7 Q22.15 27.55 22.4 27.55 L22.75 27.75 22.8 28.1 22.65 28.5 20.35 30.55 19.95 30.65 Q19.75 30.65 19.65 30.5 L19.5 30.05 M33.9 13.2 L34.3 13.2 34.55 13.5 34.45 13.9 32.85 16.65 32.5 16.85 32.15 16.8 31.9 16.45 32.05 16.05 33.6 13.45 33.9 13.2 M27.05 23.35 L27.2 23.7 27.05 24.1 24.9 26.3 24.55 26.45 24.2 26.3 24.05 25.9 24.2 25.55 26.35 23.35 Q26.5 23.2 26.7 23.2 L27.05 23.35 M30.25 18.6 Q30.35 18.45 30.6 18.4 L30.95 18.5 31.1 18.85 31.0 19.2 29.1 21.75 28.75 21.9 28.4 21.8 28.25 21.4 28.4 21.05 30.25 18.6 M34.95 11.1 Q34.85 10.9 35.0 10.65 L36.25 7.85 36.5 7.55 Q36.7 7.4 36.9 7.55 L37.15 7.8 37.15 8.2 35.85 11.1 35.6 11.4 35.2 11.35 34.95 11.1 M38.15 1.9 L38.35 1.6 38.8 1.55 39.05 1.75 39.1 2.2 38.2 5.2 37.95 5.55 37.5 5.6 37.25 5.35 37.25 4.9 38.15 1.9 M-24.0 -15.05 L-23.6 -15.05 -20.9 -13.8 -20.65 -13.55 -20.6 -13.1 -20.95 -12.85 -21.3 -12.8 -24.1 -14.1 Q-24.3 -14.2 -24.3 -14.45 L-24.3 -14.8 -24.0 -15.05 M-18.5 -12.15 L-18.55 -12.5 -18.35 -12.8 -17.95 -12.85 -16.05 -12.35 -14.95 -12.0 -14.65 -11.8 -14.65 -11.4 -14.9 -11.1 -15.25 -11.05 -16.35 -11.35 -18.2 -11.85 -18.5 -12.15 M-2.95 -10.15 Q-2.75 -10.15 -2.6 -9.95 L-2.5 -9.55 -2.65 -9.2 -3.05 -9.1 -6.1 -9.4 Q-6.3 -9.4 -6.4 -9.55 L-6.55 -10.0 -6.35 -10.3 -5.95 -10.45 -2.95 -10.15 M-12.6 -10.9 L-12.4 -11.3 -12.0 -11.4 -8.95 -10.85 -8.65 -10.65 -8.6 -10.25 -8.8 -9.95 Q-8.95 -9.75 -9.15 -9.8 L-12.2 -10.35 -12.5 -10.55 -12.6 -10.9" fill="#2c6559" fill-rule="evenodd" stroke="none"/>
    <path d="M38.05 -24.55 L40.5 -25.15 42.3 -25.75 44.4 -26.65 44.85 -26.9 44.7 -22.35 Q44.6 -21.6 43.3 -20.9 L42.9 -20.65 41.95 -20.25 38.05 -19.1 Q38.3 -21.9 38.05 -24.55 M15.95 -16.45 Q16.3 -19.15 16.0 -21.95 L30.3 -23.15 33.4 -23.6 33.7 -23.65 Q33.8 -20.85 33.5 -18.15 25.75 -16.8 15.95 -16.45 M-23.75 -25.85 L-24.6 -23.2 -24.6 -23.15 -24.65 -20.9 -25.15 -21.2 Q-26.05 -21.75 -26.1 -22.35 L-25.95 -26.9 -25.4 -26.6 -23.75 -25.85" fill="#bbbbbb" fill-rule="evenodd" stroke="none"/>
    <path d="M14.75 -23.25 L15.0 -21.9 Q15.35 -19.15 14.95 -16.35 L14.55 -14.3 14.05 -12.55 14.0 -12.4 10.55 -12.4 11.05 -14.2 11.45 -16.3 Q11.8 -19.1 11.5 -21.8 L11.3 -23.15 14.75 -23.25 M34.55 -25.4 L36.85 -25.9 37.05 -24.3 Q37.3 -21.65 37.0 -18.85 L36.65 -16.7 36.35 -15.4 36.3 -15.0 33.65 -13.9 34.2 -16.15 34.55 -18.35 Q34.85 -21.05 34.7 -23.8 L34.55 -25.4 M14.45 -2.25 Q36.2 -0.9 27.0 2.6 15.6 8.0 11.15 7.1 35.45 17.95 11.75 19.8 -12.85 21.65 -20.45 5.25 -28.15 -11.15 -11.15 -9.5 L21.9 -7.8 Q37.8 -7.6 14.45 -2.25" fill="#a0d6cb" fill-rule="evenodd" stroke="none"/>
    <path d="M10.5 -21.8 Q10.85 -19.1 10.45 -16.3 L9.05 -16.3 -4.8 -16.85 Q-3.65 -18.45 -3.35 -20.5 L-3.35 -20.55 -3.25 -22.25 9.25 -21.8 10.5 -21.8" fill="#ffffff" fill-rule="evenodd" stroke="none"/>
    <path d="M37.7 -16.9 Q41.4 -17.8 43.6 -18.85 L43.85 -16.15 43.7 -16.2 Q43.45 -16.2 43.35 -16.05 L40.85 -14.55 40.55 -14.2 40.55 -13.85 40.85 -13.55 41.2 -13.6 43.85 -15.2 Q44.05 -11.3 43.7 -7.0 42.05 13.5 30.45 24.25 24.6 29.65 18.1 32.15 L18.1 32.1 18.05 31.75 17.7 31.55 17.35 31.65 15.55 33.05 Q10.45 34.45 5.0 34.2 -9.0 33.45 -18.2 21.55 L-18.15 21.55 Q-27.85 9.05 -27.0 -9.0 -26.8 -12.65 -26.2 -16.1 L-26.0 -16.15 -25.8 -16.55 -25.85 -16.9 -26.0 -17.3 -25.85 -18.25 -25.35 -18.85 -23.8 -18.15 -22.9 -16.8 Q-20.75 -14.0 -17.1 -13.55 L-13.3 -13.05 Q-9.8 -12.6 -6.8 -14.8 L-6.65 -14.9 8.95 -14.2 10.0 -14.2 9.55 -12.55 9.4 -12.0 10.35 -11.7 10.5 -12.25 10.55 -12.4 14.0 -12.4 13.9 -12.0 14.85 -11.7 15.0 -12.25 15.55 -14.35 Q25.4 -14.65 33.15 -16.0 L32.6 -13.8 32.45 -13.35 33.4 -13.05 33.55 -13.55 33.65 -13.9 36.3 -15.0 36.25 -14.85 37.25 -14.65 37.35 -15.15 37.7 -16.9 M11.45 -8.6 L11.8 -8.45 14.85 -8.5 Q15.05 -8.5 15.2 -8.65 L15.3 -9.05 15.2 -9.4 14.85 -9.55 11.85 -9.5 Q11.65 -9.5 11.5 -9.35 L11.3 -9.0 Q11.3 -8.75 11.45 -8.6 M9.4 -9.35 L9.05 -9.5 6.15 -9.55 5.75 -9.4 5.55 -9.05 5.7 -8.65 Q5.8 -8.5 6.05 -8.5 L9.0 -8.45 Q9.2 -8.45 9.35 -8.6 L9.5 -9.0 9.4 -9.35 M3.6 -9.15 L3.5 -9.55 3.15 -9.7 0.1 -9.85 -0.25 -9.7 -0.45 -9.35 -0.35 -9.0 Q-0.25 -8.85 0.0 -8.85 L3.05 -8.65 3.4 -8.75 3.6 -9.15 M17.8 -8.65 L20.85 -8.85 21.2 -9.0 21.35 -9.35 21.2 -9.7 20.85 -9.85 17.8 -9.7 Q17.55 -9.7 17.45 -9.55 17.3 -9.4 17.3 -9.15 L17.4 -8.75 17.8 -8.65 M39.25 -17.15 L39.1 -16.75 39.4 -13.65 39.6 -13.3 39.95 -13.2 Q40.15 -13.2 40.3 -13.35 L40.4 -13.75 40.1 -16.9 39.95 -17.25 39.6 -17.35 39.25 -17.15 M29.45 -10.55 Q29.45 -10.35 29.6 -10.25 L30.0 -10.15 33.05 -10.8 33.35 -11.1 33.4 -11.45 33.2 -11.75 32.85 -11.8 29.9 -11.2 Q29.65 -11.15 29.55 -10.95 L29.45 -10.55 M27.25 -10.5 L26.9 -10.6 23.85 -10.2 Q23.6 -10.15 23.5 -10.0 L23.4 -9.55 23.6 -9.25 24.0 -9.15 27.0 -9.55 27.3 -9.75 27.4 -10.15 27.25 -10.5 M38.8 -13.05 L38.5 -13.4 38.15 -13.4 35.3 -12.45 35.05 -12.25 35.0 -11.8 Q35.0 -11.6 35.15 -11.5 L35.55 -11.45 38.45 -12.4 38.7 -12.7 38.8 -13.05 M39.75 -10.85 L39.6 -10.45 39.45 -7.35 39.6 -7.0 Q39.7 -6.85 39.95 -6.85 L40.3 -6.95 40.45 -7.3 40.6 -10.5 40.45 -10.85 40.1 -11.05 Q39.85 -11.05 39.75 -10.85 M39.75 -4.75 L39.4 -4.6 39.2 -4.2 38.75 -1.1 Q38.65 -0.9 38.8 -0.75 L39.15 -0.55 39.5 -0.65 39.7 -0.95 40.2 -4.15 40.1 -4.55 39.75 -4.75 M14.45 -2.25 Q37.8 -7.6 21.9 -7.8 L-11.15 -9.5 Q-28.15 -11.15 -20.45 5.25 -12.85 21.65 11.75 19.8 35.45 17.95 11.15 7.1 15.6 8.0 27.0 2.6 36.2 -0.9 14.45 -2.25 M38.15 1.9 L37.25 4.9 37.25 5.35 37.5 5.6 37.95 5.55 38.2 5.2 39.1 2.2 39.05 1.75 38.8 1.55 38.35 1.6 38.15 1.9 M34.95 11.1 L35.2 11.35 35.6 11.4 35.85 11.1 37.15 8.2 37.15 7.8 36.9 7.55 Q36.7 7.4 36.5 7.55 L36.25 7.85 35.0 10.65 Q34.85 10.9 34.95 11.1 M30.25 18.6 L28.4 21.05 28.25 21.4 28.4 21.8 28.75 21.9 29.1 21.75 31.0 19.2 31.1 18.85 30.95 18.5 30.6 18.4 Q30.35 18.45 30.25 18.6 M27.05 23.35 L26.7 23.2 Q26.5 23.2 26.35 23.35 L24.2 25.55 24.05 25.9 24.2 26.3 24.55 26.45 24.9 26.3 27.05 24.1 27.2 23.7 27.05 23.35 M33.9 13.2 L33.6 13.45 32.05 16.05 31.9 16.45 32.15 16.8 32.5 16.85 32.85 16.65 34.45 13.9 34.55 13.5 34.3 13.2 33.9 13.2 M19.5 30.05 L19.65 30.5 Q19.75 30.65 19.95 30.65 L20.35 30.55 22.65 28.5 22.8 28.1 22.75 27.75 22.4 27.55 Q22.15 27.55 22.05 27.7 L19.7 29.75 19.5 30.05 M-24.0 -15.05 L-24.3 -14.8 -24.3 -14.45 Q-24.3 -14.2 -24.1 -14.1 L-21.3 -12.8 -20.95 -12.85 -20.6 -13.1 -20.65 -13.55 -20.9 -13.8 -23.6 -15.05 -24.0 -15.05 M-18.5 -12.15 L-18.2 -11.85 -16.35 -11.35 -15.25 -11.05 -14.9 -11.1 -14.65 -11.4 -14.65 -11.8 -14.95 -12.0 -16.05 -12.35 -17.95 -12.85 -18.35 -12.8 -18.55 -12.5 -18.5 -12.15 M-12.6 -10.9 L-12.5 -10.55 -12.2 -10.35 -9.15 -9.8 Q-8.95 -9.75 -8.8 -9.95 L-8.6 -10.25 -8.65 -10.65 -8.95 -10.85 -12.0 -11.4 -12.4 -11.3 -12.6 -10.9 M-2.95 -10.15 L-5.95 -10.45 -6.35 -10.3 -6.55 -10.0 -6.4 -9.55 Q-6.3 -9.4 -6.1 -9.4 L-3.05 -9.1 -2.65 -9.2 -2.5 -9.55 -2.6 -9.95 Q-2.75 -10.15 -2.95 -10.15" fill="#7bc6b7" fill-rule="evenodd" stroke="none"/>
    <path d="M-23.95 -76.55 L-23.85 -76.75 Q-21.95 -82.2 -19.3 -88.5 L-18.6 -76.4 -18.55 -75.35 -17.5 -75.45 -9.0 -76.35 Q-11.9 -74.3 -14.2 -70.65 -18.0 -71.75 -21.55 -73.95 -23.0 -74.95 -23.9 -76.45 L-23.95 -76.55 M-22.6 -23.0 Q-22.4 -24.25 -21.8 -25.25 L-21.1 -26.25 -17.15 -25.3 -5.5 -23.65 -5.25 -22.4 -5.35 -20.85 -5.35 -20.8 Q-5.65 -18.55 -7.2 -17.05 L-7.95 -16.5 -7.9 -16.5 Q-9.1 -15.65 -10.35 -15.25 L-13.0 -15.15 -16.8 -15.65 Q-18.85 -15.9 -20.25 -17.05 L-21.35 -18.15 -22.3 -19.9 Q-22.85 -21.3 -22.6 -22.85 L-22.6 -23.0" fill="#cd5f96" fill-rule="evenodd" stroke="none"/>
    <path d="M-19.35 -56.35 L-19.3 -61.6 -19.0 -62.6 -18.9 -63.05 -18.55 -64.6 -17.3 -63.7 Q-12.45 -59.85 -6.9 -57.45 L-14.35 -69.25 -14.75 -69.85 -14.35 -70.4 -14.2 -70.65 -12.1 -70.2 -12.35 -69.9 -3.4 -55.95 -1.8 -53.55 -1.95 -53.3 -4.55 -54.3 Q-11.45 -56.75 -17.35 -61.15 L-18.4 -58.2 -19.35 -56.35 M-23.75 -72.0 L-25.65 -73.5 -26.3 -74.15 -26.6 -74.45 -26.65 -74.45 -28.3 -76.7 -28.3 -76.8 -28.35 -76.8 -28.35 -76.75 -28.35 -76.8 -28.4 -76.85 -28.7 -77.4 -28.7 -77.45 -28.9 -77.8 -29.0 -78.0 -29.05 -78.05 -29.05 -78.15 -29.2 -78.55 -29.15 -78.45 -29.85 -81.25 Q-27.05 -80.4 -25.2 -78.9 L-23.95 -76.55 -24.45 -75.15 -25.55 -76.35 -27.75 -78.1 Q-26.0 -75.75 -23.75 -72.0" fill="#73244b" fill-rule="evenodd" stroke="none"/>
    <path d="M-19.3 -61.6 L-19.5 -63.95 -20.4 -69.0 -20.7 -70.1 -21.05 -70.3 -22.25 -70.95 -22.2 -70.9 -22.5 -71.1 -22.55 -71.15 -23.75 -72.0 Q-26.0 -75.75 -27.75 -78.1 L-25.55 -76.35 -24.45 -75.15 -23.95 -76.55 -23.9 -76.45 Q-23.0 -74.95 -21.55 -73.95 -18.0 -71.75 -14.2 -70.65 L-14.35 -70.4 -14.75 -69.85 -14.35 -69.25 -6.9 -57.45 Q-12.45 -59.85 -17.3 -63.7 L-18.55 -64.6 -18.9 -63.05 -19.0 -62.6 -19.3 -61.6" fill="#c64686" fill-rule="evenodd" stroke="none"/>
  </g>
</svg>
