<?xml version="1.0" encoding="UTF-8" standalone="no"?>
<svg xmlns:ffdec="https://www.free-decompiler.com/flash" xmlns:xlink="http://www.w3.org/1999/xlink" ffdec:objectType="shape" height="20.55px" width="33.75px" xmlns="http://www.w3.org/2000/svg">
  <g transform="matrix(1.0, 0.0, 0.0, 1.0, 25.55, 0.95)">
    <path d="M5.85 2.0 Q8.15 4.95 8.2 9.1 L8.2 9.2 Q8.2 13.4 5.85 16.35 3.5 19.35 0.2 19.35 -3.1 19.35 -5.45 16.35 -7.8 13.4 -7.8 9.2 L-7.8 9.1 Q-7.75 4.95 -5.45 2.0 -3.1 -0.95 0.2 -0.95 3.5 -0.95 5.85 2.0 M-11.9 2.25 Q-9.6 5.2 -9.55 9.35 L-9.55 9.45 Q-9.55 13.65 -11.9 16.6 -14.25 19.6 -17.55 19.6 -20.85 19.6 -23.2 16.6 -25.55 13.65 -25.55 9.45 L-25.55 9.35 Q-25.5 5.2 -23.2 2.25 -20.85 -0.7 -17.55 -0.7 -14.25 -0.7 -11.9 2.25" fill="#91edda" fill-rule="evenodd" stroke="none"/>
    <path d="M-0.85 2.95 Q1.1 2.95 2.45 5.0 3.85 7.05 3.85 9.95 3.85 12.85 2.45 14.9 1.1 16.95 -0.85 16.95 -2.75 16.95 -4.15 14.9 -5.5 12.85 -5.5 9.95 -5.5 8.35 -5.1 7.0 L-4.15 5.0 -3.15 3.85 Q-2.1 2.95 -0.85 2.95 M-18.4 5.65 Q-17.5 4.85 -16.35 4.85 -14.7 4.85 -13.55 6.65 -12.35 8.4 -12.3 10.95 -12.35 13.45 -13.55 15.2 -14.7 17.0 -16.35 17.0 -18.05 17.0 -19.25 15.2 -20.45 13.45 -20.45 10.95 -20.45 9.5 -20.05 8.35 L-19.25 6.65 -18.4 5.65" fill="#ffdfbf" fill-rule="evenodd" stroke="none"/>
    <path d="M-0.85 2.95 Q1.1 2.95 2.45 5.0 3.85 7.05 3.85 9.95 3.85 12.85 2.45 14.9 1.1 16.95 -0.85 16.95 -2.75 16.95 -4.15 14.9 -5.5 12.85 -5.5 9.95 -5.5 8.35 -5.1 7.0 L-4.15 5.0 -3.15 3.85 Q-2.1 2.95 -0.85 2.95 M-18.4 5.65 Q-17.5 4.85 -16.35 4.85 -14.7 4.85 -13.55 6.65 -12.35 8.4 -12.3 10.95 -12.35 13.45 -13.55 15.2 -14.7 17.0 -16.35 17.0 -18.05 17.0 -19.25 15.2 -20.45 13.45 -20.45 10.95 -20.45 9.5 -20.05 8.35 L-19.25 6.65 -18.4 5.65 Z" fill="none" stroke="#000000" stroke-linecap="round" stroke-linejoin="round" stroke-width="3.5"/>
  </g>
</svg>
