<?xml version="1.0" encoding="UTF-8" standalone="no"?>
<svg xmlns:ffdec="https://www.free-decompiler.com/flash" xmlns:xlink="http://www.w3.org/1999/xlink" ffdec:objectType="shape" height="15.6px" width="31.2px" xmlns="http://www.w3.org/2000/svg">
  <g transform="matrix(1.0, 0.0, 0.0, 1.0, 24.25, -2.25)">
    <path d="M-11.7 4.7 Q-9.55 6.9 -9.5 9.95 L-9.5 10.0 Q-9.55 13.15 -11.7 15.35 -13.85 17.55 -16.9 17.55 -19.95 17.55 -22.1 15.35 -24.3 13.15 -24.25 10.0 L-24.25 9.95 Q-24.25 6.9 -22.1 4.7 -19.95 2.5 -16.9 2.5 -13.85 2.5 -11.7 4.7 M-0.45 2.25 Q2.6 2.25 4.8 4.55 6.9 6.8 6.95 10.0 L6.95 10.05 Q6.95 13.3 4.8 15.55 2.6 17.85 -0.45 17.85 -3.5 17.85 -5.65 15.55 -7.8 13.3 -7.8 10.05 L-7.8 10.0 Q-7.8 6.8 -5.65 4.55 -3.5 2.25 -0.45 2.25" fill="#91edda" fill-rule="evenodd" stroke="none"/>
    <path d="M2.45 14.15 Q1.1 15.4 -0.85 15.4 -2.75 15.4 -4.15 14.15 -5.5 12.85 -5.5 11.05 -5.5 10.0 -5.1 9.2 -4.8 8.5 -4.15 7.95 L-3.15 7.2 Q-2.1 6.65 -0.85 6.65 1.1 6.65 2.45 7.95 3.85 9.2 3.85 11.05 3.85 12.85 2.45 14.15 M-12.3 11.65 Q-12.35 13.2 -13.55 14.35 -14.7 15.45 -16.35 15.45 -18.05 15.45 -19.25 14.35 -20.45 13.2 -20.45 11.65 -20.45 10.8 -20.05 10.05 L-19.25 8.95 -18.4 8.35 Q-17.5 7.85 -16.35 7.85 -14.7 7.85 -13.55 8.95 -12.35 10.05 -12.3 11.65" fill="#ffdfbf" fill-rule="evenodd" stroke="none"/>
    <path d="M2.45 14.15 Q1.1 15.4 -0.85 15.4 -2.75 15.4 -4.15 14.15 -5.5 12.85 -5.5 11.05 -5.5 10.0 -5.1 9.2 -4.8 8.5 -4.15 7.95 L-3.15 7.2 Q-2.1 6.65 -0.85 6.65 1.1 6.65 2.45 7.95 3.85 9.2 3.85 11.05 3.85 12.85 2.45 14.15 M-12.3 11.65 Q-12.35 13.2 -13.55 14.35 -14.7 15.45 -16.35 15.45 -18.05 15.45 -19.25 14.35 -20.45 13.2 -20.45 11.65 -20.45 10.8 -20.05 10.05 L-19.25 8.95 -18.4 8.35 Q-17.5 7.85 -16.35 7.85 -14.7 7.85 -13.55 8.95 -12.35 10.05 -12.3 11.65 Z" fill="none" stroke="#000000" stroke-linecap="round" stroke-linejoin="round" stroke-width="3.5"/>
  </g>
</svg>
