<?xml version="1.0" encoding="UTF-8" standalone="no"?>
<svg xmlns:ffdec="https://www.free-decompiler.com/flash" xmlns:xlink="http://www.w3.org/1999/xlink" ffdec:objectType="shape" height="12.05px" width="31.2px" xmlns="http://www.w3.org/2000/svg">
  <g transform="matrix(1.0, 0.0, 0.0, 1.0, 24.25, -2.3)">
    <path d="M-0.45 2.3 Q2.6 2.3 4.8 4.0 6.9 5.7 6.95 8.15 L6.95 8.2 Q6.95 10.65 4.8 12.4 2.6 14.1 -0.45 14.15 -3.5 14.1 -5.65 12.4 -7.8 10.65 -7.8 8.2 L-7.8 8.15 Q-7.8 5.7 -5.65 4.0 -3.5 2.3 -0.45 2.3 M-11.7 4.25 Q-9.55 5.95 -9.5 8.35 L-9.5 8.4 Q-9.55 10.85 -11.7 12.6 -13.85 14.3 -16.9 14.35 -19.95 14.3 -22.1 12.6 -24.3 10.85 -24.25 8.4 L-24.25 8.35 Q-24.25 5.95 -22.1 4.25 -19.95 2.5 -16.9 2.5 -13.85 2.5 -11.7 4.25" fill="#91edda" fill-rule="evenodd" stroke="none"/>
    <path d="M-12.3 11.35 L-20.55 11.6" fill="none" stroke="#333333" stroke-linecap="round" stroke-linejoin="round" stroke-width="2.0"/>
    <path d="M4.95 10.35 L-5.8 11.1" fill="none" stroke="#333333" stroke-linecap="round" stroke-linejoin="round" stroke-width="2.0"/>
  </g>
</svg>
