<?xml version="1.0" encoding="UTF-8" standalone="no"?>
<svg xmlns:ffdec="https://www.free-decompiler.com/flash" xmlns:xlink="http://www.w3.org/1999/xlink" ffdec:objectType="shape" height="22.55px" width="34.75px" xmlns="http://www.w3.org/2000/svg">
  <g transform="matrix(1.0, 0.0, 0.0, 1.0, 26.0, 2.95)">
    <path d="M6.3 0.3 Q8.7 3.55 8.75 8.1 L8.75 8.2 Q8.7 12.8 6.3 16.05 3.9 19.3 0.5 19.3 -2.95 19.3 -5.35 16.05 -7.75 12.8 -7.75 8.2 L-7.75 8.1 Q-7.75 3.55 -5.35 0.3 -2.95 -2.95 0.5 -2.95 3.9 -2.95 6.3 0.3 M-11.95 0.55 Q-9.55 3.8 -9.5 8.35 L-9.5 8.45 Q-9.55 13.05 -11.95 16.3 -14.35 19.6 -17.75 19.6 -21.2 19.6 -23.6 16.3 -26.0 13.05 -26.0 8.45 L-26.0 8.35 Q-26.0 3.8 -23.6 0.55 -21.2 -2.7 -17.75 -2.7 -14.35 -2.7 -11.95 0.55" fill="#91edda" fill-rule="evenodd" stroke="none"/>
    <path d="M-17.5 2.95 Q-15.6 2.95 -14.25 5.0 -12.85 7.05 -12.8 10.0 -12.85 12.9 -14.25 14.9 -15.6 16.95 -17.5 17.0 -19.45 16.95 -20.85 14.9 -22.2 12.9 -22.2 10.0 -22.2 8.35 -21.75 7.0 L-20.85 5.0 -19.85 3.85 Q-18.8 2.95 -17.5 2.95 M-3.25 1.8 Q-2.05 0.75 -0.6 0.75 1.65 0.75 3.2 3.15 4.8 5.5 4.8 8.85 4.8 12.2 3.2 14.55 1.65 16.9 -0.6 16.95 -2.8 16.9 -4.4 14.55 -5.95 12.2 -5.95 8.85 -6.0 7.0 -5.5 5.45 -5.1 4.15 -4.4 3.15 L-3.25 1.8" fill="#ffdfbf" fill-rule="evenodd" stroke="none"/>
    <path d="M-17.5 2.95 Q-15.6 2.95 -14.25 5.0 -12.85 7.05 -12.8 10.0 -12.85 12.9 -14.25 14.9 -15.6 16.95 -17.5 17.0 -19.45 16.95 -20.85 14.9 -22.2 12.9 -22.2 10.0 -22.2 8.35 -21.75 7.0 L-20.85 5.0 -19.85 3.85 Q-18.8 2.95 -17.5 2.95 M-3.25 1.8 Q-2.05 0.75 -0.6 0.75 1.65 0.75 3.2 3.15 4.8 5.5 4.8 8.85 4.8 12.2 3.2 14.55 1.65 16.9 -0.6 16.95 -2.8 16.9 -4.4 14.55 -5.95 12.2 -5.95 8.85 -6.0 7.0 -5.5 5.45 -5.1 4.15 -4.4 3.15 L-3.25 1.8 Z" fill="none" stroke="#000000" stroke-linecap="round" stroke-linejoin="round" stroke-width="3.5"/>
  </g>
</svg>
