<?xml version="1.0" encoding="UTF-8" standalone="no"?>
<svg xmlns:ffdec="https://www.free-decompiler.com/flash" xmlns:xlink="http://www.w3.org/1999/xlink" ffdec:objectType="shape" height="20.55px" width="32.9px" xmlns="http://www.w3.org/2000/svg">
  <g transform="matrix(1.0, 0.0, 0.0, 1.0, 25.55, 0.95)">
    <path d="M-0.05 -0.95 Q2.95 -0.95 3.85 2.0 4.75 4.95 6.25 7.4 7.7 9.8 7.2 12.05 6.7 14.25 5.1 16.8 3.5 19.35 0.2 19.35 -3.1 19.35 -5.45 16.35 -7.8 13.4 -7.8 9.2 L-7.8 9.1 Q-7.75 4.95 -5.45 2.0 -3.1 -0.95 -0.05 -0.95 M-11.9 2.25 Q-9.6 5.2 -9.55 9.35 L-9.55 9.45 Q-9.55 13.65 -11.9 16.6 -14.25 19.6 -17.55 19.6 -20.85 19.6 -23.2 16.6 -25.55 13.65 -25.55 9.45 L-24.8 7.7 Q-24.1 5.95 -21.15 3.25 -18.3 0.6 -16.25 -0.05 -14.25 -0.7 -11.9 2.25" fill="#91edda" fill-rule="evenodd" stroke="none"/>
    <path d="M-13.4 4.3 L-12.95 4.35 -12.75 4.7 -12.5 6.25 Q-12.25 9.1 -12.45 12.2 -12.55 13.85 -13.65 15.15 L-14.95 16.35 Q-16.9 17.65 -18.55 15.95 -19.65 14.95 -20.1 13.25 -20.8 10.75 -19.85 9.35 L-13.4 4.3 M-3.85 4.4 L-3.85 3.75 -3.6 3.8 Q-0.9 5.15 1.25 7.55 L2.1 8.65 3.15 10.65 Q4.0 13.1 2.5 15.2 1.6 16.45 0.1 16.85 -1.95 17.3 -3.35 15.8 -5.15 13.9 -5.45 11.4 -5.85 7.6 -3.85 4.4" fill="#ffdfbf" fill-rule="evenodd" stroke="none"/>
    <path d="M-3.85 4.4 Q-5.85 7.6 -5.45 11.4 -5.15 13.9 -3.35 15.8 -1.95 17.3 0.1 16.85 1.6 16.45 2.5 15.2 4.0 13.1 3.15 10.65 L2.1 8.65 1.25 7.55 Q-0.9 5.15 -3.6 3.8 L-3.85 3.75 -3.85 4.4 M-13.4 4.3 L-19.85 9.35 Q-20.8 10.75 -20.1 13.25 -19.65 14.95 -18.55 15.95 -16.9 17.65 -14.95 16.35 L-13.65 15.15 Q-12.55 13.85 -12.45 12.2 -12.25 9.1 -12.5 6.25 L-12.75 4.7 -12.95 4.35 -13.4 4.3 Z" fill="none" stroke="#000000" stroke-linecap="round" stroke-linejoin="round" stroke-width="3.5"/>
  </g>
</svg>
