<?xml version="1.0" encoding="UTF-8" standalone="no"?>
<svg xmlns:ffdec="https://www.free-decompiler.com/flash" xmlns:xlink="http://www.w3.org/1999/xlink" ffdec:objectType="shape" height="19.9px" width="33.75px" xmlns="http://www.w3.org/2000/svg">
  <g transform="matrix(1.0, 0.0, 0.0, 1.0, 25.55, 0.3)">
    <path d="M5.85 2.0 Q8.15 4.95 8.2 9.1 L8.2 9.2 Q8.2 13.4 5.85 16.35 3.5 19.35 0.2 19.35 -3.1 19.35 -5.45 16.35 -7.8 13.4 -7.8 9.2 L-7.0 8.5 Q-6.2 7.8 -4.15 4.25 -2.2 0.7 0.65 -0.1 3.5 -0.95 5.85 2.0 M-17.95 1.5 Q-15.05 3.65 -12.4 5.0 -9.8 6.4 -9.65 7.9 L-9.55 9.45 Q-9.55 13.65 -11.9 16.6 -14.25 19.6 -17.55 19.6 -20.85 19.6 -23.2 16.6 -25.55 13.65 -25.55 9.45 L-25.55 9.35 Q-25.5 5.2 -23.2 2.25 -20.85 -0.7 -17.95 1.5" fill="#91edda" fill-rule="evenodd" stroke="none"/>
    <path d="M2.8 5.65 Q3.85 7.45 3.85 9.95 3.85 12.85 2.45 14.9 1.1 16.95 -0.85 16.95 -2.75 16.95 -4.15 14.9 -5.3 13.2 -5.45 10.95 L2.8 5.65 M-12.35 10.45 L-12.3 10.95 Q-12.35 13.45 -13.55 15.2 -14.7 17.0 -16.35 17.0 -18.05 17.0 -19.25 15.2 -20.45 13.45 -20.45 10.95 -20.45 9.5 -20.05 8.35 L-19.9 7.9 -12.35 10.45" fill="#ffdfbf" fill-rule="evenodd" stroke="none"/>
    <path d="M2.8 5.65 Q3.85 7.45 3.85 9.95 3.85 12.85 2.45 14.9 1.1 16.95 -0.85 16.95 -2.75 16.95 -4.15 14.9 -5.3 13.2 -5.45 10.95 M-12.35 10.45 L-12.3 10.95 Q-12.35 13.45 -13.55 15.2 -14.7 17.0 -16.35 17.0 -18.05 17.0 -19.25 15.2 -20.45 13.45 -20.45 10.95 -20.45 9.5 -20.05 8.35 L-19.9 7.9" fill="none" stroke="#000000" stroke-linecap="round" stroke-linejoin="round" stroke-width="3.5"/>
    <path d="M-5.45 10.95 L-6.55 11.6 M-12.35 10.45 L-11.8 10.6 M-19.9 7.9 L-12.35 10.45 M-5.45 10.95 L2.8 5.65" fill="none" stroke="#000000" stroke-linecap="round" stroke-linejoin="round" stroke-width="3.5"/>
  </g>
</svg>
