<?xml version="1.0" encoding="UTF-8" standalone="no"?>
<svg xmlns:ffdec="https://www.free-decompiler.com/flash" xmlns:xlink="http://www.w3.org/1999/xlink" ffdec:objectType="shape" height="15.4px" width="33.75px" xmlns="http://www.w3.org/2000/svg">
  <g transform="matrix(1.0, 0.0, 0.0, 1.0, 25.55, -4.2)">
    <path d="M0.2 19.35 Q-3.1 19.35 -5.45 16.35 -7.8 13.4 -7.8 9.2 L-7.8 9.1 Q-7.8 7.25 -7.3 5.6 0.2 3.7 7.7 5.6 8.2 7.25 8.2 9.1 L8.2 9.2 Q8.2 13.4 5.85 16.35 3.5 19.35 0.2 19.35 M-11.9 16.6 Q-14.25 19.6 -17.55 19.6 -20.85 19.6 -23.2 16.6 -25.55 13.65 -25.55 9.45 L-25.55 9.35 Q-25.55 7.35 -24.95 5.6 -17.55 2.8 -10.1 5.6 -9.55 7.35 -9.55 9.35 L-9.55 9.45 Q-9.55 13.65 -11.9 16.6" fill="#91edda" fill-rule="evenodd" stroke="none"/>
    <path d="M3.85 10.1 Q3.8 12.9 2.45 14.9 1.1 16.95 -0.85 16.95 -2.75 16.95 -4.15 14.9 -5.5 12.9 -5.5 10.1 L3.85 10.1 M-12.35 10.1 L-12.3 10.95 Q-12.35 13.45 -13.55 15.2 -14.7 17.0 -16.35 17.0 -18.05 17.0 -19.25 15.2 -20.45 13.45 -20.45 10.95 L-20.4 10.1 -12.35 10.1" fill="#ffdfbf" fill-rule="evenodd" stroke="none"/>
    <path d="M3.85 10.1 Q3.8 12.9 2.45 14.9 1.1 16.95 -0.85 16.95 -2.75 16.95 -4.15 14.9 -5.5 12.9 -5.5 10.1 M-12.35 10.1 L-12.3 10.95 Q-12.35 13.45 -13.55 15.2 -14.7 17.0 -16.35 17.0 -18.05 17.0 -19.25 15.2 -20.45 13.45 -20.45 10.95 L-20.4 10.1" fill="none" stroke="#000000" stroke-linecap="round" stroke-linejoin="round" stroke-width="3.5"/>
    <path d="M-5.5 10.1 L3.85 10.1 M-20.4 10.1 L-12.35 10.1" fill="none" stroke="#000000" stroke-linecap="round" stroke-linejoin="round" stroke-width="3.5"/>
  </g>
</svg>
