<?xml version="1.0" encoding="UTF-8" standalone="no"?>
<svg xmlns:ffdec="https://www.free-decompiler.com/flash" xmlns:xlink="http://www.w3.org/1999/xlink" ffdec:objectType="shape" height="16.2px" width="33.75px" xmlns="http://www.w3.org/2000/svg">
  <g transform="matrix(1.0, 0.0, 0.0, 1.0, 25.55, 0.95)">
    <path d="M5.85 2.0 Q8.15 4.95 8.2 9.1 L8.2 9.2 Q8.2 13.4 6.55 14.0 4.9 14.6 1.95 13.35 -1.0 12.1 -4.4 12.75 -7.8 13.4 -7.8 9.2 L-7.8 9.1 Q-7.75 4.95 -5.45 2.0 -3.1 -0.95 0.2 -0.95 3.5 -0.95 5.85 2.0 M-11.9 2.25 Q-9.6 5.2 -9.55 9.35 L-9.55 11.7 Q-9.55 13.95 -13.9 13.55 -18.25 13.1 -20.75 14.5 -23.3 15.85 -24.45 14.75 -25.6 13.6 -25.55 11.5 L-25.55 9.35 Q-25.5 5.2 -23.2 2.25 -20.85 -0.7 -17.55 -0.7 -14.25 -0.7 -11.9 2.25" fill="#91edda" fill-rule="evenodd" stroke="none"/>
    <path d="M-12.3 11.35 Q-16.9 3.55 -20.55 11.6" fill="none" stroke="#333333" stroke-linecap="round" stroke-linejoin="round" stroke-width="2.0"/>
    <path d="M4.95 10.35 Q-1.7 -0.6 -5.8 11.1" fill="none" stroke="#333333" stroke-linecap="round" stroke-linejoin="round" stroke-width="2.0"/>
  </g>
</svg>
