<?xml version="1.0" encoding="UTF-8" standalone="no"?>
<svg xmlns:ffdec="https://www.free-decompiler.com/flash" xmlns:xlink="http://www.w3.org/1999/xlink" ffdec:objectType="shape" height="20.35px" width="32.95px" xmlns="http://www.w3.org/2000/svg">
  <g transform="matrix(1.0, 0.0, 0.0, 1.0, 24.75, 0.75)">
    <path d="M-0.65 -0.5 Q1.75 -0.1 3.85 3.0 L7.05 7.65 8.2 9.2 Q8.2 13.4 4.8 13.7 1.4 13.95 -2.7 16.1 -6.8 18.25 -7.65 15.85 -8.5 13.4 -8.15 11.3 L-7.8 9.1 Q-7.75 4.95 -5.45 2.0 -3.1 -0.95 -0.65 -0.5 M-11.9 2.25 Q-9.6 5.2 -9.55 9.35 L-9.55 9.45 Q-9.55 13.65 -11.9 16.6 -14.25 19.6 -17.55 19.6 -20.85 19.6 -23.2 16.6 -25.55 13.65 -24.35 10.8 L-22.35 6.35 -20.15 2.0 Q-18.7 -0.8 -16.45 -0.75 -14.25 -0.7 -11.9 2.25" fill="#91edda" fill-rule="evenodd" stroke="none"/>
    <path d="M-16.9 1.95 L-14.75 2.65 Q-13.5 3.5 -12.1 5.65 -10.6 7.8 -10.55 10.95 L-10.55 11.0 Q-10.6 14.05 -12.1 16.2 L-12.05 16.15 Q-13.8 18.85 -16.35 18.75 -18.9 18.85 -20.7 16.2 -22.0 14.35 -22.15 11.8 L-16.9 1.95 M-5.6 4.05 L-5.55 4.0 -4.25 2.5 -4.3 2.55 Q-3.25 1.3 -1.75 1.45 -0.35 1.6 5.4 7.75 L5.6 9.95 5.65 11.1 Q6.25 11.1 8.05 12.7 L6.7 13.0 Q3.35 13.85 -6.8 17.8 L-6.95 17.55 Q-7.25 17.0 -7.05 16.4 -6.9 15.8 -6.35 15.55 L-5.95 15.35 Q-7.25 13.05 -7.25 9.95 -7.25 8.1 -6.75 6.5 L-6.8 6.55 Q-6.4 5.2 -5.6 4.05 M-15.0 7.65 L-15.0 7.6 Q-15.5 6.9 -16.05 6.7 -17.05 7.3 -18.35 10.9 L-18.65 11.7 Q-18.5 13.1 -17.8 14.2 L-17.8 14.25 Q-17.2 15.15 -16.35 15.25 -15.6 15.15 -15.0 14.25 L-15.0 14.2 Q-14.1 12.85 -14.05 10.95 -14.1 9.0 -15.0 7.65 M-3.4 7.45 L-3.4 7.5 Q-3.75 8.6 -3.75 9.95 -3.75 12.05 -2.9 13.6 -0.15 11.85 2.15 11.4 L2.25 10.0 2.4 9.45 Q2.3 9.6 0.55 7.3 -1.25 5.0 -1.65 5.1 L-2.05 5.2 -2.65 5.95 -2.7 6.05 -3.4 7.45" fill="#000000" fill-rule="evenodd" stroke="none"/>
    <path d="M-3.4 7.45 L-2.7 6.05 -2.65 5.95 -2.05 5.2 -1.65 5.1 Q-1.25 5.0 0.55 7.3 2.3 9.6 2.4 9.45 L2.25 10.0 2.15 11.4 Q-0.15 11.85 -2.9 13.6 -3.75 12.05 -3.75 9.95 -3.75 8.6 -3.4 7.5 L-3.4 7.45 M-15.0 7.65 Q-14.1 9.0 -14.05 10.95 -14.1 12.85 -15.0 14.2 L-15.0 14.25 Q-15.6 15.15 -16.35 15.25 -17.2 15.15 -17.8 14.25 L-17.8 14.2 Q-18.5 13.1 -18.65 11.7 L-18.35 10.9 Q-17.05 7.3 -16.05 6.7 -15.5 6.9 -15.0 7.6 L-15.0 7.65" fill="#ffdfbf" fill-rule="evenodd" stroke="none"/>
  </g>
</svg>
