<?xml version="1.0" encoding="UTF-8" standalone="no"?>
<svg xmlns:ffdec="https://www.free-decompiler.com/flash" xmlns:xlink="http://www.w3.org/1999/xlink" ffdec:objectType="shape" height="20.55px" width="33.75px" xmlns="http://www.w3.org/2000/svg">
  <g transform="matrix(1.0, 0.0, 0.0, 1.0, 25.55, 0.95)">
    <path d="M8.2 9.1 L8.2 9.2 Q8.2 13.4 5.85 16.35 3.5 19.35 0.2 19.35 -3.1 19.35 -5.45 16.35 -7.8 13.4 -7.8 9.2 L-7.8 9.1 Q-7.75 4.95 -5.45 2.0 -3.1 -0.95 0.2 -0.95 3.5 -0.95 5.85 2.0 8.15 4.95 8.2 9.1 M-9.95 8.45 L-9.55 9.45 Q-9.55 13.65 -11.9 16.6 -14.25 19.6 -17.55 19.6 -20.85 19.6 -23.2 16.6 -25.55 13.65 -25.55 9.45 L-25.55 9.35 Q-25.5 5.2 -23.25 2.4 -20.95 -0.4 -18.65 2.15 -16.35 4.7 -13.35 6.1 -10.35 7.5 -9.95 8.45" fill="#91edda" fill-rule="evenodd" stroke="none"/>
    <path d="M-14.1 11.75 L-18.6 9.9 -18.7 10.95 Q-18.7 12.85 -17.8 14.2 L-17.8 14.25 Q-17.2 15.15 -16.35 15.25 -15.6 15.15 -15.0 14.25 L-15.0 14.2 Q-14.3 13.15 -14.1 11.75 M-18.45 6.75 L-10.65 10.25 -10.55 10.85 -10.55 11.0 Q-10.6 14.05 -12.1 16.2 L-12.05 16.15 Q-13.8 18.85 -16.35 18.75 -18.9 18.85 -20.7 16.2 -22.2 14.05 -22.2 10.95 L-21.9 8.5 -24.65 6.9 -24.7 6.8 Q-24.95 6.2 -24.65 5.65 L-23.85 4.85 -22.7 4.9 -20.05 6.05 -19.05 6.2 -18.45 6.75" fill="#000000" fill-rule="evenodd" stroke="none"/>
    <path d="M2.45 14.9 Q1.1 16.95 -0.85 16.95 -2.75 16.95 -4.15 14.9 -5.5 12.85 -5.5 9.95 -5.5 8.35 -5.1 7.0 L-4.15 5.0 -3.15 3.85 Q-2.1 2.95 -0.85 2.95 1.1 2.95 2.45 5.0 3.85 7.05 3.85 9.95 3.85 12.85 2.45 14.9 M-14.1 11.75 Q-14.3 13.15 -15.0 14.2 L-15.0 14.25 Q-15.6 15.15 -16.35 15.25 -17.2 15.15 -17.8 14.25 L-17.8 14.2 Q-18.7 12.85 -18.7 10.95 L-18.6 9.9 -14.1 11.75" fill="#ffdfbf" fill-rule="evenodd" stroke="none"/>
    <path d="M2.45 14.9 Q1.1 16.95 -0.85 16.95 -2.75 16.95 -4.15 14.9 -5.5 12.85 -5.5 9.95 -5.5 8.35 -5.1 7.0 L-4.15 5.0 -3.15 3.85 Q-2.1 2.95 -0.85 2.95 1.1 2.95 2.45 5.0 3.85 7.05 3.85 9.95 3.85 12.85 2.45 14.9 Z" fill="none" stroke="#000000" stroke-linecap="round" stroke-linejoin="round" stroke-width="3.5"/>
  </g>
</svg>
