<?xml version="1.0" encoding="UTF-8" standalone="no"?>
<svg xmlns:ffdec="https://www.free-decompiler.com/flash" xmlns:xlink="http://www.w3.org/1999/xlink" ffdec:objectType="shape" height="43.25px" width="64.1px" xmlns="http://www.w3.org/2000/svg">
  <g transform="matrix(1.0, 0.0, 0.0, 1.0, 54.8, 17.25)">
    <path d="M-16.7 -8.55 L-16.3 -6.8 Q-15.9 -4.85 -11.7 -4.9 L-7.05 -5.25 1.4 -2.25 Q2.55 -2.25 5.0 -6.55 5.0 -8.0 1.6 -10.0 L-0.25 -10.95 -2.8 -11.85 Q-6.05 -12.75 -10.05 -12.75 -12.7 -12.75 -14.95 -11.2 L-16.65 -9.7 -16.8 -9.3 -16.75 -8.95 -16.7 -8.55 M1.75 -0.75 L-3.45 -2.7 Q-9.05 -4.55 -14.75 -4.3 -17.75 -4.2 -18.05 -9.5 -18.05 -11.3 -16.3 -12.2 -14.75 -13.0 -10.0 -14.0 L-8.5 -14.05 Q2.4 -14.05 6.25 -6.5 2.35 -0.75 1.75 -0.75" fill="#333333" fill-rule="evenodd" stroke="none"/>
    <path d="M-16.75 -8.95 L-16.7 -8.5 -16.7 -8.55 -16.75 -8.95" fill="#cccccc" fill-rule="evenodd" stroke="none"/>
    <path d="M-2.8 -11.85 Q-0.75 -9.6 -0.75 -8.05 -0.75 -6.65 -2.55 -6.65 -5.1 -6.65 -11.3 -8.45 L-16.65 -9.7 -14.95 -11.2 Q-12.7 -12.75 -10.05 -12.75 -6.05 -12.75 -2.8 -11.85" fill="#fbfaee" fill-rule="evenodd" stroke="none"/>
    <path d="M-2.8 -11.85 L-0.25 -10.95 1.6 -10.0 Q5.0 -8.0 5.0 -6.55 2.55 -2.25 1.4 -2.25 L-7.05 -5.25 -11.7 -4.9 Q-15.9 -4.85 -16.3 -6.8 L-16.7 -8.55 -16.7 -8.5 -16.75 -8.95 -16.8 -9.3 -16.65 -9.7 -11.3 -8.45 Q-5.1 -6.65 -2.55 -6.65 -0.75 -6.65 -0.75 -8.05 -0.75 -9.6 -2.8 -11.85" fill="#dbd1c8" fill-rule="evenodd" stroke="none"/>
    <path d="M-48.6 21.9 L-51.45 21.9 Q-56.75 10.0 -53.65 1.15 -51.75 -3.9 -47.4 -7.35 -39.75 -13.5 -30.05 -15.05 L-30.0 -15.0 Q-21.1 -17.3 -12.35 -13.8 -2.25 -8.85 3.7 -0.85 L3.75 -0.8 7.0 4.15 Q8.65 7.8 7.1 17.85 6.45 14.75 5.4 15.65 L6.05 12.7 Q5.85 5.8 4.05 2.9 3.2 1.4 4.3 2.3 L2.15 0.0 Q-3.25 -7.45 -12.4 -11.65 L-12.45 -11.7 -12.55 -11.7 -12.6 -11.75 Q-14.95 -12.75 -17.5 -13.35 L-17.55 -13.35 -29.75 -12.9 -29.8 -12.9 Q-38.9 -11.65 -46.2 -5.8 -50.0 -2.6 -51.75 1.85 -54.55 9.75 -51.7 17.6 L-51.1 19.05 -51.0 19.3 Q-50.9 19.25 -50.95 19.35 L-48.6 21.9 M2.7 17.65 Q-0.2 19.4 -3.3 20.75 L-6.25 21.9 -11.0 21.9 -4.45 19.4 Q-0.05 17.65 2.7 17.65 M6.6 10.1 L6.6 10.3 6.6 10.25 6.6 10.1 M8.0 12.8 L7.95 12.8 8.15 12.6 8.0 12.8 M8.1 13.65 L8.3 13.6 8.2 13.65 8.1 13.65" fill="#333333" fill-rule="evenodd" stroke="none"/>
    <path d="M6.6 10.1 L6.6 10.25 6.6 10.3 6.6 10.1 M8.75 11.15 L8.9 11.3 8.8 11.25 8.75 11.15" fill="#cccccc" fill-rule="evenodd" stroke="none"/>
    <path d="M-51.1 19.05 L-51.7 17.6 Q-51.2 17.8 -50.7 18.15 L-51.1 19.05 M-17.55 -13.35 L-17.5 -13.35 -17.6 -12.6 -17.65 -12.95 -17.55 -13.35" fill="#c3c3c3" fill-rule="evenodd" stroke="none"/>
    <path d="M-51.7 17.6 Q-54.55 9.75 -51.75 1.85 -50.0 -2.6 -46.2 -5.8 -38.9 -11.65 -29.8 -12.9 L-29.75 -12.9 -17.55 -13.35 -17.65 -12.95 -17.6 -12.6 Q-9.55 -7.8 -6.65 -3.6 -4.5 -0.65 -4.7 2.65 -4.8 8.55 -10.7 13.85 -18.75 20.8 -35.0 21.35 -44.45 21.35 -50.7 18.15 -51.2 17.8 -51.7 17.6" fill="#fbfaee" fill-rule="evenodd" stroke="none"/>
    <path d="M-48.6 21.9 L-50.95 19.35 Q-50.9 19.25 -51.0 19.3 L-51.1 19.05 -50.7 18.15 Q-44.45 21.35 -35.0 21.35 -18.75 20.8 -10.7 13.85 -4.8 8.55 -4.7 2.65 -4.5 -0.65 -6.65 -3.6 -9.55 -7.8 -17.6 -12.6 L-17.5 -13.35 Q-14.95 -12.75 -12.6 -11.75 L-12.55 -11.7 -12.45 -11.7 -12.4 -11.65 Q-3.25 -7.45 2.15 0.0 L4.3 2.3 Q3.2 1.4 4.05 2.9 5.85 5.8 6.05 12.7 L5.4 15.65 Q5.05 16.8 4.85 17.9 L2.7 17.65 Q-0.05 17.65 -4.45 19.4 L-11.0 21.9 -48.6 21.9" fill="#dbd1c8" fill-rule="evenodd" stroke="none"/>
    <path d="M2.9 14.95 Q-3.5 13.1 -10.1 12.6 L-10.15 12.6 -17.55 12.2 -17.6 12.2 -29.7 12.85 -40.0 14.1 -45.75 15.1 -45.7 15.1 -49.9 16.2 -49.85 16.2 Q-51.3 16.55 -52.5 17.35 L-51.75 18.95 -51.4 19.85 -51.55 19.9 -51.15 19.8 -43.85 18.55 -38.15 17.55 -38.1 17.5 -29.0 16.4 -28.95 16.4 -20.1 16.15 -12.85 16.35 -3.85 17.25 -3.8 17.25 5.85 18.75 6.05 18.65 6.8 18.55 7.2 17.0 Q6.45 16.05 5.2 15.6 L2.9 14.95 3.0 14.95 2.9 14.95 M5.85 13.7 Q8.1 14.5 9.15 16.4 L9.25 17.15 8.5 20.05 8.2 20.5 7.75 20.75 7.6 20.75 Q7.0 22.7 5.05 23.45 0.5 25.15 -4.2 25.5 L-13.85 25.95 -22.85 26.0 -31.0 25.9 -36.35 25.8 -46.3 25.1 -46.35 25.1 -49.85 24.4 -51.3 23.75 -51.95 23.15 -52.2 22.7 -52.2 22.25 Q-53.1 21.2 -53.8 17.7 L-53.9 17.7 -54.3 17.3 -54.45 16.55 -54.05 15.95 Q-52.35 14.8 -50.4 14.25 L-46.2 13.15 -46.1 13.15 -40.35 12.15 -29.85 10.85 -17.6 10.2 -9.9 10.6 Q-3.1 11.1 3.55 13.05 L3.6 13.05 5.75 13.7 5.85 13.7 M-46.05 23.1 L-36.3 23.8 -30.95 23.9 -22.85 24.0 -13.85 23.95 -4.35 23.5 Q0.1 23.15 4.35 21.6 L5.45 20.7 -4.05 19.25 -13.0 18.35 -20.05 18.15 -20.1 18.15 -28.75 18.4 -37.85 19.5 -43.5 20.5 -43.55 20.5 -50.05 21.6 -50.15 22.1 -49.4 22.45 -46.05 23.15 -46.0 23.15 -46.05 23.1 M-37.85 19.5 L-37.8 19.5 -37.85 19.5" fill="#333333" fill-rule="evenodd" stroke="none"/>
    <path d="M2.9 14.95 L5.2 15.6 Q6.45 16.05 7.2 17.0 L6.8 18.55 6.05 18.65 5.85 18.75 -3.8 17.25 -3.85 17.25 -12.85 16.35 -20.1 16.15 -28.95 16.4 -29.0 16.4 -38.1 17.5 -38.15 17.55 -43.85 18.55 -51.15 19.8 -51.55 19.9 -51.4 19.85 -51.75 18.95 -52.5 17.35 Q-51.3 16.55 -49.85 16.2 L-49.9 16.2 -45.7 15.1 -45.75 15.1 -40.0 14.1 -29.7 12.85 -17.6 12.2 -17.55 12.2 -10.15 12.6 -10.1 12.6 Q-3.5 13.1 2.9 14.95" fill="#2c6559" fill-rule="evenodd" stroke="none"/>
    <path d="M-37.85 19.5 L-28.75 18.4 -20.1 18.15 -20.05 18.15 -13.0 18.35 -4.05 19.25 5.45 20.7 4.35 21.6 Q0.1 23.15 -4.35 23.5 L-13.85 23.95 -22.85 24.0 -30.95 23.9 -36.3 23.8 -46.05 23.1 -46.05 23.15 -49.4 22.45 -50.15 22.1 -50.05 21.6 -43.55 20.5 -43.5 20.5 -37.85 19.5" fill="#224d44" fill-rule="evenodd" stroke="none"/>
    <path d="M-19.25 -13.65 L-19.25 -13.75 Q-16.0 -13.8 -11.45 -11.25 -7.05 -8.8 -7.05 -7.3 -7.05 -6.4 -7.9 -6.4 L-10.8 -8.25 -10.8 -8.4 Q-11.7 -9.65 -14.7 -11.35 -17.4 -12.9 -18.0 -12.9 L-18.05 -12.9 -19.25 -13.65" fill="#b23875" fill-rule="evenodd" stroke="none"/>
    <path d="M-19.25 -13.65 L-18.05 -12.9 -18.0 -12.9 Q-17.4 -12.9 -14.7 -11.35 -11.7 -9.65 -10.8 -8.4 L-10.8 -8.25 -7.9 -6.4 Q-7.05 -6.4 -7.05 -7.3 -7.05 -8.8 -11.45 -11.25 -16.0 -13.8 -19.25 -13.75 L-19.3 -13.75 -19.25 -13.65 M-11.85 -8.5 L-11.3 -7.9 -18.4 -12.05 -18.4 -12.25 -22.25 -13.65 Q-20.8 -14.65 -19.0 -14.65 -14.35 -14.65 -9.95 -11.3 -6.3 -8.55 -6.3 -7.25 -6.3 -5.55 -7.25 -5.55 -9.25 -5.55 -11.85 -8.5" fill="#5a1d3c" fill-rule="evenodd" stroke="none"/>
    <path d="M1.25 -2.5 Q2.15 -2.5 2.15 -3.6 2.15 -5.5 -1.35 -8.0 -5.1 -10.65 -9.45 -11.25 -1.2 -10.7 2.6 -7.6 5.25 -5.4 5.25 -2.75 5.0 0.0 2.0 0.0 0.65 0.0 -3.1 -3.65 -6.75 -7.2 -7.8 -9.4 L-4.4 -5.55 Q-1.6 -2.5 1.25 -2.5 M-15.0 -14.6 Q-18.2 -16.0 -21.75 -16.0 L-23.75 -15.85 Q-22.95 -16.3 -21.5 -16.55 -16.9 -16.7 -13.15 -14.95 -9.9 -13.45 -9.9 -12.15 L-10.0 -11.9 -11.9 -13.5 Q-13.15 -14.3 -15.0 -14.6 M-2.0 7.25 Q-2.0 4.8 -2.9 1.35 -3.85 -2.45 -5.15 -4.0 -3.15 -2.7 -1.5 2.75 -0.15 7.35 -0.15 10.1 0.65 16.8 -3.0 17.65 L-3.0 16.4 Q-2.0 11.4 -2.0 7.25" fill="#b23875" fill-rule="evenodd" stroke="none"/>
    <path d="M1.25 -2.5 Q-1.6 -2.5 -4.4 -5.55 L-7.8 -9.4 Q-6.75 -7.2 -3.1 -3.65 0.65 0.0 2.0 0.0 5.0 0.0 5.25 -2.75 5.25 -5.4 2.6 -7.6 -1.2 -10.7 -9.45 -11.25 -5.1 -10.65 -1.35 -8.0 2.15 -5.5 2.15 -3.6 2.15 -2.5 1.25 -2.5 M-23.75 -15.85 L-25.2 -15.4 Q-24.25 -17.25 -19.85 -17.25 -16.8 -17.25 -13.3 -15.55 -10.7 -14.3 -10.05 -13.55 -8.45 -11.7 -5.35 -11.15 L-1.75 -10.65 Q6.15 -7.4 6.15 -2.75 6.15 -1.8 5.35 -0.55 4.3 1.0 2.75 1.0 L-0.65 0.0 Q-0.75 -0.45 -0.75 0.2 L-0.05 3.9 Q0.65 6.85 0.65 10.05 1.1 16.0 -0.9 17.85 L-1.6 18.3 -3.25 18.65 -3.9 18.5 -3.9 16.1 Q-2.9 10.95 -2.9 7.2 -2.9 1.9 -5.25 -2.25 L-7.35 -5.85 -7.25 -6.75 Q-7.25 -9.1 -10.4 -11.75 L-10.95 -12.15 -11.5 -12.6 Q-13.2 -13.85 -15.0 -14.6 -13.15 -14.3 -11.9 -13.5 L-10.0 -11.9 -9.9 -12.15 Q-9.9 -13.45 -13.15 -14.95 -16.9 -16.7 -21.5 -16.55 -22.95 -16.3 -23.75 -15.85 M1.25 -3.65 Q1.25 -4.85 -1.5 -6.95 -4.1 -8.9 -5.75 -9.2 L-3.35 -5.95 Q-2.1 -4.4 0.85 -3.5 L1.05 -3.35 Q1.25 -3.25 1.25 -3.65 M-2.0 7.25 Q-2.0 11.4 -3.0 16.4 L-3.0 17.65 Q0.65 16.8 -0.15 10.1 -0.15 7.35 -1.5 2.75 -3.15 -2.7 -5.15 -4.0 -3.85 -2.45 -2.9 1.35 -2.0 4.8 -2.0 7.25" fill="#5a1d3c" fill-rule="evenodd" stroke="none"/>
  </g>
</svg>
