<?xml version="1.0" encoding="UTF-8" standalone="no"?>
<svg xmlns:ffdec="https://www.free-decompiler.com/flash" xmlns:xlink="http://www.w3.org/1999/xlink" ffdec:objectType="shape" height="96.15px" width="120.25px" xmlns="http://www.w3.org/2000/svg">
  <g transform="matrix(1.0, 0.0, 0.0, 1.0, 28.8, 12.0)">
    <path d="M26.55 5.1 Q28.3 2.1 30.35 -0.35 32.7 -3.3 35.8 -5.5 L39.7 -7.8 Q41.7 -8.7 43.85 -9.2 49.6 -10.65 55.55 -9.05 59.5 -7.95 63.35 -6.25 L61.75 -6.3 Q55.65 -6.3 50.3 -3.4 L54.8 -2.1 60.45 0.45 Q64.35 2.5 67.75 5.35 71.0 8.0 73.75 11.1 76.45 14.2 78.6 17.6 80.75 21.0 82.25 24.65 83.8 28.35 84.9 32.4 L87.35 42.1 89.4 52.0 Q90.25 56.55 90.1 61.05 L89.65 60.05 88.25 54.55 86.8 48.95 85.3 43.35 82.65 34.6 Q81.65 31.55 80.3 28.65 L77.5 23.1 Q75.2 19.25 72.0 15.85 68.9 12.45 65.35 9.85 61.5 7.15 57.25 5.2 53.0 3.25 48.75 2.1 L39.6 1.85 Q35.1 2.6 31.4 5.45 30.3 6.25 29.75 7.55 L28.9 9.8 29.3 9.95 29.95 9.95 30.9 9.9 33.05 9.6 Q34.9 9.8 36.45 10.45 L39.9 11.95 Q42.2 13.05 44.25 14.85 46.9 17.1 48.8 19.85 51.2 23.25 52.85 27.0 55.0 31.85 56.7 36.9 L59.7 46.85 58.65 52.25 58.25 54.05 57.1 57.6 Q55.25 62.5 51.9 66.55 L52.6 59.15 52.85 52.15 52.65 45.55 Q52.35 41.0 51.5 36.45 50.75 32.5 48.95 28.9 47.2 25.45 44.55 22.45 L41.7 19.5 Q38.25 16.45 33.75 15.55 L31.6 15.8 29.45 13.25 Q26.6 9.65 26.55 5.1 M74.95 38.5 L74.8 38.2 74.85 41.15 Q75.35 45.3 75.35 49.6 L75.2 55.0 Q74.95 58.85 73.9 62.4 L72.35 66.9 Q70.7 71.25 67.9 74.95 65.1 78.7 61.2 81.55 L61.45 80.7 64.5 74.7 67.0 68.5 68.8 62.05 70.0 55.4 70.6 48.05 70.6 40.65 Q70.3 33.25 68.5 26.05 L71.55 31.0 Q73.65 34.6 74.95 38.5 M-28.3 14.9 L-27.6 11.55 Q-27.1 9.9 -26.2 8.5 -24.65 6.0 -22.3 4.5 L-18.4 2.25 Q-14.0 0.1 -9.25 -0.55 L-1.55 -1.1 6.7 -0.35 Q10.9 0.5 14.9 2.0 18.65 3.35 22.15 5.25 L21.4 6.15 21.95 7.1 21.7 8.0 Q19.0 5.55 15.55 4.4 L13.2 3.75 Q9.1 1.55 4.7 1.35 -0.1 0.95 -5.0 1.55 -9.25 1.8 -13.45 3.0 -15.8 3.55 -18.0 4.75 L-20.6 6.8 Q-21.25 7.45 -20.9 8.3 -22.15 10.9 -22.45 13.75 L-22.65 15.75 -23.5 15.6 -24.0 14.0 -24.5 14.25 -24.5 15.5 -25.0 15.5 -24.35 11.2 -24.75 10.75 -26.65 16.5 -27.3 16.2 -27.2 15.9 -27.1 15.45 -26.9 15.4 -27.4 14.85 -28.3 14.9 M66.0 15.05 Q69.3 17.95 71.75 21.5 L79.35 36.7 75.2 29.9 73.9 27.75 72.65 25.85 71.4 24.0 Q68.25 19.4 64.5 15.65 L61.55 13.2 Q59.55 11.8 57.4 10.8 50.6 7.9 43.7 5.2 L48.95 6.55 53.9 8.25 57.95 9.8 Q62.4 11.8 66.0 15.05 M41.5 7.65 Q40.45 7.2 39.4 6.9 43.25 7.4 46.65 9.25 50.25 11.1 52.9 14.15 55.95 17.55 58.15 21.75 59.8 24.95 61.1 28.3 62.6 32.1 63.7 36.0 L66.0 44.95 67.0 49.8 Q65.15 42.9 62.9 36.4 60.95 30.8 58.25 25.5 56.0 21.05 53.05 17.1 51.35 14.85 49.35 12.95 47.6 11.15 45.55 9.75 43.6 8.55 41.5 7.65 M42.0 37.1 L40.85 32.1 41.05 32.8 Q41.7 34.9 42.0 37.1 M36.6 20.85 L36.0 19.85 Q37.95 23.4 39.1 27.25 40.25 31.25 40.2 35.45 L40.0 41.1 39.5 40.9 39.15 38.05 38.5 40.0 37.7 40.6 37.1 38.15 36.05 39.55 36.2 34.3 35.4 36.4 34.9 37.35 34.2 38.2 33.4 39.0 32.85 38.95 32.0 37.95 Q33.5 36.6 34.4 34.8 34.95 33.65 35.1 32.3 35.3 30.75 34.85 29.45 35.15 30.85 34.85 32.2 34.6 33.45 33.8 34.85 32.9 36.45 31.15 37.3 30.3 37.75 29.4 38.15 L30.25 36.45 27.75 37.45 31.15 31.45 25.35 36.85 24.9 36.6 25.05 36.55 24.6 34.4 26.2 33.5 27.5 32.55 28.45 31.35 29.2 29.9 Q27.65 30.9 25.85 31.35 L24.25 31.75 23.25 31.4 22.15 30.65 21.0 30.85 20.75 30.25 22.0 29.0 21.5 28.5 18.1 29.4 18.1 27.3 20.0 25.75 19.5 25.25 17.0 26.0 15.55 25.05 16.75 22.55 16.4 22.05 14.55 21.7 14.4 20.35 15.65 20.0 16.25 18.8 15.75 18.25 14.35 19.0 14.1 18.1 17.0 15.3 16.5 14.75 12.85 16.35 11.45 15.9 14.45 12.25 9.65 14.75 10.9 13.35 10.6 12.9 7.8 14.75 6.9 14.25 8.15 9.5 7.25 9.15 5.7 13.05 4.25 13.85 3.15 9.6 2.5 9.45 1.75 14.1 0.75 13.8 0.25 14.15 0.55 8.6 9.1 8.15 Q11.25 8.25 13.05 9.05 14.55 9.75 16.1 9.95 17.0 10.1 17.5 9.5 L17.75 8.75 Q17.7 8.0 17.3 7.4 L15.85 5.6 20.25 8.25 19.8 9.05 21.4 9.9 21.5 11.5 17.45 12.6 17.45 13.5 21.0 12.85 19.75 13.95 19.8 14.4 21.85 14.5 21.75 15.75 23.05 15.9 23.15 16.0 22.7 16.15 21.0 18.25 22.75 18.25 23.0 19.65 24.9 17.7 25.5 19.75 26.6 19.4 26.55 18.4 26.9 18.45 Q29.05 21.2 29.75 24.7 L29.9 25.9 Q31.2 23.85 30.3 21.6 L29.65 20.25 30.3 20.55 30.75 21.2 30.1 18.55 31.2 18.4 32.75 20.25 33.25 19.75 32.5 18.15 33.85 17.8 34.25 17.65 35.2 17.9 36.6 20.85 M-0.6 8.8 Q-1.1 12.75 -4.7 14.4 L-5.9 14.8 -7.8 13.3 -8.1 9.9 -0.6 8.8 M-8.55 9.95 L-11.1 15.8 -11.95 13.65 -12.95 13.95 -12.85 16.2 -14.65 16.55 -14.8 10.15 -8.55 9.95 M-15.65 10.1 L-17.1 16.1 -17.75 13.6 -18.8 13.55 -19.0 16.5 -21.05 17.15 -21.25 15.15 Q-21.5 11.95 -20.0 8.95 L-15.65 10.1 M41.85 46.75 L41.15 50.8 41.1 49.8 Q41.05 49.05 41.85 46.75 M21.9 13.4 L21.95 13.55 21.9 13.45 21.9 13.4 M33.65 19.45 L36.5 27.35 Q36.25 23.85 34.6 20.9 L33.65 19.45 M-25.6 16.55 L-25.2 17.0 -26.1 16.75 -25.6 16.55" fill="#f4d371" fill-rule="evenodd" stroke="none"/>
    <path d="M89.65 60.05 L90.1 61.05 Q90.25 56.55 89.4 52.0 L87.35 42.1 84.9 32.4 Q83.8 28.35 82.25 24.65 80.75 21.0 78.6 17.6 76.45 14.2 73.75 11.1 71.0 8.0 67.75 5.35 64.35 2.5 60.45 0.45 L54.8 -2.1 50.3 -3.4 Q55.65 -6.3 61.75 -6.3 L63.35 -6.25 Q59.5 -7.95 55.55 -9.05 49.6 -10.65 43.85 -9.2 41.7 -8.7 39.7 -7.8 L35.8 -5.5 Q32.7 -3.3 30.35 -0.35 28.3 2.1 26.55 5.1 L27.65 -0.25 Q30.25 -3.65 33.4 -6.4 37.15 -9.65 41.85 -11.15 46.45 -12.5 51.3 -11.75 55.3 -11.1 58.95 -9.55 L66.4 -5.75 60.35 -5.4 Q58.05 -4.85 55.8 -3.9 61.0 -1.25 65.5 2.05 71.25 6.4 75.95 11.75 80.6 17.05 83.85 23.4 86.35 28.25 88.05 33.5 89.65 38.6 90.55 43.75 91.85 51.3 91.3 58.9 L90.75 65.15 Q88.6 60.75 86.05 56.7 82.0 50.25 77.15 44.2 77.55 48.4 77.35 52.65 77.05 58.2 75.55 63.55 74.15 68.55 71.25 72.95 69.15 76.2 66.35 79.0 63.4 81.9 59.95 84.15 L61.05 75.8 61.65 68.0 Q62.0 61.0 60.35 54.05 L59.1 58.05 Q58.15 60.9 56.4 63.15 L53.95 65.95 50.75 68.85 51.3 59.7 Q51.55 53.05 50.9 46.15 50.45 41.3 49.5 36.85 48.7 33.2 47.05 29.8 45.45 26.45 43.0 23.7 L40.15 20.65 42.5 26.4 Q43.8 29.85 44.45 33.5 45.25 37.75 44.55 41.85 L43.5 46.45 Q42.75 49.0 40.75 51.4 L41.1 49.8 41.15 50.8 41.85 46.75 42.05 46.1 Q43.0 43.25 42.35 39.0 L42.0 37.1 Q41.7 34.9 41.05 32.8 L40.85 32.1 40.4 30.6 Q39.5 26.85 37.8 23.3 L36.6 20.85 35.2 17.9 34.25 17.65 33.5 17.5 31.6 15.8 33.75 15.55 Q38.25 16.45 41.7 19.5 L44.55 22.45 Q47.2 25.45 48.95 28.9 50.75 32.5 51.5 36.45 52.35 41.0 52.65 45.55 L52.85 52.15 52.6 59.15 51.9 66.55 Q55.25 62.5 57.1 57.6 L58.25 54.05 58.65 52.25 59.7 46.85 60.3 46.5 Q62.7 53.65 63.3 60.9 63.6 64.75 63.35 68.6 L62.4 76.4 61.55 80.35 61.45 80.7 61.2 81.55 Q65.1 78.7 67.9 74.95 70.7 71.25 72.35 66.9 L73.9 62.4 Q74.95 58.85 75.2 55.0 L75.35 49.6 Q75.35 45.3 74.85 41.15 L74.8 38.2 74.95 38.5 89.65 60.05 M-28.75 15.3 L-28.8 15.2 Q-29.0 11.0 -26.85 7.65 -25.7 5.95 -24.2 4.6 -22.45 3.0 -20.45 1.85 L-16.05 -0.45 Q-12.5 -2.0 -8.8 -2.5 L-1.05 -3.15 7.1 -2.45 Q11.25 -1.8 15.35 -0.45 18.15 0.55 20.9 1.7 L24.0 2.95 22.8 4.95 22.05 4.45 22.15 5.25 Q18.65 3.35 14.9 2.0 10.9 0.5 6.7 -0.35 L-1.55 -1.1 -9.25 -0.55 Q-14.0 0.1 -18.4 2.25 L-22.3 4.5 Q-24.65 6.0 -26.2 8.5 -27.1 9.9 -27.6 11.55 L-28.3 14.9 -28.75 15.3" fill="#c28127" fill-rule="evenodd" stroke="none"/>
    <path d="M59.7 46.85 L56.7 36.9 Q55.0 31.85 52.85 27.0 51.2 23.25 48.8 19.85 46.9 17.1 44.25 14.85 42.2 13.05 39.9 11.95 L36.45 10.45 Q34.9 9.8 33.05 9.6 L30.9 9.9 29.95 9.95 29.3 9.95 28.9 9.8 29.75 7.55 Q30.3 6.25 31.4 5.45 35.1 2.6 39.6 1.85 L48.75 2.1 Q53.0 3.25 57.25 5.2 61.5 7.15 65.35 9.85 68.9 12.45 72.0 15.85 75.2 19.25 77.5 23.1 L80.3 28.65 Q81.65 31.55 82.65 34.6 L85.3 43.35 86.8 48.95 88.25 54.55 89.65 60.05 74.95 38.5 Q73.65 34.6 71.55 31.0 L68.5 26.05 Q70.3 33.25 70.6 40.65 L70.6 48.05 70.0 55.4 68.8 62.05 67.0 68.5 64.5 74.7 61.45 80.7 61.55 80.35 62.4 76.4 63.35 68.6 Q63.6 64.75 63.3 60.9 62.7 53.65 60.3 46.5 L59.7 46.85 M66.0 15.05 Q62.4 11.8 57.95 9.8 L53.9 8.25 48.95 6.55 43.7 5.2 Q50.6 7.9 57.4 10.8 59.55 11.8 61.55 13.2 L64.5 15.65 Q68.25 19.4 71.4 24.0 L72.65 25.85 73.9 27.75 75.2 29.9 79.35 36.7 71.75 21.5 Q69.3 17.95 66.0 15.05 M41.5 7.65 Q43.6 8.55 45.55 9.75 47.6 11.15 49.35 12.95 51.35 14.85 53.05 17.1 56.0 21.05 58.25 25.5 60.95 30.8 62.9 36.4 65.15 42.9 67.0 49.8 L66.0 44.95 63.7 36.0 Q62.6 32.1 61.1 28.3 59.8 24.95 58.15 21.75 55.95 17.55 52.9 14.15 50.25 11.1 46.65 9.25 43.25 7.4 39.4 6.9 40.45 7.2 41.5 7.65 M0.55 8.6 L0.65 6.25 0.35 5.65 -0.55 6.35 -0.6 8.8 -8.1 9.9 -8.2 9.05 -8.55 9.95 -14.8 10.15 -14.8 9.7 -15.0 9.35 -15.3 9.35 -15.55 9.65 -15.65 10.1 -20.0 8.95 -19.05 7.25 -20.0 6.85 -20.9 8.3 Q-21.25 7.45 -20.6 6.8 L-18.0 4.75 Q-15.8 3.55 -13.45 3.0 -9.25 1.8 -5.0 1.55 -0.1 0.95 4.7 1.35 9.1 1.55 13.2 3.75 L10.6 3.35 10.75 4.0 15.85 5.6 17.3 7.4 Q17.7 8.0 17.75 8.75 L17.5 9.5 Q17.0 10.1 16.1 9.95 14.55 9.75 13.05 9.05 11.25 8.25 9.1 8.15 L0.55 8.6" fill="#fbee95" fill-rule="evenodd" stroke="none"/>
    <path d="M40.75 51.4 Q40.3 50.55 39.9 48.15 39.45 45.75 37.95 44.35 36.4 42.9 35.25 42.5 33.7 41.9 32.2 41.65 L32.3 41.95 Q30.7 40.25 27.8 40.25 24.4 38.9 21.4 36.4 L19.35 34.5 Q17.15 32.2 15.4 29.4 L13.25 24.9 12.25 23.15 11.65 20.75 10.85 19.3 Q9.4 17.7 7.45 17.0 6.25 16.25 4.35 16.25 L3.1 16.35 2.7 16.15 -7.4 17.1 -7.75 17.5 Q-10.55 17.55 -12.35 18.15 -18.0 19.75 -23.85 19.2 L-24.35 19.7 -28.05 17.35 -28.75 15.3 -28.3 14.9 -27.4 14.85 -26.9 15.4 -27.1 15.45 -27.2 15.9 -27.3 16.2 -26.65 16.5 -24.75 10.75 -24.35 11.2 -25.0 15.5 -24.5 15.5 -24.5 14.25 -24.0 14.0 -23.5 15.6 -22.65 15.75 -22.45 13.75 Q-22.15 10.9 -20.9 8.3 L-20.0 6.85 -19.05 7.25 -20.0 8.95 Q-21.5 11.95 -21.25 15.15 L-21.05 17.15 -19.0 16.5 -18.8 13.55 -17.75 13.6 -17.1 16.1 -15.65 10.1 -15.55 9.65 -15.3 9.35 -15.0 9.35 -14.8 9.7 -14.8 10.15 -14.65 16.55 -12.85 16.2 -12.95 13.95 -11.95 13.65 -11.1 15.8 -8.55 9.95 -8.2 9.05 -8.1 9.9 -7.8 13.3 -5.9 14.8 -4.7 14.4 Q-1.1 12.75 -0.6 8.8 L-0.55 6.35 0.35 5.65 0.65 6.25 0.55 8.6 0.25 14.15 0.75 13.8 1.75 14.1 2.5 9.45 3.15 9.6 4.25 13.85 5.7 13.05 7.25 9.15 8.15 9.5 6.9 14.25 7.8 14.75 10.6 12.9 10.9 13.35 9.65 14.75 14.45 12.25 11.45 15.9 12.85 16.35 16.5 14.75 17.0 15.3 14.1 18.1 14.35 19.0 15.75 18.25 16.25 18.8 15.65 20.0 14.4 20.35 14.55 21.7 16.4 22.05 16.75 22.55 15.55 25.05 17.0 26.0 19.5 25.25 20.0 25.75 18.1 27.3 18.1 29.4 21.5 28.5 22.0 29.0 20.75 30.25 21.0 30.85 22.15 30.65 23.25 31.4 24.25 31.75 25.85 31.35 Q27.65 30.9 29.2 29.9 L28.45 31.35 27.5 32.55 26.2 33.5 24.6 34.4 25.05 36.55 24.9 36.6 25.35 36.85 31.15 31.45 27.75 37.45 30.25 36.45 29.4 38.15 Q30.3 37.75 31.15 37.3 32.9 36.45 33.8 34.85 34.6 33.45 34.85 32.2 35.15 30.85 34.85 29.45 35.3 30.75 35.1 32.3 34.95 33.65 34.4 34.8 33.5 36.6 32.0 37.95 L32.85 38.95 33.4 39.0 34.2 38.2 34.9 37.35 35.4 36.4 36.2 34.3 36.05 39.55 37.1 38.15 37.7 40.6 38.5 40.0 39.15 38.05 39.5 40.9 40.0 41.1 40.2 35.45 Q40.25 31.25 39.1 27.25 37.95 23.4 36.0 19.85 L36.6 20.85 37.8 23.3 Q39.5 26.85 40.4 30.6 L40.85 32.1 42.0 37.1 42.35 39.0 Q43.0 43.25 42.05 46.1 L41.85 46.75 Q41.05 49.05 41.1 49.8 L40.75 51.4 M22.15 5.25 L22.05 4.45 22.8 4.95 21.95 7.1 21.4 6.15 22.15 5.25 M21.5 11.5 L21.9 13.4 21.9 13.45 21.95 13.55 23.05 15.9 21.75 15.75 21.85 14.5 19.8 14.4 19.75 13.95 21.0 12.85 17.45 13.5 17.45 12.6 21.5 11.5 M23.15 16.0 L24.05 16.95 Q25.1 17.95 26.55 18.4 L26.6 19.4 25.5 19.75 24.9 17.7 23.0 19.65 22.75 18.25 21.0 18.25 22.7 16.15 23.15 16.0 M26.9 18.45 L30.1 18.55 30.75 21.2 30.3 20.55 29.65 20.25 30.3 21.6 Q31.2 23.85 29.9 25.9 L29.75 24.7 Q29.05 21.2 26.9 18.45 M31.2 18.4 L32.5 18.15 33.25 19.75 32.75 20.25 31.2 18.4 M33.85 17.8 L33.5 17.5 34.25 17.65 33.85 17.8 M21.7 8.0 L21.4 9.9 19.8 9.05 20.25 8.25 15.85 5.6 10.75 4.0 10.6 3.35 13.2 3.75 15.55 4.4 Q19.0 5.55 21.7 8.0 M33.65 19.45 L34.6 20.9 Q36.25 23.85 36.5 27.35 L33.65 19.45 M-25.6 16.55 L-26.1 16.75 -25.2 17.0 -25.6 16.55" fill="#e7b955" fill-rule="evenodd" stroke="none"/>
    <path d="M26.55 5.1 Q26.6 9.65 29.45 13.25 L31.6 15.8 33.5 17.5 33.85 17.8 32.5 18.15 31.2 18.4 30.1 18.55 26.9 18.45 26.55 18.4 Q25.1 17.95 24.05 16.95 L23.15 16.0 23.05 15.9 21.95 13.55 21.9 13.4 21.5 11.5 21.4 9.9 21.7 8.0 21.95 7.1 22.8 4.95 24.0 2.95 27.65 -0.25 26.55 5.1 M22.9 11.05 Q23.0 12.35 23.5 13.65 24.0 15.05 25.3 15.75 27.7 17.1 30.6 16.75 27.6 14.5 26.0 11.1 24.5 7.85 25.5 4.3 L23.8 5.6 Q23.15 6.45 23.0 7.6 22.75 9.25 22.9 11.05" fill="#26594f" fill-rule="evenodd" stroke="none"/>
    <path d="M22.9 11.05 Q22.75 9.25 23.0 7.6 23.15 6.45 23.8 5.6 L25.5 4.3 Q24.5 7.85 26.0 11.1 27.6 14.5 30.6 16.75 27.7 17.1 25.3 15.75 24.0 15.05 23.5 13.65 23.0 12.35 22.9 11.05" fill="#5bb9a6" fill-rule="evenodd" stroke="none"/>
  </g>
</svg>
