<?xml version="1.0" encoding="UTF-8" standalone="no"?>
<svg xmlns:ffdec="https://www.free-decompiler.com/flash" xmlns:xlink="http://www.w3.org/1999/xlink" ffdec:objectType="shape" height="11.85px" width="20.45px" xmlns="http://www.w3.org/2000/svg">
  <g transform="matrix(1.0, 0.0, 0.0, 1.0, 9.35, 7.75)">
    <path d="M7.55 -3.15 L6.5 -3.85 7.85 -5.9 8.9 -5.25 Q11.1 -3.8 11.1 -1.75 L11.1 -1.7 Q11.35 0.75 7.85 2.55 L7.85 2.5 Q5.05 4.0 1.0 4.1 -3.1 4.15 -5.95 2.8 L-6.0 2.8 Q-9.45 1.05 -9.35 -1.35 L-9.35 -1.4 Q-9.5 -3.65 -6.85 -5.25 L-5.8 -5.9 -4.45 -3.8 -5.55 -3.1 Q-6.8 -2.4 -6.85 -1.45 L-6.85 -1.4 Q-6.7 -0.35 -4.9 0.55 -2.5 1.65 0.95 1.6 4.35 1.5 6.7 0.3 8.45 -0.65 8.6 -1.65 8.5 -2.5 7.55 -3.15" fill="#b23875" fill-rule="evenodd" stroke="none"/>
    <path d="M5.55 -7.75 L6.75 -7.4 Q10.15 -6.3 9.9 -4.35 10.15 -2.4 6.65 -1.3 4.15 -0.45 0.5 -0.45 -3.15 -0.45 -5.7 -1.3 L-5.65 -1.3 Q-9.15 -2.4 -8.9 -4.35 -9.05 -5.8 -6.95 -6.9 L-5.85 -7.45 -4.7 -5.25 -5.8 -4.7 Q-6.25 -4.45 -6.4 -4.35 -6.2 -4.1 -4.9 -3.7 L-4.9 -3.65 Q-2.65 -2.95 0.5 -2.95 3.65 -2.95 5.85 -3.65 L5.9 -3.7 Q7.2 -4.1 7.4 -4.35 L6.0 -5.0 4.8 -5.4 5.55 -7.75" fill="#224d44" fill-rule="evenodd" stroke="none"/>
  </g>
</svg>
