<?xml version="1.0" encoding="UTF-8" standalone="no"?>
<svg xmlns:ffdec="https://www.free-decompiler.com/flash" xmlns:xlink="http://www.w3.org/1999/xlink" ffdec:objectType="shape" height="10.0px" width="20.5px" xmlns="http://www.w3.org/2000/svg">
  <g transform="matrix(1.0, 0.0, 0.0, 1.0, 8.05, 8.1)">
    <path d="M8.6 -5.3 L7.55 -6.0 8.85 -8.1 Q9.4 -7.8 9.9 -7.45 12.55 -5.85 12.45 -3.6 L12.45 -3.55 Q12.5 -1.15 9.1 0.6 6.15 1.95 2.1 1.9 -2.0 1.8 -4.75 0.3 L-4.75 0.35 Q-8.3 -1.45 -8.05 -3.9 L-8.05 -3.95 Q-8.05 -6.0 -5.8 -7.45 L-4.8 -8.1 -3.4 -6.05 -4.45 -5.35 Q-5.45 -4.7 -5.55 -3.85 -5.4 -2.85 -3.6 -1.9 -1.3 -0.7 2.15 -0.6 5.55 -0.55 8.05 -1.65 L8.0 -1.65 Q9.75 -2.55 9.95 -3.6 9.85 -4.55 8.6 -5.3" fill="#b23875" fill-rule="evenodd" stroke="none"/>
  </g>
</svg>
