<?xml version="1.0" encoding="UTF-8" standalone="no"?>
<svg xmlns:ffdec="https://www.free-decompiler.com/flash" xmlns:xlink="http://www.w3.org/1999/xlink" ffdec:objectType="shape" height="7.3px" width="18.8px" xmlns="http://www.w3.org/2000/svg">
  <g transform="matrix(1.0, 0.0, 0.0, 1.0, 6.85, 9.95)">
    <path d="M8.9 -6.9 L7.8 -7.45 8.95 -9.65 10.05 -9.1 Q12.1 -8.0 11.95 -6.55 12.2 -4.6 8.75 -3.5 6.2 -2.65 2.55 -2.65 -1.1 -2.65 -3.6 -3.5 L-3.55 -3.5 Q-7.1 -4.6 -6.85 -6.55 -7.1 -8.5 -3.65 -9.6 L-2.5 -9.95 -1.7 -7.6 -2.9 -7.2 -4.35 -6.55 Q-4.15 -6.3 -2.8 -5.9 L-2.8 -5.85 Q-0.6 -5.15 2.55 -5.15 5.7 -5.15 7.95 -5.85 L7.95 -5.9 8.0 -5.9 Q9.25 -6.3 9.45 -6.55 L8.9 -6.9" fill="#224d44" fill-rule="evenodd" stroke="none"/>
  </g>
</svg>
