<?xml version="1.0" encoding="UTF-8" standalone="no"?>
<svg xmlns:ffdec="https://www.free-decompiler.com/flash" xmlns:xlink="http://www.w3.org/1999/xlink" ffdec:objectType="shape" height="79.2px" width="79.9px" xmlns="http://www.w3.org/2000/svg">
  <g transform="matrix(1.0, 0.0, 0.0, 1.0, 40.85, 50.6)">
    <path d="M-31.15 -29.85 Q-30.85 -27.65 -29.0 -25.75 L-28.95 -28.75 Q-27.55 -28.2 -25.55 -27.8 -15.95 -25.9 -2.85 -28.2 0.4 -28.75 2.4 -27.6 L1.75 -24.75 Q2.6 -25.45 3.25 -26.3 L3.5 -26.7 4.6 -24.95 Q5.6 -14.25 22.0 -7.2 L23.1 -6.75 Q22.25 5.45 13.2 14.35 3.25 24.1 -10.8 24.1 L-14.65 23.9 -17.75 22.45 -17.7 22.5 Q-22.75 19.85 -27.1 15.55 -38.05 4.55 -38.05 -11.0 -38.05 -23.25 -31.25 -32.65 -31.8 -31.45 -31.7 -30.4 L-31.15 -29.85" fill="#ffdfbf" fill-rule="evenodd" stroke="none"/>
    <path d="M11.2 -39.25 L11.0 -39.1 11.1 -39.05 11.2 -39.25 M3.5 -26.7 L4.2 -28.3 Q5.2 -31.55 3.85 -34.65 6.05 -33.95 7.6 -32.2 L8.4 -30.75 9.1 -27.5 Q9.45 -24.0 10.8 -20.7 13.35 -14.45 19.1 -11.0 13.65 -15.55 11.95 -22.45 13.75 -19.45 16.1 -17.0 L18.15 -15.1 Q21.8 -12.05 26.1 -10.7 28.15 -7.15 27.5 -3.05 26.85 1.1 23.5 3.55 26.9 2.3 28.7 -0.9 29.3 -2.05 29.55 -3.45 30.1 -6.75 28.95 -9.85 L31.4 -9.2 31.25 -8.7 Q30.9 5.65 20.65 15.9 10.65 25.9 -3.25 26.5 -7.9 26.15 -12.05 24.85 L-14.65 23.9 -10.8 24.1 Q3.25 24.1 13.2 14.35 22.25 5.45 23.1 -6.75 L22.0 -7.2 Q5.6 -14.25 4.6 -24.95 L3.5 -26.7 M31.95 -11.35 L31.65 -11.55 Q30.8 -12.25 29.7 -12.55 L29.6 -12.55 27.4 -12.7 23.9 -12.8 Q20.65 -14.6 20.0 -15.3 L17.05 -18.15 16.75 -18.6 Q12.45 -19.75 11.0 -30.0 10.3 -35.15 2.15 -36.15 L-3.3 -36.95 -3.55 -37.0 -7.4 -36.8 -8.8 -36.75 -9.15 -36.7 -9.2 -36.75 Q-11.65 -36.6 -12.9 -36.05 L-15.05 -34.95 Q-17.15 -34.0 -19.0 -34.0 L-27.1 -34.25 -30.15 -34.55 -28.05 -36.95 Q-24.55 -40.45 -20.55 -42.9 -11.65 -48.35 -0.55 -48.35 15.55 -48.35 25.5 -37.9 35.4 -27.5 33.35 -17.65 L31.95 -11.35 M-30.9 -33.35 L-30.8 -33.35 Q-31.4 -31.5 -31.15 -29.85 L-31.7 -30.4 Q-31.8 -31.45 -31.25 -32.65 L-30.9 -33.35 M-28.95 -28.75 L-28.8 -29.7 Q-28.4 -31.2 -27.1 -32.3 -21.25 -31.75 -15.6 -33.35 -15.4 -32.15 -14.85 -31.1 -14.05 -29.75 -12.85 -28.55 L-12.35 -28.5 Q-13.05 -31.95 -10.65 -34.4 L-0.55 -35.35 Q1.75 -34.45 2.2 -31.9 2.6 -29.7 2.4 -27.6 0.4 -28.75 -2.85 -28.2 -15.95 -25.9 -25.55 -27.8 -27.55 -28.2 -28.95 -28.75" fill="#ffd5aa" fill-rule="evenodd" stroke="none"/>
    <path d="M31.4 -9.2 L32.0 -9.0 Q33.15 -8.6 34.7 -7.15 35.95 -5.95 36.5 -4.05 34.5 7.1 26.05 15.55 15.05 26.55 -0.5 26.6 L-3.25 26.5 Q10.65 25.9 20.65 15.9 30.9 5.65 31.25 -8.7 L31.4 -9.2 M37.0 -8.45 L35.25 -9.6 31.95 -11.35 33.35 -17.65 Q35.4 -27.5 25.5 -37.9 15.55 -48.35 -0.55 -48.35 -11.65 -48.35 -20.55 -42.9 -11.7 -48.6 -0.5 -48.6 15.05 -48.6 26.05 -37.6 37.05 -26.6 37.05 -11.0 L37.0 -8.45" fill="#ffc58a" fill-rule="evenodd" stroke="none"/>
    <path d="M34.55 -28.2 L33.35 -30.65 32.75 -31.65 Q34.5 -28.45 35.6 -25.05 L36.0 -24.75 34.55 -28.2 M36.5 -4.05 L36.65 -3.35 Q37.05 -0.95 37.5 -0.1 L37.85 -1.7 38.2 -3.55 38.05 -4.2 Q37.9 -5.3 38.1 -6.9 37.85 -7.65 37.0 -8.45 L37.05 -11.0 Q37.05 -26.6 26.05 -37.6 15.05 -48.6 -0.5 -48.6 -11.7 -48.6 -20.55 -42.9 -24.55 -40.45 -28.05 -36.95 L-30.15 -34.55 -31.8 -35.25 -28.85 -38.65 -28.5 -39.0 Q-16.85 -50.6 -0.5 -50.6 15.85 -50.6 27.45 -39.0 39.05 -27.4 39.05 -11.0 39.05 5.35 27.45 16.95 15.85 28.55 -0.5 28.6 -6.95 28.55 -12.65 26.75 -15.8 25.75 -18.65 24.25 -23.95 21.45 -28.5 16.95 -40.05 5.35 -40.05 -11.0 -40.05 -23.15 -33.65 -32.7 L-30.9 -33.35 -31.25 -32.65 Q-38.05 -23.25 -38.05 -11.0 -38.05 4.55 -27.1 15.55 -22.75 19.85 -17.7 22.5 L-17.75 22.45 -14.65 23.9 -12.05 24.85 Q-7.9 26.15 -3.25 26.5 L-0.5 26.6 Q15.05 26.55 26.05 15.55 34.5 7.1 36.5 -4.05" fill="#5c4730" fill-rule="evenodd" stroke="none"/>
    <path d="M34.55 -28.2 L36.0 -24.75 35.6 -25.05 Q34.5 -28.45 32.75 -31.65 L33.35 -30.65 34.55 -28.2 M11.2 -39.25 L11.1 -39.05 11.0 -39.1 11.2 -39.25 M31.4 -9.2 L28.95 -9.85 Q30.1 -6.75 29.55 -3.45 29.3 -2.05 28.7 -0.9 26.9 2.3 23.5 3.55 26.85 1.1 27.5 -3.05 28.15 -7.15 26.1 -10.7 21.8 -12.05 18.15 -15.1 L16.1 -17.0 Q13.75 -19.45 11.95 -22.45 13.65 -15.55 19.1 -11.0 13.35 -14.45 10.8 -20.7 9.45 -24.0 9.1 -27.5 L8.4 -30.75 7.6 -32.2 Q6.05 -33.95 3.85 -34.65 5.2 -31.55 4.2 -28.3 L3.5 -26.7 3.25 -26.3 Q2.6 -25.45 1.75 -24.75 L2.4 -27.6 Q2.6 -29.7 2.2 -31.9 1.75 -34.45 -0.55 -35.35 L-10.65 -34.4 Q-13.05 -31.95 -12.35 -28.5 L-12.85 -28.55 Q-14.05 -29.75 -14.85 -31.1 -15.4 -32.15 -15.6 -33.35 -21.25 -31.75 -27.1 -32.3 -28.4 -31.2 -28.8 -29.7 L-28.95 -28.75 -29.0 -25.75 Q-30.85 -27.65 -31.15 -29.85 -31.4 -31.5 -30.8 -33.35 L-30.9 -33.35 -33.65 -32.7 Q-35.65 -31.95 -37.25 -30.45 -38.4 -29.35 -39.05 -27.85 L-40.25 -24.5 -40.75 -24.25 Q-41.45 -28.95 -38.2 -32.55 -36.6 -34.25 -34.75 -35.05 L-32.45 -36.0 -31.8 -35.25 -30.15 -34.55 -27.1 -34.25 -19.0 -34.0 Q-17.15 -34.0 -15.05 -34.95 L-12.9 -36.05 Q-11.65 -36.6 -9.2 -36.75 L-9.15 -36.7 -8.8 -36.75 -7.4 -36.8 -3.55 -37.0 -3.3 -36.95 2.15 -36.15 Q10.3 -35.15 11.0 -30.0 12.45 -19.75 16.75 -18.6 L17.05 -18.15 20.0 -15.3 Q20.65 -14.6 23.9 -12.8 L27.4 -12.7 29.6 -12.55 29.7 -12.55 Q30.8 -12.25 31.65 -11.55 L31.95 -11.35 35.25 -9.6 37.0 -8.45 Q37.85 -7.65 38.1 -6.9 37.9 -5.3 38.05 -4.2 L38.2 -3.55 37.85 -1.7 37.5 -0.1 Q37.05 -0.95 36.65 -3.35 L36.5 -4.05 Q35.95 -5.95 34.7 -7.15 33.15 -8.6 32.0 -9.0 L31.4 -9.2" fill="#e7b955" fill-rule="evenodd" stroke="none"/>
  </g>
</svg>
