<?xml version="1.0" encoding="UTF-8" standalone="no"?>
<svg xmlns:ffdec="https://www.free-decompiler.com/flash" xmlns:xlink="http://www.w3.org/1999/xlink" ffdec:objectType="shape" height="61.35px" width="38.6px" xmlns="http://www.w3.org/2000/svg">
  <g transform="matrix(1.0, 0.0, 0.0, 1.0, 7.95, 10.1)">
    <path d="M-0.15 -10.0 Q3.95 -10.9 8.15 -3.95 L15.55 8.2 Q18.7 13.45 20.3 16.95 L24.4 26.5 Q26.3 31.15 27.85 35.9 L30.65 44.9 Q29.7 47.75 27.35 49.6 23.3 52.75 19.1 49.85 L17.9 48.8 Q15.1 44.75 12.9 40.15 L9.15 32.35 4.8 23.3 Q2.55 18.5 -0.1 13.7 L-7.3 1.45 Q-8.3 -0.7 -7.8 -2.65 0.35 11.2 1.75 14.1 3.55 18.0 6.2 22.55 8.85 27.1 10.95 31.4 L14.6 39.2 Q16.5 43.35 19.2 46.85 22.5 50.9 26.35 47.7 27.7 46.4 28.5 44.7 L26.75 38.9 23.65 30.0 20.25 21.65 Q18.45 17.35 16.15 13.15 L8.25 -0.8 Q2.65 -10.55 -0.15 -10.0" fill="#5c4730" fill-rule="evenodd" stroke="none"/>
    <path d="M-4.15 -8.05 L-0.15 -10.0 Q2.65 -10.55 8.25 -0.8 L16.15 13.15 Q18.45 17.35 20.25 21.65 L23.65 30.0 26.75 38.9 28.5 44.7 Q27.7 46.4 26.35 47.7 L25.8 46.05 Q24.0 40.5 16.55 21.8 9.05 3.05 3.95 -2.75 -1.2 -8.55 -4.15 -8.05" fill="#ffc58a" fill-rule="evenodd" stroke="none"/>
    <path d="M-7.8 -2.65 Q-6.7 -5.2 -6.05 -5.9 L-4.15 -8.05 Q-1.2 -8.55 3.95 -2.75 9.05 3.05 16.55 21.8 24.0 40.5 25.8 46.05 L26.35 47.7 Q22.5 50.9 19.2 46.85 16.5 43.35 14.6 39.2 L10.95 31.4 Q8.85 27.1 6.2 22.55 3.55 18.0 1.75 14.1 0.35 11.2 -7.8 -2.65" fill="#ffd5aa" fill-rule="evenodd" stroke="none"/>
  </g>
</svg>
