<?xml version="1.0" encoding="UTF-8" standalone="no"?>
<svg xmlns:ffdec="https://www.free-decompiler.com/flash" xmlns:xlink="http://www.w3.org/1999/xlink" ffdec:objectType="shape" height="31.65px" width="21.2px" xmlns="http://www.w3.org/2000/svg">
  <g transform="matrix(1.0, 0.0, 0.0, 1.0, 8.05, 32.8)">
    <path d="M2.55 -1.85 L1.9 -2.25 1.1 -2.65 1.6 -3.65 Q0.5 -13.65 -4.5 -22.6 L-7.95 -28.65 -8.05 -29.2 -7.85 -29.8 -7.4 -30.1 1.05 -32.5 Q4.95 -33.55 7.5 -30.65 L9.0 -28.6 9.05 -27.9 8.65 -26.3 8.65 -26.25 8.7 -23.65 Q9.0 -14.35 12.5 -5.95 L13.15 -5.35 12.85 -5.05 12.8 -4.5 12.25 -3.95 11.9 -3.5 11.9 -3.25 Q11.95 -2.85 11.55 -4.2 L11.55 -4.25 11.5 -4.3 11.5 -4.35 11.5 -4.2 11.45 -4.0 11.5 -4.0 11.6 -4.0 11.7 -3.6 11.6 -3.55 11.9 -2.2 11.55 -3.5 11.3 -3.3 11.2 -3.25 10.8 -3.65 10.75 -3.7 10.45 -3.55 Q8.95 -8.6 6.95 -19.85 L6.95 -20.05 6.7 -23.55 6.7 -26.35 6.75 -26.7 7.05 -27.95 6.05 -29.35 Q4.25 -31.3 1.55 -30.6 L-5.6 -28.55 -0.7 -19.65 -0.55 -19.35 -0.4 -19.05 -0.2 -18.65 Q2.3 -9.9 2.45 -4.4 L2.55 -1.85 M1.65 -3.15 L1.65 -3.1 1.65 -3.15" fill="#5c4730" fill-rule="evenodd" stroke="none"/>
    <path d="M2.55 -1.85 L2.45 -4.4 Q2.3 -9.9 -0.2 -18.65 3.65 -18.7 5.75 -19.65 L6.95 -19.85 Q8.95 -8.6 10.45 -3.55 L10.55 -2.9 Q5.6 -0.65 3.7 -1.5 L3.5 -2.0 3.45 -1.65 3.6 -1.5 3.55 -1.55 3.4 -1.6 3.4 -1.45 3.35 -1.3 3.2 -1.5 3.05 -1.6 2.55 -1.85" fill="#ffd5aa" fill-rule="evenodd" stroke="none"/>
    <path d="M-0.2 -18.65 L-0.4 -19.05 -0.55 -19.35 -0.7 -19.65 -5.6 -28.55 1.55 -30.6 Q4.25 -31.3 6.05 -29.35 L7.05 -27.95 6.75 -26.7 6.7 -26.35 6.7 -23.55 6.95 -20.05 6.95 -19.85 5.75 -19.65 Q3.65 -18.7 -0.2 -18.65 M10.45 -3.55 L10.75 -3.7 10.8 -3.65 11.2 -3.25 10.65 -2.95 10.7 -2.7 10.6 -2.95 10.55 -2.9 10.45 -3.55 M11.7 -3.6 L11.6 -4.0 11.5 -4.0 11.45 -4.0 11.5 -4.2 11.5 -4.25 11.5 -4.3 11.55 -4.25 11.55 -4.2 11.6 -4.0 11.7 -3.6 M3.2 -1.5 L3.35 -1.3 3.2 -1.2 3.2 -1.5" fill="#ffc58a" fill-rule="evenodd" stroke="none"/>
  </g>
</svg>
