<?xml version="1.0" encoding="UTF-8" standalone="no"?>
<svg xmlns:ffdec="https://www.free-decompiler.com/flash" xmlns:xlink="http://www.w3.org/1999/xlink" ffdec:objectType="shape" height="30.85px" width="41.2px" xmlns="http://www.w3.org/2000/svg">
  <g transform="matrix(1.0, 0.0, 0.0, 1.0, 34.55, 7.1)">
    <path d="M-31.4 13.95 L-31.4 14.0 -31.4 13.95" fill="#463624" fill-rule="evenodd" stroke="none"/>
    <path d="M4.55 4.9 L4.65 4.75 4.5 9.6 4.05 9.55 Q-2.45 9.55 -2.3 16.85 L-2.3 18.1 -2.25 18.4 -2.0 18.25 -2.25 18.4 -3.0 18.85 Q-9.55 22.7 -18.3 21.4 L-18.3 21.45 Q-25.45 20.2 -29.65 12.95 L-29.7 12.95 Q-30.75 11.15 -32.1 9.6 L-28.3 10.45 -28.0 10.5 -26.95 10.65 -26.95 10.7 -28.15 10.5 -28.3 10.5 -30.1 10.1 -29.6 10.5 Q-25.45 13.85 -25.0 13.85 L-24.5 13.7 Q-22.4 14.55 -18.4 14.55 -7.75 14.55 -0.3 9.3 3.1 6.9 4.55 4.9" fill="#57352d" fill-rule="evenodd" stroke="none"/>
    <path d="M-26.95 10.65 L-26.9 10.65 Q-21.85 11.35 -16.55 10.5 L-16.5 10.5 Q-2.9 8.15 4.1 -3.25 L4.2 -2.45 4.6 3.05 4.55 3.15 4.35 3.4 2.35 5.3 -1.75 8.9 Q-4.5 10.7 -7.9 11.75 -13.5 13.4 -18.05 13.4 -22.95 13.4 -24.9 12.55 L-25.1 12.55 Q-26.1 11.35 -26.95 10.7 L-26.95 10.65" fill="#e5e5e5" fill-rule="evenodd" stroke="none"/>
    <path d="M4.4 10.7 L4.35 11.2 4.25 12.1 4.2 12.15 Q1.7 15.55 -1.35 17.8 -1.1 15.25 -0.7 14.4 L0.1 11.85 Q1.1 10.55 4.4 10.7" fill="#b45f50" fill-rule="evenodd" stroke="none"/>
    <path d="M4.35 3.4 L4.55 3.15 4.6 3.05 4.2 -2.45 4.1 -3.25 Q-2.9 8.15 -16.5 10.5 L-16.55 10.5 Q-21.85 11.35 -26.9 10.65 L-26.95 10.65 -28.0 10.5 -28.3 10.45 -32.1 9.6 Q-30.75 11.15 -29.7 12.95 L-29.65 12.95 Q-25.45 20.2 -18.3 21.45 L-18.3 21.4 Q-9.55 22.7 -3.0 18.85 L-2.25 18.4 -2.0 18.25 -1.35 17.8 Q1.7 15.55 4.2 12.15 L4.25 12.1 4.35 11.2 4.4 10.7 4.5 9.6 4.65 4.75 4.55 4.9 4.35 3.4 M-31.4 13.95 Q-33.45 9.3 -34.55 7.45 L-34.15 7.1 -33.4 7.05 Q-25.4 9.85 -16.85 8.55 -2.9 6.15 3.6 -6.45 3.8 -6.8 4.2 -6.95 L4.55 -7.0 4.6 -7.0 4.75 -7.1 6.2 -0.35 Q7.05 4.85 6.25 12.35 L6.0 12.95 5.8 13.35 Q-3.25 25.65 -18.6 23.4 -26.65 22.1 -31.4 14.0 L-31.4 13.95 M-28.15 10.5 L-29.6 10.5 -30.1 10.1 -28.3 10.5 -28.15 10.5" fill="#a12e65" fill-rule="evenodd" stroke="none"/>
    <path d="M4.35 3.4 L4.55 4.9 Q3.1 6.9 -0.3 9.3 -7.75 14.55 -18.4 14.55 -22.4 14.55 -24.5 13.7 L-25.0 13.85 Q-25.45 13.85 -29.6 10.5 L-28.15 10.5 -26.95 10.7 Q-26.1 11.35 -25.1 12.55 L-24.9 12.55 Q-22.95 13.4 -18.05 13.4 -13.5 13.4 -7.9 11.75 -4.5 10.7 -1.75 8.9 L2.35 5.3 4.35 3.4" fill="#333333" fill-rule="evenodd" stroke="none"/>
    <path d="M4.5 9.6 L4.4 10.7 Q1.1 10.55 0.1 11.85 L-0.7 14.4 Q-1.1 15.25 -1.35 17.8 L-2.0 18.25 -2.25 18.4 -2.3 18.1 -2.3 16.85 Q-2.45 9.55 4.05 9.55 L4.5 9.6" fill="#42211c" fill-rule="evenodd" stroke="none"/>
  </g>
</svg>
