<?xml version="1.0" encoding="UTF-8" standalone="no"?>
<svg xmlns:ffdec="https://www.free-decompiler.com/flash" xmlns:xlink="http://www.w3.org/1999/xlink" ffdec:objectType="shape" height="25.9px" width="35.65px" xmlns="http://www.w3.org/2000/svg">
  <g transform="matrix(1.0, 0.0, 0.0, 1.0, 27.8, 2.8)">
    <path d="M-20.9 7.65 Q-17.4 11.5 -15.6 11.5 -14.75 11.5 -8.2 8.75 -1.6 6.0 2.05 6.0 4.3 6.0 4.65 6.6 5.05 7.2 6.35 7.2 L6.45 7.2 6.45 7.25 6.6 8.75 Q7.25 12.3 5.0 15.4 4.8 14.05 3.0 12.5 0.3 10.15 -4.25 10.15 -9.0 10.15 -11.5 13.6 -13.1 15.85 -13.1 17.65 -13.1 20.6 -9.25 20.6 -6.75 20.6 -4.0 18.1 -3.35 18.65 -2.6 18.85 -2.6 19.2 -3.35 19.55 -4.1 19.95 -4.1 20.4 L-4.05 20.65 -4.0 20.65 Q-8.55 21.75 -15.0 21.75 L-21.55 21.5 Q-21.45 17.75 -21.6 15.85 -21.95 12.55 -24.4 10.75 L-21.55 8.15 -20.9 7.6 -20.9 7.65" fill="#57352d" fill-rule="evenodd" stroke="none"/>
    <path d="M4.15 16.4 L1.7 18.35 1.75 17.75 Q1.25 13.15 -1.9 13.15 L-3.6 15.35 Q-5.3 17.5 -8.25 17.5 -10.55 17.5 -11.65 16.15 -10.1 11.4 -4.25 11.4 1.0 11.4 2.75 13.95 L3.6 15.7 Q3.8 16.2 4.15 16.4" fill="#b45f50" fill-rule="evenodd" stroke="none"/>
    <path d="M5.95 5.65 L5.45 5.35 Q4.85 4.7 2.25 4.7 L0.75 4.75 Q-14.25 10.35 -15.75 10.35 -16.25 10.35 -18.15 8.55 L-20.05 6.95 -16.3 4.35 Q-8.45 -0.75 -3.0 -0.75 2.3 -0.75 4.9 3.55 L5.95 5.65" fill="#e5e5e5" fill-rule="evenodd" stroke="none"/>
    <path d="M1.7 18.35 L0.1 19.2 0.0 19.0 -0.1 18.3 -0.1 18.2 -0.25 17.9 -0.35 17.75 -2.0 16.95 -2.3 16.9 -1.95 15.65 -1.65 14.2 -2.0 13.85 -2.4 14.0 Q-3.0 15.7 -4.55 17.15 -6.8 19.25 -9.85 19.25 -12.0 19.25 -12.0 17.4 L-11.65 16.15 Q-10.55 17.5 -8.25 17.5 -5.3 17.5 -3.6 15.35 L-1.9 13.15 Q1.25 13.15 1.75 17.75 L1.7 18.35 M-1.4 14.9 L-1.4 13.55 -1.45 14.2 -1.65 14.25 -1.75 15.3 -1.75 15.65 -1.4 14.9" fill="#a05345" fill-rule="evenodd" stroke="none"/>
    <path d="M5.95 5.65 L4.9 3.55 Q2.3 -0.75 -3.0 -0.75 -8.45 -0.75 -16.3 4.35 L-20.05 6.95 -20.9 7.65 -20.9 7.6 -21.55 8.15 -24.4 10.75 Q-21.95 12.55 -21.6 15.85 -21.45 17.75 -21.55 21.5 L-15.0 21.75 Q-8.55 21.75 -4.0 20.65 L-3.95 20.65 -3.15 20.4 -0.1 19.3 0.1 19.2 1.7 18.35 4.15 16.4 5.0 15.4 Q7.25 12.3 6.6 8.75 L6.45 7.25 6.45 7.2 5.95 5.65 M7.85 8.6 Q7.85 13.75 5.75 16.5 0.65 23.1 -15.1 23.1 L-22.95 23.05 -23.1 22.8 Q-22.9 22.4 -23.05 22.1 L-22.9 20.75 -22.8 18.25 Q-22.8 11.75 -25.7 11.75 -26.25 11.75 -27.25 12.6 -27.8 12.4 -27.8 11.8 -11.1 -2.8 -1.4 -2.8 3.7 -2.8 6.3 2.75 7.6 5.55 7.85 8.6 M-20.05 6.95 L-20.6 7.4 -20.05 6.95" fill="#a12e65" fill-rule="evenodd" stroke="none"/>
    <path d="M-20.05 6.95 L-18.15 8.55 Q-16.25 10.35 -15.75 10.35 -14.25 10.35 0.75 4.75 L2.25 4.7 Q4.85 4.7 5.45 5.35 L5.95 5.65 6.45 7.2 6.35 7.2 Q5.05 7.2 4.65 6.6 4.3 6.0 2.05 6.0 -1.6 6.0 -8.2 8.75 -14.75 11.5 -15.6 11.5 -17.4 11.5 -20.9 7.65 L-20.05 6.95" fill="#333333" fill-rule="evenodd" stroke="none"/>
    <path d="M5.0 15.4 L4.15 16.4 Q3.8 16.2 3.6 15.7 L2.75 13.95 Q1.0 11.4 -4.25 11.4 -10.1 11.4 -11.65 16.15 L-12.0 17.4 Q-12.0 19.25 -9.85 19.25 -6.8 19.25 -4.55 17.15 -3.0 15.7 -2.4 14.0 L-2.0 13.85 -1.65 14.2 -1.95 15.65 -2.7 16.85 -2.8 16.95 -2.65 16.9 -2.3 16.9 -2.0 16.95 -0.35 17.75 -0.25 17.9 -0.1 18.2 -0.1 18.3 0.0 19.0 -0.1 19.3 -3.15 20.4 -4.05 20.65 -4.1 20.4 Q-4.1 19.95 -3.35 19.55 -2.6 19.2 -2.6 18.85 -3.35 18.65 -4.0 18.1 -6.75 20.6 -9.25 20.6 -13.1 20.6 -13.1 17.65 -13.1 15.85 -11.5 13.6 -9.0 10.15 -4.25 10.15 0.3 10.15 3.0 12.5 4.8 14.05 5.0 15.4 M-1.4 14.9 L-1.75 15.65 -1.75 15.3 -1.65 14.25 -1.45 14.2 -1.4 13.55 -1.4 14.9" fill="#42211c" fill-rule="evenodd" stroke="none"/>
  </g>
</svg>
