<?xml version="1.0" encoding="UTF-8" standalone="no"?>
<svg xmlns:ffdec="https://www.free-decompiler.com/flash" xmlns:xlink="http://www.w3.org/1999/xlink" ffdec:objectType="shape" height="21.1px" width="32.35px" xmlns="http://www.w3.org/2000/svg">
  <g transform="matrix(1.0, 0.0, 0.0, 1.0, 29.4, -0.65)">
    <path d="M2.45 0.75 Q3.35 0.85 2.65 0.85 L2.6 0.85 2.45 0.75" fill="#463624" fill-rule="evenodd" stroke="none"/>
    <path d="M1.45 2.75 L1.6 2.95 1.35 3.05 1.4 2.9 1.45 2.75" fill="#463623" fill-rule="evenodd" stroke="none"/>
    <path d="M-2.9 14.55 Q-6.15 18.5 -12.85 19.45 -12.5 17.8 -11.9 16.75 -10.2 13.85 -5.45 13.85 -4.9 13.85 -2.9 14.55" fill="#b45f50" fill-rule="evenodd" stroke="none"/>
    <path d="M-13.95 19.6 L-17.45 19.75 -23.5 19.35 Q-23.25 18.65 -23.55 18.0 L-24.75 15.5 Q-25.75 13.1 -26.5 11.95 -23.45 13.05 -17.55 12.9 -10.1 12.65 -4.65 8.95 -1.0 6.45 0.45 4.65 L0.25 5.85 Q-0.3 9.55 -1.2 11.7 L-2.1 13.45 Q-3.6 12.75 -5.5 12.75 -12.2 12.75 -13.95 19.6" fill="#57352d" fill-rule="evenodd" stroke="none"/>
    <path d="M2.45 0.75 L2.6 0.85 Q2.0 0.95 1.45 2.75 L1.4 2.9 1.35 3.05 1.6 2.95 1.75 3.75 Q1.75 8.75 -0.75 13.25 -5.45 21.75 -17.1 21.75 -21.25 21.75 -22.8 21.0 -24.9 20.0 -25.75 16.75 -26.25 14.9 -28.25 11.4 L-28.25 11.0 -28.1 10.95 -29.4 8.7 Q-19.7 12.0 -9.95 8.7 -3.2 6.25 1.65 0.85 L2.45 0.75 M-2.1 13.45 L-1.2 11.7 Q-0.3 9.55 0.25 5.85 L0.45 4.65 Q-1.0 6.45 -4.65 8.95 -10.1 12.65 -17.55 12.9 -23.45 13.05 -26.5 11.95 -25.75 13.1 -24.75 15.5 L-23.55 18.0 Q-23.25 18.65 -23.5 19.35 L-17.45 19.75 -13.95 19.6 -12.85 19.45 Q-6.15 18.5 -2.9 14.55 L-2.1 13.45" fill="#a12e65" fill-rule="evenodd" stroke="none"/>
    <path d="M-13.95 19.6 Q-12.2 12.75 -5.5 12.75 -3.6 12.75 -2.1 13.45 L-2.9 14.55 Q-4.9 13.85 -5.45 13.85 -10.2 13.85 -11.9 16.75 -12.5 17.8 -12.85 19.45 L-13.95 19.6" fill="#42211c" fill-rule="evenodd" stroke="none"/>
  </g>
</svg>
