<?xml version="1.0" encoding="UTF-8" standalone="no"?>
<svg xmlns:ffdec="https://www.free-decompiler.com/flash" xmlns:xlink="http://www.w3.org/1999/xlink" ffdec:objectType="shape" height="20.1px" width="32.35px" xmlns="http://www.w3.org/2000/svg">
  <g transform="matrix(1.0, 0.0, 0.0, 1.0, 30.15, -1.15)">
    <path d="M1.7 1.25 Q2.6 1.35 1.9 1.35 L1.8 1.4 1.7 1.25" fill="#463624" fill-rule="evenodd" stroke="none"/>
    <path d="M-23.3 18.7 L-17.95 17.4 -17.5 17.3 Q-17.6 17.0 -18.0 17.0 L-22.35 16.75 -23.8 16.95 Q-23.95 16.35 -24.25 15.85 -25.4 13.9 -28.0 11.45 -23.7 13.3 -17.65 12.6 -11.7 11.9 -7.3 9.85 -2.9 7.75 -0.15 4.85 -1.25 7.35 -0.75 10.55 -0.25 13.8 -5.65 16.55 -11.05 19.25 -17.55 19.25 L-23.3 18.7" fill="#e5e5e5" fill-rule="evenodd" stroke="none"/>
    <path d="M1.7 1.25 L1.8 1.4 Q1.4 1.45 1.1 2.15 L1.25 3.3 Q1.25 5.1 -0.25 12.4 -1.35 18.15 -16.5 21.25 -24.65 21.25 -24.65 18.25 -24.65 17.35 -26.45 14.6 L-28.05 12.15 -28.65 11.8 -30.15 9.2 Q-20.45 12.5 -10.7 9.2 -3.95 6.75 0.9 1.35 L1.7 1.25 M-23.8 16.95 L-23.3 18.7 -17.55 19.25 Q-11.05 19.25 -5.65 16.55 -0.25 13.8 -0.75 10.55 -1.25 7.35 -0.15 4.85 -2.9 7.75 -7.3 9.85 -11.7 11.9 -17.65 12.6 -23.7 13.3 -28.0 11.45 -25.4 13.9 -24.25 15.85 -23.95 16.35 -23.8 16.95" fill="#a12e65" fill-rule="evenodd" stroke="none"/>
    <path d="M-23.8 16.95 L-22.35 16.75 -18.0 17.0 Q-17.6 17.0 -17.5 17.3 L-17.95 17.4 -23.3 18.7 -23.8 16.95" fill="#333333" fill-rule="evenodd" stroke="none"/>
  </g>
</svg>
