<?xml version="1.0" encoding="UTF-8" standalone="no"?>
<svg xmlns:ffdec="https://www.free-decompiler.com/flash" xmlns:xlink="http://www.w3.org/1999/xlink" ffdec:objectType="shape" height="16.6px" width="36.9px" xmlns="http://www.w3.org/2000/svg">
  <g transform="matrix(1.0, 0.0, 0.0, 1.0, 32.15, 1.6)">
    <path d="M-3.7 13.1 Q-4.05 11.8 -3.35 9.75 -2.5 7.1 -1.25 7.1 L2.3 7.35 2.35 7.35 1.15 9.6 Q-0.6 12.75 -1.95 12.75 -3.4 12.75 -3.7 13.1" fill="#b45f50" fill-rule="evenodd" stroke="none"/>
    <path d="M2.75 5.95 L2.25 5.75 -0.75 5.25 Q-2.45 5.2 -3.6 7.55 -4.75 9.85 -4.95 11.3 L-5.1 12.9 -6.25 12.45 -12.5 11.15 -16.35 10.25 Q-11.35 9.35 -7.4 6.7 -3.25 3.85 -1.9 1.9 2.75 2.9 2.75 5.85 L2.75 5.95" fill="#57352d" fill-rule="evenodd" stroke="none"/>
    <path d="M-0.2 -1.35 Q-0.4 -1.35 -0.55 -1.15 4.2 -1.1 4.75 6.1 1.7 15.2 -3.3 15.0 -8.35 14.75 -14.3 13.5 -20.0 12.3 -23.5 10.65 -28.4 10.45 -30.65 9.05 L-32.15 6.45 Q-22.45 9.75 -12.7 6.45 -5.95 4.0 -1.1 -1.4 L-0.3 -1.5 -0.2 -1.35 M2.5 6.95 L2.75 5.95 2.75 5.85 Q2.75 2.9 -1.9 1.9 -3.25 3.85 -7.4 6.7 -11.35 9.35 -16.35 10.25 L-12.5 11.15 -6.25 12.45 -5.1 12.9 -3.7 13.1 Q-3.4 12.75 -1.95 12.75 -0.6 12.75 1.15 9.6 L2.35 7.35 2.5 6.95" fill="#a12e65" fill-rule="evenodd" stroke="none"/>
    <path d="M2.3 7.35 L-1.25 7.1 Q-2.5 7.1 -3.35 9.75 -4.05 11.8 -3.7 13.1 L-5.1 12.9 -4.95 11.3 Q-4.75 9.85 -3.6 7.55 -2.45 5.2 -0.75 5.25 L2.25 5.75 2.75 5.95 2.5 6.95 2.3 7.35" fill="#42211c" fill-rule="evenodd" stroke="none"/>
  </g>
</svg>
