<?xml version="1.0" encoding="UTF-8" standalone="no"?>
<svg xmlns:ffdec="https://www.free-decompiler.com/flash" xmlns:xlink="http://www.w3.org/1999/xlink" ffdec:objectType="shape" height="7.85px" width="23.45px" xmlns="http://www.w3.org/2000/svg">
  <g transform="matrix(1.0, 0.0, 0.0, 1.0, 25.05, -10.15)">
    <path d="M-11.1 15.2 L-11.25 15.2 -14.6 14.9 -19.75 15.6 -19.75 14.65 Q-19.75 13.85 -20.3 12.75 -17.45 11.4 -6.95 11.4 L-4.4 11.65 -4.1 11.6 -3.65 11.85 -3.7 11.85 -4.75 11.65 Q-7.3 11.65 -9.25 12.9 -11.0 14.05 -11.1 15.2" fill="#57352d" fill-rule="evenodd" stroke="none"/>
    <path d="M-2.95 12.6 Q-2.5 13.35 -2.5 14.55 -2.5 16.15 -3.1 16.15 L-9.0 15.55 -9.75 15.4 -9.7 15.35 Q-8.9 15.35 -8.85 15.0 -8.8 14.3 -7.75 13.6 -7.15 13.15 -5.2 13.2 -3.65 13.2 -2.95 12.6" fill="#b45f50" fill-rule="evenodd" stroke="none"/>
    <path d="M-7.0 10.15 L-4.25 10.45 Q-1.5 11.15 -1.6 14.5 -1.6 17.25 -3.65 17.25 L-8.8 16.65 -15.1 16.0 Q-18.25 16.0 -20.85 17.0 -23.45 18.0 -24.1 18.0 L-24.55 17.9 -24.75 17.4 Q-24.75 16.75 -20.95 15.85 L-20.55 15.75 Q-21.5 14.85 -21.5 12.7 L-24.9 14.0 Q-25.05 14.4 -25.05 13.75 -25.05 13.0 -20.85 12.0 L-21.3 12.1 Q-20.8 11.55 -19.05 11.3 L-14.65 10.85 -11.6 10.55 -8.75 10.25 -7.0 10.15 M-3.65 11.85 L-4.1 11.6 -4.4 11.65 -6.95 11.4 Q-17.45 11.4 -20.3 12.75 -19.75 13.85 -19.75 14.65 L-19.75 15.6 -14.6 14.9 -11.25 15.2 -11.1 15.2 -9.7 15.35 -9.75 15.4 -9.0 15.55 -3.1 16.15 Q-2.5 16.15 -2.5 14.55 -2.5 13.35 -2.95 12.6 L-3.6 11.9 -3.65 11.85" fill="#a12e65" fill-rule="evenodd" stroke="none"/>
    <path d="M-3.6 11.9 L-2.95 12.6 Q-3.65 13.2 -5.2 13.2 -7.15 13.15 -7.75 13.6 -8.8 14.3 -8.85 15.0 -8.9 15.35 -9.7 15.35 L-11.1 15.2 Q-11.0 14.05 -9.25 12.9 -7.3 11.65 -4.75 11.65 L-3.7 11.85 -3.6 11.9" fill="#42211c" fill-rule="evenodd" stroke="none"/>
  </g>
</svg>
