<?xml version="1.0" encoding="UTF-8" standalone="no"?>
<svg xmlns:ffdec="https://www.free-decompiler.com/flash" xmlns:xlink="http://www.w3.org/1999/xlink" ffdec:objectType="shape" height="9.0px" width="18.3px" xmlns="http://www.w3.org/2000/svg">
  <g transform="matrix(1.0, 0.0, 0.0, 1.0, 29.55, -10.75)">
    <path d="M-15.0 13.6 L-14.4 14.2 Q-13.7 14.6 -13.35 15.6 -17.75 18.65 -27.0 18.65 -28.5 18.65 -28.5 16.4 -28.5 11.3 -15.0 13.6" fill="#b45f50" fill-rule="evenodd" stroke="none"/>
    <path d="M-16.0 18.25 Q-20.4 19.75 -25.25 19.75 -30.3 19.75 -29.4 16.4 -29.4 13.2 -23.0 12.15 L-22.2 12.0 -21.9 12.0 Q-21.35 10.75 -17.6 10.75 -10.85 10.75 -11.25 14.75 -11.35 16.1 -12.0 16.75 L-12.2 16.25 -12.4 16.45 -12.6 16.65 -12.75 16.75 Q-13.75 17.45 -16.0 18.25 M-15.0 13.6 Q-28.5 11.3 -28.5 16.4 -28.5 18.65 -27.0 18.65 -17.75 18.65 -13.35 15.6 -13.7 14.6 -14.4 14.2 L-15.0 13.6" fill="#a12e65" fill-rule="evenodd" stroke="none"/>
  </g>
</svg>
