<?xml version="1.0" encoding="UTF-8" standalone="no"?>
<svg xmlns:ffdec="https://www.free-decompiler.com/flash" xmlns:xlink="http://www.w3.org/1999/xlink" ffdec:objectType="shape" height="9.0px" width="17.25px" xmlns="http://www.w3.org/2000/svg">
  <g transform="matrix(1.0, 0.0, 0.0, 1.0, 26.0, -10.5)">
    <path d="M-10.0 14.75 Q-10.0 16.5 -10.75 16.6 L-22.5 17.9 -22.65 17.65 Q-23.25 14.5 -24.65 13.0 -23.45 11.6 -19.5 11.6 -10.0 11.6 -10.0 14.75" fill="#57352d" fill-rule="evenodd" stroke="none"/>
    <path d="M-17.25 10.5 Q-12.55 10.5 -10.3 12.2 -8.75 13.35 -8.75 14.75 L-9.25 16.3 -9.9 17.65 Q-11.2 19.05 -14.25 18.75 L-19.25 18.5 -23.0 19.5 -26.0 12.9 Q-26.0 11.5 -19.25 10.6 L-17.25 10.5 M-10.0 14.75 Q-10.0 11.6 -19.5 11.6 -23.45 11.6 -24.65 13.0 -23.25 14.5 -22.65 17.65 L-22.5 17.9 -10.75 16.6 Q-10.0 16.5 -10.0 14.75" fill="#a12e65" fill-rule="evenodd" stroke="none"/>
  </g>
</svg>
