<?xml version="1.0" encoding="UTF-8" standalone="no"?>
<svg xmlns:ffdec="https://www.free-decompiler.com/flash" xmlns:xlink="http://www.w3.org/1999/xlink" ffdec:objectType="shape" height="7.5px" width="18.35px" xmlns="http://www.w3.org/2000/svg">
  <g transform="matrix(1.0, 0.0, 0.0, 1.0, 28.25, -11.75)">
    <path d="M-13.3 16.5 Q-15.5 15.65 -18.75 15.65 -23.55 15.65 -25.4 17.5 -26.05 17.5 -25.65 17.35 -25.85 16.25 -27.0 13.75 L-11.25 12.65 -11.0 15.15 -11.25 17.5 Q-12.15 16.9 -13.3 16.5" fill="#e5e5e5" fill-rule="evenodd" stroke="none"/>
    <path d="M-18.7 16.9 Q-22.05 16.9 -23.95 17.95 -24.95 18.5 -25.75 19.25 L-27.1 16.6 -28.25 13.65 Q-28.25 11.75 -14.85 11.75 -12.4 11.75 -11.1 12.5 -10.5 12.85 -10.2 13.4 -9.75 14.25 -10.0 15.05 L-10.25 18.85 Q-10.1 19.0 -10.75 19.0 -14.2 16.9 -18.7 16.9 M-13.3 16.5 Q-12.15 16.9 -11.25 17.5 L-11.0 15.15 -11.25 12.65 -27.0 13.75 Q-25.85 16.25 -25.65 17.35 -26.05 17.5 -25.4 17.5 -23.55 15.65 -18.75 15.65 -15.5 15.65 -13.3 16.5" fill="#a12e65" fill-rule="evenodd" stroke="none"/>
  </g>
</svg>
