<?xml version="1.0" encoding="UTF-8" standalone="no"?>
<svg xmlns:ffdec="https://www.free-decompiler.com/flash" xmlns:xlink="http://www.w3.org/1999/xlink" ffdec:objectType="shape" height="107.9px" width="93.15px" xmlns="http://www.w3.org/2000/svg">
  <g transform="matrix(1.0, 0.0, 0.0, 1.0, -32.6, 41.1)">
    <path d="M45.1 1.05 L45.2 1.15 45.2 0.95 45.1 1.05 M45.7 -2.6 Q42.75 -18.35 51.9 -30.5 54.7 -34.3 55.25 -38.9 L55.35 -39.65 56.1 -39.75 Q91.45 -45.75 99.3 -24.95 103.3 -14.55 107.15 -6.95 112.05 2.6 119.05 3.0 111.8 14.1 112.75 17.8 113.65 21.5 120.6 24.0 107.2 48.75 124.1 54.8 L125.75 55.5 124.4 56.55 Q113.35 65.5 99.05 58.3 98.25 60.1 100.65 65.35 L101.35 66.8 99.75 66.75 Q80.1 66.8 68.35 45.6 68.9 58.45 56.65 61.2 L55.5 61.5 55.4 60.3 Q54.55 49.2 49.65 41.6 45.5 35.15 44.4 30.7 42.85 34.05 46.45 42.65 L47.15 44.35 45.35 44.0 Q33.0 42.5 33.0 12.5 L33.0 12.45 32.6 12.1 33.0 11.65 33.0 11.5 33.1 11.5 45.7 -2.6" fill="#573826" fill-rule="evenodd" stroke="none"/>
  </g>
</svg>
