<?xml version="1.0" encoding="UTF-8" standalone="no"?>
<svg xmlns:ffdec="https://www.free-decompiler.com/flash" xmlns:xlink="http://www.w3.org/1999/xlink" ffdec:objectType="shape" height="164.6px" width="109.85px" xmlns="http://www.w3.org/2000/svg">
  <g transform="matrix(1.0, 0.0, 0.0, 1.0, 55.8, 129.15)">
    <path d="M46.95 -13.25 Q50.6 -14.7 50.75 -14.6 52.3 -13.55 51.95 -11.2 48.25 -8.7 44.4 -6.7 L42.2 -5.65 Q33.7 -1.75 24.45 -0.35 L9.65 0.25 Q4.45 -0.1 -0.9 -1.1 L-2.15 -7.25 -2.5 -9.25 Q-3.8 -16.7 -4.4 -24.25 L-4.45 -25.3 -4.6 -27.35 -4.7 -30.1 Q-5.0 -38.35 -3.85 -45.15 -2.35 -54.3 1.2 -63.05 4.85 -72.15 2.5 -84.65 L2.5 -84.7 1.3 -90.5 -0.3 -97.15 -0.9 -99.45 -1.05 -100.05 -3.25 -107.45 -2.3 -109.65 -2.0 -110.25 -1.85 -109.9 Q-0.35 -106.4 0.9 -102.6 L1.1 -102.0 1.2 -101.6 1.8 -99.6 2.1 -98.65 4.1 -89.3 4.5 -86.75 Q6.55 -72.65 3.8 -63.75 2.5 -59.75 1.55 -55.65 0.25 -50.6 -0.6 -45.4 -1.65 -39.05 -1.5 -31.4 L-1.45 -29.95 -1.35 -27.1 -1.2 -25.05 -1.15 -24.15 Q-0.55 -16.55 0.75 -9.05 L1.1 -7.05 1.55 -4.75 1.8 -4.4 2.15 -4.35 2.5 -4.55 2.55 -4.75 Q18.6 -1.85 35.15 -7.7 40.2 -9.5 43.05 -11.1 44.5 -11.9 45.4 -12.65 L46.95 -13.25 M18.3 -71.2 Q16.65 -65.35 14.4 -59.4 13.65 -57.5 15.55 -57.1 17.2 -56.75 18.45 -57.55 L18.55 -56.0 Q18.6 -55.6 18.9 -55.35 19.2 -55.05 19.65 -55.1 20.05 -55.15 20.3 -55.45 20.6 -55.75 20.55 -56.15 L20.4 -59.1 20.25 -59.6 Q24.6 -66.25 30.45 -62.65 34.0 -60.55 32.65 -56.45 31.15 -51.8 26.15 -50.35 23.35 -49.45 20.75 -48.3 L21.0 -48.5 21.2 -49.25 20.9 -52.2 20.55 -52.85 19.8 -53.1 Q19.4 -53.05 19.15 -52.7 18.85 -52.4 18.9 -52.0 L19.2 -49.05 Q19.25 -48.65 19.6 -48.35 19.9 -48.1 20.3 -48.15 L20.5 -48.2 Q17.3 -46.75 14.35 -44.85 11.25 -42.85 8.4 -40.35 9.9 -37.15 13.0 -37.05 14.95 -37.0 17.6 -38.3 L30.55 -44.9 Q35.65 -38.9 39.05 -31.6 L39.85 -29.75 40.6 -27.9 41.85 -24.25 Q42.45 -22.35 42.3 -20.85 42.1 -19.5 41.3 -18.45 L39.95 -17.2 36.9 -15.35 36.55 -15.15 Q35.15 -14.4 33.65 -13.8 L32.15 -13.15 32.0 -13.2 31.25 -13.1 30.9 -12.7 Q25.35 -10.8 19.9 -10.65 14.85 -10.5 9.9 -11.85 8.65 -12.15 7.9 -13.95 L6.7 -17.1 Q9.65 -19.7 13.65 -21.65 15.9 -22.8 14.3 -24.55 L13.7 -25.1 Q12.3 -26.2 10.4 -25.6 4.0 -23.85 1.1 -26.95 0.15 -28.0 -0.45 -29.45 L-0.45 -29.95 -0.5 -31.4 Q-0.65 -38.95 0.4 -45.25 1.25 -50.4 2.5 -55.4 L3.5 -59.35 Q6.25 -65.45 11.0 -71.4 L11.35 -71.9 Q12.0 -72.65 13.3 -72.9 L18.35 -73.15 18.3 -71.2 M22.5 -39.15 L21.75 -39.3 Q21.35 -39.25 21.15 -38.9 20.9 -38.55 21.0 -38.15 L21.65 -35.15 Q21.7 -34.75 22.1 -34.55 L22.85 -34.4 Q23.25 -34.5 23.45 -34.85 L23.6 -35.6 22.95 -38.55 22.5 -39.15 M22.75 -32.05 Q22.5 -31.7 22.65 -31.25 L23.5 -28.35 Q23.6 -27.95 24.0 -27.75 L24.75 -27.7 25.35 -28.15 25.4 -28.95 24.6 -31.8 24.1 -32.4 23.35 -32.5 22.75 -32.05 M26.2 -25.75 L25.45 -25.8 24.85 -25.25 Q24.65 -24.9 24.8 -24.5 L25.9 -21.7 Q26.05 -21.35 26.45 -21.15 26.8 -21.0 27.2 -21.15 L27.75 -21.7 27.75 -22.45 26.7 -25.15 26.2 -25.75 M30.65 -16.2 L29.3 -18.85 28.75 -19.4 28.0 -19.35 27.45 -18.8 Q27.3 -18.4 27.5 -18.0 L28.9 -15.25 Q29.1 -14.9 29.5 -14.8 L30.25 -14.85 30.7 -15.45 30.65 -16.2" fill="#456972" fill-rule="evenodd" stroke="none"/>
    <path d="M-36.3 -8.95 L-40.0 -9.7 -40.15 -9.75 Q-46.7 -10.35 -53.3 -14.15 -51.5 -16.55 -49.85 -19.0 -45.0 -15.7 -38.2 -13.85 -38.25 -13.0 -37.95 -12.25 -37.25 -10.2 -36.3 -8.95 M13.05 -117.85 Q8.95 -117.95 6.05 -114.45 L6.05 -114.4 Q3.4 -111.2 3.4 -106.65 L3.4 -106.35 3.5 -104.9 Q3.9 -101.45 6.05 -98.85 L6.05 -98.8 Q8.9 -95.35 13.05 -95.35 L13.1 -95.35 Q17.2 -95.35 20.05 -98.8 21.45 -100.5 22.15 -102.55 L22.65 -104.9 22.75 -106.35 22.75 -106.65 Q22.75 -110.25 21.1 -112.95 L20.05 -114.45 Q17.15 -117.95 13.05 -117.85 M-2.0 -110.25 L-1.75 -110.85 -1.45 -111.45 -1.4 -111.6 1.2 -116.25 3.0 -118.65 3.95 -119.7 5.55 -121.05 6.8 -121.85 8.7 -122.55 Q11.15 -123.1 13.75 -121.8 L14.15 -121.55 Q17.0 -119.9 19.4 -117.1 21.1 -115.1 22.55 -112.55 24.5 -109.05 26.05 -104.4 L26.3 -103.55 27.7 -98.65 28.15 -96.65 28.45 -95.15 31.15 -81.9 Q34.2 -67.2 37.55 -52.1 L37.95 -50.15 40.85 -38.55 42.1 -34.2 42.85 -31.7 Q44.8 -25.6 46.7 -22.1 50.25 -15.35 46.95 -13.25 L45.4 -12.65 Q44.5 -11.9 43.05 -11.1 40.2 -9.5 35.15 -7.7 18.6 -1.85 2.55 -4.75 L2.5 -4.55 2.15 -4.35 1.8 -4.4 1.55 -4.75 1.1 -7.05 0.75 -9.05 Q-0.55 -16.55 -1.15 -24.15 L-1.2 -25.05 -1.35 -27.1 -1.45 -29.95 -1.5 -31.4 Q-1.65 -39.05 -0.6 -45.4 0.25 -50.6 1.55 -55.65 2.5 -59.75 3.8 -63.75 6.55 -72.65 4.5 -86.75 L4.1 -89.3 2.1 -98.65 1.8 -99.6 1.2 -101.6 1.1 -102.0 0.9 -102.6 Q-0.35 -106.4 -1.85 -109.9 L-2.0 -110.25 M30.65 -16.2 L30.7 -15.45 30.25 -14.85 29.5 -14.8 Q29.1 -14.9 28.9 -15.25 L27.5 -18.0 Q27.3 -18.4 27.45 -18.8 L28.0 -19.35 28.75 -19.4 29.3 -18.85 30.65 -16.2 M26.2 -25.75 L26.7 -25.15 27.75 -22.45 27.75 -21.7 27.2 -21.15 Q26.8 -21.0 26.45 -21.15 26.05 -21.35 25.9 -21.7 L24.8 -24.5 Q24.65 -24.9 24.85 -25.25 L25.45 -25.8 26.2 -25.75 M22.75 -32.05 L23.35 -32.5 24.1 -32.4 24.6 -31.8 25.4 -28.95 25.35 -28.15 24.75 -27.7 24.0 -27.75 Q23.6 -27.95 23.5 -28.35 L22.65 -31.25 Q22.5 -31.7 22.75 -32.05 M22.5 -39.15 L22.95 -38.55 23.6 -35.6 23.45 -34.85 Q23.25 -34.5 22.85 -34.4 L22.1 -34.55 Q21.7 -34.75 21.65 -35.15 L21.0 -38.15 Q20.9 -38.55 21.15 -38.9 21.35 -39.25 21.75 -39.3 L22.5 -39.15 M18.3 -71.2 L18.35 -73.15 13.3 -72.9 Q12.0 -72.65 11.35 -71.9 L11.0 -71.4 Q6.25 -65.45 3.5 -59.35 L2.5 -55.4 Q1.25 -50.4 0.4 -45.25 -0.65 -38.95 -0.5 -31.4 L-0.45 -29.95 -0.45 -29.45 Q0.15 -28.0 1.1 -26.95 4.0 -23.85 10.4 -25.6 12.3 -26.2 13.7 -25.1 L14.3 -24.55 Q15.9 -22.8 13.65 -21.65 9.65 -19.7 6.7 -17.1 L7.9 -13.95 Q8.65 -12.15 9.9 -11.85 14.85 -10.5 19.9 -10.65 25.35 -10.8 30.9 -12.7 L31.25 -13.1 32.0 -13.2 32.15 -13.15 33.65 -13.8 Q35.15 -14.4 36.55 -15.15 L36.9 -15.35 39.95 -17.2 41.3 -18.45 Q42.1 -19.5 42.3 -20.85 42.45 -22.35 41.85 -24.25 L40.6 -27.9 39.85 -29.75 39.05 -31.6 Q35.65 -38.9 30.55 -44.9 L17.6 -38.3 Q14.95 -37.0 13.0 -37.05 9.9 -37.15 8.4 -40.35 11.25 -42.85 14.35 -44.85 17.3 -46.75 20.5 -48.2 L20.3 -48.15 Q19.9 -48.1 19.6 -48.35 19.25 -48.65 19.2 -49.05 L18.9 -52.0 Q18.85 -52.4 19.15 -52.7 19.4 -53.05 19.8 -53.1 L20.55 -52.85 20.9 -52.2 21.2 -49.25 21.0 -48.5 20.75 -48.3 Q23.35 -49.45 26.15 -50.35 31.15 -51.8 32.65 -56.45 34.0 -60.55 30.45 -62.65 24.6 -66.25 20.25 -59.6 L20.4 -59.1 20.55 -56.15 Q20.6 -55.75 20.3 -55.45 20.05 -55.15 19.65 -55.1 19.2 -55.05 18.9 -55.35 18.6 -55.6 18.55 -56.0 L18.45 -57.55 Q17.2 -56.75 15.55 -57.1 13.65 -57.5 14.4 -59.4 16.65 -65.35 18.3 -71.2 M-7.5 -125.85 Q-12.9 -122.2 -16.55 -114.5 L-17.15 -113.2 -17.5 -113.15 Q-21.7 -112.65 -27.15 -105.9 L-27.15 -105.95 -27.75 -105.2 Q-31.4 -100.65 -34.9 -93.45 -27.95 -121.6 -8.3 -125.7 L-7.5 -125.85" fill="#37545b" fill-rule="evenodd" stroke="none"/>
    <path d="M-49.85 -19.0 L-49.8 -19.05 Q-39.3 -34.8 -33.5 -57.2 -32.3 -54.5 -32.4 -51.9 -32.7 -47.65 -35.1 -36.9 L-35.1 -36.45 Q-34.85 -35.1 -33.1 -33.7 L-33.15 -33.7 -31.9 -32.8 Q-34.6 -26.95 -35.55 -18.55 -38.1 -16.0 -38.2 -13.85 -45.0 -15.7 -49.85 -19.0" fill="#2c4349" fill-rule="evenodd" stroke="none"/>
    <path d="M-11.05 -119.7 Q-13.6 -116.45 -15.55 -111.8 L-15.95 -111.35 -16.5 -111.2 -18.45 -110.8 -19.2 -110.45 -20.75 -107.45 Q-24.25 -99.9 -22.95 -94.55 -21.75 -89.65 -16.9 -89.65 -11.55 -89.7 -5.3 -95.05 L-2.5 -97.7 -2.65 -98.25 -5.25 -107.2 -5.2 -107.85 -5.05 -108.2 -3.2 -112.45 Q-1.05 -116.85 1.2 -119.7 L3.95 -122.55 4.1 -122.65 4.45 -122.9 5.85 -123.85 5.15 -124.65 Q3.7 -126.05 1.2 -126.15 L0.9 -126.15 Q-3.5 -126.1 -8.55 -122.45 L-11.05 -119.7 M10.0 -125.0 Q8.0 -126.25 5.85 -126.75 7.0 -125.95 7.75 -124.65 L7.8 -124.6 7.9 -124.65 10.15 -124.9 10.05 -125.0 10.0 -125.0 M-36.05 -6.9 L-40.35 -7.75 Q-47.8 -8.4 -55.3 -13.05 L-55.7 -13.45 -55.8 -14.0 -55.6 -14.5 Q-53.45 -17.25 -51.45 -20.15 -40.6 -36.4 -34.9 -59.85 L-35.3 -60.45 Q-38.8 -65.55 -40.3 -72.7 -41.4 -77.4 -38.65 -84.85 -31.75 -128.0 -2.2 -128.4 L1.2 -129.05 Q6.65 -129.65 11.1 -126.7 L13.75 -124.65 14.95 -123.45 15.15 -123.3 Q25.25 -117.65 29.7 -98.65 L30.15 -96.65 30.4 -95.55 33.7 -80.0 36.4 -68.45 40.3 -53.1 Q45.8 -32.05 52.1 -16.1 54.65 -14.35 53.85 -10.4 L53.45 -9.75 Q49.05 -6.8 44.45 -4.5 L41.95 -3.35 Q27.0 3.25 9.8 2.25 4.05 1.9 -1.95 0.75 L-2.45 0.5 -2.65 0.2 -2.7 0.0 -4.2 -7.4 -4.55 -9.45 Q-5.8 -16.75 -6.4 -24.1 L-6.5 -25.5 Q-13.95 -26.35 -20.35 -28.2 L-22.45 -28.8 -22.5 -28.8 Q-26.55 -30.1 -29.2 -31.4 L-30.1 -31.8 -31.9 -32.8 -33.15 -33.7 -33.1 -33.7 Q-34.85 -35.1 -35.1 -36.45 L-35.1 -36.9 Q-32.7 -47.65 -32.4 -51.9 -32.3 -54.5 -33.5 -57.2 -39.3 -34.8 -49.8 -19.05 L-49.85 -19.0 Q-51.5 -16.55 -53.3 -14.15 -46.7 -10.35 -40.15 -9.75 L-40.0 -9.7 -36.3 -8.95 -36.1 -8.7 -36.05 -6.9 M46.95 -13.25 Q50.25 -15.35 46.7 -22.1 44.8 -25.6 42.85 -31.7 L42.1 -34.2 40.85 -38.55 37.95 -50.15 37.55 -52.1 Q34.2 -67.2 31.15 -81.9 L28.45 -95.15 28.15 -96.65 27.7 -98.65 26.3 -103.55 26.05 -104.4 Q24.5 -109.05 22.55 -112.55 21.1 -115.1 19.4 -117.1 17.0 -119.9 14.15 -121.55 L13.75 -121.8 Q11.15 -123.1 8.7 -122.55 L6.8 -121.85 5.55 -121.05 3.95 -119.7 3.0 -118.65 1.2 -116.25 -1.4 -111.6 -1.45 -111.45 -1.75 -110.85 -2.0 -110.25 -2.3 -109.65 -3.25 -107.45 -1.05 -100.05 -0.9 -99.45 -0.3 -97.15 1.3 -90.5 2.5 -84.7 2.5 -84.65 Q4.85 -72.15 1.2 -63.05 -2.35 -54.3 -3.85 -45.15 -5.0 -38.35 -4.7 -30.1 L-4.6 -27.35 -4.45 -25.3 -4.4 -24.25 Q-3.8 -16.7 -2.5 -9.25 L-2.15 -7.25 -0.9 -1.1 Q4.45 -0.1 9.65 0.25 L24.45 -0.35 Q33.7 -1.75 42.2 -5.65 L44.4 -6.7 Q48.25 -8.7 51.95 -11.2 52.3 -13.55 50.75 -14.6 50.6 -14.7 46.95 -13.25 M13.05 -117.85 Q17.15 -117.95 20.05 -114.45 L21.1 -112.95 Q22.75 -110.25 22.75 -106.65 L22.75 -106.35 22.65 -104.9 22.15 -102.55 Q21.45 -100.5 20.05 -98.8 17.2 -95.35 13.1 -95.35 L13.05 -95.35 Q8.9 -95.35 6.05 -98.8 L6.05 -98.85 Q3.9 -101.45 3.5 -104.9 L3.4 -106.35 3.4 -106.65 Q3.4 -111.2 6.05 -114.4 L6.05 -114.45 Q8.95 -117.95 13.05 -117.85 M-0.05 -65.55 Q2.55 -73.6 0.55 -84.3 L-0.65 -90.0 -1.9 -95.45 -4.0 -93.55 Q-10.95 -87.6 -16.9 -87.65 -23.35 -87.65 -24.9 -94.05 -26.4 -99.8 -22.8 -107.75 L-25.6 -104.65 -26.15 -103.95 Q-29.7 -98.9 -32.85 -92.8 L-34.55 -89.5 -35.0 -88.45 -36.3 -85.5 -36.45 -85.1 Q-39.3 -77.7 -38.35 -73.1 -36.9 -66.35 -33.65 -61.6 L-33.1 -60.7 Q-30.65 -56.85 -30.4 -53.2 L-30.4 -51.8 -30.4 -51.75 Q-30.7 -47.5 -33.1 -36.75 -32.8 -36.0 -31.85 -35.25 L-31.0 -34.65 -29.25 -33.6 -28.35 -33.2 Q-25.75 -32.0 -21.85 -30.7 L-21.9 -30.7 -19.8 -30.1 Q-13.7 -28.35 -6.6 -27.55 L-6.75 -30.25 Q-7.0 -38.6 -5.8 -45.5 -4.8 -51.65 -2.9 -57.6 L-0.65 -63.8 -0.05 -65.55 M-7.5 -125.85 L-8.3 -125.7 Q-27.95 -121.6 -34.9 -93.45 -31.4 -100.65 -27.75 -105.2 L-27.15 -105.95 -27.15 -105.9 Q-21.7 -112.65 -17.5 -113.15 L-17.15 -113.2 -16.55 -114.5 Q-12.9 -122.2 -7.5 -125.85" fill="#3f3f3f" fill-rule="evenodd" stroke="none"/>
    <path d="M-31.9 -32.8 L-30.1 -31.8 Q-32.65 -26.3 -33.55 -18.5 L-33.95 -18.85 -34.7 -19.4 -35.3 -18.8 -35.55 -18.55 Q-34.6 -26.95 -31.9 -32.8" fill="#5c4730" fill-rule="evenodd" stroke="none"/>
    <path d="M2.2 -124.4 L1.2 -124.65 -0.2 -124.75 Q-5.15 -124.75 -10.95 -119.8 L-11.05 -119.7 -8.55 -122.45 Q-3.5 -126.1 0.9 -126.15 L1.2 -126.15 Q3.7 -126.05 5.15 -124.65 L5.85 -123.85 4.45 -122.9 3.95 -123.35 3.9 -123.45 2.2 -124.4 M-18.45 -110.8 L-19.95 -107.9 Q-23.2 -100.95 -21.95 -96.0 -20.75 -91.05 -15.8 -91.05 -10.85 -91.05 -5.05 -96.0 L-2.65 -98.25 -2.5 -97.7 -5.3 -95.05 Q-11.55 -89.7 -16.9 -89.65 -21.75 -89.65 -22.95 -94.55 -24.25 -99.9 -20.75 -107.45 L-19.2 -110.45 -18.45 -110.8 M-30.1 -31.8 L-29.2 -31.4 Q-26.55 -30.1 -22.5 -28.8 L-22.45 -28.8 -20.35 -28.2 Q-13.95 -26.35 -6.5 -25.5 L-6.4 -24.1 Q-5.8 -16.75 -4.55 -9.45 -24.4 -11.4 -33.55 -18.5 -32.65 -26.3 -30.1 -31.8 M-6.55 -12.15 L-8.8 -23.15 Q-20.4 -23.8 -29.05 -29.15 -31.25 -23.85 -30.55 -19.4 -21.6 -12.8 -6.55 -12.15" fill="#db9c64" fill-rule="evenodd" stroke="none"/>
    <path d="M-5.05 -108.2 L-7.7 -107.0 Q-13.15 -104.65 -12.65 -108.2 L-11.7 -114.5 Q-11.25 -117.3 -8.85 -120.35 -6.45 -123.45 -0.6 -124.3 L1.2 -124.45 2.2 -124.4 3.9 -123.45 3.95 -123.3 4.1 -122.65 3.95 -122.55 1.2 -119.7 Q-1.05 -116.85 -3.2 -112.45 L-5.05 -108.2 M-6.55 -12.15 Q-21.6 -12.8 -30.55 -19.4 -31.25 -23.85 -29.05 -29.15 -20.4 -23.8 -8.8 -23.15 L-6.55 -12.15" fill="#f1ba87" fill-rule="evenodd" stroke="none"/>
    <path d="M-36.05 -6.9 L-36.1 -8.7 -36.3 -8.95 Q-37.25 -10.2 -37.95 -12.25 -38.25 -13.0 -38.2 -13.85 -38.1 -16.0 -35.55 -18.55 L-35.3 -18.8 -34.7 -19.4 -33.95 -18.85 -33.55 -18.5 Q-24.4 -11.4 -4.55 -9.45 L-4.2 -7.4 Q-10.6 -8.0 -15.9 -9.15 L-18.65 -9.75 Q-22.2 -10.65 -25.15 -11.75 -30.7 -13.85 -34.5 -16.75 -36.3 -14.8 -36.1 -13.3 L-36.05 -12.95 -36.05 -12.9 Q-35.35 -10.85 -34.4 -9.8 L-32.95 -8.7 -34.05 -6.95 -34.05 -7.0 -34.05 -6.9 -34.4 -5.65 Q-34.75 -4.0 -34.2 -2.4 L-34.05 -2.05 -33.8 -1.9 Q-33.0 7.0 -29.95 13.55 L-30.5 13.9 -30.95 14.5 -30.85 15.25 -30.25 15.75 -29.5 15.6 -29.55 15.8 -29.45 16.55 -28.85 17.05 -28.15 16.95 Q-26.15 20.2 -23.5 22.8 -12.25 33.45 4.9 33.45 22.0 33.4 31.6 22.2 40.05 12.2 41.95 -3.35 L44.45 -4.5 Q44.85 12.65 35.45 22.4 22.9 35.4 4.9 35.45 -13.15 35.45 -24.9 24.25 -35.6 14.1 -36.05 -6.9 M-2.65 0.2 L-2.45 0.5 -1.95 0.75 Q4.05 1.9 9.8 2.25 3.75 2.75 -2.2 2.25 L-12.2 1.05 -12.4 0.65 Q-12.65 0.3 -13.05 0.25 L-13.65 0.35 Q-13.5 -0.4 -13.5 -1.25 L-2.65 0.2 M-26.05 -3.5 L-25.35 -4.05 -25.45 -3.8 -25.5 -3.75 -25.55 -3.5 -25.75 -3.55 -26.05 -3.5 M-23.7 -2.65 L-23.6 -3.05 -23.6 -3.15 -23.55 -3.2 -23.35 -2.8 -23.7 -2.65 M-32.35 -5.85 Q-32.0 -6.9 -31.25 -7.55 -30.0 -6.75 -28.55 -6.05 L-27.7 -5.6 -29.85 -4.4 -32.35 -5.85 M-15.5 -1.65 L-15.5 -1.5 Q-15.5 -0.4 -15.75 0.35 L-19.45 -0.5 -19.75 -1.4 -20.35 -1.9 -20.9 -1.95 -21.35 -3.15 -15.5 -1.65" fill="#41245b" fill-rule="evenodd" stroke="none"/>
    <path d="M-4.2 -7.4 L-2.7 0.0 -2.65 0.2 -13.5 -1.25 -13.5 -1.5 Q-13.45 -5.75 -18.25 -8.35 -21.45 -10.15 -24.05 -7.7 -25.25 -10.0 -29.35 -10.5 L-29.55 -10.5 -29.7 -10.45 Q-31.8 -10.0 -32.95 -8.7 L-34.4 -9.8 Q-35.35 -10.85 -36.05 -12.9 L-36.05 -12.95 -36.1 -13.3 Q-36.3 -14.8 -34.5 -16.75 -30.7 -13.85 -25.15 -11.75 -22.2 -10.65 -18.65 -9.75 L-15.9 -9.15 Q-10.6 -8.0 -4.2 -7.4 M9.8 2.25 Q27.0 3.25 41.95 -3.35 40.05 12.2 31.6 22.2 22.0 33.4 4.9 33.45 -12.25 33.45 -23.5 22.8 -26.15 20.2 -28.15 16.95 L-28.85 17.05 -29.45 16.55 -29.55 15.8 -29.5 15.6 Q-26.8 14.0 -26.85 10.75 -26.85 9.35 -27.4 8.25 L-27.4 8.3 Q-28.3 6.35 -28.7 4.3 L-28.85 2.35 Q-28.65 -1.3 -26.05 -3.5 L-25.75 -3.55 -25.55 -3.5 -25.85 -1.5 -25.85 -0.35 -26.15 -0.5 Q-27.3 1.25 -27.45 3.65 L-27.3 5.6 Q-26.9 7.65 -26.0 9.6 L-26.0 9.55 Q-25.45 10.65 -25.45 12.05 -25.45 14.15 -26.5 15.55 L-23.1 19.4 Q-13.55 28.4 -1.3 29.6 10.9 30.8 17.6 24.45 24.3 18.1 25.05 12.35 25.8 6.55 25.55 4.65 10.85 9.75 -5.55 6.1 L-13.4 4.1 Q-14.55 5.3 -16.7 5.3 -18.4 5.4 -19.7 3.65 L-18.1 4.0 Q-14.3 4.1 -13.65 0.35 L-13.05 0.25 Q-12.65 0.3 -12.4 0.65 L-12.2 1.05 -2.2 2.25 Q3.75 2.75 9.8 2.25 M-34.05 -6.95 L-34.05 -6.9 -34.05 -7.0 -34.05 -6.95 M-33.8 -1.9 L-33.7 -1.85 -32.35 -1.4 -32.15 -1.35 -32.0 -1.4 -30.75 -1.8 -30.7 -1.8 -29.6 -2.3 -30.45 -0.15 -30.6 -0.1 -30.75 -0.05 -30.95 -0.1 -31.85 -0.35 Q-31.6 6.3 -28.9 11.65 -29.1 12.8 -29.95 13.55 -33.0 7.0 -33.8 -1.9 M-21.0 16.4 L-20.9 16.35 Q-18.55 14.65 -18.8 11.5 L-18.8 11.4 -19.0 10.6 -19.0 10.55 -20.3 7.95 -20.35 7.95 -22.6 4.05 Q-23.95 1.45 -23.85 -1.45 L-23.85 -1.5 -23.7 -2.65 -23.35 -2.8 -22.7 -1.05 -21.7 1.35 -22.4 1.1 Q-22.25 3.3 -21.2 5.35 L-18.95 9.25 -18.9 9.25 -17.6 11.85 -17.6 11.9 -17.4 12.7 -17.4 12.8 Q-17.15 15.95 -19.5 17.65 L-20.25 17.8 -20.9 17.4 -21.05 16.65 -21.0 16.4 M-29.85 -4.4 L-31.45 -3.65 -31.45 -3.7 -32.3 -3.4 -32.4 -3.4 -32.4 -3.45 Q-32.65 -4.4 -32.45 -5.3 L-32.35 -5.85 -29.85 -4.4 M-31.25 -7.55 Q-30.55 -8.2 -29.45 -8.45 -26.7 -8.1 -25.9 -6.65 L-26.95 -6.1 -27.7 -5.6 -28.55 -6.05 Q-30.0 -6.75 -31.25 -7.55 M-21.35 -3.15 Q-22.0 -4.8 -22.8 -5.65 L-23.0 -5.9 Q-21.3 -7.65 -19.2 -6.6 -15.65 -4.7 -15.5 -1.65 L-21.35 -3.15 M-15.75 0.35 Q-16.35 1.95 -18.1 2.0 -19.7 1.85 -20.8 -1.65 L-20.9 -1.95 -20.35 -1.9 -19.75 -1.4 -19.45 -0.5 -15.75 0.35" fill="#5e3483" fill-rule="evenodd" stroke="none"/>
    <path d="M-30.45 -0.15 L-30.85 2.2 -30.65 4.65 Q-30.2 6.95 -29.2 9.15 -28.85 9.85 -28.85 10.75 L-28.85 10.8 -28.9 11.65 Q-31.6 6.3 -31.85 -0.35 L-30.95 -0.1 -30.75 -0.05 -30.6 -0.1 -30.45 -0.15 M-25.85 -0.35 Q-25.7 2.4 -24.4 4.95 L-24.35 5.0 -22.05 9.0 -22.05 8.95 -20.85 11.35 -20.8 11.7 Q-20.65 13.65 -22.05 14.7 L-22.45 15.35 -22.3 16.1 Q-22.1 16.4 -21.65 16.5 L-21.0 16.4 -21.05 16.65 -20.9 17.4 -20.25 17.8 -19.5 17.65 Q-17.15 15.95 -17.4 12.8 L-17.4 12.7 -17.6 11.9 -17.6 11.85 -18.9 9.25 -18.95 9.25 -21.2 5.35 Q-22.25 3.3 -22.4 1.1 L-21.7 1.35 Q-20.85 3.0 -19.7 3.65 -18.4 5.4 -16.7 5.3 -14.55 5.3 -13.4 4.1 L-5.55 6.1 Q10.85 9.75 25.55 4.65 25.8 6.55 25.05 12.35 24.3 18.1 17.6 24.45 10.9 30.8 -1.3 29.6 -13.55 28.4 -23.1 19.4 L-26.5 15.55 Q-25.45 14.15 -25.45 12.05 -25.45 10.65 -26.0 9.55 L-26.0 9.6 Q-26.9 7.65 -27.3 5.6 L-27.45 3.65 Q-27.3 1.25 -26.15 -0.5 L-25.85 -0.35" fill="#6f3e9b" fill-rule="evenodd" stroke="none"/>
    <path d="M-34.05 -6.9 L-34.05 -6.95 -32.95 -8.7 Q-31.8 -10.0 -29.7 -10.45 L-29.55 -10.5 -29.35 -10.5 Q-25.25 -10.0 -24.05 -7.7 -21.45 -10.15 -18.25 -8.35 -13.45 -5.75 -13.5 -1.5 L-13.5 -1.25 Q-13.5 -0.4 -13.65 0.35 -14.3 4.1 -18.1 4.0 L-19.7 3.65 Q-20.85 3.0 -21.7 1.35 L-22.7 -1.05 -23.35 -2.8 -23.55 -3.2 -23.6 -3.15 -23.6 -3.05 -23.7 -2.65 -23.85 -1.5 -23.85 -1.45 Q-23.95 1.45 -22.6 4.05 L-20.35 7.95 -20.3 7.95 -19.0 10.55 -19.0 10.6 -18.8 11.4 -18.8 11.5 Q-18.55 14.65 -20.9 16.35 L-21.0 16.4 -21.65 16.5 Q-22.1 16.4 -22.3 16.1 L-22.45 15.35 -22.05 14.7 Q-20.65 13.65 -20.8 11.7 L-20.85 11.35 -22.05 8.95 -22.05 9.0 -24.35 5.0 -24.4 4.95 Q-25.7 2.4 -25.85 -0.35 L-25.85 -1.5 -25.55 -3.5 -25.5 -3.75 -25.45 -3.8 -25.35 -4.05 -26.05 -3.5 Q-28.65 -1.3 -28.85 2.35 L-28.7 4.3 Q-28.3 6.35 -27.4 8.3 L-27.4 8.25 Q-26.85 9.35 -26.85 10.75 -26.8 14.0 -29.5 15.6 L-30.25 15.75 -30.85 15.25 -30.95 14.5 -30.5 13.9 -29.95 13.55 Q-29.1 12.8 -28.9 11.65 L-28.85 10.8 -28.85 10.75 Q-28.85 9.85 -29.2 9.15 -30.2 6.95 -30.65 4.65 L-30.85 2.2 -30.45 -0.15 -29.6 -2.3 -30.7 -1.8 -30.75 -1.8 -32.0 -1.4 -32.15 -1.35 -32.35 -1.4 -33.7 -1.85 -33.8 -1.9 -34.05 -2.05 -34.2 -2.4 Q-34.75 -4.0 -34.4 -5.65 L-34.05 -6.9 M-32.35 -5.85 L-32.45 -5.3 Q-32.65 -4.4 -32.4 -3.45 L-32.4 -3.4 -32.3 -3.4 -31.45 -3.7 -31.45 -3.65 -29.85 -4.4 -27.7 -5.6 -26.95 -6.1 -25.9 -6.65 Q-26.7 -8.1 -29.45 -8.45 -30.55 -8.2 -31.25 -7.55 -32.0 -6.9 -32.35 -5.85 M-15.5 -1.65 Q-15.65 -4.7 -19.2 -6.6 -21.3 -7.65 -23.0 -5.9 L-22.8 -5.65 Q-22.0 -4.8 -21.35 -3.15 L-20.9 -1.95 -20.8 -1.65 Q-19.7 1.85 -18.1 2.0 -16.35 1.95 -15.75 0.35 -15.5 -0.4 -15.5 -1.5 L-15.5 -1.65" fill="#b9ae99" fill-rule="evenodd" stroke="none"/>
    <path d="M10.0 -125.0 L10.05 -125.0 10.15 -124.9 7.9 -124.65 7.8 -124.6 7.75 -124.65 Q7.0 -125.95 5.85 -126.75 8.0 -126.25 10.0 -125.0 M-0.05 -65.55 L-0.65 -63.8 -2.9 -57.6 Q-5.05 -54.75 -7.55 -54.65 -10.4 -54.5 -18.9 -56.3 -26.0 -57.05 -26.3 -52.15 L-26.25 -50.45 Q-25.75 -47.05 -22.35 -43.85 L-22.15 -43.7 -20.8 -42.45 -20.25 -41.85 Q-19.95 -41.3 -21.8 -41.4 L-22.45 -41.4 -25.75 -41.4 -28.6 -41.0 Q-31.0 -40.35 -28.05 -39.15 L-28.0 -39.1 -26.05 -38.2 Q-24.55 -37.4 -23.9 -36.6 -22.9 -35.4 -24.8 -35.4 -19.6 -31.3 -6.75 -30.25 L-6.6 -27.55 Q-13.7 -28.35 -19.8 -30.1 L-21.9 -30.7 -21.85 -30.7 Q-25.75 -32.0 -28.35 -33.2 L-29.25 -33.6 -31.0 -34.65 -31.85 -35.25 Q-32.8 -36.0 -33.1 -36.75 -30.7 -47.5 -30.4 -51.75 L-30.4 -51.8 -30.4 -53.2 Q-30.65 -56.85 -33.1 -60.7 L-33.65 -61.6 Q-36.9 -66.35 -38.35 -73.1 -39.3 -77.7 -36.45 -85.1 L-36.3 -85.5 -35.0 -88.45 -34.55 -89.5 -32.85 -92.8 Q-29.7 -98.9 -26.15 -103.95 L-25.6 -104.65 -22.8 -107.75 Q-26.4 -99.8 -24.9 -94.05 -23.35 -87.65 -16.9 -87.65 -10.95 -87.6 -4.0 -93.55 L-1.9 -95.45 -0.65 -90.0 -2.05 -89.15 Q-8.05 -84.45 -14.35 -82.25 -20.6 -80.1 -22.3 -82.15 -27.75 -88.8 -29.8 -87.65 -32.55 -82.5 -33.6 -77.1 -35.65 -66.3 -29.55 -63.65 -22.0 -60.35 -13.6 -60.45 -4.85 -60.55 -1.55 -64.4 -0.45 -65.65 -0.05 -65.55" fill="#d2cbbd" fill-rule="evenodd" stroke="none"/>
    <path d="M2.2 -124.4 L1.2 -124.45 -0.6 -124.3 Q-6.45 -123.45 -8.85 -120.35 -11.25 -117.3 -11.7 -114.5 L-12.65 -108.2 Q-13.15 -104.65 -7.7 -107.0 L-5.05 -108.2 -5.2 -107.85 -5.25 -107.2 -2.65 -98.25 -5.05 -96.0 Q-10.85 -91.05 -15.8 -91.05 -20.75 -91.05 -21.95 -96.0 -23.2 -100.95 -19.95 -107.9 L-18.45 -110.8 -16.5 -111.2 -15.95 -111.35 -15.55 -111.8 Q-13.6 -116.45 -11.05 -119.7 L-10.95 -119.8 Q-5.15 -124.75 -0.2 -124.75 L1.2 -124.65 2.2 -124.4 M4.1 -122.65 L3.95 -123.3 3.9 -123.45 3.95 -123.35 4.45 -122.9 4.1 -122.65" fill="#ffcc99" fill-rule="evenodd" stroke="none"/>
    <path d="M-0.65 -90.0 L0.55 -84.3 Q2.55 -73.6 -0.05 -65.55 -0.45 -65.65 -1.55 -64.4 -4.85 -60.55 -13.6 -60.45 -22.0 -60.35 -29.55 -63.65 -35.65 -66.3 -33.6 -77.1 -32.55 -82.5 -29.8 -87.65 -27.75 -88.8 -22.3 -82.15 -20.6 -80.1 -14.35 -82.25 -8.05 -84.45 -2.05 -89.15 L-0.65 -90.0 M-2.9 -57.6 Q-4.8 -51.65 -5.8 -45.5 -7.0 -38.6 -6.75 -30.25 -19.6 -31.3 -24.8 -35.4 -22.9 -35.4 -23.9 -36.6 -24.55 -37.4 -26.05 -38.2 L-28.0 -39.1 -28.05 -39.15 Q-31.0 -40.35 -28.6 -41.0 L-25.75 -41.4 -22.45 -41.4 -21.8 -41.4 Q-19.95 -41.3 -20.25 -41.85 L-20.8 -42.45 -22.15 -43.7 -22.35 -43.85 Q-25.75 -47.05 -26.25 -50.45 L-26.3 -52.15 Q-26.0 -57.05 -18.9 -56.3 -10.4 -54.5 -7.55 -54.65 -5.05 -54.75 -2.9 -57.6" fill="#eeebe6" fill-rule="evenodd" stroke="none"/>
  </g>
</svg>
