<?xml version="1.0" encoding="UTF-8" standalone="no"?>
<svg xmlns:ffdec="https://www.free-decompiler.com/flash" xmlns:xlink="http://www.w3.org/1999/xlink" ffdec:objectType="shape" height="20.55px" width="33.75px" xmlns="http://www.w3.org/2000/svg">
  <g transform="matrix(1.0, 0.0, 0.0, 1.0, 15.4, 9.6)">
    <path d="M10.35 -9.6 Q13.65 -9.6 16.0 -6.65 18.3 -3.7 18.35 0.45 L18.35 0.55 Q18.35 4.75 16.0 7.7 13.65 10.7 10.35 10.7 7.05 10.7 4.7 7.7 2.35 4.75 2.35 0.55 L2.35 0.45 Q2.4 -3.7 4.7 -6.65 7.05 -9.6 10.35 -9.6 M12.6 -3.65 Q11.25 -5.7 9.3 -5.7 8.05 -5.7 7.0 -4.8 L6.0 -3.65 Q5.35 -2.75 5.05 -1.65 4.65 -0.3 4.65 1.3 4.65 4.2 6.0 6.25 7.4 8.3 9.3 8.3 11.25 8.3 12.6 6.25 14.0 4.2 14.0 1.3 14.0 -1.6 12.6 -3.65 M0.6 0.8 Q0.6 5.0 -1.75 7.95 -4.1 10.95 -7.4 10.95 -10.7 10.95 -13.05 7.95 -15.4 5.0 -15.4 0.8 L-15.4 0.7 Q-15.35 -3.45 -13.05 -6.4 -10.7 -9.35 -7.4 -9.35 -4.1 -9.35 -1.75 -6.4 0.55 -3.45 0.6 0.7 L0.6 0.8 M-3.4 -2.0 Q-4.55 -3.8 -6.2 -3.8 -7.35 -3.8 -8.25 -3.0 L-9.1 -2.0 -9.9 -0.3 Q-10.3 0.85 -10.3 2.3 -10.3 4.8 -9.1 6.55 -7.9 8.35 -6.2 8.35 -4.55 8.35 -3.4 6.55 -2.2 4.8 -2.15 2.3 -2.2 -0.25 -3.4 -2.0" fill="#db9c64" fill-rule="evenodd" stroke="none"/>
    <path d="M12.6 -3.65 Q14.0 -1.6 14.0 1.3 14.0 4.2 12.6 6.25 11.25 8.3 9.3 8.3 7.4 8.3 6.0 6.25 4.65 4.2 4.65 1.3 4.65 -0.3 5.05 -1.65 5.35 -2.75 6.0 -3.65 L7.0 -4.8 Q8.05 -5.7 9.3 -5.7 11.25 -5.7 12.6 -3.65 M-3.4 -2.0 Q-2.2 -0.25 -2.15 2.3 -2.2 4.8 -3.4 6.55 -4.55 8.35 -6.2 8.35 -7.9 8.35 -9.1 6.55 -10.3 4.8 -10.3 2.3 -10.3 0.85 -9.9 -0.3 L-9.1 -2.0 -8.25 -3.0 Q-7.35 -3.8 -6.2 -3.8 -4.55 -3.8 -3.4 -2.0" fill="#ffdfbf" fill-rule="evenodd" stroke="none"/>
    <path d="M12.6 -3.65 Q14.0 -1.6 14.0 1.3 14.0 4.2 12.6 6.25 11.25 8.3 9.3 8.3 7.4 8.3 6.0 6.25 4.65 4.2 4.65 1.3 4.65 -0.3 5.05 -1.65 5.35 -2.75 6.0 -3.65 L7.0 -4.8 Q8.05 -5.7 9.3 -5.7 11.25 -5.7 12.6 -3.65 M-3.4 -2.0 Q-2.2 -0.25 -2.15 2.3 -2.2 4.8 -3.4 6.55 -4.55 8.35 -6.2 8.35 -7.9 8.35 -9.1 6.55 -10.3 4.8 -10.3 2.3 -10.3 0.85 -9.9 -0.3 L-9.1 -2.0 -8.25 -3.0 Q-7.35 -3.8 -6.2 -3.8 -4.55 -3.8 -3.4 -2.0 Z" fill="none" stroke="#000000" stroke-linecap="round" stroke-linejoin="round" stroke-width="3.5"/>
  </g>
</svg>
