<?xml version="1.0" encoding="UTF-8" standalone="no"?>
<svg xmlns:ffdec="https://www.free-decompiler.com/flash" xmlns:xlink="http://www.w3.org/1999/xlink" ffdec:objectType="shape" height="15.6px" width="31.2px" xmlns="http://www.w3.org/2000/svg">
  <g transform="matrix(1.0, 0.0, 0.0, 1.0, 14.1, 6.4)">
    <path d="M14.95 -4.1 Q17.05 -1.85 17.1 1.35 L17.1 1.4 Q17.1 4.65 14.95 6.9 12.75 9.2 9.7 9.2 6.65 9.2 4.5 6.9 2.35 4.65 2.35 1.4 L2.35 1.35 Q2.35 -1.85 4.5 -4.1 6.65 -6.4 9.7 -6.4 12.75 -6.4 14.95 -4.1 M12.6 -0.7 Q11.25 -2.0 9.3 -2.0 L7.0 -1.45 6.0 -0.7 Q5.35 -0.15 5.05 0.55 4.65 1.35 4.65 2.4 4.65 4.2 6.0 5.5 7.4 6.75 9.3 6.75 11.25 6.75 12.6 5.5 14.0 4.2 14.0 2.4 14.0 0.55 12.6 -0.7 M0.65 1.35 Q0.6 4.5 -1.55 6.7 -3.7 8.9 -6.75 8.9 -9.8 8.9 -11.95 6.7 -14.15 4.5 -14.1 1.35 L-14.1 1.3 Q-14.1 -1.75 -11.95 -3.95 -9.8 -6.15 -6.75 -6.15 -3.7 -6.15 -1.55 -3.95 0.6 -1.75 0.65 1.3 L0.65 1.35 M-6.2 -0.8 L-8.25 -0.3 -9.1 0.3 -9.9 1.4 Q-10.3 2.15 -10.3 3.0 -10.3 4.55 -9.1 5.7 -7.9 6.8 -6.2 6.8 -4.55 6.8 -3.4 5.7 -2.2 4.55 -2.15 3.0 -2.2 1.4 -3.4 0.3 -4.55 -0.8 -6.2 -0.8" fill="#db9c64" fill-rule="evenodd" stroke="none"/>
    <path d="M12.6 -0.7 Q14.0 0.55 14.0 2.4 14.0 4.2 12.6 5.5 11.25 6.75 9.3 6.75 7.4 6.75 6.0 5.5 4.65 4.2 4.65 2.4 4.65 1.35 5.05 0.55 5.35 -0.15 6.0 -0.7 L7.0 -1.45 9.3 -2.0 Q11.25 -2.0 12.6 -0.7 M-6.2 -0.8 Q-4.55 -0.8 -3.4 0.3 -2.2 1.4 -2.15 3.0 -2.2 4.55 -3.4 5.7 -4.55 6.8 -6.2 6.8 -7.9 6.8 -9.1 5.7 -10.3 4.55 -10.3 3.0 -10.3 2.15 -9.9 1.4 L-9.1 0.3 -8.25 -0.3 -6.2 -0.8" fill="#ffdfbf" fill-rule="evenodd" stroke="none"/>
    <path d="M12.6 -0.7 Q14.0 0.55 14.0 2.4 14.0 4.2 12.6 5.5 11.25 6.75 9.3 6.75 7.4 6.75 6.0 5.5 4.65 4.2 4.65 2.4 4.65 1.35 5.05 0.55 5.35 -0.15 6.0 -0.7 L7.0 -1.45 9.3 -2.0 Q11.25 -2.0 12.6 -0.7 M-6.2 -0.8 Q-4.55 -0.8 -3.4 0.3 -2.2 1.4 -2.15 3.0 -2.2 4.55 -3.4 5.7 -4.55 6.8 -6.2 6.8 -7.9 6.8 -9.1 5.7 -10.3 4.55 -10.3 3.0 -10.3 2.15 -9.9 1.4 L-9.1 0.3 -8.25 -0.3 -6.2 -0.8 Z" fill="none" stroke="#000000" stroke-linecap="round" stroke-linejoin="round" stroke-width="3.5"/>
  </g>
</svg>
