<?xml version="1.0" encoding="UTF-8" standalone="no"?>
<svg xmlns:ffdec="https://www.free-decompiler.com/flash" xmlns:xlink="http://www.w3.org/1999/xlink" ffdec:objectType="shape" height="12.05px" width="31.2px" xmlns="http://www.w3.org/2000/svg">
  <g transform="matrix(1.0, 0.0, 0.0, 1.0, 14.1, 6.35)">
    <path d="M0.65 -0.25 Q0.6 2.2 -1.55 3.95 -3.7 5.65 -6.75 5.7 -9.8 5.65 -11.95 3.95 -14.15 2.2 -14.1 -0.25 L-14.1 -0.3 Q-14.1 -2.7 -11.95 -4.4 -9.8 -6.15 -6.75 -6.15 -3.7 -6.15 -1.55 -4.4 0.6 -2.7 0.65 -0.3 L0.65 -0.25 M14.95 -4.65 Q17.05 -2.95 17.1 -0.5 L17.1 -0.45 Q17.1 2.0 14.95 3.75 12.75 5.45 9.7 5.5 6.65 5.45 4.5 3.75 2.35 2.0 2.35 -0.45 L2.35 -0.5 Q2.35 -2.95 4.5 -4.65 6.65 -6.35 9.7 -6.35 12.75 -6.35 14.95 -4.65 M-10.4 2.95 L-2.15 2.7 -10.4 2.95 M4.35 2.45 L15.1 1.7 4.35 2.45" fill="#db9c64" fill-rule="evenodd" stroke="none"/>
    <path d="M15.1 1.7 L4.35 2.45 M-2.15 2.7 L-10.4 2.95" fill="none" stroke="#333333" stroke-linecap="round" stroke-linejoin="round" stroke-width="2.0"/>
  </g>
</svg>
