<?xml version="1.0" encoding="UTF-8" standalone="no"?>
<svg xmlns:ffdec="https://www.free-decompiler.com/flash" xmlns:xlink="http://www.w3.org/1999/xlink" ffdec:objectType="shape" height="20.55px" width="32.9px" xmlns="http://www.w3.org/2000/svg">
  <g transform="matrix(1.0, 0.0, 0.0, 1.0, 15.4, 9.6)">
    <path d="M10.1 -9.6 Q13.1 -9.6 14.0 -6.65 14.9 -3.7 16.4 -1.25 17.85 1.15 17.35 3.4 16.85 5.6 15.25 8.15 13.65 10.7 10.35 10.7 7.05 10.7 4.7 7.7 2.35 4.75 2.35 0.55 L2.35 0.45 Q2.4 -3.7 4.7 -6.65 7.05 -9.6 10.1 -9.6 M6.55 -4.85 L6.3 -4.9 6.3 -4.25 Q4.3 -1.05 4.7 2.75 5.0 5.25 6.8 7.15 8.2 8.65 10.25 8.2 11.75 7.8 12.65 6.55 14.15 4.45 13.3 2.0 L12.25 0.0 11.4 -1.1 Q9.25 -3.5 6.55 -4.85 M0.6 0.8 Q0.6 5.0 -1.75 7.95 -4.1 10.95 -7.4 10.95 -10.7 10.95 -13.05 7.95 -15.4 5.0 -15.4 0.8 L-14.65 -0.95 Q-13.95 -2.7 -11.0 -5.4 -8.15 -8.05 -6.1 -8.7 -4.1 -9.35 -1.75 -6.4 0.55 -3.45 0.6 0.7 L0.6 0.8 M-2.6 -3.95 L-2.8 -4.3 -3.25 -4.35 -9.7 0.7 Q-10.65 2.1 -9.95 4.6 -9.5 6.3 -8.4 7.3 -6.75 9.0 -4.8 7.7 L-3.5 6.5 Q-2.4 5.2 -2.3 3.55 -2.1 0.45 -2.35 -2.4 L-2.6 -3.95" fill="#db9c64" fill-rule="evenodd" stroke="none"/>
    <path d="M6.55 -4.85 Q9.25 -3.5 11.4 -1.1 L12.25 0.0 13.3 2.0 Q14.15 4.45 12.65 6.55 11.75 7.8 10.25 8.2 8.2 8.65 6.8 7.15 5.0 5.25 4.7 2.75 4.3 -1.05 6.3 -4.25 L6.3 -4.9 6.55 -4.85 M-2.6 -3.95 L-2.35 -2.4 Q-2.1 0.45 -2.3 3.55 -2.4 5.2 -3.5 6.5 L-4.8 7.7 Q-6.75 9.0 -8.4 7.3 -9.5 6.3 -9.95 4.6 -10.65 2.1 -9.7 0.7 L-3.25 -4.35 -2.8 -4.3 -2.6 -3.95" fill="#ffdfbf" fill-rule="evenodd" stroke="none"/>
    <path d="M6.55 -4.85 L6.3 -4.9 6.3 -4.25 Q4.3 -1.05 4.7 2.75 5.0 5.25 6.8 7.15 8.2 8.65 10.25 8.2 11.75 7.8 12.65 6.55 14.15 4.45 13.3 2.0 L12.25 0.0 11.4 -1.1 Q9.25 -3.5 6.55 -4.85 M-2.6 -3.95 L-2.8 -4.3 -3.25 -4.35 -9.7 0.7 Q-10.65 2.1 -9.95 4.6 -9.5 6.3 -8.4 7.3 -6.75 9.0 -4.8 7.7 L-3.5 6.5 Q-2.4 5.2 -2.3 3.55 -2.1 0.45 -2.35 -2.4 L-2.6 -3.95 Z" fill="none" stroke="#000000" stroke-linecap="round" stroke-linejoin="round" stroke-width="3.5"/>
  </g>
</svg>
