<?xml version="1.0" encoding="UTF-8" standalone="no"?>
<svg xmlns:ffdec="https://www.free-decompiler.com/flash" xmlns:xlink="http://www.w3.org/1999/xlink" ffdec:objectType="shape" height="19.9px" width="33.75px" xmlns="http://www.w3.org/2000/svg">
  <g transform="matrix(1.0, 0.0, 0.0, 1.0, 15.4, 8.95)">
    <path d="M10.8 -8.75 Q13.65 -9.6 16.0 -6.65 18.3 -3.7 18.35 0.45 L18.35 0.55 Q18.35 4.75 16.0 7.7 13.65 10.7 10.35 10.7 7.05 10.7 4.7 7.7 2.35 4.75 2.35 0.55 L3.15 -0.15 Q3.95 -0.85 6.0 -4.4 7.95 -7.95 10.8 -8.75 M4.7 2.3 Q4.85 4.55 6.0 6.25 7.4 8.3 9.3 8.3 11.25 8.3 12.6 6.25 14.0 4.2 14.0 1.3 14.0 -1.2 12.95 -3.0 L4.7 2.3 3.6 2.95 4.7 2.3 M0.6 0.8 Q0.6 5.0 -1.75 7.95 -4.1 10.95 -7.4 10.95 -10.7 10.95 -13.05 7.95 -15.4 5.0 -15.4 0.8 L-15.4 0.7 Q-15.35 -3.45 -13.05 -6.4 -10.7 -9.35 -7.8 -7.15 -4.9 -5.0 -2.25 -3.65 0.35 -2.25 0.5 -0.75 L0.6 0.8 M-2.2 1.8 L-9.75 -0.75 -9.9 -0.3 Q-10.3 0.85 -10.3 2.3 -10.3 4.8 -9.1 6.55 -7.9 8.35 -6.2 8.35 -4.55 8.35 -3.4 6.55 -2.2 4.8 -2.15 2.3 L-2.2 1.8 -1.65 1.95 -2.2 1.8" fill="#db9c64" fill-rule="evenodd" stroke="none"/>
    <path d="M4.7 2.3 L12.95 -3.0 Q14.0 -1.2 14.0 1.3 14.0 4.2 12.6 6.25 11.25 8.3 9.3 8.3 7.4 8.3 6.0 6.25 4.85 4.55 4.7 2.3 M-2.2 1.8 L-2.15 2.3 Q-2.2 4.8 -3.4 6.55 -4.55 8.35 -6.2 8.35 -7.9 8.35 -9.1 6.55 -10.3 4.8 -10.3 2.3 -10.3 0.85 -9.9 -0.3 L-9.75 -0.75 -2.2 1.8" fill="#ffdfbf" fill-rule="evenodd" stroke="none"/>
    <path d="M4.7 2.3 L12.95 -3.0 Q14.0 -1.2 14.0 1.3 14.0 4.2 12.6 6.25 11.25 8.3 9.3 8.3 7.4 8.3 6.0 6.25 4.85 4.55 4.7 2.3 L3.6 2.95 M-2.2 1.8 L-2.15 2.3 Q-2.2 4.8 -3.4 6.55 -4.55 8.35 -6.2 8.35 -7.9 8.35 -9.1 6.55 -10.3 4.8 -10.3 2.3 -10.3 0.85 -9.9 -0.3 L-9.75 -0.75 -2.2 1.8 -1.65 1.95" fill="none" stroke="#000000" stroke-linecap="round" stroke-linejoin="round" stroke-width="3.5"/>
  </g>
</svg>
