<?xml version="1.0" encoding="UTF-8" standalone="no"?>
<svg xmlns:ffdec="https://www.free-decompiler.com/flash" xmlns:xlink="http://www.w3.org/1999/xlink" ffdec:objectType="shape" height="15.4px" width="33.75px" xmlns="http://www.w3.org/2000/svg">
  <g transform="matrix(1.0, 0.0, 0.0, 1.0, 15.4, 4.45)">
    <path d="M17.85 -3.05 Q18.35 -1.4 18.35 0.45 L18.35 0.55 Q18.35 4.75 16.0 7.7 13.65 10.7 10.35 10.7 7.05 10.7 4.7 7.7 2.35 4.75 2.35 0.55 L2.35 0.45 Q2.35 -1.4 2.85 -3.05 10.35 -4.95 17.85 -3.05 M12.6 6.25 Q13.95 4.25 14.0 1.45 L4.65 1.45 Q4.65 4.25 6.0 6.25 7.4 8.3 9.3 8.3 11.25 8.3 12.6 6.25 M0.6 0.8 Q0.6 5.0 -1.75 7.95 -4.1 10.95 -7.4 10.95 -10.7 10.95 -13.05 7.95 -15.4 5.0 -15.4 0.8 L-15.4 0.7 Q-15.4 -1.3 -14.8 -3.05 -7.4 -5.85 0.05 -3.05 0.6 -1.3 0.6 0.7 L0.6 0.8 M-9.1 6.55 Q-7.9 8.35 -6.2 8.35 -4.55 8.35 -3.4 6.55 -2.2 4.8 -2.15 2.3 L-2.2 1.45 -10.25 1.45 -10.3 2.3 Q-10.3 4.8 -9.1 6.55" fill="#db9c64" fill-rule="evenodd" stroke="none"/>
    <path d="M12.6 6.25 Q11.25 8.3 9.3 8.3 7.4 8.3 6.0 6.25 4.65 4.25 4.65 1.45 L14.0 1.45 Q13.95 4.25 12.6 6.25 M-9.1 6.55 Q-10.3 4.8 -10.3 2.3 L-10.25 1.45 -2.2 1.45 -2.15 2.3 Q-2.2 4.8 -3.4 6.55 -4.55 8.35 -6.2 8.35 -7.9 8.35 -9.1 6.55" fill="#ffdfbf" fill-rule="evenodd" stroke="none"/>
    <path d="M12.6 6.25 Q11.25 8.3 9.3 8.3 7.4 8.3 6.0 6.25 4.65 4.25 4.65 1.45 L14.0 1.45 Q13.95 4.25 12.6 6.25 M-9.1 6.55 Q-10.3 4.8 -10.3 2.3 L-10.25 1.45 -2.2 1.45 -2.15 2.3 Q-2.2 4.8 -3.4 6.55 -4.55 8.35 -6.2 8.35 -7.9 8.35 -9.1 6.55 Z" fill="none" stroke="#000000" stroke-linecap="round" stroke-linejoin="round" stroke-width="3.5"/>
  </g>
</svg>
