<?xml version="1.0" encoding="UTF-8" standalone="no"?>
<svg xmlns:ffdec="https://www.free-decompiler.com/flash" xmlns:xlink="http://www.w3.org/1999/xlink" ffdec:objectType="shape" height="16.2px" width="33.75px" xmlns="http://www.w3.org/2000/svg">
  <g transform="matrix(1.0, 0.0, 0.0, 1.0, 15.4, 9.6)">
    <path d="M10.35 -9.6 Q13.65 -9.6 16.0 -6.65 18.3 -3.7 18.35 0.45 L18.35 0.55 Q18.35 4.75 16.7 5.35 15.05 5.95 12.1 4.7 9.15 3.45 5.75 4.1 2.35 4.75 2.35 0.55 L2.35 0.45 Q2.4 -3.7 4.7 -6.65 7.05 -9.6 10.35 -9.6 M0.6 3.05 Q0.6 5.3 -3.75 4.9 -8.1 4.45 -10.6 5.85 -13.15 7.2 -14.3 6.1 -15.45 4.95 -15.4 2.85 L-15.4 0.7 Q-15.35 -3.45 -13.05 -6.4 -10.7 -9.35 -7.4 -9.35 -4.1 -9.35 -1.75 -6.4 0.55 -3.45 0.6 0.7 L0.6 3.05 M-10.4 2.95 Q-6.75 -5.1 -2.15 2.7 -6.75 -5.1 -10.4 2.95 M4.35 2.45 Q8.45 -9.25 15.1 1.7 8.45 -9.25 4.35 2.45" fill="#db9c64" fill-rule="evenodd" stroke="none"/>
    <path d="M15.1 1.7 Q8.45 -9.25 4.35 2.45 M-2.15 2.7 Q-6.75 -5.1 -10.4 2.95" fill="none" stroke="#333333" stroke-linecap="round" stroke-linejoin="round" stroke-width="2.0"/>
  </g>
</svg>
