<?xml version="1.0" encoding="UTF-8" standalone="no"?>
<svg xmlns:ffdec="https://www.free-decompiler.com/flash" xmlns:xlink="http://www.w3.org/1999/xlink" ffdec:objectType="shape" height="98.7px" width="117.95px" xmlns="http://www.w3.org/2000/svg">
  <g transform="matrix(1.0, 0.0, 0.0, 1.0, 26.5, 24.95)">
    <path d="M16.85 -2.2 L18.0 -2.75 5.5 -14.75 4.9 -14.4 Q9.45 -6.85 16.85 -2.2 M37.55 14.35 L37.75 14.3 Q45.15 12.45 51.7 6.5 L53.4 5.0 51.1 4.75 Q41.95 4.0 36.45 -1.2 L35.7 -1.9 Q40.3 5.25 48.6 6.5 43.2 10.8 37.05 12.35 30.85 13.85 20.35 11.4 9.8 8.95 3.95 3.65 L-3.15 -2.8 Q-8.3 -12.3 -3.6 -17.5 L-3.55 -17.55 Q-2.2 -19.75 0.4 -21.45 7.75 -26.1 18.1 -15.2 L18.25 -15.05 Q20.6 -12.5 25.4 -9.45 L24.8 -10.25 20.95 -15.0 Q47.6 -15.9 61.65 5.85 L54.9 1.6 Q61.3 8.1 62.55 8.75 L62.6 8.8 65.9 10.45 66.05 10.55 Q72.25 13.1 81.3 10.55 75.7 16.3 70.35 18.9 L67.25 20.3 66.9 20.45 Q56.0 24.45 45.25 19.95 44.1 19.45 42.1 20.65 L42.05 20.65 Q37.85 17.7 37.55 14.35 M44.0 21.6 L44.5 21.8 Q55.5 26.35 64.85 23.4 68.8 35.9 77.55 42.25 L67.3 41.9 67.2 41.9 Q58.75 40.9 51.4 35.4 L51.2 35.25 51.05 35.15 51.0 35.1 50.95 35.1 41.95 28.3 41.4 27.5 Q40.85 24.55 44.0 21.6 M67.15 15.6 Q58.2 15.75 49.9 12.8 L49.7 13.6 Q58.2 19.45 67.95 17.6 68.7 17.45 69.45 15.65 L67.15 15.6 M64.6 13.25 L57.95 10.3 Q59.9 13.65 63.75 13.45 L64.6 13.25 M51.45 27.95 Q58.55 35.95 69.05 38.2 L70.2 38.45 52.5 26.75 51.45 27.95 M58.85 36.65 L58.75 35.9 Q53.4 32.55 49.6 27.5 51.45 33.45 57.25 35.95 L58.85 36.65 M54.45 48.9 L55.0 51.0 55.45 51.1 55.1 48.25 54.45 48.9 M56.0 44.25 Q56.85 60.45 71.4 67.0 74.45 68.4 77.95 68.8 L78.1 67.05 Q62.55 63.2 58.05 47.95 57.5 46.05 57.1 44.15 L56.0 44.25 M62.05 43.8 Q65.35 48.6 68.0 56.6 70.6 64.6 84.85 63.8 79.8 76.0 65.8 70.95 55.8 67.45 52.7 57.45 49.6 47.4 52.85 38.6 58.25 42.65 62.05 43.8 M34.05 5.75 Q21.45 -3.25 11.0 -14.9 17.85 -2.2 30.85 4.25 L34.05 5.75 M34.75 10.0 Q30.6 7.8 26.35 7.0 29.65 9.6 33.75 10.4 L34.75 10.0 M35.9 10.1 L38.25 10.0 Q39.7 9.7 40.0 8.25 L39.5 7.5 Q37.25 8.3 35.9 10.1 M21.55 7.35 Q7.3 1.55 -0.5 -11.5 L-1.0 -10.9 Q5.35 4.25 21.35 8.15 L21.55 7.35 M62.9 54.3 L60.55 50.1 61.3 52.3 Q61.55 53.25 62.4 53.85 L62.9 54.3 M-20.5 -0.9 L-20.05 -1.05 Q-17.15 -8.35 -11.3 -13.5 -17.6 -8.9 -21.0 -1.8 L-20.5 -0.9 M-19.9 -12.0 Q-16.95 -15.35 -12.65 -16.35 L-6.1 -17.1 Q-8.8 -11.25 -6.7 -2.55 -12.5 3.35 -19.1 5.9 -22.1 3.75 -23.75 0.6 -24.55 -1.0 -25.15 -3.9 -25.75 -6.85 -19.9 -11.95 L-19.9 -12.0 M-13.0 -7.5 L-16.15 -3.75 -16.05 -1.9 -12.0 -6.65 -13.0 -7.5" fill="#6d4730" fill-rule="evenodd" stroke="none"/>
    <path d="M42.1 20.65 Q44.1 19.45 45.25 19.95 56.0 24.45 66.9 20.45 L67.25 20.3 70.35 18.9 Q75.7 16.3 81.3 10.55 72.25 13.1 66.05 10.55 L65.9 10.45 62.6 8.8 62.55 8.75 Q61.3 8.1 54.9 1.6 L61.65 5.85 Q47.6 -15.9 20.95 -15.0 L24.8 -10.25 25.4 -9.45 Q20.6 -12.5 18.25 -15.05 L18.1 -15.2 Q7.75 -26.1 0.4 -21.45 -2.2 -19.75 -3.55 -17.55 L-3.6 -17.5 Q-8.3 -12.3 -3.15 -2.8 L3.95 3.65 Q9.8 8.95 20.35 11.4 30.85 13.85 37.05 12.35 43.2 10.8 48.6 6.5 40.3 5.25 35.7 -1.9 L36.45 -1.2 Q41.95 4.0 51.1 4.75 L53.4 5.0 51.7 6.5 Q45.15 12.45 37.75 14.3 L37.55 14.35 Q30.9 15.9 23.65 14.25 9.25 10.75 -1.95 0.95 L-4.05 -0.9 Q-11.85 5.35 -18.9 7.95 L-19.35 8.15 -19.8 7.85 Q-23.5 5.35 -25.5 1.55 L-25.55 1.5 Q-26.55 -0.5 -26.5 -2.9 -26.4 -6.1 -24.75 -8.85 L-21.4 -13.3 Q-18.05 -17.15 -13.1 -18.3 -9.05 -19.3 -4.95 -19.05 -3.4 -21.35 -0.7 -23.1 7.7 -28.85 19.25 -16.9 50.25 -18.75 67.1 8.8 73.7 11.4 81.0 9.3 L83.45 8.65 82.1 10.75 Q78.25 17.25 71.25 20.7 L68.55 21.95 Q70.85 36.25 78.85 41.5 L80.8 42.9 78.5 43.35 68.05 44.0 Q68.0 48.4 69.85 52.45 75.15 63.95 89.25 59.8 L91.45 59.2 90.4 61.2 Q81.8 79.0 64.15 71.6 L64.1 71.6 Q54.55 67.45 51.0 57.45 47.35 47.1 49.55 36.5 45.05 33.0 41.95 28.3 L41.4 27.5 41.95 28.3 50.95 35.1 51.0 35.1 51.05 35.15 51.2 35.25 51.4 35.4 Q58.75 40.9 67.2 41.9 L67.3 41.9 77.55 42.25 Q68.8 35.9 64.85 23.4 55.5 26.35 44.5 21.8 L44.0 21.6 42.1 20.65 M62.05 43.8 Q58.25 42.65 52.85 38.6 49.6 47.4 52.7 57.45 55.8 67.45 65.8 70.95 79.8 76.0 84.85 63.8 70.6 64.6 68.0 56.6 65.35 48.6 62.05 43.8 M-19.9 -12.0 L-19.9 -11.95 Q-25.75 -6.85 -25.15 -3.9 -24.55 -1.0 -23.75 0.6 -22.1 3.75 -19.1 5.9 -12.5 3.35 -6.7 -2.55 -8.8 -11.25 -6.1 -17.1 L-12.65 -16.35 Q-16.95 -15.35 -19.9 -12.0" fill="#573826" fill-rule="evenodd" stroke="none"/>
    <path d="M16.85 -2.2 Q9.45 -6.85 4.9 -14.4 L5.5 -14.75 18.0 -2.75 16.85 -2.2 M56.0 44.25 L57.1 44.15 Q57.5 46.05 58.05 47.95 62.55 63.2 78.1 67.05 L77.95 68.8 Q74.45 68.4 71.4 67.0 56.85 60.45 56.0 44.25 M54.45 48.9 L55.1 48.25 55.45 51.1 55.0 51.0 54.45 48.9 M58.85 36.65 L57.25 35.95 Q51.45 33.45 49.6 27.5 53.4 32.55 58.75 35.9 L58.85 36.65 M51.45 27.95 L52.5 26.75 70.2 38.45 69.05 38.2 Q58.55 35.95 51.45 27.95 M64.6 13.25 L63.75 13.45 Q59.9 13.65 57.95 10.3 L64.6 13.25 M67.15 15.6 L69.45 15.65 Q68.7 17.45 67.95 17.6 58.2 19.45 49.7 13.6 L49.9 12.8 Q58.2 15.75 67.15 15.6 M-20.5 -0.9 L-21.0 -1.8 Q-17.6 -8.9 -11.3 -13.5 -17.15 -8.35 -20.05 -1.05 L-20.5 -0.9 M62.9 54.3 L62.4 53.85 Q61.55 53.25 61.3 52.3 L60.55 50.1 62.9 54.3 M21.55 7.35 L21.35 8.15 Q5.35 4.25 -1.0 -10.9 L-0.5 -11.5 Q7.3 1.55 21.55 7.35 M35.9 10.1 Q37.25 8.3 39.5 7.5 L40.0 8.25 Q39.7 9.7 38.25 10.0 L35.9 10.1 M34.75 10.0 L33.75 10.4 Q29.65 9.6 26.35 7.0 30.6 7.8 34.75 10.0 M34.05 5.75 L30.85 4.25 Q17.85 -2.2 11.0 -14.9 21.45 -3.25 34.05 5.75 M-13.0 -7.5 L-12.0 -6.65 -16.05 -1.9 -16.15 -3.75 -13.0 -7.5" fill="#7c5136" fill-rule="evenodd" stroke="none"/>
  </g>
</svg>
