<?xml version="1.0" encoding="UTF-8" standalone="no"?>
<svg xmlns:ffdec="https://www.free-decompiler.com/flash" xmlns:xlink="http://www.w3.org/1999/xlink" ffdec:objectType="shape" height="92.0px" width="91.95px" xmlns="http://www.w3.org/2000/svg">
  <g transform="matrix(1.0, 0.0, 0.0, 1.0, 29.9, 66.5)">
    <path d="M-15.8 -52.35 L-15.7 -52.25 -16.25 -51.95 -15.8 -52.35" fill="#edcda3" fill-rule="evenodd" stroke="none"/>
    <path d="M-15.7 -52.25 L-13.55 -53.35 Q-5.6 -57.25 4.05 -57.25 20.45 -57.25 32.05 -45.9 43.6 -34.55 43.65 -18.45 43.6 -2.35 32.05 9.05 20.45 20.4 4.05 20.4 L-4.6 19.55 Q-10.65 16.4 -15.8 11.25 -28.95 -1.9 -28.9 -20.55 -28.95 -36.2 -19.6 -48.05 L-16.25 -51.95 -15.7 -52.25" fill="#ffcc99" fill-rule="evenodd" stroke="none"/>
    <path d="M2.25 22.4 L10.95 23.25 Q28.4 23.25 40.7 10.85 53.05 -1.45 53.05 -18.9 53.05 -36.4 40.7 -48.75 28.4 -61.1 10.95 -61.1 -2.9 -61.1 -13.55 -53.35 L-15.7 -52.25 -15.8 -52.35 Q-2.6 -65.55 16.05 -65.5 34.65 -65.55 47.85 -52.35 61.05 -39.15 61.05 -20.55 61.05 -1.9 47.85 11.25 34.65 24.45 16.05 24.5 8.7 24.45 2.25 22.4" fill="#db9c64" fill-rule="evenodd" stroke="none"/>
    <path d="M-13.55 -53.35 Q-2.9 -61.1 10.95 -61.1 28.4 -61.1 40.7 -48.75 53.05 -36.4 53.05 -18.9 53.05 -1.45 40.7 10.85 28.4 23.25 10.95 23.25 L2.25 22.4 Q-1.35 21.25 -4.6 19.55 L4.05 20.4 Q20.45 20.4 32.05 9.05 43.6 -2.35 43.65 -18.45 43.6 -34.55 32.05 -45.9 20.45 -57.25 4.05 -57.25 -5.6 -57.25 -13.55 -53.35" fill="#f1ba87" fill-rule="evenodd" stroke="none"/>
    <path d="M2.25 22.4 Q8.7 24.45 16.05 24.5 34.65 24.45 47.85 11.25 61.05 -1.9 61.05 -20.55 61.05 -39.15 47.85 -52.35 34.65 -65.55 16.05 -65.5 -2.6 -65.55 -15.8 -52.35 L-16.25 -51.95 -15.7 -52.25 M-4.6 19.55 Q-1.35 21.25 2.25 22.4 M-4.6 19.55 Q-10.65 16.4 -15.8 11.25 -28.95 -1.9 -28.9 -20.55 -28.95 -36.2 -19.6 -48.05 L-16.25 -51.95" fill="none" stroke="#5c4730" stroke-linecap="round" stroke-linejoin="round" stroke-width="2.0"/>
  </g>
</svg>
