<?xml version="1.0" encoding="UTF-8" standalone="no"?>
<svg xmlns:ffdec="https://www.free-decompiler.com/flash" xmlns:xlink="http://www.w3.org/1999/xlink" ffdec:objectType="shape" height="59.75px" width="42.05px" xmlns="http://www.w3.org/2000/svg">
  <g transform="matrix(1.0, 0.0, 0.0, 1.0, 11.8, 8.05)">
    <path d="M3.35 -1.7 L3.3 -1.6 3.45 -1.5 Q5.4 -0.25 7.8 4.2 L7.95 4.5 12.45 13.4 Q14.35 17.4 16.75 21.6 L21.25 29.75 Q23.55 34.05 25.5 38.45 L28.0 44.2 Q27.3 46.05 25.95 47.55 L25.2 45.95 Q22.7 40.45 12.75 22.2 9.55 16.3 6.95 12.1 L5.5 9.85 Q1.0 2.9 -1.4 1.6 -3.7 0.35 -4.7 0.55 L-5.15 1.05 -5.6 1.7 -5.65 1.85 Q-6.65 3.65 -7.1 6.95 L-7.1 7.0 -7.05 7.0 -7.1 8.3 -7.0 11.3 Q-8.4 9.3 -9.15 6.65 L-9.15 6.7 Q-10.3 2.25 -8.95 -1.45 -7.65 -4.95 -4.7 -5.7 L-4.65 -5.7 Q-1.75 -6.5 1.1 -4.15 L3.35 -1.7" fill="#db9c64" fill-rule="evenodd" stroke="none"/>
    <path d="M-7.0 11.3 Q-6.75 13.6 -6.0 15.45 L-6.2 15.2 Q-9.75 12.3 -11.15 7.25 L-11.15 7.2 Q-12.55 2.1 -10.95 -2.2 L-10.9 -2.2 Q-9.2 -6.75 -5.2 -7.75 L-5.25 -7.75 Q-1.35 -8.85 2.4 -5.75 5.6 -3.2 7.05 1.2 L6.45 0.55 Q3.75 -2.05 3.35 -1.7 L1.1 -4.15 Q-1.75 -6.5 -4.65 -5.7 L-4.7 -5.7 Q-7.65 -4.95 -8.95 -1.45 -10.3 2.25 -9.15 6.7 L-9.15 6.65 Q-8.4 9.3 -7.0 11.3" fill="#3f3f3f" fill-rule="evenodd" stroke="none"/>
    <path d="M25.95 47.55 Q27.3 46.05 28.0 44.2 L25.5 38.45 Q23.55 34.05 21.25 29.75 L16.75 21.6 Q14.35 17.4 12.45 13.4 L7.95 4.5 7.8 4.2 Q5.4 -0.25 3.45 -1.5 L3.3 -1.6 3.35 -1.7 Q3.75 -2.05 6.45 0.55 L7.05 1.2 Q9.65 3.9 11.8 8.35 14.2 13.35 16.3 16.75 19.1 21.25 21.7 26.05 L26.4 35.25 30.25 44.15 Q29.6 47.2 27.25 49.4 23.2 53.15 18.35 50.75 L17.0 49.8 Q13.5 45.95 10.7 41.55 L5.85 34.0 0.7 25.8 Q-2.0 21.35 -4.75 17.6 L-6.0 15.45 Q-6.75 13.6 -7.0 11.3 L-7.1 8.3 -6.75 10.9 -6.45 12.0 Q-5.65 14.25 -3.2 17.05 L-3.15 17.05 Q-0.1 20.55 2.4 24.5 L7.7 32.8 12.4 40.35 Q14.85 44.35 18.2 47.6 22.1 51.35 25.95 47.55" fill="#5c4730" fill-rule="evenodd" stroke="none"/>
    <path d="M25.95 47.55 Q22.1 51.35 18.2 47.6 14.85 44.35 12.4 40.35 L7.7 32.8 2.4 24.5 Q-0.1 20.55 -3.15 17.05 L-3.2 17.05 Q-5.65 14.25 -6.45 12.0 L-6.75 10.9 -7.1 8.3 -7.05 7.0 -7.1 7.0 -7.1 6.95 Q-6.65 3.65 -5.65 1.85 L-5.6 1.7 -5.15 1.05 -4.7 0.55 Q-3.7 0.35 -1.4 1.6 1.0 2.9 5.5 9.85 L6.95 12.1 Q9.55 16.3 12.75 22.2 22.7 40.45 25.2 45.95 L25.95 47.55" fill="#f1ba87" fill-rule="evenodd" stroke="none"/>
  </g>
</svg>
