<?xml version="1.0" encoding="UTF-8" standalone="no"?>
<svg xmlns:ffdec="https://www.free-decompiler.com/flash" xmlns:xlink="http://www.w3.org/1999/xlink" ffdec:objectType="shape" height="48.35px" width="50.05px" xmlns="http://www.w3.org/2000/svg">
  <g transform="matrix(1.0, 0.0, 0.0, 1.0, 22.0, 25.25)">
    <path d="M12.7 -5.15 L12.9 -9.55 13.6 -9.35 13.65 -9.35 13.7 -9.3 13.35 -8.75 13.65 -8.75 Q13.65 -8.75 13.75 -8.7 18.3 -6.5 18.5 -3.05 21.35 -4.55 24.75 -1.8 26.1 5.65 23.05 8.45 L23.05 8.4 23.0 8.35 22.35 7.8 Q19.05 5.1 14.85 5.25 L14.3 5.25 12.65 8.6 11.05 8.9 10.9 8.95 10.25 9.05 11.45 7.95 13.8 5.15 13.75 5.2 14.05 4.8 14.1 4.75 Q14.9 3.4 15.15 1.95 L15.15 1.9 Q15.25 0.4 14.75 -0.75 L14.7 -0.75 14.7 -0.8 14.15 -1.3 13.9 -1.35 13.85 -1.35 Q13.9 -3.8 12.7 -5.15" fill="#456972" fill-rule="evenodd" stroke="none"/>
    <path d="M11.55 4.9 Q13.15 3.6 13.2 1.65 L13.2 1.4 13.05 0.5 12.85 -1.6 13.85 -1.35 13.9 -1.35 14.15 -1.3 14.7 -0.8 14.7 -0.75 14.75 -0.75 Q15.25 0.4 15.15 1.9 L15.15 1.95 Q14.9 3.4 14.1 4.75 L14.05 4.8 13.75 5.2 13.8 5.15 11.45 7.95 10.25 9.05 10.9 8.95 11.05 8.9 12.65 8.6 14.3 5.25 14.85 5.25 Q19.05 5.1 22.35 7.8 L23.0 8.35 23.05 8.4 23.05 8.45 24.3 10.05 25.15 8.25 25.1 8.3 Q26.5 4.3 25.85 0.4 L25.85 0.45 25.75 -0.1 Q25.45 -1.65 24.8 -2.9 24.15 -4.35 22.9 -5.4 L22.85 -5.45 Q21.25 -6.8 19.4 -7.55 L19.45 -7.55 Q16.65 -8.7 13.75 -8.75 L13.65 -8.75 13.35 -8.75 13.7 -9.3 13.65 -9.35 13.6 -9.35 12.9 -9.55 13.05 -11.4 13.15 -11.35 14.85 -10.85 14.75 -10.7 14.85 -10.7 Q17.55 -10.5 20.2 -9.4 22.35 -8.5 24.15 -6.95 25.75 -5.65 26.6 -3.75 L27.75 -0.4 27.75 -0.3 27.75 -0.2 27.8 -0.05 27.8 0.05 Q28.6 4.5 27.0 8.95 L27.0 9.0 25.05 12.65 24.0 14.25 23.3 12.5 Q22.65 10.9 21.55 9.75 L21.5 9.7 21.15 9.4 21.1 9.35 Q18.6 7.3 15.55 7.25 L14.0 10.35 11.95 10.75 Q10.15 15.8 5.25 22.15 L5.05 22.9 4.7 22.85 4.5 23.1 3.9 22.65 3.1 22.45 3.2 22.1 2.9 21.9 3.35 21.3 5.7 10.7 5.75 10.45 5.9 10.2 6.05 10.05 6.1 10.0 10.05 6.5 10.1 6.5 11.55 4.9 M1.35 -12.1 L1.55 -10.1 1.0 -10.05 0.95 -10.05 -1.9 -9.7 Q-6.15 -9.05 -9.45 -7.0 L-12.1 -5.2 -12.1 -5.15 -12.2 -5.1 Q-13.0 -4.6 -13.25 -3.65 -13.5 -3.05 -13.15 -2.35 L-13.0 -2.0 -12.95 -1.95 -12.9 -1.85 -11.1 1.6 -9.95 3.6 -9.9 3.65 -9.8 3.95 -9.4 4.95 -9.35 5.0 Q-8.85 6.2 -8.8 8.8 L-8.8 10.1 -7.9 7.35 Q-6.7 2.8 -3.5 -0.1 -1.45 -2.05 1.35 -3.15 L1.0 -0.5 -1.8 1.6 -1.8 1.55 Q-4.7 4.15 -5.7 8.3 -6.55 11.45 -8.2 14.75 L-9.6 17.3 -9.7 17.3 -10.35 14.05 Q-11.1 10.7 -11.1 8.35 L-11.25 6.3 Q-14.7 9.75 -20.3 6.8 L-22.0 5.95 -20.7 5.0 Q-15.7 1.15 -15.15 -1.9 L-15.2 -1.95 -15.2 -2.0 Q-15.8 -3.45 -15.35 -4.65 -14.9 -6.05 -13.75 -6.85 L-13.75 -6.8 Q-12.5 -7.95 -10.85 -8.8 L-10.9 -8.8 Q-7.4 -11.0 -2.8 -11.65 L0.2 -12.05 1.35 -12.1 M-13.0 2.3 L-13.7 1.15 Q-14.9 3.25 -17.6 5.65 -14.3 6.55 -12.2 3.7 L-13.0 2.3 M9.6 11.25 L7.55 11.65 6.35 17.2 9.6 11.25" fill="#3f3f3f" fill-rule="evenodd" stroke="none"/>
    <path d="M12.85 -1.6 Q12.7 -3.3 12.7 -5.15 13.9 -3.8 13.85 -1.35 L12.85 -1.6 M1.55 -10.1 Q1.7 -6.85 1.35 -3.15 -1.45 -2.05 -3.5 -0.1 -6.7 2.8 -7.9 7.35 L-8.8 10.1 -8.8 8.8 Q-8.85 6.2 -9.35 5.0 L-9.4 4.95 -9.8 3.95 -9.9 3.65 -9.95 3.6 -11.1 1.6 -12.9 -1.85 -12.95 -1.95 -13.0 -2.0 -13.15 -2.35 Q-13.5 -3.05 -13.25 -3.65 -13.0 -4.6 -12.2 -5.1 L-12.1 -5.15 -12.1 -5.2 -9.45 -7.0 Q-6.15 -9.05 -1.9 -9.7 L0.95 -10.05 1.0 -10.05 1.55 -10.1 M13.65 -8.75 L13.75 -8.75 Q16.65 -8.7 19.45 -7.55 L19.4 -7.55 Q21.25 -6.8 22.85 -5.45 L22.9 -5.4 Q24.15 -4.35 24.8 -2.9 25.45 -1.65 25.75 -0.1 L25.85 0.45 25.85 0.4 Q26.5 4.3 25.1 8.3 L25.15 8.25 24.3 10.05 23.05 8.45 Q26.1 5.65 24.75 -1.8 21.35 -4.55 18.5 -3.05 18.3 -6.5 13.75 -8.7 13.65 -8.75 13.65 -8.75" fill="#36535a" fill-rule="evenodd" stroke="none"/>
    <path d="M9.6 11.25 L6.35 17.2 7.55 11.65 9.6 11.25 M-13.0 2.3 L-12.2 3.7 Q-14.3 6.55 -17.6 5.65 -14.9 3.25 -13.7 1.15 L-13.0 2.3" fill="#294045" fill-rule="evenodd" stroke="none"/>
    <path d="M11.0 -11.85 L11.55 -15.3 12.15 -18.0 12.25 -18.35 12.8 -19.55 12.15 -21.1 Q10.85 -23.4 8.05 -23.3 L0.7 -22.9 3.45 -13.1 3.55 -12.8 3.6 -12.45 3.7 -12.05 3.6 -10.2 3.15 -3.8 2.85 -1.4 2.65 -0.1 Q2.1 2.7 -0.15 7.45 L-0.85 7.7 Q0.35 3.4 1.0 -0.5 L1.35 -3.15 Q1.7 -6.85 1.55 -10.1 L1.35 -12.1 Q1.05 -14.65 0.4 -16.85 L-1.6 -23.5 -1.6 -24.05 -1.3 -24.55 -0.75 -24.8 8.0 -25.25 Q12.05 -25.4 13.9 -22.05 L14.85 -19.7 14.8 -19.0 14.05 -17.55 14.05 -17.5 13.5 -14.95 13.05 -11.4 12.9 -9.55 12.7 -5.15 Q12.7 -3.3 12.85 -1.6 L13.05 0.5 13.2 1.4 13.2 1.65 Q13.15 3.6 11.55 4.9 L11.5 4.9 11.0 0.15 10.9 -1.8 Q10.75 -4.75 10.85 -7.95 L10.9 -9.9 10.95 -11.65 11.0 -11.85" fill="#5c4730" fill-rule="evenodd" stroke="none"/>
    <path d="M3.7 -12.05 L3.6 -12.45 3.55 -12.8 3.45 -13.1 0.7 -22.9 8.05 -23.3 Q10.85 -23.4 12.15 -21.1 L12.8 -19.55 12.25 -18.35 12.15 -18.0 11.55 -15.3 11.0 -11.85 9.75 -11.7 3.7 -12.05" fill="#d18b58" fill-rule="evenodd" stroke="none"/>
    <path d="M3.7 -12.05 L9.75 -11.7 10.95 -11.65 10.9 -9.9 10.85 -7.95 Q10.75 -4.75 10.9 -1.8 L11.0 0.15 11.5 4.9 Q4.05 8.35 -0.2 7.5 L1.6 6.75 -0.15 7.45 Q2.1 2.7 2.65 -0.1 L2.85 -1.4 3.15 -3.8 3.6 -10.2 3.7 -12.05" fill="#f1ba87" fill-rule="evenodd" stroke="none"/>
    <path d="M9.75 -11.7 L11.0 -11.85 10.95 -11.65 9.75 -11.7" fill="#c18753" fill-rule="evenodd" stroke="none"/>
  </g>
</svg>
