<?xml version="1.0" encoding="UTF-8" standalone="no"?>
<svg xmlns:ffdec="https://www.free-decompiler.com/flash" xmlns:xlink="http://www.w3.org/1999/xlink" ffdec:objectType="shape" height="30.85px" width="41.2px" xmlns="http://www.w3.org/2000/svg">
  <g transform="matrix(1.0, 0.0, 0.0, 1.0, 19.05, 14.1)">
    <path d="M-15.9 6.95 Q-17.95 2.3 -19.05 0.45 L-18.65 0.1 -17.9 0.05 Q-9.9 2.85 -1.35 1.55 12.6 -0.85 19.1 -13.45 19.3 -13.8 19.7 -13.95 L20.05 -14.0 20.1 -14.0 20.25 -14.1 21.7 -7.35 Q22.55 -2.15 21.75 5.35 L21.5 5.95 21.3 6.35 Q12.25 18.65 -3.1 16.4 -11.15 15.1 -15.9 7.0 L-15.9 6.95 M20.1 -4.05 L19.7 -9.45 19.6 -10.25 Q12.6 1.15 -1.0 3.5 L-1.05 3.5 Q-6.3 4.35 -11.35 3.65 L-12.1 3.5 -12.4 3.55 -12.8 3.45 -16.6 2.6 -15.45 4.0 -14.9 4.85 -14.2 5.95 -14.1 6.05 -13.4 7.2 -13.4 7.15 -13.2 7.1 -9.15 9.8 -6.4 9.1 -6.0 9.0 -3.9 8.55 -3.75 8.5 -2.85 8.5 -2.75 8.75 -2.8 9.0 -2.85 9.0 -7.8 10.55 -8.3 12.05 -8.3 12.15 -8.35 12.25 -8.35 12.3 -6.2 13.45 Q-4.6 14.1 -2.8 14.45 L-2.8 14.4 Q5.95 15.7 12.5 11.85 L12.55 11.9 12.25 12.15 12.95 11.6 13.25 11.4 17.05 8.2 17.65 7.6 19.7 5.15 19.75 5.1 19.75 5.05 20.0 5.05 20.05 4.25 Q19.1 3.45 18.55 3.45 16.3 3.45 14.55 4.25 L14.45 4.3 13.9 4.65 Q13.35 4.9 12.85 5.2 L12.8 5.2 12.7 5.2 12.2 5.2 12.1 5.0 Q12.1 4.6 13.5 3.95 L13.95 3.75 14.0 3.75 14.5 3.55 15.45 3.2 15.55 3.15 15.7 3.1 18.85 1.85 Q19.6 0.75 20.15 -0.9 L20.15 -0.15 20.2 -0.95 20.2 -1.0 20.15 -3.15 20.05 -3.85 20.1 -3.95 20.1 -4.05 M-11.65 9.5 L-9.95 11.1 -8.5 12.2 -9.35 11.6 -9.4 11.15 -11.2 9.7 -11.8 9.3 -11.65 9.5" fill="#682424" fill-rule="evenodd" stroke="none"/>
    <path d="M-14.2 5.95 L-14.9 4.85 -15.45 4.0 -16.6 2.6 -12.8 3.45 -12.4 3.55 -12.1 3.5 -11.35 3.65 Q-6.3 4.35 -1.05 3.5 L-1.0 3.5 Q12.6 1.15 19.6 -10.25 L19.7 -9.45 20.1 -4.05 20.05 -4.0 19.95 -3.85 20.05 -3.85 20.15 -3.15 20.2 -1.0 20.2 -0.95 20.15 -0.9 Q19.6 0.75 18.85 1.85 L15.7 3.1 15.55 3.15 15.45 3.2 14.5 3.55 14.0 3.75 13.95 3.75 13.75 3.75 13.5 3.95 Q12.1 4.6 12.1 5.0 L12.2 5.2 12.7 5.2 12.8 5.2 12.85 5.2 Q13.35 4.9 13.9 4.65 L14.45 4.3 14.5 4.3 14.55 4.3 14.55 4.25 Q16.3 3.45 18.55 3.45 19.1 3.45 20.05 4.25 L20.0 5.05 19.75 5.05 19.75 5.1 19.7 5.15 17.65 7.6 17.05 8.2 Q16.85 4.95 14.25 4.95 L11.8 5.65 11.55 5.6 11.45 5.3 Q11.45 4.6 15.5 1.55 16.0 1.15 16.45 -0.05 15.05 1.0 13.25 1.8 8.5 3.85 6.7 4.3 0.35 5.8 -3.4 5.8 L-11.9 5.05 -14.65 4.25 Q-11.1 8.55 -5.8 8.55 L-1.5 8.3 1.05 8.4 1.1 8.65 Q-0.05 9.4 -3.7 10.95 -5.1 11.85 -5.6 13.65 L-6.2 13.45 -8.35 12.3 -8.35 12.25 -8.3 12.15 -8.3 12.1 -8.3 12.05 -7.8 10.55 -2.85 9.0 -2.8 9.0 -2.75 8.75 -2.85 8.5 -3.75 8.5 -3.9 8.55 -6.0 9.0 -6.4 9.1 -9.15 9.8 -13.2 7.1 -13.4 7.15 -13.4 7.2 -14.1 6.05 -14.15 5.95 -14.2 5.95" fill="#e5e5e5" fill-rule="evenodd" stroke="none"/>
    <path d="M20.1 -4.05 L20.1 -3.95 20.05 -3.85 19.95 -3.85 20.05 -4.0 20.1 -4.05 M13.95 3.75 L13.5 3.95 13.75 3.75 13.95 3.75 M17.05 8.2 L13.25 11.4 12.95 11.6 12.5 11.85 Q5.95 15.7 -2.8 14.4 L-2.8 14.45 Q-4.6 14.1 -6.2 13.45 L-5.6 13.65 Q-5.1 11.85 -3.7 10.95 -0.05 9.4 1.1 8.65 L1.05 8.4 -1.5 8.3 -5.8 8.55 Q-11.1 8.55 -14.65 4.25 L-11.9 5.05 -3.4 5.8 Q0.35 5.8 6.7 4.3 8.5 3.85 13.25 1.8 15.05 1.0 16.45 -0.05 16.0 1.15 15.5 1.55 11.45 4.6 11.45 5.3 L11.55 5.6 11.8 5.65 14.25 4.95 Q16.85 4.95 17.05 8.2 M14.5 4.3 L14.55 4.25 14.55 4.3 14.5 4.3" fill="#f9f9f9" fill-rule="evenodd" stroke="none"/>
    <path d="M-15.9 6.95 L-15.9 7.0 -15.9 6.95 M14.45 4.3 L14.55 4.25 14.5 4.3 14.45 4.3 M12.55 11.9 L12.5 11.85 12.95 11.6 12.55 11.9 M-14.1 6.05 L-14.2 5.95 -14.15 5.95 -14.1 6.05" fill="#463624" fill-rule="evenodd" stroke="none"/>
    <path d="M-8.3 12.15 L-8.3 12.05 -8.3 12.1 -8.3 12.15 M-11.65 9.5 L-11.8 9.3 -11.2 9.7 -9.4 11.15 -9.35 11.6 -8.5 12.2 -9.95 11.1 -11.65 9.5" fill="#57352d" fill-rule="evenodd" stroke="none"/>
  </g>
</svg>
