<?xml version="1.0" encoding="UTF-8" standalone="no"?>
<svg xmlns:ffdec="https://www.free-decompiler.com/flash" xmlns:xlink="http://www.w3.org/1999/xlink" ffdec:objectType="shape" height="25.9px" width="35.65px" xmlns="http://www.w3.org/2000/svg">
  <g transform="matrix(1.0, 0.0, 0.0, 1.0, 14.3, 9.8)">
    <path d="M-6.55 -0.05 L-2.8 -2.65 Q5.05 -7.75 10.5 -7.75 15.8 -7.75 18.4 -3.45 L19.45 -1.35 18.95 -1.65 Q18.35 -2.3 15.75 -2.3 L14.25 -2.25 Q-0.75 3.35 -2.25 3.35 -2.75 3.35 -4.65 1.55 L-6.55 -0.05" fill="#e5e5e5" fill-rule="evenodd" stroke="none"/>
    <path d="M-6.55 -0.05 L-4.65 1.55 Q-2.75 3.35 -2.25 3.35 -0.75 3.35 14.25 -2.25 L15.75 -2.3 Q18.35 -2.3 18.95 -1.65 L19.45 -1.35 18.4 -3.45 Q15.8 -7.75 10.5 -7.75 5.05 -7.75 -2.8 -2.65 L-6.55 -0.05 -7.05 0.3 -6.55 -0.05 M19.85 0.2 Q18.55 0.2 18.15 -0.4 17.8 -1.0 15.55 -1.0 11.9 -1.0 5.3 1.75 -1.25 4.5 -2.1 4.5 -3.95 4.5 -7.4 0.6 L-8.05 1.15 -10.9 3.75 Q-8.45 5.55 -8.1 8.85 -7.95 10.75 -8.05 14.5 L-1.5 14.75 Q4.95 14.75 9.5 13.65 L9.55 13.65 10.35 13.4 9.45 13.65 9.4 13.4 Q9.4 12.95 10.15 12.55 10.9 12.2 10.9 11.85 10.15 11.65 9.5 11.1 6.75 13.6 4.25 13.6 0.4 13.6 0.4 10.65 0.4 8.85 2.0 6.6 4.5 3.15 9.25 3.15 13.8 3.15 16.5 5.5 18.3 7.05 18.5 8.4 20.75 5.3 20.1 1.75 L19.95 0.25 19.85 -0.25 19.95 0.2 19.85 0.2 M21.35 1.6 Q21.35 6.75 19.25 9.5 14.15 16.1 -1.6 16.1 L-9.45 16.05 -9.6 15.8 Q-9.4 15.4 -9.55 15.1 L-9.4 13.75 -9.3 11.25 Q-9.3 4.75 -12.2 4.75 -12.75 4.75 -13.75 5.6 -14.3 5.4 -14.3 4.8 2.4 -9.8 12.1 -9.8 17.2 -9.8 19.8 -4.25 21.1 -1.45 21.35 1.6 M1.85 9.15 L1.5 10.4 Q1.5 12.25 3.65 12.25 6.7 12.25 8.95 10.15 10.5 8.7 11.1 7.0 L11.5 6.85 11.85 7.2 11.55 8.65 10.8 9.85 10.7 9.95 10.85 9.9 11.2 9.9 11.5 9.95 13.15 10.75 13.25 10.9 13.4 11.2 13.4 11.3 13.5 12.0 13.4 12.3 13.6 12.2 15.2 11.35 Q16.6 10.5 17.65 9.4 L17.1 8.7 16.25 6.95 Q14.5 4.4 9.25 4.4 3.4 4.4 1.85 9.15" fill="#682424" fill-rule="evenodd" stroke="none"/>
    <path d="M9.5 13.65 Q4.95 14.75 -1.5 14.75 L-8.05 14.5 Q-7.95 10.75 -8.1 8.85 -8.45 5.55 -10.9 3.75 L-8.05 1.15 -7.4 0.6 Q-3.95 4.5 -2.1 4.5 -1.25 4.5 5.3 1.75 11.9 -1.0 15.55 -1.0 17.8 -1.0 18.15 -0.4 18.55 0.2 19.85 0.2 L19.95 0.2 19.95 0.25 20.1 1.75 Q20.75 5.3 18.5 8.4 18.3 7.05 16.5 5.5 13.8 3.15 9.25 3.15 4.5 3.15 2.0 6.6 0.4 8.85 0.4 10.65 0.4 13.6 4.25 13.6 6.75 13.6 9.5 11.1 10.15 11.65 10.9 11.85 10.9 12.2 10.15 12.55 9.4 12.95 9.4 13.4 L9.45 13.65 9.5 13.65" fill="#57352d" fill-rule="evenodd" stroke="none"/>
    <path d="M19.95 0.2 L19.85 0.2 19.95 0.2 M12.05 7.2 L12.1 6.55 12.1 7.9 11.75 8.65 11.75 8.3 11.85 7.25 12.05 7.2" fill="#463624" fill-rule="evenodd" stroke="none"/>
    <path d="M11.55 8.65 L11.85 7.2 11.5 6.85 11.1 7.0 Q10.5 8.7 8.95 10.15 6.7 12.25 3.65 12.25 1.5 12.25 1.5 10.4 L1.85 9.15 Q2.95 10.5 5.25 10.5 8.2 10.5 9.9 8.35 L11.6 6.15 Q14.75 6.15 15.25 10.75 L15.2 11.35 13.6 12.2 13.5 12.0 13.4 11.3 13.4 11.2 13.25 10.9 13.15 10.75 11.5 9.95 11.2 9.9 11.55 8.65 M12.05 7.2 L11.85 7.25 11.75 8.3 11.75 8.65 12.1 7.9 12.1 6.55 12.05 7.2" fill="#a05345" fill-rule="evenodd" stroke="none"/>
    <path d="M11.55 8.65 L11.2 9.9 10.85 9.9 10.8 9.85 11.55 8.65 M15.2 11.35 L15.25 10.75 Q14.75 6.15 11.6 6.15 L9.9 8.35 Q8.2 10.5 5.25 10.5 2.95 10.5 1.85 9.15 3.4 4.4 9.25 4.4 14.5 4.4 16.25 6.95 L17.1 8.7 17.65 9.4 Q16.6 10.5 15.2 11.35" fill="#b45f50" fill-rule="evenodd" stroke="none"/>
  </g>
</svg>
