<?xml version="1.0" encoding="UTF-8" standalone="no"?>
<svg xmlns:ffdec="https://www.free-decompiler.com/flash" xmlns:xlink="http://www.w3.org/1999/xlink" ffdec:objectType="shape" height="7.85px" width="23.45px" xmlns="http://www.w3.org/2000/svg">
  <g transform="matrix(1.0, 0.0, 0.0, 1.0, 11.55, -4.15)">
    <path d="M9.8 5.85 L8.75 5.65 Q6.2 5.65 4.25 6.9 2.5 8.05 2.4 9.2 L-1.1 8.9 -6.25 9.6 -6.25 8.65 Q-6.25 7.85 -6.8 6.75 -3.95 5.4 6.55 5.4 L9.1 5.65 9.4 5.6 9.85 5.85 9.8 5.85" fill="#57352d" fill-rule="evenodd" stroke="none"/>
    <path d="M9.85 5.85 L9.4 5.6 9.1 5.65 6.55 5.4 Q-3.95 5.4 -6.8 6.75 -6.25 7.85 -6.25 8.65 L-6.25 9.6 -1.1 8.9 2.4 9.2 Q2.5 8.05 4.25 6.9 6.2 5.65 8.75 5.65 L9.8 5.85 10.15 6.1 9.85 5.85 M11.0 8.55 Q11.0 7.35 10.55 6.6 9.85 7.2 8.3 7.2 6.35 7.15 5.75 7.6 4.7 8.3 4.65 9.0 4.6 9.35 3.8 9.35 L3.75 9.4 4.5 9.55 10.4 10.15 Q11.0 10.15 11.0 8.55 M11.9 8.5 Q11.9 11.25 9.85 11.25 L4.7 10.65 -1.6 10.0 Q-4.75 10.0 -7.35 11.0 L-10.6 12.0 -11.05 11.9 -11.25 11.4 Q-11.25 10.75 -7.45 9.85 L-7.05 9.75 Q-8.0 8.85 -8.0 6.7 L-11.4 8.0 Q-11.55 8.4 -11.55 7.75 -11.55 7.0 -7.35 6.0 L-7.8 6.1 Q-7.3 5.55 -5.55 5.3 L-1.15 4.85 1.9 4.55 4.75 4.25 6.5 4.15 9.25 4.45 Q12.0 5.15 11.9 8.5" fill="#682424" fill-rule="evenodd" stroke="none"/>
    <path d="M11.0 8.55 Q11.0 10.15 10.4 10.15 L4.5 9.55 3.75 9.4 3.8 9.35 Q4.6 9.35 4.65 9.0 4.7 8.3 5.75 7.6 6.35 7.15 8.3 7.2 9.85 7.2 10.55 6.6 11.0 7.35 11.0 8.55" fill="#b45f50" fill-rule="evenodd" stroke="none"/>
  </g>
</svg>
