<?xml version="1.0" encoding="UTF-8" standalone="no"?>
<svg xmlns:ffdec="https://www.free-decompiler.com/flash" xmlns:xlink="http://www.w3.org/1999/xlink" ffdec:objectType="shape" height="98.25px" width="93.65px" xmlns="http://www.w3.org/2000/svg">
  <g transform="matrix(1.0, 0.0, 0.0, 1.0, -27.7, 1.7)">
    <path d="M86.25 1.35 L90.65 2.9 Q97.55 16.45 97.3 37.5 97.0 59.4 104.15 71.45 110.05 81.45 115.95 83.1 109.75 85.45 97.35 75.3 L95.35 73.7 95.7 76.2 Q97.3 89.1 106.3 94.4 87.3 93.25 78.65 81.8 68.95 68.9 65.75 61.3 L65.95 60.65 65.45 60.55 65.25 60.05 64.65 60.3 64.0 60.15 63.85 60.65 63.4 60.8 63.65 61.4 Q62.35 65.15 56.9 69.4 58.95 63.6 55.9 57.8 L54.8 55.5 54.05 58.0 Q52.95 61.85 50.65 65.25 44.35 74.15 34.25 76.9 42.0 69.55 43.4 58.45 45.25 43.35 36.15 31.15 L60.8 9.9 61.4 10.35 62.0 9.55 63.95 7.15 64.05 7.1 64.1 7.05 Q72.8 -2.3 86.3 1.4 L86.25 1.35" fill="#57210f" fill-rule="evenodd" stroke="none"/>
    <path d="M86.85 -0.55 Q89.3 0.2 91.75 1.2 L92.1 1.3 92.25 1.65 Q99.55 15.6 99.3 37.5 L99.3 37.55 Q99.0 58.8 105.85 70.45 112.4 81.6 118.8 81.4 L121.35 81.5 119.55 83.1 Q113.05 89.95 98.1 78.45 100.55 90.95 111.55 94.55 L114.3 95.55 114.1 96.55 111.25 96.5 Q87.2 96.7 77.05 83.0 68.3 71.35 64.75 63.9 62.3 68.4 54.8 73.35 L52.45 74.95 51.95 74.45 53.4 72.0 Q56.85 66.55 55.1 61.05 54.0 63.85 52.3 66.4 44.4 77.7 30.7 79.7 L27.95 80.2 27.7 79.65 29.95 77.9 Q39.85 70.55 41.4 58.2 43.2 43.5 33.95 31.65 L33.4 30.85 62.65 5.65 Q72.1 -4.55 86.85 -0.55 M86.25 1.35 L86.3 1.4 Q72.8 -2.3 64.1 7.05 L64.05 7.1 63.95 7.15 62.0 9.55 61.4 10.35 60.8 9.9 36.15 31.15 Q45.25 43.35 43.4 58.45 42.0 69.55 34.25 76.9 44.35 74.15 50.65 65.25 52.95 61.85 54.05 58.0 L54.8 55.5 55.9 57.8 Q58.95 63.6 56.9 69.4 62.35 65.15 63.65 61.4 L63.4 60.8 63.85 60.65 64.0 60.15 64.65 60.3 65.25 60.05 65.45 60.55 65.95 60.65 65.75 61.3 Q68.95 68.9 78.65 81.8 87.3 93.25 106.3 94.4 97.3 89.1 95.7 76.2 L95.35 73.7 97.35 75.3 Q109.75 85.45 115.95 83.1 110.05 81.45 104.15 71.45 97.0 59.4 97.3 37.5 97.55 16.45 90.65 2.9 L86.25 1.35" fill="#3e2615" fill-rule="evenodd" stroke="none"/>
  </g>
</svg>
