<?xml version="1.0" encoding="UTF-8" standalone="no"?>
<svg xmlns:ffdec="https://www.free-decompiler.com/flash" xmlns:xlink="http://www.w3.org/1999/xlink" ffdec:objectType="shape" height="21.75px" width="34.2px" xmlns="http://www.w3.org/2000/svg">
  <g transform="matrix(1.0, 0.0, 0.0, 1.0, 18.85, -4.7)">
    <path d="M-12.1 9.3 Q-9.3 9.3 -7.3 11.8 -5.35 14.3 -5.3 17.8 L-5.3 17.85 Q-5.35 21.4 -7.3 23.9 -9.3 26.45 -12.1 26.45 -14.9 26.45 -16.85 23.9 -18.85 21.4 -18.85 17.85 L-18.85 17.8 Q-18.85 14.3 -16.85 11.8 -14.9 9.3 -12.1 9.3 M-11.1 14.0 Q-12.05 13.95 -12.8 14.65 L-13.55 15.5 -14.2 16.95 Q-14.55 17.9 -14.55 19.1 -14.55 21.2 -13.55 22.7 -12.5 24.2 -11.1 24.25 -9.7 24.2 -8.7 22.7 -7.7 21.2 -7.65 19.1 -7.7 16.95 -8.7 15.5 -9.7 14.0 -11.1 14.0" fill="#b8c1b2" fill-rule="evenodd" stroke="none"/>
    <path d="M-11.1 14.0 Q-9.7 14.0 -8.7 15.5 -7.7 16.95 -7.65 19.1 -7.7 21.2 -8.7 22.7 -9.7 24.2 -11.1 24.25 -12.5 24.2 -13.55 22.7 -14.55 21.2 -14.55 19.1 -14.55 17.9 -14.2 16.95 L-13.55 15.5 -12.8 14.65 Q-12.05 13.95 -11.1 14.0" fill="#ffcc99" fill-rule="evenodd" stroke="none"/>
    <path d="M-11.1 14.0 Q-9.7 14.0 -8.7 15.5 -7.7 16.95 -7.65 19.1 -7.7 21.2 -8.7 22.7 -9.7 24.2 -11.1 24.25 -12.5 24.2 -13.55 22.7 -14.55 21.2 -14.55 19.1 -14.55 17.9 -14.2 16.95 L-13.55 15.5 -12.8 14.65 Q-12.05 13.95 -11.1 14.0 Z" fill="none" stroke="#000000" stroke-linecap="round" stroke-linejoin="round" stroke-width="3.5"/>
    <path d="M7.65 9.1 Q10.45 9.05 12.45 11.55 14.4 14.05 14.4 17.55 L14.4 17.65 Q14.4 21.2 12.45 23.7 10.45 26.2 7.65 26.25 4.85 26.2 2.9 23.7 0.9 21.2 0.9 17.65 L0.9 17.55 Q0.9 14.05 2.9 11.55 4.85 9.05 7.65 9.1 M9.55 14.1 Q8.4 12.4 6.75 12.4 5.7 12.35 4.8 13.15 L3.95 14.1 Q3.45 14.85 3.2 15.8 2.8 16.9 2.8 18.3 2.8 20.75 3.95 22.45 5.15 24.15 6.75 24.2 8.4 24.15 9.55 22.45 10.7 20.75 10.7 18.3 10.7 15.8 9.55 14.1" fill="#b8c1b2" fill-rule="evenodd" stroke="none"/>
    <path d="M9.55 14.1 Q10.7 15.8 10.7 18.3 10.7 20.75 9.55 22.45 8.4 24.15 6.75 24.2 5.15 24.15 3.95 22.45 2.8 20.75 2.8 18.3 2.8 16.9 3.2 15.8 3.45 14.85 3.95 14.1 L4.8 13.15 Q5.7 12.35 6.75 12.4 8.4 12.4 9.55 14.1" fill="#ffcc99" fill-rule="evenodd" stroke="none"/>
    <path d="M9.55 14.1 Q10.7 15.8 10.7 18.3 10.7 20.75 9.55 22.45 8.4 24.15 6.75 24.2 5.15 24.15 3.95 22.45 2.8 20.75 2.8 18.3 2.8 16.9 3.2 15.8 3.45 14.85 3.95 14.1 L4.8 13.15 Q5.7 12.35 6.75 12.4 8.4 12.4 9.55 14.1 Z" fill="none" stroke="#000000" stroke-linecap="round" stroke-linejoin="round" stroke-width="3.5"/>
    <path d="M0.95 9.25 Q6.65 2.65 14.85 6.8 M-6.15 10.4 Q-11.3 4.25 -17.3 9.05" fill="none" stroke="#823a1c" stroke-linecap="round" stroke-linejoin="round" stroke-width="1.0"/>
  </g>
</svg>
