<?xml version="1.0" encoding="UTF-8" standalone="no"?>
<svg xmlns:ffdec="https://www.free-decompiler.com/flash" xmlns:xlink="http://www.w3.org/1999/xlink" ffdec:objectType="shape" height="19.25px" width="33.15px" xmlns="http://www.w3.org/2000/svg">
  <g transform="matrix(1.0, 0.0, 0.0, 1.0, 17.8, -5.7)">
    <path d="M-11.1 16.5 Q-12.05 16.5 -12.8 16.9 L-13.55 17.45 -14.2 18.35 Q-14.55 18.95 -14.55 19.7 -14.55 21.05 -13.55 22.0 -12.5 22.9 -11.1 22.95 -9.7 22.9 -8.7 22.0 -7.7 21.05 -7.65 19.7 -7.7 18.35 -8.7 17.45 -9.7 16.5 -11.1 16.5 M-15.95 13.85 Q-14.1 11.95 -11.55 11.95 -9.0 11.95 -7.15 13.85 -5.35 15.7 -5.3 18.3 L-5.3 18.35 Q-5.3 20.95 -7.15 22.85 -9.0 24.7 -11.55 24.7 -14.1 24.7 -15.95 22.85 -17.8 20.95 -17.75 18.35 L-17.75 18.3 Q-17.75 15.7 -15.95 13.85" fill="#b8c1b2" fill-rule="evenodd" stroke="none"/>
    <path d="M-11.1 16.5 Q-9.7 16.5 -8.7 17.45 -7.7 18.35 -7.65 19.7 -7.7 21.05 -8.7 22.0 -9.7 22.9 -11.1 22.95 -12.5 22.9 -13.55 22.0 -14.55 21.05 -14.55 19.7 -14.55 18.95 -14.2 18.35 L-13.55 17.45 -12.8 16.9 Q-12.05 16.5 -11.1 16.5" fill="#ffcc99" fill-rule="evenodd" stroke="none"/>
    <path d="M-11.1 16.5 Q-9.7 16.5 -8.7 17.45 -7.7 18.35 -7.65 19.7 -7.7 21.05 -8.7 22.0 -9.7 22.9 -11.1 22.95 -12.5 22.9 -13.55 22.0 -14.55 21.05 -14.55 19.7 -14.55 18.95 -14.2 18.35 L-13.55 17.45 -12.8 16.9 Q-12.05 16.5 -11.1 16.5 Z" fill="none" stroke="#000000" stroke-linecap="round" stroke-linejoin="round" stroke-width="3.5"/>
    <path d="M9.55 16.6 Q8.4 15.5 6.75 15.5 5.7 15.5 4.8 15.95 L3.95 16.6 Q3.45 17.05 3.2 17.65 2.8 18.35 2.8 19.2 2.8 20.7 3.95 21.8 5.15 22.9 6.75 22.9 8.4 22.9 9.55 21.8 10.7 20.7 10.7 19.2 10.7 17.65 9.55 16.6 M0.9 18.3 Q0.9 15.6 2.7 13.7 4.55 11.8 7.1 11.8 9.65 11.8 11.5 13.7 13.3 15.6 13.35 18.3 L13.35 18.35 Q13.35 21.1 11.5 23.0 9.65 24.95 7.1 24.95 4.55 24.95 2.7 23.0 0.85 21.1 0.9 18.35 L0.9 18.3" fill="#b8c1b2" fill-rule="evenodd" stroke="none"/>
    <path d="M9.55 16.6 Q10.7 17.65 10.7 19.2 10.7 20.7 9.55 21.8 8.4 22.9 6.75 22.9 5.15 22.9 3.95 21.8 2.8 20.7 2.8 19.2 2.8 18.35 3.2 17.65 3.45 17.05 3.95 16.6 L4.8 15.95 Q5.7 15.5 6.75 15.5 8.4 15.5 9.55 16.6" fill="#ffcc99" fill-rule="evenodd" stroke="none"/>
    <path d="M9.55 16.6 Q10.7 17.65 10.7 19.2 10.7 20.7 9.55 21.8 8.4 22.9 6.75 22.9 5.15 22.9 3.95 21.8 2.8 20.7 2.8 19.2 2.8 18.35 3.2 17.65 3.45 17.05 3.95 16.6 L4.8 15.95 Q5.7 15.5 6.75 15.5 8.4 15.5 9.55 16.6 Z" fill="none" stroke="#000000" stroke-linecap="round" stroke-linejoin="round" stroke-width="3.5"/>
    <path d="M0.95 10.25 Q6.65 3.65 14.85 7.8 M-6.15 11.4 Q-11.3 5.25 -17.3 10.05" fill="none" stroke="#823a1c" stroke-linecap="round" stroke-linejoin="round" stroke-width="1.0"/>
  </g>
</svg>
