<?xml version="1.0" encoding="UTF-8" standalone="no"?>
<svg xmlns:ffdec="https://www.free-decompiler.com/flash" xmlns:xlink="http://www.w3.org/1999/xlink" ffdec:objectType="shape" height="16.05px" width="33.15px" xmlns="http://www.w3.org/2000/svg">
  <g transform="matrix(1.0, 0.0, 0.0, 1.0, 17.8, -5.95)">
    <path d="M-15.95 13.45 Q-14.1 12.0 -11.55 12.0 -9.0 12.0 -7.15 13.45 -5.35 14.9 -5.3 16.95 L-5.3 17.0 Q-5.3 19.05 -7.15 20.5 -9.0 22.0 -11.55 22.0 -14.1 22.0 -15.95 20.5 -17.8 19.05 -17.75 17.0 L-17.75 16.95 Q-17.75 14.9 -15.95 13.45 M-14.6 19.7 L-7.65 19.45 -14.6 19.7" fill="#b8c1b2" fill-rule="evenodd" stroke="none"/>
    <path d="M-7.65 19.45 L-14.6 19.7" fill="none" stroke="#333333" stroke-linecap="round" stroke-linejoin="round" stroke-width="2.0"/>
    <path d="M2.7 13.25 Q4.55 11.8 7.1 11.8 9.65 11.8 11.5 13.25 13.3 14.7 13.35 16.75 L13.35 16.8 Q13.35 18.85 11.5 20.35 9.65 21.8 7.1 21.8 4.55 21.8 2.7 20.35 0.85 18.85 0.9 16.8 L0.9 16.75 Q0.9 14.7 2.7 13.25 M2.6 19.25 L11.65 18.6 2.6 19.25" fill="#b8c1b2" fill-rule="evenodd" stroke="none"/>
    <path d="M11.65 18.6 L2.6 19.25" fill="none" stroke="#333333" stroke-linecap="round" stroke-linejoin="round" stroke-width="2.0"/>
    <path d="M0.95 10.5 Q6.65 3.9 14.85 8.05 M-6.15 11.65 Q-11.3 5.5 -17.3 10.3" fill="none" stroke="#823a1c" stroke-linecap="round" stroke-linejoin="round" stroke-width="1.0"/>
  </g>
</svg>
