<?xml version="1.0" encoding="UTF-8" standalone="no"?>
<svg xmlns:ffdec="https://www.free-decompiler.com/flash" xmlns:xlink="http://www.w3.org/1999/xlink" ffdec:objectType="shape" height="25.2px" width="34.6px" xmlns="http://www.w3.org/2000/svg">
  <g transform="matrix(1.0, 0.0, 0.0, 1.0, 19.25, -1.2)">
    <path d="M-12.25 7.6 Q-9.4 7.6 -7.35 10.35 -5.35 13.05 -5.3 16.9 L-5.3 17.0 Q-5.35 20.9 -7.35 23.65 -9.4 26.4 -12.25 26.4 -15.15 26.4 -17.2 23.65 -19.25 20.9 -19.25 17.0 L-19.25 16.9 Q-19.2 13.05 -17.2 10.35 -15.15 7.6 -12.25 7.6 M-12.05 12.4 Q-13.15 12.35 -14.0 13.15 L-14.85 14.1 -15.65 15.8 Q-16.05 16.9 -16.05 18.3 -16.05 20.75 -14.85 22.45 -13.7 24.2 -12.05 24.2 -10.45 24.2 -9.3 22.45 -8.1 20.75 -8.1 18.3 -8.1 15.85 -9.3 14.1 -10.45 12.35 -12.05 12.4" fill="#b8c1b2" fill-rule="evenodd" stroke="none"/>
    <path d="M-12.05 12.4 Q-10.45 12.35 -9.3 14.1 -8.1 15.85 -8.1 18.3 -8.1 20.75 -9.3 22.45 -10.45 24.2 -12.05 24.2 -13.7 24.2 -14.85 22.45 -16.05 20.75 -16.05 18.3 -16.05 16.9 -15.65 15.8 L-14.85 14.1 -14.0 13.15 Q-13.15 12.35 -12.05 12.4" fill="#ffcc99" fill-rule="evenodd" stroke="none"/>
    <path d="M-12.05 12.4 Q-10.45 12.35 -9.3 14.1 -8.1 15.85 -8.1 18.3 -8.1 20.75 -9.3 22.45 -10.45 24.2 -12.05 24.2 -13.7 24.2 -14.85 22.45 -16.05 20.75 -16.05 18.3 -16.05 16.9 -15.65 15.8 L-14.85 14.1 -14.0 13.15 Q-13.15 12.35 -12.05 12.4 Z" fill="none" stroke="#000000" stroke-linecap="round" stroke-linejoin="round" stroke-width="3.5"/>
    <path d="M7.9 7.35 Q10.75 7.35 12.8 10.1 14.8 12.85 14.85 16.7 L14.85 16.8 Q14.85 20.65 12.8 23.4 10.75 26.2 7.9 26.2 5.0 26.2 2.95 23.4 0.9 20.65 0.9 16.8 L0.9 16.7 Q0.95 12.85 2.95 10.1 5.0 7.35 7.9 7.35 M7.0 10.5 Q5.75 10.5 4.7 11.4 L3.75 12.5 Q3.15 13.4 2.85 14.45 2.4 15.75 2.45 17.35 2.45 20.2 3.75 22.15 5.1 24.15 7.0 24.2 8.85 24.15 10.2 22.15 11.55 20.2 11.55 17.35 11.55 14.5 10.2 12.5 8.85 10.5 7.0 10.5" fill="#b8c1b2" fill-rule="evenodd" stroke="none"/>
    <path d="M7.0 10.5 Q8.85 10.5 10.2 12.5 11.55 14.5 11.55 17.35 11.55 20.2 10.2 22.15 8.85 24.15 7.0 24.2 5.1 24.15 3.75 22.15 2.45 20.2 2.45 17.35 2.4 15.75 2.85 14.45 3.15 13.4 3.75 12.5 L4.7 11.4 Q5.75 10.5 7.0 10.5" fill="#ffcc99" fill-rule="evenodd" stroke="none"/>
    <path d="M7.0 10.5 Q8.85 10.5 10.2 12.5 11.55 14.5 11.55 17.35 11.55 20.2 10.2 22.15 8.85 24.15 7.0 24.2 5.1 24.15 3.75 22.15 2.45 20.2 2.45 17.35 2.4 15.75 2.85 14.45 3.15 13.4 3.75 12.5 L4.7 11.4 Q5.75 10.5 7.0 10.5 Z" fill="none" stroke="#000000" stroke-linecap="round" stroke-linejoin="round" stroke-width="3.5"/>
    <path d="M0.95 5.75 Q6.65 -0.85 14.85 3.3 M-6.15 6.9 Q-11.3 0.75 -17.3 5.55" fill="none" stroke="#823a1c" stroke-linecap="round" stroke-linejoin="round" stroke-width="1.0"/>
  </g>
</svg>
