<?xml version="1.0" encoding="UTF-8" standalone="no"?>
<svg xmlns:ffdec="https://www.free-decompiler.com/flash" xmlns:xlink="http://www.w3.org/1999/xlink" ffdec:objectType="shape" height="19.75px" width="33.95px" xmlns="http://www.w3.org/2000/svg">
  <g transform="matrix(1.0, 0.0, 0.0, 1.0, 18.85, -6.7)">
    <path d="M-12.9 23.35 Q-13.85 22.5 -14.25 21.05 -14.85 18.95 -14.05 17.8 L-8.6 13.5 -8.2 13.55 -8.05 13.85 -7.8 15.15 Q-7.6 17.55 -7.75 20.2 -7.85 21.55 -8.8 22.7 L-9.9 23.7 Q-11.55 24.8 -12.9 23.35" fill="#ffcc99" fill-rule="evenodd" stroke="none"/>
    <path d="M-15.15 12.65 Q-12.7 10.35 -11.0 9.85 -9.3 9.3 -7.3 11.8 -5.35 14.3 -5.3 17.8 L-5.3 17.85 Q-5.35 21.4 -7.3 23.9 -9.3 26.45 -12.1 26.45 -14.9 26.45 -16.85 23.9 -18.85 21.4 -18.85 17.85 L-18.2 16.35 Q-17.6 14.9 -15.15 12.65 M-12.9 23.35 Q-11.55 24.8 -9.9 23.7 L-8.8 22.7 Q-7.85 21.55 -7.75 20.2 -7.6 17.55 -7.8 15.15 L-8.05 13.85 -8.2 13.55 -8.6 13.5 -14.05 17.8 Q-14.85 18.95 -14.25 21.05 -13.85 22.5 -12.9 23.35" fill="#b8c1b2" fill-rule="evenodd" stroke="none"/>
    <path d="M-12.9 23.35 Q-11.55 24.8 -9.9 23.7 L-8.8 22.7 Q-7.85 21.55 -7.75 20.2 -7.6 17.55 -7.8 15.15 L-8.05 13.85 -8.2 13.55 -8.6 13.5 -14.05 17.8 Q-14.85 18.95 -14.25 21.05 -13.85 22.5 -12.9 23.35 Z" fill="none" stroke="#000000" stroke-linecap="round" stroke-linejoin="round" stroke-width="3.5"/>
    <path d="M7.45 9.1 Q9.95 9.05 10.7 11.55 11.5 14.05 12.75 16.1 13.95 18.15 13.55 20.05 13.15 21.9 11.8 24.05 10.45 26.2 7.65 26.25 4.85 26.2 2.9 23.7 0.9 21.2 0.9 17.65 L0.9 17.55 Q0.9 14.05 2.9 11.55 4.85 9.05 7.45 9.1 M8.55 16.25 Q6.7 14.2 4.45 13.1 L4.25 13.05 4.25 13.6 Q2.55 16.3 2.9 19.5 3.15 21.6 4.65 23.25 5.85 24.5 7.55 24.1 8.85 23.75 9.6 22.7 10.85 20.95 10.15 18.9 L9.25 17.2 8.55 16.25" fill="#b8c1b2" fill-rule="evenodd" stroke="none"/>
    <path d="M8.55 16.25 L9.25 17.2 10.15 18.9 Q10.85 20.95 9.6 22.7 8.85 23.75 7.55 24.1 5.85 24.5 4.65 23.25 3.15 21.6 2.9 19.5 2.55 16.3 4.25 13.6 L4.25 13.05 4.45 13.1 Q6.7 14.2 8.55 16.25" fill="#ffcc99" fill-rule="evenodd" stroke="none"/>
    <path d="M8.55 16.25 Q6.7 14.2 4.45 13.1 L4.25 13.05 4.25 13.6 Q2.55 16.3 2.9 19.5 3.15 21.6 4.65 23.25 5.85 24.5 7.55 24.1 8.85 23.75 9.6 22.7 10.85 20.95 10.15 18.9 L9.25 17.2 8.55 16.25 Z" fill="none" stroke="#000000" stroke-linecap="round" stroke-linejoin="round" stroke-width="3.5"/>
    <path d="M0.75 8.85 Q8.35 4.6 14.6 11.35 M-6.1 10.2 Q-12.65 5.6 -17.2 11.75" fill="none" stroke="#823a1c" stroke-linecap="round" stroke-linejoin="round" stroke-width="1.0"/>
  </g>
</svg>
