<?xml version="1.0" encoding="UTF-8" standalone="no"?>
<svg xmlns:ffdec="https://www.free-decompiler.com/flash" xmlns:xlink="http://www.w3.org/1999/xlink" ffdec:objectType="shape" height="19.35px" width="33.7px" xmlns="http://www.w3.org/2000/svg">
  <g transform="matrix(1.0, 0.0, 0.0, 1.0, 18.85, -7.1)">
    <path d="M-12.4 11.15 L-7.75 14.1 Q-5.55 15.25 -5.45 16.55 L-5.3 17.85 Q-5.35 21.4 -7.3 23.9 -9.3 26.45 -12.1 26.45 -14.9 26.45 -16.85 23.9 -18.85 21.4 -18.85 17.85 L-18.85 17.8 Q-18.85 14.3 -16.85 11.8 -14.9 9.3 -12.4 11.15 M-7.7 18.7 L-14.1 16.55 -14.2 16.95 Q-14.55 17.9 -14.55 19.1 -14.55 21.2 -13.55 22.7 -12.5 24.2 -11.1 24.25 -9.7 24.2 -8.7 22.7 -7.7 21.2 -7.65 19.1 L-7.7 18.7 -7.2 18.85 -7.7 18.7" fill="#b8c1b2" fill-rule="evenodd" stroke="none"/>
    <path d="M-7.7 18.7 L-7.65 19.1 Q-7.7 21.2 -8.7 22.7 -9.7 24.2 -11.1 24.25 -12.5 24.2 -13.55 22.7 -14.55 21.2 -14.55 19.1 -14.55 17.9 -14.2 16.95 L-14.1 16.55 -7.7 18.7" fill="#ffcc99" fill-rule="evenodd" stroke="none"/>
    <path d="M-7.7 18.7 L-7.65 19.1 Q-7.7 21.2 -8.7 22.7 -9.7 24.2 -11.1 24.25 -12.5 24.2 -13.55 22.7 -14.55 21.2 -14.55 19.1 -14.55 17.9 -14.2 16.95 L-14.1 16.55 -7.7 18.7 -7.2 18.85" fill="none" stroke="#000000" stroke-linecap="round" stroke-linejoin="round" stroke-width="3.5"/>
    <path d="M1.95 19.7 L2.85 19.1 1.95 19.7 M0.9 17.65 L1.6 17.05 3.95 13.45 Q5.65 10.45 8.05 9.8 10.45 9.05 12.45 11.55 14.4 14.05 14.4 17.55 L14.4 17.65 Q14.4 21.2 12.45 23.7 10.45 26.2 7.65 26.25 4.85 26.2 2.9 23.7 0.9 21.2 0.9 17.65 M2.85 19.1 Q3.0 21.05 3.95 22.45 5.15 24.15 6.75 24.2 8.4 24.15 9.55 22.45 10.7 20.75 10.7 18.3 10.7 16.2 9.85 14.65 L2.85 19.1" fill="#b8c1b2" fill-rule="evenodd" stroke="none"/>
    <path d="M2.85 19.1 L9.85 14.65 Q10.7 16.2 10.7 18.3 10.7 20.75 9.55 22.45 8.4 24.15 6.75 24.2 5.15 24.15 3.95 22.45 3.0 21.05 2.85 19.1" fill="#ffcc99" fill-rule="evenodd" stroke="none"/>
    <path d="M2.85 19.1 L1.95 19.7 M2.85 19.1 L9.85 14.65 Q10.7 16.2 10.7 18.3 10.7 20.75 9.55 22.45 8.4 24.15 6.75 24.2 5.15 24.15 3.95 22.45 3.0 21.05 2.85 19.1 Z" fill="none" stroke="#000000" stroke-linecap="round" stroke-linejoin="round" stroke-width="3.5"/>
    <path d="M1.15 13.2 Q5.5 5.65 14.35 8.25 M-6.35 13.35 Q-9.75 6.1 -16.75 9.2" fill="none" stroke="#823a1c" stroke-linecap="round" stroke-linejoin="round" stroke-width="1.0"/>
  </g>
</svg>
