<?xml version="1.0" encoding="UTF-8" standalone="no"?>
<svg xmlns:ffdec="https://www.free-decompiler.com/flash" xmlns:xlink="http://www.w3.org/1999/xlink" ffdec:objectType="shape" height="16.45px" width="34.2px" xmlns="http://www.w3.org/2000/svg">
  <g transform="matrix(1.0, 0.0, 0.0, 1.0, 18.85, -10.0)">
    <path d="M-14.5 18.4 L-14.55 19.1 Q-14.55 21.2 -13.55 22.7 -12.5 24.2 -11.1 24.25 -9.7 24.2 -8.7 22.7 -7.7 21.2 -7.65 19.1 L-7.7 18.4 -14.5 18.4 M-18.85 17.85 L-18.85 17.8 Q-18.85 16.05 -18.35 14.6 -12.1 12.25 -5.8 14.6 -5.35 16.05 -5.3 17.8 L-5.3 17.85 Q-5.35 21.4 -7.3 23.9 -9.3 26.45 -12.1 26.45 -14.9 26.45 -16.85 23.9 -18.85 21.4 -18.85 17.85" fill="#b8c1b2" fill-rule="evenodd" stroke="none"/>
    <path d="M-14.5 18.4 L-7.7 18.4 -7.65 19.1 Q-7.7 21.2 -8.7 22.7 -9.7 24.2 -11.1 24.25 -12.5 24.2 -13.55 22.7 -14.55 21.2 -14.55 19.1 L-14.5 18.4" fill="#ffcc99" fill-rule="evenodd" stroke="none"/>
    <path d="M-14.5 18.4 L-7.7 18.4 -7.65 19.1 Q-7.7 21.2 -8.7 22.7 -9.7 24.2 -11.1 24.25 -12.5 24.2 -13.55 22.7 -14.55 21.2 -14.55 19.1 L-14.5 18.4 Z" fill="none" stroke="#000000" stroke-linecap="round" stroke-linejoin="round" stroke-width="3.5"/>
    <path d="M2.8 18.4 Q2.85 20.8 3.95 22.45 5.15 24.15 6.75 24.2 8.4 24.15 9.55 22.45 10.65 20.8 10.7 18.4 L2.8 18.4 M0.9 17.65 L0.9 17.55 Q0.9 15.95 1.35 14.6 7.65 13.0 14.0 14.6 14.4 15.95 14.4 17.55 L14.4 17.65 Q14.4 21.2 12.45 23.7 10.45 26.2 7.65 26.25 4.85 26.2 2.9 23.7 0.9 21.2 0.9 17.65" fill="#b8c1b2" fill-rule="evenodd" stroke="none"/>
    <path d="M2.8 18.4 L10.7 18.4 Q10.65 20.8 9.55 22.45 8.4 24.15 6.75 24.2 5.15 24.15 3.95 22.45 2.85 20.8 2.8 18.4" fill="#ffcc99" fill-rule="evenodd" stroke="none"/>
    <path d="M2.8 18.4 L10.7 18.4 Q10.65 20.8 9.55 22.45 8.4 24.15 6.75 24.2 5.15 24.15 3.95 22.45 2.85 20.8 2.8 18.4 Z" fill="none" stroke="#000000" stroke-linecap="round" stroke-linejoin="round" stroke-width="3.5"/>
    <path d="M0.95 13.0 Q6.65 8.95 14.85 11.5 M-6.15 13.65 Q-11.3 9.9 -17.3 12.85" fill="none" stroke="#823a1c" stroke-linecap="round" stroke-linejoin="round" stroke-width="1.0"/>
  </g>
</svg>
