<?xml version="1.0" encoding="UTF-8" standalone="no"?>
<svg xmlns:ffdec="https://www.free-decompiler.com/flash" xmlns:xlink="http://www.w3.org/1999/xlink" ffdec:objectType="shape" height="19.3px" width="33.25px" xmlns="http://www.w3.org/2000/svg">
  <g transform="matrix(1.0, 0.0, 0.0, 1.0, 18.85, -3.45)">
    <path d="M-12.1 9.3 Q-9.3 9.3 -7.3 11.8 -5.35 14.3 -5.3 17.8 L-5.3 19.75 Q-5.3 21.65 -9.0 21.3 -12.7 20.95 -14.8 22.15 L-17.9 22.3 Q-18.9 21.35 -18.85 19.6 L-18.85 17.8 Q-18.85 14.3 -16.85 11.8 -14.9 9.3 -12.1 9.3 M-14.6 19.7 Q-11.55 12.9 -7.65 19.45 -11.55 12.9 -14.6 19.7" fill="#b8c1b2" fill-rule="evenodd" stroke="none"/>
    <path d="M-7.65 19.45 Q-11.55 12.9 -14.6 19.7" fill="none" stroke="#333333" stroke-linecap="round" stroke-linejoin="round" stroke-width="2.0"/>
    <path d="M7.65 9.1 Q10.45 9.05 12.45 11.55 14.4 14.05 14.4 17.55 L14.4 17.65 Q14.4 21.2 13.0 21.7 11.6 22.2 9.15 21.15 6.65 20.1 3.75 20.65 0.9 21.2 0.9 17.65 L0.9 17.55 Q0.9 14.05 2.9 11.55 4.85 9.05 7.65 9.1 M2.6 19.25 Q6.05 9.35 11.65 18.6 6.05 9.35 2.6 19.25" fill="#b8c1b2" fill-rule="evenodd" stroke="none"/>
    <path d="M11.65 18.6 Q6.05 9.35 2.6 19.25" fill="none" stroke="#333333" stroke-linecap="round" stroke-linejoin="round" stroke-width="2.0"/>
    <path d="M1.1 8.0 Q5.85 1.4 12.7 5.55 M-6.3 9.15 Q-10.85 2.95 -15.95 7.65" fill="none" stroke="#823a1c" stroke-linecap="round" stroke-linejoin="round" stroke-width="1.0"/>
  </g>
</svg>
