<?xml version="1.0" encoding="UTF-8" standalone="no"?>
<svg xmlns:ffdec="https://www.free-decompiler.com/flash" xmlns:xlink="http://www.w3.org/1999/xlink" ffdec:objectType="shape" height="20.15px" width="33.3px" xmlns="http://www.w3.org/2000/svg">
  <g transform="matrix(1.0, 0.0, 0.0, 1.0, 18.15, -6.3)">
    <path d="M-11.15 9.25 Q-9.3 9.3 -7.3 11.8 -5.35 14.3 -5.3 17.8 L-5.3 17.85 Q-5.35 21.4 -7.3 23.9 -9.3 26.45 -12.1 26.45 -14.9 26.45 -16.85 23.9 -18.85 21.4 -17.8 19.0 L-16.15 15.25 -14.3 11.55 Q-13.05 9.2 -11.15 9.25 M-14.75 23.55 Q-13.25 25.8 -11.05 25.7 -8.95 25.8 -7.45 23.5 L-7.5 23.55 Q-6.25 21.75 -6.15 19.15 L-6.15 19.1 Q-6.25 16.45 -7.5 14.65 -8.7 12.85 -9.75 12.1 L-11.55 11.55 -16.0 19.85 Q-15.85 22.0 -14.75 23.55" fill="#b8c1b2" fill-rule="evenodd" stroke="none"/>
    <path d="M-12.3 21.9 Q-11.75 22.65 -11.05 22.75 -10.45 22.65 -9.95 21.9 -9.15 20.75 -9.1 19.1 -9.2 17.45 -9.95 16.35 L-9.95 16.3 -10.8 15.5 Q-11.65 16.0 -12.8 19.1 L-13.05 19.75 Q-12.9 20.95 -12.3 21.9 M-14.75 23.55 Q-15.85 22.0 -16.0 19.85 L-11.55 11.55 -9.75 12.1 Q-8.7 12.85 -7.5 14.65 -6.25 16.45 -6.15 19.1 L-6.15 19.15 Q-6.25 21.75 -7.5 23.55 L-7.45 23.5 Q-8.95 25.8 -11.05 25.7 -13.25 25.8 -14.75 23.55" fill="#000000" fill-rule="evenodd" stroke="none"/>
    <path d="M-12.3 21.9 Q-12.9 20.95 -13.05 19.75 L-12.8 19.1 Q-11.65 16.0 -10.8 15.5 L-9.95 16.3 -9.95 16.35 Q-9.2 17.45 -9.1 19.1 -9.15 20.75 -9.95 21.9 -10.45 22.65 -11.05 22.75 -11.75 22.65 -12.3 21.9" fill="#ffcc99" fill-rule="evenodd" stroke="none"/>
    <path d="M1.45 23.95 L1.5 23.75 Q1.65 23.2 2.15 23.0 L2.45 22.85 Q1.35 20.9 1.35 18.3 1.35 16.7 1.75 15.35 L1.75 15.4 Q2.05 14.25 2.75 13.3 L2.8 13.25 Q3.3 12.45 3.9 12.0 L3.85 12.0 Q4.75 10.95 6.0 11.1 7.2 11.25 12.05 16.45 L12.2 18.3 12.25 19.25 Q12.65 19.25 13.8 20.2 L14.3 20.6 13.25 20.85 13.15 20.85 11.05 21.5 Q7.85 22.5 1.75 24.9 L1.6 24.7 1.45 23.95 M7.95 16.05 Q6.4 14.1 6.1 14.2 L5.75 14.3 5.25 14.9 5.2 14.95 Q4.8 15.5 4.6 16.2 4.3 17.15 4.3 18.3 4.3 20.0 5.0 21.35 7.35 19.85 9.3 19.5 L9.4 18.35 9.5 17.85 7.95 16.05" fill="#000000" fill-rule="evenodd" stroke="none"/>
    <path d="M13.8 20.2 Q12.65 19.25 12.25 19.25 L12.2 18.3 12.05 16.45 Q7.2 11.25 6.0 11.1 4.75 10.95 3.85 12.0 L3.9 12.0 Q3.3 12.45 2.8 13.25 L2.75 13.3 Q2.05 14.25 1.75 15.4 L1.75 15.35 Q1.35 16.7 1.35 18.3 1.35 20.9 2.45 22.85 L2.15 23.0 Q1.65 23.2 1.5 23.75 L1.45 23.95 1.05 23.25 Q0.3 21.2 0.6 19.4 L0.9 17.55 Q0.9 14.05 2.9 11.55 4.85 9.05 6.9 9.45 8.95 9.8 10.7 12.4 L13.45 16.3 14.4 17.65 Q14.4 19.25 13.8 20.2 M11.05 21.5 L13.15 20.85 13.25 20.85 Q12.55 21.35 11.55 21.45 L11.05 21.5" fill="#b8c1b2" fill-rule="evenodd" stroke="none"/>
    <path d="M7.95 16.05 L9.5 17.85 9.4 18.35 9.3 19.5 Q7.35 19.85 5.0 21.35 4.3 20.0 4.3 18.3 4.3 17.15 4.6 16.2 4.8 15.5 5.2 14.95 L5.25 14.9 5.75 14.3 6.1 14.2 Q6.4 14.1 7.95 16.05" fill="#ffcc99" fill-rule="evenodd" stroke="none"/>
    <path d="M0.8 8.45 Q8.4 4.15 14.65 10.9 M-5.95 8.05 Q-13.15 4.6 -16.65 11.45" fill="none" stroke="#823a1c" stroke-linecap="round" stroke-linejoin="round" stroke-width="1.0"/>
  </g>
</svg>
