<?xml version="1.0" encoding="UTF-8" standalone="no"?>
<svg xmlns:ffdec="https://www.free-decompiler.com/flash" xmlns:xlink="http://www.w3.org/1999/xlink" ffdec:objectType="shape" height="20.65px" width="33.7px" xmlns="http://www.w3.org/2000/svg">
  <g transform="matrix(1.0, 0.0, 0.0, 1.0, 18.85, -5.8)">
    <path d="M-13.05 11.7 Q-11.1 13.85 -8.55 15.05 -6.0 16.2 -5.65 17.0 L-5.3 17.85 Q-5.35 21.4 -7.3 23.9 -9.3 26.45 -12.1 26.45 -14.9 26.45 -16.85 23.9 -18.85 21.4 -18.85 17.85 L-18.85 17.8 Q-18.8 14.3 -16.9 11.9 -15.0 9.55 -13.05 11.7 M-13.35 15.1 L-14.2 14.95 -16.45 14.0 Q-16.9 13.8 -17.4 14.0 -17.9 14.15 -18.1 14.65 -18.3 15.15 -18.1 15.65 L-18.1 15.7 -15.75 17.05 Q-16.05 18.0 -16.0 19.15 -16.0 21.75 -14.75 23.55 -13.25 25.8 -11.05 25.7 -8.95 25.8 -7.45 23.5 L-7.5 23.55 Q-6.25 21.75 -6.15 19.15 L-6.15 19.05 -6.25 18.5 -12.85 15.55 -13.35 15.1" fill="#b8c1b2" fill-rule="evenodd" stroke="none"/>
    <path d="M-13.35 15.1 L-12.85 15.55 -6.25 18.5 -6.15 19.05 -6.15 19.15 Q-6.25 21.75 -7.5 23.55 L-7.45 23.5 Q-8.95 25.8 -11.05 25.7 -13.25 25.8 -14.75 23.55 -16.0 21.75 -16.0 19.15 -16.05 18.0 -15.75 17.05 L-18.1 15.7 -18.1 15.65 Q-18.3 15.15 -18.1 14.65 -17.9 14.15 -17.4 14.0 -16.9 13.8 -16.45 14.0 L-14.2 14.95 -13.35 15.1 M-13.05 19.15 Q-13.05 20.75 -12.3 21.9 -11.75 22.65 -11.05 22.75 -10.45 22.65 -9.95 21.9 -9.35 21.0 -9.15 19.8 L-13.0 18.2 -13.05 19.15" fill="#000000" fill-rule="evenodd" stroke="none"/>
    <path d="M-13.05 19.15 L-13.0 18.2 -9.15 19.8 Q-9.35 21.0 -9.95 21.9 -10.45 22.65 -11.05 22.75 -11.75 22.65 -12.3 21.9 -13.05 20.75 -13.05 19.15" fill="#ffcc99" fill-rule="evenodd" stroke="none"/>
    <path d="M7.65 9.1 Q10.45 9.05 12.45 11.55 14.4 14.05 14.4 17.55 L14.4 17.65 Q14.4 21.2 12.45 23.7 10.45 26.2 7.65 26.25 4.85 26.2 2.9 23.7 0.9 21.2 0.9 17.65 L0.9 17.55 Q0.9 14.05 2.9 11.55 4.85 9.05 7.65 9.1 M9.55 14.1 Q8.4 12.4 6.75 12.4 5.7 12.35 4.8 13.15 L3.95 14.1 Q3.45 14.85 3.2 15.8 2.8 16.9 2.8 18.3 2.8 20.75 3.95 22.45 5.15 24.15 6.75 24.2 8.4 24.15 9.55 22.45 10.7 20.75 10.7 18.3 10.7 15.8 9.55 14.1" fill="#b8c1b2" fill-rule="evenodd" stroke="none"/>
    <path d="M9.55 14.1 Q10.7 15.8 10.7 18.3 10.7 20.75 9.55 22.45 8.4 24.15 6.75 24.2 5.15 24.15 3.95 22.45 2.8 20.75 2.8 18.3 2.8 16.9 3.2 15.8 3.45 14.85 3.95 14.1 L4.8 13.15 Q5.7 12.35 6.75 12.4 8.4 12.4 9.55 14.1" fill="#ffcc99" fill-rule="evenodd" stroke="none"/>
    <path d="M9.55 14.1 Q10.7 15.8 10.7 18.3 10.7 20.75 9.55 22.45 8.4 24.15 6.75 24.2 5.15 24.15 3.95 22.45 2.8 20.75 2.8 18.3 2.8 16.9 3.2 15.8 3.45 14.85 3.95 14.1 L4.8 13.15 Q5.7 12.35 6.75 12.4 8.4 12.4 9.55 14.1 Z" fill="none" stroke="#000000" stroke-linecap="round" stroke-linejoin="round" stroke-width="3.5"/>
    <path d="M1.15 11.9 Q5.5 4.35 14.35 6.95 M-5.65 14.2 Q-7.2 6.35 -14.75 7.65" fill="none" stroke="#823a1c" stroke-linecap="round" stroke-linejoin="round" stroke-width="1.0"/>
  </g>
</svg>
