<?xml version="1.0" encoding="UTF-8" standalone="no"?>
<svg xmlns:ffdec="https://www.free-decompiler.com/flash" xmlns:xlink="http://www.w3.org/1999/xlink" ffdec:objectType="shape" height="60.1px" width="36.95px" xmlns="http://www.w3.org/2000/svg">
  <g transform="matrix(1.0, 0.0, 0.0, 1.0, 6.7, 8.4)">
    <path d="M-5.7 1.75 L-5.2 5.45 -2.25 15.65 Q-1.5 12.65 0.6 10.3 2.15 8.55 3.95 7.65 5.4 6.9 7.0 6.7 L8.5 6.55 8.7 6.55 10.75 6.75 Q5.35 -1.85 -2.25 -6.6 -5.95 -3.25 -5.7 1.75 M4.7 31.1 Q2.45 30.15 0.6 28.15 L0.65 28.15 -1.15 25.6 -1.4 25.65 -2.25 22.8 -2.25 22.75 -2.3 22.65 -2.35 22.4 Q-3.9 17.2 -5.4 7.35 L-6.7 1.8 Q-6.95 -3.65 -3.4 -8.4 0.8 -7.6 8.55 1.05 L16.4 9.85 16.5 10.0 16.75 10.25 16.8 10.3 Q18.4 12.05 19.2 14.2 20.1 16.45 20.1 19.2 20.1 21.1 19.7 22.8 L18.1 20.05 18.1 19.2 17.8 15.0 Q17.45 13.0 15.35 11.65 L15.1 11.4 14.0 10.15 Q13.0 9.0 11.45 8.4 L9.55 7.65 8.1 7.3 Q7.0 7.15 4.65 7.75 2.2 8.35 0.2 11.3 -1.8 14.25 -1.5 16.65 L-0.9 19.85 -0.35 22.05 -0.1 23.0 -0.05 23.1 0.4 24.25 Q1.0 25.55 2.05 26.7 L2.1 26.85 4.7 31.1 M0.65 24.1 L0.65 23.85 0.45 22.65 0.45 22.6 Q0.4 21.5 1.5 18.05 2.55 14.55 5.5 13.4 L9.05 11.95 9.05 12.0 10.5 11.9 Q11.95 11.9 13.2 12.6 13.95 13.0 14.6 13.65 15.65 14.65 16.2 15.8 16.65 16.75 16.7 17.8 L15.6 16.1 Q14.05 15.85 13.25 15.1 L13.2 15.1 Q12.65 14.55 12.1 14.3 10.85 13.7 9.35 13.95 L8.3 14.15 Q2.1 15.65 2.45 22.45 L0.65 24.1" fill="#333333" fill-rule="evenodd" stroke="none"/>
    <path d="M2.05 26.7 Q1.0 25.55 0.4 24.25 L-0.05 23.1 -0.1 23.0 -0.35 22.05 -0.9 19.85 -1.5 16.65 Q-1.8 14.25 0.2 11.3 2.2 8.35 4.65 7.75 7.0 7.15 8.1 7.3 L9.55 7.65 11.45 8.4 Q13.0 9.0 14.0 10.15 L15.1 11.4 15.35 11.65 Q17.45 13.0 17.8 15.0 L18.1 19.2 18.1 20.05 16.95 18.2 16.7 17.8 Q16.65 16.75 16.2 15.8 15.65 14.65 14.6 13.65 13.95 13.0 13.2 12.6 11.95 11.9 10.5 11.9 L9.05 12.0 9.05 11.95 5.5 13.4 Q2.55 14.55 1.5 18.05 0.4 21.5 0.45 22.6 L0.45 22.65 0.65 23.85 0.65 24.1 0.55 24.15 2.05 26.7" fill="#edebe7" fill-rule="evenodd" stroke="none"/>
    <path d="M4.7 31.1 L2.1 26.85 2.05 26.7 0.55 24.15 0.65 24.1 2.45 22.45 Q2.95 24.4 3.7 25.6 L4.35 26.65 6.15 29.5 7.65 31.8 8.75 33.55 13.25 40.8 Q15.6 44.65 18.75 47.75 22.5 51.35 26.15 47.75 27.45 46.3 28.1 44.5 L25.7 39.0 21.65 30.65 18.75 25.3 17.5 23.1 17.35 22.85 16.2 20.85 14.7 18.35 12.5 14.95 12.1 14.3 Q12.65 14.55 13.2 15.1 L13.25 15.1 Q14.05 15.85 15.6 16.1 L16.7 17.8 16.95 18.2 18.1 20.05 19.7 22.8 22.1 27.1 Q24.5 31.45 26.55 35.9 L30.25 44.45 Q29.6 47.4 27.35 49.5 23.5 53.1 18.9 50.75 18.1 50.4 17.6 49.85 14.3 46.2 11.6 41.95 L7.0 34.7 4.7 31.1" fill="#6c3d28" fill-rule="evenodd" stroke="none"/>
    <path d="M8.3 14.15 L9.35 13.95 Q10.85 13.7 12.1 14.3 L12.5 14.95 14.7 18.35 16.2 20.85 17.35 22.85 17.5 23.1 18.75 25.3 21.65 30.65 25.7 39.0 28.1 44.5 Q27.45 46.3 26.15 47.75 L25.45 46.15 Q23.45 41.75 16.35 28.6 L15.35 26.75 14.4 25.0 13.55 23.4 13.3 22.9 8.3 14.15" fill="#e6a579" fill-rule="evenodd" stroke="none"/>
    <path d="M2.45 22.45 Q2.1 15.65 8.3 14.15 L13.3 22.9 13.55 23.4 14.4 25.0 15.35 26.75 16.35 28.6 Q23.45 41.75 25.45 46.15 L26.15 47.75 Q22.5 51.35 18.75 47.75 15.6 44.65 13.25 40.8 L8.75 33.55 7.65 31.8 6.15 29.5 4.35 26.65 3.7 25.6 Q2.95 24.4 2.45 22.45" fill="#ebb794" fill-rule="evenodd" stroke="none"/>
    <path d="M-5.7 1.75 Q-5.95 -3.25 -2.25 -6.6 5.35 -1.85 10.75 6.75 L8.7 6.55 8.5 6.55 7.0 6.7 Q5.4 6.9 3.95 7.65 2.15 8.55 0.6 10.3 -1.5 12.65 -2.25 15.65 L-5.2 5.45 -5.7 1.75" fill="#d1ccc3" fill-rule="evenodd" stroke="none"/>
  </g>
</svg>
