<?xml version="1.0" encoding="UTF-8" standalone="no"?>
<svg xmlns:ffdec="https://www.free-decompiler.com/flash" xmlns:xlink="http://www.w3.org/1999/xlink" ffdec:objectType="shape" height="192.0px" width="188.0px" xmlns="http://www.w3.org/2000/svg">
  <g transform="matrix(1.0, 0.0, 0.0, 1.0, 0.0, 0.0)">
    <path d="M0.0 0.0 L188.0 0.0 188.0 192.0 46.6 192.0 41.4 188.15 Q31.75 181.3 29.0 180.0 23.05 177.15 14.65 173.7 3.45 169.1 0.0 168.8 L0.0 0.0" fill="#ff0000" fill-rule="evenodd" stroke="none"/>
    <path d="M24.5 183.65 Q27.1 184.7 37.35 192.0 L26.05 192.0 Q23.2 189.65 17.85 186.45 6.3 179.5 0.6 179.5 L0.0 179.55 0.0 174.0 Q6.05 177.35 24.5 183.65 M12.0 189.0 Q12.85 189.35 16.5 192.0 L0.0 192.0 0.0 184.25 Q3.5 186.1 12.0 189.0" fill="#ff0000" fill-opacity="0.5686275" fill-rule="evenodd" stroke="none"/>
  </g>
</svg>
