<?xml version="1.0" encoding="UTF-8" standalone="no"?>
<svg xmlns:ffdec="https://www.free-decompiler.com/flash" xmlns:xlink="http://www.w3.org/1999/xlink" ffdec:objectType="shape" height="12.75px" width="30.1px" xmlns="http://www.w3.org/2000/svg">
  <g transform="matrix(1.0, 0.0, 0.0, 1.0, 18.95, -7.95)">
    <path d="M9.4 9.9 Q6.2 10.15 5.65 9.85 L5.65 9.9 3.45 12.95 Q1.5 15.55 -3.5 17.8 -7.25 19.45 -12.55 20.55 L-18.65 20.7 -18.95 20.25 -13.75 19.05 -13.75 19.1 Q-5.2 16.95 -2.25 14.7 2.35 11.1 3.35 9.85 4.25 8.55 5.05 8.1 5.75 7.65 11.1 8.65 11.35 9.75 9.4 9.9" fill="#682424" fill-rule="evenodd" stroke="none"/>
    <path d="M5.75 10.15 L5.75 10.2 5.75 10.15" fill="#ff0000" fill-rule="evenodd" stroke="none"/>
  </g>
</svg>
