<?xml version="1.0" encoding="UTF-8" standalone="no"?>
<svg xmlns:ffdec="https://www.free-decompiler.com/flash" xmlns:xlink="http://www.w3.org/1999/xlink" ffdec:objectType="shape" height="30.85px" width="41.2px" xmlns="http://www.w3.org/2000/svg">
  <g transform="matrix(1.0, 0.0, 0.0, 1.0, 25.3, 1.45)">
    <path d="M-22.15 19.6 Q-24.2 14.95 -25.3 13.1 L-24.9 12.75 -24.15 12.7 Q-16.15 15.5 -7.6 14.2 6.35 11.8 12.85 -0.8 13.05 -1.15 13.45 -1.3 L13.8 -1.35 13.85 -1.35 14.0 -1.45 15.45 5.3 Q16.3 10.5 15.5 18.0 L15.25 18.6 15.05 19.0 Q6.0 31.3 -9.35 29.05 -17.4 27.75 -22.15 19.65 L-22.15 19.6 M-17.7 16.35 Q-16.85 17.0 -15.85 18.2 L-15.65 18.2 Q-13.7 19.05 -8.8 19.05 -4.25 19.05 1.35 17.4 4.75 16.35 7.5 14.55 L11.6 10.95 Q12.9 10.1 13.85 8.7 L13.45 3.2 13.35 2.4 Q6.35 13.8 -7.25 16.15 L-7.3 16.15 Q-12.6 17.0 -17.7 16.3 L-19.05 16.1 -22.85 15.25 Q-21.5 16.8 -20.45 18.6 L-20.4 18.6 Q-16.2 25.85 -9.05 27.1 L-9.05 27.05 Q-0.3 28.35 6.25 24.5 L7.25 23.9 7.0 24.05 6.95 23.75 6.95 22.5 Q6.8 15.2 13.3 15.2 L13.75 15.25 13.9 10.4 Q12.45 12.5 8.95 14.95 1.5 20.2 -9.15 20.2 -13.15 20.2 -15.25 19.35 L-15.75 19.5 -20.85 15.75 -19.05 16.15 -17.7 16.35 M8.55 20.05 Q8.15 20.9 7.9 23.45 10.95 21.2 13.45 17.8 L13.5 17.75 13.6 16.85 13.65 16.35 Q10.35 16.2 9.35 17.5 L8.55 20.05" fill="#682424" fill-rule="evenodd" stroke="none"/>
    <path d="M-17.7 16.3 Q-12.6 17.0 -7.3 16.15 L-7.25 16.15 Q6.35 13.8 13.35 2.4 L13.45 3.2 13.85 8.7 Q12.9 10.1 11.6 10.95 L7.5 14.55 Q4.75 16.35 1.35 17.4 -4.25 19.05 -8.8 19.05 -13.7 19.05 -15.65 18.2 L-15.85 18.2 Q-16.85 17.0 -17.7 16.35 L-17.7 16.3" fill="#e5e5e5" fill-rule="evenodd" stroke="none"/>
    <path d="M8.55 20.05 L9.35 17.5 Q10.35 16.2 13.65 16.35 L13.6 16.85 13.5 17.75 13.45 17.8 Q10.95 21.2 7.9 23.45 8.15 20.9 8.55 20.05" fill="#b45f50" fill-rule="evenodd" stroke="none"/>
    <path d="M-17.7 16.35 L-19.05 16.15 -20.85 15.75 -15.75 19.5 -15.25 19.35 Q-13.15 20.2 -9.15 20.2 1.5 20.2 8.95 14.95 12.45 12.5 13.9 10.4 L13.75 15.25 13.3 15.2 Q6.8 15.2 6.95 22.5 L6.95 23.75 7.0 24.05 7.25 23.9 6.25 24.5 Q-0.3 28.35 -9.05 27.05 L-9.05 27.1 Q-16.2 25.85 -20.4 18.6 L-20.45 18.6 Q-21.5 16.8 -22.85 15.25 L-19.05 16.1 -17.7 16.3 -17.7 16.35" fill="#57352d" fill-rule="evenodd" stroke="none"/>
    <path d="M-22.15 19.6 L-22.15 19.65 -22.15 19.6" fill="#463624" fill-rule="evenodd" stroke="none"/>
  </g>
</svg>
