<?xml version="1.0" encoding="UTF-8" standalone="no"?>
<svg xmlns:ffdec="https://www.free-decompiler.com/flash" xmlns:xlink="http://www.w3.org/1999/xlink" ffdec:objectType="shape" height="30.85px" width="41.2px" xmlns="http://www.w3.org/2000/svg">
  <g transform="matrix(1.0, 0.0, 0.0, 1.0, 25.3, 1.45)">
    <path d="M-22.15 19.6 Q-24.2 14.95 -25.3 13.1 L-24.9 12.75 -24.15 12.7 Q-16.15 15.5 -7.6 14.2 6.35 11.8 12.85 -0.8 13.05 -1.15 13.45 -1.3 L13.8 -1.35 13.85 -1.35 14.0 -1.45 15.45 5.3 Q16.3 10.5 15.5 18.0 L15.25 18.6 15.05 19.0 Q6.0 31.3 -9.35 29.05 -17.4 27.75 -22.15 19.65 L-22.15 19.6 M13.85 8.6 L13.45 3.2 13.35 2.4 Q6.35 13.8 -7.25 16.15 L-7.3 16.15 Q-12.55 17.0 -17.6 16.3 L-18.35 16.15 -18.65 16.2 -19.05 16.1 -22.85 15.25 -21.7 16.65 -21.15 17.5 -20.45 18.6 -20.35 18.7 -19.65 19.85 -19.65 19.8 -19.45 19.75 -15.4 22.45 -12.65 21.75 -12.25 21.65 -10.15 21.2 -10.0 21.15 -9.1 21.15 -9.0 21.4 -9.05 21.65 -9.1 21.65 Q-10.8 22.0 -14.05 23.2 L-14.55 24.7 -14.55 24.8 -14.6 24.9 -14.6 24.95 -12.45 26.1 Q-10.85 26.75 -9.05 27.1 L-9.05 27.05 Q-0.3 28.35 6.25 24.5 L6.3 24.55 6.0 24.8 6.7 24.25 7.0 24.05 10.8 20.85 11.4 20.25 13.45 17.8 13.5 17.75 13.5 17.7 13.75 17.7 13.8 16.9 Q12.85 16.1 12.3 16.1 10.05 16.1 8.3 16.9 L8.2 16.95 7.65 17.3 6.6 17.85 6.55 17.85 6.45 17.85 5.95 17.85 5.85 17.65 Q5.85 17.25 7.25 16.6 L7.7 16.4 7.75 16.4 8.25 16.2 9.2 15.85 9.3 15.8 9.45 15.75 12.6 14.5 Q13.35 13.4 13.9 11.75 L13.9 12.5 13.95 11.7 13.95 11.65 13.9 9.5 13.8 8.8 13.85 8.7 13.85 8.6 M-18.05 21.95 L-17.9 22.15 -16.2 23.75 -14.75 24.85 -15.6 24.25 -15.65 23.8 -17.45 22.35 -18.05 21.95" fill="#682424" fill-rule="evenodd" stroke="none"/>
    <path d="M-20.45 18.6 L-21.15 17.5 -21.7 16.65 -22.85 15.25 -19.05 16.1 -18.65 16.2 -18.35 16.15 -17.6 16.3 Q-12.55 17.0 -7.3 16.15 L-7.25 16.15 Q6.35 13.8 13.35 2.4 L13.45 3.2 13.85 8.6 13.8 8.65 13.7 8.8 13.8 8.8 13.9 9.5 13.95 11.65 13.95 11.7 13.9 11.75 Q13.35 13.4 12.6 14.5 L9.45 15.75 9.3 15.8 9.2 15.85 8.25 16.2 7.75 16.4 7.7 16.4 7.5 16.4 7.25 16.6 Q5.85 17.25 5.85 17.65 L5.95 17.85 6.45 17.85 6.55 17.85 6.6 17.85 7.65 17.3 8.2 16.95 8.25 16.95 8.3 16.95 8.3 16.9 Q10.05 16.1 12.3 16.1 12.85 16.1 13.8 16.9 L13.75 17.7 13.5 17.7 13.5 17.75 13.45 17.8 11.4 20.25 10.8 20.85 Q10.6 17.6 8.0 17.6 L5.55 18.3 5.3 18.25 5.2 17.95 Q5.2 17.25 9.25 14.2 L10.2 12.6 Q8.8 13.65 7.0 14.45 2.25 16.5 0.45 16.95 -5.9 18.45 -9.65 18.45 L-18.15 17.7 -20.9 16.9 Q-17.35 21.2 -12.05 21.2 L-7.75 20.95 -5.2 21.05 Q-5.1 21.1 -5.15 21.3 -6.3 22.05 -9.95 23.6 -11.35 24.5 -11.85 26.3 L-12.45 26.1 -14.6 24.95 -14.6 24.9 -14.55 24.8 -14.55 24.75 -14.55 24.7 -14.05 23.2 Q-10.8 22.0 -9.1 21.65 L-9.05 21.65 -9.0 21.4 -9.1 21.15 -10.0 21.15 -10.15 21.2 -12.25 21.65 -12.65 21.75 -15.4 22.45 -19.45 19.75 -19.65 19.8 -19.65 19.85 -20.35 18.7 -20.4 18.6 -20.45 18.6" fill="#e5e5e5" fill-rule="evenodd" stroke="none"/>
    <path d="M13.85 8.6 L13.85 8.7 13.8 8.8 13.7 8.8 13.8 8.65 13.85 8.6 M7.7 16.4 L7.25 16.6 7.5 16.4 7.7 16.4 M10.8 20.85 L7.0 24.05 6.7 24.25 6.25 24.5 Q-0.3 28.35 -9.05 27.05 L-9.05 27.1 Q-10.85 26.75 -12.45 26.1 L-11.85 26.3 Q-11.35 24.5 -9.95 23.6 -6.3 22.05 -5.15 21.3 -5.1 21.1 -5.2 21.05 L-7.75 20.95 -12.05 21.2 Q-17.35 21.2 -20.9 16.9 L-18.15 17.7 -9.65 18.45 Q-5.9 18.45 0.45 16.95 2.25 16.5 7.0 14.45 8.8 13.65 10.2 12.6 L9.25 14.2 Q5.2 17.25 5.2 17.95 L5.3 18.25 5.55 18.3 8.0 17.6 Q10.6 17.6 10.8 20.85 M8.3 16.9 L8.3 16.95 8.25 16.95 8.3 16.9" fill="#f9f9f9" fill-rule="evenodd" stroke="none"/>
    <path d="M-22.15 19.6 L-22.15 19.65 -22.15 19.6 M8.2 16.95 L8.3 16.9 8.25 16.95 8.2 16.95 M6.3 24.55 L6.25 24.5 6.7 24.25 6.3 24.55 M-20.35 18.7 L-20.45 18.6 -20.4 18.6 -20.35 18.7" fill="#463624" fill-rule="evenodd" stroke="none"/>
    <path d="M-14.55 24.8 L-14.55 24.7 -14.55 24.75 -14.55 24.8 M-18.05 21.95 L-17.45 22.35 -15.65 23.8 -15.6 24.25 -14.75 24.85 -16.2 23.75 -17.9 22.15 -18.05 21.95" fill="#57352d" fill-rule="evenodd" stroke="none"/>
  </g>
</svg>
