<?xml version="1.0" encoding="UTF-8" standalone="no"?>
<svg xmlns:ffdec="https://www.free-decompiler.com/flash" xmlns:xlink="http://www.w3.org/1999/xlink" ffdec:objectType="shape" height="14.65px" width="27.85px" xmlns="http://www.w3.org/2000/svg">
  <g transform="matrix(1.0, 0.0, 0.0, 1.0, 13.35, -10.15)">
    <path d="M14.5 16.4 Q14.5 18.85 11.1 21.4 6.6 24.75 -1.0 24.75 L-5.6 24.65 -5.65 24.65 -6.85 24.8 Q-13.75 24.8 -13.3 19.2 L-13.2 18.4 Q-12.55 15.45 -6.4 12.85 -0.1 10.15 6.25 10.15 12.0 10.15 13.75 12.85 14.5 13.95 14.5 16.4 M-10.0 22.85 L-9.8 22.95 -8.85 23.35 Q2.9 24.5 8.25 21.35 12.6 18.8 12.6 16.05 12.6 11.9 5.0 11.9 -2.8 11.9 -8.05 15.2 L-11.8 18.0 -11.1 18.95 -10.5 19.7 Q-8.7 18.0 -3.0 17.75 L-1.75 18.0 -1.7 18.2 -6.0 19.5 Q-6.9 19.8 -8.75 21.1 L-8.85 21.35 -9.9 22.65 -10.25 22.75 -10.0 22.85" fill="#682424" fill-rule="evenodd" stroke="none"/>
    <path d="M-1.75 18.0 L-3.0 17.75 Q-8.7 18.0 -10.5 19.7 L-11.1 18.95 -11.8 18.0 -8.05 15.2 Q-2.8 11.9 5.0 11.9 12.6 11.9 12.6 16.05 12.6 18.8 8.25 21.35 2.9 24.5 -8.85 23.35 L-9.8 22.95 -10.0 22.85 -9.9 22.65 -8.85 21.35 -8.75 21.15 -8.75 21.1 Q-6.9 19.8 -6.0 19.5 L-1.7 18.2 -1.65 18.15 -1.75 18.0" fill="#e5e5e5" fill-rule="evenodd" stroke="none"/>
    <path d="M-1.75 18.0 L-1.65 18.15 -1.7 18.2 -1.75 18.0 M-8.75 21.1 L-8.75 21.15 -8.85 21.35 -8.75 21.1" fill="#463624" fill-rule="evenodd" stroke="none"/>
  </g>
</svg>
