<?xml version="1.0" encoding="UTF-8" standalone="no"?>
<svg xmlns:ffdec="https://www.free-decompiler.com/flash" xmlns:xlink="http://www.w3.org/1999/xlink" ffdec:objectType="shape" height="25.9px" width="35.65px" xmlns="http://www.w3.org/2000/svg">
  <g transform="matrix(1.0, 0.0, 0.0, 1.0, 18.55, -2.85)">
    <path d="M5.25 26.3 Q0.7 27.4 -5.75 27.4 L-12.3 27.15 Q-12.2 23.4 -12.35 21.5 -12.7 18.2 -15.15 16.4 L-12.3 13.8 -11.65 13.25 Q-8.2 17.15 -6.35 17.15 -5.5 17.15 1.05 14.4 7.65 11.65 11.3 11.65 13.55 11.65 13.9 12.25 14.3 12.85 15.6 12.85 L15.7 12.85 15.7 12.9 15.85 14.4 Q16.5 17.95 14.25 21.05 14.05 19.7 12.25 18.15 9.55 15.8 5.0 15.8 0.25 15.8 -2.25 19.25 -3.85 21.5 -3.85 23.3 -3.85 26.25 0.0 26.25 2.5 26.25 5.25 23.75 5.9 24.3 6.65 24.5 6.65 24.85 5.9 25.2 5.15 25.6 5.15 26.05 L5.2 26.3 5.25 26.3" fill="#57352d" fill-rule="evenodd" stroke="none"/>
    <path d="M-10.8 12.6 Q-10.2 13.0 -8.9 14.2 -7.0 16.0 -6.5 16.0 -5.0 16.0 10.0 10.4 L11.5 10.35 Q14.1 10.35 14.7 11.0 L15.2 11.3 14.15 9.2 Q11.55 4.9 6.25 4.9 0.8 4.9 -7.05 10.0 L-10.8 12.6 -11.3 12.95 -10.8 12.6 M15.6 12.85 Q14.3 12.85 13.9 12.25 13.55 11.65 11.3 11.65 7.65 11.65 1.05 14.4 -5.5 17.15 -6.35 17.15 -8.2 17.15 -11.65 13.25 L-12.3 13.8 -15.15 16.4 Q-12.7 18.2 -12.35 21.5 -12.2 23.4 -12.3 27.15 L-5.75 27.4 Q0.7 27.4 5.25 26.3 L5.3 26.3 6.1 26.05 5.2 26.3 5.15 26.05 Q5.15 25.6 5.9 25.2 6.65 24.85 6.65 24.5 5.9 24.3 5.25 23.75 2.5 26.25 0.0 26.25 -3.85 26.25 -3.85 23.3 -3.85 21.5 -2.25 19.25 0.25 15.8 5.0 15.8 9.55 15.8 12.25 18.15 14.05 19.7 14.25 21.05 16.5 17.95 15.85 14.4 L15.7 12.9 15.6 12.4 15.7 12.85 15.6 12.85 M-2.4 21.8 L-2.75 23.05 Q-2.75 24.9 -0.6 24.9 2.45 24.9 4.7 22.8 6.25 21.35 6.85 19.65 L7.25 19.5 7.6 19.85 7.3 21.3 6.55 22.5 6.45 22.6 6.6 22.55 6.95 22.55 7.25 22.6 8.9 23.4 9.0 23.55 9.15 23.85 9.15 23.95 9.25 24.65 9.15 24.95 9.35 24.85 10.95 24.0 13.4 22.05 12.85 21.35 12.0 19.6 Q10.25 17.05 5.0 17.05 -0.85 17.05 -2.4 21.8 M15.0 22.15 Q9.9 28.75 -5.85 28.75 L-13.7 28.7 -13.85 28.45 Q-13.65 28.05 -13.8 27.75 L-13.65 26.4 -13.55 23.9 Q-13.55 17.4 -16.45 17.4 -17.0 17.4 -18.0 18.25 -18.55 18.05 -18.55 17.45 -1.85 2.85 7.85 2.85 12.95 2.85 15.55 8.4 16.85 11.2 17.1 14.25 17.1 19.4 15.0 22.15" fill="#682424" fill-rule="evenodd" stroke="none"/>
    <path d="M-10.8 12.6 L-7.05 10.0 Q0.8 4.9 6.25 4.9 11.55 4.9 14.15 9.2 L15.2 11.3 14.7 11.0 Q14.1 10.35 11.5 10.35 L10.0 10.4 Q-5.0 16.0 -6.5 16.0 -7.0 16.0 -8.9 14.2 -10.2 13.0 -10.8 12.6" fill="#e5e5e5" fill-rule="evenodd" stroke="none"/>
    <path d="M7.85 20.55 L7.85 19.2 7.8 19.85 7.6 19.9 7.5 20.95 7.5 21.3 7.85 20.55 M-2.4 21.8 Q-1.3 23.15 1.0 23.15 3.95 23.15 5.65 21.0 L7.35 18.8 Q10.5 18.8 11.0 23.4 L10.95 24.0 9.35 24.85 9.25 24.65 9.15 23.95 9.15 23.85 9.0 23.55 8.9 23.4 7.25 22.6 6.95 22.55 7.3 21.3 7.6 19.85 7.25 19.5 6.85 19.65 Q6.25 21.35 4.7 22.8 2.45 24.9 -0.6 24.9 -2.75 24.9 -2.75 23.05 L-2.4 21.8" fill="#a05345" fill-rule="evenodd" stroke="none"/>
    <path d="M15.7 12.85 L15.6 12.85 15.7 12.85 M7.85 20.55 L7.5 21.3 7.5 20.95 7.6 19.9 7.8 19.85 7.85 19.2 7.85 20.55" fill="#463624" fill-rule="evenodd" stroke="none"/>
    <path d="M10.95 24.0 L11.0 23.4 Q10.5 18.8 7.35 18.8 L5.65 21.0 Q3.95 23.15 1.0 23.15 -1.3 23.15 -2.4 21.8 -0.85 17.05 5.0 17.05 10.25 17.05 12.0 19.6 L12.85 21.35 13.4 22.05 10.95 24.0 M7.3 21.3 L6.95 22.55 6.6 22.55 6.55 22.5 7.3 21.3" fill="#b45f50" fill-rule="evenodd" stroke="none"/>
  </g>
</svg>
