<?xml version="1.0" encoding="UTF-8" standalone="no"?>
<svg xmlns:ffdec="https://www.free-decompiler.com/flash" xmlns:xlink="http://www.w3.org/1999/xlink" ffdec:objectType="shape" height="21.1px" width="32.35px" xmlns="http://www.w3.org/2000/svg">
  <g transform="matrix(1.0, 0.0, 0.0, 1.0, 20.15, -6.3)">
    <path d="M11.7 6.4 Q12.6 6.5 11.9 6.5 L11.85 6.5 11.7 6.4" fill="#463624" fill-rule="evenodd" stroke="none"/>
    <path d="M11.7 6.4 L11.85 6.5 Q11.25 6.6 10.7 8.4 L10.65 8.55 10.6 8.7 10.85 8.6 11.0 9.4 Q11.0 14.4 8.5 18.9 3.8 27.4 -7.85 27.4 -12.0 27.4 -13.55 26.65 -15.65 25.65 -16.5 22.4 -17.0 20.55 -19.0 17.05 L-19.0 16.65 -18.85 16.6 -20.15 14.35 Q-10.45 17.65 -0.7 14.35 6.05 11.9 10.9 6.5 L11.7 6.4 M9.7 10.3 Q8.25 12.1 4.6 14.6 -0.85 18.3 -8.3 18.55 -14.2 18.7 -17.25 17.6 -16.5 18.75 -15.5 21.15 L-14.3 23.65 Q-14.0 24.3 -14.25 25.0 L-8.2 25.4 -4.7 25.25 Q-2.95 18.4 3.75 18.4 5.65 18.4 7.15 19.1 L6.75 19.65 8.05 17.35 Q8.95 15.2 9.5 11.5 L9.7 10.3 M3.8 19.5 Q-0.95 19.5 -2.65 22.4 L-3.6 25.1 Q3.1 24.15 6.35 20.2 4.35 19.5 3.8 19.5" fill="#682424" fill-rule="evenodd" stroke="none"/>
    <path d="M10.7 8.4 L10.85 8.6 10.6 8.7 10.65 8.55 10.7 8.4" fill="#463623" fill-rule="evenodd" stroke="none"/>
    <path d="M9.7 10.3 L9.5 11.5 Q8.95 15.2 8.05 17.35 L6.75 19.65 7.15 19.1 Q5.65 18.4 3.75 18.4 -2.95 18.4 -4.7 25.25 L-8.2 25.4 -14.25 25.0 Q-14.0 24.3 -14.3 23.65 L-15.5 21.15 Q-16.5 18.75 -17.25 17.6 -14.2 18.7 -8.3 18.55 -0.85 18.3 4.6 14.6 8.25 12.1 9.7 10.3" fill="#57352d" fill-rule="evenodd" stroke="none"/>
    <path d="M3.8 19.5 Q4.35 19.5 6.35 20.2 3.1 24.15 -3.6 25.1 L-2.65 22.4 Q-0.95 19.5 3.8 19.5" fill="#b45f50" fill-rule="evenodd" stroke="none"/>
  </g>
</svg>
