<?xml version="1.0" encoding="UTF-8" standalone="no"?>
<svg xmlns:ffdec="https://www.free-decompiler.com/flash" xmlns:xlink="http://www.w3.org/1999/xlink" ffdec:objectType="shape" height="16.6px" width="36.9px" xmlns="http://www.w3.org/2000/svg">
  <g transform="matrix(1.0, 0.0, 0.0, 1.0, 22.9, -4.05)">
    <path d="M12.0 11.5 Q12.0 8.55 7.35 7.55 6.0 9.5 1.85 12.35 -2.1 15.0 -7.1 15.9 L-3.25 16.8 3.0 18.1 4.15 18.55 Q4.05 18.4 4.3 16.95 4.5 15.5 5.65 13.2 6.8 10.85 8.5 10.9 10.2 10.9 11.5 11.4 L12.0 11.6 12.0 11.5 M8.95 4.15 L9.05 4.3 8.7 4.5 Q13.45 4.55 14.0 11.75 10.95 20.85 5.95 20.65 0.9 20.4 -5.05 19.15 -10.75 17.95 -14.25 16.3 -19.15 16.1 -21.4 14.7 L-22.9 12.1 Q-13.2 15.4 -3.45 12.1 3.3 9.65 8.15 4.25 L8.95 4.15 M11.55 13.0 L8.0 12.75 Q6.75 12.75 5.9 15.4 5.2 17.45 5.55 18.75 5.85 18.4 7.3 18.4 8.65 18.4 10.4 15.25 L11.6 13.0 11.75 12.6 11.55 13.0" fill="#682424" fill-rule="evenodd" stroke="none"/>
    <path d="M12.0 11.6 L11.5 11.4 Q10.2 10.9 8.5 10.9 6.8 10.85 5.65 13.2 4.5 15.5 4.3 16.95 4.05 18.4 4.15 18.55 L3.0 18.1 -3.25 16.8 -7.1 15.9 Q-2.1 15.0 1.85 12.35 6.0 9.5 7.35 7.55 12.0 8.55 12.0 11.5 L12.0 11.6" fill="#57352d" fill-rule="evenodd" stroke="none"/>
    <path d="M8.95 4.15 Q9.85 4.25 9.15 4.25 L9.05 4.3 8.95 4.15" fill="#463624" fill-rule="evenodd" stroke="none"/>
    <path d="M11.6 13.0 L10.4 15.25 Q8.65 18.4 7.3 18.4 5.85 18.4 5.55 18.75 5.2 17.45 5.9 15.4 6.75 12.75 8.0 12.75 L11.55 13.0 11.6 13.0" fill="#b45f50" fill-rule="evenodd" stroke="none"/>
  </g>
</svg>
