<?xml version="1.0" encoding="UTF-8" standalone="no"?>
<svg xmlns:ffdec="https://www.free-decompiler.com/flash" xmlns:xlink="http://www.w3.org/1999/xlink" ffdec:objectType="shape" height="7.85px" width="23.45px" xmlns="http://www.w3.org/2000/svg">
  <g transform="matrix(1.0, 0.0, 0.0, 1.0, 15.8, -15.8)">
    <path d="M5.55 17.5 L5.9 17.75 5.6 17.5 5.15 17.25 4.85 17.3 2.3 17.05 Q-8.2 17.05 -11.05 18.4 -10.5 19.5 -10.5 20.3 L-10.5 21.25 -5.35 20.55 -1.85 20.85 Q-1.75 19.7 0.0 18.55 1.95 17.3 4.5 17.3 L5.55 17.5 M2.25 15.8 L5.0 16.1 Q7.75 16.8 7.65 20.15 7.65 22.9 5.6 22.9 L0.45 22.3 -5.85 21.65 Q-9.0 21.65 -11.6 22.65 -14.2 23.65 -14.85 23.65 L-15.3 23.55 -15.5 23.05 Q-15.5 22.4 -11.7 21.5 L-11.3 21.4 Q-12.25 20.5 -12.25 18.35 L-15.65 19.65 Q-15.8 20.05 -15.8 19.4 -15.8 18.65 -11.6 17.65 L-12.05 17.75 Q-11.55 17.2 -9.8 16.95 L-5.4 16.5 -2.35 16.2 0.5 15.9 2.25 15.8 M0.4 20.65 Q0.35 21.0 -0.45 21.0 L-0.5 21.05 0.25 21.2 6.15 21.8 Q6.75 21.8 6.75 20.2 6.75 19.0 6.3 18.25 5.6 18.85 4.05 18.85 2.1 18.8 1.5 19.25 0.45 19.95 0.4 20.65" fill="#682424" fill-rule="evenodd" stroke="none"/>
    <path d="M5.6 17.5 L5.55 17.5 4.5 17.3 Q1.95 17.3 0.0 18.55 -1.75 19.7 -1.85 20.85 L-5.35 20.55 -10.5 21.25 -10.5 20.3 Q-10.5 19.5 -11.05 18.4 -8.2 17.05 2.3 17.05 L4.85 17.3 5.15 17.25 5.6 17.5" fill="#57352d" fill-rule="evenodd" stroke="none"/>
    <path d="M0.4 20.65 Q0.45 19.95 1.5 19.25 2.1 18.8 4.05 18.85 5.6 18.85 6.3 18.25 6.75 19.0 6.75 20.2 6.75 21.8 6.15 21.8 L0.25 21.2 -0.5 21.05 -0.45 21.0 Q0.35 21.0 0.4 20.65" fill="#b45f50" fill-rule="evenodd" stroke="none"/>
  </g>
</svg>
