<?xml version="1.0" encoding="UTF-8" standalone="no"?>
<svg xmlns:ffdec="https://www.free-decompiler.com/flash" xmlns:xlink="http://www.w3.org/1999/xlink" ffdec:objectType="shape" height="124.95px" width="101.05px" xmlns="http://www.w3.org/2000/svg">
  <g transform="matrix(1.0, 0.0, 0.0, 1.0, -4.25, 24.35)">
    <path d="M16.8 -10.6 L15.85 -11.8 17.3 -12.2 Q50.2 -21.65 58.0 -23.15 67.45 -25.2 76.95 -23.8 95.9 -21.2 101.9 -3.45 106.9 11.15 104.5 26.45 102.1 42.1 95.8 56.25 90.4 68.25 81.0 78.35 L80.95 78.35 80.75 78.6 80.7 78.75 80.55 78.8 80.3 79.0 80.1 79.25 80.0 79.35 79.7 79.65 79.4 79.95 79.35 80.0 78.7 80.6 78.7 80.65 Q73.2 85.55 67.05 89.2 59.65 93.45 51.6 96.55 44.3 99.35 36.4 100.25 L33.55 100.6 33.4 100.15 35.7 98.45 Q51.35 87.25 59.15 71.45 38.95 83.55 15.05 78.0 L12.25 77.4 12.25 76.75 15.05 76.05 Q39.85 70.25 51.5 46.75 28.95 61.75 10.05 50.65 L7.6 49.3 7.6 49.15 10.45 48.75 Q26.5 46.8 28.1 38.0 14.3 40.4 6.15 34.6 L4.25 33.3 6.5 32.8 Q25.9 28.5 28.65 17.85 31.1 6.95 16.8 -10.6 M37.6 98.65 L37.55 98.7 37.65 98.65 Q45.65 96.65 50.9 94.7 58.75 91.65 66.05 87.45 72.0 83.95 77.35 79.15 L77.3 79.2 78.0 78.55 78.05 78.5 78.3 78.25 78.5 78.05 78.9 77.6 79.25 77.3 79.55 77.0 79.55 76.95 Q88.2 66.45 93.65 53.35 99.05 40.2 100.5 25.8 101.9 11.35 98.15 -4.0 94.4 -19.4 76.7 -21.8 L76.65 -21.8 Q67.55 -23.2 58.4 -21.2 50.8 -19.75 19.25 -10.7 33.4 7.05 30.55 18.3 28.0 29.4 7.05 33.9 16.95 38.2 29.05 35.8 L30.35 35.55 30.25 36.8 Q29.9 47.45 11.0 50.05 31.85 58.8 53.4 42.95 L55.75 41.3 56.1 41.6 54.95 44.15 Q43.95 69.45 16.2 77.1 L16.15 77.15 16.25 77.15 Q42.05 80.65 60.95 67.95 L63.35 66.4 63.6 66.6 62.45 69.15 Q55.2 85.75 37.6 98.65" fill="#5f2c16" fill-rule="evenodd" stroke="none"/>
    <path d="M37.6 98.65 Q55.2 85.75 62.45 69.15 L63.6 66.6 Q70.95 70.0 65.65 76.75 53.65 92.0 37.65 98.65 L37.6 98.65 M16.2 77.1 Q43.95 69.45 54.95 44.15 L56.1 41.6 Q60.4 56.3 47.95 66.0 35.5 75.7 16.25 77.15 L16.2 77.1 M11.0 50.05 Q29.9 47.45 30.25 36.8 35.15 36.15 31.55 44.45 28.2 52.15 11.0 50.05 M7.05 33.9 Q28.0 29.4 30.55 18.3 33.65 19.85 30.6 26.75 27.55 33.6 7.05 33.9" fill="#ae5128" fill-rule="evenodd" stroke="none"/>
    <path d="M30.55 18.3 Q33.4 7.05 19.25 -10.7 50.8 -19.75 58.4 -21.2 67.55 -23.2 76.65 -21.8 L76.7 -21.8 Q94.4 -19.4 98.15 -4.0 101.9 11.35 100.5 25.8 99.05 40.2 93.65 53.35 88.2 66.45 79.55 76.95 L79.55 77.0 79.25 77.3 78.9 77.6 78.5 78.05 78.3 78.25 78.05 78.5 78.0 78.55 77.3 79.2 77.35 79.15 Q72.0 83.95 66.05 87.45 58.75 91.65 50.9 94.7 45.65 96.65 37.65 98.65 L37.55 98.7 37.6 98.65 37.65 98.65 Q53.65 92.0 65.65 76.75 70.95 70.0 63.6 66.6 L63.35 66.4 60.95 67.95 Q42.05 80.65 16.25 77.15 L16.15 77.15 16.2 77.1 16.25 77.15 Q35.5 75.7 47.95 66.0 60.4 56.3 56.1 41.6 L55.75 41.3 53.4 42.95 Q31.85 58.8 11.0 50.05 28.2 52.15 31.55 44.45 35.15 36.15 30.25 36.8 L30.35 35.55 29.05 35.8 Q16.95 38.2 7.05 33.9 27.55 33.6 30.6 26.75 33.65 19.85 30.55 18.3" fill="#984623" fill-rule="evenodd" stroke="none"/>
  </g>
</svg>
