<?xml version="1.0" encoding="UTF-8" standalone="no"?>
<svg xmlns:ffdec="https://www.free-decompiler.com/flash" xmlns:xlink="http://www.w3.org/1999/xlink" ffdec:objectType="shape" height="178.4px" width="63.45px" xmlns="http://www.w3.org/2000/svg">
  <g transform="matrix(1.0, 0.0, 0.0, 1.0, 28.1, 144.8)">
    <path d="M2.2 -22.9 L5.1 -22.85 4.95 -15.9 6.95 -15.85 7.0 -18.9 14.1 -19.25 14.15 -19.25 21.4 -20.1 21.5 -17.6 23.5 -17.65 23.25 -25.1 25.2 -25.55 26.0 -25.8 26.2 -19.05 26.1 -19.0 26.2 -17.75 Q26.25 -17.3 26.6 -17.0 26.9 -16.75 27.3 -16.8 27.7 -16.85 28.0 -17.2 L28.2 -17.95 28.2 -18.15 28.25 -18.15 28.15 -21.55 29.65 -22.0 Q28.8 -18.75 31.25 -9.0 34.8 5.45 28.9 18.85 25.7 26.1 19.6 29.45 L19.95 28.85 20.1 28.05 19.65 27.35 18.9 27.25 Q18.45 27.3 18.25 27.7 L16.6 30.25 16.4 30.85 Q12.4 32.2 7.4 32.2 -8.2 32.2 -17.7 21.0 -27.2 9.8 -26.7 -1.95 -26.25 -11.9 -24.3 -20.45 -21.65 -17.35 -17.15 -16.15 L-13.55 -15.7 Q-10.9 -15.65 -8.55 -16.55 L-8.5 -16.55 Q-6.05 -17.55 -4.75 -19.15 L-2.85 -19.05 Q-4.3 -12.3 -3.95 -7.35 L-3.9 -7.0 -3.6 -6.85 Q8.1 -1.9 26.65 -2.5 L26.55 -1.05 Q26.55 -0.6 26.8 -0.25 27.1 0.05 27.5 0.1 L28.25 -0.2 28.55 -0.9 28.65 -3.05 28.65 -3.1 28.65 -4.1 28.35 -4.85 27.65 -5.15 Q27.25 -5.15 26.95 -4.85 26.65 -4.55 26.65 -4.1 L26.65 -3.6 Q8.6 -3.0 -2.95 -7.75 -3.25 -12.55 -1.85 -19.0 L0.0 -18.95 -0.1 -16.45 1.9 -16.35 2.2 -22.9 M26.8 -13.2 L26.55 -12.4 26.7 -9.35 Q26.7 -8.95 27.05 -8.6 27.3 -8.3 27.75 -8.3 28.15 -8.35 28.45 -8.65 L28.7 -9.4 28.55 -12.6 28.2 -13.3 27.5 -13.55 Q27.05 -13.55 26.8 -13.2 M-6.65 -5.05 Q-4.5 -12.75 -11.65 -11.85 -18.85 -10.9 -22.45 -14.75 -24.3 -1.3 -22.15 7.0 -20.05 15.3 -14.7 20.85 -9.35 26.45 -1.8 26.1 5.75 25.7 11.1 20.35 16.45 15.0 16.4 8.75 16.35 2.5 11.2 0.65 L-6.65 -5.05 M26.4 3.6 Q26.05 3.85 26.0 4.3 L25.6 7.4 Q25.5 7.85 25.75 8.2 26.0 8.55 26.4 8.65 L27.15 8.45 27.55 7.8 28.0 4.55 27.8 3.8 Q27.55 3.4 27.15 3.35 26.7 3.3 26.4 3.6 M25.75 11.8 L24.95 11.9 Q24.6 12.1 24.5 12.55 L23.65 15.55 Q23.5 15.9 23.7 16.3 L24.3 16.85 25.05 16.8 25.55 16.15 26.45 13.1 26.35 12.3 25.75 11.8 M23.25 19.8 Q22.85 19.6 22.5 19.8 22.1 19.95 21.95 20.35 L20.7 23.2 Q20.5 23.6 20.65 24.0 L21.2 24.6 21.95 24.7 22.5 24.1 23.8 21.2 23.8 20.35 23.25 19.8" fill="#414a63" fill-rule="evenodd" stroke="none"/>
    <path d="M-3.2 -23.05 L-1.75 -23.0 0.15 -22.95 0.1 -20.9 -3.65 -21.05 -3.4 -21.8 -3.2 -23.05 M7.1 -22.9 L10.15 -23.0 14.95 -33.15 17.5 -29.1 Q16.6 -23.8 14.9 -21.3 L14.0 -21.25 13.95 -21.25 7.05 -20.9 7.1 -22.9" fill="#735944" fill-rule="evenodd" stroke="none"/>
    <path d="M33.2 -23.95 Q34.1 -18.9 35.15 -6.85 36.2 5.8 31.6 19.3 27.0 32.75 8.95 33.55 -9.1 34.35 -18.85 22.8 -28.6 11.2 -28.1 -5.05 -27.8 -13.0 -25.8 -22.6 L-24.5 -20.7 -24.3 -20.45 Q-26.25 -11.9 -26.7 -1.95 -27.2 9.8 -17.7 21.0 -8.2 32.2 7.4 32.2 12.4 32.2 16.4 30.85 L16.6 30.25 18.25 27.7 Q18.45 27.3 18.9 27.25 L19.65 27.35 20.1 28.05 19.95 28.85 19.6 29.45 Q25.7 26.1 28.9 18.85 34.8 5.45 31.25 -9.0 28.8 -18.75 29.65 -22.0 31.7 -22.75 32.75 -23.55 L32.7 -23.5 33.2 -23.95 M0.15 -22.95 L2.2 -22.9 1.9 -16.35 -0.1 -16.45 0.0 -18.95 0.1 -20.9 0.15 -22.95 M5.1 -22.85 L5.75 -22.85 6.05 -22.85 5.75 -22.9 7.1 -22.9 7.05 -20.9 7.0 -18.9 6.95 -15.85 4.95 -15.9 5.1 -22.85 M21.25 -24.7 L22.0 -24.85 23.25 -25.1 23.5 -17.65 21.5 -17.6 21.4 -20.1 21.35 -22.1 21.25 -24.7 M26.0 -25.8 L27.95 -26.55 28.05 -23.6 28.15 -21.55 28.25 -18.15 28.2 -18.15 28.2 -17.95 28.0 -17.2 Q27.7 -16.85 27.3 -16.8 26.9 -16.75 26.6 -17.0 26.25 -17.3 26.2 -17.75 L26.1 -19.0 26.2 -19.05 26.0 -25.8 M-2.85 -19.05 L-1.85 -19.0 Q-3.25 -12.55 -2.95 -7.75 8.6 -3.0 26.65 -3.6 L26.65 -4.1 Q26.65 -4.55 26.95 -4.85 27.25 -5.15 27.65 -5.15 L28.35 -4.85 28.65 -4.1 28.65 -3.1 28.65 -3.05 28.55 -0.9 28.25 -0.2 27.5 0.1 Q27.1 0.05 26.8 -0.25 26.55 -0.6 26.55 -1.05 L26.65 -2.5 Q8.1 -1.9 -3.6 -6.85 L-3.9 -7.0 -3.95 -7.35 Q-4.3 -12.3 -2.85 -19.05 M26.8 -13.2 Q27.05 -13.55 27.5 -13.55 L28.2 -13.3 28.55 -12.6 28.7 -9.4 28.45 -8.65 Q28.15 -8.35 27.75 -8.3 27.3 -8.3 27.05 -8.6 26.7 -8.95 26.7 -9.35 L26.55 -12.4 26.8 -13.2 M23.25 19.8 L23.8 20.35 23.8 21.2 22.5 24.1 21.95 24.7 21.2 24.6 20.65 24.0 Q20.5 23.6 20.7 23.2 L21.95 20.35 Q22.1 19.95 22.5 19.8 22.85 19.6 23.25 19.8 M25.75 11.8 L26.35 12.3 26.45 13.1 25.55 16.15 25.05 16.8 24.3 16.85 23.7 16.3 Q23.5 15.9 23.65 15.55 L24.5 12.55 Q24.6 12.1 24.95 11.9 L25.75 11.8 M26.4 3.6 Q26.7 3.3 27.15 3.35 27.55 3.4 27.8 3.8 L28.0 4.55 27.55 7.8 27.15 8.45 26.4 8.65 Q26.0 8.55 25.75 8.2 25.5 7.85 25.6 7.4 L26.0 4.3 Q26.05 3.85 26.4 3.6" fill="#2c3243" fill-rule="evenodd" stroke="none"/>
    <path d="M-6.65 -5.05 L11.2 0.65 Q16.35 2.5 16.4 8.75 16.45 15.0 11.1 20.35 5.75 25.7 -1.8 26.1 -9.35 26.45 -14.7 20.85 -20.05 15.3 -22.15 7.0 -24.3 -1.3 -22.45 -14.75 -18.85 -10.9 -11.65 -11.85 -4.5 -12.75 -6.65 -5.05" fill="#48536f" fill-rule="evenodd" stroke="none"/>
    <path d="M32.2 -30.6 L32.45 -30.05 33.65 -26.7 Q34.25 -25.05 33.2 -23.95 L32.7 -23.5 32.75 -23.55 Q31.7 -22.75 29.65 -22.0 L28.15 -21.55 28.05 -23.6 Q30.4 -24.3 31.5 -25.1 L31.55 -25.15 Q31.95 -25.5 31.75 -26.05 L31.75 -26.1 30.95 -28.35 31.6 -29.2 32.2 -30.6 M-26.0 -29.15 L-25.8 -31.0 -25.55 -32.45 -24.55 -31.1 -26.0 -29.15 M21.4 -20.1 L14.15 -19.25 14.1 -19.25 7.0 -18.9 7.05 -20.9 13.95 -21.25 14.0 -21.25 14.9 -21.3 21.35 -22.1 21.4 -20.1 M0.1 -20.9 L0.0 -18.95 -1.85 -19.0 -2.85 -19.05 -4.75 -19.15 Q-4.05 -20.0 -3.65 -21.05 L0.1 -20.9" fill="#3e3024" fill-rule="evenodd" stroke="none"/>
    <path d="M17.5 -29.1 L20.35 -24.55 21.25 -24.7 21.35 -22.1 14.9 -21.3 Q16.6 -23.8 17.5 -29.1 M27.95 -26.55 L28.1 -26.6 Q29.25 -27.1 30.3 -27.85 L30.95 -28.35 31.75 -26.1 31.75 -26.05 Q31.95 -25.5 31.55 -25.15 L31.5 -25.1 Q30.4 -24.3 28.05 -23.6 L27.95 -26.55" fill="#513e2f" fill-rule="evenodd" stroke="none"/>
    <path d="M-25.8 -22.6 Q-26.95 -24.85 -26.4 -27.05 -26.65 -27.35 -26.5 -27.55 L-26.45 -27.8 -26.0 -29.15 -24.55 -31.1 -23.55 -30.1 -23.1 -29.7 -24.05 -28.45 -24.3 -27.9 -24.15 -27.75 -24.35 -27.05 -24.55 -25.95 -24.55 -25.9 -24.55 -25.85 Q-24.6 -24.15 -23.3 -22.4 L-22.95 -22.0 -22.95 -21.95 Q-20.65 -19.2 -16.65 -18.1 L-13.55 -17.7 -13.5 -17.7 -12.75 -17.7 Q-10.95 -17.8 -9.25 -18.4 -8.3 -18.8 -7.5 -19.35 -6.4 -20.1 -5.8 -21.2 L-5.35 -22.3 -5.2 -23.25 -3.2 -23.05 -3.4 -21.8 -3.65 -21.05 Q-4.05 -20.0 -4.75 -19.15 -6.05 -17.55 -8.5 -16.55 L-8.55 -16.55 Q-10.9 -15.65 -13.55 -15.7 L-17.15 -16.15 Q-21.65 -17.35 -24.3 -20.45 L-24.5 -20.7 -25.8 -22.6 M5.75 -22.85 L5.75 -22.9 6.05 -22.85 5.75 -22.85" fill="#333333" fill-rule="evenodd" stroke="none"/>
    <path d="M-23.1 -29.7 Q-19.6 -26.8 -15.35 -25.3 -11.35 -24.0 -7.15 -23.45 L-5.95 -23.4 -5.2 -23.25 -5.35 -22.3 -5.8 -21.2 Q-6.4 -20.1 -7.5 -19.35 -8.3 -18.8 -9.25 -18.4 -10.95 -17.8 -12.75 -17.7 -12.15 -18.8 -12.45 -19.85 -12.7 -20.75 -13.55 -21.65 L-14.3 -22.15 Q-19.3 -25.6 -24.3 -27.05 L-24.35 -27.05 -24.15 -27.75 -24.3 -27.9 -24.05 -28.45 -23.1 -29.7" fill="#a4a4a4" fill-rule="evenodd" stroke="none"/>
    <path d="M-24.35 -27.05 L-24.3 -27.05 Q-19.3 -25.6 -14.3 -22.15 L-13.55 -21.65 Q-12.7 -20.75 -12.45 -19.85 -12.15 -18.8 -12.75 -17.7 L-13.5 -17.7 -13.55 -17.7 -16.65 -18.1 Q-20.65 -19.2 -22.95 -21.95 L-22.95 -22.0 -23.3 -22.4 Q-24.6 -24.15 -24.55 -25.85 L-24.55 -25.9 -24.55 -25.95 -24.35 -27.05" fill="#cccccc" fill-rule="evenodd" stroke="none"/>
    <path d="M-25.55 -32.45 L-25.65 -32.6 -25.95 -33.6 Q-25.95 -34.95 -25.55 -36.25 L-24.55 -40.45 -23.0 -47.6 -21.75 -54.0 Q-21.1 -57.55 -20.6 -61.05 L-19.5 -68.65 -18.55 -76.95 Q-22.0 -79.85 -24.55 -83.5 -26.55 -86.35 -26.45 -89.65 -26.4 -92.4 -25.5 -94.85 L-23.7 -99.0 -20.1 -106.55 Q-18.25 -110.5 -16.7 -114.5 L-14.55 -120.2 -12.35 -125.9 -13.95 -127.85 -13.5 -129.9 -13.7 -129.45 Q-12.75 -132.0 -11.2 -134.3 -8.45 -138.25 -4.85 -141.6 -2.7 -143.6 0.25 -144.35 L3.8 -144.8 Q6.5 -144.5 9.0 -142.95 L11.8 -141.25 Q14.6 -139.35 16.2 -136.35 16.05 -132.65 16.25 -128.9 16.35 -126.95 16.7 -125.0 L19.85 -106.9 21.95 -96.45 23.35 -90.1 Q27.35 -71.5 30.15 -52.8 L31.7 -42.45 32.4 -38.25 32.75 -36.3 32.95 -34.95 33.1 -34.3 Q33.65 -32.5 32.4 -31.1 L32.25 -30.85 32.2 -30.6 31.6 -29.2 30.95 -28.35 30.3 -27.85 Q29.25 -27.1 28.1 -26.6 L27.95 -26.55 26.0 -25.8 25.2 -25.55 23.25 -25.1 22.0 -24.85 21.25 -24.7 20.35 -24.55 17.5 -29.1 14.95 -33.15 10.15 -23.0 7.1 -22.9 5.75 -22.9 5.75 -22.85 5.1 -22.85 2.2 -22.9 0.15 -22.95 -1.75 -23.0 -3.2 -23.05 -5.2 -23.25 -5.95 -23.4 -7.15 -23.45 Q-11.35 -24.0 -15.35 -25.3 -19.6 -26.8 -23.1 -29.7 L-23.55 -30.1 -24.55 -31.1 -25.55 -32.45 M4.45 -140.4 Q6.4 -140.35 7.45 -139.0 L7.85 -138.25 7.85 -137.2 Q7.35 -135.1 6.35 -133.1 L3.75 -128.45 Q5.5 -129.1 6.6 -127.8 L6.8 -127.7 11.3 -121.3 14.65 -135.1 Q13.6 -137.25 11.5 -139.0 8.65 -141.3 5.05 -142.1 L2.0 -142.7 Q-0.5 -142.4 -2.7 -140.9 -5.3 -139.15 -7.4 -136.8 L-11.4 -131.95 -12.0 -131.1 Q-13.15 -129.5 -12.6 -127.8 L-11.35 -127.55 -10.3 -126.7 Q-9.4 -130.1 -7.55 -132.95 -5.6 -136.05 -2.65 -138.15 -0.65 -139.65 1.85 -140.15 L4.45 -140.4 M-7.2 -111.6 L-6.1 -114.25 -3.95 -118.05 -3.35 -118.9 -0.45 -123.3 2.75 -128.3 Q4.7 -131.6 5.6 -135.35 L6.1 -137.55 5.7 -138.1 4.45 -138.4 Q0.0 -138.35 -3.1 -135.15 -4.6 -133.6 -5.75 -131.85 -6.95 -130.05 -7.7 -128.05 L-9.2 -123.6 -9.5 -122.1 Q-9.75 -119.75 -10.5 -117.5 L-11.75 -113.1 -13.45 -104.45 Q-14.0 -101.35 -14.15 -98.15 -11.15 -103.55 -8.45 -109.05 L-7.2 -111.6 M5.5 -127.0 L4.1 -126.5 1.3 -122.2 1.3 -122.15 -0.85 -119.05 Q-3.6 -115.35 -5.35 -110.85 -6.55 -107.7 -8.05 -104.85 -10.85 -99.5 -14.25 -94.4 L-14.7 -93.95 -15.3 -91.2 -15.3 -91.15 -15.25 -91.2 Q-15.6 -86.3 -14.0 -81.75 -13.0 -78.75 -11.45 -76.05 -11.95 -66.7 -13.35 -57.25 L-13.75 -54.45 -14.45 -49.75 -14.6 -48.8 -16.3 -38.25 -16.8 -35.6 -17.1 -33.9 -17.5 -31.9 -18.0 -29.5 -14.55 -28.55 -5.65 -27.15 4.45 -26.65 8.7 -26.8 14.7 -35.9 20.9 -28.2 24.45 -29.1 24.5 -29.1 24.45 -29.05 24.5 -29.05 25.85 -29.65 27.85 -30.45 28.35 -30.65 29.15 -30.9 29.8 -31.25 Q30.8 -31.95 31.15 -33.05 L31.25 -33.5 29.85 -33.65 Q28.8 -35.8 28.55 -38.35 L28.55 -38.65 27.7 -45.9 25.75 -61.35 25.15 -66.25 21.9 -87.25 20.75 -92.8 13.65 -125.05 12.0 -120.35 11.7 -120.2 11.3 -120.2 11.05 -120.35 10.7 -120.55 5.5 -127.0 M-21.65 -31.0 L-18.85 -29.75 -18.45 -31.8 -18.1 -33.85 -17.3 -38.25 -15.75 -47.2 -14.95 -52.8 -14.6 -55.45 -14.0 -60.45 -13.4 -65.5 -12.9 -70.55 -12.4 -75.6 Q-14.65 -79.25 -15.55 -83.4 L-16.25 -87.3 -16.3 -89.3 -16.25 -91.3 -16.25 -91.45 -15.7 -94.15 -15.9 -94.5 -16.1 -96.45 Q-16.2 -99.25 -15.75 -102.2 L-15.45 -104.5 -11.3 -123.2 -16.0 -110.95 Q-17.1 -108.25 -18.45 -105.7 L-21.15 -100.45 -23.5 -94.65 Q-24.25 -92.3 -24.35 -89.85 -24.45 -88.2 -23.85 -86.65 -23.2 -84.8 -22.0 -83.2 L-18.85 -79.6 -16.75 -77.85 Q-16.85 -71.2 -17.95 -64.65 L-19.75 -53.7 Q-20.55 -48.8 -21.65 -44.15 L-22.75 -39.6 -23.5 -36.25 -23.65 -35.5 -23.9 -34.6 -24.0 -33.55 Q-23.95 -32.85 -23.5 -32.25 L-23.35 -32.05 -22.65 -31.55 -21.65 -31.0" fill="#4d2020" fill-rule="evenodd" stroke="none"/>
    <path d="M4.45 -140.4 L1.85 -140.15 Q-0.65 -139.65 -2.65 -138.15 -5.6 -136.05 -7.55 -132.95 -9.4 -130.1 -10.3 -126.7 L-11.35 -127.55 -12.6 -127.8 Q-13.15 -129.5 -12.0 -131.1 L-11.4 -131.95 -7.4 -136.8 Q-5.3 -139.15 -2.7 -140.9 -0.5 -142.4 2.0 -142.7 L5.05 -142.1 Q8.65 -141.3 11.5 -139.0 13.6 -137.25 14.65 -135.1 L11.3 -121.3 6.8 -127.7 6.6 -127.8 Q5.5 -129.1 3.75 -128.45 L6.35 -133.1 Q7.35 -135.1 7.85 -137.2 L7.85 -138.25 7.45 -139.0 Q6.4 -140.35 4.45 -140.4 M-0.3 -110.1 L0.6 -110.5 Q5.55 -112.3 3.2 -107.15 L-0.1 -99.5 -1.3 -99.6 -0.3 -110.1 M6.05 -97.6 L7.7 -97.35 Q8.95 -96.8 8.65 -94.9 8.25 -92.8 5.95 -90.15 L4.5 -88.6 -1.9 -88.75 -1.85 -90.45 -0.3 -92.4 2.1 -95.2 5.9 -96.35 6.05 -97.6 M24.5 -29.05 L24.45 -29.05 24.5 -29.1 24.5 -29.05 M13.5 -79.15 L12.2 -79.15 Q7.15 -79.3 -0.9 -81.1 L-1.5 -81.25 -1.9 -84.0 9.5 -84.3 13.1 -82.85 13.5 -79.15 M1.15 -70.85 L6.45 -70.4 Q11.15 -69.15 14.55 -64.65 L14.75 -60.0 Q12.15 -59.25 9.0 -58.65 L5.0 -58.05 2.1 -57.75 2.0 -59.05 1.85 -61.15 1.15 -70.85 M-3.0 -71.1 L-3.35 -61.2 -3.45 -59.15 -3.55 -57.3 -8.3 -57.15 -10.9 -57.1 -10.9 -57.65 -10.9 -60.1 Q-11.0 -64.6 -10.6 -68.95 L-10.1 -71.55 Q-9.9 -72.4 -9.35 -73.1 L-8.45 -74.35 -8.3 -74.15 Q-5.95 -71.65 -3.0 -71.1 M-12.25 -49.35 L-3.95 -50.1 -5.15 -32.9 -8.05 -33.35 Q-16.85 -34.75 -12.35 -37.95 -7.8 -41.2 -13.15 -46.4 L-12.25 -49.35 M4.0 -32.5 L3.85 -34.9 3.7 -36.9 2.6 -50.95 Q9.25 -52.05 14.05 -53.55 L14.9 -53.85 14.9 -52.95 14.95 -47.75 Q13.45 -44.4 12.35 -38.75 11.45 -34.25 7.4 -33.05 L6.05 -32.75 5.4 -32.65 4.0 -32.5 M-3.5 -108.45 L-5.15 -100.05 -7.0 -100.25 -7.3 -98.05 -5.75 -96.45 -6.7 -89.05 -11.85 -89.45 -11.65 -93.05 -11.3 -96.35 Q-9.7 -97.95 -8.05 -100.9 L-7.85 -101.2 Q-6.4 -103.9 -4.85 -107.65 L-3.5 -108.45 M-11.15 -81.85 L-11.7 -84.15 -6.9 -84.05 -6.7 -82.3 -9.3 -82.65 Q-10.55 -82.55 -11.15 -81.85" fill="#ebe0bc" fill-rule="evenodd" stroke="none"/>
    <path d="M-5.75 -131.85 Q-4.6 -133.6 -3.1 -135.15 0.0 -138.35 4.45 -138.4 L5.7 -138.1 6.1 -137.55 5.6 -135.35 Q4.7 -131.6 2.75 -128.3 L-0.45 -123.3 -3.35 -118.9 -3.95 -118.05 -6.1 -114.25 -7.2 -111.6 Q-9.7 -107.75 -12.25 -105.05 -9.6 -119.3 -5.75 -131.85" fill="#f1ba87" fill-rule="evenodd" stroke="none"/>
    <path d="M1.3 -122.15 L1.3 -122.2 4.1 -126.5 5.5 -127.0 Q10.05 -108.0 12.45 -88.9 L4.5 -88.6 5.95 -90.15 Q8.25 -92.8 8.65 -94.9 8.95 -96.8 7.7 -97.35 L6.05 -97.6 6.2 -98.8 -0.1 -99.5 3.2 -107.15 Q5.55 -112.3 0.6 -110.5 L-0.3 -110.1 Q0.35 -115.9 1.3 -122.15 M10.7 -120.55 L11.05 -120.35 11.3 -120.2 11.7 -120.2 12.0 -120.35 13.65 -125.05 20.75 -92.8 20.7 -92.8 Q20.65 -90.55 16.2 -89.5 13.65 -105.25 10.7 -120.55 M21.9 -87.25 L25.15 -66.25 Q23.55 -63.95 20.3 -62.2 L16.95 -85.05 Q21.55 -85.85 21.9 -87.25 M25.75 -61.35 L27.7 -45.9 28.55 -38.65 28.55 -38.35 Q28.8 -35.8 29.85 -33.65 L31.25 -33.5 31.15 -33.05 Q30.8 -31.95 29.8 -31.25 L29.15 -30.9 28.35 -30.65 27.85 -30.45 25.85 -29.65 24.5 -29.05 24.5 -29.1 24.45 -29.1 24.05 -32.65 23.85 -34.65 22.55 -45.3 22.05 -49.15 21.05 -56.65 Q24.45 -58.75 25.75 -61.35 M14.7 -35.9 L8.7 -26.8 4.45 -26.65 4.0 -32.5 5.4 -32.65 6.05 -32.75 7.4 -33.05 Q11.45 -34.25 12.35 -38.75 13.45 -44.4 14.95 -47.75 L14.7 -35.9 M-5.65 -27.15 L-14.55 -28.55 Q-15.25 -30.0 -15.3 -31.85 L-15.25 -33.85 -15.05 -35.55 -14.05 -41.65 -13.15 -46.4 Q-7.8 -41.2 -12.35 -37.95 -16.85 -34.75 -8.05 -33.35 L-5.15 -32.9 -5.45 -29.1 -5.65 -27.15 M2.1 -95.2 L-0.3 -92.4 -1.85 -90.45 -1.65 -94.55 -0.55 -94.4 2.1 -95.2 M13.5 -79.15 L14.55 -64.65 Q11.15 -69.15 6.45 -70.4 L1.15 -70.85 0.65 -77.4 Q-0.9 -78.85 -1.5 -81.25 L-0.9 -81.1 Q7.15 -79.3 12.2 -79.15 L13.5 -79.15 M-6.7 -82.3 L-6.35 -81.0 Q-6.1 -78.75 -2.85 -76.2 L-3.0 -71.1 Q-5.95 -71.65 -8.3 -74.15 L-8.45 -74.35 -8.4 -74.45 Q-7.7 -75.2 -8.1 -76.1 L-9.8 -79.05 -10.9 -81.15 -11.15 -81.85 Q-10.55 -82.55 -9.3 -82.65 L-6.7 -82.3 M-21.65 -31.0 L-22.65 -31.55 -23.35 -32.05 -23.5 -32.25 Q-23.95 -32.85 -24.0 -33.55 L-23.9 -34.6 -23.65 -35.5 -23.5 -36.25 -22.75 -39.6 -21.65 -44.15 Q-20.55 -48.8 -19.75 -53.7 L-17.95 -64.65 Q-16.85 -71.2 -16.75 -77.85 L-18.85 -79.6 -22.0 -83.2 Q-23.2 -84.8 -23.85 -86.65 -24.45 -88.2 -24.35 -89.85 -24.25 -92.3 -23.5 -94.65 L-21.15 -100.45 -18.45 -105.7 Q-17.1 -108.25 -16.0 -110.95 L-11.3 -123.2 -15.45 -104.5 Q-20.15 -94.9 -18.55 -86.8 -16.7 -77.55 -14.75 -77.1 -14.3 -66.45 -18.4 -48.95 L-19.8 -42.8 -21.25 -35.75 -21.65 -32.95 Q-21.85 -31.4 -21.65 -31.0" fill="#dcca8d" fill-rule="evenodd" stroke="none"/>
    <path d="M1.3 -122.15 Q0.35 -115.9 -0.3 -110.1 L-3.5 -108.45 -1.9 -115.7 -0.85 -119.05 1.3 -122.15 M4.5 -88.6 L12.45 -88.9 Q10.05 -108.0 5.5 -127.0 L10.7 -120.55 Q13.65 -105.25 16.2 -89.5 20.65 -90.55 20.7 -92.8 L20.75 -92.8 21.9 -87.25 Q21.55 -85.85 16.95 -85.05 L20.3 -62.2 Q23.55 -63.95 25.15 -66.25 L25.75 -61.35 Q24.45 -58.75 21.05 -56.65 L22.05 -49.15 22.55 -45.3 23.85 -34.65 24.05 -32.65 24.45 -29.1 20.9 -28.2 14.7 -35.9 14.95 -47.75 16.2 -50.15 16.95 -51.4 17.7 -53.35 Q18.85 -57.75 15.85 -62.7 L14.55 -64.65 13.5 -79.15 Q18.1 -79.25 15.15 -81.55 L13.1 -82.85 12.95 -84.55 9.5 -84.3 6.7 -84.9 1.55 -85.1 Q1.4 -85.3 4.5 -88.6 M4.45 -26.65 L-5.65 -27.15 -5.45 -29.1 -5.15 -32.9 0.55 -32.45 2.55 -32.45 4.0 -32.5 4.45 -26.65 M-1.5 -81.25 Q-0.9 -78.85 0.65 -77.4 L1.15 -70.85 -1.5 -70.95 -3.0 -71.1 -2.85 -76.2 Q-6.1 -78.75 -6.35 -81.0 L-6.7 -82.3 -1.5 -81.25" fill="#a6c4a6" fill-rule="evenodd" stroke="none"/>
    <path d="M-1.85 -90.45 L-1.9 -88.75 4.5 -88.6 Q1.4 -85.3 1.55 -85.1 L6.7 -84.9 9.5 -84.3 -1.9 -84.0 -1.5 -81.25 -6.7 -82.3 -6.9 -84.05 -11.7 -84.15 -11.8 -85.05 -11.85 -89.45 -6.7 -89.05 -5.75 -96.45 -4.25 -94.9 -1.65 -94.55 -1.85 -90.45 M13.1 -82.85 L15.15 -81.55 Q18.1 -79.25 13.5 -79.15 L13.1 -82.85 M14.55 -64.65 L15.85 -62.7 Q18.85 -57.75 17.7 -53.35 L16.95 -51.4 16.2 -50.15 14.95 -47.75 14.9 -52.95 14.9 -53.85 14.05 -53.55 Q9.25 -52.05 2.6 -50.95 L3.7 -36.9 3.85 -34.9 4.0 -32.5 2.55 -32.45 0.55 -32.45 -5.15 -32.9 -3.95 -50.1 -12.25 -49.35 -11.85 -50.45 Q-11.4 -51.6 -11.25 -52.7 L-11.05 -54.65 -10.9 -57.1 -8.3 -57.15 -3.55 -57.3 -3.45 -59.15 -3.35 -61.2 -3.0 -71.1 -1.5 -70.95 1.15 -70.85 1.85 -61.15 2.0 -59.05 2.1 -57.75 5.0 -58.05 9.0 -58.65 Q12.15 -59.25 14.75 -60.0 L14.55 -64.65 M-3.5 -108.45 L-0.3 -110.1 -1.3 -99.6 -5.15 -100.05 -3.5 -108.45" fill="#cbdccb" fill-rule="evenodd" stroke="none"/>
    <path d="M9.5 -84.3 L12.95 -84.55 13.1 -82.85 9.5 -84.3 M-3.5 -108.45 L-4.85 -107.65 Q-3.4 -111.2 -1.9 -115.7 L-3.5 -108.45" fill="#e1d29d" fill-rule="evenodd" stroke="none"/>
    <path d="M-0.1 -99.5 L6.2 -98.8 6.05 -97.6 5.9 -96.35 2.1 -95.2 -0.55 -94.4 -1.65 -94.55 -4.25 -94.9 -5.75 -96.45 -7.3 -98.05 -7.0 -100.25 -5.15 -100.05 -1.3 -99.6 -0.1 -99.5 M-14.55 -28.55 L-18.0 -29.5 -17.5 -31.9 -17.1 -33.9 -16.8 -35.6 -16.3 -38.25 -14.6 -48.8 -14.45 -49.75 -13.75 -54.45 -13.35 -57.25 Q-11.95 -66.7 -11.45 -76.05 -13.0 -78.75 -14.0 -81.75 -15.6 -86.3 -15.25 -91.2 L-15.3 -91.2 -14.7 -93.95 -14.25 -94.4 Q-10.85 -99.5 -8.05 -104.85 -6.55 -107.7 -5.35 -110.85 -3.6 -115.35 -0.85 -119.05 L-1.9 -115.7 Q-3.4 -111.2 -4.85 -107.65 -6.4 -103.9 -7.85 -101.2 L-8.05 -100.9 Q-9.7 -97.95 -11.3 -96.35 L-11.65 -93.05 -11.85 -89.45 -11.8 -85.05 -11.7 -84.15 -11.15 -81.85 -10.9 -81.15 -9.8 -79.05 -8.1 -76.1 Q-7.7 -75.2 -8.4 -74.45 L-8.45 -74.35 -9.35 -73.1 Q-9.9 -72.4 -10.1 -71.55 L-10.6 -68.95 Q-11.0 -64.6 -10.9 -60.1 L-10.9 -57.65 -10.9 -57.1 -11.05 -54.65 -11.25 -52.7 Q-11.4 -51.6 -11.85 -50.45 L-12.25 -49.35 -13.15 -46.4 -14.05 -41.65 -15.05 -35.55 -15.25 -33.85 -15.3 -31.85 Q-15.25 -30.0 -14.55 -28.55 M-15.45 -104.5 L-15.75 -102.2 Q-16.2 -99.25 -16.1 -96.45 L-15.9 -94.5 -15.7 -94.15 -16.25 -91.45 -16.25 -91.3 -16.3 -89.3 -16.25 -87.3 -15.55 -83.4 Q-14.65 -79.25 -12.4 -75.6 L-12.9 -70.55 -13.4 -65.5 -14.0 -60.45 -14.6 -55.45 -14.95 -52.8 -15.75 -47.2 -17.3 -38.25 -18.1 -33.85 -18.45 -31.8 -18.85 -29.75 -21.65 -31.0 Q-21.85 -31.4 -21.65 -32.95 L-21.25 -35.75 -19.8 -42.8 -18.4 -48.95 Q-14.3 -66.45 -14.75 -77.1 -16.7 -77.55 -18.55 -86.8 -20.15 -94.9 -15.45 -104.5" fill="#783227" fill-rule="evenodd" stroke="none"/>
    <path d="M-5.75 -131.85 Q-9.6 -119.3 -12.25 -105.05 -9.7 -107.75 -7.2 -111.6 L-8.45 -109.05 Q-11.15 -103.55 -14.15 -98.15 -14.0 -101.35 -13.45 -104.45 L-11.75 -113.1 -10.5 -117.5 Q-9.75 -119.75 -9.5 -122.1 L-9.2 -123.6 -7.7 -128.05 Q-6.95 -130.05 -5.75 -131.85" fill="#db9c64" fill-rule="evenodd" stroke="none"/>
  </g>
</svg>
