<?xml version="1.0" encoding="UTF-8" standalone="no"?>
<svg xmlns:ffdec="https://www.free-decompiler.com/flash" xmlns:xlink="http://www.w3.org/1999/xlink" ffdec:objectType="shape" height="120.45px" width="139.9px" xmlns="http://www.w3.org/2000/svg">
  <g transform="matrix(1.0, 0.0, 0.0, 1.0, 51.8, 43.65)">
    <path d="M-16.3 -7.05 L-14.8 -14.45 Q-12.85 -22.75 -10.1 -30.85 -9.05 -32.35 -7.05 -33.85 -4.55 -35.75 -2.55 -30.6 -1.85 -28.8 1.45 -31.15 7.15 -35.2 9.95 -36.35 14.75 -38.35 19.25 -36.9 21.1 -36.3 28.2 -32.35 33.4 -29.45 31.95 -25.55 30.4 -21.4 19.95 -11.85 L19.65 -11.55 Q1.2 -12.35 -16.3 -7.05 M2.9 -0.4 L-0.65 1.0 Q-9.6 4.3 -15.05 3.15 L-15.65 2.9 Q-14.15 2.35 -12.6 1.95 -5.0 0.05 2.9 -0.4 M-27.0 6.15 Q-31.4 6.0 -36.05 6.35 -41.05 6.95 -45.8 8.2 L-48.05 8.45 -49.35 8.3 Q-50.9 6.25 -49.95 4.0 -49.1 2.0 -47.3 1.1 -45.75 0.5 -44.15 0.55 L-40.85 0.8 -36.85 1.9 Q-31.7 3.7 -27.0 6.15" fill="#9d7a5e" fill-rule="evenodd" stroke="none"/>
    <path d="M-48.2 10.6 L-37.9 8.4 -35.0 8.0 -30.1 7.9 -24.6 8.4 -18.05 8.75 -7.55 7.9 Q-1.7 7.05 3.85 5.15 9.4 3.3 14.45 0.5 L16.95 -1.0 24.2 -4.8 31.6 -8.5 Q35.5 -10.5 39.65 -11.8 43.7 -13.2 47.95 -13.85 L53.9 -14.75 Q57.9 -15.05 61.9 -14.55 66.5 -13.95 70.6 -11.95 74.4 -10.2 77.35 -7.15 L80.05 -3.8 82.35 -0.1 Q83.8 2.55 84.0 5.65 84.35 10.75 82.2 15.3 81.0 17.9 79.15 20.05 77.05 22.55 74.3 24.15 80.6 12.3 70.75 2.2 61.7 -7.2 48.45 -6.35 38.05 -6.3 28.35 -2.7 L8.65 4.65 Q-1.9 8.45 -12.8 9.9 -24.95 10.55 -29.8 9.85 L-48.2 10.6 M19.65 -11.55 L19.95 -11.85 Q30.4 -21.4 31.95 -25.55 33.4 -29.45 28.2 -32.35 21.1 -36.3 19.25 -36.9 14.75 -38.35 9.95 -36.35 7.15 -35.2 1.45 -31.15 -1.85 -28.8 -2.55 -30.6 -4.55 -35.75 -7.05 -33.85 -9.05 -32.35 -10.1 -30.85 -12.85 -22.75 -14.8 -14.45 L-16.3 -7.05 -18.8 -6.3 Q-17.25 -18.15 -13.6 -29.55 -12.3 -33.55 -8.45 -35.15 2.5 -39.7 13.4 -40.3 24.3 -40.95 29.95 -39.25 35.6 -37.55 41.15 -32.7 46.7 -27.85 47.05 -16.8 L46.5 -16.55 Q35.0 -11.1 22.75 -11.4 L19.65 -11.55 M7.55 -2.75 L2.35 -2.4 -2.4 -2.05 -6.75 -1.45 Q-11.8 -0.35 -16.6 1.3 -17.1 -0.65 -16.65 -4.65 -12.55 -6.35 -8.3 -7.4 L-5.8 -7.95 -3.05 -8.35 Q7.25 -9.9 17.6 -9.8 12.7 -5.7 7.55 -2.75 M2.9 -0.4 Q7.3 -0.7 11.75 -0.55 3.4 3.9 -5.75 6.15 -12.85 7.65 -20.05 5.95 L-19.7 4.65 Q-17.75 3.65 -15.65 2.9 L-15.05 3.15 Q-9.6 4.3 -0.65 1.0 L2.9 -0.4" fill="#735944" fill-rule="evenodd" stroke="none"/>
    <path d="M11.85 7.65 Q1.95 9.65 -7.8 12.3 -12.7 13.5 -17.8 13.7 L-19.15 21.9 -20.1 22.0 Q-32.7 14.15 -47.85 12.1 -50.3 11.7 -51.15 9.25 -53.35 3.0 -47.9 -0.45 -44.15 -2.85 -39.75 -0.7 -31.2 3.5 -22.1 5.7 -20.9 -13.6 -14.85 -31.95 -13.4 -36.35 -9.05 -37.75 1.75 -41.25 13.15 -42.8 L25.5 -43.65 31.7 -42.9 Q44.35 -39.5 48.35 -26.9 49.9 -22.15 50.6 -17.15 67.85 -19.2 80.35 -8.3 85.7 -3.65 87.45 2.95 89.6 10.85 84.65 17.4 77.65 26.65 67.4 28.7 L67.1 26.9 Q69.65 26.35 72.1 25.25 L74.3 24.15 Q77.05 22.55 79.15 20.05 81.0 17.9 82.2 15.3 84.35 10.75 84.0 5.65 83.8 2.55 82.35 -0.1 L80.05 -3.8 77.35 -7.15 Q74.4 -10.2 70.6 -11.95 66.5 -13.95 61.9 -14.55 57.9 -15.05 53.9 -14.75 L47.95 -13.85 Q43.7 -13.2 39.65 -11.8 35.5 -10.5 31.6 -8.5 L24.2 -4.8 16.95 -1.0 14.45 0.5 Q9.4 3.3 3.85 5.15 -1.7 7.05 -7.55 7.9 L-18.05 8.75 -24.6 8.4 -30.1 7.9 -35.0 8.0 -37.9 8.4 -48.2 10.6 -38.95 11.35 -25.5 12.0 -13.25 10.8 6.3 7.25 14.05 5.35 Q23.65 2.95 33.65 2.65 41.8 2.45 49.5 3.85 L52.95 4.95 Q56.4 5.95 59.25 7.95 61.25 9.35 62.7 11.3 63.45 12.3 63.5 13.65 L63.5 15.75 Q61.85 12.1 59.6 8.7 L59.45 8.45 59.15 8.35 Q53.6 5.85 47.7 4.35 42.1 2.95 36.15 2.7 L24.55 3.45 24.55 3.5 Q18.55 4.5 12.9 6.55 L11.25 7.2 11.85 7.65 M19.65 -11.55 L22.75 -11.4 Q35.0 -11.1 46.5 -16.55 L47.05 -16.8 Q46.7 -27.85 41.15 -32.7 35.6 -37.55 29.95 -39.25 24.3 -40.95 13.4 -40.3 2.5 -39.7 -8.45 -35.15 -12.3 -33.55 -13.6 -29.55 -17.25 -18.15 -18.8 -6.3 L-16.3 -7.05 Q1.2 -12.35 19.65 -11.55 M-16.6 1.3 Q-11.8 -0.35 -6.75 -1.45 L-2.4 -2.05 2.35 -2.4 7.55 -2.75 15.15 -4.2 Q22.0 -5.85 28.45 -9.25 L17.6 -9.8 Q7.25 -9.9 -3.05 -8.35 L-5.8 -7.95 -8.3 -7.4 Q-12.55 -6.35 -16.65 -4.65 L-19.15 -3.55 -19.45 2.3 -16.6 1.3 M-15.65 2.9 Q-17.75 3.65 -19.7 4.65 L-20.05 5.95 Q-12.85 7.65 -5.75 6.15 3.4 3.9 11.75 -0.55 7.3 -0.7 2.9 -0.4 -5.0 0.05 -12.6 1.95 -14.15 2.35 -15.65 2.9 M-20.7 18.65 L-19.85 13.75 -32.35 13.85 -25.4 16.05 -20.7 18.65 M-27.0 6.15 Q-31.7 3.7 -36.85 1.9 L-40.85 0.8 -44.15 0.55 Q-45.75 0.5 -47.3 1.1 -49.1 2.0 -49.95 4.0 -50.9 6.25 -49.35 8.3 L-48.05 8.45 -45.8 8.2 Q-41.05 6.95 -36.05 6.35 -31.4 6.0 -27.0 6.15" fill="#3e3024" fill-rule="evenodd" stroke="none"/>
    <path d="M63.5 15.75 L63.5 13.65 Q63.45 12.3 62.7 11.3 61.25 9.35 59.25 7.95 56.4 5.95 52.95 4.95 L49.5 3.85 Q41.8 2.45 33.65 2.65 23.65 2.95 14.05 5.35 L6.3 7.25 -13.25 10.8 -25.5 12.0 -38.95 11.35 -48.2 10.6 -29.8 9.85 Q-24.95 10.55 -12.8 9.9 -1.9 8.45 8.65 4.65 L28.35 -2.7 Q38.05 -6.3 48.45 -6.35 61.7 -7.2 70.75 2.2 80.6 12.3 74.3 24.15 L72.1 25.25 Q69.65 26.35 67.1 26.9 66.4 23.65 65.3 20.4 L63.5 15.75 M-16.6 1.3 L-19.45 2.3 -19.15 -3.55 -16.65 -4.65 Q-17.1 -0.65 -16.6 1.3 M17.6 -9.8 L28.45 -9.25 Q22.0 -5.85 15.15 -4.2 L7.55 -2.75 Q12.7 -5.7 17.6 -9.8 M-20.7 18.65 L-25.4 16.05 -32.35 13.85 -19.85 13.75 -20.7 18.65" fill="#513e2f" fill-rule="evenodd" stroke="none"/>
    <path d="M67.4 28.7 Q69.25 39.65 66.15 50.65 61.85 65.8 49.85 75.05 L47.7 76.8 47.45 76.65 48.3 73.95 Q58.75 43.9 43.65 21.4 46.5 35.85 34.55 54.2 L33.05 56.6 32.7 56.5 32.7 53.65 Q33.3 23.65 12.65 8.3 L11.85 7.65 11.25 7.2 12.9 6.55 Q18.55 4.5 24.55 3.5 L24.55 3.45 36.15 2.7 Q42.1 2.95 47.7 4.35 53.6 5.85 59.15 8.35 L59.45 8.45 59.6 8.7 Q61.85 12.1 63.5 15.75 L65.3 20.4 Q66.4 23.65 67.1 26.9 L67.4 28.7 M49.6 74.2 Q60.55 62.8 63.6 48.65 65.95 37.6 64.45 29.1 L64.05 27.35 63.2 24.45 62.45 22.25 60.6 17.55 Q58.55 12.55 56.55 9.55 52.75 7.7 47.2 6.3 41.8 4.95 36.1 4.7 L36.05 4.7 24.85 5.45 Q19.95 6.25 15.35 7.85 L18.75 10.8 Q34.1 25.6 33.95 52.95 46.1 31.05 39.25 10.25 61.15 39.05 49.55 74.25 L49.6 74.2 M24.85 5.45 L24.9 5.45 24.85 5.45" fill="#5f2c16" fill-rule="evenodd" stroke="none"/>
    <path d="M24.85 5.45 L36.05 4.7 36.1 4.7 Q41.8 4.95 47.2 6.3 52.75 7.7 56.55 9.55 58.55 12.55 60.6 17.55 L62.45 22.25 63.2 24.45 64.05 27.35 64.45 29.1 Q65.95 37.6 63.6 48.65 60.55 62.8 49.6 74.2 60.4 55.55 58.95 38.7 57.45 21.8 39.25 10.25 46.1 31.05 33.95 52.95 37.35 42.0 35.8 29.1 34.25 16.15 18.75 10.8 L15.35 7.85 Q19.95 6.25 24.85 5.45" fill="#ae5128" fill-rule="evenodd" stroke="none"/>
    <path d="M49.6 74.2 L49.55 74.25 Q61.15 39.05 39.25 10.25 57.45 21.8 58.95 38.7 60.4 55.55 49.6 74.2 M33.95 52.95 Q34.1 25.6 18.75 10.8 34.25 16.15 35.8 29.1 37.35 42.0 33.95 52.95 M24.85 5.45 L24.9 5.45 24.85 5.45" fill="#cf6030" fill-rule="evenodd" stroke="none"/>
  </g>
</svg>
