<?xml version="1.0" encoding="UTF-8" standalone="no"?>
<svg xmlns:ffdec="https://www.free-decompiler.com/flash" xmlns:xlink="http://www.w3.org/1999/xlink" ffdec:objectType="shape" height="61.9px" width="41.65px" xmlns="http://www.w3.org/2000/svg">
  <g transform="matrix(1.0, 0.0, 0.0, 1.0, 11.45, 10.2)">
    <path d="M20.65 15.1 L20.75 15.2 20.75 15.25 20.65 15.1" fill="#666666" fill-rule="evenodd" stroke="none"/>
    <path d="M-2.35 13.8 L-1.9 12.8 -1.9 12.75 Q-0.4 9.85 2.85 8.5 6.05 7.1 9.15 7.95 L9.3 8.0 16.75 21.65 17.25 22.45 17.4 22.75 17.9 23.55 18.8 25.2 Q23.35 33.45 28.1 44.5 L26.45 47.4 26.4 47.4 26.15 47.75 25.45 46.15 Q23.05 40.9 20.25 35.7 L15.8 28.25 14.75 26.85 14.05 25.9 14.0 25.9 13.55 25.35 Q10.85 22.25 8.85 22.25 4.85 22.25 4.05 24.0 L4.0 26.2 3.75 25.8 -2.35 13.8" fill="#db9c64" fill-rule="evenodd" stroke="none"/>
    <path d="M4.0 26.2 L4.05 24.0 Q4.85 22.25 8.85 22.25 10.85 22.25 13.55 25.35 L14.0 25.9 14.05 25.9 14.75 26.85 15.8 28.25 20.25 35.7 Q23.05 40.9 25.45 46.15 L26.15 47.75 25.85 48.15 25.8 48.15 Q22.85 50.9 18.45 48.5 L7.0 31.05 6.3 29.95 6.3 29.9 5.45 28.6 5.5 28.6 4.25 26.6 4.0 26.2" fill="#f1ba87" fill-rule="evenodd" stroke="none"/>
    <path d="M-1.1 21.45 L-2.7 16.15 -2.7 16.1 Q-2.8 14.95 -2.35 13.8 L3.75 25.8 4.0 26.2 4.25 26.6 5.5 28.6 5.45 28.6 6.3 29.9 6.3 29.95 7.0 31.05 18.45 48.5 Q22.85 50.9 25.8 48.15 L25.85 48.15 26.15 47.75 26.4 47.4 26.45 47.4 28.1 44.5 Q23.35 33.45 18.8 25.2 L17.9 23.55 17.4 22.75 17.25 22.45 16.75 21.65 9.3 8.0 Q10.35 8.25 11.15 8.75 L11.55 9.05 12.4 10.3 13.95 12.95 14.0 13.0 14.0 13.05 17.9 19.65 18.45 20.6 19.05 21.6 19.1 21.7 19.65 22.6 19.65 22.55 20.55 24.25 Q25.25 32.7 30.15 44.05 L30.15 44.85 28.0 48.6 28.0 48.65 27.4 49.35 27.3 49.45 Q23.35 53.6 17.25 50.15 L16.95 49.8 Q10.25 39.95 5.3 32.1 L4.6 31.0 3.75 29.65 3.75 29.6 2.55 27.65 2.05 26.85 1.55 25.95 -0.35 22.8 -1.1 21.45" fill="#6c3d28" fill-rule="evenodd" stroke="none"/>
    <path d="M-1.1 21.45 L-1.1 21.5 -3.4 19.75 Q-4.9 18.65 -5.65 16.9 L-5.65 16.95 -6.0 15.9 Q-7.25 14.85 -8.0 13.3 -9.8 9.6 -10.9 4.55 L-11.15 3.3 Q-12.45 -2.95 -8.0 -7.25 -3.25 -11.95 0.4 -9.2 L5.1 -5.6 7.65 -3.45 8.95 -2.35 Q12.25 0.8 12.7 3.05 L13.15 6.3 14.3 8.2 14.35 8.2 14.85 10.1 Q15.0 12.65 13.95 12.9 L13.95 12.95 12.4 10.3 11.55 9.05 11.15 8.75 Q10.35 8.25 9.3 8.0 L9.15 7.95 Q6.05 7.1 2.85 8.5 -0.4 9.85 -1.9 12.75 L-1.9 12.8 -2.35 13.8 Q-2.8 14.95 -2.7 16.1 L-2.7 16.15 -1.1 21.45 M-9.2 6.85 L-9.05 7.35 Q-8.35 9.7 -7.5 10.85 L-5.7 13.25 -5.4 11.5 -4.9 10.0 -4.85 9.8 -4.6 9.3 Q-3.25 6.45 0.05 4.2 3.25 1.95 6.6 2.95 L7.5 3.25 7.7 3.3 10.3 4.2 Q10.9 4.35 10.5 2.7 10.1 1.05 6.2 -2.5 L4.7 -3.85 2.45 -5.85 -0.9 -8.7 Q-3.05 -10.4 -5.3 -9.2 -6.5 -8.55 -7.75 -7.05 -9.2 -5.35 -9.85 -3.4 -10.75 -0.7 -10.25 2.5 L-10.15 3.0 -9.2 6.85 M11.15 6.5 L11.15 6.4 Q10.25 5.6 8.75 4.9 L7.3 4.25 7.15 4.2 7.1 4.15 Q3.5 2.35 0.3 4.65 -2.95 6.95 -3.9 9.7 L-4.1 10.3 Q-4.7 12.05 -4.75 13.45 L-4.75 14.35 -4.6 14.5 -4.5 14.05 -3.65 11.85 -3.7 11.85 -3.5 11.5 Q-1.7 8.25 2.05 6.65 5.1 5.3 8.05 5.65 L9.45 5.9 9.7 6.0 9.65 6.0 11.15 6.5" fill="#4d2020" fill-rule="evenodd" stroke="none"/>
    <path d="M-9.0 5.0 L-9.2 6.85 -10.15 3.0 -10.25 2.5 -9.55 1.1 -9.0 5.0 M4.7 -3.85 L2.25 -4.1 0.55 -3.95 -0.95 -5.45 2.3 -5.85 2.45 -5.85 4.7 -3.85" fill="#a6c4a6" fill-rule="evenodd" stroke="none"/>
    <path d="M-9.0 5.0 Q-8.05 9.35 -6.15 8.9 L-5.1 8.3 -3.2 6.05 Q-1.5 3.3 1.25 2.1 2.5 0.95 2.35 -1.15 2.25 -1.85 1.45 -2.9 L0.55 -3.95 2.25 -4.1 4.7 -3.85 6.2 -2.5 Q10.1 1.05 10.5 2.7 10.9 4.35 10.3 4.2 L7.7 3.3 7.5 3.25 6.6 2.95 Q3.25 1.95 0.05 4.2 -3.25 6.45 -4.6 9.3 L-4.85 9.8 -4.9 10.0 -5.4 11.5 -5.7 13.25 -7.5 10.85 Q-8.35 9.7 -9.05 7.35 L-9.2 6.85 -9.0 5.0 M2.45 -5.85 L2.3 -5.85 -0.95 -5.45 -5.3 -9.2 Q-3.05 -10.4 -0.9 -8.7 L2.45 -5.85 M-9.85 -3.4 L-9.55 1.1 -10.25 2.5 Q-10.75 -0.7 -9.85 -3.4" fill="#dcca8d" fill-rule="evenodd" stroke="none"/>
    <path d="M0.55 -3.95 L1.45 -2.9 Q2.25 -1.85 2.35 -1.15 2.5 0.95 1.25 2.1 -1.5 3.3 -3.2 6.05 L-5.1 8.3 -6.15 8.9 Q-8.05 9.35 -9.0 5.0 -8.35 1.75 -5.9 -0.75 -3.15 -3.5 0.55 -3.95 M-4.9 10.0 L-4.85 9.8 -4.9 10.0 M-0.95 -5.45 Q-4.5 -4.65 -7.3 -1.9 L-9.55 1.1 -9.85 -3.4 Q-9.2 -5.35 -7.75 -7.05 -6.5 -8.55 -5.3 -9.2 L-0.95 -5.45" fill="#ebe0bc" fill-rule="evenodd" stroke="none"/>
    <path d="M-0.95 -5.45 L0.55 -3.95 Q-3.15 -3.5 -5.9 -0.75 -8.35 1.75 -9.0 5.0 L-9.55 1.1 -7.3 -1.9 Q-4.5 -4.65 -0.95 -5.45" fill="#cbdccb" fill-rule="evenodd" stroke="none"/>
    <path d="M11.15 6.5 L9.65 6.0 9.7 6.0 9.45 5.9 8.05 5.65 Q5.1 5.3 2.05 6.65 -1.7 8.25 -3.5 11.5 L-3.7 11.85 -3.65 11.85 -4.5 14.05 -4.6 14.5 -4.75 14.35 -4.75 13.45 Q-4.7 12.05 -4.1 10.3 L-3.9 9.7 Q-2.95 6.95 0.3 4.65 3.5 2.35 7.1 4.15 L7.15 4.2 7.3 4.25 8.75 4.9 Q10.25 5.6 11.15 6.4 L11.15 6.5" fill="#783227" fill-rule="evenodd" stroke="none"/>
  </g>
</svg>
