<?xml version="1.0" encoding="UTF-8" standalone="no"?>
<svg xmlns:ffdec="https://www.free-decompiler.com/flash" xmlns:xlink="http://www.w3.org/1999/xlink" ffdec:objectType="shape" height="30.85px" width="41.2px" xmlns="http://www.w3.org/2000/svg">
  <g transform="matrix(1.0, 0.0, 0.0, 1.0, 17.45, 25.55)">
    <path d="M-4.6 2.0 L-4.0 2.2 Q-3.5 0.4 -2.1 -0.5 L2.7 -2.8 2.65 -3.05 0.1 -3.15 -4.2 -2.9 Q-9.5 -2.9 -13.05 -7.2 -10.85 -6.45 -10.3 -6.4 L-1.8 -5.65 Q1.95 -5.65 8.3 -7.15 10.1 -7.6 14.85 -9.65 16.65 -10.45 18.05 -11.5 17.6 -10.3 17.1 -9.9 13.05 -6.85 13.05 -6.15 L13.15 -5.85 13.4 -5.8 15.85 -6.5 Q18.45 -6.5 18.65 -3.25 L14.85 -0.05 14.55 0.15 Q14.3 0.25 14.1 0.4 7.55 4.25 -1.2 2.95 L-1.2 3.0 -4.6 2.0 M16.15 -7.2 L16.15 -7.15 16.1 -7.15 16.15 -7.2 M15.1 -7.5 L15.35 -7.7 15.55 -7.7 15.1 -7.5 M21.65 -15.3 L21.55 -15.3 21.65 -15.45 21.7 -15.5 21.7 -15.4 21.65 -15.3" fill="#f9f9f9" fill-rule="evenodd" stroke="none"/>
    <path d="M18.65 -3.25 Q18.45 -6.5 15.85 -6.5 L13.4 -5.8 13.15 -5.85 13.05 -6.15 Q13.05 -6.85 17.1 -9.9 17.6 -10.3 18.05 -11.5 16.65 -10.45 14.85 -9.65 10.1 -7.6 8.3 -7.15 1.95 -5.65 -1.8 -5.65 L-10.3 -6.4 Q-10.85 -6.45 -13.05 -7.2 -9.5 -2.9 -4.2 -2.9 L0.1 -3.15 2.65 -3.05 2.7 -2.8 -2.1 -0.5 Q-3.5 0.4 -4.0 2.2 L-4.6 2.0 -6.75 0.85 -6.75 0.8 -6.7 0.7 -6.7 0.65 -6.7 0.6 -6.2 -0.9 -1.25 -2.45 -1.2 -2.45 -1.15 -2.7 -1.25 -2.95 -2.15 -2.95 -2.3 -2.9 -4.4 -2.45 -4.8 -2.35 -7.55 -1.65 -11.6 -4.35 -11.8 -4.3 -11.8 -4.25 -12.5 -5.4 -12.55 -5.5 -12.6 -5.5 -13.3 -6.6 -13.85 -7.45 -15.0 -8.85 -11.2 -8.0 -10.8 -7.9 -10.5 -7.95 -9.75 -7.8 Q-4.7 -7.1 0.55 -7.95 L0.6 -7.95 Q14.2 -10.3 21.2 -21.7 L21.3 -20.9 21.7 -15.5 21.65 -15.45 21.55 -15.3 21.65 -15.3 21.75 -14.6 21.8 -12.45 21.8 -12.4 21.75 -12.35 Q21.2 -10.7 20.45 -9.6 20.25 -9.35 17.3 -8.35 L17.15 -8.3 17.05 -8.25 16.1 -7.9 15.6 -7.7 15.55 -7.7 15.35 -7.7 15.1 -7.5 Q13.7 -6.85 13.7 -6.45 13.7 -6.2 13.8 -6.25 L14.3 -6.25 14.4 -6.25 14.45 -6.25 15.5 -6.8 16.05 -7.15 16.1 -7.15 16.15 -7.15 16.15 -7.2 Q17.9 -8.0 20.15 -8.0 20.7 -8.0 21.65 -7.2 L21.6 -6.4 21.35 -6.4 21.35 -6.35 21.3 -6.3 19.25 -3.85 18.65 -3.25" fill="#e5e5e5" fill-rule="evenodd" stroke="none"/>
    <path d="M-14.3 -4.5 Q-16.35 -9.15 -17.45 -11.0 L-17.05 -11.35 -16.3 -11.4 Q-8.3 -8.6 0.25 -9.9 14.2 -12.3 20.7 -24.9 L21.3 -25.4 21.65 -25.45 21.7 -25.45 21.85 -25.55 23.3 -18.8 Q24.15 -13.6 23.35 -6.1 L23.1 -5.5 22.9 -5.1 Q13.85 7.2 -1.5 4.95 -9.55 3.65 -14.3 -4.45 L-14.3 -4.5 M-4.6 2.0 L-1.2 3.0 -1.2 2.95 Q7.55 4.25 14.1 0.4 L14.15 0.45 13.85 0.7 14.55 0.15 14.85 -0.05 18.65 -3.25 19.25 -3.85 21.3 -6.3 21.35 -6.35 21.35 -6.4 21.6 -6.4 21.65 -7.2 Q20.7 -8.0 20.15 -8.0 17.9 -8.0 16.15 -7.2 L16.05 -7.15 15.5 -6.8 14.45 -6.25 14.4 -6.25 14.3 -6.25 13.8 -6.25 Q13.7 -6.2 13.7 -6.45 13.7 -6.85 15.1 -7.5 L15.55 -7.7 15.6 -7.7 16.1 -7.9 17.05 -8.25 17.15 -8.3 17.3 -8.35 Q20.25 -9.35 20.45 -9.6 21.2 -10.7 21.75 -12.35 L21.75 -11.6 21.8 -12.4 21.8 -12.45 21.75 -14.6 21.65 -15.3 21.7 -15.4 21.7 -15.5 21.3 -20.9 21.2 -21.7 Q14.2 -10.3 0.6 -7.95 L0.55 -7.95 Q-4.7 -7.1 -9.75 -7.8 L-10.5 -7.95 -10.8 -7.9 -11.2 -8.0 -15.0 -8.85 -13.85 -7.45 -13.3 -6.6 -12.6 -5.5 -12.5 -5.4 -11.8 -4.25 -11.8 -4.3 -11.6 -4.35 -7.55 -1.65 -4.8 -2.35 -4.4 -2.45 -2.3 -2.9 -2.15 -2.95 -1.25 -2.95 -1.15 -2.7 -1.2 -2.45 -1.25 -2.45 -6.2 -0.9 -6.7 0.6 -6.7 0.7 -6.75 0.8 -6.75 0.85 -4.6 2.0 M-7.8 -0.3 L-9.6 -1.75 -10.2 -2.15 -10.05 -1.95 -8.35 -0.35 -6.9 0.75 -7.75 0.15 -7.8 -0.3" fill="#682424" fill-rule="evenodd" stroke="none"/>
    <path d="M-14.3 -4.5 L-14.3 -4.45 -14.3 -4.5 M14.1 0.4 Q14.3 0.25 14.55 0.15 L14.15 0.45 14.1 0.4 M16.1 -7.15 L16.05 -7.15 16.15 -7.2 16.1 -7.15 M-12.6 -5.5 L-12.55 -5.5 -12.5 -5.4 -12.6 -5.5" fill="#463624" fill-rule="evenodd" stroke="none"/>
    <path d="M-6.7 0.6 L-6.7 0.65 -6.7 0.7 -6.7 0.6 M-7.8 -0.3 L-7.75 0.15 -6.9 0.75 -8.35 -0.35 -10.05 -1.95 -10.2 -2.15 -9.6 -1.75 -7.8 -0.3" fill="#57352d" fill-rule="evenodd" stroke="none"/>
  </g>
</svg>
