<?xml version="1.0" encoding="UTF-8" standalone="no"?>
<svg xmlns:ffdec="https://www.free-decompiler.com/flash" xmlns:xlink="http://www.w3.org/1999/xlink" ffdec:objectType="shape" height="14.65px" width="27.85px" xmlns="http://www.w3.org/2000/svg">
  <g transform="matrix(1.0, 0.0, 0.0, 1.0, 5.5, 13.95)">
    <path d="M14.1 -13.95 Q19.85 -13.95 21.6 -11.25 22.35 -10.15 22.35 -7.7 22.35 -5.25 18.95 -2.7 14.45 0.65 6.85 0.65 L2.25 0.55 2.2 0.55 1.0 0.7 Q-5.9 0.7 -5.45 -4.9 L-5.35 -5.7 Q-4.7 -8.65 1.45 -11.25 7.75 -13.95 14.1 -13.95 M6.1 -6.1 L6.15 -5.9 1.85 -4.6 Q0.95 -4.3 -0.9 -3.0 L-1.0 -2.75 Q-1.85 -1.55 -2.05 -1.45 L-2.4 -1.35 -2.15 -1.25 -1.95 -1.15 -1.0 -0.75 Q10.75 0.4 16.1 -2.75 20.45 -5.3 20.45 -8.05 20.45 -12.2 12.85 -12.2 5.05 -12.2 -0.2 -8.9 -2.3 -7.6 -3.95 -6.1 L-3.25 -5.15 -2.65 -4.4 Q-0.85 -6.1 4.85 -6.35 L6.1 -6.1" fill="#682424" fill-rule="evenodd" stroke="none"/>
    <path d="M6.1 -6.1 L4.85 -6.35 Q-0.85 -6.1 -2.65 -4.4 L-3.25 -5.15 -3.95 -6.1 Q-2.3 -7.6 -0.2 -8.9 5.05 -12.2 12.85 -12.2 20.45 -12.2 20.45 -8.05 20.45 -5.3 16.1 -2.75 10.75 0.4 -1.0 -0.75 L-1.95 -1.15 -2.15 -1.25 -2.05 -1.45 Q-1.85 -1.55 -1.0 -2.75 L-0.9 -2.95 -0.9 -3.0 Q0.95 -4.3 1.85 -4.6 L6.15 -5.9 6.2 -5.95 6.1 -6.1" fill="#e5e5e5" fill-rule="evenodd" stroke="none"/>
    <path d="M6.15 -5.9 L6.1 -6.1 6.2 -5.95 6.15 -5.9 M-1.0 -2.75 L-0.9 -3.0 -0.9 -2.95 -1.0 -2.75" fill="#463624" fill-rule="evenodd" stroke="none"/>
  </g>
</svg>
