<?xml version="1.0" encoding="UTF-8" standalone="no"?>
<svg xmlns:ffdec="https://www.free-decompiler.com/flash" xmlns:xlink="http://www.w3.org/1999/xlink" ffdec:objectType="shape" height="25.9px" width="35.65px" xmlns="http://www.w3.org/2000/svg">
  <g transform="matrix(1.0, 0.0, 0.0, 1.0, 10.7, 21.25)">
    <path d="M-2.95 -11.5 L-1.05 -9.9 Q0.85 -8.1 1.35 -8.1 2.85 -8.1 17.85 -13.7 L19.35 -13.75 Q21.95 -13.75 22.55 -13.1 22.75 -12.9 23.05 -12.8 L22.0 -14.9 Q19.4 -19.2 14.1 -19.2 8.65 -19.2 0.8 -14.1 L-2.95 -11.5 -3.45 -11.15 -2.95 -11.5 M23.45 -11.25 Q22.15 -11.25 21.75 -11.85 21.4 -12.45 19.15 -12.45 15.5 -12.45 8.9 -9.7 2.35 -6.95 1.5 -6.95 -0.35 -6.95 -3.8 -10.85 L-4.45 -10.3 Q-6.2 -8.9 -7.3 -7.7 -4.85 -5.9 -4.5 -2.6 -4.35 -0.7 -4.45 3.05 L2.1 3.3 Q8.55 3.3 13.1 2.2 L13.15 2.2 13.95 1.95 13.05 2.2 13.0 1.95 Q13.0 1.5 13.75 1.1 14.5 0.75 14.5 0.4 13.75 0.2 13.1 -0.35 10.35 2.15 7.85 2.15 4.0 2.15 4.0 -0.8 4.0 -2.6 5.6 -4.85 8.1 -8.3 12.85 -8.3 17.4 -8.3 20.1 -5.95 21.9 -4.4 22.1 -3.05 24.35 -6.15 23.7 -9.7 L23.55 -11.2 23.45 -11.7 23.55 -11.25 23.45 -11.25 M5.45 -2.3 L5.1 -1.05 Q5.1 0.8 7.25 0.8 10.3 0.8 12.55 -1.3 14.1 -2.75 14.7 -4.45 L15.1 -4.6 15.45 -4.25 15.15 -2.8 14.4 -1.6 14.3 -1.5 14.45 -1.55 14.8 -1.55 15.1 -1.5 16.75 -0.7 16.85 -0.55 17.0 -0.25 17.0 -0.15 17.1 0.55 17.0 0.85 17.2 0.75 18.8 -0.1 21.25 -2.05 Q20.9 -2.25 20.7 -2.75 L19.85 -4.5 Q18.1 -7.05 12.85 -7.05 7.0 -7.05 5.45 -2.3 M22.85 -1.95 Q17.75 4.65 2.0 4.65 L-5.85 4.6 -6.0 4.35 Q-5.8 3.95 -5.95 3.65 L-5.8 2.3 -5.7 -0.2 Q-5.7 -6.7 -8.6 -6.7 L-10.15 -5.85 Q-10.7 -6.05 -10.7 -6.65 6.0 -21.25 15.7 -21.25 20.8 -21.25 23.4 -15.7 24.7 -12.9 24.95 -9.85 24.95 -4.7 22.85 -1.95" fill="#682424" fill-rule="evenodd" stroke="none"/>
    <path d="M-2.95 -11.5 L0.8 -14.1 Q8.65 -19.2 14.1 -19.2 19.4 -19.2 22.0 -14.9 L23.05 -12.8 Q22.75 -12.9 22.55 -13.1 21.95 -13.75 19.35 -13.75 L17.85 -13.7 Q2.85 -8.1 1.35 -8.1 0.85 -8.1 -1.05 -9.9 L-2.95 -11.5" fill="#e5e5e5" fill-rule="evenodd" stroke="none"/>
    <path d="M13.1 2.2 Q8.55 3.3 2.1 3.3 L-4.45 3.05 Q-4.35 -0.7 -4.5 -2.6 -4.85 -5.9 -7.3 -7.7 -6.2 -8.9 -4.45 -10.3 L-3.8 -10.85 Q-0.35 -6.95 1.5 -6.95 2.35 -6.95 8.9 -9.7 15.5 -12.45 19.15 -12.45 21.4 -12.45 21.75 -11.85 22.15 -11.25 23.45 -11.25 L23.55 -11.25 23.55 -11.2 23.7 -9.7 Q24.35 -6.15 22.1 -3.05 21.9 -4.4 20.1 -5.95 17.4 -8.3 12.85 -8.3 8.1 -8.3 5.6 -4.85 4.0 -2.6 4.0 -0.8 4.0 2.15 7.85 2.15 10.35 2.15 13.1 -0.35 13.75 0.2 14.5 0.4 14.5 0.75 13.75 1.1 13.0 1.5 13.0 1.95 L13.05 2.2 13.1 2.2" fill="#57352d" fill-rule="evenodd" stroke="none"/>
    <path d="M5.45 -2.3 Q6.55 -0.95 8.85 -0.95 11.8 -0.95 13.5 -3.1 L15.2 -5.3 Q18.35 -5.3 18.85 -0.7 L18.8 -0.1 17.2 0.75 17.1 0.55 17.0 -0.15 17.0 -0.25 16.85 -0.55 16.75 -0.7 15.1 -1.5 14.8 -1.55 15.15 -2.8 15.45 -4.25 15.1 -4.6 14.7 -4.45 Q14.1 -2.75 12.55 -1.3 10.3 0.8 7.25 0.8 5.1 0.8 5.1 -1.05 L5.45 -2.3 M15.45 -4.2 L15.35 -3.15 15.35 -2.8 15.7 -3.55 15.7 -4.9 15.65 -4.25 15.45 -4.2" fill="#a05345" fill-rule="evenodd" stroke="none"/>
    <path d="M18.8 -0.1 L18.85 -0.7 Q18.35 -5.3 15.2 -5.3 L13.5 -3.1 Q11.8 -0.95 8.85 -0.95 6.55 -0.95 5.45 -2.3 7.0 -7.05 12.85 -7.05 18.1 -7.05 19.85 -4.5 L20.7 -2.75 Q20.9 -2.25 21.25 -2.05 L18.8 -0.1 M15.15 -2.8 L14.8 -1.55 14.45 -1.55 14.4 -1.6 15.15 -2.8" fill="#b45f50" fill-rule="evenodd" stroke="none"/>
    <path d="M23.55 -11.25 L23.45 -11.25 23.55 -11.25 M15.45 -4.2 L15.65 -4.25 15.7 -4.9 15.7 -3.55 15.35 -2.8 15.35 -3.15 15.45 -4.2" fill="#463624" fill-rule="evenodd" stroke="none"/>
  </g>
</svg>
