<?xml version="1.0" encoding="UTF-8" standalone="no"?>
<svg xmlns:ffdec="https://www.free-decompiler.com/flash" xmlns:xlink="http://www.w3.org/1999/xlink" ffdec:objectType="shape" height="16.6px" width="36.9px" xmlns="http://www.w3.org/2000/svg">
  <g transform="matrix(1.0, 0.0, 0.0, 1.0, 15.05, 20.05)">
    <path d="M16.9 -19.8 L16.55 -19.6 Q21.3 -19.55 21.85 -12.35 18.8 -3.25 13.8 -3.45 8.75 -3.7 2.8 -4.95 -2.9 -6.15 -6.4 -7.8 -11.3 -8.0 -13.55 -9.4 L-15.05 -12.0 Q-5.35 -8.7 4.4 -12.0 11.15 -14.45 16.0 -19.85 L16.8 -19.95 16.9 -19.8 M19.85 -12.6 Q19.85 -15.55 15.2 -16.55 13.85 -14.6 9.7 -11.75 5.75 -9.1 0.75 -8.2 L4.6 -7.3 Q7.9 -6.4 10.85 -6.0 L12.0 -5.55 Q11.9 -5.7 12.15 -7.15 12.35 -8.6 13.5 -10.9 14.65 -13.25 16.35 -13.2 L19.35 -12.7 19.85 -12.5 19.85 -12.6 M19.45 -11.1 L19.6 -11.5 19.4 -11.1 15.85 -11.35 Q14.6 -11.35 13.75 -8.7 13.05 -6.65 13.4 -5.35 13.7 -5.7 15.15 -5.7 16.5 -5.7 18.25 -8.85 L19.45 -11.1" fill="#682424" fill-rule="evenodd" stroke="none"/>
    <path d="M16.8 -19.95 Q17.7 -19.85 17.0 -19.85 L16.9 -19.8 16.8 -19.95" fill="#463624" fill-rule="evenodd" stroke="none"/>
    <path d="M19.85 -12.5 L19.35 -12.7 16.35 -13.2 Q14.65 -13.25 13.5 -10.9 12.35 -8.6 12.15 -7.15 11.9 -5.7 12.0 -5.55 L10.85 -6.0 Q7.9 -6.4 4.6 -7.3 L0.75 -8.2 Q5.75 -9.1 9.7 -11.75 13.85 -14.6 15.2 -16.55 19.85 -15.55 19.85 -12.6 L19.85 -12.5" fill="#57352d" fill-rule="evenodd" stroke="none"/>
    <path d="M19.4 -11.1 L19.45 -11.1 18.25 -8.85 Q16.5 -5.7 15.15 -5.7 13.7 -5.7 13.4 -5.35 13.05 -6.65 13.75 -8.7 14.6 -11.35 15.85 -11.35 L19.4 -11.1" fill="#b45f50" fill-rule="evenodd" stroke="none"/>
  </g>
</svg>
