<?xml version="1.0" encoding="UTF-8" standalone="no"?>
<svg xmlns:ffdec="https://www.free-decompiler.com/flash" xmlns:xlink="http://www.w3.org/1999/xlink" ffdec:objectType="shape" height="7.85px" width="23.45px" xmlns="http://www.w3.org/2000/svg">
  <g transform="matrix(1.0, 0.0, 0.0, 1.0, 7.95, 8.3)">
    <path d="M10.1 -8.3 L12.85 -8.0 Q15.6 -7.3 15.5 -3.95 15.5 -1.2 13.45 -1.2 L8.3 -1.8 2.0 -2.45 Q-1.15 -2.45 -3.75 -1.45 L-7.0 -0.45 -7.45 -0.55 -7.65 -1.05 Q-7.65 -1.7 -3.85 -2.6 L-3.45 -2.7 Q-4.4 -3.6 -4.4 -5.75 L-7.8 -4.45 Q-7.95 -4.05 -7.95 -4.7 -7.95 -5.45 -3.75 -6.45 L-4.2 -6.35 Q-3.7 -6.9 -1.95 -7.15 L2.45 -7.6 5.5 -7.9 8.35 -8.2 10.1 -8.3 M8.25 -3.45 Q8.2 -3.1 7.4 -3.1 L7.35 -3.05 8.1 -2.9 14.0 -2.3 Q14.6 -2.3 14.6 -3.9 14.6 -5.1 14.15 -5.85 13.45 -5.25 11.9 -5.25 L9.35 -4.85 Q8.3 -4.15 8.25 -3.45 M13.45 -6.6 L13.0 -6.85 12.7 -6.8 10.15 -7.05 Q-0.35 -7.05 -3.2 -5.7 -2.65 -4.6 -2.65 -3.8 L-2.65 -2.85 2.5 -3.55 6.0 -3.25 Q6.1 -4.4 7.85 -5.55 9.8 -6.8 12.35 -6.8 L13.4 -6.6 13.75 -6.35 13.45 -6.6" fill="#682424" fill-rule="evenodd" stroke="none"/>
    <path d="M13.4 -6.6 L12.35 -6.8 Q9.8 -6.8 7.85 -5.55 6.1 -4.4 6.0 -3.25 L2.5 -3.55 -2.65 -2.85 -2.65 -3.8 Q-2.65 -4.6 -3.2 -5.7 -0.35 -7.05 10.15 -7.05 L12.7 -6.8 13.0 -6.85 13.45 -6.6 13.4 -6.6" fill="#57352d" fill-rule="evenodd" stroke="none"/>
    <path d="M8.25 -3.45 Q8.3 -4.15 9.35 -4.85 L11.9 -5.25 Q13.45 -5.25 14.15 -5.85 14.6 -5.1 14.6 -3.9 14.6 -2.3 14.0 -2.3 L8.1 -2.9 7.35 -3.05 7.4 -3.1 Q8.2 -3.1 8.25 -3.45" fill="#b45f50" fill-rule="evenodd" stroke="none"/>
  </g>
</svg>
