<?xml version="1.0" encoding="UTF-8" standalone="no"?>
<svg xmlns:ffdec="https://www.free-decompiler.com/flash" xmlns:xlink="http://www.w3.org/1999/xlink" ffdec:objectType="shape" height="96.1px" width="93.05px" xmlns="http://www.w3.org/2000/svg">
  <g transform="matrix(1.0, 0.0, 0.0, 1.0, -14.95, 47.05)">
    <path d="M29.45 12.9 L30.0 13.1 30.2 13.6 30.5 22.95 Q30.35 35.1 27.95 47.3 L27.8 47.6 27.55 47.85 Q21.95 50.8 15.3 46.55 L15.0 46.2 15.0 45.75 15.2 45.4 Q23.0 37.45 22.35 23.05 22.15 18.7 21.25 13.8 L21.25 13.35 21.55 13.05 Q21.7 12.9 21.95 12.9 L29.45 12.9 M23.85 22.9 L23.85 23.0 Q24.5 37.55 16.9 45.75 22.1 48.75 26.55 46.65 28.85 34.8 29.0 22.95 L28.75 14.4 22.85 14.4 Q23.65 18.9 23.85 22.9 M26.15 36.7 L26.45 37.4 26.15 38.1 25.45 38.4 24.75 38.1 Q24.45 37.8 24.45 37.4 24.45 37.0 24.75 36.7 25.05 36.4 25.45 36.4 25.85 36.4 26.15 36.7 M22.15 41.8 Q22.65 41.35 23.35 41.35 24.05 41.35 24.5 41.8 25.0 42.3 25.0 43.0 25.0 43.7 24.5 44.15 24.05 44.65 23.35 44.65 22.65 44.65 22.15 44.15 21.7 43.7 21.7 43.0 21.7 42.3 22.15 41.8" fill="#4f3217" fill-rule="evenodd" stroke="none"/>
    <path d="M23.85 22.9 Q23.65 18.9 22.85 14.4 L28.75 14.4 29.0 22.95 23.85 22.9" fill="#603d1e" fill-rule="evenodd" stroke="none"/>
    <path d="M29.0 22.95 Q28.85 34.8 26.55 46.65 22.1 48.75 16.9 45.75 24.5 37.55 23.85 23.0 L23.85 22.9 29.0 22.95 M22.15 41.8 Q21.7 42.3 21.7 43.0 21.7 43.7 22.15 44.15 22.65 44.65 23.35 44.65 24.05 44.65 24.5 44.15 25.0 43.7 25.0 43.0 25.0 42.3 24.5 41.8 24.05 41.35 23.35 41.35 22.65 41.35 22.15 41.8 M26.15 36.7 Q25.85 36.4 25.45 36.4 25.05 36.4 24.75 36.7 24.45 37.0 24.45 37.4 24.45 37.8 24.75 38.1 L25.45 38.4 26.15 38.1 26.45 37.4 26.15 36.7" fill="#6d4521" fill-rule="evenodd" stroke="none"/>
    <path d="M79.85 -37.2 L79.6 -37.2 Q79.65 -36.7 80.1 -36.55 L80.45 -36.6 79.85 -37.2 M77.65 -41.4 Q80.65 -39.15 83.1 -34.35 L83.3 -33.9 83.4 -33.75 Q83.15 -32.5 84.3 -32.1 L84.6 -32.1 Q85.55 -33.25 86.0 -34.5 87.3 -38.6 87.35 -40.5 86.65 -43.05 86.65 -43.9 L86.4 -44.45 86.3 -45.35 Q88.9 -41.15 88.4 -31.05 L88.5 -30.7 Q88.35 -30.25 88.65 -29.7 94.1 -29.55 97.2 -38.1 96.8 -31.25 91.95 -27.45 L91.7 -26.95 91.8 -26.5 Q91.95 -26.25 92.2 -26.15 L92.85 -25.95 92.75 -25.6 99.65 -20.2 103.55 -16.3 96.15 -18.7 Q68.85 -11.9 79.95 -31.5 L80.0 -31.55 80.3 -32.25 Q80.55 -33.0 78.2 -38.7 L77.7 -40.9 77.65 -41.4 M95.15 -24.9 L97.75 -23.2 97.35 -23.1 95.15 -24.9 M79.35 -32.0 L78.35 -32.75 78.9 -33.0 79.35 -32.0 M78.1 -33.0 L77.55 -33.45 77.8 -33.6 78.1 -33.0 M77.1 -33.75 L76.85 -34.0 77.0 -35.1 77.1 -33.75 M89.7 -28.3 L90.05 -28.1 Q90.75 -27.9 92.25 -28.65 90.35 -29.4 89.7 -28.3 M82.0 -34.15 L81.75 -34.2 Q81.35 -33.1 81.9 -32.9 L82.5 -32.9 Q82.8 -33.9 82.0 -34.15 M86.95 -33.05 L86.8 -33.1 85.9 -31.65 85.8 -30.95 85.9 -30.9 Q86.45 -31.2 86.75 -32.0 L86.95 -33.05 M87.7 -34.75 Q87.9 -35.45 87.7 -36.45 L87.55 -36.45 87.3 -35.7 87.45 -34.4 87.65 -34.6 87.7 -34.75 M80.7 -35.3 L80.35 -35.3 80.3 -35.1 Q81.0 -33.7 81.15 -33.65 L81.25 -33.75 Q81.0 -35.2 80.7 -35.3 M97.4 -19.65 L98.3 -19.8 96.7 -20.9 Q96.0 -21.15 95.9 -20.7 96.2 -20.05 97.4 -19.65 M94.15 -30.95 L93.85 -30.95 93.95 -30.25 94.4 -30.25 94.15 -30.95 M94.75 -32.15 L94.55 -32.2 94.4 -31.95 Q94.25 -31.6 94.55 -31.7 L94.75 -31.85 94.75 -32.15" fill="#385339" fill-rule="evenodd" stroke="none"/>
    <path d="M79.85 -37.2 L80.45 -36.6 80.1 -36.55 Q79.65 -36.7 79.6 -37.2 L79.85 -37.2 M77.0 -35.1 Q77.35 -39.6 74.05 -43.25 75.55 -42.85 76.95 -41.85 L77.65 -41.4 77.7 -40.9 78.2 -38.7 Q80.55 -33.0 80.3 -32.25 L80.0 -31.55 79.95 -31.5 79.35 -32.0 78.9 -33.0 78.35 -32.75 78.1 -33.0 77.8 -33.6 77.55 -33.45 77.1 -33.75 77.0 -35.1 M83.4 -33.75 L83.75 -33.55 84.3 -33.55 84.7 -34.0 84.8 -34.2 84.9 -34.35 Q86.45 -38.6 86.5 -42.65 L86.4 -44.45 86.65 -43.9 Q86.65 -43.05 87.35 -40.5 87.3 -38.6 86.0 -34.5 85.55 -33.25 84.6 -32.1 L84.3 -32.1 Q83.15 -32.5 83.4 -33.75 M88.5 -30.7 L88.55 -30.55 Q88.7 -30.35 89.0 -30.3 L89.5 -30.4 Q92.2 -31.95 94.5 -34.8 L94.5 -34.85 Q95.95 -36.8 97.25 -39.35 L97.2 -38.1 Q94.1 -29.55 88.65 -29.7 88.35 -30.25 88.5 -30.7 M92.85 -25.95 L95.15 -24.9 97.35 -23.1 97.75 -23.2 Q100.3 -21.25 102.55 -18.2 L103.95 -16.2 103.55 -16.3 99.65 -20.2 92.75 -25.6 92.85 -25.95 M80.7 -35.3 Q81.0 -35.2 81.25 -33.75 L81.15 -33.65 Q81.0 -33.7 80.3 -35.1 L80.35 -35.3 80.7 -35.3 M87.7 -34.75 L87.65 -34.6 87.45 -34.4 87.3 -35.7 87.55 -36.45 87.7 -36.45 Q87.9 -35.45 87.7 -34.75 M86.95 -33.05 L86.75 -32.0 Q86.45 -31.2 85.9 -30.9 L85.8 -30.95 85.9 -31.65 86.8 -33.1 86.95 -33.05 M82.0 -34.15 Q82.8 -33.9 82.5 -32.9 L81.9 -32.9 Q81.35 -33.1 81.75 -34.2 L82.0 -34.15 M89.7 -28.3 Q90.35 -29.4 92.25 -28.65 90.75 -27.9 90.05 -28.1 L89.7 -28.3 M94.75 -32.15 L94.75 -31.85 94.55 -31.7 Q94.25 -31.6 94.4 -31.95 L94.55 -32.2 94.75 -32.15 M94.15 -30.95 L94.4 -30.25 93.95 -30.25 93.85 -30.95 94.15 -30.95 M97.4 -19.65 Q96.2 -20.05 95.9 -20.7 96.0 -21.15 96.7 -20.9 L98.3 -19.8 97.4 -19.65" fill="#5c815c" fill-rule="evenodd" stroke="none"/>
    <path d="M73.5 -44.85 Q75.75 -44.5 77.75 -43.1 81.15 -40.9 83.85 -35.95 L85.5 -42.1 85.5 -46.35 Q85.45 -48.45 87.75 -44.1 90.0 -39.8 89.95 -32.4 91.7 -33.75 93.3 -35.75 L93.3 -35.7 Q94.8 -37.75 96.1 -40.4 L98.05 -45.0 Q99.35 -32.15 93.9 -27.1 99.85 -23.75 102.45 -20.4 105.0 -17.05 108.0 -12.2 102.5 -17.1 95.55 -17.3 95.4 -17.4 95.3 -17.45 67.05 -6.9 75.6 -33.1 L75.35 -33.45 75.8 -37.0 Q76.3 -40.35 71.95 -44.0 L68.6 -46.1 73.5 -44.85 M77.65 -41.4 L76.95 -41.85 Q75.55 -42.85 74.05 -43.25 77.35 -39.6 77.0 -35.1 L76.85 -34.0 77.1 -33.75 77.55 -33.45 78.1 -33.0 78.35 -32.75 79.35 -32.0 79.95 -31.5 Q68.85 -11.9 96.15 -18.7 L103.55 -16.3 103.95 -16.2 102.55 -18.2 Q100.3 -21.25 97.75 -23.2 L95.15 -24.9 92.85 -25.95 92.2 -26.15 Q91.95 -26.25 91.8 -26.5 L91.7 -26.95 91.95 -27.45 Q96.8 -31.25 97.2 -38.1 L97.25 -39.35 Q95.95 -36.8 94.5 -34.85 L94.5 -34.8 Q92.2 -31.95 89.5 -30.4 L89.0 -30.3 Q88.7 -30.35 88.55 -30.55 L88.5 -30.7 88.4 -31.05 Q88.9 -41.15 86.3 -45.35 L86.4 -44.45 86.5 -42.65 Q86.45 -38.6 84.9 -34.35 L84.8 -34.2 84.7 -34.0 84.3 -33.55 83.75 -33.55 83.4 -33.75 83.3 -33.9 83.1 -34.35 Q80.65 -39.15 77.65 -41.4" fill="#213021" fill-rule="evenodd" stroke="none"/>
  </g>
</svg>
