<?xml version="1.0" encoding="UTF-8" standalone="no"?>
<svg xmlns:ffdec="https://www.free-decompiler.com/flash" xmlns:xlink="http://www.w3.org/1999/xlink" ffdec:objectType="shape" height="12.3px" width="32.8px" xmlns="http://www.w3.org/2000/svg">
  <g transform="matrix(1.0, 0.0, 0.0, 1.0, 17.6, -2.85)">
    <path d="M12.05 12.1 Q10.7 13.35 8.75 13.35 6.85 13.35 5.45 12.1 4.1 10.8 4.1 9.0 4.1 7.95 4.5 7.15 4.8 6.45 5.45 5.9 5.9 5.45 6.45 5.15 7.5 4.6 8.75 4.6 10.7 4.6 12.05 5.9 13.45 7.15 13.45 9.0 13.45 10.8 12.05 12.1 M-8.95 12.3 Q-10.1 13.4 -11.75 13.4 -13.45 13.4 -14.65 12.3 -15.85 11.15 -15.85 9.6 -15.85 8.75 -15.45 8.0 L-14.65 6.9 -13.8 6.3 Q-12.9 5.8 -11.75 5.8 -10.1 5.8 -8.95 6.9 -7.75 8.0 -7.7 9.6 -7.75 11.15 -8.95 12.3 Z" fill="none" stroke="#000000" stroke-linecap="round" stroke-linejoin="round" stroke-width="3.5"/>
  </g>
</svg>
