<?xml version="1.0" encoding="UTF-8" standalone="no"?>
<svg xmlns:ffdec="https://www.free-decompiler.com/flash" xmlns:xlink="http://www.w3.org/1999/xlink" ffdec:objectType="shape" height="56.15px" width="67.5px" xmlns="http://www.w3.org/2000/svg">
  <g transform="matrix(1.0, 0.0, 0.0, 1.0, 51.25, 16.05)">
    <path d="M13.4 14.4 L13.5 14.4 13.6 14.3 13.85 14.25 13.4 14.4" fill="#333333" fill-rule="evenodd" stroke="none"/>
    <path d="M11.8 10.65 L11.85 10.75 11.85 10.9 11.8 10.65 M-15.75 -10.8 L-15.7 -10.5 -15.7 -10.55 -15.75 -10.8 M14.05 11.7 L14.1 11.75 14.15 11.8 14.1 11.8 14.05 11.7" fill="#cccccc" fill-rule="evenodd" stroke="none"/>
    <path d="M-48.3 27.0 L-48.2 27.1 -48.2 27.2 -48.35 27.0 -48.3 27.0" fill="#783c1f" fill-rule="evenodd" stroke="none"/>
    <path d="M-26.1 -9.1 L-26.1 -9.15 -26.05 -9.15 -26.1 -9.1 M14.05 11.75 L14.05 11.7 14.1 11.8 14.05 11.75" fill="#64321a" fill-rule="evenodd" stroke="none"/>
    <path d="M-1.8 -13.85 L0.75 -12.95 2.6 -12.0 Q6.0 -10.0 6.0 -8.55 L4.05 -5.5 3.25 -4.65 Q1.35 -6.15 -1.75 -7.4 L-5.35 -7.9 Q-8.45 -8.45 -10.05 -10.3 L-10.15 -10.4 -7.2 -9.6 Q-4.85 -9.35 -2.75 -8.7 L-1.55 -8.65 Q0.25 -8.65 0.25 -10.05 0.25 -11.6 -1.8 -13.85 M1.25 -0.4 Q1.25 0.0 1.05 -0.1 L0.85 -0.25 Q-2.1 -1.15 -3.35 -2.7 L-5.45 -5.55 -3.5 -5.0 -1.5 -3.7 Q1.25 -1.6 1.25 -0.4 M0.05 3.45 L2.75 4.25 Q4.3 4.25 5.35 2.7 6.15 1.45 6.15 0.5 L5.8 -1.4 7.1 0.0 9.15 2.95 Q11.25 6.55 11.8 10.65 L11.85 10.9 12.0 11.15 Q7.4 19.15 -0.05 23.8 -4.3 26.3 -8.65 28.45 L-8.7 28.45 Q-16.45 32.25 -25.0 32.4 L-25.05 32.4 Q-34.25 32.9 -42.7 29.25 L-42.65 29.25 Q-45.4 27.95 -47.0 25.4 L-47.05 25.35 -47.15 25.1 -47.75 23.65 -46.75 24.2 Q-40.6 27.4 -31.0 27.4 -14.85 27.4 -6.05 17.8 L-3.1 14.1 Q-3.35 16.5 -3.9 19.35 L-3.9 21.75 -3.25 21.9 -1.6 21.55 -0.9 21.1 Q1.1 19.25 0.65 13.3 0.65 10.1 -0.05 7.15 L-0.05 7.0 0.1 4.85 0.05 3.45 M-15.75 -10.8 Q-12.9 -10.0 -11.9 -9.0 -12.4 -8.95 -13.6 -9.5 L-15.65 -10.15 -15.7 -10.55 -15.7 -10.5 -15.75 -10.8" fill="#a43615" fill-rule="evenodd" stroke="none"/>
    <path d="M-1.8 -13.85 Q0.25 -11.6 0.25 -10.05 0.25 -8.65 -1.55 -8.65 L-2.75 -8.7 Q-4.85 -9.35 -7.2 -9.6 L-10.15 -10.4 -13.3 -12.3 -14.45 -12.8 -13.95 -13.2 Q-11.7 -14.75 -9.05 -14.75 -5.05 -14.75 -1.8 -13.85 M-47.75 23.65 Q-50.7 15.9 -47.8 7.8 -46.15 3.15 -42.2 0.05 -37.4 -3.95 -31.65 -5.8 L-25.3 -4.5 Q-19.8 -3.45 -17.75 -1.75 -10.35 4.25 -9.5 4.25 -7.65 4.25 -7.65 2.75 -12.55 -5.75 -20.75 -7.3 L-17.9 -7.75 Q-12.9 -5.15 -10.75 -3.25 L-5.1 2.5 -4.5 2.45 Q-2.9 6.05 -2.9 10.45 L-3.1 14.1 -6.05 17.8 Q-14.85 27.4 -31.0 27.4 -40.6 27.4 -46.75 24.2 L-47.75 23.65 M-0.05 7.0 L-0.75 3.45 Q-0.75 2.8 -0.65 3.25 L0.05 3.45 0.1 4.85 -0.05 7.0" fill="#d2572b" fill-rule="evenodd" stroke="none"/>
    <path d="M2.65 -4.3 L3.75 -3.2 Q5.25 -1.5 5.25 0.5 5.0 3.25 2.0 3.25 1.25 3.25 -0.25 2.15 L-3.1 -0.4 -3.65 -0.95 Q-6.0 -3.3 -7.15 -5.0 L-7.7 -5.95 -7.8 -6.15 -7.65 -5.95 -6.15 -4.3 -4.4 -2.3 Q-2.7 -0.45 -1.0 0.3 L1.25 0.75 Q2.15 0.75 2.15 -0.35 2.15 -1.95 -0.25 -3.9 L-1.35 -4.75 Q-3.7 -6.4 -6.2 -7.25 L-9.45 -8.0 Q-1.2 -7.45 2.6 -4.35 L2.65 -4.3 M-29.55 -6.25 L-26.4 -6.65 Q-18.4 -6.65 -13.05 -2.55 -8.9 0.6 -8.9 3.0 -8.9 3.4 -9.45 3.35 L-10.0 3.25 Q-14.15 -0.55 -17.05 -2.25 -22.5 -5.45 -29.55 -6.25 M-24.65 -9.35 L-24.9 -10.95 Q-24.9 -12.75 -21.5 -13.3 L-16.7 -12.9 -14.95 -12.4 -13.15 -11.7 -11.4 -10.75 Q-9.9 -9.8 -9.9 -8.9 L-10.0 -8.65 -11.9 -10.25 Q-13.35 -11.15 -15.75 -11.5 L-17.05 -11.6 -18.5 -11.65 Q-20.9 -11.65 -20.9 -10.0 L-20.8 -9.8 Q-20.4 -8.75 -18.65 -8.75 L-18.6 -8.75 -17.75 -8.85 -15.4 -9.2 -14.8 -9.25 -14.0 -8.75 -14.65 -8.7 -19.1 -8.3 -22.4 -7.8 Q-24.15 -7.8 -24.65 -9.35 M-4.15 0.15 L-3.35 1.4 Q-2.4 3.1 -1.5 6.0 L-0.65 9.3 Q-0.15 11.65 -0.15 13.35 0.65 20.05 -3.0 20.9 L-3.0 19.65 Q-2.2 15.75 -2.05 12.4 L-2.0 10.5 Q-2.0 8.05 -2.9 4.6 L-3.7 2.0 -4.2 0.8 -5.15 -0.75 -4.15 0.15 M-17.6 -7.75 L-17.35 -7.8 -17.05 -7.8 -16.15 -7.65 Q-13.45 -7.25 -11.15 -6.3 L-9.0 -5.25 -5.25 1.0 -5.0 1.4 -5.25 1.5 -9.95 -3.55 Q-11.75 -5.15 -13.9 -6.3 L-15.75 -7.15 -17.6 -7.75 M-48.35 27.0 Q-46.5 29.65 -43.5 31.05 L-43.5 31.1 Q-34.65 34.9 -24.95 34.4 -15.95 34.25 -7.8 30.25 -3.3 28.1 1.0 25.5 7.8 21.25 13.5 13.15 L13.15 13.65 14.05 11.75 14.1 11.8 14.15 11.8 14.1 11.75 14.05 11.7 14.0 11.5 14.0 11.45 14.2 11.45 14.2 11.4 14.35 11.35 14.7 11.4 14.7 12.35 14.65 12.55 14.25 17.55 12.4 19.8 Q6.55 26.8 -1.15 31.45 -8.5 35.8 -16.7 37.2 L-16.75 37.2 Q-26.85 38.95 -34.8 37.5 -42.75 36.05 -49.15 32.45 L-49.25 32.4 -49.25 27.45 -49.35 27.05 Q-49.35 26.7 -48.6 26.7 L-48.3 27.0 -48.35 27.0 M13.4 14.4 L13.85 14.25 13.6 14.3 13.5 14.4 13.4 14.4" fill="#a46b26" fill-rule="evenodd" stroke="none"/>
    <path d="M2.65 -4.3 L2.6 -4.35 Q-1.2 -7.45 -9.45 -8.0 L-6.2 -7.25 Q-3.7 -6.4 -1.35 -4.75 L-0.25 -3.9 Q2.15 -1.95 2.15 -0.35 2.15 0.75 1.25 0.75 L-1.0 0.3 Q-2.7 -0.45 -4.4 -2.3 L-6.15 -4.3 -7.65 -5.95 -7.8 -6.15 -7.7 -5.95 -7.15 -5.0 Q-6.0 -3.3 -3.65 -0.95 L-3.1 -0.4 -0.25 2.15 Q1.25 3.25 2.0 3.25 5.0 3.25 5.25 0.5 5.25 -1.5 3.75 -3.2 L2.65 -4.3 M-10.15 -10.4 L-10.05 -10.3 Q-8.45 -8.45 -5.35 -7.9 L-1.75 -7.4 Q1.35 -6.15 3.25 -4.65 L4.05 -5.5 6.0 -8.55 Q6.0 -10.0 2.6 -12.0 L0.75 -12.95 -1.8 -13.85 Q-5.05 -14.75 -9.05 -14.75 -11.7 -14.75 -13.95 -13.2 L-14.45 -12.8 -13.3 -12.3 -10.15 -10.4 M1.25 -0.4 Q1.25 -1.6 -1.5 -3.7 L-3.5 -5.0 -5.45 -5.55 -3.35 -2.7 Q-2.1 -1.15 0.85 -0.25 L1.05 -0.1 Q1.25 0.0 1.25 -0.4 M11.8 10.65 Q11.25 6.55 9.15 2.95 L7.1 0.0 5.8 -1.4 6.15 0.5 Q6.15 1.45 5.35 2.7 4.3 4.25 2.75 4.25 L0.05 3.45 -0.65 3.25 Q-0.75 2.8 -0.75 3.45 L-0.05 7.0 -0.05 7.15 Q0.65 10.1 0.65 13.3 1.1 19.25 -0.9 21.1 L-1.6 21.55 -3.25 21.9 -3.9 21.75 -3.9 19.35 Q-3.35 16.5 -3.1 14.1 L-2.9 10.45 Q-2.9 6.05 -4.5 2.45 L-5.1 2.5 -10.75 -3.25 Q-12.9 -5.15 -17.9 -7.75 L-20.75 -7.3 Q-12.55 -5.75 -7.65 2.75 -7.65 4.25 -9.5 4.25 -10.35 4.25 -17.75 -1.75 -19.8 -3.45 -25.3 -4.5 L-31.65 -5.8 Q-37.4 -3.95 -42.2 0.05 -46.15 3.15 -47.8 7.8 -50.7 15.9 -47.75 23.65 L-47.15 25.1 -47.05 25.35 -47.0 25.4 Q-45.4 27.95 -42.65 29.25 L-42.7 29.25 Q-34.25 32.9 -25.05 32.4 L-25.0 32.4 Q-16.45 32.25 -8.7 28.45 L-8.65 28.45 Q-4.3 26.3 -0.05 23.8 7.4 19.15 12.0 11.15 L11.85 10.9 11.85 10.75 11.8 10.65 M-26.1 -9.1 L-25.35 -9.25 Q-25.6 -10.0 -25.5 -11.0 -25.5 -14.0 -19.85 -14.0 -18.15 -14.0 -16.3 -13.45 L-15.3 -14.2 Q-13.75 -15.0 -9.0 -16.0 L-7.5 -16.05 Q3.4 -16.05 7.25 -8.5 L4.75 -4.95 Q6.8 -3.4 8.6 -1.3 L8.65 -1.25 10.9 1.95 Q12.95 5.45 13.65 9.5 L15.2 9.4 15.75 9.55 16.1 9.9 16.25 10.4 16.25 17.9 16.05 18.55 13.95 21.1 Q7.85 28.3 -0.1 33.15 L-0.15 33.15 Q-7.8 37.7 -16.35 39.15 -25.95 40.95 -35.6 39.25 -42.9 38.0 -51.2 33.4 L-51.25 32.95 -51.25 26.4 -50.95 25.7 Q-50.65 25.4 -50.25 25.4 L-49.2 25.4 Q-53.05 16.5 -49.7 7.15 -47.85 1.95 -43.45 -1.5 -35.9 -7.8 -26.1 -9.15 L-26.1 -9.1 M-24.65 -9.35 Q-24.15 -7.8 -22.4 -7.8 L-19.1 -8.3 -14.65 -8.7 -14.0 -8.75 -14.8 -9.25 -15.4 -9.2 -17.75 -8.85 -18.6 -8.75 -18.65 -8.75 Q-20.4 -8.75 -20.8 -9.8 L-20.9 -10.0 Q-20.9 -11.65 -18.5 -11.65 L-17.05 -11.6 -15.75 -11.5 Q-13.35 -11.15 -11.9 -10.25 L-10.0 -8.65 -9.9 -8.9 Q-9.9 -9.8 -11.4 -10.75 L-13.15 -11.7 -14.95 -12.4 -16.7 -12.9 -21.5 -13.3 Q-24.9 -12.75 -24.9 -10.95 L-24.65 -9.35 M-29.55 -6.25 Q-22.5 -5.45 -17.05 -2.25 -14.15 -0.55 -10.0 3.25 L-9.45 3.35 Q-8.9 3.4 -8.9 3.0 -8.9 0.6 -13.05 -2.55 -18.4 -6.65 -26.4 -6.65 L-29.55 -6.25 M-15.7 -10.55 L-15.65 -10.15 -13.6 -9.5 Q-12.4 -8.95 -11.9 -9.0 -12.9 -10.0 -15.75 -10.8 L-15.7 -10.55 M-17.0 -11.1 Q-19.35 -11.5 -19.8 -10.0 L-16.9 -10.1 -17.0 -11.1 M-17.6 -7.75 L-15.75 -7.15 -13.9 -6.3 Q-11.75 -5.15 -9.95 -3.55 L-5.25 1.5 -5.0 1.4 -5.25 1.0 -9.0 -5.25 -11.15 -6.3 Q-13.45 -7.25 -16.15 -7.65 L-17.05 -7.8 -17.35 -7.8 -17.6 -7.75 M-4.15 0.15 L-5.15 -0.75 -4.2 0.8 -3.7 2.0 -2.9 4.6 Q-2.0 8.05 -2.0 10.5 L-2.05 12.4 Q-2.2 15.75 -3.0 19.65 L-3.0 20.9 Q0.65 20.05 -0.15 13.35 -0.15 11.65 -0.65 9.3 L-1.5 6.0 Q-2.4 3.1 -3.35 1.4 L-4.15 0.15 M14.05 11.75 L13.15 13.65 13.5 13.15 Q7.8 21.25 1.0 25.5 -3.3 28.1 -7.8 30.25 -15.95 34.25 -24.95 34.4 -34.65 34.9 -43.5 31.1 L-43.5 31.05 Q-46.5 29.65 -48.35 27.0 L-48.2 27.2 -48.2 27.1 -48.3 27.0 -48.6 26.7 Q-49.35 26.7 -49.35 27.05 L-49.25 27.45 -49.25 32.4 -49.15 32.45 Q-42.75 36.05 -34.8 37.5 -26.85 38.95 -16.75 37.2 L-16.7 37.2 Q-8.5 35.8 -1.15 31.45 6.55 26.8 12.4 19.8 L14.25 17.55 14.65 12.55 14.7 12.35 14.7 11.4 14.35 11.35 14.2 11.4 14.2 11.45 14.0 11.45 14.0 11.5 14.05 11.7 14.05 11.75" fill="#49261d" fill-rule="evenodd" stroke="none"/>
  </g>
</svg>
