<?xml version="1.0" encoding="UTF-8" standalone="no"?>
<svg xmlns:ffdec="https://www.free-decompiler.com/flash" xmlns:xlink="http://www.w3.org/1999/xlink" ffdec:objectType="shape" height="44.15px" width="68.05px" xmlns="http://www.w3.org/2000/svg">
  <g transform="matrix(1.0, 0.0, 0.0, 1.0, 54.8, 18.65)">
    <path d="M-4.7 0.2 Q-1.65 1.25 1.15 2.8 L5.4 5.2 5.7 5.4 5.6 4.7 Q5.05 1.8 4.05 0.15 3.2 -1.35 4.3 -0.45 L2.15 -2.75 0.6 -4.75 -3.6 -8.9 -4.85 -9.9 -5.05 -10.05 -6.0 -10.75 Q-8.95 -12.8 -12.4 -14.4 L-12.45 -14.45 -12.6 -14.5 Q-14.95 -15.5 -17.5 -16.1 L-17.55 -16.1 -29.75 -15.65 -29.8 -15.65 Q-38.9 -14.4 -46.2 -8.55 -50.0 -5.35 -51.75 -0.9 -53.05 2.8 -53.1 6.5 L-52.15 5.25 Q-50.0 2.35 -44.35 0.45 L-35.2 -2.25 Q-28.1 -3.95 -21.0 -2.8 -14.1 -2.5 -7.5 -0.65 L-4.7 0.2 M6.75 -6.05 Q3.0 -9.25 -1.45 -9.25 L2.6 -5.0 Q4.3 -3.8 6.6 -0.25 L7.85 0.5 Q10.05 0.5 10.0 -1.4 10.0 -3.35 6.75 -6.05 M-53.65 17.95 Q-54.65 14.85 -54.55 12.8 L-54.4 9.7 Q-55.45 3.55 -53.65 -1.6 -51.75 -6.65 -47.4 -10.1 -39.75 -16.25 -30.05 -17.8 L-30.0 -17.75 Q-22.5 -19.7 -15.1 -17.5 -10.2 -17.45 -6.9 -14.75 -4.9 -13.1 -4.4 -11.7 L-2.9 -10.5 Q3.7 -10.2 7.75 -6.5 10.9 -3.6 10.9 -1.4 10.9 1.4 8.35 1.4 L7.9 1.4 13.25 9.05 12.55 10.35 11.5 11.5 8.85 8.55 8.9 8.55 8.75 8.4 7.85 7.4 7.85 7.5 8.2 7.95 8.9 8.75 6.8 18.7 5.2 19.85 Q4.55 20.5 3.7 20.95 -0.5 22.7 -4.85 23.85 L-11.65 24.95 Q-23.15 25.95 -34.6 25.05 L-43.15 23.6 -47.55 22.45 Q-49.7 21.65 -51.6 20.5 -52.5 19.95 -53.0 19.0 L-53.45 18.0 -53.65 17.95 M12.0 9.15 L9.45 6.2 7.65 3.65 7.8 5.35 11.5 10.0 12.0 9.15 M-39.75 0.65 Q-44.6 1.8 -48.4 3.95 -52.2 6.05 -52.35 9.05 L-52.65 13.9 -52.2 13.25 Q-49.55 9.25 -45.15 7.25 L-42.8 6.35 Q-39.75 5.1 -36.65 4.4 L-28.5 3.05 Q-22.9 2.8 -17.25 3.15 L-12.45 3.95 Q-9.35 4.65 -6.35 5.85 -4.1 6.7 -1.95 7.85 -0.3 8.7 1.3 10.0 3.55 11.75 5.15 13.85 L6.0 15.0 6.5 8.9 6.0 8.2 Q4.25 6.1 0.3 4.45 -1.8 3.5 -3.95 2.7 L-5.0 2.35 Q-8.55 1.1 -12.35 0.25 L-23.2 -1.3 Q-29.85 -2.05 -39.9 0.6 L-39.75 0.6 -39.75 0.65 M-8.4 7.15 L-8.35 7.15 -8.45 7.1 Q-12.9 5.65 -17.4 5.15 -20.85 5.05 -24.25 5.1 L-32.5 5.75 -39.85 7.25 Q-44.15 8.55 -47.6 11.05 -49.55 12.4 -50.55 14.55 -39.4 17.1 -31.05 18.35 L-25.05 19.15 -17.15 19.65 -9.3 19.15 Q-4.4 18.4 -2.0 16.6 L-7.05 16.5 -24.95 17.5 -25.35 17.5 -33.0 17.25 -33.25 16.7 Q-33.25 15.5 -21.95 14.85 L-15.8 14.5 1.75 13.15 Q-1.5 12.05 -11.55 11.85 L-18.25 11.75 Q-42.4 11.75 -40.6 12.75 -41.0 12.75 -41.4 12.35 -39.8 10.6 -25.9 9.05 L-8.4 7.15" fill="#49261d" fill-rule="evenodd" stroke="none"/>
    <path d="M-12.45 -14.45 L-12.4 -14.4 Q-8.95 -12.8 -6.0 -10.75 L-5.05 -10.05 -4.85 -9.9 -3.6 -8.9 0.6 -4.75 2.15 -2.75 4.3 -0.45 Q3.2 -1.35 4.05 0.15 5.05 1.8 5.6 4.7 L5.7 5.4 5.4 5.2 1.15 2.8 Q-1.65 1.25 -4.7 0.2 L-4.7 -0.1 Q-4.5 -3.4 -6.65 -6.35 -9.55 -10.55 -17.6 -15.35 L-17.5 -16.1 Q-14.95 -15.5 -12.6 -14.5 L-12.55 -14.45 -12.45 -14.45" fill="#a43615" fill-rule="evenodd" stroke="none"/>
    <path d="M8.75 8.4 L8.9 8.55 8.85 8.55 8.8 8.5 8.75 8.4" fill="#cccccc" fill-rule="evenodd" stroke="none"/>
    <path d="M-4.7 0.2 L-7.5 -0.65 Q-14.1 -2.5 -21.0 -2.8 -28.1 -3.95 -35.2 -2.25 L-44.35 0.45 Q-50.0 2.35 -52.15 5.25 L-53.1 6.5 Q-53.05 2.8 -51.75 -0.9 -50.0 -5.35 -46.2 -8.55 -38.9 -14.4 -29.8 -15.65 L-29.75 -15.65 -17.55 -16.1 -17.65 -15.7 -17.6 -15.35 Q-9.55 -10.55 -6.65 -6.35 -4.5 -3.4 -4.7 -0.1 L-4.7 0.2" fill="#d2572b" fill-rule="evenodd" stroke="none"/>
    <path d="M-17.55 -16.1 L-17.5 -16.1 -17.6 -15.35 -17.65 -15.7 -17.55 -16.1" fill="#c3c3c3" fill-rule="evenodd" stroke="none"/>
    <path d="M-12.6 -14.5 L-12.45 -14.45 -12.55 -14.45 -12.6 -14.5 M-53.65 17.95 L-53.45 18.0 -53.05 19.6 -53.65 17.95 M-39.75 0.6 Q-34.95 -0.5 -39.75 0.65 L-39.75 0.6" fill="#64321a" fill-rule="evenodd" stroke="none"/>
    <path d="M6.75 -6.05 Q10.0 -3.35 10.0 -1.4 10.05 0.5 7.85 0.5 L6.6 -0.25 Q4.3 -3.8 2.6 -5.0 L-1.45 -9.25 Q3.0 -9.25 6.75 -6.05 M-39.75 0.6 L-39.9 0.6 Q-29.85 -2.05 -23.2 -1.3 L-12.35 0.25 Q-8.55 1.1 -5.0 2.35 L-3.95 2.7 Q-1.8 3.5 0.3 4.45 4.25 6.1 6.0 8.2 L6.5 8.9 6.0 15.0 5.15 13.85 Q3.55 11.75 1.3 10.0 -0.3 8.7 -1.95 7.85 -4.1 6.7 -6.35 5.85 -9.35 4.65 -12.45 3.95 L-17.25 3.15 Q-22.9 2.8 -28.5 3.05 L-36.65 4.4 Q-39.75 5.1 -42.8 6.35 L-45.15 7.25 Q-49.55 9.25 -52.2 13.25 L-52.65 13.9 -52.35 9.05 Q-52.2 6.05 -48.4 3.95 -44.6 1.8 -39.75 0.65 -34.95 -0.5 -39.75 0.6 M12.0 9.15 L11.5 10.0 7.8 5.35 7.65 3.65 9.45 6.2 12.0 9.15 M-8.45 7.1 L-8.4 7.15 -25.9 9.05 Q-39.8 10.6 -41.4 12.35 -41.0 12.75 -40.6 12.75 -42.4 11.75 -18.25 11.75 L-11.55 11.85 Q-1.5 12.05 1.75 13.15 L-15.8 14.5 -21.95 14.85 Q-33.25 15.5 -33.25 16.7 L-33.0 17.25 -25.35 17.5 -24.95 17.5 -7.05 16.5 -2.0 16.6 Q-4.4 18.4 -9.3 19.15 L-17.15 19.65 -25.05 19.15 -31.05 18.35 Q-39.4 17.1 -50.55 14.55 -49.55 12.4 -47.6 11.05 -44.15 8.55 -39.85 7.25 L-32.5 5.75 -24.25 5.1 Q-20.85 5.05 -17.4 5.15 -12.9 5.65 -8.45 7.1" fill="#a46b26" fill-rule="evenodd" stroke="none"/>
    <path d="M-8.4 7.15 L-8.45 7.1 -8.35 7.15 -8.4 7.15" fill="#783c1f" fill-rule="evenodd" stroke="none"/>
  </g>
</svg>
