<?xml version="1.0" encoding="UTF-8" standalone="no"?>
<svg xmlns:ffdec="https://www.free-decompiler.com/flash" xmlns:xlink="http://www.w3.org/1999/xlink" ffdec:objectType="shape" height="63.1px" width="20.8px" xmlns="http://www.w3.org/2000/svg">
  <g transform="matrix(1.0, 0.0, 0.0, 1.0, 7.9, 1.55)">
    <path d="M-0.85 57.55 L-0.9 57.4 -0.9 57.35 -0.85 57.55" fill="#4b3121" fill-rule="evenodd" stroke="none"/>
    <path d="M11.45 47.5 L11.95 56.0 11.95 56.1 11.95 56.4 11.65 57.1 11.2 57.4 11.65 57.15 Q10.2 60.6 7.75 61.3 5.15 62.25 1.4 59.85 L1.35 59.85 -0.2 58.2 -0.5 58.0 -0.85 57.55 -0.9 57.35 -1.6 47.8 -1.45 47.75 -1.4 47.75 0.2 47.2 0.8 54.65 1.15 55.3 1.25 56.3 1.25 56.4 Q1.5 57.55 2.45 58.2 L2.45 58.15 Q5.2 59.9 7.15 59.4 L8.5 58.5 9.65 56.65 9.95 56.0 9.05 46.7 11.1 47.35 11.45 47.5" fill="#6c3d28" fill-rule="evenodd" stroke="none"/>
    <path d="M0.2 47.2 L0.35 47.15 0.4 47.15 Q3.7 46.1 6.65 46.35 L6.7 46.35 6.8 46.35 6.9 47.95 Q6.85 51.9 8.5 58.5 L7.15 59.4 Q5.2 59.9 2.45 58.15 L2.45 58.2 Q1.5 57.55 1.25 56.4 L1.25 56.3 1.15 55.3 0.8 54.65 0.2 47.2" fill="#f1ba87" fill-rule="evenodd" stroke="none"/>
    <path d="M8.5 58.5 Q6.85 51.9 6.9 47.95 L6.8 46.35 8.8 46.65 9.05 46.7 9.95 56.0 9.65 56.65 8.5 58.5" fill="#db9c64" fill-rule="evenodd" stroke="none"/>
    <path d="M5.95 38.45 L6.15 38.45 8.25 38.8 4.4 -0.45 4.4 -0.7 4.65 -1.15 Q4.9 -1.5 5.3 -1.55 L6.05 -1.3 6.4 -0.65 Q8.75 17.2 10.2 31.95 L10.85 39.65 11.3 39.85 11.9 40.1 12.2 40.35 12.35 40.75 12.9 46.9 12.8 47.35 12.4 47.7 11.9 47.65 11.45 47.5 11.1 47.35 9.05 46.7 8.8 46.65 6.8 46.35 6.7 46.35 6.65 46.35 Q3.7 46.1 0.4 47.15 L0.35 47.15 0.2 47.2 -1.4 47.75 -1.45 47.75 -1.6 47.8 -1.95 47.95 -2.4 48.0 -2.8 47.75 -3.0 47.35 -3.75 41.2 -3.65 40.75 -3.35 40.45 -2.6 40.05 -2.6 40.1 -2.35 39.95 -3.25 31.95 Q-5.05 17.2 -7.9 0.4 L-7.45 0.2 Q-7.05 0.15 -6.75 0.4 -6.4 0.65 -6.1 -0.4 L-5.95 0.15 -5.75 0.95 Q-3.25 11.65 -1.15 31.95 L-0.45 39.25 Q2.75 38.2 5.95 38.45 M6.1 39.95 L6.0 39.95 Q2.95 39.65 -0.15 40.7 L-0.15 40.75 -1.95 41.45 -2.0 41.45 -2.2 41.55 -1.6 46.2 -0.05 45.7 Q3.45 44.6 6.65 44.85 L6.75 44.85 9.15 45.2 11.3 45.8 10.9 41.3 10.65 41.2 Q9.4 40.6 8.2 40.35 L8.15 40.35 6.1 39.95" fill="#3f2d44" fill-rule="evenodd" stroke="none"/>
    <path d="M1.15 -1.5 L1.15 -1.4 Q1.15 1.5 5.15 31.45 L5.2 31.95 5.95 38.45 Q2.75 38.2 -0.45 39.25 L-1.15 31.95 Q-3.25 11.65 -5.75 0.95 L-5.95 0.15 Q-4.5 -1.55 -2.35 -1.55 L1.15 -1.5 M6.65 44.85 Q3.45 44.6 -0.05 45.7 L-1.6 46.2 -2.2 41.55 -2.0 41.45 -1.95 41.45 -0.15 40.75 -0.15 40.7 Q2.95 39.65 6.0 39.95 L6.1 39.95 6.65 44.85" fill="#9878a9" fill-rule="evenodd" stroke="none"/>
    <path d="M5.95 38.45 L5.2 31.95 5.15 31.45 Q1.15 1.5 1.15 -1.4 L1.15 -1.5 1.5 -1.45 1.85 -1.45 3.65 -1.25 4.4 -0.7 4.4 -0.45 8.25 38.8 6.15 38.45 5.95 38.45 M6.1 39.95 L8.15 40.35 8.2 40.35 Q9.4 40.6 10.65 41.2 L10.9 41.3 11.3 45.8 9.15 45.2 6.75 44.85 6.65 44.85 6.1 39.95" fill="#584064" fill-rule="evenodd" stroke="none"/>
  </g>
</svg>
