<?xml version="1.0" encoding="UTF-8" standalone="no"?>
<svg xmlns:ffdec="https://www.free-decompiler.com/flash" xmlns:xlink="http://www.w3.org/1999/xlink" ffdec:objectType="shape" height="94.25px" width="104.95px" xmlns="http://www.w3.org/2000/svg">
  <g transform="matrix(1.0, 0.0, 0.0, 1.0, 35.35, 10.45)">
    <path d="M48.0 57.7 L47.75 49.15 41.85 49.15 Q42.65 53.65 42.85 57.65 L42.85 57.75 Q43.5 72.3 35.9 80.5 41.1 83.5 45.55 81.4 47.85 69.55 48.0 57.7 M40.95 47.65 L48.45 47.65 49.0 47.85 49.2 48.35 49.5 57.7 Q49.35 69.85 46.95 82.05 L46.8 82.35 46.55 82.6 Q40.95 85.55 34.3 81.3 L34.0 80.95 34.0 80.5 34.2 80.15 Q42.0 72.2 41.35 57.8 41.15 53.45 40.25 48.55 L40.25 48.1 40.55 47.8 Q40.7 47.65 40.95 47.65 M45.15 72.85 L44.45 73.15 Q44.05 73.15 43.75 72.85 43.45 72.55 43.45 72.15 43.45 71.75 43.75 71.45 44.05 71.15 44.45 71.15 44.85 71.15 45.15 71.45 L45.45 72.15 45.15 72.85 M43.5 78.9 Q43.05 79.4 42.35 79.4 41.65 79.4 41.15 78.9 40.7 78.45 40.7 77.75 40.7 77.05 41.15 76.55 41.65 76.1 42.35 76.1 43.05 76.1 43.5 76.55 44.0 77.05 44.0 77.75 44.0 78.45 43.5 78.9" fill="#4f3217" fill-rule="evenodd" stroke="none"/>
    <path d="M42.85 57.65 Q42.65 53.65 41.85 49.15 L47.75 49.15 48.0 57.7 42.85 57.65" fill="#603d1e" fill-rule="evenodd" stroke="none"/>
    <path d="M48.0 57.7 Q47.85 69.55 45.55 81.4 41.1 83.5 35.9 80.5 43.5 72.3 42.85 57.75 L42.85 57.65 48.0 57.7 M43.5 78.9 Q44.0 78.45 44.0 77.75 44.0 77.05 43.5 76.55 43.05 76.1 42.35 76.1 41.65 76.1 41.15 76.55 40.7 77.05 40.7 77.75 40.7 78.45 41.15 78.9 41.65 79.4 42.35 79.4 43.05 79.4 43.5 78.9 M45.15 72.85 L45.45 72.15 45.15 71.45 Q44.85 71.15 44.45 71.15 44.05 71.15 43.75 71.45 43.45 71.75 43.45 72.15 43.45 72.55 43.75 72.85 44.05 73.15 44.45 73.15 L45.15 72.85" fill="#6d4521" fill-rule="evenodd" stroke="none"/>
    <path d="M13.95 -9.6 L20.9 -10.45 30.3 -9.4 Q34.55 -8.4 38.5 -6.7 42.35 -4.95 45.9 -2.25 50.1 1.05 53.25 5.15 L57.45 11.25 Q59.9 15.15 62.0 19.4 L64.2 24.6 Q66.05 29.8 66.3 35.25 L66.4 40.4 67.85 41.95 68.5 42.85 68.9 43.85 69.55 46.4 69.6 47.7 Q69.5 48.55 69.05 49.15 L68.45 49.45 68.3 50.35 Q67.7 50.95 66.9 51.25 L63.1 52.2 60.45 52.85 48.45 53.65 40.25 53.85 Q35.75 54.0 31.25 53.7 L19.6 52.9 1.75 51.4 -3.0 50.9 -11.55 49.65 -23.8 47.15 Q-27.15 46.55 -30.2 45.2 L-34.05 43.25 Q-34.8 42.8 -35.0 42.1 -36.1 38.5 -33.85 35.45 -32.75 34.0 -31.0 33.4 -28.5 24.7 -24.1 17.05 L-22.15 14.0 Q-19.1 9.6 -15.15 5.7 -9.0 -0.45 -1.45 -4.85 1.7 -6.4 4.95 -7.5 9.35 -8.9 13.95 -9.6 M8.85 -6.4 L7.85 -6.1 Q5.15 -5.35 2.65 -4.15 -6.5 0.0 -11.6 4.8 -16.75 9.6 -20.7 14.15 -24.7 18.7 -26.2 24.75 -27.7 30.75 -30.15 34.55 L-30.2 35.5 -32.2 35.4 Q-35.2 38.4 -34.1 41.95 -26.1 44.8 -18.7 45.95 L-6.9 48.05 1.95 49.15 11.55 50.05 19.75 50.65 29.05 51.25 31.3 51.35 40.25 51.6 48.4 51.4 54.9 51.15 62.5 49.95 64.75 49.35 Q64.2 48.85 64.05 45.85 L59.95 45.55 59.8 45.55 58.55 45.65 58.05 45.7 54.05 46.0 55.2 45.9 Q47.4 46.35 39.5 46.1 L26.6 45.45 19.8 44.95 19.65 44.55 19.4 44.55 21.1 44.5 Q26.4 44.35 31.1 44.6 35.25 44.8 39.25 44.6 L47.65 43.85 56.65 42.35 Q61.2 41.35 61.8 34.75 62.35 28.05 62.2 26.7 62.0 25.3 61.1 22.85 58.3 15.6 53.85 9.4 48.15 1.45 39.8 -3.35 35.1 -6.15 29.8 -7.15 L20.9 -8.15 14.15 -7.6 8.85 -6.4" fill="#102305" fill-rule="evenodd" stroke="none"/>
    <path d="M-30.2 35.5 L-30.15 34.55 Q-27.7 30.75 -26.2 24.75 -24.7 18.7 -20.7 14.15 -16.75 9.6 -11.6 4.8 -6.5 0.0 2.65 -4.15 5.15 -5.35 7.85 -6.1 L8.85 -6.4 Q34.75 -0.95 37.05 19.05 39.3 39.05 21.1 44.5 L19.4 44.55 12.35 43.95 3.2 43.1 -5.05 42.3 -12.7 41.2 -23.6 39.0 Q-26.9 38.3 -29.45 36.55 L-30.2 35.5 M29.05 51.25 L19.75 50.65 11.55 50.05 1.95 49.15 -6.9 48.05 -18.7 45.95 Q-26.1 44.8 -34.1 41.95 -35.2 38.4 -32.2 35.4 -32.05 37.95 -31.5 38.25 -28.55 39.75 -25.25 40.8 L-14.95 43.05 -6.8 44.45 2.05 45.65 11.7 46.45 22.0 47.2 29.35 47.65 29.05 51.25 M-24.6 34.2 L-23.6 35.55 -23.25 35.7 -22.9 35.6 -22.65 35.35 Q-19.95 28.2 -14.4 24.3 -12.6 30.45 -6.3 38.45 L-6.05 38.65 Q-3.9 39.45 0.95 35.65 L1.1 35.4 1.1 35.1 0.95 34.8 Q-8.95 24.45 -12.4 15.55 -8.45 8.55 1.75 0.25 -13.6 8.35 -21.6 23.05 -23.6 25.85 -25.2 29.1 L-25.3 29.25 Q-25.55 30.4 -25.45 31.5 L-26.55 34.6 -24.1 35.5 -24.6 34.2 M-14.55 26.65 Q-19.15 30.3 -21.6 36.35 -14.95 38.3 -6.65 38.85 L-10.5 33.15 Q-13.7 30.15 -14.55 26.65" fill="#3f5a27" fill-rule="evenodd" stroke="none"/>
    <path d="M8.85 -6.4 L14.15 -7.6 20.9 -8.15 29.8 -7.15 Q35.1 -6.15 39.8 -3.35 48.15 1.45 53.85 9.4 58.3 15.6 61.1 22.85 62.0 25.3 62.2 26.7 62.35 28.05 61.8 34.75 61.2 41.35 56.65 42.35 L47.65 43.85 39.25 44.6 Q35.25 44.8 31.1 44.6 26.4 44.35 21.1 44.5 39.3 39.05 37.05 19.05 34.75 -0.95 8.85 -6.4 M64.05 45.85 Q64.2 48.85 64.75 49.35 L62.5 49.95 54.9 51.15 48.4 51.4 40.25 51.6 31.3 51.35 29.05 51.25 29.35 47.65 31.75 47.8 40.65 48.0 48.9 47.8 56.45 47.35 Q61.95 47.3 64.05 45.85" fill="#2b3b1e" fill-rule="evenodd" stroke="none"/>
    <path d="M19.4 44.55 L19.65 44.55 19.8 44.95 26.6 45.45 39.5 46.1 Q47.4 46.35 55.2 45.9 L54.05 46.0 58.05 45.7 58.55 45.65 59.8 45.55 59.95 45.55 64.05 45.85 Q61.95 47.3 56.45 47.35 L48.9 47.8 40.65 48.0 31.75 47.8 29.35 47.65 22.0 47.2 11.7 46.45 2.05 45.65 -6.8 44.45 -14.95 43.05 -25.25 40.8 Q-28.55 39.75 -31.5 38.25 -32.05 37.95 -32.2 35.4 L-30.2 35.5 -29.45 36.55 Q-26.9 38.3 -23.6 39.0 L-12.7 41.2 -5.05 42.3 3.2 43.1 12.35 43.95 19.4 44.55" fill="#364a26" fill-rule="evenodd" stroke="none"/>
    <path d="M-12.4 15.55 Q-8.95 24.45 0.95 34.8 L1.1 35.1 1.1 35.4 0.95 35.65 Q-3.9 39.45 -6.05 38.65 L-6.3 38.45 Q-12.6 30.45 -14.4 24.3 -19.95 28.2 -22.65 35.35 L-22.9 35.6 -23.25 35.7 -23.6 35.55 -24.6 34.2 Q-25.35 32.9 -25.45 31.5 -25.55 30.4 -25.3 29.25 L-25.2 29.1 Q-23.6 25.85 -21.6 23.05 -18.1 17.95 -13.5 14.5 L-13.2 14.4 -12.85 14.5 -12.65 14.75 -12.4 15.55 M-13.2 16.55 L-13.45 15.85 Q-19.85 21.0 -24.15 29.5 L-24.35 30.5 Q-24.45 32.4 -23.35 34.0 -20.35 26.8 -14.4 22.9 L-14.05 22.8 -13.75 22.95 -13.55 23.25 Q-12.0 29.4 -5.55 37.65 -3.9 37.9 -0.25 35.15 -9.7 25.2 -13.2 16.55" fill="#3a341b" fill-rule="evenodd" stroke="none"/>
    <path d="M-12.4 15.55 L-12.65 14.75 -12.85 14.5 -13.2 14.4 -13.5 14.5 Q-18.1 17.95 -21.6 23.05 -13.6 8.35 1.75 0.25 -8.45 8.55 -12.4 15.55 M-25.45 31.5 Q-25.35 32.9 -24.6 34.2 L-24.1 35.5 -26.55 34.6 -25.45 31.5 M-14.55 26.65 Q-13.7 30.15 -10.5 33.15 L-6.65 38.85 Q-14.95 38.3 -21.6 36.35 -19.15 30.3 -14.55 26.65" fill="#59703c" fill-rule="evenodd" stroke="none"/>
    <path d="M-13.35 18.35 Q-13.6 18.05 -13.9 18.0 L-14.4 18.05 -14.55 18.15 Q-20.3 22.35 -23.55 29.4 L-23.55 30.05 -23.15 30.55 -22.5 30.6 -22.0 30.15 Q-19.2 24.05 -14.4 20.2 -9.7 31.15 -4.75 35.5 L-4.15 35.7 Q-3.8 35.65 -3.55 35.4 L-3.35 34.8 -3.65 34.2 Q-8.55 29.85 -13.25 18.55 L-13.25 18.5 -13.35 18.35 M-13.2 16.55 Q-9.7 25.2 -0.25 35.15 -3.9 37.9 -5.55 37.65 -12.0 29.4 -13.55 23.25 L-13.75 22.95 -14.05 22.8 -14.4 22.9 Q-20.35 26.8 -23.35 34.0 -24.45 32.4 -24.35 30.5 L-24.15 29.5 Q-19.85 21.0 -13.45 15.85 L-13.2 16.55" fill="#656020" fill-rule="evenodd" stroke="none"/>
    <path d="M-13.35 18.35 L-13.25 18.5 -13.25 18.55 Q-8.55 29.85 -3.65 34.2 L-3.35 34.8 -3.55 35.4 Q-3.8 35.65 -4.15 35.7 L-4.75 35.5 Q-9.7 31.15 -14.4 20.2 -19.2 24.05 -22.0 30.15 L-22.5 30.6 -23.15 30.55 -23.55 30.05 -23.55 29.4 Q-20.3 22.35 -14.55 18.15 L-14.4 18.05 -13.9 18.0 Q-13.6 18.05 -13.35 18.35" fill="#969636" fill-rule="evenodd" stroke="none"/>
    <path d="M18.2 6.95 L18.0 5.65 18.5 6.6 21.5 3.65 18.7 7.0 19.5 9.0 18.35 7.4 16.0 11.2 17.35 14.05 Q19.3 10.6 22.25 7.9 L17.75 15.0 19.65 19.4 17.4 15.65 15.8 18.45 17.25 23.5 15.45 19.05 13.85 21.0 15.1 18.4 13.65 15.55 10.6 20.5 13.35 15.05 9.0 7.85 Q11.95 9.7 13.3 12.95 L13.85 14.15 15.25 11.45 12.5 6.65 Q14.4 7.7 15.25 9.55 L15.7 10.6 18.2 6.95 M17.0 14.75 L15.55 12.0 14.1 14.7 15.5 17.7 17.0 14.75 M16.1 27.75 Q19.7 21.55 24.25 16.15 L18.15 25.65 Q17.65 26.75 16.7 27.4 L16.1 27.75" fill="#364a26" fill-rule="evenodd" stroke="none"/>
  </g>
</svg>
