<?xml version="1.0" encoding="UTF-8" standalone="no"?>
<svg xmlns:ffdec="https://www.free-decompiler.com/flash" xmlns:xlink="http://www.w3.org/1999/xlink" ffdec:objectType="shape" height="80.95px" width="980.1px" xmlns="http://www.w3.org/2000/svg">
  <g transform="matrix(1.0, 0.0, 0.0, 1.0, 184.25, -320.0)">
    <path d="M707.05 337.1 L730.45 329.15 Q740.5 325.75 722.85 325.75 L253.7 325.75 Q236.0 325.75 235.9 329.15 L235.55 337.1 Q235.4 340.05 251.65 340.1 L682.1 340.1 Q698.25 340.1 707.05 337.1 M668.35 343.8 L252.7 343.8 Q236.85 343.8 236.75 346.55 L235.25 375.2 Q235.15 376.9 247.65 376.95 L574.8 376.95 Q587.15 376.95 592.3 375.2 L676.15 346.55 Q684.15 343.8 668.35 343.8 M220.15 375.0 L216.45 323.65 -140.5 323.65 -32.5 375.0 220.15 375.0 M758.1 322.2 Q776.1 322.2 765.2 325.75 L555.5 393.65 Q551.55 394.9 541.0 394.95 L9.3 394.9 Q-1.3 394.9 -4.1 393.65 L-153.65 325.75 Q-161.5 322.2 -143.5 322.2 L758.1 322.2" fill="#cccccc" fill-rule="evenodd" stroke="none"/>
    <path d="M668.35 343.8 Q684.15 343.8 676.15 346.55 L592.3 375.2 Q587.15 376.95 574.8 376.95 L247.65 376.95 Q235.15 376.9 235.25 375.2 L236.75 346.55 Q236.85 343.8 252.7 343.8 L668.35 343.8 M707.05 337.1 Q698.25 340.1 682.1 340.1 L251.65 340.1 Q235.4 340.05 235.55 337.1 L235.9 329.15 Q236.0 325.75 253.7 325.75 L722.85 325.75 Q740.5 325.75 730.45 329.15 L707.05 337.1 M784.75 320.0 Q802.95 320.0 791.3 323.65 L547.55 399.85 Q543.95 400.95 533.95 400.95 L9.0 400.95 Q-1.0 400.95 -3.65 399.85 L-181.55 323.65 Q-190.05 320.0 -171.8 320.0 L784.75 320.0 M758.1 322.2 L-143.5 322.2 Q-161.5 322.2 -153.65 325.75 L-4.1 393.65 Q-1.3 394.9 9.3 394.9 L541.0 394.95 Q551.55 394.9 555.5 393.65 L765.2 325.75 Q776.1 322.2 758.1 322.2 M220.15 375.0 L-32.5 375.0 -140.5 323.65 216.45 323.65 220.15 375.0 M204.85 367.45 L197.25 326.1 -119.5 326.1 Q-77.9 346.8 -36.35 367.45 L204.85 367.45" fill="#ffffff" fill-rule="evenodd" stroke="none"/>
    <path d="M204.85 367.45 L-36.35 367.45 Q-77.9 346.8 -119.5 326.1 L197.25 326.1 204.85 367.45" fill="#b3d3e3" fill-rule="evenodd" stroke="none"/>
    <path d="M47.15 357.65 Q46.35 357.35 46.0 356.85 55.55 354.0 58.0 354.0 64.35 354.0 65.0 355.0 L50.55 357.35 49.0 357.35 47.15 357.65 M62.3 357.75 L62.25 357.6 Q72.6 354.5 73.0 354.5 73.75 354.5 74.85 355.7 L80.25 354.5 Q62.5 353.65 62.5 352.5 L64.3 352.45 64.0 352.0 Q68.5 349.75 75.0 349.75 L83.95 349.45 Q91.0 349.45 91.0 351.0 91.0 352.15 85.5 352.6 86.4 352.85 86.5 353.25 85.35 354.1 82.5 355.25 93.7 354.45 97.0 355.0 L97.25 355.2 Q97.5 355.3 97.5 356.75 L97.3 358.35 96.05 358.7 94.1 358.4 90.0 357.85 78.3 358.65 73.0 358.35 68.95 358.45 62.3 357.75 M52.5 350.75 Q52.5 348.95 52.8 348.7 L55.0 348.5 Q56.0 348.5 56.2 348.8 L56.5 349.55 Q57.5 350.7 64.5 351.25 L55.0 353.5 53.2 352.9 Q52.5 352.4 52.5 350.75" fill="#e4a96b" fill-rule="evenodd" stroke="none"/>
    <path d="M97.3 358.35 Q104.4 356.6 106.5 356.6 122.75 356.6 127.1 358.65 L129.3 360.25 Q130.3 361.1 132.0 361.35 L132.25 362.1 127.0 361.7 125.15 361.55 125.25 361.6 123.2 362.9 Q122.9 363.6 121.0 364.35 118.45 365.35 115.0 365.35 L98.5 365.1 98.5 363.6 Q86.25 363.1 85.5 362.35 L86.2 361.9 79.65 360.75 76.65 361.3 77.5 362.0 83.25 362.35 83.5 363.1 66.25 364.3 50.5 364.6 39.35 363.75 Q30.0 362.85 29.5 362.35 26.55 362.2 37.35 359.75 L47.15 357.65 49.0 357.35 50.55 357.35 62.3 357.75 68.95 358.45 73.0 358.35 78.3 358.65 Q79.8 358.9 80.25 359.35 L80.5 360.1 80.1 360.5 93.2 359.4 95.9 358.7 96.05 358.7 97.3 358.35" fill="#ff6666" fill-rule="evenodd" stroke="none"/>
  </g>
</svg>
