<?xml version="1.0" encoding="UTF-8" standalone="no"?>
<svg xmlns:ffdec="https://www.free-decompiler.com/flash" xmlns:xlink="http://www.w3.org/1999/xlink" ffdec:objectType="shape" height="77.55px" width="77.55px" xmlns="http://www.w3.org/2000/svg">
  <g transform="matrix(1.0, 0.0, 0.0, 1.0, 25.95, 46.55)">
    <path d="M-10.85 -36.3 L-10.75 -36.05 -11.55 -35.7 -10.85 -36.3 M1.45 27.55 L-1.55 26.45 1.45 26.65 1.45 27.55" fill="#eaa76a" fill-rule="evenodd" stroke="none"/>
    <path d="M12.85 -46.55 Q28.85 -46.6 40.2 -35.2 51.6 -23.85 51.6 -7.8 51.6 8.25 40.2 19.6 28.85 30.95 12.85 31.0 L8.3 30.75 Q4.45 30.3 0.9 29.25 -2.15 28.25 -4.95 26.75 -10.15 24.0 -14.6 19.6 -26.0 8.25 -25.95 -7.8 -25.95 -21.35 -17.9 -31.55 L-15.0 -34.85 -14.85 -35.0 -14.7 -35.15 -14.65 -35.2 -14.5 -35.3 -14.45 -35.35 -13.15 -36.6 Q-2.25 -46.6 12.85 -46.55 M9.15 29.1 L12.85 29.25 Q28.15 29.2 39.0 18.35 49.85 7.5 49.85 -7.8 49.85 -23.15 39.0 -34.0 28.15 -44.85 12.85 -44.8 -0.8 -44.85 -10.85 -36.3 L-11.55 -35.7 -12.0 -35.3 -13.35 -34.0 -13.6 -33.8 -13.65 -33.75 -13.75 -33.65 -15.65 -31.55 -16.55 -30.45 Q-20.75 -25.1 -22.65 -18.75 L-23.65 -14.3 Q-24.15 -11.4 -24.2 -8.25 L-24.2 -7.8 -24.15 -5.9 -24.05 -4.05 Q-24.3 -0.55 -22.9 3.3 L-21.25 7.05 Q-18.55 13.2 -13.35 18.35 -9.15 22.6 -4.15 25.25 L-1.55 26.45 1.45 27.55 2.4 27.85 8.5 29.0 9.15 29.1" fill="#6c3d28" fill-rule="evenodd" stroke="none"/>
    <path d="M-1.55 26.45 L-4.15 25.25 Q-9.15 22.6 -13.35 18.35 -18.55 13.2 -21.25 7.05 L-20.85 7.75 Q-12.4 10.4 3.05 10.0 27.7 9.3 29.25 13.7 30.8 18.1 23.65 22.4 16.5 26.7 2.7 26.7 L1.45 26.65 -1.55 26.45" fill="#ffcc99" fill-rule="evenodd" stroke="none"/>
    <path d="M-15.65 -31.55 Q-20.5 -24.5 -22.65 -18.75 -20.75 -25.1 -16.55 -30.45 L-15.65 -31.55 M-24.15 -5.9 L-23.85 -4.05 -24.05 -4.05 -24.15 -5.9 M-22.9 3.3 L-22.35 3.15 Q-7.45 8.05 34.25 5.7 39.05 12.85 31.25 20.85 23.45 28.85 9.15 29.1 L8.5 29.0 2.4 27.85 1.45 27.55 1.45 26.65 2.7 26.7 Q16.5 26.7 23.65 22.4 30.8 18.1 29.25 13.7 27.7 9.3 3.05 10.0 -12.4 10.4 -20.85 7.75 L-21.25 7.05 -22.9 3.3" fill="#f1ba87" fill-rule="evenodd" stroke="none"/>
    <path d="M-10.85 -36.3 Q-0.8 -44.85 12.85 -44.8 28.15 -44.85 39.0 -34.0 49.85 -23.15 49.85 -7.8 49.85 7.5 39.0 18.35 28.15 29.2 12.85 29.25 L9.15 29.1 Q23.45 28.85 31.25 20.85 39.05 12.85 34.25 5.7 -7.45 8.05 -22.35 3.15 L-22.9 3.3 Q-24.3 -0.55 -24.05 -4.05 L-23.85 -4.05 -24.15 -5.9 -24.2 -7.8 -24.2 -8.25 Q-24.15 -11.4 -23.65 -14.3 L-22.65 -18.75 Q-20.5 -24.5 -15.65 -31.55 L-13.75 -33.65 -13.65 -33.75 -13.6 -33.8 -13.35 -34.0 -12.0 -35.3 -11.55 -35.7 -10.75 -36.05 -10.85 -36.3" fill="#db9c64" fill-rule="evenodd" stroke="none"/>
  </g>
</svg>
