<?xml version="1.0" encoding="UTF-8" standalone="no"?>
<svg xmlns:ffdec="https://www.free-decompiler.com/flash" xmlns:xlink="http://www.w3.org/1999/xlink" ffdec:objectType="shape" height="30.85px" width="41.2px" xmlns="http://www.w3.org/2000/svg">
  <g transform="matrix(1.0, 0.0, 0.0, 1.0, 21.75, 4.45)">
    <path d="M17.4 -4.35 L17.55 -4.45 19.0 2.3 Q19.85 7.5 19.05 15.0 L18.8 15.6 18.6 16.0 Q9.55 28.3 -5.8 26.05 -13.85 24.75 -18.6 16.6 -20.65 11.95 -21.75 10.1 L-21.35 9.75 -20.6 9.7 Q-12.6 12.5 -4.05 11.2 9.9 8.8 16.4 -3.8 L17.0 -4.3 17.35 -4.35 17.4 -4.35 M17.35 5.8 L17.4 5.7 17.4 5.6 17.0 0.2 16.9 -0.6 Q9.9 10.8 -3.7 13.15 L-3.75 13.15 Q-9.0 14.0 -14.05 13.3 L-14.8 13.15 -15.1 13.2 -15.5 13.1 -19.3 12.25 -18.15 13.65 -17.6 14.5 -16.9 15.6 -16.85 15.6 -16.8 15.7 -16.1 16.85 -16.1 16.8 -15.9 16.75 -11.85 19.45 -9.1 18.75 -8.7 18.65 -6.6 18.2 -6.45 18.15 -5.55 18.15 -5.45 18.4 -5.5 18.65 -5.55 18.65 Q-7.25 19.0 -10.5 20.2 L-11.0 21.7 -11.0 21.8 -11.05 21.95 -8.9 23.1 -5.5 24.1 -5.5 24.05 Q3.25 25.35 9.8 21.5 L10.25 21.25 10.55 21.05 14.35 17.85 14.95 17.25 17.0 14.8 17.05 14.75 17.05 14.7 17.3 14.7 17.35 13.9 Q16.4 13.1 15.85 13.1 13.6 13.1 11.85 13.9 L11.8 13.95 11.75 13.95 11.2 14.3 10.15 14.85 10.1 14.85 10.0 14.85 9.5 14.85 9.4 14.65 Q9.4 14.25 10.8 13.6 L11.25 13.4 11.3 13.4 11.8 13.2 12.75 12.85 12.85 12.8 13.0 12.75 16.15 11.5 Q16.9 10.4 17.45 8.75 L17.45 9.5 17.5 8.7 17.5 8.65 17.45 6.5 17.35 5.8 M10.25 21.25 L9.55 21.8 10.25 21.25 M-12.05 21.25 L-12.1 20.8 Q-12.1 20.55 -13.9 19.35 L-14.5 18.95 -14.35 19.15 -12.65 20.75 -11.2 21.85 -12.05 21.25" fill="#463624" fill-rule="evenodd" stroke="none"/>
    <path d="M17.4 5.6 L17.4 5.7 17.35 5.8 17.25 5.8 17.35 5.65 17.4 5.6 M11.25 13.4 L10.8 13.6 11.05 13.4 11.25 13.4 M11.8 13.95 L11.85 13.9 11.85 13.95 11.8 13.95 M14.35 17.85 L10.55 21.05 10.25 21.25 9.8 21.5 Q3.25 25.35 -5.5 24.05 L-5.5 24.1 -8.9 23.1 -8.3 23.3 Q-7.8 21.5 -6.4 20.6 -2.75 19.05 -1.6 18.3 -1.55 18.1 -1.65 18.05 L-4.2 17.95 -8.5 18.2 Q-13.8 18.2 -17.35 13.9 L-14.6 14.7 -6.1 15.45 Q-2.35 15.45 4.0 13.95 L10.55 11.45 Q12.35 10.65 13.75 9.6 13.3 10.8 12.8 11.2 8.75 14.25 8.75 14.95 L8.85 15.25 9.1 15.3 11.55 14.6 Q14.15 14.6 14.35 17.85" fill="#f9f9f9" fill-rule="evenodd" stroke="none"/>
    <path d="M17.35 5.8 L17.45 6.5 17.5 8.65 17.5 8.7 17.45 8.75 Q16.9 10.4 16.15 11.5 L13.0 12.75 12.85 12.8 12.75 12.85 11.8 13.2 11.3 13.4 11.25 13.4 11.05 13.4 10.8 13.6 Q9.4 14.25 9.4 14.65 L9.5 14.85 10.0 14.85 10.1 14.85 10.15 14.85 11.2 14.3 11.75 13.95 11.8 13.95 11.85 13.95 11.85 13.9 Q13.6 13.1 15.85 13.1 16.4 13.1 17.35 13.9 L17.3 14.7 17.05 14.7 17.05 14.75 17.0 14.8 14.95 17.25 14.35 17.85 Q14.15 14.6 11.55 14.6 L9.1 15.3 8.85 15.25 8.75 14.95 Q8.75 14.25 12.8 11.2 13.3 10.8 13.75 9.6 12.35 10.65 10.55 11.45 L4.0 13.95 Q-2.35 15.45 -6.1 15.45 L-14.6 14.7 -17.35 13.9 Q-13.8 18.2 -8.5 18.2 L-4.2 17.95 -1.65 18.05 Q-1.55 18.1 -1.6 18.3 -2.75 19.05 -6.4 20.6 -7.8 21.5 -8.3 23.3 L-8.9 23.1 -11.05 21.95 -11.0 21.8 -11.0 21.75 -11.0 21.7 -10.5 20.2 Q-7.25 19.0 -5.55 18.65 L-5.5 18.65 -5.45 18.4 -5.55 18.15 -6.45 18.15 -6.6 18.2 -8.7 18.65 -9.1 18.75 -11.85 19.45 -15.9 16.75 -16.1 16.8 -16.1 16.85 -16.8 15.7 -16.85 15.6 -16.9 15.6 -17.6 14.5 -18.15 13.65 -19.3 12.25 -15.5 13.1 -15.1 13.2 -14.8 13.15 -14.05 13.3 Q-9.0 14.0 -3.75 13.15 L-3.7 13.15 Q9.9 10.8 16.9 -0.6 L17.0 0.2 17.4 5.6 17.35 5.65 17.25 5.8 17.35 5.8" fill="#e5e5e5" fill-rule="evenodd" stroke="none"/>
    <path d="M-11.0 21.8 L-11.0 21.7 -11.0 21.75 -11.0 21.8 M-12.05 21.25 L-11.2 21.85 -12.65 20.75 -14.35 19.15 -14.5 18.95 -13.9 19.35 Q-12.1 20.55 -12.1 20.8 L-12.05 21.25" fill="#57352d" fill-rule="evenodd" stroke="none"/>
  </g>
</svg>
