<?xml version="1.0" encoding="UTF-8" standalone="no"?>
<svg xmlns:ffdec="https://www.free-decompiler.com/flash" xmlns:xlink="http://www.w3.org/1999/xlink" ffdec:objectType="shape" height="14.65px" width="27.85px" xmlns="http://www.w3.org/2000/svg">
  <g transform="matrix(1.0, 0.0, 0.0, 1.0, 9.8, -7.15)">
    <path d="M18.05 13.4 Q18.05 15.85 14.65 18.4 10.15 21.75 2.55 21.75 L-2.05 21.65 -2.1 21.65 -3.3 21.8 Q-10.2 21.8 -9.75 16.2 L-9.65 15.4 Q-9.0 12.45 -2.85 9.85 3.45 7.15 9.8 7.15 15.55 7.15 17.3 9.85 18.05 10.95 18.05 13.4 M-6.45 19.85 L-6.25 19.95 -5.3 20.35 Q6.45 21.5 11.8 18.35 16.15 15.8 16.15 13.05 16.15 8.9 8.55 8.9 0.75 8.9 -4.5 12.2 -6.6 13.5 -8.25 15.0 L-7.55 15.95 -6.95 16.7 Q-5.15 15.0 0.55 14.75 L1.8 15.0 1.9 15.15 -2.45 16.5 Q-3.35 16.8 -5.2 18.1 L-5.2 18.15 -5.3 18.35 -6.35 19.65 -6.7 19.75 -6.45 19.85" fill="#463624" fill-rule="evenodd" stroke="none"/>
    <path d="M-6.35 19.65 L-5.3 18.35 -5.2 18.15 -5.2 18.1 Q-3.35 16.8 -2.45 16.5 L1.9 15.15 1.8 15.0 0.55 14.75 Q-5.15 15.0 -6.95 16.7 L-7.55 15.95 -8.25 15.0 Q-6.6 13.5 -4.5 12.2 0.75 8.9 8.55 8.9 16.15 8.9 16.15 13.05 16.15 15.8 11.8 18.35 6.45 21.5 -5.3 20.35 L-6.25 19.95 -6.45 19.85 -6.35 19.65" fill="#e5e5e5" fill-rule="evenodd" stroke="none"/>
  </g>
</svg>
