<?xml version="1.0" encoding="UTF-8" standalone="no"?>
<svg xmlns:ffdec="https://www.free-decompiler.com/flash" xmlns:xlink="http://www.w3.org/1999/xlink" ffdec:objectType="shape" height="25.9px" width="35.65px" xmlns="http://www.w3.org/2000/svg">
  <g transform="matrix(1.0, 0.0, 0.0, 1.0, 15.0, 0.15)">
    <path d="M-7.25 9.6 L-5.35 11.2 Q-3.45 13.0 -2.95 13.0 -1.45 13.0 13.55 7.4 L15.05 7.35 Q17.65 7.35 18.25 8.0 L18.75 8.3 17.7 6.2 Q15.1 1.9 9.8 1.9 4.35 1.9 -3.5 7.0 L-7.25 9.6 -7.75 9.95 -7.25 9.6 M19.25 9.85 L19.15 9.85 Q17.85 9.85 17.45 9.25 17.1 8.65 14.85 8.65 11.2 8.65 4.6 11.4 -1.95 14.15 -2.8 14.15 -4.65 14.15 -8.1 10.25 L-8.75 10.8 -11.6 13.4 Q-9.15 15.2 -8.8 18.5 -8.65 20.4 -8.75 24.15 L-2.2 24.4 Q4.25 24.4 8.8 23.3 L8.85 23.3 9.65 23.05 8.75 23.3 8.7 23.05 Q8.7 22.6 9.45 22.2 10.2 21.85 10.2 21.5 9.45 21.3 8.8 20.75 6.05 23.25 3.55 23.25 -0.3 23.25 -0.3 20.3 -0.3 18.5 1.3 16.25 3.8 12.8 8.55 12.8 13.1 12.8 15.8 15.15 17.6 16.7 17.8 18.05 20.05 14.95 19.4 11.4 L19.25 9.9 19.15 9.4 19.25 9.85 M1.15 18.8 L0.8 20.05 Q0.8 21.9 2.95 21.9 6.0 21.9 8.25 19.8 9.8 18.35 10.4 16.65 L10.8 16.5 11.15 16.85 10.85 18.3 10.1 19.5 10.0 19.6 10.15 19.55 10.5 19.55 10.8 19.6 12.45 20.4 12.55 20.55 12.7 20.85 12.7 20.95 12.8 21.65 12.7 21.95 12.9 21.85 14.5 21.0 16.95 19.05 16.4 18.35 15.55 16.6 Q13.8 14.05 8.55 14.05 2.7 14.05 1.15 18.8 M11.35 16.85 L11.4 16.2 11.4 17.55 11.05 18.3 11.05 17.95 11.15 16.9 11.35 16.85 M18.55 19.15 Q13.45 25.75 -2.3 25.75 L-10.15 25.7 -10.3 25.45 Q-10.1 25.05 -10.25 24.75 L-10.1 23.4 -10.0 20.9 Q-10.0 14.4 -12.9 14.4 -13.45 14.4 -14.45 15.25 -15.0 15.05 -15.0 14.45 1.7 -0.15 11.4 -0.15 16.5 -0.15 19.1 5.4 20.4 8.2 20.65 11.25 20.65 16.4 18.55 19.15" fill="#463624" fill-rule="evenodd" stroke="none"/>
    <path d="M8.8 23.3 Q4.25 24.4 -2.2 24.4 L-8.75 24.15 Q-8.65 20.4 -8.8 18.5 -9.15 15.2 -11.6 13.4 L-8.75 10.8 -8.1 10.25 Q-4.65 14.15 -2.8 14.15 -1.95 14.15 4.6 11.4 11.2 8.65 14.85 8.65 17.1 8.65 17.45 9.25 17.85 9.85 19.15 9.85 L19.25 9.85 19.25 9.9 19.4 11.4 Q20.05 14.95 17.8 18.05 17.6 16.7 15.8 15.15 13.1 12.8 8.55 12.8 3.8 12.8 1.3 16.25 -0.3 18.5 -0.3 20.3 -0.3 23.25 3.55 23.25 6.05 23.25 8.8 20.75 9.45 21.3 10.2 21.5 10.2 21.85 9.45 22.2 8.7 22.6 8.7 23.05 L8.75 23.3 8.8 23.3" fill="#57352d" fill-rule="evenodd" stroke="none"/>
    <path d="M-7.25 9.6 L-3.5 7.0 Q4.35 1.9 9.8 1.9 15.1 1.9 17.7 6.2 L18.75 8.3 18.25 8.0 Q17.65 7.35 15.05 7.35 L13.55 7.4 Q-1.45 13.0 -2.95 13.0 -3.45 13.0 -5.35 11.2 L-7.25 9.6" fill="#e5e5e5" fill-rule="evenodd" stroke="none"/>
    <path d="M1.15 18.8 Q2.25 20.15 4.55 20.15 7.5 20.15 9.2 18.0 L10.9 15.8 Q14.05 15.8 14.55 20.4 L14.5 21.0 12.9 21.85 12.8 21.65 12.7 20.95 12.7 20.85 12.55 20.55 12.45 20.4 10.8 19.6 10.5 19.55 10.85 18.3 11.15 16.85 10.8 16.5 10.4 16.65 Q9.8 18.35 8.25 19.8 6.0 21.9 2.95 21.9 0.8 21.9 0.8 20.05 L1.15 18.8 M11.35 16.85 L11.15 16.9 11.05 17.95 11.05 18.3 11.4 17.55 11.4 16.2 11.35 16.85" fill="#a05345" fill-rule="evenodd" stroke="none"/>
    <path d="M14.5 21.0 L14.55 20.4 Q14.05 15.8 10.9 15.8 L9.2 18.0 Q7.5 20.15 4.55 20.15 2.25 20.15 1.15 18.8 2.7 14.05 8.55 14.05 13.8 14.05 15.55 16.6 L16.4 18.35 16.95 19.05 14.5 21.0 M10.85 18.3 L10.5 19.55 10.15 19.55 10.1 19.5 10.85 18.3" fill="#b45f50" fill-rule="evenodd" stroke="none"/>
  </g>
</svg>
