<?xml version="1.0" encoding="UTF-8" standalone="no"?>
<svg xmlns:ffdec="https://www.free-decompiler.com/flash" xmlns:xlink="http://www.w3.org/1999/xlink" ffdec:objectType="shape" height="7.85px" width="23.45px" xmlns="http://www.w3.org/2000/svg">
  <g transform="matrix(1.0, 0.0, 0.0, 1.0, 12.25, -12.8)">
    <path d="M9.1 14.5 L9.45 14.75 9.15 14.5 8.7 14.25 8.4 14.3 5.85 14.05 Q-4.65 14.05 -7.5 15.4 -6.95 16.5 -6.95 17.3 L-6.95 18.25 -1.8 17.55 1.7 17.85 Q1.8 16.7 3.55 15.55 5.5 14.3 8.05 14.3 L9.1 14.5 M8.55 13.1 Q11.3 13.8 11.2 17.15 11.2 19.9 9.15 19.9 L4.0 19.3 -2.3 18.65 Q-5.45 18.65 -8.05 19.65 -10.65 20.65 -11.3 20.65 L-11.75 20.55 -11.95 20.05 Q-11.95 19.4 -8.15 18.5 L-7.75 18.4 Q-8.7 17.5 -8.7 15.35 L-12.1 16.65 Q-12.25 17.05 -12.25 16.4 -12.25 15.65 -8.05 14.65 L-8.5 14.75 Q-8.0 14.2 -6.25 13.95 L-1.85 13.5 1.2 13.2 4.05 12.9 5.8 12.8 8.55 13.1 M7.6 15.85 Q5.65 15.8 5.05 16.25 4.0 16.95 3.95 17.65 3.9 18.0 3.1 18.0 L3.05 18.05 3.8 18.2 9.7 18.8 Q10.3 18.8 10.3 17.2 10.3 16.0 9.85 15.25 9.15 15.85 7.6 15.85" fill="#463624" fill-rule="evenodd" stroke="none"/>
    <path d="M9.15 14.5 L9.1 14.5 8.05 14.3 Q5.5 14.3 3.55 15.55 1.8 16.7 1.7 17.85 L-1.8 17.55 -6.95 18.25 -6.95 17.3 Q-6.95 16.5 -7.5 15.4 -4.65 14.05 5.85 14.05 L8.4 14.3 8.7 14.25 9.15 14.5" fill="#57352d" fill-rule="evenodd" stroke="none"/>
    <path d="M7.6 15.85 Q9.15 15.85 9.85 15.25 10.3 16.0 10.3 17.2 10.3 18.8 9.7 18.8 L3.8 18.2 3.05 18.05 3.1 18.0 Q3.9 18.0 3.95 17.65 4.0 16.95 5.05 16.25 5.65 15.8 7.6 15.85" fill="#b45f50" fill-rule="evenodd" stroke="none"/>
  </g>
</svg>
