<?xml version="1.0" encoding="UTF-8" standalone="no"?>
<svg xmlns:ffdec="https://www.free-decompiler.com/flash" xmlns:xlink="http://www.w3.org/1999/xlink" ffdec:objectType="shape" height="398.0px" width="790.1px" xmlns="http://www.w3.org/2000/svg">
  <g transform="matrix(1.0, 0.0, 0.0, 1.0, 97.15, -3.0)">
    <path d="M508.95 19.0 L242.95 19.0 Q232.95 19.0 232.95 29.0 L232.95 54.0 Q232.95 64.0 242.95 64.0 L508.95 64.0 Q518.95 64.0 518.95 54.0 L518.95 29.0 Q518.95 19.0 508.95 19.0 M506.95 77.0 L243.95 77.0 Q233.95 77.0 233.95 87.0 L233.95 218.0 Q233.95 228.0 243.95 228.0 L506.95 228.0 Q516.95 228.0 516.95 218.0 L516.95 87.0 Q516.95 77.0 506.95 77.0 M522.95 9.0 Q532.95 9.0 532.95 19.0 L532.95 340.0 Q532.95 350.0 522.95 350.0 L22.0 350.0 Q12.0 350.0 12.0 340.0 L12.0 19.0 Q12.0 9.0 22.0 9.0 L522.95 9.0 M221.95 13.0 L22.0 13.0 22.0 217.0 221.95 217.0 221.95 13.0" fill="#cccccc" fill-rule="evenodd" stroke="none"/>
    <path d="M533.95 3.0 Q543.95 3.0 543.95 13.0 L543.95 390.95 Q543.95 400.95 533.95 400.95 L9.0 400.95 Q-1.0 400.95 -1.0 390.95 L-1.0 13.0 Q-1.0 3.0 9.0 3.0 L533.95 3.0 M506.95 77.0 Q516.95 77.0 516.95 87.0 L516.95 218.0 Q516.95 228.0 506.95 228.0 L243.95 228.0 Q233.95 228.0 233.95 218.0 L233.95 87.0 Q233.95 77.0 243.95 77.0 L506.95 77.0 M508.95 19.0 Q518.95 19.0 518.95 29.0 L518.95 54.0 Q518.95 64.0 508.95 64.0 L242.95 64.0 Q232.95 64.0 232.95 54.0 L232.95 29.0 Q232.95 19.0 242.95 19.0 L508.95 19.0 M522.95 9.0 L22.0 9.0 Q12.0 9.0 12.0 19.0 L12.0 340.0 Q12.0 350.0 22.0 350.0 L522.95 350.0 Q532.95 350.0 532.95 340.0 L532.95 19.0 Q532.95 9.0 522.95 9.0 M210.95 177.0 L210.95 20.0 31.0 20.0 31.0 177.0 210.95 177.0 M221.95 13.0 L221.95 217.0 22.0 217.0 22.0 13.0 221.95 13.0" fill="#ffffff" fill-rule="evenodd" stroke="none"/>
    <path d="M210.95 177.0 L31.0 177.0 31.0 20.0 210.95 20.0 210.95 177.0" fill="#b3d3e3" fill-rule="evenodd" stroke="none"/>
    <path d="M578.15 65.05 Q589.9 65.05 588.2 75.25 L540.65 355.85 Q539.35 363.4 529.25 363.4 L17.85 363.15 Q7.5 363.15 6.6 355.55 L-27.45 72.45 Q-28.65 62.25 -16.65 62.35 L578.15 65.05 M548.9 131.95 L247.45 130.85 Q235.9 130.8 235.85 140.4 L235.45 257.8 Q235.4 266.15 246.2 266.2 L528.0 266.7 Q538.65 266.7 540.05 258.4 L558.8 141.5 Q560.25 132.0 548.9 131.95 M566.2 109.85 L570.15 85.15 Q571.75 75.15 560.1 75.1 L246.75 73.7 Q234.95 73.6 234.9 83.7 L234.8 108.55 Q234.75 118.25 246.4 118.35 L553.1 119.5 Q564.6 119.5 566.2 109.85 M5.6 256.45 L222.45 256.9 221.9 67.5 -16.2 66.4 5.6 256.45" fill="#cccccc" fill-rule="evenodd" stroke="none"/>
    <path d="M566.2 109.85 Q564.6 119.5 553.1 119.5 L246.4 118.35 Q234.75 118.25 234.8 108.55 L234.9 83.7 Q234.95 73.6 246.75 73.7 L560.1 75.1 Q571.75 75.15 570.15 85.15 L566.2 109.85 M548.9 131.95 Q560.25 132.0 558.8 141.5 L540.05 258.4 Q538.65 266.7 528.0 266.7 L246.2 266.2 Q235.4 266.15 235.45 257.8 L235.85 140.4 Q235.9 130.8 247.45 130.85 L548.9 131.95 M5.6 256.45 L-16.2 66.4 221.9 67.5 222.45 256.9 5.6 256.45 M11.6 221.95 L210.25 222.4 208.9 74.55 -4.65 73.6 11.6 221.95" fill="#ffffff" fill-rule="evenodd" stroke="none"/>
    <path d="M11.6 221.95 L-4.65 73.6 208.9 74.55 210.25 222.4 11.6 221.95" fill="#ff9999" fill-rule="evenodd" stroke="none"/>
    <path d="M578.15 65.05 L-16.65 62.35 Q-28.65 62.25 -27.45 72.45 L6.6 355.55 Q7.5 363.15 17.85 363.15 L529.25 363.4 Q539.35 363.4 540.65 355.85 L588.2 75.25 Q589.9 65.05 578.15 65.05 M592.1 59.0 Q603.9 59.0 602.15 69.2 L545.25 393.75 Q543.95 400.95 534.05 401.0 L9.1 401.0 Q-1.0 400.95 -1.95 393.7 L-43.65 66.3 Q-45.0 55.95 -33.0 56.1 L592.1 59.0" fill="#f3f3f3" fill-rule="evenodd" stroke="none"/>
    <path d="M663.4 192.6 Q677.75 192.6 672.5 200.25 L549.35 377.5 Q546.55 381.5 536.2 381.5 L14.1 381.4 Q3.6 381.35 1.85 377.35 L-75.45 198.5 Q-78.8 190.8 -64.1 190.8 L663.4 192.6 M647.6 207.65 Q652.55 200.15 638.3 200.15 L257.75 199.25 Q243.3 199.2 243.0 206.75 L242.2 224.75 Q241.8 231.7 255.5 231.75 L617.55 232.45 Q631.1 232.45 635.65 225.55 L647.6 207.65 M609.25 241.2 L256.25 240.55 Q242.7 240.5 242.45 247.1 L238.7 322.25 Q238.45 327.2 250.05 327.25 L554.1 327.5 Q565.55 327.5 568.9 322.55 L618.3 247.75 Q622.6 241.2 609.25 241.2 M224.7 321.7 L227.7 194.6 -62.85 193.9 -10.5 321.5 224.7 321.7" fill="#cccccc" fill-rule="evenodd" stroke="none"/>
    <path d="M682.45 188.0 Q696.95 188.0 691.4 195.75 L546.65 397.25 Q544.0 400.95 534.05 400.95 L9.1 400.95 Q-1.05 400.95 -2.75 397.25 L-96.45 193.85 Q-100.05 186.0 -85.25 186.05 L682.45 188.0 M663.4 192.6 L-64.1 190.8 Q-78.8 190.8 -75.45 198.5 L1.85 377.35 Q3.6 381.35 14.1 381.4 L536.2 381.5 Q546.55 381.5 549.35 377.5 L672.5 200.25 Q677.75 192.6 663.4 192.6 M609.25 241.2 Q622.6 241.2 618.3 247.75 L568.9 322.55 Q565.55 327.5 554.1 327.5 L250.05 327.25 Q238.45 327.2 238.7 322.25 L242.45 247.1 Q242.7 240.5 256.25 240.55 L609.25 241.2 M647.6 207.65 L635.65 225.55 Q631.1 232.45 617.55 232.45 L255.5 231.75 Q241.8 231.7 242.2 224.75 L243.0 206.75 Q243.3 199.2 257.75 199.25 L638.3 200.15 Q652.55 200.15 647.6 207.65 M211.8 300.75 L211.75 199.9 -47.6 199.3 -8.1 300.5 211.8 300.75 M224.7 321.7 L-10.5 321.5 -62.85 193.9 227.7 194.6 224.7 321.7" fill="#f8f8f8" fill-rule="evenodd" stroke="none"/>
    <path d="M211.8 300.75 L-8.1 300.5 -47.6 199.3 211.75 199.9 211.8 300.75" fill="#a3d78e" fill-rule="evenodd" stroke="none"/>
    <path d="M75.9 131.75 Q76.75 131.4 77.5 131.0 L77.25 131.75 Q76.0 134.0 73.6 136.75 72.0 138.6 72.0 140.0 72.0 142.5 72.75 142.25 L76.5 142.75 Q77.25 142.75 78.4 142.05 75.25 148.7 75.25 154.35 L73.25 162.15 Q71.25 169.85 71.25 172.0 71.25 173.5 71.7 173.8 L71.85 173.9 70.55 173.65 Q68.85 172.8 68.5 168.25 69.15 167.3 70.25 169.0 L71.0 169.0 Q70.75 167.1 68.8 160.75 67.0 154.75 67.0 154.0 68.15 145.4 72.25 137.55 73.95 134.3 75.9 131.75 M96.0 131.8 L96.5 131.25 97.85 132.7 Q97.0 132.1 96.0 131.8 M100.35 135.3 Q101.25 136.0 102.0 136.0 104.9 136.0 104.9 138.05 104.95 140.85 107.0 142.0 L109.0 140.75 Q109.0 136.4 111.0 134.0 L115.8 141.0 Q115.0 143.55 111.7 150.4 107.35 159.55 107.25 160.5 105.85 173.05 103.45 179.95 L100.6 179.15 Q99.85 177.6 100.1 175.55 101.0 171.8 101.0 170.25 101.0 170.0 99.75 169.75 95.55 172.7 94.75 171.8 94.55 170.25 93.75 170.25 90.6 172.85 87.0 173.75 L86.4 173.9 Q88.8 171.9 90.75 166.25 90.75 165.55 92.45 162.8 L96.25 156.65 Q101.75 146.85 101.75 138.5 101.2 136.65 100.35 135.3 M84.35 174.35 L79.2 174.55 76.5 174.0 72.55 173.95 73.55 173.95 Q75.55 169.6 76.0 163.0 77.85 168.75 80.0 168.75 82.5 168.75 83.0 168.25 L83.0 168.5 83.1 171.55 Q83.0 173.3 84.35 174.35 M92.75 136.25 L95.15 136.4 95.5 137.0 92.75 136.25 M89.0 143.0 Q90.4 141.95 91.0 142.25 L88.25 143.75 89.0 143.0" fill="#e4a96b" fill-rule="evenodd" stroke="none"/>
    <path d="M78.4 142.05 L80.95 140.0 Q85.05 136.3 86.25 135.5 85.8 138.15 88.0 139.0 90.85 137.6 92.95 135.3 L96.0 131.8 Q97.0 132.1 97.85 132.7 L99.0 134.0 100.35 135.3 Q101.2 136.65 101.75 138.5 101.75 146.85 96.25 156.65 L92.45 162.8 Q90.75 165.55 90.75 166.25 88.8 171.9 86.4 173.9 L84.35 174.35 Q83.0 173.3 83.1 171.55 L83.0 168.5 83.0 168.25 Q82.5 168.75 80.0 168.75 77.85 168.75 76.0 163.0 75.55 169.6 73.55 173.95 L72.55 173.95 71.85 173.9 71.7 173.8 Q71.25 173.5 71.25 172.0 71.25 169.85 73.25 162.15 L75.25 154.35 Q75.25 148.7 78.4 142.05 M82.85 179.55 L81.35 178.75 Q76.9 176.35 76.0 175.25 L79.5 175.0 86.6 176.5 93.9 178.5 93.85 178.5 87.0 179.0 84.0 179.5 82.85 179.55 M78.0 158.25 Q77.5 153.75 77.0 152.25 77.0 156.0 77.75 158.25 L78.0 158.25 M89.0 143.0 L88.25 143.75 91.0 142.25 Q90.4 141.95 89.0 143.0 M92.75 136.25 L95.5 137.0 95.15 136.4 92.75 136.25 M74.5 292.5 Q73.3 291.95 72.25 291.3 65.25 286.95 65.25 277.75 65.25 276.9 66.4 274.45 67.85 271.4 70.0 268.75 76.3 261.0 85.0 261.0 103.35 261.0 106.75 264.75 108.1 266.2 107.65 268.65 L106.25 273.25 109.4 274.4 Q111.45 275.3 112.0 277.0 109.9 283.35 108.4 284.15 L107.7 284.4 Q107.5 284.55 107.5 285.6 107.5 286.55 102.15 289.0 97.1 291.35 95.75 291.5 L99.35 292.5 74.5 292.5 M93.25 267.25 Q87.0 267.25 82.5 269.5 L82.0 269.75 93.5 267.75 96.0 267.5 93.25 267.25 M81.0 276.75 L90.25 275.0 Q86.25 275.0 81.0 276.75 M90.25 279.25 Q85.1 279.8 77.75 282.0 L76.75 282.25 78.35 282.5 Q83.05 282.5 85.95 281.5 87.15 281.05 90.25 279.25" fill="#edb777" fill-rule="evenodd" stroke="none"/>
    <path d="M75.9 131.75 L72.0 133.0 Q70.75 132.5 70.0 131.75 72.3 127.9 81.5 123.5 L79.0 121.75 Q80.7 119.35 84.25 117.55 87.25 116.0 89.0 116.0 99.5 116.0 105.6 119.4 108.0 120.7 111.55 123.55 L118.75 129.25 Q117.75 130.75 115.0 130.75 120.65 135.85 129.75 147.25 128.9 148.55 128.0 148.75 126.6 148.2 125.15 146.7 L123.0 144.75 Q123.75 147.0 123.25 148.25 124.5 148.75 122.0 148.75 121.15 148.75 115.8 141.0 L111.0 134.0 Q109.0 136.4 109.0 140.75 L107.0 142.0 Q104.95 140.85 104.9 138.05 104.9 136.0 102.0 136.0 101.25 136.0 100.35 135.3 L99.0 134.0 97.85 132.7 96.5 131.25 96.0 131.8 92.95 135.3 Q90.85 137.6 88.0 139.0 85.8 138.15 86.25 135.5 85.05 136.3 80.95 140.0 L78.4 142.05 Q77.25 142.75 76.5 142.75 L72.75 142.25 Q72.0 142.5 72.0 140.0 72.0 138.6 73.6 136.75 76.0 134.0 77.25 131.75 L77.5 131.0 Q76.75 131.4 75.9 131.75" fill="#7c522c" fill-rule="evenodd" stroke="none"/>
    <path d="M103.45 179.95 Q107.1 181.25 109.5 183.75 109.3 184.35 107.6 184.9 L104.0 185.5 85.0 184.0 Q80.7 184.0 76.75 182.25 79.5 179.9 82.85 179.55 L84.0 179.5 87.0 179.0 93.85 178.5 93.9 178.5 100.6 179.15 103.45 179.95 M99.35 292.5 L108.5 292.5 109.0 292.7 Q109.5 293.05 109.5 294.6 109.5 298.25 97.35 298.25 89.2 298.65 84.15 298.35 74.85 297.85 71.5 294.5 L71.5 293.0 Q73.0 293.0 73.0 292.5 L74.5 292.5 99.35 292.5" fill="#009999" fill-rule="evenodd" stroke="none"/>
  </g>
</svg>
