<?xml version="1.0" encoding="UTF-8" standalone="no"?>
<svg xmlns:ffdec="https://www.free-decompiler.com/flash" xmlns:xlink="http://www.w3.org/1999/xlink" ffdec:objectType="shape" height="185.0px" width="85.6px" xmlns="http://www.w3.org/2000/svg">
  <g transform="matrix(1.0, 0.0, 0.0, 1.0, 47.6, 136.7)">
    <path d="M-12.7 -116.25 Q-8.9 -127.6 -4.1 -132.05 0.35 -136.2 5.8 -133.75 L5.95 -133.75 Q13.0 -131.45 18.1 -93.4 L18.7 -88.45 Q24.0 -45.6 26.65 -27.45 L28.15 -18.85 Q23.25 -17.25 18.1 -16.5 L13.55 -16.1 Q3.1 -15.45 -7.1 -15.55 -18.3 -15.8 -29.05 -18.35 -32.5 -19.3 -34.85 -20.25 L-35.55 -20.45 -34.85 -28.05 -34.8 -28.4 Q-34.1 -28.5 -33.5 -28.85 -32.5 -20.9 -23.25 -19.4 L-7.6 -17.85 Q-10.5 -62.7 -1.2 -119.8 -2.65 -123.4 -4.1 -124.5 -6.5 -126.35 -12.7 -116.25 M-34.05 -34.3 Q-33.0 -42.05 -31.35 -50.0 L-30.95 -52.0 -30.5 -53.95 -30.8 -51.95 -31.15 -49.95 -33.4 -33.95 Q-33.7 -34.2 -34.05 -34.3 M2.9 -85.5 Q6.1 -89.9 6.45 -93.4 6.7 -96.7 4.4 -99.2 L-3.35 -92.9 -3.1 -93.4 Q2.9 -106.45 0.6 -114.5 L-0.45 -117.9 Q-9.45 -61.9 -6.6 -17.8 L2.0 -17.5 Q11.75 -17.35 16.6 -24.65 18.95 -28.2 15.65 -30.8 6.7 -38.0 -5.7 -38.1 L-6.1 -39.05 Q15.75 -47.05 10.6 -72.35 10.05 -75.1 8.05 -76.5 L3.3 -80.4 Q0.85 -82.65 2.9 -85.5" fill="#ded9cb" fill-rule="evenodd" stroke="none"/>
    <path d="M-36.3 -18.2 L-35.7 -18.0 -29.65 -16.15 -29.6 -16.15 Q-18.7 -13.5 -7.25 -13.25 3.05 -13.1 13.55 -13.75 L18.25 -14.2 18.3 -14.2 18.75 -10.2 13.75 -9.1 11.45 -8.65 10.75 -8.55 2.1 -8.3 -2.3 -8.45 -5.55 -8.5 -16.6 -9.45 -20.65 -9.95 -20.65 -10.0 -22.4 -10.2 -24.8 -10.6 -29.45 -11.6 -35.9 -13.35 -36.55 -13.55 -36.7 -13.65 -36.3 -18.2 M2.0 -7.1 L2.05 -7.1 10.6 -7.35 10.6 -7.2 10.6 -6.2 Q10.3 12.05 15.6 34.05 11.8 36.95 3.2 39.65 3.05 39.55 2.75 40.5 0.05 14.95 1.85 -5.9 L1.95 -6.9 2.0 -7.1 M-10.45 39.65 L-10.7 39.75 -13.55 39.75 Q-26.4 31.9 -17.25 -6.55 L-17.05 -7.5 -16.85 -8.25 -16.75 -8.25 -5.65 -7.35 -5.85 -6.9 -6.3 -5.95 Q-13.8 11.4 -10.45 39.65 M-31.5 28.4 L-31.6 28.4 -37.65 27.7 -39.35 27.4 Q-43.1 20.1 -38.25 -13.0 L-37.95 -12.9 -37.7 -12.8 -37.0 -12.45 -36.95 -12.45 -35.95 -12.15 -29.75 -10.4 -25.0 -9.45 -31.5 28.4" fill="#930000" fill-rule="evenodd" stroke="none"/>
    <path d="M-34.85 -29.4 Q-36.0 -29.6 -36.1 -30.95 -36.2 -32.35 -35.55 -32.95 L-35.0 -33.4 -34.95 -33.4 -34.25 -33.25 -34.2 -33.25 -33.65 -32.85 -33.65 -32.8 -33.55 -32.7 Q-33.0 -32.15 -33.0 -31.4 -33.0 -30.7 -33.6 -30.1 L-33.65 -30.05 Q-34.1 -29.6 -34.7 -29.45 L-34.85 -29.4 M-30.5 -53.95 L-30.3 -54.85 -29.85 -56.85 -28.15 -63.75 -26.55 -69.8 -26.0 -71.85 -25.35 -74.35 -24.8 -76.4 -19.9 -93.4 -12.8 -115.95 -12.7 -116.25 Q-6.5 -126.35 -4.1 -124.5 -2.65 -123.4 -1.2 -119.8 -10.5 -62.7 -7.6 -17.85 L-23.25 -19.4 Q-32.5 -20.9 -33.5 -28.85 L-32.95 -29.3 -32.9 -29.35 Q-32.0 -30.25 -32.0 -31.4 -32.0 -32.65 -32.9 -33.55 L-32.95 -33.55 -33.4 -33.95 -31.15 -49.95 -30.8 -51.95 -30.5 -53.95 M2.9 -85.5 Q0.85 -82.65 3.3 -80.4 L8.05 -76.5 Q10.05 -75.1 10.6 -72.35 15.75 -47.05 -6.1 -39.05 L-5.7 -38.1 Q6.7 -38.0 15.65 -30.8 18.95 -28.2 16.6 -24.65 11.75 -17.35 2.0 -17.5 L-6.6 -17.8 Q-9.45 -61.9 -0.45 -117.9 L0.6 -114.5 Q2.9 -106.45 -3.1 -93.4 L-3.35 -92.9 4.4 -99.2 Q6.7 -96.7 6.45 -93.4 6.1 -89.9 2.9 -85.5 M-5.3 -117.6 Q-6.5 -117.65 -7.45 -116.75 -8.3 -115.85 -8.3 -114.6 -8.3 -113.45 -7.45 -112.55 L-7.45 -112.5 Q-6.5 -111.65 -5.3 -111.6 L-5.25 -111.6 Q-4.1 -111.65 -3.25 -112.5 L-3.2 -112.55 Q-2.3 -113.45 -2.3 -114.6 -2.3 -115.85 -3.2 -116.75 L-3.25 -116.75 Q-4.1 -117.65 -5.25 -117.6 L-5.3 -117.6 M-5.25 -116.6 Q-4.5 -116.65 -3.95 -116.05 L-3.95 -116.0 Q-3.3 -115.45 -3.3 -114.6 -3.3 -113.85 -3.95 -113.25 -4.5 -112.65 -5.25 -112.6 -6.1 -112.65 -6.7 -113.25 L-6.75 -113.25 Q-7.3 -113.85 -7.3 -114.6 -7.3 -115.45 -6.75 -116.0 L-6.7 -116.05 Q-6.1 -116.65 -5.3 -116.6 L-5.25 -116.6 M-8.75 -94.95 Q-8.0 -95.0 -7.45 -94.4 L-7.45 -94.35 Q-6.8 -93.8 -6.8 -92.95 -6.8 -92.2 -7.45 -91.6 -8.0 -91.0 -8.75 -90.95 -9.6 -91.0 -10.2 -91.6 L-10.25 -91.6 Q-10.8 -92.2 -10.8 -92.95 -10.8 -93.8 -10.25 -94.35 L-10.2 -94.4 Q-9.6 -95.0 -8.8 -94.95 L-8.75 -94.95 M-8.8 -95.95 Q-10.0 -96.0 -10.95 -95.1 -11.8 -94.2 -11.8 -92.95 -11.8 -91.8 -10.95 -90.9 L-10.95 -90.85 Q-10.0 -90.0 -8.8 -89.95 L-8.75 -89.95 Q-7.6 -90.0 -6.75 -90.85 L-6.7 -90.9 Q-5.8 -91.8 -5.8 -92.95 -5.8 -94.2 -6.7 -95.1 L-6.75 -95.1 Q-7.6 -96.0 -8.75 -95.95 L-8.8 -95.95 M-11.05 -74.3 Q-12.25 -74.35 -13.2 -73.45 -14.05 -72.55 -14.05 -71.3 -14.05 -70.15 -13.2 -69.25 L-13.2 -69.2 Q-12.25 -68.35 -11.05 -68.3 L-11.0 -68.3 Q-9.85 -68.35 -9.0 -69.2 L-8.95 -69.25 Q-8.05 -70.15 -8.05 -71.3 -8.05 -72.55 -8.95 -73.45 L-9.0 -73.45 Q-9.85 -74.35 -11.0 -74.3 L-11.05 -74.3 M-9.05 -71.3 Q-9.05 -70.55 -9.7 -69.95 -10.25 -69.35 -11.0 -69.3 -11.85 -69.35 -12.45 -69.95 L-12.5 -69.95 Q-13.05 -70.55 -13.05 -71.3 -13.05 -72.15 -12.5 -72.7 L-12.45 -72.75 Q-11.85 -73.35 -11.05 -73.3 L-11.0 -73.3 Q-10.25 -73.35 -9.7 -72.75 L-9.7 -72.7 Q-9.05 -72.15 -9.05 -71.3 M-12.3 -52.65 Q-13.5 -52.7 -14.45 -51.8 -15.3 -50.9 -15.3 -49.65 -15.3 -48.5 -14.45 -47.6 L-14.45 -47.55 Q-13.5 -46.7 -12.3 -46.65 L-12.25 -46.65 Q-11.1 -46.7 -10.25 -47.55 L-10.2 -47.6 Q-9.3 -48.5 -9.3 -49.65 -9.3 -50.9 -10.2 -51.8 L-10.25 -51.8 Q-11.1 -52.7 -12.25 -52.65 L-12.3 -52.65 M-13.7 -51.1 Q-13.1 -51.7 -12.3 -51.65 L-12.25 -51.65 Q-11.5 -51.7 -10.95 -51.1 L-10.95 -51.05 Q-10.3 -50.5 -10.3 -49.65 -10.3 -48.9 -10.95 -48.3 -11.5 -47.7 -12.25 -47.65 -13.1 -47.7 -13.7 -48.3 L-13.75 -48.3 Q-14.3 -48.9 -14.3 -49.65 -14.3 -50.5 -13.75 -51.05 L-13.7 -51.1 M-12.25 -29.85 Q-11.5 -29.9 -10.95 -29.3 L-10.95 -29.25 Q-10.3 -28.7 -10.3 -27.85 -10.3 -27.1 -10.95 -26.5 -11.5 -25.9 -12.25 -25.85 -13.1 -25.9 -13.7 -26.5 L-13.75 -26.5 Q-14.3 -27.1 -14.3 -27.85 -14.3 -28.7 -13.75 -29.25 L-13.7 -29.3 Q-13.1 -29.9 -12.3 -29.85 L-12.25 -29.85 M-12.25 -30.85 L-12.3 -30.85 Q-13.5 -30.9 -14.45 -30.0 -15.3 -29.1 -15.3 -27.85 -15.3 -26.7 -14.45 -25.8 L-14.45 -25.75 Q-13.5 -24.9 -12.3 -24.85 L-12.25 -24.85 Q-11.1 -24.9 -10.25 -25.75 L-10.2 -25.8 Q-9.3 -26.7 -9.3 -27.85 -9.3 -29.1 -10.2 -30.0 L-10.25 -30.0 Q-11.1 -30.9 -12.25 -30.85" fill="#f2efea" fill-rule="evenodd" stroke="none"/>
    <path d="M28.15 -18.85 L26.65 -27.45 Q24.0 -45.6 18.7 -88.45 L18.1 -93.4 Q13.0 -131.45 5.95 -133.75 L5.8 -133.75 Q0.35 -136.2 -4.1 -132.05 -8.9 -127.6 -12.7 -116.25 L-12.8 -115.95 -19.9 -93.4 -24.8 -76.4 -25.35 -74.35 -26.0 -71.85 -26.55 -69.8 -28.15 -63.75 -29.85 -56.85 -30.3 -54.85 -30.5 -53.95 -30.95 -52.0 -31.35 -50.0 Q-33.0 -42.05 -34.05 -34.3 L-34.1 -34.3 -34.25 -33.25 -34.95 -33.4 -35.0 -33.4 -35.55 -32.95 Q-36.2 -32.35 -36.1 -30.95 -36.0 -29.6 -34.85 -29.4 L-34.85 -28.4 -34.8 -28.4 -34.85 -28.05 -35.55 -20.45 -35.8 -20.5 -37.35 -21.15 -37.35 -21.35 -37.05 -24.45 -37.05 -24.5 -37.1 -24.45 -36.85 -27.55 -37.25 -31.45 Q-37.4 -33.1 -36.05 -34.55 -34.95 -42.8 -33.15 -51.45 -33.7 -52.35 -33.7 -53.4 -33.7 -54.8 -32.85 -55.8 L-32.8 -55.85 -32.0 -56.55 -30.1 -64.25 -28.2 -71.5 -28.5 -72.9 Q-28.5 -74.35 -27.5 -75.35 L-27.45 -75.4 -27.05 -75.75 -22.0 -93.4 Q-18.4 -105.55 -14.7 -116.6 -10.65 -128.8 -5.5 -133.5 0.0 -138.55 6.6 -135.6 L6.5 -135.65 Q14.8 -133.5 20.45 -93.4 L20.95 -89.8 Q26.15 -50.4 32.75 -24.85 L33.75 -21.1 28.15 -18.85" fill="#58524e" fill-rule="evenodd" stroke="none"/>
    <path d="M28.15 -18.85 L33.75 -21.1 32.75 -24.85 32.45 -26.15 Q38.05 -23.3 38.0 -21.55 L38.0 -15.7 Q38.05 -14.6 36.3 -13.4 L35.7 -13.0 Q33.85 -11.95 30.65 -10.85 L25.6 -9.3 21.65 -8.35 19.05 -7.85 12.65 -7.0 12.65 -6.35 Q12.4 12.0 17.7 33.8 L17.65 34.55 17.35 35.15 Q13.55 39.15 3.35 42.3 L2.65 42.25 Q-3.25 39.4 -10.3 42.25 L-10.6 42.35 -17.7 41.9 Q-20.45 41.35 -22.65 40.25 -26.0 38.5 -28.15 35.4 L-28.3 34.85 -28.35 34.25 -27.95 32.45 -27.7 31.15 -28.65 31.0 -33.7 30.35 Q-36.7 30.05 -41.45 28.4 -46.35 26.65 -47.35 25.65 -47.7 25.25 -47.6 24.05 -47.4 21.55 -45.45 15.7 -42.55 6.9 -41.45 -15.65 L-40.95 -21.55 Q-40.95 -23.15 -37.1 -24.45 L-37.05 -24.5 -37.05 -24.45 -37.35 -21.35 -37.35 -21.15 -35.8 -20.5 -35.55 -20.45 -34.85 -20.25 Q-32.5 -19.3 -29.05 -18.35 -18.3 -15.8 -7.1 -15.55 3.1 -15.45 13.55 -16.1 L18.1 -16.5 Q23.25 -17.25 28.15 -18.85 M18.3 -14.2 L18.25 -14.2 13.55 -13.75 Q3.05 -13.1 -7.25 -13.25 -18.7 -13.5 -29.6 -16.15 L-29.65 -16.15 -35.7 -18.0 -36.3 -18.2 -36.6 -18.35 -36.65 -18.35 -37.5 -18.7 -39.15 -19.35 -39.45 -15.7 -39.5 -15.05 Q-39.05 -14.65 -37.95 -14.15 L-37.65 -14.05 -36.7 -13.65 -36.55 -13.55 -35.9 -13.35 -29.45 -11.6 -24.8 -10.6 -22.4 -10.2 -20.65 -10.0 -20.65 -9.95 -16.6 -9.45 -5.55 -8.5 -2.3 -8.45 2.1 -8.3 10.75 -8.55 11.45 -8.65 13.75 -9.1 18.75 -10.2 18.8 -10.2 25.2 -11.55 29.7 -12.85 34.05 -14.4 34.25 -14.5 35.25 -15.0 36.0 -15.75 36.0 -19.65 34.35 -18.85 Q31.55 -17.6 28.65 -16.6 23.6 -14.95 18.3 -14.2 M2.75 40.5 Q3.05 39.55 3.2 39.65 11.8 36.95 15.6 34.05 10.3 12.05 10.6 -6.2 L10.6 -7.2 10.6 -7.35 2.05 -7.1 2.0 -7.1 -2.35 -7.2 -2.4 -7.2 -5.65 -7.35 -16.75 -8.25 -16.85 -8.25 -22.65 -9.05 -22.65 -8.2 -22.65 -7.15 Q-22.55 11.6 -25.35 29.95 L-25.55 31.35 -25.85 32.1 -26.95 34.3 -27.25 34.85 -25.25 37.0 Q-23.15 38.85 -20.45 39.6 -17.4 40.4 -13.55 39.75 L-10.7 39.75 -10.45 39.65 Q-3.2 36.85 2.75 40.5 M-31.5 28.4 L-29.8 28.4 -27.75 28.2 -27.2 28.1 Q-24.55 10.7 -22.85 -7.2 L-22.75 -8.2 -22.65 -9.05 -24.95 -9.45 -25.0 -9.45 -29.75 -10.4 -35.95 -12.15 -36.95 -12.45 -37.0 -12.45 -37.7 -12.8 -37.95 -12.9 -38.25 -13.0 -38.35 -13.05 -38.4 -13.05 -39.6 -13.7 Q-41.05 5.8 -46.35 23.25 -45.4 26.05 -39.35 27.4 L-37.65 27.7 -31.6 28.4 -31.5 28.4" fill="#550000" fill-rule="evenodd" stroke="none"/>
    <path d="M18.3 -14.2 Q23.6 -14.95 28.65 -16.6 31.55 -17.6 34.35 -18.85 L36.0 -19.65 36.0 -15.75 35.25 -15.0 34.25 -14.5 34.05 -14.4 29.7 -12.85 25.2 -11.55 18.8 -10.2 18.75 -10.2 18.3 -14.2 M2.0 -7.1 L1.95 -6.9 1.85 -5.9 Q0.05 14.95 2.75 40.5 -3.2 36.85 -10.45 39.65 -13.8 11.4 -6.3 -5.95 L-5.85 -6.9 -5.65 -7.35 -2.4 -7.2 -2.35 -7.2 2.0 -7.1 M-22.65 -9.05 L-22.75 -8.2 -22.85 -7.2 Q-24.55 10.7 -27.2 28.1 L-27.75 28.2 -29.8 28.4 -31.5 28.4 -25.0 -9.45 -24.95 -9.45 -22.65 -9.05" fill="#770000" fill-rule="evenodd" stroke="none"/>
    <path d="M9.05 44.25 Q26.75 39.0 32.5 23.4 37.1 10.7 30.7 -7.2 32.05 -9.25 23.85 -7.7 L16.45 -6.65 16.35 -6.65 12.65 -6.35 12.65 -7.0 19.05 -7.85 21.65 -8.35 25.6 -9.3 30.65 -10.85 Q33.85 -11.95 35.7 -13.0 L36.3 -13.4 36.45 -12.65 36.45 -12.6 Q39.4 10.5 34.4 24.1 27.65 42.65 4.8 47.4 -3.9 49.2 -10.75 47.45 -17.65 45.6 -22.65 40.25 -20.45 41.35 -17.7 41.9 -14.35 44.4 -10.25 45.5 L-9.15 45.75 Q-3.6 46.85 3.15 45.7 L4.4 45.45 9.05 44.25 M-28.65 31.0 L-27.7 31.15 -27.95 32.45 -28.15 32.05 -28.65 31.0" fill="#112842" fill-rule="evenodd" stroke="none"/>
    <path d="M16.35 -6.65 L16.45 -6.65 23.85 -7.7 Q32.05 -9.25 30.7 -7.2 37.1 10.7 32.5 23.4 26.75 39.0 9.05 44.25 18.6 39.3 20.7 35.35 16.35 9.1 16.35 -6.65 M3.15 45.7 Q-3.6 46.85 -9.15 45.75 L-4.05 43.1 3.15 45.7" fill="#1b3e65" fill-rule="evenodd" stroke="none"/>
    <path d="M9.05 44.25 L4.4 45.45 3.15 45.7 -4.05 43.1 -9.15 45.75 -10.25 45.5 Q-14.35 44.4 -17.7 41.9 L-10.6 42.35 -10.3 42.25 Q-3.25 39.4 2.65 42.25 L3.35 42.3 Q13.55 39.15 17.35 35.15 L17.65 34.55 17.7 33.8 Q12.4 12.0 12.65 -6.35 L16.35 -6.65 Q16.35 9.1 20.7 35.35 18.6 39.3 9.05 44.25" fill="#163556" fill-rule="evenodd" stroke="none"/>
    <path d="M-36.7 -13.65 L-37.65 -14.05 -37.95 -14.15 Q-39.05 -14.65 -39.5 -15.05 L-39.45 -15.7 -39.15 -19.35 -37.5 -18.7 -36.65 -18.35 -36.6 -18.35 -36.3 -18.2 -36.7 -13.65 M-13.55 39.75 Q-17.4 40.4 -20.45 39.6 -23.15 38.85 -25.25 37.0 L-27.25 34.85 -26.95 34.3 -25.85 32.1 -25.55 31.35 -25.35 29.95 Q-22.55 11.6 -22.65 -7.15 L-22.65 -8.2 -22.65 -9.05 -16.85 -8.25 -17.05 -7.5 -17.25 -6.55 Q-26.4 31.9 -13.55 39.75 M-39.35 27.4 Q-45.4 26.05 -46.35 23.25 -41.05 5.8 -39.6 -13.7 L-38.4 -13.05 -38.35 -13.05 -38.25 -13.0 Q-43.1 20.1 -39.35 27.4" fill="#c10000" fill-rule="evenodd" stroke="none"/>
    <path d="M-34.8 -28.4 L-34.85 -28.4 -34.85 -29.4 -34.7 -29.45 Q-34.1 -29.6 -33.65 -30.05 L-33.6 -30.1 Q-33.0 -30.7 -33.0 -31.4 -33.0 -32.15 -33.55 -32.7 L-33.65 -32.8 -33.65 -32.85 -34.2 -33.25 -34.25 -33.25 -34.1 -34.3 -34.05 -34.3 Q-33.7 -34.2 -33.4 -33.95 L-32.95 -33.55 -32.9 -33.55 Q-32.0 -32.65 -32.0 -31.4 -32.0 -30.25 -32.9 -29.35 L-32.95 -29.3 -33.5 -28.85 Q-34.1 -28.5 -34.8 -28.4 M-11.05 -74.3 L-11.0 -74.3 Q-9.85 -74.35 -9.0 -73.45 L-8.95 -73.45 Q-8.05 -72.55 -8.05 -71.3 -8.05 -70.15 -8.95 -69.25 L-9.0 -69.2 Q-9.85 -68.35 -11.0 -68.3 L-11.05 -68.3 Q-12.25 -68.35 -13.2 -69.2 L-13.2 -69.25 Q-14.05 -70.15 -14.05 -71.3 -14.05 -72.55 -13.2 -73.45 -12.25 -74.35 -11.05 -74.3 M-8.8 -95.95 L-8.75 -95.95 Q-7.6 -96.0 -6.75 -95.1 L-6.7 -95.1 Q-5.8 -94.2 -5.8 -92.95 -5.8 -91.8 -6.7 -90.9 L-6.75 -90.85 Q-7.6 -90.0 -8.75 -89.95 L-8.8 -89.95 Q-10.0 -90.0 -10.95 -90.85 L-10.95 -90.9 Q-11.8 -91.8 -11.8 -92.95 -11.8 -94.2 -10.95 -95.1 -10.0 -96.0 -8.8 -95.95 M-8.75 -94.95 L-8.8 -94.95 Q-9.6 -95.0 -10.2 -94.4 L-10.25 -94.35 Q-10.8 -93.8 -10.8 -92.95 -10.8 -92.2 -10.25 -91.6 L-10.2 -91.6 Q-9.6 -91.0 -8.75 -90.95 -8.0 -91.0 -7.45 -91.6 -6.8 -92.2 -6.8 -92.95 -6.8 -93.8 -7.45 -94.35 L-7.45 -94.4 Q-8.0 -95.0 -8.75 -94.95 M-5.25 -116.6 L-5.3 -116.6 Q-6.1 -116.65 -6.7 -116.05 L-6.75 -116.0 Q-7.3 -115.45 -7.3 -114.6 -7.3 -113.85 -6.75 -113.25 L-6.7 -113.25 Q-6.1 -112.65 -5.25 -112.6 -4.5 -112.65 -3.95 -113.25 -3.3 -113.85 -3.3 -114.6 -3.3 -115.45 -3.95 -116.0 L-3.95 -116.05 Q-4.5 -116.65 -5.25 -116.6 M-5.3 -117.6 L-5.25 -117.6 Q-4.1 -117.65 -3.25 -116.75 L-3.2 -116.75 Q-2.3 -115.85 -2.3 -114.6 -2.3 -113.45 -3.2 -112.55 L-3.25 -112.5 Q-4.1 -111.65 -5.25 -111.6 L-5.3 -111.6 Q-6.5 -111.65 -7.45 -112.5 L-7.45 -112.55 Q-8.3 -113.45 -8.3 -114.6 -8.3 -115.85 -7.45 -116.75 -6.5 -117.65 -5.3 -117.6 M-13.7 -51.1 L-13.75 -51.05 Q-14.3 -50.5 -14.3 -49.65 -14.3 -48.9 -13.75 -48.3 L-13.7 -48.3 Q-13.1 -47.7 -12.25 -47.65 -11.5 -47.7 -10.95 -48.3 -10.3 -48.9 -10.3 -49.65 -10.3 -50.5 -10.95 -51.05 L-10.95 -51.1 Q-11.5 -51.7 -12.25 -51.65 L-12.3 -51.65 Q-13.1 -51.7 -13.7 -51.1 M-12.3 -52.65 L-12.25 -52.65 Q-11.1 -52.7 -10.25 -51.8 L-10.2 -51.8 Q-9.3 -50.9 -9.3 -49.65 -9.3 -48.5 -10.2 -47.6 L-10.25 -47.55 Q-11.1 -46.7 -12.25 -46.65 L-12.3 -46.65 Q-13.5 -46.7 -14.45 -47.55 L-14.45 -47.6 Q-15.3 -48.5 -15.3 -49.65 -15.3 -50.9 -14.45 -51.8 -13.5 -52.7 -12.3 -52.65 M-9.05 -71.3 Q-9.05 -72.15 -9.7 -72.7 L-9.7 -72.75 Q-10.25 -73.35 -11.0 -73.3 L-11.05 -73.3 Q-11.85 -73.35 -12.45 -72.75 L-12.5 -72.7 Q-13.05 -72.15 -13.05 -71.3 -13.05 -70.55 -12.5 -69.95 L-12.45 -69.95 Q-11.85 -69.35 -11.0 -69.3 -10.25 -69.35 -9.7 -69.95 -9.05 -70.55 -9.05 -71.3 M-12.25 -30.85 Q-11.1 -30.9 -10.25 -30.0 L-10.2 -30.0 Q-9.3 -29.1 -9.3 -27.85 -9.3 -26.7 -10.2 -25.8 L-10.25 -25.75 Q-11.1 -24.9 -12.25 -24.85 L-12.3 -24.85 Q-13.5 -24.9 -14.45 -25.75 L-14.45 -25.8 Q-15.3 -26.7 -15.3 -27.85 -15.3 -29.1 -14.45 -30.0 -13.5 -30.9 -12.3 -30.85 L-12.25 -30.85 M-12.25 -29.85 L-12.3 -29.85 Q-13.1 -29.9 -13.7 -29.3 L-13.75 -29.25 Q-14.3 -28.7 -14.3 -27.85 -14.3 -27.1 -13.75 -26.5 L-13.7 -26.5 Q-13.1 -25.9 -12.25 -25.85 -11.5 -25.9 -10.95 -26.5 -10.3 -27.1 -10.3 -27.85 -10.3 -28.7 -10.95 -29.25 L-10.95 -29.3 Q-11.5 -29.9 -12.25 -29.85" fill="#ccc6bb" fill-rule="evenodd" stroke="none"/>
  </g>
</svg>
