<?xml version="1.0" encoding="UTF-8" standalone="no"?>
<svg xmlns:ffdec="https://www.free-decompiler.com/flash" xmlns:xlink="http://www.w3.org/1999/xlink" ffdec:objectType="shape" height="16.05px" width="24.75px" xmlns="http://www.w3.org/2000/svg">
  <g transform="matrix(1.0, 0.0, 0.0, 1.0, 9.05, 10.35)">
    <path d="M6.75 -6.8 L7.65 -7.8 Q8.6 -8.65 9.75 -8.6 11.45 -8.65 12.7 -6.8 13.95 -4.95 13.95 -2.35 13.95 0.25 12.7 2.1 11.45 3.9 9.75 3.95 8.0 3.9 6.75 2.1 5.55 0.25 5.55 -2.35 5.55 -3.8 5.95 -5.0 6.2 -6.0 6.75 -6.8 M-6.25 -5.35 L-5.5 -6.25 Q-4.7 -6.95 -3.7 -6.95 -2.2 -6.95 -1.15 -5.35 -0.05 -3.8 -0.05 -1.5 -0.05 0.75 -1.15 2.35 -2.2 3.9 -3.7 3.95 -5.2 3.9 -6.25 2.35 -7.3 0.75 -7.3 -1.5 -7.35 -2.8 -7.0 -3.8 L-6.25 -5.35 Z" fill="none" stroke="#000000" stroke-linecap="round" stroke-linejoin="round" stroke-width="3.5"/>
  </g>
</svg>
