<?xml version="1.0" encoding="UTF-8" standalone="no"?>
<svg xmlns:ffdec="https://www.free-decompiler.com/flash" xmlns:xlink="http://www.w3.org/1999/xlink" ffdec:objectType="shape" height="17.45px" width="44.2px" xmlns="http://www.w3.org/2000/svg">
  <g transform="matrix(1.0, 0.0, 0.0, 1.0, 22.6, 23.55)">
    <path d="M7.15 -21.7 L7.15 -21.75 9.6 -22.05 Q12.55 -21.95 16.05 -18.75 19.75 -15.4 20.05 -12.05 20.15 -10.15 19.65 -9.2 19.15 -8.55 18.15 -8.55 17.45 -8.7 16.55 -10.25 L16.55 -10.3 14.25 -14.7 Q11.7 -19.9 9.1 -21.2 L9.1 -21.15 Q8.15 -21.7 7.15 -21.7 M-8.15 -20.8 Q-9.15 -20.8 -10.1 -20.25 L-10.1 -20.3 Q-12.7 -19.0 -15.25 -13.8 L-17.5 -9.4 -17.5 -9.35 Q-18.45 -7.8 -19.15 -7.65 -20.15 -7.65 -20.6 -8.3 -21.15 -9.25 -21.0 -11.15 -20.75 -14.5 -17.05 -17.85 -13.55 -21.05 -10.55 -21.15 L-8.15 -20.85 -8.15 -20.8" fill="#000000" fill-rule="evenodd" stroke="none"/>
    <path d="M7.15 -21.75 L7.15 -21.7 7.1 -21.7 7.15 -21.75 M-8.15 -20.85 L-8.05 -20.8 -8.15 -20.8 -8.15 -20.85" fill="#3a281b" fill-rule="evenodd" stroke="none"/>
    <path d="M7.15 -21.75 L7.1 -21.7 7.15 -21.7 Q8.15 -21.7 9.1 -21.15 L9.1 -21.2 Q11.7 -19.9 14.25 -14.7 L16.55 -10.3 16.55 -10.25 Q17.45 -8.7 18.15 -8.55 19.15 -8.55 19.65 -9.2 20.15 -10.15 20.05 -12.05 19.75 -15.4 16.05 -18.75 12.55 -21.95 9.6 -22.05 L7.15 -21.75 M7.1 -20.15 L4.85 -19.8 4.35 -19.6 Q4.05 -19.6 3.85 -19.8 L3.6 -20.3 3.75 -20.8 Q4.8 -22.3 5.4 -22.6 7.1 -23.7 9.65 -23.55 13.05 -23.5 17.1 -19.9 21.3 -16.05 21.6 -12.15 21.75 -9.6 20.95 -8.4 20.05 -6.95 18.1 -7.0 L18.05 -7.0 Q16.7 -7.0 15.25 -9.45 L15.2 -9.5 12.9 -14.0 Q10.6 -18.6 8.4 -19.8 L8.4 -19.85 7.15 -20.15 7.1 -20.15 M-8.15 -20.85 L-10.55 -21.15 Q-13.55 -21.05 -17.05 -17.85 -20.75 -14.5 -21.0 -11.15 -21.15 -9.25 -20.6 -8.3 -20.15 -7.65 -19.15 -7.65 -18.45 -7.8 -17.5 -9.35 L-17.5 -9.4 -15.25 -13.8 Q-12.7 -19.0 -10.1 -20.3 L-10.1 -20.25 Q-9.15 -20.8 -8.15 -20.8 L-8.05 -20.8 -8.15 -20.85 M-21.9 -7.5 Q-22.75 -8.7 -22.55 -11.25 -22.3 -15.15 -18.05 -19.0 -14.05 -22.6 -10.6 -22.65 -8.1 -22.8 -6.4 -21.7 -5.8 -21.4 -4.7 -19.9 L-4.6 -19.4 -4.85 -18.9 Q-5.05 -18.7 -5.35 -18.7 L-5.85 -18.9 -8.1 -19.25 -9.35 -18.95 -9.4 -18.9 Q-11.6 -17.7 -13.85 -13.1 L-16.2 -8.6 -16.2 -8.55 Q-17.7 -6.1 -19.05 -6.1 -21.05 -6.05 -21.9 -7.5" fill="#666666" fill-rule="evenodd" stroke="none"/>
  </g>
</svg>
