<?xml version="1.0" encoding="UTF-8" standalone="no"?>
<svg xmlns:ffdec="https://www.free-decompiler.com/flash" xmlns:xlink="http://www.w3.org/1999/xlink" ffdec:objectType="shape" height="11.35px" width="24.75px" xmlns="http://www.w3.org/2000/svg">
  <g transform="matrix(1.0, 0.0, 0.0, 1.0, 9.05, 7.05)">
    <path d="M5.55 -1.4 Q5.55 -2.3 5.95 -3.05 6.2 -3.65 6.75 -4.15 L7.65 -4.8 9.75 -5.3 Q11.45 -5.3 12.7 -4.15 13.95 -3.05 13.95 -1.4 13.95 0.25 12.7 1.4 11.45 2.5 9.75 2.55 8.0 2.5 6.75 1.4 5.55 0.25 5.55 -1.4 Z" fill="none" stroke="#000000" stroke-linecap="round" stroke-linejoin="round" stroke-width="3.5"/>
    <path d="M-1.15 1.55 Q-2.2 2.55 -3.7 2.55 -5.2 2.55 -6.25 1.55 -7.3 0.55 -7.3 -0.85 -7.35 -1.65 -7.0 -2.3 L-6.25 -3.25 -5.5 -3.8 -3.7 -4.25 Q-2.2 -4.25 -1.15 -3.25 -0.05 -2.3 -0.05 -0.85 -0.05 0.55 -1.15 1.55 Z" fill="none" stroke="#000000" stroke-linecap="round" stroke-linejoin="round" stroke-width="3.5"/>
  </g>
</svg>
