<?xml version="1.0" encoding="UTF-8" standalone="no"?>
<svg xmlns:ffdec="https://www.free-decompiler.com/flash" xmlns:xlink="http://www.w3.org/1999/xlink" ffdec:objectType="shape" height="17.45px" width="41.55px" xmlns="http://www.w3.org/2000/svg">
  <g transform="matrix(1.0, 0.0, 0.0, 1.0, 20.8, 22.65)">
    <path d="M3.5 -18.7 L3.0 -18.9 2.75 -19.4 2.9 -19.9 Q3.95 -21.4 4.55 -21.7 6.25 -22.8 8.8 -22.65 12.2 -22.6 16.25 -19.0 20.45 -15.15 20.75 -11.25 20.9 -8.7 20.1 -7.5 19.2 -6.05 17.25 -6.1 L17.2 -6.1 Q15.85 -6.1 14.4 -8.55 L14.35 -8.6 12.05 -13.1 Q9.75 -17.7 7.55 -18.9 L7.55 -18.95 6.3 -19.25 6.25 -19.25 4.0 -18.9 Q3.8 -18.7 3.5 -18.7 M6.3 -20.85 L6.25 -20.8 6.3 -20.8 Q7.3 -20.8 8.25 -20.25 L8.25 -20.3 Q10.85 -19.0 13.4 -13.8 L15.7 -9.4 15.7 -9.35 Q16.6 -7.8 17.3 -7.65 18.3 -7.65 18.8 -8.3 19.3 -9.25 19.2 -11.15 18.9 -14.5 15.2 -17.85 11.7 -21.05 8.75 -21.15 L6.3 -20.85 M-6.35 -19.95 L-8.75 -20.25 Q-11.75 -20.15 -15.25 -16.95 -18.95 -13.6 -19.2 -10.25 -19.35 -8.35 -18.8 -7.4 -18.35 -6.75 -17.35 -6.75 -16.65 -6.9 -15.7 -8.45 L-15.7 -8.5 -13.45 -12.9 Q-10.9 -18.1 -8.3 -19.4 L-8.3 -19.35 -6.35 -19.9 -6.25 -19.9 -6.35 -19.95 M-6.3 -18.35 L-7.55 -18.05 -7.6 -18.0 Q-9.8 -16.8 -12.05 -12.2 L-14.4 -7.7 -14.4 -7.65 Q-15.9 -5.2 -17.25 -5.2 -19.25 -5.15 -20.1 -6.6 -20.95 -7.8 -20.75 -10.35 -20.5 -14.25 -16.25 -18.1 -12.25 -21.7 -8.8 -21.75 -6.3 -21.9 -4.6 -20.8 -4.0 -20.5 -2.9 -19.0 L-2.8 -18.5 -3.05 -18.0 Q-3.25 -17.8 -3.55 -17.8 L-4.05 -18.0 -6.3 -18.35" fill="#666666" fill-rule="evenodd" stroke="none"/>
    <path d="M6.3 -20.85 L6.3 -20.8 6.25 -20.8 6.3 -20.85 M-6.35 -19.95 L-6.25 -19.9 -6.35 -19.9 -6.35 -19.95" fill="#3a281b" fill-rule="evenodd" stroke="none"/>
    <path d="M6.3 -20.8 L6.3 -20.85 8.75 -21.15 Q11.7 -21.05 15.2 -17.85 18.9 -14.5 19.2 -11.15 19.3 -9.25 18.8 -8.3 18.3 -7.65 17.3 -7.65 16.6 -7.8 15.7 -9.35 L15.7 -9.4 13.4 -13.8 Q10.85 -19.0 8.25 -20.3 L8.25 -20.25 Q7.3 -20.8 6.3 -20.8 M-6.35 -19.9 L-8.3 -19.35 -8.3 -19.4 Q-10.9 -18.1 -13.45 -12.9 L-15.7 -8.5 -15.7 -8.45 Q-16.65 -6.9 -17.35 -6.75 -18.35 -6.75 -18.8 -7.4 -19.35 -8.35 -19.2 -10.25 -18.95 -13.6 -15.25 -16.95 -11.75 -20.15 -8.75 -20.25 L-6.35 -19.95 -6.35 -19.9" fill="#000000" fill-rule="evenodd" stroke="none"/>
  </g>
</svg>
