<?xml version="1.0" encoding="UTF-8" standalone="no"?>
<svg xmlns:ffdec="https://www.free-decompiler.com/flash" xmlns:xlink="http://www.w3.org/1999/xlink" ffdec:objectType="shape" height="18.0px" width="27.15px" xmlns="http://www.w3.org/2000/svg">
  <g transform="matrix(1.0, 0.0, 0.0, 1.0, 10.6, 12.3)">
    <path d="M9.95 -10.55 Q11.95 -10.55 13.4 -8.45 14.8 -6.35 14.8 -3.3 14.8 -0.3 13.4 1.8 11.95 3.9 9.95 3.9 7.95 3.9 6.55 1.8 5.15 -0.3 5.15 -3.3 5.15 -5.0 5.6 -6.4 5.9 -7.5 6.55 -8.45 L7.6 -9.65 Q8.65 -10.55 9.95 -10.55 Z" fill="none" stroke="#000000" stroke-linecap="round" stroke-linejoin="round" stroke-width="3.5"/>
    <path d="M-4.65 -8.6 Q-2.95 -8.6 -1.75 -6.75 -0.5 -4.95 -0.45 -2.3 -0.5 0.3 -1.75 2.1 -2.95 3.95 -4.65 3.95 -6.4 3.95 -7.65 2.1 -8.85 0.3 -8.85 -2.3 -8.85 -3.75 -8.45 -4.95 L-7.65 -6.75 -6.75 -7.8 Q-5.8 -8.6 -4.65 -8.6 Z" fill="none" stroke="#000000" stroke-linecap="round" stroke-linejoin="round" stroke-width="3.5"/>
  </g>
</svg>
