<?xml version="1.0" encoding="UTF-8" standalone="no"?>
<svg xmlns:ffdec="https://www.free-decompiler.com/flash" xmlns:xlink="http://www.w3.org/1999/xlink" ffdec:objectType="shape" height="17.45px" width="44.2px" xmlns="http://www.w3.org/2000/svg">
  <g transform="matrix(1.0, 0.0, 0.0, 1.0, 22.6, 28.9)">
    <path d="M7.15 -27.1 L9.6 -27.4 Q12.55 -27.3 16.05 -24.1 19.75 -20.75 20.05 -17.4 20.15 -15.5 19.65 -14.55 19.15 -13.9 18.15 -13.9 17.45 -14.05 16.55 -15.6 L16.55 -15.65 14.25 -20.05 Q11.7 -25.25 9.1 -26.55 L9.1 -26.5 Q8.15 -27.05 7.15 -27.05 L7.15 -27.1 M-8.15 -26.15 Q-9.15 -26.15 -10.1 -25.6 L-10.1 -25.65 Q-12.7 -24.35 -15.25 -19.15 L-17.5 -14.75 -17.5 -14.7 Q-18.45 -13.15 -19.15 -13.0 -20.15 -13.0 -20.6 -13.65 -21.15 -14.6 -21.0 -16.5 -20.75 -19.85 -17.05 -23.2 -13.55 -26.4 -10.55 -26.5 L-8.15 -26.2 -8.15 -26.15" fill="#000000" fill-rule="evenodd" stroke="none"/>
    <path d="M7.15 -27.05 Q8.15 -27.05 9.1 -26.5 L9.1 -26.55 Q11.7 -25.25 14.25 -20.05 L16.55 -15.65 16.55 -15.6 Q17.45 -14.05 18.15 -13.9 19.15 -13.9 19.65 -14.55 20.15 -15.5 20.05 -17.4 19.75 -20.75 16.05 -24.1 12.55 -27.3 9.6 -27.4 L7.15 -27.1 7.1 -27.05 7.15 -27.05 M7.1 -25.5 L4.85 -25.15 4.35 -24.95 Q4.05 -24.95 3.85 -25.15 L3.6 -25.65 3.75 -26.15 Q4.8 -27.65 5.4 -27.95 7.1 -29.05 9.65 -28.9 13.05 -28.85 17.1 -25.25 21.3 -21.4 21.6 -17.5 21.75 -14.95 20.95 -13.75 20.05 -12.3 18.1 -12.35 L18.05 -12.35 Q16.7 -12.35 15.25 -14.8 L15.2 -14.85 12.9 -19.35 Q10.6 -23.95 8.4 -25.15 L8.4 -25.2 7.15 -25.5 7.1 -25.5 M-21.9 -12.85 Q-22.75 -14.05 -22.55 -16.6 -22.3 -20.5 -18.05 -24.35 -14.05 -27.95 -10.6 -28.0 -8.1 -28.15 -6.4 -27.05 -5.8 -26.75 -4.7 -25.25 L-4.6 -24.75 -4.85 -24.25 Q-5.05 -24.05 -5.35 -24.05 L-5.85 -24.25 -8.1 -24.6 -9.35 -24.3 -9.4 -24.25 Q-11.6 -23.05 -13.85 -18.45 L-16.2 -13.95 -16.2 -13.9 Q-17.7 -11.45 -19.05 -11.45 -21.05 -11.4 -21.9 -12.85 M-8.15 -26.2 L-10.55 -26.5 Q-13.55 -26.4 -17.05 -23.2 -20.75 -19.85 -21.0 -16.5 -21.15 -14.6 -20.6 -13.65 -20.15 -13.0 -19.15 -13.0 -18.45 -13.15 -17.5 -14.7 L-17.5 -14.75 -15.25 -19.15 Q-12.7 -24.35 -10.1 -25.65 L-10.1 -25.6 Q-9.15 -26.15 -8.15 -26.15 L-8.05 -26.15 -8.15 -26.2" fill="#666666" fill-rule="evenodd" stroke="none"/>
    <path d="M7.15 -27.1 L7.15 -27.05 7.1 -27.05 7.15 -27.1 M-8.15 -26.2 L-8.05 -26.15 -8.15 -26.15 -8.15 -26.2" fill="#3a281b" fill-rule="evenodd" stroke="none"/>
  </g>
</svg>
