<?xml version="1.0" encoding="UTF-8" standalone="no"?>
<svg xmlns:ffdec="https://www.free-decompiler.com/flash" xmlns:xlink="http://www.w3.org/1999/xlink" ffdec:objectType="shape" height="397.95px" width="544.95px" xmlns="http://www.w3.org/2000/svg">
  <g transform="matrix(1.0, 0.0, 0.0, 1.0, 1.0, -3.0)">
    <path d="M533.95 3.0 Q543.95 3.0 543.95 13.0 L543.95 390.95 Q543.95 400.95 533.95 400.95 L9.0 400.95 Q-1.0 400.95 -1.0 390.95 L-1.0 13.0 Q-1.0 3.0 9.0 3.0 L533.95 3.0 M506.95 77.0 Q516.95 77.0 516.95 87.0 L516.95 218.0 Q516.95 228.0 506.95 228.0 L243.95 228.0 Q233.95 228.0 233.95 218.0 L233.95 87.0 Q233.95 77.0 243.95 77.0 L506.95 77.0 M508.95 19.0 Q518.95 19.0 518.95 29.0 L518.95 54.0 Q518.95 64.0 508.95 64.0 L242.95 64.0 Q232.95 64.0 232.95 54.0 L232.95 29.0 Q232.95 19.0 242.95 19.0 L508.95 19.0 M522.95 9.0 L22.0 9.0 Q12.0 9.0 12.0 19.0 L12.0 340.0 Q12.0 350.0 22.0 350.0 L522.95 350.0 Q532.95 350.0 532.95 340.0 L532.95 19.0 Q532.95 9.0 522.95 9.0 M210.95 177.0 L210.95 20.0 31.0 20.0 31.0 177.0 210.95 177.0 M221.95 217.0 L22.0 217.0 22.0 13.0 221.95 13.0 221.95 217.0" fill="#ffffff" fill-rule="evenodd" stroke="none"/>
    <path d="M508.95 19.0 L242.95 19.0 Q232.95 19.0 232.95 29.0 L232.95 54.0 Q232.95 64.0 242.95 64.0 L508.95 64.0 Q518.95 64.0 518.95 54.0 L518.95 29.0 Q518.95 19.0 508.95 19.0 M506.95 77.0 L243.95 77.0 Q233.95 77.0 233.95 87.0 L233.95 218.0 Q233.95 228.0 243.95 228.0 L506.95 228.0 Q516.95 228.0 516.95 218.0 L516.95 87.0 Q516.95 77.0 506.95 77.0 M522.95 9.0 Q532.95 9.0 532.95 19.0 L532.95 340.0 Q532.95 350.0 522.95 350.0 L22.0 350.0 Q12.0 350.0 12.0 340.0 L12.0 19.0 Q12.0 9.0 22.0 9.0 L522.95 9.0 M221.95 217.0 L221.95 13.0 22.0 13.0 22.0 217.0 221.95 217.0" fill="#cccccc" fill-rule="evenodd" stroke="none"/>
    <path d="M210.95 177.0 L31.0 177.0 31.0 20.0 210.95 20.0 210.95 177.0" fill="#ff9999" fill-rule="evenodd" stroke="none"/>
  </g>
</svg>
