<?xml version="1.0" encoding="UTF-8" standalone="no"?>
<svg xmlns:ffdec="https://www.free-decompiler.com/flash" xmlns:xlink="http://www.w3.org/1999/xlink" ffdec:objectType="shape" height="15.35px" width="24.35px" xmlns="http://www.w3.org/2000/svg">
  <g transform="matrix(1.0, 0.0, 0.0, 1.0, 9.0, 9.65)">
    <path d="M7.05 -7.3 Q5.25 -4.45 5.65 -1.05 5.9 1.2 7.5 2.9 8.75 4.25 10.6 3.85 11.9 3.45 12.75 2.35 14.1 0.45 13.35 -1.7 L12.4 -3.5 11.65 -4.5 Q9.7 -6.65 7.3 -7.85 L7.05 -7.9 7.05 -7.3 Z" fill="none" stroke="#000000" stroke-linecap="round" stroke-linejoin="round" stroke-width="3.5"/>
    <path d="M-0.95 -7.4 L-6.75 -2.85 Q-7.6 -1.65 -6.95 0.6 -6.6 2.15 -5.6 3.05 -4.1 4.55 -2.35 3.4 L-1.2 2.35 Q-0.2 1.15 -0.1 -0.3 0.05 -3.1 -0.15 -5.65 -0.2 -6.35 -0.4 -7.05 L-0.55 -7.35 -0.95 -7.4 Z" fill="none" stroke="#000000" stroke-linecap="round" stroke-linejoin="round" stroke-width="3.5"/>
  </g>
</svg>
