<?xml version="1.0" encoding="UTF-8" standalone="no"?>
<svg xmlns:ffdec="https://www.free-decompiler.com/flash" xmlns:xlink="http://www.w3.org/1999/xlink" ffdec:objectType="shape" height="15.45px" width="40.35px" xmlns="http://www.w3.org/2000/svg">
  <g transform="matrix(1.0, 0.0, 0.0, 1.0, 19.95, 17.45)">
    <path d="M3.35 -14.75 L3.25 -14.7 3.3 -14.75 3.35 -14.75 M-3.6 -14.4 L-3.55 -14.4 -3.65 -14.4 -3.6 -14.4" fill="#3a281b" fill-rule="evenodd" stroke="none"/>
    <path d="M3.35 -14.75 L3.3 -14.75 5.55 -15.75 Q8.45 -16.45 12.7 -14.35 17.15 -12.15 18.4 -9.0 19.05 -7.25 18.8 -6.2 18.5 -5.4 17.55 -5.15 16.8 -5.1 15.5 -6.35 L12.1 -9.95 Q8.2 -14.25 5.35 -14.75 4.3 -15.0 3.35 -14.75 M-5.65 -14.25 Q-8.45 -13.45 -11.95 -8.85 L-15.0 -5.0 -15.05 -4.95 Q-16.25 -3.6 -16.95 -3.6 -17.95 -3.75 -18.3 -4.5 -18.65 -5.55 -18.1 -7.35 -17.2 -10.6 -12.95 -13.15 -8.9 -15.6 -5.95 -15.2 -4.6 -15.0 -3.6 -14.4 L-3.65 -14.4 -5.65 -14.25" fill="#000000" fill-rule="evenodd" stroke="none"/>
    <path d="M3.3 -14.75 L3.25 -14.7 3.35 -14.75 Q4.3 -15.0 5.35 -14.75 8.2 -14.25 12.1 -9.95 L15.5 -6.35 Q16.8 -5.1 17.55 -5.15 18.5 -5.4 18.8 -6.2 19.05 -7.25 18.4 -9.0 17.15 -12.15 12.7 -14.35 8.45 -16.45 5.55 -15.75 L3.3 -14.75 M0.3 -12.95 Q0.9 -14.65 1.4 -15.1 2.75 -16.65 5.2 -17.2 8.5 -18.1 13.4 -15.7 18.5 -13.2 19.85 -9.55 20.7 -7.15 20.25 -5.75 19.8 -4.1 17.9 -3.65 L17.85 -3.65 Q16.55 -3.25 14.45 -5.2 L10.95 -8.9 Q7.5 -12.7 5.05 -13.25 L3.75 -13.25 3.7 -13.25 Q2.15 -12.9 1.65 -12.25 L1.25 -11.95 0.7 -12.0 0.3 -12.4 0.3 -12.95 M-10.7 -7.9 L-10.75 -7.9 -13.9 -3.9 -13.9 -3.95 Q-15.8 -1.8 -17.15 -2.05 L-17.15 -2.1 Q-19.15 -2.4 -19.7 -3.95 -20.25 -5.35 -19.6 -7.75 -18.6 -11.55 -13.7 -14.5 -9.1 -17.3 -5.7 -16.7 -3.25 -16.35 -1.75 -14.95 -1.2 -14.5 -0.45 -12.85 -0.35 -12.6 -0.4 -12.35 L-0.75 -11.9 -1.3 -11.8 Q-1.6 -11.85 -1.75 -12.05 -2.3 -12.65 -3.85 -12.85 L-3.9 -12.9 -5.2 -12.8 -5.2 -12.75 Q-7.65 -12.0 -10.7 -7.9 M-3.6 -14.4 Q-4.6 -15.0 -5.95 -15.2 -8.9 -15.6 -12.95 -13.15 -17.2 -10.6 -18.1 -7.35 -18.65 -5.55 -18.3 -4.5 -17.95 -3.75 -16.95 -3.6 -16.25 -3.6 -15.05 -4.95 L-15.0 -5.0 -11.95 -8.85 Q-8.45 -13.45 -5.65 -14.25 L-3.65 -14.4 -3.55 -14.4 -3.6 -14.4" fill="#666666" fill-rule="evenodd" stroke="none"/>
  </g>
</svg>
