<?xml version="1.0" encoding="UTF-8" standalone="no"?>
<svg xmlns:ffdec="https://www.free-decompiler.com/flash" xmlns:xlink="http://www.w3.org/1999/xlink" ffdec:objectType="shape" height="19.85px" width="41.1px" xmlns="http://www.w3.org/2000/svg">
  <g transform="matrix(1.0, 0.0, 0.0, 1.0, 21.0, 20.85)">
    <path d="M10.5 -18.25 L10.45 -18.25 Q9.65 -19.05 8.75 -19.3 L11.15 -18.95 Q13.95 -18.0 16.45 -14.0 19.05 -9.75 18.45 -6.45 18.0 -4.6 17.25 -3.85 16.6 -3.3 15.65 -3.6 15.0 -3.95 14.55 -5.7 L14.55 -5.75 Q14.4 -6.2 13.6 -10.6 12.6 -16.3 10.5 -18.25 M-9.7 -18.45 L-11.45 -17.35 Q-13.55 -15.35 -14.5 -9.7 -15.3 -5.3 -15.45 -4.85 L-15.45 -4.8 Q-15.9 -3.05 -16.5 -2.7 -17.45 -2.4 -18.1 -2.9 -18.9 -3.65 -19.3 -5.5 -20.0 -8.8 -17.4 -13.05 -14.95 -17.1 -12.1 -18.1 L-9.7 -18.45" fill="#000000" fill-rule="evenodd" stroke="none"/>
    <path d="M10.5 -18.25 Q12.6 -16.3 13.6 -10.6 14.4 -6.2 14.55 -5.75 L14.55 -5.7 Q15.0 -3.95 15.65 -3.6 16.6 -3.3 17.25 -3.85 18.0 -4.6 18.45 -6.45 19.05 -9.75 16.45 -14.0 13.95 -18.0 11.15 -18.95 L8.75 -19.3 Q9.65 -19.05 10.45 -18.25 L10.5 -18.25 M8.25 -17.85 L6.0 -18.1 5.45 -18.05 5.05 -18.4 Q4.85 -18.65 4.95 -18.95 L5.2 -19.4 Q6.6 -20.5 7.3 -20.65 L11.65 -20.4 Q14.9 -19.4 17.75 -14.8 20.75 -10.0 19.95 -6.15 19.4 -3.65 18.3 -2.7 17.05 -1.55 15.15 -2.2 13.8 -2.55 13.1 -5.3 L12.1 -10.3 Q11.2 -15.35 9.4 -17.15 L8.3 -17.85 8.25 -17.85 M-5.9 -18.1 L-6.0 -17.55 -6.4 -17.2 -6.95 -17.25 -9.2 -17.0 -9.25 -16.95 Q-9.85 -16.8 -10.35 -16.3 L-10.35 -16.25 Q-12.15 -14.5 -13.0 -9.4 L-13.95 -4.4 -13.95 -4.45 Q-14.65 -1.65 -16.0 -1.25 -17.85 -0.6 -19.1 -1.75 -20.25 -2.7 -20.8 -5.15 -21.65 -9.0 -18.7 -13.85 -15.9 -18.5 -12.6 -19.5 L-8.3 -19.8 -6.2 -18.55 -5.9 -18.1 M-9.7 -18.45 L-9.65 -18.45 -9.7 -18.45 -12.1 -18.1 Q-14.95 -17.1 -17.4 -13.05 -20.0 -8.8 -19.3 -5.5 -18.9 -3.65 -18.1 -2.9 -17.45 -2.4 -16.5 -2.7 -15.9 -3.05 -15.45 -4.8 L-15.45 -4.85 Q-15.3 -5.3 -14.5 -9.7 -13.55 -15.35 -11.45 -17.35 L-9.7 -18.45" fill="#666666" fill-rule="evenodd" stroke="none"/>
    <path d="M-9.7 -18.45 L-9.65 -18.45 -9.7 -18.45" fill="#3a281b" fill-rule="evenodd" stroke="none"/>
  </g>
</svg>
