<?xml version="1.0" encoding="UTF-8" standalone="no"?>
<svg xmlns:ffdec="https://www.free-decompiler.com/flash" xmlns:xlink="http://www.w3.org/1999/xlink" ffdec:objectType="shape" height="15.5px" width="26.55px" xmlns="http://www.w3.org/2000/svg">
  <g transform="matrix(1.0, 0.0, 0.0, 1.0, 9.05, 9.75)">
    <path d="M7.9 -5.7 L7.85 -5.65 7.25 -4.35 7.2 -4.3 Q6.9 -3.3 6.95 -2.1 6.9 -0.25 7.65 1.15 10.15 -0.45 12.2 -0.8 L12.3 -2.05 12.4 -2.6 Q12.35 -2.45 10.75 -4.5 9.15 -6.55 8.8 -6.45 L8.45 -6.35 7.9 -5.7 M4.2 -5.2 L4.2 -5.15 Q4.55 -6.4 5.25 -7.4 L5.3 -7.45 6.5 -8.8 6.45 -8.75 Q7.4 -9.9 8.7 -9.75 9.95 -9.6 15.15 -4.1 L15.3 -2.1 15.35 -1.1 17.5 0.35 16.25 0.6 Q13.25 1.35 4.2 4.9 L4.05 4.7 Q3.75 4.2 3.95 3.65 4.1 3.15 4.6 2.9 L4.95 2.7 Q3.8 0.65 3.8 -2.1 3.8 -3.8 4.2 -5.2" fill="#000000" fill-rule="evenodd" stroke="none"/>
    <path d="M-1.8 -1.25 Q-1.85 -3.0 -2.65 -4.15 L-2.65 -4.2 -3.55 -5.05 Q-4.5 -4.5 -5.65 -1.25 L-5.9 -0.55 Q-5.8 0.7 -5.15 1.7 -4.6 2.55 -3.85 2.65 -3.2 2.55 -2.65 1.75 L-2.65 1.7 Q-1.85 0.45 -1.8 -1.25 M-2.45 -8.7 Q-1.3 -7.9 -0.05 -5.95 1.3 -4.05 1.35 -1.25 L1.35 -1.2 Q1.3 1.55 -0.05 3.5 L0.0 3.45 Q-1.55 5.85 -3.85 5.75 -6.15 5.85 -7.75 3.45 L-7.75 3.5 Q-8.9 1.8 -9.05 -0.5 L-4.35 -9.3 -2.45 -8.7" fill="#000000" fill-rule="evenodd" stroke="none"/>
  </g>
</svg>
