<?xml version="1.0" encoding="UTF-8" standalone="no"?>
<svg xmlns:ffdec="https://www.free-decompiler.com/flash" xmlns:xlink="http://www.w3.org/1999/xlink" ffdec:objectType="shape" height="15.6px" width="46.7px" xmlns="http://www.w3.org/2000/svg">
  <g transform="matrix(1.0, 0.0, 0.0, 1.0, 23.5, 22.8)">
    <path d="M3.0 -18.15 Q3.55 -19.85 4.05 -20.35 5.35 -21.9 7.8 -22.5 11.1 -23.45 16.0 -21.15 21.15 -18.75 22.6 -15.1 23.5 -12.75 23.05 -11.3 22.65 -9.7 20.75 -9.15 19.45 -8.75 17.3 -10.65 L17.3 -10.7 13.75 -14.3 13.7 -14.3 Q10.2 -18.05 7.75 -18.55 L6.45 -18.5 6.4 -18.5 Q4.85 -18.15 4.35 -17.5 L3.95 -17.15 3.4 -17.2 3.05 -17.6 3.0 -18.15 M6.0 -20.0 L8.0 -20.05 Q10.85 -19.6 14.85 -15.35 L18.3 -11.85 18.3 -11.8 Q19.65 -10.6 20.35 -10.65 21.35 -10.9 21.6 -11.7 21.8 -12.75 21.15 -14.55 19.85 -17.65 15.35 -19.75 11.05 -21.8 8.2 -21.05 6.85 -20.7 5.95 -20.0 L6.0 -20.0 M-21.8 -9.7 Q-21.45 -8.95 -20.45 -8.8 -19.75 -8.8 -18.55 -10.2 L-18.55 -10.25 -15.55 -14.15 Q-12.15 -18.85 -9.35 -19.7 L-9.4 -19.7 -7.35 -19.9 -7.3 -19.85 Q-8.3 -20.45 -9.7 -20.65 -12.65 -21.0 -16.65 -18.45 -20.85 -15.8 -21.7 -12.55 -22.15 -10.7 -21.8 -9.7 M-20.6 -7.25 Q-22.6 -7.5 -23.2 -9.1 -23.8 -10.45 -23.2 -12.9 -22.25 -16.7 -17.45 -19.75 -12.9 -22.65 -9.5 -22.15 -7.0 -21.85 -5.5 -20.45 -4.95 -20.05 -4.15 -18.4 L-4.1 -17.9 -4.45 -17.45 -4.95 -17.3 -5.4 -17.6 Q-6.0 -18.2 -7.55 -18.35 L-7.6 -18.35 -8.9 -18.25 -8.9 -18.2 Q-11.3 -17.4 -14.3 -13.25 L-17.35 -9.2 -17.4 -9.2 Q-19.3 -7.0 -20.6 -7.25" fill="#666666" fill-rule="evenodd" stroke="none"/>
    <path d="M5.95 -20.0 Q6.85 -20.7 8.2 -21.05 11.05 -21.8 15.35 -19.75 19.85 -17.65 21.15 -14.55 21.8 -12.75 21.6 -11.7 21.35 -10.9 20.35 -10.65 19.65 -10.6 18.3 -11.8 L18.3 -11.85 14.85 -15.35 Q10.85 -19.6 8.0 -20.05 L6.0 -20.0 5.95 -20.0 M-21.8 -9.7 Q-22.15 -10.7 -21.7 -12.55 -20.85 -15.8 -16.65 -18.45 -12.65 -21.0 -9.7 -20.65 -8.3 -20.45 -7.3 -19.85 L-7.35 -19.9 -9.4 -19.7 -9.35 -19.7 Q-12.15 -18.85 -15.55 -14.15 L-18.55 -10.25 -18.55 -10.2 Q-19.75 -8.8 -20.45 -8.8 -21.45 -8.95 -21.8 -9.7" fill="#000000" fill-rule="evenodd" stroke="none"/>
    <path d="M6.0 -20.0 L5.95 -20.0 6.0 -20.0" fill="#3a281b" fill-rule="evenodd" stroke="none"/>
  </g>
</svg>
