<?xml version="1.0" encoding="UTF-8" standalone="no"?>
<svg xmlns:ffdec="https://www.free-decompiler.com/flash" xmlns:xlink="http://www.w3.org/1999/xlink" ffdec:objectType="shape" height="311.7px" width="980.1px" xmlns="http://www.w3.org/2000/svg">
  <g transform="matrix(1.0, 0.0, 0.0, 1.0, 184.25, -89.25)">
    <path d="M629.6 155.3 Q633.7 146.1 619.75 146.15 L249.55 146.55 Q235.65 146.55 235.55 155.75 L235.3 177.85 Q235.1 186.35 248.45 186.4 L602.35 186.05 Q615.7 186.0 619.6 177.45 L629.6 155.3 M562.3 299.5 L604.5 205.1 Q608.2 196.9 595.0 196.9 L249.5 197.25 Q236.35 197.25 236.25 205.45 L235.0 299.65 Q234.9 306.0 246.35 306.0 L547.95 305.85 Q559.4 305.8 562.3 299.5 M547.4 370.3 Q544.9 375.5 534.5 375.5 L14.1 375.6 Q3.65 375.6 2.0 370.4 L-70.8 146.95 Q-73.85 137.65 -59.85 137.6 L643.6 136.75 Q657.65 136.7 653.25 146.05 L547.4 370.3 M221.1 299.05 L220.3 141.05 -58.75 141.4 -9.65 299.15 221.1 299.05" fill="#cccccc" fill-rule="evenodd" stroke="none"/>
    <path d="M661.8 131.0 Q675.95 130.95 671.35 140.5 L546.35 396.1 Q543.95 400.9 533.9 400.95 L8.95 400.95 Q-1.0 400.9 -2.65 396.1 L-90.75 141.4 Q-94.05 131.95 -79.95 132.0 L661.8 131.0 M562.3 299.5 Q559.4 305.8 547.95 305.85 L246.35 306.0 Q234.9 306.0 235.0 299.65 L236.25 205.45 Q236.35 197.25 249.5 197.25 L595.0 196.9 Q608.2 196.9 604.5 205.1 L562.3 299.5 M629.6 155.3 L619.6 177.45 Q615.7 186.0 602.35 186.05 L248.45 186.4 Q235.1 186.35 235.3 177.85 L235.55 155.75 Q235.65 146.55 249.55 146.55 L619.75 146.15 Q633.7 146.1 629.6 155.3 M547.4 370.3 L653.25 146.05 Q657.65 136.7 643.6 136.75 L-59.85 137.6 Q-73.85 137.65 -70.8 146.95 L2.0 370.4 Q3.65 375.6 14.1 375.6 L534.5 375.5 Q544.9 375.5 547.4 370.3 M207.85 272.55 L205.1 147.55 -44.25 147.85 -7.15 272.65 207.85 272.55 M221.1 299.05 L-9.65 299.15 -58.75 141.4 220.3 141.05 221.1 299.05" fill="#f8f8f8" fill-rule="evenodd" stroke="none"/>
    <path d="M207.85 272.55 L-7.15 272.65 -44.25 147.85 205.1 147.55 207.85 272.55" fill="#a3d78e" fill-rule="evenodd" stroke="none"/>
    <path d="M668.35 343.8 L252.7 343.8 Q236.85 343.8 236.75 346.55 L235.25 375.2 Q235.15 376.9 247.65 376.95 L574.8 376.95 Q587.15 376.95 592.3 375.2 L676.15 346.55 Q684.15 343.8 668.35 343.8 M707.05 337.1 L730.45 329.15 Q740.5 325.75 722.85 325.75 L253.7 325.75 Q236.0 325.75 235.9 329.15 L235.55 337.1 Q235.4 340.05 251.65 340.1 L682.1 340.1 Q698.25 340.1 707.05 337.1 M758.1 322.2 Q776.1 322.2 765.2 325.75 L555.5 393.65 Q551.55 394.9 541.0 394.95 L9.3 394.9 Q-1.3 394.9 -4.1 393.65 L-153.65 325.75 Q-161.5 322.2 -143.5 322.2 L758.1 322.2 M204.85 367.45 L-36.35 367.45 Q-77.9 346.8 -119.5 326.1 L197.25 326.1 204.85 367.45 M220.15 375.0 L216.45 323.65 -140.5 323.65 -32.5 375.0 220.15 375.0" fill="#cccccc" fill-rule="evenodd" stroke="none"/>
    <path d="M707.05 337.1 Q698.25 340.1 682.1 340.1 L251.65 340.1 Q235.4 340.05 235.55 337.1 L235.9 329.15 Q236.0 325.75 253.7 325.75 L722.85 325.75 Q740.5 325.75 730.45 329.15 L707.05 337.1 M668.35 343.8 Q684.15 343.8 676.15 346.55 L592.3 375.2 Q587.15 376.95 574.8 376.95 L247.65 376.95 Q235.15 376.9 235.25 375.2 L236.75 346.55 Q236.85 343.8 252.7 343.8 L668.35 343.8 M784.75 320.0 Q802.95 320.0 791.3 323.65 L547.55 399.85 Q543.95 400.95 533.95 400.95 L9.0 400.95 Q-1.0 400.95 -3.65 399.85 L-181.55 323.65 Q-190.05 320.0 -171.8 320.0 L784.75 320.0 M758.1 322.2 L-143.5 322.2 Q-161.5 322.2 -153.65 325.75 L-4.1 393.65 Q-1.3 394.9 9.3 394.9 L541.0 394.95 Q551.55 394.9 555.5 393.65 L765.2 325.75 Q776.1 322.2 758.1 322.2 M204.85 367.45 L197.25 326.1 -119.5 326.1 Q-77.9 346.8 -36.35 367.45 L204.85 367.45 M220.15 375.0 L-32.5 375.0 -140.5 323.65 216.45 323.65 220.15 375.0" fill="#f3f3f3" fill-rule="evenodd" stroke="none"/>
    <path d="M129.3 116.5 L128.4 117.5 Q126.55 119.3 124.5 120.0 L122.75 120.75 130.25 122.5 131.0 124.0 Q124.2 129.0 95.0 129.0 L90.0 128.55 Q89.5 127.0 87.25 124.75 87.25 122.95 89.0 122.25 L89.0 122.0 Q85.75 121.2 83.15 118.25 L82.6 117.6 Q83.7 117.0 84.5 117.0 85.75 117.0 85.75 118.0 85.75 119.0 87.0 119.0 L90.15 117.1 93.0 116.6 93.0 120.5 95.5 121.0 Q97.4 121.0 103.0 117.0 103.35 117.6 103.55 119.95 103.65 121.0 106.0 121.0 107.5 121.0 107.75 120.5 L108.0 120.0 108.0 118.5 108.75 119.75 Q108.55 124.2 112.0 127.0 L114.0 125.75 Q114.0 115.9 115.5 107.25 L118.4 111.9 Q120.25 113.75 125.0 113.75 L126.3 113.5 Q126.7 113.4 127.05 113.75 L129.3 116.5 M91.25 116.35 L92.75 115.25 93.0 116.0 93.0 116.2 91.25 116.35 M114.7 96.3 L115.45 96.6 119.0 99.55 Q122.8 102.95 123.25 104.25 L123.0 104.25 Q115.95 98.15 114.7 96.3 M88.25 108.25 L89.0 108.25 Q85.85 111.0 82.5 112.75 L83.25 112.0 88.25 108.25 M58.2 250.8 Q57.15 247.0 56.6 242.6 L56.25 238.25 Q56.25 235.0 60.05 230.4 63.75 225.95 69.75 221.8 83.8 212.0 96.0 212.0 106.4 212.0 111.25 220.9 113.65 225.4 114.0 230.1 114.0 236.65 112.6 248.7 L111.85 254.65 107.0 255.65 107.0 253.25 Q107.25 252.5 104.75 252.5 100.95 255.45 95.55 258.35 L87.6 260.25 Q84.7 260.25 79.9 258.3 L80.2 258.15 Q81.6 257.65 82.0 257.25 L82.0 257.0 Q80.0 257.0 80.0 258.0 L79.55 258.15 73.0 255.5 Q69.8 254.8 64.65 251.95 L60.0 249.25 58.4 249.5 58.25 249.75 58.2 250.8 M62.65 260.25 Q60.8 257.9 59.45 254.45 L63.25 259.25 62.65 260.25 M95.5 228.0 Q93.95 228.0 93.8 229.7 93.7 230.65 93.75 232.5 L93.75 232.75 Q95.25 230.2 95.7 228.0 L95.5 228.0 M85.35 255.5 Q86.2 254.7 86.0 254.25 L86.0 254.5 Q85.25 255.65 83.5 256.5 L83.0 256.75 Q84.4 256.4 85.35 255.5 M71.3 235.65 Q71.25 234.5 71.0 234.25 L71.0 237.75 Q71.35 236.9 71.3 235.65" fill="#edb777" fill-rule="evenodd" stroke="none"/>
    <path d="M82.6 117.6 L80.6 118.8 Q77.85 120.8 77.0 121.0 74.0 118.25 74.0 117.85 74.0 117.25 77.0 113.75 76.25 113.5 73.75 113.75 73.25 113.85 73.25 111.35 73.25 109.05 86.95 99.45 99.6 90.6 103.0 89.25 L104.35 89.5 Q104.75 89.7 104.75 91.25 104.75 92.75 102.0 95.75 105.65 95.75 109.4 93.65 L113.0 91.5 Q122.35 91.5 136.5 116.85 136.5 118.25 135.65 119.2 L133.25 121.25 129.3 116.5 127.05 113.75 Q126.7 113.4 126.3 113.5 L125.0 113.75 Q120.25 113.75 118.4 111.9 L115.5 107.25 Q114.0 115.9 114.0 125.75 L112.0 127.0 Q108.55 124.2 108.75 119.75 L108.0 118.5 108.0 120.0 107.75 120.5 Q107.5 121.0 106.0 121.0 103.65 121.0 103.55 119.95 103.35 117.6 103.0 117.0 97.4 121.0 95.5 121.0 L93.0 120.5 93.0 116.6 93.0 116.2 93.0 116.0 92.75 115.25 91.25 116.35 90.15 117.1 87.0 119.0 Q85.75 119.0 85.75 118.0 85.75 117.0 84.5 117.0 83.7 117.0 82.6 117.6 M115.45 96.6 L114.5 96.0 114.7 96.3 Q115.95 98.15 123.0 104.25 L123.25 104.25 Q122.8 102.95 119.0 99.55 L115.45 96.6 M80.75 108.25 Q83.15 106.65 85.3 104.25 L85.0 104.25 Q84.5 104.25 80.75 108.0 L80.75 108.25 M88.25 108.25 L83.25 112.0 82.5 112.75 Q85.85 111.0 89.0 108.25 L88.25 108.25" fill="#7c522c" fill-rule="evenodd" stroke="none"/>
    <path d="M111.85 254.65 L114.5 254.25 Q130.75 265.75 130.75 266.1 130.75 268.25 85.0 269.75 L101.5 269.75 77.9 270.6 Q60.1 270.45 51.0 264.75 52.65 262.55 53.6 262.05 56.2 260.6 62.0 260.75 L62.65 260.25 63.25 259.25 59.45 254.45 Q58.0 252.5 58.0 252.1 L58.2 250.8 58.25 249.75 58.4 249.5 60.0 249.25 64.65 251.95 Q69.8 254.8 73.0 255.5 L79.55 258.15 79.6 258.15 79.9 258.3 Q84.7 260.25 87.6 260.25 L95.55 258.35 100.0 257.25 107.0 255.65 111.85 254.65 M96.0 262.0 L103.0 262.0 96.25 261.75 96.0 262.0" fill="#009999" fill-rule="evenodd" stroke="none"/>
  </g>
</svg>
