<?xml version="1.0" encoding="UTF-8" standalone="no"?>
<svg xmlns:ffdec="https://www.free-decompiler.com/flash" xmlns:xlink="http://www.w3.org/1999/xlink" ffdec:objectType="shape" height="16.0px" width="27.1px" xmlns="http://www.w3.org/2000/svg">
  <g transform="matrix(1.0, 0.0, 0.0, 1.0, 11.45, 10.35)">
    <path d="M-1.85 -0.75 L-5.9 -2.4 -5.95 -1.45 Q-6.0 0.25 -5.15 1.45 -4.6 2.3 -3.85 2.4 -3.2 2.3 -2.65 1.5 L-2.65 1.45 Q-2.0 0.5 -1.85 -0.75 M1.25 -2.1 L1.35 -1.55 1.35 -1.45 Q1.3 1.3 -0.05 3.25 L-0.05 3.2 Q-1.6 5.6 -3.85 5.55 -6.2 5.6 -7.75 3.2 L-7.75 3.25 Q-9.1 1.3 -9.1 -1.45 L-8.85 -3.65 -11.3 -5.1 -11.35 -5.2 Q-11.55 -5.7 -11.3 -6.2 -11.1 -6.75 -10.55 -6.9 -10.05 -7.15 -9.55 -6.9 L-7.2 -5.85 -6.3 -5.75 -5.75 -5.25 1.25 -2.1" fill="#000000" fill-rule="evenodd" stroke="none"/>
    <path d="M6.75 -6.8 L7.65 -7.8 Q8.55 -8.65 9.75 -8.6 11.45 -8.65 12.65 -6.8 13.9 -5.0 13.9 -2.35 13.9 0.25 12.65 2.1 11.45 3.9 9.75 3.9 8.0 3.9 6.75 2.1 5.55 0.25 5.55 -2.35 5.5 -3.8 5.9 -5.0 6.2 -6.0 6.75 -6.8 Z" fill="none" stroke="#000000" stroke-linecap="round" stroke-linejoin="round" stroke-width="3.5"/>
  </g>
</svg>
