<?xml version="1.0" encoding="UTF-8" standalone="no"?>
<svg xmlns:ffdec="https://www.free-decompiler.com/flash" xmlns:xlink="http://www.w3.org/1999/xlink" ffdec:objectType="shape" height="19.9px" width="40.35px" xmlns="http://www.w3.org/2000/svg">
  <g transform="matrix(1.0, 0.0, 0.0, 1.0, 19.95, 21.9)">
    <path d="M3.3 -19.2 L5.55 -20.2 Q8.45 -20.9 12.7 -18.8 17.15 -16.6 18.4 -13.45 19.05 -11.7 18.8 -10.65 18.5 -9.85 17.55 -9.6 16.8 -9.55 15.5 -10.8 L12.1 -14.4 Q8.2 -18.7 5.35 -19.2 4.3 -19.45 3.35 -19.2 L3.3 -19.2 M-3.65 -14.4 L-5.65 -14.25 Q-8.45 -13.45 -11.95 -8.85 L-15.0 -5.0 -15.05 -4.95 Q-16.25 -3.6 -16.95 -3.6 -17.95 -3.75 -18.3 -4.5 -18.65 -5.55 -18.1 -7.35 -17.2 -10.6 -12.95 -13.15 -8.9 -15.6 -5.95 -15.2 -4.6 -15.0 -3.6 -14.4 L-3.65 -14.4" fill="#000000" fill-rule="evenodd" stroke="none"/>
    <path d="M3.3 -19.2 L3.35 -19.2 3.25 -19.15 3.3 -19.2 M-3.65 -14.4 L-3.6 -14.4 -3.55 -14.4 -3.65 -14.4" fill="#3a281b" fill-rule="evenodd" stroke="none"/>
    <path d="M19.85 -14.0 Q20.7 -11.6 20.25 -10.2 19.8 -8.55 17.9 -8.1 L17.85 -8.1 Q16.55 -7.7 14.45 -9.65 L10.95 -13.35 Q7.5 -17.15 5.05 -17.7 L3.75 -17.7 3.7 -17.7 Q2.15 -17.35 1.65 -16.7 L1.25 -16.4 0.7 -16.45 0.3 -16.85 0.3 -17.4 Q0.9 -19.1 1.4 -19.55 2.75 -21.1 5.2 -21.65 8.5 -22.55 13.4 -20.15 18.5 -17.65 19.85 -14.0 M3.35 -19.2 Q4.3 -19.45 5.35 -19.2 8.2 -18.7 12.1 -14.4 L15.5 -10.8 Q16.8 -9.55 17.55 -9.6 18.5 -9.85 18.8 -10.65 19.05 -11.7 18.4 -13.45 17.15 -16.6 12.7 -18.8 8.45 -20.9 5.55 -20.2 L3.3 -19.2 3.25 -19.15 3.35 -19.2 M-5.65 -14.25 L-3.65 -14.4 -3.55 -14.4 -3.6 -14.4 Q-4.6 -15.0 -5.95 -15.2 -8.9 -15.6 -12.95 -13.15 -17.2 -10.6 -18.1 -7.35 -18.65 -5.55 -18.3 -4.5 -17.95 -3.75 -16.95 -3.6 -16.25 -3.6 -15.05 -4.95 L-15.0 -5.0 -11.95 -8.85 Q-8.45 -13.45 -5.65 -14.25 M-5.2 -12.8 L-5.2 -12.75 Q-7.65 -12.0 -10.7 -7.9 L-10.75 -7.9 -13.9 -3.9 -13.9 -3.95 Q-15.8 -1.8 -17.15 -2.05 L-17.15 -2.1 Q-19.15 -2.4 -19.7 -3.95 -20.25 -5.35 -19.6 -7.75 -18.6 -11.55 -13.7 -14.5 -9.1 -17.3 -5.7 -16.7 -3.25 -16.35 -1.75 -14.95 -1.2 -14.5 -0.45 -12.85 -0.35 -12.6 -0.4 -12.35 L-0.75 -11.9 -1.3 -11.8 Q-1.6 -11.85 -1.75 -12.05 -2.3 -12.65 -3.85 -12.85 L-3.9 -12.9 -5.2 -12.8" fill="#666666" fill-rule="evenodd" stroke="none"/>
  </g>
</svg>
