<?xml version="1.0" encoding="UTF-8" standalone="no"?>
<svg xmlns:ffdec="https://www.free-decompiler.com/flash" xmlns:xlink="http://www.w3.org/1999/xlink" ffdec:objectType="shape" height="319.8px" width="731.15px" xmlns="http://www.w3.org/2000/svg">
  <g transform="matrix(1.0, 0.0, 0.0, 1.0, 82.9, -70.05)">
    <path d="M621.3 82.95 Q634.45 83.05 631.05 93.5 L545.85 352.9 Q543.75 359.1 533.6 359.05 L15.4 358.65 Q4.9 358.6 3.35 352.2 L-63.0 87.25 Q-65.8 76.5 -51.95 76.75 L621.3 82.95 M601.75 128.4 L609.5 103.55 Q612.75 93.25 599.7 93.2 L248.25 90.05 Q234.9 89.85 234.9 100.3 L235.05 125.55 Q235.0 135.25 247.85 135.4 L586.2 137.95 Q598.75 138.0 601.75 128.4 M579.95 150.25 L249.05 147.85 Q236.25 147.7 236.35 157.1 L236.55 267.45 Q236.45 275.0 247.8 275.05 L542.2 276.05 Q553.3 276.05 555.55 268.65 L589.5 159.65 Q592.35 150.3 579.95 150.25" fill="#cccccc" fill-rule="evenodd" stroke="none"/>
    <path d="M621.3 82.95 L-51.95 76.75 Q-65.8 76.5 -63.0 87.25 L3.35 352.2 Q4.9 358.6 15.4 358.65 L533.6 359.05 Q543.75 359.1 545.85 352.9 L631.05 93.5 Q634.45 83.05 621.3 82.95 M579.95 150.25 Q592.35 150.3 589.5 159.65 L555.55 268.65 Q553.3 276.05 542.2 276.05 L247.8 275.05 Q236.45 275.0 236.55 267.45 L236.35 157.1 Q236.25 147.7 249.05 147.85 L579.95 150.25 M601.75 128.4 Q598.75 138.0 586.2 137.95 L247.85 135.4 Q235.0 135.25 235.05 125.55 L234.9 100.3 Q234.9 89.85 248.25 90.05 L599.7 93.2 Q612.75 93.25 609.5 103.55 L601.75 128.4 M546.5 384.0 Q544.5 389.8 534.7 389.85 L9.65 389.85 Q-0.5 389.85 -2.0 383.9 L-82.35 80.75 Q-85.35 69.85 -71.45 70.05 L637.9 76.75 Q651.1 76.9 647.45 87.5 L546.5 384.0" fill="#ffffff" fill-rule="evenodd" stroke="none"/>
  </g>
</svg>
