<?xml version="1.0" encoding="UTF-8" standalone="no"?>
<svg xmlns:ffdec="https://www.free-decompiler.com/flash" xmlns:xlink="http://www.w3.org/1999/xlink" ffdec:objectType="shape" height="107.15px" width="85.3px" xmlns="http://www.w3.org/2000/svg">
  <g transform="matrix(1.0, 0.0, 0.0, 1.0, 20.5, 90.85)">
    <path d="M40.9 -90.55 Q47.15 -91.6 51.7 -88.8 L52.3 -88.4 54.35 -87.3 Q56.65 -85.85 58.5 -83.7 57.75 -65.5 16.75 -33.1 7.55 -38.0 1.45 -51.25 L1.5 -51.25 Q30.15 -88.65 40.75 -90.55 L40.9 -90.55 M46.9 -85.4 L46.3 -84.55 47.25 -85.45 46.9 -85.4 M49.45 -85.85 L48.0 -85.6 11.5 -43.75 Q11.0 -43.2 10.95 -42.5 10.85 -41.85 11.25 -41.55 L11.3 -41.5 12.3 -41.4 Q12.9 -41.6 20.15 -51.75 27.4 -61.9 36.55 -71.0 L45.7 -80.3 47.1 -82.1 49.45 -85.85 M52.05 -76.15 L52.05 -76.2 51.05 -76.4 Q50.4 -76.25 49.9 -75.75 34.05 -54.3 15.3 -40.75 14.8 -40.2 14.65 -39.55 14.5 -38.95 14.85 -38.6 L14.9 -38.55 Q15.25 -38.2 15.9 -38.35 16.5 -38.5 25.7 -46.15 34.8 -53.8 43.55 -64.1 52.25 -74.4 52.35 -75.1 52.4 -75.85 52.05 -76.15 M38.3 -85.5 Q19.1 -69.55 6.75 -47.75 6.25 -47.2 6.2 -46.5 6.1 -45.85 6.5 -45.55 L6.55 -45.5 7.55 -45.4 Q8.15 -45.65 14.8 -56.55 21.45 -67.55 31.05 -76.0 40.65 -84.5 40.75 -85.15 40.8 -85.8 40.45 -86.1 L40.4 -86.15 39.4 -86.25 Q38.8 -86.1 38.3 -85.5" fill="#f2efea" fill-rule="evenodd" stroke="none"/>
    <path d="M58.5 -83.7 Q63.5 -77.95 64.8 -67.25 L64.8 -67.15 64.6 -66.5 64.45 -66.35 Q52.4 -53.45 48.8 -33.7 L48.6 -33.25 48.2 -32.95 Q31.25 -25.4 19.15 -29.8 7.05 -34.15 -0.25 -50.3 L-0.4 -50.7 -0.4 -50.75 -0.4 -50.85 -0.4 -51.0 -0.25 -51.45 Q11.9 -69.1 29.8 -88.8 30.0 -89.05 30.35 -89.1 36.1 -90.5 40.9 -90.55 L40.75 -90.55 31.1 -88.5 Q13.65 -68.05 1.45 -51.25 7.55 -38.0 16.75 -33.1 L19.85 -31.7 Q31.15 -27.7 44.95 -34.6 50.7 -54.4 64.0 -67.7 62.55 -78.2 58.5 -83.7" fill="#58524e" fill-rule="evenodd" stroke="none"/>
    <path d="M40.75 -90.55 Q30.15 -88.65 1.5 -51.25 L1.45 -51.25 Q13.65 -68.05 31.1 -88.5 L40.75 -90.55 M16.75 -33.1 Q57.75 -65.5 58.5 -83.7 62.55 -78.2 64.0 -67.7 50.7 -54.4 44.95 -34.6 31.15 -27.7 19.85 -31.7 L16.75 -33.1 M52.05 -76.15 Q52.4 -75.85 52.35 -75.1 52.25 -74.4 43.55 -64.1 34.8 -53.8 25.7 -46.15 16.5 -38.5 15.9 -38.35 15.25 -38.2 14.9 -38.55 L14.85 -38.6 Q14.5 -38.95 14.65 -39.55 14.8 -40.2 15.3 -40.75 34.05 -54.3 49.9 -75.75 50.4 -76.25 51.05 -76.4 L52.05 -76.2 52.05 -76.15 M49.45 -85.85 L47.1 -82.1 45.7 -80.3 36.55 -71.0 Q27.4 -61.9 20.15 -51.75 12.9 -41.6 12.3 -41.4 L11.3 -41.5 11.25 -41.55 Q10.85 -41.85 10.95 -42.5 11.0 -43.2 11.5 -43.75 L48.0 -85.6 49.45 -85.85 M46.9 -85.4 L47.25 -85.45 46.3 -84.55 46.9 -85.4 M38.3 -85.5 Q38.8 -86.1 39.4 -86.25 L40.4 -86.15 40.45 -86.1 Q40.8 -85.8 40.75 -85.15 40.65 -84.5 31.05 -76.0 21.45 -67.55 14.8 -56.55 8.15 -45.65 7.55 -45.4 L6.55 -45.5 6.5 -45.55 Q6.1 -45.85 6.2 -46.5 6.25 -47.2 6.75 -47.75 19.1 -69.55 38.3 -85.5" fill="#ded9cb" fill-rule="evenodd" stroke="none"/>
    <path d="M11.95 13.8 Q25.7 13.05 35.35 3.35 45.0 -6.3 45.0 -19.95 45.0 -33.6 35.35 -43.25 25.7 -52.9 12.0 -52.9 1.2 -52.9 -7.5 -47.35 L-7.55 -47.35 Q2.4 -56.4 16.05 -56.35 30.6 -56.4 40.9 -46.1 51.2 -35.75 51.2 -21.2 51.2 -6.65 40.9 3.65 30.6 14.0 16.05 14.0 L11.95 13.8" fill="#e79d5a" fill-rule="evenodd" stroke="none"/>
    <path d="M-0.1 10.15 L6.65 10.8 Q19.45 10.8 28.55 1.95 37.6 -6.95 37.6 -19.55 37.6 -32.15 28.55 -41.0 19.45 -49.9 6.65 -49.9 -0.9 -49.9 -7.5 -47.35 1.2 -52.9 12.0 -52.9 25.7 -52.9 35.35 -43.25 45.0 -33.6 45.0 -19.95 45.0 -6.3 35.35 3.35 25.7 13.05 11.95 13.8 L5.25 12.4 Q2.45 11.5 -0.1 10.15" fill="#f0a866" fill-rule="evenodd" stroke="none"/>
    <path d="M-7.5 -47.35 Q-0.9 -49.9 6.65 -49.9 19.45 -49.9 28.55 -41.0 37.6 -32.15 37.6 -19.55 37.6 -6.95 28.55 1.95 19.45 10.8 6.65 10.8 L-0.1 10.15 Q-4.8 7.7 -8.85 3.65 -19.15 -6.65 -19.15 -21.2 -19.15 -33.45 -11.85 -42.7 L-10.25 -44.8 -9.15 -45.95 -7.5 -47.35" fill="#f8b674" fill-rule="evenodd" stroke="none"/>
    <path d="M-0.1 10.15 Q2.45 11.5 5.25 12.4 L11.95 13.8 16.05 14.0 Q30.6 14.0 40.9 3.65 51.2 -6.65 51.2 -21.2 51.2 -35.75 40.9 -46.1 30.6 -56.4 16.05 -56.35 2.4 -56.4 -7.55 -47.35 L-7.5 -47.35 -9.15 -45.95 -10.25 -44.8 -11.85 -42.7 Q-19.15 -33.45 -19.15 -21.2 -19.15 -6.65 -8.85 3.65 -4.8 7.7 -0.1 10.15 M42.35 -47.55 Q53.15 -36.55 53.15 -21.05 53.15 -5.6 42.35 5.3 31.55 16.3 16.35 16.3 L12.05 16.1 Q8.4 15.65 5.05 14.65 2.1 13.7 -0.55 12.25 -5.5 9.6 -9.7 5.3 -20.5 -5.6 -20.5 -21.05 -20.5 -34.1 -12.85 -43.95 L-10.1 -47.15 -9.95 -47.3 -9.85 -47.4 -9.7 -47.55 -8.3 -48.9 Q2.0 -58.5 16.35 -58.45 31.55 -58.5 42.35 -47.55" fill="#654425" fill-rule="evenodd" stroke="none"/>
  </g>
</svg>
