<?xml version="1.0" encoding="UTF-8" standalone="no"?>
<svg xmlns:ffdec="https://www.free-decompiler.com/flash" xmlns:xlink="http://www.w3.org/1999/xlink" ffdec:objectType="shape" height="29.35px" width="21.3px" xmlns="http://www.w3.org/2000/svg">
  <g transform="matrix(1.0, 0.0, 0.0, 1.0, 2.4, 24.85)">
    <path d="M15.85 -6.6 Q17.85 -4.95 17.9 -2.75 17.85 -0.15 15.05 1.65 12.2 3.5 8.25 3.5 4.25 3.5 1.45 1.65 -1.4 -0.15 -1.4 -2.75 -1.4 -5.0 0.8 -6.7 L0.85 -6.7 0.95 -6.7 Q0.35 -6.15 0.35 -5.55 0.35 -4.3 2.7 -3.4 5.0 -2.55 8.3 -2.55 11.6 -2.55 13.95 -3.4 16.3 -4.3 16.3 -5.55 L15.85 -6.6" fill="#930000" fill-rule="evenodd" stroke="none"/>
    <path d="M0.95 -6.7 Q1.5 -7.25 2.7 -7.65 5.0 -8.55 8.3 -8.5 11.6 -8.55 13.95 -7.65 L14.75 -7.3 15.05 -7.15 15.85 -6.6 16.3 -5.55 Q16.3 -4.3 13.95 -3.4 11.6 -2.55 8.3 -2.55 5.0 -2.55 2.7 -3.4 0.35 -4.3 0.35 -5.55 0.35 -6.15 0.95 -6.7" fill="#4a321c" fill-rule="evenodd" stroke="none"/>
    <path d="M15.85 -6.6 Q17.85 -4.95 17.9 -2.75 17.85 -0.15 15.05 1.65 12.2 3.5 8.25 3.5 4.25 3.5 1.45 1.65 -1.4 -0.15 -1.4 -2.75 -1.4 -5.0 0.8 -6.7 L0.85 -6.7 1.45 -7.15 2.6 -7.8 Q5.05 -8.95 8.25 -8.9 11.5 -8.95 14.0 -7.7 L14.75 -7.3 15.85 -6.6 15.05 -7.15 14.75 -7.3 13.95 -7.65 Q11.6 -8.55 8.3 -8.5 5.0 -8.55 2.7 -7.65 1.5 -7.25 0.95 -6.7 0.35 -6.15 0.35 -5.55 0.35 -4.3 2.7 -3.4 5.0 -2.55 8.3 -2.55 11.6 -2.55 13.95 -3.4 16.3 -4.3 16.3 -5.55 L15.85 -6.6 Z" fill="none" stroke="#550000" stroke-linecap="round" stroke-linejoin="round" stroke-width="2.0"/>
    <path d="M3.85 -3.85 L4.05 -6.05 4.2 -8.05 4.35 -12.3 Q9.6 -12.35 12.4 -8.25 L12.4 -7.55 12.3 -5.5 12.25 -3.95 12.2 -3.95 7.55 -3.4 7.5 -3.4 Q5.25 -3.25 4.0 -3.8 L3.95 -3.8 3.85 -3.85" fill="#f0a866" fill-rule="evenodd" stroke="none"/>
    <path d="M4.35 -12.3 L4.1 -21.95 12.8 -22.75 12.4 -8.25 Q9.6 -12.35 4.35 -12.3" fill="#e79d5a" fill-rule="evenodd" stroke="none"/>
    <path d="M3.85 -3.85 L3.6 -4.0 2.4 -4.75 2.2 -4.85 2.2 -5.8 2.3 -7.85 Q2.5 -15.95 2.05 -22.75 2.05 -23.2 2.3 -23.5 2.55 -23.8 2.95 -23.85 L13.7 -24.85 14.25 -24.75 14.65 -24.35 14.8 -23.8 Q14.65 -15.85 13.7 -7.2 L13.45 -5.2 13.35 -4.15 13.15 -4.15 12.25 -3.95 12.3 -5.5 12.4 -7.55 12.4 -8.25 12.8 -22.75 4.1 -21.95 4.35 -12.3 4.2 -8.05 4.05 -6.05 3.85 -3.85" fill="#654425" fill-rule="evenodd" stroke="none"/>
  </g>
</svg>
