<?xml version="1.0" encoding="UTF-8" standalone="no"?>
<svg xmlns:ffdec="https://www.free-decompiler.com/flash" xmlns:xlink="http://www.w3.org/1999/xlink" ffdec:objectType="shape" height="30.5px" width="41.7px" xmlns="http://www.w3.org/2000/svg">
  <g transform="matrix(1.0, 0.0, 0.0, 1.0, 32.4, 5.85)">
    <path d="M-6.65 -2.45 Q-3.95 -4.8 -0.55 -4.4 L-0.45 -4.4 Q2.3 -4.25 4.0 -2.25 5.8 -0.15 7.05 2.55 8.25 5.15 7.55 8.9 6.85 12.6 4.05 15.55 L1.85 17.4 Q-2.25 20.4 -6.35 21.7 -10.4 23.05 -13.8 23.2 L-20.6 22.55 -22.75 21.75 Q-24.65 20.8 -26.1 19.25 L-26.15 19.2 -27.05 18.25 -27.1 18.2 -28.65 15.85 Q-30.15 13.45 -30.7 10.55 -28.1 11.3 -25.6 12.2 L-25.55 12.2 -24.1 12.75 -21.25 12.85 Q-19.15 12.55 -17.35 11.7 -15.65 11.0 -14.4 9.6 -11.75 6.5 -10.4 2.6 -9.25 -0.4 -6.7 -2.4 L-6.65 -2.45" fill="#000000" fill-rule="evenodd" stroke="none"/>
    <path d="M-6.65 -2.45 L-6.7 -2.4 Q-9.25 -0.4 -10.4 2.6 -11.75 6.5 -14.4 9.6 -15.65 11.0 -17.35 11.7 -19.15 12.55 -21.25 12.85 L-24.1 12.75 -25.55 12.2 -25.6 12.2 Q-28.1 11.3 -30.7 10.55 -30.15 13.45 -28.65 15.85 L-27.1 18.2 -27.05 18.25 -26.15 19.2 -26.1 19.25 Q-24.65 20.8 -22.75 21.75 L-20.6 22.55 -13.8 23.2 Q-10.4 23.05 -6.35 21.7 -2.25 20.4 1.85 17.4 L4.05 15.55 Q6.85 12.6 7.55 8.9 8.25 5.15 7.05 2.55 5.8 -0.15 4.0 -2.25 2.3 -4.25 -0.45 -4.4 L-0.55 -4.4 Q-3.95 -4.8 -6.65 -2.45 M-0.45 -5.8 Q3.0 -5.65 5.05 -3.15 7.05 -0.9 8.4 2.0 9.25 3.7 9.3 5.9 L9.1 8.5 9.0 9.15 Q8.2 13.2 5.05 16.5 L2.7 18.6 Q-1.55 21.75 -5.85 23.1 -10.15 24.5 -13.7 24.65 -17.3 24.75 -20.95 23.85 L-22.5 23.35 Q-25.15 22.3 -27.1 20.25 L-27.15 20.25 -28.15 19.15 -28.25 19.1 -29.85 16.6 Q-31.8 13.5 -32.4 9.6 L-32.3 9.15 -32.0 8.85 -31.45 8.8 -30.45 9.1 -25.05 10.9 -24.95 10.9 -24.35 11.15 -21.5 11.4 Q-19.6 11.1 -17.95 10.35 L-17.9 10.35 Q-16.55 9.8 -15.55 8.7 -13.05 5.75 -11.75 2.1 -10.45 -1.3 -7.55 -3.55 L-7.55 -3.6 Q-4.4 -6.25 -0.45 -5.8" fill="#666666" fill-rule="evenodd" stroke="none"/>
  </g>
</svg>
