<?xml version="1.0" encoding="UTF-8" standalone="no"?>
<svg xmlns:ffdec="https://www.free-decompiler.com/flash" xmlns:xlink="http://www.w3.org/1999/xlink" ffdec:objectType="shape" height="30.85px" width="41.2px" xmlns="http://www.w3.org/2000/svg">
  <g transform="matrix(1.0, 0.0, 0.0, 1.0, 19.05, 15.7)">
    <path d="M20.05 -15.6 L20.1 -15.6 20.25 -15.7 21.7 -8.95 Q22.55 -3.75 21.75 3.75 L21.5 4.35 21.3 4.75 Q12.25 17.05 -3.1 14.8 -11.15 13.5 -15.9 5.35 -17.95 0.7 -19.05 -1.15 L-18.65 -1.5 -17.9 -1.55 Q-9.9 1.25 -1.35 -0.05 12.6 -2.45 19.1 -15.05 19.3 -15.4 19.7 -15.55 L20.05 -15.6 M20.1 -5.65 L19.7 -11.05 19.6 -11.85 Q12.6 -0.45 -1.0 1.9 L-1.05 1.9 Q-6.3 2.75 -11.35 2.05 L-12.1 1.9 -12.4 1.95 -12.8 1.85 -16.6 1.0 -15.45 2.4 -14.9 3.25 -14.2 4.35 -14.15 4.35 -14.1 4.45 -13.4 5.6 -13.4 5.55 -13.2 5.5 -9.15 8.2 -6.4 7.5 -6.0 7.4 -3.9 6.95 -3.75 6.9 -2.85 6.9 -2.75 7.15 -2.8 7.4 -2.85 7.4 -7.8 8.95 -8.3 10.45 -8.3 10.55 -8.35 10.7 -6.2 11.85 Q-4.6 12.5 -2.8 12.85 L-2.8 12.8 Q5.95 14.1 12.5 10.25 L12.95 10.0 13.25 9.8 17.05 6.6 17.65 6.0 19.7 3.55 19.75 3.5 19.75 3.45 20.0 3.45 20.05 2.65 Q19.1 1.85 18.55 1.85 16.3 1.85 14.55 2.65 L14.5 2.7 14.45 2.7 13.9 3.05 Q13.35 3.3 12.85 3.6 L12.8 3.6 12.7 3.6 12.2 3.6 12.1 3.4 Q12.1 3.0 13.5 2.35 L13.95 2.15 14.0 2.15 14.5 1.95 15.45 1.6 15.55 1.55 15.7 1.5 18.85 0.25 Q19.6 -0.85 20.15 -2.5 L20.15 -1.75 20.2 -2.55 20.2 -2.6 20.15 -4.75 20.05 -5.45 20.1 -5.55 20.1 -5.65 M12.95 10.0 L12.25 10.55 12.95 10.0 M-9.35 10.0 L-9.4 9.55 -11.2 8.1 -11.8 7.7 -11.65 7.9 -9.95 9.5 -8.5 10.6 -9.35 10.0" fill="#463624" fill-rule="evenodd" stroke="none"/>
    <path d="M-13.4 5.6 L-14.1 4.45 -14.15 4.35 -14.2 4.35 -14.9 3.25 -15.45 2.4 -16.6 1.0 -12.8 1.85 -12.4 1.95 -12.1 1.9 -11.35 2.05 Q-6.3 2.75 -1.05 1.9 L-1.0 1.9 Q12.6 -0.45 19.6 -11.85 L19.7 -11.05 20.1 -5.65 20.05 -5.6 19.95 -5.45 20.05 -5.45 20.15 -4.75 20.2 -2.6 20.2 -2.55 20.15 -2.5 Q19.6 -0.85 18.85 0.25 L15.7 1.5 15.55 1.55 15.45 1.6 14.5 1.95 14.0 2.15 13.95 2.15 13.75 2.15 13.5 2.35 Q12.1 3.0 12.1 3.4 L12.2 3.6 12.7 3.6 12.8 3.6 12.85 3.6 Q13.35 3.3 13.9 3.05 L14.45 2.7 14.5 2.7 14.55 2.7 14.55 2.65 Q16.3 1.85 18.55 1.85 19.1 1.85 20.05 2.65 L20.0 3.45 19.75 3.45 19.75 3.5 19.7 3.55 17.65 6.0 17.05 6.6 Q16.85 3.35 14.25 3.35 L11.8 4.05 11.55 4.0 11.45 3.7 Q11.45 3.0 15.5 -0.05 16.0 -0.45 16.45 -1.65 15.05 -0.6 13.25 0.2 8.5 2.25 6.7 2.7 0.35 4.2 -3.4 4.2 L-11.9 3.45 -14.65 2.65 Q-11.1 6.95 -5.8 6.95 L-1.5 6.7 1.05 6.8 1.1 7.05 Q-0.05 7.8 -3.7 9.35 -5.1 10.25 -5.6 12.05 L-6.2 11.85 -8.35 10.7 -8.3 10.55 -8.3 10.5 -8.3 10.45 -7.8 8.95 -2.85 7.4 -2.8 7.4 -2.75 7.15 -2.85 6.9 -3.75 6.9 -3.9 6.95 -6.0 7.4 -6.4 7.5 -9.15 8.2 -13.2 5.5 -13.4 5.55 -13.4 5.6" fill="#e5e5e5" fill-rule="evenodd" stroke="none"/>
    <path d="M20.1 -5.65 L20.1 -5.55 20.05 -5.45 19.95 -5.45 20.05 -5.6 20.1 -5.65 M13.95 2.15 L13.5 2.35 13.75 2.15 13.95 2.15 M14.5 2.7 L14.55 2.65 14.55 2.7 14.5 2.7 M17.05 6.6 L13.25 9.8 12.95 10.0 12.5 10.25 Q5.95 14.1 -2.8 12.8 L-2.8 12.85 Q-4.6 12.5 -6.2 11.85 L-5.6 12.05 Q-5.1 10.25 -3.7 9.35 -0.05 7.8 1.1 7.05 L1.05 6.8 -1.5 6.7 -5.8 6.95 Q-11.1 6.95 -14.65 2.65 L-11.9 3.45 -3.4 4.2 Q0.35 4.2 6.7 2.7 8.5 2.25 13.25 0.2 15.05 -0.6 16.45 -1.65 16.0 -0.45 15.5 -0.05 11.45 3.0 11.45 3.7 L11.55 4.0 11.8 4.05 14.25 3.35 Q16.85 3.35 17.05 6.6" fill="#f9f9f9" fill-rule="evenodd" stroke="none"/>
    <path d="M-8.3 10.55 L-8.3 10.45 -8.3 10.5 -8.3 10.55 M-9.35 10.0 L-8.5 10.6 -9.95 9.5 -11.65 7.9 -11.8 7.7 -11.2 8.1 -9.4 9.55 -9.35 10.0" fill="#57352d" fill-rule="evenodd" stroke="none"/>
  </g>
</svg>
