<?xml version="1.0" encoding="UTF-8" standalone="no"?>
<svg xmlns:ffdec="https://www.free-decompiler.com/flash" xmlns:xlink="http://www.w3.org/1999/xlink" ffdec:objectType="shape" height="14.65px" width="27.85px" xmlns="http://www.w3.org/2000/svg">
  <g transform="matrix(1.0, 0.0, 0.0, 1.0, 7.1, 4.1)">
    <path d="M20.0 -1.4 Q20.75 -0.3 20.75 2.15 20.75 4.6 17.35 7.15 12.85 10.5 5.25 10.5 L0.65 10.4 0.6 10.4 -0.6 10.55 Q-7.5 10.55 -7.05 4.95 L-6.95 4.15 Q-6.3 1.2 -0.15 -1.4 6.15 -4.1 12.5 -4.1 18.25 -4.1 20.0 -1.4 M-3.75 8.6 L-3.55 8.7 -2.6 9.1 Q9.15 10.25 14.5 7.1 18.85 4.55 18.85 1.8 18.85 -2.35 11.25 -2.35 3.45 -2.35 -1.8 0.95 L-5.55 3.75 -4.85 4.7 -4.25 5.45 Q-2.45 3.75 3.25 3.5 L4.5 3.75 4.6 3.9 0.25 5.25 Q-0.65 5.55 -2.5 6.85 L-2.5 6.9 -2.6 7.1 -3.65 8.4 -4.0 8.5 -3.75 8.6" fill="#463624" fill-rule="evenodd" stroke="none"/>
    <path d="M-3.65 8.4 L-2.6 7.1 -2.5 6.9 -2.5 6.85 Q-0.65 5.55 0.25 5.25 L4.6 3.9 4.5 3.75 3.25 3.5 Q-2.45 3.75 -4.25 5.45 L-4.85 4.7 -5.55 3.75 -1.8 0.95 Q3.45 -2.35 11.25 -2.35 18.85 -2.35 18.85 1.8 18.85 4.55 14.5 7.1 9.15 10.25 -2.6 9.1 L-3.55 8.7 -3.75 8.6 -3.65 8.4" fill="#e5e5e5" fill-rule="evenodd" stroke="none"/>
  </g>
</svg>
