<?xml version="1.0" encoding="UTF-8" standalone="no"?>
<svg xmlns:ffdec="https://www.free-decompiler.com/flash" xmlns:xlink="http://www.w3.org/1999/xlink" ffdec:objectType="shape" height="54.05px" width="102.15px" xmlns="http://www.w3.org/2000/svg">
  <g transform="matrix(1.0, 0.0, 0.0, 1.0, -252.05, -91.35)">
    <path d="M351.0 103.9 L351.25 103.7 351.5 103.55 352.8 103.55 353.1 103.8 353.4 104.2 353.6 104.35 353.85 104.65 354.05 105.2 354.2 105.65 354.2 106.15 354.1 106.6 354.05 107.0 353.8 107.35 353.6 107.7 353.4 108.2 353.4 108.65 353.3 109.0 353.05 110.4 Q352.75 111.45 352.8 111.65 L352.55 112.35 352.2 113.2 352.1 113.5 351.95 113.75 351.9 113.95 351.4 114.9 351.0 115.8 Q350.8 116.0 350.8 116.55 L350.6 117.65 350.4 118.9 350.35 119.45 350.25 119.9 350.15 120.3 350.1 120.65 350.0 121.75 349.9 122.8 349.8 123.65 349.7 124.35 349.55 124.85 349.35 125.3 349.35 126.4 349.45 127.25 349.6 128.2 349.6 128.65 349.45 129.4 349.35 130.05 349.2 130.9 349.15 132.0 349.0 133.5 348.95 134.6 348.85 135.35 348.85 135.8 348.75 136.85 348.7 137.85 348.7 138.4 348.45 139.15 348.15 140.0 345.45 143.8 344.7 144.3 Q344.35 144.35 344.05 144.55 L343.55 144.95 342.95 145.2 342.45 145.4 342.35 145.4 341.25 145.3 340.15 145.1 339.85 144.85 339.6 144.3 339.6 143.35 340.15 142.5 340.5 142.05 340.95 141.5 341.55 140.75 341.9 140.35 342.85 139.7 343.55 139.15 343.8 138.8 344.1 138.4 344.3 137.7 344.65 136.85 344.7 136.45 344.75 136.0 344.8 135.15 344.9 133.6 344.9 132.1 344.95 131.15 344.95 130.4 345.0 129.3 344.95 128.95 344.95 128.35 344.95 127.7 344.9 127.35 344.75 126.9 344.7 126.6 Q344.6 126.6 344.65 126.4 L344.2 125.95 343.75 125.6 343.6 125.5 343.55 125.3 343.35 124.95 343.15 124.55 342.6 123.7 342.15 122.8 341.95 122.25 341.7 121.75 341.3 121.0 340.95 120.35 340.65 119.9 340.5 119.55 340.35 119.05 340.1 118.35 339.85 117.6 339.35 116.65 338.45 115.05 337.7 113.6 337.1 112.65 336.8 111.9 336.1 111.05 335.85 110.9 335.6 110.6 335.3 110.35 335.2 110.15 335.0 109.5 334.8 108.75 334.8 107.25 334.9 106.9 335.0 106.4 335.2 105.85 335.3 105.65 335.9 105.3 Q336.35 105.2 336.4 105.1 L337.85 105.1 338.2 105.3 338.5 105.65 338.75 105.85 338.95 106.15 339.45 107.25 340.05 108.2 340.1 108.45 340.15 108.75 340.35 109.1 340.5 109.5 340.8 110.35 341.05 111.05 341.3 111.7 341.55 112.35 342.1 113.4 342.45 114.15 342.65 114.9 342.8 115.55 342.9 115.8 343.05 116.0 343.15 116.35 343.55 117.1 343.85 117.75 344.1 118.15 344.25 118.5 344.45 118.9 345.35 120.2 345.65 120.2 345.85 120.1 346.05 119.9 346.1 118.4 346.15 116.85 346.3 116.1 346.4 115.55 Q346.4 114.95 346.55 114.8 L346.75 114.15 346.9 113.65 347.05 113.2 347.05 112.65 347.25 112.1 347.7 111.25 348.15 110.35 348.4 109.6 348.7 109.0 349.0 108.3 349.35 107.45 349.7 106.4 350.1 105.4 350.25 105.0 350.4 104.55 350.75 104.2 351.0 103.9 M325.7 104.35 L326.6 104.3 327.3 104.35 328.0 104.35 328.7 104.75 329.35 105.2 329.5 105.3 329.65 105.5 329.85 105.65 330.2 106.5 330.65 107.8 331.0 108.45 331.25 109.0 331.35 109.6 331.55 110.7 331.8 111.65 331.95 112.3 332.15 113.0 332.35 113.85 332.45 114.5 332.45 115.15 332.6 116.35 Q332.55 117.0 332.65 117.65 L332.65 118.6 332.65 121.5 332.5 122.5 332.45 123.55 332.5 123.9 332.65 124.35 332.7 124.65 332.85 124.85 333.05 125.6 333.05 127.7 332.95 128.1 332.85 128.45 332.5 129.3 332.25 130.05 331.8 130.7 Q331.1 131.05 330.55 132.3 330.45 132.25 330.3 132.45 L329.95 132.75 329.85 132.85 329.65 132.95 329.1 132.55 Q328.7 132.25 328.55 132.3 L328.0 131.45 327.95 131.15 327.85 130.9 327.75 130.6 327.7 130.25 327.7 127.45 327.75 126.6 327.85 125.6 327.95 125.1 328.0 124.65 328.1 124.2 328.25 123.8 328.3 123.15 328.45 122.5 328.45 121.95 328.5 120.95 328.55 119.8 328.55 118.9 328.55 118.15 328.5 116.45 328.45 115.25 328.3 114.9 328.1 113.95 327.85 112.85 327.7 111.9 327.55 111.45 327.55 111.05 327.15 110.9 326.8 110.6 Q326.65 110.6 326.6 110.7 L326.55 110.8 326.45 110.9 325.9 111.65 325.25 112.75 324.85 113.5 324.75 114.05 324.45 115.0 324.25 116.0 324.15 116.55 324.05 116.85 324.0 116.95 324.0 117.1 323.8 117.85 323.6 118.6 323.4 119.25 323.3 119.9 323.3 121.0 323.15 121.4 323.1 121.75 323.0 122.25 322.9 123.0 322.85 123.9 322.75 124.35 322.6 125.5 322.4 126.6 322.4 128.2 322.3 128.75 322.2 129.3 322.05 129.5 321.9 129.75 321.5 129.85 321.1 130.05 320.6 130.6 320.1 131.15 319.9 131.35 319.75 131.45 319.7 131.45 319.4 131.55 319.2 131.65 318.8 131.65 318.5 131.55 318.3 131.45 318.2 131.15 317.95 130.7 317.8 130.25 317.6 129.5 317.6 127.7 317.65 127.45 317.8 127.15 317.8 126.6 317.85 125.7 317.95 124.65 317.95 124.1 318.0 123.55 318.1 123.05 318.2 122.15 318.3 121.2 318.3 120.1 318.2 119.0 318.1 117.75 318.1 117.1 318.1 112.2 318.0 111.35 317.95 110.6 317.95 107.7 318.0 107.55 318.1 107.0 318.35 106.25 318.65 105.5 318.8 105.2 319.35 104.55 319.7 104.2 320.6 104.2 321.25 104.45 321.9 104.95 322.2 105.4 322.5 105.95 323.0 105.65 Q323.3 105.45 323.8 105.2 L324.5 104.75 325.05 104.35 325.7 104.35 M262.05 94.9 L262.3 94.7 262.5 94.7 262.8 94.8 263.2 95.0 263.8 95.25 Q264.2 95.45 264.25 95.55 L264.5 95.8 264.85 96.3 264.85 96.45 264.95 96.75 264.95 97.95 264.95 99.15 265.05 99.65 265.15 100.1 265.15 103.8 265.1 104.3 265.05 105.0 265.05 105.85 264.95 106.35 264.95 110.5 264.9 111.65 264.85 112.85 264.85 116.2 264.7 117.3 264.6 118.5 264.45 119.7 264.25 120.85 264.25 122.15 264.15 122.6 264.1 123.0 264.0 123.45 263.9 124.3 263.8 125.0 263.75 125.5 263.5 126.25 263.2 127.05 263.0 127.45 262.85 127.9 262.75 128.1 Q262.65 128.25 262.7 128.35 L262.4 128.75 262.1 129.1 261.85 129.4 261.6 129.7 259.5 131.05 259.1 131.15 Q258.8 131.25 258.8 131.35 L258.55 131.45 258.2 131.55 256.45 131.55 Q256.1 131.55 255.9 131.35 L255.3 130.8 254.5 129.95 254.35 129.7 253.9 128.85 253.45 128.1 253.25 127.8 253.1 127.25 253.0 127.05 252.95 126.8 252.65 125.95 252.35 125.0 252.3 124.95 252.3 124.85 252.25 124.75 252.15 124.55 252.1 124.1 252.05 123.7 252.05 121.7 252.15 121.3 252.35 121.1 Q252.45 121.0 252.75 120.95 L253.1 120.85 253.75 121.2 254.5 121.7 254.65 121.85 254.95 122.5 255.2 123.0 255.5 123.7 255.75 124.55 256.2 125.1 256.6 125.75 256.95 126.05 257.4 126.35 257.5 126.35 257.85 126.15 258.0 126.05 258.6 125.5 259.1 125.0 259.35 124.65 259.7 124.2 259.85 123.55 260.15 122.7 260.25 122.35 260.4 121.85 260.45 121.2 260.5 120.55 260.55 119.8 260.65 118.5 260.7 117.3 260.7 116.45 260.7 109.65 260.85 109.3 260.9 108.75 260.9 107.45 260.85 106.6 260.7 105.85 260.55 104.45 260.5 103.0 260.5 101.95 260.55 101.0 260.7 99.9 260.85 99.0 260.9 98.05 260.9 96.0 261.1 95.7 261.2 95.55 261.55 95.15 261.8 95.0 262.05 94.9 M283.2 97.3 L283.3 96.85 283.4 96.3 283.5 95.25 283.6 94.25 283.65 93.65 283.75 93.1 283.85 92.65 284.0 92.35 284.4 92.0 284.7 91.65 285.1 91.55 285.6 91.35 286.3 91.35 286.65 91.55 287.0 91.9 287.35 92.2 287.55 92.35 287.85 92.85 288.1 93.1 288.25 93.65 288.25 94.25 288.15 95.25 287.9 96.85 287.85 97.3 287.8 97.85 287.65 98.8 287.55 99.65 287.55 103.25 287.65 104.2 287.8 105.1 287.7 105.65 287.8 106.35 287.85 106.8 288.1 107.35 Q288.1 107.6 288.25 107.65 L288.6 107.35 289.0 107.15 Q289.05 107.05 289.3 106.9 L289.9 106.4 290.4 105.85 290.7 105.6 Q290.9 105.3 291.15 105.3 L291.4 105.2 291.6 105.1 292.1 105.0 293.6 105.0 294.1 105.1 Q294.25 105.1 294.65 105.4 L295.3 105.85 295.7 106.35 296.15 107.0 296.65 107.7 296.95 108.2 297.3 109.2 297.6 110.05 297.85 110.6 298.05 111.25 298.1 111.8 298.15 112.3 298.25 112.75 298.35 113.0 298.5 114.25 298.55 115.15 298.55 118.5 298.6 119.65 298.7 120.55 298.85 121.1 299.15 121.7 299.15 122.35 299.25 123.25 299.25 123.9 299.15 124.95 299.15 125.75 298.85 126.35 298.7 126.8 298.55 127.45 298.35 128.1 298.1 128.75 297.85 129.4 297.4 129.95 296.95 130.5 296.6 130.8 296.4 130.9 296.2 130.9 296.05 131.05 295.9 130.9 Q295.75 130.6 295.75 130.8 L295.45 130.5 295.2 130.35 294.8 129.85 294.45 129.4 294.4 128.55 294.3 127.55 294.3 122.15 294.35 121.0 294.45 119.0 294.6 117.0 294.65 115.9 294.65 115.0 294.55 114.4 294.45 113.85 294.2 113.1 293.9 112.3 293.75 111.9 293.6 111.55 293.4 111.25 293.2 111.0 292.5 111.0 292.1 111.8 291.6 112.55 291.3 113.3 290.9 114.15 290.85 114.5 290.7 115.0 290.5 115.45 290.4 115.8 290.2 116.2 290.15 116.55 290.1 116.95 289.75 117.75 289.5 118.5 289.45 119.05 289.3 120.1 289.2 121.1 289.2 121.7 289.0 122.15 288.8 122.7 288.75 123.25 288.6 123.9 288.55 124.75 288.4 125.5 288.3 126.35 288.1 127.25 287.95 127.8 287.9 128.1 287.4 129.0 286.85 129.85 285.6 131.55 285.35 131.7 285.1 131.8 284.15 131.8 283.9 131.7 283.5 131.55 283.3 131.45 283.15 131.35 282.95 131.05 282.9 130.7 282.75 130.5 282.7 129.75 282.6 129.1 282.6 126.8 282.75 126.15 282.95 125.5 283.05 124.65 283.15 123.7 283.3 123.05 283.5 122.35 283.5 112.85 283.4 111.8 283.3 110.7 283.3 106.35 283.25 105.4 283.15 104.55 283.15 97.85 283.2 97.3 M309.75 104.35 L310.45 104.35 311.15 104.75 311.8 105.2 312.0 105.3 312.15 105.5 312.3 105.65 312.7 106.5 313.15 107.8 313.45 108.45 313.7 109.0 313.85 109.6 314.05 110.7 314.3 111.65 314.4 112.3 314.6 113.0 314.8 113.85 314.95 114.5 314.95 115.15 315.05 116.35 315.1 117.65 315.1 118.6 315.1 121.5 315.0 122.5 314.95 123.55 315.0 123.9 315.1 124.35 315.2 124.65 315.3 124.85 315.5 125.6 315.5 127.7 315.45 128.1 315.3 128.45 315.0 129.3 314.75 130.05 314.3 130.7 Q313.55 131.05 313.0 132.3 L312.75 132.45 312.45 132.75 312.3 132.85 312.15 132.95 311.55 132.55 311.05 132.3 310.45 131.45 310.4 131.15 310.35 130.9 310.2 130.6 310.15 130.25 310.15 127.45 310.2 126.6 310.35 125.6 310.4 125.1 310.45 124.65 310.6 124.2 310.7 123.8 310.8 123.15 310.9 122.5 310.9 121.95 311.0 120.95 Q310.95 120.35 311.05 119.8 L311.05 118.9 311.05 118.15 Q310.95 117.55 311.0 116.45 L310.9 115.25 310.8 114.9 310.6 113.95 310.35 112.85 310.15 111.9 310.0 111.45 310.0 111.05 309.65 110.9 309.25 110.6 309.05 110.7 309.0 110.8 308.95 110.9 308.35 111.65 307.75 112.75 307.35 113.5 307.2 114.05 306.9 115.0 306.7 116.0 306.65 116.55 306.5 116.85 306.45 116.95 306.45 117.1 306.25 117.85 306.05 118.6 305.9 119.25 305.75 119.9 305.75 121.0 305.65 121.4 305.55 121.75 305.5 122.25 305.35 123.0 305.3 123.9 305.25 124.35 305.05 125.5 304.85 126.6 304.85 128.2 304.8 128.75 304.65 129.3 304.55 129.5 304.35 129.75 303.95 129.85 303.6 130.05 303.1 130.6 302.55 131.15 302.4 131.35 302.25 131.45 302.2 131.45 301.85 131.55 301.7 131.65 301.3 131.65 300.95 131.55 300.8 131.45 300.65 131.15 300.4 130.7 300.25 130.25 300.1 129.5 300.1 127.7 Q300.05 127.6 300.15 127.45 L300.25 127.15 300.25 126.6 300.35 125.7 300.4 124.65 300.4 124.1 300.45 123.55 300.6 123.05 300.65 122.15 300.8 121.2 300.8 120.1 300.65 119.0 300.6 117.75 300.6 117.1 300.6 112.2 300.45 111.35 300.4 110.6 300.4 107.7 300.45 107.55 300.6 107.0 300.85 106.25 301.1 105.5 301.3 105.2 301.8 104.55 302.2 104.2 303.1 104.2 Q303.2 104.15 303.7 104.45 304.2 104.75 304.35 104.95 L304.65 105.4 305.0 105.95 305.5 105.65 306.25 105.2 306.95 104.75 307.55 104.35 308.2 104.35 309.05 104.3 309.75 104.35 M275.25 104.1 L276.25 104.85 277.2 105.4 277.5 105.6 277.8 105.85 278.1 106.15 278.55 106.7 278.95 107.15 279.65 108.2 280.0 109.1 280.5 110.4 280.9 111.05 281.4 111.8 281.55 112.2 281.6 112.65 281.6 113.4 281.6 114.6 281.55 116.0 281.45 117.2 281.4 117.85 281.3 118.4 281.05 119.35 280.9 119.8 280.6 120.65 280.2 121.4 279.95 121.85 279.65 122.4 279.3 123.35 278.95 124.3 278.75 124.75 278.4 125.2 278.35 125.4 Q278.2 125.45 278.2 125.6 L277.6 126.35 277.2 126.8 276.8 127.05 276.45 127.35 276.1 128.1 275.8 128.65 275.35 129.1 275.05 129.4 274.7 129.6 274.25 129.7 273.95 129.95 273.65 130.25 273.0 130.4 272.15 130.6 271.65 130.8 271.15 130.9 270.75 130.9 270.3 130.7 269.9 130.6 269.6 130.4 269.35 130.25 268.9 129.95 268.5 129.7 268.15 129.2 267.75 128.65 267.25 127.8 266.9 127.15 266.7 126.4 266.35 125.6 266.25 125.2 266.2 124.75 266.2 119.65 266.25 119.0 266.35 118.35 266.45 118.05 266.5 117.85 266.65 117.1 266.7 116.45 266.8 116.1 266.9 115.8 267.0 115.45 267.05 115.15 267.25 114.5 267.4 113.85 267.65 113.1 267.75 112.45 268.65 109.75 269.25 108.65 270.15 107.55 270.5 106.9 270.95 106.4 271.45 105.6 272.0 104.85 272.5 104.55 272.95 104.35 273.25 104.1 273.65 103.8 274.7 103.8 274.9 103.9 275.25 104.1 M271.55 115.7 L271.15 116.35 270.75 116.95 270.7 117.2 270.6 117.6 270.5 117.95 270.45 118.35 270.3 119.0 270.25 119.65 270.05 120.1 269.9 120.65 269.9 123.25 270.0 124.2 270.15 125.0 270.3 125.5 270.6 125.75 272.15 125.75 272.7 125.5 273.25 125.0 273.95 124.3 274.9 123.45 274.9 123.35 275.05 123.25 275.25 122.9 275.35 122.4 275.6 122.05 276.0 121.5 276.3 120.75 276.45 120.35 276.7 119.45 277.0 118.5 277.2 118.15 277.35 117.85 277.45 117.2 277.5 116.75 277.5 114.4 277.45 114.05 277.35 113.6 277.2 113.4 276.7 113.3 276.25 113.1 275.8 112.95 275.35 112.45 275.05 112.1 274.7 112.1 274.4 112.2 Q274.2 112.25 274.15 112.35 L273.65 112.95 272.95 113.6 272.25 114.7 271.55 115.7" fill="#7f7f7f" fill-rule="evenodd" stroke="none"/>
  </g>
</svg>
