<?xml version="1.0" encoding="UTF-8" standalone="no"?>
<svg xmlns:ffdec="https://www.free-decompiler.com/flash" xmlns:xlink="http://www.w3.org/1999/xlink" ffdec:objectType="shape" height="390.95px" width="551.8px" xmlns="http://www.w3.org/2000/svg">
  <g transform="matrix(1.0, 0.0, 0.0, 1.0, 3.95, -9.95)">
    <path d="M526.6 15.95 Q536.7 15.9 536.65 25.9 L533.55 341.65 Q533.4 351.35 523.4 351.4 L21.65 351.4 Q11.6 351.35 11.6 341.65 L9.3 25.9 Q9.2 15.9 19.35 15.95 L526.6 15.95 M512.35 25.9 L243.1 25.9 Q232.95 25.85 232.95 35.8 L232.95 60.6 Q232.9 70.5 243.1 70.55 L511.95 70.55 Q522.05 70.5 522.15 60.6 L522.4 35.8 Q522.45 25.85 512.35 25.9 M509.8 83.4 L244.05 83.4 Q233.95 83.4 233.95 93.3 L233.95 222.4 Q233.95 232.2 244.0 232.25 L508.45 232.25 Q518.5 232.2 518.6 222.4 L519.8 93.3 Q519.9 83.4 509.8 83.4 M221.8 19.9 L19.4 19.9 20.75 221.4 221.85 221.4 221.8 19.9" fill="#cccccc" fill-rule="evenodd" stroke="none"/>
    <path d="M537.85 9.95 Q547.95 9.95 547.85 19.9 L544.05 391.2 Q543.95 400.9 533.95 400.9 L9.0 400.9 Q-1.0 400.9 -1.1 391.2 L-3.95 19.9 Q-4.05 9.95 6.15 9.95 L537.85 9.95 M526.6 15.95 L19.35 15.95 Q9.2 15.9 9.3 25.9 L11.6 341.65 Q11.6 351.35 21.65 351.4 L523.4 351.4 Q533.4 351.35 533.55 341.65 L536.65 25.9 Q536.7 15.9 526.6 15.95 M509.8 83.4 Q519.9 83.4 519.8 93.3 L518.6 222.4 Q518.5 232.2 508.45 232.25 L244.0 232.25 Q233.95 232.2 233.95 222.4 L233.95 93.3 Q233.95 83.4 244.05 83.4 L509.8 83.4 M512.35 25.9 Q522.45 25.85 522.4 35.8 L522.15 60.6 Q522.05 70.5 511.95 70.55 L243.1 70.55 Q232.9 70.5 232.95 60.6 L232.95 35.8 Q232.95 25.85 243.1 25.9 L512.35 25.9 M210.8 182.15 L210.7 26.85 28.55 26.85 29.55 182.15 210.8 182.15 M221.8 19.9 L221.85 221.4 20.75 221.4 19.4 19.9 221.8 19.9" fill="#ffffff" fill-rule="evenodd" stroke="none"/>
    <path d="M210.8 182.15 L29.55 182.15 28.55 26.85 210.7 26.85 210.8 182.15" fill="#67e859" fill-rule="evenodd" stroke="none"/>
  </g>
</svg>
