<?xml version="1.0" encoding="UTF-8" standalone="no"?>
<svg xmlns:ffdec="https://www.free-decompiler.com/flash" xmlns:xlink="http://www.w3.org/1999/xlink" ffdec:objectType="shape" height="29.05px" width="80.15px" xmlns="http://www.w3.org/2000/svg">
  <g transform="matrix(1.0, 0.0, 0.0, 1.0, -252.0, -41.35)">
    <path d="M328.95 48.9 L329.05 48.7 329.2 48.45 329.45 48.25 329.65 48.1 329.85 48.0 330.05 47.9 331.05 47.9 331.3 48.05 331.55 48.25 331.7 48.35 331.9 48.5 332.05 48.8 332.15 49.05 332.15 49.3 332.1 49.55 332.05 49.75 331.85 49.95 331.7 50.15 331.55 50.4 331.55 50.65 331.45 50.85 331.25 51.6 331.05 52.25 330.85 52.65 330.6 53.1 330.5 53.25 330.4 53.4 330.35 53.5 329.95 54.0 329.65 54.5 329.5 54.9 329.35 55.5 329.2 56.15 329.15 56.45 329.05 56.7 329.0 56.9 328.95 57.1 328.85 57.7 328.8 58.25 328.7 58.7 328.65 59.1 328.5 59.35 328.35 59.6 328.35 60.2 328.45 60.65 328.55 61.15 328.55 61.4 328.45 61.8 328.35 62.15 328.25 62.6 328.2 63.2 328.1 64.0 328.1 64.3 328.05 64.6 327.95 65.0 327.95 65.25 327.9 65.8 327.85 66.35 327.85 66.65 327.65 67.05 327.4 67.5 325.3 69.55 324.7 69.8 324.2 69.95 323.8 70.15 323.35 70.3 322.95 70.4 322.85 70.4 322.0 70.35 321.15 70.25 320.9 70.1 320.7 69.8 320.7 69.3 321.15 68.85 321.4 68.6 321.75 68.3 322.25 67.9 322.5 67.7 323.25 67.35 323.8 67.05 324.0 66.85 324.25 66.65 324.4 66.25 324.65 65.8 324.7 65.6 324.75 65.35 324.8 64.9 324.85 64.05 324.85 63.25 324.9 62.75 324.9 62.35 324.95 61.75 324.9 61.55 324.9 61.25 324.9 60.9 324.85 60.7 324.75 60.45 324.7 60.3 324.65 60.2 324.3 59.95 323.95 59.75 323.85 59.7 323.8 59.6 323.65 59.4 323.5 59.2 323.05 58.75 322.7 58.25 322.55 57.95 322.35 57.7 322.05 57.3 321.75 56.95 321.55 56.7 321.4 56.5 321.3 56.25 321.1 55.85 320.9 55.45 320.5 54.95 319.8 54.1 319.2 53.3 318.75 52.8 318.5 52.4 317.95 51.95 317.75 51.85 317.55 51.7 317.35 51.55 317.25 51.45 317.1 51.1 316.95 50.7 316.95 49.9 317.0 49.7 317.1 49.45 317.25 49.15 317.35 49.05 317.8 48.85 318.2 48.75 319.35 48.75 319.6 48.85 319.85 49.05 320.05 49.15 320.2 49.3 320.6 49.9 321.05 50.4 321.1 50.55 321.15 50.7 321.3 50.9 321.4 51.1 321.65 51.55 321.85 51.95 322.05 52.3 322.25 52.65 322.65 53.2 322.95 53.6 323.1 54.0 323.2 54.35 323.3 54.5 323.4 54.6 323.5 54.8 323.8 55.2 324.05 55.55 324.25 55.75 324.35 55.95 324.5 56.15 325.2 56.85 325.45 56.85 325.6 56.8 325.75 56.7 325.8 55.9 325.85 55.05 325.95 54.65 326.05 54.35 326.15 53.95 326.3 53.6 326.45 53.35 326.55 53.1 326.55 52.8 326.7 52.5 327.05 52.05 327.4 51.55 327.6 51.15 327.85 50.85 328.1 50.45 328.35 50.0 328.65 49.45 328.95 48.9 M286.25 49.4 L286.6 49.75 287.0 50.15 287.25 50.4 287.5 50.95 287.75 51.4 287.95 51.7 288.1 52.05 288.15 52.35 288.2 52.6 288.25 52.85 288.35 53.0 288.45 53.65 288.5 54.15 288.5 55.95 288.55 56.55 288.6 57.05 288.75 57.35 288.95 57.65 288.95 58.0 289.05 58.5 289.05 58.85 288.95 59.4 288.95 59.85 288.75 60.15 288.6 60.4 288.5 60.75 288.35 61.1 288.15 61.45 287.95 61.8 287.6 62.1 287.25 62.4 286.95 62.55 286.8 62.6 286.65 62.6 286.55 62.7 286.4 62.6 286.3 62.55 286.05 62.4 285.85 62.3 285.55 62.05 285.3 61.8 285.25 61.35 285.15 60.8 285.15 57.9 285.2 57.3 285.3 56.2 285.4 55.15 285.45 54.55 285.45 54.05 285.35 53.75 285.3 53.45 285.1 53.05 284.85 52.6 284.75 52.4 284.6 52.2 284.45 52.05 284.3 51.9 283.75 51.9 283.45 52.35 283.05 52.75 282.8 53.15 282.5 53.6 282.45 53.8 282.35 54.05 282.2 54.3 282.1 54.5 281.95 54.7 281.9 54.9 281.85 55.1 281.6 55.55 281.4 55.95 281.35 56.25 281.25 56.8 281.15 57.35 281.15 57.65 281.0 57.9 280.85 58.2 280.8 58.5 280.7 58.85 280.65 59.3 280.55 59.7 280.45 60.15 280.3 60.65 280.2 60.95 280.15 61.1 279.75 61.6 279.3 62.05 278.35 62.95 278.15 63.05 277.95 63.1 277.2 63.1 277.0 63.05 276.7 62.95 276.55 62.9 276.4 62.85 276.25 62.7 276.2 62.5 276.1 62.4 276.05 62.0 276.0 61.65 276.0 60.4 276.1 60.05 276.25 59.7 276.35 59.25 276.4 58.75 276.55 58.4 276.7 58.0 276.7 52.9 276.6 52.35 276.55 51.75 276.55 49.4 276.5 48.9 276.4 48.45 276.4 44.85 276.45 44.55 276.55 44.3 276.6 44.0 276.7 43.45 276.75 42.9 276.8 42.6 276.9 42.3 276.95 42.05 277.1 41.9 277.4 41.7 277.65 41.5 277.95 41.45 278.35 41.35 278.9 41.35 279.15 41.45 279.45 41.65 279.7 41.8 279.85 41.9 280.1 42.15 280.3 42.3 280.4 42.6 280.4 42.9 280.35 43.45 280.15 44.3 280.1 44.55 280.05 44.85 279.95 45.35 279.85 45.8 279.85 47.75 279.95 48.25 280.05 48.75 280.0 49.05 280.05 49.4 280.1 49.65 280.3 49.95 280.4 50.1 280.7 49.95 281.0 49.85 281.25 49.7 281.7 49.45 282.1 49.15 282.35 49.0 282.7 48.85 282.9 48.8 283.05 48.75 283.45 48.7 284.6 48.7 285.0 48.75 285.45 48.9 285.95 49.15 286.25 49.4 M290.65 48.8 L291.05 48.45 Q291.2 48.3 291.35 48.25 L292.05 48.25 292.55 48.4 293.05 48.65 293.3 48.9 293.55 49.2 293.95 49.05 Q294.2 48.95 294.55 48.8 L295.1 48.55 295.55 48.35 296.05 48.35 296.75 48.3 297.3 48.35 297.85 48.35 298.4 48.55 298.9 48.8 299.05 48.85 299.15 48.95 299.3 49.05 299.6 49.5 299.95 50.2 300.2 50.55 300.4 50.85 300.5 51.15 300.65 51.75 300.85 52.25 300.95 52.6 301.1 53.0 301.25 53.45 301.35 53.8 301.35 54.15 301.45 54.8 301.5 55.5 301.5 56.0 301.5 57.55 301.4 58.1 301.35 58.65 301.4 58.85 301.5 59.1 301.55 59.25 301.65 59.35 301.8 59.75 301.8 60.9 301.75 61.1 301.65 61.3 301.4 61.75 301.2 62.15 300.85 62.5 299.85 63.35 299.65 63.45 299.4 63.6 299.3 63.65 299.15 63.7 298.7 63.5 Q298.4 63.35 298.3 63.35 L297.85 62.9 297.8 62.75 297.75 62.6 297.65 62.45 297.6 62.25 297.6 60.75 297.65 60.3 297.75 59.75 297.8 59.5 297.85 59.25 297.95 59.0 298.05 58.8 298.1 58.45 298.2 58.1 298.2 57.8 298.25 57.25 298.3 56.65 298.3 56.15 298.3 55.75 298.25 54.85 298.2 54.2 298.1 54.0 297.95 53.5 297.75 52.9 297.6 52.4 297.5 52.15 297.5 51.95 297.2 51.85 296.9 51.7 296.75 51.75 296.7 51.8 296.65 51.85 296.2 52.25 295.7 52.85 295.4 53.25 295.3 53.55 295.05 54.05 294.9 54.6 294.85 54.9 294.75 55.05 294.7 55.1 294.7 55.2 294.55 55.6 294.4 56.0 294.25 56.35 294.15 56.7 294.15 57.3 294.05 57.5 294.0 57.7 293.95 57.95 293.85 58.35 293.8 58.85 293.75 59.1 293.6 59.7 293.45 60.3 293.45 61.15 293.4 61.45 293.3 61.75 293.2 61.85 293.05 62.0 292.75 62.05 292.45 62.15 292.05 62.45 291.65 62.75 291.5 62.85 291.4 62.9 291.35 62.9 291.1 62.95 290.95 63.0 290.65 63.0 290.4 62.95 290.25 62.9 290.15 62.75 289.95 62.5 289.85 62.25 289.7 61.85 289.7 60.9 289.75 60.75 289.85 60.6 289.85 60.3 289.9 59.8 289.95 59.25 289.95 58.95 290.0 58.65 290.1 58.4 290.15 57.9 290.25 57.4 290.25 56.8 290.15 56.2 290.1 55.55 290.1 55.2 290.1 52.55 290.0 52.1 289.95 51.7 289.95 50.15 290.0 50.05 290.1 49.75 290.3 49.35 290.5 48.95 290.65 48.8 M305.8 48.25 L306.3 48.4 306.8 48.65 307.05 48.9 307.3 49.2 307.7 49.05 308.3 48.8 308.85 48.55 309.3 48.35 309.8 48.35 310.5 48.3 311.05 48.35 311.6 48.35 312.15 48.55 312.65 48.8 312.8 48.85 312.9 48.95 313.05 49.05 313.35 49.5 313.7 50.2 313.95 50.55 314.15 50.85 314.25 51.15 314.4 51.75 314.6 52.25 314.7 52.6 314.85 53.0 315.0 53.45 315.1 53.8 315.1 54.15 315.2 54.8 315.25 55.5 315.25 56.0 315.25 57.55 315.15 58.1 315.1 58.65 315.15 58.85 315.25 59.1 315.3 59.25 315.4 59.35 315.55 59.75 315.55 60.9 315.5 61.1 315.4 61.3 315.15 61.75 314.95 62.15 314.6 62.5 Q314.05 62.7 313.6 63.35 L313.4 63.45 313.15 63.6 313.05 63.65 312.9 63.7 312.45 63.5 312.05 63.35 311.6 62.9 311.55 62.75 311.5 62.6 311.4 62.45 311.35 62.25 311.35 60.75 311.4 60.3 311.5 59.75 311.55 59.5 311.6 59.25 311.7 59.0 311.8 58.8 311.85 58.45 311.95 58.1 311.95 57.8 312.0 57.25 312.05 56.65 312.05 56.15 312.05 55.75 312.0 54.85 311.95 54.2 311.85 54.0 311.7 53.5 311.5 52.9 311.35 52.4 311.25 52.15 311.25 51.95 310.95 51.85 310.65 51.7 310.5 51.75 310.45 51.8 310.4 51.85 309.95 52.25 309.45 52.85 309.15 53.25 309.05 53.55 308.8 54.05 308.65 54.6 308.6 54.9 308.5 55.05 308.45 55.1 308.45 55.2 308.3 55.6 308.15 56.0 308.0 56.35 307.9 56.7 307.9 57.3 307.8 57.5 307.75 57.7 307.7 57.95 307.6 58.35 307.55 58.85 307.5 59.1 307.35 59.7 307.2 60.3 307.2 61.15 307.15 61.45 307.05 61.75 306.95 61.85 306.8 62.0 306.5 62.05 306.2 62.15 305.8 62.45 305.4 62.75 305.25 62.85 305.15 62.9 305.1 62.9 304.85 62.95 304.7 63.0 304.4 63.0 304.15 62.95 304.0 62.9 303.9 62.75 303.7 62.5 303.6 62.25 303.45 61.85 303.45 60.9 303.5 60.75 303.6 60.6 303.6 60.3 303.65 59.8 303.7 59.25 303.7 58.95 303.75 58.65 303.85 58.4 303.9 57.9 304.0 57.4 304.0 56.8 303.9 56.2 303.85 55.55 303.85 55.2 303.85 52.55 303.75 52.1 303.7 51.7 303.7 50.15 303.75 50.05 303.85 49.75 304.05 49.35 304.25 48.95 304.4 48.8 304.8 48.45 305.1 48.25 305.8 48.25 M260.2 43.15 L260.45 43.2 260.75 43.3 261.25 43.45 261.6 43.6 261.8 43.75 262.05 44.0 262.05 44.1 262.15 44.25 262.15 44.9 262.15 45.55 262.2 45.8 262.3 46.05 262.3 48.05 262.25 48.3 262.2 48.7 262.2 49.15 262.15 49.4 262.15 51.65 262.1 52.25 262.05 52.9 262.05 54.7 261.95 55.3 261.85 55.95 261.75 56.6 261.6 57.2 261.6 57.9 261.5 58.15 261.45 58.35 261.4 58.6 261.3 59.05 261.25 59.45 261.2 59.7 261.0 60.1 260.75 60.55 260.6 60.75 260.5 61.0 260.4 61.1 260.35 61.25 260.15 61.45 259.9 61.65 259.7 61.8 259.5 61.95 257.85 62.7 257.55 62.75 257.3 62.85 257.1 62.9 256.85 62.95 255.45 62.95 255.05 62.85 254.55 62.55 253.95 62.1 253.8 61.95 253.45 61.5 253.1 61.1 252.95 60.95 252.85 60.65 252.75 60.55 252.7 60.4 252.5 59.95 252.25 59.45 252.2 59.4 252.2 59.35 252.15 59.3 252.1 59.2 252.05 58.95 252.0 58.75 252.0 57.65 252.1 57.45 252.25 57.35 252.55 57.25 252.85 57.2 253.35 57.4 253.95 57.65 254.05 57.75 254.3 58.1 254.5 58.35 254.7 58.75 254.9 59.2 255.25 59.5 255.6 59.85 255.85 60.0 256.2 60.15 256.3 60.15 256.55 60.05 256.7 60.0 257.15 59.7 257.55 59.45 257.75 59.25 258.0 59.0 258.15 58.65 258.35 58.2 258.45 58.0 258.55 57.75 258.6 57.4 258.65 57.05 258.7 56.65 258.75 55.95 258.8 55.3 258.8 54.85 258.8 51.2 258.9 51.0 258.95 50.7 258.95 50.0 258.9 49.55 258.8 49.15 258.7 48.4 258.65 47.6 258.65 47.05 258.7 46.55 258.8 45.95 258.9 45.45 258.95 44.95 258.95 43.85 259.1 43.7 259.2 43.6 259.45 43.4 259.65 43.3 259.85 43.25 260.05 43.15 260.2 43.15 M267.25 49.0 L267.65 48.6 268.05 48.45 268.4 48.35 Q268.4 48.3 268.65 48.2 L268.95 48.05 269.8 48.05 269.95 48.1 270.2 48.2 271.0 48.6 271.75 48.9 272.0 49.0 272.2 49.15 272.45 49.3 272.8 49.6 273.1 49.85 273.65 50.4 273.95 50.9 274.35 51.6 274.65 51.95 275.05 52.35 275.15 52.55 275.2 52.8 275.2 53.2 275.2 53.85 275.15 54.6 275.1 55.25 275.05 55.6 274.95 55.9 274.75 56.4 274.65 56.65 274.4 57.1 274.1 57.5 273.9 57.75 273.65 58.05 273.4 58.55 273.1 59.05 272.95 59.3 272.7 59.55 272.65 59.65 272.55 59.75 272.05 60.15 271.75 60.4 271.45 60.55 271.15 60.7 270.9 61.1 270.65 61.4 270.3 61.65 270.05 61.8 269.8 61.9 269.45 61.95 269.2 62.1 268.95 62.25 268.45 62.35 267.8 62.45 267.4 62.55 267.0 62.6 266.7 62.6 266.35 62.5 266.0 62.45 265.8 62.35 265.6 62.25 265.25 62.1 264.9 61.95 264.65 61.7 264.35 61.4 263.95 60.95 263.65 60.6 263.5 60.2 263.25 59.75 263.15 59.55 263.1 59.3 263.1 56.55 263.15 56.2 263.25 55.85 263.3 55.7 263.35 55.6 263.45 55.2 263.5 54.85 263.6 54.65 263.65 54.5 263.75 54.3 263.8 54.15 263.95 53.8 264.05 53.45 264.25 53.05 264.35 52.7 265.05 51.25 265.5 50.65 266.2 50.05 266.5 49.7 266.85 49.45 267.25 49.0 M269.8 52.5 L269.55 52.55 269.35 52.65 268.95 52.95 268.4 53.3 267.85 53.9 267.3 54.45 267.0 54.8 266.7 55.1 266.65 55.25 266.55 55.45 266.5 55.65 266.45 55.85 266.35 56.2 266.3 56.55 266.15 56.8 266.0 57.1 266.0 58.5 266.1 59.0 266.2 59.45 266.35 59.7 266.55 59.85 267.8 59.85 268.2 59.7 268.65 59.45 269.2 59.05 269.95 58.6 269.95 58.55 270.05 58.5 270.2 58.3 270.3 58.05 270.5 57.85 270.8 57.55 271.05 57.15 271.15 56.95 271.35 56.45 271.6 55.95 271.75 55.75 271.85 55.6 271.95 55.25 272.0 55.0 272.0 53.75 271.95 53.55 271.85 53.3 271.75 53.2 271.35 53.15 271.0 53.05 270.65 52.95 270.3 52.7 270.05 52.5 269.8 52.5" fill="#666666" fill-rule="evenodd" stroke="none"/>
  </g>
</svg>
