<?xml version="1.0" encoding="UTF-8" standalone="no"?>
<svg xmlns:ffdec="https://www.free-decompiler.com/flash" xmlns:xlink="http://www.w3.org/1999/xlink" ffdec:objectType="shape" height="275.75px" width="980.1px" xmlns="http://www.w3.org/2000/svg">
  <g transform="matrix(1.0, 0.0, 0.0, 1.0, 184.25, -125.25)">
    <path d="M603.05 179.75 L611.0 158.25 Q614.3 149.35 601.15 149.25 L243.3 144.65 Q229.5 144.45 229.85 153.55 L230.45 175.5 Q230.65 184.0 243.9 184.15 L587.25 187.95 Q599.85 188.0 603.05 179.75 M623.05 140.4 Q636.3 140.6 632.75 149.65 L546.1 370.2 Q544.1 375.4 534.05 375.45 L14.65 374.75 Q3.95 374.7 2.1 369.3 L-78.25 140.5 Q-81.6 131.0 -67.3 131.2 L623.05 140.4 M580.95 198.5 L245.4 195.0 Q232.3 194.85 232.6 203.0 L235.45 297.85 Q235.55 304.25 247.0 304.3 L542.65 305.75 Q553.7 305.7 556.1 299.45 L590.45 206.55 Q593.45 198.55 580.95 198.5 M221.6 297.1 L214.25 138.7 -66.0 135.0 -11.85 295.85 221.6 297.1" fill="#cccccc" fill-rule="evenodd" stroke="none"/>
    <path d="M650.2 141.85 L649.5 144.4 546.75 396.15 Q544.7 401.0 535.05 401.0 L10.15 401.0 Q-0.1 401.0 -1.95 396.05 L-98.7 134.6 -99.35 131.85 Q-100.05 125.0 -87.9 125.25 L639.85 135.1 Q651.1 135.25 650.2 141.85 M603.05 179.75 Q599.85 188.0 587.25 187.95 L243.9 184.15 Q230.65 184.0 230.45 175.5 L229.85 153.55 Q229.5 144.45 243.3 144.65 L601.15 149.25 Q614.3 149.35 611.0 158.25 L603.05 179.75 M623.05 140.4 L-67.3 131.2 Q-81.6 131.0 -78.25 140.5 L2.1 369.3 Q3.95 374.7 14.65 374.75 L534.05 375.45 Q544.1 375.4 546.1 370.2 L632.75 149.65 Q636.3 140.6 623.05 140.4 M580.95 198.5 Q593.45 198.55 590.45 206.55 L556.1 299.45 Q553.7 305.7 542.65 305.75 L247.0 304.3 Q235.55 304.25 235.45 297.85 L232.6 203.0 Q232.3 194.85 245.4 195.0 L580.95 198.5 M221.6 297.1 L-11.85 295.85 -66.0 135.0 214.25 138.7 221.6 297.1 M207.2 270.2 L199.35 144.95 -51.05 141.75 -10.0 268.8 207.2 270.2" fill="#ffffff" fill-rule="evenodd" stroke="none"/>
    <path d="M207.2 270.2 L-10.0 268.8 -51.05 141.75 199.35 144.95 207.2 270.2" fill="#b3d3e3" fill-rule="evenodd" stroke="none"/>
    <path d="M703.25 237.2 Q718.0 237.45 710.7 244.0 L552.7 384.0 Q549.4 386.9 539.45 386.9 L12.75 386.1 Q1.7 386.05 -0.65 383.0 L-114.2 230.25 Q-119.7 222.9 -102.1 223.2 L703.25 237.2 M683.4 250.0 Q690.25 243.6 675.65 243.4 L268.7 236.6 Q252.65 236.3 252.15 243.1 L251.0 259.15 Q250.5 265.2 265.45 265.4 L647.1 270.65 Q660.85 270.8 667.05 265.1 L683.4 250.0 M636.8 277.85 L266.1 273.05 Q251.45 272.85 251.0 278.55 L246.1 340.7 Q245.8 344.65 257.9 344.75 L565.5 346.5 Q576.75 346.55 580.85 342.75 L644.55 283.45 Q650.3 278.0 636.8 277.85 M231.4 340.2 L235.2 231.9 -100.05 226.15 -20.7 338.65 231.4 340.2" fill="#cccccc" fill-rule="evenodd" stroke="none"/>
    <path d="M217.8 323.2 L-20.75 321.35 -81.1 231.5 217.3 236.45 217.8 323.2" fill="#ff9999" fill-rule="evenodd" stroke="none"/>
    <path d="M703.25 237.2 L-102.1 223.2 Q-119.7 222.9 -114.2 230.25 L-0.65 383.0 Q1.7 386.05 12.75 386.1 L539.45 386.9 Q549.4 386.9 552.7 384.0 L710.7 244.0 Q718.0 237.45 703.25 237.2 M683.4 250.0 L667.05 265.1 Q660.85 270.8 647.1 270.65 L265.45 265.4 Q250.5 265.2 251.0 259.15 L252.15 243.1 Q252.65 236.3 268.7 236.6 L675.65 243.4 Q690.25 243.6 683.4 250.0 M724.05 233.45 Q738.95 233.7 731.25 240.35 L547.05 398.3 Q543.95 400.95 534.5 400.95 L9.55 400.95 Q-1.05 400.95 -3.2 398.15 L-140.1 225.45 Q-146.1 217.95 -128.25 218.3 L724.05 233.45 M636.8 277.85 Q650.3 278.0 644.55 283.45 L580.85 342.75 Q576.75 346.55 565.5 346.5 L257.9 344.75 Q245.8 344.65 246.1 340.7 L251.0 278.55 Q251.45 272.85 266.1 273.05 L636.8 277.85 M231.4 340.2 L-20.7 338.65 -100.05 226.15 235.2 231.9 231.4 340.2 M217.8 323.2 L217.3 236.45 -81.1 231.5 -20.75 321.35 217.8 323.2" fill="#f8f8f8" fill-rule="evenodd" stroke="none"/>
    <path d="M668.35 384.05 L252.7 384.05 236.75 384.85 235.25 393.35 247.65 393.85 574.8 393.85 592.3 393.35 676.15 384.85 Q684.15 384.0 668.35 384.05 M707.05 382.05 L730.45 379.7 Q740.5 378.65 722.85 378.7 L253.7 378.7 Q236.0 378.65 235.9 379.7 L235.55 382.05 251.65 382.95 682.1 382.95 707.05 382.05 M758.1 377.65 Q776.1 377.65 765.2 378.7 L555.5 398.8 Q551.55 399.2 541.0 399.2 L9.3 399.2 -4.1 398.8 -153.65 378.7 Q-161.5 377.6 -143.5 377.65 L758.1 377.65 M-119.5 378.05 L-140.5 378.05 -32.5 393.3 220.15 393.3 216.45 378.05 197.25 378.05 -119.5 378.05" fill="#cccccc" fill-rule="evenodd" stroke="none"/>
    <path d="M758.1 377.65 L-143.5 377.65 Q-161.5 377.6 -153.65 378.7 L-4.1 398.8 9.3 399.2 541.0 399.2 Q551.55 399.2 555.5 398.8 L765.2 378.7 Q776.1 377.65 758.1 377.65 M784.75 377.0 Q802.95 376.95 791.3 378.05 L547.55 400.65 Q543.95 401.0 533.95 401.0 L9.0 401.0 -3.65 400.65 -181.55 378.05 Q-190.05 377.0 -171.8 377.0 L784.75 377.0 M197.25 378.05 L197.25 378.8 -119.5 378.8 -119.5 378.05 197.25 378.05" fill="#ffffff" fill-rule="evenodd" stroke="none"/>
    <path d="M707.05 382.05 L682.1 382.95 251.65 382.95 235.55 382.05 235.9 379.7 Q236.0 378.65 253.7 378.7 L722.85 378.7 Q740.5 378.65 730.45 379.7 L707.05 382.05 M668.35 384.05 Q684.15 384.0 676.15 384.85 L592.3 393.35 574.8 393.85 247.65 393.85 235.25 393.35 236.75 384.85 252.7 384.05 668.35 384.05 M197.25 378.8 L197.25 378.05 216.45 378.05 220.15 393.3 -32.5 393.3 -140.5 378.05 -119.5 378.05 -119.5 378.8 -36.35 391.05 204.85 391.05 197.25 378.8" fill="#f3f3f3" fill-rule="evenodd" stroke="none"/>
    <path d="M197.25 378.8 L204.85 391.05 -36.35 391.05 -119.5 378.8 197.25 378.8" fill="#a3d78e" fill-rule="evenodd" stroke="none"/>
    <path d="M72.75 193.75 L82.0 192.25 Q76.05 191.85 72.75 193.5 L72.75 193.75 M80.0 188.25 Q84.6 188.25 94.25 192.25 103.75 196.15 103.75 197.75 103.35 200.35 99.0 201.5 L101.25 202.5 101.65 202.3 Q102.0 202.45 102.0 204.0 102.0 207.1 96.75 207.0 L105.45 208.9 112.25 211.5 113.0 213.0 Q110.75 214.7 105.75 215.75 107.45 215.55 111.75 219.0 110.8 219.45 111.6 220.2 L105.0 220.75 Q87.35 220.0 79.0 220.0 L61.35 219.45 47.0 217.75 45.65 217.3 Q45.25 217.0 45.25 215.35 45.25 214.55 49.55 211.9 54.15 209.1 57.0 208.75 L56.45 208.45 Q56.25 208.35 56.25 206.85 58.75 205.1 62.0 200.25 60.75 199.25 60.25 198.5 65.9 192.5 68.2 191.05 72.6 188.25 80.0 188.25 M88.25 197.5 L94.3 197.65 99.0 197.25 92.0 197.0 88.25 197.5 M85.85 208.8 L86.0 208.0 Q86.0 206.5 85.65 206.25 L85.25 206.0 65.3 207.85 Q62.85 208.35 62.05 209.45 61.25 210.5 61.25 212.85 61.25 213.8 67.55 216.6 75.25 220.0 83.0 220.0 90.0 219.0 90.0 217.0 90.0 215.5 89.65 215.25 L89.25 215.0 82.0 214.75 82.25 214.5 Q83.4 212.15 85.0 210.25 L85.8 209.0 89.25 209.0 85.85 208.8 M64.2 270.35 L65.25 269.25 Q71.65 263.0 81.0 263.0 84.6 263.0 91.3 266.8 98.55 270.9 100.55 275.3 L100.35 274.9 Q91.85 265.25 78.0 265.25 71.55 265.25 64.2 270.35 M88.05 282.4 L87.25 284.45 Q84.85 285.4 81.75 292.4 78.7 299.45 78.3 303.3 L78.15 303.5 Q75.7 303.45 73.5 303.55 L73.0 302.5 71.9 304.15 72.25 303.6 65.5 304.3 65.95 305.25 64.0 300.75 66.5 298.25 Q66.9 299.0 67.1 300.55 67.45 301.75 69.0 301.75 71.5 301.75 70.25 301.25 80.0 285.0 80.0 283.0 L79.95 281.05 78.0 281.0 Q76.75 281.0 76.65 280.4 76.4 278.9 75.0 277.25 72.1 279.4 67.9 284.35 67.5 279.8 65.65 277.75 L66.0 277.75 Q67.75 277.75 73.05 274.4 77.2 271.7 80.1 271.15 77.3 272.35 76.25 274.75 78.7 277.2 88.05 282.4 M96.45 307.0 L95.75 303.7 97.0 304.75 98.35 304.3 Q98.75 304.0 98.75 302.35 98.75 301.1 99.9 297.85 L100.9 294.4 101.35 293.7 101.75 293.2 101.9 293.0 102.35 292.6 Q103.65 291.45 105.5 291.0 L106.25 291.75 Q102.6 295.25 101.3 302.25 L100.25 307.85 96.45 307.0 M91.5 287.3 Q90.5 285.25 89.3 283.8 L93.0 286.95 Q95.4 288.95 95.75 290.0 L95.0 290.25 91.2 286.7 91.5 287.3 M56.5 310.45 Q55.55 309.6 55.1 307.55 L53.75 302.25 52.5 304.25 50.5 304.25 Q50.0 303.35 50.0 300.85 50.0 299.15 51.05 297.55 52.05 296.0 53.0 296.0 53.95 296.0 54.35 296.65 L58.0 296.25 Q59.9 297.8 59.9 301.45 59.85 305.8 59.95 307.6 L59.5 307.8 Q58.15 308.45 56.5 310.45 M63.05 298.1 L62.55 296.55 62.4 296.1 62.5 295.75 Q62.5 295.4 63.75 296.25 63.75 297.25 63.05 298.1 M72.5 198.0 Q68.0 198.0 67.0 199.5 L66.75 200.0 75.0 198.25 77.75 198.0 72.5 198.0 M64.2 276.6 L62.7 276.1 Q63.45 275.5 64.25 275.0 L64.2 276.6" fill="#e4a96b" fill-rule="evenodd" stroke="none"/>
    <path d="M85.85 208.8 L84.75 209.0 85.8 209.0 85.0 210.25 Q83.4 212.15 82.25 214.5 L82.0 214.75 89.25 215.0 89.65 215.25 Q90.0 215.5 90.0 217.0 90.0 219.0 83.0 220.0 75.25 220.0 67.55 216.6 61.25 213.8 61.25 212.85 61.25 210.5 62.05 209.45 62.85 208.35 65.3 207.85 L85.25 206.0 85.65 206.25 Q86.0 206.5 86.0 208.0 L85.85 208.8 M87.25 284.45 L87.2 284.55 85.4 288.8 85.15 289.35 Q81.35 298.1 78.3 303.3 78.7 299.45 81.75 292.4 84.85 285.4 87.25 284.45 M78.15 303.5 L78.1 303.65 78.0 303.65 73.85 304.8 73.8 304.75 73.5 303.55 Q75.7 303.45 78.15 303.5 M66.55 306.25 L65.95 305.25 65.5 304.3 72.25 303.6 71.9 304.15 71.5 304.85 70.3 306.0 66.55 306.25" fill="#edb777" fill-rule="evenodd" stroke="none"/>
    <path d="M100.55 275.3 L100.7 275.65 100.75 275.75 100.25 277.25 Q101.0 277.75 98.5 277.75 97.6 277.75 93.7 274.45 L89.5 270.75 Q90.0 273.75 90.0 276.0 L90.0 276.1 90.0 276.3 89.8 277.4 88.05 282.4 Q78.7 277.2 76.25 274.75 77.3 272.35 80.1 271.15 77.2 271.7 73.05 274.4 67.75 277.75 66.0 277.75 L65.65 277.75 Q67.5 279.8 67.9 284.35 72.1 279.4 75.0 277.25 76.4 278.9 76.65 280.4 76.75 281.0 78.0 281.0 L79.95 281.05 80.0 283.0 Q80.0 285.0 70.25 301.25 71.5 301.75 69.0 301.75 67.45 301.75 67.1 300.55 66.9 299.0 66.5 298.25 L64.0 300.75 63.95 300.6 63.05 298.1 Q63.75 297.25 63.75 296.25 62.5 295.4 62.5 295.75 L62.4 296.1 62.25 295.65 61.55 293.45 61.5 293.3 60.45 289.5 60.45 289.45 Q59.6 286.05 59.55 283.85 L59.5 283.25 Q59.5 281.7 61.55 281.4 L62.85 281.3 63.75 281.25 62.9 281.1 60.75 281.0 Q60.0 281.5 60.0 279.0 L60.0 278.85 Q60.1 274.8 64.2 270.35 71.55 265.25 78.0 265.25 91.85 265.25 100.35 274.9 L100.55 275.3 M95.75 303.7 L94.5 297.25 Q93.8 293.4 92.75 290.4 L92.0 288.4 91.9 288.25 91.5 287.3 91.2 286.7 95.0 290.25 95.75 290.0 Q95.4 288.95 93.0 286.95 L89.3 283.8 89.2 283.75 88.7 283.15 88.35 282.85 88.25 282.75 Q89.5 280.5 90.25 279.75 L91.5 279.75 Q94.45 279.75 96.2 281.9 L96.55 282.35 98.7 289.2 98.9 294.6 98.5 302.0 100.0 296.45 100.05 296.35 Q100.35 295.25 100.9 294.4 L99.9 297.85 Q98.75 301.1 98.75 302.35 98.75 304.0 98.35 304.3 L97.0 304.75 95.75 303.7 M64.2 276.6 L64.25 275.0 Q63.45 275.5 62.7 276.1 L64.2 276.6 M63.75 289.5 L63.8 289.4 63.65 287.4 Q63.4 286.2 63.0 286.0 L63.0 286.25 63.75 289.25 63.75 289.5" fill="#7c522c" fill-rule="evenodd" stroke="none"/>
    <path d="M78.1 303.65 Q84.5 301.9 86.0 300.5 88.05 300.85 88.5 302.25 87.85 303.25 85.25 304.0 L85.0 304.5 96.45 307.0 100.25 307.85 103.75 308.75 Q107.65 309.8 123.25 314.75 L123.5 314.55 123.75 316.25 Q123.75 317.0 86.25 319.5 L55.75 317.75 Q55.25 318.6 55.25 316.1 55.25 313.45 58.25 313.0 L56.25 310.75 56.5 310.45 Q58.15 308.45 59.5 307.8 L59.95 307.6 Q62.25 306.65 66.55 306.25 L70.3 306.0 70.5 306.0 Q71.0 305.6 73.85 304.8 L78.0 303.65 78.1 303.65" fill="#009999" fill-rule="evenodd" stroke="none"/>
  </g>
</svg>
