<?xml version="1.0" encoding="UTF-8" standalone="no"?>
<svg xmlns:ffdec="https://www.free-decompiler.com/flash" xmlns:xlink="http://www.w3.org/1999/xlink" ffdec:objectType="shape" height="451.0px" width="600.95px" xmlns="http://www.w3.org/2000/svg">
  <g transform="matrix(1.0, 0.0, 0.0, 1.0, 0.0, 0.0)">
    <path d="M600.05 57.9 L600.05 0.05 434.2 0.05 180.05 0.05 0.05 0.05 0.05 0.0 600.1 0.0 600.1 281.1 600.05 281.1 600.05 57.9" fill="#999999" fill-rule="evenodd" stroke="none"/>
    <path d="M600.05 281.1 L600.1 281.1 600.95 280.95 600.95 283.0 600.05 283.15 600.05 281.1 M135.45 390.85 L119.4 378.8 Q119.05 378.55 119.0 378.15 118.95 377.75 119.2 377.4 119.45 377.05 119.85 377.0 120.25 376.95 120.6 377.2 L134.35 387.55 154.9 402.95 190.05 429.25 219.0 451.0 215.65 451.0 135.5 390.85 135.45 390.85 M444.45 340.35 L415.65 328.4 418.75 328.0 447.45 339.95 586.4 397.8 586.5 397.85 592.3 400.25 592.7 400.7 592.85 400.65 593.6 400.7 593.7 400.75 600.95 398.7 600.95 400.75 594.0 402.75 594.0 410.3 600.95 408.7 600.95 410.8 593.25 412.55 441.9 451.0 433.25 451.0 592.0 410.8 592.0 403.2 Q483.9 431.95 412.05 450.0 L408.05 451.0 388.55 451.0 410.85 445.6 442.1 437.95 476.3 429.8 481.3 428.5 587.5 402.25 587.6 402.25 588.95 401.9 590.95 401.4 591.05 401.4 590.7 401.25 566.55 391.2 558.15 387.7 488.4 358.65 468.65 350.45 444.45 340.35" fill="#6b6b6b" fill-rule="evenodd" stroke="none"/>
    <path d="M297.8 342.75 L300.75 343.75 341.45 338.8 338.1 337.85 415.65 328.4 444.45 340.35 444.35 340.45 444.35 340.75 444.85 341.15 Q445.3 341.5 445.3 342.25 L445.15 343.15 Q428.15 347.75 378.9 357.5 121.6 403.75 156.35 396.4 191.05 389.0 178.2 391.65 165.3 394.25 147.4 395.6 L147.35 395.6 146.65 395.15 141.85 392.1 141.55 391.9 140.6 391.3 134.35 387.55 120.6 377.2 Q120.25 376.95 119.85 377.0 119.45 377.05 119.2 377.4 118.95 377.75 119.0 378.15 119.05 378.55 119.4 378.8 L135.45 390.85 135.0 390.8 Q133.8 390.8 133.8 393.15 133.8 394.4 134.05 394.0 L136.5 394.0 136.65 393.45 Q136.75 393.0 137.5 393.0 L138.95 393.85 141.5 395.7 141.6 395.8 141.95 396.0 141.9 396.0 140.65 396.05 86.5 405.0 Q72.45 408.0 66.45 408.8 L36.75 411.75 Q26.95 412.7 0.05 417.95 L0.0 417.95 0.0 379.1 172.5 358.05 173.55 358.6 173.9 359.05 173.9 359.15 261.9 348.5 259.2 347.45 297.8 342.75 M397.55 367.0 Q397.65 367.3 396.4 367.3 395.15 367.3 394.3 366.55 L394.35 366.25 395.3 366.05 Q397.0 366.05 397.55 367.0 M458.1 343.7 L449.0 340.15 449.65 340.0 Q548.9 319.15 600.1 313.55 L600.95 313.45 600.95 320.85 600.1 321.0 Q590.1 323.05 574.5 325.2 523.35 331.4 507.9 334.25 480.05 339.4 458.1 343.7 M427.1 354.3 Q428.9 352.95 429.55 353.5 429.25 353.9 427.3 354.75 L427.1 354.3 M430.05 370.0 Q428.5 371.8 427.1 371.8 L428.3 370.2 Q428.85 369.45 430.05 370.0 M437.85 363.75 Q436.05 363.3 436.1 362.75 L438.1 362.75 438.25 362.55 438.35 363.25 437.85 363.75 M412.3 362.55 Q411.05 363.55 410.55 363.55 409.15 363.55 408.85 363.05 L408.85 362.5 411.55 362.05 412.3 362.55 M422.35 384.55 Q424.25 382.9 425.8 383.05 424.15 384.7 422.6 385.0 L422.35 384.55 M417.05 391.75 L416.05 391.5 Q416.15 391.05 416.55 391.05 L416.55 391.0 418.05 391.5 417.05 391.75 M441.8 379.25 Q441.8 380.05 440.55 380.75 L439.35 380.05 439.3 378.55 440.55 378.25 Q441.2 378.25 441.8 379.25 M432.55 379.75 Q433.55 379.75 434.6 380.3 434.0 380.6 433.6 381.45 433.2 382.15 432.55 382.25 431.25 381.85 431.3 380.5 431.8 379.75 432.55 379.75 M428.05 393.0 Q427.35 392.75 427.35 392.05 L428.6 392.3 428.05 393.0 M476.6 387.3 Q475.95 388.5 474.6 388.55 L474.3 388.25 Q474.25 387.3 476.1 387.3 L476.6 387.3 M524.3 389.5 L525.05 389.25 Q526.75 389.25 527.1 389.75 L527.3 390.05 Q527.8 390.75 526.55 390.75 524.8 390.75 524.3 390.25 L524.3 389.5 M501.6 392.05 Q501.3 392.75 501.3 391.5 501.3 388.95 505.55 390.5 503.0 391.95 501.6 392.05 M528.6 365.0 L527.05 363.5 Q527.35 363.0 528.8 363.0 529.5 363.7 529.6 364.5 529.55 364.8 528.6 365.0 M545.1 364.75 L545.3 365.05 Q545.8 365.75 544.55 365.75 542.8 365.75 542.3 365.25 L542.3 364.5 543.05 364.25 Q544.75 364.25 545.1 364.75 M544.8 372.25 L544.8 371.5 Q547.15 370.7 548.05 371.5 547.2 372.55 545.9 372.55 L544.8 372.25 M562.1 379.3 Q563.0 378.8 564.8 378.8 L565.3 379.55 564.55 380.25 Q562.4 379.95 562.1 379.3 M562.55 372.8 L560.55 372.25 560.55 371.5 Q562.05 371.75 563.55 371.0 L565.05 371.5 562.55 372.8 M553.85 377.55 L553.55 378.25 552.35 378.3 Q552.1 378.75 552.1 377.5 L552.3 376.75 553.05 376.55 Q553.75 376.85 553.85 377.55 M582.35 369.55 L583.3 369.5 Q584.45 369.5 584.6 370.55 585.45 371.4 583.55 370.8 581.85 370.3 582.35 369.55 M581.55 379.5 Q580.85 379.25 580.85 378.55 L582.1 378.8 Q582.05 379.25 581.55 379.5 M597.55 383.5 Q595.8 383.3 595.55 383.0 595.8 382.55 599.1 382.3 L597.55 383.5 M595.35 388.0 Q598.15 387.2 599.05 388.0 598.2 389.05 597.55 389.05 595.65 389.05 595.35 388.55 L595.35 388.0 M306.6 402.55 Q307.15 403.0 305.9 403.0 303.8 403.0 302.8 402.0 303.1 401.5 305.3 401.5 L306.55 402.25 306.6 402.55 M293.55 410.85 Q293.5 409.0 296.55 410.0 L294.05 411.3 Q293.55 412.1 293.55 410.85 M302.55 437.0 L300.3 436.55 300.05 436.0 300.1 435.55 299.85 435.55 300.55 435.5 Q301.6 435.5 303.05 436.5 303.8 437.0 302.55 437.0 M296.8 439.75 L299.55 440.0 Q300.3 440.5 299.05 440.5 L296.8 440.05 296.8 439.75 M278.8 403.3 L279.3 404.05 Q278.25 405.05 276.55 405.05 L275.55 404.75 275.3 404.3 Q277.5 403.3 278.8 403.3 M254.3 410.05 L248.3 409.55 248.55 409.25 254.3 410.05 M260.55 429.0 Q259.7 429.0 258.1 427.8 L263.1 427.8 Q262.65 429.0 260.55 429.0 M314.05 450.0 Q315.5 449.0 317.05 449.0 L318.1 449.3 318.3 449.55 316.4 450.0 314.3 450.3 314.05 450.0 M230.3 414.55 L229.55 415.25 Q227.75 414.8 227.55 414.5 227.9 413.8 229.8 413.8 L230.3 414.55 M107.0 444.5 Q106.3 444.25 106.3 443.55 L107.55 443.8 107.0 444.5 M155.25 450.5 Q155.75 450.75 154.5 450.75 L151.05 450.3 150.9 450.0 150.75 449.3 150.75 448.9 151.5 448.75 155.0 449.0 155.3 449.3 155.25 450.5 M533.3 398.05 L527.8 398.8 527.55 398.5 Q528.9 397.6 532.35 397.5 L533.3 398.05 M514.8 401.05 Q516.75 399.85 518.3 400.05 L514.8 401.05 M501.3 405.5 L502.3 406.05 Q501.6 406.6 499.6 407.0 499.35 407.6 499.35 406.35 499.35 405.5 501.3 405.5 M461.75 419.55 L462.1 420.05 462.3 420.5 Q462.8 421.05 461.55 421.05 460.15 421.05 456.6 419.8 457.5 419.3 460.8 419.3 461.55 419.3 461.75 419.55 M446.85 425.05 Q446.4 425.8 444.55 425.8 442.05 425.8 440.55 425.05 440.5 423.8 442.3 423.8 L446.6 424.05 Q446.55 424.3 446.85 425.05 M408.8 420.05 Q408.55 420.25 406.8 420.05 L407.05 419.75 408.8 420.05 M422.3 429.55 Q422.05 430.05 420.05 430.5 419.35 431.25 419.35 430.0 419.3 428.8 421.8 428.8 L422.3 429.55 M365.3 412.75 L365.1 412.3 367.55 411.05 368.3 411.55 365.3 412.75 M373.9 408.65 Q374.3 408.25 375.05 408.25 L375.85 408.4 376.1 408.8 376.2 408.6 376.3 409.35 376.1 410.3 375.05 410.75 373.3 409.3 373.9 408.65 M376.8 432.55 Q377.3 431.85 379.75 431.5 L382.6 431.3 376.8 432.55 M377.1 426.0 Q378.3 424.8 378.6 424.8 378.6 425.4 377.55 426.25 L377.1 426.0 M397.55 422.75 L397.1 422.5 Q398.7 421.2 399.6 421.3 L397.55 422.75 M400.55 430.55 Q399.35 430.5 399.35 429.75 399.8 429.3 400.3 429.3 401.8 429.3 402.3 430.05 L400.55 430.55 M387.3 424.55 Q388.15 423.5 389.8 424.05 L387.3 424.55 M353.6 416.3 L356.05 415.05 357.3 415.55 353.8 416.75 353.6 416.3 M331.2 404.2 Q330.25 404.1 330.1 403.8 L330.55 403.55 332.3 404.05 331.2 404.2 M344.05 419.5 L345.55 420.0 342.55 421.3 Q342.05 422.1 342.05 420.85 342.05 420.45 343.05 420.6 344.05 420.7 344.05 419.5 M333.55 426.8 Q333.05 426.55 333.05 426.0 L334.6 425.8 333.55 426.8 M330.1 430.8 L327.8 432.3 327.55 432.0 Q327.95 431.55 330.1 430.8 M359.1 434.3 Q362.9 433.15 364.1 433.8 363.95 434.95 360.1 435.05 359.25 434.75 359.1 434.3 M349.1 435.5 Q349.5 435.1 350.3 434.9 L351.55 435.0 350.4 435.45 349.1 435.5" fill="#baafa3" fill-rule="evenodd" stroke="none"/>
    <path d="M0.0 417.95 L0.05 417.95 Q26.95 412.7 36.75 411.75 L66.45 408.8 Q72.45 408.0 86.5 405.0 L140.65 396.05 141.9 396.0 Q149.95 401.9 172.65 419.55 L206.55 446.25 211.05 450.0 212.25 451.0 0.0 451.0 0.0 417.95 M147.4 395.6 Q165.3 394.25 178.2 391.65 191.05 389.0 156.35 396.4 121.6 403.75 378.9 357.5 428.15 347.75 445.15 343.15 L444.9 343.35 Q456.85 346.15 468.65 350.45 L488.4 358.65 499.45 363.75 Q509.25 368.15 517.55 371.3 529.1 375.65 556.3 387.0 L558.15 387.7 566.55 391.2 Q573.4 394.3 583.2 399.1 575.4 400.85 550.55 407.95 513.35 418.55 508.05 419.75 446.65 433.75 420.55 440.25 L377.1 450.0 372.6 451.0 343.4 451.0 345.9 450.0 347.1 449.3 344.55 449.7 343.3 450.0 Q342.0 450.4 342.05 450.85 L342.05 451.0 332.35 451.0 332.6 450.8 Q332.1 450.3 331.05 450.3 330.7 450.3 329.9 450.75 L329.5 451.0 223.5 451.0 222.2 450.0 196.3 430.2 Q169.75 409.9 147.4 395.6 M397.55 367.0 Q397.0 366.05 395.3 366.05 L394.35 366.25 394.3 366.55 Q395.15 367.3 396.4 367.3 397.65 367.3 397.55 367.0 M449.0 340.15 L448.05 339.75 447.45 339.95 418.75 328.0 599.0 306.0 599.0 300.15 600.05 300.05 600.05 283.15 600.95 283.0 600.95 313.45 600.1 313.55 Q548.9 319.15 449.65 340.0 L449.0 340.15 M586.5 397.85 Q592.55 400.0 593.8 400.0 L596.55 399.8 600.1 398.5 600.85 398.25 600.95 398.25 600.95 398.7 593.7 400.75 593.6 400.7 592.85 400.65 592.7 400.7 592.3 400.25 586.5 397.85 M600.95 395.35 L600.1 395.6 Q595.55 396.75 593.05 396.75 585.25 396.75 554.85 383.7 L522.8 369.3 458.1 343.7 Q480.05 339.4 507.9 334.25 523.35 331.4 574.5 325.2 590.1 323.05 600.1 321.0 L600.95 320.85 600.95 395.35 M476.6 387.3 L476.1 387.3 Q474.25 387.3 474.3 388.25 L474.6 388.55 Q475.95 388.5 476.6 387.3 M428.05 393.0 L428.6 392.3 427.35 392.05 Q427.35 392.75 428.05 393.0 M432.55 379.75 Q431.8 379.75 431.3 380.5 431.25 381.85 432.55 382.25 433.2 382.15 433.6 381.45 434.0 380.6 434.6 380.3 433.55 379.75 432.55 379.75 M441.8 379.25 Q441.2 378.25 440.55 378.25 L439.3 378.55 439.35 380.05 440.55 380.75 Q441.8 380.05 441.8 379.25 M417.05 391.75 L418.05 391.5 416.55 391.0 416.55 391.05 Q416.15 391.05 416.05 391.5 L417.05 391.75 M422.35 384.55 L422.6 385.0 Q424.15 384.7 425.8 383.05 424.25 382.9 422.35 384.55 M412.3 362.55 L411.55 362.05 408.85 362.5 408.85 363.05 Q409.15 363.55 410.55 363.55 411.05 363.55 412.3 362.55 M437.85 363.75 L438.35 363.25 438.25 362.55 438.1 362.75 436.1 362.75 Q436.05 363.3 437.85 363.75 M430.05 370.0 Q428.85 369.45 428.3 370.2 L427.1 371.8 Q428.5 371.8 430.05 370.0 M427.1 354.3 L427.3 354.75 Q429.25 353.9 429.55 353.5 428.9 352.95 427.1 354.3 M590.7 401.25 L591.05 401.4 590.95 401.4 590.7 401.25 M588.95 401.9 L587.6 402.25 588.8 401.85 588.95 401.9 M442.1 437.95 L410.85 445.6 Q419.95 442.55 427.55 441.0 L441.2 438.15 442.1 437.95 M501.6 392.05 Q503.0 391.95 505.55 390.5 501.3 388.95 501.3 391.5 501.3 392.75 501.6 392.05 M524.3 389.5 L524.3 390.25 Q524.8 390.75 526.55 390.75 527.8 390.75 527.3 390.05 L527.1 389.75 Q526.75 389.25 525.05 389.25 L524.3 389.5 M553.85 377.55 Q553.75 376.85 553.05 376.55 L552.3 376.75 552.1 377.5 Q552.1 378.75 552.35 378.3 L553.55 378.25 553.85 377.55 M562.55 372.8 L565.05 371.5 563.55 371.0 Q562.05 371.75 560.55 371.5 L560.55 372.25 562.55 372.8 M562.1 379.3 Q562.4 379.95 564.55 380.25 L565.3 379.55 564.8 378.8 Q563.0 378.8 562.1 379.3 M544.8 372.25 L545.9 372.55 Q547.2 372.55 548.05 371.5 547.15 370.7 544.8 371.5 L544.8 372.25 M545.1 364.75 Q544.75 364.25 543.05 364.25 L542.3 364.5 542.3 365.25 Q542.8 365.75 544.55 365.75 545.8 365.75 545.3 365.05 L545.1 364.75 M528.6 365.0 Q529.55 364.8 529.6 364.5 529.5 363.7 528.8 363.0 527.35 363.0 527.05 363.5 L528.6 365.0 M581.55 379.5 Q582.05 379.25 582.1 378.8 L580.85 378.55 Q580.85 379.25 581.55 379.5 M582.35 369.55 Q581.85 370.3 583.55 370.8 585.45 371.4 584.6 370.55 584.45 369.5 583.3 369.5 L582.35 369.55 M581.05 388.0 L581.55 387.5 579.8 387.25 581.05 388.0 M586.55 391.0 Q586.05 391.05 585.55 392.5 586.15 392.7 587.3 391.55 L586.55 391.0 M585.6 387.05 L585.55 387.5 Q585.95 388.0 587.55 388.0 588.8 388.0 588.3 387.55 L588.1 387.25 586.8 387.0 585.6 387.05 M575.3 382.8 L570.35 383.5 570.35 384.05 Q570.75 384.75 573.05 384.75 574.5 384.75 575.8 383.55 L575.3 382.8 M597.55 383.5 L599.1 382.3 Q595.8 382.55 595.55 383.0 595.8 383.3 597.55 383.5 M596.05 381.0 Q596.05 381.4 594.05 382.5 L594.3 382.8 Q597.45 381.9 597.8 381.55 L596.05 381.0 M595.35 388.0 L595.35 388.55 Q595.65 389.05 597.55 389.05 598.2 389.05 599.05 388.0 598.15 387.2 595.35 388.0 M600.3 386.55 L598.55 386.25 598.3 386.55 600.1 386.65 600.3 386.55 M219.0 451.0 L190.05 429.25 190.65 429.7 185.35 425.55 168.9 413.1 170.35 414.15 214.45 446.25 219.55 450.0 220.9 451.0 219.0 451.0 M260.55 429.0 Q262.65 429.0 263.1 427.8 L258.1 427.8 Q259.7 429.0 260.55 429.0 M254.3 410.05 L248.55 409.25 248.3 409.55 254.3 410.05 M278.8 403.3 Q277.5 403.3 275.3 404.3 L275.55 404.75 276.55 405.05 Q278.25 405.05 279.3 404.05 L278.8 403.3 M296.8 439.75 L296.8 440.05 299.05 440.5 Q300.3 440.5 299.55 440.0 L296.8 439.75 M302.55 437.0 Q303.8 437.0 303.05 436.5 301.6 435.5 300.55 435.5 L299.85 435.55 300.1 435.55 300.05 436.0 300.3 436.55 302.55 437.0 M293.55 410.85 Q293.55 412.1 294.05 411.3 L296.55 410.0 Q293.5 409.0 293.55 410.85 M306.6 402.55 L306.55 402.25 305.3 401.5 Q303.1 401.5 302.8 402.0 303.8 403.0 305.9 403.0 307.15 403.0 306.6 402.55 M267.6 446.8 Q266.8 446.4 265.3 447.55 267.45 447.55 267.6 446.8 M230.3 414.55 L229.8 413.8 Q227.9 413.8 227.55 414.5 227.75 414.8 229.55 415.25 L230.3 414.55 M314.05 450.0 L314.3 450.3 316.4 450.0 318.3 449.55 318.1 449.3 317.05 449.0 Q315.5 449.0 314.05 450.0 M155.25 450.5 L155.3 449.3 155.0 449.0 151.5 448.75 150.75 448.9 150.75 449.3 150.9 450.0 151.05 450.3 154.5 450.75 Q155.75 450.75 155.25 450.5 M107.0 444.5 L107.55 443.8 106.3 443.55 Q106.3 444.25 107.0 444.5 M552.8 403.0 Q553.7 403.0 554.55 402.0 552.15 401.5 551.3 402.55 L552.8 403.0 M547.35 400.55 L547.6 401.0 Q548.25 400.85 549.6 399.3 547.55 400.1 547.35 400.55 M533.3 398.05 L532.35 397.5 Q528.9 397.6 527.55 398.5 L527.8 398.8 533.3 398.05 M532.6 407.8 L531.35 407.55 Q531.35 408.25 532.05 408.5 532.55 408.25 532.6 407.8 M528.35 399.5 L528.35 400.05 528.9 400.5 Q529.75 400.5 530.3 400.05 L529.3 399.5 528.35 399.5 M514.8 401.05 L518.3 400.05 Q516.75 399.85 514.8 401.05 M513.05 412.3 Q514.75 412.85 514.1 412.05 513.95 411.05 512.35 411.05 L511.55 411.05 Q511.45 411.8 513.05 412.3 M501.3 405.5 Q499.35 405.5 499.35 406.35 499.35 407.6 499.6 407.0 501.6 406.6 502.3 406.05 L501.3 405.5 M466.55 414.5 L469.05 412.0 Q466.9 411.3 465.85 414.25 L466.55 414.5 M485.8 398.55 Q485.1 397.55 483.3 397.55 L482.55 397.75 482.55 398.05 Q483.05 398.8 484.55 398.8 L485.8 398.55 M461.75 419.55 Q461.55 419.3 460.8 419.3 457.5 419.3 456.6 419.8 460.15 421.05 461.55 421.05 462.8 421.05 462.3 420.5 L462.1 420.05 461.75 419.55 M445.55 408.0 L445.6 407.3 Q445.1 406.8 443.05 406.8 L442.35 407.0 442.6 408.05 445.55 408.0 M446.85 425.05 Q446.55 424.3 446.6 424.05 L442.3 423.8 Q440.5 423.8 440.55 425.05 442.05 425.8 444.55 425.8 446.4 425.8 446.85 425.05 M433.7 410.75 L434.6 411.0 Q435.9 411.0 436.6 410.05 L436.05 409.3 433.35 409.55 433.35 410.25 433.7 410.75 M425.55 419.3 Q427.4 419.3 427.8 418.55 L427.3 417.8 Q425.8 417.8 424.1 418.55 L424.8 419.0 425.55 419.3 M422.3 429.55 L421.8 428.8 Q419.3 428.8 419.35 430.0 419.35 431.25 420.05 430.5 422.05 430.05 422.3 429.55 M408.8 420.05 L407.05 419.75 406.8 420.05 Q408.55 420.25 408.8 420.05 M428.6 425.3 L433.8 425.55 Q433.4 425.05 429.05 425.05 L428.6 425.3 M410.35 428.55 Q410.3 429.25 411.05 429.5 L411.6 428.8 410.35 428.55 M365.05 420.5 Q365.55 420.25 365.6 419.8 L364.35 419.55 Q364.3 420.25 365.05 420.5 M391.05 416.0 L392.1 413.8 Q391.15 414.45 390.35 415.75 L391.05 416.0 M349.1 435.5 L350.4 435.45 351.55 435.0 350.3 434.9 Q349.5 435.1 349.1 435.5 M359.1 434.3 Q359.25 434.75 360.1 435.05 363.95 434.95 364.1 433.8 362.9 433.15 359.1 434.3 M330.1 430.8 Q327.95 431.55 327.55 432.0 L327.8 432.3 330.1 430.8 M333.55 426.8 L334.6 425.8 333.05 426.0 Q333.05 426.55 333.55 426.8 M344.05 419.5 Q344.05 420.7 343.05 420.6 342.05 420.45 342.05 420.85 342.05 422.1 342.55 421.3 L345.55 420.0 344.05 419.5 M331.2 404.2 L332.3 404.05 330.55 403.55 330.1 403.8 Q330.25 404.1 331.2 404.2 M353.6 416.3 L353.8 416.75 357.3 415.55 356.05 415.05 353.6 416.3 M387.3 424.55 L389.8 424.05 Q388.15 423.5 387.3 424.55 M400.55 430.55 L402.3 430.05 Q401.8 429.3 400.3 429.3 399.8 429.3 399.35 429.75 399.35 430.5 400.55 430.55 M397.55 422.75 L399.6 421.3 Q398.7 421.2 397.1 422.5 L397.55 422.75 M377.1 426.0 L377.55 426.25 Q378.6 425.4 378.6 424.8 378.3 424.8 377.1 426.0 M376.8 432.55 L382.6 431.3 379.75 431.5 Q377.3 431.85 376.8 432.55 M373.9 408.65 L373.3 409.3 375.05 410.75 376.1 410.3 376.3 409.35 376.2 408.6 376.1 408.8 375.85 408.4 375.05 408.25 Q374.3 408.25 373.9 408.65 M365.3 412.75 L368.3 411.55 367.55 411.05 365.1 412.3 365.3 412.75" fill="#c5bcb1" fill-rule="evenodd" stroke="none"/>
    <path d="M134.35 387.55 L140.6 391.3 141.55 391.9 141.85 392.1 146.65 395.15 147.35 395.6 147.4 395.6 Q169.75 409.9 196.3 430.2 L222.2 450.0 223.5 451.0 220.9 451.0 219.55 450.0 214.45 446.25 170.35 414.15 168.9 413.1 164.0 409.5 162.85 408.65 155.55 403.4 154.9 402.95 134.35 387.55 M447.45 339.95 L448.05 339.75 449.0 340.15 458.1 343.7 522.8 369.3 554.85 383.7 Q585.25 396.75 593.05 396.75 595.55 396.75 600.1 395.6 L600.95 395.35 600.95 398.25 600.85 398.25 600.1 398.5 596.55 399.8 593.8 400.0 Q592.55 400.0 586.5 397.85 L586.4 397.8 447.45 339.95 M587.6 402.25 L587.5 402.25 481.3 428.5 476.3 429.8 442.1 437.95 441.2 438.15 427.55 441.0 Q419.95 442.55 410.85 445.6 L388.55 451.0 372.6 451.0 377.1 450.0 420.55 440.25 Q446.65 433.75 508.05 419.75 513.35 418.55 550.55 407.95 575.4 400.85 583.2 399.1 L583.25 399.1 583.85 399.4 588.1 401.5 588.45 401.65 588.8 401.85 587.6 402.25 M575.3 382.8 L575.8 383.55 Q574.5 384.75 573.05 384.75 570.75 384.75 570.35 384.05 L570.35 383.5 575.3 382.8 M585.6 387.05 L586.8 387.0 588.1 387.25 588.3 387.55 Q588.8 388.0 587.55 388.0 585.95 388.0 585.55 387.5 L585.6 387.05 M586.55 391.0 L587.3 391.55 Q586.15 392.7 585.55 392.5 586.05 391.05 586.55 391.0 M581.05 388.0 L579.8 387.25 581.55 387.5 581.05 388.0 M596.05 381.0 L597.8 381.55 Q597.45 381.9 594.3 382.8 L594.05 382.5 Q596.05 381.4 596.05 381.0 M600.3 386.55 L600.1 386.65 598.3 386.55 598.55 386.25 600.3 386.55 M267.6 446.8 Q267.45 447.55 265.3 447.55 266.8 446.4 267.6 446.8 M547.35 400.55 Q547.55 400.1 549.6 399.3 548.25 400.85 547.6 401.0 L547.35 400.55 M552.8 403.0 L551.3 402.55 Q552.15 401.5 554.55 402.0 553.7 403.0 552.8 403.0 M528.35 399.5 L529.3 399.5 530.3 400.05 Q529.75 400.5 528.9 400.5 L528.35 400.05 528.35 399.5 M532.6 407.8 Q532.55 408.25 532.05 408.5 531.35 408.25 531.35 407.55 L532.6 407.8 M513.05 412.3 Q511.45 411.8 511.55 411.05 L512.35 411.05 Q513.95 411.05 514.1 412.05 514.75 412.85 513.05 412.3 M485.8 398.55 L484.55 398.8 Q483.05 398.8 482.55 398.05 L482.55 397.75 483.3 397.55 Q485.1 397.55 485.8 398.55 M466.55 414.5 L465.85 414.25 Q466.9 411.3 469.05 412.0 L466.55 414.5 M445.55 408.0 L442.6 408.05 442.35 407.0 443.05 406.8 Q445.1 406.8 445.6 407.3 L445.55 408.0 M425.55 419.3 L424.8 419.0 424.1 418.55 Q425.8 417.8 427.3 417.8 L427.8 418.55 Q427.4 419.3 425.55 419.3 M433.7 410.75 L433.35 410.25 433.35 409.55 436.05 409.3 436.6 410.05 Q435.9 411.0 434.6 411.0 L433.7 410.75 M410.35 428.55 L411.6 428.8 411.05 429.5 Q410.3 429.25 410.35 428.55 M428.6 425.3 L429.05 425.05 Q433.4 425.05 433.8 425.55 L428.6 425.3 M391.05 416.0 L390.35 415.75 Q391.15 414.45 392.1 413.8 L391.05 416.0 M365.05 420.5 Q364.3 420.25 364.35 419.55 L365.6 419.8 Q365.55 420.25 365.05 420.5 M342.05 451.0 L342.05 450.85 Q342.0 450.4 343.3 450.0 L344.55 449.7 347.1 449.3 345.9 450.0 343.4 451.0 342.05 451.0 M332.35 451.0 L329.5 451.0 329.9 450.75 Q330.7 450.3 331.05 450.3 332.1 450.3 332.6 450.8 L332.35 451.0" fill="#d2ccc4" fill-rule="evenodd" stroke="none"/>
    <path d="M141.9 396.0 L141.95 396.0 141.6 395.8 141.5 395.7 138.95 393.85 137.5 393.0 Q136.75 393.0 136.65 393.45 L136.5 394.0 134.05 394.0 Q133.8 394.4 133.8 393.15 133.8 390.8 135.0 390.8 L135.45 390.85 135.5 390.85 215.65 451.0 212.25 451.0 211.05 450.0 206.55 446.25 172.65 419.55 Q149.95 401.9 141.9 396.0 M445.15 343.15 L445.3 342.25 Q445.3 341.5 444.85 341.15 L444.35 340.75 444.35 340.45 444.45 340.35 468.65 350.45 Q456.85 346.15 444.9 343.35 L445.15 343.15 M488.4 358.65 L558.15 387.7 556.3 387.0 Q529.1 375.65 517.55 371.3 509.25 368.15 499.45 363.75 L488.4 358.65 M566.55 391.2 L590.7 401.25 590.95 401.4 588.95 401.9 588.8 401.85 588.45 401.65 588.1 401.5 583.85 399.4 583.25 399.1 583.2 399.1 Q573.4 394.3 566.55 391.2 M408.05 451.0 L412.05 450.0 Q483.9 431.95 592.0 403.2 L592.0 410.8 433.25 451.0 408.05 451.0 M600.95 408.7 L594.0 410.3 594.0 402.75 600.95 400.75 600.95 408.7 M190.05 429.25 L154.9 402.95 155.55 403.4 162.85 408.65 164.0 409.5 168.9 413.1 185.35 425.55 190.65 429.7 190.05 429.25" fill="#988976" fill-rule="evenodd" stroke="none"/>
    <path d="M441.9 451.0 L593.25 412.55 600.95 410.8 600.95 451.0 441.9 451.0" fill="#333333" fill-rule="evenodd" stroke="none"/>
    <path d="M434.2 0.05 L600.05 0.05 600.05 57.9 434.9 74.35 434.2 0.05 M0.05 0.05 L180.05 0.05 180.05 86.0 0.0 104.85 0.0 0.05 0.05 0.05" fill="#9fc693" fill-rule="evenodd" stroke="none"/>
    <path d="M600.05 57.9 L600.05 281.1 600.05 283.15 600.05 300.05 599.0 300.15 599.0 252.0 0.0 200.7 0.0 104.85 180.05 86.0 180.05 0.05 434.2 0.05 434.9 74.35 600.05 57.9" fill="#b4d2aa" fill-rule="evenodd" stroke="none"/>
    <path d="M334.1 251.3 L334.45 251.5 334.6 251.6 334.75 252.0 376.25 248.35 337.7 243.85 299.7 247.2 334.1 251.3 M358.5 264.55 L358.35 264.55 319.65 268.3 354.2 273.45 354.0 273.45 351.2 273.75 354.1 274.2 316.55 278.05 359.3 285.85 Q359.6 285.9 359.8 286.2 L359.95 286.55 404.35 281.7 354.1 274.2 399.15 269.5 359.2 263.9 359.0 264.3 358.9 264.4 358.5 264.55 M358.55 263.05 L358.9 263.25 359.05 263.35 359.2 263.7 396.2 260.2 334.0 252.8 304.2 255.45 358.55 263.05 M334.1 252.8 L337.6 252.5 334.75 252.15 334.55 252.55 334.45 252.65 334.1 252.8 M335.1 314.0 L334.85 314.1 283.05 320.45 306.7 327.25 361.8 320.1 335.45 313.55 335.35 313.8 335.1 314.0 M347.8 299.4 L347.55 299.7 347.25 299.8 303.85 304.95 334.8 312.6 335.2 312.75 335.4 313.0 335.5 313.25 387.05 306.95 347.9 299.2 347.8 299.4 M337.75 242.35 L366.8 239.8 306.55 234.3 306.4 234.3 284.6 236.25 337.75 242.35 M399.0 259.75 L399.0 259.95 399.75 259.85 399.0 259.75 M359.6 287.25 L359.25 287.35 359.05 287.35 315.75 292.1 347.15 298.3 347.4 298.35 347.75 298.65 347.8 298.75 347.9 298.95 395.8 293.35 359.95 286.75 359.75 287.1 359.6 287.25 M297.8 342.75 L259.2 347.45 234.25 338.2 153.9 348.6 172.5 358.05 0.0 379.1 0.0 200.7 599.0 252.0 599.0 300.15 599.0 306.0 418.75 328.0 415.65 328.4 338.1 337.85 306.6 328.8 270.25 333.5 297.8 342.75 M267.7 229.25 L306.4 232.8 332.2 230.45 292.95 227.15 267.7 229.25 M266.95 283.95 L233.45 287.4 267.35 295.85 305.9 291.65 266.95 283.95 M260.1 249.25 L260.6 249.55 260.75 249.9 288.7 247.45 233.35 240.85 232.95 240.7 232.85 240.55 232.8 240.5 232.7 240.2 210.05 242.2 260.1 249.25 M260.75 250.1 L260.55 250.5 260.45 250.6 260.3 250.7 260.1 250.75 260.05 250.75 224.2 253.9 253.8 258.35 290.85 255.1 260.1 250.75 263.45 250.45 260.75 250.1 M277.6 271.15 L277.75 271.5 312.75 268.15 312.75 268.0 310.45 267.65 307.3 267.95 253.65 259.85 253.6 259.85 229.1 262.0 277.1 270.8 277.6 271.15 M277.55 272.05 L277.4 272.2 277.05 272.3 276.85 272.3 235.75 276.3 266.85 282.45 266.9 282.45 267.15 282.5 269.4 282.95 313.2 278.4 313.2 278.2 277.75 271.7 277.55 272.05 M112.3 327.4 L131.9 337.4 207.45 328.2 183.05 319.1 112.3 327.4 M234.3 232.0 L230.55 231.6 190.65 234.9 190.65 235.05 193.7 235.4 197.4 235.1 233.45 239.35 269.8 236.05 234.3 232.0 M232.7 240.0 L232.85 239.65 233.0 239.5 233.1 239.45 233.35 239.35 229.75 239.7 232.7 240.05 232.7 240.0 M295.5 304.4 L267.3 297.35 220.5 302.45 247.0 310.1 295.5 304.4 M243.55 323.75 L275.5 319.85 246.9 311.65 217.7 315.05 243.55 323.75 M186.6 304.6 L212.7 301.75 181.5 292.75 158.45 295.15 186.6 304.6 M210.85 314.3 L186.45 306.15 160.1 308.95 183.15 317.55 210.85 314.3 M213.6 328.95 L234.45 336.65 265.25 332.65 243.45 325.3 213.6 328.95 M197.25 279.9 L197.2 279.9 155.85 283.9 181.55 291.25 224.8 286.8 197.25 279.9 M178.6 266.45 L156.95 268.35 197.35 278.4 225.4 275.75 178.6 266.45 M192.05 256.8 L191.95 256.75 191.9 256.75 154.15 260.1 178.6 264.95 217.85 261.5 192.05 256.8 M166.95 246.85 L166.9 246.85 153.15 248.1 192.15 255.25 211.45 253.55 166.95 246.85" fill="#8bb97b" fill-rule="evenodd" stroke="none"/>
    <path d="M358.55 263.05 L304.2 255.45 334.0 252.8 396.2 260.2 359.2 263.7 359.05 263.35 358.9 263.25 358.55 263.05 M358.5 264.55 L358.9 264.4 359.0 264.3 359.2 263.9 399.15 269.5 354.1 274.2 404.35 281.7 359.95 286.55 359.8 286.2 Q359.6 285.9 359.3 285.85 L316.55 278.05 354.1 274.2 351.2 273.75 354.0 273.45 354.2 273.45 319.65 268.3 358.35 264.55 358.5 264.55 M334.1 251.3 L299.7 247.2 337.7 243.85 376.25 248.35 334.75 252.0 334.6 251.6 334.45 251.5 334.1 251.3 M334.1 252.8 L334.45 252.65 334.55 252.55 334.75 252.15 337.6 252.5 334.1 252.8 M359.6 287.25 L359.75 287.1 359.95 286.75 395.8 293.35 347.9 298.95 347.8 298.75 347.75 298.65 347.4 298.35 347.15 298.3 315.75 292.1 359.05 287.35 359.25 287.35 359.6 287.25 M399.0 259.75 L399.75 259.85 399.0 259.95 399.0 259.75 M337.75 242.35 L284.6 236.25 306.4 234.3 306.55 234.3 366.8 239.8 337.75 242.35 M347.8 299.4 L347.9 299.2 387.05 306.95 335.5 313.25 335.4 313.0 335.2 312.75 334.8 312.6 303.85 304.95 347.25 299.8 347.55 299.7 347.8 299.4 M335.1 314.0 L335.35 313.8 335.45 313.55 361.8 320.1 306.7 327.25 283.05 320.45 334.85 314.1 335.1 314.0 M338.1 337.85 L341.45 338.8 300.75 343.75 297.8 342.75 270.25 333.5 306.6 328.8 338.1 337.85 M259.2 347.45 L261.9 348.5 173.9 359.15 173.9 359.05 173.55 358.6 172.5 358.05 153.9 348.6 234.25 338.2 259.2 347.45 M112.3 327.4 L183.05 319.1 207.45 328.2 131.9 337.4 112.3 327.4 M277.55 272.05 L277.75 271.7 313.2 278.2 313.2 278.4 269.4 282.95 267.15 282.5 266.9 282.45 266.85 282.45 235.75 276.3 276.85 272.3 277.05 272.3 277.4 272.2 277.55 272.05 M277.6 271.15 L277.1 270.8 229.1 262.0 253.6 259.85 253.65 259.85 307.3 267.95 310.45 267.65 312.75 268.0 312.75 268.15 277.75 271.5 277.6 271.15 M260.75 250.1 L263.45 250.45 260.1 250.75 290.85 255.1 253.8 258.35 224.2 253.9 260.05 250.75 260.1 250.75 260.3 250.7 260.45 250.6 260.55 250.5 260.75 250.1 M260.1 249.25 L210.05 242.2 232.7 240.2 232.8 240.5 232.85 240.55 232.95 240.7 233.35 240.85 288.7 247.45 260.75 249.9 260.6 249.55 260.1 249.25 M266.95 283.95 L305.9 291.65 267.35 295.85 233.45 287.4 266.95 283.95 M267.7 229.25 L292.95 227.15 332.2 230.45 306.4 232.8 267.7 229.25 M232.7 240.0 L232.7 240.05 229.75 239.7 233.35 239.35 233.1 239.45 233.0 239.5 232.85 239.65 232.7 240.0 M234.3 232.0 L269.8 236.05 233.45 239.35 197.4 235.1 193.7 235.4 190.65 235.05 190.65 234.9 230.55 231.6 234.3 232.0 M166.95 246.85 L211.45 253.55 192.15 255.25 153.15 248.1 166.9 246.85 166.95 246.85 M192.05 256.8 L217.85 261.5 178.6 264.95 154.15 260.1 191.9 256.75 191.95 256.75 192.05 256.8 M178.6 266.45 L225.4 275.75 197.35 278.4 156.95 268.35 178.6 266.45 M197.25 279.9 L224.8 286.8 181.55 291.25 155.85 283.9 197.2 279.9 197.25 279.9 M213.6 328.95 L243.45 325.3 265.25 332.65 234.45 336.65 213.6 328.95 M210.85 314.3 L183.15 317.55 160.1 308.95 186.45 306.15 210.85 314.3 M186.6 304.6 L158.45 295.15 181.5 292.75 212.7 301.75 186.6 304.6 M243.55 323.75 L217.7 315.05 246.9 311.65 275.5 319.85 243.55 323.75 M295.5 304.4 L247.0 310.1 220.5 302.45 267.3 297.35 295.5 304.4" fill="#97c089" fill-rule="evenodd" stroke="none"/>
  </g>
</svg>
