<?xml version="1.0" encoding="UTF-8" standalone="no"?>
<svg xmlns:ffdec="https://www.free-decompiler.com/flash" xmlns:xlink="http://www.w3.org/1999/xlink" ffdec:objectType="shape" height="72.5px" width="81.5px" xmlns="http://www.w3.org/2000/svg">
  <g transform="matrix(1.0, 0.0, 0.0, 1.0, 50.35, 39.1)">
    <path d="M28.3 15.3 Q25.0 19.45 20.15 23.15 6.75 33.4 -9.1 33.4 -28.3 33.4 -38.85 26.45 -50.35 18.9 -50.35 3.9 -50.35 1.6 -48.85 -3.95 -46.7 -11.9 -42.8 -18.6 -30.95 -39.1 -8.1 -39.1 12.2 -39.1 21.45 -32.1 27.15 -27.75 27.15 -23.1 27.15 -22.45 13.95 -11.2 0.6 0.15 -2.35 1.9 L-2.85 2.4 Q2.95 3.2 13.5 5.55 19.7 6.9 27.4 6.9 31.15 6.9 31.15 10.0 31.15 11.65 28.3 15.3 M18.3 -21.5 L21.9 -24.6 Q13.95 -29.1 8.95 -30.35 2.1 -32.1 -12.1 -32.1 -29.4 -32.1 -38.35 -14.45 -42.8 -5.55 -43.85 3.5 -43.85 10.5 -38.1 16.65 -28.95 26.4 -8.75 26.4 8.8 26.4 14.65 21.3 16.2 19.95 17.9 17.15 19.35 14.7 20.65 13.9 L21.15 13.4 16.2 12.55 10.4 16.15 Q1.3 21.15 -6.1 21.15 -26.4 21.15 -35.1 10.4 -37.9 6.95 -39.15 2.85 -39.85 0.45 -39.85 -0.85 -39.85 -3.35 -38.65 -7.35 -36.95 -12.85 -33.8 -17.35 -24.65 -30.6 -6.6 -30.6 5.65 -30.6 12.7 -26.55 16.5 -24.4 18.3 -21.5 M11.65 -22.85 Q4.75 -26.6 -6.25 -26.6 -23.15 -26.6 -31.35 -14.55 -34.0 -10.65 -35.4 -5.9 -36.35 -2.7 -36.35 -1.1 -36.35 4.1 -31.35 9.45 -24.3 16.9 -11.5 16.9 1.45 16.9 9.85 12.45 L11.35 11.6 Q-11.6 7.05 -11.6 3.5 -11.6 2.55 0.1 -6.75 L16.2 -19.75 Q14.5 -21.3 11.65 -22.85 M-16.6 -10.85 Q-21.4 -10.85 -22.6 -12.45 L-22.85 -14.35 Q-22.85 -17.8 -18.6 -20.35 -14.45 -22.85 -9.1 -22.85 -4.5 -22.85 -3.1 -18.6 -3.1 -14.8 -8.35 -12.55 -12.4 -10.85 -16.6 -10.85 M-13.35 -18.45 Q-16.95 -18.65 -19.35 -16.1 L-19.35 -15.35 -13.1 -15.1 Q-9.65 -16.55 -8.1 -18.1 L-13.35 -18.45 M-9.1 7.9 Q-6.6 7.9 -4.6 8.65 L-4.35 11.25 Q-4.35 14.9 -11.6 14.9 -15.35 14.9 -16.85 12.65 -15.6 8.75 -12.3 7.95 -10.65 7.55 -9.1 7.9 M-9.6 10.9 Q-9.85 10.15 -10.35 9.65 L-12.1 10.65 -12.6 11.15 -9.6 10.9 M-26.45 -0.5 L-28.85 1.9 -28.85 2.65 Q-26.4 2.5 -23.7 1.6 -21.25 0.75 -20.85 0.15 L-21.35 -2.1 -24.1 -2.35 -26.45 -0.5 M-23.35 -3.85 Q-22.85 -4.85 -21.6 -4.85 -18.1 -4.85 -17.6 0.15 -17.6 1.65 -19.05 3.2 -21.3 5.65 -26.1 5.65 L-30.85 5.15 Q-31.35 4.4 -31.35 2.5 -31.35 0.75 -29.85 -0.85 -28.05 -2.85 -25.1 -2.85 -23.85 -2.85 -23.35 -3.85" fill="#cc0000" fill-rule="evenodd" stroke="none"/>
  </g>
</svg>
