<?xml version="1.0" encoding="UTF-8" standalone="no"?>
<svg xmlns:ffdec="https://www.free-decompiler.com/flash" xmlns:xlink="http://www.w3.org/1999/xlink" ffdec:objectType="shape" height="39.1px" width="31.7px" xmlns="http://www.w3.org/2000/svg">
  <g transform="matrix(1.0, 0.0, 0.0, 1.0, 14.7, 25.8)">
    <path d="M-1.95 5.15 L-2.6 4.75 -3.4 4.35 -2.9 3.35 Q-4.0 -6.65 -9.0 -15.6 L-12.45 -21.65 -12.55 -22.2 -12.35 -22.8 -11.9 -23.1 -3.45 -25.5 Q0.45 -26.55 3.0 -23.65 L4.5 -21.6 4.55 -20.9 4.15 -19.3 4.15 -19.25 4.2 -16.65 Q4.35 -11.9 5.35 -7.4 L5.5 -6.65 Q6.4 -2.7 8.0 1.05 L8.65 1.65 8.35 1.95 8.3 2.5 7.75 3.05 Q7.45 3.15 7.4 3.5 L7.4 3.75 Q7.45 4.15 7.05 2.8 L7.05 2.75 7.0 2.7 7.0 2.65 Q6.75 0.6 5.1 0.3 3.9 -4.65 2.45 -13.05 L2.2 -16.55 2.2 -19.35 2.25 -19.7 2.55 -20.95 1.55 -22.35 Q-0.25 -24.3 -2.95 -23.6 L-10.1 -21.55 -5.2 -12.65 -5.05 -12.35 -4.9 -12.05 -4.7 -11.65 Q-2.2 -2.9 -2.05 2.6 L-1.95 5.15 M7.0 3.0 L7.1 3.0 7.2 3.4 7.1 3.45 7.4 4.8 7.05 3.5 6.85 3.65 7.0 3.0 M-2.85 3.85 L-2.85 3.9 -2.85 3.85" fill="#5c4730" fill-rule="evenodd" stroke="none"/>
    <path d="M-4.7 -11.65 L-4.9 -12.05 -5.05 -12.35 -5.2 -12.65 -10.1 -21.55 -2.95 -23.6 Q-0.25 -24.3 1.55 -22.35 L2.55 -20.95 2.25 -19.7 2.2 -19.35 2.2 -16.55 2.45 -13.05 1.25 -12.65 Q-0.85 -11.7 -4.7 -11.65" fill="#db9c64" fill-rule="evenodd" stroke="none"/>
    <path d="M-1.95 5.15 L-2.05 2.6 Q-2.2 -2.9 -4.7 -11.65 -0.85 -11.7 1.25 -12.65 L2.45 -13.05 Q3.9 -4.65 5.1 0.3 L4.5 0.25 Q2.1 0.25 1.15 5.7 L-0.8 5.5 -1.0 5.0 -1.05 5.35 -0.9 5.5 -0.95 5.45 -1.1 5.4 -1.1 5.55 -1.15 5.7 -1.3 5.5 -1.45 5.4 -1.95 5.15 M7.1 3.0 L7.2 3.4 7.1 3.0" fill="#f1ba87" fill-rule="evenodd" stroke="none"/>
    <path d="M7.0 2.7 L7.05 2.75 7.05 2.8 7.1 3.0 7.0 3.0 7.0 2.8 7.0 2.7 M-1.3 5.5 L-1.15 5.7 -1.3 5.8 -1.3 5.5" fill="#ffcc99" fill-rule="evenodd" stroke="none"/>
    <path d="M5.5 -6.65 L5.35 -7.4 6.35 -7.55 Q10.85 -7.55 12.1 -4.05 L12.15 -3.95 12.4 -3.1 12.55 0.35 12.5 0.6 12.5 0.95 Q12.45 4.65 11.6 5.9 L11.25 6.0 10.65 5.3 11.4 1.65 Q11.4 -0.3 10.5 -1.15 10.5 -1.4 11.35 -1.4 L11.4 -1.7 11.4 -1.8 Q11.4 -3.15 9.9 -4.75 L9.1 -5.5 8.95 -5.6 7.85 -6.2 6.7 -6.55 6.65 -6.55 5.5 -6.65" fill="#cc0000" fill-rule="evenodd" stroke="none"/>
    <path d="M-4.45 -5.3 L-4.65 -5.05 -4.7 -4.5 Q-3.6 -1.5 -2.65 1.65 L-2.25 3.0 -1.75 4.7 -1.35 6.45 -1.45 6.0 Q-5.6 -4.75 -10.35 -4.75 -12.55 -4.75 -13.0 6.05 -13.0 7.85 -12.5 8.45 L-12.55 8.55 -13.45 8.2 -13.0 -3.65 -5.25 -8.7 -4.45 -5.3 M-5.25 -8.75 Q-5.9 -8.45 -5.85 -8.75 L-5.9 -9.15 -5.1 -9.45 Q-5.35 -9.15 -5.25 -8.75 M4.7 -10.05 L4.9 -10.05 6.55 -10.85 Q10.05 -11.35 13.45 -10.05 L15.55 -2.8 15.6 -2.6 15.5 -2.35 Q15.15 -0.35 13.8 1.25 L13.1 2.1 13.1 2.15 12.55 2.95 12.75 0.7 Q10.8 -5.55 8.75 -7.65 L10.55 -9.5 10.15 -9.75 9.55 -9.6 4.95 -8.7 4.7 -10.05 M9.05 6.25 L7.95 6.95 7.85 6.8 9.05 6.25 M1.75 1.2 L0.85 6.1 0.75 1.2 1.75 1.2 M1.35 12.6 L1.4 12.7 1.05 12.65 1.2 12.65 1.35 12.6 M-7.6 1.75 L-5.95 4.35 -7.25 3.85 -7.85 3.9 -9.95 4.85 -7.6 1.75" fill="#aa0000" fill-rule="evenodd" stroke="none"/>
    <path d="M-4.45 -5.3 L-4.25 -5.45 -3.65 -5.4 -3.3 -5.0 Q-1.9 -1.2 -0.75 2.75 L-0.75 1.0 -0.65 -1.85 Q-0.55 -3.25 0.55 -4.25 L0.75 -4.4 5.55 -6.65 5.15 -7.95 4.9 -8.7 4.95 -8.7 9.55 -9.6 10.15 -9.75 10.55 -9.5 8.75 -7.65 6.5 -5.45 6.4 -5.35 1.5 -3.1 Q0.9 -2.5 0.85 -1.7 L0.75 1.0 0.75 1.05 0.75 1.2 0.85 6.1 1.75 1.2 2.3 -1.65 2.5 -2.05 2.9 -2.25 3.35 -2.15 3.7 -1.8 7.85 6.8 7.95 6.95 9.05 6.25 11.0 4.7 12.55 2.95 13.1 2.15 13.1 2.1 13.8 1.25 Q15.15 -0.35 15.5 -2.35 L15.6 -2.6 15.55 -2.8 13.45 -10.05 Q10.05 -11.35 6.55 -10.85 L4.9 -10.05 4.7 -10.05 4.65 -10.6 Q4.35 -10.75 4.3 -11.05 L4.35 -11.6 4.8 -11.95 6.3 -12.3 6.35 -12.35 Q10.2 -12.9 13.9 -11.5 L14.35 -11.4 14.75 -10.95 17.0 -3.2 16.9 -2.65 17.0 -2.1 Q16.55 0.35 14.95 2.25 L14.3 3.0 14.35 2.95 Q12.6 5.65 9.9 7.5 L9.9 7.45 8.35 8.4 7.95 8.5 3.85 2.4 0.25 13.3 -0.3 13.1 -1.25 12.25 -1.4 12.1 -4.7 6.5 -4.75 6.45 -9.8 6.6 -12.55 10.1 -14.45 9.5 -14.7 9.35 -14.5 -4.0 -14.25 -4.55 -14.15 -4.6 -13.9 -4.85 -7.0 -9.5 -6.45 -9.6 Q-6.15 -9.55 -5.95 -9.3 L-5.9 -9.15 -5.85 -8.75 Q-5.9 -8.45 -5.25 -8.75 L-5.15 -8.75 -5.25 -8.7 -13.0 -3.65 -13.45 8.2 -12.55 8.55 -12.5 8.45 -11.9 5.7 -11.85 5.55 -9.15 -0.55 -8.75 -0.95 -8.55 -1.0 -8.35 -1.15 -7.8 -1.2 -7.35 -0.85 -0.15 11.25 -0.1 11.3 -0.15 10.9 -0.2 10.85 -0.35 9.75 -0.45 9.7 -0.85 9.3 -1.0 8.85 -1.05 8.65 -1.05 8.55 -1.35 6.45 -1.75 4.7 -2.25 3.0 -2.65 1.65 Q-3.6 -1.5 -4.7 -4.5 L-4.65 -5.05 -4.45 -5.3 M-7.6 1.75 L-9.95 4.85 -7.85 3.9 -7.25 3.85 -5.95 4.35 -7.6 1.75" fill="#3e0000" fill-rule="evenodd" stroke="none"/>
    <path d="M-1.35 6.45 L-1.05 8.55 -1.05 8.65 -1.0 8.85 -0.85 9.3 -0.45 9.7 -0.35 9.75 -0.2 10.85 -0.15 10.9 -0.1 11.3 -0.15 11.25 -7.35 -0.85 -7.8 -1.2 -8.35 -1.15 -8.55 -1.0 -8.75 -0.95 -9.15 -0.55 -11.85 5.55 -11.9 5.7 -12.5 8.45 Q-13.0 7.85 -13.0 6.05 -12.55 -4.75 -10.35 -4.75 -5.6 -4.75 -1.45 6.0 L-1.35 6.45 M12.55 2.95 L11.0 4.7 9.05 6.25 7.85 6.8 3.7 -1.8 3.35 -2.15 2.9 -2.25 2.5 -2.05 2.3 -1.65 1.75 1.2 0.75 1.2 0.75 1.05 0.75 1.0 0.85 -1.7 Q0.9 -2.5 1.5 -3.1 L6.4 -5.35 6.5 -5.45 8.75 -7.65 Q10.8 -5.55 12.75 0.7 L12.55 2.95" fill="#cc0000" fill-rule="evenodd" stroke="none"/>
  </g>
</svg>
