<?xml version="1.0" encoding="UTF-8" standalone="no"?>
<svg xmlns:ffdec="https://www.free-decompiler.com/flash" xmlns:xlink="http://www.w3.org/1999/xlink" ffdec:objectType="shape" height="88.9px" width="74.35px" xmlns="http://www.w3.org/2000/svg">
  <g transform="matrix(1.0, 0.0, 0.0, 1.0, 29.15, 70.7)">
    <path d="M-3.8 15.6 L3.0 16.25 Q16.65 16.25 26.3 6.6 35.95 -3.05 35.95 -16.7 35.95 -30.35 26.3 -40.0 16.65 -49.65 3.0 -49.65 -7.8 -49.65 -16.1 -43.6 L-17.8 -42.7 -17.85 -42.85 Q-7.55 -53.15 7.0 -53.1 21.55 -53.15 31.85 -42.85 42.15 -32.55 42.2 -17.95 42.15 -3.4 31.85 6.9 21.55 17.2 7.0 17.2 1.25 17.2 -3.8 15.6" fill="#db9c64" fill-rule="evenodd" stroke="none"/>
    <path d="M-16.1 -43.6 Q-7.8 -49.65 3.0 -49.65 16.65 -49.65 26.3 -40.0 35.95 -30.35 35.95 -16.7 35.95 -3.05 26.3 6.6 16.65 16.25 3.0 16.25 L-3.8 15.6 Q-6.55 14.7 -9.1 13.35 L-2.35 14.05 Q10.45 14.05 19.5 5.15 28.55 -3.75 28.6 -16.3 28.55 -28.9 19.5 -37.8 10.45 -46.65 -2.35 -46.65 -9.9 -46.65 -16.1 -43.6" fill="#f1ba87" fill-rule="evenodd" stroke="none"/>
    <path d="M-16.1 -43.6 Q-9.9 -46.65 -2.35 -46.65 10.45 -46.65 19.5 -37.8 28.55 -28.9 28.6 -16.3 28.55 -3.75 19.5 5.15 10.45 14.05 -2.35 14.05 L-9.1 13.35 Q-13.8 10.9 -17.85 6.9 -28.15 -3.4 -28.15 -17.95 -28.15 -30.2 -20.85 -39.45 L-18.2 -42.5 -17.8 -42.7 -16.1 -43.6" fill="#ffcc99" fill-rule="evenodd" stroke="none"/>
    <path d="M-17.85 -42.85 L-17.8 -42.7 -18.2 -42.5 -17.85 -42.85" fill="#edcda3" fill-rule="evenodd" stroke="none"/>
    <path d="M-9.1 13.35 Q-6.55 14.7 -3.8 15.6 1.25 17.2 7.0 17.2 21.55 17.2 31.85 6.9 42.15 -3.4 42.2 -17.95 42.15 -32.55 31.85 -42.85 21.55 -53.15 7.0 -53.1 -7.55 -53.15 -17.85 -42.85 L-18.2 -42.5 -20.85 -39.45 Q-28.15 -30.2 -28.15 -17.95 -28.15 -3.4 -17.85 6.9 -13.8 10.9 -9.1 13.35" fill="none" stroke="#5c4730" stroke-linecap="round" stroke-linejoin="round" stroke-width="2.0"/>
    <path d="M-18.2 -42.5 L-17.8 -42.7" fill="none" stroke="#5c4730" stroke-linecap="round" stroke-linejoin="round" stroke-width="2.0"/>
    <path d="M24.75 -69.8 Q28.4 -69.85 29.1 -66.55 29.1 -64.75 27.25 -64.7 21.9 -64.75 21.9 -67.6 21.9 -68.25 22.65 -68.95 23.5 -69.85 24.75 -69.8 M23.1 -68.2 L22.85 -67.55 Q22.8 -65.85 27.05 -65.85 L28.3 -66.0 28.3 -66.4 Q28.3 -68.75 24.05 -68.75 23.45 -68.75 23.1 -68.2" fill="#510000" fill-rule="evenodd" stroke="none"/>
    <path d="M23.1 -68.2 Q23.45 -68.75 24.05 -68.75 28.3 -68.75 28.3 -66.4 L28.3 -66.0 27.05 -65.85 Q22.8 -65.85 22.85 -67.55 L23.1 -68.2" fill="#990000" fill-rule="evenodd" stroke="none"/>
    <path d="M4.05 -69.25 Q12.0 -69.7 19.85 -67.95 28.15 -66.2 34.5 -60.6 41.25 -54.55 42.25 -46.0 43.25 -37.45 42.0 -31.9 41.3 -28.8 41.5 -27.15 L37.4 -32.4 Q32.4 -38.4 17.15 -43.35 L16.85 -43.45 Q17.6 -46.15 17.65 -55.55 17.2 -59.0 15.35 -62.4 11.6 -69.25 4.4 -69.25 L4.05 -69.25 M15.55 -43.9 L14.85 -44.15 15.55 -43.9 M-23.9 -44.3 L-22.55 -48.1 Q-19.55 -56.55 -12.9 -62.4 -7.0 -67.6 0.65 -68.9 -13.25 -66.3 -23.45 -44.15 L-23.9 -44.3" fill="#004993" fill-rule="evenodd" stroke="none"/>
    <path d="M2.0 -70.45 Q11.15 -71.25 20.15 -69.25 28.75 -67.45 35.4 -61.6 42.55 -55.25 44.25 -45.8 45.7 -37.5 44.95 -29.15 L44.25 -20.35 44.05 -20.0 43.7 -19.75 43.3 -19.8 Q43.1 -19.9 43.0 -20.05 39.75 -25.15 35.55 -29.6 27.5 -38.0 16.65 -42.1 L16.7 -42.1 Q8.45 -45.1 -0.25 -45.8 L-0.3 -45.8 Q-11.55 -46.1 -20.3 -39.05 L-24.05 -35.95 -26.6 -33.2 Q-27.0 -32.65 -26.8 -32.0 L-26.9 -31.45 -27.25 -31.15 -27.3 -31.1 Q-27.4 -30.85 -27.65 -30.7 L-28.2 -30.7 -28.55 -31.05 -28.55 -31.6 -28.45 -32.1 Q-26.8 -40.45 -23.85 -48.55 -20.7 -57.35 -13.8 -63.4 -7.0 -69.45 2.0 -70.45 M16.85 -43.45 L17.15 -43.35 Q32.4 -38.4 37.4 -32.4 L41.5 -27.15 Q41.3 -28.8 42.0 -31.9 43.25 -37.45 42.25 -46.0 41.25 -54.55 34.5 -60.6 28.15 -66.2 19.85 -67.95 12.0 -69.7 4.05 -69.25 L2.15 -69.1 0.65 -68.9 Q-7.0 -67.6 -12.9 -62.4 -19.55 -56.55 -22.55 -48.1 L-23.9 -44.3 -26.25 -35.75 -24.9 -37.0 -21.15 -40.1 Q-12.0 -47.5 -0.25 -47.15 L-0.2 -47.15 Q7.5 -46.55 14.85 -44.15 L15.55 -43.9 16.85 -43.45" fill="#003333" fill-rule="evenodd" stroke="none"/>
    <path d="M4.05 -69.25 L4.4 -69.25 Q11.6 -69.25 15.35 -62.4 17.2 -59.0 17.65 -55.55 17.6 -46.15 16.85 -43.45 L15.55 -43.9 14.85 -44.15 Q7.5 -46.55 -0.2 -47.15 L-0.25 -47.15 Q-12.0 -47.5 -21.15 -40.1 L-24.9 -37.0 -26.25 -35.75 -23.9 -44.3 -23.45 -44.15 Q-13.25 -66.3 0.65 -68.9 L2.15 -69.1 4.05 -69.25" fill="#0058b0" fill-rule="evenodd" stroke="none"/>
  </g>
</svg>
