<?xml version="1.0" encoding="UTF-8" standalone="no"?>
<svg xmlns:ffdec="https://www.free-decompiler.com/flash" xmlns:xlink="http://www.w3.org/1999/xlink" ffdec:objectType="shape" height="27.1px" width="79.8px" xmlns="http://www.w3.org/2000/svg">
  <g transform="matrix(1.0, 0.0, 0.0, 1.0, 47.85, 52.1)">
    <path d="M-6.4 -43.3 L-6.4 -43.25 -7.05 -43.65 -7.1 -43.65 -8.15 -44.2 Q-7.65 -44.2 -6.4 -43.3 M-9.0 -44.6 L-10.1 -45.0 -11.6 -45.55 -11.65 -45.55 Q-19.6 -47.75 -27.95 -46.8 -33.05 -46.6 -37.2 -44.55 L-36.1 -45.3 Q-33.3 -47.05 -29.7 -48.2 L-26.1 -49.55 -17.15 -50.55 -0.7 -49.7 Q5.2 -48.8 10.7 -46.95 7.85 -44.65 -2.85 -44.65 L-9.4 -44.75 -9.0 -44.6 M-44.2 -39.35 L-44.35 -39.2 -44.75 -38.75 -44.45 -39.25 -44.35 -39.45 -44.2 -39.35 M-36.4 -46.4 L-36.25 -46.15 -36.4 -46.4" fill="#cc0000" fill-rule="evenodd" stroke="none"/>
    <path d="M31.3 -35.0 L31.35 -35.0 31.8 -34.5 31.95 -34.0 31.7 -33.55 31.2 -33.4 Q30.95 -33.45 30.8 -33.6 L30.5 -33.4 Q22.65 -31.75 14.7 -32.0 L14.65 -32.0 Q10.55 -32.5 6.85 -34.4 L6.85 -34.45 -7.75 -42.45 -7.7 -42.45 -9.4 -43.3 -9.1 -43.35 -9.5 -43.35 -9.65 -43.4 -9.6 -43.35 Q-11.75 -43.2 -13.85 -42.45 -16.3 -41.65 -20.85 -36.95 -25.45 -32.3 -27.65 -28.6 L-29.5 -25.55 -29.8 -25.2 Q-38.2 -24.35 -45.65 -27.15 L-45.85 -27.2 -45.85 -27.25 -46.55 -27.8 Q-46.55 -28.25 -46.9 -28.65 L-46.95 -28.95 Q-48.1 -32.65 -47.8 -34.2 L-47.45 -35.85 Q-46.85 -38.05 -45.65 -40.0 -44.1 -42.55 -41.5 -44.65 -37.55 -47.85 -32.75 -49.35 -25.3 -51.6 -17.2 -51.95 L-0.45 -51.05 Q8.8 -49.65 17.1 -45.9 24.75 -42.4 31.3 -35.0 M-6.4 -43.3 L7.5 -35.65 14.8 -33.35 Q22.35 -33.15 27.55 -36.0 23.65 -41.4 16.55 -44.65 L11.15 -46.8 10.7 -46.95 Q5.2 -48.8 -0.7 -49.7 L-17.15 -50.55 -26.1 -49.55 -28.65 -49.0 -28.75 -49.0 -32.35 -48.05 -33.2 -47.75 -36.4 -46.4 Q-38.65 -45.25 -40.6 -43.6 -42.9 -41.75 -44.35 -39.45 L-44.45 -39.25 -44.75 -38.75 -44.35 -39.2 -44.2 -39.35 -44.2 -39.4 -44.2 -39.35 Q-42.4 -41.3 -40.35 -42.7 L-37.2 -44.55 Q-33.05 -46.6 -27.95 -46.8 -19.6 -47.75 -11.65 -45.55 L-11.6 -45.55 -10.1 -45.0 -9.0 -44.6 -8.15 -44.2 -7.1 -43.65 -7.05 -43.65 -6.4 -43.25 -6.4 -43.3 M-46.05 -35.05 L-46.35 -34.8 Q-46.45 -32.15 -45.8 -29.6 L-45.6 -29.0 Q-38.65 -25.85 -30.8 -26.5 L-30.35 -27.15 Q-26.5 -33.55 -21.15 -38.35 -19.9 -46.35 -27.85 -45.4 L-27.9 -45.4 Q-37.05 -45.05 -43.2 -38.45 L-46.05 -35.05" fill="#510000" fill-rule="evenodd" stroke="none"/>
    <path d="M10.7 -46.95 L11.15 -46.8 16.55 -44.65 Q23.65 -41.4 27.55 -36.0 22.35 -33.15 14.8 -33.35 L7.5 -35.65 -6.4 -43.3 Q-7.65 -44.2 -8.15 -44.2 L-9.0 -44.6 -9.4 -44.75 -2.85 -44.65 Q7.85 -44.65 10.7 -46.95 M-37.2 -44.55 L-40.35 -42.7 Q-42.4 -41.3 -44.2 -39.35 L-44.2 -39.4 -44.2 -39.35 -44.35 -39.45 Q-42.9 -41.75 -40.6 -43.6 -38.65 -45.25 -36.4 -46.4 L-33.2 -47.75 -32.35 -48.05 -28.75 -49.0 -28.65 -49.0 -26.1 -49.55 -29.7 -48.2 Q-33.3 -47.05 -36.1 -45.3 L-37.2 -44.55 M-46.05 -35.05 L-43.2 -38.45 Q-37.05 -45.05 -27.9 -45.4 L-27.85 -45.4 Q-19.9 -46.35 -21.15 -38.35 -26.5 -33.55 -30.35 -27.15 L-30.8 -26.5 Q-38.65 -25.85 -45.6 -29.0 L-45.8 -29.6 Q-46.45 -32.15 -46.35 -34.8 L-46.05 -35.05 M-36.4 -46.4 L-36.25 -46.15 -36.4 -46.4" fill="#990000" fill-rule="evenodd" stroke="none"/>
  </g>
</svg>
