<?xml version="1.0" encoding="UTF-8" standalone="no"?>
<svg xmlns:ffdec="https://www.free-decompiler.com/flash" xmlns:xlink="http://www.w3.org/1999/xlink" ffdec:objectType="shape" height="18.8px" width="14.35px" xmlns="http://www.w3.org/2000/svg">
  <g transform="matrix(1.0, 0.0, 0.0, 1.0, 1.0, 1.0)">
    <path d="M6.75 -0.4 Q9.05 -1.3 10.95 -0.8 11.65 -0.75 13.05 0.3 L13.35 0.75 13.3 1.3 12.9 1.65 12.35 1.65 Q11.55 1.35 10.2 1.95 L10.15 1.95 Q9.55 2.15 9.1 2.7 7.4 4.5 6.75 9.45 L6.0 14.4 6.0 14.35 Q5.4 17.1 4.1 17.55 L4.05 17.55 Q2.25 18.2 1.05 17.15 -0.15 16.25 -0.75 13.85 -1.7 10.15 1.05 5.3 3.6 0.7 6.75 -0.4 M9.65 0.55 L9.7 0.55 Q8.55 0.5 7.3 1.0 4.6 2.05 2.35 6.05 -0.05 10.3 0.75 13.5 1.2 15.3 1.95 16.0 L3.55 16.15 Q4.1 15.75 4.5 14.05 L4.5 14.0 5.25 9.25 Q6.0 3.65 8.0 1.65 8.7 0.9 9.65 0.55" fill="#666666" fill-rule="evenodd" stroke="none"/>
    <path d="M9.65 0.55 Q8.7 0.9 8.0 1.65 6.0 3.65 5.25 9.25 L4.5 14.0 4.5 14.05 Q4.1 15.75 3.55 16.15 L1.95 16.0 Q1.2 15.3 0.75 13.5 -0.05 10.3 2.35 6.05 4.6 2.05 7.3 1.0 8.55 0.5 9.7 0.55 L9.65 0.55" fill="#000000" fill-rule="evenodd" stroke="none"/>
  </g>
</svg>
