<?xml version="1.0" encoding="UTF-8" standalone="no"?>
<svg xmlns:ffdec="https://www.free-decompiler.com/flash" xmlns:xlink="http://www.w3.org/1999/xlink" ffdec:objectType="shape" height="16.0px" width="16.0px" xmlns="http://www.w3.org/2000/svg">
  <g transform="matrix(1.0, 0.0, 0.0, 1.0, -110.65, -15.75)">
    <path d="M121.7 26.3 Q122.9 25.15 122.9 23.5 122.9 21.85 121.7 20.65 120.55 19.5 118.9 19.5 117.25 19.5 116.05 20.65 114.9 21.85 114.9 23.5 114.9 25.15 116.05 26.3 117.25 27.5 118.9 27.5 120.55 27.5 121.7 26.3 120.55 27.5 118.9 27.5 117.25 27.5 116.05 26.3 114.9 25.15 114.9 23.5 114.9 21.85 116.05 20.65 117.25 19.5 118.9 19.5 120.55 19.5 121.7 20.65 122.9 21.85 122.9 23.5 122.9 25.15 121.7 26.3 M123.75 28.85 Q121.65 31.0 118.65 31.0 115.65 31.0 113.5 28.85 111.4 26.75 111.4 23.75 111.4 20.75 113.5 18.6 115.65 16.5 118.65 16.5 121.65 16.5 123.75 18.6 125.9 20.75 125.9 23.75 125.9 25.8 124.9 27.45 L123.75 28.85" fill="#ffffff" fill-rule="evenodd" stroke="none"/>
    <path d="M121.7 26.3 Q120.55 27.5 118.9 27.5 117.25 27.5 116.05 26.3 114.9 25.15 114.9 23.5 114.9 21.85 116.05 20.65 117.25 19.5 118.9 19.5 120.55 19.5 121.7 20.65 122.9 21.85 122.9 23.5 122.9 25.15 121.7 26.3" fill="none" stroke="#999999" stroke-linecap="round" stroke-linejoin="round" stroke-width="1.5"/>
    <path d="M123.75 28.85 Q121.65 31.0 118.65 31.0 115.65 31.0 113.5 28.85 111.4 26.75 111.4 23.75 111.4 20.75 113.5 18.6 115.65 16.5 118.65 16.5 121.65 16.5 123.75 18.6 125.9 20.75 125.9 23.75 125.9 25.8 124.9 27.45 L123.75 28.85 Z" fill="none" stroke="#999999" stroke-linecap="round" stroke-linejoin="round" stroke-width="1.5"/>
  </g>
</svg>
