<?xml version="1.0" encoding="UTF-8" standalone="no"?>
<svg xmlns:ffdec="https://www.free-decompiler.com/flash" xmlns:xlink="http://www.w3.org/1999/xlink" ffdec:objectType="shape" height="73.95px" width="128.0px" xmlns="http://www.w3.org/2000/svg">
  <g transform="matrix(1.0, 0.0, 0.0, 1.0, 0.5, 0.5)">
    <path d="M123.5 69.0 L4.0 69.0 4.0 3.5 123.5 3.5 123.5 69.0" fill="#990000" fill-rule="evenodd" stroke="none"/>
    <path d="M127.0 72.95 L0.0 72.95 0.0 0.0 127.0 0.0 127.0 72.95 M123.5 69.0 L123.5 3.5 4.0 3.5 4.0 69.0 123.5 69.0" fill="#f5cfcd" fill-rule="evenodd" stroke="none"/>
    <path d="M123.5 69.0 L4.0 69.0 4.0 3.5 123.5 3.5 123.5 69.0" fill="none" stroke="#6c0000" stroke-linecap="round" stroke-linejoin="round" stroke-width="1.0"/>
    <path d="M127.0 72.95 L0.0 72.95 0.0 0.0 127.0 0.0 127.0 72.95 Z" fill="none" stroke="#624544" stroke-linecap="round" stroke-linejoin="round" stroke-width="1.0"/>
    <path d="M31.35 29.55 L31.5 29.9 31.5 45.15 37.1 45.15 Q37.3 45.15 37.45 45.3 L37.6 45.65 37.6 51.65 37.45 52.0 37.1 52.15 23.85 52.15 23.5 52.0 23.35 51.65 23.35 29.9 Q23.35 29.7 23.5 29.55 23.65 29.4 23.85 29.4 L31.0 29.4 31.35 29.55 M10.6 32.55 Q14.0 29.15 18.85 29.15 L22.15 29.65 22.4 29.8 22.5 30.1 22.5 38.3 22.4 38.6 22.2 38.8 21.85 38.8 21.6 38.6 Q20.55 37.3 18.85 37.3 17.4 37.3 16.35 38.3 15.35 39.3 15.35 40.8 15.35 42.25 16.35 43.25 17.4 44.25 18.85 44.25 20.55 44.25 21.6 42.95 21.7 42.8 21.85 42.8 L22.2 42.8 Q22.3 42.8 22.4 42.95 L22.5 43.25 22.5 51.45 22.4 51.75 22.15 51.95 18.85 52.4 Q14.0 52.4 10.6 49.0 7.2 45.6 7.2 40.8 7.2 36.0 10.6 32.55 M79.4 30.45 L79.55 30.65 79.6 30.95 78.65 37.4 78.5 37.65 78.25 37.8 77.95 37.75 Q74.4 35.9 72.6 35.85 71.75 35.85 71.55 36.4 L71.55 36.35 71.5 36.55 Q71.6 37.0 73.5 37.45 76.75 38.2 78.0 39.05 80.55 40.7 80.55 44.15 80.55 48.4 77.2 50.65 74.45 52.4 70.6 52.4 66.6 52.4 62.9 50.75 L62.65 50.55 62.65 50.2 64.05 44.5 64.25 44.2 64.6 44.1 64.9 44.35 Q65.25 44.7 66.7 45.15 L69.75 45.65 Q71.5 45.65 71.6 44.85 71.5 44.35 69.65 43.95 66.35 43.2 65.2 42.55 62.6 41.0 62.6 37.6 62.6 34.05 65.5 31.6 68.3 29.15 72.45 29.15 77.75 29.15 79.4 30.45 M47.6 38.3 Q46.6 39.3 46.6 40.8 46.6 42.25 47.6 43.25 48.65 44.25 50.1 44.25 51.55 44.25 52.55 43.25 53.6 42.25 53.6 40.8 53.6 39.3 52.55 38.3 51.55 37.3 50.1 37.3 48.65 37.3 47.6 38.3 M41.85 32.55 Q45.25 29.15 50.1 29.15 54.9 29.15 58.3 32.55 61.7 36.0 61.7 40.8 61.7 45.6 58.3 49.0 54.9 52.4 50.1 52.4 45.25 52.4 41.85 49.0 38.45 45.6 38.45 40.8 38.45 36.0 41.85 32.55 M112.75 37.7 Q111.5 36.4 109.7 36.4 L107.05 36.4 107.05 45.15 109.7 45.15 Q111.5 45.15 112.75 43.85 114.05 42.6 114.05 40.8 114.05 38.95 112.75 37.7 M98.0 29.9 L98.0 35.9 97.85 36.25 97.5 36.4 89.6 36.4 89.6 37.3 97.5 37.3 97.85 37.45 98.0 37.8 98.0 43.8 97.85 44.15 97.5 44.3 89.6 44.3 89.6 45.15 97.5 45.15 97.85 45.3 98.0 45.65 98.0 51.65 97.85 52.0 97.5 52.15 81.95 52.15 81.6 52.0 81.45 51.65 81.45 29.9 81.6 29.55 81.95 29.4 97.5 29.4 97.85 29.55 98.0 29.9 M98.9 29.9 L99.05 29.55 Q99.2 29.4 99.4 29.4 L110.8 29.4 Q115.5 29.4 118.85 32.75 122.2 36.05 122.2 40.8 122.2 45.45 118.85 48.8 115.5 52.15 110.8 52.15 L99.4 52.15 99.05 52.0 98.9 51.65 98.9 29.9" fill="#640000" fill-rule="evenodd" stroke="none"/>
    <path d="M97.6 32.3 L89.2 32.3 89.2 34.2 97.6 34.2 97.6 40.2 89.2 40.2 89.2 42.05 97.6 42.05 97.6 48.05 82.05 48.05 82.05 26.3 97.6 26.3 97.6 32.3 M99.5 26.3 L110.9 26.3 Q115.4 26.3 118.6 29.5 121.8 32.65 121.8 37.2 121.8 41.65 118.6 44.85 115.4 48.05 110.9 48.05 L99.5 48.05 99.5 26.3 M106.65 32.3 L106.65 42.05 109.8 42.05 Q111.8 42.05 113.2 40.6 114.65 39.2 114.65 37.2 114.65 35.15 113.2 33.75 111.8 32.3 109.8 32.3 L106.65 32.3 M50.2 26.05 Q54.8 26.05 58.05 29.3 61.3 32.6 61.3 37.2 61.3 41.8 58.05 45.05 54.8 48.3 50.2 48.3 45.55 48.3 42.3 45.05 39.05 41.8 39.05 37.2 39.05 32.6 42.3 29.3 45.55 26.05 50.2 26.05 M47.35 34.35 Q46.2 35.5 46.2 37.2 46.2 38.85 47.35 40.0 48.55 41.15 50.2 41.15 51.85 41.15 53.0 40.0 54.2 38.85 54.2 37.2 54.2 35.5 53.0 34.35 51.85 33.2 50.2 33.2 48.55 33.2 47.35 34.35 M77.8 35.85 Q80.15 37.4 80.15 40.55 80.15 44.5 77.0 46.6 74.4 48.3 70.7 48.3 66.8 48.3 63.2 46.7 L64.6 41.0 Q64.95 41.5 66.65 42.0 L69.85 42.55 Q72.2 42.55 72.2 41.25 72.2 40.35 69.85 39.85 66.65 39.15 65.55 38.5 63.2 37.1 63.2 34.0 63.2 30.65 65.9 28.35 68.6 26.05 72.55 26.05 77.6 26.05 79.2 27.25 L78.25 33.7 Q74.6 31.75 72.7 31.75 71.45 31.75 71.15 32.6 L71.1 32.95 Q71.1 33.75 73.45 34.3 76.6 35.05 77.8 35.85 M16.1 34.35 Q14.95 35.5 14.95 37.2 14.95 38.85 16.1 40.0 17.3 41.15 18.95 41.15 20.9 41.15 22.1 39.65 L22.1 47.85 18.95 48.3 Q14.3 48.3 11.05 45.05 7.8 41.8 7.8 37.2 7.8 32.6 11.05 29.3 14.3 26.05 18.95 26.05 L22.1 26.5 22.1 34.7 Q20.9 33.2 18.95 33.2 17.3 33.2 16.1 34.35 M23.95 48.05 L23.95 26.3 31.1 26.3 31.1 42.05 37.2 42.05 37.2 48.05 23.95 48.05" fill="#ffffff" fill-rule="evenodd" stroke="none"/>
    <path d="M97.6 32.3 L89.2 32.3 89.2 34.2 97.6 34.2 97.6 40.2 89.2 40.2 89.2 42.05 97.6 42.05 97.6 48.05 82.05 48.05 82.05 26.3 97.6 26.3 97.6 32.3 M99.5 26.3 L110.9 26.3 Q115.4 26.3 118.6 29.5 121.8 32.65 121.8 37.2 121.8 41.65 118.6 44.85 115.4 48.05 110.9 48.05 L99.5 48.05 99.5 26.3 M106.65 32.3 L106.65 42.05 109.8 42.05 Q111.8 42.05 113.2 40.6 114.65 39.2 114.65 37.2 114.65 35.15 113.2 33.75 111.8 32.3 109.8 32.3 L106.65 32.3 M50.2 26.05 Q54.8 26.05 58.05 29.3 61.3 32.6 61.3 37.2 61.3 41.8 58.05 45.05 54.8 48.3 50.2 48.3 45.55 48.3 42.3 45.05 39.05 41.8 39.05 37.2 39.05 32.6 42.3 29.3 45.55 26.05 50.2 26.05 M47.35 34.35 Q46.2 35.5 46.2 37.2 46.2 38.85 47.35 40.0 48.55 41.15 50.2 41.15 51.85 41.15 53.0 40.0 54.2 38.85 54.2 37.2 54.2 35.5 53.0 34.35 51.85 33.2 50.2 33.2 48.55 33.2 47.35 34.35 M77.8 35.85 Q80.15 37.4 80.15 40.55 80.15 44.5 77.0 46.6 74.4 48.3 70.7 48.3 66.8 48.3 63.2 46.7 L64.6 41.0 Q64.95 41.5 66.65 42.0 L69.85 42.55 Q72.2 42.55 72.2 41.25 72.2 40.35 69.85 39.85 66.65 39.15 65.55 38.5 63.2 37.1 63.2 34.0 63.2 30.65 65.9 28.35 68.6 26.05 72.55 26.05 77.6 26.05 79.2 27.25 L78.25 33.7 Q74.6 31.75 72.7 31.75 71.45 31.75 71.15 32.6 L71.1 32.95 Q71.1 33.75 73.45 34.3 76.6 35.05 77.8 35.85 M23.95 48.05 L23.95 26.3 31.1 26.3 31.1 42.05 37.2 42.05 37.2 48.05 23.95 48.05" fill="none" stroke="#640000" stroke-linecap="round" stroke-linejoin="round" stroke-width="1.0"/>
    <path d="M16.1 34.35 Q14.95 35.5 14.95 37.2 14.95 38.85 16.1 40.0 17.3 41.15 18.95 41.15 20.9 41.15 22.1 39.65 L22.1 47.85 18.95 48.3 Q14.3 48.3 11.05 45.05 7.8 41.8 7.8 37.2 7.8 32.6 11.05 29.3 14.3 26.05 18.95 26.05 L22.1 26.5 22.1 34.7 Q20.9 33.2 18.95 33.2 17.3 33.2 16.1 34.35 Z" fill="none" stroke="#640000" stroke-linecap="round" stroke-linejoin="round" stroke-width="1.0"/>
  </g>
</svg>
