<?xml version="1.0" encoding="UTF-8" standalone="no"?>
<svg xmlns:ffdec="https://www.free-decompiler.com/flash" xmlns:xlink="http://www.w3.org/1999/xlink" ffdec:objectType="shape" height="73.7px" width="86.8px" xmlns="http://www.w3.org/2000/svg">
  <g transform="matrix(1.0, 0.0, 0.0, 1.0, -79.7, -43.7)">
    <path d="M164.35 95.5 L161.05 46.8 160.95 46.5 160.8 46.4 160.65 46.35 84.05 52.4 Q83.8 52.35 83.75 52.65 83.6 52.65 83.6 52.95 L83.0 112.35 83.1 112.55 83.35 112.8 83.65 112.85 164.1 96.05 164.25 95.85 164.35 95.5 M165.8 97.85 L80.75 116.1 81.45 50.7 162.15 44.65 165.8 97.85" fill="#f5cfcd" fill-rule="evenodd" stroke="none"/>
    <path d="M111.8 71.5 Q109.55 74.4 109.55 78.5 109.3 78.55 109.6 78.95 109.5 79.6 109.7 80.35 109.5 80.95 109.6 81.95 109.55 85.95 112.15 88.6 114.4 91.1 117.9 90.55 121.15 90.0 123.35 86.7 125.45 83.4 125.45 79.6 125.3 79.15 125.45 78.9 L125.5 77.0 125.5 76.8 125.45 76.65 125.5 76.6 Q125.25 72.6 123.1 70.1 L123.05 70.1 Q120.55 67.5 117.4 68.05 114.0 68.3 111.8 71.5 M104.35 69.85 L104.15 69.8 98.95 70.45 98.7 70.6 Q98.5 70.6 98.55 70.95 L98.55 73.9 98.55 74.05 98.65 93.25 98.8 93.5 99.05 93.6 108.8 92.0 109.0 91.8 109.15 91.35 109.05 88.8 Q109.0 88.7 109.1 88.7 L109.3 88.4 109.2 83.2 109.1 82.95 108.95 82.75 Q108.7 82.45 108.7 82.65 L104.8 83.2 104.65 70.35 104.6 70.1 104.35 69.85 M98.0 70.9 L97.8 70.7 Q96.45 70.35 95.3 70.7 91.5 70.95 89.0 74.4 86.25 77.8 86.35 82.0 L86.35 82.15 86.4 83.8 Q86.25 84.55 86.4 85.45 86.2 89.75 89.0 92.5 91.55 95.05 95.35 94.45 L97.75 93.7 97.9 93.45 98.05 93.15 98.05 90.5 98.1 90.4 98.2 90.05 98.15 82.75 98.15 82.45 97.9 82.2 Q97.7 82.05 97.65 82.25 97.35 82.25 97.35 82.45 96.45 83.65 95.25 83.85 94.25 83.95 93.5 83.3 L93.2 82.95 93.1 82.65 93.4 82.15 Q94.1 81.05 95.25 81.0 96.5 80.75 97.35 81.85 L97.5 82.0 97.75 81.95 97.95 81.8 Q97.9 81.55 98.0 81.55 L98.0 78.8 Q98.0 78.6 98.1 78.65 98.0 78.45 98.15 78.35 L98.15 71.3 98.0 70.9 M119.55 79.1 Q119.3 79.25 119.3 79.5 118.5 80.35 117.75 80.6 116.7 80.55 116.0 79.95 L115.75 79.55 115.65 79.35 115.95 78.9 Q116.55 77.85 117.6 77.75 118.55 77.6 119.25 78.35 L119.7 78.85 Q119.5 78.8 119.55 79.1 M148.0 64.6 Q147.9 64.65 147.95 64.95 L149.0 84.55 149.1 84.85 149.35 84.9 156.0 83.75 Q158.55 83.25 160.4 80.45 162.0 77.5 161.85 74.1 L161.75 73.3 161.85 71.7 161.8 71.6 161.8 71.5 161.85 71.4 Q161.45 67.75 159.5 65.55 157.4 63.25 154.8 63.6 L148.3 64.4 Q148.1 64.4 148.0 64.6 M147.15 64.55 L137.9 65.75 Q137.65 65.65 137.65 65.85 137.5 65.95 137.6 66.15 L138.45 86.5 138.5 86.65 138.75 86.75 148.25 85.1 148.4 84.9 148.45 84.65 148.35 82.2 148.4 82.15 148.5 81.85 148.25 77.2 148.2 76.95 148.1 76.8 148.05 76.05 148.1 76.0 148.15 75.75 147.9 71.15 147.85 70.9 147.75 70.7 147.7 70.0 147.75 69.95 147.8 69.6 147.65 65.05 147.5 64.75 147.4 64.65 Q147.2 64.4 147.15 64.55 M156.95 73.35 L156.85 73.65 156.55 74.35 Q155.8 75.35 154.9 75.65 L153.45 75.8 153.25 71.95 154.6 71.8 Q155.55 71.5 156.5 72.5 L156.95 73.35 M127.55 68.6 Q125.7 70.85 125.85 73.85 L125.9 74.3 Q125.85 74.85 126.05 75.3 125.85 75.9 125.95 76.8 125.95 78.75 126.9 79.9 L126.2 84.15 126.2 84.45 126.4 84.75 126.65 84.85 126.3 87.3 Q126.15 87.4 126.3 87.6 L126.5 87.7 Q128.9 88.65 131.55 88.25 133.95 87.75 135.7 86.0 137.7 83.8 137.6 80.45 L137.5 79.4 Q137.5 78.85 137.65 78.45 L137.65 77.6 Q137.45 75.35 136.5 74.25 L136.45 74.2 136.2 74.0 136.6 69.95 136.55 69.7 136.45 69.55 136.4 69.5 136.65 67.2 136.55 67.0 136.35 66.7 Q135.2 65.7 131.95 66.25 129.25 66.4 127.55 68.65 L127.55 68.6 M160.4 47.25 L163.6 95.15 84.1 111.5 84.65 53.4 160.4 47.25" fill="#990000" fill-rule="evenodd" stroke="none"/>
    <path d="M111.8 71.5 Q114.0 68.3 117.4 68.05 120.55 67.5 123.05 70.1 L123.1 70.1 Q125.25 72.6 125.5 76.6 L125.45 76.65 125.5 76.8 125.5 77.0 125.45 78.9 Q125.3 79.15 125.45 79.6 125.45 83.4 123.35 86.7 121.15 90.0 117.9 90.55 114.4 91.1 112.15 88.6 109.55 85.95 109.6 81.95 109.5 80.95 109.7 80.35 109.5 79.6 109.6 78.95 109.3 78.55 109.55 78.5 109.55 74.4 111.8 71.5 M117.55 69.05 Q114.45 69.3 112.4 72.2 110.35 74.95 110.45 78.65 L110.45 78.7 110.45 78.85 Q110.4 82.4 112.65 84.75 114.75 86.9 117.85 86.6 120.75 86.05 122.75 83.15 124.65 80.35 124.7 77.05 L124.7 76.65 Q124.5 72.95 122.5 70.9 120.35 68.55 117.55 69.05 M104.35 69.85 L104.6 70.1 104.65 70.35 104.8 83.2 108.7 82.65 Q108.7 82.45 108.95 82.75 L109.1 82.95 109.2 83.2 109.3 88.4 109.1 88.7 Q109.0 88.7 109.05 88.8 L109.15 91.35 109.0 91.8 108.8 92.0 99.05 93.6 98.8 93.5 98.65 93.25 98.55 74.05 98.55 73.9 98.55 70.95 Q98.5 70.6 98.7 70.6 L98.95 70.45 104.15 69.8 104.35 69.85 M97.25 71.7 Q96.2 71.45 95.45 71.7 92.0 72.05 89.7 75.1 87.3 78.1 87.3 82.0 L87.35 82.1 Q87.1 85.95 89.55 88.45 91.9 90.7 95.35 90.25 L97.3 89.65 97.25 84.1 Q96.4 84.75 95.45 85.0 L95.4 85.0 Q93.85 85.05 92.9 84.25 L92.85 84.2 92.5 83.65 Q91.7 82.6 91.85 81.35 L91.85 81.3 Q91.75 79.55 92.85 78.35 93.85 76.95 95.25 76.95 96.3 76.6 97.25 77.3 L97.25 71.7 M119.55 79.1 Q119.5 78.8 119.7 78.85 L119.25 78.35 Q118.55 77.6 117.6 77.75 116.55 77.85 115.95 78.9 L115.65 79.35 115.75 79.55 116.0 79.95 Q116.7 80.55 117.75 80.6 118.5 80.35 119.3 79.5 119.3 79.25 119.55 79.1 M98.0 70.9 L98.15 71.3 98.15 78.35 Q98.0 78.45 98.1 78.65 98.0 78.6 98.0 78.8 L98.0 81.55 Q97.9 81.55 97.95 81.8 L97.75 81.95 97.5 82.0 97.35 81.85 Q96.5 80.75 95.25 81.0 94.1 81.05 93.4 82.15 L93.1 82.65 93.2 82.95 93.5 83.3 Q94.25 83.95 95.25 83.85 96.45 83.65 97.35 82.45 97.35 82.25 97.65 82.25 97.7 82.05 97.9 82.2 L98.15 82.45 98.15 82.75 98.2 90.05 98.1 90.4 98.05 90.5 98.05 93.15 97.9 93.45 97.75 93.7 95.35 94.45 Q91.55 95.05 89.0 92.5 86.2 89.75 86.4 85.45 86.25 84.55 86.4 83.8 L86.35 82.15 86.35 82.0 Q86.25 77.8 89.0 74.4 91.5 70.95 95.3 70.7 96.45 70.35 97.8 70.7 L98.0 70.9 M104.4 84.35 L104.15 84.3 103.9 84.1 103.9 83.85 103.75 70.95 99.45 71.35 99.6 89.35 108.35 87.9 108.25 83.8 104.4 84.35 M119.8 74.65 Q120.7 75.65 120.8 77.25 L120.25 79.65 120.0 80.05 119.95 80.1 Q118.95 81.25 117.9 81.6 L117.85 81.6 Q116.45 81.65 115.6 80.8 L115.55 80.75 115.1 80.2 Q114.45 79.25 114.55 78.15 L114.5 78.1 Q114.4 76.3 115.35 75.25 116.2 74.0 117.55 73.85 118.75 73.55 119.8 74.65 M147.15 64.55 Q147.2 64.4 147.4 64.65 L147.5 64.75 147.65 65.05 147.8 69.6 147.75 69.95 147.7 70.0 147.75 70.7 147.85 70.9 147.9 71.15 148.15 75.75 148.1 76.0 148.05 76.05 148.1 76.8 148.2 76.95 148.25 77.2 148.5 81.85 148.4 82.15 148.35 82.2 148.45 84.65 148.4 84.9 148.25 85.1 138.75 86.75 138.5 86.65 138.45 86.5 137.6 66.15 Q137.5 65.95 137.65 65.85 137.65 65.65 137.9 65.75 L147.15 64.55 M148.0 64.6 Q148.1 64.4 148.3 64.4 L154.8 63.6 Q157.4 63.25 159.5 65.55 161.45 67.75 161.85 71.4 L161.8 71.5 161.8 71.6 161.85 71.7 161.75 73.3 161.85 74.1 Q162.0 77.5 160.4 80.45 158.55 83.25 156.0 83.75 L149.35 84.9 149.1 84.85 149.0 84.55 147.95 64.95 Q147.9 64.65 148.0 64.6 M154.45 68.25 Q155.65 67.95 156.7 69.15 L156.7 69.2 Q157.65 70.1 157.8 72.0 L157.45 74.15 157.1 74.9 157.1 74.95 Q156.2 76.25 155.1 76.6 L153.3 76.85 153.0 76.8 152.85 76.6 152.8 76.35 152.35 69.0 Q152.25 68.7 152.4 68.6 152.5 68.4 152.65 68.5 L154.45 68.25 M142.1 70.25 Q142.0 70.05 142.2 69.95 L142.45 69.8 147.1 69.2 146.9 65.6 138.35 66.65 139.05 82.9 147.7 81.5 147.6 77.7 142.95 78.4 142.7 78.4 142.55 78.2 142.45 77.95 142.4 76.55 Q142.3 76.2 142.5 76.15 L142.75 76.0 147.4 75.35 147.15 71.65 142.6 72.3 Q142.45 72.15 142.4 72.3 L142.25 72.05 142.2 71.8 142.1 70.25 M156.95 73.35 L156.5 72.5 Q155.55 71.5 154.6 71.8 L153.25 71.95 153.45 75.8 154.9 75.65 Q155.8 75.35 156.55 74.35 L156.85 73.65 156.95 73.35 M130.95 71.85 L130.95 71.8 Q131.1 70.75 132.25 70.7 133.3 70.45 135.5 71.65 L135.8 67.4 132.05 67.15 Q129.65 67.4 128.15 69.45 126.55 71.3 126.65 73.85 L126.7 74.1 126.75 74.2 Q126.75 76.0 128.05 76.85 L130.75 77.5 Q132.6 77.65 132.65 78.9 132.65 80.3 130.85 80.75 L128.6 80.6 127.7 80.25 127.0 83.9 131.45 84.35 Q133.6 83.9 135.2 82.4 136.65 80.65 136.85 78.35 136.8 77.85 136.9 77.6 136.75 75.85 136.0 75.0 L135.95 74.95 135.5 74.5 135.4 74.45 Q134.65 73.9 132.8 73.65 130.8 73.3 130.9 72.35 130.8 72.0 130.95 71.85 M161.05 71.75 L161.05 71.45 Q160.85 68.2 159.1 66.3 157.25 64.15 154.95 64.6 L148.75 65.4 149.6 81.15 155.85 80.15 Q158.15 79.65 159.7 77.1 161.15 74.7 161.05 71.75 M127.55 68.6 L127.55 68.65 Q129.25 66.4 131.95 66.25 135.2 65.7 136.35 66.7 L136.55 67.0 136.65 67.2 136.4 69.5 136.45 69.55 136.55 69.7 136.6 69.95 136.2 74.0 136.45 74.2 136.5 74.25 Q137.45 75.35 137.65 77.6 L137.65 78.45 Q137.5 78.85 137.5 79.4 L137.6 80.45 Q137.7 83.8 135.7 86.0 133.95 87.75 131.55 88.25 128.9 88.65 126.5 87.7 L126.3 87.6 Q126.15 87.4 126.3 87.3 L126.65 84.85 126.4 84.75 126.2 84.45 126.2 84.15 126.9 79.9 Q125.95 78.75 125.95 76.8 125.85 75.9 126.05 75.3 125.85 74.85 125.9 74.3 L125.85 73.85 Q125.7 70.85 127.55 68.6" fill="#640000" fill-rule="evenodd" stroke="none"/>
    <path d="M117.55 69.05 Q120.35 68.55 122.5 70.9 124.5 72.95 124.7 76.65 L124.7 77.05 Q124.65 80.35 122.75 83.15 120.75 86.05 117.85 86.6 114.75 86.9 112.65 84.75 110.4 82.4 110.45 78.85 L110.45 78.7 110.45 78.65 Q110.35 74.95 112.4 72.2 114.45 69.3 117.55 69.05 M97.25 71.7 L97.25 77.3 Q96.3 76.6 95.25 76.95 93.85 76.95 92.85 78.35 91.75 79.55 91.85 81.3 L91.85 81.35 Q91.7 82.6 92.5 83.65 L92.85 84.2 92.9 84.25 Q93.85 85.05 95.4 85.0 L95.45 85.0 Q96.4 84.75 97.25 84.1 L97.3 89.65 95.35 90.25 Q91.9 90.7 89.55 88.45 87.1 85.95 87.35 82.1 L87.3 82.0 Q87.3 78.1 89.7 75.1 92.0 72.05 95.45 71.7 96.2 71.45 97.25 71.7 M119.8 74.65 Q118.75 73.55 117.55 73.85 116.2 74.0 115.35 75.25 114.4 76.3 114.5 78.1 L114.55 78.15 Q114.45 79.25 115.1 80.2 L115.55 80.75 115.6 80.8 Q116.45 81.65 117.85 81.6 L117.9 81.6 Q118.95 81.25 119.95 80.1 L120.0 80.05 120.25 79.65 120.8 77.25 Q120.7 75.65 119.8 74.65 M104.4 84.35 L108.25 83.8 108.35 87.9 99.6 89.35 99.45 71.35 103.75 70.95 103.9 83.85 103.9 84.1 104.15 84.3 104.4 84.35 M142.1 70.25 L142.2 71.8 142.25 72.05 142.4 72.3 Q142.45 72.15 142.6 72.3 L147.15 71.65 147.4 75.35 142.75 76.0 142.5 76.15 Q142.3 76.2 142.4 76.55 L142.45 77.95 142.55 78.2 142.7 78.4 142.95 78.4 147.6 77.7 147.7 81.5 139.05 82.9 138.35 66.65 146.9 65.6 147.1 69.2 142.45 69.8 142.2 69.95 Q142.0 70.05 142.1 70.25 M154.45 68.25 L152.65 68.5 Q152.5 68.4 152.4 68.6 152.25 68.7 152.35 69.0 L152.8 76.35 152.85 76.6 153.0 76.8 153.3 76.85 155.1 76.6 Q156.2 76.25 157.1 74.95 L157.1 74.9 157.45 74.15 157.8 72.0 Q157.65 70.1 156.7 69.2 L156.7 69.15 Q155.65 67.95 154.45 68.25 M161.05 71.75 Q161.15 74.7 159.7 77.1 158.15 79.65 155.85 80.15 L149.6 81.15 148.75 65.4 154.95 64.6 Q157.25 64.15 159.1 66.3 160.85 68.2 161.05 71.45 L161.05 71.75 M130.95 71.85 Q130.8 72.0 130.9 72.35 130.8 73.3 132.8 73.65 134.65 73.9 135.4 74.45 L135.5 74.5 135.95 74.95 136.0 75.0 Q136.75 75.85 136.9 77.6 136.8 77.85 136.85 78.35 136.65 80.65 135.2 82.4 133.6 83.9 131.45 84.35 L127.0 83.9 127.7 80.25 128.6 80.6 130.85 80.75 Q132.65 80.3 132.65 78.9 132.6 77.65 130.75 77.5 L128.05 76.85 Q126.75 76.0 126.75 74.2 L126.7 74.1 126.65 73.85 Q126.55 71.3 128.15 69.45 129.65 67.4 132.05 67.15 L135.8 67.4 135.5 71.65 Q133.3 70.45 132.25 70.7 131.1 70.75 130.95 71.8 L130.95 71.85" fill="#ffffff" fill-rule="evenodd" stroke="none"/>
    <path d="M164.35 95.5 L164.25 95.85 164.1 96.05 83.65 112.85 83.35 112.8 83.1 112.55 83.0 112.35 83.6 52.95 Q83.6 52.65 83.75 52.65 83.8 52.35 84.05 52.4 L160.65 46.35 160.8 46.4 160.95 46.5 161.05 46.8 164.35 95.5 M160.4 47.25 L84.65 53.4 84.1 111.5 163.6 95.15 160.4 47.25" fill="#6c0000" fill-rule="evenodd" stroke="none"/>
    <path d="M162.3 43.75 Q162.4 43.65 162.5 43.85 L162.7 43.9 162.75 44.15 166.5 98.2 166.45 98.5 166.3 98.75 80.25 117.35 79.95 117.4 79.8 117.1 Q79.6 116.9 79.75 116.8 L80.6 50.1 Q80.45 49.9 80.7 49.85 80.8 49.65 81.0 49.65 L162.3 43.75 M165.8 97.85 L162.15 44.65 81.45 50.7 80.75 116.1 165.8 97.85" fill="#624544" fill-rule="evenodd" stroke="none"/>
  </g>
</svg>
