<?xml version="1.0" encoding="UTF-8" standalone="no"?>
<svg xmlns:ffdec="https://www.free-decompiler.com/flash" xmlns:xlink="http://www.w3.org/1999/xlink" ffdec:objectType="shape" height="78.5px" width="57.2px" xmlns="http://www.w3.org/2000/svg">
  <g transform="matrix(1.0, 0.0, 0.0, 1.0, -94.6, -43.35)">
    <path d="M149.35 47.25 Q149.3 47.1 149.4 47.2 L149.45 47.35 149.5 47.45 149.55 47.6 151.8 96.75 151.8 97.1 Q151.7 97.05 151.7 97.3 L95.1 121.75 Q94.9 121.65 94.85 121.85 L94.75 121.55 Q94.55 121.25 94.65 121.2 94.6 121.0 94.75 121.15 L97.15 43.85 Q97.0 43.5 97.35 43.65 97.25 43.3 97.55 43.35 L149.35 47.25 M149.25 48.0 L97.8 44.55 95.55 120.15 151.45 96.6 149.25 48.0" fill="#624544" fill-rule="evenodd" stroke="none"/>
    <path d="M99.5 47.35 Q99.45 47.05 99.7 47.05 99.6 46.65 99.95 46.9 L148.5 49.35 148.6 49.5 Q148.6 49.35 148.7 49.55 L148.7 49.9 150.7 94.35 150.65 94.7 Q150.45 94.6 150.55 94.9 L98.05 115.95 97.8 115.85 97.6 115.6 97.55 115.45 99.5 47.35 M150.3 94.0 L148.4 50.2 100.25 47.95 98.45 114.4 150.3 94.0" fill="#6c0000" fill-rule="evenodd" stroke="none"/>
    <path d="M99.5 47.35 L97.55 115.45 97.6 115.6 97.8 115.85 98.05 115.95 150.55 94.9 Q150.45 94.6 150.65 94.7 L150.7 94.35 148.7 49.9 148.7 49.55 Q148.6 49.35 148.6 49.5 L148.5 49.35 99.95 46.9 Q99.6 46.65 99.7 47.05 99.45 47.05 99.5 47.35 M149.25 48.0 L151.45 96.6 95.55 120.15 97.8 44.55 149.25 48.0" fill="#f5cfcd" fill-rule="evenodd" stroke="none"/>
    <path d="M114.45 67.5 Q114.35 67.3 114.6 67.6 L114.8 67.9 Q114.6 67.8 114.75 68.2 L114.75 81.75 117.4 81.35 Q117.35 81.1 117.55 81.4 L117.7 81.7 117.75 81.95 117.8 87.45 117.7 87.8 Q117.55 87.75 117.65 87.9 L117.65 90.65 Q117.5 90.65 117.6 91.15 L117.5 91.3 110.4 93.3 110.2 93.1 Q110.0 92.9 110.2 92.8 L110.4 71.8 110.4 71.6 110.45 68.5 Q110.3 67.9 110.55 68.1 110.5 67.7 110.7 67.95 L114.45 67.5 M109.45 69.2 L108.2 69.05 Q105.5 69.15 103.7 72.45 101.75 75.65 101.65 80.15 L101.7 80.3 Q101.35 84.5 103.35 87.45 105.0 89.85 107.65 89.45 L109.2 88.8 109.3 82.65 107.85 83.7 Q106.6 83.7 106.0 82.8 L106.0 82.75 105.65 82.1 Q105.05 80.85 105.2 79.5 L105.2 79.45 Q105.1 77.55 106.05 76.15 106.75 74.5 107.85 74.75 108.6 74.35 109.35 75.25 L109.45 69.2 M109.9 68.2 L110.15 68.75 109.95 76.45 Q109.8 76.4 109.9 76.7 L109.9 76.9 109.8 79.95 Q109.65 79.9 109.8 80.15 109.6 80.1 109.65 80.35 109.45 80.25 109.45 80.45 L109.3 80.25 Q108.75 78.85 107.85 79.3 106.85 79.2 106.4 80.4 106.1 80.45 106.1 80.95 L106.2 81.35 106.45 81.7 Q106.85 82.4 107.8 82.35 108.55 82.1 109.35 80.9 109.3 80.55 109.55 80.7 109.55 80.45 109.7 80.7 109.75 80.45 109.9 80.85 L109.9 81.2 109.85 89.3 109.75 89.65 109.75 89.75 109.7 92.75 109.6 93.0 109.4 93.3 107.65 94.15 Q104.7 94.85 102.85 92.05 100.65 88.9 100.95 84.05 100.8 82.85 100.95 82.1 100.75 81.0 100.95 80.3 L100.95 80.15 Q100.9 75.2 103.2 71.65 105.1 67.95 108.05 67.95 108.85 67.5 109.9 68.2 M114.15 68.65 L111.1 68.9 110.9 88.55 117.15 86.9 117.15 82.65 114.45 83.1 114.25 83.05 114.1 82.85 Q113.95 82.55 114.1 82.55 L114.15 68.65 M142.0 64.9 L145.5 64.6 Q146.85 64.3 147.95 66.65 148.95 68.65 149.25 72.15 149.15 72.0 149.2 72.2 L149.2 72.35 149.25 72.45 149.25 73.85 149.3 74.6 Q149.3 77.65 148.5 80.4 147.55 82.85 146.25 83.35 L142.6 84.35 142.5 84.3 142.4 84.1 141.8 65.4 Q141.65 65.0 141.8 65.15 141.8 64.8 142.0 64.9 M145.6 65.55 L142.25 65.85 142.7 80.85 146.1 80.0 Q147.25 79.5 148.15 77.2 148.85 75.05 148.85 72.45 L148.85 72.05 Q148.65 69.0 147.8 67.3 146.75 65.15 145.6 65.55 M141.55 65.15 L141.6 65.5 141.75 69.8 Q141.6 69.75 141.7 70.1 L141.7 70.75 141.75 70.95 141.8 71.25 141.9 75.6 141.8 75.9 141.85 76.6 141.95 76.75 142.0 77.05 142.15 81.55 142.1 81.75 142.05 81.8 142.05 84.1 142.05 84.35 141.95 84.5 136.6 86.05 136.4 85.9 136.35 85.75 135.9 65.95 135.85 65.65 Q135.85 65.3 136.05 65.5 L141.3 65.0 Q141.35 64.75 141.5 65.05 L141.55 65.15 M145.35 68.85 Q145.9 68.45 146.5 69.75 L146.5 69.8 Q146.95 70.65 147.15 72.5 L147.05 74.5 Q146.85 74.75 146.8 75.15 L146.8 75.2 Q146.2 76.3 145.65 76.6 L144.75 76.85 144.6 76.75 144.45 76.5 Q144.35 76.35 144.5 76.3 L144.2 69.45 Q144.1 69.1 144.25 69.1 144.2 68.75 144.4 69.05 L145.35 68.85 M138.55 69.8 Q138.55 69.6 138.7 69.7 L141.35 69.35 141.15 65.95 136.35 66.5 136.7 82.2 141.75 81.1 141.65 77.45 139.0 78.1 138.8 78.0 Q138.7 77.9 138.75 77.8 L138.7 77.55 138.7 76.15 Q138.55 75.75 138.75 75.8 138.7 75.55 138.85 75.65 L141.45 75.2 141.35 71.7 138.85 72.1 Q138.65 71.9 138.7 72.1 L138.6 71.8 138.55 71.55 138.55 70.1 Q138.4 69.8 138.55 69.8 M145.4 72.15 L144.7 72.25 144.85 75.8 145.55 75.7 146.5 74.6 Q146.5 74.2 146.65 74.0 L146.65 73.65 146.45 72.95 Q145.85 71.9 145.4 72.15 M123.45 67.6 Q121.4 67.65 120.0 70.5 118.6 73.2 118.7 77.2 L118.7 77.25 Q118.6 77.25 118.65 77.4 118.55 81.05 120.1 83.7 121.5 85.85 123.6 85.7 125.4 85.05 126.8 82.15 127.9 79.25 128.05 76.05 L128.05 75.7 Q127.9 71.85 126.7 69.8 125.3 67.15 123.45 67.6 M123.45 72.55 Q124.2 72.15 124.9 73.45 125.45 74.3 125.6 76.1 L125.15 78.6 Q125.0 78.65 125.0 79.0 124.9 78.9 124.95 79.05 L123.6 80.5 123.55 80.5 Q122.55 80.45 122.15 79.7 L122.1 79.6 121.8 79.0 Q121.3 77.9 121.45 76.75 L121.45 76.7 Q121.3 74.8 122.05 73.85 122.55 72.5 123.45 72.55 M119.65 69.85 Q121.15 66.45 123.5 66.45 125.45 66.05 127.05 69.0 128.3 71.55 128.55 75.6 128.45 75.5 128.5 75.65 L128.55 75.85 Q128.4 75.85 128.55 76.05 L128.55 78.0 Q128.35 78.05 128.55 78.6 128.45 82.4 127.1 85.9 125.55 89.15 123.55 89.8 121.2 90.3 119.75 87.7 117.9 84.85 118.05 80.55 117.95 79.45 118.2 79.05 117.95 78.1 118.1 77.45 117.8 76.9 118.0 76.95 118.05 72.6 119.65 69.85 M134.85 67.0 Q134.15 66.2 132.6 66.65 131.1 66.65 130.2 68.65 129.15 70.25 129.3 72.85 129.15 72.85 129.25 73.15 L129.3 73.25 Q129.25 75.0 130.1 75.95 L131.8 76.8 Q132.9 76.8 132.95 78.2 132.9 79.4 131.9 79.95 L130.45 79.8 129.9 79.4 129.45 83.05 Q130.7 83.6 132.2 83.5 133.45 83.05 134.45 81.7 135.25 79.9 135.4 77.85 135.35 77.15 135.45 77.1 135.35 75.15 134.95 74.45 L134.95 74.4 134.65 73.95 134.55 73.95 Q134.1 73.2 133.05 73.05 131.8 72.5 131.85 71.6 L131.95 71.1 131.95 71.05 Q132.0 69.9 132.75 70.05 133.35 69.7 134.65 71.1 L134.85 67.0 M122.4 78.75 Q122.75 79.25 123.55 79.4 L124.55 78.35 Q124.5 78.0 124.7 77.95 124.6 77.6 124.8 77.65 L124.55 77.15 Q124.05 76.25 123.5 76.55 122.65 76.5 122.4 77.6 122.2 77.75 122.2 78.05 122.05 78.1 122.25 78.25 L122.4 78.75 M135.3 66.7 L135.35 66.95 135.1 69.1 135.15 69.15 135.2 69.3 135.3 69.55 135.1 73.45 135.2 73.65 135.25 73.7 Q135.8 74.75 135.9 77.15 135.8 77.2 135.85 77.85 L135.8 78.85 135.85 79.8 Q135.85 83.0 134.75 85.25 133.6 86.85 132.3 87.45 130.55 87.8 129.15 86.9 129.05 86.7 129.0 86.8 L129.0 86.45 129.2 84.0 Q129.05 83.8 129.0 83.95 L128.9 83.6 Q128.85 83.25 128.95 83.25 L129.35 79.0 Q128.75 77.8 128.85 75.85 128.65 74.8 128.85 74.35 L128.8 73.25 128.75 72.85 Q128.65 69.75 129.85 67.75 L129.85 67.8 Q130.8 65.5 132.55 65.7 134.45 65.2 135.2 66.45 L135.3 66.7" fill="#640000" fill-rule="evenodd" stroke="none"/>
    <path d="M114.45 67.5 L110.7 67.95 Q110.5 67.7 110.55 68.1 110.3 67.9 110.45 68.5 L110.4 71.6 110.4 71.8 110.2 92.8 Q110.0 92.9 110.2 93.1 L110.4 93.3 117.5 91.3 117.6 91.15 Q117.5 90.65 117.65 90.65 L117.65 87.9 Q117.55 87.75 117.7 87.8 L117.8 87.45 117.75 81.95 117.7 81.7 117.55 81.4 Q117.35 81.1 117.4 81.35 L114.75 81.75 114.75 68.2 Q114.6 67.8 114.8 67.9 L114.6 67.6 Q114.35 67.3 114.45 67.5 M109.9 68.2 Q108.85 67.5 108.05 67.95 105.1 67.95 103.2 71.65 100.9 75.2 100.95 80.15 L100.95 80.3 Q100.75 81.0 100.95 82.1 100.8 82.85 100.95 84.05 100.65 88.9 102.85 92.05 104.7 94.85 107.65 94.15 L109.4 93.3 109.6 93.0 109.7 92.75 109.75 89.75 109.75 89.65 109.85 89.3 109.9 81.2 109.9 80.85 Q109.75 80.45 109.7 80.7 109.55 80.45 109.55 80.7 109.3 80.55 109.35 80.9 108.55 82.1 107.8 82.35 106.85 82.4 106.45 81.7 L106.2 81.35 106.1 80.95 Q106.1 80.45 106.4 80.4 106.85 79.2 107.85 79.3 108.75 78.85 109.3 80.25 L109.45 80.45 Q109.45 80.25 109.65 80.35 109.6 80.1 109.8 80.15 109.65 79.9 109.8 79.95 L109.9 76.9 109.9 76.7 Q109.8 76.4 109.95 76.45 L110.15 68.75 109.9 68.2 M142.0 64.9 Q141.8 64.8 141.8 65.15 141.65 65.0 141.8 65.4 L142.4 84.1 142.5 84.3 142.6 84.35 146.25 83.35 Q147.55 82.85 148.5 80.4 149.3 77.65 149.3 74.6 L149.25 73.85 149.25 72.45 149.2 72.35 149.2 72.2 Q149.15 72.0 149.25 72.15 148.95 68.65 147.95 66.65 146.85 64.3 145.5 64.6 L142.0 64.9 M141.55 65.15 L141.5 65.05 Q141.35 64.75 141.3 65.0 L136.05 65.5 Q135.85 65.3 135.85 65.65 L135.9 65.95 136.35 85.75 136.4 85.9 136.6 86.05 141.95 84.5 142.05 84.35 142.05 84.1 142.05 81.8 142.1 81.75 142.15 81.55 142.0 77.05 141.95 76.75 141.85 76.6 141.8 75.9 141.9 75.6 141.8 71.25 141.75 70.95 141.7 70.75 141.7 70.1 Q141.6 69.75 141.75 69.8 L141.6 65.5 141.55 65.15 M145.4 72.15 Q145.85 71.9 146.45 72.95 L146.65 73.65 146.65 74.0 Q146.5 74.2 146.5 74.6 L145.55 75.7 144.85 75.8 144.7 72.25 145.4 72.15 M119.65 69.85 Q118.05 72.6 118.0 76.95 117.8 76.9 118.1 77.45 117.95 78.1 118.2 79.05 117.95 79.45 118.05 80.55 117.9 84.85 119.75 87.7 121.2 90.3 123.55 89.8 125.55 89.15 127.1 85.9 128.45 82.4 128.55 78.6 128.35 78.05 128.55 78.0 L128.55 76.05 Q128.4 75.85 128.55 75.85 L128.5 75.65 Q128.45 75.5 128.55 75.6 128.3 71.55 127.05 69.0 125.45 66.05 123.5 66.45 121.15 66.45 119.65 69.85 M135.3 66.7 L135.2 66.45 Q134.45 65.2 132.55 65.7 130.8 65.5 129.85 67.8 L129.85 67.75 Q128.65 69.75 128.75 72.85 L128.8 73.25 128.85 74.35 Q128.65 74.8 128.85 75.85 128.75 77.8 129.35 79.0 L128.95 83.25 Q128.85 83.25 128.9 83.6 L129.0 83.95 Q129.05 83.8 129.2 84.0 L129.0 86.45 129.0 86.8 Q129.05 86.7 129.15 86.9 130.55 87.8 132.3 87.45 133.6 86.85 134.75 85.25 135.85 83.0 135.85 79.8 L135.8 78.85 135.85 77.85 Q135.8 77.2 135.9 77.15 135.8 74.75 135.25 73.7 L135.2 73.65 135.1 73.45 135.3 69.55 135.2 69.3 135.15 69.15 135.1 69.1 135.35 66.95 135.3 66.7 M122.4 78.75 L122.25 78.25 Q122.05 78.1 122.2 78.05 122.2 77.75 122.4 77.6 122.65 76.5 123.5 76.55 124.05 76.25 124.55 77.15 L124.8 77.65 Q124.6 77.6 124.7 77.95 124.5 78.0 124.55 78.35 L123.55 79.4 Q122.75 79.25 122.4 78.75 M150.3 94.0 L98.45 114.4 100.25 47.95 148.4 50.2 150.3 94.0" fill="#990000" fill-rule="evenodd" stroke="none"/>
    <path d="M109.45 69.2 L109.35 75.25 Q108.6 74.35 107.85 74.75 106.75 74.5 106.05 76.15 105.1 77.55 105.2 79.45 L105.2 79.5 Q105.05 80.85 105.65 82.1 L106.0 82.75 106.0 82.8 Q106.6 83.7 107.85 83.7 L109.3 82.65 109.2 88.8 107.65 89.45 Q105.0 89.85 103.35 87.45 101.35 84.5 101.7 80.3 L101.65 80.15 Q101.75 75.65 103.7 72.45 105.5 69.15 108.2 69.05 L109.45 69.2 M114.15 68.65 L114.1 82.55 Q113.95 82.55 114.1 82.85 L114.25 83.05 114.45 83.1 117.15 82.65 117.15 86.9 110.9 88.55 111.1 68.9 114.15 68.65 M145.6 65.55 Q146.75 65.15 147.8 67.3 148.65 69.0 148.85 72.05 L148.85 72.45 Q148.85 75.05 148.15 77.2 147.25 79.5 146.1 80.0 L142.7 80.85 142.25 65.85 145.6 65.55 M138.55 69.8 Q138.4 69.8 138.55 70.1 L138.55 71.55 138.6 71.8 138.7 72.1 Q138.65 71.9 138.85 72.1 L141.35 71.7 141.45 75.2 138.85 75.65 Q138.7 75.55 138.75 75.8 138.55 75.75 138.7 76.15 L138.7 77.55 138.75 77.8 Q138.7 77.9 138.8 78.0 L139.0 78.1 141.65 77.45 141.75 81.1 136.7 82.2 136.35 66.5 141.15 65.95 141.35 69.35 138.7 69.7 Q138.55 69.6 138.55 69.8 M145.35 68.85 L144.4 69.05 Q144.2 68.75 144.25 69.1 144.1 69.1 144.2 69.45 L144.5 76.3 Q144.35 76.35 144.45 76.5 L144.6 76.75 144.75 76.85 145.65 76.6 Q146.2 76.3 146.8 75.2 L146.8 75.15 Q146.85 74.75 147.05 74.5 L147.15 72.5 Q146.95 70.65 146.5 69.8 L146.5 69.75 Q145.9 68.45 145.35 68.85 M123.45 72.55 Q122.55 72.5 122.05 73.85 121.3 74.8 121.45 76.7 L121.45 76.75 Q121.3 77.9 121.8 79.0 L122.1 79.6 122.15 79.7 Q122.55 80.45 123.55 80.5 L123.6 80.5 124.95 79.05 Q124.9 78.9 125.0 79.0 125.0 78.65 125.15 78.6 L125.6 76.1 Q125.45 74.3 124.9 73.45 124.2 72.15 123.45 72.55 M123.45 67.6 Q125.3 67.15 126.7 69.8 127.9 71.85 128.05 75.7 L128.05 76.05 Q127.9 79.25 126.8 82.15 125.4 85.05 123.6 85.7 121.5 85.85 120.1 83.7 118.55 81.05 118.65 77.4 118.6 77.25 118.7 77.25 L118.7 77.2 Q118.6 73.2 120.0 70.5 121.4 67.65 123.45 67.6 M134.85 67.0 L134.65 71.1 Q133.35 69.7 132.75 70.05 132.0 69.9 131.95 71.05 L131.95 71.1 131.85 71.6 Q131.8 72.5 133.05 73.05 134.1 73.2 134.55 73.95 L134.65 73.95 134.95 74.4 134.95 74.45 Q135.35 75.15 135.45 77.1 135.35 77.15 135.4 77.85 135.25 79.9 134.45 81.7 133.45 83.05 132.2 83.5 130.7 83.6 129.45 83.05 L129.9 79.4 130.45 79.8 131.9 79.95 Q132.9 79.4 132.95 78.2 132.9 76.8 131.8 76.8 L130.1 75.95 Q129.25 75.0 129.3 73.25 L129.25 73.15 Q129.15 72.85 129.3 72.85 129.15 70.25 130.2 68.65 131.1 66.65 132.6 66.65 134.15 66.2 134.85 67.0" fill="#ffffff" fill-rule="evenodd" stroke="none"/>
  </g>
</svg>
