<?xml version="1.0" encoding="UTF-8" standalone="no"?>
<svg xmlns:ffdec="https://www.free-decompiler.com/flash" xmlns:xlink="http://www.w3.org/1999/xlink" ffdec:objectType="shape" height="80.0px" width="33.55px" xmlns="http://www.w3.org/2000/svg">
  <g transform="matrix(1.0, 0.0, 0.0, 1.0, -101.5, -38.55)">
    <path d="M133.85 45.65 Q133.75 45.45 133.95 45.65 L133.95 45.8 134.0 45.95 135.05 89.75 135.05 90.1 Q134.95 90.05 135.0 90.25 L101.85 118.35 Q101.7 118.3 101.65 118.55 L101.6 118.2 Q101.45 117.9 101.6 117.95 L104.75 39.1 Q104.6 38.65 104.85 38.9 L104.85 38.7 Q104.85 38.5 105.0 38.55 L133.85 45.65 M133.8 46.25 L105.15 39.8 102.2 116.65 134.85 89.65 133.8 46.25" fill="#624544" fill-rule="evenodd" stroke="none"/>
    <path d="M133.5 47.6 L134.45 87.6 134.4 87.95 Q134.25 87.85 134.4 88.1 L103.9 112.0 103.75 111.9 103.6 111.65 103.6 111.5 106.15 42.65 Q106.1 42.25 106.25 42.35 106.2 41.95 106.4 42.2 L133.45 47.4 133.5 47.6 M133.4 48.15 L106.65 43.3 104.25 110.3 134.3 87.3 133.4 48.15" fill="#6c0000" fill-rule="evenodd" stroke="none"/>
    <path d="M133.5 47.6 L133.45 47.4 106.4 42.2 Q106.2 41.95 106.25 42.35 106.1 42.25 106.15 42.65 L103.6 111.5 103.6 111.65 103.75 111.9 103.9 112.0 134.4 88.1 Q134.25 87.85 134.4 87.95 L134.45 87.6 133.5 47.6 M133.8 46.25 L134.85 89.65 102.2 116.65 105.15 39.8 133.8 46.25" fill="#f5cfcd" fill-rule="evenodd" stroke="none"/>
    <path d="M109.65 71.1 Q110.15 69.35 110.8 69.7 111.2 69.25 111.75 70.2 L111.85 64.3 Q111.3 63.7 111.1 64.1 109.4 64.05 108.35 67.4 107.0 70.5 106.9 75.0 L106.95 75.15 Q106.6 79.3 107.85 82.35 108.75 84.6 110.5 84.15 110.8 83.8 111.45 83.55 L111.6 77.45 110.75 78.5 Q109.9 78.4 109.6 77.6 L109.35 76.9 Q108.95 75.65 109.1 74.3 L109.1 74.25 Q109.05 72.35 109.65 71.1 M108.05 66.6 Q109.2 62.9 111.05 63.0 111.45 62.55 112.15 63.25 L112.3 63.8 112.05 71.35 Q111.9 71.25 111.95 71.6 L112.0 71.8 111.85 74.65 111.85 74.9 Q111.7 74.85 111.8 75.1 111.6 75.0 111.7 75.25 L111.65 75.05 Q111.25 73.55 110.7 74.15 110.1 73.95 109.9 75.2 109.65 75.25 109.65 75.85 L109.7 76.2 109.9 76.5 Q110.05 77.1 110.65 77.1 L111.6 75.75 Q111.6 75.3 111.8 75.45 111.65 75.15 111.85 75.5 111.8 75.25 112.0 75.7 111.85 75.6 111.9 76.0 L111.85 83.95 Q111.65 84.05 111.75 84.3 L111.7 84.4 111.7 87.45 111.55 87.75 Q111.4 87.7 111.45 88.0 L110.4 88.95 Q108.55 89.65 107.45 86.95 106.1 83.75 106.4 78.85 106.25 77.65 106.45 77.05 106.3 75.8 106.45 75.15 L106.45 75.0 Q106.45 70.0 108.05 66.6 M120.05 62.95 Q118.8 62.9 118.05 65.7 117.15 68.2 117.25 72.0 L117.25 72.05 Q117.15 72.05 117.2 72.2 117.0 75.7 118.0 78.4 118.7 80.3 119.85 80.15 120.9 79.5 121.8 76.8 122.4 74.0 122.6 70.95 122.4 70.6 122.55 70.7 122.45 67.0 121.85 65.1 121.1 62.6 120.05 62.95 M114.95 62.85 L115.05 63.15 Q114.9 62.95 115.05 63.45 L114.85 76.55 116.4 76.15 Q116.3 75.8 116.45 76.2 L116.55 76.45 116.5 81.9 Q116.4 81.95 116.45 82.3 116.3 82.2 116.45 82.4 L116.45 85.1 Q116.35 85.1 116.4 85.65 116.3 85.6 116.35 85.8 L112.1 87.95 112.0 87.75 111.95 87.55 112.4 66.85 112.4 66.65 112.5 63.65 Q112.3 63.05 112.55 63.2 112.45 62.85 112.6 63.05 L114.85 62.8 Q114.75 62.45 114.95 62.85 M117.8 65.05 Q118.7 61.85 120.0 62.0 121.1 61.55 122.05 64.45 122.65 66.8 122.75 70.55 L122.85 70.75 Q122.7 70.7 122.85 71.0 122.75 71.6 122.8 72.85 122.65 72.8 122.75 73.4 122.6 77.0 121.95 80.25 121.0 83.45 119.9 84.1 118.45 84.55 117.7 82.15 116.65 79.4 116.85 75.25 116.7 74.05 116.9 73.8 L116.85 72.3 Q116.65 71.7 116.85 71.8 116.85 67.65 117.8 65.05 M120.8 68.5 L121.1 71.05 120.9 73.45 Q120.75 73.3 120.75 73.8 L120.75 73.85 119.95 75.25 Q119.3 75.15 119.2 74.4 L119.15 74.3 118.95 73.75 Q118.7 72.7 118.8 71.65 L118.8 71.55 Q118.7 69.7 119.15 68.8 119.4 67.55 120.0 67.65 120.4 67.3 120.8 68.5 M114.65 63.85 L112.85 64.0 112.4 83.3 116.15 81.5 116.2 77.35 114.65 77.8 114.55 77.75 114.45 77.55 Q114.3 77.2 114.45 77.3 L114.65 63.85 M127.0 61.35 L129.7 60.95 Q129.7 60.75 129.8 61.05 L129.85 61.1 129.9 61.45 129.95 65.35 Q129.85 65.2 129.9 65.65 L129.85 66.25 129.9 66.4 129.95 66.65 130.0 70.65 Q129.9 70.55 129.95 70.95 L129.9 71.55 130.0 71.7 130.15 76.05 130.05 76.2 130.05 78.4 130.05 78.6 129.95 78.8 127.1 80.3 127.0 80.15 127.0 80.0 126.9 61.7 126.85 61.5 Q126.75 61.1 127.0 61.35 M129.9 61.15 Q129.9 60.85 130.05 60.9 L131.85 60.75 Q132.5 60.4 133.15 62.65 133.6 64.4 133.75 67.6 L133.75 67.7 133.75 67.85 133.75 69.05 133.8 69.75 133.4 74.95 Q132.8 77.15 132.2 77.65 L130.35 78.7 130.3 78.65 130.2 78.4 129.95 61.35 129.9 61.15 M120.7 72.5 L120.5 71.95 Q120.25 71.15 119.95 71.45 119.45 71.4 119.35 72.45 L119.25 72.85 Q119.1 72.85 119.3 73.1 L119.3 73.55 119.95 74.15 120.55 73.15 Q120.45 72.8 120.65 72.75 120.55 72.35 120.7 72.5 M128.2 65.35 Q128.2 65.05 128.35 65.2 L129.65 65.0 129.65 61.9 127.1 62.25 127.2 76.7 129.85 75.7 129.85 72.25 128.45 72.95 128.3 72.8 128.3 72.6 128.25 71.15 Q128.15 70.7 128.35 70.85 128.25 70.45 128.4 70.7 L129.8 70.3 129.65 67.1 128.35 67.35 128.3 67.35 128.2 67.1 128.2 65.6 128.2 65.35 M131.2 64.8 Q131.15 64.4 131.3 64.7 L131.8 64.5 Q132.05 64.1 132.4 65.4 L132.7 67.8 Q132.6 68.55 132.65 69.65 L132.55 70.3 132.55 70.35 131.95 71.6 131.45 71.8 131.35 71.7 131.3 71.45 Q131.2 71.25 131.35 71.35 L131.2 65.1 131.2 64.8 M126.45 64.65 L126.5 64.7 126.5 64.85 126.5 65.1 126.35 68.65 126.45 68.9 126.8 72.0 Q126.65 72.0 126.8 72.65 126.7 73.0 126.75 73.6 L126.8 74.5 Q126.75 77.4 126.1 79.6 125.45 81.15 124.8 81.7 123.75 82.05 123.05 81.25 L122.95 81.15 Q122.85 80.7 123.0 80.75 L123.1 78.5 Q123.0 78.25 123.0 78.5 L122.95 78.15 Q122.85 77.7 123.0 77.85 L123.2 73.7 Q122.85 72.6 122.95 70.8 122.8 69.8 123.05 69.45 122.85 68.85 123.0 68.35 L122.95 68.0 Q122.85 65.1 123.55 63.4 L123.6 63.35 Q124.05 61.15 125.05 61.35 126.05 61.0 126.5 62.15 L126.55 62.65 126.45 64.65 M126.35 62.65 Q125.85 61.9 125.05 62.3 124.25 62.2 123.75 64.1 123.05 65.5 123.2 68.05 L123.2 68.35 123.2 68.45 Q123.2 70.0 123.7 70.85 L124.5 71.75 Q125.15 71.65 125.2 73.05 125.1 74.05 124.6 74.6 L123.8 74.5 123.55 74.15 123.2 77.6 Q123.85 78.05 124.75 78.0 L126.0 76.25 126.5 72.7 Q126.45 71.95 126.55 72.0 L126.3 69.6 126.3 69.55 126.1 69.15 126.0 69.15 Q125.75 68.3 125.35 68.3 124.6 67.7 124.65 66.9 124.55 66.35 124.7 66.4 L124.7 66.35 Q124.65 65.3 125.15 65.4 125.4 65.1 126.2 66.4 L126.35 62.65 M131.45 67.6 L131.55 70.85 131.9 70.75 132.4 69.8 Q132.3 69.35 132.45 69.15 L132.45 68.85 132.35 68.25 Q132.0 67.25 131.8 67.55 L131.45 67.6 M133.55 67.8 L133.5 67.5 133.05 63.3 Q132.5 61.25 131.95 61.6 L130.15 61.8 130.35 75.4 132.2 74.6 Q132.75 74.15 133.2 72.1 L133.55 67.8" fill="#640000" fill-rule="evenodd" stroke="none"/>
    <path d="M108.05 66.6 Q106.45 70.0 106.45 75.0 L106.45 75.15 Q106.3 75.8 106.45 77.05 106.25 77.65 106.4 78.85 106.1 83.75 107.45 86.95 108.55 89.65 110.4 88.95 L111.45 88.0 Q111.4 87.7 111.55 87.75 L111.7 87.45 111.7 84.4 111.75 84.3 Q111.65 84.05 111.85 83.95 L111.9 76.0 Q111.85 75.6 112.0 75.7 111.8 75.25 111.85 75.5 111.65 75.15 111.8 75.45 111.6 75.3 111.6 75.75 L110.65 77.1 Q110.05 77.1 109.9 76.5 L109.7 76.2 109.65 75.85 Q109.65 75.25 109.9 75.2 110.1 73.95 110.7 74.15 111.25 73.55 111.65 75.05 L111.7 75.25 Q111.6 75.0 111.8 75.1 111.7 74.85 111.85 74.9 L111.85 74.65 112.0 71.8 111.95 71.6 Q111.9 71.25 112.05 71.35 L112.3 63.8 112.15 63.25 Q111.45 62.55 111.05 63.0 109.2 62.9 108.05 66.6 M117.8 65.05 Q116.85 67.65 116.85 71.8 116.65 71.7 116.85 72.3 L116.9 73.8 Q116.7 74.05 116.85 75.25 116.65 79.4 117.7 82.15 118.45 84.55 119.9 84.1 121.0 83.45 121.95 80.25 122.6 77.0 122.75 73.4 122.65 72.8 122.8 72.85 122.75 71.6 122.85 71.0 122.7 70.7 122.85 70.75 L122.75 70.55 Q122.65 66.8 122.05 64.45 121.1 61.55 120.0 62.0 118.7 61.85 117.8 65.05 M114.95 62.85 Q114.75 62.45 114.85 62.8 L112.6 63.05 Q112.45 62.85 112.55 63.2 112.3 63.05 112.5 63.65 L112.4 66.65 112.4 66.85 111.95 87.55 112.0 87.75 112.1 87.95 116.35 85.8 Q116.3 85.6 116.4 85.65 116.35 85.1 116.45 85.1 L116.45 82.4 Q116.3 82.2 116.45 82.3 116.4 81.95 116.5 81.9 L116.55 76.45 116.45 76.2 Q116.3 75.8 116.4 76.15 L114.85 76.55 115.05 63.45 Q114.9 62.95 115.05 63.15 L114.95 62.85 M120.7 72.5 Q120.55 72.35 120.65 72.75 120.45 72.8 120.55 73.15 L119.95 74.15 119.3 73.55 119.3 73.1 Q119.1 72.85 119.25 72.85 L119.35 72.45 Q119.45 71.4 119.95 71.45 120.25 71.15 120.5 71.95 L120.7 72.5 M129.9 61.15 L129.95 61.35 130.2 78.4 130.3 78.65 130.35 78.7 132.2 77.65 Q132.8 77.15 133.4 74.95 L133.8 69.75 133.75 69.05 133.75 67.85 133.75 67.7 133.75 67.6 Q133.6 64.4 133.15 62.65 132.5 60.4 131.85 60.75 L130.05 60.9 Q129.9 60.85 129.9 61.15 M127.0 61.35 Q126.75 61.1 126.85 61.5 L126.9 61.7 127.0 80.0 127.0 80.15 127.1 80.3 129.95 78.8 130.05 78.6 130.05 78.4 130.05 76.2 130.15 76.05 130.0 71.7 129.9 71.55 129.95 70.95 Q129.9 70.55 130.0 70.65 L129.95 66.65 129.9 66.4 129.85 66.25 129.9 65.65 Q129.85 65.2 129.95 65.35 L129.9 61.45 129.85 61.1 129.8 61.05 Q129.7 60.75 129.7 60.95 L127.0 61.35 M126.45 64.65 L126.55 62.65 126.5 62.15 Q126.05 61.0 125.05 61.35 124.05 61.15 123.6 63.35 L123.55 63.4 Q122.85 65.1 122.95 68.0 L123.0 68.35 Q122.85 68.85 123.05 69.45 122.8 69.8 122.95 70.8 122.85 72.6 123.2 73.7 L123.0 77.85 Q122.85 77.7 122.95 78.15 L123.0 78.5 Q123.0 78.25 123.1 78.5 L123.0 80.75 Q122.85 80.7 122.95 81.15 L123.05 81.25 Q123.75 82.05 124.8 81.7 125.45 81.15 126.1 79.6 126.75 77.4 126.8 74.5 L126.75 73.6 Q126.7 73.0 126.8 72.65 126.65 72.0 126.8 72.0 L126.45 68.9 126.35 68.65 126.5 65.1 126.5 64.85 126.5 64.7 126.45 64.65 M131.45 67.6 L131.8 67.55 Q132.0 67.25 132.35 68.25 L132.45 68.85 132.45 69.15 Q132.3 69.35 132.4 69.8 L131.9 70.75 131.55 70.85 131.45 67.6 M133.4 48.15 L134.3 87.3 104.25 110.3 106.65 43.3 133.4 48.15" fill="#990000" fill-rule="evenodd" stroke="none"/>
    <path d="M109.65 71.1 Q109.05 72.35 109.1 74.25 L109.1 74.3 Q108.95 75.65 109.35 76.9 L109.6 77.6 Q109.9 78.4 110.75 78.5 L111.6 77.45 111.45 83.55 Q110.8 83.8 110.5 84.15 108.75 84.6 107.85 82.35 106.6 79.3 106.95 75.15 L106.9 75.0 Q107.0 70.5 108.35 67.4 109.4 64.05 111.1 64.1 111.3 63.7 111.85 64.3 L111.75 70.2 Q111.2 69.25 110.8 69.7 110.15 69.35 109.65 71.1 M120.05 62.95 Q121.1 62.6 121.85 65.1 122.45 67.0 122.55 70.7 122.4 70.6 122.6 70.95 122.4 74.0 121.8 76.8 120.9 79.5 119.85 80.15 118.7 80.3 118.0 78.4 117.0 75.7 117.2 72.2 117.15 72.05 117.25 72.05 L117.25 72.0 Q117.15 68.2 118.05 65.7 118.8 62.9 120.05 62.95 M114.65 63.85 L114.45 77.3 Q114.3 77.2 114.45 77.55 L114.55 77.75 114.65 77.8 116.2 77.35 116.15 81.5 112.4 83.3 112.85 64.0 114.65 63.85 M120.8 68.5 Q120.4 67.3 120.0 67.65 119.4 67.55 119.15 68.8 118.7 69.7 118.8 71.55 L118.8 71.65 Q118.7 72.7 118.95 73.75 L119.15 74.3 119.2 74.4 Q119.3 75.15 119.95 75.25 L120.75 73.85 120.75 73.8 Q120.75 73.3 120.9 73.45 L121.1 71.05 120.8 68.5 M131.2 64.8 L131.2 65.1 131.35 71.35 Q131.2 71.25 131.3 71.45 L131.35 71.7 131.45 71.8 131.95 71.6 132.55 70.35 132.55 70.3 132.65 69.65 Q132.6 68.55 132.7 67.8 L132.4 65.4 Q132.05 64.1 131.8 64.5 L131.3 64.7 Q131.15 64.4 131.2 64.8 M128.2 65.35 L128.2 65.6 128.2 67.1 128.3 67.35 128.35 67.35 129.65 67.1 129.8 70.3 128.4 70.7 Q128.25 70.45 128.35 70.85 128.15 70.7 128.25 71.15 L128.3 72.6 128.3 72.8 128.45 72.95 129.85 72.25 129.85 75.7 127.2 76.7 127.1 62.25 129.65 61.9 129.65 65.0 128.35 65.2 Q128.2 65.05 128.2 65.35 M126.35 62.65 L126.2 66.4 Q125.4 65.1 125.15 65.4 124.65 65.3 124.7 66.35 L124.7 66.4 Q124.55 66.35 124.65 66.9 124.6 67.7 125.35 68.3 125.75 68.3 126.0 69.15 L126.1 69.15 126.3 69.55 126.3 69.6 126.55 72.0 Q126.45 71.95 126.5 72.7 L126.0 76.25 124.75 78.0 Q123.85 78.05 123.2 77.6 L123.55 74.15 123.8 74.5 124.6 74.6 Q125.1 74.05 125.2 73.05 125.15 71.65 124.5 71.75 L123.7 70.85 Q123.2 70.0 123.2 68.45 L123.2 68.35 123.2 68.05 Q123.05 65.5 123.75 64.1 124.25 62.2 125.05 62.3 125.85 61.9 126.35 62.65 M133.55 67.8 L133.2 72.1 Q132.75 74.15 132.2 74.6 L130.35 75.4 130.15 61.8 131.95 61.6 Q132.5 61.25 133.05 63.3 L133.5 67.5 133.55 67.8" fill="#ffffff" fill-rule="evenodd" stroke="none"/>
  </g>
</svg>
