<?xml version="1.0" encoding="UTF-8" standalone="no"?>
<svg xmlns:ffdec="https://www.free-decompiler.com/flash" xmlns:xlink="http://www.w3.org/1999/xlink" ffdec:objectType="shape" height="88.6px" width="22.2px" xmlns="http://www.w3.org/2000/svg">
  <g transform="matrix(1.0, 0.0, 0.0, 1.0, -109.65, -28.1)">
    <path d="M114.75 33.85 Q114.65 33.3 114.8 33.55 114.75 33.05 114.95 33.5 L131.45 52.1 131.5 52.25 130.55 89.6 Q130.45 89.45 130.45 89.85 L130.5 90.0 111.55 109.95 111.45 109.95 Q111.2 109.65 111.3 109.6 L111.3 109.45 114.75 33.85 M130.9 71.3 L130.9 71.25 131.4 52.8 115.05 34.85 111.8 108.25 130.45 89.3 130.9 73.25 130.9 71.3" fill="#6c0000" fill-rule="evenodd" stroke="none"/>
    <path d="M114.75 33.85 L111.3 109.45 111.3 109.6 Q111.2 109.65 111.45 109.95 L111.55 109.95 130.5 90.0 130.45 89.85 Q130.45 89.45 130.55 89.6 L131.5 52.25 131.45 52.1 114.95 33.5 Q114.75 33.05 114.8 33.55 114.65 33.3 114.75 33.85 M130.6 91.4 L110.2 114.75 114.05 29.85 131.7 51.15 130.6 91.4" fill="#f5cfcd" fill-rule="evenodd" stroke="none"/>
    <path d="M113.85 28.25 Q113.8 28.05 114.0 28.15 L114.0 28.1 131.75 50.55 Q131.65 50.25 131.85 50.5 L131.8 50.85 130.75 91.55 130.75 91.9 Q130.65 91.75 130.7 92.05 L109.9 116.55 Q109.75 116.4 109.75 116.7 109.6 116.55 109.7 116.4 L109.7 116.15 109.75 116.15 113.8 28.7 Q113.65 27.95 113.85 28.55 L113.85 28.25 M130.6 91.4 L131.7 51.15 114.05 29.85 110.2 114.75 130.6 91.4" fill="#624544" fill-rule="evenodd" stroke="none"/>
    <path d="M114.45 71.15 L114.5 71.3 Q114.15 75.65 115.0 79.4 115.5 81.95 116.75 81.85 116.95 81.5 117.45 81.5 L117.7 75.1 117.1 75.95 Q116.45 75.6 116.3 74.6 L116.15 73.95 Q115.9 72.35 116.05 71.0 L116.05 70.95 Q116.05 68.8 116.55 67.75 116.8 66.0 117.35 66.6 117.65 66.2 118.0 67.45 L118.25 61.1 Q117.8 60.25 117.75 60.65 116.5 59.95 115.75 63.2 114.6 66.05 114.45 71.15 M118.65 60.65 Q118.55 59.85 118.7 60.2 118.65 59.75 118.75 60.1 L120.15 60.6 Q120.15 60.2 120.25 60.75 120.2 60.35 120.35 61.05 120.25 60.75 120.35 61.35 L119.8 74.95 120.8 75.0 Q120.75 74.6 120.85 75.1 L120.9 75.45 120.8 80.9 120.65 81.3 120.7 81.4 120.6 84.1 Q120.5 84.05 120.55 84.7 L120.55 84.8 117.7 86.2 117.65 85.9 Q117.5 85.6 117.65 85.65 L118.55 64.05 Q118.45 63.75 118.55 63.95 L118.65 60.65 M114.05 75.1 L114.05 73.2 114.15 71.05 114.15 70.95 Q114.25 65.3 115.5 62.15 116.35 58.55 117.7 59.45 117.9 59.05 118.4 60.1 L118.55 60.8 118.2 68.8 Q118.05 68.6 118.1 69.0 L117.95 72.2 Q117.85 72.1 117.9 72.4 L117.9 72.65 117.75 72.65 Q117.5 70.85 117.15 71.3 116.7 70.9 116.55 72.2 116.35 72.15 116.4 72.8 L116.55 73.65 Q116.6 74.25 117.1 74.5 L117.75 73.3 Q117.65 72.8 117.85 72.95 L118.0 73.35 Q117.85 73.15 117.9 73.65 L117.65 81.95 Q117.5 82.0 117.65 82.3 117.55 82.25 117.6 82.45 L117.45 85.55 Q117.3 85.5 117.35 85.8 117.25 85.7 117.3 86.05 L116.55 86.85 Q115.25 87.2 114.55 84.15 113.7 80.4 114.05 75.1 M126.45 63.65 Q125.9 63.2 125.6 65.05 125.1 66.15 125.2 68.75 125.1 68.55 125.15 69.1 L125.15 69.2 Q125.05 70.65 125.4 71.65 L125.8 72.75 Q126.1 72.8 126.1 74.15 L125.75 75.65 125.35 75.25 125.15 74.85 124.85 78.1 Q125.15 78.7 125.7 78.9 L126.45 77.55 126.9 74.2 Q126.85 73.5 126.95 73.6 L126.85 71.2 126.85 71.15 126.75 70.7 126.8 70.6 126.35 69.65 Q126.0 68.8 126.05 68.1 L126.05 67.65 126.05 67.55 Q126.05 66.45 126.35 66.8 126.5 66.4 126.95 68.1 L127.1 64.4 Q126.85 63.55 126.45 63.65 M120.1 61.75 L118.9 61.15 118.1 81.4 120.5 80.4 120.7 76.2 119.65 76.3 119.55 76.2 119.55 76.0 Q119.4 75.55 119.55 75.75 L120.1 61.75 M125.55 64.3 L125.6 64.2 Q125.85 62.15 126.4 62.75 126.9 62.65 127.2 64.0 L127.3 64.5 127.1 66.4 127.15 66.45 127.15 66.6 127.15 66.9 126.95 70.25 127.0 70.5 127.1 73.6 Q127.0 73.55 127.05 74.3 126.95 74.55 127.0 75.15 L126.95 76.0 126.4 80.7 125.65 82.4 Q125.0 82.5 124.65 81.75 L124.6 81.6 Q124.55 81.15 124.65 81.2 L124.8 79.05 124.7 78.9 124.7 78.65 Q124.6 78.15 124.75 78.35 L125.0 74.35 Q124.8 73.15 124.95 71.5 124.85 70.4 125.05 70.1 L125.05 69.0 125.0 68.65 Q125.05 65.65 125.55 64.3 M123.5 62.65 Q122.7 62.15 122.15 64.75 121.55 67.05 121.5 71.05 L121.5 71.1 Q121.35 70.95 121.45 71.25 121.2 74.7 121.75 77.7 122.1 79.8 122.85 79.95 123.45 79.4 124.1 77.0 L124.7 71.45 124.7 71.15 124.5 65.4 Q124.1 62.7 123.5 62.65 M122.75 68.35 Q122.9 67.05 123.3 67.4 123.5 67.1 123.8 68.55 L123.8 71.15 123.7 73.45 Q123.6 73.25 123.55 73.75 L123.5 73.9 123.05 74.95 Q122.6 74.7 122.65 74.0 L122.6 73.9 Q122.35 73.3 122.45 73.3 122.3 72.05 122.45 71.15 L122.45 71.05 Q122.4 69.05 122.75 68.35 M130.9 71.3 L130.85 71.55 130.85 72.6 130.9 73.25 130.4 77.95 129.75 80.2 128.8 80.7 128.75 80.75 128.7 80.5 129.1 64.45 128.95 68.15 Q128.85 67.9 128.95 68.4 L128.9 69.0 128.95 69.1 128.95 69.35 128.85 73.2 Q128.75 73.0 128.8 73.4 L128.8 73.95 128.85 74.1 128.75 78.25 Q128.65 78.15 128.7 78.35 L128.55 80.45 128.6 80.65 128.5 80.8 126.95 81.5 126.9 81.4 127.45 63.65 Q127.3 63.35 127.45 63.5 127.35 62.95 127.6 63.35 L129.0 63.85 Q129.0 63.55 129.1 63.95 129.15 63.75 129.25 63.9 L130.15 64.3 Q130.5 64.1 130.75 66.5 L130.9 71.25 130.9 71.3 M122.05 64.0 Q122.65 61.0 123.45 61.65 124.05 61.45 124.6 64.8 L124.8 71.15 124.9 71.35 Q124.75 71.25 124.85 71.55 124.75 72.1 124.8 73.35 124.65 73.2 124.75 74.0 L124.05 80.5 Q123.35 83.35 122.75 83.8 121.8 83.95 121.45 81.35 120.8 78.3 121.15 74.25 121.1 72.9 121.2 72.8 L121.2 71.15 Q121.05 70.5 121.2 70.7 121.35 66.35 122.05 64.0 M129.65 67.95 Q129.65 67.5 129.8 67.9 L130.0 67.85 Q130.1 67.5 130.2 68.9 L130.35 71.1 130.25 72.9 130.15 73.5 130.2 73.55 129.85 74.55 129.55 74.6 129.5 74.4 129.45 74.25 Q129.4 74.0 129.55 74.15 L129.65 68.2 129.65 67.95 M128.9 64.7 L127.55 64.25 127.15 78.25 128.6 77.9 128.7 74.7 127.9 74.95 127.85 74.8 127.85 74.55 127.95 73.25 127.9 73.0 Q127.85 72.45 127.95 72.8 L128.75 72.8 128.8 69.65 128.05 69.6 128.05 69.3 128.05 67.85 Q128.0 67.45 128.1 67.6 128.05 67.3 128.2 67.5 L128.85 67.7 128.9 64.7 M130.2 65.2 L129.25 64.75 128.85 77.75 129.85 77.4 130.4 75.35 130.8 71.45 130.75 71.2 130.7 67.05 Q130.5 64.95 130.2 65.2 M123.45 71.9 Q123.3 71.0 123.15 71.3 122.8 71.0 122.75 72.1 122.6 72.05 122.65 72.5 L122.7 72.75 Q122.55 72.65 122.7 73.2 122.75 73.6 123.1 73.9 123.1 73.65 123.45 73.1 L123.55 72.75 123.5 72.5 123.45 71.9 M129.9 70.75 L129.7 70.75 129.65 73.75 129.85 73.7 130.1 72.9 130.2 72.4 130.15 72.1 130.15 71.5 129.9 70.75" fill="#640000" fill-rule="evenodd" stroke="none"/>
    <path d="M114.45 71.15 Q114.6 66.05 115.75 63.2 116.5 59.95 117.75 60.65 117.8 60.25 118.25 61.1 L118.0 67.45 Q117.65 66.2 117.35 66.6 116.8 66.0 116.55 67.75 116.05 68.8 116.05 70.95 L116.05 71.0 Q115.9 72.35 116.15 73.95 L116.3 74.6 Q116.45 75.6 117.1 75.95 L117.7 75.1 117.45 81.5 Q116.95 81.5 116.75 81.85 115.5 81.95 115.0 79.4 114.15 75.65 114.5 71.3 L114.45 71.15 M120.1 61.75 L119.55 75.75 Q119.4 75.55 119.55 76.0 L119.55 76.2 119.65 76.3 120.7 76.2 120.5 80.4 118.1 81.4 118.9 61.15 120.1 61.75 M126.45 63.65 Q126.85 63.55 127.1 64.4 L126.95 68.1 Q126.5 66.4 126.35 66.8 126.05 66.45 126.05 67.55 L126.05 67.65 126.05 68.1 Q126.0 68.8 126.35 69.65 L126.8 70.6 126.75 70.7 126.85 71.15 126.85 71.2 126.95 73.6 Q126.85 73.5 126.9 74.2 L126.45 77.55 125.7 78.9 Q125.15 78.7 124.85 78.1 L125.15 74.85 125.35 75.25 125.75 75.65 126.1 74.15 Q126.1 72.8 125.8 72.75 L125.4 71.65 Q125.05 70.65 125.15 69.2 L125.15 69.1 Q125.1 68.55 125.2 68.75 125.1 66.15 125.6 65.05 125.9 63.2 126.45 63.65 M122.75 68.35 Q122.4 69.05 122.45 71.05 L122.45 71.15 Q122.3 72.05 122.45 73.3 122.35 73.3 122.6 73.9 L122.65 74.0 Q122.6 74.7 123.05 74.95 L123.5 73.9 123.55 73.75 Q123.6 73.25 123.7 73.45 L123.8 71.15 123.8 68.55 Q123.5 67.1 123.3 67.4 122.9 67.05 122.75 68.35 M123.5 62.65 Q124.1 62.7 124.5 65.4 L124.7 71.15 124.7 71.45 124.1 77.0 Q123.45 79.4 122.85 79.95 122.1 79.8 121.75 77.7 121.2 74.7 121.45 71.25 121.35 70.95 121.5 71.1 L121.5 71.05 Q121.55 67.05 122.15 64.75 122.7 62.15 123.5 62.65 M130.2 65.2 Q130.5 64.95 130.7 67.05 L130.75 71.2 130.8 71.45 130.4 75.35 129.85 77.4 128.85 77.75 129.25 64.75 130.2 65.2 M128.9 64.7 L128.85 67.7 128.2 67.5 Q128.05 67.3 128.1 67.6 128.0 67.45 128.05 67.85 L128.05 69.3 128.05 69.6 128.8 69.65 128.75 72.8 127.95 72.8 Q127.85 72.45 127.9 73.0 L127.95 73.25 127.85 74.55 127.85 74.8 127.9 74.95 128.7 74.7 128.6 77.9 127.15 78.25 127.55 64.25 128.9 64.7 M129.65 67.95 L129.65 68.2 129.55 74.15 Q129.4 74.0 129.45 74.25 L129.5 74.4 129.55 74.6 129.85 74.55 130.2 73.55 130.15 73.5 130.25 72.9 130.35 71.1 130.2 68.9 Q130.1 67.5 130.0 67.85 L129.8 67.9 Q129.65 67.5 129.65 67.95" fill="#ffffff" fill-rule="evenodd" stroke="none"/>
    <path d="M114.05 75.1 Q113.7 80.4 114.55 84.15 115.25 87.2 116.55 86.85 L117.3 86.05 Q117.25 85.7 117.35 85.8 117.3 85.5 117.45 85.55 L117.6 82.45 Q117.55 82.25 117.65 82.3 117.5 82.0 117.65 81.95 L117.9 73.65 Q117.85 73.15 118.0 73.35 L117.85 72.95 Q117.65 72.8 117.75 73.3 L117.1 74.5 Q116.6 74.25 116.55 73.65 L116.4 72.8 Q116.35 72.15 116.55 72.2 116.7 70.9 117.15 71.3 117.5 70.85 117.75 72.65 L117.9 72.65 117.9 72.4 Q117.85 72.1 117.95 72.2 L118.1 69.0 Q118.05 68.6 118.2 68.8 L118.55 60.8 118.4 60.1 Q117.9 59.05 117.7 59.45 116.35 58.55 115.5 62.15 114.25 65.3 114.15 70.95 L114.15 71.05 114.05 73.2 114.05 75.1 M118.65 60.65 L118.55 63.95 Q118.45 63.75 118.55 64.05 L117.65 85.65 Q117.5 85.6 117.65 85.9 L117.7 86.2 120.55 84.8 120.55 84.7 Q120.5 84.05 120.6 84.1 L120.7 81.4 120.65 81.3 120.8 80.9 120.9 75.45 120.85 75.1 Q120.75 74.6 120.8 75.0 L119.8 74.95 120.35 61.35 Q120.25 60.75 120.35 61.05 120.2 60.35 120.25 60.75 120.15 60.2 120.15 60.6 L118.75 60.1 Q118.65 59.75 118.7 60.2 118.55 59.85 118.65 60.65 M125.55 64.3 Q125.05 65.65 125.0 68.65 L125.05 69.0 125.05 70.1 Q124.85 70.4 124.95 71.5 124.8 73.15 125.0 74.35 L124.75 78.35 Q124.6 78.15 124.7 78.65 L124.7 78.9 124.8 79.05 124.65 81.2 Q124.55 81.15 124.6 81.6 L124.65 81.75 Q125.0 82.5 125.65 82.4 L126.4 80.7 126.95 76.0 127.0 75.15 Q126.95 74.55 127.05 74.3 127.0 73.55 127.1 73.6 L127.0 70.5 126.95 70.25 127.15 66.9 127.15 66.6 127.15 66.45 127.1 66.4 127.3 64.5 127.2 64.0 Q126.9 62.65 126.4 62.75 125.85 62.15 125.6 64.2 L125.55 64.3 M122.05 64.0 Q121.35 66.35 121.2 70.7 121.05 70.5 121.2 71.15 L121.2 72.8 Q121.1 72.9 121.15 74.25 120.8 78.3 121.45 81.35 121.8 83.95 122.75 83.8 123.35 83.35 124.05 80.5 L124.75 74.0 Q124.65 73.2 124.8 73.35 124.75 72.1 124.85 71.55 124.75 71.25 124.9 71.35 L124.8 71.15 124.6 64.8 Q124.05 61.45 123.45 61.65 122.65 61.0 122.05 64.0 M130.9 71.25 L130.75 66.5 Q130.5 64.1 130.15 64.3 L129.25 63.9 Q129.15 63.75 129.1 63.95 129.0 63.55 129.0 63.85 L127.6 63.35 Q127.35 62.95 127.45 63.5 127.3 63.35 127.45 63.65 L126.9 81.4 126.95 81.5 128.5 80.8 128.6 80.65 128.55 80.45 128.7 78.35 Q128.65 78.15 128.75 78.25 L128.85 74.1 128.8 73.95 128.8 73.4 Q128.75 73.0 128.85 73.2 L128.95 69.35 128.95 69.1 128.9 69.0 128.95 68.4 Q128.85 67.9 128.95 68.15 L129.1 64.45 128.7 80.5 128.75 80.75 128.8 80.7 129.75 80.2 130.4 77.95 130.9 73.25 130.85 72.6 130.85 71.55 130.9 71.3 130.9 73.25 130.45 89.3 111.8 108.25 115.05 34.85 131.4 52.8 130.9 71.25 M129.9 70.75 L130.15 71.5 130.15 72.1 130.2 72.4 130.1 72.9 129.85 73.7 129.65 73.75 129.7 70.75 129.9 70.75 M123.45 71.9 L123.5 72.5 123.55 72.75 123.45 73.1 Q123.1 73.65 123.1 73.9 122.75 73.6 122.7 73.2 122.55 72.65 122.7 72.75 L122.65 72.5 Q122.6 72.05 122.75 72.1 122.8 71.0 123.15 71.3 123.3 71.0 123.45 71.9" fill="#990000" fill-rule="evenodd" stroke="none"/>
  </g>
</svg>
