<?xml version="1.0" encoding="UTF-8" standalone="no"?>
<svg xmlns:ffdec="https://www.free-decompiler.com/flash" xmlns:xlink="http://www.w3.org/1999/xlink" ffdec:objectType="shape" height="13.0px" width="517.95px" xmlns="http://www.w3.org/2000/svg">
  <g transform="matrix(1.0, 0.0, 0.0, 1.0, 0.0, 0.0)">
    <path d="M516.0 1.05 L504.05 13.0 470.0 13.0 483.0 0.0 512.95 0.0 Q514.7 0.0 516.0 1.05 M444.0 13.0 L416.05 13.0 429.05 0.0 457.0 0.0 444.0 13.0 M390.05 13.0 L308.55 13.0 321.5 0.05 295.5 0.05 282.55 13.0 256.05 13.0 269.05 0.0 403.05 0.0 390.05 13.0 M230.05 13.0 L202.55 13.0 215.5 0.05 221.0 0.05 221.0 0.0 243.05 0.0 230.05 13.0 M176.55 13.0 L95.05 13.0 108.0 0.05 108.05 0.0 133.55 0.0 133.5 0.05 121.05 12.5 147.05 12.5 159.5 0.05 159.55 0.0 189.55 0.0 176.55 13.0 M69.05 13.0 L42.55 13.0 55.55 0.0 81.0 0.0 81.0 0.05 82.0 0.05 69.05 13.0 M16.55 13.0 L5.0 13.0 Q2.95 13.0 1.45 11.5 0.0 10.05 0.0 8.0 L0.0 5.0 Q0.0 2.95 1.45 1.45 2.95 0.0 5.0 0.0 L29.55 0.0 16.55 13.0 M334.55 12.5 L360.55 12.5 373.0 0.05 347.0 0.05 334.55 12.5" fill="#66cc33" fill-rule="evenodd" stroke="none"/>
    <path d="M516.0 1.05 L516.45 1.45 Q517.95 2.95 517.95 5.0 L517.95 8.0 Q517.95 10.05 516.45 11.5 515.0 13.0 512.95 13.0 L504.05 13.0 516.0 1.05 M470.0 13.0 L444.0 13.0 457.0 0.0 483.0 0.0 470.0 13.0 M416.05 13.0 L390.05 13.0 403.05 0.0 429.05 0.0 416.05 13.0 M308.55 13.0 L282.55 13.0 295.5 0.05 321.5 0.05 308.55 13.0 M256.05 13.0 L230.05 13.0 243.05 0.0 269.05 0.0 256.05 13.0 M202.55 13.0 L176.55 13.0 189.55 0.0 215.55 0.0 215.5 0.05 202.55 13.0 M95.05 13.0 L69.05 13.0 82.0 0.05 108.0 0.05 95.05 13.0 M42.55 13.0 L16.55 13.0 29.55 0.0 55.55 0.0 42.55 13.0 M133.5 0.05 L159.5 0.05 147.05 12.5 121.05 12.5 133.5 0.05 M334.55 12.5 L347.0 0.05 373.0 0.05 360.55 12.5 334.55 12.5" fill="#81d658" fill-rule="evenodd" stroke="none"/>
  </g>
</svg>
