<?xml version="1.0" encoding="UTF-8" standalone="no"?>
<svg xmlns:ffdec="https://www.free-decompiler.com/flash" xmlns:xlink="http://www.w3.org/1999/xlink" ffdec:objectType="shape" height="93.7px" width="9.05px" xmlns="http://www.w3.org/2000/svg">
  <g transform="matrix(1.0, 0.0, 0.0, 1.0, -115.1, -31.2)">
    <path d="M123.3 90.1 L123.3 90.3 123.3 90.5 123.3 90.75 116.2 115.55 116.2 115.45 116.1 115.15 116.15 114.95 119.6 36.2 Q119.55 35.55 119.6 35.95 119.55 35.45 119.65 35.95 L124.0 55.9 124.0 57.3 124.0 56.45 119.65 37.15 116.35 113.25 123.3 90.1 M123.65 72.7 L123.6 73.9 123.6 72.9 123.65 72.7" fill="#6c0000" fill-rule="evenodd" stroke="none"/>
    <path d="M124.0 57.3 L124.0 55.9 119.65 35.95 Q119.55 35.45 119.6 35.95 119.55 35.55 119.6 36.2 L116.15 114.95 116.1 115.15 116.2 115.45 116.2 115.55 123.3 90.75 123.3 90.5 123.3 90.3 123.3 90.1 123.6 74.65 123.6 73.9 123.65 72.7 123.65 72.65 123.7 71.3 123.7 70.65 124.0 57.3 M123.3 92.2 L115.5 122.3 119.5 32.65 124.05 55.2 123.3 92.2" fill="#f5cfcd" fill-rule="evenodd" stroke="none"/>
    <path d="M119.5 31.2 L124.1 54.75 Q124.05 54.4 124.15 54.65 L123.35 92.3 123.35 92.65 Q123.25 92.35 123.3 92.8 L115.25 124.9 Q115.2 124.7 115.2 124.85 L115.2 124.75 115.15 124.6 115.15 124.45 119.45 31.6 119.4 31.2 119.45 31.45 119.45 31.2 119.5 31.2 M123.3 92.2 L124.05 55.2 119.5 32.65 115.5 122.3 123.3 92.2" fill="#624544" fill-rule="evenodd" stroke="none"/>
    <path d="M123.7 70.65 L123.7 71.3 123.65 72.65 123.65 72.7 123.6 72.9 123.6 73.9 123.6 74.65 123.4 78.9 123.2 80.95 122.9 81.55 122.95 78.9 122.85 81.55 122.4 82.2 122.35 82.05 122.45 77.4 122.2 81.3 121.95 82.95 Q121.75 82.95 121.65 82.2 L121.65 82.15 Q121.6 81.5 121.7 81.75 L121.75 79.55 121.75 79.45 121.7 79.1 121.85 76.85 121.8 78.65 Q121.85 79.15 122.05 79.45 L122.3 78.2 122.45 75.0 122.5 74.45 122.5 72.15 122.45 71.6 122.4 70.7 122.3 69.15 122.3 68.65 122.3 68.6 Q122.3 67.6 122.45 67.9 L122.55 69.25 122.65 65.9 122.5 65.05 Q122.35 64.55 122.2 66.25 122.05 67.2 122.05 69.6 L122.0 69.95 122.0 70.0 122.0 70.85 122.0 69.95 122.0 69.5 122.2 65.5 122.25 65.5 Q122.35 63.55 122.5 64.25 L122.75 65.55 122.65 67.75 122.65 67.8 122.5 71.25 122.55 71.6 122.5 74.45 122.5 75.05 122.5 75.95 122.5 76.6 122.75 65.25 Q122.7 64.9 122.8 65.15 122.75 64.5 122.85 65.0 L123.2 65.7 123.25 65.7 123.3 65.7 123.55 66.2 123.65 68.3 123.7 70.65 M120.05 61.25 Q119.9 60.35 119.9 60.75 119.5 59.85 119.2 62.9 118.7 65.35 118.55 70.55 L118.6 70.7 Q118.35 75.2 118.55 79.2 118.6 82.0 119.1 81.95 119.15 81.5 119.35 81.6 L119.55 75.0 119.35 75.8 Q119.1 75.3 119.1 74.35 L119.1 73.7 Q119.05 71.9 119.15 70.7 L119.15 70.65 119.35 67.35 Q119.45 65.75 119.65 66.4 L119.8 67.3 120.05 61.25 M119.95 59.7 L120.15 60.45 120.2 61.1 120.2 60.9 Q120.15 60.15 120.25 60.6 L120.25 60.45 120.65 61.25 120.7 61.35 120.7 61.95 120.3 75.05 120.6 75.2 120.6 75.65 120.45 81.15 120.4 81.6 120.45 81.75 120.3 84.55 120.25 85.1 120.3 85.3 119.3 86.7 119.3 86.3 119.3 86.1 119.95 67.8 119.9 68.75 Q119.85 68.4 119.85 68.9 L119.7 72.1 119.75 72.55 119.65 72.5 119.5 71.05 Q119.3 70.5 119.25 71.85 119.15 71.8 119.2 72.45 L119.2 73.45 Q119.2 73.95 119.35 74.3 L119.65 73.1 Q119.6 72.6 119.7 72.8 L119.7 73.2 Q119.65 72.9 119.7 73.55 L119.4 82.1 Q119.3 82.1 119.35 82.45 L119.35 82.6 119.25 85.95 Q119.1 85.7 119.2 86.2 119.1 86.0 119.15 86.5 118.95 86.8 118.9 87.3 118.35 87.65 118.25 84.35 118.05 80.1 118.3 74.6 L118.4 72.6 118.5 70.45 118.45 70.3 Q118.65 64.7 119.2 61.9 119.5 58.5 119.95 59.7 M121.9 66.4 L121.65 63.7 Q121.4 63.05 121.2 65.45 L120.9 71.3 120.9 71.35 Q120.8 71.25 120.85 71.55 L120.8 77.95 Q120.85 80.0 121.15 80.4 L121.55 77.45 121.85 72.2 121.85 71.8 121.9 68.75 121.9 71.9 121.9 72.1 121.9 72.2 121.85 73.95 121.85 74.6 121.5 80.95 121.05 84.25 Q120.7 84.3 120.65 81.7 120.5 78.5 120.75 74.5 L120.75 73.05 120.8 71.45 120.8 71.05 Q120.9 66.8 121.2 64.75 121.4 62.0 121.65 62.8 L121.9 65.9 121.9 66.4 M121.15 71.6 L121.15 71.5 Q121.2 69.45 121.35 68.9 121.35 67.7 121.5 68.1 L121.65 69.2 121.6 71.8 121.5 74.05 Q121.45 73.65 121.45 74.25 L121.45 74.4 121.3 75.4 121.15 74.4 121.15 74.3 121.1 73.65 Q121.05 72.35 121.15 71.6 M121.4 71.75 Q121.3 71.4 121.25 72.5 L121.25 72.85 121.25 73.15 121.25 73.55 121.3 74.3 121.45 73.6 121.45 73.25 Q121.4 72.75 121.5 72.9 L121.4 71.75 M123.2 66.4 L122.8 65.85 122.5 78.95 122.9 78.65 122.95 75.65 122.75 75.8 122.75 75.7 122.75 75.45 122.75 73.9 122.8 73.7 123.0 73.8 123.1 70.95 122.85 70.75 122.9 69.15 122.9 69.0 Q122.85 68.6 122.95 68.85 L123.1 69.1 123.2 66.4 M120.6 62.25 L120.25 61.5 119.55 81.55 120.35 80.65 120.5 76.45 120.15 76.4 120.15 76.25 120.15 76.05 Q120.1 75.5 120.15 75.8 L120.6 62.25 M123.35 69.5 L123.45 69.4 123.5 70.4 123.55 72.45 123.45 74.15 Q123.35 74.05 123.4 74.65 L123.4 74.7 123.3 75.65 123.2 75.55 123.25 75.45 123.2 75.35 123.35 69.7 Q123.3 69.2 123.35 69.5 M123.5 67.05 L123.25 66.55 123.0 78.6 123.25 78.35 123.45 76.45 123.6 72.8 123.6 72.5 123.6 68.75 123.5 67.05 M122.0 70.85 Q121.95 71.7 122.05 72.4 L122.15 73.55 122.25 74.95 122.1 76.35 122.0 75.9 121.9 75.45 121.95 75.0 Q121.8 73.7 121.95 72.2 121.9 71.1 122.0 70.85 M123.35 72.05 L123.3 72.0 123.25 74.8 123.3 74.85 123.4 74.05 123.4 73.6 123.4 73.35 123.45 72.8 123.35 72.05 M123.05 72.9 L123.0 74.25 123.05 74.45 123.05 72.9" fill="#640000" fill-rule="evenodd" stroke="none"/>
    <path d="M123.3 90.1 L116.35 113.25 119.65 37.15 124.0 56.45 124.0 57.3 123.7 70.65 123.65 68.3 123.55 66.2 123.3 65.7 123.25 65.7 123.2 65.7 122.85 65.0 Q122.75 64.5 122.8 65.15 122.7 64.9 122.75 65.25 L122.5 76.6 122.5 75.95 122.5 75.05 122.5 74.45 122.55 71.6 122.5 71.25 122.65 67.8 122.65 67.75 122.75 65.55 122.5 64.25 Q122.35 63.55 122.25 65.5 L122.2 65.5 122.0 69.5 122.0 69.95 122.0 70.85 Q121.9 71.1 121.95 72.2 121.8 73.7 121.95 75.0 L121.9 75.45 121.85 76.85 121.7 79.1 121.75 79.45 121.75 79.55 121.7 81.75 Q121.6 81.5 121.65 82.15 L121.65 82.2 Q121.75 82.95 121.95 82.95 L122.2 81.3 122.45 77.4 122.35 82.05 122.4 82.2 122.85 81.55 122.95 78.9 122.9 81.55 123.2 80.95 123.4 78.9 123.6 74.65 123.3 90.1 M119.95 59.7 Q119.5 58.5 119.2 61.9 118.65 64.7 118.45 70.3 L118.5 70.45 118.4 72.6 118.3 74.6 Q118.05 80.1 118.25 84.35 118.35 87.65 118.9 87.3 118.95 86.8 119.15 86.5 119.1 86.0 119.2 86.2 119.1 85.7 119.25 85.95 L119.35 82.6 119.35 82.45 Q119.3 82.1 119.4 82.1 L119.7 73.55 Q119.65 72.9 119.7 73.2 L119.7 72.8 Q119.6 72.6 119.65 73.1 L119.35 74.3 Q119.2 73.95 119.2 73.45 L119.2 72.45 Q119.15 71.8 119.25 71.85 119.3 70.5 119.5 71.05 L119.65 72.5 119.75 72.55 119.7 72.1 119.85 68.9 Q119.85 68.4 119.9 68.75 L119.95 67.8 119.3 86.1 119.3 86.3 119.3 86.7 120.3 85.3 120.25 85.1 120.3 84.55 120.45 81.75 120.4 81.6 120.45 81.15 120.6 75.65 120.6 75.2 120.3 75.05 120.7 61.95 120.7 61.35 120.65 61.25 120.25 60.45 120.25 60.6 Q120.15 60.15 120.2 60.9 L120.2 61.1 120.15 60.45 119.95 59.7 M121.9 66.4 L121.9 65.9 121.65 62.8 Q121.4 62.0 121.2 64.75 120.9 66.8 120.8 71.05 L120.8 71.45 120.75 73.05 120.75 74.5 Q120.5 78.5 120.65 81.7 120.7 84.3 121.05 84.25 L121.5 80.95 121.85 74.6 121.85 73.95 121.9 72.2 121.9 72.1 121.9 71.9 121.9 68.75 121.9 66.4 M121.4 71.75 L121.5 72.9 Q121.4 72.75 121.45 73.25 L121.45 73.6 121.3 74.3 121.25 73.55 121.25 73.15 121.25 72.85 121.25 72.5 Q121.3 71.4 121.4 71.75 M123.35 72.05 L123.45 72.8 123.4 73.35 123.4 73.6 123.4 74.05 123.3 74.85 123.25 74.8 123.3 72.0 123.35 72.05 M123.05 72.9 L123.05 74.45 123.0 74.25 123.05 72.9" fill="#990000" fill-rule="evenodd" stroke="none"/>
    <path d="M120.05 61.25 L119.8 67.3 119.65 66.4 Q119.45 65.75 119.35 67.35 L119.15 70.65 119.15 70.7 Q119.05 71.9 119.1 73.7 L119.1 74.35 Q119.1 75.3 119.35 75.8 L119.55 75.0 119.35 81.6 Q119.15 81.5 119.1 81.95 118.6 82.0 118.55 79.2 118.35 75.2 118.6 70.7 L118.55 70.55 Q118.7 65.35 119.2 62.9 119.5 59.85 119.9 60.75 119.9 60.35 120.05 61.25 M121.9 68.75 L121.85 71.8 121.85 72.2 121.55 77.45 121.15 80.4 Q120.85 80.0 120.8 77.95 L120.85 71.55 Q120.8 71.25 120.9 71.35 L120.9 71.3 121.2 65.45 Q121.4 63.05 121.65 63.7 L121.9 66.4 121.9 68.75 M121.15 71.6 Q121.05 72.35 121.1 73.65 L121.15 74.3 121.15 74.4 121.3 75.4 121.45 74.4 121.45 74.25 Q121.45 73.65 121.5 74.05 L121.6 71.8 121.65 69.2 121.5 68.1 Q121.35 67.7 121.35 68.9 121.2 69.45 121.15 71.5 L121.15 71.6 M120.6 62.25 L120.15 75.8 Q120.1 75.5 120.15 76.05 L120.15 76.25 120.15 76.4 120.5 76.45 120.35 80.65 119.55 81.55 120.25 61.5 120.6 62.25 M123.2 66.4 L123.1 69.1 122.95 68.85 Q122.85 68.6 122.9 69.0 L122.9 69.15 122.85 70.75 123.1 70.95 123.0 73.8 122.8 73.7 122.75 73.9 122.75 75.45 122.75 75.7 122.75 75.8 122.95 75.65 122.9 78.65 122.5 78.95 122.8 65.85 123.2 66.4 M122.0 69.95 L122.05 69.6 Q122.05 67.2 122.2 66.25 122.35 64.55 122.5 65.05 L122.65 65.9 122.55 69.25 122.45 67.9 Q122.3 67.6 122.3 68.6 L122.3 68.65 122.3 69.15 122.4 70.7 122.45 71.6 122.5 72.15 122.5 74.45 122.45 75.0 122.3 78.2 122.05 79.45 Q121.85 79.15 121.8 78.65 L121.85 76.85 121.9 75.45 122.0 75.9 122.1 76.35 122.25 74.95 122.15 73.55 122.05 72.4 Q121.95 71.7 122.0 70.85 L122.0 70.0 122.0 69.95 M123.5 67.05 L123.6 68.75 123.6 72.5 123.6 72.8 123.45 76.45 123.25 78.35 123.0 78.6 123.25 66.55 123.5 67.05 M123.35 69.5 Q123.3 69.2 123.35 69.7 L123.2 75.35 123.25 75.45 123.2 75.55 123.3 75.65 123.4 74.7 123.4 74.65 Q123.35 74.05 123.45 74.15 L123.55 72.45 123.5 70.4 123.45 69.4 123.35 69.5" fill="#ffffff" fill-rule="evenodd" stroke="none"/>
  </g>
</svg>
