<?xml version="1.0" encoding="UTF-8" standalone="no"?>
<svg xmlns:ffdec="https://www.free-decompiler.com/flash" xmlns:xlink="http://www.w3.org/1999/xlink" ffdec:objectType="shape" height="93.3px" width="12.85px" xmlns="http://www.w3.org/2000/svg">
  <g transform="matrix(1.0, 0.0, 0.0, 1.0, -115.75, -29.35)">
    <path d="M125.65 33.95 Q125.55 33.5 125.7 33.85 L125.7 34.15 125.8 34.7 127.6 113.65 127.65 114.35 Q127.45 114.0 127.4 114.3 L116.0 88.1 115.95 87.7 115.95 87.45 116.15 52.25 116.15 52.05 116.15 51.8 125.65 33.95 M119.25 67.0 Q119.15 67.8 119.2 69.2 L119.2 70.5 119.0 74.2 118.6 76.05 118.3 76.05 118.25 78.55 118.25 78.9 118.2 79.0 118.2 80.6 118.2 80.85 118.2 80.95 117.65 80.45 117.65 63.05 Q117.6 62.7 117.7 62.9 L117.7 61.25 Q117.6 60.7 117.7 61.0 L118.55 60.2 Q118.75 59.8 119.1 62.1 L119.25 67.0 118.95 62.6 118.65 61.05 117.75 61.7 117.7 77.8 118.2 78.1 118.2 73.3 Q118.15 72.85 118.2 73.1 L118.6 73.25 119.0 71.5 119.1 68.8 Q119.1 67.65 119.25 67.0 M121.15 58.5 L121.15 58.55 121.15 58.95 121.15 66.3 121.2 66.3 121.15 66.35 121.25 66.5 Q121.15 66.5 121.2 66.75 L121.3 73.05 121.25 73.3 121.25 73.4 121.15 73.55 121.25 74.35 121.3 74.45 121.3 74.5 121.3 74.95 121.4 81.6 Q121.25 81.5 121.3 82.0 L121.3 82.05 121.25 81.95 121.3 84.05 121.3 84.4 Q121.15 84.25 121.25 84.5 L119.55 82.55 119.45 82.4 Q119.4 82.0 119.5 82.1 L119.45 62.25 119.45 61.9 Q119.35 61.55 119.5 61.85 L119.45 60.1 119.45 59.75 Q119.45 59.3 119.5 59.65 L121.15 58.5 M121.1 59.4 L119.6 60.4 119.65 79.4 121.25 80.8 121.2 75.4 120.3 74.95 120.2 74.7 120.25 72.7 120.2 72.2 120.25 72.1 121.2 72.45 121.15 67.35 120.3 67.45 120.25 67.3 120.2 66.9 120.2 65.15 120.2 64.7 Q120.15 64.25 120.25 64.7 L121.1 64.35 121.1 59.4 M121.45 60.95 L121.45 60.7 121.5 60.7 121.45 58.65 Q121.35 57.9 121.55 58.15 L121.5 58.05 122.5 57.45 122.45 57.6 123.65 66.75 123.6 60.05 Q123.4 59.6 123.6 59.75 123.45 59.25 123.6 59.5 L123.6 56.7 Q123.55 56.1 123.75 56.45 L124.95 55.6 Q124.85 55.2 125.05 55.7 L125.1 56.0 Q124.95 55.6 125.05 56.25 L125.65 85.55 Q125.55 85.6 125.6 86.15 L125.55 86.15 125.5 86.05 125.55 89.05 Q125.4 88.8 125.55 89.3 125.45 89.2 125.45 89.45 L124.05 87.95 122.75 76.2 122.85 83.05 122.85 83.2 Q122.75 83.2 122.8 83.45 L122.75 83.45 122.8 85.85 122.8 86.3 Q122.65 85.95 122.7 86.2 L121.65 85.1 121.6 84.95 121.65 84.5 121.4 61.15 Q121.3 60.75 121.45 60.95 M116.2 68.45 L116.25 69.3 116.35 74.35 Q116.45 76.45 116.8 77.05 L117.25 75.0 117.45 71.3 Q117.4 70.1 117.5 69.45 L117.3 63.9 Q117.0 61.65 116.8 62.05 116.55 62.0 116.4 64.35 L116.3 67.1 116.2 68.0 Q116.15 67.1 116.25 66.85 116.25 65.0 116.4 63.85 116.5 61.35 116.85 61.4 117.05 60.85 117.35 63.4 L117.5 69.55 117.5 71.55 117.4 73.2 117.2 77.4 116.75 79.5 Q116.4 79.0 116.3 76.65 116.05 73.9 116.2 71.15 L116.2 68.45 M118.2 65.7 L118.2 65.35 Q118.1 65.1 118.25 65.25 L118.45 65.2 118.6 65.85 118.6 67.25 118.6 67.3 118.6 68.6 118.55 68.55 118.55 69.1 118.55 69.15 118.45 69.3 118.25 69.15 118.2 69.15 118.2 65.7 M118.45 67.9 L118.25 68.05 118.25 68.4 118.45 68.4 118.5 68.25 118.45 67.9 M116.65 67.15 Q116.65 66.0 116.85 66.25 L117.0 67.15 117.05 69.5 116.95 71.7 117.0 71.8 116.85 72.65 116.6 71.6 116.6 70.05 116.6 70.0 116.6 69.3 Q116.55 67.7 116.65 67.15 M116.2 52.8 L116.0 87.1 127.15 111.05 125.45 36.2 116.2 52.8 M116.9 69.45 L116.8 68.65 Q116.6 68.25 116.65 69.2 116.55 69.1 116.6 69.4 L116.6 69.95 Q116.5 70.3 116.7 71.15 116.65 71.6 116.85 71.85 L116.95 71.25 116.95 70.8 116.9 69.45 M122.45 58.55 L121.65 59.05 121.8 81.3 122.7 82.15 122.55 70.5 Q122.5 69.95 122.6 70.3 122.5 69.8 122.65 70.1 L122.65 70.0 124.15 83.45 125.45 84.55 124.9 56.8 123.8 57.55 124.0 69.5 Q123.9 69.3 123.9 69.75 L123.95 69.95 123.85 69.9 122.45 58.55" fill="#374a37" fill-rule="evenodd" stroke="none"/>
    <path d="M116.05 51.4 L126.0 31.5 128.1 118.95 115.85 89.05 115.85 84.8 116.05 51.4 M125.65 33.95 L116.15 51.8 116.15 52.05 116.15 52.25 115.95 87.45 115.95 87.7 116.0 88.1 127.4 114.3 Q127.45 114.0 127.65 114.35 L127.6 113.65 125.8 34.7 125.7 34.15 125.7 33.85 Q125.55 33.5 125.65 33.95" fill="#a6d3a0" fill-rule="evenodd" stroke="none"/>
    <path d="M116.05 51.4 L116.05 50.95 116.0 50.55 Q115.95 50.25 116.05 50.5 L126.1 29.65 126.1 29.5 Q126.0 29.25 126.15 29.45 L126.15 29.35 126.2 29.35 126.2 29.45 126.25 29.45 126.3 30.1 128.6 121.8 128.6 122.35 Q128.4 122.25 128.4 122.65 L115.8 90.05 115.8 89.9 115.75 89.8 115.8 89.7 115.75 89.5 115.85 84.8 115.85 89.05 128.1 118.95 126.0 31.5 116.05 51.4" fill="#608060" fill-rule="evenodd" stroke="none"/>
    <path d="M121.15 58.5 L119.5 59.65 Q119.45 59.3 119.45 59.75 L119.45 60.1 119.5 61.85 Q119.35 61.55 119.45 61.9 L119.45 62.25 119.5 82.1 Q119.4 82.0 119.45 82.4 L119.55 82.55 121.25 84.5 Q121.15 84.25 121.3 84.4 L121.3 84.05 121.25 81.95 121.3 82.05 121.3 82.0 Q121.25 81.5 121.4 81.6 L121.3 74.95 121.3 74.5 121.3 74.45 121.25 74.35 121.15 73.55 121.25 73.4 121.25 73.3 121.3 73.05 121.2 66.75 Q121.15 66.5 121.25 66.5 L121.15 66.35 121.2 66.3 121.15 66.3 121.15 58.95 121.15 58.55 121.15 58.5 M119.25 67.0 L119.1 62.1 Q118.75 59.8 118.55 60.2 L117.7 61.0 Q117.6 60.7 117.7 61.25 L117.7 62.9 Q117.6 62.7 117.65 63.05 L117.65 80.45 118.2 80.95 118.2 80.85 118.2 80.6 118.2 79.0 118.25 78.9 118.25 78.55 118.3 76.05 118.6 76.05 119.0 74.2 119.2 70.5 119.2 69.2 Q119.15 67.8 119.25 67.0 M121.45 60.95 Q121.3 60.75 121.4 61.15 L121.65 84.5 121.6 84.95 121.65 85.1 122.7 86.2 Q122.65 85.95 122.8 86.3 L122.8 85.85 122.75 83.45 122.8 83.45 Q122.75 83.2 122.85 83.2 L122.85 83.05 122.75 76.2 124.05 87.95 125.45 89.45 Q125.45 89.2 125.55 89.3 125.4 88.8 125.55 89.05 L125.5 86.05 125.55 86.15 125.6 86.15 Q125.55 85.6 125.65 85.55 L125.05 56.25 Q124.95 55.6 125.1 56.0 L125.05 55.7 Q124.85 55.2 124.95 55.6 L123.75 56.45 Q123.55 56.1 123.6 56.7 L123.6 59.5 Q123.45 59.25 123.6 59.75 123.4 59.6 123.6 60.05 L123.65 66.75 122.45 57.6 122.5 57.45 121.5 58.05 121.55 58.15 Q121.35 57.9 121.45 58.65 L121.5 60.7 121.45 60.7 121.45 60.95 M116.2 68.45 L116.2 71.15 Q116.05 73.9 116.3 76.65 116.4 79.0 116.75 79.5 L117.2 77.4 117.4 73.2 117.5 71.55 117.5 69.55 117.35 63.4 Q117.05 60.85 116.85 61.4 116.5 61.35 116.4 63.85 116.25 65.0 116.25 66.85 116.15 67.1 116.2 68.0 L116.25 68.2 116.2 68.45 M118.45 67.9 L118.5 68.25 118.45 68.4 118.25 68.4 118.25 68.05 118.45 67.9 M116.9 69.45 L116.95 70.8 116.95 71.25 116.85 71.85 Q116.65 71.6 116.7 71.15 116.5 70.3 116.6 69.95 L116.6 69.4 Q116.55 69.1 116.65 69.2 116.6 68.25 116.8 68.65 L116.9 69.45 M116.2 52.8 L125.45 36.2 127.15 111.05 116.0 87.1 116.2 52.8" fill="#3e7737" fill-rule="evenodd" stroke="none"/>
    <path d="M119.25 67.0 Q119.1 67.65 119.1 68.8 L119.0 71.5 118.6 73.25 118.2 73.1 Q118.15 72.85 118.2 73.3 L118.2 78.1 117.7 77.8 117.75 61.7 118.65 61.05 118.95 62.6 119.25 67.0 M121.1 59.4 L121.1 64.35 120.25 64.7 Q120.15 64.25 120.2 64.7 L120.2 65.15 120.2 66.9 120.25 67.3 120.3 67.45 121.15 67.35 121.2 72.45 120.25 72.1 120.2 72.2 120.25 72.7 120.2 74.7 120.3 74.95 121.2 75.4 121.25 80.8 119.65 79.4 119.6 60.4 121.1 59.4 M116.2 68.0 L116.3 67.1 116.4 64.35 Q116.55 62.0 116.8 62.05 117.0 61.65 117.3 63.9 L117.5 69.45 Q117.4 70.1 117.45 71.3 L117.25 75.0 116.8 77.05 Q116.45 76.45 116.35 74.35 L116.25 69.3 116.2 68.45 116.25 68.2 116.2 68.0 M118.2 65.7 L118.2 69.15 118.25 69.15 118.45 69.3 118.55 69.15 118.55 69.1 118.55 68.55 118.6 68.6 118.6 67.3 118.6 67.25 118.6 65.85 118.45 65.2 118.25 65.25 Q118.1 65.1 118.2 65.35 L118.2 65.7 M116.65 67.15 Q116.55 67.7 116.6 69.3 L116.6 70.0 116.6 70.05 116.6 71.6 116.85 72.65 117.0 71.8 116.95 71.7 117.05 69.5 117.0 67.15 116.85 66.25 Q116.65 66.0 116.65 67.15 M122.45 58.55 L123.85 69.9 123.95 69.95 123.9 69.75 Q123.9 69.3 124.0 69.5 L123.8 57.55 124.9 56.8 125.45 84.55 124.15 83.45 122.65 70.0 122.65 70.1 Q122.5 69.8 122.6 70.3 122.5 69.95 122.55 70.5 L122.7 82.15 121.8 81.3 121.65 59.05 122.45 58.55" fill="#ffffff" fill-rule="evenodd" stroke="none"/>
  </g>
</svg>
