<?xml version="1.0" encoding="UTF-8" standalone="no"?>
<svg xmlns:ffdec="https://www.free-decompiler.com/flash" xmlns:xlink="http://www.w3.org/1999/xlink" ffdec:objectType="shape" height="84.45px" width="40.35px" xmlns="http://www.w3.org/2000/svg">
  <g transform="matrix(1.0, 0.0, 0.0, 1.0, -104.3, -27.45)">
    <path d="M139.35 27.65 L139.35 27.55 Q139.3 27.4 139.45 27.6 139.35 27.4 139.5 27.5 L139.6 27.6 139.75 27.75 139.9 28.2 144.65 111.0 Q144.5 111.1 144.45 111.55 144.2 111.6 144.2 111.9 L104.4 88.7 104.4 88.55 104.35 88.35 104.3 88.05 105.25 44.05 Q105.2 43.6 105.3 43.6 105.15 43.25 105.35 43.55 L139.35 27.65 M105.45 44.5 L104.55 87.55 143.5 108.95 139.05 29.45 105.45 44.5" fill="#608060" fill-rule="evenodd" stroke="none"/>
    <path d="M138.05 31.5 L138.3 31.85 Q138.15 32.0 138.45 32.4 L142.2 104.75 Q142.0 104.7 142.15 105.35 L141.75 105.4 105.15 86.4 104.95 85.95 104.95 85.75 105.8 45.6 Q105.7 45.35 105.9 45.35 105.7 45.1 105.9 45.15 L137.9 31.5 Q137.85 31.15 138.05 31.5 M108.7 56.25 Q109.6 55.8 110.5 58.6 111.2 61.05 111.25 65.4 L111.15 67.6 110.95 69.4 110.1 74.15 Q109.15 76.45 108.2 76.5 107.1 76.0 106.5 73.35 105.75 70.45 105.9 67.1 105.8 65.15 106.05 63.9 106.05 62.85 106.2 62.35 106.35 60.35 106.9 58.95 107.55 56.2 108.7 56.25 M107.8 62.75 Q108.05 61.4 108.6 61.75 108.85 61.45 109.25 62.7 L109.55 65.4 109.2 67.85 109.25 67.9 108.5 68.85 Q107.95 68.5 107.75 67.7 107.45 66.7 107.55 65.95 L107.55 65.9 Q107.35 65.35 107.5 65.2 107.45 63.4 107.85 62.75 L107.8 62.75 M110.35 59.15 Q109.5 56.55 108.6 56.9 107.55 56.95 106.95 59.5 L107.05 59.55 Q106.55 60.75 106.4 62.6 106.15 63.65 106.2 65.15 106.1 68.3 106.8 70.85 107.3 73.3 108.4 73.8 109.3 73.7 110.1 71.4 L110.9 67.35 110.9 67.3 110.95 65.25 Q110.9 61.3 110.35 59.15 M118.4 57.2 L118.3 55.3 Q118.25 54.9 118.45 55.0 118.4 54.5 118.55 54.85 L124.0 54.05 Q123.8 53.65 124.1 54.15 123.95 53.8 124.2 54.15 124.1 54.1 124.15 54.5 L124.35 60.65 124.35 60.95 Q124.15 60.85 124.15 61.2 L124.0 61.1 124.1 62.0 124.2 62.0 124.25 62.1 124.35 62.25 124.35 62.5 124.5 68.95 124.45 69.2 124.3 69.35 124.2 69.45 124.2 70.3 124.3 70.3 124.45 70.35 124.5 70.45 Q124.35 70.45 124.55 70.95 L124.7 77.55 Q124.5 77.55 124.6 78.0 124.45 77.9 124.55 78.1 L124.45 78.05 124.5 80.05 Q124.3 80.1 124.35 80.5 124.15 80.4 124.25 80.55 L118.5 79.05 118.35 78.9 Q118.3 78.6 118.4 78.55 L118.3 57.65 Q118.0 57.1 118.25 57.3 118.15 56.95 118.4 57.2 M107.8 65.05 Q107.7 65.0 107.75 65.25 L107.75 65.85 Q107.65 66.35 107.95 67.2 108.05 67.8 108.5 68.05 L109.0 67.25 Q108.95 66.95 109.1 67.1 109.0 66.55 109.1 66.85 L108.95 65.25 Q108.6 64.15 108.4 64.35 107.9 64.1 107.8 65.05 M115.35 56.2 L112.2 56.7 112.05 74.3 113.8 74.65 113.85 69.7 Q113.65 69.2 113.8 69.45 113.75 68.95 113.85 69.25 L115.3 69.4 Q116.05 69.25 116.8 67.45 116.95 66.05 117.25 64.6 117.2 63.5 117.4 62.7 L116.75 57.85 Q116.0 55.8 115.35 56.2 M111.8 58.25 Q111.6 57.95 111.85 58.05 111.7 57.7 111.9 57.95 L111.95 57.95 111.9 56.25 Q111.75 55.8 111.95 56.0 111.85 55.6 112.05 55.9 L115.3 55.35 Q116.1 55.0 116.95 57.4 117.5 59.2 117.6 62.65 L117.5 65.0 117.4 66.45 116.65 70.35 Q115.95 72.3 115.15 72.45 L114.0 72.4 114.0 75.2 Q113.9 75.1 113.9 75.5 113.8 75.5 113.85 75.65 L113.8 75.65 113.8 77.45 Q113.7 77.3 113.75 77.65 113.6 77.55 113.65 77.7 L111.8 77.3 111.75 77.2 111.65 76.8 111.8 58.25 M114.85 60.65 L115.3 61.35 115.5 62.8 115.5 62.85 115.3 64.35 Q115.15 64.2 115.25 64.4 115.1 64.5 115.05 64.95 114.95 64.85 115.0 65.0 114.8 64.9 114.85 65.05 L113.95 64.95 Q113.8 64.8 113.8 64.95 L113.8 64.75 113.75 64.55 113.8 61.15 113.75 60.75 Q113.7 60.6 113.9 60.65 L114.85 60.65 M114.95 64.05 L114.95 64.0 114.65 63.6 114.05 63.75 114.05 64.15 114.8 64.1 Q114.65 63.85 114.95 64.05 M120.85 60.35 Q120.8 60.0 121.05 60.35 L123.9 60.05 123.8 54.9 118.7 55.7 118.9 75.75 124.25 76.85 124.15 71.4 121.15 71.05 121.0 70.9 120.9 70.75 Q120.85 70.3 120.95 70.45 L120.95 68.65 Q120.75 68.05 121.0 68.2 120.85 67.75 121.0 68.1 L124.1 68.35 124.05 63.1 121.15 63.2 121.0 63.0 120.85 62.6 120.85 60.8 Q120.65 60.3 120.85 60.35 M106.05 46.15 L105.3 85.25 141.15 102.7 137.5 33.55 106.05 46.15 M135.65 53.25 L132.5 53.65 132.9 65.35 Q132.75 65.25 132.8 65.65 L132.7 65.8 132.55 65.8 132.35 65.6 128.35 54.3 125.7 54.75 126.1 77.25 128.9 77.8 128.55 66.3 Q128.45 65.9 128.65 66.05 128.45 65.7 128.65 65.9 128.6 65.6 128.85 65.8 L133.2 78.65 136.8 79.4 135.65 53.25 M136.15 52.35 Q135.95 52.15 136.15 52.7 L137.45 80.25 Q137.25 80.4 137.3 80.8 137.1 80.5 137.15 80.85 L137.0 80.75 137.05 83.6 137.05 83.8 Q136.9 83.8 136.9 83.9 L132.9 82.95 132.8 82.85 132.7 82.65 129.2 71.9 129.35 78.6 129.25 78.85 129.25 79.1 129.0 79.0 129.2 81.45 Q129.05 81.45 129.05 81.8 128.85 81.65 128.9 81.8 L125.7 81.0 125.6 80.85 125.55 80.4 125.0 56.8 Q124.8 56.45 125.1 56.55 124.95 56.1 125.1 56.35 L125.25 56.35 125.25 54.2 Q125.0 53.6 125.25 53.8 125.2 53.4 125.3 53.65 L128.45 53.25 Q128.3 53.0 128.6 53.3 L128.6 53.45 131.9 62.65 131.7 56.05 Q131.5 55.7 131.8 55.75 131.65 55.4 131.9 55.6 L131.95 55.5 131.85 53.25 Q131.75 52.8 131.9 52.8 131.85 52.35 132.15 52.55 L135.85 52.15 Q135.7 51.75 136.0 52.1 135.9 51.75 136.15 52.35" fill="#374a37" fill-rule="evenodd" stroke="none"/>
    <path d="M138.05 31.5 Q137.85 31.15 137.9 31.5 L105.9 45.15 Q105.7 45.1 105.9 45.35 105.7 45.35 105.8 45.6 L104.95 85.75 104.95 85.95 105.15 86.4 141.75 105.4 142.15 105.35 Q142.0 104.7 142.2 104.75 L138.45 32.4 Q138.15 32.0 138.3 31.85 L138.05 31.5 M105.45 44.5 L139.05 29.45 143.5 108.95 104.55 87.55 105.45 44.5" fill="#a6d3a0" fill-rule="evenodd" stroke="none"/>
    <path d="M110.35 59.15 Q110.9 61.3 110.95 65.25 L110.9 67.3 110.9 67.35 110.1 71.4 Q109.3 73.7 108.4 73.8 107.3 73.3 106.8 70.85 106.1 68.3 106.2 65.15 106.15 63.65 106.4 62.6 106.55 60.75 107.05 59.55 L106.95 59.5 Q107.55 56.95 108.6 56.9 109.5 56.55 110.35 59.15 M107.8 62.75 L107.85 62.75 Q107.45 63.4 107.5 65.2 107.35 65.35 107.55 65.9 L107.55 65.95 Q107.45 66.7 107.75 67.7 107.95 68.5 108.5 68.85 L109.25 67.9 109.2 67.85 109.55 65.4 109.25 62.7 Q108.85 61.45 108.6 61.75 108.05 61.4 107.8 62.75 M115.35 56.2 Q116.0 55.8 116.75 57.85 L117.4 62.7 Q117.2 63.5 117.25 64.6 116.95 66.05 116.8 67.45 116.05 69.25 115.3 69.4 L113.85 69.25 Q113.75 68.95 113.8 69.45 113.65 69.2 113.85 69.7 L113.8 74.65 112.05 74.3 112.2 56.7 115.35 56.2 M114.85 60.65 L113.9 60.65 Q113.7 60.6 113.75 60.75 L113.8 61.15 113.75 64.55 113.8 64.75 113.8 64.95 Q113.8 64.8 113.95 64.95 L114.85 65.05 Q114.8 64.9 115.0 65.0 114.95 64.85 115.05 64.95 115.1 64.5 115.25 64.4 115.15 64.2 115.3 64.35 L115.5 62.85 115.5 62.8 115.3 61.35 114.85 60.65 M120.85 60.35 Q120.65 60.3 120.85 60.8 L120.85 62.6 121.0 63.0 121.15 63.2 124.05 63.1 124.1 68.35 121.0 68.1 Q120.85 67.75 121.0 68.2 120.75 68.05 120.95 68.65 L120.95 70.45 Q120.85 70.3 120.9 70.75 L121.0 70.9 121.15 71.05 124.15 71.4 124.25 76.85 118.9 75.75 118.7 55.7 123.8 54.9 123.9 60.05 121.05 60.35 Q120.8 60.0 120.85 60.35 M135.65 53.25 L136.8 79.4 133.2 78.65 128.85 65.8 Q128.6 65.6 128.65 65.9 128.45 65.7 128.65 66.05 128.45 65.9 128.55 66.3 L128.9 77.8 126.1 77.25 125.7 54.75 128.35 54.3 132.35 65.6 132.55 65.8 132.7 65.8 132.8 65.65 Q132.75 65.25 132.9 65.35 L132.5 53.65 135.65 53.25" fill="#ffffff" fill-rule="evenodd" stroke="none"/>
    <path d="M108.7 56.25 Q107.55 56.2 106.9 58.95 106.35 60.35 106.2 62.35 106.05 62.85 106.05 63.9 105.8 65.15 105.9 67.1 105.75 70.45 106.5 73.35 107.1 76.0 108.2 76.5 109.15 76.45 110.1 74.15 L110.95 69.4 111.15 67.6 111.25 65.4 Q111.2 61.05 110.5 58.6 109.6 55.8 108.7 56.25 M107.8 65.05 Q107.9 64.1 108.4 64.35 108.6 64.15 108.95 65.25 L109.1 66.85 Q109.0 66.55 109.1 67.1 108.95 66.95 109.0 67.25 L108.5 68.05 Q108.05 67.8 107.95 67.2 107.65 66.35 107.75 65.85 L107.75 65.25 Q107.7 65.0 107.8 65.05 M118.4 57.2 Q118.15 56.95 118.25 57.3 118.0 57.1 118.3 57.65 L118.4 78.55 Q118.3 78.6 118.35 78.9 L118.5 79.05 124.25 80.55 Q124.15 80.4 124.35 80.5 124.3 80.1 124.5 80.05 L124.45 78.05 124.55 78.1 Q124.45 77.9 124.6 78.0 124.5 77.55 124.7 77.55 L124.55 70.95 Q124.35 70.45 124.5 70.45 L124.45 70.35 124.3 70.3 124.2 70.3 124.2 69.45 124.3 69.35 124.45 69.2 124.5 68.95 124.35 62.5 124.35 62.25 124.25 62.1 124.2 62.0 124.1 62.0 124.0 61.1 124.15 61.2 Q124.15 60.85 124.35 60.95 L124.35 60.65 124.15 54.5 Q124.1 54.1 124.2 54.15 123.95 53.8 124.1 54.15 123.8 53.65 124.0 54.05 L118.55 54.85 Q118.4 54.5 118.45 55.0 118.25 54.9 118.3 55.3 L118.4 57.2 M111.8 58.25 L111.65 76.8 111.75 77.2 111.8 77.3 113.65 77.7 Q113.6 77.55 113.75 77.65 113.7 77.3 113.8 77.45 L113.8 75.65 113.85 75.65 Q113.8 75.5 113.9 75.5 113.9 75.1 114.0 75.2 L114.0 72.4 115.15 72.45 Q115.95 72.3 116.65 70.35 L117.4 66.45 117.5 65.0 117.6 62.65 Q117.5 59.2 116.95 57.4 116.1 55.0 115.3 55.35 L112.05 55.9 Q111.85 55.6 111.95 56.0 111.75 55.8 111.9 56.25 L111.95 57.95 111.9 57.95 Q111.7 57.7 111.85 58.05 111.6 57.95 111.8 58.25 M114.95 64.05 Q114.65 63.85 114.8 64.1 L114.05 64.15 114.05 63.75 114.65 63.6 114.95 64.0 114.95 64.05 M106.05 46.15 L137.5 33.55 141.15 102.7 105.3 85.25 106.05 46.15 M136.15 52.35 Q135.9 51.75 136.0 52.1 135.7 51.75 135.85 52.15 L132.15 52.55 Q131.85 52.35 131.9 52.8 131.75 52.8 131.85 53.25 L131.95 55.5 131.9 55.6 Q131.65 55.4 131.8 55.75 131.5 55.7 131.7 56.05 L131.9 62.65 128.6 53.45 128.6 53.3 Q128.3 53.0 128.45 53.25 L125.3 53.65 Q125.2 53.4 125.25 53.8 125.0 53.6 125.25 54.2 L125.25 56.35 125.1 56.35 Q124.95 56.1 125.1 56.55 124.8 56.45 125.0 56.8 L125.55 80.4 125.6 80.85 125.7 81.0 128.9 81.8 Q128.85 81.65 129.05 81.8 129.05 81.45 129.2 81.45 L129.0 79.0 129.25 79.1 129.25 78.85 129.35 78.6 129.2 71.9 132.7 82.65 132.8 82.85 132.9 82.95 136.9 83.9 Q136.9 83.8 137.05 83.8 L137.05 83.6 137.0 80.75 137.15 80.85 Q137.1 80.5 137.3 80.8 137.25 80.4 137.45 80.25 L136.15 52.7 Q135.95 52.15 136.15 52.35" fill="#3e7737" fill-rule="evenodd" stroke="none"/>
  </g>
</svg>
