<?xml version="1.0" encoding="UTF-8" standalone="no"?>
<svg xmlns:ffdec="https://www.free-decompiler.com/flash" xmlns:xlink="http://www.w3.org/1999/xlink" ffdec:objectType="shape" height="74.7px" width="65.05px" xmlns="http://www.w3.org/2000/svg">
  <g transform="matrix(1.0, 0.0, 0.0, 1.0, -84.35, -37.0)">
    <path d="M148.6 37.2 Q148.6 36.95 148.85 37.1 148.8 36.95 149.0 37.1 L149.2 37.4 149.4 37.9 147.5 110.95 Q147.3 111.0 147.2 111.4 146.9 111.5 146.75 111.7 L84.6 101.75 84.5 101.6 84.4 101.4 84.35 101.05 86.4 52.15 86.5 51.7 Q86.45 51.35 86.7 51.55 L148.6 37.2 M148.0 38.95 L86.9 52.65 85.0 100.5 146.15 109.6 148.0 38.95" fill="#608060" fill-rule="evenodd" stroke="none"/>
    <path d="M146.65 41.4 L146.8 41.9 144.9 106.6 Q144.75 106.65 144.8 107.05 L144.25 107.25 86.05 99.15 85.95 99.05 85.8 98.85 85.75 98.55 87.6 54.1 Q87.55 53.85 87.75 53.8 87.7 53.5 87.9 53.55 L146.1 40.95 Q146.15 40.75 146.45 40.95 L146.65 41.4 M99.7 68.45 Q99.55 68.2 99.75 68.15 99.8 67.95 99.9 68.05 L100.05 68.05 100.05 66.25 Q99.95 65.85 100.15 65.9 100.1 65.65 100.3 65.8 L106.55 65.15 Q108.2 64.75 109.5 67.25 110.6 69.15 110.5 72.75 L110.2 75.15 109.85 76.75 Q109.45 78.95 108.55 80.7 107.1 82.9 105.55 83.05 L103.55 83.2 103.4 86.0 Q103.3 86.05 103.35 86.3 L103.2 86.5 103.0 86.5 102.95 88.35 102.85 88.55 102.7 88.55 99.15 88.5 99.0 88.35 98.95 88.05 99.7 68.45 M93.5 66.3 Q95.55 65.9 97.15 68.8 98.6 71.65 98.5 76.2 L98.25 78.55 97.8 80.5 Q97.25 83.15 96.15 85.55 94.3 88.25 92.3 88.3 90.15 88.1 88.95 85.3 87.5 82.4 87.75 78.6 87.75 76.65 88.2 75.1 88.15 74.05 88.4 73.3 88.8 71.15 89.8 69.5 91.25 66.35 93.5 66.3 M91.1 77.15 L91.1 76.3 Q91.1 74.55 91.75 73.65 L91.7 73.65 Q92.3 72.3 93.25 72.5 93.95 72.2 94.55 73.45 95.05 74.35 95.15 76.35 95.0 77.75 94.45 79.0 L94.45 79.1 93.0 80.15 Q92.0 80.0 91.55 79.0 91.15 78.15 91.1 77.2 L91.1 77.15 M103.5 71.1 Q103.5 70.9 103.7 70.95 L105.4 70.8 Q105.8 70.6 106.3 71.5 L106.6 73.05 106.55 73.1 106.2 74.65 106.1 74.75 Q105.85 74.9 105.75 75.3 105.65 75.25 105.7 75.35 105.4 75.3 105.3 75.5 L103.6 75.5 103.4 75.45 103.35 75.25 103.3 75.0 103.5 71.55 Q103.35 71.05 103.5 71.1 M109.15 67.85 Q107.95 65.75 106.6 66.05 L100.6 66.75 99.8 85.4 103.0 85.5 103.15 80.4 Q102.95 79.95 103.15 80.1 103.2 79.7 103.35 79.95 L106.0 79.95 Q107.4 79.8 108.7 77.75 L109.8 74.8 Q109.85 73.7 110.05 72.75 110.0 69.65 109.15 67.85 M96.75 69.5 Q95.35 66.8 93.45 67.15 91.45 67.3 90.1 70.05 L90.15 70.1 Q89.15 71.6 88.85 73.65 88.5 74.85 88.5 76.5 88.3 80.0 89.6 82.65 90.65 85.15 92.7 85.45 94.55 85.3 96.2 82.7 97.25 80.65 97.8 78.25 L97.8 78.2 97.95 76.0 Q98.0 72.0 96.75 69.5 M141.2 61.35 L141.4 61.65 Q141.25 61.5 141.4 61.9 L140.8 87.15 Q140.5 87.25 140.55 87.6 140.25 87.45 140.25 87.7 L140.05 87.6 139.95 90.05 139.85 90.35 139.55 90.4 133.9 90.2 133.8 90.15 133.7 90.05 129.3 80.6 129.05 86.8 128.9 87.05 128.8 87.35 128.45 87.3 128.4 89.55 Q128.35 89.5 128.25 89.8 L128.05 89.9 123.1 89.65 122.85 89.6 Q122.8 89.2 122.9 89.1 L123.65 66.3 Q123.5 65.95 123.7 66.05 123.7 65.6 123.9 65.85 L124.15 65.85 124.15 63.65 Q124.0 63.15 124.3 63.15 L124.5 63.0 129.4 62.6 Q129.4 62.4 129.6 62.65 L129.7 62.75 134.2 71.6 134.4 65.3 Q134.25 65.0 134.55 65.0 134.55 64.7 134.8 64.85 L134.9 64.75 134.9 62.5 135.0 62.1 Q135.1 61.7 135.4 61.9 L141.0 61.4 Q140.95 61.05 141.2 61.35 M111.1 88.95 L111.1 88.55 111.85 67.4 Q111.6 67.0 111.85 67.15 111.85 66.85 112.05 67.0 L112.15 66.95 112.2 64.95 Q112.1 64.6 112.35 64.65 112.35 64.25 112.5 64.45 L122.1 63.45 Q122.05 63.2 122.3 63.5 122.25 63.35 122.45 63.55 L122.45 63.95 122.3 70.15 122.25 70.5 Q122.0 70.55 122.0 70.7 L121.8 70.7 121.7 71.55 121.85 71.6 Q121.85 71.45 122.0 71.65 L122.2 71.8 Q122.1 71.9 122.15 72.1 L122.05 78.45 121.95 78.7 121.7 78.85 121.45 78.85 121.4 79.7 121.6 79.7 121.8 79.8 121.85 79.95 121.95 80.3 121.75 86.6 121.55 87.0 Q121.4 87.0 121.4 87.1 L121.25 87.05 121.2 89.05 Q121.0 89.15 121.05 89.4 120.75 89.35 120.85 89.5 L111.25 89.1 111.1 88.95 M91.55 76.45 L91.5 77.1 Q91.55 77.65 91.95 78.5 L91.9 78.5 Q92.2 79.15 92.95 79.3 L94.1 78.4 Q94.05 78.2 94.15 78.2 94.1 77.85 94.25 77.9 L93.95 76.25 Q93.4 75.15 92.85 75.3 92.05 75.15 91.6 76.25 91.45 76.2 91.55 76.45 M105.5 74.45 L105.5 74.4 104.95 73.95 103.9 74.1 103.85 74.6 105.25 74.5 105.5 74.45 M116.25 70.5 L116.35 70.15 Q116.35 69.85 116.6 70.05 L121.6 69.65 121.8 64.45 112.85 65.4 112.15 85.75 121.1 86.05 121.25 80.8 116.25 80.85 116.0 80.65 115.9 80.5 Q115.8 80.25 115.95 80.25 L116.1 78.45 Q115.9 78.0 116.15 77.95 116.1 77.75 116.25 77.85 L121.4 77.8 121.55 72.7 116.55 72.95 116.4 72.85 116.25 72.7 Q116.1 72.3 116.25 72.4 L116.25 70.5 M140.65 62.5 L135.75 62.9 135.4 74.1 Q135.25 74.1 135.25 74.4 L135.05 74.55 134.9 74.55 134.6 74.4 129.3 63.7 124.85 64.2 124.05 86.05 128.4 86.15 128.65 75.45 Q128.6 75.1 128.85 75.15 128.7 74.85 128.95 75.0 128.9 74.8 129.15 75.0 L129.35 75.15 134.8 86.35 139.9 86.5 140.65 62.5 M145.35 42.95 L88.15 54.7 86.45 98.0 143.75 105.25 145.35 42.95" fill="#374a37" fill-rule="evenodd" stroke="none"/>
    <path d="M146.65 41.4 L146.45 40.95 Q146.15 40.75 146.1 40.95 L87.9 53.55 Q87.7 53.5 87.75 53.8 87.55 53.85 87.6 54.1 L85.75 98.55 85.8 98.85 85.95 99.05 86.05 99.15 144.25 107.25 144.8 107.05 Q144.75 106.65 144.9 106.6 L146.8 41.9 146.65 41.4 M148.0 38.95 L146.15 109.6 85.0 100.5 86.9 52.65 148.0 38.95" fill="#a6d3a0" fill-rule="evenodd" stroke="none"/>
    <path d="M93.5 66.3 Q91.25 66.35 89.8 69.5 88.8 71.15 88.4 73.3 88.15 74.05 88.2 75.1 87.75 76.65 87.75 78.6 87.5 82.4 88.95 85.3 90.15 88.1 92.3 88.3 94.3 88.25 96.15 85.55 97.25 83.15 97.8 80.5 L98.25 78.55 98.5 76.2 Q98.6 71.65 97.15 68.8 95.55 65.9 93.5 66.3 M99.7 68.45 L98.95 88.05 99.0 88.35 99.15 88.5 102.7 88.55 102.85 88.55 102.95 88.35 103.0 86.5 103.2 86.5 103.35 86.3 Q103.3 86.05 103.4 86.0 L103.55 83.2 105.55 83.05 Q107.1 82.9 108.55 80.7 109.45 78.95 109.85 76.75 L110.2 75.15 110.5 72.75 Q110.6 69.15 109.5 67.25 108.2 64.75 106.55 65.15 L100.3 65.8 Q100.1 65.65 100.15 65.9 99.95 65.85 100.05 66.25 L100.05 68.05 99.9 68.05 Q99.8 67.95 99.75 68.15 99.55 68.2 99.7 68.45 M105.5 74.45 L105.25 74.5 103.85 74.6 103.9 74.1 104.95 73.95 105.5 74.4 105.5 74.45 M91.55 76.45 Q91.45 76.2 91.6 76.25 92.05 75.15 92.85 75.3 93.4 75.15 93.95 76.25 L94.25 77.9 Q94.1 77.85 94.15 78.2 94.05 78.2 94.1 78.4 L92.95 79.3 Q92.2 79.15 91.9 78.5 L91.95 78.5 Q91.55 77.65 91.5 77.1 L91.55 76.45 M111.1 88.95 L111.25 89.1 120.85 89.5 Q120.75 89.35 121.05 89.4 121.0 89.15 121.2 89.05 L121.25 87.05 121.4 87.1 Q121.4 87.0 121.55 87.0 L121.75 86.6 121.95 80.3 121.85 79.95 121.8 79.8 121.6 79.7 121.4 79.7 121.45 78.85 121.7 78.85 121.95 78.7 122.05 78.45 122.15 72.1 Q122.1 71.9 122.2 71.8 L122.0 71.65 Q121.85 71.45 121.85 71.6 L121.7 71.55 121.8 70.7 122.0 70.7 Q122.0 70.55 122.25 70.5 L122.3 70.15 122.45 63.95 122.45 63.55 Q122.25 63.35 122.3 63.5 122.05 63.2 122.1 63.45 L112.5 64.45 Q112.35 64.25 112.35 64.65 112.1 64.6 112.2 64.95 L112.15 66.95 112.05 67.0 Q111.85 66.85 111.85 67.15 111.6 67.0 111.85 67.4 L111.1 88.55 111.1 88.95 M141.2 61.35 Q140.95 61.05 141.0 61.4 L135.4 61.9 Q135.1 61.7 135.0 62.1 L134.9 62.5 134.9 64.75 134.8 64.85 Q134.55 64.7 134.55 65.0 134.25 65.0 134.4 65.3 L134.2 71.6 129.7 62.75 129.6 62.65 Q129.4 62.4 129.4 62.6 L124.5 63.0 124.3 63.15 Q124.0 63.15 124.15 63.65 L124.15 65.85 123.9 65.85 Q123.7 65.6 123.7 66.05 123.5 65.95 123.65 66.3 L122.9 89.1 Q122.8 89.2 122.85 89.6 L123.1 89.65 128.05 89.9 128.25 89.8 Q128.35 89.5 128.4 89.55 L128.45 87.3 128.8 87.35 128.9 87.05 129.05 86.8 129.3 80.6 133.7 90.05 133.8 90.15 133.9 90.2 139.55 90.4 139.85 90.35 139.95 90.05 140.05 87.6 140.25 87.7 Q140.25 87.45 140.55 87.6 140.5 87.25 140.8 87.15 L141.4 61.9 Q141.25 61.5 141.4 61.65 L141.2 61.35 M145.35 42.95 L143.75 105.25 86.45 98.0 88.15 54.7 145.35 42.95" fill="#3e7737" fill-rule="evenodd" stroke="none"/>
    <path d="M96.75 69.5 Q98.0 72.0 97.95 76.0 L97.8 78.2 97.8 78.25 Q97.25 80.65 96.2 82.7 94.55 85.3 92.7 85.45 90.65 85.15 89.6 82.65 88.3 80.0 88.5 76.5 88.5 74.85 88.85 73.65 89.15 71.6 90.15 70.1 L90.1 70.05 Q91.45 67.3 93.45 67.15 95.35 66.8 96.75 69.5 M109.15 67.85 Q110.0 69.65 110.05 72.75 109.85 73.7 109.8 74.8 L108.7 77.75 Q107.4 79.8 106.0 79.95 L103.35 79.95 Q103.2 79.7 103.15 80.1 102.95 79.95 103.15 80.4 L103.0 85.5 99.8 85.4 100.6 66.75 106.6 66.05 Q107.95 65.75 109.15 67.85 M103.5 71.1 Q103.35 71.05 103.5 71.55 L103.3 75.0 103.35 75.25 103.4 75.45 103.6 75.5 105.3 75.5 Q105.4 75.3 105.7 75.35 105.65 75.25 105.75 75.3 105.85 74.9 106.1 74.75 L106.2 74.65 106.55 73.1 106.6 73.05 106.3 71.5 Q105.8 70.6 105.4 70.8 L103.7 70.95 Q103.5 70.9 103.5 71.1 M91.1 77.15 L91.1 77.2 Q91.15 78.15 91.55 79.0 92.0 80.0 93.0 80.15 L94.45 79.1 94.45 79.0 Q95.0 77.75 95.15 76.35 95.05 74.35 94.55 73.45 93.95 72.2 93.25 72.5 92.3 72.3 91.7 73.65 L91.75 73.65 Q91.1 74.55 91.1 76.3 L91.1 77.15 M140.65 62.5 L139.9 86.5 134.8 86.35 129.35 75.15 129.15 75.0 Q128.9 74.8 128.95 75.0 128.7 74.85 128.85 75.15 128.6 75.1 128.65 75.45 L128.4 86.15 124.05 86.05 124.85 64.2 129.3 63.7 134.6 74.4 134.9 74.55 135.05 74.55 135.25 74.4 Q135.25 74.1 135.4 74.1 L135.75 62.9 140.65 62.5 M116.25 70.5 L116.25 72.4 Q116.1 72.3 116.25 72.7 L116.4 72.85 116.55 72.95 121.55 72.7 121.4 77.8 116.25 77.85 Q116.1 77.75 116.15 77.95 115.9 78.0 116.1 78.45 L115.95 80.25 Q115.8 80.25 115.9 80.5 L116.0 80.65 116.25 80.85 121.25 80.8 121.1 86.05 112.15 85.75 112.85 65.4 121.8 64.45 121.6 69.65 116.6 70.05 Q116.35 69.85 116.35 70.15 L116.25 70.5" fill="#ffffff" fill-rule="evenodd" stroke="none"/>
  </g>
</svg>
