<?xml version="1.0" encoding="UTF-8" standalone="no"?>
<svg xmlns:ffdec="https://www.free-decompiler.com/flash" xmlns:xlink="http://www.w3.org/1999/xlink" ffdec:objectType="shape" height="65.75px" width="89.6px" xmlns="http://www.w3.org/2000/svg">
  <g transform="matrix(1.0, 0.0, 0.0, 1.0, -81.3, -41.5)">
    <path d="M167.55 45.2 L167.7 45.65 168.05 101.95 167.9 102.45 167.35 102.65 84.45 104.15 84.1 104.05 83.85 103.8 83.85 103.45 83.75 54.2 83.85 53.75 84.2 53.5 166.85 44.75 167.25 44.8 167.55 45.2 M162.05 62.75 L162.25 62.9 162.3 63.15 162.5 85.6 162.3 85.9 Q162.15 86.0 162.05 86.05 L161.7 86.05 161.75 88.1 161.65 88.45 161.35 88.55 154.65 88.9 154.5 88.85 154.4 88.75 148.45 80.5 148.4 86.2 148.3 86.5 148.1 86.7 147.75 86.7 147.7 88.75 147.6 89.05 147.35 89.15 140.9 89.4 140.65 89.35 140.6 88.95 140.45 67.35 Q140.45 67.05 140.6 67.05 140.6 66.7 140.85 66.85 L141.05 66.8 141.0 64.7 Q140.9 64.4 141.15 64.35 141.25 64.15 141.45 64.15 L147.85 63.75 148.05 63.85 Q148.1 63.65 148.2 63.95 L154.15 72.0 154.1 66.3 Q154.05 66.0 154.25 66.05 154.35 65.75 154.55 65.9 L154.7 65.8 154.65 63.75 Q154.55 63.35 154.75 63.3 154.85 63.05 155.1 63.15 L161.8 62.7 162.05 62.75 M105.45 69.9 L105.6 69.6 Q105.6 69.4 105.8 69.45 L106.0 69.45 106.0 67.5 Q105.85 67.25 106.05 67.15 106.15 66.95 106.35 67.05 L116.1 66.3 Q118.65 65.9 120.7 68.35 122.5 70.4 122.5 73.95 L122.25 76.3 121.75 77.9 Q121.35 80.15 120.05 82.0 118.15 84.4 115.65 84.6 L112.55 84.85 112.55 87.85 112.4 88.1 112.2 88.3 111.9 88.3 111.95 90.2 111.75 90.45 111.55 90.5 105.85 90.8 105.65 90.7 105.55 90.4 105.45 69.9 M166.65 101.05 L166.2 46.5 84.8 54.85 84.95 102.75 166.65 101.05 M111.75 72.45 L112.05 72.35 114.65 72.15 Q115.35 72.0 116.1 72.8 116.5 73.3 116.7 74.35 L116.65 74.4 116.15 76.05 116.1 76.15 115.45 76.65 115.35 76.7 114.75 76.9 112.15 77.05 111.9 76.95 111.8 76.8 111.7 76.55 111.75 72.85 Q111.6 72.5 111.75 72.45 M120.1 69.0 Q118.35 66.95 116.25 67.3 L106.8 68.0 106.85 87.55 111.75 87.35 111.7 82.0 Q111.55 81.7 111.75 81.75 111.9 81.5 112.1 81.6 L116.2 81.35 Q118.35 81.15 120.05 79.05 120.95 77.6 121.45 76.0 L121.7 73.9 Q121.6 70.85 120.1 69.0 M88.8 71.25 Q91.3 67.85 95.0 67.7 98.55 67.3 101.35 70.3 103.95 73.35 104.05 77.95 L103.8 80.5 103.85 80.5 103.25 82.55 Q102.65 85.55 100.85 88.05 98.1 91.2 94.55 91.45 90.85 91.55 88.4 88.6 85.8 85.6 85.8 81.3 85.75 79.25 86.35 77.55 86.35 76.4 86.7 75.55 87.25 73.1 88.8 71.25 M89.4 71.9 Q87.95 73.7 87.4 75.9 86.95 77.3 87.05 78.95 L87.05 79.0 Q87.0 82.9 89.4 85.65 91.6 88.35 95.05 88.3 98.3 88.05 100.75 85.05 102.45 82.8 103.05 80.25 L103.05 80.2 103.25 77.95 Q103.15 73.65 100.8 71.0 98.3 68.2 95.05 68.55 91.65 68.85 89.4 71.9 M97.15 80.15 Q97.0 78.95 96.45 78.3 95.55 77.3 94.55 77.4 93.35 77.4 92.55 78.5 92.4 78.55 92.4 78.75 L92.45 79.4 Q92.55 80.15 93.2 80.85 L93.15 80.85 Q93.8 81.6 95.05 81.65 96.0 81.55 96.85 80.65 L96.95 80.5 Q97.0 80.15 97.15 80.15 M97.4 75.35 Q98.35 76.4 98.5 78.35 98.45 79.9 97.55 81.2 L97.5 81.35 Q96.45 82.5 95.1 82.6 93.55 82.6 92.6 81.5 91.85 80.65 91.7 79.5 L91.7 79.45 91.65 78.65 Q91.55 76.75 92.6 75.65 L92.55 75.65 Q93.55 74.3 95.0 74.35 96.35 74.1 97.4 75.35 M115.05 75.85 L115.0 75.8 Q114.6 75.4 114.15 75.45 L112.55 75.55 112.45 76.05 114.6 75.85 115.05 75.85 M147.7 64.8 L141.95 65.25 142.0 86.0 147.55 85.7 147.45 75.75 Q147.35 75.45 147.6 75.45 147.5 75.25 147.8 75.25 L148.1 75.25 148.3 75.4 155.5 85.3 161.5 85.0 161.4 63.7 155.65 64.1 155.75 74.2 155.6 74.45 155.35 74.65 155.15 74.7 154.85 74.55 147.7 64.8 M124.65 65.7 L125.0 65.6 138.35 64.5 138.55 64.55 138.75 64.7 138.8 65.0 138.85 71.0 138.75 71.3 138.5 71.5 138.15 71.45 138.15 72.3 138.4 72.3 138.65 72.35 138.8 72.5 138.85 72.8 138.95 78.85 138.8 79.15 138.5 79.35 138.15 79.35 138.15 80.1 138.4 80.1 138.65 80.15 138.8 80.3 138.95 80.65 139.0 86.75 Q138.85 86.8 138.8 87.0 138.6 87.1 138.55 87.15 L138.3 87.15 138.3 89.0 138.15 89.35 137.85 89.5 124.5 90.1 124.25 89.95 124.2 89.6 124.1 68.55 Q123.95 68.2 124.2 68.3 L124.45 68.15 124.6 68.1 124.55 66.05 Q124.45 65.8 124.65 65.7 M130.65 71.5 Q130.55 71.2 130.75 71.15 130.8 70.95 131.1 71.0 L137.95 70.5 137.95 65.55 125.4 66.55 125.55 86.65 138.05 86.15 138.0 81.2 131.2 81.5 130.9 81.45 130.7 81.25 Q130.55 81.0 130.75 81.0 L130.75 79.15 Q130.55 78.9 130.75 78.8 130.85 78.65 131.05 78.7 L138.05 78.35 137.95 73.45 131.15 73.85 130.9 73.8 130.7 73.55 130.65 73.3 130.65 71.5" fill="#374a37" fill-rule="evenodd" stroke="none"/>
    <path d="M167.55 45.2 L167.25 44.8 166.85 44.75 84.2 53.5 83.85 53.75 83.75 54.2 83.85 103.45 83.85 103.8 84.1 104.05 84.45 104.15 167.35 102.65 167.9 102.45 168.05 101.95 167.7 45.65 167.55 45.2 M169.4 104.4 L82.5 105.75 82.35 52.45 169.0 43.2 169.4 104.4" fill="#a6d3a0" fill-rule="evenodd" stroke="none"/>
    <path d="M169.6 41.55 L169.75 41.5 169.95 41.6 170.3 41.9 170.5 42.3 170.9 105.3 170.7 105.8 170.2 106.05 81.95 107.25 81.75 107.1 81.55 106.85 81.4 106.55 81.3 51.8 81.5 51.4 Q81.5 51.1 81.75 51.2 L169.6 41.55 M169.4 104.4 L169.0 43.2 82.35 52.45 82.5 105.75 169.4 104.4" fill="#608060" fill-rule="evenodd" stroke="none"/>
    <path d="M162.05 62.75 L161.8 62.7 155.1 63.15 Q154.85 63.05 154.75 63.3 154.55 63.35 154.65 63.75 L154.7 65.8 154.55 65.9 Q154.35 65.75 154.25 66.05 154.05 66.0 154.1 66.3 L154.15 72.0 148.2 63.95 Q148.1 63.65 148.05 63.85 L147.85 63.75 141.45 64.15 Q141.25 64.15 141.15 64.35 140.9 64.4 141.0 64.7 L141.05 66.8 140.85 66.85 Q140.6 66.7 140.6 67.05 140.45 67.05 140.45 67.35 L140.6 88.95 140.65 89.35 140.9 89.4 147.35 89.15 147.6 89.05 147.7 88.75 147.75 86.7 148.1 86.7 148.3 86.5 148.4 86.2 148.45 80.5 154.4 88.75 154.5 88.85 154.65 88.9 161.35 88.55 161.65 88.45 161.75 88.1 161.7 86.05 162.05 86.05 Q162.15 86.0 162.3 85.9 L162.5 85.6 162.3 63.15 162.25 62.9 162.05 62.75 M166.65 101.05 L84.95 102.75 84.8 54.85 166.2 46.5 166.65 101.05 M105.45 69.9 L105.55 90.4 105.65 90.7 105.85 90.8 111.55 90.5 111.75 90.45 111.95 90.2 111.9 88.3 112.2 88.3 112.4 88.1 112.55 87.85 112.55 84.85 115.65 84.6 Q118.15 84.4 120.05 82.0 121.35 80.15 121.75 77.9 L122.25 76.3 122.5 73.95 Q122.5 70.4 120.7 68.35 118.65 65.9 116.1 66.3 L106.35 67.05 Q106.15 66.95 106.05 67.15 105.85 67.25 106.0 67.5 L106.0 69.45 105.8 69.45 Q105.6 69.4 105.6 69.6 L105.45 69.9 M88.8 71.25 Q87.25 73.1 86.7 75.55 86.35 76.4 86.35 77.55 85.75 79.25 85.8 81.3 85.8 85.6 88.4 88.6 90.85 91.55 94.55 91.45 98.1 91.2 100.85 88.05 102.65 85.55 103.25 82.55 L103.85 80.5 103.8 80.5 104.05 77.95 Q103.95 73.35 101.35 70.3 98.55 67.3 95.0 67.7 91.3 67.85 88.8 71.25 M97.15 80.15 Q97.0 80.15 96.95 80.5 L96.85 80.65 Q96.0 81.55 95.05 81.65 93.8 81.6 93.15 80.85 L93.2 80.85 Q92.55 80.15 92.45 79.4 L92.4 78.75 Q92.4 78.55 92.55 78.5 93.35 77.4 94.55 77.4 95.55 77.3 96.45 78.3 97.0 78.95 97.15 80.15 M115.05 75.85 L114.6 75.85 112.45 76.05 112.55 75.55 114.15 75.45 Q114.6 75.4 115.0 75.8 L115.05 75.85 M124.65 65.7 Q124.45 65.8 124.55 66.05 L124.6 68.1 124.45 68.15 124.2 68.3 Q123.95 68.2 124.1 68.55 L124.2 89.6 124.25 89.95 124.5 90.1 137.85 89.5 138.15 89.35 138.3 89.0 138.3 87.15 138.55 87.15 Q138.6 87.1 138.8 87.0 138.85 86.8 139.0 86.75 L138.95 80.65 138.8 80.3 138.65 80.15 138.4 80.1 138.15 80.1 138.15 79.35 138.5 79.35 138.8 79.15 138.95 78.85 138.85 72.8 138.8 72.5 138.65 72.35 138.4 72.3 138.15 72.3 138.15 71.45 138.5 71.5 138.75 71.3 138.85 71.0 138.8 65.0 138.75 64.7 138.55 64.55 138.35 64.5 125.0 65.6 124.65 65.7" fill="#3e7737" fill-rule="evenodd" stroke="none"/>
    <path d="M120.1 69.0 Q121.6 70.85 121.7 73.9 L121.45 76.0 Q120.95 77.6 120.05 79.05 118.35 81.15 116.2 81.35 L112.1 81.6 Q111.9 81.5 111.75 81.75 111.55 81.7 111.7 82.0 L111.75 87.35 106.85 87.55 106.8 68.0 116.25 67.3 Q118.35 66.95 120.1 69.0 M111.75 72.45 Q111.6 72.5 111.75 72.85 L111.7 76.55 111.8 76.8 111.9 76.95 112.15 77.05 114.75 76.9 115.35 76.7 115.45 76.65 116.1 76.15 116.15 76.05 116.65 74.4 116.7 74.35 Q116.5 73.3 116.1 72.8 115.35 72.0 114.65 72.15 L112.05 72.35 111.75 72.45 M89.4 71.9 Q91.65 68.85 95.05 68.55 98.3 68.2 100.8 71.0 103.15 73.65 103.25 77.95 L103.05 80.2 103.05 80.25 Q102.45 82.8 100.75 85.05 98.3 88.05 95.05 88.3 91.6 88.35 89.4 85.65 87.0 82.9 87.05 79.0 L87.05 78.95 Q86.95 77.3 87.4 75.9 87.95 73.7 89.4 71.9 M97.4 75.35 Q96.35 74.1 95.0 74.35 93.55 74.3 92.55 75.65 L92.6 75.65 Q91.55 76.75 91.65 78.65 L91.7 79.45 91.7 79.5 Q91.85 80.65 92.6 81.5 93.55 82.6 95.1 82.6 96.45 82.5 97.5 81.35 L97.55 81.2 Q98.45 79.9 98.5 78.35 98.35 76.4 97.4 75.35 M147.7 64.8 L154.85 74.55 155.15 74.7 155.35 74.65 155.6 74.45 155.75 74.2 155.65 64.1 161.4 63.7 161.5 85.0 155.5 85.3 148.3 75.4 148.1 75.25 147.8 75.25 Q147.5 75.25 147.6 75.45 147.35 75.45 147.45 75.75 L147.55 85.7 142.0 86.0 141.95 65.25 147.7 64.8 M130.65 71.5 L130.65 73.3 130.7 73.55 130.9 73.8 131.15 73.85 137.95 73.45 138.05 78.35 131.05 78.7 Q130.85 78.65 130.75 78.8 130.55 78.9 130.75 79.15 L130.75 81.0 Q130.55 81.0 130.7 81.25 L130.9 81.45 131.2 81.5 138.0 81.2 138.05 86.15 125.55 86.65 125.4 66.55 137.95 65.55 137.95 70.5 131.1 71.0 Q130.8 70.95 130.75 71.15 130.55 71.2 130.65 71.5" fill="#ffffff" fill-rule="evenodd" stroke="none"/>
  </g>
</svg>
