<?xml version="1.0" encoding="UTF-8" standalone="no"?>
<svg xmlns:ffdec="https://www.free-decompiler.com/flash" xmlns:xlink="http://www.w3.org/1999/xlink" ffdec:objectType="shape" height="74.45px" width="128.5px" xmlns="http://www.w3.org/2000/svg">
  <g transform="matrix(1.0, 0.0, 0.0, 1.0, 0.75, 0.75)">
    <path d="M123.5 69.0 L4.0 69.0 4.0 3.5 123.5 3.5 123.5 69.0" fill="#3e7737" fill-rule="evenodd" stroke="none"/>
    <path d="M127.0 72.95 L0.0 72.95 0.0 0.0 127.0 0.0 127.0 72.95 M123.5 69.0 L123.5 3.5 4.0 3.5 4.0 69.0 123.5 69.0" fill="#a6d3a0" fill-rule="evenodd" stroke="none"/>
    <path d="M123.5 69.0 L4.0 69.0 4.0 3.5 123.5 3.5 123.5 69.0" fill="none" stroke="#374a37" stroke-linecap="round" stroke-linejoin="round" stroke-width="1.5"/>
    <path d="M127.0 72.95 L0.0 72.95 0.0 0.0 127.0 0.0 127.0 72.95 Z" fill="none" stroke="#608060" stroke-linecap="round" stroke-linejoin="round" stroke-width="1.5"/>
    <path d="M17.4 36.55 Q16.15 37.8 16.15 39.65 16.15 41.45 17.4 42.7 18.7 43.95 20.5 43.95 22.3 43.95 23.55 42.7 24.85 41.45 24.85 39.65 24.85 37.8 23.55 36.55 22.3 35.3 20.5 35.3 18.7 35.3 17.4 36.55 M6.5 39.65 Q6.5 33.85 10.6 29.75 14.7 25.65 20.5 25.65 26.25 25.65 30.35 29.75 34.45 33.85 34.45 39.65 34.45 45.4 30.35 49.5 26.25 53.6 20.5 53.6 14.7 53.6 10.6 49.5 6.5 45.4 6.5 39.65 M52.5 36.15 Q52.5 35.4 52.05 34.85 51.55 34.3 50.8 34.3 L47.35 34.3 47.35 38.05 50.8 38.05 Q51.55 38.05 52.05 37.5 L52.05 37.55 52.5 36.15 M59.5 29.0 L59.5 28.95 Q62.15 31.85 62.15 36.0 62.15 40.15 59.5 43.1 56.75 46.05 53.0 46.05 L47.35 46.05 47.35 52.8 47.2 53.15 46.85 53.3 38.2 53.3 37.85 53.15 37.7 52.8 37.7 26.5 37.85 26.15 38.2 26.0 53.0 26.0 Q56.75 26.0 59.5 29.0 M84.75 26.0 Q84.95 26.0 85.1 26.15 L85.25 26.5 85.25 33.75 85.1 34.1 84.75 34.25 75.05 34.25 75.05 35.55 84.75 35.55 Q84.95 35.55 85.1 35.7 L85.25 36.05 85.25 43.3 85.1 43.65 84.75 43.8 75.05 43.8 75.05 45.0 84.75 45.0 Q84.95 45.0 85.1 45.15 L85.25 45.5 85.25 52.8 85.1 53.15 84.75 53.3 65.9 53.3 65.55 53.15 65.4 52.8 65.4 26.5 Q65.4 26.3 65.55 26.15 65.7 26.0 65.9 26.0 L84.75 26.0 M97.9 26.05 L98.05 26.2 106.85 37.55 106.85 26.5 107.0 26.15 107.35 26.0 116.0 26.0 Q116.2 26.0 116.35 26.15 L116.5 26.5 116.5 52.8 116.35 53.15 116.0 53.3 107.35 53.3 107.15 53.25 106.95 53.1 98.15 41.75 98.15 52.8 98.0 53.15 97.65 53.3 89.0 53.3 88.65 53.15 88.5 52.8 88.5 26.5 Q88.5 26.3 88.65 26.15 88.8 26.0 89.0 26.0 L97.65 26.0 97.9 26.05" fill="#374a37" fill-rule="evenodd" stroke="none"/>
    <path d="M116.85 23.5 L116.85 49.8 108.2 49.8 98.5 37.3 98.5 49.8 89.85 49.8 89.85 23.5 98.5 23.5 108.2 36.0 108.2 23.5 116.85 23.5 M85.6 40.3 L75.4 40.3 75.4 42.5 85.6 42.5 85.6 49.8 66.75 49.8 66.75 23.5 85.6 23.5 85.6 30.75 75.4 30.75 75.4 33.05 85.6 33.05 85.6 40.3 M51.65 30.8 L47.7 30.8 47.7 35.55 51.65 35.55 Q52.6 35.55 53.25 34.85 53.85 34.15 53.85 33.15 53.85 32.2 53.25 31.5 52.6 30.8 51.65 30.8 M53.85 42.55 L47.7 42.55 47.7 49.8 39.05 49.8 39.05 23.5 53.85 23.5 Q57.4 23.5 59.95 26.3 62.5 29.05 62.5 33.0 62.5 36.95 59.95 39.75 57.4 42.55 53.85 42.55 M11.8 27.1 Q15.75 23.15 21.35 23.15 26.9 23.15 30.85 27.1 34.8 31.05 34.8 36.65 34.8 42.2 30.85 46.15 26.9 50.1 21.35 50.1 15.75 50.1 11.8 46.15 7.85 42.2 7.85 36.65 7.85 31.05 11.8 27.1 M17.9 40.05 Q19.35 41.45 21.35 41.45 23.35 41.45 24.75 40.05 26.2 38.65 26.2 36.65 26.2 34.6 24.75 33.2 23.35 31.8 21.35 31.8 19.35 31.8 17.9 33.2 16.5 34.6 16.5 36.65 16.5 38.65 17.9 40.05" fill="#ffffff" fill-rule="evenodd" stroke="none"/>
    <path d="M116.85 23.5 L116.85 49.8 108.2 49.8 98.5 37.3 98.5 49.8 89.85 49.8 89.85 23.5 98.5 23.5 108.2 36.0 108.2 23.5 116.85 23.5 M85.6 40.3 L75.4 40.3 75.4 42.5 85.6 42.5 85.6 49.8 66.75 49.8 66.75 23.5 85.6 23.5 85.6 30.75 75.4 30.75 75.4 33.05 85.6 33.05 85.6 40.3 M51.65 30.8 L47.7 30.8 47.7 35.55 51.65 35.55 Q52.6 35.55 53.25 34.85 53.85 34.15 53.85 33.15 53.85 32.2 53.25 31.5 52.6 30.8 51.65 30.8 M53.85 42.55 L47.7 42.55 47.7 49.8 39.05 49.8 39.05 23.5 53.85 23.5 Q57.4 23.5 59.95 26.3 62.5 29.05 62.5 33.0 62.5 36.95 59.95 39.75 57.4 42.55 53.85 42.55 M11.8 27.1 Q15.75 23.15 21.35 23.15 26.9 23.15 30.85 27.1 34.8 31.05 34.8 36.65 34.8 42.2 30.85 46.15 26.9 50.1 21.35 50.1 15.75 50.1 11.8 46.15 7.85 42.2 7.85 36.65 7.85 31.05 11.8 27.1 M17.9 40.05 Q19.35 41.45 21.35 41.45 23.35 41.45 24.75 40.05 26.2 38.65 26.2 36.65 26.2 34.6 24.75 33.2 23.35 31.8 21.35 31.8 19.35 31.8 17.9 33.2 16.5 34.6 16.5 36.65 16.5 38.65 17.9 40.05 Z" fill="none" stroke="#374a37" stroke-linecap="round" stroke-linejoin="round" stroke-width="1.0"/>
  </g>
</svg>
