<?xml version="1.0" encoding="UTF-8" standalone="no"?>
<svg xmlns:ffdec="https://www.free-decompiler.com/flash" xmlns:xlink="http://www.w3.org/1999/xlink" ffdec:objectType="shape" height="13.8px" width="23.8px" xmlns="http://www.w3.org/2000/svg">
  <g transform="matrix(1.0, 0.0, 0.0, 1.0, 12.15, 4.75)">
    <path d="M7.7 -1.0 L7.8 -0.7 7.95 0.5 8.05 3.0 11.65 3.8 11.35 4.3 8.3 4.6 6.0 5.4 Q4.75 5.85 1.75 7.5 -1.3 9.15 -1.5 9.05 L-1.95 8.55 -0.7 6.5 -1.6 4.4 -1.9 3.2 Q-2.45 -0.15 -0.7 -2.85 L-0.65 -2.95 -0.1 -3.6 0.95 -4.6 1.35 -4.75 2.1 -4.7 Q4.55 -3.15 7.1 -1.65 L7.15 -1.55 7.7 -1.0 M1.45 -1.6 Q0.45 -0.2 0.45 1.8 0.4 3.85 1.7 5.5 L5.2 4.15 5.45 1.8 5.45 0.35 1.7 -2.0 1.45 -1.6 M-7.15 -3.5 L-7.0 -3.55 -6.45 -3.45 Q-5.2 -3.1 -4.2 -1.65 L-4.2 -1.6 Q-3.05 0.1 -3.0 2.55 L-3.0 2.6 Q-3.05 5.0 -4.2 6.75 -5.65 8.8 -7.6 8.75 -9.55 8.8 -10.95 6.75 L-11.0 6.75 Q-12.15 5.0 -12.15 2.55 L-12.1 1.85 -11.85 1.2 -11.75 1.05 -7.85 -3.15 -7.15 -3.5 M-6.3 -0.25 L-6.7 -0.7 -9.65 2.45 -9.65 2.55 Q-9.65 4.2 -8.9 5.4 -8.35 6.2 -7.6 6.25 -6.85 6.2 -6.3 5.4 -5.55 4.2 -5.5 2.55 -5.55 0.9 -6.3 -0.25" fill="#000000" fill-rule="evenodd" stroke="none"/>
  </g>
</svg>
