<?xml version="1.0" encoding="UTF-8" standalone="no"?>
<svg xmlns:ffdec="https://www.free-decompiler.com/flash" xmlns:xlink="http://www.w3.org/1999/xlink" ffdec:objectType="shape" height="288.0px" width="416.05px" xmlns="http://www.w3.org/2000/svg">
  <g transform="matrix(1.0, 0.0, 0.0, 1.0, 0.0, 0.0)">
    <path d="M416.05 288.0 L0.05 288.0 0.05 0.0 416.05 0.0 416.05 288.0" fill="#cccccc" fill-rule="evenodd" stroke="none"/>
    <path d="M416.0 235.0 L0.0 235.0 0.0 222.0 416.0 222.0 416.0 235.0" fill="#989898" fill-rule="evenodd" stroke="none"/>
    <path d="M411.45 223.5 L5.5 223.5 5.5 36.5 411.45 36.5 411.45 223.5" fill="#ffcc00" fill-rule="evenodd" stroke="none"/>
    <path d="M336.95 57.0 Q351.95 57.0 351.95 72.0 L351.95 172.0 Q351.95 187.0 336.95 187.0 L83.0 187.0 Q68.0 187.0 68.0 172.0 L68.0 72.0 Q68.0 57.0 83.0 57.0 L336.95 57.0" fill="#fef200" fill-rule="evenodd" stroke="none"/>
  </g>
</svg>
