<?xml version="1.0" encoding="UTF-8" standalone="no"?>
<svg xmlns:ffdec="https://www.free-decompiler.com/flash" xmlns:xlink="http://www.w3.org/1999/xlink" ffdec:objectType="shape" height="238.35px" width="417.0px" xmlns="http://www.w3.org/2000/svg">
  <g transform="matrix(1.0, 0.0, 0.0, 1.0, 0.5, 9.85)">
    <path d="M395.45 8.5 L14.5 8.5 Q8.35 8.5 6.0 12.25 L6.0 3.5 412.5 3.5 412.5 223.5 396.1 223.5 Q405.45 223.2 405.45 213.5 L405.45 18.5 Q405.45 8.5 395.45 8.5 M6.0 223.5 L6.0 219.75 Q8.25 223.3 13.9 223.5 L6.0 223.5" fill="#000000" fill-opacity="0.2509804" fill-rule="evenodd" stroke="none"/>
    <path d="M0.0 -8.85 L416.0 -8.85 416.0 2.45 0.0 2.45 0.0 -8.85" fill="#164d0a" fill-rule="evenodd" stroke="none"/>
    <path d="M0.0 -8.85 L-0.35 -9.0 -0.5 -9.35 -0.35 -9.7 0.0 -9.85 416.05 -9.85 416.05 -8.85 416.0 -8.85 0.0 -8.85" fill="#003300" fill-rule="evenodd" stroke="none"/>
    <path d="M0.0 -8.85 L416.0 -8.85" fill="none" stroke="#61a749" stroke-linecap="round" stroke-linejoin="round" stroke-width="1.0"/>
    <path d="M398.95 5.0 L18.0 5.0 Q8.0 5.0 8.0 15.0 L8.0 210.0 Q8.0 220.0 18.0 220.0 L398.95 220.0 Q408.95 220.0 408.95 210.0 L408.95 15.0 Q408.95 5.0 398.95 5.0 M0.0 228.0 L0.0 0.0 416.0 0.0 416.0 228.0 0.0 228.0" fill="#164d0a" fill-rule="evenodd" stroke="none"/>
    <path d="M416.0 228.0 L0.0 228.0" fill="none" stroke="#000000" stroke-linecap="round" stroke-linejoin="round" stroke-width="1.0"/>
  </g>
</svg>
