<?xml version="1.0" encoding="UTF-8" standalone="no"?>
<svg xmlns:ffdec="https://www.free-decompiler.com/flash" xmlns:xlink="http://www.w3.org/1999/xlink" ffdec:objectType="shape" height="294.7px" width="577.8px" xmlns="http://www.w3.org/2000/svg">
  <g transform="matrix(1.0, 0.0, 0.0, 1.0, 0.0, 0.0)">
    <path d="M562.8 0.0 Q577.8 0.0 577.8 15.0 L577.8 279.75 Q577.8 294.7 562.8 294.7 L15.0 294.7 Q0.0 294.7 0.0 279.75 L0.0 15.0 Q0.0 0.0 15.0 0.0 L562.8 0.0" fill="#260e00" fill-rule="evenodd" stroke="none"/>
    <path d="M556.8 6.5 L9.0 6.5 Q4.3 6.5 1.1 7.95 4.05 0.0 15.0 0.0 L562.8 0.0 Q577.8 0.0 577.8 15.0 L577.8 279.75 Q577.8 290.05 570.7 293.25 571.8 290.3 571.8 286.25 L571.8 21.5 Q571.8 6.5 556.8 6.5" fill="#000000" fill-rule="evenodd" stroke="none"/>
  </g>
</svg>
