<?xml version="1.0" encoding="UTF-8" standalone="no"?>
<svg xmlns:ffdec="https://www.free-decompiler.com/flash" xmlns:xlink="http://www.w3.org/1999/xlink" ffdec:objectType="shape" height="293.4px" width="575.5px" xmlns="http://www.w3.org/2000/svg">
  <g transform="matrix(1.0, 0.0, 0.0, 1.0, -12.5, -13.15)">
    <path d="M12.5 28.15 Q12.5 13.15 27.5 13.15 L68.5 13.15 68.5 121.1 12.5 121.1 12.5 28.15 M573.0 13.15 Q588.0 13.15 588.0 28.15 L588.0 291.55 Q588.0 306.55 573.0 306.55 L68.55 306.55 68.55 121.15 547.5 121.15 547.5 121.1 68.55 121.1 68.55 13.15 573.0 13.15 M68.5 121.15 L68.5 306.55 27.5 306.55 Q12.5 306.55 12.5 291.55 L12.5 121.15 68.5 121.15" fill="#ffff00" fill-rule="evenodd" stroke="none"/>
  </g>
</svg>
