<?xml version="1.0" encoding="UTF-8" standalone="no"?>
<svg xmlns:ffdec="https://www.free-decompiler.com/flash" xmlns:xlink="http://www.w3.org/1999/xlink" ffdec:objectType="shape" height="37.95px" width="321.0px" xmlns="http://www.w3.org/2000/svg">
  <g transform="matrix(1.0, 0.0, 0.0, 1.0, -61.0, 6.0)">
    <path d="M360.55 -0.8 L360.5 -0.75 Q360.0 -0.15 360.0 0.75 360.0 1.6 360.5 2.25 L360.55 2.25 Q360.9 2.7 361.4 2.75 361.9 2.7 362.3 2.25 362.8 1.6 362.8 0.75 362.8 -0.15 362.3 -0.8 L362.1 -1.0 361.65 -1.0 360.85 -1.05 360.55 -0.8 M358.1 -2.55 L357.95 -2.75 357.9 -2.75 Q356.75 -4.15 356.55 -6.0 L359.6 -6.0 Q359.7 -5.3 360.2 -4.75 L360.2 -4.7 360.85 -4.2 361.4 -4.25 362.35 -4.15 363.05 -4.7 363.1 -4.75 363.75 -6.0 366.75 -6.0 Q366.55 -4.15 365.35 -2.75 L364.9 -2.3 Q365.8 -1.0 365.8 0.75 365.8 2.75 364.65 4.15 L364.6 4.2 Q363.3 5.8 361.4 5.75 359.5 5.8 358.2 4.2 L358.2 4.15 Q357.0 2.75 357.0 0.75 357.0 -1.15 358.1 -2.55 M79.65 -1.0 L78.85 -1.05 78.55 -0.8 78.5 -0.75 Q78.0 -0.15 78.0 0.75 78.0 1.6 78.5 2.25 L78.55 2.25 79.4 2.75 Q79.9 2.7 80.3 2.25 80.8 1.6 80.8 0.75 80.8 -0.15 80.3 -0.8 L80.1 -1.0 79.65 -1.0 M75.95 -2.75 L75.9 -2.75 Q74.75 -4.15 74.55 -6.0 L77.6 -6.0 Q77.7 -5.3 78.2 -4.75 L78.2 -4.7 78.85 -4.2 79.4 -4.25 80.35 -4.15 81.05 -4.7 81.1 -4.75 81.75 -6.0 84.75 -6.0 Q84.55 -4.15 83.35 -2.75 L82.9 -2.3 Q83.8 -1.0 83.8 0.75 83.8 2.75 82.65 4.15 L82.6 4.2 Q81.3 5.8 79.4 5.75 77.5 5.8 76.2 4.2 L76.2 4.15 Q75.0 2.75 75.0 0.75 75.0 -1.15 76.1 -2.55 L75.95 -2.75" fill="#333333" fill-rule="evenodd" stroke="none"/>
    <path d="M380.4 0.0 L382.0 3.6 382.0 4.0 382.0 31.95 62.45 31.95 62.45 31.75 62.6 31.5 Q61.1 29.85 61.0 26.25 L62.45 26.25 62.45 4.0 380.4 4.0 380.4 0.0" fill="#666666" fill-rule="evenodd" stroke="none"/>
    <path d="M380.55 27.95 L61.0 27.95 61.0 0.0 380.55 0.0 380.55 27.95" fill="#999999" fill-rule="evenodd" stroke="none"/>
  </g>
</svg>
