<?xml version="1.0" encoding="UTF-8" standalone="no"?>
<svg xmlns:ffdec="https://www.free-decompiler.com/flash" xmlns:xlink="http://www.w3.org/1999/xlink" ffdec:objectType="shape" height="47.8px" width="47.75px" xmlns="http://www.w3.org/2000/svg">
  <g transform="matrix(1.0, 0.0, 0.0, 1.0, 23.9, 23.9)">
    <path d="M15.5 -15.5 Q21.9 -9.1 21.9 0.0 21.9 9.1 15.5 15.5 9.1 21.9 0.0 21.9 -9.1 21.9 -15.5 15.5 -21.9 9.1 -21.9 0.0 -21.9 -9.1 -15.5 -15.5 -9.1 -21.9 0.0 -21.9 9.1 -21.9 15.5 -15.5" fill="#ffffff" fill-rule="evenodd" stroke="none"/>
    <path d="M9.45 -19.85 Q6.8 -21.1 3.8 -21.6 M20.3 -8.45 Q19.15 -11.2 17.2 -13.65 M-14.6 -16.35 L-15.5 -15.5 -18.55 -11.8 M-17.9 12.7 L-15.5 15.5 -13.7 17.1 M-21.75 -2.55 L-21.9 0.0 -21.65 3.55 M20.75 7.2 Q21.7 4.35 21.85 1.15 M10.8 19.15 Q13.3 17.7 15.5 15.5 M-4.8 21.45 L0.0 21.9 1.2 21.85 M0.0 -21.9 L-5.9 -21.15" fill="none" stroke="#990000" stroke-linecap="round" stroke-linejoin="round" stroke-width="4.0"/>
  </g>
</svg>
