<?xml version="1.0" encoding="UTF-8" standalone="no"?>
<svg xmlns:ffdec="https://www.free-decompiler.com/flash" xmlns:xlink="http://www.w3.org/1999/xlink" ffdec:objectType="shape" height="179.0px" width="296.95px" xmlns="http://www.w3.org/2000/svg">
  <g transform="matrix(1.0, 0.0, 0.0, 1.0, 2.0, 2.0)">
    <path d="M244.95 10.0 Q265.65 10.0 280.3 24.65 294.95 39.3 294.95 60.0 L294.95 127.0 Q294.95 147.7 280.3 162.35 265.65 177.0 244.95 177.0 L58.0 177.0 Q37.3 177.0 22.65 162.35 8.0 147.7 8.0 127.0 L8.0 60.0 Q8.0 39.3 22.65 24.65 37.3 10.0 58.0 10.0 L244.95 10.0" fill="#999999" fill-rule="evenodd" stroke="none"/>
    <path d="M272.3 14.65 Q286.95 29.3 286.95 50.0 L286.95 117.0 Q286.95 137.7 272.3 152.35 257.65 167.0 236.95 167.0 L50.0 167.0 Q29.3 167.0 14.65 152.35 0.0 137.7 0.0 117.0 L0.0 50.0 Q0.0 29.3 14.65 14.65 29.3 0.0 50.0 0.0 L236.95 0.0 Q257.65 0.0 272.3 14.65" fill="#cccccc" fill-rule="evenodd" stroke="none"/>
    <path d="M49.2 -1.0 L229.45 -1.0 Q249.4 -1.0 263.55 13.15 277.65 27.25 277.65 47.2 L277.65 111.8 Q277.65 131.75 263.55 145.9 249.4 160.0 229.45 160.0 L49.2 160.0 Q29.25 160.0 15.15 145.9 1.0 131.75 1.0 111.8 L1.0 47.2 Q1.0 27.25 15.15 13.15 29.25 -1.0 49.2 -1.0" fill="#ffffff" fill-rule="evenodd" stroke="none"/>
    <path d="M272.3 14.65 Q257.65 0.0 236.95 0.0 L50.0 0.0 Q29.3 0.0 14.65 14.65 0.0 29.3 0.0 50.0 L0.0 117.0 Q0.0 137.7 14.65 152.35 29.3 167.0 50.0 167.0 L236.95 167.0 Q257.65 167.0 272.3 152.35 286.95 137.7 286.95 117.0 L286.95 50.0 Q286.95 29.3 272.3 14.65 Z" fill="none" stroke="#b78204" stroke-linecap="round" stroke-linejoin="round" stroke-width="4.0"/>
  </g>
</svg>
