<?xml version="1.0" encoding="UTF-8" standalone="no"?>
<svg xmlns:ffdec="https://www.free-decompiler.com/flash" xmlns:xlink="http://www.w3.org/1999/xlink" ffdec:objectType="shape" height="43.25px" width="146.55px" xmlns="http://www.w3.org/2000/svg">
  <g transform="matrix(1.0, 0.0, 0.0, 1.0, 73.25, 21.6)">
    <path d="M65.4 -9.0 Q61.0 -11.05 51.05 -12.3 L-9.5 -16.6 Q-23.25 -15.3 -28.7 -13.85 -28.95 -13.25 -28.95 -14.5 -28.95 -15.25 -28.4 -15.45 -27.8 -15.7 -27.75 -15.8 L-27.5 -16.05 Q-50.85 -11.9 -60.0 -7.95 -70.25 -3.6 -70.25 3.25 -70.25 7.4 -68.0 9.85 -65.25 12.85 -58.5 14.6 -44.05 18.45 -1.85 18.45 32.8 18.45 52.05 12.2 70.05 6.35 70.05 -3.25 70.05 -6.85 65.4 -9.0 M69.9 -9.6 Q73.3 -7.15 73.3 -3.1 73.3 8.1 54.8 14.65 35.0 21.65 -1.75 21.65 -49.35 21.65 -64.25 15.9 -70.25 13.6 -72.1 10.0 -73.25 7.85 -73.25 3.25 -73.25 -6.35 -50.95 -14.1 -29.2 -21.6 -3.75 -21.6 2.95 -21.6 25.4 -18.85 L53.05 -15.1 Q65.25 -13.0 69.9 -9.6" fill="#ff0000" fill-rule="evenodd" stroke="none"/>
  </g>
</svg>
