<?xml version="1.0" encoding="UTF-8" standalone="no"?>
<svg xmlns:ffdec="https://www.free-decompiler.com/flash" xmlns:xlink="http://www.w3.org/1999/xlink" ffdec:objectType="shape" height="22.25px" width="86.75px" xmlns="http://www.w3.org/2000/svg">
  <g transform="matrix(1.0, 0.0, 0.0, 1.0, 68.85, 24.35)">
    <path d="M17.9 -22.35 L17.8 -21.4 Q17.8 -20.0 11.5 -18.5 5.85 -17.1 2.75 -17.1 L-0.45 -17.25 -3.25 -17.1 -12.45 -17.4 -13.6 -17.1 -18.5 -17.5 Q-23.75 -17.5 -27.8 -16.05 L-27.95 -16.55 -29.35 -15.85 Q-32.85 -14.1 -33.25 -14.1 L-34.95 -14.4 -35.2 -14.0 Q-35.75 -13.1 -37.0 -13.1 L-37.65 -13.15 -38.1 -12.75 Q-41.6 -9.6 -45.0 -9.6 L-48.8 -10.05 Q-50.0 -9.35 -52.1 -8.35 -56.9 -6.1 -57.75 -6.1 L-58.5 -6.15 -60.7 -4.75 Q-65.1 -2.1 -65.5 -2.1 -68.65 -2.1 -68.85 -6.1 -68.85 -6.9 -64.75 -9.85 -60.6 -12.85 -59.25 -12.85 L-58.95 -12.85 Q-57.1 -15.85 -51.25 -15.85 L-50.65 -15.8 Q-49.8 -17.05 -47.7 -18.4 -43.95 -20.85 -40.5 -20.85 L-38.1 -20.2 -35.3 -21.05 Q-34.2 -21.85 -31.5 -21.85 -28.6 -21.85 -27.0 -20.55 L-27.0 -20.6 Q-25.05 -21.85 -17.75 -21.85 L-14.25 -21.75 -13.0 -22.85 Q-10.75 -24.35 -7.25 -24.35 -3.95 -24.35 -1.8 -23.35 L2.0 -23.85 16.8 -23.15 Q17.85 -22.85 17.9 -22.35" fill="#000000" fill-rule="evenodd" stroke="none"/>
  </g>
</svg>
