<?xml version="1.0" encoding="UTF-8" standalone="no"?>
<svg xmlns:ffdec="https://www.free-decompiler.com/flash" xmlns:xlink="http://www.w3.org/1999/xlink" ffdec:objectType="shape" height="57.0px" width="107.65px" xmlns="http://www.w3.org/2000/svg">
  <g transform="matrix(1.0, 0.0, 0.0, 1.0, 89.75, 34.8)">
    <path d="M2.75 -17.1 L-0.45 -17.25 -3.25 -17.1 -12.45 -17.4 -13.6 -17.1 -18.5 -17.5 Q-23.75 -17.5 -27.8 -16.05 L-27.95 -16.55 -29.35 -15.85 -31.75 -14.65 -31.75 5.2 -62.75 5.2 -62.75 10.7 -63.25 10.7 -63.25 11.2 -55.25 11.2 -55.25 22.2 -68.75 22.2 -68.75 16.7 -75.75 16.7 -75.75 10.7 -79.25 10.7 -79.25 5.2 -89.75 5.2 -89.75 -34.8 -31.75 -34.8 -31.75 -21.85 -31.5 -21.85 Q-28.6 -21.85 -27.0 -20.55 L-27.0 -20.6 Q-25.05 -21.85 -17.75 -21.85 L-14.25 -21.75 -13.0 -22.85 Q-10.75 -24.35 -7.25 -24.35 -3.95 -24.35 -1.8 -23.35 L2.0 -23.85 16.8 -23.15 Q17.85 -22.85 17.9 -22.35 L17.8 -21.4 Q17.8 -20.0 11.5 -18.5 5.85 -17.1 2.75 -17.1" fill="#000000" fill-rule="evenodd" stroke="none"/>
  </g>
</svg>
