<?xml version="1.0" encoding="UTF-8" standalone="no"?>
<svg xmlns:ffdec="https://www.free-decompiler.com/flash" xmlns:xlink="http://www.w3.org/1999/xlink" ffdec:objectType="shape" height="72.5px" width="189.0px" xmlns="http://www.w3.org/2000/svg">
  <g transform="matrix(1.0, 0.0, 0.0, 1.0, 92.25, 34.8)">
    <path d="M23.25 -21.8 L37.75 -21.8 37.75 -22.3 46.25 -22.3 46.25 -22.8 96.75 -22.8 96.75 37.7 -92.25 37.7 -92.25 -7.3 -89.75 -7.3 -89.75 -34.8 -31.75 -34.8 -31.75 -21.85 -31.5 -21.85 Q-28.6 -21.85 -27.0 -20.55 L-27.0 -20.6 Q-25.05 -21.85 -17.75 -21.85 L-14.25 -21.75 -13.0 -22.85 Q-10.75 -24.35 -7.25 -24.35 -3.95 -24.35 -1.8 -23.35 L2.0 -23.85 11.75 -23.65 11.75 -24.3 23.25 -24.3 23.25 -21.8 M-31.75 -7.3 L-15.25 -7.3 -15.25 -17.35 -18.5 -17.5 Q-23.75 -17.5 -27.8 -16.05 L-27.95 -16.55 -29.35 -15.85 -31.75 -14.65 -31.75 -7.3" fill="#000000" fill-rule="evenodd" stroke="none"/>
  </g>
</svg>
