<?xml version="1.0" encoding="UTF-8" standalone="no"?>
<svg xmlns:ffdec="https://www.free-decompiler.com/flash" xmlns:xlink="http://www.w3.org/1999/xlink" ffdec:objectType="shape" height="51.75px" width="59.75px" xmlns="http://www.w3.org/2000/svg">
  <g transform="matrix(1.0, 0.0, 0.0, 1.0, 29.85, 25.85)">
    <path d="M28.3 -7.8 Q29.9 -4.25 29.9 -1.85 29.9 5.7 23.9 13.9 15.1 25.9 -1.6 25.9 -18.6 25.9 -25.85 14.9 -29.85 8.85 -29.85 2.9 -29.85 -3.5 -26.15 -9.8 -19.9 -20.35 -6.1 -20.35 0.9 -20.35 2.15 -19.1 -3.35 -18.7 -12.6 -14.7 -21.1 -11.1 -22.85 -9.1 -26.35 -5.0 -26.35 1.75 -26.35 8.3 -22.6 13.4 -16.35 21.9 -1.6 21.9 13.25 21.9 20.95 10.9 23.5 7.25 24.9 2.85 25.9 -0.3 25.9 -1.85 25.9 -8.8 18.1 -14.55 7.55 -22.25 -12.6 -21.6 L-9.65 -24.45 Q-7.4 -25.85 -3.1 -25.85 13.4 -25.85 22.95 -15.8 26.35 -12.2 28.3 -7.8" fill="#ff0000" fill-rule="evenodd" stroke="none"/>
  </g>
</svg>
