<?xml version="1.0" encoding="UTF-8" standalone="no"?>
<svg xmlns:ffdec="https://www.free-decompiler.com/flash" xmlns:xlink="http://www.w3.org/1999/xlink" ffdec:objectType="shape" height="10.0px" width="22.0px" xmlns="http://www.w3.org/2000/svg">
  <g transform="matrix(1.0, 0.0, 0.0, 1.0, 17.75, 20.75)">
    <path d="M4.25 -17.9 Q4.25 -16.35 1.0 -16.75 L-2.8 -17.5 Q-3.35 -17.5 -4.6 -16.6 -5.8 -15.75 -7.0 -15.75 L-7.6 -15.75 Q-8.5 -13.3 -11.25 -14.25 -10.5 -10.75 -13.5 -10.75 -17.1 -10.75 -17.75 -16.55 -17.75 -18.1 -15.85 -19.4 -13.85 -20.75 -11.25 -20.75 L-8.65 -20.45 -4.0 -20.75 3.2 -20.2 Q3.35 -19.25 4.05 -18.5 4.25 -19.15 4.25 -17.9" fill="#000000" fill-rule="evenodd" stroke="none"/>
  </g>
</svg>
