<?xml version="1.0" encoding="UTF-8" standalone="no"?>
<svg xmlns:ffdec="https://www.free-decompiler.com/flash" xmlns:xlink="http://www.w3.org/1999/xlink" ffdec:objectType="shape" height="63.0px" width="39.2px" xmlns="http://www.w3.org/2000/svg">
  <g transform="matrix(1.0, 0.0, 0.0, 1.0, 34.95, 22.8)">
    <path d="M1.0 -16.75 L-2.8 -17.5 Q-3.35 -17.5 -4.6 -16.6 -5.8 -15.75 -7.0 -15.75 L-7.6 -15.75 Q-8.35 -13.7 -10.45 -14.05 L-10.45 40.2 -34.95 40.2 -34.95 -18.3 -25.95 -18.3 -25.95 -22.8 -14.95 -22.8 -14.95 -19.9 Q-13.3 -20.75 -11.25 -20.75 L-8.65 -20.45 -4.0 -20.75 3.2 -20.2 Q3.35 -19.25 4.05 -18.5 4.25 -19.15 4.25 -17.9 4.25 -16.35 1.0 -16.75" fill="#000000" fill-rule="evenodd" stroke="none"/>
  </g>
</svg>
