<?xml version="1.0" encoding="UTF-8" standalone="no"?>
<svg xmlns:ffdec="https://www.free-decompiler.com/flash" xmlns:xlink="http://www.w3.org/1999/xlink" ffdec:objectType="shape" height="68.0px" width="67.0px" xmlns="http://www.w3.org/2000/svg">
  <g transform="matrix(1.0, 0.0, 0.0, 1.0, 34.95, 27.8)">
    <path d="M1.55 -16.7 L1.0 -16.75 -2.8 -17.5 Q-3.35 -17.5 -4.6 -16.6 -5.8 -15.75 -7.0 -15.75 L-7.6 -15.75 Q-8.35 -13.7 -10.45 -14.05 L-10.45 16.2 -4.95 16.2 -4.95 17.2 -0.45 17.2 -0.45 16.7 9.05 16.7 9.05 14.2 16.05 14.2 16.05 11.2 20.05 11.2 20.05 4.2 21.05 4.2 21.05 2.7 20.55 2.7 20.55 -2.3 11.05 -2.3 11.05 -7.3 10.05 -7.3 10.05 -13.8 1.55 -13.8 1.55 -16.7 M32.05 -2.8 L32.05 8.2 30.55 8.2 30.55 16.7 28.55 16.7 28.55 28.2 18.55 28.2 18.55 29.2 9.05 29.2 9.05 28.7 -4.95 28.7 -4.95 30.2 -10.45 30.2 -10.45 40.2 -34.95 40.2 -34.95 -18.3 -25.95 -18.3 -25.95 -22.8 -14.95 -22.8 -14.95 -19.9 Q-13.3 -20.75 -11.25 -20.75 L-8.65 -20.45 -4.0 -20.75 1.55 -20.55 1.55 -27.8 22.05 -27.8 22.05 -17.3 28.55 -17.3 28.55 -9.8 31.55 -9.8 31.55 -2.8 32.05 -2.8" fill="#000000" fill-rule="evenodd" stroke="none"/>
  </g>
</svg>
