<?xml version="1.0" encoding="UTF-8" standalone="no"?>
<svg xmlns:ffdec="https://www.free-decompiler.com/flash" xmlns:xlink="http://www.w3.org/1999/xlink" ffdec:objectType="shape" height="3.0px" width="277.0px" xmlns="http://www.w3.org/2000/svg">
  <g transform="matrix(1.0, 0.0, 0.0, 1.0, 1.5, 1.5)">
    <path d="M256.0 0.0 L250.0 0.0 M274.0 0.0 L268.0 0.0 M220.0 0.0 L214.0 0.0 M238.0 0.0 L232.0 0.0 M184.0 0.0 L178.0 0.0 M202.0 0.0 L196.0 0.0 M130.0 0.0 L124.0 0.0 M148.0 0.0 L142.0 0.0 M94.0 0.0 L88.0 0.0 M112.0 0.0 L106.0 0.0 M58.0 0.0 L52.0 0.0 M76.0 0.0 L70.0 0.0 M4.0 0.0 L0.0 0.0 M22.0 0.0 L16.0 0.0 M40.0 0.0 L34.0 0.0 M166.0 0.0 L160.0 0.0" fill="none" stroke="#ff0000" stroke-linecap="round" stroke-linejoin="round" stroke-opacity="0.7019608" stroke-width="3.0"/>
  </g>
</svg>
