<?xml version="1.0" encoding="UTF-8" standalone="no"?>
<svg xmlns:ffdec="https://www.free-decompiler.com/flash" xmlns:xlink="http://www.w3.org/1999/xlink" ffdec:objectType="shape" height="125.8px" width="9.5px" xmlns="http://www.w3.org/2000/svg">
  <g transform="matrix(1.0, 0.0, 0.0, 1.0, -57.25, -5.05)">
    <path d="M65.25 77.2 L65.25 129.35 58.75 129.35 58.75 77.25 62.65 77.25 65.25 77.2" fill="#999999" fill-rule="evenodd" stroke="none"/>
    <path d="M58.75 77.25 L58.75 6.55 65.25 6.55 65.25 77.2 62.65 77.25 58.75 77.25" fill="#666666" fill-rule="evenodd" stroke="none"/>
    <path d="M66.55 5.3 L66.75 5.8 66.75 130.1 66.55 130.65 66.0 130.85 58.0 130.85 57.5 130.65 57.25 130.1 57.25 5.8 Q57.25 5.5 57.5 5.3 57.7 5.05 58.0 5.05 L66.0 5.05 66.55 5.3 M65.25 77.2 L65.25 6.55 58.75 6.55 58.75 77.25 58.75 129.35 65.25 129.35 65.25 77.2" fill="#333333" fill-rule="evenodd" stroke="none"/>
  </g>
</svg>
