<?xml version="1.0" encoding="UTF-8" standalone="no"?>
<svg xmlns:ffdec="https://www.free-decompiler.com/flash" xmlns:xlink="http://www.w3.org/1999/xlink" ffdec:objectType="shape" height="76.7px" width="123.8px" xmlns="http://www.w3.org/2000/svg">
  <g transform="matrix(1.0, 0.0, 0.0, 1.0, -1.55, 1.5)">
    <path d="M104.9 26.2 L104.95 23.6 113.85 23.55 113.7 50.4 113.3 50.4 104.7 50.25 95.0 37.6 94.95 42.55 94.9 50.25 94.55 50.25 86.25 50.1 86.4 26.2 86.45 23.75 95.05 23.7 103.45 34.5 104.85 36.3 104.9 26.2 M81.7 33.3 L82.05 33.3 82.05 40.5 81.7 40.55 72.05 40.45 72.05 42.7 81.7 42.75 82.05 42.7 82.05 50.0 81.7 50.0 63.65 49.8 63.75 26.4 63.75 23.9 82.15 23.75 82.15 31.0 81.8 31.0 72.1 31.05 72.1 33.3 81.7 33.3 M50.0 35.6 L50.9 35.05 51.45 33.4 Q51.45 32.45 50.9 31.8 50.25 31.05 49.35 31.1 L45.65 31.15 45.65 34.5 45.65 35.75 49.35 35.75 50.0 35.6 M37.7 26.55 L37.65 24.1 51.55 23.95 Q54.85 23.95 57.25 26.75 59.65 29.35 59.65 33.25 L59.3 35.9 Q58.7 38.0 57.2 39.9 54.7 42.6 51.4 42.5 L45.6 42.5 45.55 45.9 45.5 49.55 45.25 49.55 37.55 49.4 37.7 26.55 M24.6 39.9 Q25.75 38.5 25.85 36.75 25.8 34.8 24.55 33.5 23.3 32.05 21.5 32.1 19.6 32.1 18.4 33.45 17.05 34.75 17.15 36.75 L17.2 37.65 Q17.4 38.9 18.4 39.9 19.6 41.25 21.45 41.3 23.25 41.3 24.55 40.0 24.5 39.9 24.6 39.9 M33.3 39.8 Q32.5 43.15 30.0 45.9 26.3 49.55 21.4 49.5 16.3 49.4 12.85 45.65 9.35 41.95 9.45 36.7 9.45 34.45 10.05 32.7 10.85 29.8 13.0 27.75 16.5 23.85 21.55 23.9 26.5 23.85 30.15 27.55 33.7 31.3 33.7 36.75 L33.3 39.8" fill="#ffffff" fill-rule="evenodd" stroke="none"/>
    <path d="M120.55 70.3 L120.9 2.9 6.3 5.55 5.75 67.15 120.55 70.3 M2.8 2.4 L124.6 -0.75 124.2 74.45 2.3 70.75 2.8 2.4" fill="#a6d3a0" fill-rule="evenodd" stroke="none"/>
    <path d="M113.3 50.4 L113.7 50.4 113.85 23.55 104.95 23.6 104.9 26.2 104.05 26.15 Q103.75 26.1 103.7 26.3 103.45 26.35 103.5 26.7 L103.45 34.5 95.05 23.7 86.45 23.75 86.4 26.2 85.55 26.2 Q85.2 26.15 85.2 26.35 L85.0 26.7 84.85 53.05 85.0 53.4 85.35 53.55 94.05 53.7 94.4 53.6 94.55 53.2 94.55 50.25 94.9 50.25 94.95 42.55 103.45 53.65 103.6 53.8 103.9 53.85 112.8 53.95 113.15 53.85 113.25 53.5 113.3 50.4 M81.7 33.3 L81.8 31.0 82.15 31.0 82.15 23.75 63.75 23.9 63.75 26.4 63.0 26.3 Q62.7 26.3 62.65 26.45 62.45 26.55 62.5 26.85 L62.3 52.75 62.45 53.05 62.8 53.2 81.15 53.45 81.5 53.3 81.65 52.95 81.7 50.0 82.05 50.0 82.05 42.7 81.7 42.75 81.7 40.55 82.05 40.5 82.05 33.3 81.7 33.3 M120.55 70.3 L5.75 67.15 6.3 5.55 120.9 2.9 120.55 70.3 M45.65 34.5 L48.5 34.55 Q49.2 34.45 49.65 35.05 L49.65 35.0 50.0 35.6 49.35 35.75 45.65 35.75 45.65 34.5 M59.3 35.9 L59.65 33.25 Q59.65 29.35 57.25 26.75 54.85 23.95 51.55 23.95 L37.65 24.1 37.7 26.55 36.85 26.55 Q36.6 26.5 36.55 26.7 36.35 26.75 36.4 27.05 L36.25 52.35 36.4 52.65 36.75 52.8 44.75 52.9 45.05 52.85 45.2 52.5 45.25 49.55 45.5 49.55 45.55 45.9 50.55 45.95 Q54.05 45.9 56.65 43.05 59.15 40.15 59.3 36.2 L59.3 35.9 M17.2 37.65 Q17.4 37.1 17.95 36.6 19.05 35.4 20.75 35.45 22.25 35.3 23.45 36.65 24.55 37.8 24.6 39.6 L24.6 39.9 Q24.5 39.9 24.55 40.0 23.25 41.3 21.45 41.3 19.6 41.25 18.4 39.9 17.4 38.9 17.2 37.65 M10.05 32.7 Q8.25 35.6 8.25 39.55 8.2 44.9 11.8 48.85 15.3 52.75 20.55 52.9 25.7 52.8 29.55 49.1 33.2 45.2 33.3 39.8 L33.7 36.75 Q33.7 31.3 30.15 27.55 26.5 23.85 21.55 23.9 16.5 23.85 13.0 27.75 10.85 29.8 10.05 32.7" fill="#3e7737" fill-rule="evenodd" stroke="none"/>
    <path d="M113.3 50.4 L113.25 53.5 113.15 53.85 112.8 53.95 103.9 53.85 103.6 53.8 103.45 53.65 94.95 42.55 95.0 37.6 104.7 50.25 113.3 50.4 M94.55 50.25 L94.55 53.2 94.4 53.6 94.05 53.7 85.35 53.55 85.0 53.4 84.85 53.05 85.0 26.7 85.2 26.35 Q85.2 26.15 85.55 26.2 L86.4 26.2 86.25 50.1 94.55 50.25 M103.45 34.5 L103.5 26.7 Q103.45 26.35 103.7 26.3 103.75 26.1 104.05 26.15 L104.9 26.2 104.85 36.3 103.45 34.5 M81.8 31.0 L81.7 33.3 72.1 33.3 72.1 31.05 81.8 31.0 M81.7 40.55 L81.7 42.75 72.05 42.7 72.05 40.45 81.7 40.55 M81.7 50.0 L81.65 52.95 81.5 53.3 81.15 53.45 62.8 53.2 62.45 53.05 62.3 52.75 62.5 26.85 Q62.45 26.55 62.65 26.45 62.7 26.3 63.0 26.3 L63.75 26.4 63.65 49.8 81.7 50.0 M45.65 34.5 L45.65 31.15 49.35 31.1 Q50.25 31.05 50.9 31.8 51.45 32.45 51.45 33.4 L50.9 35.05 50.0 35.6 49.65 35.0 49.65 35.05 Q49.2 34.45 48.5 34.55 L45.65 34.5 M37.7 26.55 L37.55 49.4 45.25 49.55 45.2 52.5 45.05 52.85 44.75 52.9 36.75 52.8 36.4 52.65 36.25 52.35 36.4 27.05 Q36.35 26.75 36.55 26.7 36.6 26.5 36.85 26.55 L37.7 26.55 M45.55 45.9 L45.6 42.5 51.4 42.5 Q54.7 42.6 57.2 39.9 58.7 38.0 59.3 35.9 L59.3 36.2 Q59.15 40.15 56.65 43.05 54.05 45.9 50.55 45.95 L45.55 45.9 M17.2 37.65 L17.15 36.75 Q17.05 34.75 18.4 33.45 19.6 32.1 21.5 32.1 23.3 32.05 24.55 33.5 25.8 34.8 25.85 36.75 25.75 38.5 24.6 39.9 L24.6 39.6 Q24.55 37.8 23.45 36.65 22.25 35.3 20.75 35.45 19.05 35.4 17.95 36.6 17.4 37.1 17.2 37.65 M10.05 32.7 Q9.45 34.45 9.45 36.7 9.35 41.95 12.85 45.65 16.3 49.4 21.4 49.5 26.3 49.55 30.0 45.9 32.5 43.15 33.3 39.8 33.2 45.2 29.55 49.1 25.7 52.8 20.55 52.9 15.3 52.75 11.8 48.85 8.2 44.9 8.25 39.55 8.25 35.6 10.05 32.7" fill="#374a37" fill-rule="evenodd" stroke="none"/>
    <path d="M2.8 2.4 L124.6 -0.75 124.2 74.45 2.3 70.75 2.8 2.4" fill="none" stroke="#608060" stroke-linecap="round" stroke-linejoin="round" stroke-width="1.5"/>
    <path d="M120.55 70.3 L5.75 67.15 6.3 5.55 120.9 2.9 120.55 70.3" fill="none" stroke="#374a37" stroke-linecap="round" stroke-linejoin="round" stroke-width="1.5"/>
    <path d="M104.9 26.2 L104.95 23.6 113.85 23.55 113.7 50.4 113.3 50.4 104.7 50.25 95.0 37.6 94.95 42.55 94.9 50.25 94.55 50.25 86.25 50.1 86.4 26.2 86.45 23.75 95.05 23.7 103.45 34.5 104.85 36.3 104.9 26.2 M81.7 33.3 L82.05 33.3 82.05 40.5 81.7 40.55 72.05 40.45 72.05 42.7 81.7 42.75 82.05 42.7 82.05 50.0 81.7 50.0 63.65 49.8 63.75 26.4 63.75 23.9 82.15 23.75 82.15 31.0 81.8 31.0 72.1 31.05 72.1 33.3 81.7 33.3 M50.0 35.6 L50.9 35.05 51.45 33.4 Q51.45 32.45 50.9 31.8 50.25 31.05 49.35 31.1 L45.65 31.15 45.65 34.5 45.65 35.75 49.35 35.75 50.0 35.6 M59.3 35.9 L59.65 33.25 Q59.65 29.35 57.25 26.75 54.85 23.95 51.55 23.95 L37.65 24.1 37.7 26.55 37.55 49.4 45.25 49.55 45.5 49.55 45.55 45.9 45.6 42.5 51.4 42.5 Q54.7 42.6 57.2 39.9 58.7 38.0 59.3 35.9 M24.6 39.9 Q25.75 38.5 25.85 36.75 25.8 34.8 24.55 33.5 23.3 32.05 21.5 32.1 19.6 32.1 18.4 33.45 17.05 34.75 17.15 36.75 L17.2 37.65 Q17.4 38.9 18.4 39.9 19.6 41.25 21.45 41.3 23.25 41.3 24.55 40.0 24.5 39.9 24.6 39.9 M33.3 39.8 Q32.5 43.15 30.0 45.9 26.3 49.55 21.4 49.5 16.3 49.4 12.85 45.65 9.35 41.95 9.45 36.7 9.45 34.45 10.05 32.7 10.85 29.8 13.0 27.75 16.5 23.85 21.55 23.9 26.5 23.85 30.15 27.55 33.7 31.3 33.7 36.75 L33.3 39.8 Z" fill="none" stroke="#374a37" stroke-linecap="round" stroke-linejoin="round" stroke-width="1.0"/>
  </g>
</svg>
