<?xml version="1.0" encoding="UTF-8" standalone="no"?>
<svg xmlns:ffdec="https://www.free-decompiler.com/flash" xmlns:xlink="http://www.w3.org/1999/xlink" ffdec:objectType="shape" height="78.35px" width="95.7px" xmlns="http://www.w3.org/2000/svg">
  <g transform="matrix(1.0, 0.0, 0.0, 1.0, -15.4, 2.75)">
    <path d="M106.9 70.35 L106.75 1.95 19.15 9.35 18.4 61.25 106.9 70.35 M17.0 6.8 L110.15 -2.0 110.35 74.85 16.15 64.15 17.0 6.8" fill="#a6d3a0" fill-rule="evenodd" stroke="none"/>
    <path d="M100.15 49.75 L100.5 49.75 100.45 22.75 92.6 23.0 92.6 25.5 91.8 25.5 Q91.45 25.45 91.5 25.6 91.25 25.7 91.3 26.0 L91.35 33.7 84.05 23.2 76.9 23.45 76.85 25.8 76.2 25.75 Q75.9 25.75 75.9 25.95 75.7 26.0 75.75 26.3 L75.7 51.5 Q75.6 51.6 75.85 51.8 L76.1 51.95 83.3 52.35 Q83.4 52.25 83.55 52.2 L83.75 51.95 83.7 48.95 84.05 49.0 84.1 41.5 91.45 52.7 91.6 52.8 91.8 52.9 99.7 53.35 Q99.85 53.2 100.0 53.2 L100.2 52.85 100.15 49.75 M106.9 70.35 L18.4 61.25 19.15 9.35 106.75 1.95 106.9 70.35 M45.5 43.9 L49.05 44.05 Q51.65 44.05 53.65 41.45 55.5 38.85 55.65 35.2 L55.6 35.15 55.6 35.1 55.65 35.0 55.9 32.5 Q55.85 28.9 54.05 26.5 52.25 24.0 49.9 24.15 L40.05 24.4 39.95 26.55 39.45 26.55 Q39.15 26.5 39.2 26.8 39.05 26.75 39.05 26.95 L38.85 49.4 38.95 49.8 39.15 49.9 44.8 50.2 Q45.0 50.05 45.1 50.05 L45.2 49.7 45.25 47.15 45.45 47.15 45.5 43.9 M59.05 26.2 L58.4 26.2 58.1 26.3 Q57.95 26.35 58.1 26.65 L57.85 50.5 Q57.75 50.6 58.0 50.75 L58.2 50.95 72.6 51.8 Q72.65 51.6 72.95 51.65 L73.05 51.35 73.1 48.45 73.35 48.45 73.4 41.5 73.0 41.5 73.15 39.45 73.3 39.5 73.45 32.55 73.1 32.55 73.2 30.35 73.45 30.45 73.4 23.5 59.05 23.9 59.05 26.2 M45.65 33.65 L47.65 33.65 Q48.1 33.55 48.5 34.15 L48.55 34.1 48.8 34.6 48.2 34.7 45.65 34.8 45.65 33.65 M26.0 36.35 Q26.1 35.75 26.55 35.45 27.2 34.35 28.35 34.4 29.3 34.4 30.2 35.5 30.85 36.45 30.9 38.1 30.75 38.05 30.95 38.3 L30.9 38.4 Q29.95 39.45 28.7 39.55 27.5 39.4 26.75 38.35 26.0 37.45 26.0 36.35 M36.9 38.25 L37.15 35.65 Q37.15 30.9 34.8 27.65 32.35 24.3 29.05 24.5 25.6 24.5 23.3 27.8 21.9 29.6 21.4 32.0 20.25 34.55 20.25 37.9 20.0 42.4 22.4 45.8 24.65 49.15 28.15 49.5 31.6 49.55 34.2 46.4 36.7 43.0 36.9 38.25" fill="#3e7737" fill-rule="evenodd" stroke="none"/>
    <path d="M100.15 49.75 L100.2 52.85 100.0 53.2 Q99.85 53.2 99.7 53.35 L91.8 52.9 91.6 52.8 91.45 52.7 84.1 41.5 84.05 36.75 92.5 49.4 100.15 49.75 M83.7 48.95 L83.75 51.95 83.55 52.2 Q83.4 52.25 83.3 52.35 L76.1 51.95 75.85 51.8 Q75.6 51.6 75.7 51.5 L75.75 26.3 Q75.7 26.0 75.9 25.95 75.9 25.75 76.2 25.75 L76.85 25.8 76.8 48.65 83.7 48.95 M91.35 33.7 L91.3 26.0 Q91.25 25.7 91.5 25.6 91.45 25.45 91.8 25.5 L92.6 25.5 92.6 35.55 91.35 33.7 M55.6 35.15 L55.65 35.2 Q55.5 38.85 53.65 41.45 51.65 44.05 49.05 44.05 L45.5 43.9 45.5 40.85 49.75 40.95 Q52.1 40.9 54.05 38.6 55.1 37.0 55.6 35.15 M45.25 47.15 L45.2 49.7 45.1 50.05 Q45.0 50.05 44.8 50.2 L39.15 49.9 38.95 49.8 38.85 49.4 39.05 26.95 Q39.05 26.75 39.2 26.8 39.15 26.5 39.45 26.55 L39.95 26.55 39.75 46.9 45.25 47.15 M73.1 48.45 L73.05 51.35 72.95 51.65 Q72.65 51.6 72.6 51.8 L58.2 50.95 58.0 50.75 Q57.75 50.6 57.85 50.5 L58.1 26.65 Q57.95 26.35 58.1 26.3 L58.4 26.2 59.05 26.2 58.9 47.8 73.1 48.45 M73.2 30.35 L73.1 32.55 65.5 32.6 65.45 30.5 73.2 30.35 M73.15 39.45 L73.0 41.5 65.4 41.3 65.35 39.2 73.15 39.45 M45.65 33.65 L45.65 30.65 48.3 30.6 Q48.85 30.55 49.4 31.2 49.8 31.75 49.85 32.65 L49.4 34.2 48.8 34.6 48.55 34.1 48.5 34.15 Q48.1 33.55 47.65 33.65 L45.65 33.65 M26.0 36.35 L25.9 35.55 Q25.9 33.85 26.8 32.7 27.65 31.5 28.85 31.55 30.0 31.45 30.95 32.7 31.7 33.75 31.8 35.6 31.75 37.1 30.95 38.3 30.75 38.05 30.9 38.1 30.85 36.45 30.2 35.5 29.3 34.4 28.35 34.4 27.2 34.35 26.55 35.45 26.1 35.75 26.0 36.35 M36.9 38.25 Q36.7 43.0 34.2 46.4 31.6 49.55 28.15 49.5 24.65 49.15 22.4 45.8 20.0 42.4 20.25 37.9 20.25 34.55 21.4 32.0 20.95 33.5 20.9 35.4 20.85 39.85 23.1 43.15 25.3 46.45 28.7 46.6 32.05 46.7 34.55 43.5 36.25 41.25 36.9 38.25" fill="#374a37" fill-rule="evenodd" stroke="none"/>
    <path d="M92.6 25.5 L92.6 23.0 100.45 22.75 100.5 49.75 100.15 49.75 92.5 49.4 84.05 36.75 84.1 41.5 84.05 49.0 83.7 48.95 76.8 48.65 76.85 25.8 76.9 23.45 84.05 23.2 91.35 33.7 92.6 35.55 92.6 25.5 M45.5 43.9 L45.45 47.15 45.25 47.15 39.75 46.9 39.95 26.55 40.05 24.4 49.9 24.15 Q52.25 24.0 54.05 26.5 55.85 28.9 55.9 32.5 L55.65 35.0 55.6 35.1 55.6 35.15 Q55.1 37.0 54.05 38.6 52.1 40.9 49.75 40.95 L45.5 40.85 45.5 43.9 M73.1 48.45 L58.9 47.8 59.05 26.2 59.05 23.9 73.4 23.5 73.45 30.45 73.2 30.35 65.45 30.5 65.5 32.6 73.1 32.55 73.45 32.55 73.3 39.5 73.15 39.45 65.35 39.2 65.4 41.3 73.0 41.5 73.4 41.5 73.35 48.45 73.1 48.45 M48.8 34.6 L49.4 34.2 49.85 32.65 Q49.8 31.75 49.4 31.2 48.85 30.55 48.3 30.6 L45.65 30.65 45.65 33.65 45.65 34.8 48.2 34.7 48.8 34.6 M30.95 38.3 Q31.75 37.1 31.8 35.6 31.7 33.75 30.95 32.7 30.0 31.45 28.85 31.55 27.65 31.5 26.8 32.7 25.9 33.85 25.9 35.55 L26.0 36.35 Q26.0 37.45 26.75 38.35 27.5 39.4 28.7 39.55 29.95 39.45 30.9 38.4 L30.95 38.3 M21.4 32.0 Q21.9 29.6 23.3 27.8 25.6 24.5 29.05 24.5 32.35 24.3 34.8 27.65 37.15 30.9 37.15 35.65 L36.9 38.25 Q36.25 41.25 34.55 43.5 32.05 46.7 28.7 46.6 25.3 46.45 23.1 43.15 20.85 39.85 20.9 35.4 20.95 33.5 21.4 32.0" fill="#ffffff" fill-rule="evenodd" stroke="none"/>
    <path d="M17.0 6.8 L110.15 -2.0 110.35 74.85 16.15 64.15 17.0 6.8" fill="none" stroke="#608060" stroke-linecap="round" stroke-linejoin="round" stroke-width="1.5"/>
    <path d="M106.9 70.35 L18.4 61.25 19.15 9.35 106.75 1.95 106.9 70.35" fill="none" stroke="#374a37" stroke-linecap="round" stroke-linejoin="round" stroke-width="1.5"/>
    <path d="M92.6 25.5 L92.6 23.0 100.45 22.75 100.5 49.75 100.15 49.75 92.5 49.4 84.05 36.75 84.1 41.5 84.05 49.0 83.7 48.95 76.8 48.65 76.85 25.8 76.9 23.45 84.05 23.2 91.35 33.7 92.6 35.55 92.6 25.5 M45.5 43.9 L45.45 47.15 45.25 47.15 39.75 46.9 39.95 26.55 40.05 24.4 49.9 24.15 Q52.25 24.0 54.05 26.5 55.85 28.9 55.9 32.5 L55.65 35.0 55.6 35.1 55.6 35.15 Q55.1 37.0 54.05 38.6 52.1 40.9 49.75 40.95 L45.5 40.85 45.5 43.9 M73.1 48.45 L58.9 47.8 59.05 26.2 59.05 23.9 73.4 23.5 73.45 30.45 73.2 30.35 65.45 30.5 65.5 32.6 73.1 32.55 73.45 32.55 73.3 39.5 73.15 39.45 65.35 39.2 65.4 41.3 73.0 41.5 73.4 41.5 73.35 48.45 73.1 48.45 M48.8 34.6 L49.4 34.2 49.85 32.65 Q49.8 31.75 49.4 31.2 48.85 30.55 48.3 30.6 L45.65 30.65 45.65 33.65 45.65 34.8 48.2 34.7 48.8 34.6 M30.95 38.3 Q31.75 37.1 31.8 35.6 31.7 33.75 30.95 32.7 30.0 31.45 28.85 31.55 27.65 31.5 26.8 32.7 25.9 33.85 25.9 35.55 L26.0 36.35 Q26.0 37.45 26.75 38.35 27.5 39.4 28.7 39.55 29.95 39.45 30.9 38.4 L30.95 38.3 M21.4 32.0 Q21.9 29.6 23.3 27.8 25.6 24.5 29.05 24.5 32.35 24.3 34.8 27.65 37.15 30.9 37.15 35.65 L36.9 38.25 Q36.25 41.25 34.55 43.5 32.05 46.7 28.7 46.6 25.3 46.45 23.1 43.15 20.85 39.85 20.9 35.4 20.95 33.5 21.4 32.0 Z" fill="none" stroke="#374a37" stroke-linecap="round" stroke-linejoin="round" stroke-width="1.0"/>
  </g>
</svg>
