<?xml version="1.0" encoding="UTF-8" standalone="no"?>
<svg xmlns:ffdec="https://www.free-decompiler.com/flash" xmlns:xlink="http://www.w3.org/1999/xlink" ffdec:objectType="shape" height="108.3px" width="59.45px" xmlns="http://www.w3.org/2000/svg">
  <g transform="matrix(1.0, 0.0, 0.0, 1.0, -35.15, 19.0)">
    <path d="M84.35 87.8 L35.9 65.5 41.55 12.9 87.6 -18.25 87.55 -12.75 87.5 -10.95 84.35 87.8 M86.05 88.3 L86.05 88.55 85.45 88.3 86.05 88.3 M42.05 14.65 L36.95 62.65 83.3 80.35 85.15 -12.5 42.05 14.65" fill="#a6d3a0" fill-rule="evenodd" stroke="none"/>
    <path d="M73.6 29.1 L69.85 17.7 65.75 19.2 65.55 21.85 65.2 21.95 65.0 22.2 Q64.9 22.3 64.95 22.6 L63.2 52.2 63.2 52.65 63.35 52.8 67.65 53.25 Q67.65 53.0 67.85 53.05 L67.85 52.6 68.15 48.75 68.25 48.8 68.7 39.45 72.7 53.45 72.8 53.6 72.9 53.7 78.45 54.3 78.65 54.1 78.75 53.5 78.9 49.25 79.15 49.2 80.15 13.95 74.9 15.9 74.8 18.8 74.3 19.05 Q74.1 18.95 74.15 19.25 L74.05 19.65 73.6 29.1 M63.05 29.95 L63.25 27.5 63.4 27.4 63.9 19.9 56.7 22.55 56.45 24.85 56.2 25.0 Q56.1 24.9 56.1 25.15 L56.0 25.45 54.0 51.4 54.05 51.7 54.1 51.9 61.5 52.65 Q61.5 52.5 61.65 52.5 L61.8 52.0 61.95 48.55 62.1 48.55 62.65 40.25 62.45 40.3 62.65 37.85 62.75 37.85 63.25 29.9 63.05 29.95 M49.95 34.0 L50.85 33.9 Q51.0 33.65 51.15 34.25 L51.25 34.65 51.0 35.0 49.9 35.15 49.95 34.0 M54.25 34.75 L54.25 34.65 54.25 34.5 54.55 31.9 Q54.85 28.1 54.25 25.85 53.6 23.55 52.55 24.0 L48.45 25.55 48.25 27.6 48.05 27.6 47.95 27.8 Q47.85 27.8 47.85 28.1 L45.75 50.7 45.85 50.85 45.85 51.05 48.15 51.35 48.3 51.2 48.4 50.75 48.65 48.0 48.7 47.95 49.05 44.6 50.5 44.55 Q51.7 44.4 52.85 41.6 53.9 38.65 54.25 34.75 M45.95 39.35 L46.35 36.6 Q46.75 31.9 46.05 29.15 45.45 26.3 44.2 26.85 42.95 27.2 41.9 30.4 41.2 32.25 40.75 34.55 40.2 36.85 39.85 39.9 39.35 44.3 39.85 47.5 40.3 50.6 41.6 50.9 42.9 50.9 44.25 47.55 45.55 44.05 45.95 39.35 M42.05 38.15 Q42.15 37.55 42.35 37.3 42.7 36.1 43.1 36.15 43.45 36.0 43.65 37.0 43.85 37.95 43.7 39.55 L43.7 39.7 Q43.6 39.7 43.65 39.8 L42.8 41.05 Q42.3 41.05 42.15 40.0 41.95 39.1 42.05 38.15 M42.05 14.65 L85.15 -12.5 83.3 80.35 36.95 62.65 42.05 14.65" fill="#3e7737" fill-rule="evenodd" stroke="none"/>
    <path d="M73.6 29.1 L74.05 19.65 74.15 19.25 Q74.1 18.95 74.3 19.05 L74.8 18.8 74.35 31.15 73.6 29.1 M78.9 49.25 L78.75 53.5 78.65 54.1 78.45 54.3 72.9 53.7 72.8 53.6 72.7 53.45 68.7 39.45 69.0 33.55 73.65 49.05 78.9 49.25 M68.15 48.75 L67.85 52.6 67.85 53.05 Q67.65 53.0 67.65 53.25 L63.35 52.8 63.2 52.65 63.2 52.2 64.95 22.6 Q64.9 22.3 65.0 22.2 L65.2 21.95 65.55 21.85 64.05 48.6 68.15 48.75 M63.05 29.95 L59.1 30.9 59.3 28.55 63.25 27.5 63.05 29.95 M56.45 24.85 L54.75 48.3 61.95 48.55 61.8 52.0 61.65 52.5 Q61.5 52.5 61.5 52.65 L54.1 51.9 54.05 51.7 54.0 51.4 56.0 25.45 56.1 25.15 Q56.1 24.9 56.2 25.0 L56.45 24.85 M62.45 40.3 L58.45 40.6 58.6 38.35 62.65 37.85 62.45 40.3 M49.95 34.0 L50.25 30.95 51.35 30.65 Q51.6 30.5 51.85 31.1 L51.8 32.6 51.5 34.15 51.25 34.65 51.15 34.25 Q51.0 33.65 50.85 33.9 L49.95 34.0 M54.25 34.75 Q53.9 38.65 52.85 41.6 51.7 44.4 50.5 44.55 L49.05 44.6 49.3 41.35 51.1 41.2 Q52.2 41.05 53.25 38.35 L54.25 34.75 M48.65 48.0 L48.4 50.75 48.3 51.2 48.15 51.35 45.85 51.05 45.85 50.85 45.75 50.7 47.85 28.1 Q47.85 27.8 47.95 27.8 L48.05 27.6 48.25 27.6 46.35 47.95 48.65 48.0 M45.95 39.35 Q45.55 44.05 44.25 47.55 42.9 50.9 41.6 50.9 40.3 50.6 39.85 47.5 39.35 44.3 39.85 39.9 40.2 36.85 40.75 34.55 L40.4 37.7 Q39.9 41.75 40.35 44.9 40.85 47.9 42.15 47.95 43.3 48.05 44.6 44.7 45.45 42.3 45.95 39.35 M42.05 38.15 L42.15 37.35 Q42.2 35.75 42.7 34.7 43.15 33.45 43.6 33.4 43.95 33.2 44.25 34.3 L44.25 37.05 43.7 39.7 43.7 39.55 Q43.85 37.95 43.65 37.0 43.45 36.0 43.1 36.15 42.7 36.1 42.35 37.3 42.15 37.55 42.05 38.15" fill="#374a37" fill-rule="evenodd" stroke="none"/>
    <path d="M65.55 21.85 L65.75 19.2 69.85 17.7 73.6 29.1 74.35 31.15 74.8 18.8 74.9 15.9 80.15 13.95 79.15 49.2 78.9 49.25 73.65 49.05 69.0 33.55 68.7 39.45 68.25 48.8 68.15 48.75 64.05 48.6 65.55 21.85 M63.25 27.5 L59.3 28.55 59.1 30.9 63.05 29.95 63.25 29.9 62.75 37.85 62.65 37.85 58.6 38.35 58.45 40.6 62.45 40.3 62.65 40.25 62.1 48.55 61.95 48.55 54.75 48.3 56.45 24.85 56.7 22.55 63.9 19.9 63.4 27.4 63.25 27.5 M51.25 34.65 L51.5 34.15 51.8 32.6 51.85 31.1 Q51.6 30.5 51.35 30.65 L50.25 30.95 49.95 34.0 49.9 35.15 51.0 35.0 51.25 34.65 M48.25 27.6 L48.45 25.55 52.55 24.0 Q53.6 23.55 54.25 25.85 54.85 28.1 54.55 31.9 L54.25 34.5 54.25 34.65 54.25 34.75 53.25 38.35 Q52.2 41.05 51.1 41.2 L49.3 41.35 49.05 44.6 48.7 47.95 48.65 48.0 46.35 47.95 48.25 27.6 M40.75 34.55 Q41.2 32.25 41.9 30.4 42.95 27.2 44.2 26.85 45.45 26.3 46.05 29.15 46.75 31.9 46.35 36.6 L45.95 39.35 Q45.45 42.3 44.6 44.7 43.3 48.05 42.15 47.95 40.85 47.9 40.35 44.9 39.9 41.75 40.4 37.7 L40.75 34.55 M43.7 39.7 L44.25 37.05 44.25 34.3 Q43.95 33.2 43.6 33.4 43.15 33.45 42.7 34.7 42.2 35.75 42.15 37.35 L42.05 38.15 Q41.95 39.1 42.15 40.0 42.3 41.05 42.8 41.05 L43.65 39.8 Q43.6 39.7 43.7 39.7" fill="#ffffff" fill-rule="evenodd" stroke="none"/>
    <path d="M84.35 87.8 L87.5 -10.95 87.55 -12.75 87.7 -18.2 94.1 -18.0 90.7 88.45 86.05 88.3 85.45 88.3 84.3 88.25 84.35 87.8" fill="#999999" fill-rule="evenodd" stroke="none"/>
    <path d="M87.55 -12.75 L87.6 -18.25 41.55 12.9 35.9 65.5 84.35 87.8 M87.5 -10.95 L87.55 -12.75 M86.05 88.3 L86.05 88.55 85.45 88.3" fill="none" stroke="#608060" stroke-linecap="round" stroke-linejoin="round" stroke-width="1.5"/>
    <path d="M42.05 14.65 L85.15 -12.5 83.3 80.35 36.95 62.65 42.05 14.65" fill="none" stroke="#374a37" stroke-linecap="round" stroke-linejoin="round" stroke-width="1.5"/>
    <path d="M65.55 21.85 L65.75 19.2 69.85 17.7 73.6 29.1 74.35 31.15 74.8 18.8 74.9 15.9 80.15 13.95 79.15 49.2 78.9 49.25 73.65 49.05 69.0 33.55 68.7 39.45 68.25 48.8 68.15 48.75 64.05 48.6 65.55 21.85 M63.25 27.5 L59.3 28.55 59.1 30.9 63.05 29.95 63.25 29.9 62.75 37.85 62.65 37.85 58.6 38.35 58.45 40.6 62.45 40.3 62.65 40.25 62.1 48.55 61.95 48.55 54.75 48.3 56.45 24.85 56.7 22.55 63.9 19.9 63.4 27.4 63.25 27.5 M51.25 34.65 L51.5 34.15 51.8 32.6 51.85 31.1 Q51.6 30.5 51.35 30.65 L50.25 30.95 49.95 34.0 49.9 35.15 51.0 35.0 51.25 34.65 M48.25 27.6 L48.45 25.55 52.55 24.0 Q53.6 23.55 54.25 25.85 54.85 28.1 54.55 31.9 L54.25 34.5 54.25 34.65 54.25 34.75 53.25 38.35 Q52.2 41.05 51.1 41.2 L49.3 41.35 49.05 44.6 48.7 47.95 48.65 48.0 46.35 47.95 48.25 27.6 M40.75 34.55 Q41.2 32.25 41.9 30.4 42.95 27.2 44.2 26.85 45.45 26.3 46.05 29.15 46.75 31.9 46.35 36.6 L45.95 39.35 Q45.45 42.3 44.6 44.7 43.3 48.05 42.15 47.95 40.85 47.9 40.35 44.9 39.9 41.75 40.4 37.7 L40.75 34.55 M43.7 39.7 L44.25 37.05 44.25 34.3 Q43.95 33.2 43.6 33.4 43.15 33.45 42.7 34.7 42.2 35.75 42.15 37.35 L42.05 38.15 Q41.95 39.1 42.15 40.0 42.3 41.05 42.8 41.05 L43.65 39.8 Q43.6 39.7 43.7 39.7" fill="none" stroke="#374a37" stroke-linecap="round" stroke-linejoin="round" stroke-width="1.0"/>
    <path d="M84.35 87.8 L87.5 -10.95 M87.55 -12.75 L87.7 -18.2 94.1 -18.0 90.7 88.45 86.05 88.3 85.45 88.3 84.3 88.25 84.35 87.8" fill="none" stroke="#608060" stroke-linecap="round" stroke-linejoin="round" stroke-width="1.0"/>
  </g>
</svg>
