<?xml version="1.0" encoding="UTF-8" standalone="no"?>
<svg xmlns:ffdec="https://www.free-decompiler.com/flash" xmlns:xlink="http://www.w3.org/1999/xlink" ffdec:objectType="shape" height="110.7px" width="24.35px" xmlns="http://www.w3.org/2000/svg">
  <g transform="matrix(1.0, 0.0, 0.0, 1.0, -53.25, 25.3)">
    <path d="M68.3 83.75 L54.0 67.75 57.4 -16.4 69.8 -24.55 69.55 21.1 68.85 66.75 68.3 83.75 M69.25 -20.55 L57.55 -12.95 54.6 62.65 68.2 76.25 69.25 -20.55" fill="#a6d3a0" fill-rule="evenodd" stroke="none"/>
    <path d="M69.25 -20.55 L68.2 76.25 54.6 62.65 57.55 -12.95 69.25 -20.55 M67.6 42.95 L67.65 42.95 68.15 4.95 67.05 4.95 67.05 8.55 66.95 8.55 66.9 8.65 Q66.8 8.55 66.85 9.45 L66.7 19.75 65.95 5.6 64.9 5.6 64.85 8.9 64.8 9.05 64.8 9.1 Q64.7 8.7 64.75 9.65 L64.0 45.9 Q63.85 46.15 63.95 46.4 L64.05 46.6 65.05 47.15 Q65.1 47.0 65.15 47.15 L65.1 46.5 65.25 41.85 65.5 30.85 66.25 47.45 66.3 47.9 67.45 48.5 67.5 48.3 67.5 47.75 67.6 42.95 M64.2 15.0 L64.25 15.0 64.5 5.85 62.5 6.15 62.35 9.15 62.3 9.25 62.3 9.65 Q62.2 9.2 62.3 10.1 L61.3 44.45 61.35 45.05 61.35 45.25 63.45 46.4 63.5 46.2 63.6 45.7 63.7 41.3 63.7 41.15 63.9 30.7 63.85 30.75 63.95 27.75 64.0 27.85 64.2 18.05 64.15 18.15 64.2 15.0 M61.6 21.95 L61.55 21.7 61.6 21.55 Q61.6 19.45 61.75 17.85 L61.7 9.65 Q61.5 6.3 61.25 6.9 L59.8 6.75 59.65 9.8 59.6 9.75 Q59.5 9.35 59.6 10.05 59.5 9.65 59.55 10.15 L58.5 43.05 58.45 43.45 58.5 43.7 59.4 44.2 59.4 44.0 59.4 43.5 59.55 39.5 59.6 39.5 59.8 34.6 60.25 34.7 Q60.6 34.6 61.0 30.9 L61.6 21.95 M60.2 19.55 L60.55 19.65 60.55 20.2 60.6 20.1 60.6 20.65 60.65 20.8 60.65 20.9 60.5 21.1 60.15 21.25 60.2 19.55 M58.7 26.05 L58.85 22.3 Q59.05 15.3 58.85 11.15 58.65 6.45 58.2 6.9 57.65 6.65 57.2 11.3 56.9 13.8 56.75 17.25 L56.6 19.1 Q56.3 22.0 56.25 25.8 55.9 32.5 56.15 37.6 56.25 42.85 56.8 43.25 57.3 43.4 57.95 38.4 L58.7 26.05 M57.25 22.2 L57.35 22.05 Q57.45 20.35 57.6 20.6 L57.85 22.0 57.9 26.0 Q57.75 25.9 57.8 26.3 L57.5 28.0 Q57.25 27.85 57.25 26.25 L57.25 23.5 57.25 22.4 57.25 22.25 57.25 22.2" fill="#3e7737" fill-rule="evenodd" stroke="none"/>
    <path d="M67.6 42.95 L67.5 47.75 67.5 48.3 67.45 48.5 66.3 47.9 66.25 47.45 65.5 30.85 65.6 24.05 66.5 42.5 67.6 42.95 M65.25 41.85 L65.1 46.5 65.15 47.15 Q65.1 47.0 65.05 47.15 L64.05 46.6 63.95 46.4 Q63.85 46.15 64.0 45.9 L64.75 9.65 Q64.7 8.7 64.8 9.1 L64.8 9.05 64.85 8.9 64.2 41.55 65.25 41.85 M66.7 19.75 L66.85 9.45 Q66.8 8.55 66.9 8.65 L66.95 8.55 67.05 8.55 66.8 22.25 66.7 19.75 M64.2 15.0 L64.15 18.15 63.1 17.9 63.15 14.9 64.2 15.0 M63.95 27.75 L63.85 30.75 62.75 30.4 62.85 27.65 63.95 27.75 M63.7 41.15 L63.7 41.3 63.6 45.7 63.5 46.2 63.45 46.4 61.35 45.25 61.35 45.05 61.3 44.45 62.3 10.1 Q62.2 9.2 62.3 9.65 L62.3 9.25 62.35 9.15 61.6 40.4 63.7 41.15 M61.6 21.95 L61.0 30.9 Q60.6 34.6 60.25 34.7 L59.8 34.6 59.85 29.95 60.5 30.15 Q60.8 30.0 61.2 26.55 L61.6 21.95 M59.55 39.5 L59.4 43.5 59.4 44.0 59.4 44.2 58.5 43.7 58.45 43.45 58.5 43.05 59.55 10.15 Q59.5 9.65 59.6 10.05 59.5 9.35 59.6 9.75 L59.65 9.8 58.7 39.1 59.55 39.5 M60.2 19.55 L60.35 15.35 60.65 15.15 60.8 16.05 60.85 18.1 Q60.7 19.1 60.7 20.25 L60.6 20.65 60.6 20.1 60.55 20.2 60.55 19.65 60.2 19.55 M58.7 26.05 L57.95 38.4 Q57.3 43.4 56.8 43.25 56.25 42.85 56.15 37.6 55.9 32.5 56.25 25.8 56.3 22.0 56.6 19.1 L56.45 22.15 Q56.15 28.5 56.4 33.5 56.5 38.4 57.05 38.75 57.5 38.9 58.1 34.0 L58.7 26.05 M57.25 22.2 Q57.25 19.5 57.5 18.1 57.65 16.4 57.85 16.7 L58.15 18.2 58.1 22.25 57.9 26.0 57.85 22.0 57.6 20.6 Q57.45 20.35 57.35 22.05 L57.25 22.2" fill="#374a37" fill-rule="evenodd" stroke="none"/>
    <path d="M67.05 8.55 L67.05 4.95 68.15 4.95 67.65 42.95 67.6 42.95 66.5 42.5 65.6 24.05 65.5 30.85 65.25 41.85 64.2 41.55 64.85 8.9 64.9 5.6 65.95 5.6 66.7 19.75 66.8 22.25 67.05 8.55 M62.35 9.15 L62.5 6.15 64.5 5.85 64.25 15.0 64.2 15.0 63.15 14.9 63.1 17.9 64.15 18.15 64.2 18.05 64.0 27.85 63.95 27.75 62.85 27.65 62.75 30.4 63.85 30.75 63.9 30.7 63.7 41.15 61.6 40.4 62.35 9.15 M59.65 9.8 L59.8 6.75 61.25 6.9 Q61.5 6.3 61.7 9.65 L61.75 17.85 Q61.6 19.45 61.6 21.55 L61.55 21.7 61.6 21.95 61.2 26.55 Q60.8 30.0 60.5 30.15 L59.85 29.95 59.8 34.6 59.6 39.5 59.55 39.5 58.7 39.1 59.65 9.8 M60.6 20.65 L60.7 20.25 Q60.7 19.1 60.85 18.1 L60.8 16.05 60.65 15.15 60.35 15.35 60.2 19.55 60.15 21.25 60.5 21.1 60.65 20.9 60.65 20.8 60.6 20.65 M56.6 19.1 L56.75 17.25 Q56.9 13.8 57.2 11.3 57.65 6.65 58.2 6.9 58.65 6.45 58.85 11.15 59.05 15.3 58.85 22.3 L58.7 26.05 58.1 34.0 Q57.5 38.9 57.05 38.75 56.5 38.4 56.4 33.5 56.15 28.5 56.45 22.15 L56.6 19.1 M57.9 26.0 L58.1 22.25 58.15 18.2 57.85 16.7 Q57.65 16.4 57.5 18.1 57.25 19.5 57.25 22.2 L57.25 22.25 57.25 22.4 57.25 23.5 57.25 26.25 Q57.25 27.85 57.5 28.0 L57.8 26.3 Q57.75 25.9 57.9 26.0" fill="#ffffff" fill-rule="evenodd" stroke="none"/>
    <path d="M69.55 21.1 L70.7 -24.8 77.1 -24.05 76.0 84.9 68.25 84.65 68.3 83.75 68.85 66.75 69.55 21.1" fill="#999999" fill-rule="evenodd" stroke="none"/>
    <path d="M68.3 83.75 L54.0 67.75 57.4 -16.4 69.8 -24.55 69.55 21.1 68.85 66.75" fill="none" stroke="#608060" stroke-linecap="round" stroke-linejoin="round" stroke-width="1.5"/>
    <path d="M67.05 8.55 L67.05 4.95 68.15 4.95 67.65 42.95 67.6 42.95 66.5 42.5 65.6 24.05 65.5 30.85 65.25 41.85 64.2 41.55 64.85 8.9 64.9 5.6 65.95 5.6 66.7 19.75 66.8 22.25 67.05 8.55 M62.35 9.15 L62.5 6.15 64.5 5.85 64.25 15.0 64.2 15.0 63.15 14.9 63.1 17.9 64.15 18.15 64.2 18.05 64.0 27.85 63.95 27.75 62.85 27.65 62.75 30.4 63.85 30.75 63.9 30.7 63.7 41.15 63.7 41.3 M62.35 9.15 L61.6 40.4 63.7 41.15 M59.65 9.8 L59.8 6.75 61.25 6.9 Q61.5 6.3 61.7 9.65 L61.75 17.85 Q61.6 19.45 61.6 21.55 L61.55 21.7 61.6 21.95 61.2 26.55 Q60.8 30.0 60.5 30.15 L59.85 29.95 59.8 34.6 59.6 39.5 59.55 39.5 58.7 39.1 59.65 9.8 M60.6 20.65 L60.7 20.25 Q60.7 19.1 60.85 18.1 L60.8 16.05 60.65 15.15 60.35 15.35 60.2 19.55 60.15 21.25 60.5 21.1 60.65 20.9 60.65 20.8 60.6 20.65 M56.6 19.1 L56.75 17.25 Q56.9 13.8 57.2 11.3 57.65 6.65 58.2 6.9 58.65 6.45 58.85 11.15 59.05 15.3 58.85 22.3 L58.7 26.05 58.1 34.0 Q57.5 38.9 57.05 38.75 56.5 38.4 56.4 33.5 56.15 28.5 56.45 22.15 L56.6 19.1 M57.9 26.0 L58.1 22.25 58.15 18.2 57.85 16.7 Q57.65 16.4 57.5 18.1 57.25 19.5 57.25 22.2 L57.25 22.25 57.25 22.4 57.25 23.5 57.25 26.25 Q57.25 27.85 57.5 28.0 L57.8 26.3 Q57.75 25.9 57.9 26.0" fill="none" stroke="#374a37" stroke-linecap="round" stroke-linejoin="round" stroke-width="1.0"/>
    <path d="M69.25 -20.55 L68.2 76.25 54.6 62.65 57.55 -12.95 69.25 -20.55" fill="none" stroke="#374a37" stroke-linecap="round" stroke-linejoin="round" stroke-width="1.5"/>
    <path d="M69.55 21.1 L70.7 -24.8 77.1 -24.05 76.0 84.9 68.25 84.65 68.3 83.75 68.85 66.75" fill="none" stroke="#608060" stroke-linecap="round" stroke-linejoin="round" stroke-width="1.0"/>
  </g>
</svg>
