<?xml version="1.0" encoding="UTF-8" standalone="no"?>
<svg xmlns:ffdec="https://www.free-decompiler.com/flash" xmlns:xlink="http://www.w3.org/1999/xlink" ffdec:objectType="shape" height="112.3px" width="24.25px" xmlns="http://www.w3.org/2000/svg">
  <g transform="matrix(1.0, 0.0, 0.0, 1.0, -50.9, 26.35)">
    <path d="M71.35 -14.15 L60.15 -21.65 60.95 76.75 74.15 61.35 71.35 -14.15 M71.55 -17.75 L74.65 66.4 60.4 85.15 59.65 -25.8 71.55 -17.75" fill="#f5cfcd" fill-rule="evenodd" stroke="none"/>
    <path d="M71.35 -14.15 L74.15 61.35 60.95 76.75 60.15 -21.65 71.35 -14.15 M62.65 12.9 Q62.6 12.65 62.7 12.6 L62.6 12.3 62.6 8.35 Q62.35 7.45 62.15 7.6 61.55 7.25 61.25 11.9 60.85 16.35 60.95 23.0 L60.95 28.7 Q60.95 36.1 61.55 41.3 62.0 46.45 62.65 46.15 L63.1 45.0 63.1 44.85 63.1 44.3 62.9 31.9 62.9 31.25 62.85 31.05 62.85 26.45 62.45 28.75 Q62.25 28.65 62.1 27.15 L62.0 26.3 62.0 25.85 Q61.95 25.1 62.05 24.7 62.15 23.1 62.35 23.2 62.55 22.95 62.75 24.9 L62.75 25.4 62.85 25.25 62.85 25.0 62.8 24.5 62.7 19.4 62.65 13.05 62.65 12.9 M62.9 11.95 L62.85 12.35 Q62.7 12.5 62.8 12.7 L63.2 44.6 63.2 45.2 63.25 45.3 64.95 44.35 64.95 44.05 64.95 43.55 64.8 34.65 64.8 34.1 64.75 34.0 64.7 29.5 64.0 29.7 63.75 14.9 63.75 12.8 63.7 12.6 63.7 12.55 63.7 12.3 63.65 7.95 62.8 8.05 62.9 11.95 M67.2 25.3 L67.15 22.7 67.15 22.3 Q66.95 16.15 66.55 12.05 66.1 8.0 65.7 7.85 65.1 8.0 64.95 12.05 64.6 16.15 64.75 22.4 L64.75 22.8 64.8 27.6 Q64.85 34.35 65.4 39.25 65.8 44.1 66.4 43.85 66.9 43.35 67.2 38.4 67.4 33.55 67.25 27.15 L67.2 25.3 M68.6 13.1 L68.6 9.8 Q68.25 8.5 67.9 8.5 67.45 8.3 67.35 10.9 67.1 13.7 67.2 18.15 L67.25 18.75 67.25 22.8 Q67.25 26.45 67.55 28.45 L67.6 34.95 67.7 34.95 67.7 39.8 67.7 40.25 67.75 40.55 Q68.15 42.65 68.6 42.45 68.95 42.2 69.2 39.6 L69.25 30.75 69.15 27.75 69.15 27.35 69.1 26.25 68.85 21.25 68.7 14.15 68.7 13.85 68.65 13.8 68.6 13.1 M70.25 12.5 L70.15 9.0 68.75 8.8 68.85 12.45 68.8 12.65 69.6 40.85 69.65 41.2 69.7 41.4 71.15 40.5 71.2 40.3 71.2 39.9 71.0 35.15 70.9 32.25 70.9 31.65 70.85 31.65 70.8 30.5 70.85 30.35 70.85 29.85 70.7 25.4 70.6 23.15 70.6 22.4 70.6 22.0 70.55 21.85 70.55 20.65 70.55 20.5 70.5 20.3 70.45 18.05 70.4 15.65 70.3 13.0 70.35 12.55 70.25 12.5 M70.4 12.65 L70.4 13.1 71.25 39.8 71.25 40.25 71.35 40.45 72.25 39.9 Q72.65 39.5 72.8 35.25 L72.75 25.4 72.6 22.7 72.55 21.35 71.9 12.8 Q71.55 8.95 71.2 9.15 L70.35 8.85 70.4 12.65 M65.7 25.35 Q65.6 24.5 65.75 23.9 65.7 22.4 65.95 22.7 66.1 22.4 66.25 23.7 L66.35 25.55 66.35 26.25 66.05 27.9 Q65.8 27.85 65.75 26.35 L65.7 25.35 M71.4 22.35 L71.35 20.6 71.5 20.5 71.8 22.05 72.05 24.45 71.95 25.65 71.75 27.35 71.55 27.55 71.4 22.35" fill="#990000" fill-rule="evenodd" stroke="none"/>
    <path d="M62.7 19.4 L62.8 24.5 62.85 25.0 62.85 25.25 62.75 25.4 62.75 24.9 Q62.55 22.95 62.35 23.2 62.15 23.1 62.05 24.7 61.95 25.1 62.0 25.85 L61.9 23.2 Q61.85 20.7 61.95 19.0 62.05 17.25 62.25 17.35 62.5 17.3 62.7 19.4 M62.85 31.05 L62.9 31.25 62.9 31.9 63.1 44.3 63.1 44.85 63.1 45.0 62.65 46.15 Q62.0 46.45 61.55 41.3 60.95 36.1 60.95 28.7 L60.95 23.0 61.0 23.25 Q61.0 30.25 61.5 35.1 61.95 39.9 62.6 39.75 L62.95 38.75 62.85 31.05 M64.75 34.0 L64.8 34.1 64.8 34.65 64.95 43.55 64.95 44.05 64.95 44.35 63.25 45.3 63.2 45.2 63.2 44.6 62.8 12.7 Q62.7 12.5 62.85 12.35 L62.9 11.95 63.2 39.0 64.85 38.2 64.75 34.0 M63.7 12.6 L63.75 12.8 63.75 14.9 63.7 12.6 M67.2 25.3 L67.25 27.15 Q67.4 33.55 67.2 38.4 66.9 43.35 66.4 43.85 65.8 44.1 65.4 39.25 64.85 34.35 64.8 27.6 L64.75 22.8 Q64.8 29.0 65.3 33.6 65.7 37.95 66.3 37.9 66.75 37.55 67.05 32.8 L67.2 25.3 M68.6 13.1 L68.65 13.8 68.7 13.85 68.7 14.15 68.85 21.25 68.7 20.35 68.25 18.2 67.95 16.65 67.95 16.35 Q67.9 15.05 68.1 15.05 L68.65 17.65 68.6 13.1 M69.15 27.75 L69.25 30.75 69.2 39.6 Q68.95 42.2 68.6 42.45 68.15 42.65 67.75 40.55 L67.7 40.25 67.7 39.8 67.7 34.95 Q68.05 36.85 68.45 36.8 68.8 36.65 69.0 34.25 L69.15 27.75 M67.55 28.45 Q67.25 26.45 67.25 22.8 L67.25 18.75 Q67.3 22.1 67.6 24.0 67.7 24.8 68.1 25.55 L68.35 27.4 68.15 29.2 67.8 28.5 67.6 27.15 67.55 28.45 M70.25 12.5 L70.35 12.55 70.3 13.0 70.25 12.5 M70.4 15.65 L70.45 18.05 69.7 18.2 69.65 15.8 70.4 15.65 M70.5 20.3 L70.55 20.5 70.55 20.65 70.5 20.3 M70.55 21.85 L70.6 22.0 70.6 22.4 70.6 23.15 70.55 21.85 M70.7 25.4 L70.85 29.85 70.85 30.35 70.8 30.5 70.75 27.75 69.95 27.95 69.9 25.45 70.7 25.4 M70.85 31.65 L70.9 31.65 70.9 32.25 70.85 31.65 M71.0 35.15 L71.2 39.9 71.2 40.3 71.15 40.5 69.7 41.4 69.65 41.2 69.6 40.85 68.8 12.65 68.85 12.45 69.55 35.95 71.0 35.15 M72.6 22.7 L72.75 25.4 72.8 35.25 Q72.65 39.5 72.25 39.9 L71.35 40.45 71.25 40.25 71.25 39.8 70.4 13.1 70.4 12.65 71.2 35.1 72.1 34.7 Q72.45 34.5 72.6 30.55 L72.6 22.7 M65.7 25.35 Q65.5 24.0 65.55 22.4 L65.55 18.7 Q65.7 16.85 65.85 17.1 L66.2 18.75 66.4 22.3 66.35 25.55 66.25 23.7 Q66.1 22.4 65.95 22.7 65.7 22.4 65.75 23.9 65.6 24.5 65.7 25.35 M71.4 22.35 L71.1 15.95 71.35 15.9 Q71.5 15.7 71.75 17.35 L72.0 21.3 72.05 24.45 71.8 22.05 71.5 20.5 71.35 20.6 71.4 22.35" fill="#640000" fill-rule="evenodd" stroke="none"/>
    <path d="M60.95 23.0 Q60.85 16.35 61.25 11.9 61.55 7.25 62.15 7.6 62.35 7.45 62.6 8.35 L62.6 12.3 62.7 12.6 Q62.6 12.65 62.65 12.9 L62.65 13.05 62.7 19.4 Q62.5 17.3 62.25 17.35 62.05 17.25 61.95 19.0 61.85 20.7 61.9 23.2 L62.0 25.85 62.0 26.3 62.1 27.15 Q62.25 28.65 62.45 28.75 L62.85 26.45 62.85 31.05 62.95 38.75 62.6 39.75 Q61.95 39.9 61.5 35.1 61.0 30.25 61.0 23.25 L60.95 23.0 M64.75 34.0 L64.85 38.2 63.2 39.0 62.9 11.95 62.8 8.05 63.65 7.95 63.7 12.3 63.7 12.55 63.7 12.6 63.75 14.9 64.0 29.7 64.7 29.5 64.75 34.0 M64.75 22.8 L64.75 22.4 Q64.6 16.15 64.95 12.05 65.1 8.0 65.7 7.85 66.1 8.0 66.55 12.05 66.95 16.15 67.15 22.3 L67.15 22.7 67.2 25.3 67.05 32.8 Q66.75 37.55 66.3 37.9 65.7 37.95 65.3 33.6 64.8 29.0 64.75 22.8 M67.25 18.75 L67.2 18.15 Q67.1 13.7 67.35 10.9 67.45 8.3 67.9 8.5 68.25 8.5 68.6 9.8 L68.6 13.1 68.65 17.65 68.1 15.05 Q67.9 15.05 67.95 16.35 L67.95 16.65 68.25 18.2 68.7 20.35 68.85 21.25 69.1 26.25 69.15 27.35 69.15 27.75 69.0 34.25 Q68.8 36.65 68.45 36.8 68.05 36.85 67.7 34.95 L67.6 34.95 67.55 28.45 67.6 27.15 67.8 28.5 68.15 29.2 68.35 27.4 68.1 25.55 Q67.7 24.8 67.6 24.0 67.3 22.1 67.25 18.75 M68.85 12.45 L68.75 8.8 70.15 9.0 70.25 12.5 70.3 13.0 70.4 15.65 69.65 15.8 69.7 18.2 70.45 18.05 70.5 20.3 70.55 20.65 70.55 21.85 70.6 23.15 70.7 25.4 69.9 25.45 69.95 27.95 70.75 27.75 70.8 30.5 70.85 31.65 70.9 32.25 71.0 35.15 69.55 35.95 68.85 12.45 M72.6 22.7 L72.6 30.55 Q72.45 34.5 72.1 34.7 L71.2 35.1 70.4 12.65 70.35 8.85 71.2 9.15 Q71.55 8.95 71.9 12.8 L72.55 21.35 72.6 22.7 M66.35 25.55 L66.4 22.3 66.2 18.75 65.85 17.1 Q65.7 16.85 65.55 18.7 L65.55 22.4 Q65.5 24.0 65.7 25.35 L65.75 26.35 Q65.8 27.85 66.05 27.9 L66.35 26.25 66.35 25.55 M72.05 24.45 L72.0 21.3 71.75 17.35 Q71.5 15.7 71.35 15.9 L71.1 15.95 71.4 22.35 71.55 27.55 71.75 27.35 71.95 25.65 72.05 24.45" fill="#ffffff" fill-rule="evenodd" stroke="none"/>
    <path d="M59.6 -25.85 L59.45 85.45 51.4 84.85 51.5 -24.05 59.6 -25.85" fill="#999999" fill-rule="evenodd" stroke="none"/>
    <path d="M71.55 -17.75 L74.65 66.4 60.4 85.15 59.65 -25.8 71.55 -17.75" fill="none" stroke="#624544" stroke-linecap="round" stroke-linejoin="round" stroke-width="1.0"/>
    <path d="M71.35 -14.15 L74.15 61.35 60.95 76.75 60.15 -21.65 71.35 -14.15" fill="none" stroke="#6c0000" stroke-linecap="round" stroke-linejoin="round" stroke-width="1.0"/>
    <path d="M60.95 23.0 Q60.85 16.35 61.25 11.9 61.55 7.25 62.15 7.6 62.35 7.45 62.6 8.35 L62.6 12.3 62.7 12.6 Q62.6 12.65 62.65 12.9 M62.65 13.05 L62.7 19.4 Q62.5 17.3 62.25 17.35 62.05 17.25 61.95 19.0 61.85 20.7 61.9 23.2 L62.0 25.85 62.0 26.3 62.1 27.15 Q62.25 28.65 62.45 28.75 L62.85 26.45 62.85 31.05 62.95 38.75 62.6 39.75 Q61.95 39.9 61.5 35.1 61.0 30.25 61.0 23.25 L60.95 23.0 M64.75 34.0 L64.85 38.2 63.2 39.0 62.9 11.95 62.8 8.05 63.65 7.95 63.7 12.3 M63.75 14.9 L64.0 29.7 64.7 29.5 64.75 34.0 M64.75 22.8 L64.75 22.4 Q64.6 16.15 64.95 12.05 65.1 8.0 65.7 7.85 66.1 8.0 66.55 12.05 66.95 16.15 67.15 22.3 L67.15 22.7 67.2 25.3 67.05 32.8 Q66.75 37.55 66.3 37.9 65.7 37.95 65.3 33.6 64.8 29.0 64.75 22.8 M67.25 18.75 L67.2 18.15 Q67.1 13.7 67.35 10.9 67.45 8.3 67.9 8.5 68.25 8.5 68.6 9.8 L68.6 13.1 68.65 17.65 68.1 15.05 Q67.9 15.05 67.95 16.35 L67.95 16.65 68.25 18.2 68.7 20.35 68.85 21.25 69.1 26.25 69.15 27.35 69.15 27.75 69.0 34.25 Q68.8 36.65 68.45 36.8 68.05 36.85 67.7 34.95 L67.6 34.95 67.55 28.45 67.6 27.15 67.8 28.5 68.15 29.2 68.35 27.4 68.1 25.55 Q67.7 24.8 67.6 24.0 67.3 22.1 67.25 18.75 M68.85 12.45 L68.75 8.8 70.15 9.0 70.25 12.5 70.3 13.0 70.4 15.65 69.65 15.8 69.7 18.2 70.45 18.05 70.5 20.3 70.55 20.65 70.55 21.85 70.6 23.15 70.7 25.4 69.9 25.45 69.95 27.95 70.75 27.75 70.8 30.5 70.85 31.65 70.9 32.25 71.0 35.15 69.55 35.95 68.85 12.45 M72.6 22.7 L72.6 30.55 Q72.45 34.5 72.1 34.7 L71.2 35.1 70.4 12.65 70.35 8.85 71.2 9.15 Q71.55 8.95 71.9 12.8 L72.55 21.35 72.6 22.7 M63.7 12.6 L63.75 14.9 M66.35 25.55 L66.4 22.3 66.2 18.75 65.85 17.1 Q65.7 16.85 65.55 18.7 L65.55 22.4 Q65.5 24.0 65.7 25.35 L65.75 26.35 Q65.8 27.85 66.05 27.9 L66.35 26.25 66.35 25.55 M72.05 24.45 L72.0 21.3 71.75 17.35 Q71.5 15.7 71.35 15.9 L71.1 15.95 71.4 22.35 71.55 27.55 71.75 27.35 71.95 25.65 72.05 24.45" fill="none" stroke="#640000" stroke-linecap="round" stroke-linejoin="round" stroke-width="1.0"/>
    <path d="M59.6 -25.85 L59.45 85.45 51.4 84.85 51.5 -24.05 59.6 -25.85 Z" fill="none" stroke="#624544" stroke-linecap="round" stroke-linejoin="round" stroke-width="1.0"/>
  </g>
</svg>
