<?xml version="1.0" encoding="UTF-8" standalone="no"?>
<svg xmlns:ffdec="https://www.free-decompiler.com/flash" xmlns:xlink="http://www.w3.org/1999/xlink" ffdec:objectType="shape" height="121.0px" width="158.95px" xmlns="http://www.w3.org/2000/svg">
  <g transform="matrix(1.0, 0.0, 0.0, 1.0, 150.5, 90.5)">
    <path d="M-19.45 4.0 Q-23.15 8.4 -27.95 12.4 -48.9 30.0 -78.5 30.0 -108.1 30.0 -129.05 12.4 -150.0 -5.15 -150.0 -30.0 -150.0 -54.85 -129.05 -72.45 -108.1 -90.0 -78.5 -90.0 -48.9 -90.0 -27.95 -72.45 -7.0 -54.85 -7.0 -30.0 -7.0 -21.3 -9.55 -13.45 L7.95 4.0 -19.45 4.0" fill="#ffffff" fill-rule="evenodd" stroke="none"/>
    <path d="M-19.45 4.0 Q-23.15 8.4 -27.95 12.4 -48.9 30.0 -78.5 30.0 -108.1 30.0 -129.05 12.4 -150.0 -5.15 -150.0 -30.0 -150.0 -54.85 -129.05 -72.45 -108.1 -90.0 -78.5 -90.0 -48.9 -90.0 -27.95 -72.45 -7.0 -54.85 -7.0 -30.0 -7.0 -21.3 -9.55 -13.45 L7.95 4.0 -19.45 4.0 Z" fill="none" stroke="#666666" stroke-linecap="round" stroke-linejoin="round" stroke-width="1.0"/>
  </g>
</svg>
