<?xml version="1.0" encoding="UTF-8" standalone="no"?>
<svg xmlns:ffdec="https://www.free-decompiler.com/flash" xmlns:xlink="http://www.w3.org/1999/xlink" ffdec:objectType="shape" height="20.05px" width="22.1px" xmlns="http://www.w3.org/2000/svg">
  <g transform="matrix(1.0, 0.0, 0.0, 1.0, 0.0, 0.0)">
    <path d="M15.7 6.0 L14.55 6.35 Q14.2 6.3 13.7 5.85 L13.65 5.35 Q13.65 4.4 14.55 4.4 14.95 4.4 15.7 5.5 L15.7 6.0 M11.1 7.5 Q9.85 7.35 9.85 6.25 L10.4 5.45 Q11.25 6.1 11.6 7.0 L11.1 7.5 M7.35 7.0 L8.5 8.05 7.35 8.25 Q7.05 8.25 6.65 7.85 6.65 7.3 7.35 7.0" fill="#6d5341" fill-rule="evenodd" stroke="none"/>
    <path d="M19.4 14.7 Q18.3 15.95 16.4 15.95 L16.1 15.85 Q18.35 15.5 19.05 14.85 L19.4 14.7 M15.1 15.65 L14.25 15.4 15.2 15.4 15.1 15.65 M10.8 16.05 L10.65 16.25 10.7 16.15 10.8 16.05 M2.0 13.25 L2.0 13.2 2.1 13.0 2.0 13.25 M14.65 9.65 L14.65 9.3 15.0 10.3 14.65 9.65" fill="#886751" fill-rule="evenodd" stroke="none"/>
    <path d="M16.1 15.85 L15.55 15.95 15.1 15.75 15.1 15.65 15.2 15.4 Q15.85 13.85 19.15 13.9 L19.35 14.2 19.05 14.85 Q18.35 15.5 16.1 15.85 M10.65 16.25 L10.4 16.95 Q9.85 18.45 9.4 18.5 L7.65 18.35 7.35 18.25 Q5.2 17.8 3.5 16.35 1.6 14.75 1.65 14.1 L2.0 13.25 2.1 13.0 3.35 9.3 Q1.3 7.4 1.3 6.45 1.25 5.35 2.85 3.4 L3.05 3.4 3.7 3.95 Q3.7 4.8 3.0 5.15 3.0 7.15 3.9 7.15 4.7 7.15 4.7 7.9 L4.05 11.15 4.05 11.5 5.35 11.95 6.15 12.25 6.3 12.3 6.45 12.5 Q5.4 13.1 3.4 13.55 L4.05 15.4 4.3 15.6 5.6 15.75 Q6.45 15.7 6.85 16.4 9.1 16.4 9.4 13.35 10.9 14.55 10.9 15.25 L10.7 16.15 10.65 16.25 M13.2 9.6 L13.35 8.4 14.0 8.4 14.65 9.65 15.0 10.3 15.55 11.4 15.55 11.8 15.55 11.95 14.55 12.5 14.75 11.5 Q14.75 10.45 13.15 10.45 13.0 10.85 13.05 9.95 L13.2 9.6 M8.3 10.3 L8.7 11.15 8.0 11.5 7.4 10.8 Q6.75 10.05 6.8 9.75 L8.35 8.2 Q8.85 8.25 9.2 8.75 L8.0 9.55 8.3 10.3 M11.3 3.6 L11.95 3.6 Q12.2 3.55 12.8 4.6 L12.6 4.8 Q11.8 4.4 11.3 3.6 M16.25 12.65 L16.4 12.85 15.9 13.55 15.7 13.4 Q15.9 12.7 16.25 12.65" fill="#554133" fill-rule="evenodd" stroke="none"/>
    <path d="M20.85 15.1 Q19.2 17.65 16.4 17.65 L12.35 16.85 11.1 18.5 Q9.95 20.05 7.8 20.05 5.45 20.05 2.65 16.7 0.3 13.85 0.35 13.25 L1.85 9.5 Q-0.05 7.95 0.0 7.35 0.0 5.15 1.65 3.4 3.55 1.3 6.7 1.3 L9.2 0.0 Q10.05 0.0 11.45 0.85 L14.35 0.0 Q20.65 0.0 19.7 5.65 19.6 6.75 20.85 8.75 22.1 10.8 22.1 11.75 22.1 13.3 20.85 15.1 M19.4 14.7 Q20.7 14.1 20.7 12.6 L20.5 12.3 20.6 11.9 Q18.45 7.65 18.45 3.65 18.45 3.15 16.75 2.4 15.1 1.7 14.4 1.75 L11.45 2.55 Q9.4 1.65 8.7 1.75 8.35 2.2 8.15 3.45 L7.65 3.6 Q6.75 2.9 5.95 2.9 L5.2 2.95 4.6 2.55 Q3.85 2.55 3.05 3.4 L2.85 3.4 Q1.25 5.35 1.3 6.45 1.3 7.4 3.35 9.3 L2.1 13.0 2.0 13.2 2.0 13.25 1.65 14.1 Q1.6 14.75 3.5 16.35 5.2 17.8 7.35 18.25 L7.65 18.35 9.4 18.5 Q9.85 18.45 10.4 16.95 L10.65 16.25 10.8 16.05 Q11.45 15.45 11.8 15.45 L14.25 15.4 15.1 15.65 15.1 15.75 15.55 15.95 16.1 15.85 16.4 15.95 Q18.3 15.95 19.4 14.7" fill="#412810" fill-rule="evenodd" stroke="none"/>
    <path d="M5.2 2.95 L5.95 2.9 Q6.75 2.9 7.65 3.6 L8.15 3.45 Q8.35 2.2 8.7 1.75 9.4 1.65 11.45 2.55 L14.4 1.75 Q15.1 1.7 16.75 2.4 18.45 3.15 18.45 3.65 18.45 7.65 20.6 11.9 L20.5 12.3 19.7 11.5 17.65 13.0 17.75 12.85 18.3 11.0 Q17.15 7.7 14.9 7.7 L14.2 7.9 14.3 8.25 13.35 8.2 Q12.25 8.5 12.25 8.95 12.25 9.35 12.8 9.55 L13.2 9.6 13.05 9.95 Q13.0 10.85 13.15 10.45 14.75 10.45 14.75 11.5 L14.55 12.5 15.55 11.95 Q15.5 13.2 14.2 13.2 12.8 13.2 11.1 12.5 L11.35 11.1 Q11.7 10.85 11.45 10.8 L11.25 8.95 10.4 8.75 Q9.5 8.9 8.7 9.9 L8.9 10.15 8.3 10.3 8.0 9.55 9.2 8.75 Q8.85 8.25 8.35 8.2 L6.8 9.75 Q6.75 10.05 7.4 10.8 L7.05 11.15 6.15 12.25 5.35 11.95 5.05 10.95 Q6.15 9.7 6.15 9.15 4.8 7.7 4.8 7.0 L6.15 3.6 5.2 2.95 M15.7 6.0 L15.7 5.5 Q14.95 4.4 14.55 4.4 13.65 4.4 13.65 5.35 L13.7 5.85 Q14.2 6.3 14.55 6.35 L15.7 6.0 M11.3 3.6 Q11.8 4.4 12.6 4.8 L12.8 4.6 Q12.2 3.55 11.95 3.6 L11.3 3.6 M11.1 7.5 L11.6 7.0 Q11.25 6.1 10.4 5.45 L9.85 6.25 Q9.85 7.35 11.1 7.5 M7.35 7.0 Q6.65 7.3 6.65 7.85 7.05 8.25 7.35 8.25 L8.5 8.05 7.35 7.0" fill="#795b48" fill-rule="evenodd" stroke="none"/>
    <path d="M20.5 12.3 L20.7 12.6 Q20.7 14.1 19.4 14.7 L19.05 14.85 19.35 14.2 19.15 13.9 Q15.85 13.85 15.2 15.4 L14.25 15.4 11.8 15.45 Q11.45 15.45 10.8 16.05 L10.7 16.15 10.9 15.25 Q10.9 14.55 9.4 13.35 9.1 16.4 6.85 16.4 6.45 15.7 5.6 15.75 L4.3 15.6 4.05 15.4 3.4 13.55 Q5.4 13.1 6.45 12.5 L6.3 12.3 6.15 12.25 7.05 11.15 7.4 10.8 8.0 11.5 8.7 11.15 8.3 10.3 8.9 10.15 8.7 9.9 Q9.5 8.9 10.4 8.75 L11.25 8.95 11.45 10.8 Q11.7 10.85 11.35 11.1 L11.1 12.5 Q12.8 13.2 14.2 13.2 15.5 13.2 15.55 11.95 L15.55 11.8 15.55 11.4 15.0 10.3 14.65 9.3 14.65 9.65 14.0 8.4 13.35 8.4 13.2 9.6 12.8 9.55 Q12.25 9.35 12.25 8.95 12.25 8.5 13.35 8.2 L14.3 8.25 14.2 7.9 14.9 7.7 Q17.15 7.7 18.3 11.0 L17.75 12.85 17.65 13.0 19.7 11.5 20.5 12.3 M3.05 3.4 Q3.85 2.55 4.6 2.55 L5.2 2.95 6.15 3.6 4.8 7.0 Q4.8 7.7 6.15 9.15 6.15 9.7 5.05 10.95 L5.35 11.95 4.05 11.5 4.05 11.15 4.7 7.9 Q4.7 7.15 3.9 7.15 3.0 7.15 3.0 5.15 3.7 4.8 3.7 3.95 L3.05 3.4 M16.25 12.65 Q15.9 12.7 15.7 13.4 L15.9 13.55 16.4 12.85 16.25 12.65" fill="#624939" fill-rule="evenodd" stroke="none"/>
  </g>
</svg>
