<?xml version="1.0" encoding="UTF-8" standalone="no"?>
<svg xmlns:ffdec="https://www.free-decompiler.com/flash" xmlns:xlink="http://www.w3.org/1999/xlink" ffdec:objectType="shape" height="22.1px" width="23.4px" xmlns="http://www.w3.org/2000/svg">
  <g transform="matrix(1.0, 0.0, 0.0, 1.0, 0.25, 0.0)">
    <path d="M20.9 4.45 Q20.7 5.8 19.25 6.4 16.3 7.25 14.05 8.4 L14.6 9.5 Q15.35 9.0 16.65 9.0 L19.55 8.75 Q21.8 7.2 21.8 5.4 21.8 5.05 20.9 4.45 M13.55 8.55 Q13.85 7.25 16.25 6.6 18.85 5.85 19.9 3.85 L18.45 3.1 Q15.05 1.3 13.65 1.35 7.75 1.3 4.25 5.25 1.2 8.65 1.2 13.35 1.2 14.5 1.35 15.45 L1.8 15.15 Q3.35 18.0 4.05 18.0 7.85 18.0 9.2 15.1 9.9 12.1 10.45 12.15 L12.4 13.5 Q13.6 13.55 15.05 16.1 16.4 18.4 16.4 19.55 L16.75 19.9 20.6 17.2 20.1 16.7 13.55 8.55 M11.65 13.25 L10.8 13.0 9.25 16.6 Q7.95 18.85 6.4 18.9 3.65 18.85 2.35 18.05 3.4 19.4 5.4 19.4 L6.5 19.3 Q8.5 18.9 10.0 17.05 11.45 15.15 11.45 13.7 L12.0 13.6 11.65 13.25 M0.55 17.2 L0.0 13.5 Q0.2 9.95 1.95 6.65 5.6 -0.05 13.85 0.0 21.25 0.0 23.15 5.4 23.15 10.35 16.75 11.1 22.1 16.25 22.15 17.65 22.1 18.8 16.2 22.1 15.25 17.65 12.8 15.35 L10.2 18.25 Q7.6 20.75 5.55 20.75 1.9 20.75 0.55 17.2" fill="#000000" fill-rule="evenodd" stroke="none"/>
    <path d="M20.9 4.45 Q21.8 5.05 21.8 5.4 21.8 7.2 19.55 8.75 L16.65 9.0 Q15.35 9.0 14.6 9.5 L14.05 8.4 Q16.3 7.25 19.25 6.4 20.7 5.8 20.9 4.45 M20.1 16.7 L20.4 17.05 Q19.65 18.0 17.2 19.1 L16.55 18.65 Q17.55 17.25 17.55 16.4 13.15 11.9 12.6 8.55 L12.8 8.45 Q11.0 7.2 11.0 4.75 11.0 2.85 12.5 2.9 L14.85 3.2 Q12.05 5.35 13.5 8.4 L13.45 8.45 13.55 8.55 20.1 16.7 M10.0 12.15 L6.15 12.55 Q4.25 12.35 4.5 14.85 L3.7 15.15 Q3.5 14.7 3.5 13.5 3.5 9.9 6.9 9.9 9.35 9.9 10.0 12.15 M11.45 13.7 Q11.45 15.15 10.0 17.05 8.5 18.9 6.5 19.3 L5.4 19.4 Q3.4 19.4 2.35 18.05 3.65 18.85 6.4 18.9 7.95 18.85 9.25 16.6 L10.8 13.0 11.65 13.25 11.45 13.7" fill="#4e4534" fill-rule="evenodd" stroke="none"/>
    <path d="M20.1 16.7 L20.6 17.2 16.75 19.9 16.4 19.55 Q16.4 18.4 15.05 16.1 13.6 13.55 12.4 13.5 L10.45 12.15 Q9.9 12.1 9.2 15.1 7.85 18.0 4.05 18.0 3.35 18.0 1.8 15.15 L1.35 15.45 Q1.2 14.5 1.2 13.35 1.2 8.65 4.25 5.25 7.75 1.3 13.65 1.35 15.05 1.3 18.45 3.1 L19.9 3.85 Q18.85 5.85 16.25 6.6 13.85 7.25 13.55 8.55 L13.45 8.45 13.5 8.4 Q12.05 5.35 14.85 3.2 L12.5 2.9 Q11.0 2.85 11.0 4.75 11.0 7.2 12.8 8.45 L12.6 8.55 Q13.15 11.9 17.55 16.4 17.55 17.25 16.55 18.65 L17.2 19.1 Q19.65 18.0 20.4 17.05 L20.1 16.7 M10.0 12.15 Q9.35 9.9 6.9 9.9 3.5 9.9 3.5 13.5 3.5 14.7 3.7 15.15 L4.5 14.85 Q4.25 12.35 6.15 12.55 L10.0 12.15" fill="#6f624a" fill-rule="evenodd" stroke="none"/>
    <path d="M2.05 17.15 Q3.5 18.85 7.1 18.85 L10.35 17.9 10.75 18.0 11.0 18.4 Q11.0 19.2 8.05 20.05 L8.25 20.25 Q7.25 20.9 5.75 20.75 L5.2 20.75 5.1 20.75 3.8 20.5 2.6 20.0 Q1.35 19.35 1.15 18.45 -0.25 16.95 -0.25 16.3 -0.25 15.4 0.5 15.4 L2.05 17.15 M17.0 21.5 L16.35 22.0 Q15.9 22.0 14.5 16.7 14.5 16.3 14.65 16.4 L14.85 16.5 Q16.35 17.55 17.0 21.5" fill="#b99e0b" fill-rule="evenodd" stroke="none"/>
  </g>
</svg>
