<?xml version="1.0" encoding="UTF-8" standalone="no"?>
<svg xmlns:ffdec="https://www.free-decompiler.com/flash" xmlns:xlink="http://www.w3.org/1999/xlink" ffdec:objectType="shape" height="32.5px" width="51.0px" xmlns="http://www.w3.org/2000/svg">
  <g transform="matrix(1.0, 0.0, 0.0, 1.0, 25.65, 14.5)">
    <path d="M13.4 -6.85 Q15.45 -10.0 18.35 -10.0 21.25 -10.0 23.3 -6.85 25.35 -3.7 25.35 0.75 25.35 5.2 23.3 8.35 21.25 11.5 18.35 11.5 15.45 11.5 13.4 8.35 L12.7 7.1 Q11.65 9.0 10.0 10.65 5.7 15.0 -0.4 15.0 -4.3 15.0 -7.45 13.25 L-8.15 14.2 Q-11.15 18.0 -15.4 18.0 -19.65 18.0 -22.65 14.2 -25.65 10.4 -25.65 5.0 -25.65 -0.4 -22.65 -4.2 -19.65 -8.0 -15.4 -8.0 L-12.9 -7.65 -10.85 -10.2 Q-6.5 -14.5 -0.4 -14.5 5.7 -14.5 10.0 -10.2 11.9 -8.3 12.95 -6.1 L13.4 -6.85" fill="#00ff00" fill-opacity="0.0" fill-rule="evenodd" stroke="none"/>
  </g>
</svg>
