<?xml version="1.0" encoding="UTF-8" standalone="no"?>
<svg xmlns:ffdec="https://www.free-decompiler.com/flash" xmlns:xlink="http://www.w3.org/1999/xlink" ffdec:objectType="shape" height="30.3px" width="48.0px" xmlns="http://www.w3.org/2000/svg">
  <g transform="matrix(1.0, 0.0, 0.0, 1.0, 0.0, 0.0)">
    <path d="M3.9 17.0 Q5.1 15.05 8.05 11.5 8.75 10.6 10.25 10.95 11.5 11.15 11.65 10.1 L12.0 8.85 12.8 7.45 Q13.95 5.7 15.7 5.05 L19.3 4.7 Q24.05 5.0 26.8 7.7 28.35 9.3 29.2 11.3 L30.85 9.95 30.95 9.85 32.35 9.3 32.5 9.25 34.9 9.0 Q40.0 9.0 42.3 13.4 43.4 15.55 43.55 17.8 43.55 18.8 43.15 20.0 L42.5 21.6 41.6 23.2 Q41.65 23.55 41.95 23.7 L42.3 24.0 42.5 23.85 42.6 23.85 Q46.45 23.85 46.9 16.8 46.9 10.95 42.85 7.8 40.9 6.4 36.25 5.7 L31.1 4.95 Q29.9 3.45 28.5 2.7 25.95 1.2 18.65 1.2 15.4 1.2 10.4 4.4 L4.9 7.95 Q2.9 8.6 1.85 11.6 1.1 13.65 1.1 15.35 1.1 18.6 3.0 22.55 6.05 29.0 12.45 29.05 13.95 29.0 14.15 28.5 14.05 27.75 14.2 27.4 L14.2 27.3 Q11.75 27.05 9.7 25.95 L8.2 24.25 5.85 22.1 Q4.4 18.35 3.85 17.85 L3.9 17.0 M48.0 16.8 Q46.9 25.1 42.85 25.1 41.2 25.1 40.65 24.25 L40.4 23.25 Q42.55 19.7 42.55 17.8 41.5 10.1 36.3 10.1 32.45 10.1 30.7 11.5 29.0 12.85 28.75 12.85 28.0 11.1 26.3 9.35 22.9 5.85 18.05 5.85 13.6 5.85 13.6 8.1 13.6 10.75 9.4 11.6 7.15 12.0 5.85 14.65 4.9 16.55 4.9 18.35 4.9 20.2 7.65 23.1 11.0 26.75 15.3 26.2 L15.55 26.75 Q15.55 30.25 12.85 30.3 6.35 30.3 2.75 24.55 0.0 20.15 0.0 15.2 0.0 8.35 4.1 6.85 5.75 6.25 7.5 4.95 L10.5 2.7 Q14.45 0.0 21.0 0.0 26.35 0.0 29.3 1.75 32.65 3.85 35.2 4.1 41.5 4.8 44.2 7.5 48.0 11.2 48.0 16.8" fill="#203324" fill-rule="evenodd" stroke="none"/>
    <path d="M3.9 17.0 L3.85 17.85 3.65 17.75 3.5 17.8 3.9 17.0 M41.95 23.7 Q41.65 23.55 41.6 23.2 L42.5 21.6 41.85 23.1 41.95 23.7" fill="#3d7b33" fill-rule="evenodd" stroke="none"/>
    <path d="M42.5 21.6 L43.15 20.0 Q43.55 18.8 43.55 17.8 43.4 15.55 42.3 13.4 40.0 9.0 34.9 9.0 L32.5 9.25 32.35 9.3 30.95 9.85 30.85 9.95 29.2 11.3 Q28.35 9.3 26.8 7.7 24.05 5.0 19.3 4.7 L15.7 5.05 Q13.95 5.7 12.8 7.45 L12.0 8.85 11.65 10.1 Q11.5 11.15 10.25 10.95 8.75 10.6 8.05 11.5 5.1 15.05 3.9 17.0 L3.5 17.8 3.65 17.75 3.85 17.85 Q4.4 18.35 5.85 22.1 L8.2 24.25 9.7 25.95 9.85 26.5 11.9 26.95 Q13.6 27.35 14.05 28.0 L11.85 27.95 Q11.5 27.95 11.7 28.2 L11.45 28.5 Q7.75 28.5 4.9 24.4 L2.75 20.2 2.85 18.85 2.6 18.85 Q2.45 18.6 2.45 17.95 2.45 17.3 3.2 15.3 L4.1 13.1 Q5.85 11.25 9.0 9.55 10.35 7.55 11.75 5.9 14.4 2.75 18.0 2.75 22.7 2.75 25.5 4.75 L29.85 8.3 Q31.8 6.85 32.85 6.85 L33.15 6.85 33.3 6.95 33.65 6.85 Q40.35 7.1 43.25 11.9 45.0 14.75 45.0 17.9 45.0 21.65 42.5 23.85 L42.3 24.0 41.95 23.7 41.85 23.1 42.5 21.6" fill="#264d20" fill-rule="evenodd" stroke="none"/>
    <path d="M9.7 25.95 Q11.75 27.05 14.2 27.3 L14.2 27.4 Q14.05 27.75 14.15 28.5 13.95 29.0 12.45 29.05 6.05 29.0 3.0 22.55 1.1 18.6 1.1 15.35 1.1 13.65 1.85 11.6 2.9 8.6 4.9 7.95 L10.4 4.4 Q15.4 1.2 18.65 1.2 25.95 1.2 28.5 2.7 29.9 3.45 31.1 4.95 L36.25 5.7 Q40.9 6.4 42.85 7.8 46.9 10.95 46.9 16.8 46.45 23.85 42.6 23.85 L42.5 23.85 Q45.0 21.65 45.0 17.9 45.0 14.75 43.25 11.9 40.35 7.1 33.65 6.85 L34.75 6.55 Q33.65 5.55 33.3 5.6 L32.3 6.2 32.2 6.15 Q31.05 6.25 29.35 4.9 L27.85 3.45 Q26.95 3.45 26.6 3.85 27.8 3.65 29.0 5.1 30.25 6.65 31.9 6.7 L32.5 6.35 33.15 6.85 32.85 6.85 Q31.8 6.85 29.85 8.3 L25.5 4.75 Q22.7 2.75 18.0 2.75 14.4 2.75 11.75 5.9 10.35 7.55 9.0 9.55 5.85 11.25 4.1 13.1 L3.2 15.3 Q2.45 17.3 2.45 17.95 2.45 18.6 2.6 18.85 L2.85 18.85 2.75 20.2 4.9 24.4 Q7.75 28.5 11.45 28.5 L11.7 28.2 Q11.5 27.95 11.85 27.95 L14.05 28.0 Q13.6 27.35 11.9 26.95 L9.85 26.5 9.7 25.95 M8.05 7.1 L6.1 7.2 Q6.1 7.35 6.85 7.5 L8.05 7.1 M2.3 12.0 L2.3 12.2 Q2.05 12.85 2.05 13.65 L2.3 15.0 2.45 15.0 2.5 14.95 Q3.65 14.5 3.7 13.3 L3.65 12.55 3.65 12.3 3.6 12.2 3.55 10.8 2.5 11.8 2.3 12.0 M4.9 8.1 L4.2 8.9 4.4 9.0 4.45 9.0 Q4.15 9.25 3.95 9.65 L3.85 9.2 3.65 9.2 3.4 10.1 3.65 10.15 3.4 10.8 Q5.3 9.6 5.2 8.35 L4.9 8.55 4.9 8.1" fill="#34672c" fill-rule="evenodd" stroke="none"/>
    <path d="M33.15 6.85 L32.5 6.35 31.9 6.7 Q30.25 6.65 29.0 5.1 27.8 3.65 26.6 3.85 26.95 3.45 27.85 3.45 L29.35 4.9 Q31.05 6.25 32.2 6.15 L32.3 6.2 33.3 5.6 Q33.65 5.55 34.75 6.55 L33.65 6.85 33.3 6.95 33.15 6.85 M4.9 8.1 L4.9 8.55 5.2 8.35 Q5.3 9.6 3.4 10.8 L3.65 10.15 3.4 10.1 3.65 9.2 3.85 9.2 3.95 9.65 Q4.15 9.25 4.45 9.0 L4.4 9.0 4.2 8.9 4.9 8.1 M2.3 12.0 L2.5 11.8 3.55 10.8 3.6 12.2 3.65 12.3 3.65 12.55 3.7 13.3 Q3.65 14.5 2.5 14.95 L2.45 15.0 2.3 15.0 2.05 13.65 Q2.05 12.85 2.3 12.2 L2.3 12.0 M8.05 7.1 L6.85 7.5 Q6.1 7.35 6.1 7.2 L8.05 7.1" fill="#6fbc63" fill-rule="evenodd" stroke="none"/>
    <path d="M41.4 23.4 L41.0 23.0 Q43.3 20.75 43.3 19.0 41.6 8.85 35.2 8.85 34.15 8.85 31.7 10.1 L29.4 11.35 Q29.15 11.05 28.7 11.05 26.4 8.4 24.1 7.05 24.1 6.7 24.4 6.7 L29.3 9.55 Q29.7 9.55 30.4 8.8 L30.75 9.1 32.6 8.45 36.5 7.7 Q43.2 7.7 44.25 17.25 44.0 23.4 41.4 23.4 M21.9 1.25 Q17.3 1.65 15.75 2.2 L12.25 4.6 11.75 4.35 7.85 7.05 7.15 7.6 Q6.8 7.5 6.8 7.05 6.8 6.35 8.05 4.9 9.4 3.35 10.45 3.35 L12.75 2.0 Q13.15 2.0 13.05 2.45 L14.75 1.25 15.2 1.45 17.35 0.95 20.5 0.35 Q21.0 0.35 21.9 1.25 M1.75 15.5 L2.25 19.25 Q2.4 20.5 2.7 21.45 L3.15 22.6 3.15 22.7 3.35 23.05 3.3 23.05 3.1 22.95 Q2.5 22.55 2.0 21.0 1.45 19.35 1.45 18.2 1.45 15.75 1.75 15.5 M3.5 22.55 Q3.5 22.1 3.9 22.1 L6.2 26.1 Q6.5 26.45 10.7 28.0 L12.95 28.6 Q14.05 28.6 13.95 27.8 13.9 27.1 14.65 27.15 15.0 27.25 15.0 27.65 15.0 28.25 14.25 29.1 13.4 30.05 12.55 30.05 11.6 30.05 11.95 29.3 L11.5 29.15 11.2 29.15 Q11.05 29.55 10.75 29.55 10.25 29.15 10.0 29.2 L9.8 29.1 10.2 29.75 10.1 30.05 9.75 30.2 Q7.95 30.2 3.7 25.05 3.7 24.65 4.2 24.6 L3.5 22.55" fill="#203324" fill-rule="evenodd" stroke="none"/>
  </g>
</svg>
