<?xml version="1.0" encoding="UTF-8" standalone="no"?>
<svg xmlns:ffdec="https://www.free-decompiler.com/flash" xmlns:xlink="http://www.w3.org/1999/xlink" ffdec:objectType="shape" height="31.25px" width="32.3px" xmlns="http://www.w3.org/2000/svg">
  <g transform="matrix(1.0, 0.0, 0.0, 1.0, 0.0, 0.0)">
    <path d="M31.45 10.2 L31.55 8.5 Q31.55 5.05 28.1 3.2 L29.4 3.15 30.05 3.9 Q32.3 6.75 32.3 9.15 L31.8 12.5 Q31.8 15.55 29.5 19.4 L28.6 18.65 Q30.1 15.95 30.75 13.25 L31.4 10.45 31.55 10.5 31.55 10.4 31.45 10.2" fill="#655c67" fill-rule="evenodd" stroke="none"/>
    <path d="M28.1 3.2 Q31.55 5.05 31.55 8.5 L31.45 10.2 Q31.0 9.55 29.8 9.35 L28.4 9.15 28.5 8.5 Q27.15 5.7 25.1 4.2 26.3 3.35 28.1 3.2 M31.4 10.45 L30.75 13.25 30.2 14.8 30.15 14.75 27.95 13.25 28.3 10.1 28.35 9.5 31.4 10.45 M25.55 23.85 L24.8 25.0 24.2 24.5 23.95 24.1 Q23.2 25.05 20.25 26.7 L19.0 27.4 19.05 27.4 19.2 27.75 Q18.4 28.95 15.55 28.85 15.6 28.15 15.25 27.55 17.3 27.3 18.6 26.4 L19.65 25.6 19.65 25.5 19.8 25.2 22.1 23.25 23.55 22.1 23.65 22.0 25.55 23.85 M19.6 1.25 Q23.85 1.35 27.0 2.7 25.7 2.8 24.8 3.95 22.35 2.35 19.05 2.35 15.25 2.35 10.85 6.2 7.55 9.1 6.8 10.65 L4.15 15.9 Q3.4 17.75 3.4 20.5 5.75 25.9 8.35 27.1 L6.45 26.65 5.9 26.75 6.6 27.7 Q7.3 28.35 8.8 28.35 L9.4 27.75 9.15 27.4 8.8 27.25 9.1 27.35 8.9 27.25 Q8.9 26.9 9.4 26.8 L9.8 26.75 11.25 27.1 11.4 27.0 11.45 27.1 12.0 27.25 13.7 27.6 14.4 27.6 Q14.45 28.3 14.85 28.8 L14.45 28.75 12.7 28.55 12.7 28.6 Q12.7 29.05 12.5 29.1 L11.35 29.15 11.55 27.5 11.4 27.25 Q10.7 27.4 10.7 27.95 10.7 28.8 11.15 29.15 L10.65 29.15 Q6.55 29.15 4.35 27.6 4.85 26.25 5.3 25.75 L5.15 25.7 5.15 25.65 Q4.35 23.9 3.65 23.9 L3.15 24.0 Q3.65 25.75 4.45 26.0 L4.05 26.55 3.8 27.15 Q2.75 26.2 2.25 24.9 L2.2 24.7 3.3 20.75 3.15 20.5 Q2.75 20.75 2.2 22.0 L1.9 22.8 1.8 19.4 Q1.8 13.6 9.0 7.1 15.45 1.25 19.05 1.25 L19.6 1.25 M26.8 5.75 L27.8 6.0 Q28.55 5.5 29.55 5.5 30.2 5.5 30.3 5.75 L30.3 5.6 30.05 5.0 28.8 5.0 Q28.8 5.3 26.8 5.75 M27.7 4.3 L27.15 3.75 25.55 4.0 27.55 5.25 28.15 5.0 28.05 5.0 27.7 4.3 M29.05 10.85 L28.8 10.85 28.7 12.1 29.55 13.0 Q30.3 12.8 30.3 12.0 30.3 11.45 29.85 11.25 L29.05 10.85 M30.05 8.5 L30.3 7.75 Q30.65 6.15 29.1 6.15 L27.95 6.25 Q29.1 8.15 30.05 8.5 M29.85 14.85 L30.15 14.85 28.5 18.55 26.35 17.05 Q26.75 15.9 27.7 14.65 L27.8 14.0 28.25 14.25 Q29.4 14.85 29.85 14.85 M28.3 16.5 L29.05 16.25 Q29.15 14.65 28.15 14.65 L27.7 14.75 27.7 16.0 28.3 16.5 M25.7 23.65 L23.8 21.85 24.7 20.25 Q25.3 19.05 25.8 19.0 L26.1 19.45 26.3 19.05 26.05 18.65 26.25 17.45 28.15 19.25 27.7 20.15 25.7 23.65 M2.55 17.4 L2.05 18.0 2.6 17.85 2.8 17.9 3.2 17.5 3.55 17.15 3.45 17.15 4.3 15.15 Q3.5 14.75 3.0 15.85 2.6 16.6 2.55 17.4 M2.65 19.9 L2.8 19.75 2.4 18.75 2.05 18.75 2.05 19.25 Q2.05 19.9 2.65 19.9" fill="#e8e6e8" fill-rule="evenodd" stroke="none"/>
    <path d="M31.45 10.2 L31.55 10.4 31.55 10.5 31.4 10.45 28.35 9.5 28.3 10.1 27.95 13.25 30.15 14.75 30.2 14.8 30.75 13.25 Q30.1 15.95 28.6 18.65 L29.5 19.4 29.65 19.5 Q29.95 19.6 29.4 19.6 L29.35 19.6 28.25 19.3 27.7 20.15 28.15 19.25 26.25 17.45 26.05 18.65 26.3 19.05 26.1 19.45 25.8 19.0 Q25.3 19.05 24.7 20.25 L23.8 21.85 25.7 23.65 26.15 24.1 26.3 24.25 26.05 24.15 25.55 23.85 23.65 22.0 23.55 22.1 22.1 23.25 Q24.3 20.8 25.85 16.95 L25.8 16.9 25.85 16.9 27.0 13.4 26.8 13.15 27.05 13.15 27.8 9.8 27.8 9.25 27.55 9.15 27.75 9.1 Q27.3 4.75 21.4 4.75 16.75 4.75 11.35 8.8 7.7 11.6 6.05 13.9 6.35 11.6 10.2 8.85 L18.4 3.75 18.15 3.4 Q10.35 6.3 6.8 10.65 7.55 9.1 10.85 6.2 15.25 2.35 19.05 2.35 22.35 2.35 24.8 3.95 25.7 2.8 27.0 2.7 L27.3 2.65 29.25 3.0 29.55 3.15 29.4 3.15 28.1 3.2 Q26.3 3.35 25.1 4.2 27.15 5.7 28.5 8.5 L28.4 9.15 29.8 9.35 Q31.0 9.55 31.45 10.2 M24.2 24.5 Q18.5 30.1 10.6 30.1 6.35 30.1 3.95 28.75 L3.8 29.25 3.65 29.25 3.55 28.5 Q2.45 27.8 1.85 26.75 1.05 25.4 1.05 22.2 1.05 16.8 5.55 9.85 L6.8 8.1 10.95 4.95 Q13.7 2.6 15.85 1.55 L19.05 1.15 19.6 1.25 19.05 1.25 Q15.45 1.25 9.0 7.1 1.8 13.6 1.8 19.4 L1.9 22.8 2.2 22.0 Q2.75 20.75 3.15 20.5 L3.3 20.75 2.2 24.7 2.25 24.9 Q2.75 26.2 3.8 27.15 L4.05 26.55 4.45 26.0 4.7 26.0 5.15 25.7 5.3 25.75 Q4.85 26.25 4.35 27.6 6.55 29.15 10.65 29.15 L11.15 29.15 Q10.7 28.8 10.7 27.95 10.7 27.4 11.4 27.25 L11.55 27.5 11.35 29.15 12.5 29.1 Q12.7 29.05 12.7 28.6 L12.7 28.55 14.45 28.75 14.85 28.8 Q14.45 28.3 14.4 27.6 L13.7 27.6 12.0 27.25 12.8 27.25 14.45 27.15 14.45 27.0 14.9 27.0 15.0 27.1 Q17.65 26.65 19.8 25.2 L19.65 25.5 19.65 25.6 18.6 26.4 Q17.3 27.3 15.25 27.55 15.6 28.15 15.55 28.85 18.4 28.95 19.2 27.75 L19.05 27.4 19.0 27.4 20.25 26.7 Q23.2 25.05 23.95 24.1 L24.2 24.5 M26.8 5.75 Q28.8 5.3 28.8 5.0 L30.05 5.0 30.3 5.6 30.3 5.75 Q30.2 5.5 29.55 5.5 28.55 5.5 27.8 6.0 L26.8 5.75 M29.85 14.85 Q29.4 14.85 28.25 14.25 L27.8 14.0 27.7 14.65 Q26.75 15.9 26.35 17.05 L28.5 18.55 30.15 14.85 29.85 14.85 M2.55 17.4 L2.55 17.55 2.6 17.85 2.05 18.0 2.55 17.4 M3.2 17.5 L3.45 17.15 3.55 17.15 3.2 17.5 M4.15 15.9 Q3.8 17.4 3.8 19.0 3.8 21.35 5.05 23.45 6.5 25.95 9.4 26.8 8.9 26.9 8.9 27.25 L9.1 27.35 8.8 27.25 8.35 27.1 Q5.75 25.9 3.4 20.5 3.4 17.75 4.15 15.9" fill="#b9b1ba" fill-rule="evenodd" stroke="none"/>
    <path d="M27.7 4.3 L28.05 5.0 28.15 5.0 27.55 5.25 25.55 4.0 27.15 3.75 27.7 4.3 M30.05 8.5 Q29.1 8.15 27.95 6.25 L29.1 6.15 Q30.65 6.15 30.3 7.75 L30.05 8.5 M29.05 10.85 L29.85 11.25 Q30.3 11.45 30.3 12.0 30.3 12.8 29.55 13.0 L28.7 12.1 28.8 10.85 29.05 10.85 M28.3 16.5 L27.7 16.0 27.7 14.75 28.15 14.65 Q29.15 14.65 29.05 16.25 L28.3 16.5 M5.15 25.7 L4.7 26.0 4.45 26.0 Q3.65 25.75 3.15 24.0 L3.65 23.9 Q4.35 23.9 5.15 25.65 L5.15 25.7 M2.6 17.85 L2.55 17.55 2.55 17.4 Q2.6 16.6 3.0 15.85 3.5 14.75 4.3 15.15 L3.45 17.15 3.2 17.5 2.8 17.9 2.6 17.85 M2.65 19.9 Q2.05 19.9 2.05 19.25 L2.05 18.75 2.4 18.75 2.8 19.75 2.65 19.9 M8.35 27.1 L8.8 27.25 9.15 27.4 9.4 27.75 8.8 28.35 Q7.3 28.35 6.6 27.7 L5.9 26.75 6.45 26.65 8.35 27.1" fill="#ffffff" fill-rule="evenodd" stroke="none"/>
    <path d="M29.25 3.0 L27.3 2.65 27.0 2.7 Q23.85 1.35 19.6 1.25 L19.05 1.15 15.85 1.55 Q13.7 2.6 10.95 4.95 L6.8 8.1 5.55 9.85 Q1.05 16.8 1.05 22.2 1.05 25.4 1.85 26.75 2.45 27.8 3.55 28.5 L3.65 29.25 3.8 29.25 3.95 28.75 Q6.35 30.1 10.6 30.1 18.5 30.1 24.2 24.5 L24.8 25.0 25.55 23.85 26.05 24.15 Q19.85 31.25 10.65 31.25 3.05 31.25 0.8 27.0 0.1 25.65 0.0 23.95 L0.05 22.3 Q0.05 14.8 5.95 8.45 L5.95 8.15 Q5.95 7.8 10.05 4.7 14.3 1.5 15.65 1.15 L15.75 1.3 Q18.75 0.0 21.65 0.0 26.3 0.0 29.25 3.0 M6.8 10.65 Q10.35 6.3 18.15 3.4 L18.4 3.75 10.2 8.85 Q6.35 11.6 6.05 13.9 7.7 11.6 11.35 8.8 16.75 4.75 21.4 4.75 27.3 4.75 27.75 9.1 L27.55 9.15 27.8 9.25 27.8 9.8 27.05 13.15 26.8 13.15 27.0 13.4 25.85 16.9 25.8 16.9 25.85 16.95 Q24.3 20.8 22.1 23.25 L19.8 25.2 Q17.65 26.65 15.0 27.1 L14.9 27.0 14.45 27.0 14.45 27.15 12.8 27.25 12.0 27.25 11.45 27.1 11.4 27.0 11.25 27.1 9.8 26.75 9.4 26.8 Q6.5 25.95 5.05 23.45 3.8 21.35 3.8 19.0 3.8 17.4 4.15 15.9 L6.8 10.65 M20.3 5.85 Q14.7 5.85 9.55 11.4 4.95 16.35 4.95 19.75 4.95 21.7 6.3 23.4 8.35 26.1 12.75 26.1 20.1 26.1 24.15 18.1 25.45 15.55 26.25 12.45 L26.8 9.65 Q26.8 5.85 20.3 5.85 M25.7 23.65 L27.7 20.15 28.25 19.3 29.35 19.6 29.4 19.6 27.0 23.0 26.15 24.1 25.7 23.65" fill="#59584f" fill-rule="evenodd" stroke="none"/>
    <path d="M27.7 4.1 Q29.0 4.1 29.1 7.6 29.1 9.1 28.25 11.95 L28.1 12.55 27.25 15.05 27.15 14.8 26.5 15.6 26.35 15.55 26.75 14.5 27.6 12.0 27.65 11.6 27.35 7.2 Q27.35 6.8 27.75 6.5 28.45 7.6 28.45 8.9 L28.6 8.35 28.65 8.0 28.7 7.6 Q28.7 5.95 27.45 4.3 L27.5 4.1 27.7 4.1 M28.85 11.45 L28.85 11.5 28.85 11.8 28.85 11.85 29.45 11.45 29.55 11.6 Q29.55 12.25 28.65 13.55 L28.3 13.65 28.2 13.5 28.2 13.05 28.25 12.4 28.35 11.75 28.55 11.3 28.55 11.35 28.8 11.1 28.85 11.45 M28.35 18.0 L28.25 17.9 Q29.45 16.85 30.45 14.8 L30.5 14.6 31.6 11.8 30.85 14.7 30.7 15.25 Q30.35 18.25 24.9 24.5 L24.65 24.25 22.2 26.45 22.25 26.5 22.3 26.6 21.6 27.1 22.05 26.8 23.0 26.35 Q20.9 28.3 18.0 29.15 L15.4 29.95 15.0 29.85 17.3 29.3 12.85 29.8 Q11.7 29.8 11.55 29.35 15.25 29.5 18.55 28.25 L21.0 27.25 20.95 27.1 24.0 24.3 27.75 18.1 28.15 18.45 28.0 19.3 28.9 18.0 28.55 18.05 28.35 18.0 M4.95 12.1 L4.85 12.1 3.25 14.7 3.25 14.8 Q4.25 13.25 4.55 13.3 2.75 16.55 2.2 18.5 L2.25 18.3 2.65 17.45 3.1 16.6 3.55 15.9 2.95 17.8 2.6 18.55 2.2 19.35 1.95 19.8 1.95 19.85 1.75 20.2 1.55 20.25 1.45 19.55 Q1.45 18.0 2.75 14.85 3.9 12.1 4.9 11.4 5.4 10.3 7.7 8.55 L4.95 12.1 M1.7 21.05 L1.6 23.55 1.5 23.95 1.4 24.1 1.35 24.0 1.45 25.0 1.5 25.05 Q1.75 23.25 2.55 22.75 L2.6 23.0 1.9 25.6 2.05 25.95 2.4 26.55 3.35 27.85 3.4 27.95 3.45 28.0 3.75 28.3 3.85 28.35 3.8 28.05 Q3.8 25.4 5.55 24.85 4.95 25.5 4.0 28.5 5.3 29.3 7.3 29.55 L7.2 29.75 7.55 29.85 10.65 30.1 Q11.35 30.2 11.7 30.45 L10.25 30.55 9.4 30.55 Q5.85 30.45 4.85 29.45 L4.85 29.25 3.9 28.7 3.85 28.7 Q3.1 28.7 2.5 27.95 2.0 27.8 2.0 27.05 L1.7 26.2 1.5 26.2 0.85 24.35 1.1 23.55 1.1 23.45 1.15 23.45 1.1 23.4 1.0 22.8 Q1.05 21.2 1.5 20.85 L1.7 21.05" fill="#996600" fill-rule="evenodd" stroke="none"/>
  </g>
</svg>
