<?xml version="1.0" encoding="UTF-8" standalone="no"?>
<svg xmlns:ffdec="https://www.free-decompiler.com/flash" xmlns:xlink="http://www.w3.org/1999/xlink" ffdec:objectType="shape" height="31.25px" width="32.3px" xmlns="http://www.w3.org/2000/svg">
  <g transform="matrix(1.0, 0.0, 0.0, 1.0, 0.0, 0.0)">
    <path d="M2.55 17.55 L2.6 17.85 2.05 18.0 2.55 17.4 2.55 17.55 M3.55 17.15 L3.2 17.5 3.45 17.15 3.55 17.15" fill="#b9b1ba" fill-rule="evenodd" stroke="none"/>
    <path d="M31.45 10.2 L31.55 8.5 Q31.55 5.05 28.1 3.2 L29.4 3.15 30.05 3.9 Q32.3 6.75 32.3 9.15 L31.8 12.5 Q31.8 15.55 29.5 19.4 L28.6 18.65 Q30.1 15.95 30.75 13.25 L31.4 10.45 31.55 10.5 31.55 10.4 31.45 10.2 M29.25 3.0 L27.3 2.65 27.0 2.7 Q23.85 1.35 19.6 1.25 L19.05 1.15 15.85 1.55 Q13.7 2.6 10.95 4.95 L6.8 8.1 5.55 9.85 Q1.05 16.8 1.05 22.2 1.05 25.4 1.85 26.75 2.45 27.8 3.55 28.5 L3.65 29.25 3.8 29.25 3.95 28.75 Q6.35 30.1 10.6 30.1 18.5 30.1 24.2 24.5 L24.8 25.0 25.55 23.85 26.05 24.15 Q19.85 31.25 10.65 31.25 3.05 31.25 0.8 27.0 0.1 25.65 0.0 23.95 L0.05 22.3 Q0.05 14.8 5.95 8.45 L5.95 8.15 Q5.95 7.8 10.05 4.7 14.3 1.5 15.65 1.15 L15.75 1.3 Q18.75 0.0 21.65 0.0 26.3 0.0 29.25 3.0 M6.8 10.65 Q10.35 6.3 18.15 3.4 L18.4 3.75 10.2 8.85 Q6.35 11.6 6.05 13.9 7.7 11.6 11.35 8.8 16.75 4.75 21.4 4.75 27.3 4.75 27.75 9.1 L27.55 9.15 27.8 9.25 27.8 9.8 27.05 13.15 26.8 13.15 27.0 13.4 25.85 16.9 25.8 16.9 25.85 16.95 Q24.3 20.8 22.1 23.25 L19.8 25.2 Q17.65 26.65 15.0 27.1 L14.9 27.0 14.45 27.0 14.45 27.15 12.8 27.25 12.0 27.25 11.45 27.1 11.4 27.0 11.25 27.1 9.8 26.75 9.4 26.8 Q6.5 25.95 5.05 23.45 3.8 21.35 3.8 19.0 3.8 17.4 4.15 15.9 L6.8 10.65 M20.3 5.85 Q14.7 5.85 9.55 11.4 4.95 16.35 4.95 19.75 4.95 21.7 6.3 23.4 8.35 26.1 12.75 26.1 20.1 26.1 24.15 18.1 25.45 15.55 26.25 12.45 L26.8 9.65 Q26.8 5.85 20.3 5.85 M25.7 23.65 L27.7 20.15 28.25 19.3 29.35 19.6 29.4 19.6 27.0 23.0 26.15 24.1 25.7 23.65" fill="#000000" fill-rule="evenodd" stroke="none"/>
    <path d="M31.45 10.2 L31.55 10.4 31.55 10.5 31.4 10.45 28.35 9.5 28.3 10.1 27.95 13.25 30.15 14.75 30.2 14.8 30.75 13.25 Q30.1 15.95 28.6 18.65 L29.5 19.4 29.65 19.5 Q29.95 19.6 29.4 19.6 L29.35 19.6 28.25 19.3 27.7 20.15 28.15 19.25 26.25 17.45 26.05 18.65 26.3 19.05 26.1 19.45 25.8 19.0 Q25.3 19.05 24.7 20.25 L23.8 21.85 25.7 23.65 26.15 24.1 26.3 24.25 26.05 24.15 25.55 23.85 23.65 22.0 23.55 22.1 22.1 23.25 Q24.3 20.8 25.85 16.95 L25.8 16.9 25.85 16.9 27.0 13.4 26.8 13.15 27.05 13.15 27.8 9.8 27.8 9.25 27.55 9.15 27.75 9.1 Q27.3 4.75 21.4 4.75 16.75 4.75 11.35 8.8 7.7 11.6 6.05 13.9 6.35 11.6 10.2 8.85 L18.4 3.75 18.15 3.4 Q10.35 6.3 6.8 10.65 7.55 9.1 10.85 6.2 15.25 2.35 19.05 2.35 22.35 2.35 24.8 3.95 25.7 2.8 27.0 2.7 L27.3 2.65 29.25 3.0 29.55 3.15 29.4 3.15 28.1 3.2 Q26.3 3.35 25.1 4.2 27.15 5.7 28.5 8.5 L28.4 9.15 29.8 9.35 Q31.0 9.55 31.45 10.2 M24.2 24.5 Q18.5 30.1 10.6 30.1 6.35 30.1 3.95 28.75 L3.8 29.25 3.65 29.25 3.55 28.5 Q2.45 27.8 1.85 26.75 1.05 25.4 1.05 22.2 1.05 16.8 5.55 9.85 L6.8 8.1 10.95 4.95 Q13.7 2.6 15.85 1.55 L19.05 1.15 19.6 1.25 19.05 1.25 Q15.45 1.25 9.0 7.1 1.8 13.6 1.8 19.4 L1.9 22.8 2.2 22.0 Q2.75 20.75 3.15 20.5 L3.3 20.75 2.2 24.7 2.25 24.9 Q2.75 26.2 3.8 27.15 L4.05 26.55 4.45 26.0 4.7 26.0 5.15 25.7 5.3 25.75 Q4.85 26.25 4.35 27.6 6.55 29.15 10.65 29.15 L11.15 29.15 Q10.7 28.8 10.7 27.95 10.7 27.4 11.4 27.25 L11.55 27.5 11.35 29.15 12.5 29.1 Q12.7 29.05 12.7 28.6 L12.7 28.55 14.45 28.75 14.85 28.8 Q14.45 28.3 14.4 27.6 L13.7 27.6 12.0 27.25 12.8 27.25 14.45 27.15 14.45 27.0 14.9 27.0 15.0 27.1 Q17.65 26.65 19.8 25.2 L19.65 25.5 19.65 25.6 18.6 26.4 Q17.3 27.3 15.25 27.55 15.6 28.15 15.55 28.85 18.4 28.95 19.2 27.75 L19.05 27.4 19.0 27.4 20.25 26.7 Q23.2 25.05 23.95 24.1 L24.2 24.5 M29.85 14.85 Q29.4 14.85 28.25 14.25 L27.8 14.0 27.7 14.65 Q26.75 15.9 26.35 17.05 L28.5 18.55 30.15 14.85 29.85 14.85" fill="#413c2c" fill-rule="evenodd" stroke="none"/>
    <path d="M28.1 3.2 Q31.55 5.05 31.55 8.5 L31.45 10.2 Q31.0 9.55 29.8 9.35 L28.4 9.15 28.5 8.5 Q27.15 5.7 25.1 4.2 26.3 3.35 28.1 3.2 M31.4 10.45 L30.75 13.25 30.2 14.8 30.15 14.75 27.95 13.25 28.3 10.1 28.35 9.5 31.4 10.45 M25.55 23.85 L24.8 25.0 24.2 24.5 23.95 24.1 Q23.2 25.05 20.25 26.7 L19.0 27.4 19.05 27.4 19.2 27.75 Q18.4 28.95 15.55 28.85 15.6 28.15 15.25 27.55 17.3 27.3 18.6 26.4 L19.65 25.6 19.65 25.5 19.8 25.2 22.1 23.25 23.55 22.1 23.65 22.0 25.55 23.85 M19.6 1.25 Q23.85 1.35 27.0 2.7 25.7 2.8 24.8 3.95 22.35 2.35 19.05 2.35 15.25 2.35 10.85 6.2 7.55 9.1 6.8 10.65 L4.15 15.9 Q3.8 17.4 3.8 19.0 3.8 21.35 5.05 23.45 6.5 25.95 9.4 26.8 L9.8 26.75 11.25 27.1 11.4 27.0 11.45 27.1 12.0 27.25 13.7 27.6 14.4 27.6 Q14.45 28.3 14.85 28.8 L14.45 28.75 12.7 28.55 12.7 28.6 Q12.7 29.05 12.5 29.1 L11.35 29.15 11.55 27.5 11.4 27.25 Q10.7 27.4 10.7 27.95 10.7 28.8 11.15 29.15 L10.65 29.15 Q6.55 29.15 4.35 27.6 4.85 26.25 5.3 25.75 L5.15 25.7 4.7 26.0 4.45 26.0 4.05 26.55 3.8 27.15 Q2.75 26.2 2.25 24.9 L2.2 24.7 3.3 20.75 3.15 20.5 Q2.75 20.75 2.2 22.0 L1.9 22.8 1.8 19.4 Q1.8 13.6 9.0 7.1 15.45 1.25 19.05 1.25 L19.6 1.25 M29.85 14.85 L30.15 14.85 28.5 18.55 26.35 17.05 Q26.75 15.9 27.7 14.65 L27.8 14.0 28.25 14.25 Q29.4 14.85 29.85 14.85 M25.7 23.65 L23.8 21.85 24.7 20.25 Q25.3 19.05 25.8 19.0 L26.1 19.45 26.3 19.05 26.05 18.65 26.25 17.45 28.15 19.25 27.7 20.15 25.7 23.65 M2.55 17.55 L2.55 17.4 2.05 18.0 2.6 17.85 2.55 17.55 M3.55 17.15 L3.45 17.15 3.2 17.5 3.55 17.15" fill="#847959" fill-rule="evenodd" stroke="none"/>
  </g>
</svg>
