<?xml version="1.0" encoding="UTF-8" standalone="no"?>
<svg xmlns:ffdec="https://www.free-decompiler.com/flash" xmlns:xlink="http://www.w3.org/1999/xlink" ffdec:objectType="shape" height="19.25px" width="18.95px" xmlns="http://www.w3.org/2000/svg">
  <g transform="matrix(1.0, 0.0, 0.0, 1.0, 0.0, 0.0)">
    <path d="M1.55 13.9 Q2.6 16.4 5.3 16.4 10.2 16.4 12.55 12.05 L12.95 11.15 13.7 12.15 Q13.25 12.2 13.25 12.8 13.25 14.0 14.35 14.7 14.95 14.65 15.1 14.35 L15.15 14.05 15.3 14.25 15.75 13.75 Q15.2 12.55 13.3 10.25 14.05 8.15 14.05 5.75 13.5 1.5 7.4 1.35 L9.15 1.1 Q12.6 1.1 15.4 5.1 17.6 8.25 17.6 9.8 17.25 17.85 8.3 17.85 2.45 17.85 1.4 14.0 L1.55 13.9 M14.35 9.2 L14.25 10.6 15.9 12.85 Q16.5 12.7 16.5 12.55 L16.0 10.3 15.3 8.85 Q14.55 8.85 14.35 9.2 M11.3 10.2 Q12.2 8.85 12.2 6.85 L11.0 4.15 Q9.95 4.95 9.95 5.25 9.95 6.65 11.1 8.45 L10.8 10.3 11.3 10.2 M1.95 11.4 Q2.25 9.1 3.05 6.85 4.6 2.45 7.05 2.45 12.65 2.45 12.65 5.9 12.05 15.15 5.25 15.15 3.8 15.15 2.8 13.65 1.95 12.4 1.95 11.4 M8.9 6.2 L9.35 5.8 Q9.2 5.45 8.85 5.2 L8.85 5.4 8.45 5.45 8.35 5.4 Q8.15 5.35 7.95 5.55 5.3 6.1 4.6 7.45 4.25 8.0 4.3 10.1 4.25 11.55 5.2 12.4 L5.7 11.8 5.6 11.3 7.65 11.45 Q9.1 11.45 10.5 10.4 9.75 7.65 8.9 6.2" fill="#32343a" fill-rule="evenodd" stroke="none"/>
    <path d="M13.7 12.15 L13.85 12.1 Q15.1 12.95 15.15 14.05 L15.1 14.35 Q14.95 14.65 14.35 14.7 13.25 14.0 13.25 12.8 13.25 12.2 13.7 12.15 M11.3 10.2 L10.8 10.3 11.1 8.45 Q9.95 6.65 9.95 5.25 9.95 4.95 11.0 4.15 L12.2 6.85 Q12.2 8.85 11.3 10.2 M14.35 9.2 Q14.55 8.85 15.3 8.85 L16.0 10.3 16.5 12.55 Q16.5 12.7 15.9 12.85 L14.25 10.6 14.35 9.2" fill="#828693" fill-rule="evenodd" stroke="none"/>
    <path d="M13.7 12.15 L12.95 11.15 12.55 12.05 Q10.2 16.4 5.3 16.4 2.6 16.4 1.55 13.9 L1.15 11.8 1.1 11.95 Q1.1 13.05 1.4 14.0 2.45 17.85 8.3 17.85 17.25 17.85 17.6 9.8 17.6 8.25 15.4 5.1 12.6 1.1 9.15 1.1 L7.4 1.35 Q13.5 1.5 14.05 5.75 14.05 8.15 13.3 10.25 15.2 12.55 15.75 13.75 L15.3 14.25 15.15 14.05 Q15.1 12.95 13.85 12.1 L13.7 12.15 M18.95 10.05 Q18.95 13.15 17.1 15.6 14.35 19.25 8.35 19.25 0.0 19.25 0.0 11.95 0.0 9.6 1.85 5.65 4.4 0.0 8.7 0.0 14.05 0.0 17.0 4.6 18.95 7.65 18.95 10.05 M8.9 6.2 Q9.75 7.65 10.5 10.4 9.1 11.45 7.65 11.45 L5.6 11.3 5.7 11.8 5.2 12.4 Q4.25 11.55 4.3 10.1 4.25 8.0 4.6 7.45 5.3 6.1 7.95 5.55 8.15 5.35 8.35 5.4 L8.45 5.45 8.85 5.4 8.85 5.2 Q9.2 5.45 9.35 5.8 L8.9 6.2 M1.95 11.4 Q1.95 12.4 2.8 13.65 3.8 15.15 5.25 15.15 12.05 15.15 12.65 5.9 12.65 2.45 7.05 2.45 4.6 2.45 3.05 6.85 2.25 9.1 1.95 11.4 M8.25 6.85 Q6.25 8.85 5.75 10.3 L9.15 10.2 9.3 9.5 8.25 6.85" fill="#000000" fill-rule="evenodd" stroke="none"/>
  </g>
</svg>
