<?xml version="1.0" encoding="UTF-8" standalone="no"?>
<svg xmlns:ffdec="https://www.free-decompiler.com/flash" xmlns:xlink="http://www.w3.org/1999/xlink" ffdec:objectType="shape" height="33.1px" width="37.65px" xmlns="http://www.w3.org/2000/svg">
  <g transform="matrix(1.0, 0.0, 0.0, 1.0, 0.0, 0.0)">
    <path d="M23.3 18.85 L23.3 19.15 24.0 19.9 23.3 19.25 23.3 18.85" fill="#9d998e" fill-rule="evenodd" stroke="none"/>
    <path d="M18.1 15.25 L19.3 13.55 19.4 13.45 19.45 13.4 19.5 13.35 Q22.2 13.55 21.9 14.4 L21.9 14.55 20.0 14.2 Q18.9 14.25 18.9 14.55 18.9 15.05 19.3 15.65 L18.8 16.5 18.8 16.6 18.0 16.4 17.8 17.0 Q17.8 17.45 18.6 18.9 18.6 19.1 18.0 19.2 16.9 17.75 16.9 17.15 L18.1 15.25 M22.65 18.15 L22.7 18.0 Q23.2 16.95 24.05 17.0 25.25 16.95 26.15 18.0 L24.95 17.85 24.85 17.85 24.8 17.85 24.6 17.85 24.55 17.85 Q23.6 17.9 23.35 18.5 L23.35 18.55 23.3 18.85 23.3 19.25 23.45 19.7 21.2 19.85 21.15 20.65 Q21.1 21.5 21.75 22.55 L21.3 22.85 Q20.5 22.7 20.35 21.75 L20.25 20.8 Q20.25 19.0 21.8 19.05 L22.65 18.15 M26.9 22.85 Q26.9 22.1 29.65 21.75 L29.35 20.75 29.5 20.45 29.9 20.45 30.45 21.65 30.6 21.65 30.7 21.6 31.5 21.55 31.7 21.5 32.0 21.95 31.85 22.05 30.7 22.45 31.0 23.8 31.0 24.25 30.7 24.5 29.9 22.65 29.7 22.65 27.9 23.05 27.05 23.15 Q26.85 23.6 26.9 22.85 M24.9 14.65 Q20.75 11.95 15.2 10.2 11.6 9.05 7.4 8.35 16.4 24.65 34.9 31.45 L36.3 31.45 Q35.15 25.7 32.0 21.3 29.2 17.45 24.9 14.65 M10.95 7.2 Q19.75 8.7 28.1 16.15 38.0 25.0 37.65 32.7 L37.35 33.1 Q24.65 29.55 16.3 21.95 11.75 17.8 7.5 11.1 L6.35 11.25 Q4.05 11.25 1.85 9.85 L0.0 8.2 Q0.75 7.4 3.8 7.45 L1.8 5.3 Q2.7 4.1 4.4 4.1 3.9 3.6 3.9 2.5 L6.35 2.6 6.35 0.2 6.8 0.0 Q9.65 0.0 11.15 6.3 L10.95 7.2 M5.2 3.4 L5.0 3.5 5.45 4.35 Q5.05 3.4 3.3 5.5 4.8 7.0 4.8 7.7 L4.45 8.05 Q3.5 8.15 2.0 8.95 3.35 10.3 6.8 10.0 L5.9 8.55 5.9 6.95 6.5 6.85 10.65 7.15 Q9.1 2.7 7.25 1.25 L7.1 3.5 5.2 3.4" fill="#000000" fill-rule="evenodd" stroke="none"/>
    <path d="M19.3 15.65 L19.65 16.1 19.65 16.25 22.45 18.45 22.65 18.15 21.8 19.05 Q20.25 19.0 20.25 20.8 L20.35 21.75 Q20.5 22.7 21.3 22.85 L21.75 22.55 Q21.1 21.5 21.15 20.65 L21.2 19.85 23.45 19.7 23.3 19.25 24.0 19.9 23.3 19.15 23.3 18.85 23.35 18.55 23.35 18.5 23.55 18.25 25.05 18.0 25.25 18.55 Q25.25 19.2 24.65 20.45 L24.5 20.35 25.25 21.1 25.3 21.15 25.15 20.3 25.25 19.5 25.65 19.5 26.9 22.55 26.7 22.65 26.9 22.85 Q26.85 23.6 27.05 23.15 L27.9 23.05 27.15 23.15 29.95 26.3 Q32.65 29.25 34.9 30.9 L35.4 30.5 35.4 28.9 Q34.45 25.6 31.85 22.05 L32.0 21.95 31.7 21.5 31.5 21.55 28.8 18.3 Q26.9 16.2 24.9 14.65 29.2 17.45 32.0 21.3 35.15 25.7 36.3 31.45 L34.9 31.45 Q16.4 24.65 7.4 8.35 11.6 9.05 15.2 10.2 L11.15 9.85 9.25 10.05 9.25 10.65 9.75 10.85 9.65 10.6 Q10.0 10.35 10.25 10.35 10.9 10.3 11.25 10.95 L11.25 10.75 11.35 10.45 11.75 10.45 Q12.05 10.45 12.35 12.0 L13.35 12.5 13.15 11.65 13.15 11.35 13.6 11.35 Q14.35 11.35 14.35 12.55 L14.35 13.0 13.95 12.8 15.75 13.8 14.8 13.2 14.65 12.9 14.65 12.55 15.1 12.55 Q15.6 12.55 16.1 13.95 L16.45 14.2 16.2 12.9 16.2 12.55 16.6 12.55 17.7 14.95 18.1 15.25 16.9 17.15 Q16.9 17.75 18.0 19.2 18.6 19.1 18.6 18.9 17.8 17.45 17.8 17.0 L18.0 16.4 18.8 16.6 18.8 16.5 19.3 15.65 M6.2 4.55 Q6.1 4.8 6.5 5.6 6.9 6.5 7.4 6.7 L7.9 6.25 6.65 4.4 6.2 4.55 M5.2 3.4 L7.1 3.5 7.25 1.25 Q9.1 2.7 10.65 7.15 L6.5 6.85 5.9 6.95 5.9 8.55 6.8 10.0 Q3.35 10.3 2.0 8.95 3.5 8.15 4.45 8.05 L4.8 7.7 Q4.8 7.0 3.3 5.5 5.05 3.4 5.45 4.35 L5.0 3.5 5.2 3.4 M15.6 15.9 Q16.3 15.9 16.0 15.6 15.05 13.0 12.7 13.0 L12.05 13.2 13.6 15.25 Q14.25 15.9 15.6 15.9 M8.45 3.7 L7.85 3.95 9.65 6.85 9.95 6.4 8.45 3.7" fill="#3c3933" fill-rule="evenodd" stroke="none"/>
    <path d="M19.3 15.65 Q18.9 15.05 18.9 14.55 18.9 14.25 20.0 14.2 L21.9 14.55 21.9 14.4 Q22.2 13.55 19.5 13.35 L19.45 13.4 19.4 13.45 19.3 13.55 18.1 15.25 17.7 14.95 16.6 12.55 16.2 12.55 16.2 12.9 16.45 14.2 16.1 13.95 Q15.6 12.55 15.1 12.55 L14.65 12.55 14.65 12.9 14.8 13.2 15.75 13.8 13.95 12.8 14.35 13.0 14.35 12.55 Q14.35 11.35 13.6 11.35 L13.15 11.35 13.15 11.65 13.35 12.5 12.35 12.0 Q12.05 10.45 11.75 10.45 L11.35 10.45 11.25 10.75 11.25 10.95 Q10.9 10.3 10.25 10.35 10.0 10.35 9.65 10.6 L9.75 10.85 9.25 10.65 9.25 10.05 11.15 9.85 15.2 10.2 Q20.75 11.95 24.9 14.65 26.9 16.2 28.8 18.3 L31.5 21.55 30.7 21.6 30.6 21.65 30.45 21.65 29.9 20.45 29.5 20.45 29.35 20.75 29.65 21.75 Q26.9 22.1 26.9 22.85 L26.7 22.65 26.9 22.55 25.65 19.5 25.25 19.5 25.15 20.3 25.3 21.15 25.25 21.1 24.5 20.35 24.65 20.45 Q25.25 19.2 25.25 18.55 L25.05 18.0 23.55 18.25 23.35 18.5 Q23.6 17.9 24.55 17.85 L24.6 17.85 24.8 17.85 24.85 17.85 24.95 17.85 26.15 18.0 Q25.25 16.95 24.05 17.0 23.2 16.95 22.7 18.0 L22.65 18.15 22.45 18.45 19.65 16.25 19.65 16.1 19.3 15.65 M27.9 23.05 L29.7 22.65 29.9 22.65 30.7 24.5 31.0 24.25 31.0 23.8 30.7 22.45 31.85 22.05 Q34.45 25.6 35.4 28.9 L35.4 30.5 34.9 30.9 Q32.65 29.25 29.95 26.3 L27.15 23.15 27.9 23.05 M6.2 4.55 L6.65 4.4 7.9 6.25 7.4 6.7 Q6.9 6.5 6.5 5.6 6.1 4.8 6.2 4.55 M8.45 3.7 L9.95 6.4 9.65 6.85 7.85 3.95 8.45 3.7 M15.6 15.9 Q14.25 15.9 13.6 15.25 L12.05 13.2 12.7 13.0 Q15.05 13.0 16.0 15.6 16.3 15.9 15.6 15.9" fill="#55524a" fill-rule="evenodd" stroke="none"/>
    <path d="M27.85 17.7 L29.75 19.45 29.85 19.45 Q30.55 19.45 30.2 20.2 L31.45 22.0 32.25 23.0 32.5 22.95 34.05 25.25 33.4 24.6 34.35 25.85 34.35 25.95 33.4 24.85 35.5 28.7 34.3 26.2 34.35 26.2 Q35.05 27.1 35.75 29.15 L36.2 29.95 35.9 30.05 35.7 29.85 35.8 30.4 36.55 31.3 36.35 31.45 35.5 31.1 35.35 31.15 Q34.25 31.15 33.75 30.65 L33.7 30.6 33.8 30.7 33.6 30.85 32.2 30.0 31.85 30.45 30.15 29.4 30.1 29.7 29.85 29.8 Q28.1 28.25 27.7 28.25 L27.4 28.45 Q26.65 28.45 24.9 27.25 L23.1 25.85 22.8 26.2 21.6 25.2 21.15 25.55 20.55 25.15 20.05 24.7 Q19.7 24.7 18.15 22.55 L18.0 22.6 Q16.65 22.6 14.6 18.65 13.35 18.0 10.8 13.7 L10.85 13.55 9.6 11.25 9.65 11.25 8.6 9.3 8.85 9.25 Q9.3 9.25 10.6 10.9 L9.7 10.3 11.6 13.4 11.55 13.5 11.3 13.3 13.1 16.15 13.8 17.0 13.05 15.35 13.1 15.35 14.6 17.1 14.85 17.15 15.25 17.2 13.35 15.5 Q13.35 15.15 13.6 15.15 14.25 15.15 16.0 17.35 L15.95 17.55 Q16.95 18.2 17.8 20.25 L17.55 20.45 17.4 20.4 Q17.8 21.1 18.25 21.1 20.65 23.2 21.3 23.35 20.0 22.55 19.05 21.1 L19.25 21.05 22.65 23.7 22.5 23.9 22.25 23.8 23.75 24.9 25.95 26.7 26.0 26.7 25.75 26.2 25.85 26.0 Q26.3 26.05 27.75 27.35 L28.0 27.1 Q28.75 27.1 30.6 28.9 L30.6 28.5 30.85 28.4 32.05 29.25 31.85 28.75 32.1 28.7 33.4 29.75 33.85 29.5 34.4 29.7 34.5 29.65 34.8 29.75 Q34.45 29.2 34.05 29.2 L33.65 29.4 32.85 28.1 32.85 27.6 33.1 27.5 33.95 28.35 34.15 28.0 35.3 29.45 35.25 29.2 32.05 23.45 32.1 23.25 29.35 19.9 29.4 19.65 27.75 17.7 27.85 17.7 M20.8 13.15 L20.6 13.3 14.55 10.6 14.55 10.65 14.25 10.95 Q11.6 10.95 9.85 8.7 L10.1 8.5 11.15 8.7 11.15 8.6 11.35 8.6 13.2 9.25 14.9 9.9 Q15.15 9.9 15.35 9.7 L16.75 10.75 16.75 10.8 18.1 11.45 18.15 11.5 18.2 11.5 Q19.95 12.0 23.9 14.3 L23.95 14.4 23.75 14.55 20.7 13.05 20.8 13.15 M24.05 24.0 L24.35 23.75 Q24.7 23.75 25.9 24.85 L27.55 26.85 27.55 26.95 24.8 24.95 25.05 25.25 Q23.6 24.5 19.7 20.9 L19.7 20.85 19.8 20.85 Q20.7 20.85 23.25 23.4 L23.3 23.35 24.05 24.0 M29.55 19.4 L29.6 19.5 29.65 19.5 29.55 19.4 M10.25 7.15 Q10.05 6.9 9.5 6.9 L9.55 6.45 8.95 5.5 9.35 6.45 9.3 6.75 8.85 6.9 Q8.5 6.9 8.3 6.35 8.2 6.55 7.85 6.55 L7.3 6.35 7.05 6.7 6.2 6.45 7.45 8.0 7.1 8.35 6.7 8.2 6.5 8.1 7.6 9.55 7.55 9.95 6.8 9.95 6.95 10.3 6.9 10.7 6.65 10.75 4.55 9.7 4.1 10.15 Q3.25 10.15 3.25 9.65 L3.35 8.7 4.25 8.7 4.1 8.5 4.1 8.0 4.5 7.85 6.05 8.7 Q4.4 7.05 4.4 6.65 L4.45 6.4 4.75 6.3 5.35 6.5 4.55 5.5 4.6 5.25 4.9 5.2 6.05 5.6 5.45 4.75 5.45 4.3 5.65 4.2 Q6.05 4.2 6.9 5.15 L6.95 5.1 6.2 3.7 6.5 3.45 8.4 5.65 Q7.25 3.1 7.25 2.55 L7.35 2.2 7.5 2.15 Q7.8 2.15 10.5 6.9 L10.25 7.15 M34.85 29.75 L35.45 30.15 35.15 29.5 34.85 29.75" fill="#000000" fill-rule="evenodd" stroke="none"/>
  </g>
</svg>
