<?xml version="1.0" encoding="UTF-8" standalone="no"?>
<svg xmlns:ffdec="https://www.free-decompiler.com/flash" xmlns:xlink="http://www.w3.org/1999/xlink" ffdec:objectType="shape" height="57.5px" width="57.5px" xmlns="http://www.w3.org/2000/svg">
  <g transform="matrix(1.0, 0.0, 0.0, 1.0, 0.0, 0.0)">
    <path d="M57.5 28.75 Q57.5 40.65 49.05 49.05 40.65 57.5 28.75 57.5 16.85 57.5 8.4 49.05 0.0 40.65 0.0 28.75 0.0 16.85 8.4 8.4 16.85 0.0 28.75 0.0 40.65 0.0 49.05 8.4 57.5 16.85 57.5 28.75" fill="#cccccc" fill-rule="evenodd" stroke="none"/>
    <path d="M49.5 28.0 L56.0 28.0 M43.65 42.65 L48.35 47.35 M42.65 13.4 L47.35 8.7 M2.0 28.0 L9.5 28.0 M14.15 41.35 L8.95 46.6 M15.35 14.35 L10.15 9.15 M28.5 1.5 L28.5 8.55 M28.5 48.5 L28.5 55.5" fill="none" stroke="#666666" stroke-linecap="round" stroke-linejoin="round" stroke-width="2.0"/>
  </g>
</svg>
