<?xml version="1.0" encoding="UTF-8" standalone="no"?>
<svg xmlns:ffdec="https://www.free-decompiler.com/flash" xmlns:xlink="http://www.w3.org/1999/xlink" ffdec:objectType="shape" height="26.75px" width="56.35px" xmlns="http://www.w3.org/2000/svg">
  <g transform="matrix(1.0, 0.0, 0.0, 1.0, 56.65, 1.8)">
    <path d="M-15.9 7.1 L-15.9 6.95 -15.65 6.95 -16.1 6.95 -15.9 7.1 M-15.55 7.7 L-16.25 8.5 -16.3 8.55 -17.05 9.65 -17.5 10.3 -18.45 11.7 -18.6 12.05 -18.9 13.1 -18.95 13.5 -19.3 15.65 -19.3 15.7 -19.35 17.25 -19.35 17.65 -19.35 17.7 -19.2 19.3 Q-18.85 21.6 -17.65 23.9 -16.85 23.3 -13.65 23.1 L-12.45 23.0 -12.25 23.0 -12.25 23.1 -10.95 23.0 -10.95 22.95 -10.5 22.95 -10.45 22.95 -6.85 22.1 -5.45 21.45 -4.35 20.85 Q-1.8 23.25 -2.5 16.3 -3.25 9.35 -7.1 3.3 -10.95 -2.7 -14.05 0.8 -17.15 4.25 -15.0 7.8 L-15.55 7.7 M-19.55 13.05 L-18.65 10.95 -18.3 10.25 -17.95 9.6 -18.0 7.25 Q-18.55 7.3 -19.65 0.55 -10.05 -5.6 -5.0 4.4 0.05 14.35 -0.3 16.9 -0.65 19.4 -2.55 21.3 L-3.3 22.05 -3.35 22.05 -3.8 22.4 -4.15 22.65 -4.6 23.0 -4.55 22.9 Q-6.1 23.75 -7.7 23.85 -16.25 24.35 -17.4 24.95 -17.9 24.95 -18.3 24.35 L-18.35 24.35 -18.35 24.3 Q-19.5 22.75 -20.4 17.4 L-20.55 16.7 -20.35 15.5 -19.55 13.05" fill="#510000" fill-rule="evenodd" stroke="none"/>
    <path d="M-17.05 9.65 L-16.3 8.55 -16.25 8.5 -15.55 7.7 -15.15 7.8 -15.0 7.8 -14.65 7.85 -15.0 7.8 Q-17.15 4.25 -14.05 0.8 -10.95 -2.7 -7.1 3.3 -3.25 9.35 -2.5 16.3 -1.8 23.25 -4.35 20.85 L-5.45 21.45 -6.85 22.1 -10.35 22.0 Q-15.55 21.95 -17.3 20.6 -18.15 19.9 -18.95 18.4 L-19.25 17.85 -19.35 17.7 -19.35 17.65 -19.25 17.65 -19.3 16.7 -19.25 15.65 -19.3 15.65 -18.95 13.5 -18.8 12.9 -18.9 13.1 -18.6 12.05 -18.45 11.7 -17.5 10.3 -17.45 10.3 -17.05 9.65 M-12.45 23.0 L-10.95 22.9 -10.95 22.95 -12.25 23.0 -12.45 23.0" fill="#cc0000" fill-rule="evenodd" stroke="none"/>
    <path d="M-55.85 8.7 L-41.15 9.35 -19.1 10.25 -18.3 10.25 -18.65 10.95 -19.55 13.05 -23.9 12.7 -56.65 10.2 -56.65 8.9 -55.85 8.7" fill="#ffcc99" fill-rule="evenodd" stroke="none"/>
    <path d="M-17.05 9.65 L-17.45 10.3 -17.5 10.3 -17.05 9.65 M-19.3 15.65 L-19.25 15.65 -19.3 16.7 -19.25 17.65 -19.35 17.65 -19.35 17.25 -19.3 15.7 -19.3 15.65 M-18.3 10.25 L-19.1 10.25 -41.15 9.35 -55.85 8.7 -55.9 8.15 -40.5 8.6 -17.95 9.6 -18.3 10.25 M-20.4 17.4 L-24.2 16.7 -51.15 12.9 -56.65 12.3 -56.65 11.2 -43.45 12.6 -24.1 14.9 -20.35 15.5 -20.55 16.7 -20.4 17.4" fill="#661f1f" fill-rule="evenodd" stroke="none"/>
    <path d="M-19.25 17.65 L-19.35 17.65 -19.25 17.65 M-15.0 7.8 L-14.65 7.85 -15.0 7.8 -15.15 7.8 -15.55 7.7 -15.0 7.8" fill="#ff0000" fill-rule="evenodd" stroke="none"/>
    <path d="M-18.9 13.1 L-18.8 12.9 -18.95 13.5 -18.9 13.1 M-56.65 10.2 L-23.9 12.7 -19.55 13.05 -20.35 15.5 -24.1 14.9 -43.45 12.6 -56.65 11.2 -56.65 10.2" fill="#db9c64" fill-rule="evenodd" stroke="none"/>
    <path d="M-19.35 17.7 L-19.25 17.85 -18.95 18.4 Q-18.15 19.9 -17.3 20.6 -15.55 21.95 -10.35 22.0 L-6.85 22.1 -10.45 22.95 -10.5 22.95 -10.95 22.95 -10.95 23.0 -12.25 23.1 -12.25 23.0 -10.95 22.95 -10.95 22.9 -12.45 23.0 -13.65 23.1 Q-16.85 23.3 -17.65 23.9 -18.85 21.6 -19.2 19.3 L-19.35 17.7" fill="#990000" fill-rule="evenodd" stroke="none"/>
    <path d="M-55.9 8.15 L-55.85 8.7 -56.65 8.65 -56.65 8.15 -55.9 8.15" fill="#333333" fill-rule="evenodd" stroke="none"/>
  </g>
</svg>
