<?xml version="1.0" encoding="UTF-8" standalone="no"?>
<svg xmlns:ffdec="https://www.free-decompiler.com/flash" xmlns:xlink="http://www.w3.org/1999/xlink" ffdec:objectType="shape" height="87.7px" width="38.1px" xmlns="http://www.w3.org/2000/svg">
  <g transform="matrix(1.0, 0.0, 0.0, 1.0, 28.75, 42.5)">
    <path d="M8.05 17.75 L8.1 17.95 8.75 21.45 8.75 21.65 8.2 21.6 7.45 21.7 4.75 20.5 4.55 21.4 4.15 23.1 4.75 18.15 4.75 19.45 7.6 20.65 7.15 18.2 6.8 18.15 4.8 17.2 4.85 17.25 4.85 17.1 4.85 16.3 5.25 16.3 6.8 17.05 6.25 16.8 8.05 17.75 M-25.05 27.85 L-25.15 27.4 -25.05 27.85 M-25.15 27.25 L-25.6 23.0 -25.55 22.95 -25.45 21.9 -25.5 22.55 -24.8 21.75 -24.45 20.1 -24.25 19.85 -24.55 20.2 -23.0 18.1 -22.45 22.3 -22.1 24.25 -24.45 26.25 -24.45 26.3 -24.4 26.3 -25.15 27.25 M3.85 -28.5 L3.65 -28.7 3.8 -28.65 3.85 -28.5 M-23.0 17.65 L-23.0 17.0 -22.85 16.65 -22.8 16.65 -23.0 17.65 M-12.0 19.15 L-12.45 19.35 -12.6 19.4 -19.95 22.65 -19.9 21.55 -14.5 19.2 -11.95 18.05 -11.7 18.0 -11.55 14.6 -13.75 14.9 Q-15.45 15.2 -16.9 15.95 L-17.4 16.2 Q-18.75 16.95 -19.9 18.1 L-20.0 18.2 -20.2 16.35 -20.15 16.4 -20.0 16.75 -20.0 16.85 -19.95 16.8 Q-18.4 15.45 -16.5 14.65 L-16.2 14.55 -13.95 13.9 -13.9 13.9 -11.55 13.55 -11.55 18.45 -11.35 20.5 -11.4 20.5 -11.7 19.05 -12.0 19.15 M-20.0 22.7 L-20.0 24.25 -20.05 24.45 -20.0 22.7 M-8.65 12.9 Q-8.5 13.05 -8.5 13.25 L-8.4 13.25 2.1 15.4 2.0 16.4 2.05 16.4 -8.5 14.3 -8.5 14.6 -8.65 12.9 M2.25 14.6 L2.25 14.25 2.35 13.95 2.25 14.6 M-9.1 20.75 L-9.2 20.7 -9.2 20.0 -9.1 20.75 M-9.45 13.85 L-9.5 13.25 -9.35 12.9 -9.4 13.0 -9.45 13.85 M-8.45 19.0 L-8.4 18.0 Q-4.75 17.7 -1.2 18.6 L1.4 19.3 1.6 19.4 1.45 20.2 1.15 20.25 -1.45 19.55 -8.45 19.0 M-25.25 12.85 L-25.25 12.8 -25.25 12.85 M-22.9 19.65 L-24.35 21.55 -24.6 21.75 -24.4 25.7 -22.7 23.25 -22.75 23.05 -22.9 19.65 M3.9 20.3 L3.8 22.0 3.95 22.55 3.75 21.85 3.9 20.3" fill="#000000" fill-rule="evenodd" stroke="none"/>
    <path d="M-7.0 -33.2 L-6.7 -33.0 Q-4.0 -31.2 0.35 -32.0 L0.65 -32.2 0.75 -32.4 Q1.8 -32.75 2.65 -33.45 L2.9 -33.7 Q4.7 -30.65 4.6 -27.15 L3.1 -29.05 2.65 -29.3 2.55 -29.1 Q2.45 -28.95 2.6 -28.75 L2.7 -28.5 -0.05 -27.1 -0.25 -26.95 -0.6 -26.85 -0.6 -26.8 -0.8 -26.85 -1.45 -26.8 Q-1.6 -26.75 -1.1 -26.65 L-1.5 -26.7 -3.4 -27.1 -6.5 -29.0 Q-8.25 -30.25 -8.25 -31.25 -8.25 -32.3 -7.0 -33.2 M3.85 -28.5 L3.8 -28.65 3.65 -28.7 3.85 -28.5 M-0.95 -25.25 L-1.3 -22.3 -1.65 -15.85 -1.45 -11.45 -0.25 -3.6 Q0.15 -1.35 0.9 0.8 2.4 5.3 4.2 9.65 L5.3 12.55 5.65 13.55 Q4.8 12.75 3.7 12.25 -0.9 10.2 -5.9 10.1 L-5.95 10.1 -13.15 10.7 -15.35 11.3 -15.4 11.3 -21.25 12.55 -22.4 12.3 Q-22.4 10.85 -19.2 8.95 L-16.3 7.45 Q-12.95 6.95 -12.55 6.45 L-13.05 6.2 -17.05 6.7 Q-19.8 6.7 -19.8 3.4 -19.8 -1.05 -16.75 -11.4 -14.95 -17.0 -14.05 -18.8 -10.1 -26.2 -9.45 -26.2 -8.45 -26.2 -7.2 -25.6 -5.9 -25.05 -3.75 -25.05 L-0.95 -25.25" fill="#cc0000" fill-rule="evenodd" stroke="none"/>
    <path d="M-16.2 14.55 L-15.55 14.3 -15.25 13.2 -12.55 12.25 -8.7 11.65 -0.75 12.2 2.15 12.95 Q3.5 13.4 4.9 14.2 L5.7 15.05 6.05 15.25 6.25 15.25 6.65 16.55 6.8 17.05 5.25 16.3 4.85 16.3 4.75 16.35 4.4 15.05 4.25 15.0 4.2 15.0 3.9 20.3 3.75 21.85 3.95 22.55 3.95 22.6 4.1 23.2 4.15 23.1 4.55 21.4 7.8 22.1 7.85 22.1 7.95 22.9 7.95 22.95 8.3 27.25 Q8.6 32.15 6.25 36.5 5.2 38.45 3.75 39.95 L4.5 39.1 Q0.1 41.2 -3.8 41.2 -8.55 41.2 -12.65 37.7 -15.05 35.6 -16.25 32.95 L-15.85 31.05 Q-15.45 27.95 -16.0 24.9 L-16.05 24.75 -16.0 24.6 Q-15.95 24.4 -16.05 24.25 L-16.4 24.0 -16.75 24.1 -17.1 24.3 -16.7 21.9 Q-13.15 19.85 -11.55 19.7 L-11.7 19.2 -12.0 19.15 -11.7 19.05 -11.4 20.5 -11.35 20.5 -11.25 20.5 -10.9 20.4 -10.75 20.05 -10.9 12.25 -11.0 12.25 Q-11.2 12.25 -11.35 12.4 L-11.5 12.75 -11.5 13.55 -11.55 13.55 -13.9 13.9 -13.95 13.9 -16.2 14.55 M-24.45 26.25 L-24.4 26.3 -24.45 26.3 -24.45 26.25 M-12.0 24.4 L-12.2 23.7 -12.75 23.75 -13.0 24.6 -13.0 23.75 -1.95 23.25 -2.0 23.5 -2.25 29.55 -2.45 30.55 Q-5.7 33.8 -7.85 37.7 L-7.8 37.7 -7.85 37.8 Q-8.85 35.55 -10.75 32.9 -12.15 31.05 -12.15 28.75 L-11.9 26.0 -11.9 24.8 -11.85 24.8 Q-11.3 24.8 -11.3 24.5 L-11.5 24.3 -12.0 24.4 M-14.0 23.7 L-14.25 32.25 -14.2 32.45 -14.1 32.65 -12.5 34.15 -12.45 34.2 Q-10.0 36.45 -8.25 39.15 L-8.0 39.35 -7.65 39.3 -7.4 39.05 -6.95 38.2 Q-3.7 32.45 -1.65 30.2 L-1.2 29.7 -1.0 23.55 -1.1 23.15 -1.25 22.9 -1.25 22.7 -1.35 22.6 -1.65 22.4 Q-1.8 22.25 -2.0 22.25 L-13.75 22.75 Q-14.0 22.75 -14.1 22.9 L-14.25 23.3 -14.1 23.65 -14.0 23.7 M-10.25 24.3 L-10.55 24.55 -10.45 24.7 -9.1 24.7 -9.05 24.5 -9.1 24.3 -10.25 24.3 M2.1 15.4 L-8.4 13.25 -8.5 13.25 Q-8.5 13.05 -8.65 12.9 -8.8 12.75 -9.0 12.75 -9.2 12.75 -9.35 12.9 L-9.5 13.25 -9.45 13.85 -9.2 20.0 -9.2 20.7 -9.1 20.75 -8.65 19.4 -1.3 20.1 Q-0.65 20.15 1.3 21.2 L1.45 21.2 1.4 21.75 1.65 21.75 3.1 16.15 3.1 16.1 3.1 15.95 3.25 14.3 3.15 13.95 2.8 13.75 Q2.55 13.75 2.45 13.9 L2.35 13.95 2.25 14.25 2.25 14.6 2.15 15.4 2.1 15.4 M-3.2 23.7 L-3.75 23.7 -3.65 24.1 -2.4 24.2 -2.35 24.1 Q-2.45 23.7 -3.2 23.7 M-6.45 23.85 L-6.35 24.25 -4.8 24.05 -6.05 23.8 -6.45 23.85 M-7.6 24.05 L-8.45 24.4 -7.8 24.55 -7.05 24.3 -7.1 24.2 Q-7.25 24.05 -7.6 24.05 M-17.65 33.95 L-18.1 31.3 -17.15 26.35 -17.15 26.3 -17.05 25.5 -16.95 25.4 Q-16.5 28.1 -16.85 30.9 -17.1 32.45 -17.65 33.95 M-18.0 26.95 L-18.0 27.0 -18.0 26.95 M-22.7 29.45 L-22.6 29.35 -22.7 29.45 M1.5 20.2 L1.6 20.2 1.6 20.3 1.5 20.2" fill="#2c57b1" fill-rule="evenodd" stroke="none"/>
    <path d="M-16.9 15.95 Q-15.45 15.2 -13.75 14.9 L-11.55 14.6 -11.7 18.0 -11.95 18.05 -14.5 19.2 Q-15.4 19.0 -16.4 18.2 L-16.85 17.1 -16.9 15.95 M-8.5 14.6 L-8.5 14.3 2.05 16.4 1.65 19.5 1.6 19.4 1.4 19.3 -1.2 18.6 Q-4.75 17.7 -8.4 18.0 L-8.5 18.0 -8.5 14.6 M4.8 17.2 L6.8 18.15 7.15 18.2 7.6 20.65 4.75 19.45 4.75 18.15 4.75 17.2 4.8 17.2" fill="#660000" fill-rule="evenodd" stroke="none"/>
    <path d="M-7.0 -34.3 L-5.4 -36.35 -5.4 -36.45 -5.3 -36.55 -4.15 -38.8 -4.15 -38.85 -2.9 -41.45 1.65 -40.8 -1.7 -32.95 -1.75 -32.8 Q-4.55 -32.75 -7.1 -34.15 L-7.0 -34.3" fill="#db9c64" fill-rule="evenodd" stroke="none"/>
    <path d="M-5.75 -37.9 L-5.55 -37.65 Q-5.55 -37.15 -6.3 -36.2 -7.05 -35.2 -7.55 -35.15 L-7.1 -35.75 -6.6 -36.4 -6.55 -36.5 -11.25 -36.5 -11.35 -36.5 -13.1 -31.75 -12.95 -31.65 -11.8 -30.75 -10.55 -29.9 -10.55 -29.85 -8.75 -28.8 Q-7.6 -28.15 -5.8 -27.65 L-4.75 -27.4 -3.4 -27.1 -1.5 -26.7 -1.1 -26.65 Q-1.6 -26.75 -1.45 -26.8 L-0.8 -26.85 -0.6 -26.8 -0.6 -26.85 -0.25 -26.95 -0.05 -27.1 2.7 -28.5 2.6 -28.75 Q2.45 -28.95 2.55 -29.1 L2.65 -29.3 3.1 -29.05 4.6 -27.15 Q4.7 -30.65 2.9 -33.7 L2.65 -33.45 Q1.8 -32.75 0.75 -32.4 L0.65 -32.2 0.35 -32.0 Q-4.0 -31.2 -6.7 -33.0 L-7.0 -33.2 -7.35 -33.4 -7.45 -33.45 -7.5 -33.5 -10.25 -35.35 -10.4 -35.5 -10.1 -35.7 -9.75 -35.65 -8.7 -35.05 -7.95 -34.65 -7.85 -34.8 -7.85 -34.85 -7.0 -34.3 -7.1 -34.15 Q-4.55 -32.75 -1.75 -32.8 L-1.7 -32.95 -1.6 -33.1 -0.45 -33.35 -0.55 -33.15 -0.3 -33.25 Q0.6 -33.35 1.3 -33.75 L2.0 -34.2 2.65 -34.85 2.9 -35.0 3.2 -34.95 3.45 -34.75 Q6.25 -30.5 5.45 -25.45 L5.3 -25.2 5.05 -25.05 4.75 -25.1 4.55 -25.3 3.2 -27.65 0.4 -26.2 0.2 -26.15 -0.3 -22.2 -0.65 -15.85 -0.45 -11.55 Q0.0 -7.65 0.75 -3.8 1.15 -1.65 1.85 0.5 3.3 4.9 5.1 9.25 L5.15 9.25 6.7 13.45 6.85 13.9 7.0 14.35 5.7 13.55 5.65 13.55 5.3 12.55 4.2 9.65 Q2.4 5.3 0.9 0.8 0.15 -1.35 -0.25 -3.6 L-1.45 -11.45 -1.65 -15.85 -1.3 -22.3 -0.95 -25.25 -0.9 -25.65 -1.9 -25.7 -2.15 -25.75 -5.85 -26.55 Q-7.65 -27.05 -9.25 -27.9 L-9.2 -27.9 -11.15 -28.35 -11.2 -28.35 -14.6 -20.55 -17.95 -12.6 -17.9 -12.6 -19.85 -7.1 -22.3 2.25 -23.9 10.15 -23.9 10.25 -23.85 10.15 -23.5 10.0 -21.4 8.75 -23.1 10.2 -25.25 12.8 -25.3 12.85 -27.15 15.35 -27.7 16.45 -27.55 16.6 -25.5 19.15 -25.45 17.75 -25.45 17.3 -25.25 17.6 -25.3 19.95 -25.35 20.95 -25.45 21.9 -25.55 22.95 -25.6 23.0 -25.6 22.95 -25.6 21.35 -25.55 20.5 -25.9 20.35 -26.25 19.9 -28.35 17.25 -28.45 16.95 -28.7 16.7 -28.7 16.3 -28.05 14.9 -28.0 14.85 Q-26.95 12.95 -25.45 11.55 L-25.2 11.4 -23.3 2.05 Q-22.25 -2.75 -20.8 -7.4 L-18.85 -12.95 -18.85 -13.0 -15.5 -20.95 -12.05 -28.95 -11.9 -29.15 -11.85 -29.4 -11.8 -29.5 -12.4 -29.95 -12.35 -29.95 -13.6 -30.9 -13.75 -31.15 -13.85 -31.15 -14.15 -31.4 -14.15 -31.8 -12.2 -37.15 -11.95 -37.45 -11.55 -37.45 -11.5 -37.4 -11.25 -37.5 -6.25 -37.5 -6.0 -37.4 -5.75 -37.9 M-7.1 -34.15 L-7.15 -34.15 -7.1 -34.15 M-0.9 -25.7 L-0.9 -25.85 -1.25 -25.8 -1.3 -25.8 -0.9 -25.7" fill="#3e0000" fill-rule="evenodd" stroke="none"/>
    <path d="M6.85 13.9 L7.75 16.8 7.95 17.45 7.95 17.65 8.05 17.75 6.25 16.8 6.8 17.05 6.65 16.55 6.25 15.25 6.05 15.25 5.7 15.05 4.9 14.2 3.65 13.35 3.3 13.15 Q-1.1 11.2 -5.95 11.1 L-12.9 11.65 -14.85 12.2 -16.35 12.7 Q-18.25 13.4 -20.05 14.4 -22.2 15.55 -24.2 16.95 L-24.45 17.0 -24.55 19.8 -24.55 20.2 -24.25 19.85 -24.45 20.1 -24.8 21.75 -25.5 22.55 -25.45 21.9 -25.35 20.95 -25.3 19.95 -25.25 17.6 -25.45 17.3 -25.45 17.75 -25.4 16.45 -24.4 15.85 Q-22.5 14.55 -20.5 13.5 L-19.05 12.8 -15.8 11.45 -15.65 11.4 -15.5 11.35 -15.35 11.3 -13.15 10.7 -5.95 10.1 -5.9 10.1 Q-0.9 10.2 3.7 12.25 4.8 12.75 5.65 13.55 L5.7 13.55 7.0 14.35 6.85 13.9 M8.75 21.65 L8.75 21.7 8.85 21.95 8.95 22.55 8.95 22.8 9.3 27.2 Q9.6 32.35 7.15 36.95 4.6 41.7 -0.25 43.8 -4.65 45.65 -9.55 45.05 -14.05 44.55 -17.5 41.55 -20.85 38.6 -22.8 34.6 L-22.85 34.25 -22.95 34.1 -24.55 30.05 -24.55 30.0 -24.6 29.85 -25.05 27.85 -25.15 27.4 -25.15 27.25 -24.4 26.3 -24.25 26.35 -24.25 26.45 -24.3 26.4 -24.25 26.75 -24.25 26.85 -24.2 26.85 -24.1 27.5 -23.7 29.05 -23.15 28.8 -23.25 28.6 -17.1 24.3 -16.75 24.1 -16.4 24.0 -16.05 24.25 Q-15.95 24.4 -16.0 24.6 L-16.05 24.75 -16.0 24.9 Q-15.45 27.95 -15.85 31.05 L-16.25 32.95 -16.3 33.1 -16.5 33.7 -16.75 34.5 -17.85 37.05 -17.9 37.25 -18.0 37.4 -18.25 37.7 -18.65 37.75 -18.95 37.5 -18.95 37.15 -21.0 35.8 Q-19.35 38.6 -16.85 40.8 -13.65 43.6 -9.45 44.05 L-9.4 44.05 Q-4.8 44.65 -0.65 42.9 1.7 41.9 3.45 40.2 L3.75 39.95 Q5.2 38.45 6.25 36.5 8.6 32.15 8.3 27.25 L7.95 22.95 7.95 22.9 7.85 22.1 7.85 22.05 7.9 21.85 7.8 21.75 7.5 21.7 7.45 21.7 8.2 21.6 8.75 21.65 M-23.0 18.1 L-23.0 17.65 -22.8 16.65 Q-22.7 16.5 -22.5 16.5 L-22.45 16.5 -22.25 19.4 -22.05 22.45 -21.9 24.1 -22.1 24.25 -22.45 22.3 -23.0 18.1 M-19.95 22.65 L-20.0 22.7 -20.05 24.45 -20.1 24.6 -20.15 24.6 -20.5 24.75 -20.6 24.75 -21.0 16.75 -20.85 16.4 -20.5 16.25 -20.2 16.35 -20.0 18.2 -20.0 21.6 -19.9 21.55 -19.95 22.65 M-11.55 13.55 L-11.5 13.55 -11.5 12.75 -11.35 12.4 Q-11.2 12.25 -11.0 12.25 L-10.9 12.25 -10.75 20.05 -10.9 20.4 -11.25 20.5 -11.35 20.5 -11.55 18.45 -11.55 13.55 M-7.85 37.8 L-7.8 37.7 -7.85 37.7 Q-5.7 33.8 -2.45 30.55 L-2.25 29.55 -2.0 23.5 -1.95 23.25 -13.0 23.75 -13.0 24.6 -13.25 32.05 -11.8 33.45 Q-9.55 35.5 -7.9 37.85 L-7.85 37.8 M-14.0 23.7 L-14.1 23.65 -14.25 23.3 -14.1 22.9 Q-14.0 22.75 -13.75 22.75 L-2.0 22.25 Q-1.8 22.25 -1.65 22.4 L-1.35 22.6 -1.25 22.7 -1.25 22.9 -1.1 23.15 -1.0 23.55 -1.2 29.7 -1.65 30.2 Q-3.7 32.45 -6.95 38.2 L-7.4 39.05 -7.65 39.3 -8.0 39.35 -8.25 39.15 Q-10.0 36.45 -12.45 34.2 L-12.5 34.15 -14.1 32.65 -14.2 32.45 -14.25 32.25 -14.0 23.7 M-8.65 12.9 L-8.5 14.6 -8.5 18.0 -8.4 18.0 -8.45 19.0 -8.5 19.0 -8.65 19.4 -9.1 20.75 -9.2 20.0 -9.45 13.85 -9.4 13.0 -9.35 12.9 Q-9.2 12.75 -9.0 12.75 -8.8 12.75 -8.65 12.9 M2.05 16.4 L2.0 16.4 2.1 15.4 2.15 15.4 2.25 14.6 2.35 13.95 2.45 13.9 Q2.55 13.75 2.8 13.75 L3.15 13.95 3.25 14.3 3.1 15.95 3.1 16.1 3.1 16.15 1.65 21.75 1.4 21.75 1.45 21.2 1.6 20.3 1.6 20.2 1.6 20.15 1.5 20.2 1.45 20.2 1.6 19.4 1.65 19.5 2.05 16.4 M-20.7 27.7 L-21.2 28.15 -22.1 28.7 -22.05 28.8 -22.0 28.85 -22.6 29.35 -22.7 29.45 -23.25 29.9 -23.45 30.05 -22.0 33.75 -22.0 34.0 -21.9 34.15 -21.75 34.45 -21.6 34.35 -21.2 34.45 -18.55 36.2 -17.85 34.5 -17.7 34.15 -17.65 33.95 Q-17.1 32.45 -16.85 30.9 -16.5 28.1 -16.95 25.4 L-17.05 25.5 -17.05 25.45 -17.8 25.95 -17.8 26.0 -20.6 27.75 -20.1 27.2 -20.7 27.7 M4.75 18.15 L4.15 23.1 4.1 23.2 3.95 22.6 3.95 22.55 3.8 22.0 3.9 20.3 4.2 15.0 4.25 15.0 4.4 15.05 4.75 16.35 4.85 16.3 4.85 17.1 4.85 17.25 4.8 17.2 4.75 17.2 4.75 18.15" fill="#162c58" fill-rule="evenodd" stroke="none"/>
    <path d="M-12.0 24.4 L-11.5 24.3 -11.3 24.5 Q-11.3 24.8 -11.85 24.8 L-11.9 24.8 -12.4 24.65 -12.0 24.4 M-10.25 24.3 L-9.1 24.3 -9.05 24.5 -9.1 24.7 -10.45 24.7 -10.55 24.55 -10.25 24.3 M-7.6 24.05 Q-7.25 24.05 -7.1 24.2 L-7.05 24.3 -7.8 24.55 -8.45 24.4 -7.6 24.05 M-6.45 23.85 L-6.05 23.8 -4.8 24.05 -6.35 24.25 -6.45 23.85 M-3.2 23.7 Q-2.45 23.7 -2.35 24.1 L-2.4 24.2 -3.65 24.1 -3.75 23.7 -3.2 23.7 M-22.6 29.35 L-22.4 29.55 Q-22.4 30.05 -23.1 30.3 L-23.3 30.0 -23.25 29.9 -22.7 29.45 -22.6 29.35 M-17.15 26.35 L-18.0 26.95 -18.4 27.05 -18.75 27.0 -18.8 26.8 -17.9 26.35 -17.35 26.1 -17.15 26.3 -17.15 26.35 M-20.9 28.75 L-21.8 29.45 -22.2 29.3 Q-21.75 28.55 -21.1 28.55 L-20.9 28.75 M-19.15 27.5 L-20.25 28.45 -20.6 28.1 -19.35 27.3 -19.15 27.5" fill="#cc9900" fill-rule="evenodd" stroke="none"/>
    <path d="M-7.1 -35.75 L-7.85 -34.85 -7.85 -34.8 -7.95 -34.65 -8.7 -35.05 -9.75 -35.65 -10.1 -35.7 -10.4 -35.5 -10.25 -35.35 -7.5 -33.5 -7.45 -33.45 -7.35 -33.4 -7.0 -33.2 Q-8.25 -32.3 -8.25 -31.25 -8.25 -30.25 -6.5 -29.0 L-3.4 -27.1 -4.75 -27.4 -5.8 -27.65 Q-7.6 -28.15 -8.75 -28.8 L-10.55 -29.85 -10.55 -29.9 -11.8 -30.75 -12.95 -31.65 -13.1 -31.75 -11.35 -36.5 -11.25 -36.5 -6.55 -36.5 -6.6 -36.4 -7.1 -35.75 M-23.9 10.15 L-22.3 2.25 -19.85 -7.1 -17.9 -12.6 -17.95 -12.6 -14.6 -20.55 -11.2 -28.35 -11.15 -28.35 -9.2 -27.9 -9.25 -27.9 Q-7.65 -27.05 -5.85 -26.55 L-2.15 -25.75 -1.9 -25.7 -0.9 -25.65 -0.95 -25.25 -3.75 -25.05 Q-5.9 -25.05 -7.2 -25.6 -8.45 -26.2 -9.45 -26.2 -10.1 -26.2 -14.05 -18.8 -14.95 -17.0 -16.75 -11.4 -19.8 -1.05 -19.8 3.4 -19.8 6.7 -17.05 6.7 L-13.05 6.2 -12.55 6.45 Q-12.95 6.95 -16.3 7.45 L-19.2 8.95 Q-22.4 10.85 -22.4 12.3 L-21.25 12.55 -15.4 11.3 -15.35 11.3 -15.5 11.35 -15.65 11.4 -15.8 11.45 -19.05 12.8 -20.5 13.5 Q-22.5 14.55 -24.4 15.85 L-25.4 16.45 -25.45 17.75 -25.5 19.15 -27.55 16.6 -27.7 16.45 -27.15 15.35 -25.3 12.85 -25.25 12.85 -25.25 12.8 -23.1 10.2 -21.4 8.75 -23.5 10.0 -23.85 10.15 -23.9 10.15" fill="#aa0000" fill-rule="evenodd" stroke="none"/>
    <path d="M4.9 14.2 Q3.5 13.4 2.15 12.95 L-0.75 12.2 -8.7 11.65 -12.55 12.25 -15.25 13.2 -15.55 14.3 -16.2 14.55 -16.5 14.65 Q-18.4 15.45 -19.95 16.8 L-20.0 16.75 -20.15 16.4 -20.2 16.35 -20.5 16.25 -20.85 16.4 -21.0 16.75 -20.6 24.75 -20.5 24.75 -20.15 24.6 -20.1 24.6 -20.05 24.45 -20.0 24.25 -20.0 22.7 -19.95 22.65 -12.6 19.4 -12.45 19.35 -12.0 19.15 -11.7 19.2 -11.55 19.7 Q-13.15 19.85 -16.7 21.9 L-17.1 24.3 -23.25 28.6 -23.15 28.8 -23.7 29.05 -24.1 27.5 -24.2 26.85 -24.25 26.85 -24.25 26.75 -24.3 26.4 -24.25 26.45 -24.25 26.35 -24.4 26.3 -24.45 26.25 -22.1 24.25 -21.9 24.1 -22.05 22.45 -22.25 19.4 -22.45 16.5 -22.5 16.5 Q-22.7 16.5 -22.8 16.65 L-22.85 16.65 -23.0 17.0 -23.0 17.65 -23.0 18.1 -24.55 20.2 -24.55 19.8 -24.45 17.0 -24.2 16.95 Q-22.2 15.55 -20.05 14.4 -18.25 13.4 -16.35 12.7 L-14.85 12.2 -12.9 11.65 -5.95 11.1 Q-1.1 11.2 3.3 13.15 L3.65 13.35 4.9 14.2 M-13.0 24.6 L-12.75 23.75 -12.2 23.7 -12.0 24.4 -12.4 24.65 -11.9 24.8 -11.9 26.0 -12.15 28.75 Q-12.15 31.05 -10.75 32.9 -8.85 35.55 -7.85 37.8 L-7.9 37.85 Q-9.55 35.5 -11.8 33.45 L-13.25 32.05 -13.0 24.6 M1.45 21.2 L1.3 21.2 Q-0.65 20.15 -1.3 20.1 L-8.65 19.4 -8.5 19.0 -8.45 19.0 -1.45 19.55 1.15 20.25 1.45 20.2 1.5 20.2 1.6 20.3 1.45 21.2 M-20.7 27.7 L-20.6 27.75 -17.8 26.0 -17.8 25.95 -17.05 25.45 -17.05 25.5 -17.15 26.3 -17.35 26.1 -17.9 26.35 -18.8 26.8 -18.75 27.0 -18.4 27.05 -18.0 26.95 -17.15 26.35 -18.1 31.3 -17.65 33.95 -17.7 34.15 -17.85 34.5 -18.55 36.2 -21.2 34.45 -21.6 34.35 -21.75 34.45 -21.9 34.15 -22.0 34.0 -22.0 33.75 -23.45 30.05 -23.25 29.9 -23.3 30.0 -23.1 30.3 Q-22.4 30.05 -22.4 29.55 L-22.6 29.35 -22.0 28.85 -22.05 28.8 -22.1 28.7 -21.2 28.15 -20.7 27.7 M-18.0 26.95 L-18.0 27.0 -18.0 26.95 M-20.9 28.75 L-21.1 28.55 Q-21.75 28.55 -22.2 29.3 L-21.8 29.45 -20.9 28.75 M-19.15 27.5 L-19.35 27.3 -20.6 28.1 -20.25 28.45 -19.15 27.5 M3.75 39.95 L3.45 40.2 Q1.7 41.9 -0.65 42.9 -4.8 44.65 -9.4 44.05 L-9.45 44.05 Q-13.65 43.6 -16.85 40.8 -19.35 38.6 -21.0 35.8 L-18.95 37.15 -18.95 37.5 -18.65 37.75 -18.25 37.7 -18.0 37.4 -17.9 37.25 -17.85 37.05 -16.75 34.5 -16.5 33.7 -16.3 33.1 -16.25 32.95 Q-15.05 35.6 -12.65 37.7 -8.55 41.2 -3.8 41.2 0.1 41.2 4.5 39.1 L3.75 39.95 M4.55 21.4 L4.75 20.5 7.45 21.7 7.5 21.7 7.8 21.75 7.9 21.85 7.85 22.05 7.85 22.1 7.8 22.1 4.55 21.4" fill="#23458b" fill-rule="evenodd" stroke="none"/>
    <path d="M-14.5 19.2 L-19.9 21.55 -20.0 21.6 -20.0 18.2 -19.9 18.1 Q-18.75 16.95 -17.4 16.2 L-16.9 15.95 -16.85 17.1 -16.4 18.2 Q-15.4 19.0 -14.5 19.2 M-22.9 19.65 L-22.75 23.05 -22.7 23.25 -24.4 25.7 -24.6 21.75 -24.35 21.55 -22.9 19.65" fill="#530000" fill-rule="evenodd" stroke="none"/>
    <path d="M-5.75 -37.9 L-5.05 -39.25 -3.65 -42.2 -3.4 -42.45 -3.1 -42.5 2.35 -41.75 2.65 -41.55 2.75 -41.15 2.75 -41.1 2.7 -40.8 -0.55 -33.15 -0.45 -33.35 -1.6 -33.1 -1.7 -32.95 1.65 -40.8 -2.9 -41.45 -4.15 -38.85 -4.15 -38.8 -5.3 -36.55 -5.4 -36.45 -5.4 -36.35 -7.0 -34.3 -7.85 -34.85 -7.1 -35.75 -7.55 -35.15 Q-7.05 -35.2 -6.3 -36.2 -5.55 -37.15 -5.55 -37.65 L-5.75 -37.9" fill="#663300" fill-rule="evenodd" stroke="none"/>
  </g>
</svg>
