<?xml version="1.0" encoding="UTF-8" standalone="no"?>
<svg xmlns:ffdec="https://www.free-decompiler.com/flash" xmlns:xlink="http://www.w3.org/1999/xlink" ffdec:objectType="shape" height="50.15px" width="55.5px" xmlns="http://www.w3.org/2000/svg">
  <g transform="matrix(1.0, 0.0, 0.0, 1.0, 53.6, -0.3)">
    <path d="M-36.25 26.6 L-36.15 26.75 -36.3 26.65 -36.25 26.6 M-37.75 25.45 L-38.1 25.2 -38.85 24.65 -37.75 25.45 M-20.95 8.15 L-21.2 8.35 -21.4 7.55 -20.95 8.15 M-29.7 37.0 L-29.75 37.0 -29.7 37.0" fill="#333333" fill-rule="evenodd" stroke="none"/>
    <path d="M-38.95 24.55 L-39.2 24.5 -39.3 24.4 -39.2 24.4 -39.15 24.4 -38.9 24.2 -38.95 24.55 M-2.5 14.45 L-3.85 12.45 -2.75 14.05 -2.5 14.45 M-36.35 28.6 L-36.2 28.8 -36.2 28.95 -36.1 29.05 -36.15 29.25 -36.35 28.6" fill="#ffffff" fill-rule="evenodd" stroke="none"/>
    <path d="M-36.05 24.85 L-36.5 25.4 -36.25 24.65 -36.05 24.85 M-20.45 8.35 Q-20.3 8.6 -20.45 8.6 L-20.95 8.15 -20.7 7.95 -20.45 8.35" fill="#cccccc" fill-rule="evenodd" stroke="none"/>
    <path d="M-37.05 26.0 L-37.15 26.1 -37.7 25.5 -37.75 25.45 -38.85 24.65 -38.95 24.55 -38.9 24.2 Q-35.2 20.95 -31.3 14.35 -29.55 11.45 -27.0 8.7 -22.25 3.6 -21.65 3.6 -20.65 3.6 -17.9 4.9 L-15.15 6.3 Q-12.35 8.35 -12.35 10.55 L-12.35 10.6 -13.1 11.05 -15.85 13.25 -18.5 10.55 -18.7 10.45 -18.85 10.25 -20.45 8.35 -20.7 7.95 -20.95 8.15 -21.4 7.55 -21.2 8.35 -20.4 11.3 -21.85 12.3 Q-25.35 14.95 -28.7 17.85 -32.6 21.05 -36.05 24.85 L-36.25 24.65 -36.5 25.4 -37.05 26.0 M-34.2 17.65 L-34.5 18.05 -35.2 19.2 -36.0 20.25 -34.2 17.65 M-37.4 27.5 L-37.6 27.4 -37.45 27.4 -37.4 27.5" fill="#ffcc99" fill-rule="evenodd" stroke="none"/>
    <path d="M-7.15 8.3 L-5.95 7.9 -6.05 7.75 -5.85 7.7 -5.5 7.85 Q-5.05 7.85 -1.85 13.3 L1.9 19.3 1.9 19.35 1.7 19.35 1.75 19.45 1.5 19.45 1.45 19.55 1.45 19.65 1.05 19.45 Q0.65 19.45 -0.4 17.95 L-2.5 14.45 -2.75 14.05 -3.2 13.2 -5.6 8.65 -5.8 8.25 -11.4 11.1 -11.75 11.4 -14.55 13.75 -14.95 14.2 -15.6 14.95 -17.05 17.0 -17.2 17.7 -17.35 17.7 -17.4 17.85 -17.3 18.0 -17.5 18.75 Q-17.5 19.25 -17.85 20.55 L-10.15 23.8 -7.25 25.85 -7.25 26.0 -7.1 26.15 -7.15 26.2 -6.95 26.35 -7.15 26.35 -7.15 26.5 Q-8.2 25.65 -9.35 24.9 -12.0 23.35 -13.3 22.95 L-17.8 21.65 -18.3 21.4 -19.25 21.2 -19.3 20.75 Q-19.3 18.35 -17.45 15.95 L-16.5 14.05 -15.85 13.25 -13.1 11.05 -12.35 10.6 -11.7 10.25 Q-10.2 9.4 -8.25 8.7 L-7.15 8.3 M-6.75 26.6 L-6.9 26.7 -7.05 26.55 -6.75 26.6 M-18.35 19.05 L-18.4 19.2 -18.35 19.2 -18.35 19.05 M-18.9 20.7 L-19.0 20.9 -18.75 21.0 -18.9 20.7" fill="#510000" fill-rule="evenodd" stroke="none"/>
    <path d="M-6.95 26.35 L-6.9 26.35 -6.95 26.35" fill="#ff0000" fill-rule="evenodd" stroke="none"/>
    <path d="M0.15 21.6 L-0.1 22.1 Q-0.55 23.0 -2.35 24.6 -4.2 26.2 -5.6 26.6 L-5.65 26.75 -6.75 26.6 -7.05 26.55 -7.15 26.55 -7.15 26.5 -7.15 26.35 -6.95 26.35 -7.15 26.2 -7.1 26.15 -7.25 26.0 -7.25 25.85 -10.15 23.8 -17.85 20.55 Q-17.5 19.25 -17.5 18.75 L-17.3 18.0 -17.4 17.85 -17.35 17.7 -17.2 17.7 -17.05 17.0 -15.6 14.95 -14.95 14.2 -14.55 13.75 -11.75 11.4 -11.5 11.35 Q-8.4 11.35 -4.9 14.3 -3.9 15.05 -1.85 18.75 L-0.1 22.1 0.2 21.55 0.15 21.6 M-6.95 26.35 L-6.9 26.35 -6.95 26.35" fill="#cc0000" fill-rule="evenodd" stroke="none"/>
    <path d="M1.75 19.45 L1.8 19.45 1.25 20.05 0.15 21.6 0.2 21.55 -0.1 22.1 -1.85 18.75 Q-3.9 15.05 -4.9 14.3 -8.4 11.35 -11.5 11.35 L-11.75 11.4 -11.4 11.1 -5.8 8.25 -5.6 8.65 -3.2 13.2 -2.75 14.05 -3.85 12.45 -2.5 14.45 -0.4 17.95 Q0.65 19.45 1.05 19.45 L1.45 19.65 1.45 19.55 1.5 19.45 1.75 19.45" fill="#990000" fill-rule="evenodd" stroke="none"/>
    <path d="M-8.25 8.7 Q-10.2 9.4 -11.7 10.25 L-12.35 10.6 -12.35 10.55 Q-12.35 8.35 -15.15 6.3 L-17.9 4.9 Q-20.65 3.6 -21.65 3.6 -22.25 3.6 -27.0 8.7 -29.55 11.45 -31.3 14.35 -35.2 20.95 -38.9 24.2 L-36.0 20.25 -35.2 19.2 -34.5 18.05 -34.2 17.65 -33.95 17.25 -33.7 16.85 -31.0 12.95 -28.75 9.85 Q-26.05 6.1 -23.6 2.05 L-23.55 2.05 -23.2 1.4 -23.1 1.45 Q-19.2 2.6 -15.55 4.7 L-15.5 4.7 -11.35 6.7 -11.3 6.7 Q-9.65 7.45 -8.25 8.7" fill="#db9c64" fill-rule="evenodd" stroke="none"/>
    <path d="M-16.5 14.05 L-18.95 11.5 -19.05 11.55 -21.25 13.1 -28.1 18.6 Q-32.45 22.25 -36.25 26.6 L-36.3 26.65 -37.05 26.0 -36.5 25.4 -36.05 24.85 Q-32.6 21.05 -28.7 17.85 -25.35 14.95 -21.85 12.3 L-20.4 11.3 -21.2 8.35 -20.95 8.15 -20.45 8.6 Q-20.3 8.6 -20.45 8.35 L-18.85 10.25 -18.7 10.45 -18.5 10.55 -15.85 13.25 -16.5 14.05 M-39.15 24.4 L-39.8 23.95 -39.7 23.6 -34.75 16.7 -29.55 9.3 -24.45 1.55 -23.85 0.5 -23.55 0.3 -23.15 0.35 -23.05 0.45 -22.8 0.5 Q-18.8 1.65 -15.05 3.8 L-10.9 5.8 Q-8.85 6.7 -7.15 8.3 L-8.25 8.7 Q-9.65 7.45 -11.3 6.7 L-11.35 6.7 -15.5 4.7 -15.55 4.7 Q-19.2 2.6 -23.1 1.45 L-23.2 1.4 -23.55 2.05 -23.6 2.05 Q-26.05 6.1 -28.75 9.85 L-31.0 12.95 -33.7 16.85 -33.95 17.25 -34.2 17.65 -36.0 20.25 -38.9 24.2 -39.15 24.4" fill="#661f1f" fill-rule="evenodd" stroke="none"/>
    <path d="M-39.9 25.6 L-39.75 24.9 -39.6 24.65 -39.1 24.45 -38.9 24.5 -37.75 25.0 -37.7 25.05 -37.45 25.05 Q-36.7 25.2 -35.95 25.5 L-35.9 25.5 -34.1 26.05 -34.15 26.05 -32.35 26.6 -32.1 26.45 -32.4 26.4 -30.35 26.6 -26.3 26.95 Q-26.1 26.95 -25.95 27.15 L-25.9 27.25 -25.7 27.4 -25.65 27.8 -26.7 31.7 -26.55 31.85 -26.9 32.9 -26.9 33.0 -27.0 32.85 -27.05 32.95 -27.5 34.4 -27.8 34.85 -29.15 38.6 -28.8 38.85 -29.2 38.6 -30.15 40.55 -31.4 43.0 -31.1 43.1 -31.3 43.05 -31.7 43.95 -31.85 43.85 -32.95 45.75 -33.0 45.85 -33.0 45.95 Q-32.55 48.6 -34.7 49.8 L-35.0 49.85 -35.25 50.0 -36.95 50.45 -37.2 50.45 -41.6 49.45 -41.65 49.45 Q-44.0 48.7 -46.75 47.55 L-47.35 47.3 Q-47.15 47.4 -47.4 47.4 L-47.7 47.25 -47.75 47.15 -48.05 47.1 -48.55 46.8 -48.65 46.7 -48.7 46.6 -48.95 46.55 -49.0 46.55 -49.1 46.5 -49.2 46.25 Q-49.8 44.3 -49.7 42.25 L-48.7 42.35 -48.7 42.55 -48.6 44.4 -48.35 45.6 -48.3 45.85 -48.05 45.95 -47.75 46.1 -47.55 46.25 -47.35 46.4 -47.3 46.4 Q-45.85 46.55 -44.95 45.5 L-44.75 45.25 Q-44.35 44.55 -44.5 43.8 L-44.55 43.5 -44.55 43.2 -44.65 43.05 -44.85 42.55 -45.2 41.8 Q-45.05 41.0 -45.05 40.1 L-45.1 39.85 -43.85 37.25 -42.45 33.95 -41.25 30.3 -41.05 29.65 -40.85 29.05 -40.15 26.7 -39.9 25.6 M-44.6 30.45 L-44.65 30.55 -44.65 30.45 -44.6 30.45 M-45.75 30.95 L-46.0 30.95 -46.2 31.95 -50.15 31.85 -50.0 32.15 -49.95 32.2 -49.55 33.7 -49.4 34.85 -49.4 35.15 -49.4 35.4 -50.45 35.6 -51.05 35.75 -51.7 35.85 -50.8 35.55 -50.45 35.6 -50.4 35.6 -50.4 35.5 Q-50.35 33.95 -50.9 32.55 L-51.35 31.5 -51.35 31.15 -51.2 30.9 -50.85 30.8 -45.75 30.95 M-52.85 40.6 L-52.8 40.6 -52.85 40.6 M-25.85 32.8 L-25.6 33.7 Q-25.95 33.4 -25.95 32.9 L-25.85 32.8 M-25.65 34.7 Q-25.7 35.1 -25.9 35.5 L-26.1 35.75 -26.4 35.9 -25.65 34.75 -25.65 34.7 M-27.45 36.4 L-27.65 36.45 -27.5 36.2 -27.45 36.4 M-27.0 39.65 L-26.9 40.55 -26.95 40.3 -26.95 40.25 -27.0 39.65 M-30.4 44.4 L-31.3 44.1 -31.0 44.2 -30.7 44.1 -30.4 44.4 M-27.9 32.35 L-27.7 31.7 -27.7 31.65 -27.65 31.55 -26.7 27.95 -30.4 27.6 Q-33.6 27.45 -36.25 26.45 L-37.2 26.15 Q-38.0 25.4 -38.05 27.9 L-38.05 28.55 -38.05 29.0 -38.2 29.75 -38.4 30.5 -38.45 30.55 -38.55 30.95 -38.7 31.35 -38.8 31.8 -38.85 31.85 -39.25 33.3 -39.4 33.8 -39.65 34.55 -39.3 33.3 -38.6 30.6 -39.55 33.65 -39.9 34.8 -40.5 36.5 -40.55 36.75 -40.7 37.15 -41.15 38.25 -41.2 38.35 -41.3 38.65 -42.8 41.55 -43.35 42.5 -43.7 43.05 -43.65 43.1 -43.35 43.1 Q-39.55 44.35 -35.5 45.0 L-33.85 45.15 -33.75 45.2 -33.35 45.05 -32.95 44.55 Q-32.95 44.1 -32.85 44.5 L-31.35 41.55 -30.95 40.55 -30.4 39.25 -29.85 37.9 -29.3 36.6 -29.25 36.55 -29.1 36.15 -29.0 35.85 -28.95 35.75 -29.0 35.75 -28.6 34.5 -28.2 33.2 -27.9 32.35 M-42.5 38.9 L-42.1 37.95 -40.75 34.8 -39.65 32.25 Q-38.95 30.45 -38.65 28.6 L-38.2 25.9 -38.85 25.6 -39.2 26.95 -40.3 30.6 -41.5 34.3 -42.95 37.65 -44.3 40.5 -44.45 40.65 -44.45 40.8 -44.5 41.0 -44.45 41.1 -44.1 41.8 -43.65 41.05 -42.5 38.9 M-31.05 43.15 L-31.0 43.15 -29.3 43.3 -28.45 42.85 -28.15 42.1 -28.25 42.6 Q-28.65 43.6 -30.4 43.6 L-31.05 43.15 M-34.1 47.7 Q-33.85 47.0 -34.0 46.15 L-35.6 46.0 -35.65 46.0 -35.85 46.0 -36.35 45.9 -37.3 45.75 -40.0 45.15 -40.85 44.9 -40.95 44.9 -41.0 44.9 Q-43.05 45.0 -43.75 45.6 L-43.9 45.8 Q-44.35 46.4 -45.15 46.75 L-45.55 46.9 -45.95 47.05 -46.05 47.05 -46.1 47.05 -45.75 47.15 -45.25 47.3 -45.0 47.4 -41.35 48.5 -37.1 49.45 -36.9 49.4 -36.85 49.4 -35.55 49.05 -35.3 49.0 -35.2 48.95 Q-34.4 48.45 -34.1 47.7 M-28.6 39.0 L-28.7 38.9 -28.7 38.85 -28.6 39.0 M-27.95 40.1 L-28.05 39.7 -27.95 39.9 -27.95 40.1 M-48.65 41.25 L-48.6 41.25 -48.6 41.3 -48.65 41.25 M-47.75 42.25 L-47.7 42.2 -47.7 42.25 -47.75 42.25" fill="#000000" fill-rule="evenodd" stroke="none"/>
    <path d="M-34.15 26.05 L-35.6 25.05 -35.55 25.05 Q-36.95 24.3 -38.6 24.15 L-38.65 24.15 -40.1 24.25 Q-41.6 24.55 -42.65 25.4 -43.7 26.2 -44.1 28.0 L-44.6 30.45 -44.65 30.45 -44.65 30.55 -44.85 31.55 -44.85 31.6 -44.95 32.1 -45.0 32.2 Q-45.5 33.8 -46.75 35.0 -47.45 35.7 -48.3 36.1 L-49.25 36.45 -50.05 36.55 -50.15 36.55 -50.45 36.5 -50.6 36.55 -50.7 36.6 -51.05 36.7 Q-52.35 37.1 -52.55 38.5 L-52.45 39.3 -52.05 39.9 -52.05 39.95 -51.45 40.5 -50.75 40.9 Q-50.05 41.25 -49.15 41.2 L-48.85 41.3 -48.65 41.25 -48.6 41.3 -48.6 41.25 Q-47.25 41.35 -45.9 40.65 L-45.85 40.65 -45.75 40.6 -45.35 40.4 -45.25 40.3 -45.2 40.05 -45.1 39.85 -45.05 40.1 Q-45.05 41.0 -45.2 41.8 L-45.35 41.5 -45.45 41.55 -45.5 41.6 -45.85 41.75 -46.1 41.85 -46.15 41.85 -47.7 42.25 -47.7 42.2 -47.75 42.25 -48.2 42.25 -48.7 42.25 -48.7 42.35 -49.7 42.25 -49.7 42.2 -51.0 41.9 Q-52.0 41.5 -52.8 40.6 L-52.85 40.6 Q-53.75 39.6 -53.55 38.35 -53.3 36.6 -51.9 35.9 L-51.7 35.85 -51.05 35.75 -50.45 35.6 -49.4 35.4 -49.2 35.35 -48.65 35.15 -47.45 34.3 -46.8 33.55 -46.4 32.9 -46.0 31.95 -46.2 31.95 -46.0 30.95 -45.75 30.95 -44.9 28.0 -44.8 27.85 Q-44.3 26.4 -43.35 25.2 -42.2 23.65 -40.3 23.25 L-40.2 23.25 -38.6 23.15 -38.55 23.15 Q-35.3 23.4 -33.05 25.7 L-33.0 25.75 -32.8 25.95 -32.7 26.3 -32.7 26.35 -32.4 26.4 -32.1 26.45 -32.35 26.6 -34.15 26.05 M-41.35 29.55 Q-40.45 27.6 -40.4 25.7 L-40.25 25.55 -39.9 25.6 -40.15 26.7 -40.85 29.05 -41.05 29.65 -41.35 29.55 M-31.7 43.95 L-31.3 43.05 -31.1 43.1 -31.05 43.15 -30.4 43.6 Q-28.65 43.6 -28.25 42.6 L-28.15 42.1 -28.1 41.95 Q-27.85 41.05 -27.95 40.1 L-27.95 39.9 -28.05 39.7 -28.15 39.35 -28.15 39.3 -28.6 39.0 -28.7 38.85 -28.7 38.9 -28.8 38.85 -29.15 38.6 -27.8 34.85 -27.5 34.4 -27.85 35.45 -26.7 34.95 -26.65 34.55 -26.6 33.85 -26.8 33.25 -26.8 33.2 -26.9 33.0 -26.9 32.9 -26.55 31.85 -26.45 31.9 -26.15 32.35 -25.85 32.8 -25.95 32.9 Q-25.95 33.4 -25.6 33.7 L-25.65 34.7 -25.65 34.75 -26.4 35.9 -27.45 36.4 -27.5 36.2 -27.65 36.45 -28.25 36.75 -28.75 37.7 -27.45 38.55 -27.25 38.8 -27.15 39.05 -27.0 39.65 -26.95 40.25 -26.95 40.3 -26.9 40.55 -27.15 42.25 -27.15 42.3 -27.55 43.35 -27.75 43.55 Q-29.0 44.55 -30.35 44.4 L-30.4 44.4 -30.7 44.1 -31.0 44.2 -31.3 44.1 -31.35 44.1 -31.7 43.95" fill="#661f1f" fill-rule="evenodd" stroke="none"/>
    <path d="M-51.45 40.5 L-51.1 40.75 -51.2 39.75 Q-51.25 38.0 -50.25 38.0 L-48.8 37.7 -47.1 37.95 Q-45.95 38.05 -45.3 37.5 -43.8 36.0 -43.8 34.95 L-43.8 32.35 -43.05 30.65 Q-42.35 29.4 -41.7 29.4 L-41.35 29.55 -41.05 29.65 -41.25 30.3 -42.45 33.95 -43.85 37.25 -45.1 39.85 -45.2 40.05 -45.25 40.3 -45.35 40.4 -45.75 40.6 -45.85 40.65 -45.9 40.65 Q-47.25 41.35 -48.6 41.25 L-48.65 41.25 -48.85 41.3 -49.15 41.2 Q-50.05 41.25 -50.75 40.9 L-51.45 40.5 M-31.1 43.1 L-31.4 43.0 -30.15 40.55 -29.8 41.0 Q-29.05 42.0 -29.05 42.35 L-29.3 43.3 -31.0 43.15 -31.05 43.15 -31.1 43.1 M-27.05 32.95 L-27.0 32.85 -26.9 33.0 -26.8 33.2 -27.05 32.95" fill="#ffcc99" fill-rule="evenodd" stroke="none"/>
    <path d="M-34.15 26.05 L-34.1 26.05 -35.9 25.5 -35.95 25.5 Q-36.7 25.2 -37.45 25.05 L-37.7 25.05 -37.75 25.0 -38.9 24.5 -39.1 24.45 -39.6 24.65 -39.75 24.9 -39.9 25.6 -40.25 25.55 -40.4 25.7 Q-40.45 27.6 -41.35 29.55 L-41.7 29.4 Q-42.35 29.4 -43.05 30.65 L-43.8 32.35 -43.8 34.95 Q-43.8 36.0 -45.3 37.5 -45.95 38.05 -47.1 37.95 L-48.8 37.7 -50.25 38.0 Q-51.25 38.0 -51.2 39.75 L-51.1 40.75 -51.45 40.5 -52.05 39.95 -52.05 39.9 -52.45 39.3 -52.55 38.5 Q-52.35 37.1 -51.05 36.7 L-50.7 36.6 -50.6 36.55 -50.45 36.5 -50.15 36.55 -50.05 36.55 -49.25 36.45 -48.3 36.1 Q-47.45 35.7 -46.75 35.0 -45.5 33.8 -45.0 32.2 L-44.95 32.1 -44.85 31.6 -44.85 31.55 -44.65 30.55 -44.6 30.45 -44.1 28.0 Q-43.7 26.2 -42.65 25.4 -41.6 24.55 -40.1 24.25 L-38.65 24.15 -38.6 24.15 Q-36.95 24.3 -35.55 25.05 L-35.6 25.05 -34.15 26.05 M-30.15 40.55 L-29.2 38.6 -28.8 38.85 -28.7 38.9 -28.6 39.0 -28.15 39.3 -28.15 39.35 -28.05 39.7 -27.95 40.1 Q-27.85 41.05 -28.1 41.95 L-28.15 42.1 -28.45 42.85 -29.3 43.3 -29.05 42.35 Q-29.05 42.0 -29.8 41.0 L-30.15 40.55 M-27.5 34.4 L-27.05 32.95 -26.8 33.2 -26.8 33.25 -26.6 33.85 -26.65 34.55 -26.7 34.95 -27.85 35.45 -27.5 34.4" fill="#db9c64" fill-rule="evenodd" stroke="none"/>
    <path d="M-45.2 41.8 L-44.85 42.55 -45.05 42.15 -45.15 42.1 -46.15 41.85 -46.1 41.85 -45.85 41.75 -45.5 41.6 -45.45 41.55 -45.35 41.5 -45.2 41.8 M-44.5 43.8 Q-44.35 44.55 -44.75 45.25 L-44.95 45.5 Q-46.4 44.45 -48.6 44.4 L-48.7 42.55 -44.5 43.8 M-47.75 46.1 L-48.05 45.95 -48.3 45.85 -48.35 45.6 -47.85 45.7 -47.75 46.1 M-46.2 31.95 L-46.0 31.95 -46.4 32.9 -46.8 33.55 -47.15 33.55 -49.55 33.7 -49.95 32.2 -50.0 32.15 -50.15 31.85 -46.2 31.95 M-48.65 35.15 L-49.2 35.35 -49.4 35.4 -49.4 35.15 -48.65 35.15 M-33.35 45.05 L-33.75 45.2 -33.85 45.15 -35.5 45.0 Q-39.55 44.35 -43.35 43.1 L-43.65 43.1 -43.7 43.05 -43.35 42.5 -39.7 43.5 -35.6 44.25 Q-33.9 44.55 -33.35 45.05 M-43.65 41.05 L-44.1 41.8 -44.45 41.1 -44.5 41.0 -44.45 40.8 -44.45 40.65 -44.3 40.5 -42.95 37.65 -41.5 34.3 -40.3 30.6 -39.2 26.95 -38.85 25.6 -38.2 25.9 -38.65 28.6 Q-38.95 30.45 -39.65 32.25 L-40.75 34.8 -42.1 37.95 -42.5 38.9 -42.25 37.6 -41.7 35.95 -41.2 33.9 -41.4 34.0 -41.4 34.1 -42.5 37.3 -43.9 40.55 -43.8 41.1 -43.7 41.1 -43.65 41.05 M-39.25 28.2 L-39.3 28.2 Q-39.3 29.0 -39.7 29.55 L-40.25 30.8 -40.9 32.9 Q-40.25 32.35 -39.65 30.5 L-39.2 28.5 -39.25 28.2 M-40.0 45.15 L-37.3 45.75 -36.35 45.9 -35.85 46.0 -35.65 46.0 -35.6 46.0 -34.0 46.15 Q-33.85 47.0 -34.1 47.7 -36.95 47.4 -40.95 46.35 L-43.75 45.6 Q-43.05 45.0 -41.0 44.9 L-40.95 44.9 -40.6 45.0 -40.0 45.15 M-36.85 49.4 L-36.9 49.4 -37.1 49.45 -41.35 48.5 -45.0 47.4 -45.25 47.3 -45.75 47.15 -46.1 47.05 -46.05 47.05 -45.95 47.05 -45.55 46.9 -45.15 46.75 -38.5 48.9 -38.25 48.95 -38.2 48.95 -36.85 49.1 -36.85 49.4" fill="#cccccc" fill-rule="evenodd" stroke="none"/>
    <path d="M-28.6 29.3 Q-28.6 28.55 -29.8 28.55 -31.1 28.55 -31.1 29.4 -31.1 30.25 -29.7 30.25 -28.6 30.25 -28.6 29.3 M-29.7 30.5 Q-31.45 30.5 -31.45 29.25 -30.75 28.15 -30.3 28.15 -28.3 28.15 -28.3 29.1 L-28.4 29.85 Q-28.7 30.5 -29.7 30.5 M-27.65 31.55 L-27.7 31.65 -27.7 31.7 -27.9 32.35 -30.7 31.75 Q-34.75 30.75 -38.1 29.4 L-38.05 29.0 -38.05 28.55 -36.65 28.95 -36.9 28.8 -37.45 28.1 Q-37.45 26.7 -36.05 26.7 -34.55 26.7 -34.55 28.05 L-34.95 29.0 -34.4 28.95 -34.4 29.15 -35.55 29.25 -27.65 31.55 M-28.2 33.2 L-28.6 34.5 -32.55 33.55 Q-33.6 33.55 -35.35 32.75 L-36.05 32.6 Q-37.1 32.6 -38.85 31.85 L-38.8 31.8 -38.7 31.35 -38.55 30.95 -38.45 30.55 -32.8 32.15 -28.2 33.2 M-29.0 35.75 L-28.95 35.75 -29.0 35.85 -29.25 36.55 -30.45 36.35 -29.3 36.6 -29.85 37.9 -35.4 36.4 -39.75 34.9 -39.9 34.8 -39.55 33.65 -39.4 33.25 -39.3 33.3 -39.65 34.55 -39.4 33.8 -39.25 33.3 -29.0 35.75 M-30.4 39.25 L-30.95 40.55 -31.35 41.55 Q-34.7 41.0 -41.3 38.65 L-41.2 38.35 -41.15 38.25 -40.7 37.15 -34.95 38.6 -40.65 36.95 -40.55 36.75 -40.5 36.5 -30.4 39.25 M-35.95 28.8 Q-34.8 28.8 -34.8 28.05 -34.8 27.0 -36.05 27.0 -37.1 27.0 -37.1 28.0 -37.1 28.8 -35.95 28.8 M-37.5 41.0 Q-39.2 41.85 -39.2 40.65 L-38.8 40.1 Q-37.4 40.1 -37.3 40.85 L-36.9 40.7 Q-36.5 40.7 -35.9 41.05 L-36.0 41.35 -36.15 41.45 Q-35.4 40.75 -35.0 40.75 L-34.6 41.35 Q-34.6 42.15 -35.25 42.1 -35.8 42.1 -36.25 41.65 L-36.95 41.85 -37.7 41.3 -37.5 41.0 -37.35 40.85 -37.5 41.0 M-35.1 41.25 L-35.75 41.5 -35.5 42.0 -35.05 41.5 -35.1 41.25 M-36.8 42.8 L-36.45 42.55 -35.85 42.65 Q-35.3 42.85 -35.25 43.35 L-33.75 43.3 -33.65 43.5 -34.2 44.15 -34.5 43.8 -34.8 44.05 -37.1 43.3 -37.4 43.2 -37.25 43.1 -36.95 42.9 -36.8 42.8 M-38.85 42.75 L-40.6 42.65 -40.9 42.9 -42.2 42.45 -41.85 41.75 Q-41.85 41.6 -42.2 41.25 L-41.7 41.15 -41.25 41.2 -41.3 41.6 -39.8 42.1 Q-38.75 42.4 -38.85 42.75" fill="#ffbfbf" fill-rule="evenodd" stroke="none"/>
    <path d="M-36.95 42.9 Q-37.5 42.35 -37.75 42.3 -38.3 42.6 -38.15 42.75 L-37.7 42.85 -37.55 43.0 Q-37.9 43.3 -38.1 43.3 -38.55 43.3 -38.55 42.9 -38.4 42.05 -37.75 42.05 -36.85 42.05 -36.8 42.8 L-36.95 42.9 M-37.1 43.3 L-37.4 43.45 -37.45 43.3 -37.25 43.1 -37.4 43.2 -37.1 43.3" fill="#999999" fill-rule="evenodd" stroke="none"/>
    <path d="M-44.85 42.55 L-44.65 43.05 -44.55 43.2 -44.55 43.5 -44.5 43.8 -48.7 42.55 -48.7 42.35 -48.7 42.25 -48.2 42.25 -47.75 42.25 -47.7 42.25 -46.15 41.85 -45.15 42.1 -45.05 42.15 -44.85 42.55 M-44.95 45.5 Q-45.85 46.55 -47.3 46.4 L-47.35 46.4 -47.55 46.25 -47.75 46.1 -47.85 45.7 -48.35 45.6 -48.6 44.4 Q-46.4 44.45 -44.95 45.5 M-46.8 33.55 L-47.45 34.3 -48.65 35.15 -49.4 35.15 -49.4 34.85 -49.55 33.7 -47.15 33.55 -46.8 33.55 M-42.5 38.9 L-43.65 41.05 -43.7 41.1 -43.8 41.1 -43.9 40.55 -42.5 37.3 -41.4 34.1 -41.4 34.0 -41.2 33.9 -41.7 35.95 -42.25 37.6 -42.5 38.9 M-39.25 28.2 L-39.2 28.5 -39.65 30.5 Q-40.25 32.35 -40.9 32.9 L-40.25 30.8 -39.7 29.55 Q-39.3 29.0 -39.3 28.2 L-39.25 28.2" fill="#e0a9a9" fill-rule="evenodd" stroke="none"/>
    <path d="M-29.7 30.5 Q-28.7 30.5 -28.4 29.85 L-28.3 29.1 Q-28.3 28.15 -30.3 28.15 -30.75 28.15 -31.45 29.25 -31.45 30.5 -29.7 30.5 M-28.6 29.3 Q-28.6 30.25 -29.7 30.25 -31.1 30.25 -31.1 29.4 -31.1 28.55 -29.8 28.55 -28.6 28.55 -28.6 29.3 M-27.9 32.35 L-28.2 33.2 -32.8 32.15 -38.45 30.55 -38.4 30.5 -38.2 29.75 -38.05 29.0 -38.1 29.4 Q-34.75 30.75 -30.7 31.75 L-27.9 32.35 M-28.6 34.5 L-29.0 35.75 -39.25 33.3 -38.85 31.85 Q-37.1 32.6 -36.05 32.6 L-35.35 32.75 Q-33.6 33.55 -32.55 33.55 L-28.6 34.5 M-29.85 37.9 L-30.4 39.25 -40.5 36.5 -39.9 34.8 -39.75 34.9 -35.4 36.4 -29.85 37.9 M-31.35 41.55 L-32.85 44.5 Q-32.95 44.1 -32.95 44.55 L-33.35 45.05 Q-33.9 44.55 -35.6 44.25 L-39.7 43.5 -43.35 42.5 -42.8 41.55 -41.3 38.65 Q-34.7 41.0 -31.35 41.55 M-40.7 37.15 L-40.55 36.75 -40.65 36.95 -34.95 38.6 -40.7 37.15 M-38.05 28.55 L-38.05 27.9 Q-38.0 25.4 -37.2 26.15 L-36.25 26.45 Q-33.6 27.45 -30.4 27.6 L-26.7 27.95 -27.65 31.55 -35.55 29.25 -34.4 29.15 -34.4 28.95 -34.95 29.0 -34.55 28.05 Q-34.55 26.7 -36.05 26.7 -37.45 26.7 -37.45 28.1 L-36.9 28.8 -36.65 28.95 -38.05 28.55 M-35.95 28.8 Q-37.1 28.8 -37.1 28.0 -37.1 27.0 -36.05 27.0 -34.8 27.0 -34.8 28.05 -34.8 28.8 -35.95 28.8 M-37.5 41.0 L-37.7 41.3 -36.95 41.85 -36.25 41.65 Q-35.8 42.1 -35.25 42.1 -34.6 42.15 -34.6 41.35 L-35.0 40.75 Q-35.4 40.75 -36.15 41.45 L-36.0 41.35 -35.9 41.05 Q-36.5 40.7 -36.9 40.7 L-37.3 40.85 Q-37.4 40.1 -38.8 40.1 L-39.2 40.65 Q-39.2 41.85 -37.5 41.0 M-36.8 42.8 Q-36.85 42.05 -37.75 42.05 -38.4 42.05 -38.55 42.9 -38.55 43.3 -38.1 43.3 -37.9 43.3 -37.55 43.0 L-37.7 42.85 -38.15 42.75 Q-38.3 42.6 -37.75 42.3 -37.5 42.35 -36.95 42.9 L-37.25 43.1 -37.45 43.3 -37.4 43.45 -37.1 43.3 -34.8 44.05 -34.5 43.8 -34.2 44.15 -33.65 43.5 -33.75 43.3 -35.25 43.35 Q-35.3 42.85 -35.85 42.65 L-36.45 42.55 -36.8 42.8 M-38.85 42.75 Q-38.75 42.4 -39.8 42.1 L-41.3 41.6 -41.25 41.2 -41.7 41.15 -42.2 41.25 Q-41.85 41.6 -41.85 41.75 L-42.2 42.45 -40.9 42.9 -40.6 42.65 -38.85 42.75 M-34.1 47.7 Q-34.4 48.45 -35.2 48.95 L-35.3 49.0 -35.55 49.05 -36.85 49.4 -36.85 49.1 -38.2 48.95 -38.25 48.95 -38.5 48.9 -45.15 46.75 Q-44.35 46.4 -43.9 45.8 L-43.75 45.6 -40.95 46.35 Q-36.95 47.4 -34.1 47.7" fill="#ffffff" fill-rule="evenodd" stroke="none"/>
  </g>
</svg>
