<?xml version="1.0" encoding="UTF-8" standalone="no"?>
<svg xmlns:ffdec="https://www.free-decompiler.com/flash" xmlns:xlink="http://www.w3.org/1999/xlink" ffdec:objectType="shape" height="26.15px" width="26.0px" xmlns="http://www.w3.org/2000/svg">
  <g transform="matrix(1.0, 0.0, 0.0, 1.0, 11.3, 19.15)">
    <path d="M7.0 -16.9 L9.2 -19.05 9.65 -19.15 Q12.9 -18.7 14.3 -15.7 15.05 -14.3 14.4 -12.95 L14.45 -12.95 13.8 -12.0 13.8 -11.95 13.7 -11.85 12.6 -12.45 12.8 -12.6 13.05 -12.85 13.4 -13.35 13.4 -13.4 Q13.8 -14.3 13.3 -15.2 12.15 -17.6 9.7 -18.0 L9.05 -17.4 7.75 -16.0 7.75 -16.1 7.6 -15.85 7.6 -15.8 7.0 -16.9 M13.05 -12.85 L13.0 -12.8 13.05 -12.85" fill="#790027" fill-rule="evenodd" stroke="none"/>
    <path d="M7.0 -16.9 L7.6 -15.8 7.7 -15.6 7.7 -15.5 7.7 -15.4 7.7 -15.35 Q8.35 -13.45 10.15 -12.25 L12.25 -12.05 12.6 -12.45 13.7 -11.85 12.35 -10.45 12.1 -10.2 11.9 -10.2 11.5 -9.85 10.2 -8.8 10.45 -9.05 10.25 -9.15 10.25 -9.05 8.5 -8.85 Q7.75 -9.05 7.0 -9.6 L6.85 -9.7 6.5 -10.05 6.65 -10.1 5.95 -11.25 5.5 -12.65 5.35 -14.45 5.5 -15.0 6.15 -15.65 6.85 -16.75 7.0 -16.9 M10.75 -10.8 L9.55 -11.3 Q7.7 -12.55 6.8 -14.5 L6.25 -13.1 6.7 -11.95 Q6.85 -11.15 7.7 -10.5 L7.75 -10.45 7.8 -10.35 8.1 -10.2 8.35 -10.1 8.4 -10.1 8.6 -10.0 8.75 -10.0 9.35 -10.0 9.75 -9.9 10.75 -10.75 10.75 -10.7 10.9 -10.8 10.75 -10.8 M12.25 -12.05 L12.1 -12.0 12.0 -11.75 12.15 -11.95 12.25 -12.05" fill="#666666" fill-rule="evenodd" stroke="none"/>
    <path d="M7.6 -15.8 L7.6 -15.85 7.65 -15.85 7.7 -15.6 7.6 -15.8 M7.0 -6.3 L6.25 -5.6 5.7 -5.35 7.0 -6.3 M-6.05 6.75 Q-6.2 6.65 -6.3 6.6 L-6.2 6.5 -6.05 6.75 M-7.75 5.1 L-7.85 5.2 -7.85 4.95 -7.8 5.1 -7.75 5.1 M-8.75 5.1 L-11.2 5.4 -11.25 5.3 -11.25 4.85 -10.05 2.45 -9.5 3.8 -9.2 3.25 -9.6 4.1 -9.35 4.0 -8.75 5.1 M-9.55 1.45 L-9.5 1.35 -9.5 1.5 -9.55 1.45 M-9.0 0.35 L-8.9 0.15 -8.75 0.7 -8.9 0.2 -9.0 0.35 M-8.0 -1.45 L-8.2 -1.6 -8.25 -1.6 -7.3 -1.4 -7.8 -1.45 -8.0 -1.45 M8.75 -10.0 L8.6 -10.0 8.4 -10.1 8.35 -10.1 8.1 -10.2 8.4 -10.1 8.75 -10.0 M-2.6 -1.15 L-2.55 -1.15 -2.6 -1.15 M-0.35 -1.85 L4.15 -5.4 4.3 -5.5 7.35 -8.0 7.4 -7.95 -0.1 -2.05 -0.05 -1.85 -0.35 -1.85 M5.5 -12.65 L5.95 -11.25 6.65 -10.1 6.5 -10.05 Q5.8 -10.8 5.6 -11.65 L5.55 -11.7 5.5 -11.9 5.45 -12.1 5.45 -12.15 5.4 -12.2 5.4 -12.25 5.35 -12.35 5.45 -12.35 5.5 -12.6 5.5 -12.65 M-6.35 -1.35 L-6.45 -1.0 -6.55 -1.0 -6.8 -1.35 -6.35 -1.35 M2.65 -10.25 L2.7 -10.55 2.9 -10.5 2.65 -10.25 M-0.3 -9.05 L-0.25 -9.1 -0.3 -9.05 M0.8 -8.6 L1.55 -9.45 1.75 -9.35 0.8 -8.6 M5.15 -3.95 L4.95 -4.15 5.15 -4.0 5.15 -3.95 M-6.75 3.35 L-6.75 3.3 -6.85 2.8 -6.2 2.4 -6.75 3.3 -6.7 3.3 -6.75 3.35 M-7.65 -2.55 L-7.15 -2.3 -7.55 -2.45 -7.65 -2.55 M-6.8 -2.35 L-6.65 -2.4 -6.65 -2.35 -6.8 -2.35 M-8.1 3.85 L-8.0 3.55 -8.05 3.9 -8.1 3.85" fill="#000000" fill-rule="evenodd" stroke="none"/>
    <path d="M7.6 -15.85 L7.75 -16.1 7.75 -16.0 9.05 -17.4 9.75 -15.5 Q10.65 -13.85 12.95 -12.7 L12.8 -12.6 12.6 -12.45 12.25 -12.05 10.15 -12.25 Q8.35 -13.45 7.7 -15.35 L7.7 -15.4 7.7 -15.5 7.7 -15.6 7.65 -15.85 7.6 -15.85 M8.65 -13.75 L9.15 -13.3 8.65 -13.8 8.65 -13.75" fill="#ee8888" fill-rule="evenodd" stroke="none"/>
    <path d="M9.05 -17.4 L9.7 -18.0 Q12.15 -17.6 13.3 -15.2 13.8 -14.3 13.4 -13.4 L13.4 -13.35 13.05 -12.85 12.8 -12.6 12.95 -12.7 Q10.65 -13.85 9.75 -15.5 L9.05 -17.4 M8.65 -13.75 L8.65 -13.8 9.15 -13.3 8.65 -13.75" fill="#ff9999" fill-rule="evenodd" stroke="none"/>
    <path d="M6.7 -11.95 L6.25 -13.1 6.8 -14.5 Q7.7 -12.55 9.55 -11.3 L10.75 -10.8 10.75 -10.75 9.75 -9.9 9.35 -10.0 8.75 -10.0 8.4 -10.1 8.1 -10.2 7.8 -10.35 7.75 -10.45 7.7 -10.5 Q6.85 -11.15 6.7 -11.95" fill="#999999" fill-rule="evenodd" stroke="none"/>
    <path d="M6.85 -9.7 L7.0 -9.6 Q7.75 -9.05 8.5 -8.85 L7.7 -8.3 7.7 -8.25 7.35 -8.0 4.3 -5.5 4.15 -5.4 -0.35 -1.85 -0.55 -1.75 -2.55 -1.15 -2.6 -1.15 -3.45 -0.75 -3.75 -0.55 1.35 -5.1 6.85 -9.7 M5.5 -11.9 L2.8 -9.15 Q-0.7 -5.55 -1.85 -4.9 L-1.6 -5.35 Q-0.95 -6.5 -0.55 -7.7 L-0.45 -7.7 -0.35 -7.7 Q-0.15 -7.7 0.0 -7.85 L0.75 -8.45 0.8 -8.6 1.75 -9.35 2.35 -9.9 2.45 -10.05 2.65 -10.25 2.9 -10.5 3.95 -11.65 5.15 -12.65 5.3 -12.45 5.35 -12.35 5.4 -12.25 5.4 -12.2 5.45 -12.15 5.45 -12.1 5.5 -11.9" fill="#f0c000" fill-rule="evenodd" stroke="none"/>
    <path d="M6.5 -10.05 L6.85 -9.7 1.35 -5.1 -3.75 -0.55 -4.8 0.05 -5.7 0.6 -6.6 1.2 -6.75 1.1 -6.85 0.85 -7.0 0.35 -7.05 0.0 -7.05 -0.4 -6.55 -1.0 -6.45 -1.0 -6.35 -1.35 -4.95 -1.9 Q-3.15 -3.0 -2.05 -4.6 L-2.0 -4.6 -1.85 -4.9 Q-0.7 -5.55 2.8 -9.15 L5.5 -11.9 5.55 -11.7 5.6 -11.65 Q5.8 -10.8 6.5 -10.05 M3.95 -11.65 L5.05 -12.85 5.1 -12.7 5.3 -12.45 5.15 -12.65 3.95 -11.65" fill="#ffcc00" fill-rule="evenodd" stroke="none"/>
    <path d="M10.2 -8.8 L8.4 -7.4 8.35 -7.4 7.0 -6.3 5.7 -5.35 5.3 -5.1 4.1 -4.1 4.15 -4.0 1.95 -2.2 1.4 -1.85 0.3 -1.85 -0.05 -1.85 -0.1 -2.05 7.4 -7.95 7.35 -8.0 7.7 -8.25 7.7 -8.3 8.5 -8.85 10.25 -9.05 10.25 -9.15 10.45 -9.05 10.2 -8.8 M-7.85 5.2 L-7.95 5.2 -8.4 5.25 -8.65 5.05 -8.75 5.1 -9.35 4.0 -8.1 3.85 -8.05 3.9 -8.1 4.2 -7.85 4.95 -7.85 5.2 M-10.05 2.45 L-9.55 1.45 -9.5 1.5 -9.5 1.35 -9.5 1.3 -9.25 0.9 -9.05 0.5 -9.0 0.35 -8.9 0.2 -8.75 0.7 -8.9 0.15 -8.85 0.1 -8.05 -0.95 -8.0 -0.95 -7.95 -1.0 -7.7 -1.3 -8.0 -1.45 -7.8 -1.45 -7.3 -1.4 -6.8 -1.35 -6.55 -1.0 -7.05 -0.4 -7.05 0.0 -7.0 0.35 -6.85 0.85 -7.5 2.0 -7.7 1.8 -8.05 0.95 -8.05 1.0 -8.4 1.65 -9.2 3.25 -9.5 3.8 -10.05 2.45 M2.55 -11.75 L5.5 -15.0 5.35 -14.45 5.5 -12.65 5.5 -12.6 5.45 -12.35 5.35 -12.35 5.3 -12.45 5.1 -12.7 5.05 -12.85 3.95 -11.65 2.9 -10.5 2.7 -10.55 2.65 -10.25 2.45 -10.05 2.35 -9.9 1.75 -9.35 1.55 -9.45 0.8 -8.6 0.75 -8.45 0.0 -7.85 Q-0.15 -7.7 -0.35 -7.7 L-0.45 -7.7 -0.3 -9.05 -0.25 -9.1 0.8 -10.05 0.85 -10.05 2.25 -11.45 2.55 -11.75" fill="#593d00" fill-rule="evenodd" stroke="none"/>
    <path d="M6.25 -5.6 L5.55 -5.05 6.25 -4.5 7.1 -3.3 7.1 -3.35 Q8.15 -1.4 7.6 0.65 L6.65 3.2 5.3 5.25 Q3.75 6.95 1.5 6.5 L1.4 6.5 Q-0.45 6.2 -1.9 5.2 L-4.8 6.95 -5.15 7.0 -5.4 7.0 -5.65 6.95 -6.05 6.75 -6.2 6.5 -6.3 6.6 -6.35 6.55 -7.55 5.35 -7.75 5.1 -7.8 5.1 -7.85 4.95 -8.1 4.2 -8.05 3.9 -8.0 3.55 -7.75 2.9 -7.75 2.85 -7.3 2.05 -7.45 2.0 -7.5 2.0 -6.85 0.85 -6.75 1.1 -6.6 1.2 -5.7 0.6 -4.8 0.05 -3.75 -0.55 -3.45 -0.75 -2.6 -1.15 -2.55 -1.15 -0.55 -1.75 -0.35 -1.85 -0.05 -1.85 0.3 -1.85 1.4 -1.85 1.4 -1.8 1.95 -1.65 2.0 -1.65 2.65 -1.4 3.0 -1.3 2.9 -0.95 -0.25 -0.7 -2.2 -0.05 -4.25 1.0 -4.65 1.2 -5.75 2.0 -5.85 2.05 -5.85 2.1 -6.1 2.25 -6.15 2.35 -6.2 2.4 -6.85 2.8 -6.75 3.3 -6.75 3.35 -7.0 4.25 -6.75 4.6 -6.7 4.65 -6.25 5.15 -5.7 5.65 -5.65 5.7 -5.25 5.85 -2.2 4.1 -2.15 4.0 -2.1 4.0 -2.0 3.95 -0.35 3.35 -0.05 3.25 1.25 2.8 1.65 2.8 2.0 3.05 1.4 3.4 -0.6 4.65 Q0.4 5.2 1.65 5.35 3.35 5.7 4.45 4.55 L5.0 3.8 5.45 3.0 5.6 2.7 6.05 1.75 6.5 0.4 Q6.9 -1.3 6.05 -2.8 L5.85 -3.2 5.4 -3.75 5.3 -3.85 5.15 -3.95 5.15 -4.0 4.95 -4.15 4.65 -4.4 4.15 -4.0 4.1 -4.1 5.3 -5.1 5.7 -5.35 6.25 -5.6 M-8.25 -1.6 L-8.4 -1.7 Q-8.9 -2.2 -9.1 -3.05 L-9.15 -3.2 Q-9.35 -4.55 -9.05 -5.4 L-9.05 -5.45 Q-8.45 -7.65 -7.15 -9.55 L-5.3 -11.85 -5.25 -11.85 -3.25 -13.75 -3.15 -13.8 -2.55 -14.4 -2.4 -14.55 -2.15 -14.7 -1.45 -15.25 -1.4 -15.0 -1.1 -15.15 -0.75 -15.05 0.15 -14.3 1.35 -12.6 1.3 -12.65 1.6 -12.2 2.1 -11.5 2.15 -11.4 2.55 -11.75 2.25 -11.45 0.85 -10.05 0.8 -10.05 1.35 -10.55 0.85 -11.3 0.4 -12.0 -0.65 -13.5 -0.7 -13.55 -0.75 -13.6 -0.85 -13.8 -1.0 -13.85 -1.1 -13.8 -1.3 -13.65 -1.75 -13.55 -2.1 -13.15 -2.5 -12.9 -2.45 -12.9 -4.5 -11.0 -6.15 -9.1 -6.2 -8.9 Q-7.45 -7.2 -8.0 -5.1 -8.2 -4.45 -8.05 -3.45 L-8.05 -3.35 -7.65 -2.55 -7.55 -2.45 -7.15 -2.3 -7.0 -2.3 -6.8 -2.35 -6.65 -2.35 -6.65 -2.4 -6.6 -2.4 Q-6.2 -2.6 -5.85 -2.75 L-5.6 -2.85 -5.45 -2.9 -5.5 -2.85 -5.45 -2.85 -5.4 -2.9 -5.0 -3.05 Q-4.0 -3.55 -3.1 -5.0 -2.0 -6.65 -1.5 -8.25 L-1.45 -8.4 -0.75 -10.05 Q-0.6 -10.1 -0.6 -9.45 L-0.6 -8.8 -0.3 -9.05 -0.45 -7.7 -0.55 -7.7 Q-0.95 -6.5 -1.6 -5.35 L-1.85 -4.9 -2.0 -4.6 -2.05 -4.6 Q-3.15 -3.0 -4.95 -1.9 L-6.35 -1.35 -6.8 -1.35 -7.3 -1.4 -8.25 -1.6" fill="#663300" fill-rule="evenodd" stroke="none"/>
    <path d="M1.4 -1.85 L1.95 -2.2 1.65 -1.95 1.5 -1.8 1.95 -1.65 1.4 -1.8 1.4 -1.85 M-0.65 -13.5 L0.4 -12.0 0.85 -11.3 1.35 -10.55 0.8 -10.05 -0.25 -9.1 -0.3 -9.05 -0.6 -8.8 -0.6 -9.45 Q-0.6 -10.1 -0.75 -10.05 L-1.45 -8.4 -1.5 -8.25 Q-2.0 -6.65 -3.1 -5.0 -4.0 -3.55 -5.0 -3.05 L-4.85 -3.15 Q-5.65 -4.1 -5.65 -4.65 L-5.35 -5.55 -5.6 -6.1 Q-5.6 -8.65 -3.05 -11.15 L-0.65 -13.5 M-4.65 1.2 L-4.25 1.0 -2.2 -0.05 -0.25 -0.7 2.9 -0.95 3.0 -1.3 2.65 -1.4 Q3.35 -1.65 4.1 -2.05 5.4 -2.7 5.85 -3.2 L6.05 -2.8 Q6.9 -1.3 6.5 0.4 4.85 2.15 2.75 2.15 2.25 1.6 0.95 1.6 L-4.05 2.85 Q-5.15 2.85 -5.15 2.15 L-4.65 1.2 M-5.85 2.1 L-5.85 2.05 -5.75 2.0 -5.8 2.15 -5.85 2.1 M-2.1 -13.15 L-1.75 -13.55 -1.3 -13.65 -1.1 -13.8 -1.0 -13.85 -0.85 -13.8 -2.1 -13.15 M-6.15 -9.1 L-6.2 -8.9 -6.15 -9.1 M-5.85 -2.75 L-5.85 -2.8 -5.8 -2.75 -5.6 -2.85 -5.85 -2.75" fill="#ffcc99" fill-rule="evenodd" stroke="none"/>
    <path d="M1.95 -2.2 L4.15 -4.0 4.65 -4.4 4.95 -4.15 5.15 -3.95 5.3 -3.85 5.4 -3.75 5.55 -3.55 Q4.6 -2.7 2.0 -1.65 L1.95 -1.65 1.5 -1.8 1.65 -1.95 1.95 -2.2 M5.45 3.0 L5.0 3.8 4.45 4.55 Q3.35 5.7 1.65 5.35 0.4 5.2 -0.6 4.65 L1.4 3.4 2.0 3.4 5.45 3.0 M-0.05 3.25 L-0.35 3.35 -0.35 3.25 -0.05 3.2 -0.05 3.25" fill="#db9c64" fill-rule="evenodd" stroke="none"/>
    <path d="M-0.65 -13.5 L-3.05 -11.15 Q-5.6 -8.65 -5.6 -6.1 L-5.35 -5.55 -5.65 -4.65 Q-5.65 -4.1 -4.85 -3.15 L-5.0 -3.05 -5.4 -2.9 -5.45 -2.85 -5.45 -2.9 -5.6 -2.85 -5.8 -2.75 -5.85 -2.8 -5.85 -2.75 Q-6.2 -2.6 -6.6 -2.4 L-6.65 -2.4 -6.8 -2.35 -7.0 -2.3 -7.15 -2.3 -7.65 -2.55 -8.05 -3.35 -8.05 -3.45 Q-8.2 -4.45 -8.0 -5.1 -7.45 -7.2 -6.2 -8.9 L-6.15 -9.1 -4.5 -11.0 -2.45 -12.9 -2.5 -12.9 -2.1 -13.15 -0.85 -13.8 -0.75 -13.6 -0.7 -13.55 -0.65 -13.5 M2.0 -1.65 Q4.6 -2.7 5.55 -3.55 L5.4 -3.75 5.85 -3.2 Q5.4 -2.7 4.1 -2.05 3.35 -1.65 2.65 -1.4 L2.0 -1.65 M-4.65 1.2 L-5.15 2.15 Q-5.15 2.85 -4.05 2.85 L0.95 1.6 Q2.25 1.6 2.75 2.15 4.85 2.15 6.5 0.4 L6.05 1.75 5.6 2.7 5.45 3.0 2.0 3.4 1.4 3.4 2.0 3.05 1.65 2.8 1.25 2.8 -0.05 3.25 -0.05 3.2 -0.35 3.25 -0.35 3.35 -2.0 3.95 -2.1 4.0 -2.2 4.1 -5.25 5.85 -5.65 5.7 -5.7 5.65 -6.25 5.15 -6.7 4.65 -6.75 4.6 -7.0 4.25 -6.75 3.35 -6.7 3.3 -6.75 3.3 -6.2 2.4 -6.15 2.35 -6.1 2.25 -5.85 2.1 -5.8 2.15 -5.75 2.0 -4.65 1.2" fill="#f1ba87" fill-rule="evenodd" stroke="none"/>
    <path d="M-9.2 3.25 L-8.4 1.65 -8.05 1.0 -8.05 0.95 -7.7 1.8 -7.5 2.0 -7.45 2.0 -7.3 2.05 -7.75 2.85 -7.75 2.9 -8.0 3.55 -8.1 3.85 -9.35 4.0 -9.6 4.1 -9.2 3.25" fill="#cc9900" fill-rule="evenodd" stroke="none"/>
  </g>
</svg>
