<?xml version="1.0" encoding="UTF-8" standalone="no"?>
<svg xmlns:ffdec="https://www.free-decompiler.com/flash" xmlns:xlink="http://www.w3.org/1999/xlink" ffdec:objectType="shape" height="15.35px" width="12.3px" xmlns="http://www.w3.org/2000/svg">
  <g transform="matrix(1.0, 0.0, 0.0, 1.0, 6.2, 7.65)">
    <path d="M-2.85 -1.45 L-4.9 3.6 Q-5.5 4.9 -4.85 6.2 L-4.05 6.7 Q-3.25 6.75 -2.7 6.2 L-2.0 5.15 -1.95 5.1 Q-1.35 3.85 -1.05 2.5 L1.25 -6.35 Q-1.55 -4.75 -2.85 -1.45 M1.8 -7.65 L3.35 -7.55 3.4 -7.5 3.6 -7.45 5.9 -6.1 6.1 -5.8 6.1 -5.4 5.75 -5.2 5.4 -5.25 3.3 -6.45 2.2 -6.0 -0.05 2.7 Q-0.4 4.2 -1.05 5.55 L-2.0 6.85 -1.95 6.85 Q-2.85 7.85 -4.3 7.7 L-4.5 7.65 -5.5 7.0 -5.65 6.8 Q-6.6 5.05 -5.85 3.25 L-3.8 -1.8 Q-2.15 -5.9 1.55 -7.6 L1.8 -7.65" fill="#666666" fill-rule="evenodd" stroke="none"/>
    <path d="M-2.85 -1.45 Q-1.55 -4.75 1.25 -6.35 L-1.05 2.5 Q-1.35 3.85 -1.95 5.1 L-2.0 5.15 -2.7 6.2 Q-3.25 6.75 -4.05 6.7 L-4.85 6.2 Q-5.5 4.9 -4.9 3.6 L-2.85 -1.45" fill="#000000" fill-rule="evenodd" stroke="none"/>
  </g>
</svg>
