<?xml version="1.0" encoding="UTF-8" standalone="no"?>
<svg xmlns:ffdec="https://www.free-decompiler.com/flash" xmlns:xlink="http://www.w3.org/1999/xlink" ffdec:objectType="shape" height="16.5px" width="13.8px" xmlns="http://www.w3.org/2000/svg">
  <g transform="matrix(1.0, 0.0, 0.0, 1.0, 6.85, 8.25)">
    <path d="M-1.1 -7.05 L-1.35 -6.95 -1.05 -6.85 Q-0.2 -6.55 0.2 -5.7 L0.2 -5.65 Q0.9 -4.0 1.2 -2.15 L2.05 4.1 Q2.3 6.2 4.0 7.25 5.0 7.1 5.3 6.1 6.15 3.05 5.85 0.0 5.5 -2.75 3.95 -4.65 L2.3 -6.2 2.25 -6.2 0.8 -7.2 -1.1 -7.05 M2.9 -7.0 Q3.9 -6.3 4.7 -5.3 6.45 -3.15 6.85 -0.1 7.2 3.15 6.3 6.35 5.8 8.15 3.9 8.25 L3.65 8.2 Q1.4 6.85 1.05 4.2 L0.2 -2.0 0.2 -2.05 Q-0.05 -3.75 -0.65 -5.25 L-0.7 -5.25 -1.4 -5.9 -2.6 -6.1 -6.05 -3.2 -6.4 -3.1 -6.75 -3.3 -6.85 -3.65 -6.7 -4.0 -3.1 -6.9 -3.05 -7.0 Q-1.25 -8.65 1.1 -8.15 L1.2 -8.15 2.9 -7.0" fill="#666666" fill-rule="evenodd" stroke="none"/>
    <path d="M-1.05 -6.85 L-1.35 -6.95 -1.1 -7.05 -1.05 -6.85" fill="#ffffff" fill-rule="evenodd" stroke="none"/>
    <path d="M-1.1 -7.05 L0.8 -7.2 2.25 -6.2 2.3 -6.2 3.95 -4.65 Q5.5 -2.75 5.85 0.0 6.15 3.05 5.3 6.1 5.0 7.1 4.0 7.25 2.3 6.2 2.05 4.1 L1.2 -2.15 Q0.9 -4.0 0.2 -5.65 L0.2 -5.7 Q-0.2 -6.55 -1.05 -6.85 L-1.1 -7.05" fill="#000000" fill-rule="evenodd" stroke="none"/>
    <path d="M2.9 -7.0 L2.95 -7.0 2.9 -7.0" fill="#333333" fill-rule="evenodd" stroke="none"/>
  </g>
</svg>
