<?xml version="1.0" encoding="UTF-8" standalone="no"?>
<svg xmlns:ffdec="https://www.free-decompiler.com/flash" xmlns:xlink="http://www.w3.org/1999/xlink" ffdec:objectType="shape" height="15.95px" width="27.9px" xmlns="http://www.w3.org/2000/svg">
  <g transform="matrix(1.0, 0.0, 0.0, 1.0, 2.95, 1.4)">
    <path d="M15.45 13.7 L15.4 13.7 15.45 13.7" fill="#000000" fill-rule="evenodd" stroke="none"/>
    <path d="M23.4 5.85 L22.7 4.75 20.7 2.75 Q19.05 1.7 17.3 1.15 L15.25 0.45 13.1 -0.1 11.05 -0.25 7.5 0.15 4.6 0.65 Q3.0 1.2 1.65 2.1 0.0 3.15 -0.8 4.8 L-1.85 7.45 -1.85 8.05 -1.25 9.3 -0.75 9.9 -0.05 10.5 1.25 11.4 3.3 12.3 5.45 12.9 9.25 13.6 11.15 13.55 13.2 13.2 15.25 12.7 17.35 12.3 19.35 11.7 21.5 10.85 23.55 10.05 23.75 9.25 23.85 7.8 23.65 6.6 23.65 6.55 23.6 6.4 23.4 5.85 M15.45 13.7 L13.4 14.2 11.2 14.55 7.3 14.5 5.25 14.15 Q3.4 13.65 1.85 12.8 L-0.65 11.25 Q-2.35 10.1 -2.85 8.25 -3.2 6.8 -2.35 5.3 -1.5 3.75 -0.2 2.6 1.15 1.4 2.75 0.55 4.15 -0.25 5.75 -0.65 L8.75 -1.4 11.3 -1.15 13.35 -0.95 15.5 -0.5 17.65 0.2 Q19.25 0.8 20.55 1.5 22.35 2.5 23.55 4.15 L24.55 5.95 Q25.25 7.75 24.75 9.5 L24.3 10.8 24.1 10.85 19.65 12.55 17.6 13.3 15.45 13.7" fill="#510000" fill-rule="evenodd" stroke="none"/>
    <path d="M-1.25 9.3 L-1.85 8.05 -1.85 7.45 -0.8 4.8 Q0.0 3.15 1.65 2.1 3.0 1.2 4.6 0.65 L7.5 0.15 11.05 -0.25 13.1 -0.1 15.25 0.45 17.3 1.15 Q19.05 1.7 20.7 2.75 L22.7 4.75 23.4 5.85 Q21.5 6.9 17.85 8.1 11.5 10.2 5.55 10.2 2.2 10.2 -1.25 9.3" fill="#cc0000" fill-rule="evenodd" stroke="none"/>
    <path d="M-1.25 9.3 Q2.2 10.2 5.55 10.2 11.5 10.2 17.85 8.1 21.5 6.9 23.4 5.85 L23.6 6.4 23.65 6.55 23.65 6.6 23.85 7.8 23.75 9.25 23.55 10.05 21.5 10.85 19.35 11.7 17.35 12.3 15.25 12.7 13.2 13.2 11.15 13.55 9.25 13.6 5.45 12.9 3.3 12.3 1.25 11.4 -0.05 10.5 -0.75 9.9 -1.25 9.3" fill="#990000" fill-rule="evenodd" stroke="none"/>
  </g>
</svg>
