<?xml version="1.0" encoding="UTF-8" standalone="no"?>
<svg xmlns:ffdec="https://www.free-decompiler.com/flash" xmlns:xlink="http://www.w3.org/1999/xlink" ffdec:objectType="shape" height="37.0px" width="37.1px" xmlns="http://www.w3.org/2000/svg">
  <g transform="matrix(1.0, 0.0, 0.0, 1.0, 4.8, 37.0)">
    <path d="M21.0 -2.5 L18.15 -3.25 Q9.5 -6.5 6.2 -13.25 3.65 -18.6 4.7 -21.55 5.75 -24.55 7.3 -27.25 8.8 -29.95 12.95 -31.85 17.1 -33.75 21.7 -32.25 26.2 -30.75 27.05 -29.85 L27.1 -29.8 Q28.65 -28.0 29.7 -25.75 31.55 -21.7 31.25 -17.35 30.85 -12.8 28.55 -9.1 26.25 -5.4 22.6 -3.3 L21.0 -2.5 M6.25 -31.1 L6.6 -30.8 7.75 -31.0 Q3.65 -27.3 2.0 -22.8 L1.15 -20.35 Q0.6 -18.45 0.55 -16.65 0.45 -20.75 4.3 -28.25 5.15 -29.9 6.25 -31.1" fill="#ffcc99" fill-rule="evenodd" stroke="none"/>
    <path d="M27.05 -29.85 Q26.2 -30.75 21.7 -32.25 17.1 -33.75 12.95 -31.85 8.8 -29.95 7.3 -27.25 5.75 -24.55 4.7 -21.55 3.65 -18.6 6.2 -13.25 9.5 -6.5 18.15 -3.25 L21.0 -2.5 19.3 -1.85 18.7 -2.0 Q14.45 -3.05 13.55 -3.4 2.85 -7.4 0.75 -15.05 L0.6 -15.9 0.55 -16.5 0.55 -16.65 Q0.6 -18.45 1.15 -20.35 L2.0 -22.8 Q3.65 -27.3 7.75 -31.0 L6.6 -30.8 6.25 -31.1 Q9.0 -34.2 13.45 -34.7 16.95 -35.1 21.55 -33.9 L21.7 -33.9 22.9 -33.3 24.45 -32.25 27.05 -29.85" fill="#f1ba87" fill-rule="evenodd" stroke="none"/>
    <path d="M22.9 -33.3 L21.7 -33.9 21.55 -33.9 Q16.95 -35.1 13.45 -34.7 9.0 -34.2 6.25 -31.1 5.15 -29.9 4.3 -28.25 0.45 -20.75 0.55 -16.65 L0.55 -16.5 0.6 -15.9 0.75 -15.05 Q2.85 -7.4 13.55 -3.4 14.45 -3.05 18.7 -2.0 L19.3 -1.85 17.05 -1.3 17.1 -1.4 17.6 -1.5 Q5.95 -0.6 1.75 -5.7 -2.5 -10.85 -3.6 -16.1 -4.1 -19.75 -3.0 -23.2 L-2.8 -23.9 -2.55 -24.55 Q-1.0 -28.65 2.15 -31.55 5.2 -34.3 9.3 -35.35 13.55 -36.45 17.6 -35.45 L17.65 -35.45 Q20.45 -34.8 22.9 -33.3" fill="#db9c64" fill-rule="evenodd" stroke="none"/>
    <path d="M27.05 -29.85 L24.45 -32.25 22.9 -33.3 Q20.45 -34.8 17.65 -35.45 L17.6 -35.45 Q13.55 -36.45 9.3 -35.35 5.2 -34.3 2.15 -31.55 -1.0 -28.65 -2.55 -24.55 L-2.8 -23.9 -3.0 -23.2 Q-4.1 -19.75 -3.6 -16.1 -2.5 -10.85 1.75 -5.7 5.95 -0.6 17.6 -1.5 L17.1 -1.4 16.95 -1.35 16.9 -1.3 17.05 -1.3 19.3 -1.85 21.0 -2.5 22.6 -3.3 Q26.25 -5.4 28.55 -9.1 30.85 -12.8 31.25 -17.35 31.55 -21.7 29.7 -25.75 28.65 -28.0 27.1 -29.8 L27.05 -29.85 M18.85 -36.2 Q22.2 -35.15 25.05 -33.05 28.75 -30.3 30.6 -26.15 32.6 -21.9 32.25 -17.25 31.8 -12.45 29.4 -8.55 26.95 -4.65 23.05 -2.4 19.0 -0.2 14.4 0.0 9.75 0.2 5.55 -1.8 L5.5 -1.8 Q1.3 -3.75 -1.3 -7.55 -3.9 -11.45 -4.6 -15.95 -5.05 -19.15 -4.35 -22.25 L-4.25 -22.2 -3.75 -23.85 -3.5 -24.4 -3.25 -24.85 -3.5 -24.9 -3.05 -25.9 Q-1.45 -29.6 1.45 -32.3 L1.8 -32.55 Q2.7 -33.4 3.75 -34.05 L5.75 -35.15 Q7.3 -35.85 9.0 -36.3 11.6 -37.0 14.2 -36.9 L15.4 -36.85 15.35 -36.95 16.25 -36.95 17.8 -36.75 18.0 -36.65 18.8 -36.2 18.85 -36.1 18.85 -36.2" fill="#663300" fill-rule="evenodd" stroke="none"/>
    <path d="M18.8 -36.2 L18.85 -36.2 18.85 -36.1 18.8 -36.2" fill="#333333" fill-rule="evenodd" stroke="none"/>
    <path d="M17.1 -1.4 L17.05 -1.3 16.9 -1.3 16.95 -1.35 17.1 -1.4" fill="#ffffff" fill-rule="evenodd" stroke="none"/>
  </g>
</svg>
