<?xml version="1.0" encoding="UTF-8" standalone="no"?>
<svg xmlns:ffdec="https://www.free-decompiler.com/flash" xmlns:xlink="http://www.w3.org/1999/xlink" ffdec:objectType="shape" height="29.4px" width="37.9px" xmlns="http://www.w3.org/2000/svg">
  <g transform="matrix(1.0, 0.0, 0.0, 1.0, 15.4, 10.75)">
    <path d="M1.7 -10.75 L1.75 -10.75 Q6.05 -10.7 10.2 -9.2 13.1 -8.15 15.4 -6.1 18.85 -2.95 20.7 1.45 L20.65 1.45 Q22.2 5.05 22.5 9.0 L22.5 9.05 22.5 9.1 22.5 9.5 22.35 9.85 22.0 10.0 21.85 10.0 Q19.35 12.65 16.1 14.3 12.95 15.8 9.65 16.95 6.3 18.05 2.8 18.45 -0.75 18.85 -4.25 18.4 -7.9 18.1 -11.35 17.2 L-11.4 17.2 -14.9 16.0 -15.2 15.7 -15.25 15.4 -15.25 15.3 Q-15.7 10.95 -14.9 6.65 -14.15 2.35 -12.6 -0.35 -11.05 -3.1 -9.15 -4.95 L-9.15 -4.9 Q-6.6 -8.55 -2.25 -9.75 L-2.3 -9.75 1.7 -10.75 M13.85 14.25 L15.65 13.4 Q19.0 11.7 21.5 8.9 21.15 5.25 19.75 1.85 18.05 -2.35 14.75 -5.35 12.6 -7.25 9.85 -8.25 5.9 -9.7 1.85 -9.75 L-2.0 -8.8 -3.55 -8.3 -4.15 -8.0 -4.85 -7.6 Q-6.9 -6.4 -8.35 -4.35 -10.0 -2.6 -11.55 0.0 -13.1 2.55 -13.85 6.8 -14.7 11.0 -14.5 14.0 -12.7 15.75 -11.1 16.25 L-4.15 17.4 -4.1 17.4 Q-0.75 17.85 2.7 17.45 L9.35 16.0 11.2 15.35 11.9 15.05 13.85 14.25 M-3.1 6.7 Q-1.05 7.5 0.5 9.5 L1.05 10.25 1.1 10.3 1.1 10.35 1.45 11.15 1.75 12.2 1.85 12.8 1.9 14.35 1.8 15.7 -3.4 16.7 -3.55 16.7 -4.5 16.5 -12.85 14.5 -13.15 14.25 -13.2 14.2 -13.45 14.0 -13.45 13.6 -12.3 9.65 -12.2 9.45 Q-10.65 7.05 -8.1 6.5 L-8.1 6.45 -4.65 6.3 -3.85 6.45 -3.05 6.75 -3.1 6.7 M-3.5 14.65 Q-2.65 14.35 -2.1 13.7 -1.65 13.0 -1.75 12.6 L-1.75 12.65 Q-1.95 12.15 -2.4 11.9 L-2.5 11.85 Q-4.05 11.0 -5.9 10.9 L-5.95 10.9 -11.45 10.25 -12.05 12.45 -12.1 12.45 -12.4 13.6 -6.6 15.0 -5.5 15.25 -5.25 15.3 -5.5 15.15 -6.55 14.9 Q-7.4 14.75 -5.15 14.8 L-4.95 14.8 -3.95 14.75 -3.6 14.65 -3.5 14.65 M-7.9 7.45 L-7.85 7.45 -7.9 7.45 Q-9.65 7.85 -10.85 9.3 L-5.85 9.9 Q-3.85 10.0 -2.15 10.85 L-0.25 10.3 -0.2 10.3 -0.15 10.3 -0.25 10.15 -0.3 10.1 Q-3.15 6.4 -7.9 7.45 M-0.8 12.3 L-0.8 12.35 Q-0.55 13.25 -1.15 14.1 -1.85 15.1 -3.0 15.65 L0.85 15.05 0.9 14.3 Q1.0 12.6 0.4 11.15 L-1.2 11.6 -0.8 12.3" fill="#003333" fill-rule="evenodd" stroke="none"/>
    <path d="M1.5 -5.4 Q1.5 -3.45 -0.9 -3.45 -2.8 -3.45 -2.8 -4.25 -2.8 -4.8 -2.3 -4.8 -1.8 -4.35 -1.3 -4.35 0.0 -4.35 0.95 -5.35 0.95 -5.9 1.25 -6.15 L1.5 -5.4 M13.85 14.25 L11.9 15.05 11.2 15.35 9.35 16.0 2.7 17.45 Q-0.75 17.85 -4.1 17.4 L-4.15 17.4 -11.1 16.25 Q-12.7 15.75 -14.5 14.0 -14.7 11.0 -13.85 6.8 -13.1 2.55 -11.55 0.0 -10.0 -2.6 -8.35 -4.35 -6.9 -6.4 -4.85 -7.6 L-4.15 -8.0 -3.55 -8.3 -4.25 -5.05 Q-5.0 -2.1 -5.0 0.25 -5.0 3.7 -3.1 6.7 L-3.05 6.75 -3.85 6.45 -4.65 6.3 -8.1 6.45 -8.1 6.5 Q-10.65 7.05 -12.2 9.45 L-12.3 9.65 -13.45 13.6 -13.45 14.0 -13.2 14.2 -13.15 14.25 -12.85 14.5 -4.5 16.5 -3.55 16.7 -3.4 16.7 1.8 15.7 1.9 14.35 1.85 12.8 1.75 12.2 1.45 11.15 Q6.1 14.0 13.85 14.25 M-12.05 12.45 L-11.45 10.25 -5.95 10.9 -5.9 10.9 Q-4.05 11.0 -2.5 11.85 L-2.4 11.9 Q-1.95 12.15 -1.75 12.65 L-1.75 12.6 Q-1.65 13.0 -2.1 13.7 -2.65 14.35 -3.5 14.65 L-2.9 14.35 -5.0 14.55 -7.25 14.4 -10.05 13.4 -12.05 12.45 M-6.4 13.35 Q-5.8 13.35 -5.8 12.85 -5.8 12.3 -6.35 12.3 -6.85 12.3 -6.85 12.85 -6.85 13.35 -6.4 13.35 M-4.7 13.6 Q-4.1 13.6 -4.1 13.05 -4.1 12.55 -4.75 12.55 -5.25 12.55 -5.25 13.0 -5.25 13.6 -4.7 13.6 M-9.85 13.75 L-10.2 13.6 -9.85 13.75 M-8.45 12.5 Q-8.45 13.05 -8.0 13.05 -7.45 13.05 -7.45 12.4 -7.45 12.05 -7.9 12.05 -8.45 12.05 -8.45 12.5" fill="#004993" fill-rule="evenodd" stroke="none"/>
    <path d="M1.5 -5.4 L1.25 -6.15 Q0.95 -5.9 0.95 -5.35 0.0 -4.35 -1.3 -4.35 -1.8 -4.35 -2.3 -4.8 -2.8 -4.8 -2.8 -4.25 -2.8 -3.45 -0.9 -3.45 1.5 -3.45 1.5 -5.4 M-3.55 -8.3 L-2.0 -8.8 1.85 -9.75 Q5.9 -9.7 9.85 -8.25 12.6 -7.25 14.75 -5.35 18.05 -2.35 19.75 1.85 21.15 5.25 21.5 8.9 19.0 11.7 15.65 13.4 L13.85 14.25 Q6.1 14.0 1.45 11.15 L1.1 10.35 1.1 10.3 1.05 10.25 0.5 9.5 Q-1.05 7.5 -3.1 6.7 -5.0 3.7 -5.0 0.25 -5.0 -2.1 -4.25 -5.05 L-3.55 -8.3" fill="#0058b0" fill-rule="evenodd" stroke="none"/>
    <path d="M-0.25 10.3 L-2.15 10.85 Q-3.85 10.0 -5.85 9.9 L-10.85 9.3 Q-9.65 7.85 -7.9 7.45 -3.15 6.4 -0.3 10.1 L-0.25 10.3" fill="#663300" fill-rule="evenodd" stroke="none"/>
    <path d="M-3.5 14.65 L-3.6 14.65 -3.95 14.75 -4.95 14.8 -5.15 14.8 Q-7.4 14.75 -6.55 14.9 L-5.5 15.15 -5.25 15.3 -5.5 15.25 -6.6 15.0 -12.4 13.6 -12.1 12.45 -12.05 12.45 -10.05 13.4 -7.25 14.4 -5.0 14.55 -2.9 14.35 -3.5 14.65 M-0.25 10.3 L-0.3 10.1 -0.25 10.15 -0.15 10.3 -0.2 10.3 -0.25 10.3 M-0.8 12.3 L-1.2 11.6 0.4 11.15 Q1.0 12.6 0.9 14.3 L0.85 15.05 -3.0 15.65 Q-1.85 15.1 -1.15 14.1 -0.55 13.25 -0.8 12.35 L-0.8 12.3 M-4.7 13.6 Q-5.25 13.6 -5.25 13.0 -5.25 12.55 -4.75 12.55 -4.1 12.55 -4.1 13.05 -4.1 13.6 -4.7 13.6 M-6.4 13.35 Q-6.85 13.35 -6.85 12.85 -6.85 12.3 -6.35 12.3 -5.8 12.3 -5.8 12.85 -5.8 13.35 -6.4 13.35 M-9.85 13.75 L-10.2 13.6 -9.85 13.75 M-8.45 12.5 Q-8.45 12.05 -7.9 12.05 -7.45 12.05 -7.45 12.4 -7.45 13.05 -8.0 13.05 -8.45 13.05 -8.45 12.5" fill="#00366c" fill-rule="evenodd" stroke="none"/>
    <path d="M-2.4 -4.9 Q-2.9 -6.5 -0.75 -6.9 -0.3 -6.35 0.75 -6.0 0.55 -4.75 -1.5 -4.75 L-2.4 -4.9" fill="#990000" fill-rule="evenodd" stroke="none"/>
    <path d="M0.85 -4.8 Q-0.15 -3.9 -1.5 -3.9 -3.05 -3.9 -3.05 -4.75 -3.05 -7.5 -1.0 -7.5 1.65 -7.5 1.65 -6.05 1.65 -5.55 0.85 -4.8 M-2.4 -4.9 L-1.5 -4.75 Q0.55 -4.75 0.75 -6.0 -0.3 -6.35 -0.75 -6.9 -2.9 -6.5 -2.4 -4.9" fill="#640000" fill-rule="evenodd" stroke="none"/>
  </g>
</svg>
