<?xml version="1.0" encoding="UTF-8" standalone="no"?>
<svg xmlns:ffdec="https://www.free-decompiler.com/flash" xmlns:xlink="http://www.w3.org/1999/xlink" ffdec:objectType="shape" height="66.2px" width="217.95px" xmlns="http://www.w3.org/2000/svg">
  <g transform="matrix(1.0, 0.0, 0.0, 1.0, 108.95, 34.2)">
    <path d="M108.0 -31.0 L84.4 -18.5 -27.5 -20.0 -27.2 -20.3 -27.15 -20.35 -27.8 -20.0 -74.35 1.95 -107.95 1.0 -24.15 -33.2 -23.65 -32.5 108.0 -31.0 M-26.55 -20.95 L-23.65 -32.5 -26.55 -20.95" fill="#999999" fill-rule="evenodd" stroke="none"/>
    <path d="M84.4 -18.5 L108.0 -31.0 108.0 -18.0 106.7 -17.05 40.0 29.85 39.05 5.0 39.3 4.6 40.05 5.0 84.4 -18.5" fill="#ffffff" fill-rule="evenodd" stroke="none"/>
    <path d="M39.05 5.0 L-74.35 1.95 -27.8 -20.0 -27.5 -20.0 84.4 -18.5 40.05 5.0 39.3 4.6 39.05 5.0" fill="#666666" fill-rule="evenodd" stroke="none"/>
    <path d="M40.0 29.85 L39.05 31.0 -98.95 22.0 -100.35 21.6 -107.95 1.0 -74.35 1.95 39.05 5.0 40.0 29.85" fill="#cccccc" fill-rule="evenodd" stroke="none"/>
    <path d="M84.4 -18.5 L108.0 -31.0 -23.65 -32.5 M108.0 -31.0 L108.0 -18.0 106.7 -17.05 107.95 -17.0 M40.0 29.85 L40.05 30.95 M-98.95 22.0 L39.05 31.0 40.0 29.85 39.05 5.0 -74.35 1.95 -107.95 1.0 -100.35 21.6 M40.05 5.0 L84.4 -18.5 -27.5 -20.0 M39.05 5.0 L39.3 4.6 M106.7 -17.05 L40.0 29.85 M-107.95 1.0 L-24.15 -33.2" fill="none" stroke="#333333" stroke-linecap="round" stroke-linejoin="round" stroke-width="2.0"/>
    <path d="M-23.65 -32.5 L-26.55 -20.95 M-27.8 -20.0 L-74.35 1.95 M-27.2 -20.3 L-27.8 -20.0 M-27.15 -20.35 L-27.2 -20.3" fill="none" stroke="#000000" stroke-linecap="round" stroke-linejoin="round" stroke-width="1.5"/>
  </g>
</svg>
