<?xml version="1.0" encoding="UTF-8" standalone="no"?>
<svg xmlns:ffdec="https://www.free-decompiler.com/flash" xmlns:xlink="http://www.w3.org/1999/xlink" ffdec:objectType="shape" height="18.85px" width="57.15px" xmlns="http://www.w3.org/2000/svg">
  <g transform="matrix(1.0, 0.0, 0.0, 1.0, 56.65, -6.9)">
    <path d="M-55.85 8.7 L-56.65 8.65 -56.65 8.15 -55.9 8.15 -55.85 8.7" fill="#333333" fill-rule="evenodd" stroke="none"/>
    <path d="M-20.4 17.4 L-24.2 16.7 -51.15 12.9 -56.65 12.3 -56.65 11.2 -43.45 12.6 -24.1 14.9 -20.35 15.5 -20.55 16.7 -20.4 17.4 M-55.9 8.15 L-40.5 8.6 -17.95 9.6 -18.3 10.25 -19.1 10.25 -41.15 9.35 -55.85 8.7 -55.9 8.15 M-19.25 15.65 L-19.3 16.7 -19.25 17.65 -19.2 18.1 -19.3 17.65 -19.35 17.25 -19.3 15.65 -19.25 15.65" fill="#661f1f" fill-rule="evenodd" stroke="none"/>
    <path d="M-56.65 11.2 L-56.65 10.2 -23.9 12.7 -19.55 13.05 -20.35 15.5 -24.1 14.9 -43.45 12.6 -56.65 11.2" fill="#ffcc99" fill-rule="evenodd" stroke="none"/>
    <path d="M-56.65 10.2 L-56.65 8.9 -55.85 8.7 -41.15 9.35 -19.1 10.25 -18.3 10.25 -18.65 10.95 -19.55 13.05 -23.9 12.7 -56.65 10.2" fill="#db9c64" fill-rule="evenodd" stroke="none"/>
    <path d="M-3.3 23.25 L-3.2 23.25 -3.25 23.3 -3.4 23.45 -3.55 23.6 -3.85 23.85 Q-4.9 23.7 -7.7 23.85 -16.25 24.35 -17.4 24.95 -17.9 24.95 -18.3 24.35 L-18.35 24.35 -18.35 24.3 Q-19.5 22.75 -20.4 17.4 L-20.55 16.7 -20.35 15.5 -19.55 13.05 -18.65 10.95 -18.3 10.25 -17.95 9.6 Q-17.05 7.9 -16.15 7.25 L-15.45 6.9 -14.8 6.95 -0.35 14.75 -0.35 15.1 Q-4.65 13.4 -9.15 10.75 -13.3 8.25 -15.1 7.7 L-15.1 7.75 -15.55 7.7 -16.3 8.55 -18.45 11.7 -18.6 12.05 -18.85 12.8 -18.9 13.1 -19.3 15.65 -19.35 17.25 -19.3 17.65 -19.2 18.1 -19.15 18.45 -19.35 17.65 -19.35 17.7 -19.15 19.7 Q-18.75 21.8 -17.65 23.9 -16.85 23.3 -11.85 23.15 L-7.95 23.05 -3.85 23.3 -3.35 23.25 -3.3 23.25 M-15.7 7.55 L-15.1 7.7 -15.35 7.65 -15.7 7.55 M-19.35 17.65 L-19.3 17.65 -19.35 17.65 M-5.7 25.45 L-5.75 25.5 -6.55 25.75 -5.7 25.45" fill="#510000" fill-rule="evenodd" stroke="none"/>
    <path d="M-19.35 17.65 L-19.3 17.65 -19.35 17.65" fill="#ff0000" fill-rule="evenodd" stroke="none"/>
    <path d="M0.25 16.9 L0.2 17.0 Q0.2 18.15 -0.3 19.15 L-0.45 19.7 Q-0.5 20.4 -0.7 20.5 L-2.05 21.7 -2.8 22.7 -3.1 23.1 -3.35 23.2 -3.3 23.25 -3.35 23.25 -3.85 23.3 -7.95 23.05 -11.85 23.15 Q-16.85 23.3 -17.65 23.9 -18.75 21.8 -19.15 19.7 L-19.35 17.7 -19.35 17.65 -19.15 18.45 -19.2 18.1 -19.25 17.65 -19.3 16.7 -19.25 15.65 -18.9 13.45 Q-17.0 12.4 -14.3 12.4 -9.35 12.4 0.25 16.9" fill="#cc0000" fill-rule="evenodd" stroke="none"/>
    <path d="M-0.35 15.1 Q0.75 15.5 0.45 16.45 L0.25 16.9 Q-9.35 12.4 -14.3 12.4 -17.0 12.4 -18.9 13.45 L-19.25 15.65 -19.3 15.65 -18.9 13.1 -18.85 12.8 -18.6 12.05 -18.45 11.7 -16.3 8.55 -15.55 7.7 -15.1 7.75 -15.1 7.7 Q-13.3 8.25 -9.15 10.75 -4.65 13.4 -0.35 15.1 M-15.7 7.55 L-15.35 7.65 -15.1 7.7 -15.7 7.55" fill="#990000" fill-rule="evenodd" stroke="none"/>
  </g>
</svg>
