<?xml version="1.0" encoding="UTF-8" standalone="no"?>
<svg xmlns:ffdec="https://www.free-decompiler.com/flash" xmlns:xlink="http://www.w3.org/1999/xlink" ffdec:objectType="shape" height="26.7px" width="30.8px" xmlns="http://www.w3.org/2000/svg">
  <g transform="matrix(1.0, 0.0, 0.0, 1.0, 16.55, 17.5)">
    <path d="M4.1 -5.75 Q4.7 -8.5 6.0 -11.0 L5.95 -11.0 Q6.6 -12.2 7.9 -12.5 10.0 -13.05 11.8 -11.7 12.75 -11.0 13.05 -10.05 13.35 -9.1 13.25 -8.2 L11.45 -7.2 Q11.05 -7.15 8.4 -7.9 L5.1 -7.8 4.45 -6.75 4.95 -6.25 4.5 -5.75 4.1 -5.75 M7.3 2.3 L7.2 2.6 7.0 2.95 Q6.9 3.1 6.95 3.35 L6.85 3.4 6.75 3.7 6.55 3.9 Q4.3 7.45 0.15 8.15 L0.6 7.65 -1.95 3.95 Q-3.4 2.95 -3.4 0.8 -3.4 -1.3 -0.95 -1.65 L2.6 -1.4 2.75 -1.4 3.2 -1.35 Q3.8 -1.35 5.1 -0.4 6.5 0.6 6.5 1.3 L6.35 2.2 7.3 2.3 M-1.45 8.3 L-3.3 8.05 -3.4 7.75 -2.75 8.0 -1.95 8.25 -1.45 8.3 M-2.55 0.25 L-2.1 -0.35 -2.6 0.2 Q-2.6 0.7 -2.55 0.25" fill="#ffcc99" fill-rule="evenodd" stroke="none"/>
    <path d="M13.25 -8.2 Q13.35 -9.1 13.05 -10.05 12.75 -11.0 11.8 -11.7 10.0 -13.05 7.9 -12.5 6.6 -12.2 5.95 -11.0 L6.0 -11.0 Q4.7 -8.5 4.1 -5.75 L3.95 -4.9 3.95 -4.85 3.9 -4.75 3.9 -4.7 3.8 -4.5 3.55 -4.45 3.35 -4.15 Q-0.7 -5.25 -2.45 -5.0 L-2.65 -4.95 -2.85 -4.85 -3.4 -4.7 -3.55 -5.2 -3.6 -5.2 Q-4.4 -5.2 -6.55 -10.9 L-7.9 -13.85 -8.65 -15.05 Q-9.85 -16.6 -11.0 -16.6 -12.35 -16.6 -13.6 -15.15 -14.9 -13.6 -14.9 -11.5 -14.9 -9.1 -12.0 -6.4 L-7.75 -2.2 Q-8.0 -1.95 -8.25 -1.95 -12.0 -4.55 -13.85 -6.75 L-15.35 -5.7 -15.75 -5.05 -15.85 -4.45 Q-15.85 -3.4 -14.3 -2.05 L-14.3 -2.0 Q-12.45 -0.4 -8.4 1.7 L-8.95 2.3 Q-9.9 2.3 -13.15 -0.3 L-14.25 -1.25 -13.95 -0.05 -13.9 0.1 Q-13.1 2.0 -10.55 3.75 L-7.55 5.9 -7.35 6.1 -6.95 6.45 -6.8 6.35 -6.65 6.45 Q-5.75 7.15 -4.55 7.65 L-3.3 8.05 -1.45 8.3 -0.8 8.3 -0.5 8.25 -0.3 8.25 0.15 8.15 Q4.3 7.45 6.55 3.9 L6.75 3.7 6.85 3.4 6.95 3.35 Q6.9 3.1 7.0 2.95 L7.2 2.6 7.3 2.3 7.55 1.55 7.6 0.85 7.55 0.7 7.25 0.0 7.6 0.5 7.6 -0.2 7.2 -1.55 6.9 -2.1 6.95 -2.35 7.4 -2.9 10.55 -4.2 10.6 -4.2 Q11.8 -4.75 12.45 -5.95 L12.5 -6.05 12.55 -6.15 Q13.15 -7.15 13.25 -8.2 M13.3 -5.45 Q12.5 -4.0 11.0 -3.3 L10.95 -3.3 Q9.4 -2.55 7.8 -2.15 L7.55 -2.05 7.95 -1.3 7.9 -1.3 8.2 -0.7 8.2 2.45 6.2 6.3 Q4.9 8.2 1.15 8.85 L-4.35 9.05 -6.55 8.25 Q-6.7 8.1 -6.8 8.05 L-7.1 8.15 Q-14.9 0.8 -14.9 -1.1 L-14.8 -1.75 Q-16.55 -3.45 -16.55 -4.4 -16.55 -7.15 -14.25 -7.15 L-14.15 -7.15 Q-15.8 -9.25 -15.65 -11.05 -15.25 -17.5 -10.45 -17.5 -8.55 -17.5 -7.35 -15.05 L-3.4 -5.7 -1.9 -6.15 -1.85 -6.05 Q0.4 -6.25 2.55 -5.4 L2.95 -5.2 Q3.55 -8.5 5.05 -11.45 L5.1 -11.5 Q5.95 -13.05 7.65 -13.45 L7.7 -13.45 Q10.25 -14.15 12.4 -12.55 13.65 -11.55 14.05 -10.3 14.7 -7.8 13.3 -5.5 L13.3 -5.45" fill="#663300" fill-rule="evenodd" stroke="none"/>
    <path d="M4.5 -5.75 L4.95 -6.25 4.45 -6.75 5.1 -7.8 8.4 -7.9 Q11.05 -7.15 11.45 -7.2 L13.25 -8.2 Q13.15 -7.15 12.55 -6.15 L11.95 -5.95 9.45 -5.7 9.3 -5.75 7.4 -2.9 6.95 -2.35 6.3 -1.55 6.15 -1.4 6.5 -0.95 6.5 -0.85 6.55 -0.85 6.65 -0.75 6.7 -0.7 6.9 -0.4 7.25 0.0 7.55 0.7 7.6 0.85 7.55 1.55 7.3 2.3 6.35 2.2 6.5 1.3 Q6.5 0.6 5.1 -0.4 3.8 -1.35 3.2 -1.35 L2.75 -1.4 2.6 -1.4 -0.95 -1.65 Q-3.4 -1.3 -3.4 0.8 -3.4 2.95 -1.95 3.95 L0.6 7.65 0.15 8.15 -0.3 8.25 -0.5 8.25 -0.8 8.3 -1.45 8.3 -1.95 8.25 -2.75 8.0 -3.4 7.75 Q-3.75 6.4 -4.6 5.3 -4.85 5.95 -6.05 6.3 -7.2 6.3 -7.2 5.05 L-7.0 4.25 Q-7.6 4.1 -7.85 3.45 L-8.05 2.15 Q-8.05 1.1 -7.45 0.8 -8.75 0.35 -8.75 -0.3 -15.3 -3.7 -15.75 -5.05 L-15.35 -5.7 -13.7 -5.95 Q-13.25 -5.95 -7.95 -0.65 L-7.95 -0.35 -5.9 0.35 -5.9 0.2 -5.85 0.05 Q-7.05 0.0 -6.65 -1.25 -6.25 -2.55 -5.5 -2.55 L-5.3 -2.5 -8.2 -5.7 Q-12.65 -10.8 -12.65 -13.4 -12.65 -14.0 -11.8 -15.05 L-10.75 -16.0 Q-9.55 -16.0 -8.65 -15.05 L-7.9 -13.85 -6.45 -9.1 Q-5.2 -4.9 -2.55 -3.25 L-2.35 -3.35 0.05 -4.0 3.1 -3.15 3.7 -4.3 3.8 -4.5 3.9 -4.7 4.5 -5.75 M2.05 -2.75 L2.4 -2.5 2.55 -2.6 2.15 -2.75 2.05 -2.75 M-11.0 -11.0 L-11.45 -11.7 -11.15 -11.1 -11.0 -11.0 M-4.0 -0.5 L-3.55 -0.7 -4.05 -1.2 -3.85 -0.8 -4.0 -0.5 M-2.55 0.25 Q-2.6 0.7 -2.6 0.2 L-2.1 -0.35 -2.55 0.25 M-7.75 3.85 L-8.3 4.1 Q-12.2 2.55 -12.6 0.9 L-12.1 0.8 Q-9.8 2.65 -7.85 3.45 L-7.75 3.85" fill="#f1ba87" fill-rule="evenodd" stroke="none"/>
    <path d="M4.1 -5.75 L4.5 -5.75 3.9 -4.7 3.9 -4.75 3.95 -4.85 3.95 -4.9 4.1 -5.75 M12.55 -6.15 L12.5 -6.05 12.45 -5.95 Q11.8 -4.75 10.6 -4.2 L10.55 -4.2 7.4 -2.9 9.3 -5.75 9.45 -5.7 11.95 -5.95 12.55 -6.15 M6.95 -2.35 L6.9 -2.1 7.2 -1.55 7.6 -0.2 7.6 0.5 7.25 0.0 6.9 -0.4 6.7 -0.7 6.65 -0.75 6.55 -0.85 6.5 -0.85 6.5 -0.95 6.15 -1.4 6.3 -1.55 6.95 -2.35 M-3.3 8.05 L-4.55 7.65 Q-5.75 7.15 -6.65 6.45 L-6.8 6.35 -6.95 6.45 -7.35 6.1 -7.55 5.9 -10.55 3.75 Q-13.1 2.0 -13.9 0.1 L-13.95 -0.05 -14.25 -1.25 -13.15 -0.3 Q-9.9 2.3 -8.95 2.3 L-8.4 1.7 Q-12.45 -0.4 -14.3 -2.0 L-14.3 -2.05 Q-15.85 -3.4 -15.85 -4.45 L-15.75 -5.05 Q-15.3 -3.7 -8.75 -0.3 -8.75 0.35 -7.45 0.8 -8.05 1.1 -8.05 2.15 L-7.85 3.45 Q-7.6 4.1 -7.0 4.25 L-7.2 5.05 Q-7.2 6.3 -6.05 6.3 -4.85 5.95 -4.6 5.3 -3.75 6.4 -3.4 7.75 L-3.3 8.05 M-15.35 -5.7 L-13.85 -6.75 Q-12.0 -4.55 -8.25 -1.95 -8.0 -1.95 -7.75 -2.2 L-12.0 -6.4 Q-14.9 -9.1 -14.9 -11.5 -14.9 -13.6 -13.6 -15.15 -12.35 -16.6 -11.0 -16.6 -9.85 -16.6 -8.65 -15.05 -9.55 -16.0 -10.75 -16.0 L-11.8 -15.05 Q-12.65 -14.0 -12.65 -13.4 -12.65 -10.8 -8.2 -5.7 L-5.3 -2.5 -5.5 -2.55 Q-6.25 -2.55 -6.65 -1.25 -7.05 0.0 -5.85 0.05 L-5.9 0.2 -5.9 0.35 -7.95 -0.35 -7.95 -0.65 Q-13.25 -5.95 -13.7 -5.95 L-15.35 -5.7 M-7.9 -13.85 L-6.55 -10.9 Q-4.4 -5.2 -3.6 -5.2 L-3.55 -5.2 -3.4 -4.7 -2.85 -4.85 -2.65 -4.95 -2.45 -5.0 Q-0.7 -5.25 3.35 -4.15 L3.55 -4.45 3.8 -4.5 3.7 -4.3 3.1 -3.15 0.05 -4.0 -2.35 -3.35 -2.55 -3.25 Q-5.2 -4.9 -6.45 -9.1 L-7.9 -13.85 M2.05 -2.75 L2.15 -2.75 2.55 -2.6 2.4 -2.5 2.05 -2.75 M-4.0 -0.5 L-3.85 -0.8 -4.05 -1.2 -3.55 -0.7 -4.0 -0.5 M-11.0 -11.0 L-11.15 -11.1 -11.45 -11.7 -11.0 -11.0 M-7.75 3.85 L-7.85 3.45 Q-9.8 2.65 -12.1 0.8 L-12.6 0.9 Q-12.2 2.55 -8.3 4.1 L-7.75 3.85" fill="#db9c64" fill-rule="evenodd" stroke="none"/>
    <path d="M13.3 -5.5 L13.35 -5.5 13.3 -5.45 13.3 -5.5" fill="#333333" fill-rule="evenodd" stroke="none"/>
  </g>
</svg>
