<?xml version="1.0" encoding="UTF-8" standalone="no"?>
<svg xmlns:ffdec="https://www.free-decompiler.com/flash" xmlns:xlink="http://www.w3.org/1999/xlink" ffdec:objectType="shape" height="27.0px" width="112.0px" xmlns="http://www.w3.org/2000/svg">
  <g transform="matrix(1.0, 0.0, 0.0, 1.0, 0.0, 0.0)">
    <path d="M108.9 14.3 L108.9 12.8 Q108.9 8.65 105.95 5.7 103.05 2.8 98.9 2.8 L13.4 2.8 Q9.25 2.8 6.3 5.7 3.4 8.65 3.4 12.8 L3.4 14.3 Q3.4 18.45 6.3 21.35 9.25 24.3 13.4 24.3 L98.9 24.3 Q103.05 24.3 105.95 21.35 108.9 18.45 108.9 14.3 M112.0 27.0 L0.0 27.0 0.0 0.0 112.0 0.0 112.0 27.0" fill="#ffec00" fill-rule="evenodd" stroke="none"/>
  </g>
</svg>
