<?xml version="1.0" encoding="UTF-8" standalone="no"?>
<svg xmlns:ffdec="https://www.free-decompiler.com/flash" xmlns:xlink="http://www.w3.org/1999/xlink" ffdec:objectType="shape" height="29.4px" width="37.9px" xmlns="http://www.w3.org/2000/svg">
  <g transform="matrix(1.0, 0.0, 0.0, 1.0, 15.4, 10.75)">
    <path d="M-3.55 -8.3 L-2.0 -8.8 1.85 -9.75 Q5.9 -9.7 9.85 -8.25 12.6 -7.25 14.75 -5.35 18.05 -2.35 19.75 1.85 21.15 5.25 21.5 8.9 19.0 11.7 15.65 13.4 L13.85 14.25 Q9.45 14.1 6.05 13.1 3.25 13.0 -0.5 9.75 -4.1 6.6 -4.1 5.1 L-4.05 4.85 Q-5.0 2.65 -5.0 0.25 -5.0 -2.1 -4.25 -5.05 L-3.55 -8.3 M1.15 -7.65 Q0.85 -7.4 0.85 -6.85 -0.1 -5.85 -1.4 -5.85 -1.9 -5.85 -2.4 -6.3 -2.9 -6.3 -2.9 -5.75 -2.9 -4.95 -1.0 -4.95 0.4 -4.95 1.0 -5.6 L1.3 -6.1 1.4 -6.9 1.15 -7.65" fill="#0058b0" fill-rule="evenodd" stroke="none"/>
    <path d="M13.85 14.25 L11.9 15.05 11.2 15.35 9.35 16.0 2.7 17.45 Q-0.75 17.85 -4.1 17.4 L-4.15 17.4 -11.1 16.25 Q-12.7 15.75 -14.5 14.0 -14.7 11.0 -13.85 6.8 -13.1 2.55 -11.55 0.0 -10.0 -2.6 -8.35 -4.35 -6.9 -6.4 -4.85 -7.6 L-4.15 -8.0 -3.55 -8.3 -4.25 -5.05 Q-5.0 -2.1 -5.0 0.25 -5.0 2.65 -4.05 4.85 L-4.1 5.1 Q-4.1 6.6 -0.5 9.75 3.25 13.0 6.05 13.1 9.45 14.1 13.85 14.25 M1.15 -7.65 L1.4 -6.9 1.3 -6.1 1.0 -5.6 Q0.4 -4.95 -1.0 -4.95 -2.9 -4.95 -2.9 -5.75 -2.9 -6.3 -2.4 -6.3 -1.9 -5.85 -1.4 -5.85 -0.1 -5.85 0.85 -6.85 0.85 -7.4 1.15 -7.65 M-13.3 13.5 L-11.55 14.85 -10.55 15.5 -10.25 15.7 -10.2 15.7 -9.45 15.35 -8.55 14.7 -8.55 14.65 -8.5 13.7 -8.45 13.35 -8.5 11.8 -8.5 11.2 -8.6 10.15 -8.75 9.35 -8.75 9.25 -8.9 8.5 -8.95 8.5 -9.45 6.95 -10.1 5.75 -10.1 5.7 -10.35 5.45 -10.6 5.3 -11.75 5.45 -11.75 5.5 Q-12.6 6.05 -13.1 8.45 L-13.1 8.65 -13.5 12.6 -13.5 13.0 -13.4 13.2 -13.4 13.25 -13.4 13.35 -13.4 13.45 -13.3 13.5 M-11.7 6.45 L-11.65 6.45 -11.7 6.45 M-12.3 13.25 L-13.15 12.6 -13.05 11.45 -12.85 9.25 -12.25 9.5 -11.05 9.9 Q-10.45 10.0 -9.9 10.85 L-9.9 10.9 -9.65 11.65 -9.8 12.7 -10.05 13.35 -10.1 13.4 -10.75 13.55 -11.45 13.4 -12.15 12.65 -12.3 13.25 M-11.2 13.9 L-10.9 14.15 -10.8 14.3 -10.9 14.25 -11.25 14.0 -11.55 13.8 -11.2 13.9 M-0.25 10.3 L-0.2 10.3 -0.15 10.3 -0.25 10.15 -0.3 10.1 -0.25 10.3 M-11.35 11.85 L-11.2 12.35 -11.0 11.85 Q-11.0 11.3 -11.15 11.3 -11.35 11.3 -11.35 11.85 M-10.45 12.05 Q-10.45 11.55 -10.65 11.55 L-10.8 12.0 -10.65 12.6 Q-10.45 12.6 -10.45 12.05 M-11.85 11.5 L-11.7 12.05 Q-11.55 12.05 -11.55 11.4 -11.55 11.05 -11.7 11.05 L-11.85 11.5" fill="#004993" fill-rule="evenodd" stroke="none"/>
    <path d="M13.85 14.25 L15.65 13.4 Q19.0 11.7 21.5 8.9 21.15 5.25 19.75 1.85 18.05 -2.35 14.75 -5.35 12.6 -7.25 9.85 -8.25 5.9 -9.7 1.85 -9.75 L-2.0 -8.8 -3.55 -8.3 -4.15 -8.0 -4.85 -7.6 Q-6.9 -6.4 -8.35 -4.35 -10.0 -2.6 -11.55 0.0 -13.1 2.55 -13.85 6.8 -14.7 11.0 -14.5 14.0 -12.7 15.75 -11.1 16.25 L-4.15 17.4 -4.1 17.4 Q-0.75 17.85 2.7 17.45 L9.35 16.0 11.2 15.35 11.9 15.05 13.85 14.25 M1.7 -10.75 L1.75 -10.75 Q6.05 -10.7 10.2 -9.2 13.1 -8.15 15.4 -6.1 18.85 -2.95 20.7 1.45 L20.65 1.45 Q22.2 5.05 22.5 9.0 L22.5 9.05 22.5 9.1 22.5 9.5 22.35 9.85 22.0 10.0 21.85 10.0 Q19.35 12.65 16.1 14.3 12.95 15.8 9.65 16.95 6.3 18.05 2.8 18.45 -0.75 18.85 -4.25 18.4 -7.9 18.1 -11.35 17.2 L-11.4 17.2 -14.9 16.0 -15.2 15.7 -15.25 15.4 -15.25 15.3 Q-15.7 10.95 -14.9 6.65 -14.15 2.35 -12.6 -0.35 -11.05 -3.1 -9.15 -4.95 L-9.15 -4.9 Q-6.6 -8.55 -2.25 -9.75 L-2.3 -9.75 1.7 -10.75 M-13.4 13.35 L-13.4 13.25 -13.4 13.2 -13.5 13.0 -13.5 12.6 -13.1 8.65 -13.1 8.45 Q-12.6 6.05 -11.75 5.5 L-11.75 5.45 -10.6 5.3 -10.35 5.45 -10.1 5.7 -10.1 5.75 -9.45 6.95 -8.95 8.5 -8.9 8.5 -8.75 9.25 -8.75 9.35 -8.6 10.15 -8.5 11.2 -8.5 11.8 -8.45 13.35 -8.5 13.7 -8.55 14.65 -8.55 14.7 -9.45 15.35 -10.2 15.7 -10.25 15.7 -10.55 15.5 -11.55 14.85 -13.3 13.5 -13.4 13.35 M-9.15 9.3 L-9.2 9.15 -9.2 9.1 Q-9.5 7.85 -9.9 7.15 -10.65 5.75 -11.7 6.45 -12.3 6.85 -12.65 8.3 L-11.65 8.7 -11.0 8.9 Q-10.35 9.0 -9.8 9.85 L-9.15 9.3 M-11.7 6.45 L-11.65 6.45 -11.7 6.45 M-8.95 10.15 L-9.5 10.6 -9.35 11.3 -9.35 11.35 -9.45 13.1 -9.6 13.55 -9.85 14.25 -10.05 14.65 -9.35 14.35 -8.8 14.05 -8.8 13.85 -8.8 13.3 Q-8.75 11.6 -8.95 10.15 M-10.05 13.35 L-9.8 12.7 -9.65 11.65 -9.9 10.9 -9.9 10.85 Q-10.45 10.0 -11.05 9.9 L-12.25 9.5 -12.85 9.25 -13.05 11.45 -13.15 12.6 -12.3 13.25 -11.55 13.8 -11.25 14.0 -10.9 14.25 -10.8 14.3 -10.9 14.15 -11.2 13.9 -11.25 13.9 -10.8 13.8 -10.7 13.8 -10.4 13.75 -10.3 13.65 -10.25 13.65 -10.2 13.6 -10.05 13.4 -10.05 13.35" fill="#003333" fill-rule="evenodd" stroke="none"/>
    <path d="M-9.15 9.3 L-9.8 9.85 Q-10.35 9.0 -11.0 8.9 L-11.65 8.7 -12.65 8.3 Q-12.3 6.85 -11.7 6.45 -10.65 5.75 -9.9 7.15 -9.5 7.85 -9.2 9.1 L-9.2 9.15 -9.15 9.3" fill="#663300" fill-rule="evenodd" stroke="none"/>
    <path d="M-8.95 10.15 Q-8.75 11.6 -8.8 13.3 L-8.8 13.85 -8.8 14.05 -9.35 14.35 -10.05 14.65 -9.85 14.25 -9.6 13.55 -9.45 13.1 -9.35 11.35 -9.35 11.3 -9.5 10.6 -8.95 10.15 M-10.05 13.4 L-10.2 13.6 -10.25 13.65 -10.3 13.65 -10.4 13.75 -10.7 13.8 -10.8 13.8 -11.25 13.9 -11.2 13.9 -11.55 13.8 -12.3 13.25 -12.15 12.65 -11.45 13.4 -10.75 13.55 -10.1 13.4 -10.05 13.4 M-0.25 10.3 L-0.3 10.1 -0.25 10.15 -0.15 10.3 -0.2 10.3 -0.25 10.3 M-11.85 11.5 L-11.7 11.05 Q-11.55 11.05 -11.55 11.4 -11.55 12.05 -11.7 12.05 L-11.85 11.5 M-10.45 12.05 Q-10.45 12.6 -10.65 12.6 L-10.8 12.0 -10.65 11.55 Q-10.45 11.55 -10.45 12.05 M-11.35 11.85 Q-11.35 11.3 -11.15 11.3 -11.0 11.3 -11.0 11.85 L-11.2 12.35 -11.35 11.85" fill="#00366c" fill-rule="evenodd" stroke="none"/>
    <path d="M0.75 -6.35 Q-0.25 -5.45 -1.6 -5.45 -3.15 -5.45 -3.15 -6.3 -3.15 -9.05 -1.1 -9.05 1.55 -9.05 1.55 -7.6 1.55 -7.1 0.75 -6.35 M-1.6 -6.3 Q0.45 -6.3 0.65 -7.55 L-0.85 -8.45 Q-3.0 -8.05 -2.5 -6.45 L-1.6 -6.3" fill="#640000" fill-rule="evenodd" stroke="none"/>
    <path d="M-1.6 -6.3 L-2.5 -6.45 Q-3.0 -8.05 -0.85 -8.45 L0.65 -7.55 Q0.45 -6.3 -1.6 -6.3" fill="#990000" fill-rule="evenodd" stroke="none"/>
  </g>
</svg>
