<?xml version="1.0" encoding="UTF-8" standalone="no"?>
<svg xmlns:ffdec="https://www.free-decompiler.com/flash" xmlns:xlink="http://www.w3.org/1999/xlink" ffdec:objectType="shape" height="87.5px" width="37.45px" xmlns="http://www.w3.org/2000/svg">
  <g transform="matrix(1.0, 0.0, 0.0, 1.0, 28.6, 42.75)">
    <path d="M-1.7 -27.55 L-1.65 -27.55 -1.9 -27.0 -1.7 -27.55 M2.15 -30.55 L2.1 -30.55 2.15 -30.6 2.15 -30.55 M-1.65 -26.65 L-1.6 -26.6 -1.7 -26.6 -1.65 -26.65 M1.9 23.85 L5.5 21.35 5.55 21.35 5.5 21.05 5.55 21.2 6.5 21.1 6.5 21.0 6.9 25.35 6.85 25.35 7.0 27.75 6.9 28.1 6.6 28.25 5.95 26.25 2.5 29.25 2.15 29.15 2.1 29.45 2.1 29.6 2.05 29.65 1.75 29.9 2.05 29.7 Q1.75 31.05 0.25 31.65 L0.2 31.65 Q-3.9 32.95 -8.2 32.35 L-9.05 32.25 -9.35 32.1 -9.4 32.05 -9.5 31.85 -9.5 31.8 -9.55 31.45 -9.95 31.55 -10.15 31.55 -14.0 30.75 -14.1 31.3 -14.25 32.1 -14.45 32.45 -14.85 32.5 -14.9 32.5 -14.9 29.55 -15.15 26.6 -15.25 25.8 -15.15 25.45 -14.8 25.25 -14.45 25.35 -14.25 25.7 -14.2 26.15 -10.45 26.8 -10.2 26.8 -10.25 26.5 -10.1 26.2 -9.8 26.0 -8.5 25.85 -4.75 25.0 -3.05 24.4 -1.25 23.85 0.25 23.4 Q0.55 23.25 0.7 23.25 L1.0 23.35 1.2 23.55 1.45 24.05 1.45 24.15 1.5 24.1 1.9 23.85 M5.75 24.0 L5.65 22.45 2.05 24.9 1.75 25.0 2.1 26.55 2.2 28.35 5.6 25.15 5.85 24.95 5.85 24.9 5.75 24.0 M-7.0 31.5 Q-3.5 31.75 -0.1 30.7 L-0.05 30.65 0.05 30.65 0.1 30.6 0.2 30.6 0.25 30.55 0.65 30.25 1.05 29.55 1.1 29.3 Q1.45 26.85 0.55 24.55 0.7 23.9 -8.25 26.75 L-8.7 26.9 -9.2 26.95 -9.2 27.15 -9.2 27.2 -8.75 30.1 -8.65 30.7 -8.65 30.8 -8.55 31.3 -8.4 31.35 -8.1 31.35 -8.05 31.35 -7.75 31.4 -7.0 31.5 M0.05 27.35 L0.0 28.95 -2.15 30.45 -2.2 30.45 -6.75 30.75 -7.05 30.65 -7.25 29.75 -7.4 27.8 -7.55 27.0 -7.5 27.0 Q-4.05 26.8 -0.7 25.3 L-0.3 25.3 -0.05 25.55 0.0 25.95 -0.05 26.05 0.05 27.35 M-7.85 -34.1 L-10.05 -35.85 -10.2 -36.1 -9.65 -35.85 -9.75 -35.65 Q-6.2 -33.7 -5.2 -32.0 L-5.0 -31.8 -7.85 -34.1 M-6.8 -34.55 L-6.75 -34.6 -6.85 -34.65 -7.4 -35.05 -7.45 -35.1 -6.7 -34.7 -6.75 -34.6 -6.8 -34.55 M-4.85 -27.75 L-5.0 -31.35 -4.9 -30.8 -4.8 -27.75 -4.85 -27.75 M-27.05 17.55 L-25.95 18.05 -27.05 17.6 -27.05 17.55 M-19.85 24.65 L-17.5 25.5 -17.5 25.25 -17.35 24.9 -17.0 24.75 Q-16.8 24.75 -16.65 24.9 L-16.5 25.25 -16.65 30.6 -16.65 30.85 -16.7 33.0 -17.1 32.9 -17.25 32.55 -17.3 30.9 -17.3 30.35 -19.85 29.35 -20.25 29.2 -23.1 28.1 -23.3 30.0 -23.45 30.0 -23.8 29.9 -24.0 29.55 -24.2 27.35 -24.2 27.3 -24.5 22.5 -24.35 22.15 -24.0 22.0 Q-23.8 22.0 -23.65 22.15 L-23.5 22.5 -23.45 23.4 -19.85 24.65 M-22.9 24.65 L-23.35 24.5 -23.3 25.6 -23.25 26.2 -23.25 26.6 -23.2 26.95 -23.05 27.05 -17.35 29.25 -17.35 29.2 -18.1 28.9 -18.15 28.85 -17.35 29.1 -17.35 28.65 -17.45 26.5 -17.65 26.5 -20.25 25.6 -20.25 25.55 -22.9 24.65 M-0.75 26.45 L-0.75 26.4 Q-3.7 27.65 -6.7 27.95 L-6.55 28.4 -6.35 29.35 -6.3 29.65 -6.3 29.75 -1.8 29.2 -0.45 28.75 -0.4 28.45 -0.5 27.95 -0.5 27.85 -0.75 26.45 M-13.95 29.0 L-13.9 29.75 -10.1 30.55 -9.7 30.4 -9.9 29.3 -10.1 27.8 -10.45 27.8 -10.55 27.8 -14.1 27.2 -13.95 29.0" fill="#000000" fill-rule="evenodd" stroke="none"/>
    <path d="M1.05 -32.85 L2.8 -32.95 2.9 -32.95 3.55 -30.35 Q3.95 -28.65 3.5 -26.95 L3.5 -27.0 3.45 -26.9 2.65 -29.15 Q2.6 -32.05 1.05 -32.85 M-1.4 -24.3 Q-0.15 -24.35 0.15 -24.75 L-0.5 -17.05 -0.5 -17.1 -0.55 -16.8 -0.5 -16.8 -0.65 -15.2 Q-1.0 -10.55 -0.5 -5.9 0.0 -1.55 1.4 2.7 2.55 6.35 4.15 10.2 5.75 14.15 6.65 18.35 L6.8 19.1 6.85 19.2 6.75 19.2 4.8 20.05 4.75 20.05 0.25 21.95 -1.7 22.6 -6.35 22.8 Q-11.9 22.8 -17.45 20.45 -22.55 18.3 -22.55 16.7 -22.55 15.45 -19.25 13.85 -13.7 12.7 -13.3 12.05 -13.7 11.65 -14.8 11.6 L-15.45 11.55 -16.55 11.7 -17.8 11.9 -18.0 11.8 -18.25 9.15 Q-18.25 4.95 -16.5 -8.4 -16.3 -9.85 -13.65 -17.2 L-12.05 -21.6 -10.1 -25.35 -8.55 -24.35 -8.45 -24.25 -8.15 -24.0 -8.1 -24.0 -7.65 -25.0 Q-7.0 -23.5 -6.75 -23.5 L-5.05 -24.8 -5.25 -25.0 -5.05 -24.8 -4.8 -24.75 -4.75 -23.1 -4.65 -22.85 -4.75 -22.6 -4.7 -17.7 -4.65 -17.45 -4.55 -17.35 -4.2 -17.2 -4.15 -17.2 -4.05 -17.1 -3.7 -17.0 -1.95 -17.2 Q-1.8 -17.2 -1.7 -17.3 L-1.45 -17.25 -1.1 -17.4 -1.0 -17.75 -1.0 -18.15 -1.4 -24.3 M-7.8 -26.5 L-9.25 -28.15 Q-9.6 -28.65 -9.6 -30.3 -9.6 -32.3 -7.85 -34.1 L-5.0 -31.8 -5.0 -31.35 -4.85 -27.75 -4.85 -27.55 -5.5 -30.1 -5.65 -30.35 -5.95 -30.5 -6.25 -30.4 -6.45 -30.15 -7.8 -26.5" fill="#cc0000" fill-rule="evenodd" stroke="none"/>
    <path d="M1.45 24.05 L1.9 23.85 1.5 24.1 1.45 24.15 1.45 24.05 M-15.3 23.9 Q-13.2 25.5 -8.5 25.85 L-9.8 26.0 -10.1 26.2 -10.25 26.5 -10.2 26.8 -10.45 26.8 -14.2 26.15 -14.25 25.7 -14.45 25.35 -14.8 25.25 -15.15 25.45 -15.25 25.8 -15.15 26.6 -14.9 29.55 -14.9 32.5 -14.85 32.5 -14.45 32.45 -14.25 32.1 -14.1 31.3 -12.65 31.8 -10.35 32.25 -10.0 31.95 -9.4 32.05 -9.35 32.1 -9.05 32.25 -8.2 32.35 Q-3.9 32.95 0.2 31.65 L0.25 31.65 Q1.75 31.05 2.05 29.7 L2.1 29.6 2.1 29.45 2.15 29.15 2.5 29.25 5.95 26.25 6.6 28.25 6.9 28.1 7.0 27.75 6.85 25.35 6.9 25.35 6.5 21.0 6.35 20.65 6.2 20.55 7.05 20.15 7.15 20.85 7.8 25.5 Q8.2 29.5 6.3 33.1 4.2 37.0 0.9 39.95 L-1.55 41.7 Q-5.5 41.5 -9.75 39.95 -14.4 38.3 -16.65 36.1 -18.95 33.75 -19.35 32.0 L-19.65 30.3 -17.8 30.85 -17.3 30.9 -17.25 32.55 -17.1 32.9 -16.7 33.0 -16.65 30.85 -16.6 30.6 -16.65 30.6 -16.5 25.25 -16.65 24.9 Q-16.8 24.75 -17.0 24.75 L-17.35 24.9 -17.5 25.25 -17.5 25.5 -19.85 24.65 -19.45 24.8 Q-18.95 23.6 -18.0 23.05 L-15.3 23.9 M-20.25 29.2 L-19.85 29.35 -19.75 29.4 -20.25 29.2 M-5.25 24.8 L-6.15 24.85 -5.5 24.75 -4.95 24.75 -5.25 24.8" fill="#2c57b1" fill-rule="evenodd" stroke="none"/>
    <path d="M2.1 26.55 L1.75 25.0 2.05 24.9 5.65 22.45 5.75 24.0 Q2.95 25.55 2.1 26.55 M5.85 24.9 L5.85 24.95 5.6 25.15 5.85 24.9 M-23.35 24.5 L-22.9 24.65 -22.55 25.7 -23.35 24.5 M-20.25 25.6 L-17.65 26.5 -17.45 26.5 -17.35 28.65 Q-20.05 27.45 -20.25 26.65 L-20.25 25.6 M-23.05 27.05 L-23.2 26.95 -23.25 26.6 -23.05 27.05 M-23.25 26.2 L-23.3 25.6 -22.8 26.3 -22.9 26.3 -23.25 26.2 M-0.75 26.4 L-0.75 26.45 -0.5 27.85 Q-2.95 28.15 -6.4 29.0 L-6.35 29.35 -6.55 28.4 -6.7 27.95 Q-3.7 27.65 -0.75 26.4 M-0.45 28.75 L-1.8 29.2 -6.3 29.75 -6.3 29.65 -5.8 29.65 -1.3 28.9 -0.45 28.75 M-13.95 29.0 L-14.1 27.2 -10.55 27.8 -10.45 27.8 -10.1 27.8 -9.9 29.3 -13.55 28.95 -13.95 29.0" fill="#660000" fill-rule="evenodd" stroke="none"/>
    <path d="M-6.45 -35.35 L-5.6 -36.95 -5.55 -36.95 -2.95 -41.65 2.1 -40.65 -0.2 -33.95 -0.25 -33.7 -0.3 -33.6 -0.45 -33.25 -0.4 -33.15 -0.55 -33.0 -1.65 -30.2 -3.25 -26.55 -3.35 -26.35 -3.4 -26.2 -3.45 -26.1 -3.5 -26.0 -3.55 -25.9 -3.65 -25.9 -3.65 -25.95 -3.8 -26.0 -4.0 -31.75 -4.15 -32.1 -4.2 -32.15 -4.2 -32.25 -4.4 -32.6 -6.8 -34.55 -6.75 -34.6 -6.7 -34.7 -6.35 -35.3 -6.7 -34.75 -6.4 -35.3 -6.35 -35.3 -5.65 -36.65 -5.6 -36.85 -6.45 -35.35 -6.75 -34.85 -6.45 -35.35" fill="#db9c64" fill-rule="evenodd" stroke="none"/>
    <path d="M-5.85 -38.4 L-5.75 -38.1 Q-5.75 -37.75 -6.9 -36.15 L-7.0 -36.2 -6.65 -36.85 -11.6 -36.75 -11.6 -36.7 -13.4 -32.2 -13.5 -31.45 Q-13.25 -30.15 -12.55 -29.2 L-12.25 -28.8 -12.15 -28.55 -12.1 -28.55 -11.85 -28.25 -11.6 -28.15 -8.2 -25.35 -7.8 -26.5 -6.45 -30.15 -6.25 -30.4 -5.95 -30.5 -5.65 -30.35 -5.5 -30.1 -4.85 -27.55 -4.85 -27.75 -4.8 -27.75 -4.9 -30.8 -5.0 -31.35 -5.0 -31.8 -5.2 -32.0 Q-6.2 -33.7 -9.75 -35.65 L-9.65 -35.85 -9.45 -35.75 -7.6 -35.15 -7.25 -35.8 -6.45 -35.35 -6.4 -35.3 -6.7 -34.75 -6.35 -35.3 -6.7 -34.7 -7.45 -35.1 -7.4 -35.05 -6.85 -34.65 -6.75 -34.6 -6.8 -34.55 -4.4 -32.6 -4.2 -32.25 -4.2 -32.15 -4.15 -32.1 -4.0 -31.75 -3.8 -26.0 -3.65 -25.95 -3.65 -25.9 -3.5 -25.45 -3.55 -25.9 -3.5 -26.0 Q-2.8 -26.3 -2.55 -26.7 L-2.25 -27.8 Q-2.1 -28.5 -1.6 -28.75 L-1.35 -28.5 -1.7 -27.55 -1.9 -27.0 Q-2.4 -26.05 -2.7 -26.05 L-2.75 -26.05 -2.8 -25.85 -2.75 -25.9 -2.35 -25.95 -2.35 -26.05 -2.1 -26.35 -1.7 -26.6 -1.6 -26.6 -1.65 -26.65 0.2 -27.95 1.4 -28.65 0.7 -28.3 1.75 -28.95 1.95 -29.0 2.15 -28.95 2.0 -30.15 2.1 -30.55 2.15 -30.55 2.65 -29.15 3.45 -26.9 3.5 -27.0 3.5 -26.95 Q3.95 -28.65 3.55 -30.35 L2.9 -32.95 2.8 -32.95 1.05 -32.85 0.4 -32.8 0.4 -32.6 0.4 -32.55 0.3 -32.4 -0.05 -31.55 0.25 -32.7 0.25 -32.85 0.6 -33.85 1.0 -34.35 0.8 -33.85 2.75 -33.95 2.05 -33.95 Q1.25 -33.95 2.3 -34.0 L3.55 -33.9 3.75 -33.6 4.5 -30.6 Q4.95 -28.65 4.45 -26.7 L3.9 -24.75 3.9 -24.7 3.75 -24.25 3.55 -23.95 3.55 -23.9 2.3 -28.05 2.25 -28.05 1.4 -27.5 1.4 -27.25 1.15 -24.95 0.35 -15.15 Q0.0 -10.55 0.5 -6.0 1.0 -1.75 2.35 2.4 3.55 6.05 5.1 9.8 6.75 13.85 7.7 18.25 L7.85 19.05 Q7.5 19.35 7.0 19.35 L6.8 19.1 6.65 18.35 Q5.75 14.15 4.15 10.2 2.55 6.35 1.4 2.7 0.0 -1.55 -0.5 -5.9 -1.0 -10.55 -0.65 -15.2 L-0.5 -16.8 -0.5 -16.95 -0.5 -17.05 0.15 -24.75 0.15 -25.05 0.35 -26.85 -1.4 -25.65 -1.5 -25.75 Q-2.3 -25.75 -2.5 -24.9 L-3.55 -24.2 -3.75 -24.15 -3.75 -23.1 -3.8 -22.85 -3.75 -22.6 -3.7 -18.0 -4.65 -17.45 -4.7 -17.7 -4.75 -22.6 -4.65 -22.85 -4.75 -23.1 -4.8 -24.75 -5.05 -24.8 -5.25 -25.0 -5.25 -25.1 -6.05 -28.3 -7.45 -25.45 -7.5 -25.3 -7.65 -25.0 -8.1 -24.0 -8.15 -24.0 -8.45 -24.25 -8.55 -24.35 -10.1 -25.35 -12.1 -26.6 Q-14.05 -23.6 -15.4 -19.9 L-18.2 -12.2 -20.95 -3.8 -23.2 4.4 -25.25 12.45 -22.65 12.35 Q-25.35 13.55 -25.35 13.65 L-25.45 13.85 -26.85 15.5 Q-28.35 17.0 -27.05 17.55 L-27.05 17.6 -25.95 18.05 -25.8 18.2 -25.8 18.35 -24.9 18.85 -24.45 19.1 -27.1 18.85 -27.05 18.7 -27.25 18.55 -28.5 16.9 -28.6 16.65 -28.55 16.35 -27.85 15.25 -27.85 15.2 -26.5 13.6 -26.35 13.5 -26.35 13.45 -24.15 4.15 -21.9 -4.1 -19.15 -12.55 -16.35 -20.25 Q-14.9 -24.2 -12.9 -28.05 L-13.05 -28.2 -13.35 -28.6 Q-14.25 -29.75 -14.5 -31.3 L-14.45 -31.6 -14.5 -31.7 -14.5 -32.05 -12.55 -37.05 -12.25 -37.4 -12.0 -37.6 -11.95 -37.7 -11.75 -37.75 -6.1 -37.9 -6.05 -38.05 -5.85 -38.4 M-6.45 -35.35 L-6.75 -34.85 -6.45 -35.35 M-2.3 -22.7 Q-2.0 -20.7 -2.0 -19.05 L-2.05 -18.9 -2.3 -22.7 M-1.0 -18.15 L-1.0 -17.75 -1.1 -17.4 -1.0 -18.15" fill="#3e0000" fill-rule="evenodd" stroke="none"/>
    <path d="M7.85 19.05 L7.9 19.35 7.9 19.65 8.0 19.85 8.05 20.0 8.8 25.4 Q9.2 29.7 7.2 33.55 5.0 37.6 1.55 40.7 -2.1 43.75 -6.5 44.6 L-6.75 44.6 -7.05 44.7 Q-12.0 45.15 -16.3 42.8 -20.75 40.35 -23.45 36.25 -26.1 32.3 -26.85 27.7 -27.6 23.25 -27.1 18.85 L-24.45 19.1 -24.9 18.85 Q-21.55 20.7 -17.85 22.05 -13.6 23.65 -9.25 23.65 L-4.95 23.35 -3.75 23.1 -2.45 22.8 -1.7 22.6 -1.65 22.6 -1.7 22.6 0.25 21.95 4.75 20.05 4.8 20.05 6.75 19.2 6.85 19.2 6.8 19.1 7.0 19.35 Q7.5 19.35 7.85 19.05 M5.5 21.05 L5.55 20.8 5.15 21.0 5.15 20.95 4.6 21.2 0.6 22.9 Q-4.2 24.7 -9.25 24.65 L-9.55 24.65 -9.85 24.65 -10.05 24.65 -15.3 23.9 -18.0 23.05 -18.2 23.0 -18.55 22.85 Q-22.5 21.4 -26.1 19.3 -26.55 23.4 -25.85 27.55 -25.1 31.9 -22.6 35.7 -20.05 39.55 -15.8 41.9 L-15.8 41.95 Q-11.8 44.15 -7.15 43.7 L-6.9 43.75 -6.7 43.6 Q-4.5 43.2 -2.5 42.2 L-1.55 41.7 0.9 39.95 Q4.2 37.0 6.3 33.1 8.2 29.5 7.8 25.5 L7.15 20.85 7.05 20.15 6.2 20.55 6.35 20.65 6.5 21.0 6.5 21.1 5.55 21.2 5.5 21.05" fill="#162c58" fill-rule="evenodd" stroke="none"/>
    <path d="M-7.0 31.5 L-7.75 31.4 -7.3 31.25 -7.0 31.5 M-8.4 31.35 L-8.55 31.3 -8.65 30.8 -8.65 30.7 -8.75 30.1 -8.4 31.35 M-8.25 26.75 Q0.7 23.9 0.55 24.55 1.45 26.85 1.1 29.3 L1.05 29.55 Q0.5 29.8 -0.3 30.2 -2.1 31.2 -4.4 31.2 -7.35 31.2 -7.85 30.35 L-8.05 28.7 -8.2 27.15 -8.25 26.75 M0.05 27.35 L-0.05 26.05 0.0 25.95 -0.05 25.55 -0.3 25.3 -0.7 25.3 Q-4.05 26.8 -7.5 27.0 L-7.55 27.0 -7.4 27.8 -7.25 29.75 -7.05 30.65 -6.75 30.75 -2.2 30.45 -2.15 30.45 0.0 28.95 0.05 27.35" fill="#cc9900" fill-rule="evenodd" stroke="none"/>
    <path d="M-7.0 -36.2 L-7.25 -35.8 -7.6 -35.15 -9.45 -35.75 -9.65 -35.85 -10.2 -36.1 -10.05 -35.85 -7.85 -34.1 Q-9.6 -32.3 -9.6 -30.3 -9.6 -28.65 -9.25 -28.15 L-7.8 -26.5 -8.2 -25.35 -11.6 -28.15 -11.85 -28.25 -12.1 -28.55 -12.15 -28.55 -12.25 -28.8 -12.55 -29.2 Q-13.25 -30.15 -13.5 -31.45 L-13.4 -32.2 -11.6 -36.7 -11.6 -36.75 -6.65 -36.85 -7.0 -36.2 M-1.65 -27.55 L-0.7 -29.85 -0.05 -31.55 0.3 -32.4 0.4 -32.55 0.4 -32.6 0.4 -32.8 1.05 -32.85 Q2.6 -32.05 2.65 -29.15 L2.15 -30.55 2.15 -30.6 2.1 -30.55 2.0 -30.15 2.15 -28.95 1.95 -29.0 1.75 -28.95 0.7 -28.3 1.4 -28.65 0.2 -27.95 -1.65 -26.65 -1.7 -26.6 -2.1 -26.35 -2.35 -26.05 -2.35 -25.95 -2.75 -25.9 -2.8 -25.85 -2.75 -26.05 -2.7 -26.05 Q-2.4 -26.05 -1.9 -27.0 L-1.65 -27.55 M-1.4 -25.65 L0.35 -26.85 0.15 -25.05 0.15 -24.75 Q-0.15 -24.35 -1.4 -24.3 L-1.5 -25.5 -1.5 -25.6 -1.4 -25.65 M-7.65 -25.0 L-7.5 -25.3 -7.45 -25.45 -6.05 -28.3 -5.25 -25.1 -5.25 -25.0 -5.05 -24.8 -6.75 -23.5 Q-7.0 -23.5 -7.65 -25.0 M-3.7 -18.0 L-3.75 -22.6 -3.8 -22.85 -3.75 -23.1 -3.75 -24.15 -3.55 -24.2 -2.5 -24.9 -2.45 -24.9 -2.3 -22.7 -2.05 -18.9 -2.0 -18.2 -2.05 -18.2 -3.7 -18.0 M-27.05 17.55 Q-28.35 17.0 -26.85 15.5 L-25.45 13.85 -25.35 13.65 Q-25.35 13.55 -22.65 12.35 L-25.25 12.45 -23.2 4.4 -20.95 -3.8 -18.2 -12.2 -15.4 -19.9 Q-14.05 -23.6 -12.1 -26.6 L-10.1 -25.35 -12.05 -21.6 -13.65 -17.2 Q-16.3 -9.85 -16.5 -8.4 -18.25 4.95 -18.25 9.15 L-18.0 11.8 -17.8 11.9 -16.55 11.7 -15.45 11.55 -14.8 11.6 Q-13.7 11.65 -13.3 12.05 -13.7 12.7 -19.25 13.85 -22.55 15.45 -22.55 16.7 -22.55 18.3 -17.45 20.45 -11.9 22.8 -6.35 22.8 L-1.7 22.6 -1.65 22.6 -1.7 22.6 -2.45 22.8 -3.75 23.1 -4.95 23.35 -9.25 23.65 Q-13.6 23.65 -17.85 22.05 -21.55 20.7 -24.9 18.85 L-25.8 18.35 -25.8 18.2 -25.95 18.05 -27.05 17.55" fill="#aa0000" fill-rule="evenodd" stroke="none"/>
    <path d="M1.9 23.85 L1.45 24.05 1.2 23.55 1.0 23.35 0.7 23.25 Q0.55 23.25 0.25 23.4 L-1.25 23.85 -3.05 24.4 -4.75 25.0 -8.5 25.85 Q-13.2 25.5 -15.3 23.9 L-10.05 24.65 -9.85 24.65 -9.55 24.65 -9.25 24.65 Q-4.2 24.7 0.6 22.9 L4.6 21.2 5.15 20.95 5.15 21.0 5.55 20.8 5.5 21.05 5.55 21.35 5.5 21.35 1.9 23.85 M-9.4 32.05 L-10.0 31.95 -10.35 32.25 -12.65 31.8 -14.1 31.3 -14.0 30.75 -10.15 31.55 -9.95 31.55 -9.55 31.45 -9.5 31.8 -9.5 31.85 -9.4 32.05 M-18.0 23.05 Q-18.95 23.6 -19.45 24.8 L-19.85 24.65 -23.45 23.4 -23.5 22.5 -23.65 22.15 Q-23.8 22.0 -24.0 22.0 L-24.35 22.15 -24.5 22.5 -24.2 27.3 -24.2 27.35 -24.0 29.55 -23.8 29.9 -23.45 30.0 -23.3 30.0 -23.1 28.1 -20.25 29.2 -19.75 29.4 -19.85 29.35 -17.3 30.35 -17.3 30.9 -17.8 30.85 -19.65 30.3 -19.35 32.0 Q-18.95 33.75 -16.65 36.1 -14.4 38.3 -9.75 39.95 -5.5 41.5 -1.55 41.7 L-2.5 42.2 Q-4.5 43.2 -6.7 43.6 L-6.9 43.75 -7.15 43.7 Q-11.8 44.15 -15.8 41.95 L-15.8 41.9 Q-20.05 39.55 -22.6 35.7 -25.1 31.9 -25.85 27.55 -26.55 23.4 -26.1 19.3 -22.5 21.4 -18.55 22.85 L-18.2 23.0 -18.0 23.05 M-16.65 30.6 L-16.6 30.6 -16.65 30.85 -16.65 30.6 M-5.25 24.8 L-4.95 24.75 -5.5 24.75 -6.15 24.85 -5.25 24.8" fill="#23458b" fill-rule="evenodd" stroke="none"/>
    <path d="M5.75 24.0 L5.85 24.9 5.6 25.15 2.2 28.35 2.1 26.55 Q2.95 25.55 5.75 24.0 M-22.9 24.65 L-20.25 25.55 -20.25 25.6 -20.25 26.65 Q-20.05 27.45 -17.35 28.65 L-17.35 29.1 -18.15 28.85 -18.1 28.9 -17.35 29.2 -17.35 29.25 -23.05 27.05 -23.25 26.6 -23.25 26.2 -22.9 26.3 -22.8 26.3 -23.3 25.6 -23.35 24.5 -22.55 25.7 -22.9 24.65 M-0.5 27.85 L-0.5 27.95 -0.4 28.45 -0.45 28.75 -1.3 28.9 -5.8 29.65 -6.3 29.65 -6.35 29.35 -6.4 29.0 Q-2.95 28.15 -0.5 27.85 M-9.9 29.3 L-9.7 30.4 -10.1 30.55 -13.9 29.75 -13.95 29.0 -13.55 28.95 -9.9 29.3" fill="#530000" fill-rule="evenodd" stroke="none"/>
    <path d="M-1.4 -25.65 L-1.5 -25.6 -1.5 -25.5 -1.4 -24.3 -1.0 -18.15 -1.1 -17.4 -1.45 -17.25 -1.7 -17.3 Q-1.8 -17.2 -1.95 -17.2 L-3.7 -17.0 -4.05 -17.1 -4.15 -17.2 -4.2 -17.2 -4.55 -17.35 -4.65 -17.45 -3.7 -18.0 -2.05 -18.2 -2.0 -18.2 -2.05 -18.9 -2.0 -19.05 Q-2.0 -20.7 -2.3 -22.7 L-2.45 -24.9 -2.5 -24.9 Q-2.3 -25.75 -1.5 -25.75 L-1.4 -25.65 M-0.5 -17.05 L-0.5 -16.95 -0.5 -16.8 -0.55 -16.8 -0.5 -17.1 -0.5 -17.05" fill="#800000" fill-rule="evenodd" stroke="none"/>
    <path d="M1.05 29.55 L0.65 30.25 0.25 30.55 0.2 30.6 0.1 30.6 0.05 30.65 -0.05 30.65 -0.1 30.7 Q-3.5 31.75 -7.0 31.5 L-7.3 31.25 -7.75 31.4 -8.05 31.35 -8.1 31.35 -8.4 31.35 -8.75 30.1 -9.2 27.2 -9.2 27.15 -9.2 26.95 -8.7 26.9 -8.25 26.75 -8.2 27.15 -8.05 28.7 -7.85 30.35 Q-7.35 31.2 -4.4 31.2 -2.1 31.2 -0.3 30.2 0.5 29.8 1.05 29.55" fill="#996600" fill-rule="evenodd" stroke="none"/>
    <path d="M-5.85 -38.4 L-3.7 -42.45 -3.45 -42.7 -3.15 -42.75 2.85 -41.55 2.95 -41.5 3.0 -41.5 3.3 -41.4 1.0 -34.35 0.6 -33.85 0.25 -32.85 0.25 -32.7 -0.05 -31.55 -0.7 -29.85 -1.65 -27.55 -1.7 -27.55 -1.35 -28.5 -1.6 -28.75 Q-2.1 -28.5 -2.25 -27.8 L-2.55 -26.7 Q-2.8 -26.3 -3.5 -26.0 L-3.45 -26.1 -3.4 -26.2 -3.35 -26.35 -3.25 -26.55 -1.65 -30.2 -0.55 -33.0 -0.4 -33.15 -0.45 -33.25 -0.3 -33.6 -0.25 -33.7 -0.2 -33.95 2.1 -40.65 -2.95 -41.65 -5.55 -36.95 -5.6 -36.95 -6.45 -35.35 -7.25 -35.8 -7.0 -36.2 -6.9 -36.15 Q-5.75 -37.75 -5.75 -38.1 L-5.85 -38.4 M-6.4 -35.3 L-6.45 -35.35 -5.6 -36.85 -5.65 -36.65 -6.35 -35.3 -6.4 -35.3" fill="#663300" fill-rule="evenodd" stroke="none"/>
    <path d="M-5.4 -39.05 Q-6.4 -36.45 -7.05 -35.9 L-6.4 -35.1 Q-6.4 -34.8 -6.7 -34.8 -7.4 -34.8 -7.65 -35.35 L-7.45 -35.8 -7.6 -35.95 -7.6 -36.1 -7.25 -36.05 Q-6.9 -36.05 -5.4 -39.3 L-5.4 -39.05 M-1.15 -29.05 L-1.25 -28.8 -1.15 -28.6 Q-1.15 -27.85 -2.05 -26.05 L-2.05 -26.3 -2.35 -26.05 Q-2.85 -25.65 -3.2 -25.65 -3.65 -25.65 -3.25 -26.55 -2.85 -27.5 -2.65 -26.65 -2.1 -29.35 -1.45 -29.35 L-1.15 -29.05" fill="#663300" fill-rule="evenodd" stroke="none"/>
  </g>
</svg>
