<?xml version="1.0" encoding="UTF-8" standalone="no"?>
<svg xmlns:ffdec="https://www.free-decompiler.com/flash" xmlns:xlink="http://www.w3.org/1999/xlink" ffdec:objectType="shape" height="26.1px" width="70.95px" xmlns="http://www.w3.org/2000/svg">
  <g transform="matrix(1.0, 0.0, 0.0, 1.0, 55.1, 50.35)">
    <path d="M12.2 -40.65 L12.25 -40.65 12.75 -40.4 12.25 -40.45 12.15 -40.65 12.2 -40.65 M-43.75 -47.15 L-45.85 -46.9 -44.9 -47.15 Q-39.05 -48.65 -28.55 -49.3 L-6.45 -47.5 Q-9.65 -45.75 -12.3 -45.75 L-25.5 -46.4 -42.65 -47.35 -44.85 -47.05 -43.75 -47.15" fill="#cc0000" fill-rule="evenodd" stroke="none"/>
    <path d="M12.25 -40.45 L12.75 -40.4 12.25 -40.65 12.2 -40.65 6.6 -43.65 Q3.6 -45.3 0.75 -46.1 L-4.75 -47.25 -4.8 -47.25 -6.45 -47.5 -28.55 -49.3 Q-39.05 -48.65 -44.9 -47.15 L-45.85 -46.9 -43.75 -47.15 -40.45 -47.1 -39.9 -47.05 -39.9 -47.1 -34.3 -45.65 Q-28.2 -43.85 -25.25 -41.65 -22.8 -39.9 -14.95 -36.05 L-16.55 -37.45 -15.35 -37.05 Q-11.95 -36.0 -3.15 -36.0 2.15 -36.0 8.7 -37.85 L12.65 -39.1 12.75 -39.15 Q12.65 -39.15 12.25 -40.45 M14.1 -39.7 L15.4 -40.35 15.85 -39.85 Q15.85 -38.2 8.25 -36.4 1.5 -34.8 -1.75 -34.8 L-10.2 -35.3 -15.5 -36.0 Q-17.85 -36.6 -18.7 -37.4 L-18.6 -37.45 Q-21.55 -35.8 -23.65 -33.2 -26.65 -29.55 -27.6 -24.5 L-28.1 -24.25 Q-37.9 -24.25 -47.0 -29.9 -55.1 -34.95 -55.1 -38.6 -55.1 -43.9 -49.55 -46.55 -43.4 -49.45 -28.3 -50.3 L-28.3 -50.35 Q-6.45 -49.2 1.85 -46.6 5.35 -45.5 8.4 -43.65 L14.1 -39.8 14.1 -39.7 M-47.95 -41.1 Q-46.6 -44.5 -43.75 -44.5 L-38.8 -43.9 -36.6 -43.5 -36.1 -43.55 -36.1 -43.75 Q-36.75 -43.85 -37.95 -44.85 -39.55 -45.75 -42.75 -45.75 -47.9 -45.75 -50.35 -42.75 -52.1 -40.6 -52.1 -37.85 -51.75 -33.5 -49.25 -33.5 -48.15 -33.5 -48.15 -35.1 -48.15 -35.75 -48.75 -36.9 -48.75 -39.05 -47.95 -41.1" fill="#510000" fill-rule="evenodd" stroke="none"/>
    <path d="M12.2 -40.65 L12.15 -40.65 12.65 -39.1 8.7 -37.85 Q2.15 -36.0 -3.15 -36.0 -11.95 -36.0 -15.35 -37.05 L-16.55 -37.45 -14.95 -36.05 Q-22.8 -39.9 -25.25 -41.65 -28.2 -43.85 -34.3 -45.65 L-39.9 -47.1 -39.9 -47.05 -40.45 -47.1 -43.75 -47.15 -44.85 -47.05 -42.65 -47.35 -25.5 -46.4 -12.3 -45.75 Q-9.65 -45.75 -6.45 -47.5 L-4.8 -47.25 -4.75 -47.25 0.75 -46.1 Q3.6 -45.3 6.6 -43.65 L12.2 -40.65 M-47.95 -41.1 Q-48.75 -39.05 -48.75 -36.9 -48.15 -35.75 -48.15 -35.1 -48.15 -33.5 -49.25 -33.5 -51.75 -33.5 -52.1 -37.85 -52.1 -40.6 -50.35 -42.75 -47.9 -45.75 -42.75 -45.75 -39.55 -45.75 -37.95 -44.85 -36.75 -43.85 -36.1 -43.75 L-36.1 -43.55 -36.6 -43.5 -38.8 -43.9 -43.75 -44.5 Q-46.6 -44.5 -47.95 -41.1" fill="#990000" fill-rule="evenodd" stroke="none"/>
  </g>
</svg>
