<?xml version="1.0" encoding="UTF-8" standalone="no"?>
<svg xmlns:ffdec="https://www.free-decompiler.com/flash" xmlns:xlink="http://www.w3.org/1999/xlink" ffdec:objectType="shape" height="85.75px" width="79.05px" xmlns="http://www.w3.org/2000/svg">
  <g transform="matrix(1.0, 0.0, 0.0, 1.0, 20.3, 70.65)">
    <path d="M37.95 -18.85 Q40.95 -17.85 43.6 -16.45 53.55 -11.4 53.8 -4.3 L53.8 -3.95 Q53.8 3.4 43.6 8.6 33.55 13.75 19.15 13.75 4.75 13.75 -5.45 8.6 -15.5 3.4 -15.45 -3.95 -15.5 -11.3 -5.45 -16.45 4.75 -21.6 19.15 -21.6 29.7 -21.6 37.95 -18.85" fill="#d5d5d5" fill-opacity="0.37254903" fill-rule="evenodd" stroke="none"/>
    <path d="M55.25 -32.75 Q52.7 -35.8 48.15 -38.15 L48.15 -51.45 Q56.25 -46.7 57.0 -40.25 56.85 -39.8 57.0 -39.2 L57.3 -39.05 57.35 -38.95 Q57.2 -35.65 55.25 -32.75" fill="#d8bc7c" fill-rule="evenodd" stroke="none"/>
    <path d="M55.25 -32.75 L55.3 -32.6 55.4 -32.2 55.25 -31.95 54.9 -31.85 54.6 -32.05 Q52.2 -35.2 47.55 -37.65 L47.35 -37.7 47.25 -38.0 47.25 -52.15 47.35 -52.4 47.6 -52.6 47.9 -52.5 Q57.15 -47.45 57.9 -40.35 L57.8 -40.1 57.9 -39.55 57.8 -39.2 57.65 -38.95 57.35 -38.95 57.3 -39.05 57.0 -39.2 Q56.85 -39.8 57.0 -40.25 56.25 -46.7 48.15 -51.45 L48.15 -38.15 Q52.7 -35.8 55.25 -32.75" fill="#666666" fill-rule="evenodd" stroke="none"/>
    <path d="M-17.6 -17.35 L-17.6 -48.6 -17.6 -49.5 -17.6 -50.0 Q-17.6 -57.45 -7.3 -62.5 3.6 -68.2 19.15 -68.0 34.75 -68.2 45.5 -62.5 55.2 -57.65 56.15 -51.0 56.0 -50.55 56.15 -50.0 L55.95 -17.25 Q53.2 -21.65 46.3 -25.05 35.2 -30.95 19.15 -30.8 3.1 -30.95 -8.15 -25.05 -14.9 -21.7 -17.6 -17.35 M55.95 -15.4 L55.95 -12.1 Q55.9 -11.55 56.3 -11.15 L56.75 -10.85 56.5 -10.7 Q56.0 -10.35 55.95 -9.8 55.6 -7.55 54.25 -5.35 53.35 -11.95 43.8 -16.7 33.6 -22.1 19.15 -21.95 4.7 -22.1 -5.65 -16.7 -15.2 -11.9 -15.8 -5.1 -17.7 -7.85 -17.6 -10.95 L-17.7 -11.5 -17.7 -11.65 -17.6 -12.1 -17.6 -15.45 Q-15.35 -20.55 -7.75 -24.3 3.3 -30.1 19.15 -29.9 35.0 -30.1 45.95 -24.3 53.7 -20.5 55.95 -15.4" fill="#ffffff" fill-opacity="0.36862746" fill-rule="evenodd" stroke="none"/>
    <path d="M55.95 -17.25 L56.15 -50.0 Q56.0 -50.55 56.15 -51.0 55.2 -57.65 45.5 -62.5 34.75 -68.2 19.15 -68.0 3.6 -68.2 -7.3 -62.5 -17.6 -57.45 -17.6 -50.0 L-17.6 -49.5 -17.6 -48.6 -17.6 -17.35 -17.6 -15.45 -17.6 -12.1 -17.7 -11.65 -17.7 -11.5 -17.6 -10.95 Q-17.7 -7.85 -15.8 -5.1 L-15.45 -4.65 -14.95 -4.05 -14.4 -3.4 Q-11.9 -0.75 -7.3 1.65 3.6 7.15 19.15 7.15 34.75 7.15 45.5 1.65 50.05 -0.8 52.75 -3.5 L52.75 -3.4 53.45 -4.2 53.8 -4.65 54.25 -5.35 Q55.6 -7.55 55.95 -9.8 56.0 -10.35 56.5 -10.7 L56.75 -10.85 56.3 -11.15 Q55.9 -11.55 55.95 -12.1 L55.95 -15.4 55.95 -17.25 M46.75 -64.8 Q58.15 -59.1 58.75 -51.0 L58.7 -50.45 58.75 -50.0 58.6 -12.1 Q58.6 -11.55 58.25 -11.15 L57.8 -10.85 58.35 -10.4 58.6 -9.45 Q58.0 -5.35 54.7 -1.65 L54.7 -1.55 54.0 -0.95 54.25 -0.6 Q54.45 -0.1 54.25 0.4 52.2 5.75 44.25 9.8 33.85 15.05 19.15 15.1 4.45 15.05 -6.1 9.8 -13.9 5.75 -15.9 0.4 -16.15 -0.1 -15.9 -0.6 L-15.65 -0.95 -16.35 -1.65 Q-20.45 -5.95 -20.25 -10.95 L-20.25 -12.1 -20.25 -48.6 -20.25 -49.5 -20.25 -50.0 Q-20.6 -58.9 -8.55 -64.8 2.85 -70.85 19.15 -70.65 35.5 -70.85 46.75 -64.8 M43.0 7.5 Q48.1 4.95 50.45 1.8 L46.75 3.95 Q35.5 9.75 19.15 9.8 2.85 9.75 -8.55 3.95 L-12.0 1.9 Q-9.75 5.0 -4.85 7.5 5.15 12.45 19.15 12.45 33.15 12.45 43.0 7.5" fill="#666666" fill-rule="evenodd" stroke="none"/>
    <path d="M55.95 -17.25 L55.95 -15.4 Q53.7 -20.5 45.95 -24.3 35.0 -30.1 19.15 -29.9 3.3 -30.1 -7.75 -24.3 -15.35 -20.55 -17.6 -15.45 L-17.6 -17.35 Q-14.9 -21.7 -8.15 -25.05 3.1 -30.95 19.15 -30.8 35.2 -30.95 46.3 -25.05 53.2 -21.65 55.95 -17.25 M54.25 -5.35 L53.8 -4.65 53.45 -4.2 Q53.2 -11.1 43.45 -16.0 33.4 -21.25 19.15 -21.05 4.9 -21.25 -5.3 -16.0 -15.05 -11.0 -14.95 -4.05 L-15.45 -4.65 -15.8 -5.1 Q-15.2 -11.9 -5.65 -16.7 4.7 -22.1 19.15 -21.95 33.6 -22.1 43.8 -16.7 53.35 -11.95 54.25 -5.35" fill="#ffffff" fill-opacity="0.47058824" fill-rule="evenodd" stroke="none"/>
  </g>
</svg>
