<?xml version="1.0" encoding="UTF-8" standalone="no"?>
<svg xmlns:ffdec="https://www.free-decompiler.com/flash" xmlns:xlink="http://www.w3.org/1999/xlink" ffdec:objectType="shape" height="85.4px" width="79.05px" xmlns="http://www.w3.org/2000/svg">
  <g transform="matrix(1.0, 0.0, 0.0, 1.0, 20.3, 75.6)">
    <path d="M56.15 -49.75 Q56.15 -50.3 56.55 -50.65 56.95 -51.0 57.55 -51.0 58.05 -51.0 58.4 -50.55 58.75 -50.15 58.75 -49.6 58.5 -41.15 46.75 -35.05 42.9 -33.05 38.3 -31.8 29.8 -29.25 19.15 -29.2 2.85 -29.2 -8.55 -35.05 -19.4 -40.55 -20.25 -48.45 -20.35 -49.0 -20.0 -49.4 L-19.1 -49.95 Q-18.6 -50.0 -18.15 -49.65 -17.7 -49.35 -17.6 -48.8 -16.7 -42.15 -7.3 -37.35 3.6 -31.85 19.15 -31.85 29.4 -31.85 37.6 -34.25 41.85 -35.45 45.5 -37.35 55.65 -42.65 56.15 -49.75" fill="#ffffff" fill-opacity="0.70980394" fill-rule="evenodd" stroke="none"/>
    <path d="M48.95 -55.35 Q49.35 -55.2 49.85 -55.35 L50.65 -55.95 50.7 -56.95 Q50.25 -58.8 49.05 -60.45 55.4 -56.3 56.15 -51.0 56.0 -50.55 56.15 -50.0 L55.95 -10.05 55.95 -9.8 Q55.0 -3.15 45.5 1.65 34.75 7.15 19.15 7.15 3.6 7.15 -7.3 1.65 -17.6 -3.65 -17.6 -11.05 L-17.7 -11.5 -17.7 -11.65 -17.6 -12.1 -17.6 -48.6 -17.6 -49.5 -17.6 -50.0 Q-17.6 -56.15 -10.5 -60.75 -11.85 -58.95 -12.3 -56.95 -12.4 -56.4 -12.1 -55.85 -11.85 -55.4 -11.3 -55.25 L-10.5 -55.35 Q-8.65 -51.15 -2.35 -47.9 6.55 -43.4 19.15 -43.4 31.85 -43.4 40.7 -47.9 47.1 -51.15 48.95 -55.35" fill="#ffffff" fill-opacity="0.36862746" fill-rule="evenodd" stroke="none"/>
    <path d="M-10.5 -55.35 L-11.3 -55.25 Q-11.85 -55.4 -12.1 -55.85 -12.4 -56.4 -12.3 -56.95 -11.85 -58.95 -10.5 -60.75 -17.6 -56.15 -17.6 -50.0 L-17.6 -49.5 -17.6 -48.6 -17.6 -12.1 -17.7 -11.65 -17.7 -11.5 -17.6 -11.05 Q-17.6 -3.65 -7.3 1.65 3.6 7.15 19.15 7.15 34.75 7.15 45.5 1.65 55.0 -3.15 55.95 -9.8 L55.95 -10.05 56.15 -50.0 Q56.0 -50.55 56.15 -51.0 55.4 -56.3 49.05 -60.45 50.25 -58.8 50.7 -56.95 L50.65 -55.95 49.85 -55.35 Q49.35 -55.2 48.95 -55.35 L48.85 -55.4 Q48.35 -55.7 48.25 -56.2 46.85 -60.9 40.15 -64.3 37.7 -65.6 34.95 -66.4 L34.85 -66.4 34.4 -66.6 Q27.65 -68.75 19.15 -68.55 10.85 -68.75 4.3 -66.6 L3.85 -66.4 2.7 -66.15 Q0.35 -65.35 -1.65 -64.3 -8.45 -60.85 -9.6 -56.2 -9.75 -55.7 -10.25 -55.4 L-10.5 -55.35 M58.7 -50.45 L58.75 -50.0 58.6 -12.0 58.7 -11.5 58.75 -10.7 Q58.6 -10.2 58.6 -9.6 L58.6 -9.35 Q57.7 -1.55 46.75 3.95 35.5 9.75 19.15 9.8 2.85 9.75 -8.55 3.95 -20.6 -2.15 -20.25 -11.05 L-20.25 -12.1 -20.25 -48.6 -20.25 -49.5 -20.25 -50.0 Q-20.6 -58.9 -8.55 -64.8 -3.1 -67.6 3.3 -69.1 L3.5 -69.1 Q10.45 -71.4 19.15 -71.2 28.05 -71.4 35.2 -69.1 L35.4 -69.1 Q41.6 -67.6 46.75 -64.8 58.15 -59.1 58.75 -51.0 L58.7 -50.45" fill="#666666" fill-rule="evenodd" stroke="none"/>
    <path d="M19.15 -19.45 Q29.65 -19.45 38.05 -21.95 42.5 -23.25 46.3 -25.2 L50.1 -27.35 Q53.3 -29.5 55.3 -32.05 L56.95 -34.85 56.85 -23.8 Q56.05 -18.35 49.55 -13.85 L45.95 -11.75 Q42.25 -9.85 37.85 -8.65 29.55 -6.2 19.15 -6.15 L16.25 -6.15 16.25 -19.45 19.15 -19.45" fill="#e9d89e" fill-rule="evenodd" stroke="none"/>
    <path d="M15.8 -20.35 L19.15 -20.35 Q29.55 -20.35 37.85 -22.85 42.25 -24.05 45.95 -25.9 L49.55 -28.05 Q52.7 -30.15 54.6 -32.6 56.8 -35.65 57.0 -39.05 L57.2 -39.4 57.45 -39.45 57.8 -39.3 57.9 -39.05 57.7 -26.45 57.9 -25.3 57.9 -25.1 57.7 -23.9 57.7 -23.6 Q56.95 -17.85 50.1 -13.15 L46.3 -11.05 Q42.5 -9.05 38.05 -7.75 29.65 -5.3 19.15 -5.3 L15.8 -5.3 15.45 -5.35 15.35 -5.7 15.35 -19.9 15.45 -20.25 15.8 -20.35 M19.15 -19.45 L16.25 -19.45 16.25 -6.15 19.15 -6.15 Q29.55 -6.2 37.85 -8.65 42.25 -9.85 45.95 -11.75 L49.55 -13.85 Q56.05 -18.35 56.85 -23.8 L56.95 -34.85 55.3 -32.05 Q53.3 -29.5 50.1 -27.35 L46.3 -25.2 Q42.5 -23.25 38.05 -21.95 29.65 -19.45 19.15 -19.45" fill="#666666" fill-rule="evenodd" stroke="none"/>
    <path d="M41.4 -66.6 L38.4 -67.95 38.5 -67.95 Q30.25 -71.4 19.15 -71.2 6.2 -71.35 -2.9 -66.6 -6.5 -64.8 -8.75 -62.7 -6.85 -66.1 -1.65 -68.75 6.95 -73.2 19.15 -73.0 29.65 -73.15 37.4 -69.85 L37.5 -69.85 Q38.85 -69.4 40.15 -68.75 45.55 -66.0 47.45 -62.45 45.1 -64.7 41.4 -66.6" fill="#999999" fill-rule="evenodd" stroke="none"/>
    <path d="M38.4 -45.4 Q39.9 -46.0 41.4 -46.75 45.05 -48.6 47.35 -50.8 45.45 -47.4 40.15 -44.6 38.85 -43.95 37.5 -43.45 L37.4 -43.45 Q29.65 -40.2 19.15 -40.2 6.95 -40.2 -1.65 -44.6 -6.75 -47.25 -8.65 -50.45 -6.4 -48.5 -2.9 -46.75 6.2 -42.0 19.15 -41.95 30.25 -41.95 38.5 -45.4 L38.4 -45.4" fill="#cccccc" fill-rule="evenodd" stroke="none"/>
    <path d="M41.4 -71.0 Q50.5 -66.4 51.0 -59.7 51.0 -59.15 50.65 -58.7 L50.25 -58.35 50.65 -57.3 50.8 -56.75 51.0 -54.45 Q51.1 -47.35 41.4 -42.3 L38.4 -41.0 38.5 -41.0 Q30.25 -37.55 19.15 -37.55 6.2 -37.55 -2.9 -42.3 -12.6 -47.35 -12.45 -54.45 L-12.3 -56.4 -12.3 -56.95 -11.85 -58.45 -12.1 -58.7 Q-12.5 -59.15 -12.45 -59.7 -12.0 -66.4 -2.9 -71.0 6.2 -75.8 19.15 -75.6 30.25 -75.85 38.5 -72.35 L38.4 -72.35 41.4 -71.0 M41.4 -66.6 Q45.1 -64.7 47.45 -62.45 45.55 -66.0 40.15 -68.75 38.85 -69.4 37.5 -69.85 L37.4 -69.85 Q29.65 -73.15 19.15 -73.0 6.95 -73.2 -1.65 -68.75 -6.85 -66.1 -8.75 -62.7 -6.5 -64.8 -2.9 -66.6 6.2 -71.35 19.15 -71.2 30.25 -71.4 38.5 -67.95 L38.4 -67.95 41.4 -66.6 M37.5 -65.45 L37.4 -65.45 Q29.65 -68.75 19.15 -68.55 6.95 -68.75 -1.65 -64.3 -8.15 -61.0 -9.55 -56.6 -8.15 -52.35 -1.65 -49.05 6.95 -44.6 19.15 -44.6 29.65 -44.65 37.4 -47.9 L37.5 -47.9 Q38.85 -48.4 40.15 -49.05 46.55 -52.35 48.15 -56.6 46.55 -61.0 40.15 -64.3 L37.5 -65.45 M38.4 -45.4 L38.5 -45.4 Q30.25 -41.95 19.15 -41.95 6.2 -42.0 -2.9 -46.75 -6.4 -48.5 -8.65 -50.45 -6.75 -47.25 -1.65 -44.6 6.95 -40.2 19.15 -40.2 29.65 -40.2 37.4 -43.45 L37.5 -43.45 Q38.85 -43.95 40.15 -44.6 45.45 -47.4 47.35 -50.8 45.05 -48.6 41.4 -46.75 39.9 -46.0 38.4 -45.4" fill="#666666" fill-rule="evenodd" stroke="none"/>
    <path d="M39.55 -21.15 Q39.55 -22.05 40.6 -22.55 L42.05 -22.2 42.2 -21.5 41.15 -19.55 39.75 -19.55 39.55 -21.15 M31.6 -15.45 Q31.1 -15.05 30.05 -14.75 L30.9 -9.8 Q30.85 -8.9 30.15 -8.0 28.4 -9.05 28.4 -14.5 L23.6 -14.2 Q22.5 -14.25 22.0 -14.75 L22.0 -15.45 Q24.65 -15.65 30.35 -19.0 L34.25 -19.0 34.75 -18.3 31.6 -15.45 M51.45 -23.95 L49.3 -23.95 49.1 -23.7 49.9 -20.25 Q50.65 -21.0 51.45 -22.4 L51.45 -23.95 M51.1 -14.6 Q50.95 -13.85 50.0 -13.35 48.75 -14.4 48.75 -14.6 L48.4 -14.4 Q47.0 -16.55 47.0 -21.85 L47.0 -22.3 47.15 -23.8 47.15 -23.95 Q47.3 -26.1 50.7 -26.1 53.7 -26.1 53.0 -23.25 53.0 -20.95 50.35 -19.0 50.35 -18.15 51.25 -14.75 L51.1 -14.6 M42.9 -19.55 Q44.15 -14.95 44.15 -13.85 44.15 -12.8 43.25 -10.7 40.6 -16.35 40.6 -16.55 41.65 -15.85 41.7 -19.55 L42.9 -19.55" fill="#333333" fill-rule="evenodd" stroke="none"/>
  </g>
</svg>
