<?xml version="1.0" encoding="UTF-8" standalone="no"?>
<svg xmlns:ffdec="https://www.free-decompiler.com/flash" xmlns:xlink="http://www.w3.org/1999/xlink" ffdec:objectType="shape" height="15.55px" width="67.65px" xmlns="http://www.w3.org/2000/svg">
  <g transform="matrix(1.0, 0.0, 0.0, 1.0, -19.1, -11.8)">
    <path d="M85.15 24.55 L84.15 26.75 81.85 25.65 82.85 23.5 85.15 24.55 M85.75 23.25 L83.45 22.15 84.45 20.05 86.75 21.1 85.75 23.25 M82.1 19.8 L82.1 20.05 79.55 21.05 80.2 25.7 77.7 24.65 77.5 21.9 76.3 22.35 75.7 23.85 73.45 22.9 76.7 14.95 78.95 15.9 77.25 20.0 79.7 18.8 82.1 19.8 M69.8 15.55 L69.55 16.5 Q70.2 16.0 70.75 15.85 L72.0 15.9 Q73.0 16.15 73.4 16.85 73.8 17.5 73.5 18.75 L72.6 22.55 70.25 22.0 71.05 18.7 71.05 17.85 70.55 17.45 Q70.1 17.35 69.75 17.65 69.4 17.85 69.2 18.7 L68.5 21.6 66.2 21.05 67.6 15.0 69.8 15.55 M65.35 15.25 L65.7 16.05 65.8 17.05 65.45 19.75 65.4 20.4 65.6 21.1 63.35 20.8 63.25 20.45 63.2 20.05 62.15 20.55 60.7 20.6 Q59.6 20.45 59.1 19.9 58.6 19.3 58.7 18.55 58.8 17.85 59.25 17.45 59.7 17.05 60.85 16.95 L62.6 16.85 63.5 16.65 63.4 16.0 Q63.2 15.8 62.8 15.75 L61.85 15.85 61.45 16.35 59.2 15.8 Q59.4 15.2 59.7 14.9 L60.5 14.4 61.4 14.25 62.65 14.3 64.35 14.65 65.35 15.25 M61.3 18.25 L61.05 18.7 61.2 19.15 61.75 19.4 62.55 19.3 63.05 18.9 63.3 18.2 63.35 17.85 62.3 18.0 61.3 18.25 M46.4 18.15 L46.45 18.65 46.9 18.85 47.6 18.7 47.75 20.4 46.1 20.5 44.8 20.25 Q44.35 20.05 44.15 19.55 L44.05 18.05 44.1 15.8 43.25 15.8 43.3 14.1 44.15 14.15 44.2 13.0 46.6 11.8 46.55 14.2 47.85 14.25 47.8 15.95 46.5 15.9 46.4 18.15 M40.6 17.45 L43.15 20.5 40.35 20.8 39.05 18.9 37.85 21.0 35.3 21.2 37.3 17.8 34.9 15.05 37.65 14.8 38.8 16.4 39.8 14.6 42.45 14.35 40.6 17.45 M56.0 14.7 L56.65 13.8 57.5 13.55 58.65 13.85 57.9 15.55 57.25 15.4 Q56.75 15.4 56.5 15.8 56.15 16.3 56.15 17.8 L56.15 19.9 53.75 19.9 53.75 13.7 56.0 13.7 56.0 14.7 M23.15 19.75 L24.8 19.65 Q25.5 19.95 26.0 21.1 L27.6 24.7 25.45 25.65 24.05 22.55 23.5 21.9 22.85 21.85 Q22.45 22.05 22.4 22.45 22.25 22.85 22.6 23.65 L23.8 26.4 21.6 27.35 19.1 21.7 21.15 20.8 21.55 21.7 Q21.7 20.9 22.1 20.5 22.45 20.05 23.15 19.75 M27.45 20.4 Q27.2 18.95 27.95 17.95 28.75 16.85 30.4 16.6 31.65 16.35 32.5 16.6 33.3 16.8 33.8 17.5 34.4 18.2 34.65 19.4 L34.7 19.7 29.95 20.55 Q30.1 21.05 30.4 21.35 30.8 21.65 31.35 21.6 L32.0 21.25 32.35 20.75 34.7 20.6 33.7 22.15 Q33.0 22.65 31.55 22.95 30.3 23.15 29.6 22.95 28.85 22.7 28.25 22.05 27.65 21.4 27.45 20.4 M29.75 19.4 L32.1 19.0 31.55 18.05 Q31.2 17.8 30.7 17.9 30.1 18.0 29.9 18.5 29.7 18.85 29.75 19.4" fill="#ffffff" fill-rule="evenodd" stroke="none"/>
  </g>
</svg>
