<?xml version="1.0" encoding="UTF-8" standalone="no"?>
<svg xmlns:ffdec="https://www.free-decompiler.com/flash" xmlns:xlink="http://www.w3.org/1999/xlink" ffdec:objectType="shape" height="14.75px" width="274.55px" xmlns="http://www.w3.org/2000/svg">
  <g transform="matrix(1.0, 0.0, 0.0, 1.0, 0.05, 3.7)">
    <path d="M274.05 4.75 L274.05 5.4 273.5 5.5 0.05 5.5 0.05 4.75 274.05 4.75" fill="#67460a" fill-rule="evenodd" stroke="none"/>
    <path d="M0.05 0.5 L0.05 -2.5 274.05 -2.5 274.05 0.5 0.05 0.5" fill="#952707" fill-rule="evenodd" stroke="none"/>
    <path d="M0.05 0.5 L274.05 0.5 274.05 2.4 273.5 2.5 0.05 2.5 0.05 0.5" fill="#67460a" fill-rule="evenodd" stroke="none"/>
    <path d="M2.25 0.5 Q1.1 -0.5 1.1 -0.9 1.1 -1.35 1.5 -1.9 1.7 -2.3 3.4 -2.65 L8.85 -2.25 13.8 -2.15 14.0 -2.0 14.35 -2.0 14.5 -1.1 14.45 0.35 7.0 0.75 2.25 0.5 M259.75 0.25 Q259.85 -0.6 260.8 -1.4 262.45 -2.8 265.85 -2.5 271.45 -2.5 272.75 -1.0 L273.5 0.25 269.0 0.35 261.5 1.0 Q260.1 1.0 259.75 0.25" fill="#e0b667" fill-rule="evenodd" stroke="none"/>
    <path d="M2.25 0.5 Q2.25 1.0 1.25 1.0 -0.25 1.0 0.0 -0.5 0.0 -3.3 4.25 -3.25 L4.75 -3.15 7.1 -3.25 12.0 -3.5 13.5 -3.5 14.25 -2.9 14.9 -3.0 16.25 -2.15 16.1 -2.0 15.15 -2.0 17.5 0.75 Q17.5 1.15 17.0 1.15 14.75 1.15 14.45 0.35 L14.5 -1.1 14.35 -2.0 14.0 -2.0 13.8 -2.15 8.85 -2.25 3.4 -2.65 Q1.7 -2.3 1.5 -1.9 1.1 -1.35 1.1 -0.9 1.1 -0.5 2.25 0.5 M273.5 0.25 L272.75 -1.0 Q271.45 -2.5 265.85 -2.5 262.45 -2.8 260.8 -1.4 259.85 -0.6 259.75 0.25 L259.75 0.4 260.4 1.15 Q260.3 1.65 260.0 1.65 L258.5 1.25 Q257.75 1.25 257.75 0.3 257.75 -0.75 258.95 -2.05 259.8 -2.95 260.95 -3.3 L267.0 -3.7 Q274.5 -3.55 274.5 -0.75 274.5 0.75 273.75 1.25 L273.5 0.25" fill="#67460a" fill-rule="evenodd" stroke="none"/>
    <path d="M274.05 6.8 L274.05 9.8 0.05 9.8 0.05 6.8 274.05 6.8" fill="#952707" fill-rule="evenodd" stroke="none"/>
    <path d="M0.05 6.8 L0.05 4.8 273.5 4.8 274.05 4.9 274.05 6.8 0.05 6.8" fill="#67460a" fill-rule="evenodd" stroke="none"/>
    <path d="M259.75 7.05 Q260.1 6.3 261.5 6.3 L269.0 6.95 273.5 7.05 272.75 8.3 Q271.45 9.8 265.85 9.8 262.45 10.1 260.8 8.7 259.85 7.9 259.75 7.05 M2.25 6.8 L7.0 6.55 14.45 6.95 14.5 8.4 14.35 9.3 14.0 9.3 13.8 9.5 8.85 9.55 3.4 9.95 Q1.7 9.6 1.5 9.2 1.1 8.65 1.1 8.2 1.1 7.8 2.25 6.8" fill="#e0b667" fill-rule="evenodd" stroke="none"/>
    <path d="M259.75 7.05 Q259.85 7.9 260.8 8.7 262.45 10.1 265.85 9.8 271.45 9.8 272.75 8.3 L273.5 7.05 273.75 6.05 Q274.5 6.55 274.5 8.05 274.5 10.85 267.0 11.05 L267.0 11.0 260.95 10.65 Q259.8 10.25 258.95 9.35 257.75 8.05 257.75 7.0 257.75 6.05 258.5 6.05 L260.0 5.65 Q260.3 5.65 260.4 6.15 L259.75 6.9 259.75 7.05 M14.45 6.95 Q14.75 6.15 17.0 6.15 17.5 6.15 17.5 6.55 L15.15 9.3 16.1 9.3 16.25 9.45 14.9 10.3 14.25 10.25 13.5 10.8 12.0 10.8 7.1 10.55 4.75 10.5 4.25 10.55 Q0.0 10.6 0.0 7.8 -0.25 6.3 1.25 6.3 2.25 6.3 2.25 6.8 1.1 7.8 1.1 8.2 1.1 8.65 1.5 9.2 1.7 9.6 3.4 9.95 L8.85 9.55 13.8 9.5 14.0 9.3 14.35 9.3 14.5 8.4 14.45 6.95" fill="#67460a" fill-rule="evenodd" stroke="none"/>
  </g>
</svg>
