<?xml version="1.0" encoding="UTF-8" standalone="no"?>
<svg xmlns:ffdec="https://www.free-decompiler.com/flash" xmlns:xlink="http://www.w3.org/1999/xlink" ffdec:objectType="shape" height="2.25px" width="274.0px" xmlns="http://www.w3.org/2000/svg">
  <g transform="matrix(1.0, 0.0, 0.0, 1.0, -0.05, -2.5)">
    <path d="M274.05 2.5 L274.05 4.75 0.05 4.75 0.05 2.5 274.05 2.5" fill="#d7d7d7" fill-rule="evenodd" stroke="none"/>
    <path d="M274.0 2.5 L274.0 2.95 272.65 3.0 267.1 3.0 255.0 3.7 242.75 3.2 238.75 2.85 232.05 2.65 Q226.85 2.55 225.8 2.75 L207.55 3.4 193.35 4.1 179.65 3.25 170.35 2.5 187.35 2.5 193.3 2.95 205.45 2.5 274.0 2.5 M155.6 2.6 L138.6 4.1 129.45 3.3 Q127.35 2.6 124.35 2.5 L152.75 2.5 154.5 2.5 155.7 2.5 155.6 2.6 M99.55 3.15 L87.75 2.7 78.15 3.0 72.0 3.35 58.7 2.5 123.45 2.5 103.25 3.6 99.55 3.15 M23.5 2.5 L40.45 2.5 29.0 2.95 26.5 3.35 Q24.9 3.35 24.25 2.95 L23.5 2.5" fill="#ff6600" fill-rule="evenodd" stroke="none"/>
  </g>
</svg>
