<?xml version="1.0" encoding="UTF-8" standalone="no"?>
<svg xmlns:ffdec="https://www.free-decompiler.com/flash" xmlns:xlink="http://www.w3.org/1999/xlink" ffdec:objectType="shape" height="50.1px" width="47.25px" xmlns="http://www.w3.org/2000/svg">
  <g transform="matrix(1.0, 0.0, 0.0, 1.0, 1.8, 4.2)">
    <path d="M40.1 6.05 L35.9 6.4 35.7 6.3 35.6 6.1 35.55 5.85 35.8 1.65 35.35 1.8 31.85 3.05 31.6 3.0 31.45 2.7 30.6 -1.45 30.6 -1.5 27.05 1.0 26.8 1.05 26.65 0.9 26.65 0.85 24.75 -3.15 24.5 -2.85 24.45 -2.8 21.95 0.25 21.7 0.4 21.6 0.35 21.55 0.3 19.0 -2.75 18.9 -2.85 18.7 -3.1 16.85 0.85 16.65 1.05 16.45 1.05 12.85 -1.4 12.75 -0.95 12.75 -0.85 12.1 2.8 11.95 3.1 11.9 3.1 11.7 3.1 8.1 1.9 8.0 1.9 7.7 1.8 7.65 1.8 7.7 2.45 7.95 6.0 7.95 6.25 7.9 6.25 7.8 6.5 7.7 6.55 3.45 6.3 4.7 10.2 4.75 10.25 4.75 10.5 4.75 10.55 4.65 10.75 4.5 10.9 0.45 11.8 2.6 15.15 2.7 15.45 2.65 15.8 2.55 15.95 -1.1 17.85 -0.6 18.35 -0.5 18.45 1.9 20.55 2.05 20.85 2.05 21.15 1.9 21.45 -1.05 24.15 -0.5 24.45 -0.4 24.5 2.55 26.05 2.7 26.25 2.8 26.55 2.75 26.75 0.55 30.3 4.55 31.15 4.75 31.25 4.85 31.55 4.8 31.8 3.8 34.95 3.8 35.0 3.55 35.7 7.8 35.4 7.95 35.5 8.1 35.7 8.1 35.85 7.85 40.1 7.9 40.1 7.9 40.15 8.3 39.95 8.35 39.95 11.95 38.65 12.1 38.75 12.25 38.95 12.3 39.05 13.1 43.3 13.15 43.3 16.7 40.75 16.85 40.75 16.95 40.8 18.7 44.5 18.75 44.5 18.9 44.9 18.95 44.9 18.95 44.85 19.15 44.6 19.2 44.55 21.75 41.55 Q21.8 41.45 21.9 41.45 L22.15 41.6 24.95 44.85 26.85 40.9 27.0 40.7 27.15 40.7 30.4 42.95 30.5 43.0 30.75 43.15 30.8 43.2 30.8 43.15 30.8 43.1 31.6 38.95 Q31.6 38.75 31.75 38.65 L31.95 38.6 35.5 39.85 35.55 39.85 36.0 40.0 36.0 39.95 35.75 35.75 35.75 35.5 35.9 35.3 36.1 35.2 40.2 35.5 40.0 34.85 40.0 34.75 38.95 31.6 38.95 31.3 39.05 31.0 39.15 30.9 42.6 30.2 43.25 30.05 42.8 29.45 42.8 29.35 42.6 29.1 42.55 28.95 41.05 26.7 40.95 26.4 Q40.9 26.2 41.0 26.05 L41.15 25.85 44.1 24.35 44.15 24.25 44.75 23.95 41.8 21.2 41.75 21.15 41.65 20.95 41.65 20.6 41.75 20.35 44.1 18.2 44.2 18.1 44.7 17.65 44.1 17.3 44.05 17.3 41.05 15.75 40.95 15.6 40.9 15.3 41.0 15.0 42.7 12.25 42.75 12.1 43.1 11.5 39.15 10.75 39.05 10.75 38.95 10.6 38.85 10.35 38.85 10.05 40.1 6.1 40.1 6.05 M0.55 30.3 L0.55 30.35 0.55 30.3 M3.45 6.3 L3.4 6.3 3.45 6.3 M12.35 -2.15 L12.7 -2.4 13.15 -2.3 16.45 -0.05 18.15 -3.65 18.4 -4.05 18.75 -4.15 18.8 -4.1 19.1 -3.9 19.15 -3.9 21.65 -0.85 22.6 -2.15 22.85 -2.35 23.05 -2.35 24.3 -3.9 24.6 -4.15 25.0 -4.05 25.3 -3.75 25.25 -3.75 26.9 -0.3 27.55 -0.75 27.8 -0.85 27.85 -0.85 28.0 -0.8 30.3 -2.4 30.65 -2.5 30.7 -2.5 31.0 -2.3 31.25 -1.8 31.25 -1.75 32.0 1.9 32.15 1.9 35.6 0.7 Q35.8 0.5 36.05 0.7 L36.1 0.7 36.35 1.05 36.4 1.15 36.5 1.7 36.5 1.75 36.25 5.35 40.1 5.05 Q40.3 5.0 40.5 5.25 L40.75 5.8 40.75 5.85 40.75 6.5 40.7 6.5 39.7 9.85 43.2 10.5 43.6 10.8 43.65 10.85 43.8 11.5 43.6 12.15 41.85 15.1 44.95 16.7 45.3 17.15 45.4 17.85 45.35 17.9 45.05 18.5 42.65 20.75 45.1 23.05 45.4 23.65 45.45 23.75 45.4 24.35 45.35 24.45 44.95 24.9 45.0 24.9 41.9 26.55 43.7 29.4 43.9 30.05 43.8 30.65 43.75 30.75 43.35 31.1 39.75 31.8 40.85 35.1 40.9 35.75 40.85 35.85 40.6 36.35 40.2 36.55 36.45 36.25 36.65 39.9 36.65 39.95 36.6 40.45 36.6 40.5 36.25 40.95 35.85 41.0 32.15 39.7 31.45 43.45 31.45 43.5 31.25 43.9 30.95 44.15 30.85 44.2 30.55 44.15 30.5 44.1 27.2 41.85 25.5 45.45 25.45 45.5 25.2 45.8 25.15 45.8 24.9 45.9 Q24.65 45.85 24.5 45.6 L24.5 45.65 21.9 42.65 19.35 45.7 19.3 45.75 19.05 45.9 18.65 45.8 18.35 45.5 18.4 45.5 16.65 41.9 13.4 44.25 13.0 44.3 12.7 44.15 12.6 44.0 12.45 43.6 11.7 39.8 8.05 41.15 8.0 41.15 7.65 41.05 7.6 41.05 7.3 40.7 7.25 40.6 7.2 40.1 7.4 36.45 3.55 36.7 Q3.3 36.7 3.15 36.5 L2.9 35.9 Q2.8 35.5 2.95 35.25 L2.95 35.2 3.0 35.2 4.0 32.05 0.45 31.3 Q0.15 31.25 0.05 31.0 L0.0 30.95 -0.15 30.3 0.05 29.65 1.85 26.75 -1.3 25.1 -1.65 24.65 -1.65 24.6 -1.7 23.85 -1.7 23.95 -1.4 23.25 -1.45 23.25 1.05 21.0 -1.45 18.75 -1.8 18.1 -1.75 18.15 -1.75 17.45 -1.75 17.4 -1.7 17.35 -1.35 16.9 1.75 15.3 -0.05 12.5 -0.05 12.45 -0.25 11.8 -0.1 11.2 Q0.05 10.85 0.35 10.75 L3.9 10.0 2.8 6.75 2.75 6.1 Q2.8 5.65 3.0 5.5 3.15 5.25 3.45 5.3 L7.25 5.55 7.0 1.85 Q6.95 1.5 7.05 1.3 L7.05 1.25 7.4 0.85 7.4 0.8 Q7.6 0.65 7.9 0.8 L11.55 2.05 12.2 -1.65 12.35 -2.15" fill="#006600" fill-rule="evenodd" stroke="none"/>
    <path d="M3.45 6.3 L7.7 6.55 7.8 6.5 7.9 6.25 7.95 6.25 7.95 6.0 7.7 2.45 7.65 1.8 7.7 1.8 8.0 1.9 8.1 1.9 11.7 3.1 11.9 3.1 11.95 3.1 12.1 2.8 12.75 -0.85 12.75 -0.95 12.85 -1.4 16.45 1.05 16.65 1.05 16.85 0.85 18.7 -3.1 18.9 -2.85 19.0 -2.75 21.55 0.3 21.6 0.35 21.7 0.4 21.95 0.25 24.45 -2.8 24.5 -2.85 24.75 -3.15 26.65 0.85 26.65 0.9 26.8 1.05 27.05 1.0 30.6 -1.5 30.6 -1.45 31.45 2.7 31.6 3.0 31.85 3.05 35.35 1.8 35.8 1.65 35.55 5.85 35.6 6.1 35.7 6.3 35.9 6.4 40.1 6.05 40.1 6.1 38.85 10.05 38.85 10.35 38.95 10.6 39.05 10.75 39.15 10.75 43.1 11.5 42.75 12.1 42.7 12.25 41.0 15.0 40.9 15.3 40.95 15.6 41.05 15.75 44.05 17.3 44.1 17.3 44.7 17.65 44.2 18.1 44.1 18.2 41.75 20.35 41.65 20.6 41.65 20.95 41.75 21.15 41.8 21.2 44.75 23.95 44.15 24.25 44.1 24.35 41.15 25.85 41.0 26.05 Q40.9 26.2 40.95 26.4 L41.05 26.7 42.55 28.95 42.6 29.1 42.8 29.35 42.8 29.45 43.25 30.05 42.6 30.2 39.15 30.9 39.05 31.0 38.95 31.3 38.95 31.6 40.0 34.75 40.0 34.85 40.2 35.5 36.1 35.2 35.9 35.3 35.75 35.5 35.75 35.75 36.0 39.95 36.0 40.0 35.55 39.85 35.5 39.85 31.95 38.6 31.75 38.65 Q31.6 38.75 31.6 38.95 L30.8 43.1 30.8 43.15 30.8 43.2 30.75 43.15 30.5 43.0 30.4 42.95 27.15 40.7 27.0 40.7 26.85 40.9 24.95 44.85 22.15 41.6 21.9 41.45 Q21.8 41.45 21.75 41.55 L19.2 44.55 19.15 44.6 18.95 44.85 18.95 44.9 18.9 44.9 18.75 44.5 18.7 44.5 16.95 40.8 16.85 40.75 16.7 40.75 13.15 43.3 13.1 43.3 12.3 39.05 12.25 38.95 12.1 38.75 11.95 38.65 8.35 39.95 8.3 39.95 7.9 40.15 7.9 40.1 7.85 40.1 8.1 35.85 8.1 35.7 7.95 35.5 7.8 35.4 3.55 35.7 3.8 35.0 3.8 34.95 4.8 31.8 4.85 31.55 4.75 31.25 4.55 31.15 0.55 30.3 2.75 26.75 2.8 26.55 2.7 26.25 2.55 26.05 -0.4 24.5 -0.5 24.45 -1.05 24.15 1.9 21.45 2.05 21.15 2.05 20.85 1.9 20.55 -0.5 18.45 -0.6 18.35 -1.1 17.85 2.55 15.95 2.65 15.8 2.7 15.45 2.6 15.15 0.45 11.8 4.5 10.9 4.65 10.75 4.75 10.55 4.75 10.5 4.75 10.25 4.7 10.2 3.45 6.3 M31.85 37.55 L35.2 38.7 35.0 35.3 35.0 35.25 35.1 34.75 Q35.15 34.45 35.35 34.3 35.45 34.15 35.7 34.15 L39.1 34.4 38.15 31.45 38.05 30.8 38.3 30.25 Q38.4 30.05 38.65 30.0 L38.65 29.95 41.85 29.35 40.2 26.8 Q39.95 26.5 40.0 26.15 L40.1 25.6 40.1 25.55 40.1 25.5 Q40.2 25.25 40.45 25.15 L43.15 23.75 40.95 21.65 40.95 21.6 40.7 21.15 40.7 20.4 41.0 19.9 43.15 17.9 40.4 16.45 40.05 16.05 39.95 15.5 40.1 14.85 41.75 12.3 38.6 11.65 38.55 11.65 38.2 11.45 Q37.95 11.15 38.0 10.75 L38.0 10.7 38.05 10.25 39.0 7.15 35.55 7.45 35.4 7.4 35.15 7.3 34.9 6.9 34.9 6.8 34.85 6.4 35.05 2.95 Q33.35 3.55 31.7 4.2 L31.65 4.2 31.4 4.2 31.2 4.05 Q30.9 3.85 30.85 3.45 L30.15 -0.05 27.1 2.1 27.05 2.15 26.65 2.2 26.55 2.15 26.45 2.05 26.25 1.8 24.6 -1.65 22.15 1.3 22.1 1.35 21.7 1.5 21.6 1.5 21.3 1.3 18.85 -1.65 18.15 -0.05 18.15 -0.1 17.25 1.8 17.2 1.85 16.9 2.2 16.85 2.2 16.45 2.15 16.4 2.15 13.3 0.0 12.7 3.5 12.7 3.55 12.6 3.8 12.35 4.15 11.9 4.25 8.45 3.05 8.7 6.5 8.7 6.55 8.65 6.9 8.6 7.1 8.55 7.15 8.35 7.4 8.35 7.45 8.0 7.55 4.55 7.4 5.5 10.35 5.5 10.4 5.55 11.0 5.55 11.05 5.5 11.3 5.4 11.5 5.35 11.6 5.0 11.8 5.0 11.85 1.9 12.5 3.5 15.05 3.6 15.3 3.65 15.7 3.6 16.25 3.55 16.25 3.55 16.3 3.2 16.7 0.45 18.1 2.7 20.15 2.75 20.15 3.0 20.6 3.0 20.65 3.0 21.35 2.75 21.85 2.7 21.9 0.5 23.9 3.25 25.35 3.6 25.7 3.65 25.8 3.7 26.05 3.7 26.35 3.55 26.95 1.95 29.55 5.1 30.2 5.45 30.4 5.5 30.5 5.65 30.9 5.65 31.0 5.65 31.6 5.6 31.65 4.65 34.6 8.15 34.35 8.45 34.5 8.5 34.5 8.7 34.75 8.75 34.85 8.8 35.05 8.8 35.45 8.65 38.8 12.0 37.6 Q12.15 37.45 12.4 37.6 L12.5 37.65 12.55 37.7 12.85 38.25 12.85 38.3 13.55 41.9 16.55 39.75 16.6 39.7 16.75 39.6 17.0 39.65 17.4 40.0 17.45 40.05 19.05 43.45 21.5 40.55 21.55 40.5 Q21.7 40.25 21.9 40.3 L22.3 40.45 22.35 40.5 24.8 43.35 26.4 40.0 26.55 39.8 26.75 39.6 27.25 39.65 27.25 39.7 30.35 41.75 31.0 38.25 Q31.05 37.85 31.35 37.65 L31.35 37.6 31.85 37.55" fill="#dfeedd" fill-rule="evenodd" stroke="none"/>
    <path d="M31.85 37.55 L31.35 37.6 31.35 37.65 Q31.05 37.85 31.0 38.25 L30.35 41.75 27.25 39.7 27.25 39.65 26.75 39.6 26.55 39.8 26.4 40.0 24.8 43.35 22.35 40.5 22.3 40.45 21.9 40.3 Q21.7 40.25 21.55 40.5 L21.5 40.55 19.05 43.45 17.45 40.05 17.4 40.0 17.0 39.65 16.75 39.6 16.6 39.7 16.55 39.75 13.55 41.9 12.85 38.3 12.85 38.25 12.55 37.7 12.5 37.65 12.4 37.6 Q12.15 37.45 12.0 37.6 L8.65 38.8 8.8 35.45 8.8 35.05 8.75 34.85 8.7 34.75 8.5 34.5 8.45 34.5 8.15 34.35 4.65 34.6 5.6 31.65 5.65 31.6 5.65 31.0 5.65 30.9 5.5 30.5 5.45 30.4 5.1 30.2 1.95 29.55 3.55 26.95 3.7 26.35 3.7 26.05 3.65 25.8 3.6 25.7 3.25 25.35 0.5 23.9 2.7 21.9 2.75 21.85 3.0 21.35 3.0 20.65 3.0 20.6 2.75 20.15 2.7 20.15 0.45 18.1 3.2 16.7 3.55 16.3 3.55 16.25 3.6 16.25 3.65 15.7 3.6 15.3 3.5 15.05 1.9 12.5 5.0 11.85 5.0 11.8 5.35 11.6 5.4 11.5 5.5 11.3 5.55 11.05 5.55 11.0 5.5 10.4 5.5 10.35 4.55 7.4 8.0 7.55 8.35 7.45 8.35 7.4 8.55 7.15 8.6 7.1 8.65 6.9 8.7 6.55 8.7 6.5 8.45 3.05 11.9 4.25 12.35 4.15 12.6 3.8 12.7 3.55 12.7 3.5 13.3 0.0 16.4 2.15 16.45 2.15 16.85 2.2 16.9 2.2 17.2 1.85 17.25 1.8 18.15 -0.1 18.15 -0.05 18.85 -1.65 21.3 1.3 21.6 1.5 21.7 1.5 22.1 1.35 22.15 1.3 24.6 -1.65 26.25 1.8 26.45 2.05 26.55 2.15 26.65 2.2 27.05 2.15 27.1 2.1 30.15 -0.05 30.85 3.45 Q30.9 3.85 31.2 4.05 L31.4 4.2 31.65 4.2 31.7 4.2 Q33.35 3.55 35.05 2.95 L34.85 6.4 34.9 6.8 34.9 6.9 35.15 7.3 35.4 7.4 35.55 7.45 39.0 7.15 38.05 10.25 38.0 10.7 38.0 10.75 Q37.95 11.15 38.2 11.45 L38.55 11.65 38.6 11.65 41.75 12.3 40.1 14.85 39.95 15.5 40.05 16.05 40.4 16.45 43.15 17.9 41.0 19.9 40.7 20.4 40.7 21.15 40.95 21.6 40.95 21.65 43.15 23.75 40.45 25.15 Q40.2 25.25 40.1 25.5 L40.1 25.55 40.1 25.6 40.0 26.15 Q39.95 26.5 40.2 26.8 L41.85 29.35 38.65 29.95 38.65 30.0 Q38.4 30.05 38.3 30.25 L38.05 30.8 38.15 31.45 39.1 34.4 35.7 34.15 Q35.45 34.15 35.35 34.3 35.15 34.45 35.1 34.75 L35.0 35.25 35.0 35.3 35.2 38.7 31.85 37.55" fill="#00cc00" fill-rule="evenodd" stroke="none"/>
    <path d="M40.1 6.05 L40.1 6.1 40.1 6.05 M13.15 43.3 L13.1 43.3 13.15 43.3 M0.55 30.3 L0.55 30.35 0.55 30.3 M3.45 6.3 L3.4 6.3 3.45 6.3" fill="#ffffff" fill-rule="evenodd" stroke="none"/>
  </g>
</svg>
