<?xml version="1.0" encoding="UTF-8" standalone="no"?>
<svg xmlns:ffdec="https://www.free-decompiler.com/flash" xmlns:xlink="http://www.w3.org/1999/xlink" ffdec:objectType="shape" height="19.0px" width="8.0px" xmlns="http://www.w3.org/2000/svg">
  <g transform="matrix(1.0, 0.0, 0.0, 1.0, -4.25, -2.25)">
    <path d="M9.95 2.65 L10.0 2.5 Q10.5 3.25 10.5 5.1 10.5 12.95 9.4 19.1 11.0 19.2 11.55 19.75 L12.25 20.65 11.75 21.25 4.4 21.25 Q4.25 21.3 4.25 20.7 L5.55 20.05 Q6.9 19.1 7.35 16.5 L7.5 12.0 Q7.5 7.45 7.9 5.35 L6.75 6.5 Q6.25 6.3 6.25 5.9 6.25 4.6 6.85 4.0 L9.5 2.25 9.95 2.65" fill="#666666" fill-rule="evenodd" stroke="none"/>
  </g>
</svg>
