<?xml version="1.0" encoding="UTF-8" standalone="no"?>
<svg xmlns:ffdec="https://www.free-decompiler.com/flash" xmlns:xlink="http://www.w3.org/1999/xlink" ffdec:objectType="shape" height="18.65px" width="19.7px" xmlns="http://www.w3.org/2000/svg">
  <g transform="matrix(1.0, 0.0, 0.0, 1.0, 1.25, -1.6)">
    <path d="M13.35 5.6 Q13.35 7.15 8.7 12.1 L4.9 15.9 11.25 15.4 Q20.3 15.4 18.0 17.0 18.0 19.1 17.6 19.35 16.3 20.25 9.6 20.25 L0.85 19.75 0.7 19.5 0.0 19.5 -1.25 19.4 -1.25 18.65 Q-1.25 17.95 1.85 14.75 L4.6 11.8 Q9.15 7.0 9.15 5.55 9.15 5.25 8.75 4.9 L7.35 5.15 5.35 5.25 4.0 6.25 3.7 6.1 3.6 6.25 3.25 6.35 2.6 5.5 2.7 5.25 Q2.3 4.7 2.25 3.75 L2.25 3.7 2.25 3.5 2.3 3.5 Q2.55 1.85 7.0 1.65 10.65 1.25 12.35 3.1 13.35 4.25 13.35 5.6" fill="#666666" fill-rule="evenodd" stroke="none"/>
  </g>
</svg>
