<?xml version="1.0" encoding="UTF-8" standalone="no"?>
<svg xmlns:ffdec="https://www.free-decompiler.com/flash" xmlns:xlink="http://www.w3.org/1999/xlink" ffdec:objectType="shape" height="20.95px" width="15.0px" xmlns="http://www.w3.org/2000/svg">
  <g transform="matrix(1.0, 0.0, 0.0, 1.0, 0.0, 0.0)">
    <path d="M12.25 3.15 L12.8 4.0 Q13.3 4.8 13.3 5.35 13.3 6.25 12.3 7.9 11.35 9.5 10.55 9.95 L10.85 10.2 14.0 12.45 Q15.0 13.4 15.0 15.05 15.0 16.8 13.85 18.45 12.1 20.95 8.5 20.95 4.0 20.95 1.55 18.6 0.0 17.1 0.0 16.1 L0.05 15.45 Q0.35 15.15 0.6 15.05 0.85 14.0 2.5 14.0 3.35 14.0 4.25 15.15 5.15 16.25 7.15 16.25 11.55 16.25 10.55 14.05 10.55 12.85 9.35 12.1 L4.5 12.25 Q3.55 11.9 3.55 11.05 3.55 9.2 4.8 8.4 L9.55 5.5 9.5 4.45 Q8.9 4.0 7.65 4.0 L7.45 4.0 Q5.0 4.15 4.35 4.8 4.15 5.7 3.5 5.75 L2.75 5.75 2.6 5.5 0.8 5.75 Q0.55 6.2 0.55 4.95 0.55 3.45 2.5 1.75 4.5 0.0 6.25 0.0 9.35 0.0 11.6 2.45 L12.25 3.15" fill="#666666" fill-rule="evenodd" stroke="none"/>
  </g>
</svg>
