<?xml version="1.0" encoding="UTF-8" standalone="no"?>
<svg xmlns:ffdec="https://www.free-decompiler.com/flash" xmlns:xlink="http://www.w3.org/1999/xlink" ffdec:objectType="shape" height="23.75px" width="15.25px" xmlns="http://www.w3.org/2000/svg">
  <g transform="matrix(1.0, 0.0, 0.0, 1.0, -1.5, 0.25)">
    <path d="M11.25 0.75 L12.25 -0.25 Q13.4 5.5 12.75 10.35 L14.55 10.65 16.1 10.5 Q16.9 10.5 16.75 12.2 L16.6 13.75 15.75 14.0 13.75 13.5 13.4 16.55 Q13.0 18.4 13.0 22.6 13.0 23.45 11.1 23.5 L10.6 23.45 10.5 23.5 10.5 23.45 10.0 23.15 Q10.05 22.75 10.25 22.55 9.85 20.85 9.9 18.55 L10.0 13.5 4.15 12.7 Q1.5 12.45 1.5 11.25 L10.75 0.15 Q11.25 0.15 11.25 0.75 M10.25 4.75 Q6.25 8.9 4.75 10.0 L10.15 10.35 Q10.4 5.85 10.25 4.75" fill="#666666" fill-rule="evenodd" stroke="none"/>
  </g>
</svg>
