<?xml version="1.0" encoding="UTF-8" standalone="no"?>
<svg xmlns:ffdec="https://www.free-decompiler.com/flash" xmlns:xlink="http://www.w3.org/1999/xlink" ffdec:objectType="shape" height="18.85px" width="15.35px" xmlns="http://www.w3.org/2000/svg">
  <g transform="matrix(1.0, 0.0, 0.0, 1.0, -1.65, -0.9)">
    <path d="M15.75 3.0 L14.9 4.0 Q14.15 4.5 13.6 4.5 L8.25 3.75 Q8.35 5.25 7.5 8.25 L7.5 8.4 11.85 7.9 Q17.0 7.9 17.0 11.75 17.0 14.2 15.85 16.2 13.8 19.75 8.75 19.75 6.35 19.75 3.95 17.1 2.2 15.2 1.65 13.75 1.6 13.4 2.25 13.4 L2.35 13.45 2.6 13.0 Q2.75 12.75 3.35 12.75 5.4 15.6 6.8 16.65 L7.95 16.75 Q14.8 16.75 13.75 12.85 13.75 12.35 12.9 11.6 11.95 10.75 10.85 10.75 5.75 10.75 6.1 11.5 4.95 11.5 5.25 8.4 5.0 0.9 9.0 0.9 L14.75 1.25 Q15.05 1.25 15.75 3.0" fill="#666666" fill-rule="evenodd" stroke="none"/>
  </g>
</svg>
