<?xml version="1.0" encoding="UTF-8" standalone="no"?>
<svg xmlns:ffdec="https://www.free-decompiler.com/flash" xmlns:xlink="http://www.w3.org/1999/xlink" ffdec:objectType="shape" height="19.6px" width="14.65px" xmlns="http://www.w3.org/2000/svg">
  <g transform="matrix(1.0, 0.0, 0.0, 1.0, -2.6, -0.65)">
    <path d="M16.25 10.9 Q17.15 12.55 17.25 14.25 17.25 16.4 14.95 18.1 12.15 20.25 7.25 20.25 2.05 20.25 2.65 15.0 2.65 12.75 4.05 10.7 5.0 9.25 6.4 8.55 5.15 7.55 5.15 5.35 5.15 0.65 11.0 0.65 12.55 0.65 14.05 2.35 15.25 3.8 15.25 4.5 15.25 5.9 13.65 7.4 L12.95 8.0 Q15.1 8.7 16.25 10.9 M12.1 3.6 Q11.05 2.85 10.0 2.85 7.25 2.85 7.25 5.15 L7.85 5.75 7.0 6.35 Q7.5 7.6 9.0 7.6 12.9 7.6 13.1 4.8 13.1 4.3 12.1 3.6 M7.4 17.1 L7.8 17.1 8.5 16.75 10.5 16.25 10.8 16.25 Q12.3 15.4 13.6 13.75 13.6 10.6 9.65 10.6 5.0 10.6 5.0 14.3 5.0 17.1 7.4 17.1 M8.85 18.25 Q9.65 18.25 10.95 17.55 L8.65 18.25 8.85 18.25 M12.5 16.5 L12.4 16.55 12.45 16.65 12.6 16.5 12.5 16.5" fill="#666666" fill-rule="evenodd" stroke="none"/>
  </g>
</svg>
