<?xml version="1.0" encoding="UTF-8" standalone="no"?>
<svg xmlns:ffdec="https://www.free-decompiler.com/flash" xmlns:xlink="http://www.w3.org/1999/xlink" ffdec:objectType="shape" height="20.6px" width="15.1px" xmlns="http://www.w3.org/2000/svg">
  <g transform="matrix(1.0, 0.0, 0.0, 1.0, -2.15, -0.9)">
    <path d="M15.6 2.9 Q16.9 4.2 17.2 5.5 L17.25 5.75 17.25 5.95 17.25 6.15 16.95 7.5 Q15.75 11.35 10.65 21.15 L8.25 21.5 7.25 20.45 Q7.25 19.25 11.4 12.75 L12.35 11.3 Q9.9 12.25 6.6 12.25 3.2 12.25 2.15 7.55 2.15 5.25 4.5 3.2 7.1 0.9 10.5 0.9 13.6 0.9 15.6 2.9 M14.15 6.5 Q14.15 3.9 8.15 3.9 5.9 3.9 5.0 7.75 5.0 9.6 7.25 9.6 9.4 9.6 11.85 8.45 14.15 7.3 14.15 6.5" fill="#666666" fill-rule="evenodd" stroke="none"/>
  </g>
</svg>
