<?xml version="1.0" encoding="UTF-8" standalone="no"?>
<svg xmlns:ffdec="https://www.free-decompiler.com/flash" xmlns:xlink="http://www.w3.org/1999/xlink" ffdec:objectType="shape" height="18.0px" width="22.5px" xmlns="http://www.w3.org/2000/svg">
  <g transform="matrix(1.0, 0.0, 0.0, 1.0, -0.5, -2.5)">
    <path d="M21.75 15.0 Q19.25 19.5 12.75 19.5 8.0 19.5 8.65 13.1 8.65 11.0 10.7 7.6 13.6 2.9 18.0 2.9 21.35 2.9 23.0 9.9 23.0 12.75 21.75 15.0 M16.75 5.25 Q16.15 5.25 15.5 6.85 L14.75 6.65 Q13.3 6.65 12.15 10.0 11.6 11.7 11.35 13.4 11.35 14.2 11.85 15.25 12.5 16.6 13.5 16.6 17.55 16.6 19.65 8.95 19.65 7.95 18.9 6.75 18.0 5.25 16.75 5.25 M2.0 5.65 Q2.0 5.3 3.1 4.45 L4.5 3.5 4.6 3.55 6.6 2.5 7.65 2.6 7.75 3.6 Q7.75 8.1 5.6 18.25 6.85 18.25 7.75 19.15 6.95 20.5 5.5 20.5 L2.55 20.0 1.0 20.4 Q0.5 20.2 0.5 19.8 0.5 18.0 2.0 18.0 L2.6 18.05 Q3.65 15.75 4.1 12.55 L4.9 5.75 Q4.15 6.45 2.75 6.65 2.0 6.3 2.0 5.65" fill="#666666" fill-rule="evenodd" stroke="none"/>
  </g>
</svg>
