<?xml version="1.0" encoding="UTF-8" standalone="no"?>
<svg xmlns:ffdec="https://www.free-decompiler.com/flash" xmlns:xlink="http://www.w3.org/1999/xlink" ffdec:objectType="shape" height="18.75px" width="17.0px" xmlns="http://www.w3.org/2000/svg">
  <g transform="matrix(1.0, 0.0, 0.0, 1.0, -2.25, -2.5)">
    <path d="M19.25 18.75 Q19.25 20.5 15.6 20.5 13.35 20.5 12.0 19.5 L12.0 19.15 Q12.0 18.35 12.6 17.8 13.3 17.1 14.5 17.65 15.7 13.35 16.85 5.65 L16.85 5.5 14.75 6.75 Q14.25 6.55 14.25 6.2 14.25 5.75 15.7 4.2 17.2 2.5 18.0 2.5 19.0 2.5 19.25 4.15 L17.0 18.0 17.0 18.1 19.0 18.25 19.25 18.75 M6.75 3.0 Q8.4 3.0 8.0 5.8 8.0 8.35 6.5 18.85 8.95 19.05 9.15 19.4 L9.25 19.75 Q9.25 20.05 8.1 20.65 L6.75 21.25 Q2.25 21.25 2.25 20.15 3.9 19.7 4.6 13.5 4.75 12.0 5.85 6.35 L5.85 6.0 Q4.1 7.5 3.1 7.5 L2.65 7.35 Q2.5 7.55 2.5 6.95 2.5 5.9 3.75 4.55 5.15 3.0 6.75 3.0" fill="#666666" fill-rule="evenodd" stroke="none"/>
  </g>
</svg>
