<?xml version="1.0" encoding="UTF-8" standalone="no"?>
<svg xmlns:ffdec="https://www.free-decompiler.com/flash" xmlns:xlink="http://www.w3.org/1999/xlink" ffdec:objectType="shape" height="65.8px" width="65.8px" xmlns="http://www.w3.org/2000/svg">
  <g transform="matrix(1.0, 0.0, 0.0, 1.0, 0.0, 0.05)">
    <path d="M65.8 32.85 Q65.8 46.5 56.15 56.1 46.55 65.75 32.9 65.75 19.25 65.75 9.6 56.1 0.0 46.5 0.0 32.85 0.0 19.2 9.6 9.55 19.25 -0.05 32.9 -0.05 46.55 -0.05 56.15 9.55 65.8 19.2 65.8 32.85" fill="#010101" fill-opacity="0.0" fill-rule="evenodd" stroke="none"/>
    <path d="M26.85 57.4 Q19.9 55.8 14.55 50.45 12.2 48.1 10.6 45.45 L9.9 44.3 9.85 44.2 9.25 42.95 Q7.2 38.5 7.05 33.35 L7.0 32.25 Q7.0 21.6 14.55 14.05 20.6 8.0 28.65 6.8 L32.75 6.5 Q36.45 6.5 39.75 7.4 46.0 9.1 50.95 14.05 54.1 17.2 55.95 20.95 57.3 23.65 57.95 26.7 L54.0 31.15 43.85 41.1 31.6 52.75 26.85 57.4 M58.5 32.55 L58.45 34.4 Q54.45 38.2 44.75 49.5 L39.05 56.2 37.95 57.55 33.4 58.0 45.4 45.25 55.8 35.4 58.5 32.55 M57.65 39.15 Q55.95 45.45 50.95 50.45 47.2 54.2 42.7 56.1 L46.75 51.0 55.95 40.9 57.65 39.15 M58.25 18.85 L58.1 18.85 57.1 19.25 56.5 19.8 Q54.6 16.3 51.65 13.35 43.8 5.5 32.75 5.5 21.7 5.5 13.85 13.35 6.0 21.2 6.0 32.25 6.0 38.25 8.35 43.35 L8.55 43.75 7.75 43.6 Q7.15 43.6 6.9 43.95 4.5 38.6 4.5 32.25 4.5 20.45 12.85 12.1 21.2 3.75 33.0 3.75 44.8 3.75 53.15 12.1 56.25 15.2 58.25 18.85 M41.9 28.95 L27.2 41.5 27.05 41.7 27.0 41.8 Q26.9 41.9 26.95 42.05 L27.2 42.4 Q29.7 44.0 32.9 44.0 37.3 44.0 40.4 40.85 43.55 37.75 43.55 33.35 43.55 31.05 42.75 29.15 L42.7 29.1 42.65 29.0 42.45 28.85 42.3 28.8 42.05 28.85 41.95 28.95 41.9 28.95 M39.15 24.7 Q36.45 22.7 32.9 22.7 28.5 22.7 25.35 25.8 22.25 28.95 22.25 33.35 22.25 35.55 23.05 37.4 L23.15 37.6 23.4 37.8 23.5 37.8 23.85 37.7 23.9 37.65 39.05 25.55 39.1 25.55 39.15 25.5 39.25 25.4 39.35 25.15 39.35 25.05 39.3 24.9 39.25 24.8 39.15 24.7" fill="#999999" fill-rule="evenodd" stroke="none"/>
    <path d="M58.25 18.85 L58.6 19.55 Q61.5 25.25 61.5 32.25 61.5 44.05 53.15 52.4 44.8 60.75 33.0 60.75 21.2 60.75 12.85 52.4 9.0 48.55 6.95 44.0 L6.9 43.95 Q7.15 43.6 7.75 43.6 L8.55 43.75 8.95 44.65 9.75 45.95 Q11.4 48.7 13.85 51.15 21.7 59.0 32.75 59.0 43.8 59.0 51.65 51.15 59.5 43.3 59.5 32.25 59.5 25.85 56.85 20.5 L56.5 19.8 57.1 19.25 58.1 18.85 58.25 18.85 M28.3 41.9 L30.9 39.7 32.6 39.9 Q35.25 39.9 37.1 38.0 39.0 36.15 39.0 33.5 L39.0 32.8 42.05 30.15 Q42.55 31.65 42.55 33.35 42.55 37.35 39.7 40.15 36.9 43.0 32.9 43.0 30.35 43.0 28.3 41.9 M23.75 36.5 Q23.25 35.05 23.25 33.35 23.25 29.35 26.05 26.5 28.9 23.7 32.9 23.7 35.8 23.7 38.05 25.15 L35.0 27.55 32.6 27.1 Q29.95 27.1 28.05 28.95 26.2 30.85 26.2 33.5 L26.3 34.5 23.75 36.5" fill="#626262" fill-rule="evenodd" stroke="none"/>
    <path d="M30.9 39.7 L39.0 32.8 39.0 33.5 Q39.0 36.15 37.1 38.0 35.25 39.9 32.6 39.9 L30.9 39.7 M26.3 34.5 L26.2 33.5 Q26.2 30.85 28.05 28.95 29.95 27.1 32.6 27.1 L35.0 27.55 26.3 34.5" fill="#515151" fill-rule="evenodd" stroke="none"/>
    <path d="M23.05 37.4 L23.05 37.25 23.25 36.9 23.75 36.5 26.3 34.5 35.0 27.55 38.05 25.15 38.55 24.7 38.9 24.6 39.15 24.7 39.25 24.8 39.3 24.9 39.35 25.05 39.35 25.15 39.25 25.4 39.15 25.5 39.1 25.55 39.05 25.55 23.9 37.65 23.85 37.7 23.5 37.8 23.15 37.6 23.05 37.4" fill="#c1c1c1" fill-rule="evenodd" stroke="none"/>
    <path d="M57.95 26.7 Q57.3 23.65 55.95 20.95 54.1 17.2 50.95 14.05 46.0 9.1 39.75 7.4 36.45 6.5 32.75 6.5 L28.65 6.8 Q20.6 8.0 14.55 14.05 7.0 21.6 7.0 32.25 L7.05 33.35 Q7.2 38.5 9.25 42.95 L9.85 44.2 9.9 44.3 10.6 45.45 Q12.2 48.1 14.55 50.45 19.9 55.8 26.85 57.4 L28.55 57.7 31.95 58.0 32.45 58.0 32.75 58.0 33.4 58.0 37.95 57.55 40.15 57.0 42.25 56.3 42.7 56.1 Q47.2 54.2 50.95 50.45 55.95 45.45 57.65 39.15 58.25 36.85 58.45 34.4 L58.5 32.55 58.5 32.25 Q58.5 29.35 57.95 26.7 M56.5 19.8 L56.85 20.5 Q59.5 25.85 59.5 32.25 59.5 43.3 51.65 51.15 43.8 59.0 32.75 59.0 21.7 59.0 13.85 51.15 11.4 48.7 9.75 45.95 L8.95 44.65 8.55 43.75 8.35 43.35 Q6.0 38.25 6.0 32.25 6.0 21.2 13.85 13.35 21.7 5.5 32.75 5.5 43.8 5.5 51.65 13.35 54.6 16.3 56.5 19.8" fill="#4e4e4e" fill-rule="evenodd" stroke="none"/>
    <path d="M6.9 43.95 L6.95 44.0 Q9.0 48.55 12.85 52.4 21.2 60.75 33.0 60.75 44.8 60.75 53.15 52.4 61.5 44.05 61.5 32.25 61.5 25.25 58.6 19.55 L58.25 18.85 Q56.25 15.2 53.15 12.1 44.8 3.75 33.0 3.75 21.2 3.75 12.85 12.1 4.5 20.45 4.5 32.25 4.5 38.6 6.9 43.95 M53.85 11.4 Q57.35 14.9 59.5 19.1 62.5 25.05 62.5 32.25 62.5 44.45 53.85 53.1 45.2 61.75 33.0 61.75 20.8 61.75 12.15 53.1 8.2 49.15 6.05 44.4 3.5 38.85 3.5 32.25 3.5 20.05 12.15 11.4 20.8 2.75 33.0 2.75 45.2 2.75 53.85 11.4 M41.9 28.95 L41.8 29.15 41.8 29.5 41.85 29.65 42.05 30.15 39.0 32.8 30.9 39.7 28.3 41.9 27.85 41.6 27.75 41.55 27.35 41.45 27.2 41.5 41.9 28.95" fill="#333333" fill-rule="evenodd" stroke="none"/>
    <path d="M42.05 30.15 L41.85 29.65 41.8 29.5 41.8 29.15 41.9 28.95 41.95 28.95 42.05 28.85 42.3 28.8 42.45 28.85 42.65 29.0 42.7 29.1 42.75 29.15 Q43.55 31.05 43.55 33.35 43.55 37.75 40.4 40.85 37.3 44.0 32.9 44.0 29.7 44.0 27.2 42.4 L26.95 42.05 Q26.9 41.9 27.0 41.8 L27.05 41.7 27.2 41.5 27.35 41.45 27.75 41.55 27.85 41.6 28.3 41.9 Q30.35 43.0 32.9 43.0 36.9 43.0 39.7 40.15 42.55 37.35 42.55 33.35 42.55 31.65 42.05 30.15 M23.05 37.4 Q22.25 35.55 22.25 33.35 22.25 28.95 25.35 25.8 28.5 22.7 32.9 22.7 36.45 22.7 39.15 24.7 L38.9 24.6 38.55 24.7 38.05 25.15 Q35.8 23.7 32.9 23.7 28.9 23.7 26.05 26.5 23.25 29.35 23.25 33.35 23.25 35.05 23.75 36.5 L23.25 36.9 23.05 37.25 23.05 37.4 M23.5 37.8 L23.4 37.8 23.15 37.6 23.5 37.8" fill="#828282" fill-rule="evenodd" stroke="none"/>
    <path d="M57.95 26.7 Q58.5 29.35 58.5 32.25 L58.5 32.55 55.8 35.4 45.4 45.25 33.4 58.0 32.75 58.0 32.45 58.0 31.95 58.0 28.55 57.7 26.85 57.4 31.6 52.75 43.85 41.1 54.0 31.15 57.95 26.7 M58.45 34.4 Q58.25 36.85 57.65 39.15 L55.95 40.9 46.75 51.0 42.7 56.1 42.25 56.3 40.15 57.0 37.95 57.55 39.05 56.2 44.75 49.5 Q54.45 38.2 58.45 34.4" fill="#a8a8a8" fill-rule="evenodd" stroke="none"/>
  </g>
</svg>
