<?xml version="1.0" encoding="UTF-8" standalone="no"?>
<svg xmlns:ffdec="https://www.free-decompiler.com/flash" xmlns:xlink="http://www.w3.org/1999/xlink" ffdec:objectType="shape" height="294.85px" width="158.25px" xmlns="http://www.w3.org/2000/svg">
  <g transform="matrix(1.0, 0.0, 0.0, 1.0, 0.0, 0.0)">
    <path d="M156.25 9.0 Q156.25 6.2 154.15 4.1 152.05 2.0 149.25 2.0 L9.0 2.0 Q6.2 2.0 4.1 4.1 2.0 6.2 2.0 9.0 L2.0 285.85 Q2.0 288.65 4.1 290.75 6.2 292.85 9.0 292.85 L149.25 292.85 Q152.05 292.85 154.15 290.75 156.25 288.65 156.25 285.85 L156.25 9.0 M155.55 2.7 Q158.25 5.4 158.25 9.0 L158.25 285.85 Q158.25 289.45 155.55 292.15 152.85 294.85 149.25 294.85 L9.0 294.85 Q5.4 294.85 2.7 292.15 0.0 289.45 0.0 285.85 L0.0 9.0 Q0.0 5.4 2.7 2.7 5.4 0.0 9.0 0.0 L149.25 0.0 Q152.85 0.0 155.55 2.7" fill="#ffffec" fill-opacity="0.14901961" fill-rule="evenodd" stroke="none"/>
    <path d="M156.25 9.0 L156.25 285.85 Q156.25 288.65 154.15 290.75 152.05 292.85 149.25 292.85 L9.0 292.85 Q6.2 292.85 4.1 290.75 2.0 288.65 2.0 285.85 L2.0 9.0 Q2.0 6.2 4.1 4.1 6.2 2.0 9.0 2.0 L149.25 2.0 Q152.05 2.0 154.15 4.1 156.25 6.2 156.25 9.0 M155.25 9.0 Q155.25 6.6 153.45 4.8 151.65 3.0 149.25 3.0 L9.0 3.0 Q6.6 3.0 4.8 4.8 3.0 6.6 3.0 9.0 L3.0 285.85 Q3.0 288.25 4.8 290.05 6.6 291.85 9.0 291.85 L149.25 291.85 Q151.65 291.85 153.45 290.05 155.25 288.25 155.25 285.85 L155.25 9.0" fill="#ffffec" fill-opacity="0.3019608" fill-rule="evenodd" stroke="none"/>
    <path d="M155.25 9.0 L155.25 285.85 Q155.25 288.25 153.45 290.05 151.65 291.85 149.25 291.85 L9.0 291.85 Q6.6 291.85 4.8 290.05 3.0 288.25 3.0 285.85 L3.0 9.0 Q3.0 6.6 4.8 4.8 6.6 3.0 9.0 3.0 L149.25 3.0 Q151.65 3.0 153.45 4.8 155.25 6.6 155.25 9.0 M154.25 9.0 Q154.25 7.0 152.75 5.5 151.25 4.0 149.25 4.0 L9.0 4.0 Q7.0 4.0 5.5 5.5 4.0 7.0 4.0 9.0 L4.0 285.85 Q4.0 287.85 5.5 289.35 7.0 290.85 9.0 290.85 L149.25 290.85 Q151.25 290.85 152.75 289.35 154.25 287.85 154.25 285.85 L154.25 9.0" fill="#ffffec" fill-opacity="0.43137255" fill-rule="evenodd" stroke="none"/>
    <path d="M154.25 9.0 L154.25 285.85 Q154.25 287.85 152.75 289.35 151.25 290.85 149.25 290.85 L9.0 290.85 Q7.0 290.85 5.5 289.35 4.0 287.85 4.0 285.85 L4.0 9.0 Q4.0 7.0 5.5 5.5 7.0 4.0 9.0 4.0 L149.25 4.0 Q151.25 4.0 152.75 5.5 154.25 7.0 154.25 9.0 M153.25 9.0 Q153.25 7.4 152.05 6.2 150.85 5.0 149.25 5.0 L9.0 5.0 Q7.4 5.0 6.2 6.2 5.0 7.4 5.0 9.0 L5.0 285.85 Q5.0 287.45 6.2 288.65 7.4 289.85 9.0 289.85 L149.25 289.85 Q150.85 289.85 152.05 288.65 153.25 287.45 153.25 285.85 L153.25 9.0" fill="#ffffec" fill-opacity="0.5686275" fill-rule="evenodd" stroke="none"/>
    <path d="M153.25 9.0 L153.25 285.85 Q153.25 287.45 152.05 288.65 150.85 289.85 149.25 289.85 L9.0 289.85 Q7.4 289.85 6.2 288.65 5.0 287.45 5.0 285.85 L5.0 9.0 Q5.0 7.4 6.2 6.2 7.4 5.0 9.0 5.0 L149.25 5.0 Q150.85 5.0 152.05 6.2 153.25 7.4 153.25 9.0 M151.35 6.9 Q150.45 6.0 149.25 6.0 L9.0 6.0 Q7.8 6.0 6.9 6.9 6.0 7.8 6.0 9.0 L6.0 285.85 Q6.0 287.05 6.9 287.95 7.8 288.85 9.0 288.85 L149.25 288.85 Q150.45 288.85 151.35 287.95 152.25 287.05 152.25 285.85 L152.25 9.0 Q152.25 7.8 151.35 6.9" fill="#ffffec" fill-opacity="0.6313726" fill-rule="evenodd" stroke="none"/>
    <path d="M151.35 6.9 Q152.25 7.8 152.25 9.0 L152.25 285.85 Q152.25 287.05 151.35 287.95 150.45 288.85 149.25 288.85 L9.0 288.85 Q7.8 288.85 6.9 287.95 6.0 287.05 6.0 285.85 L6.0 9.0 Q6.0 7.8 6.9 6.9 7.8 6.0 9.0 6.0 L149.25 6.0 Q150.45 6.0 151.35 6.9 M151.25 9.0 Q151.25 8.2 150.65 7.6 150.05 7.0 149.25 7.0 L9.0 7.0 Q8.2 7.0 7.6 7.6 7.0 8.2 7.0 9.0 L7.0 285.85 Q7.0 286.65 7.6 287.25 8.2 287.85 9.0 287.85 L149.25 287.85 Q150.05 287.85 150.65 287.25 151.25 286.65 151.25 285.85 L151.25 9.0" fill="#ffffec" fill-opacity="0.7607843" fill-rule="evenodd" stroke="none"/>
    <path d="M151.25 9.0 L151.25 285.85 Q151.25 286.65 150.65 287.25 150.05 287.85 149.25 287.85 L9.0 287.85 Q8.2 287.85 7.6 287.25 7.0 286.65 7.0 285.85 L7.0 9.0 Q7.0 8.2 7.6 7.6 8.2 7.0 9.0 7.0 L149.25 7.0 Q150.05 7.0 150.65 7.6 151.25 8.2 151.25 9.0 M150.25 9.0 L149.95 8.3 Q149.65 8.0 149.25 8.0 L9.0 8.0 Q8.6 8.0 8.3 8.3 8.0 8.6 8.0 9.0 L8.0 285.85 Q8.0 286.25 8.3 286.55 L9.0 286.85 149.25 286.85 Q149.65 286.85 149.95 286.55 L150.25 285.85 150.25 9.0" fill="#ffffd5" fill-rule="evenodd" stroke="none"/>
    <path d="M150.25 9.0 L150.25 285.85 149.95 286.55 Q149.65 286.85 149.25 286.85 L9.0 286.85 8.3 286.55 Q8.0 286.25 8.0 285.85 L8.0 9.0 Q8.0 8.6 8.3 8.3 8.6 8.0 9.0 8.0 L149.25 8.0 Q149.65 8.0 149.95 8.3 L150.25 9.0 M149.25 9.0 L9.0 9.0 9.0 285.85 149.25 285.85 149.25 9.0" fill="#ffffb0" fill-rule="evenodd" stroke="none"/>
    <path d="M148.25 10.0 L10.0 10.0 10.0 284.85 148.25 284.85 148.25 10.0 M149.25 9.0 L149.25 285.85 9.0 285.85 9.0 9.0 149.25 9.0" fill="#ffff6f" fill-rule="evenodd" stroke="none"/>
    <path d="M86.15 27.6 Q89.0 25.2 89.0 21.8 89.0 18.4 86.15 15.95 83.3 13.55 79.25 13.55 75.2 13.55 72.35 15.95 69.5 18.4 69.5 21.8 69.5 25.2 72.35 27.6 75.2 30.05 79.25 30.05 83.3 30.05 86.15 27.6 M148.25 10.0 L148.25 284.85 10.0 284.85 10.0 10.0 148.25 10.0" fill="#ffff00" fill-rule="evenodd" stroke="none"/>
  </g>
</svg>
