<?xml version="1.0" encoding="UTF-8" standalone="no"?>
<svg xmlns:ffdec="https://www.free-decompiler.com/flash" xmlns:xlink="http://www.w3.org/1999/xlink" ffdec:objectType="shape" height="5.8px" width="5.8px" xmlns="http://www.w3.org/2000/svg">
  <g transform="matrix(1.0, 0.0, 0.0, 1.0, 3.3, 3.75)">
    <path d="M2.0 -0.85 Q2.0 0.15 1.3 0.85 0.6 1.55 -0.4 1.55 -1.4 1.55 -2.1 0.85 -2.8 0.15 -2.8 -0.85 -2.8 -1.85 -2.1 -2.55 -1.4 -3.25 -0.4 -3.25 0.6 -3.25 1.3 -2.55 2.0 -1.85 2.0 -0.85" fill="#999999" fill-rule="evenodd" stroke="none"/>
    <path d="M2.0 -0.85 Q2.0 0.15 1.3 0.85 0.6 1.55 -0.4 1.55 -1.4 1.55 -2.1 0.85 -2.8 0.15 -2.8 -0.85 -2.8 -1.85 -2.1 -2.55 -1.4 -3.25 -0.4 -3.25 0.6 -3.25 1.3 -2.55 2.0 -1.85 2.0 -0.85 Z" fill="none" stroke="#666666" stroke-linecap="round" stroke-linejoin="round" stroke-width="1.0"/>
  </g>
</svg>
