<?xml version="1.0" encoding="UTF-8" standalone="no"?>
<svg xmlns:ffdec="https://www.free-decompiler.com/flash" xmlns:xlink="http://www.w3.org/1999/xlink" ffdec:objectType="shape" height="25.8px" width="39.9px" xmlns="http://www.w3.org/2000/svg">
  <g transform="matrix(1.0, 0.0, 0.0, 1.0, 19.95, 12.9)">
    <path d="M-13.25 -11.3 Q-12.35 -12.05 -11.1 -11.8 L-10.95 -11.8 -12.5 -11.55 -13.25 -11.3 M-4.3 -5.4 Q-5.65 -4.7 -5.5 -3.7 -9.65 -5.05 -12.35 -6.65 L-13.45 -7.6 Q-13.25 -7.65 -13.15 -7.75 L-12.7 -8.3 Q-11.85 -9.0 -7.1 -7.25 -6.2 -6.9 -4.3 -5.4 M-8.45 -0.75 L-9.25 0.4 Q-10.1 1.3 -11.35 1.5 L-13.65 1.85 -13.65 1.9 -17.95 1.8 -18.2 1.8 -18.3 1.7 -18.5 1.5 -17.65 1.6 Q-16.9 1.25 -15.95 -0.05 L-14.85 -1.6 -8.45 -0.75 M6.25 -1.45 L6.3 -1.35 6.1 -1.45 6.25 -1.45 M7.3 2.3 L7.2 2.6 7.0 2.95 Q6.9 3.1 6.95 3.35 L6.85 3.4 6.75 3.7 6.55 3.9 Q4.3 7.45 0.15 8.15 L0.6 7.65 Q-2.4 3.75 -2.9 2.05 0.25 0.95 5.15 2.0 L7.3 2.3 M-1.45 8.3 L-3.3 8.05 -3.4 7.75 -2.75 8.0 -1.95 8.25 -1.45 8.3 M10.05 -0.2 Q12.75 -0.95 15.55 -0.9 16.9 -0.9 17.75 0.15 L17.8 0.15 Q19.2 1.8 18.85 4.0 18.6 5.2 17.9 5.9 L16.35 6.9 14.65 5.7 Q14.4 5.4 13.9 2.65 13.45 0.2 12.35 -0.2 L11.1 -0.35 Q10.8 0.3 10.65 1.0 L10.05 -0.2 M-8.85 5.8 L-8.45 7.6 -9.8 8.7 Q-12.0 10.55 -13.95 11.05 L-16.85 11.6 -17.65 11.5 -17.25 11.6 -17.15 10.9 Q-16.2 8.4 -11.75 6.85 L-8.85 5.8 M-18.65 7.55 L-18.55 7.35 -18.55 7.3 Q-18.05 6.4 -17.2 5.85 L-15.45 5.1 -18.65 7.55" fill="#ffcc99" fill-rule="evenodd" stroke="none"/>
    <path d="M-13.25 -11.3 L-12.5 -11.55 -10.95 -11.8 -10.9 -11.8 -9.7 -11.5 -6.65 -9.7 -6.6 -9.7 -3.95 -7.15 -3.45 -5.7 -3.6 -5.65 -4.3 -5.4 Q-6.2 -6.9 -7.1 -7.25 -11.85 -9.0 -12.7 -8.3 L-13.15 -7.75 Q-13.25 -7.65 -13.45 -7.6 L-13.8 -8.25 -14.1 -8.95 -14.15 -9.15 Q-14.35 -10.05 -13.85 -10.65 L-13.8 -10.75 -13.25 -11.3 M-18.5 1.5 L-18.55 1.5 -18.7 1.0 -18.65 0.55 Q-18.15 -2.7 -15.2 -3.85 -13.25 -4.6 -11.25 -3.55 L-11.05 -3.5 -10.85 -3.3 -8.0 -1.7 -8.45 -0.75 -14.85 -1.6 -15.95 -0.05 Q-16.9 1.25 -17.65 1.6 L-18.5 1.5 M-3.3 8.05 L-4.55 7.65 Q-5.75 7.15 -6.65 6.45 L-6.8 6.35 -6.95 6.15 Q-8.1 5.0 -8.15 3.4 L-8.25 3.1 -8.15 2.9 -8.2 2.55 -8.1 2.3 Q-7.8 0.05 -6.8 -1.7 L-6.8 -1.75 -6.65 -2.1 -6.7 -2.35 -6.6 -2.35 -6.25 -2.55 Q-5.05 -4.25 -2.85 -4.85 L-2.65 -4.95 -2.45 -5.0 Q0.3 -5.4 3.0 -4.1 L3.85 -3.65 4.05 -3.6 4.2 -3.4 Q5.3 -2.8 6.0 -1.75 L6.1 -1.65 6.15 -1.6 6.25 -1.45 6.1 -1.45 1.85 -1.65 Q-4.75 -1.55 -5.9 1.55 -6.4 2.85 -4.65 5.2 -3.8 6.35 -3.4 7.75 L-3.3 8.05 M10.05 -0.2 L10.65 1.0 12.4 4.6 Q12.2 5.1 13.75 6.7 L14.2 7.15 14.1 7.15 14.0 7.15 Q12.6 7.15 11.6 6.3 L11.55 6.3 Q10.3 5.3 8.8 2.2 L8.6 0.85 8.55 0.35 8.55 0.25 8.75 0.2 10.05 -0.2 M-15.45 5.1 L-14.35 4.8 -11.4 4.2 -9.15 3.6 -9.1 3.95 -9.1 4.25 -8.85 5.8 -11.75 6.85 Q-16.2 8.4 -17.15 10.9 L-17.25 11.6 -17.65 11.5 -17.9 11.35 -17.95 11.3 -18.45 10.45 Q-19.3 8.95 -18.65 7.55 L-15.45 5.1" fill="#db9c64" fill-rule="evenodd" stroke="none"/>
    <path d="M-10.95 -11.8 L-11.1 -11.8 Q-12.35 -12.05 -13.25 -11.3 L-13.8 -10.75 -13.85 -10.65 Q-14.35 -10.05 -14.15 -9.15 L-14.1 -8.95 -13.8 -8.25 -13.45 -7.6 -12.35 -6.65 Q-9.65 -5.05 -5.5 -3.7 -5.65 -4.7 -4.3 -5.4 L-3.6 -5.65 -3.45 -5.7 -3.95 -7.15 -6.6 -9.7 -6.65 -9.7 -9.7 -11.5 -10.9 -11.8 -10.95 -11.8 M-8.45 -0.75 L-8.0 -1.7 -10.85 -3.3 -11.05 -3.5 -11.25 -3.55 Q-13.25 -4.6 -15.2 -3.85 -18.15 -2.7 -18.65 0.55 L-18.7 1.0 -18.55 1.5 -18.5 1.5 -18.3 1.7 -18.2 1.8 -17.95 1.8 -13.65 1.9 -13.65 1.85 -11.35 1.5 Q-10.1 1.3 -9.25 0.4 L-8.45 -0.75 M13.95 8.15 Q12.25 8.15 10.95 7.1 L10.95 7.05 Q9.55 6.0 8.5 4.75 L8.45 4.75 Q8.05 4.25 7.5 4.25 L6.2 6.3 Q4.9 8.2 1.15 8.85 -2.6 9.45 -4.3 8.8 L-6.9 7.5 -6.95 7.6 -9.2 9.5 Q-11.5 11.4 -14.35 12.5 L-15.95 12.9 -16.0 12.9 Q-17.3 12.9 -18.3 12.2 L-18.35 12.15 -19.3 10.95 Q-20.55 8.8 -19.45 6.85 -18.8 5.65 -17.7 5.0 -16.25 4.2 -14.55 3.8 L-11.55 3.25 -11.5 3.2 -9.6 2.65 -11.15 2.5 -11.2 2.5 -13.4 2.85 Q-15.9 3.6 -18.3 2.75 L-18.5 2.6 -18.9 2.5 Q-19.9 1.8 -19.65 0.4 -19.05 -3.45 -15.55 -4.8 -13.2 -5.7 -10.8 -4.45 L-10.6 -4.25 -10.35 -4.15 -9.2 -3.5 -10.3 -4.2 -10.8 -4.5 -12.85 -5.75 -12.9 -5.75 Q-14.75 -6.9 -15.15 -8.95 -15.4 -10.3 -14.65 -11.3 -13.2 -13.2 -10.95 -12.85 -8.15 -12.4 -5.95 -10.45 L-6.0 -10.45 -3.2 -7.85 -3.25 -7.85 -2.3 -6.85 -2.2 -6.45 -2.4 -6.15 -2.3 -6.0 Q0.2 -6.3 2.55 -5.4 L3.4 -5.0 3.95 -4.7 3.95 -4.85 3.9 -4.9 4.55 -4.45 4.5 -4.45 4.4 -4.45 4.5 -4.35 4.75 -4.3 4.85 -4.2 5.6 -3.65 5.95 -3.4 6.0 -3.35 6.55 -2.75 6.65 -2.85 7.55 -2.1 7.95 -1.3 7.9 -1.3 8.2 -0.7 Q11.8 -1.95 15.55 -1.9 L15.6 -1.9 Q17.35 -1.85 18.5 -0.5 L18.55 -0.5 Q20.25 1.5 19.85 4.15 19.55 5.7 18.6 6.65 16.65 8.4 13.95 8.15 M6.25 -1.45 L6.15 -1.6 6.1 -1.65 6.0 -1.75 Q5.3 -2.8 4.2 -3.4 L4.05 -3.6 3.85 -3.65 3.0 -4.1 Q0.3 -5.4 -2.45 -5.0 L-2.65 -4.95 -2.85 -4.85 Q-5.05 -4.25 -6.25 -2.55 L-6.6 -2.35 -6.7 -2.35 -6.65 -2.1 -6.8 -1.75 -6.8 -1.7 Q-7.8 0.05 -8.1 2.3 L-8.2 2.55 -8.15 2.9 -8.25 3.1 -8.15 3.4 Q-8.1 5.0 -6.95 6.15 L-6.8 6.35 -6.65 6.45 Q-5.75 7.15 -4.55 7.65 L-3.3 8.05 -1.45 8.3 -0.8 8.3 -0.5 8.25 -0.3 8.25 0.15 8.15 Q4.3 7.45 6.55 3.9 L6.75 3.7 6.85 3.4 6.95 3.35 Q6.9 3.1 7.0 2.95 L7.2 2.6 7.3 2.3 7.55 1.55 7.6 0.95 7.4 0.4 6.9 -0.5 6.65 -0.75 6.3 -1.35 6.25 -1.45 M16.35 6.9 L17.9 5.9 Q18.6 5.2 18.85 4.0 19.2 1.8 17.8 0.15 L17.75 0.15 Q16.9 -0.9 15.55 -0.9 12.75 -0.95 10.05 -0.2 L8.75 0.2 8.55 0.25 8.55 0.35 8.6 0.85 8.8 2.2 Q10.3 5.3 11.55 6.3 L11.6 6.3 Q12.6 7.15 14.0 7.15 L14.1 7.15 14.2 7.15 16.35 6.9 M-8.85 5.8 L-9.1 4.25 -9.1 3.95 -9.15 3.6 -11.4 4.2 -14.35 4.8 -15.45 5.1 -17.2 5.85 Q-18.05 6.4 -18.55 7.3 L-18.55 7.35 -18.65 7.55 Q-19.3 8.95 -18.45 10.45 L-17.95 11.3 -17.9 11.35 -17.65 11.5 -16.85 11.6 -13.95 11.05 Q-12.0 10.55 -9.8 8.7 L-8.45 7.6 -8.85 5.8" fill="#663300" fill-rule="evenodd" stroke="none"/>
    <path d="M4.85 -4.2 L5.95 -3.4 5.6 -3.65 4.85 -4.2 M13.95 8.15 L14.0 8.15 13.95 8.15" fill="#333333" fill-rule="evenodd" stroke="none"/>
    <path d="M6.3 -1.35 L6.65 -0.75 6.9 -0.5 7.4 0.4 7.6 0.95 7.55 1.55 7.3 2.3 5.15 2.0 Q0.25 0.95 -2.9 2.05 -2.4 3.75 0.6 7.65 L0.15 8.15 -0.3 8.25 -0.5 8.25 -0.8 8.3 -1.45 8.3 -1.95 8.25 -2.75 8.0 -3.4 7.75 Q-3.8 6.35 -4.65 5.2 -6.4 2.85 -5.9 1.55 -4.75 -1.55 1.85 -1.65 L6.1 -1.45 6.3 -1.35 M10.65 1.0 Q10.8 0.3 11.1 -0.35 L12.35 -0.2 Q13.45 0.2 13.9 2.65 14.4 5.4 14.65 5.7 L16.35 6.9 14.2 7.15 13.75 6.7 Q12.2 5.1 12.4 4.6 L10.65 1.0" fill="#f1ba87" fill-rule="evenodd" stroke="none"/>
  </g>
</svg>
