<?xml version="1.0" encoding="UTF-8" standalone="no"?>
<svg xmlns:ffdec="https://www.free-decompiler.com/flash" xmlns:xlink="http://www.w3.org/1999/xlink" ffdec:objectType="shape" height="28.25px" width="42.1px" xmlns="http://www.w3.org/2000/svg">
  <g transform="matrix(1.0, 0.0, 0.0, 1.0, 12.95, 12.9)">
    <path d="M14.6 11.25 L14.65 11.55 Q14.55 11.4 14.2 11.35 L14.6 11.25" fill="#9b4e00" fill-rule="evenodd" stroke="none"/>
    <path d="M21.9 12.5 L21.95 12.5 21.9 12.5" fill="#ffffff" fill-rule="evenodd" stroke="none"/>
    <path d="M10.8 13.0 L10.8 13.6 10.8 13.0" fill="#8a4500" fill-rule="evenodd" stroke="none"/>
    <path d="M-6.75 -8.0 Q-3.55 -10.5 1.65 -11.4 9.8 -12.75 17.5 -9.45 27.4 -5.15 28.0 4.85 21.6 9.1 12.35 10.2 L11.95 9.5 10.25 9.3 10.9 9.0 10.85 7.9 5.0 6.75 Q-0.85 5.7 -4.05 2.6 -6.55 0.1 -6.65 -5.3 L-6.75 -8.0" fill="#cccccc" fill-rule="evenodd" stroke="none"/>
    <path d="M-6.75 -8.0 L-6.65 -5.3 Q-6.55 0.1 -4.05 2.6 -0.85 5.7 5.0 6.75 L10.85 7.9 10.9 9.0 10.25 9.3 11.95 9.5 12.35 10.2 10.7 10.35 Q0.35 11.25 -10.95 5.95 L-11.85 5.0 -11.9 4.7 -11.9 4.5 -11.85 3.2 -11.85 3.0 Q-11.7 0.1 -10.9 -2.2 L-10.75 -2.5 -10.65 -2.7 -10.6 -2.85 -9.75 -4.55 -9.65 -4.8 Q-8.5 -6.65 -6.75 -8.0" fill="#999999" fill-rule="evenodd" stroke="none"/>
    <path d="M17.95 -10.45 Q28.7 -5.8 29.15 5.1 L29.1 5.2 Q27.95 11.0 22.4 13.5 L22.35 13.5 21.5 13.85 21.4 14.2 21.05 14.4 Q8.0 16.65 -5.1 13.55 -10.8 12.2 -12.6 6.7 L-12.6 6.65 -12.95 5.35 -12.95 5.2 Q-13.45 -10.0 1.45 -12.45 9.95 -13.9 17.95 -10.45 M12.35 10.2 Q21.6 9.1 28.0 4.85 27.4 -5.15 17.5 -9.45 9.8 -12.75 1.65 -11.4 -3.55 -10.5 -6.75 -8.0 -8.5 -6.65 -9.65 -4.8 L-9.75 -4.55 -10.6 -2.85 -10.65 -2.7 -10.75 -2.5 -10.9 -2.2 Q-11.7 0.1 -11.85 3.0 L-11.85 3.2 -11.9 4.5 -11.9 4.7 -11.85 5.0 -10.95 5.95 Q0.35 11.25 10.7 10.35 L12.35 10.2 M21.9 12.5 Q26.3 10.55 27.65 6.35 21.55 10.05 14.6 11.25 L14.2 11.35 11.6 11.7 Q-0.75 12.8 -11.35 6.95 -9.65 11.35 -0.8 12.65 L10.8 13.6 20.35 13.45 20.6 13.15 Q21.25 12.75 21.9 12.5 L21.95 12.5 21.9 12.5" fill="#333333" fill-rule="evenodd" stroke="none"/>
    <path d="M14.6 11.25 Q21.55 10.05 27.65 6.35 26.3 10.55 21.9 12.5 21.25 12.75 20.6 13.15 L20.35 13.45 10.8 13.6 10.8 13.0 14.7 12.75 Q15.3 12.1 14.65 11.55 L14.6 11.25" fill="#666666" fill-rule="evenodd" stroke="none"/>
    <path d="M14.65 11.55 Q15.3 12.1 14.7 12.75 L10.8 13.0 10.8 13.6 -0.8 12.65 Q-9.65 11.35 -11.35 6.95 -0.75 12.8 11.6 11.7 L14.2 11.35 Q14.55 11.4 14.65 11.55" fill="#595959" fill-rule="evenodd" stroke="none"/>
    <path d="M11.2 -11.5 L11.85 -11.55 12.45 -11.3 12.5 -11.15 Q9.7 -10.35 7.85 -8.4 4.8 -5.35 4.15 -5.35 1.8 -5.35 2.1 -7.25 2.1 -8.35 3.9 -10.3 5.9 -12.4 8.0 -12.75 L8.5 -12.7 8.6 -12.4 8.25 -12.2 8.1 -12.2 Q7.05 -12.2 5.15 -10.7 3.65 -9.5 3.15 -8.2 L2.9 -7.35 2.9 -7.15 2.9 -6.85 Q2.9 -6.05 4.0 -6.05 L4.2 -6.2 Q4.85 -6.35 7.0 -8.85 L8.0 -9.85 8.7 -10.45 Q9.55 -11.1 10.55 -10.95 11.2 -10.85 11.2 -11.4 L11.2 -11.5 M16.85 -9.6 L17.4 -9.65 18.05 -9.6 18.15 -9.25 14.95 -7.9 Q14.45 -7.65 12.75 -6.2 L11.3 -4.6 Q9.85 -3.25 8.65 -3.25 7.65 -3.25 7.35 -3.9 L7.25 -4.6 Q9.65 -10.95 14.0 -10.95 L14.25 -10.8 14.3 -10.65 12.8 -9.8 Q7.75 -7.2 7.75 -4.55 7.75 -3.95 8.5 -3.95 8.8 -3.95 9.35 -4.3 10.45 -4.85 12.5 -6.85 L13.55 -7.8 Q14.85 -8.65 16.85 -9.6" fill="#595959" fill-rule="evenodd" stroke="none"/>
    <path d="M8.25 -12.2 Q11.0 -12.2 11.2 -11.5 L11.2 -11.4 Q11.2 -10.85 10.55 -10.95 9.55 -11.1 8.7 -10.45 L8.0 -9.85 6.95 -8.95 4.2 -6.2 4.0 -6.05 Q2.9 -6.05 2.9 -6.85 L2.9 -7.15 3.15 -8.2 Q3.65 -9.5 5.15 -10.7 7.05 -12.2 8.1 -12.2 L8.25 -12.2 M16.85 -9.6 Q14.85 -8.65 13.55 -7.8 L12.0 -6.65 9.35 -4.3 Q8.8 -3.95 8.5 -3.95 7.75 -3.95 7.75 -4.55 7.75 -7.2 12.8 -9.8 L14.7 -10.7 16.2 -10.25 Q16.95 -9.85 16.95 -9.65 L16.85 -9.6" fill="#999999" fill-rule="evenodd" stroke="none"/>
    <path d="M-6.5 -1.45 L-6.45 -1.35 -6.5 -0.75 -6.45 0.25 -6.55 -1.0 -6.5 -1.45 M-6.05 -2.15 Q-6.25 -3.3 -4.6 -3.3 -0.7 -3.3 -0.7 -0.65 -0.1 1.95 -3.65 1.95 L-3.9 1.95 -6.05 -2.15" fill="#cc6600" fill-rule="evenodd" stroke="none"/>
    <path d="M-6.5 -1.45 L-6.5 -2.05 Q-6.5 -3.95 -4.6 -3.95 0.0 -3.95 0.0 -0.55 0.0 2.7 -3.6 2.7 -4.9 2.7 -5.2 2.3 -6.25 2.0 -6.45 0.25 L-6.5 -0.75 -6.45 -1.35 -6.5 -1.45 M-6.05 -2.15 L-3.9 1.95 -3.65 1.95 Q-0.1 1.95 -0.7 -0.65 -0.7 -3.3 -4.6 -3.3 -6.25 -3.3 -6.05 -2.15" fill="#b35900" fill-rule="evenodd" stroke="none"/>
  </g>
</svg>
