<?xml version="1.0" encoding="UTF-8" standalone="no"?>
<svg xmlns:ffdec="https://www.free-decompiler.com/flash" xmlns:xlink="http://www.w3.org/1999/xlink" ffdec:objectType="shape" height="31.35px" width="35.25px" xmlns="http://www.w3.org/2000/svg">
  <g transform="matrix(1.0, 0.0, 0.0, 1.0, 17.6, 15.7)">
    <path d="M-10.5 -11.5 Q-12.05 -11.5 -12.05 -9.05 L-12.5 -8.9 Q-13.65 -8.9 -13.65 -10.4 -13.65 -11.05 -12.8 -11.95 -11.95 -12.9 -11.25 -12.9 -10.05 -12.9 -9.75 -12.5 L-9.5 -11.8 -10.15 -11.3 -10.5 -11.5" fill="#660000" fill-rule="evenodd" stroke="none"/>
    <path d="M-6.45 -13.05 Q-3.55 -14.45 -0.35 -14.45 6.35 -14.45 10.55 -10.4 L13.1 -7.25 Q14.55 -4.95 15.45 -2.05 L16.15 0.75 15.5 0.2 12.5 0.05 Q0.1 0.05 -6.45 5.05 -10.85 2.95 -10.85 -1.1 -10.85 -4.9 -8.65 -8.9 L-6.45 -13.0 -6.45 -13.05" fill="#0058b0" fill-rule="evenodd" stroke="none"/>
    <path d="M-6.45 -13.05 L-6.6 -12.95 -6.9 -12.8 -7.05 -12.7 -7.2 -12.65 -7.35 -12.55 -7.45 -12.5 -7.55 -12.4 -7.95 -12.2 -8.05 -12.1 -9.05 -11.4 -9.2 -11.3 -10.35 -10.35 -11.6 -9.2 -13.5 -6.95 -14.95 -4.5 Q-16.1 -2.25 -16.1 -0.05 -16.1 10.1 -12.9 14.25 -11.65 9.95 -8.25 6.6 L-7.85 6.25 -7.2 5.65 -6.45 5.05 Q0.1 0.05 12.5 0.05 L15.5 0.2 16.15 0.75 15.45 -2.05 Q14.55 -4.95 13.1 -7.25 L10.55 -10.4 Q6.35 -14.45 -0.35 -14.45 -3.55 -14.45 -6.45 -13.05 M-14.55 -7.85 Q-9.95 -15.2 -0.5 -15.65 L0.75 -15.7 Q6.2 -15.7 11.0 -10.9 L13.1 -8.5 13.75 -7.6 Q17.25 -2.9 17.65 0.7 L17.65 2.15 17.0 2.65 Q16.6 2.65 15.9 2.0 15.2 1.3 12.5 1.3 -0.8 1.3 -7.4 8.5 -9.0 10.2 -10.9 13.4 L-12.3 15.3 Q-12.65 15.65 -12.95 15.65 L-13.25 15.65 Q-16.75 15.05 -17.6 1.45 L-17.5 -0.15 Q-17.2 -2.5 -16.1 -4.95 L-14.55 -7.85" fill="#003333" fill-rule="evenodd" stroke="none"/>
    <path d="M-6.45 5.05 L-7.2 5.65 -7.85 6.25 -8.25 6.6 Q-11.65 9.95 -12.9 14.25 -16.1 10.1 -16.1 -0.05 -16.1 -2.25 -14.95 -4.5 L-13.5 -6.95 -11.6 -9.2 -10.35 -10.35 -9.2 -11.3 -9.05 -11.4 -8.05 -12.1 -7.95 -12.2 -7.55 -12.4 -7.45 -12.5 -7.35 -12.55 -7.2 -12.65 -7.05 -12.7 -6.9 -12.8 -6.6 -12.95 -6.45 -13.05 -6.45 -13.0 -8.65 -8.9 Q-10.85 -4.9 -10.85 -1.1 -10.85 2.95 -6.45 5.05" fill="#004993" fill-rule="evenodd" stroke="none"/>
  </g>
</svg>
