<?xml version="1.0" encoding="UTF-8" standalone="no"?>
<svg xmlns:ffdec="https://www.free-decompiler.com/flash" xmlns:xlink="http://www.w3.org/1999/xlink" ffdec:objectType="shape" height="17.0px" width="42.5px" xmlns="http://www.w3.org/2000/svg">
  <g transform="matrix(1.0, 0.0, 0.0, 1.0, 21.15, 8.65)">
    <path d="M-16.7 3.35 L-12.45 -0.45 -7.15 -4.15 -5.6 -5.0 -3.35 -6.05 1.1 -7.35 1.75 -7.45 1.8 -7.45 4.25 -7.65 Q14.7 -7.65 18.15 -5.5 19.3 -4.8 19.65 -3.85 L19.9 -2.8 20.5 -0.55 19.75 -1.9 Q17.75 -5.0 13.5 -5.65 L11.25 -5.8 9.95 -5.7 11.0 -5.75 9.75 -5.65 7.55 -5.6 7.5 -5.55 6.7 -5.45 6.55 -5.45 Q1.55 -4.5 -2.9 0.55 L-3.05 0.75 Q-8.65 3.35 -15.15 3.35 L-16.7 3.35 M-19.25 6.85 L-19.45 6.8 -19.65 6.65 -19.75 6.55 -19.55 6.3 -18.15 6.65 -19.0 6.7 -19.25 6.85" fill="#cc0000" fill-rule="evenodd" stroke="none"/>
    <path d="M-0.65 -0.05 L-1.05 -0.1 -0.7 -0.45 -0.45 -0.75 -1.1 -0.1 -0.65 -0.05 M-3.05 0.75 L-2.9 0.55 Q1.55 -4.5 6.55 -5.45 L6.7 -5.45 7.5 -5.55 7.55 -5.6 9.75 -5.65 11.0 -5.75 9.95 -5.7 11.25 -5.8 13.5 -5.65 Q17.75 -5.0 19.75 -1.9 L20.5 -0.55 19.9 -2.8 19.65 -3.85 Q19.3 -4.8 18.15 -5.5 14.7 -7.65 4.25 -7.65 L1.8 -7.45 1.75 -7.45 1.1 -7.35 -3.35 -6.05 -5.6 -5.0 -7.15 -4.15 -12.45 -0.45 -16.7 3.35 -17.35 3.95 -19.15 5.85 -19.55 6.3 -19.75 6.55 -19.8 6.55 -19.65 6.65 -19.45 6.8 -19.25 6.85 -13.5 7.35 -12.75 7.35 -11.25 7.1 Q-9.2 6.6 -7.4 5.2 L-3.05 0.75 M13.75 -4.85 Q7.9 -1.05 5.75 0.7 L3.85 2.45 4.85 3.2 Q7.45 5.2 9.15 6.9 10.65 6.0 14.15 5.0 20.25 3.3 20.25 2.35 20.25 0.6 18.75 -1.65 16.9 -4.5 13.75 -4.85 M21.35 -0.45 L21.1 2.45 20.85 3.35 Q20.05 4.6 17.15 5.35 12.6 6.55 9.95 7.75 1.05 1.9 -1.85 0.65 L-2.8 1.75 Q-5.7 5.25 -7.25 6.3 -10.35 8.35 -15.4 8.35 -19.15 8.35 -20.4 7.3 L-20.5 7.35 Q-21.0 7.25 -21.0 6.8 L-20.95 6.65 -21.15 6.3 Q-18.05 2.8 -11.65 -1.65 -1.6 -8.65 4.0 -8.65 21.35 -8.65 21.35 -0.45 M1.4 0.85 L1.55 0.95 1.6 0.85 1.4 0.85" fill="#510000" fill-rule="evenodd" stroke="none"/>
    <path d="M-0.65 -0.05 L-1.1 -0.1 -0.45 -0.75 -0.7 -0.45 -1.05 -0.1 -0.65 -0.05 M-16.7 3.35 L-15.15 3.35 Q-8.65 3.35 -3.05 0.75 L-7.4 5.2 Q-9.2 6.6 -11.25 7.1 L-12.75 7.35 -13.5 7.35 -19.25 6.85 -19.0 6.7 -18.15 6.65 -19.55 6.3 -19.15 5.85 -17.35 3.95 -16.7 3.35 M13.75 -4.85 Q16.9 -4.5 18.75 -1.65 20.25 0.6 20.25 2.35 20.25 3.3 14.15 5.0 10.65 6.0 9.15 6.9 7.45 5.2 4.85 3.2 L3.85 2.45 5.75 0.7 Q7.9 -1.05 13.75 -4.85 M1.4 0.85 L1.6 0.85 1.55 0.95 1.4 0.85" fill="#990000" fill-rule="evenodd" stroke="none"/>
  </g>
</svg>
