<?xml version="1.0" encoding="UTF-8" standalone="no"?>
<svg xmlns:ffdec="https://www.free-decompiler.com/flash" xmlns:xlink="http://www.w3.org/1999/xlink" ffdec:objectType="shape" height="7.15px" width="10.55px" xmlns="http://www.w3.org/2000/svg">
  <g transform="matrix(1.0, 0.0, 0.0, 1.0, 5.2, 3.8)">
    <path d="M1.6 -2.1 Q2.1 -2.95 2.85 -2.95 3.55 -2.95 4.05 -2.1 4.6 -1.3 4.6 -0.2 4.6 0.9 4.05 1.75 3.55 2.55 2.85 2.6 2.1 2.55 1.6 1.75 1.05 0.9 1.05 -0.2 1.05 -1.3 1.6 -2.1" fill="none" stroke="#000000" stroke-linecap="round" stroke-linejoin="round" stroke-width="1.5"/>
    <path d="M-3.9 -2.2 Q-3.4 -3.05 -2.65 -3.05 -1.95 -3.05 -1.45 -2.2 -0.9 -1.4 -0.9 -0.3 -0.9 0.8 -1.45 1.65 -1.95 2.45 -2.65 2.5 -3.4 2.45 -3.9 1.65 -4.45 0.8 -4.45 -0.3 -4.45 -1.4 -3.9 -2.2 Z" fill="none" stroke="#000000" stroke-linecap="round" stroke-linejoin="round" stroke-width="1.5"/>
  </g>
</svg>
