<?xml version="1.0" encoding="UTF-8" standalone="no"?>
<svg xmlns:ffdec="https://www.free-decompiler.com/flash" xmlns:xlink="http://www.w3.org/1999/xlink" ffdec:objectType="shape" height="14.0px" width="16.5px" xmlns="http://www.w3.org/2000/svg">
  <g transform="matrix(1.0, 0.0, 0.0, 1.0, -73.95, -5.5)">
    <path d="M86.7 5.5 L87.0 5.5 87.2 5.5 Q88.6 5.5 89.95 7.25 L84.6 12.8 90.45 18.25 90.25 18.7 Q90.8 19.0 89.55 19.0 L88.65 18.65 87.55 19.5 82.15 14.95 78.45 17.7 77.7 18.7 76.7 18.75 76.25 19.0 Q75.5 18.25 75.45 17.95 L76.85 16.6 79.8 12.9 73.95 7.95 Q73.95 7.15 74.75 6.45 L75.15 6.15 75.0 6.0 75.45 6.0 76.45 5.75 78.75 7.85 81.85 10.4 Q85.85 5.5 86.7 5.5" fill="#666666" fill-rule="evenodd" stroke="none"/>
  </g>
</svg>
