<?xml version="1.0" encoding="UTF-8" standalone="no"?>
<svg xmlns:ffdec="https://www.free-decompiler.com/flash" xmlns:xlink="http://www.w3.org/1999/xlink" ffdec:objectType="shape" height="11.5px" width="10.9px" xmlns="http://www.w3.org/2000/svg">
  <g transform="matrix(1.0, 0.0, 0.0, 1.0, 0.5, 0.15)">
    <path d="M10.2 10.35 L10.1 10.35 10.1 10.75 9.9 10.75 9.8 10.25 9.8 11.25 9.65 11.35 9.65 11.25 9.5 11.25 Q9.2 11.25 9.2 10.9 L8.95 11.35 8.9 11.35 8.15 10.85 8.15 11.3 7.7 11.25 7.55 11.25 7.45 10.95 7.45 11.25 6.8 11.3 6.7 10.0 6.65 9.95 6.65 10.65 6.6 11.15 6.4 11.25 6.15 10.05 6.1 10.9 6.05 11.0 5.95 11.05 5.85 10.6 5.7 11.0 5.5 11.1 Q5.15 10.7 5.0 10.75 4.8 10.65 4.6 9.55 L4.45 10.75 4.25 10.85 4.15 10.45 4.1 11.15 3.9 11.15 3.85 9.65 3.8 10.8 3.65 10.85 Q3.1 10.85 3.25 9.8 L3.2 9.75 3.05 10.2 2.95 10.95 2.8 11.05 2.6 10.5 2.55 10.9 2.25 10.45 2.15 10.5 2.1 10.3 2.1 10.35 2.1 10.4 1.95 10.95 1.85 11.05 1.65 10.85 1.6 11.05 1.4 11.2 1.1 10.6 1.0 10.6 0.7 10.35 0.5 10.8 0.45 11.1 0.35 11.2 0.0 10.4 0.05 8.8 -0.25 10.05 -0.5 9.75 Q-0.5 5.5 0.05 2.95 L0.0 0.7 0.1 0.65 0.2 0.85 0.25 0.85 0.25 0.55 0.35 0.55 0.55 1.0 0.55 1.2 1.0 0.3 1.3 0.3 1.35 0.6 1.0 5.15 1.75 0.6 Q1.95 0.8 1.95 1.85 L1.4 6.7 1.4 7.2 1.5 6.9 2.0 3.45 2.4 -0.15 Q2.9 0.75 3.2 2.7 L3.25 2.7 3.25 1.4 3.6 1.45 3.6 1.15 3.7 1.15 3.85 1.35 4.0 1.1 4.1 1.85 4.05 3.3 Q4.05 6.25 4.55 8.75 L4.7 8.65 4.7 7.7 4.45 5.45 4.45 4.85 4.4 4.85 4.35 4.35 4.45 2.4 4.4 1.2 4.5 1.1 4.95 2.2 5.0 2.2 5.0 1.6 5.25 1.5 Q5.8 2.85 5.7 5.5 L5.35 4.35 5.2 4.4 5.2 4.65 5.8 9.0 5.95 8.9 5.95 8.6 6.0 8.7 6.0 8.45 5.95 8.45 5.95 8.35 5.75 5.65 Q5.9 2.65 6.15 1.6 L6.4 4.45 6.45 4.45 Q6.6 2.6 6.9 2.35 7.35 4.5 7.15 9.55 L7.25 4.1 7.3 10.65 7.45 10.7 7.6 10.65 7.6 3.45 8.25 5.1 8.65 4.75 8.95 5.9 8.75 5.9 8.75 6.5 8.95 7.9 9.15 7.9 9.35 8.35 9.4 9.55 9.65 9.55 9.7 9.25 9.65 8.1 9.7 8.1 10.1 8.9 10.25 8.9 Q10.25 10.3 10.4 11.05 L10.35 11.1 10.2 11.1 10.25 10.65 10.2 10.35 M9.05 5.9 L9.25 7.15 9.3 7.5 9.25 7.55 9.0 5.95 9.05 5.9 M2.8 1.2 L2.7 1.2 2.65 1.4 2.95 7.65 3.2 7.65 3.25 6.5 3.1 4.7 3.2 3.05 3.05 4.25 2.8 1.2 M2.6 7.85 L2.55 8.5 2.65 8.2 2.6 7.85 M4.0 8.45 L3.95 7.3 3.95 8.0 3.95 8.5 4.0 8.45 M8.55 6.35 L8.35 7.7 Q8.35 9.7 8.7 9.8 L8.75 9.5 8.55 6.35" fill="#666666" fill-rule="evenodd" stroke="none"/>
    <path d="M6.7 3.65 L6.9 6.65 6.9 8.15 Q6.9 9.3 6.5 9.45 L6.35 5.65 Q6.35 4.05 6.7 3.65 M5.2 3.05 Q5.2 3.95 5.55 6.05 L5.75 9.05 5.75 9.85 5.6 9.95 5.3 6.5 Q4.95 4.05 4.95 3.0 4.95 2.55 5.2 2.4 L5.35 2.55 5.2 3.05 M4.1 2.0 L3.9 9.2 3.8 9.25 Q3.65 8.9 3.65 7.75 3.6 5.75 3.7 4.75 3.85 2.15 4.05 1.9 L4.1 2.0 M2.6 2.25 L2.35 2.25 2.35 1.95 2.4 1.8 2.55 1.8 2.6 1.85 2.6 2.25 M2.55 2.8 L2.45 2.85 2.35 2.65 Q2.35 2.35 2.6 2.35 L2.65 2.4 2.55 2.8 M1.3 2.35 Q0.85 5.5 0.9 7.8 L0.85 7.9 Q0.5 7.8 0.6 7.35 0.6 4.0 1.2 2.3 L1.3 2.35 M1.5 6.05 L1.6 6.3 1.45 7.25 1.6 7.8 1.6 8.05 1.5 8.1 1.2 7.25 1.4 6.05 1.5 6.05 M2.45 4.65 L2.55 5.2 2.3 6.4 2.0 6.4 1.95 4.9 2.0 4.85 2.2 5.05 2.25 4.65 2.45 4.65 M2.95 7.3 L3.05 7.3 3.25 9.35 3.25 9.4 2.95 9.1 2.95 7.3 M2.7 9.1 L2.5 9.15 2.45 9.0 2.45 7.3 2.55 7.3 2.7 9.1 M0.9 8.75 L0.7 9.75 0.8 9.9 0.75 10.0 0.5 9.75 Q0.3 8.75 0.85 8.65 L0.9 8.75 M1.95 8.55 L2.05 9.05 1.95 9.1 1.7 8.4 Q1.7 7.85 2.1 7.8 L1.95 8.55" fill="#999999" fill-rule="evenodd" stroke="none"/>
  </g>
</svg>
