<?xml version="1.0" encoding="UTF-8" standalone="no"?>
<svg xmlns:ffdec="https://www.free-decompiler.com/flash" xmlns:xlink="http://www.w3.org/1999/xlink" ffdec:objectType="shape" height="29.85px" width="141.15px" xmlns="http://www.w3.org/2000/svg">
  <g transform="matrix(1.0, 0.0, 0.0, 1.0, 0.0, -12.3)">
    <path d="M136.75 16.65 Q141.15 21.05 141.15 27.2 141.15 33.4 136.75 37.75 132.4 42.15 126.25 42.15 L14.95 42.15 Q8.75 42.15 4.35 37.75 0.0 33.4 0.0 27.2 0.0 21.05 4.35 16.65 8.75 12.3 14.95 12.3 L126.25 12.3 Q132.4 12.3 136.75 16.65" fill="#666666" fill-rule="evenodd" stroke="none"/>
    <path d="M136.75 16.65 Q132.4 12.3 126.25 12.3 L14.95 12.3 Q8.75 12.3 4.35 16.65 0.0 21.05 0.0 27.2 0.0 33.4 4.35 37.75 8.75 42.15 14.95 42.15 L126.25 42.15 Q132.4 42.15 136.75 37.75 141.15 33.4 141.15 27.2 141.15 21.05 136.75 16.65 Z" fill="none" stroke="#2f2b24" stroke-linecap="round" stroke-linejoin="round" stroke-width="0.05"/>
  </g>
</svg>
