<?xml version="1.0" encoding="UTF-8" standalone="no"?>
<svg xmlns:ffdec="https://www.free-decompiler.com/flash" xmlns:xlink="http://www.w3.org/1999/xlink" ffdec:objectType="shape" height="33.05px" width="32.55px" xmlns="http://www.w3.org/2000/svg">
  <g transform="matrix(1.0, 0.0, 0.0, 1.0, 16.3, 16.5)">
    <path d="M8.35 -8.0 Q6.45 -8.1 6.45 -9.55 6.45 -10.15 6.85 -10.4 7.75 -10.1 8.35 -8.1 L8.35 -8.0 M5.35 -5.6 L5.6 -6.0 5.95 -6.0 Q6.6 -6.0 6.6 -5.05 L6.6 -4.65 Q6.5 -4.5 6.35 -4.5 L5.35 -5.6 M9.75 -1.75 L10.35 -1.6 10.1 -1.25 Q9.75 -1.4 9.75 -1.75 M11.45 2.25 Q11.45 2.9 10.6 3.75 10.2 3.1 10.35 2.75 L10.6 2.15 10.0 0.75 10.7 0.65 Q11.2 0.65 11.45 2.25 M5.6 5.85 L5.0 6.0 Q4.35 6.0 4.1 5.5 L4.0 5.0 Q4.0 4.0 4.95 4.0 5.65 4.0 5.7 5.2 L5.6 5.85 M-0.3 -12.8 Q-0.3 -11.65 -1.15 -11.65 L-2.4 -11.75 -2.55 -12.6 Q-2.55 -13.9 -1.9 -13.9 0.25 -13.9 -0.3 -12.8 M-7.65 -10.6 L-6.65 -9.85 Q-6.65 -9.55 -7.35 -8.75 -8.1 -7.95 -8.65 -7.75 -8.75 -7.45 -8.75 -8.1 L-7.9 -10.5 -7.65 -10.6 M-5.15 -5.4 Q-4.05 -5.4 -4.05 -4.5 -4.05 -3.65 -4.65 -3.65 L-5.75 -3.9 -5.8 -4.55 Q-5.8 -5.4 -5.15 -5.4 M-0.9 0.4 L-0.55 0.4 Q0.15 0.4 0.2 1.45 0.2 2.25 -0.4 2.85 -1.3 2.75 -1.3 1.8 -1.3 0.9 -0.9 0.4 M-8.8 2.45 Q-8.8 3.2 -9.65 3.5 L-10.0 2.9 -10.0 1.6 -9.3 1.4 Q-8.8 1.4 -8.8 2.45 M-7.4 8.85 L-6.8 8.75 Q-6.15 8.75 -6.15 10.6 L-6.4 10.75 Q-7.5 10.55 -7.5 9.8 L-7.4 8.85 M-2.9 10.85 L-1.4 10.9 -1.3 12.0 Q-1.05 12.35 -1.65 12.35 -3.05 12.15 -3.3 11.1 L-2.9 10.85" fill="#c23c14" fill-rule="evenodd" stroke="none"/>
    <path d="M4.5 -9.45 L3.85 -8.6 3.25 -8.6 Q3.1 -8.35 3.1 -9.0 3.1 -9.6 3.85 -10.15 L4.35 -10.1 4.5 -9.45 M0.1 -3.0 L-0.75 -3.5 0.1 -4.4 Q0.95 -4.35 0.95 -3.9 0.95 -3.2 0.1 -3.0 M6.45 0.4 Q6.85 0.4 7.0 1.75 L6.6 2.15 5.75 0.75 Q5.9 0.4 6.45 0.4 M2.6 2.5 L3.0 3.0 2.6 3.4 2.1 3.1 Q2.1 2.7 2.6 2.5 M6.45 9.65 L6.8 9.25 Q7.15 8.95 7.35 9.0 L8.2 9.9 Q7.75 10.65 7.2 10.65 L6.6 10.5 Q6.45 10.3 6.45 9.65 M-3.65 -7.9 L-2.9 -7.85 -2.75 -6.75 -2.9 -6.4 -3.3 -6.35 Q-4.05 -6.35 -4.05 -7.45 L-3.65 -7.9 M-8.15 -5.1 L-8.05 -5.4 -7.55 -5.5 Q-7.0 -5.5 -7.0 -4.0 -6.9 -3.85 -7.55 -3.85 L-8.15 -4.0 -8.15 -5.1 M-6.05 3.0 Q-6.05 4.5 -7.05 4.5 L-7.65 4.35 -7.4 2.35 -7.15 2.25 Q-6.65 2.25 -6.05 3.0 M-0.5 8.3 Q-0.5 9.05 -1.3 9.15 L-1.9 9.0 -1.8 7.5 -1.3 7.4 Q-0.6 7.4 -0.5 8.3" fill="#710000" fill-rule="evenodd" stroke="none"/>
    <path d="M12.65 0.0 Q12.65 -4.4 10.15 -8.45 6.45 -14.45 -1.15 -14.45 -8.3 -14.45 -11.15 -6.2 -12.6 -2.05 -12.6 2.25 -12.6 5.95 -11.6 8.5 -9.4 14.05 -3.25 14.05 7.0 14.05 10.85 7.3 12.05 5.15 12.45 2.5 L12.65 0.0 M12.4 9.05 Q7.85 16.55 -3.15 16.55 -10.9 16.55 -13.65 9.45 -14.5 7.25 -14.75 4.55 L-14.85 2.25 Q-14.85 -3.05 -12.15 -8.45 -8.1 -16.5 -0.15 -16.5 8.3 -16.5 12.4 -8.5 14.9 -3.65 14.9 0.1 14.9 4.9 12.4 9.05" fill="#5e0000" fill-rule="evenodd" stroke="none"/>
    <path d="M8.35 -8.0 L8.35 -8.1 Q7.75 -10.1 6.85 -10.4 6.45 -10.15 6.45 -9.55 6.45 -8.1 8.35 -8.0 M0.1 -3.0 Q0.95 -3.2 0.95 -3.9 0.95 -4.35 0.1 -4.4 L-0.75 -3.5 0.1 -3.0 M4.5 -9.45 L4.35 -10.1 3.85 -10.15 Q3.1 -9.6 3.1 -9.0 3.1 -8.35 3.25 -8.6 L3.85 -8.6 4.5 -9.45 M11.45 2.25 Q11.2 0.65 10.7 0.65 L10.0 0.75 10.6 2.15 10.35 2.75 Q10.2 3.1 10.6 3.75 11.45 2.9 11.45 2.25 M9.75 -1.75 Q9.75 -1.4 10.1 -1.25 L10.35 -1.6 9.75 -1.75 M5.35 -5.6 L6.35 -4.5 Q6.5 -4.5 6.6 -4.65 L6.6 -5.05 Q6.6 -6.0 5.95 -6.0 L5.6 -6.0 5.35 -5.6 M12.65 0.0 L12.45 2.5 Q12.05 5.15 10.85 7.3 7.0 14.05 -3.25 14.05 -9.4 14.05 -11.6 8.5 -12.6 5.95 -12.6 2.25 -12.6 -2.05 -11.15 -6.2 -8.3 -14.45 -1.15 -14.45 6.45 -14.45 10.15 -8.45 12.65 -4.4 12.65 0.0 M6.45 0.4 Q5.9 0.4 5.75 0.75 L6.6 2.15 7.0 1.75 Q6.85 0.4 6.45 0.4 M5.6 5.85 L5.7 5.2 Q5.65 4.0 4.95 4.0 4.0 4.0 4.0 5.0 L4.1 5.5 Q4.35 6.0 5.0 6.0 L5.6 5.85 M6.45 9.65 Q6.45 10.3 6.6 10.5 L7.2 10.65 Q7.75 10.65 8.2 9.9 L7.35 9.0 Q7.15 8.95 6.8 9.25 L6.45 9.65 M2.6 2.5 Q2.1 2.7 2.1 3.1 L2.6 3.4 3.0 3.0 2.6 2.5 M-0.3 -12.8 Q0.25 -13.9 -1.9 -13.9 -2.55 -13.9 -2.55 -12.6 L-2.4 -11.75 -1.15 -11.65 Q-0.3 -11.65 -0.3 -12.8 M-3.65 -7.9 L-4.05 -7.45 Q-4.05 -6.35 -3.3 -6.35 L-2.9 -6.4 -2.75 -6.75 -2.9 -7.85 -3.65 -7.9 M-7.65 -10.6 L-7.9 -10.5 -8.75 -8.1 Q-8.75 -7.45 -8.65 -7.75 -8.1 -7.95 -7.35 -8.75 -6.65 -9.55 -6.65 -9.85 L-7.65 -10.6 M-8.15 -5.1 L-8.15 -4.0 -7.55 -3.85 Q-6.9 -3.85 -7.0 -4.0 -7.0 -5.5 -7.55 -5.5 L-8.05 -5.4 -8.15 -5.1 M-0.9 0.4 Q-1.3 0.9 -1.3 1.8 -1.3 2.75 -0.4 2.85 0.2 2.25 0.2 1.45 0.15 0.4 -0.55 0.4 L-0.9 0.4 M-5.15 -5.4 Q-5.8 -5.4 -5.8 -4.55 L-5.75 -3.9 -4.65 -3.65 Q-4.05 -3.65 -4.05 -4.5 -4.05 -5.4 -5.15 -5.4 M-6.05 3.0 Q-6.65 2.25 -7.15 2.25 L-7.4 2.35 -7.65 4.35 -7.05 4.5 Q-6.05 4.5 -6.05 3.0 M-7.4 8.85 L-7.5 9.8 Q-7.5 10.55 -6.4 10.75 L-6.15 10.6 Q-6.15 8.75 -6.8 8.75 L-7.4 8.85 M-8.8 2.45 Q-8.8 1.4 -9.3 1.4 L-10.0 1.6 -10.0 2.9 -9.65 3.5 Q-8.8 3.2 -8.8 2.45 M-0.5 8.3 Q-0.6 7.4 -1.3 7.4 L-1.8 7.5 -1.9 9.0 -1.3 9.15 Q-0.5 9.05 -0.5 8.3 M-2.9 10.85 L-3.3 11.1 Q-3.05 12.15 -1.65 12.35 -1.05 12.35 -1.3 12.0 L-1.4 10.9 -2.9 10.85" fill="#8a0000" fill-rule="evenodd" stroke="none"/>
    <path d="M6.65 0.75 L8.6 1.7 Q9.35 2.3 9.35 3.65 9.35 4.95 6.65 7.1 2.5 9.1 0.2 9.1 -5.1 9.1 -8.15 7.4 -10.75 5.9 -10.75 3.85 -10.75 2.3 -8.95 0.5 -6.75 -1.75 -3.5 -1.95 L-3.05 -2.0 0.65 -1.25 4.25 -0.3 6.4 0.6 6.2 0.6 6.95 1.05 6.95 0.95 6.65 0.75 M-4.3 3.1 L-4.2 3.4 -3.9 3.25 -4.05 3.1 -4.3 3.1 M-5.9 -0.75 L-6.5 -0.9 Q-7.1 -0.9 -8.55 0.8 L-9.2 1.7 -9.05 0.95 Q-9.55 1.8 -9.7 2.65 L-9.7 2.7 -9.8 3.7 -9.7 3.65 -9.75 3.7 Q-9.65 4.9 -8.35 6.2 L-8.3 6.1 -8.85 5.5 -8.8 5.5 -7.6 6.3 -7.55 6.2 -8.05 5.9 -7.95 5.95 -6.7 6.25 -5.85 6.35 -5.8 6.35 -5.4 6.35 -5.2 6.25 -7.55 5.55 -3.25 6.4 -3.6 6.2 -4.35 6.1 -3.2 6.2 -3.9 6.0 -4.05 5.95 -4.0 5.95 -4.5 5.75 -5.2 5.55 -2.9 5.4 -3.35 5.2 -1.95 5.1 -2.4 4.9 -2.3 4.8 -1.15 5.0 -0.9 4.9 -1.0 4.85 Q-1.75 4.5 -2.55 4.4 L-2.1 4.5 Q-2.3 4.25 -3.0 4.25 L-4.0 4.5 -4.6 4.2 Q-4.85 4.2 -4.9 4.4 L-5.75 4.2 -6.8 4.3 Q-6.8 4.9 -7.35 5.15 L-7.35 5.25 -8.45 5.2 -8.65 5.25 -7.55 5.6 -6.8 5.85 -8.7 5.45 -8.85 5.5 Q-9.6 4.55 -9.7 3.65 -9.1 0.55 -5.9 -0.75 M-1.35 -1.55 L-1.4 -1.55 Q0.0 -1.0 0.8 -1.0 L-1.35 -1.55 M-5.45 5.5 L-5.55 5.5 -6.2 5.35 -6.15 5.35 -5.9 5.25 -5.25 5.3 -5.15 5.3 -4.8 5.1 -5.15 5.3 -5.45 5.4 -5.45 5.5 M-7.85 5.9 L-8.0 5.9 -7.95 5.85 -7.85 5.9 M-8.25 5.1 L-8.3 5.1 -7.9 5.2 -8.25 5.1 M-10.0 3.95 L-10.05 3.95 -9.85 4.85 Q-9.85 6.75 -6.8 7.6 L-7.35 7.45 -6.85 7.6 -6.8 7.6 -4.75 8.0 -6.5 7.45 -6.35 7.4 -5.55 7.7 -4.25 8.1 -2.55 8.05 -5.65 7.55 -5.55 7.6 -7.35 6.85 -8.25 6.2 -8.3 6.25 -7.55 6.75 -7.85 6.6 -7.9 6.6 -7.85 6.75 -8.35 6.4 Q-10.05 5.15 -10.0 3.95 M-1.45 6.0 L-2.5 5.7 -3.05 5.7 Q-3.05 6.7 -2.5 6.45 L-1.45 6.0 M-1.25 8.25 L-0.65 8.35 -0.35 8.35 -1.25 8.25 M-0.05 6.8 L0.55 6.85 0.6 6.8 0.05 6.75 -0.1 6.8 -0.05 6.8 M4.9 4.45 L4.85 4.45 Q4.85 4.95 5.3 4.5 L4.9 4.45 M4.3 1.25 L3.7 0.6 3.5 0.65 3.45 0.85 4.1 1.35 4.3 1.25 M6.3 5.45 L6.7 4.85 6.15 5.35 6.3 5.45 M6.05 2.7 L5.85 2.7 Q5.95 2.95 6.9 3.25 L6.95 3.1 6.05 2.7 M5.2 2.0 L5.7 2.45 5.7 2.35 5.25 1.95 5.2 2.0 M4.75 3.8 L3.7 3.85 4.5 3.85 4.75 3.8 M2.85 5.45 L2.7 5.25 2.45 5.25 2.55 5.55 2.85 5.45 M3.6 3.45 L3.4 3.2 3.2 3.25 3.25 3.6 3.5 3.6 3.6 3.45 M4.95 6.1 L4.55 5.85 4.4 5.85 4.65 6.05 3.75 6.2 3.75 6.25 4.7 6.1 4.95 6.1" fill="#990000" fill-rule="evenodd" stroke="none"/>
    <path d="M6.4 0.6 L6.65 0.75 6.95 0.95 6.95 1.05 6.2 0.6 6.4 0.6 M-1.35 -1.55 L0.8 -1.0 Q0.0 -1.0 -1.4 -1.55 L-1.35 -1.55 M-5.9 -0.75 Q-9.1 0.55 -9.7 3.65 -9.6 4.55 -8.85 5.5 L-8.7 5.45 -6.8 5.85 -7.55 5.6 -8.65 5.25 -8.45 5.2 -7.35 5.25 -7.35 5.15 Q-6.8 4.9 -6.8 4.3 L-5.75 4.2 -4.9 4.4 Q-4.85 4.2 -4.6 4.2 L-4.0 4.5 -3.0 4.25 Q-2.3 4.25 -2.1 4.5 L-2.55 4.4 Q-1.75 4.5 -1.0 4.85 L-0.9 4.9 -1.15 5.0 -2.3 4.8 -2.4 4.9 -1.95 5.1 -3.35 5.2 -2.9 5.4 -5.2 5.55 -4.5 5.75 -4.0 5.95 -4.05 5.95 -3.9 6.0 -3.2 6.2 -4.35 6.1 -3.6 6.2 -3.25 6.4 -7.55 5.55 -5.2 6.25 -5.4 6.35 -5.8 6.35 -5.85 6.35 -6.7 6.25 -7.95 5.95 -8.05 5.9 -7.55 6.2 -7.6 6.3 -8.8 5.5 -8.85 5.5 -8.3 6.1 -8.35 6.2 Q-9.65 4.9 -9.75 3.7 L-9.7 3.65 -9.8 3.7 -9.7 2.7 -9.7 2.65 Q-9.55 1.8 -9.05 0.95 L-9.2 1.7 -8.55 0.8 Q-7.1 -0.9 -6.5 -0.9 L-5.9 -0.75 M-4.3 3.1 L-4.05 3.1 -3.9 3.25 -4.2 3.4 -4.3 3.1 M-5.45 5.5 L-5.05 5.45 -5.05 5.35 -5.15 5.3 -4.8 5.1 -3.4 5.1 -3.4 4.95 Q-3.8 4.55 -4.6 4.55 L-5.9 5.05 -6.15 5.35 -6.2 5.35 -6.5 5.65 -5.55 5.5 -5.45 5.5 M-5.25 5.3 L-5.7 5.1 -5.0 5.1 -4.8 5.1 -4.75 5.05 -4.8 5.1 -5.15 5.3 -5.25 5.3 M-1.45 6.0 L-2.5 6.45 Q-3.05 6.7 -3.05 5.7 L-2.5 5.7 -1.45 6.0 M-10.0 3.95 Q-10.05 5.15 -8.35 6.4 L-7.85 6.75 -7.9 6.6 -7.85 6.6 -7.55 6.75 -8.3 6.25 -8.25 6.2 -7.35 6.85 -5.55 7.6 -5.65 7.55 -2.55 8.05 -4.25 8.1 -5.55 7.7 -6.35 7.4 -6.5 7.45 -4.75 8.0 -6.8 7.6 -6.85 7.6 -7.35 7.45 -6.8 7.6 Q-9.85 6.75 -9.85 4.85 L-10.05 3.95 -10.0 3.95 M-8.25 5.1 L-7.9 5.2 -8.3 5.1 -8.25 5.1 M-7.85 5.9 L-7.95 5.85 -8.0 5.9 -7.85 5.9 M5.2 2.0 L5.25 1.95 5.7 2.35 5.7 2.45 5.2 2.0 M6.05 2.7 L6.95 3.1 6.9 3.25 Q5.95 2.95 5.85 2.7 L6.05 2.7 M6.3 5.45 L6.15 5.35 6.7 4.85 6.3 5.45 M4.3 1.25 L4.1 1.35 3.45 0.85 3.5 0.65 3.7 0.6 4.3 1.25 M4.9 4.45 L5.3 4.5 Q4.85 4.95 4.85 4.45 L4.9 4.45 M3.6 3.45 L3.5 3.6 3.25 3.6 3.2 3.25 3.4 3.2 3.6 3.45 M2.85 5.45 L2.55 5.55 2.45 5.25 2.7 5.25 2.85 5.45 M4.95 6.1 L4.65 6.05 4.4 5.85 4.55 5.85 4.95 6.1" fill="#c23c14" fill-rule="evenodd" stroke="none"/>
    <path d="M-5.15 5.3 L-5.05 5.35 -5.05 5.45 -5.45 5.5 -5.45 5.4 -5.15 5.3 M-5.55 5.5 L-6.5 5.65 -6.2 5.35 -5.55 5.5 M-6.15 5.35 L-5.9 5.05 -4.6 4.55 Q-3.8 4.55 -3.4 4.95 L-3.4 5.1 -4.8 5.1 -4.75 5.05 -4.8 5.1 -5.0 5.1 -5.7 5.1 -5.25 5.3 -5.9 5.25 -6.15 5.35" fill="#ee7b59" fill-rule="evenodd" stroke="none"/>
    <path d="M12.25 -8.6 L12.35 -9.9 Q13.35 -8.05 14.15 -7.5 14.5 -6.0 14.5 -4.25 16.25 0.9 16.25 1.75 L15.4 3.5 Q14.5 4.8 14.5 5.45 14.5 6.35 15.45 7.8 L13.35 9.6 11.15 11.9 Q11.3 10.65 12.25 9.45 L13.4 7.85 Q12.85 6.85 12.85 6.25 12.85 4.25 14.5 1.65 13.25 -2.05 13.25 -5.25 L12.25 -8.6 M-15.8 -2.75 Q-15.25 -2.75 -13.5 5.45 L-12.1 12.6 Q-12.75 11.95 -13.7 11.9 -14.2 7.8 -16.3 -2.55 -16.25 -2.75 -15.8 -2.75" fill="#fef554" fill-rule="evenodd" stroke="none"/>
  </g>
</svg>
