<?xml version="1.0" encoding="UTF-8" standalone="no"?>
<svg xmlns:ffdec="https://www.free-decompiler.com/flash" xmlns:xlink="http://www.w3.org/1999/xlink" ffdec:objectType="shape" height="33.05px" width="29.75px" xmlns="http://www.w3.org/2000/svg">
  <g transform="matrix(1.0, 0.0, 0.0, 1.0, 14.85, 16.5)">
    <path d="M6.45 -9.55 Q6.45 -10.15 6.85 -10.4 7.75 -10.1 8.35 -8.1 L8.35 -8.0 Q6.45 -8.1 6.45 -9.55 M6.6 -5.05 L6.6 -4.65 Q6.5 -4.5 6.35 -4.5 L5.35 -5.6 5.6 -6.0 5.95 -6.0 Q6.6 -6.0 6.6 -5.05 M11.45 2.25 Q11.45 2.9 10.6 3.75 10.2 3.1 10.35 2.75 L10.6 2.15 10.0 0.75 10.7 0.65 Q11.2 0.65 11.45 2.25 M5.6 5.85 L5.0 6.0 Q4.35 6.0 4.1 5.5 L4.0 5.0 Q4.0 4.0 4.95 4.0 5.65 4.0 5.7 5.2 L5.6 5.85 M-1.9 -13.9 Q0.25 -13.9 -0.3 -12.8 -0.3 -11.65 -1.15 -11.65 L-2.4 -11.75 -2.55 -12.6 Q-2.55 -13.9 -1.9 -13.9 M-7.65 -10.6 L-6.65 -9.85 Q-6.65 -9.55 -7.35 -8.75 -8.1 -7.95 -8.65 -7.75 -8.75 -7.45 -8.75 -8.1 L-7.9 -10.5 -7.65 -10.6 M-5.8 -4.55 Q-5.8 -5.4 -5.15 -5.4 -4.05 -5.4 -4.05 -4.5 -4.05 -3.65 -4.65 -3.65 L-5.75 -3.9 -5.8 -4.55 M-0.9 0.4 L-0.55 0.4 Q0.15 0.4 0.2 1.45 0.2 2.25 -0.4 2.85 -1.3 2.75 -1.3 1.8 -1.3 0.9 -0.9 0.4 M-10.0 1.6 L-9.3 1.4 Q-8.8 1.4 -8.8 2.45 -8.8 3.2 -9.65 3.5 L-10.0 2.9 -10.0 1.6 M-6.8 8.75 Q-6.15 8.75 -6.15 10.6 L-6.4 10.75 Q-7.5 10.55 -7.5 9.8 L-7.4 8.85 -6.8 8.75 M-2.9 10.85 L-1.4 10.9 -1.3 12.0 Q-1.05 12.35 -1.65 12.35 -3.05 12.15 -3.3 11.1 L-2.9 10.85" fill="#990000" fill-rule="evenodd" stroke="none"/>
    <path d="M9.75 -1.75 L10.35 -1.6 10.1 -1.25 Q9.75 -1.4 9.75 -1.75" fill="#c23c14" fill-rule="evenodd" stroke="none"/>
    <path d="M3.0 3.0 L2.6 3.4 2.1 3.1 Q2.1 2.7 2.6 2.5 L3.0 3.0" fill="#710000" fill-rule="evenodd" stroke="none"/>
    <path d="M14.8 2.15 L14.75 2.25 12.75 7.05 Q11.55 9.75 8.6 12.2 4.95 15.2 1.0 15.2 L-4.35 15.7 Q-5.3 15.7 -6.1 15.05 L-8.4 14.5 -10.5 12.9 -12.65 9.8 -13.4 6.95 -14.05 3.5 -13.7 2.9 -13.9 2.25 Q-13.9 -2.4 -12.4 -6.8 L-12.75 -7.2 -12.15 -8.45 Q-8.1 -16.5 -0.15 -16.5 8.3 -16.5 12.4 -8.5 14.9 -3.65 14.9 0.1 L14.8 2.15 M-14.15 -3.1 L-14.3 -2.5 -14.45 -0.85 -14.5 -1.0 -14.55 -1.3 -14.15 -3.1 M-3.95 16.55 L-3.3 16.4 -1.25 16.1 2.85 15.6 Q6.55 14.6 7.7 13.75 L11.2 10.8 Q6.5 16.55 -3.15 16.55 L-3.95 16.55 M12.65 0.0 Q12.65 -4.4 10.15 -8.45 6.45 -14.45 -1.15 -14.45 -8.3 -14.45 -11.15 -6.2 -12.6 -2.05 -12.6 2.25 -12.6 5.95 -11.6 8.5 -9.4 14.05 -3.25 14.05 7.0 14.05 10.85 7.3 12.05 5.15 12.45 2.5 L12.65 0.0" fill="#5e0000" fill-rule="evenodd" stroke="none"/>
    <path d="M6.45 -9.55 Q6.45 -8.1 8.35 -8.0 L8.35 -8.1 Q7.75 -10.1 6.85 -10.4 6.45 -10.15 6.45 -9.55 M0.95 -3.9 Q0.95 -4.35 0.1 -4.4 L-0.75 -3.5 0.1 -3.0 Q0.95 -3.2 0.95 -3.9 M4.5 -9.45 L4.35 -10.1 3.85 -10.15 Q3.1 -9.6 3.1 -9.0 3.1 -8.35 3.25 -8.6 L3.85 -8.6 4.5 -9.45 M6.6 -5.05 Q6.6 -6.0 5.95 -6.0 L5.6 -6.0 5.35 -5.6 6.35 -4.5 Q6.5 -4.5 6.6 -4.65 L6.6 -5.05 M9.75 -1.75 Q9.75 -1.4 10.1 -1.25 L10.35 -1.6 9.75 -1.75 M12.65 0.0 L12.45 2.5 Q12.05 5.15 10.85 7.3 7.0 14.05 -3.25 14.05 -9.4 14.05 -11.6 8.5 -12.6 5.95 -12.6 2.25 -12.6 -2.05 -11.15 -6.2 -8.3 -14.45 -1.15 -14.45 6.45 -14.45 10.15 -8.45 12.65 -4.4 12.65 0.0 M11.45 2.25 Q11.2 0.65 10.7 0.65 L10.0 0.75 10.6 2.15 10.35 2.75 Q10.2 3.1 10.6 3.75 11.45 2.9 11.45 2.25 M7.0 1.75 Q6.85 0.4 6.45 0.4 5.9 0.4 5.75 0.75 L6.6 2.15 7.0 1.75 M5.6 5.85 L5.7 5.2 Q5.65 4.0 4.95 4.0 4.0 4.0 4.0 5.0 L4.1 5.5 Q4.35 6.0 5.0 6.0 L5.6 5.85 M3.0 3.0 L2.6 2.5 Q2.1 2.7 2.1 3.1 L2.6 3.4 3.0 3.0 M7.35 9.0 Q7.15 8.95 6.8 9.25 L6.45 9.65 Q6.45 10.3 6.6 10.5 L7.2 10.65 Q7.75 10.65 8.2 9.9 L7.35 9.0 M-1.9 -13.9 Q-2.55 -13.9 -2.55 -12.6 L-2.4 -11.75 -1.15 -11.65 Q-0.3 -11.65 -0.3 -12.8 0.25 -13.9 -1.9 -13.9 M-4.05 -7.45 Q-4.05 -6.35 -3.3 -6.35 L-2.9 -6.4 -2.75 -6.75 -2.9 -7.85 -3.65 -7.9 -4.05 -7.45 M-7.65 -10.6 L-7.9 -10.5 -8.75 -8.1 Q-8.75 -7.45 -8.65 -7.75 -8.1 -7.95 -7.35 -8.75 -6.65 -9.55 -6.65 -9.85 L-7.65 -10.6 M-7.0 -4.0 Q-7.0 -5.5 -7.55 -5.5 L-8.05 -5.4 -8.15 -5.1 -8.15 -4.0 -7.55 -3.85 Q-6.9 -3.85 -7.0 -4.0 M-0.9 0.4 Q-1.3 0.9 -1.3 1.8 -1.3 2.75 -0.4 2.85 0.2 2.25 0.2 1.45 0.15 0.4 -0.55 0.4 L-0.9 0.4 M-5.8 -4.55 L-5.75 -3.9 -4.65 -3.65 Q-4.05 -3.65 -4.05 -4.5 -4.05 -5.4 -5.15 -5.4 -5.8 -5.4 -5.8 -4.55 M-7.15 2.25 L-7.4 2.35 -7.65 4.35 -7.05 4.5 Q-6.05 4.5 -6.05 3.0 -6.65 2.25 -7.15 2.25 M-6.8 8.75 L-7.4 8.85 -7.5 9.8 Q-7.5 10.55 -6.4 10.75 L-6.15 10.6 Q-6.15 8.75 -6.8 8.75 M-10.0 1.6 L-10.0 2.9 -9.65 3.5 Q-8.8 3.2 -8.8 2.45 -8.8 1.4 -9.3 1.4 L-10.0 1.6 M-1.3 7.4 L-1.8 7.5 -1.9 9.0 -1.3 9.15 Q-0.5 9.05 -0.5 8.3 -0.6 7.4 -1.3 7.4 M-2.9 10.85 L-3.3 11.1 Q-3.05 12.15 -1.65 12.35 -1.05 12.35 -1.3 12.0 L-1.4 10.9 -2.9 10.85" fill="#770000" fill-rule="evenodd" stroke="none"/>
    <path d="M4.5 -9.45 L3.85 -8.6 3.25 -8.6 Q3.1 -8.35 3.1 -9.0 3.1 -9.6 3.85 -10.15 L4.35 -10.1 4.5 -9.45 M0.95 -3.9 Q0.95 -3.2 0.1 -3.0 L-0.75 -3.5 0.1 -4.4 Q0.95 -4.35 0.95 -3.9 M7.0 1.75 L6.6 2.15 5.75 0.75 Q5.9 0.4 6.45 0.4 6.85 0.4 7.0 1.75 M7.35 9.0 L8.2 9.9 Q7.75 10.65 7.2 10.65 L6.6 10.5 Q6.45 10.3 6.45 9.65 L6.8 9.25 Q7.15 8.95 7.35 9.0 M-4.05 -7.45 L-3.65 -7.9 -2.9 -7.85 -2.75 -6.75 -2.9 -6.4 -3.3 -6.35 Q-4.05 -6.35 -4.05 -7.45 M-7.0 -4.0 Q-6.9 -3.85 -7.55 -3.85 L-8.15 -4.0 -8.15 -5.1 -8.05 -5.4 -7.55 -5.5 Q-7.0 -5.5 -7.0 -4.0 M-7.15 2.25 Q-6.65 2.25 -6.05 3.0 -6.05 4.5 -7.05 4.5 L-7.65 4.35 -7.4 2.35 -7.15 2.25 M-1.3 7.4 Q-0.6 7.4 -0.5 8.3 -0.5 9.05 -1.3 9.15 L-1.9 9.0 -1.8 7.5 -1.3 7.4" fill="#640000" fill-rule="evenodd" stroke="none"/>
    <path d="M14.8 2.15 L14.8 2.1 14.6 3.35 13.6 6.7 13.3 7.45 12.4 9.05 11.2 10.8 7.7 13.75 Q6.55 14.6 2.85 15.6 L-1.25 16.1 -3.3 16.4 -3.95 16.55 Q-11.05 16.2 -13.65 9.45 -14.5 7.25 -14.75 4.55 L-14.85 2.25 -14.55 -1.3 -14.5 -1.0 -14.45 -0.85 -14.3 -2.5 -14.15 -3.1 -13.65 -4.85 -13.55 -5.1 -13.0 -6.55 -12.9 -6.75 -12.85 -6.95 -12.75 -7.2 -12.4 -6.8 Q-13.9 -2.4 -13.9 2.25 L-13.7 2.9 -14.05 3.5 -13.4 6.95 -12.65 9.8 -10.5 12.9 -8.4 14.5 -6.1 15.05 Q-5.3 15.7 -4.35 15.7 L1.0 15.2 Q4.95 15.2 8.6 12.2 11.55 9.75 12.75 7.05 L14.75 2.25 14.8 2.15" fill="#510000" fill-rule="evenodd" stroke="none"/>
  </g>
</svg>
