<?xml version="1.0" encoding="UTF-8" standalone="no"?>
<svg xmlns:ffdec="https://www.free-decompiler.com/flash" xmlns:xlink="http://www.w3.org/1999/xlink" ffdec:objectType="shape" height="12.5px" width="17.45px" xmlns="http://www.w3.org/2000/svg">
  <g transform="matrix(1.0, 0.0, 0.0, 1.0, 8.5, 2.25)">
    <path d="M3.8 -1.65 L3.65 -1.6 Q3.45 -1.65 3.45 -1.9 L3.5 -2.25 3.7 -2.25 3.85 -1.9 3.8 -1.65 M4.05 -0.05 Q3.5 -0.05 3.5 -0.45 3.5 -1.0 4.0 -1.0 4.45 -1.0 4.45 -0.5 4.45 -0.05 4.05 -0.05 M5.65 2.75 Q7.9 3.05 8.95 4.1 L8.95 4.35 8.6 4.45 Q5.8 3.9 5.4 2.85 L5.65 2.75 M6.75 5.15 L7.9 5.0 8.15 5.25 7.45 5.7 7.75 6.25 Q7.75 6.7 7.15 6.7 L6.0 6.6 Q4.95 6.6 4.7 6.0 4.8 5.7 5.05 5.7 L7.1 6.05 6.7 5.45 6.75 5.15 M4.7 0.95 Q4.95 1.4 3.5 1.2 L3.95 1.75 3.7 2.35 3.5 2.45 Q3.05 1.9 3.05 1.1 L3.1 0.8 4.15 0.7 Q4.6 0.7 4.7 0.95 M3.85 3.95 Q3.05 4.35 1.65 4.75 L1.3 4.4 1.65 4.05 1.65 3.8 1.9 3.75 2.0 3.8 Q3.3 2.7 4.75 2.7 L4.95 2.9 4.9 3.2 3.85 3.95 M1.85 2.9 Q1.85 3.35 1.45 3.35 0.95 3.35 0.95 2.9 0.95 2.45 1.4 2.45 1.85 2.45 1.85 2.9 M1.9 2.6 L2.8 2.35 1.95 2.7 1.9 2.6 M-0.75 5.25 L-1.6 4.4 0.05 3.35 0.2 3.35 Q0.8 3.35 0.75 4.05 L0.6 4.85 0.3 5.35 0.5 5.75 0.0 6.25 Q0.45 6.35 0.95 6.6 L2.25 7.4 3.05 7.35 Q1.65 6.9 1.35 6.5 1.0 6.55 2.1 6.1 L1.95 5.55 2.0 5.25 2.2 5.25 Q2.45 5.25 2.45 5.9 L1.7 6.45 Q3.75 6.8 4.25 7.65 L3.4 7.9 Q4.95 8.3 4.95 9.0 L4.9 9.2 4.4 9.3 2.5 9.1 2.3 9.05 3.35 9.9 3.0 10.25 Q0.9 9.5 0.45 9.5 L-0.2 9.45 -0.3 9.15 0.45 8.75 Q0.7 9.7 1.55 9.7 L1.95 9.35 Q1.5 8.9 1.2 8.9 L2.45 8.7 1.8 7.95 1.05 7.5 0.75 7.5 1.75 8.45 1.65 8.5 0.55 8.45 0.6 8.15 Q-1.15 7.1 -1.15 6.55 L-1.05 6.25 -1.7 6.1 -1.65 5.95 -1.85 5.6 -1.25 5.25 -0.85 5.25 -0.8 5.25 -0.9 5.3 -1.05 5.5 Q-1.05 5.75 -0.85 5.65 L0.3 5.2 0.4 4.75 Q0.4 4.4 0.05 4.4 L-0.1 4.4 Q-0.25 4.65 -1.15 4.95 L-0.9 5.15 -0.55 5.1 -0.75 5.25 M-2.0 6.0 L-2.3 5.55 Q-2.3 5.3 -1.8 5.25 L-2.2 5.7 -2.0 6.0 M-6.3 1.85 L-7.0 1.6 -7.0 1.3 -6.55 1.25 -5.25 1.45 -4.75 1.25 Q-3.95 1.3 -3.6 1.6 L-3.55 1.7 Q-3.55 1.95 -4.15 2.0 -3.65 2.1 -3.65 2.6 L-2.8 3.2 -3.3 3.6 -3.15 3.9 Q-3.15 4.05 -4.1 4.5 L-3.9 4.9 Q-3.9 5.35 -5.9 5.55 -6.1 6.45 -6.8 6.3 L-6.75 6.6 Q-6.75 7.1 -7.35 7.1 -7.95 7.1 -8.5 6.55 L-8.5 6.3 -7.75 6.35 -7.9 5.9 -7.25 5.5 -7.0 5.45 -7.2 5.15 Q-7.2 4.8 -5.1 4.75 -6.1 4.45 -6.1 4.15 L-6.05 3.85 -4.5 3.75 -5.45 3.15 -5.25 3.25 -4.8 2.7 Q-5.05 2.45 -5.45 3.1 L-5.5 2.75 -6.55 2.25 -6.4 2.05 -6.3 2.15 Q-5.95 2.5 -5.35 2.5 L-5.2 2.4 -5.2 2.35 -5.3 2.1 -6.2 1.85 -6.3 1.85 M-7.25 5.5 L-7.6 5.95 Q-7.05 6.5 -7.05 5.7 L-7.25 5.5 M-4.55 6.55 Q-4.55 6.35 -2.75 6.0 L-2.5 6.25 Q-2.5 6.8 -3.6 6.8 L-3.55 7.2 -3.85 7.3 Q-4.4 7.3 -4.55 6.55" fill="#8a0000" fill-rule="evenodd" stroke="none"/>
    <path d="M4.9 3.2 L4.95 3.4 4.8 3.75 Q4.55 3.6 4.15 4.05 L3.85 3.95 4.9 3.2 M0.45 8.75 L0.5 8.65 0.55 8.45 1.65 8.5 1.75 8.45 0.75 7.5 1.05 7.5 1.8 7.95 2.45 8.7 1.2 8.9 Q1.5 8.9 1.95 9.35 L1.55 9.7 Q0.7 9.7 0.45 8.75 M-1.7 6.1 L-2.0 6.0 -2.2 5.7 -1.8 5.25 -1.75 5.25 -1.25 5.25 -1.85 5.6 -1.65 5.95 -1.7 6.1 M-0.8 5.25 L-0.75 5.25 -0.55 5.1 -0.9 5.15 -1.15 4.95 Q-0.25 4.65 -0.1 4.4 L0.05 4.4 Q0.4 4.4 0.4 4.75 L0.3 5.2 -0.85 5.65 Q-1.05 5.75 -1.05 5.5 L-0.9 5.3 -0.8 5.25 M-5.45 3.15 L-5.45 3.1 Q-5.05 2.45 -4.8 2.7 L-5.25 3.25 -5.45 3.15 M-6.4 2.05 L-6.15 1.9 -6.3 1.85 -6.2 1.85 -5.3 2.1 -5.2 2.35 -5.2 2.4 -5.35 2.5 Q-5.95 2.5 -6.3 2.15 L-6.4 2.05 M-7.25 5.5 L-7.05 5.7 Q-7.05 6.5 -7.6 5.95 L-7.25 5.5" fill="#990000" fill-rule="evenodd" stroke="none"/>
  </g>
</svg>
