<?xml version="1.0" encoding="UTF-8" standalone="no"?>
<svg xmlns:ffdec="https://www.free-decompiler.com/flash" xmlns:xlink="http://www.w3.org/1999/xlink" ffdec:objectType="shape" height="33.4px" width="29.7px" xmlns="http://www.w3.org/2000/svg">
  <g transform="matrix(1.0, 0.0, 0.0, 1.0, 14.8, 16.85)">
    <path d="M9.75 -1.75 L10.35 -1.6 10.1 -1.25 Q9.75 -1.4 9.75 -1.75" fill="#c23c14" fill-rule="evenodd" stroke="none"/>
    <path d="M8.35 -8.0 Q6.45 -8.1 6.45 -9.55 6.45 -10.15 6.85 -10.4 7.75 -10.1 8.35 -8.1 L8.35 -8.0 M4.5 -9.45 L3.85 -8.6 3.25 -8.6 Q3.1 -8.35 3.1 -9.0 3.1 -9.6 3.85 -10.15 L4.35 -10.1 4.5 -9.45 M0.1 -3.0 L-0.75 -3.5 0.1 -4.4 Q0.95 -4.35 0.95 -3.9 0.95 -3.2 0.1 -3.0 M6.35 -4.5 L5.35 -5.6 5.6 -6.0 5.95 -6.0 Q6.6 -6.0 6.6 -5.05 L6.6 -4.65 Q6.5 -4.5 6.35 -4.5 M-0.55 -13.7 Q0.0 -13.45 -0.3 -12.8 -0.3 -11.65 -1.15 -11.65 L-2.4 -11.75 -2.55 -12.6 -2.35 -13.6 -0.65 -13.7 -0.55 -13.7 M4.05 5.3 L4.0 5.0 Q4.0 4.0 4.95 4.0 5.65 4.0 5.7 5.2 L5.7 5.5 4.05 5.3 M11.45 2.25 Q11.45 2.9 10.6 3.75 10.2 3.1 10.35 2.75 L10.6 2.15 10.0 0.75 10.7 0.65 Q11.2 0.65 11.45 2.25 M5.75 0.75 Q5.9 0.4 6.45 0.4 6.85 0.4 7.0 1.75 L6.6 2.15 5.75 0.75 M3.0 3.0 L2.6 3.4 2.1 3.1 Q2.1 2.7 2.6 2.5 L3.0 3.0 M-2.75 -6.75 L-2.9 -6.4 -3.3 -6.35 Q-4.05 -6.35 -4.05 -7.45 L-3.65 -7.9 -2.9 -7.85 -2.75 -6.75 M-7.65 -10.6 L-6.65 -9.85 Q-6.65 -9.55 -7.35 -8.75 -8.1 -7.95 -8.65 -7.75 -8.75 -7.45 -8.75 -8.1 L-7.9 -10.5 -7.65 -10.6 M-5.8 -4.55 Q-5.8 -5.4 -5.15 -5.4 -4.05 -5.4 -4.05 -4.5 -4.05 -3.65 -4.65 -3.65 L-5.75 -3.9 -5.8 -4.55 M-7.55 -3.85 L-8.15 -4.0 -8.15 -5.1 -8.05 -5.4 -7.55 -5.5 Q-7.0 -5.5 -7.0 -4.0 -6.9 -3.85 -7.55 -3.85 M-1.3 1.8 Q-1.3 0.9 -0.9 0.4 L-0.55 0.4 Q0.15 0.4 0.2 1.45 0.2 2.25 -0.4 2.85 -1.3 2.75 -1.3 1.8 M-7.3 4.45 L-7.65 4.35 -7.65 3.8 -6.95 4.05 -7.3 4.45 M-6.7 4.15 L-6.35 4.2 -6.45 4.35 -6.7 4.15" fill="#710000" fill-rule="evenodd" stroke="none"/>
    <path d="M12.4 -8.5 Q14.9 -3.65 14.9 0.1 14.9 4.9 12.4 9.05 7.85 16.55 -3.15 16.55 -10.9 16.55 -13.65 9.45 -14.5 7.25 -14.75 4.55 L-14.65 -0.9 Q-14.45 -4.1 -11.1 -10.65 -7.8 -17.25 0.25 -16.85 8.3 -16.5 12.4 -8.5 M12.3 3.4 L12.45 2.5 12.65 0.0 Q12.65 -4.4 9.7 -9.05 6.7 -13.65 -0.55 -13.7 L-0.65 -13.7 -2.35 -13.6 Q-8.05 -13.0 -10.15 -8.3 L-10.0 -8.05 -10.4 -6.8 Q-9.95 -6.5 -9.95 -4.8 L-9.95 -4.75 -9.6 -4.85 Q-9.25 -4.75 -9.25 -4.35 -9.8 -2.8 -9.75 -2.05 L-9.7 -1.6 -9.75 -1.6 Q-10.35 -1.6 -10.45 -0.05 L-11.2 -0.2 -11.65 2.4 -11.2 4.55 Q-10.6 6.4 -10.0 7.0 -9.25 7.65 -8.3 9.4 L-7.2 10.45 -7.1 10.5 -5.2 11.85 -5.5 12.2 -8.2 11.35 -8.6 11.4 -7.4 12.4 -6.4 13.2 -4.2 13.35 -3.3 13.55 -0.35 13.2 1.35 13.0 Q1.55 12.65 2.35 12.55 L3.6 12.2 5.25 10.7 6.55 10.35 8.0 9.7 8.45 9.35 Q9.55 8.1 10.4 7.9 L10.45 7.95 10.85 7.3 11.85 5.05 Q12.65 4.45 12.65 3.95 L12.3 3.4 M-9.35 -1.4 L-9.35 -1.55 Q-9.35 -2.45 -9.0 -2.45 -7.8 -1.8 -7.65 -1.1 L-6.95 0.45 -6.25 -0.15 -5.3 1.3 Q-5.7 1.0 -5.75 1.0 L-6.3 1.6 -6.5 1.35 -6.75 1.85 Q-7.35 1.75 -8.15 2.35 L-8.25 1.85 -8.8 2.5 -9.45 2.0 -9.2 2.0 Q-8.75 2.0 -8.75 0.95 L-8.9 -0.35 Q-9.05 -1.1 -9.35 -1.4 M-6.2 4.2 L-4.9 4.5 -4.75 4.7 Q-4.45 5.2 -4.45 5.4 L-4.5 5.7 -4.85 5.8 -5.25 5.55 Q-5.85 6.8 -6.4 6.95 L-6.2 8.15 Q-6.2 8.55 -6.6 8.55 -7.45 8.55 -8.9 6.45 L-9.35 4.0 Q-9.35 3.45 -9.0 3.45 -8.35 3.45 -8.15 3.95 L-7.35 4.45 -7.3 4.45 -6.95 4.05 -6.7 4.15 -6.45 4.35 -6.4 4.35 -6.2 4.2 M-10.35 10.8 Q-10.7 9.95 -11.0 9.75 L-10.35 10.85 -10.35 10.8 M-1.95 13.8 L-0.35 13.8 0.05 13.7 -1.5 13.7 -1.95 13.8" fill="#000000" fill-rule="evenodd" stroke="none"/>
    <path d="M6.35 -4.5 Q6.5 -4.5 6.6 -4.65 L6.6 -5.05 Q6.6 -6.0 5.95 -6.0 L5.6 -6.0 5.35 -5.6 6.35 -4.5 M0.1 -3.0 Q0.95 -3.2 0.95 -3.9 0.95 -4.35 0.1 -4.4 L-0.75 -3.5 0.1 -3.0 M4.5 -9.45 L4.35 -10.1 3.85 -10.15 Q3.1 -9.6 3.1 -9.0 3.1 -8.35 3.25 -8.6 L3.85 -8.6 4.5 -9.45 M8.35 -8.0 L8.35 -8.1 Q7.75 -10.1 6.85 -10.4 6.45 -10.15 6.45 -9.55 6.45 -8.1 8.35 -8.0 M9.75 -1.75 Q9.75 -1.4 10.1 -1.25 L10.35 -1.6 9.75 -1.75 M-0.55 -13.7 Q6.7 -13.65 9.7 -9.05 12.65 -4.4 12.65 0.0 L12.45 2.5 12.3 3.4 12.25 3.35 Q9.55 5.55 7.55 5.55 L5.7 5.5 5.7 5.2 Q5.65 4.0 4.95 4.0 4.0 4.0 4.0 5.0 L4.05 5.3 Q0.0 4.6 -3.35 2.25 L-3.75 2.5 -5.3 1.3 -6.25 -0.15 -6.95 0.45 -7.65 -1.1 Q-7.8 -1.8 -9.0 -2.45 -9.35 -2.45 -9.35 -1.55 L-9.35 -1.4 -9.7 -1.6 -9.75 -2.05 Q-9.8 -2.8 -9.25 -4.35 -9.25 -4.75 -9.6 -4.85 L-9.95 -4.75 -9.95 -4.8 Q-9.95 -6.5 -10.4 -6.8 L-10.0 -8.05 -10.15 -8.3 Q-8.05 -13.0 -2.35 -13.6 L-2.55 -12.6 -2.4 -11.75 -1.15 -11.65 Q-0.3 -11.65 -0.3 -12.8 0.0 -13.45 -0.55 -13.7 M8.0 9.7 L6.55 10.35 6.45 9.65 6.8 9.25 Q7.15 8.95 7.35 9.0 L8.0 9.7 M-7.1 10.5 L-7.2 10.45 -7.5 9.8 -7.4 8.85 -6.8 8.75 Q-6.15 8.75 -6.15 10.6 L-6.4 10.75 -7.1 10.5 M3.0 3.0 L2.6 2.5 Q2.1 2.7 2.1 3.1 L2.6 3.4 3.0 3.0 M5.75 0.75 L6.6 2.15 7.0 1.75 Q6.85 0.4 6.45 0.4 5.9 0.4 5.75 0.75 M11.45 2.25 Q11.2 0.65 10.7 0.65 L10.0 0.75 10.6 2.15 10.35 2.75 Q10.2 3.1 10.6 3.75 11.45 2.9 11.45 2.25 M-7.55 -3.85 Q-6.9 -3.85 -7.0 -4.0 -7.0 -5.5 -7.55 -5.5 L-8.05 -5.4 -8.15 -5.1 -8.15 -4.0 -7.55 -3.85 M-5.8 -4.55 L-5.75 -3.9 -4.65 -3.65 Q-4.05 -3.65 -4.05 -4.5 -4.05 -5.4 -5.15 -5.4 -5.8 -5.4 -5.8 -4.55 M-7.65 -10.6 L-7.9 -10.5 -8.75 -8.1 Q-8.75 -7.45 -8.65 -7.75 -8.1 -7.95 -7.35 -8.75 -6.65 -9.55 -6.65 -9.85 L-7.65 -10.6 M-2.75 -6.75 L-2.9 -7.85 -3.65 -7.9 -4.05 -7.45 Q-4.05 -6.35 -3.3 -6.35 L-2.9 -6.4 -2.75 -6.75 M-9.45 2.0 L-8.8 2.5 Q-8.85 3.2 -9.65 3.5 L-10.0 2.9 -10.0 1.8 -9.45 2.0 M-6.75 1.85 L-6.5 1.35 -6.3 1.6 -6.5 1.9 -6.75 1.85 M-1.3 1.8 Q-1.3 2.75 -0.4 2.85 0.2 2.25 0.2 1.45 0.15 0.4 -0.55 0.4 L-0.9 0.4 Q-1.3 0.9 -1.3 1.8 M-6.35 4.2 L-6.3 4.2 -6.2 4.2 -6.4 4.35 -6.45 4.35 -6.35 4.2 M-1.3 7.4 Q-0.6 7.4 -0.5 8.3 -0.5 9.05 -1.3 9.15 L-1.9 9.0 -1.8 7.5 -1.3 7.4 M-2.9 10.85 L-1.4 10.9 -1.3 12.0 Q-1.05 12.35 -1.65 12.35 -3.05 12.15 -3.3 11.1 L-2.9 10.85 M-1.95 13.8 L-1.5 13.7 0.05 13.7 -0.35 13.8 -1.95 13.8 M-10.35 10.8 L-10.35 10.85 -11.0 9.75 Q-10.7 9.95 -10.35 10.8" fill="#5b0000" fill-rule="evenodd" stroke="none"/>
    <path d="M-9.7 -1.6 L-9.35 -1.4 Q-9.05 -1.1 -8.9 -0.35 L-8.75 0.95 Q-8.75 2.0 -9.2 2.0 L-9.45 2.0 -10.0 1.8 -10.0 2.9 -9.65 3.5 Q-8.85 3.2 -8.8 2.5 L-8.25 1.85 -8.15 2.35 Q-7.35 1.75 -6.75 1.85 L-6.5 1.9 -6.3 1.6 -5.75 1.0 Q-5.7 1.0 -5.3 1.3 L-3.75 2.5 -3.35 2.25 Q0.0 4.6 4.05 5.3 L5.7 5.5 7.55 5.55 Q9.55 5.55 12.25 3.35 L12.3 3.4 12.65 3.95 Q12.65 4.45 11.85 5.05 L10.85 7.3 10.45 7.95 10.4 7.9 Q9.55 8.1 8.45 9.35 L8.0 9.7 7.35 9.0 Q7.15 8.95 6.8 9.25 L6.45 9.65 6.55 10.35 5.25 10.7 3.6 12.2 2.35 12.55 Q1.55 12.65 1.35 13.0 L-0.35 13.2 -3.3 13.55 -4.2 13.35 -6.4 13.2 -7.4 12.4 -8.6 11.4 -8.2 11.35 -5.5 12.2 -5.2 11.85 -7.1 10.5 -6.4 10.75 -6.15 10.6 Q-6.15 8.75 -6.8 8.75 L-7.4 8.85 -7.5 9.8 -7.2 10.45 -8.3 9.4 Q-9.25 7.65 -10.0 7.0 -10.6 6.4 -11.2 4.55 L-11.65 2.4 -11.2 -0.2 -10.45 -0.05 Q-10.35 -1.6 -9.75 -1.6 L-9.7 -1.6 M-7.3 4.45 L-7.35 4.45 -8.15 3.95 Q-8.35 3.45 -9.0 3.45 -9.35 3.45 -9.35 4.0 L-8.9 6.45 Q-7.45 8.55 -6.6 8.55 -6.2 8.55 -6.2 8.15 L-6.4 6.95 Q-5.85 6.8 -5.25 5.55 L-4.85 5.8 -4.5 5.7 -4.45 5.4 Q-4.45 5.2 -4.75 4.7 L-4.9 4.5 -6.2 4.2 -6.3 4.2 -6.35 4.2 -6.7 4.15 -6.95 4.05 -7.65 3.8 -7.65 4.35 -7.3 4.45 M-2.9 10.85 L-3.3 11.1 Q-3.05 12.15 -1.65 12.35 -1.05 12.35 -1.3 12.0 L-1.4 10.9 -2.9 10.85 M-1.3 7.4 L-1.8 7.5 -1.9 9.0 -1.3 9.15 Q-0.5 9.05 -0.5 8.3 -0.6 7.4 -1.3 7.4" fill="#510000" fill-rule="evenodd" stroke="none"/>
  </g>
</svg>
