<?xml version="1.0" encoding="UTF-8" standalone="no"?>
<svg xmlns:ffdec="https://www.free-decompiler.com/flash" xmlns:xlink="http://www.w3.org/1999/xlink" ffdec:objectType="shape" height="33.75px" width="32.55px" xmlns="http://www.w3.org/2000/svg">
  <g transform="matrix(1.0, 0.0, 0.0, 1.0, 16.3, 17.15)">
    <path d="M3.0 -16.25 L2.5 -15.75 1.4 -15.75 1.25 -16.4 Q1.6 -16.75 2.1 -16.75 L2.8 -16.45 2.5 -17.0 3.0 -17.15 Q6.65 -16.0 7.5 -14.55 L7.5 -14.4 Q7.8 -14.25 7.15 -14.25 L6.35 -14.5 6.6 -14.0 6.35 -13.65 Q6.15 -14.8 3.5 -15.25 L3.4 -15.5 3.5 -15.9 2.95 -16.35 3.0 -16.25 M9.5 -14.0 L12.3 -9.75 12.35 -9.9 Q13.35 -8.05 14.15 -7.5 14.5 -6.0 14.5 -4.25 16.25 0.9 16.25 1.75 L15.4 3.5 Q14.5 4.8 14.5 5.45 14.5 6.35 15.45 7.8 L13.35 9.6 11.15 11.9 11.25 11.35 10.75 11.75 10.25 11.4 12.15 8.75 13.15 7.35 12.85 6.25 Q12.85 4.25 14.5 1.65 L13.95 -0.2 Q13.25 -0.9 12.95 -2.65 12.7 -4.1 12.75 -5.65 L12.95 -6.2 12.25 -8.6 Q11.5 -9.15 10.5 -10.4 9.0 -12.3 9.0 -13.35 9.0 -13.8 9.5 -14.0 M-12.75 -7.15 Q-12.25 -6.95 -12.25 -6.5 -12.65 -5.8 -12.65 -5.15 -12.65 -4.15 -13.0 -2.25 -13.55 0.5 -14.4 1.35 L-13.5 5.45 -13.35 6.1 -13.25 6.1 Q-10.5 6.1 -10.8 9.0 L-11.05 9.9 -11.05 9.95 -10.5 9.9 Q-8.3 9.9 -7.3 13.15 L-7.4 13.55 -4.65 16.1 -4.55 16.25 Q-4.85 16.6 -5.25 16.6 -7.3 16.6 -9.25 15.15 -10.4 14.9 -11.0 14.3 L-12.85 12.1 -13.7 11.9 Q-14.2 7.8 -16.3 -2.55 -16.25 -2.75 -15.8 -2.75 -15.5 -2.75 -14.95 -0.65 L-14.35 -3.05 Q-13.45 -6.35 -12.75 -7.15 M-12.95 8.15 L-12.85 8.1 -12.95 8.0 -12.95 8.15 M-12.25 11.2 L-12.4 11.05 -12.35 11.15 -12.25 11.2" fill="#b99e0b" fill-rule="evenodd" stroke="none"/>
  </g>
</svg>
